# ('FARMS composite mesh',)
mtllib keel_composite.mtl

o StandardKeel.001
usemtl keel_composite
v 687.32812500 -151.76672400 -1.04039000
v 687.32812500 -151.76672400 -1.04039000
v 687.32812500 -151.76672400 -1.04039000
v 1056.21289100 8.29975900 -30.27884100
v 1056.21289100 8.29975900 -30.27884100
v 1056.21289100 8.29975900 -30.27884100
v 1056.21289100 8.29975900 -30.27884100
v 671.77496300 -183.26771500 -0.94179400
v 671.77496300 -183.26771500 -0.94179400
v 671.77496300 -183.26771500 -0.94179400
v 671.77496300 -183.26771500 -0.94179400
v 801.18438700 -210.69966100 -19.07993100
v 801.18438700 -210.69966100 -19.07993100
v 801.18438700 -210.69966100 -19.07993100
v 801.18438700 -210.69966100 -19.07993100
v 801.18438700 -210.69966100 -19.07993100
v 801.18438700 -210.69966100 -19.07993100
v 924.42639200 8.29972800 -24.05985600
v 924.42639200 8.29972800 -24.05985600
v 924.42639200 8.29972800 -24.05985600
v 1106.23315400 8.29936200 -25.44809000
v 1106.23315400 8.29936200 -25.44809000
v 1106.23315400 8.29936200 -25.44809000
v 1106.23315400 8.29936200 -25.44809000
v 731.74707000 -59.60743700 -1.17052900
v 731.74707000 -59.60743700 -1.17052900
v 731.74707000 -59.60743700 -1.17052900
v 740.86889600 -39.59123200 -1.13558700
v 740.86889600 -39.59123200 -1.13558700
v 1038.81738300 8.29905700 -30.93959200
v 1038.81738300 8.29905700 -30.93959200
v 1038.81738300 8.29905700 -30.93959200
v 1038.81738300 8.29905700 -30.93959200
v 902.17388900 -210.69264200 -9.94103700
v 902.17388900 -210.69264200 -9.94103700
v 902.17388900 -210.69264200 -9.94103700
v 902.17388900 -210.69264200 -9.94103700
v 902.17388900 -210.69264200 -9.94103700
v 910.15588400 -210.67015100 -6.69418100
v 910.15588400 -210.67015100 -6.69418100
v 910.15588400 -210.67015100 -6.69418100
v 910.15588400 -210.67015100 -6.69418100
v 902.79956100 8.29971300 -21.24335100
v 902.79956100 8.29971300 -21.24335100
v 902.79956100 8.29971300 -21.24335100
v 1155.53894000 8.29652400 -13.99911700
v 1155.53894000 8.29652400 -13.99911700
v 1155.53894000 8.29652400 -13.99911700
v 1162.89038100 8.29892000 -10.82802800
v 1162.89038100 8.29892000 -10.82802800
v 1162.89038100 8.29892000 -10.82802800
v 1162.89038100 8.29892000 -10.82802800
v 1162.89038100 8.29892000 -10.82802800
v 1162.89038100 8.29892000 -10.82802800
v 716.69830300 -119.37570200 -2.76219000
v 716.69830300 -119.37570200 -2.76219000
v 716.69830300 -119.37570200 -2.76219000
v 764.34204100 8.29753100 -1.25824500
v 764.34204100 8.29753100 -1.25824500
v 764.34204100 8.29753100 -1.25824500
v 1172.01049800 8.29946900 -4.33461700
v 1172.01049800 8.29946900 -4.33461700
v 1172.01049800 8.29946900 -4.33461700
v 1172.01049800 8.29946900 -4.33461700
v 759.60717800 8.28547700 0.00789700
v 759.60717800 8.28547700 0.00789700
v 759.60717800 8.28547700 0.00789700
v 759.60717800 8.28547700 0.00789700
v 713.63195800 -87.58732600 0.00003900
v 713.63195800 -87.58732600 0.00003900
v 713.63195800 -87.58732600 0.00003900
v 713.63195800 -87.58732600 0.00003900
v 718.47271700 -86.70719900 -1.10497800
v 718.47271700 -86.70719900 -1.10497800
v 718.47271700 -86.70719900 -1.10497800
v 667.77117900 -183.17167700 -0.01216900
v 667.77117900 -183.17167700 -0.01216900
v 667.77117900 -183.17167700 -0.01216900
v 1077.53881800 8.29974400 -28.78801000
v 1077.53881800 8.29974400 -28.78801000
v 1077.53881800 8.29974400 -28.78801000
v 1168.04980500 8.29846200 -7.83573500
v 1168.04980500 8.29846200 -7.83573500
v 1168.04980500 8.29846200 -7.83573500
v 654.52276600 -210.70021100 -0.08313500
v 654.52276600 -210.70021100 -0.08313500
v 654.52276600 -210.70021100 -0.08313500
v 654.52276600 -210.70021100 -0.08313500
v 783.17602500 8.29975900 -3.55966200
v 783.17602500 8.29975900 -3.55966200
v 783.17602500 8.29975900 -3.55966200
v 992.84594700 -144.08250400 -4.04624100
v 992.84594700 -144.08250400 -4.04624100
v 992.84594700 -144.08250400 -4.04624100
v 992.84594700 -144.08250400 -4.04624100
v 992.84594700 -144.08250400 -4.04624100
v 725.96276900 -61.84747300 0.00166600
v 725.96276900 -61.84747300 0.00166600
v 1148.39709500 8.29850800 -16.42709900
v 1148.39709500 8.29850800 -16.42709900
v 1148.39709500 8.29850800 -16.42709900
v 1148.39709500 8.29850800 -16.42709900
v 1148.39709500 8.29850800 -16.42709900
v 1148.39709500 8.29850800 -16.42709900
v 821.13549800 -210.69998200 -19.67135600
v 821.13549800 -210.69998200 -19.67135600
v 821.13549800 -210.69998200 -19.67135600
v 821.13549800 -210.69998200 -19.67135600
v 821.13549800 -210.69998200 -19.67135600
v 821.13549800 -210.69998200 -19.67135600
v 1092.64721700 8.29974400 -27.20680600
v 1092.64721700 8.29974400 -27.20680600
v 1092.64721700 8.29974400 -27.20680600
v 1092.64721700 8.29974400 -27.20680600
v 877.07177700 -210.70024100 -15.62223500
v 877.07177700 -210.70024100 -15.62223500
v 877.07177700 -210.70024100 -15.62223500
v 1081.19494600 -65.65139800 -7.36554100
v 1081.19494600 -65.65139800 -7.36554100
v 1081.19494600 -65.65139800 -7.36554100
v 1081.19494600 -65.65139800 -7.36554100
v 1081.19494600 -65.65139800 -7.36554100
v 1081.19494600 -65.65139800 -7.36554100
v 1042.98852500 -101.50771300 -4.06159700
v 1042.98852500 -101.50771300 -4.06159700
v 1042.98852500 -101.50771300 -4.06159700
v 1042.98852500 -101.50771300 -4.06159700
v 1067.81884800 -80.46449300 -3.98553800
v 1067.81884800 -80.46449300 -3.98553800
v 1067.81884800 -80.46449300 -3.98553800
v 1067.81884800 -80.46449300 -3.98553800
v 1067.81884800 -80.46449300 -3.98553800
v 1067.81884800 -80.46449300 -3.98553800
v 1043.90283200 -96.93170900 -7.49787400
v 1043.90283200 -96.93170900 -7.49787400
v 1043.90283200 -96.93170900 -7.49787400
v 1043.90283200 -96.93170900 -7.49787400
v 1043.90283200 -96.93170900 -7.49787400
v 1043.90283200 -96.93170900 -7.49787400
v 1043.90283200 -96.93170900 -7.49787400
v 758.76190200 -210.70008900 -15.22553900
v 758.76190200 -210.70008900 -15.22553900
v 758.76190200 -210.70008900 -15.22553900
v 758.76190200 -210.70008900 -15.22553900
v 965.78503400 -158.75709500 -9.58618500
v 965.78503400 -158.75709500 -9.58618500
v 965.78503400 -158.75709500 -9.58618500
v 965.78503400 -158.75709500 -9.58618500
v 965.78503400 -158.75709500 -9.58618500
v 976.05773900 -154.45231600 -7.22813400
v 976.05773900 -154.45231600 -7.22813400
v 976.05773900 -154.45231600 -7.22813400
v 976.05773900 -154.45231600 -7.22813400
v 976.05773900 -154.45231600 -7.22813400
v 914.46630900 -210.68905600 -3.89658500
v 914.46630900 -210.68905600 -3.89658500
v 914.46630900 -210.68905600 -3.89658500
v 914.46630900 -210.68905600 -3.89658500
v 914.46630900 -210.68905600 -3.89658500
v 914.46630900 -210.68905600 -3.89658500
v 914.46630900 -210.68905600 -3.89658500
v 914.46630900 -210.68905600 -3.89658500
v 688.65509000 -173.48429900 -2.44497200
v 688.65509000 -173.48429900 -2.44497200
v 669.89355500 -210.70021100 -2.32987400
v 669.89355500 -210.70021100 -2.32987400
v 669.89355500 -210.70021100 -2.32987400
v 669.89355500 -210.70021100 -2.32987400
v 669.89355500 -210.70021100 -2.32987400
v 1042.33081100 -79.17536900 -16.03226500
v 1042.33081100 -79.17536900 -16.03226500
v 1042.33081100 -79.17536900 -16.03226500
v 1042.33081100 -79.17536900 -16.03226500
v 1042.33081100 -79.17536900 -16.03226500
v 807.24499500 -141.98580900 -17.57198100
v 807.24499500 -141.98580900 -17.57198100
v 807.24499500 -141.98580900 -17.57198100
v 806.49548300 8.29965200 -7.06844900
v 806.49548300 8.29965200 -7.06844900
v 953.46069300 -129.81069900 -20.39740900
v 953.46069300 -129.81069900 -20.39740900
v 953.46069300 -129.81069900 -20.39740900
v 980.75158700 -141.37623600 -11.76009600
v 980.75158700 -141.37623600 -11.76009600
v 980.75158700 -141.37623600 -11.76009600
v 980.75158700 -141.37623600 -11.76009600
v 941.17675800 -161.79254200 -15.50217300
v 941.17675800 -161.79254200 -15.50217300
v 941.17675800 -161.79254200 -15.50217300
v 941.17675800 -161.79254200 -15.50217300
v 890.27978500 -210.70002700 -13.14022800
v 890.27978500 -210.70002700 -13.14022800
v 890.27978500 -210.70002700 -13.14022800
v 890.27978500 -210.70002700 -13.14022800
v 957.21392800 -97.82748400 -24.62152500
v 957.21392800 -97.82748400 -24.62152500
v 957.21392800 -97.82748400 -24.62152500
v 957.21392800 -97.82748400 -24.62152500
v 957.21392800 -97.82748400 -24.62152500
v 957.21392800 -97.82748400 -24.62152500
v 957.21392800 -97.82748400 -24.62152500
v 1058.33667000 -80.54612700 -10.10043500
v 1058.33667000 -80.54612700 -10.10043500
v 1058.33667000 -80.54612700 -10.10043500
v 1058.33667000 -80.54612700 -10.10043500
v 1058.33667000 -80.54612700 -10.10043500
v 1058.33667000 -80.54612700 -10.10043500
v 950.16638200 -42.90841700 -27.71841800
v 950.16638200 -42.90841700 -27.71841800
v 950.16638200 -42.90841700 -27.71841800
v 887.04559300 -72.18904100 -23.43898000
v 887.04559300 -72.18904100 -23.43898000
v 887.04559300 -72.18904100 -23.43898000
v 887.04559300 -72.18904100 -23.43898000
v 906.87182600 -95.59326900 -25.18150500
v 906.87182600 -95.59326900 -25.18150500
v 906.87182600 -95.59326900 -25.18150500
v 906.87182600 -95.59326900 -25.18150500
v 950.80798300 8.29968300 -27.00557900
v 950.80798300 8.29968300 -27.00557900
v 950.80798300 8.29968300 -27.00557900
v 879.59460400 -56.43966700 -21.95165400
v 879.59460400 -56.43966700 -21.95165400
v 736.07318100 -210.70011900 -12.15191800
v 736.07318100 -210.70011900 -12.15191800
v 736.07318100 -210.70011900 -12.15191800
v 736.07318100 -210.70011900 -12.15191800
v 866.43170200 -210.69990500 -17.10792000
v 866.43170200 -210.69990500 -17.10792000
v 866.43170200 -210.69990500 -17.10792000
v 866.43170200 -210.69990500 -17.10792000
v 866.43170200 -210.69990500 -17.10792000
v 1077.58911100 -59.51606800 -12.53855800
v 1077.58911100 -59.51606800 -12.53855800
v 1077.58911100 -59.51606800 -12.53855800
v 1077.58911100 -59.51606800 -12.53855800
v 1077.58911100 -59.51606800 -12.53855800
v 1077.58911100 -59.51606800 -12.53855800
v 902.37780800 -118.36670700 -24.44744500
v 902.37780800 -118.36670700 -24.44744500
v 902.37780800 -118.36670700 -24.44744500
v 1013.58331300 8.29966700 -30.97755400
v 1013.58331300 8.29966700 -30.97755400
v 1013.58331300 8.29966700 -30.97755400
v 1013.58331300 8.29966700 -30.97755400
v 1013.58331300 8.29966700 -30.97755400
v 753.93737800 -47.78782700 -3.19772500
v 753.93737800 -47.78782700 -3.19772500
v 828.03979500 -163.77995300 -20.54823300
v 828.03979500 -163.77995300 -20.54823300
v 828.03979500 -163.77995300 -20.54823300
v 828.03979500 -163.77995300 -20.54823300
v 1037.61352500 -75.06443800 -18.34587900
v 1037.61352500 -75.06443800 -18.34587900
v 1037.61352500 -75.06443800 -18.34587900
v 1037.61352500 -75.06443800 -18.34587900
v 1037.61352500 -75.06443800 -18.34587900
v 824.99731400 -148.03140300 -19.85897600
v 824.99731400 -148.03140300 -19.85897600
v 824.99731400 -148.03140300 -19.85897600
v 907.80810500 -160.31218000 -20.56494100
v 907.80810500 -160.31218000 -20.56494100
v 907.80810500 -160.31218000 -20.56494100
v 907.80810500 -160.31218000 -20.56494100
v 907.80810500 -160.31218000 -20.56494100
v 981.32440200 -94.30074300 -23.07603300
v 981.32440200 -94.30074300 -23.07603300
v 981.32440200 -94.30074300 -23.07603300
v 981.32440200 -94.30074300 -23.07603300
v 981.32440200 -94.30074300 -23.07603300
v 981.32440200 -94.30074300 -23.07603300
v 921.64343300 -114.82462300 -24.55632800
v 921.64343300 -114.82462300 -24.55632800
v 921.64343300 -114.82462300 -24.55632800
v 921.64343300 -114.82462300 -24.55632800
v 971.29858400 -75.35527000 -26.18733400
v 971.29858400 -75.35527000 -26.18733400
v 971.29858400 -75.35527000 -26.18733400
v 971.29858400 -75.35527000 -26.18733400
v 880.28979500 8.29975900 -18.02141200
v 880.28979500 8.29975900 -18.02141200
v 880.28979500 8.29975900 -18.02141200
v 849.50634800 -170.14703400 -21.64605700
v 849.50634800 -170.14703400 -21.64605700
v 849.50634800 -170.14703400 -21.64605700
v 968.67657500 -146.45137000 -13.51573200
v 968.67657500 -146.45137000 -13.51573200
v 968.67657500 -146.45137000 -13.51573200
v 968.67657500 -146.45137000 -13.51573200
v 968.67657500 -146.45137000 -13.51573200
v 968.67657500 -146.45137000 -13.51573200
v 968.67657500 -146.45137000 -13.51573200
v 681.40173300 -154.89053300 -0.00838100
v 681.40173300 -154.89053300 -0.00838100
v 681.40173300 -154.89053300 -0.00838100
v 681.40173300 -154.89053300 -0.00838100
v 964.77240000 -131.32963600 -18.43680200
v 964.77240000 -131.32963600 -18.43680200
v 964.77240000 -131.32963600 -18.43680200
v 964.77240000 -131.32963600 -18.43680200
v 964.77240000 -131.32963600 -18.43680200
v 927.39025900 -201.52006500 -0.00259600
v 927.39025900 -201.52006500 -0.00259600
v 927.39025900 -201.52006500 -0.00259600
v 927.39025900 -201.52006500 -0.00259600
v 927.39025900 -201.52006500 -0.00259600
v 916.69982900 -210.56198100 -0.21890400
v 916.69982900 -210.56198100 -0.21890400
v 916.69982900 -210.56198100 -0.21890400
v 916.69982900 -210.56198100 -0.21890400
v 1134.25024400 8.29965200 -20.23162800
v 1134.25024400 8.29965200 -20.23162800
v 1134.25024400 8.29965200 -20.23162800
v 1134.25024400 8.29965200 -20.23162800
v 1134.25024400 8.29965200 -20.23162800
v 865.74023400 -179.24029500 -21.09953500
v 865.74023400 -179.24029500 -21.09953500
v 865.74023400 -179.24029500 -21.09953500
v 865.74023400 -179.24029500 -21.09953500
v 865.74023400 -179.24029500 -21.09953500
v 890.15893600 -96.75475300 -24.23299200
v 890.15893600 -96.75475300 -24.23299200
v 890.15893600 -96.75475300 -24.23299200
v 1099.40539600 -12.01081800 -22.10248000
v 1099.40539600 -12.01081800 -22.10248000
v 1099.40539600 -12.01081800 -22.10248000
v 1099.40539600 -12.01081800 -22.10248000
v 965.32116700 -55.96652200 -27.74830400
v 965.32116700 -55.96652200 -27.74830400
v 965.32116700 -55.96652200 -27.74830400
v 965.32116700 -55.96652200 -27.74830400
v 965.32116700 -55.96652200 -27.74830400
v 999.66729700 -67.17254600 -25.25432000
v 999.66729700 -67.17254600 -25.25432000
v 999.66729700 -67.17254600 -25.25432000
v 999.66729700 -67.17254600 -25.25432000
v 845.82556200 -210.69970700 -19.01290100
v 845.82556200 -210.69970700 -19.01290100
v 845.82556200 -210.69970700 -19.01290100
v 845.82556200 -210.69970700 -19.01290100
v 777.96685800 -210.70019500 -17.33233100
v 777.96685800 -210.70019500 -17.33233100
v 777.96685800 -210.70019500 -17.33233100
v 777.96685800 -210.70019500 -17.33233100
v 970.98596200 8.29972800 -28.80970400
v 970.98596200 8.29972800 -28.80970400
v 970.98596200 8.29972800 -28.80970400
v 970.98596200 8.29972800 -28.80970400
v 1027.63098100 -68.00762900 -21.81770700
v 1027.63098100 -68.00762900 -21.81770700
v 1027.63098100 -68.00762900 -21.81770700
v 1027.63098100 -68.00762900 -21.81770700
v 987.02697800 8.29951500 -29.90738500
v 987.02697800 8.29951500 -29.90738500
v 987.02697800 8.29951500 -29.90738500
v 987.02697800 8.29951500 -29.90738500
v 955.43762200 -177.62191800 0.01187200
v 955.43762200 -177.62191800 0.01187200
v 955.43762200 -177.62191800 0.01187200
v 955.43762200 -177.62191800 0.01187200
v 955.43762200 -177.62191800 0.01187200
v 955.43762200 -177.62191800 0.01187200
v 736.93701200 -38.95068400 0.00862700
v 736.93701200 -38.95068400 0.00862700
v 736.93701200 -38.95068400 0.00862700
v 736.93701200 -38.95068400 0.00862700
v 736.93701200 -38.95068400 0.00862700
v 993.73779300 -144.98443600 -0.00159900
v 993.73779300 -144.98443600 -0.00159900
v 993.73779300 -144.98443600 -0.00159900
v 1054.91674800 -92.85553700 -0.00634800
v 1054.91674800 -92.85553700 -0.00634800
v 1054.91674800 -92.85553700 -0.00634800
v 1054.91674800 -92.85553700 -0.00634800
v 1054.91674800 -92.85553700 -0.00634800
v 1173.64257800 8.29745500 -0.00276500
v 1173.64257800 8.29745500 -0.00276500
v 1173.64257800 8.29745500 -0.00276500
v 1173.64257800 8.29745500 -0.00276500
v 1173.64257800 8.29745500 -0.00276500
v 740.00067100 -40.89105200 1.09845200
v 740.00067100 -40.89105200 1.09845200
v 740.00067100 -40.89105200 1.09845200
v 914.25036600 -199.42443800 10.45836200
v 914.25036600 -199.42443800 10.45836200
v 914.25036600 -199.42443800 10.45836200
v 914.25036600 -199.42443800 10.45836200
v 914.25036600 -199.42443800 10.45836200
v 914.25036600 -199.42443800 10.45836200
v 1053.05127000 8.29966700 30.45193300
v 1053.05127000 8.29966700 30.45193300
v 1053.05127000 8.29966700 30.45193300
v 799.51672400 -210.69989000 18.98860400
v 799.51672400 -210.69989000 18.98860400
v 799.51672400 -210.69989000 18.98860400
v 799.51672400 -210.69989000 18.98860400
v 659.63781700 -210.69879200 1.05493200
v 659.63781700 -210.69879200 1.05493200
v 659.63781700 -210.69879200 1.05493200
v 929.28271500 -194.42411800 6.82000200
v 929.28271500 -194.42411800 6.82000200
v 930.71460000 -197.01516700 3.82648800
v 930.71460000 -197.01516700 3.82648800
v 930.71460000 -197.01516700 3.82648800
v 930.71460000 -197.01516700 3.82648800
v 669.32989500 -210.70013400 2.24480200
v 669.32989500 -210.70013400 2.24480200
v 669.32989500 -210.70013400 2.24480200
v 913.65234400 -210.63670300 4.52673900
v 913.65234400 -210.63670300 4.52673900
v 913.65234400 -210.63670300 4.52673900
v 913.65234400 -210.63670300 4.52673900
v 913.65234400 -210.63670300 4.52673900
v 919.15539600 -202.56486500 7.05410300
v 919.15539600 -202.56486500 7.05410300
v 919.15539600 -202.56486500 7.05410300
v 919.15539600 -202.56486500 7.05410300
v 919.15539600 -202.56486500 7.05410300
v 919.15539600 -202.56486500 7.05410300
v 1134.20605500 8.29968300 20.24679400
v 1134.20605500 8.29968300 20.24679400
v 1134.20605500 8.29968300 20.24679400
v 1134.20605500 8.29968300 20.24679400
v 1134.20605500 8.29968300 20.24679400
v 783.25677500 8.29965200 3.56120000
v 783.25677500 8.29965200 3.56120000
v 783.25677500 8.29965200 3.56120000
v 738.46905500 -210.70019500 12.50494200
v 738.46905500 -210.70019500 12.50494200
v 738.46905500 -210.70019500 12.50494200
v 738.46905500 -210.70019500 12.50494200
v 1162.97522000 8.29353300 10.78522800
v 1162.97522000 8.29353300 10.78522800
v 1162.97522000 8.29353300 10.78522800
v 1162.97522000 8.29353300 10.78522800
v 1117.44165000 8.29917900 23.61393700
v 1117.44165000 8.29917900 23.61393700
v 1117.44165000 8.29917900 23.61393700
v 1117.44165000 8.29917900 23.61393700
v 999.78497300 8.29969800 30.54113400
v 999.78497300 8.29969800 30.54113400
v 999.78497300 8.29969800 30.54113400
v 999.78497300 8.29969800 30.54113400
v 713.17480500 -97.51006300 1.07984800
v 713.17480500 -97.51006300 1.07984800
v 713.17480500 -97.51006300 1.07984800
v 890.25268600 8.29975900 19.48656300
v 890.25268600 8.29975900 19.48656300
v 890.25268600 8.29975900 19.48656300
v 890.25268600 8.29975900 19.48656300
v 926.70593300 -191.73527500 9.33678700
v 926.70593300 -191.73527500 9.33678700
v 926.70593300 -191.73527500 9.33678700
v 926.70593300 -191.73527500 9.33678700
v 926.70593300 -191.73527500 9.33678700
v 894.27233900 -210.69886800 12.18058300
v 894.27233900 -210.69886800 12.18058300
v 894.27233900 -210.69886800 12.18058300
v 894.27233900 -210.69886800 12.18058300
v 894.27233900 -210.69886800 12.18058300
v 814.43353300 -210.69812000 19.58674400
v 814.43353300 -210.69812000 19.58674400
v 814.43353300 -210.69812000 19.58674400
v 814.43353300 -210.69812000 19.58674400
v 814.43353300 -210.69812000 19.58674400
v 1168.00317400 8.29759200 7.86810700
v 1168.00317400 8.29759200 7.86810700
v 1168.00317400 8.29759200 7.86810700
v 1168.00317400 8.29759200 7.86810700
v 785.28326400 -210.69987500 17.98373200
v 785.28326400 -210.69987500 17.98373200
v 785.28326400 -210.69987500 17.98373200
v 785.28326400 -210.69987500 17.98373200
v 1144.02539100 8.29769900 17.70789900
v 1144.02539100 8.29769900 17.70789900
v 1144.02539100 8.29769900 17.70789900
v 727.86908000 -67.36381500 1.14877400
v 727.86908000 -67.36381500 1.14877400
v 727.86908000 -67.36381500 1.14877400
v 922.52465800 -204.18342600 3.59350400
v 922.52465800 -204.18342600 3.59350400
v 922.52465800 -204.18342600 3.59350400
v 922.52465800 -204.18342600 3.59350400
v 922.52465800 -204.18342600 3.59350400
v 764.20965600 8.29766800 1.24087900
v 764.20965600 8.29766800 1.24087900
v 764.20965600 8.29766800 1.24087900
v 954.25653100 -176.90823400 3.94742100
v 954.25653100 -176.90823400 3.94742100
v 954.25653100 -176.90823400 3.94742100
v 1016.37335200 8.29968300 31.00646600
v 1016.37335200 8.29968300 31.00646600
v 1016.37335200 8.29968300 31.00646600
v 1016.37335200 8.29968300 31.00646600
v 958.63128700 -169.23168900 7.14337500
v 958.63128700 -169.23168900 7.14337500
v 958.63128700 -169.23168900 7.14337500
v 958.63128700 -169.23168900 7.14337500
v 958.63128700 -169.23168900 7.14337500
v 958.63128700 -169.23168900 7.14337500
v 831.03002900 -210.69967700 19.59354200
v 831.03002900 -210.69967700 19.59354200
v 831.03002900 -210.69967700 19.59354200
v 1042.27941900 -98.35425600 7.46140300
v 1042.27941900 -98.35425600 7.46140300
v 1042.27941900 -98.35425600 7.46140300
v 1042.27941900 -98.35425600 7.46140300
v 1042.27941900 -98.35425600 7.46140300
v 1042.27941900 -98.35425600 7.46140300
v 1172.00830100 8.29809600 4.32255900
v 1172.00830100 8.29809600 4.32255900
v 1172.00830100 8.29809600 4.32255900
v 1172.00830100 8.29809600 4.32255900
v 908.27142300 -210.70018000 7.65040100
v 908.27142300 -210.70018000 7.65040100
v 908.27142300 -210.70018000 7.65040100
v 908.27142300 -210.70018000 7.65040100
v 908.27142300 -210.70018000 7.65040100
v 976.38177500 -149.84739700 9.62589500
v 976.38177500 -149.84739700 9.62589500
v 976.38177500 -149.84739700 9.62589500
v 976.38177500 -149.84739700 9.62589500
v 976.38177500 -149.84739700 9.62589500
v 994.62670900 -142.56036400 4.05796700
v 994.62670900 -142.56036400 4.05796700
v 994.62670900 -142.56036400 4.05796700
v 994.62670900 -142.56036400 4.05796700
v 994.62670900 -142.56036400 4.05796700
v 994.62670900 -142.56036400 4.05796700
v 682.47204600 -161.66812100 1.01962400
v 682.47204600 -161.66812100 1.01962400
v 682.47204600 -161.66812100 1.01962400
v 997.31665000 -122.20808400 13.85741400
v 997.31665000 -122.20808400 13.85741400
v 997.31665000 -122.20808400 13.85741400
v 997.31665000 -122.20808400 13.85741400
v 997.31665000 -122.20808400 13.85741400
v 1084.72253400 -62.63270600 7.39582700
v 1084.72253400 -62.63270600 7.39582700
v 1084.72253400 -62.63270600 7.39582700
v 1084.72253400 -62.63270600 7.39582700
v 1084.72253400 -62.63270600 7.39582700
v 1084.72253400 -62.63270600 7.39582700
v 853.07702600 -95.07864400 20.70319400
v 853.07702600 -95.07864400 20.70319400
v 1061.64489700 -77.74995400 10.11743100
v 1061.64489700 -77.74995400 10.11743100
v 1061.64489700 -77.74995400 10.11743100
v 1061.64489700 -77.74995400 10.11743100
v 1061.64489700 -77.74995400 10.11743100
v 1061.64489700 -77.74995400 10.11743100
v 1061.40466300 -85.89672900 4.00503100
v 1061.40466300 -85.89672900 4.00503100
v 1061.40466300 -85.89672900 4.00503100
v 1061.40466300 -85.89672900 4.00503100
v 1061.40466300 -85.89672900 4.00503100
v 1061.40466300 -85.89672900 4.00503100
v 806.31958000 8.29966700 7.04375000
v 806.31958000 8.29966700 7.04375000
v 1016.05481000 -99.33876000 16.33344800
v 1016.05481000 -99.33876000 16.33344800
v 1016.05481000 -99.33876000 16.33344800
v 1016.05481000 -99.33876000 16.33344800
v 797.21185300 -155.39730800 17.04319400
v 797.21185300 -155.39730800 17.04319400
v 797.21185300 -155.39730800 17.04319400
v 797.21185300 -155.39730800 17.04319400
v 797.21185300 -155.39730800 17.04319400
v 859.19311500 -61.36674500 19.63897300
v 859.19311500 -61.36674500 19.63897300
v 859.19311500 -61.36674500 19.63897300
v 1154.39624000 8.29957600 14.44208200
v 1154.39624000 8.29957600 14.44208200
v 1154.39624000 8.29957600 14.44208200
v 1154.39624000 8.29957600 14.44208200
v 1154.39624000 8.29957600 14.44208200
v 1071.59533700 8.29930100 29.27632900
v 1071.59533700 8.29930100 29.27632900
v 1071.59533700 8.29930100 29.27632900
v 1071.59533700 8.29930100 29.27632900
v 1071.59533700 8.29930100 29.27632900
v 948.02783200 -53.95674100 27.47556900
v 948.02783200 -53.95674100 27.47556900
v 948.02783200 -53.95674100 27.47556900
v 948.02783200 -53.95674100 27.47556900
v 1034.66467300 -62.33723400 21.90829100
v 1034.66467300 -62.33723400 21.90829100
v 1034.66467300 -62.33723400 21.90829100
v 1034.66467300 -62.33723400 21.90829100
v 900.30365000 -135.78329500 23.49387400
v 900.30365000 -135.78329500 23.49387400
v 900.30365000 -135.78329500 23.49387400
v 900.30365000 -135.78329500 23.49387400
v 900.30365000 -135.78329500 23.49387400
v 1004.46325700 -75.87107800 23.47427700
v 1004.46325700 -75.87107800 23.47427700
v 1004.46325700 -75.87107800 23.47427700
v 962.58056600 -66.10504200 27.17990100
v 962.58056600 -66.10504200 27.17990100
v 962.58056600 -66.10504200 27.17990100
v 962.58056600 -66.10504200 27.17990100
v 899.70861800 -56.13786300 24.13243700
v 899.70861800 -56.13786300 24.13243700
v 899.70861800 -56.13786300 24.13243700
v 878.87774700 -210.70015000 15.34373000
v 878.87774700 -210.70015000 15.34373000
v 878.87774700 -210.70015000 15.34373000
v 878.87774700 -210.70015000 15.34373000
v 878.87774700 -210.70015000 15.34373000
v 914.31976300 -186.04615800 14.65749600
v 914.31976300 -186.04615800 14.65749600
v 914.31976300 -186.04615800 14.65749600
v 914.31976300 -186.04615800 14.65749600
v 914.31976300 -186.04615800 14.65749600
v 925.48016400 -158.57981900 18.84027100
v 925.48016400 -158.57981900 18.84027100
v 925.48016400 -158.57981900 18.84027100
v 936.16119400 -121.75035900 23.26857000
v 936.16119400 -121.75035900 23.26857000
v 936.16119400 -121.75035900 23.26857000
v 936.16119400 -121.75035900 23.26857000
v 936.16119400 -121.75035900 23.26857000
v 936.16119400 -121.75035900 23.26857000
v 946.20629900 -100.56252300 24.93327300
v 946.20629900 -100.56252300 24.93327300
v 946.20629900 -100.56252300 24.93327300
v 946.20629900 -100.56252300 24.93327300
v 844.23706100 -210.69981400 19.07413700
v 844.23706100 -210.69981400 19.07413700
v 844.23706100 -210.69981400 19.07413700
v 896.88409400 -126.04657700 24.04911600
v 896.88409400 -126.04657700 24.04911600
v 896.88409400 -126.04657700 24.04911600
v 1016.87426800 -54.77569600 25.42210400
v 1016.87426800 -54.77569600 25.42210400
v 899.13726800 -113.77352900 24.53635000
v 899.13726800 -113.77352900 24.53635000
v 899.13726800 -113.77352900 24.53635000
v 899.13726800 -113.77352900 24.53635000
v 1036.28198200 8.29917900 30.97760400
v 1036.28198200 8.29917900 30.97760400
v 1036.28198200 8.29917900 30.97760400
v 891.87854000 -85.26133700 24.20503600
v 891.87854000 -85.26133700 24.20503600
v 891.87854000 -85.26133700 24.20503600
v 930.09454300 8.29963700 24.76583100
v 930.09454300 8.29963700 24.76583100
v 930.09454300 8.29963700 24.76583100
v 930.09454300 8.29963700 24.76583100
v 930.09454300 8.29963700 24.76583100
v 941.97991900 -42.68248000 27.27818500
v 941.97991900 -42.68248000 27.27818500
v 941.97991900 -42.68248000 27.27818500
v 861.38751200 -210.69987500 17.67868200
v 861.38751200 -210.69987500 17.67868200
v 861.38751200 -210.69987500 17.67868200
v 861.38751200 -210.69987500 17.67868200
v 968.59344500 8.29975900 28.63888500
v 968.59344500 8.29975900 28.63888500
v 968.59344500 8.29975900 28.63888500
v 968.59344500 8.29975900 28.63888500
v 968.59344500 8.29975900 28.63888500
v 1097.78515600 8.29972800 26.62104400
v 1097.78515600 8.29972800 26.62104400
v 1097.78515600 8.29972800 26.62104400
v 1097.78515600 8.29972800 26.62104400
v 865.78173800 -131.48922700 22.86156100
v 865.78173800 -131.48922700 22.86156100
v 865.78173800 -131.48922700 22.86156100
v 865.78173800 -131.48922700 22.86156100
v 747.37805200 -59.70144700 3.07788000
v 747.37805200 -59.70144700 3.07788000
v 812.29821800 -98.96083800 15.53976700
v 812.29821800 -98.96083800 15.53976700
v 706.22814900 -139.83544900 2.65799000
v 706.22814900 -139.83544900 2.65799000
v 965.12609900 -130.87086500 18.46610500
v 965.12609900 -130.87086500 18.46610500
v 965.12609900 -130.87086500 18.46610500
v 1010.11969000 -116.55744900 12.02198600
v 1010.11969000 -116.55744900 12.02198600
v 1010.11969000 -116.55744900 12.02198600
v 1010.11969000 -116.55744900 12.02198600
v 1010.11969000 -116.55744900 12.02198600
v 823.44641100 -152.95390300 19.87888000
v 823.44641100 -152.95390300 19.87888000
v 823.44641100 -152.95390300 19.87888000
v 823.44641100 -152.95390300 19.87888000
v 823.44641100 -152.95390300 19.87888000
v 1051.09423800 -59.97226000 19.53424300
v 1051.09423800 -59.97226000 19.53424300
v 1051.09423800 -59.97226000 19.53424300
v 1051.09423800 -59.97226000 19.53424300
v 1051.09423800 -59.97226000 19.53424300
v 933.80835000 -141.13360600 20.85182600
v 933.80835000 -141.13360600 20.85182600
v 933.80835000 -141.13360600 20.85182600
v 933.80835000 -141.13360600 20.85182600
v 762.25231900 -210.70018000 15.66912400
v 762.25231900 -210.70018000 15.66912400
v 762.25231900 -210.70018000 15.66912400
v 762.25231900 -210.70018000 15.66912400
vn -0.12074576 0.05673004 -0.99106113
vn -0.22563864 0.10821744 -0.96818190
vn -0.24079885 0.11431579 -0.96381939
vn -0.00000035 1.00000000 -0.00001027
vn 0.06925435 -0.11741205 -0.99066556
vn 0.03781597 -0.08707362 -0.99548387
vn 0.05312819 -0.10251013 -0.99331217
vn -0.12191943 0.05811991 -0.99083688
vn -0.22574030 0.10842583 -0.96813488
vn -0.22238347 0.10810545 -0.96894727
vn -0.14437297 0.05987953 -0.98770992
vn 0.00000351 -0.99999997 -0.00024471
vn -0.05659578 -0.00095849 -0.99839671
vn -0.07505347 0.01175482 -0.99711023
vn -0.06666570 0.00693385 -0.99775128
vn -0.03753196 -0.01850091 -0.99912415
vn -0.02961958 -0.02793215 -0.99917089
vn -0.11085897 0.04443807 -0.99284216
vn -0.00000000 1.00000000 -0.00000059
vn -0.12893118 0.05704520 -0.99001141
vn 0.16263795 -0.21336175 -0.96334089
vn 0.17863867 -0.21809789 -0.95943813
vn 0.12647185 -0.17653869 -0.97613470
vn 0.00000977 1.00000000 -0.00000544
vn -0.12077239 0.05676260 -0.99105602
vn -0.25935128 0.11986501 -0.95831586
vn -0.23998432 0.11529067 -0.96390642
vn -0.25884254 0.12231132 -0.95814429
vn -0.12080464 0.05672566 -0.99105421
vn 0.00002683 0.99999844 -0.00176890
vn 0.00150117 -0.05130914 -0.99868169
vn 0.02118588 -0.07374030 -0.99705242
vn 0.03781597 -0.08707362 -0.99548387
vn 0.00156490 -0.99999830 -0.00097093
vn 0.31532491 -0.38027228 -0.86946144
vn 0.34376700 -0.41529445 -0.84223202
vn 0.27023076 -0.33007131 -0.90444915
vn 0.24735924 -0.30720073 -0.91893477
vn 0.45607363 -0.54134529 -0.70635835
vn 0.37346862 -0.44552987 -0.81364877
vn 0.00109133 -0.99999750 -0.00195003
vn 0.34376700 -0.41529445 -0.84223202
vn -0.12888378 0.05711910 -0.99001332
vn -0.14137608 0.06662750 -0.98771128
vn 0.00000092 1.00000000 0.00000023
vn 0.35785705 -0.42921403 -0.82928502
vn 0.00252354 0.99997500 -0.00660580
vn 0.29975693 -0.36356448 -0.88202418
vn 0.00006166 1.00000000 -0.00002274
vn 0.43117186 -0.51114323 -0.74352096
vn 0.35785705 -0.42921403 -0.82928502
vn 0.41162929 -0.49069858 -0.76796890
vn 0.34679024 -0.41499459 -0.84113972
vn 0.00252354 0.99997500 -0.00660580
vn -0.14979385 0.07209478 -0.98608526
vn -0.12077999 0.05682582 -0.99105147
vn -0.19127024 0.09340260 -0.97708324
vn -0.12106659 0.05673004 -0.99102199
vn -0.00116034 0.99999932 -0.00011629
vn -0.25665193 0.12334517 -0.95860094
vn 0.00007598 1.00000000 0.00000239
vn 0.62948286 -0.73982466 -0.23750959
vn 0.50981436 -0.60084433 -0.61569100
vn 0.52161150 -0.61638876 -0.58990366
vn -0.25672625 0.12337370 -0.95857737
vn -0.00259724 0.99999661 -0.00019240
vn -0.25708707 0.12375420 0.95843160
vn -0.26110430 0.12532722 0.95714034
vn -0.22561174 0.10816230 -0.96819433
vn -0.24079885 0.11431579 -0.96381939
vn -0.24249753 0.11600598 0.96319134
vn -0.24097202 0.11549982 -0.96363493
vn -0.24089360 0.11547718 -0.96365725
vn -0.24079885 0.11431579 -0.96381939
vn -0.12083824 0.05683050 -0.99104410
vn -0.21691314 0.10172718 0.97087603
vn -0.22235556 0.10869379 -0.96888785
vn -0.22942731 0.11044667 0.96703911
vn 0.06950682 -0.11769627 -0.99061415
vn 0.10287658 -0.15217137 -0.98298539
vn 0.00000016 1.00000000 0.00000137
vn 0.43117186 -0.51114323 -0.74352096
vn 0.52161150 -0.61638876 -0.58990366
vn -0.00001900 1.00000000 -0.00006165
vn 0.00010999 -0.99999971 0.00075249
vn -0.21608843 0.10149159 0.97108457
vn -0.22231765 0.10949033 -0.96880686
vn -0.14437297 0.05987953 -0.98770992
vn -0.12110395 0.05673680 -0.99101704
vn -0.00005067 1.00000000 0.00000944
vn -0.14841530 0.07100427 -0.98637280
vn 0.61832098 -0.72704636 -0.29846732
vn 0.61373340 -0.72292730 -0.31734435
vn 0.47690741 -0.56566325 -0.67274394
vn 0.47462941 -0.56004852 -0.67902325
vn 0.49471936 -0.58288959 -0.64458707
vn -0.24307538 0.11625559 0.96301558
vn -0.24001661 0.11524933 -0.96390332
vn 0.29975693 -0.36356448 -0.88202418
vn 0.24738016 -0.30411278 -0.91995569
vn 0.25546166 -0.31388713 -0.91444749
vn 0.29183075 -0.35562533 -0.88789945
vn 0.00033125 0.99999951 -0.00093102
vn 0.00252354 0.99997500 -0.00660580
vn 0.00459600 -0.05568974 -0.99843754
vn -0.00001227 -0.99999999 0.00010555
vn -0.02961958 -0.02793215 -0.99917089
vn 0.01499577 -0.06655291 -0.99767020
vn 0.02656852 -0.08289464 -0.99620409
vn -0.01680569 -0.03689708 -0.99917775
vn 0.12636182 -0.17640562 -0.97617301
vn 0.10287658 -0.15217137 -0.98298539
vn 0.00001153 1.00000000 0.00000087
vn 0.09643436 -0.14428235 -0.98482639
vn 0.00000314 -1.00000000 -0.00000345
vn 0.17923299 -0.23258010 -0.95591947
vn 0.13590487 -0.18468446 -0.97335580
vn 0.41162929 -0.49069858 -0.76796890
vn 0.50269386 -0.59666088 -0.62553551
vn 0.40666465 -0.48153759 -0.77636680
vn 0.50981436 -0.60084433 -0.61569100
vn 0.52161150 -0.61638876 -0.58990366
vn 0.43117186 -0.51114323 -0.74352096
vn 0.62391111 -0.73252044 -0.27230266
vn 0.61768810 -0.72759151 -0.29844934
vn 0.49576179 -0.58265530 -0.64399771
vn 0.49471936 -0.58288959 -0.64458707
vn 0.50981436 -0.60084433 -0.61569100
vn 0.62948286 -0.73982466 -0.23750959
vn 0.62364220 -0.73491485 -0.26640302
vn 0.49576179 -0.58265530 -0.64399771
vn 0.50269386 -0.59666088 -0.62553551
vn 0.62650074 -0.73533064 -0.25842926
vn 0.37300200 -0.44377392 -0.81482158
vn 0.47690741 -0.56566325 -0.67274394
vn 0.39596732 -0.47374359 -0.78662373
vn 0.49471936 -0.58288959 -0.64458707
vn 0.50269386 -0.59666088 -0.62553551
vn 0.40666465 -0.48153759 -0.77636680
vn 0.49576179 -0.58265530 -0.64399771
vn -0.10895108 0.04172137 -0.99317118
vn -0.00000134 -1.00000000 -0.00001771
vn -0.11241040 0.04541808 -0.99262334
vn -0.13399490 0.06076730 -0.98911713
vn 0.34376700 -0.41529445 -0.84223202
vn 0.31552806 -0.38042939 -0.86931900
vn 0.37346862 -0.44552987 -0.81364877
vn 0.39596732 -0.47374359 -0.78662373
vn 0.37300200 -0.44377392 -0.81482158
vn 0.45607363 -0.54134529 -0.70635835
vn 0.37346862 -0.44552987 -0.81364877
vn 0.47462941 -0.56004852 -0.67902325
vn 0.37300200 -0.44377392 -0.81482158
vn 0.47690741 -0.56566325 -0.67274394
vn 0.04022078 -0.99913980 0.01009652
vn 0.47462941 -0.56004852 -0.67902325
vn 0.61373340 -0.72292730 -0.31734435
vn 0.45607363 -0.54134529 -0.70635835
vn 0.61000504 -0.71294734 -0.34583225
vn 0.01631749 -0.99983651 0.00779102
vn 0.61016066 -0.71589177 -0.33941560
vn -0.00278935 -0.99999308 -0.00245983
vn -0.12122266 0.05703517 -0.99098540
vn -0.19127024 0.09340260 -0.97708324
vn -0.00004134 -1.00000000 0.00005162
vn -0.14671112 0.07015967 -0.98668813
vn -0.14437297 0.05987953 -0.98770992
vn -0.19127024 0.09340260 -0.97708324
vn -0.12214132 0.05851049 -0.99078657
vn 0.25546166 -0.31388713 -0.91444749
vn 0.22335590 -0.27946203 -0.93381643
vn 0.21919840 -0.27527149 -0.93604363
vn 0.24738016 -0.30411278 -0.91995569
vn 0.21957962 -0.27485297 -0.93607726
vn -0.11243996 0.04533152 -0.99262395
vn -0.10966247 0.04190310 -0.99308523
vn -0.13425035 0.06118145 -0.98905696
vn -0.14713712 0.07036673 -0.98660995
vn 0.00000211 1.00000000 -0.00001068
vn 0.11123818 -0.16110761 -0.98064795
vn 0.14238258 -0.19281045 -0.97085083
vn 0.12342781 -0.17059237 -0.97758060
vn 0.31862909 -0.38282625 -0.86713296
vn 0.27023076 -0.33007131 -0.90444915
vn 0.26915344 -0.32701309 -0.90588016
vn 0.33760447 -0.40744278 -0.84853615
vn 0.22120599 -0.27538533 -0.93553772
vn 0.22335590 -0.27946203 -0.93381643
vn 0.17672976 -0.22917205 -0.95720779
vn 0.21957962 -0.27485297 -0.93607726
vn 0.24735924 -0.30720073 -0.91893477
vn 0.22120599 -0.27538533 -0.93553772
vn 0.00016673 -0.99999998 -0.00012084
vn 0.17960196 -0.23306419 -0.95573230
vn 0.08224033 -0.12918182 -0.98820473
vn 0.04465532 -0.09726546 -0.99425617
vn 0.06449655 -0.11534839 -0.99122901
vn 0.07132232 -0.11973997 -0.99024011
vn 0.04048659 -0.08854522 -0.99524900
vn 0.05312819 -0.10251013 -0.99331217
vn 0.08310078 -0.13546466 -0.98729103
vn 0.34679024 -0.41499459 -0.84113972
vn 0.41162929 -0.49069858 -0.76796890
vn 0.31880675 -0.38296348 -0.86700705
vn 0.33760447 -0.40744278 -0.84853615
vn 0.39596732 -0.47374359 -0.78662373
vn 0.40666465 -0.48153759 -0.77636680
vn -0.05566784 -0.00259117 -0.99844598
vn -0.03715155 -0.01758208 -0.99915496
vn -0.04026152 -0.01372682 -0.99909488
vn -0.08926726 0.02634458 -0.99565924
vn -0.10937725 0.04204046 -0.99311088
vn -0.08392797 0.02156375 -0.99623848
vn -0.11249255 0.04517749 -0.99262501
vn -0.02562750 -0.02715346 -0.99930272
vn -0.05656201 -0.00144538 -0.99839804
vn -0.03731871 -0.01798582 -0.99914154
vn -0.02004693 -0.03515219 -0.99918089
vn -0.00000014 1.00000000 -0.00000132
vn -0.11050426 0.04404343 -0.99289928
vn -0.08902434 0.02640389 -0.99567942
vn -0.10931305 0.04229098 -0.99310731
vn -0.12651914 0.05618457 -0.99037175
vn -0.13410279 0.06088075 -0.98909553
vn -0.14137608 0.06662750 -0.98771128
vn -0.00000062 -1.00000000 -0.00000318
vn -0.14644692 0.06999282 -0.98673923
vn 0.13590487 -0.18468446 -0.97335580
vn 0.00003344 -0.99999989 -0.00046562
vn 0.10770064 -0.15580599 -0.98189870
vn 0.09111471 -0.14244028 -0.98560077
vn 0.14240193 -0.19269280 -0.97087135
vn 0.26915344 -0.32701309 -0.90588016
vn 0.35785705 -0.42921403 -0.82928502
vn 0.29183075 -0.35562533 -0.88789945
vn 0.34679024 -0.41499459 -0.84113972
vn 0.33760447 -0.40744278 -0.84853615
vn 0.29975693 -0.36356448 -0.88202418
vn -0.02632440 -0.02701548 -0.99928834
vn -0.01680569 -0.03689708 -0.99917775
vn 0.00467350 -0.05611055 -0.99841362
vn -0.03715155 -0.01758208 -0.99915496
vn 0.00150117 -0.05130914 -0.99868169
vn -0.00000304 1.00000000 0.00005410
vn -0.04026152 -0.01372682 -0.99909488
vn -0.02004693 -0.03515219 -0.99918089
vn -0.12083360 0.05674016 -0.99104984
vn -0.14883553 0.07140441 -0.98628059
vn -0.08255892 0.02174082 -0.99634902
vn -0.08894361 0.02639449 -0.99568688
vn -0.07505347 0.01175482 -0.99711023
vn -0.06666570 0.00693385 -0.99775128
vn 0.21919840 -0.27527149 -0.93604363
vn 0.18006784 -0.23157158 -0.95600741
vn 0.18541665 -0.23850059 -0.95327757
vn 0.19563658 -0.24824544 -0.94873628
vn 0.21957962 -0.27485297 -0.93607726
vn -0.08933302 0.02631782 -0.99565405
vn -0.11246301 0.04526400 -0.99262442
vn -0.10895108 0.04172137 -0.99317118
vn 0.10788292 -0.15607916 -0.98183531
vn 0.05907572 -0.10325339 -0.99289919
vn 0.08224033 -0.12918182 -0.98820473
vn 0.06449655 -0.11534839 -0.99122901
vn 0.09111471 -0.14244028 -0.98560077
vn 0.09643436 -0.14428235 -0.98482639
vn 0.12342781 -0.17059237 -0.97758060
vn 0.12712557 -0.17732927 -0.97590646
vn 0.08224033 -0.12918182 -0.98820473
vn 0.08310078 -0.13546466 -0.98729103
vn 0.11144225 -0.16141346 -0.98057449
vn 0.00491546 -0.05742424 -0.99833777
vn 0.04465532 -0.09726546 -0.99425617
vn 0.04048659 -0.08854522 -0.99524900
vn 0.02230501 -0.07098359 -0.99722807
vn 0.02368691 -0.07296929 -0.99705286
vn 0.03781597 -0.08707362 -0.99548387
vn 0.04465532 -0.09726546 -0.99425617
vn 0.05312819 -0.10251013 -0.99331217
vn 0.00000016 1.00000000 -0.00000004
vn -0.14137608 0.06662750 -0.98771128
vn -0.14645521 0.07000091 -0.98673742
vn -0.02854350 -0.02759897 -0.99921147
vn -0.03753196 -0.01850091 -0.99912415
vn -0.01680569 -0.03689708 -0.99917775
vn 0.27023076 -0.33007131 -0.90444915
vn 0.22120599 -0.27538533 -0.93553772
vn 0.26915344 -0.32701309 -0.90588016
vn 0.25546166 -0.31388713 -0.91444749
vn 0.29183075 -0.35562533 -0.88789945
vn 0.22335590 -0.27946203 -0.93381643
vn 0.24735924 -0.30720073 -0.91893477
vn -0.23129027 0.11009129 0.96663577
vn -0.22571242 0.10836867 -0.96814779
vn -0.22242019 0.10732879 -0.96902518
vn -0.24245747 0.11598777 0.96320362
vn 0.16109643 -0.21138942 -0.96403447
vn 0.18541665 -0.23850059 -0.95327757
vn 0.17984755 -0.23140874 -0.95608831
vn 0.14235057 -0.19300498 -0.97081687
vn 0.13590487 -0.18468446 -0.97335580
vn 0.61531701 -0.72233496 0.31562188
vn 0.61492755 -0.73394078 0.28843549
vn 0.61016066 -0.71589177 -0.33941560
vn 0.62168948 -0.72029865 0.30768823
vn 0.61000504 -0.71294734 -0.34583225
vn 0.57374657 -0.73721483 0.35683213
vn 0.04022078 -0.99913980 0.01009652
vn 0.61492755 -0.73394078 0.28843549
vn 0.61000504 -0.71294734 -0.34583225
vn 0.19563658 -0.24824544 -0.94873628
vn 0.24738016 -0.30411278 -0.91995569
vn 0.17863867 -0.21809789 -0.95943813
vn 0.00001116 1.00000000 -0.00002360
vn 0.21919840 -0.27527149 -0.93604363
vn 0.01499577 -0.06655291 -0.99767020
vn 0.06449655 -0.11534839 -0.99122901
vn 0.02656852 -0.08289464 -0.99620409
vn 0.04048659 -0.08854522 -0.99524900
vn 0.05907572 -0.10325339 -0.99289919
vn -0.08302297 0.02168081 -0.99631176
vn -0.05655602 -0.00115001 -0.99839877
vn -0.06748783 0.00802622 -0.99768781
vn 0.19563658 -0.24824544 -0.94873628
vn 0.18541665 -0.23850059 -0.95327757
vn 0.16259954 -0.21331259 -0.96335826
vn 0.17863867 -0.21809789 -0.95943813
vn 0.02238743 -0.07336996 -0.99705349
vn -0.02004693 -0.03515219 -0.99918089
vn 0.00499305 -0.05784551 -0.99831306
vn -0.02545171 -0.02718827 -0.99930626
vn 0.00150117 -0.05130914 -0.99868169
vn 0.08310078 -0.13546466 -0.98729103
vn 0.09643436 -0.14428235 -0.98482639
vn 0.07338556 -0.12206217 -0.98980573
vn 0.10287658 -0.15217137 -0.98298539
vn 0.09111471 -0.14244028 -0.98560077
vn 0.02656852 -0.08289464 -0.99620409
vn 0.05907572 -0.10325339 -0.99289919
vn 0.00002040 -0.99999994 -0.00034552
vn -0.08872205 0.02643811 -0.99570549
vn -0.10895108 0.04172137 -0.99317118
vn -0.00000100 -1.00000000 0.00003110
vn -0.07505347 0.01175482 -0.99711023
vn -0.08436278 0.02150749 -0.99620297
vn 0.00000610 1.00000000 -0.00000029
vn -0.06826707 0.00906175 -0.99762593
vn -0.08902434 0.02640389 -0.99567942
vn 0.16115180 -0.21146026 -0.96400968
vn 0.14233122 -0.19312257 -0.97079632
vn 0.12737955 -0.17763641 -0.97581748
vn 0.12342781 -0.17059237 -0.97758060
vn 0.00000292 1.00000000 -0.00000248
vn -0.04026152 -0.01372682 -0.99909488
vn -0.05562208 -0.00264232 -0.99844840
vn -0.06826707 0.00906175 -0.99762593
vn 0.61016066 -0.71589177 -0.33941560
vn 0.61914807 -0.72644881 0.29820764
vn 0.61530875 -0.72233026 0.31564876
vn 0.61373340 -0.72292730 -0.31734435
vn 0.61440816 -0.72314956 0.31552706
vn 0.61897014 -0.72648629 -0.29848557
vn -0.23999463 0.11532050 -0.96390029
vn -0.24312647 0.11623575 0.96300507
vn -0.26110430 0.12532722 0.95714034
vn -0.25900645 0.12172863 -0.95817420
vn -0.26296224 0.12232609 0.95701995
vn 0.61833353 -0.72703555 -0.29846768
vn 0.61911678 -0.72646797 0.29822593
vn 0.62393630 -0.73228224 -0.27288498
vn 0.62585019 -0.73458551 0.26209857
vn 0.62367172 -0.73466400 -0.26702507
vn 0.62650074 -0.73533064 -0.25842926
vn 0.62382023 -0.73492213 0.26596574
vn 0.61905742 -0.72650431 0.29826063
vn 0.62936217 -0.73979954 0.23790734
vn 0.62585019 -0.73458551 0.26209857
vn 0.62650074 -0.73533064 -0.25842926
vn 0.00081251 0.99999966 0.00015880
vn 0.62948286 -0.73982466 -0.23750959
vn -0.12097030 0.05684215 0.99102732
vn -0.26110430 0.12532722 0.95714034
vn -0.26269422 0.12239139 0.95708521
vn 0.32903216 -0.40883015 0.85123190
vn 0.31064385 -0.37585956 0.87305784
vn 0.34079326 -0.39334782 0.85389545
vn 0.27850392 -0.33915785 0.89855858
vn 0.25789749 -0.31760303 0.91247860
vn 0.28581656 -0.37152716 0.88333259
vn 0.06286804 -0.11197735 0.99172006
vn 0.03087099 -0.08134624 0.99620769
vn -0.00000939 1.00000000 0.00000479
vn -0.04005916 -0.01601077 0.99906903
vn 0.00001473 -1.00000000 0.00004316
vn -0.07042036 0.01014085 0.99746586
vn -0.04357989 -0.01238669 0.99897315
vn -0.12164396 0.05736477 0.99091474
vn -0.21615535 0.10151071 0.97106768
vn 0.00007402 -0.99999979 0.00064349
vn 0.46169494 -0.54879984 0.69689060
vn 0.36130979 -0.42877702 0.82801298
vn 0.46208390 -0.54915569 0.69635228
vn 0.46949582 -0.55383860 0.68763106
vn 0.62168948 -0.72029865 0.30768823
vn 0.61531880 -0.72233598 0.31561606
vn -0.14679225 0.07018744 0.98667409
vn -0.12156200 0.05734309 0.99092606
vn -0.00006719 -1.00000000 0.00000630
vn 0.01631749 -0.99983651 0.00779102
vn 0.57374657 -0.73721483 0.35683213
vn 0.46479362 -0.53724381 0.70380109
vn 0.04022078 -0.99913980 0.01009652
vn 0.43211642 -0.52433449 0.73372252
vn 0.34079326 -0.39334782 0.85389545
vn 0.45665520 -0.54793699 0.70087879
vn 0.46479362 -0.53724381 0.70380109
vn 0.32903216 -0.40883015 0.85123190
vn 0.36274588 -0.42745356 0.82806937
vn 0.43211642 -0.52433449 0.73372252
vn 0.20443218 -0.25872164 0.94407129
vn 0.00000451 1.00000000 0.00000912
vn 0.00195979 0.99997497 0.00679819
vn 0.23905290 -0.29602245 0.92478345
vn 0.19104728 -0.24250126 0.95115407
vn -0.12073763 0.05665952 0.99106615
vn -0.14892738 0.07156719 0.98625492
vn -0.00004975 1.00000000 0.00001559
vn -0.13522477 0.06248978 0.98884240
vn -0.13165345 0.05863744 0.98956001
vn -0.00000060 -1.00000000 -0.00000239
vn -0.14643123 0.06995117 0.98674451
vn 0.00489039 0.99993982 0.00982044
vn 0.43150255 -0.51158287 0.74302659
vn 0.35481659 -0.42432058 0.83310097
vn 0.41263704 -0.49189798 0.76665967
vn 0.00021327 0.99999924 0.00121153
vn 0.19104728 -0.24250126 0.95115407
vn 0.17081909 -0.22335105 0.95965366
vn 0.14825067 -0.19713188 0.96910307
vn -0.02803127 -0.02590114 0.99927142
vn -0.04874038 -0.00866004 0.99877394
vn 0.00000154 1.00000000 0.00000243
vn -0.06087217 0.00513638 0.99813235
vn -0.24245987 0.11598781 0.96320301
vn -0.12056901 0.05670665 0.99108399
vn -0.23176060 0.11000148 0.96653334
vn -0.13716811 0.06331656 0.98852209
vn -0.13111566 0.06062035 0.98951193
vn 0.00000130 1.00000000 -0.00000010
vn -0.14628442 0.07000683 0.98676234
vn 0.36131238 -0.42877464 0.82801309
vn 0.36720244 -0.44112610 0.81888347
vn 0.32488289 -0.39122929 0.86104051
vn 0.31064385 -0.37585956 0.87305784
vn 0.32903216 -0.40883015 0.85123190
vn 0.28581656 -0.37152716 0.88333259
vn 0.25789749 -0.31760303 0.91247860
vn 0.21760243 -0.27115722 0.93761556
vn 0.00001286 -1.00000000 0.00004374
vn 0.19471063 -0.25353753 0.94752651
vn -0.01645291 -0.03664692 0.99919283
vn 0.00007508 -0.99999998 0.00019382
vn -0.04005916 -0.01601077 0.99906903
vn 0.00324799 -0.05579574 0.99843692
vn -0.00041390 -0.05161036 0.99866721
vn 0.00021606 0.99999995 0.00022477
vn 0.00489039 0.99993982 0.00982044
vn 0.52185801 -0.61664816 0.58941434
vn 0.43150255 -0.51158287 0.74302659
vn -0.07042036 0.01014085 0.99746586
vn -0.09994079 0.03341288 0.99443221
vn 0.00000803 -1.00000000 0.00003283
vn -0.08065191 0.02059641 0.99652951
vn 0.23905042 -0.29601952 0.92478502
vn 0.28213330 -0.34358974 0.89573818
vn 0.00195979 0.99997497 0.00679819
vn -0.12018756 0.05647269 0.99114368
vn -0.24294450 0.11627866 0.96304582
vn -0.26296224 0.12232609 0.95701995
vn 0.61492755 -0.73394078 0.28843549
vn 0.62168948 -0.72029865 0.30768823
vn 0.46479362 -0.53724381 0.70380109
vn 0.45752334 -0.54826580 0.70005500
vn 0.57374657 -0.73721483 0.35683213
vn -0.00124500 0.99999922 -0.00011134
vn -0.12078335 0.05667067 0.99105995
vn -0.25708707 0.12375420 0.95843160
vn 0.61440816 -0.72314956 0.31552706
vn 0.46946553 -0.55383212 0.68765696
vn 0.61530941 -0.72233063 0.31564662
vn -0.02803127 -0.02590114 0.99927142
vn 0.00144640 -0.05240405 0.99862492
vn -0.01408984 -0.04119369 0.99905183
vn 0.00000867 1.00000000 0.00000687
vn 0.46310882 -0.54844749 0.69622954
vn 0.36720244 -0.44112610 0.81888347
vn 0.46932428 -0.55380189 0.68777771
vn 0.35998199 -0.42999810 0.82795809
vn 0.47698768 -0.56594862 0.67244696
vn 0.37809434 -0.44984994 0.80912280
vn -0.00007725 -0.99999999 -0.00008499
vn 0.03914411 -0.08801611 0.99534964
vn -0.00041390 -0.05161036 0.99866721
vn 0.50050322 -0.59352368 0.63025881
vn 0.47698768 -0.56594862 0.67244696
vn 0.40790941 -0.48324184 0.77465298
vn 0.49687970 -0.58497265 0.64102852
vn 0.37809434 -0.44984994 0.80912280
vn 0.39579052 -0.47343046 0.78690118
vn 0.50993200 -0.60083772 0.61560002
vn 0.52185801 -0.61664816 0.58941434
vn 0.62936217 -0.73979954 0.23790734
vn 0.00012299 0.99999998 0.00015863
vn 0.00034861 -0.99999964 -0.00077921
vn 0.34079326 -0.39334782 0.85389545
vn 0.01631749 -0.99983651 0.00779102
vn 0.28581656 -0.37152716 0.88333259
vn 0.43211642 -0.52433449 0.73372252
vn 0.39579052 -0.47343046 0.78690118
vn 0.37809434 -0.44984994 0.80912280
vn 0.33004872 -0.39616020 0.85681091
vn 0.36720244 -0.44112610 0.81888347
vn 0.32488289 -0.39122929 0.86104051
vn 0.61908769 -0.72648578 0.29824293
vn 0.62382023 -0.73492213 0.26596574
vn 0.61440816 -0.72314956 0.31552706
vn 0.49687970 -0.58497265 0.64102852
vn 0.46929936 -0.55379656 0.68779901
vn 0.47698768 -0.56594862 0.67244696
vn -0.22991154 0.11035435 0.96693464
vn -0.21696167 0.10174105 0.97086373
vn -0.12087595 0.05712107 0.99102280
vn 0.21760243 -0.27115722 0.93761556
vn 0.25789749 -0.31760303 0.91247860
vn 0.23898924 -0.29594728 0.92482396
vn 0.23311790 -0.29145284 0.92774527
vn 0.27855286 -0.33922500 0.89851806
vn 0.40790941 -0.48324184 0.77465298
vn 0.41263704 -0.49189798 0.76665967
vn 0.50993200 -0.60083772 0.61560002
vn 0.52185801 -0.61664816 0.58941434
vn 0.50050322 -0.59352368 0.63025881
vn 0.43150255 -0.51158287 0.74302659
vn -0.10735004 0.04081586 0.99338313
vn -0.12302750 0.05360249 0.99095459
vn 0.39579052 -0.47343046 0.78690118
vn 0.33004872 -0.39616020 0.85681091
vn 0.35481659 -0.42432058 0.83310097
vn 0.41263704 -0.49189798 0.76665967
vn 0.40790941 -0.48324184 0.77465298
vn 0.33756698 -0.40652609 0.84899062
vn 0.62936217 -0.73979954 0.23790734
vn 0.50993200 -0.60083772 0.61560002
vn 0.50050322 -0.59352368 0.63025881
vn 0.49687970 -0.58497265 0.64102852
vn 0.62382023 -0.73492213 0.26596574
vn 0.62585019 -0.73458551 0.26209857
vn -0.14717331 0.07050102 0.98659496
vn -0.00000347 1.00000000 0.00001625
vn 0.20639384 -0.26039552 0.94318384
vn 0.20443218 -0.25872164 0.94407129
vn 0.23311790 -0.29145284 0.92774527
vn 0.23899015 -0.29594835 0.92482338
vn -0.13165345 0.05863744 0.98956001
vn -0.13540724 0.06253781 0.98881439
vn -0.11157211 0.04586513 0.99269736
vn -0.11130869 0.04284585 0.99286183
vn -0.12274659 0.05355271 0.99099212
vn -0.13713500 0.06327446 0.98852938
vn -0.12432481 0.05383235 0.99078021
vn -0.13111566 0.06062035 0.98951193
vn 0.00004065 1.00000000 0.00001591
vn 0.00387144 0.99995405 0.00876964
vn 0.28202956 -0.34346523 0.89581860
vn 0.35481659 -0.42432058 0.83310097
vn 0.33756698 -0.40652609 0.84899062
vn 0.08468017 -0.13379928 0.98738393
vn 0.00000751 1.00000000 0.00001064
vn 0.06286804 -0.11197735 0.99172006
vn 0.09978011 -0.14670083 0.98413556
vn 0.05665752 -0.10486987 0.99287070
vn -0.04838938 -0.00847143 0.99879262
vn -0.02803127 -0.02590114 0.99927142
vn -0.01315515 -0.04007543 0.99911006
vn -0.04256671 -0.01429605 0.99899134
vn 0.17064270 -0.22171294 0.96006481
vn 0.14827928 -0.19772868 0.96897710
vn 0.13274930 -0.18353494 0.97400849
vn 0.12406806 -0.17190512 0.97726954
vn 0.04124909 -0.08957821 0.99512525
vn -0.00041390 -0.05161036 0.99866721
vn 0.00326921 -0.05578831 0.99843727
vn 0.02927952 -0.07888248 0.99645384
vn 0.04519495 -0.09952486 0.99400816
vn 0.09684588 -0.14785771 0.98425554
vn 0.08678321 -0.13362352 0.98722512
vn 0.13226238 -0.18241638 0.97428483
vn 0.02870839 -0.07867901 0.99648655
vn 0.00144640 -0.05240405 0.99862492
vn -0.01325861 -0.04008228 0.99910841
vn 0.00330805 -0.05577471 0.99843790
vn -0.08997748 0.02667296 0.99558656
vn -0.10705277 0.04071218 0.99341946
vn -0.10002653 0.03739479 0.99428181
vn 0.14564204 -0.19528785 0.96987167
vn 0.13012003 -0.18173310 0.97470091
vn 0.00002297 -1.00000000 0.00001250
vn 0.17924686 -0.23106339 0.95628462
vn 0.19471063 -0.25353753 0.94752651
vn 0.20639384 -0.26039552 0.94318384
vn 0.17918419 -0.23100743 0.95630988
vn 0.19471063 -0.25353753 0.94752651
vn 0.21760243 -0.27115722 0.93761556
vn 0.23311790 -0.29145284 0.92774527
vn 0.12132021 -0.17065835 0.97783288
vn 0.13012003 -0.18173310 0.97470091
vn 0.14574618 -0.19543747 0.96982588
vn 0.08401232 -0.13336127 0.98750023
vn 0.04519495 -0.09952486 0.99400816
vn 0.08678321 -0.13362352 0.98722512
vn 0.09604597 -0.14740066 0.98440247
vn 0.04133389 -0.08964113 0.99511606
vn 0.05665752 -0.10486987 0.99287070
vn 0.02919890 -0.07884452 0.99645921
vn 0.05665752 -0.10486987 0.99287070
vn 0.04519495 -0.09952486 0.99400816
vn 0.06286804 -0.11197735 0.99172006
vn 0.08091968 -0.12944407 0.98827943
vn 0.03929189 -0.08812579 0.99533411
vn -0.00000850 -1.00000000 0.00000426
vn 0.00328645 -0.05578227 0.99843755
vn -0.01372315 -0.03714897 0.99921551
vn -0.01645291 -0.03664692 0.99919283
vn 0.08468017 -0.13379928 0.98738393
vn 0.10273012 -0.15104862 0.98317386
vn -0.01359266 -0.03732238 0.99921083
vn -0.04005916 -0.01601077 0.99906903
vn -0.04266150 -0.01411744 0.99898984
vn -0.01645291 -0.03664692 0.99919283
vn 0.00144640 -0.05240405 0.99862492
vn 0.03122928 -0.08177985 0.99616102
vn 0.00000391 1.00000000 0.00001074
vn -0.07781649 0.01495874 0.99685547
vn -0.08923798 0.02647432 0.99565842
vn -0.07019480 0.01060294 0.99747695
vn -0.12457944 0.05387746 0.99074577
vn -0.13111566 0.06062035 0.98951193
vn -0.00000162 1.00000000 0.00000261
vn -0.10002653 0.03739479 0.99428181
vn -0.10705865 0.04071932 0.99341853
vn -0.06087217 0.00513638 0.99813235
vn -0.06936093 0.00961681 0.99754528
vn -0.04850883 -0.00853562 0.99878628
vn 0.08042148 -0.12880579 0.98840349
vn -0.00000679 -1.00000000 0.00000779
vn 0.12090099 -0.17046804 0.97791799
vn 0.13012003 -0.18173310 0.97470091
vn -0.06931005 0.00955665 0.99754939
vn -0.10002653 0.03739479 0.99428181
vn -0.09011625 0.02671024 0.99557301
vn -0.06087217 0.00513638 0.99813235
vn -0.00000002 1.00000000 -0.00000023
vn 0.10017370 -0.14720352 0.98402051
vn -0.00000555 1.00000000 0.00000760
vn 0.14825067 -0.19713188 0.96910307
vn 0.13279949 -0.18365023 0.97397992
vn -0.07812208 0.01556609 0.99682227
vn -0.04349027 -0.01255560 0.99897495
vn -0.07030768 0.01049489 0.99747014
vn -0.04816215 -0.00834932 0.99880463
vn -0.12056079 0.05683352 0.99107772
vn -0.14827021 0.07098936 0.98639569
vn -0.13671076 0.06290829 0.98861151
vn -0.14642200 0.06999290 0.98674292
vn -0.12054570 0.05677961 0.99108265
vn -0.15110768 0.07291312 0.98582460
vn 0.17710586 -0.22915119 0.95714327
vn 0.14822580 -0.19900016 0.96872496
vn 0.17060119 -0.22132807 0.96016098
vn 0.31064385 -0.37585956 0.87305784
vn 0.33756698 -0.40652609 0.84899062
vn 0.27854940 -0.33928052 0.89849817
vn 0.33004872 -0.39616020 0.85681091
vn 0.32488289 -0.39122929 0.86104051
vn -0.11094587 0.04265941 0.99291046
vn -0.08909476 0.02643585 0.99567227
vn -0.08035174 0.01999933 0.99656592
vn -0.09994079 0.03341288 0.99443221
vn -0.11157211 0.04586513 0.99269736
vn 0.20443218 -0.25872164 0.94407129
vn 0.17704632 -0.22909801 0.95716702
vn 0.19104728 -0.24250126 0.95115407
vn 0.17077842 -0.22297308 0.95974879
vn 0.20639384 -0.26039552 0.94318384
vn 0.13220103 -0.18227545 0.97431953
vn 0.08378858 -0.13311940 0.98755187
vn 0.12368607 -0.17173186 0.97734841
vn 0.08678321 -0.13362352 0.98722512
vn -0.09994079 0.03341288 0.99443221
vn -0.11157211 0.04586513 0.99269736
vn -0.13165345 0.05863744 0.98956001
vn 0.00000134 -1.00000000 0.00000688
f 89//89 247//247 58//58
f 65//65 60//60 28//28
f 87//87 77//77 10//10
f 131//131 126//126 140//140
f 119//119 132//132 138//138
f 247//247 75//75 25//25
f 1//1 75//75 56//56
f 344//344 251//251 14//14
f 8//8 1//1 163//163
f 167//167 88//88 11//11
f 63//63 128//128 121//121
f 43//43 223//223 177//177
f 118//118 203//203 52//52
f 64//64 122//122 83//83
f 261//261 271//271 180//180
f 283//283 107//107 17//17
f 201//201 333//333 270//270
f 299//299 189//189 116//116
f 37//37 286//286 184//184
f 123//123 50//50 82//82
f 204//204 146//146 183//183
f 263//263 195//195 269//269
f 202//202 236//236 53//53
f 228//228 301//301 117//117
f 243//243 31//31 332//332
f 187//187 287//287 192//192
f 191//191 292//292 38//38
f 239//239 283//283 215//215
f 274//274 199//199 319//319
f 79//79 335//335 198//198
f 290//290 102//102 235//235
f 306//306 310//310 159//159
f 166//166 178//178 282//282
f 105//105 241//241 272//272
f 254//254 189//189 299//299
f 174//174 190//190 257//257
f 261//261 180//180 230//230
f 334//334 114//114 266//266
f 338//338 109//109 318//318
f 267//267 352//352 182//182
f 216//216 322//322 208//208
f 317//317 197//197 264//264
f 217//217 284//284 16//16
f 356//356 323//323 347//347
f 248//248 91//91 178//178
f 222//222 18//18 220//220
f 23//23 351//351 268//268
f 234//234 46//46 51//51
f 163//163 169//169 8//8
f 99//99 48//48 238//238
f 22//22 313//313 327//327
f 178//178 55//55 248//248
f 349//349 326//326 297//297
f 312//312 100//100 173//173
f 268//268 111//111 23//23
f 188//188 171//171 291//291
f 211//211 250//250 258//258
f 262//262 339//339 320//320
f 354//354 245//245 210//210
f 116//116 189//189 194//194
f 175//175 214//214 259//259
f 282//282 227//227 166//166
f 56//56 163//163 1//1
f 285//285 240//240 110//110
f 175//175 259//259 143//143
f 330//330 272//272 241//241
f 289//289 170//170 101//101
f 55//55 178//178 166//166
f 168//168 164//164 57//57
f 357//357 304//304 161//161
f 98//98 363//363 27//27
f 146//146 35//35 183//183
f 331//331 239//239 215//215
f 217//217 209//209 242//242
f 294//294 69//69 2//2
f 212//212 176//176 222//222
f 348//348 211//211 221//221
f 300//300 232//232 181//181
f 368//368 362//362 92//92
f 177//177 144//144 224//224
f 372//372 370//370 124//124
f 3//3 70//70 74//74
f 125//125 368//368 92//92
f 378//378 373//373 133//133
f 276//276 328//328 32//32
f 360//360 157//157 93//93
f 77//77 295//295 10//10
f 95//95 156//156 152//152
f 250//250 341//341 258//258
f 21//21 326//326 349//349
f 276//276 275//275 328//328
f 225//225 281//281 44//44
f 322//322 355//355 208//208
f 380//380 129//129 62//62
f 298//298 325//325 255//255
f 256//256 324//324 311//311
f 26//26 366//366 28//28
f 277//277 33//33 6//6
f 200//200 279//279 7//7
f 218//218 246//246 329//329
f 216//216 13//13 322//322
f 273//273 278//278 196//196
f 260//260 342//342 141//141
f 198//198 5//5 79//79
f 213//213 345//345 321//321
f 336//336 80//80 112//112
f 15//15 252//252 323//323
f 185//185 288//288 233//233
f 212//212 222//222 220//220
f 316//316 108//108 275//275
f 172//172 253//253 315//315
f 177//177 224//224 43//43
f 321//321 249//249 213//213
f 247//247 56//56 75//75
f 181//181 350//350 300//300
f 205//205 186//186 237//237
f 223//223 43//43 20//20
f 337//337 265//265 231//231
f 94//94 154//154 135//135
f 153//153 149//149 134//134
f 127//127 96//96 137//137
f 294//294 2//2 9//9
f 372//372 124//124 130//130
f 207//207 120//120 139//139
f 42//42 36//36 145//145
f 58//58 247//247 29//29
f 98//98 27//27 73//73
f 148//148 206//206 136//136
f 247//247 25//25 29//29
f 366//366 65//65 28//28
f 158//158 39//39 150//150
f 72//72 98//98 73//73
f 40//40 147//147 151//151
f 532//532 675//675 445//445
f 674//674 450//450 558//558
f 410//410 307//307 484//484
f 518//518 413//413 419//419
f 504//504 554//554 542//542
f 671//671 381//381 477//477
f 456//456 517//517 389//389
f 420//420 690//690 561//561
f 474//474 423//423 563//563
f 646//646 570//570 545//545
f 435//435 549//549 539//539
f 386//386 515//515 414//414
f 595//595 663//663 635//635
f 544//544 567//567 685//685
f 431//431 674//674 406//406
f 415//415 483//483 400//400
f 657//657 606//606 616//616
f 637//637 393//393 463//463
f 694//694 610//610 560//560
f 592//592 601//601 631//631
f 621//621 595//595 635//635
f 618//618 634//634 577//577
f 692//692 424//424 437//437
f 644//644 602//602 686//686
f 428//428 565//565 673//673
f 598//598 391//391 641//641
f 502//502 629//629 590//590
f 503//503 591//591 465//465
f 545//545 570//570 568//568
f 592//592 631//631 464//464
f 558//558 406//406 674//674
f 617//617 678//678 587//587
f 453//453 523//523 684//684
f 691//691 677//677 611//611
f 418//418 401//401 451//451
f 537//537 682//682 574//574
f 667//667 643//643 687//687
f 470//470 395//395 669//669
f 667//667 687//687 473//473
f 605//605 678//678 617//617
f 475//475 537//537 574//574
f 491//491 440//440 583//583
f 671//671 425//425 486//486
f 693//693 438//438 586//586
f 434//434 575//575 548//548
f 390//390 627//627 579//579
f 445//445 675//675 671//671
f 622//622 590//590 629//629
f 693//693 586//586 679//679
f 588//588 597//597 695//695
f 391//391 598//598 624//624
f 537//537 387//387 682//682
f 626//626 594//594 619//619
f 696//696 618//618 628//628
f 603//603 650//650 544//544
f 443//443 661//661 651//651
f 659//659 649//649 604//604
f 633//633 639//639 461//461
f 533//533 613//613 458//458
f 569//569 673//673 565//565
f 581//581 625//625 623//623
f 676//676 558//558 672//672
f 534//534 457//457 388//388
f 615//615 697//697 656//656
f 603//603 544//544 685//685
f 569//569 447//447 673//673
f 701//701 564//564 429//429
f 683//683 521//521 547//547
f 396//396 638//638 668//668
f 602//602 644//644 660//660
f 588//588 666//666 597//597
f 536//536 562//562 614//614
f 632//632 600//600 636//636
f 302//302 359//359 490//490
f 364//364 97//97 478//478
f 689//689 566//566 700//700
f 97//97 71//71 478//478
f 654//654 696//696 628//628
f 620//620 698//698 596//596
f 478//478 71//71 444//444
f 358//358 369//369 524//524
f 653//653 670//670 582//582
f 369//369 375//375 524//524
f 529//529 505//505 499//499
f 525//525 374//374 556//556
f 580//580 635//635 663//663
f 558//558 676//676 406//406
f 371//371 377//377 557//557
f 563//563 535//535 474//474
f 500//500 508//508 520//520
f 488//488 361//361 526//526
f 489//489 528//528 497//497
f 653//653 582//582 441//441
f 527//527 555//555 507//507
f 293//293 530//530 446//446
f 645//645 669//669 652//652
f 76//76 86//86 398//398
f 511//511 468//468 541//541
f 68//68 365//365 382//382
f 376//376 512//512 552//552
f 543//543 469//469 433//433
f 558//558 426//426 672//672
f 546//546 519//519 509//509
f 510//510 540//540 553//553
f 67//67 383//383 487//487
f 385//385 454//454 680//680
f 599//599 640//640 492//492
f 665//665 587//587 439//439
f 699//699 471//471 688//688
f 608//608 611//611 677//677
f 584//584 600//600 493//493
f 652//652 658//658 645//645
f 584//584 636//636 600//600
f 681//681 551//551 576//576
f 697//697 615//615 589//589
f 624//624 598//598 593//593
f 585//585 668//668 638//638
f 76//76 398//398 531//531
f 550//550 506//506 538//538
f 498//498 451//451 401//401
f 675//675 532//532 407//407
f 532//532 397//397 407//407
f 647//647 448//448 571//571
f 293//293 78//78 530//530
f 367//367 479//479 383//383
f 403//403 489//489 497//497
f 71//71 296//296 444//444
f 481//481 305//305 404//404
f 402//402 495//495 400//400
f 522//522 452//452 496//496
f 405//405 302//302 490//490
f 416//416 411//411 482//482
f 381//381 671//671 486//486
f 400//400 483//483 402//402
f 417//417 455//455 384//384
f 460//460 612//612 609//609
f 445//445 671//671 477//477
f 309//309 303//303 480//480
f 4//4 642//642 392//392
f 648//648 45//45 449//449
f 664//664 24//24 113//113
f 90//90 449//449 179//179
f 90//90 59//59 485//485
f 4//4 392//392 81//81
f 4//4 662//662 442//442
f 432//432 467//467 573//573
f 81//81 392//392 113//113
f 494//494 642//642 4//4
f 30//30 244//244 4//4
f 280//280 179//179 449//449
f 662//662 45//45 648//648
f 662//662 346//346 219//219
f 578//578 664//664 113//113
f 314//314 572//572 49//49
f 353//353 346//346 662//662
f 219//219 19//19 662//662
f 4//4 353//353 662//662
f 314//314 24//24 664//664
f 466//466 513//513 61//61
f 476//476 573//573 422//422
f 54//54 47//47 104//104
f 45//45 280//280 449//449
f 90//90 559//559 449//449
f 392//392 578//578 113//113
f 421//421 314//314 664//664
f 572//572 466//466 61//61
f 485//485 427//427 90//90
f 4//4 244//244 353//353
f 664//664 436//436 421//421
f 513//513 379//379 61//61
f 49//49 103//103 314//314
f 662//662 19//19 45//45
f 84//84 49//49 572//572
f 61//61 84//84 572//572
f 572//572 314//314 421//421
f 90//90 427//427 559//559
f 442//442 494//494 4//4
f 59//59 66//66 485//485
f 408//408 165//165 226//226
f 115//115 12//12 106//106
f 41//41 162//162 514//514
f 399//399 85//85 165//165
f 34//34 41//41 514//514
f 655//655 115//115 607//607
f 115//115 340//340 229//229
f 343//343 12//12 115//115
f 226//226 142//142 115//115
f 142//142 343//343 115//115
f 430//430 408//408 226//226
f 630//630 501//501 115//115
f 115//115 193//193 607//607
f 430//430 226//226 115//115
f 472//472 702//702 115//115
f 501//501 462//462 115//115
f 702//702 430//430 115//115
f 459//459 607//607 193//193
f 459//459 193//193 514//514
f 462//462 394//394 115//115
f 106//106 340//340 115//115
f 193//193 34//34 514//514
f 394//394 472//472 115//115
f 115//115 655//655 630//630
f 408//408 399//399 165//165
f 308//308 412//412 155//155
f 160//160 409//409 516//516

