# Blender 5.1.2
# www.blender.org
mtllib keel.mtl
o StandardKeel.001
v 687.328125 -151.766724 -1.040390
v 1056.212891 8.299759 -30.278841
v 671.774963 -183.267715 -0.941794
v 801.184387 -210.699661 -19.079931
v 924.426392 8.299728 -24.059856
v 1106.233154 8.299362 -25.448090
v 731.747070 -59.607437 -1.170529
v 740.868896 -39.591232 -1.135587
v 1038.817383 8.299057 -30.939592
v 902.173889 -210.692642 -9.941037
v 910.155884 -210.670151 -6.694181
v 902.799561 8.299713 -21.243351
v 1155.538940 8.296524 -13.999117
v 1162.890381 8.298920 -10.828028
v 716.698303 -119.375702 -2.762190
v 764.342041 8.297531 -1.258245
v 1172.010498 8.299469 -4.334617
v 759.607178 8.285477 0.007897
v 713.631958 -87.587326 0.000039
v 718.472717 -86.707199 -1.104978
v 667.771179 -183.171677 -0.012169
v 1077.538818 8.299744 -28.788010
v 1168.049805 8.298462 -7.835735
v 654.522766 -210.700211 -0.083135
v 783.176025 8.299759 -3.559662
v 992.845947 -144.082504 -4.046241
v 725.962769 -61.847473 0.001666
v 1148.397095 8.298508 -16.427099
v 821.135498 -210.699982 -19.671356
v 1092.647217 8.299744 -27.206806
v 877.071777 -210.700241 -15.622235
v 1081.194946 -65.651398 -7.365541
v 1042.988525 -101.507713 -4.061597
v 1067.818848 -80.464493 -3.985538
v 1043.902832 -96.931709 -7.497874
v 758.761902 -210.700089 -15.225539
v 965.785034 -158.757095 -9.586185
v 976.057739 -154.452316 -7.228134
v 914.466309 -210.689056 -3.896585
v 688.655090 -173.484299 -2.444972
v 669.893555 -210.700211 -2.329874
v 1042.330811 -79.175369 -16.032265
v 807.244995 -141.985809 -17.571981
v 806.495483 8.299652 -7.068449
v 953.460693 -129.810699 -20.397409
v 980.751587 -141.376236 -11.760096
v 941.176758 -161.792542 -15.502173
v 890.279785 -210.700027 -13.140228
v 957.213928 -97.827484 -24.621525
v 1058.336670 -80.546127 -10.100435
v 950.166382 -42.908417 -27.718418
v 887.045593 -72.189041 -23.438980
v 906.871826 -95.593269 -25.181505
v 950.807983 8.299683 -27.005579
v 879.594604 -56.439667 -21.951654
v 736.073181 -210.700119 -12.151918
v 866.431702 -210.699905 -17.107920
v 1077.589111 -59.516068 -12.538558
v 902.377808 -118.366707 -24.447445
v 1013.583313 8.299667 -30.977554
v 753.937378 -47.787827 -3.197725
v 828.039795 -163.779953 -20.548233
v 1037.613525 -75.064438 -18.345879
v 824.997314 -148.031403 -19.858976
v 907.808105 -160.312180 -20.564941
v 981.324402 -94.300743 -23.076033
v 921.643433 -114.824623 -24.556328
v 971.298584 -75.355270 -26.187334
v 880.289795 8.299759 -18.021412
v 849.506348 -170.147034 -21.646057
v 968.676575 -146.451370 -13.515732
v 681.401733 -154.890533 -0.008381
v 964.772400 -131.329636 -18.436802
v 927.390259 -201.520065 -0.002596
v 916.699829 -210.561981 -0.218904
v 1134.250244 8.299652 -20.231628
v 865.740234 -179.240295 -21.099535
v 890.158936 -96.754753 -24.232992
v 1099.405396 -12.010818 -22.102480
v 965.321167 -55.966522 -27.748304
v 999.667297 -67.172546 -25.254320
v 845.825562 -210.699707 -19.012901
v 777.966858 -210.700195 -17.332331
v 970.985962 8.299728 -28.809704
v 1027.630981 -68.007629 -21.817707
v 987.026978 8.299515 -29.907385
v 955.437622 -177.621918 0.011872
v 736.937012 -38.950684 0.008627
v 993.737793 -144.984436 -0.001599
v 1054.916748 -92.855537 -0.006348
v 1173.642578 8.297455 -0.002765
v 740.000671 -40.891052 1.098452
v 914.250366 -199.424438 10.458362
v 1053.051270 8.299667 30.451933
v 799.516724 -210.699890 18.988604
v 659.637817 -210.698792 1.054932
v 929.282715 -194.424118 6.820002
v 930.714600 -197.015167 3.826488
v 669.329895 -210.700134 2.244802
v 913.652344 -210.636703 4.526739
v 919.155396 -202.564865 7.054103
v 1134.206055 8.299683 20.246794
v 783.256775 8.299652 3.561200
v 738.469055 -210.700195 12.504942
v 1162.975220 8.293533 10.785228
v 1117.441650 8.299179 23.613937
v 999.784973 8.299698 30.541134
v 713.174805 -97.510063 1.079848
v 890.252686 8.299759 19.486563
v 926.705933 -191.735275 9.336787
v 894.272339 -210.698868 12.180583
v 814.433533 -210.698120 19.586744
v 1168.003174 8.297592 7.868107
v 785.283264 -210.699875 17.983732
v 1144.025391 8.297699 17.707899
v 727.869080 -67.363815 1.148774
v 922.524658 -204.183426 3.593504
v 764.209656 8.297668 1.240879
v 954.256531 -176.908234 3.947421
v 1016.373352 8.299683 31.006466
v 958.631287 -169.231689 7.143375
v 831.030029 -210.699677 19.593542
v 1042.279419 -98.354256 7.461403
v 1172.008301 8.298096 4.322559
v 908.271423 -210.700180 7.650401
v 976.381775 -149.847397 9.625895
v 994.626709 -142.560364 4.057967
v 682.472046 -161.668121 1.019624
v 997.316650 -122.208084 13.857414
v 1084.722534 -62.632706 7.395827
v 853.077026 -95.078644 20.703194
v 1061.644897 -77.749954 10.117431
v 1061.404663 -85.896729 4.005031
v 806.319580 8.299667 7.043750
v 1016.054810 -99.338760 16.333448
v 797.211853 -155.397308 17.043194
v 859.193115 -61.366745 19.638973
v 1154.396240 8.299576 14.442082
v 1071.595337 8.299301 29.276329
v 948.027832 -53.956741 27.475569
v 1034.664673 -62.337234 21.908291
v 900.303650 -135.783295 23.493874
v 1004.463257 -75.871078 23.474277
v 962.580566 -66.105042 27.179901
v 899.708618 -56.137863 24.132437
v 878.877747 -210.700150 15.343730
v 914.319763 -186.046158 14.657496
v 925.480164 -158.579819 18.840271
v 936.161194 -121.750359 23.268570
v 946.206299 -100.562523 24.933273
v 844.237061 -210.699814 19.074137
v 896.884094 -126.046577 24.049116
v 1016.874268 -54.775696 25.422104
v 899.137268 -113.773529 24.536350
v 1036.281982 8.299179 30.977604
v 891.878540 -85.261337 24.205036
v 930.094543 8.299637 24.765831
v 941.979919 -42.682480 27.278185
v 861.387512 -210.699875 17.678682
v 968.593445 8.299759 28.638885
v 1097.785156 8.299728 26.621044
v 865.781738 -131.489227 22.861561
v 747.378052 -59.701447 3.077880
v 812.298218 -98.960838 15.539767
v 706.228149 -139.835449 2.657990
v 965.126099 -130.870865 18.466105
v 1010.119690 -116.557449 12.021986
v 823.446411 -152.953903 19.878880
v 1051.094238 -59.972260 19.534243
v 933.808350 -141.133606 20.851826
v 762.252319 -210.700180 15.669124
vn -0.1211 0.0567 -0.9910
vn -0.2567 0.1233 -0.9586
vn -0.2223 0.1095 -0.9688
vn 0.4958 -0.5827 -0.6440
vn 0.5027 -0.5967 -0.6255
vn -0.1208 0.0568 -0.9911
vn -0.0751 0.0118 -0.9971
vn -0.1444 0.0599 -0.9877
vn 0.5098 -0.6008 -0.6157
vn -0.1263 0.0561 -0.9904
vn 0.4116 -0.4907 -0.7680
vn 0.5216 -0.6164 -0.5899
vn 0.1114 -0.1614 -0.9806
vn -0.0296 -0.0279 -0.9992
vn 0.0831 -0.1355 -0.9873
vn 0.1764 -0.2289 -0.9573
vn 0.2702 -0.3301 -0.9045
vn 0.4312 -0.5111 -0.7435
vn 0.3188 -0.3830 -0.8670
vn 0.0822 -0.1292 -0.9882
vn 0.3468 -0.4150 -0.8411
vn 0.1359 -0.1847 -0.9734
vn 0.0015 -0.0513 -0.9987
vn 0.2212 -0.2754 -0.9355
vn 0.2474 -0.3072 -0.9189
vn -0.0265 -0.0270 -0.9993
vn 0.0405 -0.0885 -0.9952
vn 0.0734 -0.1221 -0.9898
vn 0.2918 -0.3556 -0.8879
vn 0.6100 -0.7129 -0.3458
vn -0.1465 0.0700 -0.9867
vn 0.0046 -0.0557 -0.9984
vn 0.1801 -0.2316 -0.9560
vn 0.2196 -0.2749 -0.9361
vn 0.1077 -0.1558 -0.9819
vn 0.0964 -0.1443 -0.9848
vn 0.0266 -0.0829 -0.9962
vn 0.1234 -0.1706 -0.9776
vn -0.0566 -0.0016 -0.9984
vn 0.0645 -0.1153 -0.9912
vn -0.0375 -0.0185 -0.9991
vn -0.0683 0.0091 -0.9976
vn -0.1484 0.0710 -0.9864
vn -0.1109 0.0444 -0.9928
vn 0.1274 -0.1776 -0.9758
vn 0.3579 -0.4292 -0.8293
vn -0.1221 0.0585 -0.9908
vn 0.2998 -0.3636 -0.8820
vn 0.1786 -0.2181 -0.9594
vn -0.1489 0.0714 -0.9863
vn 0.1611 -0.2114 -0.9640
vn 0.2474 -0.3041 -0.9200
vn 0.1264 -0.1764 -0.9762
vn 0.2234 -0.2795 -0.9338
vn -0.0896 0.0263 -0.9956
vn 0.0591 -0.1033 -0.9929
vn -0.0403 -0.0137 -0.9991
vn 0.1796 -0.2331 -0.9557
vn -0.1125 0.0452 -0.9926
vn -0.1464 0.0700 -0.9867
vn -0.1207 0.0567 -0.9911
vn -0.0168 -0.0369 -0.9992
vn -0.1124 0.0454 -0.9926
vn 0.0050 -0.0578 -0.9983
vn 0.2555 -0.3139 -0.9144
vn -0.1498 0.0721 -0.9861
vn -0.1913 0.0934 -0.9771
vn 0.6102 -0.7159 -0.3394
vn -0.2400 0.1153 -0.9639
vn 0.3153 -0.3803 -0.8695
vn -0.0255 -0.0272 -0.9993
vn -0.0372 -0.0176 -0.9992
vn -0.2256 0.1082 -0.9682
vn -0.1097 0.0419 -0.9931
vn -0.0890 0.0264 -0.9957
vn 0.1424 -0.1927 -0.9709
vn 0.6190 -0.7265 -0.2985
vn -0.1340 0.0608 -0.9891
vn 0.6239 -0.7323 -0.2729
vn -0.2408 0.1143 -0.9638
vn 0.6177 -0.7276 -0.2985
vn 0.6265 -0.7353 -0.2584
vn 0.0212 -0.0737 -0.9971
vn 0.6137 -0.7229 -0.3173
vn -0.2224 0.1073 -0.9690
vn 0.4746 -0.5601 -0.6790
vn -0.0887 0.0264 -0.9957
vn 0.1626 -0.2134 -0.9633
vn 0.0249 -0.0726 -0.9971
vn -0.1414 0.0666 -0.9877
vn -0.0556 -0.0026 -0.9984
vn 0.6295 -0.7398 -0.2375
vn 0.1854 -0.2385 -0.9533
vn 0.1956 -0.2482 -0.9487
vn -0.2593 0.1199 -0.9583
vn 0.0378 -0.0871 -0.9955
vn 0.0531 -0.1025 -0.9933
vn -0.0200 -0.0352 -0.9992
vn -0.0566 -0.0010 -0.9984
vn 0.0447 -0.0973 -0.9943
vn -0.1090 0.0417 -0.9932
vn 0.0693 -0.1174 -0.9907
vn -0.0844 0.0215 -0.9962
vn 0.1029 -0.1522 -0.9830
vn -0.0667 0.0069 -0.9978
vn 0.2692 -0.3270 -0.9059
vn -0.1089 0.0423 -0.9932
vn 0.0150 -0.0666 -0.9977
vn 0.2192 -0.2753 -0.9360
vn -0.1346 0.0614 -0.9890
vn -0.0826 0.0217 -0.9963
vn -0.1209 0.0568 -0.9910
vn 0.1423 -0.1931 -0.9708
vn 0.3376 -0.4074 -0.8485
vn -0.1289 0.0570 -0.9900
vn 0.0911 -0.1424 -0.9856
vn 0.4769 -0.5657 -0.6727
vn 0.3730 -0.4438 -0.8148
vn 0.4947 -0.5829 -0.6446
vn -0.2257 0.1084 -0.9681
vn 0.6236 -0.7349 -0.2664
vn 0.4067 -0.4815 -0.7764
vn 0.3438 -0.4153 -0.8422
vn -0.1208 0.0567 -0.9911
vn -0.2400 0.1152 -0.9639
vn 0.3960 -0.4737 -0.7866
vn -0.2586 0.1241 -0.9580
vn 0.4561 -0.5413 -0.7064
vn -0.2410 0.1155 -0.9636
vn 0.3735 -0.4455 -0.8136
vn -0.1205 0.0567 0.9911
vn -0.1463 0.0700 0.9868
vn 0.5737 -0.7372 0.3568
vn 0.4321 -0.5243 0.7337
vn 0.5005 -0.5935 0.6303
vn -0.1204 0.0571 0.9911
vn 0.2858 -0.3715 0.8833
vn 0.2044 -0.2587 0.9441
vn 0.2391 -0.2960 0.9248
vn -0.1246 0.0539 0.9907
vn 0.4126 -0.4919 0.7667
vn 0.3408 -0.3933 0.8539
vn 0.1038 -0.1518 0.9829
vn -0.1113 0.0428 0.9929
vn -0.1464 0.0700 0.9867
vn 0.4567 -0.5479 0.7009
vn 0.1301 -0.1817 0.9747
vn -0.0401 -0.0160 0.9991
vn 0.2064 -0.2604 0.9432
vn 0.0033 -0.0558 0.9984
vn 0.0960 -0.1474 0.9844
vn 0.0847 -0.1338 0.9874
vn 0.1910 -0.2425 0.9512
vn -0.0891 0.0264 0.9957
vn -0.1352 0.0625 0.9888
vn 0.0312 -0.0818 0.9962
vn 0.0391 -0.0880 0.9953
vn -0.0004 -0.0516 0.9987
vn -0.1227 0.0536 0.9910
vn 0.0032 -0.0558 0.9984
vn -0.1465 0.0700 0.9867
vn 0.1483 -0.1992 0.9687
vn 0.3249 -0.3912 0.8610
vn 0.1770 -0.2291 0.9572
vn 0.3627 -0.4275 0.8281
vn 0.2786 -0.3393 0.8985
vn -0.0778 0.0150 0.9969
vn -0.0704 0.0101 0.9975
vn -0.0807 0.0206 0.9965
vn 0.1456 -0.1953 0.9699
vn 0.2821 -0.3436 0.8957
vn -0.0280 -0.0259 0.9993
vn -0.1207 0.0567 0.9911
vn 0.1708 -0.2234 0.9597
vn 0.3548 -0.4243 0.8331
vn 0.0629 -0.1120 0.9917
vn -0.1206 0.0568 0.9911
vn 0.0413 -0.0896 0.9951
vn 0.1706 -0.2213 0.9602
vn 0.1322 -0.1823 0.9743
vn 0.0286 -0.0785 0.9965
vn 0.2785 -0.3392 0.8986
vn 0.0452 -0.0995 0.9940
vn 0.0839 -0.1333 0.9875
vn -0.1071 0.0407 0.9934
vn -0.0609 0.0051 0.9981
vn -0.1000 0.0374 0.9943
vn -0.0165 -0.0366 0.9992
vn 0.2176 -0.2712 0.9376
vn -0.1369 0.0629 0.9886
vn 0.0567 -0.1049 0.9929
vn -0.1482 0.0709 0.9864
vn 0.2579 -0.3176 0.9125
vn 0.1209 -0.1705 0.9779
vn -0.1070 0.0406 0.9934
vn -0.1372 0.0633 0.9885
vn -0.1317 0.0586 0.9896
vn 0.3300 -0.3962 0.8568
vn -0.0436 -0.0124 0.9990
vn -0.0901 0.0267 0.9956
vn 0.1328 -0.1837 0.9740
vn 0.2331 -0.2915 0.9277
vn -0.0137 -0.0371 0.9992
vn 0.6153 -0.7223 0.3157
vn -0.2431 0.1162 0.9630
vn -0.1116 0.0459 0.9927
vn -0.2429 0.1163 0.9630
vn 0.0804 -0.1288 0.9884
vn 0.0868 -0.1336 0.9872
vn -0.2425 0.1160 0.9632
vn 0.6191 -0.7264 0.2982
vn -0.0482 -0.0083 0.9988
vn 0.6191 -0.7265 0.2983
vn 0.4770 -0.5659 0.6725
vn 0.6238 -0.7349 0.2660
vn 0.0998 -0.1467 0.9841
vn -0.1512 0.0730 0.9858
vn 0.6259 -0.7346 0.2621
vn 0.2390 -0.2959 0.9248
vn 0.3781 -0.4499 0.8091
vn 0.6144 -0.7232 0.3155
vn 0.4693 -0.5538 0.6878
vn -0.0487 -0.0087 0.9988
vn 0.4969 -0.5850 0.6410
vn -0.2318 0.1100 0.9665
vn -0.0703 0.0107 0.9975
vn -0.2161 0.1015 0.9711
vn 0.5219 -0.6166 0.5894
vn -0.2611 0.1253 0.9571
vn 0.6294 -0.7398 0.2379
vn 0.4315 -0.5116 0.7430
vn -0.1489 0.0716 0.9863
vn 0.3958 -0.4734 0.7869
vn 0.5099 -0.6008 0.6156
vn -0.2571 0.1238 0.9584
vn 0.3106 -0.3759 0.8731
vn 0.0014 -0.0524 0.9986
vn 0.1483 -0.1971 0.9691
vn -0.0999 0.0334 0.9944
vn 0.1792 -0.2311 0.9563
vn -0.0141 -0.0412 0.9991
vn -0.0693 0.0096 0.9975
vn -0.0123 -0.0390 0.9992
vn 0.3376 -0.4065 0.8490
vn 0.1241 -0.1719 0.9773
vn 0.0293 -0.0789 0.9965
vn -0.0426 -0.0143 0.9990
vn -0.2170 0.1017 0.9709
vn 0.4079 -0.4832 0.7747
vn 0.3600 -0.4300 0.8280
vn -0.1209 0.0572 0.9910
vn -0.1216 0.0574 0.9909
vn -0.1311 0.0606 0.9895
vn -0.2294 0.1104 0.9670
vn -0.2630 0.1223 0.9570
vn 0.4695 -0.5538 0.6876
vn 0.6217 -0.7203 0.3077
vn 0.4631 -0.5484 0.6962
vn 0.3672 -0.4411 0.8189
vn 0.6153 -0.7223 0.3156
vn 0.4648 -0.5372 0.7038
vn -0.1212 0.0568 0.9910
vn 0.4613 -0.5497 0.6964
vn 0.3290 -0.4088 0.8512
vn 0.1947 -0.2535 0.9475
vn -0.1201 0.0563 0.9912
vn 0.6149 -0.7339 0.2884
vn -0.0000 1.0000 -0.0000
vn -0.0001 1.0000 -0.0001
vn 0.0049 0.9999 0.0098
vn -0.0000 1.0000 -0.0018
vn -0.0000 1.0000 0.0002
vn 0.0020 1.0000 0.0068
vn 0.0025 1.0000 -0.0066
vn 0.0003 1.0000 0.0002
vn -0.0001 1.0000 -0.0000
vn -0.0000 1.0000 0.0001
vn 0.0002 1.0000 0.0012
vn 0.0008 1.0000 0.0002
vn 0.0003 1.0000 -0.0009
vn 0.0001 1.0000 -0.0000
vn -0.0026 1.0000 -0.0002
vn -0.0000 -1.0000 -0.0000
vn -0.0000 -1.0000 0.0001
vn -0.0028 -1.0000 -0.0025
vn 0.0001 -1.0000 0.0007
vn 0.0035 -1.0000 -0.0016
vn -0.0000 -1.0000 -0.0004
vn -0.0000 -1.0000 -0.0003
vn -0.0001 -1.0000 -0.0001
vn 0.0001 -1.0000 -0.0000
vn -0.0001 -1.0000 0.0001
vn 0.0001 -1.0000 0.0003
vn 0.0008 -1.0000 -0.0007
vn -0.0001 -1.0000 -0.0000
vn 0.0402 -0.9991 0.0101
vn 0.0163 -0.9998 0.0078
s 0
usemtl Material
f 25//1 61//1 16//1
f 18//2 16//2 8//2
f 24//3 21//3 3//3
f 34//4 33//4 35//4
f 32//5 34//5 35//5
f 61//6 20//6 7//6
f 1//6 20//6 15//6
f 83//7 62//7 4//7
f 3//1 1//1 40//1
f 41//8 24//8 3//8
f 17//9 34//9 32//9
f 12//10 55//10 43//10
f 32//11 50//11 14//11
f 17//12 32//12 23//12
f 65//13 66//13 45//13
f 70//14 29//14 4//14
f 49//15 81//15 66//15
f 73//16 47//16 31//16
f 10//17 71//17 46//17
f 32//18 14//18 23//18
f 50//19 37//19 46//19
f 65//20 49//20 66//20
f 50//21 58//21 14//21
f 57//22 73//22 31//22
f 60//23 9//23 80//23
f 47//24 71//24 48//24
f 48//25 71//25 10//25
f 59//26 70//26 53//26
f 67//27 49//27 77//27
f 22//28 81//28 49//28
f 71//29 28//29 58//29
f 74//30 75//30 39//30
f 41//31 44//31 69//31
f 29//32 59//32 67//32
f 63//33 47//33 73//33
f 42//34 47//34 63//34
f 65//35 45//35 57//35
f 81//36 30//36 66//36
f 82//37 29//37 77//37
f 66//38 85//38 45//38
f 53//39 78//39 51//39
f 77//40 49//40 65//40
f 53//41 70//41 4//41
f 86//42 78//42 84//42
f 61//43 25//43 44//43
f 55//44 5//44 54//44
f 6//45 85//45 66//45
f 58//46 13//46 14//46
f 40//47 41//47 3//47
f 28//48 13//48 58//48
f 6//49 76//49 79//49
f 44//50 15//50 61//50
f 85//51 79//51 73//51
f 76//52 28//52 42//52
f 66//53 30//53 6//53
f 47//54 42//54 71//54
f 52//55 62//55 64//55
f 65//56 82//56 77//56
f 86//57 60//57 51//57
f 31//58 47//58 48//58
f 43//59 52//59 64//59
f 69//60 56//60 41//60
f 15//61 40//61 1//61
f 70//62 59//62 29//62
f 43//63 64//63 36//63
f 80//64 67//64 59//64
f 71//65 42//65 28//65
f 15//66 44//66 41//66
f 41//67 40//67 15//67
f 87//68 74//68 39//68
f 27//69 88//69 7//69
f 37//70 10//70 46//70
f 80//71 59//71 53//71
f 53//72 51//72 60//72
f 72//73 19//73 1//73
f 52//74 43//74 55//74
f 84//75 52//75 54//75
f 73//76 57//76 45//76
f 89//77 87//77 26//77
f 43//78 36//78 56//78
f 90//79 89//79 33//79
f 1//80 19//80 20//80
f 33//81 89//81 26//81
f 91//82 90//82 34//82
f 68//83 80//83 9//83
f 87//84 39//84 26//84
f 21//85 72//85 3//85
f 26//86 39//86 38//86
f 62//87 83//87 64//87
f 6//88 79//88 85//88
f 68//89 67//89 80//89
f 56//90 69//90 12//90
f 78//91 86//91 51//91
f 91//92 34//92 17//92
f 73//93 79//93 63//93
f 63//94 79//94 76//94
f 7//95 88//95 8//95
f 68//96 9//96 2//96
f 49//97 68//97 2//97
f 53//98 60//98 80//98
f 53//99 4//99 78//99
f 67//100 68//100 49//100
f 64//101 83//101 36//101
f 49//102 2//102 22//102
f 52//103 84//103 78//103
f 81//104 22//104 30//104
f 4//105 62//105 78//105
f 46//106 71//106 58//106
f 52//107 55//107 54//107
f 77//108 29//108 67//108
f 42//109 63//109 76//109
f 43//110 56//110 12//110
f 78//111 62//111 52//111
f 61//112 15//112 20//112
f 45//113 85//113 73//113
f 50//114 46//114 58//114
f 55//115 12//115 5//115
f 82//116 65//116 57//116
f 26//117 38//117 35//117
f 38//118 37//118 35//118
f 33//119 26//119 35//119
f 72//120 1//120 3//120
f 90//121 33//121 34//121
f 50//122 32//122 35//122
f 11//123 10//123 37//123
f 16//124 61//124 8//124
f 27//125 7//125 20//125
f 37//126 50//126 35//126
f 61//6 7//6 8//6
f 88//127 18//127 8//127
f 39//128 11//128 38//128
f 19//129 27//129 20//129
f 11//130 37//130 38//130
f 128//131 165//131 108//131
f 164//132 109//132 134//132
f 100//133 75//133 117//133
f 125//134 100//134 101//134
f 123//135 133//135 130//135
f 163//136 92//136 116//136
f 111//137 125//137 93//137
f 102//138 169//138 135//138
f 115//139 102//139 135//139
f 157//140 137//140 131//140
f 105//141 132//141 130//141
f 93//142 125//142 101//142
f 143//143 161//143 153//143
f 131//144 136//144 168//144
f 104//145 164//145 99//145
f 101//146 117//146 97//146
f 159//147 146//147 148//147
f 154//148 95//148 112//148
f 169//149 147//149 135//149
f 142//150 144//150 152//150
f 149//151 143//151 153//151
f 149//152 153//152 139//152
f 169//153 102//153 106//153
f 156//154 145//154 168//154
f 104//155 136//155 164//155
f 144//156 94//156 155//156
f 122//157 151//157 142//157
f 122//158 142//158 112//158
f 131//159 137//159 136//159
f 142//160 152//160 112//160
f 134//161 99//161 164//161
f 148//162 166//162 141//162
f 110//163 126//163 167//163
f 169//164 166//164 147//164
f 101//165 97//165 110//165
f 129//166 167//166 138//166
f 162//167 156//167 168//167
f 114//168 95//168 162//168
f 162//169 168//169 114//169
f 146//170 166//170 148//170
f 115//171 129//171 138//171
f 120//172 107//172 140//172
f 163//173 103//173 118//173
f 169//174 106//174 141//174
f 105//175 138//175 132//175
f 94//176 150//176 139//176
f 108//177 165//177 163//177
f 149//178 142//178 151//178
f 169//179 141//179 166//179
f 141//180 143//180 170//180
f 94//181 144//181 150//181
f 129//182 93//182 167//182
f 150//183 142//183 149//183
f 170//184 149//184 151//184
f 145//185 157//185 131//185
f 107//186 160//186 158//186
f 160//187 157//187 145//187
f 152//188 154//188 112//188
f 129//189 147//189 111//189
f 137//190 164//190 136//190
f 139//191 150//191 149//191
f 165//192 134//192 163//192
f 129//193 111//193 93//193
f 148//194 170//194 159//194
f 145//195 131//195 168//195
f 137//196 109//196 164//196
f 171//197 136//197 104//197
f 167//198 126//198 132//198
f 95//199 154//199 162//199
f 145//200 156//200 160//200
f 141//201 161//201 143//201
f 129//202 135//202 147//202
f 152//203 144//203 154//203
f 74//204 87//204 119//204
f 88//205 27//205 116//205
f 168//206 136//206 171//206
f 27//207 19//207 116//207
f 159//208 170//208 151//208
f 149//209 170//209 143//209
f 116//210 19//210 108//210
f 87//211 89//211 127//211
f 158//212 162//212 140//212
f 89//213 90//213 127//213
f 127//214 123//214 121//214
f 127//215 90//215 133//215
f 139//216 153//216 161//216
f 134//217 165//217 99//217
f 90//218 91//218 133//218
f 135//219 129//219 115//219
f 121//220 123//220 126//220
f 119//221 87//221 127//221
f 119//222 127//222 121//222
f 158//223 140//223 107//223
f 127//224 133//224 123//224
f 72//225 128//225 108//225
f 156//226 162//226 158//226
f 21//227 24//227 96//227
f 124//228 113//228 130//228
f 18//229 88//229 92//229
f 91//230 124//230 133//230
f 130//231 113//231 105//231
f 134//232 103//232 163//232
f 132//233 126//233 123//233
f 124//234 130//234 133//234
f 18//235 92//235 118//235
f 93//236 110//236 167//236
f 144//237 155//237 120//237
f 161//238 141//238 106//238
f 171//239 114//239 168//239
f 146//240 147//240 166//240
f 140//241 144//241 120//241
f 158//242 160//242 156//242
f 140//243 154//243 144//243
f 167//244 132//244 138//244
f 170//245 148//245 141//245
f 150//246 144//246 142//246
f 140//247 162//247 154//247
f 21//248 96//248 128//248
f 132//249 123//249 130//249
f 121//250 110//250 97//250
f 165//251 128//251 99//251
f 128//252 96//252 99//252
f 157//253 109//253 137//253
f 72//254 21//254 128//254
f 88//255 116//255 92//255
f 98//256 119//256 121//256
f 19//210 72//210 108//210
f 117//257 74//257 98//257
f 98//258 121//258 97//258
f 126//259 110//259 121//259
f 98//260 74//260 119//260
f 101//261 100//261 117//261
f 92//262 163//262 118//262
f 97//263 117//263 98//263
f 101//264 110//264 93//264
f 111//265 147//265 146//265
f 108//266 163//266 116//266
f 75//267 74//267 117//267
f 2//268 155//268 94//268
f 157//268 12//268 109//268
f 161//268 6//268 30//268
f 25//268 109//268 44//268
f 25//269 16//269 118//269
f 2//268 94//268 22//268
f 2//268 160//268 107//268
f 105//270 113//270 138//270
f 22//268 94//268 30//268
f 120//268 155//268 2//268
f 9//271 60//271 2//271
f 69//268 44//268 109//268
f 160//268 12//268 157//268
f 160//268 84//268 54//268
f 139//268 161//268 30//268
f 76//268 138//268 14//268
f 86//268 84//268 160//268
f 54//268 5//268 160//268
f 2//268 86//268 160//268
f 76//268 6//268 161//268
f 113//272 124//272 17//272
f 115//273 138//273 102//273
f 14//274 13//274 28//274
f 12//268 69//268 109//268
f 25//268 134//268 109//268
f 94//268 139//268 30//268
f 102//268 76//268 161//268
f 138//275 113//275 17//275
f 118//276 103//276 25//276
f 2//277 60//277 86//277
f 161//278 106//278 102//278
f 124//279 91//279 17//279
f 14//280 28//280 76//280
f 160//268 5//268 12//268
f 23//281 14//281 138//281
f 17//269 23//269 138//269
f 138//268 76//268 102//268
f 25//268 103//268 134//268
f 107//268 120//268 2//268
f 16//282 18//282 118//282
f 99//283 41//283 56//283
f 31//284 4//284 29//284
f 11//285 39//285 125//285
f 96//286 24//286 41//286
f 10//287 11//287 125//287
f 159//283 31//283 146//283
f 31//288 82//288 57//288
f 83//289 4//289 31//289
f 56//283 36//283 31//283
f 36//283 83//283 31//283
f 104//283 99//283 56//283
f 151//283 122//283 31//283
f 31//283 48//283 146//283
f 104//283 56//283 31//283
f 114//283 171//283 31//283
f 122//290 112//290 31//290
f 171//283 104//283 31//283
f 111//291 146//291 48//291
f 111//292 48//292 125//292
f 112//293 95//293 31//293
f 29//289 82//289 31//289
f 48//294 10//294 125//294
f 95//283 114//283 31//283
f 31//283 159//283 151//283
f 99//295 96//295 41//295
f 75//296 100//296 39//296
f 39//297 100//297 125//297
