# ('FARMS composite mesh',)
mtllib link_body_13_composite.mtl
usemtl link_body_13_composite
v 0.28402500 5.47657700 6.76884900
v 0.28402500 5.47657700 6.76884900
v -1.79396000 5.08518500 6.80247000
v -1.79396000 5.08518500 6.80247000
v -1.30408400 2.22923000 8.32654100
v 2.59048700 3.49542100 7.20735500
v 2.59048700 3.49542100 7.20735500
v -0.52655100 7.04814600 5.04616100
v -0.52655100 7.04814600 5.04616100
v 3.18217900 6.34863700 4.84634600
v 3.18217900 6.34863700 4.84634600
v 3.18217900 6.34863700 4.84634600
v 3.18217900 6.34863700 4.84634600
v -1.96548900 7.95551900 2.53687900
v -1.96548900 7.95551900 2.53687900
v 1.34983000 5.59308100 5.30865200
v 1.34983000 5.59308100 5.30865200
v 0.85276700 7.41832100 1.53160300
v 0.85276700 7.41832100 1.53160300
v -1.31633900 5.98637200 0.85893500
v -1.31633900 5.98637200 0.85893500
v -0.56008800 5.39268100 3.82484900
v -0.56008800 5.39268100 3.82484900
v -0.56008800 5.39268100 3.82484900
v -0.11705800 7.60542300 -1.19152700
v -0.11705800 7.60542300 -1.19152700
v -0.11705800 7.60542300 -1.19152700
v -0.11705800 7.60542300 -1.19152700
v -0.11705800 7.60542300 -1.19152700
v 0.56793700 7.14357600 -0.91834100
v 0.56793700 7.14357600 -0.91834100
v 0.56793700 7.14357600 -0.91834100
v -1.69290300 8.43786300 -0.96243600
v -1.69290300 8.43786300 -0.96243600
v -1.69290300 8.43786300 -0.96243600
v -0.09827500 7.59274400 -1.18275800
v -0.09827500 7.59274400 -1.18275800
v -0.09827500 7.59274400 -1.18275800
v -0.09827500 7.59274400 -1.18275800
v -0.70839800 7.93948600 -1.13809100
v -0.70839800 7.93948600 -1.13809100
v 0.08765600 6.93754700 0.10740200
v 0.08765600 6.93754700 0.10740200
v 0.08765600 6.93754700 0.10740200
v -0.56898200 7.74279700 -0.84228300
v -0.56898200 7.74279700 -0.84228300
v -0.56898200 7.74279700 -0.84228300
v -0.56898200 7.74279700 -0.84228300
v -0.56898200 7.74279700 -0.84228300
v -0.01026400 7.22990100 -0.37987500
v -0.01026400 7.22990100 -0.37987500
v -0.58060900 6.38953600 -0.22883600
v -0.58060900 6.38953600 -0.22883600
v -0.58060900 6.38953600 -0.22883600
v -0.91111400 7.17419200 -0.86029400
v -0.91111400 7.17419200 -0.86029400
v -1.73635800 5.89735900 -1.61488500
v -1.31083400 8.12886200 -2.22050300
v -1.31083400 8.12886200 -2.22050300
v -1.31083400 8.12886200 -2.22050300
v -0.71169400 7.94190100 -1.14225500
v -0.71169400 7.94190100 -1.14225500
v -1.85363700 7.06607100 -2.57363500
v -1.85363700 7.06607100 -2.57363500
v -1.58215200 7.84586000 -2.82324900
v -1.58215200 7.84586000 -2.82324900
v -1.58215200 7.84586000 -2.82324900
v -1.58215200 7.84586000 -2.82324900
v -1.73725300 7.68185900 -3.13741900
v -1.73725300 7.68185900 -3.13741900
v -1.73725300 7.68185900 -3.13741900
v -1.73725300 7.68185900 -3.13741900
v -1.73725300 7.68185900 -3.13741900
v -3.21428100 7.58214500 -2.26855300
v -3.21428100 7.58214500 -2.26855300
v -5.65732300 5.45382100 -0.95993800
v -4.49927900 6.59236900 1.70542000
v -2.18620700 6.30393900 -5.22891400
v -2.18620700 6.30393900 -5.22891400
v -2.18620700 6.30393900 -5.22891400
v -2.18620700 6.30393900 -5.22891400
v -4.96449200 4.80714700 -4.16844800
v -1.79340900 7.61234700 -3.28097300
v -1.79340900 7.61234700 -3.28097300
v -1.79340900 7.61234700 -3.28097300
v -1.79340900 7.61234700 -3.28097300
v -1.79340900 7.61234700 -3.28097300
v -1.86578200 7.49976300 -3.42399800
v -1.86578200 7.49976300 -3.42399800
v -1.86578200 7.49976300 -3.42399800
v -1.86578200 7.49976300 -3.42399800
v -2.09888300 7.06876600 -3.95405900
v -2.09888300 7.06876600 -3.95405900
v -2.32289100 4.85735700 -4.39399400
v -1.86315900 4.58527600 -6.28505900
v -1.86315900 4.58527600 -6.28505900
v -1.89189400 3.78428200 -5.55544300
v -1.89189400 3.78428200 -5.55544300
v -1.85595000 3.22807700 -3.98606900
v -1.85595000 3.22807700 -3.98606900
v -1.85595000 3.22807700 -3.98606900
v -1.94410300 4.26028500 -2.60219900
v -1.94410300 4.26028500 -2.60219900
v -1.91872800 5.32819000 -6.24408700
v -1.91872800 5.32819000 -6.24408700
v -1.91872800 5.32819000 -6.24408700
v -1.91872800 5.32819000 -6.24408700
v -1.85027600 4.65545100 -6.32781400
v -1.85027600 4.65545100 -6.32781400
v -1.82976400 4.55048800 -6.33108200
v -1.82976400 4.55048800 -6.33108200
v -1.82976400 4.55048800 -6.33108200
v -1.82976400 4.55048800 -6.33108200
v -2.57335900 5.13525400 -6.36295800
v -2.57335900 5.13525400 -6.36295800
v -2.57335900 5.13525400 -6.36295800
v -2.57335900 5.13525400 -6.36295800
v -1.93619700 5.51384700 -6.21898300
v -1.93619700 5.51384700 -6.21898300
v -1.93619700 5.51384700 -6.21898300
v -1.93619700 5.51384700 -6.21898300
v -4.48519100 2.26828700 -6.46987500
v -4.48519100 2.26828700 -6.46987500
v -4.48519100 2.26828700 -6.46987500
v -0.42356500 1.16788400 -6.54429700
v -0.42356500 1.16788400 -6.54429700
v -1.94875400 5.54463000 -6.17474300
v -1.94875400 5.54463000 -6.17474300
v -1.94875400 5.54463000 -6.17474300
v -1.94875400 5.54463000 -6.17474300
v -1.94875400 5.54463000 -6.17474300
v -0.73012600 2.25310400 -6.45615100
v -0.73012600 2.25310400 -6.45615100
v -1.43396200 3.41063900 -6.40683400
v -1.43396200 3.41063900 -6.40683400
v -1.43396200 3.41063900 -6.40683400
v -1.43396200 3.41063900 -6.40683400
v -1.44280800 3.43092100 -6.40557700
v -1.44280800 3.43092100 -6.40557700
v -1.44280800 3.43092100 -6.40557700
v -1.82338400 4.52759600 -6.33268200
v -1.82338400 4.52759600 -6.33268200
v -1.82338400 4.52759600 -6.33268200
v -1.76915900 4.36560600 -6.34354800
v -1.76915900 4.36560600 -6.34354800
v -1.76915900 4.36560600 -6.34354800
v -1.76915900 4.36560600 -6.34354800
v -1.82338400 4.52759600 -6.33268200
v -1.76915800 4.36560600 -6.34354800
v -1.76915800 4.36560600 -6.34354800
v -1.44280800 3.43092100 -6.40557700
v -1.51509700 2.83949200 -5.51508300
v -1.51509700 2.83949200 -5.51508300
v -1.51509700 2.83949200 -5.51508300
v -0.77301100 2.20741000 -6.33663600
v -1.10708400 2.26106000 -5.64499900
v -1.10708400 2.26106000 -5.64499900
v -1.10708400 2.26106000 -5.64499900
v -0.46843600 -1.00551700 -6.61879700
v -0.46843600 -1.00551700 -6.61879700
v -0.46843600 -1.00551700 -6.61879700
v -0.46843600 -1.00551700 -6.61879700
v -0.46843600 -1.00551700 -6.61879700
v -2.68932200 0.61460500 -3.71743300
v -2.68932200 0.61460500 -3.71743300
v -0.37170800 1.88154300 -6.36149500
v -0.37170800 1.88154300 -6.36149500
v -0.37170800 1.88154300 -6.36149500
v -0.69469100 2.20911100 -6.44465700
v -0.69469100 2.20911100 -6.44465700
v -3.48777800 -0.00138400 -0.84065400
v -3.01398300 2.89786700 -0.76079100
v -2.40398900 -2.11557400 -3.82145800
v -2.40398900 -2.11557400 -3.82145800
v -2.40398900 -2.11557400 -3.82145800
v -2.60680200 -3.56312200 -1.56151300
v -2.60680200 -3.56312200 -1.56151300
v -1.68504400 -3.41189500 -4.06907300
v -1.68504400 -3.41189500 -4.06907300
v -1.68504400 -3.41189500 -4.06907300
v -1.12101000 -2.48173200 -5.33681800
v -1.12101000 -2.48173200 -5.33681800
v -0.42493400 -2.07987100 -6.41941400
v -0.42493400 -2.07987100 -6.41941400
v -0.42493400 -2.07987100 -6.41941400
v -0.42493400 -2.07987100 -6.41941400
v -0.42493400 -2.07987100 -6.41941400
v -0.42493400 -2.07987100 -6.41941400
v -1.71777600 -3.74781500 -5.21493300
v -1.53542900 -4.21032100 -6.28213800
v -1.53542900 -4.21032100 -6.28213800
v -0.39251600 -1.99855200 -6.33018200
v -0.39251600 -1.99855200 -6.33018200
v -0.39251600 -1.99855200 -6.33018200
v -0.39251600 -1.99855200 -6.33018200
v -0.41477800 -2.07030000 -6.40716200
v -0.41477800 -2.07030000 -6.40716200
v -0.41477800 -2.07030000 -6.40716200
v -0.41477800 -2.07030000 -6.40716200
v -0.41522100 -2.07130800 -6.40820600
v -0.41522100 -2.07130800 -6.40820600
v -0.41522100 -2.07130800 -6.40820600
v -2.95617100 -4.53900500 -6.47179700
v -2.95617100 -4.53900500 -6.47179700
v -2.95617100 -4.53900500 -6.47179700
v -1.66148900 -5.67882500 -6.08655800
v -1.66148900 -5.67882500 -6.08655800
v -1.66148900 -5.67882500 -6.08655800
v -1.66148900 -5.67882500 -6.08655800
v -1.66148900 -5.67882500 -6.08655800
v -1.66148900 -5.67882500 -6.08655800
v -1.95514100 -5.44734600 -4.88932500
v -1.95514100 -5.44734600 -4.88932500
v -1.95514100 -5.44734600 -4.88932500
v -1.95347300 -5.40925000 -4.81325200
v -1.95347300 -5.40925000 -4.81325200
v -1.95514100 -5.44734600 -4.88932500
v -1.95514100 -5.44734600 -4.88932500
v -1.95514100 -5.44734600 -4.88932500
v -1.95514100 -5.44734600 -4.88932600
v -1.95514100 -5.44734600 -4.88932600
v -1.95514100 -5.44734600 -4.88932600
v -1.95514100 -5.44734600 -4.88932500
v -1.95514100 -5.44734600 -4.88932500
v -1.86167300 -6.54237200 -3.53936700
v -1.79277600 -6.57207200 -5.14697600
v -1.79277600 -6.57207200 -5.14697600
v -1.79277600 -6.57207200 -5.14697600
v -1.69531700 -7.12577800 -4.50069100
v -1.69531700 -7.12577800 -4.50069100
v -1.21904700 -7.96873400 -2.99562800
v -1.21904700 -7.96873400 -2.99562800
v -1.21904700 -7.96873400 -2.99562800
v -1.60309900 -8.32835100 -1.93818400
v -1.60309900 -8.32835100 -1.93818400
v -4.06029700 -5.93698200 -4.10897100
v -4.06029700 -5.93698200 -4.10897100
v -4.52846900 -6.78363300 -0.96583200
v -5.78535500 -3.88971100 -3.71749400
v -5.78535500 -3.88971100 -3.71749400
v -5.78535500 -3.88971100 -3.71749400
v -6.40517600 -4.10706200 0.64556400
v -6.40517600 -4.10706200 0.64556400
v -6.97528300 -0.82989300 -2.37547000
v -5.95589700 -0.76718100 -4.86941300
v -5.95589700 -0.76718100 -4.86941300
v -4.52462100 -1.89525900 -6.51649600
v -4.52462100 -1.89525900 -6.51649600
v -4.52462100 -1.89525900 -6.51649600
v -6.13386100 2.32388900 -4.05138300
v -6.96567100 2.45814600 -0.81560700
v -6.22964100 4.09990500 1.63596500
v -6.68034800 1.73956100 3.06584200
v -7.17845300 -0.87040900 1.03234800
v -5.86308000 -2.07778000 4.82174900
v -5.86308000 -2.07778000 4.82174900
v -3.50175400 -0.02147600 7.64362700
v -3.40494200 -2.62353300 7.19610100
v -4.20022300 -4.73908300 5.33409500
v -4.20022300 -4.73908300 5.33409500
v -5.23836700 -4.97693000 3.33230500
v -5.23836700 -4.97693000 3.33230500
v -5.23836700 -4.97693000 3.33230500
v -5.62399000 0.57029400 5.47788000
v -5.62399000 0.57029400 5.47788000
v -4.11627600 2.58372300 6.69699200
v -4.11627600 2.58372300 6.69699200
v -5.33126900 4.22893800 4.21440500
v -3.53488400 6.06470900 4.78199000
v -3.53488400 6.06470900 4.78199000
v -3.53488400 6.06470900 4.78199000
v -4.08542700 -6.79099300 2.66874600
v -1.21682000 -7.39379800 4.29429400
v -2.04158200 -5.44765000 6.42258000
v -2.04158200 -5.44765000 6.42258000
v -2.13095600 -8.23269700 0.94491000
v 3.18593300 -6.34155100 4.86537000
v 3.18593300 -6.34155100 4.86537000
v 3.18593300 -6.34155100 4.86537000
v 3.18593300 -6.34155100 4.86537000
v 0.81881300 -7.42028200 1.36933100
v 0.81881300 -7.42028200 1.36933100
v -0.26340400 -5.74495100 3.83544500
v -0.26340400 -5.74495100 3.83544500
v -1.39553000 -5.89316600 0.37940100
v -1.39553000 -5.89316600 0.37940100
v 0.65632300 -7.10643100 -0.87200000
v 0.65632300 -7.10643100 -0.87200000
v 0.65632300 -7.10643100 -0.87200000
v 0.25149200 -7.01074600 -0.12166000
v 0.25149200 -7.01074600 -0.12166000
v 0.25149200 -7.01074600 -0.12166000
v 0.25149200 -7.01074600 -0.12166000
v 0.25149200 -7.01074600 -0.12166000
v -0.37313700 -7.76084000 -1.07580100
v -0.37313700 -7.76084000 -1.07580100
v -0.37313700 -7.76084000 -1.07580100
v -0.37313700 -7.76084000 -1.07580100
v -0.37313700 -7.76084000 -1.07580100
v -0.26307700 -7.60556700 -0.84227800
v -0.26307700 -7.60556700 -0.84227800
v -0.26307700 -7.60556700 -0.84227800
v -0.26307700 -7.60556700 -0.84227800
v -0.37313700 -7.76084000 -1.07580100
v -0.37313700 -7.76084000 -1.07580100
v -0.37313700 -7.76084000 -1.07580100
v -0.37051600 -7.75418700 -1.12058200
v -0.29616800 -7.70967100 -1.14896200
v -0.29616800 -7.70967100 -1.14896200
v -0.29616800 -7.70967100 -1.14896200
v -0.37585800 -7.76185000 -1.08009800
v -0.37585800 -7.76185000 -1.08009800
v -0.37585800 -7.76185000 -1.08009800
v -0.26308100 -7.60556900 -0.84228600
v -0.26308100 -7.60556900 -0.84228600
v -0.23646100 -7.67304800 -1.17468600
v -0.23646100 -7.67304800 -1.17468600
v -0.23646100 -7.67304800 -1.17468600
v -0.29713900 -6.59301200 -0.36420200
v -0.29713900 -6.59301200 -0.36420200
v -0.29713900 -6.59301200 -0.36420200
v -0.42413300 -7.34265000 -0.91838900
v -0.42413300 -7.34265000 -0.91838900
v -0.42413300 -7.34265000 -0.91838900
v -0.42413300 -7.34265000 -0.91838900
v -0.42413300 -7.34265000 -0.91838900
v -0.47522000 -7.80045300 -1.22209100
v -0.45203900 -7.79011700 -1.20042300
v -0.45203900 -7.79011700 -1.20042300
v -0.45203900 -7.79011700 -1.20042300
v -0.47522000 -7.80045300 -1.22209100
v -0.47522000 -7.80045300 -1.22209100
v -0.47522000 -7.80045300 -1.22209100
v -0.47522000 -7.80045300 -1.22209100
v -0.47522000 -7.80045300 -1.22209100
v -0.47522000 -7.80045300 -1.22209100
v -0.78179400 -6.31333200 -0.78831300
v -0.78179400 -6.31333200 -0.78831300
v -0.78179400 -6.31333200 -0.78831300
v -0.78179400 -6.31333200 -0.78831300
v -0.78179400 -6.31333200 -0.78831300
v -0.99153600 -6.03789800 -1.02866900
v -0.99153600 -6.03789800 -1.02866900
v -0.75369600 -7.89213800 -1.66108400
v -0.75369600 -7.89213800 -1.66108400
v -0.99153600 -6.03789800 -1.02866900
v -0.99153600 -6.03789800 -1.02866900
v -0.99153600 -6.03789800 -1.02866900
v -0.99153600 -6.03789800 -1.02866900
v -0.99153600 -6.03789800 -1.02867000
v -0.99153600 -6.03789800 -1.02867000
v -0.99153600 -6.03789800 -1.02867000
v -1.24356000 -5.94387200 -1.40408100
v -1.24356000 -5.94387200 -1.40408100
v -1.24356000 -5.94387200 -1.40408100
v -1.23128000 -5.68725000 -1.37757500
v -1.23128000 -5.68725000 -1.37757500
v -1.23128000 -5.68725000 -1.37757500
v -1.23128000 -5.68725000 -1.37757500
v -1.23128000 -5.68725000 -1.37757500
v -1.32294600 -5.91425500 -1.52233300
v -1.32294600 -5.91425500 -1.52233300
v -1.32294600 -5.91425500 -1.52233300
v -1.32294600 -5.91425800 -1.52233300
v -1.32294600 -5.91425800 -1.52233300
v -1.32294600 -5.91425800 -1.52233300
v -1.32294600 -5.91425800 -1.52233300
v -1.32294600 -5.91425500 -1.52233300
v -1.32294600 -5.91425500 -1.52233300
v -1.57538100 -4.83394000 -2.18374700
v -1.57538100 -4.83394000 -2.18374700
v -1.68518500 -5.43961000 -2.29714000
v -1.68518500 -5.43961000 -2.29714000
v -1.68518500 -5.43961000 -2.29714000
v -1.68518500 -5.43961000 -2.29714000
v -1.89185000 -5.84871100 -3.28468400
v -1.54778200 -6.92887500 -2.57382100
v -1.89185000 -5.84871100 -3.28468400
v -1.72989300 -4.28021000 -2.91062300
v -1.72989300 -4.28021000 -2.91062300
v -1.72989300 -4.28021000 -2.91062300
v -1.72989300 -4.28021000 -2.91062300
v -1.89185000 -5.84871100 -3.28468400
v -1.92974400 -4.83456000 -3.56913400
v -1.92974400 -4.83456000 -3.56913400
v -1.92974400 -4.83456000 -3.56913400
v -1.92974400 -4.83456000 -3.56913400
v -1.92974400 -4.83456000 -3.56913400
v -1.92974400 -4.83456000 -3.56913400
v -1.32294600 -5.91425500 -1.52233300
v -1.32294600 -5.91425500 -1.52233300
v -1.89185000 -5.84871100 -3.28468400
v -1.92974400 -4.83456200 -3.56913400
v -1.92974400 -4.83456200 -3.56913400
v -1.92974400 -4.83456200 -3.56913400
v -1.92974400 -4.83456200 -3.56913400
v -1.92974400 -4.83456200 -3.56913400
v -1.92974400 -4.83456200 -3.56913400
v -1.73187400 -4.27219800 -2.92205500
v -1.73187400 -4.27219800 -2.92205500
v -1.73187400 -4.27219800 -2.92205500
v -1.78675600 -4.42817800 -3.10153300
v -1.78675600 -4.42817800 -3.10153300
v -1.78675600 -4.42817800 -3.10153300
v -1.73187400 -4.27219800 -2.92205500
v -1.73187400 -4.27219800 -2.92205500
v -1.73187400 -4.27219800 -2.92205500
v -1.73187400 -4.27219800 -2.92205500
v -0.09001900 -7.49819600 -0.57604600
v -0.09001900 -7.49819600 -0.57604600
v -0.09001900 -7.49819600 -0.57604600
v -0.09001900 -7.49819600 -0.57604600
v -0.26307300 -7.60556500 -0.84227400
v -0.26307300 -7.60556500 -0.84227400
v -3.16150600 -2.25878500 1.31919400
v -2.34334900 -3.51812400 2.93790100
v -2.34334900 -3.51812400 2.93790100
v -0.72698400 -3.09783900 5.66674800
v -0.72698400 -3.09783900 5.66674800
v -0.72698400 -3.09783900 5.66674800
v -1.91354000 -0.17648800 5.19887800
v -1.91354000 -0.17648800 5.19887800
v 0.29927400 -2.11811400 6.98423100
v -2.17044400 2.80970100 3.92623300
v 0.13938600 3.39802400 6.33526200
v 0.13938600 3.39802400 6.33526200
v 0.22528400 0.88551300 7.12543300
v -3.15860900 1.52735100 2.09434400
v 1.84393900 -0.33381300 7.79231400
v 1.84393900 -0.33381300 7.79231400
v 2.74460500 -3.72321400 7.08175800
v 2.74460500 -3.72321400 7.08175800
v -1.58772200 -1.72377400 8.33328900
v -0.36419200 -3.93557100 7.74731000
v 0.66619000 -6.38554400 5.86500300
v 0.66619000 -6.38554400 5.86500300
v 1.44138300 -5.31412300 5.59776700
v 1.44138300 -5.31412300 5.59776700
v -1.39476700 5.59213700 -1.12276800
v -1.39476700 5.59213700 -1.12276800
v -1.39476700 5.59213700 -1.12276800
v -1.79340900 7.61234700 -3.28097300
v -1.79340900 7.61234700 -3.28097300
v -0.56468600 7.84699900 -1.24840500
v -0.56468600 7.84699900 -1.24840500
v -0.56468600 7.84699900 -1.24840500
v -0.51905700 7.82154000 -1.24051300
v -0.11705800 7.60542300 -1.19152700
v -0.70785100 7.93809800 -1.14743200
v -0.70785100 7.93809800 -1.14743200
v -0.70785100 7.93809800 -1.14743200
v -0.70785100 7.93809800 -1.14743200
v -0.70785100 7.93809800 -1.14743200
v -0.70839800 7.93948600 -1.13809100
v -0.70507700 7.93105800 -1.19481600
vn 0.09710000 0.59980000 0.79430000
vn 0.09710000 0.59980000 0.79430000
vn -0.29730000 0.55660000 0.77580000
vn -0.29730000 0.55660000 0.77580000
vn -0.11850000 0.21820000 0.96870000
vn 0.24720000 0.35500000 0.90160000
vn 0.26150000 -0.42590000 -0.86620000
vn -0.02200000 0.86890000 0.49440000
vn -0.02200000 0.86890000 0.49440000
vn 0.25900000 0.81130000 0.52410000
vn 0.25900000 0.81130000 0.52410000
vn 0.17530000 -0.78710000 -0.59140000
vn 0.17530000 -0.78710000 -0.59140000
vn -0.18080000 0.95330000 0.24180000
vn -0.18080000 0.95330000 0.24180000
vn 0.31090000 -0.70540000 -0.63690000
vn 0.31090000 -0.70540000 -0.63690000
vn 0.29630000 0.95050000 0.09320000
vn 0.49840000 -0.83090000 -0.24740000
vn 0.74590000 -0.65850000 -0.10020000
vn 0.74590000 -0.65850000 -0.10020000
vn 0.63100000 -0.63560000 -0.44470000
vn 0.63100000 -0.63560000 -0.44470000
vn 0.63100000 -0.63560000 -0.44470000
vn -0.48240000 -0.87010000 0.10100000
vn 0.79200000 0.61050000 -0.00000000
vn -0.41360000 -0.84570000 -0.33710000
vn 0.85990000 0.51050000 -0.00000000
vn 0.51980000 0.84490000 -0.12630000
vn 0.47160000 -0.88070000 0.04390000
vn 0.59430000 0.78870000 -0.15750000
vn -0.44570000 -0.82550000 -0.34620000
vn 0.37990000 0.92490000 -0.01220000
vn -0.43160000 0.89940000 -0.07010000
vn -0.43160000 0.89940000 -0.07010000
vn 0.60020000 0.78370000 -0.16000000
vn 0.85990000 0.51050000 -0.00000000
vn -0.41360000 -0.84570000 -0.33710000
vn -0.42020000 -0.84330000 -0.33510000
vn 0.46540000 0.88340000 -0.05380000
vn -0.00000000 -0.00000000 1.00000000
vn 0.52540000 -0.85020000 0.03250000
vn -0.45310000 -0.80170000 -0.38990000
vn 0.61670000 -0.32640000 -0.71630000
vn -0.00000000 -0.00000000 1.00000000
vn -0.57160000 -0.79330000 -0.20960000
vn 0.60990000 -0.34440000 -0.71370000
vn -0.83750000 -0.54550000 0.03210000
vn -0.41220000 -0.81540000 -0.40640000
vn -0.54670000 -0.80680000 -0.22430000
vn -0.43670000 -0.81510000 -0.38070000
vn 0.70490000 -0.23600000 -0.66890000
vn 0.70490000 -0.23600000 -0.66890000
vn 0.60650000 -0.78620000 0.11880000
vn 0.75030000 -0.28660000 -0.59570000
vn 0.75030000 -0.28660000 -0.59570000
vn 0.90390000 -0.05350000 -0.42440000
vn 0.43660000 0.89540000 -0.08730000
vn 0.85500000 -0.33260000 -0.39790000
vn -0.27100000 0.91250000 -0.30640000
vn 0.45870000 0.88670000 0.05730000
vn 0.77690000 -0.38480000 -0.49840000
vn 0.90390000 -0.36900000 -0.21640000
vn 0.93640000 -0.19980000 -0.28860000
vn -0.25960000 0.91030000 -0.32250000
vn 0.89100000 -0.38640000 -0.23820000
vn -1.00000000 -0.00000000 -0.00000000
vn 0.89610000 -0.38350000 -0.22330000
vn -0.00000000 -0.00000000 1.00000000
vn -1.00000000 -0.00000000 -0.00000000
vn -0.00000000 0.98010000 -0.19840000
vn 0.90670000 -0.36500000 -0.21150000
vn -0.26060000 0.90390000 -0.33920000
vn -0.51550000 0.81940000 -0.25070000
vn -0.51550000 0.81940000 -0.25070000
vn -0.81770000 0.56570000 -0.10650000
vn -0.66820000 0.72530000 0.16590000
vn 0.99430000 -0.03410000 0.10060000
vn -0.49220000 0.70220000 -0.51450000
vn -0.49220000 0.70220000 -0.51450000
vn -0.49220000 0.70220000 -0.51450000
vn -0.73190000 0.51970000 -0.44080000
vn 0.91790000 -0.34800000 -0.19060000
vn -0.00000000 -0.00000000 1.00000000
vn -0.00000000 0.99700000 -0.07720000
vn -0.30990000 0.85820000 -0.40930000
vn -0.00000000 0.99700000 -0.07720000
vn 0.91790000 -0.34800000 -0.19060000
vn -0.00000000 1.00000000 -0.00000000
vn -0.35890000 0.80280000 -0.47620000
vn 0.93860000 -0.30180000 -0.16730000
vn -0.34120000 0.81220000 -0.47320000
vn 0.98350000 -0.11970000 -0.13580000
vn 0.99580000 0.09170000 0.00440000
vn 0.94110000 0.07350000 0.33000000
vn 0.88400000 0.27260000 0.37980000
vn 0.95340000 0.26490000 0.14430000
vn 0.88560000 0.32360000 0.33330000
vn 0.88830000 -0.25730000 0.38050000
vn 0.94670000 0.32220000 0.00680000
vn 0.94670000 0.32220000 0.00680000
vn 0.97240000 0.09830000 -0.21160000
vn 0.88960000 -0.39980000 0.22110000
vn 0.13640000 0.14130000 -0.98050000
vn 0.97040000 0.05970000 0.23390000
vn 0.97370000 0.05980000 0.21970000
vn -0.00000000 -0.00000000 1.00000000
vn 0.09560000 0.07140000 -0.99290000
vn 0.95380000 0.05180000 0.29580000
vn -0.00000000 -0.00000000 1.00000000
vn 0.85080000 0.15060000 0.50350000
vn 0.85950000 0.20690000 0.46730000
vn 0.11390000 0.09080000 -0.98930000
vn -0.51960000 0.61920000 -0.58870000
vn -0.51960000 0.61920000 -0.58870000
vn -0.51960000 0.61920000 -0.58870000
vn 0.07790000 0.09370000 -0.99250000
vn 0.97040000 0.05970000 0.23390000
vn -0.00000000 -0.00000000 1.00000000
vn -0.30370000 0.73950000 -0.60080000
vn 0.13520000 0.14520000 -0.98010000
vn -0.75790000 0.24920000 -0.60290000
vn -0.01120000 0.02620000 -0.99960000
vn -0.75790000 0.24920000 -0.60290000
vn 0.74250000 -0.08260000 0.66480000
vn 0.04610000 0.05580000 -0.99740000
vn 0.97040000 0.05970000 0.23390000
vn -0.00000000 -0.00000000 1.00000000
vn -0.28630000 0.72490000 -0.62660000
vn -0.28630000 0.72490000 -0.62660000
vn 0.97990000 0.07690000 0.18430000
vn 0.80740000 0.42630000 0.40790000
vn 0.19650000 0.13490000 -0.97120000
vn 0.87760000 0.36340000 0.31260000
vn 0.79950000 0.47020000 0.37390000
vn 0.29480000 0.21850000 -0.93020000
vn -0.00000000 -0.00000000 1.00000000
vn -0.00000000 -0.00000000 1.00000000
vn 0.88270000 0.33920000 0.32530000
vn 0.15690000 0.12860000 -0.97920000
vn 0.12730000 0.10790000 -0.98600000
vn -0.00000000 -0.00000000 1.00000000
vn 0.87120000 0.25380000 0.42020000
vn 0.89000000 0.28640000 0.35460000
vn -0.00000000 0.06240000 -0.99810000
vn 0.12950000 0.11040000 -0.98540000
vn -0.00000000 -0.00000000 1.00000000
vn -0.00000000 0.06240000 -0.99810000
vn 0.89000000 0.28640000 0.35460000
vn -0.00000000 0.06240000 -0.99810000
vn -0.00000000 0.06240000 -0.99810000
vn 0.85200000 0.49360000 0.17450000
vn 0.87760000 0.36340000 0.31260000
vn 0.85200000 0.49360000 0.17450000
vn 0.71960000 0.58760000 0.37000000
vn 0.78610000 -0.12100000 0.60610000
vn 0.79220000 0.54910000 0.26610000
vn 0.78610000 -0.12100000 0.60610000
vn 0.94560000 -0.01690000 -0.32490000
vn 0.78030000 0.08280000 0.61990000
vn 0.78030000 0.08280000 0.61990000
vn 0.78030000 0.08280000 0.61990000
vn 0.01650000 -0.02120000 -0.99960000
vn 0.90410000 -0.06930000 0.42170000
vn 0.90410000 -0.06930000 0.42170000
vn 0.61220000 -0.23770000 0.75420000
vn 0.61330000 0.73290000 0.29450000
vn 0.42570000 0.19540000 -0.88350000
vn 0.51550000 0.21360000 -0.82990000
vn 0.58390000 0.68600000 0.43420000
vn 0.99520000 0.01110000 0.09750000
vn 0.94170000 -0.32790000 0.07560000
vn 0.87800000 0.21670000 0.42680000
vn 0.87800000 0.21670000 0.42680000
vn 0.87800000 0.21670000 0.42680000
vn 0.90820000 0.38640000 0.16100000
vn 0.90820000 0.38640000 0.16100000
vn 0.81990000 0.37050000 0.43630000
vn 0.81990000 0.37050000 0.43630000
vn 0.96780000 -0.25120000 0.01760000
vn 0.76390000 0.22520000 0.60480000
vn 0.86180000 -0.41360000 0.29380000
vn -0.00000000 -0.00000000 1.00000000
vn -0.19960000 -0.68510000 0.70060000
vn 0.20770000 -0.17040000 -0.96320000
vn 0.78350000 -0.08260000 -0.61590000
vn -0.19960000 -0.68510000 0.70060000
vn 0.79390000 -0.51810000 0.31810000
vn 0.94870000 -0.26750000 0.16840000
vn 0.93600000 -0.21470000 0.27880000
vn 0.16730000 -0.15330000 -0.97390000
vn -0.19260000 -0.68940000 0.69830000
vn 0.75830000 -0.59490000 0.26670000
vn 0.96200000 -0.00580000 -0.27290000
vn 0.72190000 0.24350000 0.64780000
vn -0.20180000 -0.68370000 0.70130000
vn 0.94120000 -0.01960000 -0.33720000
vn -0.20180000 -0.68370000 0.70130000
vn 0.69550000 -0.64140000 0.32400000
vn -0.00000000 -0.00000000 1.00000000
vn 0.84320000 -0.06340000 -0.53390000
vn -0.28550000 -0.62670000 0.72510000
vn 0.09080000 -0.10130000 -0.99070000
vn -0.57940000 -0.53910000 -0.61130000
vn -0.57940000 -0.53910000 -0.61130000
vn -0.37090000 -0.64660000 -0.66660000
vn -0.00000000 1.00000000 -0.00000000
vn 0.97120000 0.08960000 0.22090000
vn -0.00000000 -1.00000000 -0.00000000
vn 0.16360000 -0.14400000 -0.97600000
vn 0.96770000 -0.05020000 0.24710000
vn -0.00000000 -1.00000000 -0.00000000
vn -0.00000000 -0.00000000 1.00000000
vn 0.95650000 -0.25480000 0.14170000
vn 0.99880000 -0.04780000 0.00370000
vn -0.00000000 1.00000000 -0.00000000
vn -0.00000000 1.00000000 -0.00000000
vn -0.00000000 -0.00000000 -0.00000000
vn -0.00000000 -1.00000000 -0.00000000
vn -0.00000000 1.00000000 -0.00000000
vn -0.00000000 -1.00000000 -0.00000000
vn -0.00000000 -0.00000000 1.00000000
vn -0.00000000 1.00000000 -0.00000000
vn 0.99350000 0.08660000 0.07400000
vn 0.97230000 0.21060000 -0.10130000
vn -0.56610000 -0.65230000 -0.50400000
vn -0.56610000 -0.65230000 -0.50400000
vn 0.98510000 0.13900000 0.10130000
vn -0.46190000 -0.76280000 -0.45250000
vn 0.95960000 0.28130000 -0.00470000
vn -0.28240000 -0.87230000 -0.39920000
vn 0.48400000 -0.86690000 -0.11900000
vn 0.89600000 0.38760000 -0.21690000
vn -0.47080000 -0.84850000 -0.24150000
vn 0.42160000 -0.90460000 -0.06220000
vn -0.61140000 -0.65120000 -0.44950000
vn -0.61140000 -0.65120000 -0.44950000
vn -0.68500000 -0.72080000 -0.10570000
vn -0.83710000 -0.40020000 -0.37300000
vn -0.83710000 -0.40020000 -0.37300000
vn -0.83710000 -0.40020000 -0.37300000
vn -0.91090000 -0.40880000 0.05590000
vn -0.91090000 -0.40880000 0.05590000
vn -0.97170000 -0.08920000 -0.21870000
vn -0.85690000 -0.06380000 -0.51140000
vn -0.85690000 -0.06380000 -0.51140000
vn -0.02000000 -0.00380000 -0.99980000
vn -0.75740000 -0.22820000 -0.61170000
vn -0.75740000 -0.22820000 -0.61170000
vn -0.88500000 0.23170000 -0.40380000
vn -0.96850000 0.23420000 -0.08470000
vn -0.89250000 0.42160000 0.16020000
vn -0.94180000 0.15550000 0.29820000
vn -0.98970000 -0.09370000 0.10780000
vn -0.85040000 -0.20970000 0.48260000
vn -0.85040000 -0.20970000 0.48260000
vn -0.55030000 -0.00170000 0.83500000
vn -0.54530000 -0.29330000 0.78530000
vn -0.63590000 -0.51180000 0.57770000
vn -0.63590000 -0.51180000 0.57770000
vn -0.80740000 -0.49200000 0.32560000
vn -0.80740000 -0.49200000 0.32560000
vn -0.80740000 -0.49200000 0.32560000
vn -0.81940000 0.05830000 0.57030000
vn -0.81940000 0.05830000 0.57030000
vn -0.62460000 0.28960000 0.72530000
vn -0.62460000 0.28960000 0.72530000
vn -0.78750000 0.43140000 0.44020000
vn -0.53520000 0.66900000 0.51570000
vn -0.53520000 0.66900000 0.51570000
vn -0.53520000 0.66900000 0.51570000
vn -0.60620000 -0.74320000 0.28310000
vn -0.11330000 -0.90500000 0.41010000
vn -0.32300000 -0.61790000 0.71690000
vn -0.32300000 -0.61790000 0.71690000
vn -0.17260000 -0.97820000 0.11600000
vn 0.26530000 -0.81570000 0.51410000
vn 0.26530000 -0.81570000 0.51410000
vn 0.21170000 0.78800000 -0.57820000
vn 0.21170000 0.78800000 -0.57820000
vn 0.50490000 0.83560000 -0.21620000
vn 0.30110000 -0.95080000 0.07260000
vn 0.55900000 0.69380000 -0.45400000
vn 0.55900000 0.69380000 -0.45400000
vn 0.75130000 0.65760000 -0.05640000
vn 0.75130000 0.65760000 -0.05640000
vn 0.39860000 0.91180000 0.09880000
vn -0.42140000 0.84280000 -0.33480000
vn 0.55110000 -0.82160000 -0.14570000
vn -0.45100000 0.83470000 -0.31600000
vn 0.57130000 0.30870000 -0.76050000
vn 0.48820000 0.87040000 0.06460000
vn -0.85440000 0.12960000 0.50310000
vn -0.45100000 0.83470000 -0.31600000
vn 0.53340000 -0.84080000 -0.09270000
vn 0.48240000 -0.87010000 -0.10110000
vn 0.89440000 -0.44720000 -0.00000000
vn 0.74680000 0.21620000 -0.62890000
vn -0.62100000 0.76260000 -0.18120000
vn -0.88180000 0.03580000 0.47030000
vn -0.60880000 0.76650000 -0.20440000
vn -0.58540000 0.21950000 0.78050000
vn 0.76760000 0.28930000 -0.57200000
vn 0.74040000 -0.67210000 -0.00000000
vn 0.76960000 0.30500000 -0.56100000
vn -0.00000000 -0.00000000 1.00000000
vn 0.48240000 -0.87010000 -0.10110000
vn 0.53750000 -0.84320000 -0.01190000
vn -0.49390000 0.86530000 0.08560000
vn 0.48240000 -0.87010000 -0.10110000
vn -0.00000000 -0.00000000 1.00000000
vn 0.77080000 0.30460000 -0.55960000
vn 0.46890000 -0.87860000 -0.09000000
vn 0.76010000 0.26180000 -0.59470000
vn 0.89440000 -0.44720000 -0.00000000
vn 0.53000000 -0.84770000 0.02340000
vn -0.56210000 0.79750000 -0.21940000
vn -0.56210000 0.79750000 -0.21940000
vn 0.68390000 0.31920000 -0.65610000
vn 0.68390000 0.31920000 -0.65610000
vn 0.55990000 0.82720000 0.04850000
vn 0.73910000 0.31560000 -0.59520000
vn 0.73910000 0.31560000 -0.59520000
vn 0.73910000 0.31560000 -0.59520000
vn 1.00000000 -0.00000000 -0.00000000
vn -0.00000000 -0.00000000 1.00000000
vn -0.00000000 -0.00000000 1.00000000
vn 0.58440000 0.40630000 -0.70240000
vn 0.58440000 0.40630000 -0.70240000
vn 0.48240000 -0.87010000 -0.10100000
vn 0.50140000 0.43870000 -0.74570000
vn 0.48700000 -0.87090000 -0.06580000
vn 1.00000000 -0.00000000 -0.00000000
vn 0.52770000 -0.84910000 -0.02330000
vn 0.75960000 0.32150000 -0.56540000
vn 0.75960000 0.32150000 -0.56540000
vn 0.63640000 0.76920000 0.05770000
vn 0.80440000 0.29220000 -0.51730000
vn -0.73140000 -0.68190000 -0.00000000
vn 0.80440000 0.29220000 -0.51730000
vn 0.80440000 0.29220000 -0.51730000
vn -0.63860000 -0.76960000 -0.00000000
vn 0.84000000 0.26860000 -0.47150000
vn 0.48520000 -0.86540000 -0.12510000
vn 0.82920000 0.32360000 -0.45580000
vn -0.00000000 -0.00000000 1.00000000
vn 0.73650000 0.66110000 0.14340000
vn -0.32430000 -0.94600000 -0.00000000
vn -0.32430000 -0.94600000 -0.00000000
vn 0.83210000 0.01740000 -0.55430000
vn -0.00000000 -1.00000000 -0.00000000
vn -0.00000000 -0.00000000 1.00000000
vn 0.80590000 0.06060000 -0.58890000
vn -0.00000000 -1.00000000 -0.00000000
vn -0.00000000 -1.00000000 -0.00000000
vn -0.00000000 -0.00000000 1.00000000
vn 0.83210000 0.01740000 -0.55430000
vn 0.80180000 0.57550000 0.16140000
vn 0.88690000 -0.06980000 -0.45660000
vn 1.00000000 -0.00000000 -0.00000000
vn 1.00000000 -0.00000000 -0.00000000
vn -0.00000000 -0.00000000 1.00000000
vn 0.70710000 -0.00000000 -0.70710000
vn 0.88610000 0.13040000 -0.44470000
vn 0.87730000 0.13270000 -0.46120000
vn 1.00000000 -0.00000000 -0.00000000
vn -0.00000000 -0.00000000 1.00000000
vn 0.94260000 0.33380000 -0.00000000
vn 0.88730000 -0.06740000 -0.45620000
vn 0.80780000 0.54130000 0.23340000
vn 0.93110000 -0.10330000 -0.34970000
vn 0.93760000 -0.07210000 -0.34000000
vn 0.94220000 0.14320000 -0.30300000
vn 0.94260000 0.33380000 -0.00000000
vn -0.00000000 -0.00000000 1.00000000
vn -0.00000000 -0.00000000 1.00000000
vn 0.91250000 0.27770000 -0.30040000
vn 0.98650000 0.08780000 -0.13790000
vn -0.00000000 -0.00000000 1.00000000
vn 0.80770000 0.53920000 0.23840000
vn 0.96800000 -0.08720000 -0.23520000
vn -0.95240000 0.30490000 -0.00000000
vn 0.98020000 -0.01870000 -0.19740000
vn -0.00000000 -0.00000000 1.00000000
vn 0.99300000 -0.11390000 -0.03070000
vn 0.99300000 -0.11390000 -0.03070000
vn 0.99300000 -0.11390000 -0.03070000
vn -0.00000000 0.44720000 0.89440000
vn 0.97540000 -0.05480000 -0.21360000
vn 1.00000000 -0.00000000 -0.00000000
vn 0.95580000 -0.00000000 -0.29410000
vn 0.99810000 -0.00000000 -0.06240000
vn -0.00000000 -0.00000000 1.00000000
vn 0.99920000 -0.00000000 -0.04030000
vn 0.99920000 -0.00000000 -0.04030000
vn 0.99950000 0.02170000 -0.02460000
vn 0.99990000 -0.00000000 -0.01060000
vn 0.99990000 -0.00000000 -0.01060000
vn -0.00000000 0.44720000 0.89440000
vn -0.00000000 -0.00000000 1.00000000
vn 0.97080000 -0.08200000 -0.22560000
vn -0.00000000 0.44720000 0.89440000
vn -0.00000000 -0.00000000 1.00000000
vn 0.97120000 -0.20790000 -0.11630000
vn -0.00000000 -0.00000000 1.00000000
vn -0.95240000 0.30490000 -0.00000000
vn 0.83720000 0.45730000 0.30000000
vn 0.50870000 -0.10890000 0.85410000
vn 0.68910000 0.31090000 -0.65460000
vn 0.68910000 0.31090000 -0.65460000
vn -0.58540000 0.21950000 0.78050000
vn -0.85440000 0.12960000 0.50310000
vn -0.58540000 0.21950000 0.78050000
vn -0.87990000 0.04360000 0.47320000
vn 0.96290000 0.23030000 -0.14040000
vn 0.85930000 0.38390000 -0.33780000
vn 0.85930000 0.38390000 -0.33780000
vn 0.66850000 0.37790000 -0.64050000
vn 0.66850000 0.37790000 -0.64050000
vn 0.66850000 0.37790000 -0.64050000
vn 0.81890000 0.01960000 -0.57360000
vn 0.81890000 0.01960000 -0.57360000
vn 0.47760000 0.25670000 -0.84030000
vn 0.83790000 -0.32690000 -0.43700000
vn 0.53280000 -0.39070000 -0.75060000
vn 0.53280000 -0.39070000 -0.75060000
vn 0.50710000 -0.12070000 -0.85340000
vn 0.96040000 -0.16410000 -0.22510000
vn 0.30900000 0.03000000 -0.95060000
vn 0.20790000 -0.03200000 0.97760000
vn 0.24310000 -0.39020000 0.88810000
vn 0.24740000 0.46560000 -0.84970000
vn -0.14310000 -0.16890000 0.97520000
vn 0.00700000 -0.39600000 0.91820000
vn 0.11860000 -0.75180000 0.64870000
vn 0.11860000 -0.75180000 0.64870000
vn 0.31210000 0.66180000 -0.68170000
vn 0.31210000 0.66180000 -0.68170000
vn 0.81410000 -0.57210000 0.09980000
vn 0.82010000 -0.00480000 -0.57220000
vn 0.81410000 -0.57210000 0.09980000
vn -0.00000000 0.99240000 -0.12270000
vn -0.00000000 0.99240000 -0.12270000
vn 0.48240000 0.87010000 -0.10100000
vn -0.54900000 -0.79900000 -0.24560000
vn -0.48240000 -0.87010000 0.10100000
vn -0.41360000 -0.84580000 -0.33690000
vn 0.76570000 0.64310000 -0.01070000
vn 0.48240000 0.87010000 -0.10110000
vn -0.62270000 -0.75630000 -0.20060000
vn -0.48240000 -0.87010000 0.10100000
vn -0.00000000 -0.00000000 1.00000000
vn -0.83750000 -0.54550000 0.03210000
vn -0.83750000 -0.54550000 0.03210000
vn 0.48240000 0.87010000 -0.10110000
vt 0.61068300 0.39034300
vt 0.69464900 0.54045700
vt 0.60851900 0.40415300
vt 0.70027900 0.55137700
vt 0.59263700 0.40093900
vt 0.59968700 0.37503100
vt 0.04447400 0.73523300
vt 0.61946300 0.39568600
vt 0.70707400 0.54265900
vt 0.61558900 0.37103900
vt 0.69620000 0.52065100
vt 0.88159200 0.80490000
vt 0.04065400 0.75125600
vt 0.72446200 0.54517300
vt 0.54601800 0.29816700
vt 0.05280800 0.74703100
vt 0.88528000 0.79324000
vt 0.72031400 0.52613300
vt 0.90509300 0.79992400
vt 0.91539700 0.78953900
vt 0.51450000 0.13376000
vt 0.89862200 0.78617300
vt 0.06557300 0.74606700
vt 0.49930500 0.14153300
vt 0.92139800 0.80151800
vt 0.73656000 0.52438600
vt 0.92139800 0.80151800
vt 0.73656000 0.52438600
vt 0.73656000 0.52438600
vt 0.91789300 0.80490000
vt 0.73269800 0.52065100
vt 0.91789300 0.80490000
vt 0.74105800 0.53494600
vt 0.54503800 0.27854800
vt 0.74105800 0.53494600
vt 0.73644800 0.52428700
vt 0.73644800 0.52428700
vt 0.92129500 0.80160800
vt 0.92129500 0.80160800
vt 0.73842800 0.52829400
vt 0.99929800 0.97153100
vt 0.91447700 0.79942800
vt 0.91447700 0.79942800
vt 0.69404200 0.97180600
vt 0.99929800 0.97153100
vt 0.92115200 0.79792000
vt 0.69404200 0.97814200
vt 0.92115200 0.79792000
vt 0.92115200 0.79792000
vt 0.91713900 0.80007700
vt 0.91713900 0.80007700
vt 0.52068400 0.13283600
vt 0.69933200 0.97275300
vt 0.91828200 0.79660400
vt 0.52606900 0.13389700
vt 0.69786500 0.97746600
vt 0.52526600 0.12493200
vt 0.74565800 0.52896900
vt 0.53526800 0.13328300
vt 0.74565800 0.52896900
vt 0.73846100 0.52830500
vt 0.52984000 0.13659100
vt 0.53337000 0.12686500
vt 0.53337000 0.12686500
vt 0.74907600 0.52839800
vt 0.53703600 0.12979500
vt 0.99669100 0.97091000
vt 0.53703600 0.12979500
vt 0.99881500 0.97094800
vt 0.99881500 0.97094800
vt 0.99857000 0.97109400
vt 0.53790400 0.12788900
vt 0.75088000 0.52815000
vt 0.55410700 0.27247800
vt 0.75099500 0.53847100
vt 0.57038300 0.28185500
vt 0.55997800 0.29541800
vt 0.54274700 0.11458000
vt 0.66957900 0.97869000
vt 0.55976000 0.25639700
vt 0.76084200 0.52285300
vt 0.57385600 0.26423200
vt 0.53831800 0.12705900
vt 0.99975000 0.97091000
vt 0.99937800 0.97109400
vt 0.75166700 0.52796400
vt 0.99929800 0.97153100
vt 0.53858900 0.12602200
vt 0.99929800 0.97153100
vt 0.75245300 0.52780300
vt 0.53858900 0.12602200
vt 0.75524700 0.52699200
vt 0.53954900 0.12215800
vt 0.53428700 0.11074500
vt 0.54185300 0.10395200
vt 0.54185300 0.10395200
vt 0.53597300 0.10274100
vt 0.53597300 0.10274100
vt 0.52714100 0.10538800
vt 0.52714100 0.10538800
vt 0.97023900 0.87868600
vt 0.52432800 0.11430400
vt 0.52432800 0.11430400
vt 0.16828400 0.81491100
vt 0.54409800 0.10729800
vt 0.54409800 0.10729800
vt 0.99929800 0.97153100
vt 0.16659800 0.81156900
vt 0.54227300 0.10413700
vt 0.99929800 0.97153100
vt 0.54194500 0.10368600
vt 0.54194500 0.10368600
vt 0.16627300 0.81106900
vt 0.83399000 0.97515900
vt 0.56738100 0.25093200
vt 0.66957900 0.97180600
vt 0.17202200 0.81243700
vt 0.54459200 0.10817800
vt 0.99929800 0.97153100
vt 0.83399000 0.97180600
vt 0.16874100 0.81583700
vt 0.58690300 0.25266900
vt 0.17858700 0.79319900
vt 0.17858700 0.79319900
vt 0.97614800 0.85971000
vt 0.15114200 0.79664400
vt 0.54449500 0.10844300
vt 0.99929800 0.97153100
vt 0.66659300 0.97547300
vt 0.83372800 0.97189100
vt 0.54449500 0.10844300
vt 0.98624800 0.88123900
vt 0.15509100 0.80159700
vt 0.53856000 0.09885000
vt 0.98176100 0.88602200
vt 0.16166200 0.80603200
vt 0.99929800 0.97153100
vt 0.99929800 0.97153100
vt 0.53862100 0.09893400
vt 0.16175600 0.80611800
vt 0.16619000 0.81096400
vt 0.99929800 0.97153100
vt 0.54187700 0.10358700
vt 0.54139700 0.10289700
vt 0.69934400 0.97741000
vt 0.16554800 0.81024400
vt 0.99929800 0.97153100
vt 0.69933200 0.97837500
vt 0.54139700 0.10289700
vt 0.69934400 0.97741000
vt 0.69933200 0.97180600
vt 0.97839300 0.88222100
vt 0.53270700 0.09911900
vt 0.53270700 0.09911900
vt 0.98562600 0.88092300
vt 0.53139900 0.09659600
vt 0.98130600 0.87996400
vt 0.98314800 0.85688300
vt 0.74036200 0.97778500
vt 0.17005600 0.98603800
vt 0.52507900 0.07975500
vt 0.97023900 0.87019400
vt 0.14734100 0.78523000
vt 0.51739400 0.09382000
vt 0.98750200 0.87019400
vt 0.97787700 0.85614900
vt 0.98780000 0.87868600
vt 0.15214500 0.80046400
vt 0.15478600 0.80144700
vt 0.98640100 0.88096800
vt 0.50251800 0.09950500
vt 0.51163900 0.11306300
vt 0.82430000 0.44544200
vt 0.16809500 0.97180600
vt 0.50893800 0.08176100
vt 0.49410400 0.08244300
vt 0.81207900 0.44948700
vt 0.17671200 0.97180600
vt 0.82249500 0.43866800
vt 0.15274900 0.95559600
vt 0.17447800 0.97783800
vt 0.15239900 0.96432100
vt 0.99929800 0.97153100
vt 0.99929800 0.97153100
vt 0.14503300 0.77971900
vt 0.74036200 0.97180600
vt 0.99964800 0.97149200
vt 0.15355300 0.97044300
vt 0.15808700 0.95945000
vt 0.16346900 0.96253800
vt 0.14795600 0.76610700
vt 0.99910200 0.97149200
vt 0.15286700 0.97033200
vt 0.73977000 0.97216900
vt 0.17491600 0.98339300
vt 0.99955900 0.97152800
vt 0.74027800 0.97185200
vt 0.99938300 0.97153100
vt 0.99929800 0.97153100
vt 0.99929800 0.97153100
vt 0.74028500 0.97184700
vt 0.99937700 0.97152800
vt 0.15623200 0.76120200
vt 0.15623200 0.76120200
vt 0.20905100 0.68092200
vt 0.14596700 0.75816100
vt 0.66957900 0.97879000
vt 0.16926500 0.95667400
vt 0.66957900 0.97876600
vt 0.14596700 0.75816100
vt 0.16926500 0.95667400
vt 0.66957900 0.97180600
vt 0.99929800 0.97153100
vt 0.16456000 0.95222700
vt 0.16413900 0.95202500
vt 0.99910200 0.97152800
vt 0.99956900 0.97152800
vt 0.99929800 0.97153100
vt 0.16456000 0.95222700
vt 0.66957900 0.97180600
vt 0.66957900 0.97180600
vt 0.99929800 0.97153100
vt 0.66957900 0.97180600
vt 0.16456000 0.95222700
vt 0.16462300 0.94260700
vt 0.20515400 0.67089500
vt 0.14503300 0.75314400
vt 0.17008800 0.94952400
vt 0.20612400 0.66746700
vt 0.17018700 0.94482000
vt 0.20705600 0.65867500
vt 0.20705600 0.65867500
vt 0.16822500 0.93539800
vt 0.21197400 0.65475700
vt 0.21197400 0.65475700
vt 0.16031500 0.75125600
vt 0.22130400 0.67297700
vt 0.23205600 0.65919300
vt 0.23299700 0.67642000
vt 0.61974400 0.27156100
vt 0.17491400 0.75799400
vt 0.24802300 0.65714300
vt 0.61974400 0.29594900
vt 0.60648800 0.27789200
vt 0.18194300 0.77395400
vt 0.60508300 0.26368900
vt 0.17100900 0.77143200
vt 0.17100900 0.77143200
vt 0.60812100 0.25457700
vt 0.58938000 0.26667400
vt 0.58884400 0.28477300
vt 0.57711100 0.29708700
vt 0.58934400 0.30636900
vt 0.60510800 0.29674900
vt 0.56895300 0.43115900
vt 0.60548200 0.31763500
vt 0.58021000 0.41553000
vt 0.56582100 0.41488200
vt 0.55419000 0.42012700
vt 0.24729400 0.62736900
vt 0.61947500 0.31066000
vt 0.24802300 0.64041300
vt 0.55296400 0.42697900
vt 0.59104700 0.31977300
vt 0.58358700 0.42958100
vt 0.59467800 0.41958700
vt 0.57620200 0.32477400
vt 0.57254300 0.31080700
vt 0.71628900 0.55698500
vt 0.61403600 0.41567200
vt 0.55825600 0.31218700
vt 0.23902200 0.64009200
vt 0.22637500 0.62313600
vt 0.55021300 0.40581000
vt 0.23734800 0.61527900
vt 0.22266300 0.64238100
vt 0.54531900 0.37103900
vt 0.20247800 0.60638000
vt 0.04065400 0.68099400
vt 0.76242600 0.42669700
vt 0.78499700 0.43043500
vt 0.20679300 0.63094500
vt 0.06362400 0.68440100
vt 0.77692500 0.44501900
vt 0.47781800 0.07975500
vt 0.79704000 0.44328100
vt 0.79697900 0.42669700
vt 0.79697900 0.42669700
vt 0.20194000 0.64235900
vt 0.63470000 0.97180600
vt 0.77737700 0.97180600
vt 0.79432300 0.43089900
vt 0.63470000 0.97180600
vt 0.79432300 0.43089900
vt 0.20722500 0.64664000
vt 0.20722500 0.64664000
vt 0.60335100 0.97945500
vt 0.60335100 0.97945500
vt 0.63372000 0.97929500
vt 0.63375700 0.97761900
vt 0.63375700 0.97761900
vt 0.63375700 0.97761900
vt 0.60442600 0.97820600
vt 0.20722500 0.64664000
vt 0.60335100 0.97945500
vt 0.99929800 0.97153100
vt 0.20709400 0.64684900
vt 0.20659800 0.64675000
vt 0.63433900 0.97932900
vt 0.20659800 0.64675000
vt 0.99929800 0.97153100
vt 0.60332900 0.97946900
vt 0.20722900 0.64666900
vt 0.60442600 0.97820600
vt 0.60442600 0.97820600
vt 0.20619300 0.64668500
vt 0.63470000 0.97923100
vt 0.80023200 0.43019400
vt 0.77799800 0.97610100
vt 0.60554900 0.97222900
vt 0.79733100 0.43415200
vt 0.99922200 0.97094800
vt 0.60358600 0.97707700
vt 0.59176500 0.97415400
vt 0.99929800 0.97153100
vt 0.99929800 0.97153100
vt 0.99929800 0.97153100
vt 0.99676700 0.97109400
vt 0.60269400 0.97985700
vt 0.20735000 0.64749800
vt 0.99669100 0.97094800
vt 0.20742500 0.64767700
vt 0.99929800 0.97153100
vt 0.20742500 0.64767700
vt 0.16071700 0.92826200
vt 0.59270800 0.97180600
vt 0.80095800 0.43639700
vt 0.15319600 0.93142500
vt 0.77521400 0.97180600
vt 0.60269400 0.97180600
vt 0.59270800 0.98024200
vt 0.77539400 0.97373800
vt 0.15305000 0.93340500
vt 0.20787000 0.65070000
vt 0.16289400 0.92985400
vt 0.99929800 0.97153100
vt 0.80296000 0.43748600
vt 0.99669100 0.97094800
vt 0.77539400 0.97373800
vt 0.15305000 0.93340500
vt 0.99669100 0.97094800
vt 0.99929800 0.97153100
vt 0.15418500 0.93535300
vt 0.99940700 0.97094800
vt 0.77521400 0.97640100
vt 0.99929800 0.97153100
vt 0.15297800 0.93611300
vt 0.80565500 0.43861800
vt 0.15297800 0.93611300
vt 0.15297800 0.93611300
vt 0.15454200 0.93596700
vt 0.99929800 0.97153100
vt 0.15454200 0.93596700
vt 0.99929800 0.97153100
vt 0.15454200 0.93596700
vt 0.99929800 0.97153100
vt 0.99929800 0.97153100
vt 0.75224500 0.97180600
vt 0.15454200 0.93596700
vt 0.81139000 0.44010100
vt 0.15239900 0.94252600
vt 0.15550500 0.94095200
vt 0.15550500 0.94095200
vt 0.75224500 0.97717500
vt 0.99929800 0.97153100
vt 0.99929800 0.97153100
vt 0.16269200 0.93708900
vt 0.16081600 0.94385900
vt 0.99929800 0.97153100
vt 0.81596100 0.44020000
vt 0.15263300 0.94757900
vt 0.99929800 0.97153100
vt 0.16081600 0.94385900
vt 0.99929800 0.97153100
vt 0.99929800 0.97153100
vt 0.74634100 0.97758200
vt 0.15745300 0.94855500
vt 0.76859500 0.97673200
vt 0.15745300 0.94855500
vt 0.99929800 0.97153100
vt 0.15454200 0.93596700
vt 0.74634100 0.97180600
vt 0.99929800 0.97153100
vt 0.99929800 0.97153100
vt 0.74634100 0.97758200
vt 0.15745300 0.94855500
vt 0.15745300 0.94855500
vt 0.99929800 0.97153100
vt 0.76859500 0.97180600
vt 0.99929800 0.97153100
vt 0.15263900 0.94765600
vt 0.76859500 0.97317200
vt 0.99929800 0.97153100
vt 0.15397400 0.94790600
vt 0.15263900 0.94765600
vt 0.99937000 0.97153100
vt 0.81603100 0.44019700
vt 0.15263900 0.94765600
vt 0.60576900 0.97710400
vt 0.78088400 0.97180600
vt 0.63362700 0.97586000
vt 0.63362700 0.97586000
vt 0.63375700 0.97761900
vt 0.63375700 0.97761900
vt 0.48548700 0.09687400
vt 0.47413900 0.09743700
vt 0.78882300 0.45843700
vt 0.77139400 0.45616400
vt 0.46332200 0.10985700
vt 0.06660800 0.69888100
vt 0.07450900 0.71510200
vt 0.47495600 0.11992900
vt 0.05972100 0.70417700
vt 0.49040300 0.12870900
vt 0.48156800 0.14159900
vt 0.06080400 0.73478100
vt 0.06019900 0.72079400
vt 0.49439600 0.11606800
vt 0.04941300 0.71397700
vt 0.57846000 0.38001300
vt 0.55972100 0.37401800
vt 0.04347100 0.69527800
vt 0.57074800 0.40283100
vt 0.55852400 0.39469100
vt 0.54503800 0.38780600
vt 0.21980300 0.60948100
vt 0.05220800 0.68661400
vt 0.76414200 0.44002500
vt 0.52207000 0.12554700
vt 0.52207000 0.12554700
vt 0.92527000 0.79449700
vt 0.99929800 0.97153100
vt 0.99937800 0.97109400
vt 0.73843200 0.52706400
vt 0.92310100 0.79900000
vt 0.92310100 0.79900000
vt 0.92291700 0.79925200
vt 0.73656000 0.52438600
vt 0.73847000 0.52826400
vt 0.92306800 0.79787200
vt 0.92306800 0.79787200
vt 0.99929800 0.97153100
vt 0.92306800 0.79787200
vt 0.92302400 0.79784400
vt 0.73868300 0.52811000
f 1/1/1 8/8/8 3/3/3
f 3/3/3 5/5/5 1/1/1
f 6/6/6 1/1/1 5/5/5
f 6/6/6 10/10/10 1/1/1
f 2/2/2 11/11/11 9/9/9
f 9/9/9 11/11/11 14/14/14
f 14/14/14 11/11/11 18/18/18
f 16/16/16 13/13/13 7/7/7
f 12/12/12 17/17/17 19/19/19
f 19/19/19 20/20/20 42/42/42
f 22/22/22 20/20/20 19/19/19
f 22/22/22 19/19/19 17/17/17
f 14/14/14 18/18/18 33/33/33
f 18/18/18 29/29/29 40/40/40
f 36/36/36 29/29/29 18/18/18
f 42/42/42 30/30/30 19/19/19
f 31/31/31 36/36/36 18/18/18
f 40/40/40 33/33/33 18/18/18
f 56/56/56 47/47/47 44/44/44
f 43/43/43 49/49/49 51/51/51
f 43/43/43 51/51/51 32/32/32
f 54/54/54 42/42/42 20/20/20
f 56/56/56 44/44/44 53/53/53
f 57/57/57 59/59/59 55/55/55
f 52/52/52 57/57/57 55/55/55
f 55/55/55 59/59/59 62/62/62
f 40/40/40 61/61/61 33/33/33
f 61/61/61 58/58/58 33/33/33
f 57/57/57 64/64/64 59/59/59
f 68/68/68 59/59/59 64/64/64
f 60/60/60 65/65/65 35/35/35
f 70/70/70 67/67/67 70/70/70
f 63/63/63 72/72/72 66/66/66
f 63/63/63 72/72/72 66/66/66
f 73/73/73 75/75/75 65/65/65
f 75/75/75 35/35/35 65/65/65
f 34/34/34 74/74/74 77/77/77
f 74/74/74 82/82/82 76/76/76
f 76/76/76 77/77/77 74/74/74
f 81/81/81 75/75/75 92/92/92
f 80/80/80 82/82/82 74/74/74
f 86/86/86 75/75/75 73/73/73
f 75/75/75 86/86/86 90/90/90
f 75/75/75 90/90/90 92/92/92
f 57/57/57 94/94/94 93/93/93
f 57/57/57 93/93/93 64/64/64
f 93/93/93 91/91/91 64/64/64
f 78/78/78 93/93/93 94/94/94
f 102/102/102 94/94/94 57/57/57
f 94/94/94 95/95/95 109/109/109
f 94/94/94 97/97/97 95/95/95
f 78/78/78 94/94/94 106/106/106
f 100/100/100 97/97/97 94/94/94
f 94/94/94 102/102/102 100/100/100
f 109/109/109 106/106/106 94/94/94
f 108/108/108 113/113/113 117/117/117
f 109/109/109 95/95/95 111/111/111
f 117/117/117 104/104/104 108/108/108
f 116/116/116 79/79/79 129/129/129
f 115/115/115 82/82/82 80/80/80
f 117/117/117 121/121/121 104/104/104
f 114/114/114 130/130/130 120/120/120
f 122/122/122 82/82/82 115/115/115
f 117/117/117 126/126/126 123/123/123
f 133/133/133 126/126/126 117/117/117
f 117/117/117 113/113/113 141/141/141
f 136/136/136 133/133/133 117/117/117
f 140/140/140 136/136/136 117/117/117
f 146/146/146 140/140/140 117/117/117
f 141/141/141 146/146/146 117/117/117
f 139/139/139 144/144/144 98/98/98
f 138/138/138 147/147/147 138/138/138
f 147/147/147 142/142/142 142/142/142
f 144/144/144 143/143/143 96/96/96
f 144/144/144 96/96/96 98/98/98
f 145/145/145 148/148/148 150/150/150
f 145/145/145 150/150/150 151/151/151
f 153/153/153 134/134/134 139/139/139
f 138/138/138 137/137/137 138/138/138
f 139/139/139 149/149/149 98/98/98
f 98/98/98 153/153/153 139/139/139
f 152/152/152 101/101/101 157/157/157
f 100/100/100 154/154/154 97/97/97
f 98/98/98 153/153/153 139/139/139
f 155/155/155 152/152/152 157/157/157
f 152/152/152 155/155/155 132/132/132
f 152/152/152 132/132/132 135/135/135
f 153/153/153 134/134/134 139/139/139
f 165/165/165 162/162/162 158/158/158
f 158/158/158 162/162/162 125/125/125
f 125/125/125 166/166/166 158/158/158
f 164/164/164 156/156/156 99/99/99
f 167/167/167 155/155/155 157/157/157
f 169/169/169 168/168/168 126/126/126
f 167/167/167 170/170/170 155/155/155
f 133/133/133 169/169/169 126/126/126
f 164/164/164 172/172/172 171/171/171
f 164/164/164 171/171/171 175/175/175
f 175/175/175 161/161/161 164/164/164
f 99/99/99 172/172/172 164/164/164
f 173/173/173 177/177/177 179/179/179
f 175/175/175 171/171/171 176/176/176
f 160/160/160 174/174/174 181/181/181
f 178/178/178 181/181/181 174/174/174
f 182/182/182 188/188/188 193/193/193
f 182/182/182 190/190/190 188/188/188
f 182/182/182 189/189/189 190/190/190
f 180/180/180 189/189/189 182/182/182
f 181/181/181 195/195/195 160/160/160
f 196/196/196 192/192/192 187/187/187
f 159/159/159 194/194/194 197/197/197
f 200/200/200 200/200/200 199/199/199
f 200/200/200 200/200/200 199/199/199
f 159/159/159 197/197/197 201/201/201
f 198/198/198 184/184/184 202/202/202
f 200/200/200 200/200/200 200/200/200
f 200/200/200 200/200/200 200/200/200
f 200/200/200 200/200/200 183/183/183
f 200/200/200 200/200/200 200/200/200
f 186/186/186 159/159/159 201/201/201
f 163/163/163 185/185/185 191/191/191
f 191/191/191 210/210/210 203/203/203
f 203/203/203 163/163/163 191/191/191
f 190/190/190 214/214/214 211/211/211
f 189/189/189 214/214/214 190/190/190
f 215/215/215 214/214/214 189/189/189
f 221/221/221 209/209/209 212/212/212
f 213/213/213 213/213/213 213/213/213
f 213/213/213 213/213/213 213/213/213
f 213/213/213 213/213/213 213/213/213
f 213/213/213 213/213/213 222/222/222
f 213/213/213 213/213/213 213/213/213
f 213/213/213 218/218/218 213/213/213
f 214/214/214 215/215/215 219/219/219
f 222/222/222 213/213/213 213/213/213
f 213/213/213 213/213/213 213/213/213
f 213/213/213 213/213/213 213/213/213
f 213/213/213 213/213/213 222/222/222
f 220/220/220 223/223/223 207/207/207
f 224/224/224 215/215/215 225/225/225
f 225/225/225 228/228/228 224/224/224
f 213/213/213 213/213/213 218/218/218
f 224/224/224 228/228/228 208/208/208
f 217/217/217 217/217/217 216/216/216
f 228/228/228 225/225/225 230/230/230
f 205/205/205 226/226/226 229/229/229
f 204/204/204 206/206/206 227/227/227
f 229/229/229 231/231/231 234/234/234
f 225/225/225 233/233/233 230/230/230
f 237/237/237 229/229/229 234/234/234
f 237/237/237 205/205/205 229/229/229
f 234/234/234 238/238/238 237/237/237
f 238/238/238 239/239/239 237/237/237
f 204/204/204 236/236/236 241/241/241
f 238/238/238 242/242/242 239/239/239
f 243/243/243 244/244/244 240/240/240
f 240/240/240 244/244/244 246/246/246
f 249/249/249 240/240/240 246/246/246
f 204/204/204 241/241/241 248/248/248
f 126/126/126 163/163/163 247/247/247
f 247/247/247 163/163/163 203/203/203
f 123/123/123 126/126/126 247/247/247
f 245/245/245 124/124/124 248/248/248
f 246/246/246 250/250/250 122/122/122
f 250/250/250 246/246/246 244/244/244
f 250/250/250 251/251/251 76/76/76
f 244/244/244 251/251/251 250/250/250
f 122/122/122 250/250/250 82/82/82
f 250/250/250 76/76/76 82/82/82
f 76/76/76 251/251/251 252/252/252
f 251/251/251 253/253/253 252/252/252
f 251/251/251 254/254/254 253/253/253
f 244/244/244 254/254/254 251/251/251
f 243/243/243 254/254/254 244/244/244
f 256/256/256 254/254/254 243/243/243
f 256/256/256 253/253/253 254/254/254
f 258/258/258 257/257/257 255/255/255
f 255/255/255 257/257/257 265/265/265
f 258/258/258 255/255/255 259/259/259
f 263/263/263 259/259/259 255/255/255
f 243/243/243 261/261/261 256/256/256
f 256/256/256 264/264/264 253/253/253
f 266/266/266 265/265/265 257/257/257
f 264/264/264 267/267/267 268/268/268
f 253/253/253 264/264/264 268/268/268
f 253/253/253 268/268/268 252/252/252
f 268/268/268 77/77/77 252/252/252
f 77/77/77 268/268/268 271/271/271
f 271/271/271 268/268/268 267/267/267
f 270/270/270 266/266/266 3/3/3
f 15/15/15 77/77/77 271/271/271
f 14/14/14 269/269/269 9/9/9
f 4/4/4 9/9/9 269/269/269
f 266/266/266 257/257/257 5/5/5
f 5/5/5 3/3/3 266/266/266
f 272/272/272 262/262/262 242/242/242
f 260/260/260 262/262/262 272/272/272
f 276/276/276 273/273/273 272/272/272
f 273/273/273 275/275/275 272/272/272
f 275/275/275 260/260/260 272/272/272
f 276/276/276 272/272/272 238/238/238
f 272/272/272 242/242/242 238/238/238
f 238/238/238 234/234/234 276/276/276
f 278/278/278 273/273/273 276/276/276
f 282/282/282 278/278/278 276/276/276
f 276/276/276 235/235/235 282/282/282
f 281/281/281 286/286/286 284/284/284
f 284/284/284 280/280/280 281/281/281
f 286/286/286 281/281/281 292/292/292
f 295/295/295 282/282/282 235/235/235
f 289/289/289 282/282/282 295/295/295
f 281/281/281 287/287/287 292/292/292
f 299/299/299 301/301/301 317/317/317
f 303/303/303 298/298/298 314/314/314
f 297/297/297 297/297/297 315/315/315
f 313/313/313 304/304/304 295/295/295
f 296/296/296 307/307/307 310/310/310
f 317/317/317 309/309/309 299/299/299
f 308/308/308 289/289/289 295/295/295
f 313/313/313 295/295/295 235/235/235
f 308/308/308 316/316/316 289/289/289
f 294/294/294 288/288/288 318/318/318
f 301/301/301 290/290/290 317/317/317
f 314/314/314 305/305/305 323/323/323
f 320/320/320 314/314/314 323/323/323
f 314/314/314 320/320/320 303/303/303
f 327/327/327 327/327/327 326/326/326
f 305/305/305 312/312/312 323/323/323
f 312/312/312 329/329/329 323/323/323
f 323/323/323 340/340/340 320/320/320
f 328/328/328 331/331/331 322/322/322
f 333/333/333 333/333/333 325/325/325
f 336/336/336 341/341/341 324/324/324
f 345/345/345 343/343/343 338/338/338
f 339/339/339 342/342/342 349/349/349
f 345/345/345 338/338/338 335/335/335
f 321/321/321 337/337/337 286/286/286
f 347/347/347 286/286/286 337/337/337
f 346/346/346 352/352/352 356/356/356
f 351/351/351 348/348/348 354/354/354
f 355/355/355 349/349/349 342/342/342
f 358/358/358 286/286/286 347/347/347
f 363/363/363 357/357/357 365/365/365
f 361/361/361 360/360/360 361/361/361
f 177/177/177 358/358/358 370/370/370
f 177/177/177 286/286/286 358/358/358
f 357/357/357 350/350/350 353/353/353
f 353/353/353 365/365/365 357/357/357
f 369/369/369 372/372/372 359/359/359
f 372/372/372 371/371/371 359/359/359
f 376/376/376 376/376/376 375/375/375
f 376/376/376 375/375/375 376/376/376
f 365/365/365 373/373/373 391/391/391
f 365/365/365 377/377/377 373/373/373
f 377/377/377 378/378/378 373/373/373
f 376/376/376 376/376/376 375/375/375
f 381/381/381 372/372/372 389/389/389
f 371/371/371 372/372/372 381/381/381
f 374/374/374 368/368/368 368/368/368
f 372/372/372 383/383/383 389/389/389
f 376/376/376 376/376/376 376/376/376
f 376/376/376 376/376/376 376/376/376
f 376/376/376 393/393/393 376/376/376
f 386/386/386 392/392/392 395/395/395
f 384/384/384 376/376/376 376/376/376
f 376/376/376 376/376/376 376/376/376
f 376/376/376 376/376/376 376/376/376
f 376/376/376 376/376/376 376/376/376
f 376/376/376 393/393/393 393/393/393
f 393/393/393 393/393/393 393/393/393
f 393/393/393 393/393/393 393/393/393
f 393/393/393 393/393/393 398/398/398
f 394/394/394 398/398/398 385/385/385
f 393/393/393 398/398/398 393/393/393
f 397/397/397 396/396/396 215/215/215
f 397/397/397 215/215/215 387/387/387
f 393/393/393 393/393/393 393/393/393
f 396/396/396 378/378/378 215/215/215
f 366/366/366 390/390/390 390/390/390
f 362/362/362 362/362/362 362/362/362
f 362/362/362 362/362/362 362/362/362
f 362/362/362 362/362/362 364/364/364
f 362/362/362 362/362/362 362/362/362
f 362/362/362 362/362/362 362/362/362
f 362/362/362 362/362/362 362/362/362
f 362/362/362 362/362/362 367/367/367
f 366/366/366 390/390/390 390/390/390
f 364/364/364 362/362/362 362/362/362
f 215/215/215 189/189/189 387/387/387
f 387/387/387 189/189/189 180/180/180
f 387/387/387 180/180/180 404/404/404
f 381/381/381 389/389/389 401/401/401
f 399/399/399 388/388/388 402/402/402
f 403/403/403 400/400/400 400/400/400
f 408/408/408 405/405/405 404/404/404
f 408/408/408 404/404/404 180/180/180
f 382/382/382 406/406/406 406/406/406
f 407/407/407 177/177/177 380/380/380
f 407/407/407 179/179/179 177/177/177
f 379/379/379 400/400/400 400/400/400
f 177/177/177 370/370/370 380/380/380
f 225/225/225 378/378/378 377/377/377
f 378/378/378 225/225/225 215/215/215
f 225/225/225 377/377/377 233/233/233
f 377/377/377 345/345/345 233/233/233
f 345/345/345 377/377/377 365/365/365
f 345/345/345 365/365/365 343/343/343
f 353/353/353 343/343/343 365/365/365
f 344/344/344 334/334/334 235/235/235
f 232/232/232 344/344/344 235/235/235
f 235/235/235 334/334/334 332/332/332
f 332/332/332 330/330/330 313/313/313
f 332/332/332 313/313/313 235/235/235
f 320/320/320 409/409/409 303/303/303
f 291/291/291 410/410/410 319/319/319
f 292/292/292 321/321/321 286/286/286
f 413/413/413 302/302/302 411/411/411
f 293/293/293 414/414/414 412/412/412
f 414/414/414 293/293/293 300/300/300
f 306/306/306 306/306/306 311/311/311
f 306/306/306 311/311/311 306/306/306
f 176/176/176 415/415/415 285/285/285
f 415/415/415 416/416/416 285/285/285
f 417/417/417 284/284/284 286/286/286
f 418/418/418 284/284/284 417/417/417
f 422/422/422 419/419/419 416/416/416
f 416/416/416 415/415/415 422/422/422
f 421/421/421 423/423/423 420/420/420
f 421/421/421 427/427/427 423/423/423
f 424/424/424 425/425/425 422/422/422
f 428/428/428 424/424/424 422/422/422
f 421/421/421 426/426/426 427/427/427
f 415/415/415 428/428/428 422/422/422
f 171/171/171 428/428/428 415/415/415
f 172/172/172 428/428/428 171/171/171
f 21/21/21 424/424/424 428/428/428
f 172/172/172 21/21/21 428/428/428
f 426/426/426 7/7/7 427/427/427
f 429/429/429 423/423/423 427/427/427
f 427/427/427 7/7/7 429/429/429
f 5/5/5 430/430/430 6/6/6
f 423/423/423 429/429/429 432/432/432
f 433/433/433 431/431/431 430/430/430
f 5/5/5 433/433/433 430/430/430
f 434/434/434 433/433/433 274/274/274
f 274/274/274 433/433/433 258/258/258
f 433/433/433 5/5/5 257/257/257
f 433/433/433 257/257/257 258/258/258
f 434/434/434 431/431/431 433/433/433
f 434/434/434 435/435/435 431/431/431
f 274/274/274 435/435/435 434/434/434
f 436/436/436 275/275/275 273/273/273
f 278/278/278 436/436/436 273/273/273
f 277/277/277 431/431/431 435/435/435
f 432/432/432 279/279/279 437/437/437
f 432/432/432 437/437/437 423/423/423
f 438/438/438 280/280/280 284/284/284
f 437/437/437 283/283/283 420/420/420
f 423/423/423 437/437/437 420/420/420
f 23/23/23 16/16/16 426/426/426
f 24/24/24 425/425/425 424/424/424
f 16/16/16 7/7/7 426/426/426
f 21/21/21 24/24/24 424/424/424
f 176/176/176 171/171/171 415/415/415
f 274/274/274 258/258/258 259/259/259
f 76/76/76 252/252/252 77/77/77
f 222/222/222 222/222/222 213/213/213
f 213/213/213 213/213/213 218/218/218
f 103/103/103 439/439/439 172/172/172
f 439/439/439 21/21/21 172/172/172
f 172/172/172 99/99/99 103/103/103
f 20/20/20 441/441/441 54/54/54
f 57/57/57 440/440/440 102/102/102
f 57/57/57 52/52/52 440/440/440
f 149/149/149 143/143/143 96/96/96
f 149/149/149 96/96/96 98/98/98
f 142/142/142 110/110/110 142/142/142
f 143/143/143 112/112/112 96/96/96
f 112/112/112 96/96/96 143/143/143
f 118/118/118 127/127/127 105/105/105
f 128/128/128 119/119/119 119/119/119
f 106/106/106 131/131/131 78/78/78
f 105/105/105 118/118/118 127/127/127
f 107/107/107 119/119/119 119/119/119
f 63/63/63 88/88/88 83/83/83
f 63/63/63 88/88/88 83/83/83
f 87/87/87 442/442/442 89/89/89
f 71/71/71 443/443/443 85/85/85
f 63/63/63 83/83/83 72/72/72
f 69/69/69 84/84/84 69/69/69
f 63/63/63 83/83/83 72/72/72
f 34/34/34 77/77/77 15/15/15
f 445/445/445 50/50/50 46/46/46
f 447/447/447 50/50/50 445/445/445
f 50/50/50 46/46/46 445/445/445
f 447/447/447 50/50/50 445/445/445
f 39/39/39 51/51/51 447/447/447
f 39/39/39 32/32/32 51/51/51
f 27/27/27 38/38/38 447/447/447
f 27/27/27 38/38/38 447/447/447
f 445/445/445 27/27/27 447/447/447
f 445/445/445 27/27/27 447/447/447
f 28/28/28 37/37/37 28/28/28
f 448/448/448 444/444/444 449/449/449
f 26/26/26 448/448/448 449/449/449
f 46/46/46 450/450/450 445/445/445
f 453/453/453 48/48/48 454/454/454
f 445/445/445 46/46/46 450/450/450
f 452/452/452 41/41/41 41/41/41
f 444/444/444 455/455/455 449/449/449
f 444/444/444 455/455/455 449/449/449
f 446/446/446 25/25/25 451/451/451
f 444/444/444 449/449/449 40/40/40
f 41/41/41 41/41/41 45/45/45
f 41/41/41 41/41/41 41/41/41
f 29/29/29 444/444/444 40/40/40

