# Blender 4.1.1
# www.blender.org
mtllib link_body_28.mtl
o link_body_28
v 1.081436 -0.672777 -5.281109
v 1.026218 0.000000 -5.281109
v -2.592251 -1.288494 -5.039294
v 1.482784 -0.458036 -5.549844
v 0.357433 -1.072521 -4.512973
v -0.318279 -1.006881 -3.568543
v 0.242367 0.000001 -4.509163
v -0.252766 -1.467468 -3.475355
v -0.400921 0.000000 -3.568543
v -0.318279 1.006883 -3.568543
v -0.878925 0.000001 -2.495398
v -0.787102 -1.118786 -2.495398
v -1.075798 -1.187697 -1.330968
v -0.648018 -1.624968 -2.521066
v -0.940414 -1.632174 -1.424774
v -1.173279 0.000001 -1.330968
v -1.075798 1.187699 -1.330968
v -1.272671 0.000001 -0.120001
v -1.173279 1.210967 -0.120000
v -1.115173 1.440828 -0.120000
v -1.065327 1.227810 1.109169
v -1.173279 0.000001 1.090967
v -0.878925 0.000001 2.255397
v -1.066677 -1.228727 1.103693
v -0.797359 -0.993780 2.255397
v -1.127311 -1.431461 -0.091927
v -4.573909 -2.213332 -1.294699
v -4.365879 -2.197278 -2.046588
v -4.858287 -1.159648 -1.182400
v -0.340328 -0.737866 3.328596
v -4.752170 -1.971701 -0.037541
v -4.953472 -1.182368 -0.000001
v -4.749160 -1.604252 1.160774
v -4.858287 -1.159648 1.182396
v 1.136909 -0.189381 5.129367
v 0.280930 -0.470866 4.269045
v 0.242367 0.000001 4.269162
v 1.051910 0.205349 5.057118
v -0.400921 -0.000000 3.328542
v 0.280930 0.470867 4.269043
v -0.340328 0.737866 3.328597
v -0.797359 0.993780 2.255397
v -4.578815 2.209146 -1.261482
v -4.752170 1.971700 -0.037539
v -4.858287 1.159649 1.182397
v -4.953472 1.182369 -0.000001
v 0.719555 0.156445 5.316459
v -4.749206 1.601740 1.168163
v -4.858287 1.159649 -1.182398
v -4.576393 1.092363 -2.319353
v -4.953468 0.000001 -1.182398
v -5.050518 0.000001 -0.000001
v -4.666053 0.000001 -2.319353
v -4.576393 -1.092361 -2.319353
v -4.306907 -2.155355 -2.318633
v -4.118625 -0.983095 -3.367171
v -3.908043 -1.931706 -3.310024
v -4.199314 -0.000000 -3.367171
v -4.118625 0.983096 -3.367171
v -3.571197 0.000001 -4.285583
v -3.502578 0.836047 -4.285583
v -3.502578 -0.836046 -4.285583
v -2.782470 0.372089 -5.056486
v -2.751919 -0.656868 -5.039294
v -1.887356 -0.466718 -5.602165
v 0.670105 -0.056090 -5.915396
v -1.372135 0.000132 -5.802979
v -1.932648 -0.000000 -5.599340
v -1.888992 0.468731 -5.601137
v 0.730621 0.076085 -5.912197
v 1.482788 0.458033 -5.549848
v -2.720752 1.044545 -4.978314
v -3.351490 1.490488 -4.267791
v 0.384361 1.069693 -4.535848
v 1.074005 0.636121 -5.278055
v -3.910705 1.931858 -3.305800
v -0.250179 1.463183 -3.485610
v -4.306907 2.155353 -2.318633
v -0.648014 1.625352 -2.521422
v -4.366031 2.197279 -2.046045
v -0.787098 1.118789 -2.495398
v -0.947269 1.628638 -1.401600
v 1.972534 0.045007 -5.885675
v -3.346660 -1.502701 -4.267375
v -4.953468 0.000001 1.182397
v -4.666053 0.000001 2.319352
v -4.546268 -1.173764 2.359706
v -4.546508 1.172625 2.359826
v -4.129409 0.851704 3.367170
v -3.517841 0.574071 4.292529
v -4.199314 -0.000000 3.367170
v -3.595573 -0.079198 4.243429
v -4.129409 -0.851704 3.367170
v -3.523914 -0.576077 4.285582
v -2.780426 -0.327338 5.037735
v -1.989059 -0.135094 5.557984
v -2.769840 0.301299 5.061745
v -1.924831 0.081464 5.602169
v -2.330982 0.231242 5.331814
v -0.396145 0.039163 5.720506
v -1.630058 -0.000000 5.708672
v -0.394497 -0.039232 5.720185
v 1.488556 -0.076767 5.333467
v 1.495026 0.082465 5.338910
vn 0.6284 0.0025 0.7779
vn 0.6472 0.0531 0.7604
vn 0.5377 0.0419 0.8421
vn 0.7729 0.0921 0.6279
vn 0.1278 -0.9342 -0.3332
vn 0.0706 -0.8961 -0.4382
vn 0.1138 -0.8685 -0.4824
vn 0.0637 -0.6555 -0.7525
vn 0.8731 0.0021 0.4876
vn 0.8576 0.1413 0.4945
vn 0.8567 0.2187 0.4671
vn 0.7695 0.0020 0.6387
vn 0.1233 -0.9655 -0.2293
vn 0.9325 0.1554 0.3260
vn 0.8575 -0.1430 0.4942
vn 0.9454 -0.0000 0.3258
vn 0.9731 0.1673 0.1585
vn 0.9495 0.2514 0.1877
vn 0.9866 -0.0000 0.1633
vn 0.9139 0.2343 0.3316
vn 0.9727 -0.1669 0.1612
vn 0.9865 -0.1640 -0.0003
vn 1.0000 0.0053 -0.0004
vn 0.9688 -0.2476 0.0095
vn 0.9831 -0.0935 -0.1571
vn 0.9866 0.0004 -0.1632
vn 0.9847 0.0878 -0.1504
vn 0.9456 -0.0000 -0.3253
vn 0.9456 0.0776 -0.3158
vn 0.1643 -0.9735 0.1593
vn 0.1609 -0.9734 0.1632
vn 0.1471 -0.9823 0.1164
vn 0.9927 0.1206 0.0066
vn 0.1643 -0.9731 0.1617
vn 0.1458 -0.9878 -0.0552
vn 0.1468 -0.9886 -0.0325
vn -0.9730 -0.1622 -0.1640
vn -0.9388 -0.2391 -0.2479
vn -0.9526 -0.2367 -0.1910
vn -0.9687 -0.2477 -0.0183
vn 0.1605 -0.9826 0.0938
vn 0.1270 -0.9731 0.1920
vn 0.0938 -0.9691 0.2281
vn -0.9727 -0.1615 0.1669
vn -0.9862 -0.1654 0.0012
vn -0.9595 -0.2425 0.1435
vn 0.0199 -0.9540 0.2991
vn 0.0519 -0.9307 0.3620
vn 0.1197 -0.9726 0.1991
vn 0.7717 0.0634 -0.6329
vn 0.7691 0.0011 -0.6392
vn 0.6073 -0.0100 -0.7944
vn 0.8759 0.0719 -0.4771
vn 0.6405 -0.0093 -0.7679
vn 0.7740 -0.0635 -0.6300
vn 0.8741 -0.0000 -0.4857
vn 0.8759 -0.0719 -0.4771
vn 0.1466 0.9820 0.1188
vn 0.1270 0.9731 0.1920
vn 0.1611 0.9734 0.1632
vn 0.9457 -0.0776 -0.3158
vn 0.0927 0.9690 0.2290
vn 0.0639 0.9632 0.2611
vn -0.9728 0.1608 0.1665
vn -0.9596 0.2414 0.1444
vn -0.9687 0.2476 -0.0182
vn -0.9862 0.1654 0.0012
vn -0.9733 0.1616 -0.1632
vn -0.9528 0.2437 -0.1810
vn 0.0739 0.9584 0.2757
vn 0.0623 0.9311 0.3593
vn 0.0173 0.9540 0.2992
vn -0.9866 -0.0000 -0.1633
vn -0.9321 0.1543 -0.3278
vn -1.0000 -0.0000 -0.0000
vn -0.9454 -0.0000 -0.3258
vn -0.9321 -0.1552 -0.3271
vn -0.9174 -0.2346 -0.3214
vn -0.8521 -0.2188 -0.4754
vn -0.8605 -0.1441 -0.4887
vn -0.8741 -0.0000 -0.4857
vn -0.7698 -0.0024 -0.6383
vn -0.8606 0.1438 -0.4886
vn -0.7544 0.1305 -0.6433
vn -0.6184 0.0601 -0.7836
vn -0.7566 -0.1269 -0.6415
vn -0.6170 -0.0949 -0.7812
vn -0.6190 -0.1579 -0.7693
vn -0.2758 -0.2924 -0.9157
vn 0.0023 -0.3103 -0.9506
vn -0.1314 0.0003 -0.9913
vn -0.4500 -0.0060 -0.8930
vn -0.2495 0.4060 -0.8791
vn 0.0312 0.7045 -0.7090
vn 0.0039 0.3634 -0.9316
vn 0.0524 0.8489 -0.5260
vn -0.6384 0.1464 -0.7556
vn -0.7522 0.1893 -0.6312
vn 0.0731 0.9094 -0.4095
vn 0.0712 0.9036 -0.4224
vn 0.0560 0.8744 -0.4820
vn 0.5394 -0.0444 0.8409
vn 0.6418 -0.0576 0.7647
vn 0.7682 -0.1020 0.6320
vn 0.8551 -0.2159 0.4714
vn 0.1063 0.9659 -0.2360
vn 0.1165 0.9650 -0.2349
vn 0.1474 0.9886 -0.0292
vn 0.1278 0.9821 -0.1382
vn 0.9141 -0.2340 0.3312
vn 0.9326 -0.1552 0.3258
vn 0.1455 0.9878 -0.0561
vn 0.9510 -0.2497 0.1825
vn 0.1622 0.9732 0.1628
vn 0.1607 0.9826 0.0937
vn -0.9154 0.2365 -0.3258
vn -0.9016 0.3531 -0.2499
vn -0.8528 0.2188 -0.4741
vn 0.0325 0.6535 -0.7563
vn 0.5384 -0.0015 0.8427
vn 0.0217 0.0143 -0.9997
vn 0.0646 -0.5968 -0.7998
vn -0.7476 -0.1944 -0.6350
vn 0.0942 -0.9707 -0.2212
vn -0.3361 -0.7701 -0.5422
vn 0.1272 -0.9822 -0.1383
vn -0.9861 -0.0000 0.1659
vn -0.9438 -0.1006 0.3149
vn -0.9438 0.1002 0.3149
vn -0.9464 -0.0001 0.3230
vn -0.8770 0.0732 0.4748
vn -0.1566 0.9205 0.3581
vn -0.1032 0.9322 0.3470
vn -0.0097 0.9479 0.3184
vn -0.7731 0.0472 0.6325
vn -0.8739 0.0005 0.4861
vn -0.7734 -0.0093 0.6339
vn -0.8775 -0.0737 0.4740
vn -0.1029 -0.9323 0.3469
vn -0.0046 -0.9493 0.3142
vn -0.7699 -0.0571 0.6356
vn -0.1486 -0.9225 0.3564
vn 0.0342 -0.9543 0.2969
vn -0.6387 -0.0223 0.7691
vn -0.6341 -0.0041 0.7732
vn 0.0200 -0.9330 0.3594
vn -0.4899 -0.0353 0.8711
vn -0.1296 0.8881 0.4409
vn 0.0116 0.9399 0.3412
vn -0.4478 -0.0432 0.8931
vn -0.4893 0.2038 0.8480
vn 0.1575 0.9449 0.2869
vn -0.0216 0.8337 0.5518
vn 0.0231 0.9304 0.3658
vn -0.3589 -0.0832 0.9297
vn -0.0291 -0.7088 0.7048
vn 0.0258 -0.9426 0.3328
vn 0.0951 -0.0021 0.9955
vn -0.0095 -0.0043 0.9999
vn 0.0979 -0.0031 0.9952
vn 0.2001 -0.0405 0.9789
vn 0.0632 -0.9159 0.3965
vn 0.2002 -0.0416 0.9789
vn 0.5279 -0.0148 -0.8492
vn 0.5380 0.0070 -0.8429
vn 0.0795 0.9366 0.3413
vn 0.1633 0.9734 0.1609
vt 0.329584 0.978148
vt 0.332821 0.980029
vt 0.330618 0.981962
vt 0.336870 0.976569
vt 0.819243 0.033781
vt 0.822222 0.014247
vt 0.823414 0.038496
vt 0.824859 0.041111
vt 0.929726 0.080654
vt 0.925301 0.086052
vt 0.924950 0.080611
vt 0.924259 0.078168
vt 0.930095 0.086427
vt 0.331785 0.973407
vt 0.813578 0.029821
vt 0.919288 0.079813
vt 0.925553 0.091646
vt 0.919678 0.085860
vt 0.913028 0.079438
vt 0.913330 0.077105
vt 0.913442 0.085857
vt 0.919194 0.077161
vt 0.913739 0.092454
vt 0.907136 0.092769
vt 0.906833 0.086043
vt 0.907170 0.094082
vt 0.900308 0.093242
vt 0.900105 0.086411
vt 0.899603 0.079778
vt 0.893516 0.086947
vt 0.893170 0.081576
vt 0.788199 0.024362
vt 0.781780 0.026096
vt 0.801684 0.001304
vt 0.906163 0.078338
vt 0.794854 0.024006
vt 0.808329 0.027233
vt 0.805841 0.002681
vt 0.910408 0.164404
vt 0.914679 0.169080
vt 0.910439 0.169080
vt 0.903629 0.167291
vt 0.802265 0.025293
vt 0.775789 0.029071
vt 0.794684 0.000065
vt 0.897460 0.162472
vt 0.903867 0.163796
vt 0.897327 0.164451
vt 0.787985 0.000000
vt 0.765710 0.038752
vt 0.770530 0.033134
vt 0.591765 0.979641
vt 0.589196 0.980151
vt 0.589735 0.974082
vt 0.881592 0.085890
vt 0.887063 0.083643
vt 0.881755 0.088435
vt 0.587609 0.974862
vt 0.586576 0.980151
vt 0.887320 0.087630
vt 0.887505 0.091729
vt 0.881874 0.091051
vt 0.483181 0.790350
vt 0.512118 0.764639
vt 0.508858 0.770632
vt 0.893765 0.092467
vt 0.482449 0.783527
vt 0.516436 0.759379
vt 0.899079 0.150775
vt 0.899524 0.148278
vt 0.906382 0.147405
vt 0.905518 0.151871
vt 0.912027 0.152708
vt 0.913342 0.146763
vt 0.521699 0.754962
vt 0.519691 0.753516
vt 0.483069 0.776777
vt 0.911166 0.158800
vt 0.918356 0.153253
vt 0.904640 0.158082
vt 0.917545 0.158992
vt 0.916831 0.164270
vt 0.916229 0.168940
vt 0.922027 0.167599
vt 0.922889 0.163402
vt 0.923532 0.158651
vt 0.928897 0.157791
vt 0.924261 0.153487
vt 0.929517 0.153399
vt 0.418393 0.964139
vt 0.413991 0.962638
vt 0.417503 0.958587
vt 0.928350 0.161831
vt 0.423097 0.959690
vt 0.423003 0.964753
vt 0.426744 0.959456
vt 0.423325 0.953872
vt 0.424959 0.936816
vt 0.421569 0.949953
vt 0.420741 0.953574
vt 0.418280 0.952699
vt 0.423459 0.930898
vt 0.424338 0.936257
vt 0.497238 0.810670
vt 0.524681 0.813708
vt 0.503558 0.813994
vt 0.413980 0.957335
vt 0.410694 0.960832
vt 0.492411 0.806833
vt 0.516597 0.808226
vt 0.521772 0.812241
vt 0.326004 0.979855
vt 0.326248 0.976974
vt 0.326004 0.971806
vt 0.930477 0.092412
vt 0.925192 0.094227
vt 0.488023 0.801603
vt 0.511820 0.802498
vt 0.484591 0.794688
vt 0.485058 0.796188
vt 0.920169 0.094972
vt 0.919958 0.092075
vt 0.508960 0.797197
vt 0.914183 0.094972
vt 0.506208 0.783870
vt 0.507001 0.791001
vt 0.919238 0.147201
vt 0.917743 0.146918
vt 0.924699 0.148119
vt 0.929957 0.149697
vt 0.426393 0.928262
vt 0.326716 0.983767
vt 0.428396 0.932057
vt 0.426835 0.964587
vt 0.422958 0.968900
vt 0.812781 0.005660
vt 0.817996 0.009288
vt 0.428396 0.968736
vt 0.807338 0.003063
vt 0.898219 0.156868
vt 0.891172 0.160781
vt 0.892809 0.148949
vt 0.892148 0.155202
vt 0.887293 0.148675
vt 0.485050 0.770093
vt 0.488185 0.764451
vt 0.492463 0.759271
vt 0.882360 0.147751
vt 0.886661 0.153149
vt 0.882131 0.151285
vt 0.886104 0.157265
vt 0.775631 0.003941
vt 0.770492 0.007898
vt 0.881592 0.153572
vt 0.781269 0.001248
vt 0.766278 0.012776
vt 0.282508 0.972174
vt 0.285066 0.973296
vt 0.282580 0.977752
vt 0.279185 0.976984
vt 0.763356 0.017986
vt 0.280309 0.982595
vt 0.278874 0.971806
vt 0.497597 0.754957
vt 0.500455 0.753448
vt 0.279045 0.982721
vt 0.278874 0.979905
vt 0.503256 0.751920
vt 0.505245 0.751314
vt 0.512896 0.751256
vt 0.279018 0.984729
vt 0.762494 0.020338
vt 0.762426 0.028551
vt 0.967010 0.957016
vt 0.967059 0.948814
vt 0.967444 0.957018
vt 0.967010 0.969594
vt 0.764556 0.041061
vt 0.967890 0.969533
vt 0.588904 0.971806
vt 0.588023 0.971849
vt 0.524681 0.753376
vt 0.506828 0.777024
s 1
usemtl pleuraldeles_skin
f 2/1/1 1/2/2 4/3/3
f 5/4/4 1/2/2 2/1/1
f 5/5/5 3/6/6 1/7/7
f 1/7/7 3/6/6 4/8/8
f 5/9/4 9/10/9 6/11/10
f 6/11/10 8/12/11 5/9/4
f 5/9/4 7/13/12 9/10/9
f 5/4/4 2/1/1 7/14/12
f 3/6/6 5/5/5 8/15/13
f 12/16/14 6/11/10 9/10/9
f 7/13/12 10/17/15 9/10/9
f 11/18/16 9/10/9 10/17/15
f 12/16/14 9/10/9 11/18/16
f 12/16/14 13/19/17 15/20/18
f 12/16/14 16/21/19 13/19/17
f 6/11/10 12/16/14 8/12/11
f 12/16/14 11/18/16 16/21/19
f 14/22/20 8/12/11 12/16/14
f 15/20/18 14/22/20 12/16/14
f 16/21/19 17/23/21 19/24/22
f 11/18/16 17/23/21 16/21/19
f 13/19/17 16/21/19 18/25/23
f 16/21/19 19/24/22 18/25/23
f 20/26/24 19/24/22 17/23/21
f 21/27/25 19/24/22 20/26/24
f 22/28/26 18/25/23 19/24/22
f 22/28/26 19/24/22 21/27/25
f 24/29/27 18/25/23 22/28/26
f 23/30/28 22/28/26 21/27/25
f 23/30/28 24/29/27 22/28/26
f 25/31/29 24/29/27 23/30/28
f 24/32/30 25/33/31 27/34/32
f 24/29/27 26/35/33 18/25/23
f 27/34/32 26/36/34 24/32/30
f 14/37/35 27/34/32 28/38/36
f 29/39/37 28/40/38 27/41/39
f 29/39/37 27/41/39 31/42/40
f 27/34/32 14/37/35 15/43/41
f 25/33/31 30/44/42 27/34/32
f 30/44/42 31/45/43 27/34/32
f 27/34/32 15/43/41 26/36/34
f 34/46/44 32/47/45 31/42/40
f 29/39/37 31/42/40 32/47/45
f 33/48/46 34/46/44 31/42/40
f 33/49/47 31/45/43 35/50/48
f 35/50/48 31/45/43 36/51/49
f 30/44/42 36/51/49 31/45/43
f 36/52/50 37/53/51 35/54/52
f 36/55/50 30/56/53 37/57/51
f 37/53/51 38/58/54 35/54/52
f 37/53/51 40/59/55 38/58/54
f 37/57/51 39/60/56 41/61/57
f 39/60/56 37/57/51 30/56/53
f 41/61/57 40/62/55 37/57/51
f 43/63/58 41/64/59 42/65/60
f 23/30/28 42/66/61 41/61/57
f 44/67/62 40/68/63 41/64/59
f 44/67/62 41/64/59 43/63/58
f 39/60/56 23/30/28 41/61/57
f 45/69/64 48/70/65 44/71/66
f 46/72/67 45/69/64 44/71/66
f 49/73/68 46/72/67 44/71/66
f 49/73/68 44/71/66 43/74/69
f 38/75/70 44/67/62 47/76/71
f 44/67/62 38/75/70 40/68/63
f 48/77/72 47/76/71 44/67/62
f 51/78/73 49/73/68 50/79/74
f 50/79/74 49/73/68 43/74/69
f 46/72/67 49/73/68 51/78/73
f 52/80/75 51/78/73 29/39/37
f 46/72/67 51/78/73 52/80/75
f 51/78/73 50/79/74 53/81/76
f 54/82/77 51/78/73 53/81/76
f 54/82/77 29/39/37 51/78/73
f 29/39/37 54/82/77 55/83/78
f 54/82/77 57/84/79 55/83/78
f 54/82/77 56/85/80 57/84/79
f 54/82/77 58/86/81 56/85/80
f 54/82/77 53/81/76 58/86/81
f 60/87/82 56/85/80 58/86/81
f 59/88/83 58/86/81 53/81/76
f 59/88/83 60/87/82 58/86/81
f 59/88/83 61/89/84 60/87/82
f 60/90/82 61/91/84 63/92/85
f 60/87/82 62/93/86 56/85/80
f 60/90/82 64/94/87 62/95/86
f 60/90/82 63/92/85 64/94/87
f 62/95/86 64/94/87 3/96/88
f 64/94/87 65/97/89 3/96/88
f 63/92/85 65/97/89 64/94/87
f 3/96/6 65/97/89 66/98/90
f 65/97/89 67/99/91 66/98/90
f 65/97/89 68/100/92 67/99/91
f 63/92/85 68/100/92 65/97/89
f 63/92/85 69/101/93 68/100/92
f 67/99/91 68/100/92 69/101/93
f 69/101/93 71/102/94 70/103/95
f 67/99/91 69/101/93 70/103/95
f 72/104/96 71/105/94 69/106/93
f 63/92/85 72/107/97 69/101/93
f 73/108/98 72/107/97 63/92/85
f 73/109/99 74/110/100 72/104/96
f 75/111/101 71/105/94 72/104/96
f 72/104/96 74/110/100 75/111/101
f 71/112/102 75/113/103 2/1/1
f 75/113/103 74/114/104 7/14/12
f 7/14/12 2/1/1 75/113/103
f 7/13/12 74/115/104 10/17/15
f 74/115/104 77/116/105 10/17/15
f 76/117/106 77/118/107 74/110/100
f 76/117/106 74/110/100 73/109/99
f 80/119/108 77/118/107 78/120/109
f 78/120/109 77/118/107 76/117/106
f 77/116/105 79/121/110 81/122/111
f 79/123/112 77/118/107 80/119/108
f 81/122/111 10/17/15 77/116/105
f 17/23/21 81/122/111 82/124/113
f 11/18/16 81/122/111 17/23/21
f 11/18/16 10/17/15 81/122/111
f 81/122/111 79/121/110 82/124/113
f 20/125/114 82/126/115 43/63/58
f 20/26/24 17/23/21 82/124/113
f 43/63/58 82/126/115 79/123/112
f 78/127/116 43/74/69 80/128/117
f 43/63/58 79/123/112 80/119/108
f 50/79/74 78/127/116 76/129/118
f 50/79/74 43/74/69 78/127/116
f 59/88/83 76/129/118 73/130/98
f 50/79/74 76/129/118 59/88/83
f 73/108/98 63/92/85 61/91/84
f 59/88/83 73/130/98 61/89/84
f 70/103/95 71/102/94 83/131/119
f 2/1/1 83/132/120 71/112/102
f 70/103/95 83/131/121 66/98/90
f 66/98/90 83/131/122 4/133/8
f 83/132/120 2/1/1 4/3/3
f 66/98/90 67/99/91 70/103/95
f 66/98/90 4/133/8 3/96/6
f 84/134/123 62/95/86 3/96/88
f 84/134/123 56/135/80 62/95/86
f 57/136/124 84/137/125 3/6/6
f 84/134/123 57/138/79 56/135/80
f 59/88/83 53/81/76 50/79/74
f 55/139/126 57/136/124 8/15/13
f 57/136/124 3/6/6 8/15/13
f 55/83/78 28/40/38 29/39/37
f 28/38/36 55/139/126 8/15/13
f 85/140/127 46/72/67 52/80/75
f 52/80/75 32/47/45 34/46/44
f 52/80/75 29/39/37 32/47/45
f 52/80/75 34/46/44 85/140/127
f 85/140/127 34/46/44 87/141/128
f 88/142/129 85/140/127 86/143/130
f 85/140/127 87/141/128 86/143/130
f 88/142/129 45/69/64 85/140/127
f 85/140/127 45/69/64 46/72/67
f 89/144/131 88/142/129 86/143/130
f 88/145/132 89/146/133 48/77/72
f 88/142/129 48/70/65 45/69/64
f 89/146/133 90/147/134 48/77/72
f 90/148/135 89/144/131 91/149/136
f 89/144/131 86/143/130 91/149/136
f 90/148/135 91/149/136 92/150/137
f 92/150/137 91/149/136 93/151/138
f 93/151/138 91/149/136 86/143/130
f 93/152/139 33/49/47 94/153/140
f 92/150/137 93/151/138 94/154/141
f 93/152/139 87/155/142 33/49/47
f 93/151/138 86/143/130 87/141/128
f 94/153/140 33/49/47 95/156/143
f 92/157/137 94/158/141 95/159/144
f 92/157/137 95/159/144 97/160/145
f 95/156/143 33/49/47 96/161/146
f 97/160/145 95/159/144 96/162/147
f 92/157/137 97/160/145 90/163/135
f 90/147/134 97/164/148 99/165/149
f 96/162/147 98/166/150 97/160/145
f 97/160/145 98/166/150 99/167/151
f 99/165/149 98/168/152 101/169/153
f 48/77/72 90/147/134 99/165/149
f 99/165/149 101/169/153 100/170/154
f 47/76/71 99/165/149 100/170/154
f 99/165/149 47/76/71 48/77/72
f 98/166/150 96/162/147 101/171/155
f 101/172/156 96/161/146 102/173/157
f 100/174/158 101/175/159 102/176/160
f 100/174/158 102/176/160 104/177/161
f 102/173/157 35/50/48 103/178/162
f 96/161/146 35/50/48 102/173/157
f 102/176/160 103/179/163 104/177/161
f 103/180/164 38/58/54 104/181/165
f 47/76/71 104/182/166 38/75/70
f 104/182/166 47/76/71 100/170/154
f 103/180/164 35/54/52 38/58/54
f 96/161/146 33/49/47 35/50/48
f 87/141/128 34/46/44 33/48/46
f 43/63/58 42/65/60 21/183/167
f 43/63/58 21/183/167 20/125/114
f 21/27/25 42/66/61 23/30/28
f 23/30/28 39/60/56 30/56/53
f 25/31/29 23/30/28 30/56/53
f 28/38/36 8/15/13 14/37/35
f 13/19/17 26/35/33 15/20/18
f 13/19/17 18/25/23 26/35/33
