# ('FARMS composite mesh',)
mtllib link_body_01_composite.mtl
usemtl link_body_01_composite
v -1.71181000 -7.41908900 1.75663300
v -1.71181000 -7.41908900 1.75663300
v -3.59726200 -6.58661700 0.66130200
v 0.56742800 -6.12894900 3.49982300
v 0.56742800 -6.12894900 3.49982300
v 0.14121600 -7.64548500 1.12713500
v 0.14121600 -7.64548500 1.12713500
v 0.14121600 -7.64548500 1.12713500
v -1.51732200 -4.98926800 5.21438800
v -1.51732200 -4.98926800 5.21438800
v -2.94567400 -5.85436100 3.95861900
v -2.94567400 -5.85436100 3.95861900
v -2.19077600 -7.30619600 0.70446200
v -2.19077600 -7.30619600 0.70446200
v -2.75075400 -7.09375700 0.16184800
v -2.75075400 -7.09375700 0.16184800
v -2.75075400 -7.09375700 0.16184800
v -3.18872300 -5.39317100 0.08983600
v -3.18872300 -5.39317100 0.08983600
v -3.82340900 -6.19360100 -1.55217600
v -3.82340900 -6.19360100 -1.55217600
v -5.07099000 -4.99400100 -0.00000500
v -5.07099000 -4.99400100 -0.00000500
v -5.25446500 -4.21311800 -2.15647600
v -5.25446500 -4.21311800 -2.15647600
v -4.02060200 -5.31817600 -3.10638800
v -4.02060200 -5.31817600 -3.10638800
v -3.78637900 -5.47412200 -1.17647400
v -3.07765800 -3.22006600 -0.79096800
v -3.07765800 -3.22006600 -0.79096800
v -3.07765800 -3.22006600 -0.79096800
v -2.10570100 -4.78018700 1.11372400
v -2.10570100 -4.78018700 1.11372400
v -2.09115900 -2.78835700 -0.03907300
v -2.09115900 -2.78835700 -0.03907300
v -2.09115900 -2.78835700 -0.03907300
v -3.38593500 -2.99980400 -2.74329200
v -3.38593500 -2.99980400 -2.74329200
v -2.13953300 -1.89183700 -1.60968500
v -2.13953300 -1.89183700 -1.60968500
v -2.13953300 -1.89183700 -1.60968500
v -2.13953300 -1.89183700 -1.60968500
v -1.72385300 -1.48275900 -3.41709700
v -1.72385300 -1.48275900 -3.41709700
v -2.21117700 -0.00000000 -2.38575700
v -1.15081800 1.64245100 -4.64302200
v -1.15081800 1.64245100 -4.64302200
v -2.46049000 -0.00000000 0.93550700
v -2.09115900 2.78835800 -0.03907200
v -2.09115900 2.78835800 -0.03907200
v -2.09115900 2.78835800 -0.03907200
v -2.13953300 1.89183700 -1.60968500
v -2.13953300 1.89183700 -1.60968500
v -1.72385400 1.48275800 -3.41709600
v -1.72385400 1.48275800 -3.41709600
v -1.02764500 -1.69370900 -4.76046500
v -1.02764500 -1.69370900 -4.76046500
v -1.02764500 -1.69370900 -4.76046500
v -1.54113700 -2.82547900 -6.03406000
v -1.54113700 -2.82547900 -6.03406000
v -1.54113700 -2.82547900 -6.03406000
v -3.01859900 -2.86852200 -4.38705600
v -3.01859900 -2.86852200 -4.38705600
v -3.01859900 -2.86852200 -4.38705600
v -0.11592500 -0.96579600 -6.18961200
v -0.11592500 -0.96579600 -6.18961200
v -0.11592500 -0.96579600 -6.18961200
v 0.08229100 -2.47298900 -5.95386700
v 0.08229100 -2.47298900 -5.95386700
v 0.08229100 -2.47298900 -5.95386700
v -0.04758100 1.44083900 -6.14863200
v -0.04758100 1.44083900 -6.14863200
v -3.22751500 -3.34335600 -6.00029900
v -3.22751500 -3.34335600 -6.00029900
v -3.93727400 0.39263200 -6.26348000
v -3.93727400 0.39263200 -6.26348000
v -4.55642900 1.05091000 -5.60422800
v -4.55642900 1.05091000 -5.60422800
v -3.22751500 3.34335400 -6.00030000
v -3.22751500 3.34335400 -6.00030000
v -3.22751500 3.34335400 -6.00030000
v -3.97773600 -1.50660000 -6.08211800
v -3.97773600 -1.50660000 -6.08211800
v -5.39608200 -0.69493000 -4.41813400
v -5.39608200 -0.69493000 -4.41813400
v -4.81588600 -3.13263800 -4.34540100
v -4.81588600 -3.13263800 -4.34540100
v -4.81588600 -3.13263800 -4.34540100
v -3.57145900 -4.62567100 -4.63045900
v -3.57145900 -4.62567100 -4.63045900
v -3.57145900 -4.62567100 -4.63045900
v -6.00874900 -2.25141100 -2.36198100
v -6.31254700 -2.23468600 0.71480200
v -6.29837600 -0.00000000 -2.29319800
v -5.06178500 2.51600600 -4.43894100
v -6.00874900 2.25141000 -2.36198100
v -6.54679600 0.55881800 0.55637700
v -6.16814600 2.16653900 1.60588400
v -5.83069800 3.62979000 0.69841500
v -6.05353700 0.76199400 2.97477700
v -4.91363400 -0.68270200 5.27417400
v -4.91363400 -0.68270200 5.27417400
v -4.91363400 -0.68270200 5.27417400
v -5.18890200 2.00874800 4.38038000
v -5.18890200 2.00874800 4.38038000
v -5.29621300 3.54175300 3.02400400
v -5.51804500 -2.02206400 3.81710600
v -5.51804500 -2.02206400 3.81710600
v -3.18379900 -3.98991900 5.63843300
v -3.18379900 -3.98991900 5.63843300
v -4.16632700 -4.17367200 4.41772700
v -4.16632700 -4.17367200 4.41772700
v -4.16632700 -4.17367200 4.41772700
v -5.39390400 -3.84851600 2.42208600
v -5.39390400 -3.84851600 2.42208600
v -4.36421800 -5.43335600 2.29070100
v -2.15172900 -3.52710400 5.96809800
v -4.70613700 0.79971900 5.43161600
v -4.70613700 0.79971900 5.43161600
v -4.70613700 0.79971900 5.43161600
v -3.18379900 3.98991700 5.63843300
v -3.18379900 3.98991700 5.63843300
v -2.15172900 3.52710300 5.96809800
v -0.13845400 -0.61803000 6.38863200
v -0.13845400 -0.61803000 6.38863200
v -1.01416400 -2.08598000 4.89267400
v -0.00939200 1.86032000 6.29559700
v -0.00939200 1.86032000 6.29559700
v 0.10948200 -2.38698600 6.20928100
v 0.10948200 -2.38698600 6.20928100
v -1.24355300 0.63037400 4.88676700
v -0.59539000 3.41906200 4.80964800
v -1.93606900 -0.77418000 3.37700800
v -2.05099000 1.78797100 2.53885000
v -1.45872100 3.74825400 2.68167600
v -1.24736000 4.56490900 1.42996000
v -1.24736000 4.56490900 1.42996000
v -1.24736000 4.56490900 1.42996000
v 0.46422600 4.50163700 5.38267800
v 0.46422600 4.50163700 5.38267800
v 0.46422600 4.50163700 5.38267800
v 0.56742800 6.12894600 3.49982500
v 0.56742800 6.12894600 3.49982500
v 0.56742800 6.12894600 3.49982500
v 0.07109100 6.37974800 1.59272400
v 0.07109100 6.37974800 1.59272400
v 0.07109100 6.37974800 1.59272400
v -1.71181100 7.41908900 1.75663200
v -1.71181100 7.41908900 1.75663200
v -1.71181100 7.41908900 1.75663200
v -1.51732200 4.98926800 5.21438800
v -1.51732200 4.98926800 5.21438800
v 0.89544300 7.02641700 1.89094300
v 0.89544300 7.02641700 1.89094300
v 0.14121600 7.64548600 1.12713500
v 0.14121600 7.64548600 1.12713500
v 0.14121600 7.64548600 1.12713500
v -2.19077200 7.30619500 0.70446300
v -2.19077200 7.30619500 0.70446300
v -0.94989000 6.66974200 1.48513300
v 1.49974000 7.55700200 0.53837000
v 1.49974000 7.55700200 0.53837000
v 1.49974000 7.55700200 0.53837000
v -2.10570100 4.78018700 1.11372400
v -2.10570100 4.78018700 1.11372400
v -3.18872300 5.39317100 0.08983700
v -3.18872300 5.39317100 0.08983700
v -2.67156900 2.94701200 -0.49724900
v -2.67156900 2.94701200 -0.49724900
v -2.67156900 2.94701200 -0.49724900
v -3.46257300 3.78615500 -1.22447800
v -3.46257300 3.78615500 -1.22447800
v -3.38593600 2.99980300 -2.74329200
v -3.38593600 2.99980300 -2.74329200
v -3.01859900 2.86852000 -4.38705500
v -3.01859900 2.86852000 -4.38705500
v -4.02060200 5.31817600 -3.10638900
v -4.02060200 5.31817600 -3.10638900
v -3.78637900 5.47412400 -1.17647300
v -5.25446500 4.21311800 -2.15647600
v -3.82340900 6.19360200 -1.55217500
v -3.82340900 6.19360200 -1.55217500
v -3.57145900 4.62567100 -4.63045900
v -3.57145900 4.62567100 -4.63045900
v -2.61621400 4.08859000 -5.88117300
v -2.61621400 4.08859000 -5.88117300
v -2.61621400 4.08859000 -5.88117300
v -2.61621400 4.08859000 -5.88117300
v -1.54114500 2.82548100 -6.03405900
v -1.54114500 2.82548100 -6.03405900
v 0.08229100 2.47298900 -5.95386700
v 0.08229100 2.47298900 -5.95386700
v 0.08229100 2.47298900 -5.95386700
v -5.07099000 4.99400100 -0.00000500
v -2.75075400 7.09375600 0.16184900
v -2.75075400 7.09375600 0.16184900
v -2.75075400 7.09375600 0.16184900
v -2.75075400 7.09375600 0.16184900
v -3.59726200 6.58661700 0.66130400
v -3.59726200 6.58661700 0.66130400
v -2.94567400 5.85436000 3.95861900
v -2.94567400 5.85436000 3.95861900
v -2.94567400 5.85436000 3.95861900
v -4.36421800 5.43335600 2.29070100
v -4.16632700 4.17367500 4.41772600
v -1.12649500 -3.77128400 3.43750500
v -1.12649500 -3.77128400 3.43750500
v -2.02314300 -2.58465600 1.81782200
v -1.24736000 -4.56490900 1.42996000
v -1.24736000 -4.56490900 1.42996000
v -1.24736000 -4.56490900 1.42996000
v -1.24736000 -4.56490900 1.42996000
v 0.07108700 -6.37974200 1.59272500
v 0.07108700 -6.37974200 1.59272500
v -0.94989000 -6.66974200 1.48513300
v 0.89544300 -7.02641700 1.89094100
v 0.89544300 -7.02641700 1.89094100
v 1.49974000 -7.55700200 0.53836900
v 1.49974000 -7.55700200 0.53836900
v 1.49974000 -7.55700200 0.53836900
v 0.40328600 -4.88467400 4.96243800
v 0.40328600 -4.88467400 4.96243800
v 0.40328600 -4.88467400 4.96243800
v 0.40328600 -4.88467400 4.96243800
v 0.46841400 -3.94238500 5.72040300
v 0.46841400 -3.94238500 5.72040300
v -2.61621400 -4.08859000 -5.88117300
v -2.61621400 -4.08859000 -5.88117300
v -2.61621400 -4.08859000 -5.88117300
v -2.61621400 -4.08859000 -5.88117300
vn -0.34600000 -0.93190000 0.10900000
vn 0.04150000 -0.83230000 0.55280000
vn -0.61270000 -0.78510000 0.09060000
vn 0.07330000 -0.81390000 0.57630000
vn 0.75650000 0.57920000 -0.30360000
vn -0.16800000 0.38130000 -0.90900000
vn 0.16170000 -0.85370000 0.49500000
vn -0.13600000 -0.98970000 -0.04430000
vn -0.02310000 -0.65950000 0.75130000
vn -0.02310000 -0.65950000 0.75130000
vn -0.37650000 -0.76350000 0.52470000
vn -0.37650000 -0.76350000 0.52470000
vn -0.36530000 -0.92850000 0.06660000
vn 0.54030000 0.22370000 -0.81120000
vn 0.77600000 0.17420000 -0.60620000
vn -0.49840000 -0.86640000 0.03090000
vn 0.77600000 0.17420000 -0.60620000
vn 0.81640000 -0.02630000 -0.57690000
vn 0.81640000 -0.02630000 -0.57690000
vn 0.95350000 0.10490000 -0.28260000
vn -0.72570000 -0.67390000 -0.13870000
vn -0.83280000 -0.55350000 -0.00610000
vn -0.83280000 -0.55350000 -0.00610000
vn -0.84660000 -0.47870000 -0.23250000
vn -0.84660000 -0.47870000 -0.23250000
vn 0.97000000 -0.24190000 -0.02570000
vn -0.75060000 -0.55980000 -0.35090000
vn 0.95370000 -0.05700000 -0.29540000
vn 0.80420000 -0.44970000 -0.38880000
vn 0.80420000 -0.44970000 -0.38880000
vn 0.80420000 -0.44970000 -0.38880000
vn 0.55040000 -0.17170000 -0.81710000
vn 0.55040000 -0.17170000 -0.81710000
vn 0.62330000 -0.51640000 -0.58720000
vn 0.62330000 -0.51640000 -0.58720000
vn 0.98130000 0.19180000 -0.01800000
vn 0.87130000 -0.49060000 -0.01520000
vn 0.87130000 -0.49060000 -0.01520000
vn 0.69110000 -0.70220000 -0.17110000
vn 0.69110000 -0.70220000 -0.17110000
vn 0.69110000 -0.70220000 -0.17110000
vn 0.99590000 0.06380000 0.06360000
vn 0.62290000 -0.75770000 0.19460000
vn 0.91700000 0.02450000 0.39810000
vn 0.97200000 0.00140000 0.23490000
vn 0.85390000 -0.03490000 0.51930000
vn 0.43630000 0.76390000 0.47550000
vn 0.99850000 -0.00030000 -0.05550000
vn 0.58620000 0.52820000 -0.61430000
vn 0.58620000 0.52820000 -0.61430000
vn 0.98140000 -0.18860000 -0.03690000
vn 0.99590000 -0.06380000 0.06360000
vn 0.70010000 0.69380000 -0.16870000
vn 0.63220000 0.75430000 0.17720000
vn 0.92820000 -0.04850000 0.36890000
vn 0.41020000 -0.76860000 0.49090000
vn 0.85240000 0.05460000 0.52010000
vn 0.85240000 0.05460000 0.52010000
vn 0.44960000 -0.69320000 0.56330000
vn 0.44960000 -0.69320000 0.56330000
vn 0.02330000 -0.10690000 -0.99400000
vn 0.76370000 -0.55390000 0.33150000
vn 0.76370000 -0.55390000 0.33150000
vn 0.76370000 -0.55390000 0.33150000
vn 0.02740000 -0.05670000 -0.99800000
vn 0.81510000 0.06940000 0.57510000
vn 0.81510000 0.06940000 0.57510000
vn 0.13560000 -0.76710000 0.62700000
vn 0.07990000 -0.14380000 -0.98640000
vn 0.77850000 0.19570000 0.59630000
vn 0.03720000 0.08530000 -0.99570000
vn 0.79410000 -0.11370000 0.59710000
vn -0.00020000 -0.10350000 -0.99460000
vn -0.64590000 -0.43190000 -0.62950000
vn -0.00330000 0.00340000 -1.00000000
vn -0.70810000 0.04000000 -0.70500000
vn -0.74910000 0.12370000 -0.65080000
vn -0.74910000 0.12370000 -0.65080000
vn 0.01360000 0.11070000 -0.99380000
vn -0.63980000 0.41590000 -0.64630000
vn -0.63980000 0.41590000 -0.64630000
vn -0.11720000 -0.09190000 -0.98880000
vn -0.76120000 -0.18320000 -0.62220000
vn -0.86640000 -0.07190000 -0.49410000
vn -0.86640000 -0.07190000 -0.49410000
vn -0.78790000 -0.36080000 -0.49910000
vn -0.78790000 -0.36080000 -0.49910000
vn -0.78790000 -0.36080000 -0.49910000
vn 0.90660000 -0.32290000 0.27170000
vn -0.68060000 -0.49960000 -0.53590000
vn -0.68060000 -0.49960000 -0.53590000
vn -0.93830000 -0.24540000 -0.24370000
vn -0.96950000 -0.23460000 0.07040000
vn -0.97050000 0.00400000 -0.24090000
vn -0.81600000 0.29280000 -0.49830000
vn -0.94130000 0.23600000 -0.24140000
vn -0.99770000 0.05090000 0.04380000
vn -0.95740000 0.23230000 0.17180000
vn -0.91810000 0.39140000 0.06180000
vn -0.94370000 0.06090000 0.32520000
vn -0.85560000 -0.09930000 0.50800000
vn -0.85560000 -0.09930000 0.50800000
vn -0.30970000 -0.05750000 0.94910000
vn -0.82660000 0.23620000 0.51080000
vn -0.82660000 0.23620000 0.51080000
vn -0.85250000 0.39810000 0.33880000
vn -0.87560000 -0.22650000 0.42660000
vn -0.87560000 -0.22650000 0.42660000
vn -0.41330000 -0.39500000 0.82050000
vn -0.41330000 -0.39500000 0.82050000
vn -0.71510000 -0.46010000 0.52630000
vn -0.71510000 -0.46010000 0.52630000
vn -0.71510000 -0.46010000 0.52630000
vn -0.86420000 -0.42740000 0.26560000
vn -0.86420000 -0.42740000 0.26560000
vn -0.71400000 -0.64670000 0.26840000
vn -0.12000000 -0.24360000 0.96240000
vn -0.82640000 0.14350000 0.54460000
vn -0.82640000 0.14350000 0.54460000
vn -0.23690000 -0.00580000 0.97150000
vn -0.40650000 0.40450000 0.81920000
vn -0.40650000 0.40450000 0.81920000
vn -0.10040000 0.24590000 0.96410000
vn -0.15800000 -0.01750000 0.98730000
vn 0.80080000 0.05550000 -0.59640000
vn 0.83790000 0.22410000 -0.49770000
vn 0.78490000 -0.18790000 -0.59040000
vn -0.04780000 0.13310000 0.99000000
vn 0.76210000 0.26870000 -0.58900000
vn -0.01240000 -0.18330000 0.98300000
vn 0.86520000 -0.07620000 -0.49560000
vn 0.79550000 -0.36160000 -0.48630000
vn 0.94210000 0.07890000 -0.32590000
vn 0.95340000 -0.17230000 -0.24760000
vn 0.87530000 -0.39980000 -0.27190000
vn 0.40630000 0.45990000 -0.78960000
vn 0.28420000 -0.01500000 -0.95870000
vn 0.85490000 -0.48560000 -0.18230000
vn 0.10040000 0.55500000 0.82580000
vn 0.10040000 0.55500000 0.82580000
vn 0.74400000 -0.46390000 -0.48090000
vn 0.75540000 -0.57100000 -0.32140000
vn 0.07450000 0.81280000 0.57780000
vn 0.75540000 -0.57100000 -0.32140000
vn 0.71810000 -0.65970000 -0.22160000
vn -0.05320000 -0.21060000 -0.97610000
vn 0.71810000 -0.65970000 -0.22160000
vn -0.34600000 0.93190000 0.10900000
vn -0.34600000 0.93190000 0.10900000
vn 0.04150000 0.83230000 0.55280000
vn -0.02260000 0.65610000 0.75430000
vn -0.02260000 0.65610000 0.75430000
vn 0.20200000 0.84880000 0.48850000
vn 0.64070000 -0.75660000 -0.13060000
vn -0.16800000 -0.38130000 -0.90900000
vn -0.13600000 0.98970000 -0.04430000
vn 0.16170000 0.85370000 0.49500000
vn 0.54030000 -0.22370000 -0.81120000
vn -0.36530000 0.92850000 0.06660000
vn 0.23710000 -0.25670000 -0.93700000
vn 0.62320000 -0.78150000 -0.02810000
vn 0.25020000 0.85810000 0.44840000
vn -0.39590000 -0.29760000 -0.86870000
vn 0.55250000 0.17240000 -0.81550000
vn 0.55250000 0.17240000 -0.81550000
vn 0.81410000 0.03030000 -0.58000000
vn 0.81410000 0.03030000 -0.58000000
vn 0.71030000 0.52820000 -0.46530000
vn 0.71030000 0.52820000 -0.46530000
vn 0.71030000 0.52820000 -0.46530000
vn 0.89230000 0.33830000 -0.29900000
vn 0.89230000 0.33830000 -0.29900000
vn 0.86180000 0.50730000 -0.00560000
vn 0.86180000 0.50730000 -0.00560000
vn 0.76740000 0.54980000 0.32990000
vn 0.76740000 0.54980000 0.32990000
vn -0.75710000 0.54680000 -0.35760000
vn 0.97470000 0.22360000 -0.00340000
vn 0.95260000 0.02740000 -0.30300000
vn -0.84050000 0.48220000 -0.24730000
vn 0.95350000 -0.10490000 -0.28260000
vn -0.72570000 0.67390000 -0.13870000
vn -0.70050000 0.48250000 -0.52590000
vn 0.90660000 0.32290000 0.27170000
vn -0.53760000 0.54400000 -0.64420000
vn 0.02300000 0.13940000 -0.99000000
vn 0.73240000 0.41730000 0.53800000
vn 0.73240000 0.41730000 0.53800000
vn 0.44610000 0.68970000 0.57030000
vn 0.02150000 0.11030000 -0.99370000
vn 0.77500000 -0.21000000 0.59600000
vn 0.13730000 0.77320000 0.61910000
vn 0.08630000 0.17420000 -0.98090000
vn -0.81630000 0.57750000 -0.00790000
vn -0.49840000 0.86640000 0.03090000
vn -0.49840000 0.86640000 0.03090000
vn 0.77600000 -0.17420000 -0.60620000
vn 0.77600000 -0.17420000 -0.60620000
vn -0.61270000 0.78510000 0.09060000
vn -0.61270000 0.78510000 0.09060000
vn -0.37650000 0.76350000 0.52470000
vn -0.37650000 0.76350000 0.52470000
vn -0.37650000 0.76350000 0.52470000
vn -0.72100000 0.63910000 0.26780000
vn -0.70840000 0.47720000 0.52010000
vn 0.84460000 0.40610000 -0.34890000
vn 0.84460000 0.40610000 -0.34890000
vn 0.95150000 0.25460000 -0.17260000
vn 0.40630000 -0.45990000 -0.78960000
vn 0.85670000 0.47070000 -0.21070000
vn 0.28420000 0.01500000 -0.95870000
vn 0.85670000 0.47070000 -0.21070000
vn 0.71810000 0.65970000 -0.22160000
vn -0.05320000 0.21060000 -0.97610000
vn 0.23710000 0.25670000 -0.93700000
vn 0.64070000 0.75660000 -0.13060000
vn 0.20200000 -0.84880000 0.48850000
vn 0.62320000 0.78150000 -0.02810000
vn -0.39590000 0.29760000 -0.86870000
vn 0.25020000 -0.85810000 0.44840000
vn 0.13080000 -0.69260000 0.70940000
vn 0.76900000 0.45370000 -0.45040000
vn 0.76900000 0.45370000 -0.45040000
vn 0.13080000 -0.69260000 0.70940000
vn 0.06890000 -0.45420000 0.88820000
vn 0.75910000 0.36620000 -0.53820000
vn -0.53760000 -0.54400000 -0.64420000
vn 0.73240000 -0.41730000 0.53800000
vn 0.73240000 -0.41730000 0.53800000
vn 0.02300000 -0.13940000 -0.99000000
vt 0.07706400 0.83804800
vt 0.07706400 0.83804800
vt 0.08052900 0.85163700
vt 0.07533000 0.82029600
vt 0.97877900 0.21483000
vt 0.91604600 0.93388500
vt 0.06652300 0.83071100
vt 0.06652300 0.83071100
vt 0.09175200 0.82507800
vt 0.08748300 0.75598700
vt 0.09212400 0.83677200
vt 0.07801900 0.75125600
vt 0.07460200 0.84420700
vt 0.92627700 0.94570700
vt 0.92823600 0.94913000
vt 0.07469100 0.84900300
vt 0.93139500 0.25762000
vt 0.93623900 0.26517800
vt 0.92408300 0.95807600
vt 0.94227600 0.25643600
vt 0.07211300 0.86058500
vt 0.08434300 0.86163500
vt 0.69558300 0.04495700
vt 0.07610300 0.87018800
vt 0.70242200 0.05526700
vt 0.95217900 0.25648900
vt 0.06653700 0.86710400
vt 0.94230700 0.26091000
vt 0.57138200 0.97644500
vt 0.91544800 0.96660300
vt 0.94618100 0.27355300
vt 0.93266600 0.27192500
vt 0.91649500 0.95566500
vt 0.90900100 0.96390600
vt 0.56520600 0.97180600
vt 0.65753700 0.52359100
vt 0.95634100 0.26930400
vt 0.97154900 0.06458200
vt 0.56520600 0.98035200
vt 0.95349500 0.27890000
vt 0.97023900 0.07481300
vt 0.66635500 0.52834600
vt 0.98008500 0.07187100
vt 0.67611600 0.53082600
vt 0.67095600 0.53860100
vt 0.68297600 0.54839300
vt 0.95783500 0.56021100
vt 0.65280800 0.53863000
vt 0.93139500 0.55752100
vt 0.93331800 0.25643600
vt 0.65836000 0.55418400
vt 0.66691400 0.54910300
vt 0.93975700 0.55964800
vt 0.95023200 0.56051100
vt 0.67655400 0.54709500
vt 0.98889200 0.07192600
vt 0.55862000 0.98034900
vt 0.68305400 0.53019200
vt 0.99341800 0.06543500
vt 0.47934800 0.98166700
vt 0.89753700 0.30570900
vt 0.98053300 0.06187000
vt 0.96465800 0.26614600
vt 0.47934800 0.97180600
vt 0.91140200 0.30762200
vt 0.69046800 0.53489700
vt 0.56520600 0.97711200
vt 0.99858900 0.07481300
vt 0.90527800 0.31347600
vt 0.55862000 0.97180600
vt 0.92261500 0.30041700
vt 0.69055500 0.54816400
vt 0.88880000 0.29813100
vt 0.88880000 0.29813100
vt 0.90313800 0.28245700
vt 0.90313800 0.28245700
vt 0.73534800 0.06489300
vt 0.90376000 0.27706400
vt 0.91924300 0.27706400
vt 0.75048900 0.06259500
vt 0.91924300 0.27706400
vt 0.89432900 0.28823700
vt 0.89432900 0.28823700
vt 0.72281200 0.06185600
vt 0.89257600 0.27809000
vt 0.06519800 0.87567500
vt 0.88366800 0.28894700
vt 0.71235000 0.06489300
vt 0.96135900 0.25643600
vt 0.05832300 0.87018100
vt 0.88159100 0.30042300
vt 0.71035100 0.05378000
vt 0.70463700 0.03767000
vt 0.72041800 0.05010200
vt 0.73926400 0.05677000
vt 0.73218300 0.04678800
vt 0.71784400 0.03431700
vt 0.72488800 0.02603200
vt 0.73432200 0.02834800
vt 0.71613500 0.02090000
vt 0.70827600 0.01026600
vt 0.06492300 0.77984100
vt 0.06492300 0.77984100
vt 0.72208400 0.01098700
vt 0.06312100 0.79478400
vt 0.73145800 0.01584900
vt 0.70262400 0.02043200
vt 0.06093800 0.77249100
vt 0.10085200 0.83222400
vt 0.07640200 0.76150700
vt 0.09969800 0.84154600
vt 0.06990100 0.76054600
vt 0.69464900 0.01974900
vt 0.69636100 0.03056900
vt 0.09639900 0.85487600
vt 0.09105800 0.84994100
vt 0.08325300 0.76405200
vt 0.71573400 0.00700200
vt 0.06630200 0.78804200
vt 0.06630200 0.78804200
vt 0.07642000 0.80569300
vt 0.73473500 0.00000000
vt 0.08327000 0.80311300
vt 0.09662800 0.78013600
vt 0.62121500 0.53774400
vt 0.62978900 0.52878900
vt 0.62201300 0.55144900
vt 0.09749400 0.79386300
vt 0.62178700 0.52824900
vt 0.09827600 0.77034700
vt 0.63036600 0.54348400
vt 0.63079900 0.55936000
vt 0.63891100 0.53504100
vt 0.64398100 0.54892900
vt 0.64311300 0.56022700
vt 0.94431600 0.25413100
vt 0.94431600 0.25413100
vt 0.65000000 0.56480200
vt 0.93139500 0.89989000
vt 0.10066800 0.80852700
vt 0.62713900 0.56629600
vt 0.97023900 0.91318900
vt 0.93445800 0.88933200
vt 0.63769100 0.57517200
vt 0.64854800 0.57595600
vt 0.95763900 0.25388900
vt 0.97897400 0.90644600
vt 0.76144200 0.01428600
vt 0.95171200 0.88071700
vt 0.95171200 0.88071700
vt 0.08750600 0.81124000
vt 0.94473300 0.89988300
vt 0.93465800 0.88022900
vt 0.97912400 0.91205600
vt 0.96316200 0.24948000
vt 0.94079300 0.87633200
vt 0.94079300 0.87633200
vt 0.95137700 0.23922000
vt 0.95486400 0.87514500
vt 0.95427500 0.24777400
vt 0.98739200 0.91318900
vt 0.93235800 0.87243200
vt 0.96888500 0.25643600
vt 0.93156500 0.41038500
vt 0.94138000 0.24907400
vt 0.93909800 0.24136000
vt 0.93621100 0.41536800
vt 0.93214900 0.56212600
vt 0.93139500 0.25294200
vt 0.94441800 0.40496900
vt 0.93334800 0.56973600
vt 0.94678000 0.41049400
vt 0.94170400 0.57123100
vt 0.95607200 0.41036300
vt 0.96414500 0.41392800
vt 0.95106700 0.57250600
vt 0.75332300 0.04471800
vt 0.95297400 0.42239600
vt 0.94284900 0.41856200
vt 0.74327700 0.04218300
vt 0.94303100 0.42302300
vt 0.75553200 0.03501400
vt 0.75359500 0.05357400
vt 0.96170900 0.42293400
vt 0.75546200 0.06042500
vt 0.92494200 0.27806700
vt 0.95899600 0.57565800
vt 0.96823700 0.42383100
vt 0.96323500 0.56760100
vt 0.92326500 0.28790600
vt 0.68955300 0.55395800
vt 0.96717600 0.55752100
vt 0.92779600 0.29789300
vt 0.74400900 0.02944800
vt 0.95815500 0.87243200
vt 0.75982600 0.02387800
vt 0.94802600 0.23719900
vt 0.93139500 0.42383100
vt 0.96231400 0.87563300
vt 0.75439900 0.02255400
vt 0.74712300 0.00584100
vt 0.95570900 0.89357700
vt 0.07804600 0.81609000
vt 0.74419700 0.01620600
vt 0.73512000 0.00678700
vt 0.63763000 0.51933100
vt 0.97275300 0.22856600
vt 0.64729100 0.52491100
vt 0.91147100 0.95269500
vt 0.98289800 0.23275200
vt 0.91147100 0.95269500
vt 0.64865100 0.51471600
vt 0.98700800 0.22181700
vt 0.91170800 0.93935000
vt 0.91781600 0.94271500
vt 0.98828300 0.21535500
vt 0.06680500 0.82419300
vt 0.99705900 0.21435500
vt 0.90900100 0.92826200
vt 0.05832300 0.82579400
vt 0.10025100 0.75657100
vt 0.97023900 0.21435500
vt 0.62810600 0.51471600
vt 0.08263900 0.81609000
vt 0.10066800 0.76175500
vt 0.62402800 0.52000200
vt 0.88771300 0.30383000
vt 0.96872200 0.25687700
vt 0.48612000 0.97430300
vt 0.88771300 0.30383000
f 1/1/1 3/3/3 16/16/16
f 11/11/11 3/3/3 1/1/1
f 4/4/4 2/2/2 7/7/7
f 9/9/9 2/2/2 4/4/4
f 1/1/1 13/13/13 8/8/8
f 11/11/11 2/2/2 9/9/9
f 16/16/16 13/13/13 1/1/1
f 18/18/18 17/17/17 20/20/20
f 14/14/14 15/15/15 19/19/19
f 3/3/3 21/21/21 16/16/16
f 22/22/22 21/21/21 3/3/3
f 24/24/24 21/21/21 22/22/22
f 24/24/24 27/27/27 21/21/21
f 28/28/28 18/18/18 20/20/20
f 20/20/20 26/26/26 28/28/28
f 18/18/18 28/28/28 31/31/31
f 31/31/31 28/28/28 26/26/26
f 31/31/31 26/26/26 37/37/37
f 32/32/32 18/18/18 31/31/31
f 33/33/33 30/30/30 34/34/34
f 29/29/29 39/39/39 35/35/35
f 31/31/31 37/37/37 40/40/40
f 41/41/41 38/38/38 43/43/43
f 45/45/45 36/36/36 42/42/42
f 45/45/45 42/42/42 44/44/44
f 45/45/45 46/46/46 55/55/55
f 45/45/45 58/58/58 46/46/46
f 48/48/48 45/45/45 51/51/51
f 48/48/48 36/36/36 45/45/45
f 45/45/45 52/52/52 51/51/51
f 45/45/45 55/55/55 52/52/52
f 45/45/45 44/44/44 58/58/58
f 68/68/68 56/56/56 59/59/59
f 62/62/62 59/59/59 56/56/56
f 43/43/43 62/62/62 56/56/56
f 57/57/57 70/70/70 67/67/67
f 46/46/46 58/58/58 66/66/66
f 65/65/65 69/69/69 61/61/61
f 46/46/46 66/66/66 72/72/72
f 75/75/75 71/71/71 65/65/65
f 73/73/73 65/65/65 61/61/61
f 73/73/73 75/75/75 65/65/65
f 78/78/78 81/81/81 76/76/76
f 83/83/83 78/78/78 76/76/76
f 79/79/79 71/71/71 75/75/75
f 73/73/73 82/82/82 75/75/75
f 87/87/87 83/83/83 74/74/74
f 85/85/85 83/83/83 87/87/87
f 78/78/78 83/83/83 85/85/85
f 24/24/24 86/86/86 27/27/27
f 86/86/86 90/90/90 27/27/27
f 91/91/91 87/87/87 74/74/74
f 92/92/92 88/88/88 25/25/25
f 92/92/92 84/84/84 88/88/88
f 94/94/94 84/84/84 92/92/92
f 93/93/93 92/92/92 25/25/25
f 94/94/94 92/92/92 93/93/93
f 94/94/94 96/96/96 95/95/95
f 94/94/94 95/95/95 84/84/84
f 94/94/94 97/97/97 96/96/96
f 97/97/97 94/94/94 93/93/93
f 100/100/100 98/98/98 97/97/97
f 98/98/98 99/99/99 97/97/97
f 97/97/97 99/99/99 96/96/96
f 100/100/100 97/97/97 93/93/93
f 106/106/106 98/98/98 100/100/100
f 104/104/104 100/100/100 101/101/101
f 101/101/101 100/100/100 107/107/107
f 104/104/104 106/106/106 100/100/100
f 107/107/107 100/100/100 93/93/93
f 114/114/114 107/107/107 93/93/93
f 110/110/110 108/108/108 112/112/112
f 102/102/102 108/108/108 110/110/110
f 113/113/113 107/107/107 114/114/114
f 111/111/111 115/115/115 116/116/116
f 116/116/116 115/115/115 22/22/22
f 114/114/114 93/93/93 23/23/23
f 111/111/111 116/116/116 11/11/11
f 116/116/116 22/22/22 3/3/3
f 116/116/116 3/3/3 11/11/11
f 11/11/11 109/109/109 111/111/111
f 110/110/110 117/117/117 120/120/120
f 110/110/110 10/10/10 117/117/117
f 12/12/12 10/10/10 110/110/110
f 103/103/103 110/110/110 120/120/120
f 119/119/119 121/121/121 105/105/105
f 118/118/118 104/104/104 101/101/101
f 121/121/121 120/120/120 123/123/123
f 123/123/123 120/120/120 124/124/124
f 117/117/117 124/124/124 120/120/120
f 125/125/125 126/126/126 131/131/131
f 129/129/129 126/126/126 125/125/125
f 117/117/117 130/130/130 124/124/124
f 123/123/123 124/124/124 128/128/128
f 125/125/125 131/131/131 127/127/127
f 127/127/127 131/131/131 132/132/132
f 131/131/131 134/134/134 132/132/132
f 131/131/131 126/126/126 133/133/133
f 131/131/131 133/133/133 134/134/134
f 133/133/133 48/48/48 134/134/134
f 132/132/132 134/134/134 135/135/135
f 135/135/135 134/134/134 51/51/51
f 134/134/134 48/48/48 51/51/51
f 135/135/135 138/138/138 144/144/144
f 138/138/138 135/135/135 51/51/51
f 141/141/141 135/135/135 144/144/144
f 132/132/132 135/135/135 141/141/141
f 144/144/144 138/138/138 145/145/145
f 142/142/142 147/147/147 154/154/154
f 139/139/139 143/143/143 152/152/152
f 150/150/150 143/143/143 157/157/157
f 152/152/152 143/143/143 150/150/150
f 153/153/153 157/157/157 143/143/143
f 149/149/149 156/156/156 159/159/159
f 160/160/160 158/158/158 155/155/155
f 157/157/157 153/153/153 162/162/162
f 146/146/146 155/155/155 163/163/163
f 155/155/155 146/146/146 160/160/160
f 161/161/161 154/154/154 147/147/147
f 158/158/158 160/160/160 165/165/165
f 165/165/165 160/160/160 137/137/137
f 160/160/160 146/146/146 137/137/137
f 158/158/158 165/165/165 166/166/166
f 164/164/164 170/170/170 167/167/167
f 165/165/165 50/50/50 169/169/169
f 165/165/165 136/136/136 50/50/50
f 168/168/168 49/49/49 53/53/53
f 170/170/170 172/172/172 167/167/167
f 168/168/168 173/173/173 171/171/171
f 168/168/168 53/53/53 173/173/173
f 174/174/174 175/175/175 178/178/178
f 173/173/173 54/54/54 176/176/176
f 53/53/53 54/54/54 173/173/173
f 172/172/172 174/174/174 178/178/178
f 172/172/172 178/178/178 179/179/179
f 180/180/180 177/177/177 95/95/95
f 95/95/95 177/177/177 183/183/183
f 181/181/181 179/179/179 178/178/178
f 180/180/180 182/182/182 177/177/177
f 184/184/184 178/178/178 175/175/175
f 185/185/185 80/80/80 183/183/183
f 184/184/184 175/175/175 188/188/188
f 183/183/183 80/80/80 95/95/95
f 187/187/187 176/176/176 189/189/189
f 186/186/186 190/190/190 79/79/79
f 47/47/47 192/192/192 189/189/189
f 176/176/176 47/47/47 189/189/189
f 190/190/190 193/193/193 71/71/71
f 71/71/71 79/79/79 190/190/190
f 46/46/46 72/72/72 191/191/191
f 194/194/194 200/200/200 182/182/182
f 180/180/180 194/194/194 182/182/182
f 167/167/167 181/181/181 198/198/198
f 200/200/200 196/196/196 182/182/182
f 181/181/181 167/167/167 179/179/179
f 195/195/195 199/199/199 149/149/149
f 201/201/201 148/148/148 200/200/200
f 204/204/204 201/201/201 200/200/200
f 204/204/204 200/200/200 194/194/194
f 204/204/204 194/194/194 99/99/99
f 106/106/106 204/204/204 99/99/99
f 205/205/205 204/204/204 106/106/106
f 205/205/205 201/201/201 204/204/204
f 122/122/122 205/205/205 104/104/104
f 205/205/205 106/106/106 104/104/104
f 201/201/201 205/205/205 122/122/122
f 203/203/203 121/121/121 151/151/151
f 202/202/202 152/152/152 150/150/150
f 166/166/166 197/197/197 158/158/158
f 195/195/195 149/149/149 159/159/159
f 99/99/99 194/194/194 180/180/180
f 99/99/99 180/180/180 96/96/96
f 96/96/96 180/180/180 95/95/95
f 167/167/167 172/172/172 179/179/179
f 54/54/54 47/47/47 176/176/176
f 151/151/151 123/123/123 140/140/140
f 121/121/121 123/123/123 151/151/151
f 123/123/123 128/128/128 140/140/140
f 127/127/127 132/132/132 141/141/141
f 126/126/126 206/206/206 133/133/133
f 206/206/206 208/208/208 133/133/133
f 133/133/133 208/208/208 48/48/48
f 206/206/206 212/212/212 208/208/208
f 212/212/212 36/36/36 208/208/208
f 208/208/208 36/36/36 48/48/48
f 215/215/215 211/211/211 214/214/214
f 5/5/5 213/213/213 210/210/210
f 207/207/207 5/5/5 210/210/210
f 211/211/211 215/215/215 33/33/33
f 34/34/34 209/209/209 33/33/33
f 14/14/14 33/33/33 215/215/215
f 215/215/215 6/6/6 14/14/14
f 6/6/6 215/215/215 214/214/214
f 5/5/5 216/216/216 213/213/213
f 213/213/213 216/216/216 218/218/218
f 6/6/6 214/214/214 219/219/219
f 7/7/7 220/220/220 217/217/217
f 7/7/7 217/217/217 4/4/4
f 222/222/222 5/5/5 207/207/207
f 126/126/126 223/223/223 206/206/206
f 224/224/224 9/9/9 4/4/4
f 221/221/221 225/225/225 10/10/10
f 226/226/226 223/223/223 126/126/126
f 129/129/129 226/226/226 126/126/126
f 117/117/117 225/225/225 130/130/130
f 10/10/10 225/225/225 117/117/117
f 106/106/106 99/99/99 98/98/98
f 84/84/84 95/95/95 77/77/77
f 95/95/95 80/80/80 77/77/77
f 93/93/93 25/25/25 23/23/23
f 89/89/89 228/228/228 63/63/63
f 74/74/74 227/227/227 91/91/91
f 89/89/89 63/63/63 26/26/26
f 229/229/229 60/60/60 64/64/64
f 230/230/230 73/73/73 61/61/61
f 38/38/38 62/62/62 43/43/43
f 37/37/37 26/26/26 63/63/63
f 14/14/14 19/19/19 33/33/33

