# ('FARMS composite mesh',)
mtllib link_body_36_composite.mtl
usemtl link_body_36_composite
v 1.57859700 0.39687500 2.57609200
v 2.05471700 0.39789400 2.31227800
v 2.05471700 0.39789400 2.31227800
v 1.55698300 0.17467800 3.17590600
v 1.55698300 0.17467800 3.17590600
v -3.20060500 1.21750300 -0.80357300
v -2.47009200 0.13940600 4.23877800
v -2.47009200 0.13940600 4.23877800
v -2.47009200 0.13940600 4.23877800
v -2.66202400 0.25120400 4.04324500
v -2.66202400 0.25120400 4.04324500
v -3.55706600 0.60763900 2.86845900
v -3.55706600 0.60763900 2.86845900
v -0.37295500 0.09256800 3.76297700
v -0.37295500 0.09256800 3.76297700
v -0.33055900 -0.09321200 3.75136900
v -0.33055900 -0.09321200 3.75136900
v -2.43814000 -0.00000100 4.28184600
v -2.43814000 -0.00000100 4.28184600
v -2.47009200 -0.13940800 4.23877800
v -2.47009200 -0.13940800 4.23877800
v -2.47009200 -0.13940800 4.23877800
v -3.01203000 0.32748500 3.71169400
v -3.01203000 0.32748500 3.71169400
v -3.01203000 0.32748500 3.71169400
v -2.66202400 -0.25120500 4.04324400
v -2.66202400 -0.25120500 4.04324400
v -3.02987500 -0.36388300 3.67183700
v -3.02987500 -0.36388300 3.67183700
v -3.02987500 -0.36388300 3.67183700
v 1.57859700 -0.39687400 2.57609200
v -3.55706600 -0.60764100 2.86846000
v -3.55706600 -0.60764100 2.86846000
v -3.93408000 -0.79203900 1.98256700
v -3.93408000 -0.79203900 1.98256700
v -3.20060500 -1.21750500 -0.80357300
v -3.59790600 -0.00000100 2.88495400
v -3.99780800 0.00000000 1.98719600
v -4.24406200 0.00000000 1.01306500
v -3.93408000 0.79203700 1.98256700
v -3.93408000 0.79203700 1.98256700
v -4.16663900 0.95844400 1.00754300
v -4.16663900 0.95844400 1.00754300
v -4.22407300 1.11606900 0.02596200
v -4.22407300 1.11606900 0.02596200
v -4.32721500 -0.00000100 -0.00000000
v -4.24406200 0.00000000 -1.01306600
v -4.22291300 -1.11573300 0.03229300
v -4.22291300 -1.11573300 0.03229300
v -4.11170000 -1.25451400 -0.98883900
v -4.11170000 -1.25451400 -0.98883900
v -4.16663900 -0.95844600 1.00754500
v -4.16663900 -0.95844600 1.00754500
v -3.77792100 -1.24904100 -2.12999900
v -3.77792100 -1.24904100 -2.12999900
v -3.92098800 -0.93592000 -1.98719700
v -3.46176000 -1.02299700 -2.92898000
v -3.46176000 -1.02299700 -2.92898000
v -3.99780800 0.00000000 -1.98719700
v -3.59790600 -0.00000100 -2.88495500
v -3.46586400 1.02457800 -2.92363000
v -3.46586400 1.02457800 -2.92363000
v -3.05974400 -0.00000100 -3.67183800
v -3.05974400 -0.00000100 -3.67183800
v -3.01492900 0.68968800 -3.65736200
v -3.01492900 0.68968800 -3.65736200
v -3.01492900 0.68968800 -3.65736200
v -3.01492900 -0.68968800 -3.65736300
v -3.01492900 -0.68968800 -3.65736300
v -3.01492900 -0.68968800 -3.65736300
v -2.37288500 -0.35396100 -4.31916400
v -2.37288500 -0.35396100 -4.31916400
v 1.62075700 -0.09525800 -5.02849500
v 1.62075700 -0.09525800 -5.02849500
v 3.19763000 -0.09227400 -5.05857900
v 3.19763000 -0.09227400 -5.05857900
v 3.19763000 -0.09227400 -5.05857900
v 1.54544000 0.08914900 -5.03083300
v 1.54544000 0.08914900 -5.03083300
v -1.85628400 -0.12313100 -4.66365700
v -1.85628400 -0.12313100 -4.66365700
v -1.82334800 0.09231000 -4.68786300
v -1.82334800 0.09231000 -4.68786300
v -2.37539500 0.34546000 -4.32795200
v -2.37539500 0.34546000 -4.32795200
v 3.19103100 0.09648100 -5.05497900
v 3.19103100 0.09648100 -5.05497900
v 3.19103100 0.09648100 -5.05497900
v 2.61746900 0.18804800 -4.84849600
v 2.61746900 0.18804800 -4.84849600
v 2.03475900 0.33202500 -4.47932000
v 2.03475900 0.33202500 -4.47932000
v 2.31673300 -0.25659100 -4.68257000
v 2.31673300 -0.25659100 -4.68257000
v 1.56375100 -0.50865000 -3.98797600
v 1.56375100 -0.50865000 -3.98797600
v 1.56375100 -0.50865000 -3.98797600
v 0.94921800 -0.62233900 -3.00585000
v 0.94921800 -0.62233900 -3.00585000
v -2.55796700 -1.18948100 -2.02873000
v 1.07764400 0.00000000 -3.34300300
v 1.49977800 0.00000000 -3.96025600
v 1.49977800 0.00000000 -3.96025600
v 1.56504800 0.50897100 -3.98708200
v 1.56504800 0.50897100 -3.98708200
v 1.56504800 0.50897100 -3.98708200
v 0.94921800 0.62233900 -3.00585000
v 0.94921800 0.62233900 -3.00585000
v -2.55796600 1.18948000 -2.02873000
v -3.77741800 1.24910800 -2.13105800
v -3.77741800 1.24910800 -2.13105800
v -3.92098800 0.93592000 -1.98719700
v -4.10188100 1.25681900 -1.05006900
v -4.10188100 1.25681900 -1.05006900
v 0.82151700 0.69634200 0.48001400
v 0.82151700 0.69634200 0.48001400
v 0.57431000 0.72546200 -0.55899600
v 0.57431000 0.72546200 -0.55899600
v 0.62760900 0.69211600 -1.87466100
v 0.62760900 0.69211600 -1.87466100
v 0.57080800 0.00000100 -1.87466100
v 0.50558400 0.00000000 -1.08000000
v 0.76396900 0.00000100 -2.63878400
v 0.62760900 -0.69211600 -1.87466100
v 0.62760900 -0.69211600 -1.87466100
v 0.57431000 -0.72546300 -0.55899700
v 0.57431000 -0.72546300 -0.55899700
v 0.81986900 -0.69629900 0.47587600
v 0.81986900 -0.69629900 0.47587600
v 0.57080800 0.00000100 -0.28533900
v 0.76396900 0.00000100 0.47878300
v 1.07764400 0.00000000 1.18300300
v 1.12667800 0.59744700 1.18300300
v 1.12667800 0.59744700 1.18300300
v 1.54066400 0.49805500 1.80025900
v 1.54066400 0.49805500 1.80025900
v 1.54066400 0.49805500 1.80025900
v 2.02653400 -0.40130200 2.30468500
v 2.02653400 -0.40130200 2.30468500
v 1.49977800 0.00000000 1.80025600
v 1.49977800 0.00000000 1.80025600
v 1.36925400 -0.53328100 1.60876200
v 1.36925400 -0.53328100 1.60876200
v 1.36925400 -0.53328100 1.60876200
v 2.56157500 -0.16975300 2.64919800
v 2.56157500 -0.16975300 2.64919800
v 2.56157500 -0.16975300 2.64919800
v 2.56983800 0.16011600 2.65911800
v 2.56983800 0.16011600 2.65911800
v 2.56983800 0.16011600 2.65911800
v 1.56867900 -0.17344400 3.17061500
v 1.56867900 -0.17344400 3.17061500
vn 0.10990000 0.95920000 0.26050000
vn 0.14750000 0.95330000 0.26350000
vn 0.64340000 -0.01540000 -0.76540000
vn 0.11210000 0.93050000 0.34870000
vn 0.37360000 -0.00120000 0.92760000
vn 0.05800000 0.99480000 0.08310000
vn 0.11100000 0.90520000 0.41040000
vn 0.21570000 0.33300000 0.91790000
vn -0.69420000 0.06240000 0.71710000
vn 0.06000000 0.94510000 0.32130000
vn -0.67540000 0.09300000 0.73160000
vn 0.04880000 0.97770000 0.20420000
vn -0.87850000 0.07270000 0.47210000
vn 0.26380000 0.00730000 0.96450000
vn 0.11130000 0.90320000 0.41450000
vn 0.11090000 -0.90370000 0.41360000
vn 0.27070000 -0.00590000 0.96260000
vn -0.70120000 -0.00210000 0.71300000
vn 0.22950000 -0.00020000 0.97330000
vn 0.21630000 -0.33310000 0.91780000
vn -0.69420000 -0.06240000 0.71710000
vn 0.11090000 -0.90520000 0.41020000
vn -0.21840000 0.87510000 0.43190000
vn -0.77000000 0.00520000 0.63800000
vn -0.77000000 0.00520000 0.63800000
vn 0.07300000 -0.94690000 0.31300000
vn -0.70910000 -0.03010000 0.70440000
vn -0.77490000 -0.02780000 0.63140000
vn -0.77490000 -0.02780000 0.63140000
vn -0.00010000 -0.95690000 0.29040000
vn 0.11430000 -0.95810000 0.26280000
vn 0.05500000 -0.97840000 0.19950000
vn -0.87710000 -0.07270000 0.47480000
vn 0.07190000 -0.98300000 0.16900000
vn -0.94520000 -0.07800000 0.31710000
vn 0.05880000 -0.99480000 0.08280000
vn -0.87290000 -0.00080000 0.48790000
vn -0.94550000 -0.00000000 0.32550000
vn -0.98650000 -0.00000000 0.16360000
vn 0.07190000 0.98300000 0.16900000
vn -0.94520000 0.07800000 0.31710000
vn 0.03420000 0.98660000 0.15940000
vn -0.98480000 0.08320000 0.15270000
vn 0.02360000 0.98840000 0.15000000
vn -0.99520000 0.09700000 -0.01560000
vn -1.00000000 -0.00210000 -0.00510000
vn -0.98680000 0.00080000 -0.16170000
vn -0.99550000 -0.09360000 -0.01800000
vn 0.02580000 -0.98810000 0.15190000
vn -0.97890000 -0.12380000 -0.16280000
vn 0.02600000 -0.99710000 0.07120000
vn -0.98480000 -0.08340000 0.15250000
vn 0.03440000 -0.98660000 0.15950000
vn -0.89960000 -0.24680000 -0.36020000
vn 0.04800000 -0.99400000 -0.09790000
vn -0.93150000 -0.16920000 -0.32210000
vn -0.87050000 -0.10860000 -0.48000000
vn 0.03170000 -0.95380000 -0.29860000
vn -0.94530000 0.00670000 -0.32600000
vn -0.87590000 0.00340000 -0.48240000
vn 0.03180000 0.95380000 -0.29880000
vn -0.87410000 0.10270000 -0.47470000
vn -0.76800000 -0.00120000 -0.64050000
vn -0.76800000 -0.00120000 -0.64050000
vn -0.78340000 0.07040000 -0.61750000
vn -0.78340000 0.07040000 -0.61750000
vn -0.01050000 0.90290000 -0.42970000
vn -0.78140000 -0.07050000 -0.62010000
vn -0.01140000 -0.90270000 -0.43000000
vn -0.78140000 -0.07050000 -0.62010000
vn -0.64090000 -0.02280000 -0.76730000
vn -0.03220000 -0.86680000 -0.49760000
vn -0.05030000 -0.03400000 -0.99820000
vn -0.00870000 -0.90500000 -0.42540000
vn -0.00470000 -0.91080000 -0.41280000
vn -0.01510000 0.01570000 -0.99980000
vn 0.35200000 0.02740000 0.93560000
vn -0.01270000 0.90020000 -0.43530000
vn -0.07010000 -0.03990000 -0.99670000
vn -0.05820000 -0.78680000 -0.61440000
vn -0.38390000 -0.04490000 -0.92230000
vn -0.06430000 0.76720000 -0.63820000
vn -0.33820000 -0.05400000 -0.93950000
vn -0.64230000 0.00440000 -0.76640000
vn -0.03430000 0.86190000 -0.50580000
vn 0.33780000 -0.00610000 0.94120000
vn -0.01140000 0.90330000 -0.42890000
vn -0.01480000 0.01850000 -0.99970000
vn 0.42870000 0.03570000 0.90270000
vn -0.01690000 0.89630000 -0.44310000
vn 0.64510000 0.00830000 0.76400000
vn 0.02740000 0.94560000 -0.32400000
vn 0.55320000 0.03080000 0.83250000
vn 0.00420000 -0.92130000 -0.38870000
vn 0.75960000 0.07380000 0.64620000
vn 0.75960000 0.07380000 0.64620000
vn 0.05430000 -0.96470000 -0.25780000
vn 0.15490000 -0.98780000 -0.01730000
vn 0.90950000 0.08870000 0.40610000
vn 0.08920000 -0.99290000 -0.07880000
vn 0.86510000 -0.00050000 0.50160000
vn 0.76840000 0.00390000 0.64000000
vn 0.76840000 0.00390000 0.64000000
vn 0.77620000 -0.07550000 0.62600000
vn 0.77620000 -0.07550000 0.62600000
vn 0.05450000 0.96470000 -0.25760000
vn 0.90930000 -0.08900000 0.40650000
vn 0.15500000 0.98780000 -0.01680000
vn 0.08930000 0.99290000 -0.07850000
vn -0.89920000 0.24600000 -0.36180000
vn 0.04870000 0.99400000 -0.09820000
vn -0.93280000 0.15960000 -0.32310000
vn 0.02560000 0.99750000 0.06530000
vn -0.97690000 0.12230000 -0.17520000
vn 0.11050000 0.99150000 0.06920000
vn 0.94500000 -0.07750000 -0.31790000
vn 0.15190000 0.98830000 -0.01170000
vn 0.99090000 -0.08330000 -0.10540000
vn 0.15510000 0.98770000 -0.01770000
vn 0.98200000 -0.10000000 0.16050000
vn 0.98660000 -0.00000000 0.16330000
vn 0.99990000 -0.00000000 0.01440000
vn 0.94980000 -0.00000000 0.31300000
vn 0.15510000 -0.98770000 -0.01770000
vn 0.98200000 0.10000000 0.16050000
vn 0.99100000 0.08310000 -0.10530000
vn 0.15180000 -0.98830000 -0.01150000
vn 0.94120000 0.08800000 -0.32620000
vn 0.11090000 -0.99150000 0.06810000
vn 0.98320000 -0.00000000 -0.18230000
vn 0.94660000 -0.00010000 -0.32230000
vn 0.87820000 0.00540000 -0.47830000
vn 0.87330000 -0.07160000 -0.48190000
vn 0.09890000 0.99070000 0.09380000
vn 0.76330000 -0.05290000 -0.64390000
vn 0.76330000 -0.05290000 -0.64390000
vn 0.09800000 0.99060000 0.09520000
vn 0.64320000 0.00230000 -0.76570000
vn 0.14400000 -0.95570000 0.25680000
vn 0.75470000 -0.01800000 -0.65580000
vn 0.75470000 -0.01800000 -0.65580000
vn 0.09810000 -0.99060000 0.09520000
vn 0.81500000 0.06240000 -0.57610000
vn 0.81500000 0.06240000 -0.57610000
vn 0.53770000 0.01190000 -0.84310000
vn 0.18140000 -0.92320000 0.33880000
vn 0.46470000 -0.03820000 0.88460000
vn 0.54750000 -0.00150000 -0.83680000
vn 0.19030000 0.91840000 0.34700000
vn 0.46280000 -0.03060000 0.88590000
vn 0.11350000 -0.93020000 0.34910000
vn 0.37870000 -0.00510000 0.92550000
vt 0.27921700 0.91172700
vt 0.27803100 0.91484300
vt 0.61535200 0.97568800
vt 0.28259000 0.91166000
vt 0.96180600 0.46205000
vt 0.25762600 0.88234000
vt 0.28619900 0.88601500
vt 0.93503500 0.46117300
vt 0.93503500 0.46117300
vt 0.28497300 0.88472400
vt 0.93375000 0.46177000
vt 0.27787000 0.87915600
vt 0.44106900 0.93285900
vt 0.94898300 0.46126600
vt 0.28477200 0.89944500
vt 0.12924400 0.89953500
vt 0.94928900 0.46024400
vt 0.93526500 0.46040500
vt 0.93526500 0.46040500
vt 0.93507200 0.45963000
vt 0.93507200 0.45963000
vt 0.12779900 0.88516500
vt 0.28292300 0.88259000
vt 0.93142200 0.46215200
vt 0.44144900 0.92830400
vt 0.12900600 0.88401500
vt 0.93381600 0.45898900
vt 0.93139500 0.45832400
vt 0.43787400 0.92826200
vt 0.13128500 0.88178600
vt 0.13467200 0.91279400
vt 0.13605800 0.87873900
vt 0.43489800 0.93240900
vt 0.14119100 0.87671100
vt 0.43257600 0.93708900
vt 0.15619900 0.88298600
vt 0.43788500 0.93252800
vt 0.43643400 0.93733300
vt 0.43534600 0.94261600
vt 0.27271300 0.87696900
vt 0.44061900 0.93767500
vt 0.26715300 0.87576600
vt 0.44041100 0.94303000
vt 0.26165800 0.87567500
vt 0.44061000 0.94848200
vt 0.43466400 0.94817400
vt 0.43441200 0.95379300
vt 0.42928400 0.94762100
vt 0.15216400 0.87580300
vt 0.42839600 0.95324400
vt 0.15775300 0.87705700
vt 0.43067800 0.94232000
vt 0.14672800 0.87567500
vt 0.42876300 0.95966400
vt 0.16385200 0.87980300
vt 0.43004800 0.95893900
vt 0.43036200 0.96427200
vt 0.16803800 0.88221800
vt 0.43460100 0.95925800
vt 0.43522400 0.96435800
vt 0.24588000 0.88223800
vt 0.44075100 0.96499900
vt 0.43625700 0.96889700
vt 0.32147800 0.96963900
vt 0.31769900 0.96902300
vt 0.43988100 0.96908900
vt 0.24221900 0.88607800
vt 0.32531000 0.96966000
vt 0.17174300 0.88543600
vt 0.43287800 0.96857800
vt 0.32374600 0.96528100
vt 0.17496700 0.88991400
vt 0.32445700 0.93874700
vt 0.17653100 0.91660000
vt 0.17578600 0.92704300
vt 0.32531000 0.92830500
vt 0.40638200 0.98293900
vt 0.23743900 0.91638600
vt 0.32339800 0.93916100
vt 0.17653100 0.89343700
vt 0.32272400 0.96176800
vt 0.23743900 0.89518300
vt 0.32155100 0.96145200
vt 0.31988500 0.96497500
vt 0.23901600 0.89107400
vt 0.40535200 0.98311700
vt 0.23822500 0.92664600
vt 0.32426500 0.92826200
vt 0.40405800 0.97949200
vt 0.23900600 0.92278600
vt 0.40247500 0.97586400
vt 0.24065700 0.91868100
vt 0.40604900 0.97701400
vt 0.17424800 0.92107900
vt 0.96327400 0.90218100
vt 0.40638200 0.97180600
vt 0.17089300 0.91583200
vt 0.16585100 0.91133000
vt 0.95825900 0.90095000
vt 0.16257900 0.88781000
vt 0.96003700 0.90450100
vt 0.96316600 0.90491500
vt 0.40354100 0.97198500
vt 0.96327400 0.90776700
vt 0.40087600 0.97300500
vt 0.24303700 0.91515000
vt 0.95826600 0.90778000
vt 0.24805100 0.91054800
vt 0.25125300 0.88709100
vt 0.44144900 0.96059500
vt 0.24998400 0.87943700
vt 0.43955200 0.95963300
vt 0.25575000 0.87678800
vt 0.44114500 0.95451500
vt 0.26714100 0.90764500
vt 0.93913800 0.90784200
vt 0.26127200 0.90663800
vt 0.94502400 0.90785300
vt 0.25407200 0.90777500
vt 0.95224000 0.90780400
vt 0.95227300 0.90395600
vt 0.94793600 0.90384500
vt 0.95635900 0.90417700
vt 0.15981000 0.90868400
vt 0.95223200 0.90020800
vt 0.94501600 0.89989000
vt 0.15259200 0.90771700
vt 0.93915400 0.90019800
vt 0.14673900 0.90884400
vt 0.94351400 0.90385000
vt 0.93917800 0.90397000
vt 0.93509400 0.90420000
vt 0.93506600 0.90752200
vt 0.27121900 0.90933000
vt 0.93139500 0.90730100
vt 0.61535200 0.97918200
vt 0.27488700 0.91174400
vt 0.61974200 0.97510900
vt 0.13591000 0.91588600
vt 0.93141900 0.90453200
vt 0.61811500 0.97897300
vt 0.14014800 0.91190100
vt 0.62115700 0.97933000
vt 0.93255600 0.90150300
vt 0.61789500 0.97180600
vt 0.13366400 0.91920500
vt 0.96853600 0.46032500
vt 0.61608700 0.97206700
vt 0.28031800 0.91829400
vt 0.96854800 0.46215200
vt 0.13136300 0.91239200
vt 0.96193000 0.46012500
f 2/2/2 1/1/1 4/4/4
f 1/1/1 2/2/2 6/6/6
f 15/15/15 4/4/4 1/1/1
f 12/12/12 1/1/1 6/6/6
f 10/10/10 7/7/7 1/1/1
f 15/15/15 1/1/1 7/7/7
f 12/12/12 10/10/10 1/1/1
f 8/8/8 19/19/19 14/14/14
f 5/5/5 14/14/14 17/17/17
f 14/14/14 19/19/19 17/17/17
f 21/21/21 18/18/18 27/27/27
f 19/19/19 20/20/20 17/17/17
f 18/18/18 9/9/9 11/11/11
f 24/24/24 18/18/18 11/11/11
f 18/18/18 24/24/24 27/27/27
f 30/30/30 32/32/32 26/26/26
f 24/24/24 28/28/28 27/27/27
f 26/26/26 32/32/32 31/31/31
f 22/22/22 26/26/26 31/31/31
f 29/29/29 37/37/37 33/33/33
f 38/38/38 35/35/35 33/33/33
f 34/34/34 36/36/36 32/32/32
f 32/32/32 36/36/36 31/31/31
f 38/38/38 33/33/33 37/37/37
f 35/35/35 38/38/38 39/39/39
f 41/41/41 39/39/39 38/38/38
f 38/38/38 37/37/37 13/13/13
f 38/38/38 13/13/13 41/41/41
f 40/40/40 12/12/12 6/6/6
f 42/42/42 40/40/40 6/6/6
f 41/41/41 43/43/43 39/39/39
f 44/44/44 42/42/42 6/6/6
f 46/46/46 43/43/43 45/45/45
f 46/46/46 39/39/39 43/43/43
f 46/46/46 47/47/47 50/50/50
f 45/45/45 47/47/47 46/46/46
f 46/46/46 48/48/48 52/52/52
f 46/46/46 50/50/50 48/48/48
f 46/46/46 52/52/52 39/39/39
f 35/35/35 39/39/39 52/52/52
f 53/53/53 49/49/49 36/36/36
f 34/34/34 53/53/53 36/36/36
f 51/51/51 55/55/55 36/36/36
f 51/51/51 36/36/36 49/49/49
f 47/47/47 56/56/56 50/50/50
f 50/50/50 56/56/56 54/54/54
f 54/54/54 56/56/56 57/57/57
f 56/56/56 60/60/60 57/57/57
f 56/56/56 59/59/59 60/60/60
f 47/47/47 59/59/59 56/56/56
f 59/59/59 62/62/62 60/60/60
f 60/60/60 62/62/62 66/66/66
f 60/60/60 70/70/70 57/57/57
f 60/60/60 63/63/63 70/70/70
f 60/60/60 66/66/66 63/63/63
f 64/64/64 71/71/71 68/68/68
f 69/69/69 72/72/72 74/74/74
f 58/58/58 69/69/69 74/74/74
f 73/73/73 79/79/79 76/76/76
f 58/58/58 74/74/74 75/75/75
f 83/83/83 79/79/79 73/73/73
f 72/72/72 80/80/80 74/74/74
f 83/83/83 73/73/73 81/81/81
f 83/83/83 81/81/81 71/71/71
f 84/84/84 83/83/83 71/71/71
f 82/82/82 85/85/85 78/78/78
f 64/64/64 65/65/65 84/84/84
f 67/67/67 78/78/78 85/85/85
f 64/64/64 84/84/84 71/71/71
f 61/61/61 78/78/78 67/67/67
f 61/61/61 87/87/87 78/78/78
f 79/79/79 88/88/88 76/76/76
f 77/77/77 86/86/86 89/89/89
f 90/90/90 87/87/87 61/61/61
f 93/93/93 89/89/89 91/91/91
f 61/61/61 92/92/92 90/90/90
f 89/89/89 93/93/93 77/77/77
f 96/96/96 93/93/93 91/91/91
f 58/58/58 75/75/75 94/94/94
f 94/94/94 97/97/97 58/58/58
f 55/55/55 58/58/58 97/97/97
f 101/101/101 99/99/99 95/95/95
f 100/100/100 97/97/97 98/98/98
f 100/100/100 55/55/55 97/97/97
f 102/102/102 101/101/101 95/95/95
f 91/91/91 103/103/103 96/96/96
f 101/101/101 102/102/102 104/104/104
f 103/103/103 91/91/91 105/105/105
f 104/104/104 107/107/107 101/101/101
f 108/108/108 106/106/106 109/109/109
f 106/106/106 111/111/111 109/109/109
f 61/61/61 106/106/106 92/92/92
f 111/111/111 106/106/106 61/61/61
f 114/114/114 110/110/110 112/112/112
f 110/110/110 62/62/62 112/112/112
f 111/111/111 113/113/113 6/6/6
f 6/6/6 109/109/109 111/111/111
f 45/45/45 114/114/114 47/47/47
f 114/114/114 59/59/59 47/47/47
f 44/44/44 6/6/6 113/113/113
f 114/114/114 112/112/112 59/59/59
f 59/59/59 112/112/112 62/62/62
f 6/6/6 115/115/115 109/109/109
f 109/109/109 115/115/115 117/117/117
f 109/109/109 117/117/117 119/119/119
f 109/109/109 119/119/119 108/108/108
f 120/120/120 121/121/121 123/123/123
f 122/122/122 121/121/121 120/120/120
f 120/120/120 123/123/123 107/107/107
f 122/122/122 120/120/120 118/118/118
f 123/123/123 121/121/121 125/125/125
f 107/107/107 123/123/123 101/101/101
f 101/101/101 123/123/123 99/99/99
f 123/123/123 125/125/125 99/99/99
f 125/125/125 121/121/121 122/122/122
f 100/100/100 98/98/98 124/124/124
f 125/125/125 122/122/122 126/126/126
f 100/100/100 124/124/124 127/127/127
f 126/126/126 122/122/122 130/130/130
f 131/131/131 128/128/128 126/126/126
f 100/100/100 127/127/127 129/129/129
f 130/130/130 131/131/131 126/126/126
f 118/118/118 116/116/116 131/131/131
f 116/116/116 133/133/133 131/131/131
f 133/133/133 132/132/132 131/131/131
f 131/131/131 132/132/132 128/128/128
f 131/131/131 130/130/130 118/118/118
f 134/134/134 115/115/115 6/6/6
f 135/135/135 132/132/132 133/133/133
f 6/6/6 137/137/137 134/134/134
f 6/6/6 2/2/2 137/137/137
f 136/136/136 3/3/3 138/138/138
f 135/135/135 140/140/140 132/132/132
f 138/138/138 141/141/141 136/136/136
f 141/141/141 138/138/138 143/143/143
f 132/132/132 140/140/140 144/144/144
f 132/132/132 144/144/144 128/128/128
f 36/36/36 142/142/142 139/139/139
f 36/36/36 129/129/129 142/142/142
f 31/31/31 36/36/36 139/139/139
f 145/145/145 138/138/138 148/148/148
f 146/146/146 151/151/151 139/139/139
f 148/148/148 138/138/138 3/3/3
f 151/151/151 31/31/31 139/139/139
f 31/31/31 151/151/151 16/16/16
f 5/5/5 17/17/17 152/152/152
f 5/5/5 152/152/152 150/150/150
f 152/152/152 147/147/147 150/150/150
f 4/4/4 149/149/149 2/2/2
f 130/130/130 122/122/122 118/118/118
f 36/36/36 100/100/100 129/129/129
f 36/36/36 55/55/55 100/100/100
f 37/37/37 29/29/29 25/25/25
f 37/37/37 25/25/25 13/13/13
f 31/31/31 16/16/16 22/22/22
f 12/12/12 23/23/23 10/10/10

