# ('FARMS composite mesh',)
v -2.51984300 4.08382300 -6.52845800
v -2.03018100 5.56402900 -6.38940100
v -2.17955100 5.60146000 -6.11671200
v -5.58590700 6.11883300 0.99889700
v -5.72084400 5.80812000 0.83933800
v -5.10045100 5.73127500 -0.51433200
v 1.07873900 -5.37920000 -5.48458600
v 1.08815200 -4.19288100 -6.46339600
v -1.59339100 -5.96395700 -4.37455000
v -0.27559900 -4.82545500 -5.46600900
v -1.94110000 -5.65070300 -6.25006800
v -0.63357600 -5.79358700 -4.14784600
v -2.03050600 -5.12312600 -6.49198000
v -1.83205600 -3.15269900 -6.64958400
v -1.71113400 -4.86235100 -5.61846300
v 0.04607200 -3.31794300 -6.61372000
v -2.24703600 -3.85430500 -6.55672600
v -2.89872700 -2.49035800 -6.57614300
v -1.96725500 -3.35124100 -5.16734800
v -0.76873000 -2.13732900 -6.71702500
v -1.58436600 -4.81245900 -4.32430800
v -2.63441900 -2.06790000 -5.07201000
v -3.20828000 -1.60447200 -5.71903700
v -1.55402700 -0.87463500 -6.47038400
v -2.57899600 0.63454200 -5.49705700
v -3.35102200 -1.18654700 -4.28127700
v -4.20933100 0.06554200 -2.32847700
v -3.03188500 1.97525800 -4.50308300
v -3.86767600 -0.98346400 -3.11161600
v -4.22031800 -0.59766700 -4.58705300
v -3.94497200 1.34794300 -2.79993700
v -4.15402700 1.82946900 -1.60598500
v -3.71452700 1.25840600 -4.07662400
v -4.80079600 1.08290000 -2.10700600
v -5.87242100 1.50730800 -1.02003100
v -4.85131900 2.38413300 -0.44586900
v -4.51981000 0.74164500 -4.62451400
v -5.80286700 0.65260100 -2.56171800
v -6.90603200 0.57941200 -3.12314300
v -7.34182300 1.85020400 -0.92774500
v -6.15948100 0.39834400 -4.77739000
v -5.37434500 0.75929600 -5.86022900
v -5.47887600 0.00366400 -6.46999800
v -1.87640600 2.36538900 -6.69569000
v -5.49263000 -0.54644700 -5.91397000
v -4.64628500 1.29539900 -6.48444900
v -4.90189400 -0.98473600 -6.45583300
v -7.41483800 -0.19507900 -2.39073200
v -6.52131000 -0.30334600 -4.12409700
v -4.24993000 -1.21207500 -6.52058500
v -3.15786300 2.65378400 -6.53674600
v -3.27040300 1.92029600 -5.60433100
v -2.23975000 3.73807100 -5.50463900
v -2.51984300 4.08382300 -6.52845800
v -2.03018100 5.56402900 -6.38940100
v -2.17955100 5.60146000 -6.11671200
v -1.88107500 5.13877100 -4.73007200
v -1.94448800 5.94102600 -5.04683600
v -1.74684000 6.27038200 -1.04927800
v -0.70226200 5.70580100 -4.18274200
v 0.31918700 5.13083800 -5.46823800
v -1.90297400 6.00120700 -3.91403900
v -1.32516900 5.98346000 -2.95378000
v -2.02316700 5.26746700 -3.01561000
v -2.47623300 5.38300400 -1.62755300
v -2.67906500 5.41242200 0.71125500
v -3.33948800 4.36239700 -0.50427500
v -3.34939700 5.68455100 -0.34402000
v -2.28496800 5.61691200 -2.03047500
v -2.52257000 5.68163000 -2.38319000
v -3.34788400 5.63806800 -1.82629600
v -3.77108300 5.63079400 -0.71207100
v -4.10791900 6.14216200 -1.31310800
v -2.97661600 6.13761900 -2.67841400
v -5.17240000 6.54004200 1.83310600
v -5.44058500 5.54743300 3.45863200
v -5.58590700 6.11883300 0.99889700
v -6.31478900 5.06263000 0.85083000
v -6.58613600 4.37239400 1.91965900
v -4.29692600 6.59089700 3.73737100
v -1.52416600 6.37971900 1.35600000
v -1.09480500 6.22362500 2.74535400
v -2.60819600 4.59493500 3.03892700
v -0.79954700 5.63873500 4.12053800
v -0.80617700 4.39996100 5.42475300
v -1.71104600 3.84232600 5.15022300
v -4.04978700 5.77054200 5.24549100
v -4.16922300 4.18585400 6.51843000
v -5.30324600 4.25222000 5.11420000
v -6.14985100 2.09804400 5.13632600
v -6.76637900 2.61942100 3.54591800
v -5.17044400 2.07269400 6.49921100
v -5.40193200 -0.55280500 6.54403400
v -4.42065000 1.67270600 7.30540800
v -4.39865100 0.00000100 7.51800700
v -0.54730400 0.02844300 7.15992300
v -1.08537500 -1.73141900 6.65658100
v -4.44440000 -1.96331700 7.23337500
v -1.01455900 2.70991600 6.30799300
v -4.16425600 -4.17998400 6.52440100
v -1.55494300 0.81524200 6.48952800
v -2.58751100 -0.51530800 5.50162600
v -2.38491000 1.63897300 5.52049100
v -3.39938600 0.52073400 4.32785400
v -3.17609800 2.91819300 3.79181500
v -3.61525000 3.67607200 1.46682000
v -3.96390500 0.76807300 3.03892800
v -4.37667100 1.55391700 0.73272400
v -4.49084800 -0.13202600 0.76420600
v -3.95796900 2.98681400 -0.61411600
v -4.50405400 4.27055500 0.40857100
v -5.47451700 3.41965200 0.42703700
v -5.72084400 5.80812000 0.83933800
v -4.21504400 5.67447900 0.30871700
v -4.47643000 5.50686600 -0.56169900
v -5.10045100 5.73127500 -0.51433200
v -7.07079000 3.50734500 0.34781900
v -6.47679800 2.64921000 0.02450300
v -7.46650200 2.04746200 -0.44063900
v -7.50315000 1.04652600 1.81088200
v -7.24324600 -2.63654400 1.76335500
v -7.67099300 0.00000000 -0.00000100
v -7.10744000 -0.78545700 3.48819000
v -6.35079500 -0.88579500 5.13632500
v -6.23275400 -3.99777100 3.66894300
v -4.34938700 -6.61081500 3.65567700
v -5.58612300 -3.65866900 5.18066400
v -6.25564000 -5.01585800 1.79587100
v -4.05008700 -5.78210400 5.22964600
v -0.79551900 -5.58424900 4.22239400
v -0.84651000 -4.23872800 5.55310500
v -2.05796100 -2.58644300 5.51603200
v -2.11413800 -4.15165000 4.40437200
v -3.18144900 -1.95502000 4.29356700
v -2.70269900 -4.54293800 2.93913200
v -1.09532000 -6.21799300 2.77539700
v -1.52869400 -6.37640200 1.37280000
v -5.18299600 -6.53145900 1.80892300
v -2.58908100 -6.14140000 -2.91901800
v -5.58768800 -6.11664000 0.99633300
v -1.72677700 -6.27473100 -1.01097600
v -3.89335200 -6.20508000 -1.34955000
v -3.00499900 -5.48789700 -1.85177600
v -3.75546600 -5.80981300 -1.22023500
v -5.21345900 -5.71461300 -0.32925200
v -5.48298800 -5.65741800 0.86233600
v -5.77361200 -5.76374100 0.83765700
v -4.16550400 -5.36930900 -0.55537600
v -3.90930600 -5.53716400 0.30848000
v -3.46536400 -5.49426200 -0.71331200
v -3.13384900 -5.55640800 -0.27762800
v -2.53566600 -5.46779200 -1.01536300
v -3.20949600 -4.60835200 -0.25408400
v -4.38914900 -4.74802500 0.56726300
v -3.81998900 -3.40147600 -0.14340300
v -2.96659700 -4.86202200 1.40188800
v -4.12419400 -2.21050300 1.52909200
v -3.79201900 -1.96586900 2.98777600
v -4.36904700 -1.51319300 -0.00000100
v -4.24823800 -1.43303900 -1.57165900
v -4.14709800 -2.28550200 -0.63869400
v -5.17420900 -3.31779700 0.44847100
v -6.15779400 -2.53130200 0.03654000
v -6.00882300 -1.23590200 -1.11821800
v -4.93602800 -0.54674900 -2.71462300
v -6.40206200 -0.67864400 -2.28792400
v -7.31588300 -1.99721400 -0.81337600
v -7.11154800 -0.84436400 -2.45693400
v -7.06580700 -3.47107500 0.31415600
v -7.45522100 -2.08291900 -0.39543800
v -6.69907200 -4.37100600 0.70951500
v -6.18162700 -5.22649100 0.84331200
v -5.39704600 -0.26997000 -4.52883100
v -2.09190600 -5.51593100 -2.24742200
v -1.70218100 -5.57944900 -3.02028000
v -1.29247100 -6.01823700 -2.93989900
v -7.46343900 0.51425000 -2.04607700
v -1.94087600 4.60131300 -4.10698700
v -0.98010600 4.27966800 -5.45131800
v -2.40322700 2.97465100 -4.91471100
v -1.22001900 0.93480800 -6.69959000
v -0.79894500 2.05160700 -6.70184000
v -0.06673900 3.20587800 -6.62343600
v 1.07153500 4.36506400 -6.33550700
vn -0.81349737 0.31503510 -0.48885060
vn -0.81349737 0.31503510 -0.48885060
vn -0.81349737 0.31503510 -0.48885060
vn -0.76178297 0.52543210 -0.37895621
vn -0.76178297 0.52543210 -0.37895621
vn -0.76178297 0.52543210 -0.37895621
vn 0.92921516 -0.32423579 0.17728605
vn 0.91401236 0.24793478 -0.32110707
vn -0.59696120 -0.79189765 -0.12859023
vn 0.41526255 0.59278771 0.69004330
vn -0.59453242 -0.65542938 -0.46577198
vn 0.76860969 -0.39669143 0.50187156
vn -0.70893995 -0.34715360 -0.61391247
vn -0.04820966 -0.05679890 -0.99722100
vn -0.97128580 -0.07256336 0.22657991
vn 0.73093342 0.54894812 -0.40545319
vn -0.77289327 -0.27563343 -0.57154370
vn -0.68670944 -0.45980812 -0.56303343
vn -0.31150319 0.07270637 0.94745952
vn 0.80548281 0.40325189 -0.43426416
vn -0.45658993 0.58901296 0.66677535
vn -0.06589921 -0.39632036 0.91574422
vn -0.65475465 -0.69704249 0.29228087
vn 0.58233814 0.09815492 0.80699932
vn 0.76977418 -0.07505004 0.63388895
vn 0.25970699 -0.77165476 0.58060418
vn 0.96846153 -0.01353110 0.24879544
vn 0.08458994 0.59730504 0.79754074
vn 0.50414680 -0.84543898 0.17626383
vn -0.42356480 -0.90192348 0.08442097
vn 0.51566934 0.84012729 0.16814064
vn 0.59917993 0.64750477 -0.47087258
vn -0.63072405 0.77353841 -0.06185065
vn -0.35937360 0.84758244 -0.39045437
vn -0.04778852 0.78907039 -0.61244116
vn -0.33850254 0.60662225 -0.71932292
vn -0.40808342 0.91058063 0.06565699
vn -0.07291375 0.94777936 -0.31048005
vn -0.57028403 0.69045491 -0.44502600
vn -0.46093569 0.66740632 -0.58489922
vn -0.62274784 0.73461073 -0.26931804
vn -0.63809782 0.75510074 -0.15051262
vn -0.63637253 0.01004899 -0.77131642
vn -0.04248150 0.04550592 -0.99806039
vn -0.63674245 -0.75598431 -0.15181168
vn -0.50677331 0.62695493 -0.59169952
vn -0.43159186 -0.76966078 -0.47047927
vn -0.93901337 -0.09828483 -0.32953601
vn -0.54349646 -0.77000048 -0.33423174
vn -0.43773595 -0.68112297 -0.58690608
vn -0.68528388 0.44973017 -0.57282526
vn -0.71261994 0.64800724 0.26881115
vn -0.92868525 0.29150839 0.22927401
vn -0.74718616 0.27185297 -0.60647242
vn 0.12185170 0.70093527 -0.70273886
vn -0.72868840 0.68465063 -0.01633169
vn -0.99336527 0.06747341 0.09312775
vn -0.56765086 0.82058551 -0.06642229
vn 0.90195255 0.42995603 0.04024195
vn 0.84243202 0.37415728 0.38770429
vn 0.83392242 0.40438230 0.37556404
vn -0.96819580 0.23920892 -0.07332110
vn 0.90123474 0.33787502 0.27132346
vn -0.41115123 -0.88077236 0.23493556
vn -0.14411097 -0.90613856 -0.39767441
vn 0.76687149 -0.63533049 -0.09090256
vn 0.26107933 -0.43977302 -0.85932373
vn -0.50570559 -0.68433384 -0.52530853
vn -0.74419451 -0.57598566 -0.33825294
vn -0.19341628 -0.92952848 -0.31395372
vn -0.40388411 -0.85391318 -0.32819187
vn -0.01874293 -0.97925101 -0.20178246
vn -0.69594398 0.29518288 -0.65462130
vn -0.60448248 0.36344424 -0.70887884
vn -0.45600502 0.88874863 0.04674702
vn -0.76882577 0.53940943 0.34343034
vn -0.66538390 0.73856187 -0.10858467
vn -0.68890492 0.48425630 -0.53935688
vn -0.89389441 0.40823963 0.18518420
vn -0.24222959 0.92277535 0.29968396
vn 0.87626950 0.43462006 -0.20798356
vn 0.90307922 0.40395995 -0.14582276
vn 0.74787104 -0.56025253 -0.35609833
vn 0.95336384 0.28848426 0.08873677
vn 0.96871460 0.08614058 0.23274843
vn 0.63752530 -0.46633942 -0.61326099
vn -0.22152145 0.74039314 0.63462292
vn -0.25414658 0.47873662 0.84036942
vn -0.76006221 0.41704258 0.49837829
vn -0.85071588 0.18780161 0.49093079
vn -0.91236110 0.24659570 0.32678400
vn -0.73325955 0.20533108 0.64820490
vn -0.76821026 -0.06598373 0.63678814
vn -0.31385227 0.20630619 0.92678720
vn -0.32037272 0.00269063 0.94728775
vn 0.94916209 -0.00212549 0.31478057
vn 0.95129509 -0.20152440 0.23329288
vn -0.34873153 -0.24687446 0.90412351
vn 0.96568030 0.09273905 0.24261293
vn -0.25661499 -0.47983202 0.83899343
vn 0.59173217 -0.10700623 -0.79900107
vn 0.75803938 0.06527559 -0.64893405
vn 0.73684718 -0.20382233 -0.64460274
vn 0.87027117 -0.05091745 -0.48993419
vn 0.84558962 -0.32455117 -0.42384518
vn 0.90202388 -0.39697093 -0.16960839
vn 0.94453890 -0.08562018 -0.31704172
vn 0.98127904 -0.17516588 -0.08005225
vn 0.99687008 0.01391961 -0.07782222
vn 0.53268403 0.16937617 -0.82919204
vn -0.42490005 0.20983422 -0.88058477
vn -0.16053534 0.39002397 -0.90670266
vn -0.58997774 0.19645421 -0.78315517
vn -0.38245505 -0.70327648 -0.59927484
vn -0.11195508 -0.94824518 -0.29714834
vn -0.77889977 -0.27590386 -0.56319820
vn -0.67786622 0.49843424 -0.54042641
vn 0.10545663 0.56681205 -0.81706976
vn -0.94616499 0.27935610 -0.16349920
vn -0.98094650 0.09573019 0.16905531
vn -0.95783762 -0.23415556 0.16648803
vn -0.99988321 -0.01398407 0.00616563
vn -0.94483473 -0.07109013 0.31973978
vn -0.86400430 -0.09314060 0.49479430
vn -0.84706615 -0.39642593 0.35401331
vn -0.29692824 -0.90906882 0.29227984
vn -0.78059802 -0.35528636 0.51423568
vn -0.85178164 -0.49271024 0.17805802
vn -0.24529819 -0.74302346 0.62269169
vn 0.95367536 -0.27784780 0.11534258
vn 0.95982102 -0.11077186 0.25782397
vn 0.68163001 0.31288576 -0.66142500
vn 0.69617449 0.49791032 -0.51713286
vn 0.84286232 0.22762288 -0.48761761
vn 0.77666036 0.52786566 -0.34373904
vn 0.90058343 -0.40764730 -0.15090782
vn 0.88511621 -0.43741591 -0.15886037
vn -0.46268182 -0.88377981 0.06970489
vn -0.60389640 -0.41042769 -0.68327026
vn -0.68029436 -0.71372063 -0.16674066
vn 0.90581140 -0.42239077 0.03304169
vn -0.59055438 -0.48599473 -0.64424734
vn -0.39517205 0.85499695 -0.33588579
vn -0.49393767 0.64513173 -0.58294994
vn -0.80241195 0.20589432 -0.56012729
vn -0.25009119 0.53597401 -0.80634128
vn -0.67823073 -0.23582158 -0.69598222
vn -0.13012382 0.95085594 -0.28096400
vn -0.37789205 0.71851970 -0.58388958
vn -0.02312698 0.99127302 -0.12978035
vn -0.48377387 0.72679018 -0.48758473
vn 0.36436531 0.93021796 -0.04395987
vn 0.24287624 0.47735384 -0.84447880
vn -0.36024603 -0.11004674 -0.92634363
vn 0.49365565 0.03834827 -0.86881155
vn 0.81265201 0.56174402 -0.15504957
vn 0.95120216 0.25599723 -0.17227848
vn 0.91800293 0.21815127 -0.33118068
vn 0.98699341 0.16042742 0.01034656
vn 0.66235402 -0.65060602 -0.37148211
vn 0.69548530 -0.32554357 -0.64056349
vn -0.16773177 -0.38989678 -0.90545378
vn 0.07284381 -0.56532285 -0.82164704
vn 0.03544968 -0.79191847 -0.60959696
vn -0.22855487 -0.92931487 -0.29006301
vn 0.15460651 -0.92087691 -0.35788621
vn -0.41697247 -0.65095374 -0.63434468
vn -0.41375885 -0.76938185 -0.48667770
vn -0.62441506 -0.54275195 -0.56171715
vn -0.95117190 -0.26519126 -0.15794181
vn -0.71223630 -0.45892612 -0.53113678
vn -0.89871029 -0.43777276 -0.02597726
vn -0.10085297 -0.99325112 0.05727907
vn 0.35118975 0.93221163 0.08744852
vn 0.07895327 0.99345718 0.08251795
vn 0.89190210 -0.34900708 0.28758425
vn -0.94071090 0.19065759 -0.28055780
vn -0.46986739 -0.58094466 0.66462616
vn 0.52116230 -0.51370112 0.68154312
vn 0.01633191 0.13886146 0.99017714
vn 0.89694614 -0.18492175 -0.40161122
vn 0.83447170 -0.36779168 -0.41034895
vn 0.75997822 -0.50537477 -0.40869237
vn 0.97776107 -0.04898305 -0.20392142
f 2//2 1//1 3//3
f 6//6 5//5 4//4
f 13//13 8//8 7//7
f 7//7 8//8 10//10
f 9//9 7//7 12//12
f 7//7 9//9 11//11
f 10//10 12//12 7//7
f 13//13 7//7 11//11
f 8//8 13//13 16//16
f 15//15 13//13 11//11
f 14//14 13//13 17//17
f 13//13 14//14 16//16
f 17//17 13//13 15//15
f 19//19 18//18 17//17
f 17//17 18//18 14//14
f 17//17 15//15 19//19
f 22//22 19//19 20//20
f 19//19 16//16 20//20
f 19//19 15//15 21//21
f 10//10 19//19 21//21
f 19//19 22//22 18//18
f 19//19 10//10 16//16
f 22//22 23//23 18//18
f 26//26 23//23 22//22
f 22//22 24//24 25//25
f 22//22 20//20 24//24
f 22//22 25//25 26//26
f 26//26 30//30 23//23
f 26//26 27//27 29//29
f 26//26 31//31 27//27
f 25//25 28//28 26//26
f 28//28 31//31 26//26
f 30//30 26//26 29//29
f 31//31 28//28 33//33
f 34//34 32//32 31//31
f 31//31 32//32 27//27
f 34//34 31//31 33//33
f 35//35 36//36 34//34
f 35//35 34//34 38//38
f 34//34 36//36 32//32
f 34//34 33//33 37//37
f 34//34 37//37 38//38
f 39//39 38//38 41//41
f 40//40 38//38 39//39
f 40//40 35//35 38//38
f 38//38 37//37 41//41
f 41//41 37//37 42//42
f 43//43 41//41 42//42
f 43//43 39//39 41//41
f 44//44 43//43 51//51
f 43//43 44//44 20//20
f 20//20 14//14 43//43
f 50//50 43//43 14//14
f 43//43 45//45 49//49
f 43//43 47//47 45//45
f 43//43 46//46 51//51
f 42//42 46//46 43//43
f 50//50 47//47 43//43
f 39//39 43//43 48//48
f 43//43 49//49 48//48
f 52//52 51//51 46//46
f 52//52 53//53 51//51
f 54//54 51//51 53//53
f 51//51 54//54 44//44
f 53//53 56//56 54//54
f 54//54 55//55 44//44
f 57//57 56//56 53//53
f 57//57 58//58 56//56
f 58//58 55//55 56//56
f 58//58 57//57 62//62
f 58//58 59//59 63//63
f 59//59 58//58 62//62
f 61//61 55//55 58//58
f 63//63 60//60 58//58
f 58//58 60//60 61//61
f 60//60 63//63 64//64
f 63//63 59//59 65//65
f 64//64 63//63 65//65
f 65//65 66//66 67//67
f 65//65 59//59 66//66
f 65//65 67//67 68//68
f 69//69 64//64 65//65
f 69//69 65//65 68//68
f 69//69 68//68 71//71
f 71//71 70//70 69//69
f 69//69 70//70 62//62
f 69//69 62//62 64//64
f 70//70 71//71 74//74
f 72//72 71//71 68//68
f 72//72 73//73 71//71
f 74//74 71//71 73//73
f 74//74 75//75 59//59
f 73//73 75//75 74//74
f 62//62 74//74 59//59
f 62//62 70//70 74//74
f 76//76 75//75 79//79
f 76//76 80//80 75//75
f 77//77 75//75 73//73
f 75//75 77//77 78//78
f 79//79 75//75 78//78
f 82//82 75//75 80//80
f 82//82 81//81 75//75
f 81//81 59//59 75//75
f 66//66 81//81 82//82
f 83//83 82//82 84//84
f 66//66 82//82 83//83
f 80//80 84//84 82//82
f 86//86 84//84 85//85
f 85//85 84//84 87//87
f 83//83 84//84 86//86
f 87//87 84//84 80//80
f 87//87 88//88 85//85
f 89//89 88//88 87//87
f 76//76 89//89 87//87
f 80//80 76//76 87//87
f 91//91 89//89 76//76
f 89//89 90//90 92//92
f 91//91 90//90 89//89
f 89//89 92//92 88//88
f 94//94 92//92 93//93
f 90//90 93//93 92//92
f 94//94 88//88 92//92
f 94//94 93//93 95//95
f 94//94 95//95 96//96
f 88//88 94//94 96//96
f 96//96 97//97 101//101
f 97//97 96//96 100//100
f 95//95 98//98 96//96
f 96//96 98//98 100//100
f 96//96 101//101 99//99
f 88//88 96//96 99//99
f 99//99 101//101 103//103
f 97//97 102//102 101//101
f 103//103 101//101 102//102
f 104//104 103//103 102//102
f 105//105 103//103 104//104
f 103//103 86//86 99//99
f 105//105 86//86 103//103
f 106//106 83//83 105//105
f 108//108 106//106 105//105
f 83//83 86//86 105//105
f 107//107 105//105 104//104
f 108//108 105//105 107//107
f 108//108 110//110 106//106
f 110//110 108//108 32//32
f 27//27 32//32 108//108
f 27//27 108//108 109//109
f 108//108 107//107 109//109
f 106//106 110//110 67//67
f 36//36 110//110 32//32
f 111//111 67//67 110//110
f 36//36 111//111 110//110
f 112//112 111//111 36//36
f 111//111 112//112 78//78
f 111//111 78//78 113//113
f 114//114 111//111 113//113
f 114//114 67//67 111//111
f 115//115 68//68 114//114
f 68//68 67//67 114//114
f 114//114 113//113 115//115
f 116//116 73//73 115//115
f 115//115 73//73 72//72
f 115//115 72//72 68//68
f 116//116 115//115 113//113
f 77//77 73//73 116//116
f 77//77 113//113 78//78
f 118//118 112//112 36//36
f 78//78 112//112 117//117
f 117//117 112//112 118//118
f 118//118 35//35 40//40
f 36//36 35//35 118//118
f 118//118 40//40 117//117
f 117//117 40//40 119//119
f 79//79 78//78 117//117
f 117//117 120//120 79//79
f 117//117 119//119 120//120
f 121//121 123//123 120//120
f 122//122 121//121 120//120
f 119//119 122//122 120//120
f 120//120 91//91 79//79
f 120//120 123//123 91//91
f 123//123 90//90 91//91
f 123//123 124//124 90//90
f 125//125 124//124 123//123
f 123//123 121//121 125//125
f 125//125 126//126 129//129
f 128//128 126//126 125//125
f 128//128 125//125 121//121
f 125//125 127//127 124//124
f 125//125 129//129 127//127
f 127//127 129//129 100//100
f 129//129 131//131 100//100
f 129//129 130//130 131//131
f 129//129 126//126 130//130
f 132//132 97//97 131//131
f 100//100 131//131 97//97
f 131//131 133//133 132//132
f 131//131 130//130 133//133
f 133//133 134//134 132//132
f 135//135 134//134 133//133
f 133//133 136//136 135//135
f 133//133 130//130 136//136
f 136//136 130//130 126//126
f 135//135 136//136 137//137
f 136//136 138//138 137//137
f 136//136 126//126 138//138
f 142//142 139//139 138//138
f 141//141 138//138 139//139
f 140//140 138//138 128//128
f 138//138 140//140 142//142
f 128//128 138//138 126//126
f 137//137 138//138 141//141
f 142//142 140//140 145//145
f 142//142 143//143 139//139
f 144//144 143//143 142//142
f 142//142 145//145 144//144
f 140//140 147//147 145//145
f 145//145 147//147 146//146
f 148//148 145//145 146//146
f 145//145 148//148 144//144
f 151//151 148//148 149//149
f 149//149 148//148 146//146
f 151//151 150//150 148//148
f 148//148 150//150 144//144
f 149//149 153//153 151//151
f 150//150 151//151 152//152
f 152//152 151//151 153//153
f 154//154 153//153 149//149
f 155//155 153//153 154//154
f 156//156 153//153 155//155
f 156//156 152//152 153//153
f 156//156 155//155 157//157
f 157//157 135//135 156//156
f 156//156 137//137 152//152
f 135//135 137//137 156//156
f 157//157 158//158 135//135
f 109//109 158//158 157//157
f 157//157 155//155 159//159
f 157//157 159//159 109//109
f 159//159 155//155 161//161
f 160//160 159//159 161//161
f 160//160 109//109 159//159
f 164//164 160//160 161//161
f 161//161 162//162 163//163
f 161//161 155//155 162//162
f 163//163 164//164 161//161
f 164//164 166//166 165//165
f 164//164 165//165 160//160
f 168//168 166//166 164//164
f 167//167 168//168 164//164
f 167//167 164//164 163//163
f 168//168 167//167 48//48
f 49//49 166//166 168//168
f 49//49 168//168 48//48
f 170//170 167//167 169//169
f 163//163 169//169 167//167
f 167//167 170//170 48//48
f 170//170 122//122 48//48
f 122//122 170//170 121//121
f 121//121 170//170 169//169
f 163//163 171//171 169//169
f 171//171 128//128 169//169
f 169//169 128//128 121//121
f 171//171 162//162 172//172
f 163//163 162//162 171//171
f 140//140 171//171 172//172
f 171//171 140//140 128//128
f 154//154 172//172 162//162
f 147//147 172//172 146//146
f 154//154 146//146 172//172
f 140//140 172//172 147//147
f 166//166 49//49 165//165
f 173//173 165//165 49//49
f 165//165 173//173 30//30
f 30//30 29//29 165//165
f 165//165 29//29 160//160
f 173//173 49//49 45//45
f 173//173 45//45 30//30
f 162//162 155//155 154//154
f 160//160 27//27 109//109
f 160//160 29//29 27//27
f 135//135 158//158 134//134
f 158//158 104//104 134//134
f 109//109 107//107 158//158
f 158//158 107//107 104//104
f 154//154 149//149 146//146
f 174//174 152//152 141//141
f 152//152 174//174 143//143
f 137//137 141//141 152//152
f 150//150 152//152 143//143
f 143//143 174//174 175//175
f 175//175 174//174 176//176
f 141//141 176//176 174//174
f 176//176 141//141 9//9
f 176//176 12//12 175//175
f 12//12 176//176 9//9
f 9//9 139//139 175//175
f 143//143 175//175 139//139
f 12//12 21//21 175//175
f 9//9 175//175 21//21
f 150//150 143//143 144//144
f 9//9 141//141 139//139
f 134//134 102//102 132//132
f 104//104 102//102 134//134
f 97//97 132//132 102//102
f 124//124 127//127 98//98
f 127//127 100//100 98//98
f 90//90 124//124 93//93
f 124//124 98//98 93//93
f 122//122 119//119 177//177
f 177//177 48//48 122//122
f 48//48 177//177 39//39
f 177//177 119//119 40//40
f 177//177 40//40 39//39
f 106//106 67//67 66//66
f 66//66 83//83 106//106
f 85//85 88//88 99//99
f 99//99 86//86 85//85
f 93//93 98//98 95//95
f 79//79 91//91 76//76
f 66//66 59//59 81//81
f 64//64 62//62 178//178
f 60//60 64//64 178//178
f 179//179 178//178 180//180
f 179//179 60//60 178//178
f 178//178 53//53 180//180
f 57//57 53//53 178//178
f 62//62 57//57 178//178
f 182//182 179//179 180//180
f 180//180 181//181 182//182
f 25//25 181//181 180//180
f 25//25 180//180 28//28
f 53//53 28//28 180//180
f 44//44 182//182 181//181
f 44//44 183//183 182//182
f 182//182 183//183 179//179
f 183//183 184//184 61//61
f 55//55 184//184 183//183
f 183//183 61//61 179//179
f 55//55 183//183 44//44
f 61//61 184//184 55//55
f 20//20 44//44 181//181
f 181//181 24//24 20//20
f 25//25 24//24 181//181
f 60//60 179//179 61//61
f 52//52 28//28 53//53
f 37//37 52//52 46//46
f 33//33 52//52 37//37
f 52//52 33//33 28//28
f 45//45 47//47 50//50
f 45//45 50//50 30//30
f 23//23 50//50 18//18
f 30//30 50//50 23//23
f 18//18 50//50 14//14
f 42//42 37//37 46//46
f 15//15 9//9 21//21
f 12//12 10//10 21//21
f 16//16 14//14 20//20
f 10//10 8//8 16//16
f 15//15 11//11 9//9

