# ('FARMS composite mesh',)
mtllib link_body_04_composite.mtl
usemtl link_body_04_composite
v 0.85644900 -8.04548000 4.93504600
v 0.85644900 -8.04548000 4.93504600
v -4.83745000 -6.38896700 3.51565700
v -0.21160900 -8.03315100 3.84279000
v -0.21160900 -8.03315100 3.84279000
v 0.01036500 -7.00049500 5.74900300
v 0.01036500 -7.00049500 5.74900300
v 0.01036500 -7.00049500 5.74900300
v -4.43082600 -5.65648900 5.18968300
v -4.43082600 -5.65648900 5.18968300
v -4.65428000 -4.02597600 6.25557500
v -5.77887200 -3.70664500 5.08375400
v -5.77887200 -3.70664500 5.08375400
v -5.77887200 -3.70664500 5.08375400
v -5.97645400 -4.79200300 3.57278100
v -5.97645400 -4.79200300 3.57278100
v -6.76231200 -4.32695400 1.84052800
v -6.76231200 -4.32695400 1.84052800
v -6.93599900 -2.36624100 3.59630100
v -7.14289700 0.92449800 3.65786800
v -6.41764300 -0.82649700 5.25428200
v -6.41764300 -0.82649700 5.25428200
v -7.62744000 -0.89219200 1.84052900
v -7.43632400 -2.87877200 -0.00000100
v -7.48393500 1.78637600 1.82138900
v -7.78005100 0.00000000 -0.00000100
v -7.51587600 2.56406900 -0.00000100
v -6.72323800 4.42475100 -1.76556900
v -5.98829900 6.07494300 -0.01241900
v -6.72323800 4.42475100 1.76557100
v -7.60982400 1.06140100 -1.83661100
v -7.48393500 -1.78637500 -1.82139000
v -7.15594700 -0.76547400 -3.65787000
v -6.90530300 2.49542000 -3.60270900
v -6.20990600 2.23562600 -5.21613100
v -5.97645000 4.79200500 -3.57278300
v -5.02426000 4.91715800 -5.21613300
v -4.47605700 6.78411100 -3.59630200
v -2.98622600 7.00965900 -5.09959800
v -2.98622600 7.00965900 -5.09959800
v -2.98622600 7.00965900 -5.09959800
v -4.34247700 4.47346600 -6.32796900
v -4.34247700 4.47346600 -6.32796900
v -2.72730400 6.17514700 -6.14649700
v -2.72730400 6.17514700 -6.14649700
v -1.61540300 4.45893200 -6.33991700
v -1.61540300 4.45893200 -6.33991700
v -0.92742600 5.63800800 -6.19800100
v -0.92742600 5.63800800 -6.19800100
v -0.92742600 5.63800800 -6.19800100
v -1.50792400 7.35109400 -5.41255300
v -1.50792400 7.35109400 -5.41255300
v -0.18070600 6.56637000 -5.97630200
v -0.18070600 6.56637000 -5.97630200
v 0.06560100 7.16566800 -5.59166600
v 0.06560100 7.16566800 -5.59166600
v 0.06560100 7.16566800 -5.59166600
v 0.51601800 8.45396600 -3.89791200
v 0.51601800 8.45396600 -3.89791200
v -0.95746600 7.43792500 -3.97752500
v -0.95746600 7.43792500 -3.97752500
v -3.02817600 4.57834600 -3.90887200
v -2.61550200 6.34895100 -2.00049400
v -2.61550200 6.34895100 -2.00049400
v -2.61550200 6.34895100 -2.00049400
v -2.61550200 6.34895100 -2.00049400
v -0.78965000 8.27526700 -1.97969300
v -0.78965000 8.27526700 -1.97969300
v 0.65084500 9.18472500 -2.03019900
v 0.65084500 9.18472500 -2.03019900
v -0.67079600 8.59753100 0.09036200
v -0.67079600 8.59753100 0.09036200
v -0.67079600 8.59753100 0.09036200
v -0.67079600 8.59753100 0.09036200
v -3.02119500 8.35884300 -1.95051200
v -3.02119500 8.35884300 -1.95051200
v -2.16136200 7.17541100 -0.00000000
v -2.16136200 7.17541100 -0.00000000
v -0.82449700 8.24561100 1.96973100
v -0.82449700 8.24561100 1.96973100
v -0.82449700 8.24561100 1.96973100
v -0.21420700 8.02973700 3.83643700
v -0.21420700 8.02973700 3.83643700
v -0.21420700 8.02973700 3.83643700
v -2.55923200 6.43840900 2.02977700
v -4.40119700 7.64561700 -0.41704400
v -4.40119700 7.64561700 -0.41704400
v -2.15230300 6.09315300 3.90887200
v -2.02805000 4.68756400 5.63768800
v -3.69664900 2.79806400 3.84523100
v -0.87587400 5.64481800 6.27134300
v -0.87587400 5.64481800 6.27134300
v 0.00441700 6.99938800 5.74703000
v 0.00441700 6.99938800 5.74703000
v 0.00441700 6.99938800 5.74703000
v -4.65402000 4.02704000 6.25515900
v -4.65402000 4.02704000 6.25515900
v -4.43650200 5.65725200 5.18336400
v -4.43650200 5.65725200 5.18336400
v -4.43650200 5.65725200 5.18336400
v 0.87422600 8.06466800 4.92159700
v 0.87422600 8.06466800 4.92159700
v 0.87422600 8.06466800 4.92159700
v -4.81465000 6.38315400 3.56763300
v -4.81465000 6.38315400 3.56763300
v -5.27036500 6.59287300 1.90498900
v -5.27036500 6.59287300 1.90498900
v -6.36246300 4.14341800 3.53775100
v -5.76441800 3.69737600 5.12058100
v -5.07942400 2.52482100 6.60569200
v -5.07942400 2.52482100 6.60569200
v -6.34455700 1.51441300 5.18687200
v -5.22892600 0.74447400 6.86620400
v -5.22892600 0.74447400 6.86620400
v -5.22892600 0.74447400 6.86620400
v -5.18556800 -1.94305800 6.71828400
v -5.18556800 -1.94305800 6.71828400
v -5.18556800 -1.94305800 6.71828400
v -1.57904900 3.74161000 6.80322800
v -1.57904900 3.74161000 6.80322800
v -2.22734900 0.57267000 7.10493900
v -2.22734900 0.57267000 7.10493900
v -1.98098400 -2.49046900 6.94047700
v -1.98098400 -2.49046900 6.94047700
v -2.86023800 -2.61192300 5.71224400
v -3.21301400 0.00000100 5.63768800
v -2.89156100 2.47371800 5.73259400
v -3.95982100 -0.83200900 3.97578800
v -3.39976200 -3.58770400 3.88330700
v -4.46954900 -0.90168900 2.07712100
v -4.13095600 3.00617600 1.91902200
v -4.26455500 -3.12899700 -0.00000100
v -3.57412500 -4.61935200 1.91902200
v -3.57412500 -4.61935200 1.91902200
v -4.64714200 0.82092000 -0.00000100
v -4.47567100 0.00000200 -1.97969300
v -4.13095600 3.00617500 -1.91902300
v -3.74096400 4.64586400 -0.00000100
v -4.16370900 -2.82458900 -2.07712100
v -3.67510300 -2.63691200 -3.97579200
v -2.62613000 -6.33341600 -2.00049300
v -2.62613000 -6.33341600 -2.00049300
v -2.32669600 -5.83815700 -3.90887100
v -2.32669600 -5.83815700 -3.90887100
v -4.00715400 0.98502500 -3.84523100
v -3.19950200 -0.90447500 -5.64076000
v -3.19950200 -0.90447500 -5.64076000
v -2.93613900 2.34567000 -5.69897900
v -2.93613900 2.34567000 -5.69897900
v -2.63974100 -0.00008400 -6.51983800
v -2.63974100 -0.00008400 -6.51983800
v -2.63974100 -0.00008400 -6.51983800
v -2.63974100 -0.00008400 -6.51983800
v -2.11591800 3.10625200 -6.45506700
v -2.11591800 3.10625200 -6.45506700
v -2.11591800 3.10625200 -6.45506700
v -5.54958600 -0.00352700 -6.52960700
v -5.54958600 -0.00352700 -6.52960700
v -5.41019200 2.02326800 -6.41743800
v -5.41019200 2.02326800 -6.41743800
v -6.46885500 0.00000000 -5.18687200
v -6.17128200 -2.38904600 -5.20931100
v -6.17128200 -2.38904600 -5.20931100
v -5.41019200 -2.02328800 -6.41743500
v -5.41019200 -2.02328800 -6.41743500
v -5.41019200 -2.02328800 -6.41743500
v -2.13805100 -3.18480300 -6.44703500
v -2.13805100 -3.18480300 -6.44703500
v -2.13805100 -3.18480300 -6.44703500
v -2.13805100 -3.18480300 -6.44703500
v -4.34144000 -4.47418700 -6.32848900
v -4.34144000 -4.47418700 -6.32848900
v -4.05093900 -6.02997300 -5.25428200
v -4.05093900 -6.02997300 -5.25428200
v -5.37865600 -4.31268300 -5.18687200
v -5.37865600 -4.31268300 -5.18687200
v -5.37865600 -4.31268300 -5.18687200
v -1.54275600 -4.61558000 -6.32539500
v -1.54275600 -4.61558000 -6.32539500
v -2.73432300 -6.16993500 -6.14874900
v -2.73432300 -6.16993500 -6.14874900
v -0.67240600 -5.95043900 -6.16960000
v -0.67240600 -5.95043900 -6.16960000
v -1.71442500 -7.30647800 -5.42841800
v -1.71442500 -7.30647800 -5.42841800
v 0.03334000 -7.10556700 -5.65152800
v 0.03334000 -7.10556700 -5.65152800
v 0.03334000 -7.10556700 -5.65152800
v 0.52156100 -8.47994400 -3.84558200
v 0.52156100 -8.47994400 -3.84558200
v -0.52230500 -7.79513100 -3.88330800
v -0.78965400 -8.27526900 -1.97969400
v -0.66783200 -8.59338300 0.10234700
v -0.66783200 -8.59338300 0.10234700
v 0.47058500 -9.03810200 -2.18193000
v 0.47058500 -9.03810200 -2.18193000
v -2.65144800 -6.60255600 -0.00000000
v -2.65144800 -6.60255600 -0.00000000
v -2.04647100 -7.03753500 1.97969200
v -0.82450100 -8.24561200 1.96973100
v -0.82450100 -8.24561200 1.96973100
v -2.81547700 -8.43588900 -2.12214900
v -4.44725600 -7.61915000 -0.35470400
v -2.29561000 -5.94346500 3.84522900
v -2.29561000 -5.94346500 3.84522900
v -0.76235600 -5.81840900 6.22267200
v -0.76235600 -5.81840900 6.22267200
v -1.39839600 -4.45559400 6.62883900
v -1.39839600 -4.45559400 6.62883900
v -1.39839600 -4.45559400 6.62883900
v -5.98483500 -6.01850600 0.07665200
v -5.98483500 -6.01850600 0.07665200
v -5.28007300 -6.59878300 1.85369400
v -4.78684000 -7.14869200 -2.03098100
v -6.80110400 -4.24994200 -1.76557200
v -6.80110400 -4.24994200 -1.76557200
v -3.44031300 -7.55394300 -3.70904200
v -5.65343000 -5.37127100 -3.59630200
v -5.65343000 -5.37127100 -3.59630200
v -6.64068100 -3.30078900 -3.57278300
v -1.53194500 -8.35164600 -3.71324000
v -4.84464500 7.08386200 -1.98668300
v -1.51576700 8.41614700 -3.57842300
v -2.75065700 7.96881200 -3.57278300
v -2.75065700 7.96881200 -3.57278300
vn -0.32720000 -0.81570000 0.47710000
vn 0.47960000 0.74700000 -0.46050000
vn -0.57400000 -0.74420000 0.34170000
vn -0.33180000 -0.89770000 0.28990000
vn 0.62500000 0.67780000 -0.38730000
vn 0.63190000 0.64830000 -0.42480000
vn -0.28400000 -0.67430000 0.68160000
vn -0.28400000 -0.67430000 0.68160000
vn -0.49910000 -0.63380000 0.59090000
vn -0.49910000 -0.63380000 0.59090000
vn -0.45040000 -0.39350000 0.80150000
vn -0.79540000 -0.35410000 0.49190000
vn -0.79540000 -0.35410000 0.49190000
vn -0.79540000 -0.35410000 0.49190000
vn -0.81450000 -0.47800000 0.32880000
vn -0.81450000 -0.47800000 0.32880000
vn -0.89890000 -0.40490000 0.16720000
vn -0.89890000 -0.40490000 0.16720000
vn -0.91970000 -0.21550000 0.32810000
vn -0.93810000 0.09130000 0.33420000
vn -0.86440000 -0.07800000 0.49660000
vn -0.86440000 -0.07800000 0.49660000
vn -0.98280000 -0.08070000 0.16640000
vn -0.96460000 -0.26370000 0.00830000
vn -0.97420000 0.15800000 0.16130000
vn -0.99990000 0.00450000 0.01110000
vn -0.97080000 0.23990000 -0.00210000
vn -0.89740000 0.41250000 -0.15630000
vn -0.81710000 0.57650000 -0.00340000
vn -0.89820000 0.41180000 0.15390000
vn -0.98030000 0.09730000 -0.17200000
vn -0.97360000 -0.15710000 -0.16540000
vn -0.94080000 -0.06260000 -0.33330000
vn -0.91480000 0.23040000 -0.33180000
vn -0.84360000 0.22190000 -0.48890000
vn -0.81950000 0.45850000 -0.34380000
vn -0.70930000 0.48100000 -0.51530000
vn -0.64300000 0.67400000 -0.36370000
vn -0.44490000 0.71720000 -0.53630000
vn -0.44490000 0.71720000 -0.53630000
vn -0.44490000 0.71720000 -0.53630000
vn -0.01580000 0.07380000 -0.99720000
vn -0.66250000 0.46590000 -0.58650000
vn -0.24690000 0.44910000 -0.85870000
vn -0.24690000 0.44910000 -0.85870000
vn 0.77130000 -0.42450000 0.47430000
vn -0.00050000 0.10310000 -0.99470000
vn 0.70540000 -0.53590000 0.46390000
vn 0.02250000 0.16980000 -0.98520000
vn 0.70540000 -0.53590000 0.46390000
vn -0.13330000 0.73610000 -0.66360000
vn -0.13330000 0.73610000 -0.66360000
vn -0.01320000 0.46520000 -0.88510000
vn 0.57460000 -0.59610000 0.56080000
vn -0.00120000 0.68940000 -0.72440000
vn -0.00120000 0.68940000 -0.72440000
vn 0.58090000 -0.65190000 0.48740000
vn -0.06010000 0.88840000 -0.45500000
vn 0.51730000 -0.78570000 0.33930000
vn 0.64190000 -0.67210000 0.36910000
vn 0.64190000 -0.67210000 0.36910000
vn 0.84680000 -0.40350000 0.34660000
vn 0.80960000 -0.55940000 0.17780000
vn 0.80960000 -0.55940000 0.17780000
vn 0.80960000 -0.55940000 0.17780000
vn 0.80960000 -0.55940000 0.17780000
vn 0.62490000 -0.76200000 0.16960000
vn 0.62490000 -0.76200000 0.16960000
vn 0.52760000 -0.82430000 0.20550000
vn -0.17190000 0.97820000 -0.11670000
vn -0.22780000 0.96210000 0.14980000
vn 0.66940000 -0.74240000 0.02740000
vn 0.66940000 -0.74240000 0.02740000
vn 0.66940000 -0.74240000 0.02740000
vn -0.38330000 0.92040000 -0.07690000
vn -0.38330000 0.92040000 -0.07690000
vn 0.75810000 -0.65190000 0.01740000
vn 0.75810000 -0.65190000 0.01740000
vn 0.69390000 -0.69480000 -0.18910000
vn -0.28150000 0.93980000 0.19360000
vn 0.69390000 -0.69480000 -0.18910000
vn 0.61600000 -0.68890000 -0.38190000
vn 0.61600000 -0.68890000 -0.38190000
vn -0.33140000 0.90010000 0.28280000
vn 0.80940000 -0.55890000 -0.18060000
vn -0.51730000 0.85280000 0.07180000
vn -0.51730000 0.85280000 0.07180000
vn 0.76300000 -0.54100000 -0.35380000
vn 0.76360000 -0.41690000 -0.49310000
vn 0.91620000 -0.23760000 -0.32260000
vn -0.18710000 0.42820000 0.88410000
vn 0.67590000 -0.53460000 -0.50720000
vn 0.60190000 -0.65990000 -0.44980000
vn 0.60190000 -0.65990000 -0.44980000
vn -0.28280000 0.67270000 0.68370000
vn -0.44560000 0.40410000 0.79890000
vn -0.44560000 0.40410000 0.79890000
vn -0.50530000 0.63200000 0.58760000
vn -0.50530000 0.63200000 0.58760000
vn -0.50530000 0.63200000 0.58760000
vn -0.32700000 0.81730000 0.47440000
vn -0.32700000 0.81730000 0.47440000
vn 0.48080000 -0.74760000 -0.45820000
vn -0.57350000 0.74040000 0.35050000
vn -0.57350000 0.74040000 0.35050000
vn -0.66270000 0.71890000 0.20980000
vn -0.66270000 0.71890000 0.20980000
vn -0.85780000 0.39010000 0.33450000
vn -0.79720000 0.35500000 0.48830000
vn -0.77680000 0.23580000 0.58390000
vn -0.12110000 0.19020000 0.97420000
vn -0.85980000 0.15280000 0.48720000
vn -0.80160000 0.05830000 0.59500000
vn -0.80160000 0.05830000 0.59500000
vn -0.08730000 0.03970000 0.99540000
vn -0.79180000 -0.18220000 0.58290000
vn -0.79180000 -0.18220000 0.58290000
vn -0.09980000 -0.12600000 0.98700000
vn -0.12270000 0.24730000 0.96110000
vn 0.73540000 -0.32090000 -0.59690000
vn -0.07690000 0.02570000 0.99670000
vn 0.81160000 -0.04430000 -0.58250000
vn 0.78660000 0.20310000 -0.58320000
vn -0.09150000 -0.13520000 0.98660000
vn 0.83610000 0.23390000 -0.49630000
vn 0.87830000 -0.00460000 -0.47820000
vn 0.83610000 -0.21210000 -0.50590000
vn 0.94030000 0.05810000 -0.33530000
vn 0.89140000 0.30660000 -0.33390000
vn 0.98320000 0.07340000 -0.16690000
vn 0.95460000 -0.25210000 -0.15850000
vn 0.96470000 0.26330000 0.00010000
vn 0.90740000 0.39040000 -0.15580000
vn 0.90740000 0.39040000 -0.15580000
vn 0.99780000 -0.06570000 -0.00420000
vn 0.98620000 0.02330000 0.16390000
vn 0.95330000 -0.25620000 0.16030000
vn 0.91930000 -0.39350000 -0.00090000
vn 0.95490000 0.24150000 0.17290000
vn 0.90860000 0.23450000 0.34570000
vn 0.81810000 0.54780000 0.17520000
vn 0.81810000 0.54780000 0.17520000
vn 0.78320000 0.50710000 0.35970000
vn 0.78320000 0.50710000 0.35970000
vn 0.94250000 -0.07990000 0.32450000
vn 0.86570000 0.08640000 0.49310000
vn 0.86570000 0.08640000 0.49310000
vn 0.83640000 -0.20060000 0.51000000
vn 0.83640000 -0.20060000 0.51000000
vn 0.83100000 -0.01610000 0.55600000
vn 0.83100000 -0.01610000 0.55600000
vn 0.83100000 -0.01610000 0.55600000
vn 0.00340000 -0.00090000 -1.00000000
vn 0.77880000 -0.28360000 0.55950000
vn 0.77880000 -0.28360000 0.55950000
vn -0.01190000 0.05950000 -0.99820000
vn -0.82510000 -0.00030000 -0.56490000
vn -0.01340000 -0.00040000 -0.99990000
vn -0.79470000 0.21600000 -0.56730000
vn -0.02940000 0.05460000 -0.99810000
vn -0.87740000 0.01240000 -0.47960000
vn -0.83820000 -0.23510000 -0.49210000
vn -0.83820000 -0.23510000 -0.49210000
vn -0.79550000 -0.21000000 -0.56840000
vn -0.79550000 -0.21000000 -0.56840000
vn -0.02840000 -0.05450000 -0.99810000
vn 0.82550000 0.29690000 0.48000000
vn -0.01100000 -0.06010000 -0.99810000
vn 0.82550000 0.29690000 0.48000000
vn 0.82550000 0.29690000 0.48000000
vn -0.01530000 -0.07250000 -0.99720000
vn -0.66540000 -0.45040000 -0.59540000
vn -0.58060000 -0.61990000 -0.52790000
vn -0.58060000 -0.61990000 -0.52790000
vn -0.76340000 -0.40300000 -0.50480000
vn -0.76340000 -0.40300000 -0.50480000
vn -0.76340000 -0.40300000 -0.50480000
vn 0.77020000 0.43250000 0.46870000
vn -0.00160000 -0.10340000 -0.99460000
vn -0.23690000 -0.47430000 -0.84790000
vn -0.23690000 -0.47430000 -0.84790000
vn 0.67900000 0.56710000 0.46620000
vn 0.02180000 -0.29580000 -0.95500000
vn -0.18810000 -0.73530000 -0.65110000
vn -0.18810000 -0.73530000 -0.65110000
vn 0.62580000 0.63980000 0.44620000
vn 0.00830000 -0.66850000 -0.74370000
vn 0.00830000 -0.66850000 -0.74370000
vn -0.06130000 -0.89730000 -0.43720000
vn 0.50950000 0.78950000 0.34210000
vn 0.59780000 0.71520000 0.36220000
vn 0.62570000 0.75960000 0.17750000
vn -0.21470000 -0.96680000 0.13880000
vn 0.67900000 0.73400000 0.01510000
vn -0.14730000 -0.98180000 -0.11960000
vn 0.53070000 0.81990000 0.21480000
vn 0.81610000 0.57800000 0.00070000
vn 0.81610000 0.57800000 0.00070000
vn 0.74830000 0.63820000 -0.18110000
vn 0.69450000 0.69570000 -0.18340000
vn -0.28020000 -0.94070000 0.19120000
vn -0.35170000 -0.93180000 -0.09010000
vn -0.52410000 -0.84850000 0.07320000
vn 0.76560000 0.53420000 -0.35850000
vn 0.76560000 0.53420000 -0.35850000
vn 0.69050000 0.55520000 -0.46360000
vn -0.20050000 -0.45130000 0.86950000
vn -0.13950000 -0.29830000 0.94420000
vn 0.76390000 0.40980000 -0.49850000
vn 0.76390000 0.40980000 -0.49850000
vn -0.82080000 -0.57130000 -0.00210000
vn -0.82080000 -0.57130000 -0.00210000
vn -0.67220000 -0.71100000 0.20630000
vn -0.68290000 -0.70250000 -0.20020000
vn -0.89950000 -0.40820000 -0.15590000
vn -0.89950000 -0.40820000 -0.15590000
vn -0.50300000 -0.76960000 -0.39330000
vn -0.77930000 -0.52610000 -0.34030000
vn -0.77930000 -0.52610000 -0.34030000
vn -0.88820000 -0.30910000 -0.34000000
vn -0.20920000 -0.90210000 -0.37740000
vn -0.68750000 0.69950000 -0.19520000
vn -0.20770000 0.90950000 -0.36010000
vn -0.41320000 0.83580000 -0.36160000
vn -0.41320000 0.83580000 -0.36160000
vt 0.69907600 0.43170900
vt 0.62979300 0.16249200
vt 0.70833900 0.39389200
vt 0.70543200 0.42488500
vt 0.63585100 0.16911300
vt 0.62552200 0.16979300
vt 0.69464900 0.42565200
vt 0.43849900 0.44107000
vt 0.69883500 0.39601000
vt 0.40855700 0.44649000
vt 0.40643200 0.45534600
vt 0.39887900 0.45664900
vt 0.69948800 0.38663100
vt 0.53013300 0.27841400
vt 0.53654900 0.27030300
vt 0.70808800 0.38594300
vt 0.71782000 0.38103800
vt 0.53666400 0.26085300
vt 0.52670000 0.27026300
vt 0.51048100 0.27007900
vt 0.51710100 0.27902000
vt 0.39354300 0.47226000
vt 0.52144200 0.26048000
vt 0.53151200 0.25060000
vt 0.50744400 0.25986200
vt 0.51776100 0.25018500
vt 0.50402700 0.24966100
vt 0.49293700 0.23935600
vt 0.48218700 0.24856200
vt 0.49205200 0.25888300
vt 0.51237700 0.23979500
vt 0.52653400 0.24034800
vt 0.52094600 0.22992400
vt 0.50368800 0.22958600
vt 0.50360200 0.22052200
vt 0.48957500 0.22909600
vt 0.48686900 0.21972900
vt 0.47553700 0.22821000
vt 0.26870400 0.87288300
vt 0.54252800 0.34270000
vt 0.47088400 0.21945600
vt 0.52857800 0.33366500
vt 0.48762900 0.21347600
vt 0.47471800 0.21374400
vt 0.53801400 0.34438000
vt 0.35327300 0.50455000
vt 0.52855200 0.35178500
vt 0.35174500 0.51155900
vt 0.53507900 0.35634600
vt 0.96272300 0.82280100
vt 0.54447700 0.35250200
vt 0.27742000 0.87429100
vt 0.54021200 0.36130400
vt 0.96353900 0.82768000
vt 0.54349800 0.36295100
vt 0.28766000 0.87477600
vt 0.96218000 0.83000700
vt 0.28755200 0.86567100
vt 0.95471800 0.83663800
vt 0.33912600 0.52072100
vt 0.95111100 0.82777400
vt 0.34083600 0.50325200
vt 0.32963700 0.51272700
vt 0.93675600 0.82280100
vt 0.98912800 0.76825600
vt 0.99490400 0.43746900
vt 0.94143600 0.83351200
vt 0.97928200 0.77554400
vt 0.94562200 0.84187700
vt 0.28644400 0.85553100
vt 0.27857700 0.84402000
vt 0.97023900 0.76825600
vt 0.93139500 0.83919800
vt 0.97782500 0.43989500
vt 0.26497900 0.85589500
vt 0.46332200 0.23664200
vt 0.31812400 0.51703300
vt 0.98430500 0.43281300
vt 0.30611800 0.52343800
vt 0.27765700 0.83357700
vt 0.97023900 0.43281300
vt 0.29547800 0.52220300
vt 0.51171500 0.98120600
vt 0.28126900 0.82302700
vt 0.30739900 0.51203000
vt 0.25716900 0.84760700
vt 0.47016200 0.24562000
vt 0.29686100 0.50990800
vt 0.28759000 0.50177700
vt 0.29904000 0.49054200
vt 0.42779300 0.51049600
vt 0.28309000 0.50781500
vt 0.28505500 0.51615400
vt 0.51861000 0.97325500
vt 0.43312200 0.51840500
vt 0.40336400 0.49983200
vt 0.48756100 0.28322400
vt 0.40420600 0.50898600
vt 0.25880600 0.81609000
vt 0.47896800 0.27695100
vt 0.43849900 0.52472500
vt 0.28766000 0.81673100
vt 0.51171500 0.97180600
vt 0.25562500 0.82533900
vt 0.47666500 0.26798900
vt 0.25292500 0.83471600
vt 0.47720100 0.25888000
vt 0.49210000 0.26863600
vt 0.49241500 0.27730700
vt 0.49622400 0.28554200
vt 0.40111000 0.49132300
vt 0.50501700 0.27821500
vt 0.50560700 0.28733700
vt 0.40079200 0.48140800
vt 0.40079200 0.48140800
vt 0.40210700 0.46658800
vt 0.51920500 0.28698200
vt 0.40210700 0.46658800
vt 0.42384600 0.49963700
vt 0.28109000 0.49661600
vt 0.42075000 0.48182100
vt 0.28061500 0.47859500
vt 0.28206700 0.46206000
vt 0.42355500 0.46502000
vt 0.28945700 0.46102000
vt 0.28949800 0.47506300
vt 0.28817800 0.48887200
vt 0.29935000 0.47037300
vt 0.30011900 0.45577100
vt 0.31016400 0.47013800
vt 0.30988800 0.49190300
vt 0.32197400 0.45873900
vt 0.31128900 0.45056800
vt 0.64726500 0.19634200
vt 0.32131300 0.48006900
vt 0.33228200 0.47632200
vt 0.33100900 0.49308000
vt 0.31979800 0.50181500
vt 0.33326400 0.46113100
vt 0.34333400 0.46316000
vt 0.33260900 0.44318200
vt 0.66857400 0.18691100
vt 0.67923700 0.18580200
vt 0.34279000 0.44673800
vt 0.34199600 0.48269500
vt 0.35176500 0.47357500
vt 0.98392500 0.84933800
vt 0.35114500 0.49163800
vt 0.98254100 0.89053900
vt 0.35600800 0.47928200
vt 0.97023900 0.88602200
vt 0.98818900 0.84472700
vt 0.50386100 0.34503800
vt 0.35456600 0.49674100
vt 0.98778500 0.88602200
vt 0.52106400 0.34847400
vt 0.51360300 0.21347600
vt 0.50378700 0.32570200
vt 0.50290000 0.21370100
vt 0.51500000 0.32660300
vt 0.51564400 0.22114800
vt 0.52703000 0.22136500
vt 0.49044100 0.32167400
vt 0.52348800 0.21441500
vt 0.49259600 0.32666500
vt 0.49259600 0.32666500
vt 0.97023900 0.84472700
vt 0.48623200 0.34842300
vt 0.35600800 0.46222600
vt 0.69384800 0.18934100
vt 0.47903900 0.33380800
vt 0.47903900 0.33380800
vt 0.47032800 0.33581600
vt 0.75653300 0.40113800
vt 0.75626100 0.39190600
vt 0.53474600 0.22161500
vt 0.47980300 0.32697100
vt 0.69286200 0.18296900
vt 0.47831000 0.35240700
vt 0.46966400 0.34452200
vt 0.76110900 0.41011900
vt 0.69170400 0.17505600
vt 0.47092100 0.35821800
vt 0.75701800 0.41698100
vt 0.46332200 0.35135200
vt 0.68858200 0.16853600
vt 0.46449000 0.36295100
vt 0.75769500 0.42857900
vt 0.74780100 0.43170900
vt 0.67828900 0.16307500
vt 0.67865600 0.17087700
vt 0.66802300 0.17181300
vt 0.72634600 0.42289500
vt 0.65643300 0.17062800
vt 0.73871400 0.43110200
vt 0.66896400 0.16249200
vt 0.65744800 0.18673100
vt 0.32168100 0.44107100
vt 0.64639300 0.18229600
vt 0.64617600 0.17240400
vt 0.71600800 0.42132300
vt 0.73926000 0.40915000
vt 0.72983400 0.39770600
vt 0.63630800 0.18603700
vt 0.30012300 0.44380900
vt 0.62316300 0.17686200
vt 0.43291600 0.44722600
vt 0.42817200 0.45444500
vt 0.28384200 0.45187900
vt 0.62121500 0.18340600
vt 0.72763200 0.38702300
vt 0.54368700 0.25118700
vt 0.71769600 0.39140700
vt 0.73912300 0.39574600
vt 0.73775700 0.38163200
vt 0.53727600 0.24090700
vt 0.74806900 0.40517800
vt 0.54045000 0.23067200
vt 0.74773000 0.38995300
vt 0.53248100 0.23070300
vt 0.74766000 0.41802600
vt 0.47456900 0.23715800
vt 0.27481300 0.86447600
vt 0.26791400 0.86466500
vt 0.46500800 0.22766700
f 9/9/9 3/3/3 1/1/1
f 3/3/3 4/4/4 1/1/1
f 2/2/2 5/5/5 6/6/6
f 9/9/9 1/1/1 7/7/7
f 11/11/11 10/10/10 8/8/8
f 12/12/12 10/10/10 11/11/11
f 16/16/16 3/3/3 9/9/9
f 13/13/13 16/16/16 9/9/9
f 3/3/3 16/16/16 17/17/17
f 15/15/15 19/19/19 18/18/18
f 15/15/15 14/14/14 19/19/19
f 19/19/19 23/23/23 18/18/18
f 14/14/14 21/21/21 19/19/19
f 19/19/19 20/20/20 23/23/23
f 19/19/19 21/21/21 20/20/20
f 18/18/18 23/23/23 24/24/24
f 23/23/23 26/26/26 24/24/24
f 23/23/23 25/25/25 27/27/27
f 20/20/20 25/25/25 23/23/23
f 23/23/23 27/27/27 26/26/26
f 28/28/28 27/27/27 29/29/29
f 31/31/31 27/27/27 28/28/28
f 30/30/30 29/29/29 27/27/27
f 25/25/25 30/30/30 27/27/27
f 31/31/31 26/26/26 27/27/27
f 31/31/31 28/28/28 34/34/34
f 32/32/32 26/26/26 31/31/31
f 32/32/32 31/31/31 33/33/33
f 31/31/31 34/34/34 33/33/33
f 33/33/33 34/34/34 35/35/35
f 34/34/34 37/37/37 35/35/35
f 34/34/34 36/36/36 37/37/37
f 28/28/28 36/36/36 34/34/34
f 43/43/43 35/35/35 37/37/37
f 36/36/36 38/38/38 37/37/37
f 41/41/41 37/37/37 38/38/38
f 44/44/44 37/37/37 41/41/41
f 44/44/44 43/43/43 37/37/37
f 51/51/51 45/45/45 40/40/40
f 45/45/45 49/49/49 47/47/47
f 45/45/45 47/47/47 42/42/42
f 45/45/45 53/53/53 49/49/49
f 51/51/51 53/53/53 45/45/45
f 57/57/57 50/50/50 54/54/54
f 55/55/55 53/53/53 51/51/51
f 61/61/61 50/50/50 57/57/57
f 57/57/57 59/59/59 61/61/61
f 52/52/52 58/58/58 56/56/56
f 62/62/62 48/48/48 60/60/60
f 62/62/62 60/60/60 63/63/63
f 61/61/61 67/67/67 64/64/64
f 67/67/67 61/61/61 59/59/59
f 59/59/59 69/69/69 67/67/67
f 67/67/67 69/69/69 73/73/73
f 65/65/65 68/68/68 72/72/72
f 71/71/71 75/75/75 80/80/80
f 75/75/75 71/71/71 70/70/70
f 78/78/78 74/74/74 81/81/81
f 66/66/66 74/74/74 78/78/78
f 82/82/82 88/88/88 79/79/79
f 86/86/86 84/84/84 80/80/80
f 80/80/80 75/75/75 86/86/86
f 85/85/85 77/77/77 79/79/79
f 88/88/88 85/85/85 79/79/79
f 90/90/90 88/88/88 89/89/89
f 88/88/88 92/92/92 89/89/89
f 85/85/85 88/88/88 90/90/90
f 88/88/88 82/82/82 93/93/93
f 88/88/88 93/93/93 92/92/92
f 95/95/95 96/96/96 91/91/91
f 95/95/95 98/98/98 96/96/96
f 98/98/98 95/95/95 101/101/101
f 83/83/83 103/103/103 94/94/94
f 99/99/99 102/102/102 104/104/104
f 104/104/104 102/102/102 84/84/84
f 86/86/86 106/106/106 104/104/104
f 107/107/107 108/108/108 105/105/105
f 84/84/84 86/86/86 104/104/104
f 100/100/100 105/105/105 108/108/108
f 25/25/25 20/20/20 108/108/108
f 20/20/20 109/109/109 108/108/108
f 108/108/108 109/109/109 100/100/100
f 107/107/107 30/30/30 108/108/108
f 25/25/25 108/108/108 30/30/30
f 100/100/100 109/109/109 97/97/97
f 109/109/109 110/110/110 97/97/97
f 110/110/110 109/109/109 112/112/112
f 20/20/20 112/112/112 109/109/109
f 20/20/20 21/21/21 112/112/112
f 112/112/112 21/21/21 113/113/113
f 110/110/110 112/112/112 113/113/113
f 116/116/116 114/114/114 22/22/22
f 115/115/115 118/118/118 121/121/121
f 111/111/111 115/115/115 119/119/119
f 121/121/121 119/119/119 115/115/115
f 127/127/127 120/120/120 122/122/122
f 122/122/122 123/123/123 125/125/125
f 121/121/121 118/118/118 124/124/124
f 125/125/125 126/126/126 122/122/122
f 126/126/126 127/127/127 122/122/122
f 128/128/128 90/90/90 127/127/127
f 90/90/90 89/89/89 127/127/127
f 127/127/127 89/89/89 120/120/120
f 128/128/128 127/127/127 126/126/126
f 130/130/130 90/90/90 128/128/128
f 130/130/130 128/128/128 129/129/129
f 129/129/129 128/128/128 125/125/125
f 128/128/128 126/126/126 125/125/125
f 135/135/135 131/131/131 130/130/130
f 130/130/130 131/131/131 90/90/90
f 132/132/132 130/130/130 133/133/133
f 135/135/135 130/130/130 132/132/132
f 130/130/130 129/129/129 133/133/133
f 138/138/138 131/131/131 135/135/135
f 136/136/136 137/137/137 135/135/135
f 139/139/139 136/136/136 135/135/135
f 137/137/137 138/138/138 135/135/135
f 139/139/139 135/135/135 132/132/132
f 144/144/144 140/140/140 139/139/139
f 145/145/145 139/139/139 140/140/140
f 145/145/145 136/136/136 139/139/139
f 141/141/141 139/139/139 132/132/132
f 144/144/144 139/139/139 141/141/141
f 146/146/146 145/145/145 140/140/140
f 148/148/148 145/145/145 146/146/146
f 145/145/145 137/137/137 136/136/136
f 145/145/145 62/62/62 137/137/137
f 148/148/148 62/62/62 145/145/145
f 62/62/62 148/148/148 46/46/46
f 46/46/46 148/148/148 154/154/154
f 148/148/148 146/146/146 150/150/150
f 149/149/149 151/151/151 155/155/155
f 156/156/156 153/153/153 158/158/158
f 160/160/160 156/156/156 158/158/158
f 42/42/42 47/47/47 156/156/156
f 156/156/156 160/160/160 42/42/42
f 161/161/161 35/35/35 159/159/159
f 43/43/43 159/159/159 35/35/35
f 161/161/161 159/159/159 157/157/157
f 164/164/164 162/162/162 161/161/161
f 33/33/33 161/161/161 162/162/162
f 33/33/33 35/35/35 161/161/161
f 164/164/164 161/161/161 157/157/157
f 158/158/158 168/168/168 166/166/166
f 168/168/168 171/171/171 166/166/166
f 172/172/172 163/163/163 165/165/165
f 171/171/171 168/168/168 179/179/179
f 172/172/172 173/173/173 177/177/177
f 180/180/180 173/173/173 172/172/172
f 172/172/172 177/177/177 163/163/163
f 180/180/180 171/171/171 179/179/179
f 180/180/180 179/179/179 183/183/183
f 180/180/180 183/183/183 187/187/187
f 180/180/180 187/187/187 185/185/185
f 174/174/174 181/181/181 184/184/184
f 184/184/184 188/188/188 189/189/189
f 190/190/190 186/186/186 191/191/191
f 191/191/191 186/186/186 182/182/182
f 191/191/191 192/192/192 190/190/190
f 191/191/191 142/142/142 192/192/192
f 191/191/191 143/143/143 142/142/142
f 191/191/191 182/182/182 143/143/143
f 194/194/194 196/196/196 192/192/192
f 192/192/192 197/197/197 194/194/194
f 192/192/192 142/142/142 197/197/197
f 196/196/196 190/190/190 192/192/192
f 141/141/141 132/132/132 198/198/198
f 132/132/132 133/133/133 198/198/198
f 199/199/199 197/197/197 134/134/134
f 200/200/200 194/194/194 197/197/197
f 197/197/197 199/199/199 200/200/200
f 201/201/201 4/4/4 203/203/203
f 204/204/204 5/5/5 200/200/200
f 203/203/203 202/202/202 201/201/201
f 202/202/202 193/193/193 201/201/201
f 199/199/199 204/204/204 200/200/200
f 133/133/133 129/129/129 205/205/205
f 199/199/199 134/134/134 204/204/204
f 204/204/204 210/210/210 206/206/206
f 206/206/206 5/5/5 204/204/204
f 205/205/205 129/129/129 125/125/125
f 205/205/205 125/125/125 209/209/209
f 11/11/11 207/207/207 208/208/208
f 209/209/209 125/125/125 123/123/123
f 124/124/124 118/118/118 208/208/208
f 11/11/11 208/208/208 118/118/118
f 206/206/206 6/6/6 5/5/5
f 11/11/11 8/8/8 207/207/207
f 202/202/202 203/203/203 214/214/214
f 3/3/3 203/203/203 4/4/4
f 213/213/213 203/203/203 3/3/3
f 203/203/203 211/211/211 214/214/214
f 213/213/213 211/211/211 203/203/203
f 214/214/214 217/217/217 202/202/202
f 211/211/211 215/215/215 214/214/214
f 214/214/214 215/215/215 219/219/219
f 214/214/214 219/219/219 217/217/217
f 219/219/219 175/175/175 174/174/174
f 218/218/218 162/162/162 176/176/176
f 174/174/174 217/217/217 219/219/219
f 218/218/218 220/220/220 162/162/162
f 218/218/218 216/216/216 220/220/220
f 220/220/220 33/33/33 162/162/162
f 220/220/220 32/32/32 33/33/33
f 220/220/220 216/216/216 32/32/32
f 202/202/202 217/217/217 221/221/221
f 184/184/184 221/221/221 217/217/217
f 217/217/217 174/174/174 184/184/184
f 202/202/202 221/221/221 195/195/195
f 189/189/189 195/195/195 221/221/221
f 184/184/184 189/189/189 221/221/221
f 216/216/216 24/24/24 32/32/32
f 216/216/216 212/212/212 24/24/24
f 213/213/213 17/17/17 211/211/211
f 3/3/3 17/17/17 213/213/213
f 18/18/18 24/24/24 212/212/212
f 202/202/202 195/195/195 193/193/193
f 143/143/143 182/182/182 178/178/178
f 143/143/143 178/178/178 170/170/170
f 153/153/153 168/168/168 158/158/158
f 146/146/146 140/140/140 169/169/169
f 144/144/144 169/169/169 140/140/140
f 167/167/167 152/152/152 147/147/147
f 85/85/85 138/138/138 77/77/77
f 138/138/138 85/85/85 131/131/131
f 63/63/63 77/77/77 138/138/138
f 137/137/137 63/63/63 138/138/138
f 62/62/62 63/63/63 137/137/137
f 85/85/85 90/90/90 131/131/131
f 96/96/96 119/119/119 91/91/91
f 120/120/120 89/89/89 92/92/92
f 96/96/96 111/111/111 119/119/119
f 21/21/21 14/14/14 117/117/117
f 12/12/12 11/11/11 116/116/116
f 29/29/29 30/30/30 107/107/107
f 87/87/87 29/29/29 107/107/107
f 222/222/222 29/29/29 87/87/87
f 76/76/76 222/222/222 87/87/87
f 76/76/76 38/38/38 222/222/222
f 36/36/36 222/222/222 38/38/38
f 36/36/36 28/28/28 222/222/222
f 28/28/28 29/29/29 222/222/222
f 225/225/225 38/38/38 76/76/76
f 224/224/224 75/75/75 223/223/223
f 75/75/75 70/70/70 223/223/223
f 41/41/41 38/38/38 225/225/225
f 39/39/39 224/224/224 223/223/223
f 52/52/52 223/223/223 58/58/58
f 223/223/223 52/52/52 39/39/39
f 223/223/223 70/70/70 58/58/58
f 62/62/62 46/46/46 48/48/48
f 32/32/32 24/24/24 26/26/26

