# Blender 4.3.2
# www.blender.org
mtllib link_12.mtl
o link_12_visual
<<<<<<< HEAD
v -0.000884 -0.000312 0.000000
v -0.000625 -0.000325 0.000064
v -0.000619 -0.000337 0.000297
v -0.000624 -0.000335 0.000533
v -0.000884 0.000312 0.000000
v -0.000083 -0.000260 0.000524
v -0.000081 -0.000269 0.000286
v -0.000092 -0.000256 0.000047
v 0.000130 0.000000 0.001062
v -0.000790 0.000000 0.001062
v 0.000040 0.000164 0.000558
v -0.000009 0.000000 0.000000
v 0.000040 -0.000164 0.000558
v -0.000880 0.000164 0.000558
v -0.000929 0.000000 0.000000
v -0.000880 -0.000164 0.000558
v -0.000641 -0.000285 0.000741
v -0.000676 -0.000184 0.001039
v -0.000686 0.000000 0.001137
v -0.000135 -0.000163 0.001057
v -0.000167 0.000000 0.001156
v -0.000096 -0.000225 0.000748
v -0.000630 -0.000301 -0.000144
v -0.000646 -0.000239 -0.000311
v -0.000673 -0.000147 -0.000413
v -0.000724 0.000000 -0.000470
v -0.000150 0.000000 -0.000520
v -0.000136 -0.000129 -0.000477
v -0.000117 -0.000203 -0.000351
v -0.000103 -0.000228 -0.000169
v -0.000661 -0.000239 0.000921
v -0.000115 -0.000203 0.000934
v -0.000625 0.000325 0.000064
v -0.000619 0.000337 0.000297
v -0.000624 0.000335 0.000533
v -0.000641 0.000285 0.000741
v -0.000092 0.000256 0.000047
v -0.000081 0.000269 0.000286
v -0.000083 0.000260 0.000524
v -0.000096 0.000225 0.000748
v -0.000661 0.000239 0.000921
v -0.000676 0.000184 0.001039
v -0.000115 0.000203 0.000934
v -0.000135 0.000163 0.001057
v -0.000630 0.000301 -0.000144
v -0.000646 0.000239 -0.000311
v -0.000673 0.000147 -0.000413
v -0.000136 0.000129 -0.000477
v -0.000117 0.000203 -0.000351
v -0.000103 0.000228 -0.000169
v 0.000062 -0.000265 0.000459
v 0.000049 -0.000271 0.000283
v 0.000065 -0.000259 0.000527
v 0.000043 -0.000270 0.000224
v 0.000038 -0.000267 0.000170
v 0.000030 -0.000260 0.000040
v 0.000173 -0.000064 0.001155
v 0.000186 0.000000 0.001197
v 0.000174 -0.000043 0.001168
v 0.000176 -0.000185 0.001103
v 0.000142 -0.000224 0.000963
v 0.000154 -0.000205 0.001029
v 0.000085 -0.000236 0.000680
v 0.000066 -0.000257 0.000542
v 0.000099 -0.000236 0.000760
v 0.000040 0.000000 -0.000563
v 0.000035 -0.000088 -0.000531
v 0.000032 -0.000135 -0.000517
v 0.000028 -0.000255 0.000000
v 0.000030 -0.000239 -0.000125
v 0.000032 -0.000235 -0.000185
v 0.000033 -0.000226 -0.000267
v 0.000039 -0.000212 -0.000382
v 0.000033 -0.000229 -0.000244
v 0.000031 -0.000140 -0.000507
v 0.000030 -0.000146 -0.000497
v 0.000031 -0.000161 -0.000471
v 0.000117 -0.000235 0.000846
v 0.000107 -0.000235 0.000801
v 0.000062 0.000265 0.000459
v 0.000065 0.000259 0.000527
v 0.000049 0.000271 0.000283
v 0.000043 0.000270 0.000224
v 0.000038 0.000267 0.000170
v 0.000030 0.000260 0.000040
v 0.000173 0.000064 0.001155
v 0.000176 0.000185 0.001103
v 0.000174 0.000043 0.001168
v 0.000154 0.000205 0.001029
v 0.000142 0.000224 0.000963
v 0.000085 0.000236 0.000680
v 0.000099 0.000236 0.000760
v 0.000066 0.000257 0.000542
v 0.000035 0.000088 -0.000531
v 0.000032 0.000135 -0.000517
v 0.000030 0.000239 -0.000125
v 0.000032 0.000235 -0.000185
v 0.000028 0.000255 0.000000
v 0.000033 0.000229 -0.000244
v 0.000033 0.000226 -0.000267
v 0.000039 0.000212 -0.000382
v 0.000031 0.000140 -0.000507
v 0.000030 0.000146 -0.000497
v 0.000031 0.000161 -0.000471
v 0.000107 0.000235 0.000801
v 0.000117 0.000235 0.000846
v -0.000881 -0.000034 -0.000561
v -0.000889 -0.000035 -0.000507
v -0.000889 0.000035 -0.000507
v -0.000881 0.000034 -0.000561
v -0.000875 0.000000 -0.000600
v -0.000764 0.000026 0.001126
v -0.000768 0.000192 0.001032
v -0.000765 0.000187 0.001041
v -0.000758 0.000000 0.001139
v -0.000764 -0.000026 0.001126
v -0.000768 -0.000192 0.001032
v -0.000765 -0.000187 0.001041
v -0.000857 0.000356 0.000166
v -0.000856 0.000356 0.000171
v -0.000834 0.000364 0.000396
v -0.000843 0.000362 0.000302
v -0.000824 0.000362 0.000523
v -0.000888 0.000188 -0.000385
v -0.000891 0.000160 -0.000410
v -0.000895 0.000125 -0.000424
v -0.000788 0.000262 0.000892
v -0.000789 0.000266 0.000881
v -0.000822 0.000361 0.000538
v -0.000815 0.000339 0.000610
v -0.000802 0.000303 0.000747
v -0.000783 0.000250 0.000926
v -0.000781 0.000232 0.000947
v -0.000788 -0.000262 0.000892
v -0.000783 -0.000250 0.000926
v -0.000781 -0.000232 0.000947
v -0.000891 -0.000035 -0.000481
v -0.000893 -0.000067 -0.000446
v -0.000895 -0.000125 -0.000424
v -0.000893 0.000067 -0.000446
v -0.000891 0.000035 -0.000481
v -0.000891 -0.000160 -0.000410
v -0.000888 -0.000188 -0.000385
v -0.000834 -0.000364 0.000396
v -0.000843 -0.000362 0.000302
v -0.000824 -0.000362 0.000523
v -0.000856 -0.000356 0.000171
v -0.000857 -0.000356 0.000166
v -0.000815 -0.000339 0.000610
v -0.000822 -0.000361 0.000538
v -0.000789 -0.000266 0.000881
v -0.000802 -0.000303 0.000747
v -0.000867 0.000348 0.000000
v -0.000861 0.000355 0.000069
v -0.000868 0.000335 -0.000108
v -0.000883 0.000208 -0.000368
v -0.000866 0.000330 -0.000143
v -0.000868 0.000295 -0.000236
v -0.000873 0.000260 -0.000311
v -0.000861 -0.000355 0.000069
v -0.000867 -0.000348 0.000000
v -0.000868 -0.000335 -0.000108
v -0.000866 -0.000330 -0.000143
v -0.000883 -0.000208 -0.000368
v -0.000873 -0.000260 -0.000311
v -0.000868 -0.000295 -0.000236
vn -0.9881 0.0126 -0.1536
vn -0.9880 0.0136 -0.1537
vn -0.9880 0.0129 -0.1536
vn -0.9166 0.1621 0.3655
vn -0.9162 0.1644 0.3654
vn -0.9162 0.1641 0.3655
vn -0.9205 -0.0000 0.3908
vn -0.9342 -0.1613 0.3180
vn -0.9332 -0.1543 0.3246
vn -0.9343 -0.1611 0.3180
vn -0.9484 0.3068 0.0795
vn -0.9482 0.3081 0.0774
vn -0.9485 0.3067 0.0792
vn -0.9885 0.1465 -0.0367
vn -0.9885 0.1466 -0.0368
vn -0.9884 0.1471 -0.0376
vn -0.9389 0.3005 0.1681
vn -0.9389 0.3003 0.1681
vn -0.9394 0.2980 0.1697
vn -0.9682 0.1406 0.2071
vn -0.9683 0.1402 0.2069
vn -0.9886 0.1441 0.0445
vn -0.9962 -0.0000 0.0875
vn -0.9845 -0.0000 0.1754
vn -0.9682 -0.1406 0.2071
vn -0.9683 -0.1402 0.2069
vn -0.9968 0.0003 -0.0798
vn -0.9968 -0.0000 -0.0797
vn -0.9968 -0.0003 -0.0798
vn -0.9898 -0.1358 -0.0421
vn -0.9899 -0.1361 -0.0404
vn -0.9900 -0.1353 -0.0393
vn -0.9886 -0.1439 0.0445
vn -0.9558 -0.2828 0.0800
vn -0.9554 -0.2840 0.0813
vn -0.9559 -0.2829 0.0792
vn -0.9389 -0.3005 0.1681
vn -0.9393 -0.2980 0.1697
vn -0.9389 -0.3003 0.1681
vn -0.9006 0.4335 0.0308
vn -0.9002 0.4348 0.0235
vn -0.9009 0.4329 0.0300
vn -0.9045 0.4240 -0.0452
vn -0.9508 0.2983 -0.0834
vn -0.9508 0.2983 -0.0835
vn -0.9496 0.3029 -0.0805
vn -0.9002 -0.4348 0.0235
vn -0.9006 -0.4335 0.0308
vn -0.9009 -0.4329 0.0300
vn -0.9593 -0.2713 -0.0782
vn -0.9602 -0.2695 -0.0732
vn -0.9602 -0.2694 -0.0737
vn -0.9045 -0.4240 -0.0452
vn 0.0881 -0.9960 -0.0153
vn 0.0884 -0.9960 -0.0152
vn 0.0887 -0.9960 -0.0145
vn 0.1290 -0.9916 0.0089
vn 0.1284 -0.9917 0.0089
vn 0.1285 -0.9917 0.0088
vn 0.1171 -0.9596 0.2558
vn 0.1172 -0.9597 0.2554
vn 0.1172 -0.9597 0.2556
vn 0.1243 -0.9905 -0.0595
vn 0.1243 -0.9905 -0.0596
vn 0.1383 -0.9903 0.0101
vn 0.1366 -0.9906 0.0102
vn 0.1380 -0.9904 0.0099
vn 0.1027 -0.9652 0.2405
vn 0.1027 -0.9652 0.2406
vn 0.0395 -0.8801 0.4731
vn 0.0376 -0.8796 0.4742
vn 0.0379 -0.8798 0.4738
vn 0.0300 -0.4669 0.8838
vn 0.0305 -0.4660 0.8842
vn 0.0224 -0.9064 0.4219
vn 0.0177 -0.9056 0.4237
vn 0.0219 -0.9065 0.4217
vn -0.0086 -0.5189 0.8548
vn -0.0066 -0.5198 0.8543
vn -0.0082 -0.5189 0.8548
vn -0.0196 -0.9992 0.0335
vn -0.0210 -0.9991 0.0356
vn -0.0198 -0.9992 0.0335
vn -0.0592 -0.9978 -0.0281
vn -0.0588 -0.9978 -0.0320
vn -0.0595 -0.9978 -0.0288
vn -0.0718 -0.3936 0.9165
vn -0.0716 -0.3937 0.9165
vn -0.0737 -0.3947 0.9158
vn -0.1064 -0.9507 0.2911
vn -0.1111 -0.9506 0.2898
vn -0.1097 -0.9508 0.2896
vn -0.0241 -0.9910 0.1319
vn -0.0239 -0.9909 0.1322
vn -0.0233 -0.9907 0.1337
vn 0.1216 -0.9853 -0.1200
vn 0.1232 -0.9856 -0.1155
vn 0.1231 -0.9856 -0.1158
vn 0.1166 -0.9286 -0.3524
vn 0.1166 -0.9283 -0.3532
vn 0.1157 -0.9279 -0.3543
vn 0.0974 -0.6484 -0.7551
vn 0.0975 -0.6484 -0.7551
vn 0.0991 -0.6472 -0.7558
vn 0.0096 -0.3614 -0.9324
vn 0.0112 -0.3614 -0.9323
vn 0.0108 -0.3618 -0.9322
vn -0.1021 -0.3260 -0.9398
vn -0.1009 -0.3262 -0.9399
vn 0.0203 -0.8609 -0.5083
vn 0.0204 -0.8609 -0.5084
vn 0.1295 -0.9809 -0.1449
vn 0.1287 -0.9810 -0.1450
vn 0.1288 -0.9810 -0.1451
vn 0.1297 -0.9824 -0.1343
vn 0.1294 -0.9831 -0.1295
vn -0.2140 -0.3277 -0.9202
vn -0.2132 -0.3278 -0.9204
vn -0.2172 -0.3251 -0.9204
vn 0.0460 -0.9968 -0.0657
vn 0.0460 -0.9969 -0.0644
vn -0.0918 -0.9894 -0.1122
vn -0.0931 -0.9894 -0.1110
vn -0.0934 -0.9896 -0.1091
vn -0.1908 -0.8347 -0.5166
vn -0.1909 -0.8347 -0.5166
vn -0.1919 -0.8342 -0.5170
vn 0.2057 -0.9786 0.0099
vn 0.0918 -0.9384 0.3331
vn 0.0919 -0.9381 0.3339
vn 0.0926 -0.9386 0.3323
vn 0.1068 -0.9859 0.1286
vn 0.1077 -0.9859 0.1280
vn 0.1070 -0.9859 0.1287
vn -0.0707 -0.9938 0.0862
vn -0.0725 -0.9937 0.0858
vn -0.0680 -0.9941 0.0849
vn 0.0881 0.9960 -0.0152
vn 0.0886 0.9960 -0.0145
vn 0.0883 0.9960 -0.0151
vn 0.1285 0.9917 0.0090
vn 0.1289 0.9916 0.0090
vn 0.1178 0.9631 0.2422
vn 0.1178 0.9630 0.2422
vn 0.1178 0.9631 0.2418
vn 0.1269 0.9904 -0.0541
vn 0.1267 0.9905 -0.0537
vn 0.1269 0.9904 -0.0539
vn 0.1366 0.9906 0.0102
vn 0.1383 0.9903 0.0101
vn 0.1380 0.9904 0.0099
vn 0.1027 0.9652 0.2406
vn 0.1027 0.9652 0.2405
vn 0.0373 0.9048 0.4243
vn 0.0410 0.9049 0.4236
vn 0.0375 0.9048 0.4241
vn 0.0344 0.4643 0.8850
vn 0.0341 0.4647 0.8848
vn 0.0342 0.4646 0.8849
vn 0.0177 0.9056 0.4237
vn 0.0224 0.9064 0.4219
vn 0.0219 0.9065 0.4217
vn -0.0314 0.4700 0.8821
vn -0.0322 0.4698 0.8822
vn 0.0035 0.9988 0.0489
vn 0.0050 0.9989 0.0468
vn 0.0041 0.9989 0.0472
vn -0.0595 0.9978 -0.0288
vn -0.0588 0.9978 -0.0320
vn -0.0592 0.9978 -0.0281
vn -0.0896 0.5386 0.8378
vn -0.0917 0.5378 0.8381
vn -0.0910 0.5378 0.8381
vn -0.1132 0.9509 0.2880
vn -0.1112 0.9517 0.2862
vn -0.1098 0.9519 0.2860
vn 0.1727 0.9845 -0.0308
vn 0.1727 0.9845 -0.0316
vn 0.1722 0.9845 -0.0330
vn 0.1215 0.9847 -0.1247
vn 0.1257 0.9844 -0.1229
vn 0.1260 0.9844 -0.1226
vn 0.1425 0.8928 -0.4273
vn 0.1439 0.8933 -0.4258
vn 0.1429 0.8929 -0.4270
vn 0.0975 0.6483 -0.7551
vn 0.0974 0.6484 -0.7551
vn 0.0990 0.6472 -0.7558
vn 0.0097 0.3614 -0.9324
vn 0.0108 0.3618 -0.9322
vn 0.0112 0.3614 -0.9323
vn -0.0795 0.3860 -0.9191
vn -0.0822 0.3847 -0.9194
vn -0.0798 0.3860 -0.9190
vn -0.0533 0.7488 -0.6606
vn -0.0538 0.7489 -0.6605
vn -0.0534 0.7489 -0.6606
vn 0.0369 0.9355 -0.3514
vn 0.0372 0.9355 -0.3514
vn 0.1236 0.9854 -0.1171
vn 0.1195 0.9861 -0.1150
vn 0.1259 0.9846 -0.1211
vn -0.1849 0.2745 -0.9436
vn -0.1818 0.2732 -0.9446
vn -0.1866 0.2739 -0.9435
vn -0.0502 0.9914 -0.1211
vn -0.0496 0.9913 -0.1217
vn -0.0503 0.9914 -0.1204
vn -0.0934 0.9896 -0.1091
vn -0.0931 0.9894 -0.1110
vn -0.0918 0.9894 -0.1122
vn -0.1451 0.8595 -0.4900
vn -0.1481 0.8587 -0.4905
vn -0.1466 0.8598 -0.4892
vn 0.9919 0.0579 0.1130
vn 0.9919 0.0576 0.1131
vn 0.9919 0.0578 0.1131
vn 0.1701 0.9357 0.3090
vn 0.1701 0.9362 0.3076
vn 0.1698 0.9359 0.3085
vn 0.0583 0.9655 0.2536
vn 0.0578 0.9655 0.2539
vn 0.0579 0.9655 0.2539
vn -0.0680 0.9941 0.0849
vn -0.0725 0.9937 0.0857
vn -0.0707 0.9938 0.0861
vn 0.9885 -0.0004 0.1512
vn 0.9885 -0.0001 0.1510
vn 0.9885 -0.0003 0.1511
vn 0.9322 -0.1601 -0.3247
vn 0.9321 -0.1613 -0.3242
vn 0.9324 -0.1616 -0.3232
vn 0.9223 0.0001 -0.3864
vn 0.9223 -0.0001 -0.3864
vn 0.9223 -0.0000 -0.3864
vn 0.9321 0.1612 -0.3242
vn 0.9322 0.1601 -0.3247
vn 0.9324 0.1616 -0.3232
vn 0.9454 -0.3158 -0.0808
vn 0.9452 -0.3160 -0.0822
vn 0.9452 -0.3159 -0.0820
vn 0.9921 -0.1219 0.0294
vn 0.9920 -0.1227 0.0303
vn 0.9920 -0.1227 0.0300
vn 0.9400 -0.2948 -0.1719
vn 0.9398 -0.2952 -0.1721
vn 0.9400 -0.2946 -0.1718
vn 0.9630 -0.1564 -0.2196
vn 0.9631 -0.1565 -0.2189
vn 0.9630 -0.1564 -0.2195
vn 0.9857 -0.1616 -0.0473
vn 0.9857 -0.1615 -0.0478
vn 0.9857 -0.1616 -0.0472
vn 0.9962 -0.0000 -0.0875
vn 0.9845 -0.0000 -0.1754
vn 0.9630 0.1563 -0.2195
vn 0.9631 0.1565 -0.2189
vn 0.9630 0.1563 -0.2196
vn 0.9958 -0.0004 0.0911
vn 0.9959 -0.0001 0.0909
vn 0.9959 -0.0000 0.0909
vn 0.9896 0.1394 0.0345
vn 0.9898 0.1385 0.0335
vn 0.9896 0.1394 0.0343
vn 0.9861 0.1595 -0.0474
vn 0.9861 0.1596 -0.0469
vn 0.9861 0.1596 -0.0470
vn 0.9552 0.2847 -0.0810
vn 0.9537 0.2889 -0.0839
vn 0.9547 0.2857 -0.0832
vn 0.9397 0.2962 -0.1707
vn 0.9395 0.2967 -0.1710
vn 0.9390 0.2960 -0.1750
vn 0.9550 -0.2850 0.0819
vn 0.9550 0.2851 0.0819
vn -0.9907 0.0019 -0.1357
vn -0.9906 -0.0000 -0.1371
vn -0.9907 -0.0016 -0.1363
vn -0.9901 -0.0335 -0.1364
vn -0.9901 -0.0345 -0.1361
vn -0.9342 0.1613 0.3180
vn -0.9343 0.1611 0.3181
vn -0.9332 0.1543 0.3246
vn -0.9230 -0.0000 0.3848
vn -0.9166 -0.1621 0.3655
vn -0.9162 -0.1641 0.3655
vn -0.9162 -0.1644 0.3654
vn -0.9816 -0.0659 0.1790
vn -0.9813 -0.0671 0.1806
vn -0.9811 -0.0653 0.1821
vn -0.9554 0.2837 0.0820
vn -0.9554 0.2837 0.0821
vn -0.9721 0.2205 0.0794
vn -0.9723 0.2190 0.0811
vn -0.9719 0.2206 0.0825
vn -0.9486 0.3068 0.0776
vn -0.9489 0.3055 0.0795
vn -0.9488 0.3056 0.0799
vn -0.9890 0.1437 -0.0354
vn -0.9888 0.1448 -0.0365
vn -0.9888 0.1448 -0.0366
vn -0.9915 0.1265 -0.0292
vn -0.9914 0.1272 -0.0301
vn -0.9914 0.1273 -0.0305
vn -0.9352 0.2990 0.1900
vn -0.9352 0.2989 0.1900
vn -0.9354 0.2982 0.1902
vn -0.9441 0.2773 0.1781
vn -0.9447 0.2757 0.1773
vn -0.9450 0.2747 0.1776
vn -0.9865 -0.1561 0.0500
vn -0.9866 -0.1556 0.0499
vn -0.9864 -0.1550 0.0538
vn -0.9386 0.2985 0.1731
vn -0.9389 0.2963 0.1753
vn -0.9388 0.2978 0.1732
vn -0.9678 0.1432 0.2070
vn -0.9675 0.1433 0.2085
vn -0.9674 0.1435 0.2085
vn -0.9635 0.1498 0.2219
vn -0.9634 0.1503 0.2221
vn -0.9633 0.1505 0.2221
vn -0.9659 0.1443 0.2152
vn -0.9658 0.1445 0.2152
vn -0.9658 0.1448 0.2152
vn -0.9633 -0.1505 0.2221
vn -0.9634 -0.1503 0.2221
vn -0.9635 -0.1498 0.2219
vn -0.9674 -0.1435 0.2085
vn -0.9675 -0.1433 0.2085
vn -0.9678 -0.1432 0.2070
vn -0.9658 -0.1448 0.2152
vn -0.9658 -0.1445 0.2152
vn -0.9659 -0.1443 0.2152
vn -0.9975 -0.0005 -0.0709
vn -0.9975 -0.0000 -0.0701
vn -0.9975 0.0005 -0.0704
vn -0.9975 -0.0006 -0.0706
vn -0.9975 0.0005 -0.0708
vn -0.9968 -0.0013 -0.0798
vn -0.9968 -0.0011 -0.0798
vn -0.9968 -0.0008 -0.0800
vn -0.9969 -0.0005 -0.0789
vn -0.9969 0.0002 -0.0781
vn -0.9969 0.0006 -0.0785
vn -0.9968 0.0008 -0.0800
vn -0.9968 0.0011 -0.0798
vn -0.9968 0.0013 -0.0798
vn -0.9969 -0.0005 -0.0787
vn -0.9969 -0.0002 -0.0781
vn -0.9969 0.0005 -0.0788
vn -0.9888 -0.1449 -0.0366
vn -0.9888 -0.1448 -0.0358
vn -0.9888 -0.1448 -0.0357
vn -0.9885 -0.1462 -0.0380
vn -0.9886 -0.1465 -0.0359
vn -0.9889 -0.1448 -0.0347
vn -0.9552 -0.2843 0.0820
vn -0.9556 -0.2835 0.0807
vn -0.9556 -0.2835 0.0801
vn -0.9546 -0.2860 0.0832
vn -0.9547 -0.2858 0.0827
vn -0.9547 -0.2859 0.0823
vn -0.9206 -0.3840 0.0713
vn -0.9210 -0.3828 0.0731
vn -0.9205 -0.3842 0.0713
vn -0.8824 -0.4422 0.1610
vn -0.8824 -0.4412 0.1638
vn -0.8832 -0.4401 0.1621
vn -0.9450 -0.2747 0.1776
vn -0.9447 -0.2757 0.1773
vn -0.9441 -0.2773 0.1781
vn -0.9354 -0.2982 0.1902
vn -0.9352 -0.2989 0.1900
vn -0.9352 -0.2990 0.1900
vn -0.9864 0.1550 0.0537
vn -0.9866 0.1556 0.0499
vn -0.9865 0.1561 0.0500
vn -0.9388 -0.2978 0.1732
vn -0.9389 -0.2963 0.1752
vn -0.9386 -0.2985 0.1731
vn -0.9074 0.4183 0.0398
vn -0.9072 0.4187 0.0409
vn -0.9070 0.4191 0.0416
vn -0.9541 0.2875 -0.0841
vn -0.9541 0.2876 -0.0835
vn -0.9541 0.2878 -0.0830
vn -0.9594 0.2677 -0.0893
vn -0.9594 0.2679 -0.0880
vn -0.9587 0.2714 -0.0853
vn -0.9395 0.3278 -0.0996
vn -0.9407 0.3257 -0.0949
vn -0.9392 0.3307 -0.0926
vn -0.9595 0.2705 -0.0791
vn -0.9582 0.2756 -0.0764
vn -0.9595 0.2706 -0.0784
vn -0.9070 -0.4192 0.0416
vn -0.9072 -0.4187 0.0409
vn -0.9074 -0.4183 0.0398
vn -0.9387 -0.3320 -0.0930
vn -0.9401 -0.3273 -0.0955
vn -0.9387 -0.3298 -0.1003
vn -0.9544 -0.2869 -0.0827
vn -0.9544 -0.2867 -0.0832
vn -0.9544 -0.2866 -0.0836
vn -0.9360 -0.3263 -0.1321
vn -0.9360 -0.3257 -0.1332
vn -0.9352 -0.3266 -0.1371
vn -0.9390 -0.3312 -0.0928
vn -0.9404 -0.3263 -0.0953
vn -0.9392 -0.3285 -0.0999
vn 0.1252 -0.9906 -0.0545
vn 0.1253 -0.9906 -0.0545
vn 0.1254 -0.9906 -0.0543
vn 0.1098 -0.9923 -0.0571
vn 0.1105 -0.9923 -0.0567
vn 0.1104 -0.9923 -0.0556
vn 0.0751 -0.9971 -0.0147
vn 0.0760 -0.9970 -0.0143
vn 0.0753 -0.9971 -0.0130
vn 0.1101 -0.9934 -0.0312
vn 0.1102 -0.9934 -0.0313
vn 0.1103 -0.9934 -0.0313
vn 0.1301 -0.9914 0.0107
vn 0.1304 -0.9914 0.0105
vn 0.1308 -0.9913 0.0105
vn 0.4383 -0.8986 -0.0212
vn 0.4386 -0.8985 -0.0203
vn -0.9871 -0.1056 0.1202
vn -0.9870 -0.1058 0.1207
vn -0.9871 -0.1054 0.1208
vn 0.1328 -0.9611 0.2422
vn 0.1328 -0.9611 0.2423
vn 0.1269 -0.9904 -0.0541
vn 0.1269 -0.9904 -0.0539
vn 0.1267 -0.9905 -0.0537
vn 0.1261 -0.9913 0.0372
vn 0.1265 -0.9913 0.0373
vn 0.1378 -0.9773 0.1608
vn 0.1378 -0.9774 0.1605
vn 0.1379 -0.9774 0.1605
vn -0.9630 -0.1576 0.2187
vn -0.9629 -0.1593 0.2179
vn -0.9624 -0.1607 0.2189
vn 0.0959 -0.8978 0.4299
vn 0.0962 -0.8981 0.4292
vn 0.0974 -0.8982 0.4287
vn 0.0372 -0.8788 0.4757
vn 0.0382 -0.8797 0.4739
vn 0.0424 -0.8795 0.4741
vn 0.0344 -0.4676 0.8833
vn 0.0343 -0.4679 0.8831
vn 0.0345 -0.4690 0.8825
vn 0.0236 -0.4508 0.8923
vn 0.0236 -0.4509 0.8923
vn 0.0236 -0.4518 0.8918
vn 0.0542 -0.9479 0.3139
vn 0.0558 -0.9479 0.3138
vn 0.0557 -0.9478 0.3139
vn -0.0314 -0.4700 0.8821
vn -0.0322 -0.4698 0.8822
vn 0.0031 -0.9960 0.0890
vn 0.0032 -0.9963 0.0861
vn 0.0054 -0.9963 0.0855
vn -0.0165 -0.9992 0.0365
vn -0.0162 -0.9992 0.0361
vn -0.0161 -0.9992 0.0360
vn -0.9717 -0.2183 0.0901
vn -0.9726 -0.2154 0.0877
vn -0.9724 -0.2173 0.0845
vn -0.0200 -0.9984 -0.0528
vn -0.0199 -0.9984 -0.0529
vn -0.0200 -0.9983 -0.0539
vn -0.0380 -0.9980 -0.0496
vn -0.0389 -0.9979 -0.0511
vn -0.0372 -0.9978 -0.0545
vn -0.0971 -0.5363 0.8384
vn -0.0973 -0.5363 0.8384
vn -0.0980 -0.5363 0.8383
vn -0.1597 -0.5335 0.8306
vn -0.1604 -0.5332 0.8306
vn -0.1620 -0.5338 0.8300
vn -0.0955 -0.5194 0.8492
vn -0.0976 -0.5208 0.8481
vn -0.0960 -0.5194 0.8491
vn -0.1143 -0.9503 0.2895
vn -0.1105 -0.9518 0.2861
vn -0.1064 -0.9516 0.2884
vn -0.1110 -0.9514 0.2872
vn -0.1109 -0.9514 0.2872
vn -0.1091 -0.9515 0.2875
vn -0.0563 -0.9984 0.0082
vn -0.0547 -0.9985 0.0098
vn -0.0545 -0.9985 0.0104
vn 0.0048 -0.9883 0.1526
vn 0.0058 -0.9881 0.1538
vn 0.0060 -0.9879 0.1548
vn -0.0038 -0.9889 0.1487
vn -0.0009 -0.9884 0.1516
vn -0.0012 -0.9887 0.1498
vn 0.1206 -0.9837 -0.1337
vn 0.1201 -0.9837 -0.1340
vn 0.1196 -0.9831 -0.1386
vn 0.1183 -0.9858 -0.1192
vn 0.1181 -0.9859 -0.1188
vn 0.1221 -0.9856 -0.1170
vn 0.2539 -0.9601 -0.1173
vn 0.2537 -0.9601 -0.1175
vn 0.2537 -0.9601 -0.1180
vn 0.0839 -0.9003 -0.4271
vn 0.0849 -0.9005 -0.4266
vn 0.0852 -0.9010 -0.4254
vn 0.1139 -0.9274 -0.3564
vn 0.1143 -0.9275 -0.3560
vn 0.1146 -0.9276 -0.3555
vn -0.2328 -0.6590 -0.7152
vn -0.2326 -0.6618 -0.7127
vn -0.2326 -0.6618 -0.7126
vn 0.0368 -0.7379 -0.6739
vn 0.0350 -0.7387 -0.6732
vn 0.0343 -0.7387 -0.6732
vn 0.0685 -0.7322 -0.6776
vn 0.0677 -0.7324 -0.6775
vn 0.0676 -0.7323 -0.6776
vn 0.1980 -0.7308 -0.6533
vn 0.1970 -0.7318 -0.6524
vn 0.1957 -0.7317 -0.6530
vn 0.0089 -0.3599 -0.9329
vn 0.0088 -0.3599 -0.9330
vn 0.0085 -0.3599 -0.9330
vn 0.1186 -0.3557 -0.9271
vn 0.1178 -0.3564 -0.9269
vn 0.1176 -0.3566 -0.9268
vn -0.0795 -0.3860 -0.9191
vn -0.0798 -0.3860 -0.9190
vn -0.0822 -0.3847 -0.9194
vn -0.0533 -0.7488 -0.6606
vn -0.0534 -0.7489 -0.6606
vn -0.0538 -0.7489 -0.6605
vn 0.0369 -0.9355 -0.3514
vn 0.0372 -0.9355 -0.3514
vn 0.1236 -0.9854 -0.1171
vn 0.1259 -0.9846 -0.1211
vn 0.1195 -0.9861 -0.1150
vn -0.2317 -0.2691 -0.9348
vn -0.2319 -0.2689 -0.9348
vn -0.2338 -0.2684 -0.9345
vn -0.2073 -0.3329 -0.9199
vn -0.2089 -0.3330 -0.9195
vn -0.2121 -0.3315 -0.9193
vn -0.0403 -0.9919 -0.1203
vn -0.0406 -0.9917 -0.1217
vn -0.0397 -0.9917 -0.1225
vn -0.0674 -0.9899 -0.1251
vn -0.0673 -0.9898 -0.1254
vn -0.0672 -0.9898 -0.1254
vn -0.0425 -0.9910 -0.1266
vn -0.0428 -0.9908 -0.1287
vn -0.8773 -0.4763 -0.0594
vn -0.8784 -0.4738 -0.0632
vn -0.8764 -0.4777 -0.0602
vn -0.0697 -0.9889 -0.1315
vn -0.0693 -0.9888 -0.1323
vn -0.0683 -0.9887 -0.1332
vn -0.0851 -0.9886 -0.1244
vn -0.0847 -0.9884 -0.1258
vn -0.0830 -0.9884 -0.1270
vn -0.1462 -0.8642 -0.4815
vn -0.1463 -0.8642 -0.4814
vn -0.1469 -0.8640 -0.4815
vn -0.1452 -0.8634 -0.4831
vn -0.1459 -0.8634 -0.4830
vn -0.1468 -0.8631 -0.4833
vn -0.0994 -0.8870 -0.4510
vn -0.0995 -0.8870 -0.4510
vn -0.1005 -0.8867 -0.4513
vn -0.1534 -0.8590 -0.4885
vn -0.1547 -0.8585 -0.4890
vn -0.1535 -0.8590 -0.4884
vn 0.4633 -0.7045 -0.5377
vn 0.2048 -0.9787 0.0145
vn 0.1156 -0.9592 0.2581
vn 0.1155 -0.9593 0.2576
vn 0.1160 -0.9595 0.2567
vn 0.0964 -0.9435 0.3171
vn 0.0964 -0.9435 0.3170
vn 0.0972 -0.9438 0.3160
vn 0.1214 -0.9596 0.2537
vn 0.1213 -0.9599 0.2528
vn 0.0583 -0.9655 0.2536
vn 0.0579 -0.9655 0.2539
vn 0.0578 -0.9655 0.2539
vn -0.9667 -0.1295 0.2206
vn -0.9669 -0.1283 0.2204
vn -0.9676 -0.1265 0.2187
vn -0.0926 -0.9895 0.1108
vn -0.0934 -0.9894 0.1108
vn -0.0934 -0.9894 0.1107
vn -0.0549 -0.9979 0.0356
vn -0.0587 -0.9975 0.0383
vn -0.0619 -0.9975 0.0336
vn 0.1103 0.9923 -0.0557
vn 0.1104 0.9923 -0.0567
vn 0.1098 0.9923 -0.0570
vn 0.1253 0.9906 -0.0543
vn 0.1252 0.9906 -0.0544
vn 0.1252 0.9906 -0.0545
vn 0.0753 0.9971 -0.0131
vn 0.0760 0.9970 -0.0143
vn 0.0751 0.9971 -0.0146
vn 0.1308 0.9914 0.0106
vn 0.1304 0.9914 0.0106
vn 0.1303 0.9914 0.0108
vn 0.1103 0.9934 -0.0312
vn 0.1102 0.9934 -0.0312
vn 0.1102 0.9934 -0.0311
vn 0.4385 0.8985 -0.0205
vn 0.4384 0.8985 -0.0211
vn 0.4384 0.8986 -0.0211
vn 0.1171 0.9633 0.2414
vn 0.1171 0.9634 0.2413
vn 0.1323 0.9511 0.2791
vn 0.1324 0.9512 0.2789
vn 0.1323 0.9513 0.2786
vn 0.1243 0.9905 -0.0595
vn 0.1243 0.9905 -0.0596
vn 0.1265 0.9913 0.0373
vn 0.1261 0.9913 0.0372
vn 0.1379 0.9774 0.1605
vn 0.1378 0.9774 0.1605
vn 0.1378 0.9773 0.1608
vn 0.0406 0.9048 0.4240
vn 0.0380 0.9046 0.4246
vn 0.0369 0.9039 0.4261
vn 0.0932 0.7617 0.6412
vn 0.0928 0.7614 0.6417
vn 0.0918 0.7612 0.6420
vn 0.4576 0.8288 0.3219
vn 0.4531 0.8319 0.3203
vn 0.4527 0.8320 0.3206
vn 0.1207 0.4646 0.8773
vn 0.1207 0.4641 0.8775
vn 0.1213 0.4636 0.8777
vn 0.0232 0.4689 0.8829
vn 0.0233 0.4685 0.8832
vn 0.0242 0.4678 0.8835
vn 0.0557 0.9478 0.3139
vn 0.0558 0.9479 0.3138
vn 0.0542 0.9479 0.3139
vn -0.0086 0.5189 0.8548
vn -0.0082 0.5189 0.8548
vn -0.0066 0.5198 0.8543
vn -0.9403 0.3312 0.0781
vn -0.9407 0.3299 0.0786
vn -0.9407 0.3294 0.0810
vn -0.0160 0.9992 0.0360
vn -0.0162 0.9992 0.0362
vn -0.0164 0.9992 0.0365
vn -0.0372 0.9978 -0.0545
vn -0.0389 0.9979 -0.0511
vn -0.0380 0.9980 -0.0496
vn -0.0200 0.9983 -0.0539
vn -0.0199 0.9984 -0.0529
vn -0.0200 0.9984 -0.0528
vn -0.9724 0.2173 0.0845
vn -0.9726 0.2154 0.0877
vn -0.9717 0.2183 0.0901
vn -0.1636 0.3931 0.9048
vn -0.1615 0.3913 0.9060
vn -0.1599 0.3924 0.9058
vn -0.0980 0.5288 0.8431
vn -0.0978 0.5289 0.8430
vn -0.0973 0.5290 0.8430
vn -0.1041 0.5209 0.8472
vn -0.1022 0.5188 0.8488
vn -0.1007 0.5198 0.8483
vn -0.1108 0.9507 0.2898
vn -0.1112 0.9506 0.2898
vn -0.1132 0.9502 0.2904
vn -0.1096 0.9515 0.2873
vn -0.1106 0.9514 0.2873
vn -0.1133 0.9508 0.2883
vn 0.0063 0.9911 0.1328
vn 0.0064 0.9913 0.1311
vn 0.0062 0.9914 0.1309
vn -0.0627 0.9865 0.1514
vn -0.0625 0.9868 0.1496
vn -0.0631 0.9868 0.1490
vn 0.0037 0.9884 0.1518
vn 0.0028 0.9890 0.1482
vn 0.0041 0.9888 0.1495
vn 0.1223 0.9864 -0.1100
vn 0.1224 0.9864 -0.1097
vn 0.1179 0.9869 -0.1101
vn 0.1179 0.9857 -0.1206
vn 0.1184 0.9856 -0.1209
vn 0.1207 0.9858 -0.1165
vn 0.3427 0.9324 -0.1151
vn 0.3427 0.9324 -0.1149
vn 0.3435 0.9321 -0.1148
vn 0.1143 0.9291 -0.3518
vn 0.1145 0.9283 -0.3539
vn 0.1129 0.9282 -0.3546
vn 0.0878 0.9309 -0.3546
vn 0.0877 0.9308 -0.3548
vn 0.0875 0.9308 -0.3550
vn 0.0676 0.7323 -0.6776
vn 0.0677 0.7324 -0.6775
vn 0.0685 0.7322 -0.6776
vn 0.0343 0.7387 -0.6732
vn 0.0350 0.7387 -0.6732
vn 0.0368 0.7379 -0.6739
vn -0.2326 0.6618 -0.7126
vn -0.2326 0.6618 -0.7127
vn -0.2328 0.6590 -0.7152
vn 0.0085 0.3598 -0.9330
vn 0.0088 0.3598 -0.9330
vn 0.0089 0.3599 -0.9330
vn 0.1958 0.7316 -0.6530
vn 0.1970 0.7318 -0.6524
vn 0.1980 0.7308 -0.6533
vn 0.1176 0.3565 -0.9269
vn 0.1178 0.3563 -0.9269
vn 0.1186 0.3557 -0.9271
vn -0.1021 0.3260 -0.9398
vn -0.1009 0.3262 -0.9399
vn 0.0203 0.8609 -0.5083
vn 0.0204 0.8609 -0.5084
vn 0.1295 0.9809 -0.1449
vn 0.1288 0.9810 -0.1451
vn 0.1287 0.9810 -0.1450
vn 0.1297 0.9824 -0.1343
vn 0.1294 0.9831 -0.1295
vn -0.2134 0.3231 -0.9220
vn -0.2093 0.3282 -0.9211
vn -0.2056 0.3266 -0.9225
vn -0.2294 0.3335 -0.9144
vn -0.2293 0.3336 -0.9144
vn -0.2279 0.3333 -0.9148
vn -0.0602 0.9958 -0.0693
vn -0.0608 0.9958 -0.0686
vn -0.0609 0.9958 -0.0678
vn -0.0406 0.9910 -0.1274
vn -0.0409 0.9911 -0.1269
vn -0.0410 0.9911 -0.1267
vn -0.0399 0.9909 -0.1289
vn -0.0408 0.9910 -0.1272
vn -0.0409 0.9909 -0.1279
vn -0.0830 0.9884 -0.1270
vn -0.0847 0.9884 -0.1258
vn -0.0851 0.9886 -0.1244
vn -0.0683 0.9887 -0.1332
vn -0.0693 0.9888 -0.1323
vn -0.0697 0.9889 -0.1315
vn -0.8764 0.4777 -0.0602
vn -0.8784 0.4738 -0.0632
vn -0.8773 0.4763 -0.0594
vn -0.1406 0.8805 -0.4528
vn -0.1391 0.8812 -0.4518
vn -0.1375 0.8809 -0.4530
vn -0.1466 0.8633 -0.4829
vn -0.1461 0.8634 -0.4829
vn -0.1466 0.8640 -0.4816
vn -0.1486 0.8638 -0.4814
vn -0.1477 0.8640 -0.4813
vn -0.1498 0.8417 -0.5187
vn -0.1484 0.8427 -0.5175
vn -0.1467 0.8423 -0.5186
vn 0.2720 0.9621 0.0195
vn 0.2719 0.9621 0.0189
vn 0.2150 0.9441 -0.2498
vn 0.2149 0.9441 -0.2498
vn 0.2149 0.9441 -0.2499
vn 0.0958 0.9621 0.2554
vn 0.0955 0.9619 0.2561
vn 0.0959 0.9616 0.2571
vn 0.1154 0.9603 0.2538
vn 0.1159 0.9600 0.2549
vn -0.1259 0.9293 0.3472
vn -0.1277 0.9287 0.3482
vn -0.1276 0.9285 0.3488
vn 0.1068 0.9859 0.1286
vn 0.1070 0.9859 0.1287
vn 0.1077 0.9859 0.1280
vn -0.0618 0.9975 0.0337
vn -0.0587 0.9975 0.0383
vn -0.0549 0.9979 0.0356
vn -0.0934 0.9895 0.1107
vn -0.0926 0.9895 0.1107
vn -0.9676 0.1266 0.2187
vn -0.9669 0.1284 0.2203
vn -0.9667 0.1295 0.2206
vn 0.9958 -0.0004 0.0913
vn 0.9958 -0.0000 0.0911
vn 0.9958 0.0001 0.0911
vn 0.9899 -0.0005 0.1421
vn 0.9899 -0.0000 0.1418
vn 0.9899 0.0005 0.1421
vn 0.9832 -0.0038 0.1823
vn 0.9833 -0.0037 0.1821
vn 0.9833 -0.0032 0.1821
vn 0.9966 0.0362 0.0735
vn 0.9967 0.0367 0.0728
vn 0.9323 -0.1610 -0.3237
vn 0.9321 -0.1607 -0.3246
vn 0.9321 -0.1601 -0.3250
vn 0.9327 -0.1621 -0.3221
vn 0.9326 -0.1618 -0.3226
vn 0.9325 -0.1614 -0.3229
vn 0.9241 -0.0018 -0.3821
vn 0.9237 -0.0000 -0.3831
vn 0.9241 0.0018 -0.3821
vn 0.9326 0.1614 -0.3229
vn 0.9326 0.1618 -0.3226
vn 0.9328 0.1620 -0.3220
vn 0.9321 0.1600 -0.3250
vn 0.9321 0.1607 -0.3245
vn 0.9324 0.1609 -0.3237
vn 0.9868 0.1576 -0.0363
vn 0.9861 0.1610 -0.0404
vn 0.9862 0.1610 -0.0389
vn 0.9551 -0.2848 -0.0822
vn 0.9551 -0.2847 -0.0819
vn 0.9551 -0.2846 -0.0817
vn 0.9579 -0.2750 -0.0822
vn 0.9594 -0.2703 -0.0805
vn 0.9596 -0.2702 -0.0791
vn 0.9888 -0.1434 0.0409
vn 0.9888 -0.1437 0.0397
vn 0.9889 -0.1433 0.0392
vn 0.9101 -0.4106 0.0564
vn 0.9097 -0.4117 0.0549
vn 0.9101 -0.4108 0.0542
vn 0.9944 -0.1026 0.0234
vn 0.9945 -0.1025 0.0230
vn 0.9945 -0.1018 0.0224
vn 0.9887 -0.1456 0.0355
vn 0.9887 -0.1458 0.0359
vn 0.9887 -0.1457 0.0357
vn 0.9677 -0.1799 -0.1767
vn 0.9679 -0.1792 -0.1760
vn 0.9678 -0.1795 -0.1763
vn 0.9392 -0.2994 -0.1684
vn 0.9390 -0.2998 -0.1686
vn 0.9383 -0.2997 -0.1727
vn 0.9617 -0.1681 -0.2164
vn 0.9618 -0.1681 -0.2162
vn 0.9619 -0.1693 -0.2149
vn 0.9631 -0.1543 -0.2204
vn 0.9636 -0.1532 -0.2190
vn 0.9637 -0.1534 -0.2183
vn 0.9642 -0.1467 -0.2209
vn 0.9643 -0.1466 -0.2206
vn 0.9643 -0.1467 -0.2204
vn 0.9860 -0.1594 -0.0481
vn 0.9862 -0.1590 -0.0469
vn 0.9862 -0.1591 -0.0467
vn 0.9889 -0.1415 -0.0442
vn 0.9889 -0.1416 -0.0441
vn 0.9889 -0.1416 -0.0439
vn 0.9619 0.1693 -0.2149
vn 0.9618 0.1680 -0.2162
vn 0.9617 0.1680 -0.2164
vn 0.9643 0.1466 -0.2204
vn 0.9643 0.1466 -0.2206
vn 0.9642 0.1466 -0.2209
vn 0.9638 0.1534 -0.2183
vn 0.9636 0.1531 -0.2190
vn 0.9631 0.1543 -0.2204
vn 0.9958 -0.0005 0.0911
vn 0.9959 0.0001 0.0909
vn 0.9969 -0.0005 0.0789
vn 0.9969 -0.0000 0.0786
vn 0.9969 0.0005 0.0789
vn 0.9945 0.1019 0.0223
vn 0.9945 0.1025 0.0230
vn 0.9944 0.1026 0.0234
vn 0.9890 0.1437 0.0363
vn 0.9889 0.1438 0.0364
vn 0.9172 0.3948 0.0533
vn 0.9168 0.3957 0.0540
vn 0.9172 0.3946 0.0556
vn 0.9828 0.1790 0.0443
vn 0.9831 0.1781 0.0434
vn 0.9829 0.1790 0.0442
vn 0.9984 0.0553 0.0061
vn 0.9984 0.0561 0.0068
vn 0.9984 0.0562 0.0072
vn 0.9841 0.1716 -0.0453
vn 0.9843 0.1702 -0.0462
vn 0.9843 0.1701 -0.0467
vn 0.9889 0.1416 -0.0439
vn 0.9889 0.1416 -0.0441
vn 0.9889 0.1415 -0.0442
vn 0.9862 -0.1610 -0.0389
vn 0.9861 -0.1610 -0.0404
vn 0.9868 -0.1576 -0.0363
vn 0.9255 0.3695 -0.0836
vn 0.9268 0.3667 -0.0814
vn 0.9249 0.3711 -0.0832
vn 0.9546 0.2865 -0.0820
vn 0.9545 0.2866 -0.0824
vn 0.9537 0.2886 -0.0845
vn 0.9552 0.2846 -0.0814
vn 0.9551 0.2847 -0.0817
vn 0.9539 0.2882 -0.0838
vn 0.9383 0.2997 -0.1727
vn 0.9390 0.2998 -0.1686
vn 0.9392 0.2994 -0.1684
vn 0.9412 0.2895 -0.1742
vn 0.9414 0.2891 -0.1739
vn 0.9414 0.2890 -0.1739
=======
v -0.000788 -0.000312 0.000000
v -0.000557 -0.000325 0.000064
v -0.000552 -0.000337 0.000297
v -0.000556 -0.000335 0.000533
v -0.000788 0.000312 0.000000
v -0.000074 -0.000260 0.000524
v -0.000072 -0.000269 0.000286
v -0.000082 -0.000256 0.000047
v 0.000116 0.000000 0.001062
v -0.000704 0.000000 0.001062
v 0.000035 0.000164 0.000558
v -0.000008 0.000000 0.000000
v 0.000035 -0.000164 0.000558
v -0.000785 0.000164 0.000558
v -0.000828 0.000000 0.000000
v -0.000785 -0.000164 0.000558
v -0.000572 -0.000285 0.000741
v -0.000603 -0.000184 0.001039
v -0.000612 0.000000 0.001137
v -0.000121 -0.000163 0.001057
v -0.000148 0.000000 0.001156
v -0.000085 -0.000225 0.000748
v -0.000562 -0.000301 -0.000144
v -0.000576 -0.000239 -0.000311
v -0.000600 -0.000147 -0.000413
v -0.000645 0.000000 -0.000470
v -0.000134 0.000000 -0.000520
v -0.000121 -0.000129 -0.000477
v -0.000104 -0.000203 -0.000351
v -0.000092 -0.000228 -0.000169
v -0.000589 -0.000239 0.000921
v -0.000102 -0.000203 0.000934
v -0.000557 0.000325 0.000064
v -0.000552 0.000337 0.000297
v -0.000556 0.000335 0.000533
v -0.000572 0.000285 0.000741
v -0.000082 0.000256 0.000047
v -0.000072 0.000269 0.000286
v -0.000074 0.000260 0.000524
v -0.000085 0.000225 0.000748
v -0.000589 0.000239 0.000921
v -0.000603 0.000184 0.001039
v -0.000102 0.000203 0.000934
v -0.000121 0.000163 0.001057
v -0.000562 0.000301 -0.000144
v -0.000576 0.000239 -0.000311
v -0.000600 0.000147 -0.000413
v -0.000121 0.000129 -0.000477
v -0.000104 0.000203 -0.000351
v -0.000092 0.000228 -0.000169
v 0.000055 -0.000265 0.000459
v 0.000043 -0.000271 0.000283
v 0.000058 -0.000259 0.000527
v 0.000039 -0.000270 0.000224
v 0.000034 -0.000267 0.000170
v 0.000027 -0.000260 0.000040
v 0.000154 -0.000064 0.001155
v 0.000166 0.000000 0.001197
v 0.000155 -0.000043 0.001168
v 0.000157 -0.000185 0.001103
v 0.000126 -0.000224 0.000963
v 0.000137 -0.000205 0.001029
v 0.000075 -0.000236 0.000680
v 0.000059 -0.000257 0.000542
v 0.000089 -0.000236 0.000760
v 0.000035 0.000000 -0.000563
v 0.000031 -0.000088 -0.000531
v 0.000029 -0.000135 -0.000517
v 0.000025 -0.000255 0.000000
v 0.000027 -0.000239 -0.000125
v 0.000029 -0.000235 -0.000185
v 0.000030 -0.000226 -0.000267
v 0.000034 -0.000212 -0.000382
v 0.000030 -0.000229 -0.000244
v 0.000028 -0.000140 -0.000507
v 0.000027 -0.000146 -0.000497
v 0.000028 -0.000161 -0.000471
v 0.000104 -0.000235 0.000846
v 0.000095 -0.000235 0.000801
v 0.000055 0.000265 0.000459
v 0.000058 0.000259 0.000527
v 0.000043 0.000271 0.000283
v 0.000039 0.000270 0.000224
v 0.000034 0.000267 0.000170
v 0.000027 0.000260 0.000040
v 0.000154 0.000064 0.001155
v 0.000157 0.000185 0.001103
v 0.000155 0.000043 0.001168
v 0.000137 0.000205 0.001029
v 0.000126 0.000224 0.000963
v 0.000075 0.000236 0.000680
v 0.000089 0.000236 0.000760
v 0.000059 0.000257 0.000542
v 0.000031 0.000088 -0.000531
v 0.000029 0.000135 -0.000517
v 0.000027 0.000239 -0.000125
v 0.000029 0.000235 -0.000185
v 0.000025 0.000255 0.000000
v 0.000030 0.000229 -0.000244
v 0.000030 0.000226 -0.000267
v 0.000034 0.000212 -0.000382
v 0.000028 0.000140 -0.000507
v 0.000027 0.000146 -0.000497
v 0.000028 0.000161 -0.000471
v 0.000095 0.000235 0.000801
v 0.000104 0.000235 0.000846
v -0.000786 -0.000034 -0.000561
v -0.000792 -0.000035 -0.000507
v -0.000792 0.000035 -0.000507
v -0.000786 0.000034 -0.000561
v -0.000780 0.000000 -0.000600
v -0.000681 0.000026 0.001126
v -0.000685 0.000192 0.001032
v -0.000682 0.000187 0.001041
v -0.000676 0.000000 0.001139
v -0.000681 -0.000026 0.001126
v -0.000685 -0.000192 0.001032
v -0.000682 -0.000187 0.001041
v -0.000763 0.000356 0.000166
v -0.000763 0.000356 0.000171
v -0.000744 0.000364 0.000396
v -0.000751 0.000362 0.000302
v -0.000735 0.000362 0.000523
v -0.000791 0.000188 -0.000385
v -0.000794 0.000160 -0.000410
v -0.000798 0.000125 -0.000424
v -0.000703 0.000262 0.000892
v -0.000704 0.000266 0.000881
v -0.000732 0.000361 0.000538
v -0.000727 0.000339 0.000610
v -0.000715 0.000303 0.000747
v -0.000698 0.000250 0.000926
v -0.000696 0.000232 0.000947
v -0.000703 -0.000262 0.000892
v -0.000698 -0.000250 0.000926
v -0.000696 -0.000232 0.000947
v -0.000794 -0.000035 -0.000481
v -0.000796 -0.000067 -0.000446
v -0.000798 -0.000125 -0.000424
v -0.000796 0.000067 -0.000446
v -0.000794 0.000035 -0.000481
v -0.000794 -0.000160 -0.000410
v -0.000791 -0.000188 -0.000385
v -0.000744 -0.000364 0.000396
v -0.000751 -0.000362 0.000302
v -0.000735 -0.000362 0.000523
v -0.000763 -0.000356 0.000171
v -0.000763 -0.000356 0.000166
v -0.000727 -0.000339 0.000610
v -0.000732 -0.000361 0.000538
v -0.000704 -0.000266 0.000881
v -0.000715 -0.000303 0.000747
v -0.000772 0.000348 0.000000
v -0.000768 0.000355 0.000069
v -0.000773 0.000335 -0.000108
v -0.000787 0.000208 -0.000368
v -0.000772 0.000330 -0.000143
v -0.000774 0.000295 -0.000236
v -0.000778 0.000260 -0.000311
v -0.000768 -0.000355 0.000069
v -0.000772 -0.000348 0.000000
v -0.000773 -0.000335 -0.000108
v -0.000772 -0.000330 -0.000143
v -0.000787 -0.000208 -0.000368
v -0.000778 -0.000260 -0.000311
v -0.000774 -0.000295 -0.000236
vn -0.9905 0.0112 -0.1372
vn -0.9905 0.0122 -0.1373
vn -0.9905 0.0115 -0.1373
vn -0.9320 0.1470 0.3313
vn -0.9317 0.1490 0.3312
vn -0.9317 0.1487 0.3313
vn -0.9353 -0.0000 0.3540
vn -0.9467 -0.1457 0.2873
vn -0.9458 -0.1394 0.2932
vn -0.9467 -0.1455 0.2872
vn -0.9584 0.2763 0.0716
vn -0.9582 0.2775 0.0697
vn -0.9584 0.2763 0.0713
vn -0.9909 0.1309 -0.0328
vn -0.9908 0.1310 -0.0329
vn -0.9908 0.1315 -0.0336
vn -0.9505 0.2711 0.1517
vn -0.9506 0.2710 0.1517
vn -0.9509 0.2689 0.1531
vn -0.9745 0.1261 0.1858
vn -0.9745 0.1257 0.1856
vn -0.9909 0.1287 0.0398
vn -0.9969 -0.0000 0.0780
vn -0.9876 -0.0000 0.1568
vn -0.9745 -0.1261 0.1858
vn -0.9745 -0.1257 0.1856
vn -0.9975 0.0003 -0.0711
vn -0.9975 -0.0000 -0.0710
vn -0.9975 -0.0003 -0.0711
vn -0.9919 -0.1213 -0.0376
vn -0.9919 -0.1216 -0.0361
vn -0.9921 -0.1208 -0.0351
vn -0.9909 -0.1285 0.0398
vn -0.9644 -0.2544 0.0719
vn -0.9641 -0.2554 0.0731
vn -0.9645 -0.2545 0.0712
vn -0.9505 -0.2711 0.1517
vn -0.9509 -0.2689 0.1532
vn -0.9506 -0.2710 0.1517
vn -0.9186 0.3941 0.0280
vn -0.9183 0.3953 0.0213
vn -0.9189 0.3935 0.0273
vn -0.9219 0.3852 -0.0410
vn -0.9603 0.2686 -0.0751
vn -0.9603 0.2685 -0.0752
vn -0.9594 0.2727 -0.0725
vn -0.9183 -0.3953 0.0213
vn -0.9186 -0.3941 0.0280
vn -0.9189 -0.3935 0.0273
vn -0.9673 -0.2438 -0.0703
vn -0.9680 -0.2422 -0.0658
vn -0.9680 -0.2421 -0.0662
vn -0.9219 -0.3852 -0.0410
vn 0.0988 -0.9950 -0.0153
vn 0.0990 -0.9950 -0.0152
vn 0.0994 -0.9949 -0.0145
vn 0.1444 -0.9895 0.0089
vn 0.1437 -0.9896 0.0089
vn 0.1438 -0.9896 0.0088
vn 0.1311 -0.9579 0.2553
vn 0.1312 -0.9580 0.2549
vn 0.1312 -0.9580 0.2551
vn 0.1392 -0.9885 -0.0594
vn 0.1548 -0.9879 0.0100
vn 0.1529 -0.9882 0.0102
vn 0.1544 -0.9880 0.0099
vn 0.1151 -0.9639 0.2402
vn 0.1151 -0.9639 0.2403
vn 0.0443 -0.8799 0.4730
vn 0.0422 -0.8794 0.4741
vn 0.0425 -0.8796 0.4737
vn 0.0336 -0.4668 0.8837
vn 0.0342 -0.4660 0.8841
vn 0.0251 -0.9063 0.4219
vn 0.0198 -0.9056 0.4237
vn 0.0245 -0.9064 0.4216
vn -0.0096 -0.5189 0.8548
vn -0.0074 -0.5198 0.8543
vn -0.0092 -0.5189 0.8548
vn -0.0220 -0.9992 0.0335
vn -0.0236 -0.9991 0.0356
vn -0.0222 -0.9992 0.0335
vn -0.0664 -0.9974 -0.0281
vn -0.0659 -0.9973 -0.0320
vn -0.0668 -0.9974 -0.0288
vn -0.0806 -0.3934 0.9159
vn -0.0803 -0.3934 0.9159
vn -0.0827 -0.3945 0.9152
vn -0.1192 -0.9494 0.2907
vn -0.1245 -0.9491 0.2893
vn -0.1229 -0.9494 0.2892
vn -0.0271 -0.9909 0.1319
vn -0.0268 -0.9909 0.1322
vn -0.0261 -0.9907 0.1337
vn 0.1361 -0.9834 -0.1198
vn 0.1380 -0.9837 -0.1153
vn 0.1378 -0.9837 -0.1156
vn 0.1305 -0.9269 -0.3518
vn 0.1306 -0.9266 -0.3526
vn 0.1296 -0.9263 -0.3537
vn 0.1092 -0.6476 -0.7541
vn 0.1093 -0.6476 -0.7541
vn 0.1110 -0.6464 -0.7549
vn 0.0108 -0.3614 -0.9324
vn 0.0126 -0.3614 -0.9323
vn 0.0121 -0.3618 -0.9322
vn -0.1144 -0.3256 -0.9386
vn -0.1131 -0.3258 -0.9387
vn 0.0227 -0.8609 -0.5083
vn 0.0228 -0.8608 -0.5084
vn 0.1450 -0.9788 -0.1446
vn 0.1441 -0.9789 -0.1447
vn 0.1442 -0.9789 -0.1448
vn 0.1452 -0.9803 -0.1340
vn 0.1448 -0.9810 -0.1292
vn -0.2387 -0.3257 -0.9148
vn -0.2378 -0.3258 -0.9150
vn -0.2423 -0.3231 -0.9148
vn 0.0516 -0.9965 -0.0657
vn 0.0516 -0.9966 -0.0644
vn -0.1029 -0.9884 -0.1121
vn -0.1043 -0.9883 -0.1109
vn -0.1047 -0.9885 -0.1089
vn -0.2131 -0.8308 -0.5142
vn -0.2143 -0.8302 -0.5146
vn 0.2296 -0.9732 0.0099
vn 0.1029 -0.9374 0.3328
vn 0.1030 -0.9371 0.3335
vn 0.1038 -0.9376 0.3320
vn 0.1197 -0.9845 0.1284
vn 0.1207 -0.9844 0.1278
vn 0.1199 -0.9844 0.1285
vn -0.0793 -0.9931 0.0861
vn -0.0813 -0.9930 0.0857
vn -0.0762 -0.9935 0.0848
vn 0.0987 0.9950 -0.0152
vn 0.0993 0.9950 -0.0145
vn 0.0990 0.9950 -0.0151
vn 0.1438 0.9896 0.0090
vn 0.1443 0.9895 0.0090
vn 0.1439 0.9896 0.0090
vn 0.1320 0.9613 0.2417
vn 0.1319 0.9613 0.2418
vn 0.1319 0.9614 0.2414
vn 0.1421 0.9884 -0.0539
vn 0.1419 0.9884 -0.0536
vn 0.1421 0.9884 -0.0538
vn 0.1529 0.9882 0.0102
vn 0.1548 0.9879 0.0100
vn 0.1544 0.9880 0.0099
vn 0.1151 0.9639 0.2403
vn 0.1151 0.9639 0.2402
vn 0.0418 0.9046 0.4242
vn 0.0459 0.9047 0.4235
vn 0.0421 0.9047 0.4241
vn 0.0386 0.4642 0.8849
vn 0.0383 0.4646 0.8847
vn 0.0383 0.4645 0.8847
vn 0.0198 0.9056 0.4237
vn 0.0251 0.9063 0.4219
vn 0.0245 0.9064 0.4216
vn -0.0352 0.4700 0.8820
vn -0.0361 0.4698 0.8821
vn -0.0361 0.4697 0.8821
vn 0.0039 0.9988 0.0489
vn 0.0056 0.9989 0.0468
vn 0.0046 0.9989 0.0472
vn -0.0668 0.9974 -0.0288
vn -0.0659 0.9973 -0.0320
vn -0.0664 0.9974 -0.0281
vn -0.1005 0.5380 0.8369
vn -0.1028 0.5372 0.8372
vn -0.1020 0.5372 0.8372
vn -0.1268 0.9493 0.2875
vn -0.1245 0.9502 0.2858
vn -0.1230 0.9504 0.2855
vn 0.1930 0.9807 -0.0307
vn 0.1930 0.9807 -0.0315
vn 0.1925 0.9807 -0.0328
vn 0.1361 0.9828 -0.1245
vn 0.1407 0.9824 -0.1227
vn 0.1411 0.9824 -0.1224
vn 0.1594 0.8905 -0.4262
vn 0.1610 0.8909 -0.4247
vn 0.1599 0.8905 -0.4259
vn 0.1093 0.6475 -0.7542
vn 0.1092 0.6476 -0.7541
vn 0.1109 0.6464 -0.7549
vn 0.0109 0.3614 -0.9324
vn 0.0121 0.3618 -0.9322
vn 0.0125 0.3614 -0.9323
vn -0.0891 0.3857 -0.9183
vn -0.0921 0.3844 -0.9186
vn -0.0895 0.3857 -0.9183
vn -0.0598 0.7485 -0.6604
vn -0.0603 0.7486 -0.6603
vn -0.0598 0.7486 -0.6603
vn 0.0414 0.9353 -0.3513
vn 0.0417 0.9353 -0.3513
vn 0.0414 0.9353 -0.3514
vn 0.1384 0.9835 -0.1169
vn 0.1338 0.9843 -0.1148
vn 0.1409 0.9826 -0.1208
vn -0.2066 0.2733 -0.9395
vn -0.2031 0.2721 -0.9406
vn -0.2084 0.2726 -0.9393
vn -0.0563 0.9910 -0.1211
vn -0.0556 0.9910 -0.1216
vn -0.0564 0.9911 -0.1204
vn -0.1047 0.9885 -0.1089
vn -0.1043 0.9883 -0.1109
vn -0.1029 0.9884 -0.1121
vn -0.1624 0.8572 -0.4887
vn -0.1657 0.8563 -0.4891
vn -0.1641 0.8574 -0.4878
vn 0.9936 0.0517 0.1009
vn 0.9936 0.0514 0.1010
vn 0.9936 0.0516 0.1010
vn 0.1901 0.9322 0.3078
vn 0.1902 0.9327 0.3064
vn 0.1898 0.9325 0.3074
vn 0.0654 0.9651 0.2535
vn 0.0649 0.9651 0.2538
vn -0.0763 0.9935 0.0848
vn -0.0812 0.9930 0.0857
vn -0.0793 0.9931 0.0861
vn 0.9908 -0.0004 0.1351
vn 0.9909 -0.0001 0.1349
vn 0.9908 -0.0003 0.1350
vn 0.9450 -0.1447 -0.2934
vn 0.9450 -0.1457 -0.2930
vn 0.9452 -0.1460 -0.2920
vn 0.9368 0.0001 -0.3498
vn 0.9368 -0.0001 -0.3498
vn 0.9368 -0.0000 -0.3498
vn 0.9450 0.1457 -0.2929
vn 0.9450 0.1447 -0.2934
vn 0.9452 0.1460 -0.2920
vn 0.9559 -0.2846 -0.0728
vn 0.9557 -0.2848 -0.0741
vn 0.9558 -0.2847 -0.0739
vn 0.9937 -0.1088 0.0262
vn 0.9936 -0.1096 0.0271
vn 0.9936 -0.1095 0.0268
vn 0.9514 -0.2660 -0.1551
vn 0.9513 -0.2663 -0.1553
vn 0.9515 -0.2658 -0.1550
vn 0.9703 -0.1404 -0.1972
vn 0.9704 -0.1405 -0.1966
vn 0.9703 -0.1404 -0.1971
vn 0.9886 -0.1445 -0.0423
vn 0.9886 -0.1444 -0.0427
vn 0.9886 -0.1445 -0.0422
vn 0.9969 -0.0000 -0.0780
vn 0.9876 -0.0000 -0.1568
vn 0.9703 0.1404 -0.1971
vn 0.9704 0.1405 -0.1966
vn 0.9703 0.1404 -0.1972
vn 0.9967 -0.0004 0.0812
vn 0.9967 -0.0001 0.0811
vn 0.9967 -0.0000 0.0811
vn 0.9917 0.1245 0.0308
vn 0.9919 0.1237 0.0299
vn 0.9917 0.1245 0.0306
vn 0.9889 0.1426 -0.0424
vn 0.9889 0.1427 -0.0419
vn 0.9889 0.1426 -0.0420
vn 0.9639 0.2561 -0.0728
vn 0.9627 0.2599 -0.0755
vn 0.9635 0.2570 -0.0749
vn 0.9512 0.2672 -0.1540
vn 0.9511 0.2677 -0.1543
vn 0.9506 0.2671 -0.1579
vn 0.9638 -0.2564 0.0736
vn 0.9637 0.2565 0.0736
vn -0.9926 0.0017 -0.1212
vn -0.9925 -0.0000 -0.1224
vn -0.9926 -0.0014 -0.1217
vn -0.9921 -0.0299 -0.1218
vn -0.9921 -0.0308 -0.1216
vn -0.9467 0.1457 0.2873
vn -0.9467 0.1455 0.2873
vn -0.9458 0.1394 0.2932
vn -0.9374 -0.0000 0.3483
vn -0.9320 -0.1470 0.3313
vn -0.9317 -0.1487 0.3313
vn -0.9317 -0.1490 0.3312
vn -0.9853 -0.0589 0.1602
vn -0.9850 -0.0601 0.1616
vn -0.9849 -0.0584 0.1629
vn -0.9641 0.2551 0.0738
vn -0.9641 0.2552 0.0738
vn -0.9777 0.1977 0.0712
vn -0.9778 0.1963 0.0727
vn -0.9775 0.1977 0.0739
vn -0.9585 0.2763 0.0699
vn -0.9587 0.2751 0.0716
vn -0.9587 0.2753 0.0719
vn -0.9912 0.1284 -0.0316
vn -0.9911 0.1293 -0.0326
vn -0.9911 0.1294 -0.0327
vn -0.9933 0.1129 -0.0261
vn -0.9932 0.1136 -0.0269
vn -0.9931 0.1137 -0.0272
vn -0.9475 0.2700 0.1715
vn -0.9475 0.2699 0.1716
vn -0.9476 0.2693 0.1717
vn -0.9549 0.2499 0.1605
vn -0.9554 0.2485 0.1598
vn -0.9555 0.2476 0.1601
vn -0.9892 -0.1395 0.0447
vn -0.9893 -0.1390 0.0446
vn -0.9892 -0.1386 0.0481
vn -0.9503 0.2694 0.1562
vn -0.9505 0.2674 0.1581
vn -0.9504 0.2688 0.1563
vn -0.9742 0.1285 0.1857
vn -0.9739 0.1286 0.1871
vn -0.9739 0.1287 0.1871
vn -0.9707 0.1345 0.1992
vn -0.9706 0.1349 0.1994
vn -0.9706 0.1351 0.1994
vn -0.9726 0.1295 0.1931
vn -0.9726 0.1297 0.1931
vn -0.9725 0.1299 0.1931
vn -0.9706 -0.1351 0.1994
vn -0.9706 -0.1349 0.1994
vn -0.9707 -0.1345 0.1992
vn -0.9739 -0.1287 0.1871
vn -0.9739 -0.1286 0.1871
vn -0.9742 -0.1285 0.1857
vn -0.9725 -0.1299 0.1931
vn -0.9726 -0.1297 0.1931
vn -0.9726 -0.1295 0.1931
vn -0.9980 -0.0004 -0.0632
vn -0.9980 -0.0000 -0.0625
vn -0.9980 0.0004 -0.0628
vn -0.9980 -0.0005 -0.0630
vn -0.9980 0.0005 -0.0631
vn -0.9975 -0.0011 -0.0712
vn -0.9975 -0.0010 -0.0712
vn -0.9975 -0.0007 -0.0713
vn -0.9975 -0.0004 -0.0703
vn -0.9976 0.0002 -0.0696
vn -0.9975 0.0005 -0.0700
vn -0.9975 0.0007 -0.0713
vn -0.9975 0.0010 -0.0712
vn -0.9975 0.0011 -0.0712
vn -0.9975 -0.0005 -0.0702
vn -0.9976 -0.0002 -0.0696
vn -0.9975 0.0005 -0.0702
vn -0.9910 -0.1295 -0.0327
vn -0.9911 -0.1293 -0.0320
vn -0.9911 -0.1293 -0.0319
vn -0.9909 -0.1306 -0.0340
vn -0.9909 -0.1309 -0.0321
vn -0.9911 -0.1293 -0.0310
vn -0.9639 -0.2557 0.0738
vn -0.9642 -0.2550 0.0726
vn -0.9642 -0.2550 0.0721
vn -0.9634 -0.2572 0.0748
vn -0.9635 -0.2571 0.0744
vn -0.9635 -0.2572 0.0740
vn -0.9353 -0.3478 0.0646
vn -0.9357 -0.3466 0.0662
vn -0.9353 -0.3479 0.0646
vn -0.9032 -0.4034 0.1468
vn -0.9032 -0.4025 0.1494
vn -0.9039 -0.4014 0.1479
vn -0.9555 -0.2476 0.1601
vn -0.9554 -0.2485 0.1598
vn -0.9549 -0.2499 0.1605
vn -0.9476 -0.2693 0.1717
vn -0.9475 -0.2699 0.1716
vn -0.9475 -0.2700 0.1716
vn -0.9892 0.1386 0.0480
vn -0.9893 0.1390 0.0446
vn -0.9892 0.1395 0.0447
vn -0.9504 -0.2688 0.1563
vn -0.9505 -0.2674 0.1581
vn -0.9503 -0.2694 0.1562
vn -0.9244 0.3798 0.0361
vn -0.9242 0.3802 0.0371
vn -0.9240 0.3806 0.0377
vn -0.9630 0.2586 -0.0757
vn -0.9630 0.2588 -0.0751
vn -0.9630 0.2589 -0.0747
vn -0.9673 0.2406 -0.0802
vn -0.9674 0.2407 -0.0791
vn -0.9667 0.2440 -0.0767
vn -0.9510 0.2957 -0.0898
vn -0.9520 0.2938 -0.0856
vn -0.9508 0.2984 -0.0835
vn -0.9674 0.2430 -0.0711
vn -0.9664 0.2478 -0.0686
vn -0.9674 0.2432 -0.0705
vn -0.9240 -0.3806 0.0377
vn -0.9242 -0.3802 0.0371
vn -0.9244 -0.3798 0.0361
vn -0.9504 -0.2996 -0.0839
vn -0.9515 -0.2952 -0.0861
vn -0.9504 -0.2976 -0.0905
vn -0.9632 -0.2581 -0.0744
vn -0.9633 -0.2579 -0.0749
vn -0.9633 -0.2578 -0.0752
vn -0.9481 -0.2946 -0.1192
vn -0.9482 -0.2941 -0.1203
vn -0.9475 -0.2949 -0.1238
vn -0.9506 -0.2989 -0.0838
vn -0.9518 -0.2944 -0.0860
vn -0.9508 -0.2965 -0.0902
vn 0.1402 -0.9886 -0.0544
vn 0.1403 -0.9886 -0.0544
vn 0.1404 -0.9886 -0.0542
vn 0.1230 -0.9908 -0.0570
vn 0.1238 -0.9907 -0.0566
vn 0.1236 -0.9908 -0.0555
vn 0.0842 -0.9963 -0.0147
vn 0.0852 -0.9963 -0.0143
vn 0.0844 -0.9963 -0.0130
vn 0.1233 -0.9919 -0.0312
vn 0.1234 -0.9919 -0.0312
vn 0.1236 -0.9918 -0.0313
vn 0.1457 -0.9893 0.0107
vn 0.1460 -0.9892 0.0105
vn 0.1465 -0.9892 0.0105
vn 0.4800 -0.8770 -0.0207
vn 0.4802 -0.8769 -0.0198
vn -0.9897 -0.0944 0.1074
vn -0.9897 -0.0945 0.1078
vn -0.9897 -0.0942 0.1080
vn 0.1487 -0.9589 0.2416
vn 0.1487 -0.9589 0.2417
vn 0.1486 -0.9589 0.2417
vn 0.1421 -0.9884 -0.0539
vn 0.1421 -0.9884 -0.0538
vn 0.1419 -0.9884 -0.0536
vn 0.1412 -0.9893 0.0371
vn 0.1416 -0.9892 0.0372
vn 0.1417 -0.9892 0.0372
vn 0.1543 -0.9749 0.1604
vn 0.1543 -0.9750 0.1601
vn -0.9703 -0.1416 0.1964
vn -0.9702 -0.1430 0.1957
vn -0.9698 -0.1444 0.1966
vn 0.1075 -0.8967 0.4294
vn 0.1079 -0.8970 0.4287
vn 0.1091 -0.8971 0.4282
vn 0.0417 -0.8786 0.4757
vn 0.0429 -0.8796 0.4738
vn 0.0475 -0.8793 0.4740
vn 0.0386 -0.4676 0.8831
vn 0.0384 -0.4678 0.8830
vn 0.0387 -0.4690 0.8824
vn 0.0265 -0.4508 0.8922
vn 0.0265 -0.4509 0.8922
vn 0.0265 -0.4518 0.8917
vn 0.0608 -0.9475 0.3138
vn 0.0625 -0.9475 0.3137
vn 0.0625 -0.9474 0.3138
vn -0.0352 -0.4700 0.8820
vn -0.0361 -0.4697 0.8821
vn -0.0361 -0.4698 0.8821
vn 0.0035 -0.9960 0.0890
vn 0.0036 -0.9963 0.0861
vn 0.0060 -0.9963 0.0855
vn -0.0185 -0.9992 0.0365
vn -0.0182 -0.9992 0.0361
vn -0.0180 -0.9992 0.0360
vn -0.9773 -0.1957 0.0808
vn -0.9780 -0.1930 0.0786
vn -0.9779 -0.1948 0.0757
vn -0.0224 -0.9984 -0.0528
vn -0.0224 -0.9983 -0.0529
vn -0.0224 -0.9983 -0.0539
vn -0.0427 -0.9979 -0.0496
vn -0.0436 -0.9977 -0.0511
vn -0.0417 -0.9976 -0.0545
vn -0.1088 -0.5356 0.8374
vn -0.1090 -0.5356 0.8374
vn -0.1098 -0.5356 0.8373
vn -0.1786 -0.5317 0.8279
vn -0.1793 -0.5314 0.8279
vn -0.1812 -0.5320 0.8272
vn -0.1070 -0.5188 0.8482
vn -0.1094 -0.5202 0.8470
vn -0.1076 -0.5188 0.8481
vn -0.1280 -0.9487 0.2890
vn -0.1237 -0.9503 0.2857
vn -0.1192 -0.9502 0.2880
vn -0.1244 -0.9499 0.2867
vn -0.1243 -0.9499 0.2867
vn -0.1222 -0.9501 0.2870
vn -0.0632 -0.9980 0.0081
vn -0.0614 -0.9981 0.0098
vn -0.0611 -0.9981 0.0104
vn 0.0053 -0.9883 0.1526
vn 0.0066 -0.9881 0.1538
vn 0.0067 -0.9879 0.1548
vn -0.0042 -0.9889 0.1487
vn -0.0010 -0.9884 0.1516
vn -0.0013 -0.9887 0.1498
vn 0.1350 -0.9818 -0.1335
vn 0.1345 -0.9819 -0.1337
vn 0.1339 -0.9813 -0.1384
vn 0.1325 -0.9840 -0.1190
vn 0.1322 -0.9841 -0.1186
vn 0.1367 -0.9837 -0.1168
vn 0.2825 -0.9522 -0.1163
vn 0.2823 -0.9522 -0.1165
vn 0.2823 -0.9522 -0.1170
vn 0.0941 -0.8995 -0.4267
vn 0.0952 -0.8996 -0.4262
vn 0.0955 -0.9001 -0.4250
vn 0.1276 -0.9258 -0.3558
vn 0.1281 -0.9259 -0.3554
vn 0.1284 -0.9261 -0.3549
vn -0.2594 -0.6544 -0.7102
vn -0.2592 -0.6572 -0.7077
vn 0.0412 -0.7378 -0.6738
vn 0.0393 -0.7385 -0.6731
vn 0.0385 -0.7386 -0.6730
vn 0.0768 -0.7318 -0.6772
vn 0.0759 -0.7319 -0.6771
vn 0.0759 -0.7319 -0.6772
vn 0.2210 -0.7271 -0.6500
vn 0.2200 -0.7282 -0.6491
vn 0.2185 -0.7281 -0.6498
vn 0.0100 -0.3599 -0.9329
vn 0.0099 -0.3599 -0.9330
vn 0.0095 -0.3599 -0.9330
vn 0.1329 -0.3550 -0.9254
vn 0.1320 -0.3558 -0.9252
vn 0.1317 -0.3559 -0.9252
vn -0.0891 -0.3857 -0.9183
vn -0.0895 -0.3857 -0.9183
vn -0.0921 -0.3844 -0.9186
vn -0.0598 -0.7485 -0.6604
vn -0.0598 -0.7486 -0.6603
vn -0.0603 -0.7486 -0.6603
vn 0.0414 -0.9353 -0.3513
vn 0.0414 -0.9353 -0.3514
vn 0.0417 -0.9353 -0.3513
vn 0.1384 -0.9835 -0.1169
vn 0.1409 -0.9826 -0.1208
vn 0.1338 -0.9843 -0.1148
vn -0.2582 -0.2672 -0.9284
vn -0.2583 -0.2670 -0.9284
vn -0.2605 -0.2666 -0.9279
vn -0.2312 -0.3311 -0.9148
vn -0.2331 -0.3312 -0.9143
vn -0.2366 -0.3296 -0.9140
vn -0.0452 -0.9917 -0.1203
vn -0.0456 -0.9915 -0.1217
vn -0.0445 -0.9915 -0.1224
vn -0.0755 -0.9893 -0.1250
vn -0.0754 -0.9892 -0.1253
vn -0.0476 -0.9908 -0.1266
vn -0.0480 -0.9905 -0.1287
vn -0.0481 -0.9905 -0.1286
vn -0.8988 -0.4349 -0.0542
vn -0.8997 -0.4326 -0.0577
vn -0.8981 -0.4363 -0.0550
vn -0.0781 -0.9882 -0.1314
vn -0.0777 -0.9882 -0.1322
vn -0.0766 -0.9881 -0.1332
vn -0.0954 -0.9876 -0.1243
vn -0.0949 -0.9875 -0.1257
vn -0.0931 -0.9875 -0.1269
vn -0.1636 -0.8618 -0.4801
vn -0.1637 -0.8618 -0.4801
vn -0.1644 -0.8616 -0.4802
vn -0.1625 -0.8611 -0.4818
vn -0.1633 -0.8610 -0.4817
vn -0.1643 -0.8607 -0.4819
vn -0.1113 -0.8859 -0.4504
vn -0.1115 -0.8858 -0.4504
vn -0.1126 -0.8856 -0.4507
vn -0.1716 -0.8564 -0.4870
vn -0.1730 -0.8558 -0.4875
vn -0.1717 -0.8564 -0.4870
vn 0.5059 -0.6857 -0.5233
vn 0.2285 -0.9734 0.0144
vn 0.1294 -0.9575 0.2576
vn 0.1294 -0.9577 0.2572
vn 0.1299 -0.9578 0.2563
vn 0.1080 -0.9423 0.3167
vn 0.1080 -0.9424 0.3166
vn 0.1089 -0.9426 0.3156
vn 0.1359 -0.9578 0.2532
vn 0.1358 -0.9581 0.2523
vn 0.0654 -0.9651 0.2535
vn 0.0649 -0.9651 0.2538
vn -0.9733 -0.1162 0.1980
vn -0.9735 -0.1152 0.1977
vn -0.9740 -0.1135 0.1962
vn -0.1038 -0.9884 0.1106
vn -0.1047 -0.9883 0.1107
vn -0.1047 -0.9883 0.1106
vn -0.0615 -0.9975 0.0356
vn -0.0658 -0.9971 0.0382
vn -0.0694 -0.9970 0.0336
vn 0.1235 0.9908 -0.0556
vn 0.1237 0.9907 -0.0566
vn 0.1230 0.9908 -0.0569
vn 0.1403 0.9886 -0.0542
vn 0.1402 0.9886 -0.0543
vn 0.1402 0.9886 -0.0544
vn 0.0844 0.9963 -0.0131
vn 0.0851 0.9963 -0.0143
vn 0.0842 0.9963 -0.0146
vn 0.1464 0.9892 0.0106
vn 0.1460 0.9892 0.0106
vn 0.1458 0.9892 0.0108
vn 0.1236 0.9918 -0.0311
vn 0.1235 0.9919 -0.0311
vn 0.1234 0.9919 -0.0311
vn 0.4802 0.8769 -0.0200
vn 0.4801 0.8770 -0.0206
vn 0.4800 0.8770 -0.0206
vn 0.1311 0.9616 0.2410
vn 0.1311 0.9617 0.2409
vn 0.1481 0.9490 0.2784
vn 0.1483 0.9490 0.2782
vn 0.1481 0.9491 0.2779
vn 0.1392 0.9885 -0.0594
vn 0.1417 0.9892 0.0372
vn 0.1416 0.9892 0.0372
vn 0.1412 0.9893 0.0371
vn 0.1543 0.9750 0.1601
vn 0.1543 0.9749 0.1604
vn 0.0455 0.9046 0.4239
vn 0.0426 0.9044 0.4245
vn 0.0413 0.9038 0.4260
vn 0.1045 0.7608 0.6405
vn 0.1040 0.7605 0.6409
vn 0.1029 0.7604 0.6413
vn 0.5001 0.8073 0.3135
vn 0.4954 0.8107 0.3121
vn 0.4950 0.8108 0.3124
vn 0.1351 0.4637 0.8756
vn 0.1352 0.4633 0.8758
vn 0.1358 0.4627 0.8761
vn 0.0260 0.4689 0.8829
vn 0.0261 0.4685 0.8831
vn 0.0271 0.4678 0.8834
vn 0.0625 0.9474 0.3138
vn 0.0625 0.9475 0.3137
vn 0.0608 0.9475 0.3138
vn -0.0096 0.5189 0.8548
vn -0.0092 0.5189 0.8548
vn -0.0074 0.5198 0.8543
vn -0.9517 0.2988 0.0704
vn -0.9521 0.2976 0.0709
vn -0.9520 0.2971 0.0731
vn -0.0179 0.9992 0.0360
vn -0.0181 0.9992 0.0362
vn -0.0184 0.9992 0.0365
vn -0.0417 0.9976 -0.0545
vn -0.0436 0.9977 -0.0511
vn -0.0427 0.9979 -0.0496
vn -0.0224 0.9983 -0.0539
vn -0.0224 0.9983 -0.0529
vn -0.0224 0.9984 -0.0528
vn -0.9779 0.1948 0.0757
vn -0.9780 0.1930 0.0786
vn -0.9773 0.1957 0.0808
vn -0.1829 0.3917 0.9017
vn -0.1806 0.3900 0.9029
vn -0.1788 0.3911 0.9028
vn -0.1098 0.5281 0.8420
vn -0.1096 0.5282 0.8420
vn -0.1091 0.5283 0.8420
vn -0.1166 0.5202 0.8460
vn -0.1145 0.5181 0.8476
vn -0.1128 0.5191 0.8472
vn -0.1242 0.9491 0.2893
vn -0.1245 0.9491 0.2893
vn -0.1268 0.9486 0.2899
vn -0.1227 0.9501 0.2869
vn -0.1239 0.9499 0.2868
vn -0.1269 0.9492 0.2879
vn 0.0070 0.9911 0.1328
vn 0.0071 0.9913 0.1311
vn 0.0070 0.9914 0.1309
vn -0.0703 0.9860 0.1513
vn -0.0701 0.9863 0.1496
vn -0.0708 0.9863 0.1490
vn 0.0041 0.9884 0.1518
vn 0.0031 0.9890 0.1482
vn 0.0046 0.9888 0.1495
vn 0.1370 0.9845 -0.1098
vn 0.1370 0.9845 -0.1095
vn 0.1321 0.9851 -0.1099
vn 0.1320 0.9839 -0.1203
vn 0.1326 0.9838 -0.1207
vn 0.1352 0.9840 -0.1163
vn 0.3788 0.9185 -0.1134
vn 0.3788 0.9185 -0.1132
vn 0.3797 0.9182 -0.1131
vn 0.1281 0.9275 -0.3512
vn 0.1282 0.9267 -0.3533
vn 0.1265 0.9266 -0.3540
vn 0.0984 0.9300 -0.3542
vn 0.0982 0.9299 -0.3544
vn 0.0981 0.9298 -0.3546
vn 0.0759 0.7319 -0.6772
vn 0.0759 0.7319 -0.6771
vn 0.0768 0.7318 -0.6772
vn 0.0385 0.7386 -0.6731
vn 0.0393 0.7385 -0.6731
vn 0.0412 0.7378 -0.6738
vn -0.2592 0.6572 -0.7077
vn -0.2594 0.6545 -0.7102
vn 0.0096 0.3598 -0.9330
vn 0.0099 0.3598 -0.9330
vn 0.0100 0.3599 -0.9329
vn 0.2186 0.7280 -0.6498
vn 0.2199 0.7282 -0.6492
vn 0.2210 0.7271 -0.6500
vn 0.1317 0.3559 -0.9252
vn 0.1319 0.3557 -0.9252
vn 0.1328 0.3550 -0.9254
vn -0.1144 0.3256 -0.9386
vn -0.1131 0.3258 -0.9387
vn 0.0227 0.8609 -0.5083
vn 0.0228 0.8608 -0.5084
vn 0.1450 0.9788 -0.1446
vn 0.1442 0.9789 -0.1448
vn 0.1441 0.9789 -0.1447
vn 0.1452 0.9803 -0.1340
vn 0.1448 0.9810 -0.1292
vn -0.2380 0.3212 -0.9166
vn -0.2335 0.3264 -0.9159
vn -0.2294 0.3248 -0.9175
vn -0.2556 0.3313 -0.9083
vn -0.2540 0.3311 -0.9088
vn -0.0676 0.9953 -0.0693
vn -0.0682 0.9953 -0.0686
vn -0.0683 0.9954 -0.0678
vn -0.0455 0.9908 -0.1273
vn -0.0459 0.9909 -0.1269
vn -0.0459 0.9909 -0.1267
vn -0.0448 0.9906 -0.1289
vn -0.0458 0.9908 -0.1272
vn -0.0459 0.9907 -0.1279
vn -0.0931 0.9875 -0.1269
vn -0.0949 0.9875 -0.1257
vn -0.0954 0.9876 -0.1243
vn -0.0766 0.9881 -0.1332
vn -0.0777 0.9882 -0.1322
vn -0.0781 0.9882 -0.1314
vn -0.8981 0.4363 -0.0550
vn -0.8997 0.4326 -0.0577
vn -0.8988 0.4349 -0.0542
vn -0.1574 0.8782 -0.4516
vn -0.1557 0.8790 -0.4507
vn -0.1538 0.8787 -0.4519
vn -0.1641 0.8609 -0.4815
vn -0.1640 0.8609 -0.4815
vn -0.1635 0.8610 -0.4816
vn -0.1641 0.8616 -0.4803
vn -0.1662 0.8614 -0.4800
vn -0.1653 0.8616 -0.4799
vn -0.1676 0.8393 -0.5172
vn -0.1660 0.8403 -0.5161
vn -0.1642 0.8400 -0.5172
vn 0.3023 0.9530 0.0193
vn 0.3022 0.9531 0.0187
vn 0.2398 0.9385 -0.2483
vn 0.2397 0.9386 -0.2483
vn 0.2397 0.9385 -0.2484
vn 0.1073 0.9610 0.2551
vn 0.1070 0.9608 0.2558
vn 0.1075 0.9605 0.2568
vn 0.1292 0.9587 0.2534
vn 0.1299 0.9583 0.2545
vn -0.1410 0.9274 0.3464
vn -0.1429 0.9268 0.3474
vn -0.1428 0.9265 0.3481
vn 0.1197 0.9845 0.1284
vn 0.1199 0.9844 0.1285
vn 0.1207 0.9844 0.1278
vn -0.0693 0.9970 0.0336
vn -0.0658 0.9971 0.0382
vn -0.0616 0.9975 0.0356
vn -0.1047 0.9883 0.1106
vn -0.1046 0.9883 0.1106
vn -0.1038 0.9884 0.1106
vn -0.9740 0.1136 0.1962
vn -0.9735 0.1152 0.1977
vn -0.9733 0.1162 0.1980
vn 0.9967 -0.0004 0.0815
vn 0.9967 -0.0000 0.0813
vn 0.9967 0.0001 0.0812
vn 0.9919 -0.0004 0.1269
vn 0.9920 -0.0000 0.1266
vn 0.9919 0.0004 0.1269
vn 0.9866 -0.0034 0.1630
vn 0.9866 -0.0033 0.1629
vn 0.9866 -0.0029 0.1628
vn 0.9973 0.0323 0.0656
vn 0.9974 0.0327 0.0649
vn 0.9974 0.0327 0.0650
vn 0.9451 -0.1455 -0.2925
vn 0.9449 -0.1452 -0.2933
vn 0.9449 -0.1446 -0.2937
vn 0.9455 -0.1464 -0.2910
vn 0.9453 -0.1462 -0.2915
vn 0.9453 -0.1459 -0.2918
vn 0.9383 -0.0016 -0.3458
vn 0.9380 -0.0000 -0.3467
vn 0.9383 0.0016 -0.3458
vn 0.9453 0.1458 -0.2917
vn 0.9454 0.1462 -0.2914
vn 0.9455 0.1464 -0.2910
vn 0.9449 0.1446 -0.2937
vn 0.9450 0.1452 -0.2932
vn 0.9451 0.1454 -0.2925
vn 0.9895 0.1408 -0.0324
vn 0.9889 0.1439 -0.0361
vn 0.9890 0.1439 -0.0348
vn 0.9638 -0.2562 -0.0739
vn 0.9638 -0.2561 -0.0737
vn 0.9639 -0.2560 -0.0735
vn 0.9661 -0.2472 -0.0739
vn 0.9673 -0.2429 -0.0723
vn 0.9675 -0.2428 -0.0711
vn 0.9911 -0.1281 0.0366
vn 0.9911 -0.1284 0.0355
vn 0.9911 -0.1280 0.0351
vn 0.9266 -0.3726 0.0511
vn 0.9263 -0.3736 0.0498
vn 0.9266 -0.3728 0.0492
vn 0.9956 -0.0915 0.0209
vn 0.9956 -0.0915 0.0205
vn 0.9957 -0.0909 0.0200
vn 0.9910 -0.1300 0.0317
vn 0.9910 -0.1302 0.0321
vn 0.9910 -0.1301 0.0319
vn 0.9741 -0.1614 -0.1585
vn 0.9743 -0.1607 -0.1579
vn 0.9742 -0.1610 -0.1581
vn 0.9508 -0.2701 -0.1520
vn 0.9506 -0.2705 -0.1521
vn 0.9500 -0.2704 -0.1558
vn 0.9692 -0.1510 -0.1944
vn 0.9693 -0.1510 -0.1942
vn 0.9693 -0.1521 -0.1930
vn 0.9704 -0.1386 -0.1979
vn 0.9708 -0.1375 -0.1967
vn 0.9709 -0.1378 -0.1960
vn 0.9712 -0.1317 -0.1984
vn 0.9713 -0.1317 -0.1981
vn 0.9713 -0.1317 -0.1979
vn 0.9889 -0.1425 -0.0430
vn 0.9890 -0.1422 -0.0419
vn 0.9890 -0.1422 -0.0418
vn 0.9912 -0.1264 -0.0395
vn 0.9912 -0.1265 -0.0394
vn 0.9912 -0.1265 -0.0392
vn 0.9693 0.1521 -0.1930
vn 0.9693 0.1509 -0.1942
vn 0.9692 0.1509 -0.1944
vn 0.9714 0.1316 -0.1979
vn 0.9713 0.1316 -0.1981
vn 0.9712 0.1316 -0.1984
vn 0.9709 0.1377 -0.1960
vn 0.9708 0.1375 -0.1967
vn 0.9704 0.1386 -0.1980
vn 0.9967 -0.0004 0.0813
vn 0.9967 0.0001 0.0811
vn 0.9975 -0.0005 0.0704
vn 0.9975 -0.0000 0.0701
vn 0.9975 0.0005 0.0704
vn 0.9957 0.0909 0.0199
vn 0.9956 0.0915 0.0205
vn 0.9956 0.0916 0.0209
vn 0.9912 0.1284 0.0324
vn 0.9912 0.1284 0.0325
vn 0.9326 0.3577 0.0483
vn 0.9322 0.3586 0.0489
vn 0.9325 0.3576 0.0503
vn 0.9863 0.1601 0.0397
vn 0.9865 0.1593 0.0388
vn 0.9863 0.1601 0.0395
vn 0.9988 0.0493 0.0054
vn 0.9987 0.0501 0.0061
vn 0.9987 0.0501 0.0064
vn 0.9873 0.1534 -0.0405
vn 0.9875 0.1521 -0.0413
vn 0.9875 0.1521 -0.0417
vn 0.9912 0.1265 -0.0392
vn 0.9912 0.1265 -0.0394
vn 0.9912 0.1264 -0.0395
vn 0.9890 -0.1439 -0.0348
vn 0.9889 -0.1439 -0.0361
vn 0.9895 -0.1408 -0.0324
vn 0.9394 0.3343 -0.0756
vn 0.9405 0.3316 -0.0736
vn 0.9389 0.3358 -0.0753
vn 0.9634 0.2577 -0.0737
vn 0.9633 0.2578 -0.0741
vn 0.9627 0.2597 -0.0760
vn 0.9639 0.2560 -0.0732
vn 0.9639 0.2561 -0.0735
vn 0.9629 0.2593 -0.0754
vn 0.9500 0.2704 -0.1558
vn 0.9506 0.2705 -0.1521
vn 0.9508 0.2701 -0.1520
vn 0.9524 0.2611 -0.1571
vn 0.9526 0.2607 -0.1569
vn 0.9526 0.2606 -0.1568
>>>>>>> cb21b7af07e09156fd8c754d1e4dcd698ed77036
vt 0.000000 0.000000
vt 0.296097 0.409818
vt 0.301826 0.428155
vt 0.297175 0.433059
vt 0.311683 0.416694
vt 0.317987 0.409369
vt 0.318928 0.388841
vt 0.327552 0.397611
vt 0.256918 0.395657
vt 0.266831 0.383335
vt 0.277576 0.371131
vt 0.307669 0.398756
vt 0.288483 0.359622
vt 0.335900 0.387105
vt 0.336629 0.374418
vt 0.341131 0.380015
vt 0.347655 0.363853
vt 0.350579 0.369636
vt 0.341510 0.379349
vt 0.329201 0.380392
vt 0.305656 0.343759
vt 0.317154 0.334677
vt 0.259588 0.377605
vt 0.266439 0.367935
vt 0.255305 0.383744
vt 0.287523 0.327056
vt 0.293928 0.320077
vt 0.283431 0.336982
vt 0.285646 0.332454
vt 0.269146 0.364212
vt 0.269731 0.363425
vt 0.275941 0.430629
vt 0.289013 0.441244
vt 0.282639 0.446940
vt 0.268354 0.439031
vt 0.287250 0.442707
vt 0.272759 0.457129
vt 0.275573 0.454185
vt 0.258450 0.454640
vt 0.268088 0.461200
vt 0.263261 0.445970
vt 0.231724 0.430175
vt 0.235879 0.423271
vt 0.240907 0.415764
vt 0.248046 0.406560
vt 0.220920 0.424526
vt 0.224273 0.420113
vt 0.240446 0.401322
vt 0.243090 0.398482
vt 0.236945 0.405065
vt 0.226494 0.417292
vt 0.227013 0.416770
vt 0.264884 0.463685
vt 0.262310 0.465521
vt 0.334367 0.389326
vt 0.333855 0.389927
vt 0.298296 0.350151
vt 0.278636 0.347539
vt 0.391275 0.310280
vt 0.414547 0.310326
vt 0.409854 0.315191
vt 0.398839 0.325551
vt 0.391799 0.332177
vt 0.380737 0.322337
vt 0.387849 0.335757
vt 0.380477 0.342259
vt 0.375382 0.271764
vt 0.401909 0.299021
vt 0.351801 0.293502
vt 0.340791 0.304914
vt 0.371332 0.334030
vt 0.363351 0.344674
vt 0.368780 0.352474
vt 0.362857 0.357021
vt 0.351746 0.367766
vt 0.357714 0.352363
vt 0.325713 0.322782
vt 0.357466 0.275240
vt 0.344513 0.285390
vt 0.363409 0.270686
vt 0.296714 0.315130
vt 0.300150 0.313285
vt 0.313525 0.303297
vt 0.331769 0.315142
vt 0.308216 0.305415
vt 0.330830 0.294159
vt 0.335674 0.291391
vt 0.423749 0.299977
vt 0.417793 0.307165
vt 0.411176 0.289211
vt 0.431276 0.291167
vt 0.427775 0.295180
vt 0.419236 0.281254
vt 0.437520 0.284851
vt 0.434702 0.287795
vt 0.434394 0.270660
vt 0.441380 0.280001
vt 0.425944 0.275855
vt 0.408747 0.245049
vt 0.402034 0.249510
vt 0.394758 0.254869
vt 0.398361 0.238054
vt 0.396050 0.239898
vt 0.385880 0.262413
vt 0.369907 0.265202
vt 0.371902 0.263532
vt 0.383891 0.251390
vt 0.380308 0.255055
vt 0.393751 0.242141
vt 0.395143 0.240942
vt 0.442804 0.277897
vt 0.446655 0.271362
vt 0.445438 0.274034
vt 0.373082 0.348900
vt 0.370355 0.351070
vt 0.317950 0.300882
vt 0.328281 0.295618
vt 0.285325 0.420939
vt 0.307492 0.421534
vt 0.301601 0.428414
vt 0.317391 0.410199
vt 0.321387 0.405264
vt 0.337232 0.385469
vt 0.257324 0.380817
vt 0.250117 0.390481
vt 0.295024 0.318645
vt 0.287524 0.327056
vt 0.274745 0.355113
vt 0.277293 0.350151
vt 0.294163 0.436440
vt 0.278788 0.450614
vt 0.274485 0.455446
vt 0.266050 0.462716
vt 0.271110 0.458876
vt 0.226010 0.417723
vt 0.248538 0.392548
vt 0.237922 0.404009
vt 0.231859 0.410257
vt 0.228148 0.415326
vt 0.259695 0.466856
vt 0.279960 0.344568
vt 0.403489 0.321148
vt 0.410102 0.314955
vt 0.392602 0.331545
vt 0.363514 0.282219
vt 0.363504 0.356613
vt 0.353561 0.366517
vt 0.348112 0.282518
vt 0.369908 0.265202
vt 0.360575 0.272835
vt 0.301531 0.312126
vt 0.343753 0.286010
vt 0.422365 0.301804
vt 0.435914 0.286651
vt 0.439192 0.283125
vt 0.402622 0.234506
vt 0.377588 0.257824
vt 0.388852 0.246076
vt 0.382879 0.252413
vt 0.395641 0.240401
vt 0.443720 0.276688
vt 0.372505 0.349439
vt 0.325372 0.297074
s 0
usemtl blinn1SG.012
f 109/1/1 111/1/2 107/1/3
f 10/1/4 114/1/5 113/1/6
f 112/1/7 116/1/7 115/1/7
f 10/1/8 118/1/9 116/1/10
f 5/1/11 123/1/12 122/1/13
f 5/1/14 125/1/15 126/1/16
f 14/1/17 128/1/18 130/1/19
f 127/1/20 10/1/20 133/1/21
f 14/1/22 5/1/22 15/1/22
f 15/1/23 16/1/23 14/1/23
f 10/1/24 14/1/24 16/1/24
f 134/1/25 136/1/26 10/1/25
f 138/1/27 15/1/28 140/1/29
f 15/1/30 142/1/31 143/1/32
f 16/1/33 15/1/33 1/1/33
f 16/1/34 147/1/35 144/1/36
f 16/1/37 149/1/38 151/1/39
f 5/1/40 154/1/41 153/1/42
f 5/1/43 153/1/43 155/1/43
f 5/1/44 157/1/45 159/1/46
f 160/1/47 1/1/48 161/1/49
f 162/1/50 143/1/51 165/1/52
f 161/1/53 1/1/53 162/1/53
f 3/2/54 147/3/55 160/4/56
f 144/5/57 3/2/58 150/6/59
f 150/6/60 17/7/61 152/8/62
<<<<<<< HEAD
f 3/2/63 8/9/64 7/10/63
f 3/2/65 6/11/66 4/12/67
f 4/12/68 22/13/69 17/7/68
f 135/14/70 18/15/71 117/16/72
f 19/17/73 116/18/74 118/19/73
f 31/20/75 20/21/76 18/15/77
f 21/22/78 18/15/79 20/21/80
f 6/11/81 52/23/82 51/24/83
f 55/25/84 52/23/85 8/9/86
f 21/22/87 60/26/88 57/27/89
f 20/21/90 61/28/91 62/29/92
f 22/13/93 53/30/94 64/31/95
f 23/32/96 160/4/97 162/33/98
f 166/34/99 24/35/100 163/36/101
f 142/37/102 24/35/103 164/38/104
f 26/39/105 142/37/106 138/40/107
f 25/41/108 27/42/109 28/43/109
f 24/35/110 28/43/111 29/44/111
f 23/32/112 29/44/113 30/45/114
f 8/9/115 23/32/116 30/45/115
f 28/43/117 66/46/118 67/47/119
f 8/9/120 71/48/121 70/49/120
f 71/48/122 29/44/123 72/50/124
f 29/44/125 75/51/126 76/52/127
f 26/39/128 108/53/128 107/54/128
f 31/20/129 134/55/130 151/56/131
f 32/57/132 17/7/133 22/13/134
f 79/58/135 61/28/136 22/13/137
f 34/59/138 154/60/139 120/61/140
f 34/59/141 121/62/142 129/63/141
f 35/64/143 130/65/144 131/66/145
f 34/59/146 37/67/147 33/68/148
f 39/69/149 34/59/150 35/64/151
f 40/70/152 35/64/153 36/71/153
f 41/72/154 133/73/155 114/74/156
f 115/75/157 42/76/158 114/74/159
f 44/77/160 41/72/161 42/76/162
f 21/22/163 42/76/164 19/17/164
=======
f 3/2/63 8/9/63 7/10/63
f 3/2/64 6/11/65 4/12/66
f 4/12/67 22/13/68 17/7/67
f 135/14/69 18/15/70 117/16/71
f 19/17/72 116/18/73 118/19/72
f 31/20/74 20/21/75 18/15/76
f 21/22/77 18/15/78 20/21/79
f 6/11/80 52/23/81 51/24/82
f 55/25/83 52/23/84 8/9/85
f 21/22/86 60/26/87 57/27/88
f 20/21/89 61/28/90 62/29/91
f 22/13/92 53/30/93 64/31/94
f 23/32/95 160/4/96 162/33/97
f 166/34/98 24/35/99 163/36/100
f 142/37/101 24/35/102 164/38/103
f 26/39/104 142/37/105 138/40/106
f 25/41/107 27/42/108 28/43/108
f 24/35/109 28/43/110 29/44/110
f 23/32/111 29/44/112 30/45/113
f 8/9/114 23/32/115 30/45/114
f 28/43/116 66/46/117 67/47/118
f 8/9/119 71/48/120 70/49/119
f 71/48/121 29/44/122 72/50/123
f 29/44/124 75/51/124 76/52/125
f 26/39/126 108/53/126 107/54/126
f 31/20/127 134/55/128 151/56/129
f 32/57/130 17/7/131 22/13/132
f 79/58/133 61/28/134 22/13/135
f 34/59/136 154/60/137 120/61/138
f 34/59/139 121/62/140 129/63/141
f 35/64/142 130/65/143 131/66/144
f 34/59/145 37/67/146 33/68/147
f 39/69/148 34/59/149 35/64/150
f 40/70/151 35/64/152 36/71/152
f 41/72/153 133/73/154 114/74/155
f 115/75/156 42/76/157 114/74/158
f 44/77/159 41/72/160 42/76/161
f 21/22/162 42/76/163 19/17/164
>>>>>>> cb21b7af07e09156fd8c754d1e4dcd698ed77036
f 82/78/165 39/69/166 81/79/167
f 37/67/168 82/78/169 84/80/170
f 44/77/171 58/81/172 88/82/173
f 89/83/174 43/84/175 87/85/176
f 39/69/177 92/86/178 91/87/179
f 33/68/180 157/88/181 153/89/182
f 45/90/183 159/91/184 158/92/185
f 46/93/186 125/94/187 156/95/188
f 26/96/189 140/97/190 125/94/191
f 47/98/192 27/99/193 26/96/194
f 46/93/195 48/100/196 47/98/197
<<<<<<< HEAD
f 45/90/198 49/101/199 46/93/198
f 37/67/200 45/90/201 33/68/202
f 94/102/203 27/99/204 95/103/205
f 50/104/206 85/105/207 98/106/208
f 100/107/209 49/101/210 97/108/211
f 48/100/212 104/109/213 103/110/214
f 141/111/215 111/112/216 110/113/217
f 36/71/218 128/114/219 132/115/220
f 43/84/221 36/71/222 41/72/223
=======
f 45/90/198 49/101/199 46/93/200
f 37/67/201 45/90/202 33/68/203
f 94/102/204 27/99/205 95/103/206
f 50/104/207 85/105/208 98/106/209
f 100/107/210 49/101/211 97/108/212
f 48/100/213 104/109/214 103/110/215
f 141/111/216 111/112/217 110/113/218
f 36/71/219 128/114/220 132/115/221
f 43/84/222 36/71/223 41/72/223
>>>>>>> cb21b7af07e09156fd8c754d1e4dcd698ed77036
f 40/70/224 90/116/225 105/117/226
f 67/1/227 94/1/228 102/1/229
f 86/1/230 9/1/231 87/1/232
f 88/1/233 59/1/234 9/1/235
f 9/1/236 57/1/237 60/1/238
f 93/1/239 84/1/240 82/1/241
f 96/1/242 103/1/243 100/1/244
f 105/1/245 11/1/246 91/1/247
f 106/1/248 89/1/249 11/1/250
f 11/1/251 98/1/252 85/1/253
f 12/1/254 11/1/254 13/1/254
f 9/1/255 13/1/255 11/1/255
f 13/1/256 62/1/257 78/1/258
f 103/1/259 76/1/260 75/1/261
f 76/1/262 70/1/263 74/1/264
f 69/1/265 13/1/266 55/1/267
f 51/1/268 54/1/269 13/1/270
f 63/1/271 13/1/272 65/1/273
f 101/1/274 100/1/274 104/1/274
f 77/1/275 72/1/275 73/1/275
f 107/1/276 108/1/277 109/1/278
f 109/1/279 110/1/279 111/1/280
f 10/1/281 112/1/282 114/1/283
f 112/1/284 10/1/284 116/1/284
f 10/1/285 117/1/286 118/1/287
f 120/1/288 119/1/289 5/1/290
<<<<<<< HEAD
f 5/1/291 14/1/292 123/1/292
=======
f 5/1/291 14/1/291 123/1/292
>>>>>>> cb21b7af07e09156fd8c754d1e4dcd698ed77036
f 123/1/293 121/1/294 122/1/295
f 122/1/296 120/1/297 5/1/298
f 126/1/299 15/1/300 5/1/301
f 5/1/302 124/1/303 125/1/304
f 129/1/305 123/1/306 14/1/307
f 14/1/308 127/1/309 128/1/310
f 128/1/311 131/1/312 130/1/313
f 130/1/314 129/1/315 14/1/316
f 133/1/317 132/1/318 127/1/319
f 127/1/320 14/1/321 10/1/322
f 10/1/323 113/1/324 133/1/325
f 10/1/326 16/1/327 134/1/328
f 134/1/329 135/1/330 136/1/331
f 136/1/332 117/1/333 10/1/334
f 141/1/335 109/1/336 108/1/337
f 141/1/338 108/1/336 137/1/339
f 15/1/340 126/1/341 140/1/342
f 140/1/343 141/1/344 137/1/345
f 138/1/346 139/1/347 15/1/348
f 140/1/349 137/1/350 138/1/351
f 143/1/352 1/1/353 15/1/354
f 15/1/355 139/1/356 142/1/357
f 144/1/358 146/1/359 16/1/360
f 16/1/361 1/1/362 148/1/363
f 147/1/364 145/1/365 144/1/366
f 16/1/367 148/1/368 147/1/369
f 151/1/370 134/1/371 16/1/372
f 16/1/373 146/1/374 150/1/375
f 149/1/376 152/1/377 151/1/378
f 16/1/379 150/1/380 149/1/381
f 5/1/382 119/1/383 154/1/384
f 156/1/385 124/1/386 5/1/387
f 5/1/388 155/1/389 157/1/390
f 157/1/391 158/1/392 159/1/393
f 159/1/394 156/1/395 5/1/396
f 160/1/397 148/1/398 1/1/399
f 166/1/400 163/1/401 162/1/402
f 162/1/403 1/1/404 143/1/405
f 143/1/406 164/1/407 165/1/408
f 165/1/409 166/1/410 162/1/411
f 160/4/412 2/118/413 3/2/414
f 3/2/415 145/119/416 147/3/417
f 147/3/418 148/120/419 160/4/420
f 144/5/421 145/119/422 3/2/423
f 3/2/424 4/12/425 150/6/426
f 150/6/427 146/121/427 144/5/428
f 152/8/429 149/122/430 150/6/431
<<<<<<< HEAD
f 150/6/432 4/12/432 17/7/433
f 3/2/434 2/118/435 8/9/436
f 3/2/437 7/10/438 6/11/438
f 4/12/439 6/11/440 22/13/441
f 117/16/442 136/123/443 135/14/444
f 135/14/445 31/20/446 18/15/447
f 18/15/448 118/19/449 117/16/450
f 118/19/451 18/15/452 19/17/453
f 19/17/454 115/75/455 116/18/456
f 31/20/457 32/57/458 20/21/459
f 21/22/460 19/17/461 18/15/461
f 51/24/462 53/30/463 6/11/464
f 6/11/465 7/10/466 52/23/467
f 55/25/468 54/124/469 52/23/470
f 52/23/471 7/10/472 8/9/473
f 8/9/474 56/125/475 55/25/476
f 59/126/477 58/81/478 21/22/479
f 21/22/480 20/21/481 60/26/482
f 57/27/483 59/126/484 21/22/485
f 62/29/486 60/127/487 20/21/488
f 20/21/489 32/57/490 61/28/491
f 63/128/492 65/129/493 22/13/494
f 22/13/495 6/11/496 53/30/497
f 64/31/498 63/128/499 22/13/500
f 162/33/501 163/36/502 23/32/503
f 23/32/504 2/118/505 160/4/506
f 160/4/507 161/130/508 162/33/509
f 166/34/510 165/131/511 24/35/512
f 24/35/513 23/32/514 163/36/515
f 164/38/516 143/132/517 142/37/518
f 142/37/519 25/41/520 24/35/521
f 24/35/522 165/131/523 164/38/524
f 138/40/525 137/133/526 26/39/527
f 26/39/528 25/41/529 142/37/530
f 142/37/531 139/134/532 138/40/533
f 25/41/534 26/39/535 27/42/536
f 24/35/537 25/41/538 28/43/539
f 23/32/540 24/35/540 29/44/541
f 8/9/542 2/118/543 23/32/544
f 67/47/545 68/135/546 28/43/547
f 28/43/548 27/42/549 66/46/550
f 69/136/551 56/125/552 8/9/553
f 8/9/554 30/45/555 71/48/556
f 70/49/557 69/136/558 8/9/558
f 72/50/559 74/137/560 71/48/561
f 71/48/562 30/45/563 29/44/564
f 29/44/565 73/138/566 72/50/567
f 77/139/568 73/138/569 29/44/570
f 29/44/571 28/43/572 68/135/573
f 29/44/574 68/135/575 75/51/576
f 76/52/577 77/139/578 29/44/579
f 107/54/580 111/140/580 26/39/580
f 26/39/581 137/133/581 108/53/581
f 152/8/582 17/7/583 31/20/584
f 31/20/585 135/14/586 134/55/587
f 151/56/588 152/8/589 31/20/589
f 32/57/590 31/20/591 17/7/592
f 79/58/593 78/141/594 61/28/595
f 61/28/596 32/57/597 22/13/598
f 22/13/599 65/129/600 79/58/601
f 120/61/602 122/142/603 34/59/604
f 34/59/605 33/68/606 154/60/607
f 154/60/608 119/143/609 120/61/610
f 129/63/611 35/64/612 34/59/613
f 34/59/614 122/142/615 121/62/616
f 121/62/617 123/144/618 129/63/619
f 131/66/620 36/71/620 35/64/621
f 35/64/622 129/63/623 130/65/624
f 34/59/625 38/145/625 37/67/626
f 39/69/627 38/145/627 34/59/628
f 40/70/629 39/69/630 35/64/631
=======
f 150/6/432 4/12/433 17/7/434
f 3/2/435 2/118/436 8/9/437
f 3/2/438 7/10/439 6/11/440
f 4/12/441 6/11/442 22/13/442
f 117/16/443 136/123/444 135/14/445
f 135/14/446 31/20/447 18/15/448
f 18/15/449 118/19/450 117/16/451
f 118/19/452 18/15/453 19/17/454
f 19/17/455 115/75/456 116/18/457
f 31/20/458 32/57/459 20/21/460
f 21/22/461 19/17/462 18/15/463
f 51/24/464 53/30/465 6/11/466
f 6/11/467 7/10/468 52/23/469
f 55/25/470 54/124/471 52/23/472
f 52/23/473 7/10/474 8/9/475
f 8/9/476 56/125/477 55/25/478
f 59/126/479 58/81/480 21/22/481
f 21/22/482 20/21/483 60/26/484
f 57/27/485 59/126/486 21/22/487
f 62/29/488 60/127/489 20/21/490
f 20/21/491 32/57/492 61/28/493
f 63/128/494 65/129/495 22/13/496
f 22/13/497 6/11/498 53/30/499
f 64/31/500 63/128/501 22/13/502
f 162/33/503 163/36/504 23/32/505
f 23/32/506 2/118/507 160/4/508
f 160/4/509 161/130/510 162/33/511
f 166/34/512 165/131/513 24/35/514
f 24/35/515 23/32/516 163/36/517
f 164/38/518 143/132/519 142/37/519
f 142/37/520 25/41/521 24/35/522
f 24/35/523 165/131/524 164/38/525
f 138/40/526 137/133/527 26/39/528
f 26/39/529 25/41/530 142/37/531
f 142/37/532 139/134/533 138/40/534
f 25/41/535 26/39/536 27/42/537
f 24/35/538 25/41/539 28/43/540
f 23/32/541 24/35/542 29/44/543
f 8/9/544 2/118/545 23/32/546
f 67/47/547 68/135/548 28/43/549
f 28/43/550 27/42/551 66/46/552
f 69/136/553 56/125/554 8/9/555
f 8/9/556 30/45/557 71/48/557
f 70/49/558 69/136/559 8/9/560
f 72/50/561 74/137/562 71/48/563
f 71/48/564 30/45/565 29/44/566
f 29/44/567 73/138/568 72/50/569
f 77/139/570 73/138/571 29/44/572
f 29/44/573 28/43/574 68/135/575
f 29/44/576 68/135/577 75/51/578
f 76/52/579 77/139/580 29/44/581
f 107/54/582 111/140/582 26/39/582
f 26/39/583 137/133/583 108/53/583
f 152/8/584 17/7/585 31/20/586
f 31/20/587 135/14/588 134/55/589
f 151/56/590 152/8/591 31/20/591
f 32/57/592 31/20/593 17/7/593
f 79/58/594 78/141/595 61/28/596
f 61/28/597 32/57/598 22/13/599
f 22/13/600 65/129/601 79/58/602
f 120/61/603 122/142/604 34/59/605
f 34/59/606 33/68/607 154/60/608
f 154/60/609 119/143/610 120/61/611
f 129/63/612 35/64/613 34/59/614
f 34/59/615 122/142/616 121/62/617
f 121/62/618 123/144/619 129/63/620
f 131/66/621 36/71/621 35/64/622
f 35/64/623 129/63/624 130/65/625
f 34/59/626 38/145/626 37/67/626
f 39/69/627 38/145/628 34/59/629
f 40/70/630 39/69/630 35/64/631
>>>>>>> cb21b7af07e09156fd8c754d1e4dcd698ed77036
f 114/74/632 42/76/633 41/72/634
f 41/72/635 132/115/636 133/73/637
f 133/73/638 113/146/639 114/74/640
f 114/74/641 112/147/642 115/75/643
f 115/75/644 19/17/645 42/76/646
f 44/77/647 43/84/648 41/72/649
f 21/22/650 44/77/651 42/76/652
f 81/79/653 80/148/654 82/78/655
f 82/78/656 38/145/657 39/69/658
f 84/80/659 85/149/660 37/67/661
f 37/67/662 38/145/663 82/78/664
f 82/78/665 83/150/666 84/80/667
f 86/151/668 87/85/669 44/77/670
f 44/77/671 21/22/672 58/81/673
f 88/82/674 86/151/675 44/77/676
f 89/83/677 90/116/678 43/84/679
f 43/84/680 44/77/681 87/85/682
f 93/152/683 81/79/684 39/69/685
f 39/69/686 40/70/687 92/86/688
f 91/87/689 93/152/690 39/69/691
f 153/89/692 154/60/693 33/68/694
f 33/68/695 45/90/696 157/88/697
f 157/88/698 155/153/699 153/89/700
f 158/92/701 157/88/702 45/90/703
f 45/90/704 46/93/705 159/91/706
f 156/95/707 159/91/708 46/93/709
f 46/93/710 47/98/711 125/94/712
<<<<<<< HEAD
f 125/94/713 124/154/714 156/95/715
f 125/94/716 47/98/717 26/96/718
f 26/96/719 141/111/720 140/97/721
f 140/97/722 126/155/723 125/94/724
f 47/98/725 48/100/726 27/99/726
f 46/93/727 49/101/728 48/100/728
f 45/90/729 50/104/730 49/101/731
f 37/67/732 50/104/732 45/90/733
f 94/102/734 66/156/735 27/99/736
f 27/99/737 48/100/738 95/103/739
f 96/157/740 97/108/741 50/104/742
f 50/104/743 37/67/744 85/105/745
f 98/106/746 96/157/747 50/104/748
f 100/107/749 101/158/750 49/101/751
f 49/101/752 50/104/753 97/108/754
f 97/108/755 99/159/756 100/107/757
f 102/160/758 95/103/759 48/100/760
f 48/100/761 49/101/761 101/158/762
f 48/100/763 101/158/764 104/109/765
f 103/110/766 102/160/767 48/100/768
f 110/113/769 109/161/770 141/111/770
f 141/111/771 26/96/772 111/112/773
f 132/115/774 41/72/775 36/71/776
f 36/71/777 131/66/777 128/114/778
f 128/114/779 127/162/780 132/115/781
f 43/84/782 40/70/783 36/71/784
f 105/117/785 92/86/786 40/70/787
f 40/70/788 43/84/788 90/116/789
=======
f 125/94/713 124/154/713 156/95/714
f 125/94/715 47/98/716 26/96/717
f 26/96/718 141/111/719 140/97/720
f 140/97/721 126/155/722 125/94/723
f 47/98/724 48/100/725 27/99/725
f 46/93/726 49/101/727 48/100/727
f 45/90/728 50/104/729 49/101/730
f 37/67/731 50/104/731 45/90/732
f 94/102/733 66/156/734 27/99/735
f 27/99/736 48/100/736 95/103/737
f 96/157/738 97/108/739 50/104/740
f 50/104/741 37/67/742 85/105/743
f 98/106/744 96/157/745 50/104/746
f 100/107/747 101/158/748 49/101/749
f 49/101/750 50/104/751 97/108/752
f 97/108/753 99/159/754 100/107/755
f 102/160/756 95/103/757 48/100/758
f 48/100/759 49/101/760 101/158/761
f 48/100/762 101/158/763 104/109/764
f 103/110/765 102/160/766 48/100/767
f 110/113/768 109/161/769 141/111/769
f 141/111/770 26/96/771 111/112/772
f 132/115/773 41/72/774 36/71/775
f 36/71/776 131/66/776 128/114/777
f 128/114/778 127/162/779 132/115/780
f 43/84/781 40/70/782 36/71/783
f 105/117/784 92/86/785 40/70/786
f 40/70/787 43/84/788 90/116/789
>>>>>>> cb21b7af07e09156fd8c754d1e4dcd698ed77036
f 90/116/790 106/163/791 105/117/792
f 102/1/793 75/1/794 68/1/795
f 67/1/796 66/1/797 94/1/798
f 102/1/799 68/1/800 67/1/801
<<<<<<< HEAD
f 94/1/802 95/1/803 102/1/803
f 86/1/804 88/1/805 9/1/806
f 9/1/807 89/1/808 87/1/809
f 88/1/810 58/1/811 59/1/812
f 60/1/813 62/1/814 9/1/815
f 9/1/816 59/1/817 57/1/818
f 80/1/819 81/1/820 93/1/821
f 93/1/822 11/1/823 84/1/824
f 82/1/825 80/1/826 93/1/827
f 96/1/828 98/1/829 12/1/830
f 100/1/831 97/1/832 96/1/833
f 103/1/834 104/1/835 100/1/836
f 96/1/837 12/1/838 103/1/839
f 91/1/840 92/1/841 105/1/842
f 11/1/843 93/1/844 91/1/845
f 11/1/846 105/1/847 106/1/848
f 106/1/849 90/1/850 89/1/851
f 89/1/852 9/1/853 11/1/854
f 85/1/855 84/1/856 11/1/857
f 11/1/858 12/1/859 98/1/860
f 78/1/861 79/1/862 13/1/863
f 13/1/864 9/1/865 62/1/866
f 62/1/867 61/1/868 78/1/869
f 75/1/870 102/1/261 103/1/871
f 103/1/872 12/1/873 76/1/874
f 72/1/875 77/1/876 76/1/877
f 76/1/878 12/1/879 69/1/879
f 70/1/880 71/1/881 74/1/882
f 76/1/883 69/1/884 70/1/885
f 74/1/886 72/1/887 76/1/888
f 55/1/889 56/1/890 69/1/891
f 69/1/892 12/1/893 13/1/894
f 64/1/895 53/1/896 51/1/897
f 51/1/898 52/1/899 54/1/900
f 54/1/901 55/1/902 13/1/903
f 13/1/904 64/1/905 51/1/906
f 63/1/907 64/1/908 13/1/909
f 13/1/910 79/1/911 65/1/912
=======
f 94/1/802 95/1/803 102/1/804
f 86/1/805 88/1/806 9/1/807
f 9/1/808 89/1/809 87/1/810
f 88/1/811 58/1/812 59/1/813
f 60/1/814 62/1/815 9/1/816
f 9/1/817 59/1/818 57/1/819
f 80/1/820 81/1/821 93/1/822
f 93/1/823 11/1/824 84/1/825
f 82/1/826 80/1/827 93/1/828
f 96/1/829 98/1/830 12/1/831
f 100/1/832 97/1/833 96/1/834
f 103/1/835 104/1/836 100/1/837
f 96/1/838 12/1/839 103/1/840
f 91/1/841 92/1/842 105/1/843
f 11/1/844 93/1/845 91/1/846
f 11/1/847 105/1/848 106/1/849
f 106/1/850 90/1/851 89/1/852
f 89/1/853 9/1/854 11/1/855
f 85/1/856 84/1/857 11/1/858
f 11/1/859 12/1/860 98/1/861
f 78/1/862 79/1/863 13/1/864
f 13/1/865 9/1/866 62/1/867
f 62/1/868 61/1/869 78/1/870
f 75/1/871 102/1/261 103/1/872
f 103/1/873 12/1/874 76/1/875
f 72/1/876 77/1/877 76/1/878
f 76/1/879 12/1/880 69/1/880
f 70/1/881 71/1/882 74/1/883
f 76/1/884 69/1/885 70/1/886
f 74/1/887 72/1/888 76/1/889
f 55/1/890 56/1/891 69/1/892
f 69/1/893 12/1/894 13/1/895
f 64/1/896 53/1/897 51/1/898
f 51/1/899 52/1/900 54/1/901
f 54/1/902 55/1/903 13/1/904
f 13/1/905 64/1/906 51/1/907
f 63/1/908 64/1/909 13/1/910
f 13/1/911 79/1/912 65/1/913
>>>>>>> cb21b7af07e09156fd8c754d1e4dcd698ed77036
