# Blender 4.3.2
# www.blender.org
mtllib link_14.mtl
o link_14_visual
v -0.000740 0.000000 -0.000903
v 0.000080 0.000000 -0.000903
v 0.000196 0.000000 -0.001328
v -0.000792 -0.000149 -0.000507
v -0.000792 0.000149 -0.000507
v -0.000704 0.000000 0.001062
v 0.000116 0.000000 0.001062
v 0.000449 0.000000 0.001807
v -0.000785 0.000164 0.000558
v -0.000828 0.000000 0.000000
v -0.000785 -0.000164 0.000558
v -0.000008 0.000000 0.000000
v -0.000739 -0.000189 0.000562
v -0.000741 -0.000203 0.000268
v -0.000752 -0.000221 -0.000032
v -0.000262 -0.000145 0.000603
v -0.000271 -0.000154 0.000266
v -0.000282 -0.000154 -0.000085
v -0.000302 -0.000159 0.001376
v -0.000353 0.000000 0.001564
v -0.000261 -0.000185 0.000907
v 0.000148 -0.000131 0.001529
v 0.000122 0.000000 0.001781
v -0.000763 -0.000214 -0.000333
v -0.000278 0.000000 -0.001232
v -0.000330 -0.000175 -0.001028
v -0.000289 -0.000160 -0.000448
v -0.000317 -0.000185 -0.000748
v 0.000077 -0.000130 -0.001219
v 0.000084 0.000000 -0.001524
v -0.000277 -0.000220 0.001166
v 0.000172 -0.000147 0.001274
v 0.000567 0.000000 0.001960
v -0.000741 0.000203 0.000268
v -0.000739 0.000189 0.000562
v -0.000752 0.000221 -0.000032
v -0.000271 0.000154 0.000266
v -0.000262 0.000145 0.000603
v -0.000282 0.000154 -0.000085
v -0.000302 0.000159 0.001376
v -0.000277 0.000220 0.001166
v -0.000261 0.000185 0.000907
v 0.000148 0.000131 0.001529
v 0.000172 0.000147 0.001274
v -0.000330 0.000175 -0.001028
v -0.000763 0.000214 -0.000333
v -0.000289 0.000160 -0.000448
v -0.000317 0.000185 -0.000748
v 0.000077 0.000130 -0.001219
v 0.000026 -0.000144 0.000387
v 0.000022 -0.000147 0.000271
v 0.000029 -0.000138 0.000468
v 0.000048 -0.000122 0.000640
v 0.000035 -0.000130 0.000558
v 0.000008 -0.000126 0.000000
v 0.000011 -0.000125 -0.000113
v 0.000009 -0.000126 0.000017
v 0.000066 -0.000133 0.000732
v 0.000054 -0.000126 0.000674
v 0.000117 -0.000138 0.000976
v 0.000023 -0.000128 -0.000437
v 0.000028 -0.000129 -0.000507
v 0.000028 -0.000129 -0.000508
v 0.000091 -0.000120 -0.000880
v 0.000093 -0.000120 -0.000887
v 0.000035 -0.000128 -0.000565
v 0.000098 -0.000120 -0.000915
v 0.000130 -0.000140 0.001040
v 0.000177 -0.000142 0.001192
v 0.000406 -0.000076 0.001711
v 0.000453 -0.000050 0.001793
v 0.000499 -0.000037 0.001843
v 0.000564 -0.000028 0.001891
v 0.000344 -0.000123 0.001599
v 0.000280 -0.000121 0.001490
v 0.000312 -0.000123 0.001549
v 0.000265 -0.000125 0.001462
v 0.000236 -0.000133 0.001386
v 0.000207 -0.000143 0.001285
v 0.000200 -0.000144 0.001264
v 0.000202 -0.000130 -0.001275
v 0.000162 -0.000127 -0.001164
v 0.000106 -0.000121 -0.000959
v 0.000375 0.000000 -0.001697
v 0.000375 0.000000 -0.001697
v 0.000230 -0.000096 -0.001377
v 0.000622 -0.000020 0.001933
v 0.000652 -0.000011 0.001955
v 0.000749 0.000000 0.001993
v 0.000026 0.000144 0.000387
v 0.000029 0.000138 0.000468
v 0.000048 0.000122 0.000640
v 0.000035 0.000130 0.000558
v 0.000022 0.000147 0.000271
v 0.000009 0.000126 0.000017
v 0.000008 0.000126 0.000000
v 0.000011 0.000125 -0.000113
v 0.000066 0.000133 0.000732
v 0.000117 0.000138 0.000976
v 0.000054 0.000126 0.000674
v 0.000023 0.000128 -0.000437
v 0.000028 0.000129 -0.000507
v 0.000028 0.000129 -0.000508
v 0.000035 0.000128 -0.000565
v 0.000091 0.000120 -0.000880
v 0.000093 0.000120 -0.000887
v 0.000098 0.000120 -0.000915
v 0.000130 0.000140 0.001040
v 0.000177 0.000142 0.001192
v 0.000406 0.000076 0.001711
v 0.000344 0.000123 0.001599
v 0.000453 0.000050 0.001793
v 0.000499 0.000037 0.001843
v 0.000564 0.000028 0.001891
v 0.000265 0.000125 0.001462
v 0.000236 0.000133 0.001386
v 0.000280 0.000121 0.001490
v 0.000207 0.000143 0.001285
v 0.000312 0.000123 0.001549
v 0.000200 0.000144 0.001264
v 0.000202 0.000130 -0.001275
v 0.000162 0.000127 -0.001164
v 0.000106 0.000121 -0.000959
v 0.000230 0.000096 -0.001377
v 0.000622 0.000020 0.001933
v 0.000652 0.000011 0.001955
v -0.000743 -0.000193 -0.000748
v -0.000729 -0.000171 -0.000843
v -0.000727 -0.000148 -0.000867
v -0.000736 -0.000023 -0.000914
v -0.000556 -0.000030 0.001462
v -0.000540 0.000000 0.001491
v -0.000556 0.000030 0.001462
v -0.000590 0.000125 0.001368
v -0.000605 0.000186 0.001290
v -0.000679 0.000245 0.001023
v -0.000656 0.000240 0.001099
v -0.000624 0.000207 0.001219
v -0.000590 -0.000125 0.001368
v -0.000582 -0.000109 0.001390
v -0.000582 0.000109 0.001390
v -0.000679 -0.000245 0.001023
v -0.000656 -0.000240 0.001099
v -0.000624 -0.000207 0.001219
v -0.000605 -0.000186 0.001290
v -0.000786 0.000202 0.000415
v -0.000777 0.000194 0.000553
v -0.000790 0.000217 -0.000295
v -0.000797 0.000224 -0.000051
v -0.000799 0.000227 -0.000001
v -0.000798 0.000226 -0.000027
v -0.000799 0.000227 0.000000
v -0.000776 0.000194 0.000560
v -0.000773 0.000193 0.000578
v -0.000740 0.000228 0.000722
v -0.000718 0.000250 0.000822
v -0.000715 0.000252 0.000837
v -0.000711 0.000253 0.000860
v -0.000712 0.000253 0.000854
v -0.000790 0.000210 0.000269
v -0.000790 0.000208 0.000294
v -0.000711 -0.000253 0.000860
v -0.000799 -0.000227 -0.000001
v -0.000798 -0.000226 -0.000027
v -0.000799 -0.000227 0.000000
v -0.000790 -0.000217 -0.000295
v -0.000797 -0.000224 -0.000051
v -0.000790 -0.000210 0.000269
v -0.000786 -0.000202 0.000415
v -0.000790 -0.000208 0.000294
v -0.000777 -0.000194 0.000553
v -0.000712 -0.000253 0.000854
v -0.000715 -0.000252 0.000837
v -0.000773 -0.000193 0.000578
v -0.000776 -0.000194 0.000560
v -0.000740 -0.000228 0.000722
v -0.000718 -0.000250 0.000822
v -0.000788 0.000216 -0.000328
v -0.000774 0.000221 -0.000494
v -0.000772 0.000221 -0.000520
v -0.000756 0.000222 -0.000622
v -0.000759 0.000223 -0.000605
v -0.000743 0.000193 -0.000748
v -0.000729 0.000171 -0.000843
v -0.000727 0.000148 -0.000867
v -0.000736 0.000023 -0.000914
v -0.000788 -0.000216 -0.000328
v -0.000774 -0.000221 -0.000494
v -0.000772 -0.000221 -0.000520
v -0.000756 -0.000222 -0.000622
v -0.000759 -0.000223 -0.000605
v -0.000735 0.000000 -0.000924
v -0.000735 0.000000 -0.000924
vn -0.9758 -0.1299 -0.1760
vn -0.9758 -0.1298 -0.1761
vn -0.9758 -0.1299 -0.1757
vn -0.9916 -0.0000 -0.1291
vn -0.8811 -0.0000 0.4729
vn -0.9451 0.1463 0.2921
vn -0.9455 0.1451 0.2917
vn -0.9369 -0.0035 0.3495
vn -0.9369 -0.0033 0.3495
vn -0.9453 -0.1453 0.2920
vn -0.9452 -0.1457 0.2922
vn -0.9452 -0.1456 0.2921
vn -0.9636 0.2571 0.0737
vn -0.9776 0.2059 -0.0444
vn -0.9553 0.2636 0.1338
vn -0.9522 0.2546 0.1689
vn -0.9557 0.2491 0.1567
vn -0.9711 0.1337 0.1977
vn -0.9710 0.1337 0.1984
vn -0.9710 0.1338 0.1981
vn -0.9910 0.1276 0.0405
vn -0.9911 0.1268 0.0405
vn -0.9910 0.1279 0.0402
vn -0.9969 -0.0000 0.0780
vn -0.9876 -0.0000 0.1568
vn -0.9713 -0.1330 0.1970
vn -0.9715 -0.1327 0.1964
vn -0.9975 -0.0000 -0.0707
vn -0.9909 -0.1284 -0.0401
vn -0.9909 -0.1286 -0.0400
vn -0.9909 -0.1284 -0.0403
vn -0.9923 -0.1180 0.0383
vn -0.9923 -0.1178 0.0386
vn -0.9636 -0.2571 0.0737
vn -0.9557 -0.2507 0.1542
vn -0.9522 -0.2561 0.1665
vn -0.9550 -0.2655 0.1320
vn -0.9646 0.2540 -0.0708
vn -0.9642 0.2540 -0.0759
vn -0.9645 0.2543 -0.0707
vn -0.9685 0.2005 -0.1479
vn -0.9684 0.1999 -0.1489
vn -0.9685 0.1995 -0.1494
vn -0.9758 0.1299 -0.1760
vn -0.9758 0.1299 -0.1757
vn -0.9758 0.1298 -0.1761
vn -0.9642 -0.2540 -0.0759
vn -0.9646 -0.2540 -0.0708
vn -0.9645 -0.2543 -0.0707
vn -0.9701 -0.1921 -0.1486
vn -0.9701 -0.1920 -0.1486
vn -0.9701 -0.1931 -0.1471
vn 0.0193 -0.0000 0.9998
vn -0.0000 -0.0000 1.0000
vn 0.0012 -0.0052 1.0000
vn -0.9606 -0.0872 -0.2640
vn 0.1396 -0.9892 0.0442
vn 0.1316 -0.9906 0.0379
vn 0.1394 -0.9891 0.0479
vn 0.4609 -0.8873 -0.0158
vn 0.4629 -0.8862 -0.0187
vn 0.4628 -0.8863 -0.0197
vn 0.0260 -0.9732 -0.2283
vn 0.0246 -0.9692 -0.2450
vn 0.0246 -0.9700 -0.2419
vn 0.0908 -0.9956 0.0233
vn 0.0891 -0.9958 0.0230
vn 0.0896 -0.9957 0.0230
vn 0.1042 -0.9930 0.0565
vn 0.1046 -0.9929 0.0560
vn 0.1044 -0.9929 0.0564
vn -0.1025 -0.7774 0.6206
vn -0.1017 -0.7772 0.6209
vn -0.1012 -0.7768 0.6215
vn 0.0055 -0.9584 0.2852
vn 0.0027 -0.9591 0.2830
vn 0.0081 -0.9584 0.2854
vn 0.1495 -0.9766 -0.1545
vn 0.1494 -0.9766 -0.1547
vn 0.1497 -0.9764 -0.1555
vn 0.0457 -0.9980 0.0432
vn 0.0437 -0.9981 0.0430
vn 0.0445 -0.9981 0.0428
vn 0.0926 -0.9957 -0.0057
vn 0.0932 -0.9956 -0.0051
vn 0.0926 -0.9957 -0.0062
vn -0.1977 -0.8780 0.4359
vn -0.1992 -0.8781 0.4351
vn -0.1989 -0.8781 0.4352
vn 0.0379 -0.9969 0.0682
vn 0.0390 -0.9969 0.0686
vn 0.0390 -0.9969 0.0684
vn 0.0892 -0.9873 -0.1314
vn 0.0894 -0.9873 -0.1310
vn 0.0887 -0.9875 -0.1301
vn -0.5289 -0.3220 -0.7852
vn -0.5292 -0.3219 -0.7851
vn -0.5293 -0.3229 -0.7846
vn -0.4767 -0.8749 -0.0856
vn -0.4742 -0.8755 -0.0923
vn -0.4725 -0.8769 -0.0884
vn 0.0913 -0.9953 0.0337
vn 0.1176 -0.9929 0.0146
vn 0.1178 -0.9929 0.0141
vn 0.1178 -0.9929 0.0144
vn 0.1220 -0.9919 0.0346
vn 0.1221 -0.9919 0.0351
vn 0.0182 -0.9749 -0.2219
vn 0.0186 -0.9749 -0.2220
vn 0.0190 -0.9747 -0.2229
vn -0.2341 -0.7075 -0.6668
vn -0.2339 -0.7072 -0.6672
vn -0.2341 -0.7074 -0.6669
vn 0.1080 -0.9939 0.0202
vn 0.1084 -0.9939 0.0200
vn 0.1073 -0.9940 0.0217
vn 0.1431 -0.9892 0.0321
vn 0.1424 -0.9892 0.0346
vn 0.1414 -0.9893 0.0347
vn 0.1638 -0.9863 0.0212
vn 0.1636 -0.9863 0.0211
vn 0.0471 -0.9982 0.0373
vn 0.0474 -0.9982 0.0369
vn 0.0502 -0.9980 0.0374
vn 0.1333 -0.9896 -0.0538
vn 0.1334 -0.9896 -0.0534
vn 0.1335 -0.9896 -0.0532
vn 0.0146 -0.9608 0.2770
vn 0.0144 -0.9607 0.2773
vn 0.0144 -0.9607 0.2772
vn 0.1024 -0.9909 0.0878
vn 0.1001 -0.9911 0.0875
vn 0.1022 -0.9909 0.0875
vn 0.0972 -0.9953 0.0047
vn 0.1022 -0.9945 0.0242
vn 0.0939 -0.9955 0.0146
vn 0.0142 -0.9994 0.0314
vn 0.0137 -0.9994 0.0314
vn 0.0118 -0.9994 0.0331
vn -0.2203 -0.9030 -0.3688
vn -0.2208 -0.9028 -0.3690
vn -0.2207 -0.9021 -0.3709
vn -0.0879 -0.8756 0.4750
vn -0.0865 -0.8745 0.4772
vn -0.0846 -0.8745 0.4775
vn 0.1301 0.9904 0.0474
vn 0.1215 0.9910 0.0557
vn 0.1285 0.9908 0.0427
vn 0.1681 0.9842 0.0563
vn 0.1679 0.9841 0.0582
vn 0.1648 0.9849 0.0537
vn 0.0246 0.9692 -0.2450
vn 0.0260 0.9732 -0.2283
vn 0.0246 0.9700 -0.2419
vn 0.1036 0.9936 0.0454
vn 0.1041 0.9935 0.0454
vn 0.1046 0.9929 0.0560
vn 0.1042 0.9930 0.0565
vn 0.1044 0.9929 0.0564
vn -0.1078 0.7843 0.6109
vn -0.1080 0.7839 0.6115
vn -0.1088 0.7848 0.6102
vn 0.0027 0.9591 0.2830
vn 0.0055 0.9584 0.2852
vn 0.0081 0.9584 0.2854
vn 0.1791 0.9544 -0.2387
vn 0.1791 0.9544 -0.2388
vn 0.1793 0.9545 -0.2383
vn 0.0644 0.9944 0.0833
vn 0.0629 0.9946 0.0825
vn 0.0615 0.9945 0.0843
vn 0.1189 0.9895 -0.0819
vn 0.1190 0.9895 -0.0819
vn 0.1184 0.9895 -0.0830
vn -0.1992 0.8781 0.4351
vn -0.1977 0.8780 0.4359
vn -0.1989 0.8781 0.4352
vn 0.0862 0.9533 0.2894
vn 0.0832 0.9541 0.2876
vn 0.0854 0.9535 0.2891
vn 0.0498 0.9983 -0.0302
vn 0.0497 0.9983 -0.0301
vn 0.0498 0.9983 -0.0307
vn -0.3724 0.3492 -0.8599
vn -0.3732 0.3494 -0.8594
vn -0.3721 0.3492 -0.8600
vn 0.0817 0.9963 -0.0251
vn 0.0779 0.9967 -0.0226
vn 0.0815 0.9963 -0.0281
vn 0.0913 0.9953 0.0337
vn 0.1391 0.9899 -0.0281
vn 0.1388 0.9899 -0.0273
vn 0.1390 0.9899 -0.0275
vn 0.0954 0.9949 0.0325
vn 0.0954 0.9949 0.0328
vn 0.0190 0.9747 -0.2229
vn 0.0186 0.9749 -0.2220
vn 0.0182 0.9749 -0.2219
vn -0.2338 0.7072 -0.6673
vn -0.2340 0.7076 -0.6667
vn -0.2340 0.7074 -0.6669
vn 0.1073 0.9940 0.0217
vn 0.1084 0.9939 0.0200
vn 0.1080 0.9939 0.0202
vn 0.1598 0.9871 0.0039
vn 0.1583 0.9874 0.0046
vn 0.1593 0.9872 0.0044
vn 0.1383 0.9895 -0.0422
vn 0.1460 0.9891 0.0170
vn 0.1483 0.9888 0.0174
vn 0.1456 0.9892 0.0174
vn 0.1335 0.9896 -0.0532
vn 0.1334 0.9896 -0.0534
vn 0.1333 0.9896 -0.0538
vn 0.0145 0.9607 0.2773
vn 0.0146 0.9608 0.2770
vn 0.0145 0.9607 0.2772
vn 0.0919 0.9934 0.0693
vn 0.0919 0.9933 0.0694
vn 0.0896 0.9935 0.0700
vn 0.0712 0.9962 -0.0505
vn 0.0728 0.9954 -0.0629
vn 0.0698 0.9961 -0.0534
vn 0.0118 0.9994 0.0331
vn 0.0137 0.9994 0.0314
vn 0.0142 0.9994 0.0314
vn -0.2266 0.9035 -0.3637
vn -0.2268 0.9035 -0.3638
vn -0.2268 0.9029 -0.3653
vn -0.0995 0.9210 0.3767
vn -0.0974 0.9201 0.3794
vn -0.0970 0.9202 0.3793
vn 0.9740 0.1308 0.1850
vn 0.9742 0.1316 0.1834
vn 0.9750 0.1303 0.1798
vn 0.9920 -0.0000 0.1262
vn 0.3591 -0.0000 -0.9333
vn 0.6824 -0.2357 -0.6920
vn 0.5908 0.0034 -0.8068
vn 0.5911 0.0027 -0.8066
vn 0.5911 0.0025 -0.8066
vn 0.6823 0.2357 -0.6920
vn 0.8198 -0.2029 -0.5355
vn 0.8149 -0.2042 -0.5424
vn 0.8121 -0.2085 -0.5451
vn 0.8812 -0.0008 -0.4728
vn 0.8817 0.0002 -0.4719
vn 0.8149 0.2042 -0.5424
vn 0.8198 0.2029 -0.5355
vn 0.8121 0.2085 -0.5451
vn 0.9544 -0.0530 -0.2938
vn 0.9554 -0.0515 -0.2908
vn 0.9546 -0.0531 -0.2932
vn 0.9374 0.0015 -0.3482
vn 0.9374 0.0014 -0.3482
vn 0.9372 0.0004 -0.3488
vn 0.9453 0.1423 -0.2935
vn 0.9448 0.1422 -0.2952
vn 0.9450 0.1424 -0.2944
vn 0.9910 -0.1310 0.0285
vn 0.9910 -0.1301 0.0321
vn 0.9909 -0.1314 0.0294
vn 0.9700 -0.1373 -0.2005
vn 0.9702 -0.1377 -0.1996
vn 0.9708 -0.1362 -0.1976
vn 0.9909 -0.1281 -0.0409
vn 0.9908 -0.1298 -0.0376
vn 0.9910 -0.1279 -0.0393
vn 0.9969 -0.0015 -0.0792
vn 0.9969 -0.0018 -0.0792
vn 0.9969 -0.0017 -0.0792
vn 0.9877 0.0002 -0.1562
vn 0.9877 0.0006 -0.1563
vn 0.9877 -0.0000 -0.1562
vn 0.8890 0.4264 -0.1669
vn 0.8893 0.4248 -0.1695
vn 0.8877 0.4283 -0.1691
vn 0.9975 -0.0000 0.0701
vn 0.9912 0.1278 0.0340
vn 0.9913 0.1274 0.0326
vn 0.9912 0.1277 0.0334
vn 0.9909 0.1281 -0.0409
vn 0.9910 0.1279 -0.0393
vn 0.9908 0.1298 -0.0376
vn 0.9740 -0.1308 0.1850
vn 0.9750 -0.1303 0.1798
vn 0.9742 -0.1316 0.1834
vn -0.0046 0.0078 1.0000
vn -0.0003 -0.0036 1.0000
vn 0.9295 -0.1730 0.3256
vn 0.9296 -0.1729 0.3255
vn 0.9606 -0.0870 0.2639
vn 0.9605 -0.0865 0.2645
vn 0.9606 -0.0868 0.2642
vn 0.9605 0.0865 0.2645
vn 0.9606 0.0870 0.2639
vn 0.9606 0.0868 0.2642
vn 0.8954 0.1043 0.4328
vn 0.9321 0.1706 0.3196
vn 0.9317 0.1719 0.3199
vn 0.9319 0.1708 0.3200
vn -0.9748 -0.1361 -0.1770
vn -0.9749 -0.1379 -0.1751
vn -0.9749 -0.1379 -0.1748
vn -0.9761 -0.1276 -0.1762
vn -0.9762 -0.1281 -0.1752
vn -0.9766 -0.1277 -0.1731
vn -0.9695 -0.1408 -0.2004
vn -0.9697 -0.1412 -0.1996
vn -0.9704 -0.1399 -0.1967
vn -0.9445 0.1459 0.2944
vn -0.9446 0.1457 0.2941
vn -0.9446 0.1456 0.2940
vn -0.9449 0.1465 0.2927
vn -0.9452 0.1462 0.2918
vn -0.9454 0.1455 0.2915
vn -0.9630 0.0405 0.2666
vn -0.9629 0.0410 0.2669
vn -0.9624 0.0399 0.2686
vn -0.9371 -0.0016 0.3491
vn -0.9366 -0.0002 0.3505
vn -0.9366 0.0003 0.3504
vn -0.9366 -0.0003 0.3504
vn -0.9366 0.0002 0.3505
vn -0.9371 0.0016 0.3491
vn -0.9391 -0.0008 0.3435
vn -0.9391 -0.0000 0.3438
vn -0.9392 0.0010 0.3434
vn -0.9373 0.0042 0.3484
vn -0.9372 0.0056 0.3489
vn -0.9372 0.0055 0.3489
vn -0.9453 -0.1452 0.2920
vn -0.9452 -0.1455 0.2922
vn -0.9452 -0.1456 0.2923
vn -0.9422 -0.1605 0.2941
vn -0.9420 -0.1611 0.2943
vn -0.9418 -0.1613 0.2948
vn -0.9442 -0.1472 0.2947
vn -0.9441 -0.1491 0.2939
vn -0.9917 0.1290 -0.0000
vn -0.9979 -0.0583 -0.0292
vn -0.9926 0.1177 -0.0301
vn -0.9911 0.1287 -0.0327
vn -0.9262 0.3471 0.1475
vn -0.9375 0.3209 0.1345
vn -0.9371 0.3212 0.1366
vn -0.9179 -0.3559 0.1755
vn -0.9049 -0.3747 0.2017
vn -0.9097 -0.3530 0.2189
vn -0.8870 0.4561 0.0726
vn -0.8910 0.4425 0.1015
vn -0.8900 0.4495 0.0766
vn -0.9405 -0.3280 0.0886
vn -0.9299 -0.3492 0.1152
vn -0.9346 -0.3306 0.1314
vn -0.9485 0.2849 0.1384
vn -0.9462 0.3007 0.1194
vn -0.9468 0.2858 0.1480
vn -0.9552 0.2717 0.1178
vn -0.9544 0.2621 0.1429
vn -0.9518 0.2670 0.1508
vn -0.9713 0.1330 0.1970
vn -0.9715 0.1326 0.1964
vn -0.9910 0.1283 0.0389
vn -0.9908 0.1294 0.0388
vn -0.9908 0.1295 0.0387
vn -0.9909 0.1280 0.0403
vn -0.9909 0.1283 0.0401
vn -0.9909 0.1284 0.0400
vn -0.9915 0.1232 0.0429
vn -0.9913 0.1244 0.0427
vn -0.9913 0.1242 0.0430
vn -0.9711 -0.1337 0.1976
vn -0.9710 -0.1339 0.1981
vn -0.9709 -0.1338 0.1985
vn -0.9917 -0.1289 0.0003
vn -0.9917 -0.1288 0.0002
vn -0.9916 -0.1292 -0.0000
vn -0.9913 -0.1272 -0.0329
vn -0.9913 -0.1271 -0.0329
vn -0.9914 -0.1270 -0.0330
vn -0.9979 0.0583 -0.0289
vn -0.9979 0.0585 -0.0290
vn -0.9979 0.0584 -0.0295
vn -0.9910 -0.1308 -0.0302
vn -0.9909 -0.1309 -0.0301
vn -0.9910 -0.1307 -0.0304
vn -0.9908 -0.1296 0.0398
vn -0.9908 -0.1296 0.0399
vn -0.9904 0.1366 0.0225
vn -0.9905 0.1358 0.0221
vn -0.9903 0.1373 0.0219
vn -0.9907 -0.1299 0.0397
vn -0.9907 -0.1298 0.0405
vn -0.9907 -0.1297 0.0406
vn -0.9371 -0.3212 0.1366
vn -0.9375 -0.3209 0.1345
vn -0.9261 -0.3472 0.1475
vn -0.9540 -0.2698 0.1309
vn -0.9585 -0.2593 0.1188
vn -0.9597 -0.2631 0.0990
vn -0.8901 -0.4493 0.0768
vn -0.8910 -0.4425 0.1015
vn -0.8870 -0.4561 0.0726
vn -0.9525 -0.2597 0.1589
vn -0.9512 -0.2629 0.1617
vn -0.9557 -0.2656 0.1271
vn -0.9641 -0.1940 0.1810
vn -0.9661 -0.2086 0.1522
vn -0.9563 -0.2198 0.1929
vn -0.8481 -0.5275 0.0485
vn -0.8504 -0.5209 0.0740
vn -0.8437 -0.5350 0.0446
vn -0.9626 0.2549 -0.0918
vn -0.9625 0.2566 -0.0884
vn -0.9618 0.2590 -0.0889
vn -0.9596 0.2704 -0.0774
vn -0.9595 0.2709 -0.0772
vn -0.9595 0.2710 -0.0771
vn -0.9563 0.2490 -0.1533
vn -0.9563 0.2488 -0.1535
vn -0.9563 0.2484 -0.1539
vn -0.9814 0.1152 -0.1533
vn -0.9813 0.1184 -0.1517
vn -0.9823 0.1111 -0.1509
vn -0.9766 0.1277 -0.1731
vn -0.9762 0.1281 -0.1752
vn -0.9761 0.1276 -0.1762
vn -0.9749 0.1379 -0.1748
vn -0.9749 0.1379 -0.1751
vn -0.9748 0.1361 -0.1770
vn -0.9704 0.1399 -0.1967
vn -0.9697 0.1412 -0.1996
vn -0.9695 0.1408 -0.2004
vn -0.9595 -0.2710 -0.0771
vn -0.9595 -0.2709 -0.0772
vn -0.9596 -0.2704 -0.0774
vn -0.9618 -0.2590 -0.0889
vn -0.9625 -0.2566 -0.0884
vn -0.9626 -0.2549 -0.0918
vn -0.9563 -0.2484 -0.1539
vn -0.9563 -0.2488 -0.1535
vn -0.9563 -0.2490 -0.1533
vn -0.9605 -0.2307 -0.1558
vn -0.9604 -0.2311 -0.1554
vn -0.9607 -0.2321 -0.1520
vn -0.9606 0.0872 -0.2640
vn -0.9617 0.0867 -0.2598
vn 0.1477 -0.9867 0.0675
vn 0.1517 -0.9856 0.0749
vn 0.1482 -0.9857 0.0806
vn 0.1410 -0.9891 0.0431
vn 0.1416 -0.9888 0.0467
vn 0.1414 -0.9889 0.0467
vn -0.7433 -0.6641 0.0797
vn -0.7373 -0.6697 0.0881
vn -0.7420 -0.6656 0.0799
vn 0.1282 -0.9911 0.0367
vn 0.1346 -0.9897 0.0497
vn 0.1363 -0.9896 0.0465
vn 0.7738 -0.6334 -0.0029
vn 0.7758 -0.6310 -0.0005
vn 0.7737 -0.6336 0.0031
vn 0.1181 -0.9915 0.0548
vn 0.1179 -0.9915 0.0548
vn 0.1179 -0.9914 0.0562
vn 0.1455 -0.9877 0.0570
vn 0.1457 -0.9877 0.0575
vn 0.1424 -0.9879 0.0613
vn 0.1440 -0.9894 0.0186
vn 0.1519 -0.9879 0.0325
vn 0.1535 -0.9871 0.0454
vn 0.1036 -0.9936 0.0454
vn 0.1041 -0.9935 0.0454
vn 0.1415 -0.9899 -0.0041
vn 0.1413 -0.9900 -0.0038
vn 0.1411 -0.9900 -0.0037
vn -0.1070 -0.7742 0.6239
vn -0.1069 -0.7741 0.6239
vn -0.1069 -0.7740 0.6241
vn -0.2995 -0.5745 0.7617
vn -0.2978 -0.5746 0.7623
vn -0.2979 -0.5733 0.7633
vn -0.2234 -0.7476 0.6254
vn -0.2217 -0.7477 0.6260
vn -0.2215 -0.7470 0.6269
vn -0.2921 -0.5904 0.7524
vn -0.2912 -0.5904 0.7527
vn -0.2911 -0.5889 0.7539
vn 0.0082 -0.9640 0.2658
vn 0.0036 -0.9635 0.2677
vn -0.0004 -0.9644 0.2646
vn 0.0056 -0.9590 0.2832
vn 0.0033 -0.9593 0.2824
vn 0.1084 -0.9661 -0.2343
vn 0.1081 -0.9660 -0.2349
vn 0.1632 -0.9782 -0.1287
vn 0.1630 -0.9781 -0.1291
vn 0.1635 -0.9780 -0.1298
vn 0.1080 -0.9658 -0.2359
vn 0.1079 -0.9655 -0.2371
vn 0.1077 -0.9657 -0.2363
vn 0.0618 -0.9943 0.0870
vn 0.0633 -0.9943 0.0855
vn 0.0650 -0.9941 0.0866
vn 0.0233 -0.9994 0.0247
vn 0.0237 -0.9994 0.0247
vn -0.9941 -0.1016 0.0373
vn -0.9940 -0.1026 0.0367
vn 0.0614 -0.9945 0.0843
vn 0.0629 -0.9946 0.0825
vn 0.0644 -0.9944 0.0833
vn 0.0248 -0.9963 -0.0826
vn 0.0240 -0.9962 -0.0832
vn 0.0238 -0.9962 -0.0837
vn 0.0972 -0.9953 -0.0021
vn 0.0969 -0.9953 -0.0025
vn 0.0967 -0.9953 -0.0027
vn 0.0949 -0.9955 -0.0035
vn 0.0940 -0.9956 -0.0048
vn 0.0940 -0.9956 -0.0043
vn -0.1598 -0.7757 0.6106
vn -0.1598 -0.7756 0.6107
vn -0.1593 -0.7757 0.6107
vn 0.0862 -0.9533 0.2894
vn 0.0854 -0.9535 0.2891
vn 0.0832 -0.9541 0.2876
vn 0.1330 -0.9899 -0.0481
vn 0.1331 -0.9900 -0.0475
vn 0.1330 -0.9900 -0.0475
vn 0.0899 -0.9873 -0.1307
vn 0.0901 -0.9874 -0.1299
vn 0.0894 -0.9876 -0.1292
vn 0.0849 -0.9869 -0.1373
vn 0.0842 -0.9871 -0.1359
vn 0.0849 -0.9869 -0.1371
vn -0.3148 -0.6785 -0.6638
vn -0.3147 -0.6785 -0.6638
vn -0.3142 -0.6788 -0.6637
vn -0.3198 -0.6727 -0.6673
vn -0.3199 -0.6726 -0.6673
vn -0.3194 -0.6730 -0.6671
vn -0.5274 -0.3287 -0.7834
vn -0.5277 -0.3286 -0.7833
vn -0.5272 -0.3291 -0.7834
vn 0.0004 -0.0006 1.0000
vn -0.0005 -0.0000 1.0000
vn 0.0755 -0.9967 -0.0281
vn 0.0781 -0.9967 -0.0239
vn 0.0768 -0.9968 -0.0221
vn 0.1098 -0.9936 -0.0273
vn 0.1098 -0.9936 -0.0260
vn 0.1097 -0.9936 -0.0260
vn 0.0714 -0.9970 -0.0305
vn 0.0749 -0.9969 -0.0249
vn 0.0754 -0.9968 -0.0260
vn 0.1391 -0.9899 -0.0281
vn 0.1390 -0.9899 -0.0275
vn 0.1388 -0.9899 -0.0273
vn 0.1219 -0.9920 0.0341
vn 0.1222 -0.9919 0.0344
vn 0.1220 -0.9919 0.0348
vn -0.3662 -0.9299 -0.0351
vn -0.3658 -0.9301 -0.0347
vn -0.3664 -0.9298 -0.0342
vn 0.1094 -0.9913 0.0727
vn 0.1094 -0.9913 0.0728
vn 0.0326 -0.9746 -0.2217
vn 0.0325 -0.9749 -0.2202
vn 0.0323 -0.9749 -0.2202
vn -0.0250 -0.9991 -0.0343
vn -0.0260 -0.9991 -0.0337
vn -0.0263 -0.9991 -0.0336
vn 0.0705 -0.9964 -0.0478
vn 0.0700 -0.9964 -0.0477
vn 0.0699 -0.9964 -0.0478
vn -0.3053 -0.8735 -0.3791
vn -0.3055 -0.8736 -0.3788
vn -0.3054 -0.8737 -0.3787
vn 0.0983 -0.9951 0.0144
vn 0.0976 -0.9952 0.0118
vn 0.0987 -0.9951 0.0110
vn 0.0978 -0.9951 0.0137
vn 0.0980 -0.9951 0.0135
vn 0.0981 -0.9951 0.0133
vn -0.2011 -0.9796 0.0011
vn -0.2011 -0.9796 -0.0010
vn -0.2011 -0.9796 0.0010
vn 0.0974 -0.9952 -0.0039
vn 0.0969 -0.9953 -0.0036
vn 0.0962 -0.9954 -0.0035
vn 0.1796 -0.9815 0.0668
vn 0.1789 -0.9816 0.0671
vn 0.1781 -0.9817 0.0672
vn 0.0964 -0.9953 -0.0074
vn 0.0941 -0.9955 -0.0072
vn 0.0954 -0.9954 -0.0069
vn 0.1662 -0.9857 0.0290
vn 0.1667 -0.9856 0.0290
vn 0.1669 -0.9855 0.0292
vn 0.0912 -0.9950 -0.0404
vn 0.0913 -0.9950 -0.0403
vn 0.0914 -0.9950 -0.0402
vn 0.1617 -0.9792 -0.1226
vn 0.1621 -0.9791 -0.1231
vn 0.1624 -0.9790 -0.1231
vn 0.0418 -0.9978 0.0523
vn 0.0423 -0.9978 0.0514
vn 0.0449 -0.9976 0.0519
vn 0.6334 -0.7688 -0.0879
vn 0.6329 -0.7692 -0.0876
vn 0.6347 -0.7679 -0.0861
vn 0.1342 -0.9873 -0.0851
vn 0.1346 -0.9872 -0.0854
vn 0.1340 -0.9873 -0.0849
vn 0.1290 -0.9902 -0.0539
vn 0.1303 -0.9901 -0.0528
vn 0.1303 -0.9901 -0.0524
vn 0.1882 -0.9747 -0.1208
vn 0.1887 -0.9747 -0.1200
vn 0.1886 -0.9748 -0.1195
vn 0.1351 -0.9891 -0.0585
vn 0.1351 -0.9891 -0.0584
vn 0.1343 -0.9893 -0.0572
vn -0.1514 -0.9138 0.3768
vn -0.1525 -0.9140 0.3760
vn -0.1522 -0.9141 0.3758
vn -0.1778 -0.8804 0.4396
vn -0.1778 -0.8805 0.4395
vn -0.1777 -0.8805 0.4395
vn -0.1208 -0.8900 0.4396
vn -0.1208 -0.8902 0.4392
vn -0.1206 -0.8903 0.4391
vn -0.1428 -0.9169 0.3727
vn -0.1438 -0.9170 0.3720
vn -0.1436 -0.9171 0.3719
vn -0.0173 -0.9503 0.3108
vn -0.0174 -0.9503 0.3107
vn -0.0171 -0.9505 0.3104
vn 0.0525 -0.9980 -0.0358
vn 0.0533 -0.9979 -0.0358
vn 0.0543 -0.9979 -0.0346
vn 0.0928 -0.9932 0.0701
vn 0.0930 -0.9932 0.0702
vn 0.0933 -0.9932 0.0703
vn 0.0931 -0.9932 0.0702
vn 0.0918 -0.9933 0.0703
vn 0.0934 -0.9931 0.0703
vn 0.0557 -0.9963 -0.0654
vn 0.0576 -0.9962 -0.0650
vn 0.0578 -0.9962 -0.0646
vn 0.0919 -0.9934 0.0693
vn 0.0896 -0.9935 0.0700
vn 0.0919 -0.9933 0.0694
vn 0.0712 -0.9962 -0.0505
vn 0.0698 -0.9961 -0.0534
vn 0.0728 -0.9954 -0.0629
vn 0.0384 -0.9988 0.0291
vn 0.0390 -0.9988 0.0288
vn 0.0410 -0.9987 0.0287
vn 0.0128 -0.9994 0.0312
vn 0.0134 -0.9994 0.0307
vn 0.0144 -0.9994 0.0305
vn -0.1761 -0.9045 -0.3884
vn -0.1762 -0.9045 -0.3885
vn -0.1764 -0.9043 -0.3888
vn -0.2267 -0.9035 -0.3636
vn -0.2268 -0.9028 -0.3653
vn -0.2268 -0.9035 -0.3637
vn 0.0020 -0.0000 1.0000
vn -0.0012 -0.0005 1.0000
vn -0.0854 -0.8764 0.4739
vn -0.0862 -0.8764 0.4739
vn -0.0875 -0.8766 0.4731
vn -0.1476 -0.9137 0.3785
vn -0.1487 -0.9135 0.3786
vn -0.1507 -0.9141 0.3764
vn 0.1415 0.9899 -0.0093
vn 0.1448 0.9893 -0.0152
vn 0.1419 0.9896 -0.0218
vn 0.1502 0.9874 0.0501
vn 0.1515 0.9874 0.0465
vn 0.1514 0.9874 0.0464
vn 0.2577 0.9651 0.0474
vn 0.2666 0.9630 0.0397
vn 0.2565 0.9661 0.0309
vn -0.0485 0.9952 0.0848
vn -0.0557 0.9944 0.0895
vn -0.0476 0.9955 0.0814
vn 0.1457 0.9879 0.0537
vn 0.1457 0.9879 0.0536
vn 0.1449 0.9881 0.0522
vn 0.1079 0.9936 -0.0333
vn 0.1085 0.9935 -0.0356
vn 0.1063 0.9936 -0.0378
vn 0.9007 0.4345 0.0028
vn 0.9019 0.4320 -0.0006
vn 0.8997 0.4365 -0.0021
vn 0.1535 0.9871 0.0454
vn 0.1519 0.9879 0.0325
vn 0.1440 0.9894 0.0186
vn 0.0908 0.9956 0.0233
vn 0.0896 0.9957 0.0230
vn 0.0891 0.9958 0.0230
vn 0.1411 0.9900 -0.0037
vn 0.1413 0.9900 -0.0038
vn 0.1415 0.9899 -0.0041
vn -0.1944 0.6238 0.7570
vn -0.1938 0.6252 0.7560
vn -0.1955 0.6254 0.7554
vn -0.2300 0.7736 0.5905
vn -0.2304 0.7738 0.5900
vn -0.2308 0.7740 0.5896
vn -0.1069 0.7732 0.6251
vn -0.1072 0.7736 0.6246
vn -0.1077 0.7737 0.6243
vn -0.0792 0.6601 0.7470
vn -0.0798 0.6613 0.7459
vn -0.0791 0.6608 0.7463
vn 0.0033 0.9593 0.2824
vn 0.0056 0.9590 0.2832
vn -0.0004 0.9644 0.2646
vn 0.0036 0.9635 0.2677
vn 0.0082 0.9640 0.2658
vn 0.1673 0.9732 -0.1581
vn 0.1667 0.9734 -0.1573
vn 0.1666 0.9734 -0.1573
vn 0.1010 0.9863 -0.1304
vn 0.1010 0.9864 -0.1300
vn 0.1012 0.9864 -0.1294
vn 0.1003 0.9667 -0.2355
vn 0.1002 0.9668 -0.2351
vn 0.1011 0.9669 -0.2343
vn -0.9940 0.1026 0.0367
vn -0.9941 0.1016 0.0373
vn 0.0237 0.9994 0.0247
vn 0.0233 0.9994 0.0247
vn 0.0650 0.9941 0.0866
vn 0.0633 0.9943 0.0855
vn 0.0618 0.9943 0.0870
vn 0.0445 0.9981 0.0428
vn 0.0437 0.9981 0.0430
vn 0.0457 0.9980 0.0432
vn 0.0967 0.9953 -0.0067
vn 0.0966 0.9953 -0.0054
vn 0.0976 0.9952 -0.0049
vn 0.0226 0.9997 -0.0004
vn 0.0227 0.9997 -0.0002
vn 0.0228 0.9997 -0.0002
vn 0.9979 -0.0413 -0.0490
vn 0.9980 -0.0404 -0.0478
vn 0.9980 -0.0412 -0.0472
vn -0.1593 0.7757 0.6107
vn -0.1598 0.7756 0.6107
vn -0.1598 0.7757 0.6106
vn 0.0379 0.9969 0.0682
vn 0.0390 0.9969 0.0684
vn 0.0390 0.9969 0.0686
vn 0.0890 0.9875 -0.1301
vn 0.0902 0.9873 -0.1309
vn 0.0903 0.9873 -0.1311
vn 0.1465 0.9808 -0.1287
vn 0.1468 0.9807 -0.1292
vn 0.1469 0.9806 -0.1296
vn 0.0904 0.9864 -0.1372
vn 0.0918 0.9861 -0.1384
vn 0.0918 0.9862 -0.1380
vn -0.3160 0.6741 -0.6676
vn -0.3165 0.6735 -0.6680
vn -0.3173 0.6739 -0.6673
vn -0.4367 0.6237 -0.6482
vn -0.4367 0.6238 -0.6482
vn -0.4370 0.6236 -0.6482
vn -0.4720 0.3373 -0.8145
vn -0.4725 0.3367 -0.8145
vn -0.4727 0.3367 -0.8144
vn 0.1017 0.9919 -0.0759
vn 0.1037 0.9915 -0.0785
vn 0.1034 0.9913 -0.0811
vn 0.0765 0.9968 -0.0230
vn 0.0778 0.9967 -0.0250
vn 0.0778 0.9966 -0.0251
vn 0.0336 0.9991 -0.0240
vn 0.0383 0.9989 -0.0269
vn 0.0320 0.9992 -0.0242
vn 0.1176 0.9929 0.0146
vn 0.1178 0.9929 0.0144
vn 0.1178 0.9929 0.0141
vn 0.2534 0.9671 0.0243
vn 0.2538 0.9670 0.0239
vn 0.2534 0.9671 0.0236
vn 0.1305 0.9889 0.0707
vn 0.1304 0.9889 0.0706
vn 0.0982 0.9944 0.0388
vn 0.0984 0.9944 0.0385
vn 0.0982 0.9944 0.0382
vn 0.0699 0.9964 -0.0478
vn 0.0700 0.9964 -0.0477
vn 0.0705 0.9964 -0.0478
vn -0.0263 0.9991 -0.0336
vn -0.0260 0.9991 -0.0337
vn -0.0250 0.9991 -0.0343
vn 0.0323 0.9749 -0.2202
vn 0.0325 0.9749 -0.2202
vn 0.0326 0.9746 -0.2217
vn -0.3053 0.8738 -0.3786
vn -0.3053 0.8737 -0.3788
vn -0.3052 0.8736 -0.3791
vn -0.2011 0.9796 0.0010
vn -0.2011 0.9796 -0.0010
vn -0.2011 0.9796 0.0011
vn 0.0981 0.9951 0.0133
vn 0.0980 0.9951 0.0135
vn 0.0978 0.9951 0.0137
vn 0.0987 0.9951 0.0110
vn 0.0976 0.9952 0.0118
vn 0.0983 0.9951 0.0144
vn 0.1690 0.9848 0.0411
vn 0.1705 0.9845 0.0412
vn 0.1707 0.9846 0.0385
vn 0.1110 0.9911 0.0740
vn 0.1112 0.9910 0.0740
vn 0.1118 0.9910 0.0736
vn 0.1568 0.9876 0.0036
vn 0.1596 0.9872 0.0041
vn 0.1601 0.9871 0.0034
vn 0.1665 0.9856 0.0293
vn 0.1210 0.9923 0.0245
vn 0.0762 0.9886 -0.1300
vn 0.0739 0.9888 -0.1299
vn 0.0733 0.9889 -0.1295
vn 0.1578 0.9834 -0.0898
vn 0.1575 0.9834 -0.0896
vn 0.1573 0.9835 -0.0893
vn 0.6347 0.7679 -0.0861
vn 0.6328 0.7693 -0.0876
vn 0.6333 0.7689 -0.0879
vn 0.1486 0.9887 0.0193
vn 0.1463 0.9890 0.0194
vn 0.1462 0.9891 0.0194
vn 0.1343 0.9893 -0.0572
vn 0.1351 0.9891 -0.0584
vn 0.1351 0.9891 -0.0585
vn 0.1886 0.9748 -0.1195
vn 0.1887 0.9747 -0.1200
vn 0.1882 0.9747 -0.1208
vn 0.1303 0.9901 -0.0524
vn 0.1303 0.9901 -0.0528
vn 0.1290 0.9902 -0.0539
vn -0.1205 0.8903 0.4392
vn -0.1207 0.8902 0.4393
vn -0.1207 0.8901 0.4396
vn -0.1776 0.8805 0.4395
vn -0.1776 0.8805 0.4396
vn -0.1777 0.8804 0.4396
vn -0.1521 0.9141 0.3759
vn -0.1523 0.9140 0.3761
vn -0.1515 0.9139 0.3767
vn -0.0170 0.9504 0.3104
vn -0.0172 0.9503 0.3108
vn -0.1436 0.9171 0.3719
vn -0.1437 0.9170 0.3720
vn -0.1428 0.9169 0.3727
vn 0.0937 0.9931 0.0706
vn 0.0930 0.9932 0.0702
vn 0.0927 0.9932 0.0702
vn 0.0543 0.9979 -0.0346
vn 0.0533 0.9979 -0.0358
vn 0.0525 0.9980 -0.0358
vn 0.0578 0.9962 -0.0646
vn 0.0576 0.9962 -0.0650
vn 0.0557 0.9963 -0.0654
vn 0.0931 0.9932 0.0702
vn 0.0936 0.9931 0.0705
vn 0.0929 0.9932 0.0701
vn 0.1024 0.9909 0.0878
vn 0.1022 0.9909 0.0875
vn 0.1001 0.9911 0.0875
vn 0.0972 0.9953 0.0047
vn 0.0939 0.9955 0.0146
vn 0.1022 0.9945 0.0242
vn 0.0144 0.9994 0.0305
vn 0.0134 0.9994 0.0307
vn 0.0128 0.9994 0.0312
vn 0.0410 0.9987 0.0287
vn 0.0390 0.9988 0.0288
vn 0.0384 0.9988 0.0291
vn -0.2206 0.9021 -0.3709
vn -0.2211 0.9027 -0.3692
vn -0.2203 0.9030 -0.3688
vn -0.1763 0.9043 -0.3888
vn -0.1761 0.9045 -0.3885
vn -0.5953 -0.0333 0.8028
vn -0.5929 -0.0359 0.8045
vn -0.5913 -0.0348 0.8057
vn -0.0875 0.8766 0.4731
vn -0.0862 0.8764 0.4739
vn -0.0854 0.8764 0.4739
vn 0.9756 0.1311 0.1763
vn 0.9751 0.1321 0.1781
vn 0.9747 0.1317 0.1805
vn 0.9760 0.1302 0.1744
vn 0.9758 0.1305 0.1753
vn 0.9754 0.1300 0.1779
vn 0.0013 1.0000 -0.0041
vn -0.0045 1.0000 -0.0017
vn 0.0028 1.0000 -0.0035
vn 0.1343 -0.9909 -0.0000
vn 0.9915 -0.0000 0.1299
vn 0.1343 0.9909 -0.0000
vn 0.5880 0.0002 -0.8088
vn 0.5880 -0.0000 -0.8088
vn 0.5880 -0.0003 -0.8089
vn 0.5937 -0.0328 -0.8040
vn 0.5942 -0.0337 -0.8036
vn 0.5942 -0.0338 -0.8036
vn 0.5925 0.0198 -0.8053
vn 0.5945 0.0195 -0.8039
vn 0.5944 0.0191 -0.8039
vn 0.5944 -0.0191 -0.8039
vn 0.5945 -0.0195 -0.8039
vn 0.5925 -0.0198 -0.8053
vn 0.5920 0.0061 -0.8059
vn 0.5920 0.0056 -0.8059
vn 0.5920 0.0065 -0.8059
vn 0.5904 -0.0033 -0.8071
vn 0.5908 -0.0042 -0.8068
vn 0.5908 -0.0043 -0.8068
vn 0.8165 -0.2019 -0.5409
vn 0.8240 -0.1941 -0.5324
vn 0.8240 -0.1941 -0.5323
vn 0.8153 -0.2027 -0.5425
vn 0.8200 -0.2004 -0.5361
vn 0.8204 -0.2005 -0.5355
vn 0.8798 -0.0142 -0.4752
vn 0.8787 -0.0139 -0.4771
vn 0.8788 -0.0136 -0.4770
vn 0.8788 0.0136 -0.4770
vn 0.8787 0.0139 -0.4771
vn 0.8798 0.0142 -0.4752
vn 0.8841 -0.0001 -0.4673
vn 0.8841 -0.0000 -0.4673
vn 0.8842 0.0004 -0.4672
vn 0.8857 0.0301 -0.4633
vn 0.8855 0.0309 -0.4636
vn 0.8855 0.0312 -0.4636
vn 0.8204 0.2005 -0.5355
vn 0.8200 0.2004 -0.5361
vn 0.8153 0.2027 -0.5425
vn 0.8240 0.1941 -0.5323
vn 0.8240 0.1941 -0.5324
vn 0.8165 0.2019 -0.5409
vn 0.8907 -0.3482 -0.2923
vn 0.8890 -0.3504 -0.2946
vn 0.8892 -0.3481 -0.2969
vn 0.9449 -0.1479 -0.2921
vn 0.9449 -0.1478 -0.2921
vn 0.9386 -0.1841 -0.2917
vn 0.9374 -0.1864 -0.2942
vn 0.9372 -0.1862 -0.2949
vn 0.9359 -0.0000 -0.3523
vn 0.9359 -0.0005 -0.3524
vn 0.9361 -0.0094 -0.3517
vn 0.9362 -0.0101 -0.3513
vn 0.9362 -0.0105 -0.3514
vn 0.8892 0.3481 -0.2969
vn 0.8890 0.3505 -0.2946
vn 0.8907 0.3482 -0.2923
vn 0.9455 0.1460 -0.2912
vn 0.9458 0.1475 -0.2892
vn 0.9460 0.1475 -0.2887
vn 0.9372 0.1862 -0.2949
vn 0.9374 0.1864 -0.2942
vn 0.9386 0.1841 -0.2917
vn 0.9912 -0.1278 0.0340
vn 0.9912 -0.1277 0.0334
vn 0.9913 -0.1274 0.0326
vn 0.9719 -0.1341 -0.1935
vn 0.9714 -0.1349 -0.1954
vn 0.9713 -0.1345 -0.1962
vn 0.9741 -0.1190 -0.1922
vn 0.9740 -0.1190 -0.1929
vn 0.9739 -0.1189 -0.1931
vn 0.9881 -0.1480 -0.0409
vn 0.9885 -0.1463 -0.0386
vn 0.9882 -0.1486 -0.0366
vn 0.9910 -0.1280 -0.0399
vn 0.9910 -0.1280 -0.0395
vn 0.9909 -0.1294 -0.0377
vn 0.9908 -0.1267 -0.0478
vn 0.9908 -0.1267 -0.0476
vn 0.9907 -0.1279 -0.0458
vn 0.9973 -0.0011 -0.0728
vn 0.9973 -0.0000 -0.0738
vn 0.9973 0.0011 -0.0730
vn 0.9971 0.0154 -0.0752
vn 0.9970 0.0155 -0.0752
vn 0.9970 0.0158 -0.0752
vn 0.9864 -0.0229 -0.1626
vn 0.9864 -0.0230 -0.1626
vn 0.9864 -0.0234 -0.1626
vn 0.9864 0.0234 -0.1626
vn 0.9864 0.0230 -0.1626
vn 0.9864 0.0229 -0.1626
vn 0.9874 0.0011 -0.1584
vn 0.9876 -0.0000 -0.1568
vn 0.9875 -0.0011 -0.1575
vn 0.9876 -0.0034 -0.1571
vn 0.9876 -0.0039 -0.1572
vn 0.9876 -0.0037 -0.1571
vn 0.9781 0.0363 -0.2050
vn 0.9783 0.0380 -0.2036
vn 0.9784 0.0381 -0.2031
vn 0.9709 0.1352 -0.1977
vn 0.9709 0.1352 -0.1976
vn 0.9975 -0.0000 0.0711
vn 0.9910 0.1310 0.0285
vn 0.9909 0.1314 0.0294
vn 0.9910 0.1301 0.0321
vn 0.9907 0.1279 -0.0458
vn 0.9908 0.1267 -0.0476
vn 0.9908 0.1267 -0.0478
vn 0.9909 0.1294 -0.0377
vn 0.9910 0.1280 -0.0395
vn 0.9910 0.1280 -0.0399
vn 0.9882 0.1486 -0.0366
vn 0.9885 0.1463 -0.0386
vn 0.9881 0.1480 -0.0409
vn 0.0027 -1.0000 -0.0035
vn -0.0045 -1.0000 -0.0017
vn 0.0013 -1.0000 -0.0041
vn 0.9754 -0.1300 0.1779
vn 0.9758 -0.1305 0.1753
vn 0.9760 -0.1301 0.1744
vn 0.9747 -0.1317 0.1805
vn 0.9751 -0.1321 0.1781
vn 0.9756 -0.1311 0.1763
vn 0.8954 -0.1043 0.4328
vn 0.8934 -0.0999 0.4381
vn 0.9321 -0.1706 0.3196
vn 0.9319 -0.1708 0.3200
vn 0.9317 -0.1719 0.3199
vn 0.9605 -0.0871 0.2642
vn 0.9606 -0.0880 0.2636
vn 0.9607 -0.0882 0.2633
vn 0.9607 0.0882 0.2633
vn 0.9606 0.0880 0.2636
vn 0.9605 0.0871 0.2642
vn 0.9295 0.1730 0.3256
vn 0.9296 0.1729 0.3255
vt 0.000000 0.000000
vt 0.205679 0.337164
vt 0.218439 0.323711
vt 0.213773 0.331608
vt 0.198373 0.354618
vt 0.199440 0.353288
vt 0.218875 0.322711
vt 0.216142 0.321917
vt 0.222232 0.313467
vt 0.176584 0.316819
vt 0.187583 0.299419
vt 0.195394 0.352724
vt 0.227229 0.248669
vt 0.235999 0.269550
vt 0.233462 0.277141
vt 0.232240 0.281949
vt 0.207796 0.270963
vt 0.224924 0.306320
vt 0.224574 0.307215
vt 0.158985 0.304286
vt 0.165265 0.294211
vt 0.146200 0.323650
vt 0.150327 0.318242
vt 0.191537 0.236540
vt 0.200559 0.223150
vt 0.216147 0.260130
vt 0.182766 0.248438
vt 0.198052 0.283768
vt 0.169890 0.284776
vt 0.170708 0.282865
vt 0.123225 0.394038
vt 0.160583 0.400125
vt 0.159907 0.401440
vt 0.184983 0.367928
vt 0.197468 0.355739
vt 0.179822 0.376246
vt 0.186702 0.368857
vt 0.164941 0.334733
vt 0.152617 0.352926
vt 0.174873 0.380901
vt 0.164315 0.391194
vt 0.143767 0.368729
vt 0.174110 0.381593
vt 0.103893 0.375160
vt 0.134842 0.382686
vt 0.134297 0.339081
vt 0.131509 0.342375
vt 0.114471 0.358157
vt 0.114781 0.357876
vt 0.113192 0.359332
vt 0.229060 0.294927
vt 0.225325 0.305285
vt 0.178026 0.261641
vt 0.179220 0.202725
vt 0.181279 0.213774
vt 0.182776 0.235943
vt 0.182696 0.234029
vt 0.180788 0.247928
vt 0.181072 0.246684
vt 0.111178 0.361170
vt 0.100750 0.368836
vt 0.092069 0.391153
vt 0.069051 0.386927
vt 0.089118 0.376615
vt 0.174967 0.200200
vt 0.175741 0.202221
vt 0.299899 0.234339
vt 0.315674 0.227120
vt 0.302219 0.236328
vt 0.329738 0.212234
vt 0.330551 0.216191
vt 0.316997 0.226168
vt 0.300814 0.237033
vt 0.291730 0.240798
vt 0.293040 0.195068
vt 0.314660 0.223206
vt 0.238187 0.237091
vt 0.250287 0.256076
vt 0.248477 0.256504
vt 0.248638 0.228272
vt 0.260696 0.252199
vt 0.255947 0.253632
vt 0.260994 0.217974
vt 0.285590 0.243417
vt 0.276157 0.206826
vt 0.265293 0.187620
vt 0.269966 0.184777
vt 0.293287 0.168795
vt 0.310402 0.182642
vt 0.279744 0.178061
vt 0.213539 0.213551
vt 0.225038 0.204269
vt 0.241646 0.197603
vt 0.255534 0.192041
vt 0.368196 0.178385
vt 0.356890 0.150426
vt 0.376773 0.174566
vt 0.345459 0.202824
vt 0.332843 0.214170
vt 0.352526 0.195615
vt 0.344453 0.201149
vt 0.343374 0.159969
vt 0.353651 0.194480
vt 0.357606 0.189667
vt 0.366745 0.179446
vt 0.347983 0.119910
vt 0.367675 0.138317
vt 0.316528 0.148933
vt 0.313366 0.151863
vt 0.316528 0.148932
vt 0.318862 0.146415
vt 0.332620 0.129897
vt 0.283696 0.244253
vt 0.273518 0.248446
vt 0.238014 0.198957
vt 0.190350 0.204301
vt 0.212560 0.204827
vt 0.217228 0.204096
vt 0.224442 0.202316
vt 0.228763 0.201182
vt 0.341539 0.117062
vt 0.334363 0.127806
vt 0.348772 0.105120
vt 0.363389 0.107406
vt 0.345036 0.110716
vt 0.176513 0.198586
vt 0.182436 0.200797
vt 0.209635 0.338001
vt 0.208744 0.339366
vt 0.218233 0.324146
vt 0.199384 0.353358
vt 0.218439 0.323710
vt 0.238404 0.259359
vt 0.237990 0.262427
vt 0.235651 0.271377
vt 0.230190 0.289942
vt 0.167899 0.289413
vt 0.169891 0.284776
vt 0.162645 0.298375
vt 0.150884 0.317363
vt 0.171886 0.279461
vt 0.176833 0.265330
vt 0.163322 0.392693
vt 0.188049 0.367352
vt 0.178739 0.377422
vt 0.168682 0.387165
vt 0.131540 0.342343
vt 0.129096 0.344823
vt 0.131509 0.342374
vt 0.225477 0.304928
vt 0.179844 0.252297
vt 0.179916 0.210034
vt 0.177433 0.206022
vt 0.182061 0.226748
vt 0.181765 0.219069
vt 0.182546 0.230186
vt 0.182250 0.240641
vt 0.094553 0.372621
vt 0.094554 0.372621
vt 0.171445 0.195280
vt 0.301793 0.236553
vt 0.309473 0.231539
vt 0.331764 0.215125
vt 0.330484 0.216250
vt 0.241451 0.258809
vt 0.268589 0.249796
vt 0.284712 0.243807
vt 0.274006 0.181977
vt 0.260753 0.189814
vt 0.298500 0.164434
vt 0.292434 0.169390
vt 0.258881 0.190714
vt 0.375491 0.175302
vt 0.344017 0.204238
vt 0.328007 0.169520
vt 0.356951 0.190461
vt 0.362921 0.183991
vt 0.316498 0.148965
vt 0.331240 0.131547
vt 0.331507 0.131225
vt 0.283347 0.244421
vt 0.195661 0.204555
vt 0.203344 0.204516
vt 0.186554 0.203103
vt 0.223212 0.202654
vt 0.206800 0.204849
vt 0.210644 0.204831
vt 0.358145 0.084667
vt 0.178566 0.199271
s 0
usemtl blinn1SG.014
f 4/1/1 130/1/2 128/1/3
f 4/1/4 5/1/4 1/1/4
f 133/1/5 131/1/5 132/1/5
f 6/1/6 135/1/6 137/1/7
f 6/1/8 140/1/9 133/1/9
f 142/1/10 144/1/11 139/1/12
f 147/1/13 146/1/13 9/1/13
f 150/1/14 149/1/14 5/1/14
f 156/1/15 154/1/16 9/1/17
f 6/1/18 158/1/19 9/1/20
f 10/1/21 146/1/22 161/1/23
f 10/1/24 11/1/24 9/1/24
f 6/1/25 9/1/25 11/1/25
f 6/1/26 162/1/27 142/1/26
f 10/1/28 5/1/28 4/1/28
f 10/1/29 167/1/30 163/1/31
f 165/1/32 170/1/33 11/1/33
f 171/1/34 11/1/34 169/1/34
f 11/1/35 174/1/36 173/1/37
f 5/1/38 178/1/39 179/1/40
f 180/1/41 181/1/42 183/1/43
f 5/1/44 184/1/45 186/1/46
f 187/1/47 4/1/48 188/1/49
f 127/1/50 191/1/51 189/1/52
f 1/1/53 192/1/54 193/1/55
f 193/1/56 130/1/56 1/1/56
f 14/2/57 175/3/58 169/4/59
f 164/5/60 14/2/61 165/6/62
f 174/7/63 13/8/64 176/9/65
f 13/8/66 17/10/67 16/11/68
f 15/12/69 17/10/70 14/2/71
f 20/13/72 140/14/73 145/15/74
f 144/16/75 31/17/76 145/15/77
f 16/11/78 173/18/79 177/19/80
f 16/11/81 51/20/82 52/21/83
f 17/10/84 56/22/85 55/23/86
f 20/13/87 22/24/88 23/25/89
f 19/26/90 32/27/91 22/24/92
f 21/28/93 53/29/94 59/30/95
f 25/31/96 130/32/97 193/33/98
f 24/34/99 164/5/100 167/35/101
f 188/36/102 24/34/102 187/37/102
f 18/38/103 24/34/104 27/39/105
f 188/36/106 191/40/107 27/39/106
f 128/41/108 28/42/109 190/43/110
f 25/31/111 29/44/112 26/45/113
f 61/46/114 18/38/115 63/47/116
f 27/39/117 65/48/118 64/49/119
f 28/42/120 29/44/121 67/50/120
f 31/17/122 142/51/123 172/52/124
f 68/53/125 32/27/126 21/28/127
f 33/54/128 22/24/129 71/55/130
f 22/24/131 77/56/132 75/57/133
f 32/27/134 80/58/135 79/59/136
f 83/60/137 29/44/138 82/61/139
f 30/62/140 84/63/141 86/64/142
f 88/65/143 33/54/144 87/66/145
f 35/67/146 161/68/147 147/69/148
f 36/70/149 150/71/150 160/72/151
f 35/67/152 154/73/153 155/74/154
f 35/67/155 37/75/156 34/76/155
f 37/75/157 36/70/158 34/76/159
f 40/77/160 134/78/161 141/79/162
f 41/80/163 138/81/164 135/82/165
f 42/83/166 35/67/167 156/84/168
f 38/85/169 93/86/170 91/87/171
f 96/88/172 39/89/173 94/90/174
f 43/91/175 20/13/176 23/25/177
f 40/77/178 44/92/179 41/80/180
f 38/85/181 99/93/182 98/94/183
f 185/95/184 45/96/185 192/97/186
f 36/70/187 178/98/188 149/99/189
f 179/100/190 178/98/190 46/101/190
f 39/89/191 46/101/192 36/70/193
f 46/101/194 48/102/195 180/103/195
f 181/104/196 48/102/197 184/105/198
f 49/106/199 25/107/200 45/96/201
f 103/108/202 39/89/203 101/109/204
f 48/102/205 103/110/206 104/111/207
f 107/112/208 45/96/208 48/102/208
f 42/83/209 159/113/210 136/114/211
f 42/83/212 44/92/213 108/115/214
f 43/91/215 33/54/216 112/116/217
f 43/91/218 115/117/219 116/118/220
f 44/92/221 120/119/222 109/120/223
f 122/121/224 49/106/225 123/122/226
f 124/123/227 30/124/228 121/125/229
f 126/126/230 114/127/231 33/54/232
f 67/1/233 2/1/234 64/1/235
f 66/1/236 104/1/236 102/1/236
f 126/1/237 89/1/237 88/1/237
f 112/1/238 113/1/238 8/1/238
f 88/1/239 8/1/240 114/1/241
f 8/1/242 72/1/242 71/1/242
f 110/1/243 8/1/244 111/1/245
f 8/1/246 75/1/247 115/1/246
f 8/1/248 70/1/249 74/1/250
f 116/1/251 108/1/252 109/1/253
f 77/1/254 7/1/255 116/1/256
f 69/1/257 7/1/258 78/1/259
f 12/1/260 97/1/261 96/1/262
f 99/1/263 7/1/264 98/1/265
f 95/1/266 90/1/267 12/1/268
f 54/1/269 12/1/270 91/1/271
f 7/1/272 53/1/273 93/1/274
f 59/1/275 68/1/276 60/1/277
f 101/1/278 61/1/278 62/1/278
f 12/1/279 56/1/280 61/1/281
f 57/1/282 12/1/283 50/1/284
f 107/1/285 105/1/286 2/1/287
f 124/1/288 84/1/54 85/1/289
f 3/1/290 121/1/291 122/1/290
f 122/1/292 2/1/293 3/1/294
f 2/1/295 82/1/296 3/1/297
f 84/1/298 3/1/298 86/1/298
f 3/1/299 81/1/300 86/1/301
f 128/1/302 127/1/303 4/1/304
f 4/1/305 1/1/306 130/1/307
f 130/1/308 129/1/309 128/1/310
f 137/1/311 136/1/312 6/1/313
f 6/1/314 134/1/315 135/1/316
f 135/1/317 138/1/318 137/1/319
f 141/1/320 134/1/321 6/1/322
f 6/1/323 139/1/324 140/1/325
f 140/1/326 131/1/327 133/1/328
f 133/1/329 141/1/330 6/1/331
f 139/1/332 6/1/333 142/1/334
f 142/1/335 143/1/336 144/1/337
f 144/1/338 145/1/339 139/1/339
f 10/1/340 152/1/340 150/1/340
f 150/1/341 151/1/341 149/1/341
f 149/1/342 148/1/342 5/1/342
f 5/1/343 10/1/343 150/1/343
f 9/1/344 158/1/345 159/1/346
f 159/1/347 157/1/348 156/1/349
f 156/1/350 155/1/351 154/1/352
f 154/1/353 153/1/354 147/1/355
f 9/1/356 159/1/357 156/1/358
f 154/1/359 147/1/360 9/1/361
f 6/1/362 136/1/362 158/1/363
f 160/1/364 152/1/365 10/1/366
f 10/1/367 9/1/368 146/1/369
f 161/1/370 160/1/371 10/1/372
f 6/1/373 11/1/374 162/1/375
f 163/1/376 165/1/377 10/1/378
f 10/1/379 4/1/380 166/1/381
f 167/1/382 164/1/383 163/1/384
f 10/1/385 166/1/386 167/1/387
f 11/1/388 10/1/388 165/1/389
f 165/1/390 168/1/391 170/1/392
f 170/1/393 169/1/394 11/1/395
f 172/1/396 162/1/397 11/1/398
f 11/1/399 171/1/400 175/1/401
f 174/1/402 176/1/403 177/1/404
f 11/1/405 175/1/406 174/1/407
f 173/1/408 172/1/409 11/1/410
f 174/1/411 177/1/412 173/1/413
f 179/1/414 180/1/415 5/1/416
f 5/1/417 148/1/418 178/1/419
f 183/1/420 5/1/421 180/1/422
f 180/1/423 182/1/424 181/1/425
f 186/1/426 1/1/427 5/1/428
f 5/1/429 183/1/430 184/1/431
f 184/1/432 185/1/433 186/1/434
f 187/1/435 166/1/436 4/1/437
f 4/1/438 189/1/439 188/1/440
f 189/1/441 4/1/442 127/1/443
f 127/1/444 190/1/445 191/1/446
f 1/1/447 186/1/447 192/1/448
f 170/128/449 168/129/450 14/2/451
f 14/2/452 13/8/453 175/3/454
f 175/3/455 171/130/456 169/4/457
f 169/4/458 170/128/459 14/2/460
f 165/6/461 163/131/462 164/5/463
f 164/5/464 15/12/465 14/2/466
f 14/2/467 168/129/468 165/6/469
f 174/7/470 175/132/471 13/8/472
f 13/8/473 14/2/473 17/10/474
f 15/12/475 18/38/476 17/10/477
f 145/15/478 19/26/479 20/13/480
f 20/13/481 132/133/482 131/134/483
f 140/14/484 139/135/485 145/15/486
f 20/13/487 131/134/488 140/14/489
f 144/16/490 143/136/491 31/17/492
f 31/17/493 19/26/493 145/15/494
f 176/9/495 13/8/496 16/11/496
f 16/11/497 21/28/498 173/18/499
f 177/19/500 176/9/501 16/11/502
f 54/137/503 53/138/504 16/11/505
f 16/11/506 17/10/506 51/20/507
f 51/20/508 50/139/509 52/21/509
f 52/21/510 54/137/511 16/11/512
f 57/140/513 51/20/514 17/10/515
f 17/10/516 18/38/517 56/22/518
f 55/23/519 57/140/520 17/10/521
f 20/13/522 19/26/523 22/24/524
f 19/26/525 31/17/526 32/27/527
f 58/141/528 60/142/529 21/28/530
f 21/28/531 16/11/532 53/29/533
f 59/30/534 58/141/535 21/28/536
f 25/31/537 26/45/538 128/41/539
f 25/31/540 128/41/541 129/143/542
f 25/31/543 129/143/544 130/32/545
f 193/33/54 192/33/546 25/31/547
f 166/144/548 187/37/549 24/34/550
f 24/34/551 15/12/552 164/5/553
f 167/35/554 166/144/555 24/34/556
f 18/38/557 15/12/558 24/34/559
f 27/39/560 24/34/561 188/36/562
f 188/36/563 189/145/564 191/40/565
f 191/40/566 28/42/567 27/39/567
f 190/43/568 127/146/569 128/41/570
f 128/41/571 26/45/572 28/42/573
f 28/42/574 191/40/575 190/43/576
f 25/31/577 30/62/578 29/44/579
f 61/46/580 56/22/581 18/38/582
f 18/38/583 27/39/584 63/47/585
f 63/47/586 62/147/587 61/46/588
f 66/148/589 63/149/590 27/39/591
f 27/39/592 28/42/593 65/48/594
f 64/49/595 66/148/596 27/39/597
f 67/50/598 65/48/599 28/42/600
f 28/42/601 26/45/602 29/44/603
f 173/18/604 21/28/605 31/17/606
f 31/17/607 143/136/608 142/51/609
f 142/51/610 162/150/611 172/52/612
f 172/52/613 173/18/614 31/17/615
f 68/53/616 69/151/617 32/27/618
f 32/27/619 31/17/620 21/28/621
f 21/28/622 60/142/623 68/53/624
f 72/152/625 73/153/626 33/54/627
f 33/54/628 23/25/629 22/24/630
f 22/24/631 74/154/632 70/155/633
f 71/55/634 72/152/635 33/54/636
f 22/24/637 70/155/638 71/55/639
f 76/156/640 74/154/641 22/24/642
f 22/24/643 32/27/644 79/59/645
f 22/24/646 79/59/647 78/157/648
f 75/57/649 76/156/650 22/24/651
f 22/24/652 78/157/653 77/56/654
f 32/27/655 69/151/656 80/58/657
f 83/60/658 67/50/659 29/44/660
f 29/44/661 81/158/662 82/61/663
f 81/159/664 29/44/665 30/62/666
f 86/64/667 81/159/668 30/62/669
f 30/62/670 85/63/54 84/63/671
f 88/65/672 89/160/673 33/54/674
f 33/54/675 73/153/676 87/66/677
f 147/69/678 153/161/679 35/67/680
f 35/67/681 34/76/682 160/72/683
f 161/68/684 146/162/685 147/69/686
f 35/67/687 160/72/688 161/68/689
f 160/72/690 34/76/691 36/70/692
f 36/70/693 151/163/694 150/71/695
f 150/71/696 152/164/697 160/72/698
f 35/67/699 153/161/700 154/73/701
f 35/67/702 38/85/703 37/75/704
f 37/75/705 39/89/706 36/70/707
f 141/79/708 133/165/709 132/133/710
f 132/133/711 20/13/712 40/77/713
f 40/77/714 135/82/715 134/78/716
f 141/79/717 132/133/718 40/77/719
f 135/82/720 40/77/721 41/80/721
f 41/80/722 137/166/723 138/81/724
f 156/84/725 157/167/726 42/83/727
f 42/83/728 38/85/729 35/67/730
f 35/67/731 155/74/732 156/84/733
f 91/87/734 90/168/734 94/90/735
f 94/90/736 37/75/737 38/85/737
f 38/85/738 92/169/739 93/86/740
f 91/87/741 94/90/742 38/85/743
f 96/88/744 97/170/745 39/89/746
f 39/89/747 37/75/748 94/90/749
f 94/90/750 95/171/751 96/88/752
f 43/91/753 40/77/754 20/13/755
f 40/77/756 43/91/757 44/92/758
f 100/172/759 92/169/760 38/85/761
f 38/85/762 42/83/763 99/93/764
f 98/94/765 100/172/766 38/85/767
f 185/95/768 184/105/769 45/96/770
f 45/96/771 25/107/772 192/97/773
f 192/97/774 186/173/775 185/95/776
f 149/99/777 151/163/778 36/70/779
f 36/70/780 46/101/781 178/98/782
f 178/98/783 148/174/784 149/99/785
f 39/89/786 47/175/787 46/101/788
f 180/103/789 179/100/790 46/101/791
f 46/101/792 47/175/792 48/102/793
f 48/102/794 182/176/795 180/103/796
f 181/104/797 182/176/798 48/102/799
f 48/102/800 45/96/801 184/105/802
f 184/105/803 183/177/804 181/104/805
f 49/106/806 30/124/807 25/107/808
f 101/109/809 102/178/810 103/108/811
f 103/108/812 47/175/813 39/89/814
f 39/89/815 97/170/816 101/109/817
f 105/179/818 106/180/819 48/102/820
f 48/102/821 47/175/822 103/110/823
f 104/111/824 105/179/825 48/102/826
f 48/102/827 106/180/827 107/112/827
f 107/112/828 49/106/828 45/96/828
f 137/166/829 41/80/830 42/83/831
f 42/83/832 157/167/833 159/113/834
f 159/113/835 158/181/836 136/114/837
f 136/114/838 137/166/839 42/83/840
f 108/115/841 99/93/842 42/83/843
f 42/83/844 41/80/845 44/92/846
f 44/92/847 109/120/848 108/115/849
f 110/182/850 111/183/851 43/91/852
f 43/91/853 23/25/854 33/54/855
f 33/54/856 114/127/857 113/184/858
f 112/116/859 110/182/860 43/91/860
f 33/54/861 113/184/862 112/116/863
f 116/118/864 118/185/865 44/92/866
f 43/91/867 111/183/868 119/186/869
f 43/91/870 119/186/871 117/187/872
f 116/118/873 44/92/874 43/91/875
f 43/91/876 117/187/877 115/117/878
f 44/92/879 118/185/880 120/119/881
f 122/121/882 121/125/883 49/106/884
f 49/106/885 107/112/886 123/122/887
f 124/123/888 85/188/889 30/124/890
f 30/124/891 49/106/892 121/125/892
f 126/126/893 125/189/894 114/127/895
f 33/54/896 89/160/897 126/126/898
f 67/1/899 83/1/900 2/1/901
f 2/1/902 66/1/903 64/1/904
f 64/1/905 65/1/906 67/1/907
f 62/1/908 63/1/908 66/1/908
f 66/1/909 2/1/909 104/1/909
f 104/1/910 103/1/910 102/1/910
f 102/1/236 62/1/236 66/1/236
f 125/1/911 126/1/912 88/1/913
f 88/1/914 87/1/915 73/1/916
f 73/1/917 72/1/918 8/1/919
f 8/1/920 113/1/921 114/1/922
f 114/1/923 125/1/924 88/1/925
f 88/1/926 73/1/927 8/1/928
f 110/1/929 112/1/930 8/1/931
f 8/1/932 119/1/933 111/1/934
f 117/1/935 119/1/936 8/1/937
f 8/1/938 76/1/939 75/1/940
f 75/1/941 77/1/942 115/1/943
f 115/1/944 117/1/945 8/1/946
f 74/1/947 76/1/948 8/1/949
f 8/1/950 71/1/951 70/1/952
f 120/1/953 118/1/954 116/1/955
f 116/1/956 7/1/956 108/1/957
f 109/1/958 120/1/959 116/1/960
f 116/1/961 115/1/961 77/1/962
f 77/1/963 78/1/964 7/1/965
f 78/1/966 79/1/967 80/1/968
f 69/1/969 68/1/970 7/1/971
f 78/1/972 80/1/973 69/1/974
f 12/1/975 101/1/976 97/1/977
f 99/1/978 108/1/979 7/1/980
f 7/1/981 100/1/982 98/1/983
f 95/1/984 94/1/985 90/1/986
f 90/1/987 91/1/988 12/1/989
f 12/1/990 96/1/991 95/1/992
f 91/1/993 93/1/994 54/1/995
f 54/1/996 52/1/997 12/1/998
f 92/1/999 100/1/1000 7/1/1001
f 7/1/1002 59/1/1003 53/1/1004
f 53/1/1005 54/1/1006 93/1/1007
f 93/1/1008 92/1/1009 7/1/1010
f 60/1/1011 58/1/1012 59/1/1013
f 59/1/1014 7/1/1015 68/1/1015
f 62/1/278 102/1/278 101/1/278
f 101/1/1016 12/1/1016 61/1/1016
f 12/1/1017 55/1/1018 56/1/1019
f 57/1/1020 55/1/1021 12/1/1022
f 12/1/1023 52/1/1024 50/1/1025
f 50/1/1026 51/1/1027 57/1/1028
f 107/1/1029 106/1/1030 105/1/1031
f 105/1/1032 104/1/1033 2/1/1034
f 2/1/1035 123/1/1036 107/1/1037
f 124/1/1038 3/1/1038 84/1/1039
f 3/1/1040 124/1/1041 121/1/1042
f 122/1/1043 123/1/1044 2/1/1045
f 2/1/1046 83/1/1047 82/1/1048
f 3/1/1049 82/1/1049 81/1/1050
