# Blender 4.3.2
# www.blender.org
mtllib link_13.mtl
o link_13_visual
v 0.000080 0.000000 -0.000903
v 0.000028 -0.000149 -0.000507
v 0.000028 0.000149 -0.000507
v 0.000116 0.000000 0.001062
v -0.000704 0.000000 0.001062
v 0.000035 0.000164 0.000558
v -0.000008 0.000000 0.000000
v 0.000035 -0.000164 0.000558
v -0.000785 0.000164 0.000558
v -0.000828 0.000000 0.000000
v -0.000785 -0.000164 0.000558
v -0.000403 -0.000257 0.000536
v -0.000403 -0.000279 0.000276
v -0.000413 -0.000275 0.000017
v -0.000457 -0.000201 0.001138
v -0.000487 0.000000 0.001218
v -0.000412 -0.000257 0.000783
v 0.000043 -0.000201 0.001242
v 0.000020 0.000000 0.001390
v 0.000080 -0.000255 0.000833
v -0.000467 0.000000 -0.000645
v -0.000462 -0.000150 -0.000604
v 0.000054 0.000000 -0.000903
v 0.000025 -0.000171 -0.000812
v -0.000429 -0.000256 -0.000235
v -0.000447 -0.000234 -0.000457
v 0.000039 -0.000225 -0.000597
v -0.000431 -0.000248 0.000996
v 0.000070 -0.000245 0.001083
v -0.000403 0.000279 0.000276
v -0.000403 0.000257 0.000536
v -0.000413 0.000275 0.000017
v -0.000457 0.000201 0.001138
v -0.000431 0.000248 0.000996
v -0.000412 0.000257 0.000783
v 0.000043 0.000201 0.001242
v 0.000070 0.000245 0.001083
v 0.000080 0.000255 0.000833
v -0.000462 0.000150 -0.000604
v 0.000025 0.000171 -0.000812
v -0.000429 0.000256 -0.000235
v -0.000447 0.000234 -0.000457
v 0.000039 0.000225 -0.000597
v 0.000030 -0.000208 0.000294
v 0.000030 -0.000210 0.000269
v 0.000034 -0.000202 0.000415
v 0.000044 -0.000194 0.000560
v 0.000043 -0.000194 0.000553
v 0.000021 -0.000227 -0.000001
v 0.000022 -0.000226 -0.000027
v 0.000021 -0.000227 0.000000
v 0.000047 -0.000193 0.000578
v 0.000080 -0.000228 0.000722
v 0.000238 -0.000109 0.001390
v 0.000280 0.000000 0.001491
v 0.000264 -0.000030 0.001462
v 0.000215 -0.000186 0.001290
v 0.000230 -0.000125 0.001368
v 0.000196 -0.000207 0.001219
v 0.000164 -0.000240 0.001099
v 0.000102 -0.000250 0.000822
v 0.000105 -0.000252 0.000837
v 0.000084 -0.000023 -0.000914
v 0.000093 -0.000148 -0.000867
v 0.000085 0.000000 -0.000924
v 0.000085 0.000000 -0.000924
v 0.000091 -0.000171 -0.000843
v 0.000023 -0.000224 -0.000051
v 0.000030 -0.000217 -0.000295
v 0.000032 -0.000216 -0.000328
v 0.000046 -0.000221 -0.000494
v 0.000048 -0.000221 -0.000520
v 0.000061 -0.000223 -0.000605
v 0.000077 -0.000193 -0.000748
v 0.000064 -0.000222 -0.000622
v 0.000141 -0.000245 0.001023
v 0.000109 -0.000253 0.000860
v 0.000108 -0.000253 0.000854
v 0.000030 0.000208 0.000294
v 0.000034 0.000202 0.000415
v 0.000044 0.000194 0.000560
v 0.000043 0.000194 0.000553
v 0.000030 0.000210 0.000269
v 0.000021 0.000227 0.000000
v 0.000021 0.000227 -0.000001
v 0.000022 0.000226 -0.000027
v 0.000080 0.000228 0.000722
v 0.000047 0.000193 0.000578
v 0.000215 0.000186 0.001290
v 0.000230 0.000125 0.001368
v 0.000238 0.000109 0.001390
v 0.000264 0.000030 0.001462
v 0.000196 0.000207 0.001219
v 0.000164 0.000240 0.001099
v 0.000102 0.000250 0.000822
v 0.000105 0.000252 0.000837
v 0.000093 0.000148 -0.000867
v 0.000091 0.000171 -0.000843
v 0.000084 0.000023 -0.000914
v 0.000023 0.000224 -0.000051
v 0.000030 0.000217 -0.000295
v 0.000032 0.000216 -0.000328
v 0.000046 0.000221 -0.000494
v 0.000048 0.000221 -0.000520
v 0.000061 0.000223 -0.000605
v 0.000064 0.000222 -0.000622
v 0.000077 0.000193 -0.000748
v 0.000108 0.000253 0.000854
v 0.000141 0.000245 0.001023
v 0.000109 0.000253 0.000860
v -0.000789 -0.000088 -0.000531
v -0.000791 -0.000135 -0.000517
v -0.000792 -0.000140 -0.000507
v -0.000792 0.000140 -0.000507
v -0.000791 0.000135 -0.000517
v -0.000789 0.000088 -0.000531
v -0.000785 0.000000 -0.000563
v -0.000665 0.000043 0.001168
v -0.000666 0.000064 0.001155
v -0.000683 0.000205 0.001029
v -0.000663 0.000185 0.001103
v -0.000654 0.000000 0.001197
v -0.000665 -0.000043 0.001168
v -0.000683 -0.000205 0.001029
v -0.000663 -0.000185 0.001103
v -0.000666 -0.000064 0.001155
v -0.000765 0.000265 0.000459
v -0.000762 0.000259 0.000527
v -0.000761 0.000257 0.000542
v -0.000781 0.000270 0.000224
v -0.000786 0.000267 0.000170
v -0.000777 0.000271 0.000283
v -0.000792 0.000161 -0.000471
v -0.000793 0.000146 -0.000497
v -0.000790 0.000226 -0.000267
v -0.000795 0.000255 0.000000
v -0.000793 0.000239 -0.000125
v -0.000791 0.000235 -0.000185
v -0.000790 0.000229 -0.000244
v -0.000731 0.000236 0.000760
v -0.000745 0.000236 0.000680
v -0.000725 0.000235 0.000801
v -0.000683 0.000206 0.001026
v -0.000716 0.000235 0.000846
v -0.000694 0.000224 0.000963
v -0.000793 0.000260 0.000040
v -0.000725 -0.000235 0.000801
v -0.000716 -0.000235 0.000846
v -0.000694 -0.000224 0.000963
v -0.000683 -0.000206 0.001026
v -0.000793 -0.000146 -0.000497
v -0.000790 -0.000229 -0.000244
v -0.000791 -0.000235 -0.000185
v -0.000793 -0.000239 -0.000125
v -0.000795 -0.000255 0.000000
v -0.000792 -0.000161 -0.000471
v -0.000790 -0.000226 -0.000267
v -0.000786 -0.000267 0.000170
v -0.000793 -0.000260 0.000040
v -0.000781 -0.000270 0.000224
v -0.000777 -0.000271 0.000283
v -0.000761 -0.000257 0.000542
v -0.000762 -0.000259 0.000527
v -0.000765 -0.000265 0.000459
v -0.000731 -0.000236 0.000760
v -0.000745 -0.000236 0.000680
v -0.000786 0.000212 -0.000382
v -0.000786 -0.000212 -0.000382
vn -0.9902 -0.0022 -0.1396
vn -0.9902 -0.0025 -0.1399
vn -0.9473 0.1417 0.2872
vn -0.9472 0.1412 0.2878
vn -0.9472 0.1413 0.2877
vn -0.9380 0.0005 0.3467
vn -0.9380 -0.0005 0.3467
vn -0.9380 -0.0000 0.3467
vn -0.9472 -0.1413 0.2878
vn -0.9473 -0.1417 0.2873
vn -0.9630 0.2589 0.0749
vn -0.9632 0.2578 0.0760
vn -0.9631 0.2589 0.0732
vn -0.9938 0.1079 -0.0265
vn -0.9936 0.1095 -0.0268
vn -0.9936 0.1095 -0.0267
vn -0.9515 0.2662 0.1539
vn -0.9506 0.2685 0.1556
vn -0.9509 0.2681 0.1547
vn -0.9704 0.1392 0.1975
vn -0.9705 0.1406 0.1958
vn -0.9704 0.1392 0.1973
vn -0.9886 0.1446 0.0420
vn -0.9886 0.1445 0.0422
vn -0.9885 0.1449 0.0436
vn -0.9969 -0.0000 0.0780
vn -0.9876 -0.0000 0.1568
vn -0.9719 -0.1314 0.1955
vn -0.9714 -0.1322 0.1972
vn -0.9719 -0.1316 0.1952
vn -0.9975 -0.0000 -0.0704
vn -0.9975 -0.0004 -0.0705
vn -0.9975 0.0004 -0.0705
vn -0.9911 -0.1293 -0.0316
vn -0.9911 -0.1293 -0.0309
vn -0.9914 -0.1276 -0.0306
vn -0.9888 -0.1431 0.0432
vn -0.9889 -0.1427 0.0420
vn -0.9889 -0.1428 0.0417
vn -0.9626 -0.2610 0.0726
vn -0.9627 -0.2608 0.0719
vn -0.9627 -0.2601 0.0744
vn -0.9509 -0.2671 0.1565
vn -0.9518 -0.2648 0.1548
vn -0.9514 -0.2660 0.1550
vn -0.9637 0.2565 -0.0736
vn -0.9637 -0.2565 -0.0736
vn 0.0067 -0.9961 0.0874
vn 0.0061 -0.9962 0.0869
vn 0.0059 -0.9962 0.0868
vn -0.0159 -0.9985 -0.0526
vn -0.0155 -0.9985 -0.0532
vn -0.0163 -0.9985 -0.0525
vn -0.2591 -0.4967 0.8284
vn -0.2582 -0.4966 0.8287
vn -0.2585 -0.4965 0.8287
vn -0.1231 -0.9488 0.2908
vn -0.1238 -0.9488 0.2906
vn 0.0015 -0.9953 0.0967
vn 0.0005 -0.9954 0.0962
vn 0.0020 -0.9953 0.0966
vn 0.1358 -0.9897 0.0448
vn 0.1364 -0.9896 0.0451
vn 0.1358 -0.9897 0.0443
vn 0.0988 -0.9945 -0.0351
vn -0.1636 -0.5980 0.7846
vn -0.1643 -0.5978 0.7847
vn -0.1637 -0.5980 0.7846
vn -0.0637 -0.9501 0.3053
vn -0.0623 -0.9502 0.3053
vn 0.1586 -0.9547 -0.2519
vn 0.1584 -0.9546 -0.2525
vn 0.1590 -0.9546 -0.2519
vn -0.3524 -0.7039 0.6167
vn -0.3525 -0.7040 0.6165
vn -0.3536 -0.7043 0.6156
vn 0.0025 -0.9636 0.2674
vn 0.0026 -0.9636 0.2674
vn -0.0015 -0.9643 0.2647
vn 0.1507 -0.9769 -0.1518
vn 0.1491 -0.9762 -0.1577
vn 0.1512 -0.9768 -0.1518
vn -0.2611 -0.2646 -0.9283
vn -0.2560 -0.2671 -0.9290
vn -0.2571 -0.2672 -0.9287
vn -0.3894 -0.2552 -0.8850
vn -0.3891 -0.2553 -0.8851
vn -0.3893 -0.2552 -0.8850
vn -0.5272 -0.3228 -0.7860
vn -0.5307 -0.3223 -0.7838
vn -0.5291 -0.3241 -0.7843
vn -0.0463 -0.9928 -0.1102
vn -0.0492 -0.9928 -0.1094
vn -0.0471 -0.9928 -0.1103
vn -0.0698 -0.9898 -0.1243
vn -0.0704 -0.9896 -0.1252
vn -0.0702 -0.9897 -0.1251
vn -0.1611 -0.8586 -0.4867
vn -0.1605 -0.8585 -0.4870
vn -0.1600 -0.8581 -0.4880
vn 0.0799 -0.9963 -0.0323
vn 0.0793 -0.9963 -0.0316
vn 0.0794 -0.9964 -0.0307
vn 0.0276 -0.9991 0.0333
vn 0.0271 -0.9991 0.0340
vn 0.0275 -0.9991 0.0335
vn -0.1238 -0.8664 -0.4838
vn -0.1244 -0.8668 -0.4829
vn -0.1239 -0.8665 -0.4836
vn 0.2063 -0.9785 0.0050
vn 0.1986 -0.9798 0.0234
vn 0.1992 -0.9798 0.0194
vn -0.1416 -0.9653 -0.2196
vn -0.1431 -0.9654 -0.2182
vn -0.1429 -0.9656 -0.2172
vn -0.0570 -0.9981 0.0219
vn 0.0010 -0.9992 0.0388
vn -0.0020 -0.9993 0.0382
vn -0.0014 -0.9993 0.0380
vn -0.2162 -0.9763 -0.0119
vn -0.2123 -0.9771 -0.0110
vn -0.2085 -0.9780 -0.0053
vn 0.0061 0.9962 0.0869
vn 0.0067 0.9961 0.0875
vn 0.0059 0.9962 0.0869
vn -0.0159 0.9985 -0.0526
vn -0.0163 0.9985 -0.0525
vn -0.0155 0.9985 -0.0532
vn -0.2582 0.4967 0.8286
vn -0.2590 0.4967 0.8283
vn -0.2585 0.4966 0.8286
vn -0.1232 0.9489 0.2906
vn -0.1236 0.9488 0.2905
vn 0.0004 0.9954 0.0962
vn 0.0015 0.9953 0.0968
vn 0.0020 0.9953 0.0967
vn 0.1587 0.9862 0.0474
vn 0.1580 0.9863 0.0464
vn 0.1583 0.9863 0.0473
vn 0.1119 0.9920 0.0589
vn -0.2970 0.3917 0.8708
vn -0.2956 0.3926 0.8709
vn -0.2959 0.3926 0.8708
vn -0.0623 0.9502 0.3053
vn -0.0637 0.9501 0.3053
vn 0.1586 0.9547 -0.2519
vn 0.1590 0.9546 -0.2519
vn 0.1584 0.9546 -0.2525
vn -0.3255 0.5602 0.7617
vn -0.3247 0.5599 0.7623
vn -0.3248 0.5600 0.7622
vn -0.0010 0.9636 0.2672
vn 0.0022 0.9629 0.2698
vn 0.0034 0.9630 0.2696
vn 0.1088 0.9653 -0.2376
vn 0.1046 0.9683 -0.2270
vn 0.1097 0.9663 -0.2331
vn -0.2368 0.3065 -0.9219
vn -0.2420 0.3039 -0.9214
vn -0.2379 0.3065 -0.9217
vn -0.3891 0.2553 -0.8851
vn -0.3894 0.2552 -0.8850
vn -0.3893 0.2552 -0.8850
vn -0.5541 0.3798 -0.7408
vn -0.5544 0.3808 -0.7400
vn -0.5543 0.3811 -0.7399
vn -0.0492 0.9928 -0.1094
vn -0.0463 0.9928 -0.1102
vn -0.0471 0.9928 -0.1103
vn -0.0701 0.9897 -0.1252
vn -0.0703 0.9896 -0.1253
vn -0.0697 0.9898 -0.1243
vn -0.1612 0.8596 -0.4848
vn -0.1618 0.8597 -0.4846
vn -0.1606 0.8592 -0.4859
vn 0.0794 0.9964 -0.0307
vn 0.0793 0.9963 -0.0316
vn 0.0799 0.9963 -0.0323
vn 0.0176 0.9948 -0.1000
vn 0.0179 0.9947 -0.1008
vn 0.0178 0.9948 -0.1007
vn -0.1244 0.8668 -0.4829
vn -0.1238 0.8664 -0.4838
vn -0.1239 0.8665 -0.4836
vn 0.1986 0.9798 0.0234
vn 0.2063 0.9785 0.0050
vn 0.1992 0.9798 0.0194
vn -0.1429 0.9656 -0.2172
vn -0.1431 0.9653 -0.2182
vn -0.1416 0.9652 -0.2197
vn -0.0570 0.9981 0.0219
vn -0.0020 0.9993 0.0382
vn 0.0010 0.9992 0.0388
vn -0.0014 0.9993 0.0380
vn 0.0317 0.9989 0.0341
vn 0.0424 0.9985 0.0356
vn 0.0456 0.9980 0.0441
vn 0.9752 0.1321 0.1773
vn 0.9752 0.1321 0.1776
vn 0.9759 0.1312 0.1746
vn 0.9916 -0.0000 0.1291
vn 0.8811 -0.0000 -0.4729
vn 0.9451 -0.1459 -0.2924
vn 0.9450 -0.1460 -0.2925
vn 0.9454 -0.1452 -0.2919
vn 0.9385 -0.0002 -0.3454
vn 0.9387 0.0013 -0.3446
vn 0.9387 -0.0012 -0.3447
vn 0.9453 0.1461 -0.2918
vn 0.9447 0.1460 -0.2936
vn 0.9453 0.1460 -0.2917
vn 0.9636 -0.2571 -0.0737
vn 0.9909 -0.1309 0.0304
vn 0.9569 -0.2522 -0.1443
vn 0.9514 -0.2580 -0.1684
vn 0.9566 -0.2584 -0.1351
vn 0.9709 -0.1338 -0.1984
vn 0.9710 -0.1338 -0.1979
vn 0.9710 -0.1339 -0.1981
vn 0.9925 -0.1162 -0.0384
vn 0.9924 -0.1166 -0.0389
vn 0.9969 -0.0000 -0.0780
vn 0.9876 -0.0000 -0.1568
vn 0.9710 0.1338 -0.1979
vn 0.9709 0.1338 -0.1984
vn 0.9710 0.1339 -0.1981
vn 0.9975 -0.0000 0.0707
vn 0.9884 0.1475 0.0355
vn 0.9912 0.1263 -0.0394
vn 0.9912 0.1263 -0.0395
vn 0.9911 0.1266 -0.0407
vn 0.9636 0.2570 -0.0737
vn 0.9565 0.2584 -0.1351
vn 0.9513 0.2581 -0.1684
vn 0.9569 0.2522 -0.1443
vn 0.9647 -0.2534 0.0711
vn 0.9648 -0.2534 0.0710
vn 0.9637 -0.2570 0.0718
vn 0.9694 -0.1996 0.1430
vn 0.9685 -0.1989 0.1498
vn 0.9684 -0.1999 0.1488
vn 0.9752 -0.1321 0.1773
vn 0.9759 -0.1312 0.1746
vn 0.9752 -0.1321 0.1776
vn 0.9630 0.2596 0.0729
vn 0.9631 0.2590 0.0732
vn 0.9701 0.1914 0.1491
vn 0.9710 0.1921 0.1423
vn 0.9701 0.1922 0.1484
vn 0.0053 -0.0030 1.0000
vn 0.0192 -0.0000 0.9998
vn -0.0000 -0.0000 1.0000
vn 0.9606 0.0872 0.2640
vn -0.9919 -0.0004 -0.1271
vn -0.9919 -0.0000 -0.1267
vn -0.9919 0.0004 -0.1271
vn -0.9973 0.0323 -0.0653
vn -0.9973 0.0327 -0.0650
vn -0.9973 0.0328 -0.0650
vn -0.9967 -0.0001 -0.0814
vn -0.9967 -0.0000 -0.0813
vn -0.9849 -0.0004 -0.1731
vn -0.9850 0.0001 -0.1727
vn -0.9849 0.0004 -0.1730
vn -0.9456 0.1440 0.2917
vn -0.9456 0.1451 0.2912
vn -0.9456 0.1452 0.2911
vn -0.9449 0.1459 0.2931
vn -0.9449 0.1463 0.2928
vn -0.9450 0.1464 0.2926
vn -0.9369 -0.0009 0.3496
vn -0.9368 -0.0000 0.3498
vn -0.9369 0.0009 0.3496
vn -0.9449 -0.1465 0.2927
vn -0.9449 -0.1464 0.2928
vn -0.9449 -0.1459 0.2932
vn -0.9456 -0.1452 0.2911
vn -0.9456 -0.1451 0.2913
vn -0.9456 -0.1440 0.2918
vn -0.9622 0.2621 0.0745
vn -0.9621 0.2623 0.0742
vn -0.9623 0.2623 0.0722
vn -0.9609 0.2625 0.0885
vn -0.9609 0.2626 0.0883
vn -0.9609 0.2628 0.0868
vn -0.9262 0.3687 0.0788
vn -0.9250 0.3719 0.0782
vn -0.9252 0.3718 0.0761
vn -0.9706 0.2319 0.0649
vn -0.9707 0.2322 0.0627
vn -0.9912 0.1283 -0.0323
vn -0.9912 0.1284 -0.0325
vn -0.9329 0.3569 -0.0487
vn -0.9322 0.3585 -0.0489
vn -0.9322 0.3584 -0.0500
vn -0.9863 0.1600 -0.0392
vn -0.9864 0.1597 -0.0390
vn -0.9863 0.1601 -0.0395
vn -0.9957 0.0899 -0.0202
vn -0.9956 0.0915 -0.0205
vn -0.9956 0.0915 -0.0206
vn -0.9121 0.4064 -0.0540
vn -0.9118 0.4073 -0.0526
vn -0.9117 0.4073 -0.0535
vn -0.9504 0.2710 0.1525
vn -0.9506 0.2705 0.1521
vn -0.9507 0.2704 0.1520
vn -0.9520 0.2619 0.1587
vn -0.9526 0.2608 0.1568
vn -0.9528 0.2602 0.1567
vn -0.9694 0.1520 0.1928
vn -0.9693 0.1507 0.1942
vn -0.9692 0.1508 0.1948
vn -0.9714 0.1314 0.1979
vn -0.9714 0.1314 0.1980
vn -0.9713 0.1315 0.1981
vn -0.2582 0.9170 0.3039
vn -0.2600 0.9159 0.3059
vn -0.2587 0.9169 0.3039
vn -0.9703 0.1422 0.1955
vn -0.9702 0.1408 0.1970
vn -0.9702 0.1408 0.1973
vn -0.9912 0.1264 0.0394
vn -0.9890 0.1423 0.0415
vn -0.9890 0.1421 0.0419
vn -0.9888 0.1431 0.0433
vn -0.9934 -0.1081 0.0375
vn -0.9935 -0.1078 0.0363
vn -0.9932 -0.1106 0.0361
vn -0.9706 -0.1351 0.1994
vn -0.9706 -0.1351 0.1991
vn -0.9707 -0.1352 0.1986
vn -0.9736 -0.1161 0.1967
vn -0.9741 -0.1146 0.1951
vn -0.9741 -0.1162 0.1937
vn -0.9696 -0.1349 0.2040
vn -0.9701 -0.1346 0.2019
vn -0.9701 -0.1346 0.2020
vn -0.9972 0.0121 -0.0738
vn -0.9972 0.0123 -0.0737
vn -0.9972 0.0125 -0.0738
vn -0.9972 -0.0125 -0.0738
vn -0.9972 -0.0123 -0.0737
vn -0.9972 -0.0121 -0.0738
vn -0.9911 -0.1285 -0.0361
vn -0.9911 -0.1284 -0.0354
vn -0.9924 -0.1176 -0.0368
vn -0.9924 -0.1178 -0.0357
vn -0.9924 -0.1175 -0.0353
vn -0.9990 -0.0436 -0.0059
vn -0.9990 -0.0436 -0.0052
vn -0.9991 -0.0420 -0.0048
vn -0.9322 -0.3584 -0.0500
vn -0.9322 -0.3586 -0.0489
vn -0.9329 -0.3568 -0.0487
vn -0.9910 -0.1301 -0.0307
vn -0.9909 -0.1307 -0.0316
vn -0.9909 -0.1307 -0.0317
vn -0.9912 -0.1265 0.0394
vn -0.9873 -0.1528 0.0426
vn -0.9875 -0.1522 0.0413
vn -0.9874 -0.1531 0.0405
vn -0.9609 -0.2628 0.0868
vn -0.9609 -0.2626 0.0883
vn -0.9609 -0.2625 0.0885
vn -0.9623 -0.2623 0.0722
vn -0.9621 -0.2623 0.0742
vn -0.9622 -0.2621 0.0745
vn -0.9976 0.0060 0.0684
vn -0.9975 0.0060 0.0704
vn -0.9977 0.0077 0.0674
vn -0.9639 -0.2575 0.0683
vn -0.9640 -0.2563 0.0710
vn -0.9638 -0.2574 0.0699
vn -0.9507 -0.2704 0.1520
vn -0.9506 -0.2705 0.1521
vn -0.9504 -0.2710 0.1525
vn -0.9738 -0.1597 0.1619
vn -0.9743 -0.1606 0.1579
vn -0.9743 -0.1607 0.1579
vn -0.0207 -0.9992 0.0347
vn -0.0205 -0.9992 0.0347
vn -0.0201 -0.9992 0.0349
vn 0.0033 -0.9965 0.0835
vn 0.0037 -0.9965 0.0835
vn 0.0044 -0.9965 0.0840
vn -0.0395 -0.9991 -0.0136
vn -0.0401 -0.9991 -0.0132
vn -0.0404 -0.9991 -0.0131
vn -0.0210 -0.9997 -0.0149
vn -0.0215 -0.9997 -0.0147
vn -0.0420 -0.9977 -0.0524
vn -0.0417 -0.9978 -0.0509
vn -0.0419 -0.9978 -0.0508
vn -0.1820 -0.3915 0.9020
vn -0.1832 -0.3905 0.9022
vn -0.1839 -0.3909 0.9019
vn -0.1153 -0.3815 0.9171
vn -0.1153 -0.3815 0.9172
vn -0.1157 -0.3816 0.9170
vn -0.2201 -0.5068 0.8335
vn -0.2210 -0.5064 0.8335
vn -0.2212 -0.5064 0.8334
vn -0.1225 -0.9486 0.2918
vn -0.1231 -0.9484 0.2923
vn -0.1236 -0.9484 0.2920
vn -0.1228 -0.9486 0.2918
vn -0.1231 -0.9486 0.2917
vn -0.2197 -0.9257 0.3081
vn -0.2195 -0.9254 0.3090
vn -0.9468 -0.2817 0.1558
vn -0.9470 -0.2808 0.1562
vn -0.9470 -0.2807 0.1561
vn 0.0034 -0.9912 0.1323
vn 0.0022 -0.9911 0.1330
vn 0.0009 -0.9912 0.1321
vn -0.0654 -0.9979 -0.0011
vn -0.0654 -0.9979 -0.0012
vn -0.0659 -0.9978 -0.0013
vn 0.1399 -0.9900 -0.0157
vn 0.1397 -0.9901 -0.0159
vn 0.1410 -0.9899 -0.0164
vn 0.1575 -0.9839 0.0839
vn 0.1574 -0.9840 0.0838
vn 0.1571 -0.9841 0.0834
vn 0.1545 -0.9848 0.0792
vn 0.1548 -0.9847 0.0794
vn 0.1543 -0.9849 0.0788
vn 0.1374 -0.9893 0.0490
vn 0.1368 -0.9894 0.0481
vn 0.1368 -0.9894 0.0486
vn 0.1577 -0.9858 0.0570
vn 0.1099 -0.9938 -0.0195
vn 0.1215 -0.9926 -0.0000
vn -0.2970 -0.3917 0.8708
vn -0.2959 -0.3926 0.8708
vn -0.2956 -0.3926 0.8709
vn -0.0368 -0.9646 0.2612
vn -0.0401 -0.9641 0.2626
vn -0.0405 -0.9641 0.2624
vn 0.0010 -0.9719 -0.2355
vn -0.0001 -0.9717 -0.2360
vn 0.0001 -0.9716 -0.2368
vn 0.0033 -1.0000 0.0005
vn 0.0032 -1.0000 0.0005
vn 0.0032 -1.0000 0.0004
vn 0.1374 -0.9898 0.0369
vn 0.1365 -0.9900 0.0365
vn 0.1365 -0.9900 0.0357
vn -0.9322 -0.0201 0.3614
vn -0.9317 -0.0222 0.3626
vn -0.9313 -0.0214 0.3637
vn -0.2957 -0.5768 0.7615
vn -0.2942 -0.5769 0.7620
vn -0.2935 -0.5758 0.7631
vn -0.1661 -0.5982 0.7840
vn -0.1657 -0.5980 0.7842
vn -0.1648 -0.5977 0.7846
vn -0.2921 -0.6184 0.7296
vn -0.2893 -0.6182 0.7309
vn -0.2893 -0.6181 0.7309
vn 0.0054 -0.9585 0.2851
vn 0.0051 -0.9585 0.2852
vn 0.0039 -0.9585 0.2851
vn 0.0082 -0.9630 0.2695
vn 0.0059 -0.9628 0.2703
vn 0.0030 -0.9630 0.2693
vn 0.1088 -0.9653 -0.2376
vn 0.1097 -0.9663 -0.2331
vn 0.1046 -0.9683 -0.2270
vn -0.2319 -0.3216 -0.9181
vn -0.2363 -0.3259 -0.9154
vn -0.2406 -0.3230 -0.9153
vn -0.2574 -0.2663 -0.9289
vn -0.2575 -0.2663 -0.9289
vn -0.2591 -0.2659 -0.9285
vn -0.4114 -0.3737 -0.8313
vn -0.4121 -0.3737 -0.8310
vn -0.4123 -0.3736 -0.8309
vn -0.3140 -0.6739 -0.6688
vn -0.3132 -0.6751 -0.6680
vn -0.3136 -0.6751 -0.6678
vn -0.5266 -0.3283 -0.7842
vn -0.5268 -0.3304 -0.7831
vn -0.5262 -0.3296 -0.7839
vn -0.5294 -0.3275 -0.7826
vn -0.5297 -0.3263 -0.7829
vn -0.5299 -0.3283 -0.7820
vn -0.0020 -0.0004 1.0000
vn 0.0001 0.0024 1.0000
vn -0.9917 -0.1235 -0.0370
vn -0.9916 -0.1236 -0.0370
vn -0.9915 -0.1252 -0.0361
vn -0.0683 -0.9950 -0.0727
vn -0.0674 -0.9951 -0.0728
vn -0.0489 -0.9914 -0.1214
vn -0.0465 -0.9913 -0.1230
vn -0.0441 -0.9917 -0.1210
vn -0.1975 -0.9720 -0.1276
vn -0.1966 -0.9722 -0.1271
vn -0.1976 -0.9722 -0.1259
vn -0.0837 -0.9922 -0.0918
vn -0.0837 -0.9923 -0.0918
vn -0.0837 -0.9923 -0.0917
vn -0.0714 -0.9921 -0.1027
vn -0.0706 -0.9923 -0.1022
vn -0.0707 -0.9923 -0.1014
vn -0.9966 0.0006 -0.0827
vn -0.9967 -0.0010 -0.0811
vn -0.9967 -0.0005 -0.0807
vn -0.1635 -0.8637 -0.4768
vn -0.1645 -0.8641 -0.4757
vn -0.1648 -0.8641 -0.4756
vn -0.1613 -0.8618 -0.4809
vn -0.1620 -0.8619 -0.4805
vn -0.1622 -0.8619 -0.4804
vn -0.2018 -0.8504 -0.4859
vn -0.2012 -0.8518 -0.4836
vn -0.2019 -0.8518 -0.4835
vn 0.9911 -0.1311 0.0228
vn 0.9909 -0.1327 0.0221
vn 0.9910 -0.1320 0.0219
vn 0.1019 -0.9915 -0.0813
vn 0.1024 -0.9914 -0.0820
vn 0.1027 -0.9913 -0.0822
vn 0.0802 -0.9965 -0.0242
vn 0.0806 -0.9964 -0.0250
vn 0.0811 -0.9964 -0.0252
vn 0.0548 -0.9979 0.0350
vn 0.0550 -0.9979 0.0341
vn 0.0560 -0.9979 0.0337
vn 0.0640 -0.9925 -0.1037
vn 0.0644 -0.9925 -0.1043
vn 0.0645 -0.9924 -0.1045
vn -0.1422 -0.9619 -0.2333
vn -0.1417 -0.9619 -0.2337
vn -0.1417 -0.9619 -0.2339
vn 0.0704 -0.9968 0.0376
vn 0.0711 -0.9968 0.0366
vn 0.1004 -0.9948 0.0143
vn -0.9618 -0.2280 -0.1513
vn -0.9620 -0.2266 -0.1521
vn -0.9615 -0.2275 -0.1540
vn -0.0025 -0.9699 -0.2433
vn -0.0022 -0.9699 -0.2434
vn -0.0021 -0.9697 -0.2443
vn -0.1150 -0.9642 -0.2390
vn -0.1153 -0.9640 -0.2397
vn -0.1141 -0.9637 -0.2413
vn -0.5137 -0.8518 0.1030
vn -0.0681 -0.9970 0.0361
vn -0.1042 -0.9882 0.1126
vn -0.0008 -0.9992 0.0403
vn -0.0007 -0.9992 0.0403
vn 0.0001 -0.9992 0.0403
vn 0.0457 -0.9980 0.0438
vn 0.0538 -0.9973 0.0491
vn 0.0545 -0.9972 0.0515
vn 0.1116 -0.9931 0.0355
vn 0.1197 -0.9920 0.0409
vn 0.1211 -0.9917 0.0427
vn -0.7168 -0.6913 0.0909
vn -0.7137 -0.6939 0.0957
vn -0.7156 -0.6906 0.1051
vn 0.0317 -0.9989 0.0341
vn 0.0456 -0.9980 0.0441
vn 0.0424 -0.9985 0.0356
vn 0.0043 0.9965 0.0840
vn 0.0036 0.9965 0.0836
vn 0.0033 0.9965 0.0836
vn -0.0201 0.9992 0.0349
vn -0.0205 0.9992 0.0348
vn -0.0207 0.9992 0.0347
vn -0.0215 0.9997 -0.0147
vn -0.0210 0.9997 -0.0149
vn -0.0404 0.9991 -0.0131
vn -0.0401 0.9991 -0.0132
vn -0.0395 0.9991 -0.0136
vn -0.0419 0.9978 -0.0508
vn -0.0417 0.9978 -0.0509
vn -0.0420 0.9977 -0.0524
vn -0.2212 0.5065 0.8334
vn -0.2210 0.5065 0.8334
vn -0.2202 0.5068 0.8334
vn -0.1156 0.3818 0.9170
vn -0.1152 0.3816 0.9171
vn -0.1152 0.3817 0.9171
vn -0.1838 0.3910 0.9019
vn -0.1832 0.3907 0.9021
vn -0.1822 0.3914 0.9020
vn -0.2195 0.9255 0.3088
vn -0.2196 0.9256 0.3082
vn -0.1230 0.9486 0.2916
vn -0.1228 0.9486 0.2916
vn -0.1234 0.9484 0.2919
vn -0.1231 0.9484 0.2921
vn -0.1227 0.9486 0.2918
vn -0.0660 0.9978 -0.0012
vn -0.0654 0.9979 -0.0011
vn 0.0009 0.9912 0.1321
vn 0.0022 0.9911 0.1331
vn 0.0035 0.9912 0.1323
vn -0.9470 0.2806 0.1561
vn -0.9470 0.2808 0.1563
vn -0.9467 0.2818 0.1559
vn 0.1572 0.9844 0.0785
vn 0.1574 0.9844 0.0792
vn 0.1583 0.9842 0.0792
vn 0.1340 0.9874 0.0840
vn 0.1341 0.9874 0.0841
vn 0.2015 0.9792 -0.0233
vn 0.2003 0.9795 -0.0232
vn 0.2006 0.9794 -0.0230
vn 0.1590 0.9863 0.0432
vn 0.1594 0.9862 0.0441
vn 0.1599 0.9861 0.0440
vn 0.1083 0.9935 -0.0348
vn 0.1567 0.9874 -0.0212
vn 0.1098 0.9940 -0.0000
vn -0.1636 0.5980 0.7846
vn -0.1637 0.5980 0.7846
vn -0.1643 0.5978 0.7847
vn -0.0405 0.9641 0.2624
vn -0.0400 0.9641 0.2626
vn -0.0368 0.9646 0.2612
vn 0.1365 0.9900 0.0357
vn 0.1365 0.9900 0.0365
vn 0.1374 0.9898 0.0369
vn 0.0032 1.0000 0.0004
vn 0.0032 1.0000 0.0005
vn 0.0033 1.0000 0.0005
vn 0.0001 0.9716 -0.2368
vn -0.0001 0.9717 -0.2360
vn 0.0010 0.9719 -0.2355
vn -0.9313 0.0214 0.3637
vn -0.9317 0.0222 0.3626
vn -0.9322 0.0201 0.3614
vn -0.1049 0.7736 0.6249
vn -0.1055 0.7743 0.6240
vn -0.1061 0.7742 0.6239
vn -0.2905 0.5893 0.7539
vn -0.2909 0.5897 0.7534
vn -0.2913 0.5898 0.7532
vn -0.2314 0.6402 0.7325
vn -0.2331 0.6411 0.7312
vn -0.2322 0.6409 0.7316
vn 0.0039 0.9585 0.2850
vn 0.0051 0.9585 0.2852
vn 0.0054 0.9585 0.2851
vn 0.0040 0.9651 0.2617
vn 0.0066 0.9639 0.2663
vn 0.0092 0.9642 0.2652
vn 0.1507 0.9769 -0.1518
vn 0.1512 0.9768 -0.1518
vn 0.1491 0.9762 -0.1577
vn -0.9933 -0.0749 0.0879
vn -0.9933 -0.0747 0.0876
vn -0.9935 -0.0755 0.0848
vn -0.2591 0.2659 -0.9285
vn -0.2575 0.2663 -0.9289
vn -0.2574 0.2663 -0.9289
vn -0.4123 0.3736 -0.8309
vn -0.4121 0.3737 -0.8310
vn -0.4114 0.3737 -0.8313
vn -0.5291 0.3241 -0.7843
vn -0.5273 0.3234 -0.7857
vn -0.5272 0.3228 -0.7860
vn -0.3951 0.3806 -0.8361
vn -0.3936 0.3797 -0.8372
vn -0.3931 0.3793 -0.8376
vn -0.9699 0.1402 -0.1991
vn -0.9698 0.1395 -0.1999
vn -0.9700 0.1378 -0.2004
vn -0.0441 0.9917 -0.1210
vn -0.0465 0.9913 -0.1230
vn -0.0489 0.9914 -0.1214
vn -0.0674 0.9951 -0.0728
vn -0.0683 0.9950 -0.0727
vn -0.9915 0.1252 -0.0361
vn -0.9916 0.1236 -0.0370
vn -0.9917 0.1235 -0.0370
vn -0.0706 0.9923 -0.1014
vn -0.0705 0.9923 -0.1022
vn -0.0714 0.9921 -0.1028
vn -0.0836 0.9923 -0.0917
vn -0.0837 0.9923 -0.0918
vn -0.1976 0.9722 -0.1259
vn -0.1965 0.9722 -0.1271
vn -0.1975 0.9719 -0.1277
vn -0.1622 0.8620 -0.4803
vn -0.1619 0.8620 -0.4804
vn -0.1612 0.8619 -0.4809
vn -0.1648 0.8641 -0.4755
vn -0.1645 0.8641 -0.4757
vn -0.1634 0.8637 -0.4768
vn -0.9967 0.0005 -0.0807
vn -0.9967 0.0010 -0.0811
vn -0.9966 -0.0006 -0.0827
vn -0.1611 0.8578 -0.4882
vn -0.1597 0.8572 -0.4896
vn -0.1602 0.8577 -0.4885
vn 0.0811 0.9964 -0.0252
vn 0.0806 0.9964 -0.0250
vn 0.0802 0.9965 -0.0242
vn 0.1027 0.9913 -0.0822
vn 0.1024 0.9914 -0.0820
vn 0.1019 0.9915 -0.0813
vn 0.9910 0.1320 0.0219
vn 0.9909 0.1327 0.0221
vn 0.9911 0.1311 0.0228
vn 0.0943 0.9949 0.0369
vn 0.0931 0.9950 0.0372
vn 0.0931 0.9949 0.0385
vn 0.0286 0.9989 0.0359
vn 0.0282 0.9990 0.0361
vn 0.0279 0.9989 0.0367
vn -0.1417 0.9619 -0.2339
vn -0.1417 0.9619 -0.2337
vn -0.1422 0.9619 -0.2333
vn 0.1004 0.9948 0.0143
vn 0.0711 0.9968 0.0366
vn 0.0704 0.9968 0.0376
vn -0.1141 0.9637 -0.2414
vn -0.1153 0.9640 -0.2397
vn -0.1150 0.9642 -0.2390
vn -0.0022 0.9697 -0.2443
vn -0.0023 0.9699 -0.2434
vn -0.0025 0.9699 -0.2433
vn -0.9615 0.2275 -0.1540
vn -0.9620 0.2266 -0.1521
vn -0.9618 0.2280 -0.1512
vn -0.1042 0.9882 0.1126
vn -0.0681 0.9970 0.0361
vn -0.5137 0.8518 0.1030
vn 0.0001 0.9992 0.0403
vn -0.0007 0.9992 0.0403
vn -0.0008 0.9992 0.0403
vn -0.7156 0.6906 0.1051
vn -0.7137 0.6939 0.0957
vn -0.7168 0.6913 0.0909
vn 0.1212 0.9917 0.0427
vn 0.1197 0.9920 0.0409
vn 0.1116 0.9931 0.0355
vn 0.0545 0.9972 0.0515
vn 0.0539 0.9973 0.0491
vn 0.0457 0.9980 0.0438
vn -0.2085 0.9780 -0.0053
vn -0.2123 0.9771 -0.0111
vn -0.2162 0.9763 -0.0119
vn 0.9804 0.1065 0.1657
vn 0.9797 0.1084 0.1689
vn 0.9797 0.1046 0.1708
vn 0.9770 0.1305 0.1688
vn 0.9767 0.1305 0.1703
vn 0.9766 0.1296 0.1717
vn 0.9757 0.1314 0.1752
vn 0.9755 0.1314 0.1764
vn 0.9754 0.1311 0.1771
vn 0.9422 -0.1604 -0.2940
vn 0.9420 -0.1611 -0.2943
vn 0.9416 -0.1601 -0.2962
vn 0.9443 -0.1486 -0.2936
vn 0.9442 -0.1491 -0.2938
vn 0.9439 -0.1494 -0.2943
vn 0.9453 -0.1454 -0.2921
vn 0.9452 -0.1455 -0.2921
vn 0.9452 -0.1456 -0.2922
vn 0.9398 -0.0012 -0.3417
vn 0.9391 -0.0000 -0.3438
vn 0.9394 0.0013 -0.3429
vn 0.9366 -0.0001 -0.3504
vn 0.9366 -0.0000 -0.3504
vn 0.9366 0.0001 -0.3504
vn 0.9355 -0.0079 -0.3533
vn 0.9350 -0.0064 -0.3547
vn 0.9352 -0.0052 -0.3541
vn 0.9442 0.1459 -0.2953
vn 0.9446 0.1457 -0.2941
vn 0.9448 0.1450 -0.2938
vn 0.9451 0.1464 -0.2920
vn 0.9452 0.1463 -0.2918
vn 0.9452 0.1462 -0.2918
vn 0.9625 0.0395 -0.2685
vn 0.9629 0.0410 -0.2668
vn 0.9627 0.0413 -0.2675
vn 0.9979 0.0584 0.0292
vn 0.9916 -0.1290 -0.0000
vn 0.9913 -0.1273 0.0331
vn 0.9909 -0.1287 0.0402
vn 0.9582 -0.2598 -0.1197
vn 0.9584 -0.2597 -0.1187
vn 0.9601 -0.2592 -0.1051
vn 0.8871 -0.4557 -0.0728
vn 0.8910 -0.4424 -0.1015
vn 0.8889 -0.4519 -0.0750
vn 0.9554 -0.2552 -0.1483
vn 0.9491 -0.2681 -0.1654
vn 0.9565 -0.2605 -0.1311
vn 0.9582 -0.2315 -0.1681
vn 0.9584 -0.2314 -0.1670
vn 0.9604 -0.2398 -0.1418
vn 0.8444 -0.5338 -0.0444
vn 0.8502 -0.5213 -0.0739
vn 0.8479 -0.5281 -0.0474
vn 0.9715 -0.1326 -0.1963
vn 0.9713 -0.1330 -0.1970
vn 0.9713 -0.1330 -0.1974
vn 0.9907 -0.1298 -0.0407
vn 0.9909 -0.1281 -0.0404
vn 0.9909 -0.1281 -0.0403
vn 0.9910 -0.1280 -0.0398
vn 0.9910 -0.1279 -0.0397
vn 0.4469 -0.8918 -0.0701
vn 0.4480 -0.8912 -0.0719
vn 0.4479 -0.8913 -0.0706
vn 0.9713 0.1330 -0.1974
vn 0.9713 0.1330 -0.1970
vn 0.9715 0.1326 -0.1963
vn 0.9926 0.1177 0.0301
vn 0.9911 0.1289 0.0327
vn 0.7732 -0.6341 -0.0000
vn 0.9594 0.2764 0.0558
vn 0.9909 0.1279 -0.0409
vn 0.9909 0.1279 -0.0418
vn 0.9911 0.1269 -0.0390
vn 0.9911 0.1268 -0.0401
vn 0.9911 0.1270 -0.0404
vn 0.9865 0.1632 -0.0127
vn 0.9864 0.1635 -0.0140
vn 0.8409 0.5394 -0.0447
vn 0.8435 0.5325 -0.0711
vn 0.8371 0.5455 -0.0417
vn 0.9372 -0.3370 -0.0897
vn 0.9297 -0.3498 -0.1154
vn 0.9309 -0.3432 -0.1253
vn 0.8747 0.4803 -0.0650
vn 0.8760 0.4738 -0.0903
vn 0.8566 0.5065 -0.0984
vn 0.9604 0.2398 -0.1418
vn 0.9584 0.2314 -0.1670
vn 0.9582 0.2316 -0.1681
vn 0.9560 0.2666 -0.1221
vn 0.9544 0.2625 -0.1424
vn 0.9542 0.2626 -0.1434
vn 0.9593 -0.2718 0.0771
vn 0.9595 -0.2709 0.0772
vn 0.9599 -0.2691 0.0793
vn 0.9623 -0.2573 0.0883
vn 0.9624 -0.2567 0.0885
vn 0.9625 -0.2562 0.0886
vn 0.9815 -0.1149 0.1533
vn 0.9813 -0.1184 0.1517
vn 0.9828 -0.1150 0.1445
vn 0.9563 -0.2487 0.1535
vn 0.9563 -0.2488 0.1535
vn 0.9563 -0.2488 0.1534
vn 0.9766 -0.1296 0.1717
vn 0.9767 -0.1305 0.1703
vn 0.9770 -0.1305 0.1688
vn 0.9797 -0.1046 0.1708
vn 0.9797 -0.1084 0.1689
vn 0.9804 -0.1065 0.1657
vn 0.9754 -0.1311 0.1771
vn 0.9755 -0.1314 0.1764
vn 0.9757 -0.1314 0.1752
vn 0.9599 0.2691 0.0793
vn 0.9595 0.2709 0.0772
vn 0.9593 0.2718 0.0771
vn 0.9394 -0.3318 0.0862
vn 0.9392 -0.3325 0.0862
vn 0.9398 -0.3305 0.0865
vn 0.9563 0.2488 0.1534
vn 0.9563 0.2488 0.1535
vn 0.9563 0.2487 0.1535
vn 0.9600 -0.0864 0.2662
vn 0.9606 -0.0872 0.2640
vt 0.000000 0.000000
vt 0.266427 0.367942
vt 0.236144 0.359058
vt 0.269146 0.364212
vt 0.257324 0.380814
vt 0.250117 0.390481
vt 0.274001 0.314599
vt 0.296714 0.315130
vt 0.293981 0.319966
vt 0.285526 0.332683
vt 0.266285 0.321792
vt 0.287523 0.327056
vt 0.269735 0.363422
vt 0.246410 0.345552
vt 0.277293 0.350151
vt 0.209637 0.338004
vt 0.213772 0.331609
vt 0.198373 0.354618
vt 0.199387 0.353356
vt 0.254034 0.274310
vt 0.243262 0.286769
vt 0.218894 0.322686
vt 0.226456 0.307605
vt 0.235765 0.271135
vt 0.233462 0.277141
vt 0.230190 0.289942
vt 0.232253 0.281941
vt 0.224568 0.307226
vt 0.224924 0.306320
vt 0.200554 0.413878
vt 0.226010 0.417722
vt 0.224255 0.420125
vt 0.169206 0.392606
vt 0.204440 0.405595
vt 0.162382 0.401939
vt 0.159907 0.401440
vt 0.160557 0.400142
vt 0.240446 0.401322
vt 0.226464 0.372478
vt 0.248535 0.392550
vt 0.231859 0.410257
vt 0.217457 0.385480
vt 0.237932 0.404001
vt 0.226010 0.417723
vt 0.209844 0.396859
vt 0.228156 0.415327
vt 0.188050 0.367352
vt 0.186702 0.368857
vt 0.176531 0.381550
vt 0.178739 0.377422
vt 0.179822 0.376247
vt 0.174873 0.380901
vt 0.168665 0.387178
vt 0.279943 0.344583
vt 0.235778 0.294678
vt 0.225472 0.304934
vt 0.337893 0.252651
vt 0.348118 0.282507
vt 0.344513 0.285390
vt 0.369907 0.265202
vt 0.360572 0.272834
vt 0.295168 0.292463
vt 0.301423 0.312183
vt 0.308216 0.305415
vt 0.302009 0.284433
vt 0.313749 0.303168
vt 0.324858 0.263513
vt 0.343750 0.286014
vt 0.330830 0.294159
vt 0.302219 0.236326
vt 0.309474 0.231538
vt 0.350867 0.242380
vt 0.316997 0.226168
vt 0.330482 0.216253
vt 0.285815 0.304707
vt 0.266000 0.262995
vt 0.300790 0.237053
vt 0.286064 0.245279
vt 0.241358 0.258859
vt 0.238404 0.259359
vt 0.260688 0.252212
vt 0.273567 0.255167
vt 0.285601 0.243410
vt 0.291730 0.240798
vt 0.396050 0.239898
vt 0.391075 0.214631
vt 0.402622 0.234506
vt 0.368380 0.184262
vt 0.382970 0.218889
vt 0.375507 0.175276
vt 0.377387 0.177012
vt 0.366745 0.179446
vt 0.380308 0.255055
vt 0.371905 0.263529
vt 0.382872 0.252423
vt 0.363455 0.232798
vt 0.388852 0.246076
vt 0.374483 0.224681
vt 0.395144 0.240947
vt 0.344016 0.204239
vt 0.331764 0.215125
vt 0.352527 0.195615
vt 0.357674 0.192086
vt 0.353651 0.194480
vt 0.362934 0.183974
vt 0.356951 0.190461
vt 0.325386 0.297056
vt 0.283352 0.244416
vt 0.273519 0.248449
vt 0.259588 0.377605
vt 0.255309 0.383742
vt 0.295059 0.318571
vt 0.283431 0.336982
vt 0.285636 0.332459
vt 0.274763 0.355082
vt 0.256671 0.332696
vt 0.218232 0.324146
vt 0.218439 0.323711
vt 0.208744 0.339366
vt 0.199443 0.353286
vt 0.222232 0.313467
vt 0.236137 0.269253
vt 0.238036 0.262332
vt 0.220920 0.424526
vt 0.163182 0.392791
vt 0.164315 0.391194
vt 0.243088 0.398493
vt 0.236956 0.405059
vt 0.227017 0.416771
vt 0.226497 0.417292
vt 0.197467 0.355736
vt 0.174097 0.381611
vt 0.278628 0.347546
vt 0.229064 0.294929
vt 0.225321 0.305291
vt 0.357466 0.275240
vt 0.363407 0.270690
vt 0.300077 0.313323
vt 0.313529 0.303287
vt 0.317950 0.300882
vt 0.312473 0.274339
vt 0.335643 0.291411
vt 0.315676 0.227121
vt 0.301793 0.236553
vt 0.330549 0.216194
vt 0.248187 0.256655
vt 0.250051 0.256200
vt 0.255947 0.253632
vt 0.268589 0.249796
vt 0.284712 0.243807
vt 0.398373 0.238036
vt 0.376773 0.174566
vt 0.368287 0.178241
vt 0.377599 0.257822
vt 0.383886 0.251401
vt 0.393752 0.242149
vt 0.395641 0.240403
vt 0.345459 0.202824
vt 0.332840 0.214169
vt 0.357623 0.189653
vt 0.328288 0.295610
vt 0.283702 0.244248
s 0
usemtl blinn1SG.013
f 111/1/1 113/1/1 115/1/2
f 119/1/3 120/1/4 118/1/5
f 118/1/6 123/1/7 122/1/8
f 124/1/9 126/1/10 123/1/9
f 9/1/11 128/1/12 132/1/13
f 137/1/14 135/1/15 134/1/16
f 141/1/17 9/1/18 140/1/19
f 9/1/20 120/1/21 145/1/22
f 9/1/23 146/1/24 136/1/25
f 10/1/26 11/1/26 9/1/26
f 5/1/27 9/1/27 11/1/27
f 5/1/28 147/1/29 149/1/30
f 10/1/31 114/1/32 113/1/33
f 156/1/34 152/1/35 154/1/36
f 155/1/37 158/1/38 11/1/39
f 11/1/40 160/1/41 164/1/42
f 11/1/43 166/1/44 147/1/45
f 133/1/46 135/1/46 167/1/46
f 168/1/47 157/1/47 156/1/47
f 164/2/48 13/3/49 163/4/50
f 13/3/51 160/5/52 159/6/53
f 15/7/54 122/8/55 126/9/56
f 150/10/57 28/11/58 125/12/57
f 162/13/59 12/14/60 165/15/61
f 12/14/62 44/16/63 46/17/64
f 13/3/65 50/18/65 49/19/65
f 19/20/66 15/7/67 18/21/68
f 28/11/69 18/21/70 15/7/69
f 52/22/71 20/23/72 12/14/73
f 58/24/74 19/20/75 57/25/76
f 18/21/77 60/26/78 59/27/79
f 20/23/80 61/28/81 62/29/82
f 21/30/83 112/31/84 111/32/85
f 21/30/86 24/33/87 22/34/88
f 23/35/89 65/36/90 63/37/91
f 153/38/92 14/39/93 155/40/94
f 168/41/95 25/42/96 152/43/97
f 112/44/98 26/45/99 156/46/100
f 50/18/101 25/42/102 69/47/103
f 70/48/104 26/45/105 27/49/106
f 22/34/107 27/49/108 26/45/109
f 27/49/110 72/50/111 71/51/112
f 73/52/113 24/33/114 74/53/115
f 165/15/116 28/11/116 148/54/116
f 28/11/117 20/23/118 29/55/119
f 29/55/120 62/29/121 77/56/122
f 30/57/123 127/58/124 128/59/125
f 30/57/126 146/60/127 130/61/128
f 122/8/129 33/62/130 119/63/131
f 121/64/132 34/65/133 143/66/132
f 31/67/134 129/68/135 140/69/136
f 30/57/137 82/70/138 80/71/139
f 32/72/140 83/73/140 84/74/140
f 19/20/141 33/62/142 16/75/143
f 36/76/144 34/65/145 33/62/145
f 88/77/146 31/67/147 38/78/148
f 92/79/149 36/76/150 55/80/151
f 93/81/152 37/82/153 36/76/154
f 38/78/155 95/83/156 87/84/157
f 115/85/158 21/86/159 117/87/160
f 40/88/161 21/86/162 39/89/163
f 99/90/164 23/91/165 98/92/166
f 32/72/167 138/93/168 136/94/169
f 139/95/170 41/96/171 167/97/172
f 42/98/173 115/85/174 134/99/175
f 101/100/176 41/96/177 86/101/178
f 103/102/179 42/98/180 41/96/181
f 43/103/182 39/89/183 42/98/184
f 104/104/185 43/103/186 103/102/187
f 107/105/188 40/88/189 105/106/190
f 34/65/191 140/69/191 144/107/191
f 38/78/192 34/65/193 37/82/194
f 110/108/195 37/82/196 109/109/197
f 64/1/198 1/1/199 74/1/200
f 2/1/201 1/1/201 3/1/201
f 92/1/202 55/1/202 56/1/202
f 93/1/203 90/1/204 109/1/205
f 56/1/206 58/1/207 90/1/208
f 4/1/209 57/1/210 60/1/211
f 82/1/212 6/1/212 80/1/212
f 7/1/213 101/1/213 100/1/213
f 6/1/214 88/1/215 96/1/216
f 110/1/217 4/1/218 6/1/219
f 6/1/220 84/1/221 79/1/220
f 7/1/222 6/1/222 8/1/222
f 4/1/223 8/1/223 6/1/223
f 4/1/224 77/1/225 8/1/226
f 7/1/227 2/1/227 3/1/227
f 2/1/228 51/1/228 50/1/228
f 7/1/229 46/1/230 44/1/231
f 48/1/232 46/1/232 8/1/232
f 62/1/233 52/1/234 8/1/235
f 102/1/236 3/1/237 103/1/238
f 104/1/239 107/1/240 106/1/241
f 97/1/242 107/1/243 1/1/244
f 2/1/245 70/1/246 72/1/245
f 74/1/247 72/1/248 73/1/249
f 65/1/250 1/1/251 66/1/252
f 66/1/253 1/1/253 63/1/253
f 116/1/254 117/1/255 111/1/256
f 111/1/257 112/1/258 113/1/259
f 113/1/260 114/1/261 115/1/261
f 115/1/262 116/1/263 111/1/264
f 119/1/265 121/1/266 120/1/267
f 120/1/268 5/1/269 118/1/270
f 118/1/271 5/1/272 123/1/273
f 123/1/274 5/1/275 124/1/276
f 124/1/277 125/1/278 126/1/279
f 130/1/280 131/1/281 9/1/282
f 9/1/283 129/1/284 128/1/285
f 128/1/286 127/1/287 132/1/288
f 132/1/289 130/1/290 9/1/290
f 134/1/291 10/1/292 136/1/292
f 137/1/293 138/1/294 139/1/295
f 134/1/296 136/1/297 137/1/298
f 135/1/299 133/1/300 134/1/301
f 137/1/302 139/1/303 135/1/304
f 141/1/305 129/1/306 9/1/307
f 9/1/308 142/1/309 140/1/310
f 144/1/311 142/1/312 9/1/313
f 9/1/314 5/1/315 120/1/316
f 120/1/317 143/1/318 145/1/319
f 145/1/320 144/1/321 9/1/322
f 136/1/323 10/1/323 9/1/323
f 9/1/324 131/1/325 146/1/326
f 150/1/327 124/1/328 5/1/329
f 5/1/330 11/1/331 147/1/332
f 147/1/333 148/1/334 149/1/335
f 149/1/336 150/1/337 5/1/338
f 113/1/339 151/1/340 10/1/341
f 10/1/342 134/1/343 114/1/344
f 154/1/345 155/1/346 10/1/346
f 10/1/347 151/1/348 156/1/349
f 156/1/350 157/1/351 152/1/352
f 152/1/353 153/1/354 154/1/355
f 154/1/356 10/1/357 156/1/358
f 11/1/359 10/1/359 155/1/359
f 155/1/360 159/1/361 158/1/362
f 163/1/363 162/1/364 11/1/365
f 11/1/366 158/1/367 160/1/368
f 160/1/369 161/1/370 164/1/371
f 164/1/372 163/1/373 11/1/374
f 11/1/375 162/1/376 166/1/377
f 166/1/378 165/1/379 147/1/380
f 164/2/381 161/110/382 13/3/383
f 13/3/384 12/14/385 163/4/386
f 159/6/387 14/39/388 13/3/389
f 13/3/390 161/110/391 160/5/391
f 160/5/392 158/111/393 159/6/394
f 126/9/395 125/12/396 15/7/397
f 15/7/398 16/75/399 122/8/400
f 122/8/401 123/112/402 126/9/403
f 150/10/404 149/113/405 28/11/406
f 28/11/407 15/7/407 125/12/408
f 125/12/409 124/114/410 150/10/410
f 165/15/411 166/115/412 162/13/413
f 162/13/414 163/4/415 12/14/416
f 12/14/417 17/116/418 165/15/419
f 48/117/420 47/118/421 12/14/422
f 12/14/423 13/3/424 45/119/425
f 12/14/426 45/119/427 44/16/428
f 46/17/429 48/117/430 12/14/431
f 51/120/432 45/119/432 13/3/432
f 13/3/433 14/39/433 50/18/433
f 49/19/434 51/120/434 13/3/434
f 19/20/435 16/75/436 15/7/437
f 28/11/438 29/55/439 18/21/440
f 52/22/441 53/121/442 20/23/443
f 20/23/444 17/116/445 12/14/446
f 12/14/447 47/118/448 52/22/449
f 58/24/450 54/122/451 56/123/452
f 56/123/453 55/80/454 19/20/455
f 19/20/456 18/21/457 57/25/458
f 58/24/459 56/123/460 19/20/461
f 59/27/462 57/25/463 18/21/464
f 18/21/465 29/55/466 60/26/467
f 20/23/468 53/121/469 61/28/470
f 111/32/471 117/124/472 21/30/473
f 21/30/474 22/34/475 112/31/476
f 21/30/477 23/35/478 24/33/479
f 64/125/480 67/126/481 24/33/482
f 63/37/483 64/125/484 24/33/485
f 63/37/486 24/33/487 23/35/488
f 65/36/252 66/36/489 63/37/490
f 155/40/491 154/127/492 153/38/493
f 153/38/494 25/42/495 14/39/495
f 14/39/496 159/6/497 155/40/498
f 152/43/499 157/128/500 168/41/501
f 168/41/502 26/45/503 25/42/504
f 25/42/505 153/38/506 152/43/507
f 151/129/508 113/130/509 112/44/510
f 112/44/511 22/34/512 26/45/513
f 26/45/514 168/41/515 156/46/516
f 156/46/517 151/129/518 112/44/519
f 69/47/520 68/131/521 50/18/522
f 50/18/523 14/39/524 25/42/525
f 25/42/526 70/48/527 69/47/528
f 27/49/529 71/51/530 70/48/531
f 70/48/532 25/42/533 26/45/534
f 22/34/535 24/33/536 27/49/537
f 27/49/538 73/52/539 72/50/540
f 74/53/541 75/132/542 73/52/543
f 73/52/544 27/49/545 24/33/546
f 24/33/547 67/126/548 74/53/549
f 148/54/550 147/133/550 165/15/550
f 165/15/551 17/116/551 28/11/551
f 28/11/552 149/113/552 148/54/552
f 28/11/553 17/116/554 20/23/555
f 76/134/556 60/26/557 29/55/558
f 29/55/559 20/23/560 62/29/561
f 62/29/562 78/135/563 77/56/564
f 77/56/565 76/134/566 29/55/567
f 128/59/568 31/67/569 30/57/570
f 30/57/571 132/136/572 127/58/573
f 130/61/574 132/136/574 30/57/575
f 30/57/576 32/72/577 146/60/578
f 146/60/579 131/137/580 130/61/581
f 119/63/582 118/138/583 122/8/584
f 122/8/585 16/75/586 33/62/587
f 33/62/588 121/64/589 119/63/590
f 143/66/591 120/139/591 121/64/592
f 121/64/593 33/62/594 34/65/594
f 34/65/595 145/140/596 143/66/597
f 140/69/598 35/141/599 31/67/599
f 31/67/600 128/59/601 129/68/602
f 129/68/603 141/142/604 140/69/605
f 79/143/606 83/73/607 30/57/608
f 30/57/609 31/67/609 81/144/610
f 30/57/611 81/144/612 82/70/613
f 80/71/614 79/143/615 30/57/616
f 85/145/617 86/101/617 32/72/617
f 32/72/618 30/57/618 83/73/618
f 84/74/619 85/145/619 32/72/619
f 19/20/620 36/76/621 33/62/622
f 36/76/623 37/82/624 34/65/625
f 88/77/626 81/144/627 31/67/628
f 31/67/629 35/141/630 38/78/631
f 38/78/632 87/84/633 88/77/634
f 92/79/635 91/146/636 90/147/637
f 90/147/638 89/148/639 36/76/640
f 36/76/641 19/20/642 55/80/643
f 92/79/644 90/147/645 36/76/646
f 36/76/647 89/148/648 93/81/649
f 93/81/650 94/149/651 37/82/652
f 38/78/653 96/150/654 95/83/655
f 117/87/656 116/151/657 115/85/658
f 115/85/659 39/89/660 21/86/661
f 40/88/662 23/91/663 21/86/664
f 99/90/665 65/152/666 23/91/667
f 23/91/668 40/88/669 98/92/670
f 98/92/671 97/153/672 99/90/673
f 136/94/674 146/60/675 32/72/676
f 32/72/677 41/96/677 138/93/678
f 138/93/679 137/154/680 136/94/681
f 139/95/682 138/93/683 41/96/684
f 41/96/685 42/98/686 167/97/686
f 167/97/687 135/155/688 139/95/689
f 133/156/690 167/97/691 42/98/692
f 42/98/693 39/89/694 115/85/695
f 115/85/696 114/157/697 134/99/698
f 134/99/699 133/156/700 42/98/701
f 101/100/702 102/158/703 41/96/704
f 41/96/705 32/72/706 86/101/707
f 86/101/708 100/159/709 101/100/710
f 41/96/711 102/158/712 103/102/713
f 103/102/714 43/103/715 42/98/716
f 43/103/717 40/88/718 39/89/719
f 104/104/720 105/106/721 43/103/722
f 107/105/723 98/92/724 40/88/725
f 40/88/726 43/103/727 105/106/728
f 105/106/729 106/160/730 107/105/731
f 144/107/732 145/140/732 34/65/732
f 34/65/733 35/141/733 140/69/733
f 140/69/734 142/161/734 144/107/734
f 38/78/735 35/141/736 34/65/737
f 110/108/738 108/162/739 96/150/740
f 96/150/741 38/78/742 37/82/743
f 37/82/744 94/149/745 109/109/746
f 110/108/747 96/150/748 37/82/749
f 74/1/750 67/1/751 64/1/752
f 64/1/753 63/1/754 1/1/755
f 1/1/756 2/1/757 74/1/758
f 109/1/759 94/1/760 93/1/761
f 93/1/762 89/1/763 90/1/764
f 90/1/765 4/1/766 109/1/767
f 91/1/768 92/1/769 56/1/770
f 58/1/771 4/1/772 90/1/773
f 90/1/774 91/1/775 56/1/776
f 60/1/777 76/1/778 4/1/779
f 4/1/780 58/1/781 57/1/782
f 57/1/783 59/1/784 60/1/785
f 100/1/786 86/1/786 85/1/786
f 85/1/787 84/1/787 7/1/787
f 7/1/788 3/1/788 101/1/788
f 100/1/789 85/1/789 7/1/789
f 6/1/790 82/1/791 81/1/792
f 88/1/793 87/1/794 95/1/795
f 6/1/796 81/1/797 88/1/798
f 96/1/799 110/1/800 6/1/801
f 88/1/802 95/1/803 96/1/804
f 110/1/805 109/1/806 4/1/807
f 79/1/808 80/1/809 6/1/810
f 6/1/811 7/1/812 84/1/812
f 84/1/813 83/1/814 79/1/815
f 4/1/816 76/1/817 77/1/818
f 68/1/819 69/1/819 2/1/819
f 2/1/820 7/1/820 51/1/820
f 51/1/821 49/1/821 50/1/821
f 50/1/822 68/1/822 2/1/822
f 45/1/823 51/1/824 7/1/824
f 7/1/825 8/1/826 46/1/827
f 44/1/828 45/1/829 7/1/828
f 62/1/830 61/1/831 53/1/832
f 52/1/833 47/1/834 48/1/835
f 62/1/836 53/1/837 52/1/838
f 8/1/839 77/1/840 62/1/841
f 52/1/842 48/1/843 8/1/844
f 102/1/845 101/1/846 3/1/847
f 3/1/848 104/1/849 103/1/850
f 106/1/851 105/1/852 104/1/853
f 104/1/854 3/1/855 107/1/856
f 1/1/857 99/1/858 97/1/859
f 97/1/860 98/1/861 107/1/862
f 107/1/863 3/1/864 1/1/865
f 2/1/866 69/1/867 70/1/868
f 70/1/869 71/1/870 72/1/871
f 74/1/872 2/1/873 72/1/874
f 65/1/875 99/1/876 1/1/876
