# Blender 4.3.2
# www.blender.org
mtllib link_3.mtl
o link_3_visual
v 0.000444 -0.000950 0.000177
v -0.000031 -0.000957 0.000161
v 0.000431 -0.001024 -0.000223
v 0.000505 -0.000859 -0.000903
v -0.000195 -0.000859 -0.000903
v 0.000456 -0.000946 0.000589
v 0.000068 0.000000 -0.000903
v -0.000632 0.000000 -0.000903
v -0.000195 0.000859 -0.000903
v 0.000505 0.000859 -0.000903
v 0.000188 -0.000531 0.000903
v 0.000188 0.000531 0.000903
v 0.000679 -0.000873 -0.001015
v -0.000512 -0.000531 0.000903
v 0.000167 0.000000 -0.001328
v -0.000512 0.000531 0.000903
v 0.000358 -0.000724 -0.001015
v 0.000213 -0.000505 -0.001062
v 0.000113 -0.000241 -0.001015
v 0.000001 -0.000780 0.000928
v 0.000113 0.000241 -0.001015
v 0.000213 0.000505 -0.001062
v -0.000021 -0.000873 -0.001015
v -0.000032 -0.000375 0.001514
v -0.000533 0.000000 -0.001328
v 0.000358 0.000724 -0.001015
v 0.000679 0.000873 -0.001015
v 0.000590 -0.000965 -0.000507
v -0.000342 -0.000724 -0.001015
v -0.000487 -0.000505 -0.001062
v 0.000092 -0.000447 0.000507
v -0.000587 -0.000241 -0.001015
v 0.000027 -0.000312 0.000000
v 0.000024 -0.000149 -0.000507
v 0.000392 -0.000873 -0.000507
v 0.000284 -0.000817 0.000000
v -0.000587 0.000241 -0.001015
v 0.000214 -0.000689 0.000507
v 0.000214 0.000689 0.000507
v -0.000487 0.000505 -0.001062
v -0.000342 0.000724 -0.001015
v 0.000284 0.000817 0.000000
v 0.000392 0.000873 -0.000507
v -0.000021 0.000873 -0.001015
v 0.000024 0.000149 -0.000507
v -0.000110 -0.000965 -0.000507
v 0.000456 -0.000802 0.000966
v 0.000027 0.000312 0.000000
v -0.000608 -0.000447 0.000507
v -0.000673 -0.000312 0.000000
v 0.000092 0.000447 0.000507
v -0.000676 -0.000149 -0.000507
v 0.000590 0.000965 -0.000507
v -0.000308 -0.000873 -0.000507
v 0.000324 -0.000689 0.001015
v 0.000125 -0.000298 0.001015
v -0.000416 -0.000817 0.000000
v -0.000486 -0.000689 0.000507
v 0.000099 0.000000 0.001062
v 0.000125 0.000298 0.001015
v -0.000486 0.000689 0.000507
v 0.000324 0.000689 0.001015
v -0.000416 0.000817 0.000000
v 0.000269 -0.000447 0.001328
v -0.000308 0.000873 -0.000507
v -0.000676 0.000149 -0.000507
v -0.000097 0.000000 0.001677
v 0.000269 0.000447 0.001328
v -0.000673 0.000312 0.000000
v 0.000225 0.000164 0.001462
v -0.000608 0.000447 0.000507
v 0.000225 -0.000164 0.001462
v -0.000110 0.000965 -0.000507
v 0.000482 0.000961 0.000000
v -0.000376 -0.000689 0.001015
v 0.000384 0.000859 0.000558
v 0.000030 0.000164 0.000558
v -0.000575 -0.000298 0.001015
v -0.000601 0.000000 0.001062
v -0.000007 0.000000 0.000000
v -0.000575 0.000298 0.001015
v -0.000376 0.000689 0.001015
v 0.000030 -0.000164 0.000558
v 0.000384 -0.000859 0.000558
v 0.000482 -0.000961 0.000000
v -0.000431 -0.000447 0.001328
v 0.000128 0.000594 0.000000
v 0.000225 0.000695 -0.000558
v -0.000431 0.000447 0.001328
v 0.000091 0.000430 -0.000558
v 0.000128 -0.000594 0.000000
v 0.000091 -0.000430 -0.000558
v 0.000225 -0.000695 -0.000558
v -0.000475 0.000164 0.001462
v -0.000475 -0.000164 0.001462
v 0.000248 0.000265 -0.001462
v 0.000248 -0.000265 -0.001462
v -0.000218 0.000961 0.000000
v -0.000316 0.000859 0.000558
v -0.000670 0.000164 0.000558
v -0.000707 0.000000 0.000000
v -0.000670 -0.000164 0.000558
v -0.000316 -0.000859 0.000558
v -0.000218 -0.000961 0.000000
v -0.000572 0.000594 0.000000
v -0.000475 0.000695 -0.000558
v -0.000609 0.000430 -0.000558
v -0.000572 -0.000594 0.000000
v -0.000609 -0.000430 -0.000558
v -0.000475 -0.000695 -0.000558
v 0.000700 0.000963 0.000534
v 0.000700 -0.000963 0.000534
v 0.000700 0.000963 -0.000534
v 0.000700 0.000888 -0.000934
v 0.000700 0.000867 -0.001019
v 0.000700 -0.000963 -0.000534
v -0.000000 0.000963 0.000534
v 0.000700 -0.000888 -0.000934
v 0.000700 -0.000867 -0.001019
v -0.000000 -0.000963 0.000534
v -0.000000 0.000963 -0.000534
v -0.000000 0.000888 -0.000934
v -0.000000 0.000867 -0.001019
v -0.000000 -0.000963 -0.000534
v -0.000000 -0.000888 -0.000934
v -0.000000 -0.000867 -0.001019
v 0.000437 -0.000999 -0.000666
v 0.000434 -0.000834 -0.001093
v -0.000048 -0.000518 -0.001427
v -0.000067 0.000000 -0.001513
v -0.000009 -0.000649 0.001253
v 0.000450 -0.000676 0.001301
v -0.000031 0.000957 0.000161
v 0.000444 0.000950 0.000177
v 0.000456 0.000946 0.000589
v 0.000431 0.001024 -0.000223
v 0.000456 0.000802 0.000966
v 0.000001 0.000780 0.000928
v -0.000009 0.000649 0.001253
v -0.000032 0.000375 0.001514
v 0.000450 0.000676 0.001301
v 0.000437 0.000999 -0.000666
v 0.000434 0.000834 -0.001093
v -0.000048 0.000518 -0.001427
v 0.000587 -0.000961 0.000476
v 0.000579 -0.000961 0.000450
v 0.000512 -0.000957 0.000178
v 0.000586 -0.000961 0.000482
v 0.000599 -0.000955 0.000577
v 0.000593 -0.000956 0.000558
v 0.000609 -0.000955 0.000585
v 0.000668 -0.000962 0.000542
v 0.000700 -0.000969 0.000460
v 0.000700 -0.000960 0.000602
v 0.000603 -0.000988 0.000000
v 0.000532 -0.000967 0.000099
v 0.000700 -0.001004 -0.000068
v 0.000700 -0.001034 -0.000227
v 0.000685 -0.001004 -0.000069
v 0.000603 -0.000988 0.000000
v 0.000512 -0.000961 0.000143
v 0.000470 -0.000831 0.000893
v 0.000459 -0.000803 0.000964
v 0.000700 -0.000940 0.000654
v 0.000615 -0.000951 0.000608
v 0.000589 -0.000939 0.000635
v 0.000459 -0.000802 0.000967
v 0.000378 -0.000400 0.001576
v 0.000391 -0.000550 0.001421
v 0.000416 -0.000616 0.001357
v 0.000450 -0.000658 0.001320
v 0.000327 -0.000123 0.001659
v 0.000330 -0.000253 0.001616
v 0.000355 -0.000358 0.001586
v 0.000342 0.000000 0.001715
v 0.000330 -0.000056 0.001689
v 0.000465 -0.000678 0.001302
v 0.000700 -0.001023 -0.000421
v 0.000700 -0.001015 -0.000672
v 0.000365 -0.000517 -0.001432
v 0.000366 -0.000528 -0.001419
v 0.000379 -0.000567 -0.001378
v 0.000428 -0.000651 -0.001288
v 0.000242 0.000000 -0.001510
v 0.000248 -0.000167 -0.001482
v 0.000252 -0.000265 -0.001468
v 0.000251 -0.000258 -0.001469
v 0.000271 -0.000308 -0.001462
v 0.000519 -0.000778 -0.001150
v 0.000468 -0.000724 -0.001210
v 0.000633 -0.000826 -0.001114
v 0.000522 -0.000781 -0.001147
v 0.000700 -0.000833 -0.001112
v 0.000700 -0.000844 -0.001101
v 0.000692 -0.000836 -0.001108
v 0.000700 -0.000917 -0.000912
v 0.000447 -0.000772 0.001045
v 0.000456 -0.000794 0.000989
v 0.000453 -0.000740 0.001132
v 0.000459 -0.000802 0.000969
v 0.000586 0.000961 0.000482
v 0.000587 0.000961 0.000476
v 0.000599 0.000955 0.000577
v 0.000593 0.000956 0.000558
v 0.000609 0.000955 0.000585
v 0.000668 0.000962 0.000542
v 0.000700 0.000969 0.000461
v 0.000700 0.000960 0.000602
v 0.000579 0.000961 0.000450
v 0.000512 0.000957 0.000178
v 0.000512 0.000961 0.000143
v 0.000532 0.000967 0.000099
v 0.000603 0.000988 0.000000
v 0.000700 0.001004 -0.000068
v 0.000700 0.001034 -0.000227
v 0.000685 0.001004 -0.000069
v 0.000603 0.000988 0.000000
v 0.000459 0.000803 0.000964
v 0.000459 0.000802 0.000967
v 0.000470 0.000831 0.000893
v 0.000700 0.000940 0.000654
v 0.000615 0.000951 0.000608
v 0.000589 0.000939 0.000635
v 0.000378 0.000400 0.001576
v 0.000391 0.000550 0.001421
v 0.000416 0.000616 0.001357
v 0.000450 0.000658 0.001320
v 0.000327 0.000123 0.001659
v 0.000330 0.000056 0.001689
v 0.000330 0.000253 0.001616
v 0.000355 0.000358 0.001586
v 0.000465 0.000678 0.001302
v 0.000700 0.001023 -0.000421
v 0.000700 0.001015 -0.000672
v 0.000365 0.000517 -0.001432
v 0.000366 0.000528 -0.001419
v 0.000379 0.000567 -0.001378
v 0.000428 0.000651 -0.001288
v 0.000248 0.000167 -0.001482
v 0.000251 0.000258 -0.001469
v 0.000252 0.000265 -0.001468
v 0.000271 0.000308 -0.001462
v 0.000242 0.000000 -0.001510
v 0.000633 0.000826 -0.001114
v 0.000522 0.000781 -0.001147
v 0.000519 0.000778 -0.001150
v 0.000700 0.000833 -0.001112
v 0.000700 0.000844 -0.001101
v 0.000692 0.000836 -0.001108
v 0.000468 0.000724 -0.001210
v 0.000700 0.000917 -0.000912
v 0.000447 0.000772 0.001045
v 0.000456 0.000794 0.000989
v 0.000453 0.000740 0.001132
v 0.000459 0.000802 0.000969
v -0.000415 0.000461 0.001340
v -0.000419 0.000434 0.001366
v -0.000361 0.000677 0.001070
v -0.000352 0.000705 0.001021
v -0.000372 0.000570 0.001240
v -0.000361 0.000632 0.001151
v -0.000354 0.000612 0.001204
v -0.000410 0.000351 0.001451
v -0.000433 0.000200 0.001523
v -0.000426 0.000113 0.001569
v -0.000399 0.000000 0.001627
v -0.000419 -0.000091 0.001581
v -0.000419 0.000091 0.001581
v -0.000426 -0.000113 0.001569
v -0.000433 -0.000200 0.001523
v -0.000410 -0.000351 0.001451
v -0.000419 -0.000434 0.001366
v -0.000415 -0.000461 0.001340
v -0.000372 -0.000570 0.001240
v -0.000354 -0.000612 0.001204
v -0.000361 -0.000677 0.001070
v -0.000361 -0.000632 0.001151
v -0.000352 -0.000705 0.001021
v -0.000067 0.000961 0.000551
v -0.000008 0.000965 0.000504
v -0.000000 0.000965 0.000508
v -0.000138 0.000979 0.000000
v -0.000040 0.000995 -0.000138
v -0.000032 0.000997 -0.000147
v -0.000096 0.000959 0.000566
v -0.000093 0.000957 0.000577
v -0.000003 0.000948 0.000611
v -0.000036 0.000951 0.000602
v -0.000000 0.000948 0.000611
v -0.000099 0.000959 0.000565
v -0.000102 0.000954 0.000581
v -0.000187 0.000961 0.000146
v -0.000188 0.000958 0.000166
v -0.000180 0.000947 0.000309
v -0.000102 0.000958 0.000558
v -0.000258 0.000841 0.000782
v -0.000244 0.000851 0.000763
v -0.000307 0.000769 0.000910
v -0.000307 -0.000769 0.000910
v -0.000258 -0.000841 0.000782
v -0.000188 -0.000958 0.000166
v -0.000180 -0.000947 0.000309
v -0.000187 -0.000961 0.000146
v -0.000102 -0.000958 0.000558
v -0.000244 -0.000851 0.000763
v -0.000099 -0.000959 0.000565
v -0.000102 -0.000954 0.000581
v -0.000096 -0.000959 0.000566
v -0.000093 -0.000957 0.000577
v -0.000138 -0.000979 0.000000
v -0.000040 -0.000995 -0.000138
v -0.000032 -0.000997 -0.000147
v -0.000067 -0.000961 0.000551
v -0.000008 -0.000965 0.000504
v -0.000000 -0.000965 0.000508
v -0.000003 -0.000948 0.000611
v -0.000036 -0.000951 0.000602
v -0.000000 -0.000948 0.000611
v -0.000000 0.000997 -0.000142
v -0.000000 -0.000997 -0.000142
v -0.000000 0.000843 -0.001084
v -0.000013 0.000847 -0.001080
v -0.000019 0.000845 -0.001082
v -0.000055 0.000837 -0.001089
v -0.000178 0.000783 -0.001144
v -0.000235 0.000724 -0.001204
v -0.000250 0.000698 -0.001231
v -0.000323 0.000583 -0.001341
v -0.000344 0.000527 -0.001396
v -0.000346 0.000511 -0.001411
v -0.000453 0.000275 -0.001446
v -0.000456 0.000265 -0.001447
v -0.000458 0.000244 -0.001451
v -0.000465 0.000000 -0.001493
v -0.000465 0.000000 -0.001493
v -0.000458 -0.000244 -0.001451
v -0.000456 -0.000265 -0.001447
v -0.000453 -0.000275 -0.001446
v -0.000344 -0.000527 -0.001396
v -0.000346 -0.000511 -0.001411
v -0.000323 -0.000583 -0.001341
v -0.000235 -0.000724 -0.001204
v -0.000250 -0.000698 -0.001231
v -0.000178 -0.000783 -0.001144
v -0.000055 -0.000837 -0.001089
v -0.000019 -0.000845 -0.001082
v -0.000013 -0.000847 -0.001080
v -0.000000 -0.000843 -0.001084
v -0.000000 -0.000967 0.000576
v -0.000000 0.000967 0.000576
v -0.000000 0.001005 -0.000257
v -0.000000 0.001007 -0.000217
v -0.000000 0.001015 -0.000655
v -0.000000 -0.001015 -0.000655
v -0.000000 -0.001005 -0.000257
v -0.000000 -0.001007 -0.000217
v -0.000000 -0.000848 -0.001079
v -0.000000 0.000848 -0.001079
v 0.000022 -0.001206 -0.000201
v 0.000213 -0.001283 -0.000224
v 0.000002 -0.001283 -0.000496
v -0.000000 -0.001202 -0.000199
v 0.000011 -0.001185 -0.000206
v -0.000000 -0.001181 -0.000205
v 0.000213 -0.001245 -0.000208
v -0.000000 -0.001174 -0.000334
v -0.000000 -0.001179 -0.000226
v -0.000000 -0.001165 -0.000486
v -0.000000 -0.001166 -0.000502
v -0.000000 -0.001159 -0.000579
v 0.000225 -0.001256 -0.000456
v 0.000216 -0.001322 -0.000499
v 0.000206 -0.001221 -0.000652
v 0.000036 -0.001157 -0.000761
v 0.000204 -0.001272 -0.000630
v 0.000008 -0.001202 -0.000711
v -0.000000 -0.001199 -0.000713
v -0.000000 -0.001152 -0.000760
v -0.000000 -0.001282 -0.000496
v -0.000000 -0.001207 -0.000231
v -0.000000 -0.001142 -0.000761
v -0.000000 -0.001198 -0.000199
v 0.000213 0.001283 -0.000224
v 0.000022 0.001206 -0.000201
v 0.000216 0.001322 -0.000499
v 0.000213 0.001245 -0.000208
v 0.000225 0.001256 -0.000456
v 0.000011 0.001185 -0.000206
v -0.000000 0.001181 -0.000205
v -0.000000 0.001174 -0.000334
v -0.000000 0.001165 -0.000486
v -0.000000 0.001179 -0.000226
v -0.000000 0.001166 -0.000502
v -0.000000 0.001159 -0.000579
v -0.000000 0.001142 -0.000761
v 0.000036 0.001157 -0.000761
v 0.000008 0.001202 -0.000711
v 0.000206 0.001221 -0.000652
v 0.000204 0.001272 -0.000630
v 0.000002 0.001283 -0.000496
v -0.000000 0.001199 -0.000713
v -0.000000 0.001282 -0.000496
v -0.000000 0.001152 -0.000760
v -0.000000 0.001207 -0.000231
v -0.000000 0.001202 -0.000199
v -0.000000 0.001198 -0.000199
vn -0.2088 -0.9551 -0.2100
vn -0.9820 -0.1126 -0.1514
vn -0.5823 0.7897 -0.1932
vn -0.4163 -0.8968 -0.1497
vn -0.9939 -0.0000 -0.1104
vn -0.4163 0.8968 -0.1497
vn -0.8150 -0.5194 0.2571
vn -0.9012 0.3595 0.2419
vn -0.7489 0.5077 0.4259
vn -0.5840 0.7478 0.3158
vn -0.7331 0.5957 0.3282
vn -0.7331 0.5956 0.3283
vn -0.7321 0.5970 0.3281
vn -0.8151 0.5192 0.2570
vn -0.8587 0.3167 0.4029
vn -0.8603 0.3189 0.3978
vn -0.8603 0.3186 0.3980
vn -0.8597 0.1782 0.4787
vn -0.9099 -0.0002 0.4149
vn -0.9093 0.0018 0.4162
vn -0.8597 -0.1782 0.4787
vn -0.8579 -0.3188 0.4029
vn -0.8561 -0.3179 0.4074
vn -0.8578 -0.3204 0.4018
vn -0.9167 0.2763 0.2886
vn -0.9591 0.1264 0.2532
vn -0.9530 -0.0000 0.3031
vn -0.9591 -0.1264 0.2532
vn -0.9167 -0.2763 0.2886
vn -0.9012 -0.3595 0.2419
vn -0.7489 -0.5077 0.4259
vn -0.7393 -0.5896 0.3252
vn -0.7394 -0.5895 0.3253
vn -0.7386 -0.5895 0.3269
vn -0.5840 -0.7478 0.3158
vn 0.0066 0.9963 0.0860
vn -0.0145 0.9958 0.0906
vn 0.0029 0.9961 0.0877
vn -0.2168 0.9755 -0.0388
vn -0.2136 0.9761 -0.0408
vn -0.2167 0.9755 -0.0384
vn 0.0301 0.9832 0.1798
vn 0.0313 0.9831 0.1804
vn 0.0283 0.9832 0.1805
vn -0.0887 0.9777 0.1901
vn -0.0779 0.9801 0.1825
vn -0.0844 0.9792 0.1845
vn -0.2205 0.9742 0.0477
vn -0.4168 0.9044 0.0917
vn -0.4170 0.9042 0.0922
vn -0.4165 0.9045 0.0913
vn -0.4170 0.8901 0.1842
vn -0.4174 0.8907 0.1801
vn -0.4177 0.8899 0.1835
vn -0.5771 0.7872 0.2173
vn -0.4197 0.9040 -0.0821
vn -0.5881 0.8080 -0.0356
vn -0.5879 0.8077 0.0438
vn -0.7183 0.6916 0.0758
vn -0.7233 0.6725 0.1565
vn -0.8040 0.5687 0.1739
vn -0.9313 0.3279 0.1586
vn -0.9731 0.2216 0.0635
vn -0.9935 0.1102 -0.0277
vn -0.9636 0.2320 0.1326
vn -0.9787 0.1149 0.1702
vn -0.9933 0.1102 0.0340
vn -0.9978 -0.0000 0.0667
vn -0.9909 -0.0000 0.1343
vn -0.9787 -0.1149 0.1702
vn -0.9982 -0.0000 -0.0604
vn -0.9935 -0.1102 -0.0277
vn -0.9934 -0.1100 0.0340
vn -0.9731 -0.2216 0.0635
vn -0.9636 -0.2320 0.1326
vn -0.9313 -0.3279 0.1586
vn -0.8040 -0.5687 0.1739
vn -0.7183 -0.6916 0.0758
vn -0.5881 -0.8080 -0.0356
vn -0.7233 -0.6725 0.1565
vn -0.5603 -0.7942 0.2353
vn -0.5879 -0.8077 0.0438
vn -0.3711 -0.9218 0.1120
vn -0.3694 -0.9222 0.1145
vn -0.3707 -0.9221 0.1113
vn -0.4170 -0.8901 0.1842
vn -0.4177 -0.8899 0.1834
vn -0.4174 -0.8907 0.1802
vn -0.0779 -0.9801 0.1825
vn -0.0887 -0.9777 0.1901
vn -0.0844 -0.9792 0.1845
vn -0.4197 -0.9040 -0.0821
vn -0.0635 -0.9857 0.1563
vn -0.0685 -0.9850 0.1584
vn -0.0688 -0.9853 0.1565
vn -0.2205 -0.9742 0.0477
vn -0.0481 -0.9942 0.0967
vn -0.0152 -0.9959 0.0888
vn -0.0249 -0.9952 0.0946
vn 0.0227 -0.9813 0.1909
vn 0.0229 -0.9813 0.1909
vn 0.0221 -0.9813 0.1911
vn 0.0122 0.9962 -0.0862
vn 0.0132 0.9961 -0.0874
vn 0.0127 0.9961 -0.0872
vn 0.2023 0.9506 -0.2354
vn -0.0108 0.9838 -0.1791
vn -0.0110 0.9836 -0.1798
vn -0.0110 0.9837 -0.1796
vn -0.2088 0.9551 -0.2100
vn -0.8847 0.4500 0.1215
vn -0.8188 0.5732 0.0317
vn -0.7177 0.6922 -0.0758
vn -0.8894 0.4523 0.0664
vn -0.9415 0.3358 0.0291
vn -0.8186 0.5730 -0.0390
vn -0.8890 0.4520 -0.0735
vn -0.9413 0.3357 -0.0358
vn -0.9732 0.2211 -0.0635
vn -0.6985 0.6979 -0.1584
vn -0.7985 0.5694 -0.1954
vn -0.8816 0.4483 -0.1477
vn -0.9292 0.3239 -0.1780
vn -0.9692 0.2078 -0.1320
vn -0.9820 0.1126 -0.1514
vn -0.8847 -0.4500 0.1215
vn -0.9415 -0.3358 0.0291
vn -0.9732 -0.2211 -0.0635
vn -0.8894 -0.4523 0.0664
vn -0.8188 -0.5732 0.0317
vn -0.9413 -0.3357 -0.0358
vn -0.8890 -0.4520 -0.0735
vn -0.8186 -0.5730 -0.0390
vn -0.7178 -0.6921 -0.0758
vn -0.9692 -0.2078 -0.1320
vn -0.9292 -0.3239 -0.1780
vn -0.8816 -0.4483 -0.1477
vn -0.7985 -0.5694 -0.1954
vn -0.6985 -0.6979 -0.1584
vn -0.5823 -0.7897 -0.1932
vn 0.0132 -0.9961 -0.0874
vn 0.0122 -0.9962 -0.0862
vn 0.0127 -0.9961 -0.0872
vn -0.0110 -0.9836 -0.1798
vn -0.0108 -0.9838 -0.1791
vn -0.0110 -0.9837 -0.1796
vn 0.2023 -0.9506 -0.2354
vn 0.1745 0.9223 -0.3448
vn 0.1798 0.9181 -0.3531
vn 0.1747 0.9220 -0.3456
vn -0.1148 0.9174 -0.3811
vn -0.1304 0.9172 -0.3765
vn -0.1155 0.9175 -0.3805
vn -0.2654 0.9138 -0.3076
vn -0.2654 0.9137 -0.3076
vn -0.5204 0.8006 -0.2969
vn -0.5202 0.8007 -0.2971
vn -0.5202 0.8007 -0.2970
vn -0.6073 0.7161 -0.3439
vn -0.6074 0.7156 -0.3449
vn -0.6074 0.7161 -0.3440
vn -0.7676 0.5719 -0.2894
vn -0.7676 0.5722 -0.2890
vn -0.7675 0.5721 -0.2891
vn -0.8419 0.4278 -0.3290
vn -0.9209 0.2847 -0.2662
vn -0.9208 0.2857 -0.2654
vn -0.9208 0.2855 -0.2658
vn -0.9205 0.0915 -0.3798
vn -0.9480 0.1497 -0.2809
vn -0.9480 0.1499 -0.2807
vn -0.9708 0.0752 -0.2278
vn -0.9708 -0.0752 -0.2278
vn 0.0004 0.0008 1.0000
vn 0.0028 -0.0000 1.0000
vn -0.0000 -0.0000 1.0000
vn -0.9481 -0.1496 -0.2806
vn -0.9156 -0.3043 -0.2627
vn -0.9158 -0.3035 -0.2631
vn -0.9156 -0.3043 -0.2628
vn -0.8202 -0.4275 -0.3803
vn -0.8195 -0.4291 -0.3798
vn -0.8200 -0.4284 -0.3795
vn -0.7689 -0.5694 -0.2908
vn -0.7690 -0.5691 -0.2912
vn -0.7689 -0.5694 -0.2909
vn -0.6075 -0.7155 -0.3449
vn -0.6074 -0.7161 -0.3439
vn -0.6074 -0.7160 -0.3440
vn -0.5202 -0.8007 -0.2971
vn -0.5205 -0.8006 -0.2970
vn -0.5203 -0.8007 -0.2971
vn -0.2657 -0.9136 -0.3077
vn -0.2658 -0.9136 -0.3077
vn -0.1573 -0.9124 -0.3779
vn -0.1533 -0.9117 -0.3813
vn -0.1552 -0.9121 -0.3795
vn 0.1795 -0.9172 -0.3558
vn 0.1618 -0.9266 -0.3395
vn 0.1618 -0.9250 -0.3439
vn -1.0000 -0.0000 -0.0000
vn 0.0473 -0.9985 -0.0265
vn 0.0477 -0.9985 -0.0271
vn 0.0476 -0.9985 -0.0274
vn -0.0591 -0.9957 0.0707
vn -0.0577 -0.9957 0.0728
vn -0.0587 -0.9958 0.0703
vn -0.0379 -0.9823 0.1835
vn -0.0376 -0.9823 0.1835
vn -0.0378 -0.9825 0.1826
vn -0.0294 -0.9818 0.1877
vn -0.0291 -0.9819 0.1874
vn -0.0308 -0.9817 0.1879
vn -0.0748 -0.9321 0.3543
vn -0.0767 -0.9313 0.3561
vn -0.0735 -0.9322 0.3545
vn -0.0018 -0.9251 0.3797
vn 0.0004 -0.9254 0.3790
vn 0.0016 -0.9244 0.3814
vn -0.0590 -0.9982 0.0112
vn -0.0598 -0.9982 0.0107
vn -0.0592 -0.9982 0.0108
vn -0.0556 -0.8860 0.4604
vn -0.0549 -0.8851 0.4622
vn -0.0559 -0.8856 0.4610
vn 0.0085 -0.9920 0.1261
vn 0.0094 -0.9916 0.1287
vn 0.0099 -0.9922 0.1243
vn -0.1658 -0.6961 0.6985
vn -0.1663 -0.6958 0.6988
vn -0.1670 -0.6957 0.6987
vn -0.1747 -0.4452 0.8782
vn -0.1741 -0.4462 0.8778
vn -0.1743 -0.4453 0.8782
vn -0.1489 -0.7182 0.6798
vn -0.1497 -0.7181 0.6796
vn -0.1498 -0.7182 0.6796
vn -0.0505 -0.3155 0.9476
vn -0.0522 -0.3144 0.9479
vn -0.0513 -0.3157 0.9475
vn -0.1340 -0.7186 0.6824
vn -0.0386 -0.9991 0.0180
vn -0.0394 -0.9991 0.0178
vn -0.0388 -0.9991 0.0178
vn -0.0184 -0.9993 -0.0324
vn -0.0185 -0.9993 -0.0325
vn -0.0192 -0.9993 -0.0329
vn 0.0250 -0.9303 -0.3661
vn 0.0252 -0.9302 -0.3662
vn 0.0251 -0.9302 -0.3661
vn 0.0010 -0.7297 -0.6838
vn 0.1342 -0.6516 -0.7466
vn 0.1372 -0.6514 -0.7462
vn 0.1340 -0.6515 -0.7467
vn -0.0509 -0.1678 -0.9845
vn -0.0522 -0.1683 -0.9844
vn -0.0520 -0.1681 -0.9844
vn -0.0156 -0.1429 -0.9896
vn -0.0152 -0.1424 -0.9897
vn -0.0139 -0.1428 -0.9897
vn -0.0456 -0.6690 -0.7418
vn -0.0494 -0.6670 -0.7434
vn -0.0494 -0.6726 -0.7384
vn -0.0457 -0.9322 -0.3589
vn -0.0460 -0.9322 -0.3589
vn -0.0474 -0.9321 -0.3592
vn -0.0842 -0.8947 0.4387
vn -0.0842 -0.8948 0.4384
vn -0.0840 -0.8951 0.4379
vn -0.0767 -0.9317 0.3551
vn -0.0755 -0.9319 0.3547
vn -0.0755 -0.9319 0.3548
vn -0.1850 -0.8993 0.3964
vn -0.1481 -0.9367 0.3174
vn -0.1406 -0.9196 0.3668
vn -0.1239 -0.9292 0.3481
vn 0.0127 0.9996 -0.0263
vn 0.0150 0.9995 -0.0262
vn 0.0145 0.9995 -0.0275
vn -0.0587 0.9958 0.0700
vn -0.0575 0.9957 0.0722
vn -0.0590 0.9958 0.0707
vn -0.0376 0.9823 0.1835
vn -0.0379 0.9823 0.1835
vn -0.0374 0.9825 0.1826
vn -0.0371 0.9911 0.1275
vn -0.0387 0.9910 0.1278
vn -0.0373 0.9911 0.1277
vn -0.0750 0.9321 0.3543
vn -0.0735 0.9322 0.3544
vn -0.0767 0.9313 0.3561
vn 0.0287 0.8832 0.4681
vn 0.0270 0.8840 0.4667
vn 0.0281 0.8838 0.4670
vn -0.0655 0.9978 0.0138
vn -0.0647 0.9978 0.0143
vn -0.0654 0.9978 0.0137
vn -0.1025 0.8926 0.4391
vn -0.1024 0.8926 0.4390
vn -0.1024 0.8927 0.4388
vn 0.0093 0.9918 0.1274
vn 0.0087 0.9921 0.1248
vn 0.0086 0.9921 0.1254
vn -0.1781 0.7007 0.6909
vn -0.1774 0.7006 0.6911
vn -0.1768 0.7013 0.6906
vn -0.1356 0.4472 0.8841
vn -0.1361 0.4469 0.8842
vn -0.1355 0.4475 0.8840
vn -0.1455 0.7155 0.6833
vn -0.1463 0.7153 0.6833
vn -0.1477 0.7155 0.6828
vn -0.1586 0.3144 0.9359
vn -0.1581 0.3146 0.9360
vn -0.1590 0.3139 0.9361
vn -0.1340 0.7186 0.6824
vn -0.0326 0.9982 -0.0503
vn -0.0323 0.9982 -0.0500
vn -0.0328 0.9982 -0.0504
vn -0.0370 0.9977 -0.0570
vn -0.0372 0.9977 -0.0572
vn -0.0384 0.9976 -0.0577
vn 0.0252 0.9302 -0.3662
vn 0.0250 0.9303 -0.3661
vn 0.0251 0.9302 -0.3661
vn -0.0038 0.7260 -0.6877
vn -0.0046 0.7265 -0.6872
vn -0.0039 0.7265 -0.6872
vn 0.0337 0.6851 -0.7277
vn 0.0327 0.6848 -0.7280
vn 0.0335 0.6851 -0.7276
vn -0.0505 0.1700 -0.9842
vn -0.0480 0.1708 -0.9841
vn -0.0509 0.1706 -0.9840
vn 0.0101 0.1646 -0.9863
vn 0.0105 0.1650 -0.9862
vn 0.0096 0.1656 -0.9861
vn -0.0494 0.6726 -0.7384
vn -0.0494 0.6669 -0.7435
vn -0.0456 0.6690 -0.7418
vn -0.0305 0.9257 -0.3771
vn -0.0324 0.9257 -0.3769
vn -0.0314 0.9258 -0.3768
vn -0.1799 0.8633 0.4715
vn -0.1800 0.8627 0.4726
vn -0.1801 0.8630 0.4720
vn -0.0914 0.9325 0.3494
vn -0.0923 0.9323 0.3497
vn -0.0912 0.9327 0.3490
vn -0.1239 0.9292 0.3481
vn -0.1481 0.9367 0.3174
vn -0.1850 0.8993 0.3964
vn -0.1406 0.9196 0.3668
vn 0.2089 0.9551 0.2100
vn 0.9820 0.1126 0.1514
vn 0.5823 -0.7897 0.1932
vn 0.4163 0.8968 0.1497
vn 0.9939 -0.0000 0.1104
vn 0.4163 -0.8968 0.1497
vn 0.8150 0.5193 -0.2570
vn 0.9012 -0.3596 -0.2419
vn 0.7495 -0.5067 -0.4260
vn 0.5849 -0.7463 -0.3175
vn 0.5851 -0.7465 -0.3167
vn 0.5848 -0.7464 -0.3177
vn 0.7397 -0.5893 -0.3249
vn 0.7398 -0.5896 -0.3241
vn 0.7397 -0.5896 -0.3243
vn 0.8150 -0.5193 -0.2570
vn 0.8593 -0.3159 -0.4022
vn 0.8595 -0.3154 -0.4022
vn 0.8594 -0.3157 -0.4022
vn 0.8599 -0.1803 -0.4776
vn 0.8595 -0.1792 -0.4788
vn 0.8595 -0.1792 -0.4787
vn 0.9091 -0.0000 -0.4165
vn 0.9091 0.0001 -0.4165
vn 0.9091 -0.0001 -0.4165
vn 0.8594 0.1792 -0.4788
vn 0.8599 0.1803 -0.4776
vn 0.8595 0.1792 -0.4787
vn 0.8595 0.3154 -0.4023
vn 0.8593 0.3158 -0.4022
vn 0.8594 0.3157 -0.4022
vn 0.9167 -0.2763 -0.2886
vn 0.9591 -0.1264 -0.2532
vn 0.9529 -0.0000 -0.3032
vn 0.9591 0.1264 -0.2532
vn 0.9167 0.2763 -0.2886
vn 0.9012 0.3596 -0.2419
vn 0.7497 0.5064 -0.4261
vn 0.7497 0.5064 -0.4260
vn 0.7398 0.5896 -0.3241
vn 0.7397 0.5893 -0.3249
vn 0.7398 0.5896 -0.3243
vn 0.5851 0.7465 -0.3168
vn 0.5849 0.7464 -0.3175
vn 0.5848 0.7464 -0.3177
vn -0.0005 -0.9961 -0.0883
vn 0.2180 -0.9755 0.0309
vn 0.2179 -0.9755 0.0299
vn 0.2178 -0.9755 0.0298
vn -0.0291 -0.9825 -0.1837
vn -0.0292 -0.9825 -0.1838
vn -0.0302 -0.9822 -0.1852
vn 0.2090 -0.9492 -0.2352
vn 0.2018 -0.9502 -0.2376
vn 0.2052 -0.9496 -0.2368
vn 0.2064 -0.9777 -0.0384
vn 0.2080 -0.9770 -0.0474
vn 0.2100 -0.9768 -0.0422
vn 0.2203 -0.9743 -0.0477
vn 0.3882 -0.9157 -0.1034
vn 0.3879 -0.9159 -0.1034
vn 0.3866 -0.9163 -0.1041
vn 0.4103 -0.8931 -0.1845
vn 0.4090 -0.8940 -0.1831
vn 0.4093 -0.8936 -0.1841
vn 0.6412 -0.7673 -0.0016
vn 0.6419 -0.7668 -0.0015
vn 0.6433 -0.7656 0.0003
vn 0.4197 -0.9039 0.0823
vn 0.5880 -0.8081 0.0356
vn 0.5880 -0.8077 -0.0438
vn 0.7183 -0.6915 -0.0758
vn 0.7234 -0.6724 -0.1565
vn 0.8040 -0.5687 -0.1739
vn 0.9313 -0.3279 -0.1585
vn 0.9731 -0.2216 -0.0635
vn 0.9935 -0.1101 0.0277
vn 0.9636 -0.2320 -0.1326
vn 0.9787 -0.1150 -0.1702
vn 0.9933 -0.1100 -0.0340
vn 0.9978 -0.0000 -0.0667
vn 0.9909 -0.0000 -0.1343
vn 0.9787 0.1150 -0.1702
vn 0.9982 -0.0000 0.0604
vn 0.9935 0.1101 0.0277
vn 0.9933 0.1100 -0.0340
vn 0.9731 0.2216 -0.0635
vn 0.9636 0.2320 -0.1326
vn 0.9313 0.3279 -0.1585
vn 0.8040 0.5687 -0.1739
vn 0.7183 0.6915 -0.0758
vn 0.5880 0.8081 0.0356
vn 0.7234 0.6724 -0.1565
vn 0.5883 0.7835 -0.2001
vn 0.5864 0.7844 -0.2021
vn 0.5882 0.7835 -0.2005
vn 0.5880 0.8077 -0.0438
vn 0.4215 0.9025 -0.0887
vn 0.4207 0.9029 -0.0888
vn 0.4196 0.9032 -0.0900
vn 0.4132 0.8935 -0.1758
vn 0.4129 0.8937 -0.1756
vn 0.4125 0.8940 -0.1750
vn 0.1764 0.9580 -0.2262
vn 0.1847 0.9570 -0.2238
vn 0.1811 0.9573 -0.2252
vn 0.4197 0.9039 0.0823
vn 0.2179 0.9755 0.0299
vn 0.2180 0.9755 0.0309
vn 0.2146 0.9762 0.0305
vn 0.2080 0.9770 -0.0474
vn 0.2064 0.9777 -0.0384
vn 0.2100 0.9768 -0.0422
vn 0.2204 0.9742 -0.0477
vn -0.0005 0.9961 -0.0883
vn -0.0159 0.9847 -0.1735
vn -0.0161 0.9846 -0.1739
vn -0.0150 0.9848 -0.1728
vn -0.0077 -0.9961 0.0877
vn -0.0060 -0.9960 0.0888
vn -0.0076 -0.9961 0.0880
vn -0.2023 -0.9506 0.2354
vn 0.0291 -0.9825 0.1841
vn 0.0278 -0.9827 0.1831
vn 0.2089 -0.9551 0.2100
vn 0.8847 -0.4500 -0.1215
vn 0.8188 -0.5732 -0.0319
vn 0.7177 -0.6922 0.0758
vn 0.8894 -0.4523 -0.0664
vn 0.9415 -0.3358 -0.0291
vn 0.8186 -0.5730 0.0390
vn 0.8890 -0.4520 0.0735
vn 0.9413 -0.3357 0.0358
vn 0.9732 -0.2211 0.0635
vn 0.6985 -0.6979 0.1584
vn 0.7985 -0.5694 0.1954
vn 0.8816 -0.4483 0.1477
vn 0.9292 -0.3239 0.1780
vn 0.9692 -0.2078 0.1320
vn 0.9820 -0.1126 0.1514
vn 0.8847 0.4500 -0.1215
vn 0.9415 0.3358 -0.0291
vn 0.9732 0.2211 0.0635
vn 0.8894 0.4523 -0.0664
vn 0.8188 0.5732 -0.0319
vn 0.9413 0.3357 0.0358
vn 0.8890 0.4520 0.0735
vn 0.8186 0.5730 0.0390
vn 0.7178 0.6921 0.0758
vn 0.9692 0.2078 0.1320
vn 0.9292 0.3239 0.1780
vn 0.8816 0.4483 0.1477
vn 0.7985 0.5694 0.1954
vn 0.6985 0.6979 0.1584
vn 0.5823 0.7897 0.1932
vn -0.0060 0.9960 0.0889
vn -0.0077 0.9961 0.0877
vn -0.0077 0.9961 0.0880
vn 0.0100 0.9839 0.1785
vn 0.0112 0.9836 0.1798
vn 0.0112 0.9837 0.1796
vn -0.2023 0.9506 0.2354
vn -0.1584 -0.9228 0.3513
vn -0.1486 -0.9275 0.3429
vn -0.1491 -0.9269 0.3444
vn 0.1215 -0.9168 0.3803
vn 0.2712 -0.9110 0.3107
vn 0.2713 -0.9106 0.3117
vn 0.2713 -0.9108 0.3112
vn 0.5150 -0.8043 0.2966
vn 0.5172 -0.8034 0.2949
vn 0.5179 -0.8034 0.2938
vn 0.6027 -0.7198 0.3445
vn 0.6009 -0.7217 0.3436
vn 0.6019 -0.7208 0.3439
vn 0.7678 -0.5716 0.2895
vn 0.7678 -0.5696 0.2933
vn 0.7677 -0.5716 0.2898
vn 0.7957 -0.4047 0.4506
vn 0.8418 -0.4260 0.3315
vn 0.8426 -0.4255 0.3301
vn 0.8425 -0.4255 0.3304
vn 0.9159 -0.3035 0.2628
vn 0.8506 -0.2108 0.4817
vn 0.8056 -0.1249 0.5792
vn 0.8050 -0.1266 0.5797
vn 0.8049 -0.1266 0.5797
vn 0.9480 -0.1496 0.2809
vn 0.9708 -0.0752 0.2277
vn 0.9708 0.0752 0.2277
vn 0.9218 0.0947 0.3759
vn 0.9217 0.0922 0.3768
vn 0.9218 0.0945 0.3759
vn 0.9480 0.1496 0.2809
vn 0.9158 0.3035 0.2628
vn 0.8506 0.2109 0.4817
vn 0.7957 0.4047 0.4507
vn 0.8418 0.4260 0.3315
vn 0.8425 0.4255 0.3304
vn 0.8426 0.4255 0.3301
vn 0.7721 0.5628 0.2951
vn 0.7727 0.5627 0.2937
vn 0.7725 0.5628 0.2941
vn 0.6009 0.7217 0.3436
vn 0.6027 0.7198 0.3445
vn 0.6019 0.7208 0.3439
vn 0.4971 0.8297 0.2538
vn 0.4950 0.8295 0.2586
vn 0.4973 0.8289 0.2562
vn 0.2714 0.9106 0.3117
vn 0.2713 0.9110 0.3106
vn 0.2713 0.9108 0.3112
vn 0.1215 0.9168 0.3803
vn -0.1777 0.9219 0.3442
vn -0.1976 0.9144 0.3533
vn -0.1781 0.9215 0.3452
vn 1.0000 -0.0000 -0.0000
vn 1.0000 0.0001 -0.0000
vn 0.0917 0.2833 0.9546
vn 0.0996 0.2815 0.9544
vn 0.0924 0.2859 0.9538
vn -0.1758 -0.9752 0.1348
vn -0.1765 -0.9750 0.1349
vn -0.1761 -0.9751 0.1347
vn -0.3172 -0.9127 0.2574
vn -0.3169 -0.9123 0.2594
vn -0.3175 -0.9125 0.2580
vn 0.1963 0.2820 0.9391
vn 0.1914 0.2566 0.9474
vn 0.2026 0.2683 0.9418
vn 0.2934 0.9514 0.0931
vn 0.3203 0.9456 0.0567
vn 0.2911 0.9522 0.0931
vn 0.2921 0.9553 0.0452
vn 0.2918 0.9554 0.0461
vn 0.2920 0.9554 0.0451
vn 0.3576 0.9304 0.0805
vn 0.3573 0.9305 0.0808
vn 0.3577 0.9304 0.0801
vn 0.9883 -0.0941 -0.1197
vn 0.9888 -0.0962 -0.1138
vn 0.9886 -0.0963 -0.1156
vn 0.9979 -0.0411 0.0499
vn 0.9979 -0.0394 0.0515
vn 0.9979 -0.0411 0.0502
vn 0.2296 -0.3938 -0.8901
vn 0.2297 -0.3931 -0.8904
vn 0.2293 -0.3933 -0.8904
vn -0.1885 -0.9180 -0.3489
vn -0.1810 -0.9202 -0.3472
vn -0.1828 -0.9200 -0.3468
vn -0.2595 -0.9031 -0.3421
vn -0.2570 -0.9024 -0.3459
vn -0.2595 -0.9031 -0.3422
vn -0.1299 -0.7013 -0.7009
vn -0.1301 -0.7031 -0.6991
vn -0.1236 -0.6973 -0.7060
vn 0.3728 0.9242 0.0832
vn 0.0996 -0.2815 0.9544
vn 0.0917 -0.2833 0.9546
vn 0.0924 -0.2859 0.9538
vn -0.3354 0.9061 0.2580
vn -0.3337 0.9068 0.2576
vn -0.3345 0.9065 0.2575
vn 0.9865 0.1597 0.0367
vn 0.9864 0.1607 0.0355
vn 0.9864 0.1607 0.0357
vn 0.2921 -0.9553 0.0452
vn 0.2920 -0.9554 0.0451
vn 0.2918 -0.9554 0.0461
vn 0.3203 -0.9456 0.0567
vn 0.2934 -0.9514 0.0931
vn 0.2911 -0.9522 0.0931
vn 0.2258 -0.3254 0.9182
vn 0.2205 -0.3325 0.9170
vn 0.2242 -0.3175 0.9214
vn 0.3152 -0.9451 0.0867
vn 0.3162 -0.9448 0.0860
vn 0.3157 -0.9449 0.0865
vn 0.3728 -0.9242 0.0832
vn 0.1158 0.7689 -0.6288
vn 0.1149 0.7700 -0.6276
vn 0.1155 0.7690 -0.6287
vn -0.1299 0.7013 -0.7009
vn -0.1236 0.6973 -0.7060
vn -0.1301 0.7030 -0.6991
vn 0.9908 0.0657 -0.1185
vn 0.9904 0.0642 -0.1220
vn 0.9908 0.0656 -0.1187
vn -0.1810 0.9202 -0.3472
vn -0.1885 0.9180 -0.3489
vn -0.1828 0.9200 -0.3468
vn -0.2570 0.9024 -0.3459
vn -0.2596 0.9031 -0.3422
vn -0.2595 0.9031 -0.3422
vn -0.3172 0.9127 0.2574
vn -0.3175 0.9125 0.2580
vn -0.3169 0.9123 0.2595
vn -0.7410 0.5876 0.3250
vn -0.7419 0.5863 0.3253
vn -0.7420 0.5861 0.3255
vn -0.7470 0.5835 0.3187
vn -0.7471 0.5833 0.3189
vn -0.7458 0.5852 0.3182
vn -0.7470 0.5837 0.3182
vn -0.7462 0.5838 0.3201
vn -0.7363 0.5926 0.3266
vn -0.7352 0.5940 0.3266
vn -0.7364 0.5924 0.3269
vn -0.8522 0.3290 0.4068
vn -0.8549 0.3234 0.4056
vn -0.8525 0.3221 0.4116
vn -0.8638 0.3176 0.3910
vn -0.8639 0.3170 0.3913
vn -0.8638 0.3156 0.3926
vn -0.9168 -0.0440 0.3968
vn -0.9170 -0.0453 0.3963
vn -0.9168 -0.0465 0.3967
vn -0.9100 0.0004 0.4146
vn -0.9100 -0.0000 0.4146
vn -0.9100 -0.0003 0.4147
vn -0.5095 -0.2929 0.8091
vn -0.5127 -0.2946 0.8064
vn -0.5110 -0.2964 0.8069
vn -0.9036 0.0168 0.4280
vn -0.9039 0.0149 0.4275
vn -0.9038 0.0145 0.4277
vn -0.8591 -0.3180 0.4011
vn -0.8602 -0.3201 0.3970
vn -0.8600 -0.3212 0.3965
vn -0.8638 -0.3156 0.3926
vn -0.8640 -0.3170 0.3913
vn -0.8638 -0.3176 0.3910
vn -0.7462 -0.5837 0.3201
vn -0.7470 -0.5837 0.3182
vn -0.7458 -0.5853 0.3182
vn -0.7462 -0.5857 0.3165
vn -0.7466 -0.5860 0.3150
vn -0.7465 -0.5863 0.3148
vn -0.7392 -0.5895 0.3257
vn -0.7392 -0.5898 0.3252
vn -0.7391 -0.5899 0.3252
vn -0.7227 -0.6036 0.3368
vn -0.7235 -0.6037 0.3347
vn -0.7225 -0.6050 0.3347
vn -0.0481 0.9942 0.0967
vn -0.0249 0.9952 0.0946
vn -0.0152 0.9959 0.0888
vn -0.2606 0.9650 -0.0310
vn -0.2634 0.9642 -0.0293
vn -0.2635 0.9642 -0.0285
vn -0.2207 0.9745 -0.0395
vn -0.2208 0.9745 -0.0393
vn -0.2208 0.9745 -0.0392
vn 0.0190 0.9816 0.1900
vn 0.0176 0.9815 0.1907
vn 0.0237 0.9846 0.1732
vn 0.0218 0.9848 0.1722
vn 0.0217 0.9848 0.1723
vn 0.0649 0.9933 0.0952
vn 0.0631 0.9936 0.0937
vn 0.0616 0.9936 0.0947
vn 0.0002 0.9776 0.2106
vn -0.0015 0.9775 0.2112
vn -0.0011 0.9775 0.2109
vn -0.2218 0.9441 0.2440
vn -0.2279 0.9422 0.2458
vn -0.2299 0.9412 0.2478
vn -0.4625 0.8812 0.0978
vn -0.4646 0.8800 0.0988
vn -0.4648 0.8798 0.0995
vn -0.4197 0.9033 0.0890
vn -0.4201 0.9031 0.0895
vn -0.4186 0.9034 0.0923
vn -0.4312 0.8975 0.0923
vn -0.4333 0.8964 0.0938
vn -0.4333 0.8963 0.0940
vn -0.4212 0.9035 0.0793
vn -0.4203 0.9037 0.0817
vn -0.4173 0.9050 0.0823
vn -0.3929 0.9027 0.1752
vn -0.3923 0.9029 0.1757
vn -0.3922 0.9029 0.1758
vn -0.3753 0.9020 0.2134
vn -0.3789 0.8995 0.2174
vn -0.3780 0.8999 0.2177
vn -0.5895 0.7785 0.2155
vn -0.5817 0.7842 0.2160
vn -0.5816 -0.7848 0.2141
vn -0.5853 -0.7819 0.2146
vn -0.4187 -0.9034 0.0923
vn -0.4201 -0.9030 0.0895
vn -0.4197 -0.9033 0.0890
vn -0.4239 -0.9011 0.0906
vn -0.4237 -0.9013 0.0900
vn -0.4236 -0.9014 0.0898
vn -0.4134 -0.9055 0.0959
vn -0.4146 -0.9053 0.0924
vn -0.4152 -0.9050 0.0932
vn -0.3922 -0.9029 0.1758
vn -0.3923 -0.9029 0.1757
vn -0.3928 -0.9028 0.1752
vn -0.4173 -0.9050 0.0823
vn -0.4203 -0.9037 0.0817
vn -0.4212 -0.9035 0.0793
vn -0.3779 -0.8999 0.2177
vn -0.3789 -0.8996 0.2173
vn -0.3753 -0.9020 0.2135
vn -0.2299 -0.9412 0.2478
vn -0.2279 -0.9422 0.2458
vn -0.2218 -0.9441 0.2440
vn -0.2202 -0.9746 -0.0405
vn -0.2208 -0.9744 -0.0421
vn -0.2201 -0.9745 -0.0431
vn -0.2213 -0.9744 -0.0391
vn -0.2213 -0.9744 -0.0394
vn -0.2212 -0.9744 -0.0396
vn 0.0066 -0.9963 0.0860
vn 0.0029 -0.9961 0.0877
vn -0.0145 -0.9958 0.0906
vn 0.0270 -0.9848 0.1714
vn 0.0283 -0.9849 0.1707
vn 0.0291 -0.9849 0.1708
vn 0.0068 -0.9893 0.1455
vn 0.0074 -0.9893 0.1454
vn 0.0081 -0.9893 0.1454
vn -0.0013 -0.9817 0.1906
vn -0.0002 -0.9818 0.1901
vn 0.0010 -0.9817 0.1904
vn 0.0513 -0.9899 0.1323
vn 0.0528 -0.9899 0.1315
vn 0.0531 -0.9899 0.1315
vn -0.0045 0.9961 -0.0886
vn -0.0047 0.9961 -0.0885
vn -0.0292 0.9825 -0.1841
vn -0.0291 0.9825 -0.1841
vn -0.0277 0.9827 -0.1830
vn -0.0047 -0.9961 -0.0885
vn -0.0045 -0.9961 -0.0886
vn -0.0277 -0.9827 -0.1830
vn -0.0291 -0.9825 -0.1841
vn -0.0292 -0.9825 -0.1841
vn 0.1795 0.9172 -0.3558
vn 0.1618 0.9250 -0.3439
vn 0.1618 0.9266 -0.3395
vn -0.1573 0.9124 -0.3779
vn -0.1552 0.9121 -0.3795
vn -0.1533 0.9117 -0.3813
vn -0.2754 0.9083 -0.3149
vn -0.2756 0.9083 -0.3146
vn -0.2756 0.9085 -0.3142
vn -0.5172 0.8045 -0.2920
vn -0.5175 0.8044 -0.2919
vn -0.5179 0.8043 -0.2912
vn -0.6075 0.7157 -0.3446
vn -0.6074 0.7160 -0.3440
vn -0.6057 0.7178 -0.3433
vn -0.7690 0.5693 -0.2908
vn -0.7691 0.5691 -0.2910
vn -0.8202 0.4275 -0.3803
vn -0.8200 0.4284 -0.3795
vn -0.8195 0.4291 -0.3798
vn -0.9157 0.3042 -0.2627
vn -0.9158 0.3035 -0.2631
vn -0.9482 0.1484 -0.2810
vn -0.9482 0.1483 -0.2810
vn -0.9205 -0.0914 -0.3798
vn -0.9205 -0.0915 -0.3798
vn -0.9483 -0.1483 -0.2806
vn -0.9209 -0.2847 -0.2663
vn -0.9208 -0.2855 -0.2658
vn -0.9208 -0.2857 -0.2654
vn -0.8419 -0.4278 -0.3290
vn -0.7675 -0.5720 -0.2895
vn -0.7674 -0.5723 -0.2892
vn -0.7675 -0.5723 -0.2889
vn -0.6057 -0.7178 -0.3433
vn -0.6075 -0.7156 -0.3446
vn -0.5180 -0.8043 -0.2912
vn -0.5175 -0.8043 -0.2919
vn -0.5173 -0.8045 -0.2921
vn -0.2759 -0.9084 -0.3140
vn -0.2760 -0.9082 -0.3147
vn -0.2756 -0.9082 -0.3151
vn -0.1148 -0.9174 -0.3811
vn -0.1155 -0.9175 -0.3805
vn -0.1304 -0.9172 -0.3765
vn 0.1744 -0.9223 -0.3448
vn 0.1747 -0.9220 -0.3456
vn 0.1798 -0.9181 -0.3531
vn 0.0120 -0.9996 -0.0250
vn 0.0137 -0.9996 -0.0237
vn 0.0127 -0.9996 -0.0233
vn 0.0157 -0.9998 0.0094
vn 0.0156 -0.9998 0.0097
vn 0.0154 -0.9998 0.0099
vn 0.0480 -0.9984 -0.0296
vn 0.0479 -0.9984 -0.0289
vn 0.0472 -0.9985 -0.0285
vn -0.0556 -0.9964 0.0645
vn -0.0591 -0.9962 0.0639
vn -0.0594 -0.9963 0.0626
vn -0.1028 -0.9946 0.0142
vn -0.1038 -0.9945 0.0135
vn -0.1039 -0.9945 0.0133
vn -0.1102 -0.9938 0.0129
vn -0.1084 -0.9940 0.0135
vn -0.1106 -0.9938 0.0115
vn -0.0651 -0.9955 0.0686
vn -0.0696 -0.9952 0.0694
vn -0.0697 -0.9952 0.0694
vn -0.0602 -0.9980 0.0201
vn -0.0604 -0.9980 0.0199
vn -0.0605 -0.9980 0.0182
vn -0.0999 -0.9948 0.0217
vn -0.0982 -0.9949 0.0230
vn -0.0999 -0.9948 0.0212
vn -0.0593 -0.9957 0.0707
vn -0.0575 -0.9957 0.0723
vn -0.0589 -0.9958 0.0699
vn -0.0579 -0.9958 0.0712
vn -0.0592 -0.9959 0.0690
vn -0.0591 -0.9959 0.0691
vn -0.1025 -0.9882 0.1134
vn -0.1026 -0.9882 0.1134
vn -0.1029 -0.9882 0.1133
vn -0.0336 -0.9825 0.1833
vn -0.0340 -0.9825 0.1833
vn -0.0343 -0.9825 0.1831
vn -0.0126 -0.9825 0.1859
vn -0.0128 -0.9825 0.1859
vn -0.0133 -0.9826 0.1853
vn -0.1177 -0.9896 0.0829
vn -0.1185 -0.9895 0.0826
vn -0.1181 -0.9895 0.0829
vn -0.0202 -0.9812 0.1919
vn -0.0199 -0.9812 0.1919
vn -0.0202 -0.9812 0.1918
vn -0.0005 -0.0000 1.0000
vn 0.0006 -0.0004 1.0000
vn -0.0317 -0.9820 0.1861
vn -0.0315 -0.9822 0.1852
vn -0.0318 -0.9820 0.1860
vn -0.0348 -0.9825 0.1832
vn -0.0354 -0.9823 0.1837
vn -0.0358 -0.9823 0.1838
vn 0.0117 -0.9919 0.1262
vn 0.0111 -0.9919 0.1266
vn 0.0108 -0.9919 0.1267
vn -0.0287 -0.9814 0.1897
vn -0.0294 -0.9812 0.1907
vn -0.0315 -0.9813 0.1899
vn 0.0112 -0.9912 0.1317
vn 0.0105 -0.9910 0.1331
vn 0.0110 -0.9911 0.1329
vn -0.1140 -0.9422 0.3151
vn -0.1128 -0.9431 0.3128
vn -0.1107 -0.9432 0.3131
vn -0.0743 -0.9313 0.3566
vn -0.0742 -0.9313 0.3565
vn -0.0713 -0.9309 0.3583
vn -0.0746 -0.9286 0.3636
vn -0.0725 -0.9289 0.3631
vn -0.0730 -0.9289 0.3631
vn -0.0792 -0.9318 0.3542
vn -0.0785 -0.9307 0.3572
vn -0.0750 -0.9320 0.3546
vn -0.0731 -0.9323 0.3543
vn -0.0721 -0.9322 0.3546
vn -0.0724 -0.9358 0.3449
vn -0.0730 -0.9352 0.3465
vn -0.0704 -0.9361 0.3445
vn 0.0332 -0.9342 0.3553
vn 0.0337 -0.9342 0.3553
vn 0.0338 -0.9341 0.3554
vn -0.0827 -0.8807 0.4664
vn -0.0807 -0.8809 0.4663
vn -0.0801 -0.8808 0.4667
vn -0.0892 -0.8761 0.4738
vn -0.0881 -0.8759 0.4743
vn -0.0905 -0.8759 0.4740
vn 0.0603 -0.9834 -0.1714
vn 0.0617 -0.9832 -0.1715
vn 0.0618 -0.9834 -0.1705
vn -0.4297 -0.8981 0.0937
vn -0.4289 -0.8985 0.0938
vn -0.4286 -0.8985 0.0944
vn 0.0061 -0.9997 -0.0243
vn 0.0062 -0.9997 -0.0243
vn 0.0063 -0.9997 -0.0241
vn -0.0751 -0.9971 -0.0096
vn -0.0737 -0.9972 -0.0097
vn -0.0733 -0.9973 -0.0094
vn -0.2152 -0.9755 0.0465
vn -0.2142 -0.9757 0.0466
vn -0.2138 -0.9757 0.0472
vn -0.0463 -0.8817 0.4695
vn -0.0486 -0.8824 0.4679
vn -0.0469 -0.8830 0.4670
vn -0.0611 -0.8793 0.4722
vn -0.0610 -0.8795 0.4721
vn -0.0605 -0.8797 0.4716
vn -0.1253 -0.9018 0.4136
vn -0.1279 -0.9022 0.4119
vn -0.1276 -0.9024 0.4116
vn -0.0400 -0.8963 0.4416
vn -0.0395 -0.8956 0.4430
vn -0.0397 -0.8964 0.4414
vn -0.1166 -0.8734 0.4729
vn -0.1175 -0.8740 0.4715
vn -0.1162 -0.8746 0.4706
vn 0.0108 -0.9918 0.1273
vn 0.0102 -0.9921 0.1250
vn 0.0120 -0.9923 0.1230
vn 0.0062 -0.9888 0.1491
vn 0.0062 -0.9889 0.1484
vn 0.0076 -0.9891 0.1468
vn -0.1614 -0.6871 0.7084
vn -0.1617 -0.6871 0.7084
vn -0.1772 -0.6945 0.6973
vn -0.1779 -0.6940 0.6976
vn -0.1782 -0.6939 0.6976
vn -0.8017 -0.5450 0.2455
vn -0.8016 -0.5447 0.2466
vn -0.8018 -0.5444 0.2463
vn -0.1732 -0.6957 0.6972
vn -0.1741 -0.6956 0.6970
vn -0.1730 -0.6958 0.6971
vn -0.1738 -0.4458 0.8781
vn -0.1740 -0.4450 0.8785
vn -0.1748 -0.4448 0.8784
vn -0.1477 -0.4154 0.8976
vn -0.1479 -0.4153 0.8976
vn -0.0720 -0.4623 0.8838
vn -0.0712 -0.4613 0.8844
vn -0.0718 -0.4611 0.8844
vn -0.1517 -0.4181 0.8956
vn -0.1510 -0.4186 0.8955
vn -0.1515 -0.4182 0.8956
vn -0.1466 -0.7164 0.6821
vn -0.1468 -0.7163 0.6821
vn -0.1473 -0.7163 0.6821
vn -0.1146 -0.6894 0.7153
vn -0.1151 -0.6893 0.7153
vn -0.1166 -0.6895 0.7148
vn -0.1453 -0.7175 0.6812
vn -0.1454 -0.7175 0.6812
vn -0.1462 -0.7188 0.6796
vn -0.1455 -0.7155 0.6833
vn -0.1476 -0.7156 0.6828
vn -0.1463 -0.7154 0.6833
vn -0.0802 -0.4058 0.9105
vn -0.0793 -0.4067 0.9101
vn -0.0781 -0.4064 0.9103
vn -0.1613 -0.4175 0.8943
vn -0.1612 -0.4175 0.8942
vn -0.1611 -0.4175 0.8943
vn 0.0225 -0.2208 0.9751
vn 0.0213 -0.2207 0.9751
vn 0.0220 -0.2209 0.9750
vn -0.0800 -0.4044 0.9111
vn -0.0790 -0.4054 0.9107
vn -0.0780 -0.4052 0.9109
vn -0.0289 -0.2817 0.9591
vn -0.0303 -0.2804 0.9594
vn -0.0295 -0.2818 0.9590
vn -1.0000 -0.0000 -0.0003
vn -1.0000 -0.0002 -0.0003
vn -1.0000 -0.0000 0.0003
vn 0.0353 -0.9978 -0.0563
vn 0.0354 -0.9978 -0.0562
vn -0.0390 -0.9976 -0.0574
vn -0.0369 -0.9977 -0.0574
vn -0.0364 -0.9977 -0.0568
vn -0.0615 -0.9964 -0.0581
vn -0.0609 -0.9965 -0.0579
vn -0.0606 -0.9965 -0.0576
vn 0.0189 -0.9326 -0.3604
vn 0.0188 -0.9327 -0.3603
vn 0.0186 -0.9327 -0.3602
vn -0.0000 -0.7071 -0.7071
vn -0.0066 -0.7261 -0.6876
vn 0.0574 -0.7591 -0.6485
vn 0.0052 -0.7313 -0.6820
vn 0.0073 -0.7291 -0.6844
vn -0.0057 -0.7254 -0.6883
vn 0.1160 -0.6749 -0.7288
vn 0.1113 -0.6756 -0.7288
vn 0.1108 -0.6754 -0.7291
vn -0.0544 -0.7285 -0.6829
vn -0.0560 -0.7281 -0.6832
vn -0.0568 -0.7275 -0.6838
vn -0.0425 -0.7583 -0.6505
vn -0.0431 -0.7581 -0.6507
vn -0.0436 -0.7562 -0.6529
vn -0.0381 -0.7323 -0.6799
vn -0.0418 -0.7321 -0.6800
vn -0.0427 -0.7304 -0.6817
vn -0.0312 -0.7028 -0.7107
vn -0.0362 -0.7032 -0.7101
vn -0.0362 -0.7032 -0.7100
vn 0.0053 -0.6998 -0.7143
vn 0.0047 -0.6996 -0.7145
vn 0.0045 -0.6995 -0.7146
vn -0.4402 -0.2099 -0.8730
vn -0.4400 -0.2096 -0.8732
vn -0.4379 -0.2102 -0.8741
vn -0.0509 -0.1706 -0.9840
vn -0.0506 -0.1701 -0.9841
vn -0.0505 -0.1700 -0.9842
vn -0.0583 -0.1656 -0.9845
vn -0.0580 -0.1649 -0.9846
vn -0.0565 -0.1645 -0.9848
vn -0.0445 -0.1652 -0.9853
vn -0.0442 -0.1650 -0.9853
vn -0.0420 -0.1653 -0.9854
vn -0.0115 -0.1466 -0.9891
vn -0.0110 -0.1468 -0.9891
vn -0.0107 -0.1471 -0.9891
vn 0.0099 -0.1629 -0.9866
vn 0.0102 -0.1631 -0.9866
vn 0.0104 -0.1633 -0.9865
vn 0.0130 -0.1645 -0.9863
vn 0.0127 -0.1644 -0.9863
vn 0.0132 -0.1647 -0.9863
vn -0.0140 -0.1435 -0.9895
vn -0.0129 -0.1442 -0.9895
vn -0.0129 -0.1438 -0.9895
vn -0.0148 -0.1416 -0.9898
vn -0.0161 -0.1415 -0.9898
vn -0.0147 -0.1418 -0.9898
vn -0.0815 -0.7022 -0.7073
vn -0.0799 -0.7029 -0.7067
vn -0.0794 -0.7032 -0.7065
vn 0.0046 -0.7264 -0.6873
vn 0.0078 -0.7273 -0.6863
vn 0.0092 -0.7283 -0.6852
vn 0.0295 -0.7299 -0.6830
vn 0.0233 -0.7298 -0.6833
vn 0.0315 -0.7325 -0.6801
vn -0.0420 -0.6862 -0.7262
vn -0.0471 -0.6828 -0.7291
vn -0.0419 -0.6858 -0.7266
vn -0.0434 -0.6980 -0.7147
vn -0.0504 -0.7022 -0.7102
vn -0.0412 -0.7002 -0.7128
vn 0.0002 -0.7083 -0.7059
vn -0.0041 -0.7070 -0.7072
vn -0.0000 -0.7114 -0.7028
vn -0.0647 -0.9243 -0.3762
vn -0.0648 -0.9243 -0.3762
vn -0.0652 -0.9242 -0.3762
vn -0.0448 -0.9323 -0.3590
vn -0.0457 -0.9323 -0.3587
vn -0.0467 -0.9322 -0.3589
vn -0.0600 -0.8746 0.4812
vn -0.0610 -0.8751 0.4802
vn -0.0611 -0.8751 0.4802
vn -0.1519 -0.9182 0.3659
vn -0.1520 -0.9184 0.3653
vn -0.1514 -0.9188 0.3645
vn -0.7634 -0.5644 0.3141
vn -0.7636 -0.5645 0.3136
vn -0.7629 -0.5656 0.3131
vn -0.0576 -0.8708 0.4882
vn -0.0582 -0.8715 0.4869
vn -0.0584 -0.8711 0.4876
vn -0.1241 -0.9287 0.3495
vn -0.1242 -0.9285 0.3499
vn -0.1247 -0.9284 0.3501
vn -0.0922 -0.9246 0.3697
vn -0.0923 -0.9244 0.3700
vn -0.0925 -0.9244 0.3701
vn -0.0720 -0.9427 0.3257
vn -0.0721 -0.9426 0.3260
vn -0.0728 -0.9425 0.3262
vn -0.0745 -0.9334 0.3510
vn -0.0748 -0.9333 0.3513
vn 0.1850 -0.9820 0.0384
vn 0.2123 -0.9747 0.0700
vn -0.0008 -0.9915 0.1302
vn 0.0468 0.9989 0.0088
vn 0.0469 0.9989 0.0087
vn 0.0469 0.9989 0.0086
vn 0.0158 0.9996 -0.0235
vn 0.0167 0.9996 -0.0239
vn 0.0168 0.9996 -0.0246
vn 0.0125 0.9995 -0.0286
vn 0.0132 0.9995 -0.0294
vn 0.0123 0.9995 -0.0285
vn -0.0600 0.9962 0.0631
vn -0.0597 0.9961 0.0643
vn -0.0566 0.9963 0.0648
vn -0.0695 0.9952 0.0693
vn -0.0653 0.9955 0.0686
vn -0.1037 0.9945 0.0133
vn -0.1036 0.9945 0.0135
vn -0.1027 0.9946 0.0141
vn -0.1103 0.9938 0.0115
vn -0.1084 0.9940 0.0133
vn -0.1099 0.9939 0.0128
vn -0.0603 0.9980 0.0183
vn -0.0601 0.9980 0.0198
vn -0.0600 0.9980 0.0199
vn -0.0589 0.9959 0.0692
vn -0.0589 0.9959 0.0691
vn -0.0578 0.9958 0.0711
vn -0.0997 0.9948 0.0212
vn -0.0981 0.9949 0.0228
vn -0.0997 0.9948 0.0216
vn -0.0588 0.9958 0.0708
vn -0.0585 0.9958 0.0704
vn -0.0576 0.9957 0.0726
vn -0.0133 0.9826 0.1853
vn -0.0128 0.9825 0.1859
vn -0.0126 0.9825 0.1859
vn -0.0343 0.9825 0.1831
vn -0.0340 0.9825 0.1833
vn -0.0336 0.9825 0.1833
vn -0.1029 0.9882 0.1133
vn -0.1026 0.9882 0.1134
vn -0.1025 0.9882 0.1134
vn -0.1181 0.9895 0.0829
vn -0.1185 0.9895 0.0826
vn -0.1177 0.9896 0.0829
vn -0.0202 0.9812 0.1918
vn -0.0199 0.9812 0.1919
vn -0.0202 0.9812 0.1919
vn -0.0005 -0.0005 1.0000
vn -0.0318 0.9820 0.1860
vn -0.0315 0.9822 0.1852
vn -0.0320 0.9820 0.1860
vn -0.0979 0.9868 0.1293
vn -0.0966 0.9869 0.1292
vn -0.0961 0.9871 0.1282
vn 0.0089 0.9832 0.1825
vn 0.0092 0.9832 0.1825
vn 0.0092 0.9832 0.1824
vn -0.0381 0.9904 0.1328
vn -0.0364 0.9905 0.1329
vn -0.0363 0.9907 0.1314
vn -0.0216 0.9914 0.1293
vn -0.0194 0.9914 0.1294
vn -0.0191 0.9915 0.1287
vn -0.0712 0.9309 0.3583
vn -0.0743 0.9313 0.3565
vn -0.0745 0.9313 0.3565
vn -0.1264 0.9261 0.3555
vn -0.1272 0.9272 0.3524
vn -0.1272 0.9271 0.3525
vn 0.9868 0.1533 0.0523
vn 0.9868 0.1541 0.0501
vn 0.9867 0.1546 0.0504
vn -0.0731 0.9289 0.3631
vn -0.0726 0.9289 0.3631
vn -0.0747 0.9285 0.3636
vn -0.0705 0.9361 0.3445
vn -0.0731 0.9352 0.3465
vn -0.0726 0.9358 0.3449
vn -0.0722 0.9323 0.3545
vn -0.0731 0.9323 0.3543
vn -0.0752 0.9320 0.3547
vn -0.0003 0.8828 0.4697
vn 0.0009 0.8842 0.4671
vn 0.0023 0.8835 0.4684
vn -0.0727 0.9319 0.3553
vn -0.0739 0.9321 0.3546
vn -0.0745 0.9321 0.3544
vn 0.0288 0.8789 0.4762
vn 0.0277 0.8792 0.4757
vn 0.0271 0.8793 0.4755
vn 0.0618 0.9834 -0.1705
vn 0.0617 0.9832 -0.1715
vn 0.0603 0.9834 -0.1714
vn -0.0733 0.9973 -0.0094
vn -0.0737 0.9972 -0.0097
vn -0.0751 0.9971 -0.0096
vn 0.0063 0.9997 -0.0241
vn 0.0062 0.9997 -0.0243
vn 0.0061 0.9997 -0.0243
vn -0.4286 0.8985 0.0944
vn -0.4289 0.8985 0.0938
vn -0.4297 0.8981 0.0937
vn -0.0987 0.9941 -0.0457
vn -0.0991 0.9940 -0.0463
vn -0.1005 0.9939 -0.0461
vn 0.0774 0.8567 0.5099
vn 0.0763 0.8563 0.5108
vn 0.0762 0.8560 0.5113
vn -0.0606 0.8820 0.4674
vn -0.0608 0.8818 0.4677
vn -0.0604 0.8813 0.4688
vn -0.1055 0.8879 0.4478
vn -0.1056 0.8878 0.4479
vn -0.1042 0.8872 0.4494
vn -0.0510 0.8782 0.4755
vn -0.0504 0.8776 0.4767
vn -0.0213 0.8773 0.4794
vn -0.0222 0.8768 0.4804
vn -0.0222 0.8767 0.4805
vn 0.0149 0.9917 0.1277
vn 0.0148 0.9917 0.1281
vn 0.0175 0.9911 0.1318
vn 0.0076 0.9891 0.1468
vn 0.0063 0.9889 0.1484
vn 0.0062 0.9888 0.1491
vn -0.1617 0.6871 0.7083
vn -0.1614 0.6871 0.7084
vn -0.1614 0.6872 0.7083
vn -0.1747 0.6814 0.7108
vn -0.1738 0.6813 0.7111
vn -0.1732 0.6819 0.7107
vn -0.1203 0.6962 0.7077
vn -0.1197 0.6963 0.7077
vn -0.1197 0.6971 0.7069
vn -0.1725 0.6951 0.6980
vn -0.1721 0.6952 0.6979
vn -0.1731 0.6950 0.6978
vn -0.1477 0.4191 0.8958
vn -0.1474 0.4192 0.8958
vn -0.1471 0.4197 0.8957
vn -0.1748 0.4174 0.8918
vn -0.1745 0.4175 0.8918
vn -0.1742 0.4177 0.8917
vn -0.1944 0.4456 0.8739
vn -0.1937 0.4459 0.8739
vn -0.1942 0.4468 0.8733
vn -0.1380 0.4429 0.8859
vn -0.1375 0.4435 0.8857
vn -0.1375 0.4434 0.8857
vn -0.1462 0.7189 0.6796
vn -0.1454 0.7175 0.6813
vn -0.1453 0.7175 0.6813
vn -0.1166 0.6895 0.7149
vn -0.1151 0.6892 0.7153
vn -0.1145 0.6894 0.7153
vn -0.1474 0.7163 0.6821
vn -0.1468 0.7163 0.6822
vn -0.1466 0.7163 0.6822
vn -0.1499 0.7181 0.6796
vn -0.1497 0.7181 0.6796
vn -0.1488 0.7181 0.6798
vn -0.1607 0.3121 0.9364
vn -0.1611 0.3120 0.9363
vn -0.1616 0.3118 0.9363
vn -0.0787 0.4095 0.9089
vn -0.0791 0.4095 0.9089
vn -0.0796 0.4092 0.9090
vn -0.0838 0.4056 0.9102
vn -0.0837 0.4056 0.9102
vn -0.0843 0.4052 0.9103
vn -0.1614 0.3064 0.9381
vn -0.1623 0.3055 0.9383
vn -0.1621 0.3062 0.9381
vn -0.0846 0.4049 0.9105
vn -0.0843 0.4049 0.9105
vn -0.0852 0.4044 0.9106
vn -0.0395 0.9976 -0.0571
vn -0.0398 0.9976 -0.0573
vn -0.0400 0.9976 -0.0573
vn 0.0377 0.9990 0.0248
vn 0.0375 0.9990 0.0247
vn 0.0373 0.9990 0.0246
vn -0.0600 0.9977 -0.0321
vn -0.0604 0.9976 -0.0326
vn -0.0606 0.9976 -0.0327
vn -0.0364 0.9977 -0.0569
vn -0.0369 0.9977 -0.0576
vn -0.0377 0.9976 -0.0579
vn 0.0186 0.9327 -0.3602
vn 0.0188 0.9327 -0.3603
vn 0.0189 0.9326 -0.3604
vn 0.0001 0.7075 -0.7067
vn 0.0003 0.7074 -0.7068
vn -0.0007 0.7072 -0.7070
vn 0.0001 0.7074 -0.7068
vn -0.0007 0.7071 -0.7071
vn 0.0071 0.7294 -0.6841
vn 0.0076 0.7293 -0.6841
vn -0.0066 0.7638 -0.6455
vn -0.0057 0.7640 -0.6452
vn -0.0053 0.7637 -0.6456
vn -0.0935 0.7352 -0.6713
vn -0.0932 0.7359 -0.6707
vn -0.0929 0.7358 -0.6707
vn 0.0040 0.7259 -0.6877
vn 0.0045 0.7258 -0.6878
vn 0.0038 0.7253 -0.6884
vn 0.0016 0.7290 -0.6845
vn 0.0013 0.7293 -0.6842
vn 0.0012 0.7293 -0.6842
vn -0.0709 0.7118 -0.6988
vn -0.0699 0.7130 -0.6977
vn -0.0649 0.7127 -0.6985
vn -0.0427 0.7304 -0.6817
vn -0.0419 0.7321 -0.6799
vn -0.0381 0.7323 -0.6799
vn -0.0437 0.7562 -0.6529
vn -0.0431 0.7581 -0.6507
vn -0.0425 0.7584 -0.6504
vn -0.0569 0.7275 -0.6838
vn -0.0560 0.7281 -0.6832
vn -0.0544 0.7286 -0.6828
vn 0.0405 0.6824 -0.7298
vn 0.0412 0.6827 -0.7296
vn 0.0459 0.6820 -0.7300
vn -0.0126 0.7189 -0.6950
vn -0.0117 0.7203 -0.6935
vn -0.0115 0.7204 -0.6935
vn -0.4380 0.2102 -0.8741
vn -0.4400 0.2096 -0.8732
vn -0.4402 0.2099 -0.8730
vn -0.0556 0.1713 -0.9836
vn -0.0581 0.1710 -0.9836
vn -0.0584 0.1715 -0.9835
vn -0.0534 0.1666 -0.9846
vn -0.0553 0.1667 -0.9845
vn -0.0557 0.1669 -0.9844
vn -0.0533 0.1645 -0.9849
vn -0.0539 0.1646 -0.9849
vn -0.0544 0.1651 -0.9848
vn 0.0010 -0.0007 1.0000
vn -0.0001 -0.0011 1.0000
vn -0.0107 0.1641 -0.9864
vn -0.0108 0.1638 -0.9864
vn -0.0110 0.1637 -0.9864
vn 0.0345 0.1270 -0.9913
vn 0.0344 0.1269 -0.9913
vn 0.0342 0.1267 -0.9913
vn 0.0400 0.1209 -0.9919
vn 0.0399 0.1215 -0.9918
vn 0.0395 0.1206 -0.9919
vn 0.0249 0.1393 -0.9899
vn 0.0249 0.1392 -0.9900
vn 0.0243 0.1385 -0.9901
vn 0.0236 0.1402 -0.9898
vn 0.0237 0.1405 -0.9898
vn 0.0230 0.1399 -0.9899
vn 0.0006 0.0004 1.0000
vn 0.0008 -0.0000 1.0000
vn -0.0794 0.7032 -0.7065
vn -0.0799 0.7029 -0.7068
vn -0.0815 0.7022 -0.7073
vn -0.0414 0.6798 -0.7322
vn -0.0366 0.6833 -0.7292
vn -0.0433 0.6798 -0.7321
vn 0.0092 0.7283 -0.6852
vn 0.0078 0.7272 -0.6863
vn 0.0046 0.7264 -0.6873
vn 0.0316 0.7325 -0.6801
vn 0.0233 0.7298 -0.6833
vn 0.0295 0.7299 -0.6830
vn -0.0420 0.6947 -0.7181
vn -0.0494 0.6919 -0.7203
vn -0.0439 0.6927 -0.7199
vn 0.0001 0.7114 -0.7028
vn -0.0041 0.7070 -0.7072
vn 0.0002 0.7083 -0.7059
vn -0.0474 0.9317 -0.3602
vn -0.0457 0.9323 -0.3589
vn -0.0444 0.9321 -0.3595
vn -0.0649 0.9314 -0.3581
vn -0.0648 0.9314 -0.3582
vn -0.0644 0.9314 -0.3582
vn -0.0611 0.8751 0.4802
vn -0.0610 0.8751 0.4802
vn -0.0600 0.8746 0.4812
vn -0.0752 0.8722 0.4833
vn -0.0762 0.8716 0.4842
vn -0.0750 0.8711 0.4853
vn -0.1514 0.9185 0.3654
vn -0.1521 0.9180 0.3662
vn -0.1004 0.9241 0.3688
vn -0.1006 0.9238 0.3694
vn -0.1005 0.9237 0.3696
vn -0.3372 0.8923 0.3002
vn -0.3354 0.8928 0.3008
vn -0.3353 0.8929 0.3006
vn -0.0757 0.9254 0.3714
vn -0.0749 0.9256 0.3711
vn -0.0747 0.9257 0.3709
vn -0.0908 0.9316 0.3519
vn -0.0907 0.9317 0.3518
vn -0.0904 0.9318 0.3515
vn -0.0951 0.9339 0.3445
vn -0.0942 0.9341 0.3443
vn -0.0941 0.9342 0.3442
vn -0.0008 0.9915 0.1302
vn 0.2123 0.9747 0.0699
vn 0.1850 0.9820 0.0384
vn 0.7463 -0.5118 -0.4256
vn 0.5940 -0.7402 -0.3151
vn 0.5955 -0.7395 -0.3140
vn 0.5955 -0.7396 -0.3136
vn 0.5796 -0.7508 -0.3167
vn 0.5806 -0.7505 -0.3157
vn 0.5803 -0.7511 -0.3149
vn 0.5830 -0.7496 -0.3135
vn 0.5830 -0.7496 -0.3134
vn 0.5828 -0.7501 -0.3126
vn 0.7400 -0.5898 -0.3232
vn 0.7398 -0.5898 -0.3237
vn 0.7398 -0.5895 -0.3243
vn 0.8606 -0.3198 -0.3964
vn 0.8605 -0.3201 -0.3964
vn 0.8602 -0.3207 -0.3966
vn 0.8588 -0.1762 -0.4810
vn 0.8602 -0.1763 -0.4785
vn 0.8606 -0.1773 -0.4774
vn 0.9089 -0.0009 -0.4170
vn 0.9089 -0.0010 -0.4170
vn 0.9088 -0.0016 -0.4172
vn 0.9088 0.0016 -0.4172
vn 0.9089 0.0010 -0.4170
vn 0.9089 0.0009 -0.4170
vn 0.8606 0.1773 -0.4774
vn 0.8602 0.1763 -0.4785
vn 0.8588 0.1762 -0.4810
vn 0.8602 0.3207 -0.3966
vn 0.8604 0.3201 -0.3964
vn 0.8605 0.3198 -0.3964
vn 0.7465 0.5116 -0.4254
vn 0.7465 0.5115 -0.4256
vn 0.7463 0.5116 -0.4258
vn 0.7398 0.5895 -0.3243
vn 0.7399 0.5898 -0.3237
vn 0.7401 0.5897 -0.3232
vn 0.5827 0.7501 -0.3126
vn 0.5830 0.7496 -0.3134
vn 0.5830 0.7496 -0.3135
vn 0.5803 0.7511 -0.3149
vn 0.5805 0.7506 -0.3157
vn 0.5796 0.7509 -0.3167
vn 0.5955 0.7396 -0.3136
vn 0.5954 0.7395 -0.3140
vn 0.5940 0.7402 -0.3151
vn 0.2208 -0.9745 0.0392
vn 0.2208 -0.9745 0.0395
vn 0.2207 -0.9745 0.0397
vn 0.0017 0.0005 1.0000
vn 0.0018 0.0002 1.0000
vn -0.0076 -0.9859 -0.1674
vn -0.0090 -0.9857 -0.1681
vn -0.0095 -0.9857 -0.1685
vn -0.0151 -0.9824 -0.1862
vn -0.0191 -0.9822 -0.1867
vn -0.0199 -0.9820 -0.1880
vn 0.1764 -0.9580 -0.2262
vn 0.1811 -0.9573 -0.2252
vn 0.1847 -0.9570 -0.2238
vn 0.2243 -0.9733 -0.0499
vn 0.2242 -0.9733 -0.0496
vn 0.2214 -0.9741 -0.0464
vn 0.4921 -0.8639 -0.1074
vn 0.4927 -0.8636 -0.1068
vn 0.4928 -0.8633 -0.1091
vn 0.4183 -0.9032 -0.0967
vn 0.4179 -0.9033 -0.0969
vn 0.4173 -0.9035 -0.0972
vn 0.4221 -0.9021 -0.0896
vn 0.4211 -0.9025 -0.0897
vn 0.4207 -0.9027 -0.0900
vn 0.4215 -0.9025 -0.0887
vn 0.4197 -0.9032 -0.0900
vn 0.4207 -0.9028 -0.0888
vn 0.4508 -0.8783 -0.1593
vn 0.4503 -0.8782 -0.1613
vn 0.4514 -0.8776 -0.1617
vn 0.4122 -0.8926 -0.1826
vn 0.4124 -0.8925 -0.1828
vn 0.5811 -0.7829 -0.2222
vn 0.5831 -0.7819 -0.2207
vn 0.5831 -0.7820 -0.2202
vn 0.5825 -0.7833 -0.2171
vn 0.5829 -0.7832 -0.2163
vn 0.5830 -0.7833 -0.2158
vn 0.5816 -0.7836 -0.2184
vn 0.5805 -0.7841 -0.2195
vn 0.5818 -0.7837 -0.2175
vn 0.5840 -0.7832 -0.2131
vn 0.5855 -0.7827 -0.2110
vn 0.5854 -0.7826 -0.2115
vn 0.5623 -0.7840 -0.2630
vn 0.5627 -0.7837 -0.2630
vn 0.5647 -0.7831 -0.2607
vn 0.9165 0.4000 0.0011
vn 0.9168 0.3994 -0.0002
vn 0.9160 0.4012 -0.0012
vn 0.5849 0.7820 -0.2153
vn 0.5852 0.7814 -0.2168
vn 0.5851 0.7814 -0.2170
vn 0.1798 0.9336 -0.3101
vn 0.1801 0.9331 -0.3114
vn 0.1759 0.9335 -0.3125
vn 0.5831 0.7820 -0.2202
vn 0.5830 0.7819 -0.2207
vn 0.5811 0.7829 -0.2221
vn 0.5824 0.7836 -0.2164
vn 0.5823 0.7836 -0.2164
vn 0.5821 0.7836 -0.2170
vn 0.4660 0.8789 -0.1017
vn 0.4657 0.8793 -0.0993
vn 0.4665 0.8790 -0.0992
vn 0.4173 0.9036 -0.0971
vn 0.4178 0.9034 -0.0968
vn 0.4183 0.9032 -0.0967
vn 0.4928 0.8633 -0.1091
vn 0.4927 0.8636 -0.1068
vn 0.4921 0.8639 -0.1074
vn 0.4147 0.9053 -0.0917
vn 0.4153 0.9051 -0.0912
vn 0.4164 0.9046 -0.0911
vn 0.4148 0.8913 -0.1832
vn 0.4147 0.8914 -0.1831
vn 0.4144 0.8917 -0.1820
vn 0.3932 0.9019 -0.1790
vn 0.3916 0.9026 -0.1787
vn 0.3915 0.9029 -0.1772
vn 0.2090 0.9492 -0.2352
vn 0.2052 0.9496 -0.2368
vn 0.2018 0.9502 -0.2376
vn 0.2207 0.9745 0.0397
vn 0.2208 0.9745 0.0395
vn 0.2208 0.9745 0.0392
vn 0.2214 0.9741 -0.0464
vn 0.2242 0.9733 -0.0496
vn 0.2243 0.9733 -0.0499
vn -0.0094 0.9857 -0.1685
vn -0.0090 0.9857 -0.1681
vn -0.0076 0.9858 -0.1675
vn -0.0285 0.9817 -0.1881
vn -0.0277 0.9820 -0.1867
vn -0.0272 0.9821 -0.1864
vn 0.0024 -0.9960 0.0889
vn 0.0018 -0.9961 0.0883
vn 0.0099 -0.9839 0.1787
vn 0.0109 -0.9837 0.1796
vn 0.0110 -0.9836 0.1798
vn 0.0018 0.9961 0.0883
vn 0.0023 0.9960 0.0889
vn 0.0293 0.9825 0.1840
vn 0.0279 0.9827 0.1829
vn -0.1777 -0.9219 0.3442
vn -0.1781 -0.9215 0.3452
vn -0.1976 -0.9144 0.3533
vn 0.2690 -0.9115 0.3111
vn 0.2669 -0.9129 0.3089
vn 0.2670 -0.9133 0.3076
vn 0.4635 -0.8337 0.3003
vn 0.4631 -0.8337 0.3008
vn 0.4623 -0.8337 0.3021
vn 0.5200 -0.8024 0.2927
vn 0.5198 -0.8024 0.2933
vn 0.5183 -0.8027 0.2951
vn 0.6102 -0.7132 0.3450
vn 0.6138 -0.7105 0.3442
vn 0.6139 -0.7104 0.3442
vn 0.7721 -0.5628 0.2951
vn 0.7725 -0.5628 0.2941
vn 0.7727 -0.5627 0.2937
vn 0.8112 -0.4201 0.4068
vn 0.8110 -0.4201 0.4071
vn 0.8089 -0.4225 0.4089
vn 0.8185 -0.4784 0.3180
vn 0.8183 -0.4785 0.3185
vn 0.8182 -0.4785 0.3189
vn 0.8851 -0.1017 0.4542
vn 0.8874 -0.0992 0.4502
vn 0.8875 -0.0989 0.4501
vn 0.9217 -0.0926 0.3768
vn 0.9221 -0.0909 0.3761
vn 0.9221 -0.0908 0.3760
vn 0.9047 0.0603 0.4218
vn 0.9049 0.0629 0.4209
vn 0.9046 0.0642 0.4214
vn 0.9206 0.0884 0.3805
vn 0.9206 0.0888 0.3803
vn 0.9202 0.0919 0.3806
vn -0.0003 0.0044 1.0000
vn -0.0010 0.0037 1.0000
vn 0.8182 0.4785 0.3189
vn 0.8183 0.4784 0.3185
vn 0.8185 0.4784 0.3180
vn 0.8089 0.4225 0.4089
vn 0.8110 0.4201 0.4071
vn 0.8112 0.4201 0.4068
vn 0.7678 0.5716 0.2895
vn 0.7677 0.5716 0.2898
vn 0.7678 0.5696 0.2933
vn 0.6139 0.7104 0.3442
vn 0.6138 0.7105 0.3442
vn 0.6102 0.7132 0.3450
vn 0.5123 0.8065 0.2952
vn 0.5189 0.8031 0.2928
vn 0.5189 0.8041 0.2901
vn 0.5187 0.8025 0.2950
vn 0.5187 0.8025 0.2949
vn 0.5190 0.8027 0.2939
vn 0.2671 0.9133 0.3076
vn 0.2669 0.9129 0.3089
vn 0.2690 0.9115 0.3111
vn -0.1584 0.9228 0.3513
vn -0.1491 0.9269 0.3444
vn -0.1487 0.9275 0.3429
vn -0.0303 -0.3889 0.9208
vn -0.0434 -0.3753 0.9259
vn -0.0443 -0.3769 0.9252
vn -0.3354 -0.9061 0.2580
vn -0.3345 -0.9065 0.2575
vn -0.3337 -0.9068 0.2576
vn -0.4176 -0.8719 0.2558
vn -0.4176 -0.8719 0.2557
vn -0.4159 -0.8733 0.2538
vn -0.1680 -0.9739 0.1527
vn -0.1678 -0.9739 0.1526
vn -0.1675 -0.9742 0.1511
vn 0.9999 -0.0110 0.0007
vn 1.0000 -0.0022 -0.0096
vn 0.9999 0.0117 -0.0032
vn 0.1657 0.2935 0.9415
vn 0.1628 0.2941 0.9418
vn 0.1630 0.2978 0.9406
vn 0.3819 0.9241 0.0154
vn 0.3653 0.9297 0.0459
vn 0.3703 0.9271 0.0582
vn 0.2851 0.9567 0.0581
vn 0.2857 0.9566 0.0574
vn 0.2853 0.9568 0.0567
vn 0.3758 0.9264 -0.0228
vn 0.3759 0.9264 -0.0230
vn 1.0000 -0.0001 0.0006
vn 1.0000 -0.0006 0.0001
vn 1.0000 0.0002 0.0006
vn 0.3549 0.9310 0.0853
vn 0.3553 0.9309 0.0851
vn 0.3555 0.9308 0.0847
vn 0.2672 0.9528 0.1441
vn 0.2674 0.9528 0.1440
vn 0.2675 0.9528 0.1439
vn 0.9908 -0.0657 -0.1185
vn 0.9908 -0.0656 -0.1187
vn 0.9904 -0.0642 -0.1220
vn 0.9865 -0.1598 0.0367
vn 0.9863 -0.1608 0.0357
vn 0.9864 -0.1607 0.0355
vn 0.1157 -0.7689 -0.6288
vn 0.1154 -0.7690 -0.6287
vn 0.1148 -0.7700 -0.6277
vn -0.1728 -0.9271 -0.3327
vn -0.1730 -0.9271 -0.3326
vn -0.1751 -0.9266 -0.3327
vn -0.4058 -0.8530 -0.3283
vn -0.4038 -0.8536 -0.3291
vn -0.4037 -0.8537 -0.3290
vn -0.0507 -0.1032 -0.9934
vn -0.0582 -0.0975 -0.9935
vn -0.0534 -0.0971 -0.9938
vn -0.1043 -0.7163 -0.6899
vn -0.1099 -0.7106 -0.6949
vn -0.1079 -0.7081 -0.6978
vn -0.0443 0.3769 0.9252
vn -0.0434 0.3753 0.9259
vn -0.0303 0.3889 0.9208
vn -0.1758 0.9752 0.1348
vn -0.1761 0.9751 0.1347
vn -0.1765 0.9750 0.1349
vn 0.9979 0.0410 0.0499
vn 0.9979 0.0411 0.0502
vn 0.9979 0.0394 0.0514
vn 0.3759 -0.9264 -0.0230
vn 0.3758 -0.9264 -0.0228
vn 0.2853 -0.9568 0.0567
vn 0.2857 -0.9566 0.0574
vn 0.2851 -0.9567 0.0581
vn 1.0000 -0.0002 0.0006
vn 1.0000 0.0006 0.0001
vn 1.0000 0.0001 0.0006
vn 0.3703 -0.9271 0.0582
vn 0.3653 -0.9297 0.0459
vn 0.3819 -0.9241 0.0154
vn 0.2183 -0.3175 0.9228
vn 0.2181 -0.3170 0.9230
vn 0.2168 -0.3139 0.9244
vn 0.1119 -0.0054 0.9937
vn 0.1162 0.0012 0.9932
vn 0.1035 0.0113 0.9946
vn 0.3117 -0.9475 0.0710
vn 0.3116 -0.9475 0.0718
vn 0.3105 -0.9478 0.0721
vn 0.3452 -0.9292 0.1319
vn 0.3451 -0.9292 0.1320
vn 0.3450 -0.9293 0.1321
vn 0.2297 0.3938 -0.8900
vn 0.2294 0.3933 -0.8903
vn 0.2298 0.3930 -0.8903
vn -0.1079 0.7081 -0.6978
vn -0.1099 0.7106 -0.6949
vn -0.1043 0.7163 -0.6899
vn -0.0534 0.0971 -0.9938
vn -0.0582 0.0975 -0.9935
vn -0.0507 0.1032 -0.9934
vn 0.9883 0.0941 -0.1197
vn 0.9886 0.0963 -0.1156
vn 0.9888 0.0962 -0.1138
vn -0.1751 0.9266 -0.3327
vn -0.1730 0.9271 -0.3326
vn -0.1728 0.9271 -0.3327
vn -0.4037 0.8537 -0.3290
vn -0.4038 0.8536 -0.3291
vn -0.4058 0.8529 -0.3284
vn -0.1675 0.9742 0.1511
vn -0.1678 0.9739 0.1526
vn -0.1680 0.9739 0.1527
vn -0.4159 0.8733 0.2538
vn -0.4176 0.8719 0.2557
vn -0.4177 0.8718 0.2558
vt 0.000000 0.000000
vt 0.638774 0.793190
vt 0.622907 0.748828
vt 0.648833 0.775943
vt 0.613273 0.743043
vt 0.613557 0.741911
vt 0.576643 0.772168
vt 0.583769 0.765898
vt 0.591686 0.767234
vt 0.608569 0.767833
vt 0.628640 0.807654
vt 0.625838 0.805739
vt 0.616450 0.739808
vt 0.633801 0.733993
vt 0.637524 0.731322
vt 0.652773 0.771235
vt 0.652597 0.771093
vt 0.649423 0.800799
vt 0.649232 0.776503
vt 0.657145 0.777936
vt 0.664978 0.755220
vt 0.674336 0.775300
vt 0.657359 0.777265
vt 0.648654 0.801671
vt 0.640177 0.806142
vt 0.714331 0.745548
vt 0.709280 0.752557
vt 0.698492 0.758286
vt 0.692165 0.725634
vt 0.725191 0.733979
vt 0.721602 0.739759
vt 0.650490 0.716406
vt 0.655445 0.714752
vt 0.710668 0.712564
vt 0.676951 0.700563
vt 0.682162 0.695325
vt 0.651422 0.715322
vt 0.649582 0.715583
vt 0.607201 0.829991
vt 0.594161 0.786887
vt 0.623100 0.809263
vt 0.569005 0.781072
vt 0.559173 0.792506
vt 0.590508 0.852327
vt 0.576758 0.807261
vt 0.547548 0.852074
vt 0.559125 0.829533
vt 0.590231 0.852699
vt 0.598846 0.894746
vt 0.600013 0.866221
vt 0.600915 0.876210
vt 0.598057 0.915520
vt 0.557553 0.908740
vt 0.576072 0.879404
vt 0.543546 0.876570
vt 0.543760 0.876101
vt 0.549946 0.828219
vt 0.544436 0.819140
vt 0.540734 0.814273
vt 0.548826 0.804729
vt 0.698493 0.758286
vt 0.693945 0.765252
vt 0.641047 0.728160
vt 0.638398 0.730317
vt 0.637440 0.731073
vt 0.643930 0.723953
vt 0.761406 0.608505
vt 0.771696 0.648554
vt 0.771122 0.648182
vt 0.736937 0.614180
vt 0.740526 0.611642
vt 0.743085 0.623543
vt 0.758500 0.583909
vt 0.764454 0.576575
vt 0.760137 0.591731
vt 0.787812 0.637430
vt 0.779750 0.593412
vt 0.799729 0.624056
vt 0.728757 0.634997
vt 0.733844 0.617473
vt 0.766466 0.652134
vt 0.751208 0.665134
vt 0.795809 0.647636
vt 0.774132 0.656478
vt 0.767597 0.683495
vt 0.768792 0.654028
vt 0.773060 0.657304
vt 0.796641 0.646835
vt 0.801742 0.626757
vt 0.736986 0.678282
vt 0.754367 0.701415
vt 0.749160 0.710884
vt 0.743767 0.714714
vt 0.734060 0.725455
vt 0.710474 0.657362
vt 0.722902 0.693515
vt 0.708126 0.662229
vt 0.692213 0.684838
vt 0.697222 0.679413
vt 0.710874 0.653329
vt 0.711058 0.651482
vt 0.711916 0.652354
vt 0.799264 0.575323
vt 0.804902 0.619682
vt 0.803113 0.621190
vt 0.772999 0.568645
vt 0.844379 0.587083
vt 0.822987 0.604543
vt 0.844739 0.586791
vt 0.845929 0.543287
vt 0.870484 0.571725
vt 0.868374 0.596318
vt 0.845673 0.588214
vt 0.886541 0.593452
vt 0.898566 0.552348
vt 0.920398 0.583153
vt 0.906888 0.591765
vt 0.871230 0.536252
vt 0.880023 0.529611
vt 0.809805 0.542829
vt 0.818984 0.547952
vt 0.820626 0.556987
vt 0.783972 0.558438
vt 0.795699 0.547721
vt 0.764419 0.690909
vt 0.758482 0.696836
vt 0.719168 0.645504
vt 0.723243 0.642456
vt 0.725997 0.638740
vt 0.726249 0.638814
vt 0.725283 0.639726
vt 0.060939 0.933540
vt 0.065562 0.955532
vt 0.059061 0.932456
vt 0.068908 0.955190
vt 0.083845 0.927683
vt 0.089873 0.949704
vt 0.062831 0.930704
vt 0.083818 0.927447
vt 0.060449 0.931098
vt 0.058723 0.931203
vt 0.143459 0.932514
vt 0.142228 0.930933
vt 0.143832 0.931323
vt 0.137627 0.954704
vt 0.121808 0.926040
vt 0.134310 0.929053
vt 0.118535 0.951331
vt 0.104078 0.925246
vt 0.116834 0.924647
vt 0.088247 0.955398
vt 0.100027 0.945824
vt 0.104057 0.948467
vt 0.067923 0.958488
vt 0.099495 0.924007
vt 0.104449 0.944433
vt 0.099581 0.923165
vt 0.103690 0.921831
vt 0.104336 0.921617
vt 0.258321 0.959441
vt 0.263473 0.936196
vt 0.265483 0.935041
vt 0.254656 0.959133
vt 0.239377 0.930084
vt 0.233985 0.959206
vt 0.232489 0.953122
vt 0.182655 0.956452
vt 0.187063 0.930101
vt 0.200045 0.927483
vt 0.178846 0.931738
vt 0.177518 0.933316
vt 0.177182 0.932078
vt 0.264319 0.933676
vt 0.265811 0.933743
vt 0.217364 0.947160
vt 0.205229 0.926201
vt 0.218376 0.927233
vt 0.218203 0.923481
vt 0.223166 0.926051
vt 0.218867 0.923716
vt 0.223096 0.925181
vt 0.221934 0.948769
vt 0.239408 0.929841
vt 0.261455 0.933256
vt 0.649231 0.776503
vt 0.651221 0.772838
vt 0.607942 0.739779
vt 0.602913 0.741679
vt 0.608227 0.735502
vt 0.604277 0.764066
vt 0.610124 0.748516
vt 0.613237 0.741025
vt 0.610873 0.746746
vt 0.602945 0.765649
vt 0.582879 0.764995
vt 0.600005 0.766601
vt 0.627752 0.807654
vt 0.637218 0.731272
vt 0.637346 0.731159
vt 0.610274 0.733141
vt 0.613760 0.739640
vt 0.657296 0.778153
vt 0.657320 0.778610
vt 0.653862 0.793801
vt 0.654721 0.777242
vt 0.654607 0.773348
vt 0.684168 0.770858
vt 0.676017 0.775099
vt 0.658101 0.777497
vt 0.677536 0.740398
vt 0.710747 0.751126
vt 0.701512 0.756775
vt 0.727588 0.728723
vt 0.724618 0.735344
vt 0.660218 0.712199
vt 0.668654 0.704046
vt 0.684655 0.692238
vt 0.686213 0.689145
vt 0.671537 0.703556
vt 0.621659 0.811130
vt 0.591314 0.853102
vt 0.591704 0.853590
vt 0.545683 0.856557
vt 0.546273 0.855646
vt 0.548928 0.843254
vt 0.600703 0.888284
vt 0.599489 0.893506
vt 0.593915 0.855959
vt 0.601128 0.873489
vt 0.598749 0.913464
vt 0.598618 0.914211
vt 0.589927 0.929651
vt 0.544136 0.872793
vt 0.533720 0.890743
vt 0.540116 0.881566
vt 0.540876 0.815324
vt 0.540102 0.815029
vt 0.550313 0.835548
vt 0.550013 0.828602
vt 0.691454 0.767336
vt 0.697117 0.761109
vt 0.768142 0.650691
vt 0.729227 0.609454
vt 0.735164 0.603919
vt 0.733474 0.609000
vt 0.734927 0.614223
vt 0.757490 0.604383
vt 0.742256 0.610827
vt 0.735822 0.614508
vt 0.757567 0.583059
vt 0.759011 0.602995
vt 0.759838 0.600033
vt 0.801706 0.625876
vt 0.733569 0.614800
vt 0.726957 0.611589
vt 0.726079 0.638643
vt 0.726187 0.638511
vt 0.766614 0.652304
vt 0.773677 0.656476
vt 0.773455 0.656336
vt 0.772663 0.653964
vt 0.789056 0.652358
vt 0.771575 0.673522
vt 0.771449 0.675201
vt 0.772798 0.656579
vt 0.800716 0.638240
vt 0.755736 0.698336
vt 0.750519 0.709355
vt 0.732725 0.726090
vt 0.738326 0.722241
vt 0.700347 0.670984
vt 0.699981 0.673882
vt 0.689236 0.687457
vt 0.845177 0.587847
vt 0.833794 0.546394
vt 0.842451 0.544686
vt 0.846806 0.542669
vt 0.885347 0.594141
vt 0.880257 0.595572
vt 0.865702 0.596648
vt 0.858490 0.595865
vt 0.848105 0.590292
vt 0.905629 0.592374
vt 0.904902 0.592537
vt 0.862743 0.540538
vt 0.865986 0.540043
vt 0.866439 0.539815
vt 0.804855 0.539342
vt 0.805579 0.538689
vt 0.805900 0.539444
vt 0.826238 0.548047
vt 0.819365 0.548003
vt 0.762458 0.693486
vt 0.060105 0.931114
vt 0.123009 0.926311
vt 0.255542 0.962691
vt 0.202523 0.953752
vt 0.198799 0.927714
vt 0.263948 0.933667
vt 0.217573 0.951496
s 0
usemtl blinn1SG.003
f 46/1/1 5/1/1 23/1/1
f 8/1/2 32/1/2 52/1/2
f 65/1/3 9/1/3 41/1/3
f 54/1/4 5/1/4 46/1/4
f 8/1/5 52/1/5 66/1/5
f 65/1/6 73/1/6 9/1/6
f 75/1/7 86/1/7 14/1/7
f 89/1/8 16/1/8 81/1/8
f 89/1/9 257/1/9 256/1/9
f 258/1/10 259/1/10 82/1/10
f 261/1/11 82/1/12 260/1/13
f 89/1/14 82/1/14 16/1/14
f 257/1/15 94/1/16 264/1/17
f 264/1/18 94/1/18 265/1/18
f 94/1/19 269/1/20 266/1/19
f 95/1/21 270/1/21 269/1/21
f 95/1/22 272/1/23 271/1/24
f 94/1/25 89/1/25 81/1/25
f 94/1/26 81/1/26 79/1/26
f 95/1/27 94/1/27 79/1/27
f 95/1/28 79/1/28 78/1/28
f 86/1/29 95/1/29 78/1/29
f 86/1/30 78/1/30 14/1/30
f 272/1/31 86/1/31 273/1/31
f 274/1/32 86/1/33 276/1/34
f 276/1/35 75/1/35 278/1/35
f 117/1/36 280/1/37 279/1/38
f 73/1/39 282/1/40 283/1/41
f 279/1/42 286/1/43 287/1/44
f 290/1/45 286/1/46 285/1/47
f 292/1/48 282/1/48 98/1/48
f 98/1/49 99/1/50 294/1/51
f 99/1/52 297/1/53 290/1/54
f 99/1/55 259/1/55 298/1/55
f 98/1/56 73/1/56 65/1/56
f 63/1/57 98/1/57 65/1/57
f 99/1/58 98/1/58 63/1/58
f 61/1/59 99/1/59 63/1/59
f 82/1/60 99/1/60 61/1/60
f 16/1/61 82/1/61 61/1/61
f 71/1/62 81/1/62 16/1/62
f 69/1/63 100/1/63 71/1/63
f 66/1/64 101/1/64 69/1/64
f 71/1/65 100/1/65 81/1/65
f 100/1/66 79/1/66 81/1/66
f 69/1/67 101/1/67 100/1/67
f 101/1/68 102/1/68 100/1/68
f 100/1/69 102/1/69 79/1/69
f 102/1/70 78/1/70 79/1/70
f 66/1/71 52/1/71 101/1/71
f 52/1/72 50/1/72 101/1/72
f 101/1/73 50/1/73 102/1/73
f 50/1/74 49/1/74 102/1/74
f 102/1/75 49/1/75 78/1/75
f 49/1/76 14/1/76 78/1/76
f 14/1/77 58/1/77 75/1/77
f 58/1/78 57/1/78 103/1/78
f 57/1/79 54/1/79 104/1/79
f 75/1/80 58/1/80 103/1/80
f 75/1/81 300/1/81 299/1/81
f 103/1/82 57/1/82 104/1/82
f 103/1/83 303/1/84 301/1/85
f 103/1/86 306/1/87 305/1/88
f 309/1/89 306/1/90 308/1/91
f 104/1/92 54/1/92 46/1/92
f 104/1/93 312/1/94 311/1/95
f 303/1/96 104/1/96 310/1/96
f 120/1/97 314/1/98 315/1/99
f 308/1/100 120/1/101 316/1/102
f 121/1/103 284/1/104 319/1/105
f 44/1/106 122/1/106 123/1/106
f 73/1/107 122/1/108 44/1/109
f 73/1/110 44/1/110 9/1/110
f 16/1/111 61/1/111 71/1/111
f 63/1/112 105/1/112 61/1/112
f 65/1/113 106/1/113 63/1/113
f 61/1/114 105/1/114 71/1/114
f 105/1/115 69/1/115 71/1/115
f 63/1/116 106/1/116 105/1/116
f 106/1/117 107/1/117 105/1/117
f 105/1/118 107/1/118 69/1/118
f 107/1/119 66/1/119 69/1/119
f 106/1/120 65/1/120 41/1/120
f 106/1/121 41/1/121 40/1/121
f 107/1/122 106/1/122 40/1/122
f 107/1/123 40/1/123 37/1/123
f 107/1/124 37/1/124 66/1/124
f 37/1/125 8/1/125 66/1/125
f 14/1/126 49/1/126 58/1/126
f 50/1/127 108/1/127 49/1/127
f 52/1/128 109/1/128 50/1/128
f 49/1/129 108/1/129 58/1/129
f 108/1/130 57/1/130 58/1/130
f 50/1/131 109/1/131 108/1/131
f 109/1/132 110/1/132 108/1/132
f 108/1/133 110/1/133 57/1/133
f 110/1/134 54/1/134 57/1/134
f 52/1/135 32/1/135 109/1/135
f 109/1/136 32/1/136 30/1/136
f 110/1/137 109/1/137 30/1/137
f 110/1/138 30/1/138 29/1/138
f 110/1/139 29/1/139 54/1/139
f 54/1/140 29/1/140 5/1/140
f 312/1/141 124/1/142 320/1/143
f 125/1/144 46/1/145 23/1/146
f 23/1/147 126/1/147 125/1/147
f 123/1/148 322/1/149 44/1/150
f 44/1/151 323/1/152 324/1/153
f 9/1/154 324/1/155 325/1/155
f 41/1/156 325/1/157 326/1/158
f 41/1/159 327/1/160 328/1/161
f 40/1/162 328/1/163 329/1/164
f 329/1/165 331/1/165 40/1/165
f 37/1/166 331/1/167 332/1/168
f 25/1/169 333/1/169 334/1/169
f 37/1/170 333/1/171 25/1/170
f 25/1/172 8/1/172 37/1/172
f 25/1/173 32/1/173 8/1/173
f 335/1/174 25/1/175 334/1/176
f 336/1/177 32/1/177 25/1/177
f 32/1/178 338/1/179 30/1/180
f 339/1/181 338/1/182 340/1/183
f 30/1/184 341/1/185 29/1/186
f 343/1/187 29/1/188 341/1/189
f 344/1/190 29/1/191 342/1/192
f 345/1/193 5/1/194 344/1/194
f 23/1/195 346/1/196 347/1/197
f 126/1/198 347/1/199 348/1/200
f 124/1/201 125/1/201 354/1/201
f 349/1/201 120/1/201 315/1/201
f 121/1/201 351/1/201 353/1/201
f 117/1/201 350/1/201 281/1/201
f 2/2/202 6/3/203 315/4/204
f 6/3/205 150/5/206 149/6/207
f 158/7/208 159/8/209 155/9/210
f 1/10/211 311/11/212 320/12/213
f 6/3/214 166/13/215 162/14/216
f 47/15/217 316/16/218 318/17/219
f 301/18/220 314/19/221 308/20/222
f 20/21/223 305/22/224 309/23/225
f 2/2/226 303/24/227 310/25/228
f 271/26/229 273/27/230 275/28/231
f 24/29/232 267/30/233 270/31/234
f 24/29/235 132/32/236 170/33/237
f 67/34/238 173/35/239 172/36/240
f 171/37/241 132/32/241 177/38/241
f 354/39/242 3/40/243 356/41/244
f 178/42/245 3/40/246 179/43/247
f 357/44/248 127/45/249 354/39/250
f 182/46/251 128/47/251 348/48/251
f 340/49/252 344/50/253 343/51/254
f 336/52/255 130/53/256 340/49/257
f 129/54/258 187/55/259 186/56/260
f 128/47/261 192/57/262 191/58/263
f 127/45/264 194/59/265 196/60/266
f 20/21/267 275/61/268 276/62/269
f 197/63/270 20/21/271 198/64/272
f 47/15/273 200/65/274 198/64/275
f 132/32/276 199/66/276 177/38/276
f 134/67/277 280/68/278 281/69/279
f 204/70/280 201/71/281 135/72/282
f 216/73/283 215/74/284 213/75/285
f 133/76/286 136/77/287 319/78/288
f 135/72/289 220/79/290 223/80/291
f 289/81/292 138/82/293 135/72/294
f 280/68/295 293/83/296 295/84/297
f 298/85/298 288/86/299 291/87/300
f 292/88/301 133/76/302 283/89/303
f 139/90/304 260/91/305 257/92/306
f 67/34/307 263/93/308 265/94/309
f 226/95/310 140/96/311 225/97/312
f 140/96/313 228/98/314 230/99/315
f 227/100/316 232/101/316 141/102/316
f 142/103/317 351/104/318 352/105/319
f 142/103/320 215/74/321 233/106/322
f 142/103/323 358/107/324 353/108/325
f 321/109/326 236/110/327 144/111/328
f 327/112/329 323/113/330 330/114/331
f 130/115/332 335/116/333 333/117/334
f 130/115/335 239/118/336 243/119/337
f 244/120/338 245/121/339 143/122/340
f 143/122/341 234/123/342 251/124/343
f 259/125/344 261/126/345 139/90/346
f 139/90/347 254/127/348 252/128/349
f 141/102/350 232/101/350 254/127/350
f 255/129/351 137/130/352 253/131/353
f 28/1/354 13/1/354 4/1/354
f 7/1/355 34/1/355 19/1/355
f 43/1/356 26/1/356 10/1/356
f 35/1/357 28/1/357 4/1/357
f 7/1/358 45/1/358 34/1/358
f 43/1/359 10/1/359 53/1/359
f 55/1/360 11/1/360 64/1/360
f 68/1/361 60/1/361 12/1/361
f 224/1/362 68/1/362 225/1/362
f 227/1/363 62/1/364 254/1/365
f 226/1/366 68/1/367 62/1/368
f 68/1/369 12/1/369 62/1/369
f 70/1/370 231/1/371 230/1/372
f 228/1/373 70/1/374 230/1/375
f 175/1/376 72/1/377 70/1/378
f 72/1/379 172/1/380 173/1/381
f 174/1/382 72/1/383 173/1/384
f 70/1/385 60/1/385 68/1/385
f 60/1/386 70/1/386 59/1/386
f 70/1/387 72/1/387 59/1/387
f 59/1/388 72/1/388 56/1/388
f 64/1/389 56/1/389 72/1/389
f 64/1/390 11/1/390 56/1/390
f 64/1/391 168/1/392 169/1/391
f 64/1/393 170/1/394 55/1/395
f 55/1/396 171/1/397 199/1/398
f 207/1/399 111/1/399 206/1/399
f 74/1/400 216/1/401 217/1/402
f 206/1/403 221/1/404 222/1/405
f 203/1/406 222/1/407 223/1/408
f 74/1/409 212/1/410 211/1/411
f 202/1/412 201/1/412 209/1/412
f 76/1/413 211/1/414 210/1/415
f 220/1/416 204/1/417 203/1/418
f 62/1/419 219/1/420 255/1/421
f 74/1/422 43/1/422 53/1/422
f 42/1/423 43/1/423 74/1/423
f 76/1/424 42/1/424 74/1/424
f 42/1/425 76/1/425 39/1/425
f 62/1/426 39/1/426 76/1/426
f 12/1/427 39/1/427 62/1/427
f 51/1/428 12/1/428 60/1/428
f 48/1/429 51/1/429 77/1/429
f 45/1/430 48/1/430 80/1/430
f 51/1/431 60/1/431 77/1/431
f 77/1/432 60/1/432 59/1/432
f 48/1/433 77/1/433 80/1/433
f 80/1/434 77/1/434 83/1/434
f 77/1/435 59/1/435 83/1/435
f 83/1/436 59/1/436 56/1/436
f 45/1/437 80/1/437 34/1/437
f 34/1/438 80/1/438 33/1/438
f 80/1/439 83/1/439 33/1/439
f 33/1/440 83/1/440 31/1/440
f 83/1/441 56/1/441 31/1/441
f 31/1/442 56/1/442 11/1/442
f 11/1/443 55/1/443 38/1/443
f 36/1/444 38/1/444 84/1/444
f 36/1/445 85/1/445 35/1/445
f 55/1/446 84/1/446 38/1/446
f 198/1/447 163/1/448 55/1/449
f 84/1/450 85/1/450 36/1/450
f 147/1/451 84/1/452 148/1/453
f 166/1/454 150/1/455 84/1/456
f 149/1/457 165/1/458 151/1/459
f 85/1/460 28/1/460 35/1/460
f 159/1/461 85/1/462 155/1/463
f 156/1/464 85/1/465 161/1/466
f 145/1/467 146/1/467 148/1/467
f 153/1/468 152/1/468 112/1/468
f 165/1/469 112/1/470 152/1/471
f 216/1/472 113/1/473 214/1/474
f 27/1/475 115/1/475 114/1/475
f 53/1/476 114/1/477 113/1/476
f 53/1/478 10/1/478 27/1/478
f 39/1/479 12/1/479 51/1/479
f 42/1/480 39/1/480 87/1/480
f 43/1/481 42/1/481 88/1/481
f 39/1/482 51/1/482 87/1/482
f 87/1/483 51/1/483 48/1/483
f 42/1/484 87/1/484 88/1/484
f 88/1/485 87/1/485 90/1/485
f 87/1/486 48/1/486 90/1/486
f 90/1/487 48/1/487 45/1/487
f 88/1/488 26/1/488 43/1/488
f 26/1/489 88/1/489 22/1/489
f 88/1/490 90/1/490 22/1/490
f 22/1/491 90/1/491 21/1/491
f 90/1/492 45/1/492 21/1/492
f 21/1/493 45/1/493 7/1/493
f 31/1/494 11/1/494 38/1/494
f 33/1/495 31/1/495 91/1/495
f 34/1/496 33/1/496 92/1/496
f 31/1/497 38/1/497 91/1/497
f 91/1/498 38/1/498 36/1/498
f 33/1/499 91/1/499 92/1/499
f 92/1/500 91/1/500 93/1/500
f 91/1/501 36/1/501 93/1/501
f 93/1/502 36/1/502 35/1/502
f 34/1/503 92/1/503 19/1/503
f 19/1/504 92/1/504 18/1/504
f 92/1/505 93/1/505 18/1/505
f 18/1/506 93/1/506 17/1/506
f 93/1/507 35/1/507 17/1/507
f 35/1/508 4/1/508 17/1/508
f 116/1/509 159/1/510 157/1/511
f 28/1/512 118/1/513 13/1/514
f 13/1/515 118/1/515 119/1/515
f 115/1/516 249/1/517 247/1/518
f 27/1/519 244/1/519 249/1/519
f 244/1/520 10/1/521 245/1/522
f 246/1/523 10/1/524 250/1/525
f 238/1/526 26/1/527 237/1/528
f 22/1/529 237/1/530 26/1/531
f 242/1/532 96/1/532 241/1/532
f 235/1/533 22/1/534 96/1/535
f 21/1/536 96/1/536 22/1/536
f 241/1/537 96/1/537 240/1/537
f 239/1/538 96/1/539 243/1/540
f 21/1/541 15/1/541 96/1/541
f 15/1/542 21/1/542 7/1/542
f 15/1/543 7/1/543 19/1/543
f 15/1/544 185/1/545 243/1/546
f 19/1/547 97/1/547 15/1/547
f 18/1/548 97/1/548 19/1/548
f 187/1/549 97/1/549 186/1/549
f 186/1/550 97/1/550 188/1/550
f 180/1/551 97/1/552 18/1/553
f 18/1/554 182/1/555 181/1/556
f 17/1/557 183/1/558 182/1/559
f 17/1/560 192/1/561 189/1/562
f 4/1/563 191/1/564 192/1/565
f 191/1/566 13/1/566 195/1/566
f 119/1/567 195/1/568 13/1/569
f 119/1/570 118/1/570 178/1/570
f 113/1/570 114/1/570 251/1/570
f 208/1/571 111/1/571 207/1/571
f 112/1/570 154/1/570 153/1/570
f 359/132/572 365/133/573 363/134/574
f 360/135/575 361/136/576 372/137/577
f 359/132/578 380/138/579 379/139/580
f 362/140/581 363/134/582 364/141/583
f 363/142/584 367/143/585 364/144/586
f 365/145/587 369/146/588 366/147/589
f 380/1/201 364/1/201 369/1/201
f 371/148/590 374/149/591 370/150/592
f 371/151/593 375/152/594 373/153/595
f 360/135/596 371/151/597 365/154/598
f 376/155/599 373/156/600 375/152/601
f 375/152/602 361/136/603 376/155/604
f 376/155/605 379/139/606 377/157/607
f 374/149/608 377/157/609 378/158/610
f 370/150/611 374/149/611 381/159/611
f 386/160/612 384/161/613 388/162/614
f 383/163/615 400/164/616 384/161/617
f 383/163/618 387/165/619 385/166/620
f 386/167/621 390/168/622 393/169/623
f 392/170/624 388/171/625 389/172/626
f 384/161/627 406/173/628 389/174/629
f 404/1/201 403/1/201 393/1/201
f 398/175/630 393/169/631 394/176/632
f 396/177/633 394/176/633 395/178/633
f 397/179/634 398/175/635 396/177/636
f 396/177/637 403/180/638 401/181/639
f 387/165/640 399/182/641 385/166/642
f 400/164/643 399/182/644 397/179/645
f 402/183/646 397/179/647 401/181/648
f 384/161/649 402/183/650 404/184/651
f 261/1/652 258/1/653 82/1/654
f 82/1/655 89/1/656 256/1/656
f 260/1/657 262/1/658 261/1/659
f 82/1/660 256/1/661 260/1/662
f 264/1/663 263/1/664 257/1/665
f 257/1/666 89/1/667 94/1/668
f 268/1/669 265/1/670 94/1/671
f 94/1/672 95/1/673 269/1/674
f 269/1/675 267/1/676 266/1/677
f 266/1/678 268/1/679 94/1/680
f 271/1/681 270/1/682 95/1/683
f 95/1/684 86/1/685 272/1/686
f 277/1/687 275/1/688 274/1/689
f 274/1/690 273/1/691 86/1/692
f 86/1/693 75/1/694 276/1/695
f 276/1/696 277/1/697 274/1/698
f 117/1/699 281/1/700 280/1/701
f 283/1/702 284/1/703 73/1/704
f 73/1/705 98/1/706 282/1/707
f 289/1/708 117/1/708 279/1/709
f 279/1/710 285/1/711 286/1/712
f 286/1/713 288/1/714 287/1/715
f 287/1/716 289/1/717 279/1/718
f 290/1/719 291/1/720 286/1/721
f 293/1/722 292/1/723 98/1/724
f 99/1/725 295/1/726 294/1/727
f 294/1/728 293/1/729 98/1/730
f 290/1/731 295/1/732 99/1/733
f 99/1/734 296/1/735 297/1/736
f 297/1/737 291/1/738 290/1/739
f 298/1/740 296/1/740 99/1/740
f 99/1/741 82/1/741 259/1/741
f 299/1/742 278/1/742 75/1/742
f 75/1/743 103/1/743 300/1/743
f 302/1/744 304/1/745 103/1/746
f 103/1/747 104/1/748 303/1/749
f 301/1/750 302/1/751 103/1/752
f 305/1/753 300/1/754 103/1/755
f 103/1/756 304/1/757 306/1/758
f 306/1/759 307/1/760 305/1/761
f 309/1/762 307/1/763 306/1/764
f 311/1/765 310/1/766 104/1/767
f 104/1/768 46/1/769 312/1/770
f 120/1/771 313/1/772 314/1/773
f 317/1/774 309/1/775 308/1/776
f 308/1/777 313/1/778 120/1/779
f 120/1/780 318/1/781 316/1/782
f 316/1/783 317/1/784 308/1/785
f 121/1/786 73/1/786 284/1/787
f 73/1/788 121/1/789 122/1/790
f 312/1/791 46/1/792 124/1/792
f 125/1/793 124/1/794 46/1/795
f 123/1/796 321/1/797 322/1/798
f 44/1/799 322/1/800 323/1/801
f 9/1/802 44/1/803 324/1/804
f 41/1/805 9/1/806 325/1/807
f 41/1/808 326/1/809 327/1/810
f 40/1/811 41/1/811 328/1/812
f 329/1/813 330/1/814 331/1/815
f 37/1/816 40/1/816 331/1/817
f 37/1/818 332/1/818 333/1/819
f 335/1/820 336/1/821 25/1/821
f 336/1/822 337/1/822 32/1/822
f 32/1/823 337/1/824 338/1/825
f 339/1/826 30/1/826 338/1/826
f 30/1/827 339/1/828 341/1/829
f 343/1/830 342/1/189 29/1/831
f 344/1/832 5/1/833 29/1/834
f 345/1/835 23/1/836 5/1/837
f 23/1/838 345/1/839 346/1/840
f 126/1/841 23/1/842 347/1/843
f 355/1/201 356/1/201 320/1/201
f 355/1/201 320/1/201 124/1/201
f 348/1/201 357/1/201 354/1/201
f 126/1/201 348/1/201 354/1/201
f 354/1/201 355/1/201 124/1/201
f 125/1/201 126/1/201 354/1/201
f 349/1/201 318/1/201 120/1/201
f 358/1/201 321/1/201 123/1/201
f 353/1/201 358/1/201 123/1/201
f 319/1/201 352/1/201 351/1/201
f 353/1/201 123/1/201 122/1/201
f 121/1/201 319/1/201 351/1/201
f 353/1/201 122/1/201 121/1/201
f 117/1/201 289/1/201 350/1/201
f 315/4/844 314/185/845 2/2/846
f 2/2/847 1/10/848 6/3/849
f 6/3/850 349/186/851 315/4/852
f 152/187/853 153/188/854 154/189/855
f 6/3/856 1/10/857 147/190/858
f 6/3/859 147/190/860 146/191/861
f 151/192/862 152/187/863 154/189/864
f 151/192/865 154/189/866 6/3/867
f 6/3/868 146/191/869 148/193/870
f 6/3/871 148/193/872 150/5/873
f 149/6/874 151/192/875 6/3/876
f 161/194/877 147/190/878 1/10/879
f 1/10/880 3/40/881 158/7/882
f 158/7/883 157/195/884 159/8/885
f 156/196/886 161/194/887 1/10/888
f 156/196/889 1/10/890 158/7/891
f 159/8/892 160/9/176 155/9/893
f 155/9/894 156/196/895 158/7/896
f 356/41/897 3/40/898 1/10/899
f 1/10/900 2/2/901 311/11/902
f 311/11/903 312/197/904 320/12/905
f 320/12/906 356/41/907 1/10/908
f 163/198/909 167/199/910 47/15/911
f 154/189/912 164/200/913 165/201/914
f 6/3/915 154/189/916 165/201/917
f 163/198/918 47/15/918 6/3/919
f 162/14/920 163/198/921 6/3/922
f 6/3/923 165/201/924 166/13/925
f 349/186/926 6/3/927 47/15/928
f 47/15/929 20/21/930 316/16/931
f 318/17/932 349/186/933 47/15/934
f 308/20/935 306/202/936 304/203/937
f 304/203/938 302/204/939 301/18/940
f 301/18/941 2/2/942 314/19/943
f 314/19/944 313/205/945 308/20/946
f 308/20/947 304/203/948 301/18/949
f 317/206/950 316/16/951 20/21/952
f 20/21/953 299/207/954 300/208/955
f 305/22/956 307/209/957 309/23/958
f 20/21/959 300/208/960 305/22/961
f 309/23/962 317/206/963 20/21/964
f 310/25/965 311/11/966 2/2/967
f 2/2/968 301/18/969 303/24/970
f 131/210/971 24/29/971 271/26/972
f 271/26/973 272/211/974 273/27/975
f 273/27/976 274/212/977 275/28/978
f 275/28/979 131/210/980 271/26/981
f 270/31/982 271/26/983 24/29/984
f 24/29/985 67/34/985 266/213/986
f 267/30/987 269/214/988 270/31/989
f 24/29/990 266/213/991 267/30/992
f 169/215/993 168/216/994 24/29/995
f 24/29/996 131/210/997 132/32/998
f 132/32/999 171/37/1000 170/33/1001
f 170/33/1002 169/215/1003 24/29/1004
f 176/217/1005 175/218/1006 67/34/1007
f 67/34/1008 24/29/1009 168/216/1010
f 67/34/1011 168/216/1012 174/219/1013
f 172/36/1014 176/217/1015 67/34/1016
f 67/34/1017 174/219/1018 173/35/1019
f 356/41/1020 355/220/1021 354/39/1022
f 354/39/1023 127/45/1024 3/40/1024
f 178/42/1025 158/7/1026 3/40/1027
f 3/40/1028 127/45/1029 179/43/1030
f 357/44/1031 128/47/1032 127/45/1033
f 348/48/1034 347/221/1034 346/222/1034
f 346/222/1035 129/54/1035 180/223/1035
f 346/222/1036 180/223/1036 181/224/1036
f 128/47/1034 357/44/1034 348/48/1034
f 348/48/1037 346/222/1037 181/224/1037
f 182/46/1038 183/225/1038 128/47/1038
f 348/48/1039 181/224/1039 182/46/1039
f 341/226/1040 339/227/1041 340/49/1042
f 340/49/1043 129/54/1044 346/222/1045
f 346/222/1046 345/228/1047 344/50/1048
f 344/50/1049 342/229/1050 343/51/1051
f 343/51/1052 341/226/1053 340/49/1054
f 340/49/1055 346/222/1056 344/50/1057
f 338/230/1058 337/231/1059 336/52/1060
f 336/52/1061 335/232/1062 130/53/1063
f 130/53/1064 129/54/1065 340/49/1066
f 340/49/1067 338/230/1068 336/52/1069
f 188/233/1070 180/223/1071 129/54/1072
f 129/54/1073 130/53/1074 184/234/1075
f 129/54/1076 184/234/1077 185/235/1078
f 186/56/1079 188/233/1080 129/54/1081
f 129/54/1082 185/235/1083 187/55/1084
f 195/236/1085 193/237/1086 194/59/1087
f 128/47/1088 183/225/1089 190/238/1090
f 128/47/1091 190/238/1092 189/239/1093
f 195/236/1094 194/59/1095 128/47/1096
f 191/58/1097 195/236/1098 128/47/1099
f 128/47/1100 189/239/1101 192/57/1102
f 196/60/1103 179/43/1104 127/45/1105
f 127/45/1106 128/47/1107 194/59/1108
f 278/240/1109 299/207/1110 20/21/1111
f 20/21/1112 131/210/1113 275/61/1114
f 275/61/1115 277/241/1116 276/62/1117
f 276/62/1118 278/240/1119 20/21/1120
f 197/63/1121 199/66/1122 132/32/1123
f 132/32/1124 131/210/1125 20/21/1126
f 20/21/1127 47/15/1128 198/64/1129
f 197/63/1130 132/32/1131 20/21/1130
f 47/15/1132 167/199/1133 200/65/1134
f 350/242/1135 135/72/1136 134/67/1137
f 134/67/1138 133/76/1139 280/68/1140
f 281/69/1141 350/242/1142 134/67/1143
f 208/243/1144 207/244/1145 206/245/1146
f 208/243/1147 206/245/1147 205/246/1148
f 210/247/1149 134/67/1150 135/72/1151
f 209/248/1152 210/247/1153 135/72/1154
f 135/72/1155 208/243/1156 205/246/1157
f 135/72/1158 205/246/1159 203/249/1160
f 201/71/1161 209/248/1162 135/72/1163
f 135/72/1164 203/249/1165 204/70/1166
f 216/73/1167 214/250/1168 215/74/1169
f 215/74/1170 136/77/1171 134/67/1172
f 134/67/1173 210/247/1174 211/251/1175
f 134/67/1176 211/251/1177 212/252/1178
f 215/74/1179 134/67/1180 212/252/1181
f 213/75/176 217/75/1182 216/73/892
f 215/74/1183 212/252/1184 213/75/1185
f 284/253/1186 283/89/1187 133/76/1188
f 133/76/1189 134/67/1190 136/77/1191
f 136/77/1192 352/105/1193 319/78/1194
f 319/78/1195 284/253/1196 133/76/1197
f 222/254/1198 221/255/1199 208/243/1200
f 135/72/1201 137/130/1202 219/256/1203
f 135/72/1204 219/256/1205 218/257/1206
f 222/254/1207 208/243/1208 135/72/1209
f 223/80/1210 222/254/1211 135/72/1212
f 135/72/1213 218/257/1214 220/79/1215
f 289/81/1216 287/258/1217 138/82/1218
f 138/82/1219 137/130/1220 135/72/1221
f 135/72/1222 350/242/1223 289/81/1224
f 295/84/1225 290/259/1226 285/260/1227
f 285/260/1228 279/261/1229 280/68/1230
f 280/68/1231 133/76/1232 293/83/1233
f 293/83/1234 294/262/1235 295/84/1236
f 295/84/1237 285/260/1238 280/68/1239
f 297/263/1240 296/264/1241 298/85/1242
f 298/85/1243 138/82/1244 287/258/1245
f 288/86/1246 286/265/1247 291/87/1248
f 298/85/1249 287/258/1249 288/86/1250
f 291/87/1251 297/263/1252 298/85/1253
f 283/89/1254 282/266/1255 292/88/1256
f 292/88/1257 293/83/1258 133/76/1259
f 263/93/1260 140/96/1261 139/90/1262
f 139/90/1263 262/267/1264 260/91/1265
f 260/91/1266 256/268/1267 257/92/1268
f 257/92/1269 263/93/1270 139/90/1271
f 268/269/1272 266/213/1273 67/34/1274
f 67/34/1275 140/96/1276 263/93/1277
f 263/93/1278 264/270/1279 265/94/1280
f 265/94/1281 268/269/1282 67/34/1283
f 226/95/1284 227/100/1285 141/102/1286
f 141/102/1287 139/90/1288 140/96/1289
f 140/96/1290 224/271/1291 225/97/1292
f 226/95/1293 141/102/1294 140/96/1295
f 231/272/1296 224/271/1297 140/96/1298
f 140/96/1299 67/34/1300 175/218/1301
f 140/96/1302 175/218/1303 229/273/1304
f 230/99/1305 231/272/1306 140/96/1307
f 140/96/1308 229/273/1309 228/98/1310
f 352/105/1311 136/77/1312 142/103/1313
f 142/103/1314 353/108/1315 351/104/1316
f 233/106/1317 234/123/1318 142/103/1319
f 142/103/1320 136/77/1321 215/74/1322
f 142/103/1323 143/122/1324 358/107/1325
f 323/113/1326 322/274/1327 321/109/1328
f 321/109/1329 358/107/1327 143/122/1330
f 143/122/1331 238/275/1332 237/276/1332
f 236/110/1333 235/277/1334 144/111/1335
f 143/122/1336 237/276/1337 236/110/1338
f 144/111/1339 323/113/1340 321/109/1341
f 321/109/1342 143/122/1343 236/110/1344
f 329/278/1345 328/279/1346 327/112/1347
f 327/112/1348 326/280/1349 325/281/1350
f 325/281/1351 324/282/1352 323/113/1353
f 323/113/1354 144/111/1355 330/114/1356
f 330/114/1357 329/278/1358 327/112/1359
f 327/112/1360 325/281/1361 323/113/1362
f 333/117/1363 332/283/1364 331/284/1365
f 331/284/1366 330/114/1367 144/111/1368
f 333/117/1369 331/284/1370 144/111/1371
f 333/117/1372 144/111/1373 130/115/1374
f 335/116/176 334/116/1375 333/117/1376
f 130/115/1377 144/111/1378 235/277/1379
f 130/115/1380 235/277/1381 242/285/1382
f 130/115/1383 242/285/1384 241/286/1385
f 130/115/1386 241/286/1387 240/287/1388
f 130/115/1389 240/287/1390 239/118/1391
f 243/119/176 184/119/1392 130/115/1393
f 248/288/1394 247/289/1395 249/290/1396
f 248/288/1397 249/290/1398 244/120/1399
f 250/291/1400 238/275/1401 143/122/1402
f 246/292/1403 250/291/1404 143/122/1405
f 143/122/1406 248/288/1407 244/120/1408
f 245/121/1409 246/292/1410 143/122/1411
f 251/124/1412 248/288/1413 143/122/1414
f 143/122/1415 142/103/1416 234/123/1417
f 138/82/1418 298/85/1419 259/125/1420
f 259/125/1421 258/293/1422 261/126/1423
f 261/126/1424 262/267/1425 139/90/1425
f 139/90/1426 138/82/1427 259/125/1428
f 252/128/1429 253/131/1430 137/130/1431
f 137/130/1432 138/82/1433 139/90/1434
f 139/90/1435 141/102/1436 254/127/1437
f 252/128/1438 137/130/1439 139/90/1440
f 255/129/1441 219/256/1442 137/130/1443
f 224/1/1444 231/1/1444 68/1/1444
f 254/1/1445 232/1/1446 227/1/1447
f 227/1/1448 226/1/1449 62/1/1450
f 62/1/1451 252/1/1452 254/1/1453
f 226/1/1454 225/1/1455 68/1/1456
f 70/1/1457 68/1/1458 231/1/1459
f 228/1/1460 229/1/1461 70/1/1462
f 70/1/1463 229/1/1464 175/1/1465
f 175/1/1466 176/1/1467 72/1/1468
f 72/1/1469 176/1/1470 172/1/1471
f 174/1/1472 64/1/1473 72/1/1474
f 64/1/1475 174/1/1476 168/1/1477
f 64/1/1478 169/1/1479 170/1/1480
f 199/1/1481 197/1/1482 55/1/1483
f 55/1/1484 170/1/1485 171/1/1486
f 171/1/1487 177/1/1488 199/1/1489
f 74/1/1490 53/1/1491 216/1/1492
f 217/1/176 213/1/1493 74/1/1494
f 222/1/1495 205/1/1496 206/1/1497
f 206/1/1498 111/1/1499 221/1/1500
f 203/1/1501 205/1/1502 222/1/1503
f 74/1/1504 213/1/1505 212/1/1506
f 210/1/1507 209/1/1508 201/1/1509
f 201/1/1510 204/1/1511 76/1/1512
f 76/1/1513 74/1/1514 211/1/1515
f 210/1/1516 201/1/1517 76/1/1518
f 203/1/1519 223/1/1520 220/1/1521
f 220/1/1522 76/1/1522 204/1/1523
f 253/1/1524 252/1/1525 62/1/1526
f 62/1/1527 76/1/1528 220/1/1529
f 62/1/1530 220/1/1531 218/1/1532
f 255/1/1533 253/1/1534 62/1/1535
f 62/1/1536 218/1/1537 219/1/1538
f 198/1/1539 200/1/1540 167/1/1541
f 163/1/1542 162/1/1543 84/1/1544
f 198/1/1545 167/1/1546 163/1/1547
f 55/1/1548 197/1/1549 198/1/1550
f 163/1/1551 84/1/1552 55/1/1553
f 147/1/1554 161/1/1555 85/1/1556
f 84/1/1557 150/1/1558 148/1/1559
f 148/1/1560 146/1/1561 147/1/1562
f 147/1/1563 85/1/1564 84/1/1565
f 84/1/1566 162/1/1567 166/1/1568
f 166/1/1569 149/1/1570 150/1/1571
f 149/1/1572 166/1/1573 165/1/1574
f 159/1/1575 28/1/1576 85/1/1577
f 156/1/1578 155/1/1579 85/1/1580
f 152/1/1581 151/1/1582 165/1/1583
f 165/1/1584 164/1/1585 112/1/1586
f 216/1/1587 53/1/1588 113/1/1588
f 53/1/1589 27/1/1590 114/1/1591
f 116/1/1592 28/1/1592 159/1/1593
f 28/1/1594 116/1/1594 118/1/1595
f 115/1/1596 27/1/1597 249/1/1598
f 244/1/1599 27/1/1600 10/1/1601
f 246/1/1602 245/1/1603 10/1/1604
f 10/1/1605 26/1/1606 250/1/1607
f 238/1/1608 250/1/1609 26/1/1610
f 22/1/1611 236/1/1612 237/1/1613
f 96/1/1614 242/1/1615 235/1/1616
f 235/1/1617 236/1/1618 22/1/1619
f 239/1/1620 240/1/1621 96/1/1622
f 96/1/1623 15/1/1624 243/1/1625
f 15/1/1626 97/1/1627 187/1/1628
f 15/1/1629 187/1/1630 185/1/1631
f 185/1/1632 184/1/176 243/1/1633
f 18/1/1634 181/1/1635 180/1/1636
f 180/1/1637 188/1/1638 97/1/1639
f 18/1/1640 17/1/1641 182/1/1642
f 17/1/1643 190/1/1644 183/1/1645
f 189/1/1646 190/1/1647 17/1/1648
f 17/1/1649 4/1/1650 192/1/1651
f 4/1/1652 13/1/1653 191/1/1654
f 119/1/1655 193/1/1656 195/1/1657
f 196/1/570 194/1/570 193/1/570
f 196/1/570 193/1/570 119/1/570
f 178/1/570 179/1/570 196/1/570
f 157/1/570 158/1/570 178/1/570
f 116/1/570 157/1/570 178/1/570
f 178/1/570 196/1/570 119/1/570
f 118/1/570 116/1/570 178/1/570
f 233/1/570 215/1/570 214/1/570
f 233/1/570 214/1/570 113/1/570
f 251/1/570 234/1/570 233/1/570
f 247/1/570 248/1/570 251/1/570
f 115/1/570 247/1/570 251/1/570
f 251/1/570 233/1/570 113/1/570
f 114/1/570 115/1/570 251/1/570
f 208/1/570 221/1/570 111/1/570
f 112/1/570 164/1/570 154/1/570
f 359/132/1658 360/135/1659 365/133/1660
f 360/135/1661 359/132/1662 361/136/1663
f 379/139/1664 361/136/1665 359/132/1666
f 359/132/1667 362/140/1668 380/138/1669
f 364/141/1670 382/294/1671 362/140/1672
f 362/140/1673 359/132/1674 363/134/1675
f 363/142/1676 366/147/1677 367/143/1678
f 366/147/1679 363/142/1680 365/145/1681
f 365/145/1682 371/148/1683 369/146/1683
f 369/146/1684 368/295/1685 366/147/1686
f 370/1/201 381/1/201 378/1/201
f 378/1/201 377/1/201 379/1/201
f 380/1/201 362/1/201 382/1/201
f 378/1/201 379/1/201 380/1/201
f 369/1/201 370/1/201 378/1/201
f 364/1/201 367/1/201 366/1/201
f 380/1/201 382/1/201 364/1/201
f 369/1/201 378/1/201 380/1/201
f 364/1/201 366/1/201 369/1/201
f 370/150/1687 369/146/1688 371/148/1689
f 371/148/1690 373/156/1691 374/149/1692
f 371/151/1693 372/137/1694 375/152/1695
f 360/135/1696 372/137/1697 371/151/1698
f 376/155/1699 374/149/1700 373/156/1701
f 375/152/1702 372/137/1703 361/136/1704
f 376/155/1705 361/136/1706 379/139/1707
f 378/158/1708 381/159/1709 374/149/1710
f 374/149/1711 376/155/1712 377/157/1713
f 386/160/1714 383/163/1715 384/161/1716
f 383/163/1717 385/166/1718 400/164/1719
f 383/163/1720 386/296/1721 387/165/1722
f 393/169/1723 387/297/1723 386/167/1724
f 386/167/1725 388/171/1726 390/168/1727
f 390/168/1728 391/298/1729 393/169/1730
f 392/170/1731 390/168/1732 388/171/1733
f 389/174/1734 388/162/1735 384/161/1736
f 384/161/1737 405/299/1738 406/173/1739
f 390/1/201 392/1/201 389/1/201
f 389/1/201 406/1/201 405/1/201
f 404/1/201 402/1/201 401/1/201
f 389/1/201 405/1/201 404/1/201
f 393/1/201 390/1/201 389/1/201
f 403/1/201 395/1/201 394/1/201
f 393/1/201 389/1/201 404/1/201
f 403/1/201 394/1/201 393/1/201
f 404/1/201 401/1/201 403/1/201
f 394/176/1740 396/177/1741 398/175/1742
f 398/175/1743 387/297/1744 393/169/1745
f 397/179/1746 399/182/1747 398/175/1748
f 401/181/1749 397/179/1750 396/177/1751
f 396/177/1752 395/178/1753 403/180/1754
f 387/165/1755 398/300/1756 399/182/1757
f 400/164/1758 385/166/1759 399/182/1760
f 402/183/1761 400/164/1762 397/179/1763
f 404/184/1764 405/299/1765 384/161/1766
f 384/161/1767 400/164/1768 402/183/1769
