# Blender 4.3.2
# www.blender.org
mtllib link_4.mtl
o link_4_visual
v -0.000251 -0.000859 -0.000903
v 0.000649 -0.000859 -0.000903
v -0.000813 0.000000 -0.000903
v 0.000087 0.000000 -0.000903
v -0.000251 0.000859 -0.000903
v 0.000274 -0.000973 0.000613
v 0.000649 0.000859 -0.000903
v 0.000275 -0.001000 0.000189
v -0.000658 -0.000531 0.000903
v 0.000265 -0.001041 -0.000230
v 0.000242 -0.000531 0.000903
v -0.000658 0.000531 0.000903
v 0.000242 0.000531 0.000903
v 0.000832 -0.000989 0.000633
v 0.000856 -0.001031 0.000197
v 0.000865 -0.001093 -0.000226
v -0.000027 -0.000873 -0.001015
v 0.000873 -0.000873 -0.001015
v -0.000685 0.000000 -0.001328
v 0.000215 0.000000 -0.001328
v 0.000460 -0.000724 -0.001015
v -0.000440 -0.000724 -0.001015
v 0.000274 -0.000505 -0.001062
v 0.000145 -0.000241 -0.001015
v -0.000626 -0.000505 -0.001062
v -0.000755 -0.000241 -0.001015
v 0.000145 0.000241 -0.001015
v 0.000274 0.000505 -0.001062
v 0.000460 0.000724 -0.001015
v -0.000755 0.000241 -0.001015
v 0.000873 0.000873 -0.001015
v -0.000626 0.000505 -0.001062
v 0.000900 -0.001010 0.000000
v -0.000440 0.000724 -0.001015
v -0.000027 0.000873 -0.001015
v 0.000759 -0.000965 -0.000507
v -0.000141 -0.000965 -0.000507
v 0.000118 -0.000447 0.000507
v -0.000782 -0.000447 0.000507
v 0.000035 -0.000312 0.000000
v -0.000320 -0.000405 0.001587
v -0.000865 -0.000312 0.000000
v 0.000031 -0.000149 -0.000507
v -0.000869 -0.000149 -0.000507
v -0.000396 -0.000873 -0.000507
v 0.000504 -0.000873 -0.000507
v 0.000365 -0.000817 0.000000
v -0.000535 -0.000817 0.000000
v -0.000625 -0.000689 0.000507
v 0.000275 -0.000689 0.000507
v -0.000625 0.000689 0.000507
v 0.000275 0.000689 0.000507
v -0.000535 0.000817 0.000000
v 0.000365 0.000817 0.000000
v -0.000396 0.000873 -0.000507
v 0.000504 0.000873 -0.000507
v -0.000869 0.000149 -0.000507
v 0.000031 0.000149 -0.000507
v -0.000865 0.000312 0.000000
v 0.000035 0.000312 0.000000
v -0.000782 0.000447 0.000507
v 0.000118 0.000447 0.000507
v -0.000141 0.000965 -0.000507
v 0.000759 0.000965 -0.000507
v 0.000900 0.001010 0.000000
v -0.000483 -0.000689 0.001015
v -0.000739 -0.000298 0.001015
v 0.000254 -0.000421 0.001617
v -0.000773 0.000000 0.001062
v 0.000417 -0.000689 0.001015
v -0.000739 0.000298 0.001015
v 0.000161 -0.000298 0.001015
v -0.000483 0.000689 0.001015
v 0.000268 -0.000837 0.001002
v 0.000127 0.000000 0.001062
v 0.000161 0.000298 0.001015
v 0.000417 0.000689 0.001015
v 0.000286 0.000000 0.001772
v -0.000554 -0.000447 0.001328
v 0.000346 -0.000447 0.001328
v -0.000255 0.000000 0.001729
v -0.000554 0.000447 0.001328
v 0.000346 0.000447 0.001328
v 0.000290 0.000164 0.001462
v 0.000290 -0.000164 0.001462
v 0.000774 0.000961 0.000558
v 0.000619 0.000961 0.000000
v -0.000610 0.000164 0.001462
v -0.000610 -0.000164 0.001462
v 0.000493 0.000859 0.000558
v 0.000039 0.000164 0.000558
v -0.000009 0.000000 0.000000
v 0.000039 -0.000164 0.000558
v 0.000493 -0.000859 0.000558
v -0.000281 0.000961 0.000000
v -0.000407 0.000859 0.000558
v 0.000619 -0.000961 0.000000
v -0.000861 0.000164 0.000558
v 0.000774 -0.000961 0.000558
v -0.000909 0.000000 0.000000
v -0.000861 -0.000164 0.000558
v 0.000165 0.000594 0.000000
v -0.000407 -0.000859 0.000558
v -0.000281 -0.000961 0.000000
v 0.000290 0.000695 -0.000558
v 0.000117 0.000430 -0.000558
v -0.000735 0.000594 0.000000
v -0.000610 0.000695 -0.000558
v 0.000165 -0.000594 0.000000
v -0.000783 0.000430 -0.000558
v -0.000735 -0.000594 0.000000
v 0.000117 -0.000430 -0.000558
v -0.000783 -0.000430 -0.000558
v 0.000290 -0.000695 -0.000558
v -0.000610 -0.000695 -0.000558
v -0.000581 0.000265 -0.001462
v -0.000581 -0.000265 -0.001462
v 0.000319 0.000265 -0.001462
v 0.000319 -0.000265 -0.001462
v -0.000000 0.000963 0.000534
v 0.000900 0.000963 0.000534
v 0.000900 0.001010 0.000000
v -0.000000 -0.000963 0.000534
v -0.000000 0.000963 -0.000534
v 0.000900 -0.000963 0.000534
v 0.000900 -0.001010 0.000000
v -0.000000 0.000888 -0.000934
v -0.000000 0.000867 -0.001019
v 0.000900 0.001010 0.000000
v -0.000000 -0.000963 -0.000534
v 0.000900 0.001010 0.000000
v -0.000000 -0.000888 -0.000934
v -0.000000 -0.000867 -0.001019
v 0.000900 0.000963 -0.000534
v 0.000900 0.000888 -0.000934
v 0.000900 0.000867 -0.001019
v 0.000900 -0.001010 0.000000
v 0.000900 -0.001010 0.000000
v 0.000900 -0.000963 -0.000534
v 0.000900 -0.000888 -0.000934
v 0.000900 -0.000867 -0.001019
v -0.000401 0.000000 -0.001509
v 0.000301 -0.000507 -0.001426
v -0.000356 -0.000516 -0.001432
v 0.000264 -0.001027 -0.000677
v 0.000268 -0.000852 -0.001108
v 0.000865 -0.001052 -0.000668
v 0.000858 -0.000865 -0.001096
v 0.000256 -0.000720 0.001342
v 0.000275 0.001000 0.000189
v 0.000274 0.000973 0.000613
v 0.000265 0.001041 -0.000230
v 0.000268 0.000837 0.001002
v 0.000865 0.001093 -0.000226
v 0.000856 0.001031 0.000197
v 0.000832 0.000989 0.000633
v -0.000320 0.000405 0.001587
v 0.000256 0.000720 0.001342
v 0.000254 0.000421 0.001617
v 0.000264 0.001027 -0.000677
v -0.000356 0.000516 -0.001432
v 0.000301 0.000507 -0.001426
v 0.000268 0.000852 -0.001108
v 0.000865 0.001052 -0.000668
v 0.000858 0.000865 -0.001096
v 0.000900 -0.000992 0.000581
v 0.000900 -0.001029 0.000197
v 0.000900 -0.000985 0.000635
v 0.000900 -0.001035 0.000164
v 0.000900 -0.001092 -0.000225
v 0.000900 -0.000914 0.000796
v 0.000856 -0.000914 0.000802
v 0.000820 -0.000898 0.000843
v 0.000548 -0.000579 0.001448
v 0.000545 -0.000566 0.001460
v 0.000676 -0.000693 0.001333
v 0.000585 -0.000628 0.001399
v 0.000559 -0.000601 0.001427
v 0.000526 -0.000415 0.001614
v 0.000698 -0.000858 0.000921
v 0.000688 -0.000852 0.000939
v 0.000664 -0.000830 0.001002
v 0.000469 -0.000282 0.001667
v 0.000469 -0.000254 0.001678
v 0.000481 -0.000338 0.001645
v 0.000468 -0.000020 0.001764
v 0.000472 0.000000 0.001771
v 0.000347 -0.000299 -0.001469
v 0.000363 -0.000331 -0.001462
v 0.000455 -0.000504 -0.001421
v 0.000327 -0.000248 -0.001479
v 0.000330 -0.000265 -0.001475
v 0.000321 0.000000 -0.001528
v 0.000564 -0.000677 -0.001255
v 0.000485 -0.000579 -0.001350
v 0.000459 -0.000527 -0.001399
v 0.000674 -0.000773 -0.001174
v 0.000607 -0.000724 -0.001215
v 0.000799 -0.000814 -0.001139
v 0.000859 -0.000823 -0.001131
v 0.000900 -0.001053 -0.000639
v 0.000900 -0.001050 -0.000667
v 0.000900 -0.000864 -0.001094
v 0.000900 -0.001039 -0.000693
v 0.000900 -0.000827 -0.001128
v 0.000900 -0.000845 -0.001113
v 0.000892 -0.000828 -0.001127
v 0.000648 -0.000726 0.001242
v 0.000639 -0.000762 0.001161
v 0.000641 -0.000807 0.001058
v 0.000649 -0.000820 0.001027
v 0.000900 0.000992 0.000581
v 0.000900 0.000985 0.000635
v 0.000900 0.001029 0.000197
v 0.000900 0.001035 0.000164
v 0.000900 0.001092 -0.000225
v 0.000900 0.000914 0.000796
v 0.000856 0.000914 0.000802
v 0.000820 0.000898 0.000843
v 0.000545 0.000566 0.001460
v 0.000526 0.000415 0.001614
v 0.000548 0.000579 0.001448
v 0.000676 0.000693 0.001333
v 0.000585 0.000628 0.001399
v 0.000559 0.000601 0.001427
v 0.000688 0.000852 0.000939
v 0.000698 0.000858 0.000921
v 0.000664 0.000830 0.001002
v 0.000468 0.000020 0.001764
v 0.000469 0.000254 0.001678
v 0.000469 0.000282 0.001667
v 0.000481 0.000338 0.001645
v 0.000455 0.000504 -0.001421
v 0.000347 0.000299 -0.001469
v 0.000363 0.000331 -0.001462
v 0.000321 0.000000 -0.001528
v 0.000327 0.000248 -0.001479
v 0.000330 0.000265 -0.001475
v 0.000564 0.000677 -0.001255
v 0.000607 0.000724 -0.001215
v 0.000674 0.000773 -0.001174
v 0.000859 0.000823 -0.001131
v 0.000799 0.000814 -0.001139
v 0.000485 0.000579 -0.001350
v 0.000459 0.000527 -0.001399
v 0.000900 0.001053 -0.000639
v 0.000900 0.001050 -0.000667
v 0.000900 0.001039 -0.000693
v 0.000900 0.000864 -0.001094
v 0.000900 0.000845 -0.001113
v 0.000900 0.000827 -0.001128
v 0.000892 0.000828 -0.001127
v 0.000639 0.000762 0.001161
v 0.000641 0.000807 0.001058
v 0.000648 0.000726 0.001242
v 0.000649 0.000820 0.001027
v -0.000444 0.000358 0.001586
v -0.000414 0.000400 0.001576
v -0.000397 0.000550 0.001421
v -0.000302 0.000678 0.001302
v -0.000318 0.000740 0.001132
v -0.000321 0.000658 0.001320
v -0.000325 0.000772 0.001045
v -0.000365 0.000616 0.001357
v -0.000475 0.000253 0.001616
v -0.000480 0.000123 0.001659
v -0.000476 0.000056 0.001689
v -0.000461 0.000000 0.001715
v -0.000476 -0.000056 0.001689
v -0.000480 -0.000123 0.001659
v -0.000475 -0.000253 0.001616
v -0.000444 -0.000358 0.001586
v -0.000414 -0.000400 0.001576
v -0.000397 -0.000550 0.001421
v -0.000365 -0.000616 0.001357
v -0.000302 -0.000678 0.001302
v -0.000318 -0.000740 0.001132
v -0.000321 -0.000658 0.001320
v -0.000325 -0.000772 0.001045
v -0.000000 0.000969 0.000460
v -0.000041 0.000962 0.000542
v -0.000124 0.000988 0.000000
v -0.000019 0.001004 -0.000069
v -0.000000 0.000940 0.000654
v -0.000117 0.000955 0.000585
v -0.000109 0.000951 0.000608
v -0.000130 0.000955 0.000577
v -0.000143 0.000939 0.000635
v -0.000241 0.000961 0.000143
v -0.000216 0.000967 0.000099
v -0.000156 0.000961 0.000450
v -0.000146 0.000961 0.000476
v -0.000147 0.000961 0.000482
v -0.000241 0.000957 0.000178
v -0.000138 0.000956 0.000558
v -0.000295 0.000831 0.000893
v -0.000314 0.000794 0.000989
v -0.000310 0.000803 0.000964
v -0.000310 0.000802 0.000969
v -0.000310 0.000802 0.000967
v -0.000314 -0.000794 0.000989
v -0.000310 -0.000803 0.000964
v -0.000295 -0.000831 0.000893
v -0.000310 -0.000802 0.000969
v -0.000310 -0.000802 0.000967
v -0.000241 -0.000961 0.000143
v -0.000241 -0.000957 0.000178
v -0.000138 -0.000956 0.000558
v -0.000147 -0.000961 0.000482
v -0.000156 -0.000961 0.000450
v -0.000130 -0.000955 0.000577
v -0.000143 -0.000939 0.000635
v -0.000117 -0.000955 0.000585
v -0.000109 -0.000951 0.000608
v -0.000019 -0.001004 -0.000069
v -0.000124 -0.000988 0.000000
v -0.000216 -0.000967 0.000099
v -0.000146 -0.000961 0.000476
v -0.000000 -0.000969 0.000460
v -0.000041 -0.000962 0.000542
v -0.000000 -0.000940 0.000654
v -0.000000 0.001004 -0.000068
v -0.000000 -0.001004 -0.000068
v -0.000000 0.000833 -0.001112
v -0.000011 0.000836 -0.001108
v -0.000086 0.000826 -0.001114
v -0.000229 0.000781 -0.001147
v -0.000298 0.000724 -0.001210
v -0.000233 0.000778 -0.001150
v -0.000350 0.000651 -0.001288
v -0.000413 0.000567 -0.001378
v -0.000429 0.000528 -0.001419
v -0.000552 0.000308 -0.001462
v -0.000576 0.000265 -0.001468
v -0.000431 0.000517 -0.001432
v -0.000577 0.000258 -0.001469
v -0.000589 0.000000 -0.001510
v -0.000589 0.000000 -0.001510
v -0.000577 -0.000258 -0.001469
v -0.000576 -0.000265 -0.001468
v -0.000552 -0.000308 -0.001462
v -0.000431 -0.000517 -0.001432
v -0.000429 -0.000528 -0.001419
v -0.000413 -0.000567 -0.001378
v -0.000298 -0.000724 -0.001210
v -0.000350 -0.000651 -0.001288
v -0.000229 -0.000781 -0.001147
v -0.000233 -0.000778 -0.001150
v -0.000086 -0.000826 -0.001114
v -0.000011 -0.000836 -0.001108
v -0.000000 -0.000833 -0.001112
v -0.000000 -0.000917 -0.000912
v -0.000000 -0.001015 -0.000672
v -0.000000 -0.001023 -0.000421
v -0.000000 -0.001034 -0.000227
v -0.000000 -0.000960 0.000602
v -0.000000 -0.000844 -0.001101
v -0.000000 0.000917 -0.000912
v -0.000000 0.001023 -0.000421
v -0.000000 0.001015 -0.000672
v -0.000000 0.001034 -0.000227
v -0.000000 0.000960 0.000602
v -0.000000 0.000844 -0.001101
vn -0.1638 -0.9635 -0.2119
vn -0.9708 -0.1431 -0.1924
vn -0.4867 0.8486 -0.2076
vn -0.3355 -0.9292 -0.1551
vn -0.9899 -0.0000 -0.1414
vn -0.3355 0.9292 -0.1551
vn -0.7381 -0.6047 0.2993
vn -0.8506 0.4363 0.2936
vn -0.6609 0.5744 0.4830
vn -0.4887 0.8034 0.3402
vn -0.4889 0.8035 0.3397
vn -0.4888 0.8034 0.3400
vn -0.6506 0.6661 0.3648
vn -0.6500 0.6660 0.3661
vn -0.6501 0.6661 0.3656
vn -0.7382 0.6046 0.2993
vn -0.7944 0.3741 0.4785
vn -0.7937 0.3759 0.4783
vn -0.7942 0.3751 0.4780
vn -0.7941 0.2128 0.5693
vn -0.7943 0.2176 0.5672
vn -0.7944 0.2130 0.5689
vn -0.8617 -0.0000 0.5075
vn -0.7956 -0.2099 0.5683
vn -0.7948 -0.2091 0.5698
vn -0.7953 -0.2095 0.5688
vn -0.7937 -0.3759 0.4783
vn -0.7944 -0.3741 0.4785
vn -0.7942 -0.3751 0.4780
vn -0.8724 0.3381 0.3531
vn -0.9350 0.1584 0.3173
vn -0.9256 -0.0000 0.3785
vn -0.9350 -0.1584 0.3173
vn -0.8724 -0.3381 0.3531
vn -0.8506 -0.4363 0.2936
vn -0.6572 -0.5795 0.4819
vn -0.6499 -0.6660 0.3661
vn -0.6506 -0.6661 0.3648
vn -0.6500 -0.6662 0.3656
vn -0.4892 -0.8025 0.3415
vn -0.4889 -0.8034 0.3400
vn -0.4894 -0.8026 0.3410
vn 0.0005 0.9961 0.0883
vn -0.1762 0.9836 -0.0388
vn -0.1748 0.9838 -0.0399
vn -0.1761 0.9836 -0.0390
vn 0.0169 0.9822 0.1868
vn 0.0168 0.9823 0.1868
vn 0.0166 0.9823 0.1866
vn -0.1313 0.9652 0.2263
vn -0.1497 0.9652 0.2144
vn -0.1418 0.9636 0.2268
vn -0.1646 0.9853 0.0456
vn -0.1637 0.9857 0.0404
vn -0.1647 0.9854 0.0425
vn -0.1730 0.9837 0.0482
vn -0.1730 0.9837 0.0481
vn -0.3411 0.9354 0.0936
vn -0.3390 0.9363 0.0922
vn -0.3389 0.9363 0.0923
vn -0.3315 0.9265 0.1782
vn -0.3326 0.9259 0.1793
vn -0.3315 0.9264 0.1785
vn -0.4558 0.8609 0.2260
vn -0.4573 0.8595 0.2282
vn -0.4570 0.8595 0.2287
vn -0.3384 0.9372 -0.0851
vn -0.4922 0.8696 -0.0384
vn -0.4921 0.8693 0.0472
vn -0.6261 0.7751 0.0849
vn -0.6317 0.7551 0.1757
vn -0.7246 0.6590 0.2015
vn -0.8934 0.4044 0.1956
vn -0.9566 0.2802 0.0803
vn -0.9894 0.1411 -0.0354
vn -0.9419 0.2916 0.1667
vn -0.9655 0.1457 0.2159
vn -0.9891 0.1408 0.0436
vn -0.9963 -0.0000 0.0856
vn -0.9852 -0.0000 0.1717
vn -0.9655 -0.1457 0.2159
vn -0.9970 -0.0000 -0.0776
vn -0.9894 -0.1411 -0.0354
vn -0.9891 -0.1408 0.0436
vn -0.9566 -0.2802 0.0803
vn -0.9419 -0.2916 0.1667
vn -0.8934 -0.4044 0.1956
vn -0.7246 -0.6590 0.2015
vn -0.6261 -0.7751 0.0849
vn -0.4922 -0.8696 -0.0384
vn -0.6317 -0.7551 0.1757
vn -0.4923 -0.8435 0.2146
vn -0.4925 -0.8433 0.2151
vn -0.4917 -0.8433 0.2169
vn -0.4921 -0.8693 0.0472
vn -0.3106 -0.9445 0.1067
vn -0.3125 -0.9438 0.1077
vn -0.3104 -0.9446 0.1068
vn -0.3315 -0.9265 0.1782
vn -0.3316 -0.9264 0.1785
vn -0.3326 -0.9259 0.1793
vn -0.1497 -0.9652 0.2144
vn -0.1313 -0.9652 0.2263
vn -0.1418 -0.9636 0.2268
vn -0.3384 -0.9372 -0.0851
vn -0.1748 -0.9838 -0.0399
vn -0.1762 -0.9836 -0.0388
vn -0.1761 -0.9836 -0.0390
vn -0.1637 -0.9857 0.0404
vn -0.1646 -0.9853 0.0456
vn -0.1647 -0.9854 0.0425
vn -0.1730 -0.9837 0.0482
vn -0.1730 -0.9837 0.0481
vn 0.0005 -0.9961 0.0883
vn 0.0088 -0.9857 0.1686
vn 0.0072 -0.9859 0.1671
vn 0.0084 -0.9858 0.1678
vn 0.0056 0.9961 -0.0886
vn 0.0060 0.9961 -0.0880
vn 0.1586 0.9584 -0.2373
vn -0.0084 0.9838 -0.1792
vn -0.0086 0.9837 -0.1798
vn -0.0086 0.9837 -0.1796
vn -0.1638 0.9635 -0.2119
vn -0.8280 0.5414 0.1462
vn -0.7428 0.6685 0.0369
vn -0.6255 0.7756 -0.0850
vn -0.8343 0.5455 0.0801
vn -0.9084 0.4165 0.0361
vn -0.7425 0.6683 -0.0455
vn -0.8337 0.5450 -0.0886
vn -0.9081 0.4165 -0.0444
vn -0.9568 0.2795 -0.0803
vn -0.6047 0.7767 -0.1763
vn -0.7180 0.6583 -0.2260
vn -0.8237 0.5385 -0.1774
vn -0.8903 0.3991 -0.2193
vn -0.9506 0.2621 -0.1664
vn -0.9708 0.1431 -0.1924
vn -0.8280 -0.5414 0.1462
vn -0.9084 -0.4165 0.0361
vn -0.9568 -0.2795 -0.0803
vn -0.8343 -0.5455 0.0801
vn -0.7428 -0.6685 0.0369
vn -0.9081 -0.4165 -0.0444
vn -0.8337 -0.5450 -0.0886
vn -0.7425 -0.6683 -0.0455
vn -0.6256 -0.7755 -0.0849
vn -0.9506 -0.2621 -0.1664
vn -0.8903 -0.3991 -0.2192
vn -0.8237 -0.5386 -0.1774
vn -0.7180 -0.6583 -0.2260
vn -0.6047 -0.7767 -0.1763
vn -0.4867 -0.8486 -0.2076
vn 0.0060 -0.9961 -0.0879
vn 0.0056 -0.9961 -0.0886
vn 0.0060 -0.9961 -0.0880
vn -0.0086 -0.9837 -0.1798
vn -0.0084 -0.9838 -0.1792
vn -0.0086 -0.9837 -0.1796
vn 0.1586 -0.9584 -0.2373
vn 0.1392 0.9275 -0.3468
vn 0.1476 0.9231 -0.3550
vn 0.1395 0.9273 -0.3473
vn -0.0948 0.9195 -0.3815
vn -0.2146 0.9238 -0.3171
vn -0.2153 0.9250 -0.3132
vn -0.2141 0.9243 -0.3159
vn -0.4239 0.8499 -0.3131
vn -0.4257 0.8496 -0.3113
vn -0.4261 0.8504 -0.3086
vn -0.5053 0.7790 -0.3712
vn -0.5067 0.7775 -0.3726
vn -0.5058 0.7786 -0.3714
vn -0.6869 0.6425 -0.3397
vn -0.6886 0.6432 -0.3349
vn -0.6873 0.6438 -0.3364
vn -0.7147 0.4673 -0.5204
vn -0.7497 0.4992 -0.4345
vn -0.7496 0.4992 -0.4345
vn -0.7500 0.4997 -0.4333
vn -0.8711 0.3712 -0.3215
vn -0.7829 0.2494 -0.5700
vn -0.8791 0.1144 -0.4628
vn -0.8789 0.1117 -0.4638
vn -0.8791 0.1143 -0.4628
vn -0.9181 0.1863 -0.3498
vn -0.9531 0.0950 -0.2875
vn -0.9531 -0.0950 -0.2875
vn -0.8789 -0.1117 -0.4638
vn -0.8791 -0.1144 -0.4628
vn -0.8792 -0.1136 -0.4627
vn -0.9181 -0.1863 -0.3498
vn -0.8712 -0.3712 -0.3214
vn -0.7828 -0.2496 -0.5700
vn -0.7147 -0.4673 -0.5204
vn -0.7735 -0.4996 -0.3900
vn -0.7732 -0.5021 -0.3874
vn -0.7736 -0.4996 -0.3899
vn -0.6817 -0.6526 -0.3308
vn -0.6811 -0.6524 -0.3323
vn -0.6816 -0.6526 -0.3308
vn -0.5066 -0.7775 -0.3726
vn -0.5053 -0.7790 -0.3712
vn -0.5057 -0.7786 -0.3715
vn -0.4257 -0.8496 -0.3113
vn -0.4239 -0.8499 -0.3131
vn -0.4261 -0.8504 -0.3086
vn -0.2153 -0.9250 -0.3132
vn -0.2146 -0.9238 -0.3171
vn -0.2141 -0.9243 -0.3159
vn -0.0947 -0.9195 -0.3815
vn 0.1310 -0.9257 -0.3548
vn 0.1157 -0.9320 -0.3434
vn 0.1166 -0.9310 -0.3458
vn -1.0000 -0.0000 -0.0000
vn -0.0543 -0.9985 0.0040
vn -0.0522 -0.9890 0.1383
vn -0.0522 -0.9890 0.1385
vn -0.0522 -0.9890 0.1382
vn -0.0572 -0.9332 0.3549
vn -0.0577 -0.9334 0.3541
vn -0.0576 -0.9334 0.3541
vn -0.0521 -0.9885 0.1422
vn -0.0547 -0.9881 0.1437
vn -0.0316 -0.9975 0.0633
vn -0.0316 -0.9975 0.0635
vn -0.0315 -0.9975 0.0634
vn 0.0303 -0.9950 0.0953
vn 0.0303 -0.9950 0.0952
vn 0.0305 -0.9949 0.0960
vn 0.0198 -0.9894 0.1438
vn 0.0195 -0.9894 0.1436
vn 0.0204 -0.9893 0.1447
vn 0.0506 -0.9162 0.3976
vn 0.0541 -0.9140 0.4020
vn 0.0539 -0.9140 0.4020
vn -0.1176 -0.7197 0.6843
vn -0.1175 -0.7200 0.6840
vn -0.1185 -0.7192 0.6846
vn -0.0821 -0.3473 0.9342
vn -0.0818 -0.3474 0.9341
vn -0.0801 -0.3472 0.9344
vn -0.1040 -0.7210 0.6851
vn -0.1037 -0.7209 0.6852
vn -0.1044 -0.7213 0.6847
vn 0.0627 -0.6730 0.7370
vn 0.0625 -0.6734 0.7366
vn 0.0622 -0.6726 0.7374
vn 0.0365 -0.9031 0.4278
vn 0.0067 -0.3473 0.9377
vn 0.0062 -0.3475 0.9377
vn 0.0067 -0.3472 0.9377
vn -0.0581 -0.3222 0.9449
vn -0.0583 -0.3223 0.9448
vn -0.0583 -0.3222 0.9449
vn -0.0466 -0.9984 -0.0329
vn -0.0470 -0.9984 -0.0316
vn -0.0465 -0.9984 -0.0329
vn -0.0097 -0.7250 -0.6887
vn -0.0092 -0.7267 -0.6869
vn -0.0061 -0.7216 -0.6923
vn -0.0146 -0.1549 -0.9878
vn -0.0146 -0.1550 -0.9878
vn -0.0147 -0.1550 -0.9878
vn 0.0414 -0.2115 -0.9765
vn 0.0384 -0.2078 -0.9774
vn 0.0415 -0.2114 -0.9765
vn -0.0272 -0.1970 -0.9800
vn -0.0275 -0.1970 -0.9800
vn -0.0279 -0.1977 -0.9799
vn -0.0379 -0.6748 -0.7370
vn -0.0386 -0.6751 -0.7367
vn -0.0385 -0.6736 -0.7381
vn -0.0677 -0.9308 -0.3592
vn -0.0675 -0.9307 -0.3594
vn -0.0678 -0.9308 -0.3592
vn -0.0843 -0.9922 -0.0923
vn -0.0848 -0.9921 -0.0929
vn -0.0846 -0.9921 -0.0927
vn -0.0317 -0.9161 -0.3997
vn -0.0317 -0.9161 -0.3998
vn 0.0025 -0.6470 -0.7625
vn 0.0033 -0.6472 -0.7623
vn 0.0022 -0.6463 -0.7631
vn -0.1332 -0.9853 -0.1066
vn -0.1183 -0.9859 -0.1182
vn -0.1210 -0.9883 -0.0932
vn 0.0422 -0.9164 -0.3981
vn 0.0535 -0.9196 -0.3891
vn 0.0434 -0.9136 -0.4042
vn -0.0065 -0.6431 -0.7657
vn -0.0046 -0.6426 -0.7662
vn -0.0039 -0.6405 -0.7680
vn -0.0579 -0.9345 0.3511
vn -0.0773 -0.9336 0.3498
vn -0.0772 -0.9338 0.3494
vn -0.0774 -0.9337 0.3496
vn 0.0902 -0.9120 0.4001
vn 0.0900 -0.9123 0.3994
vn 0.0894 -0.9117 0.4010
vn -0.0543 0.9985 0.0040
vn -0.0195 0.9811 0.1925
vn -0.0225 0.9809 0.1932
vn -0.0203 0.9811 0.1922
vn -0.0540 0.9324 0.3573
vn -0.0538 0.9322 0.3579
vn -0.0539 0.9324 0.3573
vn -0.0865 0.9916 0.0965
vn -0.0865 0.9913 0.0992
vn -0.0859 0.9911 0.1020
vn -0.0316 0.9975 0.0635
vn -0.0316 0.9975 0.0633
vn -0.0315 0.9975 0.0634
vn -0.2346 0.9641 0.1247
vn -0.2351 0.9638 0.1257
vn -0.2346 0.9640 0.1251
vn -0.3401 0.9250 0.1697
vn -0.3387 0.9258 0.1681
vn -0.3390 0.9258 0.1675
vn 0.0522 0.9126 0.4056
vn 0.0509 0.9127 0.4055
vn 0.0506 0.9127 0.4054
vn -0.1101 0.7203 0.6848
vn -0.1095 0.7196 0.6856
vn -0.1095 0.7198 0.6855
vn -0.1263 0.3126 0.9414
vn -0.1258 0.3128 0.9414
vn -0.1265 0.3124 0.9415
vn -0.0736 0.7057 0.7047
vn -0.0735 0.7056 0.7048
vn -0.0727 0.7054 0.7050
vn 0.0589 0.6740 0.7364
vn 0.0580 0.6737 0.7367
vn 0.0589 0.6743 0.7361
vn 0.0307 0.9068 0.4204
vn 0.0067 0.3473 0.9377
vn 0.0067 0.3472 0.9377
vn 0.0062 0.3475 0.9377
vn -0.0584 0.3220 0.9449
vn -0.0466 0.9984 -0.0329
vn -0.0465 0.9984 -0.0329
vn -0.0470 0.9984 -0.0316
vn -0.1583 0.7633 -0.6263
vn -0.1571 0.7620 -0.6282
vn -0.1585 0.7635 -0.6261
vn 0.0043 0.1562 -0.9877
vn 0.0063 0.1567 -0.9876
vn 0.0042 0.1570 -0.9876
vn 0.0187 0.2012 -0.9794
vn 0.0222 0.2079 -0.9779
vn 0.0225 0.2051 -0.9785
vn -0.0264 0.1938 -0.9807
vn -0.0259 0.1936 -0.9807
vn -0.0261 0.1936 -0.9807
vn -0.0690 0.7452 -0.6633
vn -0.0676 0.7463 -0.6621
vn -0.0674 0.7463 -0.6622
vn -0.0518 0.9247 -0.3772
vn -0.0517 0.9247 -0.3772
vn -0.0515 0.9246 -0.3775
vn -0.0848 0.9921 -0.0929
vn -0.0843 0.9922 -0.0923
vn -0.0846 0.9921 -0.0927
vn -0.0125 0.9263 -0.3765
vn -0.0125 0.9265 -0.3761
vn -0.0124 0.9264 -0.3763
vn 0.0025 0.6470 -0.7625
vn 0.0022 0.6463 -0.7631
vn 0.0033 0.6472 -0.7623
vn 0.0355 0.9947 -0.0960
vn 0.0479 0.9932 -0.1061
vn 0.0365 0.9954 -0.0884
vn -0.0883 0.9177 -0.3874
vn -0.0748 0.9227 -0.3782
vn -0.0775 0.9138 -0.3988
vn -0.0046 0.6426 -0.7662
vn -0.0065 0.6431 -0.7657
vn -0.0039 0.6405 -0.7680
vn -0.0579 0.9345 0.3511
vn -0.0775 0.9336 0.3499
vn -0.0775 0.9337 0.3496
vn -0.0774 0.9338 0.3494
vn 0.0148 0.9161 0.4007
vn 0.0134 0.9157 0.4016
vn 0.0148 0.9163 0.4002
vn 0.1639 0.9635 0.2119
vn 0.9708 0.1431 0.1924
vn 0.4866 -0.8486 0.2076
vn 0.3355 0.9292 0.1551
vn 0.9899 -0.0000 0.1414
vn 0.3355 -0.9292 0.1551
vn 0.7381 0.6047 -0.2993
vn 0.8505 -0.4364 -0.2935
vn 0.6610 -0.5739 -0.4834
vn 0.6600 -0.5754 -0.4830
vn 0.6611 -0.5739 -0.4833
vn 0.3001 -0.8590 -0.4148
vn 0.3006 -0.8591 -0.4143
vn 0.3004 -0.8591 -0.4144
vn 0.4812 -0.8068 -0.3429
vn 0.4813 -0.8066 -0.3432
vn 0.4810 -0.8070 -0.3427
vn 0.6498 -0.6656 -0.3670
vn 0.6499 -0.6659 -0.3663
vn 0.7381 -0.6047 -0.2993
vn 0.7944 -0.3694 -0.4821
vn 0.7947 -0.3692 -0.4817
vn 0.7947 -0.3693 -0.4818
vn 0.7947 -0.2108 -0.5692
vn 0.7933 -0.2112 -0.5710
vn 0.7947 -0.2107 -0.5693
vn 0.8611 -0.0000 -0.5084
vn 0.7933 0.2112 -0.5710
vn 0.7947 0.2108 -0.5692
vn 0.7947 0.2107 -0.5693
vn 0.7947 0.3692 -0.4817
vn 0.7944 0.3694 -0.4821
vn 0.7947 0.3693 -0.4818
vn 0.8724 -0.3381 -0.3531
vn 0.9350 -0.1584 -0.3173
vn 0.9256 -0.0000 -0.3786
vn 0.9350 0.1584 -0.3173
vn 0.8724 0.3381 -0.3531
vn 0.8505 0.4364 -0.2935
vn 0.6600 0.5754 -0.4830
vn 0.6610 0.5739 -0.4834
vn 0.6611 0.5739 -0.4833
vn 0.6499 0.6659 -0.3663
vn 0.6498 0.6656 -0.3670
vn 0.4668 0.8124 -0.3494
vn 0.4664 0.8129 -0.3489
vn 0.4667 0.8126 -0.3492
vn 0.3006 0.8591 -0.4142
vn 0.3001 0.8590 -0.4148
vn 0.3004 0.8591 -0.4144
vn -0.0004 -0.9961 -0.0883
vn -0.0010 -0.9961 -0.0884
vn 0.1731 -0.9841 0.0392
vn -0.0230 -0.9828 -0.1834
vn -0.0230 -0.9826 -0.1841
vn -0.0230 -0.9828 -0.1835
vn 0.1631 -0.9572 -0.2391
vn 0.1611 -0.9580 -0.2373
vn 0.1612 -0.9580 -0.2373
vn 0.1732 -0.9837 -0.0482
vn 0.3381 -0.9364 -0.0941
vn 0.3183 -0.9280 -0.1937
vn 0.3187 -0.9279 -0.1932
vn 0.3184 -0.9280 -0.1935
vn 0.4876 -0.8415 -0.2327
vn 0.4874 -0.8416 -0.2328
vn 0.3384 -0.9371 0.0853
vn 0.4922 -0.8697 0.0383
vn 0.4921 -0.8692 -0.0472
vn 0.6262 -0.7750 -0.0849
vn 0.6318 -0.7550 -0.1757
vn 0.7246 -0.6590 -0.2015
vn 0.8934 -0.4044 -0.1955
vn 0.9566 -0.2802 -0.0803
vn 0.9894 -0.1410 0.0355
vn 0.9419 -0.2916 -0.1667
vn 0.9655 -0.1458 -0.2158
vn 0.9891 -0.1408 -0.0436
vn 0.9963 -0.0000 -0.0856
vn 0.9852 -0.0000 -0.1717
vn 0.9655 0.1458 -0.2158
vn 0.9970 -0.0000 0.0776
vn 0.9894 0.1410 0.0355
vn 0.9891 0.1408 -0.0436
vn 0.9566 0.2802 -0.0803
vn 0.9419 0.2916 -0.1667
vn 0.8934 0.4044 -0.1955
vn 0.7246 0.6590 -0.2015
vn 0.6262 0.7750 -0.0849
vn 0.4922 0.8697 0.0383
vn 0.6318 0.7550 -0.1757
vn 0.4874 0.8416 -0.2328
vn 0.4876 0.8415 -0.2327
vn 0.4921 0.8692 -0.0472
vn 0.3381 0.9364 -0.0941
vn 0.3312 0.9249 -0.1866
vn 0.3310 0.9250 -0.1868
vn 0.1610 0.9574 -0.2397
vn 0.1589 0.9582 -0.2380
vn 0.1590 0.9582 -0.2378
vn 0.3384 0.9371 0.0853
vn 0.1731 0.9841 0.0392
vn 0.1732 0.9837 -0.0482
vn -0.0008 -0.0012 1.0000
vn -0.0000 -0.0000 1.0000
vn 0.0004 -0.0003 1.0000
vn -0.0230 0.9826 -0.1841
vn -0.0230 0.9828 -0.1834
vn -0.0230 0.9828 -0.1835
vn -0.0000 -0.0000 -1.0000
vn -0.0034 -0.0000 1.0000
vn 0.0001 0.0001 1.0000
vn -0.1586 -0.9584 0.2373
vn 0.0226 -0.9826 0.1841
vn 0.0216 -0.9829 0.1831
vn 0.1639 -0.9635 0.2119
vn 0.8280 -0.5414 -0.1462
vn 0.7428 -0.6685 -0.0372
vn 0.6255 -0.7756 0.0850
vn 0.8343 -0.5455 -0.0801
vn 0.9084 -0.4165 -0.0361
vn 0.7425 -0.6683 0.0455
vn 0.8337 -0.5450 0.0886
vn 0.9081 -0.4165 0.0444
vn 0.9568 -0.2795 0.0803
vn 0.6047 -0.7767 0.1763
vn 0.7180 -0.6583 0.2260
vn 0.8237 -0.5385 0.1774
vn 0.8903 -0.3991 0.2192
vn 0.9506 -0.2621 0.1664
vn 0.9708 -0.1431 0.1924
vn 0.8280 0.5414 -0.1462
vn 0.9084 0.4165 -0.0361
vn 0.9568 0.2795 0.0803
vn 0.8343 0.5455 -0.0801
vn 0.7428 0.6685 -0.0372
vn 0.9081 0.4165 0.0444
vn 0.8337 0.5450 0.0886
vn 0.7425 0.6683 0.0455
vn 0.6256 0.7755 0.0849
vn 0.9506 0.2621 0.1664
vn 0.8903 0.3991 0.2192
vn 0.8237 0.5385 0.1774
vn 0.7180 0.6583 0.2260
vn 0.6047 0.7767 0.1763
vn 0.4866 0.8486 0.2076
vn 0.0020 0.9963 0.0857
vn 0.0078 0.9839 0.1786
vn 0.0087 0.9837 0.1798
vn 0.0087 0.9837 0.1796
vn -0.1586 0.9584 0.2373
vn -0.0719 -0.9353 0.3464
vn -0.0699 -0.9361 0.3447
vn -0.0699 -0.9360 0.3450
vn 0.0977 -0.9192 0.3814
vn 0.0953 -0.9203 0.3794
vn 0.0975 -0.9194 0.3811
vn 0.2126 -0.9253 0.3141
vn 0.2136 -0.9246 0.3155
vn 0.2131 -0.9248 0.3151
vn 0.4272 -0.8480 0.3138
vn 0.4277 -0.8485 0.3116
vn 0.4278 -0.8480 0.3129
vn 0.5119 -0.7737 0.3732
vn 0.5112 -0.7747 0.3721
vn 0.5116 -0.7744 0.3723
vn 0.6810 -0.6537 0.3300
vn 0.6809 -0.6537 0.3301
vn 0.7260 -0.4129 0.5500
vn 0.7118 -0.4647 0.5267
vn 0.7121 -0.4639 0.5269
vn 0.7701 -0.5041 0.3910
vn 0.8712 -0.3712 0.3214
vn 0.7828 -0.2496 0.5700
vn 0.8751 -0.1047 0.4725
vn 0.8738 -0.1067 0.4745
vn 0.8745 -0.1062 0.4732
vn 0.9181 -0.1863 0.3498
vn 0.9531 -0.0949 0.2875
vn 0.9531 0.0949 0.2875
vn 0.8778 0.1089 0.4665
vn 0.8782 0.1130 0.4647
vn 0.8784 0.1126 0.4644
vn 0.9181 0.1863 0.3498
vn 0.8711 0.3712 0.3214
vn 0.7828 0.2496 0.5700
vn 0.7118 0.4647 0.5267
vn 0.7260 0.4129 0.5500
vn 0.7121 0.4639 0.5269
vn 0.7703 0.5048 0.3896
vn 0.6808 0.6539 0.3300
vn 0.6810 0.6538 0.3298
vn 0.5112 0.7747 0.3721
vn 0.5119 0.7737 0.3732
vn 0.5116 0.7744 0.3723
vn 0.4277 0.8485 0.3116
vn 0.4272 0.8480 0.3138
vn 0.4278 0.8480 0.3129
vn 0.2136 0.9246 0.3155
vn 0.2127 0.9253 0.3141
vn 0.2132 0.9248 0.3151
vn 0.0919 0.9202 0.3806
vn 0.0938 0.9172 0.3872
vn 0.0931 0.9196 0.3817
vn -0.1512 0.9255 0.3471
vn -0.1544 0.9244 0.3487
vn -0.1513 0.9255 0.3472
vn 1.0000 -0.0000 -0.0000
vn -0.6572 0.5795 0.4819
vn -0.1969 0.7574 0.6225
vn -0.1991 0.7562 0.6233
vn -0.1987 0.7559 0.6238
vn -0.4870 0.8063 0.3357
vn -0.4874 0.8056 0.3368
vn -0.4871 0.8055 0.3374
vn -0.4890 0.8036 0.3393
vn -0.4890 0.8034 0.3398
vn -0.4878 0.8036 0.3409
vn -0.6499 0.6657 0.3667
vn -0.6499 0.6659 0.3663
vn -0.6500 0.6659 0.3660
vn -0.7956 0.3807 0.4713
vn -0.7956 0.3806 0.4713
vn -0.7957 0.3805 0.4713
vn -0.7956 0.2099 0.5683
vn -0.7953 0.2096 0.5688
vn -0.7947 0.2092 0.5698
vn -0.8612 -0.0004 0.5083
vn -0.8613 -0.0012 0.5080
vn -0.8612 -0.0020 0.5083
vn -0.8612 0.0020 0.5083
vn -0.8613 0.0012 0.5080
vn -0.8612 0.0004 0.5083
vn -0.7941 -0.2127 0.5693
vn -0.7944 -0.2129 0.5689
vn -0.7943 -0.2176 0.5672
vn -0.7957 -0.3805 0.4713
vn -0.7956 -0.3806 0.4713
vn -0.7956 -0.3807 0.4713
vn -0.6609 -0.5744 0.4830
vn -0.6500 -0.6660 0.3660
vn -0.6499 -0.6660 0.3663
vn -0.6498 -0.6658 0.3667
vn -0.4983 -0.7977 0.3397
vn -0.4994 -0.7974 0.3386
vn -0.4982 -0.7986 0.3375
vn -0.4849 -0.8061 0.3393
vn -0.4850 -0.8061 0.3391
vn -0.4850 -0.8062 0.3387
vn -0.4871 -0.8056 0.3374
vn -0.4874 -0.8056 0.3368
vn -0.4870 -0.8063 0.3358
vn -0.1710 0.9845 -0.0393
vn -0.1711 0.9845 -0.0391
vn 0.0138 0.9836 0.1801
vn 0.0132 0.9838 0.1788
vn 0.0131 0.9838 0.1787
vn 0.0344 0.9864 0.1608
vn 0.0338 0.9867 0.1589
vn 0.0318 0.9869 0.1581
vn -0.1610 0.9577 0.2387
vn -0.1609 0.9576 0.2388
vn -0.1605 0.9577 0.2389
vn -0.1705 0.9843 0.0454
vn -0.1761 0.9831 0.0501
vn -0.1763 0.9830 0.0513
vn -0.4024 0.9085 0.1129
vn -0.4030 0.9083 0.1123
vn -0.4030 0.9080 0.1148
vn -0.3783 0.9198 0.1043
vn -0.3788 0.9196 0.1039
vn -0.3791 0.9195 0.1038
vn -0.3360 0.9364 0.1012
vn -0.3368 0.9362 0.1003
vn -0.3383 0.9356 0.1005
vn -0.3348 0.9376 0.0944
vn -0.3346 0.9376 0.0945
vn -0.3348 0.9375 0.0944
vn -0.3329 0.9232 0.1919
vn -0.3318 0.9237 0.1914
vn -0.3315 0.9240 0.1906
vn -0.3341 0.9232 0.1898
vn -0.3340 0.9233 0.1897
vn -0.3337 0.9236 0.1889
vn -0.4873 0.8418 0.2325
vn -0.4872 0.8417 0.2325
vn -0.4873 0.8417 0.2326
vn -0.8712 0.4909 -0.0016
vn -0.8724 0.4888 0.0002
vn -0.8717 0.4900 0.0019
vn -0.4977 0.8353 0.2337
vn -0.4973 0.8362 0.2313
vn -0.4978 0.8353 0.2335
vn -0.4880 0.8417 0.2311
vn -0.4895 0.8403 0.2331
vn -0.4892 0.8403 0.2338
vn -0.1387 0.9401 0.3114
vn -0.1414 0.9391 0.3133
vn -0.1393 0.9389 0.3149
vn -0.8717 -0.4900 0.0019
vn -0.8724 -0.4889 0.0002
vn -0.8712 -0.4909 -0.0016
vn -0.4867 -0.8405 0.2382
vn -0.4874 -0.8404 0.2372
vn -0.4874 -0.8407 0.2361
vn -0.4871 -0.8417 0.2330
vn -0.4873 -0.8417 0.2325
vn -0.4873 -0.8419 0.2317
vn -0.1393 -0.9389 0.3148
vn -0.1414 -0.9391 0.3133
vn -0.1388 -0.9401 0.3114
vn -0.4862 -0.8420 0.2340
vn -0.4853 -0.8420 0.2355
vn -0.4860 -0.8423 0.2332
vn -0.4030 -0.9080 0.1147
vn -0.4030 -0.9083 0.1123
vn -0.4024 -0.9085 0.1129
vn -0.3383 -0.9356 0.1005
vn -0.3368 -0.9362 0.1003
vn -0.3360 -0.9364 0.1012
vn -0.3398 -0.9359 0.0930
vn -0.3396 -0.9359 0.0930
vn -0.3395 -0.9360 0.0931
vn -0.3411 -0.9354 0.0936
vn -0.3389 -0.9363 0.0923
vn -0.3390 -0.9363 0.0922
vn -0.3338 -0.9235 0.1889
vn -0.3341 -0.9233 0.1897
vn -0.3342 -0.9232 0.1898
vn -0.3315 -0.9240 0.1906
vn -0.3318 -0.9237 0.1914
vn -0.3329 -0.9232 0.1918
vn -0.1605 -0.9577 0.2389
vn -0.1609 -0.9576 0.2388
vn -0.1610 -0.9577 0.2387
vn -0.1711 -0.9845 -0.0391
vn -0.1710 -0.9845 -0.0393
vn -0.1763 -0.9830 0.0513
vn -0.1761 -0.9831 0.0501
vn -0.1705 -0.9843 0.0454
vn 0.0131 -0.9838 0.1787
vn 0.0132 -0.9838 0.1788
vn 0.0138 -0.9836 0.1801
vn 0.0212 -0.9822 0.1865
vn 0.0216 -0.9822 0.1867
vn 0.0221 -0.9819 0.1881
vn -0.0013 0.9961 -0.0883
vn -0.0027 0.9960 -0.0892
vn -0.0227 0.9826 -0.1842
vn -0.0227 0.9826 -0.1841
vn -0.0215 0.9829 -0.1830
vn -0.0027 -0.9960 -0.0892
vn -0.0014 -0.9961 -0.0883
vn -0.0215 -0.9829 -0.1830
vn -0.0227 -0.9826 -0.1841
vn -0.0227 -0.9826 -0.1842
vn 0.1310 0.9257 -0.3548
vn 0.1166 0.9310 -0.3458
vn 0.1157 0.9320 -0.3434
vn -0.2105 0.9261 -0.3132
vn -0.2105 0.9260 -0.3133
vn -0.2108 0.9256 -0.3143
vn -0.4274 0.8489 -0.3109
vn -0.4277 0.8490 -0.3103
vn -0.3736 0.8718 -0.3169
vn -0.3766 0.8714 -0.3145
vn -0.3730 0.8745 -0.3101
vn -0.5179 0.7697 -0.3733
vn -0.5175 0.7701 -0.3730
vn -0.5149 0.7719 -0.3730
vn -0.6817 0.6526 -0.3308
vn -0.6816 0.6526 -0.3308
vn -0.6811 0.6524 -0.3323
vn -0.7704 0.5040 -0.3906
vn -0.7704 0.5040 -0.3904
vn -0.7708 0.5043 -0.3894
vn -0.8011 0.5058 -0.3200
vn -0.8016 0.5056 -0.3190
vn -0.7997 0.5095 -0.3177
vn -0.8550 0.0759 -0.5131
vn -0.8548 0.0766 -0.5132
vn -0.8548 0.0769 -0.5132
vn -0.8548 -0.0769 -0.5132
vn -0.8548 -0.0766 -0.5132
vn -0.8550 -0.0759 -0.5131
vn 0.0023 -0.0008 1.0000
vn -0.0026 0.0013 1.0000
vn -0.7421 -0.5595 -0.3691
vn -0.7422 -0.5578 -0.3715
vn -0.7415 -0.5581 -0.3725
vn -0.7653 -0.5097 -0.3930
vn -0.7652 -0.5097 -0.3933
vn -0.7652 -0.5096 -0.3934
vn -0.6869 -0.6425 -0.3397
vn -0.6873 -0.6438 -0.3364
vn -0.6886 -0.6432 -0.3349
vn -0.5149 -0.7719 -0.3730
vn -0.5175 -0.7701 -0.3731
vn -0.5179 -0.7697 -0.3733
vn -0.3730 -0.8745 -0.3101
vn -0.3766 -0.8714 -0.3145
vn -0.3736 -0.8718 -0.3169
vn -0.4277 -0.8490 -0.3103
vn -0.4274 -0.8489 -0.3109
vn -0.2108 -0.9256 -0.3143
vn -0.2105 -0.9260 -0.3133
vn -0.2105 -0.9261 -0.3132
vn 0.1392 -0.9275 -0.3468
vn 0.1395 -0.9273 -0.3473
vn 0.1476 -0.9231 -0.3550
vn -0.0457 -0.9964 0.0719
vn 0.2379 -0.9706 0.0357
vn 0.2154 -0.9731 -0.0820
vn -0.0841 -0.9945 0.0631
vn -0.0497 -0.9968 0.0632
vn -0.0600 -0.9967 0.0554
vn -0.0357 -0.9973 0.0643
vn 0.0174 -0.9982 -0.0574
vn -0.0473 -0.9966 0.0674
vn -0.2090 -0.9778 0.0142
vn -0.2095 -0.9777 0.0137
vn -0.2093 -0.9777 0.0134
vn -0.0108 -0.9776 0.2102
vn -0.0116 -0.9777 0.2098
vn -0.0117 -0.9777 0.2098
vn -0.0234 -0.9824 0.1851
vn -0.0244 -0.9824 0.1854
vn -0.0270 -0.9823 0.1855
vn -0.0870 -0.9911 0.1011
vn -0.0877 -0.9912 0.0990
vn -0.0851 -0.9915 0.0989
vn -0.0906 -0.9894 0.1132
vn -0.0907 -0.9894 0.1131
vn -0.0906 -0.9895 0.1128
vn -0.0570 -0.9894 0.1339
vn -0.0593 -0.9891 0.1349
vn -0.0571 -0.9894 0.1334
vn -0.0590 -0.9318 0.3582
vn -0.0587 -0.9319 0.3579
vn -0.0585 -0.9319 0.3579
vn -0.0773 -0.9417 0.3276
vn -0.0771 -0.9417 0.3275
vn -0.0766 -0.9417 0.3276
vn -0.2748 -0.9123 0.3036
vn -0.2747 -0.9123 0.3036
vn -0.2747 -0.9121 0.3045
vn -0.0359 -0.9292 0.3678
vn -0.0356 -0.9293 0.3676
vn -0.0352 -0.9293 0.3676
vn -0.0593 -0.9340 0.3524
vn -0.0597 -0.9340 0.3523
vn -0.0594 -0.9340 0.3524
vn -0.0566 -0.9329 0.3557
vn -0.0564 -0.9329 0.3556
vn -0.0559 -0.9326 0.3564
vn -0.0865 -0.9916 0.0965
vn -0.0859 -0.9911 0.1020
vn -0.0865 -0.9913 0.0992
vn -0.0549 -0.9941 0.0932
vn -0.0550 -0.9942 0.0928
vn -0.0549 -0.9942 0.0925
vn 0.0549 -0.9903 0.1275
vn 0.0558 -0.9902 0.1281
vn 0.0558 -0.9902 0.1283
vn 0.0452 -0.9942 0.0973
vn 0.0460 -0.9941 0.0979
vn 0.0460 -0.9941 0.0980
vn 0.0440 -0.9832 0.1773
vn 0.0461 -0.9830 0.1780
vn 0.0462 -0.9829 0.1784
vn 0.0242 -0.9893 0.1440
vn 0.0255 -0.9891 0.1448
vn 0.0256 -0.9891 0.1449
vn 0.0488 -0.9140 0.4028
vn 0.0474 -0.9141 0.4028
vn 0.0473 -0.9141 0.4028
vn 0.0432 -0.9127 0.4063
vn 0.0414 -0.9128 0.4064
vn 0.0386 -0.9137 0.4046
vn -0.1119 -0.7210 0.6839
vn -0.1119 -0.7209 0.6840
vn -0.1120 -0.7206 0.6842
vn -0.1168 -0.7202 0.6838
vn -0.1168 -0.7201 0.6840
vn -0.1175 -0.7195 0.6845
vn -0.1118 -0.3039 0.9461
vn -0.1113 -0.3044 0.9460
vn -0.1102 -0.3045 0.9461
vn -0.1271 -0.3106 0.9420
vn -0.1267 -0.3110 0.9419
vn -0.1264 -0.3112 0.9419
vn -0.0631 -0.4065 0.9115
vn -0.0625 -0.4071 0.9112
vn -0.0609 -0.4068 0.9115
vn -0.7788 -0.2216 0.5869
vn -0.7786 -0.2220 0.5870
vn -0.7776 -0.2216 0.5884
vn -0.1284 -0.3103 0.9419
vn -0.1278 -0.3106 0.9419
vn -0.1282 -0.3104 0.9419
vn -0.0577 -0.6755 0.7351
vn -0.0580 -0.6755 0.7350
vn -0.0582 -0.6758 0.7348
vn -0.1066 -0.7208 0.6849
vn -0.1072 -0.7209 0.6847
vn -0.1073 -0.7209 0.6847
vn 0.0242 -0.7125 0.7013
vn 0.0241 -0.7121 0.7017
vn 0.0240 -0.7120 0.7017
vn 0.0600 -0.6755 0.7349
vn 0.0598 -0.6752 0.7352
vn 0.1486 -0.5954 0.7895
vn 0.1488 -0.5948 0.7900
vn 0.1486 -0.5947 0.7901
vn 0.0663 -0.6696 0.7397
vn 0.0658 -0.6689 0.7404
vn 0.0663 -0.6693 0.7400
vn 0.0187 -0.7113 0.7027
vn 0.0183 -0.7118 0.7021
vn 0.0184 -0.7109 0.7030
vn 0.0167 -0.9419 0.3354
vn -0.0389 -0.9435 0.3292
vn -0.0487 -0.9175 0.3947
vn 0.0147 -0.9461 0.3235
vn 0.0048 -0.3316 0.9434
vn 0.0053 -0.3316 0.9434
vn 0.0054 -0.3314 0.9435
vn 0.0184 -0.3645 0.9310
vn 0.0185 -0.3644 0.9310
vn -0.9870 -0.0586 0.1496
vn -0.9869 -0.0591 0.1499
vn -0.9870 -0.0591 0.1497
vn 0.0177 -0.3624 0.9318
vn 0.0171 -0.3624 0.9319
vn 0.0177 -0.3624 0.9319
vn 0.0035 -0.3460 0.9382
vn 0.0036 -0.3457 0.9383
vn -0.0745 -0.3398 0.9375
vn -0.0744 -0.3398 0.9376
vn -0.0742 -0.3396 0.9376
vn -0.0480 -0.9984 -0.0310
vn -0.0479 -0.9983 -0.0317
vn -0.0470 -0.9984 -0.0328
vn -0.0291 -0.9980 -0.0568
vn -0.0289 -0.9980 -0.0571
vn -0.0271 -0.9979 -0.0584
vn 0.0041 -0.7639 -0.6453
vn 0.0041 -0.7619 -0.6476
vn 0.0041 -0.7617 -0.6479
vn -0.0006 -0.7317 -0.6817
vn -0.0016 -0.7286 -0.6849
vn 0.0007 -0.7264 -0.6873
vn -0.1874 -0.1626 -0.9687
vn -0.1874 -0.1621 -0.9688
vn -0.1865 -0.1633 -0.9688
vn 0.0043 -0.1470 -0.9891
vn 0.0044 -0.1468 -0.9892
vn 0.0049 -0.1463 -0.9892
vn 0.0010 -0.1408 -0.9900
vn 0.0010 -0.1406 -0.9901
vn 0.0028 -0.1408 -0.9900
vn -0.0371 -0.1581 -0.9867
vn -0.0370 -0.1577 -0.9868
vn -0.0366 -0.1574 -0.9869
vn 0.0187 -0.2012 -0.9794
vn 0.0225 -0.2051 -0.9785
vn 0.0222 -0.2079 -0.9779
vn -0.0409 -0.1943 -0.9801
vn -0.0410 -0.1927 -0.9804
vn -0.0405 -0.1927 -0.9804
vn 0.0102 -0.1463 -0.9892
vn 0.0108 -0.1459 -0.9892
vn 0.0111 -0.1458 -0.9893
vn -0.0265 -0.1937 -0.9807
vn -0.0261 -0.1935 -0.9807
vn -0.0259 -0.1935 -0.9808
vn 0.0954 -0.2096 -0.9731
vn 0.0952 -0.2080 -0.9735
vn 0.0956 -0.2079 -0.9735
vn -0.0458 -0.7376 -0.6737
vn -0.0439 -0.7382 -0.6731
vn -0.0446 -0.7384 -0.6729
vn -0.1004 -0.7738 -0.6255
vn -0.0985 -0.7747 -0.6246
vn -0.0986 -0.7747 -0.6245
vn 0.0616 -0.7070 -0.7045
vn 0.0626 -0.7083 -0.7031
vn 0.0624 -0.7084 -0.7031
vn 0.0174 -0.7288 -0.6845
vn 0.0170 -0.7296 -0.6836
vn 0.0158 -0.7298 -0.6835
vn -0.0385 -0.6758 -0.7361
vn -0.0386 -0.6759 -0.7360
vn -0.0387 -0.6759 -0.7359
vn -0.0388 -0.6708 -0.7406
vn -0.0368 -0.6717 -0.7399
vn -0.0367 -0.6716 -0.7400
vn 0.0286 -0.7075 -0.7061
vn 0.0294 -0.7069 -0.7067
vn 0.0173 -0.7286 -0.6847
vn 0.0169 -0.7294 -0.6838
vn 0.0161 -0.7296 -0.6837
vn -0.0371 -0.9258 -0.3761
vn -0.0372 -0.9259 -0.3760
vn -0.0374 -0.9259 -0.3760
vn -0.0489 -0.9248 -0.3774
vn -0.0490 -0.9248 -0.3773
vn -0.0492 -0.9248 -0.3773
vn -0.0405 -0.9987 -0.0321
vn -0.0403 -0.9987 -0.0319
vn -0.0400 -0.9987 -0.0315
vn -0.0125 -0.9263 -0.3765
vn -0.0124 -0.9264 -0.3763
vn -0.0125 -0.9265 -0.3761
vn 0.0074 -0.6406 -0.7678
vn 0.0049 -0.6435 -0.7654
vn 0.0114 -0.6388 -0.7692
vn 0.0369 -0.6799 -0.7324
vn 0.0363 -0.6798 -0.7325
vn 0.0360 -0.6796 -0.7327
vn 0.0596 -0.6858 -0.7253
vn 0.0596 -0.6858 -0.7254
vn 0.0587 -0.6854 -0.7258
vn 0.0008 -0.6443 -0.7648
vn 0.0035 -0.6403 -0.7682
vn 0.0003 -0.6439 -0.7651
vn 0.0016 -0.6470 -0.7625
vn 0.0007 -0.6461 -0.7632
vn 0.0007 -0.6466 -0.7628
vn 0.0315 -0.6777 -0.7346
vn 0.0318 -0.6777 -0.7347
vn 0.0306 -0.6772 -0.7352
vn 0.0374 -0.6802 -0.7320
vn 0.0381 -0.6803 -0.7320
vn 0.0368 -0.6796 -0.7327
vn 0.0001 -0.6423 -0.7664
vn -0.0009 -0.6414 -0.7672
vn -0.0007 -0.6421 -0.7666
vn 0.0304 -0.9962 -0.0813
vn 0.0171 -0.9954 -0.0941
vn 0.0171 -0.9953 -0.0950
vn 0.0467 -0.9951 -0.0867
vn 0.0455 -0.9947 -0.0927
vn 0.0452 -0.9947 -0.0927
vn 0.0578 -0.9233 -0.3798
vn 0.0509 -0.9198 -0.3890
vn 0.0535 -0.9171 -0.3951
vn 0.0298 -0.9179 -0.3958
vn 0.0281 -0.9158 -0.4007
vn -0.0082 -0.6407 -0.7677
vn -0.0092 -0.6429 -0.7659
vn -0.0212 -0.6436 -0.7651
vn 0.0574 -0.7052 -0.7066
vn 0.0569 -0.7085 -0.7034
vn 0.0518 -0.7094 -0.7029
vn 0.0013 -0.6412 -0.7673
vn 0.0008 -0.6415 -0.7671
vn -0.0098 -0.6435 -0.7654
vn -0.0948 -0.9422 0.3213
vn -0.0949 -0.9423 0.3210
vn -0.0948 -0.9425 0.3204
vn -0.1005 -0.9314 0.3498
vn -0.1007 -0.9315 0.3494
vn -0.1004 -0.9318 0.3487
vn -0.0607 -0.9982 0.0006
vn -0.0614 -0.9981 0.0002
vn -0.0609 -0.9981 0.0006
vn -0.1038 -0.9311 0.3498
vn -0.1040 -0.9312 0.3495
vn -0.1036 -0.9315 0.3488
vn 0.0688 -0.9444 0.3216
vn 0.0687 -0.9442 0.3222
vn 0.0687 -0.9442 0.3223
vn 0.0180 -0.9453 0.3257
vn 0.0179 -0.9451 0.3263
vn 0.0177 -0.9450 0.3265
vn 0.1174 -0.8956 0.4291
vn 0.1173 -0.8954 0.4294
vn 0.1171 -0.8952 0.4300
vn 0.0883 -0.9139 0.3961
vn 0.0871 -0.9134 0.3976
vn 0.0883 -0.9137 0.3968
vn 0.0951 -0.9091 0.4056
vn 0.0945 -0.9095 0.4049
vn 0.0946 -0.9087 0.4066
vn -0.0457 0.9964 0.0719
vn -0.0600 0.9967 0.0554
vn -0.0497 0.9968 0.0632
vn -0.0841 0.9945 0.0631
vn 0.2154 0.9731 -0.0820
vn 0.2379 0.9706 0.0357
vn -0.0439 0.9965 0.0705
vn 0.0174 0.9982 -0.0574
vn -0.0475 0.9967 0.0655
vn -0.0331 0.9834 0.1783
vn -0.0331 0.9834 0.1785
vn -0.0322 0.9833 0.1791
vn -0.0388 0.9928 0.1130
vn -0.0389 0.9928 0.1135
vn -0.0389 0.9928 0.1137
vn -0.0852 0.9914 0.0988
vn -0.0877 0.9912 0.0990
vn -0.0870 0.9911 0.1011
vn -0.0270 0.9823 0.1855
vn -0.0245 0.9824 0.1854
vn -0.0233 0.9825 0.1850
vn -0.0114 0.9791 0.2030
vn -0.0114 0.9791 0.2031
vn -0.0105 0.9790 0.2036
vn -0.0861 0.9914 0.0983
vn -0.0880 0.9911 0.0997
vn -0.2746 0.9121 0.3044
vn -0.2747 0.9123 0.3038
vn -0.0767 0.9417 0.3277
vn -0.0770 0.9417 0.3276
vn -0.0771 0.9416 0.3277
vn -0.0585 0.9319 0.3581
vn -0.0586 0.9319 0.3581
vn -0.0588 0.9318 0.3583
vn -0.0529 0.9356 0.3492
vn -0.0530 0.9358 0.3486
vn -0.0532 0.9357 0.3487
vn -0.0628 0.9333 0.3534
vn -0.0632 0.9334 0.3532
vn -0.0594 0.9339 0.3525
vn -0.0596 0.9339 0.3525
vn -0.0521 0.9885 0.1422
vn -0.0547 0.9881 0.1437
vn -0.0549 0.9942 0.0925
vn -0.0550 0.9942 0.0928
vn -0.0549 0.9941 0.0932
vn 0.0457 0.9943 0.0966
vn 0.0461 0.9944 0.0956
vn 0.0461 0.9944 0.0955
vn 0.0564 0.9934 0.0995
vn 0.0569 0.9935 0.0985
vn 0.0569 0.9935 0.0984
vn 0.0254 0.9890 0.1457
vn 0.0255 0.9892 0.1442
vn 0.0460 0.9881 0.1469
vn 0.0463 0.9883 0.1451
vn 0.0463 0.9883 0.1450
vn 0.0518 0.9147 0.4008
vn 0.0540 0.9122 0.4061
vn 0.0547 0.9122 0.4062
vn 0.0404 0.9146 0.4023
vn 0.0416 0.9144 0.4026
vn 0.0424 0.9144 0.4027
vn -0.1200 0.7194 0.6842
vn -0.1188 0.7200 0.6837
vn -0.1195 0.7206 0.6830
vn -0.1167 0.7205 0.6836
vn -0.1167 0.7205 0.6835
vn -0.0675 0.4043 0.9121
vn -0.0693 0.4055 0.9115
vn -0.0694 0.4054 0.9115
vn -0.0641 0.3220 0.9446
vn -0.0648 0.3219 0.9445
vn -0.0654 0.3211 0.9448
vn -0.1264 0.3143 0.9409
vn -0.1268 0.3142 0.9409
vn -0.1273 0.3135 0.9410
vn -0.1577 0.3154 0.9357
vn -0.1595 0.3159 0.9353
vn -0.1599 0.3155 0.9354
vn -0.2482 0.3706 0.8950
vn -0.2486 0.3704 0.8950
vn -0.2492 0.3699 0.8951
vn -0.0570 0.7242 0.6872
vn -0.0568 0.7241 0.6873
vn -0.0567 0.7240 0.6874
vn -0.1042 0.6734 0.7319
vn -0.1039 0.6732 0.7321
vn -0.1026 0.6733 0.7322
vn 0.0592 0.6691 0.7409
vn 0.0595 0.6692 0.7407
vn 0.0596 0.6694 0.7405
vn 0.0233 0.6762 0.7363
vn 0.0236 0.6764 0.7362
vn 0.0237 0.6766 0.7360
vn 0.0894 0.7054 0.7032
vn 0.0892 0.7053 0.7033
vn 0.0896 0.7056 0.7029
vn 0.0665 0.6861 0.7245
vn 0.0671 0.6868 0.7237
vn 0.0672 0.6864 0.7241
vn 0.0561 0.6707 0.7396
vn 0.0552 0.6705 0.7399
vn 0.0562 0.6709 0.7394
vn -0.0487 0.9175 0.3947
vn -0.0389 0.9435 0.3292
vn 0.0167 0.9419 0.3354
vn 0.6913 0.4799 0.5402
vn 0.0185 0.3644 0.9310
vn 0.0184 0.3645 0.9310
vn 0.0054 0.3458 0.9383
vn 0.0053 0.3461 0.9382
vn 0.0052 0.3461 0.9382
vn -0.9870 0.0591 0.1497
vn -0.9869 0.0591 0.1499
vn -0.9870 0.0586 0.1496
vn -0.0505 0.3195 0.9463
vn -0.0504 0.3199 0.9461
vn -0.0506 0.3200 0.9461
vn 0.0177 0.3624 0.9319
vn 0.0171 0.3624 0.9319
vn 0.0177 0.3624 0.9318
vn -0.0745 0.3395 0.9377
vn -0.0271 0.9979 -0.0584
vn -0.0289 0.9980 -0.0571
vn -0.0291 0.9980 -0.0568
vn -0.0470 0.9984 -0.0328
vn -0.0479 0.9983 -0.0317
vn -0.0480 0.9984 -0.0310
vn 0.0444 0.7118 -0.7010
vn 0.0358 0.7149 -0.6983
vn 0.0357 0.7152 -0.6980
vn 0.0037 0.7282 -0.6853
vn 0.0036 0.7285 -0.6850
vn 0.0035 0.7292 -0.6842
vn -0.0069 0.1416 -0.9899
vn -0.0086 0.1420 -0.9898
vn -0.0087 0.1425 -0.9898
vn 0.0029 0.1407 -0.9900
vn 0.0009 0.1406 -0.9901
vn 0.0009 0.1408 -0.9900
vn 0.0100 0.1330 -0.9911
vn 0.0087 0.1335 -0.9910
vn 0.0089 0.1332 -0.9910
vn -0.0083 0.1476 -0.9890
vn -0.0080 0.1474 -0.9890
vn -0.0085 0.1486 -0.9889
vn 0.0009 -0.0005 1.0000
vn -0.0001 -0.0011 1.0000
vn 0.0414 0.2115 -0.9765
vn 0.0415 0.2114 -0.9765
vn 0.0384 0.2078 -0.9774
vn 0.0111 0.1459 -0.9892
vn 0.0108 0.1459 -0.9892
vn 0.0103 0.1464 -0.9892
vn -0.0406 0.1927 -0.9804
vn -0.0410 0.1928 -0.9804
vn -0.0408 0.1942 -0.9801
vn 0.0956 0.2080 -0.9734
vn 0.0952 0.2081 -0.9735
vn 0.0954 0.2095 -0.9731
vn -0.0274 0.1971 -0.9800
vn -0.0272 0.1971 -0.9800
vn -0.0279 0.1977 -0.9799
vn 0.0005 -0.0008 1.0000
vn 0.0008 0.0002 1.0000
vn -0.0393 0.7073 -0.7058
vn -0.0388 0.7072 -0.7060
vn -0.0384 0.7067 -0.7065
vn 0.0164 0.6792 -0.7338
vn 0.0168 0.6791 -0.7339
vn 0.0171 0.6787 -0.7342
vn 0.0020 0.7302 -0.6832
vn 0.0026 0.7301 -0.6833
vn 0.0017 0.7287 -0.6848
vn -0.1955 0.8254 -0.5296
vn -0.1956 0.8254 -0.5296
vn -0.1960 0.8243 -0.5312
vn -0.0236 0.6403 -0.7678
vn -0.0231 0.6401 -0.7679
vn -0.0229 0.6389 -0.7689
vn -0.0406 0.7325 -0.6795
vn -0.0407 0.7330 -0.6790
vn -0.0409 0.7332 -0.6788
vn -0.0569 0.7191 -0.6926
vn -0.0565 0.7190 -0.6927
vn -0.0584 0.7182 -0.6934
vn 0.0282 0.7265 -0.6866
vn 0.0287 0.7264 -0.6867
vn 0.0286 0.7251 -0.6880
vn -0.0491 0.9254 -0.3759
vn -0.0490 0.9254 -0.3759
vn -0.0490 0.9253 -0.3759
vn -0.0373 0.9323 -0.3598
vn -0.0370 0.9323 -0.3598
vn -0.0369 0.9321 -0.3603
vn -0.0400 0.9987 -0.0315
vn -0.0403 0.9987 -0.0319
vn -0.0405 0.9987 -0.0321
vn -0.0317 0.9161 -0.3997
vn -0.0317 0.9161 -0.3998
vn 0.0358 0.6874 -0.7254
vn 0.0362 0.6883 -0.7245
vn 0.0374 0.6883 -0.7245
vn 0.0005 0.6405 -0.7680
vn 0.0061 0.6383 -0.7698
vn 0.0002 0.6435 -0.7654
vn 0.0017 0.6547 -0.7559
vn -0.0023 0.6545 -0.7561
vn 0.0024 0.6551 -0.7555
vn 0.0384 0.6797 -0.7325
vn 0.0386 0.6798 -0.7324
vn 0.0392 0.6800 -0.7322
vn 0.0306 0.6772 -0.7352
vn 0.0318 0.6777 -0.7347
vn 0.0315 0.6777 -0.7346
vn 0.0007 0.6466 -0.7628
vn 0.0007 0.6461 -0.7632
vn 0.0016 0.6470 -0.7625
vn -0.0007 0.6421 -0.7666
vn -0.0009 0.6414 -0.7672
vn 0.0001 0.6423 -0.7664
vn 0.0368 0.6796 -0.7327
vn 0.0381 0.6803 -0.7320
vn 0.0374 0.6802 -0.7320
vn 0.0535 0.9916 -0.1175
vn 0.0456 0.9932 -0.1069
vn 0.0480 0.9939 -0.0996
vn 0.0191 0.9949 -0.0986
vn 0.0170 0.9955 -0.0928
vn 0.0171 0.9955 -0.0928
vn 0.0399 0.9113 -0.4099
vn 0.0281 0.9162 -0.3997
vn 0.0281 0.9165 -0.3991
vn 0.0523 0.9127 -0.4053
vn 0.0511 0.9148 -0.4006
vn 0.0510 0.9148 -0.4006
vn -0.0212 0.6436 -0.7651
vn -0.0092 0.6429 -0.7659
vn -0.0082 0.6407 -0.7677
vn -0.0097 0.6435 -0.7654
vn 0.0008 0.6415 -0.7671
vn 0.0013 0.6412 -0.7673
vn 0.0518 0.7094 -0.7029
vn 0.0569 0.7085 -0.7034
vn 0.0574 0.7052 -0.7066
vn -0.1005 0.9319 0.3486
vn -0.1009 0.9315 0.3495
vn -0.1006 0.9314 0.3499
vn -0.0950 0.9425 0.3204
vn -0.0951 0.9423 0.3210
vn -0.0949 0.9422 0.3213
vn -0.0610 0.9981 0.0008
vn -0.0616 0.9981 0.0002
vn -0.0607 0.9982 0.0008
vn -0.1037 0.9315 0.3486
vn -0.1042 0.9311 0.3495
vn -0.1039 0.9310 0.3499
vn 0.0170 0.9245 0.3809
vn 0.0175 0.9247 0.3803
vn 0.0176 0.9248 0.3800
vn 0.0684 0.9423 0.3277
vn 0.0687 0.9424 0.3273
vn 0.0688 0.9425 0.3269
vn 0.0750 0.9443 0.3204
vn 0.0749 0.9443 0.3205
vn 0.0752 0.9444 0.3200
vn 0.0157 0.9202 0.3912
vn 0.0165 0.9209 0.3895
vn 0.0168 0.9206 0.3902
vn 0.0124 0.9140 0.4055
vn 0.0106 0.9138 0.4060
vn 0.0125 0.9142 0.4050
vn 0.6577 -0.5786 -0.4823
vn 0.6585 -0.5778 -0.4822
vn 0.6590 -0.5776 -0.4818
vn 0.6604 -0.5781 -0.4793
vn 0.6606 -0.5779 -0.4792
vn 0.6607 -0.5778 -0.4791
vn 0.3166 -0.8570 -0.4067
vn 0.3157 -0.8571 -0.4070
vn 0.3157 -0.8571 -0.4071
vn 0.4648 -0.8119 -0.3534
vn 0.4646 -0.8129 -0.3513
vn 0.4643 -0.8132 -0.3510
vn 0.4905 -0.8027 -0.3392
vn 0.4902 -0.8031 -0.3386
vn 0.4900 -0.8034 -0.3384
vn 0.6499 -0.6674 -0.3636
vn 0.6498 -0.6674 -0.3638
vn 0.6497 -0.6673 -0.3643
vn 0.7955 -0.3811 -0.4711
vn 0.7954 -0.3812 -0.4712
vn 0.7948 -0.3811 -0.4722
vn 0.7947 -0.2205 -0.5655
vn 0.7948 -0.2206 -0.5653
vn 0.7951 -0.2209 -0.5648
vn 0.8654 0.0192 -0.5007
vn 0.8653 0.0187 -0.5009
vn 0.8653 -0.0187 -0.5009
vn 0.8654 -0.0192 -0.5007
vn 0.7951 0.2209 -0.5648
vn 0.7948 0.2206 -0.5653
vn 0.7947 0.2205 -0.5655
vn 0.7948 0.3811 -0.4722
vn 0.7954 0.3812 -0.4712
vn 0.7955 0.3811 -0.4711
vn 0.6607 0.5778 -0.4791
vn 0.6606 0.5779 -0.4792
vn 0.6604 0.5781 -0.4793
vn 0.6590 0.5776 -0.4818
vn 0.6585 0.5778 -0.4822
vn 0.6577 0.5786 -0.4823
vn 0.6497 0.6673 -0.3643
vn 0.6498 0.6674 -0.3638
vn 0.6499 0.6674 -0.3636
vn 0.4838 0.8059 -0.3413
vn 0.4864 0.8042 -0.3415
vn 0.4867 0.8039 -0.3420
vn 0.4900 0.8034 -0.3384
vn 0.4902 0.8031 -0.3386
vn 0.4905 0.8027 -0.3392
vn 0.3156 0.8571 -0.4071
vn 0.3157 0.8571 -0.4070
vn 0.3166 0.8570 -0.4066
vn -0.0008 0.0012 1.0000
vn 0.0003 0.0004 1.0000
vn -0.0181 -0.9827 -0.1844
vn -0.0172 -0.9830 -0.1826
vn -0.0173 -0.9831 -0.1823
vn 0.1380 -0.9603 -0.2426
vn 0.1379 -0.9602 -0.2428
vn 0.1378 -0.9602 -0.2429
vn 0.1550 -0.9593 -0.2361
vn 0.1547 -0.9592 -0.2365
vn 0.1559 -0.9586 -0.2385
vn 0.2119 -0.9454 -0.2476
vn 0.2116 -0.9454 -0.2478
vn 0.2114 -0.9454 -0.2481
vn 0.3349 -0.9234 -0.1876
vn 0.3348 -0.9234 -0.1877
vn 0.4867 -0.8435 -0.2273
vn 0.4878 -0.8428 -0.2274
vn 0.4886 -0.8427 -0.2262
vn 0.4887 0.8426 -0.2262
vn 0.4878 0.8428 -0.2274
vn 0.4866 0.8435 -0.2273
vn 0.2114 0.9454 -0.2481
vn 0.2116 0.9454 -0.2478
vn 0.2119 0.9454 -0.2476
vn 0.3350 0.9230 -0.1894
vn 0.3348 0.9233 -0.1884
vn 0.1744 0.9590 -0.2233
vn 0.1716 0.9599 -0.2219
vn 0.1719 0.9599 -0.2215
vn 0.1378 0.9602 -0.2429
vn 0.1378 0.9602 -0.2428
vn 0.1379 0.9603 -0.2426
vn -0.0004 0.9961 -0.0883
vn -0.0009 0.9962 -0.0869
vn -0.0173 0.9831 -0.1823
vn -0.0172 0.9830 -0.1826
vn -0.0181 0.9827 -0.1844
vn 0.0009 -0.9960 0.0890
vn 0.0077 -0.9839 0.1787
vn 0.0085 -0.9837 0.1796
vn 0.0085 -0.9837 0.1798
vn -0.0032 -0.0009 1.0000
vn 0.0001 -0.0001 1.0000
vn 0.0228 0.9826 0.1841
vn 0.0217 0.9829 0.1830
vn -0.1512 -0.9255 0.3471
vn -0.1513 -0.9255 0.3472
vn -0.1544 -0.9244 0.3487
vn 0.0919 -0.9202 0.3806
vn 0.0931 -0.9196 0.3817
vn 0.0937 -0.9172 0.3872
vn 0.2137 -0.9246 0.3153
vn 0.2119 -0.9253 0.3144
vn 0.2115 -0.9256 0.3138
vn 0.4260 -0.8502 0.3092
vn 0.4260 -0.8501 0.3097
vn 0.4259 -0.8501 0.3098
vn 0.5088 -0.7765 0.3717
vn 0.5102 -0.7755 0.3720
vn 0.5102 -0.7754 0.3720
vn 0.6829 -0.6501 0.3332
vn 0.6831 -0.6504 0.3323
vn 0.6832 -0.6503 0.3322
vn 0.7097 -0.4798 0.5158
vn 0.7171 -0.4705 0.5142
vn 0.7325 -0.4298 0.5280
vn 0.7637 -0.5046 0.4026
vn 0.7710 -0.5041 0.3892
vn 0.8782 -0.1130 0.4647
vn 0.8784 -0.1126 0.4644
vn 0.8751 0.1047 0.4725
vn 0.8745 0.1062 0.4732
vn 0.8738 0.1067 0.4745
vn 0.0011 0.0013 1.0000
vn 0.0046 -0.0000 1.0000
vn 0.7325 0.4298 0.5280
vn 0.7170 0.4706 0.5142
vn 0.7097 0.4798 0.5158
vn 0.7748 0.4961 0.3918
vn 0.7717 0.5051 0.3865
vn 0.6831 0.6504 0.3321
vn 0.6830 0.6505 0.3322
vn 0.6828 0.6501 0.3334
vn 0.5102 0.7754 0.3720
vn 0.5102 0.7755 0.3720
vn 0.5088 0.7765 0.3717
vn 0.4259 0.8501 0.3098
vn 0.4260 0.8501 0.3097
vn 0.4260 0.8502 0.3092
vn 0.2116 0.9256 0.3138
vn 0.2119 0.9253 0.3144
vn 0.2137 0.9246 0.3152
vn 0.0977 0.9192 0.3814
vn 0.0975 0.9194 0.3811
vn 0.0953 0.9203 0.3794
vn -0.0719 0.9353 0.3464
vn -0.0700 0.9360 0.3449
vn -0.0699 0.9361 0.3447
vn 1.0000 0.0004 -0.0000
vn 1.0000 -0.0001 -0.0000
vn 1.0000 0.0001 -0.0000
vn 1.0000 -0.0002 -0.0000
vt 0.000000 0.000000
vt 0.610575 0.747023
vt 0.604276 0.764066
vt 0.602907 0.741687
vt 0.591722 0.767191
vt 0.582920 0.764947
vt 0.610284 0.733132
vt 0.637346 0.731159
vt 0.633804 0.733990
vt 0.579162 0.742024
vt 0.534361 0.733995
vt 0.551932 0.716447
vt 0.570224 0.699365
vt 0.595356 0.723819
vt 0.549907 0.714424
vt 0.565103 0.698527
vt 0.532740 0.732378
vt 0.548525 0.715863
vt 0.576286 0.690833
vt 0.574067 0.689152
vt 0.664447 0.700183
vt 0.660231 0.712183
vt 0.655454 0.714741
vt 0.677301 0.680610
vt 0.684675 0.692203
vt 0.676976 0.700522
vt 0.649582 0.715583
vt 0.624598 0.692923
vt 0.639321 0.677037
vt 0.616368 0.674864
vt 0.617988 0.674081
vt 0.610975 0.706958
vt 0.588466 0.692201
vt 0.635299 0.662564
vt 0.645533 0.651730
vt 0.563241 0.760908
vt 0.568999 0.781077
vt 0.559173 0.792506
vt 0.541423 0.853354
vt 0.547547 0.852075
vt 0.546273 0.855647
vt 0.533720 0.890743
vt 0.544132 0.872796
vt 0.504984 0.823314
vt 0.493748 0.829068
vt 0.496831 0.815701
vt 0.522471 0.882248
vt 0.491981 0.835019
vt 0.549951 0.828680
vt 0.540094 0.815037
vt 0.545459 0.780999
vt 0.548798 0.804758
vt 0.540734 0.814273
vt 0.516231 0.753078
vt 0.496900 0.774051
vt 0.526318 0.802311
vt 0.501321 0.799217
vt 0.501775 0.794352
vt 0.515752 0.750231
vt 0.514602 0.751428
vt 0.494899 0.771880
vt 0.513383 0.752681
vt 0.493122 0.774485
vt 0.493678 0.773111
vt 0.638398 0.730316
vt 0.643929 0.723954
vt 0.641047 0.728161
vt 0.637439 0.731073
vt 0.596611 0.688700
vt 0.600938 0.684286
vt 0.735171 0.603913
vt 0.757490 0.604382
vt 0.740789 0.611335
vt 0.759809 0.600063
vt 0.752752 0.563694
vt 0.757521 0.583102
vt 0.726079 0.638643
vt 0.726949 0.611599
vt 0.733838 0.617477
vt 0.734577 0.580262
vt 0.724917 0.535941
vt 0.691733 0.572987
vt 0.717078 0.597102
vt 0.690703 0.567908
vt 0.708076 0.554099
vt 0.688544 0.570147
vt 0.705984 0.552152
vt 0.707368 0.550722
vt 0.683454 0.579364
vt 0.683350 0.582695
vt 0.700347 0.670984
vt 0.710873 0.653329
vt 0.710463 0.657372
vt 0.696311 0.666953
vt 0.699969 0.673890
vt 0.692137 0.684888
vt 0.672172 0.642826
vt 0.711058 0.651482
vt 0.710874 0.653329
vt 0.687434 0.627490
vt 0.668366 0.621643
vt 0.669083 0.619994
vt 0.700889 0.613339
vt 0.684987 0.592643
vt 0.647147 0.650050
vt 0.657557 0.639391
vt 0.783972 0.558438
vt 0.773003 0.568639
vt 0.833794 0.546393
vt 0.846805 0.542669
vt 0.845930 0.543287
vt 0.871271 0.518879
vt 0.880023 0.529611
vt 0.866445 0.539810
vt 0.812545 0.503661
vt 0.817859 0.492369
vt 0.820226 0.491663
vt 0.823679 0.490427
vt 0.835856 0.479483
vt 0.805587 0.538681
vt 0.843486 0.538596
vt 0.819055 0.547891
vt 0.792492 0.525510
vt 0.795727 0.547693
vt 0.743272 0.517212
vt 0.772046 0.545270
vt 0.763469 0.497283
vt 0.783768 0.501444
vt 0.788575 0.500833
vt 0.723248 0.534382
vt 0.740423 0.516832
vt 0.742780 0.514390
vt 0.741574 0.515645
vt 0.762431 0.494109
vt 0.763777 0.493516
vt 0.725283 0.639727
vt 0.723243 0.642455
vt 0.719169 0.645503
vt 0.725998 0.638739
vt 0.677877 0.604219
vt 0.682113 0.599727
vt 0.613236 0.741027
vt 0.613557 0.741914
vt 0.613273 0.743047
vt 0.610870 0.746754
vt 0.610119 0.748530
vt 0.608227 0.735502
vt 0.607941 0.739783
vt 0.602960 0.765636
vt 0.600034 0.766570
vt 0.583807 0.765853
vt 0.576643 0.772168
vt 0.637219 0.731271
vt 0.616453 0.739802
vt 0.613761 0.739637
vt 0.567263 0.696281
vt 0.579614 0.690601
vt 0.651423 0.715322
vt 0.668654 0.704046
vt 0.671544 0.703545
vt 0.686213 0.689145
vt 0.682209 0.695247
vt 0.651422 0.715322
vt 0.618750 0.673479
vt 0.627496 0.665763
vt 0.606330 0.675321
vt 0.613783 0.675330
vt 0.589635 0.691855
vt 0.593282 0.690154
vt 0.646143 0.650700
vt 0.654109 0.658353
vt 0.632543 0.664327
vt 0.636381 0.661384
vt 0.545683 0.856557
vt 0.548928 0.843254
vt 0.543755 0.876107
vt 0.543542 0.876576
vt 0.493111 0.831485
vt 0.492598 0.833975
vt 0.481334 0.847708
vt 0.540870 0.815331
vt 0.544423 0.819155
vt 0.549888 0.828292
vt 0.550292 0.835572
vt 0.496920 0.779817
vt 0.494427 0.776489
vt 0.497943 0.814034
vt 0.501069 0.788166
vt 0.499665 0.809378
vt 0.492630 0.774176
vt 0.637346 0.731158
vt 0.603871 0.680364
vt 0.594950 0.689720
vt 0.736941 0.614179
vt 0.735824 0.614507
vt 0.734929 0.614223
vt 0.733478 0.609000
vt 0.729227 0.609454
vt 0.742269 0.610821
vt 0.740534 0.611639
vt 0.758456 0.583949
vt 0.760096 0.591768
vt 0.758998 0.603011
vt 0.764454 0.576575
vt 0.728754 0.635000
vt 0.726186 0.638512
vt 0.733567 0.614801
vt 0.681691 0.577213
vt 0.708112 0.662242
vt 0.689202 0.687479
vt 0.697182 0.679439
vt 0.669446 0.617395
vt 0.669142 0.609954
vt 0.660440 0.631468
vt 0.667795 0.622428
vt 0.685287 0.591463
vt 0.683433 0.596347
vt 0.659208 0.636567
vt 0.656422 0.640520
vt 0.842453 0.544685
vt 0.865992 0.540038
vt 0.862746 0.540534
vt 0.804747 0.495834
vt 0.822668 0.491072
vt 0.804855 0.539342
vt 0.826261 0.548025
vt 0.819440 0.547939
vt 0.809820 0.542816
vt 0.805906 0.539438
vt 0.803134 0.496991
vt 0.765809 0.494751
vt 0.769192 0.497113
vt 0.798581 0.498853
vt 0.777612 0.500949
vt 0.761247 0.495361
vt 0.763455 0.493035
vt 0.683065 0.598029
vt 0.674078 0.607301
s 0
usemtl blinn1SG.004
f 37/1/1 1/1/1 17/1/1
f 3/1/2 26/1/2 44/1/2
f 55/1/3 5/1/3 34/1/3
f 45/1/4 1/1/4 37/1/4
f 3/1/5 44/1/5 57/1/5
f 55/1/6 63/1/6 5/1/6
f 66/1/7 79/1/7 9/1/7
f 82/1/8 12/1/8 71/1/8
f 82/1/9 258/1/9 259/1/9
f 261/1/10 73/1/11 264/1/12
f 264/1/13 82/1/14 259/1/15
f 82/1/16 73/1/16 12/1/16
f 257/1/17 88/1/18 265/1/19
f 88/1/20 266/1/21 265/1/22
f 268/1/23 88/1/23 89/1/23
f 89/1/24 270/1/25 269/1/26
f 89/1/27 272/1/28 271/1/29
f 88/1/30 82/1/30 71/1/30
f 71/1/31 69/1/31 88/1/31
f 88/1/32 69/1/32 89/1/32
f 69/1/33 67/1/33 89/1/33
f 79/1/34 89/1/34 67/1/34
f 79/1/35 67/1/35 9/1/35
f 79/1/36 273/1/36 272/1/36
f 79/1/37 275/1/38 274/1/39
f 277/1/40 278/1/41 66/1/42
f 280/1/43 281/1/43 120/1/43
f 63/1/44 282/1/45 283/1/46
f 285/1/47 284/1/48 120/1/49
f 287/1/50 286/1/51 285/1/52
f 290/1/53 95/1/54 289/1/55
f 292/1/56 291/1/56 293/1/57
f 294/1/58 96/1/59 293/1/60
f 96/1/61 288/1/62 287/1/63
f 297/1/64 298/1/65 96/1/66
f 95/1/67 63/1/67 55/1/67
f 53/1/68 95/1/68 55/1/68
f 96/1/69 95/1/69 53/1/69
f 53/1/70 51/1/70 96/1/70
f 73/1/71 96/1/71 51/1/71
f 12/1/72 73/1/72 51/1/72
f 61/1/73 71/1/73 12/1/73
f 59/1/74 98/1/74 61/1/74
f 57/1/75 100/1/75 59/1/75
f 61/1/76 98/1/76 71/1/76
f 98/1/77 69/1/77 71/1/77
f 59/1/78 100/1/78 98/1/78
f 100/1/79 101/1/79 98/1/79
f 98/1/80 101/1/80 69/1/80
f 101/1/81 67/1/81 69/1/81
f 57/1/82 44/1/82 100/1/82
f 44/1/83 42/1/83 100/1/83
f 100/1/84 42/1/84 101/1/84
f 42/1/85 39/1/85 101/1/85
f 101/1/86 39/1/86 67/1/86
f 39/1/87 9/1/87 67/1/87
f 9/1/88 49/1/88 66/1/88
f 48/1/89 103/1/89 49/1/89
f 48/1/90 45/1/90 104/1/90
f 66/1/91 49/1/91 103/1/91
f 301/1/92 66/1/93 302/1/94
f 103/1/95 48/1/95 104/1/95
f 103/1/96 306/1/97 307/1/98
f 103/1/99 311/1/100 312/1/101
f 314/1/102 311/1/103 313/1/104
f 104/1/105 45/1/105 37/1/105
f 316/1/106 37/1/107 315/1/108
f 104/1/109 317/1/110 306/1/111
f 318/1/112 309/1/113 310/1/112
f 319/1/114 123/1/114 320/1/114
f 123/1/115 314/1/116 313/1/117
f 124/1/118 283/1/119 322/1/119
f 35/1/120 127/1/120 128/1/120
f 63/1/121 127/1/122 35/1/123
f 63/1/124 35/1/124 5/1/124
f 51/1/125 61/1/125 12/1/125
f 53/1/126 107/1/126 51/1/126
f 55/1/127 108/1/127 53/1/127
f 51/1/128 107/1/128 61/1/128
f 107/1/129 59/1/129 61/1/129
f 53/1/130 108/1/130 107/1/130
f 108/1/131 110/1/131 107/1/131
f 107/1/132 110/1/132 59/1/132
f 110/1/133 57/1/133 59/1/133
f 108/1/134 55/1/134 34/1/134
f 34/1/135 32/1/135 108/1/135
f 108/1/136 32/1/136 110/1/136
f 32/1/137 30/1/137 110/1/137
f 110/1/138 30/1/138 57/1/138
f 30/1/139 3/1/139 57/1/139
f 39/1/140 49/1/140 9/1/140
f 42/1/141 111/1/141 39/1/141
f 44/1/142 113/1/142 42/1/142
f 39/1/143 111/1/143 49/1/143
f 111/1/144 48/1/144 49/1/144
f 42/1/145 113/1/145 111/1/145
f 113/1/146 115/1/146 111/1/146
f 111/1/147 115/1/147 48/1/147
f 115/1/148 45/1/148 48/1/148
f 44/1/149 26/1/149 113/1/149
f 26/1/150 25/1/150 113/1/150
f 113/1/151 25/1/151 115/1/151
f 25/1/152 22/1/152 115/1/152
f 115/1/153 22/1/153 45/1/153
f 45/1/154 22/1/154 1/1/154
f 315/1/155 130/1/156 323/1/157
f 132/1/158 37/1/159 17/1/160
f 17/1/161 133/1/161 132/1/161
f 128/1/162 325/1/163 35/1/164
f 326/1/165 35/1/165 325/1/165
f 5/1/166 326/1/167 327/1/168
f 5/1/169 329/1/170 328/1/171
f 34/1/172 330/1/173 331/1/174
f 32/1/175 331/1/176 332/1/177
f 116/1/178 333/1/178 334/1/178
f 332/1/179 333/1/180 116/1/181
f 30/1/182 32/1/182 116/1/182
f 116/1/183 334/1/183 336/1/183
f 19/1/184 336/1/185 337/1/186
f 30/1/187 116/1/187 19/1/187
f 19/1/188 3/1/188 30/1/188
f 19/1/189 26/1/189 3/1/189
f 339/1/190 19/1/191 337/1/192
f 26/1/193 19/1/193 117/1/193
f 25/1/194 26/1/194 117/1/194
f 339/1/195 340/1/195 117/1/195
f 340/1/196 341/1/196 117/1/196
f 25/1/197 341/1/198 342/1/199
f 25/1/200 344/1/201 22/1/202
f 346/1/203 22/1/204 344/1/205
f 348/1/206 1/1/207 345/1/208
f 349/1/209 1/1/210 347/1/211
f 17/1/212 349/1/212 350/1/212
f 133/1/213 350/1/214 351/1/215
f 130/1/216 352/1/216 355/1/216
f 128/1/216 127/1/216 359/1/216
f 120/1/216 362/1/216 280/1/216
f 123/1/216 356/1/216 321/1/216
f 318/2/217 307/3/217 319/4/217
f 316/5/218 323/6/219 307/3/220
f 321/7/221 305/8/222 303/9/223
f 8/10/224 16/11/225 15/12/225
f 8/10/226 14/13/227 6/14/228
f 14/13/229 167/15/230 166/16/231
f 15/12/232 170/17/233 169/18/234
f 172/19/235 14/13/236 171/20/237
f 41/21/238 274/22/239 275/23/240
f 81/24/241 269/25/242 271/26/243
f 41/21/244 276/27/245 149/28/246
f 68/29/247 178/30/248 174/31/249
f 74/32/250 14/13/250 180/33/250
f 68/29/251 183/34/252 186/35/253
f 68/29/254 81/24/255 41/21/256
f 10/36/257 354/37/258 353/38/259
f 144/39/260 344/40/261 343/41/262
f 338/42/263 144/39/264 341/43/265
f 143/44/266 189/45/267 190/46/268
f 143/44/269 142/47/270 191/48/271
f 348/49/272 143/44/273 351/50/274
f 145/51/275 352/52/276 357/53/277
f 10/36/278 147/54/279 16/11/280
f 145/51/281 148/55/282 147/54/281
f 146/56/283 194/57/284 198/58/285
f 201/59/286 16/11/287 202/60/288
f 147/54/289 203/61/290 204/62/291
f 207/63/292 206/64/293 148/55/294
f 301/65/295 277/66/295 279/67/295
f 276/27/296 304/68/297 74/32/298
f 149/28/299 210/69/300 209/70/301
f 280/71/302 294/72/302 292/73/302
f 290/74/303 152/75/304 322/76/305
f 300/77/306 284/78/307 288/79/308
f 150/80/309 154/81/310 152/75/311
f 156/82/312 150/80/313 151/83/314
f 212/84/315 155/85/316 213/86/317
f 154/81/318 214/87/319 215/88/320
f 218/89/321 213/86/322 219/90/323
f 258/91/324 262/92/325 264/93/326
f 157/94/327 257/95/328 266/96/329
f 159/97/330 260/98/331 262/99/332
f 158/100/333 222/101/334 225/102/335
f 156/82/336 153/103/336 226/104/336
f 159/97/337 229/105/338 231/106/339
f 81/24/340 159/97/340 157/94/340
f 152/75/341 360/107/342 359/108/343
f 330/109/344 335/110/345 332/111/346
f 142/112/347 338/113/348 336/114/349
f 162/115/350 235/116/351 234/117/352
f 142/112/353 237/118/354 193/119/355
f 324/120/356 161/121/357 327/122/358
f 163/123/359 358/124/360 360/107/361
f 164/125/362 152/75/363 154/81/364
f 160/126/365 165/127/366 163/123/367
f 163/123/368 240/128/369 239/129/370
f 164/125/371 216/130/372 246/131/373
f 248/132/374 165/127/375 247/133/376
f 250/134/377 252/135/378 165/127/379
f 297/136/380 263/137/380 261/138/380
f 260/98/381 153/103/382 299/139/383
f 153/103/384 253/140/385 254/141/386
f 36/1/387 18/1/387 2/1/387
f 4/1/388 43/1/388 24/1/388
f 56/1/389 29/1/389 7/1/389
f 46/1/390 36/1/390 2/1/390
f 4/1/391 58/1/391 43/1/391
f 56/1/392 7/1/392 64/1/392
f 70/1/393 11/1/393 80/1/393
f 83/1/394 76/1/394 13/1/394
f 83/1/395 220/1/396 221/1/397
f 255/1/398 224/1/399 253/1/400
f 225/1/401 254/1/402 253/1/403
f 225/1/404 83/1/405 77/1/405
f 83/1/406 13/1/406 77/1/406
f 84/1/407 232/1/408 231/1/409
f 84/1/410 230/1/411 229/1/412
f 187/1/413 85/1/413 84/1/413
f 184/1/414 85/1/415 186/1/416
f 185/1/417 85/1/418 183/1/419
f 84/1/420 76/1/420 83/1/420
f 76/1/421 84/1/421 75/1/421
f 84/1/422 85/1/422 75/1/422
f 75/1/423 85/1/423 72/1/423
f 80/1/424 72/1/424 85/1/424
f 80/1/425 11/1/425 72/1/425
f 175/1/426 80/1/427 179/1/428
f 80/1/429 178/1/430 70/1/429
f 210/1/431 178/1/432 177/1/433
f 177/1/434 208/1/435 209/1/436
f 86/1/437 122/1/438 121/1/437
f 87/1/439 64/1/439 65/1/439
f 218/1/440 121/1/441 217/1/442
f 227/1/443 86/1/444 219/1/445
f 86/1/446 87/1/446 65/1/446
f 87/1/447 86/1/447 90/1/447
f 256/1/448 86/1/449 226/1/450
f 256/1/451 77/1/452 90/1/452
f 64/1/453 87/1/453 56/1/453
f 56/1/454 87/1/454 54/1/454
f 87/1/455 90/1/455 54/1/455
f 54/1/456 90/1/456 52/1/456
f 77/1/457 52/1/457 90/1/457
f 13/1/458 52/1/458 77/1/458
f 62/1/459 13/1/459 76/1/459
f 60/1/460 62/1/460 91/1/460
f 58/1/461 60/1/461 92/1/461
f 62/1/462 76/1/462 91/1/462
f 91/1/463 76/1/463 75/1/463
f 60/1/464 91/1/464 92/1/464
f 92/1/465 91/1/465 93/1/465
f 91/1/466 75/1/466 93/1/466
f 93/1/467 75/1/467 72/1/467
f 58/1/468 92/1/468 43/1/468
f 43/1/469 92/1/469 40/1/469
f 92/1/470 93/1/470 40/1/470
f 40/1/471 93/1/471 38/1/471
f 93/1/472 72/1/472 38/1/472
f 38/1/473 72/1/473 11/1/473
f 11/1/474 70/1/474 50/1/474
f 47/1/475 50/1/475 94/1/475
f 46/1/476 47/1/476 97/1/476
f 70/1/477 94/1/477 50/1/477
f 70/1/478 211/1/479 94/1/478
f 47/1/480 94/1/480 97/1/480
f 97/1/481 94/1/481 99/1/481
f 181/1/482 94/1/483 211/1/482
f 180/1/484 172/1/485 99/1/486
f 46/1/487 97/1/487 36/1/487
f 97/1/488 33/1/488 36/1/488
f 99/1/489 33/1/489 97/1/489
f 99/1/490 126/1/491 33/1/492
f 125/1/493 172/1/494 171/1/495
f 65/1/496 129/1/496 122/1/496
f 65/1/491 131/1/491 129/1/491
f 65/1/497 134/1/498 131/1/491
f 31/1/499 136/1/499 135/1/499
f 64/1/500 135/1/501 134/1/500
f 64/1/502 7/1/502 31/1/502
f 52/1/503 13/1/503 62/1/503
f 54/1/504 52/1/504 102/1/504
f 56/1/505 54/1/505 105/1/505
f 52/1/506 62/1/506 102/1/506
f 102/1/507 62/1/507 60/1/507
f 54/1/508 102/1/508 105/1/508
f 105/1/509 102/1/509 106/1/509
f 102/1/510 60/1/510 106/1/510
f 106/1/511 60/1/511 58/1/511
f 105/1/512 29/1/512 56/1/512
f 29/1/513 105/1/513 28/1/513
f 105/1/514 106/1/514 28/1/514
f 28/1/515 106/1/515 27/1/515
f 106/1/516 58/1/516 27/1/516
f 27/1/517 58/1/517 4/1/517
f 38/1/518 11/1/518 50/1/518
f 40/1/519 38/1/519 109/1/519
f 43/1/520 40/1/520 112/1/520
f 38/1/521 50/1/521 109/1/521
f 109/1/522 50/1/522 47/1/522
f 40/1/523 109/1/523 112/1/523
f 112/1/524 109/1/524 114/1/524
f 109/1/525 47/1/525 114/1/525
f 114/1/526 47/1/526 46/1/526
f 43/1/527 112/1/527 24/1/527
f 24/1/528 112/1/528 23/1/528
f 112/1/529 114/1/529 23/1/529
f 23/1/530 114/1/530 21/1/530
f 114/1/531 46/1/531 21/1/531
f 46/1/532 2/1/532 21/1/532
f 33/1/496 126/1/496 137/1/496
f 33/1/533 139/1/43 36/1/43
f 33/1/491 137/1/491 138/1/491
f 36/1/534 140/1/535 18/1/536
f 18/1/537 140/1/537 141/1/537
f 136/1/538 252/1/539 251/1/540
f 31/1/541 242/1/542 252/1/543
f 243/1/544 7/1/545 241/1/546
f 241/1/547 29/1/548 240/1/549
f 239/1/550 29/1/551 244/1/552
f 244/1/553 28/1/554 245/1/553
f 234/1/555 118/1/556 238/1/557
f 245/1/558 118/1/558 235/1/558
f 27/1/559 118/1/559 28/1/559
f 238/1/560 118/1/560 237/1/560
f 20/1/561 237/1/562 118/1/563
f 27/1/564 20/1/564 118/1/564
f 20/1/565 27/1/565 4/1/565
f 20/1/566 4/1/566 24/1/566
f 193/1/567 20/1/568 191/1/569
f 24/1/570 119/1/570 20/1/570
f 23/1/571 119/1/571 24/1/571
f 191/1/572 119/1/572 192/1/572
f 119/1/573 188/1/574 192/1/575
f 190/1/576 119/1/576 23/1/576
f 23/1/577 195/1/578 196/1/578
f 21/1/579 194/1/580 195/1/581
f 21/1/582 197/1/583 198/1/584
f 2/1/585 199/1/586 197/1/587
f 18/1/588 200/1/589 199/1/590
f 141/1/591 207/1/592 18/1/593
f 138/1/594 125/1/594 167/1/594
f 121/1/594 131/1/594 216/1/594
f 82/1/595 257/1/595 258/1/595
f 264/1/596 262/1/597 260/1/598
f 261/1/599 263/1/600 73/1/601
f 264/1/602 260/1/603 261/1/604
f 264/1/605 73/1/606 82/1/607
f 257/1/608 82/1/609 88/1/610
f 88/1/611 267/1/612 266/1/613
f 89/1/614 269/1/615 268/1/616
f 268/1/617 267/1/618 88/1/619
f 89/1/620 271/1/621 270/1/622
f 89/1/623 79/1/624 272/1/625
f 79/1/626 274/1/626 273/1/626
f 79/1/627 66/1/628 275/1/629
f 277/1/630 276/1/631 278/1/632
f 278/1/633 275/1/634 66/1/635
f 66/1/636 279/1/637 277/1/638
f 63/1/639 95/1/639 282/1/640
f 120/1/641 281/1/642 285/1/643
f 285/1/644 286/1/645 284/1/646
f 287/1/647 288/1/648 286/1/649
f 290/1/650 282/1/651 95/1/652
f 293/1/653 291/1/654 294/1/655
f 294/1/656 289/1/657 95/1/658
f 96/1/659 295/1/660 293/1/661
f 294/1/662 95/1/663 96/1/664
f 287/1/665 295/1/666 96/1/667
f 96/1/668 296/1/669 288/1/670
f 96/1/671 73/1/672 263/1/673
f 297/1/674 299/1/675 300/1/676
f 96/1/677 263/1/678 297/1/679
f 298/1/680 296/1/681 96/1/682
f 297/1/683 300/1/684 298/1/685
f 305/1/686 304/1/687 301/1/688
f 301/1/689 279/1/690 66/1/691
f 66/1/692 103/1/693 303/1/694
f 302/1/695 305/1/696 301/1/697
f 66/1/698 303/1/699 302/1/700
f 307/1/701 310/1/702 309/1/703
f 309/1/704 308/1/705 103/1/706
f 103/1/707 104/1/708 306/1/709
f 307/1/710 309/1/711 103/1/712
f 312/1/713 303/1/714 103/1/715
f 103/1/716 308/1/717 311/1/718
f 314/1/719 312/1/720 311/1/721
f 316/1/722 104/1/723 37/1/723
f 104/1/724 316/1/725 317/1/726
f 313/1/727 320/1/728 123/1/729
f 123/1/730 321/1/731 314/1/732
f 124/1/733 63/1/733 283/1/734
f 63/1/735 124/1/736 127/1/737
f 315/1/738 37/1/739 130/1/739
f 132/1/740 130/1/741 37/1/742
f 128/1/743 324/1/744 325/1/745
f 5/1/746 35/1/747 326/1/748
f 328/1/749 34/1/750 5/1/750
f 5/1/751 327/1/752 329/1/753
f 34/1/754 328/1/755 330/1/756
f 32/1/757 34/1/758 331/1/759
f 116/1/760 32/1/761 332/1/762
f 332/1/763 335/1/764 333/1/765
f 19/1/766 116/1/767 336/1/768
f 339/1/769 117/1/770 19/1/771
f 337/1/491 338/1/772 339/1/773
f 342/1/774 343/1/775 25/1/776
f 25/1/777 117/1/778 341/1/779
f 25/1/780 343/1/781 344/1/782
f 346/1/783 345/1/784 22/1/785
f 348/1/786 347/1/787 1/1/788
f 1/1/789 22/1/789 345/1/790
f 349/1/791 17/1/792 1/1/793
f 133/1/794 17/1/795 350/1/796
f 133/1/216 351/1/216 357/1/216
f 352/1/216 353/1/216 354/1/216
f 133/1/216 357/1/216 352/1/216
f 132/1/216 133/1/216 352/1/216
f 352/1/216 354/1/216 355/1/216
f 355/1/216 323/1/216 130/1/216
f 130/1/216 132/1/216 352/1/216
f 363/1/216 324/1/216 128/1/216
f 358/1/216 363/1/216 128/1/216
f 359/1/216 360/1/216 358/1/216
f 322/1/216 361/1/216 359/1/216
f 124/1/216 322/1/216 359/1/216
f 359/1/216 358/1/216 128/1/216
f 127/1/216 124/1/216 359/1/216
f 120/1/216 284/1/216 362/1/216
f 123/1/216 319/1/216 356/1/216
f 313/142/797 311/143/797 308/144/797
f 308/144/798 309/145/798 318/2/798
f 318/2/799 310/146/799 307/3/799
f 307/3/800 8/10/800 6/14/800
f 6/14/801 356/147/801 319/4/801
f 319/4/802 320/148/802 313/142/802
f 313/142/803 308/144/803 318/2/803
f 307/3/804 6/14/804 319/4/804
f 319/4/805 313/142/805 318/2/805
f 306/149/806 317/150/807 316/5/808
f 316/5/809 315/151/810 323/6/811
f 323/6/812 355/152/813 10/36/814
f 10/36/815 8/10/816 307/3/817
f 307/3/818 306/149/819 316/5/820
f 323/6/821 10/36/822 307/3/823
f 321/7/824 356/147/825 6/14/826
f 6/14/827 74/32/828 305/8/829
f 305/8/830 302/153/831 303/9/832
f 303/9/833 312/154/834 314/155/835
f 321/7/836 6/14/837 305/8/838
f 303/9/839 314/155/840 321/7/841
f 8/10/842 10/36/843 16/11/844
f 8/10/845 15/12/846 14/13/847
f 166/16/848 168/156/849 14/13/850
f 14/13/851 15/12/852 167/15/853
f 169/18/854 167/15/855 15/12/856
f 15/12/857 16/11/858 170/17/859
f 172/19/860 173/157/861 14/13/862
f 14/13/863 168/156/864 171/20/865
f 275/23/866 278/158/867 41/21/868
f 41/21/869 273/159/870 274/22/871
f 271/26/872 272/160/873 273/159/874
f 273/159/875 41/21/876 81/24/877
f 81/24/878 268/161/879 269/25/880
f 269/25/881 270/162/882 271/26/883
f 271/26/884 273/159/885 81/24/886
f 149/28/887 68/29/888 41/21/889
f 41/21/890 278/163/891 276/27/892
f 175/164/893 179/165/894 68/29/895
f 68/29/896 149/28/897 176/166/897
f 68/29/898 176/166/899 177/167/900
f 174/31/901 175/164/902 68/29/903
f 68/29/904 177/167/905 178/30/906
f 181/168/907 182/169/907 74/32/907
f 74/32/908 6/14/908 14/13/908
f 14/13/909 173/157/909 180/33/909
f 180/33/910 181/168/910 74/32/910
f 186/35/911 187/170/912 78/171/913
f 68/29/914 179/165/915 185/172/915
f 183/34/916 184/173/917 186/35/918
f 68/29/919 185/172/920 183/34/921
f 186/35/922 78/171/922 68/29/923
f 68/29/924 78/171/925 81/24/926
f 353/38/927 145/51/928 10/36/929
f 10/36/930 355/152/931 354/37/932
f 343/41/933 342/174/934 144/39/935
f 144/39/936 346/175/937 344/40/938
f 340/176/939 339/177/940 338/42/941
f 338/42/942 142/47/943 144/39/944
f 144/39/945 342/174/946 341/43/947
f 341/43/948 340/176/949 338/42/950
f 143/44/951 188/178/952 189/45/953
f 192/179/954 188/178/955 143/44/956
f 143/44/957 144/39/958 142/47/959
f 142/47/960 193/180/961 191/48/962
f 191/48/963 192/179/964 143/44/965
f 351/50/966 350/181/967 349/182/968
f 349/182/969 347/183/970 348/49/971
f 348/49/972 345/184/973 346/175/974
f 346/175/975 144/39/976 143/44/977
f 143/44/978 146/56/979 357/53/980
f 351/50/981 349/182/982 348/49/983
f 143/44/984 357/53/985 351/50/984
f 348/49/986 346/175/987 143/44/988
f 357/53/989 146/56/990 145/51/991
f 145/51/992 353/38/993 352/52/994
f 10/36/995 145/51/996 147/54/997
f 145/51/998 146/56/999 148/55/1000
f 199/185/1001 200/186/1002 148/55/1003
f 146/56/1004 143/44/1005 190/46/1006
f 146/56/1007 190/46/1008 196/187/1009
f 199/185/1010 148/55/1011 146/56/1012
f 197/188/1013 199/185/1014 146/56/1015
f 146/56/1016 196/187/1017 195/189/1018
f 146/56/1019 195/189/1020 194/57/1021
f 198/58/1022 197/188/1023 146/56/1024
f 201/59/1025 170/17/1026 16/11/1027
f 16/11/1028 147/54/1029 202/60/1030
f 204/62/1031 202/60/1032 147/54/1033
f 147/54/1034 148/55/1035 203/61/1035
f 207/63/1036 205/190/1037 206/64/1038
f 206/64/1039 203/61/1040 148/55/1041
f 148/55/1042 200/186/1043 207/63/1044
f 74/32/1045 149/28/1046 276/27/1047
f 276/27/1048 277/66/1049 301/65/1050
f 304/68/1051 305/191/1052 74/32/1053
f 276/27/1054 301/65/1055 304/68/1056
f 208/192/1057 176/166/1058 149/28/1059
f 149/28/1060 74/32/1061 182/169/1062
f 149/28/1063 182/169/1064 211/193/1065
f 209/70/1066 208/192/1067 149/28/1068
f 149/28/1069 211/193/1070 210/69/1071
f 295/194/1072 287/195/1072 285/196/1072
f 285/196/1073 281/197/1073 280/71/1073
f 280/71/1074 362/198/1074 151/83/1074
f 151/83/1075 150/80/1075 294/72/1075
f 294/72/1076 291/199/1076 292/73/1076
f 292/73/1077 293/200/1077 295/194/1077
f 295/194/1078 285/196/1078 280/71/1078
f 280/71/1079 151/83/1079 294/72/1079
f 292/73/1080 295/194/1080 280/71/1080
f 283/201/1081 282/202/1082 290/74/1083
f 290/74/1084 289/203/1085 294/72/1086
f 294/72/1087 150/80/1088 152/75/1089
f 152/75/1090 361/204/1091 322/76/1092
f 322/76/1093 283/201/1094 290/74/1095
f 290/74/1096 294/72/1096 152/75/1097
f 296/205/1098 298/206/1099 300/77/1099
f 300/77/1100 153/103/1101 151/83/1102
f 151/83/1103 362/198/1104 284/78/1105
f 284/78/1106 286/207/1107 288/79/1108
f 288/79/1109 296/205/1110 300/77/1110
f 300/77/1111 151/83/1112 284/78/1111
f 150/80/1113 155/85/1114 154/81/1114
f 156/82/1115 155/85/1116 150/80/1117
f 212/84/1118 214/87/1119 155/85/1120
f 155/85/1121 156/82/1122 213/86/1123
f 215/88/1124 216/130/1125 154/81/1125
f 154/81/1126 155/85/1127 214/87/1128
f 218/89/1129 217/208/1130 213/86/1131
f 213/86/1132 156/82/1133 219/90/1134
f 264/93/1135 259/209/1136 258/91/1137
f 258/91/1138 157/94/1138 262/92/1139
f 266/96/1140 267/210/1141 268/161/1142
f 268/161/1143 81/24/1144 157/94/1145
f 157/94/1146 258/91/1147 257/95/1148
f 257/95/1149 265/211/1150 266/96/1151
f 266/96/1152 268/161/1153 157/94/1154
f 262/99/1155 157/94/1156 159/97/1157
f 159/97/1158 158/100/1159 260/98/1160
f 224/212/1161 223/213/1162 158/100/1163
f 158/100/1164 159/97/1165 221/214/1166
f 158/100/1167 221/214/1168 220/215/1169
f 225/102/1170 224/212/1171 158/100/1172
f 158/100/1173 220/215/1174 222/101/1175
f 227/216/1176 219/90/1176 156/82/1176
f 156/82/1177 151/83/1177 153/103/1177
f 153/103/1178 228/217/1178 226/104/1178
f 226/104/1179 227/216/1179 156/82/1179
f 232/218/1180 221/214/1180 159/97/1181
f 159/97/1182 78/171/1183 187/170/1184
f 229/105/1185 230/219/1186 231/106/1187
f 159/97/1188 187/170/1189 229/105/1190
f 231/106/1191 232/218/1192 159/97/1193
f 81/24/1194 78/171/1194 159/97/1194
f 359/108/1195 361/204/1196 152/75/1197
f 152/75/1198 160/126/1199 360/107/1200
f 332/111/1201 331/220/1202 330/109/1203
f 330/109/1204 161/121/1205 335/110/1206
f 336/114/1207 334/221/1208 333/222/1209
f 333/222/1210 335/110/1211 161/121/1212
f 336/114/1213 333/222/1214 161/121/1215
f 336/114/1216 161/121/1217 142/112/1218
f 338/113/491 337/113/1219 336/114/1220
f 162/115/1221 233/223/1222 235/116/1223
f 142/112/1224 161/121/1225 162/115/1226
f 162/115/1227 234/117/1228 238/224/1229
f 162/115/1230 238/224/1231 237/118/1232
f 142/112/1233 162/115/1234 237/118/1235
f 237/118/1236 236/119/491 193/119/1237
f 324/120/1238 363/225/1239 163/123/1240
f 163/123/1241 162/115/1242 161/121/1243
f 161/121/1244 330/109/1245 328/226/1246
f 328/226/1247 329/227/1248 327/122/1249
f 327/122/1250 326/228/1251 325/229/1252
f 324/120/1253 163/123/1254 161/121/1255
f 327/122/1256 325/229/1257 324/120/1258
f 161/121/1259 328/226/1260 327/122/1261
f 360/107/1262 160/126/1263 163/123/1264
f 163/123/1265 363/225/1266 358/124/1267
f 164/125/1268 160/126/1269 152/75/1270
f 160/126/1271 164/125/1271 165/127/1272
f 245/230/1273 233/223/1274 162/115/1275
f 163/123/1276 165/127/1277 242/231/1278
f 163/123/1279 242/231/1280 243/232/1281
f 245/230/1282 162/115/1283 163/123/1284
f 244/233/1285 245/230/1286 163/123/1287
f 163/123/1288 243/232/1289 241/234/1290
f 163/123/1291 241/234/1292 240/128/1293
f 239/129/1294 244/233/1295 163/123/1296
f 246/131/1297 247/133/1298 164/125/1299
f 164/125/1300 154/81/1301 216/130/1302
f 248/132/1303 249/235/1304 165/127/1305
f 165/127/1306 164/125/1307 247/133/1308
f 250/134/1309 251/236/1310 252/135/1311
f 252/135/1312 242/231/1313 165/127/1314
f 165/127/1315 249/235/1316 250/134/1317
f 297/136/1318 261/138/1319 260/98/1320
f 260/98/1321 158/100/1322 153/103/1323
f 153/103/1324 300/77/1325 299/139/1326
f 299/139/1327 297/136/1328 260/98/1329
f 256/237/1330 228/217/1331 153/103/1332
f 153/103/1333 158/100/1334 223/213/1335
f 153/103/1336 223/213/1337 255/238/1338
f 254/141/1339 256/237/1340 153/103/1341
f 153/103/1342 255/238/1343 253/140/1344
f 221/1/1345 232/1/1346 83/1/1347
f 83/1/1348 222/1/1349 220/1/1350
f 255/1/1351 223/1/1352 224/1/1353
f 253/1/1354 224/1/1355 225/1/1356
f 225/1/1357 77/1/1358 254/1/1359
f 225/1/1360 222/1/1361 83/1/1362
f 84/1/1363 83/1/1364 232/1/1365
f 84/1/1366 231/1/1367 230/1/1368
f 84/1/1369 229/1/1369 187/1/1370
f 187/1/1371 186/1/1372 85/1/1372
f 184/1/1373 183/1/1374 85/1/1375
f 185/1/1376 80/1/1377 85/1/1378
f 175/1/1379 174/1/1380 80/1/1381
f 80/1/1382 185/1/1383 179/1/1384
f 80/1/1385 174/1/1386 178/1/1387
f 177/1/1388 209/1/1389 210/1/1390
f 210/1/1391 70/1/1392 178/1/1393
f 177/1/1394 176/1/1395 208/1/1396
f 86/1/1397 65/1/491 122/1/1398
f 218/1/1399 86/1/1400 121/1/1401
f 227/1/1402 226/1/1403 86/1/1404
f 86/1/1405 218/1/1406 219/1/1407
f 226/1/1408 228/1/1409 256/1/1410
f 256/1/1411 90/1/1412 86/1/1412
f 256/1/1413 254/1/1414 77/1/1415
f 70/1/1416 210/1/1417 211/1/1418
f 211/1/1419 182/1/1420 181/1/1421
f 181/1/1422 99/1/1423 94/1/1423
f 180/1/1424 173/1/1425 172/1/1426
f 99/1/1427 181/1/1428 180/1/1429
f 99/1/1430 125/1/1430 126/1/1431
f 125/1/1432 99/1/1433 172/1/1434
f 65/1/1435 64/1/114 134/1/114
f 64/1/1436 31/1/1437 135/1/1438
f 33/1/491 138/1/1439 139/1/1440
f 36/1/1441 139/1/1441 140/1/1442
f 136/1/1443 31/1/1444 252/1/1445
f 31/1/1446 243/1/1447 242/1/1448
f 243/1/1449 31/1/1450 7/1/1451
f 241/1/1452 7/1/1453 29/1/1454
f 239/1/1455 240/1/1456 29/1/1457
f 244/1/1458 29/1/1459 28/1/1460
f 234/1/1461 235/1/1462 118/1/1463
f 235/1/1464 233/1/1464 245/1/1464
f 245/1/1465 28/1/1465 118/1/1465
f 20/1/1466 236/1/1466 237/1/1467
f 20/1/1468 119/1/1469 191/1/1470
f 193/1/491 236/1/1471 20/1/1472
f 119/1/1473 189/1/1474 188/1/1475
f 23/1/1476 196/1/1476 190/1/1476
f 190/1/1477 189/1/1477 119/1/1477
f 23/1/1478 21/1/1479 195/1/1480
f 21/1/1481 198/1/1482 194/1/1483
f 21/1/1484 2/1/1485 197/1/1486
f 2/1/1487 18/1/1488 199/1/1489
f 18/1/1490 207/1/1491 200/1/1492
f 141/1/1493 205/1/1494 207/1/1495
f 203/1/594 206/1/594 205/1/594
f 203/1/594 205/1/594 141/1/594
f 202/1/1496 204/1/1496 203/1/1496
f 170/1/1497 201/1/1497 202/1/1497
f 167/1/1497 169/1/1497 170/1/1497
f 168/1/594 166/1/594 167/1/594
f 125/1/594 171/1/594 168/1/594
f 125/1/594 168/1/594 167/1/594
f 167/1/594 170/1/594 202/1/594
f 202/1/594 203/1/594 141/1/594
f 202/1/594 141/1/594 140/1/594
f 202/1/594 140/1/594 139/1/594
f 167/1/594 202/1/594 139/1/594
f 138/1/491 137/1/491 126/1/491
f 138/1/491 126/1/491 125/1/491
f 167/1/1497 139/1/1497 138/1/1497
f 212/1/594 213/1/594 217/1/594
f 212/1/594 217/1/594 121/1/594
f 216/1/1498 215/1/1498 214/1/1498
f 214/1/594 212/1/594 121/1/594
f 216/1/594 214/1/594 121/1/594
f 247/1/594 246/1/594 216/1/594
f 249/1/1499 248/1/1499 247/1/1499
f 251/1/594 250/1/594 249/1/594
f 136/1/594 251/1/594 249/1/594
f 249/1/594 247/1/594 216/1/594
f 135/1/594 136/1/594 249/1/594
f 134/1/594 135/1/594 249/1/594
f 134/1/594 249/1/594 216/1/594
f 122/1/491 129/1/491 131/1/491
f 121/1/491 122/1/491 131/1/491
f 131/1/594 134/1/594 216/1/594
