# Blender 4.1.1
# www.blender.org
mtllib link_body_34.mtl
o link_body_34
v -1.838653 -1.174426 -0.660750
v -0.044075 -1.304462 -1.906033
v -3.122146 -1.168753 -1.090372
v -3.226692 -0.203228 3.930032
v -0.386330 -1.062961 -0.104671
v -0.239998 -0.741153 1.409503
v -2.148727 -1.280746 -2.711815
v -0.281029 -1.197841 -1.115480
v -0.393547 0.000001 -1.144848
v -0.066719 -0.946834 -2.130311
v -0.477661 -0.000000 -0.120000
v -0.144432 0.000001 -2.130311
v 0.260101 0.000000 -3.038519
v -0.066719 0.946835 -2.130311
v -0.275795 1.200452 -1.118147
v 0.377357 1.108924 -3.022332
v 0.888351 0.883664 -3.823651
v -0.045868 1.304075 -1.907933
v -2.149727 1.280673 -2.712332
v -3.172127 0.831699 -3.914602
v -2.471367 0.629498 -4.617796
v -3.122146 1.168752 -1.090372
v -4.177742 1.024925 -2.077690
v -3.768333 0.976349 -3.014931
v -1.838654 1.174426 -0.660750
v -3.238022 0.209717 3.907043
v -0.386642 1.063231 -0.107462
v -0.240074 0.740234 1.409503
v -0.144432 0.000001 1.890311
v 0.316292 0.419783 2.876824
v -0.393547 0.000001 0.904848
v 0.296845 -0.447655 2.798519
v 0.872734 -0.275576 3.661465
v 0.897896 0.272509 3.677924
v 1.435020 0.000004 4.215706
v -2.803238 0.046607 4.348263
v -2.803238 -0.046608 4.348262
v -3.828033 -0.000000 3.069473
v -3.798248 0.306639 3.076540
v -4.465721 0.546304 1.100605
v -4.231094 0.332076 2.116634
v -4.224456 -0.353946 2.114300
v -4.515510 0.000001 1.077860
v -4.603981 0.000001 -0.000000
v -4.468963 -0.549799 1.084791
v -4.410255 -0.988762 -1.222329
v -3.798256 -0.306602 3.076545
v -4.545150 -0.716686 0.000830
v -4.515510 0.000001 -1.077860
v -4.253509 0.000001 -2.114296
v -4.393112 0.996885 -1.273761
v -4.544372 0.724737 -0.001556
v -3.828033 -0.000001 -3.069474
v -4.177742 -1.024926 -2.077688
v -3.768333 -0.976349 -3.014931
v -3.172233 -0.831749 -3.914459
v -3.255447 0.000001 -3.906687
v -2.557754 -0.000000 -4.593759
v -2.471367 -0.629499 -4.617796
v 0.898910 -0.880305 -3.839360
v -1.684196 -0.391618 -5.134932
v 1.863296 -0.070594 -5.346606
v -0.876740 0.137709 -5.421580
v -1.653870 0.385654 -5.143247
v 2.247696 -0.304715 -4.977568
v 1.527824 -0.617830 -4.489455
v -0.867729 -0.136284 -5.422708
v -0.395645 -0.000000 -5.477948
v 1.863373 0.069910 -5.346622
v 2.248871 0.309650 -4.973273
v 2.604446 0.145236 -5.107672
v 2.512588 0.000836 -5.226617
v 2.640686 -0.102700 -5.124093
v 1.522255 0.623068 -4.485056
v 1.467895 0.000000 -4.487872
v 0.804520 0.000000 -3.834570
v 0.389244 -1.105777 -3.039606
vn -0.0238 -0.9901 0.1382
vn 0.0192 -0.9994 -0.0289
vn 0.0257 -0.9900 0.1390
vn -0.0483 -0.9888 -0.1413
vn -0.1007 -0.9903 0.0957
vn -0.0260 -0.9700 0.2418
vn -0.0022 -0.9783 0.2070
vn 0.0067 -0.9837 0.1798
vn 0.9799 0.1054 0.1695
vn 0.9861 -0.0002 0.1660
vn 1.0000 0.0014 0.0018
vn 0.9459 -0.0040 0.3243
vn 0.9271 0.1680 0.3351
vn 0.9233 0.2443 0.2964
vn 0.9956 0.0933 0.0061
vn 0.9790 -0.1090 0.1720
vn 0.8736 -0.0030 0.4866
vn 0.8710 -0.1142 0.4779
vn 0.9279 -0.1597 0.3369
vn 0.9268 -0.2359 0.2921
vn 0.7763 -0.0845 0.6247
vn -0.0482 0.9888 -0.1414
vn 0.0394 0.9749 -0.2190
vn 0.0126 0.9419 -0.3358
vn 0.0186 0.9994 -0.0294
vn -0.0830 0.9546 -0.2860
vn -0.1511 0.9736 -0.1711
vn -0.0051 0.9398 -0.3416
vn -0.0238 0.9901 0.1381
vn -0.1010 0.9903 0.0960
vn -0.1399 0.9894 -0.0385
vn -0.0265 0.9703 0.2403
vn 0.0236 0.9903 0.1369
vn -0.0001 0.9780 0.2087
vn 0.0064 0.9835 0.1808
vn 0.9682 -0.0899 -0.2333
vn 0.9385 0.0024 -0.3452
vn 0.9888 -0.0000 -0.1495
vn 0.8725 -0.0087 -0.4886
vn -0.0010 0.9805 0.1965
vn 0.9953 -0.0970 0.0048
vn 0.9677 0.0910 -0.2352
vn 0.8783 0.0458 -0.4760
vn 0.7752 -0.0024 -0.6317
vn 0.0141 0.9348 0.3549
vn 0.7651 -0.0158 -0.6437
vn 0.7047 -0.0110 -0.7094
vn 0.0061 0.9370 0.3492
vn 0.0235 0.9010 0.4331
vn -0.7715 0.0058 0.6362
vn -0.7027 -0.0000 0.7115
vn -0.7048 0.0071 0.7094
vn -0.7757 0.0197 0.6307
vn 0.0313 -0.0000 0.9995
vn 0.0139 -0.9359 0.3521
vn 0.0073 -0.9362 0.3513
vn 0.0233 -0.9044 0.4261
vn -0.0029 -0.9793 0.2024
vn -0.8751 -0.0004 0.4839
vn -0.8689 0.0731 0.4896
vn -0.1386 0.9721 0.1895
vn -0.1885 0.9652 0.1811
vn -0.6135 0.7321 0.2960
vn -0.9467 0.0109 0.3218
vn -0.9866 0.0002 0.1633
vn -0.9464 -0.0268 0.3219
vn -0.9844 0.0822 0.1553
vn -0.9844 -0.0810 0.1563
vn -1.0000 0.0003 0.0006
vn -0.3496 -0.9220 0.1665
vn -0.1535 -0.9832 0.0986
vn -0.1843 -0.9663 0.1797
vn -0.1289 -0.9736 0.1884
vn -0.5434 -0.7915 0.2796
vn -0.9964 -0.0846 -0.0108
vn -0.9874 0.0028 -0.1584
vn -0.9791 -0.0816 -0.1865
vn -0.9441 0.0004 -0.3296
vn -0.9779 0.0863 -0.1906
vn -0.9961 0.0873 -0.0120
vn -0.1497 0.9843 0.0931
vn -0.2598 0.9502 0.1724
vn -0.9408 0.0813 -0.3291
vn -0.8725 -0.0000 -0.4886
vn -0.8742 -0.0803 -0.4790
vn -0.8742 0.0803 -0.4790
vn -0.9402 -0.0813 -0.3308
vn -0.7700 -0.0000 -0.6381
vn -0.0829 -0.9547 -0.2859
vn -0.1510 -0.9736 -0.1710
vn -0.1416 -0.9892 -0.0364
vn -0.7694 -0.0710 -0.6348
vn -0.7694 0.0710 -0.6348
vn -0.6206 0.0484 -0.7826
vn -0.6276 -0.0552 -0.7766
vn -0.6241 0.0037 -0.7813
vn -0.0057 -0.9399 -0.3413
vn 0.0137 -0.9407 -0.3389
vn -0.4562 0.0007 -0.8899
vn 0.0240 -0.9034 -0.4282
vn 0.1055 -0.4511 -0.8862
vn 0.0998 -0.8000 -0.5917
vn -0.1188 -0.4200 -0.8997
vn -0.1226 0.4158 -0.9011
vn -0.4550 0.0082 -0.8905
vn 0.0294 -0.8886 -0.4577
vn 0.0253 0.0020 -0.9997
vn 0.1033 0.4481 -0.8880
vn 0.0841 0.8071 -0.5844
vn 0.0246 0.9028 -0.4294
vn 0.1679 0.6629 -0.7296
vn 0.2082 0.5395 -0.8158
vn 0.1817 -0.0002 -0.9833
vn 0.6880 0.1476 -0.7105
vn 0.2100 -0.5444 -0.8121
vn 0.1793 -0.6673 -0.7229
vn 0.4702 0.0056 0.8826
vn 0.3514 -0.0085 0.9362
vn 0.4675 -0.0172 0.8838
vn 0.3491 -0.0110 0.9370
vn 0.6383 -0.0622 0.7673
vn 0.6288 0.0005 0.7776
vn 0.0280 0.8895 -0.4561
vn 0.6399 0.0601 0.7661
vn 0.7702 0.0001 0.6378
vn 0.7742 0.0819 0.6276
vn 0.0388 -0.9747 -0.2201
vn 0.8664 0.1218 0.4842
vn -0.8712 -0.0734 0.4855
vt 0.415984 0.844701
vt 0.405240 0.853352
vt 0.406145 0.848766
vt 0.419739 0.855628
vt 0.424772 0.845753
vt 0.421388 0.817984
vt 0.403822 0.834900
vt 0.406004 0.843103
vt 0.223216 0.954025
vt 0.216866 0.955321
vt 0.216093 0.949779
vt 0.217446 0.960566
vt 0.222495 0.959674
vt 0.224222 0.958118
vt 0.221745 0.948692
vt 0.210231 0.956200
vt 0.217808 0.965314
vt 0.211677 0.966168
vt 0.212244 0.961382
vt 0.210104 0.960482
vt 0.213066 0.970078
vt 0.565124 0.855328
vt 0.580858 0.859377
vt 0.583844 0.864258
vt 0.578707 0.852862
vt 0.558734 0.861004
vt 0.555445 0.855510
vt 0.562924 0.865521
vt 0.568782 0.844374
vt 0.560525 0.845543
vt 0.553520 0.849990
vt 0.565333 0.818097
vt 0.578067 0.848326
vt 0.581037 0.834529
vt 0.578392 0.842690
vt 0.210577 0.941997
vt 0.214090 0.938662
vt 0.215156 0.944154
vt 0.210544 0.933439
vt 0.586176 0.827019
vt 0.210238 0.950625
vt 0.218597 0.940660
vt 0.215324 0.933092
vt 0.213110 0.928262
vt 0.590651 0.823174
vt 0.210104 0.928654
vt 0.812560 0.975483
vt 0.813919 0.971806
vt 0.815598 0.975483
vt 0.568659 0.816090
vt 0.594887 0.820740
vt 0.930524 0.928262
vt 0.929768 0.931092
vt 0.929252 0.931109
vt 0.928236 0.928262
vt 0.930425 0.959251
vt 0.394701 0.823608
vt 0.418285 0.816090
vt 0.390596 0.821085
vt 0.399178 0.827783
vt 0.886199 0.911095
vt 0.881592 0.910200
vt 0.881854 0.908141
vt 0.886274 0.909457
vt 0.561063 0.822126
vt 0.897026 0.910813
vt 0.891428 0.910860
vt 0.555006 0.832327
vt 0.896949 0.913727
vt 0.891211 0.914328
vt 0.896741 0.916396
vt 0.902867 0.914416
vt 0.433273 0.838251
vt 0.433373 0.845136
vt 0.431886 0.832364
vt 0.425842 0.822097
vt 0.429447 0.826939
vt 0.902641 0.917903
vt 0.908847 0.914645
vt 0.909348 0.919456
vt 0.914660 0.914406
vt 0.910308 0.909347
vt 0.903141 0.910580
vt 0.552840 0.845384
vt 0.553362 0.838286
vt 0.914831 0.908988
vt 0.920081 0.913709
vt 0.919472 0.918490
vt 0.920131 0.908571
vt 0.914138 0.919400
vt 0.924904 0.912579
vt 0.427567 0.861075
vt 0.430685 0.855585
vt 0.432566 0.850056
vt 0.924695 0.916592
vt 0.925258 0.908141
vt 0.970239 0.071826
vt 0.969195 0.076346
vt 0.964713 0.074805
vt 0.965461 0.067875
vt 0.970183 0.067189
vt 0.965657 0.071399
vt 0.423605 0.865585
vt 0.400779 0.864786
vt 0.960139 0.068676
vt 0.418927 0.869157
vt 0.395892 0.873828
vt 0.393010 0.872248
vt 0.413865 0.871500
vt 0.954502 0.071045
vt 0.954605 0.069530
vt 0.959478 0.072934
vt 0.397256 0.868919
vt 0.951408 0.069950
vt 0.936521 0.067941
vt 0.936437 0.068714
vt 0.592479 0.871857
vt 0.590261 0.873563
vt 0.568048 0.869175
vt 0.594887 0.872934
vt 0.931487 0.068578
vt 0.932184 0.067860
vt 0.573114 0.871436
vt 0.931395 0.067189
vt 0.390596 0.873403
vt 0.294241 0.981360
vt 0.294052 0.984200
vt 0.291036 0.982500
vt 0.292677 0.984430
vt 0.287808 0.978508
vt 0.290940 0.977018
vt 0.587760 0.868488
vt 0.294299 0.976254
vt 0.289494 0.972838
vt 0.294299 0.971806
vt 0.217941 0.969382
vt 0.285066 0.974993
vt 0.222618 0.968567
vt 0.403399 0.859946
vt 0.223669 0.964259
vt 0.886066 0.912572
s 1
usemtl pleuraldeles_skin
f 1/1/1 2/2/2 8/3/3
f 7/4/4 2/2/2 1/1/1
f 3/5/5 1/1/1 4/6/6
f 7/4/4 1/1/1 3/5/5
f 4/6/6 1/1/1 6/7/7
f 8/3/3 5/8/8 1/1/1
f 1/1/1 5/8/8 6/7/7
f 8/9/9 9/10/10 11/11/11
f 8/9/9 12/12/12 9/10/10
f 8/9/9 10/13/13 12/12/12
f 10/13/13 8/9/9 2/14/14
f 8/9/9 11/11/11 5/15/15
f 12/12/12 15/16/16 9/10/10
f 10/13/13 13/17/17 12/12/12
f 12/12/12 13/17/17 16/18/18
f 12/12/12 14/19/19 15/16/16
f 12/12/12 16/18/18 14/19/19
f 16/18/18 18/20/20 14/19/19
f 13/17/17 17/21/21 16/18/18
f 19/22/22 16/23/23 17/24/24
f 18/25/25 16/23/23 19/22/22
f 20/26/26 24/27/27 19/22/22
f 20/26/26 19/22/22 21/28/28
f 17/24/24 21/28/28 19/22/22
f 25/29/29 19/22/22 22/30/30
f 22/30/30 19/22/22 23/31/31
f 25/29/29 18/25/25 19/22/22
f 19/22/22 24/27/27 23/31/31
f 25/29/29 22/30/30 26/32/32
f 18/25/25 25/29/29 15/33/33
f 25/29/29 26/32/32 28/34/34
f 25/29/29 27/35/35 15/33/33
f 27/35/35 25/29/29 28/34/34
f 28/36/36 29/37/37 31/38/38
f 30/39/39 29/37/37 28/36/36
f 26/32/32 30/40/40 28/34/34
f 27/41/41 28/36/36 31/38/38
f 31/38/38 29/37/37 6/42/42
f 31/38/38 11/11/11 27/41/41
f 31/38/38 5/15/15 11/11/11
f 6/42/42 5/15/15 31/38/38
f 29/37/37 30/39/39 32/43/43
f 30/39/39 33/44/44 32/43/43
f 26/32/32 34/45/45 30/40/40
f 34/46/46 33/44/44 30/39/39
f 34/47/46 35/48/47 33/49/44
f 36/50/48 35/51/49 34/45/45
f 36/50/48 34/45/45 26/32/32
f 4/52/50 37/53/51 36/54/52
f 26/55/53 4/52/50 36/54/52
f 36/54/54 37/53/54 35/56/54
f 33/57/55 37/58/56 4/6/6
f 37/58/56 33/57/55 35/59/57
f 32/60/58 33/57/55 4/6/6
f 6/7/7 32/60/58 4/6/6
f 29/37/37 32/43/43 6/42/42
f 9/10/10 27/41/41 11/11/11
f 9/10/10 15/16/16 27/41/41
f 38/61/59 4/62/50 26/63/53
f 39/64/60 38/61/59 26/63/53
f 22/30/30 39/65/61 26/32/32
f 40/66/62 41/67/63 39/64/61
f 40/68/62 39/65/61 22/30/30
f 38/61/59 39/64/60 41/67/64
f 43/69/65 42/70/66 41/67/64
f 41/67/64 42/70/66 38/61/59
f 43/69/65 41/67/64 40/66/67
f 45/71/68 43/69/65 44/72/69
f 44/72/69 43/69/65 40/66/67
f 45/71/68 42/70/66 43/69/65
f 48/73/70 46/74/71 45/75/72
f 45/75/72 46/74/71 3/5/5
f 47/76/73 45/75/72 3/5/5
f 42/77/74 45/75/72 47/76/73
f 45/71/68 44/72/69 48/78/75
f 48/78/75 49/79/76 46/80/77
f 48/78/75 44/72/69 49/79/76
f 50/81/78 49/79/76 51/82/79
f 50/81/78 46/80/77 49/79/76
f 52/83/80 49/79/76 44/72/69
f 52/83/80 51/82/79 49/79/76
f 40/66/67 52/83/80 44/72/69
f 51/84/81 52/85/82 40/68/62
f 51/84/81 40/68/62 22/30/30
f 23/31/31 51/84/81 22/30/30
f 50/81/78 51/82/79 23/86/83
f 50/81/78 53/87/84 55/88/85
f 24/89/86 53/87/84 50/81/78
f 50/81/78 54/90/87 46/80/77
f 50/81/78 55/88/85 54/90/87
f 24/89/86 50/81/78 23/86/83
f 57/91/88 55/88/85 53/87/84
f 56/92/89 7/4/4 55/93/90
f 55/93/90 7/4/4 54/94/91
f 57/91/88 56/95/92 55/88/85
f 24/89/86 20/96/93 57/91/88
f 57/97/88 20/98/93 21/99/94
f 24/89/86 57/91/88 53/87/84
f 59/100/95 56/101/92 57/97/88
f 59/100/95 57/97/88 58/102/96
f 57/97/88 21/99/94 58/102/96
f 56/92/89 59/103/97 7/4/4
f 7/4/4 59/103/97 60/104/98
f 59/100/95 58/102/96 61/105/99
f 60/104/98 59/103/97 61/106/100
f 21/99/94 61/105/99 58/102/96
f 61/106/100 62/107/101 65/108/102
f 61/106/100 67/109/103 62/107/101
f 61/105/99 63/110/104 67/111/103
f 63/110/104 61/105/99 64/112/105
f 21/99/94 64/112/105 61/105/99
f 61/106/100 65/108/102 66/113/106
f 66/113/106 60/104/98 61/106/100
f 63/110/104 68/114/107 67/111/103
f 67/111/103 68/114/107 62/115/101
f 68/114/107 63/110/104 69/116/108
f 69/116/108 62/115/101 68/114/107
f 70/117/109 69/118/108 64/119/110
f 69/118/108 70/117/109 71/120/111
f 69/116/108 71/121/111 72/122/112
f 72/122/113 62/115/101 69/116/108
f 63/123/104 64/119/110 69/118/108
f 72/122/114 71/121/114 73/124/114
f 72/122/115 73/124/116 62/115/101
f 62/107/101 73/125/116 65/108/102
f 65/126/117 73/127/118 70/128/119
f 70/128/119 73/127/118 71/129/120
f 70/128/119 74/130/121 75/131/122
f 64/119/110 74/132/123 70/117/109
f 75/131/122 65/126/117 70/128/119
f 75/131/122 66/133/124 65/126/117
f 76/134/125 75/131/122 74/130/121
f 60/135/126 75/131/122 76/134/125
f 60/135/126 66/133/124 75/131/122
f 13/17/17 76/136/125 17/21/21
f 76/134/125 74/130/121 17/137/21
f 60/138/126 76/136/125 13/17/17
f 17/24/24 74/132/123 64/119/110
f 64/119/110 21/28/28 17/24/24
f 7/4/4 60/104/98 77/139/127
f 60/138/126 13/17/17 77/140/128
f 10/13/13 2/14/14 77/140/128
f 2/2/2 7/4/4 77/139/127
f 10/13/13 77/140/128 13/17/17
f 46/74/71 54/94/91 3/5/5
f 3/5/5 54/94/91 7/4/4
f 42/70/66 47/141/129 38/61/59
f 38/61/59 47/141/129 4/62/50
f 47/76/73 3/5/5 4/6/6
f 18/20/20 15/16/16 14/19/19
