# ('FARMS composite mesh',)
mtllib link_body_25_composite.mtl

o link_body_25
usemtl link_body_25_composite
v -2.93692300 0.64347900 5.45430700
v -2.93692300 0.64347900 5.45430700
v -2.93692300 0.64347900 5.45430700
v -2.86654200 -0.64354200 5.49396500
v -2.86654200 -0.64354200 5.49396500
v -2.86654200 -0.64354200 5.49396500
v 2.33103100 0.13723500 6.12730500
v 2.33103100 0.13723500 6.12730500
v 2.33103100 0.13723500 6.12730500
v -2.12903500 0.07031800 5.98347600
v -2.12903500 0.07031800 5.98347600
v -2.12903500 0.07031800 5.98347600
v -3.66655600 1.23142400 4.63601600
v -3.66655600 1.23142400 4.63601600
v -3.66655600 1.23142400 4.63601600
v -3.83875200 0.00000000 4.60664600
v -3.83875200 0.00000000 4.60664600
v -4.49455500 -0.62689300 3.63508600
v -4.49455500 -0.62689300 3.63508600
v -3.67700900 -1.23507200 4.62797200
v -3.67700900 -1.23507200 4.62797200
v -4.42719100 1.05674700 3.61942800
v -4.99804900 0.69711600 2.50952300
v -4.22867100 1.80634800 3.63583000
v -4.22867100 1.80634800 3.63583000
v -0.78660500 2.96525200 0.40602600
v -0.78660500 2.96525200 0.40602600
v -4.77970300 2.76210700 1.31092300
v -4.77970300 2.76210700 1.31092300
v -4.64255300 2.29051200 2.47801100
v -4.64255300 2.29051200 2.47801100
v -0.86301800 2.43368900 1.62765000
v -0.86301800 2.43368900 1.62765000
v 0.41772800 0.89714800 4.80280000
v 0.41772800 0.89714800 4.80280000
v 0.41772800 0.89714800 4.80280000
v -0.34217000 1.46601600 3.64231900
v -0.34217000 1.46601600 3.64231900
v -0.54765300 0.00000100 3.56619600
v -0.94701000 1.15695800 2.45643900
v 0.11758000 0.00000100 4.53890800
v 0.11758000 0.00000100 4.53890800
v -1.01956900 -0.63060900 2.51573800
v -1.33211100 0.72976400 1.26274800
v -0.31919100 -1.45397300 3.67437300
v -0.31919100 -1.45397300 3.67437300
v -1.24555900 -1.22821700 1.25228100
v -0.74161900 -2.09175400 2.36948700
v -0.74161900 -2.09175400 2.36948700
v -0.87121200 -2.60104400 1.24966900
v -0.87121200 -2.60104400 1.24966900
v -4.22868200 -1.80627000 3.63584400
v -4.22868200 -1.80627000 3.63584400
v -4.22868200 -1.80627000 3.63584400
v -4.64269500 -2.29001000 2.47811500
v -4.64269500 -2.29001000 2.47811500
v -4.91925300 -1.17420100 2.49311100
v -0.78593800 -2.97372300 0.39838500
v -0.78593800 -2.97372300 0.39838500
v -0.78593800 -2.97372300 0.39838500
v 1.89325300 -0.26539900 5.94459200
v 1.89325300 -0.26539900 5.94459200
v -4.78503700 -2.76413200 1.32797100
v -4.78503700 -2.76413200 1.32797100
v 1.01297000 -0.57598800 5.39300100
v 1.01297000 -0.57598800 5.39300100
v 0.23121300 -1.02184500 4.55512400
v 0.23121300 -1.02184500 4.55512400
v 0.23121300 -1.02184500 4.55512400
v -4.64254700 -3.31464300 -0.12484600
v -4.64254700 -3.31464300 -0.12484600
v -5.32240200 -0.62257200 1.28433300
v -5.19760000 -1.96221800 0.05348900
v -5.43466000 0.52702700 0.00000100
v -5.22226600 -1.24652700 -1.27097900
v -4.91926500 -2.44515200 -1.27097900
v -4.84302800 -1.72278000 -2.46867000
v -4.43373800 -3.53280000 -1.27921500
v -4.43373800 -3.53280000 -1.27921500
v -0.48870100 -3.32629300 -1.45144600
v -0.48870100 -3.32629300 -1.45144600
v -2.44103600 -3.45426800 -2.80614400
v -0.64291000 -3.22294300 -0.62239000
v -0.64291000 -3.22294300 -0.62239000
v -0.64291000 -3.22294300 -0.62239000
v -4.07815500 -3.50125500 -2.47923900
v -4.07815500 -3.50125500 -2.47923900
v -3.57800600 -3.29522700 -3.60900700
v -3.57800600 -3.29522700 -3.60900700
v -3.57800600 -3.29522700 -3.60900700
v -4.17032100 -2.07288600 -3.61943000
v -4.17032100 -2.07288600 -3.61943000
v -4.47818600 -0.57672600 -3.66646600
v -4.47818600 -0.57672600 -3.66646600
v -3.54654200 -1.76283200 -4.60664700
v -3.82818500 -0.43280600 -4.62096000
v -3.82818500 -0.43280600 -4.62096000
v -2.97969000 -0.71123700 -5.43633700
v -3.02606500 -3.01672800 -4.48791900
v -3.02606500 -3.01672800 -4.48791900
v 0.20850700 -2.94483100 -3.59376100
v 0.20850700 -2.94483100 -3.59376100
v 0.20850700 -2.94483100 -3.59376100
v -2.31504800 -2.39960300 -5.36831600
v -2.31504800 -2.39960300 -5.36831600
v 0.75503100 -2.52168100 -4.53890800
v 0.75503100 -2.52168100 -4.53890800
v -0.03267300 -3.15417800 -2.96888700
v -0.03267300 -3.15417800 -2.96888700
v -0.03267300 -3.15417800 -2.96888700
v -0.20909900 -2.04245300 -3.56619700
v -0.20909900 -2.04245300 -3.56619700
v -0.20909900 -2.04245300 -3.56619700
v -0.82252100 -1.77020500 -2.51574000
v -1.35197800 -0.55225800 -1.21390400
v -1.04196900 0.00000100 -2.45644000
v -0.94701000 -2.40923600 -1.25228300
v -0.52857200 -0.61768800 -3.58162600
v -0.52857200 -0.61768800 -3.58162600
v 0.13113800 0.46480000 -4.55301200
v 0.13113800 0.46480000 -4.55301200
v -0.37199800 1.61340800 -3.56950200
v -0.37199800 1.61340800 -3.56950200
v 0.26095600 -1.35007600 -4.53215300
v 0.26095600 -1.35007600 -4.53215300
v 0.94712800 -0.32289000 -5.35105900
v 1.31634500 -1.81724200 -5.33124700
v 1.31634500 -1.81724200 -5.33124700
v 2.10281700 -1.17210300 -5.93178900
v 2.10281700 -1.17210300 -5.93178900
v -1.53559900 -1.75289200 -6.02108900
v -1.53559900 -1.75289200 -6.02108900
v 1.83258400 0.00709100 -5.93606700
v 1.04851900 1.06593800 -5.33972400
v 2.80652200 -0.02398400 -6.28799500
v 2.80652200 -0.02398400 -6.28799500
v 2.06338100 1.04153900 -5.93672500
v 2.06338100 1.04153900 -5.93672500
v -2.01205400 2.09821400 -5.63084900
v -2.01205400 2.09821400 -5.63084900
v -2.01205400 2.09821400 -5.63084900
v 1.35836800 1.80766100 -5.34153100
v 1.35836800 1.80766100 -5.34153100
v 1.35836800 1.80766100 -5.34153100
v 0.10838300 1.06084800 -6.12637200
v -1.71179200 1.38495800 -6.02583500
v -1.01475500 0.07236000 -6.41176900
v -2.08298000 0.34350700 -6.03048100
v 3.03230600 -0.69572900 -6.29564600
v 3.03230600 -0.69572900 -6.29564600
v 3.03230600 -0.69572900 -6.29564600
v -2.87730700 1.11386900 -5.42157700
v -2.37504500 2.47190600 -5.29076200
v -2.37504500 2.47190600 -5.29076200
v -3.04258600 3.02464000 -4.47118000
v -3.04258600 3.02464000 -4.47118000
v -3.04258600 3.02464000 -4.47118000
v -3.67175100 1.29755500 -4.63640800
v -3.67175100 1.29755500 -4.63640800
v -4.32811600 1.52596200 -3.66710000
v -3.60187400 3.30498400 -3.56811500
v -3.60187400 3.30498400 -3.56811500
v -4.63383300 2.30327700 -2.49311200
v -4.98427800 0.64511300 -2.55248600
v -5.08766400 1.96955500 -1.28160000
v -5.32457600 0.00000000 -1.27097900
v -4.43387400 3.53281700 -1.28059600
v -4.43387400 3.53281700 -1.28059600
v -4.10510100 3.50804000 -2.41975300
v -4.10510100 3.50804000 -2.41975300
v -5.01564200 2.49305700 -0.00000000
v -4.64254600 3.31464100 -0.12484600
v -4.64254600 3.31464100 -0.12484600
v -0.64287500 3.22295900 -0.62270600
v -0.64287500 3.22295900 -0.62270600
v -0.48980700 3.32525000 -1.44309600
v -0.48980700 3.32525000 -1.44309600
v -1.04196900 2.45643800 -0.00000100
v -0.94701000 2.40923800 -1.25228300
v -1.24555600 1.22822000 -1.25228300
v -0.81835500 1.82658300 -2.47261100
v -0.03267300 3.15417800 -2.96888700
v -0.03267300 3.15417800 -2.96888700
v 0.31201600 2.84079300 -3.87784900
v 0.31201600 2.84079300 -3.87784900
v 0.31201600 2.84079300 -3.87784900
v -2.43542800 3.45433200 -2.80100400
v 0.72457100 2.45269000 -4.55992200
v 0.72457100 2.45269000 -4.55992200
v -1.45483000 0.51928500 -0.00000100
v -1.34636700 -1.25228100 -0.00000100
v -1.04196900 -2.45643700 -0.00000100
v -1.04196900 -2.45643700 -0.00000100
v -5.22226200 1.24652900 1.27097800
v 2.62220300 -0.04163800 6.21153000
v 2.62220300 -0.04163800 6.21153000
v 2.62220300 -0.04163800 6.21153000
v 2.62220300 -0.04163800 6.21153000
vn -0.65270621 0.01949127 0.75736034
vn -0.03421512 0.65148879 0.75788633
vn 0.00395610 0.81377208 0.58117067
vn -0.64642777 -0.03173881 0.76231475
vn -0.05313189 -0.52681850 0.84831555
vn 0.01934749 -0.83393414 0.55152473
vn 0.04639635 0.87709421 0.47807231
vn -0.03552849 0.39364995 0.91857359
vn 0.40675978 -0.00726398 -0.91350627
vn -0.05313189 -0.52681850 0.84831555
vn -0.55007892 -0.00434853 0.83510135
vn -0.03426698 0.64735592 0.76141716
vn 0.03238319 0.86349089 0.50332377
vn -0.80445742 0.13064079 0.57946634
vn -0.71337349 0.08315857 0.69583254
vn -0.82541308 0.06432773 0.56085220
vn -0.72955795 -0.03010089 0.68325628
vn -0.80469537 -0.13970055 0.57701744
vn -0.89457372 -0.05314414 0.44374944
vn 0.03380433 -0.86605344 0.49880729
vn -0.76715765 -0.11471325 0.63111806
vn -0.86166859 0.14113752 0.48744993
vn -0.93957466 0.09086571 0.33006496
vn -0.85860968 0.20999961 0.46764258
vn 0.05435345 0.90949327 0.41215008
vn 0.91029023 -0.40973778 -0.05904788
vn 0.05205926 0.94612068 0.31960210
vn -0.94144984 0.30246337 0.14895673
vn 0.03673000 0.92919772 0.36775333
vn -0.92374041 0.23079600 0.30567444
vn 0.05449448 0.92799746 0.36857979
vn 0.07281641 0.91072558 0.40654237
vn 0.94508085 -0.26533994 -0.19083212
vn 0.80910999 -0.10037791 -0.57902098
vn 0.62071593 -0.06231501 -0.78155523
vn 0.07470009 0.90875291 0.41059474
vn 0.87296322 -0.13075955 -0.46993313
vn 0.07915123 0.91157823 0.40343551
vn 0.88045840 -0.01914431 -0.47373673
vn 0.92372081 -0.15986271 -0.34811461
vn 0.69614231 0.01797693 -0.71767870
vn 0.82271384 -0.01204336 -0.56832816
vn 0.93884647 0.07792680 -0.33540231
vn 0.98166849 -0.09758798 -0.16371792
vn 0.07805279 -0.91055915 0.40594310
vn 0.86646671 0.13016288 -0.48196791
vn 0.97433995 0.16041309 -0.15789019
vn 0.92786113 0.22513137 -0.29730388
vn 0.07493358 -0.90848498 0.41114475
vn 0.94950744 0.28050598 -0.14054185
vn 0.07293370 -0.91094323 0.40603338
vn 0.05305585 -0.90875300 0.41394813
vn -0.81093343 -0.18245555 0.55596488
vn -0.88386457 -0.21052329 0.41768812
vn -0.92777154 -0.23209617 0.29218375
vn 0.02218471 -0.92526400 0.37867450
vn -0.93387842 -0.15927972 0.32015789
vn 0.05249424 -0.94708136 0.31667214
vn 0.89166197 0.45247058 0.01446735
vn 0.91645062 0.39209914 -0.07985314
vn 0.55140991 -0.23650025 -0.80000922
vn -0.03557433 -0.72414830 0.68872614
vn -0.94738306 -0.28290942 0.14975845
vn 0.03611580 -0.92929427 0.36757015
vn 0.61489587 -0.06149145 -0.78620727
vn 0.08874813 -0.92074873 0.37992835
vn 0.82627810 0.08304423 -0.55710695
vn 0.07535211 -0.90895001 0.41003895
vn 0.71117720 0.06798145 -0.69971817
vn -0.92134811 -0.38782797 -0.02659165
vn 0.04105286 -0.95923081 0.27962639
vn -0.98307781 -0.08948858 0.15984311
vn -0.96865221 -0.24795168 0.01525998
vn -0.99796241 0.06371939 -0.00329547
vn -0.97739096 -0.14213565 -0.15653871
vn -0.92486001 -0.33786610 -0.17458656
vn -0.91656100 -0.22724233 -0.32905450
vn -0.89797546 -0.39437855 -0.19520665
vn 0.04435447 -0.99293366 0.11007010
vn 0.08056323 -0.99631418 0.02945527
vn 0.88719588 0.40413534 0.22261648
vn 0.06424810 -0.98837922 -0.13776323
vn 0.89166197 0.45247058 0.01446735
vn 0.05456049 -0.98116795 0.18529062
vn 0.90477184 0.41435729 0.09846800
vn -0.85813813 -0.38083536 -0.34433033
vn 0.01437337 -0.99734630 -0.07137055
vn 0.02695153 -0.97261940 -0.23083570
vn -0.73409338 -0.35983666 -0.57586846
vn -0.81053621 -0.39644120 -0.43112113
vn -0.85245090 -0.30745323 -0.42284746
vn -0.77001673 -0.27852939 -0.57401708
vn -0.80248721 -0.17920339 -0.56912251
vn -0.88914200 -0.03041971 -0.45661925
vn -0.69781061 -0.26592258 -0.66509062
vn -0.82583418 0.06215956 -0.56047666
vn -0.73827645 -0.08267474 -0.66941225
vn -0.60188875 -0.11053894 -0.79089258
vn 0.09109017 -0.93010459 -0.35582022
vn -0.68481553 -0.33180802 -0.64879205
vn 0.82030985 0.36620736 0.43929935
vn 0.74643473 0.31907542 0.58397438
vn 0.10906463 -0.94151566 -0.31883094
vn 0.11562880 -0.82727591 -0.54976773
vn -0.58714625 -0.26199299 -0.76591054
vn 0.12443929 -0.84550833 -0.51925959
vn 0.71534378 0.29802202 0.63203335
vn 0.82030985 0.36620736 0.43929935
vn 0.85939098 0.37756529 0.34480661
vn 0.10684283 -0.97259683 -0.20649461
vn 0.73853339 0.32371589 0.59141902
vn 0.82030985 0.36620736 0.43929935
vn 0.84994799 0.25520291 0.46093372
vn 0.91161383 0.24480636 0.33019701
vn 0.98371464 0.07667003 0.16256450
vn 0.94297695 -0.01196358 0.33264297
vn 0.93172019 0.32132220 0.16926169
vn 0.79122304 0.06358655 0.60821283
vn 0.88631573 0.07082819 0.45763282
vn 0.85680534 -0.06291005 0.51178798
vn 0.73261236 -0.07359888 0.67665526
vn 0.74389174 -0.23259500 0.62651787
vn 0.87762053 -0.19507260 0.43786858
vn 0.82223586 0.19017788 0.53643319
vn 0.71902534 0.18605058 0.66961761
vn 0.62022924 0.05836739 0.78224608
vn 0.13386335 -0.76894253 -0.62514637
vn 0.60527325 0.18809413 0.77347585
vn 0.45599923 0.11092586 0.88304029
vn 0.13642733 -0.75628056 -0.63986507
vn 0.13378110 -0.77708943 -0.61500784
vn -0.33001893 -0.18419565 -0.92582907
vn 0.45056047 0.00651361 0.89272215
vn 0.61054301 -0.15690515 0.77628475
vn 0.04671245 0.12411781 -0.99116735
vn 0.33368665 0.03701562 0.94195704
vn 0.45374575 -0.12282843 0.88262561
vn 0.09989230 0.46263223 -0.88090462
vn 0.15161255 0.75541219 -0.63746847
vn 0.06533491 0.54782525 -0.83403768
vn -0.52888066 0.22978996 -0.81699561
vn 0.11908166 0.81103416 -0.57275051
vn 0.58013181 -0.24044962 0.77822302
vn 0.12067693 0.67589281 -0.72705294
vn 0.05583726 0.40786165 -0.91133478
vn -0.22113854 0.32221316 -0.92047619
vn -0.12815182 0.02610037 -0.99141106
vn -0.44220294 0.03386767 -0.89627537
vn 0.13632184 -0.75546898 -0.64084551
vn 0.31947819 0.09664505 0.94265233
vn 0.02047453 -0.04313160 -0.99885958
vn -0.60401430 0.16845705 -0.77896659
vn -0.58166693 0.28557640 -0.76164933
vn 0.14005012 0.83039863 -0.53928107
vn 0.09864184 0.93120698 -0.35088937
vn -0.74806954 0.33401356 -0.57343431
vn -0.63176792 0.30071340 -0.71445135
vn -0.79110497 0.19169591 -0.58086625
vn -0.66807469 0.17832802 -0.72240939
vn -0.83773581 0.21324943 -0.50271601
vn 0.02396986 0.97382298 -0.22604038
vn -0.78757580 0.35673946 -0.50245528
vn -0.88525555 0.32190631 -0.33570664
vn -0.93956565 0.07340467 -0.33440714
vn -0.95172824 0.25843791 -0.16559952
vn -0.98561733 -0.00574383 -0.16889492
vn -0.90587914 0.37897971 -0.18909619
vn 0.04519676 0.99281481 0.11079715
vn 0.01731854 0.99775377 -0.06471080
vn -0.85774099 0.38689889 -0.33851091
vn -0.94526822 0.32626481 0.00438972
vn -0.91461318 0.40248921 -0.03853789
vn 0.04139816 0.95843529 0.28229059
vn 0.05483553 0.98068319 0.18775930
vn 0.90230154 -0.42372366 0.07943663
vn 0.08062479 0.99628490 0.03026608
vn 0.88662121 -0.40626556 0.22102289
vn 0.94586016 -0.32447978 -0.00783764
vn 0.92845313 -0.33201021 0.16656530
vn 0.97429432 -0.15544160 0.16305974
vn 0.91084838 -0.24893299 0.32922272
vn 0.84926720 -0.37043887 0.37619180
vn 0.10886203 0.97178101 -0.20926234
vn 0.82838116 -0.35222662 0.43556982
vn 0.10971427 0.91724383 -0.38291844
vn 0.75027886 -0.26608271 0.60521204
vn 0.06444295 0.98848695 -0.13689655
vn 0.72133768 -0.23998083 0.64967773
vn 0.11792515 0.84189953 -0.52659172
vn 0.99749645 -0.07069127 -0.00189307
vn 0.98637974 0.16443665 -0.00394998
vn 0.95379616 0.30037716 -0.00681582
vn 0.89166197 0.45247058 0.01446735
vn -0.97188803 0.17219643 0.16056788
vn 0.32137686 0.07880229 -0.94366684
vn -0.05313189 -0.52681850 0.84831555
vn -0.01476357 -0.76940898 0.63858582
vn -0.03550465 0.37784368 0.92518840
vt 0.89312000 0.36981400
vt 0.89312000 0.36981400
vt 0.45303400 0.68920000
vt 0.89209500 0.36274400
vt 0.89209500 0.36274400
vt 0.11095100 0.68361800
vt 0.48611600 0.68099400
vt 0.92675700 0.35977200
vt 0.97176700 0.91474500
vt 0.89769400 0.36557300
vt 0.89769400 0.36557300
vt 0.89769400 0.36557300
vt 0.44808600 0.69454200
vt 0.23152000 0.87624400
vt 0.88908000 0.37403700
vt 0.22482200 0.87567500
vt 0.88654500 0.36760600
vt 0.88159200 0.36515300
vt 0.21933900 0.88039100
vt 0.11639400 0.68830500
vt 0.88617400 0.36069200
vt 0.22802800 0.88139900
vt 0.22403000 0.88705600
vt 0.23234600 0.88179600
vt 0.44434600 0.70073700
vt 0.48065900 0.90260800
vt 0.46616100 0.71614500
vt 0.23428900 0.89484000
vt 0.44103100 0.71435100
vt 0.23299500 0.88823300
vt 0.44181400 0.70763400
vt 0.46568500 0.70927700
vt 0.48249500 0.89548500
vt 0.48665000 0.87611000
vt 0.98254500 0.92286400
vt 0.47391000 0.69015000
vt 0.48537900 0.88333900
vt 0.46908000 0.69738100
vt 0.49356800 0.88242200
vt 0.48872000 0.88977500
vt 0.98600000 0.91880000
vt 0.49203100 0.87681400
vt 0.49839200 0.88774500
vt 0.49249000 0.89603300
vt 0.09428900 0.69451200
vt 0.50109800 0.88030700
vt 0.50298900 0.89414000
vt 0.50614200 0.88698200
vt 0.09724800 0.70173800
vt 0.51003700 0.89263500
vt 0.09825100 0.70799300
vt 0.12015400 0.69375400
vt 0.88196300 0.35839800
vt 0.21405400 0.87988100
vt 0.20980200 0.88580500
vt 0.12305800 0.70013800
vt 0.21474800 0.88619000
vt 0.09779700 0.71279500
vt 0.75982000 0.97180600
vt 0.51273900 0.89685800
vt 0.97523200 0.91355800
vt 0.07935600 0.68231900
vt 0.20630400 0.89181500
vt 0.12416100 0.70655100
vt 0.98133500 0.91381700
vt 0.08525300 0.68519400
vt 0.49742300 0.87567500
vt 0.09053200 0.68970500
vt 0.98705600 0.91318900
vt 0.20296300 0.89957700
vt 0.12342600 0.71472800
vt 0.21573400 0.89294800
vt 0.20849100 0.89906300
vt 0.22045000 0.90057000
vt 0.21121100 0.90671500
vt 0.20592400 0.90621600
vt 0.20901800 0.91321900
vt 0.20166400 0.90590300
vt 0.12225600 0.72120900
vt 0.09617100 0.72317000
vt 0.51603100 0.90642800
vt 0.10940400 0.73016700
vt 0.75710400 0.97690300
vt 0.09702700 0.71852500
vt 0.51487100 0.90209600
vt 0.20198000 0.91267900
vt 0.12018000 0.72793300
vt 0.11716600 0.73427400
vt 0.92776900 0.16908000
vt 0.20359700 0.91922600
vt 0.20825100 0.91966500
vt 0.92935300 0.17674700
vt 0.92866500 0.18525700
vt 0.21500200 0.92057800
vt 0.92489400 0.17716600
vt 0.21680300 0.92619600
vt 0.92433200 0.18474400
vt 0.91948800 0.18158100
vt 0.11376800 0.73922700
vt 0.92381600 0.16947300
vt 0.78088400 0.97609700
vt 0.97029600 0.26134700
vt 0.09212200 0.73512900
vt 0.10939100 0.74416600
vt 0.91826600 0.17130800
vt 0.08880700 0.74041900
vt 0.97023900 0.25698400
vt 0.78439600 0.97496300
vt 0.51603100 0.91462500
vt 0.09353200 0.73165000
vt 0.97599000 0.26086700
vt 0.78088400 0.97180600
vt 0.51074300 0.91904100
vt 0.50892200 0.91389100
vt 0.50168300 0.90825600
vt 0.49952300 0.91540000
vt 0.51134800 0.90646000
vt 0.98372400 0.25823100
vt 0.50337600 0.92066800
vt 0.49776300 0.92668600
vt 0.98628000 0.25120700
vt 0.99340100 0.25048100
vt 0.49116200 0.92270200
vt 0.50741800 0.92474100
vt 0.97745500 0.25609400
vt 0.97965500 0.24910200
vt 0.08542200 0.74481500
vt 0.97141700 0.25167900
vt 0.97148300 0.24532300
vt 0.08048600 0.74822100
vt 0.10451400 0.74785900
vt 0.91222900 0.17313000
vt 0.97790500 0.24317300
vt 0.98566300 0.24425700
vt 0.88183400 0.17308200
vt 0.97416300 0.23788100
vt 0.98180600 0.23870700
vt 0.88463800 0.18020500
vt 0.46489900 0.74981700
vt 0.90845700 0.19431200
vt 0.90845700 0.19431200
vt 0.48611600 0.74535600
vt 0.98792600 0.24025800
vt 0.88772400 0.18565000
vt 0.89692600 0.18444800
vt 0.90782500 0.18997700
vt 0.90574600 0.18165700
vt 0.91199400 0.18529200
vt 0.07450900 0.75038900
vt 0.97023900 0.23870900
vt 0.88159200 0.16908000
vt 0.91563500 0.19094600
vt 0.91008200 0.19700300
vt 0.46170000 0.74841900
vt 0.45590700 0.74472300
vt 0.23643100 0.92755800
vt 0.91330300 0.20122500
vt 0.22595800 0.92726800
vt 0.92030500 0.19350100
vt 0.22603600 0.92176300
vt 0.45121300 0.74035900
vt 0.23698000 0.92248800
vt 0.22992800 0.91558200
vt 0.22059000 0.91487200
vt 0.22783600 0.90853800
vt 0.21725900 0.90732900
vt 0.23743900 0.90965500
vt 0.44382800 0.72861100
vt 0.44681400 0.73457100
vt 0.23743900 0.91605400
vt 0.23148600 0.90180000
vt 0.23652900 0.90309000
vt 0.44201500 0.72235200
vt 0.46739900 0.72177900
vt 0.48006000 0.90838200
vt 0.46881200 0.72619400
vt 0.48010200 0.91286800
vt 0.48402600 0.90444200
vt 0.48532500 0.91115700
vt 0.49199700 0.91015000
vt 0.48945400 0.91716100
vt 0.48196200 0.92077500
vt 0.47316600 0.73410100
vt 0.48414100 0.92524500
vt 0.47659200 0.73865700
vt 0.99651700 0.24290500
vt 0.45757600 0.73527400
vt 0.99322000 0.24179700
vt 0.48039500 0.74188200
vt 0.49489400 0.90275200
vt 0.50435500 0.90097200
vt 0.51055900 0.89965200
vt 0.75638800 0.97180600
vt 0.22544700 0.89405700
vt 0.97023900 0.91318900
vt 0.92844100 0.35839800
vt 0.07450900 0.68099400
vt 0.92844100 0.35839800
f 1/1/1 4/4/4 11/11/11
f 17/17/17 4/4/4 1/1/1
f 3/3/3 7/7/7 13/13/13
f 12/12/12 8/8/8 2/2/2
f 17/17/17 1/1/1 15/15/15
f 16/16/16 14/14/14 22/22/22
f 16/16/16 22/22/22 19/19/19
f 18/18/18 21/21/21 17/17/17
f 17/17/17 21/21/21 4/4/4
f 22/22/22 14/14/14 24/24/24
f 23/23/23 19/19/19 22/22/22
f 24/24/24 23/23/23 22/22/22
f 25/25/25 32/32/32 27/27/27
f 29/29/29 25/25/25 27/27/27
f 23/23/23 24/24/24 30/30/30
f 29/29/29 31/31/31 25/25/25
f 13/13/13 7/7/7 25/25/25
f 38/38/38 32/32/32 25/25/25
f 25/25/25 7/7/7 36/36/36
f 25/25/25 36/36/36 38/38/38
f 42/42/42 39/39/39 37/37/37
f 43/43/43 37/37/37 39/39/39
f 42/42/42 37/37/37 34/34/34
f 37/37/37 40/40/40 33/33/33
f 43/43/43 40/40/40 37/37/37
f 47/47/47 44/44/44 43/43/43
f 44/44/44 40/40/40 43/43/43
f 43/43/43 39/39/39 46/46/46
f 43/43/43 46/46/46 48/48/48
f 43/43/43 48/48/48 47/47/47
f 52/52/52 49/49/49 45/45/45
f 48/48/48 50/50/50 47/47/47
f 52/52/52 51/51/51 49/49/49
f 57/57/57 54/54/54 19/19/19
f 21/21/21 18/18/18 53/53/53
f 55/55/55 54/54/54 57/57/57
f 56/56/56 64/64/64 52/52/52
f 52/52/52 64/64/64 58/58/58
f 52/52/52 58/58/58 51/51/51
f 66/66/66 62/62/62 52/52/52
f 62/62/62 20/20/20 52/52/52
f 68/68/68 66/66/66 52/52/52
f 52/52/52 45/45/45 68/68/68
f 46/46/46 42/42/42 67/67/67
f 65/65/65 69/69/69 41/41/41
f 65/65/65 41/41/41 35/35/35
f 65/65/65 9/9/9 61/61/61
f 65/65/65 35/35/35 9/9/9
f 73/73/73 70/70/70 63/63/63
f 64/64/64 71/71/71 58/58/58
f 72/72/72 63/63/63 55/55/55
f 73/73/73 63/63/63 72/72/72
f 76/76/76 70/70/70 73/73/73
f 74/74/74 73/73/73 72/72/72
f 74/74/74 75/75/75 73/73/73
f 73/73/73 75/75/75 76/76/76
f 78/78/78 76/76/76 77/77/77
f 75/75/75 77/77/77 76/76/76
f 76/76/76 78/78/78 70/70/70
f 71/71/71 79/79/79 84/84/84
f 79/79/79 80/80/80 84/84/84
f 80/80/80 79/79/79 82/82/82
f 79/79/79 87/87/87 82/82/82
f 78/78/78 77/77/77 86/86/86
f 91/91/91 86/86/86 77/77/77
f 91/91/91 90/90/90 86/86/86
f 87/87/87 88/88/88 82/82/82
f 95/95/95 89/89/89 92/92/92
f 77/77/77 94/94/94 91/91/91
f 93/93/93 95/95/95 92/92/92
f 93/93/93 97/97/97 95/95/95
f 97/97/97 98/98/98 95/95/95
f 98/98/98 100/100/100 95/95/95
f 95/95/95 100/100/100 89/89/89
f 99/99/99 110/110/110 82/82/82
f 88/88/88 99/99/99 82/82/82
f 99/99/99 103/103/103 110/110/110
f 103/103/103 99/99/99 106/106/106
f 98/98/98 105/105/105 100/100/100
f 99/99/99 104/104/104 106/106/106
f 110/110/110 80/80/80 82/82/82
f 108/108/108 101/101/101 112/112/112
f 81/81/81 109/109/109 114/114/114
f 113/113/113 114/114/114 109/109/109
f 114/114/114 115/115/115 117/117/117
f 116/116/116 115/115/115 114/114/114
f 119/119/119 116/116/116 114/114/114
f 114/114/114 113/113/113 119/119/119
f 114/114/114 117/117/117 81/81/81
f 125/125/125 121/121/121 118/118/118
f 120/120/120 123/123/123 119/119/119
f 123/123/123 116/116/116 119/119/119
f 124/124/124 119/119/119 113/113/113
f 121/121/121 125/125/125 126/126/126
f 125/125/125 128/128/128 126/126/126
f 128/128/128 125/125/125 107/107/107
f 111/111/111 102/102/102 125/125/125
f 102/102/102 107/107/107 125/125/125
f 128/128/128 129/129/129 133/133/133
f 131/131/131 130/130/130 127/127/127
f 128/128/128 133/133/133 126/126/126
f 127/127/127 106/106/106 131/131/131
f 126/126/126 133/133/133 134/134/134
f 134/134/134 133/133/133 137/137/137
f 133/133/133 129/129/129 136/136/136
f 136/136/136 137/137/137 133/133/133
f 140/140/140 138/138/138 145/145/145
f 138/138/138 140/140/140 144/144/144
f 137/137/137 143/143/143 134/134/134
f 145/145/145 138/138/138 135/135/135
f 145/145/145 135/135/135 147/147/147
f 146/146/146 140/140/140 145/145/145
f 145/145/145 147/147/147 146/146/146
f 146/146/146 147/147/147 148/148/148
f 132/132/132 148/148/148 147/147/147
f 147/147/147 151/151/151 132/132/132
f 135/135/135 151/151/151 147/147/147
f 129/129/129 150/150/150 136/136/136
f 131/131/131 149/149/149 130/130/130
f 98/98/98 148/148/148 132/132/132
f 146/146/146 148/148/148 152/152/152
f 148/148/148 98/98/98 152/152/152
f 159/159/159 152/152/152 98/98/98
f 157/157/157 153/153/153 152/152/152
f 146/146/146 152/152/152 153/153/153
f 157/157/157 152/152/152 159/159/159
f 160/160/160 158/158/158 96/96/96
f 159/159/159 98/98/98 97/97/97
f 156/156/156 158/158/158 160/160/160
f 162/162/162 160/160/160 163/163/163
f 156/156/156 160/160/160 162/162/162
f 160/160/160 164/164/164 163/163/163
f 164/164/164 160/160/160 94/94/94
f 160/160/160 96/96/96 94/94/94
f 94/94/94 77/77/77 164/164/164
f 163/163/163 164/164/164 165/165/165
f 164/164/164 166/166/166 165/165/165
f 77/77/77 166/166/166 164/164/164
f 166/166/166 74/74/74 165/165/165
f 74/74/74 166/166/166 75/75/75
f 77/77/77 75/75/75 166/166/166
f 163/163/163 165/165/165 170/170/170
f 172/172/172 167/167/167 165/165/165
f 170/170/170 165/165/165 167/167/167
f 165/165/165 74/74/74 171/171/171
f 172/172/172 165/165/165 171/171/171
f 28/28/28 172/172/172 171/171/171
f 173/173/173 29/29/29 27/27/27
f 27/27/27 174/174/174 173/173/173
f 173/173/173 174/174/174 168/168/168
f 175/175/175 26/26/26 178/178/178
f 179/179/179 177/177/177 175/175/175
f 168/168/168 174/174/174 176/176/176
f 178/178/178 179/179/179 175/175/175
f 179/179/179 181/181/181 177/177/177
f 181/181/181 179/179/179 180/180/180
f 180/180/180 179/179/179 178/178/178
f 116/116/116 181/181/181 180/180/180
f 181/181/181 123/123/123 182/182/182
f 123/123/123 181/181/181 116/116/116
f 181/181/181 182/182/182 177/177/177
f 183/183/183 185/185/185 155/155/155
f 184/184/184 182/182/182 123/123/123
f 187/187/187 176/176/176 183/183/183
f 183/183/183 155/155/155 187/187/187
f 187/187/187 168/168/168 176/176/176
f 161/161/161 169/169/169 187/187/187
f 169/169/169 168/168/168 187/187/187
f 161/161/161 187/187/187 155/155/155
f 188/188/188 186/186/186 122/122/122
f 189/189/189 154/154/154 185/185/185
f 155/155/155 185/185/185 154/154/154
f 121/121/121 188/188/188 122/122/122
f 134/134/134 143/143/143 188/188/188
f 189/189/189 142/142/142 139/139/139
f 139/139/139 154/154/154 189/189/189
f 188/188/188 121/121/121 134/134/134
f 115/115/115 180/180/180 190/190/190
f 180/180/180 178/178/178 190/190/190
f 116/116/116 180/180/180 115/115/115
f 44/44/44 190/190/190 178/178/178
f 190/190/190 44/44/44 47/47/47
f 115/115/115 190/190/190 191/191/191
f 190/190/190 47/47/47 191/191/191
f 50/50/50 192/192/192 191/191/191
f 117/117/117 191/191/191 192/192/192
f 50/50/50 191/191/191 47/47/47
f 117/117/117 115/115/115 191/191/191
f 192/192/192 50/50/50 60/60/60
f 117/117/117 192/192/192 85/85/85
f 193/193/193 59/59/59 83/83/83
f 33/33/33 178/178/178 26/26/26
f 44/44/44 178/178/178 33/33/33
f 194/194/194 171/171/171 74/74/74
f 194/194/194 28/28/28 171/171/171
f 194/194/194 23/23/23 30/30/30
f 194/194/194 72/72/72 23/23/23
f 74/74/74 72/72/72 194/194/194
f 194/194/194 30/30/30 28/28/28
f 162/162/162 163/163/163 170/170/170
f 141/141/141 146/146/146 153/153/153
f 121/121/121 126/126/126 134/134/134
f 106/106/106 104/104/104 131/131/131
f 98/98/98 132/132/132 105/105/105
f 81/81/81 117/117/117 85/85/85
f 58/58/58 71/71/71 84/84/84
f 57/57/57 23/23/23 72/72/72
f 72/72/72 55/55/55 57/57/57
f 61/61/61 9/9/9 195/195/195
f 62/62/62 197/197/197 20/20/20
f 10/10/10 5/5/5 196/196/196
f 6/6/6 20/20/20 197/197/197
f 12/12/12 198/198/198 8/8/8
f 57/57/57 19/19/19 23/23/23
f 46/46/46 39/39/39 42/42/42
f 40/40/40 44/44/44 33/33/33

