# ('FARMS composite mesh',)
mtllib link_leg_1_L_1_composite.mtl

o link_leg_1_L_1
usemtl link_leg_1_L_1_composite
v -1.88007100 -1.89427800 0.69320700
v -1.88007100 -1.89427800 0.69320700
v -2.01531600 -2.85676700 0.50881600
v -1.16140700 -1.00816600 -0.19281500
v -1.98530400 -2.04166600 -0.08887700
v -1.98530400 -2.04166600 -0.08887700
v -1.46143600 -1.82295900 1.39706800
v -1.46143600 -1.82295900 1.39706800
v -1.46143600 -1.82295900 1.39706800
v -1.46143600 -1.82295900 1.39706800
v -0.92037000 -0.88099000 0.58958300
v -0.92037000 -0.88099000 0.58958300
v -1.71689200 -2.33715800 1.18196400
v -1.71689200 -2.33715800 1.18196400
v -1.16241000 -3.09576900 1.71891500
v -1.77508500 -5.30619100 0.80050300
v -1.77508500 -5.30619100 0.80050300
v -1.54258100 -6.99086900 0.85990700
v -1.54258100 -6.99086900 0.85990700
v -1.54258100 -6.99086900 0.85990700
v -1.54258100 -6.99086900 0.85990700
v -1.99494700 -4.48204600 0.36610800
v -1.55201600 -4.52809500 -0.99622800
v -1.55201600 -4.52809500 -0.99622800
v -1.84433100 -5.52451000 -0.47046000
v -1.99463600 -3.58781200 -0.01529300
v -1.77097600 -5.92620400 0.54507700
v -1.91527900 -6.52811000 0.06781000
v -1.91527900 -6.52811000 0.06781000
v -1.64025500 -6.53949100 -1.03586800
v -1.64025500 -6.53949100 -1.03586800
v -1.64025500 -6.53949100 -1.03586800
v -1.64025500 -6.53949100 -1.03586800
v -1.97392200 -6.91402500 -0.84187800
v -1.97392200 -6.91402500 -0.84187800
v -1.97392200 -6.91402500 -0.84187800
v -2.08890100 -7.08098900 0.00248100
v -2.08890100 -7.08098900 0.00248100
v -2.08890100 -7.08098900 0.00248100
v -1.82369700 -7.57976100 0.70630600
v -1.82369700 -7.57976100 0.70630600
v -1.82369700 -7.57976100 0.70630600
v -1.33134900 -8.00118400 -0.27905100
v -1.23414100 -7.99056400 1.36365200
v -1.23414100 -7.99056400 1.36365200
v -1.23414100 -7.99056400 1.36365200
v -1.23414100 -7.99056400 1.36365200
v -1.14143300 -8.23393200 1.46805400
v -1.14143300 -8.23393200 1.46805400
v -0.91322100 -8.52866700 1.04625800
v -0.93188100 -5.71828900 1.54677800
v -0.93188100 -5.71828900 1.54677800
v 0.03556600 -4.32348500 2.15173300
v 0.66584800 -3.87260700 2.38244800
v 0.00084800 -6.07158900 2.01396100
v 0.32614300 -3.07471900 2.51787200
v 0.87928600 -2.78146900 2.46286100
v 0.87928600 -2.78146900 2.46286100
v 1.28160200 -3.12218100 2.40136000
v 1.28160200 -3.12218100 2.40136000
v 0.18783200 -2.43821200 2.47306500
v 0.18783200 -2.43821200 2.47306500
v -0.54856800 -2.24323800 2.20104800
v -0.54856800 -2.24323800 2.20104800
v -0.89653400 -1.99898600 1.98236000
v -0.89653400 -1.99898600 1.98236000
v 0.17046500 -1.27582600 1.59069400
v 0.17046500 -1.27582600 1.59069400
v 0.93120100 -1.61593500 1.60882000
v 0.93120100 -1.61593500 1.60882000
v -0.03622600 -0.53197900 0.55301500
v -0.03622600 -0.53197900 0.55301500
v 0.58305400 -0.80901000 0.90039600
v 0.58305400 -0.80901000 0.90039600
v -0.55623800 -1.06122300 1.21478000
v -0.55623800 -1.06122300 1.21478000
v -0.55623800 -1.06122300 1.21478000
v 0.46002200 -0.49447100 0.25392600
v 1.41567600 -1.46616400 0.95468600
v 1.41567600 -1.46616400 0.95468600
v 1.41567600 -1.46616400 0.95468600
v 0.99226000 -0.72018600 0.00692000
v 0.30621300 -0.48775600 -0.48350000
v 1.54282200 -1.35350800 0.01299500
v 1.54282200 -1.35350800 0.01299500
v 0.60982000 -0.82610100 -0.87339900
v 1.26973500 -1.41650400 -0.91729600
v 1.26973500 -1.41650400 -0.91729600
v 1.91077000 -4.06143200 -1.38596600
v 1.91077000 -4.06143200 -1.38596600
v 0.60979900 -1.61293800 -1.46983500
v 0.60979900 -1.61293800 -1.46983500
v 0.79781600 -2.56272100 -1.82404100
v 0.79781600 -2.56272100 -1.82404100
v 0.79781600 -2.56272100 -1.82404100
v 1.60784100 -1.75551700 -0.65954200
v 1.60784100 -1.75551700 -0.65954200
v 2.01152700 -2.46586000 -0.43967900
v 1.97203600 -2.19456000 0.59955100
v 1.97203600 -2.19456000 0.59955100
v 2.13823300 -3.76100200 -0.95002000
v 2.13823300 -3.76100200 -0.95002000
v 2.14105000 -4.35048100 -0.73606700
v 2.17662000 -3.64635500 -0.08533900
v 2.24973600 -3.49556900 1.40000000
v 2.54547900 -4.52116500 0.61776000
v 2.57129700 -5.14544600 1.29584800
v 2.63386100 -6.46651800 0.25586000
v 2.46412500 -7.32629700 0.24758700
v 2.60426000 -6.97417300 1.12599300
v 1.97119400 -5.55906300 -1.10955600
v 1.61415100 -4.69527900 -1.76310300
v 1.61415100 -4.69527900 -1.76310300
v 2.08597900 -7.12171600 -0.53285100
v 2.08597900 -7.12171600 -0.53285100
v 2.09710000 -9.21502000 0.25745100
v 1.40323600 -5.79736400 -1.59827100
v 1.40323600 -5.79736400 -1.59827100
v 0.96118900 -7.27505400 -1.32659000
v 1.60612900 -8.33329400 -0.68981900
v 1.60612900 -8.33329400 -0.68981900
v 1.45793200 -9.41565000 -0.39865200
v 1.45793200 -9.41565000 -0.39865200
v 1.45793200 -9.41565000 -0.39865200
v 1.83090900 -9.59439700 0.15916300
v 1.83090900 -9.59439700 0.15916300
v 0.57400700 -9.28923900 -0.08081700
v 0.79022900 -9.09416600 -0.85067300
v 0.79022900 -9.09416600 -0.85067300
v -0.00881300 -8.65712000 -1.05520200
v -0.00881300 -8.65712000 -1.05520200
v 1.05110000 -8.21247900 -1.00754900
v -0.24716700 -7.54969000 -1.25209200
v -0.59635900 -8.21958900 -1.19286100
v -0.59635900 -8.21958900 -1.19286100
v -0.53790200 -8.69537400 -0.13490400
v 0.34153800 -9.28815600 0.79313400
v 0.33735300 -9.19197700 1.75700500
v 0.33735300 -9.19197700 1.75700500
v 2.12566300 -9.70937100 1.16240200
v 2.12566300 -9.70937100 1.16240200
v 1.91869500 -9.62252800 1.49483700
v 1.91869500 -9.62252800 1.49483700
v 1.91869500 -9.62252800 1.49483700
v 2.12457100 -8.93638800 1.60376500
v 2.12457100 -8.93638800 1.60376500
v 2.22175500 -9.65763000 0.74877600
v 2.22175500 -9.65763000 0.74877600
v 2.22175500 -9.65763000 0.74877600
v 2.23719500 -9.18120600 0.96876700
v 2.41668100 -8.45220900 1.31499900
v 2.52113300 -8.34506600 0.87349900
v 2.28254600 -7.89564400 1.81126300
v 2.28254600 -7.89564400 1.81126300
v 2.10566200 -6.93580000 2.02468400
v 2.39868500 -6.52486400 1.74809800
v 2.39868500 -6.52486400 1.74809800
v 1.90901900 -5.41196200 2.16756700
v 1.90901900 -5.41196200 2.16756700
v 2.15011300 -3.64360100 1.72626300
v 1.78760700 -3.35759300 2.11920400
v 1.78760700 -3.35759300 2.11920400
v 1.65075500 -6.66647100 2.26150500
v 1.27337900 -5.68848400 2.35337300
v 1.50452700 -9.53028300 1.75720500
v 1.50452700 -9.53028300 1.75720500
v 1.04986100 -8.07563500 2.07437700
v -0.35330300 -8.81673700 1.73331900
v -0.35330300 -8.81673700 1.73331900
v -0.69590300 -8.57570600 1.67107700
v -0.69590300 -8.57570600 1.67107700
v -1.37417800 -7.33705700 -1.39415100
v -1.37417800 -7.33705700 -1.39415100
v -1.37417800 -7.33705700 -1.39415100
v -0.81963000 -6.46666000 -1.53325100
v -0.25124800 -5.28626500 -1.73409000
v -0.64008300 -4.76837900 -1.60082800
v -0.64008300 -4.76837900 -1.60082800
v -0.44973700 -3.72324100 -2.24993500
v -0.44973700 -3.72324100 -2.24993500
v -0.44973700 -3.72324100 -2.24993500
v -0.61243100 -3.82866900 -1.78950300
v -0.11490300 -3.89463200 -2.27266300
v -0.11490300 -3.89463200 -2.27266300
v -0.11490300 -3.89463200 -2.27266300
v -1.61693700 -3.26195600 -0.79868200
v -1.61693700 -3.26195600 -0.79868200
v -1.76573900 -2.11172000 -0.77419100
v -1.76573900 -2.11172000 -0.77419100
v -1.32064200 -2.01541600 -1.23592800
v -1.32064200 -2.01541600 -1.23592800
v -0.96048700 -1.28509600 -0.98352800
v -0.37189700 -1.04432200 -1.12013700
v -0.37189700 -1.04432200 -1.12013700
v -0.37189700 -1.04432200 -1.12013700
v -0.38111300 -0.62460300 -0.56526000
v -0.38111300 -0.62460300 -0.56526000
v -0.21536700 -0.44470300 -0.02966800
v -0.21536700 -0.44470300 -0.02966800
v 0.21342200 -1.02854200 -1.19299500
v 0.21342200 -1.02854200 -1.19299500
v -0.91211400 -2.19191600 -1.62294100
v -0.91211400 -2.19191600 -1.62294100
v -0.91211400 -2.19191600 -1.62294100
v -0.13982500 -1.71940400 -1.63546000
v -0.47656000 -2.76126200 -1.99205900
v -0.47656000 -2.76126200 -1.99205900
v 0.37585400 -3.83206400 -2.21158400
v 1.10113800 -4.26873600 -2.03531400
v 2.18087400 -2.92102800 0.88008300
v 2.18087400 -2.92102800 0.88008300
v -1.27828800 -5.86490400 -1.24643700
v -1.27828800 -5.86490400 -1.24643700
vn -0.94439232 0.12662326 0.30346285
vn -0.73206081 0.66326837 0.15544147
vn -0.97868886 0.00510428 0.20528533
vn -0.65944189 0.73515299 -0.15711932
vn -0.77989142 0.60595132 -0.15681956
vn -0.99020856 0.00645718 -0.13944646
vn -0.43153308 0.65997645 0.61498803
vn -0.62035763 0.68452792 0.38285499
vn -0.84809995 0.21963414 0.48216940
vn -0.70942142 0.05863398 0.70234130
vn -0.32831756 0.87021045 0.36734365
vn -0.61090597 0.76146749 0.21670522
vn -0.89837386 0.09844685 0.42805680
vn -0.71706263 -0.00951631 0.69694378
vn -0.61854313 -0.08514044 0.78112451
vn -0.73441661 -0.07662831 0.67435922
vn -0.95043937 -0.10045989 0.29423258
vn -0.69007505 0.14444200 0.70917765
vn -0.68275894 -0.09317834 0.72467788
vn -0.88234292 0.11705314 0.45581743
vn -0.79658812 0.05746410 0.60178505
vn -0.99527631 -0.05343437 0.08105451
vn -0.19687726 0.14127742 -0.97019587
vn -0.91538697 -0.00099241 -0.40257385
vn -0.95636958 0.00673940 -0.29208184
vn -0.97214957 -0.02828803 -0.23264781
vn -0.97254772 -0.06924869 0.22216110
vn -0.97143546 0.05220758 0.23148977
vn -0.90853400 0.40247185 -0.11217117
vn -0.78080514 0.59167160 -0.20066901
vn -0.96868777 -0.06064939 -0.24076056
vn -0.74660352 0.20283625 -0.63359344
vn -0.55765994 0.12713942 -0.82027493
vn -0.61334741 0.14421588 -0.77653508
vn -0.75698589 -0.59134413 -0.27800088
vn -0.83920494 0.51797527 -0.16564023
vn -0.83231818 0.22471843 0.50670314
vn -0.78573827 -0.59114136 -0.18211882
vn -0.94945696 0.30628119 -0.06872631
vn -0.69007505 0.14444200 0.70917765
vn -0.75580625 -0.65414644 -0.02914378
vn -0.82573633 0.26418931 0.49836083
vn -0.69851379 -0.68247532 -0.21518811
vn -0.79658812 0.05746410 0.60178505
vn -0.81245856 -0.56630191 0.13861181
vn -0.69007505 0.14444200 0.70917765
vn -0.46676268 0.03936064 0.88350628
vn -0.82283826 -0.56610493 -0.04962263
vn -0.16592450 0.33472020 0.92759444
vn -0.64874485 -0.75988736 0.04124713
vn -0.79658812 0.05746410 0.60178505
vn -0.56697770 -0.05655868 0.82178915
vn -0.35302848 -0.11418874 0.92861823
vn -0.09107042 -0.11860871 0.98875586
vn -0.21133174 -0.08513232 0.97369984
vn -0.16488460 -0.08414189 0.98271726
vn 0.09849271 0.00089667 0.99513737
vn 0.43529719 0.51942400 0.73533330
vn 0.56659740 0.48305406 0.66755236
vn 0.21172528 -0.03237081 0.97679299
vn -0.22936370 0.01866584 0.97316179
vn 0.12507192 0.59039008 0.79736853
vn -0.11621256 0.59032292 0.79875747
vn -0.49022656 -0.09588578 0.86630470
vn -0.63754189 -0.02052699 0.77014219
vn -0.23893093 0.63650010 0.73333460
vn 0.04155552 0.81595043 0.57662642
vn 0.06105196 0.68394009 0.72697910
vn 0.50401273 0.68233567 0.52951790
vn 0.43592274 0.57360770 0.69350239
vn -0.06771302 0.80445057 0.59014764
vn -0.09317098 0.93590047 0.33971970
vn 0.33109228 0.82140049 0.46441268
vn 0.29707278 0.69913539 0.65035180
vn -0.18266137 0.73298314 0.65526372
vn -0.31640999 0.84643164 0.42829686
vn -0.49869974 0.71119421 0.49548094
vn 0.26858404 0.94741679 0.17396560
vn 0.81154003 0.41138945 0.41492348
vn 0.67206689 0.66401736 0.32773013
vn 0.64366807 0.48901601 0.58868902
vn 0.60231508 0.79812461 -0.01461708
vn 0.15401281 0.93050855 -0.33231594
vn 0.77964866 0.62600435 -0.01632567
vn 0.89666926 0.42634387 -0.11922727
vn 0.38544651 0.73413856 -0.55899156
vn 0.70606011 0.28592219 -0.64786389
vn 0.63102254 0.59702835 -0.49534605
vn 0.58153640 0.19933783 -0.78872039
vn 0.85938818 0.05900984 -0.50790728
vn 0.13719780 0.42551710 -0.89448978
vn 0.46580808 0.46641990 -0.75198092
vn 0.20906293 0.27535582 -0.93833462
vn 0.65636694 0.28300174 -0.69935145
vn 0.52156389 0.38685282 -0.76047091
vn 0.82489751 0.35610787 -0.43901171
vn 0.77615905 0.57143257 -0.26653694
vn 0.93174886 0.26260327 -0.25076601
vn 0.82179373 0.54198771 0.17579647
vn 0.92356995 0.34981590 0.15699483
vn 0.98524063 -0.01454437 -0.17055605
vn 0.73968372 0.30811116 -0.59827711
vn 0.95729465 0.01832354 -0.28853284
vn 0.98606369 0.12955685 -0.10437158
vn 0.91669264 0.29030899 0.27458204
vn 0.98200825 0.17748022 -0.06450247
vn 0.95561108 0.08272239 0.28277989
vn 0.96978900 -0.06360280 -0.23550790
vn 0.93588991 -0.14695537 -0.32017837
vn 0.96711437 -0.05540253 0.24823448
vn 0.81538649 -0.11745313 -0.56687709
vn 0.44715635 -0.03263807 -0.89386014
vn 0.79982318 -0.11510963 -0.58909478
vn 0.58246293 -0.21558187 -0.78374830
vn 0.83613178 -0.16694713 -0.52250580
vn 0.83850267 -0.26468490 -0.47629317
vn 0.68775130 -0.22110054 -0.69145694
vn 0.17562508 -0.26177878 -0.94901407
vn 0.25326640 -0.24690747 -0.93535706
vn 0.47953391 -0.23372653 -0.84582453
vn 0.75575924 -0.24122908 -0.60879923
vn -0.21451241 -0.95210497 -0.21790031
vn 0.43557645 -0.28485236 -0.85389243
vn 0.76068999 -0.26371403 -0.59313206
vn 0.73257670 -0.33068898 -0.59495897
vn -0.19413571 -0.97703701 -0.08780660
vn -0.33289785 -0.92349100 -0.19063942
vn -0.32721858 -0.89003775 -0.31742844
vn 0.30576169 -0.23964547 -0.92145528
vn -0.46125872 -0.82963833 -0.31454831
vn 0.29961641 0.10395959 -0.94837883
vn 0.27658320 -0.26112317 -0.92483319
vn 0.09333029 -0.20045777 -0.97524671
vn -0.59065457 -0.73359489 -0.33610374
vn 0.12959072 -0.15989330 -0.97859102
vn -0.54607200 -0.81575168 -0.19066871
vn -0.37642436 -0.92643665 -0.00445353
vn -0.10616012 -0.20863988 0.97221367
vn -0.37045007 -0.92530048 0.08115274
vn -0.18061053 -0.98353948 -0.00547067
vn 0.92334970 -0.19223882 0.33236961
vn 0.76517419 -0.31842402 0.55956644
vn -0.09223921 -0.97594894 0.19752363
vn 0.47028503 -0.27427423 0.83881204
vn 0.88962123 -0.27495983 0.36465209
vn 0.39822566 -0.20511510 0.89406047
vn 0.74919206 -0.38627503 -0.53805470
vn 0.01978860 -0.99262831 -0.11957192
vn 0.99934781 -0.03548252 0.00670387
vn 0.97859121 -0.19732749 0.05849017
vn 0.92609660 -0.21717178 0.30851499
vn 0.97969093 -0.18713953 -0.07200325
vn 0.14528605 -0.18915853 0.97113903
vn 0.92710170 -0.09891647 0.36152175
vn 0.54371286 -0.07933844 0.83551286
vn 0.94171472 -0.01979144 0.33582985
vn 0.68235929 0.00544242 0.73099670
vn 0.73655300 0.06753099 0.67300018
vn 0.35830716 -0.00216495 0.93360125
vn 0.85252442 0.20805724 0.47949379
vn 0.56108289 0.23184485 0.79462818
vn 0.79936246 0.29077315 0.52580474
vn 0.16046580 -0.09185837 0.98275774
vn 0.00933833 -0.06698145 0.99771052
vn -0.26500111 -0.96415273 0.01356156
vn 0.24753587 -0.23370435 0.94027032
vn -0.06276551 -0.13253183 0.98918947
vn -0.51868167 -0.85083464 0.08396271
vn -0.18695611 -0.09130409 0.97811603
vn -0.60610414 -0.78072003 0.15203291
vn -0.30075567 -0.02338109 0.95341458
vn -0.69694402 -0.62758064 -0.34700371
vn -0.55583148 0.17922118 -0.81174573
vn 0.04413909 -0.18501648 -0.98174368
vn -0.22745782 -0.06762432 -0.97143702
vn -0.19653739 -0.19002697 -0.96190582
vn -0.54944707 -0.09763021 -0.82980495
vn -0.80751829 -0.09317942 -0.58243610
vn 0.06775292 0.26009341 -0.96320349
vn -0.94438150 0.02548195 -0.32786317
vn -0.29463074 -0.46488155 -0.83491189
vn -0.84927165 -0.04897306 -0.52567985
vn 0.05744464 -0.27606897 -0.95941964
vn 0.07991778 0.26337355 -0.96137793
vn -0.36697954 -0.41829287 -0.83087730
vn -0.51856520 0.06200845 -0.85278666
vn -0.83894078 -0.04526580 -0.54233695
vn -0.72433286 0.56505656 -0.39503543
vn -0.85798563 -0.10026776 -0.50379264
vn -0.58058835 0.50660046 -0.63739560
vn -0.70876142 -0.06987945 -0.70197871
vn -0.54520694 0.61174406 -0.57316542
vn -0.09625116 0.79306363 -0.60148632
vn -0.41409518 0.65179939 -0.63536032
vn -0.19139705 0.55313343 -0.81080860
vn -0.50087604 0.80738835 -0.31184491
vn -0.11844516 0.86963333 -0.47927927
vn -0.50159699 0.86230226 -0.06953608
vn -0.11605074 0.99305582 0.01929661
vn -0.01117741 0.54333745 -0.83943998
vn 0.11671956 0.71846351 -0.68570163
vn -0.70362043 -0.08056543 -0.70599398
vn -0.27320538 0.42365397 -0.86364120
vn -0.44700132 0.49943955 -0.74212530
vn -0.08060651 0.44888357 -0.88994726
vn -0.75085395 -0.03246801 -0.65966975
vn 0.00092892 0.30752449 -0.95153971
vn 0.17971231 0.07291124 -0.98101347
vn 0.35763651 -0.01436459 -0.93375039
vn 0.98568021 0.14307729 -0.08923790
vn 0.81710399 0.41767976 0.39734706
vn -0.78363242 0.09603899 -0.61375626
vn -0.45717225 0.07095566 -0.88654319
vt 0.03922300 0.93945500
vt 0.03922300 0.93945500
vt 0.03964900 0.94536500
vt 0.04627300 0.93388700
vt 0.04409200 0.94150000
vt 0.04409200 0.94150000
vt 0.87514200 0.06299400
vt 0.03512600 0.93717100
vt 0.03512600 0.93717100
vt 0.87514200 0.06299400
vt 0.97023900 0.66743700
vt 0.04152500 0.93162500
vt 0.03592500 0.94091700
vt 0.87273500 0.06523000
vt 0.86698800 0.06268900
vt 0.85596600 0.06914300
vt 0.03638600 0.95804800
vt 0.67235200 0.97861200
vt 0.84579100 0.06970800
vt 0.03512600 0.96678300
vt 0.27275400 0.98107100
vt 0.03952500 0.95453400
vt 0.83899600 0.90293900
vt 0.04877400 0.95541000
vt 0.04441500 0.96100800
vt 0.04258700 0.95003200
vt 0.03763900 0.96180400
vt 0.04019200 0.96609400
vt 0.04019200 0.96609400
vt 0.04761800 0.96686200
vt 0.04761800 0.96686200
vt 0.04761800 0.96686200
vt 0.83828300 0.89106700
vt 0.84020700 0.88839100
vt 0.96043100 0.96219600
vt 0.04577900 0.96951200
vt 0.04007800 0.96967100
vt 0.96070700 0.95689200
vt 0.04007800 0.96967100
vt 0.66957900 0.97599400
vt 0.95849700 0.95314300
vt 0.03545200 0.97093000
vt 0.95571400 0.96035400
vt 0.26933100 0.98541900
vt 0.95417600 0.94973800
vt 0.67235200 0.97180600
vt 0.83901700 0.06905400
vt 0.95347100 0.94944000
vt 0.83736300 0.06877500
vt 0.95214800 0.95269100
vt 0.26933100 0.97180600
vt 0.85161300 0.06435500
vt 0.85774200 0.05651300
vt 0.85925000 0.05192300
vt 0.84777700 0.05884300
vt 0.86420900 0.05319000
vt 0.86521200 0.04922100
vt 0.86521200 0.04922100
vt 0.86274500 0.04700600
vt 0.86274500 0.04700600
vt 0.86814700 0.05329900
vt 0.86814700 0.05329900
vt 0.87058300 0.05777800
vt 0.87058300 0.05777800
vt 0.87271600 0.05968600
vt 0.87271600 0.05968600
vt 0.97385400 0.65806200
vt 0.87587200 0.05176500
vt 0.97864200 0.65545100
vt 0.87283100 0.04724000
vt 0.88159200 0.05193500
vt 0.97434600 0.66490600
vt 0.97720500 0.66085200
vt 0.87875800 0.04833600
vt 0.87852100 0.05613100
vt 0.97064300 0.66261000
vt 0.03771800 0.93097000
vt 0.97787000 0.66506400
vt 0.80606000 0.87674200
vt 0.98296500 0.65773000
vt 0.87373600 0.04374100
vt 0.98200500 0.66474500
vt 0.97933200 0.66983000
vt 0.98634400 0.66280800
vt 0.79995400 0.87567500
vt 0.98292900 0.67104400
vt 0.79364100 0.87604500
vt 0.98791900 0.66905700
vt 0.81650400 0.90869400
vt 0.78985100 0.89111000
vt 0.82669700 0.92225800
vt 0.98652400 0.67432200
vt 0.82490700 0.91720700
vt 0.78695400 0.88308900
vt 0.99073300 0.67555800
vt 0.79539000 0.87782300
vt 0.98968000 0.66640700
vt 0.79677800 0.88174700
vt 0.98867300 0.65784600
vt 0.80372500 0.88046200
vt 0.79296800 0.88922200
vt 0.79296800 0.88922200
vt 0.79415100 0.89280600
vt 0.79874200 0.88874900
vt 0.80864800 0.88820600
vt 0.80323800 0.89382900
vt 0.80748400 0.89773300
vt 0.80013300 0.90527200
vt 0.79965100 0.91057300
vt 0.80566300 0.90858600
vt 0.79112100 0.90008700
vt 0.81812300 0.90517400
vt 0.78695400 0.89507600
vt 0.81320500 0.88981100
vt 0.79437700 0.90948600
vt 0.79878100 0.92222000
vt 0.78749900 0.90191500
vt 0.81877100 0.89833400
vt 0.82068200 0.88898800
vt 0.81561900 0.88249700
vt 0.79261100 0.91714500
vt 0.93711200 0.96446200
vt 0.81584200 0.87567500
vt 0.79403100 0.92384200
vt 0.79784200 0.92471500
vt 0.93431300 0.96127700
vt 0.94280900 0.96178400
vt 0.94182500 0.96661800
vt 0.82054400 0.87759600
vt 0.94728900 0.96694600
vt 0.82614200 0.87981600
vt 0.81942200 0.88316400
vt 0.82847000 0.88639200
vt 0.95131600 0.96694600
vt 0.83033100 0.88211800
vt 0.95028400 0.96076500
vt 0.94387100 0.95600000
vt 0.82945300 0.06040700
vt 0.94338700 0.94961800
vt 0.93179800 0.95507800
vt 0.80457700 0.92540900
vt 0.80669700 0.92518400
vt 0.93300000 0.95270000
vt 0.82505900 0.05058600
vt 0.80779400 0.92091600
vt 0.82864700 0.04843600
vt 0.80191800 0.92488800
vt 0.93139500 0.95773700
vt 0.80191800 0.92488800
vt 0.80356500 0.92208800
vt 0.80623200 0.91765800
vt 0.80341500 0.91679000
vt 0.83425700 0.04618900
vt 0.80965600 0.91460100
vt 0.83985000 0.04621900
vt 0.80983800 0.90627600
vt 0.84213200 0.04374100
vt 0.81278400 0.90021200
vt 0.84882400 0.04566900
vt 0.81069100 0.88928000
vt 0.86098400 0.04393300
vt 0.81320500 0.88803100
vt 0.84178700 0.04890700
vt 0.84789200 0.05018700
vt 0.93561200 0.95066500
vt 0.82588300 0.05323300
vt 0.83462300 0.05449000
vt 0.94802500 0.94891200
vt 0.83260900 0.06443200
vt 0.95036200 0.94881400
vt 0.83454700 0.06634900
vt 0.95670100 0.96665500
vt 0.83607600 0.88697500
vt 0.83607600 0.88697500
vt 0.83300400 0.89267400
vt 0.83005300 0.90028000
vt 0.83293100 0.90289100
vt 0.05345200 0.95529200
vt 0.83247300 0.90993600
vt 0.05854100 0.94982400
vt 0.83247300 0.90993600
vt 0.05532200 0.95023200
vt 0.83015500 0.90920000
vt 0.83015500 0.90920000
vt 0.83015500 0.90920000
vt 0.84020700 0.91012500
vt 0.04826100 0.94827900
vt 0.04871000 0.94221000
vt 0.04871000 0.94221000
vt 0.05221500 0.94117100
vt 0.05221500 0.94117100
vt 0.05142000 0.93592300
vt 0.97889400 0.67555800
vt 0.05305600 0.93333000
vt 0.83348200 0.92448200
vt 0.04972500 0.93032800
vt 0.97618700 0.67246700
vt 0.04653600 0.92826200
vt 0.97501000 0.66887500
vt 0.82964100 0.92509100
vt 0.98223900 0.67411600
vt 0.05501800 0.94164500
vt 0.83640100 0.91789800
vt 0.05501800 0.94164500
vt 0.83160900 0.92126700
vt 0.05747500 0.94421700
vt 0.83322500 0.91528900
vt 0.82694400 0.90986100
vt 0.82183800 0.90762100
vt 0.80540300 0.88468700
vt 0.80540300 0.88468700
vt 0.04979100 0.96249600
vt 0.83636900 0.89555100
f 1/1/1 3/3/3 13/13/13
f 1/1/1 6/6/6 3/3/3
f 12/12/12 4/4/4 2/2/2
f 2/2/2 4/4/4 5/5/5
f 8/8/8 12/12/12 2/2/2
f 1/1/1 13/13/13 9/9/9
f 65/65/65 14/14/14 15/15/15
f 15/15/15 16/16/16 19/19/19
f 13/13/13 22/22/22 17/17/17
f 17/17/17 27/27/27 20/20/20
f 26/26/26 24/24/24 22/22/22
f 22/22/22 24/24/24 25/25/25
f 22/22/22 25/25/25 27/27/27
f 26/26/26 3/3/3 6/6/6
f 27/27/27 28/28/28 20/20/20
f 27/27/27 25/25/25 28/28/28
f 25/25/25 31/31/31 28/28/28
f 30/30/30 36/36/36 29/29/29
f 39/39/39 29/29/29 36/36/36
f 20/20/20 37/37/37 42/42/42
f 43/43/43 38/38/38 35/35/35
f 18/18/18 40/40/40 46/46/46
f 50/50/50 41/41/41 43/43/43
f 48/48/48 50/50/50 170/170/170
f 47/47/47 171/171/171 53/53/53
f 44/44/44 51/51/51 21/21/21
f 64/64/64 15/15/15 53/53/53
f 53/53/53 54/54/54 56/56/56
f 53/53/53 164/164/164 54/54/54
f 61/61/61 56/56/56 57/57/57
f 56/56/56 60/60/60 57/57/57
f 54/54/54 60/60/60 56/56/56
f 64/64/64 56/56/56 61/61/61
f 66/66/66 68/68/68 75/75/75
f 62/62/62 68/68/68 63/63/63
f 62/62/62 70/70/70 68/68/68
f 70/70/70 74/74/74 68/68/68
f 68/68/68 71/71/71 75/75/75
f 67/67/67 73/73/73 72/72/72
f 72/72/72 11/11/11 76/76/76
f 12/12/12 8/8/8 77/77/77
f 7/7/7 66/66/66 75/75/75
f 72/72/72 73/73/73 78/78/78
f 73/73/73 82/82/82 78/78/78
f 73/73/73 80/80/80 82/82/82
f 69/69/69 80/80/80 73/73/73
f 84/84/84 82/82/82 80/80/80
f 83/83/83 82/82/82 86/86/86
f 78/78/78 82/82/82 83/83/83
f 84/84/84 88/88/88 82/82/82
f 86/86/86 82/82/82 88/88/88
f 92/92/92 86/86/86 88/88/88
f 90/90/90 96/96/96 98/98/98
f 90/90/90 94/94/94 87/87/87
f 92/92/92 88/88/88 95/95/95
f 98/98/98 96/96/96 85/85/85
f 85/85/85 100/100/100 98/98/98
f 98/98/98 100/100/100 101/101/101
f 103/103/103 90/90/90 101/101/101
f 210/210/210 104/104/104 101/101/101
f 104/104/104 103/103/103 101/101/101
f 106/106/106 104/104/104 105/105/105
f 103/103/103 106/106/106 108/108/108
f 160/160/160 106/106/106 105/105/105
f 108/108/108 107/107/107 110/110/110
f 111/111/111 103/103/103 108/108/108
f 109/109/109 115/115/115 108/108/108
f 108/108/108 110/110/110 109/109/109
f 113/113/113 90/90/90 111/111/111
f 117/117/117 111/111/111 115/115/115
f 121/121/121 116/116/116 125/125/125
f 114/114/114 119/119/119 118/118/118
f 120/120/120 119/119/119 114/114/114
f 132/132/132 120/120/120 123/123/123
f 122/122/122 126/126/126 127/127/127
f 127/127/127 128/128/128 122/122/122
f 127/127/127 130/130/130 128/128/128
f 135/135/135 175/175/175 133/133/133
f 133/133/133 119/119/119 132/132/132
f 134/134/134 136/136/136 43/43/43
f 136/136/136 50/50/50 43/43/43
f 137/137/137 50/50/50 136/136/136
f 127/127/127 137/137/137 136/136/136
f 168/168/168 137/137/137 139/139/139
f 140/140/140 165/165/165 139/139/139
f 137/137/137 126/126/126 140/140/140
f 142/142/142 141/141/141 145/145/145
f 150/150/150 141/141/141 149/149/149
f 126/126/126 148/148/148 140/140/140
f 116/116/116 147/147/147 125/125/125
f 150/150/150 149/149/149 116/116/116
f 150/150/150 116/116/116 152/152/152
f 151/151/151 145/145/145 150/150/150
f 150/150/150 152/152/152 151/151/151
f 109/109/109 152/152/152 116/116/116
f 151/151/151 152/152/152 110/110/110
f 152/152/152 109/109/109 110/110/110
f 151/151/151 154/154/154 145/145/145
f 151/151/151 107/107/107 156/156/156
f 166/166/166 146/146/146 155/155/155
f 155/155/155 157/157/157 159/159/159
f 160/160/160 158/158/158 156/156/156
f 160/160/160 156/156/156 107/107/107
f 160/160/160 211/211/211 79/79/79
f 70/70/70 59/59/59 161/161/161
f 159/159/159 161/161/161 60/60/60
f 81/81/81 70/70/70 161/161/161
f 159/159/159 163/163/163 155/155/155
f 159/159/159 164/164/164 163/163/163
f 55/55/55 163/163/163 164/164/164
f 163/163/163 171/171/171 169/169/169
f 167/167/167 166/166/166 163/163/163
f 138/138/138 167/167/167 169/169/169
f 168/168/168 170/170/170 50/50/50
f 164/164/164 60/60/60 54/54/54
f 43/43/43 172/172/172 134/134/134
f 33/33/33 173/173/173 34/34/34
f 175/175/175 173/173/173 33/33/33
f 177/177/177 176/176/176 175/175/175
f 175/175/175 213/213/213 186/186/186
f 176/176/176 177/177/177 185/185/185
f 185/185/185 177/177/177 181/181/181
f 180/180/180 178/178/178 182/182/182
f 191/191/191 182/182/182 187/187/187
f 6/6/6 187/187/187 26/26/26
f 26/26/26 187/187/187 24/24/24
f 4/4/4 188/188/188 5/5/5
f 192/192/192 190/190/190 188/188/188
f 188/188/188 4/4/4 192/192/192
f 194/194/194 192/192/192 196/196/196
f 192/192/192 204/204/204 190/190/190
f 196/196/196 192/192/192 4/4/4
f 199/199/199 83/83/83 197/197/197
f 201/201/201 197/197/197 83/83/83
f 198/198/198 196/196/196 4/4/4
f 199/199/199 72/72/72 78/78/78
f 199/199/199 78/78/78 83/83/83
f 198/198/198 4/4/4 12/12/12
f 199/199/199 11/11/11 72/72/72
f 205/205/205 195/195/195 200/200/200
f 195/195/195 205/205/205 203/203/203
f 205/205/205 207/207/207 203/203/203
f 205/205/205 200/200/200 91/91/91
f 93/93/93 205/205/205 91/91/91
f 207/207/207 93/93/93 184/184/184
f 180/180/180 182/182/182 206/206/206
f 201/201/201 86/86/86 92/92/92
f 201/201/201 83/83/83 86/86/86
f 118/118/118 176/176/176 183/183/183
f 209/209/209 183/183/183 208/208/208
f 93/93/93 209/209/209 208/208/208
f 209/209/209 89/89/89 112/112/112
f 209/209/209 112/112/112 118/118/118
f 99/99/99 84/84/84 80/80/80
f 25/25/25 212/212/212 32/32/32
f 25/25/25 24/24/24 212/212/212
f 65/65/65 10/10/10 14/14/14
f 19/19/19 52/52/52 15/15/15
f 15/15/15 14/14/14 16/16/16
f 13/13/13 3/3/3 22/22/22
f 17/17/17 22/22/22 27/27/27
f 26/26/26 22/22/22 3/3/3
f 20/20/20 28/28/28 37/37/37
f 43/43/43 41/41/41 38/38/38
f 50/50/50 45/45/45 41/41/41
f 48/48/48 45/45/45 50/50/50
f 53/53/53 52/52/52 47/47/47
f 47/47/47 49/49/49 171/171/171
f 171/171/171 55/55/55 53/53/53
f 53/53/53 56/56/56 64/64/64
f 64/64/64 65/65/65 15/15/15
f 15/15/15 52/52/52 53/53/53
f 53/53/53 55/55/55 164/164/164
f 66/66/66 63/63/63 68/68/68
f 62/62/62 58/58/58 70/70/70
f 84/84/84 97/97/97 88/88/88
f 98/98/98 102/102/102 90/90/90
f 90/90/90 87/87/87 96/96/96
f 101/101/101 100/100/100 210/210/210
f 210/210/210 105/105/105 104/104/104
f 103/103/103 104/104/104 106/106/106
f 160/160/160 107/107/107 106/106/106
f 108/108/108 106/106/106 107/107/107
f 111/111/111 90/90/90 103/103/103
f 109/109/109 116/116/116 115/115/115
f 115/115/115 111/111/111 108/108/108
f 117/117/117 113/113/113 111/111/111
f 125/125/125 124/124/124 121/121/121
f 121/121/121 115/115/115 116/116/116
f 123/123/123 129/129/129 132/132/132
f 132/132/132 119/119/119 120/120/120
f 127/127/127 136/136/136 130/130/130
f 129/129/129 131/131/131 135/135/135
f 135/135/135 174/174/174 175/175/175
f 175/175/175 176/176/176 118/118/118
f 118/118/118 119/119/119 133/133/133
f 133/133/133 132/132/132 129/129/129
f 175/175/175 118/118/118 133/133/133
f 133/133/133 129/129/129 135/135/135
f 134/134/134 130/130/130 136/136/136
f 168/168/168 50/50/50 137/137/137
f 139/139/139 137/137/137 140/140/140
f 140/140/140 143/143/143 165/165/165
f 137/137/137 127/127/127 126/126/126
f 150/150/150 145/145/145 141/141/141
f 156/156/156 154/154/154 151/151/151
f 151/151/151 110/110/110 107/107/107
f 155/155/155 163/163/163 166/166/166
f 166/166/166 144/144/144 146/146/146
f 146/146/146 153/153/153 155/155/155
f 155/155/155 153/153/153 157/157/157
f 160/160/160 162/162/162 158/158/158
f 79/79/79 162/162/162 160/160/160
f 160/160/160 105/105/105 211/211/211
f 211/211/211 100/100/100 79/79/79
f 70/70/70 58/58/58 59/59/59
f 159/159/159 60/60/60 164/164/164
f 169/169/169 167/167/167 163/163/163
f 163/163/163 55/55/55 171/171/171
f 138/138/138 166/166/166 167/167/167
f 43/43/43 35/35/35 172/172/172
f 186/186/186 177/177/177 175/175/175
f 175/175/175 33/33/33 213/213/213
f 213/213/213 23/23/23 186/186/186
f 187/187/187 189/189/189 191/191/191
f 191/191/191 202/202/202 206/206/206
f 182/182/182 178/178/178 187/187/187
f 191/191/191 206/206/206 182/182/182
f 6/6/6 189/189/189 187/187/187
f 192/192/192 194/194/194 204/204/204
f 201/201/201 193/193/193 197/197/197
f 184/184/184 179/179/179 207/207/207
f 207/207/207 205/205/205 93/93/93
f 93/93/93 208/208/208 184/184/184
f 209/209/209 118/118/118 183/183/183
f 209/209/209 93/93/93 89/89/89

