# ('FARMS composite mesh',)
mtllib link_body_36_composite.mtl

o link_body_36
usemtl link_body_36_composite
v 1.57859700 0.39687500 2.57609200
v 2.05471700 0.39789400 2.31227800
v 2.05471700 0.39789400 2.31227800
v 1.55698300 0.17467800 3.17590600
v 1.55698300 0.17467800 3.17590600
v -3.20060600 1.21750300 -0.80357300
v -2.47009200 0.13940600 4.23877800
v -2.47009200 0.13940600 4.23877800
v -2.47009200 0.13940600 4.23877800
v -2.66202400 0.25120400 4.04324500
v -2.66202400 0.25120400 4.04324500
v -3.55706600 0.60764000 2.86845900
v -3.55706600 0.60764000 2.86845900
v -0.37295500 0.09256800 3.76297700
v -0.37295500 0.09256800 3.76297700
v -0.33055900 -0.09321200 3.75136900
v -0.33055900 -0.09321200 3.75136900
v -2.43814000 -0.00000000 4.28184600
v -2.43814000 -0.00000000 4.28184600
v -2.47009200 -0.13940800 4.23877800
v -2.47009200 -0.13940800 4.23877800
v -2.47009200 -0.13940800 4.23877800
v -3.01203000 0.32748500 3.71169400
v -3.01203000 0.32748500 3.71169400
v -3.01203000 0.32748500 3.71169400
v -2.66202400 -0.25120500 4.04324400
v -2.66202400 -0.25120500 4.04324400
v -3.02987500 -0.36388300 3.67183700
v -3.02987500 -0.36388300 3.67183700
v -3.02987500 -0.36388300 3.67183700
v 1.57859700 -0.39687400 2.57609200
v -3.55706600 -0.60764100 2.86846000
v -3.55706600 -0.60764100 2.86846000
v -3.93408000 -0.79203800 1.98256700
v -3.93408000 -0.79203800 1.98256700
v -3.20060500 -1.21750500 -0.80357300
v -3.59790600 -0.00000100 2.88495400
v -3.99780800 0.00000100 1.98719600
v -4.24406200 0.00000000 1.01306500
v -3.93408000 0.79203700 1.98256700
v -3.93408000 0.79203700 1.98256700
v -4.16663900 0.95844400 1.00754300
v -4.16663900 0.95844400 1.00754300
v -4.22407300 1.11607000 0.02596200
v -4.22407300 1.11607000 0.02596200
v -4.32721500 -0.00000100 -0.00000000
v -4.24406200 0.00000000 -1.01306600
v -4.22291300 -1.11573200 0.03229200
v -4.22291300 -1.11573200 0.03229200
v -4.11170000 -1.25451400 -0.98883900
v -4.11170000 -1.25451400 -0.98883900
v -4.16663900 -0.95844600 1.00754500
v -4.16663900 -0.95844600 1.00754500
v -3.77792100 -1.24904100 -2.12999900
v -3.77792100 -1.24904100 -2.12999900
v -3.92098800 -0.93591900 -1.98719700
v -3.46175900 -1.02299700 -2.92898000
v -3.46175900 -1.02299700 -2.92898000
v -3.99780800 0.00000000 -1.98719700
v -3.59790600 -0.00000100 -2.88495500
v -3.46586400 1.02457800 -2.92363000
v -3.46586400 1.02457800 -2.92363000
v -3.05974400 -0.00000100 -3.67183800
v -3.05974400 -0.00000100 -3.67183800
v -3.01492900 0.68968800 -3.65736200
v -3.01492900 0.68968800 -3.65736200
v -3.01492900 0.68968800 -3.65736200
v -3.01492900 -0.68968800 -3.65736300
v -3.01492900 -0.68968800 -3.65736300
v -3.01492900 -0.68968800 -3.65736300
v -2.37288500 -0.35396100 -4.31916400
v -2.37288500 -0.35396100 -4.31916400
v 1.62075700 -0.09525800 -5.02849500
v 1.62075700 -0.09525800 -5.02849500
v 3.19763000 -0.09227400 -5.05857900
v 3.19763000 -0.09227400 -5.05857900
v 3.19763000 -0.09227400 -5.05857900
v 1.54544000 0.08914900 -5.03083300
v 1.54544000 0.08914900 -5.03083300
v -1.85628400 -0.12313100 -4.66365700
v -1.85628400 -0.12313100 -4.66365700
v -1.82334800 0.09231000 -4.68786300
v -1.82334800 0.09231000 -4.68786300
v -2.37539500 0.34546000 -4.32795200
v -2.37539500 0.34546000 -4.32795200
v 3.19103100 0.09648100 -5.05497900
v 3.19103100 0.09648100 -5.05497900
v 3.19103100 0.09648100 -5.05497900
v 2.61746900 0.18804700 -4.84849600
v 2.61746900 0.18804700 -4.84849600
v 2.03475900 0.33202400 -4.47932000
v 2.03475900 0.33202400 -4.47932000
v 2.31673300 -0.25659100 -4.68257000
v 2.31673300 -0.25659100 -4.68257000
v 1.56375100 -0.50865000 -3.98797600
v 1.56375100 -0.50865000 -3.98797600
v 1.56375100 -0.50865000 -3.98797600
v 0.94921800 -0.62233900 -3.00585000
v 0.94921800 -0.62233900 -3.00585000
v -2.55796700 -1.18948100 -2.02873000
v 1.07764400 0.00000000 -3.34300300
v 1.49977800 0.00000000 -3.96025600
v 1.49977800 0.00000000 -3.96025600
v 1.56504800 0.50897100 -3.98708200
v 1.56504800 0.50897100 -3.98708200
v 1.56504800 0.50897100 -3.98708200
v 0.94921800 0.62233900 -3.00585000
v 0.94921800 0.62233900 -3.00585000
v -2.55796700 1.18948000 -2.02873000
v -3.77741800 1.24910800 -2.13105800
v -3.77741800 1.24910800 -2.13105800
v -3.92098800 0.93592000 -1.98719700
v -4.10188100 1.25681900 -1.05006900
v -4.10188100 1.25681900 -1.05006900
v 0.82151700 0.69634200 0.48001400
v 0.82151700 0.69634200 0.48001400
v 0.57431000 0.72546200 -0.55899600
v 0.57431000 0.72546200 -0.55899600
v 0.62760900 0.69211600 -1.87466100
v 0.62760900 0.69211600 -1.87466100
v 0.57080800 0.00000100 -1.87466100
v 0.50558400 0.00000000 -1.08000000
v 0.76396900 0.00000100 -2.63878400
v 0.62760900 -0.69211600 -1.87466100
v 0.62760900 -0.69211600 -1.87466100
v 0.57431000 -0.72546300 -0.55899700
v 0.57431000 -0.72546300 -0.55899700
v 0.81986900 -0.69629900 0.47587600
v 0.81986900 -0.69629900 0.47587600
v 0.57080800 0.00000100 -0.28533900
v 0.76396900 0.00000100 0.47878300
v 1.07764400 0.00000000 1.18300300
v 1.12667800 0.59744700 1.18300300
v 1.12667800 0.59744700 1.18300300
v 1.54066400 0.49805500 1.80025900
v 1.54066400 0.49805500 1.80025900
v 1.54066400 0.49805500 1.80025900
v 2.02653400 -0.40130200 2.30468500
v 2.02653400 -0.40130200 2.30468500
v 1.49977800 0.00000000 1.80025600
v 1.49977800 0.00000000 1.80025600
v 1.36925400 -0.53328100 1.60876200
v 1.36925400 -0.53328100 1.60876200
v 1.36925400 -0.53328100 1.60876200
v 2.56157500 -0.16975300 2.64919800
v 2.56157500 -0.16975300 2.64919800
v 2.56157500 -0.16975300 2.64919800
v 2.56983800 0.16011600 2.65911800
v 2.56983800 0.16011600 2.65911800
v 2.56983800 0.16011600 2.65911800
v 1.56867900 -0.17344400 3.17061500
v 1.56867900 -0.17344400 3.17061500
vn 0.10994908 0.95919099 0.26050690
vn 0.14748166 0.95331353 0.26351939
vn 0.64337339 -0.01541616 -0.76539730
vn 0.11209770 0.93049645 0.34872693
vn 0.37356574 -0.00119989 0.92760293
vn 0.05803724 0.99484921 0.08310667
vn 0.21569611 0.33301880 0.91791811
vn 0.11095903 0.90515141 0.41035231
vn -0.69417882 0.06243084 0.71709006
vn -0.67538083 0.09295447 0.73158745
vn 0.06001500 0.94507128 0.32130745
vn 0.04879875 0.97771143 0.20420342
vn -0.87852188 0.07270900 0.47213632
vn 0.26382825 0.00730713 0.96454199
vn 0.11128218 0.90319724 0.41454918
vn 0.27073384 -0.00588520 0.96263625
vn 0.11087938 -0.90367996 0.41360403
vn 0.22945589 -0.00021291 0.97331904
vn -0.70117255 -0.00206847 0.71298862
vn 0.21626695 -0.33309484 0.91775620
vn 0.11090758 -0.90521105 0.41023464
vn -0.69418165 -0.06242851 0.71708753
vn -0.70452839 -0.00657526 0.70964534
vn -0.81857766 0.01486477 0.57420350
vn -0.21842518 0.87506677 0.43191271
vn 0.07300803 -0.94694483 0.31299410
vn -0.70912743 -0.03013043 0.70443626
vn -0.81723432 -0.03132869 0.57545337
vn -0.00010089 -0.95690332 0.29040666
vn -0.70689712 -0.02250994 0.70695810
vn 0.11434120 -0.95805790 0.26277584
vn -0.87711026 -0.07267831 0.47475832
vn 0.05501273 -0.97835002 0.19951151
vn 0.07191636 -0.98298158 0.16904214
vn -0.94517744 -0.07797936 0.31711013
vn 0.05875729 -0.99483617 0.08275614
vn -0.87288678 -0.00080712 0.48792214
vn -0.94554511 0.00000024 0.32549109
vn -0.98653438 0.00000021 0.16355404
vn -0.94517738 0.07797975 0.31711019
vn 0.07191675 0.98298160 0.16904187
vn 0.03420451 0.98662624 0.15936974
vn -0.98475804 0.08319137 0.15274423
vn 0.02360887 0.98840597 0.14998750
vn -0.99515809 0.09703689 -0.01562761
vn -0.99998460 -0.00210054 -0.00513704
vn -0.98684655 0.00081847 -0.16165769
vn -0.99545001 -0.09357754 -0.01795897
vn 0.02580924 -0.98806339 0.15187042
vn 0.02601972 -0.99712068 0.07122731
vn -0.97885491 -0.12381707 -0.16282629
vn 0.03442586 -0.98660009 0.15948391
vn -0.98477268 -0.08338869 0.15254210
vn 0.04802434 -0.99403505 -0.09791825
vn -0.89963611 -0.24676439 -0.36022520
vn -0.93147474 -0.16920158 -0.32206464
vn 0.03169264 -0.95384806 -0.29861255
vn -0.87053495 -0.10859043 -0.47997606
vn -0.94534647 0.00669134 -0.32599889
vn -0.87593588 0.00340087 -0.48241556
vn 0.03181041 0.95379000 -0.29878544
vn -0.87410570 0.10273341 -0.47474738
vn -0.70139393 -0.00237755 -0.71276988
vn -0.82542048 0.00000029 -0.56451841
vn -0.70658145 0.06071049 -0.70502261
vn -0.01050943 0.90291646 -0.42968758
vn -0.82738063 0.07617417 -0.55645196
vn -0.82749369 -0.07650891 -0.55623788
vn -0.01143992 -0.90273607 -0.43004270
vn -0.70092324 -0.06046049 -0.71066950
vn -0.03224031 -0.86678128 -0.49764523
vn -0.64093561 -0.02282775 -0.76725513
vn -0.00868200 -0.90496958 -0.42538768
vn -0.05026701 -0.03399446 -0.99815710
vn 0.35201588 0.02737420 0.93559365
vn -0.00472630 -0.91079396 -0.41283413
vn -0.01506224 0.01572972 -0.99976282
vn -0.07006189 -0.03990238 -0.99674427
vn -0.01265487 0.90021024 -0.43527162
vn -0.05816406 -0.78681930 -0.61443660
vn -0.38388880 -0.04493609 -0.92228528
vn -0.06425187 0.76720274 -0.63817839
vn -0.33816209 -0.05397972 -0.93953850
vn -0.03433333 0.86194678 -0.50583492
vn -0.64234034 0.00441776 -0.76640679
vn 0.33784629 -0.00613920 0.94118128
vn -0.01140177 0.90326224 -0.42893743
vn -0.01475168 0.01855126 -0.99971908
vn -0.01693162 0.89633647 -0.44305107
vn 0.42871371 0.03565470 0.90273656
vn 0.02741673 0.94564678 -0.32403779
vn 0.64514691 0.00825425 0.76401396
vn 0.00422491 -0.92133483 -0.38874706
vn 0.55323201 0.03083163 0.83245646
vn 0.82879880 0.09226957 0.55188664
vn 0.67402674 0.05299557 0.73680352
vn 0.05427978 -0.96467147 -0.25780352
vn 0.90951323 0.08872371 0.40609579
vn 0.15492261 -0.98777579 -0.01726185
vn 0.08922508 -0.99289201 -0.07876770
vn 0.86508713 -0.00046059 0.50162142
vn 0.82542907 -0.00151361 0.56450382
vn 0.69304311 0.01020658 0.72082388
vn 0.82830931 -0.09433638 0.55227198
vn 0.05444955 0.96470860 -0.25762872
vn 0.71253331 -0.05450562 0.69951799
vn 0.15504192 0.98776459 -0.01682608
vn 0.90931210 -0.08897565 0.40649088
vn 0.08931267 0.99290376 -0.07851989
vn 0.04867742 0.99397728 -0.09818186
vn -0.89920273 0.24600725 -0.36182161
vn -0.93283221 0.15956586 -0.32305232
vn 0.02564287 0.99753307 0.06534684
vn -0.97690511 0.12228067 -0.17522514
vn 0.94496136 -0.07753291 -0.31786268
vn 0.11052334 0.99146259 0.06918477
vn 0.99093565 -0.08328449 -0.10540507
vn 0.15191583 0.98832381 -0.01173165
vn 0.15507421 0.98774360 -0.01773611
vn 0.98195853 -0.09997621 0.16050608
vn 0.98657475 -0.00000015 0.16331033
vn 0.99989695 -0.00000004 0.01435600
vn 0.94976491 -0.00000016 0.31296423
vn 0.98195854 0.09997599 0.16050615
vn 0.15507453 -0.98774354 -0.01773641
vn 0.15183235 -0.98833879 -0.01154904
vn 0.99096239 0.08311684 -0.10528595
vn 0.11094720 -0.99149352 0.06805383
vn 0.94118489 0.08797088 -0.32623936
vn 0.98323980 -0.00000004 -0.18231702
vn 0.94663479 -0.00010080 -0.32230818
vn 0.87820030 0.00540118 -0.47826254
vn 0.09887471 0.99066588 0.09383450
vn 0.87328801 -0.07162405 -0.48191082
vn 0.82354008 -0.06759696 -0.56321611
vn 0.68706486 -0.03585153 -0.72571106
vn 0.09804610 0.99061974 0.09518140
vn 0.64319927 0.00225056 -0.76569552
vn 0.14398525 -0.95568326 0.25678349
vn 0.82479910 -0.03909109 -0.56407299
vn 0.69122635 -0.00102599 -0.72263759
vn 0.09805425 -0.99061499 0.09522244
vn 0.85547086 0.05684948 -0.51472103
vn 0.71815422 0.07274069 -0.69207175
vn 0.46470767 -0.03824393 0.88463788
vn 0.53769911 0.01188374 -0.84305305
vn 0.18136467 -0.92320366 0.33882422
vn 0.54746241 -0.00149395 -0.83682894
vn 0.46281925 -0.03060337 0.88592425
vn 0.19026015 0.91835841 0.34701427
vn 0.37871816 -0.00507899 0.92549811
vn 0.11350534 -0.93019316 0.34908054
vt 0.27921700 0.91172700
vt 0.27803100 0.91484300
vt 0.61535200 0.97568800
vt 0.28259000 0.91166000
vt 0.96180600 0.46205000
vt 0.25762600 0.88234000
vt 0.93503500 0.46117300
vt 0.28619900 0.88601500
vt 0.93503500 0.46117300
vt 0.93375000 0.46177000
vt 0.28497300 0.88472400
vt 0.27787000 0.87915600
vt 0.44106900 0.93285900
vt 0.94898300 0.46126600
vt 0.28477200 0.89944500
vt 0.94928900 0.46024400
vt 0.12924400 0.89953500
vt 0.93526500 0.46040500
vt 0.93526500 0.46040500
vt 0.93507200 0.45963000
vt 0.12779900 0.88516500
vt 0.93507200 0.45963000
vt 0.93142200 0.46215200
vt 0.44144900 0.92830400
vt 0.28292300 0.88259000
vt 0.12900600 0.88401500
vt 0.93381600 0.45898900
vt 0.43787400 0.92826200
vt 0.13128500 0.88178600
vt 0.93139500 0.45832400
vt 0.13467200 0.91279400
vt 0.43489800 0.93240900
vt 0.13605800 0.87873900
vt 0.14119100 0.87671100
vt 0.43257600 0.93708900
vt 0.15619900 0.88298600
vt 0.43788500 0.93252800
vt 0.43643400 0.93733300
vt 0.43534600 0.94261600
vt 0.44061900 0.93767500
vt 0.27271300 0.87696900
vt 0.26715300 0.87576600
vt 0.44041100 0.94303000
vt 0.26165800 0.87567500
vt 0.44061000 0.94848200
vt 0.43466400 0.94817400
vt 0.43441200 0.95379300
vt 0.42928400 0.94762100
vt 0.15216400 0.87580300
vt 0.15775300 0.87705700
vt 0.42839600 0.95324400
vt 0.14672800 0.87567500
vt 0.43067800 0.94232000
vt 0.16385200 0.87980300
vt 0.42876300 0.95966400
vt 0.43004800 0.95893900
vt 0.16803800 0.88221800
vt 0.43036200 0.96427200
vt 0.43460100 0.95925800
vt 0.43522400 0.96435800
vt 0.24588000 0.88223800
vt 0.44075100 0.96499900
vt 0.32147800 0.96963900
vt 0.43625700 0.96889700
vt 0.31769900 0.96902300
vt 0.24221900 0.88607800
vt 0.43988100 0.96908900
vt 0.43287800 0.96857800
vt 0.17174300 0.88543600
vt 0.32531000 0.96966000
vt 0.17496700 0.88991400
vt 0.32374600 0.96528100
vt 0.17653100 0.91660000
vt 0.32445700 0.93874700
vt 0.40638200 0.98293900
vt 0.17578600 0.92704300
vt 0.32531000 0.92830500
vt 0.32339800 0.93916100
vt 0.23743900 0.91638600
vt 0.17653100 0.89343700
vt 0.32272400 0.96176800
vt 0.23743900 0.89518300
vt 0.32155100 0.96145200
vt 0.23901600 0.89107400
vt 0.31988500 0.96497500
vt 0.40535200 0.98311700
vt 0.23822500 0.92664600
vt 0.32426500 0.92826200
vt 0.23900600 0.92278600
vt 0.40405800 0.97949200
vt 0.24065700 0.91868100
vt 0.40247500 0.97586400
vt 0.17424800 0.92107900
vt 0.40604900 0.97701400
vt 0.96327400 0.90218100
vt 0.40638200 0.97180600
vt 0.17089300 0.91583200
vt 0.95825900 0.90095000
vt 0.16585100 0.91133000
vt 0.16257900 0.88781000
vt 0.96003700 0.90450100
vt 0.96316600 0.90491500
vt 0.40354100 0.97198500
vt 0.96327400 0.90776700
vt 0.24303700 0.91515000
vt 0.40087600 0.97300500
vt 0.24805100 0.91054800
vt 0.95826600 0.90778000
vt 0.25125300 0.88709100
vt 0.24998400 0.87943700
vt 0.44144900 0.96059500
vt 0.43955200 0.95963300
vt 0.25575000 0.87678800
vt 0.44114500 0.95451500
vt 0.93913800 0.90784200
vt 0.26714100 0.90764500
vt 0.94502400 0.90785300
vt 0.26127200 0.90663800
vt 0.25407200 0.90777500
vt 0.95224000 0.90780400
vt 0.95227300 0.90395600
vt 0.94793600 0.90384500
vt 0.95635900 0.90417700
vt 0.95223200 0.90020800
vt 0.15981000 0.90868400
vt 0.15259200 0.90771700
vt 0.94501600 0.89989000
vt 0.14673900 0.90884400
vt 0.93915400 0.90019800
vt 0.94351400 0.90385000
vt 0.93917800 0.90397000
vt 0.93509400 0.90420000
vt 0.27121900 0.90933000
vt 0.93506600 0.90752200
vt 0.93139500 0.90730100
vt 0.61535200 0.97918200
vt 0.27488700 0.91174400
vt 0.61974200 0.97510900
vt 0.13591000 0.91588600
vt 0.93141900 0.90453200
vt 0.61811500 0.97897300
vt 0.14014800 0.91190100
vt 0.93255600 0.90150300
vt 0.62115700 0.97933000
vt 0.96853600 0.46032500
vt 0.61789500 0.97180600
vt 0.13366400 0.91920500
vt 0.61608700 0.97206700
vt 0.96854800 0.46215200
vt 0.28031800 0.91829400
vt 0.96193000 0.46012500
vt 0.13136300 0.91239200
f 2/2/2 1/1/1 4/4/4
f 1/1/1 2/2/2 6/6/6
f 15/15/15 4/4/4 1/1/1
f 12/12/12 1/1/1 6/6/6
f 11/11/11 8/8/8 1/1/1
f 15/15/15 1/1/1 8/8/8
f 12/12/12 11/11/11 1/1/1
f 7/7/7 18/18/18 14/14/14
f 5/5/5 14/14/14 16/16/16
f 14/14/14 18/18/18 16/16/16
f 22/22/22 19/19/19 27/27/27
f 18/18/18 20/20/20 16/16/16
f 19/19/19 9/9/9 10/10/10
f 23/23/23 19/19/19 10/10/10
f 19/19/19 23/23/23 27/27/27
f 29/29/29 33/33/33 26/26/26
f 23/23/23 30/30/30 27/27/27
f 26/26/26 33/33/33 31/31/31
f 21/21/21 26/26/26 31/31/31
f 28/28/28 37/37/37 32/32/32
f 38/38/38 35/35/35 32/32/32
f 34/34/34 36/36/36 33/33/33
f 33/33/33 36/36/36 31/31/31
f 38/38/38 32/32/32 37/37/37
f 35/35/35 38/38/38 39/39/39
f 40/40/40 39/39/39 38/38/38
f 38/38/38 37/37/37 13/13/13
f 38/38/38 13/13/13 40/40/40
f 41/41/41 12/12/12 6/6/6
f 42/42/42 41/41/41 6/6/6
f 40/40/40 43/43/43 39/39/39
f 44/44/44 42/42/42 6/6/6
f 46/46/46 43/43/43 45/45/45
f 46/46/46 39/39/39 43/43/43
f 46/46/46 47/47/47 51/51/51
f 45/45/45 47/47/47 46/46/46
f 46/46/46 48/48/48 53/53/53
f 46/46/46 51/51/51 48/48/48
f 46/46/46 53/53/53 39/39/39
f 35/35/35 39/39/39 53/53/53
f 52/52/52 49/49/49 36/36/36
f 34/34/34 52/52/52 36/36/36
f 50/50/50 54/54/54 36/36/36
f 50/50/50 36/36/36 49/49/49
f 47/47/47 56/56/56 51/51/51
f 51/51/51 56/56/56 55/55/55
f 55/55/55 56/56/56 58/58/58
f 56/56/56 60/60/60 58/58/58
f 56/56/56 59/59/59 60/60/60
f 47/47/47 59/59/59 56/56/56
f 59/59/59 62/62/62 60/60/60
f 60/60/60 62/62/62 67/67/67
f 60/60/60 68/68/68 58/58/58
f 60/60/60 64/64/64 68/68/68
f 60/60/60 67/67/67 64/64/64
f 63/63/63 72/72/72 70/70/70
f 69/69/69 71/71/71 73/73/73
f 57/57/57 69/69/69 73/73/73
f 74/74/74 78/78/78 77/77/77
f 57/57/57 73/73/73 76/76/76
f 83/83/83 78/78/78 74/74/74
f 71/71/71 80/80/80 73/73/73
f 83/83/83 74/74/74 81/81/81
f 83/83/83 81/81/81 72/72/72
f 85/85/85 83/83/83 72/72/72
f 82/82/82 84/84/84 79/79/79
f 63/63/63 65/65/65 85/85/85
f 66/66/66 79/79/79 84/84/84
f 63/63/63 85/85/85 72/72/72
f 61/61/61 79/79/79 66/66/66
f 61/61/61 87/87/87 79/79/79
f 78/78/78 88/88/88 77/77/77
f 75/75/75 86/86/86 90/90/90
f 89/89/89 87/87/87 61/61/61
f 94/94/94 90/90/90 92/92/92
f 61/61/61 91/91/91 89/89/89
f 90/90/90 94/94/94 75/75/75
f 96/96/96 94/94/94 92/92/92
f 57/57/57 76/76/76 93/93/93
f 93/93/93 97/97/97 57/57/57
f 54/54/54 57/57/57 97/97/97
f 101/101/101 98/98/98 95/95/95
f 100/100/100 97/97/97 99/99/99
f 100/100/100 54/54/54 97/97/97
f 102/102/102 101/101/101 95/95/95
f 92/92/92 103/103/103 96/96/96
f 101/101/101 102/102/102 104/104/104
f 103/103/103 92/92/92 106/106/106
f 104/104/104 108/108/108 101/101/101
f 107/107/107 105/105/105 109/109/109
f 105/105/105 110/110/110 109/109/109
f 61/61/61 105/105/105 91/91/91
f 110/110/110 105/105/105 61/61/61
f 114/114/114 111/111/111 112/112/112
f 111/111/111 62/62/62 112/112/112
f 110/110/110 113/113/113 6/6/6
f 6/6/6 109/109/109 110/110/110
f 45/45/45 114/114/114 47/47/47
f 114/114/114 59/59/59 47/47/47
f 44/44/44 6/6/6 113/113/113
f 114/114/114 112/112/112 59/59/59
f 59/59/59 112/112/112 62/62/62
f 6/6/6 116/116/116 109/109/109
f 109/109/109 116/116/116 118/118/118
f 109/109/109 118/118/118 119/119/119
f 109/109/109 119/119/119 107/107/107
f 120/120/120 121/121/121 123/123/123
f 122/122/122 121/121/121 120/120/120
f 120/120/120 123/123/123 108/108/108
f 122/122/122 120/120/120 117/117/117
f 123/123/123 121/121/121 124/124/124
f 108/108/108 123/123/123 101/101/101
f 101/101/101 123/123/123 98/98/98
f 123/123/123 124/124/124 98/98/98
f 124/124/124 121/121/121 122/122/122
f 100/100/100 99/99/99 125/125/125
f 124/124/124 122/122/122 127/127/127
f 100/100/100 125/125/125 126/126/126
f 127/127/127 122/122/122 130/130/130
f 131/131/131 129/129/129 127/127/127
f 100/100/100 126/126/126 128/128/128
f 130/130/130 131/131/131 127/127/127
f 117/117/117 115/115/115 131/131/131
f 115/115/115 134/134/134 131/131/131
f 134/134/134 132/132/132 131/131/131
f 131/131/131 132/132/132 129/129/129
f 131/131/131 130/130/130 117/117/117
f 133/133/133 116/116/116 6/6/6
f 135/135/135 132/132/132 134/134/134
f 6/6/6 137/137/137 133/133/133
f 6/6/6 2/2/2 137/137/137
f 136/136/136 3/3/3 138/138/138
f 135/135/135 140/140/140 132/132/132
f 138/138/138 141/141/141 136/136/136
f 141/141/141 138/138/138 144/144/144
f 132/132/132 140/140/140 143/143/143
f 132/132/132 143/143/143 129/129/129
f 36/36/36 142/142/142 139/139/139
f 36/36/36 128/128/128 142/142/142
f 31/31/31 36/36/36 139/139/139
f 146/146/146 138/138/138 148/148/148
f 147/147/147 152/152/152 139/139/139
f 148/148/148 138/138/138 3/3/3
f 152/152/152 31/31/31 139/139/139
f 31/31/31 152/152/152 17/17/17
f 5/5/5 16/16/16 151/151/151
f 5/5/5 151/151/151 149/149/149
f 151/151/151 145/145/145 149/149/149
f 4/4/4 150/150/150 2/2/2
f 130/130/130 122/122/122 117/117/117
f 36/36/36 100/100/100 128/128/128
f 36/36/36 54/54/54 100/100/100
f 37/37/37 28/28/28 24/24/24
f 37/37/37 24/24/24 13/13/13
f 31/31/31 17/17/17 21/21/21
f 12/12/12 25/25/25 11/11/11

