# Blender 4.1.1
# www.blender.org
mtllib link_body_04.mtl
o link_body_04
v 0.856449 -8.045480 4.935046
v -4.837450 -6.388967 3.515657
v -0.211609 -8.033151 3.842790
v 0.010365 -7.000495 5.749003
v -4.430826 -5.656489 5.189683
v -4.654280 -4.025976 6.255575
v -5.778872 -3.706645 5.083754
v -5.976454 -4.792003 3.572781
v -6.762312 -4.326954 1.840528
v -6.935999 -2.366241 3.596301
v -7.142897 0.924498 3.657868
v -6.417643 -0.826497 5.254282
v -7.627440 -0.892192 1.840529
v -7.436324 -2.878772 -0.000001
v -7.483935 1.786376 1.821389
v -7.780051 0.000000 -0.000001
v -7.515876 2.564069 -0.000001
v -6.723238 4.424751 -1.765569
v -5.988299 6.074943 -0.012419
v -6.723238 4.424751 1.765571
v -7.609824 1.061401 -1.836611
v -7.483935 -1.786375 -1.821390
v -7.155947 -0.765474 -3.657870
v -6.905303 2.495420 -3.602709
v -6.209906 2.235626 -5.216131
v -5.976450 4.792005 -3.572783
v -5.024260 4.917158 -5.216133
v -4.476057 6.784111 -3.596302
v -2.986226 7.009659 -5.099598
v -4.342477 4.473466 -6.327969
v -2.727304 6.175147 -6.146497
v -1.615403 4.458932 -6.339917
v -0.927426 5.638008 -6.198001
v -1.507924 7.351094 -5.412553
v -0.180706 6.566370 -5.976302
v 0.065601 7.165668 -5.591666
v 0.516018 8.453966 -3.897912
v -0.957466 7.437925 -3.977525
v -3.028176 4.578346 -3.908872
v -2.615502 6.348951 -2.000494
v -0.789650 8.275267 -1.979693
v 0.650845 9.184725 -2.030199
v -0.670796 8.597531 0.090362
v -3.021195 8.358843 -1.950512
v -2.161362 7.175411 -0.000000
v -0.824497 8.245611 1.969731
v -0.214207 8.029737 3.836437
v -2.559232 6.438409 2.029777
v -4.401197 7.645617 -0.417044
v -2.152303 6.093153 3.908872
v -2.028050 4.687564 5.637688
v -3.696649 2.798064 3.845231
v -0.875874 5.644818 6.271343
v 0.004417 6.999388 5.747030
v -4.654020 4.027040 6.255159
v -4.436502 5.657252 5.183364
v 0.874226 8.064668 4.921597
v -4.814650 6.383154 3.567633
v -5.270365 6.592873 1.904989
v -6.362463 4.143418 3.537751
v -5.764418 3.697376 5.120581
v -5.079424 2.524821 6.605692
v -6.344557 1.514413 5.186872
v -5.228926 0.744474 6.866204
v -5.185568 -1.943058 6.718284
v -1.579049 3.741610 6.803228
v -2.227349 0.572670 7.104939
v -1.980984 -2.490469 6.940477
v -2.860238 -2.611923 5.712244
v -3.213014 0.000001 5.637688
v -2.891561 2.473718 5.732594
v -3.959821 -0.832009 3.975788
v -3.399762 -3.587704 3.883307
v -4.469549 -0.901689 2.077121
v -4.130956 3.006176 1.919022
v -4.264555 -3.128997 -0.000001
v -3.574125 -4.619352 1.919022
v -4.647142 0.820920 -0.000001
v -4.475671 0.000002 -1.979693
v -4.130956 3.006175 -1.919023
v -3.740964 4.645864 -0.000001
v -4.163709 -2.824589 -2.077121
v -3.675103 -2.636912 -3.975792
v -2.626130 -6.333416 -2.000493
v -2.326696 -5.838157 -3.908871
v -4.007154 0.985025 -3.845231
v -3.199502 -0.904475 -5.640760
v -2.936139 2.345670 -5.698979
v -2.639741 -0.000084 -6.519838
v -2.115918 3.106252 -6.455067
v -5.549586 -0.003527 -6.529607
v -5.410192 2.023268 -6.417438
v -6.468855 0.000000 -5.186872
v -6.171282 -2.389046 -5.209311
v -5.410192 -2.023288 -6.417435
v -2.138051 -3.184803 -6.447035
v -4.341440 -4.474187 -6.328489
v -4.050939 -6.029973 -5.254282
v -5.378656 -4.312683 -5.186872
v -1.542756 -4.615580 -6.325395
v -2.734323 -6.169935 -6.148749
v -0.672406 -5.950439 -6.169600
v -1.714425 -7.306478 -5.428418
v 0.033340 -7.105567 -5.651528
v 0.521561 -8.479944 -3.845582
v -0.522305 -7.795131 -3.883308
v -0.789654 -8.275269 -1.979694
v -0.667832 -8.593383 0.102347
v 0.470585 -9.038102 -2.181930
v -2.651448 -6.602556 -0.000000
v -2.046471 -7.037535 1.979692
v -0.824501 -8.245612 1.969731
v -2.815477 -8.435889 -2.122149
v -4.447256 -7.619150 -0.354704
v -2.295610 -5.943465 3.845229
v -0.762356 -5.818409 6.222672
v -1.398396 -4.455594 6.628839
v -5.984835 -6.018506 0.076652
v -5.280073 -6.598783 1.853694
v -4.786840 -7.148692 -2.030981
v -6.801104 -4.249942 -1.765572
v -3.440313 -7.553943 -3.709042
v -5.653430 -5.371271 -3.596302
v -6.640681 -3.300789 -3.572783
v -1.531945 -8.351646 -3.713240
v -4.844645 7.083862 -1.986683
v -1.515767 8.416147 -3.578423
v -2.750657 7.968812 -3.572783
vn -0.4991 -0.6338 0.5909
vn -0.5740 -0.7442 0.3417
vn -0.3272 -0.8157 0.4771
vn -0.3318 -0.8977 0.2899
vn 0.4796 0.7470 -0.4605
vn 0.6250 0.6778 -0.3873
vn 0.6319 0.6483 -0.4248
vn -0.2840 -0.6743 0.6816
vn -0.4504 -0.3935 0.8015
vn -0.7954 -0.3541 0.4919
vn -0.8145 -0.4780 0.3288
vn -0.8989 -0.4049 0.1672
vn -0.9197 -0.2155 0.3281
vn -0.9828 -0.0807 0.1664
vn -0.8644 -0.0780 0.4966
vn -0.9381 0.0913 0.3342
vn -0.9646 -0.2637 0.0083
vn -0.9999 0.0045 0.0111
vn -0.9742 0.1580 0.1613
vn -0.9708 0.2399 -0.0021
vn -0.8974 0.4125 -0.1563
vn -0.8171 0.5765 -0.0034
vn -0.9803 0.0973 -0.1720
vn -0.8982 0.4118 0.1539
vn -0.9148 0.2304 -0.3318
vn -0.9736 -0.1571 -0.1654
vn -0.9408 -0.0626 -0.3333
vn -0.8436 0.2219 -0.4889
vn -0.7093 0.4810 -0.5153
vn -0.8195 0.4585 -0.3438
vn -0.6625 0.4659 -0.5865
vn -0.6430 0.6740 -0.3637
vn -0.4449 0.7172 -0.5363
vn -0.2469 0.4491 -0.8587
vn -0.1333 0.7361 -0.6636
vn 0.0225 0.1698 -0.9852
vn -0.0005 0.1031 -0.9947
vn -0.0158 0.0738 -0.9972
vn -0.0132 0.4652 -0.8851
vn 0.5809 -0.6519 0.4874
vn 0.7054 -0.5359 0.4639
vn 0.5746 -0.5961 0.5608
vn -0.0012 0.6894 -0.7244
vn 0.6419 -0.6721 0.3691
vn 0.5173 -0.7857 0.3393
vn -0.0601 0.8884 -0.4550
vn 0.8468 -0.4035 0.3466
vn 0.8096 -0.5594 0.1778
vn 0.6249 -0.7620 0.1696
vn 0.5276 -0.8243 0.2055
vn 0.6694 -0.7424 0.0274
vn -0.2278 0.9621 0.1498
vn -0.3833 0.9204 -0.0769
vn -0.2815 0.9398 0.1936
vn -0.1719 0.9782 -0.1167
vn 0.7581 -0.6519 0.0174
vn 0.6939 -0.6948 -0.1891
vn 0.6160 -0.6889 -0.3819
vn 0.7630 -0.5410 -0.3538
vn -0.5173 0.8528 0.0718
vn -0.3314 0.9001 0.2828
vn 0.8094 -0.5589 -0.1806
vn 0.9162 -0.2376 -0.3226
vn 0.7636 -0.4169 -0.4931
vn 0.6759 -0.5346 -0.5072
vn 0.6019 -0.6599 -0.4498
vn -0.2828 0.6727 0.6837
vn -0.4456 0.4041 0.7989
vn -0.1871 0.4282 0.8841
vn -0.5053 0.6320 0.5876
vn -0.3270 0.8173 0.4744
vn 0.4808 -0.7476 -0.4582
vn -0.5735 0.7404 0.3505
vn -0.6627 0.7189 0.2098
vn -0.8578 0.3901 0.3345
vn -0.7972 0.3550 0.4883
vn -0.7768 0.2358 0.5839
vn -0.8598 0.1528 0.4872
vn -0.8016 0.0583 0.5950
vn -0.7918 -0.1822 0.5829
vn -0.0873 0.0397 0.9954
vn -0.0998 -0.1260 0.9870
vn -0.0769 0.0257 0.9967
vn -0.1211 0.1902 0.9742
vn -0.1227 0.2473 0.9611
vn 0.8361 -0.2121 -0.5059
vn 0.7354 -0.3209 -0.5969
vn 0.8116 -0.0443 -0.5825
vn 0.7866 0.2031 -0.5832
vn 0.8361 0.2339 -0.4963
vn -0.0915 -0.1352 0.9866
vn 0.8783 -0.0046 -0.4782
vn 0.9403 0.0581 -0.3353
vn 0.9832 0.0734 -0.1669
vn 0.8914 0.3066 -0.3339
vn 0.9978 -0.0657 -0.0042
vn 0.9546 -0.2521 -0.1585
vn 0.9647 0.2633 0.0001
vn 0.9074 0.3904 -0.1558
vn 0.9193 -0.3935 -0.0009
vn 0.9862 0.0233 0.1639
vn 0.9533 -0.2562 0.1603
vn 0.9549 0.2415 0.1729
vn 0.7832 0.5071 0.3597
vn 0.9086 0.2345 0.3457
vn 0.9425 -0.0799 0.3245
vn 0.8181 0.5478 0.1752
vn 0.8657 0.0864 0.4931
vn 0.8364 -0.2006 0.5100
vn 0.7713 -0.4245 0.4743
vn 0.7788 -0.2836 0.5595
vn 0.8310 -0.0161 0.5560
vn -0.0119 0.0595 -0.9982
vn 0.0034 -0.0009 -1.0000
vn -0.0134 -0.0004 -0.9999
vn -0.0294 0.0546 -0.9981
vn -0.8774 0.0124 -0.4796
vn -0.7947 0.2160 -0.5673
vn -0.8251 -0.0003 -0.5649
vn -0.7955 -0.2100 -0.5684
vn -0.8382 -0.2351 -0.4921
vn -0.0110 -0.0601 -0.9981
vn -0.0284 -0.0545 -0.9981
vn -0.0153 -0.0725 -0.9972
vn -0.6654 -0.4504 -0.5954
vn -0.0016 -0.1034 -0.9946
vn -0.5806 -0.6199 -0.5279
vn -0.7634 -0.4030 -0.5048
vn -0.2369 -0.4743 -0.8479
vn 0.0218 -0.2958 -0.9550
vn 0.0083 -0.6685 -0.7437
vn -0.1881 -0.7353 -0.6511
vn -0.0613 -0.8973 -0.4372
vn 0.5095 0.7895 0.3421
vn 0.6258 0.6398 0.4462
vn 0.5978 0.7152 0.3622
vn 0.6790 0.5671 0.4662
vn 0.6257 0.7596 0.1775
vn 0.6790 0.7340 0.0151
vn 0.5307 0.8199 0.2148
vn 0.8161 0.5780 0.0007
vn 0.7483 0.6382 -0.1811
vn 0.6945 0.6957 -0.1834
vn -0.2802 -0.9407 0.1912
vn -0.5241 -0.8485 0.0732
vn 0.7656 0.5342 -0.3585
vn -0.3517 -0.9318 -0.0901
vn -0.2147 -0.9668 0.1388
vn 0.7639 0.4098 -0.4985
vn 0.6905 0.5552 -0.4636
vn -0.2005 -0.4513 0.8695
vn -0.1395 -0.2983 0.9442
vn -0.6829 -0.7025 -0.2002
vn -0.6722 -0.7110 0.2063
vn -0.8208 -0.5713 -0.0021
vn -0.5030 -0.7696 -0.3933
vn -0.8995 -0.4082 -0.1559
vn -0.7793 -0.5261 -0.3403
vn -0.8882 -0.3091 -0.3400
vn -0.2092 -0.9021 -0.3774
vn -0.1473 -0.9818 -0.1196
vn 0.7702 0.4325 0.4687
vn 0.8255 0.2969 0.4800
vn -0.6875 0.6995 -0.1952
vn -0.4132 0.8358 -0.3616
vn -0.2077 0.9095 -0.3601
vt 0.698835 0.396010
vt 0.708339 0.393892
vt 0.699076 0.431709
vt 0.705432 0.424885
vt 0.629793 0.162492
vt 0.635851 0.169113
vt 0.625522 0.169793
vt 0.694649 0.425652
vt 0.406432 0.455346
vt 0.408557 0.446490
vt 0.438499 0.441070
vt 0.398879 0.456649
vt 0.708088 0.385943
vt 0.699488 0.386631
vt 0.717820 0.381038
vt 0.536549 0.270303
vt 0.526700 0.270263
vt 0.536664 0.260853
vt 0.530133 0.278414
vt 0.521442 0.260480
vt 0.517101 0.279020
vt 0.510481 0.270079
vt 0.531512 0.250600
vt 0.517761 0.250185
vt 0.507444 0.259862
vt 0.504027 0.249661
vt 0.492937 0.239356
vt 0.482187 0.248562
vt 0.512377 0.239795
vt 0.492052 0.258883
vt 0.503688 0.229586
vt 0.526534 0.240348
vt 0.520946 0.229924
vt 0.503602 0.220522
vt 0.486869 0.219729
vt 0.489575 0.229096
vt 0.487629 0.213476
vt 0.475537 0.228210
vt 0.470884 0.219456
vt 0.474718 0.213744
vt 0.544477 0.352502
vt 0.538014 0.344380
vt 0.542528 0.342700
vt 0.535079 0.356346
vt 0.528552 0.351785
vt 0.528578 0.333665
vt 0.540212 0.361304
vt 0.962180 0.830007
vt 0.962723 0.822801
vt 0.963539 0.827680
vt 0.543498 0.362951
vt 0.951111 0.827774
vt 0.954718 0.836638
vt 0.277420 0.874291
vt 0.287552 0.865671
vt 0.287660 0.874776
vt 0.340836 0.503252
vt 0.351745 0.511559
vt 0.339126 0.520721
vt 0.329637 0.512727
vt 0.941436 0.833512
vt 0.936756 0.822801
vt 0.945622 0.841877
vt 0.931395 0.839198
vt 0.989128 0.768256
vt 0.979282 0.775544
vt 0.970239 0.768256
vt 0.278577 0.844020
vt 0.264979 0.855895
vt 0.277657 0.833577
vt 0.286444 0.855531
vt 0.984305 0.432813
vt 0.977825 0.439895
vt 0.970239 0.432813
vt 0.994904 0.437469
vt 0.295478 0.522203
vt 0.296861 0.509908
vt 0.306118 0.523438
vt 0.257169 0.847607
vt 0.281269 0.823027
vt 0.307399 0.512030
vt 0.318124 0.517033
vt 0.299040 0.490542
vt 0.287590 0.501777
vt 0.283090 0.507815
vt 0.285055 0.516154
vt 0.433122 0.518405
vt 0.403364 0.499832
vt 0.427793 0.510496
vt 0.404206 0.508986
vt 0.438499 0.524725
vt 0.511715 0.981206
vt 0.511715 0.971806
vt 0.518610 0.973255
vt 0.258806 0.816090
vt 0.287660 0.816731
vt 0.255625 0.825339
vt 0.252925 0.834716
vt 0.477201 0.258880
vt 0.492100 0.268636
vt 0.476665 0.267989
vt 0.478968 0.276951
vt 0.492415 0.277307
vt 0.487561 0.283224
vt 0.496224 0.285542
vt 0.505017 0.278215
vt 0.505607 0.287337
vt 0.402107 0.466588
vt 0.400792 0.481408
vt 0.393543 0.472260
vt 0.420750 0.481821
vt 0.401110 0.491323
vt 0.423846 0.499637
vt 0.288178 0.488872
vt 0.281090 0.496616
vt 0.280615 0.478595
vt 0.282067 0.462060
vt 0.289457 0.461020
vt 0.423555 0.465020
vt 0.289498 0.475063
vt 0.299350 0.470373
vt 0.310164 0.470138
vt 0.300119 0.455771
vt 0.321313 0.480069
vt 0.309888 0.491903
vt 0.321974 0.458739
vt 0.311289 0.450568
vt 0.319798 0.501815
vt 0.332282 0.476322
vt 0.331009 0.493080
vt 0.333264 0.461131
vt 0.342790 0.446738
vt 0.343334 0.463160
vt 0.341996 0.482695
vt 0.332609 0.443182
vt 0.351765 0.473575
vt 0.351145 0.491638
vt 0.353273 0.504550
vt 0.354566 0.496741
vt 0.356008 0.479282
vt 0.982541 0.890539
vt 0.970239 0.886022
vt 0.987785 0.886022
vt 0.521064 0.348474
vt 0.503861 0.345038
vt 0.503787 0.325702
vt 0.515000 0.326603
vt 0.515644 0.221148
vt 0.502900 0.213701
vt 0.513603 0.213476
vt 0.523488 0.214415
vt 0.527030 0.221365
vt 0.486232 0.348423
vt 0.492596 0.326665
vt 0.479039 0.333808
vt 0.490441 0.321674
vt 0.478310 0.352407
vt 0.470328 0.335816
vt 0.479803 0.326971
vt 0.469664 0.344522
vt 0.470921 0.358218
vt 0.464490 0.362951
vt 0.463322 0.351352
vt 0.756533 0.401138
vt 0.761109 0.410119
vt 0.757018 0.416981
vt 0.757695 0.428579
vt 0.747801 0.431709
vt 0.678289 0.163075
vt 0.688582 0.168536
vt 0.678656 0.170877
vt 0.691704 0.175056
vt 0.668023 0.171813
vt 0.668574 0.186911
vt 0.679237 0.185802
vt 0.656433 0.170628
vt 0.668964 0.162492
vt 0.657448 0.186731
vt 0.321681 0.441071
vt 0.646393 0.182296
vt 0.647265 0.196342
vt 0.646176 0.172404
vt 0.716008 0.421323
vt 0.729834 0.397706
vt 0.636308 0.186037
vt 0.739260 0.409150
vt 0.726346 0.422895
vt 0.300123 0.443809
vt 0.621215 0.183406
vt 0.623163 0.176862
vt 0.283842 0.451879
vt 0.432916 0.447226
vt 0.428172 0.454445
vt 0.739123 0.395746
vt 0.717696 0.391407
vt 0.727632 0.387023
vt 0.748069 0.405178
vt 0.737757 0.381632
vt 0.747730 0.389953
vt 0.756261 0.391906
vt 0.540450 0.230672
vt 0.534746 0.221615
vt 0.532481 0.230703
vt 0.537276 0.240907
vt 0.747660 0.418026
vt 0.738714 0.431102
vt 0.543687 0.251187
vt 0.692862 0.182969
vt 0.693848 0.189341
vt 0.356008 0.462226
vt 0.970239 0.844727
vt 0.988189 0.844727
vt 0.983925 0.849338
vt 0.519205 0.286982
vt 0.470162 0.245620
vt 0.474569 0.237158
vt 0.463322 0.236642
vt 0.465008 0.227667
vt 0.267914 0.864665
vt 0.274813 0.864476
vt 0.268704 0.872883
s 1
usemtl pleuraldeles_skin
f 5/1/1 2/2/2 1/3/3
f 2/2/2 3/4/4 1/3/3
f 1/5/5 3/6/6 4/7/7
f 5/1/1 1/3/3 4/8/8
f 6/9/9 5/10/1 4/11/8
f 7/12/10 5/10/1 6/9/9
f 8/13/11 2/2/2 5/1/1
f 7/14/10 8/13/11 5/1/1
f 2/2/2 8/13/11 9/15/12
f 8/16/11 10/17/13 9/18/12
f 8/16/11 7/19/10 10/17/13
f 10/17/13 13/20/14 9/18/12
f 7/19/10 12/21/15 10/17/13
f 10/17/13 11/22/16 13/20/14
f 10/17/13 12/21/15 11/22/16
f 9/18/12 13/20/14 14/23/17
f 13/20/14 16/24/18 14/23/17
f 13/20/14 15/25/19 17/26/20
f 11/22/16 15/25/19 13/20/14
f 13/20/14 17/26/20 16/24/18
f 18/27/21 17/26/20 19/28/22
f 21/29/23 17/26/20 18/27/21
f 20/30/24 19/28/22 17/26/20
f 15/25/19 20/30/24 17/26/20
f 21/29/23 16/24/18 17/26/20
f 21/29/23 18/27/21 24/31/25
f 22/32/26 16/24/18 21/29/23
f 22/32/26 21/29/23 23/33/27
f 21/29/23 24/31/25 23/33/27
f 23/33/27 24/31/25 25/34/28
f 24/31/25 27/35/29 25/34/28
f 24/31/25 26/36/30 27/35/29
f 18/27/21 26/36/30 24/31/25
f 30/37/31 25/34/28 27/35/29
f 26/36/30 28/38/32 27/35/29
f 29/39/33 27/35/29 28/38/32
f 31/40/34 27/35/29 29/39/33
f 31/40/34 30/37/31 27/35/29
f 34/41/35 31/42/34 29/43/33
f 31/42/34 33/44/36 32/45/37
f 31/42/34 32/45/37 30/46/38
f 31/42/34 35/47/39 33/44/36
f 34/41/35 35/47/39 31/42/34
f 36/48/40 33/49/41 35/50/42
f 36/51/43 35/47/39 34/41/35
f 38/52/44 33/49/41 36/48/40
f 36/48/40 37/53/45 38/52/44
f 34/54/35 37/55/46 36/56/43
f 39/57/47 33/58/41 38/59/44
f 39/57/47 38/59/44 40/60/48
f 38/52/44 41/61/49 40/62/48
f 41/61/49 38/52/44 37/53/45
f 37/53/45 42/63/50 41/61/49
f 41/61/49 42/63/50 43/64/51
f 40/65/48 41/66/49 43/67/51
f 43/68/52 44/69/53 46/70/54
f 44/69/53 43/68/52 42/71/55
f 45/72/56 43/73/51 46/74/57
f 40/75/48 43/73/51 45/72/56
f 47/76/58 50/77/59 46/78/57
f 49/79/60 47/80/61 46/70/54
f 46/70/54 44/69/53 49/79/60
f 48/81/62 45/82/56 46/78/57
f 50/77/59 48/81/62 46/78/57
f 52/83/63 50/77/59 51/84/64
f 50/77/59 53/85/65 51/84/64
f 48/81/62 50/77/59 52/83/63
f 50/77/59 47/76/58 54/86/66
f 50/77/59 54/86/66 53/85/65
f 54/87/67 55/88/68 53/89/69
f 54/87/67 56/90/70 55/88/68
f 56/90/70 54/87/67 57/91/71
f 47/92/58 57/93/72 54/94/66
f 56/95/70 57/96/71 58/97/73
f 58/97/73 57/96/71 47/80/61
f 49/79/60 59/98/74 58/97/73
f 59/99/74 60/100/75 58/101/73
f 47/80/61 49/79/60 58/97/73
f 56/102/70 58/101/73 60/100/75
f 15/25/19 11/22/16 60/100/75
f 11/22/16 61/103/76 60/100/75
f 60/100/75 61/103/76 56/102/70
f 59/99/74 20/30/24 60/100/75
f 15/25/19 60/100/75 20/30/24
f 56/102/70 61/103/76 55/104/68
f 61/103/76 62/105/77 55/104/68
f 62/105/77 61/103/76 63/106/78
f 11/22/16 63/106/78 61/103/76
f 11/22/16 12/21/15 63/106/78
f 63/106/78 12/21/15 64/107/79
f 62/105/77 63/106/78 64/107/79
f 65/108/80 64/109/79 12/110/15
f 64/109/81 65/108/82 67/111/83
f 62/112/84 64/109/81 66/113/85
f 67/111/83 66/113/85 64/109/81
f 71/114/86 66/115/87 67/116/88
f 67/116/88 68/117/89 69/118/90
f 67/111/83 65/108/82 68/119/91
f 69/118/90 70/120/92 67/116/88
f 70/120/92 71/114/86 67/116/88
f 72/121/93 52/83/63 71/114/86
f 52/83/63 51/84/64 71/114/86
f 71/114/86 51/84/64 66/115/87
f 72/121/93 71/114/86 70/120/92
f 74/122/94 52/83/63 72/121/93
f 74/122/94 72/121/93 73/123/95
f 73/123/95 72/121/93 69/118/90
f 72/121/93 70/120/92 69/118/90
f 78/124/96 75/125/97 74/122/94
f 74/122/94 75/125/97 52/83/63
f 76/126/98 74/122/94 77/127/99
f 78/124/96 74/122/94 76/126/98
f 74/122/94 73/123/95 77/127/99
f 81/128/100 75/125/97 78/124/96
f 79/129/101 80/130/102 78/124/96
f 82/131/103 79/129/101 78/124/96
f 80/130/102 81/128/100 78/124/96
f 82/131/103 78/124/96 76/126/98
f 85/132/104 83/133/105 82/131/103
f 86/134/106 82/131/103 83/133/105
f 86/134/106 79/129/101 82/131/103
f 84/135/107 82/131/103 76/126/98
f 85/132/104 82/131/103 84/135/107
f 87/136/108 86/134/106 83/133/105
f 88/137/109 86/134/106 87/136/108
f 86/134/106 80/130/102 79/129/101
f 86/134/106 39/57/47 80/130/102
f 88/137/109 39/57/47 86/134/106
f 39/57/47 88/137/109 32/138/110
f 32/138/110 88/137/109 90/139/111
f 88/137/109 87/136/108 89/140/112
f 88/141/109 89/142/112 90/143/111
f 90/144/113 89/145/114 91/146/115
f 92/147/116 90/144/113 91/146/115
f 30/46/38 32/45/37 90/144/113
f 90/144/113 92/147/116 30/46/38
f 93/148/117 25/34/28 92/149/118
f 30/37/31 92/149/118 25/34/28
f 93/148/117 92/149/118 91/150/119
f 95/151/120 94/152/121 93/148/117
f 23/33/27 93/148/117 94/152/121
f 23/33/27 25/34/28 93/148/117
f 95/151/120 93/148/117 91/150/119
f 91/146/115 96/153/122 95/154/123
f 96/153/122 97/155/124 95/154/123
f 97/155/125 94/156/121 95/154/120
f 97/155/124 96/153/122 100/157/126
f 97/155/125 98/158/127 99/159/128
f 101/160/129 98/158/127 97/155/125
f 97/155/125 99/159/128 94/156/121
f 101/160/129 97/155/124 100/157/126
f 101/160/129 100/157/126 102/161/130
f 101/160/129 102/161/130 104/162/131
f 101/160/129 104/162/131 103/163/132
f 98/164/127 101/165/129 103/166/132
f 103/166/132 104/167/131 105/168/133
f 105/169/134 104/170/135 106/171/136
f 106/171/136 104/170/135 102/172/137
f 106/171/136 107/173/138 105/169/134
f 106/171/136 84/174/107 107/173/138
f 106/171/136 85/175/104 84/174/107
f 106/171/136 102/172/137 85/175/104
f 108/176/139 109/177/140 107/173/138
f 107/173/138 110/178/141 108/176/139
f 107/173/138 84/174/107 110/178/141
f 109/177/140 105/169/134 107/173/138
f 84/135/107 76/126/98 110/179/141
f 76/126/98 77/127/99 110/179/141
f 111/180/142 110/178/141 77/181/99
f 112/182/143 108/176/139 110/178/141
f 110/178/141 111/180/142 112/182/143
f 112/183/144 3/4/4 114/184/145
f 115/185/146 3/6/6 112/182/143
f 114/184/145 113/186/147 112/183/144
f 113/186/147 108/187/148 112/183/144
f 111/180/142 115/185/146 112/182/143
f 77/127/99 73/123/95 115/188/146
f 111/180/142 77/181/99 115/185/146
f 115/185/146 117/189/149 116/190/150
f 116/190/150 3/6/6 115/185/146
f 115/188/146 73/123/95 69/118/90
f 115/188/146 69/118/90 117/191/149
f 6/9/9 116/192/151 117/193/152
f 117/191/149 69/118/90 68/117/89
f 68/119/91 65/108/82 117/193/152
f 6/9/9 117/193/152 65/108/82
f 116/190/150 4/7/7 3/6/6
f 6/9/9 4/11/8 116/192/151
f 113/186/147 114/184/145 120/194/153
f 2/2/2 114/184/145 3/4/4
f 119/195/154 114/184/145 2/2/2
f 114/184/145 118/196/155 120/194/153
f 119/195/154 118/196/155 114/184/145
f 120/194/153 122/197/156 113/186/147
f 118/196/155 121/198/157 120/194/153
f 120/194/153 121/198/157 123/199/158
f 120/194/153 123/199/158 122/197/156
f 123/199/158 99/200/128 98/164/127
f 123/201/158 94/152/121 99/202/128
f 98/164/127 122/197/156 123/199/158
f 123/201/158 124/203/159 94/152/121
f 123/201/158 121/204/157 124/203/159
f 124/203/159 23/33/27 94/152/121
f 124/203/159 22/32/26 23/33/27
f 124/203/159 121/204/157 22/32/26
f 113/186/147 122/197/156 125/205/160
f 103/166/132 125/205/160 122/197/156
f 122/197/156 98/164/127 103/166/132
f 113/186/147 125/205/160 109/206/161
f 105/168/133 109/206/161 125/205/160
f 103/166/132 105/168/133 125/205/160
f 121/204/157 14/23/17 22/32/26
f 121/204/157 118/207/155 14/23/17
f 119/195/154 9/15/12 118/196/155
f 2/2/2 9/15/12 119/195/154
f 9/18/12 14/23/17 118/207/155
f 113/186/147 109/206/161 108/187/148
f 85/175/104 102/172/137 100/208/162
f 85/175/104 100/208/162 96/209/163
f 89/145/114 96/153/122 91/146/115
f 87/136/108 83/133/105 96/210/163
f 85/132/104 96/210/163 83/133/105
f 96/211/163 89/212/112 87/213/108
f 48/81/62 81/128/100 45/82/56
f 81/128/100 48/81/62 75/125/97
f 40/60/48 45/82/56 81/128/100
f 80/130/102 40/60/48 81/128/100
f 39/57/47 40/60/48 80/130/102
f 48/81/62 52/83/63 75/125/97
f 55/88/68 66/113/85 53/89/69
f 66/115/87 51/84/64 53/85/65
f 55/88/68 62/112/84 66/113/85
f 12/21/15 7/19/10 65/214/80
f 7/12/10 6/9/9 65/108/80
f 19/28/22 20/30/24 59/99/74
f 49/215/60 19/28/22 59/99/74
f 126/216/164 19/28/22 49/215/60
f 44/217/53 126/216/164 49/215/60
f 44/217/53 28/38/32 126/216/164
f 26/36/30 126/216/164 28/38/32
f 26/36/30 18/27/21 126/216/164
f 18/27/21 19/28/22 126/216/164
f 128/218/165 28/38/32 44/217/53
f 128/219/165 44/69/53 127/220/166
f 44/69/53 42/71/55 127/220/166
f 29/39/33 28/38/32 128/218/165
f 29/221/33 128/219/165 127/220/166
f 34/54/35 127/220/166 37/55/46
f 127/220/166 34/54/35 29/221/33
f 127/220/166 42/71/55 37/55/46
f 39/57/47 32/138/110 33/58/41
f 22/32/26 14/23/17 16/24/18
