# Blender 4.1.1
# www.blender.org
mtllib link_body_25.mtl
o link_body_25
v -2.936923 0.643479 5.454307
v -2.866542 -0.643542 5.493965
v 2.331031 0.137235 6.127305
v -2.129035 0.070318 5.983476
v -3.666556 1.231424 4.636016
v -3.838752 0.000000 4.606646
v -4.494555 -0.626893 3.635086
v -3.677009 -1.235072 4.627972
v -4.427191 1.056747 3.619428
v -4.998049 0.697116 2.509523
v -4.228671 1.806348 3.635830
v -0.786605 2.965252 0.406026
v -4.779703 2.762107 1.310923
v -4.642553 2.290512 2.478011
v -0.863018 2.433689 1.627650
v 0.417728 0.897148 4.802800
v -0.342170 1.466016 3.642319
v -0.547653 0.000001 3.566196
v -0.947010 1.156958 2.456439
v 0.117580 0.000001 4.538908
v -1.019569 -0.630609 2.515738
v -1.332111 0.729764 1.262748
v -0.319191 -1.453973 3.674373
v -1.245559 -1.228217 1.252281
v -0.741619 -2.091754 2.369487
v -0.871212 -2.601044 1.249669
v -4.228682 -1.806270 3.635844
v -4.642695 -2.290010 2.478115
v -4.919253 -1.174201 2.493111
v -0.785938 -2.973723 0.398385
v 1.893253 -0.265399 5.944592
v -4.785037 -2.764132 1.327971
v 1.012970 -0.575988 5.393001
v 0.231213 -1.021845 4.555124
v -4.642547 -3.314643 -0.124846
v -5.322402 -0.622572 1.284333
v -5.197600 -1.962218 0.053489
v -5.434660 0.527027 0.000001
v -5.222266 -1.246527 -1.270979
v -4.919265 -2.445152 -1.270979
v -4.843028 -1.722780 -2.468670
v -4.433738 -3.532800 -1.279215
v -0.488701 -3.326293 -1.451446
v -2.441036 -3.454268 -2.806144
v -0.642910 -3.222943 -0.622390
v -4.078155 -3.501255 -2.479239
v -3.578006 -3.295227 -3.609007
v -4.170321 -2.072886 -3.619430
v -4.478186 -0.576726 -3.666466
v -3.546542 -1.762832 -4.606647
v -3.828185 -0.432806 -4.620960
v -2.979690 -0.711237 -5.436337
v -3.026065 -3.016728 -4.487919
v 0.208507 -2.944831 -3.593761
v -2.315048 -2.399603 -5.368316
v 0.755031 -2.521681 -4.538908
v -0.032673 -3.154178 -2.968887
v -0.209099 -2.042453 -3.566197
v -0.822521 -1.770205 -2.515740
v -1.351978 -0.552258 -1.213904
v -1.041969 0.000001 -2.456440
v -0.947010 -2.409236 -1.252283
v -0.528572 -0.617688 -3.581626
v 0.131138 0.464800 -4.553012
v -0.371998 1.613408 -3.569502
v 0.260956 -1.350076 -4.532153
v 0.947128 -0.322890 -5.351059
v 1.316345 -1.817242 -5.331247
v 2.102817 -1.172103 -5.931789
v -1.535599 -1.752892 -6.021089
v 1.832584 0.007091 -5.936067
v 1.048519 1.065938 -5.339724
v 2.806522 -0.023984 -6.287995
v 2.063381 1.041539 -5.936725
v -2.012054 2.098214 -5.630849
v 1.358368 1.807661 -5.341531
v 0.108383 1.060848 -6.126372
v -1.711792 1.384958 -6.025835
v -1.014755 0.072360 -6.411769
v -2.082980 0.343507 -6.030481
v 3.032306 -0.695729 -6.295646
v -2.877307 1.113869 -5.421577
v -2.375045 2.471906 -5.290762
v -3.042586 3.024640 -4.471180
v -3.671751 1.297555 -4.636408
v -4.328116 1.525962 -3.667100
v -3.601874 3.304984 -3.568115
v -4.633833 2.303277 -2.493112
v -4.984278 0.645113 -2.552486
v -5.087664 1.969555 -1.281600
v -5.324576 0.000000 -1.270979
v -4.433874 3.532817 -1.280596
v -4.105101 3.508040 -2.419753
v -5.015642 2.493057 -0.000000
v -4.642546 3.314641 -0.124846
v -0.642875 3.222959 -0.622706
v -0.489807 3.325250 -1.443096
v -1.041969 2.456438 -0.000001
v -0.947010 2.409238 -1.252283
v -1.245556 1.228220 -1.252283
v -0.818355 1.826583 -2.472611
v -0.032673 3.154178 -2.968887
v 0.312016 2.840793 -3.877849
v -2.435428 3.454332 -2.801004
v 0.724571 2.452690 -4.559922
v -1.454830 0.519285 -0.000001
v -1.346367 -1.252281 -0.000001
v -1.041969 -2.456437 -0.000001
v -5.222262 1.246529 1.270978
v 2.622203 -0.041638 6.211530
vn -0.6527 0.0195 0.7574
vn -0.6464 -0.0317 0.7623
vn -0.5501 -0.0043 0.8351
vn -0.7656 0.0026 0.6433
vn -0.0039 0.7841 0.6206
vn -0.0230 0.4862 0.8735
vn 0.0324 0.8635 0.5033
vn -0.0343 0.6474 0.7614
vn -0.7721 0.1129 0.6254
vn -0.8617 0.1411 0.4874
vn -0.8697 -0.0804 0.4870
vn -0.7672 -0.1147 0.6311
vn -0.8586 0.2100 0.4676
vn -0.9396 0.0909 0.3301
vn 0.0544 0.9095 0.4122
vn 0.0728 0.9107 0.4065
vn 0.0521 0.9461 0.3196
vn 0.0367 0.9292 0.3678
vn -0.9237 0.2308 0.3057
vn 0.0545 0.9280 0.3686
vn 0.0792 0.9116 0.4034
vn 0.0747 0.9088 0.4106
vn 0.7731 0.0006 -0.6343
vn 0.8805 -0.0191 -0.4737
vn 0.8730 -0.1308 -0.4699
vn 0.9388 0.0779 -0.3354
vn 0.7184 -0.0814 -0.6908
vn 0.9237 -0.1599 -0.3481
vn 0.9451 -0.2653 -0.1908
vn 0.9743 0.1604 -0.1579
vn 0.9817 -0.0976 -0.1637
vn 0.8665 0.1302 -0.4820
vn 0.9279 0.2251 -0.2973
vn 0.0531 -0.9088 0.4139
vn 0.0749 -0.9085 0.4111
vn 0.0781 -0.9106 0.4059
vn 0.9495 0.2805 -0.1405
vn 0.0729 -0.9109 0.4060
vn -0.9339 -0.1593 0.3202
vn -0.8576 -0.2000 0.4739
vn -0.9278 -0.2321 0.2922
vn 0.0222 -0.9253 0.3787
vn 0.0361 -0.9293 0.3676
vn 0.0525 -0.9471 0.3167
vn 0.0887 -0.9207 0.3799
vn -0.0356 -0.7241 0.6887
vn 0.0338 -0.8661 0.4988
vn 0.0754 -0.9089 0.4100
vn 0.7829 0.0773 -0.6174
vn 0.6149 -0.0615 -0.7862
vn 0.4068 -0.0073 -0.9135
vn 0.5514 -0.2365 -0.8000
vn -0.9687 -0.2480 0.0153
vn -0.9213 -0.3878 -0.0266
vn -0.9474 -0.2829 0.1498
vn 0.0411 -0.9592 0.2796
vn -0.9831 -0.0895 0.1598
vn -0.9249 -0.3379 -0.1746
vn -0.9980 0.0637 -0.0033
vn -0.9774 -0.1421 -0.1565
vn -0.8980 -0.3944 -0.1952
vn -0.9166 -0.2272 -0.3291
vn 0.0444 -0.9929 0.1101
vn 0.0546 -0.9812 0.1853
vn 0.0806 -0.9963 0.0295
vn 0.0642 -0.9884 -0.1378
vn 0.0144 -0.9973 -0.0714
vn -0.8581 -0.3808 -0.3443
vn -0.8162 -0.2948 -0.4969
vn -0.7750 -0.3795 -0.5054
vn 0.0270 -0.9726 -0.2308
vn -0.6978 -0.2659 -0.6651
vn -0.8702 -0.0692 -0.4877
vn -0.7662 -0.0419 -0.6412
vn -0.6019 -0.1105 -0.7909
vn -0.6848 -0.3318 -0.6488
vn 0.0911 -0.9301 -0.3558
vn 0.1068 -0.9726 -0.2065
vn 0.1091 -0.9415 -0.3188
vn 0.1244 -0.8455 -0.5193
vn -0.5871 -0.2620 -0.7659
vn 0.1156 -0.8273 -0.5498
vn 0.8487 0.3746 0.3734
vn 0.7887 0.3455 0.5086
vn 0.8166 0.2874 0.5005
vn 0.8872 0.4041 0.2226
vn 0.9116 0.2448 0.3302
vn 0.9837 0.0767 0.1626
vn 0.9317 0.3213 0.1693
vn 0.9430 -0.0120 0.3326
vn 0.8689 0.0695 0.4901
vn 0.7395 0.1872 0.6467
vn 0.7669 -0.0712 0.6378
vn 0.8413 -0.2079 0.4991
vn 0.6202 0.0584 0.7822
vn 0.6053 0.1881 0.7735
vn 0.7153 0.2980 0.6320
vn 0.4560 0.1109 0.8830
vn 0.4506 0.0065 0.8927
vn 0.1338 -0.7771 -0.6150
vn 0.1364 -0.7563 -0.6399
vn 0.1339 -0.7689 -0.6251
vn 0.6105 -0.1569 0.7763
vn 0.4537 -0.1228 0.8826
vn 0.3337 0.0370 0.9420
vn 0.1226 0.6896 -0.7138
vn 0.0999 0.4626 -0.8809
vn 0.0558 0.4079 -0.9113
vn 0.1207 0.7221 -0.6812
vn 0.5801 -0.2404 0.7782
vn 0.0467 0.1241 -0.9912
vn -0.1282 0.0261 -0.9914
vn -0.2211 0.3222 -0.9205
vn -0.4422 0.0339 -0.8963
vn -0.3300 -0.1842 -0.9258
vn 0.0205 -0.0431 -0.9989
vn 0.3195 0.0966 0.9427
vn 0.1363 -0.7555 -0.6408
vn -0.6040 0.1685 -0.7790
vn -0.7347 0.1860 -0.6524
vn -0.7017 0.3212 -0.6360
vn -0.5817 0.2856 -0.7616
vn -0.8377 0.2132 -0.5027
vn -0.7876 0.3567 -0.5025
vn -0.8853 0.3219 -0.3357
vn -0.9396 0.0734 -0.3344
vn -0.9517 0.2584 -0.1656
vn -0.9856 -0.0057 -0.1689
vn -0.8577 0.3869 -0.3385
vn -0.9146 0.4025 -0.0385
vn -0.9059 0.3790 -0.1891
vn -0.9453 0.3263 0.0044
vn -0.9414 0.3025 0.1490
vn 0.0414 0.9584 0.2823
vn 0.0548 0.9807 0.1878
vn 0.0452 0.9928 0.1108
vn 0.9023 -0.4237 0.0794
vn 0.9103 -0.4097 -0.0590
vn 0.9459 -0.3245 -0.0078
vn 0.9285 -0.3320 0.1666
vn 0.8866 -0.4063 0.2210
vn 0.0806 0.9963 0.0303
vn 0.9108 -0.2489 0.3292
vn 0.9743 -0.1554 0.1631
vn 0.8493 -0.3704 0.3762
vn 0.1089 0.9718 -0.2093
vn 0.1097 0.9172 -0.3829
vn 0.0986 0.9312 -0.3509
vn 0.7922 -0.3094 0.5260
vn 0.0644 0.9885 -0.1369
vn 0.0240 0.9738 -0.2260
vn 0.0173 0.9978 -0.0647
vn 0.7213 -0.2400 0.6497
vn 0.1179 0.8419 -0.5266
vn 0.1401 0.8304 -0.5393
vn 0.9975 -0.0707 -0.0019
vn 0.9864 0.1644 -0.0040
vn 0.9436 0.3312 -0.0026
vn 0.9077 0.4177 -0.0410
vn 0.9026 0.4231 0.0800
vn -0.9719 0.1722 0.1606
vn -0.5289 0.2298 -0.8170
vn 0.3214 0.0788 -0.9437
vn -0.0289 -0.6906 0.7227
vn -0.0531 -0.5268 0.8483
vn 0.0030 -0.7771 0.6293
vn -0.0355 0.3778 0.9252
vt 0.893120 0.369814
vt 0.892095 0.362744
vt 0.897694 0.365573
vt 0.886545 0.367606
vt 0.453034 0.689200
vt 0.486116 0.680994
vt 0.448086 0.694542
vt 0.926757 0.359772
vt 0.889080 0.374037
vt 0.224822 0.875675
vt 0.231520 0.876244
vt 0.228028 0.881399
vt 0.219339 0.880391
vt 0.881592 0.365153
vt 0.886174 0.360692
vt 0.232346 0.881796
vt 0.224030 0.887056
vt 0.444346 0.700737
vt 0.465685 0.709277
vt 0.466161 0.716145
vt 0.441031 0.714351
vt 0.232995 0.888233
vt 0.441814 0.707634
vt 0.469080 0.697381
vt 0.473910 0.690150
vt 0.492031 0.876814
vt 0.493568 0.882422
vt 0.485379 0.883339
vt 0.498392 0.887745
vt 0.486650 0.876110
vt 0.488720 0.889775
vt 0.482495 0.895485
vt 0.502989 0.894140
vt 0.492490 0.896033
vt 0.501098 0.880307
vt 0.506142 0.886982
vt 0.120154 0.693754
vt 0.097248 0.701738
vt 0.094289 0.694512
vt 0.510037 0.892635
vt 0.098251 0.707993
vt 0.214748 0.886190
vt 0.214054 0.879881
vt 0.881963 0.358398
vt 0.209802 0.885805
vt 0.123058 0.700138
vt 0.124161 0.706551
vt 0.097797 0.712795
vt 0.085253 0.685194
vt 0.079356 0.682319
vt 0.116394 0.688305
vt 0.090532 0.689705
vt 0.497423 0.875675
vt 0.981335 0.913817
vt 0.987056 0.913189
vt 0.986000 0.918800
vt 0.982545 0.922864
vt 0.971767 0.914745
vt 0.975232 0.913558
vt 0.208491 0.899063
vt 0.202963 0.899577
vt 0.206304 0.891815
vt 0.123426 0.714728
vt 0.215734 0.892948
vt 0.205924 0.906216
vt 0.220450 0.900570
vt 0.211211 0.906715
vt 0.201664 0.905903
vt 0.209018 0.913219
vt 0.122256 0.721209
vt 0.097027 0.718525
vt 0.096171 0.723170
vt 0.109404 0.730167
vt 0.120180 0.727933
vt 0.201980 0.912679
vt 0.208251 0.919665
vt 0.203597 0.919226
vt 0.117166 0.734274
vt 0.924894 0.177166
vt 0.927769 0.169080
vt 0.929353 0.176747
vt 0.215002 0.920578
vt 0.928665 0.185257
vt 0.924332 0.184744
vt 0.919488 0.181581
vt 0.923816 0.169473
vt 0.113768 0.739227
vt 0.093532 0.731650
vt 0.092122 0.735129
vt 0.088807 0.740419
vt 0.918266 0.171308
vt 0.109391 0.744166
vt 0.784396 0.974963
vt 0.780884 0.976097
vt 0.780884 0.971806
vt 0.516031 0.906428
vt 0.516031 0.914625
vt 0.508922 0.913891
vt 0.510743 0.919041
vt 0.501683 0.908256
vt 0.511348 0.906460
vt 0.499523 0.915400
vt 0.503376 0.920668
vt 0.977455 0.256094
vt 0.986280 0.251207
vt 0.983724 0.258231
vt 0.497763 0.926686
vt 0.491162 0.922702
vt 0.507418 0.924741
vt 0.979655 0.249102
vt 0.971417 0.251679
vt 0.970239 0.256984
vt 0.975990 0.260867
vt 0.970296 0.261347
vt 0.971483 0.245323
vt 0.977905 0.243173
vt 0.104514 0.747859
vt 0.080486 0.748221
vt 0.085422 0.744815
vt 0.985663 0.244257
vt 0.981806 0.238707
vt 0.974163 0.237881
vt 0.908457 0.194312
vt 0.884638 0.180205
vt 0.896926 0.184448
vt 0.887724 0.185650
vt 0.987926 0.240258
vt 0.881834 0.173082
vt 0.905746 0.181657
vt 0.907825 0.189977
vt 0.911994 0.185292
vt 0.912229 0.173130
vt 0.881592 0.169080
vt 0.970239 0.238709
vt 0.074509 0.750389
vt 0.915635 0.190946
vt 0.920305 0.193501
vt 0.913303 0.201225
vt 0.910082 0.197003
vt 0.226036 0.921763
vt 0.225958 0.927268
vt 0.216803 0.926196
vt 0.236431 0.927558
vt 0.236980 0.922488
vt 0.229928 0.915582
vt 0.220590 0.914872
vt 0.227836 0.908538
vt 0.217259 0.907329
vt 0.237439 0.916054
vt 0.236529 0.903090
vt 0.237439 0.909655
vt 0.231486 0.901800
vt 0.234289 0.894840
vt 0.442015 0.722352
vt 0.467399 0.721779
vt 0.443828 0.728611
vt 0.480060 0.908382
vt 0.480659 0.902608
vt 0.484026 0.904442
vt 0.485325 0.911157
vt 0.480102 0.912868
vt 0.468812 0.726194
vt 0.489454 0.917161
vt 0.491997 0.910150
vt 0.481962 0.920775
vt 0.473166 0.734101
vt 0.476592 0.738657
vt 0.455907 0.744723
vt 0.484141 0.925245
vt 0.457576 0.735274
vt 0.451213 0.740359
vt 0.446814 0.734571
vt 0.993220 0.241797
vt 0.996517 0.242905
vt 0.993401 0.250481
vt 0.480395 0.741882
vt 0.461700 0.748419
vt 0.486116 0.745356
vt 0.464899 0.749817
vt 0.494894 0.902752
vt 0.504355 0.900972
vt 0.510559 0.899652
vt 0.512739 0.896858
vt 0.514871 0.902096
vt 0.756388 0.971806
vt 0.759820 0.971806
vt 0.757104 0.976903
vt 0.225447 0.894057
vt 0.970239 0.913189
vt 0.074509 0.680994
vt 0.928441 0.358398
vt 0.110951 0.683618
s 1
usemtl pleuraldeles_skin
f 1/1/1 2/2/2 4/3/3
f 6/4/4 2/2/2 1/1/1
f 1/5/5 3/6/6 5/7/7
f 4/3/8 3/8/6 1/1/5
f 6/4/4 1/1/1 5/9/9
f 6/10/4 5/11/9 9/12/10
f 6/10/4 9/12/10 7/13/11
f 7/14/11 8/15/12 6/4/4
f 6/4/4 8/15/12 2/2/2
f 9/12/10 5/11/9 11/16/13
f 10/17/14 7/13/11 9/12/10
f 11/16/13 10/17/14 9/12/10
f 11/18/15 15/19/16 12/20/17
f 13/21/18 11/18/15 12/20/17
f 10/17/14 11/16/13 14/22/19
f 13/21/18 14/23/20 11/18/15
f 5/7/7 3/6/6 11/18/15
f 17/24/21 15/19/16 11/18/15
f 11/18/15 3/6/6 16/25/22
f 11/18/15 16/25/22 17/24/21
f 20/26/23 18/27/24 17/28/25
f 21/29/26 17/28/25 18/27/24
f 20/26/23 17/28/25 16/30/27
f 17/28/25 19/31/28 15/32/29
f 21/29/26 19/31/28 17/28/25
f 24/33/30 22/34/31 21/29/26
f 22/34/31 19/31/28 21/29/26
f 21/29/26 18/27/24 23/35/32
f 21/29/26 23/35/32 25/36/33
f 21/29/26 25/36/33 24/33/30
f 27/37/34 25/38/35 23/39/36
f 25/36/33 26/40/37 24/33/30
f 27/37/34 26/41/38 25/38/35
f 29/42/39 27/43/40 7/13/11
f 8/15/12 7/14/11 27/44/40
f 28/45/41 27/43/40 29/42/39
f 28/46/42 32/47/43 27/37/34
f 27/37/34 32/47/43 30/48/44
f 27/37/34 30/48/44 26/41/38
f 33/49/45 31/50/46 27/37/34
f 31/50/46 8/51/47 27/37/34
f 34/52/48 33/49/45 27/37/34
f 27/37/34 23/39/36 34/52/48
f 23/35/32 20/26/23 34/53/49
f 33/54/50 34/55/49 20/56/23
f 33/54/50 20/56/23 16/57/27
f 33/54/50 3/58/51 31/59/52
f 33/54/50 16/57/27 3/58/51
f 37/60/53 35/61/54 32/62/55
f 32/47/43 35/63/56 30/48/44
f 36/64/57 32/62/55 28/45/41
f 37/60/53 32/62/55 36/64/57
f 40/65/58 35/61/54 37/60/53
f 38/66/59 37/60/53 36/64/57
f 38/66/59 39/67/60 37/60/53
f 37/60/53 39/67/60 40/65/58
f 42/68/61 40/65/58 41/69/62
f 39/67/60 41/69/62 40/65/58
f 40/65/58 42/68/61 35/61/54
f 35/63/56 42/70/63 45/71/64
f 42/70/63 43/72/65 45/71/64
f 43/72/65 42/70/63 44/73/66
f 42/70/63 46/74/67 44/73/66
f 42/68/61 41/69/62 46/75/68
f 48/76/69 46/75/68 41/69/62
f 48/76/69 47/77/70 46/75/68
f 46/74/67 47/78/71 44/73/66
f 50/79/72 47/80/70 48/81/69
f 41/69/62 49/82/73 48/76/69
f 49/83/73 50/79/72 48/81/69
f 49/83/73 51/84/74 50/79/72
f 51/84/74 52/85/75 50/79/72
f 52/85/75 53/86/76 50/79/72
f 50/79/72 53/86/76 47/80/70
f 53/87/77 57/88/78 44/73/66
f 47/78/71 53/87/77 44/73/66
f 53/87/77 54/89/79 57/88/78
f 54/89/79 53/87/77 56/90/80
f 52/85/75 55/91/81 53/86/76
f 53/87/77 55/92/82 56/90/80
f 57/88/78 43/72/65 44/73/66
f 57/93/83 54/94/84 58/95/85
f 43/96/86 57/97/83 59/98/87
f 58/99/85 59/98/87 57/97/83
f 59/98/87 60/100/88 62/101/89
f 61/102/90 60/100/88 59/98/87
f 63/103/91 61/102/90 59/98/87
f 59/98/87 58/99/85 63/103/91
f 59/98/87 62/101/89 43/96/86
f 66/104/92 64/105/93 63/106/91
f 64/107/93 65/108/94 63/103/91
f 65/108/94 61/102/90 63/103/91
f 66/109/92 63/103/91 58/99/85
f 64/105/93 66/104/92 67/110/95
f 66/104/92 68/111/96 67/110/95
f 68/111/96 66/104/92 56/112/97
f 58/113/85 54/114/84 66/104/92
f 54/114/84 56/112/97 66/104/92
f 68/111/96 69/115/98 71/116/99
f 70/117/100 69/118/101 68/119/102
f 68/111/96 71/116/99 67/110/95
f 68/119/102 56/90/80 70/117/100
f 67/110/95 71/116/99 72/120/103
f 72/120/103 71/116/99 74/121/104
f 71/116/99 69/115/98 73/122/105
f 73/122/105 74/121/104 71/116/99
f 75/123/106 74/124/107 77/125/108
f 74/124/107 75/123/106 76/126/109
f 74/121/104 76/127/110 72/120/103
f 77/125/108 74/124/107 73/128/111
f 77/125/108 73/128/111 79/129/112
f 78/130/113 75/123/106 77/125/108
f 77/125/108 79/129/112 78/130/113
f 78/130/113 79/129/112 80/131/114
f 70/132/115 80/131/114 79/129/112
f 79/129/112 81/133/116 70/132/115
f 73/128/111 81/133/116 79/129/112
f 69/115/98 81/134/117 73/122/105
f 70/117/100 81/135/118 69/118/101
f 52/85/75 80/131/114 70/132/115
f 78/130/113 80/131/114 82/136/119
f 80/131/114 52/85/75 82/136/119
f 85/137/120 82/136/119 52/85/75
f 84/138/121 83/139/122 82/136/119
f 78/130/113 82/136/119 83/139/122
f 84/138/121 82/136/119 85/137/120
f 86/140/123 85/141/120 51/142/74
f 85/137/120 52/85/75 51/84/74
f 84/143/121 85/141/120 86/140/123
f 87/144/124 86/140/123 88/145/125
f 84/143/121 86/140/123 87/144/124
f 86/140/123 89/146/126 88/145/125
f 89/146/126 86/140/123 49/82/73
f 86/140/123 51/142/74 49/82/73
f 49/82/73 41/69/62 89/146/126
f 88/145/125 89/146/126 90/147/127
f 89/146/126 91/148/128 90/147/127
f 41/69/62 91/148/128 89/146/126
f 91/148/128 38/66/59 90/147/127
f 38/66/59 91/148/128 39/67/60
f 41/69/62 39/67/60 91/148/128
f 88/145/125 90/147/127 93/149/129
f 95/150/130 92/151/131 90/147/127
f 93/149/129 90/147/127 92/151/131
f 90/147/127 38/66/59 94/152/132
f 95/150/130 90/147/127 94/152/132
f 13/153/133 95/150/130 94/152/132
f 95/154/134 13/21/18 12/20/17
f 12/20/17 96/155/135 95/154/134
f 95/154/134 96/155/135 92/156/136
f 96/157/137 12/158/138 98/159/139
f 99/160/140 97/161/141 96/157/137
f 92/156/136 96/155/135 97/162/142
f 98/159/139 99/160/140 96/157/137
f 99/160/140 101/163/143 97/161/141
f 101/163/143 99/160/140 100/164/144
f 100/164/144 99/160/140 98/159/139
f 61/102/90 101/163/143 100/164/144
f 101/163/143 65/108/94 102/165/145
f 65/108/94 101/163/143 61/102/90
f 101/163/143 102/165/145 97/161/141
f 102/166/146 103/167/147 84/168/148
f 103/169/149 102/165/145 65/108/94
f 104/170/150 97/162/142 102/166/146
f 102/166/146 84/168/148 104/170/150
f 104/170/150 92/156/136 97/162/142
f 87/171/151 93/172/152 104/170/150
f 93/172/152 92/156/136 104/170/150
f 87/171/151 104/170/150 84/168/148
f 105/173/153 103/174/149 65/175/94
f 105/176/154 83/177/155 103/167/147
f 84/168/148 103/167/147 83/177/155
f 64/105/93 105/173/153 65/175/94
f 72/120/103 76/127/110 105/173/153
f 105/176/154 76/178/109 75/179/106
f 75/179/106 83/177/155 105/176/154
f 105/173/153 64/105/93 72/120/103
f 60/100/88 100/164/144 106/180/156
f 100/164/144 98/159/139 106/180/156
f 61/102/90 100/164/144 60/100/88
f 22/34/31 106/180/156 98/159/139
f 106/180/156 22/34/31 24/33/30
f 60/100/88 106/180/156 107/181/157
f 106/180/156 24/33/30 107/181/157
f 26/40/37 108/182/158 107/181/157
f 62/101/89 107/181/157 108/182/158
f 26/40/37 107/181/157 24/33/30
f 62/101/89 60/100/88 107/181/157
f 108/182/158 26/40/37 30/183/159
f 62/101/89 108/182/158 45/184/160
f 108/185/158 30/186/159 45/187/160
f 15/32/29 98/159/139 12/158/138
f 22/34/31 98/159/139 15/32/29
f 109/188/161 94/152/132 38/66/59
f 109/188/161 13/153/133 94/152/132
f 109/188/161 10/17/14 14/22/19
f 109/188/161 36/64/57 10/17/14
f 38/66/59 36/64/57 109/188/161
f 109/188/161 14/22/19 13/153/133
f 87/144/124 88/145/125 93/149/129
f 75/123/162 78/130/113 83/139/122
f 64/105/93 67/110/95 72/120/103
f 56/90/80 55/92/82 70/117/100
f 52/85/75 70/132/115 55/91/81
f 43/96/86 62/101/89 45/184/160
f 30/48/44 35/63/56 45/71/64
f 29/42/39 10/17/14 36/64/57
f 36/64/57 28/45/41 29/42/39
f 31/59/52 3/58/51 110/189/163
f 31/50/46 110/190/164 8/51/47
f 4/3/165 2/2/166 110/191/164
f 2/192/166 8/51/47 110/190/164
f 4/3/8 110/191/167 3/8/6
f 29/42/39 7/13/11 10/17/14
f 23/35/32 18/27/24 20/26/23
f 19/31/28 22/34/31 15/32/29
