# Blender 4.1.1
# www.blender.org
mtllib link_body_09.mtl
o link_body_09
v 1.901981 -7.860041 -5.354805
v -1.247425 -7.753144 -5.275008
v -2.643450 -6.372485 -6.277185
v -0.893838 -8.716293 -3.592197
v 1.122319 -8.524916 -3.738727
v 0.892106 -7.004931 -5.976763
v -1.303193 -4.702988 -6.495920
v -0.505433 -6.663419 -5.354805
v -1.938558 -5.002047 -5.517839
v -1.617982 -6.805044 -3.712735
v -1.222042 -8.033119 -0.872719
v -3.368452 -4.122684 -3.776297
v -2.943821 -5.960147 -1.972896
v -2.940107 -6.271258 -0.000001
v -4.402815 -2.595387 -1.896075
v -4.187744 -3.763485 1.020254
v -2.916056 -6.015624 1.900114
v -4.681223 -0.829241 1.822731
v -3.912395 -2.504597 3.776297
v -2.576467 -5.598491 3.777493
v -4.807928 -1.117605 -0.000001
v -4.492967 -0.569906 -2.980841
v -4.554399 2.647101 0.000000
v -4.363910 2.765128 1.900114
v -4.345376 2.855329 -1.822732
v -3.119591 6.008812 -0.000000
v -1.366451 7.940319 -0.809169
v -2.866034 6.073878 1.972896
v -2.905962 6.030377 -1.900114
v -1.416145 7.003812 -3.712737
v -2.295540 5.139209 -4.946986
v -3.932861 2.657668 -3.652288
v -3.484458 0.695421 -5.335366
v -2.965132 3.066835 -5.354805
v -2.124644 3.055951 -6.540635
v -2.667966 -1.220545 -6.509350
v -0.254708 6.008739 -6.281620
v -4.377873 4.482129 -6.492558
v -2.638998 6.377314 -6.275626
v -5.508410 2.172628 -6.456600
v -5.839647 3.666779 -5.306988
v -4.377838 -4.482710 -6.492149
v -4.225785 6.069343 -5.306987
v -4.551961 6.899148 -3.657284
v -2.596531 7.784144 -4.562452
v -6.470352 4.213679 -3.597741
v -6.860558 4.400449 -1.868023
v -7.300040 0.844973 -3.663798
v -7.738866 1.079402 -1.867755
v -5.487111 6.584530 -1.852274
v -5.627117 6.644444 1.031984
v -3.567356 8.334905 -1.757473
v -7.042175 4.438146 -0.079039
v -4.461794 7.829463 1.061601
v -2.569233 8.959955 0.201075
v -3.091276 7.938844 3.649857
v -5.586130 5.700931 3.657283
v -3.086084 8.550338 1.768329
v -6.223276 3.636940 4.719687
v -6.869596 4.416909 1.871735
v -4.176833 6.169005 5.272843
v -3.523777 5.283908 6.680975
v -2.453117 7.322753 5.275570
v -5.135068 2.733911 6.767657
v -5.588040 -0.541897 6.728837
v -3.441745 3.158872 7.953806
v -6.572997 0.637416 5.297644
v -4.015260 1.216407 8.108398
v -0.844702 -0.485288 8.312092
v -4.056734 -1.120406 8.096939
v -0.698086 1.520516 8.293162
v -2.619786 2.360168 6.281804
v -0.045147 3.555514 8.071288
v -2.444747 -0.603712 6.859993
v -1.113554 4.418104 6.853370
v 0.706819 5.937130 6.983797
v -2.043711 4.986628 5.377970
v 0.024958 7.121159 5.264962
v -0.483602 7.767360 3.594921
v -2.484684 5.709858 3.776298
v -3.879958 2.742701 3.712735
v -3.860006 0.413404 4.711866
v -3.166280 -2.466416 5.377971
v -1.908983 -5.126568 5.424398
v -1.451022 -3.836970 6.953373
v -0.440496 -2.355441 8.260948
v 0.685465 -6.117414 6.802893
v 0.310287 -4.297082 7.882566
v -2.322222 -4.877186 7.629274
v -1.944417 -6.263718 6.732446
v -3.445614 -3.145479 7.956671
v -3.597050 -5.259611 6.650984
v -2.168401 -6.184864 6.713571
v -2.600372 -7.341715 5.205194
v -2.169611 -6.285467 6.604103
v -2.157493 -6.210279 6.697489
v -5.037426 -5.049948 5.343375
v -4.265383 -7.575768 2.701639
v -3.009148 -7.955611 3.657325
v 0.045746 -7.129468 5.258195
v -5.694942 -5.514828 3.721074
v -6.029464 -5.925733 1.871736
v -7.053618 -2.406365 3.657284
v -7.460231 -2.705818 1.871736
v -6.275931 -2.429556 5.297644
v -4.951899 -3.105052 6.757522
v -7.755246 0.926039 1.871737
v -7.562425 -2.927586 -0.000001
v -7.920384 0.768079 -0.000001
v -7.468070 -2.642770 -1.943429
v -6.239554 -5.827126 -1.130177
v -5.510196 -5.120728 -4.676892
v -7.010905 -2.467172 -3.719897
v -6.289923 -2.362308 -5.306990
v -6.589354 0.685028 -5.255676
v -5.785605 -0.684176 -6.433337
v -5.326350 -2.647629 -6.464040
v -3.091902 -6.941435 -5.352542
v -4.687118 -6.725435 -3.719895
v -2.797308 -8.103937 -3.633366
v -3.694094 -8.274938 -1.754548
v -2.540838 -8.964282 0.196895
v -1.361024 -9.174546 -1.855692
v -4.932528 -7.475943 0.000000
v -3.089785 -8.547214 1.779167
v 0.616272 -8.940545 -1.662114
v -0.002663 -8.822792 -0.199992
v -0.548731 -8.305857 1.884713
v -0.537114 -7.752881 3.553085
v -7.284089 1.015973 3.657282
v -0.532807 8.292161 1.933613
v 0.023905 8.830938 -0.243435
v 0.593979 8.943058 -1.677128
v -1.361034 9.174550 -1.855660
v -0.871844 8.693884 -3.649364
v 1.295606 8.463954 -3.989899
v -1.145481 7.795954 -5.250583
v 1.069772 7.171048 -5.892958
v -1.943830 6.264727 6.731754
v -2.314648 4.881646 7.630243
v -2.168400 6.184863 6.713571
v -2.157492 6.210278 6.697487
v -2.169611 6.285475 6.604090
v -3.164655 -2.391899 -5.425338
vn -0.2389 -0.4678 -0.8509
vn -0.0135 -0.8076 -0.5895
vn -0.1515 -0.7728 -0.6163
vn -0.0992 -0.9291 -0.3562
vn -0.0257 -0.5426 -0.8396
vn 0.0790 -0.9519 -0.2962
vn 0.4082 0.7319 0.5456
vn 0.4681 0.7979 0.3799
vn 0.3607 0.7884 0.4984
vn 0.5087 0.6714 0.5389
vn 0.6534 0.4518 0.6074
vn 0.0182 -0.1047 -0.9943
vn 0.7185 0.4741 0.5089
vn 0.6482 0.6773 0.3479
vn 0.6202 0.7786 0.0952
vn 0.8214 0.5400 0.1834
vn 0.8630 0.3758 0.3377
vn 0.9360 0.3406 -0.0890
vn 0.8088 0.5881 -0.0048
vn 0.9520 0.2560 0.1678
vn 0.7987 0.5733 -0.1830
vn 0.7719 0.5278 -0.3545
vn 0.9972 0.0746 0.0075
vn 0.9840 0.0531 -0.1702
vn 0.9147 0.2391 -0.3259
vn 0.9739 -0.2269 0.0028
vn 0.9642 0.0408 0.2620
vn 0.9544 -0.2475 -0.1666
vn 0.8417 -0.5399 -0.0073
vn 0.9535 -0.2582 0.1556
vn 0.8194 -0.5413 0.1886
vn 0.6339 -0.7695 0.0772
vn 0.8017 -0.5690 -0.1830
vn 0.7374 -0.4842 0.4709
vn 0.6108 -0.7037 0.3628
vn 0.9131 -0.2489 0.3229
vn 0.8585 -0.0624 0.5090
vn 0.8252 -0.2722 0.4948
vn 0.7435 -0.2841 0.6054
vn 0.8127 0.1028 0.5735
vn -0.0096 -0.0016 -1.0000
vn -0.0020 0.0391 -0.9992
vn -0.0028 0.0292 -0.9996
vn 0.5562 -0.6256 0.5470
vn 0.0332 0.2115 -0.9768
vn -0.2257 0.4714 -0.8525
vn -0.6572 0.4572 -0.5993
vn -0.6112 0.5883 -0.5294
vn -0.0335 -0.0001 -0.9994
vn -0.0099 -0.0340 -0.9994
vn -0.7928 0.3481 -0.5004
vn -0.7949 0.2094 -0.5695
vn -0.8569 0.3900 -0.3370
vn -0.6522 0.6709 -0.3530
vn -0.3843 0.8041 -0.4535
vn -0.9413 0.0768 -0.3287
vn -0.7585 0.6303 -0.1655
vn -0.9812 0.1002 -0.1648
vn -0.9028 0.3945 -0.1711
vn -0.9200 0.3919 -0.0105
vn -0.7732 0.6273 0.0932
vn -0.6271 0.7714 0.1082
vn -0.5122 0.8407 -0.1759
vn -0.2143 0.9711 0.1051
vn -0.5248 0.8339 0.1709
vn -0.7501 0.5644 0.3448
vn -0.5833 0.7325 0.3509
vn 0.1820 0.9350 0.3044
vn 0.0734 0.9476 0.3108
vn -0.9056 0.3838 0.1805
vn -0.8306 0.3399 0.4412
vn -0.6015 0.6106 0.5152
vn -0.7119 0.2697 0.6484
vn -0.5288 0.5194 0.6712
vn -0.1968 0.8404 0.5049
vn -0.8675 0.0546 0.4944
vn -0.7617 -0.0445 0.6464
vn -0.6679 0.1145 0.7354
vn -0.3476 0.2668 0.8989
vn -0.0636 0.0422 0.9971
vn -0.0597 -0.0147 0.9981
vn -0.0551 0.0730 0.9958
vn -0.0683 -0.0401 0.9969
vn -0.6641 -0.1146 0.7388
vn 0.6660 -0.1647 -0.7275
vn 0.7713 -0.2206 -0.5970
vn 0.5973 -0.4353 -0.6736
vn 0.7543 0.0551 -0.6542
vn 0.5650 -0.3531 -0.7457
vn -0.0072 0.2627 0.9648
vn 0.6690 0.0527 -0.7414
vn 0.5107 -0.5557 -0.6561
vn 0.5923 -0.6173 -0.5179
vn 0.7130 -0.4835 -0.5078
vn 0.7608 -0.5420 -0.3569
vn 0.6525 -0.6780 -0.3385
vn 0.0737 0.8810 0.4674
vn 0.0718 0.9451 0.3188
vn 0.0448 0.6371 0.7695
vn 0.9047 -0.2613 -0.3365
vn 0.9095 -0.0340 -0.4143
vn 0.8326 0.2349 -0.5016
vn 0.6408 0.3715 -0.6719
vn 0.6873 0.5076 -0.5196
vn 0.5058 0.4510 -0.7354
vn 0.6181 0.2312 -0.7513
vn 0.5328 0.5553 -0.6386
vn -0.0556 -0.1360 0.9891
vn -0.2001 -0.4315 0.8796
vn -0.0089 -0.3658 0.9306
vn 0.0331 -0.6779 0.7345
vn -0.3482 -0.6028 0.7180
vn -0.1029 -0.6914 0.7152
vn -0.5275 -0.5350 0.6600
vn -0.3470 -0.2625 0.9004
vn -0.2614 -0.8262 0.4990
vn -0.3299 -0.7030 0.6300
vn -0.2797 -0.6577 0.6994
vn -0.6931 -0.5092 0.5102
vn -0.7701 -0.5233 0.3650
vn -0.2498 -0.8940 0.3720
vn -0.6102 -0.7395 0.2841
vn 0.0670 -0.8873 0.4564
vn -0.8403 -0.2293 0.4912
vn -0.8254 -0.5403 0.1638
vn -0.9551 -0.2441 0.1677
vn -0.9186 -0.2173 0.3302
vn -0.6895 -0.3028 0.6579
vn -0.9828 0.0840 0.1644
vn -0.9646 -0.2639 0.0041
vn -0.9980 0.0635 -0.0000
vn -0.9547 -0.2373 -0.1793
vn -0.8377 -0.5333 -0.1181
vn -0.7545 -0.4850 -0.4421
vn -0.9160 -0.2273 -0.3305
vn -0.8421 -0.2159 -0.4942
vn -0.8706 0.0649 -0.4876
vn -0.8277 -0.0604 -0.5580
vn -0.7621 -0.2855 -0.5811
vn -0.0717 -0.0012 -0.9974
vn -0.0316 0.0003 -0.9995
vn -0.6550 -0.4853 -0.5792
vn -0.6585 -0.6669 -0.3488
vn -0.4682 -0.6937 -0.5474
vn -0.4036 -0.8354 -0.3732
vn -0.5322 -0.8291 -0.1710
vn -0.2197 -0.9696 0.1078
vn -0.1034 -0.9891 -0.1047
vn -0.6780 -0.7351 -0.0034
vn -0.2540 -0.9426 0.2167
vn 0.0928 -0.9791 0.1809
vn 0.1215 -0.9917 -0.0419
vn 0.0843 -0.9542 0.2870
vn 0.5294 0.8476 0.0354
vn 0.6640 0.7327 -0.1491
vn 0.5117 0.8234 0.2451
vn 0.6586 0.6722 -0.3383
vn 0.0907 -0.9452 0.3137
vn 0.5908 0.6166 -0.5204
vn -0.9416 0.0925 0.3237
vn 0.0746 0.9558 0.2844
vn 0.6546 -0.7392 -0.1585
vn 0.0914 0.9796 0.1790
vn 0.5289 -0.8480 0.0351
vn -0.1076 0.9880 -0.1112
vn 0.5012 -0.8311 0.2409
vn 0.1215 0.9916 -0.0450
vn -0.0969 0.9273 -0.3614
vn 0.0681 0.9108 -0.4072
vn -0.1084 0.7795 -0.6170
vn 0.4710 -0.7400 0.4802
vn 0.4673 -0.7941 0.3886
vn 0.0328 0.6798 -0.7327
vn -0.1057 0.6942 0.7120
vn -0.1977 0.4336 0.8791
vn -0.3523 0.6059 0.7133
vn -0.2798 0.6574 0.6997
vn -0.3658 0.6947 0.6194
vn 0.8383 0.2266 0.4958
vt 0.384818 0.096731
vt 0.374503 0.126359
vt 0.376475 0.105521
vt 0.680398 0.092482
vt 0.689148 0.088795
vt 0.692183 0.109512
vt 0.379734 0.119952
vt 0.682810 0.105625
vt 0.358576 0.679898
vt 0.364809 0.668091
vt 0.366948 0.677686
vt 0.349872 0.674954
vt 0.340288 0.680107
vt 0.393471 0.106223
vt 0.337793 0.674111
vt 0.344728 0.664798
vt 0.351971 0.649849
vt 0.336516 0.653768
vt 0.328876 0.662956
vt 0.465247 0.387578
vt 0.475875 0.403345
vt 0.463322 0.398440
vt 0.338863 0.643030
vt 0.475161 0.377436
vt 0.482424 0.387181
vt 0.340215 0.632647
vt 0.327396 0.635829
vt 0.466909 0.419520
vt 0.464533 0.408936
vt 0.489965 0.397423
vt 0.491454 0.407561
vt 0.482716 0.418762
vt 0.510847 0.397739
vt 0.493582 0.381225
vt 0.511449 0.408339
vt 0.530555 0.398813
vt 0.512378 0.387841
vt 0.531074 0.388484
vt 0.542784 0.395580
vt 0.530913 0.409853
vt 0.527061 0.372058
vt 0.537927 0.379510
vt 0.846933 0.675602
vt 0.850474 0.664462
vt 0.862548 0.671134
vt 0.511861 0.378021
vt 0.501675 0.368962
vt 0.515147 0.369290
vt 0.515957 0.363305
vt 0.970239 0.495479
vt 0.994194 0.495479
vt 0.979854 0.502461
vt 0.413313 0.098458
vt 0.445569 0.089224
vt 0.436701 0.103635
vt 0.978657 0.708695
vt 0.970239 0.700823
vt 0.990762 0.700823
vt 0.452162 0.117132
vt 0.455250 0.101461
vt 0.454153 0.090869
vt 0.433306 0.080879
vt 0.396045 0.085920
vt 0.424173 0.350834
vt 0.432205 0.357504
vt 0.417490 0.357387
vt 0.440624 0.350804
vt 0.425224 0.341237
vt 0.443915 0.341549
vt 0.453578 0.346723
vt 0.446389 0.356340
vt 0.405910 0.341828
vt 0.439780 0.331468
vt 0.405868 0.331807
vt 0.425070 0.331594
vt 0.424701 0.321664
vt 0.439579 0.315478
vt 0.448658 0.315347
vt 0.453707 0.331018
vt 0.459404 0.320242
vt 0.455891 0.311541
vt 0.434756 0.301044
vt 0.452674 0.301185
vt 0.590160 0.644218
vt 0.587686 0.635427
vt 0.588790 0.624900
vt 0.424950 0.310890
vt 0.422532 0.295285
vt 0.440747 0.292236
vt 0.420684 0.284176
vt 0.437882 0.284612
vt 0.620327 0.345748
vt 0.613915 0.357188
vt 0.608961 0.352871
vt 0.451129 0.292328
vt 0.406322 0.292336
vt 0.402826 0.284656
vt 0.586368 0.356124
vt 0.594815 0.363551
vt 0.576672 0.366523
vt 0.597139 0.352332
vt 0.576980 0.335041
vt 0.588089 0.334089
vt 0.573429 0.356373
vt 0.663338 0.122392
vt 0.668149 0.109512
vt 0.679512 0.119523
vt 0.651686 0.110741
vt 0.674637 0.126694
vt 0.599376 0.329769
vt 0.652228 0.121444
vt 0.687939 0.131607
vt 0.694649 0.126975
vt 0.510265 0.433609
vt 0.525286 0.429111
vt 0.522817 0.437828
vt 0.538828 0.429928
vt 0.529048 0.420026
vt 0.542115 0.420419
vt 0.609816 0.616059
vt 0.605431 0.625381
vt 0.593930 0.615839
vt 0.616284 0.606380
vt 0.511547 0.418643
vt 0.498670 0.424069
vt 0.483400 0.428078
vt 0.494089 0.436792
vt 0.477207 0.437828
vt 0.469900 0.429051
vt 0.631184 0.129145
vt 0.633792 0.117389
vt 0.641885 0.124151
vt 0.347883 0.614382
vt 0.349654 0.606380
vt 0.366948 0.609763
vt 0.621215 0.131607
vt 0.566632 0.332333
vt 0.552671 0.344793
vt 0.555907 0.327313
vt 0.545880 0.324774
vt 0.545472 0.343735
vt 0.545038 0.342246
vt 0.550579 0.353237
vt 0.562230 0.352285
vt 0.630405 0.087015
vt 0.622233 0.090661
vt 0.621215 0.081015
vt 0.622854 0.090599
vt 0.545332 0.343662
vt 0.622329 0.092166
vt 0.622335 0.090727
vt 0.627174 0.070581
vt 0.635643 0.065227
vt 0.638700 0.083382
vt 0.642842 0.074368
vt 0.624060 0.109512
vt 0.632232 0.104442
vt 0.377380 0.301781
vt 0.381388 0.292839
vt 0.391488 0.292676
vt 0.645611 0.061833
vt 0.387149 0.311515
vt 0.374503 0.312015
vt 0.389651 0.301654
vt 0.566273 0.371039
vt 0.562486 0.362267
vt 0.551778 0.362780
vt 0.404864 0.311120
vt 0.385844 0.321885
vt 0.403719 0.321475
vt 0.387634 0.332627
vt 0.374600 0.328596
vt 0.380275 0.348253
vt 0.389810 0.342502
vt 0.392307 0.351369
vt 0.407032 0.350747
vt 0.402222 0.357504
vt 0.406598 0.080309
vt 0.408485 0.074076
vt 0.417645 0.077989
vt 0.392840 0.078256
vt 0.681828 0.060578
vt 0.677582 0.066991
vt 0.661904 0.058361
vt 0.970239 0.649661
vt 0.981124 0.643808
vt 0.991578 0.649661
vt 0.990381 0.730268
vt 0.970239 0.730268
vt 0.971912 0.726231
vt 0.687896 0.076421
vt 0.678940 0.079786
vt 0.667926 0.075207
vt 0.658297 0.084291
vt 0.670577 0.090694
vt 0.657111 0.068091
vt 0.649072 0.081678
vt 0.662521 0.100712
vt 0.671080 0.103807
vt 0.650518 0.098444
vt 0.361557 0.647579
vt 0.359070 0.635543
vt 0.364301 0.656247
vt 0.359586 0.626380
vt 0.641250 0.099555
vt 0.343191 0.622711
vt 0.363525 0.617625
vt 0.693221 0.078622
vt 0.406468 0.301287
vt 0.604148 0.634669
vt 0.825059 0.687820
vt 0.829886 0.670462
vt 0.833704 0.684947
vt 0.606631 0.646862
vt 0.846170 0.685183
vt 0.597323 0.655737
vt 0.854797 0.686682
vt 0.609991 0.654862
vt 0.592174 0.670357
vt 0.601279 0.665612
vt 0.615273 0.667627
vt 0.585074 0.654860
vt 0.601235 0.674283
vt 0.878538 0.683773
vt 0.868485 0.687820
vt 0.616263 0.677898
vt 0.457960 0.126359
vt 0.878539 0.674923
vt 0.462326 0.111930
vt 0.594524 0.679570
vt 0.599084 0.607624
vt 0.612621 0.324774
vt 0.614411 0.342385
vt 0.606708 0.344854
vt 0.613966 0.343876
vt 0.614108 0.343804
vt 0.614528 0.343883
vt 0.868012 0.663998
vt 0.492009 0.362951
vt 0.485023 0.368552
vt 0.987052 0.655451
vt 0.970239 0.649661
vt 0.991549 0.649661
vt 0.970508 0.654225
vt 0.325447 0.671990
s 1
usemtl pleuraldeles_skin
f 3/1/1 1/2/2 2/3/3
f 4/4/4 2/5/3 1/6/2
f 1/2/2 3/1/1 6/7/5
f 5/8/6 4/4/4 1/6/2
f 6/9/7 5/10/8 1/11/9
f 5/10/8 6/9/7 8/12/10
f 8/12/10 6/9/7 7/13/11
f 6/7/5 3/1/1 7/14/12
f 8/12/10 7/13/11 9/15/13
f 10/16/14 8/12/10 9/15/13
f 5/10/8 8/12/10 10/16/14
f 11/17/15 5/10/8 10/16/14
f 13/18/16 11/17/15 10/16/14
f 10/16/14 9/15/13 12/19/17
f 13/18/16 10/16/14 12/19/17
f 13/20/16 16/21/18 14/22/19
f 11/17/15 13/18/16 14/23/19
f 13/20/16 12/24/17 15/25/20
f 13/20/16 15/25/20 16/21/18
f 17/26/21 14/23/19 16/27/18
f 20/28/22 17/29/21 16/21/18
f 16/21/18 21/30/23 18/31/24
f 16/21/18 18/31/24 19/32/25
f 15/25/20 21/30/23 16/21/18
f 20/28/22 16/21/18 19/32/25
f 18/31/24 21/30/23 23/33/26
f 22/34/27 23/33/26 21/30/23
f 15/25/20 22/34/27 21/30/23
f 18/31/24 23/33/26 24/35/28
f 24/35/28 23/33/26 26/36/29
f 25/37/30 26/36/29 23/33/26
f 22/34/27 25/37/30 23/33/26
f 29/38/31 27/39/32 26/36/29
f 28/40/33 26/36/29 27/39/32
f 24/35/28 26/36/29 28/40/33
f 25/37/30 29/38/31 26/36/29
f 29/38/31 31/41/34 30/42/35
f 27/43/32 29/44/31 30/45/35
f 32/46/36 29/38/31 25/37/30
f 32/46/36 31/41/34 29/38/31
f 22/34/27 32/46/36 25/37/30
f 22/34/27 33/47/37 32/46/36
f 32/46/36 33/47/37 34/48/38
f 32/46/36 34/48/38 31/41/34
f 35/49/39 34/48/38 33/47/37
f 34/48/38 35/49/39 31/41/34
f 36/50/40 35/51/39 33/52/37
f 36/53/41 38/54/42 35/55/43
f 31/56/34 35/57/39 37/58/44
f 38/54/42 37/59/45 35/55/43
f 39/60/46 37/59/45 38/54/42
f 39/60/46 38/54/47 43/61/48
f 40/62/49 38/54/42 42/63/50
f 41/64/51 38/65/47 40/66/52
f 38/65/47 41/64/51 43/67/48
f 38/54/42 36/53/41 42/63/50
f 43/67/48 46/68/53 44/69/54
f 44/69/54 45/70/55 43/67/48
f 39/71/46 43/67/48 45/70/55
f 43/67/48 41/64/51 46/68/53
f 41/64/51 48/72/56 46/68/53
f 46/68/53 50/73/57 44/69/54
f 46/68/53 49/74/58 47/75/59
f 46/68/53 47/75/59 50/73/57
f 46/68/53 48/72/56 49/74/58
f 50/73/57 53/76/60 51/77/61
f 50/73/57 51/77/61 54/78/62
f 50/73/57 47/75/59 53/76/60
f 44/69/54 50/73/57 52/79/63
f 50/73/57 54/78/62 52/79/63
f 52/79/63 54/78/62 55/80/64
f 58/81/65 55/80/64 54/78/62
f 54/78/62 57/82/66 56/83/67
f 56/83/67 58/81/65 54/78/62
f 54/78/62 51/77/61 57/82/66
f 55/84/64 58/85/68 56/86/69
f 60/87/70 59/88/71 57/82/66
f 57/82/66 59/88/71 61/89/72
f 51/77/61 60/87/70 57/82/66
f 57/82/66 61/89/72 56/83/67
f 61/89/72 64/90/73 62/91/74
f 63/92/75 61/93/72 62/94/74
f 61/89/72 63/95/75 56/83/67
f 61/89/72 59/88/71 64/90/73
f 67/96/76 65/97/77 64/90/73
f 68/98/78 64/99/73 65/100/77
f 59/88/71 67/96/76 64/90/73
f 64/99/73 66/101/79 62/94/74
f 64/99/73 68/98/78 66/101/79
f 68/98/80 69/102/81 71/103/82
f 69/102/81 68/98/80 70/104/83
f 68/98/78 65/100/77 70/104/84
f 66/101/79 68/98/80 71/103/82
f 71/105/85 72/106/86 75/107/87
f 74/108/88 72/106/86 71/105/85
f 71/105/85 75/107/87 73/109/89
f 66/101/79 71/103/82 73/110/90
f 74/108/88 71/105/85 69/111/91
f 73/109/89 75/107/87 76/112/92
f 75/107/87 78/113/93 76/112/92
f 72/114/86 77/115/94 75/116/87
f 75/116/87 77/115/94 78/117/93
f 80/118/95 79/119/96 78/117/93
f 78/120/97 79/121/98 63/122/75
f 80/118/95 78/117/93 77/115/94
f 78/120/97 63/122/75 76/123/99
f 81/124/100 80/118/95 77/115/94
f 79/119/96 80/118/95 28/40/33
f 81/124/100 28/40/33 80/118/95
f 81/124/100 72/114/86 82/125/101
f 82/125/101 24/35/28 81/124/100
f 81/124/100 24/35/28 28/40/33
f 81/124/100 77/115/94 72/114/86
f 19/32/25 82/125/101 83/126/102
f 74/127/88 83/126/102 82/125/101
f 74/127/88 82/125/101 72/114/86
f 18/31/24 82/125/101 19/32/25
f 82/125/101 18/31/24 24/35/28
f 85/128/103 83/126/102 74/127/88
f 20/28/22 83/126/102 84/129/104
f 85/128/103 84/129/104 83/126/102
f 20/28/22 19/32/25 83/126/102
f 88/130/105 85/131/103 86/132/106
f 86/132/106 85/131/103 74/108/88
f 84/133/104 85/134/103 87/135/107
f 85/131/103 88/130/105 87/136/107
f 86/137/108 89/138/109 88/139/110
f 88/139/110 89/138/109 87/140/111
f 89/138/109 93/141/112 90/142/113
f 89/138/109 90/142/113 87/140/111
f 92/143/114 89/138/109 91/144/115
f 91/144/115 89/138/109 86/137/108
f 89/138/109 92/143/114 93/141/112
f 94/145/116 93/146/112 92/147/114
f 94/145/116 95/148/117 93/146/112
f 96/149/118 90/142/113 93/141/112
f 95/148/117 90/150/113 96/151/118
f 95/148/117 94/145/116 90/150/113
f 92/147/114 97/152/119 94/145/116
f 94/145/116 97/152/119 101/153/120
f 99/154/121 94/145/116 98/155/122
f 94/145/116 101/153/120 98/155/122
f 87/156/111 90/150/113 94/145/116
f 87/156/111 94/145/116 100/157/123
f 100/157/123 94/145/116 99/154/121
f 101/158/120 97/159/119 105/160/124
f 102/161/125 98/155/122 101/153/120
f 104/162/126 102/163/125 101/158/120
f 101/158/120 105/160/124 103/164/127
f 104/162/126 101/158/120 103/164/127
f 103/164/127 105/160/124 67/96/76
f 105/165/124 106/166/128 65/100/77
f 67/96/76 105/160/124 65/97/77
f 105/165/124 97/167/119 106/166/128
f 97/167/119 92/143/114 106/166/128
f 106/166/128 92/143/114 91/144/115
f 70/104/84 65/100/77 106/166/128
f 70/104/84 106/166/128 91/144/115
f 107/168/129 104/162/126 103/164/127
f 108/169/130 102/163/125 104/162/126
f 109/170/131 104/162/126 107/168/129
f 109/170/131 108/169/130 104/162/126
f 110/171/132 108/169/130 109/170/131
f 53/76/60 109/170/131 107/168/129
f 49/74/58 109/170/131 53/76/60
f 110/171/132 109/170/131 49/74/58
f 48/72/56 110/171/132 49/74/58
f 111/172/133 108/169/130 110/171/132
f 112/173/134 111/172/133 110/171/132
f 112/173/134 110/171/132 113/174/135
f 48/72/56 113/174/135 110/171/132
f 114/175/136 112/173/134 113/174/135
f 115/176/137 114/175/136 113/174/135
f 115/176/137 113/174/135 48/72/56
f 41/64/51 40/66/52 115/176/137
f 41/64/51 115/176/137 48/72/56
f 116/177/138 114/175/136 115/176/137
f 115/176/137 40/66/52 116/177/138
f 117/178/139 114/179/136 116/180/138
f 116/180/140 40/62/49 117/178/141
f 117/178/139 112/181/134 114/179/136
f 40/62/49 42/63/50 117/178/141
f 117/178/139 42/63/142 112/181/134
f 112/182/134 119/183/143 111/184/133
f 112/185/134 42/186/142 3/187/1
f 112/188/134 3/189/1 118/190/144
f 112/182/134 118/191/144 119/183/143
f 120/192/145 119/183/143 118/191/144
f 119/183/143 121/193/146 111/184/133
f 120/192/145 121/193/146 119/183/143
f 122/194/147 121/193/146 123/195/148
f 121/193/146 122/194/147 124/196/149
f 123/195/148 121/193/146 120/192/145
f 121/193/146 124/196/149 111/184/133
f 125/197/150 124/196/149 122/194/147
f 111/184/133 124/196/149 102/161/125
f 124/196/149 98/155/122 102/161/125
f 125/197/150 98/155/122 124/196/149
f 125/197/150 122/194/147 99/154/121
f 125/197/150 99/154/121 98/155/122
f 4/4/4 5/8/6 123/195/148
f 123/195/148 120/192/145 4/4/4
f 122/194/147 123/195/148 127/198/151
f 126/199/152 123/195/148 5/8/6
f 123/195/148 126/199/152 127/198/151
f 122/194/147 127/198/151 128/200/153
f 127/201/154 11/17/15 128/202/155
f 11/17/15 127/201/154 126/203/156
f 17/26/21 129/204/157 128/202/155
f 129/205/158 99/154/121 128/200/153
f 14/23/19 128/202/155 11/17/15
f 14/23/19 17/26/21 128/202/155
f 99/154/121 122/194/147 128/200/153
f 20/206/22 100/207/159 129/204/157
f 17/26/21 20/206/22 129/204/157
f 99/154/121 129/205/158 100/157/123
f 11/17/15 126/203/156 5/10/8
f 120/192/145 118/191/144 2/5/3
f 120/192/145 2/5/3 4/4/4
f 3/208/1 2/5/3 118/191/144
f 108/169/130 111/172/133 102/163/125
f 53/76/60 107/168/129 60/87/70
f 60/87/70 107/168/129 130/209/160
f 107/168/129 103/164/127 130/209/160
f 103/164/127 67/96/76 130/209/160
f 130/209/160 67/96/76 59/88/71
f 60/87/70 130/209/160 59/88/71
f 84/133/104 87/135/107 100/207/159
f 20/206/22 84/133/104 100/207/159
f 70/104/83 91/144/115 86/137/108
f 86/132/106 74/108/88 69/111/91
f 69/102/81 70/104/83 86/137/108
f 63/122/75 79/121/98 56/86/69
f 79/121/98 131/210/161 56/86/69
f 79/211/96 28/212/33 131/213/162
f 56/86/69 131/210/161 55/84/64
f 131/210/161 132/214/163 55/84/64
f 131/213/162 27/43/32 132/215/164
f 28/212/33 27/43/32 131/213/162
f 55/84/64 132/214/163 134/216/165
f 132/215/164 27/43/32 133/217/166
f 134/216/165 132/214/163 133/218/167
f 45/219/55 134/216/165 135/220/168
f 136/221/169 135/220/168 134/216/165
f 55/84/64 134/216/165 52/222/63
f 45/219/55 52/222/63 134/216/165
f 133/218/167 136/221/169 134/216/165
f 137/223/170 135/220/168 136/221/169
f 30/45/35 138/224/171 136/225/172
f 133/217/166 30/45/35 136/225/172
f 138/226/173 137/223/170 136/221/169
f 37/59/45 39/60/46 138/227/173
f 30/45/35 37/228/44 138/224/171
f 138/227/173 39/60/46 137/229/170
f 137/223/170 45/219/55 135/220/168
f 137/223/170 39/230/46 45/219/55
f 133/217/166 27/43/32 30/45/35
f 139/231/174 76/123/99 63/122/75
f 76/232/99 139/233/174 140/234/175
f 73/110/90 76/232/99 140/234/175
f 141/235/176 140/234/175 139/233/174
f 62/94/74 140/234/175 141/235/176
f 140/234/175 62/94/74 66/101/79
f 140/234/175 66/101/79 73/110/90
f 63/92/75 62/94/74 141/235/176
f 139/233/174 142/236/177 141/235/176
f 143/237/178 63/92/75 141/235/176
f 143/237/178 139/233/174 63/92/75
f 143/237/178 142/236/177 139/233/174
f 51/77/61 53/76/60 60/87/70
f 49/74/58 53/76/60 47/75/59
f 44/69/54 52/79/63 45/70/55
f 42/63/50 36/53/41 7/14/12
f 7/14/12 3/1/1 42/63/50
f 30/45/35 31/238/34 37/228/44
f 36/239/40 33/47/37 144/240/179
f 144/241/179 7/242/11 36/243/40
f 22/34/27 144/240/179 33/47/37
f 9/244/13 7/242/11 144/241/179
f 12/19/17 9/15/13 144/245/179
f 12/24/17 144/240/179 22/34/27
f 15/25/20 12/24/17 22/34/27
