# Blender 4.1.1
# www.blender.org
mtllib link_leg_0_L_2.mtl
o link_leg_0_L_2
v -0.000046 -3.372540 1.773885
v 0.182043 -3.389142 1.760535
v -0.000052 -3.769100 1.705298
v -0.000041 -2.965004 1.764708
v -0.182136 -3.389138 1.760531
v -0.125477 -3.780530 1.696101
v -0.231797 -2.986127 1.747713
v -0.357227 -3.438289 1.720986
v -0.246082 -3.814393 1.668860
v -0.454646 -3.048689 1.697379
v -0.518593 -3.518112 1.656767
v -0.357234 -3.869372 1.624627
v -0.660026 -3.150283 1.615643
v -0.660033 -3.625540 1.570344
v -0.454659 -3.943370 1.565096
v -0.840045 -3.287008 1.505648
v -0.776109 -3.756437 1.465033
v -0.534613 -4.033534 1.492557
v -0.987783 -3.453610 1.371615
v -0.862363 -3.905780 1.344889
v -0.594027 -4.136404 1.409801
v -1.097563 -3.643687 1.218698
v -0.915480 -4.067825 1.214523
v -0.630613 -4.248023 1.320003
v -1.165166 -3.849931 1.052774
v -0.933416 -4.236346 1.078948
v -0.642968 -4.364102 1.226617
v -1.187994 -4.064419 0.880220
v -0.915484 -4.404873 0.943372
v -0.630616 -4.480182 1.133228
v -1.165172 -4.278911 0.707662
v -0.862373 -4.566920 0.813006
v -0.594033 -4.591806 1.043432
v -1.097574 -4.485156 0.541738
v -0.776124 -4.716261 0.692860
v -0.534624 -4.694674 0.960674
v -0.987800 -4.675236 0.388824
v -0.660050 -4.847162 0.587552
v -0.454670 -4.784839 0.888136
v -0.840067 -4.841844 0.254791
v -0.518615 -4.954594 0.501127
v -0.357248 -4.858836 0.828608
v -0.660053 -4.978572 0.144792
v -0.357251 -5.034422 0.436907
v -0.246099 -4.913824 0.784372
v -0.454675 -5.080177 0.063057
v -0.182159 -5.083578 0.397362
v -0.125494 -4.947688 0.757131
v -0.231827 -5.142747 0.012723
v -0.000071 -5.100181 0.384009
v -0.000069 -4.959122 0.747933
v -0.000071 -5.163872 -0.004272
v 0.182018 -5.083583 0.397362
v 0.125356 -4.947692 0.757131
v 0.231684 -5.142754 0.012723
v 0.357110 -5.034431 0.436907
v 0.245962 -4.913830 0.784372
v 0.454534 -5.080190 0.063057
v 0.518477 -4.954608 0.501127
v 0.357113 -4.858846 0.828608
v 0.659914 -4.978590 0.144792
v 0.659916 -4.847185 0.587551
v 0.454538 -4.784852 0.888136
v 0.839932 -4.841868 0.254788
v 0.775993 -4.716283 0.692860
v 0.534493 -4.694689 0.960674
v 0.987670 -4.675265 0.388821
v 0.862246 -4.566944 0.813006
v 0.593905 -4.591823 1.043432
v 1.097450 -4.485187 0.541738
v 0.915362 -4.404896 0.943372
v 0.630492 -4.480200 1.133228
v 1.165053 -4.278943 0.707662
v 0.933299 -4.236376 1.078946
v 0.642847 -4.364120 1.226615
v 1.187883 -4.064454 0.880216
v 0.915367 -4.067851 1.214523
v 0.630496 -4.248041 1.320003
v 1.165059 -3.849963 1.052774
v 0.862255 -3.905805 1.344889
v 0.593912 -4.136416 1.409800
v 1.097461 -3.643717 1.218698
v 0.776006 -3.756459 1.465033
v 0.534502 -4.033549 1.492557
v 0.987687 -3.453637 1.371615
v 0.659933 -3.625554 1.570344
v 0.454550 -3.943383 1.565096
v 0.839954 -3.287031 1.505645
v 0.518497 -3.518126 1.656767
v 0.357127 -3.869382 1.624627
v 0.659940 -3.150302 1.615643
v 0.357133 -3.438299 1.720986
v 0.245978 -3.814400 1.668860
v 0.454563 -3.048702 1.697379
v 0.534522 -2.660564 1.598946
v 0.231714 -2.986133 1.747713
v 0.272480 -2.586996 1.658133
v 0.302773 -2.207072 1.495233
v -0.000035 -2.562152 1.678116
v -0.000029 -2.179465 1.517437
v -0.272550 -2.586988 1.658133
v -0.302833 -2.207063 1.495233
v -0.534594 -2.660550 1.598946
v -0.594001 -2.288801 1.429469
v -0.776096 -2.780012 1.502837
v -0.862343 -2.421540 1.322678
v -0.987774 -2.940791 1.373492
v -1.097548 -2.600185 1.178958
v -1.161496 -3.136691 1.215886
v -1.290576 -2.817859 1.003836
v -1.290583 -3.360198 1.036077
v -1.434011 -3.066206 0.804040
v -1.370077 -3.602719 0.840970
v -1.522339 -3.335680 0.587250
v -1.396921 -3.854930 0.638067
v -1.552167 -3.615919 0.361797
v -1.370084 -4.107141 0.435162
v -1.522347 -3.896168 0.136344
v -1.290597 -4.349660 0.240058
v -1.434026 -4.165640 -0.080448
v -1.161517 -4.573171 0.060245
v -1.290598 -4.413992 -0.280243
v -0.987801 -4.769080 -0.097360
v -1.097577 -4.631672 -0.455365
v -0.776127 -4.929859 -0.226702
v -0.862377 -4.810322 -0.599085
v -0.534629 -5.049330 -0.322815
v -0.594038 -4.943071 -0.705876
v -0.272587 -5.122903 -0.382001
v -0.302873 -5.024819 -0.771638
v -0.000071 -5.147747 -0.401984
v -0.000070 -5.052423 -0.793844
v 0.272444 -5.122910 -0.382001
v 0.302734 -5.024827 -0.771638
v 0.534488 -5.049345 -0.322815
v 0.593900 -4.943087 -0.705876
v 0.775990 -4.929882 -0.226705
v 0.862243 -4.810346 -0.599085
v 0.987668 -4.769108 -0.097360
v 1.097448 -4.631702 -0.455365
v 1.161389 -4.573204 0.060245
v 1.290477 -4.414028 -0.280243
v 1.290477 -4.349701 0.240055
v 1.433911 -4.165680 -0.080448
v 1.369970 -4.107180 0.435162
v 1.522240 -3.896206 0.136342
v 1.396815 -3.854969 0.638065
v 1.552067 -3.615968 0.361795
v 1.369978 -3.602753 0.840968
v 1.522248 -3.335723 0.587250
v 1.290491 -3.360234 1.036074
v 1.433927 -3.066247 0.804040
v 1.161411 -3.136723 1.215886
v 1.290499 -2.817895 1.003836
v 0.987694 -2.940814 1.373491
v 1.097476 -2.600215 1.178958
v 0.776020 -2.780034 1.502837
v 0.862276 -2.421565 1.322678
v 0.915395 -2.088664 1.082094
v 0.593938 -2.288817 1.429469
v 0.630528 -1.947739 1.195463
v 0.642885 -1.650440 0.905917
v 0.321429 -1.860956 1.265276
v 0.327730 -1.561955 0.977098
v -0.000025 -1.831651 1.288848
v -0.000020 -1.532072 1.001135
v -0.321479 -1.860947 1.265276
v -0.327772 -1.561946 0.977098
v -0.630580 -1.947722 1.195463
v -0.642929 -1.650422 0.905917
v -0.915450 -2.088638 1.082094
v -0.933380 -1.794098 0.790327
v -1.165143 -2.278284 0.929523
v -1.187964 -1.987458 0.634766
v -1.370062 -2.509367 0.743615
v -1.396897 -2.223070 0.445215
v -1.522331 -2.773009 0.531512
v -1.552150 -2.491879 0.228960
v -1.616100 -3.059082 0.301369
v -1.647755 -2.783555 -0.005693
v -1.647765 -3.356585 0.062028
v -1.680040 -3.086884 -0.249722
v -1.616108 -3.654090 -0.177312
v -1.647764 -3.390220 -0.493753
v -1.522348 -3.940163 -0.407456
v -1.552166 -3.681894 -0.728404
v -1.370086 -4.203813 -0.619557
v -1.396922 -3.950712 -0.944661
v -1.165175 -4.434900 -0.805465
v -1.187996 -4.186325 -1.134210
v -0.915487 -4.624553 -0.958036
v -0.933418 -4.379693 -1.289773
v -0.630621 -4.765477 -1.071408
v -0.642971 -4.523380 -1.405363
v -0.321522 -4.852261 -1.141222
v -0.327816 -4.611861 -1.476544
v -0.000069 -4.881567 -1.164794
v -0.000065 -4.641744 -1.500579
v 0.321387 -4.852270 -1.141222
v 0.327686 -4.611870 -1.476544
v 0.630488 -4.765495 -1.071408
v 0.642845 -4.523398 -1.405363
v 0.915358 -4.624579 -0.958039
v 0.933296 -4.379718 -1.289773
v 1.165051 -4.434934 -0.805469
v 1.187880 -4.186358 -1.134212
v 1.369969 -4.203851 -0.619561
v 1.396813 -3.950747 -0.944662
v 1.522239 -3.940209 -0.407458
v 1.552065 -3.681941 -0.728406
v 1.616008 -3.654135 -0.177316
v 1.647671 -3.390266 -0.493753
v 1.647673 -3.356632 0.062026
v 1.679956 -3.086936 -0.249724
v 1.616016 -3.059128 0.301366
v 1.647679 -2.783601 -0.005693
v 1.522255 -2.773056 0.531510
v 1.552083 -2.491919 0.228959
v 1.369994 -2.509405 0.743611
v 1.396838 -2.223109 0.445215
v 1.165082 -2.278313 0.929522
v 1.187912 -1.987490 0.634766
v 1.165089 -1.738916 0.306022
v 0.933333 -1.794124 0.790327
v 0.915403 -1.549262 0.458592
v 0.862291 -1.363495 0.099638
v 0.630536 -1.408339 0.571963
v 0.593953 -1.230751 0.206431
v 0.321436 -1.321556 0.641776
v 0.302788 -1.149001 0.272193
v -0.000017 -1.292253 0.665349
v -0.000015 -1.121395 0.294397
v -0.321471 -1.321547 0.641776
v -0.302818 -1.148993 0.272193
v -0.630573 -1.408325 0.571963
v -0.593986 -1.230734 0.206431
v -0.915443 -1.549241 0.458593
v -0.862328 -1.363475 0.099639
v -1.165136 -1.738883 0.306022
v -1.097533 -1.542113 -0.044082
v -1.370054 -1.969966 0.120114
v -1.290561 -1.759793 -0.219203
v -1.522323 -2.233612 -0.091988
v -1.433996 -2.008140 -0.418998
v -1.616092 -2.519681 -0.322131
v -1.522324 -2.277610 -0.635788
v -1.647757 -2.817184 -0.561472
v -1.552152 -2.557853 -0.861241
v -1.616101 -3.114689 -0.800813
v -1.522332 -2.838097 -1.086696
v -1.522340 -3.400764 -1.030956
v -1.434011 -3.107570 -1.303487
v -1.370078 -3.664411 -1.243057
v -1.290583 -3.355921 -1.503283
v -1.165167 -3.895499 -1.428967
v -1.097562 -3.573606 -1.678404
v -0.915480 -4.085152 -1.581536
v -0.862362 -3.752251 -1.822124
v -0.630614 -4.226080 -1.694908
v -0.594023 -3.885000 -1.928915
v -0.321514 -4.312864 -1.764722
v -0.302858 -3.966748 -1.994678
v -0.000061 -4.342170 -1.788294
v -0.000055 -3.994357 -2.016883
v 0.321394 -4.312872 -1.764722
v 0.302749 -3.966757 -1.994678
v 0.630496 -4.226098 -1.694908
v 0.593915 -3.885016 -1.928915
v 0.915366 -4.085183 -1.581540
v 0.862257 -3.752275 -1.822123
v 1.165059 -3.895536 -1.428968
v 1.097463 -3.573632 -1.678404
v 1.369976 -3.664454 -1.243060
v 1.290491 -3.355957 -1.503283
v 1.522247 -3.400808 -1.030958
v 1.433926 -3.107610 -1.303487
v 1.616015 -3.114738 -0.800815
v 1.522255 -2.838140 -1.086696
v 1.647680 -2.817235 -0.561474
v 1.552082 -2.557897 -0.861243
v 1.616024 -2.519731 -0.322133
v 1.522263 -2.277653 -0.635788
v 1.522263 -2.233654 -0.091990
v 1.433942 -2.008176 -0.419000
v 1.370001 -1.970008 0.120111
v 1.290514 -1.759829 -0.219203
v 1.161432 -1.600644 -0.559692
v 1.097491 -1.542144 -0.044082
v 0.987716 -1.404737 -0.402087
v 0.839981 -1.331977 -0.754237
v 0.776042 -1.243961 -0.272744
v 0.659968 -1.195244 -0.644238
v 0.534543 -1.124487 -0.176631
v 0.454590 -1.093643 -0.562503
v 0.272502 -1.050917 -0.117445
v 0.231741 -1.031074 -0.512169
v -0.000013 -1.026073 -0.097462
v -0.000013 -1.009945 -0.495175
v -0.272529 -1.050910 -0.117449
v -0.231769 -1.031068 -0.512169
v -0.534572 -1.124472 -0.176631
v -0.454618 -1.093630 -0.562503
v -0.776074 -1.243935 -0.272741
v -0.659999 -1.195226 -0.644238
v -0.987753 -1.404713 -0.402086
v -0.840017 -1.331953 -0.754237
v -1.161475 -1.600612 -0.559692
v -0.987755 -1.498556 -0.888266
v -1.290562 -1.824119 -0.739500
v -1.097535 -1.688629 -1.041185
v -1.370056 -2.066641 -0.934608
v -1.165139 -1.894878 -1.207108
v -1.396899 -2.318851 -1.137511
v -1.187967 -2.109362 -1.379663
v -1.370063 -2.571064 -1.340415
v -1.165145 -2.323856 -1.552219
v -1.290576 -2.813581 -1.535520
v -1.097547 -2.530102 -1.718144
v -1.161495 -3.037093 -1.715332
v -0.987773 -2.720183 -1.871060
v -0.987780 -3.233001 -1.872937
v -0.840039 -2.886786 -2.005091
v -0.776106 -3.393781 -2.002279
v -0.660026 -3.023518 -2.115089
v -0.534607 -3.513252 -2.098393
v -0.454647 -3.125118 -2.196826
v -0.272566 -3.586825 -2.157577
v -0.231800 -3.187688 -2.247159
v -0.000050 -3.611669 -2.177562
v -0.000044 -3.208817 -2.264152
v 0.272466 -3.586833 -2.157577
v 0.231711 -3.187695 -2.247159
v 0.534510 -3.513267 -2.098393
v 0.454562 -3.125131 -2.196826
v 0.776011 -3.393805 -2.002283
v 0.659942 -3.023536 -2.115089
v 0.987690 -3.233029 -1.872937
v 0.839959 -2.886813 -2.005093
v 1.161411 -3.037126 -1.715332
v 0.987697 -2.720211 -1.871060
v 1.290499 -2.813622 -1.535522
v 1.097477 -2.530133 -1.718144
v 1.369992 -2.571102 -1.340415
v 1.165081 -2.323884 -1.552220
v 1.396837 -2.318891 -1.137513
v 1.187910 -2.109401 -1.379666
v 1.370000 -2.066675 -0.934610
v 1.165087 -1.894906 -1.207109
v 1.290513 -1.824156 -0.739504
v 1.097489 -1.688660 -1.041185
v 0.862288 -1.606900 -1.312452
v 0.987714 -1.498579 -0.888267
v 0.776039 -1.457556 -1.192306
v 0.534538 -1.479148 -1.460120
v 0.659966 -1.326654 -1.086995
v 0.454586 -1.388976 -1.387582
v 0.518529 -1.219223 -1.000573
v 0.357163 -1.314981 -1.328054
v 0.357165 -1.139398 -0.936353
v 0.246013 -1.259993 -1.283818
v 0.182075 -1.090237 -0.896808
v 0.125409 -1.226132 -1.256577
v -0.000014 -1.073640 -0.883455
v -0.000016 -1.214698 -1.247379
v -0.182103 -1.090232 -0.896808
v -0.125441 -1.226128 -1.256577
v -0.357195 -1.139388 -0.936353
v -0.246046 -1.259987 -1.283818
v -0.518561 -1.219212 -1.000571
v -0.357198 -1.314971 -1.328054
v -0.660001 -1.326635 -1.086995
v -0.454623 -1.388963 -1.387582
v -0.776077 -1.457537 -1.192306
v -0.534577 -1.479133 -1.460120
v -0.862331 -1.606876 -1.312452
v -0.593991 -1.581998 -1.542877
v -0.915447 -1.768922 -1.442818
v -0.630577 -1.693616 -1.632676
v -0.933383 -1.937444 -1.578391
v -0.642933 -1.809696 -1.726061
v -0.915452 -2.105968 -1.713968
v -0.630580 -1.925781 -1.819449
v -0.862341 -2.268016 -1.844335
v -0.593997 -2.037400 -1.909246
v -0.776092 -2.417358 -1.964480
v -0.534588 -2.140271 -1.992003
v -0.660018 -2.548257 -2.069787
v -0.454634 -2.230438 -2.064542
v -0.518582 -2.655689 -2.156214
v -0.357212 -2.304433 -2.124070
v -0.357218 -2.735517 -2.220433
v -0.246063 -2.359421 -2.168306
v -0.182127 -2.784674 -2.259978
v -0.125458 -2.393283 -2.195547
v -0.000038 -2.801276 -2.273332
v -0.000033 -2.404716 -2.204745
v 0.182050 -2.784679 -2.259978
v 0.125393 -2.393286 -2.195547
v 0.357143 -2.735527 -2.220433
v 0.245998 -2.359428 -2.168306
v 0.518509 -2.655704 -2.156214
v 0.357149 -2.304448 -2.124073
v 0.659949 -2.548281 -2.069790
v 0.454574 -2.230451 -2.064542
v 0.776025 -2.417380 -1.964480
v 0.534529 -2.140283 -1.992004
v 0.862278 -2.268040 -1.844335
v 0.593941 -2.037417 -1.909246
v 0.915394 -2.105994 -1.713968
v 0.630528 -1.925799 -1.819449
v 0.933331 -1.937471 -1.578395
v 0.642883 -1.809718 -1.726063
v 0.915400 -1.768947 -1.442818
v 0.630532 -1.693633 -1.632676
v 0.321431 -1.671866 -1.769388
v 0.593948 -1.582015 -1.542877
v 0.302780 -1.614960 -1.723609
v 0.272494 -1.562521 -1.681420
v -0.000023 -1.704478 -1.847702
v -0.231782 -1.945527 -1.989551
v -0.000019 -1.427706 -1.572966
v 0.063922 -1.433534 -1.577654
v 0.125406 -1.450798 -1.591542
v 0.182070 -1.478828 -1.614093
v 0.231735 -1.516554 -1.644440
v 0.327728 -1.731045 -1.816997
v 0.321430 -1.790221 -1.864603
v 0.302777 -1.847125 -1.910383
v 0.272490 -1.899563 -1.952572
v 0.231729 -1.945530 -1.989552
v 0.182061 -1.983254 -2.019899
v 0.125398 -2.011282 -2.042451
v 0.063913 -2.028545 -2.056338
v -0.000027 -2.034371 -2.061026
v -0.063969 -2.028543 -2.056338
v -0.125452 -2.011278 -2.042451
v -0.182116 -1.983249 -2.019899
v -0.272541 -1.899556 -1.952572
v -0.302828 -1.847116 -1.910383
v -0.321478 -1.790212 -1.864603
v -0.327774 -1.731036 -1.816997
v -0.321476 -1.671857 -1.769388
v -0.302825 -1.614952 -1.723609
v -0.272536 -1.562513 -1.681420
v -0.231776 -1.516548 -1.644440
v -0.182109 -1.478823 -1.614093
v -0.125444 -1.450795 -1.591542
v -0.063961 -1.433532 -1.577654
v 0.125368 -4.162539 1.543005
v 0.125373 -3.780534 1.696101
v 0.063884 -4.145273 1.556892
v -0.000062 -4.469342 1.348256
v -0.000057 -4.139445 1.561580
v -0.063999 -4.145271 1.556892
v -0.125483 -4.162535 1.543005
v -0.182147 -4.190567 1.520454
v -0.231814 -4.228287 1.490105
v -0.272574 -4.274252 1.453126
v -0.302863 -4.326694 1.410936
v -0.321514 -4.383600 1.365158
v -0.327812 -4.442776 1.317552
v -0.321516 -4.501952 1.269942
v -0.302866 -4.558856 1.224163
v -0.272579 -4.611299 1.181975
v -0.231820 -4.657266 1.144994
v -0.182154 -4.694989 1.114646
v -0.125490 -4.723022 1.092096
v -0.064007 -4.740286 1.078209
v -0.000066 -4.746111 1.073520
v 0.063875 -4.740288 1.078209
v 0.125360 -4.723025 1.092096
v 0.182023 -4.694993 1.114646
v 0.231690 -4.657272 1.144994
v 0.272452 -4.611307 1.181975
v 0.302739 -4.558865 1.224163
v 0.321391 -4.501960 1.269942
v 0.327690 -4.442785 1.317552
v 0.321393 -4.383609 1.365158
v 0.302742 -4.326703 1.410936
v 0.272456 -4.274260 1.453126
v 0.231696 -4.228293 1.490105
v 0.182031 -4.190571 1.520454
vn 0.0751 0.0224 0.9969
vn 0.0566 -0.1702 0.9838
vn -0.0566 -0.1701 0.9838
vn -0.0751 0.0224 0.9969
vn -0.1672 -0.1837 0.9687
vn -0.2213 0.0037 0.9752
vn -0.2701 -0.2100 0.9397
vn -0.3557 -0.0324 0.9340
vn -0.3609 -0.2481 0.8990
vn -0.4726 -0.0836 0.8773
vn -0.4367 -0.2962 0.8495
vn -0.5682 -0.1474 0.8096
vn -0.4952 -0.3527 0.7940
vn -0.6409 -0.2212 0.7351
vn -0.5353 -0.4159 0.7351
vn -0.6900 -0.3027 0.6574
vn -0.5563 -0.4841 0.6754
vn -0.7157 -0.3900 0.5794
vn -0.5578 -0.5555 0.6167
vn -0.7178 -0.4812 0.5032
vn -0.5397 -0.6280 0.5607
vn -0.6962 -0.5745 0.4305
vn -0.5019 -0.6993 0.5090
vn -0.6504 -0.6674 0.3627
vn -0.4448 -0.7668 0.4629
vn -0.5799 -0.7568 0.3016
vn -0.3693 -0.8271 0.4238
vn -0.4848 -0.8385 0.2489
vn -0.2773 -0.8767 0.3930
vn -0.3666 -0.9072 0.2066
vn -0.1722 -0.9123 0.3717
vn -0.2288 -0.9573 0.1768
vn -0.0584 -0.9308 0.3608
vn -0.0778 -0.9838 0.1614
vn 0.0584 -0.9308 0.3608
vn 0.0778 -0.9838 0.1614
vn 0.1721 -0.9123 0.3717
vn 0.2288 -0.9573 0.1768
vn 0.2773 -0.8767 0.3930
vn 0.3666 -0.9072 0.2066
vn 0.3692 -0.8271 0.4238
vn 0.4848 -0.8385 0.2489
vn 0.4447 -0.7668 0.4629
vn 0.5799 -0.7568 0.3016
vn 0.5019 -0.6993 0.5090
vn 0.6503 -0.6674 0.3627
vn 0.5397 -0.6280 0.5607
vn 0.6962 -0.5745 0.4305
vn 0.5578 -0.5555 0.6167
vn 0.7178 -0.4812 0.5032
vn 0.5563 -0.4841 0.6754
vn 0.7157 -0.3900 0.5794
vn 0.5353 -0.4160 0.7351
vn 0.6900 -0.3027 0.6574
vn 0.4952 -0.3527 0.7940
vn 0.6409 -0.2212 0.7351
vn 0.4367 -0.2962 0.8495
vn 0.5682 -0.1474 0.8096
vn 0.3609 -0.2481 0.8990
vn 0.4726 -0.0836 0.8773
vn 0.2701 -0.2100 0.9397
vn 0.3557 -0.0324 0.9340
vn 0.1672 -0.1837 0.9687
vn 0.2213 0.0037 0.9752
vn 0.2657 0.1852 0.9461
vn 0.4249 0.1393 0.8945
vn 0.0905 0.2093 0.9737
vn 0.1024 0.3851 0.9172
vn 0.2998 0.3557 0.8852
vn -0.0905 0.2093 0.9737
vn -0.1024 0.3851 0.9172
vn -0.2657 0.1852 0.9461
vn -0.2998 0.3557 0.8852
vn -0.4249 0.1393 0.8945
vn -0.4772 0.3003 0.8259
vn -0.5610 0.0753 0.8244
vn -0.6265 0.2244 0.7464
vn -0.6702 -0.0027 0.7421
vn -0.7444 0.1338 0.6542
vn -0.7518 -0.0912 0.6531
vn -0.8309 0.0330 0.5554
vn -0.8061 -0.1873 0.5613
vn -0.8877 -0.0745 0.4543
vn -0.8342 -0.2891 0.4697
vn -0.9166 -0.1868 0.3535
vn -0.8364 -0.3948 0.3801
vn -0.9186 -0.3025 0.2545
vn -0.8127 -0.5030 0.2941
vn -0.8934 -0.4203 0.1585
vn -0.7621 -0.6115 0.2130
vn -0.8399 -0.5386 0.0666
vn -0.6831 -0.7171 0.1384
vn -0.7558 -0.6545 -0.0195
vn -0.5747 -0.8151 0.0727
vn -0.6389 -0.7631 -0.0970
vn -0.4373 -0.8991 0.0187
vn -0.4886 -0.8573 -0.1620
vn -0.2744 -0.9614 -0.0200
vn -0.3079 -0.9280 -0.2097
vn -0.0936 -0.9948 -0.0403
vn -0.1053 -0.9663 -0.2351
vn 0.0936 -0.9948 -0.0403
vn 0.1053 -0.9663 -0.2351
vn 0.2744 -0.9614 -0.0200
vn 0.3079 -0.9280 -0.2097
vn 0.4373 -0.8991 0.0187
vn 0.4886 -0.8573 -0.1620
vn 0.5747 -0.8151 0.0727
vn 0.6389 -0.7632 -0.0970
vn 0.6831 -0.7171 0.1384
vn 0.7558 -0.6545 -0.0195
vn 0.7621 -0.6115 0.2130
vn 0.8399 -0.5387 0.0666
vn 0.8127 -0.5030 0.2941
vn 0.8934 -0.4203 0.1585
vn 0.8364 -0.3948 0.3801
vn 0.9185 -0.3025 0.2545
vn 0.8342 -0.2891 0.4697
vn 0.9166 -0.1868 0.3535
vn 0.8061 -0.1873 0.5613
vn 0.8877 -0.0745 0.4543
vn 0.7518 -0.0912 0.6531
vn 0.8309 0.0330 0.5554
vn 0.6702 -0.0027 0.7421
vn 0.7444 0.1337 0.6542
vn 0.5610 0.0753 0.8244
vn 0.6265 0.2244 0.7464
vn 0.4772 0.3002 0.8259
vn 0.5129 0.4475 0.7325
vn 0.6704 0.3613 0.6480
vn 0.3234 0.5115 0.7961
vn 0.3364 0.6498 0.6816
vn 0.5323 0.5792 0.6174
vn 0.1107 0.5458 0.8305
vn 0.1153 0.6881 0.7164
vn -0.1153 0.6881 0.7164
vn -0.1106 0.5458 0.8305
vn -0.3234 0.5115 0.7961
vn -0.3364 0.6498 0.6816
vn -0.5129 0.4476 0.7325
vn -0.5322 0.5792 0.6174
vn -0.6704 0.3614 0.6480
vn -0.6937 0.4851 0.5324
vn -0.7931 0.2602 0.5507
vn -0.8184 0.3761 0.4345
vn -0.8819 0.1498 0.4470
vn -0.9078 0.2588 0.3300
vn -0.9395 0.0338 0.3408
vn -0.9652 0.1372 0.2227
vn -0.9683 -0.0857 0.2346
vn -0.9933 0.0136 0.1146
vn -0.9696 -0.2075 0.1297
vn -0.9938 -0.1112 0.0067
vn -0.9434 -0.3307 0.0268
vn -0.9665 -0.2362 -0.1002
vn -0.8880 -0.4540 -0.0732
vn -0.9100 -0.3603 -0.2054
vn -0.8009 -0.5747 -0.1684
vn -0.8211 -0.4812 -0.3069
vn -0.6790 -0.6882 -0.2557
vn -0.6968 -0.5946 -0.4012
vn -0.5209 -0.7871 -0.3303
vn -0.5351 -0.6933 -0.4828
vn -0.3291 -0.8619 -0.3858
vn -0.3384 -0.7678 -0.5441
vn -0.1128 -0.9025 -0.4157
vn -0.1160 -0.8083 -0.5773
vn 0.1127 -0.9025 -0.4157
vn 0.1160 -0.8083 -0.5773
vn 0.3291 -0.8619 -0.3858
vn 0.3384 -0.7678 -0.5441
vn 0.5208 -0.7872 -0.3303
vn 0.5351 -0.6933 -0.4828
vn 0.6790 -0.6882 -0.2557
vn 0.6968 -0.5946 -0.4012
vn 0.8008 -0.5747 -0.1684
vn 0.8211 -0.4813 -0.3069
vn 0.8880 -0.4540 -0.0732
vn 0.9099 -0.3603 -0.2054
vn 0.9433 -0.3307 0.0268
vn 0.9665 -0.2362 -0.1002
vn 0.9696 -0.2075 0.1297
vn 0.9938 -0.1112 0.0067
vn 0.9683 -0.0857 0.2346
vn 0.9933 0.0135 0.1146
vn 0.9395 0.0337 0.3408
vn 0.9652 0.1372 0.2227
vn 0.8819 0.1498 0.4470
vn 0.9078 0.2588 0.3300
vn 0.7931 0.2602 0.5507
vn 0.8184 0.3761 0.4345
vn 0.6937 0.4851 0.5324
vn 0.6968 0.5946 0.4012
vn 0.8211 0.4812 0.3069
vn 0.5351 0.6933 0.4828
vn 0.5209 0.7872 0.3303
vn 0.6790 0.6882 0.2557
vn 0.3384 0.7678 0.5441
vn 0.3291 0.8619 0.3858
vn 0.1160 0.8083 0.5773
vn 0.1128 0.9025 0.4157
vn -0.1160 0.8083 0.5773
vn -0.1127 0.9025 0.4157
vn -0.3384 0.7678 0.5441
vn -0.3291 0.8619 0.3858
vn -0.5351 0.6933 0.4828
vn -0.5208 0.7872 0.3303
vn -0.6968 0.5946 0.4012
vn -0.6789 0.6882 0.2557
vn -0.8211 0.4813 0.3069
vn -0.8008 0.5747 0.1684
vn -0.9099 0.3603 0.2054
vn -0.8880 0.4540 0.0732
vn -0.9665 0.2362 0.1002
vn -0.9433 0.3307 -0.0268
vn -0.9938 0.1112 -0.0067
vn -0.9696 0.2075 -0.1297
vn -0.9933 -0.0135 -0.1146
vn -0.9683 0.0857 -0.2346
vn -0.9652 -0.1372 -0.2227
vn -0.9395 -0.0337 -0.3408
vn -0.9078 -0.2588 -0.3300
vn -0.8819 -0.1498 -0.4470
vn -0.8184 -0.3761 -0.4345
vn -0.7931 -0.2602 -0.5507
vn -0.6937 -0.4851 -0.5324
vn -0.6704 -0.3614 -0.6480
vn -0.5323 -0.5792 -0.6174
vn -0.5129 -0.4476 -0.7325
vn -0.3364 -0.6498 -0.6816
vn -0.3234 -0.5115 -0.7961
vn -0.1153 -0.6881 -0.7164
vn -0.1107 -0.5458 -0.8305
vn 0.1152 -0.6881 -0.7164
vn 0.1107 -0.5458 -0.8305
vn 0.3364 -0.6498 -0.6816
vn 0.3234 -0.5115 -0.7961
vn 0.5322 -0.5792 -0.6174
vn 0.5129 -0.4476 -0.7325
vn 0.6937 -0.4851 -0.5323
vn 0.6704 -0.3614 -0.6480
vn 0.8184 -0.3762 -0.4345
vn 0.7931 -0.2602 -0.5507
vn 0.9078 -0.2588 -0.3300
vn 0.8819 -0.1498 -0.4470
vn 0.9652 -0.1372 -0.2227
vn 0.9395 -0.0338 -0.3408
vn 0.9933 -0.0136 -0.1146
vn 0.9683 0.0857 -0.2346
vn 0.9938 0.1112 -0.0067
vn 0.9696 0.2075 -0.1297
vn 0.9665 0.2361 0.1002
vn 0.9434 0.3307 -0.0268
vn 0.9099 0.3603 0.2054
vn 0.8880 0.4540 0.0732
vn 0.8009 0.5747 0.1684
vn 0.7558 0.6545 0.0195
vn 0.8399 0.5386 -0.0666
vn 0.6389 0.7631 0.0970
vn 0.5747 0.8151 -0.0727
vn 0.6831 0.7171 -0.1384
vn 0.4886 0.8573 0.1620
vn 0.4373 0.8991 -0.0187
vn 0.3079 0.9280 0.2097
vn 0.2744 0.9614 0.0200
vn 0.1053 0.9663 0.2351
vn 0.0937 0.9948 0.0403
vn -0.1053 0.9663 0.2350
vn -0.0936 0.9948 0.0403
vn -0.3079 0.9280 0.2097
vn -0.2744 0.9614 0.0200
vn -0.4886 0.8573 0.1620
vn -0.4373 0.8991 -0.0187
vn -0.6389 0.7632 0.0970
vn -0.5747 0.8151 -0.0727
vn -0.7558 0.6545 0.0195
vn -0.6831 0.7171 -0.1384
vn -0.8399 0.5387 -0.0666
vn -0.7621 0.6115 -0.2130
vn -0.8934 0.4203 -0.1585
vn -0.8127 0.5030 -0.2941
vn -0.9185 0.3025 -0.2545
vn -0.8364 0.3948 -0.3801
vn -0.9166 0.1868 -0.3535
vn -0.8342 0.2891 -0.4697
vn -0.8877 0.0745 -0.4543
vn -0.8061 0.1873 -0.5613
vn -0.8309 -0.0330 -0.5554
vn -0.7518 0.0912 -0.6531
vn -0.7444 -0.1337 -0.6542
vn -0.6702 0.0027 -0.7421
vn -0.6265 -0.2244 -0.7464
vn -0.5610 -0.0753 -0.8244
vn -0.4772 -0.3002 -0.8259
vn -0.4249 -0.1393 -0.8945
vn -0.2998 -0.3557 -0.8852
vn -0.2657 -0.1852 -0.9461
vn -0.1024 -0.3851 -0.9172
vn -0.0905 -0.2093 -0.9737
vn 0.1024 -0.3851 -0.9172
vn 0.0905 -0.2093 -0.9737
vn 0.2998 -0.3557 -0.8852
vn 0.2657 -0.1852 -0.9461
vn 0.4772 -0.3003 -0.8259
vn 0.4249 -0.1393 -0.8945
vn 0.6265 -0.2244 -0.7464
vn 0.5610 -0.0753 -0.8244
vn 0.7444 -0.1338 -0.6542
vn 0.6702 0.0027 -0.7421
vn 0.8309 -0.0330 -0.5555
vn 0.7518 0.0912 -0.6531
vn 0.8877 0.0745 -0.4543
vn 0.8061 0.1873 -0.5613
vn 0.9166 0.1868 -0.3535
vn 0.8342 0.2891 -0.4697
vn 0.9186 0.3025 -0.2545
vn 0.8364 0.3948 -0.3801
vn 0.8934 0.4203 -0.1585
vn 0.8127 0.5030 -0.2941
vn 0.7621 0.6115 -0.2130
vn 0.6504 0.6674 -0.3627
vn 0.6962 0.5745 -0.4305
vn 0.5799 0.7568 -0.3016
vn 0.4448 0.7667 -0.4629
vn 0.5019 0.6993 -0.5090
vn 0.4848 0.8385 -0.2489
vn 0.3692 0.8271 -0.4238
vn 0.3666 0.9072 -0.2065
vn 0.2773 0.8767 -0.3930
vn 0.2288 0.9573 -0.1768
vn 0.1722 0.9122 -0.3717
vn 0.0778 0.9838 -0.1614
vn 0.0584 0.9308 -0.3608
vn -0.0778 0.9838 -0.1614
vn -0.0584 0.9308 -0.3608
vn -0.2288 0.9573 -0.1768
vn -0.1721 0.9123 -0.3717
vn -0.3666 0.9072 -0.2066
vn -0.2773 0.8767 -0.3930
vn -0.4848 0.8385 -0.2489
vn -0.3692 0.8271 -0.4238
vn -0.5799 0.7568 -0.3016
vn -0.4448 0.7668 -0.4629
vn -0.6503 0.6674 -0.3627
vn -0.5019 0.6993 -0.5090
vn -0.6962 0.5745 -0.4305
vn -0.5397 0.6280 -0.5607
vn -0.7178 0.4812 -0.5032
vn -0.5578 0.5555 -0.6167
vn -0.7157 0.3900 -0.5794
vn -0.5563 0.4841 -0.6754
vn -0.6900 0.3027 -0.6574
vn -0.5353 0.4160 -0.7351
vn -0.6409 0.2212 -0.7351
vn -0.4952 0.3527 -0.7940
vn -0.5682 0.1474 -0.8096
vn -0.4367 0.2962 -0.8495
vn -0.4726 0.0836 -0.8773
vn -0.3609 0.2481 -0.8990
vn -0.3557 0.0324 -0.9340
vn -0.2701 0.2101 -0.9397
vn -0.2213 -0.0037 -0.9752
vn -0.1672 0.1837 -0.9687
vn -0.0752 -0.0224 -0.9969
vn -0.0566 0.1702 -0.9838
vn 0.0752 -0.0224 -0.9969
vn 0.0566 0.1702 -0.9838
vn 0.2213 -0.0038 -0.9752
vn 0.1672 0.1837 -0.9687
vn 0.3557 0.0323 -0.9340
vn 0.2700 0.2100 -0.9397
vn 0.4726 0.0836 -0.8773
vn 0.3609 0.2481 -0.8990
vn 0.5682 0.1474 -0.8096
vn 0.4367 0.2962 -0.8495
vn 0.6409 0.2212 -0.7351
vn 0.4952 0.3527 -0.7939
vn 0.6900 0.3027 -0.6574
vn 0.5353 0.4159 -0.7351
vn 0.7157 0.3900 -0.5794
vn 0.5563 0.4841 -0.6754
vn 0.7178 0.4812 -0.5032
vn 0.5578 0.5555 -0.6167
vn 0.5397 0.6280 -0.5607
vn 0.3439 0.6544 -0.6734
vn 0.3565 0.6084 -0.7091
vn 0.3184 0.6990 -0.6403
vn 0.1091 0.6606 -0.7428
vn 0.1183 0.6457 -0.7544
vn -0.0782 0.5604 -0.8245
vn -0.0953 0.5713 -0.8152
vn 0.0122 0.7044 -0.7097
vn -0.0122 0.7044 -0.7097
vn 0.0361 0.7012 -0.7121
vn 0.0585 0.6949 -0.7168
vn 0.0787 0.6857 -0.7236
vn 0.0957 0.6741 -0.7324
vn 0.1229 0.6300 -0.7668
vn 0.1228 0.6141 -0.7796
vn 0.1180 0.5987 -0.7922
vn 0.1087 0.5842 -0.8043
vn 0.0953 0.5713 -0.8152
vn 0.0782 0.5604 -0.8245
vn 0.0581 0.5518 -0.8319
vn 0.0358 0.5460 -0.8370
vn 0.0121 0.5430 -0.8397
vn -0.0121 0.5430 -0.8397
vn -0.0358 0.5460 -0.8370
vn -0.0581 0.5518 -0.8319
vn -0.1087 0.5842 -0.8043
vn -0.1180 0.5987 -0.7922
vn -0.1228 0.6141 -0.7796
vn -0.1229 0.6300 -0.7668
vn -0.1183 0.6457 -0.7544
vn -0.1091 0.6606 -0.7428
vn -0.0957 0.6741 -0.7324
vn -0.0787 0.6857 -0.7236
vn -0.0584 0.6949 -0.7168
vn -0.0360 0.7012 -0.7121
vn -0.1067 0.8257 -0.5539
vn -0.0361 0.8363 -0.5471
vn -0.1727 0.8054 -0.5671
vn -0.2314 0.7763 -0.5863
vn -0.2805 0.7403 -0.6110
vn -0.3183 0.6990 -0.6403
vn -0.3439 0.6544 -0.6734
vn -0.3564 0.6084 -0.7091
vn -0.3557 0.5626 -0.7463
vn -0.3419 0.5185 -0.7838
vn -0.3153 0.4776 -0.8200
vn -0.2768 0.4412 -0.8536
vn -0.1696 0.3865 -0.9066
vn -0.2277 0.4105 -0.8830
vn -0.1046 0.3700 -0.9231
vn -0.0353 0.3615 -0.9317
vn 0.0354 0.3615 -0.9317
vn 0.1046 0.3700 -0.9231
vn 0.1696 0.3865 -0.9066
vn 0.2277 0.4105 -0.8830
vn 0.2769 0.4412 -0.8536
vn 0.3153 0.4776 -0.8200
vn 0.3419 0.5185 -0.7838
vn 0.3558 0.5625 -0.7463
vn 0.2314 0.7763 -0.5864
vn 0.2805 0.7403 -0.6110
vn 0.1727 0.8054 -0.5671
vn 0.1068 0.8257 -0.5538
vn 0.0361 0.8363 -0.5471
vn 0.1046 -0.3700 0.9231
vn 0.1696 -0.3865 0.9066
vn 0.0354 -0.3616 0.9317
vn 0.0358 -0.5460 0.8370
vn 0.0121 -0.5430 0.8397
vn -0.0354 -0.3616 0.9317
vn -0.0121 -0.5430 0.8397
vn -0.1046 -0.3700 0.9231
vn -0.0358 -0.5460 0.8371
vn -0.1696 -0.3865 0.9066
vn -0.0581 -0.5518 0.8319
vn -0.2277 -0.4105 0.8830
vn -0.0782 -0.5604 0.8245
vn -0.2769 -0.4412 0.8536
vn -0.0953 -0.5713 0.8152
vn -0.3153 -0.4776 0.8200
vn -0.1087 -0.5842 0.8043
vn -0.3419 -0.5185 0.7838
vn -0.1180 -0.5987 0.7923
vn -0.3558 -0.5625 0.7463
vn -0.1228 -0.6141 0.7796
vn -0.3565 -0.6084 0.7091
vn -0.1229 -0.6300 0.7668
vn -0.3439 -0.6544 0.6734
vn -0.1183 -0.6457 0.7544
vn -0.3184 -0.6990 0.6403
vn -0.1091 -0.6606 0.7428
vn -0.2805 -0.7403 0.6110
vn -0.0957 -0.6741 0.7324
vn -0.2314 -0.7763 0.5863
vn -0.0786 -0.6857 0.7236
vn -0.1727 -0.8054 0.5671
vn -0.0585 -0.6948 0.7168
vn -0.1068 -0.8257 0.5538
vn -0.0361 -0.7012 0.7121
vn -0.0361 -0.8363 0.5471
vn -0.0121 -0.7044 0.7097
vn 0.0361 -0.8363 0.5471
vn 0.0121 -0.7044 0.7097
vn 0.1067 -0.8258 0.5538
vn 0.0361 -0.7012 0.7121
vn 0.1727 -0.8054 0.5671
vn 0.0585 -0.6949 0.7168
vn 0.2314 -0.7763 0.5863
vn 0.0786 -0.6857 0.7236
vn 0.2805 -0.7403 0.6110
vn 0.0957 -0.6741 0.7324
vn 0.3183 -0.6990 0.6403
vn 0.1091 -0.6606 0.7428
vn 0.3439 -0.6544 0.6734
vn 0.1183 -0.6457 0.7544
vn 0.3565 -0.6084 0.7091
vn 0.1229 -0.6300 0.7668
vn 0.3558 -0.5626 0.7463
vn 0.1228 -0.6141 0.7796
vn 0.3419 -0.5185 0.7838
vn 0.1180 -0.5987 0.7923
vn 0.1087 -0.5842 0.8043
vn 0.3153 -0.4776 0.8200
vn 0.2769 -0.4412 0.8536
vn 0.0953 -0.5713 0.8152
vn 0.2277 -0.4105 0.8830
vn 0.0782 -0.5604 0.8245
vn 0.0581 -0.5518 0.8319
vn 0.0751 0.0225 0.9969
vn -0.0752 0.0224 0.9969
vn -0.2213 0.0038 0.9752
vn -0.2700 -0.2100 0.9397
vn -0.3557 -0.0323 0.9340
vn -0.5353 -0.4160 0.7351
vn -0.5578 -0.5555 0.6166
vn -0.5397 -0.6279 0.5607
vn -0.1722 -0.9122 0.3717
vn -0.0779 -0.9838 0.1614
vn 0.1722 -0.9122 0.3717
vn 0.3666 -0.9072 0.2065
vn 0.6504 -0.6674 0.3627
vn 0.5563 -0.4842 0.6754
vn 0.4952 -0.3527 0.7939
vn 0.5682 -0.1475 0.8096
vn 0.2700 -0.2100 0.9397
vn -0.7621 -0.6114 0.2130
vn -0.4373 -0.8991 0.0188
vn 0.4772 0.3003 0.8259
vn -0.1152 0.6881 0.7164
vn -0.1107 0.5458 0.8305
vn -0.8184 0.3762 0.4345
vn -0.9665 -0.2361 -0.1002
vn 0.9395 0.0338 0.3408
vn -0.6938 -0.4851 -0.5324
vn -0.5129 -0.4475 -0.7325
vn 0.1153 -0.6881 -0.7164
vn 0.1053 0.9663 0.2350
vn 0.0936 0.9948 0.0403
vn 0.7621 0.6114 -0.2130
vn 0.4448 0.7668 -0.4629
vn 0.3693 0.8271 -0.4238
vn 0.3666 0.9072 -0.2066
vn 0.0779 0.9838 -0.1614
vn -0.1722 0.9123 -0.3717
vn -0.4952 0.3527 -0.7939
vn -0.4366 0.2962 -0.8495
vn -0.2700 0.2100 -0.9397
vn -0.0751 -0.0225 -0.9969
vn 0.0751 -0.0225 -0.9969
vn 0.0566 0.1701 -0.9838
vn 0.2213 -0.0037 -0.9752
vn 0.3557 0.0324 -0.9340
vn 0.2701 0.2100 -0.9397
vn 0.5353 0.4160 -0.7351
vn 0.3439 0.6545 -0.6734
vn -0.1067 0.8258 -0.5538
vn -0.3439 0.6545 -0.6734
vn -0.3558 0.5625 -0.7463
vn -0.2769 0.4412 -0.8536
vn -0.0354 0.3616 -0.9317
vn 0.0354 0.3616 -0.9317
vn 0.2314 0.7763 -0.5863
vn 0.2805 0.7402 -0.6110
vn 0.1067 0.8258 -0.5538
vn 0.0353 -0.3616 0.9317
vn -0.3419 -0.5184 0.7838
vn -0.1728 -0.8054 0.5671
vn 0.0360 -0.8363 0.5471
vn 0.1068 -0.8257 0.5538
vn 0.3184 -0.6990 0.6403
vn 0.3558 -0.5625 0.7463
vn 0.2277 -0.4105 0.8829
vt 0.750000 0.812500
vt 0.718750 0.750000
vt 0.750000 0.750000
vt 0.750000 0.875000
vt 0.718750 0.812500
vt 0.781250 0.812500
vt 0.781250 0.750000
vt 0.812500 0.812500
vt 0.781250 0.875000
vt 0.812500 0.750000
vt 0.843750 0.812500
vt 0.812500 0.875000
vt 0.843750 0.750000
vt 0.875000 0.812500
vt 0.843750 0.875000
vt 0.875000 0.750000
vt 0.906250 0.812500
vt 0.875000 0.875000
vt 0.906250 0.750000
vt 0.937500 0.812500
vt 0.906250 0.875000
vt 0.937500 0.750000
vt 0.968750 0.812500
vt 0.937500 0.875000
vt 0.968750 0.750000
vt 1.000000 0.812500
vt 0.968750 0.875000
vt 1.000000 0.750000
vt 0.031250 0.875000
vt 0.000000 0.812500
vt 0.031250 0.812500
vt 0.031250 0.750000
vt 0.000000 0.750000
vt 0.062500 0.875000
vt 0.062500 0.812500
vt 0.062500 0.750000
vt 0.093750 0.875000
vt 0.093750 0.812500
vt 0.093750 0.750000
vt 0.125000 0.875000
vt 0.125000 0.812500
vt 0.125000 0.750000
vt 0.156250 0.875000
vt 0.156250 0.812500
vt 0.156250 0.750000
vt 0.187500 0.875000
vt 0.187500 0.812500
vt 0.187500 0.750000
vt 0.218750 0.875000
vt 0.218750 0.812500
vt 0.218750 0.750000
vt 0.250000 0.875000
vt 0.250000 0.812500
vt 0.250000 0.750000
vt 0.281250 0.812500
vt 0.281250 0.750000
vt 0.312500 0.812500
vt 0.281250 0.875000
vt 0.312500 0.750000
vt 0.343750 0.812500
vt 0.312500 0.875000
vt 0.343750 0.750000
vt 0.375000 0.812500
vt 0.343750 0.875000
vt 0.375000 0.750000
vt 0.406250 0.812500
vt 0.375000 0.875000
vt 0.406250 0.750000
vt 0.437500 0.812500
vt 0.406250 0.875000
vt 0.437500 0.750000
vt 0.468750 0.812500
vt 0.437500 0.875000
vt 0.468750 0.750000
vt 0.500000 0.812500
vt 0.468750 0.875000
vt 0.500000 0.750000
vt 0.531250 0.875000
vt 0.531250 0.812500
vt 0.531250 0.750000
vt 0.562500 0.875000
vt 0.562500 0.812500
vt 0.562500 0.750000
vt 0.593750 0.875000
vt 0.593750 0.812500
vt 0.593750 0.750000
vt 0.625000 0.875000
vt 0.625000 0.812500
vt 0.625000 0.750000
vt 0.656250 0.875000
vt 0.656250 0.812500
vt 0.656250 0.750000
vt 0.687500 0.875000
vt 0.687500 0.812500
vt 0.687500 0.750000
vt 0.718750 0.875000
vt 0.687500 0.687500
vt 0.718750 0.687500
vt 0.656250 0.687500
vt 0.750000 0.687500
vt 0.718750 0.625000
vt 0.750000 0.625000
vt 0.687500 0.625000
vt 0.781250 0.687500
vt 0.781250 0.625000
vt 0.812500 0.687500
vt 0.812500 0.625000
vt 0.843750 0.687500
vt 0.843750 0.625000
vt 0.875000 0.687500
vt 0.875000 0.625000
vt 0.906250 0.687500
vt 0.906250 0.625000
vt 0.937500 0.687500
vt 0.937500 0.625000
vt 0.968750 0.687500
vt 0.968750 0.625000
vt 1.000000 0.687500
vt 1.000000 0.625000
vt 0.031250 0.687500
vt 0.000000 0.687500
vt 0.031250 0.625000
vt 0.000000 0.625000
vt 0.062500 0.687500
vt 0.062500 0.625000
vt 0.093750 0.687500
vt 0.093750 0.625000
vt 0.125000 0.687500
vt 0.125000 0.625000
vt 0.156250 0.687500
vt 0.156250 0.625000
vt 0.187500 0.687500
vt 0.187500 0.625000
vt 0.218750 0.687500
vt 0.218750 0.625000
vt 0.250000 0.687500
vt 0.250000 0.625000
vt 0.281250 0.687500
vt 0.281250 0.625000
vt 0.312500 0.687500
vt 0.312500 0.625000
vt 0.343750 0.687500
vt 0.343750 0.625000
vt 0.375000 0.687500
vt 0.375000 0.625000
vt 0.406250 0.687500
vt 0.406250 0.625000
vt 0.437500 0.687500
vt 0.437500 0.625000
vt 0.468750 0.687500
vt 0.468750 0.625000
vt 0.500000 0.687500
vt 0.500000 0.625000
vt 0.531250 0.687500
vt 0.531250 0.625000
vt 0.562500 0.687500
vt 0.562500 0.625000
vt 0.593750 0.687500
vt 0.593750 0.625000
vt 0.625000 0.687500
vt 0.625000 0.625000
vt 0.656250 0.625000
vt 0.656250 0.562500
vt 0.687500 0.562500
vt 0.625000 0.562500
vt 0.718750 0.562500
vt 0.687500 0.500000
vt 0.718750 0.500000
vt 0.656250 0.500000
vt 0.750000 0.562500
vt 0.750000 0.500000
vt 0.781250 0.500000
vt 0.781250 0.562500
vt 0.812500 0.562500
vt 0.812500 0.500000
vt 0.843750 0.562500
vt 0.843750 0.500000
vt 0.875000 0.562500
vt 0.875000 0.500000
vt 0.906250 0.562500
vt 0.906250 0.500000
vt 0.937500 0.562500
vt 0.937500 0.500000
vt 0.968750 0.562500
vt 0.968750 0.500000
vt 1.000000 0.562500
vt 1.000000 0.500000
vt 0.031250 0.562500
vt 0.000000 0.562500
vt 0.031250 0.500000
vt 0.000000 0.500000
vt 0.062500 0.562500
vt 0.062500 0.500000
vt 0.093750 0.562500
vt 0.093750 0.500000
vt 0.125000 0.562500
vt 0.125000 0.500000
vt 0.156250 0.562500
vt 0.156250 0.500000
vt 0.187500 0.562500
vt 0.187500 0.500000
vt 0.218750 0.562500
vt 0.218750 0.500000
vt 0.250000 0.562500
vt 0.250000 0.500000
vt 0.281250 0.562500
vt 0.281250 0.500000
vt 0.312500 0.562500
vt 0.312500 0.500000
vt 0.343750 0.562500
vt 0.343750 0.500000
vt 0.375000 0.562500
vt 0.375000 0.500000
vt 0.406250 0.562500
vt 0.406250 0.500000
vt 0.437500 0.562500
vt 0.437500 0.500000
vt 0.468750 0.562500
vt 0.468750 0.500000
vt 0.500000 0.562500
vt 0.500000 0.500000
vt 0.531250 0.562500
vt 0.531250 0.500000
vt 0.562500 0.562500
vt 0.562500 0.500000
vt 0.593750 0.562500
vt 0.593750 0.500000
vt 0.625000 0.500000
vt 0.625000 0.437500
vt 0.656250 0.437500
vt 0.593750 0.437500
vt 0.687500 0.437500
vt 0.687500 0.375000
vt 0.656250 0.375000
vt 0.625000 0.375000
vt 0.718750 0.437500
vt 0.718750 0.375000
vt 0.750000 0.437500
vt 0.750000 0.375000
vt 0.781250 0.437500
vt 0.781250 0.375000
vt 0.812500 0.437500
vt 0.812500 0.375000
vt 0.843750 0.437500
vt 0.843750 0.375000
vt 0.875000 0.437500
vt 0.875000 0.375000
vt 0.906250 0.437500
vt 0.906250 0.375000
vt 0.937500 0.437500
vt 0.937500 0.375000
vt 0.968750 0.437500
vt 0.968750 0.375000
vt 1.000000 0.437500
vt 1.000000 0.375000
vt 0.031250 0.437500
vt 0.000000 0.437500
vt 0.031250 0.375000
vt 0.000000 0.375000
vt 0.062500 0.437500
vt 0.062500 0.375000
vt 0.093750 0.437500
vt 0.093750 0.375000
vt 0.125000 0.437500
vt 0.125000 0.375000
vt 0.156250 0.437500
vt 0.156250 0.375000
vt 0.187500 0.437500
vt 0.187500 0.375000
vt 0.218750 0.437500
vt 0.218750 0.375000
vt 0.250000 0.437500
vt 0.250000 0.375000
vt 0.281250 0.437500
vt 0.281250 0.375000
vt 0.312500 0.437500
vt 0.312500 0.375000
vt 0.343750 0.437500
vt 0.343750 0.375000
vt 0.375000 0.437500
vt 0.375000 0.375000
vt 0.406250 0.437500
vt 0.406250 0.375000
vt 0.437500 0.437500
vt 0.437500 0.375000
vt 0.468750 0.437500
vt 0.468750 0.375000
vt 0.500000 0.437500
vt 0.500000 0.375000
vt 0.531250 0.437500
vt 0.531250 0.375000
vt 0.562500 0.437500
vt 0.562500 0.375000
vt 0.593750 0.375000
vt 0.625000 0.312500
vt 0.593750 0.312500
vt 0.562500 0.312500
vt 0.656250 0.312500
vt 0.656250 0.250000
vt 0.625000 0.250000
vt 0.593750 0.250000
vt 0.687500 0.312500
vt 0.687500 0.250000
vt 0.718750 0.312500
vt 0.718750 0.250000
vt 0.750000 0.312500
vt 0.750000 0.250000
vt 0.781250 0.312500
vt 0.781250 0.250000
vt 0.812500 0.312500
vt 0.812500 0.250000
vt 0.843750 0.312500
vt 0.843750 0.250000
vt 0.875000 0.312500
vt 0.875000 0.250000
vt 0.906250 0.312500
vt 0.906250 0.250000
vt 0.937500 0.312500
vt 0.937500 0.250000
vt 0.968750 0.312500
vt 0.968750 0.250000
vt 1.000000 0.312500
vt 1.000000 0.250000
vt 0.031250 0.312500
vt 0.000000 0.312500
vt 0.031250 0.250000
vt 0.000000 0.250000
vt 0.062500 0.312500
vt 0.062500 0.250000
vt 0.093750 0.312500
vt 0.093750 0.250000
vt 0.125000 0.312500
vt 0.125000 0.250000
vt 0.156250 0.312500
vt 0.156250 0.250000
vt 0.187500 0.312500
vt 0.187500 0.250000
vt 0.218750 0.312500
vt 0.218750 0.250000
vt 0.250000 0.312500
vt 0.250000 0.250000
vt 0.281250 0.312500
vt 0.281250 0.250000
vt 0.312500 0.312500
vt 0.312500 0.250000
vt 0.343750 0.312500
vt 0.343750 0.250000
vt 0.375000 0.312500
vt 0.375000 0.250000
vt 0.406250 0.312500
vt 0.406250 0.250000
vt 0.437500 0.312500
vt 0.437500 0.250000
vt 0.468750 0.312500
vt 0.468750 0.250000
vt 0.500000 0.312500
vt 0.500000 0.250000
vt 0.531250 0.312500
vt 0.531250 0.250000
vt 0.562500 0.250000
vt 0.593750 0.187500
vt 0.562500 0.187500
vt 0.531250 0.187500
vt 0.625000 0.187500
vt 0.625000 0.125000
vt 0.593750 0.125000
vt 0.562500 0.125000
vt 0.656250 0.187500
vt 0.656250 0.125000
vt 0.687500 0.187500
vt 0.687500 0.125000
vt 0.718750 0.187500
vt 0.718750 0.125000
vt 0.750000 0.187500
vt 0.750000 0.125000
vt 0.781250 0.187500
vt 0.781250 0.125000
vt 0.812500 0.187500
vt 0.812500 0.125000
vt 0.843750 0.187500
vt 0.843750 0.125000
vt 0.875000 0.187500
vt 0.875000 0.125000
vt 0.906250 0.187500
vt 0.906250 0.125000
vt 0.937500 0.187500
vt 0.937500 0.125000
vt 0.968750 0.187500
vt 0.968750 0.125000
vt 1.000000 0.187500
vt 1.000000 0.125000
vt 0.031250 0.187500
vt 0.000000 0.187500
vt 0.031250 0.125000
vt 0.000000 0.125000
vt 0.062500 0.187500
vt 0.062500 0.125000
vt 0.093750 0.187500
vt 0.093750 0.125000
vt 0.125000 0.187500
vt 0.125000 0.125000
vt 0.156250 0.187500
vt 0.156250 0.125000
vt 0.187500 0.187500
vt 0.187500 0.125000
vt 0.218750 0.187500
vt 0.218750 0.125000
vt 0.250000 0.187500
vt 0.250000 0.125000
vt 0.281250 0.187500
vt 0.281250 0.125000
vt 0.312500 0.187500
vt 0.312500 0.125000
vt 0.343750 0.187500
vt 0.343750 0.125000
vt 0.375000 0.187500
vt 0.375000 0.125000
vt 0.406250 0.187500
vt 0.406250 0.125000
vt 0.437500 0.187500
vt 0.437500 0.125000
vt 0.468750 0.187500
vt 0.468750 0.125000
vt 0.500000 0.187500
vt 0.500000 0.125000
vt 0.531250 0.125000
vt 0.562500 0.062500
vt 0.531250 0.062500
vt 0.500000 0.062500
vt 0.593750 0.062500
vt 0.578125 0.000000
vt 0.546875 0.000000
vt 0.140625 0.000000
vt 0.156250 0.062500
vt 0.125000 0.062500
vt 0.109375 0.000000
vt 0.093750 0.062500
vt 0.734375 0.000000
vt 0.750000 0.062500
vt 0.718750 0.062500
vt 0.765625 0.000000
vt 0.781250 0.062500
vt 0.703125 0.000000
vt 0.687500 0.062500
vt 0.671875 0.000000
vt 0.656250 0.062500
vt 0.640625 0.000000
vt 0.625000 0.062500
vt 0.609375 0.000000
vt 0.515625 0.000000
vt 0.484375 0.000000
vt 0.468750 0.062500
vt 0.453125 0.000000
vt 0.437500 0.062500
vt 0.421875 0.000000
vt 0.406250 0.062500
vt 0.390625 0.000000
vt 0.375000 0.062500
vt 0.359375 0.000000
vt 0.343750 0.062500
vt 0.328125 0.000000
vt 0.312500 0.062500
vt 0.296875 0.000000
vt 0.281250 0.062500
vt 0.265625 0.000000
vt 0.250000 0.062500
vt 0.234375 0.000000
vt 0.218750 0.062500
vt 0.203125 0.000000
vt 0.187500 0.062500
vt 0.171875 0.000000
vt 0.078125 0.000000
vt 0.062500 0.062500
vt 0.046875 0.000000
vt 0.031250 0.062500
vt 0.015625 0.000000
vt 0.000000 0.062500
vt 0.984375 0.000000
vt 1.000000 0.062500
vt 0.968750 0.062500
vt 0.953125 0.000000
vt 0.937500 0.062500
vt 0.921875 0.000000
vt 0.906250 0.062500
vt 0.890625 0.000000
vt 0.875000 0.062500
vt 0.859375 0.000000
vt 0.843750 0.062500
vt 0.828125 0.000000
vt 0.812500 0.062500
vt 0.796875 0.000000
vt 0.718750 0.937500
vt 0.687500 0.937500
vt 0.750000 0.937500
vt 0.703125 1.000000
vt 0.734375 1.000000
vt 0.781250 0.937500
vt 0.765625 1.000000
vt 0.812500 0.937500
vt 0.796875 1.000000
vt 0.843750 0.937500
vt 0.828125 1.000000
vt 0.875000 0.937500
vt 0.859375 1.000000
vt 0.906250 0.937500
vt 0.890625 1.000000
vt 0.937500 0.937500
vt 0.921875 1.000000
vt 0.968750 0.937500
vt 0.953125 1.000000
vt 1.000000 0.875000
vt 1.000000 0.937500
vt 0.984375 1.000000
vt 0.031250 0.937500
vt 0.000000 0.875000
vt 0.015625 1.000000
vt 0.000000 0.937500
vt 0.062500 0.937500
vt 0.046875 1.000000
vt 0.093750 0.937500
vt 0.078125 1.000000
vt 0.125000 0.937500
vt 0.109375 1.000000
vt 0.156250 0.937500
vt 0.140625 1.000000
vt 0.187500 0.937500
vt 0.171875 1.000000
vt 0.218750 0.937500
vt 0.203125 1.000000
vt 0.250000 0.937500
vt 0.234375 1.000000
vt 0.281250 0.937500
vt 0.265625 1.000000
vt 0.312500 0.937500
vt 0.296875 1.000000
vt 0.343750 0.937500
vt 0.328125 1.000000
vt 0.375000 0.937500
vt 0.359375 1.000000
vt 0.406250 0.937500
vt 0.390625 1.000000
vt 0.437500 0.937500
vt 0.421875 1.000000
vt 0.468750 0.937500
vt 0.453125 1.000000
vt 0.500000 0.875000
vt 0.500000 0.937500
vt 0.484375 1.000000
vt 0.531250 0.937500
vt 0.515625 1.000000
vt 0.562500 0.937500
vt 0.546875 1.000000
vt 0.593750 0.937500
vt 0.578125 1.000000
vt 0.625000 0.937500
vt 0.609375 1.000000
vt 0.656250 0.937500
vt 0.640625 1.000000
vt 0.671875 1.000000
s 0
f 1/1/1 96/2/1 4/3/1
f 3/4/2 2/5/2 1/1/2
f 5/6/3 3/4/3 1/1/3
f 7/7/4 1/1/4 4/3/4
f 8/8/5 6/9/5 5/6/5
f 10/10/6 5/6/6 7/7/6
f 11/11/7 9/12/7 8/8/7
f 13/13/8 8/8/8 10/10/8
f 14/14/9 12/15/9 11/11/9
f 16/16/10 11/11/10 13/13/10
f 17/17/11 15/18/11 14/14/11
f 19/19/12 14/14/12 16/16/12
f 20/20/13 18/21/13 17/17/13
f 22/22/14 17/17/14 19/19/14
f 23/23/15 21/24/15 20/20/15
f 25/25/16 20/20/16 22/22/16
f 26/26/17 24/27/17 23/23/17
f 28/28/18 23/23/18 25/25/18
f 30/29/19 26/30/19 29/31/19
f 31/32/20 26/30/20 28/33/20
f 33/34/21 29/31/21 32/35/21
f 32/35/22 31/32/22 34/36/22
f 36/37/23 32/35/23 35/38/23
f 35/38/24 34/36/24 37/39/24
f 39/40/25 35/38/25 38/41/25
f 38/41/26 37/39/26 40/42/26
f 42/43/27 38/41/27 41/44/27
f 41/44/28 40/42/28 43/45/28
f 45/46/29 41/44/29 44/47/29
f 44/47/30 43/45/30 46/48/30
f 48/49/31 44/47/31 47/50/31
f 47/50/32 46/48/32 49/51/32
f 51/52/33 47/50/33 50/53/33
f 50/53/34 49/51/34 52/54/34
f 53/55/35 51/52/35 50/53/35
f 55/56/36 50/53/36 52/54/36
f 56/57/37 54/58/37 53/55/37
f 58/59/38 53/55/38 55/56/38
f 59/60/39 57/61/39 56/57/39
f 61/62/40 56/57/40 58/59/40
f 62/63/41 60/64/41 59/60/41
f 64/65/42 59/60/42 61/62/42
f 65/66/43 63/67/43 62/63/43
f 67/68/44 62/63/44 64/65/44
f 68/69/45 66/70/45 65/66/45
f 70/71/46 65/66/46 67/68/46
f 71/72/47 69/73/47 68/69/47
f 73/74/48 68/69/48 70/71/48
f 74/75/49 72/76/49 71/72/49
f 74/75/50 73/74/50 76/77/50
f 78/78/51 74/75/51 77/79/51
f 77/79/52 76/77/52 79/80/52
f 81/81/53 77/79/53 80/82/53
f 80/82/54 79/80/54 82/83/54
f 84/84/55 80/82/55 83/85/55
f 83/85/56 82/83/56 85/86/56
f 87/87/57 83/85/57 86/88/57
f 86/88/58 85/86/58 88/89/58
f 90/90/59 86/88/59 89/91/59
f 89/91/60 88/89/60 91/92/60
f 93/93/61 89/91/61 92/94/61
f 92/94/62 91/92/62 94/95/62
f 450/96/63 92/94/63 2/5/63
f 2/5/64 94/95/64 96/2/64
f 96/2/65 95/97/65 97/98/65
f 94/95/66 157/99/66 95/97/66
f 4/3/67 97/98/67 99/100/67
f 99/100/68 98/101/68 100/102/68
f 97/98/69 160/103/69 98/101/69
f 101/104/70 4/3/70 99/100/70
f 102/105/71 99/100/71 100/102/71
f 103/106/72 7/7/72 101/104/72
f 104/107/73 101/104/73 102/105/73
f 105/108/74 10/10/74 103/106/74
f 106/109/75 103/106/75 104/107/75
f 107/110/76 13/13/76 105/108/76
f 108/111/77 105/108/77 106/109/77
f 109/112/78 16/16/78 107/110/78
f 110/113/79 107/110/79 108/111/79
f 111/114/80 19/19/80 109/112/80
f 112/115/81 109/112/81 110/113/81
f 113/116/82 22/22/82 111/114/82
f 114/117/83 111/114/83 112/115/83
f 115/118/84 25/25/84 113/116/84
f 116/119/85 113/116/85 114/117/85
f 117/120/86 28/33/86 115/121/86
f 118/122/87 115/121/87 116/123/87
f 34/36/88 117/120/88 119/124/88
f 119/124/89 118/122/89 120/125/89
f 37/39/90 119/124/90 121/126/90
f 121/126/91 120/125/91 122/127/91
f 40/42/92 121/126/92 123/128/92
f 123/128/93 122/127/93 124/129/93
f 43/45/94 123/128/94 125/130/94
f 125/130/95 124/129/95 126/131/95
f 46/48/96 125/130/96 127/132/96
f 127/132/97 126/131/97 128/133/97
f 49/51/98 127/132/98 129/134/98
f 129/134/99 128/133/99 130/135/99
f 52/54/100 129/134/100 131/136/100
f 131/136/101 130/135/101 132/137/101
f 133/138/102 52/54/102 131/136/102
f 134/139/103 131/136/103 132/137/103
f 135/140/104 55/56/104 133/138/104
f 136/141/105 133/138/105 134/139/105
f 137/142/106 58/59/106 135/140/106
f 138/143/107 135/140/107 136/141/107
f 139/144/108 61/62/108 137/142/108
f 140/145/109 137/142/109 138/143/109
f 141/146/110 64/65/110 139/144/110
f 142/147/111 139/144/111 140/145/111
f 143/148/112 67/68/112 141/146/112
f 144/149/113 141/146/113 142/147/113
f 145/150/114 70/71/114 143/148/114
f 146/151/115 143/148/115 144/149/115
f 76/77/116 145/150/116 147/152/116
f 147/152/117 146/151/117 148/153/117
f 79/80/118 147/152/118 149/154/118
f 149/154/119 148/153/119 150/155/119
f 82/83/120 149/154/120 151/156/120
f 151/156/121 150/155/121 152/157/121
f 85/86/122 151/156/122 153/158/122
f 153/158/123 152/157/123 154/159/123
f 88/89/124 153/158/124 155/160/124
f 155/160/125 154/159/125 156/161/125
f 91/92/126 155/160/126 157/99/126
f 157/99/127 156/161/127 158/162/127
f 95/97/128 158/162/128 160/103/128
f 160/103/129 159/163/129 161/164/129
f 158/162/130 221/165/130 159/163/130
f 98/101/131 161/164/131 163/166/131
f 163/166/132 162/167/132 164/168/132
f 161/164/133 224/169/133 162/167/133
f 100/102/134 163/166/134 165/170/134
f 165/170/135 164/168/135 166/171/135
f 168/172/136 165/170/136 166/171/136
f 167/173/137 100/102/137 165/170/137
f 169/174/138 102/105/138 167/173/138
f 170/175/139 167/173/139 168/172/139
f 171/176/140 104/107/140 169/174/140
f 172/177/141 169/174/141 170/175/141
f 173/178/142 106/109/142 171/176/142
f 174/179/143 171/176/143 172/177/143
f 175/180/144 108/111/144 173/178/144
f 176/181/145 173/178/145 174/179/145
f 177/182/146 110/113/146 175/180/146
f 178/183/147 175/180/147 176/181/147
f 179/184/148 112/115/148 177/182/148
f 180/185/149 177/182/149 178/183/149
f 181/186/150 114/117/150 179/184/150
f 182/187/151 179/184/151 180/185/151
f 183/188/152 116/123/152 181/189/152
f 184/190/153 181/189/153 182/191/153
f 185/192/154 118/122/154 183/188/154
f 186/193/155 183/188/155 184/190/155
f 122/127/156 185/192/156 187/194/156
f 188/195/157 185/192/157 186/193/157
f 124/129/158 187/194/158 189/196/158
f 190/197/159 187/194/159 188/195/159
f 126/131/160 189/196/160 191/198/160
f 192/199/161 189/196/161 190/197/161
f 128/133/162 191/198/162 193/200/162
f 194/201/163 191/198/163 192/199/163
f 130/135/164 193/200/164 195/202/164
f 196/203/165 193/200/165 194/201/165
f 132/137/166 195/202/166 197/204/166
f 198/205/167 195/202/167 196/203/167
f 199/206/168 132/137/168 197/204/168
f 199/206/169 198/205/169 200/207/169
f 201/208/170 134/139/170 199/206/170
f 201/208/171 200/207/171 202/209/171
f 203/210/172 136/141/172 201/208/172
f 203/210/173 202/209/173 204/211/173
f 205/212/174 138/143/174 203/210/174
f 205/212/175 204/211/175 206/213/175
f 207/214/176 140/145/176 205/212/176
f 207/214/177 206/213/177 208/215/177
f 209/216/178 142/147/178 207/214/178
f 209/216/179 208/215/179 210/217/179
f 146/151/180 209/216/180 211/218/180
f 211/218/181 210/217/181 212/219/181
f 148/153/182 211/218/182 213/220/182
f 213/220/183 212/219/183 214/221/183
f 150/155/184 213/220/184 215/222/184
f 215/222/185 214/221/185 216/223/185
f 152/157/186 215/222/186 217/224/186
f 217/224/187 216/223/187 218/225/187
f 154/159/188 217/224/188 219/226/188
f 219/226/189 218/225/189 220/227/189
f 156/161/190 219/226/190 221/165/190
f 221/165/191 220/227/191 222/228/191
f 159/163/192 222/228/192 224/169/192
f 224/169/193 223/229/193 225/230/193
f 222/228/194 285/231/194 223/229/194
f 162/167/195 225/230/195 227/232/195
f 228/233/196 225/230/196 226/234/196
f 226/234/197 223/229/197 288/235/197
f 164/168/198 227/232/198 229/236/198
f 230/237/199 227/232/199 228/233/199
f 166/171/200 229/236/200 231/238/200
f 232/239/201 229/236/201 230/237/201
f 233/240/202 166/171/202 231/238/202
f 233/240/203 232/239/203 234/241/203
f 235/242/204 168/172/204 233/240/204
f 235/242/205 234/241/205 236/243/205
f 237/244/206 170/175/206 235/242/206
f 237/244/207 236/243/207 238/245/207
f 239/246/208 172/177/208 237/244/208
f 239/246/209 238/245/209 240/247/209
f 241/248/210 174/179/210 239/246/210
f 241/248/211 240/247/211 242/249/211
f 243/250/212 176/181/212 241/248/212
f 243/250/213 242/249/213 244/251/213
f 245/252/214 178/183/214 243/250/214
f 246/253/215 243/250/215 244/251/215
f 247/254/216 180/185/216 245/252/216
f 248/255/217 245/252/217 246/253/217
f 249/256/218 182/191/218 247/257/218
f 250/258/219 247/257/219 248/259/219
f 251/260/220 184/190/220 249/256/220
f 252/261/221 249/256/221 250/258/221
f 253/262/222 186/193/222 251/260/222
f 254/263/223 251/260/223 252/261/223
f 255/264/224 188/195/224 253/262/224
f 256/265/225 253/262/225 254/263/225
f 257/266/226 190/197/226 255/264/226
f 258/267/227 255/264/227 256/265/227
f 259/268/228 192/199/228 257/266/228
f 260/269/229 257/266/229 258/267/229
f 261/270/230 194/201/230 259/268/230
f 262/271/231 259/268/231 260/269/231
f 263/272/232 196/203/232 261/270/232
f 264/273/233 261/270/233 262/271/233
f 200/207/234 263/272/234 265/274/234
f 265/274/235 264/273/235 266/275/235
f 202/209/236 265/274/236 267/276/236
f 267/276/237 266/275/237 268/277/237
f 204/211/238 267/276/238 269/278/238
f 269/278/239 268/277/239 270/279/239
f 206/213/240 269/278/240 271/280/240
f 271/280/241 270/279/241 272/281/241
f 208/215/242 271/280/242 273/282/242
f 273/282/243 272/281/243 274/283/243
f 210/217/244 273/282/244 275/284/244
f 275/284/245 274/283/245 276/285/245
f 212/219/246 275/284/246 277/286/246
f 277/286/247 276/285/247 278/287/247
f 214/221/248 277/286/248 279/288/248
f 279/288/249 278/287/249 280/289/249
f 216/223/250 279/288/250 281/290/250
f 281/290/251 280/289/251 282/291/251
f 218/225/252 281/290/252 283/292/252
f 283/292/253 282/291/253 284/293/253
f 220/227/254 283/292/254 285/231/254
f 286/294/255 283/292/255 284/293/255
f 288/235/256 285/231/256 286/294/256
f 289/295/257 286/294/257 287/296/257
f 287/296/258 284/293/258 349/297/258
f 291/298/259 288/235/259 289/295/259
f 292/299/260 289/295/260 290/300/260
f 290/300/261 287/296/261 352/301/261
f 293/302/262 226/234/262 291/298/262
f 294/303/263 291/298/263 292/299/263
f 295/304/264 228/233/264 293/302/264
f 296/305/265 293/302/265 294/303/265
f 297/306/266 230/237/266 295/304/266
f 298/307/267 295/304/267 296/305/267
f 234/241/268 297/306/268 299/308/268
f 299/308/269 298/307/269 300/309/269
f 236/243/270 299/308/270 301/310/270
f 301/310/271 300/309/271 302/311/271
f 238/245/272 301/310/272 303/312/272
f 303/312/273 302/311/273 304/313/273
f 240/247/274 303/312/274 305/314/274
f 305/314/275 304/313/275 306/315/275
f 242/249/276 305/314/276 307/316/276
f 307/316/277 306/315/277 308/317/277
f 244/251/278 307/316/278 309/318/278
f 309/318/279 308/317/279 310/319/279
f 246/253/280 309/318/280 311/320/280
f 311/320/281 310/319/281 312/321/281
f 313/322/282 246/253/282 311/320/282
f 314/323/283 311/320/283 312/321/283
f 315/324/284 248/259/284 313/325/284
f 316/326/285 313/325/285 314/327/285
f 317/328/286 250/258/286 315/324/286
f 318/329/287 315/324/287 316/326/287
f 319/330/288 252/261/288 317/328/288
f 320/331/289 317/328/289 318/329/289
f 321/332/290 254/263/290 319/330/290
f 322/333/291 319/330/291 320/331/291
f 323/334/292 256/265/292 321/332/292
f 324/335/293 321/332/293 322/333/293
f 325/336/294 258/267/294 323/334/294
f 326/337/295 323/334/295 324/335/295
f 327/338/296 260/269/296 325/336/296
f 328/339/297 325/336/297 326/337/297
f 329/340/298 262/271/298 327/338/298
f 330/341/299 327/338/299 328/339/299
f 266/275/300 329/340/300 331/342/300
f 331/342/301 330/341/301 332/343/301
f 268/277/302 331/342/302 333/344/302
f 333/344/303 332/343/303 334/345/303
f 270/279/304 333/344/304 335/346/304
f 335/346/305 334/345/305 336/347/305
f 272/281/306 335/346/306 337/348/306
f 337/348/307 336/347/307 338/349/307
f 274/283/308 337/348/308 339/350/308
f 339/350/309 338/349/309 340/351/309
f 276/285/310 339/350/310 341/352/310
f 341/352/311 340/351/311 342/353/311
f 278/287/312 341/352/312 343/354/312
f 343/354/313 342/353/313 344/355/313
f 280/289/314 343/354/314 345/356/314
f 345/356/315 344/355/315 346/357/315
f 282/291/316 345/356/316 347/358/316
f 347/358/317 346/357/317 348/359/317
f 349/297/318 282/291/318 347/358/318
f 350/360/319 347/358/319 348/359/319
f 352/301/320 349/297/320 350/360/320
f 353/361/321 350/360/321 351/362/321
f 351/362/322 348/359/322 413/363/322
f 355/364/323 352/301/323 353/361/323
f 356/365/324 353/361/324 354/366/324
f 354/366/325 351/362/325 416/367/325
f 357/368/326 290/300/326 355/364/326
f 358/369/327 355/364/327 356/365/327
f 359/370/328 292/299/328 357/368/328
f 360/371/329 357/368/329 358/369/329
f 361/372/330 294/303/330 359/370/330
f 362/373/331 359/370/331 360/371/331
f 363/374/332 296/305/332 361/372/332
f 364/375/333 361/372/333 362/373/333
f 300/309/334 363/374/334 365/376/334
f 365/376/335 364/375/335 366/377/335
f 302/311/336 365/376/336 367/378/336
f 367/378/337 366/377/337 368/379/337
f 304/313/338 367/378/338 369/380/338
f 369/380/339 368/379/339 370/381/339
f 306/315/340 369/380/340 371/382/340
f 371/382/341 370/381/341 372/383/341
f 308/317/342 371/382/342 373/384/342
f 373/384/343 372/383/343 374/385/343
f 310/319/344 373/384/344 375/386/344
f 375/386/345 374/385/345 376/387/345
f 312/321/346 375/386/346 377/388/346
f 377/388/347 376/387/347 378/389/347
f 379/390/348 312/321/348 377/388/348
f 379/390/349 378/389/349 380/391/349
f 381/392/350 314/327/350 379/393/350
f 382/394/351 379/393/351 380/395/351
f 383/396/352 316/326/352 381/392/352
f 384/397/353 381/392/353 382/394/353
f 385/398/354 318/329/354 383/396/354
f 386/399/355 383/396/355 384/397/355
f 387/400/356 320/331/356 385/398/356
f 388/401/357 385/398/357 386/399/357
f 389/402/358 322/333/358 387/400/358
f 390/403/359 387/400/359 388/401/359
f 391/404/360 324/335/360 389/402/360
f 392/405/361 389/402/361 390/403/361
f 393/406/362 326/337/362 391/404/362
f 394/407/363 391/404/363 392/405/363
f 395/408/364 328/339/364 393/406/364
f 396/409/365 393/406/365 394/407/365
f 332/343/366 395/408/366 397/410/366
f 397/410/367 396/409/367 398/411/367
f 334/345/368 397/410/368 399/412/368
f 399/412/369 398/411/369 400/413/369
f 336/347/370 399/412/370 401/414/370
f 401/414/371 400/413/371 402/415/371
f 338/349/372 401/414/372 403/416/372
f 403/416/373 402/415/373 404/417/373
f 340/351/374 403/416/374 405/418/374
f 405/418/375 404/417/375 406/419/375
f 342/353/376 405/418/376 407/420/376
f 407/420/377 406/419/377 408/421/377
f 344/355/378 407/420/378 409/422/378
f 409/422/379 408/421/379 410/423/379
f 346/357/380 409/422/380 411/424/380
f 411/424/381 410/423/381 412/425/381
f 348/359/382 411/424/382 413/363/382
f 414/426/383 411/424/383 412/425/383
f 416/367/384 413/363/384 414/426/384
f 417/427/385 414/426/385 415/428/385
f 415/428/386 412/425/386 426/429/386
f 418/430/387 416/367/387 417/427/387
f 419/431/388 418/430/388 417/427/388
f 419/432/389 417/427/389 415/428/389
f 419/433/390 437/434/390 420/435/390
f 419/436/391 420/435/391 438/437/391
f 419/438/392 421/439/392 422/440/392
f 419/441/393 448/442/393 421/439/393
f 419/443/394 422/440/394 423/444/394
f 419/445/395 423/444/395 424/446/395
f 419/447/396 424/446/396 425/448/396
f 419/449/397 425/448/397 418/430/397
f 419/450/398 415/428/398 426/429/398
f 419/451/399 426/429/399 427/452/399
f 419/453/400 427/452/400 428/454/400
f 419/455/401 428/454/401 429/456/401
f 419/457/402 429/456/402 430/458/402
f 419/459/403 430/458/403 431/460/403
f 419/461/404 431/460/404 432/462/404
f 419/463/405 432/462/405 433/464/405
f 419/465/406 433/464/406 434/466/406
f 419/467/407 434/466/407 435/468/407
f 419/469/408 435/468/408 436/470/408
f 419/471/409 436/470/409 437/434/409
f 419/472/410 438/437/410 439/473/410
f 419/474/411 439/473/411 440/475/411
f 419/476/412 440/475/412 441/477/412
f 419/478/413 441/479/413 442/480/413
f 419/481/414 442/480/414 443/482/414
f 419/483/415 443/482/415 444/484/415
f 419/485/416 444/484/416 445/486/416
f 419/487/417 445/486/417 446/488/417
f 419/489/418 446/488/418 447/490/418
f 419/491/419 447/490/419 448/442/419
f 368/379/420 448/442/420 447/490/420
f 366/377/421 421/439/421 448/442/421
f 370/381/422 447/490/422 446/488/422
f 372/383/423 446/488/423 445/486/423
f 374/385/424 445/486/424 444/484/424
f 376/387/425 444/484/425 443/482/425
f 378/389/426 443/482/426 442/480/426
f 380/391/427 442/480/427 441/479/427
f 440/475/428 380/395/428 441/477/428
f 439/473/429 382/394/429 440/475/429
f 438/437/430 384/397/430 439/473/430
f 420/435/431 386/399/431 438/437/431
f 436/470/432 390/403/432 437/434/432
f 437/434/433 388/401/433 420/435/433
f 435/468/434 392/405/434 436/470/434
f 434/466/435 394/407/435 435/468/435
f 398/411/436 434/466/436 433/464/436
f 400/413/437 433/464/437 432/462/437
f 402/415/438 432/462/438 431/460/438
f 404/417/439 431/460/439 430/458/439
f 406/419/440 430/458/440 429/456/440
f 408/421/441 429/456/441 428/454/441
f 410/423/442 428/454/442 427/452/442
f 412/425/443 427/452/443 426/429/443
f 424/446/444 356/365/444 425/448/444
f 425/448/445 354/366/445 418/430/445
f 423/444/446 358/369/446 424/446/446
f 422/440/447 360/371/447 423/444/447
f 421/439/448 362/373/448 422/440/448
f 451/492/449 93/93/449 450/96/449
f 449/493/450 90/90/450 93/93/450
f 453/494/451 450/96/451 3/4/451
f 451/492/452 452/495/452 449/493/452
f 453/494/453 452/496/453 451/492/453
f 6/9/454 453/494/454 3/4/454
f 454/497/455 452/498/455 453/494/455
f 9/12/456 454/497/456 6/9/456
f 455/499/457 452/500/457 454/497/457
f 12/15/458 455/499/458 9/12/458
f 456/501/459 452/502/459 455/499/459
f 15/18/460 456/501/460 12/15/460
f 457/503/461 452/504/461 456/501/461
f 18/21/462 457/503/462 15/18/462
f 458/505/463 452/506/463 457/503/463
f 21/24/464 458/505/464 18/21/464
f 459/507/465 452/508/465 458/505/465
f 24/27/466 459/507/466 21/24/466
f 460/509/467 452/510/467 459/507/467
f 27/511/468 460/509/468 24/27/468
f 461/512/469 452/513/469 460/509/469
f 462/514/470 27/515/470 30/29/470
f 462/514/471 452/516/471 461/517/471
f 463/518/472 30/29/472 33/34/472
f 463/518/473 452/519/473 462/514/473
f 464/520/474 33/34/474 36/37/474
f 464/520/475 452/521/475 463/518/475
f 465/522/476 36/37/476 39/40/476
f 465/522/477 452/523/477 464/520/477
f 466/524/478 39/40/478 42/43/478
f 466/524/479 452/525/479 465/522/479
f 467/526/480 42/43/480 45/46/480
f 467/526/481 452/527/481 466/524/481
f 468/528/482 45/46/482 48/49/482
f 468/528/483 452/529/483 467/526/483
f 469/530/484 48/49/484 51/52/484
f 469/530/485 452/531/485 468/528/485
f 54/58/486 469/530/486 51/52/486
f 470/532/487 452/533/487 469/530/487
f 57/61/488 470/532/488 54/58/488
f 471/534/489 452/535/489 470/532/489
f 60/64/490 471/534/490 57/61/490
f 472/536/491 452/537/491 471/534/491
f 63/67/492 472/536/492 60/64/492
f 473/538/493 452/539/493 472/536/493
f 66/70/494 473/538/494 63/67/494
f 474/540/495 452/541/495 473/538/495
f 69/73/496 474/540/496 66/70/496
f 475/542/497 452/543/497 474/540/497
f 72/76/498 475/542/498 69/73/498
f 476/544/499 452/545/499 475/542/499
f 75/546/500 476/544/500 72/76/500
f 477/547/501 452/548/501 476/544/501
f 478/549/502 75/546/502 78/78/502
f 478/549/503 452/550/503 477/547/503
f 479/551/504 78/78/504 81/81/504
f 479/551/505 452/552/505 478/549/505
f 480/553/506 452/554/506 479/551/506
f 480/553/507 81/81/507 84/84/507
f 481/555/508 84/84/508 87/87/508
f 481/555/509 452/556/509 480/553/509
f 482/557/510 87/87/510 90/90/510
f 482/557/511 452/558/511 481/555/511
f 449/493/512 452/559/512 482/557/512
f 1/1/513 2/5/513 96/2/513
f 3/4/2 450/96/2 2/5/2
f 5/6/3 6/9/3 3/4/3
f 7/7/514 5/6/514 1/1/514
f 8/8/5 9/12/5 6/9/5
f 10/10/515 8/8/515 5/6/515
f 11/11/516 12/15/516 9/12/516
f 13/13/517 11/11/517 8/8/517
f 14/14/9 15/18/9 12/15/9
f 16/16/10 14/14/10 11/11/10
f 17/17/11 18/21/11 15/18/11
f 19/19/12 17/17/12 14/14/12
f 20/20/13 21/24/13 18/21/13
f 22/22/14 20/20/14 17/17/14
f 23/23/518 24/27/518 21/24/518
f 25/25/16 23/23/16 20/20/16
f 26/26/17 27/511/17 24/27/17
f 28/28/18 26/26/18 23/23/18
f 30/29/519 27/515/519 26/30/519
f 31/32/20 29/31/20 26/30/20
f 33/34/520 30/29/520 29/31/520
f 32/35/22 29/31/22 31/32/22
f 36/37/23 33/34/23 32/35/23
f 35/38/24 32/35/24 34/36/24
f 39/40/25 36/37/25 35/38/25
f 38/41/26 35/38/26 37/39/26
f 42/43/27 39/40/27 38/41/27
f 41/44/28 38/41/28 40/42/28
f 45/46/29 42/43/29 41/44/29
f 44/47/30 41/44/30 43/45/30
f 48/49/521 45/46/521 44/47/521
f 47/50/32 44/47/32 46/48/32
f 51/52/33 48/49/33 47/50/33
f 50/53/522 47/50/522 49/51/522
f 53/55/35 54/58/35 51/52/35
f 55/56/36 53/55/36 50/53/36
f 56/57/523 57/61/523 54/58/523
f 58/59/38 56/57/38 53/55/38
f 59/60/39 60/64/39 57/61/39
f 61/62/524 59/60/524 56/57/524
f 62/63/41 63/67/41 60/64/41
f 64/65/42 62/63/42 59/60/42
f 65/66/43 66/70/43 63/67/43
f 67/68/44 65/66/44 62/63/44
f 68/69/45 69/73/45 66/70/45
f 70/71/525 68/69/525 65/66/525
f 71/72/47 72/76/47 69/73/47
f 73/74/48 71/72/48 68/69/48
f 74/75/49 75/546/49 72/76/49
f 74/75/50 71/72/50 73/74/50
f 78/78/526 75/546/526 74/75/526
f 77/79/52 74/75/52 76/77/52
f 81/81/53 78/78/53 77/79/53
f 80/82/54 77/79/54 79/80/54
f 84/84/527 81/81/527 80/82/527
f 83/85/56 80/82/56 82/83/56
f 87/87/57 84/84/57 83/85/57
f 86/88/528 83/85/528 85/86/528
f 90/90/59 87/87/59 86/88/59
f 89/91/60 86/88/60 88/89/60
f 93/93/529 90/90/529 89/91/529
f 92/94/62 89/91/62 91/92/62
f 450/96/63 93/93/63 92/94/63
f 2/5/64 92/94/64 94/95/64
f 96/2/65 94/95/65 95/97/65
f 94/95/66 91/92/66 157/99/66
f 4/3/67 96/2/67 97/98/67
f 99/100/68 97/98/68 98/101/68
f 97/98/69 95/97/69 160/103/69
f 101/104/70 7/7/70 4/3/70
f 102/105/71 101/104/71 99/100/71
f 103/106/72 10/10/72 7/7/72
f 104/107/73 103/106/73 101/104/73
f 105/108/74 13/13/74 10/10/74
f 106/109/75 105/108/75 103/106/75
f 107/110/76 16/16/76 13/13/76
f 108/111/77 107/110/77 105/108/77
f 109/112/78 19/19/78 16/16/78
f 110/113/79 109/112/79 107/110/79
f 111/114/80 22/22/80 19/19/80
f 112/115/81 111/114/81 109/112/81
f 113/116/82 25/25/82 22/22/82
f 114/117/83 113/116/83 111/114/83
f 115/118/84 28/28/84 25/25/84
f 116/119/85 115/118/85 113/116/85
f 117/120/86 31/32/86 28/33/86
f 118/122/87 117/120/87 115/121/87
f 34/36/88 31/32/88 117/120/88
f 119/124/89 117/120/89 118/122/89
f 37/39/530 34/36/530 119/124/530
f 121/126/91 119/124/91 120/125/91
f 40/42/92 37/39/92 121/126/92
f 123/128/93 121/126/93 122/127/93
f 43/45/94 40/42/94 123/128/94
f 125/130/95 123/128/95 124/129/95
f 46/48/531 43/45/531 125/130/531
f 127/132/97 125/130/97 126/131/97
f 49/51/98 46/48/98 127/132/98
f 129/134/99 127/132/99 128/133/99
f 52/54/100 49/51/100 129/134/100
f 131/136/101 129/134/101 130/135/101
f 133/138/102 55/56/102 52/54/102
f 134/139/103 133/138/103 131/136/103
f 135/140/104 58/59/104 55/56/104
f 136/141/105 135/140/105 133/138/105
f 137/142/106 61/62/106 58/59/106
f 138/143/107 137/142/107 135/140/107
f 139/144/108 64/65/108 61/62/108
f 140/145/109 139/144/109 137/142/109
f 141/146/110 67/68/110 64/65/110
f 142/147/111 141/146/111 139/144/111
f 143/148/112 70/71/112 67/68/112
f 144/149/113 143/148/113 141/146/113
f 145/150/114 73/74/114 70/71/114
f 146/151/115 145/150/115 143/148/115
f 76/77/116 73/74/116 145/150/116
f 147/152/117 145/150/117 146/151/117
f 79/80/118 76/77/118 147/152/118
f 149/154/119 147/152/119 148/153/119
f 82/83/120 79/80/120 149/154/120
f 151/156/121 149/154/121 150/155/121
f 85/86/122 82/83/122 151/156/122
f 153/158/123 151/156/123 152/157/123
f 88/89/124 85/86/124 153/158/124
f 155/160/125 153/158/125 154/159/125
f 91/92/126 88/89/126 155/160/126
f 157/99/127 155/160/127 156/161/127
f 95/97/532 157/99/532 158/162/532
f 160/103/129 158/162/129 159/163/129
f 158/162/130 156/161/130 221/165/130
f 98/101/131 160/103/131 161/164/131
f 163/166/132 161/164/132 162/167/132
f 161/164/133 159/163/133 224/169/133
f 100/102/134 98/101/134 163/166/134
f 165/170/135 163/166/135 164/168/135
f 168/172/533 167/173/533 165/170/533
f 167/173/534 102/105/534 100/102/534
f 169/174/138 104/107/138 102/105/138
f 170/175/139 169/174/139 167/173/139
f 171/176/140 106/109/140 104/107/140
f 172/177/141 171/176/141 169/174/141
f 173/178/142 108/111/142 106/109/142
f 174/179/143 173/178/143 171/176/143
f 175/180/144 110/113/144 108/111/144
f 176/181/535 175/180/535 173/178/535
f 177/182/146 112/115/146 110/113/146
f 178/183/147 177/182/147 175/180/147
f 179/184/148 114/117/148 112/115/148
f 180/185/149 179/184/149 177/182/149
f 181/186/150 116/119/150 114/117/150
f 182/187/151 181/186/151 179/184/151
f 183/188/152 118/122/152 116/123/152
f 184/190/153 183/188/153 181/189/153
f 185/192/154 120/125/154 118/122/154
f 186/193/536 185/192/536 183/188/536
f 122/127/156 120/125/156 185/192/156
f 188/195/157 187/194/157 185/192/157
f 124/129/158 122/127/158 187/194/158
f 190/197/159 189/196/159 187/194/159
f 126/131/160 124/129/160 189/196/160
f 192/199/161 191/198/161 189/196/161
f 128/133/162 126/131/162 191/198/162
f 194/201/163 193/200/163 191/198/163
f 130/135/164 128/133/164 193/200/164
f 196/203/165 195/202/165 193/200/165
f 132/137/166 130/135/166 195/202/166
f 198/205/167 197/204/167 195/202/167
f 199/206/168 134/139/168 132/137/168
f 199/206/169 197/204/169 198/205/169
f 201/208/170 136/141/170 134/139/170
f 201/208/171 199/206/171 200/207/171
f 203/210/172 138/143/172 136/141/172
f 203/210/173 201/208/173 202/209/173
f 205/212/174 140/145/174 138/143/174
f 205/212/175 203/210/175 204/211/175
f 207/214/176 142/147/176 140/145/176
f 207/214/177 205/212/177 206/213/177
f 209/216/178 144/149/178 142/147/178
f 209/216/179 207/214/179 208/215/179
f 146/151/180 144/149/180 209/216/180
f 211/218/181 209/216/181 210/217/181
f 148/153/182 146/151/182 211/218/182
f 213/220/183 211/218/183 212/219/183
f 150/155/184 148/153/184 213/220/184
f 215/222/185 213/220/185 214/221/185
f 152/157/537 150/155/537 215/222/537
f 217/224/187 215/222/187 216/223/187
f 154/159/188 152/157/188 217/224/188
f 219/226/189 217/224/189 218/225/189
f 156/161/190 154/159/190 219/226/190
f 221/165/191 219/226/191 220/227/191
f 159/163/192 221/165/192 222/228/192
f 224/169/193 222/228/193 223/229/193
f 222/228/194 220/227/194 285/231/194
f 162/167/195 224/169/195 225/230/195
f 228/233/196 227/232/196 225/230/196
f 226/234/197 225/230/197 223/229/197
f 164/168/198 162/167/198 227/232/198
f 230/237/199 229/236/199 227/232/199
f 166/171/200 164/168/200 229/236/200
f 232/239/201 231/238/201 229/236/201
f 233/240/202 168/172/202 166/171/202
f 233/240/203 231/238/203 232/239/203
f 235/242/204 170/175/204 168/172/204
f 235/242/205 233/240/205 234/241/205
f 237/244/206 172/177/206 170/175/206
f 237/244/207 235/242/207 236/243/207
f 239/246/208 174/179/208 172/177/208
f 239/246/209 237/244/209 238/245/209
f 241/248/210 176/181/210 174/179/210
f 241/248/211 239/246/211 240/247/211
f 243/250/212 178/183/212 176/181/212
f 243/250/213 241/248/213 242/249/213
f 245/252/214 180/185/214 178/183/214
f 246/253/215 245/252/215 243/250/215
f 247/254/216 182/187/216 180/185/216
f 248/255/217 247/254/217 245/252/217
f 249/256/218 184/190/218 182/191/218
f 250/258/219 249/256/219 247/257/219
f 251/260/220 186/193/220 184/190/220
f 252/261/221 251/260/221 249/256/221
f 253/262/222 188/195/222 186/193/222
f 254/263/223 253/262/223 251/260/223
f 255/264/224 190/197/224 188/195/224
f 256/265/225 255/264/225 253/262/225
f 257/266/538 192/199/538 190/197/538
f 258/267/227 257/266/227 255/264/227
f 259/268/228 194/201/228 192/199/228
f 260/269/539 259/268/539 257/266/539
f 261/270/230 196/203/230 194/201/230
f 262/271/231 261/270/231 259/268/231
f 263/272/232 198/205/232 196/203/232
f 264/273/233 263/272/233 261/270/233
f 200/207/540 198/205/540 263/272/540
f 265/274/235 263/272/235 264/273/235
f 202/209/236 200/207/236 265/274/236
f 267/276/237 265/274/237 266/275/237
f 204/211/238 202/209/238 267/276/238
f 269/278/239 267/276/239 268/277/239
f 206/213/240 204/211/240 269/278/240
f 271/280/241 269/278/241 270/279/241
f 208/215/242 206/213/242 271/280/242
f 273/282/243 271/280/243 272/281/243
f 210/217/244 208/215/244 273/282/244
f 275/284/245 273/282/245 274/283/245
f 212/219/246 210/217/246 275/284/246
f 277/286/247 275/284/247 276/285/247
f 214/221/248 212/219/248 277/286/248
f 279/288/249 277/286/249 278/287/249
f 216/223/250 214/221/250 279/288/250
f 281/290/251 279/288/251 280/289/251
f 218/225/252 216/223/252 281/290/252
f 283/292/253 281/290/253 282/291/253
f 220/227/254 218/225/254 283/292/254
f 286/294/255 285/231/255 283/292/255
f 288/235/256 223/229/256 285/231/256
f 289/295/257 288/235/257 286/294/257
f 287/296/258 286/294/258 284/293/258
f 291/298/259 226/234/259 288/235/259
f 292/299/260 291/298/260 289/295/260
f 290/300/261 289/295/261 287/296/261
f 293/302/262 228/233/262 226/234/262
f 294/303/263 293/302/263 291/298/263
f 295/304/264 230/237/264 228/233/264
f 296/305/265 295/304/265 293/302/265
f 297/306/541 232/239/541 230/237/541
f 298/307/542 297/306/542 295/304/542
f 234/241/268 232/239/268 297/306/268
f 299/308/269 297/306/269 298/307/269
f 236/243/270 234/241/270 299/308/270
f 301/310/271 299/308/271 300/309/271
f 238/245/272 236/243/272 301/310/272
f 303/312/273 301/310/273 302/311/273
f 240/247/274 238/245/274 303/312/274
f 305/314/275 303/312/275 304/313/275
f 242/249/276 240/247/276 305/314/276
f 307/316/277 305/314/277 306/315/277
f 244/251/278 242/249/278 307/316/278
f 309/318/279 307/316/279 308/317/279
f 246/253/280 244/251/280 309/318/280
f 311/320/281 309/318/281 310/319/281
f 313/322/282 248/255/282 246/253/282
f 314/323/283 313/322/283 311/320/283
f 315/324/284 250/258/284 248/259/284
f 316/326/285 315/324/285 313/325/285
f 317/328/286 252/261/286 250/258/286
f 318/329/287 317/328/287 315/324/287
f 319/330/288 254/263/288 252/261/288
f 320/331/289 319/330/289 317/328/289
f 321/332/290 256/265/290 254/263/290
f 322/333/291 321/332/291 319/330/291
f 323/334/292 258/267/292 256/265/292
f 324/335/293 323/334/293 321/332/293
f 325/336/294 260/269/294 258/267/294
f 326/337/295 325/336/295 323/334/295
f 327/338/296 262/271/296 260/269/296
f 328/339/297 327/338/297 325/336/297
f 329/340/298 264/273/298 262/271/298
f 330/341/299 329/340/299 327/338/299
f 266/275/300 264/273/300 329/340/300
f 331/342/301 329/340/301 330/341/301
f 268/277/302 266/275/302 331/342/302
f 333/344/303 331/342/303 332/343/303
f 270/279/304 268/277/304 333/344/304
f 335/346/305 333/344/305 334/345/305
f 272/281/306 270/279/306 335/346/306
f 337/348/307 335/346/307 336/347/307
f 274/283/308 272/281/308 337/348/308
f 339/350/309 337/348/309 338/349/309
f 276/285/310 274/283/310 339/350/310
f 341/352/311 339/350/311 340/351/311
f 278/287/312 276/285/312 341/352/312
f 343/354/313 341/352/313 342/353/313
f 280/289/314 278/287/314 343/354/314
f 345/356/315 343/354/315 344/355/315
f 282/291/316 280/289/316 345/356/316
f 347/358/317 345/356/317 346/357/317
f 349/297/318 284/293/318 282/291/318
f 350/360/319 349/297/319 347/358/319
f 352/301/543 287/296/543 349/297/543
f 353/361/321 352/301/321 350/360/321
f 351/362/322 350/360/322 348/359/322
f 355/364/323 290/300/323 352/301/323
f 356/365/544 355/364/544 353/361/544
f 354/366/325 353/361/325 351/362/325
f 357/368/326 292/299/326 290/300/326
f 358/369/545 357/368/545 355/364/545
f 359/370/546 294/303/546 292/299/546
f 360/371/329 359/370/329 357/368/329
f 361/372/330 296/305/330 294/303/330
f 362/373/331 361/372/331 359/370/331
f 363/374/547 298/307/547 296/305/547
f 364/375/333 363/374/333 361/372/333
f 300/309/334 298/307/334 363/374/334
f 365/376/335 363/374/335 364/375/335
f 302/311/336 300/309/336 365/376/336
f 367/378/548 365/376/548 366/377/548
f 304/313/338 302/311/338 367/378/338
f 369/380/339 367/378/339 368/379/339
f 306/315/340 304/313/340 369/380/340
f 371/382/341 369/380/341 370/381/341
f 308/317/342 306/315/342 371/382/342
f 373/384/343 371/382/343 372/383/343
f 310/319/344 308/317/344 373/384/344
f 375/386/345 373/384/345 374/385/345
f 312/321/346 310/319/346 375/386/346
f 377/388/347 375/386/347 376/387/347
f 379/390/348 314/323/348 312/321/348
f 379/390/349 377/388/349 378/389/349
f 381/392/350 316/326/350 314/327/350
f 382/394/351 381/392/351 379/393/351
f 383/396/352 318/329/352 316/326/352
f 384/397/353 383/396/353 381/392/353
f 385/398/354 320/331/354 318/329/354
f 386/399/549 385/398/549 383/396/549
f 387/400/356 322/333/356 320/331/356
f 388/401/550 387/400/550 385/398/550
f 389/402/358 324/335/358 322/333/358
f 390/403/359 389/402/359 387/400/359
f 391/404/360 326/337/360 324/335/360
f 392/405/551 391/404/551 389/402/551
f 393/406/362 328/339/362 326/337/362
f 394/407/363 393/406/363 391/404/363
f 395/408/552 330/341/552 328/339/552
f 396/409/365 395/408/365 393/406/365
f 332/343/553 330/341/553 395/408/553
f 397/410/554 395/408/554 396/409/554
f 334/345/555 332/343/555 397/410/555
f 399/412/369 397/410/369 398/411/369
f 336/347/556 334/345/556 399/412/556
f 401/414/557 399/412/557 400/413/557
f 338/349/372 336/347/372 401/414/372
f 403/416/373 401/414/373 402/415/373
f 340/351/374 338/349/374 403/416/374
f 405/418/375 403/416/375 404/417/375
f 342/353/376 340/351/376 405/418/376
f 407/420/377 405/418/377 406/419/377
f 344/355/378 342/353/378 407/420/378
f 409/422/558 407/420/558 408/421/558
f 346/357/380 344/355/380 409/422/380
f 411/424/381 409/422/381 410/423/381
f 348/359/382 346/357/382 411/424/382
f 414/426/383 413/363/383 411/424/383
f 416/367/384 351/362/384 413/363/384
f 417/427/559 416/367/559 414/426/559
f 415/428/386 414/426/386 412/425/386
f 418/430/387 354/366/387 416/367/387
f 368/379/560 366/377/560 448/442/560
f 366/377/421 364/375/421 421/439/421
f 370/381/422 368/379/422 447/490/422
f 372/383/423 370/381/423 446/488/423
f 374/385/424 372/383/424 445/486/424
f 376/387/425 374/385/425 444/484/425
f 378/389/561 376/387/561 443/482/561
f 380/391/427 378/389/427 442/480/427
f 440/475/562 382/394/562 380/395/562
f 439/473/429 384/397/429 382/394/429
f 438/437/430 386/399/430 384/397/430
f 420/435/563 388/401/563 386/399/563
f 436/470/432 392/405/432 390/403/432
f 437/434/433 390/403/433 388/401/433
f 435/468/434 394/407/434 392/405/434
f 434/466/564 396/409/564 394/407/564
f 398/411/565 396/409/565 434/466/565
f 400/413/437 398/411/437 433/464/437
f 402/415/438 400/413/438 432/462/438
f 404/417/439 402/415/439 431/460/439
f 406/419/440 404/417/440 430/458/440
f 408/421/441 406/419/441 429/456/441
f 410/423/442 408/421/442 428/454/442
f 412/425/443 410/423/443 427/452/443
f 424/446/566 358/369/566 356/365/566
f 425/448/567 356/365/567 354/366/567
f 423/444/446 360/371/446 358/369/446
f 422/440/568 362/373/568 360/371/568
f 421/439/448 364/375/448 362/373/448
f 451/492/449 449/493/449 93/93/449
f 449/493/450 482/557/450 90/90/450
f 453/494/569 451/492/569 450/96/569
f 6/9/454 454/497/454 453/494/454
f 9/12/456 455/499/456 454/497/456
f 12/15/458 456/501/458 455/499/458
f 15/18/460 457/503/460 456/501/460
f 18/21/462 458/505/462 457/503/462
f 21/24/464 459/507/464 458/505/464
f 24/27/570 460/509/570 459/507/570
f 27/511/468 461/512/468 460/509/468
f 462/514/470 461/517/470 27/515/470
f 463/518/472 462/514/472 30/29/472
f 464/520/474 463/518/474 33/34/474
f 465/522/476 464/520/476 36/37/476
f 466/524/478 465/522/478 39/40/478
f 467/526/571 466/524/571 42/43/571
f 468/528/482 467/526/482 45/46/482
f 469/530/484 468/528/484 48/49/484
f 54/58/572 470/532/572 469/530/572
f 57/61/573 471/534/573 470/532/573
f 60/64/490 472/536/490 471/534/490
f 63/67/492 473/538/492 472/536/492
f 66/70/494 474/540/494 473/538/494
f 69/73/574 475/542/574 474/540/574
f 72/76/498 476/544/498 475/542/498
f 75/546/500 477/547/500 476/544/500
f 478/549/575 477/547/575 75/546/575
f 479/551/504 478/549/504 78/78/504
f 480/553/507 479/551/507 81/81/507
f 481/555/508 480/553/508 84/84/508
f 482/557/576 481/555/576 87/87/576
