# Blender 4.1.1
# www.blender.org
mtllib link_body_24.mtl
o link_body_24
v 2.354331 -1.753640 -6.051651
v -1.472893 -1.821461 -5.997737
v -2.150855 -2.562523 -5.413096
v -0.789787 -0.847936 -6.396536
v 1.543014 -2.420444 -5.367394
v 1.791698 -0.455271 -6.053606
v 2.850993 0.002998 -6.425347
v -0.969608 0.456142 -6.421656
v 2.235244 1.290171 -6.106000
v -1.495037 1.785061 -5.999321
v 1.016151 1.077430 -5.450840
v 1.032482 1.972059 -5.820742
v 1.480396 2.453765 -5.304182
v -2.858989 3.155840 -4.566132
v -2.169574 2.533825 -5.415236
v 0.228454 1.381667 -4.653816
v 0.850956 3.029547 -4.469781
v -3.345710 3.621185 -3.602644
v 0.304375 3.290130 -3.634422
v -0.285709 2.080539 -3.632696
v -0.190735 3.503229 -2.508772
v -1.712108 3.715283 -1.940222
v -0.962730 1.770118 -2.432299
v -0.628803 3.527719 -0.907463
v -4.536089 3.579279 0.159522
v -4.278105 3.809846 -1.210653
v -0.905246 2.640962 1.678019
v -1.155895 2.425322 -0.595561
v -1.554676 0.528968 -0.000001
v -1.429668 0.743372 -1.286295
v -1.341499 1.251122 1.275632
v -1.442005 -0.624864 1.289036
v -1.116470 0.699688 2.518718
v -1.037384 -1.178529 2.502244
v -0.568466 -0.569930 3.739259
v -0.409847 1.823357 3.589921
v -1.387855 1.618584 4.386657
v 0.215614 1.239274 4.647376
v 0.047054 0.000001 4.623544
v 0.939457 0.663507 5.452893
v -1.473968 0.304988 6.228305
v 1.729355 0.070246 5.985298
v 0.979702 -0.612079 5.508313
v 0.182751 -1.240366 4.616376
v -1.309700 -1.618656 4.377987
v 1.502357 -0.314072 5.824198
v -1.301769 -0.184920 6.298569
v -2.048961 0.566632 6.012469
v -2.076682 -0.597873 5.984777
v -2.874768 -0.941872 5.465499
v -2.907968 0.988598 5.408793
v -3.620669 -1.409919 4.621298
v -3.809527 -0.428887 4.648127
v -3.640073 1.402488 4.619375
v -4.468535 -0.601200 3.683259
v -4.207972 1.881191 3.693457
v -4.581776 2.398961 2.542143
v -4.637049 3.107390 1.267479
v -5.008988 0.579785 2.513993
v -5.310099 0.740644 1.281602
v -4.919245 -1.174200 2.493111
v -5.124291 -1.813364 1.333524
v -5.189036 -2.008797 -0.000002
v -4.581778 -2.398962 2.542141
v -4.622725 -3.139036 1.205975
v -5.434655 0.527026 -0.000001
v -5.103262 1.929945 -1.232029
v -5.015637 2.493058 -0.000000
v -5.320637 -0.578883 -1.333527
v -4.919257 -2.445152 -1.270979
v -4.993380 -0.534144 -2.552482
v -4.469883 -2.823469 -2.468671
v -4.824427 1.796334 -2.468669
v -3.877442 3.792250 -2.505166
v -4.328108 1.525962 -3.667101
v -3.753182 3.009362 -3.619430
v -4.494547 -0.626893 -3.635087
v -3.773517 0.900721 -4.639903
v -2.886338 1.072634 -5.423952
v -2.991695 -0.739265 -5.420757
v -3.700126 -1.262313 -4.617122
v -2.858989 -3.155843 -4.566131
v -3.976962 -2.623481 -3.606290
v -3.247045 -3.534951 -3.801377
v -3.736312 -3.791152 -2.789438
v -1.712104 -3.715282 -1.940224
v -0.301727 -3.547230 -2.217220
v -4.276687 -3.809016 -1.202058
v 0.530536 -3.215120 -3.977832
v 0.488800 -2.215272 -4.623795
v -0.422169 -1.673216 -3.648412
v 0.040974 -0.398657 -4.616762
v -0.626755 0.438984 -3.648412
v -0.750915 -2.311769 -2.502245
v -1.111793 -0.536111 -2.561837
v -1.244358 -1.935891 -1.224135
v -1.303409 -2.042018 -0.029652
v -0.673057 -3.442807 -0.540073
v -4.536323 -3.578871 0.161830
v -0.909897 -2.641643 1.666731
v -0.323120 -1.794132 3.686514
v 0.901325 -0.623154 -5.453621
v -2.028213 -0.751754 -6.023439
v -1.928070 0.961203 -6.023523
v -4.220025 -1.948467 3.589576
vn -0.1131 -0.1798 -0.9772
vn 0.0339 -0.4042 -0.9140
vn -0.2008 -0.4071 -0.8910
vn 0.0299 -0.7845 -0.6195
vn 0.0436 -0.7836 -0.6197
vn 0.0317 0.0068 -0.9995
vn 0.5587 0.2865 0.7783
vn 0.4520 0.1972 0.8699
vn 0.4435 0.0662 0.8938
vn 0.3286 0.0065 0.9444
vn -0.1494 0.1132 -0.9823
vn 0.0553 0.3578 -0.9322
vn 0.4570 -0.1433 0.8779
vn 0.0696 0.5862 -0.8072
vn -0.1804 0.4022 -0.8976
vn 0.5889 -0.2915 0.7538
vn 0.5958 -0.1542 0.7882
vn 0.0895 0.7332 -0.6741
vn 0.7307 -0.2001 0.6527
vn 0.0537 0.8833 -0.4657
vn 0.0403 0.8827 -0.4683
vn 0.0295 0.7708 -0.6365
vn 0.6953 -0.3337 0.6365
vn 0.0864 0.9735 -0.2119
vn 0.0666 0.9727 -0.2221
vn 0.7724 -0.3717 0.5151
vn 0.8140 -0.2963 0.4996
vn 0.8608 -0.3831 0.3351
vn 0.1049 0.9898 -0.0966
vn 0.0851 0.9963 -0.0139
vn 0.1068 0.9792 0.1726
vn 0.9167 -0.2415 0.3183
vn 0.9046 -0.4030 0.1391
vn 0.0712 0.9527 0.2956
vn 0.0948 0.9304 0.3541
vn 0.0539 0.9925 0.1100
vn 0.9431 -0.3265 0.0627
vn 0.9405 -0.2838 -0.1868
vn 0.9819 -0.0795 0.1721
vn 0.9726 -0.1730 -0.1551
vn 0.9984 -0.0561 0.0021
vn 0.9840 0.0849 -0.1570
vn 0.9354 -0.0954 -0.3405
vn 0.9272 0.1682 -0.3346
vn 0.8655 0.0609 -0.4972
vn 0.8782 -0.1477 -0.4550
vn 0.7934 -0.0899 -0.6020
vn 0.0640 0.8797 0.4713
vn 0.1222 0.9147 0.3852
vn 0.1273 0.8680 0.4800
vn 0.7756 -0.0204 -0.6309
vn 0.6537 -0.0366 -0.7559
vn 0.0966 0.7735 0.6264
vn 0.1052 0.7993 0.5916
vn 0.1047 0.7378 0.6669
vn 0.6430 0.0203 -0.7656
vn 0.5365 0.0005 -0.8439
vn 0.7721 0.1189 -0.6243
vn 0.0680 -0.8764 0.4768
vn 0.1451 -0.8697 0.4718
vn -0.0673 -0.6735 0.7361
vn 0.1068 -0.5615 0.8206
vn 0.4809 0.0819 -0.8729
vn 0.1148 -0.7810 0.6139
vn 0.1291 -0.4473 0.8850
vn -0.4887 0.0029 0.8725
vn -0.1329 0.0888 0.9871
vn -0.2062 0.0675 0.9762
vn 0.0870 0.1713 0.9814
vn -0.4833 -0.0093 0.8754
vn 0.1099 -0.8144 0.5698
vn -0.0082 -0.8542 0.5198
vn -0.6301 -0.0331 0.7758
vn -0.6483 0.0386 0.7604
vn -0.7613 -0.0336 0.6476
vn -0.0279 -0.8740 0.4851
vn -0.7622 -0.1693 0.6248
vn -0.8652 -0.0632 0.4975
vn -0.7860 0.0823 0.6127
vn -0.8689 0.1314 0.4772
vn -0.0441 0.8855 0.4625
vn -0.0345 0.8765 0.4801
vn 0.0132 0.9115 0.4112
vn -0.3110 0.8249 0.4720
vn -0.9381 0.0746 0.3381
vn -0.9309 0.2363 0.2787
vn -0.9813 0.0975 0.1662
vn -0.9612 -0.2184 0.1685
vn -0.9383 -0.1357 0.3180
vn -0.9983 0.0583 -0.0035
vn -0.9067 -0.2742 0.3205
vn -0.9681 -0.2507 -0.0008
vn -0.9198 -0.3682 0.1354
vn -0.9827 -0.0718 -0.1707
vn -0.9534 0.2543 -0.1627
vn -0.9460 0.3240 0.0060
vn -0.9326 -0.3150 -0.1759
vn -0.9157 0.2388 -0.3231
vn -0.8708 -0.3662 -0.3279
vn -0.9397 -0.0688 -0.3349
vn -0.8945 0.4033 -0.1930
vn -0.8384 0.2096 -0.5032
vn -0.8405 0.4223 -0.3396
vn -0.7651 0.3951 -0.5085
vn -0.6798 0.3355 -0.6521
vn -0.7122 0.4882 -0.5044
vn -0.8675 -0.0834 -0.4905
vn -0.7511 0.1333 -0.6466
vn -0.5992 0.1657 -0.7833
vn -0.6194 -0.1114 -0.7772
vn -0.7367 -0.1908 -0.6487
vn -0.7878 -0.3474 -0.5087
vn -0.6684 -0.3433 -0.6598
vn -0.7140 -0.4585 -0.5291
vn -0.7809 -0.4906 -0.3867
vn 0.0893 -0.9960 0.0052
vn 0.0597 -0.9942 -0.0895
vn 0.1086 -0.9923 -0.0603
vn 0.0588 -0.9916 0.1152
vn 0.0677 -0.9565 -0.2839
vn 0.0727 -0.9294 -0.3617
vn -0.8744 -0.4528 -0.1744
vn 0.8592 0.4022 0.3163
vn 0.7401 0.4083 0.5344
vn 0.8382 0.2353 0.4920
vn 0.6816 0.3232 0.6565
vn 0.0536 -0.8870 -0.4586
vn 0.7677 0.0518 0.6387
vn 0.8728 -0.0577 0.4846
vn 0.9426 0.0666 0.3272
vn 0.8813 0.3188 0.3488
vn 0.9569 0.2420 0.1607
vn 0.9641 0.2654 -0.0108
vn 0.9068 0.4140 0.0792
vn 0.0725 -0.9532 0.2936
vn 0.0991 -0.9714 0.2159
vn 0.0916 -0.9292 0.3581
vn 0.9373 0.2881 -0.1962
vn 0.1166 -0.9103 0.3973
vn 0.8584 0.2193 -0.4638
vn -0.9179 -0.3967 -0.0120
vn 0.0180 -0.9131 0.4074
vn 0.6228 0.0959 0.7764
vn -0.5692 -0.2751 -0.7748
vn -0.4343 -0.1076 -0.8943
vn -0.4286 0.1351 -0.8933
vn -0.5605 0.2861 -0.7772
vn 0.0504 0.9971 -0.0574
vn -0.9404 0.3072 0.1460
vn -0.9154 0.4017 -0.0258
vn -0.0400 -0.8876 0.4588
vn -0.3239 -0.8234 0.4660
vn -0.8571 -0.2021 0.4739
vn -0.0068 0.8558 0.5173
vn 0.0977 0.8170 0.5683
vt 0.906173 0.105323
vt 0.887319 0.094972
vt 0.911957 0.101269
vt 0.917367 0.098429
vt 0.687649 0.446743
vt 0.685747 0.422324
vt 0.691765 0.451624
vt 0.881592 0.103532
vt 0.970479 0.152980
vt 0.970239 0.146421
vt 0.978239 0.145130
vt 0.976083 0.137951
vt 0.905433 0.112607
vt 0.883664 0.111448
vt 0.984237 0.136996
vt 0.890380 0.117155
vt 0.906863 0.120577
vt 0.992384 0.137212
vt 0.988112 0.144228
vt 0.886796 0.118894
vt 0.992570 0.147459
vt 0.753770 0.600549
vt 0.757834 0.595129
vt 0.756251 0.623875
vt 0.760349 0.617989
vt 0.910087 0.125691
vt 0.997420 0.138703
vt 0.749543 0.604874
vt 0.751362 0.628270
vt 0.385499 0.983709
vt 0.382185 0.974610
vt 0.385499 0.971806
vt 0.392878 0.921690
vt 0.385715 0.921411
vt 0.384987 0.915537
vt 0.451009 0.971806
vt 0.451009 0.982340
vt 0.447397 0.975470
vt 0.743673 0.608944
vt 0.741399 0.619122
vt 0.735085 0.612562
vt 0.395185 0.915483
vt 0.385243 0.906992
vt 0.731233 0.637593
vt 0.720662 0.614017
vt 0.738732 0.635687
vt 0.391761 0.905530
vt 0.390355 0.892855
vt 0.401235 0.909391
vt 0.398370 0.895251
vt 0.402523 0.902365
vt 0.408754 0.895106
vt 0.401196 0.888217
vt 0.411432 0.888122
vt 0.407674 0.881050
vt 0.394400 0.881943
vt 0.397048 0.875675
vt 0.705618 0.616575
vt 0.709579 0.610431
vt 0.703220 0.606013
vt 0.311449 0.981086
vt 0.305091 0.983892
vt 0.305177 0.978046
vt 0.403999 0.875825
vt 0.698202 0.600865
vt 0.695040 0.615671
vt 0.694649 0.595129
vt 0.310951 0.973961
vt 0.305091 0.971806
vt 0.316710 0.976581
vt 0.632086 0.432583
vt 0.631578 0.442491
vt 0.627006 0.448073
vt 0.969553 0.968793
vt 0.969553 0.948814
vt 0.969839 0.964971
vt 0.307688 0.971923
vt 0.312745 0.949287
vt 0.317699 0.967275
vt 0.315980 0.969226
vt 0.621215 0.433290
vt 0.625513 0.451624
vt 0.307545 0.945419
vt 0.309840 0.948798
vt 0.313778 0.943761
vt 0.622570 0.428097
vt 0.625030 0.422633
vt 0.314395 0.938180
vt 0.303938 0.940419
vt 0.310175 0.932812
vt 0.629337 0.417378
vt 0.315749 0.932788
vt 0.310063 0.928363
vt 0.825059 0.446705
vt 0.826427 0.437035
vt 0.831523 0.436750
vt 0.300562 0.936236
vt 0.829922 0.449973
vt 0.710980 0.634287
vt 0.705414 0.630353
vt 0.725010 0.637939
vt 0.717702 0.636964
vt 0.836799 0.446245
vt 0.837975 0.435932
vt 0.843513 0.447103
vt 0.841747 0.459494
vt 0.835878 0.454893
vt 0.850353 0.449435
vt 0.835022 0.460179
vt 0.848913 0.461619
vt 0.841879 0.464997
vt 0.857046 0.455701
vt 0.858141 0.442389
vt 0.851770 0.438422
vt 0.855752 0.464054
vt 0.864982 0.443247
vt 0.862314 0.465682
vt 0.863925 0.455520
vt 0.859588 0.430751
vt 0.871638 0.444208
vt 0.866879 0.430751
vt 0.872573 0.435198
vt 0.878299 0.432846
vt 0.873058 0.431046
vt 0.870055 0.455493
vt 0.876865 0.446649
vt 0.922726 0.119677
vt 0.916805 0.119133
vt 0.920112 0.109635
vt 0.913586 0.130125
vt 0.929545 0.112664
vt 0.925396 0.107990
vt 0.929124 0.101092
vt 0.922750 0.096403
vt 0.875445 0.457375
vt 0.868923 0.464231
vt 0.674721 0.411165
vt 0.676412 0.416088
vt 0.670597 0.413414
vt 0.925771 0.094972
vt 0.668200 0.408517
vt 0.667098 0.427208
vt 0.669424 0.436360
vt 0.661532 0.410638
vt 0.679553 0.440912
vt 0.198132 0.972353
vt 0.198132 0.983241
vt 0.190805 0.978057
vt 0.975555 0.157957
vt 0.970932 0.161067
vt 0.194625 0.985755
vt 0.680780 0.418191
vt 0.985402 0.154343
vt 0.981554 0.161067
vt 0.406192 0.926728
vt 0.402190 0.921876
vt 0.413598 0.921594
vt 0.407973 0.916126
vt 0.417395 0.915441
vt 0.192753 0.971806
vt 0.415772 0.908738
vt 0.416407 0.902184
vt 0.423532 0.904495
vt 0.423775 0.913495
vt 0.653815 0.409554
vt 0.659939 0.434721
vt 0.647474 0.434088
vt 0.419347 0.892541
vt 0.636516 0.438798
vt 0.414174 0.881096
vt 0.410684 0.875689
vt 0.847381 0.467757
vt 0.647920 0.409412
vt 0.854852 0.469244
vt 0.991751 0.155179
vt 0.396255 0.926941
vt 0.981011 0.150460
vt 0.913966 0.107955
vt 0.910836 0.116932
vt 0.745651 0.632476
vt 0.845379 0.433421
vt 0.851799 0.431583
vt 0.634779 0.413013
vt 0.640429 0.410193
vt 0.317699 0.928262
vt 0.829730 0.456210
vt 0.700539 0.625441
vt 0.696619 0.619625
s 1
usemtl pleuraldeles_skin
f 4/1/1 1/2/2 2/3/3
f 2/3/3 1/2/2 3/4/4
f 5/5/5 3/6/4 1/7/2
f 4/1/1 7/8/6 1/2/2
f 5/9/7 1/10/8 6/11/9
f 7/12/10 6/11/9 1/10/8
f 8/13/11 7/8/6 4/1/1
f 9/14/12 7/8/6 8/13/11
f 7/12/10 9/15/13 6/11/9
f 12/16/14 9/14/12 10/17/15
f 10/17/15 9/14/12 8/13/11
f 9/15/13 13/18/16 11/19/17
f 11/19/17 6/11/9 9/15/13
f 13/20/18 9/14/12 12/16/14
f 16/21/19 11/19/17 13/18/16
f 17/22/20 13/23/18 14/24/21
f 14/24/21 13/23/18 15/25/22
f 13/20/18 12/16/14 15/26/22
f 16/21/19 13/18/16 17/27/23
f 19/28/24 17/22/20 18/29/25
f 18/29/25 17/22/20 14/24/21
f 16/30/19 17/31/23 19/32/26
f 20/33/27 19/34/26 21/35/28
f 16/36/19 19/37/26 20/38/27
f 18/29/25 21/39/29 19/28/24
f 22/40/30 24/41/31 21/39/29
f 22/40/30 21/39/29 18/29/25
f 20/33/27 21/35/28 23/42/32
f 23/42/32 21/35/28 24/43/33
f 25/44/34 27/45/35 24/41/31
f 26/46/36 25/44/34 24/41/31
f 26/46/36 24/41/31 22/40/30
f 28/47/37 24/43/33 27/48/38
f 28/47/37 23/42/32 24/43/33
f 23/42/32 28/47/37 30/49/39
f 31/50/40 29/51/41 28/47/37
f 30/49/39 28/47/37 29/51/41
f 31/50/40 28/47/37 27/48/38
f 29/51/41 31/50/40 32/52/42
f 33/53/43 31/50/40 27/48/38
f 31/50/40 33/53/43 32/52/42
f 32/52/42 33/53/43 34/54/44
f 34/54/44 33/53/43 35/55/45
f 33/53/43 36/56/46 35/55/45
f 36/56/46 33/53/43 27/48/38
f 35/55/45 36/56/46 38/57/47
f 37/58/48 36/59/49 27/45/35
f 38/60/50 36/59/49 37/58/48
f 39/61/51 38/62/47 40/63/52
f 35/55/45 38/57/47 39/64/51
f 37/58/48 40/65/53 38/60/50
f 41/66/54 40/65/53 37/58/48
f 41/66/54 42/67/55 40/65/53
f 43/68/56 40/63/52 42/69/57
f 43/68/56 39/61/51 40/63/52
f 43/68/56 44/70/58 39/61/51
f 45/71/59 44/72/60 43/73/61
f 46/74/62 45/75/59 43/76/61
f 43/68/56 42/69/57 46/77/63
f 47/78/64 46/79/62 42/80/65
f 47/81/64 45/71/59 46/82/62
f 48/83/66 47/78/67 41/84/68
f 47/78/67 42/80/69 41/84/68
f 48/83/66 49/85/70 47/78/67
f 47/81/64 49/86/71 45/71/59
f 50/87/72 45/71/59 49/86/71
f 50/88/73 49/85/70 48/83/66
f 48/83/66 51/89/74 50/88/73
f 53/90/75 50/88/73 51/89/74
f 45/71/59 50/87/72 52/91/76
f 50/88/73 53/90/75 52/92/77
f 52/92/77 53/90/75 55/93/78
f 53/94/75 54/95/79 56/96/80
f 53/90/75 51/89/74 54/97/79
f 53/94/75 56/96/80 55/98/78
f 56/99/81 54/100/82 37/58/48
f 58/101/83 56/99/81 37/58/48
f 57/102/84 56/99/81 58/101/83
f 59/103/85 56/96/80 57/104/86
f 56/96/80 59/103/85 55/98/78
f 59/103/85 60/105/87 62/106/88
f 60/105/87 59/103/85 57/104/86
f 61/107/89 55/98/78 59/103/85
f 59/103/85 62/106/88 61/107/89
f 66/108/90 62/106/88 60/105/87
f 62/106/88 64/109/91 61/107/89
f 66/108/90 63/110/92 62/106/88
f 63/110/92 65/111/93 62/106/88
f 65/111/93 64/109/91 62/106/88
f 69/112/94 63/110/92 66/108/90
f 66/108/90 67/113/95 69/112/94
f 68/114/96 67/113/95 66/108/90
f 68/114/96 66/108/90 60/105/87
f 63/110/92 69/112/94 70/115/97
f 69/112/94 67/113/95 73/116/98
f 69/112/94 72/117/99 70/115/97
f 69/112/94 71/118/100 72/117/99
f 69/112/94 73/116/98 71/118/100
f 26/119/101 73/116/98 67/113/95
f 75/120/102 71/118/100 73/116/98
f 26/119/101 74/121/103 73/116/98
f 76/122/104 73/116/98 74/121/103
f 76/122/104 75/120/102 73/116/98
f 14/123/105 75/120/102 76/122/104
f 18/124/106 14/123/105 76/122/104
f 74/121/103 18/124/106 76/122/104
f 75/120/102 77/125/107 71/118/100
f 75/120/102 78/126/108 77/125/107
f 14/123/105 78/126/108 75/120/102
f 78/127/108 79/128/109 80/129/110
f 14/130/105 79/128/109 78/127/108
f 77/131/107 78/127/108 81/132/111
f 81/132/111 78/127/108 80/129/110
f 83/133/112 81/132/111 82/134/113
f 80/129/110 82/134/113 81/132/111
f 77/125/107 81/135/111 83/136/112
f 83/137/112 84/138/114 85/139/115
f 82/134/113 84/140/114 83/133/112
f 77/125/107 83/136/112 72/117/99
f 83/137/112 85/139/115 72/141/99
f 86/142/116 85/139/117 87/143/118
f 85/139/117 86/142/116 88/144/119
f 85/139/117 84/138/120 89/145/121
f 88/144/122 72/141/99 85/139/115
f 85/139/117 89/145/121 87/143/118
f 87/146/123 89/147/124 91/148/125
f 90/149/126 89/150/124 5/9/7
f 90/151/126 91/148/125 89/147/124
f 82/152/127 5/5/5 89/145/121
f 84/138/120 82/152/127 89/145/121
f 90/149/126 92/153/128 91/154/125
f 92/155/128 93/156/129 91/157/125
f 93/156/129 95/158/130 91/157/125
f 94/159/131 91/157/125 95/158/130
f 87/146/123 91/148/125 94/160/131
f 95/158/130 30/49/39 96/161/132
f 94/159/131 95/158/130 96/161/132
f 23/42/32 30/49/39 95/158/130
f 93/156/129 23/42/32 95/158/130
f 96/161/132 30/49/39 29/51/41
f 96/161/132 97/162/133 98/163/134
f 96/161/132 29/51/41 97/162/133
f 94/159/131 96/161/132 87/164/123
f 87/164/123 96/161/132 98/163/134
f 99/165/135 98/166/136 100/167/137
f 99/165/135 88/144/119 98/166/136
f 87/143/118 98/166/136 86/142/116
f 88/144/119 86/142/116 98/166/136
f 98/163/134 97/162/133 100/168/138
f 100/168/138 97/162/133 32/52/42
f 34/54/44 100/168/138 32/52/42
f 100/167/137 101/169/139 45/71/59
f 34/54/44 101/170/140 100/168/138
f 45/71/59 99/165/135 100/167/137
f 45/71/59 101/169/139 44/72/60
f 34/54/44 35/55/45 101/170/140
f 35/55/45 44/171/58 101/170/140
f 63/110/92 99/172/141 65/111/93
f 65/173/142 99/165/135 45/71/59
f 99/172/141 70/115/97 88/174/122
f 63/110/92 70/115/97 99/172/141
f 29/51/41 32/52/42 97/162/133
f 20/33/27 23/42/32 93/156/129
f 92/153/128 16/21/19 93/175/129
f 16/176/19 20/33/27 93/156/129
f 16/21/19 92/153/128 102/177/143
f 90/149/126 102/177/143 92/153/128
f 102/177/143 6/11/9 11/19/17
f 16/21/19 102/177/143 11/19/17
f 5/9/7 6/11/9 102/177/143
f 90/149/126 5/9/7 102/177/143
f 70/115/97 72/117/99 88/174/122
f 80/129/110 3/4/144 82/134/113
f 82/152/127 3/6/4 5/5/5
f 103/178/145 3/4/144 80/129/110
f 79/128/109 103/178/145 80/129/110
f 103/178/145 8/13/11 4/1/1
f 103/178/145 4/1/1 2/3/3
f 104/179/146 8/13/11 103/178/145
f 103/178/145 2/3/3 3/4/144
f 79/128/109 104/179/146 103/178/145
f 15/26/147 104/179/146 79/128/109
f 10/17/15 8/13/11 104/179/146
f 15/26/147 10/17/15 104/179/146
f 14/130/105 15/26/147 79/128/109
f 77/125/107 72/117/99 71/118/100
f 26/46/36 22/40/30 74/180/148
f 22/40/30 18/29/25 74/180/148
f 58/181/149 25/182/150 68/114/96
f 25/182/150 67/113/95 68/114/96
f 68/114/96 60/105/87 58/181/149
f 25/182/150 26/119/101 67/113/95
f 105/183/151 64/184/152 65/173/142
f 105/183/151 65/173/142 45/71/59
f 105/183/151 45/71/59 52/91/76
f 52/92/77 55/93/78 105/185/153
f 61/107/89 105/186/153 55/98/78
f 61/107/89 64/109/91 105/186/153
f 60/105/87 57/104/86 58/181/149
f 58/101/83 37/58/48 25/44/34
f 51/187/154 37/58/48 54/100/82
f 37/58/48 51/187/154 48/188/155
f 41/66/54 37/58/48 48/188/155
f 44/171/58 35/55/45 39/64/51
f 25/44/34 37/58/48 27/45/35
f 10/17/15 15/26/22 12/16/14
