# ('FARMS composite mesh',)
mtllib link_body_14_composite.mtl

o link_body_14
usemtl link_body_14_composite
v -1.24592500 -4.83309100 6.16445000
v -1.24592500 -4.83309100 6.16445000
v 0.18019500 -5.56720900 5.62076300
v 0.18019500 -5.56720900 5.62076300
v -2.91233600 -2.70700100 6.63242700
v -2.81891600 -6.16084400 3.77795800
v -0.59715800 -6.65893900 4.24333000
v -0.01741200 -4.24356500 6.70106500
v -3.22438400 -4.71470800 5.13323200
v -3.22438400 -4.71470800 5.13323200
v -0.87944600 -2.60519200 7.41053500
v -1.28305600 -0.00292500 7.78703600
v 0.44598300 0.00285200 7.51891500
v 0.44598300 0.00285200 7.51891500
v 0.45444100 -1.77980600 7.28471700
v 0.45444100 -1.77980600 7.28471700
v -2.10095400 -1.72873100 7.31476300
v -2.55237700 0.31700600 7.32427900
v -3.68488000 0.52768800 6.60713400
v -1.77627900 2.16940300 7.31848100
v -2.23809000 3.43228800 6.68089200
v -2.68351600 4.64378400 5.60357000
v -2.68351600 4.64378400 5.60357000
v -0.14312500 4.32554200 6.64541700
v -0.75150800 2.78862600 7.37641100
v -0.19108300 5.53302300 5.69512300
v -0.19108300 5.53302300 5.69512300
v -4.33217300 3.05741700 5.19366800
v -4.33217300 3.05741700 5.19366800
v -3.55673300 5.55703300 3.81214000
v -4.64161400 0.64740300 5.60863200
v -4.64161400 0.64740300 5.60863200
v -5.28702300 1.80368700 4.41570800
v -4.67145300 4.68812800 3.10061800
v -5.81705400 2.25191500 3.04843200
v -5.72590800 3.68156100 1.56013700
v -6.46122700 0.84806600 1.49659900
v -6.30772900 -0.70262800 2.40897700
v -5.84368400 -2.05642100 3.10061800
v -5.45977100 -0.76151900 4.41570900
v -5.45977100 -0.76151900 4.41570900
v -5.76494800 -3.60245800 1.49660200
v -5.76494800 -3.60245800 1.49660200
v -6.30339300 -2.44018900 -0.00000100
v -6.60175800 0.64020600 0.00000000
v -6.01862500 2.20555200 -2.58898600
v -5.85575400 3.74138900 -0.10233100
v -6.46539200 -0.75626800 -1.56013900
v -5.71377800 -3.70404900 -1.59548000
v -5.71377800 -3.70404900 -1.59548000
v -6.09239900 -0.59081100 -3.04843400
v -5.44226900 -2.20219500 -3.99370700
v -5.44226900 -2.20219500 -3.99370700
v -4.95518900 -4.24664400 -3.02086900
v -4.95518900 -4.24664400 -3.02086900
v -4.95518900 -4.24664400 -3.02086900
v -4.23901300 -2.45201600 -5.52558100
v -4.23901300 -2.45201600 -5.52558100
v -5.44925600 0.58640700 -4.45382800
v -4.71380700 0.00000100 -5.61153700
v -4.71380700 0.00000100 -5.61153700
v -4.78871100 -3.24534700 -4.30171300
v -4.78871100 -3.24534700 -4.30171300
v -4.78871100 -3.24534700 -4.30171300
v -4.48981800 -2.99114100 -2.57477200
v -4.04756800 -1.84058600 -3.98259800
v -4.04756800 -1.84058600 -3.98259800
v -3.67303700 -2.01520500 -6.20732000
v -3.67303700 -2.01520500 -6.20732000
v -3.67303700 -2.01520500 -6.20732000
v -3.67303700 -2.01520500 -6.20732000
v -2.95832100 -1.17060300 -2.51494100
v -2.95832100 -1.17060300 -2.51494100
v -3.20684200 -1.03413000 -4.72712300
v -3.20684200 -1.03413000 -4.72712300
v -1.71062800 -0.34914400 -4.70560100
v -1.71062800 -0.34914400 -4.70560100
v -2.20496700 -0.53535500 -3.54726800
v -2.20496700 -0.53535500 -3.54726800
v -2.07405600 -0.93040800 -6.40391500
v -2.07405600 -0.93040800 -6.40391500
v -0.78888100 -0.64055500 -6.12851600
v -0.78888100 -0.64055500 -6.12851600
v -0.78888100 -0.64055500 -6.12851600
v -0.56952300 -0.00174100 -6.49995100
v -0.56952300 -0.00174100 -6.49995100
v -3.54543200 -1.39553100 -6.51765800
v -3.54543200 -1.39553100 -6.51765800
v -3.71327600 0.00000100 -6.53105200
v -3.71327600 0.00000100 -6.53105200
v -3.54170600 1.34942300 -6.52583200
v -3.54170600 1.34942300 -6.52583200
v -4.22747500 2.18343900 -5.65916800
v -4.22747500 2.18343900 -5.65916800
v -4.22747500 2.18343900 -5.65916800
v -3.56535200 1.79851200 -6.35377600
v -3.56535200 1.79851200 -6.35377600
v -3.56535200 1.79851200 -6.35377600
v -2.06062900 0.98879000 -6.36830500
v -2.06062900 0.98879000 -6.36830500
v -2.39121400 0.62756800 -4.96298600
v -3.51274000 1.17135900 -4.72712400
v -4.33751200 1.96211100 -3.99361700
v -4.33751200 1.96211100 -3.99361700
v -3.26422400 1.30783400 -2.51494300
v -2.27274300 0.63849900 -3.20988500
v -2.27274300 0.63849900 -3.20988500
v -1.36558800 0.52128800 -5.36398700
v -1.36558800 0.52128800 -5.36398700
v -2.58585600 1.52778000 -1.45710300
v -2.58585600 1.52778000 -1.45710300
v -2.66738000 0.00000200 -1.80052800
v -2.81410400 0.95328500 -0.02882300
v -2.58953000 -1.51029000 -1.49829700
v -2.58953000 -1.51029000 -1.49829700
v -2.58953000 -1.51029000 -1.49829700
v -2.58953000 -1.51029000 -1.49829700
v -2.37660900 -2.96732600 -0.05591200
v -2.37660900 -2.96732600 -0.05591200
v -2.68514600 -1.80476500 0.67965500
v -3.44605000 -2.72665000 -0.98109700
v -3.44605000 -2.72665000 -0.98109700
v -4.13787700 -4.68144800 -0.83974000
v -4.13787700 -4.68144800 -0.83974000
v -3.01265700 -4.39624000 0.14816000
v -2.56760300 -5.46835900 0.54552400
v -2.00083900 -3.96147200 0.52063200
v -2.00083900 -3.96147200 0.52063200
v -2.00083900 -3.96147200 0.52063200
v -1.03235000 -5.75830700 0.85323900
v -1.03235000 -5.75830700 0.85323900
v -1.03235000 -5.75830700 0.85323900
v -1.03235000 -5.75830700 0.85323900
v -1.75768700 -4.41723100 1.79793100
v -1.75768700 -4.41723100 1.79793100
v -0.52906400 -5.57848500 3.60703300
v -0.52906400 -5.57848500 3.60703300
v -0.37382600 -6.51688800 1.73056800
v -0.37382600 -6.51688800 1.73056800
v -0.37382600 -6.51688800 1.73056800
v -1.98781900 -2.49847700 3.43313400
v -0.68269700 -3.77749400 5.19786900
v -0.68269700 -3.77749400 5.19786900
v -0.68269700 -3.77749400 5.19786900
v -2.17573700 0.83342300 3.67845900
v -1.39612100 -1.49708200 5.12746700
v -2.65030400 0.96029400 1.88913700
v -2.05851700 3.99228100 0.57388300
v -2.05851700 3.99228100 0.57388300
v -1.41380600 4.09600100 3.49723100
v -2.41427500 2.92252100 -0.02559600
v -2.41427500 2.92252100 -0.02559600
v -2.41427500 2.92252100 -0.02559600
v -3.77264100 2.86970900 -0.99766300
v -3.77264100 2.86970900 -0.99766300
v -3.77264100 2.86970900 -0.99766300
v -3.86916600 4.82830600 -0.17996700
v -3.86916600 4.82830600 -0.17996700
v -4.75863000 3.99378500 -1.72623700
v -2.89881400 5.68398200 0.54151100
v -3.72435900 6.51735500 -0.21719800
v -3.72435900 6.51735500 -0.21719800
v -3.72435900 6.51735500 -0.21719800
v -4.61531600 5.54999300 -1.16017900
v -4.61531600 5.54999300 -1.16017900
v -4.07803100 6.05812500 1.61989400
v -5.65425600 3.78693100 -1.67197500
v -5.15305800 3.92252300 -2.97761600
v -5.15305800 3.92252300 -2.97761600
v -4.42362100 2.58547200 -2.50599800
v -4.42362100 2.58547200 -2.50599800
v -4.91389600 2.93267600 -4.36364600
v -4.91389600 2.93267600 -4.36364600
v -4.91389600 2.93267600 -4.36364600
v -2.57709500 7.18502600 1.14131200
v -2.57709500 7.18502600 1.14131200
v 0.37090400 6.64360000 3.36684000
v 0.37090400 6.64360000 3.36684000
v -0.59715000 6.65892700 4.24336300
v -2.10618400 6.91613600 2.89162400
v -2.10618400 6.91613600 2.89162400
v 0.66871300 6.51995500 4.00236000
v 0.66871300 6.51995500 4.00236000
v -0.37115800 6.51803500 1.73474000
v -0.37115800 6.51803500 1.73474000
v -2.98186000 6.99117900 0.16023100
v -2.98186000 6.99117900 0.16023100
v -2.98186000 6.99117900 0.16023100
v -2.98186000 6.99117900 0.16023100
v -1.60369300 6.35537000 -0.13841100
v -1.60369300 6.35537000 -0.13841100
v -1.03026500 5.92107800 0.09132900
v -1.03026500 5.92107800 0.09132900
v -1.03026500 5.92107800 0.09132900
v -1.37110400 5.92250400 0.82217400
v -1.37110400 5.92250400 0.82217400
v -1.78511000 6.06544400 0.81020800
v -1.78511000 6.06544400 0.81020800
v -1.42225400 5.20588900 0.85500700
v -1.42225400 5.20588900 0.85500700
v -0.98473800 5.79210100 0.84670900
v -0.98473800 5.79210100 0.84670900
v -0.98473800 5.79210100 0.84670900
v 0.80963400 5.75001100 5.28757800
v 0.80963400 5.75001100 5.28757800
v 0.80963400 5.75001100 5.28757800
v 0.71946600 4.27445400 6.49779100
v 0.71946600 4.27445400 6.49779100
v 0.71946600 4.27445400 6.49779100
v -0.72733300 3.62310000 5.25718900
v -1.49367300 0.75281000 5.15003100
v -0.32961100 1.89486600 6.54191000
v -0.32961100 1.89486600 6.54191000
v -0.50548500 -1.10142100 6.57457900
v -0.50548500 -1.10142100 6.57457900
v 0.45448300 1.77924100 7.28489100
v 0.45448300 1.77924100 7.28489100
v 0.70820200 -4.20437500 6.53153800
v 0.70820200 -4.20437500 6.53153800
v 0.70820200 -4.20437500 6.53153800
v 0.82629400 -5.73377800 5.30526600
v 0.82629400 -5.73377800 5.30526600
v 0.82629400 -5.73377800 5.30526600
v 0.57723100 -6.60618000 3.77182700
v 0.57723100 -6.60618000 3.77182700
v -2.56775000 -7.18509500 1.15594500
v -2.56775000 -7.18509500 1.15594500
v -3.27941900 -6.82240900 -0.27004300
v -3.27941900 -6.82240900 -0.27004300
v -3.27941900 -6.82240900 -0.27004300
v -4.12705700 -6.03460300 1.55739700
v -2.10619400 -6.91613600 2.89162400
v -1.54536900 -6.33124200 -0.10376400
v -1.54536900 -6.33124200 -0.10376400
v -1.54536900 -6.33124200 -0.10376400
v -1.54536900 -6.33124200 -0.10376400
v -1.54536900 -6.33124200 -0.10376400
v -2.78882600 -6.91084400 0.05300900
v -2.78882600 -6.91084400 0.05300900
v -2.78882600 -6.91084400 0.05300900
v -1.95109500 -6.26138300 0.61633800
v -1.95109500 -6.26138300 0.61633800
v -1.95109500 -6.26138300 0.61633800
v -0.97557800 -5.89587800 0.14939600
v -0.97557800 -5.89587800 0.14939600
v -0.97557800 -5.89587800 0.14939600
v -5.02044000 -5.19196000 -0.05864500
v -5.02044000 -5.19196000 -0.05864500
v -4.79211500 -4.55294700 3.04843200
v -4.79211500 -4.55294700 3.04843200
v -4.80132100 -3.21079000 4.41570800
v -4.80132100 -3.21079000 4.41570800
v -4.80132100 -3.21079000 4.41570800
v -4.36926400 -2.02049200 5.64098800
v -4.36926400 -2.02049200 5.64098800
v -4.54643900 -5.49782200 -1.61325800
v -4.54643900 -5.49782200 -1.61325800
v -3.66396100 -6.51939700 -0.49129900
v -3.66396100 -6.51939700 -0.49129900
v -3.66396100 -6.51939700 -0.49129900
v -2.09836700 6.07909000 4.39668700
v -2.09836700 6.07909000 4.39668700
v -2.09836700 6.07909000 4.39668700
v -0.82694900 0.80930100 -6.08553100
v -0.82694900 0.80930100 -6.08553100
v -0.82694900 0.80930100 -6.08553100
vn -0.22829024 -0.52339927 0.82093652
vn -0.26125263 -0.72853081 0.63323765
vn 0.14663321 -0.61391655 0.77563211
vn -0.03144066 -0.77459562 0.63167484
vn -0.50008464 -0.33041917 0.80046144
vn -0.48343602 -0.74434725 0.46069164
vn -0.03802714 -0.90248980 0.42902925
vn 0.07939983 -0.47194003 0.87804799
vn -0.54600516 -0.63324822 0.54852079
vn -0.54737022 -0.45098788 0.70497927
vn -0.04381417 -0.29824852 0.95348211
vn -0.09498823 -0.00122757 0.99547764
vn 0.70081863 -0.01724957 -0.71313092
vn 0.15994652 -0.00097823 0.98712520
vn 0.19947187 -0.17838522 0.96352980
vn 0.67480926 0.21623765 -0.70560169
vn -0.37451609 -0.19580397 0.90631038
vn -0.45254622 0.04064019 0.89081440
vn -0.61699630 0.06882045 0.78395109
vn -0.33965472 0.23256702 0.91134365
vn -0.40302986 0.42015172 0.81304333
vn -0.37096300 0.56552506 0.73659205
vn -0.58041954 0.57537772 0.57624096
vn -0.00170680 0.52676940 0.85000652
vn 0.00057735 0.30575218 0.95211096
vn -0.05025179 0.63717239 0.76908133
vn -0.03273290 0.78532888 0.61821284
vn -0.76228289 0.38953954 0.51689819
vn -0.60863241 0.30253650 0.73351091
vn -0.59807147 0.66367476 0.44927311
vn -0.73120137 0.05002126 0.68032524
vn -0.82631770 0.10886302 0.55258294
vn -0.85430068 0.19305755 0.48259623
vn -0.78098956 0.51452574 0.35400363
vn -0.90989322 0.24500450 0.33476429
vn -0.89533760 0.41418961 0.16376066
vn -0.98073010 0.11125945 0.16059202
vn -0.96602869 -0.06938918 0.24894521
vn -0.90959743 -0.24665632 0.33435485
vn -0.89078115 -0.06979364 0.44904097
vn -0.78072440 -0.07217193 0.62069367
vn -0.92625516 -0.34241599 0.15748863
vn -0.81892389 -0.54716410 0.17313319
vn -0.96731296 -0.25353699 0.00496378
vn -0.99698800 0.07674158 -0.01120950
vn -0.93575833 0.22209011 -0.27392029
vn -0.90999641 0.41457414 0.00589991
vn -0.98295178 -0.08636881 -0.16231521
vn -0.92806131 -0.33365000 -0.16546868
vn -0.82271996 -0.53345787 -0.19635319
vn -0.94208452 -0.06549813 -0.32891755
vn -0.89882150 -0.23793868 -0.36811017
vn -0.78178643 -0.24222749 -0.57457447
vn 0.93309059 -0.23096400 -0.27567658
vn -0.81612444 -0.52880205 -0.23304352
vn -0.86010191 -0.37134375 -0.34975496
vn -0.75831987 -0.20542615 -0.61866879
vn 0.78185362 -0.60674131 0.14342211
vn -0.86548618 0.08372951 -0.49388565
vn -0.83731775 0.05306017 -0.54413565
vn -0.71964958 -0.04238090 -0.69304281
vn -0.82147286 -0.39253857 -0.41363730
vn 0.90478530 -0.42431968 -0.03628187
vn -0.76986860 -0.31915663 -0.55266751
vn 0.85966207 -0.41612461 -0.29634681
vn 0.82166382 -0.56921744 -0.02932690
vn 0.63089685 -0.76681299 -0.11818213
vn 0.74075266 -0.64842123 0.17560014
vn -0.68157731 -0.21060601 -0.70078347
vn 0.21539564 -0.47238092 -0.85467011
vn 0.55748013 -0.76200997 0.32947944
vn 0.38100483 -0.88015703 -0.28312353
vn 0.70366528 -0.61428647 -0.35708166
vn 0.52558835 -0.84626512 0.08713340
vn 0.75840957 -0.62730839 0.17691552
vn 0.35055456 -0.92103369 0.16973050
vn 0.90287186 -0.03372168 0.42858518
vn 0.94771654 -0.01658193 0.31868230
vn 0.46542473 -0.88001978 -0.09457804
vn 0.36575729 -0.88526354 0.28728046
vn 0.21255548 -0.43797113 -0.87349955
vn 0.15069487 -0.94474913 0.29110160
vn 0.83323116 0.05132200 0.55053782
vn 0.29199142 -0.55370095 -0.77984375
vn 0.20542056 -0.01787757 -0.97851049
vn 0.82177410 0.01353803 0.56965257
vn -0.70179453 -0.14915285 -0.69659017
vn 0.14340464 -0.30839009 -0.94038857
vn 0.00989081 -0.00290951 -0.99994685
vn -0.67666836 0.00045006 -0.73628780
vn 0.11128578 0.22626192 -0.96768849
vn -0.68102162 0.15232987 -0.71624379
vn -0.82574795 0.17220762 -0.53710787
vn -0.69066833 0.16400021 -0.70433032
vn 0.73396098 0.65256027 0.18832517
vn 0.17713718 0.36886471 -0.91244794
vn -0.62823976 0.24928320 -0.73700250
vn 0.55488717 0.78073841 0.28731126
vn 0.26576678 0.50889382 -0.81877659
vn 0.29138945 0.89536113 0.33677980
vn 0.31050833 0.94126690 0.13266951
vn 0.58331464 0.80660570 0.09555768
vn 0.88177491 0.44614704 -0.15305499
vn 0.73939851 0.67283069 -0.02426306
vn 0.54370215 0.77849757 -0.31357536
vn 0.39627615 0.90715894 -0.14151984
vn 0.95297518 -0.05384930 0.29822569
vn 0.12515854 0.95787608 0.25847390
vn 0.85922588 0.00773860 0.51153788
vn 0.98272114 -0.12655340 0.13506813
vn 0.47610732 0.70883848 -0.52045156
vn 0.98635763 0.00505893 0.16453886
vn 0.99674660 -0.08048950 0.00420201
vn 0.23032872 -0.89477739 -0.38252073
vn 0.44392759 -0.59680328 -0.66839669
vn 0.98969168 0.09950383 0.10300175
vn 0.63410314 -0.63445915 -0.44201221
vn 0.96242992 0.27080681 -0.01980695
vn 0.50579616 -0.41636146 -0.75552193
vn 0.98473016 0.15734057 -0.07450132
vn 0.75613831 -0.48785311 -0.43618138
vn 0.54002764 -0.46245774 -0.70320906
vn 0.67727644 -0.12032276 -0.72582302
vn 0.87885055 -0.11172526 -0.46383097
vn 0.57007567 -0.18868927 -0.79963122
vn 0.43348308 0.02685468 -0.90076148
vn 0.88013002 0.47472913 0.00184507
vn 0.36652090 -0.21609462 -0.90496715
vn 0.94544464 0.31899484 -0.06615678
vn 0.19385783 -0.01456621 -0.98092149
vn 0.81810603 0.56901645 -0.08320335
vn -0.53578614 0.81949072 -0.20339168
vn -0.39510540 0.86595302 -0.30662204
vn 0.85375583 0.51273787 -0.09055858
vn 0.91681135 0.33137653 -0.22281507
vn 0.71705322 0.59682868 -0.36004196
vn 0.85612688 0.38608568 -0.34348888
vn 0.78434554 0.58991810 -0.19182988
vn 0.33777802 -0.91328925 -0.22761537
vn 0.65736695 -0.58195773 -0.47874200
vn 0.92214543 0.22533101 -0.31444196
vn 0.84791302 0.31762889 -0.42444717
vn 0.70748930 0.28569307 -0.64640418
vn 0.68621801 0.50033246 -0.52798889
vn 0.93786464 -0.08071642 -0.33748300
vn 0.86745766 0.14224769 -0.47674187
vn 0.97834972 -0.09253868 -0.18511732
vn 0.93082399 -0.32075973 -0.17515675
vn 0.40723990 0.22196462 -0.88593869
vn 0.85893567 -0.39594176 -0.32474549
vn 0.44291094 0.61504790 -0.65233885
vn 0.50913414 0.32409159 -0.79733749
vn 0.97168916 -0.22458117 -0.07337215
vn 0.55052485 0.63339416 -0.54381452
vn 0.78263676 0.35513773 -0.51123076
vn 0.53672420 0.34745790 -0.76889540
vn 0.53801939 0.18245777 -0.82294854
vn 0.79451625 0.09410996 -0.59990604
vn 0.87913922 0.22468177 -0.42027651
vn 0.42903161 -0.03123741 -0.90274919
vn 0.58698371 -0.14386429 -0.79671400
vn -0.67609909 0.73510592 0.05009298
vn 0.76405141 -0.07961650 -0.64022391
vn -0.81119375 0.58383391 -0.03320651
vn 0.83608814 0.02788358 -0.54788606
vn -0.68399573 0.70665845 0.18106264
vn -0.88575021 0.42686719 -0.18229362
vn -0.85129520 0.41488894 -0.32119097
vn 0.91106302 0.33363839 -0.24217677
vn 0.86763765 0.42317513 -0.26101287
vn 0.69846807 0.63612265 -0.32785719
vn -0.84621088 0.24353695 -0.47393765
vn 0.87439909 0.45335928 -0.17289185
vn 0.83087224 0.54180263 0.12689061
vn -0.55665747 0.80871123 0.19004898
vn 0.29592960 0.93051557 -0.21579259
vn 0.74601860 -0.55303867 -0.37095077
vn 0.10519610 0.98927600 0.10132505
vn -0.02261151 0.91272793 0.40794172
vn -0.52991600 0.78420862 0.32280934
vn -0.03896574 0.97274187 0.22859338
vn 0.15216100 0.93367071 0.32420061
vn 0.67440942 -0.59845222 -0.43246604
vn 0.37374217 0.88705663 -0.27101166
vn 0.80526165 -0.54446337 -0.23476226
vn -0.56121463 0.82482523 0.06856737
vn 0.45451455 -0.22268351 -0.86245497
vn -0.45367711 -0.82429652 -0.33869207
vn 0.34031791 0.88582559 -0.31543105
vn -0.45298879 -0.83684946 -0.30738272
vn 0.45262274 0.81056330 -0.37164471
vn 0.83451067 -0.53258377 -0.14123199
vn -0.47089275 -0.85484655 -0.21793897
vn 0.64417638 0.59881909 -0.47587025
vn 0.02697718 -0.04767356 -0.99849860
vn -0.36007427 -0.90166267 -0.23948059
vn -0.36738652 -0.86749066 -0.33539098
vn 0.19650180 -0.06066914 -0.97862470
vn 0.16850947 0.03770021 -0.98497881
vn 0.85252927 -0.49053982 -0.18045646
vn 0.04680029 -0.04905185 -0.99769918
vn -0.30844004 -0.94058384 -0.14200976
vn 0.81749696 -0.56693745 -0.10139355
vn 0.71747794 -0.52279563 -0.46033699
vn 0.17812383 0.61748827 0.76614629
vn 0.11454591 0.82057838 0.55993781
vn 0.20000423 0.48395984 0.85192792
vn 0.69208518 -0.42227529 -0.58540728
vn 0.63451503 -0.29299612 -0.71522301
vn 0.78471518 -0.35904956 -0.50527765
vn 0.86486138 -0.08140856 -0.49536596
vn 0.67278506 -0.18322114 -0.71679165
vn 0.78750644 -0.18895335 -0.58662615
vn 0.69282290 0.13983947 -0.70741879
vn 0.81954597 0.07930181 -0.56749945
vn 0.66170623 -0.18370211 -0.72691017
vn 0.21521460 0.16994024 0.96166678
vn 0.70318845 0.28408545 -0.65178329
vn 0.67653222 0.49175376 -0.54816274
vn 0.22686668 -0.45464277 0.86129639
vn 0.67563952 0.53449289 -0.50776825
vn 0.13031898 -0.82745654 0.54619836
vn 0.22099324 -0.59964003 0.76915137
vn 0.19804261 -0.95203942 0.23323821
vn 0.65888370 0.64801675 -0.38202952
vn -0.55301879 -0.81315468 0.18152048
vn 0.27771687 -0.93790942 -0.20784434
vn -0.01848692 -0.97114438 -0.23777473
vn -0.63729208 -0.76774746 0.06650300
vn 0.57814191 0.17596208 -0.79673664
vn -0.68348523 -0.70646803 0.18371406
vn -0.24589712 -0.92905062 0.27640469
vn -0.53578614 0.81949072 -0.20339168
vn -0.39510540 0.86595302 -0.30662204
vn -0.43287881 0.84065335 -0.32545027
vn 0.65736695 -0.58195773 -0.47874200
vn 0.35878834 -0.88168681 -0.30642993
vn -0.43287881 0.84065335 -0.32545027
vn 0.51983325 0.20355295 -0.82966234
vn 0.14294453 -0.95339412 -0.26571886
vn -0.39510540 0.86595302 -0.30662204
vn -0.43287881 0.84065335 -0.32545027
vn 0.30543705 0.15353474 -0.93975278
vn -0.53578614 0.81949072 -0.20339168
vn 0.78564214 0.61604610 -0.05704056
vn 0.65736695 -0.58195773 -0.47874200
vn -0.90634375 -0.42253972 -0.00108922
vn -0.77607879 -0.63062235 0.00414212
vn -0.73517056 -0.58225758 0.34713163
vn -0.86545051 -0.37156373 0.33605923
vn -0.85276096 -0.29332064 0.43215940
vn -0.70745030 -0.50674394 0.49267093
vn -0.66819226 -0.40193253 0.62607456
vn -0.67604186 -0.22482150 0.70172837
vn -0.83074213 -0.22333285 0.50989210
vn 0.88967072 -0.01278047 -0.45642378
vn -0.78752205 -0.59892436 -0.14525366
vn 0.63184749 0.09922615 -0.76871511
vn -0.68111948 -0.72626751 0.09279954
vn 0.82703621 0.10868971 -0.55154116
vn -0.25489048 0.80254945 0.53939339
vn -0.26821945 0.68170661 0.68068673
vn -0.46281047 0.73037326 0.50235582
vn 0.04226547 0.91665237 0.39744441
vn 0.80875488 -0.04302111 0.58657030
vn 0.26197105 0.50376261 -0.82316123
vt 0.69962200 0.69250100
vt 0.62283200 0.82485700
vt 0.69556500 0.68301900
vt 0.61481100 0.81866500
vt 0.71139400 0.70356400
vt 0.61743400 0.84082300
vt 0.61111600 0.82713500
vt 0.70284900 0.68434400
vt 0.62554800 0.83894300
vt 0.70034600 0.70562200
vt 0.71190000 0.69007300
vt 0.72629700 0.69273900
vt 0.90478800 0.38162000
vt 0.72632100 0.68124300
vt 0.71646000 0.68119900
vt 0.89494000 0.38168000
vt 0.71677200 0.69817900
vt 0.72810400 0.70115900
vt 0.72931600 0.70866600
vt 0.73835300 0.69598400
vt 0.74537900 0.69902600
vt 0.75214000 0.70194900
vt 0.62189600 0.02799600
vt 0.75030200 0.68509600
vt 0.74176700 0.68917000
vt 0.75703000 0.68538100
vt 0.93139500 0.63399100
vt 0.63156400 0.03602000
vt 0.74339300 0.71291000
vt 0.62774000 0.01985700
vt 0.73003400 0.71499900
vt 0.63840600 0.04738300
vt 0.64055800 0.03999900
vt 0.63541700 0.02293700
vt 0.64563700 0.03445600
vt 0.64694100 0.02342700
vt 0.65789100 0.03557100
vt 0.65902300 0.04447700
vt 0.65992700 0.05118600
vt 0.64944700 0.05017500
vt 0.72229400 0.72042100
vt 0.67173000 0.05115200
vt 0.61873800 0.86433400
vt 0.67496700 0.04242700
vt 0.66509700 0.03126100
vt 0.66978600 0.01471900
vt 0.65392800 0.01747200
vt 0.67612100 0.03069400
vt 0.68497400 0.04028100
vt 0.60438900 0.87369800
vt 0.68122300 0.02391600
vt 0.68957000 0.02531900
vt 0.93546800 0.91669100
vt 0.46090400 0.94699300
vt 0.59488700 0.87393900
vt 0.69157600 0.03563700
vt 0.93681300 0.92459100
vt 0.46099900 0.96406900
vt 0.68215000 0.01300300
vt 0.68781200 0.00954000
vt 0.94868900 0.91728100
vt 0.69332800 0.02683900
vt 0.46081500 0.95600400
vt 0.93139500 0.92261900
vt 0.45351600 0.94941600
vt 0.45292100 0.95950600
vt 0.97876100 0.09207200
vt 0.46083900 0.96855800
vt 0.94035300 0.92733600
vt 0.94035300 0.92733600
vt 0.99102400 0.08919200
vt 0.97423400 0.10195800
vt 0.44386800 0.95551600
vt 0.98462400 0.09530800
vt 0.45109700 0.96555500
vt 0.98848900 0.10429100
vt 0.65092100 0.73836300
vt 0.64934300 0.73230900
vt 0.98134600 0.10402200
vt 0.99616600 0.09823500
vt 0.94944000 0.93548600
vt 0.99827300 0.10658700
vt 0.65501800 0.74437600
vt 0.95365500 0.94309400
vt 0.95750000 0.94332400
vt 0.65267500 0.74784300
vt 0.94389900 0.92702600
vt 0.94389900 0.92702600
vt 0.95087200 0.92351200
vt 0.95087200 0.92351200
vt 0.95831800 0.92222000
vt 0.95831800 0.92222000
vt 0.67990700 0.00000000
vt 0.96118200 0.91650000
vt 0.95607200 0.48883600
vt 0.96061200 0.92129500
vt 0.96061200 0.92129500
vt 0.96147200 0.48582100
vt 0.95954100 0.93219800
vt 0.96572000 0.47575700
vt 0.95791700 0.47401900
vt 0.95363400 0.48093500
vt 0.96396500 0.81755800
vt 0.94741100 0.48552700
vt 0.94287700 0.47504100
vt 0.94925000 0.46962600
vt 0.64289900 0.73378900
vt 0.96256800 0.46878900
vt 0.64807400 0.74382100
vt 0.63441200 0.72767100
vt 0.93903800 0.46928400
vt 0.64273500 0.72530300
vt 0.63371000 0.71923800
vt 0.97023900 0.10658700
vt 0.99723400 0.21435500
vt 0.64912300 0.71982000
vt 0.44144900 0.94995900
vt 0.65214600 0.70891800
vt 0.98912600 0.21240600
vt 0.64498300 0.70846700
vt 0.44581400 0.94347900
vt 0.99331000 0.20643400
vt 0.98524400 0.19786400
vt 0.45443100 0.93608800
vt 0.98356800 0.20534900
vt 0.97690100 0.20566500
vt 0.96814000 0.45832400
vt 0.98302000 0.21247500
vt 0.65501800 0.70342800
vt 0.97128700 0.21435500
vt 0.96337200 0.44995300
vt 0.67872100 0.97180600
vt 0.76295600 0.97180600
vt 0.96062500 0.45815500
vt 0.65362500 0.69597700
vt 0.94804900 0.45171500
vt 0.65317200 0.68393200
vt 0.95702100 0.44611700
vt 0.59883900 0.83376800
vt 0.44101400 0.97180600
vt 0.64040600 0.69314600
vt 0.64055100 0.68099400
vt 0.88406700 0.37403700
vt 0.94121000 0.45832400
vt 0.62396100 0.70081000
vt 0.63054900 0.68748000
vt 0.62851500 0.70991100
vt 0.61671900 0.72425500
vt 0.98081600 0.54302300
vt 0.60792500 0.71022900
vt 0.93139500 0.46774400
vt 0.97450100 0.54352400
vt 0.62380400 0.72438400
vt 0.93301800 0.47752500
vt 0.94775600 0.81050200
vt 0.97023900 0.53551000
vt 0.97958300 0.53013100
vt 0.93745900 0.81561800
vt 0.94777700 0.81759400
vt 0.98667000 0.53382000
vt 0.98837000 0.52677900
vt 0.64170200 0.00199800
vt 0.93139500 0.82280100
vt 0.65032600 0.00415300
vt 0.93970500 0.82201900
vt 0.63609200 0.01111800
vt 0.66004600 0.01121600
vt 0.66427700 0.00494500
vt 0.95361200 0.82178100
vt 0.95568800 0.81468200
vt 0.93926100 0.48396900
vt 0.67304200 0.00323500
vt 0.96262200 0.82280100
vt 0.94734500 0.49136200
vt 0.63193200 0.00195400
vt 0.96099100 0.64344300
vt 0.59408300 0.71736100
vt 0.94346800 0.62861100
vt 0.94062800 0.63590900
vt 0.62473700 0.00831600
vt 0.95070300 0.64310900
vt 0.93948200 0.62768600
vt 0.59270300 0.71390200
vt 0.95333500 0.63009200
vt 0.59973300 0.72506700
vt 0.63734600 0.00000000
vt 0.99290900 0.53003800
vt 0.26613500 0.98544200
vt 0.96675800 0.64388300
vt 0.26410400 0.97620200
vt 0.96534100 0.63404000
vt 0.60758700 0.73156600
vt 0.26518600 0.97226100
vt 0.96275900 0.63024900
vt 0.99240000 0.54231600
vt 0.26929300 0.97440300
vt 0.26933100 0.97718500
vt 0.99187000 0.53950200
vt 0.98870200 0.54380000
vt 0.60946500 0.72601400
vt 0.99290900 0.54493500
vt 0.26933100 0.97180600
vt 0.60619500 0.72754600
vt 0.59291100 0.70559500
vt 0.75823800 0.67872000
vt 0.93187600 0.62768600
vt 0.75001600 0.67936100
vt 0.59695600 0.69581500
vt 0.92853900 0.38334900
vt 0.60488000 0.70032400
vt 0.61978400 0.69334700
vt 0.91534800 0.37640100
vt 0.60941600 0.68944300
vt 0.89875400 0.37526000
vt 0.62392100 0.68136900
vt 0.91464500 0.38165000
vt 0.73616700 0.68116400
vt 0.88159200 0.38334900
vt 0.93139500 0.45140200
vt 0.70306500 0.67951800
vt 0.93656500 0.44606600
vt 0.61090800 0.81609000
vt 0.69464900 0.67872000
vt 0.60458600 0.82216800
vt 0.94448300 0.44356800
vt 0.60422600 0.84754100
vt 0.60422600 0.84754100
vt 0.60047100 0.85593000
vt 0.60047100 0.85593000
vt 0.97203600 0.19830700
vt 0.61221100 0.85494500
vt 0.61050700 0.83961300
vt 0.67872100 0.97856600
vt 0.76746900 0.97508300
vt 0.70694600 0.97809200
vt 0.44101400 0.98267500
vt 0.59488700 0.84593900
vt 0.70694600 0.97180600
vt 0.97023900 0.20109500
vt 0.60008900 0.85222200
vt 0.76295600 0.97675500
vt 0.71082900 0.97673600
vt 0.97122500 0.20764300
vt 0.68075600 0.97519200
vt 0.96689600 0.44823200
vt 0.43812200 0.98094200
vt 0.68241500 0.05007500
vt 0.60840200 0.86496600
vt 0.62192700 0.85406800
vt 0.66685900 0.05836100
vt 0.65662500 0.05817600
vt 0.62858600 0.84996700
vt 0.70872400 0.71606900
vt 0.71525600 0.71321600
vt 0.64679600 0.05714200
vt 0.46099900 0.93660100
vt 0.59944100 0.86719200
vt 0.97462500 0.19664400
vt 0.60098300 0.85875700
vt 0.46056900 0.92826200
vt 0.94213200 0.64416100
vt 0.76013400 0.69801900
vt 0.62121500 0.01693200
vt 0.96743400 0.46774400
vt 0.64798000 0.74801500
vt 0.96118200 0.94030800
f 1/1/1 3/3/3 8/8/8
f 7/7/7 4/4/4 2/2/2
f 11/11/11 5/5/5 1/1/1
f 10/10/10 1/1/1 5/5/5
f 9/9/9 6/6/6 2/2/2
f 2/2/2 6/6/6 7/7/7
f 8/8/8 11/11/11 1/1/1
f 14/14/14 12/12/12 11/11/11
f 11/11/11 12/12/12 17/17/17
f 11/11/11 15/15/15 14/14/14
f 11/11/11 8/8/8 15/15/15
f 17/17/17 5/5/5 11/11/11
f 12/12/12 18/18/18 17/17/17
f 18/18/18 5/5/5 17/17/17
f 21/21/21 19/19/19 18/18/18
f 18/18/18 19/19/19 5/5/5
f 12/12/12 20/20/20 18/18/18
f 21/21/21 18/18/18 20/20/20
f 29/29/29 19/19/19 21/21/21
f 21/21/21 22/22/22 29/29/29
f 21/21/21 26/26/26 22/22/22
f 21/21/21 24/24/24 26/26/26
f 25/25/25 24/24/24 21/21/21
f 25/25/25 21/21/21 20/20/20
f 23/23/23 30/30/30 28/28/28
f 30/30/30 34/34/34 28/28/28
f 33/33/33 32/32/32 28/28/28
f 31/31/31 19/19/19 29/29/29
f 28/28/28 35/35/35 33/33/33
f 28/28/28 34/34/34 35/35/35
f 38/38/38 33/33/33 35/35/35
f 36/36/36 37/37/37 35/35/35
f 36/36/36 35/35/35 34/34/34
f 37/37/37 38/38/38 35/35/35
f 40/40/40 38/38/38 39/39/39
f 38/38/38 42/42/42 39/39/39
f 38/38/38 40/40/40 33/33/33
f 44/44/44 42/42/42 38/38/38
f 45/45/45 44/44/44 38/38/38
f 45/45/45 38/38/38 37/37/37
f 46/46/46 45/45/45 47/47/47
f 45/45/45 46/46/46 48/48/48
f 47/47/47 45/45/45 37/37/37
f 48/48/48 44/44/44 45/45/45
f 44/44/44 48/48/48 49/49/49
f 52/52/52 49/49/49 48/48/48
f 51/51/51 48/48/48 46/46/46
f 52/52/52 48/48/48 51/51/51
f 52/52/52 62/62/62 56/56/56
f 56/56/56 49/49/49 52/52/52
f 52/52/52 51/51/51 59/59/59
f 57/57/57 64/64/64 53/53/53
f 61/61/61 57/57/57 53/53/53
f 59/59/59 60/60/60 52/52/52
f 63/63/63 65/65/65 54/54/54
f 65/65/65 63/63/63 66/66/66
f 66/66/66 63/63/63 58/58/58
f 58/58/58 68/68/68 66/66/66
f 66/66/66 68/68/68 75/75/75
f 65/65/65 66/66/66 73/73/73
f 67/67/67 74/74/74 72/72/72
f 74/74/74 71/71/71 80/80/80
f 74/74/74 80/80/80 76/76/76
f 79/79/79 74/74/74 76/76/76
f 72/72/72 74/74/74 79/79/79
f 80/80/80 82/82/82 76/76/76
f 81/81/81 70/70/70 88/88/88
f 85/85/85 84/84/84 81/81/81
f 81/81/81 88/88/88 85/85/85
f 57/57/57 87/87/87 69/69/69
f 61/61/61 87/87/87 57/57/57
f 90/90/90 87/87/87 61/61/61
f 89/89/89 85/85/85 88/88/88
f 90/90/90 61/61/61 92/92/92
f 91/91/91 85/85/85 89/89/89
f 97/97/97 92/92/92 94/94/94
f 94/94/94 92/92/92 61/61/61
f 85/85/85 91/91/91 96/96/96
f 85/85/85 96/96/96 99/99/99
f 101/101/101 100/100/100 98/98/98
f 102/102/102 101/101/101 98/98/98
f 98/98/98 95/95/95 102/102/102
f 104/104/104 105/105/105 102/102/102
f 104/104/104 102/102/102 95/95/95
f 105/105/105 106/106/106 102/102/102
f 106/106/106 101/101/101 102/102/102
f 107/107/107 78/78/78 109/109/109
f 108/108/108 101/101/101 106/106/106
f 105/105/105 111/111/111 106/106/106
f 107/107/107 110/110/110 112/112/112
f 112/112/112 78/78/78 107/107/107
f 113/113/113 112/112/112 110/110/110
f 112/112/112 113/113/113 116/116/116
f 112/112/112 116/116/116 78/78/78
f 115/115/115 119/119/119 122/122/122
f 118/118/118 116/116/116 120/120/120
f 113/113/113 120/120/120 116/116/116
f 73/73/73 117/117/117 121/121/121
f 72/72/72 79/79/79 114/114/114
f 121/121/121 65/65/65 73/73/73
f 124/124/124 65/65/65 121/121/121
f 123/123/123 122/122/122 125/125/125
f 122/122/122 119/119/119 125/125/125
f 119/119/119 128/128/128 125/125/125
f 123/123/123 125/125/125 126/126/126
f 125/125/125 128/128/128 126/126/126
f 134/134/134 131/131/131 127/127/127
f 128/128/128 130/130/130 126/126/126
f 135/135/135 129/129/129 118/118/118
f 138/138/138 134/134/134 136/136/136
f 135/135/135 141/141/141 137/137/137
f 120/120/120 135/135/135 118/118/118
f 135/135/135 120/120/120 141/141/141
f 134/134/134 138/138/138 131/131/131
f 137/137/137 141/141/141 142/142/142
f 141/141/141 146/146/146 142/142/142
f 141/141/141 120/120/120 147/147/147
f 141/141/141 147/147/147 145/145/145
f 145/145/145 146/146/146 141/141/141
f 147/147/147 150/150/150 145/145/145
f 147/147/147 113/113/113 153/153/153
f 120/120/120 113/113/113 147/147/147
f 148/148/148 147/147/147 153/153/153
f 147/147/147 148/148/148 150/150/150
f 151/151/151 111/111/111 154/154/154
f 157/157/157 152/152/152 156/156/156
f 157/157/157 149/149/149 152/152/152
f 113/113/113 110/110/110 153/153/153
f 160/160/160 149/149/149 157/157/157
f 158/158/158 159/159/159 165/165/165
f 155/155/155 159/159/159 158/158/158
f 160/160/160 157/157/157 161/161/161
f 158/158/158 165/165/165 163/163/163
f 164/164/164 167/167/167 47/47/47
f 36/36/36 164/164/164 47/47/47
f 36/36/36 166/166/166 164/164/164
f 166/166/166 162/162/162 164/164/164
f 167/167/167 164/164/164 168/168/168
f 165/165/165 159/159/159 169/169/169
f 169/169/169 170/170/170 103/103/103
f 170/170/170 169/169/169 159/159/159
f 173/173/173 169/169/169 103/103/103
f 46/46/46 168/168/168 172/172/172
f 46/46/46 167/167/167 168/168/168
f 172/172/172 59/59/59 46/46/46
f 172/172/172 60/60/60 59/59/59
f 172/172/172 93/93/93 60/60/60
f 174/174/174 104/104/104 95/95/95
f 171/171/171 105/105/105 104/104/104
f 154/154/154 105/105/105 171/171/171
f 155/155/155 170/170/170 159/159/159
f 46/46/46 47/47/47 167/167/167
f 175/175/175 166/166/166 30/30/30
f 30/30/30 166/166/166 34/34/34
f 34/34/34 166/166/166 36/36/36
f 166/166/166 175/175/175 162/162/162
f 176/176/176 182/182/182 178/178/178
f 176/176/176 178/178/178 184/184/184
f 181/181/181 179/179/179 176/176/176
f 179/179/179 182/182/182 176/176/176
f 162/162/162 175/175/175 186/186/186
f 175/175/175 30/30/30 180/180/180
f 176/176/176 184/184/184 191/191/191
f 191/191/191 189/189/189 176/176/176
f 184/184/184 194/194/194 191/191/191
f 196/196/196 190/190/190 193/193/193
f 196/196/196 197/197/197 190/190/190
f 197/197/197 188/188/188 190/190/190
f 160/160/160 187/187/187 198/198/198
f 199/199/199 198/198/198 195/195/195
f 199/199/199 160/160/160 198/198/198
f 185/185/185 200/200/200 203/203/203
f 150/150/150 200/200/200 185/185/185
f 148/148/148 200/200/200 150/150/150
f 149/149/149 160/160/160 199/199/199
f 201/201/201 199/199/199 195/195/195
f 203/203/203 192/192/192 185/185/185
f 193/193/193 202/202/202 196/196/196
f 161/161/161 187/187/187 160/160/160
f 150/150/150 185/185/185 177/177/177
f 179/179/179 206/206/206 182/182/182
f 204/204/204 177/177/177 183/183/183
f 207/207/207 205/205/205 26/26/26
f 27/27/27 206/206/206 179/179/179
f 210/210/210 204/204/204 208/208/208
f 150/150/150 177/177/177 204/204/204
f 150/150/150 204/204/204 210/210/210
f 213/213/213 211/211/211 210/210/210
f 145/145/145 210/210/210 211/211/211
f 145/145/145 150/150/150 210/210/210
f 210/210/210 208/208/208 213/213/213
f 214/214/214 212/212/212 13/13/13
f 215/215/215 211/211/211 213/213/213
f 209/209/209 216/216/216 212/212/212
f 212/212/212 216/216/216 13/13/13
f 217/217/217 207/207/207 25/25/25
f 217/217/217 25/25/25 14/14/14
f 218/218/218 143/143/143 214/214/214
f 214/214/214 16/16/16 218/218/218
f 215/215/215 142/142/142 146/146/146
f 146/146/146 211/211/211 215/215/215
f 13/13/13 16/16/16 214/214/214
f 8/8/8 220/220/220 15/15/15
f 219/219/219 221/221/221 144/144/144
f 220/220/220 8/8/8 3/3/3
f 3/3/3 223/223/223 220/220/220
f 136/136/136 221/221/221 225/225/225
f 7/7/7 224/224/224 222/222/222
f 4/4/4 7/7/7 222/222/222
f 136/136/136 144/144/144 221/221/221
f 225/225/225 138/138/138 136/136/136
f 227/227/227 139/139/139 224/224/224
f 7/7/7 227/227/227 224/224/224
f 231/231/231 229/229/229 226/226/226
f 240/240/240 227/227/227 228/228/228
f 6/6/6 231/231/231 226/226/226
f 237/237/237 139/139/139 227/227/227
f 7/7/7 232/232/232 227/227/227
f 6/6/6 226/226/226 232/232/232
f 240/240/240 237/237/237 227/227/227
f 235/235/235 238/238/238 242/242/242
f 243/243/243 239/239/239 126/126/126
f 126/126/126 239/239/239 230/230/230
f 241/241/241 133/133/133 234/234/234
f 126/126/126 130/130/130 243/243/243
f 233/233/233 132/132/132 244/244/244
f 236/236/236 246/246/246 140/140/140
f 138/138/138 245/245/245 131/131/131
f 6/6/6 232/232/232 7/7/7
f 249/249/249 43/43/43 231/231/231
f 248/248/248 231/231/231 43/43/43
f 248/248/248 229/229/229 231/231/231
f 231/231/231 6/6/6 249/249/249
f 9/9/9 249/249/249 6/6/6
f 250/250/250 251/251/251 39/39/39
f 252/252/252 249/249/249 9/9/9
f 42/42/42 250/250/250 39/39/39
f 40/40/40 251/251/251 255/255/255
f 253/253/253 10/10/10 254/254/254
f 40/40/40 39/39/39 251/251/251
f 5/5/5 254/254/254 10/10/10
f 254/254/254 5/5/5 19/19/19
f 254/254/254 19/19/19 31/31/31
f 41/41/41 254/254/254 31/31/31
f 248/248/248 50/50/50 257/257/257
f 49/49/49 247/247/247 44/44/44
f 229/229/229 248/248/248 259/259/259
f 44/44/44 247/247/247 42/42/42
f 259/259/259 248/248/248 257/257/257
f 256/256/256 124/124/124 260/260/260
f 258/258/258 126/126/126 230/230/230
f 123/123/123 126/126/126 258/258/258
f 124/124/124 256/256/256 54/54/54
f 50/50/50 55/55/55 257/257/257
f 145/145/145 211/211/211 146/146/146
f 24/24/24 25/25/25 207/207/207
f 24/24/24 207/207/207 26/26/26
f 263/263/263 180/180/180 30/30/30
f 181/181/181 261/261/261 179/179/179
f 27/27/27 179/179/179 261/261/261
f 26/26/26 262/262/262 22/22/22
f 23/23/23 263/263/263 30/30/30
f 111/111/111 105/105/105 154/154/154
f 124/124/124 54/54/54 65/65/65
f 108/108/108 264/264/264 100/100/100
f 101/101/101 108/108/108 100/100/100
f 109/109/109 86/86/86 265/265/265
f 86/86/86 109/109/109 83/83/83
f 109/109/109 78/78/78 77/77/77
f 109/109/109 77/77/77 83/83/83
f 99/99/99 266/266/266 85/85/85
f 59/59/59 51/51/51 46/46/46
f 47/47/47 37/37/37 36/36/36
f 33/33/33 40/40/40 32/32/32
f 12/12/12 25/25/25 20/20/20
f 25/25/25 12/12/12 14/14/14

