# ('FARMS composite mesh',)
mtllib link_leg_0_L_0_composite.mtl

o link_leg_0_L_0
usemtl link_leg_0_L_0_composite
v -2.27604000 -2.70684000 -1.59686900
v -2.27604000 -2.70684000 -1.59686900
v -2.27604000 -2.70684000 -1.59686900
v -1.81477000 -6.23201500 -0.63777700
v -0.97033300 -5.86706300 -2.46168100
v -0.97033300 -5.86706300 -2.46168100
v -0.97033300 -5.86706300 -2.46168100
v -0.97033300 -5.86706300 -2.46168100
v -0.97033300 -5.86706300 -2.46168100
v -1.12103800 -2.85228800 -2.86117100
v -1.12103800 -2.85228800 -2.86117100
v -1.12103800 -2.85228800 -2.86117100
v -1.12103800 -2.85228800 -2.86117100
v -1.12103800 -2.85228800 -2.86117100
v -2.49395700 -2.09500700 -2.49203500
v -2.49395700 -2.09500700 -2.49203500
v -3.08211200 -1.71440800 -1.77888500
v -3.08211200 -1.71440800 -1.77888500
v -2.82037500 -0.84065900 -3.04340300
v -2.82037500 -0.84065900 -3.04340300
v -2.82037500 -0.84065900 -3.04340300
v 0.08448400 -3.11812800 -2.68551800
v 0.08448400 -3.11812800 -2.68551800
v 1.29031300 -2.85836000 -2.65376300
v 1.29031300 -2.85836000 -2.65376300
v 1.29031300 -2.85836000 -2.65376300
v 1.69916500 -2.83459300 -2.34480800
v 1.69916500 -2.83459300 -2.34480800
v 1.69916500 -2.83459300 -2.34480800
v 1.69916500 -2.83459300 -2.34480800
v 2.61794200 -2.41174800 -1.59426100
v 2.61794200 -2.41174800 -1.59426100
v 1.29290300 -4.92126500 -2.46204100
v 1.29290300 -4.92126500 -2.46204100
v 1.57846700 -5.05465100 -2.16951400
v 1.57846700 -5.05465100 -2.16951400
v 2.00489700 -3.09426400 -0.47612700
v 2.00489700 -3.09426400 -0.47612700
v 2.00489700 -3.09426400 -0.47612700
v 2.88263600 -2.23186700 0.36118200
v 1.91425600 -3.04487100 0.50641700
v 1.91425600 -3.04487100 0.50641700
v 1.91425600 -3.04487100 0.50641700
v 1.91425600 -3.04487100 0.50641700
v 3.35654100 -1.57319500 -0.77584900
v 3.22478900 -1.16482800 -2.07713500
v 3.65314400 -0.14313200 -0.98051200
v 3.39646400 0.65285600 -2.07429200
v 2.84763600 -0.74359600 -3.03971700
v 2.84763600 -0.74359600 -3.03971700
v 2.84763600 -0.74359600 -3.03971700
v -0.74233500 2.52130400 -3.51648200
v -0.74233500 2.52130400 -3.51648200
v -0.74233500 2.52130400 -3.51648200
v -1.12370900 3.17979000 -2.33995300
v -1.12370900 3.17979000 -2.33995300
v 0.37446900 2.58478300 -3.52315200
v 0.37446900 2.58478300 -3.52315200
v 0.37446900 2.58478300 -3.52315200
v 0.37446900 2.58478300 -3.52315200
v 1.56509900 2.79541800 -2.68086200
v 0.14078400 3.54139200 -1.78927800
v 0.93233500 3.43544100 -1.59273300
v 1.64076800 3.34196500 -0.26314700
v 2.21729300 2.80797100 -1.63003100
v 0.22056400 3.72681300 -0.19056300
v 0.83774400 3.38716100 1.15809700
v -1.48222400 3.41074500 -0.72497700
v -1.48222400 3.41074500 -0.72497700
v -0.46207200 3.29700900 1.60263600
v -1.00329900 3.44836100 0.72151800
v -1.00329900 3.44836100 0.72151800
v -1.22205200 2.78301200 2.21704200
v -1.22205200 2.78301200 2.21704200
v -1.22205200 2.78301200 2.21704200
v -2.28853700 2.72825100 0.99269700
v -2.72997900 2.49503500 0.01179100
v -3.15767300 1.48670900 1.17795500
v -3.21725900 1.87216000 -0.65216900
v -3.65736400 0.73143300 -0.55946700
v -3.47853600 0.15701500 1.20041100
v -3.68153000 -0.18145700 -0.15574700
v -3.32015200 -1.11048200 1.02439400
v -2.99938900 -0.22427100 2.21179100
v -2.99938900 -0.22427100 2.21179100
v -2.86634000 0.77747500 2.25690900
v -2.05305500 -0.79738100 3.20584000
v -2.82215900 -1.25036600 2.04088500
v -2.82215900 -1.25036600 2.04088500
v -2.82215900 -1.25036600 2.04088500
v -2.08348800 0.05677200 3.30581800
v -2.04544500 1.01988900 3.13468800
v -2.04544500 1.01988900 3.13468800
v -2.12506700 2.05874700 2.31926600
v -2.12506700 2.05874700 2.31926600
v -0.81240100 1.79477000 3.41835000
v -0.91582300 0.60290100 3.88929300
v -0.95674100 -0.53811100 3.84202900
v 0.31630300 1.05140000 3.87850300
v 0.40486500 0.08904100 4.06196600
v 1.62108100 -0.33482600 3.61079800
v 1.66045100 0.94765200 3.43633000
v 0.20054700 -0.73259400 3.96548200
v 0.56631000 -1.45124900 3.64914600
v 2.22250900 -1.13495600 2.92371300
v 2.22250900 -1.13495600 2.92371300
v 1.45597400 -2.10892800 2.84558900
v 1.45597400 -2.10892800 2.84558900
v 0.06574400 -2.16146800 3.23968200
v 0.06574400 -2.16146800 3.23968200
v 0.06574400 -2.16146800 3.23968200
v 2.13143500 -2.49006600 1.64554900
v 2.13143500 -2.49006600 1.64554900
v 1.66698400 -2.94761700 1.35773000
v 1.66698400 -2.94761700 1.35773000
v 1.66698400 -2.94761700 1.35773000
v 2.78570600 -1.80035100 1.57739700
v 2.69367600 -0.57394900 2.57557900
v 2.69367600 -0.57394900 2.57557900
v 3.33458700 -0.91630100 1.26067200
v 3.25892600 0.68307100 1.59816500
v 2.68620400 0.30636600 2.67876600
v 2.68620400 0.30636600 2.67876600
v 3.61542200 -0.39737600 0.47562800
v 3.66149900 0.69372200 -0.54145900
v 3.35713900 1.17724600 0.80121700
v 3.25282500 1.82194700 -0.52676900
v 3.25282500 1.82194700 -0.52676900
v 2.77100800 1.93227800 -2.21660000
v 2.77100800 1.93227800 -2.21660000
v 2.53237900 2.71047500 -0.15876300
v 1.99763700 2.78909200 1.33331800
v 2.81172100 1.97409000 1.34373500
v 2.81172100 1.97409000 1.34373500
v 2.38349300 1.74102700 2.37259700
v 2.38349300 1.74102700 2.37259700
v 2.38349300 1.74102700 2.37259700
v 1.25861000 2.53270300 2.50034800
v 1.25861000 2.53270300 2.50034800
v 1.32695800 1.57122300 3.31632100
v 0.22513800 2.44286900 2.98148100
v 0.22513800 2.44286900 2.98148100
v 0.32830100 3.11571700 1.96643000
v 2.32707100 1.54558800 -3.30524700
v 2.32707100 1.54558800 -3.30524700
v 2.32707100 1.54558800 -3.30524700
v 2.32707100 1.54558800 -3.30524700
v 2.32707100 1.54558800 -3.30524700
v 2.32707100 1.54558800 -3.30524700
v 2.86289200 0.38356000 -3.16049900
v 2.86289200 0.38356000 -3.16049900
v 1.75119300 -5.55493600 0.62009400
v 1.75119300 -5.55493600 0.62009400
v 1.35136700 -6.40989900 2.22796500
v 1.35136700 -6.40989900 2.22796500
v 0.52134500 -2.87467200 2.31239000
v 0.52134500 -2.87467200 2.31239000
v 0.52134500 -2.87467200 2.31239000
v 0.64167300 -6.34310000 2.64809800
v -0.14421900 -5.03510500 2.53427400
v -0.45555600 -6.87346500 2.52872100
v -0.91697000 -5.52505800 2.01729600
v -0.91697000 -5.52505800 2.01729600
v -1.27810500 -3.07957900 1.50814700
v -1.27810500 -3.07957900 1.50814700
v -1.80119000 -3.00940300 0.89515000
v -1.80119000 -3.00940300 0.89515000
v -1.80119000 -3.00940300 0.89515000
v -1.05131900 -2.49896700 2.63368700
v -1.05131900 -2.49896700 2.63368700
v -2.62693200 -2.26121700 1.17584700
v -2.62693200 -2.26121700 1.17584700
v -2.11809200 -1.85327500 2.51372700
v -2.11809200 -1.85327500 2.51372700
v -0.97980900 -1.45722300 3.52195700
v -2.16915500 -2.95673500 -0.01087900
v -2.16915500 -2.95673500 -0.01087900
v -3.02569000 -2.12483000 -0.24275600
v -3.02569000 -2.12483000 -0.24275600
v -3.50809800 -1.16326800 -0.40779200
v -3.56076800 -0.37480400 -1.55538200
v -3.23484800 -0.08659100 -2.57162800
v -3.19833200 1.08229600 -2.26840300
v -2.87659800 0.09618600 -3.13719500
v -2.87659800 0.09618600 -3.13719500
v -2.87659800 0.09618600 -3.13719500
v -2.87659800 0.09618600 -3.13719500
v -2.50586000 1.24873500 -3.27812400
v -2.50586000 1.24873500 -3.27812400
v -1.66775000 2.12239600 -3.41628300
v -1.66775000 2.12239600 -3.41628300
v -1.66775000 2.12239600 -3.41628300
v -1.66775000 2.12239600 -3.41628300
v -1.66775000 2.12239600 -3.41628300
v -1.66775000 2.12239600 -3.41628300
v -1.66775000 2.12239600 -3.41628300
v -2.67685300 1.99331500 -2.33553900
v -2.24534600 2.70284500 -1.86308700
v -1.46854500 -5.87980700 1.20549800
v -1.81297000 -6.30354400 0.29809700
v -1.99073100 -7.19380900 -0.18127100
v -1.60900200 -7.42275100 1.47897500
v -1.60900200 -7.42275100 1.47897500
v -1.41459000 -9.20737600 -0.34767700
v -1.41459000 -9.20737600 -0.34767700
v -1.41459000 -9.20737600 -0.34767700
v -1.41459000 -9.20737600 -0.34767700
v -0.14385700 -9.69003500 1.52975700
v -0.88942100 -10.01816500 0.83192900
v -0.88942100 -10.01816500 0.83192900
v -0.88942100 -10.01816500 0.83192900
v -0.81038800 -10.35675000 -0.06154000
v -0.81038800 -10.35675000 -0.06154000
v -0.81038800 -10.35675000 -0.06154000
v -0.04989000 -10.67192400 0.49237200
v -0.04989000 -10.67192400 0.49237200
v -0.04989000 -10.67192400 0.49237200
v -0.04989000 -10.67192400 0.49237200
v -0.20155100 -10.66902400 -0.30555000
v -0.20155100 -10.66902400 -0.30555000
v -0.20155100 -10.66902400 -0.30555000
v -0.20155100 -10.66902400 -0.30555000
v -0.20155100 -10.66902400 -0.30555000
v 0.25947400 -10.61581900 -0.10532500
v 0.25947400 -10.61581900 -0.10532500
v 0.25947400 -10.61581900 -0.10532500
v 0.88413100 -9.85207200 -0.47095200
v 0.89450700 -10.01399600 0.40285100
v 0.89450700 -10.01399600 0.40285100
v 1.33929700 -8.79893400 -0.90228600
v 1.33929700 -8.79893400 -0.90228600
v 0.72067100 -9.51083900 1.32415100
v 0.72067100 -9.51083900 1.32415100
v 0.72067100 -9.51083900 1.32415100
v 1.81298700 -7.59937400 0.81245800
v 1.12636800 -7.54162800 -0.96714700
v -1.53669400 -6.75533800 -1.63510100
v -1.53669400 -6.75533800 -1.63510100
v -2.31251800 -1.86446200 -2.95873700
v -2.31251800 -1.86446200 -2.95873700
v -2.31251800 -1.86446200 -2.95873700
v -2.31251800 -1.86446200 -2.95873700
v -2.31251800 -1.86446200 -2.95873700
v -2.31251800 -1.86446200 -2.95873700
v -2.31251800 -1.86446200 -2.95873700
v -0.02652300 -2.99042800 -2.86926800
v -0.02652300 -2.99042800 -2.86926800
v -0.02652300 -2.99042800 -2.86926800
v 1.08371100 -2.81748400 -2.87864200
v 1.08371100 -2.81748400 -2.87864200
v 1.08371100 -2.81748400 -2.87864200
v 1.08371100 -2.81748400 -2.87864200
v 1.08371100 -2.81748400 -2.87864200
v 1.08371100 -2.81748400 -2.87864200
v 2.31001900 -1.91832900 -2.94609700
v 2.31001900 -1.91832900 -2.94609700
v 2.31001900 -1.91832900 -2.94609700
v 1.52762400 2.19645200 -3.42805300
v 1.52762400 2.19645200 -3.42805300
v -0.52579000 -10.08497000 -0.92088100
v -0.52579000 -10.08497000 -0.92088100
v -0.52579000 -10.08497000 -0.92088100
v -0.52579000 -10.08497000 -0.92088100
v -0.52579000 -10.08497000 -0.92088100
v -0.52579000 -10.08497000 -0.92088100
v 0.37072600 -9.99320000 -0.96566600
v 0.37072600 -9.99320000 -0.96566600
v 0.37072600 -9.99320000 -0.96566600
v 0.37072600 -9.99320000 -0.96566600
v 0.37072600 -9.99320000 -0.96566600
v 0.62655000 -7.98560200 -1.68943500
v 0.62655000 -7.98560200 -1.68943500
v 0.62655000 -7.98560200 -1.68943500
v 0.62655000 -7.98560200 -1.68943500
v 1.01375200 -6.37325600 -2.27064100
v 1.01375200 -6.37325600 -2.27064100
v 1.01375200 -6.37325600 -2.27064100
v 1.01375200 -6.37325600 -2.27064100
v 1.01375200 -6.37325600 -2.27064100
v -0.97754700 -8.53041400 -1.47532900
v -0.97754700 -8.53041400 -1.47532900
v -0.97754700 -8.53041400 -1.47532900
v -0.97754700 -8.53041400 -1.47532900
vn -0.97957916 -0.16095879 -0.12048627
vn -0.73964188 -0.12461158 -0.66136362
vn -0.67582755 -0.70033274 -0.22976329
vn -0.98075361 -0.01290905 -0.19482224
vn -0.89501540 -0.10068289 -0.43452317
vn -0.68840819 -0.20064318 -0.69701971
vn -0.04370478 -0.34685541 -0.93689979
vn 0.00169955 -0.34134315 -0.93993721
vn 0.06357668 -0.11842685 -0.99092537
vn -0.11065690 -0.84620815 -0.52123586
vn -0.52152162 -0.73094416 -0.44015433
vn -0.02323724 -0.12598250 -0.99176027
vn -0.73964188 -0.12461158 -0.66136362
vn 0.11606161 -0.12477084 -0.98537401
vn -0.78389939 -0.40924011 -0.46693070
vn -0.59542707 -0.69804898 -0.39773638
vn -0.74345532 -0.63965490 -0.19523268
vn -0.88931380 -0.35087765 -0.29326751
vn -0.03970479 -0.10189709 -0.99400227
vn -0.87714077 -0.21276333 -0.43052971
vn -0.78526118 -0.40876857 -0.46505175
vn 0.07259422 -0.10650499 -0.99165859
vn 0.05349471 -0.82003997 -0.56980064
vn 0.60397761 -0.07300193 -0.79365091
vn 0.41436344 -0.74690613 -0.52003285
vn 0.04609570 -0.09238334 -0.99465597
vn 0.62799996 -0.67398493 -0.38905060
vn 0.61531756 -0.07571630 -0.78463452
vn 0.98314643 -0.06688531 -0.17014541
vn 0.49987236 -0.73945084 -0.45093244
vn 0.54077378 -0.81656718 -0.20194494
vn 0.76283902 -0.60906979 -0.21704983
vn 0.04765468 -0.11077924 -0.99270186
vn 0.66793662 -0.14348522 -0.73025520
vn 0.66721244 -0.16470023 -0.72643058
vn 0.94286406 -0.31871732 0.09709084
vn 0.97299274 -0.22986987 0.02109418
vn 0.70786323 -0.70615314 0.01665523
vn 0.54077378 -0.81656718 -0.20194494
vn 0.78901420 -0.60240393 0.12069011
vn 0.63935450 -0.74796996 0.17823233
vn 0.97113384 -0.07336762 -0.22697194
vn 0.93692901 -0.32563118 0.12699751
vn 0.95761606 -0.04935794 0.28378739
vn 0.90070391 -0.43122072 -0.05273667
vn 0.89019544 -0.30972473 -0.33409978
vn 0.98869673 -0.08115003 -0.12606921
vn 0.92557250 0.17371015 -0.33636339
vn 0.00514078 -0.08177939 -0.99663720
vn 0.03543404 -0.10719392 -0.99360651
vn 0.87340341 -0.20319191 -0.44258279
vn 0.00922725 -0.26368828 -0.96456381
vn -0.38137752 0.74847143 -0.54253268
vn -0.05210727 0.86414414 -0.50053945
vn -0.46750103 0.78805699 -0.40051088
vn -0.11074738 0.92517289 -0.36302911
vn 0.10167197 0.85243942 -0.51284486
vn 0.03191294 -0.14732720 -0.98857284
vn 0.00922725 -0.26368828 -0.96456381
vn -0.00332841 -0.21120877 -0.97743531
vn 0.42016340 0.78417994 -0.45664487
vn 0.02063082 0.95743370 -0.28791506
vn 0.28329703 0.93118297 -0.22943640
vn 0.43010427 0.90245580 0.02416303
vn 0.60686364 0.76147888 -0.22774205
vn 0.04273001 0.99820068 0.04206600
vn 0.22561198 0.93104416 0.28680309
vn -0.54229287 0.83925262 -0.03966716
vn -0.18053176 0.98055141 -0.07698844
vn -0.11195595 0.91966595 0.37640458
vn -0.44325097 0.87095695 0.21204378
vn -0.13978723 0.97289990 0.18418825
vn -0.33336922 0.66915400 0.66415201
vn -0.47914806 0.79023683 0.38202473
vn -0.16621219 0.85408619 0.49285930
vn -0.61254947 0.74621560 0.26066343
vn -0.72581472 0.68530965 0.05952877
vn -0.86446434 0.40656317 0.29564809
vn -0.86180234 0.50381952 -0.05884405
vn -0.97923887 0.20007667 -0.03256635
vn -0.95570594 0.04132415 0.29140773
vn -0.99600065 -0.06836040 0.05752873
vn -0.91333162 -0.31350422 0.25988547
vn -0.87438768 -0.02858301 0.48438538
vn -0.76341278 -0.18959852 0.61745715
vn -0.81283605 0.23619114 0.53245779
vn -0.60850074 -0.25754422 0.75059831
vn -0.74395174 -0.28781701 0.60307312
vn -0.86696255 -0.32194198 0.38043303
vn -0.73609750 -0.51651863 0.43745739
vn -0.62404747 0.01822617 0.78117383
vn -0.72363386 0.39097379 0.56876492
vn -0.56841017 0.29920251 0.76641225
vn -0.45471917 0.57404514 0.68095716
vn -0.68615118 0.55735503 0.46749538
vn -0.24930396 0.54347408 0.80155066
vn -0.28725028 0.17561687 0.94161881
vn -0.29603524 -0.16660531 0.94053485
vn 0.10546082 0.35042162 0.93063564
vn 0.13389595 0.02406461 0.99070317
vn 0.48910967 -0.11336602 0.86482361
vn 0.51024234 0.25754869 0.82056165
vn 0.04919709 -0.25084510 0.96677628
vn 0.19404038 -0.43968430 0.87694130
vn 0.78958601 -0.35063266 0.50359773
vn 0.59088790 -0.35388877 0.72499257
vn 0.31993108 -0.76120336 0.56410420
vn 0.49263108 -0.51116164 0.70429283
vn -0.07340306 -0.80762954 0.58510385
vn 0.21417007 -0.72059221 0.65945284
vn -0.02040666 -0.56540548 0.82456062
vn 0.53468064 -0.75784086 0.37389016
vn 0.67088672 -0.58992830 0.44932796
vn 0.96305891 -0.04405454 0.26566281
vn 0.63951113 0.13206187 0.75735407
vn 0.50551539 -0.77579752 0.37761408
vn 0.76868036 -0.50115546 0.39745906
vn 0.85280350 -0.20465157 0.48046219
vn 0.68033751 -0.09464384 0.72676229
vn 0.91568954 -0.25501290 0.31061404
vn 0.90783907 0.16519806 0.38540606
vn 0.67467868 0.09200372 0.73235510
vn 0.86714644 0.08790443 0.49023449
vn 0.98156461 -0.11605759 0.15186031
vn 0.98255388 0.18515286 -0.01750116
vn 0.92853808 0.30887287 0.20594801
vn 0.92248069 0.38410887 -0.03859724
vn 0.78097582 0.62368469 -0.03307825
vn 0.85633945 0.37045677 -0.35978401
vn 0.68997677 0.63492601 -0.34756441
vn 0.68910038 0.72294114 0.04996770
vn 0.54002176 0.77605992 0.32574145
vn 0.69659593 0.65623850 0.29000887
vn 0.85352652 0.40425710 0.32873801
vn 0.58673582 0.66877805 0.45659282
vn 0.58752537 0.43835152 0.68019254
vn 0.81715850 0.33047320 0.47227053
vn 0.37948870 0.61418839 0.69192554
vn 0.35632569 0.79401281 0.49251970
vn 0.37589998 0.49771035 0.78165441
vn 0.06353512 0.63235875 0.77206587
vn 0.04555101 0.83050418 0.55514674
vn 0.08990159 0.87147611 0.48212767
vn 0.03565402 -0.10714362 -0.99360406
vn 0.61145843 0.61901639 -0.49288669
vn 0.01306835 -0.10099212 -0.99480139
vn 0.82931434 0.32586005 -0.45393056
vn -0.00332841 -0.21120877 -0.97743531
vn 0.03191294 -0.14732720 -0.98857284
vn 0.03644222 -0.10696331 -0.99359489
vn 0.87822512 0.13817992 -0.45785036
vn 0.96935581 -0.00599937 0.24558769
vn 0.96567243 -0.05678960 -0.25347920
vn 0.51562859 -0.11059139 0.84964504
vn 0.94106564 -0.07262739 0.33033425
vn -0.09051078 -0.83845157 0.53740744
vn 0.16783560 0.18548550 0.96820780
vn 0.29422122 -0.76137539 0.57770355
vn 0.24339397 -0.10107622 0.96464655
vn -0.30096676 0.10577434 0.94775039
vn -0.34924369 -0.15522906 0.92408484
vn -0.83460278 0.04052783 0.54935935
vn -0.62524132 0.07558601 0.77676254
vn -0.42757418 -0.77720065 0.46167032
vn -0.64621965 0.09327455 0.75742988
vn -0.58006689 -0.75495479 0.30588505
vn -0.91113138 -0.06153054 0.40749675
vn -0.75916342 0.02332134 0.65048214
vn -0.33582257 -0.59769536 0.72799963
vn -0.27706973 -0.82044472 0.50010282
vn -0.63140975 -0.70049400 0.33261072
vn -0.84275378 -0.47414445 0.25485898
vn -0.59784694 -0.67456126 0.43306598
vn -0.57226929 -0.45388839 0.68300306
vn -0.29572618 -0.45646986 0.83915511
vn -0.97766759 -0.09529570 0.18730943
vn -0.68028170 -0.72864592 0.07932168
vn -0.71786524 -0.69601320 -0.01533359
vn -0.88551038 -0.45986064 0.06632910
vn -0.94779790 -0.31887167 0.00001654
vn -0.96795873 -0.10743744 -0.22696496
vn -0.90783679 -0.03843523 -0.41755850
vn -0.89014919 0.28841244 -0.35277852
vn -0.05246338 -0.10547985 -0.99303655
vn -0.05585177 -0.10346211 -0.99306403
vn -0.84290918 0.07154062 -0.53327858
vn -0.03970479 -0.10189709 -0.99400227
vn -0.05585177 -0.10346211 -0.99306403
vn -0.75453836 0.39256233 -0.52589607
vn -0.00332841 -0.21120877 -0.97743531
vn -0.00819345 -0.11270341 -0.99359489
vn -0.05585177 -0.10346211 -0.99306403
vn -0.52466541 0.67821693 -0.51453669
vn 0.00922725 -0.26368828 -0.96456381
vn -0.05246338 -0.10547985 -0.99303655
vn 0.01306835 -0.10099212 -0.99480139
vn -0.73774598 0.55612331 -0.38269797
vn -0.61653463 0.73907420 -0.27139342
vn -0.89434980 0.05090766 0.44446242
vn -0.98197824 0.03863398 0.18500312
vn -0.99481058 -0.08942860 -0.04852245
vn -0.59773430 -0.22532176 0.76937885
vn -0.95939052 -0.07090893 0.27302335
vn -0.76088525 -0.50225999 -0.41083882
vn -0.74346055 -0.40568179 -0.53168476
vn -0.92653873 -0.33582960 0.16954190
vn -0.86256674 -0.26820023 -0.42900730
vn -0.10303148 -0.53524378 0.83839049
vn -0.43015004 -0.54812100 0.71731047
vn -0.52540849 -0.80999835 0.26047762
vn -0.91487330 -0.37502725 0.14953732
vn -0.66578645 -0.61919388 -0.41632600
vn -0.48688491 -0.85420175 0.18243478
vn -0.89061395 -0.44573822 0.09013450
vn -0.04835443 -0.72759951 0.68429584
vn 0.56057725 -0.75987085 0.32916476
vn -0.48428635 -0.85672971 0.17742867
vn 0.12643764 -0.99158952 -0.02763587
vn 0.12643764 -0.99158952 -0.02763587
vn -0.42989888 -0.89946308 0.07844182
vn -0.54106455 -0.73359548 -0.41120169
vn 0.03825981 -0.71462466 -0.69846101
vn 0.32006487 -0.78667574 -0.52792022
vn 0.48792804 -0.85831602 -0.15880758
vn 0.12643764 -0.99158952 -0.02763587
vn 0.68170229 -0.68305191 -0.26214895
vn 0.76861602 -0.56322427 -0.30332794
vn 0.54662321 -0.72843014 0.41302858
vn 0.87235036 -0.48686224 0.04438480
vn 0.93022860 -0.20077583 -0.30718695
vn 0.48478370 -0.35064463 -0.80126968
vn 0.53137546 -0.69728443 0.48107644
vn 0.83469983 -0.36710343 0.41050124
vn 0.31089573 -0.48415208 0.81788789
vn 0.97520831 -0.16850113 0.14344376
vn 0.89880475 -0.04024265 -0.43649805
vn -0.92615373 0.03334567 -0.37566919
vn -0.63779648 -0.26596574 -0.72282631
vn -0.75811311 -0.41749027 -0.50096545
vn -0.51411720 -0.67267050 -0.53216342
vn -0.05246338 -0.10547985 -0.99303655
vn -0.02323724 -0.12598250 -0.99176027
vn -0.00819345 -0.11270341 -0.99359489
vn 0.00298104 -0.07319402 -0.99731327
vn -0.03970479 -0.10189709 -0.99400227
vn 0.00298104 -0.07319402 -0.99731327
vn -0.02323724 -0.12598250 -0.99176027
vn -0.02772403 -0.82862481 -0.55911743
vn 0.29370128 -0.84461461 -0.44762230
vn 0.00298104 -0.07319402 -0.99731327
vn 0.00514078 -0.08177939 -0.99663720
vn -0.00819345 -0.11270341 -0.99359489
vn 0.01306835 -0.10099212 -0.99480139
vn 0.03532674 -0.10721846 -0.99360768
vn 0.73438030 -0.54028747 -0.41082237
vn 0.00514078 -0.08177939 -0.99663720
vn 0.46783730 -0.68222300 -0.56187190
vn 0.46336290 0.67994721 -0.56830152
vn 0.03191294 -0.14732720 -0.98857284
vn 0.03825981 -0.71462466 -0.69846101
vn -0.00113207 -0.34322760 -0.93925158
vn -0.67971400 -0.60400408 -0.41613454
vn -0.74346055 -0.40568179 -0.53168476
vn -0.01244561 -0.33771810 -0.94116502
vn -0.04370478 -0.34685541 -0.93689979
vn -0.01244561 -0.33771810 -0.94116502
vn 0.03825981 -0.71462466 -0.69846101
vn 0.48478370 -0.35064463 -0.80126968
vn 0.62817374 -0.61516071 -0.47641898
vn 0.32006487 -0.78667574 -0.52792022
vn 0.85236294 -0.13973772 -0.50393530
vn -0.01244561 -0.33771810 -0.94116502
vn 0.00030800 -0.34226974 -0.93960169
vn 0.48478370 -0.35064463 -0.80126968
vn 0.94897963 -0.17649239 -0.26131992
vn 0.05901912 -0.14160522 -0.98816229
vn 0.64579585 -0.22051295 -0.73097316
vn 0.89778352 -0.39882343 0.18688132
vn 0.00382828 -0.33992376 -0.94044520
vn -0.74346055 -0.40568179 -0.53168476
vn -0.81421178 -0.30115187 -0.49635343
vn -0.63779648 -0.26596574 -0.72282631
vn -0.04370478 -0.34685541 -0.93689979
vt 0.03317600 0.93062800
vt 0.87789300 0.83818200
vt 0.67859100 0.94892300
vt 0.02391700 0.94948000
vt 0.03512600 0.94594000
vt 0.85796600 0.84700800
vt 0.23888800 0.06417600
vt 0.23888800 0.06417600
vt 0.85796600 0.84700800
vt 0.67463100 0.95765000
vt 0.67463100 0.95765000
vt 0.21426600 0.04456300
vt 0.87684700 0.84491000
vt 0.87684700 0.84491000
vt 0.37872000 0.93339500
vt 0.68213800 0.95256800
vt 0.68284500 0.94596900
vt 0.38277800 0.93264600
vt 0.17447900 0.03727600
vt 0.37625800 0.93943200
vt 0.81370700 0.96417200
vt 0.87568600 0.85297600
vt 0.66644900 0.96007000
vt 0.87762300 0.86094300
vt 0.65893500 0.96262600
vt 0.87762300 0.86094300
vt 0.15209400 0.49703300
vt 0.87789300 0.86331200
vt 0.15180700 0.49440100
vt 0.65610400 0.96209800
vt 0.64977500 0.95882200
vt 0.14655800 0.49788200
vt 0.86384900 0.86132400
vt 0.86384900 0.86132400
vt 0.86298100 0.86325900
vt 0.15126400 0.47953900
vt 0.14114100 0.49236600
vt 0.14114100 0.49236600
vt 0.65021700 0.95307100
vt 0.13570900 0.49857300
vt 0.13578300 0.49233000
vt 0.13578300 0.49233000
vt 0.13578300 0.49233000
vt 0.13578300 0.49233000
vt 0.14140700 0.50371900
vt 0.14833900 0.50645200
vt 0.14202300 0.51342000
vt 0.14810400 0.51864200
vt 0.32626800 0.03798200
vt 0.32626800 0.03798200
vt 0.15359900 0.50880100
vt 0.26247800 0.01258900
vt 0.37805000 0.96406600
vt 0.96563800 0.22537900
vt 0.38497000 0.96725900
vt 0.95776500 0.22995700
vt 0.96634700 0.22063400
vt 0.32452800 0.01438800
vt 0.32452800 0.01438800
vt 0.32452800 0.01438800
vt 0.96387600 0.21380100
vt 0.95653700 0.22300200
vt 0.95677900 0.21752300
vt 0.95065000 0.21152100
vt 0.95906500 0.20835400
vt 0.94795600 0.22052800
vt 0.94204500 0.21435000
vt 0.39413600 0.96626300
vt 0.94824800 0.23074700
vt 0.93762900 0.22175300
vt 0.40188400 0.96659900
vt 0.94143800 0.22647300
vt 0.84356800 0.93828500
vt 0.40905700 0.96039300
vt 0.93342600 0.22427600
vt 0.40221200 0.95861400
vt 0.39645200 0.95693800
vt 0.40157400 0.94904200
vt 0.39199500 0.95245900
vt 0.39119000 0.94457900
vt 0.40005400 0.93975300
vt 0.39238000 0.93852500
vt 0.39791500 0.93276700
vt 0.40545200 0.93785600
vt 0.86482300 0.92860900
vt 0.40682500 0.94420700
vt 0.86729200 0.93566900
vt 0.87133200 0.93101500
vt 0.40345400 0.93228100
vt 0.67569100 0.92826200
vt 0.86143200 0.93448500
vt 0.41069400 0.94701800
vt 0.85525300 0.93347100
vt 0.84905100 0.93171500
vt 0.40877600 0.95359700
vt 0.84888900 0.94059500
vt 0.85716900 0.94149300
vt 0.86449000 0.94231200
vt 0.85255800 0.94884400
vt 0.85882300 0.95044800
vt 0.85980900 0.95845700
vt 0.85218500 0.95792900
vt 0.86448900 0.95012600
vt 0.86871400 0.95333700
vt 0.12313400 0.50315900
vt 0.86459900 0.96348200
vt 0.97671300 0.95830400
vt 0.87154100 0.96004100
vt 0.65788500 0.92826200
vt 0.97023900 0.95795800
vt 0.87376300 0.95091900
vt 0.98383700 0.95864100
vt 0.12922000 0.49585200
vt 0.13124100 0.49251500
vt 0.44680500 0.92663300
vt 0.98268400 0.95543300
vt 0.12900100 0.50093700
vt 0.12321800 0.50872400
vt 0.86025200 0.96622600
vt 0.12995700 0.50706600
vt 0.12792600 0.51759400
vt 0.85427300 0.96483600
vt 0.12383700 0.51494500
vt 0.13433400 0.51140400
vt 0.13938300 0.51882500
vt 0.13207500 0.52137500
vt 0.13931100 0.52567100
vt 0.95483800 0.19865100
vt 0.14888800 0.52673500
vt 0.96327400 0.20374900
vt 0.95158200 0.20457400
vt 0.94295700 0.20615500
vt 0.94419100 0.19921000
vt 0.12935800 0.52574500
vt 0.93754800 0.20055500
vt 0.84587200 0.96068800
vt 0.12313400 0.52034100
vt 0.84160400 0.95308000
vt 0.93543200 0.20847100
vt 0.84786700 0.95468100
vt 0.84350600 0.94660400
vt 0.93170100 0.21386400
vt 0.93677800 0.21609200
vt 0.35699900 0.02280900
vt 0.96817100 0.20774500
vt 0.35699900 0.02280900
vt 0.15464400 0.52246700
vt 0.35699900 0.02280900
vt 0.35699900 0.02280900
vt 0.33609400 0.03187800
vt 0.15443700 0.51700200
vt 0.13592200 0.47557400
vt 0.13592200 0.47557400
vt 0.44369900 0.90360900
vt 0.12756900 0.46911800
vt 0.65615100 0.93468600
vt 0.43918900 0.92746400
vt 0.97363100 0.95428800
vt 0.43899600 0.90423800
vt 0.43415500 0.91318500
vt 0.43156300 0.90102100
vt 0.01111400 0.93977700
vt 0.42889800 0.91016200
vt 0.66631000 0.93447400
vt 0.42874200 0.92662400
vt 0.67124400 0.93710300
vt 0.01974200 0.92826200
vt 0.42377500 0.92722900
vt 0.87728400 0.94403900
vt 0.66338600 0.92981800
vt 0.67595300 0.93377900
vt 0.39736800 0.92826200
vt 0.67122900 0.92990900
vt 0.87425200 0.93649300
vt 0.87036700 0.94328500
vt 0.02444000 0.92996400
vt 0.67530200 0.94092800
vt 0.68084400 0.93977700
vt 0.39128000 0.92935600
vt 0.38998600 0.93328200
vt 0.38500100 0.93894600
vt 0.37942500 0.94249100
vt 0.38262800 0.94906100
vt 0.16702000 0.03218300
vt 0.16702000 0.03218300
vt 0.37678500 0.94603400
vt 0.16702000 0.03218300
vt 0.16476600 0.02843500
vt 0.37731300 0.95401000
vt 0.16819600 0.01882400
vt 0.16819600 0.01882400
vt 0.16819600 0.01882400
vt 0.37781500 0.95971500
vt 0.16819600 0.01882400
vt 0.16819600 0.01882400
vt 0.16819600 0.01882400
vt 0.38311800 0.95649600
vt 0.38679600 0.96144400
vt 0.01465400 0.94427400
vt 0.01877100 0.94877700
vt 0.02010200 0.95514500
vt 0.42377500 0.89773300
vt 0.01111400 0.95355700
vt 0.14840700 0.98438600
vt 0.83460100 0.84418700
vt 0.01885400 0.96597600
vt 0.01885400 0.96597600
vt 0.43285200 0.88220200
vt 0.42817700 0.88049700
vt 0.14611100 0.97733400
vt 0.01150700 0.96517100
vt 0.14456900 0.98197500
vt 0.14456900 0.98197500
vt 0.01627900 0.97100600
vt 0.43322200 0.87567500
vt 0.14038400 0.97774600
vt 0.14038400 0.97774600
vt 0.14038400 0.97774600
vt 0.14021500 0.98227300
vt 0.14021500 0.98227300
vt 0.14021500 0.98227300
vt 0.82505900 0.85249800
vt 0.14021500 0.98227300
vt 0.13756300 0.98039900
vt 0.13756300 0.98039900
vt 0.14225200 0.44107100
vt 0.14363900 0.44675700
vt 0.13441500 0.97650200
vt 0.13886500 0.44544300
vt 0.14542800 0.45422900
vt 0.83785100 0.86238000
vt 0.13701200 0.97180600
vt 0.13378200 0.44835200
vt 0.43864800 0.88315900
vt 0.13535400 0.46206400
vt 0.14560300 0.46237300
vt 0.02884000 0.95312100
vt 0.85105300 0.84288700
vt 0.81961100 0.95945500
vt 0.67989700 0.95627500
vt 0.18172900 0.03941600
vt 0.18172900 0.03941600
vt 0.18172900 0.03941600
vt 0.18172900 0.03941600
vt 0.18172900 0.03941600
vt 0.24566900 0.04623800
vt 0.24566900 0.04623800
vt 0.66752000 0.96072300
vt 0.66067200 0.96328800
vt 0.27206900 0.04582700
vt 0.27206900 0.04582700
vt 0.27206900 0.04582700
vt 0.27206900 0.04582700
vt 0.27206900 0.04582700
vt 0.15424700 0.50127200
vt 0.30229100 0.04221000
vt 0.65577600 0.96522100
vt 0.96790100 0.21339900
vt 0.35484200 0.01813300
vt 0.82892600 0.85025600
vt 0.24512800 0.09067000
vt 0.14159600 0.98603900
vt 0.82904200 0.85016600
vt 0.24512800 0.09067000
vt 0.24512800 0.09067000
vt 0.25451700 0.08988000
vt 0.82930500 0.85520400
vt 0.83170400 0.85717300
vt 0.14675600 0.44583200
vt 0.13627000 0.98473500
vt 0.14998300 0.45924000
vt 0.25870400 0.07755600
vt 0.25870400 0.07755600
vt 0.84059000 0.85867600
vt 0.15242100 0.47026000
vt 0.85523300 0.86013100
vt 0.85523300 0.86013100
vt 0.15242100 0.47026000
vt 0.26571500 0.06763900
vt 0.83643800 0.84759200
vt 0.02613700 0.96209200
vt 0.84224300 0.84652700
vt 0.23937300 0.08110700
f 202/202/202 208/208/208 161/161/161
f 203/203/203 206/206/206 211/211/211
f 211/211/211 206/206/206 214/214/214
f 210/210/210 213/213/213 217/217/217
f 213/213/213 220/220/220 217/217/217
f 218/218/218 219/219/219 225/225/225
f 229/229/229 226/226/226 227/227/227
f 216/216/216 224/224/224 228/228/228
f 229/229/229 227/227/227 230/230/230
f 229/229/229 230/230/230 235/235/235
f 233/233/233 229/229/229 235/235/235
f 232/232/232 216/216/216 228/228/228
f 233/233/233 235/235/235 155/155/155
f 208/208/208 215/215/215 234/234/234
f 234/234/234 154/154/154 159/159/159
f 234/234/234 159/159/159 208/208/208
f 227/227/227 269/269/269 230/230/230
f 274/274/274 231/231/231 268/268/268
f 35/35/35 277/277/277 34/34/34
f 238/238/238 6/6/6 282/282/282
f 280/280/280 263/263/263 205/205/205
f 201/201/201 237/237/237 207/207/207
f 208/208/208 209/209/209 215/215/215
f 159/159/159 161/161/161 208/208/208
f 212/212/212 204/204/204 262/262/262
f 262/262/262 221/221/221 212/212/212
f 224/224/224 223/223/223 270/270/270
f 222/222/222 260/260/260 267/267/267
f 227/227/227 226/226/226 269/269/269
f 207/207/207 237/237/237 281/281/281
f 202/202/202 209/209/209 208/208/208
f 203/203/203 201/201/201 206/206/206
f 4/4/4 1/1/1 5/5/5
f 13/13/13 6/6/6 2/2/2
f 3/3/3 16/16/16 11/11/11
f 3/3/3 17/17/17 16/16/16
f 23/23/23 248/248/248 249/249/249
f 118/118/118 117/117/117 120/120/120
f 255/255/255 32/32/32 27/27/27
f 24/24/24 28/28/28 34/34/34
f 34/34/34 28/28/28 35/35/35
f 37/37/37 36/36/36 29/29/29
f 39/39/39 30/30/30 31/31/31
f 36/36/36 37/37/37 43/43/43
f 40/40/40 38/38/38 45/45/45
f 40/40/40 41/41/41 38/38/38
f 38/38/38 32/32/32 45/45/45
f 46/46/46 45/45/45 32/32/32
f 47/47/47 45/45/45 46/46/46
f 48/48/48 47/47/47 46/46/46
f 75/75/75 143/143/143 70/70/70
f 46/46/46 255/255/255 51/51/51
f 91/91/91 86/86/86 84/84/84
f 64/64/64 63/63/63 66/66/66
f 65/65/65 63/63/63 64/64/64
f 63/63/63 65/65/65 61/61/61
f 62/62/62 66/66/66 63/63/63
f 66/66/66 67/67/67 64/64/64
f 66/66/66 69/69/69 72/72/72
f 62/62/62 69/69/69 66/66/66
f 40/40/40 124/124/124 120/120/120
f 70/70/70 72/72/72 75/75/75
f 71/71/71 76/76/76 74/74/74
f 68/68/68 76/76/76 71/71/71
f 68/68/68 77/77/77 76/76/76
f 78/78/78 76/76/76 77/77/77
f 79/79/79 78/78/78 77/77/77
f 80/80/80 78/78/78 79/79/79
f 81/81/81 78/78/78 80/80/80
f 82/82/82 81/81/81 80/80/80
f 171/171/171 164/164/164 170/170/170
f 112/112/112 41/41/41 40/40/40
f 84/84/84 86/86/86 81/81/81
f 65/65/65 128/128/128 130/130/130
f 87/87/87 91/91/91 85/85/85
f 85/85/85 88/88/88 87/87/87
f 93/93/93 96/96/96 94/94/94
f 96/96/96 93/93/93 97/97/97
f 91/91/91 97/97/97 93/93/93
f 196/196/196 146/146/146 253/253/253
f 96/96/96 97/97/97 99/99/99
f 100/100/100 99/99/99 97/97/97
f 102/102/102 99/99/99 100/100/100
f 100/100/100 101/101/101 102/102/102
f 83/83/83 82/82/82 180/180/180
f 104/104/104 175/175/175 111/111/111
f 108/108/108 104/104/104 111/111/111
f 33/33/33 9/9/9 22/22/22
f 72/72/72 67/67/67 66/66/66
f 113/113/113 40/40/40 117/117/117
f 160/160/160 163/163/163 161/161/161
f 121/121/121 120/120/120 124/124/124
f 106/106/106 104/104/104 108/108/108
f 127/127/127 126/126/126 125/125/125
f 124/124/124 47/47/47 125/125/125
f 48/48/48 125/125/125 47/47/47
f 125/125/125 48/48/48 127/127/127
f 107/107/107 116/116/116 112/112/112
f 129/129/129 127/127/127 48/48/48
f 65/65/65 64/64/64 131/131/131
f 131/131/131 64/64/64 132/132/132
f 131/131/131 132/132/132 133/133/133
f 133/133/133 128/128/128 131/131/131
f 134/134/134 121/121/121 126/126/126
f 127/127/127 134/134/134 126/126/126
f 123/123/123 121/121/121 137/137/137
f 134/134/134 137/137/137 121/121/121
f 102/102/102 122/122/122 136/136/136
f 181/181/181 183/183/183 182/182/182
f 102/102/102 101/101/101 122/122/122
f 135/135/135 132/132/132 139/139/139
f 140/140/140 136/136/136 138/138/138
f 135/135/135 133/133/133 132/132/132
f 102/102/102 136/136/136 140/140/140
f 99/99/99 102/102/102 140/140/140
f 140/140/140 141/141/141 99/99/99
f 138/138/138 141/141/141 140/140/140
f 96/96/96 99/99/99 141/141/141
f 139/139/139 143/143/143 142/142/142
f 152/152/152 114/114/114 155/155/155
f 73/73/73 96/96/96 141/141/141
f 96/96/96 73/73/73 94/94/94
f 139/139/139 67/67/67 143/143/143
f 143/143/143 67/67/67 70/70/70
f 132/132/132 67/67/67 139/139/139
f 132/132/132 64/64/64 67/67/67
f 4/4/4 176/176/176 1/1/1
f 65/65/65 130/130/130 61/61/61
f 51/51/51 48/48/48 46/46/46
f 124/124/124 45/45/45 47/47/47
f 120/120/120 117/117/117 40/40/40
f 145/145/145 61/61/61 130/130/130
f 154/154/154 115/115/115 157/157/157
f 159/159/159 154/154/154 157/157/157
f 157/157/157 160/160/160 159/159/159
f 57/57/57 56/56/56 62/62/62
f 160/160/160 161/161/161 159/159/159
f 160/160/160 157/157/157 165/165/165
f 165/165/165 168/168/168 163/163/163
f 164/164/164 156/156/156 170/170/170
f 100/100/100 98/98/98 103/103/103
f 61/61/61 62/62/62 63/63/63
f 171/171/171 173/173/173 90/90/90
f 175/175/175 87/87/87 174/174/174
f 175/175/175 174/174/174 169/169/169
f 174/174/174 87/87/87 88/88/88
f 111/111/111 175/175/175 169/169/169
f 257/257/257 25/25/25 249/249/249
f 170/170/170 156/156/156 109/109/109
f 103/103/103 98/98/98 175/175/175
f 98/98/98 87/87/87 175/175/175
f 91/91/91 87/87/87 98/98/98
f 89/89/89 83/83/83 172/172/172
f 83/83/83 179/179/179 172/172/172
f 171/171/171 178/178/178 177/177/177
f 180/180/180 179/179/179 83/83/83
f 18/18/18 179/179/179 180/180/180
f 3/3/3 178/178/178 17/17/17
f 178/178/178 3/3/3 177/177/177
f 180/180/180 181/181/181 18/18/18
f 181/181/181 180/180/180 82/82/82
f 113/113/113 106/106/106 108/108/108
f 103/103/103 101/101/101 100/100/100
f 182/182/182 186/186/186 20/20/20
f 83/83/83 84/84/84 81/81/81
f 197/197/197 193/193/193 189/189/189
f 183/183/183 197/197/197 189/189/189
f 198/198/198 193/193/193 197/197/197
f 79/79/79 197/197/197 183/183/183
f 79/79/79 183/183/183 80/80/80
f 198/198/198 197/197/197 79/79/79
f 198/198/198 79/79/79 77/77/77
f 68/68/68 198/198/198 77/77/77
f 198/198/198 68/68/68 55/55/55
f 198/198/198 55/55/55 193/193/193
f 193/193/193 55/55/55 53/53/53
f 82/82/82 80/80/80 181/181/181
f 121/121/121 118/118/118 120/120/120
f 153/153/153 275/275/275 42/42/42
f 166/166/166 171/171/171 177/177/177
f 200/200/200 4/4/4 201/201/201
f 203/203/203 200/200/200 201/201/201
f 203/203/203 199/199/199 200/200/200
f 151/151/151 129/129/129 48/48/48
f 163/163/163 202/202/202 161/161/161
f 203/203/203 162/162/162 199/199/199
f 235/235/235 230/230/230 153/153/153
f 155/155/155 235/235/235 152/152/152
f 230/230/230 236/236/236 153/153/153
f 275/275/275 236/236/236 271/271/271
f 183/183/183 186/186/186 182/182/182
f 201/201/201 4/4/4 237/237/237
f 4/4/4 5/5/5 237/237/237
f 162/162/162 167/167/167 199/199/199
f 98/98/98 97/97/97 91/91/91
f 92/92/92 95/95/95 86/86/86
f 78/78/78 95/95/95 76/76/76
f 78/78/78 86/86/86 95/95/95
f 86/86/86 78/78/78 81/81/81
f 76/76/76 95/95/95 74/74/74
f 56/56/56 69/69/69 62/62/62
f 176/176/176 199/199/199 167/167/167
f 21/21/21 15/15/15 18/18/18
f 273/273/273 261/261/261 8/8/8
f 11/11/11 16/16/16 240/240/240
f 25/25/25 23/23/23 249/249/249
f 46/46/46 32/32/32 255/255/255
f 61/61/61 258/258/258 57/57/57
f 158/158/158 107/107/107 110/110/110
f 236/236/236 230/230/230 271/271/271
f 36/36/36 43/43/43 278/278/278
f 248/248/248 23/23/23 10/10/10
f 126/126/126 124/124/124 125/125/125
f 182/182/182 18/18/18 181/181/181
f 119/119/119 101/101/101 106/106/106
f 118/118/118 105/105/105 117/117/117
f 75/75/75 142/142/142 143/143/143
f 91/91/91 93/93/93 86/86/86
f 40/40/40 45/45/45 124/124/124
f 170/170/170 173/173/173 171/171/171
f 171/171/171 166/166/166 164/164/164
f 112/112/112 116/116/116 41/41/41
f 65/65/65 131/131/131 128/128/128
f 247/247/247 12/12/12 242/242/242
f 245/245/245 19/19/19 187/187/187
f 185/185/185 188/188/188 192/192/192
f 194/194/194 52/52/52 59/59/59
f 58/58/58 259/259/259 149/149/149
f 144/144/144 150/150/150 50/50/50
f 49/49/49 256/256/256 251/251/251
f 250/250/250 246/246/246 244/244/244
f 241/241/241 184/184/184 195/195/195
f 190/190/190 60/60/60 148/148/148
f 144/144/144 50/50/50 254/254/254
f 252/252/252 243/243/243 191/191/191
f 83/83/83 81/81/81 82/82/82
f 104/104/104 103/103/103 175/175/175
f 22/22/22 26/26/26 33/33/33
f 33/33/33 276/276/276 9/9/9
f 9/9/9 14/14/14 22/22/22
f 72/72/72 70/70/70 67/67/67
f 160/160/160 165/165/165 163/163/163
f 106/106/106 101/101/101 104/104/104
f 107/107/107 158/158/158 116/116/116
f 181/181/181 80/80/80 183/183/183
f 152/152/152 44/44/44 114/114/114
f 4/4/4 200/200/200 176/176/176
f 51/51/51 151/151/151 48/48/48
f 145/145/145 258/258/258 61/61/61
f 57/57/57 54/54/54 56/56/56
f 100/100/100 97/97/97 98/98/98
f 61/61/61 57/57/57 62/62/62
f 257/257/257 30/30/30 25/25/25
f 113/113/113 117/117/117 106/106/106
f 103/103/103 104/104/104 101/101/101
f 83/83/83 89/89/89 84/84/84
f 121/121/121 123/123/123 118/118/118
f 153/153/153 236/236/236 275/275/275
f 151/151/151 147/147/147 129/129/129
f 183/183/183 189/189/189 186/186/186
f 176/176/176 200/200/200 199/199/199
f 21/21/21 239/239/239 15/15/15
f 8/8/8 279/279/279 273/273/273
f 272/272/272 266/266/266 264/264/264
f 265/265/265 283/283/283 7/7/7
f 126/126/126 121/121/121 124/124/124
f 182/182/182 20/20/20 18/18/18
f 119/119/119 122/122/122 101/101/101

