# ('FARMS composite mesh',)
mtllib link_body_00_composite.mtl

o link_body_00
usemtl link_body_00_composite
v 15.54908800 -3.49799900 -1.98438000
v 15.54908800 -3.49799900 -1.98438000
v 9.88462500 -5.58435700 -1.70239700
v 1.87808000 -3.46766600 -1.96506800
v 15.33701300 -3.76812400 -1.67840600
v 15.33701300 -3.76812400 -1.67840600
v 15.08581900 -2.70280000 -2.04734600
v 15.08581900 -2.70280000 -2.04734600
v 15.78224200 -4.47384000 -1.82684400
v 15.78224200 -4.47384000 -1.82684400
v 15.91436000 -4.13852200 -1.86831800
v 15.91436000 -4.13852200 -1.86831800
v 15.94604100 -4.07492700 -1.86962000
v 15.94604100 -4.07492700 -1.86962000
v 15.94604100 -4.07492700 -1.86962000
v 15.86508200 -4.09787300 -1.80346500
v 15.86508200 -4.09787300 -1.80346500
v 15.86508200 -4.09787300 -1.80346500
v 15.87747200 -4.20052100 -1.86139600
v 15.87747200 -4.20052100 -1.86139600
v 15.87747200 -4.20052100 -1.86139600
v 15.81276300 -4.13989400 -1.74344700
v 15.81276300 -4.13989400 -1.74344700
v 15.81276300 -4.13989400 -1.74344700
v 15.43119800 -4.30830500 -1.25399000
v 15.43119800 -4.30830500 -1.25399000
v 15.29971300 -4.36012700 -1.08367900
v 15.29971300 -4.36012700 -1.08367900
v 15.78693000 -4.45729400 -1.82900100
v 15.78693000 -4.45729400 -1.82900100
v 15.17014700 -4.41729300 -0.91030800
v 15.17014700 -4.41729300 -0.91030800
v 15.34777800 -5.21708900 -1.40123500
v 15.34777800 -5.21708900 -1.40123500
v 15.14801000 -4.43296000 -0.87512700
v 15.14801000 -4.43296000 -0.87512700
v 15.12213900 -5.36370000 -1.03923700
v 15.03316500 -4.62779600 -0.58522200
v 15.03316500 -4.62779600 -0.58522200
v 14.77583200 -5.27580500 0.00747100
v 15.01396200 -4.66213800 -0.53509800
v 15.01396200 -4.66213800 -0.53509800
v 14.76967100 -4.91582100 0.17652900
v 14.76967100 -4.91582100 0.17652900
v 14.75294400 -4.41076800 -0.53401500
v 14.31894200 -4.88441400 0.76036900
v 14.06608500 -3.44703000 -0.53116700
v 14.06608500 -3.44703000 -0.53116700
v 13.55575100 -3.81483500 0.75584700
v 13.55575100 -3.81483500 0.75584700
v 14.75288300 -2.94722600 -1.67082600
v 14.75288300 -2.94722600 -1.67082600
v 13.55570500 -2.36489300 -0.52905000
v 13.55570500 -2.36489300 -0.52905000
v 13.55570500 -2.36489300 -0.52905000
v 12.98865100 -2.61602000 0.75248700
v 12.98865100 -2.61602000 0.75248700
v 14.31883100 -2.02324000 -1.66519300
v 14.31883100 -2.02324000 -1.66519300
v 13.24141200 -1.20264100 -0.52774600
v 14.05154300 -1.02929000 -1.66172500
v 14.05154300 -1.02929000 -1.66172500
v 13.96129100 0.00000100 -1.66055300
v 13.96129100 0.00000100 -1.66055300
v 14.60835600 -1.28123600 -2.13131600
v 14.60835600 -1.28123600 -2.13131600
v 14.51043600 0.38771200 -2.17370900
v 14.51043600 0.38771200 -2.17370900
v -1.27563900 -0.09100000 -2.05608300
v 3.75909900 0.05822400 -2.13043600
v 1.89715300 3.46170900 -1.96570600
v 14.83166800 2.14740200 -2.08700000
v 14.83166800 2.14740200 -2.08700000
v 14.31883100 2.02324200 -1.66519300
v 14.31883100 2.02324200 -1.66519300
v 15.55769700 3.47486200 -1.99896900
v 15.55769700 3.47486200 -1.99896900
v 14.05154300 1.02929100 -1.66172500
v 14.05154300 1.02929100 -1.66172500
v 14.75288300 2.94722600 -1.67082600
v 14.75288300 2.94722600 -1.67082600
v 13.55570500 2.36489400 -0.52905000
v 14.06608900 3.44703200 -0.53116700
v 14.06608900 3.44703200 -0.53116700
v 15.33701300 3.76812600 -1.67840600
v 14.75294400 4.41076800 -0.53401500
v 14.75294400 4.41076800 -0.53401500
v 14.75294400 4.41076800 -0.53401500
v 15.43119800 4.30830500 -1.25399100
v 15.43119800 4.30830500 -1.25399100
v 15.84462400 4.11385300 -1.77981100
v 15.84462400 4.11385300 -1.77981100
v 15.86499000 4.09710700 -1.80303300
v 15.86499000 4.09710700 -1.80303300
v 15.86499000 4.09710700 -1.80303300
v 15.98929600 4.06039600 -1.90397900
v 15.98929600 4.06039600 -1.90397900
v 15.98929600 4.06039600 -1.90397900
v 15.88107300 4.23036700 -1.87823900
v 15.88107300 4.23036700 -1.87823900
v 15.88107300 4.23036700 -1.87823900
v 15.79825600 4.45339000 -1.84399500
v 15.79825600 4.45339000 -1.84399500
v 15.79607400 4.45912400 -1.84304400
v 15.79607400 4.45912400 -1.84304400
v 10.04838300 5.57628700 -1.70638200
v 4.32751500 5.98496400 -1.47836400
v 3.60722800 5.09897800 -1.71418800
v 15.58418300 5.94859100 -1.59231000
v 15.58418300 5.94859100 -1.59231000
v 15.58511400 6.57607300 -1.37209400
v 15.58511400 6.57607300 -1.37209400
v 5.05127000 6.53208000 -1.14691600
v 8.88671700 8.14249400 0.17739300
v 8.88671700 8.14249400 0.17739300
v 15.60514500 6.55407800 -1.37985100
v 15.60514500 6.55407800 -1.37985100
v 15.60717400 6.57581600 -1.36815500
v 15.60717400 6.57581600 -1.36815500
v 15.60717400 6.57581600 -1.36815500
v 15.59981500 6.61290800 -1.33180900
v 15.59981500 6.61290800 -1.33180900
v 15.56353000 6.75146000 -1.18272700
v 15.56353000 6.75146000 -1.18272700
v 15.49181400 7.12875400 -0.77602600
v 15.49181400 7.12875400 -0.77602600
v 15.52134700 6.23380200 -1.47064200
v 15.52134700 6.23380200 -1.47064200
v 15.14960500 6.80012200 -0.35489000
v 15.12213900 5.36370100 -1.03923700
v 15.34777800 5.21709100 -1.40123500
v 15.34777800 5.21709100 -1.40123500
v 15.54005800 6.25455600 -1.48484700
v 15.54005800 6.25455600 -1.48484700
v 15.54005800 6.25455600 -1.48484700
v 15.54201500 6.21081000 -1.50020400
v 15.54201500 6.21081000 -1.50020400
v 15.54201500 6.21081000 -1.50020400
v 15.70640600 4.75030800 -1.79453800
v 15.70640600 4.75030800 -1.79453800
v 15.70640600 4.75030800 -1.79453800
v 15.59448200 5.35771400 -1.69255500
v 15.59448200 5.35771400 -1.69255500
v 15.59448200 5.35771400 -1.69255500
v 15.17014700 4.41729300 -0.91030700
v 15.17014700 4.41729300 -0.91030700
v 15.14801000 4.43295900 -0.87512600
v 15.14801000 4.43295900 -0.87512600
v 15.29971300 4.36012900 -1.08367600
v 15.29971300 4.36012900 -1.08367600
v 15.03316900 4.62779100 -0.58522800
v 15.03316900 4.62779100 -0.58522800
v 14.77583200 5.27580600 0.00747200
v 15.01396200 4.66213700 -0.53509800
v 15.01396200 4.66213700 -0.53509800
v 15.01396200 4.66213700 -0.53509800
v 14.76967100 4.91582000 0.17653100
v 14.76967100 4.91582000 0.17653100
v 14.75703300 4.99953300 0.31589500
v 14.75703300 4.99953300 0.31589500
v 14.71650200 5.26793300 0.76272600
v 14.71650200 5.26793300 0.76272600
v 14.31894200 4.88441600 0.76037000
v 14.31894200 4.88441600 0.76037000
v 14.05168800 5.17444000 2.15838700
v 14.05168800 5.17444000 2.15838700
v 13.24149600 4.03980800 2.14473000
v 13.55575500 3.81483700 0.75584700
v 12.63946900 2.76950400 2.13458300
v 12.98865100 2.61602200 0.75248700
v 12.26874200 1.40774800 2.12833400
v 12.63943500 1.32997000 0.75041800
v 12.14355900 0.00000100 2.12622400
v 12.52151900 0.00000100 0.74971900
v 13.24141200 1.20264300 -0.52774600
v 13.13528700 0.00000100 -0.52730600
v 12.63943100 -1.32996700 0.75041800
v 12.26873800 -1.40774600 2.12833400
v 12.63946500 -2.76950100 2.13458300
v 12.14357000 -1.43390000 3.56006300
v 12.01593800 0.00000100 3.55646100
v 12.14355900 0.00000100 4.99390300
v 12.26873800 -1.40774600 4.99885900
v 12.14357000 1.43390200 3.56006300
v 12.52156100 2.82112700 3.57073100
v 12.26874200 1.40774800 4.99885900
v 12.63943500 1.32997000 6.39769900
v 12.98865100 2.61602200 6.41534200
v 12.63946900 2.76950400 5.01353500
v 13.55575500 3.81483700 6.44399100
v 13.24149600 4.03980800 5.03736900
v 13.13537900 4.11551000 3.58805500
v 13.96144400 5.27208600 3.61136800
v 13.96144400 5.27208600 3.61136800
v 14.96800900 6.24808400 3.63977600
v 14.94953800 6.05960900 2.29510100
v 14.94953800 6.05960900 2.29510100
v 14.05168800 5.17444000 5.06944400
v 14.05168800 5.17444000 5.06944400
v 14.31894200 4.88441600 6.48254700
v 15.03891000 6.13140600 5.10852800
v 15.03891000 6.13140600 5.10852800
v 15.24889000 5.78508700 6.52952700
v 15.24889000 5.78508700 6.52952700
v 16.16522200 6.87231900 5.15311700
v 15.99622300 6.38695600 6.29883600
v 15.99622300 6.38695600 6.29883600
v 15.59736300 5.22438900 7.85484900
v 15.59736300 5.22438900 7.85484900
v 15.59736300 5.22438900 7.85484900
v 15.59736300 5.22438900 7.85484900
v 17.23509600 7.34095400 4.91697400
v 17.23509600 7.34095400 4.91697400
v 11.19893600 8.34326800 4.21679900
v 11.19893600 8.34326800 4.21679900
v 9.16865300 7.83418400 4.51460500
v 9.16865300 7.83418400 4.51460500
v 17.64516400 7.48870800 4.59225100
v 17.64516400 7.48870800 4.59225100
v 12.18322400 8.72752100 3.05009400
v 15.73160200 4.81918600 8.37101000
v 15.73160200 4.81918600 8.37101000
v 15.73160200 4.81918600 8.37101000
v 9.75077900 8.74522400 3.36699200
v 9.67035000 8.35589900 3.98072700
v 8.37161400 8.28638200 3.73722100
v 8.37161400 8.28638200 3.73722100
v 6.68480600 8.23031300 2.09236500
v 6.68480600 8.23031300 2.09236500
v 8.03398700 7.62097600 4.33753200
v 8.03398700 7.62097600 4.33753200
v 2.00721900 5.45978600 2.89161900
v 2.00721900 5.45978600 2.89161900
v 2.00721900 5.45978600 2.89161900
v 2.37752700 5.87058400 2.42339900
v 2.37752700 5.87058400 2.42339900
v -1.75605400 2.38104400 0.84130800
v 2.23010000 5.18079800 3.33527500
v 2.23010000 5.18079800 3.33527500
v 1.86751700 4.64278700 3.30865200
v 1.86751700 4.64278700 3.30865200
v -0.96988400 3.59309400 -0.39805300
v -2.02248000 2.48568500 0.36947700
v -2.57925000 1.11159200 0.55911200
v -2.20309100 1.03464900 1.03826700
v -2.20309100 1.03464900 1.03826700
v -2.06036800 2.48620800 -0.29572000
v -2.62208900 1.34364000 -0.05761000
v -2.73927700 0.76205400 -0.26743400
v -2.72407900 -0.82038300 -0.26917200
v -2.83724500 0.17465800 0.54709300
v -2.83724500 0.17465800 0.54709300
v -2.83724500 0.17465800 0.54709300
v -2.42373300 -0.06923600 -0.80698000
v -2.07672500 0.90301600 -1.17499500
v -2.07672500 0.90301600 -1.17499500
v -1.84367800 2.07372500 -1.03601700
v -1.84367800 2.07372500 -1.03601700
v -2.82619800 -0.15352200 0.56727600
v -2.82619800 -0.15352200 0.56727600
v -2.57925000 -1.11159200 0.55911200
v -2.57925000 -1.11159200 0.55911200
v -2.20309100 -1.03464900 1.03826700
v -2.20309100 -1.03464900 1.03826700
v -1.59159500 -0.00282300 1.68796800
v 2.21264800 -4.70823100 3.58073600
v 3.46269300 -0.01683000 4.44257500
v 2.23612400 4.55410700 3.61054700
v 7.19222500 0.90188300 6.32701200
v 8.74558400 5.85058200 5.65468700
v 8.69552400 3.45997500 6.49840700
v 8.55147700 6.99196300 5.04023300
v 8.77895500 1.67209300 6.94629400
v 10.25756500 1.08287400 7.55155900
v 9.42236800 -0.00000000 7.33015900
v 8.51236500 -0.00000000 6.96026600
v 15.28728100 3.93736700 8.79763900
v 15.28728100 3.93736700 8.79763900
v 15.28728100 3.93736700 8.79763900
v 15.50029000 4.16061300 8.76521600
v 15.50029000 4.16061300 8.76521600
v 14.06608900 3.44703200 7.75981000
v 14.75294400 4.41076800 7.80142800
v 14.75294400 4.41076800 7.80142800
v 14.61023200 3.05130300 8.69258000
v 14.61023200 3.05130300 8.69258000
v 13.55570500 2.36489400 7.72888500
v 13.05105500 0.00321900 8.46737000
v 14.13734300 2.10397700 8.62676600
v 14.13734300 2.10397700 8.62676600
v 13.79785400 0.44477300 8.64589400
v 13.79785400 0.44477300 8.64589400
v 13.24141200 1.20264300 7.70984100
v 13.13528700 0.00000100 7.70341100
v 12.52151900 0.00000100 6.39174200
v 12.63943100 -1.32996700 6.39769900
v 13.24141200 -1.20264100 7.70984100
v 12.98865100 -2.61602000 6.41534200
v 13.55575100 -3.81483500 6.44399100
v 13.55575100 -3.81483500 6.44399100
v 13.24149200 -4.03980600 5.03736900
v 13.24149200 -4.03980600 5.03736900
v 13.55570500 -2.36489300 7.72888500
v 14.06608500 -3.44703000 7.75981000
v 14.06608500 -3.44703000 7.75981000
v 12.63946500 -2.76950100 5.01353500
v 12.52155700 -2.82112500 3.57073100
v 13.13537900 -4.11551000 3.58805500
v 13.13537900 -4.11551000 3.58805500
v 13.24149200 -4.03980600 2.14473000
v 13.24149200 -4.03980600 2.14473000
v 14.05168400 -5.17443800 2.15838600
v 13.96144400 -5.27208600 3.61136800
v 14.91769300 -6.01314900 2.17298300
v 14.91769300 -6.01314900 2.17298300
v 14.78333200 -5.68718600 1.67104500
v 14.78333200 -5.68718600 1.67104500
v 14.93687000 -6.04338500 2.26433300
v 14.93687000 -6.04338500 2.26433300
v 15.03683500 -6.52375600 2.35340500
v 14.94953800 -6.05961100 2.29509800
v 14.94953800 -6.05961100 2.29509800
v 15.02430700 -6.15544300 2.47678300
v 15.02430700 -6.15544300 2.47678300
v 14.96800500 -6.24808300 3.63977600
v 15.04082100 -6.17092700 2.51942500
v 15.04082100 -6.17092700 2.51942500
v 15.12729600 -6.24409300 2.67114900
v 15.12729600 -6.24409300 2.67114900
v 15.39213600 -6.46803500 3.13070800
v 15.39213600 -6.46803500 3.13070800
v 15.51425900 -6.57159300 3.34325000
v 15.51425900 -6.57159300 3.34325000
v 15.58884000 -6.62969600 3.42619300
v 15.58884000 -6.62969600 3.42619300
v 15.53482800 -6.70851500 3.32499600
v 15.53482800 -6.70851500 3.32499600
v 16.29930900 -7.17892300 4.00157500
v 16.29930900 -7.17892300 4.00157500
v 16.29930900 -7.17892300 4.00157500
v 16.17694500 -7.73624100 3.37698000
v 16.17694500 -7.73624100 3.37698000
v 16.17694500 -7.73624100 3.37698000
v 15.56504100 -7.65089600 2.42385900
v 15.56504100 -7.65089600 2.42385900
v 15.97938200 -7.74230200 3.03426400
v 15.97938200 -7.74230200 3.03426400
v 15.61959100 -7.74230200 2.33362600
v 15.61959100 -7.74230200 2.33362600
v 15.64864300 -7.74965800 2.44346100
v 15.64864300 -7.74965800 2.44346100
v 15.22075700 -7.45177700 1.35127700
v 15.22075700 -7.45177700 1.35127700
v 14.84889100 -6.57415500 1.00103200
v 15.35477400 -7.56530900 0.53528400
v 15.35477400 -7.56530900 0.53528400
v 15.35477400 -7.56530900 0.53528400
v 15.35858200 -7.65890800 1.22253600
v 15.35858200 -7.65890800 1.22253600
v 15.39028900 -7.66910900 1.35788900
v 15.39028900 -7.66910900 1.35788900
v 15.36604300 -7.51435700 0.18694000
v 15.36604300 -7.51435700 0.18694000
v 15.36953700 -7.50772200 0.14549100
v 15.36953700 -7.50772200 0.14549100
v 15.36990400 -7.50512800 0.13586900
v 15.36990400 -7.50512800 0.13586900
v 10.97118900 -8.88617600 2.01365900
v 9.67191000 -8.74576900 3.32802700
v 9.21537100 -8.88261700 2.11927800
v 12.18931200 -8.72661600 3.05399100
v 10.51518700 -8.82927700 1.46045700
v 9.32410100 -8.82049800 1.51666500
v 17.44948600 -7.53736200 4.49191000
v 17.44948600 -7.53736200 4.49191000
v 16.20076000 -7.73456300 3.41149700
v 16.20076000 -7.73456300 3.41149700
v 16.22143200 -7.73296300 3.44158400
v 16.22143200 -7.73296300 3.44158400
v 16.22143200 -7.73296300 3.44158400
v 16.77322000 -7.65867700 4.01013200
v 16.77322000 -7.65867700 4.01013200
v 16.77322000 -7.65867700 4.01013200
v 17.14255100 -7.59882600 4.31991800
v 17.14255100 -7.59882600 4.31991800
v 17.13474300 -7.33959400 4.49447000
v 17.13474300 -7.33959400 4.49447000
v 16.81515500 -7.22381600 4.34285900
v 16.81515500 -7.22381600 4.34285900
v 17.25548200 -7.38711500 4.51287000
v 17.25548200 -7.38711500 4.51287000
v 17.23508800 -7.34095500 4.91697000
v 17.23508800 -7.34095500 4.91697000
v 17.35620100 -7.40650200 4.54217600
v 17.35620100 -7.40650200 4.54217600
v 17.68269300 -7.47191500 4.61389600
v 17.68269300 -7.47191500 4.61389600
v 17.68269300 -7.47191500 4.61389600
v 17.52347600 -7.52254100 4.53344700
v 17.52347600 -7.52254100 4.53344700
v 17.57904100 -7.51054200 4.55839100
v 17.57904100 -7.51054200 4.55839100
v 17.57904100 -7.51054200 4.55839100
v 17.64434100 -7.48910600 4.59175800
v 17.64434100 -7.48910600 4.59175800
v 11.14989100 -8.37632700 4.17118400
v 15.59736300 -5.22438700 7.85485000
v 15.59736300 -5.22438700 7.85485000
v 9.67036900 -8.43815700 3.98072500
v 15.99622300 -6.38695600 6.29883300
v 15.99622300 -6.38695600 6.29883300
v 15.73160200 -4.81918600 8.37101000
v 15.73160200 -4.81918600 8.37101000
v 15.73160200 -4.81918600 8.37101000
v 15.56156900 -4.31772800 8.67859600
v 15.56156900 -4.31772800 8.67859600
v 15.56156900 -4.31772800 8.67859600
v 9.16865300 -7.83418400 4.51460500
v 9.16865300 -7.83418400 4.51460500
v 15.32189200 -4.24274800 8.74163300
v 15.32189200 -4.24274800 8.74163300
v 14.75294400 -4.41076800 7.80142800
v 14.31894200 -4.88441400 6.48254600
v 15.19165000 -3.81434800 8.78228900
v 15.19165000 -3.81434800 8.78228900
v 15.19165000 -3.81434800 8.78228900
v 10.25756200 -1.08287800 7.55155800
v 14.61023200 -3.05130100 8.69258200
v 14.61023200 -3.05130100 8.69258200
v 14.61023200 -3.05130100 8.69258200
v 14.13734300 -2.10397200 8.62676600
v 14.13734300 -2.10397200 8.62676600
v 13.86325400 -1.06978800 8.61408200
v 13.86325400 -1.06978800 8.61408200
v 8.85118700 -1.62444000 6.98002500
v 7.17793900 -0.91501700 6.31891300
v 9.41740900 -3.39587100 6.81183100
v 8.74558400 -5.85058200 5.65468700
v 8.32586500 -7.09360000 4.90985100
v 2.22999300 -5.25793000 3.33509300
v 2.22999300 -5.25793000 3.33509300
v 8.03399500 -7.70214300 4.33753300
v 8.03399500 -7.70214300 4.33753300
v 8.41668100 -8.35629500 3.64858800
v 1.97821200 -5.46188700 2.84729700
v 1.97821200 -5.46188700 2.84729700
v -1.75605400 -2.38104300 0.84130800
v -1.75605400 -2.38104300 0.84130800
v -1.75605400 -2.38104300 0.84130800
v -2.04198100 -2.43744100 0.38848600
v -2.04198100 -2.43744100 0.38848600
v -2.04198100 -2.43744100 0.38848600
v -2.04198100 -2.43744100 0.38848600
v -1.29494100 -3.35186100 -0.51552500
v 6.44834500 -8.15279900 1.99955900
v 2.37752700 -5.87058400 2.42339900
v 5.24941600 -7.73976200 0.53019900
v 1.38550400 -5.44474800 -0.69685300
v 2.98571900 -6.48900900 -0.34985100
v 4.21677400 -7.11912200 -0.26454500
v 4.11043600 -6.95028100 -0.59343000
v 4.11043600 -6.95028100 -0.59343000
v 1.65126200 -5.54515900 -1.11425100
v -0.01002200 -4.37124700 -0.78117400
v 0.02634300 -4.13271500 -1.44282000
v 0.02634300 -4.13271500 -1.44282000
v 3.17408800 -6.07537400 -1.31330700
v 3.17408800 -6.07537400 -1.31330700
v 1.37159900 -5.14751700 -1.47606600
v 1.37159900 -5.14751700 -1.47606600
v 1.60603100 -4.82502300 -1.69627000
v -0.17085000 -3.48963800 -1.71934200
v 0.85845000 -3.91690600 -1.83482000
v -0.74738000 -3.14359500 -1.51521300
v -0.74738000 -3.14359500 -1.51521300
v -1.07057600 -2.14985800 -1.64919800
v -1.67961500 -0.02980900 -1.78717800
v -1.67961500 -0.02980900 -1.78717800
v -1.84367800 -2.07372500 -1.03601700
v -1.84367800 -2.07372500 -1.03601700
v -1.48404300 -3.01431700 -0.78473200
v -1.48404300 -3.01431700 -0.78473200
v -1.48404300 -3.01431700 -0.78473200
v -2.06036800 -2.48620800 -0.29572000
v -2.06036800 -2.48620800 -0.29572000
v -2.62208900 -1.34364000 -0.05761000
v -2.07672500 -0.90301600 -1.17499500
v -2.07672500 -0.90301600 -1.17499500
v -1.07057600 2.14985800 -1.64919800
v -1.07057600 2.14985800 -1.64919800
v -0.19071300 3.48051400 -1.71732700
v -0.74738000 3.14359600 -1.51521300
v -0.74738000 3.14359600 -1.51521300
v -1.48404300 3.01431600 -0.78473200
v -0.06133000 4.09291300 -1.40110400
v -0.06133000 4.09291300 -1.40110400
v -0.07613100 4.31772700 -0.80164800
v 1.44788500 5.48713300 -0.64105700
v 1.65126200 5.54515900 -1.11425100
v 1.65126200 5.54515900 -1.11425100
v 4.06771100 6.90693600 -0.63641700
v 4.06771100 6.90693600 -0.63641700
v 4.06771100 6.90693600 -0.63641700
v 4.06771100 6.90693600 -0.63641700
v 2.98571900 6.48901000 -0.34985000
v 2.98571900 6.48901000 -0.34985000
v 3.17408800 6.07537400 -1.31330700
v 3.17408800 6.07537400 -1.31330700
v 1.37159900 5.14751600 -1.47606600
v 1.37159900 5.14751600 -1.47606600
v 1.37159900 5.14751600 -1.47606600
v 1.56379100 4.91682400 -1.65014100
v 0.87591000 3.92452300 -1.83760100
v 5.52263200 7.84942800 0.53130900
v 5.52263200 7.84942800 0.53130900
v 7.74650400 8.41952000 0.97446300
v 5.58936300 7.61334800 -0.08663500
v 5.58936300 7.61334800 -0.08663500
v 7.92414700 8.59564500 1.59695600
v 9.25872900 8.89276300 2.04042200
v 11.01111600 8.88261300 2.01384500
v 10.04449600 8.66483300 1.15817100
v 15.47541800 7.17037800 -0.70912200
v 15.47541800 7.17037800 -0.70912200
v 15.47589900 7.16321400 -0.72091800
v 15.47589900 7.16321400 -0.72091800
v 15.46333300 7.20692900 -0.62246700
v 15.46333300 7.20692900 -0.62246700
v 15.36898000 7.45184800 -0.00514900
v 15.36898000 7.45184800 -0.00514900
v 15.36954500 7.50783800 0.14572200
v 15.36954500 7.50783800 0.14572200
v 15.36609300 7.51444900 0.18686100
v 15.36609300 7.51444900 0.18686100
v 15.35495000 7.56545800 0.53421600
v 15.35495000 7.56545800 0.53421600
v 14.84889100 6.57415500 1.00103200
v 15.22075700 7.45177800 1.35127700
v 15.03683500 6.52375700 2.35340500
v 14.86451200 6.12261900 -0.02011500
v 14.67546400 5.45265400 1.23676200
v 14.68000700 5.40046100 1.19227100
v 14.68000700 5.40046100 1.19227100
v 14.67798500 5.41782300 1.24172400
v 14.67798500 5.41782300 1.24172400
v 14.68601500 5.45150600 1.30814100
v 14.68601500 5.45150600 1.30814100
v 14.70967000 5.50876300 1.39630600
v 14.70967000 5.50876300 1.39630600
v 14.91768900 6.01314500 2.17298400
v 14.91768900 6.01314500 2.17298400
v 14.93686600 6.04337900 2.26433200
v 14.93686600 6.04337900 2.26433200
v 15.04082100 6.17092500 2.51942700
v 15.04082100 6.17092500 2.51942700
v 15.56504100 7.65089700 2.42385900
v 15.12729600 6.24409300 2.67115100
v 15.12729600 6.24409300 2.67115100
v 15.53482800 6.70851600 3.32499600
v 16.29930900 7.17892400 4.00157600
v 16.29930900 7.17892400 4.00157600
v 16.17754400 7.73721100 3.37702800
v 16.17754400 7.73721100 3.37702800
v 15.51425900 6.57159100 3.34325000
v 15.51425900 6.57159100 3.34325000
v 15.58884400 6.62969800 3.42619500
v 15.58884400 6.62969800 3.42619500
v 15.88138600 6.84855800 3.66555400
v 15.88138600 6.84855800 3.66555400
v 16.12343600 6.98525900 3.88600300
v 16.12343600 6.98525900 3.88600300
v 16.25815200 7.02647100 4.02585300
v 16.25815200 7.02647100 4.02585300
v 16.25815200 7.02647100 4.02585300
v 16.35323300 7.05855800 4.09594700
v 16.35323300 7.05855800 4.09594700
v 16.63397200 7.15948000 4.24553100
v 16.63397200 7.15948000 4.24553100
v 16.81517000 7.22381700 4.34286900
v 16.81517000 7.22381700 4.34286900
v 17.13474300 7.33959100 4.49447300
v 17.13474300 7.33959100 4.49447300
v 17.25548600 7.38711500 4.51287400
v 17.25548600 7.38711500 4.51287400
v 17.14256700 7.59929500 4.31960400
v 17.14256700 7.59929500 4.31960400
v 16.77381900 7.65928800 4.01014400
v 16.77381900 7.65928800 4.01014400
v 17.44678500 7.53813400 4.49023600
v 17.44678500 7.53813400 4.49023600
v 17.52355200 7.52259300 4.53344400
v 17.52355200 7.52259300 4.53344400
v 17.57868200 7.51061900 4.55823200
v 17.57868200 7.51061900 4.55823200
v 17.35619400 7.40649900 4.54217700
v 17.35619400 7.40649900 4.54217700
v 17.68269300 7.47191500 4.61389800
v 17.68269300 7.47191500 4.61389800
v 17.68269300 7.47191500 4.61389800
v 16.22129100 7.73396600 3.44057100
v 16.22129100 7.73396600 3.44057100
v 16.22129100 7.73396600 3.44057100
v 16.19989000 7.73563000 3.40942200
v 16.19989000 7.73563000 3.40942200
v 15.39213600 6.46803400 3.13071000
v 15.39213600 6.46803400 3.13071000
v 15.98337600 7.74318600 3.04016800
v 15.98337600 7.74318600 3.04016800
v 15.64947500 7.75063700 2.44365500
v 15.64947500 7.75063700 2.44365500
v 15.62011700 7.74318100 2.33275900
v 15.62011700 7.74318100 2.33275900
v 15.39081200 7.66978200 1.35791000
v 15.39081200 7.66978200 1.35791000
v 15.35898200 7.65951300 1.22216200
v 15.35898200 7.65951300 1.22216200
v 15.02430700 6.15544300 2.47679000
v 15.02430700 6.15544300 2.47679000
v 4.44521000 -5.92066800 -1.51702100
v 5.05126600 -6.53208000 -1.14691600
v 15.58511400 -6.57607300 -1.37209400
v 15.58511400 -6.57607300 -1.37209400
v 9.14511200 -7.44885300 -0.48886400
v 8.92846900 -8.20007300 0.25260000
v 8.92846900 -8.20007300 0.25260000
v 8.92846900 -8.20007300 0.25260000
v 8.92846900 -8.20007300 0.25260000
v 15.60509500 -6.55401900 -1.37981600
v 15.60509500 -6.55401900 -1.37981600
v 15.60726900 -6.57732300 -1.36727300
v 15.60726900 -6.57732300 -1.36727300
v 15.60726900 -6.57732300 -1.36727300
v 15.55748700 -6.67733700 -1.22395300
v 15.55748700 -6.67733700 -1.22395300
v 15.55748700 -6.67733700 -1.22395300
v 15.54518100 -6.70948900 -1.17738300
v 15.54518100 -6.70948900 -1.17738300
v 15.54518100 -6.70948900 -1.17738300
v 15.52134700 -6.23380200 -1.47064200
v 15.52134700 -6.23380200 -1.47064200
v 15.52134700 -6.23380200 -1.47064200
v 15.53945200 -6.25388000 -1.48438500
v 15.53945200 -6.25388000 -1.48438500
v 15.53945200 -6.25388000 -1.48438500
v 15.14960500 -6.80012100 -0.35489000
v 15.14960500 -6.80012100 -0.35489000
v 15.54125200 -6.21165800 -1.49911200
v 15.54125200 -6.21165800 -1.49911200
v 15.58593800 -5.93063100 -1.59718800
v 15.58593800 -5.93063100 -1.59718800
v 15.59109500 -5.35577900 -1.68854500
v 15.59109500 -5.35577900 -1.68854500
v 15.69434400 -4.76605100 -1.78127300
v 15.69434400 -4.76605100 -1.78127300
v 15.69434400 -4.76605100 -1.78127300
v 14.86451200 -6.12261700 -0.02011500
v 15.47627300 -7.16362300 -0.72133300
v 15.47627300 -7.16362300 -0.72133300
v 15.47627300 -7.16362300 -0.72133300
v 15.36977000 -7.45419600 -0.00388800
v 15.36977000 -7.45419600 -0.00388800
v 15.36977000 -7.45419600 -0.00388800
v 15.47460200 -7.18829100 -0.68070600
v 15.47460200 -7.18829100 -0.68070600
v 15.49095500 -7.13177300 -0.77222900
v 15.49095500 -7.13177300 -0.77222900
v 15.49095500 -7.13177300 -0.77222900
v 14.67546400 -5.45265400 1.23676200
v 14.68000700 -5.40046500 1.19227300
v 14.68000700 -5.40046500 1.19227300
v 14.67798500 -5.41782600 1.24172300
v 14.67798500 -5.41782600 1.24172300
v 14.68601500 -5.45150600 1.30813600
v 14.68601500 -5.45150600 1.30813600
v 14.71650200 -5.26793500 0.76272500
v 14.71650200 -5.26793500 0.76272500
v 14.75703300 -4.99953300 0.31589200
v 14.75703300 -4.99953300 0.31589200
v 8.01018300 -8.49669800 1.07263800
v 5.58936300 -7.61334800 -0.08663500
v 5.58936300 -7.61334800 -0.08663500
v 5.97541000 -7.96677100 0.56240700
v 7.26162600 -8.42057600 1.36745900
v 14.05168400 -5.17443800 5.06944300
v 15.24888600 -5.78508700 6.52952600
v 15.03890600 -6.13140600 5.10852700
v 16.16522200 -6.87232000 5.15311600
v 16.12343600 -6.98525900 3.88600200
v 16.12343600 -6.98525900 3.88600200
v 16.25815600 -7.02647100 4.02585300
v 16.25815600 -7.02647100 4.02585300
v 16.25815600 -7.02647100 4.02585300
v 15.88138600 -6.84855900 3.66555400
v 15.88138600 -6.84855900 3.66555400
v 16.35323300 -7.05855800 4.09594500
v 16.35323300 -7.05855800 4.09594500
v 16.63396500 -7.15947900 4.24552500
v 16.63396500 -7.15947900 4.24552500
vn 0.01230773 -0.12636887 -0.99190697
vn 0.52796915 0.42110668 0.73750779
vn -0.00544968 -0.24819999 -0.96869348
vn -0.02973339 -0.11312206 -0.99313611
vn 0.51412329 0.43236798 0.74076661
vn 0.60124218 0.52089672 0.60594922
vn -0.00204014 -0.07206264 -0.99739802
vn 0.58761878 0.32272712 0.74199149
vn 0.81541653 -0.15845079 0.55676676
vn 0.01792690 -0.15517129 -0.98772491
vn 0.08757363 -0.12904105 -0.98776478
vn 0.65263086 -0.31107423 0.69087320
vn 0.14809868 -0.09393404 -0.98450149
vn 0.47306668 0.47330488 0.74309515
vn 0.65267824 -0.31099924 0.69086220
vn 0.80566223 -0.21441518 0.55220875
vn 0.47287340 0.47325059 0.74325273
vn 0.65263550 -0.31106689 0.69087213
vn 0.80564924 -0.21441374 0.55222826
vn 0.65258890 -0.31114063 0.69088294
vn 0.05890791 -0.14535845 -0.98762380
vn 0.47222406 0.47313746 0.74373744
vn 0.53553002 0.57750973 0.61618999
vn 0.80525741 -0.21453211 0.55275354
vn 0.80365158 -0.21810211 0.55369271
vn 0.55021915 0.57309276 0.60730847
vn 0.55590674 0.57143356 0.60368153
vn 0.81414452 -0.17193963 0.55462191
vn 0.05878356 -0.14539339 -0.98762607
vn 0.81037107 -0.19003949 0.55424157
vn 0.84415168 -0.13195183 0.51961203
vn 0.55518836 0.57186604 0.60393305
vn 0.84037797 -0.05577855 0.53912301
vn 0.76998791 0.03051146 0.63732854
vn 0.55406149 0.57259645 0.60427575
vn 0.89890002 -0.10019507 0.42654391
vn 0.90215104 0.03897817 0.42965591
vn 0.94477368 -0.08519563 0.31645598
vn 0.55246045 0.57369199 0.60470236
vn 0.97771741 0.00597471 0.20984033
vn 0.95164929 -0.11882887 0.28327252
vn 0.59266275 0.61325824 0.52217353
vn 0.62201936 0.64504656 0.44385454
vn 0.98068142 -0.06914910 0.18298187
vn 0.64683261 0.55642092 0.52153939
vn 0.70673494 0.61135638 0.35604648
vn 0.73028064 0.34327470 0.59063751
vn 0.74049232 0.45836481 0.49150058
vn 0.87157497 0.41303920 0.26411305
vn 0.78049022 0.49491555 0.38196023
vn 0.64002288 0.34147240 0.68830758
vn 0.65591366 0.46121377 0.59754425
vn 0.81447095 0.38482159 0.43422276
vn 0.83161954 0.22381924 0.50824590
vn 0.73032647 0.34176841 0.59145380
vn 0.81326923 0.38593795 0.43548256
vn 0.89719632 0.30388892 0.32045325
vn 0.66452345 0.27304454 0.69559705
vn 0.78181026 0.20818979 0.58773271
vn 0.84610119 0.15038686 0.51136735
vn 0.79593631 0.13911643 0.58917909
vn 0.66748297 0.09982437 0.73790350
vn 0.80824244 0.00021495 0.58884982
vn 0.67600304 0.01702292 0.73670219
vn 0.65491238 0.15207554 0.74024510
vn -0.00340398 -0.04452392 -0.99900252
vn -0.00446523 0.01438338 -0.99988658
vn 0.67168299 -0.04619979 0.73939674
vn -0.34192355 -0.01502646 -0.93960763
vn -0.01009096 -0.02418969 -0.99965646
vn -0.03349941 0.11720460 -0.99254263
vn 0.62601194 -0.25920407 0.73547421
vn -0.00374575 0.05970040 -0.99820931
vn 0.65089550 -0.21757351 0.72732167
vn 0.75858833 -0.27299531 0.59162260
vn 0.51856341 -0.41213968 0.74915477
vn 0.00273187 0.12369059 -0.99231707
vn 0.79577082 -0.13930751 0.58935746
vn 0.65750680 -0.12915678 0.74229599
vn 0.73034381 -0.34117441 0.59177524
vn 0.60163637 -0.38530888 0.69969332
vn 0.80576193 -0.29535311 0.51333640
vn 0.65538575 -0.46357248 0.59629697
vn 0.76530733 -0.41999536 0.48775873
vn 0.56018962 -0.48398540 0.67226909
vn 0.60385713 -0.52284149 0.60165883
vn 0.62234818 -0.64432266 0.44444465
vn 0.73182930 -0.52204425 0.43805899
vn 0.80366478 0.21819394 0.55363736
vn 0.54479104 -0.57505301 0.61034151
vn 0.48987824 -0.51142417 0.70602028
vn 0.80537377 0.21444714 0.55261697
vn 0.65279073 0.31103752 0.69073868
vn 0.80574005 0.21439556 0.55210282
vn 0.46960657 -0.46770398 0.74881416
vn 0.46981850 -0.46775645 0.74864844
vn 0.65279073 0.31103752 0.69073868
vn 0.00775969 0.15455407 -0.98795386
vn 0.65279073 0.31103752 0.69073868
vn 0.00773963 0.15456247 -0.98795270
vn 0.80568088 0.21439445 0.55218959
vn 0.00759189 0.15872131 -0.98729424
vn 0.80476453 0.21456353 0.55345871
vn 0.81019463 0.19033763 0.55439720
vn 0.00901111 0.16696848 -0.98592106
vn -0.00618967 0.25230457 -0.96762807
vn -0.04754911 0.43355198 -0.89987319
vn -0.03297753 0.23234175 -0.97207499
vn 0.78159476 -0.09107109 0.61710266
vn 0.00318608 0.24934188 -0.96841028
vn 0.06671672 0.72411307 -0.68644675
vn 0.03875309 0.40081765 -0.91533787
vn -0.05331238 0.63421225 -0.77131875
vn -0.02371145 0.66806661 -0.74372358
vn -0.03869649 0.88745266 -0.45927154
vn 0.78116114 -0.35079168 0.51646149
vn 0.04098251 0.36572494 -0.92982025
vn 0.78138869 -0.35072979 0.51615922
vn 0.16159667 0.45584793 -0.87526521
vn 0.13228637 0.70700200 -0.69472907
vn 0.03036284 0.73175326 -0.68089299
vn 0.78138291 -0.35074880 0.51615504
vn 0.83536412 -0.31760925 0.44865481
vn 0.01471146 0.73424975 -0.67872003
vn 0.03036867 0.78262507 -0.62175216
vn 0.84210729 -0.31319888 0.43904643
vn 0.83474072 -0.22208709 0.50387027
vn 0.72331818 -0.19968926 0.66101060
vn 0.89651595 -0.32790090 0.29789286
vn 0.90215116 -0.03897779 0.42965570
vn 0.75574645 0.02941781 0.65420326
vn 0.83034390 0.02561830 0.55666212
vn -0.00285042 0.33125503 -0.94353695
vn 0.72331818 -0.19968926 0.66101060
vn 0.78121300 -0.35084311 0.51634810
vn 0.78139628 -0.09123850 0.61732924
vn 0.72331818 -0.19968926 0.66101060
vn -0.00282417 0.33106065 -0.94360525
vn 0.75574645 0.02941781 0.65420326
vn 0.00903034 0.16708297 -0.98590148
vn 0.81651034 0.15943424 0.55487979
vn 0.00905098 0.16729459 -0.98586541
vn 0.75574645 0.02941781 0.65420326
vn 0.78123652 -0.09119136 0.61753837
vn 0.55280215 -0.57522727 0.60292900
vn 0.84405213 0.13195301 0.51977342
vn 0.89890020 0.10019525 0.42654348
vn 0.55361254 -0.57345418 0.60387372
vn 0.55115525 -0.57826469 0.60152958
vn 0.81427262 0.16862027 0.55545235
vn 0.94477290 0.08519074 0.31645965
vn 0.55391752 -0.57260479 0.60439981
vn 0.97771740 -0.00597449 0.20984040
vn 0.95163718 0.11876286 0.28334091
vn 0.55388531 -0.57254226 0.60448856
vn 0.62194502 -0.64480399 0.44431094
vn 0.98068154 0.06914894 0.18298127
vn 0.61987265 -0.64719128 0.44373566
vn 0.62060080 -0.64606459 0.44435931
vn 0.99671728 0.01981255 0.07849920
vn 0.99671326 0.01998498 0.07850649
vn 0.65017138 -0.67645763 0.34595122
vn 0.76175958 -0.54566211 0.34924948
vn 0.64663949 -0.67245026 0.36009445
vn 0.80013976 -0.57346188 0.17583468
vn 0.68232378 -0.70776035 0.18305616
vn 0.84747761 -0.50011150 0.17796123
vn 0.80654025 -0.47491202 0.35206731
vn 0.92272560 -0.34242979 0.17697260
vn 0.87858596 -0.32503864 0.34990941
vn 0.96875935 -0.17408869 0.17663083
vn 0.92250087 -0.16511984 0.34889480
vn 0.98427109 0.00003554 0.17666472
vn 0.93725706 0.00014528 0.34863904
vn 0.84598572 -0.15028035 0.51158965
vn 0.85968799 0.00018170 0.51081947
vn 0.92239655 0.16517957 0.34914227
vn 0.96875200 0.17398746 0.17677082
vn 0.92259060 0.34259826 0.17734996
vn 0.98430162 0.17649416 0.00035512
vn 0.99999993 -0.00004346 0.00036075
vn 0.98470576 -0.00002362 -0.17422561
vn 0.96946496 0.17243465 -0.17436737
vn 0.98428800 -0.17657009 0.00035617
vn 0.93778857 -0.34720668 0.00034213
vn 0.96947183 -0.17247762 -0.17428666
vn 0.92553079 -0.16225763 -0.34214795
vn 0.88310786 -0.31964502 -0.34343496
vn 0.92427124 -0.33940151 -0.17472634
vn 0.81333186 -0.46788197 -0.34580015
vn 0.85016613 -0.49618979 -0.17610579
vn 0.86189683 -0.50708358 0.00032072
vn 0.81396094 -0.58091910 -0.00076347
vn 0.69618191 -0.71786432 0.00124758
vn 0.62490156 -0.78070335 0.00055728
vn 0.93932449 -0.13717375 -0.31440874
vn 0.69231438 -0.71570417 0.09202355
vn 0.69480043 -0.71348713 -0.09049020
vn 0.76430828 -0.61034879 -0.20810384
vn 0.71714258 -0.60267117 -0.34999141
vn 0.60005842 -0.78579797 -0.14983807
vn 0.67656452 -0.68589457 -0.26797218
vn 0.66058917 -0.66376576 -0.35076625
vn 0.50809798 -0.77496217 -0.37585911
vn 0.43958225 -0.87396755 -0.20723939
vn 0.06064192 0.79335965 0.60572521
vn 0.49697556 -0.80646875 -0.32034893
vn 0.57859569 -0.56166674 -0.59140299
vn 0.63773262 -0.63432234 -0.43695798
vn 0.47391472 -0.75934910 -0.44586297
vn 0.06014936 0.79259886 0.60676940
vn 0.07787691 0.84140505 0.53476418
vn 0.32594202 -0.93578319 -0.13443069
vn 0.03927173 0.89052719 0.45323179
vn -0.07803136 0.71663328 0.69307132
vn -0.13470400 0.76899956 0.62489560
vn -0.18009003 0.66126711 0.72821246
vn 0.27771323 -0.46377014 -0.84130412
vn 0.09094933 0.86732764 0.48935773
vn 0.15610801 0.98039200 0.12025728
vn 0.06036532 0.79270962 0.60660324
vn -0.19002570 0.57833339 0.79336040
vn 0.57872063 -0.56020517 -0.59266567
vn -0.09050226 0.94470360 0.31518954
vn -0.11201237 0.80634125 0.58074695
vn -0.28614701 0.86399028 0.41429540
vn -0.23698273 0.71431034 0.65848305
vn -0.46802464 0.87328729 0.13535968
vn -0.34073358 0.91758181 0.20480295
vn -0.39496235 0.71775029 0.57344509
vn -0.29580928 0.62160244 0.72533253
vn -0.39218837 0.67702026 0.62276147
vn -0.41666034 0.80915963 0.41431250
vn -0.68561859 0.61281188 0.39292334
vn -0.57399160 0.81124510 0.11142277
vn -0.41972130 0.82055558 0.38797240
vn -0.71329367 0.39694881 0.57761907
vn -0.40551583 0.51048382 0.75826326
vn -0.67373357 0.42410504 0.60515947
vn -0.67437490 0.41635332 0.60981014
vn -0.58179065 0.22937876 0.78032367
vn -0.66914979 0.74308968 -0.00750210
vn -0.79369424 0.54295127 0.27432347
vn -0.86781800 0.29513796 0.39973180
vn -0.72041608 0.30475199 0.62299832
vn -0.62576710 0.11435789 0.77158137
vn -0.83211721 0.52314318 -0.18412539
vn -0.94140790 0.32388148 -0.09408488
vn -0.94609090 0.15607027 -0.28382051
vn -0.94578903 -0.16420417 -0.28021439
vn -0.99523692 0.04967430 -0.08388044
vn -0.75486327 0.19984625 0.62469427
vn -0.67160332 0.04154795 0.73974506
vn -0.82535430 -0.00774087 -0.56456210
vn -0.63700569 0.21469529 -0.74035781
vn -0.80597171 0.13587318 -0.57614936
vn -0.62293922 0.21953341 -0.75083408
vn -0.75634256 0.36289880 -0.54428890
vn -0.68912059 -0.04748227 0.72308938
vn -0.99401055 -0.08704103 -0.06608234
vn -0.94992042 -0.27969584 0.13936083
vn -0.73225315 -0.28162238 0.62007593
vn -0.67376738 -0.20801955 0.70905951
vn -0.77698033 -0.33586630 0.53244286
vn -0.58533779 0.00086236 0.81078908
vn -0.50059833 -0.25006099 0.82877670
vn -0.46611672 -0.00115613 0.88472248
vn -0.46816448 0.22477618 0.85457457
vn -0.42637278 0.05544003 0.90284697
vn -0.32460587 0.37072234 0.87017008
vn -0.34653794 0.26202436 0.90069678
vn -0.28097301 0.52431813 0.80383125
vn -0.36441933 0.14161701 0.92040381
vn -0.31565574 0.09420259 0.94418607
vn -0.34579642 0.00031206 0.93830951
vn -0.39284730 -0.00009921 0.91960371
vn 0.67603167 -0.45213194 -0.58185727
vn 0.54561099 -0.60483782 -0.58006885
vn -0.30766680 0.33237765 0.89155271
vn -0.25186985 0.48422128 0.83790890
vn 0.56121029 -0.58379892 -0.58670422
vn 0.75257258 -0.42279445 -0.50485579
vn 0.69016400 -0.53833023 -0.48360543
vn 0.57326576 -0.56780144 -0.59073505
vn 0.71193101 -0.39216328 -0.58254802
vn -0.29811078 0.10922497 0.94826150
vn 0.81559836 -0.28895820 -0.50130078
vn -0.26846962 -0.00223228 0.96328557
vn 0.76908840 -0.25848003 -0.58454351
vn -0.32937213 0.09906996 0.93898836
vn 0.80964029 -0.05856451 -0.58399726
vn -0.25201066 0.03522504 0.96708315
vn 0.85237231 -0.15015252 -0.50091483
vn 0.86759478 0.00410003 -0.49725495
vn 0.93975249 0.00007576 -0.34185560
vn 0.92540079 0.16236969 -0.34244630
vn 0.85421457 0.14675349 -0.49877940
vn 0.88309993 0.31967917 -0.34342357
vn 0.85264533 0.39517585 -0.34180694
vn 0.76899953 0.53616706 -0.34808706
vn 0.89110487 0.41872679 -0.17492849
vn 0.80369890 0.56833682 -0.17624230
vn 0.81580827 0.28876043 -0.50107313
vn 0.71291028 0.48496429 -0.50652598
vn 0.78854124 0.35840357 -0.49974954
vn 0.92414523 0.33955412 -0.17509595
vn 0.93780481 0.34716282 0.00034047
vn 0.90355323 0.42847558 -0.00048995
vn 0.81394319 0.58094340 0.00111763
vn 0.88920672 0.42251248 0.17548394
vn 0.79945552 0.57302698 0.18030791
vn 0.74385587 0.64350487 0.18049910
vn 0.75771537 0.65258510 0.00033002
vn 0.97352600 0.17534370 -0.14663464
vn 0.68626890 0.71099537 0.15336422
vn 0.66704309 0.69371352 0.27168930
vn 0.97351213 0.17457847 -0.14763634
vn 0.69250273 0.71555847 0.09173899
vn 0.96656762 0.16470298 -0.19651961
vn 0.92302565 0.26858528 -0.27547339
vn 0.69274937 0.71527569 0.09208142
vn 0.93933701 0.13718000 -0.31436862
vn 0.67077903 0.73592957 0.09199540
vn 0.93941872 0.13717975 -0.31412446
vn 0.62484528 0.78074834 0.00062942
vn 0.54304458 0.83456365 0.09276908
vn 0.91557476 0.16270397 -0.36776389
vn 0.54341946 0.83431591 0.09280223
vn 0.88853943 0.18795338 -0.41853459
vn 0.54415603 0.83380188 0.09310554
vn 0.88788314 0.18735729 -0.42019136
vn 0.54452900 0.83348147 0.09379129
vn 0.85724516 0.19244996 -0.47759161
vn 0.75331183 0.25909009 -0.60447796
vn 0.54484078 0.83312163 0.09516761
vn 0.81865945 0.28686510 -0.49749886
vn 0.76669034 0.45661909 -0.45131468
vn 0.55775159 0.38241539 -0.73666249
vn 0.73343385 0.37200201 -0.56893698
vn 0.56424314 0.54633064 -0.61899314
vn 0.24454325 -0.96187562 -0.12244954
vn 0.76725799 0.45659770 -0.45037065
vn 0.73265638 0.43021452 -0.52738041
vn 0.87666362 0.39352695 -0.27676242
vn 0.77393125 0.55998087 -0.29572259
vn 0.76527288 0.46081482 -0.44945202
vn 0.24497554 -0.96150502 -0.12447928
vn 0.24533223 -0.96075929 -0.12943603
vn 0.77872589 0.60992843 -0.14687850
vn 0.24518364 -0.96116112 -0.12670549
vn 0.75275830 0.57282713 -0.32438252
vn 0.91728378 0.39178076 -0.07140243
vn 0.81042807 0.58176586 -0.06895522
vn 0.96020631 0.27927186 0.00332696
vn 0.84928813 0.52370934 0.06661979
vn 0.90360079 0.41873837 0.09035373
vn 0.24476007 -0.96049872 -0.13241870
vn 0.24506984 -0.96060340 -0.13107964
vn 0.82806568 0.56042573 -0.01517302
vn 0.78295242 0.60654673 -0.13815420
vn 0.24532951 -0.96071171 -0.12979383
vn 0.91058789 0.39471729 0.12258856
vn 0.24454897 -0.96048019 -0.13294214
vn 0.20961681 -0.95497982 -0.20993887
vn 0.91355587 0.38245245 0.13836836
vn 0.91583186 0.37757041 0.13672084
vn 0.17275659 -0.93702410 -0.30354734
vn 0.10575688 -0.99209361 -0.06757032
vn -0.08836743 -0.95754148 0.27441849
vn -0.13369337 -0.99036284 0.03615987
vn 0.15725208 -0.98094410 0.11410718
vn 0.05135281 -0.94948216 -0.30959088
vn -0.07302650 -0.96319520 -0.25869315
vn 0.24163376 -0.96648452 -0.08672253
vn -0.16514656 0.98461199 -0.05714760
vn 0.24334444 -0.96283804 -0.11715965
vn 0.72244175 0.45506458 -0.52057098
vn 0.56424314 0.54633064 -0.61899314
vn 0.73347026 0.42945730 -0.52686602
vn 0.24162698 -0.96414073 -0.10976818
vn 0.23827262 -0.96620050 -0.09840102
vn 0.56424314 0.54633064 -0.61899314
vn 0.51102123 0.49071444 -0.70573128
vn 0.44728276 0.50874641 -0.73560535
vn 0.22150109 -0.97392444 -0.04907592
vn 0.37557943 0.92277012 -0.08622870
vn 0.43204860 0.51260914 -0.74200127
vn 0.51370615 0.48022755 -0.71097644
vn 0.37379091 0.92361372 -0.08495909
vn 0.30414112 0.94808154 -0.09294925
vn 0.32929225 0.53398320 -0.77873523
vn 0.07775731 -0.84123760 0.53504494
vn 0.32609346 0.93574076 -0.13435877
vn 0.21629871 0.97119715 -0.09995484
vn 0.32160988 0.52299822 -0.78932879
vn 0.27768005 0.46378533 -0.84130670
vn 0.21651256 0.97115732 -0.09987877
vn 0.09201775 -0.85738619 0.50638094
vn 0.23501317 -0.97028032 -0.05766207
vn 0.29340110 0.48520375 -0.82370693
vn 0.27769702 0.46368172 -0.84135820
vn 0.09956719 -0.91462013 0.39186271
vn 0.23443340 -0.97055530 -0.05534793
vn 0.09131776 -0.86730132 0.48933576
vn 0.27730029 0.46445414 -0.84106296
vn 0.01215011 -0.85332378 0.52123978
vn 0.05899999 -0.79256473 0.60692681
vn 0.59502262 0.62854213 -0.50088210
vn -0.10989450 -0.82134554 0.55974521
vn 0.05991993 -0.79357500 0.60551492
vn 0.49697402 0.80646936 -0.32034979
vn 0.57867227 0.56077421 -0.59217455
vn 0.01583806 -0.77060025 0.63712197
vn -0.13788764 -0.60313119 0.78563335
vn 0.24964435 -0.01598783 0.96820560
vn 0.06846738 -0.50466098 0.86059834
vn 0.58108314 0.55567434 -0.59461619
vn -0.15542333 -0.73064439 0.66483258
vn -0.17919593 -0.61443369 0.76834892
vn -0.20630227 -0.44348258 0.87221705
vn 0.24964435 -0.01598783 0.96820560
vn 0.66380855 0.54610603 -0.51100529
vn 0.71711970 0.60227653 -0.35071687
vn 0.63768737 0.49581878 -0.58950704
vn -0.33004127 -0.17853059 0.92693019
vn 0.24964435 -0.01598783 0.96820560
vn -0.31498250 -0.09534964 0.94429575
vn -0.29826780 -0.10955511 0.94817403
vn 0.74500780 0.33336802 -0.57777949
vn 0.67698693 0.44711270 -0.58461861
vn -0.34422140 -0.10689185 0.93278388
vn 0.77077618 0.26830627 -0.57785450
vn -0.23959692 -0.04878033 0.96964622
vn 0.80474766 0.12941393 -0.57933862
vn -0.36469831 -0.13621315 0.92110863
vn -0.42616972 -0.05716331 0.90283538
vn -0.34282363 -0.25548768 0.90399005
vn -0.32544325 -0.37130662 0.86960801
vn -0.27904237 -0.52049373 0.80698304
vn -0.53438629 -0.40637677 0.74114048
vn -0.40595200 -0.74950550 0.52291920
vn -0.29050815 -0.57791084 0.76264282
vn -0.32635570 -0.76894243 0.54974494
vn -0.27861508 -0.86315892 0.42110607
vn -0.53820866 -0.78038425 0.31832666
vn -0.68670246 -0.47283286 0.55214927
vn -0.69460413 -0.51461391 0.50269039
vn -0.77698033 -0.33586630 0.53244286
vn -0.65956591 -0.32506935 0.67771877
vn -0.70897380 -0.66130671 0.24500936
vn -0.89516823 -0.43485710 0.09784243
vn -0.77698033 -0.33586630 0.53244286
vn -0.70346734 -0.36364918 0.61064964
vn -0.69006217 -0.71748214 -0.09504516
vn -0.37192400 -0.90706972 0.19722339
vn -0.51661053 -0.82583540 0.22607399
vn -0.38435155 -0.91776872 -0.09987219
vn -0.58301148 -0.81091128 -0.05020469
vn -0.48630272 -0.86584075 -0.11759876
vn -0.36228841 -0.89543486 -0.25873445
vn -0.37319920 -0.86102590 -0.34548047
vn -0.09836366 -0.70640253 -0.70094226
vn -0.47005564 -0.80594097 -0.35987059
vn -0.62050357 -0.77437890 -0.12374428
vn -0.39564945 -0.46250154 -0.79344429
vn -0.61830658 -0.70592576 -0.34549355
vn -0.10009335 -0.48307204 -0.86984063
vn -0.34083944 -0.78433462 -0.51831234
vn -0.51673878 -0.74586739 -0.42031282
vn -0.23236333 -0.43690535 -0.86897698
vn -0.13851249 -0.32885867 -0.93416608
vn -0.36395134 -0.32461810 -0.87301919
vn -0.15186299 -0.22573240 -0.96227985
vn -0.54993828 -0.30805575 -0.77631794
vn -0.63862927 -0.53970307 -0.54851915
vn -0.52895094 -0.26672955 -0.80564648
vn -0.58835473 0.00461163 -0.80858979
vn -0.79648233 -0.00028888 -0.60466174
vn -0.81608329 -0.33617674 -0.47009920
vn -0.61295766 -0.30897334 -0.72719900
vn -0.77947972 -0.42177087 -0.46316380
vn -0.64703596 -0.36172404 -0.67119310
vn -0.71355138 -0.61903122 -0.32809264
vn -0.74720194 -0.66443355 0.01474195
vn -0.86602713 -0.41076564 -0.28507650
vn -0.94300589 -0.32202147 -0.08391696
vn -0.80504713 -0.13908163 -0.57667618
vn -0.64943491 -0.21583807 -0.72914212
vn -0.64503341 0.36359709 -0.67210792
vn -0.46264427 0.21182906 -0.86086510
vn -0.36759623 0.32663242 -0.87073778
vn -0.48377895 0.30784898 -0.81925999
vn -0.66794071 0.44792814 -0.59431944
vn -0.72231998 0.57136518 -0.38960965
vn -0.42641768 0.48450335 -0.76382227
vn -0.62817857 0.70191643 -0.33571567
vn -0.62654359 0.76875279 -0.12830539
vn -0.58011440 0.81375405 -0.03565993
vn -0.33675241 0.75692462 -0.56005619
vn -0.54927541 0.81108571 -0.20108828
vn -0.09728534 0.70349648 -0.70400872
vn -0.41449029 0.84978304 -0.32567866
vn -0.34108448 0.78611383 -0.51544778
vn -0.38770089 0.89103210 -0.23611400
vn -0.48668768 0.86695914 -0.10731705
vn -0.40134707 0.88961298 -0.21796623
vn -0.10164011 0.48303943 -0.86967937
vn -0.34066384 0.78307125 -0.52033410
vn -0.25076011 0.45397739 -0.85499935
vn -0.56203001 0.73695938 -0.37551716
vn -0.33598391 0.75213982 -0.56692195
vn -0.15530425 0.35079419 -0.92348472
vn -0.14634386 0.22704782 -0.96282541
vn -0.23299842 0.92452853 -0.30159364
vn -0.47601696 0.87122229 0.11991485
vn -0.13691899 0.93300234 -0.33280599
vn -0.22049416 0.89846479 -0.37966215
vn -0.06511566 0.71498979 -0.69609594
vn -0.21008453 0.97469977 -0.07632074
vn -0.11400284 0.99255067 -0.04297112
vn 0.09363556 0.98729338 -0.12839070
vn 0.02222879 0.92199462 -0.38656409
vn 0.08042087 0.87974960 -0.46858630
vn 0.84045881 -0.44726984 0.30590633
vn 0.05641253 0.85400764 -0.51719298
vn 0.84501992 -0.37055665 0.38552445
vn 0.13058964 0.92207509 -0.36431288
vn 0.83965179 -0.44852410 0.30628581
vn 0.89836685 -0.39989794 0.18171035
vn 0.14438600 0.92726030 -0.34545770
vn 0.18041478 0.94459196 -0.27421985
vn 0.91428007 -0.38087889 0.13792472
vn 0.24563560 0.96012757 -0.13348480
vn 0.91076826 -0.39423052 0.12281480
vn 0.24585026 0.96014577 -0.13295770
vn 0.89868049 -0.42968497 0.08800121
vn 0.96020490 -0.27927664 0.00333374
vn 0.87738264 -0.47454133 -0.07078303
vn 0.92301731 -0.26858479 -0.27550183
vn 0.95747822 -0.18782920 0.21898779
vn 0.99748098 -0.05651870 -0.04286409
vn 0.99728016 0.02908981 0.06772055
vn 0.66647101 -0.69455026 0.27095448
vn 0.99655595 0.06474851 -0.05180614
vn 0.66665402 -0.69430310 0.27113764
vn 0.97909279 -0.14061271 -0.14698765
vn 0.66692274 -0.69393057 0.27143031
vn 0.97352686 -0.17483372 -0.14723659
vn 0.66708653 -0.69368958 0.27164376
vn 0.68610395 -0.71110654 0.15358663
vn 0.97351223 -0.17528564 -0.14679538
vn 0.69187511 -0.71607550 0.09243762
vn 0.96656333 -0.16470349 -0.19654031
vn 0.54301109 -0.83458546 0.09276886
vn 0.91556770 -0.16271146 -0.36777815
vn 0.81273233 -0.50506334 -0.29047749
vn 0.54342809 -0.83431027 0.09280244
vn 0.88844921 -0.18822501 -0.41860405
vn 0.81248404 -0.31333936 -0.49161786
vn 0.56231920 -0.43358825 -0.70412949
vn 0.73339604 -0.37197471 -0.56900357
vn 0.24562618 0.96152932 -0.12300061
vn 0.74740875 -0.44187834 -0.49610855
vn 0.54452991 -0.83348044 0.09379517
vn 0.85698343 -0.19216809 -0.47817447
vn 0.75330831 -0.25908267 -0.60448553
vn 0.54484183 -0.83312077 0.09516917
vn 0.55031315 -0.83297946 -0.05745132
vn 0.71276268 -0.22645981 -0.66384134
vn 0.50871604 -0.85588976 -0.09306297
vn 0.72912734 -0.29307013 -0.61845228
vn 0.73008854 -0.29523707 -0.61628386
vn 0.62923390 -0.28501484 -0.72307070
vn 0.38011293 -0.92014470 -0.09406320
vn 0.57262202 -0.33138102 -0.74986042
vn 0.37311448 -0.92407221 -0.08292244
vn 0.37872107 -0.92111429 -0.09010449
vn 0.53698703 -0.35557431 -0.76499140
vn 0.37377447 -0.92362167 -0.08494500
vn 0.51340442 -0.47898102 -0.71203447
vn 0.37558629 -0.92276694 -0.08623288
vn 0.43207178 -0.51262108 -0.74197951
vn 0.30414440 -0.94808000 -0.09295426
vn 0.32929368 -0.53398565 -0.77873294
vn 0.44686245 -0.50890829 -0.73574881
vn 0.22224968 0.97375569 -0.04904018
vn 0.53081503 -0.51230454 -0.67511441
vn 0.23930099 0.96589630 -0.09889071
vn 0.16055798 -0.80292118 -0.57405463
vn 0.21754383 0.97539396 -0.03579540
vn 0.15692555 0.97988215 0.12330999
vn 0.29345504 -0.48531176 -0.82362409
vn 0.10453150 0.92064501 0.37614616
vn 0.27725396 -0.46454229 -0.84102955
vn 0.21629798 -0.97119701 -0.09995772
vn 0.32160940 -0.52300367 -0.78932538
vn 0.27772669 -0.46379510 -0.84128591
vn 0.09179462 0.85756163 0.50612428
vn 0.21651714 -0.97115620 -0.09987977
vn 0.73244008 -0.43090493 -0.52711713
vn 0.24268493 0.96381597 -0.11028509
vn 0.56424635 -0.54632948 -0.61899124
vn 0.24441284 0.96250431 -0.11767673
vn 0.73273895 -0.43117741 -0.52647856
vn 0.88828308 -0.18713674 -0.41944370
vn 0.54415525 -0.83380256 0.09310396
vn 0.24606555 0.96115300 -0.12504662
vn 0.76528228 -0.46081468 -0.44943616
vn 0.75274342 -0.57284566 -0.32438432
vn 0.24627525 0.96080731 -0.12727063
vn 0.77871513 -0.60994143 -0.14688161
vn 0.24642503 0.96040341 -0.13000001
vn 0.24642158 0.96035721 -0.13034734
vn 0.78295437 -0.60654349 -0.13815733
vn 0.24616056 0.96024942 -0.13162836
vn 0.82806034 -0.56043284 -0.01520253
vn 0.93941390 -0.13718871 -0.31413498
vn 0.67077272 -0.73593509 0.09199730
vn -0.04171212 -0.39583511 -0.91737379
vn -0.05422846 -0.63246531 -0.77268810
vn 0.07120159 -0.83606797 -0.54398593
vn 0.04294782 -0.40268328 -0.91433127
vn -0.02158752 -0.67440128 -0.73804939
vn 0.00001519 -0.69232060 -0.72159004
vn 0.06701252 -0.82942261 -0.55458765
vn -0.03064066 -0.69765053 -0.71578271
vn -0.04379206 -0.88888343 -0.45603564
vn 0.78135857 0.35075385 0.51618846
vn 0.04191071 -0.36424059 -0.93036137
vn 0.16467239 -0.45551884 -0.87486318
vn 0.06831883 -0.83150487 -0.55130045
vn 0.78140071 0.35070826 0.51615564
vn 0.84267790 0.31251661 0.43843737
vn 0.06678677 -0.82906258 -0.55515293
vn 0.78136243 0.35075562 0.51618141
vn 0.84256751 0.31260403 0.43858717
vn 0.06690094 -0.82926011 -0.55484406
vn 0.00001519 -0.69232060 -0.72159004
vn 0.78117221 0.35078844 0.51644695
vn 0.75201546 0.14941046 0.64198852
vn 0.87062377 0.21973379 0.44014920
vn -0.00259823 -0.32939430 -0.94418888
vn 0.78111126 0.35079699 0.51653332
vn 0.72327867 0.19973550 0.66103986
vn 0.84058770 0.44706604 0.30585010
vn 0.90742872 0.29895642 0.29529338
vn -0.00257170 -0.32918983 -0.94426026
vn 0.76956736 0.11562301 0.62801067
vn 0.78130808 0.09121577 0.61744423
vn 0.00314193 -0.24314779 -0.96998417
vn 0.77141438 0.03741976 0.63523193
vn 0.00996150 -0.15703226 -0.98754323
vn 0.81639934 -0.15920670 0.55510841
vn 0.75572804 -0.02944296 0.65422339
vn 0.01000723 -0.15703085 -0.98754300
vn 0.95747824 0.18782903 0.21898784
vn 0.84059442 0.44697278 0.30596790
vn 0.05937810 -0.85396601 -0.51692968
vn 0.84192198 0.31325679 0.43936040
vn 0.91357031 0.38228663 0.13873078
vn 0.16037075 -0.92705826 -0.33888672
vn 0.84058723 0.44707257 0.30584185
vn 0.84059143 0.44701425 0.30591553
vn 0.09156071 -0.88139355 -0.46342427
vn 0.00001519 -0.69232060 -0.72159004
vn 0.84242836 0.31276494 0.43873972
vn 0.05877247 -0.85343148 -0.51788079
vn 0.99748295 0.05650341 -0.04283832
vn 0.99727840 -0.02904449 0.06776580
vn 0.66747113 0.69365046 0.27079757
vn 0.99655534 -0.06475504 -0.05180960
vn 0.66723388 0.69376086 0.27109927
vn 0.97918137 0.13990581 -0.14707213
vn 0.66648292 0.69413254 0.27199361
vn 0.65043577 0.67636856 0.34562824
vn 0.99671410 -0.01993873 0.07850762
vn 0.62069668 0.64593344 0.44441605
vn 0.99671727 -0.01981226 0.07849939
vn -0.13956470 -0.93632925 -0.32219440
vn -0.23706848 -0.90134956 -0.36244655
vn -0.05686217 -0.71145624 -0.70042609
vn -0.22732265 -0.94134051 -0.24940422
vn -0.23701239 -0.96820263 -0.08005492
vn 0.74855676 0.63869432 -0.17813574
vn 0.58635026 0.72304078 -0.36524704
vn 0.62050679 0.76339730 -0.17943209
vn 0.43952976 0.87401314 -0.20715843
vn 0.50871087 0.85589289 -0.09306241
vn 0.72912458 0.29306605 -0.61845747
vn 0.37983004 0.92021435 -0.09452349
vn 0.62924052 0.28500634 -0.72306829
vn 0.73008196 0.29522433 -0.61629775
vn 0.55031210 0.83298018 -0.05745106
vn 0.71276013 0.22645580 -0.66384544
vn 0.57262523 0.33137594 -0.74986021
vn 0.38046231 0.91996536 -0.09440423
vn 0.38055387 0.92007821 -0.09292381
vn 0.53699045 0.35556078 -0.76499529
vt 0.07014200 0.13718100
vt 0.58393300 0.87971400
vt 0.08408600 0.17472600
vt 0.07289700 0.22801700
vt 0.58252600 0.87807500
vt 0.49510300 0.87171900
vt 0.06556200 0.14029100
vt 0.58082900 0.88429100
vt 0.96881700 0.18142800
vt 0.07580700 0.13559000
vt 0.07381600 0.13472600
vt 0.58638000 0.87604500
vt 0.07343900 0.13451800
vt 0.58658800 0.87642300
vt 0.58658800 0.87642300
vt 0.96964700 0.18354000
vt 0.58604900 0.87626800
vt 0.58604900 0.87626800
vt 0.96968400 0.18287900
vt 0.58613700 0.87567500
vt 0.07418700 0.13496800
vt 0.58570200 0.87600900
vt 0.49854900 0.87039400
vt 0.96923400 0.18340700
vt 0.96629700 0.18327900
vt 0.49545500 0.86867200
vt 0.49437200 0.86807300
vt 0.96528800 0.18327200
vt 0.07570900 0.13555900
vt 0.96887000 0.18151400
vt 0.96424700 0.18324800
vt 0.49330100 0.86744500
vt 0.96473700 0.17807700
vt 0.55660800 0.97765200
vt 0.49311400 0.86730200
vt 0.96402400 0.18322700
vt 0.96248400 0.17793200
vt 0.96200900 0.18279900
vt 0.49205800 0.86587500
vt 0.95723100 0.18059000
vt 0.96165800 0.18272200
vt 0.49188100 0.86562500
vt 0.48911700 0.86224200
vt 0.95727300 0.18289000
vt 0.48999200 0.86657100
vt 0.48503500 0.86035200
vt 0.57404300 0.87965100
vt 0.48450200 0.86938000
vt 0.53916100 0.81084800
vt 0.47893400 0.86347400
vt 0.57861600 0.88278100
vt 0.49043400 0.87410900
vt 0.47978600 0.87185900
vt 0.53140400 0.80236100
vt 0.57061300 0.88597500
vt 0.47369500 0.86622900
vt 0.53867000 0.80437000
vt 0.57569900 0.88816000
vt 0.52518900 0.79963700
vt 0.53107600 0.79582000
vt 0.52491000 0.79407400
vt 0.57388800 0.89400400
vt 0.52473900 0.78812100
vt 0.57325100 0.90008900
vt 0.57760800 0.89259000
vt 0.05725900 0.14351900
vt 0.04742800 0.14423100
vt 0.57689800 0.90242000
vt 0.05095600 0.24911400
vt 0.04976500 0.21566500
vt 0.02760800 0.22816300
vt 0.57896800 0.91276900
vt 0.03708500 0.14215400
vt 0.57555400 0.91204700
vt 0.52473900 0.77596600
vt 0.58374300 0.92048400
vt 0.02937600 0.13737100
vt 0.52468100 0.78200700
vt 0.57381300 0.90618100
vt 0.52491200 0.77023100
vt 0.57840500 0.91746000
vt 0.53087500 0.77452800
vt 0.57379500 0.92042800
vt 0.53107800 0.76778400
vt 0.58225800 0.92221300
vt 0.57832600 0.92601700
vt 0.92707900 0.47376100
vt 0.53140700 0.76165900
vt 0.96655400 0.18407600
vt 0.58285400 0.92534200
vt 0.58562200 0.92416800
vt 0.96940100 0.18448200
vt 0.58575800 0.92406900
vt 0.96954300 0.18445800
vt 0.58575800 0.92406900
vt 0.58658800 0.92384100
vt 0.58658800 0.92384100
vt 0.02602400 0.13451800
vt 0.58586200 0.92484700
vt 0.02502000 0.13524100
vt 0.96960700 0.18535000
vt 0.02371000 0.13579800
vt 0.96897600 0.18641400
vt 0.96895900 0.18644200
vt 0.02367600 0.13581300
vt 0.01589100 0.17404900
vt 0.01188100 0.21207800
vt 0.01735400 0.21684500
vt 0.96429100 0.19362400
vt 0.01496200 0.13726000
vt 0.19939900 0.19438400
vt 0.01131700 0.13726400
vt 0.00864100 0.20726900
vt 0.00000000 0.18176000
vt 0.24007500 0.21752100
vt 0.96171100 0.19630400
vt 0.01145000 0.13713100
vt 0.96159600 0.19639100
vt 0.01132400 0.13711700
vt 0.19925800 0.19436100
vt 0.19930800 0.19459300
vt 0.96132200 0.19649500
vt 0.96023800 0.19685200
vt 0.19952100 0.19555200
vt 0.19993700 0.19811500
vt 0.95725700 0.19782700
vt 0.96302700 0.19481500
vt 0.99929800 0.97169900
vt 0.95610600 0.19496700
vt 0.96318200 0.18903600
vt 0.81655400 0.97502900
vt 0.96524200 0.18921900
vt 0.01317400 0.13755800
vt 0.99929300 0.97152800
vt 0.96303600 0.19496400
vt 0.96321900 0.19477100
vt 0.99910200 0.97169900
vt 0.01342800 0.13754500
vt 0.81832500 0.97180600
vt 0.02196600 0.13641600
vt 0.96809600 0.18783000
vt 0.01840700 0.13717600
vt 0.81832500 0.97545300
vt 0.96621700 0.19075200
vt 0.58110700 0.92600600
vt 0.96471800 0.18371700
vt 0.96451400 0.18370600
vt 0.58095900 0.92609900
vt 0.58197500 0.92565800
vt 0.96565300 0.18388600
vt 0.96261800 0.18398400
vt 0.58018100 0.92724800
vt 0.95815000 0.18587400
vt 0.96228700 0.18403600
vt 0.58005100 0.92745100
vt 0.92621300 0.47519400
vt 0.95812100 0.18354000
vt 0.92336300 0.47164700
vt 0.92268600 0.47114500
vt 0.95719100 0.18363600
vt 0.95421100 0.18394300
vt 0.92051700 0.46953400
vt 0.53867300 0.75914500
vt 0.92183700 0.46735200
vt 0.54671100 0.75757500
vt 0.91549300 0.46164400
vt 0.54632300 0.76480000
vt 0.53830700 0.76595100
vt 0.54608400 0.77275500
vt 0.53808200 0.77344400
vt 0.54600300 0.78113300
vt 0.53800600 0.78133600
vt 0.54608300 0.78961400
vt 0.53808100 0.78932500
vt 0.53080600 0.78163100
vt 0.53087400 0.78882100
vt 0.53830600 0.79710200
vt 0.54632100 0.79787000
vt 0.54670900 0.80558500
vt 0.55481600 0.79809500
vt 0.55457300 0.78967700
vt 0.56322300 0.78951200
vt 0.56346100 0.79776800
vt 0.55449100 0.78103000
vt 0.55457400 0.77248800
vt 0.56314300 0.78103200
vt 0.57162700 0.78113700
vt 0.57170400 0.77324400
vt 0.56322400 0.77265300
vt 0.57192900 0.76575100
vt 0.56346300 0.76469900
vt 0.55481700 0.76437700
vt 0.55521300 0.75701100
vt 0.90829100 0.45685800
vt 0.90495000 0.46238300
vt 0.94400500 0.18443400
vt 0.91189100 0.46621700
vt 0.90050800 0.45317600
vt 0.56385100 0.75747400
vt 0.57229400 0.75894500
vt 0.89723100 0.45859600
vt 0.56437300 0.75125600
vt 0.57278600 0.75308800
vt 0.88935600 0.45584700
vt 0.89351100 0.46489200
vt 0.18257600 0.23591000
vt 0.88824400 0.46075900
vt 0.64438900 0.97905300
vt 0.58067800 0.75606900
vt 0.88159200 0.45427800
vt 0.17985800 0.24497500
vt 0.17954300 0.22586500
vt 0.89138700 0.47173600
vt 0.21884500 0.23601600
vt 0.15698500 0.08789400
vt 0.22940200 0.24211700
vt 0.14351800 0.09039700
vt 0.50608600 0.97204900
vt 0.17796400 0.22322600
vt 0.21590000 0.22731600
vt 0.17734500 0.24734300
vt 0.17734500 0.05636300
vt 0.64191200 0.97821500
vt 0.22995600 0.23453100
vt 0.22847900 0.23810400
vt 0.23659500 0.23957000
vt 0.13965900 0.09518000
vt 0.37450300 0.13834600
vt 0.24982800 0.23353600
vt 0.23609400 0.24356400
vt 0.13614800 0.09219300
vt 0.09459700 0.09518000
vt 0.27044800 0.24734300
vt 0.39828600 0.15249600
vt 0.39606800 0.14850000
vt 0.27007100 0.24382600
vt 0.42870200 0.14869000
vt 0.09531400 0.09288000
vt 0.39853600 0.15551500
vt 0.40245500 0.15666900
vt 0.09187300 0.09051500
vt 0.42225600 0.13785100
vt 0.42965800 0.14571000
vt 0.43876800 0.14995800
vt 0.43735100 0.15283500
vt 0.05851100 0.07807400
vt 0.43110300 0.14145400
vt 0.43874900 0.14557700
vt 0.44294100 0.14538600
vt 0.45238000 0.14825500
vt 0.44501900 0.15183900
vt 0.44501900 0.15183900
vt 0.05256500 0.07409400
vt 0.44825000 0.14312500
vt 0.04436800 0.25442400
vt 0.44236100 0.13867600
vt 0.03648200 0.25291400
vt 0.43456100 0.13724800
vt 0.05185800 0.07197000
vt 0.44691700 0.15256100
vt 0.45205700 0.15401800
vt 0.05114300 0.06529300
vt 0.05365500 0.06492100
vt 0.53596900 0.97180600
vt 0.05985900 0.07004600
vt 0.07287000 0.03244600
vt 0.09121900 0.05822500
vt 0.09392400 0.08902200
vt 0.11638400 0.05496500
vt 0.13665100 0.08000000
vt 0.13119700 0.06625300
vt 0.13792900 0.08714200
vt 0.12787300 0.05568300
vt 0.13578200 0.04877600
vt 0.12829700 0.04451100
vt 0.12263700 0.04661800
vt 0.58623000 0.76371300
vt 0.63980400 0.97271000
vt 0.17280200 0.05261400
vt 0.17457100 0.05331500
vt 0.63989500 0.97460900
vt 0.57988900 0.76749500
vt 0.58021800 0.76137000
vt 0.64438900 0.97180600
vt 0.58555300 0.76937200
vt 0.16681800 0.04939300
vt 0.57968600 0.77423800
vt 0.15088600 0.03614400
vt 0.58515900 0.77528000
vt 0.16195500 0.04529100
vt 0.58537700 0.78529400
vt 0.15644200 0.03687600
vt 0.57961700 0.78134100
vt 0.57968500 0.78853100
vt 0.57170300 0.78912500
vt 0.57192700 0.79690200
vt 0.57988700 0.79553100
vt 0.57229200 0.80417000
vt 0.57278300 0.81064900
vt 0.46420800 0.83309700
vt 0.56437000 0.81236100
vt 0.46643700 0.84113100
vt 0.58021500 0.80207100
vt 0.46312300 0.82527900
vt 0.58065700 0.80790200
vt 0.56384900 0.80548400
vt 0.55521000 0.80596200
vt 0.55574200 0.81297400
vt 0.46972500 0.84907300
vt 0.54723000 0.81246300
vt 0.47394400 0.85661700
vt 0.48042100 0.85330300
vt 0.47632800 0.84569400
vt 0.94389400 0.18241400
vt 0.48668600 0.85016600
vt 0.48666500 0.85349900
vt 0.94738500 0.18267100
vt 0.48661100 0.84960300
vt 0.94333400 0.18251200
vt 0.94162400 0.18036200
vt 0.48663100 0.84939200
vt 0.94313000 0.18252100
vt 0.48674800 0.84814500
vt 0.94192700 0.18257700
vt 0.48361000 0.84204700
vt 0.48675900 0.84786300
vt 0.94166300 0.18262600
vt 0.48698100 0.84677000
vt 0.94067900 0.18273900
vt 0.48767800 0.84345600
vt 0.93769900 0.18307400
vt 0.48800000 0.84192800
vt 0.93632500 0.18322800
vt 0.93574600 0.18323100
vt 0.48830700 0.84124800
vt 0.93607000 0.18249700
vt 0.97242600 0.90644600
vt 0.50160000 0.98108600
vt 0.93139500 0.18274600
vt 0.80377700 0.97565500
vt 0.02161600 0.01152100
vt 0.97023900 0.90088900
vt 0.93321200 0.17814300
vt 0.93836900 0.17537400
vt 0.97662700 0.90293000
vt 0.97246300 0.90142500
vt 0.02011500 0.01335000
vt 0.01694200 0.01681700
vt 0.97696100 0.90227900
vt 0.01749500 0.01644500
vt 0.97629600 0.90229400
vt 0.94450300 0.17323900
vt 0.98335100 0.90336800
vt 0.94861900 0.17642800
vt 0.98756200 0.90088900
vt 0.94849900 0.17077000
vt 0.00746200 0.02160900
vt 0.01127600 0.02038800
vt 0.98365800 0.90194800
vt 0.98284100 0.90198900
vt 0.01196800 0.01995300
vt 0.95046000 0.17017100
vt 0.00550500 0.02214600
vt 0.00526800 0.02219600
vt 0.95069500 0.17010500
vt 0.95075200 0.17009500
vt 0.00521400 0.02221100
vt 0.02421800 0.04649200
vt 0.03456700 0.05235000
vt 0.02837900 0.05737600
vt 0.02777300 0.03700400
vt 0.02193700 0.05036600
vt 0.02464000 0.05778800
vt 0.02517200 0.00165900
vt 0.50159000 0.97322400
vt 0.02175900 0.01131300
vt 0.93303800 0.17826900
vt 0.80690500 0.97506500
vt 0.93288700 0.17838000
vt 0.02188400 0.01113100
vt 0.02390600 0.00670500
vt 0.80377700 0.97180600
vt 0.50345700 0.97743000
vt 0.50247600 0.97512100
vt 0.02485700 0.00386800
vt 0.49552800 0.83115700
vt 0.50104600 0.97549300
vt 0.50095500 0.97770000
vt 0.49390900 0.83283900
vt 0.49624400 0.83072000
vt 0.50109700 0.97465700
vt 0.02801900 0.00232000
vt 0.49503500 0.82871900
vt 0.49677300 0.83030500
vt 0.50102700 0.97398500
vt 0.50081200 0.97180600
vt 0.49854900 0.82907600
vt 0.02536600 -0.00000000
vt 0.02524800 0.00112700
vt 0.50137600 0.97276600
vt 0.50121100 0.97242400
vt 0.02527100 0.00073800
vt 0.02527100 0.00073800
vt 0.02532100 0.00027500
vt 0.50097500 0.97203100
vt 0.03647000 0.04162600
vt 0.04846400 0.00793100
vt 0.47471100 0.81940200
vt 0.03847200 0.05124300
vt 0.03860100 0.00789900
vt 0.48290500 0.82544000
vt 0.47348900 0.81680100
vt 0.05114300 0.00628000
vt 0.15785300 0.00356900
vt 0.15778300 0.00666500
vt 0.15778300 0.00666500
vt 0.47088200 0.81609000
vt 0.04283100 0.05354200
vt 0.11014200 0.00000000
vt 0.15642200 0.00758200
vt 0.15642200 0.00758200
vt 0.46861300 0.82246900
vt 0.47030800 0.82997500
vt 0.46763000 0.81690600
vt 0.15646900 0.01021300
vt 0.15646900 0.01021300
vt 0.13120900 0.03639000
vt 0.15436900 0.01567400
vt 0.58623000 0.80498900
vt 0.46320200 0.81949400
vt 0.15333900 0.02195500
vt 0.58562800 0.79992900
vt 0.15374300 0.02830800
vt 0.58537400 0.79413000
vt 0.12128000 0.03644200
vt 0.11236100 0.04434500
vt 0.12106800 0.02498900
vt 0.11164000 0.01225900
vt 0.10634500 0.00591500
vt 0.07175000 0.02906000
vt 0.05114300 0.09978600
vt 0.10320400 0.00296500
vt 0.04424500 0.06100400
vt 0.03917900 0.05973300
vt 0.04857100 0.10226300
vt 0.06971400 0.02833800
vt 0.04433100 0.13035500
vt 0.53387000 0.97881600
vt 0.05331300 0.05540200
vt 0.04195400 0.13305200
vt 0.45895300 0.15479800
vt 0.53596900 0.98125400
vt 0.05140500 0.05568200
vt 0.03441800 0.12991500
vt 0.03346100 0.07517800
vt 0.04498800 0.10048000
vt 0.02708300 0.08555600
vt 0.02757900 0.11282400
vt 0.02640600 0.10179700
vt 0.02440400 0.09370500
vt 0.02264000 0.09503100
vt 0.09486600 0.21297000
vt 0.02443600 0.11191800
vt 0.02999100 0.12206700
vt 0.07781500 0.24026200
vt 0.02579200 0.12317400
vt 0.08952400 0.21926600
vt 0.02021300 0.10251000
vt 0.02280200 0.11447200
vt 0.08410000 0.23128600
vt 0.08188400 0.22975500
vt 0.07356000 0.24161500
vt 0.07611500 0.23476600
vt 0.07141000 0.24544700
vt 0.02704900 0.12844100
vt 0.06480200 0.24764300
vt 0.05059300 0.25178400
vt 0.44817900 0.13609300
vt 0.45919100 0.14477200
vt 0.06449000 0.25274500
vt 0.46332200 0.14775900
vt 0.07079100 0.25030200
vt 0.03314600 0.13171700
vt 0.03755200 0.13451700
vt 0.46069000 0.15049300
vt 0.45482000 0.15048700
vt 0.45310900 0.14195900
vt 0.05659000 0.25435000
vt 0.43353300 0.13254000
vt 0.03596500 0.24781700
vt 0.02717900 0.24202600
vt 0.02936300 0.24570000
vt 0.42665400 0.13134700
vt 0.42763400 0.13685600
vt 0.02316500 0.24117200
vt 0.41928900 0.12982600
vt 0.41680400 0.13323500
vt 0.40632200 0.13092200
vt 0.20570100 0.98454800
vt 0.40648000 0.12770100
vt 0.00598600 0.21379100
vt 0.39256800 0.12635900
vt 0.20570100 0.97180600
vt 0.26828500 0.22198400
vt 0.39668500 0.12971900
vt 0.27336600 0.22574300
vt 0.01098400 0.21973900
vt 0.20892300 0.97651400
vt 0.01651500 0.23169400
vt 0.41010600 0.12635900
vt 0.20773600 0.98592300
vt 0.01805500 0.23041700
vt 0.02441100 0.23496200
vt 0.25913200 0.22649100
vt 0.38197800 0.13064000
vt 0.24599300 0.22471800
vt 0.25946000 0.22252700
vt 0.00207500 0.20367200
vt 0.24407000 0.22809300
vt 0.23576200 0.22795300
vt 0.22522100 0.22400800
vt 0.23224700 0.22103900
vt 0.19999400 0.19853800
vt 0.95681800 0.19787900
vt 0.19999900 0.19846800
vt 0.95689700 0.19787000
vt 0.19997900 0.19905900
vt 0.95628400 0.19785600
vt 0.95252000 0.19760800
vt 0.19989000 0.20278600
vt 0.19971900 0.20364800
vt 0.95158900 0.19753300
vt 0.19967700 0.20388600
vt 0.95135900 0.19746600
vt 0.19920700 0.20586200
vt 0.94941100 0.19687700
vt 0.94971000 0.19033600
vt 0.94546900 0.19422700
vt 0.94252100 0.18678100
vt 0.95619300 0.19046900
vt 0.95128400 0.18373700
vt 0.95164200 0.18357100
vt 0.91842900 0.46803800
vt 0.95134000 0.18354000
vt 0.91818100 0.46787800
vt 0.95090000 0.18355800
vt 0.91781400 0.46772200
vt 0.95027600 0.18365200
vt 0.91728300 0.46758700
vt 0.91261900 0.46639800
vt 0.94478700 0.18447900
vt 0.91208900 0.46623700
vt 0.94421600 0.18442000
vt 0.91044900 0.46606800
vt 0.94248300 0.18450100
vt 0.93907600 0.19272900
vt 0.90939700 0.46611400
vt 0.94144100 0.18454300
vt 0.93658900 0.18552300
vt 0.50679600 0.98108600
vt 0.93139500 0.18659000
vt 0.18940700 0.21992400
vt 0.93343100 0.19101600
vt 0.90473500 0.46634400
vt 0.93683300 0.18474800
vt 0.93620600 0.18487600
vt 0.90407600 0.46652600
vt 0.90193300 0.46748900
vt 0.93422400 0.18553900
vt 0.90005300 0.46823700
vt 0.93257800 0.18579800
vt 0.93165600 0.18571600
vt 0.50765200 0.98141500
vt 0.89892300 0.46861700
vt 0.50754400 0.98077100
vt 0.89827000 0.46896600
vt 0.89663700 0.47016000
vt 0.50718500 0.97887100
vt 0.89558000 0.47092900
vt 0.50695900 0.97764500
vt 0.89382100 0.47234500
vt 0.50654700 0.97548200
vt 0.89335200 0.47298900
vt 0.50636600 0.97466500
vt 0.50503800 0.97534000
vt 0.18166500 0.22290900
vt 0.50437700 0.97776700
vt 0.18454200 0.22205800
vt 0.50564000 0.97334500
vt 0.17942500 0.22313500
vt 0.17886000 0.22319200
vt 0.50579300 0.97284200
vt 0.17846400 0.22319900
vt 0.50590600 0.97248100
vt 0.89289200 0.47349400
vt 0.50633400 0.97399100
vt 0.50621300 0.97180600
vt 0.17767000 0.22325300
vt 0.89151800 0.47519400
vt 0.93307500 0.19085600
vt 0.18902300 0.22017700
vt 0.50345700 0.98141500
vt 0.18921100 0.22005300
vt 0.93324900 0.19093400
vt 0.93828800 0.18468300
vt 0.90620600 0.46627200
vt 0.19119500 0.21849100
vt 0.93531800 0.19181700
vt 0.93867400 0.19323000
vt 0.19430000 0.21591700
vt 0.93929700 0.19345500
vt 0.19466400 0.21536200
vt 0.19768400 0.21040900
vt 0.94478400 0.19540800
vt 0.19810400 0.20971700
vt 0.94555000 0.19568000
vt 0.94275800 0.18451900
vt 0.91072000 0.46610000
vt 0.08804000 0.21083900
vt 0.09175400 0.20676800
vt 0.92622400 0.78513400
vt 0.08818800 0.13680100
vt 0.09591700 0.17950200
vt 0.87837300 0.92103400
vt 0.88159200 0.78513400
vt 0.10071400 0.18087100
vt 0.01815300 0.06268700
vt 0.99742300 0.97109700
vt 0.08805200 0.13666900
vt 0.08818800 0.13665300
vt 0.92636200 0.78519400
vt 0.99732500 0.97109400
vt 0.96001300 0.17122200
vt 0.92589600 0.78592800
vt 0.99669100 0.97168400
vt 0.95968700 0.17115500
vt 0.92577000 0.78617300
vt 0.87837300 0.87567500
vt 0.99857000 0.97168400
vt 0.55837900 0.97190400
vt 0.96245400 0.17285300
vt 0.08630800 0.13712200
vt 0.99854500 0.97151600
vt 0.55851100 0.97180600
vt 0.82467900 0.97522200
vt 0.95516500 0.17222100
vt 0.08605900 0.13711200
vt 0.55849700 0.97205400
vt 0.55861900 0.97373600
vt 0.08439200 0.13683000
vt 0.55830100 0.97708700
vt 0.08102200 0.13682100
vt 0.96784100 0.17991400
vt 0.55861900 0.98061400
vt 0.07754000 0.13616100
vt 0.95517400 0.17621600
vt 0.82802700 0.97444500
vt 0.00030400 0.02306800
vt 0.95612900 0.16985300
vt 0.95161800 0.17000700
vt 0.00444500 0.02246100
vt 0.82467900 0.97180600
vt 0.82786400 0.97426100
vt 0.00052800 0.02300500
vt 0.88073300 0.87664100
vt 0.95647700 0.16991000
vt -0.00000000 0.02306800
vt 0.95028800 0.18265600
vt 0.95065800 0.18282200
vt 0.48682800 0.85659400
vt 0.95035200 0.18285400
vt 0.48671900 0.85632000
vt 0.94991300 0.18285700
vt 0.48665000 0.85591300
vt 0.48791100 0.85891200
vt 0.95326900 0.18247100
vt 0.48883100 0.86145100
vt 0.95632100 0.18279100
vt 0.02471400 0.06695300
vt 0.02272200 0.08457500
vt 0.09851000 0.20309100
vt 0.02579900 0.08085800
vt 0.02797200 0.07115800
vt 0.47291300 0.83781700
vt 0.47703600 0.82660600
vt 0.48005500 0.83424000
vt 0.48758800 0.83053900
vt 0.49075500 0.83715600
vt 0.93247600 0.18323000
vt 0.49123100 0.83605200
vt 0.50081200 0.98154500
vt 0.93165500 0.18354000
vt 0.48971800 0.83904500
vt 0.93395500 0.18307300
vt 0.50082900 0.98089000
vt 0.49164500 0.83542100
vt 0.49302300 0.83385300
vt 0.50090900 0.97895000
f 4/4/4 1/1/1 3/3/3
f 1/1/1 655/655/655 652/652/652
f 7/7/7 1/1/1 4/4/4
f 8/8/8 5/5/5 2/2/2
f 17/17/17 2/2/2 22/22/22
f 1/1/1 21/21/21 29/29/29
f 1/1/1 13/13/13 11/11/11
f 18/18/18 12/12/12 15/15/15
f 30/30/30 16/16/16 24/24/24
f 6/6/6 26/26/26 23/23/23
f 6/6/6 35/35/35 32/32/32
f 31/31/31 653/653/653 30/30/30
f 37/37/37 31/31/31 36/36/36
f 37/37/37 38/38/38 40/40/40
f 40/40/40 41/41/41 44/44/44
f 45/45/45 677/677/677 43/43/43
f 46/46/46 45/45/45 48/48/48
f 48/48/48 45/45/45 6/6/6
f 48/48/48 50/50/50 46/46/46
f 53/53/53 50/50/50 48/48/48
f 51/51/51 55/55/55 47/47/47
f 52/52/52 48/48/48 6/6/6
f 53/53/53 56/56/56 50/50/50
f 60/60/60 57/57/57 54/54/54
f 51/51/51 58/58/58 55/55/55
f 61/61/61 54/54/54 59/59/59
f 61/61/61 60/60/60 54/54/54
f 62/62/62 58/58/58 65/65/65
f 63/63/63 60/60/60 61/61/61
f 64/64/64 62/62/62 65/65/65
f 8/8/8 65/65/65 58/58/58
f 70/70/70 67/67/67 66/66/66
f 64/64/64 65/65/65 68/68/68
f 66/66/66 7/7/7 4/4/4
f 4/4/4 69/69/69 66/66/66
f 70/70/70 66/66/66 69/69/69
f 70/70/70 69/69/69 71/71/71
f 73/73/73 70/70/70 71/71/71
f 70/70/70 73/73/73 67/67/67
f 74/74/74 72/72/72 81/81/81
f 79/79/79 72/72/72 74/74/74
f 72/72/72 76/76/76 81/81/81
f 71/71/71 77/77/77 73/73/73
f 68/68/68 72/72/72 79/79/79
f 80/80/80 84/84/84 82/82/82
f 80/80/80 82/82/82 75/75/75
f 85/85/85 81/81/81 76/76/76
f 83/83/83 81/81/81 85/85/85
f 86/86/86 145/145/145 148/148/148
f 86/86/86 83/83/83 85/85/85
f 76/76/76 95/95/95 91/91/91
f 90/90/90 85/85/85 91/91/91
f 103/103/103 89/89/89 92/92/92
f 99/99/99 93/93/93 97/97/97
f 77/77/77 102/102/102 100/100/100
f 106/106/106 142/142/142 140/140/140
f 108/108/108 107/107/107 106/106/106
f 107/107/107 112/112/112 106/106/106
f 71/71/71 108/108/108 106/106/106
f 106/106/106 77/77/77 71/71/71
f 106/106/106 117/117/117 133/133/133
f 114/114/114 112/112/112 113/113/113
f 113/113/113 112/112/112 107/107/107
f 115/115/115 124/124/124 121/121/121
f 112/112/112 119/119/119 117/117/117
f 121/121/121 120/120/120 111/111/111
f 123/123/123 135/135/135 118/118/118
f 526/526/526 127/127/127 123/123/123
f 130/130/130 127/127/127 129/129/129
f 130/130/130 132/132/132 127/127/127
f 136/136/136 132/132/132 144/144/144
f 134/134/134 128/128/128 137/137/137
f 141/141/141 146/146/146 150/150/150
f 143/143/143 131/131/131 139/139/139
f 130/130/130 146/146/146 132/132/132
f 130/130/130 151/151/151 147/147/147
f 153/153/153 154/154/154 151/151/151
f 164/164/164 156/156/156 158/158/158
f 153/153/153 542/542/542 161/161/161
f 162/162/162 164/164/164 159/159/159
f 166/166/166 543/543/543 545/545/545
f 163/163/163 165/165/165 167/167/167
f 168/168/168 88/88/88 163/163/163
f 163/163/163 167/167/167 168/168/168
f 168/168/168 167/167/167 169/169/169
f 168/168/168 169/169/169 170/170/170
f 84/84/84 168/168/168 170/170/170
f 168/168/168 84/84/84 88/88/88
f 170/170/170 169/169/169 171/171/171
f 82/82/82 170/170/170 172/172/172
f 84/84/84 170/170/170 82/82/82
f 170/170/170 171/171/171 172/172/172
f 172/172/172 171/171/171 173/173/173
f 172/172/172 173/173/173 174/174/174
f 175/175/175 172/172/172 174/174/174
f 82/82/82 172/172/172 175/175/175
f 175/175/175 174/174/174 176/176/176
f 78/78/78 175/175/175 176/176/176
f 78/78/78 82/82/82 175/175/175
f 176/176/176 174/174/174 177/177/177
f 176/176/176 177/177/177 60/60/60
f 63/63/63 176/176/176 60/60/60
f 78/78/78 176/176/176 63/63/63
f 57/57/57 177/177/177 178/178/178
f 60/60/60 177/177/177 57/57/57
f 174/174/174 178/178/178 177/177/177
f 179/179/179 178/178/178 180/180/180
f 57/57/57 178/178/178 179/179/179
f 178/178/178 181/181/181 180/180/180
f 178/178/178 173/173/173 181/181/181
f 174/174/174 173/173/173 178/178/178
f 181/181/181 182/182/182 183/183/183
f 184/184/184 182/182/182 181/181/181
f 181/181/181 183/183/183 180/180/180
f 173/173/173 184/184/184 181/181/181
f 184/184/184 186/186/186 182/182/182
f 173/173/173 171/171/171 184/184/184
f 171/171/171 185/185/185 184/184/184
f 185/185/185 186/186/186 184/184/184
f 182/182/182 186/186/186 187/187/187
f 186/186/186 188/188/188 187/187/187
f 186/186/186 189/189/189 188/188/188
f 185/185/185 189/189/189 186/186/186
f 189/189/189 190/190/190 188/188/188
f 192/192/192 189/189/189 185/185/185
f 189/189/189 191/191/191 190/190/190
f 192/192/192 191/191/191 189/189/189
f 169/169/169 167/167/167 192/192/192
f 169/169/169 192/192/192 185/185/185
f 191/191/191 192/192/192 193/193/193
f 167/167/167 193/193/193 192/192/192
f 167/167/167 165/165/165 193/193/193
f 166/166/166 552/552/552 197/197/197
f 618/618/618 194/194/194 197/197/197
f 198/198/198 194/194/194 195/195/195
f 191/191/191 193/193/193 199/199/199
f 190/190/190 191/191/191 199/199/199
f 190/190/190 199/199/199 200/200/200
f 200/200/200 199/199/199 202/202/202
f 198/198/198 195/195/195 201/201/201
f 207/207/207 204/204/204 201/201/201
f 200/200/200 202/202/202 203/203/203
f 201/201/201 195/195/195 205/205/205
f 201/201/201 205/205/205 207/207/207
f 211/211/211 206/206/206 214/214/214
f 210/210/210 204/204/204 207/207/207
f 206/206/206 212/212/212 214/214/214
f 207/207/207 205/205/205 213/213/213
f 217/217/217 222/222/222 215/215/215
f 225/225/225 216/216/216 214/214/214
f 214/214/214 221/221/221 211/211/211
f 214/214/214 593/593/593 220/220/220
f 212/212/212 219/219/219 214/214/214
f 220/220/220 224/224/224 214/214/214
f 224/224/224 225/225/225 214/214/214
f 226/226/226 216/216/216 225/225/225
f 224/224/224 226/226/226 225/225/225
f 233/233/233 226/226/226 229/229/229
f 224/224/224 229/229/229 226/226/226
f 233/233/233 230/230/230 226/226/226
f 231/231/231 217/217/217 227/227/227
f 233/233/233 229/229/229 236/236/236
f 238/238/238 231/231/231 232/232/232
f 234/234/234 235/235/235 242/242/242
f 237/237/237 240/240/240 234/234/234
f 243/243/243 237/237/237 234/234/234
f 240/240/240 239/239/239 234/234/234
f 234/234/234 242/242/242 243/243/243
f 243/243/243 244/244/244 245/245/245
f 248/248/248 244/244/244 243/243/243
f 247/247/247 243/243/243 242/242/242
f 243/243/243 245/245/245 237/237/237
f 248/248/248 243/243/243 247/247/247
f 249/249/249 244/244/244 248/248/248
f 247/247/247 249/249/249 248/248/248
f 254/254/254 250/250/250 249/249/249
f 260/260/260 249/249/249 250/250/250
f 260/260/260 251/251/251 249/249/249
f 249/249/249 251/251/251 244/244/244
f 256/256/256 254/254/254 249/249/249
f 249/249/249 258/258/258 256/256/256
f 249/249/249 247/247/247 258/258/258
f 261/261/261 260/260/260 250/250/250
f 263/263/263 259/259/259 262/262/262
f 259/259/259 263/263/263 265/265/265
f 259/259/259 265/265/265 253/253/253
f 263/263/263 266/266/266 265/265/265
f 266/266/266 267/267/267 265/265/265
f 267/267/267 268/268/268 265/265/265
f 253/253/253 265/265/265 246/246/246
f 265/265/265 268/268/268 241/241/241
f 265/265/265 241/241/241 246/246/246
f 267/267/267 269/269/269 268/268/268
f 269/269/269 273/273/273 268/268/268
f 238/238/238 241/241/241 268/268/268
f 272/272/272 238/238/238 268/268/268
f 272/272/272 268/268/268 270/270/270
f 271/271/271 270/270/270 268/268/268
f 273/273/273 271/271/271 268/268/268
f 273/273/273 269/269/269 276/276/276
f 273/273/273 274/274/274 279/279/279
f 273/273/273 275/275/275 274/274/274
f 273/273/273 276/276/276 275/275/275
f 271/271/271 273/273/273 279/279/279
f 278/278/278 284/284/284 281/281/281
f 272/272/272 279/279/279 280/280/280
f 270/270/270 271/271/271 279/279/279
f 272/272/272 270/270/270 279/279/279
f 286/286/286 279/279/279 274/274/274
f 282/282/282 283/283/283 277/277/277
f 285/285/285 282/282/282 277/277/277
f 287/287/287 282/282/282 285/285/285
f 289/289/289 287/287/287 285/285/285
f 274/274/274 288/288/288 286/286/286
f 286/286/286 288/288/288 290/290/290
f 288/288/288 292/292/292 290/290/290
f 293/293/293 287/287/287 289/289/289
f 291/291/291 293/293/293 289/289/289
f 295/295/295 187/187/187 293/293/293
f 187/187/187 287/287/287 293/293/293
f 294/294/294 293/293/293 291/291/291
f 295/295/295 293/293/293 294/294/294
f 182/182/182 295/295/295 296/296/296
f 182/182/182 187/187/187 295/295/295
f 296/296/296 295/295/295 294/294/294
f 298/298/298 296/296/296 297/297/297
f 296/296/296 294/294/294 297/297/297
f 183/183/183 296/296/296 298/298/298
f 182/182/182 296/296/296 183/183/183
f 305/305/305 299/299/299 298/298/298
f 301/301/301 298/298/298 299/299/299
f 301/301/301 306/306/306 298/298/298
f 298/298/298 297/297/297 303/303/303
f 305/305/305 298/298/298 303/303/303
f 183/183/183 298/298/298 306/306/306
f 307/307/307 306/306/306 301/301/301
f 180/180/180 306/306/306 307/307/307
f 180/180/180 183/183/183 306/306/306
f 310/310/310 179/179/179 307/307/307
f 179/179/179 180/180/180 307/307/307
f 307/307/307 301/301/301 308/308/308
f 310/310/310 307/307/307 308/308/308
f 50/50/50 311/311/311 312/312/312
f 57/57/57 310/310/310 49/49/49
f 312/312/312 311/311/311 309/309/309
f 57/57/57 179/179/179 310/310/310
f 312/312/312 309/309/309 313/313/313
f 313/313/313 318/318/318 315/315/315
f 312/312/312 316/316/316 46/46/46
f 50/50/50 312/312/312 46/46/46
f 320/320/320 673/673/673 317/317/317
f 320/320/320 322/322/322 324/324/324
f 313/313/313 323/323/323 321/321/321
f 325/325/325 328/328/328 326/326/326
f 329/329/329 320/320/320 327/327/327
f 336/336/336 329/329/329 331/331/331
f 325/325/325 335/335/335 332/332/332
f 334/334/334 336/336/336 333/333/333
f 339/339/339 694/694/694 689/689/689
f 343/343/343 339/339/339 379/379/379
f 336/336/336 344/344/344 320/320/320
f 337/337/337 346/346/346 345/345/345
f 346/346/346 351/351/351 345/345/345
f 353/353/353 349/349/349 360/360/360
f 351/351/351 349/349/349 345/345/345
f 344/344/344 352/352/352 320/320/320
f 352/352/352 354/354/354 320/320/320
f 354/354/354 356/356/356 362/362/362
f 355/355/355 353/353/353 359/359/359
f 360/360/360 359/359/359 353/353/353
f 368/368/368 361/361/361 348/348/348
f 365/365/365 660/660/660 354/354/354
f 364/364/364 372/372/372 367/367/367
f 369/369/369 368/368/368 371/371/371
f 370/370/370 368/368/368 369/369/369
f 373/373/373 368/368/368 370/370/370
f 399/399/399 371/371/371 374/374/374
f 373/373/373 372/372/372 368/368/368
f 368/368/368 380/380/380 381/381/381
f 382/382/382 378/378/378 340/340/340
f 383/383/383 388/388/388 387/387/387
f 384/384/384 391/391/391 400/400/400
f 393/393/393 386/386/386 389/389/389
f 393/393/393 394/394/394 390/390/390
f 401/401/401 395/395/395 396/396/396
f 402/402/402 406/406/406 371/371/371
f 404/404/404 392/392/392 406/406/406
f 407/407/407 413/413/413 406/406/406
f 407/407/407 406/406/406 410/410/410
f 406/406/406 409/409/409 369/369/369
f 406/406/406 369/369/369 371/371/371
f 410/410/410 406/406/406 392/392/392
f 409/409/409 406/406/406 413/413/413
f 417/417/417 412/412/412 422/422/422
f 416/416/416 420/420/420 414/414/414
f 419/419/419 414/414/414 420/420/420
f 418/418/418 409/409/409 413/413/413
f 412/412/412 408/408/408 422/422/422
f 408/408/408 423/423/423 422/422/422
f 423/423/423 304/304/304 422/422/422
f 422/422/422 304/304/304 424/424/424
f 424/424/424 417/417/417 422/422/422
f 421/421/421 415/415/415 426/426/426
f 427/427/427 425/425/425 428/428/428
f 425/425/425 427/427/427 420/420/420
f 304/304/304 430/430/430 424/424/424
f 428/428/428 288/288/288 427/427/427
f 288/288/288 428/428/428 431/431/431
f 305/305/305 303/303/303 429/429/429
f 303/303/303 432/432/432 429/429/429
f 288/288/288 431/431/431 433/433/433
f 303/303/303 297/297/297 432/432/432
f 297/297/297 434/434/434 432/432/432
f 288/288/288 433/433/433 292/292/292
f 297/297/297 294/294/294 434/434/434
f 294/294/294 291/291/291 434/434/434
f 275/275/275 427/427/427 288/288/288
f 435/435/435 427/427/427 275/275/275
f 427/427/427 435/435/435 420/420/420
f 276/276/276 435/435/435 275/275/275
f 435/435/435 437/437/437 420/420/420
f 435/435/435 436/436/436 266/266/266
f 435/435/435 266/266/266 437/437/437
f 435/435/435 276/276/276 436/436/436
f 437/437/437 266/266/266 438/438/438
f 437/437/437 438/438/438 420/420/420
f 438/438/438 439/439/439 420/420/420
f 266/266/266 439/439/439 438/438/438
f 419/419/419 420/420/420 439/439/439
f 419/419/419 439/439/439 442/442/442
f 266/266/266 440/440/440 439/439/439
f 440/440/440 442/442/442 439/439/439
f 445/445/445 444/444/444 443/443/443
f 444/444/444 418/418/418 443/443/443
f 441/441/441 445/445/445 443/443/443
f 450/450/450 445/445/445 447/447/447
f 449/449/449 446/446/446 440/440/440
f 450/450/450 454/454/454 445/445/445
f 455/455/455 444/444/444 445/445/445
f 454/454/454 456/456/456 445/445/445
f 455/455/455 445/445/445 456/456/456
f 459/459/459 457/457/457 456/456/456
f 456/456/456 457/457/457 455/455/455
f 454/454/454 458/458/458 456/456/456
f 458/458/458 459/459/459 456/456/456
f 457/457/457 459/459/459 460/460/460
f 461/461/461 460/460/460 459/459/459
f 463/463/463 461/461/461 459/459/459
f 459/459/459 458/458/458 463/463/463
f 464/464/464 466/466/466 463/463/463
f 458/458/458 464/464/464 463/463/463
f 463/463/463 466/466/466 469/469/469
f 461/461/461 463/463/463 468/468/468
f 463/463/463 469/469/469 468/468/468
f 472/472/472 470/470/470 465/465/465
f 472/472/472 471/471/471 470/470/470
f 470/470/470 471/471/471 467/467/467
f 472/472/472 473/473/473 471/471/471
f 473/473/473 472/472/472 69/69/69
f 465/465/465 474/474/474 472/472/472
f 472/472/472 476/476/476 69/69/69
f 476/476/476 472/472/472 474/474/474
f 476/476/476 477/477/477 69/69/69
f 476/476/476 480/480/480 477/477/477
f 482/482/482 476/476/476 474/474/474
f 482/482/482 480/480/480 476/476/476
f 454/454/454 483/483/483 466/466/466
f 466/466/466 483/483/483 475/475/475
f 454/454/454 484/484/484 483/483/483
f 481/481/481 485/485/485 479/479/479
f 479/479/479 485/485/485 250/250/250
f 485/485/485 486/486/486 250/250/250
f 451/451/451 486/486/486 485/485/485
f 454/454/454 450/450/450 484/484/484
f 261/261/261 250/250/250 486/486/486
f 451/451/451 261/261/261 486/486/486
f 479/479/479 250/250/250 487/487/487
f 477/477/477 480/480/480 488/488/488
f 250/250/250 254/254/254 487/487/487
f 254/254/254 478/478/478 487/487/487
f 69/69/69 477/477/477 490/490/490
f 490/490/490 477/477/477 257/257/257
f 477/477/477 255/255/255 257/257/257
f 254/254/254 256/256/256 478/478/478
f 490/490/490 491/491/491 69/69/69
f 490/490/490 492/492/492 491/491/491
f 494/494/494 493/493/493 489/489/489
f 494/494/494 489/489/489 258/258/258
f 494/494/494 258/258/258 247/247/247
f 247/247/247 242/242/242 494/494/494
f 494/494/494 497/497/497 496/496/496
f 496/496/496 493/493/493 494/494/494
f 494/494/494 242/242/242 497/497/497
f 496/496/496 497/497/497 500/500/500
f 498/498/498 497/497/497 242/242/242
f 498/498/498 500/500/500 497/497/497
f 499/499/499 503/503/503 508/508/508
f 502/502/502 500/500/500 505/505/505
f 505/505/505 500/500/500 498/498/498
f 511/511/511 499/499/499 508/508/508
f 500/500/500 510/510/510 496/496/496
f 512/512/512 509/509/509 507/507/507
f 491/491/491 495/495/495 509/509/509
f 491/491/491 509/509/509 512/512/512
f 107/107/107 108/108/108 512/512/512
f 107/107/107 512/512/512 507/507/507
f 71/71/71 513/513/513 512/512/512
f 513/513/513 491/491/491 512/512/512
f 71/71/71 512/512/512 108/108/108
f 513/513/513 69/69/69 491/491/491
f 69/69/69 513/513/513 71/71/71
f 113/113/113 507/507/507 501/501/501
f 107/107/107 507/507/507 113/113/113
f 504/504/504 506/506/506 514/514/514
f 498/498/498 235/235/235 505/505/505
f 505/505/505 235/235/235 515/515/515
f 235/235/235 228/228/228 515/515/515
f 514/514/514 229/229/229 519/519/519
f 517/517/517 514/514/514 516/516/516
f 514/514/514 519/519/519 516/516/516
f 517/517/517 504/504/504 514/514/514
f 229/229/229 520/520/520 519/519/519
f 519/519/519 520/520/520 516/516/516
f 229/229/229 224/224/224 520/520/520
f 520/520/520 521/521/521 522/522/522
f 520/520/520 224/224/224 521/521/521
f 516/516/516 520/520/520 522/522/522
f 522/522/522 527/527/527 523/523/523
f 523/523/523 525/525/525 115/115/115
f 522/522/522 115/115/115 516/516/516
f 529/529/529 526/526/526 524/524/524
f 530/530/530 521/521/521 531/531/531
f 534/534/534 129/129/129 529/529/529
f 521/521/521 612/612/612 613/613/613
f 537/537/537 536/536/536 538/538/538
f 537/537/537 540/540/540 129/129/129
f 539/539/539 537/537/537 538/538/538
f 539/539/539 541/541/541 537/537/537
f 541/541/541 540/540/540 537/537/537
f 541/541/541 539/539/539 551/551/551
f 541/541/541 153/153/153 540/540/540
f 544/544/544 542/542/542 541/541/541
f 541/541/541 546/546/546 544/544/544
f 166/166/166 549/549/549 550/550/550
f 539/539/539 617/617/617 196/196/196
f 540/540/540 130/130/130 129/129/129
f 153/153/153 130/130/130 540/540/540
f 558/558/558 555/555/555 539/539/539
f 539/539/539 538/538/538 556/556/556
f 559/559/559 539/539/539 556/556/556
f 605/605/605 539/539/539 565/565/565
f 608/608/608 559/559/559 556/556/556
f 561/561/561 571/571/571 569/569/569
f 559/559/559 604/604/604 600/600/600
f 566/566/566 565/565/565 559/559/559
f 567/567/567 195/195/195 564/564/564
f 205/205/205 568/568/568 570/570/570
f 213/213/213 205/205/205 574/574/574
f 575/575/575 573/573/573 560/560/560
f 560/560/560 578/578/578 575/575/575
f 213/213/213 579/579/579 581/581/581
f 585/585/585 580/580/580 560/560/560
f 584/584/584 585/585/585 592/592/592
f 521/521/521 588/588/588 601/601/601
f 593/593/593 591/591/591 521/521/521
f 218/218/218 596/596/596 592/592/592
f 595/595/595 213/213/213 583/583/583
f 560/560/560 602/602/602 587/587/587
f 557/557/557 195/195/195 554/554/554
f 608/608/608 556/556/556 609/609/609
f 556/556/556 611/611/611 609/609/609
f 538/538/538 611/611/611 556/556/556
f 538/538/538 616/616/616 614/614/614
f 538/538/538 536/536/536 616/616/616
f 220/220/220 521/521/521 224/224/224
f 518/518/518 114/114/114 113/113/113
f 115/115/115 517/517/517 516/516/516
f 518/518/518 113/113/113 501/501/501
f 498/498/498 242/242/242 235/235/235
f 491/491/491 492/492/492 495/495/495
f 4/4/4 471/471/471 473/473/473
f 4/4/4 473/473/473 69/69/69
f 471/471/471 4/4/4 3/3/3
f 619/619/619 471/471/471 3/3/3
f 467/467/467 471/471/471 619/619/619
f 467/467/467 619/619/619 620/620/620
f 619/619/619 622/622/622 620/620/620
f 3/3/3 622/622/622 619/619/619
f 623/623/623 622/622/622 626/626/626
f 620/620/620 622/622/622 623/623/623
f 3/3/3 647/647/647 642/642/642
f 625/625/625 631/631/631 634/634/634
f 629/629/629 630/630/630 622/622/622
f 628/628/628 639/639/639 635/635/635
f 641/641/641 659/659/659 636/636/636
f 640/640/640 644/644/644 648/648/648
f 646/646/646 641/641/641 37/37/37
f 37/37/37 641/641/641 33/33/33
f 34/34/34 648/648/648 649/649/649
f 654/654/654 34/34/34 651/651/651
f 354/354/354 646/646/646 656/656/656
f 656/656/656 646/646/646 37/37/37
f 663/663/663 645/645/645 662/662/662
f 372/372/372 661/661/661 367/367/367
f 372/372/372 667/667/667 658/658/658
f 624/624/624 638/638/638 665/665/665
f 656/656/656 37/37/37 40/40/40
f 668/668/668 656/656/656 40/40/40
f 354/354/354 656/656/656 668/668/668
f 320/320/320 354/354/354 668/668/668
f 40/40/40 678/678/678 676/676/676
f 671/671/671 668/668/668 669/669/669
f 673/673/673 668/668/668 671/671/671
f 46/46/46 674/674/674 672/672/672
f 675/675/675 677/677/677 46/46/46
f 623/623/623 626/626/626 681/681/681
f 679/679/679 627/627/627 373/373/373
f 679/679/679 680/680/680 627/627/627
f 372/372/372 373/373/373 627/627/627
f 680/680/680 682/682/682 457/457/457
f 457/457/457 461/461/461 680/680/680
f 623/623/623 681/681/681 620/620/620
f 681/681/681 462/462/462 620/620/620
f 682/682/682 680/680/680 679/679/679
f 683/683/683 457/457/457 682/682/682
f 682/682/682 679/679/679 683/683/683
f 370/370/370 455/455/455 683/683/683
f 683/683/683 373/373/373 370/370/370
f 455/455/455 457/457/457 683/683/683
f 683/683/683 679/679/679 373/373/373
f 620/620/620 462/462/462 467/467/467
f 464/464/464 454/454/454 466/466/466
f 458/458/458 454/454/454 464/464/464
f 457/457/457 460/460/460 461/461/461
f 455/455/455 370/370/370 444/444/444
f 263/263/263 262/262/262 453/453/453
f 264/264/264 452/452/452 448/448/448
f 449/449/449 266/266/266 263/263/263
f 266/266/266 449/449/449 440/440/440
f 444/444/444 409/409/409 418/418/418
f 370/370/370 369/369/369 444/444/444
f 369/369/369 409/409/409 444/444/444
f 436/436/436 267/267/267 266/266/266
f 436/436/436 269/269/269 267/267/267
f 269/269/269 436/436/436 276/276/276
f 423/423/423 684/684/684 302/302/302
f 685/685/685 684/684/684 423/423/423
f 423/423/423 300/300/300 304/304/304
f 408/408/408 685/685/685 423/423/423
f 423/423/423 302/302/302 300/300/300
f 685/685/685 408/408/408 411/411/411
f 685/685/685 686/686/686 684/684/684
f 686/686/686 685/685/685 411/411/411
f 686/686/686 325/325/325 313/313/313
f 686/686/686 687/687/687 325/325/325
f 686/686/686 313/313/313 684/684/684
f 411/411/411 687/687/687 686/686/686
f 687/687/687 693/693/693 325/325/325
f 687/687/687 696/696/696 690/690/690
f 411/411/411 393/393/393 687/687/687
f 338/338/338 691/691/691 695/695/695
f 698/698/698 338/338/338 695/695/695
f 684/684/684 313/313/313 309/309/309
f 684/684/684 309/309/309 302/302/302
f 274/274/274 275/275/275 288/288/288
f 187/187/187 188/188/188 287/287/287
f 188/188/188 282/282/282 287/287/287
f 223/223/223 281/281/281 284/284/284
f 208/208/208 223/223/223 284/284/284
f 190/190/190 283/283/283 282/282/282
f 190/190/190 200/200/200 283/283/283
f 200/200/200 209/209/209 283/283/283
f 188/188/188 190/190/190 282/282/282
f 272/272/272 280/280/280 222/222/222
f 231/231/231 272/272/272 217/217/217
f 238/238/238 272/272/272 231/231/231
f 217/217/217 272/272/272 222/222/222
f 244/244/244 252/252/252 245/245/245
f 237/237/237 245/245/245 240/240/240
f 200/200/200 203/203/203 209/209/209
f 171/171/171 169/169/169 185/185/185
f 78/78/78 75/75/75 82/82/82
f 64/64/64 68/68/68 79/79/79
f 58/58/58 51/51/51 8/8/8
f 8/8/8 51/51/51 5/5/5
f 650/650/650 3/3/3 1/1/1
f 1/1/1 10/10/10 655/655/655
f 652/652/652 650/650/650 1/1/1
f 17/17/17 14/14/14 2/2/2
f 2/2/2 5/5/5 22/22/22
f 1/1/1 11/11/11 21/21/21
f 29/29/29 10/10/10 1/1/1
f 18/18/18 20/20/20 12/12/12
f 25/25/25 28/28/28 30/30/30
f 30/30/30 19/19/19 16/16/16
f 24/24/24 25/25/25 30/30/30
f 27/27/27 26/26/26 6/6/6
f 6/6/6 45/45/45 42/42/42
f 6/6/6 42/42/42 39/39/39
f 32/32/32 27/27/27 6/6/6
f 6/6/6 39/39/39 35/35/35
f 30/30/30 28/28/28 31/31/31
f 31/31/31 33/33/33 653/653/653
f 653/653/653 9/9/9 30/30/30
f 37/37/37 33/33/33 31/31/31
f 37/37/37 36/36/36 38/38/38
f 40/40/40 38/38/38 41/41/41
f 43/43/43 42/42/42 45/45/45
f 45/45/45 46/46/46 677/677/677
f 152/152/152 155/155/155 86/86/86
f 86/86/86 85/85/85 90/90/90
f 86/86/86 90/90/90 149/149/149
f 148/148/148 152/152/152 86/86/86
f 86/86/86 149/149/149 145/145/145
f 91/91/91 85/85/85 76/76/76
f 76/76/76 96/96/96 95/95/95
f 94/94/94 101/101/101 103/103/103
f 103/103/103 104/104/104 150/150/150
f 103/103/103 150/150/150 89/89/89
f 92/92/92 94/94/94 103/103/103
f 100/100/100 98/98/98 77/77/77
f 77/77/77 106/106/106 102/102/102
f 105/105/105 102/102/102 106/106/106
f 106/106/106 110/110/110 142/142/142
f 140/140/140 105/105/105 106/106/106
f 138/138/138 110/110/110 106/106/106
f 106/106/106 112/112/112 117/117/117
f 133/133/133 138/138/138 106/106/106
f 121/121/121 111/111/111 115/115/115
f 115/115/115 125/125/125 124/124/124
f 118/118/118 122/122/122 123/123/123
f 123/123/123 127/127/127 135/135/135
f 135/135/135 116/116/116 118/118/118
f 123/123/123 126/126/126 526/526/526
f 526/526/526 129/129/129 127/127/127
f 144/144/144 109/109/109 136/136/136
f 136/136/136 127/127/127 132/132/132
f 150/150/150 104/104/104 141/141/141
f 141/141/141 132/132/132 146/146/146
f 130/130/130 147/147/147 146/146/146
f 130/130/130 153/153/153 151/151/151
f 153/153/153 157/157/157 154/154/154
f 158/158/158 159/159/159 164/164/164
f 164/164/164 87/87/87 156/156/156
f 160/160/160 157/157/157 153/153/153
f 153/153/153 541/541/541 542/542/542
f 161/161/161 160/160/160 153/153/153
f 547/547/547 549/549/549 166/166/166
f 166/166/166 164/164/164 162/162/162
f 166/166/166 162/162/162 543/543/543
f 545/545/545 547/547/547 166/166/166
f 197/197/197 194/194/194 166/166/166
f 166/166/166 550/550/550 552/552/552
f 618/618/618 195/195/195 194/194/194
f 214/214/214 219/219/219 593/593/593
f 212/212/212 598/598/598 219/219/219
f 315/315/315 312/312/312 313/313/313
f 313/313/313 321/321/321 318/318/318
f 312/312/312 315/315/315 316/316/316
f 314/314/314 319/319/319 320/320/320
f 320/320/320 668/668/668 673/673/673
f 317/317/317 314/314/314 320/320/320
f 324/324/324 327/327/327 320/320/320
f 320/320/320 319/319/319 322/322/322
f 313/313/313 325/325/325 323/323/323
f 325/325/325 330/330/330 328/328/328
f 326/326/326 323/323/323 325/325/325
f 331/331/331 333/333/333 336/336/336
f 336/336/336 320/320/320 329/329/329
f 325/325/325 693/693/693 335/335/335
f 332/332/332 330/330/330 325/325/325
f 339/339/339 336/336/336 334/334/334
f 339/339/339 334/334/334 694/694/694
f 689/689/689 692/692/692 339/339/339
f 379/379/379 377/377/377 343/343/343
f 343/343/343 336/336/336 339/339/339
f 337/337/337 342/342/342 346/346/346
f 353/353/353 345/345/345 349/349/349
f 354/354/354 352/352/352 356/356/356
f 341/341/341 376/376/376 368/368/368
f 368/368/368 364/364/364 363/363/363
f 368/368/368 363/363/363 357/357/357
f 347/347/347 341/341/341 368/368/368
f 350/350/350 347/347/347 368/368/368
f 368/368/368 357/357/357 358/358/358
f 368/368/368 358/358/358 361/361/361
f 348/348/348 350/350/350 368/368/368
f 354/354/354 362/362/362 365/365/365
f 365/365/365 366/366/366 660/660/660
f 660/660/660 646/646/646 354/354/354
f 364/364/364 368/368/368 372/372/372
f 399/399/399 403/403/403 371/371/371
f 371/371/371 368/368/368 374/374/374
f 385/385/385 374/374/374 368/368/368
f 368/368/368 376/376/376 380/380/380
f 381/381/381 385/385/385 368/368/368
f 387/387/387 384/384/384 383/383/383
f 383/383/383 338/338/338 388/388/388
f 400/400/400 375/375/375 384/384/384
f 384/384/384 387/387/387 391/391/391
f 391/391/391 395/395/395 400/400/400
f 389/389/389 697/697/697 393/393/393
f 393/393/393 390/390/390 386/386/386
f 393/393/393 397/397/397 394/394/394
f 396/396/396 405/405/405 401/401/401
f 401/401/401 400/400/400 395/395/395
f 402/402/402 404/404/404 406/406/406
f 404/404/404 398/398/398 392/392/392
f 522/522/522 521/521/521 527/527/527
f 115/115/115 522/522/522 523/523/523
f 525/525/525 125/125/125 115/115/115
f 524/524/524 528/528/528 529/529/529
f 529/529/529 129/129/129 526/526/526
f 530/530/530 527/527/527 521/521/521
f 529/529/529 532/532/532 534/534/534
f 534/534/534 537/537/537 129/129/129
f 533/533/533 531/531/531 521/521/521
f 521/521/521 603/603/603 562/562/562
f 521/521/521 562/562/562 607/607/607
f 535/535/535 533/533/533 521/521/521
f 615/615/615 535/535/535 521/521/521
f 521/521/521 607/607/607 610/610/610
f 521/521/521 610/610/610 612/612/612
f 613/613/613 615/615/615 521/521/521
f 537/537/537 534/534/534 536/536/536
f 548/548/548 546/546/546 541/541/541
f 539/539/539 553/553/553 551/551/551
f 551/551/551 548/548/548 541/541/541
f 539/539/539 555/555/555 617/617/617
f 196/196/196 553/553/553 539/539/539
f 605/605/605 558/558/558 539/539/539
f 539/539/539 559/559/559 565/565/565
f 608/608/608 563/563/563 559/559/559
f 566/566/566 559/559/559 561/561/561
f 561/561/561 572/572/572 571/571/571
f 569/569/569 566/566/566 561/561/561
f 600/600/600 561/561/561 559/559/559
f 559/559/559 563/563/563 604/604/604
f 567/567/567 568/568/568 195/195/195
f 195/195/195 606/606/606 564/564/564
f 205/205/205 195/195/195 568/568/568
f 576/576/576 577/577/577 213/213/213
f 205/205/205 570/570/570 574/574/574
f 574/574/574 576/576/576 213/213/213
f 560/560/560 580/580/580 578/578/578
f 213/213/213 577/577/577 579/579/579
f 581/581/581 583/583/583 213/213/213
f 560/560/560 587/587/587 585/585/585
f 585/585/585 582/582/582 580/580/580
f 592/592/592 596/596/596 584/584/584
f 584/584/584 582/582/582 585/585/585
f 585/585/585 589/589/589 592/592/592
f 521/521/521 590/590/590 586/586/586
f 521/521/521 586/586/586 588/588/588
f 601/601/601 603/603/603 521/521/521
f 521/521/521 220/220/220 593/593/593
f 591/591/591 590/590/590 521/521/521
f 592/592/592 594/594/594 218/218/218
f 218/218/218 597/597/597 596/596/596
f 595/595/595 599/599/599 213/213/213
f 557/557/557 606/606/606 195/195/195
f 195/195/195 618/618/618 554/554/554
f 538/538/538 614/614/614 611/611/611
f 629/629/629 622/622/622 3/3/3
f 3/3/3 650/650/650 647/647/647
f 642/642/642 629/629/629 3/3/3
f 634/634/634 637/637/637 625/625/625
f 625/625/625 621/621/621 631/631/631
f 635/635/635 632/632/632 628/628/628
f 628/628/628 643/643/643 639/639/639
f 636/636/636 633/633/633 641/641/641
f 641/641/641 646/646/646 659/659/659
f 659/659/659 666/666/666 636/636/636
f 649/649/649 651/651/651 34/34/34
f 34/34/34 640/640/640 648/648/648
f 663/663/663 657/657/657 645/645/645
f 372/372/372 664/664/664 661/661/661
f 658/658/658 664/664/664 372/372/372
f 372/372/372 627/627/627 667/667/667
f 676/676/676 669/669/669 668/668/668
f 40/40/40 44/44/44 678/678/678
f 676/676/676 668/668/668 40/40/40
f 670/670/670 675/675/675 46/46/46
f 46/46/46 316/316/316 674/674/674
f 672/672/672 670/670/670 46/46/46
f 687/687/687 688/688/688 693/693/693
f 687/687/687 393/393/393 697/697/697
f 687/687/687 697/697/697 696/696/696
f 690/690/690 688/688/688 687/687/687
f 698/698/698 388/388/388 338/338/338

