# ('FARMS composite mesh',)
mtllib link_leg_1_R_1_composite.mtl

o link_leg_1_R_1
usemtl link_leg_1_R_1_composite
v -1.88007100 1.89427600 0.69320700
v -1.88007100 1.89427600 0.69320700
v -2.01531600 2.85676500 0.50881600
v -1.16140700 1.00816400 -0.19281500
v -1.98530500 2.04166400 -0.08887700
v -1.98530500 2.04166400 -0.08887700
v -1.46143600 1.82295700 1.39706800
v -1.46143600 1.82295700 1.39706800
v -1.46143600 1.82295700 1.39706800
v -1.46143600 1.82295700 1.39706800
v -0.92037000 0.88098800 0.58958300
v -1.71689200 2.33715600 1.18196300
v -1.71689200 2.33715600 1.18196300
v -1.16241000 3.09576700 1.71891500
v -1.16241000 3.09576700 1.71891500
v -1.77508500 5.30618700 0.80050200
v -1.54258000 6.99086600 0.85990700
v -1.54258000 6.99086600 0.85990700
v -1.99494600 4.48204600 0.36610800
v -1.55201500 4.52809300 -0.99622800
v -1.55201500 4.52809300 -0.99622800
v -1.84433100 5.52451000 -0.47045900
v -1.84433100 5.52451000 -0.47045900
v -1.99463600 3.58781000 -0.01529300
v -1.77097500 5.92620000 0.54507700
v -1.91527800 6.52811100 0.06781000
v -1.91527800 6.52811100 0.06781000
v -1.91527800 6.52811100 0.06781000
v -1.64025400 6.53948700 -1.03586900
v -1.64025400 6.53948700 -1.03586900
v -1.64025400 6.53948700 -1.03586900
v -1.97392100 6.91402500 -0.84187800
v -1.97392100 6.91402500 -0.84187800
v -1.97392100 6.91402500 -0.84187800
v -1.97392100 6.91402500 -0.84187800
v -2.08890000 7.08098600 0.00248100
v -2.08890000 7.08098600 0.00248100
v -2.08890000 7.08098600 0.00248100
v -1.82369500 7.57976200 0.70630600
v -1.82369500 7.57976200 0.70630600
v -1.82369500 7.57976200 0.70630600
v -1.33134800 8.00118100 -0.27905100
v -1.23414000 7.99056100 1.36365200
v -1.23414000 7.99056100 1.36365200
v -1.23414000 7.99056100 1.36365200
v -1.23414000 7.99056100 1.36365200
v -1.14143100 8.23393000 1.46805400
v -1.14143100 8.23393000 1.46805400
v -0.91321900 8.52866800 1.04625800
v -0.93188000 5.71829100 1.54677800
v -0.93188000 5.71829100 1.54677800
v 0.03556700 4.32348600 2.15173300
v 0.66584900 3.87260600 2.38244700
v 0.00084900 6.07159000 2.01396100
v 0.32614400 3.07471700 2.51787200
v 0.87928700 2.78146700 2.46286100
v 0.87928700 2.78146700 2.46286100
v 1.28160300 3.12218000 2.40136000
v 1.28160300 3.12218000 2.40136000
v 0.18783300 2.43821000 2.47306500
v 0.18783300 2.43821000 2.47306500
v -0.54856800 2.24323600 2.20104800
v -0.54856800 2.24323600 2.20104800
v -0.89653400 1.99898400 1.98236000
v -0.89653400 1.99898400 1.98236000
v 0.17046600 1.27582400 1.59069400
v 0.17046600 1.27582400 1.59069400
v 0.93120100 1.61593300 1.60882000
v 0.93120100 1.61593300 1.60882000
v -0.03622600 0.53197700 0.55301400
v 0.58305500 0.80900800 0.90039600
v 0.58305500 0.80900800 0.90039600
v -0.55623800 1.06122100 1.21477900
v -0.55623800 1.06122100 1.21477900
v 0.46002300 0.49446900 0.25392600
v 1.41567700 1.46616200 0.95468600
v 1.41567700 1.46616200 0.95468600
v 1.41567700 1.46616200 0.95468600
v 0.99226100 0.72018600 0.00692100
v 0.99226100 0.72018600 0.00692100
v 0.30621300 0.48775400 -0.48350100
v 1.54282300 1.35350600 0.01299500
v 0.60982000 0.82609900 -0.87339900
v 1.26973600 1.41650500 -0.91729500
v 1.26973600 1.41650500 -0.91729500
v 1.26973600 1.41650500 -0.91729500
v 1.91077200 4.06143000 -1.38596600
v 1.91077200 4.06143000 -1.38596600
v 0.60979900 1.61293600 -1.46983500
v 0.60979900 1.61293600 -1.46983500
v 0.79781700 2.56271900 -1.82404100
v 0.79781700 2.56271900 -1.82404100
v 1.60784200 1.75551500 -0.65954300
v 2.01152900 2.46585800 -0.43967900
v 1.97203700 2.19455800 0.59955100
v 2.13823500 3.76099800 -0.95002000
v 2.13823500 3.76099800 -0.95002000
v 2.14105200 4.35047900 -0.73606700
v 2.17662200 3.64635300 -0.08533900
v 2.24973800 3.49556800 1.40000000
v 2.54548100 4.52116100 0.61775900
v 2.57129900 5.14544700 1.29584800
v 2.63386400 6.46651900 0.25586100
v 2.46412800 7.32629300 0.24758700
v 2.60426300 6.97417000 1.12599300
v 1.97119600 5.55906300 -1.10955500
v 1.61415300 4.69527500 -1.76310300
v 1.61415300 4.69527500 -1.76310300
v 2.08598200 7.12171700 -0.53285100
v 2.08598200 7.12171700 -0.53285100
v 2.09710400 9.21501700 0.25745100
v 1.40323800 5.79736500 -1.59827100
v 1.40323800 5.79736500 -1.59827100
v 0.96119200 7.27505400 -1.32659000
v 1.60613200 8.33329500 -0.68981900
v 1.60613200 8.33329500 -0.68981900
v 1.45793400 9.41565100 -0.39865200
v 1.45793400 9.41565100 -0.39865200
v 1.45793400 9.41565100 -0.39865200
v 1.83091200 9.59439400 0.15916300
v 1.83091200 9.59439400 0.15916300
v 0.57401000 9.28923600 -0.08081700
v 0.57401000 9.28923600 -0.08081700
v 0.79023200 9.09416300 -0.85067400
v 0.79023200 9.09416300 -0.85067400
v 0.79023200 9.09416300 -0.85067400
v -0.00881100 8.65711700 -1.05520200
v -0.00881100 8.65711700 -1.05520200
v 1.05110300 8.21247900 -1.00754800
v -0.24716500 7.54968700 -1.25209200
v -0.59635800 8.21958500 -1.19286100
v -0.59635800 8.21958500 -1.19286100
v -0.53790000 8.69537000 -0.13490400
v 0.34154000 9.28815200 0.79313400
v 0.34154000 9.28815200 0.79313400
v 0.33735500 9.19197400 1.75700400
v 0.33735500 9.19197400 1.75700400
v 0.33735500 9.19197400 1.75700400
v 2.12566600 9.70937200 1.16240200
v 2.12566600 9.70937200 1.16240200
v 2.12566600 9.70937200 1.16240200
v 1.91869800 9.62252500 1.49483600
v 1.91869800 9.62252500 1.49483600
v 1.91869800 9.62252500 1.49483600
v 2.12457400 8.93638900 1.60376500
v 2.12457400 8.93638900 1.60376500
v 2.12457400 8.93638900 1.60376500
v 2.22175800 9.65762700 0.74877600
v 2.22175800 9.65762700 0.74877600
v 2.22175800 9.65762700 0.74877600
v 2.23719800 9.18120300 0.96876600
v 2.41668400 8.45221000 1.31499900
v 2.52113700 8.34506700 0.87350000
v 2.28254800 7.89564000 1.81126200
v 2.28254800 7.89564000 1.81126200
v 2.10566500 6.93580000 2.02468300
v 2.39868800 6.52486500 1.74809800
v 2.39868800 6.52486500 1.74809800
v 1.90902100 5.41196200 2.16756600
v 2.15011500 3.64360000 1.72626300
v 2.15011500 3.64360000 1.72626300
v 1.78760900 3.35759100 2.11920300
v 1.78760900 3.35759100 2.11920300
v 1.65075700 6.66646700 2.26150400
v 1.27338100 5.68848100 2.35337300
v 1.50453000 9.53027900 1.75720400
v 1.50453000 9.53027900 1.75720400
v 1.04986400 8.07563200 2.07437700
v -0.35330000 8.81673300 1.73331800
v -0.35330000 8.81673300 1.73331800
v -0.69590100 8.57570600 1.67107700
v -0.69590100 8.57570600 1.67107700
v -1.37417700 7.33705800 -1.39415000
v -1.37417700 7.33705800 -1.39415000
v -1.37417700 7.33705800 -1.39415000
v -0.81962900 6.46665600 -1.53325100
v -0.25124700 5.28626300 -1.73409000
v -0.64008200 4.76837800 -1.60082800
v -0.64008200 4.76837800 -1.60082800
v -0.44973600 3.72323900 -2.24993500
v -0.44973600 3.72323900 -2.24993500
v -0.44973600 3.72323900 -2.24993500
v -0.61243100 3.82866700 -1.78950300
v -0.61243100 3.82866700 -1.78950300
v -0.11490200 3.89463000 -2.27266300
v -0.11490200 3.89463000 -2.27266300
v -0.11490200 3.89463000 -2.27266300
v -1.61693700 3.26195400 -0.79868200
v -1.61693700 3.26195400 -0.79868200
v -1.76573900 2.11171700 -0.77419100
v -1.76573900 2.11171700 -0.77419100
v -1.76573900 2.11171700 -0.77419100
v -1.32064200 2.01541400 -1.23592800
v -1.32064200 2.01541400 -1.23592800
v -0.96048700 1.28509400 -0.98352800
v -0.37189700 1.04432000 -1.12013700
v -0.37189700 1.04432000 -1.12013700
v -0.38111300 0.62460100 -0.56526000
v -0.21536700 0.44470100 -0.02966800
v 0.21342200 1.02854000 -1.19299500
v 0.21342200 1.02854000 -1.19299500
v -0.91211400 2.19191400 -1.62294100
v -0.91211400 2.19191400 -1.62294100
v -0.91211400 2.19191400 -1.62294100
v -0.13982500 1.71940100 -1.63546000
v -0.13982500 1.71940100 -1.63546000
v -0.47656000 2.76126000 -1.99205900
v -0.47656000 2.76126000 -1.99205900
v -0.47656000 2.76126000 -1.99205900
v 0.37585500 3.83206200 -2.21158400
v 1.10114000 4.26873400 -2.03531400
v 2.18087600 2.92102600 0.88008300
v 2.18087600 2.92102600 0.88008300
v -1.27828700 5.86490100 -1.24643700
v -1.27828700 5.86490100 -1.24643700
vn -0.94439213 -0.12662289 0.30346360
vn -0.73206061 -0.66326851 0.15544174
vn -0.97868867 -0.00510376 0.20528623
vn -0.65944175 -0.73515312 -0.15711926
vn -0.99020857 -0.00645687 -0.13944637
vn -0.77989109 -0.60595185 -0.15681916
vn -0.62035751 -0.68452796 0.38285511
vn -0.43153277 -0.65997684 0.61498784
vn -0.70942165 -0.05863279 0.70234117
vn -0.84810009 -0.21963320 0.48216958
vn -0.53050751 -0.80476762 0.26629094
vn -0.70275405 -0.02172480 0.71110110
vn -0.87433886 -0.06384847 0.48109764
vn -0.73407329 0.07714258 0.67467431
vn -0.54235181 0.09018053 0.83529755
vn -0.86548963 0.09092067 0.49260647
vn -0.83036386 -0.06620332 0.55327477
vn -0.69007656 -0.14444090 0.70917640
vn -0.99527631 0.05343454 0.08105439
vn -0.19687890 -0.14127713 -0.97019558
vn -0.91538690 0.00099266 -0.40257402
vn -0.74660336 -0.20283748 -0.63359323
vn -0.97015442 0.01976671 -0.24168094
vn -0.97214963 0.02828872 -0.23264748
vn -0.97254782 0.06924914 0.22216050
vn -0.78080807 -0.59166847 -0.20066684
vn -0.97143525 -0.05220775 0.23149061
vn -0.94945626 -0.30628325 -0.06872690
vn -0.78080807 -0.59166847 -0.20066684
vn -0.96868772 0.06065008 -0.24076060
vn -0.60550040 -0.14564505 -0.78240449
vn -0.78080807 -0.59166847 -0.20066684
vn -0.75698591 0.59134490 -0.27799918
vn -0.61334807 -0.14421283 -0.77653513
vn -0.94945626 -0.30628325 -0.06872690
vn -0.83231821 -0.22471827 0.50670317
vn -0.78573827 0.59114142 -0.18211862
vn -0.94945626 -0.30628325 -0.06872690
vn -0.69007656 -0.14444090 0.70917640
vn -0.75580631 0.65414633 -0.02914450
vn -0.82573691 -0.26418621 0.49836152
vn -0.69851310 0.68247590 -0.21518851
vn -0.46676268 -0.03935975 0.88350632
vn -0.79658801 -0.05746420 0.60178519
vn -0.81245830 0.56630134 0.13861568
vn -0.69007656 -0.14444090 0.70917640
vn -0.16592472 -0.33471833 0.92759508
vn -0.82283937 0.56610353 -0.04962019
vn -0.64874370 0.75988831 0.04124755
vn -0.51024054 0.01901530 0.85982150
vn -0.66651395 0.08018878 0.74116727
vn -0.35302783 0.11418856 0.92861850
vn -0.09107014 0.11860884 0.98875587
vn -0.21192453 0.08324924 0.97373382
vn -0.16488417 0.08414199 0.98271732
vn 0.09849268 -0.00089673 0.99513737
vn 0.43529796 -0.51942400 0.73533284
vn 0.21172525 0.03237110 0.97679298
vn 0.56659735 -0.48305411 0.66755237
vn -0.22936337 -0.01866592 0.97316187
vn 0.12507205 -0.59039014 0.79736846
vn -0.49022641 0.09588575 0.86630479
vn -0.11621243 -0.59032295 0.79875747
vn -0.23893084 -0.63650036 0.73333441
vn -0.63754210 0.02052712 0.77014200
vn 0.08547579 -0.65685524 0.74915625
vn -0.02244582 -0.81042455 0.58541288
vn 0.50401250 -0.68233542 0.52951844
vn 0.43592254 -0.57360772 0.69350251
vn -0.09049546 -0.92403759 0.37143655
vn 0.33109222 -0.82140067 0.46441241
vn 0.29707309 -0.69913521 0.65035186
vn -0.26846944 -0.66660906 0.69538229
vn -0.29477233 -0.79932810 0.52362569
vn 0.26858503 -0.94741658 0.17396524
vn 0.80781182 -0.52837701 0.26126195
vn 0.64366740 -0.48901624 0.58868956
vn 0.53364356 -0.71362555 0.45383160
vn 0.52858208 -0.84887979 0.00202209
vn 0.75389555 -0.65487596 -0.05271606
vn 0.15401332 -0.93050836 -0.33231626
vn 0.81568152 -0.57684081 -0.04379884
vn 0.38544790 -0.73413805 -0.55899127
vn 0.76003293 -0.45840921 -0.46066358
vn 0.52156505 -0.38685323 -0.76046991
vn 0.52664889 -0.63100373 -0.56962728
vn 0.58153626 -0.19933830 -0.78872037
vn 0.85944284 -0.05974800 -0.50772845
vn 0.39371534 -0.55528434 -0.73256231
vn 0.29707573 -0.41852576 -0.85824367
vn 0.25404942 -0.29311118 -0.92170751
vn 0.65636720 -0.28300254 -0.69935089
vn 0.81089521 -0.38054951 -0.44455711
vn 0.92831250 -0.26547511 -0.26030535
vn 0.91043656 -0.38125811 0.16046032
vn 0.98524070 0.01454392 -0.17055565
vn 0.73968234 -0.30811200 -0.59827839
vn 0.95729458 -0.01832356 -0.28853307
vn 0.98606368 -0.12955692 -0.10437157
vn 0.91669282 -0.29030848 0.27458198
vn 0.98200820 -0.17748054 -0.06450232
vn 0.95549477 -0.08481940 0.28255162
vn 0.96633732 0.07086798 -0.24732554
vn 0.93503925 0.13956155 -0.32592051
vn 0.98714417 0.06243923 0.14713169
vn 0.81590534 0.11891108 -0.56582562
vn 0.44715715 0.03263703 -0.89385978
vn 0.79982344 0.11510944 -0.58909446
vn 0.58246281 0.21558167 -0.78374844
vn 0.84780063 0.15227154 -0.50798373
vn 0.82128230 0.25695432 -0.50938185
vn 0.17562483 0.26177860 -0.94901416
vn 0.68775209 0.22109944 -0.69145651
vn 0.25364886 0.24813850 -0.93492756
vn 0.45172117 0.24149468 -0.85885290
vn 0.78511651 0.24344857 -0.56949527
vn 0.43482658 0.27923785 -0.85612620
vn -0.21451519 0.95210553 -0.21789514
vn 0.76069002 0.26371465 -0.59313175
vn -0.19413601 0.97703695 -0.08780664
vn 0.73737023 0.30995194 -0.60017909
vn -0.43890638 0.87020027 -0.22385863
vn -0.22717920 0.96123009 -0.15628921
vn 0.30576212 0.23964477 -0.92145532
vn -0.38760607 0.86178975 -0.32723074
vn -0.24030946 0.92274875 -0.30130733
vn -0.46125908 0.82963835 -0.31454774
vn 0.29961209 -0.10395359 -0.94838086
vn 0.33481381 0.24442727 -0.91003023
vn 0.09332970 0.20045781 -0.97524676
vn 0.12958982 0.15989346 -0.97859111
vn -0.59065390 0.73359570 -0.33610315
vn -0.54607120 0.81575203 -0.19066956
vn -0.49369767 0.86930694 -0.02383411
vn -0.23542936 0.97173156 0.01762920
vn -0.25075393 0.96511776 0.07530052
vn -0.47791946 0.87426566 0.08516193
vn -0.10616047 0.20864039 0.97221353
vn 0.96868873 0.12615919 0.21383638
vn -0.18890421 0.98199459 0.00135203
vn 0.76517052 0.31842619 0.55957023
vn 0.76517052 0.31842619 0.55957023
vn -0.25132061 0.96540263 0.06953929
vn 0.47028377 0.27427666 0.83881195
vn 0.90542102 0.26633279 0.33057468
vn 0.76517052 0.31842619 0.55957023
vn 0.39822390 0.20511544 0.89406117
vn 0.99934779 0.03548299 0.00670493
vn 0.01979930 0.99262726 -0.11957890
vn 0.74919142 0.38627662 -0.53805445
vn 0.97859105 0.19732839 0.05848986
vn 0.92572160 0.21896856 0.30837038
vn 0.97969093 0.18713991 -0.07200230
vn 0.92710041 0.09891651 0.36152504
vn 0.14529382 0.18915782 0.97113801
vn 0.54371177 0.07933882 0.83551353
vn 0.93322265 0.02117883 0.35867387
vn 0.69092186 -0.01531826 0.72276714
vn 0.53315419 -0.02818040 0.84554862
vn 0.75193814 -0.06128506 0.65637883
vn 0.88392814 -0.27987229 0.37462321
vn 0.79847285 -0.42160500 0.42975613
vn 0.61372477 -0.19117268 0.76602540
vn 0.16159138 0.09135874 0.98261987
vn 0.00933933 0.06698168 0.99771050
vn -0.27694522 0.95553946 -0.10122101
vn 0.24753497 0.23370520 0.94027034
vn -0.06276513 0.13253159 0.98918952
vn -0.18608390 0.10709219 0.97668011
vn -0.51867874 0.85083631 0.08396389
vn -0.31657973 0.03074595 0.94806749
vn -0.60609984 0.78072347 0.15203240
vn 0.04413900 0.18501649 -0.98174368
vn -0.69694331 0.62758203 -0.34700262
vn -0.55583156 -0.17921827 -0.81174632
vn -0.22745803 0.06762448 -0.97143696
vn -0.19653762 0.19002709 -0.96190575
vn -0.93910399 0.04087169 -0.34119380
vn -0.57737282 0.10032851 -0.81029304
vn 0.06775295 -0.26009348 -0.96320347
vn -0.29463061 0.46488126 -0.83491210
vn -0.94438083 -0.02548115 -0.32786516
vn -0.72047558 0.08936933 -0.68769766
vn -0.94256034 0.00416425 -0.33400998
vn 0.07991777 -0.26337359 -0.96137792
vn -0.36697926 0.41829271 -0.83087751
vn 0.05744443 0.27606872 -0.95941972
vn -0.91099959 0.01631109 -0.41208457
vn -0.68498683 0.05240995 -0.72666790
vn -0.94922458 0.11657612 -0.29220319
vn -0.70976493 0.07691038 -0.70022749
vn -0.72433248 -0.56505685 -0.39503571
vn -0.70596219 0.07907489 -0.70382139
vn -0.58058803 -0.50660041 -0.63739593
vn -0.54520679 -0.61174413 -0.57316548
vn -0.32055925 -0.50266014 -0.80285401
vn -0.25300311 -0.69073365 -0.67740419
vn -0.32762425 -0.85600493 -0.39989737
vn -0.23761400 -0.97132800 -0.00784280
vn 0.12093908 -0.49077834 -0.86285014
vn 0.06188170 -0.69048318 -0.72069663
vn -0.44700132 -0.49943955 -0.74212530
vn -0.27320584 -0.42365382 -0.86364113
vn -0.70479439 0.06675217 -0.70626412
vn -0.07597005 -0.43189505 -0.89871865
vn -0.11617940 -0.57711832 -0.80835437
vn -0.68372185 0.05110781 -0.72795084
vn 0.00092880 -0.30752439 -0.95153975
vn -0.94540022 -0.05953482 -0.32042788
vn 0.17971218 -0.07291136 -0.98101349
vn 0.35763651 0.01436424 -0.93375039
vn 0.98568014 -0.14307776 -0.08923798
vn 0.81710369 -0.41768003 0.39734739
vn -0.81892207 0.06087323 -0.57066724
vn -0.54150688 -0.10714035 -0.83384126
vt 0.88159200 0.26276200
vt 0.99227200 0.46731400
vt 0.88664400 0.26413800
vt 0.98812100 0.47303800
vt 0.88229800 0.26799000
vt 0.99382600 0.47241300
vt 0.98877700 0.46312800
vt 0.83027500 0.60034700
vt 0.83027500 0.60034700
vt 0.88214100 0.25796500
vt 0.98568600 0.46810100
vt 0.83295100 0.60229900
vt 0.88438700 0.25952800
vt 0.88995100 0.25589100
vt 0.83833200 0.59912200
vt 0.90087000 0.26242100
vt 0.91085700 0.26215400
vt 0.67513700 0.97180600
vt 0.89579000 0.26526800
vt 0.65999500 0.89730700
vt 0.89747300 0.27415400
vt 0.66159100 0.90383300
vt 0.90216400 0.27088200
vt 0.89088100 0.26768700
vt 0.90439000 0.26418400
vt 0.62879800 0.97180600
vt 0.90746700 0.26745900
vt 0.90746700 0.26745900
vt 0.62879800 0.97930800
vt 0.90846800 0.27468100
vt 0.66000300 0.90929000
vt 0.63081400 0.97784500
vt 0.90965000 0.27354400
vt 0.66208900 0.91181400
vt 0.90965000 0.27354400
vt 0.91011200 0.26801000
vt 0.91011200 0.26801000
vt 0.91011200 0.26801000
vt 0.67235200 0.97444500
vt 0.91344100 0.26332800
vt 0.91344100 0.26332800
vt 0.91727000 0.26974700
vt 0.86696900 0.60229900
vt 0.91713300 0.25884200
vt 0.91713300 0.25884200
vt 0.67513700 0.97857900
vt 0.86857400 0.60183500
vt 0.91871000 0.25815000
vt 0.92103200 0.26090600
vt 0.85386300 0.59904700
vt 0.90521000 0.25726800
vt 0.84679800 0.59193900
vt 0.84475000 0.58754500
vt 0.85700900 0.59313300
vt 0.83993700 0.58936100
vt 0.83849200 0.58553100
vt 0.83849200 0.58553100
vt 0.84070600 0.58305400
vt 0.84070600 0.58305400
vt 0.83603000 0.58991400
vt 0.83603000 0.58991400
vt 0.83413900 0.59464300
vt 0.83413900 0.59464300
vt 0.83225500 0.59678100
vt 0.83225500 0.59678100
vt 0.82825100 0.58926900
vt 0.97766700 0.46312800
vt 0.97280000 0.46413400
vt 0.83076600 0.58443000
vt 0.97979100 0.46897200
vt 0.97548700 0.46763200
vt 0.82505900 0.58619400
vt 0.82614700 0.59391000
vt 0.98272900 0.46459500
vt 0.97683200 0.47141300
vt 0.83007800 0.23313100
vt 0.82953500 0.58106100
vt 0.97023900 0.46876700
vt 0.97369000 0.47379300
vt 0.82505900 0.22693400
vt 0.97859600 0.47603100
vt 0.82930400 0.22708400
vt 0.97714400 0.47919500
vt 0.82926500 0.22073100
vt 0.64216000 0.87789300
vt 0.97310200 0.48072200
vt 0.63719100 0.89301100
vt 0.84555800 0.21687400
vt 0.97807300 0.48378000
vt 0.64654200 0.87876900
vt 0.64505700 0.88403900
vt 0.83557500 0.21387200
vt 0.83162700 0.22251800
vt 0.83626200 0.22392900
vt 0.83482200 0.23086500
vt 0.84403000 0.22005300
vt 0.84403000 0.22005300
vt 0.84761600 0.22118400
vt 0.84355600 0.22582500
vt 0.84302400 0.23572200
vt 0.84925200 0.23031100
vt 0.85316400 0.23449600
vt 0.86092400 0.22707600
vt 0.86594700 0.22648900
vt 0.86413200 0.23253900
vt 0.85465500 0.21802900
vt 0.63901600 0.89653700
vt 0.84904500 0.21387200
vt 0.63505300 0.91199000
vt 0.86425000 0.22117000
vt 0.87699200 0.22538800
vt 0.64008000 0.90333000
vt 0.85552600 0.21427900
vt 0.64255700 0.91253900
vt 0.63790400 0.91922600
vt 0.87110400 0.21920700
vt 0.63854300 0.92599800
vt 0.98412600 0.94462800
vt 0.87754400 0.22050100
vt 0.98065800 0.94307700
vt 0.87903500 0.22436400
vt 0.92936800 0.26799500
vt 0.98218600 0.95016400
vt 0.64311500 0.92388300
vt 0.92899800 0.27300100
vt 0.98679900 0.94783400
vt 0.92452400 0.27455200
vt 0.64856600 0.92135300
vt 0.64165600 0.91839400
vt 0.65048900 0.91464700
vt 0.65260600 0.91881200
vt 0.92058400 0.27559400
vt 0.92317600 0.26862800
vt 0.92858100 0.26228200
vt 0.97661300 0.95230500
vt 0.97023900 0.95290900
vt 0.92784000 0.25589100
vt 0.87547600 0.59262600
vt 0.88017500 0.23112900
vt 0.97424100 0.94224600
vt 0.97424100 0.94224600
vt 0.97203300 0.94363700
vt 0.97203300 0.94363700
vt 0.87876800 0.58237500
vt 0.87562700 0.23439700
vt 0.97023900 0.94113100
vt 0.87493500 0.58064200
vt 0.87985400 0.22850400
vt 0.97680600 0.94122000
vt 0.87985400 0.22850400
vt 0.87705300 0.23018800
vt 0.87289400 0.23294400
vt 0.87224100 0.23016800
vt 0.86955100 0.23637200
vt 0.86906700 0.57903800
vt 0.86347300 0.57969600
vt 0.86140200 0.23669100
vt 0.86094700 0.57749300
vt 0.85445200 0.58015900
vt 0.84367800 0.57751900
vt 0.84390200 0.23772500
vt 0.84197700 0.24017500
vt 0.84214200 0.57980400
vt 0.86182300 0.58258300
vt 0.85587500 0.58454200
vt 0.97034100 0.94625700
vt 0.87821900 0.58509500
vt 0.86961800 0.58732500
vt 0.87279100 0.59698100
vt 0.92395600 0.25621800
vt 0.87108400 0.59910500
vt 0.92173300 0.25670800
vt 0.65804500 0.91362200
vt 0.91368000 0.27706400
vt 0.65804500 0.91362200
vt 0.65463100 0.90811900
vt 0.65122200 0.90070700
vt 0.43519500 0.97180600
vt 0.65393800 0.89787300
vt 0.65304500 0.89097500
vt 0.65304500 0.89097500
vt 0.43812200 0.97775800
vt 0.65404600 0.89208600
vt 0.43521900 0.97705900
vt 0.65077600 0.89186400
vt 0.65077600 0.89186400
vt 0.65077600 0.89186400
vt 0.89020400 0.27271800
vt 0.66077100 0.88996500
vt 0.88339800 0.27246600
vt 0.66208900 0.88318000
vt 0.99312100 0.47716300
vt 0.65921200 0.88202800
vt 0.99064100 0.48055200
vt 0.98772900 0.47863900
vt 0.65318400 0.87603200
vt 0.98391700 0.47994100
vt 0.98323800 0.47594800
vt 0.98152900 0.47248500
vt 0.64931200 0.87567500
vt 0.98015100 0.48102800
vt 0.98843300 0.48366300
vt 0.65649000 0.88258400
vt 0.65649000 0.88258400
vt 0.65150300 0.87949900
vt 0.98319700 0.48414700
vt 0.65347400 0.88549000
vt 0.65347400 0.88549000
vt 0.43519500 0.98274000
vt 0.64753100 0.89138500
vt 0.64257300 0.89391100
vt 0.83941000 0.23252200
vt 0.83941000 0.23252200
vt 0.90569000 0.27588300
vt 0.65781800 0.90495200
f 1/1/1 13/13/13 3/3/3
f 1/1/1 3/3/3 5/5/5
f 11/11/11 2/2/2 4/4/4
f 2/2/2 6/6/6 4/4/4
f 7/7/7 2/2/2 11/11/11
f 1/1/1 10/10/10 13/13/13
f 65/65/65 12/12/12 9/9/9
f 17/17/17 13/13/13 14/14/14
f 13/13/13 19/19/19 3/3/3
f 16/16/16 25/25/25 19/19/19
f 24/24/24 19/19/19 21/21/21
f 19/19/19 23/23/23 21/21/21
f 19/19/19 25/25/25 23/23/23
f 3/3/3 24/24/24 5/5/5
f 25/25/25 17/17/17 27/27/27
f 25/25/25 27/27/27 23/23/23
f 23/23/23 27/27/27 30/30/30
f 29/29/29 26/26/26 32/32/32
f 38/38/38 35/35/35 28/28/28
f 17/17/17 36/36/36 27/27/27
f 42/42/42 37/37/37 40/40/40
f 18/18/18 46/46/46 39/39/39
f 49/49/49 40/40/40 45/45/45
f 48/48/48 49/49/49 45/45/45
f 52/52/52 171/171/171 43/43/43
f 44/44/44 17/17/17 51/51/51
f 52/52/52 15/15/15 62/62/62
f 52/52/52 55/55/55 53/53/53
f 52/52/52 165/165/165 54/54/54
f 60/60/60 56/56/56 55/55/55
f 55/55/55 56/56/56 58/58/58
f 53/53/53 55/55/55 58/58/58
f 62/62/62 60/60/60 55/55/55
f 64/64/64 66/66/66 63/63/63
f 61/61/61 63/63/63 66/66/66
f 61/61/61 69/69/69 57/57/57
f 69/69/69 66/66/66 72/72/72
f 67/67/67 74/74/74 70/70/70
f 67/67/67 70/70/70 71/71/71
f 70/70/70 74/74/74 11/11/11
f 11/11/11 74/74/74 7/7/7
f 8/8/8 73/73/73 64/64/64
f 70/70/70 75/75/75 71/71/71
f 71/71/71 75/75/75 79/79/79
f 71/71/71 79/79/79 78/78/78
f 68/68/68 71/71/71 78/78/78
f 82/82/82 76/76/76 80/80/80
f 81/81/81 83/83/83 79/79/79
f 75/75/75 81/81/81 79/79/79
f 82/82/82 84/84/84 93/93/93
f 83/83/83 86/86/86 79/79/79
f 89/89/89 86/86/86 83/83/83
f 94/94/94 84/84/84 88/88/88
f 88/88/88 84/84/84 92/92/92
f 90/90/90 91/91/91 85/85/85
f 94/94/94 82/82/82 93/93/93
f 82/82/82 94/94/94 95/95/95
f 94/94/94 96/96/96 95/95/95
f 98/98/98 96/96/96 88/88/88
f 96/96/96 99/99/99 212/212/212
f 99/99/99 96/96/96 98/98/98
f 101/101/101 100/100/100 99/99/99
f 98/98/98 101/101/101 99/99/99
f 161/161/161 101/101/101 102/102/102
f 102/102/102 103/103/103 105/105/105
f 106/106/106 98/98/98 88/88/88
f 104/104/104 106/106/106 110/110/110
f 103/103/103 104/104/104 105/105/105
f 108/108/108 106/106/106 88/88/88
f 113/113/113 106/106/106 108/108/108
f 121/121/121 110/110/110 116/116/116
f 109/109/109 112/112/112 114/114/114
f 115/115/115 109/109/109 114/114/114
f 117/117/117 114/114/114 129/129/129
f 118/118/118 123/123/123 120/120/120
f 123/123/123 118/118/118 126/126/126
f 127/127/127 122/122/122 125/125/125
f 130/130/130 176/176/176 131/131/131
f 130/130/130 129/129/129 114/114/114
f 133/133/133 132/132/132 42/42/42
f 133/133/133 42/42/42 49/49/49
f 134/134/134 133/133/133 49/49/49
f 122/122/122 133/133/133 134/134/134
f 170/170/170 134/134/134 49/49/49
f 136/136/136 143/143/143 140/140/140
f 120/120/120 135/135/135 140/140/140
f 142/142/142 146/146/146 141/141/141
f 151/151/151 139/139/139 145/145/145
f 120/120/120 140/140/140 149/149/149
f 111/111/111 121/121/121 150/150/150
f 151/151/151 111/111/111 148/148/148
f 151/151/151 153/153/153 111/111/111
f 152/152/152 151/151/151 145/145/145
f 151/151/151 152/152/152 153/153/153
f 104/104/104 111/111/111 153/153/153
f 152/152/152 105/105/105 153/153/153
f 153/153/153 105/105/105 104/104/104
f 152/152/152 145/145/145 154/154/154
f 157/157/157 105/105/105 152/152/152
f 156/156/156 147/147/147 167/167/167
f 158/158/158 156/156/156 159/159/159
f 160/160/160 159/159/159 163/163/163
f 161/161/161 102/102/102 157/157/157
f 76/76/76 213/213/213 161/161/161
f 69/69/69 59/59/59 57/57/57
f 159/159/159 58/58/58 163/163/163
f 77/77/77 163/163/163 69/69/69
f 159/159/159 156/156/156 164/164/164
f 159/159/159 165/165/165 58/58/58
f 54/54/54 165/165/165 164/164/164
f 169/169/169 54/54/54 164/164/164
f 168/168/168 164/164/164 167/167/167
f 138/138/138 168/168/168 167/167/167
f 170/170/170 49/49/49 172/172/172
f 165/165/165 53/53/53 58/58/58
f 42/42/42 174/174/174 33/33/33
f 31/31/31 34/34/34 175/175/175
f 176/176/176 31/31/31 175/175/175
f 179/179/179 176/176/176 177/177/177
f 189/189/189 215/215/215 176/176/176
f 177/177/177 186/186/186 179/179/179
f 186/186/186 181/181/181 179/179/179
f 182/182/182 184/184/184 178/178/178
f 189/189/189 183/183/183 204/204/204
f 5/5/5 188/188/188 190/190/190
f 24/24/24 21/21/21 188/188/188
f 4/4/4 6/6/6 192/192/192
f 195/195/195 192/192/192 194/194/194
f 192/192/192 195/195/195 4/4/4
f 197/197/197 198/198/198 195/195/195
f 195/195/195 202/202/202 197/197/197
f 198/198/198 4/4/4 195/195/195
f 199/199/199 198/198/198 81/81/81
f 198/198/198 201/201/201 81/81/81
f 199/199/199 4/4/4 198/198/198
f 199/199/199 75/75/75 70/70/70
f 199/199/199 81/81/81 75/75/75
f 199/199/199 11/11/11 4/4/4
f 199/199/199 70/70/70 11/11/11
f 206/206/206 201/201/201 197/197/197
f 196/196/196 203/203/203 205/205/205
f 205/205/205 203/203/203 208/208/208
f 205/205/205 90/90/90 200/200/200
f 91/91/91 90/90/90 205/205/205
f 185/185/185 91/91/91 208/208/208
f 182/182/182 209/209/209 184/184/184
f 201/201/201 89/89/89 83/83/83
f 201/201/201 83/83/83 81/81/81
f 112/112/112 187/187/187 177/177/177
f 211/211/211 187/187/187 112/112/112
f 91/91/91 210/210/210 211/211/211
f 211/211/211 87/87/87 91/91/91
f 211/211/211 112/112/112 107/107/107
f 95/95/95 76/76/76 82/82/82
f 22/22/22 31/31/31 215/215/215
f 23/23/23 214/214/214 21/21/21
f 65/65/65 15/15/15 12/12/12
f 14/14/14 51/51/51 17/17/17
f 17/17/17 16/16/16 13/13/13
f 13/13/13 16/16/16 19/19/19
f 16/16/16 17/17/17 25/25/25
f 3/3/3 19/19/19 24/24/24
f 17/17/17 41/41/41 36/36/36
f 42/42/42 33/33/33 37/37/37
f 49/49/49 42/42/42 40/40/40
f 48/48/48 172/172/172 49/49/49
f 43/43/43 50/50/50 52/52/52
f 52/52/52 54/54/54 171/171/171
f 171/171/171 47/47/47 43/43/43
f 62/62/62 55/55/55 52/52/52
f 52/52/52 50/50/50 15/15/15
f 15/15/15 65/65/65 62/62/62
f 52/52/52 53/53/53 165/165/165
f 64/64/64 73/73/73 66/66/66
f 61/61/61 66/66/66 69/69/69
f 82/82/82 80/80/80 84/84/84
f 88/88/88 97/97/97 94/94/94
f 94/94/94 93/93/93 84/84/84
f 212/212/212 95/95/95 96/96/96
f 99/99/99 100/100/100 212/212/212
f 98/98/98 103/103/103 101/101/101
f 161/161/161 100/100/100 101/101/101
f 102/102/102 101/101/101 103/103/103
f 106/106/106 103/103/103 98/98/98
f 104/104/104 103/103/103 106/106/106
f 110/110/110 111/111/111 104/104/104
f 113/113/113 110/110/110 106/106/106
f 116/116/116 119/119/119 121/121/121
f 121/121/121 111/111/111 110/110/110
f 129/129/129 124/124/124 117/117/117
f 117/117/117 115/115/115 114/114/114
f 127/127/127 133/133/133 122/122/122
f 131/131/131 128/128/128 124/124/124
f 124/124/124 129/129/129 130/130/130
f 130/130/130 114/114/114 112/112/112
f 112/112/112 177/177/177 176/176/176
f 176/176/176 173/173/173 131/131/131
f 131/131/131 124/124/124 130/130/130
f 130/130/130 112/112/112 176/176/176
f 133/133/133 127/127/127 132/132/132
f 170/170/170 137/137/137 134/134/134
f 140/140/140 135/135/135 136/136/136
f 136/136/136 166/166/166 143/143/143
f 120/120/120 123/123/123 135/135/135
f 151/151/151 148/148/148 139/139/139
f 152/152/152 154/154/154 157/157/157
f 157/157/157 102/102/102 105/105/105
f 167/167/167 164/164/164 156/156/156
f 156/156/156 155/155/155 147/147/147
f 147/147/147 144/144/144 167/167/167
f 158/158/158 155/155/155 156/156/156
f 160/160/160 158/158/158 159/159/159
f 161/161/161 162/162/162 76/76/76
f 76/76/76 95/95/95 213/213/213
f 213/213/213 100/100/100 161/161/161
f 69/69/69 163/163/163 59/59/59
f 159/159/159 164/164/164 165/165/165
f 164/164/164 168/168/168 169/169/169
f 169/169/169 171/171/171 54/54/54
f 138/138/138 169/169/169 168/168/168
f 42/42/42 132/132/132 174/174/174
f 176/176/176 179/179/179 189/189/189
f 189/189/189 20/20/20 215/215/215
f 215/215/215 31/31/31 176/176/176
f 193/193/193 191/191/191 189/189/189
f 189/189/189 179/179/179 183/183/183
f 183/183/183 207/207/207 204/204/204
f 204/204/204 193/193/193 189/189/189
f 5/5/5 24/24/24 188/188/188
f 195/195/195 194/194/194 202/202/202
f 198/198/198 197/197/197 201/201/201
f 208/208/208 180/180/180 185/185/185
f 185/185/185 210/210/210 91/91/91
f 91/91/91 205/205/205 208/208/208
f 211/211/211 210/210/210 187/187/187
f 211/211/211 107/107/107 87/87/87

