# ('FARMS composite mesh',)
mtllib link_body_31_composite.mtl

o link_body_31
usemtl link_body_31_composite
v -0.91841500 0.11394000 -5.68059300
v -0.91841500 0.11394000 -5.68059300
v 0.40622700 0.04323700 -5.74520200
v 0.40622700 0.04323700 -5.74520200
v 0.40622700 0.04323700 -5.74520200
v -1.84578700 -0.00000100 -5.34769600
v -0.94012100 -0.11868900 -5.67580600
v -0.94012100 -0.11868900 -5.67580600
v -1.85401900 0.40896900 -5.32130400
v -1.85401900 0.40896900 -5.32130400
v 2.25208600 0.24964400 -5.49853900
v 2.25208600 0.24964400 -5.49853900
v 2.25208600 0.24964400 -5.49853900
v 0.38506700 -0.04262100 -5.74586900
v 0.38506700 -0.04262100 -5.74586900
v 0.38506700 -0.04262100 -5.74586900
v 2.21957300 -0.25712400 -5.49253700
v 2.21957300 -0.25712400 -5.49253700
v 2.21957300 -0.25712400 -5.49253700
v 1.94860400 0.00000000 -5.69516000
v 1.94860400 0.00000000 -5.69516000
v 1.94860400 0.00000000 -5.69516000
v 2.45006500 0.07316500 -5.57538200
v 2.45006500 0.07316500 -5.57538200
v 2.45562700 -0.06327300 -5.57860200
v 2.45562700 -0.06327300 -5.57860200
v 2.45562700 -0.06327300 -5.57860200
v 2.09426100 0.27581000 -5.44777000
v 2.09426100 0.27581000 -5.44777000
v 1.23547300 0.00000000 -4.90529200
v 1.20400200 0.62315200 -4.82782600
v 1.20400200 0.62315200 -4.82782600
v -3.28726500 0.99931600 -4.10580900
v -3.28726500 0.99931600 -4.10580900
v -3.28726500 0.99931600 -4.10580900
v 0.59241100 0.87331400 -4.19006700
v 0.59241100 0.87331400 -4.19006700
v 0.59241100 0.87331400 -4.19006700
v -2.80914300 1.26213900 -3.46024300
v 0.50869700 0.00000100 -4.18955600
v 0.50869700 0.00000100 -4.18955600
v -0.08774600 -0.00000000 -3.31743000
v 0.58368300 -0.86646600 -4.18434800
v 0.58368300 -0.86646600 -4.18434800
v 0.58368300 -0.86646600 -4.18434800
v 1.20400200 -0.62315100 -4.82782800
v 1.20400200 -0.62315100 -4.82782800
v 0.02125200 1.10295000 -3.31855800
v 0.02125200 1.10295000 -3.31855800
v -0.44580500 1.03732100 -2.32242800
v -2.37892100 1.38876900 -2.77907200
v -0.53094500 0.00000100 -2.32242800
v -0.34623300 1.30897500 -2.39300100
v -0.34623300 1.30897500 -2.39300100
v -0.64688100 1.32507300 -1.30199900
v -0.64688100 1.32507300 -1.30199900
v -2.34744200 1.43570800 -2.19967700
v -2.32089200 1.43385800 -1.46834000
v -4.26213700 1.46128500 -2.22217200
v -4.26213700 1.46128500 -2.22217200
v -3.85189400 1.34780000 -3.18028900
v -3.85189400 1.34780000 -3.18028900
v -3.93352400 0.93891200 -3.21584600
v -4.37071900 1.04327000 -2.21511800
v -4.63994500 1.10753200 -1.12925900
v -4.45635100 0.00000100 -2.21511800
v -4.57290600 1.39515400 -1.09653200
v -4.57290600 1.39515400 -1.09653200
v -4.01058900 -0.00000000 -3.21584600
v -3.41069700 0.00000100 -4.09298300
v -3.41069700 0.00000100 -4.09298300
v -3.93352400 -0.93891200 -3.21584600
v -3.93352400 -0.93891200 -3.21584600
v -4.37072700 -1.04325500 -2.21510800
v -4.63994500 -1.10753000 -1.12925900
v -4.27769800 -1.47000800 -2.17099300
v -4.27769800 -1.47000800 -2.17099300
v -3.85189400 -1.34780000 -3.18029000
v -3.85189400 -1.34780000 -3.18029000
v -3.85189400 -1.34780000 -3.18029000
v -4.57290600 -1.39515400 -1.09653200
v -4.57290600 -1.39515400 -1.09653200
v -1.94433600 -0.64080500 3.43992400
v -3.95843400 -0.55989200 3.22733900
v -3.95843400 -0.55989200 3.22733900
v -3.95843400 -0.55989200 3.22733900
v -3.95843400 -0.55989200 3.22733900
v -4.73106300 -1.12589100 -0.00352400
v -4.73106300 -1.12589100 -0.00352400
v -2.32089200 -1.43385800 -1.46834000
v -2.43295200 -0.41464900 4.47075600
v -2.68274300 -0.25955700 4.79243700
v -2.68274300 -0.25955700 4.79243700
v 1.28936800 -0.26588100 4.68849300
v 1.28936800 -0.26588100 4.68849300
v 0.54396100 -0.42732200 3.94977600
v 0.54396100 -0.42732200 3.94977600
v 0.54396100 -0.42732200 3.94977600
v 1.23547400 0.00000000 4.66529000
v -2.31269400 -0.12150200 5.04178300
v -2.31269400 -0.12150200 5.04178300
v 1.68398700 -0.12175100 4.95250200
v 1.68398700 -0.12175100 4.95250200
v 1.68398700 -0.12175100 4.95250200
v 1.30411900 0.00000000 5.01176000
v 1.68779000 0.12760300 4.94956300
v 1.68779000 0.12760300 4.94956300
v 1.68779000 0.12760300 4.94956300
v -2.68274600 0.25955800 4.79243500
v -2.68274600 0.25955800 4.79243500
v -2.29180900 0.09559700 5.06010000
v -2.29180900 0.09559700 5.06010000
v 1.29006900 0.26549900 4.68965400
v 1.29006900 0.26549900 4.68965400
v 0.54396800 0.42732000 3.94978700
v 0.54396800 0.42732000 3.94978700
v 0.54396800 0.42732000 3.94978700
v -2.43295200 0.41464900 4.47075600
v -1.94433600 0.64080500 3.43992400
v -0.72484600 0.96277700 1.00278700
v -0.72484600 0.96277700 1.00278700
v -0.03877200 0.59669500 3.07742900
v -0.03877200 0.59669500 3.07742900
v -0.46711300 0.77771100 2.08242700
v -0.46711300 0.77771100 2.08242700
v -0.53094500 0.00000100 2.08242700
v -0.80386700 0.00000100 1.00278700
v -0.89601900 0.00000100 -0.12000000
v -0.72484600 -0.96277700 1.00278700
v -0.72484600 -0.96277700 1.00278700
v -0.46711300 -0.77771100 2.08242700
v -0.46711300 -0.77771100 2.08242700
v -0.03877300 -0.59669500 3.07742900
v -0.03877300 -0.59669500 3.07742900
v -0.08774600 0.00000000 3.07742900
v 0.50869800 0.00000100 3.94955500
v 0.50869800 0.00000100 3.94955500
v -0.80006800 -1.14294100 -0.11189700
v -0.80006800 -1.14294100 -0.11189700
v -0.71348200 -1.10121100 -1.24278800
v -0.64330700 -1.32339400 -1.31271900
v -0.64330700 -1.32339400 -1.31271900
v -2.10033400 -1.41076400 -2.56421300
v -0.32810200 -1.30844900 -2.43471200
v -0.32810200 -1.30844900 -2.43471200
v -0.44580500 -1.03731900 -2.32242800
v -0.01112400 -0.93356300 -3.31743000
v 0.04961400 -1.11084500 -3.34136500
v 0.04961400 -1.11084500 -3.34136500
v -2.80914300 -1.26214000 -3.46024300
v -3.28606000 -0.99903200 -4.10738900
v -3.28606000 -0.99903200 -4.10738900
v -3.28606000 -0.99903200 -4.10738900
v -3.28606000 -0.99903200 -4.10738900
v -2.62718900 -0.62827500 -4.81344300
v -2.62718900 -0.62827500 -4.81344300
v -1.85461800 -0.40907800 -5.32111200
v -1.85461800 -0.40907800 -5.32111200
v -2.67972500 -0.00000000 -4.81282000
v -2.62662800 0.62964600 -4.81374000
v -2.62662800 0.62964600 -4.81374000
v -0.80386700 0.00000100 -1.24278800
v -0.71348200 1.10121400 -1.24278800
v -0.80029700 1.14328200 -0.11466200
v -0.80029700 1.14328200 -0.11466200
v -3.39279500 0.38365000 4.07809900
v -3.39279500 0.38365000 4.07809900
v -3.39279500 0.38365000 4.07809900
v -3.39279500 0.38365000 4.07809900
v -3.39279500 0.38365000 4.07809900
v -3.96611700 0.55925400 3.21327200
v -3.96611700 0.55925400 3.21327200
v -4.73106300 1.12589100 -0.00352800
v -4.73106300 1.12589100 -0.00352800
v -4.40113400 0.67273800 2.21512100
v -4.40113400 0.67273800 2.21512100
v -4.46119200 0.01409100 2.19596900
v -4.01058900 -0.00000000 3.21584600
v -4.01058900 -0.00000000 3.21584600
v -4.73084900 0.00000100 1.12925900
v -4.40113400 -0.67273900 2.21512200
v -4.40113400 -0.67273900 2.21512200
v -4.66134500 -0.84680800 1.12925800
v -4.66134500 -0.84680800 1.12925800
v -4.82353900 -0.00000000 0.00000700
v -4.73084900 0.00000100 -1.12925900
v -4.66134500 0.84680900 1.12925700
v -4.66134500 0.84680900 1.12925700
v -3.41069700 0.00000100 4.09298300
v -3.41069700 0.00000100 4.09298300
v -2.67972500 -0.00000000 4.81282000
v -3.38047700 -0.36816800 4.09298500
v -3.38047700 -0.36816800 4.09298500
v -3.38047700 -0.36816800 4.09298500
v -4.42058500 1.44728500 -1.63695500
v -4.42058500 1.44728500 -1.63695500
vn -0.20466085 0.00458455 -0.97882221
vn 0.00314010 0.77478645 -0.63221523
vn -0.00255072 0.00839698 -0.99996149
vn 0.00682037 0.74118773 -0.67126316
vn 0.04267936 0.58564083 -0.80944628
vn -0.44224995 0.00064430 -0.89689161
vn -0.22155511 -0.00757643 -0.97511842
vn 0.00271505 -0.77486778 -0.63211751
vn 0.00057819 0.88379408 -0.46787571
vn -0.46369883 0.04775890 -0.88470474
vn 0.10344260 0.53476886 -0.83864289
vn 0.01187842 0.85231321 -0.52289684
vn 0.29192230 -0.08723449 0.95245552
vn -0.01503537 0.00945138 -0.99984229
vn 0.00674781 -0.73852453 -0.67419283
vn 0.04223502 -0.59055967 -0.80588801
vn 0.44993279 0.03571075 0.89234815
vn 0.01085149 -0.85305306 -0.52171134
vn 0.10073673 -0.54814250 -0.83029628
vn 0.03242134 -0.00022579 -0.99947426
vn 0.06128311 -0.57714540 -0.81433873
vn 0.07423935 0.53432924 -0.84200997
vn 0.19319218 0.23527958 -0.95253362
vn 0.32970112 -0.01555083 0.94395728
vn 0.22774762 0.03225195 -0.97318592
vn 0.12720312 -0.52775457 -0.83981812
vn 0.33849549 -0.00232270 0.94096515
vn 0.46029175 0.00144675 0.88776653
vn 0.01688865 0.90482575 -0.42544698
vn 0.61665496 0.00524021 0.78721611
vn 0.01683601 0.89579709 -0.44414426
vn 0.64973085 -0.06562961 0.75732594
vn -0.00609886 0.91915466 -0.39384962
vn -0.70808878 0.07845389 -0.70175157
vn -0.80739004 0.11658851 -0.57838434
vn 0.70679376 -0.06733975 0.70420731
vn 0.82416369 -0.07867447 0.56086053
vn 0.04312741 0.95061942 -0.30734793
vn 0.02159042 0.95552463 -0.29411992
vn 0.70550972 -0.00036982 0.70870015
vn 0.82574050 -0.00282022 0.56404314
vn 0.87384990 -0.00628740 0.48615514
vn 0.82031743 0.08422276 0.56567291
vn 0.70594865 0.06533333 0.70524327
vn 0.04726579 -0.95299386 -0.29928022
vn 0.64065343 0.06638143 0.76495535
vn 0.01697647 -0.89892556 -0.43777235
vn 0.07011226 0.97619361 -0.20525671
vn 0.87204880 -0.09345040 0.48041432
vn 0.93166683 -0.15977875 0.32629383
vn 0.03748875 0.98875049 -0.14480006
vn 0.94483959 -0.00177284 0.32752864
vn 0.90731650 -0.24352689 0.34274105
vn 0.06884824 0.99166084 -0.10894356
vn 0.95266760 -0.23976207 0.18691866
vn 0.05673354 0.99553080 0.07549658
vn 0.03397723 0.99855487 -0.04163784
vn 0.03345882 0.99641789 0.07766529
vn -0.91530880 0.23110195 -0.32985101
vn 0.00947485 0.99946376 -0.03134361
vn 0.00553047 0.98175873 -0.19005053
vn -0.85157161 0.21312116 -0.47896260
vn -0.85915630 0.14100642 -0.49190206
vn -0.93253470 0.15537059 -0.32594326
vn -0.97247736 0.16229782 -0.16717414
vn -0.94543148 0.00000107 -0.32582100
vn -0.95566984 0.24002942 -0.17053159
vn -0.02122478 0.98919202 0.14508152
vn -0.87412097 0.00000024 -0.48570828
vn -0.70714573 0.00015343 -0.70706781
vn -0.81818708 -0.00007673 -0.57495208
vn -0.79798895 -0.20848121 -0.56546372
vn -0.87567375 -0.11975847 -0.46781770
vn -0.93185468 -0.15553569 -0.32780408
vn -0.97247769 -0.16229682 -0.16717324
vn -0.91790137 -0.23327822 -0.32099588
vn 0.00318039 -0.99996245 -0.00806148
vn 0.00386564 -0.98053860 -0.19628833
vn -0.88666434 -0.21782516 -0.40789526
vn -0.79798895 -0.20848121 -0.56546372
vn -0.95588345 -0.23996178 -0.16942603
vn -0.02295895 -0.99065281 0.13446152
vn 0.00682083 -0.98229996 0.18719044
vn -0.09813128 -0.97172803 0.21474377
vn -0.84142450 -0.01210137 0.54023918
vn -0.91199938 -0.07379800 0.40349844
vn -0.79804710 -0.06203575 0.59939336
vn -0.18987970 -0.95844508 0.21290542
vn -0.99541251 -0.09478512 -0.01302743
vn 0.03400612 -0.99680051 0.07233476
vn -0.04815804 -0.94678916 0.31823118
vn -0.63597622 -0.04942451 0.77012432
vn -0.07485879 -0.91636164 0.39329062
vn 0.62336768 0.05830878 -0.77975177
vn 0.01706363 -0.91262334 0.40844519
vn 0.82353181 0.06764258 -0.56322272
vn 0.05132044 -0.98543075 0.16214946
vn 0.69928311 0.06097101 -0.71223989
vn 0.63267062 -0.00032154 -0.77442094
vn -0.32829014 -0.05134395 0.94318046
vn 0.01092504 -0.88168705 0.47170815
vn 0.13078098 -0.07317632 0.98870701
vn 0.01038046 -0.88411765 0.46714904
vn 0.53876286 -0.00263294 -0.84245335
vn 0.03765460 -0.00132579 0.99928993
vn 0.01012805 0.88644707 0.46271916
vn 0.53651152 -0.02242471 -0.84359500
vn 0.13009448 0.09012076 0.98739743
vn -0.64215320 0.05421856 0.76465654
vn -0.07075060 0.91162574 0.40488624
vn -0.28820397 -0.04041757 0.95671568
vn 0.00739332 0.85748180 0.51446118
vn 0.01707156 0.91634962 0.40001493
vn 0.61955272 -0.05554741 -0.78298717
vn 0.82353200 -0.06764278 -0.56322242
vn 0.69934910 -0.06077693 -0.71219169
vn 0.05127855 0.98540136 0.16234122
vn -0.04575678 0.94695228 0.31810014
vn 0.00682653 0.98229859 0.18719742
vn 0.05069417 0.98648413 0.15581774
vn 0.98451091 -0.08115350 -0.15541035
vn 0.05260684 0.98627123 0.15652982
vn 0.87417441 -0.07174852 -0.48028246
vn 0.05252265 0.98626122 0.15662116
vn 0.94455856 -0.07752625 -0.31905925
vn 0.94543391 -0.00000022 -0.32581393
vn 0.98657487 -0.00000009 -0.16330961
vn 0.99999994 -0.00019163 0.00029845
vn 0.98451169 0.08116152 -0.15540121
vn 0.05066919 -0.98648290 0.15583363
vn 0.05252267 -0.98626121 0.15662117
vn 0.94455871 0.07752607 -0.31905886
vn 0.87417443 0.07174733 -0.48028260
vn 0.05260688 -0.98627122 0.15652986
vn 0.87412186 -0.00000058 -0.48570667
vn 0.82542801 -0.00000050 -0.56450740
vn 0.70167402 0.00000368 -0.71249812
vn 0.04979743 -0.98654024 0.15575162
vn 0.99539528 0.09557681 0.00730163
vn 0.97323906 0.16827992 0.15648511
vn 0.05608307 -0.99580552 0.07229148
vn 0.95007555 0.24784761 0.18954684
vn 0.04786038 -0.99318683 -0.10625112
vn 0.90145772 0.24619322 0.35603774
vn 0.06505740 -0.99219129 -0.10641421
vn 0.93159629 0.16896547 0.32183695
vn 0.86145467 0.14564254 0.48650191
vn 0.06339146 -0.97255587 -0.22386736
vn 0.84007101 0.22092236 0.49545333
vn 0.02165837 -0.95716074 -0.28874596
vn -0.70805615 -0.07821534 -0.70181112
vn -0.00632404 -0.91908170 -0.39401630
vn -0.80862399 -0.09250392 -0.58100797
vn -0.79798895 -0.20848121 -0.56546372
vn -0.13042532 -0.82249774 -0.55361241
vn -0.63721089 -0.05781423 -0.76851793
vn -0.46515115 -0.04740299 -0.88396118
vn 0.00006387 -0.88351047 -0.46841140
vn -0.62750951 0.00004120 -0.77860889
vn -0.63715670 0.05796576 -0.76855144
vn -0.12287945 0.82802944 -0.54705382
vn 0.98661630 -0.00025813 0.16305892
vn 0.97398956 -0.16292758 0.15747677
vn 0.04930137 0.98646714 0.15637120
vn 0.99551491 -0.09425305 0.00814999
vn -0.82511100 0.06819431 0.56083989
vn -0.86054893 0.05978012 0.50584769
vn -0.70268501 0.06029302 0.70894183
vn -0.79804710 -0.06203575 0.59939336
vn -0.15144832 0.94318317 0.29575144
vn -0.87472151 0.07122026 0.47936412
vn -0.09707519 0.97242312 0.21206058
vn -0.99541250 0.09478525 -0.01302768
vn -0.18802426 0.95875016 0.21317834
vn -0.94365387 0.07631501 0.32201459
vn -0.29685731 0.92599035 0.23327581
vn -0.94611199 0.00182886 0.32383447
vn -0.79804710 -0.06203575 0.59939336
vn -0.89393722 0.01659863 0.44788474
vn -0.98657405 -0.00003175 0.16331453
vn -0.30169106 -0.92433088 0.23365558
vn -0.94351937 -0.07384950 0.32298212
vn -0.98474019 -0.08091072 0.15407859
vn -0.42226832 -0.87377507 0.24126043
vn -1.00000000 -0.00000006 0.00009334
vn -0.98656605 -0.00000001 -0.16336286
vn -0.42225463 0.87378184 0.24125984
vn -0.98474018 0.08091102 0.15407850
vn -0.70338716 0.00211386 0.71080380
vn -0.84933504 0.01512070 0.52763752
vn -0.61932551 -0.00427658 0.78512268
vn -0.82279832 -0.06753376 0.56430676
vn -0.70230891 -0.05764297 0.70953470
vn -0.18579547 -0.92583545 0.32910297
vn 0.00119059 0.99790803 0.06463855
vn -0.95573778 0.14630142 -0.25526688
vt 0.95360600 0.08081100
vt 0.82236900 0.60014700
vt 0.94491100 0.07941300
vt 0.82329900 0.59176300
vt 0.94491100 0.07941300
vt 0.95978700 0.08086100
vt 0.95389800 0.07954800
vt 0.82217900 0.67190100
vt 0.81999900 0.60642600
vt 0.95957900 0.08311400
vt 0.93258600 0.07910800
vt 0.82275900 0.58054400
vt 0.26149300 0.98428300
vt 0.94510500 0.07895700
vt 0.82308400 0.68064200
vt 0.94510500 0.07895700
vt 0.26410500 0.98323400
vt 0.82246400 0.69293300
vt 0.93312400 0.07634600
vt 0.93475600 0.07798800
vt 0.93475600 0.07798800
vt 0.93475600 0.07798800
vt 0.93139500 0.07799400
vt 0.26281700 0.98524700
vt 0.93144600 0.07723900
vt 0.93144600 0.07723900
vt 0.26354900 0.98505600
vt 0.26104100 0.98332400
vt 0.82241200 0.58156200
vt 0.26080300 0.97740300
vt 0.81862600 0.58757400
vt 0.25745200 0.97823700
vt 0.81270500 0.61609500
vt 0.96861400 0.08733600
vt 0.92700000 0.47597500
vt 0.25493300 0.97475400
vt 0.92671700 0.55190000
vt 0.81485500 0.59165900
vt 0.80936900 0.61339600
vt 0.25937800 0.97277200
vt 0.92655500 0.54703600
vt 0.92211300 0.54664100
vt 0.92627100 0.54235500
vt 0.26410500 0.97180600
vt 0.81470000 0.68267400
vt 0.26403500 0.97616500
vt 0.81845600 0.68651100
vt 0.80981000 0.59538000
vt 0.92231900 0.55278800
vt 0.91710000 0.55217200
vt 0.80580400 0.61073100
vt 0.91690200 0.54640700
vt 0.91749400 0.55374000
vt 0.80455200 0.59776700
vt 0.91167000 0.55374000
vt 0.79839400 0.59933000
vt 0.80262000 0.61043900
vt 0.79859100 0.61003900
vt 0.91642700 0.47519400
vt 0.80191000 0.62245100
vt 0.80737400 0.61997900
vt 0.92182200 0.47519700
vt 0.92181600 0.47750100
vt 0.91617200 0.47759300
vt 0.91010800 0.47741000
vt 0.91570500 0.48310800
vt 0.91007300 0.47576000
vt 0.79555000 0.62391300
vt 0.92139600 0.48246500
vt 0.97006800 0.08193400
vt 0.92646500 0.48135900
vt 0.79366600 0.97588900
vt 0.92103500 0.48702900
vt 0.91530400 0.48818000
vt 0.90918700 0.48864900
vt 0.91492000 0.49008200
vt 0.80174300 0.65128000
vt 0.80746600 0.65372900
vt 0.92070100 0.48887400
vt 0.79599800 0.97588900
vt 0.90891300 0.48991800
vt 0.79567500 0.64967500
vt 0.77152500 0.66848400
vt 0.77187400 0.65504600
vt 0.61535200 0.97963700
vt 0.88566700 0.48188100
vt 0.70694600 0.97180600
vt 0.78952100 0.64894200
vt 0.90293800 0.48840300
vt 0.79864100 0.66448000
vt 0.76559000 0.66554900
vt 0.93627500 0.75434500
vt 0.76368200 0.66397000
vt 0.60916600 0.97435200
vt 0.76585400 0.69025900
vt 0.88159200 0.54610800
vt 0.76966700 0.68510200
vt 0.61047700 0.97923700
vt 0.60773400 0.97485500
vt 0.93869300 0.75520300
vt 0.76242600 0.66647800
vt 0.96522800 0.75635100
vt 0.76452600 0.69293300
vt 0.60813700 0.97180600
vt 0.96267600 0.75691300
vt 0.76477800 0.58054400
vt 0.60676000 0.97191700
vt 0.96519400 0.75773200
vt 0.93615100 0.75721700
vt 0.76374800 0.60813200
vt 0.93878000 0.75641000
vt 0.76242600 0.60530000
vt 0.76605100 0.58336700
vt 0.60623800 0.97463800
vt 0.88179700 0.55079400
vt 0.60576900 0.97970300
vt 0.76982600 0.58856100
vt 0.76564700 0.60696300
vt 0.77157400 0.60465900
vt 0.78559700 0.59841400
vt 0.89893400 0.55207400
vt 0.77440500 0.59279200
vt 0.88699900 0.55104400
vt 0.77973000 0.59611800
vt 0.89278500 0.55147700
vt 0.89263600 0.54715500
vt 0.89875000 0.54672400
vt 0.90499100 0.54644900
vt 0.89847000 0.54151700
vt 0.78554000 0.67580100
vt 0.77964400 0.67783800
vt 0.89241000 0.54295000
vt 0.88671100 0.54450100
vt 0.77428400 0.68097800
vt 0.88688500 0.54772800
vt 0.88171700 0.54841900
vt 0.60814600 0.97970300
vt 0.79170300 0.67496000
vt 0.90461300 0.54027100
vt 0.91080000 0.54038700
vt 0.79843400 0.67562700
vt 0.91108900 0.53922100
vt 0.80477900 0.66556100
vt 0.91708200 0.53939900
vt 0.80475600 0.67732800
vt 0.91660000 0.54079700
vt 0.92184200 0.54159300
vt 0.80987700 0.67947700
vt 0.92189400 0.54067200
vt 0.80941400 0.66052400
vt 0.96988500 0.07634600
vt 0.81274600 0.65708500
vt 0.92617800 0.48611300
vt 0.79490000 0.97180600
vt 0.81683800 0.66112800
vt 0.96532600 0.07795100
vt 0.96010600 0.07861600
vt 0.81991000 0.66602600
vt 0.96527100 0.08144600
vt 0.96451800 0.08486900
vt 0.81687500 0.61150300
vt 0.91112100 0.54634200
vt 0.91133100 0.55246200
vt 0.79175300 0.59957400
vt 0.90517900 0.55280500
vt 0.88159200 0.47519400
vt 0.61535200 0.97180600
vt 0.93142300 0.75773200
vt 0.70694600 0.97820000
vt 0.76739400 0.61302300
vt 0.88620700 0.47623000
vt 0.77193600 0.61720400
vt 0.90387500 0.47697800
vt 0.78942000 0.62405300
vt 0.89158600 0.47729000
vt 0.77727000 0.62044700
vt 0.89139400 0.48079700
vt 0.70485200 0.97411900
vt 0.88594300 0.47918100
vt 0.89716300 0.48211200
vt 0.77730900 0.65179000
vt 0.89102700 0.48411700
vt 0.89683800 0.48622800
vt 0.78323700 0.64973200
vt 0.90335100 0.48292800
vt 0.90961200 0.48326500
vt 0.78317000 0.62273900
vt 0.89754200 0.47763500
vt 0.93139500 0.75560400
vt 0.61410700 0.97337200
vt 0.93623200 0.75578100
vt 0.61305400 0.97482700
vt 0.93168400 0.75357600
vt 0.76728700 0.65913100
vt 0.79860600 0.62322900
vt 0.91313400 0.47537700
f 1/1/1 3/3/3 14/14/14
f 2/2/2 12/12/12 4/4/4
f 7/7/7 6/6/6 1/1/1
f 1/1/1 6/6/6 10/10/10
f 7/7/7 1/1/1 14/14/14
f 9/9/9 12/12/12 2/2/2
f 20/20/20 14/14/14 3/3/3
f 8/8/8 15/15/15 18/18/18
f 21/21/21 19/19/19 16/16/16
f 5/5/5 11/11/11 22/22/22
f 22/22/22 11/11/11 23/23/23
f 22/22/22 23/23/23 25/25/25
f 21/21/21 26/26/26 19/19/19
f 28/28/28 27/27/27 24/24/24
f 17/17/17 27/27/27 28/28/28
f 17/17/17 28/28/28 30/30/30
f 30/30/30 28/28/28 32/32/32
f 9/9/9 31/31/31 29/29/29
f 29/29/29 12/12/12 9/9/9
f 24/24/24 13/13/13 28/28/28
f 39/39/39 31/31/31 33/33/33
f 33/33/33 31/31/31 9/9/9
f 32/32/32 36/36/36 40/40/40
f 39/39/39 38/38/38 31/31/31
f 40/40/40 30/30/30 32/32/32
f 43/43/43 41/41/41 42/42/42
f 41/41/41 49/49/49 42/42/42
f 30/30/30 40/40/40 46/46/46
f 41/41/41 37/37/37 49/49/49
f 40/40/40 44/44/44 46/46/46
f 52/52/52 42/42/42 49/49/49
f 50/50/50 49/49/49 53/53/53
f 52/52/52 49/49/49 50/50/50
f 51/51/51 48/48/48 38/38/38
f 51/51/51 54/54/54 48/48/48
f 50/50/50 53/53/53 55/55/55
f 57/57/57 56/56/56 54/54/54
f 51/51/51 57/57/57 54/54/54
f 57/57/57 51/51/51 61/61/61
f 57/57/57 58/58/58 56/56/56
f 60/60/60 58/58/58 57/57/57
f 57/57/57 61/61/61 60/60/60
f 64/64/64 62/62/62 63/63/63
f 63/63/63 62/62/62 35/35/35
f 64/64/64 59/59/59 62/62/62
f 61/61/61 39/39/39 33/33/33
f 39/39/39 61/61/61 51/51/51
f 67/67/67 64/64/64 65/65/65
f 66/66/66 65/65/65 64/64/64
f 64/64/64 63/63/63 69/69/69
f 67/67/67 59/59/59 64/64/64
f 64/64/64 69/69/69 66/66/66
f 69/69/69 74/74/74 66/66/66
f 73/73/73 69/69/69 71/71/71
f 63/63/63 71/71/71 69/69/69
f 69/69/69 73/73/73 74/74/74
f 66/66/66 74/74/74 75/75/75
f 74/74/74 81/81/81 75/75/75
f 74/74/74 76/76/76 81/81/81
f 74/74/74 79/79/79 76/76/76
f 74/74/74 73/73/73 79/79/79
f 82/82/82 90/90/90 83/83/83
f 82/82/82 83/83/83 91/91/91
f 88/88/88 82/82/82 84/84/84
f 84/84/84 82/82/82 91/91/91
f 82/82/82 77/77/77 90/90/90
f 75/75/75 81/81/81 89/89/89
f 93/93/93 84/84/84 91/91/91
f 91/91/91 83/83/83 95/95/95
f 93/93/93 91/91/91 95/95/95
f 83/83/83 97/97/97 95/95/95
f 99/99/99 94/94/94 98/98/98
f 104/104/104 94/94/94 99/99/99
f 101/101/101 93/93/93 95/95/95
f 101/101/101 95/95/95 103/103/103
f 105/105/105 100/100/100 102/102/102
f 108/108/108 105/105/105 102/102/102
f 104/104/104 99/99/99 107/107/107
f 110/110/110 112/112/112 106/106/106
f 106/106/106 113/113/113 110/110/110
f 111/111/111 105/105/105 108/108/108
f 114/114/114 107/107/107 99/99/99
f 110/110/110 113/113/113 118/118/118
f 114/114/114 99/99/99 116/116/116
f 119/119/119 113/113/113 117/117/117
f 118/118/118 113/113/113 119/119/119
f 58/58/58 119/119/119 120/120/120
f 58/58/58 68/68/68 119/119/119
f 119/119/119 68/68/68 118/118/118
f 119/119/119 117/117/117 122/122/122
f 119/119/119 124/124/124 120/120/120
f 119/119/119 122/122/122 124/124/124
f 123/123/123 126/126/126 125/125/125
f 125/125/125 126/126/126 127/127/127
f 125/125/125 127/127/127 121/121/121
f 127/127/127 126/126/126 132/132/132
f 121/121/121 127/127/127 128/128/128
f 129/129/129 128/128/128 127/127/127
f 127/127/127 132/132/132 129/129/129
f 131/131/131 134/134/134 83/83/83
f 126/126/126 133/133/133 132/132/132
f 130/130/130 131/131/131 83/83/83
f 134/134/134 97/97/97 83/83/83
f 135/135/135 96/96/96 133/133/133
f 126/126/126 135/135/135 133/133/133
f 115/115/115 136/136/136 135/135/135
f 135/135/135 136/136/136 96/96/96
f 123/123/123 135/135/135 126/126/126
f 115/115/115 135/135/135 123/123/123
f 99/99/99 137/137/137 116/116/116
f 137/137/137 99/99/99 98/98/98
f 129/129/129 139/139/139 128/128/128
f 90/90/90 138/138/138 130/130/130
f 83/83/83 90/90/90 130/130/130
f 140/140/140 128/128/128 139/139/139
f 139/139/139 142/142/142 140/140/140
f 90/90/90 141/141/141 138/138/138
f 143/143/143 145/145/145 141/141/141
f 143/143/143 141/141/141 90/90/90
f 142/142/142 144/144/144 146/146/146
f 146/146/146 140/140/140 142/142/142
f 140/140/140 146/146/146 52/52/52
f 147/147/147 146/146/146 144/144/144
f 147/147/147 52/52/52 146/146/146
f 43/43/43 147/147/147 149/149/149
f 144/144/144 149/149/149 147/147/147
f 43/43/43 42/42/42 147/147/147
f 147/147/147 42/42/42 52/52/52
f 143/143/143 150/150/150 148/148/148
f 150/150/150 45/45/45 148/148/148
f 143/143/143 148/148/148 145/145/145
f 78/78/78 152/152/152 150/150/150
f 150/150/150 152/152/152 47/47/47
f 78/78/78 150/150/150 143/143/143
f 150/150/150 47/47/47 45/45/45
f 70/70/70 156/156/156 151/151/151
f 152/152/152 155/155/155 158/158/158
f 80/80/80 72/72/72 154/154/154
f 152/152/152 158/158/158 47/47/47
f 73/73/73 71/71/71 153/153/153
f 6/6/6 7/7/7 157/157/157
f 158/158/158 8/8/8 18/18/18
f 156/156/156 6/6/6 157/157/157
f 158/158/158 18/18/18 47/47/47
f 159/159/159 6/6/6 156/156/156
f 70/70/70 159/159/159 156/156/156
f 70/70/70 160/160/160 159/159/159
f 160/160/160 6/6/6 159/159/159
f 160/160/160 10/10/10 6/6/6
f 33/33/33 9/9/9 161/161/161
f 70/70/70 34/34/34 160/160/160
f 77/77/77 143/143/143 90/90/90
f 78/78/78 143/143/143 77/77/77
f 140/140/140 162/162/162 128/128/128
f 140/140/140 52/52/52 162/162/162
f 162/162/162 165/165/165 128/128/128
f 162/162/162 52/52/52 50/50/50
f 162/162/162 163/163/163 165/165/165
f 162/162/162 50/50/50 163/163/163
f 165/165/165 121/121/121 128/128/128
f 164/164/164 58/58/58 120/120/120
f 165/165/165 163/163/163 55/55/55
f 164/164/164 56/56/56 58/58/58
f 163/163/163 50/50/50 55/55/55
f 170/170/170 110/110/110 118/118/118
f 172/172/172 170/170/170 118/118/118
f 68/68/68 172/172/172 118/118/118
f 174/174/174 176/176/176 172/172/172
f 174/174/174 172/172/172 68/68/68
f 175/175/175 177/177/177 171/171/171
f 179/179/179 171/171/171 177/177/177
f 179/179/179 166/166/166 171/171/171
f 177/177/177 86/86/86 179/179/179
f 87/87/87 169/169/169 178/178/178
f 182/182/182 177/177/177 180/180/180
f 175/175/175 180/180/180 177/177/177
f 177/177/177 182/182/182 86/86/86
f 181/181/181 88/88/88 84/84/84
f 88/88/88 181/181/181 184/184/184
f 182/182/182 180/180/180 183/183/183
f 185/185/185 89/89/89 183/183/183
f 183/183/183 180/180/180 185/185/185
f 188/188/188 185/185/185 180/180/180
f 186/186/186 185/185/185 173/173/173
f 188/188/188 173/173/173 185/185/185
f 186/186/186 89/89/89 185/185/185
f 175/175/175 188/188/188 180/180/180
f 176/176/176 174/174/174 187/187/187
f 66/66/66 186/186/186 65/65/65
f 186/186/186 173/173/173 65/65/65
f 66/66/66 75/75/75 186/186/186
f 186/186/186 75/75/75 89/89/89
f 65/65/65 173/173/173 67/67/67
f 85/85/85 190/190/190 167/167/167
f 168/168/168 189/189/189 109/109/109
f 85/85/85 192/192/192 190/190/190
f 109/109/109 189/189/189 191/191/191
f 193/193/193 92/92/92 189/189/189
f 189/189/189 92/92/92 191/191/191
f 194/194/194 84/84/84 93/93/93
f 111/111/111 109/109/109 191/191/191
f 92/92/92 111/111/111 191/191/191
f 111/111/111 100/100/100 105/105/105
f 92/92/92 100/100/100 111/111/111
f 63/63/63 35/35/35 71/71/71
f 195/195/195 68/68/68 58/58/58
f 67/67/67 196/196/196 59/59/59
f 60/60/60 195/195/195 58/58/58
f 38/38/38 39/39/39 51/51/51
f 17/17/17 30/30/30 46/46/46

