# ('FARMS composite mesh',)
mtllib link_body_35_composite.mtl

o link_body_35
usemtl link_body_35_composite
v -1.61067200 -1.07022800 0.34191300
v -0.05329900 -0.78920100 1.74999900
v -0.05329900 -0.78920100 1.74999900
v -1.74206500 -1.32517400 -1.36416900
v -4.26652400 -1.05766300 0.01953700
v -4.26652400 -1.05766300 0.01953700
v -3.05813500 -0.28187300 3.69767000
v -3.05813500 -0.28187300 3.69767000
v -3.05813500 -0.28187300 3.69767000
v -3.58675300 -0.44364500 2.90534600
v -3.58675300 -0.44364500 2.90534600
v -4.13436800 -1.21220500 -1.04061100
v -4.13436800 -1.21220500 -1.04061100
v -2.82395900 -0.24091900 3.93032100
v -2.82395900 -0.24091900 3.93032100
v -0.34273500 -1.11711100 -0.20365700
v -0.34273500 -1.11711100 -0.20365700
v -0.28734600 -0.95950600 0.76514600
v -0.28734600 -0.95950600 0.76514600
v -0.36367000 0.00000100 0.77772000
v -0.44720400 -0.00000000 -0.24000000
v -0.36367000 0.00000100 -1.25772000
v -0.34424600 1.11776100 -0.21514300
v -0.34424600 1.11776100 -0.21514300
v -0.28174600 -0.99816300 -1.25772000
v -0.28715500 0.95889400 0.76832200
v -0.28715500 0.95889400 0.76832200
v -0.05342100 0.78926300 1.74970600
v -0.05342100 0.78926300 1.74970600
v -1.61067200 1.07022700 0.34191300
v -0.11629500 0.00000100 1.75633000
v 0.28543100 0.00000000 2.65822200
v 0.33412200 -0.58971300 2.65871400
v 0.33412200 -0.58971300 2.65871400
v 0.33412200 0.58971300 2.65871500
v 0.33412200 0.58971300 2.65871500
v 0.85554500 0.35922700 3.44873700
v 0.85554500 0.35922700 3.44873700
v 0.85554500 0.35922700 3.44873700
v -2.79515000 0.23365600 3.95922200
v -2.79515000 0.23365600 3.95922200
v -2.46018200 0.06350200 4.30428000
v -2.46018200 0.06350200 4.30428000
v -2.46018200 0.06350200 4.30428000
v -3.04641600 0.26888100 3.72349800
v -3.04641600 0.26888100 3.72349800
v -3.04641600 0.26888100 3.72349800
v 1.21199800 0.25092700 3.80849700
v 1.21199800 0.25092700 3.80849700
v 1.39606500 0.13260200 4.00274900
v 1.39606500 0.13260200 4.00274900
v 1.39606500 0.13260200 4.00274900
v 1.42917600 -0.00107100 4.04382700
v 1.42917600 -0.00107100 4.04382700
v 0.82606500 0.00000000 3.44873700
v 0.82606500 0.00000000 3.44873700
v -2.46258500 -0.06225500 4.30276400
v -2.46258500 -0.06225500 4.30276400
v -2.46258500 -0.06225500 4.30276400
v 1.39241000 -0.13379500 4.00270900
v 1.39241000 -0.13379500 4.00270900
v 1.39241000 -0.13379500 4.00270900
v 1.21376800 -0.25076200 3.81038600
v 1.21376800 -0.25076200 3.81038600
v 0.85554500 -0.35922600 3.44873700
v 0.85554500 -0.35922600 3.44873700
v 0.85554500 -0.35922600 3.44873700
v -3.62322100 -0.00000100 2.90525200
v -3.59750300 0.44642500 2.88988700
v -3.59750300 0.44642500 2.88988700
v -4.02593100 0.00000000 2.00117800
v -3.97436400 0.62832200 2.00117000
v -3.97436400 0.62832200 2.00117000
v -4.26680700 1.05781000 0.01823600
v -4.26680700 1.05781000 0.01823600
v -4.35765700 -0.00000100 -0.00000000
v -4.14051000 1.21416600 -1.02202100
v -4.14051000 1.21416600 -1.02202100
v -4.20565700 0.83171800 1.02019100
v -4.20565700 0.83171800 1.02019100
v -4.27392500 0.00000000 -1.02019300
v -4.19180200 -1.00056000 -1.02019200
v -4.02593100 0.00000000 -2.00117800
v -3.94857700 0.94250500 -2.00117800
v -3.87465600 1.26497200 -1.97918400
v -3.87465600 1.26497200 -1.97918400
v -3.55360300 0.84822600 -2.90525200
v -3.62322100 -0.00000100 -2.90525200
v -3.48821200 1.10648700 -2.90542300
v -3.48821200 1.10648700 -2.90542300
v -2.98772400 0.89403000 -3.69174200
v -2.98772400 0.89403000 -3.69174200
v -2.98772400 0.89403000 -3.69174200
v -3.08126700 -0.00000100 -3.69767200
v -3.08126700 -0.00000100 -3.69767200
v -2.98886800 -0.89001800 -3.69379900
v -2.98886800 -0.89001800 -3.69379900
v -2.98886800 -0.89001800 -3.69379900
v -2.42089800 -0.00000100 -4.34798300
v -2.33917200 0.62390300 -4.36792500
v -2.33917200 0.62390300 -4.36792500
v -2.35572800 -0.63194900 -4.35200300
v -2.35572800 -0.63194900 -4.35200300
v 1.92613200 -0.19132700 -4.85135900
v 1.92613200 -0.19132700 -4.85135900
v 1.92613200 -0.19132700 -4.85135900
v 0.41814400 -1.02120600 -3.18188300
v 0.41814400 -1.02120600 -3.18188300
v 1.53299700 -0.32842500 -4.60700500
v 1.53299700 -0.32842500 -4.60700500
v -1.64553000 -0.32547600 -4.82808900
v -1.64553000 -0.32547600 -4.82808900
v -1.64553000 -0.32547600 -4.82808900
v 0.87461800 -0.68000800 -3.92031900
v 0.87461800 -0.68000800 -3.92031900
v 0.87461800 -0.68000800 -3.92031900
v 0.82606500 0.00000000 -3.92873600
v 0.82606500 0.00000000 -3.92873600
v 0.28543100 0.00000000 -3.13822100
v -0.11629500 0.00000100 -2.23633000
v 0.35488900 0.84620300 -3.13822100
v 0.87461800 0.68000900 -3.92031700
v 0.87461800 0.68000900 -3.92031700
v 0.87461800 0.68000900 -3.92031700
v 0.47428100 0.99114000 -3.26139800
v 0.47428100 0.99114000 -3.26139800
v 1.51663100 0.34561400 -4.58003400
v 1.51663100 0.34561400 -4.58003400
v 1.92880200 0.18831200 -4.85344800
v 1.92880200 0.18831200 -4.85344800
v 1.92880200 0.18831200 -4.85344800
v 1.23825000 0.07989700 -5.06430200
v 1.23825000 0.07989700 -5.06430200
v 1.23825000 0.07989700 -5.06430200
v -1.63707700 0.31485100 -4.83867100
v -1.63707700 0.31485100 -4.83867100
v -1.63707700 0.31485100 -4.83867100
v 2.05075000 0.01835100 -4.93994800
v 2.05075000 0.01835100 -4.93994800
v 2.05075000 0.01835100 -4.93994800
v 1.23825000 -0.07989700 -5.06430200
v 1.23825000 -0.07989700 -5.06430200
v -1.23092600 -0.13110500 -4.98616900
v -1.23092600 -0.13110500 -4.98616900
v -1.21473700 0.11586000 -4.99424400
v -1.21473700 0.11586000 -4.99424400
v 0.07270000 1.25298900 -2.31570800
v 0.07270000 1.25298900 -2.31570800
v -2.05923400 1.04633500 -3.21484500
v -2.22369400 1.29323500 -2.11095400
v -1.74206500 1.32517300 -1.36416900
v -0.21932200 1.25969700 -1.22525100
v -0.21932200 1.25969700 -1.22525100
v -0.28174600 0.99816500 -1.25772000
v -0.03912400 0.94025100 -2.23633000
v -0.03912300 -0.94024900 -2.23633000
v 0.09095000 -1.24975100 -2.35261300
v 0.09095000 -1.24975100 -2.35261300
v -0.21891800 -1.26076700 -1.23460200
v -0.21891800 -1.26076700 -1.23460200
v -2.22369300 -1.29323600 -2.11095400
v -2.05923400 -1.04633600 -3.21484500
v -3.49217100 -1.10480200 -2.90681600
v -3.49217100 -1.10480200 -2.90681600
v -3.89067700 -1.28206900 -1.91990300
v -3.89067700 -1.28206900 -1.91990300
v -3.94857700 -0.94250200 -2.00117800
v -4.27392500 0.00000000 1.02019300
v -4.20565700 -0.83172100 1.02018900
v -4.20565700 -0.83172100 1.02018900
v -3.97437200 -0.62827000 2.00115700
v -3.97437200 -0.62827000 2.00115700
vn -0.00518968 -0.98413614 0.17733902
vn -0.01085686 -0.97767482 0.20984299
vn 0.94514359 0.07824586 -0.31714536
vn -0.00152077 -0.99858796 0.05310160
vn -0.02843285 -0.98386950 0.17661366
vn -0.99524025 -0.09717484 -0.00734181
vn -0.70812964 -0.02400804 0.70567417
vn -0.03577893 -0.97619967 0.21390202
vn -0.81801457 -0.02433693 0.57468241
vn -0.02923820 -0.97579722 0.21671392
vn -0.87453419 -0.07178600 0.47962144
vn -0.01982678 -0.99394583 0.10806748
vn -0.95417138 -0.24020374 -0.17849127
vn -0.01430326 -0.95939672 0.28169727
vn -0.69501543 -0.08302124 0.71418557
vn 0.99444608 0.10513176 0.00493022
vn 0.02932481 -0.98836399 0.14925376
vn 0.98490035 0.08344789 -0.15168306
vn 0.03082435 -0.98636433 0.16166408
vn 0.98649312 0.00004356 -0.16380270
vn 0.99999725 -0.00111753 0.00205974
vn 0.98681942 -0.00156176 0.16181780
vn 0.99477523 -0.10172637 0.00860190
vn 0.02967151 0.98837238 0.14912960
vn 0.97287159 0.16245057 0.16471393
vn 0.03104863 0.98643616 0.16118213
vn 0.98484551 -0.08289272 -0.15234214
vn -0.01109645 0.97764077 0.20998905
vn 0.94518693 -0.07795646 -0.31708747
vn -0.00474528 0.98408595 0.17762972
vn 0.94537264 -0.00004268 -0.32599167
vn 0.87414939 0.00000039 -0.48565712
vn 0.87581524 0.07217153 -0.47722002
vn -0.00590586 -0.96800765 0.25085116
vn -0.00598867 0.96806445 0.25062991
vn 0.87581534 -0.07217178 -0.47721980
vn 0.82353607 -0.06756429 -0.56322590
vn 0.00619099 0.95986732 0.28038615
vn 0.70048357 -0.05748525 -0.71134957
vn -0.02004419 0.95906771 0.28246657
vn -0.65897473 0.18248628 0.72969245
vn 0.06671442 -0.00606558 0.99775367
vn -0.70123371 0.01407185 0.71279259
vn 0.01732849 0.90331863 0.42862009
vn -0.04544320 0.97620379 0.21204027
vn -0.81884916 0.01007218 0.57392039
vn -0.70525450 0.00320392 0.70894699
vn 0.70202722 -0.05717799 -0.70985101
vn 0.01305079 0.89327417 0.44932275
vn 0.06865473 0.30855164 0.94872673
vn 0.01564938 0.86504670 0.50144720
vn 0.71363542 -0.03818192 -0.69947597
vn 0.07179206 0.00091243 0.99741920
vn 0.71095579 -0.00640109 -0.70320757
vn 0.82542631 0.00000010 -0.56450988
vn 0.70189941 -0.00005423 -0.71227608
vn -0.70485455 -0.00627534 0.70932411
vn 0.06668997 -0.02016294 0.99757000
vn 0.01584520 -0.90742129 0.41992325
vn 0.72971363 0.00966735 -0.68368455
vn 0.01337691 -0.86521151 0.50122859
vn 0.06795429 -0.31236878 0.94752729
vn 0.01120570 -0.89269901 0.45051405
vn 0.70356096 0.05477633 -0.70852066
vn 0.70061369 0.05749609 -0.71122054
vn 0.00579324 -0.95995688 0.28008790
vn 0.82353610 0.06756474 -0.56322580
vn -0.87321095 -0.00291794 0.48733368
vn -0.87718454 0.06853943 0.47523638
vn -0.02543433 0.97526092 0.21958879
vn -0.94565035 -0.00054536 0.32518474
vn -0.94555868 0.07760859 0.31606279
vn -0.04371063 0.97505100 0.21763486
vn -0.02867360 0.98345156 0.17888784
vn -0.99556962 0.09252529 -0.01673921
vn -0.99999952 0.00057389 -0.00079041
vn -0.97800399 0.12103426 -0.16987906
vn -0.02365579 0.99451054 0.10192735
vn -0.98489630 0.08152825 0.15274952
vn -0.10154628 0.96908258 0.22487175
vn -0.98663017 0.00748198 -0.16280337
vn -0.97337191 -0.16294769 -0.16123016
vn -0.94543028 -0.00000044 -0.32582447
vn -0.93274428 0.15471287 -0.32565631
vn -0.01990350 0.99918698 -0.03506038
vn -0.91580826 0.23172350 -0.32802354
vn -0.86088732 0.14253992 -0.48842133
vn -0.87284392 -0.01022215 -0.48789241
vn -0.84824484 0.21445272 -0.48424242
vn -0.02121553 0.97620390 -0.21581437
vn -0.00236310 0.95180005 -0.30671010
vn -0.70366943 0.07830949 -0.70619895
vn -0.81002122 0.10682430 -0.57658841
vn -0.70417834 0.00100655 -0.71002243
vn -0.82240316 -0.00444880 -0.56888774
vn -0.82441711 -0.09295017 -0.55829803
vn -0.70352769 -0.07611297 -0.70658021
vn -0.00371943 -0.95147665 -0.30769847
vn -0.62299007 0.00299895 -0.78222399
vn -0.63113070 0.05166749 -0.77395382
vn 0.02407263 0.91759089 -0.39679650
vn -0.63657235 -0.06299421 -0.76863995
vn 0.02353833 -0.91992880 -0.39137828
vn 0.18899032 -0.47535774 -0.85925414
vn 0.03486978 -0.87439914 -0.48395273
vn 0.51251153 0.05738055 0.85676100
vn 0.02699411 -0.93933340 -0.34194163
vn 0.87383722 0.10107398 0.47559707
vn 0.04178821 -0.89996645 -0.43395176
vn 0.63550382 0.00438989 0.77208524
vn -0.47343653 -0.01027018 -0.88076806
vn 0.02893878 -0.85911649 -0.51096125
vn -0.01218792 -0.61513896 -0.78832450
vn 0.82680750 0.07526693 0.55742646
vn 0.70527715 0.05910170 0.70646382
vn 0.04179951 -0.90930606 -0.41402330
vn 0.70085284 -0.00208103 0.71330286
vn 0.82542631 -0.00000073 0.56450988
vn 0.87585806 0.00927556 0.48247967
vn 0.94439097 0.00307694 0.32881031
vn 0.85959261 -0.17096321 0.48153102
vn 0.04181054 0.90924045 -0.41416626
vn 0.82204532 -0.07870706 0.56395629
vn 0.70035313 -0.05881285 0.71136948
vn 0.02899209 0.93716414 -0.34768209
vn 0.81785390 -0.22282830 0.53053043
vn 0.04007883 0.89457362 -0.44511991
vn 0.64009960 -0.02561498 0.76786482
vn 0.55066229 -0.02385351 0.83438723
vn 0.16716036 0.53982189 -0.82501499
vn 0.03386028 0.87177142 -0.48874132
vn 0.12442484 0.55528797 -0.82229784
vn 0.02793389 0.84882976 -0.52792778
vn 0.05900163 0.00000000 -0.99825789
vn -0.48259380 -0.00771098 -0.87581035
vn 0.02816013 0.85418650 -0.51920364
vn -0.01415475 0.59703781 -0.80208821
vn 0.16716036 0.53982189 -0.82501499
vn 0.18606944 -0.40670531 -0.89440983
vn 0.54398750 -0.00660242 0.83906734
vn 0.02827016 -0.84524662 -0.53362809
vn 0.06870786 -0.05945574 -0.99586357
vn -0.01218792 -0.61513896 -0.78832450
vn -0.21951280 -0.01864436 -0.97543145
vn -0.01415475 0.59703781 -0.80208821
vn -0.20570605 -0.01793453 -0.97844947
vn 0.01977509 0.98645732 -0.16282169
vn 0.90667461 -0.24426054 0.34391560
vn 0.00337939 0.96161596 -0.27437806
vn -0.01608025 0.99333322 -0.11415136
vn -0.00097200 0.99859120 0.05305342
vn 0.03647801 0.99687941 0.07000568
vn 0.95379201 -0.24860653 0.16874712
vn 0.97238584 -0.16417279 0.16587065
vn 0.93289064 -0.16320643 0.32105873
vn 0.93012439 0.16552562 0.32782600
vn 0.01785408 -0.98615988 -0.16483304
vn 0.90294463 0.24746898 0.35135465
vn 0.03643909 -0.99706909 0.06727133
vn 0.95411749 0.24787187 0.16798619
vn -0.01558655 -0.99337187 -0.11388319
vn 0.00210586 -0.96079466 -0.27725293
vn -0.02038170 -0.97531134 -0.21989174
vn -0.86579144 -0.11738147 -0.48644298
vn -0.00848128 -0.99984295 -0.01556081
vn -0.92119043 -0.23186608 -0.31248408
vn -0.92930510 -0.15536313 -0.33504376
vn -0.98657423 0.00000006 0.16331348
vn -0.98489933 -0.08158079 0.15270196
vn -0.10189832 -0.96901654 0.22499708
vn -0.04499467 -0.97493553 0.21789030
vn -0.94500858 -0.07756767 0.31771376
vt 0.84752400 0.40960000
vt 0.84043000 0.42041600
vt 0.37149800 0.93804300
vt 0.85693000 0.40810100
vt 0.84804900 0.39187900
vt 0.25906200 0.94774100
vt 0.97023900 0.04197500
vt 0.82816100 0.40118700
vt 0.26800400 0.92826200
vt 0.83231800 0.39740400
vt 0.26541000 0.93235500
vt 0.85399400 0.39236300
vt 0.25807900 0.95357200
vt 0.82697900 0.40282200
vt 0.97178400 0.04223000
vt 0.37397200 0.94888500
vt 0.85114200 0.41778800
vt 0.37285300 0.94356000
vt 0.84578900 0.41850900
vt 0.36766100 0.94380800
vt 0.36795300 0.94946300
vt 0.36809100 0.95501800
vt 0.36172700 0.94957900
vt 0.85112200 0.35426100
vt 0.37348700 0.95468700
vt 0.84570900 0.35325100
vt 0.36233800 0.94408400
vt 0.84039400 0.35111800
vt 0.36284700 0.93849000
vt 0.84742100 0.36187300
vt 0.36722900 0.93826900
vt 0.36667100 0.93306000
vt 0.36985800 0.93286200
vt 0.83555700 0.42330300
vt 0.83555200 0.34799700
vt 0.36339400 0.93319400
vt 0.36401400 0.92846400
vt 0.83143100 0.34402500
vt 0.78970800 0.97542700
vt 0.82681000 0.36638700
vt 0.97190800 0.04486100
vt 0.97414900 0.04396000
vt 0.97414900 0.04396000
vt 0.82505800 0.36385400
vt 0.82799100 0.36810700
vt 0.27084200 0.92835300
vt 0.97023900 0.04502400
vt 0.79057200 0.97311500
vt 0.82961200 0.34146800
vt 0.99976200 0.04500400
vt 0.82862300 0.34002700
vt 0.79136400 0.97195400
vt 1.00000000 0.04426800
vt 0.79212600 0.97180600
vt 0.36600900 0.92838100
vt 0.79166800 0.97581700
vt 0.97415100 0.04326400
vt 0.97415100 0.04326400
vt 0.82505800 0.40532600
vt 0.79282900 0.97212300
vt 0.82854600 0.43075100
vt 0.99977500 0.04352900
vt 0.82954700 0.42951600
vt 0.79333800 0.97337500
vt 0.79366600 0.97581700
vt 0.83139600 0.42702200
vt 0.36795100 0.92826200
vt 0.26756700 0.93252500
vt 0.26989100 0.93280600
vt 0.83233500 0.37218100
vt 0.26606300 0.93735100
vt 0.26938400 0.93763200
vt 0.83706900 0.37519500
vt 0.84790200 0.37854300
vt 0.26979500 0.94862700
vt 0.26418300 0.94825200
vt 0.27038400 0.95447500
vt 0.85371900 0.37842500
vt 0.26931700 0.94303400
vt 0.84238500 0.37737500
vt 0.26387900 0.95390800
vt 0.25901500 0.95352500
vt 0.26402100 0.95941300
vt 0.26900300 0.95983500
vt 0.85913800 0.37720900
vt 0.27084200 0.95987600
vt 0.26908700 0.96493400
vt 0.26460300 0.96455400
vt 0.27056600 0.96506800
vt 0.86443200 0.37483800
vt 0.86900600 0.37160400
vt 0.96399200 0.75357600
vt 0.27038300 0.96951000
vt 0.96521000 0.74873800
vt 0.26560200 0.96913400
vt 0.26132700 0.96877900
vt 0.96519800 0.74377200
vt 0.86911500 0.39881700
vt 0.96087900 0.74827200
vt 0.95992100 0.75163700
vt 0.87304100 0.36729900
vt 0.96087400 0.74474700
vt 0.87299600 0.40269000
vt 0.93235500 0.74377200
vt 0.87768300 0.43075100
vt 0.55154300 0.98006000
vt 0.86792200 0.42161300
vt 0.37338000 0.96485600
vt 0.87617600 0.42827500
vt 0.55319600 0.97788900
vt 0.95600200 0.74590800
vt 0.87589700 0.40713600
vt 0.95600200 0.74590800
vt 0.37124800 0.96874400
vt 0.55660800 0.97449100
vt 0.87214500 0.42426600
vt 0.55320500 0.97284700
vt 0.36756700 0.96901200
vt 0.36789500 0.96498300
vt 0.36807200 0.96025800
vt 0.36319400 0.96518000
vt 0.87215200 0.34718500
vt 0.36379400 0.96912800
vt 0.54957200 0.97180600
vt 0.86833700 0.35002400
vt 0.36231600 0.96582800
vt 0.87608900 0.34279400
vt 0.54974900 0.97645600
vt 0.54957300 0.97932700
vt 0.93208200 0.74585700
vt 0.87779100 0.34002700
vt 0.93671800 0.74583800
vt 0.87860900 0.34421100
vt 0.93671800 0.74583800
vt 0.95551600 0.74942100
vt 0.87596600 0.36251100
vt 0.95551600 0.74942100
vt 0.93139500 0.74483300
vt 0.93139500 0.74483300
vt 0.55015900 0.98042000
vt 0.87851200 0.42608600
vt 0.93682500 0.74496000
vt 0.95314200 0.74665900
vt 0.95314200 0.74665900
vt 0.95287000 0.74800400
vt 0.95287000 0.74800400
vt 0.86293500 0.35267500
vt 0.36104800 0.96093500
vt 0.86683900 0.36592100
vt 0.86067900 0.36700700
vt 0.85679400 0.36378900
vt 0.85677100 0.35411400
vt 0.36104800 0.95510700
vt 0.36254600 0.95525000
vt 0.36284800 0.96047700
vt 0.37315400 0.95994700
vt 0.86323500 0.41982800
vt 0.37475600 0.96042200
vt 0.85692000 0.41822600
vt 0.37486400 0.95444800
vt 0.86081900 0.40460600
vt 0.86694100 0.40519900
vt 0.86457600 0.39584500
vt 0.25933500 0.96415500
vt 0.85897600 0.39364000
vt 0.25790700 0.95848500
vt 0.25943900 0.95905200
vt 0.26492000 0.94266100
vt 0.26087700 0.94234300
vt 0.84250900 0.39263400
vt 0.83716300 0.39451500
vt 0.26300800 0.93711000
f 19/19/19 2/2/2 1/1/1
f 14/14/14 1/1/1 2/2/2
f 12/12/12 4/4/4 1/1/1
f 17/17/17 1/1/1 4/4/4
f 10/10/10 5/5/5 1/1/1
f 12/12/12 1/1/1 5/5/5
f 14/14/14 8/8/8 1/1/1
f 8/8/8 10/10/10 1/1/1
f 1/1/1 17/17/17 19/19/19
f 18/18/18 20/20/20 3/3/3
f 18/18/18 16/16/16 21/21/21
f 20/20/20 18/18/18 21/21/21
f 25/25/25 21/21/21 16/16/16
f 25/25/25 22/22/22 21/21/21
f 22/22/22 23/23/23 21/21/21
f 20/20/20 21/21/21 27/27/27
f 21/21/21 23/23/23 27/27/27
f 30/30/30 28/28/28 26/26/26
f 27/27/27 29/29/29 31/31/31
f 26/26/26 24/24/24 30/30/30
f 31/31/31 20/20/20 27/27/27
f 36/36/36 32/32/32 31/31/31
f 31/31/31 32/32/32 33/33/33
f 20/20/20 31/31/31 3/3/3
f 31/31/31 33/33/33 3/3/3
f 36/36/36 31/31/31 29/29/29
f 40/40/40 35/35/35 28/28/28
f 36/36/36 37/37/37 32/32/32
f 40/40/40 38/38/38 35/35/35
f 30/30/30 40/40/40 28/28/28
f 40/40/40 44/44/44 51/51/51
f 47/47/47 43/43/43 41/41/41
f 30/30/30 45/45/45 40/40/40
f 40/40/40 49/49/49 38/38/38
f 40/40/40 51/51/51 49/49/49
f 48/48/48 52/52/52 54/54/54
f 42/42/42 53/53/53 50/50/50
f 54/54/54 56/56/56 48/48/48
f 56/56/56 54/54/54 64/64/64
f 53/53/53 42/42/42 58/58/58
f 62/62/62 53/53/53 58/58/58
f 60/60/60 64/64/64 54/54/54
f 64/64/64 65/65/65 56/56/56
f 66/66/66 63/63/63 14/14/14
f 14/14/14 63/63/63 61/61/61
f 32/32/32 55/55/55 67/67/67
f 33/33/33 32/32/32 67/67/67
f 66/66/66 14/14/14 34/34/34
f 14/14/14 61/61/61 59/59/59
f 47/47/47 57/57/57 43/43/43
f 57/57/57 7/7/7 15/15/15
f 7/7/7 57/57/57 47/47/47
f 37/37/37 55/55/55 32/32/32
f 56/56/56 39/39/39 48/48/48
f 70/70/70 45/45/45 30/30/30
f 68/68/68 9/9/9 46/46/46
f 68/68/68 46/46/46 69/69/69
f 71/71/71 68/68/68 69/69/69
f 72/72/72 71/71/71 69/69/69
f 73/73/73 70/70/70 74/74/74
f 70/70/70 30/30/30 74/74/74
f 73/73/73 74/74/74 80/80/80
f 79/79/79 75/75/75 76/76/76
f 75/75/75 81/81/81 76/76/76
f 75/75/75 77/77/77 81/81/81
f 30/30/30 78/78/78 74/74/74
f 76/76/76 81/81/81 82/82/82
f 82/82/82 81/81/81 83/83/83
f 84/84/84 81/81/81 77/77/77
f 84/84/84 83/83/83 81/81/81
f 84/84/84 77/77/77 86/86/86
f 86/86/86 87/87/87 84/84/84
f 83/83/83 84/84/84 87/87/87
f 83/83/83 87/87/87 88/88/88
f 87/87/87 95/95/95 88/88/88
f 93/93/93 87/87/87 89/89/89
f 86/86/86 89/89/89 87/87/87
f 87/87/87 93/93/93 95/95/95
f 88/88/88 95/95/95 96/96/96
f 94/94/94 102/102/102 97/97/97
f 94/94/94 99/99/99 102/102/102
f 100/100/100 99/99/99 94/94/94
f 100/100/100 94/94/94 92/92/92
f 103/103/103 112/112/112 105/105/105
f 103/103/103 105/105/105 109/109/109
f 116/116/116 107/107/107 103/103/103
f 98/98/98 103/103/103 107/107/107
f 103/103/103 109/109/109 116/116/116
f 102/102/102 99/99/99 111/111/111
f 119/119/119 108/108/108 114/114/114
f 110/110/110 117/117/117 115/115/115
f 118/118/118 119/119/119 114/114/114
f 119/119/119 118/118/118 123/123/123
f 120/120/120 119/119/119 121/121/121
f 108/108/108 119/119/119 120/120/120
f 121/121/121 119/119/119 123/123/123
f 117/117/117 128/128/128 124/124/124
f 121/121/121 123/123/123 126/126/126
f 101/101/101 125/125/125 122/122/122
f 122/122/122 127/127/127 101/101/101
f 127/127/127 131/131/131 101/101/101
f 129/129/129 128/128/128 110/110/110
f 117/117/117 110/110/110 128/128/128
f 132/132/132 130/130/130 138/138/138
f 136/136/136 131/131/131 133/133/133
f 101/101/101 131/131/131 136/136/136
f 110/110/110 140/140/140 129/129/129
f 140/140/140 110/110/110 106/106/106
f 142/142/142 139/139/139 104/104/104
f 142/142/142 134/134/134 139/139/139
f 105/105/105 112/112/112 141/141/141
f 146/146/146 134/134/134 142/142/142
f 113/113/113 143/143/143 142/142/142
f 144/144/144 146/146/146 142/142/142
f 135/135/135 146/146/146 144/144/144
f 145/145/145 137/137/137 132/132/132
f 135/135/135 144/144/144 111/111/111
f 111/111/111 100/100/100 135/135/135
f 101/101/101 91/91/91 125/125/125
f 91/91/91 149/149/149 125/125/125
f 121/121/121 126/126/126 148/148/148
f 147/147/147 125/125/125 149/149/149
f 90/90/90 149/149/149 91/91/91
f 90/90/90 150/150/150 149/149/149
f 149/149/149 150/150/150 147/147/147
f 90/90/90 85/85/85 150/150/150
f 147/147/147 150/150/150 151/151/151
f 150/150/150 85/85/85 78/78/78
f 151/151/151 150/150/150 78/78/78
f 30/30/30 151/151/151 78/78/78
f 24/24/24 151/151/151 30/30/30
f 151/151/151 152/152/152 147/147/147
f 24/24/24 152/152/152 151/151/151
f 153/153/153 23/23/23 154/154/154
f 148/148/148 153/153/153 154/154/154
f 22/22/22 154/154/154 23/23/23
f 120/120/120 154/154/154 22/22/22
f 154/154/154 155/155/155 148/148/148
f 120/120/120 155/155/155 154/154/154
f 155/155/155 121/121/121 148/148/148
f 120/120/120 121/121/121 155/155/155
f 25/25/25 120/120/120 22/22/22
f 25/25/25 156/156/156 120/120/120
f 108/108/108 120/120/120 156/156/156
f 108/108/108 156/156/156 158/158/158
f 156/156/156 25/25/25 160/160/160
f 156/156/156 160/160/160 158/158/158
f 4/4/4 159/159/159 17/17/17
f 4/4/4 157/157/157 159/159/159
f 16/16/16 160/160/160 25/25/25
f 4/4/4 161/161/161 157/157/157
f 157/157/157 161/161/161 162/162/162
f 162/162/162 107/107/107 157/157/157
f 163/163/163 98/98/98 162/162/162
f 98/98/98 107/107/107 162/162/162
f 163/163/163 162/162/162 161/161/161
f 164/164/164 166/166/166 167/167/167
f 165/165/165 163/163/163 161/161/161
f 88/88/88 164/164/164 167/167/167
f 88/88/88 96/96/96 164/164/164
f 82/82/82 83/83/83 167/167/167
f 88/88/88 167/167/167 83/83/83
f 167/167/167 166/166/166 13/13/13
f 13/13/13 82/82/82 167/167/167
f 12/12/12 165/165/165 161/161/161
f 12/12/12 161/161/161 4/4/4
f 111/111/111 99/99/99 100/100/100
f 6/6/6 82/82/82 13/13/13
f 76/76/76 82/82/82 6/6/6
f 168/168/168 72/72/72 79/79/79
f 79/79/79 76/76/76 168/168/168
f 169/169/169 168/168/168 76/76/76
f 168/168/168 169/169/169 172/172/172
f 168/168/168 71/71/71 72/72/72
f 168/168/168 172/172/172 71/71/71
f 171/171/171 5/5/5 10/10/10
f 172/172/172 11/11/11 68/68/68
f 71/71/71 172/172/172 68/68/68
f 170/170/170 5/5/5 171/171/171
f 169/169/169 76/76/76 6/6/6
f 68/68/68 11/11/11 9/9/9
f 34/34/34 14/14/14 2/2/2

