# ('FARMS composite mesh',)
mtllib link_body_33_composite.mtl
usemtl link_body_33_composite
v -0.89225000 -0.04969300 4.71626900
v -0.89225000 -0.04969300 4.71626900
v 0.32161700 -0.05476800 4.61850000
v 0.32161700 -0.05476800 4.61850000
v -0.87167300 0.04782900 4.71902400
v -0.87167300 0.04782900 4.71902400
v -0.90621900 -0.14896600 4.42524700
v -2.74458300 -0.04297700 4.56457300
v -2.74458300 -0.04297700 4.56457300
v -2.74458300 -0.04297700 4.56457300
v -2.88828200 0.05788000 4.51449400
v -2.88828200 0.05788000 4.51449400
v -2.88828200 0.05788000 4.51449400
v -2.99414000 -0.07633500 4.44169500
v -2.99414000 -0.07633500 4.44169500
v -3.36392100 -0.16658800 4.07356600
v -3.36392100 -0.16658800 4.07356600
v -3.36392100 -0.16658800 4.07356600
v -3.92945000 -0.38360300 3.21760400
v -3.92945000 -0.38360300 3.21760400
v -3.36899500 0.17405900 4.06009800
v -3.36899500 0.17405900 4.06009800
v -3.36899500 0.17405900 4.06009800
v -3.97836200 -0.00003100 3.19000400
v -3.91289400 0.37849100 3.24284800
v -3.91289400 0.37849100 3.24284800
v -4.37919500 0.50365100 2.19731800
v -4.37919500 0.50365100 2.19731800
v -4.61224300 1.11562900 -1.03531000
v -4.61224300 1.11562900 -1.03531000
v -0.87209300 0.15208400 4.41534600
v 0.32295200 0.05484800 4.61805600
v 0.32295200 0.05484800 4.61805600
v 0.65614300 0.20133600 3.94505400
v 0.65614300 0.20133600 3.94505400
v 0.65614300 0.20133600 3.94505400
v -0.58103200 0.65926800 1.08251400
v -0.58103200 0.65926800 1.08251400
v 0.09637500 0.33273200 3.13861500
v 0.09637500 0.33273200 3.13861500
v -0.33081000 0.50198000 2.12342800
v -0.33081000 0.50198000 2.12342800
v -0.37200900 0.00000100 2.12342800
v -0.63513900 0.00000100 1.08251400
v -0.72399100 0.00000100 -0.00000000
v -0.58103200 -0.65926800 1.08251400
v -0.58103200 -0.65926800 1.08251400
v -0.33081000 -0.50198000 2.12342800
v -0.33081000 -0.50198000 2.12342800
v 0.08402300 -0.35000600 3.08273900
v 0.08402300 -0.35000600 3.08273900
v 0.65699800 -0.20525900 3.93511700
v 0.65699800 -0.20525900 3.93511700
v 0.65699800 -0.20525900 3.93511700
v 1.07399700 -0.04659800 4.35673400
v 1.07399700 -0.04659800 4.35673400
v 1.07399700 -0.04659800 4.35673400
v 1.07270800 0.04620500 4.35736400
v 1.07270800 0.04620500 4.35736400
v 1.07270800 0.04620500 4.35736400
v -0.65702800 -0.81582500 -0.00000000
v -0.65702800 -0.81582500 -0.00000000
v -4.64872600 -1.05208600 -0.60989000
v -4.64872600 -1.05208600 -0.60989000
v -4.78477400 0.00000100 -0.00000000
v -4.59983000 -1.10817600 -1.12724900
v -4.59983000 -1.10817600 -1.12724900
v -4.37919500 -0.50364700 2.19732500
v -4.37919500 -0.50364700 2.19732500
v -4.70974600 -0.91415900 -0.00001300
v -4.70974600 -0.91415900 -0.00001300
v -0.49030300 -1.01208900 -1.34871300
v -0.49030300 -1.01208900 -1.34871300
v -4.69282400 0.00000900 -1.12018800
v -4.42053100 0.00000100 -2.19732100
v -4.33824800 1.07696800 -2.16717300
v -4.33824800 1.07696800 -2.16717300
v -4.33833200 -1.07708700 -2.16685400
v -4.33833200 -1.07708700 -2.16685400
v -3.92047000 -0.89479100 -3.15951300
v -3.92047000 -0.89479100 -3.15951300
v 0.70134700 -0.82885300 -3.91835000
v 0.70134700 -0.82885300 -3.91835000
v 0.70134700 -0.82885300 -3.91835000
v 0.13047000 -0.96334800 -3.05625400
v 0.13047000 -0.96334800 -3.05625400
v -0.28738400 -1.01354400 -2.12353500
v -0.28738400 -1.01354400 -2.12353500
v -0.37200900 0.00000100 -2.12342800
v 0.05529000 -0.00000000 -3.08274000
v 0.63034000 0.00000100 -3.92358300
v 0.63034000 0.00000100 -3.92358300
v 0.13337700 0.96202000 -3.06467100
v 0.13337700 0.96202000 -3.06467100
v 0.70472700 0.82823400 -3.92121500
v 0.70472700 0.82823400 -3.92121500
v 0.70472700 0.82823400 -3.92121500
v -0.28759800 1.01461900 -2.12182200
v -0.28759800 1.01461900 -2.12182200
v -0.48840300 1.01093700 -1.35328700
v -0.48840300 1.01093700 -1.35328700
v -0.65702800 0.81582400 0.00000000
v -0.65702800 0.81582400 0.00000000
v -0.63513900 0.00000100 -1.08251400
v 1.38877800 0.61730500 -4.61772200
v 1.38877800 0.61730500 -4.61772200
v -3.33148100 0.63121700 -4.06009700
v -3.33148100 0.63121700 -4.06009700
v -3.33148100 0.63121700 -4.06009700
v -3.92044700 0.89477100 -3.15955600
v -3.92044700 0.89477100 -3.15955600
v -2.62336700 0.42789600 -4.78612900
v -2.62336700 0.42789600 -4.78612900
v -1.81146200 0.26863800 -5.30606800
v -1.81146200 0.26863800 -5.30606800
v -2.62087200 -0.43478800 -4.77551700
v -2.62087200 -0.43478800 -4.77551700
v -1.80891400 -0.27009200 -5.30463000
v -1.80891400 -0.27009200 -5.30463000
v -3.38328500 0.00000100 -4.06009700
v -3.38328500 0.00000100 -4.06009700
v -3.33148100 -0.63121800 -4.06009700
v -3.33148100 -0.63121800 -4.06009700
v -3.33148100 -0.63121800 -4.06009700
v -3.97836200 -0.00000100 -3.19000800
v 1.39064700 -0.61689900 -4.61891600
v 1.39064700 -0.61689900 -4.61891600
v -1.23871600 -0.20594500 -5.51621800
v -1.23871600 -0.20594500 -5.51621800
v 2.97843900 -0.12586000 -5.43507100
v 2.97843900 -0.12586000 -5.43507100
v 2.97843900 -0.12586000 -5.43507100
v -0.68552400 -0.06614900 -5.66359700
v -0.68552400 -0.06614900 -5.66359700
v -0.68552400 -0.06614900 -5.66359700
v -1.23320800 0.20573000 -5.51727800
v -1.23320800 0.20573000 -5.51727800
v 2.16069700 -0.39142100 -5.13522600
v 2.16069700 -0.39142100 -5.13522600
v 1.33104700 0.00000000 -4.61364600
v 2.22757700 0.37888000 -5.15262600
v 2.22757700 0.37888000 -5.15262600
v 3.07887900 0.10069600 -5.45973700
v 3.07887900 0.10069600 -5.45973700
v 3.07887900 0.10069600 -5.45973700
v 3.32221100 0.05055200 -5.48511300
v 3.32221100 0.05055200 -5.48511300
v 3.32221100 0.05055200 -5.48511300
v -0.68734700 0.06747200 -5.66268000
v -0.68734700 0.06747200 -5.66268000
v -0.68734700 0.06747200 -5.66268000
v 3.34268100 -0.05057200 -5.48482800
v 3.34268100 -0.05057200 -5.48482800
v 3.34268100 -0.05057200 -5.48482800
v -4.63854900 -0.66141000 1.12018800
v -4.63854900 -0.66141000 1.12018800
v -4.69282400 0.00000100 1.12018600
v -4.63854900 0.66141100 1.12017400
v -4.63854900 0.66141100 1.12017400
v -4.42053100 0.00000100 2.19732100
v -4.70974600 0.91415800 -0.00001500
v -4.70974600 0.91415800 -0.00001500
vn -0.01130000 -0.02590000 0.99960000
vn -0.00320000 -0.94640000 0.32300000
vn 0.20660000 0.00010000 0.97840000
vn 0.05410000 -0.96720000 0.24840000
vn 0.00970000 -0.02280000 0.99970000
vn -0.00300000 0.94580000 0.32470000
vn 0.00410000 -0.96850000 0.24910000
vn -0.09340000 0.32600000 0.94070000
vn -0.03040000 -0.94720000 0.31930000
vn -0.41980000 -0.15400000 0.89440000
vn -0.09350000 0.33270000 0.93840000
vn -0.51920000 -0.05320000 0.85300000
vn -0.02910000 0.96240000 0.27020000
vn -0.62880000 0.04430000 0.77630000
vn -0.03090000 -0.96100000 0.27490000
vn -0.02350000 -0.96530000 0.26020000
vn -0.77300000 0.00500000 0.63440000
vn -0.77300000 0.00500000 0.63440000
vn -0.01730000 -0.98100000 0.19340000
vn -0.87180000 -0.07460000 0.48420000
vn 0.01370000 0.97210000 0.23410000
vn -0.77250000 0.02880000 0.63430000
vn -0.77250000 0.02880000 0.63430000
vn -0.87630000 0.00210000 0.48170000
vn -0.86590000 0.08090000 0.49360000
vn -0.01510000 0.98150000 0.19110000
vn -0.18290000 0.96330000 0.19650000
vn -0.94330000 0.08000000 0.32220000
vn -0.98350000 0.08400000 -0.15990000
vn 0.01600000 0.99660000 0.08100000
vn 0.00590000 0.96860000 0.24840000
vn 0.05510000 0.96730000 0.24770000
vn 0.20870000 0.00140000 0.97800000
vn 0.77480000 0.01690000 -0.63190000
vn 0.77480000 0.01690000 -0.63190000
vn 0.05280000 0.97600000 0.21110000
vn 0.03020000 0.98840000 0.14890000
vn 0.98430000 -0.08080000 -0.15660000
vn 0.87230000 0.00950000 -0.48890000
vn 0.01870000 0.98790000 0.15400000
vn 0.00140000 0.98850000 0.15120000
vn 0.94560000 -0.07760000 -0.31590000
vn 0.94540000 0.00140000 -0.32580000
vn 0.98660000 -0.00000000 -0.16330000
vn 1.00000000 -0.00000000 -0.00000000
vn 0.02970000 -0.98840000 0.14910000
vn 0.98430000 0.08080000 -0.15660000
vn -0.00220000 -0.98850000 0.15100000
vn 0.94420000 0.07750000 -0.32010000
vn 0.00980000 -0.98780000 0.15510000
vn 0.87570000 0.03220000 -0.48180000
vn 0.77740000 0.02030000 -0.62860000
vn 0.77740000 0.02030000 -0.62860000
vn 0.05170000 -0.97540000 0.21440000
vn 0.10130000 -0.96000000 0.26110000
vn 0.32860000 -0.00180000 0.94450000
vn 0.70660000 0.01610000 -0.70750000
vn 0.70610000 0.01460000 -0.70790000
vn 0.10120000 0.96050000 0.25920000
vn 0.32860000 -0.00170000 0.94450000
vn 0.99590000 0.09000000 0.01360000
vn 0.03650000 -0.98890000 0.14410000
vn 0.00970000 -0.98990000 0.14150000
vn -0.99320000 -0.08190000 -0.08270000
vn -1.00000000 -0.00040000 0.00050000
vn -0.98230000 -0.08140000 -0.16890000
vn 0.02620000 -0.99820000 0.05320000
vn -0.94320000 -0.07740000 0.32310000
vn -0.22000000 -0.95310000 0.20780000
vn -0.99660000 -0.08180000 -0.01120000
vn -0.15960000 -0.96580000 0.20440000
vn 0.97670000 0.09150000 0.19400000
vn 0.02460000 -0.99770000 0.06300000
vn -0.98640000 0.00020000 -0.16450000
vn -0.94550000 -0.00000000 -0.32550000
vn 0.00960000 0.99690000 -0.07840000
vn -0.94520000 0.08300000 -0.31570000
vn 0.00900000 -0.99710000 -0.07610000
vn -0.94470000 -0.08080000 -0.31800000
vn -0.87780000 -0.07520000 -0.47310000
vn -0.02230000 -0.97510000 -0.22060000
vn 0.77110000 0.07100000 0.63280000
vn -0.02590000 -0.96040000 -0.27720000
vn 0.77110000 0.07100000 0.63280000
vn 0.00010000 -0.99200000 -0.12620000
vn 0.87170000 0.08130000 0.48320000
vn 0.01600000 -0.99950000 -0.02550000
vn 0.94000000 0.08000000 0.33170000
vn 0.94470000 -0.00080000 0.32800000
vn 0.87350000 -0.00060000 0.48690000
vn 0.76960000 -0.00040000 0.63850000
vn 0.76960000 -0.00040000 0.63850000
vn -0.00000000 0.99190000 -0.12700000
vn 0.87180000 -0.07810000 0.48350000
vn -0.02640000 0.96020000 -0.27820000
vn 0.77120000 -0.07110000 0.63260000
vn 0.77120000 -0.07110000 0.63260000
vn 0.01570000 0.99950000 -0.02560000
vn 0.93990000 -0.07870000 0.33220000
vn 0.97660000 -0.09220000 0.19430000
vn 0.02490000 0.99770000 0.06370000
vn 0.99580000 -0.09030000 0.01380000
vn 0.03750000 0.98900000 0.14330000
vn 0.98730000 -0.00040000 0.15900000
vn -0.01240000 0.92470000 -0.38040000
vn 0.62470000 -0.05100000 0.77920000
vn -0.77480000 0.06470000 -0.62890000
vn -0.77480000 0.06470000 -0.62890000
vn -0.03610000 0.95250000 -0.30230000
vn -0.02230000 0.97510000 -0.22050000
vn -0.87780000 0.07520000 -0.47310000
vn -0.62990000 0.00240000 -0.77670000
vn -0.03450000 0.94990000 -0.31070000
vn -0.45370000 -0.00340000 -0.89110000
vn -0.02950000 0.94030000 -0.33890000
vn -0.62960000 -0.02010000 -0.77670000
vn -0.03440000 -0.95070000 -0.30830000
vn -0.02870000 -0.93960000 -0.34120000
vn -0.45550000 -0.00630000 -0.89020000
vn -0.76860000 -0.00120000 -0.63980000
vn -0.76860000 -0.00120000 -0.63980000
vn -0.77220000 -0.06450000 -0.63210000
vn -0.77220000 -0.06450000 -0.63210000
vn -0.03610000 -0.95290000 -0.30110000
vn -0.87350000 -0.00000000 -0.48680000
vn 0.63500000 0.05480000 0.77060000
vn -0.01340000 -0.92600000 -0.37730000
vn -0.30700000 -0.00000000 -0.95170000
vn -0.01630000 -0.91570000 -0.40140000
vn 0.03440000 -0.68450000 -0.72820000
vn 0.27470000 -0.00570000 0.96150000
vn 0.03440000 -0.68450000 -0.72820000
vn -0.11730000 0.00480000 -0.99310000
vn 0.02700000 -0.77270000 -0.63420000
vn 0.02700000 -0.77270000 -0.63420000
vn -0.30500000 0.00180000 -0.95240000
vn -0.01670000 0.91630000 -0.40010000
vn 0.01980000 -0.81780000 -0.57510000
vn 0.46420000 -0.00780000 0.88570000
vn 0.62360000 -0.00410000 0.78170000
vn 0.45100000 -0.02200000 0.89230000
vn 0.02090000 0.81160000 -0.58380000
vn 0.03670000 0.62220000 -0.78200000
vn 0.21460000 0.00770000 0.97670000
vn 0.03670000 0.62220000 -0.78200000
vn 0.04430000 0.00610000 -0.99900000
vn 0.10880000 0.02480000 0.99380000
vn 0.03810000 0.59240000 -0.80480000
vn 0.02740000 0.77270000 -0.63420000
vn -0.11970000 0.00520000 -0.99280000
vn 0.02740000 0.77270000 -0.63420000
vn 0.04430000 0.00620000 -0.99900000
vn 0.03570000 -0.66540000 -0.74570000
vn 0.11600000 0.03760000 0.99250000
vn -0.39730000 -0.88940000 0.22590000
vn -0.98460000 -0.08080000 0.15500000
vn -0.98660000 -0.00000000 0.16330000
vn -0.98460000 0.08080000 0.15500000
vn -0.39730000 0.88940000 0.22590000
vn -0.94520000 -0.00060000 0.32660000
vn -0.04260000 0.98090000 0.18970000
vn -0.99660000 0.08180000 -0.00870000
vt 0.98665600 0.04535200
vt 0.64171300 0.75322200
vt 0.99472300 0.04518500
vt 0.63398500 0.75557300
vt 0.98680200 0.04588900
vt 0.61806300 0.75312500
vt 0.64215100 0.75479200
vt 0.97435400 0.04561400
vt 0.65388400 0.75125600
vt 0.97435400 0.04561400
vt 0.97341000 0.04619200
vt 0.97341000 0.04619200
vt 0.60552300 0.75125600
vt 0.97269600 0.04546400
vt 0.65564700 0.75155100
vt 0.65848500 0.75300000
vt 0.97023900 0.04502400
vt 0.88159200 0.55545400
vt 0.66318100 0.75681400
vt 0.88609300 0.55831300
vt 0.60182300 0.75297200
vt 0.97023900 0.04691100
vt 0.88175000 0.55374000
vt 0.88632700 0.55649900
vt 0.88615000 0.55438700
vt 0.59712700 0.75653300
vt 0.59276800 0.76145800
vt 0.89181600 0.55531100
vt 0.90976100 0.55388000
vt 0.58623000 0.77841200
vt 0.61749300 0.75473900
vt 0.62519400 0.75542800
vt 0.99474300 0.04579200
vt 0.00219800 0.92832900
vt 0.84900700 0.97460000
vt 0.62612000 0.75951500
vt 0.61421400 0.77303000
vt 0.00148000 0.94497100
vt 0.00217600 0.93314500
vt 0.62147600 0.76301100
vt 0.61731100 0.76781900
vt 0.00187300 0.93904200
vt 0.00466200 0.93891600
vt 0.00514200 0.94480600
vt 0.00547200 0.95082000
vt 0.64416400 0.77341300
vt 0.00870500 0.94457500
vt 0.64126400 0.76814300
vt 0.00737500 0.93874100
vt 0.63740100 0.76356100
vt 0.00594100 0.93325500
vt 0.00442700 0.92826200
vt 0.85125700 0.97460000
vt 0.63264900 0.75979400
vt 0.62945000 0.75811200
vt 0.99972900 0.04515300
vt 0.85042500 0.97180600
vt 0.84991100 0.97181300
vt 0.62945000 0.75794000
vt 0.99972900 0.04566700
vt 0.00988100 0.95053500
vt 0.64599000 0.77916800
vt 0.67253000 0.77651500
vt 0.90685300 0.56485600
vt 0.90370600 0.55965700
vt 0.90971200 0.56518600
vt 0.67285500 0.77939000
vt 0.89156200 0.56043300
vt 0.66735200 0.76166500
vt 0.90349900 0.56411000
vt 0.67218200 0.77310500
vt 0.01111400 0.95780300
vt 0.64657500 0.78673300
vt 0.90992400 0.55979000
vt 0.91596000 0.55944000
vt 0.58657300 0.78493000
vt 0.91609000 0.55374000
vt 0.67247900 0.78537800
vt 0.91554500 0.56469300
vt 0.92120500 0.56300900
vt 0.67106000 0.79131300
vt 0.97023900 0.82709100
vt 0.64213800 0.80232900
vt 0.00960800 0.97129400
vt 0.64471900 0.79685600
vt 0.01067000 0.96684900
vt 0.64623800 0.79121300
vt 0.01111400 0.96194800
vt 0.00563800 0.96230200
vt 0.00546600 0.96732900
vt 0.00513200 0.97161500
vt 0.97089000 0.83165900
vt 0.61288600 0.79638500
vt 0.00011900 0.96747200
vt 0.61555400 0.80187800
vt 0.00052500 0.97180600
vt 0.97247700 0.83599000
vt 0.61138900 0.79066600
vt -0.00000000 0.96254800
vt 0.00002800 0.95843500
vt 0.61112200 0.78622500
vt 0.00094000 0.95102500
vt 0.61212700 0.77872100
vt 0.00564000 0.95672800
vt 0.61924800 0.80669200
vt 0.97662900 0.83378400
vt 0.92674700 0.55401700
vt 0.92550500 0.78513400
vt 0.59119100 0.79672800
vt 0.58822900 0.79094200
vt 0.92165600 0.55391000
vt 0.92092200 0.78375500
vt 0.59498100 0.80173500
vt 0.91562400 0.78255000
vt 0.59957500 0.80577300
vt 0.92123900 0.77898800
vt 0.66477400 0.80186800
vt 0.66022000 0.80590100
vt 0.91581600 0.77957400
vt 0.92657200 0.55736200
vt 0.92609300 0.78167200
vt 0.92642900 0.56043600
vt 0.92599500 0.77816200
vt 0.66843300 0.79699100
vt 0.92158100 0.55862000
vt 0.97499000 0.82715000
vt 0.63860100 0.80709000
vt 0.91202100 0.77968400
vt 0.65681000 0.80788300
vt 0.88403300 0.77816200
vt 0.98591200 0.82726900
vt 0.62945000 0.81376100
vt 0.90830600 0.78021400
vt 0.90830600 0.78021400
vt 0.65344400 0.80947600
vt 0.91182500 0.78195600
vt 0.60294900 0.80777800
vt 0.63431200 0.81097800
vt 0.98027400 0.82714400
vt 0.97543100 0.83056000
vt 0.98173700 0.83117600
vt 0.62413400 0.81086800
vt 0.88328100 0.77936900
vt 0.98686400 0.82832700
vt 0.62945000 0.81384300
vt 0.88168800 0.77898200
vt 0.98836700 0.82766700
vt 0.88168800 0.77898200
vt 0.60634700 0.80939900
vt 0.90826600 0.78095300
vt 0.90826600 0.78095300
vt 0.88159200 0.77841400
vt 0.88159200 0.77841400
vt 0.98836400 0.82709100
vt 0.67035700 0.76711700
vt 0.89739400 0.56226700
vt 0.89754400 0.55904500
vt 0.89772800 0.55554100
vt 0.58957000 0.76685000
vt 0.89167600 0.55797900
vt 0.58728700 0.77273000
vt 0.90395900 0.55481400
f 5/5/5 1/1/1 3/3/3
f 2/2/2 7/7/7 4/4/4
f 5/5/5 8/8/8 1/1/1
f 7/7/7 2/2/2 9/9/9
f 5/5/5 11/11/11 8/8/8
f 12/12/12 14/14/14 10/10/10
f 7/7/7 9/9/9 15/15/15
f 17/17/17 14/14/14 22/22/22
f 16/16/16 19/19/19 15/15/15
f 15/15/15 19/19/19 7/7/7
f 22/22/22 14/14/14 12/12/12
f 18/18/18 23/23/23 24/24/24
f 24/24/24 23/23/23 25/25/25
f 26/26/26 21/21/21 13/13/13
f 26/26/26 13/13/13 31/31/31
f 25/25/25 28/28/28 24/24/24
f 27/27/27 26/26/26 30/30/30
f 30/30/30 26/26/26 31/31/31
f 13/13/13 6/6/6 31/31/31
f 32/32/32 36/36/36 31/31/31
f 31/31/31 6/6/6 32/32/32
f 30/30/30 31/31/31 37/37/37
f 31/31/31 36/36/36 40/40/40
f 31/31/31 41/41/41 37/37/37
f 31/31/31 40/40/40 41/41/41
f 42/42/42 43/43/43 44/44/44
f 39/39/39 43/43/43 42/42/42
f 42/42/42 44/44/44 38/38/38
f 38/38/38 44/44/44 45/45/45
f 45/45/45 44/44/44 47/47/47
f 44/44/44 49/49/49 47/47/47
f 44/44/44 43/43/43 49/49/49
f 50/50/50 7/7/7 48/48/48
f 43/43/43 51/51/51 49/49/49
f 48/48/48 7/7/7 46/46/46
f 43/43/43 39/39/39 51/51/51
f 51/51/51 39/39/39 52/52/52
f 50/50/50 54/54/54 7/7/7
f 4/4/4 7/7/7 54/54/54
f 53/53/53 35/35/35 57/57/57
f 54/54/54 55/55/55 4/4/4
f 39/39/39 34/34/34 52/52/52
f 3/3/3 56/56/56 60/60/60
f 35/35/35 58/58/58 57/57/57
f 32/32/32 59/59/59 36/36/36
f 33/33/33 3/3/3 60/60/60
f 45/45/45 47/47/47 61/61/61
f 63/63/63 62/62/62 46/46/46
f 7/7/7 63/63/63 46/46/46
f 64/64/64 65/65/65 74/74/74
f 70/70/70 65/65/65 64/64/64
f 64/64/64 74/74/74 66/66/66
f 63/63/63 67/67/67 73/73/73
f 19/19/19 69/69/69 63/63/63
f 19/19/19 63/63/63 7/7/7
f 69/69/69 71/71/71 63/63/63
f 63/63/63 73/73/73 62/62/62
f 29/29/29 74/74/74 65/65/65
f 79/79/79 74/74/74 75/75/75
f 74/74/74 77/77/77 75/75/75
f 79/79/79 66/66/66 74/74/74
f 74/74/74 29/29/29 77/77/77
f 73/73/73 67/67/67 78/78/78
f 75/75/75 80/80/80 79/79/79
f 78/78/78 81/81/81 83/83/83
f 78/78/78 83/83/83 85/85/85
f 78/78/78 85/85/85 87/87/87
f 87/87/87 73/73/73 78/78/78
f 72/72/72 88/88/88 89/89/89
f 88/88/88 90/90/90 89/89/89
f 88/88/88 86/86/86 90/90/90
f 84/84/84 90/90/90 86/86/86
f 84/84/84 91/91/91 90/90/90
f 91/91/91 94/94/94 90/90/90
f 89/89/89 90/90/90 94/94/94
f 98/98/98 93/93/93 76/76/76
f 76/76/76 93/93/93 95/95/95
f 91/91/91 96/96/96 94/94/94
f 89/89/89 94/94/94 99/99/99
f 89/89/89 99/99/99 100/100/100
f 101/101/101 98/98/98 76/76/76
f 103/103/103 101/101/101 30/30/30
f 76/76/76 30/30/30 101/101/101
f 102/102/102 104/104/104 100/100/100
f 104/104/104 89/89/89 100/100/100
f 102/102/102 45/45/45 104/104/104
f 104/104/104 45/45/45 61/61/61
f 89/89/89 104/104/104 72/72/72
f 104/104/104 61/61/61 72/72/72
f 37/37/37 103/103/103 30/30/30
f 38/38/38 45/45/45 102/102/102
f 113/113/113 95/95/95 105/105/105
f 92/92/92 106/106/106 97/97/97
f 109/109/109 95/95/95 113/113/113
f 110/110/110 95/95/95 109/109/109
f 76/76/76 95/95/95 110/110/110
f 119/119/119 112/112/112 114/114/114
f 113/113/113 105/105/105 115/115/115
f 121/121/121 108/108/108 112/112/112
f 119/119/119 116/116/116 112/112/112
f 116/116/116 121/121/121 112/112/112
f 125/125/125 120/120/120 122/122/122
f 116/116/116 123/123/123 121/121/121
f 125/125/125 107/107/107 120/120/120
f 75/75/75 125/125/125 80/80/80
f 75/75/75 111/111/111 125/125/125
f 125/125/125 122/122/122 80/80/80
f 125/125/125 111/111/111 107/107/107
f 124/124/124 117/117/117 83/83/83
f 81/81/81 124/124/124 83/83/83
f 117/117/117 118/118/118 127/127/127
f 128/128/128 119/119/119 114/114/114
f 118/118/118 129/129/129 127/127/127
f 135/135/135 132/132/132 129/129/129
f 129/129/129 132/132/132 138/138/138
f 136/136/136 133/133/133 128/128/128
f 128/128/128 114/114/114 136/136/136
f 129/129/129 138/138/138 127/127/127
f 139/139/139 140/140/140 126/126/126
f 140/140/140 139/139/139 106/106/106
f 139/139/139 131/131/131 141/141/141
f 139/139/139 141/141/141 106/106/106
f 137/137/137 105/105/105 142/142/142
f 142/142/142 145/145/145 137/137/137
f 144/144/144 141/141/141 131/131/131
f 147/147/147 144/144/144 154/154/154
f 143/143/143 148/148/148 151/151/151
f 137/137/137 145/145/145 149/149/149
f 131/131/131 154/154/154 144/144/144
f 152/152/152 133/133/133 150/150/150
f 130/130/130 134/134/134 153/153/153
f 150/150/150 146/146/146 152/152/152
f 136/136/136 150/150/150 133/133/133
f 82/82/82 126/126/126 140/140/140
f 92/92/92 140/140/140 106/106/106
f 82/82/82 140/140/140 92/92/92
f 115/115/115 105/105/105 137/137/137
f 117/117/117 127/127/127 83/83/83
f 75/75/75 77/77/77 111/111/111
f 69/69/69 155/155/155 71/71/71
f 156/156/156 65/65/65 70/70/70
f 156/156/156 157/157/157 65/65/65
f 68/68/68 157/157/157 156/156/156
f 28/28/28 158/158/158 157/157/157
f 158/158/158 65/65/65 157/157/157
f 68/68/68 160/160/160 157/157/157
f 28/28/28 157/157/157 160/160/160
f 20/20/20 160/160/160 68/68/68
f 160/160/160 24/24/24 28/28/28
f 20/20/20 24/24/24 160/160/160
f 159/159/159 27/27/27 161/161/161
f 158/158/158 162/162/162 65/65/65
f 161/161/161 27/27/27 30/30/30
f 65/65/65 162/162/162 29/29/29
f 5/5/5 3/3/3 33/33/33
f 18/18/18 24/24/24 20/20/20

