# Blender 4.1.1
# www.blender.org
mtllib link_leg_1_R_1.mtl
o link_leg_1_R_1
v -1.880071 1.894276 0.693207
v -2.015316 2.856765 0.508816
v -1.161407 1.008164 -0.192815
v -1.985305 2.041664 -0.088877
v -1.461436 1.822957 1.397068
v -0.920370 0.880988 0.589583
v -1.716892 2.337156 1.181963
v -1.162410 3.095767 1.718915
v -1.775085 5.306187 0.800502
v -1.542580 6.990866 0.859907
v -1.994946 4.482046 0.366108
v -1.552015 4.528093 -0.996228
v -1.844331 5.524510 -0.470459
v -1.994636 3.587810 -0.015293
v -1.770975 5.926200 0.545077
v -1.915278 6.528111 0.067810
v -1.640254 6.539487 -1.035869
v -1.973921 6.914025 -0.841878
v -2.088900 7.080986 0.002481
v -1.823695 7.579762 0.706306
v -1.331348 8.001181 -0.279051
v -1.234140 7.990561 1.363652
v -1.141431 8.233930 1.468054
v -0.913219 8.528668 1.046258
v -0.931880 5.718291 1.546778
v 0.035567 4.323486 2.151733
v 0.665849 3.872606 2.382447
v 0.000849 6.071590 2.013961
v 0.326144 3.074717 2.517872
v 0.879287 2.781467 2.462861
v 1.281603 3.122180 2.401360
v 0.187833 2.438210 2.473065
v -0.548568 2.243236 2.201048
v -0.896534 1.998984 1.982360
v 0.170466 1.275824 1.590694
v 0.931201 1.615933 1.608820
v -0.036226 0.531977 0.553014
v 0.583055 0.809008 0.900396
v -0.556238 1.061221 1.214779
v 0.460023 0.494469 0.253926
v 1.415677 1.466162 0.954686
v 0.992261 0.720186 0.006921
v 0.306213 0.487754 -0.483501
v 1.542823 1.353506 0.012995
v 0.609820 0.826099 -0.873399
v 1.269736 1.416505 -0.917295
v 1.910772 4.061430 -1.385966
v 0.609799 1.612936 -1.469835
v 0.797817 2.562719 -1.824041
v 1.607842 1.755515 -0.659543
v 2.011529 2.465858 -0.439679
v 1.972037 2.194558 0.599551
v 2.138235 3.760998 -0.950020
v 2.141052 4.350479 -0.736067
v 2.176622 3.646353 -0.085339
v 2.249738 3.495568 1.400000
v 2.545481 4.521161 0.617759
v 2.571299 5.145447 1.295848
v 2.633864 6.466519 0.255861
v 2.464128 7.326293 0.247587
v 2.604263 6.974170 1.125993
v 1.971196 5.559063 -1.109555
v 1.614153 4.695275 -1.763103
v 2.085982 7.121717 -0.532851
v 2.097104 9.215017 0.257451
v 1.403238 5.797365 -1.598271
v 0.961192 7.275054 -1.326590
v 1.606132 8.333295 -0.689819
v 1.457934 9.415651 -0.398652
v 1.830912 9.594394 0.159163
v 0.574010 9.289236 -0.080817
v 0.790232 9.094163 -0.850674
v -0.008811 8.657117 -1.055202
v 1.051103 8.212479 -1.007548
v -0.247165 7.549687 -1.252092
v -0.596358 8.219585 -1.192861
v -0.537900 8.695370 -0.134904
v 0.341540 9.288152 0.793134
v 0.337355 9.191974 1.757004
v 2.125666 9.709372 1.162402
v 1.918698 9.622525 1.494836
v 2.124574 8.936389 1.603765
v 2.221758 9.657627 0.748776
v 2.237198 9.181203 0.968766
v 2.416684 8.452210 1.314999
v 2.521137 8.345067 0.873500
v 2.282548 7.895640 1.811262
v 2.105665 6.935800 2.024683
v 2.398688 6.524865 1.748098
v 1.909021 5.411962 2.167566
v 2.150115 3.643600 1.726263
v 1.787609 3.357591 2.119203
v 1.650757 6.666467 2.261504
v 1.273381 5.688481 2.353373
v 1.504530 9.530279 1.757204
v 1.049864 8.075632 2.074377
v -0.353300 8.816733 1.733318
v -0.695901 8.575706 1.671077
v -1.374177 7.337058 -1.394150
v -0.819629 6.466656 -1.533251
v -0.251247 5.286263 -1.734090
v -0.640082 4.768378 -1.600828
v -0.449736 3.723239 -2.249935
v -0.612431 3.828667 -1.789503
v -0.114902 3.894630 -2.272663
v -1.616937 3.261954 -0.798682
v -1.765739 2.111717 -0.774191
v -1.320642 2.015414 -1.235928
v -0.960487 1.285094 -0.983528
v -0.371897 1.044320 -1.120137
v -0.381113 0.624601 -0.565260
v -0.215367 0.444701 -0.029668
v 0.213422 1.028540 -1.192995
v -0.912114 2.191914 -1.622941
v -0.139825 1.719401 -1.635460
v -0.476560 2.761260 -1.992059
v 0.375855 3.832062 -2.211584
v 1.101140 4.268734 -2.035314
v 2.180876 2.921026 0.880083
v -1.278287 5.864901 -1.246437
vn -0.9444 -0.1266 0.3035
vn -0.8320 -0.0521 0.5523
vn -0.9787 -0.0051 0.2053
vn -0.9902 -0.0065 -0.1395
vn -0.5305 -0.8048 0.2663
vn -0.7321 -0.6633 0.1554
vn -0.6594 -0.7352 -0.1571
vn -0.7799 -0.6060 -0.1568
vn -0.5496 -0.6820 0.4825
vn -0.7629 -0.1127 0.6366
vn -0.6375 0.0205 0.7701
vn -0.8108 -0.0789 0.5799
vn -0.6196 0.0859 0.7802
vn -0.9953 0.0534 0.0810
vn -0.8655 0.0909 0.4926
vn -0.9725 0.0692 0.2222
vn -0.9722 0.0283 -0.2326
vn -0.6424 -0.0762 -0.7625
vn -0.9564 -0.0067 -0.2921
vn -0.9714 -0.0522 0.2315
vn -0.9687 0.0607 -0.2408
vn -0.7808 -0.5917 -0.2007
vn -0.9085 -0.4025 -0.1122
vn -0.8392 -0.5180 -0.1656
vn -0.9495 -0.3063 -0.0687
vn -0.8323 -0.2247 0.5067
vn -0.6985 0.6825 -0.2152
vn -0.7857 0.5911 -0.1821
vn -0.7558 0.6541 -0.0291
vn -0.5714 -0.0607 0.8184
vn -0.7619 -0.2033 0.6150
vn -0.6487 0.7599 0.0412
vn -0.8125 0.5663 0.1386
vn -0.8228 0.5661 -0.0496
vn -0.3530 0.1142 0.9286
vn -0.3166 0.0308 0.9481
vn -0.5869 0.0481 0.8083
vn -0.4902 0.0959 0.8663
vn -0.1649 0.0841 0.9827
vn -0.0911 0.1186 0.9888
vn 0.0093 0.0670 0.9977
vn -0.2119 0.0832 0.9737
vn -0.2294 -0.0187 0.9732
vn 0.0985 -0.0009 0.9951
vn 0.2117 0.0324 0.9768
vn -0.2389 -0.6365 0.7333
vn 0.0592 -0.6988 0.7128
vn -0.1162 -0.5903 0.7988
vn 0.1251 -0.5904 0.7974
vn 0.4498 -0.5953 0.6658
vn 0.4353 -0.5194 0.7353
vn 0.3274 -0.8072 0.4912
vn -0.2876 -0.7594 0.5835
vn -0.0905 -0.9240 0.3714
vn 0.2686 -0.9474 0.1740
vn 0.6023 -0.7981 -0.0146
vn 0.6986 -0.5973 0.3939
vn 0.8157 -0.5768 -0.0438
vn 0.1540 -0.9305 -0.3323
vn 0.3854 -0.7341 -0.5590
vn 0.6616 -0.5180 -0.5423
vn 0.8109 -0.3805 -0.4446
vn 0.3231 -0.4554 -0.8296
vn 0.9283 -0.2655 -0.2603
vn 0.7887 -0.1047 -0.6058
vn 0.3851 -0.2968 -0.8739
vn 0.9104 -0.3813 0.1605
vn 0.9852 0.0145 -0.1706
vn 0.9573 -0.0183 -0.2885
vn 0.9861 -0.1296 -0.1044
vn 0.9857 -0.1431 -0.0892
vn 0.9820 -0.1775 -0.0645
vn 0.9167 -0.2903 0.2746
vn 0.8525 -0.2081 0.4795
vn 0.9555 -0.0848 0.2826
vn 0.9663 0.0709 -0.2473
vn 0.9871 0.0624 0.1471
vn 0.8159 0.1189 -0.5658
vn 0.9350 0.1396 -0.3259
vn 0.7734 0.1761 -0.6090
vn 0.6094 0.0685 -0.7899
vn 0.3891 0.2563 -0.8848
vn 0.7374 0.3100 -0.6002
vn 0.6110 0.2484 -0.7516
vn 0.2536 0.2481 -0.9349
vn 0.6524 0.2752 -0.7061
vn 0.3348 0.2444 -0.9100
vn -0.2145 0.9521 -0.2179
vn -0.3329 0.9235 -0.1906
vn -0.1941 0.9770 -0.0878
vn -0.3272 0.8900 -0.3174
vn -0.4613 0.8296 -0.3145
vn 0.0933 0.2005 -0.9752
vn -0.2275 0.0676 -0.9714
vn 0.1296 0.1599 -0.9786
vn -0.5461 0.8158 -0.1907
vn -0.5907 0.7336 -0.3361
vn -0.3764 0.9264 -0.0045
vn -0.5187 0.8508 0.0840
vn -0.3690 0.9259 0.0809
vn -0.2513 0.9654 0.0695
vn -0.1889 0.9820 0.0014
vn 0.7652 0.3184 0.5596
vn 0.8896 0.2750 0.3647
vn 0.9233 0.1922 0.3324
vn 0.9786 0.1973 0.0585
vn 0.0198 0.9926 -0.1196
vn 0.8213 0.2570 -0.5094
vn 0.7492 0.3863 -0.5381
vn 0.9993 0.0355 0.0067
vn 0.9797 0.1871 -0.0720
vn 0.9257 0.2190 0.3084
vn 0.6056 0.1675 0.7779
vn 0.8372 0.0037 0.5469
vn 0.5437 0.0793 0.8355
vn 0.3982 0.2051 0.8941
vn 0.2475 0.2337 0.9403
vn 0.5332 -0.0282 0.8456
vn 0.6812 -0.2631 0.6832
vn 0.8171 -0.4177 0.3973
vn 0.5666 -0.4831 0.6676
vn 0.1616 0.0914 0.9826
vn -0.1861 0.1071 0.9767
vn -0.0628 0.1325 0.9892
vn -0.1062 0.2086 0.9722
vn -0.6061 0.7807 0.1520
vn -0.6969 0.6276 -0.3470
vn -0.7570 0.5913 -0.2780
vn -0.6055 -0.1456 -0.7824
vn -0.6133 -0.1442 -0.7765
vn -0.5558 -0.1792 -0.8117
vn -0.6051 0.0977 -0.7901
vn -0.1965 0.1900 -0.9619
vn -0.8158 0.0347 -0.5773
vn -0.5913 -0.0820 -0.8023
vn -0.3670 0.4183 -0.8309
vn -0.2946 0.4649 -0.8349
vn -0.9444 -0.0255 -0.3279
vn -0.8496 0.0484 -0.5252
vn -0.7048 0.0668 -0.7063
vn -0.8580 0.1003 -0.5038
vn -0.7243 -0.5651 -0.3950
vn -0.5452 -0.6117 -0.5732
vn -0.5806 -0.5066 -0.6374
vn -0.2617 -0.6705 -0.6942
vn -0.3276 -0.8560 -0.3999
vn -0.3422 -0.4556 -0.8218
vn -0.2376 -0.9713 -0.0078
vn 0.0716 -0.6613 -0.7467
vn -0.0806 -0.4489 -0.8899
vn 0.0009 -0.3075 -0.9515
vn 0.0799 -0.2634 -0.9614
vn -0.7449 0.0316 -0.6664
vn 0.0574 0.2761 -0.9594
vn 0.3576 0.0144 -0.9337
vn 0.1797 -0.0729 -0.9810
vn -0.1659 -0.3347 0.9276
vn 0.7397 -0.3081 -0.5983
vn 0.3058 0.2396 -0.9215
vn 0.2996 -0.1039 -0.9484
vn 0.0441 0.1850 -0.9817
vn -0.2769 0.9555 -0.1012
vn 0.4703 0.2743 0.8388
vn -0.7060 0.0791 -0.7038
vn 0.0678 -0.2601 -0.9632
vt 0.881592 0.262762
vt 0.884387 0.259528
vt 0.886644 0.264138
vt 0.882298 0.267990
vt 0.985686 0.468101
vt 0.992272 0.467314
vt 0.988121 0.473038
vt 0.993826 0.472413
vt 0.988777 0.463128
vt 0.882141 0.257965
vt 0.832255 0.596781
vt 0.832951 0.602299
vt 0.830275 0.600347
vt 0.910857 0.262154
vt 0.889951 0.255891
vt 0.895790 0.265268
vt 0.900870 0.262421
vt 0.904390 0.264184
vt 0.890881 0.267687
vt 0.897473 0.274154
vt 0.902164 0.270882
vt 0.907467 0.267459
vt 0.908468 0.274681
vt 0.628798 0.979308
vt 0.628798 0.971806
vt 0.630814 0.977845
vt 0.910112 0.268010
vt 0.909650 0.273544
vt 0.917270 0.269747
vt 0.913441 0.263328
vt 0.675137 0.971806
vt 0.675137 0.978579
vt 0.672352 0.974445
vt 0.921032 0.260906
vt 0.917133 0.258842
vt 0.918710 0.258150
vt 0.846798 0.591939
vt 0.871084 0.599105
vt 0.866969 0.602299
vt 0.905210 0.257268
vt 0.838332 0.599122
vt 0.834139 0.594643
vt 0.839937 0.589361
vt 0.844750 0.587545
vt 0.855875 0.584542
vt 0.857009 0.593133
vt 0.836030 0.589914
vt 0.838492 0.585531
vt 0.840706 0.583054
vt 0.828251 0.589269
vt 0.830766 0.584430
vt 0.825059 0.586194
vt 0.977667 0.463128
vt 0.982729 0.464595
vt 0.979791 0.468972
vt 0.975487 0.467632
vt 0.826147 0.593910
vt 0.976832 0.471413
vt 0.973690 0.473793
vt 0.970239 0.468767
vt 0.972800 0.464134
vt 0.829304 0.227084
vt 0.830078 0.233131
vt 0.825059 0.226934
vt 0.978596 0.476031
vt 0.977144 0.479195
vt 0.829265 0.220731
vt 0.831627 0.222518
vt 0.973102 0.480722
vt 0.978073 0.483780
vt 0.836262 0.223929
vt 0.845558 0.216874
vt 0.835575 0.213872
vt 0.646542 0.878769
vt 0.645057 0.884039
vt 0.642160 0.877893
vt 0.834822 0.230865
vt 0.844030 0.220053
vt 0.847616 0.221184
vt 0.843556 0.225825
vt 0.839410 0.232522
vt 0.849252 0.230311
vt 0.843024 0.235722
vt 0.843902 0.237725
vt 0.853164 0.234496
vt 0.860924 0.227076
vt 0.864132 0.232539
vt 0.854655 0.218029
vt 0.865947 0.226489
vt 0.864250 0.221170
vt 0.849045 0.213872
vt 0.855526 0.214279
vt 0.879035 0.224364
vt 0.871104 0.219207
vt 0.635053 0.911990
vt 0.640080 0.903330
vt 0.642557 0.912539
vt 0.637904 0.919226
vt 0.638543 0.925998
vt 0.641656 0.918394
vt 0.984126 0.944628
vt 0.982186 0.950164
vt 0.980658 0.943077
vt 0.986799 0.947834
vt 0.924524 0.274552
vt 0.929368 0.267995
vt 0.928998 0.273001
vt 0.650489 0.914647
vt 0.654631 0.908119
vt 0.652606 0.918812
vt 0.923176 0.268628
vt 0.920584 0.275594
vt 0.928581 0.262282
vt 0.923956 0.256218
vt 0.970239 0.952909
vt 0.972033 0.943637
vt 0.974241 0.942246
vt 0.976613 0.952305
vt 0.970239 0.941131
vt 0.877053 0.230188
vt 0.880175 0.231129
vt 0.875627 0.234397
vt 0.976806 0.941220
vt 0.876992 0.225388
vt 0.879854 0.228504
vt 0.872241 0.230168
vt 0.872894 0.232944
vt 0.869551 0.236372
vt 0.861402 0.236691
vt 0.863473 0.579696
vt 0.874935 0.580642
vt 0.878219 0.585095
vt 0.860947 0.577493
vt 0.854452 0.580159
vt 0.843678 0.577519
vt 0.842142 0.579804
vt 0.829535 0.581061
vt 0.861823 0.582583
vt 0.872791 0.596981
vt 0.869618 0.587325
vt 0.875476 0.592626
vt 0.921733 0.256708
vt 0.913680 0.277064
vt 0.660003 0.909290
vt 0.662089 0.911814
vt 0.658045 0.913622
vt 0.653938 0.897873
vt 0.651222 0.900707
vt 0.660771 0.889965
vt 0.657818 0.904952
vt 0.650776 0.891864
vt 0.653045 0.890975
vt 0.438122 0.977758
vt 0.435219 0.977059
vt 0.435195 0.971806
vt 0.654046 0.892086
vt 0.656490 0.882584
vt 0.890204 0.272718
vt 0.883398 0.272466
vt 0.993121 0.477163
vt 0.987729 0.478639
vt 0.990641 0.480552
vt 0.983917 0.479941
vt 0.983238 0.475948
vt 0.988433 0.483663
vt 0.981529 0.472485
vt 0.980151 0.481028
vt 0.983197 0.484147
vt 0.653184 0.876032
vt 0.651503 0.879499
vt 0.653474 0.885490
vt 0.649312 0.875675
vt 0.435195 0.982740
vt 0.642573 0.893911
vt 0.647531 0.891385
vt 0.637191 0.893011
vt 0.639016 0.896537
vt 0.661591 0.903833
vt 0.905690 0.275883
vt 0.853863 0.599047
vt 0.868574 0.601835
vt 0.877544 0.220501
vt 0.643115 0.923883
vt 0.648566 0.921353
vt 0.927840 0.255891
vt 0.970341 0.946257
vt 0.869067 0.579038
vt 0.878768 0.582375
vt 0.841977 0.240175
vt 0.659995 0.897307
vt 0.659212 0.882028
vt 0.662089 0.883180
s 1
usemtl pleuraldeles_skin
f 1/1/1 7/2/2 2/3/3
f 1/1/1 2/3/3 4/4/4
f 6/5/5 1/6/6 3/7/7
f 1/6/6 4/8/8 3/7/7
f 5/9/9 1/6/6 6/5/5
f 1/1/1 5/10/10 7/2/2
f 34/11/11 7/12/2 5/13/10
f 10/14/12 7/2/2 8/15/13
f 7/2/2 11/16/14 2/3/3
f 9/17/15 15/18/16 11/16/14
f 14/19/17 11/16/14 12/20/18
f 11/16/14 13/21/19 12/20/18
f 11/16/14 15/18/16 13/21/19
f 2/3/3 14/19/17 4/4/4
f 15/18/16 10/14/12 16/22/20
f 15/18/16 16/22/20 13/21/19
f 13/21/19 16/22/20 17/23/21
f 17/24/22 16/25/23 18/26/24
f 19/27/25 18/28/24 16/22/23
f 10/14/12 19/27/26 16/22/20
f 21/29/27 19/27/28 20/30/29
f 10/31/12 22/32/30 20/33/31
f 24/34/32 20/30/29 22/35/33
f 23/36/34 24/34/32 22/35/33
f 26/37/35 98/38/36 22/39/30
f 22/35/30 10/14/12 25/40/37
f 26/37/35 8/41/13 33/42/38
f 26/37/35 29/43/39 27/44/40
f 26/37/35 94/45/41 28/46/42
f 32/47/43 30/48/44 29/43/39
f 29/43/39 30/48/44 31/49/45
f 27/44/40 29/43/39 31/49/45
f 33/42/38 32/47/43 29/43/39
f 34/11/46 35/50/47 33/42/48
f 32/47/49 33/42/48 35/50/47
f 32/47/49 36/51/50 30/48/51
f 36/51/50 35/50/47 38/52/52
f 35/53/47 39/54/53 37/55/54
f 35/53/47 37/55/54 38/56/52
f 37/55/54 39/54/53 6/5/5
f 6/5/5 39/54/53 5/9/9
f 5/13/9 39/57/53 34/11/46
f 37/55/54 40/58/55 38/56/52
f 38/56/52 40/58/55 42/59/56
f 38/56/52 42/59/56 41/60/57
f 36/61/50 38/56/52 41/60/57
f 44/62/58 41/63/57 42/64/56
f 43/65/59 45/66/60 42/59/56
f 40/58/55 43/65/59 42/59/56
f 44/62/58 46/67/61 50/68/62
f 45/66/60 46/69/61 42/59/56
f 48/70/63 46/69/61 45/66/60
f 51/71/64 46/67/61 47/72/65
f 47/72/65 46/67/61 49/73/66
f 48/74/63 49/75/66 46/76/61
f 51/71/64 44/62/58 50/68/62
f 44/62/58 51/71/64 52/77/67
f 51/71/64 53/78/68 52/77/67
f 54/79/69 53/78/68 47/72/65
f 53/78/68 55/80/70 119/81/71
f 55/80/70 53/78/68 54/79/69
f 57/82/72 56/83/73 55/80/70
f 54/79/69 57/82/72 55/80/70
f 91/84/74 57/82/72 58/85/75
f 58/85/75 59/86/76 61/87/77
f 62/88/78 54/79/69 47/72/65
f 60/89/79 62/88/78 64/90/80
f 59/86/76 60/89/79 61/87/77
f 63/91/81 62/88/78 47/72/65
f 66/92/82 62/88/78 63/91/81
f 70/93/83 64/90/80 68/94/84
f 64/95/80 66/96/82 67/97/85
f 68/98/84 64/95/80 67/97/85
f 69/99/86 67/97/85 74/100/87
f 69/101/88 71/102/89 70/103/90
f 71/102/89 69/101/88 72/104/91
f 73/105/92 71/106/89 72/107/91
f 75/108/93 100/109/94 76/110/95
f 75/108/93 74/100/87 67/97/85
f 77/111/96 76/112/97 21/29/27
f 77/111/96 21/29/27 24/34/32
f 78/113/98 77/111/96 24/34/32
f 71/106/89 77/111/96 78/113/98
f 97/114/99 78/113/98 24/34/32
f 79/115/100 81/116/101 80/117/102
f 70/103/90 78/118/98 80/117/102
f 81/116/103 82/119/104 80/117/105
f 84/120/106 80/121/105 82/122/104
f 70/103/90 80/117/102 83/123/107
f 65/124/108 70/93/83 83/125/109
f 84/120/106 65/124/108 83/125/110
f 84/120/106 86/126/111 65/124/108
f 85/127/112 84/120/106 82/122/104
f 84/120/106 85/127/112 86/126/111
f 60/89/79 65/124/108 86/126/111
f 85/127/112 61/87/77 86/126/111
f 86/126/111 61/87/77 60/89/79
f 85/127/112 82/122/104 87/128/113
f 89/129/114 61/87/77 85/127/112
f 88/130/115 82/131/116 95/132/117
f 89/133/114 88/130/115 90/134/118
f 91/135/74 90/134/118 92/136/119
f 91/84/74 58/85/75 89/129/114
f 41/63/57 119/81/120 91/84/74
f 36/51/50 31/49/121 30/48/51
f 90/134/118 31/49/45 92/136/119
f 41/137/57 92/136/119 36/51/50
f 90/134/118 88/130/115 93/138/122
f 90/134/118 94/45/41 31/49/45
f 28/46/42 94/45/41 93/138/122
f 97/139/123 28/46/42 93/138/122
f 96/140/124 93/138/122 95/132/117
f 79/141/125 96/140/124 95/132/117
f 97/114/99 24/34/32 98/142/126
f 94/45/41 27/44/40 31/49/45
f 21/29/27 99/143/127 18/28/128
f 17/144/129 18/145/130 99/146/131
f 100/109/94 17/144/129 99/146/131
f 102/147/132 100/109/94 101/148/133
f 106/149/134 120/150/135 100/109/94
f 101/148/133 105/151/136 102/147/132
f 105/151/136 103/152/137 102/147/132
f 103/153/138 104/154/139 102/155/132
f 106/149/134 104/156/139 114/157/140
f 4/4/4 106/158/134 107/159/141
f 14/19/17 12/20/18 106/158/134
f 3/7/7 4/8/8 107/160/142
f 109/161/143 107/160/142 108/162/144
f 107/160/142 109/161/143 3/7/7
f 110/163/145 111/164/146 109/161/143
f 109/161/143 114/165/147 110/163/145
f 111/164/146 3/7/7 109/161/143
f 112/166/148 111/164/146 43/65/59
f 111/164/146 113/167/149 43/65/59
f 112/166/148 3/7/7 111/164/146
f 112/166/148 40/58/55 37/55/54
f 112/166/148 43/65/59 40/58/55
f 112/166/148 6/5/5 3/7/7
f 112/166/148 37/55/54 6/5/5
f 115/168/150 113/167/149 110/163/145
f 110/169/145 114/157/147 115/170/150
f 115/170/150 114/157/147 116/171/151
f 115/170/150 48/74/63 113/172/149
f 49/75/66 48/74/63 115/170/150
f 105/151/152 49/75/66 116/171/151
f 103/153/138 116/173/153 104/154/139
f 113/167/149 48/70/63 45/66/60
f 113/167/149 45/66/60 43/65/59
f 66/96/82 105/151/154 101/148/133
f 118/174/155 105/151/154 66/96/82
f 49/75/66 117/175/156 118/174/155
f 118/174/155 47/176/65 49/75/66
f 118/174/155 66/96/82 63/177/81
f 52/77/67 41/63/57 44/62/58
f 13/178/19 17/144/129 120/150/135
f 13/21/19 120/179/135 12/20/18
f 34/11/11 8/41/13 7/12/2
f 8/15/13 25/40/37 10/14/12
f 10/14/12 9/17/15 7/2/2
f 7/2/2 9/17/15 11/16/14
f 9/17/15 10/14/12 15/18/16
f 2/3/3 11/16/14 14/19/17
f 10/14/12 20/30/31 19/27/26
f 21/29/27 18/28/128 19/27/28
f 24/34/32 21/29/27 20/30/29
f 23/36/34 98/142/126 24/34/32
f 22/39/30 25/180/37 26/37/35
f 26/37/35 28/46/42 98/38/36
f 98/38/36 23/181/157 22/39/30
f 33/42/38 29/43/39 26/37/35
f 26/37/35 25/180/37 8/41/13
f 8/41/13 34/11/11 33/42/38
f 26/37/35 27/44/40 94/45/41
f 34/11/46 39/57/53 35/50/47
f 32/47/49 35/50/47 36/51/50
f 44/62/58 42/64/56 46/67/61
f 47/72/65 53/78/158 51/71/64
f 51/71/64 50/68/62 46/67/61
f 119/81/71 52/77/67 53/78/68
f 55/80/70 56/83/73 119/81/71
f 54/79/69 59/86/76 57/82/72
f 91/84/74 56/83/73 57/82/72
f 58/85/75 57/82/72 59/86/76
f 62/88/78 59/86/76 54/79/69
f 60/89/79 59/86/76 62/88/78
f 64/90/80 65/124/108 60/89/79
f 66/92/82 64/90/80 62/88/78
f 68/94/84 69/182/86 70/93/83
f 70/93/83 65/124/108 64/90/80
f 74/100/87 72/183/159 69/99/86
f 69/99/86 68/98/84 67/97/85
f 73/105/92 77/111/96 71/106/89
f 76/110/95 73/184/160 72/183/159
f 72/183/159 74/100/87 75/108/93
f 75/108/93 67/97/85 66/96/82
f 66/96/82 101/148/133 100/109/94
f 100/109/94 99/146/161 76/110/95
f 76/110/95 72/183/159 75/108/93
f 75/108/93 66/96/82 100/109/94
f 77/111/96 73/105/92 76/112/97
f 97/114/99 79/185/100 78/113/98
f 80/117/102 78/118/98 79/115/100
f 79/115/100 95/186/162 81/116/101
f 70/103/90 71/102/89 78/118/98
f 84/120/106 83/125/110 80/121/105
f 85/127/112 87/128/113 89/129/114
f 89/129/114 58/85/75 61/87/77
f 95/132/117 93/138/122 88/130/115
f 88/130/115 87/187/113 82/131/116
f 82/131/116 81/188/163 95/132/117
f 89/133/114 87/187/113 88/130/115
f 91/135/74 89/133/114 90/134/118
f 91/84/74 92/189/119 41/63/57
f 41/63/57 52/77/67 119/81/120
f 119/81/120 56/83/73 91/84/74
f 36/51/50 92/136/119 31/49/121
f 90/134/118 93/138/122 94/45/41
f 93/138/122 96/140/124 97/139/123
f 97/139/123 98/38/36 28/46/42
f 79/141/125 97/139/123 96/140/124
f 21/29/27 76/112/97 99/143/127
f 100/109/94 102/147/132 106/149/134
f 106/149/134 12/190/18 120/150/135
f 120/150/135 17/144/129 100/109/94
f 108/191/164 107/192/141 106/149/134
f 106/149/134 102/147/132 104/156/139
f 104/156/139 116/171/153 114/157/140
f 114/157/140 108/191/164 106/149/134
f 4/4/4 14/19/17 106/158/134
f 109/161/143 108/162/144 114/165/147
f 111/164/146 110/163/145 113/167/149
f 116/171/151 103/152/165 105/151/152
f 105/151/152 117/175/156 49/75/66
f 49/75/66 115/170/150 116/171/151
f 118/174/155 117/175/156 105/151/154
f 118/174/155 63/177/81 47/176/65
