# ('FARMS composite mesh',)
mtllib link_body_30_composite.mtl
usemtl link_body_30_composite
v -1.21281400 -0.04577900 5.34631100
v -1.21281400 -0.04577900 5.34631100
v 1.56869900 -0.10674600 4.93771200
v 1.56869900 -0.10674600 4.93771200
v 1.56869900 -0.10674600 4.93771200
v 1.54478000 -0.05478700 5.02494100
v 1.54478000 -0.05478700 5.02494100
v 1.54478000 -0.05478700 5.02494100
v 1.54478000 -0.05478700 5.02494100
v -1.20808000 0.04546400 5.34621100
v -1.20808000 0.04546400 5.34621100
v -2.16561400 -0.05670700 5.21522100
v -2.16561400 -0.05670700 5.21522100
v 1.19869200 -0.25314400 4.68755000
v 1.19869200 -0.25314400 4.68755000
v -2.69354900 -0.23194100 4.86672000
v -2.69354900 -0.23194100 4.86672000
v -2.16478700 0.05631400 5.21586100
v -2.16478700 0.05631400 5.21586100
v -2.70973100 -0.00094000 4.86969900
v -2.69358000 0.23193900 4.86675500
v -2.69358000 0.23193900 4.86675500
v -3.42157600 0.47769600 4.12761000
v -3.42157600 0.47769600 4.12761000
v -3.42157600 0.47769600 4.12761000
v 1.19985600 0.25354900 4.68848100
v 1.19985600 0.25354900 4.68848100
v 1.56719600 0.10626200 4.93682500
v 1.56719600 0.10626200 4.93682500
v 1.56719600 0.10626200 4.93682500
v 0.50967400 0.42123300 3.98988100
v 0.50967400 0.42123300 3.98988100
v 0.50967400 0.42123300 3.98988100
v 1.20907600 0.00000000 4.71270800
v 0.47510100 0.00000100 3.98988100
v 0.47510100 0.00000100 3.98988100
v 0.50967400 -0.42123300 3.98988100
v 0.50967400 -0.42123300 3.98988100
v 0.50967400 -0.42123300 3.98988100
v -0.12725400 -0.00000000 3.10911300
v -0.57484400 0.00000100 2.10425200
v -0.07717100 -0.61017300 3.10911300
v -0.07717100 -0.61017300 3.10911300
v -0.07717100 0.61017300 3.10911300
v -0.07717100 0.61017300 3.10911300
v -0.50801500 0.81424000 2.10425200
v -0.50801500 0.81424000 2.10425200
v -0.76699400 1.01702100 1.01391400
v -0.76699400 1.01702100 1.01391400
v -0.85046700 0.00000100 1.01391400
v -0.94353500 0.00000100 -0.12000000
v -0.76699400 -1.01702100 1.01391400
v -0.76699400 -1.01702100 1.01391400
v -0.83694100 -1.20758400 -0.08404900
v -0.83694100 -1.20758400 -0.08404900
v -0.50801500 -0.81424000 2.10425200
v -0.50801500 -0.81424000 2.10425200
v -0.83775300 1.20897200 -0.09420200
v -0.83775300 1.20897200 -0.09420200
v -0.75918900 1.11212600 -1.25391400
v -3.34257400 1.63582200 -1.66386000
v -0.85046700 0.00000100 -1.25391400
v -0.68930000 1.39229100 -1.24610500
v -0.68930000 1.39229100 -1.24610500
v -0.39273800 1.47054000 -2.30953500
v -0.39273800 1.47054000 -2.30953500
v 0.01579700 1.35103300 -3.27447100
v 0.01579700 1.35103300 -3.27447100
v -1.92025700 1.52831500 -2.92812300
v -0.48886100 1.04759900 -2.34425100
v -0.04987000 0.94281500 -3.34911300
v -0.57484400 0.00000100 -2.34425100
v -0.12725500 -0.00000000 -3.34911300
v -0.48886100 -1.04759800 -2.34425100
v -0.75918900 -1.11212300 -1.25391400
v -0.04987000 -0.94281400 -3.34911300
v -0.37678500 -1.46418800 -2.36049500
v -0.37678500 -1.46418800 -2.36049500
v -0.67439600 -1.41059000 -1.30351800
v -0.67439600 -1.41059000 -1.30351800
v -3.34257400 -1.63582300 -1.66386000
v -3.42157600 -0.47769500 4.12761000
v -3.42157600 -0.47769500 4.12761000
v -3.42157600 -0.47769500 4.12761000
v -3.84030400 -1.55261300 -3.23098200
v -3.84030400 -1.55261300 -3.23098200
v -3.84030400 -1.55261300 -3.23098200
v -4.59566400 -1.54535700 -1.06672200
v -4.59566400 -1.54535700 -1.06672200
v -1.92025700 -1.52831600 -2.92812300
v -4.27423300 -1.63160600 -2.24418200
v -4.27423300 -1.63160600 -2.24418200
v -4.42036700 -1.63929300 -1.68312100
v -4.42036700 -1.63929300 -1.68312100
v -4.69371300 -1.12036500 -1.14234500
v -4.42137000 -1.05535800 -2.24078800
v -4.50798700 0.00000100 -2.24078800
v -3.97910600 -0.94979200 -3.25311200
v -3.97910600 -0.94979200 -3.25311200
v -4.05705900 -0.00000100 -3.25311200
v -3.97910600 0.94979200 -3.25311200
v -3.45022100 0.00000100 -4.14041300
v -3.45022100 0.00000100 -4.14041300
v -3.38392500 0.80772600 -4.14041300
v -3.38392500 0.80772600 -4.14041300
v -3.38392500 -0.80772500 -4.14041300
v -3.38392500 -0.80772500 -4.14041300
v -2.60345000 -0.83545000 -4.87643000
v -2.60345000 -0.83545000 -4.87643000
v -2.60345000 -0.83545000 -4.87643000
v -3.27834600 -1.23041100 -4.13881900
v -3.27834600 -1.23041100 -4.13881900
v -2.71078000 -0.00000000 -4.86859200
v -1.83676500 -0.47427100 -5.40471500
v -1.83676500 -0.47427100 -5.40471500
v -1.85686100 0.26159900 -5.41336600
v -2.60700100 0.83196600 -4.87571000
v -2.60700100 0.83196600 -4.87571000
v 2.07606400 0.36438000 -5.49479400
v 2.07606400 0.36438000 -5.49479400
v -1.82022800 0.47624200 -5.41111700
v -1.82022800 0.47624200 -5.41111700
v 2.55821100 0.24457600 -5.66891500
v 2.55821100 0.24457600 -5.66891500
v 2.55821100 0.24457600 -5.66891500
v -3.27979200 1.23176500 -4.13664300
v -3.27979200 1.23176500 -4.13664300
v -3.27979200 1.23176500 -4.13664300
v 0.58232100 0.99358900 -4.22941100
v 0.58232100 0.99358900 -4.22941100
v 0.58232100 0.99358900 -4.22941100
v -3.84115500 1.55080400 -3.23049800
v -3.84115500 1.55080400 -3.23049800
v 1.26601700 0.64989200 -4.95417400
v 1.26601700 0.64989200 -4.95417400
v 1.20907500 0.00000000 -4.95270800
v 0.47510100 0.00000100 -4.22988100
v 0.47510100 0.00000100 -4.22988100
v 0.54090900 -0.80179700 -4.22988100
v 0.54090900 -0.80179700 -4.22988100
v 0.67058500 -1.31477500 -4.22988100
v 0.67058500 -1.31477500 -4.22988100
v 0.67058500 -1.31477500 -4.22988100
v 1.26078000 -0.62996700 -4.95270800
v 0.06420500 -1.39408100 -3.34911300
v 0.06420500 -1.39408100 -3.34911300
v 2.10765800 -0.53289200 -5.49409100
v 2.10765800 -0.53289200 -5.49409100
v 1.41390900 -1.23572600 -4.95270800
v 1.41390900 -1.23572600 -4.95270800
v 1.41390900 -1.23572600 -4.95270800
v -0.92382000 -0.42695400 -5.74210100
v -0.92382000 -0.42695400 -5.74210100
v -0.92382000 -0.42695400 -5.74210100
v 1.81573000 0.00254800 -5.94522500
v 1.81573000 0.00254800 -5.94522500
v 1.81573000 0.00254800 -5.94522500
v 1.81573000 0.00254800 -5.94522500
v 1.81573000 0.00254800 -5.94522500
v -0.13869500 0.00304800 -5.83898200
v -0.92457900 0.23460200 -5.74504800
v -0.92457900 0.23460200 -5.74504800
v 2.95027800 0.07319500 -5.81856300
v 2.95027800 0.07319500 -5.81856300
v 2.95027800 0.07319500 -5.81856300
v 2.92800800 -0.09504100 -5.80787600
v 2.92800800 -0.09504100 -5.80787600
v 2.92800800 -0.09504100 -5.80787600
v -4.27423300 1.63160500 -2.24418500
v -4.27423300 1.63160500 -2.24418500
v -4.42036700 1.63929200 -1.68312000
v -4.42036700 1.63929200 -1.68312000
v -4.42136600 1.05535800 -2.24078800
v -4.69371300 1.12036600 -1.14234500
v -4.59566400 1.54535600 -1.06672200
v -4.59566400 1.54535600 -1.06672200
v -4.76610400 1.25044100 0.06771400
v -4.76610400 1.25044100 0.06771400
v -4.78567000 0.00000000 -1.14234500
v -4.87943100 0.00000000 -0.00000000
v -4.78567000 0.00000100 1.14234500
v -4.76515100 -1.25054500 0.07120500
v -4.76515100 -1.25054500 0.07120500
v -4.44589900 -0.75650200 2.24078800
v -4.44589900 -0.75650200 2.24078800
v -4.00658300 -0.61504700 3.25311100
v -4.00658300 -0.61504700 3.25311100
v -4.70618700 -0.96837000 1.14234500
v -4.70618700 -0.96837000 1.14234500
v -4.05705900 -0.00000100 3.25311200
v -4.50798700 0.00000100 2.24078800
v -4.44589900 0.75650100 2.24078700
v -4.44589900 0.75650100 2.24078700
v -4.00657900 0.61504600 3.25311200
v -4.00657900 0.61504600 3.25311200
v -4.70618700 0.96836900 1.14234500
v -4.70618700 0.96836900 1.14234500
v -3.45022100 0.00000100 4.14041200
v -3.45022100 0.00000100 4.14041200
v 1.59816700 0.00004800 4.96205800
v 1.59816700 0.00004800 4.96205800
v 1.59816700 0.00004800 4.96205800
v 1.59816700 0.00004800 4.96205800
v 1.54507400 0.05495800 5.02459800
v 1.54507400 0.05495800 5.02459800
v 1.54507400 0.05495800 5.02459800
v 1.54507400 0.05495800 5.02459800
vn 0.00740000 -0.93440000 0.35600000
vn -0.01420000 0.00130000 0.99990000
vn 0.05370000 -0.86740000 0.49470000
vn 0.53990000 0.04760000 -0.84040000
vn 0.84190000 -0.32970000 0.42720000
vn 0.05810000 -0.85060000 0.52260000
vn 0.11600000 0.00260000 0.99320000
vn 0.82270000 -0.18410000 0.53790000
vn 0.82270000 -0.18410000 0.53790000
vn -0.00590000 0.00150000 1.00000000
vn 0.00740000 0.93410000 0.35690000
vn -0.06200000 -0.85080000 0.52180000
vn -0.36240000 -0.00780000 0.93200000
vn 0.03720000 -0.92050000 0.38910000
vn 0.64300000 0.05180000 -0.76410000
vn -0.63430000 -0.05440000 0.77110000
vn 0.00180000 -0.94260000 0.33390000
vn -0.36030000 0.00300000 0.93280000
vn -0.06140000 0.85120000 0.52120000
vn -0.62680000 -0.00030000 0.77920000
vn 0.00170000 0.94250000 0.33420000
vn -0.63450000 0.05380000 0.77100000
vn -0.77240000 0.06360000 0.63190000
vn -0.77240000 0.06360000 0.63190000
vn 0.00400000 0.97440000 0.22490000
vn 0.64280000 -0.05180000 -0.76430000
vn 0.03790000 0.91920000 0.39190000
vn 0.05350000 0.86920000 0.49160000
vn 0.84300000 0.34410000 0.41360000
vn 0.53990000 -0.04710000 -0.84040000
vn 0.77140000 -0.06330000 -0.63320000
vn 0.02130000 0.97790000 0.20800000
vn 0.77140000 -0.06330000 -0.63320000
vn 0.62090000 0.00010000 -0.78390000
vn 0.77020000 -0.00000000 -0.63780000
vn 0.77020000 -0.00000000 -0.63780000
vn 0.77150000 0.06330000 -0.63310000
vn 0.77150000 0.06330000 -0.63310000
vn 0.02140000 -0.97780000 0.20860000
vn 0.87410000 -0.00000000 -0.48570000
vn 0.94540000 -0.00000000 -0.32580000
vn 0.02020000 -0.98080000 0.19400000
vn 0.87470000 0.07180000 -0.47940000
vn 0.87470000 -0.07180000 -0.47940000
vn 0.02020000 0.98080000 0.19400000
vn 0.01470000 0.98270000 0.18460000
vn 0.94480000 -0.07750000 -0.31820000
vn 0.98490000 -0.08080000 -0.15290000
vn 0.03250000 0.98210000 0.18560000
vn 0.98670000 -0.00000000 -0.16240000
vn 1.00000000 -0.00070000 0.00030000
vn 0.03240000 -0.98210000 0.18570000
vn 0.98490000 0.08080000 -0.15280000
vn 0.99490000 0.10100000 0.00470000
vn 0.06190000 -0.98380000 0.16840000
vn 0.94480000 0.07750000 -0.31820000
vn 0.01470000 -0.98270000 0.18460000
vn 0.99520000 -0.09720000 0.00710000
vn 0.06370000 0.98410000 0.16590000
vn 0.97340000 -0.16060000 0.16320000
vn 0.03160000 0.99700000 0.07110000
vn 0.98670000 -0.00090000 0.16240000
vn 0.07050000 0.98910000 0.12900000
vn 0.95460000 -0.24290000 0.17230000
vn 0.07080000 0.99730000 -0.01840000
vn 0.91600000 -0.23550000 0.32490000
vn 0.85310000 -0.22570000 0.47040000
vn 0.05760000 0.96690000 -0.24850000
vn 0.04720000 0.99040000 -0.12970000
vn 0.93160000 -0.15590000 0.32840000
vn 0.85780000 -0.14710000 0.49250000
vn 0.94540000 -0.00000000 0.32580000
vn 0.87410000 -0.00000000 0.48570000
vn 0.93200000 0.15540000 0.32740000
vn 0.97360000 0.16330000 0.15960000
vn 0.86110000 0.14310000 0.48790000
vn 0.91210000 0.23240000 0.33790000
vn 0.06220000 -0.99810000 -0.00390000
vn 0.95260000 0.24240000 0.18380000
vn 0.06740000 -0.99050000 0.11980000
vn 0.03140000 -0.99700000 0.07130000
vn -0.77240000 -0.06360000 0.63190000
vn 0.00400000 -0.97440000 0.22490000
vn -0.77240000 -0.06360000 0.63190000
vn 0.00540000 -0.98980000 -0.14240000
vn -0.84910000 -0.21320000 -0.48330000
vn -0.84910000 -0.21320000 -0.48330000
vn -0.00290000 -0.98230000 0.18750000
vn -0.95540000 -0.24870000 -0.15900000
vn 0.03910000 -0.99730000 -0.06200000
vn 0.02190000 -0.99890000 -0.04240000
vn -0.91470000 -0.23080000 -0.33190000
vn 0.00170000 -0.99660000 0.08200000
vn -0.93930000 -0.24160000 -0.24350000
vn -0.97290000 -0.16300000 -0.16410000
vn -0.93200000 -0.15520000 -0.32740000
vn -0.94540000 -0.00000000 -0.32580000
vn -0.86090000 -0.14290000 -0.48830000
vn -0.86090000 -0.14290000 -0.48830000
vn -0.87410000 -0.00000000 -0.48570000
vn -0.86090000 0.14280000 -0.48830000
vn -0.76920000 -0.00000000 -0.63900000
vn -0.76920000 -0.00000000 -0.63900000
vn -0.75650000 0.12500000 -0.64200000
vn -0.75650000 0.12500000 -0.64200000
vn -0.75630000 -0.12510000 -0.64220000
vn -0.75630000 -0.12510000 -0.64220000
vn -0.62970000 -0.08550000 -0.77210000
vn -0.10470000 -0.82240000 -0.55920000
vn -0.10470000 -0.82240000 -0.55920000
vn -0.07250000 -0.90840000 -0.41180000
vn -0.74910000 -0.19010000 -0.63460000
vn -0.62730000 -0.00130000 -0.77880000
vn -0.25390000 -0.58620000 -0.76930000
vn -0.45520000 -0.03170000 -0.88980000
vn -0.43230000 0.03760000 -0.90100000
vn 0.02580000 0.88190000 -0.47080000
vn -0.63060000 0.08680000 -0.77120000
vn 0.01550000 0.84890000 -0.52840000
vn 0.45880000 0.00120000 0.88860000
vn -0.43440000 0.07190000 -0.89790000
vn 0.01240000 0.83910000 -0.54380000
vn 0.31520000 -0.10280000 0.94350000
vn 0.02900000 0.72810000 -0.68490000
vn 0.02900000 0.72810000 -0.68490000
vn 0.04280000 0.93710000 -0.34650000
vn -0.74980000 0.19040000 -0.63370000
vn -0.74980000 0.19040000 -0.63370000
vn 0.04830000 0.92740000 -0.37080000
vn 0.76950000 -0.10030000 0.63070000
vn 0.76950000 -0.10030000 0.63070000
vn 0.03490000 0.98720000 -0.15540000
vn -0.84920000 0.21310000 -0.48310000
vn 0.04220000 0.90990000 -0.41270000
vn 0.63890000 -0.05870000 0.76710000
vn 0.62560000 0.00060000 0.78010000
vn 0.76880000 -0.00600000 0.63950000
vn 0.76880000 -0.00600000 0.63950000
vn 0.75700000 0.12580000 0.64120000
vn 0.75700000 0.12580000 0.64120000
vn 0.73800000 0.18660000 0.64850000
vn 0.05670000 -0.99710000 -0.05080000
vn 0.73800000 0.18660000 0.64850000
vn 0.61660000 0.10090000 0.78080000
vn 0.84320000 0.21310000 0.49350000
vn 0.05700000 -0.99720000 -0.04910000
vn 0.46950000 0.04110000 0.88200000
vn 0.03800000 -0.63170000 -0.77430000
vn 0.61450000 0.15530000 0.77350000
vn 0.00970000 -0.77570000 -0.63100000
vn 0.00970000 -0.77570000 -0.63100000
vn -0.23340000 -0.01870000 -0.97220000
vn -0.07670000 -0.77380000 -0.62880000
vn -0.07670000 -0.77380000 -0.62880000
vn 0.04010000 -0.63210000 -0.77390000
vn 0.01540000 0.73130000 -0.68190000
vn -0.05430000 -0.00410000 -0.99850000
vn 0.11540000 -0.07820000 -0.99020000
vn 0.01540000 0.73130000 -0.68190000
vn -0.06250000 0.04560000 -0.99700000
vn 0.01020000 0.81910000 -0.57360000
vn -0.24470000 0.00920000 -0.96960000
vn 0.34960000 0.00760000 0.93690000
vn 0.03560000 0.70230000 -0.71100000
vn 0.11540000 -0.07820000 -0.99020000
vn 0.35120000 0.01300000 0.93620000
vn 0.04030000 -0.63090000 -0.77480000
vn 0.11540000 -0.07820000 -0.99020000
vn 0.02240000 0.99880000 -0.04320000
vn -0.91470000 0.23070000 -0.33180000
vn 0.00170000 0.99660000 0.08200000
vn -0.93930000 0.24160000 -0.24350000
vn -0.93200000 0.15520000 -0.32740000
vn -0.97340000 0.16130000 -0.16260000
vn -0.95530000 0.24880000 -0.15950000
vn -0.00320000 0.98230000 0.18750000
vn -0.99450000 0.10420000 -0.00880000
vn -0.16030000 0.96000000 0.22950000
vn -0.98680000 0.00170000 -0.16170000
vn -1.00000000 0.00140000 -0.00110000
vn -0.98680000 -0.00010000 0.16220000
vn -0.99420000 -0.10720000 -0.00590000
vn -0.15840000 -0.96040000 0.22940000
vn -0.28580000 -0.92440000 0.25260000
vn -0.94440000 -0.07750000 0.31960000
vn -0.11860000 -0.96700000 0.22530000
vn -0.87360000 -0.07170000 0.48140000
vn -0.34950000 -0.90110000 0.25660000
vn -0.98540000 -0.08090000 0.14990000
vn -0.87440000 -0.00000000 0.48530000
vn -0.94540000 -0.00000000 0.32580000
vn -0.94440000 0.07750000 0.31960000
vn -0.28480000 0.92480000 0.25220000
vn -0.87360000 0.07170000 0.48140000
vn -0.11860000 0.96700000 0.22530000
vn -0.98530000 0.08090000 0.15030000
vn -0.34660000 0.90240000 0.25620000
vn -0.76780000 -0.00000000 0.64070000
vn -0.76780000 -0.00000000 0.64070000
vn 0.53960000 0.00050000 -0.84190000
vn 0.85020000 0.00450000 0.52650000
vn 0.85020000 0.00450000 0.52650000
vn 0.85020000 0.00450000 0.52650000
vn 0.82490000 0.19230000 0.53150000
vn 0.82490000 0.19230000 0.53150000
vn 0.05720000 0.85560000 0.51450000
vn 0.11600000 0.00280000 0.99320000
vt 0.76242600 0.40818600
vt 0.94621800 0.78161700
vt 0.76441500 0.42669700
vt 0.62485000 0.97206000
vt 0.99910200 0.97109400
vt 0.76392600 0.42651900
vt 0.96450500 0.78290100
vt 0.96450500 0.78290100
vt 0.99857000 0.97109400
vt 0.94621300 0.78212300
vt 0.12810600 0.75125600
vt 0.76325100 0.40187400
vt 0.93991100 0.78110700
vt 0.76586300 0.42429400
vt 0.62539100 0.97459600
vt 0.93648800 0.77990300
vt 0.76526500 0.39843700
vt 0.93987100 0.78173200
vt 0.12206300 0.75129600
vt 0.93628900 0.78117100
vt 0.11825200 0.75284300
vt 0.93630300 0.78246500
vt 0.93139500 0.78350700
vt 0.88206000 0.38334900
vt 0.11285400 0.75639600
vt 0.62260000 0.97431300
vt 0.14232800 0.75658400
vt 0.14502600 0.75547700
vt 0.99963600 0.97132000
vt 0.62367500 0.97195400
vt 0.62115700 0.97881400
vt 0.13733400 0.75994100
vt 0.88162800 0.50103500
vt 0.62400500 0.97438900
vt 0.88163200 0.49869300
vt 0.62345500 0.97927200
vt 0.88159200 0.49641200
vt 0.62579900 0.97927200
vt 0.76982500 0.41981300
vt 0.88687300 0.49818300
vt 0.89269800 0.49781400
vt 0.77479200 0.41602900
vt 0.88681400 0.49487900
vt 0.88686700 0.50157600
vt 0.13284100 0.76437500
vt 0.12922100 0.76960200
vt 0.89269100 0.50234200
vt 0.89887500 0.50325600
vt 0.12662500 0.77542100
vt 0.89888400 0.49760100
vt 0.90519300 0.49755000
vt 0.78653000 0.41170700
vt 0.89878600 0.49209400
vt 0.90487400 0.49101700
vt 0.79264700 0.41137200
vt 0.89262000 0.49340500
vt 0.78043300 0.41329400
vt 0.90503600 0.50427800
vt 0.12521000 0.78147200
vt 0.91137300 0.50384900
vt 0.10796100 0.78833900
vt 0.91138300 0.49766500
vt 0.12515100 0.78792000
vt 0.91129700 0.50544900
vt 0.12625700 0.79398500
vt 0.91697100 0.50617100
vt 0.92202200 0.50590500
vt 0.12848500 0.79958700
vt 0.11630500 0.79630800
vt 0.91720600 0.50376600
vt 0.92245800 0.50360900
vt 0.91721600 0.49794100
vt 0.92246700 0.49836600
vt 0.91711500 0.49226800
vt 0.91127600 0.49164300
vt 0.92237600 0.49326100
vt 0.91711400 0.49008200
vt 0.80524400 0.41466200
vt 0.91148200 0.49008200
vt 0.79941500 0.41259200
vt 0.80172200 0.39496000
vt 0.93177600 0.77823100
vt 0.76947300 0.39371800
vt 0.88159200 0.38819100
vt 0.81043000 0.39175800
vt 0.92138600 0.39907300
vt 0.92702600 0.43790000
vt 0.79852800 0.38657400
vt 0.90915300 0.39970800
vt 0.80855400 0.40447500
vt 0.80502700 0.38881900
vt 0.91573000 0.40001100
vt 0.80193900 0.38780800
vt 0.91257500 0.40009500
vt 0.90973600 0.39785200
vt 0.91593100 0.39746900
vt 0.91641100 0.39234500
vt 0.92776400 0.44128500
vt 0.92174400 0.39639000
vt 0.92217700 0.39177900
vt 0.92267600 0.38676500
vt 0.92400400 0.44643000
vt 0.92732100 0.39073600
vt 0.92331700 0.45087100
vt 0.92774600 0.38647200
vt 0.92381100 0.44194000
vt 0.92695300 0.39465800
vt 0.91867400 0.44157400
vt 0.81928100 0.39992900
vt 0.91867400 0.44157400
vt 0.81533900 0.39548300
vt 0.92324000 0.43956500
vt 0.91913100 0.44623100
vt 0.91350100 0.44334300
vt 0.91350100 0.44334300
vt 0.91340900 0.44741900
vt 0.11225100 0.80654500
vt 0.91818800 0.45079300
vt 0.14190800 0.81327300
vt 0.98076300 0.93457400
vt 0.91310100 0.44859200
vt 0.11751200 0.81005000
vt 0.98402100 0.93489800
vt 0.14503300 0.81457300
vt 0.88413400 0.44573500
vt 0.10773100 0.80199800
vt 0.92249700 0.45317600
vt 0.92797800 0.38405200
vt 0.13214500 0.80524700
vt 0.92690700 0.50447400
vt 0.97023900 0.93489800
vt 0.10414700 0.79661100
vt 0.92290600 0.38334900
vt 0.13663700 0.80972200
vt 0.97514900 0.93446200
vt 0.97585400 0.93091300
vt 0.97118900 0.92943200
vt 0.92693500 0.49892600
vt 0.97292300 0.92532200
vt 0.92685800 0.49458400
vt 0.97458700 0.92286400
vt 0.81545500 0.42172500
vt 0.92675200 0.49188400
vt 0.97721600 0.92768300
vt 0.92228300 0.49088600
vt 0.81065700 0.41765000
vt 0.98243600 0.92989100
vt 0.88735300 0.44158500
vt 0.97918200 0.92478100
vt 0.81936600 0.42669700
vt 0.89214600 0.43790000
vt 0.90744400 0.44330400
vt 0.82382700 0.41105000
vt 0.90744400 0.44330400
vt 0.88914600 0.44469600
vt 0.88914600 0.44469600
vt 0.88914600 0.44469600
vt 0.88914600 0.44469600
vt 0.14071400 0.81556800
vt 0.90210800 0.44540300
vt 0.12334800 0.81252400
vt 0.90724700 0.44696100
vt 0.98679200 0.93477100
vt 0.88159200 0.44465900
vt 0.88159200 0.44465900
vt 0.98692700 0.93383700
vt 0.88179000 0.44373600
vt 0.88179000 0.44373600
vt 0.10185100 0.79087400
vt 0.91733100 0.38347500
vt 0.10124000 0.78768100
vt 0.91418300 0.38348200
vt 0.91696600 0.38677300
vt 0.91083500 0.38649800
vt 0.91066900 0.38404600
vt 0.10066800 0.78416300
vt 0.90420700 0.38531000
vt 0.10079000 0.77779600
vt 0.91024600 0.39241200
vt 0.90391800 0.39197900
vt 0.89767100 0.39106100
vt 0.90296200 0.39797800
vt 0.79219600 0.38529300
vt 0.78006900 0.38712900
vt 0.89140000 0.39336600
vt 0.77439600 0.38993400
vt 0.88608600 0.39091500
vt 0.78621200 0.38553600
vt 0.89723000 0.39576200
vt 0.88636600 0.38792900
vt 0.89174400 0.38969300
vt 0.89214200 0.38569900
vt 0.10491300 0.76605900
vt 0.88669000 0.38468200
vt 0.10847300 0.76079700
vt 0.89818000 0.38594800
vt 0.10228700 0.77192200
vt 0.88174300 0.38583600
vt 0.93139600 0.78085500
vt 0.62428300 0.97180600
vt 0.96483800 0.78323200
vt 0.99867200 0.97155400
vt 0.99910200 0.97109400
vt 0.96446300 0.78350700
vt 0.99910200 0.97149300
vt 0.14503300 0.75497800
vt 0.96446300 0.78350700
f 14/14/14 3/3/3 1/1/1
f 1/1/1 3/3/3 6/6/6
f 10/10/10 2/2/2 7/7/7
f 2/2/2 10/10/10 18/18/18
f 12/12/12 17/17/17 1/1/1
f 2/2/2 18/18/18 13/13/13
f 17/17/17 14/14/14 1/1/1
f 21/21/21 19/19/19 11/11/11
f 13/13/13 18/18/18 20/20/20
f 22/22/22 20/20/20 18/18/18
f 20/20/20 22/22/22 23/23/23
f 21/21/21 27/27/27 25/25/25
f 11/11/11 27/27/27 21/21/21
f 26/26/26 30/30/30 34/34/34
f 11/11/11 28/28/28 27/27/27
f 25/25/25 27/27/27 32/32/32
f 36/36/36 31/31/31 26/26/26
f 34/34/34 36/36/36 26/26/26
f 33/33/33 35/35/35 40/40/40
f 40/40/40 35/35/35 37/37/37
f 38/38/38 36/36/36 15/15/15
f 36/36/36 34/34/34 15/15/15
f 44/44/44 40/40/40 41/41/41
f 41/41/41 40/40/40 43/43/43
f 40/40/40 37/37/37 43/43/43
f 33/33/33 40/40/40 44/44/44
f 25/25/25 32/32/32 45/45/45
f 25/25/25 45/45/45 46/46/46
f 44/44/44 41/41/41 47/47/47
f 47/47/47 50/50/50 48/48/48
f 25/25/25 46/46/46 49/49/49
f 47/47/47 41/41/41 50/50/50
f 50/50/50 51/51/51 58/58/58
f 50/50/50 54/54/54 51/51/51
f 58/58/58 48/48/48 50/50/50
f 53/53/53 54/54/54 50/50/50
f 50/50/50 56/56/56 53/53/53
f 50/50/50 41/41/41 56/56/56
f 62/62/62 58/58/58 51/51/51
f 59/59/59 61/61/61 49/49/49
f 58/58/58 60/60/60 64/64/64
f 62/62/62 60/60/60 58/58/58
f 59/59/59 63/63/63 61/61/61
f 66/66/66 64/64/64 60/60/60
f 63/63/63 65/65/65 61/61/61
f 67/67/67 66/66/66 70/70/70
f 65/65/65 68/68/68 69/69/69
f 61/61/61 65/65/65 69/69/69
f 60/60/60 70/70/70 66/66/66
f 72/72/72 70/70/70 60/60/60
f 70/70/70 71/71/71 67/67/67
f 72/72/72 71/71/71 70/70/70
f 72/72/72 73/73/73 71/71/71
f 74/74/74 73/73/73 72/72/72
f 74/74/74 72/72/72 62/62/62
f 72/72/72 60/60/60 62/62/62
f 74/74/74 75/75/75 79/79/79
f 74/74/74 62/62/62 75/75/75
f 74/74/74 76/76/76 73/73/73
f 76/76/76 74/74/74 77/77/77
f 79/79/79 77/77/77 74/74/74
f 81/81/81 78/78/78 80/80/80
f 81/81/81 80/80/80 55/55/55
f 54/54/54 79/79/79 75/75/75
f 83/83/83 81/81/81 52/52/52
f 88/88/88 81/81/81 83/83/83
f 81/81/81 91/91/91 85/85/85
f 81/81/81 85/85/85 90/90/90
f 88/88/88 93/93/93 81/81/81
f 81/81/81 90/90/90 78/78/78
f 93/93/93 91/91/91 81/81/81
f 81/81/81 55/55/55 52/52/52
f 95/95/95 94/94/94 89/89/89
f 94/94/94 95/95/95 96/96/96
f 94/94/94 96/96/96 92/92/92
f 97/97/97 96/96/96 95/95/95
f 99/99/99 92/92/92 96/96/96
f 100/100/100 96/96/96 97/97/97
f 100/100/100 99/99/99 96/96/96
f 101/101/101 100/100/100 97/97/97
f 105/105/105 100/100/100 101/101/101
f 100/100/100 103/103/103 107/107/107
f 105/105/105 103/103/103 100/100/100
f 100/100/100 107/107/107 99/99/99
f 113/113/113 108/108/108 106/106/106
f 106/106/106 108/108/108 112/112/112
f 98/98/98 106/106/106 112/112/112
f 113/113/113 106/106/106 102/102/102
f 113/113/113 115/115/115 108/108/108
f 116/116/116 115/115/115 113/113/113
f 113/113/113 102/102/102 104/104/104
f 118/118/118 116/116/116 113/113/113
f 113/113/113 104/104/104 118/118/118
f 119/119/119 117/117/117 126/126/126
f 119/119/119 124/124/124 117/117/117
f 118/118/118 121/121/121 116/116/116
f 117/117/117 124/124/124 122/122/122
f 118/118/118 104/104/104 127/127/127
f 68/68/68 129/129/129 126/126/126
f 126/126/126 129/129/129 134/134/134
f 101/101/101 128/128/128 105/105/105
f 126/126/126 132/132/132 68/68/68
f 101/101/101 133/133/133 128/128/128
f 134/134/134 119/119/119 126/126/126
f 136/136/136 120/120/120 135/135/135
f 137/137/137 136/136/136 135/135/135
f 137/137/137 135/135/135 131/131/131
f 138/138/138 130/130/130 71/71/71
f 140/140/140 138/138/138 73/73/73
f 138/138/138 71/71/71 73/73/73
f 139/139/139 136/136/136 137/137/137
f 141/141/141 144/144/144 139/139/139
f 140/140/140 145/145/145 143/143/143
f 140/140/140 76/76/76 145/145/145
f 140/140/140 73/73/73 76/76/76
f 139/139/139 144/144/144 136/136/136
f 77/77/77 145/145/145 76/76/76
f 90/90/90 142/142/142 146/146/146
f 146/146/146 78/78/78 90/90/90
f 136/136/136 144/144/144 147/147/147
f 147/147/147 144/144/144 149/149/149
f 141/141/141 149/149/149 144/144/144
f 85/85/85 111/111/111 150/150/150
f 90/90/90 85/85/85 150/150/150
f 90/90/90 150/150/150 142/142/142
f 109/109/109 153/153/153 150/150/150
f 111/111/111 109/109/109 150/150/150
f 154/154/154 155/155/155 151/151/151
f 148/148/148 151/151/151 155/155/155
f 152/152/152 160/160/160 157/157/157
f 160/160/160 162/162/162 157/157/157
f 161/161/161 124/124/124 159/159/159
f 158/158/158 165/165/165 168/168/168
f 156/156/156 125/125/125 164/164/164
f 155/155/155 167/167/167 148/148/148
f 147/147/147 166/166/166 163/163/163
f 120/120/120 163/163/163 123/123/123
f 163/163/163 120/120/120 147/147/147
f 152/152/152 162/162/162 160/160/160
f 121/121/121 162/162/162 152/152/152
f 122/122/122 124/124/124 161/161/161
f 110/110/110 114/114/114 154/154/154
f 115/115/115 116/116/116 152/152/152
f 116/116/116 121/121/121 152/152/152
f 136/136/136 147/147/147 120/120/120
f 69/69/69 68/68/68 132/132/132
f 170/170/170 133/133/133 101/101/101
f 132/132/132 61/61/61 69/69/69
f 169/169/169 61/61/61 132/132/132
f 172/172/172 170/170/170 173/173/173
f 169/169/169 171/171/171 61/61/61
f 170/170/170 101/101/101 173/173/173
f 174/174/174 173/173/173 97/97/97
f 174/174/174 172/172/172 173/173/173
f 101/101/101 97/97/97 173/173/173
f 174/174/174 177/177/177 175/175/175
f 174/174/174 175/175/175 172/172/172
f 177/177/177 174/174/174 179/179/179
f 174/174/174 97/97/97 179/179/179
f 180/180/180 179/179/179 95/95/95
f 97/97/97 95/95/95 179/179/179
f 177/177/177 179/179/179 180/180/180
f 181/181/181 180/180/180 182/182/182
f 177/177/177 180/180/180 181/181/181
f 180/180/180 95/95/95 182/182/182
f 182/182/182 95/95/95 89/89/89
f 183/183/183 88/88/88 186/186/186
f 188/188/188 183/183/183 184/184/184
f 184/184/184 183/183/183 186/186/186
f 181/181/181 182/182/182 189/189/189
f 185/185/185 181/181/181 189/189/189
f 190/190/190 187/187/187 84/84/84
f 186/186/186 88/88/88 83/83/83
f 191/191/191 187/187/187 190/190/190
f 191/191/191 185/185/185 187/187/187
f 185/185/185 191/191/191 181/181/181
f 181/181/181 191/191/191 192/192/192
f 191/191/191 194/194/194 192/192/192
f 191/191/191 190/190/190 194/194/194
f 176/176/176 178/178/178 195/195/195
f 176/176/176 195/195/195 25/25/25
f 178/178/178 193/193/193 195/195/195
f 190/190/190 24/24/24 194/194/194
f 178/178/178 197/197/197 193/193/193
f 181/181/181 192/192/192 196/196/196
f 177/177/177 181/181/181 196/196/196
f 190/190/190 198/198/198 24/24/24
f 190/190/190 84/84/84 198/198/198
f 20/20/20 23/23/23 199/199/199
f 82/82/82 20/20/20 199/199/199
f 25/25/25 61/61/61 176/176/176
f 171/171/171 176/176/176 61/61/61
f 71/71/71 130/130/130 67/67/67
f 98/98/98 112/112/112 87/87/87
f 99/99/99 86/86/86 92/92/92
f 82/82/82 16/16/16 20/20/20
f 17/17/17 83/83/83 14/14/14
f 39/39/39 14/14/14 83/83/83
f 42/42/42 39/39/39 83/83/83
f 52/52/52 57/57/57 83/83/83
f 57/57/57 42/42/42 83/83/83
f 75/75/75 62/62/62 51/51/51
f 75/75/75 51/51/51 54/54/54
f 61/61/61 25/25/25 49/49/49
f 41/41/41 43/43/43 56/56/56
f 200/200/200 34/34/34 30/30/30
f 34/34/34 200/200/200 4/4/4
f 4/4/4 15/15/15 34/34/34
f 204/204/204 8/8/8 201/201/201
f 9/9/9 5/5/5 202/202/202
f 205/205/205 203/203/203 29/29/29
f 11/11/11 206/206/206 28/28/28
f 10/10/10 7/7/7 207/207/207
f 20/20/20 16/16/16 13/13/13

