# Blender 4.3.2
# www.blender.org
mtllib link_11.mtl
o link_11_visual
v -0.000831 0.000000 -0.000903
v -0.000700 0.000000 -0.001328
v -0.000799 -0.000447 0.000507
v -0.000884 -0.000312 0.000000
v 0.000036 -0.000312 0.000000
v -0.000777 -0.000467 0.000556
v -0.000765 -0.000455 0.000303
v -0.000751 -0.000451 0.000055
v -0.000241 -0.000406 0.000546
v -0.000231 -0.000397 0.000308
v -0.000226 -0.000391 0.000076
v 0.000036 0.000312 0.000000
v -0.000884 0.000312 0.000000
v -0.000799 0.000447 0.000507
v 0.000130 0.000000 0.001062
v -0.000755 -0.000298 0.001015
v -0.000790 0.000000 0.001062
v -0.000755 0.000298 0.001015
v 0.000040 0.000164 0.000558
v -0.000009 0.000000 0.000000
v 0.000040 -0.000164 0.000558
v -0.000880 0.000164 0.000558
v -0.000929 0.000000 0.000000
v -0.000880 -0.000164 0.000558
v -0.000264 -0.000346 0.000760
v -0.000323 -0.000205 0.001049
v -0.000397 0.000000 0.001159
v -0.000258 -0.000095 -0.000500
v -0.000249 -0.000176 -0.000407
v -0.000757 -0.000187 -0.000414
v -0.000759 -0.000117 -0.000498
v -0.000748 -0.000309 -0.000329
v -0.000742 -0.000428 -0.000173
v -0.000228 -0.000366 -0.000142
v -0.000237 -0.000286 -0.000310
v -0.000832 -0.000118 -0.000762
v -0.000567 -0.000066 -0.000991
v -0.000686 0.000000 -0.001342
v -0.000476 0.000000 -0.000977
v -0.000328 0.000000 -0.000811
v -0.000342 -0.000043 -0.000788
v -0.000002 0.000000 -0.000641
v -0.000059 -0.000055 -0.000618
v -0.000462 -0.000096 -0.000679
v -0.000289 -0.000285 0.000945
v -0.000777 0.000467 0.000556
v -0.000765 0.000455 0.000303
v -0.000751 0.000451 0.000055
v -0.000241 0.000406 0.000546
v -0.000264 0.000346 0.000760
v -0.000226 0.000391 0.000076
v -0.000231 0.000397 0.000308
v -0.000289 0.000285 0.000945
v -0.000323 0.000205 0.001049
v -0.000742 0.000428 -0.000173
v -0.000228 0.000366 -0.000142
v -0.000258 0.000095 -0.000500
v -0.000249 0.000176 -0.000407
v -0.000757 0.000187 -0.000414
v -0.000759 0.000117 -0.000498
v -0.000748 0.000309 -0.000329
v -0.000237 0.000286 -0.000310
v -0.000832 0.000118 -0.000762
v -0.000462 0.000096 -0.000679
v -0.000567 0.000066 -0.000991
v -0.000342 0.000045 -0.000788
v -0.000059 0.000055 -0.000618
v -0.000744 -0.000087 -0.001014
v -0.000632 -0.000064 -0.001134
v -0.000739 0.000087 -0.001014
v -0.000645 0.000064 -0.001144
v -0.000563 0.000000 -0.001129
v 0.000064 -0.000356 0.000171
v 0.000077 -0.000362 0.000302
v 0.000063 -0.000356 0.000166
v 0.000059 -0.000355 0.000069
v 0.000086 -0.000364 0.000396
v 0.000096 -0.000362 0.000523
v 0.000098 -0.000361 0.000538
v 0.000105 -0.000339 0.000610
v 0.000118 -0.000303 0.000747
v 0.000139 -0.000232 0.000947
v 0.000137 -0.000250 0.000926
v 0.000153 -0.000192 0.001032
v 0.000155 -0.000187 0.001041
v 0.000162 0.000000 0.001139
v 0.000156 -0.000026 0.001126
v 0.000053 -0.000348 0.000000
v 0.000052 -0.000335 -0.000108
v 0.000054 -0.000330 -0.000143
v 0.000052 -0.000295 -0.000236
v 0.000047 -0.000260 -0.000311
v 0.000032 -0.000188 -0.000385
v 0.000037 -0.000208 -0.000368
v 0.000029 -0.000160 -0.000410
v 0.000027 -0.000067 -0.000446
v 0.000029 -0.000035 -0.000481
v 0.000025 -0.000125 -0.000424
v 0.000039 -0.000034 -0.000561
v 0.000045 0.000000 -0.000600
v 0.000031 -0.000035 -0.000507
v 0.000131 -0.000266 0.000881
v 0.000132 -0.000262 0.000892
v 0.000064 0.000356 0.000171
v 0.000063 0.000356 0.000166
v 0.000059 0.000355 0.000069
v 0.000077 0.000362 0.000302
v 0.000086 0.000364 0.000396
v 0.000096 0.000362 0.000523
v 0.000098 0.000361 0.000538
v 0.000105 0.000339 0.000610
v 0.000118 0.000303 0.000747
v 0.000139 0.000232 0.000947
v 0.000153 0.000192 0.001032
v 0.000155 0.000187 0.001041
v 0.000137 0.000250 0.000926
v 0.000156 0.000026 0.001126
v 0.000052 0.000335 -0.000108
v 0.000054 0.000330 -0.000143
v 0.000053 0.000348 0.000000
v 0.000052 0.000295 -0.000236
v 0.000047 0.000260 -0.000311
v 0.000037 0.000208 -0.000368
v 0.000032 0.000188 -0.000385
v 0.000029 0.000160 -0.000410
v 0.000025 0.000125 -0.000424
v 0.000027 0.000067 -0.000446
v 0.000029 0.000035 -0.000481
v 0.000031 0.000035 -0.000507
v 0.000039 0.000034 -0.000561
v 0.000131 0.000266 0.000881
v 0.000132 0.000262 0.000892
v -0.000842 -0.000119 -0.000764
v -0.000843 -0.000118 -0.000758
v -0.000807 -0.000100 -0.000950
v -0.000837 -0.000117 -0.000785
v -0.000877 -0.000117 -0.000594
v -0.000889 -0.000130 -0.000507
v -0.000887 -0.000116 -0.000522
v -0.000889 0.000130 -0.000507
v -0.000877 0.000117 -0.000594
v -0.000887 0.000116 -0.000522
v -0.000752 0.000307 0.001010
v -0.000753 0.000300 0.001018
v -0.000753 0.000296 0.001023
v -0.000747 0.000042 0.001165
v -0.000742 0.000184 0.001112
v -0.000745 0.000259 0.001063
v -0.000741 0.000241 0.001084
v -0.000741 0.000000 0.001181
v -0.000747 -0.000042 0.001165
v -0.000753 -0.000296 0.001023
v -0.000745 -0.000259 0.001063
v -0.000742 -0.000184 0.001112
v -0.000741 -0.000241 0.001084
v -0.000753 -0.000300 0.001018
v -0.000752 -0.000307 0.001010
v -0.000745 0.000342 0.000970
v -0.000777 0.000462 0.000577
v -0.000757 0.000417 0.000760
v -0.000755 0.000412 0.000778
v -0.000889 0.000160 -0.000473
v -0.000891 0.000145 -0.000492
v -0.000890 -0.000139 -0.000498
v -0.000891 -0.000145 -0.000492
v -0.000890 0.000139 -0.000498
v -0.000889 -0.000160 -0.000473
v -0.000757 -0.000417 0.000760
v -0.000777 -0.000462 0.000577
v -0.000745 -0.000342 0.000970
v -0.000755 -0.000412 0.000778
v -0.000778 0.000467 0.000557
v -0.000778 0.000467 0.000556
v -0.000788 0.000466 0.000507
v -0.000778 0.000467 0.000556
v -0.000794 0.000465 0.000447
v -0.000817 0.000455 0.000000
v -0.000812 0.000458 0.000081
v -0.000801 0.000460 0.000320
v -0.000802 0.000459 0.000302
v -0.000812 0.000459 0.000051
v -0.000816 0.000437 -0.000182
v -0.000843 0.000370 -0.000277
v -0.000874 0.000226 -0.000412
v -0.000882 0.000192 -0.000434
v -0.000847 0.000345 -0.000311
v -0.000852 0.000318 -0.000345
v -0.000807 0.000100 -0.000950
v -0.000837 0.000117 -0.000785
v -0.000842 0.000119 -0.000764
v -0.000843 0.000118 -0.000758
v -0.000778 -0.000467 0.000556
v -0.000778 -0.000467 0.000557
v -0.000788 -0.000466 0.000507
v -0.000778 -0.000467 0.000556
v -0.000802 -0.000459 0.000302
v -0.000801 -0.000460 0.000320
v -0.000794 -0.000465 0.000447
v -0.000817 -0.000455 0.000000
v -0.000812 -0.000458 0.000081
v -0.000812 -0.000459 0.000051
v -0.000852 -0.000318 -0.000345
v -0.000847 -0.000345 -0.000311
v -0.000843 -0.000370 -0.000277
v -0.000882 -0.000192 -0.000434
v -0.000874 -0.000226 -0.000412
v -0.000816 -0.000437 -0.000182
v -0.000690 0.000000 -0.001346
v -0.000690 0.000000 -0.001346
v -0.000695 0.000014 -0.001335
v -0.000700 0.000047 -0.001304
v -0.000720 0.000067 -0.001241
v -0.000703 0.000062 -0.001288
v -0.000736 0.000073 -0.001188
v -0.000786 0.000092 -0.001020
v -0.000753 0.000079 -0.001131
v -0.000751 0.000077 -0.001140
v -0.000758 -0.000082 -0.001113
v -0.000786 -0.000092 -0.001020
v -0.000750 -0.000079 -0.001142
v -0.000720 -0.000067 -0.001241
v -0.000695 -0.000014 -0.001335
v -0.000703 -0.000062 -0.001289
v -0.000700 -0.000047 -0.001304
v -0.000703 -0.000061 -0.001290
vn -0.9676 -0.1508 -0.2024
vn -0.9673 -0.1528 -0.2023
vn -0.9672 -0.1531 -0.2026
vn -0.9902 0.0012 -0.1396
vn -0.9901 -0.0000 -0.1405
vn -0.9902 -0.0013 -0.1395
vn -0.8453 0.4433 0.2982
vn -0.8677 0.3438 0.3591
vn -0.9349 0.1621 0.3159
vn -0.9348 0.1621 0.3160
vn -0.9347 0.1599 0.3173
vn -0.9274 0.0002 0.3739
vn -0.9274 -0.0002 0.3739
vn -0.9274 -0.0000 0.3740
vn -0.9255 -0.1753 0.3357
vn -0.9255 -0.1755 0.3357
vn -0.9252 -0.1761 0.3362
vn -0.8677 -0.3438 0.3591
vn -0.8453 -0.4433 0.2983
vn -0.8914 0.4089 0.1957
vn -0.8912 0.4087 0.1968
vn -0.8927 0.4074 0.1925
vn -0.9548 0.2858 0.0819
vn -0.9867 0.1596 -0.0305
vn -0.9395 0.2973 0.1700
vn -0.9640 0.1487 0.2203
vn -0.9886 0.1439 0.0445
vn -0.9962 -0.0000 0.0875
vn -0.9845 -0.0000 0.1754
vn -0.9640 -0.1487 0.2203
vn -0.9970 -0.0008 -0.0779
vn -0.9969 -0.0017 -0.0781
vn -0.9969 0.0002 -0.0782
vn -0.9891 -0.1429 -0.0363
vn -0.9886 -0.1441 0.0445
vn -0.9548 -0.2858 0.0819
vn -0.9395 -0.2973 0.1700
vn -0.8841 -0.4221 0.2003
vn -0.8847 -0.4215 0.1990
vn -0.8837 -0.4220 0.2026
vn -0.0923 0.9952 0.0337
vn -0.1080 0.9933 0.0408
vn -0.0997 0.9943 0.0382
vn -0.8286 0.5539 0.0813
vn -0.8973 0.4398 0.0376
vn -0.8969 0.4408 0.0368
vn -0.8970 0.4406 0.0368
vn -0.9041 0.4249 -0.0445
vn -0.9046 0.4239 -0.0455
vn -0.9044 0.4243 -0.0449
vn -0.9559 0.2823 -0.0808
vn -0.9560 0.2818 -0.0815
vn -0.9549 0.2859 -0.0801
vn -0.9672 0.1530 -0.2026
vn -0.9673 0.1528 -0.2023
vn -0.9676 0.1508 -0.2024
vn -0.0995 -0.9943 0.0381
vn -0.0673 -0.9976 0.0159
vn -0.0922 -0.9952 0.0337
vn -0.8969 -0.4408 0.0368
vn -0.8973 -0.4398 0.0376
vn -0.8970 -0.4406 0.0368
vn -0.9544 -0.2871 -0.0818
vn -0.9533 -0.2908 -0.0814
vn -0.9545 -0.2864 -0.0827
vn -0.8286 -0.5539 0.0813
vn -0.9047 -0.4235 -0.0456
vn -0.9043 -0.4245 -0.0450
vn -0.9047 -0.4237 -0.0454
vn 0.0417 -0.0000 0.9991
vn -0.0000 -0.0000 1.0000
vn -0.0115 -0.0115 0.9999
vn -0.9173 0.1832 -0.3537
vn -0.9184 0.1834 -0.3507
vn -0.9170 0.1826 -0.3545
vn -0.9523 0.0903 -0.2915
vn -0.9528 0.0897 -0.2899
vn -0.9520 0.0901 -0.2924
vn -0.9504 -0.0996 -0.2947
vn -0.9502 -0.0984 -0.2956
vn -0.9513 -0.1009 -0.2912
vn -0.8733 -0.1141 -0.4737
vn -0.9111 -0.1967 -0.3622
vn -0.9074 -0.1961 -0.3718
vn -0.9145 -0.1893 -0.3577
vn -0.0000 -0.9703 0.2418
vn 0.1006 -0.9696 0.2232
vn 0.1005 -0.9696 0.2232
vn 0.1016 -0.9941 -0.0388
vn 0.1059 -0.9937 -0.0366
vn 0.1023 -0.9940 -0.0390
vn 0.1098 -0.9940 0.0020
vn 0.1037 -0.9946 -0.0101
vn 0.1135 -0.9935 -0.0058
vn 0.1389 -0.9655 0.2201
vn 0.1363 -0.9655 0.2218
vn 0.1390 -0.9655 0.2202
vn 0.1145 -0.9934 -0.0091
vn 0.1085 -0.9940 -0.0097
vn 0.1146 -0.9934 -0.0105
vn 0.1171 -0.9924 -0.0370
vn 0.1126 -0.9928 -0.0416
vn 0.1098 -0.9933 -0.0355
vn 0.1263 -0.9919 -0.0120
vn 0.1295 -0.9915 -0.0149
vn 0.1285 -0.9916 -0.0166
vn 0.1281 -0.9917 -0.0119
vn 0.1262 -0.9920 -0.0056
vn 0.1280 -0.9917 -0.0118
vn 0.1329 -0.9513 0.2781
vn 0.1310 -0.9518 0.2775
vn 0.1317 -0.9517 0.2774
vn 0.1581 -0.7474 0.6453
vn 0.1555 -0.7469 0.6466
vn 0.1554 -0.7468 0.6466
vn 0.1227 -0.3483 0.9293
vn 0.1232 -0.3488 0.9291
vn 0.1228 -0.3483 0.9293
vn 0.0980 -0.7600 0.6425
vn 0.0974 -0.7602 0.6424
vn 0.0975 -0.7602 0.6423
vn 0.0305 -0.4672 0.8836
vn 0.0306 -0.4672 0.8836
vn 0.0304 -0.4670 0.8838
vn 0.1174 -0.9865 -0.1145
vn 0.1225 -0.9863 -0.1106
vn 0.1167 -0.9859 -0.1199
vn 0.1353 -0.9866 -0.0912
vn 0.1387 -0.9858 -0.0946
vn 0.1385 -0.9859 -0.0938
vn 0.0311 -0.7675 -0.6403
vn 0.1318 -0.7560 -0.6411
vn 0.1310 -0.7564 -0.6408
vn 0.1308 -0.7567 -0.6405
vn 0.1798 -0.7796 -0.5999
vn 0.1759 -0.7779 -0.6033
vn 0.1795 -0.7817 -0.5973
vn 0.1685 -0.5545 -0.8149
vn 0.1705 -0.5551 -0.8141
vn 0.1685 -0.5544 -0.8150
vn 0.1326 -0.8928 -0.4304
vn 0.1335 -0.8928 -0.4302
vn 0.1335 -0.8929 -0.4301
vn 0.0576 -0.6568 -0.7519
vn 0.1141 -0.9838 -0.1380
vn 0.1095 -0.9848 -0.1350
vn 0.1093 -0.9849 -0.1345
vn 0.0860 -0.9007 -0.4257
vn 0.0859 -0.9007 -0.4258
vn 0.0860 -0.9008 -0.4256
vn 0.0250 -0.7140 -0.6997
vn 0.0249 -0.7143 -0.6994
vn 0.0250 -0.7142 -0.6995
vn 0.0456 -0.5377 -0.8419
vn 0.0484 -0.5383 -0.8414
vn 0.0488 -0.5378 -0.8416
vn 0.0436 -0.9981 -0.0442
vn -0.0018 -1.0000 0.0088
vn -0.0009 -0.9999 0.0115
vn 0.0004 -0.9999 0.0126
vn 0.2603 -0.9491 -0.1776
vn 0.2604 -0.9489 -0.1782
vn 0.2604 -0.9490 -0.1777
vn 0.0798 -0.9946 -0.0671
vn 0.6459 -0.5986 -0.4738
vn 0.6141 -0.5412 -0.5744
vn 0.5559 -0.6761 -0.4836
vn 0.5891 -0.7336 -0.3389
vn 0.5859 -0.7350 -0.3414
vn 0.5881 -0.7339 -0.3398
vn 0.6429 -0.5130 -0.5688
vn 0.6445 -0.5114 -0.5684
vn 0.6433 -0.5129 -0.5684
vn 0.4199 -0.5292 -0.7373
vn 0.0968 -0.8972 -0.4308
vn 0.0970 -0.8972 -0.4308
vn 0.0963 -0.8973 -0.4308
vn 0.1307 -0.9885 -0.0766
vn 0.1273 -0.9891 -0.0740
vn 0.1282 -0.9888 -0.0764
vn 0.0795 -0.9761 -0.2023
vn 0.0767 -0.9763 -0.2022
vn 0.0785 -0.9762 -0.2024
vn 0.1373 -0.9352 0.3264
vn 0.1371 -0.9351 0.3267
vn 0.1372 -0.9352 0.3265
vn 0.0849 -0.9606 0.2648
vn 0.0868 -0.9604 0.2647
vn 0.0870 -0.9604 0.2645
vn -0.0000 -0.0000 -0.0000
vn 0.2400 0.9695 -0.0489
vn 0.2359 0.9704 -0.0512
vn 0.2366 0.9702 -0.0514
vn 0.1092 0.9940 -0.0035
vn 0.1162 0.9932 -0.0061
vn 0.1104 0.9937 -0.0169
vn 0.1157 0.9677 0.2241
vn 0.1163 0.9675 0.2244
vn 0.1144 0.9679 0.2239
vn 0.1085 0.9940 -0.0097
vn 0.1145 0.9934 -0.0091
vn 0.1146 0.9934 -0.0105
vn 0.1126 0.9928 -0.0416
vn 0.1171 0.9924 -0.0370
vn 0.1098 0.9933 -0.0355
vn 0.1375 0.9889 -0.0560
vn 0.1342 0.9890 -0.0624
vn 0.1366 0.9890 -0.0561
vn 0.1262 0.9920 -0.0056
vn 0.1281 0.9917 -0.0119
vn 0.1280 0.9917 -0.0118
vn 0.1403 0.9610 0.2385
vn 0.1415 0.9610 0.2376
vn 0.1420 0.9609 0.2376
vn 0.1195 0.7400 0.6619
vn 0.1179 0.7392 0.6631
vn 0.1168 0.7391 0.6634
vn 0.1125 0.4366 0.8926
vn 0.1121 0.4360 0.8929
vn 0.1125 0.4368 0.8925
vn 0.0923 0.8786 0.4686
vn 0.0926 0.8786 0.4685
vn 0.0920 0.8785 0.4688
vn 0.0249 0.4513 0.8920
vn 0.0250 0.4516 0.8919
vn 0.1225 0.9863 -0.1106
vn 0.1174 0.9865 -0.1145
vn 0.1167 0.9859 -0.1199
vn 0.1441 0.9850 -0.0952
vn 0.1410 0.9857 -0.0926
vn 0.1443 0.9847 -0.0975
vn 0.0254 0.7527 -0.6579
vn 0.1641 0.7212 -0.6730
vn 0.1640 0.7217 -0.6725
vn 0.1798 0.7796 -0.5999
vn 0.1795 0.7817 -0.5973
vn 0.1759 0.7779 -0.6033
vn 0.1685 0.5545 -0.8149
vn 0.1685 0.5544 -0.8150
vn 0.1705 0.5551 -0.8141
vn 0.0587 0.7939 -0.6052
vn 0.0562 0.7932 -0.6063
vn 0.0582 0.7941 -0.6050
vn 0.0237 0.5703 -0.8211
vn 0.1233 0.9859 -0.1133
vn 0.1191 0.9868 -0.1093
vn 0.1192 0.9868 -0.1098
vn 0.1156 0.9150 -0.3865
vn 0.1156 0.9151 -0.3864
vn 0.0250 0.7142 -0.6995
vn 0.0249 0.7143 -0.6994
vn 0.0250 0.7140 -0.6997
vn 0.0488 0.5378 -0.8416
vn 0.0484 0.5383 -0.8414
vn 0.0456 0.5377 -0.8419
vn 0.0436 0.9981 -0.0442
vn -0.3237 0.9405 0.1032
vn -0.3263 0.9391 0.1074
vn -0.3258 0.9390 0.1101
vn 0.0833 0.9924 -0.0900
vn 0.0841 0.9925 -0.0883
vn 0.0827 0.9924 -0.0906
vn 0.0798 0.9946 -0.0671
vn 0.6141 0.5412 -0.5744
vn 0.6459 0.5986 -0.4738
vn 0.6505 0.5845 -0.4849
vn 0.6175 0.7140 -0.3300
vn 0.6216 0.7117 -0.3272
vn 0.6204 0.7121 -0.3286
vn 0.5469 0.6400 -0.5398
vn 0.5481 0.6398 -0.5387
vn 0.5481 0.6397 -0.5389
vn 0.3518 0.6456 -0.6778
vn 0.3530 0.6455 -0.6773
vn 0.3529 0.6456 -0.6772
vn 0.1887 0.9376 -0.2920
vn 0.1883 0.9377 -0.2921
vn 0.1158 0.9900 -0.0810
vn 0.1281 0.9882 -0.0837
vn 0.1150 0.9897 -0.0849
vn 0.2010 0.9533 -0.2255
vn 0.2020 0.9530 -0.2257
vn 0.2016 0.9531 -0.2256
vn 0.1343 0.9333 0.3331
vn 0.1345 0.9334 0.3328
vn 0.0849 0.9606 0.2648
vn 0.0871 0.9604 0.2646
vn 0.0868 0.9604 0.2647
vn 0.0811 -0.9929 -0.0876
vn 0.0812 -0.9928 -0.0880
vn 0.0811 -0.9928 -0.0884
vn 0.1115 -0.9917 -0.0648
vn 0.1131 -0.9916 -0.0634
vn 0.1128 -0.9917 -0.0620
vn 0.1335 -0.9888 -0.0666
vn 0.1251 -0.9896 -0.0706
vn 0.1268 -0.9892 -0.0735
vn 0.1373 0.9808 -0.1386
vn 0.1362 0.9808 -0.1396
vn 0.1364 0.9808 -0.1392
vn 0.1406 0.9871 -0.0761
vn 0.1365 0.9885 -0.0653
vn 0.1388 0.9872 -0.0784
vn 0.1286 0.9886 -0.0783
vn 0.1257 0.9890 -0.0785
vn 0.1260 0.9890 -0.0774
vn 0.7242 -0.5479 -0.4187
vn 0.7240 -0.5480 -0.4190
vn 0.7244 -0.5505 -0.4149
vn 0.7992 0.5002 -0.3333
vn 0.8026 0.4976 -0.3291
vn 0.8018 0.4978 -0.3307
vn 0.9880 0.0139 0.1536
vn 0.9880 0.0136 0.1536
vn 0.9882 0.0116 0.1529
vn 0.9307 -0.1617 -0.3282
vn 0.9321 -0.1652 -0.3225
vn 0.9307 -0.1618 -0.3281
vn 0.9230 -0.0000 -0.3848
vn 0.9321 0.1652 -0.3225
vn 0.9307 0.1617 -0.3282
vn 0.9307 0.1618 -0.3281
vn 0.9557 -0.2831 -0.0806
vn 0.9553 -0.2841 -0.0812
vn 0.9559 -0.2829 -0.0792
vn 0.9888 -0.1437 0.0393
vn 0.9888 -0.1448 0.0367
vn 0.9888 -0.1447 0.0365
vn 0.5928 -0.7602 -0.2658
vn 0.5933 -0.7613 -0.2618
vn 0.5936 -0.7609 -0.2619
vn 0.9644 -0.1467 -0.2199
vn 0.9644 -0.1466 -0.2201
vn 0.9644 -0.1468 -0.2198
vn 0.9886 -0.1439 -0.0445
vn 0.9962 -0.0000 -0.0875
vn 0.9845 -0.0000 -0.1754
vn 0.9652 0.1385 -0.2216
vn 0.9652 0.1390 -0.2213
vn 0.9652 0.1383 -0.2220
vn 0.9968 -0.0000 0.0795
vn 0.9968 0.0005 0.0801
vn 0.9968 -0.0005 0.0801
vn 0.9897 0.1392 0.0347
vn 0.9899 0.1379 0.0328
vn 0.9897 0.1391 0.0342
vn 0.9886 0.1439 -0.0445
vn 0.9485 0.3067 -0.0791
vn 0.9485 0.3069 -0.0783
vn 0.9485 0.3068 -0.0792
vn 0.9753 0.1716 -0.1393
vn 0.9749 0.1706 -0.1431
vn 0.9753 0.1712 -0.1393
vn 0.9075 -0.4184 -0.0371
vn 0.9068 -0.4195 -0.0421
vn 0.9072 -0.4187 -0.0409
vn 0.9045 -0.4240 0.0452
vn 0.9531 -0.2904 0.0846
vn 0.9532 -0.2905 0.0841
vn 0.9529 -0.2921 0.0823
vn 0.9067 0.4196 -0.0420
vn 0.9075 0.4185 -0.0372
vn 0.9071 0.4188 -0.0409
vn 0.9508 0.2985 0.0829
vn 0.9508 0.2983 0.0835
vn 0.9502 0.3011 0.0805
vn 0.9045 0.4240 0.0452
vn -0.9685 -0.1491 -0.1995
vn -0.9686 -0.1488 -0.1992
vn -0.9687 -0.1484 -0.1989
vn -0.9708 -0.1427 -0.1926
vn -0.9709 -0.1425 -0.1923
vn -0.9712 -0.1402 -0.1924
vn -0.9534 0.2376 -0.1861
vn -0.9534 0.2380 -0.1851
vn -0.9528 0.2404 -0.1856
vn -0.9889 0.0002 -0.1485
vn -0.9889 -0.0000 -0.1485
vn -0.9889 -0.0002 -0.1485
vn -0.9926 0.0013 -0.1217
vn -0.9924 -0.0000 -0.1230
vn -0.9924 -0.0008 -0.1228
vn -0.9902 -0.0011 -0.1399
vn -0.9902 0.0011 -0.1398
vn -0.9926 0.0013 -0.1218
vn -0.9926 -0.0013 -0.1218
vn -0.9195 0.1651 0.3568
vn -0.9195 0.1650 0.3569
vn -0.9196 0.1646 0.3567
vn -0.9320 0.1593 0.3256
vn -0.9322 0.1588 0.3253
vn -0.9321 0.1567 0.3265
vn -0.9100 0.1959 0.3654
vn -0.9104 0.1952 0.3647
vn -0.9100 0.1933 0.3669
vn -0.9336 0.1620 0.3196
vn -0.9337 0.1597 0.3205
vn -0.9337 0.1616 0.3194
vn -0.9218 -0.0002 0.3876
vn -0.9218 -0.0000 0.3877
vn -0.9218 0.0002 0.3876
vn -0.9321 -0.1612 0.3242
vn -0.9321 -0.1613 0.3243
vn -0.9319 -0.1618 0.3246
vn -0.9057 -0.2159 0.3648
vn -0.9055 -0.2166 0.3648
vn -0.9053 -0.2169 0.3651
vn -0.9099 -0.1932 0.3670
vn -0.9104 -0.1952 0.3647
vn -0.9100 -0.1959 0.3653
vn -0.9374 -0.1539 0.3123
vn -0.9370 -0.1549 0.3131
vn -0.9373 -0.1543 0.3124
vn -0.8925 0.4057 0.1971
vn -0.8925 0.4058 0.1968
vn -0.8931 0.4058 0.1943
vn -0.8054 0.5049 0.3104
vn -0.8054 0.5052 0.3102
vn -0.8080 0.5036 0.3058
vn -0.8474 0.4845 0.2173
vn -0.8451 0.4864 0.2218
vn -0.8471 0.4849 0.2175
vn -0.8855 0.4186 0.2017
vn -0.8865 0.4182 0.1978
vn -0.8860 0.4188 0.1991
vn -0.9891 0.1429 -0.0363
vn -0.9940 0.0566 -0.0936
vn -0.9940 0.0574 -0.0934
vn -0.9939 0.0578 -0.0935
vn -0.9939 -0.0578 -0.0935
vn -0.9940 -0.0574 -0.0934
vn -0.9940 -0.0566 -0.0936
vn -0.9948 -0.0016 -0.1020
vn -0.9950 -0.0000 -0.1002
vn -0.9948 0.0015 -0.1017
vn -0.9964 0.0171 -0.0827
vn -0.9964 0.0189 -0.0830
vn -0.9964 0.0181 -0.0826
vn -0.9867 -0.1596 -0.0305
vn -0.8080 -0.5036 0.3058
vn -0.8054 -0.5052 0.3102
vn -0.8054 -0.5049 0.3104
vn -0.8931 -0.4058 0.1943
vn -0.8925 -0.4058 0.1968
vn -0.8925 -0.4057 0.1971
vn -0.9531 -0.2499 0.1707
vn -0.9524 -0.2542 0.1682
vn -0.9532 -0.2497 0.1706
vn -0.8936 -0.4061 0.1912
vn -0.8919 -0.4077 0.1957
vn -0.8920 -0.4079 0.1946
vn -0.8159 0.5583 0.1505
vn -0.8164 0.5581 0.1484
vn -0.8175 0.5581 0.1423
vn -0.8682 0.4783 0.1326
vn -0.8622 0.4827 0.1533
vn -0.8641 0.4808 0.1485
vn -0.0032 0.0555 0.9985
vn 0.0054 0.0005 1.0000
vn -0.7780 0.6279 0.0198
vn -0.7782 0.6277 0.0199
vn -0.7787 0.6270 0.0207
vn -0.9046 0.4247 0.0368
vn -0.9046 0.4246 0.0368
vn -0.9140 0.4040 0.0360
vn -0.9142 0.4037 0.0360
vn -0.9140 0.4038 0.0381
vn -0.9466 0.3199 0.0409
vn -0.9466 0.3200 0.0409
vn -0.9468 0.3192 0.0416
vn -0.9489 0.3142 0.0307
vn -0.9493 0.3130 0.0301
vn -0.9492 0.3132 0.0322
vn -0.9047 0.4235 -0.0456
vn -0.9047 0.4237 -0.0454
vn -0.9043 0.4245 -0.0450
vn -0.9522 0.2935 -0.0847
vn -0.9521 0.2941 -0.0838
vn -0.9520 0.2945 -0.0835
vn -0.9551 0.2850 -0.0810
vn -0.9550 0.2855 -0.0803
vn -0.9542 0.2885 -0.0795
vn -0.9413 0.3135 -0.1255
vn -0.9418 0.3136 -0.1213
vn -0.9403 0.3180 -0.1215
vn -0.9554 0.2836 -0.0819
vn -0.9542 0.2881 -0.0807
vn -0.9553 0.2845 -0.0808
vn -0.9528 -0.2404 -0.1856
vn -0.9534 -0.2380 -0.1852
vn -0.9534 -0.2376 -0.1861
vn -0.9712 0.1403 -0.1925
vn -0.9709 0.1425 -0.1923
vn -0.9708 0.1427 -0.1927
vn -0.9687 0.1484 -0.1989
vn -0.9686 0.1488 -0.1992
vn -0.9685 0.1490 -0.1995
vn -0.8175 -0.5581 0.1423
vn -0.8164 -0.5581 0.1484
vn -0.8159 -0.5583 0.1505
vn -0.8642 -0.4808 0.1485
vn -0.8622 -0.4827 0.1533
vn -0.8682 -0.4782 0.1326
vn 0.0054 -0.0005 1.0000
vn 0.0115 0.0577 0.9983
vn -0.9140 -0.4038 0.0381
vn -0.9142 -0.4037 0.0360
vn -0.9141 -0.4040 0.0360
vn -0.9046 -0.4246 0.0368
vn -0.7787 -0.6270 0.0207
vn -0.7782 -0.6277 0.0199
vn -0.7780 -0.6279 0.0198
vn -0.9492 -0.3132 0.0322
vn -0.9493 -0.3130 0.0301
vn -0.9489 -0.3142 0.0307
vn -0.9468 -0.3192 0.0416
vn -0.9466 -0.3200 0.0409
vn -0.9466 -0.3199 0.0409
vn -0.9542 -0.2885 -0.0794
vn -0.9550 -0.2855 -0.0803
vn -0.9551 -0.2850 -0.0810
vn -0.9520 -0.2945 -0.0835
vn -0.9521 -0.2941 -0.0838
vn -0.9522 -0.2934 -0.0847
vn -0.9636 -0.2644 -0.0402
vn -0.9649 -0.2598 -0.0398
vn -0.9648 -0.2594 -0.0437
vn -0.9590 -0.2712 -0.0819
vn -0.9599 -0.2674 -0.0838
vn -0.9599 -0.2677 -0.0831
vn -0.9041 -0.4249 -0.0445
vn -0.9044 -0.4243 -0.0449
vn -0.9046 -0.4239 -0.0455
vn -0.8733 0.1141 -0.4737
vn -0.8729 0.1146 -0.4742
vn -0.9056 0.2209 -0.3621
vn -0.9055 0.2208 -0.3624
vn -0.9058 0.2169 -0.3641
vn -0.9167 0.1847 -0.3543
vn -0.9146 0.1856 -0.3592
vn -0.9146 0.1856 -0.3593
vn -0.9533 0.0917 -0.2878
vn -0.9519 0.0942 -0.2916
vn -0.9518 0.0942 -0.2919
vn -0.9519 0.0938 -0.2918
vn -0.9515 0.0939 -0.2929
vn -0.9514 0.0938 -0.2932
vn -0.5651 0.7815 -0.2642
vn -0.5632 0.7844 -0.2599
vn -0.5677 0.7822 -0.2567
vn -0.9488 0.1095 -0.2963
vn -0.9471 0.1126 -0.3007
vn -0.9473 0.1127 -0.2998
vn -0.7111 0.6398 -0.2915
vn -0.7096 0.6433 -0.2875
vn -0.7111 0.6398 -0.2914
vn -0.9493 -0.0887 -0.3016
vn -0.9502 -0.0921 -0.2978
vn -0.9502 -0.0921 -0.2976
vn -0.9504 -0.0950 -0.2961
vn -0.9512 -0.0969 -0.2930
vn -0.9514 -0.0969 -0.2922
vn -0.8199 0.5458 -0.1728
vn -0.8209 0.5426 -0.1784
vn -0.8199 0.5457 -0.1728
vn -0.9502 -0.0947 -0.2969
vn -0.9515 -0.0986 -0.2913
vn -0.9506 -0.0982 -0.2946
vn -0.9141 -0.1905 -0.3579
vn -0.9145 -0.1906 -0.3568
vn -0.9183 -0.1899 -0.3473
vn -0.9125 -0.1916 -0.3613
vn -0.9126 -0.1918 -0.3610
vn -0.9190 -0.1856 -0.3477
vn -0.9874 0.1099 0.1138
vn -0.9860 0.1103 0.1254
vn -0.9855 0.1126 0.1269
vn 0.1006 0.2232 0.9696
vn -0.2614 -0.0000 0.9652
vn 0.9185 -0.3892 -0.0706
vn 0.9193 -0.3879 -0.0664
vn 0.9191 -0.3885 -0.0663
vn 0.1074 -0.9934 -0.0395
vn 0.1031 -0.9940 -0.0362
vn 0.1103 -0.9932 -0.0366
vn 0.0066 -0.9998 -0.0191
vn 0.0009 -0.9998 -0.0180
vn 0.0005 -0.9998 -0.0180
vn 0.4404 -0.8955 -0.0646
vn 0.4414 -0.8953 -0.0600
vn 0.4408 -0.8956 -0.0599
vn -0.6418 -0.7665 0.0215
vn -0.6311 -0.7753 0.0242
vn -0.6346 -0.7721 0.0323
vn 0.1370 -0.9905 -0.0104
vn 0.1305 -0.9914 -0.0029
vn 0.1296 -0.9915 -0.0148
vn 0.2440 -0.9440 0.2221
vn 0.2444 -0.9439 0.2221
vn 0.2466 -0.9431 0.2232
vn 0.1119 -0.9542 0.2775
vn 0.1139 -0.9541 0.2771
vn 0.1140 -0.9541 0.2770
vn 0.1351 -0.9583 0.2520
vn 0.1382 -0.9585 0.2495
vn 0.1406 -0.9574 0.2522
vn 0.0694 -0.9710 0.2287
vn 0.0689 -0.9711 0.2286
vn 0.0704 -0.9709 0.2291
vn 0.1208 -0.9924 -0.0250
vn 0.1147 -0.9931 -0.0230
vn 0.1146 -0.9931 -0.0229
vn 0.1151 -0.9928 -0.0322
vn 0.1088 -0.9935 -0.0328
vn 0.1112 -0.9923 -0.0549
vn 0.1071 -0.9924 -0.0602
vn 0.1064 -0.9929 -0.0534
vn 0.1237 -0.9922 -0.0176
vn 0.1235 -0.9921 -0.0220
vn 0.1230 -0.9921 -0.0226
vn 0.1265 -0.9917 -0.0218
vn 0.1251 -0.9919 -0.0235
vn 0.1225 -0.9923 -0.0193
vn 0.1311 -0.9905 0.0425
vn 0.1309 -0.9905 0.0412
vn 0.1321 -0.9904 0.0404
vn 0.1107 -0.9933 -0.0331
vn 0.1068 -0.9936 -0.0356
vn 0.1063 -0.9938 -0.0311
vn -0.9716 -0.2206 0.0861
vn -0.9723 -0.2194 0.0804
vn -0.9721 -0.2205 0.0797
vn 0.1150 -0.9634 0.2423
vn 0.1168 -0.9636 0.2406
vn 0.1183 -0.9632 0.2415
vn 0.1327 -0.9510 0.2793
vn 0.1334 -0.9509 0.2794
vn 0.1313 -0.7359 0.6643
vn 0.1282 -0.7342 0.6667
vn 0.1255 -0.7357 0.6656
vn 0.1188 -0.7661 0.6317
vn 0.1173 -0.7665 0.6314
vn -0.7644 -0.3958 0.5090
vn -0.7659 -0.3935 0.5085
vn -0.7662 -0.3933 0.5082
vn -0.4525 -0.6979 0.5552
vn -0.4537 -0.6941 0.5588
vn -0.4539 -0.6941 0.5587
vn 0.1273 -0.7477 0.6517
vn 0.1243 -0.7489 0.6509
vn 0.1271 -0.7478 0.6517
vn 0.1132 -0.4370 0.8923
vn 0.1132 -0.4362 0.8927
vn 0.1125 -0.4359 0.8929
vn 0.0578 -0.4555 0.8883
vn 0.0577 -0.4555 0.8884
vn 0.0576 -0.4553 0.8885
vn -0.0369 -0.3513 0.9356
vn -0.0368 -0.3503 0.9359
vn -0.0376 -0.3500 0.9360
vn 0.0406 -0.8770 0.4787
vn 0.0411 -0.8772 0.4784
vn 0.0416 -0.8770 0.4786
vn 0.0915 -0.7749 0.6254
vn 0.0916 -0.7749 0.6254
vn 0.0918 -0.7748 0.6255
vn 0.0392 -0.9066 0.4202
vn 0.0398 -0.9068 0.4197
vn 0.0403 -0.9067 0.4199
vn 0.0316 -0.4522 0.8913
vn 0.0315 -0.4525 0.8912
vn 0.0318 -0.4527 0.8911
vn 0.0320 -0.4635 0.8855
vn 0.0320 -0.4636 0.8855
vn 0.1245 -0.9876 -0.0953
vn 0.1238 -0.9883 -0.0893
vn 0.2108 -0.9725 -0.0991
vn 0.2134 -0.9725 -0.0937
vn 0.2092 -0.9736 -0.0910
vn 0.1366 -0.9862 -0.0935
vn 0.1365 -0.9862 -0.0933
vn 0.1353 -0.9866 -0.0916
vn 0.0254 -0.7527 -0.6579
vn -0.8907 -0.2733 -0.3632
vn -0.8908 -0.2723 -0.3637
vn -0.8907 -0.2722 -0.3642
vn 0.1126 -0.7622 -0.6374
vn 0.1127 -0.7619 -0.6378
vn 0.1130 -0.7616 -0.6381
vn 0.1317 -0.7554 -0.6419
vn 0.1318 -0.7552 -0.6421
vn 0.1329 -0.7547 -0.6425
vn 0.5352 -0.6374 -0.5543
vn 0.5350 -0.6369 -0.5551
vn 0.5363 -0.6360 -0.5549
vn 0.1640 -0.7217 -0.6725
vn 0.1641 -0.7212 -0.6730
vn 0.1649 -0.7587 -0.6303
vn 0.1678 -0.7601 -0.6278
vn 0.1675 -0.7626 -0.6248
vn 0.1727 -0.7779 -0.6042
vn 0.1743 -0.7790 -0.6023
vn 0.1745 -0.7793 -0.6019
vn 0.1606 -0.7815 -0.6029
vn 0.1671 -0.7827 -0.5995
vn 0.1628 -0.7874 -0.5946
vn 0.1573 -0.5112 -0.8449
vn 0.1542 -0.5117 -0.8452
vn 0.1529 -0.5102 -0.8464
vn 0.1728 -0.5563 -0.8128
vn 0.1718 -0.5561 -0.8131
vn 0.1710 -0.5557 -0.8136
vn 0.0587 -0.7939 -0.6052
vn 0.0582 -0.7941 -0.6050
vn 0.0562 -0.7932 -0.6063
vn 0.0237 -0.5703 -0.8211
vn 0.1224 -0.9863 -0.1102
vn 0.1225 -0.9864 -0.1097
vn 0.1281 -0.9856 -0.1100
vn 0.1300 -0.9845 -0.1177
vn 0.1293 -0.9845 -0.1185
vn 0.1257 -0.9855 -0.1136
vn 0.1195 -0.9855 -0.1201
vn 0.1194 -0.9857 -0.1191
vn 0.1251 -0.9847 -0.1212
vn 0.1171 -0.9282 -0.3532
vn 0.1174 -0.9282 -0.3529
vn 0.1174 -0.9283 -0.3529
vn 0.0809 -0.8981 -0.4323
vn 0.0810 -0.8981 -0.4322
vn 0.0810 -0.8982 -0.4320
vn -0.9346 -0.3292 -0.1350
vn -0.9344 -0.3297 -0.1346
vn -0.9345 -0.3298 -0.1341
vn 0.0582 -0.6566 -0.7520
vn 0.0581 -0.6569 -0.7517
vn 0.0581 -0.6571 -0.7516
vn 0.0309 -0.6640 -0.7471
vn 0.0308 -0.6642 -0.7469
vn 0.0301 -0.6646 -0.7466
vn 0.0131 -0.3717 -0.9283
vn 0.0124 -0.3718 -0.9282
vn 0.0117 -0.3726 -0.9279
vn 0.1981 -0.7317 -0.6523
vn 0.1972 -0.7319 -0.6522
vn 0.1950 -0.7323 -0.6525
vn 0.9969 -0.0029 0.0783
vn 0.9969 -0.0041 0.0784
vn 0.9973 -0.0024 0.0739
vn 0.0624 -0.9980 -0.0134
vn 0.0635 -0.9820 0.1780
vn 0.0586 -0.9829 0.1747
vn 0.0579 -0.9832 0.1732
vn -0.0096 -0.9999 0.0108
vn -0.0136 -0.9999 0.0076
vn -0.0136 -0.9999 0.0073
vn 0.1127 -0.9931 0.0336
vn 0.1109 -0.9933 0.0313
vn 0.1119 -0.9934 0.0268
vn 0.1355 -0.9807 -0.1407
vn 0.1362 -0.9809 -0.1390
vn 0.1357 -0.9811 -0.1382
vn 0.6380 -0.5546 -0.5343
vn 0.6392 -0.5848 -0.4994
vn 0.6360 -0.5950 -0.4914
vn 0.0678 -0.0209 0.9975
vn -0.1439 -0.0000 0.9896
vn 0.6575 -0.6844 -0.3150
vn 0.6605 -0.6824 -0.3132
vn 0.6617 -0.6819 -0.3117
vn 0.5496 -0.6443 -0.5318
vn 0.5486 -0.6452 -0.5317
vn 0.5484 -0.6452 -0.5319
vn 0.3518 -0.6475 -0.6759
vn 0.2030 -0.9791 0.0138
vn 0.2042 -0.9788 0.0137
vn 0.2045 -0.9788 0.0140
vn 0.5307 -0.2058 0.8222
vn 0.5306 -0.2055 0.8224
vn 0.5304 -0.2046 0.8227
vn 0.4679 -0.7024 -0.5364
vn 0.4684 -0.7023 -0.5361
vn 0.4684 -0.7025 -0.5358
vn 0.2029 -0.9792 0.0094
vn 0.2043 -0.9789 0.0091
vn 0.1229 -0.9899 -0.0701
vn 0.1282 -0.9892 -0.0716
vn 0.1297 -0.9891 -0.0694
vn 0.1277 -0.9895 -0.0684
vn 0.1322 -0.9891 -0.0651
vn 0.1295 -0.9893 -0.0669
vn 0.2067 -0.9496 -0.2355
vn 0.2089 -0.9491 -0.2357
vn 0.2103 -0.9488 -0.2356
vn 0.1343 -0.9333 0.3331
vn 0.1345 -0.9334 0.3328
vn 0.0932 -0.9432 0.3188
vn 0.0929 -0.9431 0.3192
vn 0.0926 -0.9431 0.3194
vn 0.1183 -0.9380 0.3258
vn 0.1179 -0.9379 0.3261
vn 0.1162 -0.9380 0.3265
vn -0.9811 -0.1396 0.1344
vn -0.9810 -0.1404 0.1342
vn -0.9815 -0.1389 0.1321
vn 0.1009 0.9696 0.2231
vn 0.2615 0.9652 -0.0000
vn 0.0005 0.9998 -0.0180
vn 0.0009 0.9998 -0.0181
vn 0.0066 0.9998 -0.0191
vn 0.1103 0.9932 -0.0366
vn 0.1031 0.9940 -0.0362
vn 0.1074 0.9934 -0.0395
vn 0.9191 0.3885 -0.0663
vn 0.9193 0.3879 -0.0664
vn 0.9185 0.3892 -0.0705
vn -0.0374 0.9992 -0.0103
vn -0.0368 0.9993 -0.0104
vn -0.0329 0.9994 -0.0082
vn 0.1137 0.9934 -0.0115
vn 0.1055 0.9943 -0.0162
vn 0.1074 0.9942 -0.0044
vn 0.1215 0.9919 0.0368
vn 0.1343 0.9904 0.0315
vn 0.1307 0.9911 0.0265
vn 0.1405 0.9496 0.2802
vn 0.1382 0.9504 0.2786
vn 0.1375 0.9505 0.2787
vn 0.1116 0.9882 0.1052
vn 0.1146 0.9881 0.1025
vn 0.1138 0.9882 0.1027
vn -0.0588 0.9676 0.2456
vn -0.0611 0.9683 0.2422
vn -0.0605 0.9683 0.2424
vn 0.1283 0.9589 0.2530
vn 0.1258 0.9598 0.2511
vn 0.1263 0.9597 0.2512
vn 0.1146 0.9931 -0.0229
vn 0.1147 0.9931 -0.0230
vn 0.1208 0.9924 -0.0250
vn 0.1088 0.9935 -0.0328
vn 0.1151 0.9928 -0.0322
vn 0.1234 0.9922 -0.0171
vn 0.1237 0.9922 -0.0150
vn 0.1255 0.9920 -0.0147
vn 0.1111 0.9936 -0.0224
vn 0.1094 0.9938 -0.0185
vn 0.1065 0.9940 -0.0251
vn 0.4699 0.8790 -0.0809
vn 0.4687 0.8792 -0.0853
vn 0.4700 0.8786 -0.0849
vn -0.9721 0.2205 0.0797
vn -0.9723 0.2194 0.0804
vn -0.9716 0.2206 0.0861
vn 0.1063 0.9938 -0.0311
vn 0.1068 0.9936 -0.0356
vn 0.1107 0.9933 -0.0331
vn 0.1321 0.9904 0.0404
vn 0.1309 0.9905 0.0412
vn 0.1311 0.9905 0.0425
vn 0.1329 0.9516 0.2773
vn 0.1328 0.9516 0.2772
vn 0.1320 0.9516 0.2774
vn 0.1175 0.9533 0.2783
vn 0.1170 0.9534 0.2782
vn 0.1156 0.9534 0.2788
vn 0.0005 0.7507 0.6606
vn -0.0002 0.7507 0.6607
vn 0.0007 0.7544 0.6564
vn 0.4686 0.6881 0.5541
vn 0.4687 0.6881 0.5540
vn 0.4696 0.6910 0.5495
vn 0.1184 0.7649 0.6332
vn 0.1188 0.7648 0.6332
vn 0.1205 0.7649 0.6327
vn 0.1293 0.7632 0.6331
vn 0.1299 0.7631 0.6331
vn 0.1330 0.7640 0.6313
vn 0.0844 0.7416 0.6655
vn 0.0850 0.7415 0.6656
vn 0.0860 0.7450 0.6615
vn 0.0601 0.3626 0.9300
vn 0.0604 0.3628 0.9299
vn 0.0604 0.3636 0.9296
vn 0.1130 0.4372 0.8922
vn 0.1132 0.4373 0.8922
vn 0.1134 0.4375 0.8920
vn 0.0580 0.3464 0.9363
vn 0.0586 0.3474 0.9359
vn 0.0586 0.3472 0.9359
vn 0.0912 0.7605 0.6430
vn 0.0911 0.7604 0.6430
vn 0.0908 0.7603 0.6431
vn 0.0401 0.7860 0.6170
vn 0.0400 0.7860 0.6169
vn 0.0394 0.7858 0.6172
vn 0.1104 0.9063 0.4079
vn 0.1096 0.9062 0.4084
vn 0.1100 0.9063 0.4080
vn 0.0323 0.4672 0.8836
vn 0.0321 0.4671 0.8836
vn 0.0321 0.4668 0.8838
vn 0.0314 0.4638 0.8854
vn 0.0313 0.4638 0.8854
vn 0.0313 0.4637 0.8855
vn 0.1238 0.9883 -0.0893
vn 0.1245 0.9876 -0.0953
vn 0.1357 0.9870 -0.0856
vn 0.1382 0.9865 -0.0880
vn 0.1383 0.9863 -0.0905
vn 0.1353 0.9866 -0.0916
vn 0.1365 0.9862 -0.0933
vn 0.1366 0.9862 -0.0935
vn 0.0311 0.7675 -0.6403
vn 0.5363 0.6360 -0.5549
vn 0.5350 0.6369 -0.5551
vn 0.5351 0.6375 -0.5543
vn 0.1329 0.7547 -0.6425
vn 0.1318 0.7552 -0.6421
vn 0.1317 0.7554 -0.6419
vn 0.1130 0.7616 -0.6381
vn 0.1127 0.7619 -0.6378
vn 0.1126 0.7622 -0.6374
vn -0.8907 0.2722 -0.3642
vn -0.8908 0.2723 -0.3637
vn -0.8907 0.2733 -0.3632
vn 0.1318 0.7560 -0.6411
vn 0.1308 0.7567 -0.6405
vn 0.1310 0.7564 -0.6408
vn 0.1745 0.7793 -0.6019
vn 0.1743 0.7790 -0.6023
vn 0.1727 0.7779 -0.6042
vn 0.1675 0.7626 -0.6248
vn 0.1678 0.7601 -0.6278
vn 0.1650 0.7586 -0.6303
vn 0.1628 0.7874 -0.5946
vn 0.1671 0.7827 -0.5995
vn 0.1606 0.7815 -0.6029
vn 0.1711 0.5556 -0.8136
vn 0.1718 0.5561 -0.8131
vn 0.1728 0.5563 -0.8128
vn 0.1529 0.5102 -0.8464
vn 0.1542 0.5116 -0.8452
vn 0.1573 0.5112 -0.8450
vn 0.1326 0.8928 -0.4305
vn 0.1335 0.8929 -0.4301
vn 0.1335 0.8928 -0.4302
vn 0.0576 0.6568 -0.7519
vn 0.1252 0.9831 -0.1332
vn 0.1256 0.9830 -0.1337
vn 0.1275 0.9820 -0.1391
vn 0.1275 0.9850 -0.1162
vn 0.1279 0.9851 -0.1149
vn 0.1224 0.9859 -0.1144
vn 0.1235 0.9852 -0.1189
vn 0.1240 0.9850 -0.1200
vn 0.1268 0.9841 -0.1245
vn -0.9392 0.3295 -0.0961
vn -0.9393 0.3294 -0.0962
vn -0.9393 0.3293 -0.0963
vn 0.0810 0.8982 -0.4320
vn 0.0810 0.8981 -0.4322
vn 0.0809 0.8981 -0.4323
vn 0.0301 0.6646 -0.7466
vn 0.0308 0.6642 -0.7469
vn 0.0309 0.6640 -0.7471
vn 0.0581 0.6571 -0.7516
vn 0.0581 0.6569 -0.7517
vn 0.0582 0.6566 -0.7520
vn -0.9345 0.3298 -0.1341
vn -0.9344 0.3297 -0.1345
vn -0.9346 0.3292 -0.1350
vn 0.9973 0.0024 0.0739
vn 0.9969 0.0041 0.0784
vn 0.9969 0.0029 0.0783
vn 0.1950 0.7323 -0.6525
vn 0.1972 0.7319 -0.6522
vn 0.1981 0.7317 -0.6523
vn 0.0117 0.3726 -0.9279
vn 0.0124 0.3718 -0.9282
vn 0.0131 0.3717 -0.9283
vn 0.0624 0.9980 -0.0134
vn -0.0146 0.9998 0.0108
vn -0.0147 0.9998 0.0138
vn -0.0146 0.9998 0.0140
vn 0.0994 0.9947 -0.0274
vn 0.0984 0.9949 -0.0233
vn 0.0997 0.9948 -0.0221
vn -0.0084 1.0000 0.0026
vn -0.0068 0.9999 0.0089
vn -0.0090 0.9999 0.0047
vn 0.0760 0.9954 -0.0590
vn 0.0759 0.9951 -0.0628
vn 0.0747 0.9952 -0.0637
vn 0.1244 0.9839 -0.1280
vn 0.1241 0.9839 -0.1285
vn 0.1236 0.9839 -0.1290
vn 0.0969 0.9919 -0.0824
vn 0.0974 0.9915 -0.0868
vn 0.0951 0.9916 -0.0881
vn 0.6360 0.5950 -0.4914
vn 0.6392 0.5848 -0.4994
vn 0.6380 0.5546 -0.5343
vn 0.5888 0.7337 -0.3390
vn 0.5878 0.7341 -0.3400
vn 0.5852 0.7355 -0.3413
vn 0.6512 0.4932 -0.5768
vn 0.6513 0.4931 -0.5768
vn 0.6507 0.4932 -0.5774
vn 0.4298 0.5097 -0.7453
vn 0.4294 0.5098 -0.7454
vn 0.4262 0.5117 -0.7460
vn 0.4685 0.7024 -0.5359
vn 0.4684 0.7022 -0.5362
vn 0.4678 0.7024 -0.5365
vn 0.5304 0.2045 0.8227
vn 0.5306 0.2055 0.8223
vn 0.5307 0.2058 0.8222
vn 0.2046 0.9788 0.0140
vn 0.2043 0.9788 0.0137
vn 0.2030 0.9791 0.0138
vn -0.5320 0.8421 -0.0886
vn -0.5328 0.8416 -0.0889
vn -0.5324 0.8418 -0.0892
vn 0.0820 0.9774 -0.1947
vn 0.0816 0.9775 -0.1946
vn 0.0811 0.9775 -0.1945
vn 0.1373 0.9352 0.3264
vn 0.1372 0.9352 0.3265
vn 0.1371 0.9351 0.3267
vn -0.9815 0.1388 0.1321
vn -0.9809 0.1404 0.1343
vn -0.9811 0.1396 0.1344
vn 0.1162 0.9380 0.3266
vn 0.1179 0.9379 0.3262
vn 0.1183 0.9380 0.3258
vn 0.0926 0.9431 0.3194
vn 0.0929 0.9431 0.3192
vn 0.0932 0.9432 0.3188
vn 0.0946 -0.9918 -0.0856
vn 0.0952 -0.9918 -0.0848
vn 0.0943 -0.9920 -0.0841
vn 0.1400 -0.9797 -0.1437
vn 0.1400 -0.9797 -0.1436
vn 0.1400 -0.9797 -0.1435
vn 0.0736 -0.9954 -0.0610
vn 0.0737 -0.9954 -0.0608
vn 0.0734 -0.9955 -0.0602
vn 0.1319 -0.9878 -0.0826
vn 0.1318 -0.9879 -0.0823
vn 0.1318 -0.9882 -0.0781
vn 0.2449 0.9539 -0.1737
vn 0.2452 0.9539 -0.1731
vn 0.2485 0.9531 -0.1726
vn 0.1260 0.9912 -0.0399
vn 0.1283 0.9905 -0.0488
vn 0.1256 0.9907 -0.0521
vn 0.1270 0.9899 -0.0622
vn 0.1265 0.9899 -0.0644
vn 0.1253 0.9899 -0.0663
vn 0.1099 0.9749 -0.1935
vn 0.1100 0.9751 -0.1926
vn 0.1128 0.9746 -0.1936
vn 0.1317 0.9878 -0.0827
vn 0.1356 0.9873 -0.0832
vn 0.1294 0.9882 -0.0820
vn 0.7240 -0.5473 -0.4198
vn 0.7244 -0.5472 -0.4193
vn 0.7248 -0.5474 -0.4184
vn 0.6603 -0.6833 -0.3117
vn 0.6609 -0.6830 -0.3111
vn 0.6606 -0.6850 -0.3072
vn 0.0011 -0.7047 -0.7095
vn 0.0036 -0.7050 -0.7092
vn -0.0025 -0.7086 -0.7056
vn 0.8026 0.4997 -0.3257
vn 0.8032 0.4956 -0.3305
vn 0.8000 0.4988 -0.3335
vn 0.6181 0.7003 -0.3571
vn 0.6176 0.7006 -0.3574
vn 0.6173 0.7004 -0.3583
vn 0.9906 -0.0000 0.1371
vn 0.9906 -0.0006 0.1370
vn 0.9902 -0.0320 0.1358
vn 0.9901 -0.0335 0.1364
vn 0.9901 -0.0345 0.1361
vn 0.9452 -0.1608 -0.2843
vn 0.9451 -0.1589 -0.2854
vn 0.9451 -0.1583 -0.2857
vn 0.9205 -0.0000 -0.3908
vn 0.9451 0.1583 -0.2857
vn 0.9451 0.1589 -0.2854
vn 0.9452 0.1608 -0.2843
vn 0.9552 -0.2845 -0.0821
vn 0.9556 -0.2835 -0.0808
vn 0.9556 -0.2835 -0.0807
vn 0.9544 -0.2866 -0.0838
vn 0.9547 -0.2858 -0.0827
vn 0.9548 -0.2858 -0.0822
vn 0.9205 -0.3841 -0.0714
vn 0.9210 -0.3827 -0.0731
vn 0.9206 -0.3839 -0.0714
vn 0.8826 -0.4408 -0.1637
vn 0.8825 -0.4409 -0.1639
vn 0.8832 -0.4401 -0.1622
vn 0.9885 -0.1467 0.0366
vn 0.9886 -0.1465 0.0359
vn 0.9917 -0.1247 0.0328
vn 0.9914 -0.1272 0.0301
vn 0.9916 -0.1260 0.0289
vn 0.9398 -0.2966 -0.1698
vn 0.9398 -0.2967 -0.1698
vn 0.9396 -0.2971 -0.1698
vn 0.9129 -0.3612 -0.1900
vn 0.9120 -0.3616 -0.1938
vn 0.9954 0.0572 -0.0765
vn 0.9954 0.0576 -0.0765
vn 0.9951 0.0582 -0.0803
vn 0.9621 -0.1675 -0.2150
vn 0.9620 -0.1686 -0.2146
vn 0.9621 -0.1500 -0.2277
vn 0.9624 -0.1500 -0.2266
vn 0.9624 -0.1501 -0.2265
vn 0.9634 -0.1559 -0.2181
vn 0.9634 -0.1557 -0.2183
vn 0.9633 -0.1570 -0.2178
vn 0.9620 0.1685 -0.2147
vn 0.9621 0.1676 -0.2150
vn 0.9621 0.1676 -0.2151
vn 0.9639 0.1494 -0.2205
vn 0.9639 0.1493 -0.2207
vn 0.9638 0.1492 -0.2209
vn 0.9633 0.1570 -0.2178
vn 0.9634 0.1558 -0.2183
vn 0.9634 0.1559 -0.2181
vn 0.9968 0.0006 0.0804
vn 0.9968 0.0011 0.0798
vn 0.9968 0.0013 0.0798
vn 0.9968 -0.0013 0.0798
vn 0.9968 -0.0011 0.0798
vn 0.9968 -0.0006 0.0804
vn 0.9975 -0.0000 0.0701
vn 0.9975 -0.0000 0.0700
vn 0.9975 0.0002 0.0701
vn 0.9968 0.0014 0.0794
vn 0.9968 0.0013 0.0795
vn 0.9968 0.0015 0.0805
vn 0.9968 -0.0015 0.0805
vn 0.9968 -0.0013 0.0795
vn 0.9968 -0.0014 0.0794
vn 0.9975 0.0005 0.0704
vn 0.9975 -0.0001 0.0700
vn 0.9854 0.1574 0.0644
vn 0.9854 0.1577 0.0649
vn 0.9852 0.1577 0.0666
vn 0.9888 0.1445 0.0360
vn 0.9888 0.1448 0.0365
vn 0.9816 -0.0659 -0.1792
vn 0.9812 -0.0672 -0.1806
vn 0.9816 -0.0660 -0.1791
vn 0.9554 0.2837 -0.0819
vn 0.9554 0.2837 -0.0821
vn 0.9554 0.2837 -0.0822
vn 0.9486 0.3067 -0.0777
vn 0.9488 0.3056 -0.0795
vn 0.9489 0.3055 -0.0795
vn 0.9120 0.3616 -0.1938
vn 0.9129 0.3612 -0.1900
vn 0.9396 0.2971 -0.1698
vn 0.9398 0.2967 -0.1698
vn 0.9398 0.2966 -0.1698
vn -0.1309 0.9613 -0.2425
vn -0.1299 0.9624 -0.2386
vn -0.1305 0.9624 -0.2384
vn 0.9009 -0.4330 -0.0301
vn 0.9009 -0.4329 -0.0300
vn 0.9012 -0.4327 -0.0258
vn 0.9586 -0.2718 0.0853
vn 0.9595 -0.2678 0.0880
vn 0.9594 -0.2677 0.0883
vn 0.9540 -0.2883 0.0821
vn 0.9541 -0.2875 0.0835
vn 0.9541 -0.2874 0.0848
vn 0.9639 -0.2588 0.0625
vn 0.9644 -0.2563 0.0651
vn 0.9637 -0.2579 0.0694
vn 0.9011 0.4328 -0.0259
vn 0.9009 0.4330 -0.0299
vn 0.9009 0.4331 -0.0301
vn 0.9540 0.2875 0.0847
vn 0.9541 0.2877 0.0835
vn 0.9540 0.2884 0.0822
vn 0.9594 0.2678 0.0883
vn 0.9594 0.2679 0.0880
vn 0.9586 0.2718 0.0854
vn 0.9396 0.3274 0.0994
vn 0.9407 0.3258 0.0949
vn 0.9399 0.3289 0.0922
vn 0.9595 0.2704 0.0793
vn 0.9591 0.2727 0.0764
vn 0.9594 0.2711 0.0777
vt 0.000000 0.000000
vt 0.361771 0.457471
vt 0.361763 0.457467
vt 0.361814 0.457433
vt 0.349784 0.469557
vt 0.359693 0.460036
vt 0.337601 0.480686
vt 0.348108 0.467381
vt 0.348021 0.418424
vt 0.371468 0.447089
vt 0.335019 0.477114
vt 0.323199 0.437683
vt 0.335744 0.427634
vt 0.297175 0.433059
vt 0.301604 0.428410
vt 0.307492 0.421534
vt 0.317391 0.410198
vt 0.317987 0.409369
vt 0.321365 0.405286
vt 0.389830 0.429146
vt 0.386301 0.433599
vt 0.385387 0.434375
vt 0.367778 0.405886
vt 0.402406 0.416234
vt 0.392877 0.426066
vt 0.335900 0.387105
vt 0.337136 0.385563
vt 0.350580 0.369634
vt 0.383535 0.398179
vt 0.341510 0.379349
vt 0.300793 0.457171
vt 0.311480 0.447690
vt 0.325941 0.490563
vt 0.279097 0.476579
vt 0.305522 0.499623
vt 0.299976 0.503664
vt 0.305675 0.510493
vt 0.307297 0.509297
vt 0.313039 0.493851
vt 0.318884 0.498227
vt 0.316798 0.500118
vt 0.311536 0.505312
vt 0.323088 0.486183
vt 0.291879 0.465146
vt 0.284905 0.471400
vt 0.287250 0.442707
vt 0.289013 0.441245
vt 0.278788 0.450614
vt 0.282585 0.446990
vt 0.274451 0.455476
vt 0.271180 0.458801
vt 0.266050 0.462716
vt 0.278913 0.494371
vt 0.290272 0.517778
vt 0.289644 0.517344
vt 0.303784 0.511527
vt 0.267486 0.511343
vt 0.268471 0.492123
vt 0.289925 0.517925
vt 0.288688 0.518483
vt 0.253177 0.529777
vt 0.254198 0.530144
vt 0.253076 0.530154
vt 0.259001 0.515622
vt 0.263145 0.505548
vt 0.265538 0.492375
vt 0.264778 0.472176
vt 0.260080 0.470633
vt 0.262210 0.465618
vt 0.269128 0.526109
vt 0.263066 0.520036
vt 0.359285 0.410539
vt 0.372324 0.446197
vt 0.334392 0.389299
vt 0.327552 0.397611
vt 0.441758 0.373853
vt 0.441797 0.373806
vt 0.441795 0.373809
vt 0.441790 0.373801
vt 0.453345 0.361296
vt 0.447056 0.368721
vt 0.460253 0.346200
vt 0.462680 0.350171
vt 0.410837 0.349111
vt 0.431848 0.383959
vt 0.420323 0.336128
vt 0.451098 0.359715
vt 0.429804 0.323972
vt 0.403489 0.321148
vt 0.410098 0.314958
vt 0.392601 0.331544
vt 0.387870 0.335735
vt 0.380477 0.342259
vt 0.416195 0.401865
vt 0.390532 0.382091
vt 0.421726 0.395251
vt 0.414738 0.403101
vt 0.411798 0.406281
vt 0.394803 0.373396
vt 0.362857 0.357021
vt 0.363512 0.356603
vt 0.353559 0.366519
vt 0.351746 0.367766
vt 0.438806 0.312869
vt 0.473301 0.336529
vt 0.466178 0.346123
vt 0.457240 0.290319
vt 0.481457 0.315700
vt 0.452323 0.296355
vt 0.493292 0.313429
vt 0.492343 0.315367
vt 0.476019 0.323477
vt 0.480657 0.329130
vt 0.487419 0.321463
vt 0.482456 0.326959
vt 0.468794 0.333868
vt 0.446382 0.303605
vt 0.414547 0.310326
vt 0.417793 0.307164
vt 0.431276 0.291167
vt 0.423749 0.299977
vt 0.435943 0.286616
vt 0.442804 0.277897
vt 0.439120 0.283198
vt 0.475011 0.289337
vt 0.485251 0.309972
vt 0.499067 0.299270
vt 0.498935 0.299623
vt 0.504674 0.283897
vt 0.499568 0.298006
vt 0.498472 0.299015
vt 0.509631 0.262961
vt 0.509215 0.261958
vt 0.509587 0.261838
vt 0.491452 0.277131
vt 0.495340 0.268441
vt 0.501601 0.271359
vt 0.472300 0.279050
vt 0.485466 0.273054
vt 0.472421 0.275979
vt 0.452206 0.276202
vt 0.450445 0.271579
vt 0.443745 0.276659
vt 0.507141 0.276144
vt 0.501834 0.282444
vt 0.430994 0.384853
vt 0.372479 0.349465
vt 0.274848 0.524220
vt 0.261327 0.528673
vt 0.258265 0.529480
vt 0.273449 0.521773
vt 0.508696 0.269848
vt 0.507980 0.272816
vt 0.256973 0.529694
vt 0.509313 0.265757
vt 0.361768 0.457474
vt 0.356921 0.462950
vt 0.350666 0.468734
vt 0.339088 0.479363
vt 0.362845 0.456501
vt 0.301829 0.428152
vt 0.311682 0.416696
vt 0.382299 0.436477
vt 0.388660 0.430656
vt 0.385981 0.433920
vt 0.400547 0.418846
vt 0.341122 0.380023
vt 0.335202 0.483033
vt 0.304958 0.510915
vt 0.309620 0.507212
vt 0.306100 0.510244
vt 0.320919 0.496403
vt 0.294162 0.436440
vt 0.275514 0.454237
vt 0.272759 0.457129
vt 0.268256 0.461017
vt 0.299812 0.513566
vt 0.264856 0.463712
vt 0.259695 0.466856
vt 0.267397 0.526681
vt 0.333887 0.389893
vt 0.444266 0.371619
vt 0.452562 0.362214
vt 0.463937 0.348626
vt 0.402181 0.361790
vt 0.440872 0.374925
vt 0.409850 0.315194
vt 0.398840 0.325550
vt 0.391799 0.332177
vt 0.419763 0.398430
vt 0.419335 0.399043
vt 0.419028 0.399377
vt 0.404931 0.414261
vt 0.368869 0.352374
vt 0.370355 0.351070
vt 0.492111 0.315804
vt 0.491218 0.317044
vt 0.489235 0.319461
vt 0.492732 0.314631
vt 0.478921 0.331247
vt 0.422366 0.301804
vt 0.423750 0.299977
vt 0.427823 0.295124
vt 0.437520 0.284851
vt 0.434752 0.287734
vt 0.441205 0.280177
vt 0.495153 0.309361
vt 0.503448 0.288311
vt 0.445531 0.273930
vt 0.446655 0.271362
vt 0.373050 0.348934
vt 0.279195 0.522795
vt 0.507336 0.275531
vt 0.509171 0.267052
vt 0.258183 0.529496
s 0
usemtl blinn1SG.011
f 134/1/1 1/1/2 136/1/3
f 139/1/4 142/1/5 141/1/6
f 144/1/7 143/1/7 18/1/7
f 18/1/8 145/1/8 144/1/8
f 17/1/9 147/1/10 148/1/11
f 146/1/12 151/1/13 150/1/14
f 16/1/15 153/1/16 154/1/17
f 16/1/18 156/1/18 152/1/18
f 156/1/19 16/1/19 157/1/19
f 18/1/20 158/1/21 160/1/22
f 22/1/23 14/1/23 13/1/23
f 23/1/24 162/1/24 163/1/24
f 18/1/25 14/1/25 22/1/25
f 17/1/26 18/1/26 22/1/26
f 13/1/27 23/1/27 22/1/27
f 23/1/28 24/1/28 22/1/28
f 17/1/29 22/1/29 24/1/29
f 16/1/30 17/1/30 24/1/30
f 23/1/31 166/1/32 138/1/33
f 23/1/34 167/1/34 4/1/34
f 23/1/35 4/1/35 24/1/35
f 3/1/36 24/1/36 4/1/36
f 16/1/37 24/1/37 3/1/37
f 16/1/38 169/1/39 171/1/40
f 172/1/41 175/1/42 174/1/43
f 14/1/44 174/1/44 176/1/44
f 177/1/45 14/1/46 180/1/47
f 13/1/48 182/1/49 183/1/50
f 13/1/51 186/1/52 184/1/53
f 189/1/54 1/1/55 191/1/56
f 194/1/57 195/1/58 193/1/59
f 3/1/60 199/1/61 196/1/62
f 4/1/63 205/1/64 202/1/65
f 194/1/66 3/1/66 198/1/66
f 4/1/67 207/1/68 199/1/69
f 2/1/70 208/1/71 209/1/72
f 211/1/73 2/1/74 212/1/75
f 2/1/76 188/1/77 217/1/78
f 1/1/79 221/1/80 218/1/81
f 2/1/82 209/1/82 222/1/82
f 2/1/83 224/1/84 225/1/85
f 195/2/86 6/3/87 193/4/88
f 196/5/89 6/3/90 194/6/91
f 201/7/92 7/8/93 196/5/94
f 6/3/95 25/9/96 168/10/97
f 8/11/98 10/12/99 7/8/100
f 7/8/101 9/13/102 6/3/103
f 10/12/104 76/14/105 75/15/106
f 9/13/107 74/16/108 78/17/109
f 25/9/110 79/18/111 80/19/112
f 155/20/113 152/21/114 157/22/115
f 26/23/116 150/24/117 154/25/118
f 26/23/119 83/26/120 82/27/121
f 87/28/122 27/29/123 85/30/124
f 8/11/125 34/31/126 11/32/127
f 207/33/128 8/11/129 201/7/130
f 28/34/131 30/35/131 31/36/131
f 164/37/132 30/35/133 167/38/134
f 32/39/135 207/33/136 203/40/137
f 30/35/138 202/41/139 206/42/140
f 33/43/141 35/44/142 34/31/143
f 32/39/144 29/45/144 35/44/144
f 11/32/145 90/46/146 89/47/147
f 34/31/148 92/48/149 91/49/150
f 93/50/151 92/48/152 29/45/153
f 98/51/154 29/45/155 97/52/156
f 31/36/157 44/53/157 28/34/157
f 134/54/158 36/55/159 139/56/160
f 44/53/161 37/57/162 41/58/163
f 133/59/164 136/60/164 36/55/164
f 38/61/165 222/62/166 209/63/167
f 37/57/168 72/64/169 39/65/170
f 41/58/171 39/65/172 40/66/173
f 40/66/174 43/67/174 41/58/174
f 28/34/175 42/68/176 99/69/177
f 218/70/178 69/71/179 37/57/180
f 28/34/181 41/58/182 43/67/183
f 45/72/184 171/73/185 25/9/186
f 103/74/187 45/72/188 81/75/189
f 172/76/190 173/77/190 175/78/190
f 46/79/191 180/80/192 176/81/193
f 48/82/194 178/83/195 180/80/196
f 49/84/197 172/76/198 160/85/199
f 52/86/200 48/82/201 47/87/202
f 49/84/203 47/87/204 46/79/205
f 51/88/206 107/89/207 105/90/208
f 107/89/209 49/84/210 109/91/211
f 111/92/212 49/84/213 112/93/214
f 148/94/215 54/95/216 158/96/217
f 27/29/218 149/97/219 147/98/220
f 53/99/221 115/100/222 114/101/223
f 117/102/224 54/95/224 86/103/225
f 56/104/226 48/82/227 51/88/228
f 48/82/229 182/105/230 177/106/231
f 57/107/232 59/108/232 58/109/232
f 59/108/233 142/110/233 166/111/234
f 61/112/235 186/113/236 182/105/237
f 59/108/238 184/114/239 187/115/240
f 55/116/241 62/117/242 61/112/243
f 61/112/244 58/109/244 59/108/244
f 56/104/245 106/118/246 120/119/247
f 122/120/248 56/104/249 119/121/248
f 58/109/250 122/120/251 124/122/252
f 128/123/253 58/109/254 126/124/255
f 64/125/256 60/126/256 57/107/256
f 60/126/257 190/127/258 191/128/259
f 64/125/260 215/129/261 189/130/262
f 190/127/263 63/131/263 189/130/263
f 210/132/264 38/133/265 208/134/266
f 65/135/267 72/136/268 71/137/269
f 66/138/270 39/139/271 65/135/272
f 40/140/273 67/141/274 42/142/275
f 42/142/276 57/107/277 129/143/277
f 216/144/278 215/129/279 70/145/280
f 57/107/281 66/138/282 64/125/283
f 53/99/284 161/146/285 158/96/285
f 132/147/286 112/93/287 53/99/288
f 219/148/289 44/53/290 136/60/291
f 69/71/292 221/149/293 223/150/294
f 218/70/295 68/151/296 219/148/297
f 64/125/298 65/135/299 70/145/300
f 71/137/301 212/152/302 214/153/303
f 216/144/304 65/135/305 71/137/306
f 72/64/307 223/150/308 224/154/309
f 71/137/310 38/133/311 211/155/312
f 101/1/313 100/1/314 130/1/315
f 15/1/316 115/1/317 117/1/318
f 117/1/319 87/1/319 15/1/319
f 85/1/320 15/1/321 87/1/322
f 19/1/323 104/1/324 108/1/325
f 125/1/326 12/1/327 20/1/328
f 132/1/329 109/1/330 111/1/331
f 113/1/332 15/1/333 19/1/334
f 19/1/335 20/1/335 12/1/335
f 20/1/336 19/1/336 21/1/336
f 15/1/337 21/1/337 19/1/337
f 21/1/338 84/1/339 82/1/340
f 20/1/341 97/1/342 128/1/343
f 98/1/344 5/1/345 93/1/346
f 21/1/347 5/1/347 20/1/347
f 5/1/348 78/1/349 74/1/350
f 78/1/351 103/1/352 81/1/353
f 12/1/354 106/1/355 105/1/356
f 12/1/357 118/1/357 120/1/357
f 119/1/358 12/1/359 123/1/360
f 76/1/361 5/1/362 75/1/363
f 5/1/364 90/1/365 92/1/366
f 89/1/367 5/1/367 88/1/367
f 134/1/368 137/1/369 1/1/370
f 1/1/371 135/1/372 136/1/373
f 136/1/374 133/1/375 134/1/376
f 141/1/377 1/1/378 137/1/379
f 139/1/380 138/1/381 140/1/382
f 141/1/383 137/1/384 139/1/5
f 139/1/385 140/1/381 142/1/386
f 145/1/387 18/1/388 17/1/389
f 17/1/390 146/1/391 147/1/392
f 147/1/393 149/1/394 148/1/395
f 148/1/396 145/1/397 17/1/398
f 146/1/399 17/1/400 151/1/401
f 151/1/402 17/1/403 16/1/404
f 16/1/405 152/1/406 153/1/407
f 153/1/408 155/1/409 154/1/410
f 154/1/411 151/1/412 16/1/413
f 159/1/414 14/1/415 18/1/416
f 18/1/417 143/1/418 158/1/419
f 158/1/420 161/1/421 160/1/422
f 160/1/423 159/1/424 18/1/425
f 23/1/426 13/1/426 162/1/426
f 164/1/427 165/1/428 23/1/429
f 23/1/430 163/1/431 166/1/432
f 166/1/433 140/1/434 138/1/435
f 138/1/436 164/1/437 23/1/438
f 23/1/439 165/1/439 167/1/439
f 170/1/440 157/1/441 16/1/442
f 16/1/443 3/1/444 169/1/445
f 169/1/446 168/1/447 171/1/448
f 171/1/449 170/1/450 16/1/451
f 174/1/452 14/1/453 159/1/454
f 174/1/455 159/1/456 172/1/457
f 175/1/71 173/1/458 174/1/459
f 178/1/460 181/1/461 177/1/462
f 177/1/463 13/1/464 14/1/464
f 14/1/465 176/1/466 179/1/467
f 180/1/468 178/1/469 177/1/470
f 14/1/471 179/1/472 180/1/473
f 13/1/474 177/1/475 182/1/476
f 185/1/477 162/1/478 13/1/479
f 13/1/480 183/1/481 186/1/482
f 186/1/483 187/1/484 184/1/485
f 184/1/486 185/1/487 13/1/488
f 191/1/489 190/1/490 189/1/491
f 189/1/492 188/1/493 1/1/494
f 1/1/495 141/1/496 191/1/497
f 169/1/498 3/1/499 194/1/500
f 193/1/501 169/1/502 194/1/503
f 194/1/504 192/1/71 195/1/505
f 197/1/506 198/1/507 3/1/508
f 3/1/509 4/1/509 199/1/509
f 199/1/510 201/1/511 200/1/512
f 196/1/513 197/1/514 3/1/515
f 199/1/516 200/1/517 196/1/518
f 203/1/519 204/1/520 4/1/521
f 4/1/522 167/1/523 205/1/524
f 205/1/525 206/1/526 202/1/527
f 202/1/528 203/1/529 4/1/530
f 4/1/531 204/1/532 207/1/533
f 2/1/534 210/1/534 208/1/535
f 212/1/536 213/1/537 211/1/538
f 211/1/539 210/1/540 2/1/541
f 214/1/542 212/1/543 2/1/544
f 2/1/545 1/1/546 188/1/547
f 188/1/548 215/1/549 216/1/550
f 217/1/551 214/1/552 2/1/553
f 188/1/554 216/1/555 217/1/556
f 219/1/557 135/1/558 1/1/559
f 1/1/560 2/1/561 221/1/562
f 221/1/563 220/1/564 218/1/565
f 218/1/566 219/1/567 1/1/568
f 223/1/569 221/1/570 2/1/571
f 2/1/572 222/1/573 224/1/574
f 225/1/575 223/1/576 2/1/577
f 195/2/71 192/156/578 6/3/579
f 198/157/580 197/158/581 196/5/582
f 196/5/583 7/8/584 6/3/585
f 6/3/586 192/156/587 194/6/588
f 194/6/589 198/157/590 196/5/591
f 196/5/592 200/159/593 201/7/594
f 201/7/595 8/11/596 7/8/597
f 169/160/598 193/4/599 6/3/600
f 6/3/601 9/13/602 25/9/603
f 25/9/604 171/73/605 168/10/606
f 168/10/607 169/160/608 6/3/609
f 8/11/610 11/32/611 10/12/612
f 7/8/613 10/12/614 9/13/614
f 73/161/615 74/16/616 10/12/617
f 10/12/618 11/32/619 76/14/620
f 75/15/621 73/161/622 10/12/623
f 78/17/624 79/18/625 9/13/626
f 9/13/627 10/12/628 74/16/629
f 74/16/630 77/162/631 78/17/632
f 80/19/633 81/75/634 25/9/635
f 25/9/636 9/13/636 79/18/637
f 157/22/638 170/163/639 45/72/640
f 45/72/641 26/23/641 155/20/642
f 155/20/643 153/164/644 152/21/645
f 152/21/646 156/165/647 157/22/648
f 157/22/649 45/72/650 155/20/651
f 154/25/652 155/20/653 26/23/654
f 26/23/655 27/29/656 150/24/657
f 150/24/658 151/166/659 154/25/660
f 84/167/661 85/30/662 26/23/663
f 26/23/664 45/72/665 83/26/666
f 82/27/667 84/167/668 26/23/669
f 87/28/670 86/103/671 27/29/672
f 27/29/673 26/23/674 85/30/674
f 8/11/675 33/43/675 34/31/676
f 201/7/677 199/168/678 207/33/679
f 207/33/680 33/43/681 8/11/682
f 28/34/683 29/45/683 30/35/683
f 164/37/684 138/169/685 139/56/686
f 139/56/687 31/36/688 30/35/689
f 30/35/690 205/170/691 167/38/692
f 167/38/693 165/171/694 164/37/695
f 164/37/696 139/56/697 30/35/697
f 203/40/698 202/41/699 32/39/700
f 32/39/701 33/43/702 207/33/703
f 207/33/704 204/172/705 203/40/706
f 206/42/707 205/170/708 30/35/709
f 30/35/710 32/39/711 202/41/712
f 33/43/713 32/39/714 35/44/715
f 32/39/716 30/35/716 29/45/716
f 88/173/717 76/14/718 11/32/719
f 11/32/720 34/31/721 90/46/722
f 89/47/723 88/173/724 11/32/725
f 91/49/726 90/46/727 34/31/728
f 34/31/729 35/44/730 92/48/731
f 93/50/732 94/174/733 92/48/734
f 92/48/735 35/44/736 29/45/737
f 29/45/738 95/175/739 93/50/740
f 98/51/741 95/175/742 29/45/743
f 29/45/744 28/34/745 97/52/746
f 97/52/747 96/176/748 98/51/749
f 31/36/750 36/55/750 44/53/750
f 134/54/751 133/59/752 36/55/753
f 36/55/754 31/36/755 139/56/756
f 139/56/757 137/177/758 134/54/759
f 44/53/760 68/151/761 37/57/762
f 38/61/763 224/154/764 222/62/765
f 209/63/71 208/63/766 38/61/767
f 37/57/768 69/71/769 72/64/770
f 41/58/771 37/57/772 39/65/773
f 40/66/774 42/68/774 43/67/774
f 101/178/775 97/52/776 28/34/777
f 28/34/778 43/67/779 42/68/780
f 42/68/781 100/179/782 99/69/783
f 99/69/784 101/178/785 28/34/785
f 37/57/786 68/151/787 218/70/788
f 218/70/789 220/180/790 69/71/791
f 28/34/792 44/53/793 41/58/794
f 45/72/795 170/163/796 171/73/796
f 103/74/797 83/26/798 45/72/799
f 45/72/800 25/9/801 81/75/802
f 81/75/803 102/181/804 103/74/805
f 172/76/806 46/79/806 173/77/807
f 174/182/808 173/77/809 46/79/810
f 46/79/811 47/87/812 180/80/813
f 180/80/814 179/183/815 176/81/816
f 176/81/817 174/182/818 46/79/819
f 180/80/820 47/87/821 48/82/822
f 48/82/823 181/184/824 178/83/825
f 161/146/826 50/185/827 49/84/828
f 49/84/829 46/79/830 172/76/831
f 172/76/832 159/186/833 160/85/834
f 160/85/835 161/146/836 49/84/837
f 52/86/838 51/88/839 48/82/840
f 49/84/841 52/86/841 47/87/842
f 105/90/843 106/118/844 51/88/845
f 51/88/846 52/86/847 107/89/848
f 107/89/849 104/187/850 105/90/851
f 109/91/852 108/188/853 107/89/854
f 107/89/855 52/86/856 49/84/857
f 49/84/858 110/189/859 109/91/860
f 111/92/861 110/189/862 49/84/863
f 49/84/864 50/185/865 112/93/866
f 158/96/867 143/190/868 144/191/869
f 144/191/870 145/192/871 148/94/872
f 148/94/873 149/97/874 54/95/875
f 54/95/876 53/99/877 158/96/878
f 158/96/879 144/191/880 148/94/881
f 146/193/882 150/24/883 27/29/884
f 27/29/885 54/95/886 149/97/887
f 147/98/888 146/193/889 27/29/890
f 113/194/891 116/195/892 53/99/893
f 53/99/894 54/95/895 115/100/896
f 114/101/897 113/194/898 53/99/899
f 117/102/900 115/100/901 54/95/902
f 54/95/903 27/29/904 86/103/905
f 56/104/906 55/116/907 48/82/907
f 177/106/908 181/184/909 48/82/910
f 48/82/911 55/116/912 182/105/913
f 57/107/914 60/126/914 59/108/914
f 166/111/915 163/196/916 162/197/917
f 162/197/918 185/198/919 59/108/920
f 59/108/921 60/126/922 142/110/923
f 142/110/924 140/199/925 166/111/926
f 166/111/927 162/197/928 59/108/929
f 182/105/930 55/116/931 61/112/932
f 61/112/933 187/115/934 186/113/935
f 186/113/936 183/200/937 182/105/938
f 187/115/939 61/112/940 59/108/941
f 59/108/942 185/198/943 184/114/944
f 55/116/945 56/104/946 62/117/947
f 61/112/948 62/117/948 58/109/948
f 118/201/949 119/202/950 56/104/951
f 56/104/952 51/88/953 106/118/954
f 120/119/955 118/201/956 56/104/957
f 119/121/958 121/203/959 122/120/960
f 122/120/961 62/117/962 56/104/963
f 124/122/964 125/204/965 58/109/966
f 58/109/967 62/117/968 122/120/969
f 122/120/970 123/205/971 124/122/972
f 126/124/973 127/206/974 128/123/975
f 128/123/976 57/107/977 58/109/978
f 58/109/979 125/204/980 126/124/981
f 64/125/982 63/131/982 60/126/982
f 141/207/983 142/110/984 60/126/985
f 60/126/986 63/131/987 190/127/988
f 191/128/989 141/207/990 60/126/991
f 189/130/992 63/131/993 64/125/994
f 64/125/995 70/145/996 215/129/997
f 215/129/998 188/208/999 189/130/1000
f 210/132/1001 211/155/1002 38/133/1003
f 65/135/1004 39/139/1005 72/136/1006
f 66/138/1007 40/140/1008 39/139/1009
f 40/140/1010 66/138/1011 67/141/1012
f 130/209/1013 100/210/1014 42/142/1015
f 42/142/1016 67/141/1017 57/107/1018
f 57/107/1019 128/123/1020 129/143/1021
f 129/143/1022 130/209/1023 42/142/1024
f 57/107/1025 67/141/1026 66/138/1027
f 53/99/1028 50/185/1029 161/146/1030
f 132/147/1031 131/211/1032 112/93/1033
f 112/93/1034 50/185/1035 53/99/1036
f 53/99/1037 116/195/1038 132/147/1039
f 136/60/1040 135/212/1041 219/148/1042
f 219/148/1043 68/151/1044 44/53/1045
f 44/53/1046 36/55/1047 136/60/1048
f 69/71/1049 220/180/1050 221/149/1051
f 64/125/1052 66/138/1053 65/135/1054
f 214/153/1055 217/213/1056 71/137/1057
f 71/137/1058 213/214/1059 212/152/1060
f 71/137/1061 217/213/1062 216/144/1063
f 216/144/1064 70/145/1065 65/135/1066
f 224/154/1067 38/61/1068 72/64/1069
f 72/64/1070 69/71/1071 223/150/1072
f 223/150/1073 225/215/1074 224/154/1075
f 211/155/1076 213/214/1077 71/137/1078
f 71/137/1079 72/136/1080 38/133/1081
f 130/1/1082 129/1/1082 101/1/1083
f 101/1/1084 99/1/1085 100/1/1086
f 15/1/1087 114/1/1088 115/1/1089
f 117/1/1090 86/1/1090 87/1/1090
f 85/1/1091 84/1/1092 15/1/1093
f 108/1/1094 109/1/1095 19/1/1096
f 19/1/1097 12/1/1098 105/1/1099
f 104/1/1100 107/1/1101 108/1/1102
f 19/1/1103 105/1/1104 104/1/1105
f 20/1/1106 126/1/1107 125/1/1107
f 125/1/1108 124/1/1109 12/1/1110
f 132/1/1111 19/1/1112 109/1/1113
f 109/1/1114 110/1/1114 111/1/1115
f 111/1/1116 112/1/1117 132/1/1118
f 19/1/1119 132/1/1119 116/1/1120
f 113/1/1121 114/1/1122 15/1/1123
f 19/1/1124 116/1/1125 113/1/1126
f 83/1/1127 103/1/1128 21/1/1129
f 21/1/1130 15/1/1131 84/1/1132
f 82/1/1133 83/1/1134 21/1/1135
f 127/1/1136 126/1/1137 20/1/1138
f 20/1/1139 98/1/1140 96/1/1141
f 97/1/1142 101/1/1143 129/1/1144
f 20/1/1145 96/1/1146 97/1/1147
f 128/1/1148 127/1/1149 20/1/1150
f 97/1/1151 129/1/1152 128/1/1142
f 93/1/1153 95/1/1154 98/1/1155
f 98/1/1156 20/1/1157 5/1/1157
f 73/1/1158 75/1/1159 5/1/1160
f 5/1/1161 21/1/1162 78/1/1163
f 74/1/1164 73/1/1165 5/1/1166
f 80/1/1167 79/1/1168 78/1/1168
f 78/1/1169 21/1/1170 103/1/1171
f 81/1/1172 80/1/1173 78/1/1174
f 12/1/1175 120/1/1176 106/1/1177
f 119/1/1178 118/1/1179 12/1/1180
f 12/1/1181 124/1/1182 123/1/1183
f 123/1/1184 122/1/1185 119/1/1186
f 76/1/1187 88/1/1188 5/1/1189
f 94/1/1190 93/1/1191 5/1/1192
f 5/1/1193 89/1/1194 90/1/1195
f 90/1/1196 91/1/1197 92/1/1198
f 92/1/1199 94/1/1200 5/1/1201
