# Blender 4.1.1
# www.blender.org
mtllib link_body_21.mtl
o link_body_21
v 0.962888 -2.313285 -6.123346
v 1.702335 -0.882227 -6.671995
v -2.334235 -2.589366 -5.505593
v -0.842346 -0.841861 -6.528766
v -1.531396 -1.679304 -6.191634
v -0.269258 -3.283182 -4.860019
v -2.772485 -3.331278 -4.707689
v -0.363657 -1.415305 -5.679830
v 0.478206 -0.810936 -6.298332
v -0.411091 1.183707 -5.720008
v 0.548740 0.941667 -6.303452
v 1.508697 0.693065 -6.673081
v 0.858818 2.325864 -6.053257
v -0.992784 0.601441 -6.543698
v -2.109399 0.323361 -6.176935
v -1.487035 1.752788 -6.179055
v -2.296623 2.598164 -5.507199
v -3.094853 0.031845 -5.557314
v -2.772593 3.331570 -4.707316
v -3.696469 2.552439 -4.332725
v -3.233701 3.943506 -3.704934
v -4.453854 1.552889 -3.685573
v -4.255896 0.261806 -4.325269
v -4.537301 2.954823 -2.522940
v -3.595349 4.396615 -2.530896
v -3.841576 4.626273 -1.291854
v -0.976656 3.952158 -3.397982
v -4.637916 3.661739 -0.656257
v -1.557086 4.230537 -1.703048
v -1.923070 3.986771 -0.026894
v -1.630037 3.205220 -3.245982
v -2.594384 2.610358 -0.730129
v -4.010527 4.572294 0.143300
v -4.167195 4.129275 1.501852
v -2.029090 3.507334 1.523422
v -1.356594 2.203879 4.175590
v -2.368066 2.566859 1.829721
v -2.733779 0.934987 1.974378
v -2.928264 -0.574877 1.143625
v -2.592757 -1.911345 1.851522
v -2.077609 -0.562742 3.613207
v -3.035331 0.540554 -0.120000
v -1.669082 0.606340 4.288893
v -1.085657 -1.920500 4.612640
v -0.300428 -1.226753 5.530421
v -0.345692 1.310586 5.459818
v -4.189824 3.484215 2.616795
v -2.084165 0.736361 6.134798
v 0.519659 0.698510 6.078712
v 1.322013 0.146368 6.385385
v -1.061401 0.207918 6.527081
v 0.757009 -0.576247 6.190588
v -0.948997 -0.109240 6.570669
v -2.134303 -0.793660 6.089090
v -2.821080 -1.088759 5.653412
v -4.191971 -3.488577 2.609870
v -4.049445 -2.506698 3.779957
v -4.163512 -4.158581 1.432817
v -5.110476 -1.981135 1.909411
v -5.304174 -0.316200 2.086898
v -4.802673 -3.391224 -0.516923
v -5.534986 -0.772008 -0.000000
v -4.583901 -0.590458 3.747717
v -4.213664 0.752730 4.341473
v -3.613722 -1.704145 4.777113
v -3.936186 2.076139 4.311874
v -5.084396 2.001768 1.986462
v -2.897948 1.173039 5.561522
v -5.347488 1.884580 -0.601609
v -5.281492 0.540624 -2.125397
v -4.753321 -1.660193 -3.118129
v -5.231457 -1.897444 -1.312569
v -4.115074 -3.235548 -3.156074
v -3.595370 -4.396352 -2.531296
v -3.233809 -3.943683 -3.704620
v -3.635672 -1.736196 -4.783753
v -0.888681 -3.831171 -3.733070
v -1.578098 -4.234237 -1.647372
v -2.006320 -2.987579 -2.676562
v -0.931415 -2.300254 -4.849122
v -1.878019 -1.709863 -3.848328
v -1.697776 -0.292186 -4.505193
v -2.582746 -0.547859 -2.737951
v -2.403358 1.785996 -2.698472
v -2.907584 0.759655 -1.434470
v -2.735255 -1.799274 -1.434470
v -1.650176 1.449032 -4.351152
v -0.290739 3.273797 -4.866795
v -2.783406 -2.060362 -0.120001
v -1.967670 -3.932571 0.303101
v -1.789613 -2.733809 3.152483
v -4.009680 -4.577565 0.111210
v -3.840691 -4.620063 -1.320551
vn 0.4349 0.2882 0.8531
vn 0.2960 0.1106 0.9488
vn 0.4312 0.1012 0.8966
vn -0.1620 -0.1539 -0.9747
vn -0.0561 -0.1527 -0.9867
vn -0.0625 -0.4765 -0.8769
vn -0.0302 -0.8123 -0.5825
vn -0.3618 -0.4776 -0.8007
vn -0.2845 -0.3111 -0.9068
vn 0.6073 0.4105 0.6802
vn 0.5959 0.1907 0.7801
vn -0.0095 -0.8193 -0.5732
vn 0.6048 -0.1655 0.7790
vn 0.4125 -0.1312 0.9014
vn 0.3232 -0.0689 0.9438
vn -0.0563 0.1400 -0.9886
vn -0.1714 0.1180 -0.9781
vn 0.4539 -0.2997 0.8392
vn -0.0525 0.4804 -0.8755
vn -0.2403 0.3463 -0.9068
vn -0.4527 0.0416 -0.8907
vn -0.3613 0.4830 -0.7976
vn -0.0255 0.8137 -0.5807
vn -0.6229 0.0110 -0.7822
vn -0.7218 0.3367 -0.6047
vn -0.6242 0.4250 -0.6555
vn -0.7950 0.5013 -0.3414
vn -0.7519 0.4623 -0.4701
vn -0.8561 0.2012 -0.4761
vn -0.8573 0.3929 -0.3327
vn -0.8133 0.0350 -0.5808
vn 0.1091 0.9724 -0.2062
vn 0.1665 0.9858 -0.0239
vn 0.1743 0.9843 -0.0278
vn -0.8783 0.4725 -0.0723
vn -0.8157 0.5441 -0.1964
vn 0.0721 0.9463 -0.3153
vn 0.0305 0.9144 -0.4037
vn 0.9385 -0.3375 0.0732
vn 0.8533 -0.4708 0.2243
vn 0.8952 -0.4453 0.0171
vn 0.2490 0.9416 0.2265
vn 0.2803 0.9281 0.2451
vn 0.7127 -0.5299 0.4596
vn 0.7988 -0.4347 0.4158
vn 0.2250 0.8967 0.3813
vn 0.2635 0.9006 0.3456
vn -0.8865 0.4420 0.1369
vn -0.8319 0.5545 0.0213
vn 0.1269 0.8613 0.4920
vn 0.8195 -0.2296 -0.5250
vn 0.9091 -0.3210 -0.2654
vn 0.8983 -0.3986 -0.1850
vn 0.9532 -0.1261 -0.2749
vn 0.9975 -0.0705 -0.0075
vn 0.9842 0.0697 -0.1628
vn 0.9313 0.2585 -0.2566
vn 0.8730 0.0825 -0.4806
vn 0.8001 -0.0766 -0.5950
vn 0.6524 0.0333 -0.7572
vn 0.7789 0.1408 -0.6111
vn 0.6514 -0.0611 -0.7563
vn 0.0751 0.8428 0.5330
vn 0.0158 0.7593 0.6505
vn 0.5074 -0.0064 -0.8617
vn -0.0025 0.7474 0.6643
vn 0.0500 0.6078 0.7925
vn 0.4652 0.0089 -0.8851
vn 0.3462 -0.0179 -0.9380
vn 0.0991 0.0728 0.9924
vn -0.1207 0.3077 0.9438
vn 0.0844 -0.4726 0.8772
vn -0.0759 -0.2086 0.9751
vn -0.0045 -0.7494 0.6621
vn 0.0211 -0.7601 0.6495
vn 0.0754 -0.8443 0.5305
vn -0.4925 0.0009 0.8703
vn -0.4782 -0.0106 0.8782
vn -0.6484 -0.0188 0.7610
vn -0.0824 -0.7639 0.6400
vn -0.8519 -0.2633 0.4527
vn -0.9325 -0.2726 0.2369
vn -0.8701 -0.3905 0.3006
vn -0.1186 -0.7528 0.6475
vn -0.8804 -0.4524 0.1422
vn 0.2336 -0.8959 0.3780
vn 0.0575 -0.8242 0.5634
vn -0.8985 -0.4342 -0.0649
vn -0.8651 -0.0841 0.4945
vn -0.9663 -0.0088 0.2571
vn -0.9965 -0.0838 0.0041
vn -0.8097 0.0799 0.5813
vn -0.7729 -0.1245 0.6222
vn -0.1609 -0.7334 0.6605
vn -0.6506 0.0451 0.7580
vn -0.8227 0.2188 0.5247
vn -0.9367 0.2513 0.2436
vn -0.0277 0.7804 0.6246
vn -0.1197 0.7548 0.6449
vn -0.8663 0.3902 0.3118
vn -0.9714 0.2306 -0.0564
vn -0.9605 0.0628 -0.2711
vn -0.8913 -0.2065 -0.4037
vn -0.9554 -0.2430 -0.1679
vn -0.8011 -0.4324 -0.4139
vn -0.7982 -0.5172 -0.3088
vn -0.7072 -0.4731 -0.5254
vn -0.6734 -0.3973 -0.6234
vn -0.7103 -0.2358 -0.6633
vn 0.0261 -0.9141 -0.4046
vn 0.0647 -0.9364 -0.3449
vn 0.1159 -0.9720 -0.2043
vn 0.8558 0.3992 0.3288
vn 0.8644 0.4636 0.1946
vn 0.7500 0.4492 0.4855
vn 0.1815 -0.9828 -0.0350
vn 0.8399 0.2388 0.4874
vn 0.6914 0.3224 0.6466
vn 0.8043 0.0325 0.5933
vn 0.9396 0.0625 0.3366
vn 0.9577 0.2354 0.1655
vn 0.8001 -0.1998 0.5657
vn 0.9150 -0.2290 0.3321
vn 0.9815 -0.0836 0.1721
vn 0.6542 -0.3719 0.6585
vn -0.0059 0.8164 -0.5774
vn 0.9614 0.2752 0.0081
vn 0.9083 0.4177 -0.0205
vn 0.2746 -0.9205 0.2782
vn 0.2708 -0.8910 0.3644
vn 0.8692 0.2917 -0.3991
vn 0.2419 -0.9452 0.2191
vn -0.8307 -0.5197 -0.1997
vn -0.8329 -0.5535 0.0061
vn 0.1637 -0.9860 -0.0304
vt 0.979625 -0.000000
vt 0.988903 0.001169
vt 0.984076 0.007738
vt 0.899098 0.625538
vt 0.883131 0.619992
vt 0.890291 0.613972
vt 0.915596 0.616326
vt 0.911547 0.619386
vt 0.904904 0.622552
vt 0.970239 0.002975
vt 0.977925 0.009976
vt 0.533165 0.742475
vt 0.549746 0.741235
vt 0.525386 0.749482
vt 0.988917 0.019273
vt 0.991915 0.013478
vt 0.994875 0.007656
vt 0.881592 0.628673
vt 0.897518 0.633436
vt 0.999158 0.016694
vt 0.882816 0.638548
vt 0.898610 0.640482
vt 0.905037 0.634283
vt 0.902220 0.646552
vt 0.903922 0.651319
vt 0.911750 0.634757
vt 0.911104 0.649129
vt 0.874177 0.701775
vt 0.866100 0.690413
vt 0.872308 0.692980
vt 0.877503 0.695912
vt 0.869277 0.708039
vt 0.864161 0.700022
vt 0.871722 0.714667
vt 0.918644 0.638274
vt 0.658400 0.729726
vt 0.656340 0.722920
vt 0.671406 0.725103
vt 0.854581 0.694804
vt 0.859412 0.688605
vt 0.675681 0.734421
vt 0.661591 0.736125
vt 0.672531 0.903257
vt 0.662195 0.906823
vt 0.664963 0.898076
vt 0.655277 0.714968
vt 0.669443 0.715778
vt 0.662089 0.915831
vt 0.666792 0.915939
vt 0.655018 0.707357
vt 0.669555 0.707098
vt 0.843565 0.689032
vt 0.851451 0.687820
vt 0.675988 0.692143
vt 0.677101 0.875757
vt 0.674334 0.889116
vt 0.668722 0.889967
vt 0.683627 0.889589
vt 0.684591 0.901508
vt 0.691451 0.895196
vt 0.698954 0.891889
vt 0.692387 0.881051
vt 0.686143 0.876341
vt 0.975233 0.616379
vt 0.977610 0.610367
vt 0.988500 0.620018
vt 0.699676 0.875675
vt 0.991577 0.628577
vt 0.983130 0.628010
vt 0.655991 0.701051
vt 0.683879 0.684844
vt 0.976404 0.628260
vt 0.674012 0.680994
vt 0.690386 0.681287
vt 0.971233 0.623188
vt 0.970239 0.628577
vt 0.968311 0.337771
vt 0.962385 0.339400
vt 0.952898 0.334100
vt 0.945588 0.335237
vt 0.965690 0.332962
vt 0.954064 0.332587
vt 0.947403 0.326957
vt 0.544542 0.681127
vt 0.532352 0.684597
vt 0.525386 0.680994
vt 0.558087 0.700550
vt 0.943404 0.324246
vt 0.549095 0.683482
vt 0.825288 0.719629
vt 0.835256 0.721627
vt 0.830678 0.726122
vt 0.557196 0.693914
vt 0.836495 0.730625
vt 0.557915 0.707192
vt 0.537538 0.689678
vt 0.847380 0.730421
vt 0.826845 0.711418
vt 0.835664 0.713592
vt 0.846456 0.718622
vt 0.825059 0.703132
vt 0.931395 0.324054
vt 0.939177 0.319662
vt 0.931893 0.331843
vt 0.937508 0.314680
vt 0.554343 0.688317
vt 0.939752 0.336240
vt 0.931829 0.339400
vt 0.838433 0.701522
vt 0.826586 0.695826
vt 0.668150 0.684261
vt 0.660067 0.691371
vt 0.836907 0.691168
vt 0.852234 0.705456
vt 0.859355 0.713599
vt 0.863113 0.724313
vt 0.852776 0.724849
vt 0.862310 0.730625
vt 0.554657 0.729261
vt 0.562609 0.717731
vt 0.558457 0.732415
vt 0.552527 0.735726
vt 0.919560 0.613972
vt 0.923865 0.619485
vt 0.918244 0.626526
vt 0.925127 0.629096
vt 0.872815 0.723578
vt 0.536991 0.736243
vt 0.974118 0.751377
vt 0.970239 0.744693
vt 0.982432 0.745245
vt 0.541178 0.724668
vt 0.979936 0.755115
vt 0.987474 0.750343
vt 0.989409 0.744693
vt 0.971702 0.009819
vt 0.977127 0.020769
vt 0.970239 0.016756
vt 0.685062 0.925004
vt 0.688376 0.916152
vt 0.693388 0.922408
vt 0.701260 0.916873
vt 0.696214 0.909898
vt 0.675632 0.923067
vt 0.675529 0.914382
vt 0.682396 0.908468
vt 0.664234 0.923768
vt 0.998376 0.025923
vt 0.984814 0.026586
vt 0.681343 0.742402
vt 0.690386 0.748762
vt 0.665688 0.741540
vt 0.708417 0.911685
vt 0.698574 0.902903
vt 0.708417 0.901123
vt 0.543553 0.713756
vt 0.542235 0.697795
vt 0.703681 0.884678
vt 0.556988 0.714608
vt 0.556062 0.722565
s 1
usemtl pleuraldeles_skin
f 1/1/1 2/2/2 9/3/3
f 4/4/4 2/5/5 1/6/6
f 7/7/7 3/8/8 1/6/6
f 5/9/9 1/6/6 3/8/8
f 4/4/4 1/6/6 5/9/9
f 6/10/10 1/1/1 8/11/11
f 6/12/12 7/13/7 1/14/6
f 1/1/1 9/3/3 8/11/11
f 10/15/13 9/3/3 11/16/14
f 8/11/11 9/3/3 10/15/13
f 11/16/14 9/3/3 12/17/15
f 12/17/15 9/3/3 2/2/2
f 12/18/16 2/5/5 14/19/17
f 13/20/18 11/16/14 12/17/15
f 13/21/19 12/18/16 14/19/17
f 14/19/17 2/5/5 4/4/4
f 16/22/20 13/21/19 14/19/17
f 14/19/17 15/23/21 16/22/20
f 4/4/4 15/23/21 14/19/17
f 15/23/21 17/24/22 16/22/20
f 13/21/19 16/22/20 17/24/22
f 19/25/23 13/21/19 17/24/22
f 15/23/21 18/26/24 17/24/22
f 18/26/24 20/27/25 17/24/22
f 17/24/22 20/27/25 19/25/26
f 20/28/25 25/29/27 21/30/28
f 19/31/26 20/28/25 21/30/28
f 20/28/25 22/32/29 24/33/30
f 23/34/31 22/32/29 20/28/25
f 18/26/24 23/35/31 20/27/25
f 20/28/25 24/33/30 25/29/27
f 25/36/32 26/37/33 29/38/34
f 25/29/27 28/39/35 26/40/36
f 25/29/27 24/33/30 28/39/35
f 29/38/34 27/41/37 25/36/32
f 27/41/37 21/42/38 25/36/32
f 32/43/39 29/44/40 30/45/41
f 33/46/42 30/47/43 29/38/34
f 27/48/44 29/44/40 31/49/45
f 31/49/45 29/44/40 32/43/39
f 26/37/33 33/46/42 29/38/34
f 33/46/42 34/50/46 35/51/47
f 34/52/48 33/53/49 28/39/35
f 33/53/49 26/40/36 28/39/35
f 33/46/42 35/51/47 30/47/43
f 34/50/46 36/54/50 35/51/47
f 36/55/51 37/56/52 35/57/53
f 37/56/52 32/43/39 35/57/53
f 32/43/39 30/45/41 35/57/53
f 38/58/54 37/56/52 36/55/51
f 38/58/54 32/43/39 37/56/52
f 42/59/55 38/58/54 39/60/56
f 39/60/56 38/58/54 40/61/57
f 40/61/57 38/58/54 41/62/58
f 38/58/54 43/63/59 41/62/58
f 38/58/54 42/59/55 32/43/39
f 38/58/54 36/55/51 43/63/59
f 45/64/60 44/65/61 43/66/59
f 44/67/61 41/62/58 43/63/59
f 43/66/59 36/68/51 46/69/62
f 43/66/59 46/69/62 45/64/60
f 47/70/63 46/71/64 36/54/50
f 46/69/62 49/72/65 45/64/60
f 48/73/66 46/71/64 47/70/63
f 48/73/66 49/74/67 46/71/64
f 52/75/68 45/64/60 49/72/65
f 49/72/65 50/76/69 52/75/68
f 50/77/70 49/78/67 51/79/71
f 48/80/66 51/79/71 49/78/67
f 52/81/72 50/77/70 53/82/73
f 52/81/72 53/82/73 54/83/74
f 54/84/74 45/85/75 52/86/72
f 54/84/74 56/87/76 45/85/75
f 53/82/73 48/80/77 54/83/78
f 55/88/79 54/83/78 48/80/77
f 55/89/80 56/87/76 54/84/74
f 57/90/81 59/91/82 56/92/83
f 55/89/80 57/93/84 56/87/76
f 59/91/82 58/94/85 56/92/83
f 56/87/76 58/95/86 44/96/87
f 56/87/76 44/96/87 45/85/75
f 61/97/88 58/94/85 59/91/82
f 63/98/89 59/91/82 57/90/81
f 63/98/89 60/99/90 59/91/82
f 62/100/91 59/91/82 60/99/90
f 62/100/91 61/97/88 59/91/82
f 64/101/92 60/99/90 63/98/89
f 63/102/89 65/103/93 64/104/92
f 65/103/93 63/102/89 57/105/81
f 55/89/80 65/106/94 57/93/84
f 65/103/93 55/88/79 64/104/92
f 64/104/92 55/88/79 68/107/95
f 66/108/96 64/104/92 68/107/95
f 67/109/97 64/101/92 66/110/96
f 64/101/92 67/109/97 60/99/90
f 68/111/98 47/70/63 66/112/99
f 68/111/98 48/73/66 47/70/63
f 68/107/95 55/88/79 48/80/77
f 66/110/96 47/113/100 67/109/97
f 34/52/48 67/109/97 47/113/100
f 28/39/35 69/114/101 67/109/97
f 69/114/101 60/99/90 67/109/97
f 28/39/35 67/109/97 34/52/48
f 24/33/30 69/114/101 28/39/35
f 70/115/102 62/100/91 69/114/101
f 69/114/101 62/100/91 60/99/90
f 24/33/30 70/115/102 69/114/101
f 22/32/29 70/115/102 24/33/30
f 71/116/103 72/117/104 70/115/102
f 23/34/31 71/116/103 70/115/102
f 22/32/29 23/34/31 70/115/102
f 62/100/91 70/115/102 72/117/104
f 73/118/105 61/97/88 72/117/104
f 62/100/91 72/117/104 61/97/88
f 73/118/105 72/117/104 71/116/103
f 74/119/106 61/120/88 73/121/105
f 74/119/106 73/121/105 75/122/107
f 7/7/108 75/123/107 73/124/105
f 7/7/108 73/124/105 76/125/109
f 73/124/105 71/126/103 76/125/109
f 76/127/109 71/116/103 23/34/31
f 7/7/108 76/125/109 3/8/8
f 3/8/8 76/125/109 18/26/24
f 18/26/24 76/125/109 23/35/31
f 75/122/110 6/12/12 77/128/111
f 74/119/112 75/122/110 77/128/111
f 75/122/110 7/13/7 6/12/12
f 79/129/113 78/130/114 77/131/115
f 74/119/112 77/128/111 78/132/116
f 79/129/113 77/131/115 81/133/117
f 80/134/118 77/131/115 6/135/10
f 80/134/118 81/133/117 77/131/115
f 80/136/118 82/137/119 81/138/117
f 82/139/119 83/140/120 81/141/117
f 81/141/117 83/140/120 79/142/113
f 79/142/113 83/140/120 86/143/121
f 87/144/122 84/145/123 83/140/120
f 84/145/123 85/146/124 83/140/120
f 83/140/120 85/146/124 86/143/121
f 87/144/122 83/140/120 82/139/119
f 87/144/122 88/147/125 31/49/45
f 84/145/123 87/144/122 31/49/45
f 88/148/125 87/149/122 10/15/13
f 82/137/119 10/15/13 87/149/122
f 10/15/13 13/20/18 88/148/125
f 88/150/126 13/151/19 19/152/23
f 21/42/38 88/150/126 19/152/23
f 88/147/125 27/48/44 31/49/45
f 27/41/37 88/150/126 21/42/38
f 79/142/113 86/143/121 78/153/114
f 78/153/114 86/143/121 89/154/127
f 86/143/121 85/146/124 42/59/55
f 86/143/121 42/59/55 89/154/127
f 40/61/57 89/154/127 39/60/56
f 40/61/57 90/155/128 89/154/127
f 42/59/55 39/60/56 89/154/127
f 78/153/114 89/154/127 90/155/128
f 58/95/86 90/156/129 91/157/130
f 40/61/57 91/158/131 90/155/128
f 92/159/132 78/132/116 90/156/129
f 90/156/129 58/95/86 92/159/132
f 61/120/88 93/160/133 92/159/134
f 92/159/132 93/160/135 78/132/116
f 61/120/88 92/159/134 58/95/85
f 74/119/106 93/160/133 61/120/88
f 78/132/116 93/160/135 74/119/112
f 91/158/131 41/62/58 44/67/61
f 91/157/130 44/96/87 58/95/86
f 91/158/131 40/61/57 41/62/58
f 85/146/124 32/43/39 42/59/55
f 84/145/123 32/43/39 85/146/124
f 31/49/45 32/43/39 84/145/123
f 82/137/119 8/11/11 10/15/13
f 80/136/118 8/11/11 82/137/119
f 8/11/11 80/136/118 6/10/10
f 53/82/73 51/79/71 48/80/77
f 51/79/71 53/82/73 50/77/70
f 47/70/63 36/54/50 34/50/46
f 5/9/9 18/26/24 15/23/21
f 5/9/9 3/8/8 18/26/24
f 4/4/4 5/9/9 15/23/21
f 10/15/13 11/16/14 13/20/18
