# ('FARMS composite mesh',)
mtllib link_body_25_composite.mtl
usemtl link_body_25_composite
v -2.93692300 0.64347900 5.45430700
v -2.93692300 0.64347900 5.45430700
v -2.93692300 0.64347900 5.45430700
v -2.86654200 -0.64354200 5.49396500
v -2.86654200 -0.64354200 5.49396500
v -2.86654200 -0.64354200 5.49396500
v 2.33103100 0.13723500 6.12730500
v 2.33103100 0.13723500 6.12730500
v 2.33103100 0.13723500 6.12730500
v -2.12903500 0.07031800 5.98347600
v -2.12903500 0.07031800 5.98347600
v -2.12903500 0.07031800 5.98347600
v -3.66655600 1.23142400 4.63601600
v -3.66655600 1.23142400 4.63601600
v -3.66655600 1.23142400 4.63601600
v -3.83875200 0.00000000 4.60664600
v -3.83875200 0.00000000 4.60664600
v -4.49455500 -0.62689300 3.63508600
v -4.49455500 -0.62689300 3.63508600
v -3.67700900 -1.23507200 4.62797200
v -3.67700900 -1.23507200 4.62797200
v -4.42719100 1.05674700 3.61942800
v -4.99804900 0.69711600 2.50952300
v -4.22867100 1.80634800 3.63583000
v -4.22867100 1.80634800 3.63583000
v -0.78660500 2.96525200 0.40602600
v -0.78660500 2.96525200 0.40602600
v -4.77970300 2.76210700 1.31092300
v -4.77970300 2.76210700 1.31092300
v -4.64255300 2.29051200 2.47801100
v -4.64255300 2.29051200 2.47801100
v -0.86301800 2.43368900 1.62765000
v -0.86301800 2.43368900 1.62765000
v 0.41772800 0.89714800 4.80280000
v 0.41772800 0.89714800 4.80280000
v 0.41772800 0.89714800 4.80280000
v -0.34217000 1.46601600 3.64231900
v -0.34217000 1.46601600 3.64231900
v -0.54765300 0.00000100 3.56619600
v -0.94701000 1.15695800 2.45643900
v 0.11758000 0.00000100 4.53890800
v 0.11758000 0.00000100 4.53890800
v -1.01956900 -0.63060900 2.51573800
v -1.33211100 0.72976400 1.26274800
v -0.31919100 -1.45397300 3.67437300
v -0.31919100 -1.45397300 3.67437300
v -1.24555900 -1.22821700 1.25228100
v -0.74161900 -2.09175400 2.36948700
v -0.74161900 -2.09175400 2.36948700
v -0.87121200 -2.60104400 1.24966900
v -0.87121200 -2.60104400 1.24966900
v -4.22868200 -1.80627000 3.63584400
v -4.22868200 -1.80627000 3.63584400
v -4.22868200 -1.80627000 3.63584400
v -4.64269500 -2.29001000 2.47811500
v -4.64269500 -2.29001000 2.47811500
v -4.91925300 -1.17420100 2.49311100
v -0.78593800 -2.97372300 0.39838500
v -0.78593800 -2.97372300 0.39838500
v -0.78593800 -2.97372300 0.39838500
v 1.89325300 -0.26539900 5.94459200
v 1.89325300 -0.26539900 5.94459200
v -4.78503700 -2.76413200 1.32797100
v -4.78503700 -2.76413200 1.32797100
v 1.01297000 -0.57598800 5.39300100
v 1.01297000 -0.57598800 5.39300100
v 0.23121300 -1.02184500 4.55512400
v 0.23121300 -1.02184500 4.55512400
v 0.23121300 -1.02184500 4.55512400
v -4.64254700 -3.31464300 -0.12484600
v -4.64254700 -3.31464300 -0.12484600
v -5.32240200 -0.62257200 1.28433300
v -5.19760000 -1.96221800 0.05348900
v -5.43466000 0.52702700 0.00000100
v -5.22226600 -1.24652700 -1.27097900
v -4.91926500 -2.44515200 -1.27097900
v -4.84302800 -1.72278000 -2.46867000
v -4.43373800 -3.53280000 -1.27921500
v -4.43373800 -3.53280000 -1.27921500
v -0.48870100 -3.32629300 -1.45144600
v -0.48870100 -3.32629300 -1.45144600
v -2.44103600 -3.45426800 -2.80614400
v -0.64291000 -3.22294300 -0.62239000
v -0.64291000 -3.22294300 -0.62239000
v -0.64291000 -3.22294300 -0.62239000
v -4.07815500 -3.50125500 -2.47923900
v -4.07815500 -3.50125500 -2.47923900
v -3.57800600 -3.29522700 -3.60900700
v -3.57800600 -3.29522700 -3.60900700
v -3.57800600 -3.29522700 -3.60900700
v -4.17032100 -2.07288600 -3.61943000
v -4.17032100 -2.07288600 -3.61943000
v -4.47818600 -0.57672600 -3.66646600
v -4.47818600 -0.57672600 -3.66646600
v -3.54654200 -1.76283200 -4.60664700
v -3.82818500 -0.43280600 -4.62096000
v -3.82818500 -0.43280600 -4.62096000
v -2.97969000 -0.71123700 -5.43633700
v -3.02606500 -3.01672800 -4.48791900
v -3.02606500 -3.01672800 -4.48791900
v 0.20850700 -2.94483100 -3.59376100
v 0.20850700 -2.94483100 -3.59376100
v 0.20850700 -2.94483100 -3.59376100
v -2.31504800 -2.39960300 -5.36831600
v -2.31504800 -2.39960300 -5.36831600
v 0.75503100 -2.52168100 -4.53890800
v 0.75503100 -2.52168100 -4.53890800
v -0.03267300 -3.15417800 -2.96888700
v -0.03267300 -3.15417800 -2.96888700
v -0.03267300 -3.15417800 -2.96888700
v -0.20909900 -2.04245300 -3.56619700
v -0.20909900 -2.04245300 -3.56619700
v -0.20909900 -2.04245300 -3.56619700
v -0.82252100 -1.77020500 -2.51574000
v -1.35197800 -0.55225800 -1.21390400
v -1.04196900 0.00000100 -2.45644000
v -0.94701000 -2.40923600 -1.25228300
v -0.52857200 -0.61768800 -3.58162600
v -0.52857200 -0.61768800 -3.58162600
v 0.13113800 0.46480000 -4.55301200
v 0.13113800 0.46480000 -4.55301200
v -0.37199800 1.61340800 -3.56950200
v -0.37199800 1.61340800 -3.56950200
v 0.26095600 -1.35007600 -4.53215300
v 0.26095600 -1.35007600 -4.53215300
v 0.94712800 -0.32289000 -5.35105900
v 1.31634500 -1.81724200 -5.33124700
v 1.31634500 -1.81724200 -5.33124700
v 2.10281700 -1.17210300 -5.93178900
v 2.10281700 -1.17210300 -5.93178900
v -1.53559900 -1.75289200 -6.02108900
v -1.53559900 -1.75289200 -6.02108900
v 1.83258400 0.00709100 -5.93606700
v 1.04851900 1.06593800 -5.33972400
v 2.80652200 -0.02398400 -6.28799500
v 2.80652200 -0.02398400 -6.28799500
v 2.06338100 1.04153900 -5.93672500
v 2.06338100 1.04153900 -5.93672500
v -2.01205400 2.09821400 -5.63084900
v -2.01205400 2.09821400 -5.63084900
v -2.01205400 2.09821400 -5.63084900
v 1.35836800 1.80766100 -5.34153100
v 1.35836800 1.80766100 -5.34153100
v 1.35836800 1.80766100 -5.34153100
v 0.10838300 1.06084800 -6.12637200
v -1.71179200 1.38495800 -6.02583500
v -1.01475500 0.07236000 -6.41176900
v -2.08298000 0.34350700 -6.03048100
v 3.03230600 -0.69572900 -6.29564600
v 3.03230600 -0.69572900 -6.29564600
v 3.03230600 -0.69572900 -6.29564600
v -2.87730700 1.11386900 -5.42157700
v -2.37504500 2.47190600 -5.29076200
v -2.37504500 2.47190600 -5.29076200
v -3.04258600 3.02464000 -4.47118000
v -3.04258600 3.02464000 -4.47118000
v -3.04258600 3.02464000 -4.47118000
v -3.67175100 1.29755500 -4.63640800
v -3.67175100 1.29755500 -4.63640800
v -4.32811600 1.52596200 -3.66710000
v -3.60187400 3.30498400 -3.56811500
v -3.60187400 3.30498400 -3.56811500
v -4.63383300 2.30327700 -2.49311200
v -4.98427800 0.64511300 -2.55248600
v -5.08766400 1.96955500 -1.28160000
v -5.32457600 0.00000000 -1.27097900
v -4.43387400 3.53281700 -1.28059600
v -4.43387400 3.53281700 -1.28059600
v -4.10510100 3.50804000 -2.41975300
v -4.10510100 3.50804000 -2.41975300
v -5.01564200 2.49305700 -0.00000000
v -4.64254600 3.31464100 -0.12484600
v -4.64254600 3.31464100 -0.12484600
v -0.64287500 3.22295900 -0.62270600
v -0.64287500 3.22295900 -0.62270600
v -0.48980700 3.32525000 -1.44309600
v -0.48980700 3.32525000 -1.44309600
v -1.04196900 2.45643800 -0.00000100
v -0.94701000 2.40923800 -1.25228300
v -1.24555600 1.22822000 -1.25228300
v -0.81835500 1.82658300 -2.47261100
v -0.03267300 3.15417800 -2.96888700
v -0.03267300 3.15417800 -2.96888700
v 0.31201600 2.84079300 -3.87784900
v 0.31201600 2.84079300 -3.87784900
v 0.31201600 2.84079300 -3.87784900
v -2.43542800 3.45433200 -2.80100400
v 0.72457100 2.45269000 -4.55992200
v 0.72457100 2.45269000 -4.55992200
v -1.45483000 0.51928500 -0.00000100
v -1.34636700 -1.25228100 -0.00000100
v -1.04196900 -2.45643700 -0.00000100
v -1.04196900 -2.45643700 -0.00000100
v -5.22226200 1.24652900 1.27097800
v 2.62220300 -0.04163800 6.21153000
v 2.62220300 -0.04163800 6.21153000
v 2.62220300 -0.04163800 6.21153000
v 2.62220300 -0.04163800 6.21153000
vn -0.65270000 0.01950000 0.75740000
vn -0.00390000 0.78410000 0.62060000
vn -0.00390000 0.78410000 0.62060000
vn -0.64640000 -0.03170000 0.76230000
vn 0.00300000 -0.77710000 0.62930000
vn 0.00300000 -0.77710000 0.62930000
vn -0.02300000 0.48620000 0.87350000
vn 0.40680000 -0.00730000 -0.91350000
vn -0.02300000 0.48620000 0.87350000
vn -0.03430000 0.64740000 0.76140000
vn -0.55010000 -0.00430000 0.83510000
vn -0.05310000 -0.52680000 0.84830000
vn -0.77210000 0.11290000 0.62540000
vn -0.77210000 0.11290000 0.62540000
vn 0.03240000 0.86350000 0.50330000
vn -0.76560000 0.00260000 0.64330000
vn -0.76560000 0.00260000 0.64330000
vn -0.86970000 -0.08040000 0.48700000
vn -0.86970000 -0.08040000 0.48700000
vn 0.03380000 -0.86610000 0.49880000
vn -0.76720000 -0.11470000 0.63110000
vn -0.86170000 0.14110000 0.48740000
vn -0.93960000 0.09090000 0.33010000
vn -0.85860000 0.21000000 0.46760000
vn 0.05440000 0.90950000 0.41220000
vn 0.05210000 0.94610000 0.31960000
vn 0.91030000 -0.40970000 -0.05900000
vn 0.03670000 0.92920000 0.36780000
vn -0.94140000 0.30250000 0.14900000
vn -0.92370000 0.23080000 0.30570000
vn 0.05450000 0.92800000 0.36860000
vn 0.07280000 0.91070000 0.40650000
vn 0.94510000 -0.26530000 -0.19080000
vn 0.07470000 0.90880000 0.41060000
vn 0.71840000 -0.08140000 -0.69080000
vn 0.71840000 -0.08140000 -0.69080000
vn 0.07920000 0.91160000 0.40340000
vn 0.87300000 -0.13080000 -0.46990000
vn 0.88050000 -0.01910000 -0.47370000
vn 0.92370000 -0.15990000 -0.34810000
vn 0.77310000 0.00060000 -0.63430000
vn 0.77310000 0.00060000 -0.63430000
vn 0.93880000 0.07790000 -0.33540000
vn 0.98170000 -0.09760000 -0.16370000
vn 0.86650000 0.13020000 -0.48200000
vn 0.07810000 -0.91060000 0.40590000
vn 0.97430000 0.16040000 -0.15790000
vn 0.07490000 -0.90850000 0.41110000
vn 0.92790000 0.22510000 -0.29730000
vn 0.07290000 -0.91090000 0.40600000
vn 0.94950000 0.28050000 -0.14050000
vn -0.85760000 -0.20000000 0.47390000
vn 0.05310000 -0.90880000 0.41390000
vn -0.85760000 -0.20000000 0.47390000
vn 0.02220000 -0.92530000 0.37870000
vn -0.92780000 -0.23210000 0.29220000
vn -0.93390000 -0.15930000 0.32020000
vn 0.05250000 -0.94710000 0.31670000
vn 0.90770000 0.41770000 -0.04100000
vn 0.90770000 0.41770000 -0.04100000
vn 0.55140000 -0.23650000 -0.80000000
vn -0.03560000 -0.72410000 0.68870000
vn 0.03610000 -0.92930000 0.36760000
vn -0.94740000 -0.28290000 0.14980000
vn 0.61490000 -0.06150000 -0.78620000
vn 0.08870000 -0.92070000 0.37990000
vn 0.07540000 -0.90890000 0.41000000
vn 0.78290000 0.07730000 -0.61740000
vn 0.78290000 0.07730000 -0.61740000
vn 0.04110000 -0.95920000 0.27960000
vn -0.92130000 -0.38780000 -0.02660000
vn -0.98310000 -0.08950000 0.15980000
vn -0.96870000 -0.24800000 0.01530000
vn -0.99800000 0.06370000 -0.00330000
vn -0.97740000 -0.14210000 -0.15650000
vn -0.92490000 -0.33790000 -0.17460000
vn -0.91660000 -0.22720000 -0.32910000
vn -0.89800000 -0.39440000 -0.19520000
vn 0.04440000 -0.99290000 0.11010000
vn 0.88720000 0.40410000 0.22260000
vn 0.08060000 -0.99630000 0.02950000
vn 0.06420000 -0.98840000 -0.13780000
vn 0.05460000 -0.98120000 0.18530000
vn 0.90260000 0.42310000 0.08000000
vn 0.90260000 0.42310000 0.08000000
vn 0.01440000 -0.99730000 -0.07140000
vn -0.85810000 -0.38080000 -0.34430000
vn -0.77500000 -0.37950000 -0.50540000
vn 0.02700000 -0.97260000 -0.23080000
vn -0.77500000 -0.37950000 -0.50540000
vn -0.81620000 -0.29480000 -0.49690000
vn -0.81620000 -0.29480000 -0.49690000
vn -0.87020000 -0.06920000 -0.48770000
vn -0.87020000 -0.06920000 -0.48770000
vn -0.69780000 -0.26590000 -0.66510000
vn -0.76620000 -0.04190000 -0.64120000
vn -0.76620000 -0.04190000 -0.64120000
vn -0.60190000 -0.11050000 -0.79090000
vn -0.68480000 -0.33180000 -0.64880000
vn 0.09110000 -0.93010000 -0.35580000
vn 0.78870000 0.34550000 0.50860000
vn 0.78870000 0.34550000 0.50860000
vn 0.10910000 -0.94150000 -0.31880000
vn 0.11560000 -0.82730000 -0.54980000
vn -0.58710000 -0.26200000 -0.76590000
vn 0.12440000 -0.84550000 -0.51930000
vn 0.71530000 0.29800000 0.63200000
vn 0.84870000 0.37460000 0.37340000
vn 0.84870000 0.37460000 0.37340000
vn 0.10680000 -0.97260000 -0.20650000
vn 0.81660000 0.28740000 0.50050000
vn 0.81660000 0.28740000 0.50050000
vn 0.81660000 0.28740000 0.50050000
vn 0.91160000 0.24480000 0.33020000
vn 0.98370000 0.07670000 0.16260000
vn 0.94300000 -0.01200000 0.33260000
vn 0.93170000 0.32130000 0.16930000
vn 0.86890000 0.06950000 0.49010000
vn 0.86890000 0.06950000 0.49010000
vn 0.76690000 -0.07120000 0.63780000
vn 0.76690000 -0.07120000 0.63780000
vn 0.84130000 -0.20790000 0.49910000
vn 0.84130000 -0.20790000 0.49910000
vn 0.73950000 0.18720000 0.64670000
vn 0.73950000 0.18720000 0.64670000
vn 0.62020000 0.05840000 0.78220000
vn 0.13390000 -0.76890000 -0.62510000
vn 0.60530000 0.18810000 0.77350000
vn 0.45600000 0.11090000 0.88300000
vn 0.13640000 -0.75630000 -0.63990000
vn -0.33000000 -0.18420000 -0.92580000
vn 0.13380000 -0.77710000 -0.61500000
vn 0.45060000 0.00650000 0.89270000
vn 0.61050000 -0.15690000 0.77630000
vn 0.33370000 0.03700000 0.94200000
vn 0.04670000 0.12410000 -0.99120000
vn 0.45370000 -0.12280000 0.88260000
vn 0.09990000 0.46260000 -0.88090000
vn 0.12260000 0.68960000 -0.71380000
vn -0.52890000 0.22980000 -0.81700000
vn 0.12260000 0.68960000 -0.71380000
vn 0.12070000 0.72210000 -0.68120000
vn 0.12070000 0.72210000 -0.68120000
vn 0.58010000 -0.24040000 0.77820000
vn 0.05580000 0.40790000 -0.91130000
vn -0.22110000 0.32220000 -0.92050000
vn -0.12820000 0.02610000 -0.99140000
vn -0.44220000 0.03390000 -0.89630000
vn 0.31950000 0.09660000 0.94270000
vn 0.02050000 -0.04310000 -0.99890000
vn 0.13630000 -0.75550000 -0.64080000
vn -0.60400000 0.16850000 -0.77900000
vn -0.58170000 0.28560000 -0.76160000
vn 0.14010000 0.83040000 -0.53930000
vn -0.70170000 0.32120000 -0.63600000
vn 0.09860000 0.93120000 -0.35090000
vn -0.70170000 0.32120000 -0.63600000
vn -0.73470000 0.18600000 -0.65240000
vn -0.73470000 0.18600000 -0.65240000
vn -0.83770000 0.21320000 -0.50270000
vn -0.78760000 0.35670000 -0.50250000
vn 0.02400000 0.97380000 -0.22600000
vn -0.88530000 0.32190000 -0.33570000
vn -0.93960000 0.07340000 -0.33440000
vn -0.95170000 0.25840000 -0.16560000
vn -0.98560000 -0.00570000 -0.16890000
vn -0.90590000 0.37900000 -0.18910000
vn 0.04520000 0.99280000 0.11080000
vn -0.85770000 0.38690000 -0.33850000
vn 0.01730000 0.99780000 -0.06470000
vn -0.94530000 0.32630000 0.00440000
vn 0.04140000 0.95840000 0.28230000
vn -0.91460000 0.40250000 -0.03850000
vn 0.90230000 -0.42370000 0.07940000
vn 0.05480000 0.98070000 0.18780000
vn 0.88660000 -0.40630000 0.22100000
vn 0.08060000 0.99630000 0.03030000
vn 0.94590000 -0.32450000 -0.00780000
vn 0.92850000 -0.33200000 0.16660000
vn 0.97430000 -0.15540000 0.16310000
vn 0.91080000 -0.24890000 0.32920000
vn 0.10890000 0.97180000 -0.20930000
vn 0.84930000 -0.37040000 0.37620000
vn 0.79220000 -0.30940000 0.52600000
vn 0.79220000 -0.30940000 0.52600000
vn 0.10970000 0.91720000 -0.38290000
vn 0.06440000 0.98850000 -0.13690000
vn 0.72130000 -0.24000000 0.64970000
vn 0.11790000 0.84190000 -0.52660000
vn 0.99750000 -0.07070000 -0.00190000
vn 0.98640000 0.16440000 -0.00400000
vn 0.94360000 0.33120000 -0.00260000
vn 0.94360000 0.33120000 -0.00260000
vn -0.97190000 0.17220000 0.16060000
vn 0.32140000 0.07880000 -0.94370000
vn -0.02890000 -0.69060000 0.72270000
vn -0.02890000 -0.69060000 0.72270000
vn -0.03550000 0.37780000 0.92520000
vt 0.89312000 0.36981400
vt 0.89312000 0.36981400
vt 0.45303400 0.68920000
vt 0.89209500 0.36274400
vt 0.89209500 0.36274400
vt 0.11095100 0.68361800
vt 0.92675700 0.35977200
vt 0.97176700 0.91474500
vt 0.48611600 0.68099400
vt 0.89769400 0.36557300
vt 0.89769400 0.36557300
vt 0.89769400 0.36557300
vt 0.88908000 0.37403700
vt 0.23152000 0.87624400
vt 0.44808600 0.69454200
vt 0.22482200 0.87567500
vt 0.88654500 0.36760600
vt 0.21933900 0.88039100
vt 0.88159200 0.36515300
vt 0.11639400 0.68830500
vt 0.88617400 0.36069200
vt 0.22802800 0.88139900
vt 0.22403000 0.88705600
vt 0.23234600 0.88179600
vt 0.44434600 0.70073700
vt 0.46616100 0.71614500
vt 0.48065900 0.90260800
vt 0.44103100 0.71435100
vt 0.23428900 0.89484000
vt 0.23299500 0.88823300
vt 0.44181400 0.70763400
vt 0.46568500 0.70927700
vt 0.48249500 0.89548500
vt 0.47391000 0.69015000
vt 0.48665000 0.87611000
vt 0.98254500 0.92286400
vt 0.46908000 0.69738100
vt 0.48537900 0.88333900
vt 0.49356800 0.88242200
vt 0.48872000 0.88977500
vt 0.49203100 0.87681400
vt 0.98600000 0.91880000
vt 0.49839200 0.88774500
vt 0.49249000 0.89603300
vt 0.50109800 0.88030700
vt 0.09428900 0.69451200
vt 0.50298900 0.89414000
vt 0.09724800 0.70173800
vt 0.50614200 0.88698200
vt 0.09825100 0.70799300
vt 0.51003700 0.89263500
vt 0.88196300 0.35839800
vt 0.12015400 0.69375400
vt 0.21405400 0.87988100
vt 0.12305800 0.70013800
vt 0.20980200 0.88580500
vt 0.21474800 0.88619000
vt 0.09779700 0.71279500
vt 0.75982000 0.97180600
vt 0.51273900 0.89685800
vt 0.97523200 0.91355800
vt 0.07935600 0.68231900
vt 0.12416100 0.70655100
vt 0.20630400 0.89181500
vt 0.98133500 0.91381700
vt 0.08525300 0.68519400
vt 0.09053200 0.68970500
vt 0.98705600 0.91318900
vt 0.49742300 0.87567500
vt 0.12342600 0.71472800
vt 0.20296300 0.89957700
vt 0.21573400 0.89294800
vt 0.20849100 0.89906300
vt 0.22045000 0.90057000
vt 0.21121100 0.90671500
vt 0.20592400 0.90621600
vt 0.20901800 0.91321900
vt 0.20166400 0.90590300
vt 0.12225600 0.72120900
vt 0.51603100 0.90642800
vt 0.09617100 0.72317000
vt 0.10940400 0.73016700
vt 0.09702700 0.71852500
vt 0.51487100 0.90209600
vt 0.75710400 0.97690300
vt 0.12018000 0.72793300
vt 0.20198000 0.91267900
vt 0.92776900 0.16908000
vt 0.11716600 0.73427400
vt 0.20359700 0.91922600
vt 0.20825100 0.91966500
vt 0.92935300 0.17674700
vt 0.92866500 0.18525700
vt 0.21500200 0.92057800
vt 0.92489400 0.17716600
vt 0.21680300 0.92619600
vt 0.92433200 0.18474400
vt 0.91948800 0.18158100
vt 0.92381600 0.16947300
vt 0.11376800 0.73922700
vt 0.97029600 0.26134700
vt 0.78088400 0.97609700
vt 0.09212200 0.73512900
vt 0.10939100 0.74416600
vt 0.91826600 0.17130800
vt 0.08880700 0.74041900
vt 0.97023900 0.25698400
vt 0.51603100 0.91462500
vt 0.78439600 0.97496300
vt 0.09353200 0.73165000
vt 0.51074300 0.91904100
vt 0.97599000 0.26086700
vt 0.78088400 0.97180600
vt 0.50892200 0.91389100
vt 0.50168300 0.90825600
vt 0.49952300 0.91540000
vt 0.51134800 0.90646000
vt 0.50337600 0.92066800
vt 0.98372400 0.25823100
vt 0.49776300 0.92668600
vt 0.98628000 0.25120700
vt 0.49116200 0.92270200
vt 0.99340100 0.25048100
vt 0.97745500 0.25609400
vt 0.50741800 0.92474100
vt 0.97965500 0.24910200
vt 0.08542200 0.74481500
vt 0.97141700 0.25167900
vt 0.97148300 0.24532300
vt 0.08048600 0.74822100
vt 0.91222900 0.17313000
vt 0.10451400 0.74785900
vt 0.97790500 0.24317300
vt 0.98566300 0.24425700
vt 0.97416300 0.23788100
vt 0.88183400 0.17308200
vt 0.98180600 0.23870700
vt 0.88463800 0.18020500
vt 0.46489900 0.74981700
vt 0.90845700 0.19431200
vt 0.90845700 0.19431200
vt 0.48611600 0.74535600
vt 0.88772400 0.18565000
vt 0.98792600 0.24025800
vt 0.89692600 0.18444800
vt 0.90782500 0.18997700
vt 0.90574600 0.18165700
vt 0.91199400 0.18529200
vt 0.97023900 0.23870900
vt 0.88159200 0.16908000
vt 0.07450900 0.75038900
vt 0.91563500 0.19094600
vt 0.91008200 0.19700300
vt 0.46170000 0.74841900
vt 0.23643100 0.92755800
vt 0.45590700 0.74472300
vt 0.91330300 0.20122500
vt 0.22595800 0.92726800
vt 0.92030500 0.19350100
vt 0.22603600 0.92176300
vt 0.23698000 0.92248800
vt 0.45121300 0.74035900
vt 0.22992800 0.91558200
vt 0.22059000 0.91487200
vt 0.22783600 0.90853800
vt 0.21725900 0.90732900
vt 0.23743900 0.90965500
vt 0.44382800 0.72861100
vt 0.23743900 0.91605400
vt 0.44681400 0.73457100
vt 0.23148600 0.90180000
vt 0.44201500 0.72235200
vt 0.23652900 0.90309000
vt 0.48006000 0.90838200
vt 0.46739900 0.72177900
vt 0.48010200 0.91286800
vt 0.46881200 0.72619400
vt 0.48402600 0.90444200
vt 0.48532500 0.91115700
vt 0.49199700 0.91015000
vt 0.48945400 0.91716100
vt 0.47316600 0.73410100
vt 0.48196200 0.92077500
vt 0.99651700 0.24290500
vt 0.48414100 0.92524500
vt 0.47659200 0.73865700
vt 0.45757600 0.73527400
vt 0.99322000 0.24179700
vt 0.48039500 0.74188200
vt 0.49489400 0.90275200
vt 0.50435500 0.90097200
vt 0.51055900 0.89965200
vt 0.75638800 0.97180600
vt 0.22544700 0.89405700
vt 0.97023900 0.91318900
vt 0.07450900 0.68099400
vt 0.92844100 0.35839800
vt 0.92844100 0.35839800
f 1/1/1 4/4/4 11/11/11
f 17/17/17 4/4/4 1/1/1
f 3/3/3 9/9/9 15/15/15
f 10/10/10 7/7/7 2/2/2
f 17/17/17 1/1/1 13/13/13
f 16/16/16 14/14/14 22/22/22
f 16/16/16 22/22/22 18/18/18
f 19/19/19 21/21/21 17/17/17
f 17/17/17 21/21/21 4/4/4
f 22/22/22 14/14/14 24/24/24
f 23/23/23 18/18/18 22/22/22
f 24/24/24 23/23/23 22/22/22
f 25/25/25 32/32/32 26/26/26
f 28/28/28 25/25/25 26/26/26
f 23/23/23 24/24/24 30/30/30
f 28/28/28 31/31/31 25/25/25
f 15/15/15 9/9/9 25/25/25
f 37/37/37 32/32/32 25/25/25
f 25/25/25 9/9/9 34/34/34
f 25/25/25 34/34/34 37/37/37
f 41/41/41 39/39/39 38/38/38
f 43/43/43 38/38/38 39/39/39
f 41/41/41 38/38/38 35/35/35
f 38/38/38 40/40/40 33/33/33
f 43/43/43 40/40/40 38/38/38
f 47/47/47 44/44/44 43/43/43
f 44/44/44 40/40/40 43/43/43
f 43/43/43 39/39/39 45/45/45
f 43/43/43 45/45/45 49/49/49
f 43/43/43 49/49/49 47/47/47
f 53/53/53 48/48/48 46/46/46
f 49/49/49 51/51/51 47/47/47
f 53/53/53 50/50/50 48/48/48
f 57/57/57 54/54/54 18/18/18
f 21/21/21 19/19/19 52/52/52
f 56/56/56 54/54/54 57/57/57
f 55/55/55 63/63/63 53/53/53
f 53/53/53 63/63/63 58/58/58
f 53/53/53 58/58/58 50/50/50
f 66/66/66 62/62/62 53/53/53
f 62/62/62 20/20/20 53/53/53
f 67/67/67 66/66/66 53/53/53
f 53/53/53 46/46/46 67/67/67
f 45/45/45 41/41/41 69/69/69
f 65/65/65 68/68/68 42/42/42
f 65/65/65 42/42/42 36/36/36
f 65/65/65 8/8/8 61/61/61
f 65/65/65 36/36/36 8/8/8
f 73/73/73 71/71/71 64/64/64
f 63/63/63 70/70/70 58/58/58
f 72/72/72 64/64/64 56/56/56
f 73/73/73 64/64/64 72/72/72
f 76/76/76 71/71/71 73/73/73
f 74/74/74 73/73/73 72/72/72
f 74/74/74 75/75/75 73/73/73
f 73/73/73 75/75/75 76/76/76
f 78/78/78 76/76/76 77/77/77
f 75/75/75 77/77/77 76/76/76
f 76/76/76 78/78/78 71/71/71
f 70/70/70 79/79/79 83/83/83
f 79/79/79 81/81/81 83/83/83
f 81/81/81 79/79/79 82/82/82
f 79/79/79 86/86/86 82/82/82
f 78/78/78 77/77/77 87/87/87
f 91/91/91 87/87/87 77/77/77
f 91/91/91 90/90/90 87/87/87
f 86/86/86 89/89/89 82/82/82
f 95/95/95 88/88/88 92/92/92
f 77/77/77 94/94/94 91/91/91
f 93/93/93 95/95/95 92/92/92
f 93/93/93 97/97/97 95/95/95
f 97/97/97 98/98/98 95/95/95
f 98/98/98 99/99/99 95/95/95
f 95/95/95 99/99/99 88/88/88
f 100/100/100 110/110/110 82/82/82
f 89/89/89 100/100/100 82/82/82
f 100/100/100 103/103/103 110/110/110
f 103/103/103 100/100/100 106/106/106
f 98/98/98 105/105/105 99/99/99
f 100/100/100 104/104/104 106/106/106
f 110/110/110 81/81/81 82/82/82
f 109/109/109 102/102/102 113/113/113
f 80/80/80 108/108/108 114/114/114
f 111/111/111 114/114/114 108/108/108
f 114/114/114 115/115/115 117/117/117
f 116/116/116 115/115/115 114/114/114
f 118/118/118 116/116/116 114/114/114
f 114/114/114 111/111/111 118/118/118
f 114/114/114 117/117/117 80/80/80
f 124/124/124 121/121/121 119/119/119
f 120/120/120 122/122/122 118/118/118
f 122/122/122 116/116/116 118/118/118
f 125/125/125 118/118/118 111/111/111
f 121/121/121 124/124/124 126/126/126
f 124/124/124 128/128/128 126/126/126
f 128/128/128 124/124/124 107/107/107
f 112/112/112 101/101/101 124/124/124
f 101/101/101 107/107/107 124/124/124
f 128/128/128 129/129/129 133/133/133
f 132/132/132 130/130/130 127/127/127
f 128/128/128 133/133/133 126/126/126
f 127/127/127 106/106/106 132/132/132
f 126/126/126 133/133/133 134/134/134
f 134/134/134 133/133/133 137/137/137
f 133/133/133 129/129/129 135/135/135
f 135/135/135 137/137/137 133/133/133
f 141/141/141 138/138/138 145/145/145
f 138/138/138 141/141/141 143/143/143
f 137/137/137 144/144/144 134/134/134
f 145/145/145 138/138/138 136/136/136
f 145/145/145 136/136/136 147/147/147
f 146/146/146 141/141/141 145/145/145
f 145/145/145 147/147/147 146/146/146
f 146/146/146 147/147/147 148/148/148
f 131/131/131 148/148/148 147/147/147
f 147/147/147 150/150/150 131/131/131
f 136/136/136 150/150/150 147/147/147
f 129/129/129 149/149/149 135/135/135
f 132/132/132 151/151/151 130/130/130
f 98/98/98 148/148/148 131/131/131
f 146/146/146 148/148/148 152/152/152
f 148/148/148 98/98/98 152/152/152
f 159/159/159 152/152/152 98/98/98
f 157/157/157 153/153/153 152/152/152
f 146/146/146 152/152/152 153/153/153
f 157/157/157 152/152/152 159/159/159
f 160/160/160 158/158/158 96/96/96
f 159/159/159 98/98/98 97/97/97
f 155/155/155 158/158/158 160/160/160
f 161/161/161 160/160/160 163/163/163
f 155/155/155 160/160/160 161/161/161
f 160/160/160 164/164/164 163/163/163
f 164/164/164 160/160/160 94/94/94
f 160/160/160 96/96/96 94/94/94
f 94/94/94 77/77/77 164/164/164
f 163/163/163 164/164/164 165/165/165
f 164/164/164 166/166/166 165/165/165
f 77/77/77 166/166/166 164/164/164
f 166/166/166 74/74/74 165/165/165
f 74/74/74 166/166/166 75/75/75
f 77/77/77 75/75/75 166/166/166
f 163/163/163 165/165/165 169/169/169
f 173/173/173 167/167/167 165/165/165
f 169/169/169 165/165/165 167/167/167
f 165/165/165 74/74/74 171/171/171
f 173/173/173 165/165/165 171/171/171
f 29/29/29 173/173/173 171/171/171
f 172/172/172 28/28/28 26/26/26
f 26/26/26 175/175/175 172/172/172
f 172/172/172 175/175/175 168/168/168
f 174/174/174 27/27/27 178/178/178
f 179/179/179 176/176/176 174/174/174
f 168/168/168 175/175/175 177/177/177
f 178/178/178 179/179/179 174/174/174
f 179/179/179 181/181/181 176/176/176
f 181/181/181 179/179/179 180/180/180
f 180/180/180 179/179/179 178/178/178
f 116/116/116 181/181/181 180/180/180
f 181/181/181 122/122/122 183/183/183
f 122/122/122 181/181/181 116/116/116
f 181/181/181 183/183/183 176/176/176
f 182/182/182 186/186/186 156/156/156
f 185/185/185 183/183/183 122/122/122
f 187/187/187 177/177/177 182/182/182
f 182/182/182 156/156/156 187/187/187
f 187/187/187 168/168/168 177/177/177
f 162/162/162 170/170/170 187/187/187
f 170/170/170 168/168/168 187/187/187
f 162/162/162 187/187/187 156/156/156
f 188/188/188 184/184/184 123/123/123
f 189/189/189 154/154/154 186/186/186
f 156/156/156 186/186/186 154/154/154
f 121/121/121 188/188/188 123/123/123
f 134/134/134 144/144/144 188/188/188
f 189/189/189 142/142/142 139/139/139
f 139/139/139 154/154/154 189/189/189
f 188/188/188 121/121/121 134/134/134
f 115/115/115 180/180/180 190/190/190
f 180/180/180 178/178/178 190/190/190
f 116/116/116 180/180/180 115/115/115
f 44/44/44 190/190/190 178/178/178
f 190/190/190 44/44/44 47/47/47
f 115/115/115 190/190/190 191/191/191
f 190/190/190 47/47/47 191/191/191
f 51/51/51 192/192/192 191/191/191
f 117/117/117 191/191/191 192/192/192
f 51/51/51 191/191/191 47/47/47
f 117/117/117 115/115/115 191/191/191
f 192/192/192 51/51/51 60/60/60
f 117/117/117 192/192/192 84/84/84
f 193/193/193 59/59/59 85/85/85
f 33/33/33 178/178/178 27/27/27
f 44/44/44 178/178/178 33/33/33
f 194/194/194 171/171/171 74/74/74
f 194/194/194 29/29/29 171/171/171
f 194/194/194 23/23/23 30/30/30
f 194/194/194 72/72/72 23/23/23
f 74/74/74 72/72/72 194/194/194
f 194/194/194 30/30/30 29/29/29
f 161/161/161 163/163/163 169/169/169
f 140/140/140 146/146/146 153/153/153
f 121/121/121 126/126/126 134/134/134
f 106/106/106 104/104/104 132/132/132
f 98/98/98 131/131/131 105/105/105
f 80/80/80 117/117/117 84/84/84
f 58/58/58 70/70/70 83/83/83
f 57/57/57 23/23/23 72/72/72
f 72/72/72 56/56/56 57/57/57
f 61/61/61 8/8/8 195/195/195
f 62/62/62 196/196/196 20/20/20
f 12/12/12 5/5/5 197/197/197
f 6/6/6 20/20/20 196/196/196
f 10/10/10 198/198/198 7/7/7
f 57/57/57 18/18/18 23/23/23
f 45/45/45 39/39/39 41/41/41
f 40/40/40 44/44/44 33/33/33

