# Blender 4.1.1
# www.blender.org
mtllib link_body_39.mtl
o link_body_39
v -2.490012 0.000001 1.237715
v -2.238082 -0.000002 1.801862
v -2.643393 0.000001 0.630982
v -2.400290 -0.792498 1.228185
v -2.399398 0.791707 1.231607
v -2.165557 -0.723661 1.789871
v -2.165557 0.723661 1.789873
v -0.620491 0.874046 1.488561
v -1.867454 0.382795 2.300042
v -1.810462 0.683938 2.285236
v -1.394615 0.622910 2.693562
v -1.473999 0.317862 2.689549
v -0.966697 0.323037 3.004042
v -1.473938 -0.321851 2.689031
v -1.864715 -0.372753 2.305300
v -0.994263 -0.346888 2.986623
v -1.394615 -0.622911 2.693562
v -0.524101 -0.541696 3.120505
v -0.876152 -0.590836 2.997702
v -0.637657 -0.876987 1.470468
v 0.668411 -0.756445 1.970730
v 1.059600 -0.508365 3.075562
v 5.232068 -0.828399 -1.056212
v 5.165845 -0.606106 -0.338805
v 5.627484 -0.211782 -0.035783
v 2.093977 -0.104947 3.037843
v 5.595166 0.221647 -0.003188
v 2.093977 0.104947 3.037843
v 1.662566 0.000000 3.217481
v -0.480148 0.552702 3.123464
v 1.059600 0.508365 3.075562
v 0.668411 0.756446 1.970730
v 5.165845 0.606108 -0.338805
v 5.232068 0.828401 -1.056212
v 6.217610 0.594792 -1.293454
v 6.095227 0.712649 -2.041152
v -2.443846 0.580457 -1.232956
v -2.584105 0.655807 -0.634989
v -2.626166 0.719893 -0.005470
v -2.695181 -0.000000 -0.000000
v -2.562727 0.757345 0.621076
v -2.643393 0.000001 -0.630983
v -2.490012 0.000001 -1.237715
v -2.585288 -0.655894 -0.630738
v -2.443846 -0.580457 -1.232958
v -2.200209 -0.496216 -1.796880
v 6.095227 -0.712647 -2.041152
v 6.217610 -0.594790 -1.293454
v 6.846478 -0.332966 -2.405713
v 5.303403 -0.445662 -2.874766
v 6.516232 -0.493101 -2.562882
v -1.468543 -0.350533 -2.689199
v -1.872656 -0.414621 -2.285173
v -1.905745 -0.000000 -2.286986
v -1.497313 -0.000000 -2.689199
v -2.240942 -0.000000 -1.796879
v -2.200209 0.496216 -1.796879
v -1.872542 0.414585 -2.285341
v -1.468543 0.350534 -2.689199
v -1.018134 0.124135 -2.993043
v 5.168760 0.174766 -3.282465
v 5.303403 0.445664 -2.874766
v 6.516232 0.493103 -2.562882
v 6.754147 0.253014 -2.772048
v 6.846478 0.332968 -2.405713
v 6.923931 0.000001 -2.526975
v 6.633130 0.185263 -1.607810
v 5.969624 0.000001 -0.352279
v 6.633130 -0.185260 -1.607810
v 6.718808 0.000001 -2.846872
v 6.754147 -0.253012 -2.772048
v 5.528898 0.000001 -3.261259
v 5.131322 -0.169466 -3.289101
v 1.013778 0.000000 -3.184973
v -0.969039 -0.101261 -3.017110
v -2.623831 -0.718421 -0.015786
v -2.573309 -0.751102 0.586198
v -0.874885 0.590608 2.998768
v -1.810462 -0.683938 2.285237
vn -0.8710 0.1112 0.4786
vn -0.9461 -0.0000 0.3239
vn -0.8730 -0.0000 0.4877
vn -0.8710 -0.1111 0.4786
vn -0.9857 0.0009 0.1683
vn -0.9403 -0.1083 0.3225
vn -0.9403 0.1083 0.3226
vn -0.0493 0.9986 0.0214
vn -0.0686 0.9876 0.1412
vn -0.0133 0.9978 0.0656
vn -0.0542 0.9865 0.1545
vn -0.7573 0.0907 0.6467
vn -0.7390 0.1725 0.6513
vn -0.6188 0.0713 0.7823
vn -0.0392 0.9829 0.1797
vn -0.5931 0.1540 0.7903
vn -0.4211 -0.0756 0.9038
vn -0.4017 0.0666 0.9134
vn -0.7565 -0.0883 0.6480
vn -0.6191 -0.0719 0.7820
vn -0.5941 -0.1565 0.7890
vn -0.3839 -0.1445 0.9120
vn -0.1654 -0.0415 0.9853
vn 0.0048 -0.9800 0.1991
vn -0.0394 -0.9829 0.1798
vn -0.0141 -0.9979 0.0639
vn 0.0644 -0.9846 0.1628
vn 0.0458 -0.9723 0.2291
vn 0.1524 -0.9814 0.1169
vn 0.3511 -0.8691 0.3484
vn 0.1380 -0.9576 0.2528
vn 0.3823 -0.8253 0.4156
vn 0.3434 -0.8319 0.4359
vn 0.6657 -0.0063 0.7462
vn 0.5382 -0.0003 0.8428
vn 0.6675 -0.0062 0.7445
vn 0.5383 -0.0000 0.8428
vn 0.2259 -0.5012 0.8353
vn 0.1917 -0.0001 0.9815
vn 0.0603 -0.3341 0.9406
vn 0.3844 -0.0000 0.9232
vn 0.2259 0.5012 0.8353
vn 0.0646 0.3387 0.9387
vn -0.1470 0.0444 0.9881
vn 0.0312 0.9785 0.2040
vn 0.1411 0.9575 0.2516
vn 0.0652 0.9848 0.1612
vn 0.3487 0.8716 0.3445
vn 0.3428 0.8324 0.4354
vn 0.1506 0.9818 0.1154
vn 0.3750 0.8307 0.4114
vn 0.5589 0.7650 0.3201
vn 0.2175 0.9701 -0.1073
vn -0.0295 0.9893 -0.1425
vn -0.0281 0.9929 -0.1155
vn -0.0285 0.9962 -0.0818
vn -0.9952 0.0974 0.0090
vn -0.9844 0.0881 -0.1524
vn -0.9870 0.0011 -0.1608
vn -0.0363 0.9979 -0.0530
vn -1.0000 -0.0002 0.0015
vn -0.9785 0.1065 0.1763
vn -0.9842 -0.0899 -0.1526
vn -0.9454 -0.0000 -0.3260
vn -0.9446 -0.0796 -0.3184
vn -0.9446 0.0797 -0.3183
vn -0.8735 -0.0720 -0.4815
vn -0.0295 -0.9894 -0.1421
vn -0.0307 -0.9852 -0.1685
vn 0.2175 -0.9701 -0.1073
vn -0.0282 -0.9930 -0.1150
vn 0.5581 -0.7651 0.3212
vn 0.7829 -0.6170 0.0796
vn 0.3061 -0.8834 -0.3549
vn -0.0324 -0.9550 -0.2950
vn 0.0329 -0.8911 -0.4525
vn -0.0311 -0.9822 -0.1855
vn -0.8741 -0.0000 -0.4858
vn -0.7690 -0.0000 -0.6393
vn -0.7686 -0.0637 -0.6365
vn -0.6266 -0.0017 -0.7793
vn -0.6319 -0.0519 -0.7733
vn -0.8735 0.0720 -0.4815
vn -0.7686 0.0637 -0.6366
vn -0.0307 0.9852 -0.1685
vn -0.0311 0.9822 -0.1855
vn -0.6359 0.0522 -0.7700
vn -0.0321 0.9553 -0.2940
vn -0.2572 0.3839 -0.8868
vn 0.0496 0.4820 -0.8748
vn 0.0305 0.8930 -0.4491
vn 0.3066 0.8837 -0.3537
vn 0.7829 0.6170 0.0796
vn 0.3584 0.6214 -0.6967
vn 0.9591 -0.0000 0.2829
vn 0.8858 0.2653 0.3808
vn 0.9127 -0.0000 -0.4085
vn 0.8833 0.1693 -0.4372
vn 0.9008 0.3175 -0.2963
vn 0.8858 -0.2653 0.3808
vn 0.8400 0.0038 0.5426
vn 0.7346 0.4692 0.4901
vn 0.6805 -0.0044 0.7327
vn 0.7390 -0.4643 0.4882
vn 0.8833 -0.1693 -0.4372
vn 0.9008 -0.3175 -0.2963
vn 0.8418 -0.0000 -0.5398
vn 0.0426 -0.4664 -0.8836
vn 0.3570 -0.6219 -0.6970
vn 0.3289 -0.0000 -0.9444
vn 0.2537 -0.0107 -0.9672
vn -0.0244 0.0219 -0.9995
vn -0.0373 -0.7619 -0.6466
vn -0.0435 -0.5408 -0.8400
vn -0.3185 0.0288 -0.9475
vn -0.0450 0.5517 -0.8328
vn -0.9951 -0.0989 0.0056
vn -0.0307 -0.9962 -0.0812
vn -0.0507 -0.9986 0.0179
vn -0.9806 -0.1023 0.1675
vn -0.0548 -0.9973 -0.0495
vn -0.0030 0.9821 0.1882
vn -0.3775 0.1475 0.9142
vn -0.0545 -0.9864 0.1552
vn -0.0694 -0.9874 0.1419
vn -0.7399 -0.1715 0.6504
vt 0.972964 0.365721
vt 0.976279 0.370061
vt 0.973160 0.369590
vt 0.973488 0.373071
vt 0.979633 0.370259
vt 0.976618 0.373847
vt 0.976026 0.365801
vt 0.763339 0.704284
vt 0.764759 0.701119
vt 0.774236 0.702424
vt 0.766904 0.698278
vt 0.970267 0.366842
vt 0.970239 0.365158
vt 0.818440 0.820962
vt 0.816280 0.818847
vt 0.817925 0.818380
vt 0.769495 0.695895
vt 0.816781 0.821578
vt 0.822297 0.823942
vt 0.818603 0.824321
vt 0.822104 0.818176
vt 0.821977 0.820774
vt 0.823670 0.821212
vt 0.823688 0.824654
vt 0.823545 0.827002
vt 0.449244 0.762219
vt 0.451061 0.758848
vt 0.457682 0.764174
vt 0.454569 0.772711
vt 0.448469 0.764519
vt 0.470189 0.803610
vt 0.466199 0.802975
vt 0.448318 0.775027
vt 0.464340 0.805883
vt 0.448200 0.781801
vt 0.821346 0.867910
vt 0.822049 0.844504
vt 0.823753 0.867998
vt 0.820888 0.844566
vt 0.821324 0.841668
vt 0.823917 0.837521
vt 0.818295 0.837819
vt 0.817510 0.827614
vt 0.775214 0.693261
vt 0.784941 0.693111
vt 0.782369 0.699390
vt 0.811472 0.710935
vt 0.792166 0.692933
vt 0.811692 0.714946
vt 0.814765 0.708857
vt 0.818358 0.715932
vt 0.817601 0.720130
vt 0.764194 0.717853
vt 0.762997 0.714607
vt 0.762426 0.711158
vt 0.982889 0.366345
vt 0.986391 0.366350
vt 0.986606 0.369837
vt 0.762565 0.707690
vt 0.983120 0.370184
vt 0.979413 0.366199
vt 0.986842 0.373015
vt 0.989958 0.369232
vt 0.990141 0.372060
vt 0.989721 0.366165
vt 0.993225 0.370805
vt 0.473031 0.752660
vt 0.476075 0.754369
vt 0.475402 0.809506
vt 0.469749 0.751620
vt 0.471216 0.810140
vt 0.477166 0.814473
vt 0.478145 0.812351
vt 0.480803 0.759367
vt 0.480163 0.804355
vt 0.478680 0.756621
vt 0.993046 0.368392
vt 0.995751 0.367350
vt 0.995891 0.369370
vt 0.813984 0.873608
vt 0.813945 0.870914
vt 0.816280 0.873388
vt 0.815886 0.870723
vt 0.992866 0.365766
vt 0.995592 0.365158
vt 0.766043 0.720881
vt 0.768390 0.723471
vt 0.812004 0.870723
vt 0.811689 0.873388
vt 0.771157 0.725579
vt 0.813228 0.867746
vt 0.774484 0.727075
vt 0.813173 0.727075
vt 0.813392 0.724866
vt 0.820796 0.722840
vt 0.823110 0.721839
vt 0.822791 0.723864
vt 0.126081 0.984904
vt 0.124231 0.984748
vt 0.124178 0.980361
vt 0.125234 0.986635
vt 0.821808 0.717443
vt 0.126146 0.979847
vt 0.124178 0.973654
vt 0.817622 0.710625
vt 0.128328 0.977766
vt 0.127767 0.983826
vt 0.822688 0.870339
vt 0.125233 0.971806
vt 0.127921 0.985934
vt 0.126712 0.986699
vt 0.482449 0.803231
vt 0.479201 0.813914
vt 0.813921 0.816329
vt 0.815329 0.816090
vt 0.813882 0.824256
vt 0.814818 0.826899
vt 0.812913 0.826650
vt 0.813894 0.854254
vt 0.814473 0.867421
vt 0.482449 0.762687
vt 0.812527 0.816090
vt 0.983467 0.373640
vt 0.466368 0.751256
vt 0.459445 0.752508
vt 0.980152 0.373875
vt 0.463032 0.751479
vt 0.772713 0.694064
vt 0.817156 0.825009
vt 0.453433 0.756185
vt 0.456268 0.753937
vt 0.823843 0.818446
vt 0.823917 0.816090
vt 0.970511 0.370673
s 1
usemtl pleuraldeles_skin
f 7/1/1 1/2/2 2/3/3
f 1/2/2 6/4/4 2/3/3
f 3/5/5 4/6/6 1/2/2
f 5/7/7 3/5/5 1/2/2
f 1/2/2 4/6/6 6/4/4
f 7/1/1 5/7/7 1/2/2
f 5/8/8 7/9/9 8/10/10
f 7/9/9 10/11/11 8/10/10
f 2/3/3 9/12/12 7/1/1
f 10/13/13 7/1/1 9/12/12
f 12/14/14 10/15/13 9/16/12
f 10/11/11 11/17/15 8/10/10
f 10/15/13 12/14/14 11/18/16
f 12/14/14 16/19/17 13/20/18
f 12/14/14 13/20/18 11/18/16
f 15/21/19 12/14/14 9/16/12
f 12/14/14 14/22/20 16/19/17
f 15/21/19 14/22/20 12/14/14
f 16/19/17 14/22/20 17/23/21
f 16/19/17 17/23/21 19/24/22
f 13/20/18 16/19/17 18/25/23
f 16/19/17 19/24/22 18/25/23
f 19/26/24 17/27/25 20/28/26
f 19/26/24 20/28/26 21/29/27
f 18/30/28 19/26/24 21/29/27
f 21/29/27 20/28/26 23/31/29
f 21/29/27 24/32/30 22/33/31
f 18/30/28 21/29/27 22/33/31
f 21/29/27 23/31/29 24/32/30
f 25/34/32 24/32/30 23/31/29
f 26/35/33 24/32/30 25/34/32
f 26/35/33 22/33/31 24/32/30
f 27/36/34 26/37/35 25/38/36
f 27/36/34 28/39/37 26/37/35
f 26/37/38 29/40/39 22/41/40
f 26/37/35 28/39/37 29/40/41
f 29/40/39 28/39/42 31/42/43
f 29/40/39 18/25/23 22/41/40
f 29/40/39 30/43/44 18/25/23
f 30/43/44 29/40/39 31/42/43
f 30/44/45 31/45/46 32/46/47
f 33/47/48 32/46/47 31/45/46
f 31/45/46 28/48/49 33/47/48
f 34/49/50 33/47/48 27/50/51
f 28/48/49 27/50/51 33/47/48
f 33/47/48 34/49/50 32/46/47
f 35/51/52 36/52/53 34/49/50
f 34/49/50 27/50/51 35/51/52
f 37/53/54 34/49/50 36/52/53
f 37/53/54 38/54/55 34/49/50
f 38/54/55 39/55/56 34/49/50
f 39/55/56 8/10/10 34/49/50
f 8/10/10 32/46/47 34/49/50
f 39/56/57 38/57/58 42/58/59
f 41/59/60 8/10/10 39/55/56
f 3/5/5 39/56/57 40/60/61
f 39/56/57 42/58/59 40/60/61
f 3/5/5 41/61/62 39/56/57
f 40/60/61 42/58/59 44/62/63
f 42/58/59 43/63/64 45/64/65
f 37/65/66 43/63/64 42/58/59
f 42/58/59 45/64/65 44/62/63
f 37/65/66 42/58/59 38/57/58
f 43/63/64 46/66/67 45/64/65
f 45/67/68 46/68/69 47/69/70
f 45/67/68 47/69/70 23/31/29
f 44/70/71 45/67/68 23/31/29
f 48/71/72 23/31/29 47/69/70
f 48/71/72 47/69/70 49/72/73
f 49/72/73 47/69/70 51/73/74
f 47/69/70 52/74/75 50/75/76
f 47/69/70 50/75/76 51/73/74
f 47/69/70 53/76/77 52/74/75
f 47/69/70 46/68/69 53/76/77
f 56/77/78 54/78/79 53/79/80
f 54/80/79 55/81/81 53/82/80
f 56/77/78 53/79/80 46/66/67
f 53/82/80 55/81/81 52/83/82
f 43/63/64 56/77/78 46/66/67
f 43/63/64 57/84/83 56/77/78
f 56/77/78 58/85/84 54/78/79
f 56/77/78 57/84/83 58/85/84
f 57/86/85 36/52/53 58/87/86
f 59/88/87 55/81/81 58/89/84
f 58/87/86 36/52/53 59/90/88
f 54/80/79 58/89/84 55/81/81
f 55/81/81 59/88/87 60/91/89
f 60/92/89 59/90/88 61/93/90
f 59/90/88 62/94/91 61/93/90
f 59/90/88 36/52/53 62/94/91
f 36/52/53 63/95/92 62/94/91
f 63/95/92 61/93/90 62/94/91
f 65/96/93 63/95/92 36/52/53
f 63/95/92 64/97/94 61/93/90
f 63/95/92 65/96/93 64/97/94
f 35/51/52 65/96/93 36/52/53
f 66/98/95 65/99/93 67/100/96
f 66/98/97 64/101/98 65/99/99
f 35/51/52 67/102/96 65/96/93
f 66/98/95 67/100/96 69/103/100
f 69/103/100 67/100/96 68/104/101
f 35/51/52 68/105/101 67/102/96
f 69/103/100 48/106/72 49/107/73
f 66/98/95 69/103/100 49/107/73
f 68/104/101 48/106/72 69/103/100
f 35/51/52 27/50/102 68/105/101
f 68/108/103 27/36/34 25/38/36
f 48/106/72 68/104/101 25/109/104
f 71/110/105 66/98/97 49/107/106
f 71/110/105 70/111/107 66/98/97
f 66/98/97 70/111/107 64/101/98
f 51/73/74 73/112/108 71/113/109
f 51/73/74 71/113/109 49/72/73
f 70/114/110 71/115/109 72/116/111
f 72/116/111 71/115/109 73/117/108
f 51/73/74 50/75/76 73/112/108
f 50/75/76 52/74/75 73/112/108
f 73/117/108 61/118/90 72/116/111
f 74/119/112 61/118/90 73/117/108
f 75/120/113 74/119/114 73/117/108
f 52/74/75 75/121/113 73/112/108
f 75/120/115 52/83/82 55/81/81
f 75/120/115 60/91/89 74/119/116
f 55/81/81 60/91/89 75/120/115
f 74/119/116 60/91/89 61/118/90
f 64/122/94 72/116/111 61/118/90
f 70/114/110 72/116/111 64/122/94
f 43/63/64 37/65/66 57/84/83
f 57/86/85 37/53/54 36/52/53
f 25/34/32 23/31/29 48/71/72
f 40/60/61 44/62/63 76/123/117
f 76/124/118 44/70/71 23/31/29
f 4/125/119 76/124/118 20/28/26
f 20/28/26 76/124/118 23/31/29
f 40/60/61 76/123/117 77/126/120
f 76/124/118 4/125/119 77/127/121
f 3/5/5 77/126/120 4/6/6
f 40/60/61 77/126/120 3/5/5
f 5/7/7 41/61/62 3/5/5
f 5/8/8 8/10/10 41/59/60
f 78/128/122 32/46/47 8/10/10
f 78/128/122 30/44/45 32/46/47
f 11/18/16 13/20/18 78/129/123
f 11/17/15 78/128/122 8/10/10
f 13/20/18 30/43/44 78/129/123
f 18/25/23 30/43/44 13/20/18
f 79/130/124 6/131/125 20/28/26
f 17/27/25 79/130/124 20/28/26
f 6/131/125 4/125/119 20/28/26
f 15/21/19 79/132/126 14/22/20
f 6/133/4 79/132/126 15/21/19
f 79/132/126 17/23/21 14/22/20
f 15/134/19 2/3/3 6/4/4
f 9/12/12 2/3/3 15/134/19
