# ('FARMS composite mesh',)
v -1.69781100 -7.82521900 1.27271500
v -1.46032800 -7.76620500 -0.62577200
v -1.28506300 -7.61723400 -1.31982600
v 1.11190900 -8.08354700 -1.26796800
v 1.69636700 -8.19012200 -0.78154000
v -0.45950000 -8.28005300 0.17111900
v 1.95392000 -8.20797500 -0.07041700
v 1.49435300 -8.31224300 0.43793900
v -0.54737600 -8.18505100 1.42384100
v 0.23517900 -8.35418500 1.20456600
v -2.04568200 -7.59760000 0.06909100
v -2.15868500 -7.59953000 0.70808200
v 0.05115600 -2.74170800 -1.83664200
v 1.44960400 -4.81108400 -1.68277700
v -1.66404000 -4.12353800 -1.50051900
v 0.09447400 -1.00052700 -1.09229800
v 0.86680800 -1.93346100 -1.22952600
v -0.59168400 -1.37007300 -1.19260900
v -0.35222100 -0.25455400 -0.47123700
v -1.07730700 -1.27445700 -0.80205300
v -1.60122700 -1.97781300 -0.26364000
v -1.99083500 -3.86555200 -0.87159600
v -0.75462000 -0.36910600 0.00263500
v -0.04372400 -0.00908500 -0.01770100
v -0.40751300 -0.39074800 0.63985400
v -1.37536600 -1.53766700 0.55767700
v -1.00824300 -1.58268100 1.07370600
v -2.15889500 -3.98479600 0.27642700
v -1.95514500 -3.84871600 0.83900800
v -1.51197100 -3.49775600 1.40341300
v -0.75812800 -4.81693400 1.30992100
v -0.29455100 -2.72128700 1.78905500
v 0.09374900 -4.08476500 1.33754100
v -1.31306700 -4.89830200 1.01795300
v -1.69904700 -6.76120500 0.93046600
v -1.69781100 -7.82521900 1.27271500
v -1.62541400 -4.92675100 0.60652900
v -1.84528300 -6.80547600 0.17104300
v -2.12948000 -3.92175400 -0.36109200
v -1.71915900 -5.14065700 -0.25425300
v -1.38700600 -6.06801600 -0.70542100
v -1.46032800 -7.76620500 -0.62577200
v -1.29365600 -6.67061700 -1.26171600
v -1.22932500 -7.18832400 -1.27511000
v -1.28506300 -7.61723400 -1.31982600
v 1.11190900 -8.08354700 -1.26796800
v 1.89814500 -6.66316900 -1.05960700
v 1.69636700 -8.19012200 -0.78154000
v 1.68755600 -5.72452300 -1.41811400
v 1.99911100 -4.87525000 -1.00809600
v 2.21522700 -6.65273000 -0.34269800
v 1.95392000 -8.20797500 -0.07041700
v 1.97399400 -5.18759700 -0.24316900
v 1.93698200 -7.09044400 0.35230300
v 1.49435300 -8.31224300 0.43793900
v 0.21259500 -7.70890200 1.40936400
v 0.99077300 -4.93078200 0.84640400
v 0.87654100 -2.62065100 1.44334400
v 1.74913700 -3.06276200 0.43464100
v 1.89719300 -3.62890800 -0.14686300
v 1.41337100 -2.08336800 -0.57303800
v 1.09894500 -1.05142900 0.10225200
v 0.48163500 -0.46549700 -0.52621800
v 0.77690600 -0.63876700 0.46145600
v 0.06025400 -0.11815200 0.36089000
v 1.38165400 -2.85606100 0.97002300
v 0.16259300 -0.95163700 1.13153200
v -0.54737600 -8.18505100 1.42384100
v 0.23517900 -8.35418500 1.20456600
v -2.04568200 -7.59760000 0.06909100
v -2.15868500 -7.59953000 0.70808200
vn -0.35908685 -0.93298776 -0.02429970
vn -0.32133479 -0.92686268 -0.19408637
vn -0.21264600 -0.93115076 -0.29620928
vn -0.08085737 -0.97191479 -0.22100616
vn 0.00853272 -0.99236864 -0.12301085
vn -0.19963372 -0.97297890 -0.11601051
vn 0.14034150 -0.98721171 -0.07561289
vn 0.00353686 -0.99507489 -0.09906283
vn -0.25609639 -0.96507257 0.05522302
vn -0.08632966 -0.99604877 -0.02083346
vn -0.38597928 -0.91924964 -0.07746029
vn -0.37008709 -0.92648687 -0.06824677
vn 0.02244014 0.18494312 -0.98249299
vn 0.42677971 0.03684430 -0.90360477
vn -0.63494504 -0.05054719 -0.77090193
vn 0.13016989 0.52335396 -0.84211427
vn 0.56847169 0.36071717 -0.73940723
vn -0.33674855 0.42053032 -0.84246939
vn -0.27776282 0.78837874 -0.54891418
vn -0.70898483 0.46399165 -0.53108594
vn -0.92219011 0.35356346 -0.15671082
vn -0.92521225 0.01875282 -0.37898632
vn -0.69297491 0.72091819 0.00792072
vn 0.06100705 0.99567501 -0.07006724
vn -0.37013359 0.70595722 0.60384230
vn -0.84872739 0.42669078 0.31240485
vn -0.54224038 0.40743343 0.73482881
vn -0.98339469 -0.13263600 0.12386516
vn -0.86703215 -0.04849392 0.49588667
vn -0.55619124 0.00040286 0.83105424
vn -0.19280347 -0.03922701 0.98045299
vn -0.04860903 0.05660872 0.99721242
vn 0.17817147 -0.15004228 0.97249280
vn -0.63121862 -0.08935909 0.77044013
vn -0.89837802 0.20270531 0.38965046
vn -0.43722195 0.11558279 0.89189550
vn -0.91406466 -0.14852685 0.37739313
vn -0.96565640 0.16832234 -0.19792754
vn -0.98904735 -0.05811229 -0.13567723
vn -0.97989961 -0.16682357 -0.10939217
vn -0.95969082 -0.09069497 -0.26602246
vn -0.90186729 0.09078681 -0.42236612
vn -0.69190850 -0.04338581 -0.72068044
vn -0.56101422 -0.01488932 -0.82767225
vn -0.61516007 0.16041711 -0.77190960
vn 0.30973976 -0.16495087 -0.93640402
vn 0.78625962 -0.11988624 -0.60615435
vn 0.79813764 -0.22004455 -0.56085355
vn 0.66727864 -0.10036778 -0.73801458
vn 0.93306656 0.10763487 -0.34322228
vn 0.99975815 -0.02185694 -0.00243411
vn 0.95481451 -0.22560089 0.19347735
vn 0.92089021 0.11050462 0.37383144
vn 0.77773937 -0.03297583 0.62772133
vn 0.62580656 -0.18902838 0.75672612
vn 0.29608882 -0.09328014 0.95059467
vn 0.61600068 -0.01840261 0.78753064
vn 0.52843332 0.12238202 0.84010765
vn 0.93777218 0.08943769 0.33553574
vn 0.98721921 0.07956873 0.13808348
vn 0.88270508 0.33672190 -0.32779582
vn 0.88201473 0.47098828 0.01483438
vn 0.52212008 0.70601702 -0.47846691
vn 0.68940564 0.62212128 0.37105926
vn 0.18968446 0.89186759 0.41059956
vn 0.76875570 0.09131770 0.63298953
vn 0.18545993 0.48710895 0.85342222
vn 0.00357497 -0.05473683 0.99849442
vn 0.38453737 -0.26699341 0.88365464
vn -0.85316796 0.27304828 -0.44446493
vn -0.90015825 0.31271025 0.30319535
f 6//6 4//4 5//5
f 3//3 4//4 6//6
f 6//6 10//10 9//9
f 10//10 5//5 8//8
f 5//5 10//10 6//6
f 1//1 6//6 9//9
f 5//5 7//7 8//8
f 1//1 11//11 6//6
f 6//6 11//11 2//2
f 3//3 6//6 2//2
f 12//12 11//11 1//1
f 17//17 14//14 13//13
f 13//13 14//14 15//15
f 18//18 13//13 15//15
f 18//18 16//16 13//13
f 17//17 13//13 16//16
f 20//20 18//18 15//15
f 19//19 18//18 20//20
f 16//16 18//18 19//19
f 15//15 22//22 20//20
f 23//23 20//20 21//21
f 22//22 21//21 20//20
f 19//19 20//20 23//23
f 24//24 23//23 25//25
f 24//24 19//19 23//23
f 23//23 21//21 26//26
f 25//25 23//23 26//26
f 30//30 27//27 26//26
f 26//26 27//27 25//25
f 28//28 26//26 21//21
f 28//28 29//29 26//26
f 29//29 30//30 26//26
f 34//34 31//31 30//30
f 31//31 33//33 30//30
f 34//34 30//30 29//29
f 32//32 30//30 33//33
f 30//30 32//32 27//27
f 37//37 35//35 34//34
f 34//34 35//35 36//36
f 36//36 31//31 34//34
f 29//29 37//37 34//34
f 37//37 40//40 38//38
f 38//38 35//35 37//37
f 29//29 28//28 37//37
f 37//37 28//28 39//39
f 37//37 39//39 40//40
f 40//40 22//22 15//15
f 22//22 40//40 39//39
f 38//38 40//40 41//41
f 40//40 15//15 41//41
f 41//41 15//15 43//43
f 42//42 41//41 43//43
f 41//41 42//42 38//38
f 43//43 14//14 44//44
f 44//44 42//42 43//43
f 45//45 44//44 46//46
f 14//14 46//46 44//44
f 49//49 47//47 46//46
f 46//46 47//47 48//48
f 46//46 14//14 49//49
f 49//49 14//14 50//50
f 50//50 51//51 49//49
f 47//47 49//49 51//51
f 52//52 48//48 51//51
f 51//51 54//54 52//52
f 51//51 50//50 53//53
f 48//48 47//47 51//51
f 51//51 53//53 54//54
f 55//55 54//54 56//56
f 52//52 54//54 55//55
f 56//56 54//54 57//57
f 54//54 53//53 57//57
f 57//57 66//66 58//58
f 33//33 57//57 58//58
f 57//57 60//60 59//59
f 60//60 57//57 53//53
f 33//33 56//56 57//57
f 50//50 60//60 53//53
f 50//50 61//61 60//60
f 60//60 61//61 59//59
f 62//62 61//61 63//63
f 59//59 61//61 62//62
f 17//17 63//63 61//61
f 50//50 17//17 61//61
f 19//19 24//24 63//63
f 24//24 64//64 63//63
f 63//63 17//17 16//16
f 63//63 16//16 19//19
f 64//64 62//62 63//63
f 64//64 24//24 65//65
f 65//65 67//67 64//64
f 64//64 66//66 59//59
f 67//67 66//66 64//64
f 59//59 62//62 64//64
f 67//67 25//25 27//27
f 25//25 67//67 65//65
f 32//32 58//58 67//67
f 67//67 27//27 32//32
f 58//58 66//66 67//67
f 25//25 65//65 24//24
f 58//58 32//32 33//33
f 31//31 68//68 56//56
f 68//68 69//69 56//56
f 69//69 55//55 56//56
f 56//56 33//33 31//31
f 36//36 68//68 31//31
f 50//50 14//14 17//17
f 38//38 70//70 71//71
f 42//42 70//70 38//38
f 71//71 36//36 35//35
f 35//35 38//38 71//71
f 21//21 39//39 28//28
f 39//39 21//21 22//22
f 43//43 15//15 14//14
f 44//44 45//45 42//42
f 57//57 59//59 66//66

