# https://github.com/mikedh/trimesh
mtllib material.mtl
usemtl material_0
v 0.06515100 0.00000000 -0.01949000
v -0.04654300 0.00000000 -0.02155000
v 0.07317100 -0.02468200 0.01949000
v -0.03765400 -0.02735700 0.02155000
v 0.07317100 0.02468200 0.01949000
v -0.03765400 0.02735700 0.02155000
v 0.07177000 0.00000000 -0.02865500
v 0.08246100 0.00000000 -0.03707200
v -0.03920700 0.00000000 -0.03168400
v 0.08442100 -0.03364200 -0.02189100
v 0.07483400 -0.02347400 -0.02291200
v -0.03581100 -0.02601800 -0.02533400
v 0.06812600 -0.01121400 -0.02189100
v -0.04324500 -0.01242900 -0.02420400
v 0.06812600 0.01121400 -0.02189100
v 0.07483400 0.02347400 -0.02291200
v -0.04324500 0.01242900 -0.02420400
v 0.08442100 0.03364200 -0.02189100
v -0.03581100 0.02601800 -0.02533400
v 0.06673500 -0.02079200 0.01094500
v 0.06249200 -0.01450800 -0.00000000
v 0.06223100 -0.00693000 -0.01094500
v -0.04478800 -0.02304500 0.01210200
v -0.04949000 -0.01608000 -0.00000000
v -0.04978000 -0.00768200 -0.01210200
v 0.08667300 -0.04057200 -0.01094500
v -0.02268800 -0.04497000 -0.01210200
v 0.07954700 -0.03798200 0.00000000
v -0.03058600 -0.04209900 0.00000000
v 0.07488200 -0.03200600 0.01094500
v -0.03575800 -0.03547400 0.01210200
v 0.07488200 0.03200600 0.01094500
v -0.03575800 0.03547400 0.01210200
v 0.07954700 0.03798200 -0.00000000
v -0.03058600 0.04209900 -0.00000000
v -0.02268800 0.04497000 -0.01210200
v 0.08667300 0.04057200 -0.01094500
v 0.06223100 0.00693000 -0.01094500
v -0.04978000 0.00768200 -0.01210200
v -0.04949000 0.01608000 0.00000000
v -0.04478800 0.02304500 0.01210200
v 0.06249200 0.01450800 0.00000000
v 0.06673500 0.02079200 0.01094500
v -0.01367900 -0.04209800 0.02533400
v 0.09480200 -0.03798200 0.02291200
v 0.08216900 -0.03200600 0.02189100
v -0.02768000 -0.03547400 0.02420400
v -0.04229200 -0.01536300 0.02420400
v -0.04426500 0.00000000 0.02533400
v 0.06898700 -0.01386100 0.02189100
v -0.04229200 0.01536300 0.02420400
v 0.06720600 0.00000000 0.02291200
v -0.02768000 0.03547400 0.02420400
v 0.06898700 0.01386100 0.02189100
v -0.01367900 0.04209800 0.02533400
v 0.08216900 0.03200600 0.02189100
v 0.09480200 0.03798200 0.02291200
v -0.02213200 -0.01608000 0.04099000
v 0.08717500 -0.01450800 0.03707200
v -0.03171900 -0.02304500 0.03168400
v 0.07852600 -0.02079200 0.02865500
v 0.08717500 0.01450800 0.03707200
v -0.02213200 0.01608000 0.04099000
v -0.03171900 0.02304500 0.03168400
v 0.07852600 0.02079200 0.02865500
v 0.09015700 0.02759500 0.03153600
v 0.08614700 0.00000000 0.03898000
v -0.01882700 0.03058600 0.03486900
v -0.02327100 0.00000000 0.04310000
v 0.07564900 0.00762700 0.03153500
v -0.03490700 0.00845400 0.03486900
v 0.07564900 -0.00762700 0.03153500
v -0.03490700 -0.00845400 0.03486900
v -0.01882700 -0.03058600 0.03486900
v 0.09015700 -0.02759500 0.03153600
v 0.09263500 0.04465100 -0.00000000
v -0.01608000 0.04949000 -0.00000000
v 0.08614700 0.03993700 0.01204600
v -0.02327200 0.04426500 0.01331900
v -0.04929000 0.00845400 0.01331900
v 0.06267300 0.00762700 0.01204600
v 0.06019400 -0.00000000 0.00000000
v -0.05203700 -0.00000000 0.00000000
v -0.04929000 -0.00845400 0.01331900
v 0.06267300 -0.00762700 0.01204600
v -0.02327200 -0.04426500 0.01331900
v -0.01608000 -0.04949000 -0.00000000
v 0.08614700 -0.03993700 0.01204600
v -0.04209900 0.03058600 -0.00000000
v 0.09263500 -0.04465100 -0.00000000
v -0.03490700 0.03581100 -0.01331900
v -0.04484500 0.02213200 -0.01331900
v 0.06916100 0.02759600 -0.00000000
v 0.07564900 0.03231000 -0.01204600
v -0.04209900 -0.03058600 0.00000000
v -0.04484500 -0.02213200 -0.01331900
v 0.06668300 0.01996800 -0.01204600
v -0.03490700 -0.03581100 -0.01331900
v 0.06916100 -0.02759600 0.00000000
v 0.06668300 -0.01996800 -0.01204600
v -0.03321000 0.01367900 -0.03486800
v -0.03321000 -0.01367900 -0.03486800
v 0.07564900 -0.03231000 -0.01204600
v 0.08614700 0.02468200 -0.03153500
v 0.07718100 0.01234100 -0.03153500
v 0.07718100 -0.01234100 -0.03153500
v 0.08614700 -0.02468200 -0.03153500
v -0.01604600 -0.01332600 -0.03528000
v -0.02195600 -0.00262000 -0.03663200
v -0.02855500 -0.02621800 -0.03094300
v 0.00373000 -0.05093100 0.00221900
v -0.00093400 -0.04501500 -0.01545600
v 0.04483000 -0.03321800 -0.02692900
v 0.02149200 -0.04101300 -0.02043000
v 0.04417600 -0.04719700 -0.01053800
v 0.03265000 -0.04996800 -0.00209100
v 0.01221000 -0.02003600 -0.03346100
v 0.04187500 -0.00554500 -0.03673000
v 0.04791700 -0.02687800 -0.03077100
v 0.07764800 -0.04679400 -0.00801500
v 0.08718100 -0.03473000 -0.02532800
v 0.09703500 -0.04691500 -0.00136400
v 0.08283100 -0.04176700 -0.01774800
v 0.01410100 -0.04676100 0.01874200
v 0.00036800 -0.04279900 0.02513200
v 0.02018600 -0.03858100 0.02883800
v 0.01675100 -0.03191800 0.03419600
v 0.01727100 -0.02103600 0.03943800
v 0.00122000 -0.01135100 0.04238500
v 0.00975000 -0.05038300 0.00868700
v 0.04254200 -0.04858600 0.01190000
v 0.04017300 -0.02530600 0.03668100
v 0.04012200 -0.00377000 0.04198500
v 0.06683700 -0.04887100 0.00456500
v 0.05117200 -0.04281300 0.02224400
v 0.08389200 -0.03189300 0.03048900
v 0.06957100 -0.00980900 0.04012400
v 0.08157200 -0.01666400 0.03801000
v 0.07758400 -0.04537200 0.01516600
v 0.09018900 -0.02439200 0.03453100
v 0.09667500 -0.03514800 0.02688400
v -0.00327400 0.02065300 -0.03328300
v 0.02164200 0.00644700 -0.03637400
v 0.00402300 0.03759900 -0.02364500
v 0.01261800 0.05068800 0.00015800
v 0.02449600 0.04862600 -0.00804800
v -0.01094900 0.03054100 -0.02866000
v 0.05864100 0.03540100 -0.02533100
v 0.00314900 0.04584300 -0.01404200
v 0.04453100 0.04257900 -0.01813200
v 0.07264600 0.04514000 -0.01289900
v 0.03685700 0.01568700 -0.03492500
v 0.06530700 0.02436500 -0.03209800
v 0.04389700 0.04990500 0.00377700
v 0.06525800 0.04847700 -0.00371600
v 0.08438500 0.04151800 -0.01796600
v 0.09642200 0.04696500 0.00047100
v 0.00493000 0.00326700 0.04323900
v -0.00832000 0.01448300 0.04198600
v 0.01970400 0.02330100 0.03847700
v 0.03364600 0.03422400 0.03179600
v 0.06228000 0.01440000 0.03956300
v 0.01333900 0.04688400 0.01854700
v 0.02752300 0.04248700 0.02432600
v 0.08405900 0.02632300 0.03403900
v 0.07839600 0.00701400 0.04014600
v 0.04030000 0.04863400 0.01196400
v 0.07259900 0.04425100 0.01801600
v 0.08711700 0.04706000 0.00773400
v 0.05969600 0.03891600 0.02619300
v 0.10035600 0.04436800 0.01315000
v 0.08478900 -0.01234100 -0.03590000
v 0.08488700 -0.01039900 -0.03635100
v 0.08665400 -0.01802900 -0.03459900
v 0.08641100 -0.02491700 -0.03146000
v 0.08623600 -0.02467400 -0.03157200
v 0.08622200 -0.02445300 -0.03167400
v 0.08704400 -0.02563900 -0.03112600
v 0.08665500 -0.01841900 -0.03443700
v 0.09354500 -0.03968000 -0.01936900
v 0.09373000 -0.03997400 -0.01899200
v 0.09535100 -0.04100800 -0.01757900
v 0.10368400 -0.04624700 -0.00179500
v 0.10251800 -0.04591400 -0.00352500
v 0.09136200 -0.03332800 -0.02617600
v 0.09147200 -0.03364200 -0.02593500
v 0.09217600 -0.03448100 -0.02527400
v 0.10081200 -0.04079100 0.01932400
v 0.10190600 -0.04202400 0.01731800
v 0.08972800 -0.00275900 0.03988800
v 0.09029500 -0.00640100 0.03952500
v 0.09041600 -0.00986600 0.03902200
v 0.09093800 -0.01545500 0.03778300
v 0.09006600 -0.01240700 0.03848900
v 0.09997100 -0.04442900 0.01204600
v 0.10002500 -0.04393300 0.01321500
v 0.10005300 -0.04449200 0.01187500
v 0.09809200 -0.03509500 0.02675600
v 0.09791800 -0.03549000 0.02631700
v 0.09137000 -0.01686800 0.03733400
v 0.09344000 -0.02390100 0.03452000
v 0.09095600 -0.01603900 0.03760700
v 0.08593300 0.01821200 -0.03411000
v 0.08503900 0.01254300 -0.03595900
v 0.09058700 0.03155900 -0.02744000
v 0.08745000 0.02630800 -0.03071200
v 0.09198300 0.03519000 -0.02426300
v 0.09370800 0.03968900 -0.01951000
v 0.09361800 0.03958200 -0.01962600
v 0.10066800 0.04529200 -0.00736100
v 0.09832700 0.04447200 -0.01036800
v 0.09870000 0.04482300 -0.00919400
v 0.10248800 0.04598500 -0.00264300
v 0.10303800 0.04629300 0.00005200
v 0.10298900 0.04629100 -0.00000000
v 0.08627500 0.02467100 -0.03158900
v 0.08633400 0.02410600 -0.03188300
v 0.08639700 0.02490500 -0.03146400
v 0.08660300 0.02261700 -0.03265800
v 0.09011400 0.01237200 0.03851300
v 0.09022100 0.01196600 0.03861700
v 0.09052700 0.01590200 0.03752800
v 0.09049900 0.01585400 0.03754300
v 0.09340800 0.02442900 0.03424400
v 0.09934300 0.03921700 0.02186500
v 0.09856000 0.03849700 0.02287300
v 0.09852300 0.03868400 0.02263500
v 0.09753600 0.03401000 0.02763400
v 0.09722700 0.03324000 0.02828400
v 0.09388700 0.02579600 0.03356600
v 0.09408200 0.02887100 0.03153600
v 0.09496800 0.02998900 0.03072900
v 0.09055600 0.00731900 0.03947700
v 0.08989400 0.00416200 0.03972800
v 0.10301300 0.04550500 0.00748500
v 0.10322600 0.04617600 0.00144800
v 0.10057300 0.04465100 0.01192200
v 0.10056400 0.04462100 0.01204600
v 0.10178600 0.04427700 0.01293100
v 0.10102400 0.04446000 0.01250700
v 0.10060500 0.04459400 0.01213800
v 0.10185500 0.04410700 0.01335100
v 0.10106000 0.04185700 0.01739500
v 0.09346500 0.02519200 0.03388200
v 0.08356600 0.00148200 -0.03737300
v 0.08342400 -0.00082700 -0.03737700
v 0.08321600 0.00000000 -0.03737100
v 0.08485900 -0.00742400 -0.03694000
v 0.09847500 -0.04461600 -0.00987800
v 0.09605200 -0.04180500 -0.01599500
v 0.09767900 -0.04414800 -0.01094500
v 0.08347400 -0.00162500 -0.03732300
v 0.09333800 -0.03940100 -0.01969400
v 0.09860000 -0.04482000 -0.00904100
v 0.09703600 -0.03840300 0.02274600
v 0.09714600 -0.03663400 0.02496100
v 0.10268200 -0.04549000 0.00713400
v 0.10011100 -0.04465100 0.01122900
v 0.10280600 -0.04617000 0.00087300
v 0.09564100 -0.03066300 0.03028600
v 0.09804200 -0.03486100 0.02696600
v 0.09340200 -0.02449400 0.03421000
v 0.09395200 -0.02882900 0.03153600
v 0.09317800 -0.02540100 0.03367800
v 0.08355200 0.00175000 -0.03734200
v 0.08480800 0.00959900 -0.03646800
v 0.09094700 0.03364200 -0.02563400
v 0.09683100 0.04253600 -0.01466600
v 0.09530100 0.04096600 -0.01765000
v 0.08495200 0.01234100 -0.03599400
v 0.09385100 0.03996400 -0.01913000
v 0.09792000 0.04422700 -0.01094500
v 0.08938200 -0.00195700 0.03988500
v 0.08912400 0.00180100 0.03981200
v 0.09710300 0.03665900 0.02492400
v 0.10174100 0.04408800 0.01340300
v 0.10266600 -0.04624000 -0.00000000
v -0.02495500 0.03799300 -0.02309300
v -0.02152800 0.04150500 -0.01979400
v -0.02077500 0.04254800 -0.01855500
v -0.02107300 0.04203000 -0.01924500
v -0.01987900 0.04473100 -0.01529800
v -0.01961800 -0.04470900 -0.01559500
v -0.01889500 -0.04512400 -0.01509600
v -0.01745100 -0.04667100 -0.01210200
v -0.01712700 0.04663600 -0.01249100
v -0.01699200 0.04682100 -0.01210200
v -0.02107900 0.01531500 0.04150500
v -0.02135200 0.01639600 0.04110000
v -0.01582000 0.02976400 0.03607900
v -0.01602400 0.02927600 0.03636300
v -0.01650900 0.02890200 0.03650800
v -0.01626000 0.03142000 0.03486900
v -0.01682600 0.02796300 0.03686900
v -0.01065000 0.04267000 0.02510900
v -0.01188400 0.04106600 0.02689900
v -0.01135800 0.03966200 0.02842500
v -0.01150500 0.03826600 0.02973200
v -0.02038300 0.01413800 0.04195200
v -0.02096600 0.01007900 0.04237300
v -0.02305700 0.00013000 0.04316000
v -0.02296000 -0.00018800 0.04318700
v -0.02158700 -0.00226700 0.04337300
v -0.02048500 -0.01476600 0.04181400
v -0.02053100 -0.01491600 0.04177400
v -0.02098200 -0.00478100 0.04320300
v -0.02037500 -0.01631600 0.04138500
v -0.02046200 -0.01675700 0.04122600
v -0.01761200 -0.02673900 0.03721100
v -0.01869300 -0.03048800 0.03496400
v -0.01777400 -0.02350100 0.03877600
v -0.01863800 -0.03064800 0.03486900
v -0.01271000 -0.03564800 0.03188900
v -0.01178200 -0.03943000 0.02851700
v -0.01234600 -0.04133200 0.02649600
v -0.01191300 -0.03717100 0.03066400
v -0.01120400 -0.04256500 0.02515000
v -0.01100100 -0.04240600 0.02538000
v -0.00319200 0.05090600 0.00591200
v -0.00563700 0.05003000 0.01049600
v -0.00566400 0.05003100 0.01049000
v -0.00036200 0.05092100 0.00583100
v -0.00002900 0.05091200 0.00587400
v -0.00002900 0.05036000 0.00876000
v -0.00951400 0.05053000 -0.00000000
v -0.01254900 0.04959000 -0.00533900
v -0.01153600 0.04979800 -0.00478900
v -0.00911700 0.05041800 -0.00203600
v -0.00743300 0.04921400 0.01376700
v -0.00597900 0.04504300 0.02197200
v -0.00617800 0.04882900 0.01483700
v -0.00674100 0.04908600 0.01419900
v -0.00750600 0.04390700 0.02367200
v -0.00736100 0.04955300 0.01246300
v -0.00758700 0.04949000 0.01272500
v -0.00766400 0.04933600 0.01331900
v -0.01498500 0.04793600 -0.00973800
v -0.00857000 -0.04904200 0.01331900
v -0.00824600 -0.04949000 0.01173900
v -0.00810700 -0.04844600 0.01501500
v -0.00842900 -0.04896000 0.01360800
v -0.00753700 -0.04456100 0.02243900
v -0.00471800 -0.04733300 0.01804100
v -0.00700200 -0.04803900 0.01608500
v -0.01345900 -0.04875600 -0.00808700
v -0.01224800 -0.04948000 -0.00639900
v -0.01241900 -0.04931700 -0.00694700
v -0.01227900 -0.04959800 -0.00574800
v -0.01000000 -0.05045300 -0.00000000
v -0.01180600 -0.04974400 -0.00492000
v -0.00584300 -0.05070100 0.00387900
v -0.00631100 -0.05080500 0.00219800
v -0.00536100 -0.05021600 0.00919000
v -0.02553900 0.03723400 -0.02380700
v -0.02560000 0.03703600 -0.02399300
v -0.02577100 0.03666600 -0.02426700
v -0.02557600 -0.03722800 -0.02376500
v -0.02573200 -0.03670700 -0.02426200
v -0.02492600 -0.03808200 -0.02295200
v -0.02279400 -0.04029300 -0.02085200
v -0.02036800 -0.04362200 -0.01692000
v -0.02901500 0.02674400 -0.03050100
v -0.02713100 0.03049600 -0.02870700
v -0.02622200 0.03439700 -0.02594100
v -0.03271100 0.01367900 -0.03515400
v -0.03242800 0.01457500 -0.03494300
v -0.03236500 0.01484200 -0.03486800
v -0.02914400 0.02586900 -0.03091900
v -0.02985400 0.02130800 -0.03306600
v -0.03264300 0.01235500 -0.03546100
v -0.03229000 0.01003900 -0.03599600
v -0.03287400 0.00296100 -0.03632700
v -0.03298000 0.00000000 -0.03657400
v -0.03242400 -0.00402400 -0.03656200
v -0.03251900 -0.01206400 -0.03559100
v -0.03243500 -0.00224000 -0.03675200
v -0.03239800 -0.01292800 -0.03548500
v -0.03253400 -0.01367900 -0.03525500
v -0.03229900 -0.01493200 -0.03486800
v -0.03184200 -0.01623300 -0.03446600
v -0.02886000 -0.02625500 -0.03092200
v -0.02886200 -0.02676000 -0.03061700
v -0.02886000 -0.02620400 -0.03095200
v -0.02594500 -0.03483700 -0.02578000
v -0.02882600 -0.02686300 -0.03055600
v -0.02570500 -0.03622600 -0.02472300
v -0.02576700 -0.03533800 -0.02547700
v -0.00002900 0.05083200 0.00695300
v -0.00002900 0.05090400 0.00653100
f 2 14 25
f 279 36 280
f 27 284 285
f 2 25 39
f 36 286 282
f 47 60 4
f 6 51 64
f 289 63 288
f 290 68 292
f 63 294 68
f 64 63 68
f 296 295 55
f 55 68 298
f 68 55 53
f 53 64 68
f 64 53 6
f 69 301 300
f 64 71 63
f 301 69 302
f 306 303 69
f 71 69 63
f 71 73 69
f 69 73 58
f 73 60 58
f 71 64 51
f 71 51 49
f 71 49 73
f 49 48 73
f 60 73 48
f 60 48 4
f 58 307 305
f 58 60 74
f 58 309 311
f 310 74 312
f 60 47 74
f 74 47 44
f 44 313 74
f 315 317 318
f 324 319 320
f 325 328 327
f 329 295 330
f 77 335 334
f 79 335 77
f 79 329 336
f 53 55 79
f 77 326 337
f 35 77 36
f 79 77 35
f 33 79 35
f 53 79 33
f 33 6 53
f 41 51 6
f 40 80 41
f 39 83 40
f 41 80 51
f 80 49 51
f 40 83 80
f 83 84 80
f 80 84 49
f 84 48 49
f 39 25 83
f 25 24 83
f 83 24 84
f 24 23 84
f 84 23 48
f 23 4 48
f 31 47 4
f 29 86 31
f 29 27 87
f 47 31 86
f 47 86 44
f 86 29 87
f 339 86 87
f 338 341 340
f 344 343 342
f 347 346 348
f 87 350 349
f 351 339 349
f 33 41 6
f 35 89 33
f 35 36 91
f 33 89 41
f 89 40 41
f 89 35 91
f 91 92 89
f 89 92 40
f 92 39 40
f 91 278 354
f 354 355 356
f 92 91 19
f 19 17 92
f 92 17 39
f 17 2 39
f 23 31 4
f 24 95 23
f 25 96 24
f 23 95 31
f 95 29 31
f 24 96 95
f 96 98 95
f 95 98 29
f 29 98 27
f 25 14 96
f 96 14 12
f 98 96 12
f 98 358 357
f 359 98 357
f 361 27 360
f 363 19 364
f 101 366 365
f 369 367 19
f 17 19 101
f 365 370 101
f 101 370 371
f 17 101 9
f 9 2 17
f 9 14 2
f 374 375 9
f 14 9 102
f 12 14 102
f 102 377 378
f 378 379 102
f 383 381 12
f 384 387 386
f 323 388 389
f 376 109 374
f 108 377 375
f 110 380 108
f 357 358 386
f 350 352 349
f 285 112 345
f 108 117 110
f 110 382 381
f 346 111 350
f 112 347 345
f 117 119 110
f 113 384 119
f 123 114 121
f 134 116 122
f 120 116 115
f 172 117 173
f 116 120 122
f 119 177 176
f 119 121 113
f 123 181 182
f 122 184 183
f 186 121 185
f 284 361 112
f 111 353 351
f 353 130 341
f 125 316 314
f 342 318 317
f 314 318 125
f 309 310 312
f 307 311 128
f 306 158 303
f 124 344 131
f 130 131 344
f 127 316 126
f 135 125 124
f 126 135 141
f 131 139 124
f 128 132 138
f 139 188 135
f 138 132 140
f 132 127 140
f 137 190 133
f 138 193 194
f 196 139 195
f 141 199 198
f 140 200 138
f 138 202 193
f 191 137 192
f 109 373 372
f 147 369 368
f 322 145 328
f 149 286 337
f 327 337 326
f 143 118 109
f 147 153 142
f 145 327 328
f 146 151 149
f 355 364 356
f 364 147 363
f 144 148 147
f 150 148 144
f 155 146 145
f 155 145 154
f 153 204 152
f 153 205 206
f 154 157 155
f 156 208 209
f 155 210 212
f 157 215 213
f 153 218 216
f 159 294 289
f 160 290 291
f 159 158 162
f 324 320 332
f 164 298 161
f 161 160 165
f 160 162 165
f 166 162 158
f 160 159 162
f 133 166 158
f 223 162 220
f 222 165 162
f 167 171 169
f 227 168 226
f 229 170 161
f 165 231 232
f 166 234 233
f 157 235 236
f 171 241 238
f 171 242 239
f 225 243 168
f 165 244 230
f 247 118 245
f 377 108 380
f 383 110 381
f 112 360 114
f 114 387 113
f 116 347 115
f 109 118 108
f 108 118 117
f 384 110 119
f 113 121 114
f 115 114 123
f 119 174 179
f 118 173 117
f 120 115 123
f 123 250 251
f 123 182 250
f 252 118 246
f 121 178 185
f 112 114 115
f 121 187 253
f 120 249 254
f 351 352 111
f 125 343 124
f 309 128 311
f 306 304 129
f 127 132 128
f 133 158 129
f 137 133 129
f 304 305 307
f 111 134 130
f 130 134 131
f 125 135 126
f 136 126 141
f 127 126 136
f 124 139 135
f 137 128 138
f 131 134 139
f 141 135 255
f 258 139 257
f 122 257 134
f 127 136 140
f 128 137 129
f 260 141 261
f 140 262 201
f 140 136 263
f 261 141 198
f 371 109 372
f 366 371 370
f 142 367 369
f 363 368 362
f 280 286 149
f 278 144 355
f 143 142 152
f 152 142 153
f 148 153 147
f 281 144 279
f 149 281 280
f 151 150 149
f 146 155 151
f 151 156 150
f 265 143 266
f 153 219 203
f 148 267 205
f 150 156 148
f 156 268 269
f 157 210 155
f 152 204 270
f 156 271 208
f 151 272 268
f 159 300 158
f 294 291 292
f 301 302 303
f 330 163 331
f 334 320 321
f 297 164 333
f 163 333 164
f 145 322 323
f 163 332 331
f 290 298 293
f 167 389 388
f 168 167 163
f 167 169 154
f 170 168 164
f 164 168 163
f 165 229 161
f 166 190 273
f 168 171 167
f 275 170 228
f 170 164 161
f 166 221 162
f 276 171 243
f 111 116 134
f 122 277 259
f 169 157 154
f 157 236 214
f 1 22 13
f 37 18 209
f 182 181 26
f 1 38 22
f 37 269 268
f 46 3 61
f 5 65 54
f 62 223 220
f 66 230 244
f 62 66 224
f 65 66 62
f 57 226 275
f 229 232 57
f 66 56 57
f 56 66 65
f 65 5 56
f 221 233 62
f 65 62 70
f 274 273 67
f 59 67 191
f 70 62 67
f 70 67 72
f 67 59 72
f 72 59 61
f 65 70 54
f 54 70 52
f 70 72 52
f 52 72 50
f 72 61 50
f 50 61 3
f 193 59 194
f 59 75 61
f 200 201 59
f 264 263 75
f 61 75 46
f 75 45 46
f 75 263 260
f 45 256 255
f 76 210 213
f 276 239 242
f 240 276 243
f 215 214 236
f 237 78 76
f 241 78 238
f 56 78 57
f 212 76 37
f 34 37 76
f 78 34 76
f 34 78 32
f 56 32 78
f 32 56 5
f 43 5 54
f 42 43 81
f 38 42 82
f 43 54 81
f 81 54 52
f 42 81 82
f 82 81 85
f 81 52 85
f 85 52 50
f 38 82 22
f 22 82 21
f 82 85 21
f 21 85 20
f 85 50 20
f 20 50 3
f 30 3 46
f 28 30 88
f 28 90 26
f 46 88 30
f 46 45 88
f 88 90 28
f 258 90 88
f 88 196 195
f 188 196 45
f 26 254 251
f 184 254 90
f 90 258 257
f 32 5 43
f 34 32 93
f 34 94 37
f 32 43 93
f 93 43 42
f 34 93 94
f 94 93 97
f 93 42 97
f 97 42 38
f 94 18 37
f 18 94 16
f 94 97 16
f 16 97 15
f 97 38 15
f 15 38 1
f 20 3 30
f 21 20 99
f 22 21 100
f 20 30 99
f 99 30 28
f 21 99 100
f 100 99 103
f 99 28 103
f 28 26 103
f 22 100 13
f 13 100 11
f 100 103 11
f 103 10 11
f 103 26 10
f 253 10 26
f 18 207 209
f 104 216 218
f 206 205 18
f 18 16 104
f 216 104 217
f 204 203 105
f 16 105 104
f 15 105 16
f 8 245 265
f 105 265 266
f 105 7 8
f 105 15 7
f 7 15 1
f 7 1 13
f 7 106 8
f 8 246 247
f 7 13 106
f 11 106 13
f 248 106 173
f 174 172 106
f 106 11 107
f 11 10 107
f 177 107 176
f 176 107 175
f 107 10 178
f 10 187 186
f 280 281 279
f 279 278 36
f 36 282 280
f 27 283 284
f 36 287 286
f 292 291 290
f 290 293 68
f 289 294 63
f 294 292 68
f 293 298 68
f 298 297 55
f 297 296 55
f 300 299 63
f 299 288 63
f 63 69 300
f 303 302 69
f 69 58 306
f 58 305 304
f 306 58 304
f 58 308 307
f 311 308 58
f 58 74 309
f 74 310 309
f 315 314 44
f 314 316 313
f 44 314 313
f 313 312 74
f 315 44 317
f 324 323 322
f 322 319 324
f 319 321 320
f 326 77 327
f 77 325 327
f 331 332 329
f 329 55 295
f 295 333 330
f 330 331 329
f 334 321 77
f 321 319 325
f 325 77 321
f 79 336 335
f 79 55 329
f 287 36 337
f 36 77 337
f 339 338 86
f 340 44 86
f 86 338 340
f 342 317 44
f 44 340 342
f 340 344 342
f 348 87 345
f 87 27 345
f 27 285 345
f 345 347 348
f 87 348 350
f 352 351 349
f 351 353 339
f 349 339 87
f 91 36 278
f 356 19 91
f 91 354 356
f 98 12 358
f 359 27 98
f 283 27 361
f 27 359 360
f 362 19 363
f 19 356 364
f 101 367 366
f 101 19 367
f 19 362 368
f 369 19 368
f 373 9 372
f 9 101 371
f 372 9 371
f 102 9 375
f 9 373 376
f 374 9 376
f 102 375 377
f 381 382 12
f 12 102 380
f 102 379 380
f 380 383 12
f 386 358 384
f 358 12 384
f 12 382 385
f 385 384 12
f 323 324 388
f 375 374 109
f 109 108 375
f 110 383 380
f 386 114 360
f 360 359 386
f 359 357 386
f 350 111 352
f 285 284 112
f 110 385 382
f 350 348 346
f 346 116 111
f 112 115 347
f 113 387 384
f 172 174 117
f 175 178 119
f 119 179 177
f 176 175 119
f 123 180 181
f 186 187 121
f 284 283 361
f 111 130 353
f 338 339 341
f 339 353 341
f 125 126 316
f 342 125 318
f 314 315 318
f 312 313 309
f 313 127 309
f 307 308 311
f 306 129 158
f 124 343 344
f 344 340 341
f 341 130 344
f 127 313 316
f 139 189 188
f 137 191 190
f 194 192 138
f 192 137 138
f 196 189 139
f 139 197 195
f 140 201 200
f 138 200 202
f 109 376 373
f 147 142 369
f 325 319 328
f 319 322 328
f 287 337 286
f 337 146 149
f 327 146 337
f 145 146 327
f 355 144 364
f 364 144 147
f 153 203 204
f 153 148 205
f 209 207 156
f 207 148 156
f 212 211 151
f 151 155 212
f 157 214 215
f 217 219 153
f 153 206 218
f 216 217 153
f 288 299 289
f 299 159 289
f 160 161 290
f 320 334 332
f 334 335 336
f 332 334 329
f 336 329 334
f 332 167 324
f 167 388 324
f 164 297 298
f 223 222 162
f 162 221 220
f 222 224 165
f 227 225 168
f 168 170 226
f 229 228 170
f 165 230 231
f 157 169 235
f 237 235 169
f 169 171 237
f 171 239 240
f 171 240 241
f 238 237 171
f 165 224 244
f 247 246 118
f 118 143 245
f 380 379 377
f 379 378 377
f 112 361 360
f 114 386 387
f 116 346 347
f 384 385 110
f 119 117 174
f 118 248 173
f 251 249 120
f 120 123 251
f 252 248 118
f 121 119 178
f 253 180 123
f 123 121 253
f 254 184 122
f 122 120 254
f 125 342 343
f 309 127 128
f 128 129 307
f 129 304 307
f 256 199 141
f 135 188 255
f 255 256 141
f 258 197 139
f 139 134 257
f 122 259 257
f 260 136 141
f 264 262 140
f 136 260 263
f 263 264 140
f 371 143 109
f 370 365 366
f 366 142 371
f 142 143 371
f 142 366 367
f 363 147 368
f 280 282 286
f 355 354 278
f 278 279 144
f 281 150 144
f 149 150 281
f 265 245 143
f 148 207 267
f 156 151 268
f 157 213 210
f 270 266 152
f 266 143 152
f 156 269 271
f 151 211 272
f 159 299 300
f 294 159 291
f 159 160 291
f 303 158 300
f 300 301 303
f 333 295 297
f 295 296 297
f 163 330 333
f 323 389 145
f 389 154 145
f 163 167 332
f 290 161 298
f 167 154 389
f 165 232 229
f 274 234 166
f 166 133 190
f 273 274 166
f 275 226 170
f 166 233 221
f 276 242 171
f 171 168 243
f 122 183 277
f 208 271 209
f 271 37 209
f 251 250 26
f 250 182 26
f 268 272 37
f 37 271 269
f 66 231 230
f 244 224 66
f 224 222 62
f 222 223 62
f 57 227 226
f 232 231 66
f 66 57 232
f 57 275 228
f 229 57 228
f 233 234 67
f 234 274 67
f 67 62 233
f 62 220 221
f 67 273 190
f 190 191 67
f 191 192 59
f 192 194 59
f 193 202 59
f 201 262 75
f 262 264 75
f 75 59 201
f 59 202 200
f 260 261 256
f 261 198 199
f 256 261 199
f 256 45 260
f 45 75 260
f 213 215 76
f 76 212 210
f 276 240 239
f 243 225 57
f 225 227 57
f 57 241 243
f 241 240 243
f 236 235 76
f 235 237 76
f 76 215 236
f 237 238 78
f 241 57 78
f 37 272 212
f 272 211 212
f 88 195 258
f 195 197 258
f 88 45 196
f 45 255 188
f 188 189 196
f 90 254 26
f 254 249 251
f 90 277 184
f 277 183 184
f 257 259 90
f 259 277 90
f 26 181 253
f 181 180 253
f 18 267 207
f 205 267 18
f 18 104 206
f 104 218 206
f 203 219 105
f 219 217 105
f 217 104 105
f 105 270 204
f 8 247 245
f 266 270 105
f 105 8 265
f 8 252 246
f 248 252 106
f 252 8 106
f 106 172 173
f 107 177 106
f 177 179 106
f 179 174 106
f 186 185 10
f 185 178 10
f 178 175 107
f 10 253 187

