# Blender 4.1.1
# www.blender.org
mtllib link_body_06.mtl
o link_body_06
v -3.623033 8.863086 -4.219510
v -4.843920 6.736374 -6.064555
v -6.384413 6.417513 -4.119174
v -0.066259 9.458744 -4.656744
v -3.385541 9.734879 -2.084669
v -5.593848 8.196132 -2.120296
v -0.620602 10.339401 -3.065548
v -0.604971 10.534593 -1.584520
v 3.708179 10.597654 -3.115697
v 4.427621 9.908973 -4.099067
v 5.556868 10.519045 -2.572808
v 2.168992 9.293113 -4.846950
v 4.127937 10.651072 -0.870852
v 4.178201 10.508591 -2.090291
v 6.142113 10.251352 -2.076641
v 2.323005 10.458561 -0.158604
v 1.746918 10.126547 -2.213762
v -1.330948 8.234788 -2.026231
v -0.110811 9.462639 0.089197
v -1.000216 7.767986 -4.132082
v -1.443314 5.394624 -6.337158
v -3.056958 4.744700 -4.197905
v -3.538528 5.042336 -2.193161
v 0.106070 7.315320 -6.103988
v -6.049242 4.780906 -6.304040
v 1.130024 8.337395 -5.647122
v -6.913870 2.545655 -6.409843
v -7.954902 2.874717 -4.150338
v -7.745170 5.097306 -2.033947
v -8.266128 -0.997155 -4.150337
v -8.766509 1.222734 -2.115790
v -8.941192 -1.247101 0.000001
v -8.489135 -2.896096 -2.115790
v -8.658286 2.953809 -0.000002
v -7.006682 6.798440 0.089533
v -8.425044 3.186158 2.033946
v -8.790393 0.000001 2.098250
v -8.450877 -3.065121 2.120298
v -8.243644 -0.881823 4.213882
v -7.964717 2.965586 4.075510
v -6.327906 6.457952 4.142961
v -7.130187 2.570127 6.059342
v -5.761672 5.718451 5.993323
v -6.818854 6.729077 2.120296
v -4.852442 8.799891 2.079459
v -4.510042 9.284207 0.210609
v -3.430686 8.926684 4.415639
v -3.702136 7.722510 6.007611
v -0.580113 9.466609 4.171751
v -0.643601 8.765668 5.515964
v -4.434391 6.321764 6.872458
v 1.974080 8.460656 6.010675
v 2.568887 9.708673 4.100253
v 0.340893 8.827382 4.103546
v 1.322560 9.922179 2.214499
v -1.452771 8.071433 2.191764
v -2.852355 6.679670 -0.000001
v -3.829055 4.813661 1.149318
v -2.146569 6.347337 4.197903
v -3.697618 3.048908 4.127244
v -2.391713 4.189983 5.985331
v -0.561005 6.846992 6.032628
v -1.152369 4.333501 7.428306
v 0.481564 6.845084 6.871950
v -1.983460 1.504018 7.606304
v -5.515349 4.415944 7.175613
v -4.621618 0.000001 7.698708
v -6.315744 2.155777 7.299106
v -5.515025 -4.416440 7.175568
v -6.289610 -2.221966 7.296674
v -1.143471 -4.354774 7.433219
v -6.488428 -0.000158 7.384307
v -2.060902 -0.981669 7.622572
v -3.195519 0.837875 6.060849
v -2.929689 -2.769189 5.907323
v -3.733672 -2.784225 4.197904
v -2.046231 -5.720058 5.315416
v -1.183100 -7.564796 4.127245
v -2.684131 -6.610975 2.026229
v 0.504486 -7.021039 6.775291
v -4.249578 -2.982389 2.193159
v -4.555174 1.218111 2.107759
v -4.356056 -3.303803 -0.000001
v -4.760017 0.866782 -0.000001
v -4.070871 0.000002 4.100253
v -4.569757 1.148207 -2.026230
v -4.249578 -2.982386 -2.193161
v -4.034294 -0.878493 -4.197904
v -2.684131 -6.610975 -2.026231
v -3.187432 -4.526943 -4.127247
v -1.777869 -4.800217 -6.359301
v -1.016407 -7.719500 -4.213541
v -2.684972 -2.699514 -6.348598
v -2.982410 -0.430424 -6.389115
v -7.114130 -0.051512 -6.498226
v -6.873961 -2.679610 -6.403065
v -2.746942 2.412641 -6.369968
v -3.912366 1.931177 -4.100254
v -7.334918 -4.600342 -4.213884
v -6.012968 -4.847715 -6.298087
v -0.403164 -6.795723 -6.240149
v -5.003580 -6.477590 -6.125211
v -5.229988 -7.819044 -4.059519
v -4.285690 -7.702797 -5.377855
v -3.385551 -9.734876 -2.084671
v -5.816721 -8.182200 -1.263224
v -3.434406 -9.000637 -4.135613
v -7.308947 -5.860412 -2.098251
v -7.889239 -5.186025 0.088305
v -6.801680 -6.791932 2.033045
v -6.494379 -6.250219 4.076071
v -4.965923 -8.580039 2.786494
v -3.442495 -7.966497 5.899276
v -3.196116 -8.944924 4.606090
v -4.471738 -9.303036 0.211340
v -4.699495 -5.992332 6.924220
v -4.105134 -6.858275 6.586824
v -6.565260 -4.211041 6.030683
v -7.650054 -3.802503 4.115863
v -7.423537 -0.941044 6.012625
v 1.839802 -8.360692 6.082651
v -0.759938 -9.315324 4.623306
v 1.865227 -9.500260 4.088899
v 2.452937 -9.037633 5.237155
v 1.239804 -9.915688 2.059136
v -0.687023 -8.737576 2.090290
v 0.035263 -9.535465 0.087969
v -2.652833 -6.971413 -0.000001
v 0.054920 -9.356823 -2.059819
v 3.635650 -10.484045 -2.288549
v 2.330667 -10.471046 -0.180362
v 2.131928 -9.276963 -4.863745
v 1.185500 -8.327087 -5.665459
v 3.684270 -10.611173 -3.087682
v -0.066261 -9.458741 -4.656746
v 4.406738 -9.891216 -4.123381
v 5.405817 -10.613764 -2.434717
v 6.215384 -9.744397 -3.651805
v 6.078426 -10.279757 -1.977201
v 4.082389 -10.642191 -0.814384
v -0.559771 -10.542341 -1.571320
v -0.640627 -10.329552 -3.077655
v 5.931056 9.756474 -3.826400
vn -0.3995 0.7828 -0.4770
vn -0.1015 0.7495 -0.6541
vn -0.3749 0.4902 -0.7868
vn -0.7653 0.5422 -0.3468
vn -0.6844 0.7049 -0.1865
vn -0.1633 0.9323 -0.3227
vn -0.4012 0.9037 -0.1494
vn 0.0293 0.9473 -0.3191
vn -0.1492 0.9886 0.0199
vn 0.0917 0.8464 -0.5246
vn -0.0042 0.7620 -0.6476
vn 0.3168 0.9316 -0.1783
vn 0.0320 0.9991 0.0281
vn -0.0557 0.9844 0.1668
vn 0.2881 0.9426 0.1688
vn -0.1278 -0.9628 0.2382
vn 0.0570 -0.9915 0.1168
vn 0.0077 -0.9794 0.2016
vn 0.3298 -0.9193 0.2149
vn 0.2937 -0.9548 0.0459
vn 0.3479 -0.8676 0.3552
vn 0.0104 -0.9560 0.2932
vn 0.6397 -0.6804 0.3574
vn 0.6795 -0.7128 0.1735
vn 0.5481 -0.8364 -0.0063
vn 0.8973 -0.4050 0.1755
vn 0.5644 -0.6772 0.4721
vn 0.7457 -0.4798 0.4623
vn 0.8448 -0.4000 0.3555
vn -0.0173 0.0783 -0.9968
vn -0.0524 0.3835 -0.9220
vn -0.0164 0.1067 -0.9942
vn -0.0570 0.5974 -0.7999
vn 0.7322 -0.6620 -0.1600
vn -0.9121 0.2315 -0.3384
vn -0.7992 0.4083 -0.4411
vn -0.0070 0.0390 -0.9992
vn -0.8785 0.2060 -0.4310
vn -0.8975 0.4100 -0.1623
vn -0.9391 -0.0724 -0.3359
vn -0.9824 0.0919 -0.1626
vn -0.9596 -0.2286 -0.1640
vn -0.9957 -0.0919 -0.0075
vn -0.9716 0.2364 -0.0050
vn -0.8281 0.5606 0.0030
vn -0.9500 0.2678 0.1604
vn -0.9866 0.0176 0.1621
vn -0.9529 -0.2556 0.1634
vn -0.9404 -0.0586 0.3350
vn -0.9118 0.2444 0.3300
vn -0.7583 0.5479 0.3532
vn -0.8152 0.5509 0.1789
vn -0.7144 0.4863 0.5032
vn -0.8432 0.2105 0.4946
vn -0.5732 0.7973 0.1891
vn -0.4945 0.8677 0.0515
vn -0.3629 0.8542 0.3724
vn -0.1046 0.9430 0.3160
vn -0.3411 0.6781 0.6510
vn -0.0908 0.7614 0.6419
vn -0.0508 0.3182 0.9467
vn -0.0319 0.7358 0.6764
vn -0.0460 0.9306 0.3630
vn 0.4527 -0.8705 -0.1931
vn 0.3386 -0.8574 -0.3876
vn 0.4986 -0.7849 -0.3678
vn 0.4040 -0.7661 -0.4998
vn -0.0599 0.9824 0.1769
vn 0.6972 -0.6929 -0.1838
vn 0.8189 -0.5739 -0.0023
vn 0.9209 -0.3770 -0.0989
vn 0.7727 -0.5349 -0.3418
vn 0.9090 -0.2561 -0.3289
vn 0.7918 -0.3507 -0.5000
vn 0.5929 -0.6016 -0.5353
vn 0.4877 -0.6272 -0.6073
vn 0.7004 -0.3872 -0.5996
vn -0.0347 0.1719 0.9845
vn -0.0462 0.4353 0.8991
vn 0.7956 -0.1500 -0.5869
vn -0.0752 -0.0000 0.9972
vn 0.0089 0.0458 0.9989
vn -0.0653 0.1335 0.9889
vn -0.1271 0.0833 0.9884
vn -0.1661 -0.0006 0.9861
vn -0.0664 -0.1335 0.9888
vn -0.0320 -0.1815 0.9829
vn -0.1263 -0.0840 0.9884
vn 0.0173 -0.0323 0.9993
vn 0.8115 0.0998 -0.5758
vn 0.8374 0.2200 -0.5003
vn 0.8677 -0.0642 -0.4929
vn 0.7109 0.3825 -0.5902
vn 0.9123 0.2354 -0.3351
vn 0.7556 0.4789 -0.4469
vn 0.8287 0.5315 -0.1755
vn 0.6332 0.6814 -0.3669
vn 0.5547 0.6603 -0.5063
vn 0.9544 0.2430 -0.1733
vn 0.9824 -0.0891 -0.1639
vn 0.9450 0.0155 -0.3266
vn 0.9981 -0.0621 0.0035
vn 0.9636 0.2672 -0.0000
vn 0.9833 -0.0983 0.1531
vn 0.9572 0.2335 0.1709
vn 0.8171 0.5505 0.1713
vn 0.9393 0.0703 0.3358
vn 0.8601 0.3803 0.3402
vn 0.8717 0.2340 0.4305
vn 0.7740 0.4479 0.4475
vn 0.6482 0.6707 0.3606
vn 0.0259 -0.0057 -0.9996
vn 0.0431 0.0157 -0.9989
vn 0.0121 -0.0007 -0.9999
vn 0.9005 0.0121 0.4347
vn -0.0047 -0.0515 -0.9987
vn -0.8998 0.0132 -0.4362
vn -0.8704 -0.2223 -0.4394
vn 0.0296 -0.0005 -0.9996
vn -0.0087 -0.0416 -0.9991
vn 0.8731 -0.2046 0.4424
vn 0.9283 -0.1583 0.3364
vn -0.8541 -0.3853 -0.3493
vn -0.7797 -0.4442 -0.4412
vn -0.0184 -0.0723 -0.9972
vn -0.0423 -0.3147 -0.9483
vn -0.0527 -0.2638 -0.9631
vn -0.7165 -0.5465 -0.4334
vn -0.6586 -0.6683 -0.3459
vn -0.3459 -0.6714 -0.6554
vn -0.3623 -0.8145 -0.4532
vn -0.8535 -0.4894 -0.1788
vn -0.4052 -0.9023 -0.1469
vn -0.7114 -0.6954 -0.1019
vn -0.9089 -0.4168 0.0103
vn -0.8142 -0.5593 0.1555
vn -0.7660 -0.5314 0.3618
vn -0.5849 -0.7734 0.2445
vn -0.3382 -0.6893 0.6407
vn -0.3208 -0.8638 0.3886
vn -0.6744 -0.5637 0.4769
vn -0.4768 -0.8768 0.0619
vn -0.7128 -0.3881 0.5842
vn -0.7883 -0.3533 0.5037
vn -0.0474 -0.2556 0.9656
vn -0.0566 -0.4451 0.8937
vn -0.0455 -0.4349 0.8993
vn -0.7362 -0.6152 0.2821
vn -0.8907 -0.3174 0.3254
vn -0.8690 -0.0718 0.4897
vn -0.8012 -0.1984 0.5646
vn -0.8344 0.0266 0.5506
vn -0.8013 0.1712 0.5733
vn -0.0572 -0.7217 0.6899
vn -0.0865 -0.9057 0.4150
vn -0.0229 -0.8603 0.5092
vn 0.4813 0.7636 -0.4303
vn 0.4630 0.7920 -0.3980
vn 0.2693 0.8376 -0.4753
vn -0.0067 -0.9547 0.2976
vn -0.0486 -0.9787 0.1994
vn 0.4683 0.8609 -0.1988
vn 0.6136 0.7658 -0.1925
vn 0.5404 0.8414 -0.0054
vn 0.8107 0.5854 0.0053
vn 0.5170 0.8341 0.1920
vn 0.3081 0.9475 0.0855
vn 0.0949 0.9720 0.2152
vn 0.3528 0.8736 0.3350
vn -0.0040 0.9490 0.3151
vn 0.4863 0.7684 0.4160
vn -0.0609 -0.5890 -0.8058
vn -0.0044 -0.7616 -0.6481
vn -0.1001 -0.7469 -0.6573
vn 0.0240 -0.9476 -0.3187
vn 0.0942 -0.8445 -0.5273
vn 0.2800 -0.9503 -0.1360
vn 0.3037 -0.8592 -0.4117
vn -0.1228 0.9643 0.2345
vn -0.1522 0.9450 0.2896
vn 0.4478 -0.8941 -0.0055
vn 0.0243 -0.9986 0.0464
vn 0.0221 0.9947 0.1000
vn -0.1468 -0.9889 0.0219
vn -0.0568 -0.9841 0.1685
vn -0.1631 -0.9323 -0.3229
vn 0.6405 0.6069 0.4705
vn -0.7292 0.3675 0.5773
vn -0.6176 0.5718 0.5400
vn -0.1362 -0.9518 0.2749
vn 0.5879 0.7570 -0.2850
vn 0.2791 0.8551 -0.4369
vt 0.278683 0.023193
vt 0.282084 0.046796
vt 0.267065 0.015016
vt 0.302419 0.155053
vt 0.307416 0.166351
vt 0.287829 0.164356
vt 0.295665 0.176720
vt 0.718763 0.204953
vt 0.724016 0.213551
vt 0.702815 0.211092
vt 0.702485 0.199464
vt 0.282084 0.175867
vt 0.745386 0.205177
vt 0.718360 0.196801
vt 0.751259 0.210449
vt 0.738333 0.214510
vt 0.757054 0.202109
vt 0.747705 0.192757
vt 0.736697 0.188820
vt 0.761167 0.199290
vt 0.412204 0.655752
vt 0.425571 0.648833
vt 0.425301 0.655612
vt 0.441365 0.656158
vt 0.437454 0.644773
vt 0.438580 0.670921
vt 0.423668 0.666861
vt 0.459216 0.666977
vt 0.461351 0.655208
vt 0.453364 0.643378
vt 0.364791 0.013858
vt 0.366876 0.025255
vt 0.347427 0.022847
vt 0.451924 0.678068
vt 0.461790 0.679582
vt 0.346394 0.012108
vt 0.351570 0.001380
vt 0.256241 0.007021
vt 0.270358 0.047897
vt 0.259720 0.037616
vt 0.275991 0.054710
vt 0.129226 0.986861
vt 0.128328 0.979699
vt 0.129226 0.971806
vt 0.281223 0.061641
vt 0.329527 0.167526
vt 0.315576 0.154576
vt 0.243861 0.001301
vt 0.329227 0.154803
vt 0.316991 0.178612
vt 0.350025 0.168570
vt 0.339377 0.179421
vt 0.359600 0.180347
vt 0.351702 0.191772
vt 0.329604 0.190656
vt 0.305729 0.189705
vt 0.327155 0.201768
vt 0.344286 0.203016
vt 0.358982 0.203786
vt 0.346660 0.214757
vt 0.326415 0.212964
vt 0.304376 0.211982
vt 0.304932 0.200887
vt 0.306062 0.222216
vt 0.325610 0.223770
vt 0.289300 0.199555
vt 0.286554 0.189004
vt 0.696068 0.186694
vt 0.694649 0.176256
vt 0.703095 0.163322
vt 0.284197 0.212001
vt 0.719960 0.164717
vt 0.703481 0.154257
vt 0.720738 0.157127
vt 0.290509 0.221177
vt 0.084836 0.343128
vt 0.080025 0.335287
vt 0.105114 0.349120
vt 0.122512 0.347575
vt 0.737644 0.154257
vt 0.739230 0.165085
vt 0.443786 0.631654
vt 0.435314 0.621365
vt 0.449904 0.621320
vt 0.438828 0.610974
vt 0.731208 0.175597
vt 0.461790 0.631886
vt 0.356824 0.035406
vt 0.365501 0.048417
vt 0.345623 0.041074
vt 0.374503 0.037726
vt 0.355252 0.058994
vt 0.371061 0.060132
vt 0.335792 0.057543
vt 0.343040 0.068650
vt 0.359229 0.070145
vt 0.455288 0.610935
vt 0.448300 0.606380
vt 0.344792 0.077411
vt 0.970239 0.875757
vt 0.983707 0.870195
vt 0.987907 0.875757
vt 0.101926 0.324462
vt 0.112662 0.338497
vt 0.328517 0.077807
vt 0.079098 0.300235
vt 0.096550 0.308734
vt 0.072937 0.324652
vt 0.067736 0.312081
vt 0.066701 0.300129
vt 0.073408 0.275747
vt 0.102446 0.276355
vt 0.068142 0.287843
vt 0.096167 0.294965
vt 0.314806 0.077807
vt 0.304382 0.067760
vt 0.323930 0.068490
vt 0.297119 0.077307
vt 0.303742 0.057817
vt 0.289018 0.065027
vt 0.574913 0.199768
vt 0.556799 0.200631
vt 0.561446 0.190829
vt 0.545574 0.183962
vt 0.302376 0.046430
vt 0.283856 0.046472
vt 0.545038 0.199570
vt 0.325167 0.045827
vt 0.318733 0.057103
vt 0.323244 0.034072
vt 0.300712 0.034270
vt 0.325134 0.023035
vt 0.302762 0.022258
vt 0.284212 0.024140
vt 0.314674 0.011384
vt 0.295391 0.012267
vt 0.306058 0.000381
vt 0.295329 0.000879
vt 0.606633 0.181402
vt 0.620594 0.189262
vt 0.610015 0.200631
vt 0.596990 0.195823
vt 0.227448 0.027464
vt 0.214886 0.029473
vt 0.229486 -0.000000
vt 0.318252 0.000000
vt 0.203272 0.035528
vt 0.342983 0.155012
vt 0.355692 0.156110
vt 0.243191 0.028992
vt 0.214930 0.001636
vt 0.334060 0.000304
vt 0.330192 0.012045
vt 0.365946 0.168819
vt 0.364443 0.156959
vt 0.202931 0.007391
vt 0.192236 0.044695
vt 0.193908 0.014128
vt 0.365974 0.302629
vt 0.358872 0.302921
vt 0.358546 0.291677
vt 0.373167 0.289976
vt 0.353341 0.299719
vt 0.346548 0.293936
vt 0.371160 0.278664
vt 0.344546 0.282887
vt 0.360245 0.275899
vt 0.371598 0.180811
vt 0.368967 0.192906
vt 0.373484 0.266016
vt 0.364549 0.256655
vt 0.373672 0.203715
vt 0.369453 0.214779
vt 0.351543 0.254529
vt 0.361113 0.245609
vt 0.339321 0.238680
vt 0.338466 0.246197
vt 0.347229 0.231527
vt 0.350067 0.269242
vt 0.078917 0.267084
vt 0.066445 0.276868
vt 0.360536 0.234396
vt 0.082920 0.262342
vt 0.113553 0.261726
vt 0.343394 0.234087
vt 0.360000 0.214751
vt 0.358633 0.225102
vt 0.344243 0.224462
vt 0.347389 0.231527
vt 0.060569 0.294921
vt 0.325195 0.230475
vt 0.336580 0.231527
vt 0.122512 0.254424
vt 0.087397 0.256279
vt 0.322348 0.248340
vt 0.304348 0.242440
vt 0.300807 0.247763
vt 0.547297 0.172633
vt 0.557549 0.168488
vt 0.550930 0.166807
vt 0.305436 0.253637
vt 0.310982 0.264302
vt 0.569033 0.169628
vt 0.571436 0.183675
vt 0.581197 0.175832
vt 0.585735 0.196955
vt 0.592968 0.173941
vt 0.282084 0.035320
vt 0.579834 0.159713
vt 0.589978 0.149578
vt 0.606161 0.158527
vt 0.599488 0.144095
vt 0.611981 0.165299
vt 0.183729 0.055300
vt 0.178409 0.061641
vt 0.177345 0.047048
vt 0.298598 0.294840
vt 0.310410 0.302921
vt 0.294764 0.301008
vt 0.324682 0.299876
vt 0.286783 0.292786
vt 0.282542 0.299994
vt 0.585889 0.135162
vt 0.595146 0.133648
vt 0.282084 0.290802
vt 0.294275 0.282733
vt 0.581410 0.147970
vt 0.325405 0.282748
vt 0.305363 0.277667
vt 0.327105 0.290892
vt 0.187065 0.018952
vt 0.617519 0.177302
vt 0.311660 0.228994
vt 0.299255 0.226522
vt 0.413631 0.665509
vt 0.760928 0.208869
s 1
usemtl pleuraldeles_skin
f 1/1/1 4/2/2 2/3/3
f 2/4/3 3/5/4 1/6/1
f 6/7/5 1/6/1 3/5/4
f 7/8/6 4/9/2 1/10/1
f 5/11/7 7/8/6 1/10/1
f 5/12/7 1/6/1 6/7/5
f 7/8/6 9/13/8 4/9/2
f 9/13/8 7/8/6 8/14/9
f 7/8/6 5/11/7 8/14/9
f 9/13/8 10/15/10 12/16/11
f 9/13/8 11/17/12 10/15/10
f 13/18/13 11/17/12 9/13/8
f 9/13/8 12/16/11 4/9/2
f 9/13/8 8/14/9 13/18/13
f 13/18/13 8/14/9 16/19/14
f 11/17/12 13/18/13 15/20/15
f 15/21/16 13/22/17 14/23/18
f 17/24/19 14/23/18 13/22/17
f 13/22/17 16/25/20 17/24/19
f 17/24/19 12/26/21 10/27/22
f 20/28/23 12/26/21 17/24/19
f 17/24/19 10/27/22 14/23/18
f 18/29/24 17/24/19 19/30/25
f 20/28/23 17/24/19 18/29/24
f 16/25/20 19/30/25 17/24/19
f 20/31/23 18/32/24 23/33/26
f 12/26/21 20/28/23 24/34/27
f 20/28/23 21/35/28 24/34/27
f 22/36/29 21/37/28 20/31/23
f 20/31/23 23/33/26 22/36/29
f 25/38/30 24/39/31 21/40/32
f 2/3/3 24/39/31 25/38/30
f 24/39/31 2/3/3 26/41/33
f 24/42/34 26/43/34 12/44/34
f 4/2/2 26/41/33 2/3/3
f 4/2/2 12/45/11 26/41/33
f 28/46/35 3/5/4 25/47/36
f 3/5/4 2/4/3 25/47/36
f 25/38/30 21/40/32 27/48/37
f 28/46/35 25/47/36 27/49/38
f 29/50/39 3/5/4 28/46/35
f 30/51/40 28/46/35 27/49/38
f 31/52/41 29/50/39 28/46/35
f 31/52/41 28/46/35 30/51/40
f 33/53/42 31/52/41 30/51/40
f 31/52/41 32/54/43 34/55/44
f 33/53/42 32/54/43 31/52/41
f 31/52/41 34/55/44 29/50/39
f 29/50/39 34/55/44 35/56/45
f 36/57/46 35/56/45 34/55/44
f 37/58/47 34/55/44 32/54/43
f 37/58/47 36/57/46 34/55/44
f 38/59/48 37/58/47 32/54/43
f 39/60/49 37/58/47 38/59/48
f 37/58/47 40/61/50 36/57/46
f 37/58/47 39/60/49 40/61/50
f 40/61/50 41/62/51 44/63/52
f 43/64/53 41/62/51 40/61/50
f 43/64/53 40/61/50 42/65/54
f 39/60/49 42/65/54 40/61/50
f 40/61/50 44/63/52 36/57/46
f 45/66/55 35/56/45 44/63/52
f 41/62/51 45/66/55 44/63/52
f 36/57/46 44/63/52 35/56/45
f 45/66/55 46/67/56 35/56/45
f 46/68/56 45/69/55 47/70/57
f 41/62/51 47/71/57 45/66/55
f 8/14/9 47/70/57 49/72/58
f 8/14/9 46/68/56 47/70/57
f 47/70/57 48/73/59 50/74/60
f 41/62/51 48/75/59 47/71/57
f 50/74/60 49/72/58 47/70/57
f 48/76/59 51/77/61 50/78/60
f 50/78/60 51/77/61 52/79/62
f 52/80/62 53/81/63 50/74/60
f 50/74/60 53/81/63 49/72/58
f 55/82/64 53/83/65 54/84/66
f 54/84/66 53/83/65 52/85/67
f 49/72/58 53/81/63 55/86/68
f 19/30/25 16/25/20 55/82/64
f 8/14/9 55/86/68 16/19/14
f 54/84/66 56/87/69 55/82/64
f 19/30/25 55/82/64 56/87/69
f 49/72/58 55/86/68 8/14/9
f 57/88/70 56/89/69 58/90/71
f 19/91/25 56/89/69 57/88/70
f 56/89/69 59/92/72 58/90/71
f 56/89/69 54/93/66 59/92/72
f 58/90/71 59/92/72 60/94/73
f 60/94/73 59/92/72 61/95/74
f 59/92/72 62/96/75 61/95/74
f 59/92/72 54/93/66 62/96/75
f 54/84/66 52/85/67 62/97/75
f 62/97/75 52/85/67 64/98/76
f 61/95/74 62/96/75 63/99/77
f 63/100/77 62/101/75 64/102/76
f 63/103/78 64/104/79 51/77/61
f 52/79/62 51/77/61 64/104/79
f 61/95/74 63/99/77 65/105/80
f 67/106/81 65/107/82 63/103/78
f 51/77/61 66/108/83 63/103/78
f 66/108/83 67/106/81 63/103/78
f 66/108/83 68/109/84 67/106/81
f 72/110/85 67/106/81 68/109/84
f 67/106/81 69/111/86 71/112/87
f 70/113/88 69/111/86 67/106/81
f 67/106/81 72/110/85 70/113/88
f 67/106/81 71/112/87 73/114/89
f 73/114/89 65/107/82 67/106/81
f 73/115/90 75/116/91 74/117/92
f 74/117/92 65/105/80 73/115/90
f 73/115/90 71/118/93 75/116/91
f 76/119/94 74/117/92 75/116/91
f 77/120/95 76/119/94 75/116/91
f 77/120/95 75/116/91 71/118/93
f 79/121/96 77/122/95 78/123/97
f 80/124/98 78/123/97 77/122/95
f 81/125/99 76/119/94 77/120/95
f 81/125/99 77/120/95 79/126/96
f 77/122/95 71/127/93 80/124/98
f 81/125/99 82/128/100 85/129/101
f 84/130/102 82/128/100 81/125/99
f 83/131/103 81/125/99 79/126/96
f 84/130/102 81/125/99 83/131/103
f 81/125/99 85/129/101 76/119/94
f 85/129/101 60/94/73 74/117/92
f 76/119/94 85/129/101 74/117/92
f 82/128/100 60/94/73 85/129/101
f 58/90/71 82/128/100 84/130/102
f 86/132/104 58/90/71 84/130/102
f 87/133/105 84/130/102 83/131/103
f 87/133/105 86/132/104 84/130/102
f 89/134/106 87/133/105 83/131/103
f 88/135/107 86/132/104 87/133/105
f 90/136/108 88/135/107 87/133/105
f 90/136/108 87/133/105 89/134/106
f 93/137/109 90/136/108 91/138/110
f 92/139/111 91/140/110 90/141/108
f 92/139/111 90/141/108 89/142/106
f 93/137/109 88/135/107 90/136/108
f 94/143/112 93/144/113 95/145/114
f 94/146/115 88/135/107 93/137/109
f 93/144/113 91/147/116 95/145/114
f 30/51/40 95/148/117 96/149/118
f 30/51/40 27/49/38 95/148/117
f 95/145/114 21/40/32 97/150/119
f 27/48/37 21/40/32 95/145/114
f 91/147/116 96/151/120 95/145/114
f 95/145/114 97/150/119 94/143/112
f 97/152/121 22/36/29 98/153/122
f 21/37/28 22/36/29 97/152/121
f 97/152/121 98/153/122 88/135/107
f 97/152/121 88/135/107 94/146/115
f 98/153/122 22/36/29 23/33/26
f 98/153/122 86/132/104 88/135/107
f 98/153/122 23/33/26 86/132/104
f 99/154/123 30/51/40 96/149/118
f 99/154/123 96/149/118 100/155/124
f 91/147/116 100/156/125 96/151/120
f 100/156/125 91/147/116 101/157/126
f 100/156/125 101/157/126 102/158/127
f 100/159/124 102/160/128 103/161/129
f 100/159/124 103/161/129 99/162/123
f 104/163/130 103/161/129 102/160/128
f 104/163/130 107/164/131 103/161/129
f 108/165/132 99/162/123 103/161/129
f 105/166/133 106/167/134 103/161/129
f 107/164/131 105/166/133 103/161/129
f 108/165/132 103/161/129 106/167/134
f 108/168/132 33/53/42 99/154/123
f 108/168/132 109/169/135 33/53/42
f 106/167/134 109/170/135 108/165/132
f 110/171/136 109/170/135 106/167/134
f 110/172/136 38/59/48 109/169/135
f 38/59/48 32/54/43 109/169/135
f 33/53/42 109/169/135 32/54/43
f 111/173/137 38/59/48 110/172/136
f 110/171/136 112/174/138 111/175/137
f 112/174/138 110/171/136 106/167/134
f 113/176/139 112/174/138 114/177/140
f 116/178/141 112/174/138 113/176/139
f 116/178/141 111/175/137 112/174/138
f 114/177/140 112/174/138 115/179/142
f 112/174/138 106/167/134 115/179/142
f 116/180/141 69/111/143 118/181/144
f 71/112/87 69/111/86 116/180/145
f 116/178/141 118/182/144 111/175/137
f 116/180/145 117/183/146 80/184/147
f 117/185/148 116/178/141 113/176/139
f 71/112/87 116/180/145 80/184/147
f 119/186/149 118/187/144 120/188/150
f 118/187/144 119/186/149 111/173/137
f 70/189/151 120/188/150 118/187/144
f 69/111/143 70/113/151 118/181/144
f 39/60/49 120/188/150 42/65/54
f 119/186/149 120/188/150 39/60/49
f 70/113/151 72/110/152 120/190/150
f 68/191/153 42/65/54 120/188/150
f 68/191/153 120/188/150 72/192/152
f 119/186/149 39/60/49 38/59/48
f 111/173/137 119/186/149 38/59/48
f 117/183/146 121/193/154 80/184/147
f 117/183/146 113/194/139 121/193/154
f 113/176/139 122/195/155 121/196/154
f 122/195/155 124/197/156 121/196/154
f 80/124/98 121/198/157 123/199/158
f 121/198/157 124/200/159 123/199/158
f 122/195/155 123/201/160 124/197/156
f 125/202/161 123/201/160 122/195/155
f 123/199/158 125/203/162 126/204/163
f 123/199/158 126/204/163 78/123/97
f 80/124/98 123/199/158 78/123/97
f 125/203/162 127/205/164 126/204/163
f 126/204/163 79/121/96 78/123/97
f 128/206/165 126/204/163 127/205/164
f 128/206/165 79/121/96 126/204/163
f 129/207/166 128/206/165 127/205/164
f 89/134/106 83/131/103 128/208/165
f 83/131/103 79/126/96 128/208/165
f 129/207/166 89/142/106 128/206/165
f 131/209/167 130/210/168 129/207/166
f 132/211/169 129/207/166 130/210/168
f 92/139/111 89/142/106 129/207/166
f 129/207/166 127/205/164 131/209/167
f 129/207/166 132/211/169 92/139/111
f 130/210/168 136/212/170 132/211/169
f 92/139/111 132/211/169 133/213/171
f 133/214/172 132/215/173 135/216/174
f 134/217/175 132/218/173 136/219/176
f 134/217/175 135/220/174 132/218/173
f 134/217/175 136/219/176 137/221/177
f 137/221/177 136/219/176 138/222/178
f 130/210/168 139/223/179 136/212/170
f 139/223/179 138/224/180 136/212/170
f 137/221/177 139/225/181 140/226/182
f 137/221/177 138/222/178 139/225/181
f 139/223/179 130/210/168 140/227/183
f 140/226/182 134/217/175 137/221/177
f 134/217/175 140/226/182 141/228/184
f 141/228/184 140/226/182 131/229/185
f 131/209/167 140/227/183 130/210/168
f 115/179/142 105/166/133 141/228/184
f 142/230/186 141/228/184 105/166/133
f 115/179/142 141/228/184 114/177/140
f 141/228/184 142/230/186 134/217/175
f 122/195/155 114/177/140 141/228/184
f 125/202/161 122/195/155 141/228/184
f 131/229/185 125/202/161 141/228/184
f 142/230/186 135/220/174 134/217/175
f 142/230/186 105/166/133 107/164/131
f 142/230/186 107/164/131 135/220/174
f 107/164/131 104/163/130 135/220/174
f 102/158/127 135/216/174 104/231/130
f 102/158/127 133/214/172 135/216/174
f 102/158/127 101/157/126 133/214/172
f 133/213/171 101/232/187 92/139/111
f 127/205/164 125/203/162 131/209/167
f 122/195/155 113/176/139 114/177/140
f 115/179/142 106/167/134 105/166/133
f 92/139/111 101/232/187 91/140/110
f 33/53/42 30/51/40 99/154/123
f 86/132/104 23/33/26 58/90/71
f 82/128/100 58/90/71 60/94/73
f 74/117/92 61/95/74 65/105/80
f 60/94/73 61/95/74 74/117/92
f 68/191/153 66/233/188 42/65/54
f 43/64/53 66/233/188 51/234/189
f 66/233/188 43/64/53 42/65/54
f 23/33/26 57/88/70 58/90/71
f 23/33/26 18/32/24 57/88/70
f 18/32/24 19/91/25 57/88/70
f 51/234/189 48/75/59 43/64/53
f 41/62/51 43/64/53 48/75/59
f 46/67/56 5/12/7 6/7/5
f 46/68/56 8/14/9 5/11/7
f 46/67/56 6/7/5 35/56/45
f 29/50/39 35/56/45 6/7/5
f 3/5/4 29/50/39 6/7/5
f 15/21/16 14/23/18 143/235/190
f 11/17/12 15/20/191 143/236/192
f 11/17/12 143/236/192 10/15/10
f 10/27/22 143/235/190 14/23/18
