# ('FARMS composite mesh',)
mtllib link_body_23_composite.mtl

o link_body_23
usemtl link_body_23_composite
v 0.75833500 -2.57230300 -5.43425800
v 0.75833500 -2.57230300 -5.43425800
v 0.75833500 -2.57230300 -5.43425800
v -2.22587700 -2.65792200 -5.49676000
v -2.22587700 -2.65792200 -5.49676000
v -2.22587700 -2.65792200 -5.49676000
v 0.20795400 -1.73521400 -5.42908400
v 1.43333400 -1.81627300 -6.03148400
v 1.43333400 -1.81627300 -6.03148400
v 0.03545000 -3.10224000 -4.63575600
v 0.03545000 -3.10224000 -4.63575600
v 0.88353700 -0.79355400 -6.04590400
v 0.88784400 0.68645100 -6.04218700
v -0.09683200 0.39239500 -5.49755100
v 2.08570800 -0.87679800 -6.41132700
v 2.08570800 -0.87679800 -6.41132700
v 1.84775900 0.60675200 -6.40815800
v 1.84775900 0.60675200 -6.40815800
v -1.55241900 1.50971800 -6.22011400
v 1.31791300 1.88713600 -5.96429400
v 1.31791300 1.88713600 -5.96429400
v -0.99991600 -0.49701000 -6.53000300
v -2.04044800 -0.73807700 -6.15357500
v -1.95825000 0.34889700 -6.22290400
v -1.59982300 -1.62987800 -6.16328500
v -3.03021700 -0.75576500 -5.55731500
v -2.98000600 1.08476600 -5.52253100
v -2.19641800 2.58416600 -5.54774300
v -2.19641800 2.58416600 -5.54774300
v -3.91983700 0.52177200 -4.70101500
v -3.91983700 0.52177200 -4.70101500
v -3.41999500 2.30984600 -4.73737300
v -3.41999500 2.30984600 -4.73737300
v -3.44161300 3.63374200 -3.71523800
v -3.44161300 3.63374200 -3.71523800
v -4.08559300 2.65163500 -3.69761200
v -2.87814300 3.15743900 -4.71868100
v -2.87814300 3.15743900 -4.71868100
v -2.87814300 3.15743900 -4.71868100
v -0.30391500 3.50063200 -3.91014000
v -0.30391500 3.50063200 -3.91014000
v -0.30391500 3.50063200 -3.91014000
v 0.29761300 2.93493400 -4.95796100
v 0.29761300 2.93493400 -4.95796100
v 0.66825800 2.57517600 -5.38994600
v 0.66825800 2.57517600 -5.38994600
v 0.66825800 2.57517600 -5.38994600
v -0.46691300 2.24745800 -4.65165000
v -0.46691300 2.24745800 -4.65165000
v -1.08806800 2.59378300 -3.67843900
v -1.08806800 2.59378300 -3.67843900
v -0.94970300 0.51243400 -4.61676200
v -0.94970300 0.51243400 -4.61676200
v -1.62677200 0.43898400 -3.64841200
v -0.81382900 -1.26698400 -4.63405900
v -0.81382900 -1.26698400 -4.63405900
v -1.42218400 -1.67321600 -3.64841200
v -1.42218400 -1.67321600 -3.64841200
v -1.42218400 -1.67321600 -3.64841200
v -2.11180600 -0.53611200 -2.56183700
v -1.97030600 -2.36393300 -1.86329600
v -1.97030600 -2.36393300 -1.86329600
v -0.40373800 -3.53758700 -3.80857300
v -0.40373800 -3.53758700 -3.80857300
v -0.40373800 -3.53758700 -3.80857300
v -1.02058200 -3.79795900 -2.48950700
v -1.02058200 -3.79795900 -2.48950700
v -4.24592100 -4.07101100 -1.25426600
v -4.24592100 -4.07101100 -1.25426600
v -3.93857100 -3.95685600 -2.51789800
v -3.93857100 -3.95685600 -2.51789800
v -1.35246100 -3.83090400 -1.34178400
v -1.35246100 -3.83090400 -1.34178400
v -1.35246100 -3.83090400 -1.34178400
v -1.64925200 -3.59439300 0.00714800
v -1.64925200 -3.59439300 0.00714800
v -4.60198100 -3.51055500 1.08619800
v -4.60198100 -3.51055500 1.08619800
v -1.78891700 -3.01296700 1.47182700
v -1.78891700 -3.01296700 1.47182700
v -4.50407500 -3.86580900 0.05596600
v -4.50407500 -3.86580900 0.05596600
v -2.29833700 -2.06970500 0.06144400
v -2.34151400 -1.25112000 1.27563200
v -2.44025700 -0.58101400 -1.33841200
v -2.55469100 0.52896800 -0.00000100
v -2.22208100 1.93705700 -1.23654000
v -2.13412800 2.50224300 -0.00000100
v -2.42968100 0.74337100 1.28629400
v -1.77988000 3.00781400 1.48229000
v -1.77988000 3.00781400 1.48229000
v -2.09588400 -0.59045800 2.60610400
v -1.83304700 1.00596900 3.14603700
v -1.60961300 2.34914900 2.85413900
v -1.60961300 2.34914900 2.85413900
v -0.74271500 1.40827400 4.66018100
v -0.74271500 1.40827400 4.66018100
v -0.74271500 1.40827400 4.66018100
v -4.60474600 3.50659600 1.09045400
v -4.60474600 3.50659600 1.09045400
v -4.55931700 2.81303000 2.52435100
v -4.55931700 2.81303000 2.52435100
v -5.34360000 1.93385200 0.08609200
v -4.51517500 3.85784800 0.07950800
v -4.51517500 3.85784800 0.07950800
v -1.65203600 3.58254200 0.05614800
v -1.65203600 3.58254200 0.05614800
v -0.01108000 0.97709500 5.43731300
v -0.01108000 0.97709500 5.43731300
v -5.19952400 2.01285300 1.30977500
v -5.09386500 0.65929700 2.60859900
v -5.44164100 0.00000000 1.29892000
v -5.53499500 -0.77200800 0.00000000
v -5.24940500 -1.13299900 1.94276500
v -4.55312800 -2.78754600 2.57388400
v -4.55312800 -2.78754600 2.57388400
v -5.10839700 -2.57080900 0.65493700
v -4.56910400 -0.61810500 3.77361200
v -4.56910400 -0.61810500 3.77361200
v -4.20149500 -2.20807600 3.74438000
v -4.20149500 -2.20807600 3.74438000
v -4.20149500 -2.20807600 3.74438000
v -3.88973300 0.49807400 4.73833500
v -3.88973300 0.49807400 4.73833500
v -4.52452900 1.07998000 3.69899900
v -3.61109100 -1.60331800 4.81590200
v -3.61109100 -1.60331800 4.81590200
v 0.86861800 -0.53947200 6.04128900
v 0.86861800 -0.53947200 6.04128900
v 0.86861800 -0.53947200 6.04128900
v -2.88213300 -0.93210500 5.63234400
v -2.88213300 -0.93210500 5.63234400
v -2.88213300 -0.93210500 5.63234400
v -2.88213300 -0.93210500 5.63234400
v 0.00090400 -0.95475000 5.46875100
v 0.00090400 -0.95475000 5.46875100
v -1.18770200 -1.78365500 3.98070200
v -1.18770200 -1.78365500 3.98070200
v -1.18770200 -1.78365500 3.98070200
v -0.93269700 -0.40955800 4.65381400
v -0.93269700 -0.40955800 4.65381400
v 0.97337300 0.48266700 6.10105200
v 0.97337300 0.48266700 6.10105200
v 0.97337300 0.48266700 6.10105200
v 1.52559300 -0.07962400 6.30021800
v 1.52559300 -0.07962400 6.30021800
v 1.52559300 -0.07962400 6.30021800
v -3.65719900 1.67982000 4.70542700
v -3.65719900 1.67982000 4.70542700
v -3.65719900 1.67982000 4.70542700
v -2.95389100 1.03156500 5.53568900
v -2.95389100 1.03156500 5.53568900
v -2.95389100 1.03156500 5.53568900
v 0.11421200 -0.00059000 6.50031900
v 0.11421200 -0.00059000 6.50031900
v 0.11421200 -0.00059000 6.50031900
v -2.07501300 -0.38419800 6.16333000
v -2.07501300 -0.38419800 6.16333000
v -2.07577300 0.37938400 6.16588700
v -1.60434900 -0.00000000 6.34017500
v -4.20584200 2.21105500 3.73775700
v -4.20584200 2.21105500 3.73775700
v -1.61115800 -0.62920600 3.64841100
v -1.66887400 -2.49155800 2.54903100
v -1.66887400 -2.49155800 2.54903100
v -5.23146500 -1.89744400 -1.31256900
v -5.44164100 0.00000000 -1.29892100
v -4.94632200 -1.68744900 -2.56469500
v -5.09386500 0.65929700 -2.60860000
v -4.40095900 -1.70370700 -3.71500200
v -4.40095900 -1.70370700 -3.71500200
v -4.60927400 0.44698700 -3.71500100
v -3.78148900 -1.29006500 -4.71862600
v -3.78148900 -1.29006500 -4.71862600
v -2.95153700 -3.18634600 -4.65892100
v -2.95153700 -3.18634600 -4.65892100
v -3.46779900 -3.63286000 -3.69625100
v -3.46779900 -3.63286000 -3.69625100
v -3.46779900 -3.63286000 -3.69625100
v -4.73571600 2.35391500 -2.54792100
v -5.21547200 1.97237200 -1.25911400
v -4.23464600 4.07388700 -1.30390800
v -4.23464600 4.07388700 -1.30390800
v -0.99899100 3.79589000 -2.50990100
v -0.99899100 3.79589000 -2.50990100
v -3.90689400 3.94907900 -2.56631800
v -3.90689400 3.94907900 -2.56631800
v -1.35585900 3.82992000 -1.34555900
v -1.35585900 3.82992000 -1.34555900
v -1.94223200 1.80296000 -2.47771000
vn 0.03441915 -0.63824918 -0.76906001
vn 0.03540933 -0.84715259 -0.53016853
vn 0.50553423 0.31932067 0.80154193
vn 0.01032222 -0.56781254 -0.82309318
vn 0.03788320 -0.86478685 -0.50070806
vn -0.58157888 -0.27032938 -0.76726008
vn 0.56750848 0.24451263 0.78622369
vn 0.40142554 0.22830593 0.88698024
vn 0.00620017 -0.44570774 -0.89515707
vn 0.68539946 0.34371594 0.64193997
vn 0.02050901 -0.86549386 -0.50049950
vn 0.43236354 0.11478692 0.89436331
vn 0.43975667 -0.12233005 0.88974684
vn 0.61300775 -0.06298408 0.78756238
vn 0.01687141 -0.17077094 -0.98516630
vn 0.29567260 0.09906205 0.95013916
vn 0.02768944 0.14679490 -0.98877932
vn 0.33350207 -0.05474644 0.94115843
vn -0.19999026 0.30609110 -0.93075890
vn 0.03592089 0.45315339 -0.89070854
vn 0.46467593 -0.21298684 0.85948408
vn -0.11098162 -0.08438631 -0.99023332
vn -0.43258901 -0.11710834 -0.89395323
vn -0.40275026 0.06144753 -0.91324500
vn -0.21820708 -0.34997080 -0.91099183
vn -0.61013853 -0.11814591 -0.78343635
vn -0.59720723 0.15338943 -0.78728344
vn -0.39603368 0.38576113 -0.83327407
vn 0.01807325 0.82390598 -0.56643826
vn -0.69928372 0.06196884 -0.71215317
vn -0.81664235 0.08201582 -0.57128686
vn -0.61164198 0.28952142 -0.73625501
vn -0.74234279 0.32596086 -0.58538593
vn -0.72082855 0.46606952 -0.51301598
vn 0.02083842 0.94952143 -0.31300929
vn -0.79777408 0.34723105 -0.49293723
vn -0.56850220 0.37953056 -0.72990534
vn -0.67453514 0.44422224 -0.58963459
vn 0.01539568 0.88275134 -0.46958816
vn 0.03198491 0.92682257 -0.37413487
vn 0.66569497 -0.44223767 0.60106243
vn 0.72452578 -0.50727632 0.46661882
vn 0.03150643 0.82293338 -0.56726360
vn 0.61191621 -0.36873642 0.69970851
vn 0.04320474 0.66395898 -0.74651981
vn 0.03665134 0.78314515 -0.62075789
vn 0.55243334 -0.25161442 0.79467452
vn 0.63811145 -0.33183414 0.69476606
vn 0.78925552 -0.20800153 0.57776386
vn 0.67954226 -0.43704742 0.58924686
vn 0.81834164 -0.33430710 0.46749943
vn 0.81650183 -0.08097116 0.57163663
vn 0.71209715 -0.06794254 0.69878570
vn 0.87112171 -0.06144218 0.48720819
vn 0.82781255 0.07311252 0.55622023
vn 0.69688903 0.22323072 0.68155244
vn 0.73352178 0.34265865 0.58696751
vn 0.87605535 0.12662942 0.46528702
vn 0.81914622 0.38615928 0.42412318
vn 0.93824933 0.05976661 0.34075819
vn 0.94080722 0.27632303 0.19628385
vn 0.84316158 0.40298020 0.35592908
vn 0.79862872 0.39744250 0.45191994
vn 0.73669035 0.35287448 0.57685954
vn 0.02581251 -0.92720531 -0.37366298
vn 0.83265719 0.41257640 0.36940862
vn 0.06301874 -0.99165293 -0.11248599
vn 0.08090522 -0.99361038 0.07869402
vn -0.89719116 -0.40323284 -0.18014245
vn 0.04556992 -0.98930814 -0.13853802
vn -0.85365206 -0.39820795 -0.33572101
vn 0.08476351 -0.99342875 0.07690558
vn 0.85346497 0.45179940 0.25975922
vn 0.89805730 0.42216505 0.12357083
vn 0.91537183 0.40053709 0.04079765
vn 0.09802883 -0.95807430 0.26922848
vn 0.09750048 -0.91876635 0.38257294
vn -0.89725247 -0.41719709 0.14451505
vn 0.93627315 0.31305534 -0.15933909
vn 0.10553908 -0.90905210 0.40309526
vn -0.91596538 -0.39512826 -0.06986471
vn 0.09579193 -0.96070854 0.26050529
vn 0.96485844 0.26274973 -0.00328206
vn 0.97430357 0.15712691 -0.16138058
vn 0.98482174 0.06285863 0.16178670
vn 0.99804636 -0.06195658 0.00805314
vn 0.95323429 -0.25462126 0.16282629
vn 0.94611776 -0.32378267 -0.00509588
vn 0.97872537 -0.10931405 -0.17362915
vn 0.94205520 -0.29252188 -0.16420397
vn 0.10467552 0.90927698 0.40281312
vn 0.94013302 0.08766565 -0.32933971
vn 0.89452522 -0.14080990 -0.42426077
vn 0.90869699 -0.24117514 -0.34074085
vn 0.10030195 0.90139515 0.42122001
vn 0.20567276 0.92450499 0.32091938
vn 0.70618657 -0.07133645 -0.70442291
vn 0.82077431 -0.14069471 -0.55365560
vn 0.09623343 0.91868748 0.38308282
vn -0.91327088 0.39046299 0.11608165
vn -0.90573874 0.28952038 0.30954045
vn 0.08818514 0.89902252 0.42893110
vn -0.97032322 0.24178184 0.00379347
vn -0.91336103 0.40528570 -0.03892466
vn 0.09127097 0.96043926 0.26310843
vn 0.10062199 0.95603411 0.27545236
vn 0.91220856 -0.40796220 0.03797873
vn 0.64107909 -0.03404304 -0.76671942
vn 0.06048070 0.84956090 0.52401179
vn -0.94905455 0.25727364 0.18194984
vn -0.93767718 0.09556436 0.33410920
vn -0.98881612 0.02118111 0.14762802
vn -0.99621994 -0.08685373 0.00150470
vn -0.95231364 -0.15984742 0.25989907
vn -0.90993108 -0.27858721 0.30726958
vn 0.08852134 -0.89863010 0.42968351
vn -0.94014609 -0.33273353 0.07357810
vn -0.78612342 -0.12379306 0.60554541
vn -0.90093217 -0.07284712 0.42780198
vn -0.90080147 -0.21520371 0.37715260
vn 0.09316265 -0.89954647 0.42677496
vn -0.80748066 -0.19691667 0.55605648
vn -0.81980341 0.10957862 0.56206307
vn -0.70625315 0.01613337 0.70777553
vn -0.86325835 0.15213712 0.48128922
vn 0.06267224 -0.86519639 0.49750115
vn -0.76632527 -0.11760193 0.63159747
vn 0.05003753 -0.60612134 0.79379668
vn 0.04054761 -0.82313753 0.56639254
vn 0.49707319 -0.00020940 -0.86770859
vn 0.01296844 -0.77804861 0.62807020
vn -0.01302828 -0.65890410 0.75211413
vn 0.01513218 -0.70725741 0.70679415
vn -0.65165811 -0.02319908 0.75815797
vn 0.63623298 0.04691442 -0.77006924
vn 0.06306643 -0.85810619 0.50958453
vn 0.70805575 0.20030687 -0.67715154
vn 0.86532311 0.18401889 -0.46621129
vn 0.09583977 -0.90048635 0.42419226
vn 0.69379509 0.07561472 -0.71619187
vn 0.82374568 -0.00231730 -0.56695475
vn 0.49128813 -0.00024860 -0.87099708
vn 0.04192295 0.82283904 0.56672602
vn 0.09633388 0.52658138 0.84464894
vn 0.14988203 0.45762922 0.87641935
vn 0.08298910 -0.57633756 0.81298698
vn 0.35556126 0.01819739 -0.93447581
vn -0.69052478 0.15554631 0.70638578
vn -0.79660883 0.18778690 0.57458720
vn 0.07049568 0.87433860 0.48016911
vn -0.64256074 0.05877714 0.76397706
vn 0.02487279 0.79807033 0.60205074
vn 0.00180682 0.68566479 0.72791520
vn 0.01351926 0.60637898 0.79506085
vn 0.00355947 -0.62244159 0.78265816
vn 0.01513218 -0.70725741 0.70679415
vn 0.01513218 -0.70725741 0.70679415
vn -0.43822429 -0.05171769 0.89737659
vn -0.27690518 0.36193676 0.89012656
vn -0.14985978 -0.00112278 0.98870662
vn -0.86057377 0.22588611 0.45649562
vn 0.09263582 0.90039706 0.42509263
vn 0.86860287 0.07891934 -0.48918381
vn 0.92128443 0.23529626 -0.30962990
vn 0.10721507 -0.90369691 0.41453206
vn -0.94839358 -0.27053280 -0.16541346
vn -0.98679740 0.00565065 -0.16186092
vn -0.91385899 -0.22956970 -0.33490221
vn -0.93843169 0.08101453 -0.33583123
vn -0.86561814 -0.20302758 -0.45769536
vn -0.73460464 -0.34691817 -0.58309846
vn -0.87077452 0.05793780 -0.48825704
vn -0.69078234 -0.24385767 -0.68070052
vn -0.82780546 -0.07311101 -0.55623098
vn 0.02851715 -0.89084513 -0.45341120
vn -0.69002519 -0.32798937 -0.64520401
vn 0.01801925 -0.94935106 -0.31370028
vn -0.74022326 -0.36355448 -0.56559497
vn -0.81000885 -0.39601714 -0.43249982
vn -0.88909030 0.31636738 -0.33080222
vn -0.95022801 0.26577610 -0.16257240
vn -0.88562103 0.42515786 -0.18685870
vn 0.07620136 0.99446690 0.07231143
vn 0.06337825 0.99071030 -0.12031752
vn 0.83324781 -0.43178960 0.34533439
vn 0.04643519 0.98855821 -0.14351458
vn -0.82804307 0.45082227 -0.33332259
vn 0.08819231 0.99315255 0.07661679
vn 0.89086605 -0.40564181 0.20448083
vn 0.91502058 -0.23856373 0.32530706
vt 0.89235400 0.74213300
vt 0.22292500 0.81513900
vt 0.93139500 0.85908300
vt 0.91183900 0.74585700
vt 0.24271600 0.81560900
vt 0.91183900 0.74585700
vt 0.93728900 0.85942900
vt 0.93227400 0.85298200
vt 0.88710300 0.74534100
vt 0.93172000 0.86473600
vt 0.22762000 0.81084200
vt 0.93900900 0.85273600
vt 0.94571300 0.84802200
vt 0.94811100 0.85434400
vt 0.88177900 0.74955100
vt 0.93406700 0.84643400
vt 0.88159200 0.75791300
vt 0.94170900 0.84302800
vt 0.90261600 0.76754400
vt 0.88352500 0.76553800
vt 0.94952700 0.84187700
vt 0.90138100 0.75594200
vt 0.90841000 0.75605600
vt 0.90660900 0.76183100
vt 0.90659100 0.75061300
vt 0.91484300 0.75728500
vt 0.91236600 0.76717200
vt 0.90552500 0.77419100
vt 0.76113200 0.44952500
vt 0.91910400 0.76535600
vt 0.87730600 0.74812900
vt 0.91377000 0.77433600
vt 0.87750600 0.73772000
vt 0.87178600 0.73102600
vt 0.75200900 0.46013700
vt 0.87163100 0.73770900
vt 0.90925900 0.77816200
vt 0.87745000 0.73198800
vt 0.75709700 0.45524500
vt 0.75151300 0.44021300
vt 0.96297500 0.84569100
vt 0.87700600 0.63459600
vt 0.75679500 0.43489800
vt 0.95814300 0.84416000
vt 0.88692400 0.77011200
vt 0.75886800 0.43170900
vt 0.95510900 0.84326200
vt 0.95792200 0.85051800
vt 0.87800400 0.62652600
vt 0.96183500 0.85284800
vt 0.87399300 0.62971400
vt 0.87406900 0.61738600
vt 0.95188000 0.85864900
vt 0.86915900 0.61839900
vt 0.87015500 0.60857100
vt 0.94328400 0.86354800
vt 0.94373000 0.86819300
vt 0.86439900 0.60802700
vt 0.11065800 0.98244400
vt 0.86159400 0.61535400
vt 0.85394600 0.60785900
vt 0.11232200 0.97230000
vt 0.11959600 0.98660600
vt 0.93139500 0.86854600
vt 0.23045400 0.80635900
vt 0.11914700 0.97848600
vt 0.23451900 0.79912900
vt 0.25589800 0.79246000
vt 0.85838000 0.77232700
vt 0.25385500 0.79942100
vt 0.86541800 0.77095500
vt 0.23674100 0.79279500
vt 0.11959600 0.97180600
vt 0.84788700 0.60229900
vt 0.84165300 0.60610100
vt 0.23879700 0.78529700
vt 0.25844500 0.77941800
vt 0.84534300 0.77038100
vt 0.83556500 0.61205200
vt 0.23989200 0.77709100
vt 0.85107700 0.77194400
vt 0.25768900 0.78518100
vt 0.84493100 0.61316900
vt 0.84061800 0.61986800
vt 0.85537500 0.61743800
vt 0.85110000 0.62579100
vt 0.86042600 0.63051800
vt 0.85540400 0.63613500
vt 0.84503500 0.62979700
vt 0.84894300 0.64227200
vt 0.72233500 0.45121600
vt 0.83529700 0.62633600
vt 0.83606300 0.63579600
vt 0.84048600 0.64213500
vt 0.71445900 0.44963000
vt 0.70375100 0.44339700
vt 0.98809900 0.79895700
vt 0.82903800 0.64227200
vt 0.72604300 0.46956500
vt 0.84500700 0.73466500
vt 0.83710700 0.73806200
vt 0.71787300 0.46872600
vt 0.85052100 0.74461400
vt 0.85060100 0.73265300
vt 0.73169600 0.46914500
vt 0.73033700 0.45075900
vt 0.85741700 0.64218900
vt 0.98649300 0.80420000
vt 0.69896000 0.43842800
vt 0.84376600 0.74382200
vt 0.83665300 0.75042300
vt 0.84387800 0.75470200
vt 0.85108800 0.75889000
vt 0.84039400 0.75996100
vt 0.83708300 0.76655700
vt 0.25832100 0.77105200
vt 0.84761000 0.76692500
vt 0.58247300 0.92826200
vt 0.83034300 0.75554200
vt 0.83063300 0.76267600
vt 0.25614800 0.76445600
vt 0.59160900 0.92831200
vt 0.82505800 0.74807400
vt 0.57772700 0.93420600
vt 0.83068700 0.74678200
vt 0.25239200 0.75839400
vt 0.58944400 0.93293900
vt 0.59160900 0.96316800
vt 0.22292500 0.75125600
vt 0.97914200 0.81140800
vt 0.24772600 0.75372700
vt 0.58715700 0.93856000
vt 0.96789000 0.96911800
vt 0.58715700 0.93856000
vt 0.97595900 0.80607200
vt 0.22857700 0.75453200
vt 0.97023900 0.79895700
vt 0.82546100 0.62431400
vt 0.23624200 0.76296100
vt 0.97796500 0.79939800
vt 0.82505900 0.63294100
vt 0.98483300 0.81115100
vt 0.69464900 0.43170900
vt 0.58633100 0.96532100
vt 0.59030500 0.96803900
vt 0.59030500 0.96803900
vt 0.98236200 0.81530300
vt 0.57181600 0.93741300
vt 0.82522400 0.74145000
vt 0.70501300 0.46210700
vt 0.57653600 0.94095400
vt 0.69986500 0.45694300
vt 0.57653600 0.94095400
vt 0.58743100 0.95909700
vt 0.58743100 0.95909700
vt 0.96789000 0.94881400
vt 0.96955400 0.96329700
vt 0.58565500 0.94451300
vt 0.58157300 0.94561700
vt 0.58442800 0.94808300
vt 0.83047200 0.74019000
vt 0.71080000 0.46602200
vt 0.82981900 0.62892700
vt 0.83124500 0.61713700
vt 0.23924000 0.77103000
vt 0.85845200 0.76383900
vt 0.85825900 0.75472900
vt 0.86541800 0.76203700
vt 0.86553400 0.75047700
vt 0.87187200 0.76070600
vt 0.92480100 0.75388300
vt 0.87174400 0.75030200
vt 0.92032300 0.75535800
vt 0.87750600 0.75699100
vt 0.24743100 0.81109500
vt 0.91714600 0.74392600
vt 0.25077700 0.80586700
vt 0.92099300 0.74213300
vt 0.87200000 0.76808700
vt 0.86517900 0.74091300
vt 0.85798600 0.74409600
vt 0.85829400 0.73083400
vt 0.73926000 0.46709900
vt 0.74423800 0.44579300
vt 0.87073600 0.63837800
vt 0.74601500 0.46419400
vt 0.86533900 0.73062500
vt 0.73800600 0.44866400
vt 0.86499900 0.64069800
vt 0.86634700 0.62744600
f 9/9/9 1/1/1 4/4/4
f 5/5/5 2/2/2 11/11/11
f 7/7/7 10/10/10 3/3/3
f 3/3/3 12/12/12 7/7/7
f 3/3/3 8/8/8 12/12/12
f 7/7/7 12/12/12 14/14/14
f 13/13/13 12/12/12 18/18/18
f 14/14/14 12/12/12 13/13/13
f 8/8/8 16/16/16 12/12/12
f 18/18/18 12/12/12 16/16/16
f 17/17/17 15/15/15 22/22/22
f 22/22/22 19/19/19 17/17/17
f 20/20/20 17/17/17 19/19/19
f 21/21/21 13/13/13 18/18/18
f 24/24/24 19/19/19 22/22/22
f 23/23/23 24/24/24 22/22/22
f 25/25/25 23/23/23 22/22/22
f 22/22/22 9/9/9 25/25/25
f 22/22/22 15/15/15 9/9/9
f 23/23/23 25/25/25 6/6/6
f 4/4/4 25/25/25 9/9/9
f 26/26/26 24/24/24 23/23/23
f 27/27/27 19/19/19 24/24/24
f 24/24/24 26/26/26 27/27/27
f 32/32/32 28/28/28 27/27/27
f 28/28/28 19/19/19 27/27/27
f 30/30/30 27/27/27 26/26/26
f 32/32/32 27/27/27 30/30/30
f 33/33/33 34/34/34 38/38/38
f 36/36/36 34/34/34 33/33/33
f 37/37/37 28/28/28 32/32/32
f 36/36/36 33/33/33 31/31/31
f 35/35/35 40/40/40 39/39/39
f 39/39/39 40/40/40 43/43/43
f 39/39/39 43/43/43 29/29/29
f 41/41/41 48/48/48 44/44/44
f 43/43/43 46/46/46 29/29/29
f 47/47/47 44/44/44 48/48/48
f 50/50/50 48/48/48 41/41/41
f 52/52/52 49/49/49 51/51/51
f 48/48/48 53/53/53 14/14/14
f 48/48/48 14/14/14 47/47/47
f 55/55/55 52/52/52 54/54/54
f 52/52/52 51/51/51 54/54/54
f 56/56/56 14/14/14 53/53/53
f 10/10/10 56/56/56 57/57/57
f 10/10/10 7/7/7 56/56/56
f 56/56/56 7/7/7 14/14/14
f 55/55/55 54/54/54 58/58/58
f 58/58/58 60/60/60 61/61/61
f 54/54/54 60/60/60 58/58/58
f 66/66/66 59/59/59 62/62/62
f 66/66/66 63/63/63 59/59/59
f 10/10/10 57/57/57 64/64/64
f 70/70/70 65/65/65 67/67/67
f 67/67/67 68/68/68 70/70/70
f 68/68/68 67/67/67 72/72/72
f 66/66/66 62/62/62 73/73/73
f 75/75/75 74/74/74 61/61/61
f 68/68/68 72/72/72 76/76/76
f 77/77/77 76/76/76 80/80/80
f 77/77/77 82/82/82 76/76/76
f 79/79/79 75/75/75 83/83/83
f 76/76/76 82/82/82 68/68/68
f 61/61/61 83/83/83 75/75/75
f 79/79/79 83/83/83 84/84/84
f 84/84/84 83/83/83 86/86/86
f 61/61/61 85/85/85 83/83/83
f 85/85/85 86/86/86 83/83/83
f 85/85/85 87/87/87 86/86/86
f 87/87/87 88/88/88 86/86/86
f 89/89/89 86/86/86 88/88/88
f 84/84/84 86/86/86 89/89/89
f 89/89/89 90/90/90 94/94/94
f 89/89/89 88/88/88 90/90/90
f 84/84/84 89/89/89 92/92/92
f 89/89/89 93/93/93 92/92/92
f 89/89/89 94/94/94 93/93/93
f 99/99/99 96/96/96 95/95/95
f 98/98/98 93/93/93 94/94/94
f 95/95/95 91/91/91 99/99/99
f 101/101/101 100/100/100 110/110/110
f 109/109/109 99/99/99 102/102/102
f 103/103/103 100/100/100 104/104/104
f 110/110/110 100/100/100 103/103/103
f 99/99/99 106/106/106 105/105/105
f 91/91/91 106/106/106 99/99/99
f 99/99/99 109/109/109 96/96/96
f 111/111/111 110/110/110 112/112/112
f 101/101/101 110/110/110 111/111/111
f 112/112/112 110/110/110 103/103/103
f 112/112/112 114/114/114 111/111/111
f 112/112/112 103/103/103 113/113/113
f 113/113/113 114/114/114 112/112/112
f 114/114/114 119/119/119 111/111/111
f 114/114/114 117/117/117 115/115/115
f 115/115/115 119/119/119 114/114/114
f 113/113/113 117/117/117 114/114/114
f 115/115/115 120/120/120 119/119/119
f 118/118/118 122/122/122 127/127/127
f 127/127/127 124/124/124 118/118/118
f 119/119/119 123/123/123 125/125/125
f 111/111/111 119/119/119 125/125/125
f 129/129/129 126/126/126 136/136/136
f 129/129/129 131/131/131 126/126/126
f 127/127/127 134/134/134 124/124/124
f 126/126/126 121/121/121 136/136/136
f 140/140/140 108/108/108 135/135/135
f 108/108/108 142/142/142 135/135/135
f 130/130/130 135/135/135 142/142/142
f 137/137/137 140/140/140 135/135/135
f 139/139/139 136/136/136 77/77/77
f 116/116/116 77/77/77 136/136/136
f 121/121/121 116/116/116 136/136/136
f 147/147/147 130/130/130 142/142/142
f 144/144/144 154/154/154 145/145/145
f 150/150/150 143/143/143 109/109/109
f 152/152/152 143/143/143 150/150/150
f 154/154/154 144/144/144 153/153/153
f 157/157/157 133/133/133 156/156/156
f 160/160/160 158/158/158 155/155/155
f 153/153/153 159/159/159 154/154/154
f 159/159/159 160/160/160 154/154/154
f 128/128/128 155/155/155 132/132/132
f 146/146/146 155/155/155 128/128/128
f 160/160/160 159/159/159 158/158/158
f 134/134/134 158/158/158 159/159/159
f 134/134/134 159/159/159 151/151/151
f 148/148/148 124/124/124 151/151/151
f 124/124/124 134/134/134 151/151/151
f 125/125/125 149/149/149 161/161/161
f 149/149/149 125/125/125 123/123/123
f 150/150/150 109/109/109 162/162/162
f 162/162/162 109/109/109 102/102/102
f 111/111/111 161/161/161 101/101/101
f 111/111/111 125/125/125 161/161/161
f 140/140/140 97/97/97 108/108/108
f 141/141/141 93/93/93 98/98/98
f 163/163/163 141/141/141 138/138/138
f 141/141/141 163/163/163 93/93/93
f 92/92/92 93/93/93 163/163/163
f 163/163/163 138/138/138 92/92/92
f 138/138/138 164/164/164 92/92/92
f 77/77/77 165/165/165 139/139/139
f 164/164/164 79/79/79 84/84/84
f 77/77/77 80/80/80 165/165/165
f 164/164/164 84/84/84 92/92/92
f 78/78/78 117/117/117 81/81/81
f 117/117/117 69/69/69 81/81/81
f 117/117/117 166/166/166 69/69/69
f 113/113/113 166/166/166 117/117/117
f 115/115/115 117/117/117 78/78/78
f 71/71/71 69/69/69 166/166/166
f 113/113/113 167/167/167 166/166/166
f 167/167/167 168/168/168 166/166/166
f 71/71/71 166/166/166 168/168/168
f 167/167/167 169/169/169 168/168/168
f 172/172/172 168/168/168 169/169/169
f 170/170/170 71/71/71 168/168/168
f 172/172/172 170/170/170 168/168/168
f 36/36/36 172/172/172 169/169/169
f 36/36/36 31/31/31 172/172/172
f 174/174/174 172/172/172 31/31/31
f 174/174/174 170/170/170 172/172/172
f 171/171/171 173/173/173 176/176/176
f 26/26/26 176/176/176 173/173/173
f 26/26/26 173/173/173 30/30/30
f 26/26/26 6/6/6 176/176/176
f 175/175/175 5/5/5 65/65/65
f 177/177/177 175/175/175 65/65/65
f 171/171/171 176/176/176 178/178/178
f 170/170/170 179/179/179 71/71/71
f 70/70/70 177/177/177 65/65/65
f 36/36/36 169/169/169 180/180/180
f 181/181/181 180/180/180 169/169/169
f 169/169/169 167/167/167 181/181/181
f 103/103/103 181/181/181 167/167/167
f 104/104/104 181/181/181 103/103/103
f 180/180/180 181/181/181 182/182/182
f 104/104/104 182/182/182 181/181/181
f 188/188/188 184/184/184 183/183/183
f 186/186/186 183/183/183 184/184/184
f 183/183/183 105/105/105 188/188/188
f 180/180/180 182/182/182 187/187/187
f 106/106/106 188/188/188 105/105/105
f 190/190/190 189/189/189 87/87/87
f 87/87/87 189/189/189 107/107/107
f 190/190/190 185/185/185 189/189/189
f 51/51/51 185/185/185 190/190/190
f 190/190/190 87/87/87 85/85/85
f 54/54/54 190/190/190 60/60/60
f 51/51/51 190/190/190 54/54/54
f 190/190/190 85/85/85 60/60/60
f 36/36/36 187/187/187 34/34/34
f 186/186/186 40/40/40 35/35/35
f 186/186/186 184/184/184 40/40/40
f 36/36/36 180/180/180 187/187/187
f 42/42/42 185/185/185 51/51/51
f 103/103/103 167/167/167 113/113/113
f 107/107/107 90/90/90 88/88/88
f 88/88/88 87/87/87 107/107/107
f 61/61/61 60/60/60 85/85/85
f 11/11/11 65/65/65 5/5/5
f 28/28/28 45/45/45 20/20/20
f 14/14/14 21/21/21 47/47/47
f 28/28/28 20/20/20 19/19/19
f 23/23/23 6/6/6 26/26/26
f 14/14/14 13/13/13 21/21/21

