# ('FARMS composite mesh',)
mtllib link_leg_1_R_0_composite.mtl

o link_leg_1_R_0
usemtl link_leg_1_R_0_composite
v -0.24712900 3.10027900 3.29200100
v 0.02818200 3.02717600 3.18604200
v -0.43072300 2.34858500 2.99017300
v -0.43072300 2.34858500 2.99017300
v -0.71081700 4.42713600 3.40640300
v 0.27637900 3.92590800 3.40492400
v 0.96718300 2.66723600 2.86163900
v -0.12398800 5.08522700 3.71106100
v 0.92076100 5.32882100 3.18560800
v 0.92076100 5.32882100 3.18560800
v 0.71795700 5.74689600 3.47366000
v 0.31674300 6.62983100 3.64085900
v 0.99397500 5.85215900 3.18557800
v 0.99397500 5.85215900 3.18557800
v 0.64884500 7.31629800 3.41725000
v 0.51338100 8.60995800 2.70476100
v 1.71862700 8.06717000 2.44813500
v 1.71862700 8.06717000 2.44813500
v 1.71862700 8.06717000 2.44813500
v -0.13055400 7.18529000 3.49321200
v -0.57106400 6.24836900 3.51257600
v -0.73372100 8.40493600 2.69730500
v -0.91827400 7.23806600 2.95426500
v -0.91827400 7.23806600 2.95426500
v -0.37851600 9.10850900 2.30704000
v -0.37851600 9.10850900 2.30704000
v -1.48827800 9.01155500 1.67128900
v -1.48827800 9.01155500 1.67128900
v -1.48827800 9.01155500 1.67128900
v -1.44219900 7.93046000 2.06473100
v -1.44219900 7.93046000 2.06473100
v -1.80602300 8.48376000 1.23336000
v -1.82499800 6.26390300 1.82349100
v -1.73895600 7.72212400 1.41206600
v -1.92209800 7.06851800 0.16493700
v -1.75826100 5.40855000 -0.68541700
v -1.92831700 9.06740300 0.26497600
v -1.92831700 9.06740300 0.26497600
v -1.92831700 9.06740300 0.26497600
v -1.95715500 6.14514600 0.89728700
v -1.97052700 5.10865800 0.50136500
v -1.86499000 4.60072500 1.70975100
v -1.86602900 3.10942000 0.61323200
v -1.69099600 3.29731800 -1.38507800
v -1.65272600 4.53597900 -0.99458400
v -1.86896200 3.27244400 -0.01498900
v -2.12391100 2.54684900 0.07004000
v -2.12391100 2.54684900 0.07004000
v -2.40630900 2.37815500 0.13447700
v -2.40630900 2.37815500 0.13447700
v -1.70243400 3.25889400 1.44888200
v -2.09258600 2.32115400 1.16033200
v -2.09258600 2.32115400 1.16033200
v -2.06763500 2.35407300 -0.92813900
v -2.06763500 2.35407300 -0.92813900
v -1.88407500 2.41906000 1.17413400
v -1.88407500 2.41906000 1.17413400
v -1.32912900 3.22814500 2.40160800
v -1.32912900 3.22814500 2.40160800
v -1.40868400 2.00670700 2.10412000
v -1.40868400 2.00670700 2.10412000
v -1.40868400 2.00670700 2.10412000
v -0.95961700 1.77283100 2.63927300
v -0.95961700 1.77283100 2.63927300
v -0.95961700 1.77283100 2.63927300
v -0.03831700 1.33953700 3.10695800
v -0.20382100 1.11996200 3.24544800
v -0.20382100 1.11996200 3.24544800
v -1.19250800 1.52381200 2.84924500
v -1.19250800 1.52381200 2.84924500
v -1.19250800 1.52381200 2.84924500
v 0.49130800 0.80401200 3.36935300
v 0.49130800 0.80401200 3.36935300
v 0.49130800 0.80401200 3.36935300
v 0.05721100 0.72416700 4.48275100
v 0.05721100 0.72416700 4.48275100
v 0.47079600 0.66865300 4.37974600
v 0.47079600 0.66865300 4.37974600
v 0.25964100 -0.10798300 4.50529700
v -0.86543600 0.33625900 4.35088400
v -1.19060800 1.20106800 4.11550800
v -1.19060800 1.20106800 4.11550800
v -1.99816200 1.51530500 3.50304600
v -1.99816200 1.51530500 3.50304600
v -1.83755600 1.59156500 3.27176900
v -1.77064200 0.50121600 3.91054100
v -2.60367200 1.07956200 3.12059500
v -2.60367200 1.07956200 3.12059500
v -2.61035500 -0.34322700 3.11816900
v -2.61035500 -0.34322700 3.11816900
v -1.73818800 -0.66713500 3.78408500
v -2.32535000 -1.58274400 2.72972400
v -2.32535000 -1.58274400 2.72972400
v -1.17173900 -1.67532000 3.56894000
v -0.35219500 -0.92288600 4.25988000
v 1.22013900 -1.01079200 4.13782400
v -0.36350700 -2.13434800 3.50695100
v 0.51326700 -1.97502500 3.70516500
v 0.85064800 -2.90565000 2.62704100
v 0.85064800 -2.90565000 2.62704100
v 1.81253400 -2.06660800 3.20259900
v 1.81253400 -2.06660800 3.20259900
v 2.53814300 -0.90907500 3.48858300
v 2.66330400 -1.56728100 2.93939600
v 2.66330400 -1.56728100 2.93939600
v 1.84683200 -2.89597000 2.08035000
v 3.06411800 -2.17845000 1.82388000
v 2.81044200 -2.76194900 1.01369300
v 4.00644100 -1.34077600 0.79215800
v 4.00644100 -1.34077600 0.79215800
v 3.52773300 -1.01405400 2.25178600
v 3.52773300 -1.01405400 2.25178600
v 3.52773300 -1.01405400 2.25178600
v 3.53512800 -2.23219200 0.31350900
v 3.53512800 -2.23219200 0.31350900
v 3.91369500 -1.80091600 -0.85832600
v 3.91369500 -1.80091600 -0.85832600
v 3.03533700 -2.87278500 -0.40983000
v 2.17313500 -3.42112400 -0.43604500
v 2.34277200 -3.19668500 -1.75602700
v 3.37244000 -2.31655200 -1.96522000
v 3.37244000 -2.31655200 -1.96522000
v 3.04749800 -2.01335900 -3.14532200
v 3.04749800 -2.01335900 -3.14532200
v 3.04749800 -2.01335900 -3.14532200
v 3.69174600 -1.61352800 -2.40778600
v 3.69174600 -1.61352800 -2.40778600
v 2.07982700 -2.83190300 -3.12803000
v 2.07982700 -2.83190300 -3.12803000
v 0.80476200 -3.18595300 -3.24449200
v 0.80476200 -3.18595300 -3.24449200
v 1.46907000 -3.46648700 -2.16695900
v 0.60470500 -3.65332700 -2.11967900
v 0.95958800 -3.81231700 -1.04986200
v 1.07731300 -3.76358800 0.17286900
v 0.12363100 -3.82457300 0.11698400
v -0.38332400 -3.80963100 -0.94132500
v -0.97562100 -3.60088500 0.50250100
v -0.97562100 -3.60088500 0.50250100
v -1.49840700 -3.48308900 -0.37219000
v -1.49840700 -3.48308900 -0.37219000
v -0.35376600 -3.58976300 -2.27819700
v -0.69373700 -3.07956200 -3.29075500
v -0.69373700 -3.07956200 -3.29075500
v -0.69373700 -3.07956200 -3.29075500
v -1.63246400 -3.33404600 -1.55589900
v -1.63246400 -3.33404600 -1.55589900
v -1.19164800 -3.26737600 -2.48606500
v -1.19164800 -3.26737600 -2.48606500
v -2.27026000 -2.70277800 -2.34700000
v -3.17030000 -1.91718000 -1.90135700
v -2.77473600 -1.51831000 -3.34281400
v -2.77473600 -1.51831000 -3.34281400
v -2.52540500 -2.85452500 -0.28559800
v -1.69684800 -2.57689100 -3.32669400
v -1.69684800 -2.57689100 -3.32669400
v -2.64902900 -2.36949300 1.14564800
v -3.35171500 -1.86700100 -0.10354800
v -1.75466000 -3.03670200 1.26142800
v -1.75466000 -3.03670200 1.26142800
v -1.86142700 -2.30576100 2.49439500
v -1.86142700 -2.30576100 2.49439500
v -0.98568400 -2.99772100 2.16734300
v -0.98568400 -2.99772100 2.16734300
v -0.98568400 -2.99772100 2.16734300
v 0.07726300 -3.53632000 1.42175400
v -0.11173400 -3.06012700 2.39935000
v -0.11173400 -3.06012700 2.39935000
v 1.15520800 -3.51876000 1.14290200
v 2.01168000 -3.26093200 1.03163900
v -3.12094500 -1.24791700 1.89248600
v -3.54347500 -1.06466400 0.90021600
v -3.80066900 -0.83887500 -0.06109900
v -3.95610300 0.66949100 0.03120900
v -3.76055100 -0.87325200 -1.20216800
v -3.93269100 -0.00090500 -1.23768500
v -3.81844400 1.05410600 -1.78232700
v -3.58844300 0.04334700 -2.67985100
v -3.44994400 -0.78435700 -2.63341100
v -3.45219300 0.58607000 -2.96954500
v -3.45219300 0.58607000 -2.96954500
v -3.26137600 0.18352200 -3.34892600
v -3.26137600 0.18352200 -3.34892600
v -3.13093400 -0.22440700 -3.49704200
v -3.13093400 -0.22440700 -3.49704200
v -2.85918800 0.74590500 -3.19318800
v -1.53507300 0.22956100 -3.30627600
v -1.53507300 0.22956100 -3.30627600
v -3.43991200 1.07194200 -2.87373800
v -3.43991200 1.07194200 -2.87373800
v -3.43991200 1.07194200 -2.87373800
v -3.20370200 1.69355200 -2.30867300
v -3.20370200 1.69355200 -2.30867300
v -3.20370200 1.69355200 -2.30867300
v -2.25315200 2.26485200 -0.80372100
v -2.25315200 2.26485200 -0.80372100
v -2.94111300 2.27392900 -0.70422100
v -2.94111300 2.27392900 -0.70422100
v -2.94111300 2.27392900 -0.70422100
v -3.40776400 1.88330300 -2.26074000
v -3.40776400 1.88330300 -2.26074000
v -3.40776400 1.88330300 -2.26074000
v -2.18307900 1.49969900 -2.14685300
v -2.18307900 1.49969900 -2.14685300
v -2.18307900 1.49969900 -2.14685300
v -2.18307900 1.49969900 -2.14685300
v -3.42445300 2.29287900 -1.48582100
v -3.42445300 2.29287900 -1.48582100
v -3.30767800 2.61555000 -0.73063500
v -3.30767800 2.61555000 -0.73063500
v -3.77298400 1.63831400 -0.98900000
v -3.77771600 1.25923400 0.67165900
v -3.55862800 2.08506900 0.18898000
v -3.06716500 2.55632300 1.19783400
v -3.06716500 2.55632300 1.19783400
v -3.19295400 2.65999000 0.31676700
v -3.19295400 2.65999000 0.31676700
v -3.19295400 2.65999000 0.31676700
v -2.65312800 2.41273600 0.70779400
v -2.88752900 2.37524300 1.76479100
v -2.88752900 2.37524300 1.76479100
v -2.08832000 1.76980500 3.04323500
v -2.08832000 1.76980500 3.04323500
v -2.57762400 2.06816900 2.59485000
v -2.57762400 2.06816900 2.59485000
v -2.57762400 2.06816900 2.59485000
v -3.24821600 1.59333000 1.89574700
v -3.24821600 1.59333000 1.89574700
v -3.22940000 0.51919600 2.35427500
v -3.22940000 0.51919600 2.35427500
v -3.66354000 0.02081600 1.35450000
v -1.94579100 1.61368000 -2.24533500
v -1.94579100 1.61368000 -2.24533500
v -1.94579100 1.61368000 -2.24533500
v -1.98800800 1.09340400 -2.53360200
v -1.98800800 1.09340400 -2.53360200
v -1.98800800 1.09340400 -2.53360200
v -1.94721300 0.67836000 -2.97362900
v -1.94721300 0.67836000 -2.97362900
v -1.66597400 0.89018700 -3.05389100
v -1.66597400 0.89018700 -3.05389100
v -1.10889600 2.06199100 -3.20562400
v -1.10889600 2.06199100 -3.20562400
v -1.30110300 2.35575400 -2.97403400
v -1.30110300 2.35575400 -2.97403400
v -1.12147400 3.25740300 -2.93690900
v -1.12147400 3.25740300 -2.93690900
v -0.96973800 4.68098400 -2.84174800
v -0.96973800 4.68098400 -2.84174800
v -0.30120500 7.67903900 -2.62131600
v -0.30120500 7.67903900 -2.62131600
v -1.17346700 5.75458000 -1.84949800
v -1.17346700 5.75458000 -1.84949800
v -0.69998600 7.84262100 -1.82005500
v -0.69998600 7.84262100 -1.82005500
v -1.35958800 4.90432600 -1.82072800
v -1.53540800 7.72303200 -0.87868300
v -1.53540800 7.72303200 -0.87868300
v -1.63568500 9.28958600 -0.58700300
v -1.63568500 9.28958600 -0.58700300
v -1.63568500 9.28958600 -0.58700300
v -0.42364400 8.80235400 -2.13444400
v -0.42364400 8.80235400 -2.13444400
v -0.42364400 8.80235400 -2.13444400
v -1.05171900 9.32829300 -1.36770900
v -1.05171900 9.32829300 -1.36770900
v -1.05171900 9.32829300 -1.36770900
v -0.02684000 9.84389400 -1.25560800
v -0.02684000 9.84389400 -1.25560800
v 0.40830400 9.28000900 -1.84594600
v 0.40830400 9.28000900 -1.84594600
v -0.18535300 7.90854400 -2.79074000
v -0.18535300 7.90854400 -2.79074000
v -0.18535300 7.90854400 -2.79074000
v 1.06343000 7.69238200 -2.72038700
v -0.05978300 7.63423200 -2.77371400
v -0.05978300 7.63423200 -2.77371400
v -0.62826900 5.11304900 -2.97221200
v -0.62826900 5.11304900 -2.97221200
v 2.27743400 6.28998500 -2.70203300
v 2.27743400 6.28998500 -2.70203300
v 2.27743400 6.28998500 -2.70203300
v 1.26815100 9.00922600 -1.68948600
v 1.26815100 9.00922600 -1.68948600
v 1.26815100 9.00922600 -1.68948600
v 0.67331300 10.04770000 -0.69080900
v 1.39142400 9.73024800 -0.41864900
v 1.39142400 9.73024800 -0.41864900
v 2.17906800 7.37515200 -2.12916700
v 2.17906800 7.37515200 -2.12916700
v 2.17906800 7.37515200 -2.12916700
v 2.12745300 8.40175400 -1.25311200
v 2.12745300 8.40175400 -1.25311200
v 1.97690400 7.54721300 0.95925500
v 2.23750100 8.83872600 -0.08814100
v 2.23750100 8.83872600 -0.08814100
v 2.21292100 7.32975200 -1.02923600
v 1.98859400 6.50242300 0.76919400
v 3.09020300 3.96923900 -1.63353400
v 3.57465100 2.38087600 -1.17903400
v 2.83191300 3.30045400 -0.15344200
v 2.93741400 4.61206600 -2.25754100
v 3.64475500 1.98639600 -2.65192300
v 3.64475500 1.98639600 -2.65192300
v 3.27359900 3.07799100 -2.72732000
v 3.27359900 3.07799100 -2.72732000
v 2.69672700 4.71147400 -2.68525100
v 2.69672700 4.71147400 -2.68525100
v 2.69672700 4.71147400 -2.68525100
v 3.46733500 1.59127500 -2.91778600
v 3.46733500 1.59127500 -2.91778600
v 2.97050500 3.31700100 -2.88477100
v 4.06673000 1.28903500 -2.52129000
v 4.06673000 1.28903500 -2.52129000
v 4.06673000 1.28903500 -2.52129000
v 4.06673000 1.28903500 -2.52129000
v 3.98878900 0.98959200 -2.90934000
v 3.98878900 0.98959200 -2.90934000
v 3.98878900 0.98959200 -2.90934000
v 1.33663700 2.32326900 -3.06526000
v 4.26107600 0.58362200 -2.27499800
v 3.84331900 -0.52320400 -3.10735500
v 3.84331900 -0.52320400 -3.10735500
v 4.27334400 -0.69174100 -1.82317400
v 4.51635900 0.51544100 -1.04384500
v 4.35821200 -0.78334800 -0.42383800
v 4.36719600 -0.15134900 0.73025700
v 4.40708400 1.11527300 0.01669400
v 4.40708400 1.11527300 0.01669400
v 4.40708400 1.11527300 0.01669400
v 4.06899000 -0.03426200 1.68455200
v 4.14159200 0.90225600 1.30752000
v 4.14159200 0.90225600 1.30752000
v 3.81641600 0.88448000 1.32083900
v 3.81641600 0.88448000 1.32083900
v 3.93984500 0.80964600 1.90054300
v 3.93984500 0.80964600 1.90054300
v 3.17370000 0.77456200 3.10220400
v 3.17370000 0.77456200 3.10220400
v 3.17370000 0.77456200 3.10220400
v 2.85657000 0.80987100 3.40056800
v 2.85657000 0.80987100 3.40056800
v 3.17395500 0.01115300 3.16123000
v 3.17395500 0.01115300 3.16123000
v 2.56366400 0.71743400 2.93122900
v 2.56366400 0.71743400 2.93122900
v 2.56366400 0.71743400 2.93122900
v 3.19798500 0.74986200 1.83358200
v 3.19798500 0.74986200 1.83358200
v 1.90941900 0.54380500 3.10231100
v 1.90941900 0.54380500 3.10231100
v 2.20819500 1.07260000 2.33998700
v 2.20819500 1.07260000 2.33998700
v 2.20819500 1.07260000 2.33998700
v 2.20819500 1.07260000 2.33998700
v 0.75168700 1.08944500 3.08910500
v 2.23390300 1.98584700 1.72316000
v 2.23390300 1.98584700 1.72316000
v 1.81303900 0.81733600 2.73773100
v 1.81303900 0.81733600 2.73773100
v 3.16391200 1.93462500 0.26337800
v 3.16391200 1.93462500 0.26337800
v 3.16391200 1.93462500 0.26337800
v 1.70096200 1.86379200 2.42259800
v 2.88948700 0.94769300 1.67485700
v 2.88948700 0.94769300 1.67485700
v 3.38919600 1.23662700 0.90880500
v 3.38919600 1.23662700 0.90880500
v 3.80478600 1.65732300 -0.48220300
v 3.80478600 1.65732300 -0.48220300
v 3.99042300 1.67393000 -1.49129500
v 3.99042300 1.67393000 -1.49129500
v 4.34462600 1.35713200 -1.25750600
v 4.34462600 1.35713200 -1.25750600
v 4.34462600 1.35713200 -1.25750600
v 1.45373200 3.13615500 2.47840900
v 1.45373200 3.13615500 2.47840900
v 1.88143400 4.00573300 1.88500900
v 1.88143400 4.00573300 1.88500900
v 1.71381500 5.70958700 1.83303000
v 0.37928100 2.31939200 3.06049000
v 2.38679200 0.66153100 3.81095700
v 2.38679200 0.66153100 3.81095700
v 0.96129300 0.63530900 4.46007600
v 0.96129300 0.63530900 4.46007600
v 1.18071300 0.60729000 3.41705900
v 1.18071300 0.60729000 3.41705900
v 1.72920600 0.02135800 4.21934100
v 2.00191500 0.69816700 4.02407200
v 2.00191500 0.69816700 4.02407200
v 2.22772400 8.53510700 1.22535800
v 2.22772400 8.53510700 1.22535800
v 1.55974700 9.62923700 0.55255700
v 1.55974700 9.62923700 0.55255700
v 0.57109300 10.27769500 0.14657700
v 0.74561200 10.00562100 1.11131100
v 1.35223800 9.28612900 1.68056300
v 1.35223800 9.28612900 1.68056300
v 1.35223800 9.28612900 1.68056300
v 2.02522900 8.10627200 2.05690300
v 2.02522900 8.10627200 2.05690300
v 2.02522900 8.10627200 2.05690300
v 2.02522900 8.10627200 2.05690300
v 0.31481700 9.48095600 2.00277800
v 0.31481700 9.48095600 2.00277800
v -0.03004100 10.01973700 1.34295300
v -0.03004100 10.01973700 1.34295300
v 0.19294200 10.32535800 0.55076100
v -0.85224100 9.78746000 1.33679100
v -0.85224100 9.78746000 1.33679100
v -0.47557800 10.25767700 0.59928300
v -0.88811100 10.01785700 -0.45835400
v -1.19379100 9.90202300 0.42297400
v -0.07778200 10.30711700 -0.27837000
v -0.49506800 9.98605700 -0.86112600
v -0.49506800 9.98605700 -0.86112600
v -1.82388800 9.01892800 0.93983600
v -1.82388800 9.01892800 0.93983600
v 1.52022700 7.23660100 2.27281300
v 1.52022700 7.23660100 2.27281300
v 1.16826800 7.15577800 2.92570100
v 1.16826800 7.15577800 2.92570100
v -1.07939300 3.78476100 2.95870600
v -1.07939300 3.78476100 2.95870600
v -1.60365800 4.67695100 2.48486800
v -1.60365800 4.67695100 2.48486800
v -0.90520500 5.45867200 3.36631500
v -1.41625200 5.80445500 2.70279900
v -1.41625200 5.80445500 2.70279900
vn -0.11334508 -0.28572521 0.95158499
vn 0.19710963 -0.27624147 0.94065852
vn -0.36150483 -0.10046358 0.92694192
vn -0.71394896 -0.30869543 0.62847753
vn -0.46742648 -0.16103382 0.86924139
vn 0.24637450 -0.16969268 0.95420333
vn 0.47336396 -0.01355853 0.88076258
vn -0.04117376 -0.09532705 0.99459413
vn 0.65484923 -0.14794580 0.74113732
vn 0.85564508 -0.02198077 0.51709607
vn 0.55079931 -0.05598493 0.83275795
vn 0.15398716 0.10647462 0.98231925
vn 0.89310846 -0.06234417 0.44550025
vn 0.72014893 -0.00374981 0.69380938
vn 0.36520619 0.27972013 0.88790827
vn 0.17235880 0.56092933 0.80972263
vn 0.85602594 -0.29420257 0.42504641
vn 0.49104510 0.53706974 0.68587958
vn 0.75444624 -0.24914882 0.60723614
vn -0.23275691 0.32050134 0.91820647
vn -0.47022272 0.13388373 0.87233350
vn -0.43922197 0.43147057 0.78798300
vn -0.82823808 0.14152095 0.54221168
vn -0.61795944 0.23620490 0.74988891
vn -0.21488237 0.62188924 0.75304671
vn -0.21584577 0.74736786 0.62837240
vn -0.88057358 0.15999435 0.44608517
vn -0.66452531 0.67913155 0.31174741
vn -0.53915235 0.50162275 0.67652743
vn -0.88105946 0.10661640 0.46083313
vn -0.72911591 0.22873852 0.64503385
vn -0.95027186 0.06643826 0.30425210
vn -0.94305536 0.09229186 0.31957597
vn -0.96197279 0.05343381 0.26786784
vn -0.99783983 0.01471145 -0.06402540
vn -0.95998831 0.02157181 -0.27920798
vn -0.95249271 0.03433604 -0.30261969
vn -0.75411023 0.65523349 0.04457394
vn -0.99133387 0.00965481 0.13101120
vn -0.99887254 0.03398841 0.03314275
vn -0.99841875 0.00413885 -0.05606137
vn -0.97156190 -0.07778152 0.22364593
vn -0.98365854 0.14842415 0.10191249
vn -0.94623954 0.19799544 -0.25579003
vn -0.95803351 0.05838507 -0.28064741
vn -0.98902718 0.13736268 -0.05437580
vn -0.95560053 0.29405599 0.01893928
vn -0.51113407 0.85944506 -0.00980585
vn -0.50967639 0.86017311 0.01822631
vn -0.00606294 0.99719213 -0.07463975
vn -0.95499961 -0.03489272 0.29454752
vn 0.19389535 0.96968129 0.14873733
vn -0.42860576 0.83693002 0.34036046
vn -0.94091893 0.29235481 -0.17088077
vn -0.57795127 0.74139561 -0.34103502
vn -0.94682806 0.07537431 0.31278640
vn -0.41172282 0.82112732 0.39526477
vn -0.85647464 -0.17457352 0.48577286
vn -0.63657341 -0.14311023 0.75782172
vn -0.66827268 -0.01595074 0.74374538
vn -0.45299028 0.68446998 0.57122732
vn -0.89786293 -0.04810950 0.43763870
vn -0.29270321 0.76144082 0.57838802
vn -0.63317195 0.11515897 0.76539643
vn -0.04622046 0.65042828 0.75816009
vn -0.06293566 0.32275054 0.94438932
vn 0.31428171 0.92143258 0.22844915
vn -0.02217215 0.55846926 0.82922885
vn 0.27362015 0.92495188 0.26381060
vn -0.33431282 0.74367663 0.57894733
vn -0.03055638 0.66087120 0.74987703
vn 0.27776309 0.95116012 0.13469258
vn 0.21318261 0.85967100 0.46424019
vn 0.23637480 0.53397796 0.81178476
vn -0.01566368 0.07062837 0.99737971
vn 0.26053968 0.94617364 0.19202738
vn 0.03292909 0.15077048 0.98802021
vn 0.10676765 0.98519253 0.13415047
vn 0.01164313 -0.12398227 0.99221612
vn -0.30070616 -0.01557211 0.95358970
vn 0.27766359 0.93516967 0.21991048
vn -0.41681617 0.15831024 0.89509896
vn -0.64351039 0.33450684 0.68847625
vn 0.12710518 0.91238059 0.38910915
vn 0.23484013 0.91482968 0.32853731
vn -0.55480471 0.03087747 0.83140743
vn -0.82671807 0.20857492 0.52252630
vn -0.69716402 0.21197990 0.68485535
vn -0.68974595 -0.14144519 0.71010125
vn -0.81695291 -0.24575772 0.52171935
vn -0.51897877 -0.27616709 0.80894547
vn -0.72029649 -0.48995645 0.49103528
vn -0.56656013 -0.47059746 0.67642268
vn -0.38817216 -0.53878540 0.74768487
vn -0.16707197 -0.34947262 0.92193050
vn 0.25293231 -0.37320358 0.89260536
vn -0.17334031 -0.66713683 0.72448712
vn 0.07716505 -0.61296427 0.78633349
vn 0.06942712 -0.74807197 0.65997591
vn 0.19832658 -0.85890531 0.47217394
vn 0.34187229 -0.56739298 0.74912518
vn 0.45964860 -0.69877735 0.54811803
vn 0.58149457 -0.32235773 0.74696021
vn 0.61100022 -0.58090235 0.53780219
vn 0.61575253 -0.43246894 0.65864971
vn 0.39398416 -0.79830054 0.45551370
vn 0.67337648 -0.61468792 0.41075891
vn 0.59990978 -0.75902918 0.25294854
vn 0.79812753 -0.51717661 0.30906438
vn 0.91513728 -0.35444768 0.19206928
vn 0.86772818 -0.22185292 0.44477981
vn 0.76650086 -0.46715423 0.44073048
vn 0.72571845 -0.32198696 0.60799435
vn 0.74675184 -0.64443373 0.16452008
vn 0.85898487 -0.50364165 0.09214161
vn 0.89576117 -0.44143336 -0.05242633
vn 0.76589835 -0.64203840 -0.03444427
vn 0.64886161 -0.76059219 0.02186642
vn 0.43874833 -0.89833266 0.02232328
vn 0.49505192 -0.84642954 -0.19616478
vn 0.67542597 -0.69753148 -0.23926886
vn 0.84721619 -0.49919848 -0.18172950
vn 0.03504109 0.00856713 -0.99934915
vn 0.78567548 -0.40773788 -0.46525676
vn 0.65283675 -0.67070536 -0.35207740
vn 0.74971385 -0.56123874 -0.35062832
vn 0.85019697 -0.42271083 -0.31381628
vn 0.46150626 -0.81502772 -0.35034525
vn 0.14069064 -0.18686175 -0.97225965
vn 0.04416619 -0.00229640 -0.99902156
vn 0.11917575 -0.90954871 -0.39814355
vn 0.29528914 -0.91647005 -0.26997587
vn 0.07165426 -0.96147345 -0.26539493
vn 0.16637955 -0.98260575 -0.08248506
vn 0.19276635 -0.97275283 0.12881408
vn -0.04024039 -0.99238829 0.11638808
vn -0.15803521 -0.98516493 -0.06689493
vn -0.22160465 -0.95659571 0.18925123
vn -0.46916922 -0.86783327 0.16354097
vn -0.29132552 -0.95636950 -0.02206389
vn -0.50843102 -0.85820396 0.07059640
vn -0.14309440 -0.94784240 -0.28481359
vn -0.13541743 -0.90234072 -0.40919842
vn -0.39164055 -0.81242573 -0.43195152
vn 0.03003948 -0.01151343 -0.99948240
vn -0.30177255 -0.94239773 -0.14429081
vn -0.54976175 -0.81935529 -0.16253899
vn -0.28343783 -0.91719980 -0.28001345
vn -0.44489066 -0.81834141 -0.36385387
vn -0.61016063 -0.73416005 -0.29784732
vn -0.81948904 -0.53199549 -0.21311620
vn -0.76747556 -0.48925271 -0.41426205
vn -0.13692891 -0.15432660 -0.97848545
vn -0.65032715 -0.75872162 0.03763118
vn 0.04618121 0.00011994 -0.99893307
vn -0.51392996 -0.74641147 -0.42278354
vn -0.70252789 -0.64970784 0.29040366
vn -0.84258439 -0.53361104 0.07287520
vn -0.54089098 -0.79107446 0.28572390
vn -0.33151050 -0.88767101 0.31959502
vn -0.60493441 -0.67698540 0.41921966
vn -0.41936588 -0.64396543 0.63987560
vn -0.24103701 -0.90353418 0.35429811
vn -0.45907613 -0.78107233 0.42329082
vn -0.28218359 -0.74137900 0.60887569
vn -0.04525085 -0.94313608 0.32931246
vn -0.12380400 -0.77503874 0.61966727
vn -0.06229791 -0.90195841 0.42730551
vn 0.19788729 -0.93297664 0.30065796
vn 0.42277740 -0.86937200 0.25583509
vn -0.81844672 -0.39239662 0.41972594
vn -0.90237505 -0.35205263 0.24855225
vn -0.96142730 -0.26250221 0.08215916
vn -0.99503029 0.05261830 0.08453423
vn -0.93511830 -0.28257086 -0.21379306
vn -0.98677194 -0.10015101 -0.12747905
vn -0.96615734 0.16095831 -0.20157486
vn -0.94096172 -0.09992997 -0.32342703
vn -0.94710651 -0.25341090 -0.19690652
vn -0.41106758 0.34371837 -0.84432288
vn -0.92997950 0.04563744 -0.36476754
vn -0.88875937 -0.08031542 -0.45128285
vn -0.19116713 0.38656397 -0.90223247
vn 0.03346802 0.13846224 -0.98980205
vn -0.86311875 -0.19831203 -0.46443338
vn -0.02926514 0.53047635 -0.84719443
vn 0.20362175 0.11265276 -0.97254693
vn -0.51597009 0.21458483 -0.82929381
vn -0.93409480 0.15540006 -0.32143075
vn -0.39047396 0.18759286 -0.90129851
vn 0.01858068 0.66865870 -0.74333727
vn 0.16134744 0.88453100 -0.43768929
vn 0.25820582 0.63247434 -0.73027800
vn 0.59195001 0.71874430 -0.36469414
vn -0.56134324 0.78045811 -0.27527967
vn 0.03116515 0.96037930 -0.27694825
vn -0.02719475 0.97340997 -0.22744994
vn 0.65947821 0.70439196 -0.26252705
vn 0.51815900 0.83443204 -0.18770836
vn -0.91732241 0.31063499 -0.24904918
vn 0.34117977 0.55800082 -0.75645981
vn 0.58488715 0.72224793 -0.36914082
vn 0.22600349 0.71438440 -0.66225173
vn 0.23614608 0.84957060 -0.47166178
vn -0.51743914 0.44646456 -0.73001789
vn -0.53849250 0.71309872 -0.44890538
vn 0.61094747 0.70365919 -0.36277669
vn -0.91284067 0.38631766 -0.13221417
vn -0.88998076 0.45599666 0.00113706
vn 0.67025763 0.70017876 -0.24597645
vn -0.95208833 0.30010257 -0.05887497
vn -0.95044266 0.21915378 0.22052297
vn -0.90374265 0.41105138 0.11952398
vn 0.43849047 0.89209045 0.10909046
vn -0.86256434 0.41769710 0.28550287
vn 0.48033253 0.86975717 -0.11315088
vn -0.84940410 0.51061485 0.13336094
vn 0.68203418 0.72368377 -0.10540957
vn 0.25930321 0.96579230 0.00266072
vn 0.28927169 0.93642614 0.19856479
vn -0.79588742 0.43726783 0.41876015
vn 0.49077735 0.86201853 0.12673456
vn -0.57149396 0.49964819 0.65095802
vn 0.37321406 0.90677995 0.19611575
vn -0.67406584 0.36059987 0.64467277
vn -0.77893500 0.43496998 0.45173153
vn -0.78241092 0.30835505 0.54106405
vn -0.87175112 0.29297429 0.39270352
vn -0.88834321 0.02851513 0.45829383
vn -0.77549755 0.00256609 0.63134536
vn -0.94215468 -0.08117316 0.32520066
vn -0.53164068 0.71637282 -0.45184972
vn -0.51743914 0.44646456 -0.73001789
vn -0.89433407 0.28465796 -0.34516144
vn -0.55919567 0.51156158 -0.65238405
vn -0.81832971 0.24236009 -0.52115071
vn 0.18849143 0.72307922 -0.66455054
vn 0.21310915 0.71087978 -0.67024953
vn -0.52409395 0.41377947 -0.74438705
vn -0.56549833 0.29225049 -0.77123362
vn -0.78593896 0.22700704 -0.57512412
vn -0.62552028 0.18423195 -0.75814443
vn 0.05954737 0.03765478 -0.99751503
vn -0.74487102 0.18128985 -0.64210681
vn -0.64171024 0.17004590 -0.74785852
vn -0.90468551 0.20046439 -0.37597628
vn -0.65217093 0.16151133 -0.74066670
vn -0.90639530 0.16014968 -0.39089595
vn 0.05717802 0.06051966 -0.99652800
vn -0.53754347 -0.01521218 -0.84309881
vn -0.87512303 0.15170625 -0.45950505
vn -0.74708391 0.17843680 -0.64033268
vn -0.89156202 0.16843127 -0.42041416
vn -0.75049545 0.06895778 -0.65726813
vn -0.87136939 0.15489590 -0.46553480
vn -0.92537681 0.12202497 -0.35886997
vn -0.76373920 0.09433198 -0.63859526
vn -0.86625775 0.04183749 -0.49784248
vn -0.93960304 0.03830034 -0.34011647
vn -0.67700193 0.69884256 -0.23084079
vn -0.80075792 0.05971381 -0.59600420
vn -0.75714241 0.02022687 -0.65293664
vn -0.88168553 0.10303519 -0.46045018
vn -0.12344890 0.62788148 -0.76845639
vn -0.27653083 0.69416259 -0.66458182
vn -0.77925178 0.04435801 -0.62513921
vn -0.54794343 0.71106576 -0.44061716
vn -0.24046127 0.69752171 -0.67501247
vn 0.12052198 0.85278673 -0.50816261
vn 0.04611942 0.61147813 -0.78991613
vn 0.30533079 0.75929580 -0.57466773
vn -0.88162201 0.10402487 -0.46034929
vn 0.07422568 0.35917294 -0.93031465
vn -0.54842077 -0.29950501 -0.78072493
vn 0.26410540 0.33486271 -0.90449727
vn -0.53598045 -0.01706748 -0.84405785
vn 0.04662425 0.01341342 -0.99882244
vn -0.72469943 0.18216776 -0.66454921
vn 0.03271620 0.07111353 -0.99693155
vn 0.89865442 0.25984929 -0.35340994
vn 0.51505652 0.43620884 -0.73786085
vn 0.00409294 -0.00954377 -0.99994608
vn 0.65606497 0.58975592 -0.47092112
vn 0.37932970 0.53307657 -0.75626606
vn 0.39416498 0.74427347 -0.53915765
vn 0.31967000 0.86358453 -0.38991391
vn 0.72633357 0.64754375 -0.23049217
vn 0.51831100 0.82128590 -0.23841807
vn 0.51461853 0.45250617 -0.72828973
vn 0.97521841 0.20839288 -0.07430650
vn 0.64831668 0.51282621 -0.56275639
vn 0.67838755 0.56886220 -0.46495820
vn 0.99961875 0.00526839 0.02710344
vn 0.97843710 -0.15228960 0.13953037
vn 0.97624931 -0.21545024 -0.02276994
vn 0.77805661 0.62103442 -0.09457360
vn 0.98610968 0.14752956 0.07630681
vn 0.95925464 0.07482893 0.27245396
vn 0.95824630 0.25784313 0.12361614
vn 0.89686145 0.41300761 0.15831697
vn 0.90366949 0.24514736 0.35111854
vn 0.94268533 0.27242010 -0.19269576
vn 0.65410510 0.19757711 -0.73014369
vn 0.90730147 0.41055703 -0.09081282
vn 0.90657161 0.29199212 -0.30474337
vn 0.57542022 0.18778486 -0.79600780
vn 0.10959637 0.08204208 -0.99058454
vn 0.58352138 0.22616074 -0.77997059
vn 0.86594782 0.26098228 -0.42664108
vn 0.63622945 0.54371070 -0.54734885
vn 0.30782224 0.12225410 -0.94355679
vn 0.31576906 0.16437199 -0.93449010
vn 0.61513250 0.23100885 -0.75382154
vn 0.83138619 0.53792091 -0.13942056
vn 0.94940612 0.16919079 -0.26457985
vn 0.63622945 0.54371070 -0.54734885
vn 0.63622945 0.54371070 -0.54734885
vn 0.93053732 0.05953518 -0.36132515
vn 0.11282613 0.10890266 -0.98762871
vn 0.06273590 0.05880143 -0.99629644
vn 0.95725032 0.03435955 -0.28721288
vn 0.04045916 0.05038701 -0.99790992
vn 0.89539491 -0.23196666 -0.38007818
vn 0.94483691 -0.25254730 -0.20857389
vn 0.99728021 0.02632667 -0.06884109
vn 0.96294916 -0.26880597 0.02173173
vn 0.97266469 -0.10816309 0.20548515
vn -0.04768846 0.98706241 0.15308041
vn 0.48305108 0.82607155 0.29028858
vn 0.99133409 0.08018558 0.10405283
vn 0.91202094 -0.10220753 0.39720452
vn 0.95889329 0.06699058 0.27574611
vn -0.04798219 0.98795671 0.14710285
vn -0.04658429 0.99300459 0.10849787
vn 0.30914841 0.85270582 0.42109386
vn 0.89683789 0.03168451 0.44122317
vn 0.08592017 0.99026205 0.10953906
vn 0.84190537 0.04187865 0.53799770
vn 0.68745852 0.05621204 0.72404489
vn -0.06462734 0.99721682 -0.03717427
vn 0.66503923 0.04081666 0.74569218
vn -0.18916220 0.97909418 -0.07478131
vn 0.66924619 -0.13071479 0.73145279
vn 0.84832021 -0.03949089 0.52800879
vn 0.41996486 0.86697215 0.26830730
vn -0.18382441 0.98259103 -0.02689698
vn -0.07798207 0.83322250 0.54741123
vn 0.33395811 0.84888369 0.40971755
vn -0.34263423 0.92382844 -0.17071261
vn -0.11895286 0.99096352 -0.06197994
vn 0.14870495 0.82282136 0.54849963
vn 0.80508301 0.31627084 0.50181083
vn 0.24602392 0.88212596 0.40165411
vn 0.62071751 0.58073431 0.52674228
vn 0.54099732 0.35303025 0.76334235
vn 0.32796509 0.33129585 0.88469315
vn 0.84162712 0.26787422 0.46894263
vn 0.76092514 0.20507647 0.61557824
vn 0.38607561 0.54184322 0.74655981
vn 0.14841067 0.81618195 0.55840961
vn 0.62071751 0.58073431 0.52674228
vn 0.47488126 0.67519990 0.56444033
vn 0.78444219 0.45034923 0.42642235
vn 0.62719542 0.16935075 0.76022775
vn 0.36059864 0.84181605 0.40163959
vn 0.62071751 0.58073431 0.52674228
vn 0.39992639 0.78850787 0.46724108
vn 0.70811010 0.58885450 0.38965427
vn 0.76005083 0.55879565 0.33176822
vn 0.55175004 0.80624254 0.21341242
vn 0.82329166 0.56224952 -0.07788662
vn 0.61395277 0.77925856 0.12577000
vn 0.61166243 0.78144692 0.12332793
vn 0.97587573 0.17629580 -0.12878802
vn 0.72213957 0.66382240 -0.19456174
vn 0.80716755 0.00581106 0.59029380
vn 0.67407834 0.03644211 0.73776037
vn 0.82130364 0.07172151 0.56596497
vn 0.75289867 0.09983262 0.65052059
vn 0.89060417 0.16389351 0.42422061
vn 0.12861484 0.00925636 0.99165142
vn 0.58295508 -0.03000263 0.81195026
vn -0.13768275 0.98713222 -0.08132305
vn 0.14820310 0.01303788 0.98887100
vn 0.07035091 0.99722931 0.02417563
vn 0.22929046 0.84905601 0.47595144
vn 0.15846388 0.98734127 0.00681277
vn 0.40295218 -0.09835019 0.90992131
vn -0.07489974 0.98469286 -0.15738487
vn 0.44977020 0.07553417 0.88994458
vn 0.96787983 -0.25072956 0.01852895
vn 0.74108124 0.58470723 0.33002431
vn 0.75976045 0.63874781 0.12151254
vn 0.54936083 0.82032910 0.15894289
vn 0.33090460 0.94332179 -0.02541951
vn 0.36351727 0.84931456 0.38277928
vn 0.44857585 0.75571927 0.47714578
vn 0.70819211 0.60092885 0.37060552
vn 0.41863054 0.59667131 0.68463992
vn 0.76461359 -0.30274426 0.56895691
vn 0.63600903 0.53894589 0.55229507
vn 0.91206576 -0.38022688 0.15350429
vn 0.70432971 0.54632728 0.45326170
vn 0.06987400 0.69194962 0.71855643
vn 0.26259212 0.77074708 0.58051211
vn -0.10790056 0.74168217 0.66201589
vn -0.03507222 0.86744226 0.49630018
vn 0.08585558 0.98000452 0.17949918
vn -0.43930458 0.78625636 0.43452551
vn -0.42684021 0.62970884 0.64905640
vn -0.28077481 0.94350219 0.17598044
vn -0.48013267 0.83799209 -0.25931038
vn -0.61818874 0.77991215 0.09787610
vn -0.06585506 0.97376102 -0.21783613
vn -0.29877764 0.72803869 -0.61700209
vn -0.26094536 0.86681564 -0.42489783
vn -0.70404491 0.66126032 0.25895087
vn -0.96410283 0.10222586 0.24506244
vn 0.76461359 -0.30274426 0.56895691
vn 0.90835323 -0.20820832 0.36268956
vn 0.88065003 -0.10728751 0.46145955
vn 0.68821465 0.00536991 0.72548726
vn -0.61326068 -0.17305328 0.77069053
vn -0.77775987 -0.23466334 0.58311465
vn -0.74852328 -0.05596543 0.66074259
vn -0.91940020 -0.09055140 0.38275803
vn -0.62627076 0.02311009 0.77926303
vn -0.87272250 0.12619770 0.47162440
vn -0.75765587 0.08983081 0.64644258
vt 0.80842500 0.64031000
vt 0.80898000 0.63849600
vt 0.81340900 0.64169400
vt 0.44680500 0.88092000
vt 0.79946900 0.64309000
vt 0.80303400 0.63664800
vt 0.81160700 0.63233500
vt 0.79520000 0.63905000
vt 0.79383600 0.63204500
vt 0.49104900 0.31905000
vt 0.79099000 0.63330300
vt 0.78500400 0.63577000
vt 0.48765300 0.31897900
vt 0.79036300 0.63143900
vt 0.78051200 0.63340300
vt 0.77188800 0.63399300
vt 0.47383400 0.31490000
vt 0.77579200 0.62610700
vt 0.77579200 0.62610700
vt 0.78120600 0.63861100
vt 0.78735200 0.64175000
vt 0.77297300 0.64232100
vt 0.44680500 0.91218700
vt 0.78070000 0.64381800
vt 0.76838000 0.63979400
vt 0.97754800 0.46312800
vt 0.45376100 0.92465500
vt 0.97132800 0.45780900
vt 0.76880300 0.64717200
vt 0.45161500 0.91787200
vt 0.77600400 0.64712100
vt 0.45613600 0.92228200
vt 0.45291500 0.90866900
vt 0.45517700 0.91742100
vt 0.46205900 0.91398800
vt 0.46683400 0.90344500
vt 0.46146100 0.92625700
vt 0.97056300 0.44952100
vt 0.46146100 0.92625700
vt 0.45801900 0.90835800
vt 0.46023100 0.90206700
vt 0.45357300 0.89858100
vt 0.45967500 0.88952200
vt 0.47076500 0.89037400
vt 0.46858400 0.89784100
vt 0.46314900 0.89057900
vt 0.46264600 0.88678800
vt 0.36177000 0.91840300
vt 0.36236300 0.92027200
vt 0.36236300 0.92027200
vt 0.45507700 0.88994600
vt 0.36780400 0.91761200
vt 0.36780400 0.91761200
vt 0.46818600 0.88553700
vt 0.35628600 0.91866700
vt 0.45658200 0.88529100
vt 0.36771100 0.91620200
vt 0.44987500 0.88870800
vt 0.80736800 0.64744700
vt 0.81550700 0.64824700
vt 0.37260000 0.91262100
vt 0.45153300 0.88144700
vt 0.37529000 0.90940000
vt 0.81714400 0.64533000
vt 0.81714400 0.64533000
vt 0.82022100 0.63932000
vt 0.37826100 0.90421900
vt 0.82164100 0.64047200
vt 0.37667000 0.91087700
vt 0.37667000 0.91087700
vt 0.81874200 0.64693800
vt 0.37853700 0.89963600
vt 0.37853700 0.89963600
vt 0.82390000 0.63593100
vt 0.90420900 0.20605200
vt 0.38498700 0.90186700
vt 0.90697500 0.20581300
vt 0.38414600 0.89921100
vt 0.90674100 0.21117200
vt 0.89880100 0.20992900
vt 0.38371700 0.91020200
vt 0.89543300 0.20478500
vt 0.88975700 0.20394200
vt 0.38083100 0.91581400
vt 0.37942700 0.91487100
vt 0.89270600 0.21019400
vt 0.89094900 0.56627500
vt 0.88648300 0.20767700
vt 0.88852600 0.21694700
vt 0.89959000 0.56518600
vt 0.89463300 0.21775600
vt 0.90812600 0.56631600
vt 0.89220400 0.22461200
vt 0.89979000 0.22349800
vt 0.90397700 0.21737800
vt 0.91430300 0.21565800
vt 0.90570500 0.22530800
vt 0.91114800 0.22298300
vt 0.91473500 0.22858700
vt 0.32851000 0.95139500
vt 0.91972100 0.22170000
vt 0.32531000 0.94345500
vt 0.92271800 0.21309600
vt 0.32680000 0.93702900
vt 0.92451300 0.21721800
vt 0.33169000 0.94517600
vt 0.33315700 0.93596700
vt 0.33771600 0.93891800
vt 0.33884800 0.92826200
vt 0.53840500 0.30950900
vt 0.53544900 0.31714400
vt 0.33063100 0.93042600
vt 0.92932700 0.21238100
vt 0.34159900 0.93324200
vt 0.54401700 0.30676000
vt 0.54180300 0.30046600
vt 0.34805700 0.92998600
vt 0.34565000 0.93785500
vt 0.34576900 0.94448200
vt 0.35305500 0.94300700
vt 0.35420000 0.93460400
vt 0.54503800 0.29412400
vt 0.45810800 0.27117000
vt 0.54306700 0.28733700
vt 0.36061900 0.93603700
vt 0.35655900 0.93105900
vt 0.54078300 0.29174200
vt 0.36053400 0.94392700
vt 0.46143100 0.26341900
vt 0.46120000 0.25461800
vt 0.36104800 0.95270800
vt 0.35524600 0.94910700
vt 0.35488600 0.95493200
vt 0.34905300 0.95299500
vt 0.34229600 0.95206600
vt 0.34246800 0.95817500
vt 0.34824100 0.96138500
vt 0.34011800 0.96452600
vt 0.92536400 0.57679000
vt 0.34485300 0.96759300
vt 0.92384200 0.58177100
vt 0.35560000 0.96079800
vt 0.36104800 0.96185000
vt 0.92536400 0.59800800
vt 0.45759200 0.24530800
vt 0.35135200 0.96817800
vt 0.92334400 0.58841600
vt 0.35655500 0.96533300
vt 0.92468900 0.59351400
vt 0.91834400 0.59335300
vt 0.91092400 0.59165000
vt 0.91045700 0.59982400
vt 0.44356900 0.23515800
vt 0.91727700 0.58194000
vt 0.45242600 0.23992400
vt 0.91970600 0.59874900
vt 0.91308400 0.57446500
vt 0.90899100 0.58183100
vt 0.91940700 0.57317400
vt 0.33568400 0.96808500
vt 0.91388900 0.56697800
vt 0.89627900 0.22864900
vt 0.33078400 0.96312400
vt 0.92059900 0.56810600
vt 0.90298100 0.23188600
vt 0.33518300 0.95773000
vt 0.90873000 0.23100700
vt 0.32965000 0.95777900
vt 0.33689200 0.95096400
vt 0.33759100 0.94503400
vt 0.90454600 0.57130100
vt 0.90296300 0.57696400
vt 0.90153400 0.58246400
vt 0.89189100 0.58315100
vt 0.90258100 0.58870500
vt 0.89684600 0.58960400
vt 0.89107500 0.59339900
vt 0.89840200 0.59751500
vt 0.90377100 0.59659600
vt 0.42879900 0.23501900
vt 0.89564200 0.59950800
vt 0.89883400 0.60125300
vt 0.43176800 0.23541100
vt 0.43463500 0.23542600
vt 0.90175200 0.60173100
vt 0.42895800 0.23908100
vt 0.43485100 0.24646600
vt 0.43485100 0.24646600
vt 0.89265600 0.59935600
vt 0.42571800 0.23605800
vt 0.42571800 0.23605800
vt 0.34964400 0.92714700
vt 0.42217400 0.23882200
vt 0.08095900 0.98769500
vt 0.35712200 0.91984100
vt 0.35712200 0.91984100
vt 0.35814600 0.92432300
vt 0.08031900 0.97796600
vt 0.35814600 0.92432300
vt 0.88741000 0.59661000
vt 0.42056100 0.23790300
vt 0.08219100 0.98694200
vt 0.42539600 0.24493500
vt 0.34987100 0.92036200
vt 0.42539600 0.24493500
vt 0.34987100 0.92036200
vt 0.08280300 0.98189300
vt 0.88437700 0.59267000
vt 0.88223400 0.58875000
vt 0.08280300 0.97717000
vt 0.88713000 0.58948400
vt 0.88835800 0.58005900
vt 0.88421600 0.58332000
vt 0.36863100 0.92396500
vt 0.88198600 0.57806400
vt 0.36384500 0.92528800
vt 0.88159200 0.58300800
vt 0.08046300 0.97180600
vt 0.36568200 0.92155600
vt 0.37167100 0.92249100
vt 0.88319300 0.57477800
vt 0.37830000 0.91661600
vt 0.88881500 0.20243500
vt 0.37609900 0.92003500
vt 0.88522000 0.20122500
vt 0.88533900 0.56992900
vt 0.88159200 0.20532100
vt 0.88692400 0.57350700
vt 0.89321400 0.57015000
vt 0.88327400 0.21226700
vt 0.89575300 0.57532700
vt 0.34913600 0.91882500
vt 0.42514100 0.24665800
vt 0.47551600 0.88078000
vt 0.42839700 0.24534600
vt 0.47711500 0.87772200
vt 0.42839700 0.24534600
vt 0.43115700 0.24475600
vt 0.43115700 0.24475600
vt 0.43036400 0.24695200
vt 0.48006000 0.87567500
vt 0.42399600 0.25277900
vt 0.42399600 0.25277900
vt 0.47965400 0.88370500
vt 0.42172900 0.25215400
vt 0.47946300 0.88876300
vt 0.41633000 0.25506800
vt 0.47893400 0.89709100
vt 0.40754500 0.25883600
vt 0.38972500 0.26898700
vt 0.47777400 0.91371700
vt 0.40022500 0.25972700
vt 0.47337900 0.90413100
vt 0.38783900 0.26683700
vt 0.47326000 0.91569900
vt 0.47320400 0.89940000
vt 0.38689300 0.26136900
vt 0.46789500 0.91707400
vt 0.46622700 0.92692200
vt 0.97374300 0.44544900
vt 0.37668800 0.26383200
vt 0.38228700 0.27045300
vt 0.47503100 0.92088900
vt 0.38228700 0.27045300
vt 0.37764500 0.26755700
vt 0.37764500 0.26755700
vt 0.97862600 0.44229300
vt 0.37635600 0.27508600
vt 0.98519700 0.44460800
vt 0.38084800 0.27669600
vt 0.98865500 0.44229300
vt 0.47872800 0.91483500
vt 0.38850200 0.27016100
vt 0.38850200 0.27016100
vt 0.39231900 0.27767100
vt 0.39049500 0.27042000
vt 0.39049500 0.27042000
vt 0.40546900 0.26184300
vt 0.40546900 0.26184300
vt 0.48742000 0.28733700
vt 0.40363500 0.28262600
vt 0.40363500 0.28262600
vt 0.46831700 0.29159800
vt 0.38424600 0.28163600
vt 0.99384800 0.44466700
vt 0.98893100 0.44881900
vt 0.46332200 0.29851200
vt 0.99303300 0.45157000
vt 0.39648000 0.28417600
vt 0.48001400 0.29017300
vt 0.48001400 0.29017300
vt 0.47295400 0.29472400
vt 0.47295400 0.29472400
vt 0.47788600 0.30699900
vt 0.46985300 0.30111100
vt 0.46985300 0.30111100
vt 0.48005200 0.29626200
vt 0.48485000 0.30620200
vt 0.50317100 0.29430700
vt 0.51396300 0.29750500
vt 0.50697700 0.30243400
vt 0.49895700 0.29062000
vt 0.43374200 0.28285700
vt 0.51702000 0.28953500
vt 0.50950700 0.28861600
vt 0.42606300 0.28263900
vt 0.41451700 0.28218800
vt 0.41451700 0.28218800
vt 0.49820700 0.28807900
vt 0.51954800 0.28804200
vt 0.43593400 0.28093400
vt 0.42395800 0.28117200
vt 0.43900400 0.28417600
vt 0.52195600 0.29070200
vt 0.52195600 0.29070200
vt 0.52195600 0.29070200
vt 0.52397000 0.28858200
vt 0.52397000 0.28858200
vt 0.44079000 0.28306400
vt 0.42710800 0.26883200
vt 0.52671900 0.29235200
vt 0.45016400 0.27915300
vt 0.53389400 0.28774200
vt 0.53503700 0.29514300
vt 0.52706300 0.29931900
vt 0.53534500 0.30292500
vt 0.53087200 0.30913900
vt 0.35728300 0.87567500
vt 0.35728300 0.87567500
vt 0.52272500 0.30494500
vt 0.52958900 0.31416300
vt 0.52356300 0.31192000
vt 0.36462400 0.87672300
vt 0.36492800 0.87886600
vt 0.36492800 0.87886600
vt 0.52384500 0.31506900
vt 0.36805100 0.87772900
vt 0.52310000 0.32117200
vt 0.92438200 0.20122500
vt 0.37520600 0.88209000
vt 0.92226500 0.20144700
vt 0.37706000 0.88399900
vt 0.92550100 0.20619000
vt 0.52813000 0.32167400
vt 0.37470400 0.88623300
vt 0.37470400 0.88623300
vt 0.37470400 0.88623300
vt 0.36821400 0.88268200
vt 0.36821400 0.88268200
vt 0.37614500 0.89049600
vt 0.37614500 0.89049600
vt 0.52050300 0.31625200
vt 0.37161000 0.88883800
vt 0.57865100 0.98034900
vt 0.82254400 0.62444500
vt 0.82206800 0.63413000
vt 0.51465400 0.31266300
vt 0.81648800 0.62405300
vt 0.82413800 0.62713600
vt 0.37413800 0.89127700
vt 0.57865100 0.97180600
vt 0.35930300 0.88353100
vt 0.51617700 0.30527000
vt 0.81715000 0.62763500
vt 0.36750600 0.88476200
vt 0.58230600 0.97751800
vt 0.36287100 0.88184000
vt 0.52081300 0.30913700
vt 0.51875800 0.30166400
vt 0.35482300 0.87980800
vt 0.51907400 0.29623100
vt 0.34913600 0.87917200
vt 0.35025400 0.87677600
vt 0.52141000 0.29783200
vt 0.52141000 0.29783200
vt 0.50618300 0.31602500
vt 0.80860800 0.62898900
vt 0.50096100 0.31284800
vt 0.80293300 0.62593800
vt 0.48957200 0.31205500
vt 0.81378400 0.63632300
vt 0.91942400 0.20308300
vt 0.37968300 0.88689700
vt 0.91020100 0.20531100
vt 0.38425400 0.89593400
vt 0.37836900 0.89510600
vt 0.37836900 0.89510600
vt 0.91608700 0.20819400
vt 0.38111400 0.88930400
vt 0.91686900 0.20339800
vt 0.47150300 0.30840600
vt 0.47150300 0.30840600
vt 0.46387700 0.30399600
vt 0.99267300 0.45706600
vt 0.98713900 0.45308100
vt 0.98677200 0.45857700
vt 0.98959900 0.46277700
vt 0.46566800 0.31014400
vt 0.76761500 0.62824600
vt 0.77561800 0.62405300
vt 0.77561800 0.62405300
vt 0.47394300 0.31294500
vt 0.47394300 0.31294500
vt 0.76606700 0.63509800
vt 0.98255100 0.46266100
vt 0.76242600 0.63725100
vt 0.98147200 0.45845900
vt 0.98414700 0.45457400
vt 0.97613900 0.45702400
vt 0.76378900 0.64276400
vt 0.97977200 0.45367600
vt 0.97858200 0.44734000
vt 0.97531100 0.45153000
vt 0.98360700 0.44967500
vt 0.37450300 0.27242200
vt 0.98167300 0.44587900
vt 0.97023900 0.45331500
vt 0.45774600 0.92563400
vt 0.78129200 0.62760900
vt 0.47919900 0.31399200
vt 0.47925800 0.31736600
vt 0.78172200 0.62997900
vt 0.80368800 0.64567400
vt 0.44682600 0.89142600
vt 0.79764200 0.64894200
vt 0.44933000 0.89830500
vt 0.79254800 0.64414500
vt 0.44813500 0.90471400
vt 0.79015700 0.64744600
f 2/2/2 6/6/6 1/1/1
f 2/2/2 3/3/3 381/381/381
f 423/423/423 1/1/1 5/5/5
f 1/1/1 6/6/6 5/5/5
f 5/5/5 6/6/6 8/8/8
f 2/2/2 7/7/7 6/6/6
f 7/7/7 9/9/9 6/6/6
f 11/11/11 8/8/8 6/6/6
f 9/9/9 11/11/11 6/6/6
f 11/11/11 15/15/15 12/12/12
f 14/14/14 11/11/11 9/9/9
f 14/14/14 422/422/422 15/15/15
f 16/16/16 18/18/18 399/399/399
f 15/15/15 16/16/16 20/20/20
f 12/12/12 15/15/15 20/20/20
f 20/20/20 21/21/21 12/12/12
f 20/20/20 24/24/24 21/21/21
f 16/16/16 22/22/22 20/20/20
f 22/22/22 31/31/31 24/24/24
f 25/25/25 29/29/29 22/22/22
f 22/22/22 29/29/29 31/31/31
f 30/30/30 27/27/27 32/32/32
f 30/30/30 32/32/32 34/34/34
f 23/23/23 33/33/33 428/428/428
f 33/33/33 30/30/30 34/34/34
f 35/35/35 32/32/32 39/39/39
f 34/34/34 40/40/40 33/33/33
f 36/36/36 37/37/37 259/259/259
f 35/35/35 36/36/36 40/40/40
f 40/40/40 36/36/36 41/41/41
f 42/42/42 40/40/40 41/41/41
f 41/41/41 43/43/43 42/42/42
f 41/41/41 46/46/46 43/43/43
f 36/36/36 45/45/45 41/41/41
f 41/41/41 44/44/44 46/46/46
f 41/41/41 45/45/45 44/44/44
f 47/47/47 43/43/43 46/46/46
f 46/46/46 54/54/54 47/47/47
f 195/195/195 48/48/48 55/55/55
f 53/53/53 48/48/48 49/49/49
f 47/47/47 51/51/51 43/43/43
f 47/47/47 56/56/56 51/51/51
f 57/57/57 48/48/48 53/53/53
f 56/56/56 62/62/62 58/58/58
f 56/56/56 58/58/58 51/51/51
f 61/61/61 53/53/53 70/70/70
f 59/59/59 60/60/60 3/3/3
f 60/60/60 64/64/64 3/3/3
f 3/3/3 64/64/64 66/66/66
f 65/65/65 68/68/68 66/66/66
f 68/68/68 65/65/65 71/71/71
f 69/69/69 85/85/85 76/76/76
f 66/66/66 74/74/74 356/356/356
f 67/67/67 76/76/76 72/72/72
f 78/78/78 72/72/72 76/76/76
f 77/77/77 79/79/79 384/384/384
f 75/75/75 80/80/80 79/79/79
f 75/75/75 82/82/82 80/80/80
f 84/84/84 81/81/81 85/85/85
f 86/86/86 82/82/82 83/83/83
f 80/80/80 82/82/82 86/86/86
f 91/91/91 80/80/80 86/86/86
f 83/83/83 88/88/88 86/86/86
f 88/88/88 89/89/89 86/86/86
f 89/89/89 91/91/91 86/86/86
f 89/89/89 93/93/93 91/91/91
f 93/93/93 94/94/94 91/91/91
f 94/94/94 95/95/95 91/91/91
f 95/95/95 80/80/80 91/91/91
f 79/79/79 80/80/80 95/95/95
f 97/97/97 95/95/95 94/94/94
f 79/79/79 95/95/95 96/96/96
f 96/96/96 95/95/95 98/98/98
f 95/95/95 97/97/97 98/98/98
f 96/96/96 98/98/98 101/101/101
f 99/99/99 101/101/101 98/98/98
f 99/99/99 97/97/97 167/167/167
f 101/101/101 103/103/103 96/96/96
f 101/101/101 105/105/105 103/103/103
f 107/107/107 104/104/104 102/102/102
f 106/106/106 102/102/102 100/100/100
f 107/107/107 102/102/102 106/106/106
f 106/106/106 108/108/108 107/107/107
f 108/108/108 114/114/114 107/107/107
f 112/112/112 107/107/107 109/109/109
f 109/109/109 107/107/107 114/114/114
f 107/107/107 112/112/112 104/104/104
f 118/118/118 117/117/117 114/114/114
f 115/115/115 116/116/116 110/110/110
f 108/108/108 118/118/118 114/114/114
f 121/121/121 117/117/117 118/118/118
f 118/118/118 119/119/119 120/120/120
f 108/108/108 119/119/119 118/118/118
f 121/121/121 118/118/118 120/120/120
f 121/121/121 125/125/125 126/126/126
f 125/125/125 121/121/121 128/128/128
f 127/127/127 116/116/116 122/122/122
f 120/120/120 128/128/128 121/121/121
f 320/320/320 243/243/243 275/275/275
f 132/132/132 131/131/131 128/128/128
f 120/120/120 132/132/132 128/128/128
f 120/120/120 134/134/134 132/132/132
f 133/133/133 132/132/132 134/134/134
f 131/131/131 132/132/132 133/133/133
f 137/137/137 133/133/133 134/134/134
f 135/135/135 136/136/136 134/134/134
f 135/135/135 134/134/134 119/119/119
f 136/136/136 137/137/137 134/134/134
f 138/138/138 137/137/137 136/136/136
f 138/138/138 140/140/140 137/137/137
f 137/137/137 146/146/146 142/142/142
f 142/142/142 131/131/131 133/133/133
f 142/142/142 148/148/148 143/143/143
f 142/142/142 146/146/146 148/148/148
f 150/150/150 149/149/149 147/147/147
f 149/149/149 156/156/156 144/144/144
f 151/151/151 150/150/150 154/154/154
f 152/152/152 150/150/150 151/151/151
f 147/147/147 154/154/154 150/150/150
f 152/152/152 156/156/156 150/150/150
f 158/158/158 154/154/154 157/157/157
f 157/157/157 154/154/154 159/159/159
f 154/154/154 158/158/158 151/151/151
f 141/141/141 154/154/154 147/147/147
f 159/159/159 141/141/141 139/139/139
f 161/161/161 157/157/157 159/159/159
f 161/161/161 159/159/159 164/164/164
f 160/160/160 138/138/138 163/163/163
f 138/138/138 166/166/166 163/163/163
f 97/97/97 162/162/162 165/165/165
f 167/167/167 97/97/97 165/165/165
f 166/166/166 168/168/168 163/163/163
f 168/168/168 166/166/166 100/100/100
f 100/100/100 169/169/169 106/106/106
f 136/136/136 169/169/169 166/166/166
f 138/138/138 136/136/136 166/166/166
f 169/169/169 135/135/135 170/170/170
f 106/106/106 169/169/169 170/170/170
f 119/119/119 170/170/170 135/135/135
f 157/157/157 92/92/92 171/171/171
f 158/158/158 157/157/157 171/171/171
f 172/172/172 158/158/158 171/171/171
f 158/158/158 172/172/172 173/173/173
f 158/158/158 175/175/175 151/151/151
f 231/231/231 173/173/173 172/172/172
f 174/174/174 176/176/176 173/173/173
f 175/175/175 173/173/173 176/176/176
f 177/177/177 178/178/178 176/176/176
f 177/177/177 176/176/176 174/174/174
f 151/151/151 176/176/176 178/178/178
f 178/178/178 185/185/185 179/179/179
f 177/177/177 181/181/181 178/178/178
f 182/182/182 178/178/178 181/181/181
f 180/180/180 186/186/186 183/183/183
f 186/186/186 184/184/184 183/183/183
f 186/186/186 187/187/187 184/184/184
f 180/180/180 190/190/190 186/186/186
f 203/203/203 238/238/238 186/186/186
f 186/186/186 191/191/191 193/193/193
f 201/201/201 193/193/193 191/191/191
f 196/196/196 192/192/192 197/197/197
f 204/204/204 192/192/192 196/196/196
f 207/207/207 198/198/198 194/194/194
f 202/202/202 207/207/207 194/194/194
f 177/177/177 208/208/208 200/200/200
f 208/208/208 211/211/211 209/209/209
f 211/211/211 174/174/174 212/212/212
f 211/211/211 212/212/212 213/213/213
f 177/177/177 174/174/174 211/211/211
f 211/211/211 213/213/213 209/209/209
f 215/215/215 217/217/217 213/213/213
f 213/213/213 212/212/212 215/215/215
f 217/217/217 209/209/209 213/213/213
f 199/199/199 216/216/216 219/219/219
f 210/210/210 218/218/218 198/198/198
f 214/214/214 219/219/219 216/216/216
f 50/50/50 197/197/197 219/219/219
f 219/219/219 52/52/52 50/50/50
f 222/222/222 220/220/220 224/224/224
f 228/228/228 221/221/221 215/215/215
f 88/88/88 223/223/223 225/225/225
f 225/225/225 227/227/227 88/88/88
f 228/228/228 229/229/229 87/87/87
f 228/228/228 215/215/215 212/212/212
f 228/228/228 212/212/212 229/229/229
f 212/212/212 231/231/231 229/229/229
f 89/89/89 88/88/88 230/230/230
f 229/229/229 171/171/171 90/90/90
f 212/212/212 174/174/174 231/231/231
f 231/231/231 172/172/172 171/171/171
f 84/84/84 85/85/85 222/222/222
f 55/55/55 206/206/206 195/195/195
f 232/232/232 206/206/206 55/55/55
f 205/205/205 233/233/233 235/235/235
f 235/235/235 240/240/240 239/239/239
f 236/236/236 246/246/246 244/244/244
f 240/240/240 188/188/188 239/239/239
f 242/242/242 188/188/188 240/240/240
f 242/242/242 240/240/240 245/245/245
f 247/247/247 250/250/250 278/278/278
f 256/256/256 248/248/248 246/246/246
f 44/44/44 234/234/234 54/54/54
f 253/253/253 251/251/251 248/248/248
f 257/257/257 254/254/254 252/252/252
f 256/256/256 36/36/36 253/253/253
f 253/253/253 36/36/36 258/258/258
f 254/254/254 257/257/257 262/262/262
f 266/266/266 257/257/257 261/261/261
f 268/268/268 264/264/264 265/265/265
f 255/255/255 263/263/263 272/272/272
f 268/268/268 270/270/270 264/264/264
f 270/270/270 273/273/273 264/264/264
f 270/270/270 275/275/275 273/273/273
f 250/250/250 274/274/274 276/276/276
f 272/272/272 251/251/251 255/255/255
f 275/275/275 289/289/289 281/281/281
f 271/271/271 286/286/286 285/285/285
f 285/285/285 286/286/286 288/288/288
f 292/292/292 283/283/283 287/287/287
f 292/292/292 291/291/291 283/283/283
f 294/294/294 295/295/295 391/391/391
f 294/294/294 297/297/297 293/293/293
f 287/287/287 296/296/296 292/292/292
f 290/290/290 293/293/293 297/297/297
f 298/298/298 299/299/299 297/297/297
f 298/298/298 297/297/297 294/294/294
f 297/297/297 302/302/302 290/290/290
f 300/300/300 301/301/301 363/363/363
f 299/299/299 304/304/304 302/302/302
f 302/302/302 304/304/304 305/305/305
f 309/309/309 302/302/302 305/305/305
f 280/280/280 290/290/290 302/302/302
f 312/312/312 308/308/308 306/306/306
f 303/303/303 311/311/311 306/306/306
f 311/311/311 312/312/312 306/306/306
f 316/316/316 317/317/317 310/310/310
f 311/311/311 303/303/303 313/313/313
f 318/318/318 315/315/315 321/321/321
f 319/319/319 322/322/322 320/320/320
f 321/321/321 323/323/323 318/318/318
f 324/324/324 127/127/127 323/323/323
f 323/323/323 127/127/127 124/124/124
f 326/326/326 116/116/116 324/324/324
f 321/321/321 325/325/325 324/324/324
f 325/325/325 326/326/326 324/324/324
f 110/110/110 326/326/326 327/327/327
f 116/116/116 326/326/326 110/110/110
f 325/325/325 327/327/327 326/326/326
f 325/325/325 330/330/330 327/327/327
f 332/332/332 327/327/327 330/330/330
f 331/331/331 110/110/110 327/327/327
f 332/332/332 331/331/331 327/327/327
f 334/334/334 333/333/333 328/328/328
f 334/334/334 337/337/337 333/333/333
f 336/336/336 331/331/331 332/332/332
f 334/334/334 346/346/346 340/340/340
f 336/336/336 344/344/344 331/331/331
f 343/343/343 339/339/339 341/341/341
f 342/342/342 340/340/340 346/346/346
f 353/353/353 348/348/348 365/365/365
f 346/346/346 383/383/383 342/342/342
f 347/347/347 353/353/353 351/351/351
f 353/353/353 360/360/360 351/351/351
f 359/359/359 356/356/356 74/74/74
f 355/355/355 364/364/364 356/356/356
f 357/357/357 363/363/363 301/301/301
f 364/364/364 355/355/355 358/358/358
f 354/354/354 366/366/366 361/361/361
f 365/365/365 335/335/335 367/367/367
f 367/367/367 362/362/362 365/365/365
f 368/368/368 369/369/369 363/363/363
f 329/329/329 367/367/367 335/335/335
f 373/373/373 370/370/370 329/329/329
f 371/371/371 300/300/300 369/369/369
f 363/363/363 369/369/369 300/300/300
f 300/300/300 371/371/371 304/304/304
f 371/371/371 314/314/314 304/304/304
f 371/371/371 375/375/375 314/314/314
f 321/321/321 374/374/374 325/325/325
f 325/325/325 374/374/374 330/330/330
f 364/364/364 7/7/7 356/356/356
f 364/364/364 379/379/379 377/377/377
f 358/358/358 379/379/379 364/364/364
f 378/378/378 10/10/10 376/376/376
f 298/298/298 380/380/380 357/357/357
f 378/378/378 380/380/380 10/10/10
f 10/10/10 380/380/380 13/13/13
f 9/9/9 7/7/7 377/377/377
f 360/360/360 386/386/386 351/351/351
f 356/356/356 381/381/381 66/66/66
f 7/7/7 381/381/381 356/356/356
f 381/381/381 7/7/7 2/2/2
f 66/66/66 381/381/381 3/3/3
f 389/389/389 350/350/350 385/385/385
f 350/350/350 387/387/387 385/385/385
f 387/387/387 72/72/72 385/385/385
f 385/385/385 72/72/72 78/78/78
f 388/388/388 79/79/79 96/96/96
f 390/390/390 384/384/384 388/388/388
f 388/388/388 382/382/382 390/390/390
f 388/388/388 103/103/103 343/343/343
f 343/343/343 382/382/382 388/388/388
f 96/96/96 103/103/103 388/388/388
f 382/382/382 343/343/343 341/341/341
f 113/113/113 343/343/343 103/103/103
f 111/111/111 331/331/331 344/344/344
f 420/420/420 298/298/298 294/294/294
f 287/287/287 393/393/393 296/296/296
f 393/393/393 392/392/392 296/296/296
f 395/395/395 396/396/396 394/394/394
f 288/288/288 395/395/395 394/394/394
f 396/396/396 397/397/397 394/394/394
f 392/392/392 393/393/393 398/398/398
f 399/399/399 18/18/18 401/401/401
f 396/396/396 405/405/405 397/397/397
f 392/392/392 398/398/398 403/403/403
f 404/404/404 16/16/16 399/399/399
f 407/407/407 405/405/405 396/396/396
f 25/25/25 16/16/16 404/404/404
f 406/406/406 25/25/25 404/404/404
f 407/407/407 396/396/396 408/408/408
f 407/407/407 408/408/408 411/411/411
f 407/407/407 409/409/409 26/26/26
f 411/411/411 409/409/409 407/407/407
f 408/408/408 414/414/414 411/411/411
f 411/411/411 414/414/414 412/412/412
f 413/413/413 411/411/411 412/412/412
f 409/409/409 411/411/411 413/413/413
f 286/286/286 414/414/414 395/395/395
f 408/408/408 395/395/395 414/414/414
f 416/416/416 412/412/412 414/414/414
f 414/414/414 269/269/269 416/416/416
f 414/414/414 286/286/286 269/269/269
f 412/412/412 416/416/416 267/267/267
f 415/415/415 268/268/268 265/265/265
f 412/412/412 260/260/260 413/413/413
f 260/260/260 38/38/38 413/413/413
f 417/417/417 413/413/413 38/38/38
f 409/409/409 417/417/417 28/28/28
f 32/32/32 27/27/27 418/418/418
f 32/32/32 418/418/418 39/39/39
f 412/412/412 267/267/267 260/260/260
f 395/395/395 408/408/408 396/396/396
f 400/400/400 19/19/19 419/419/419
f 402/402/402 294/294/294 391/391/391
f 402/402/402 420/420/420 294/294/294
f 421/421/421 420/420/420 17/17/17
f 13/13/13 420/420/420 421/421/421
f 395/395/395 288/288/288 286/286/286
f 269/269/269 286/286/286 271/271/271
f 45/45/45 36/36/36 256/256/256
f 189/189/189 177/177/177 200/200/200
f 152/152/152 179/179/179 185/185/185
f 152/152/152 151/151/151 179/179/179
f 90/90/90 171/171/171 92/92/92
f 105/105/105 113/113/113 103/103/103
f 424/424/424 58/58/58 4/4/4
f 58/58/58 424/424/424 426/426/426
f 58/58/58 42/42/42 51/51/51
f 426/426/426 428/428/428 33/33/33
f 33/33/33 42/42/42 426/426/426
f 5/5/5 425/425/425 423/423/423
f 427/427/427 429/429/429 425/425/425
f 429/429/429 21/21/21 24/24/24
f 8/8/8 427/427/427 5/5/5
f 42/42/42 43/43/43 51/51/51
f 21/21/21 8/8/8 12/12/12
f 2/2/2 1/1/1 3/3/3
f 423/423/423 3/3/3 1/1/1
f 11/11/11 12/12/12 8/8/8
f 15/15/15 11/11/11 14/14/14
f 422/422/422 19/19/19 15/15/15
f 16/16/16 15/15/15 18/18/18
f 20/20/20 22/22/22 24/24/24
f 16/16/16 25/25/25 22/22/22
f 25/25/25 410/410/410 29/29/29
f 23/23/23 30/30/30 33/33/33
f 35/35/35 34/34/34 32/32/32
f 34/34/34 35/35/35 40/40/40
f 259/259/259 258/258/258 36/36/36
f 36/36/36 35/35/35 37/37/37
f 42/42/42 33/33/33 40/40/40
f 46/46/46 44/44/44 54/54/54
f 195/195/195 49/49/49 48/48/48
f 61/61/61 57/57/57 53/53/53
f 70/70/70 63/63/63 61/61/61
f 69/69/69 52/52/52 220/220/220
f 220/220/220 222/222/222 85/85/85
f 85/85/85 81/81/81 76/76/76
f 76/76/76 67/67/67 69/69/69
f 69/69/69 220/220/220 85/85/85
f 66/66/66 68/68/68 74/74/74
f 77/77/77 75/75/75 79/79/79
f 93/93/93 162/162/162 94/94/94
f 99/99/99 98/98/98 97/97/97
f 106/106/106 170/170/170 108/108/108
f 108/108/108 170/170/170 119/119/119
f 127/127/127 324/324/324 116/116/116
f 311/311/311 319/319/319 320/320/320
f 320/320/320 322/322/322 123/123/123
f 123/123/123 129/129/129 130/130/130
f 130/130/130 145/145/145 155/155/155
f 155/155/155 153/153/153 184/184/184
f 155/155/155 184/184/184 187/187/187
f 123/123/123 130/130/130 155/155/155
f 312/312/312 311/311/311 320/320/320
f 320/320/320 123/123/123 155/155/155
f 155/155/155 187/187/187 243/243/243
f 243/243/243 279/279/279 277/277/277
f 277/277/277 273/273/273 275/275/275
f 275/275/275 282/282/282 307/307/307
f 307/307/307 312/312/312 320/320/320
f 320/320/320 155/155/155 243/243/243
f 243/243/243 277/277/277 275/275/275
f 275/275/275 307/307/307 320/320/320
f 120/120/120 119/119/119 134/134/134
f 137/137/137 142/142/142 133/133/133
f 137/137/137 140/140/140 146/146/146
f 142/142/142 143/143/143 131/131/131
f 149/149/149 150/150/150 156/156/156
f 159/159/159 154/154/154 141/141/141
f 97/97/97 94/94/94 162/162/162
f 100/100/100 166/166/166 169/169/169
f 136/136/136 135/135/135 169/169/169
f 157/157/157 161/161/161 92/92/92
f 158/158/158 173/173/173 175/175/175
f 231/231/231 174/174/174 173/173/173
f 178/178/178 179/179/179 151/151/151
f 151/151/151 175/175/175 176/176/176
f 178/178/178 182/182/182 185/185/185
f 177/177/177 189/189/189 181/181/181
f 186/186/186 193/193/193 203/203/203
f 203/203/203 237/237/237 238/238/238
f 238/238/238 187/187/187 186/186/186
f 207/207/207 210/210/210 198/198/198
f 177/177/177 211/211/211 208/208/208
f 214/214/214 220/220/220 219/219/219
f 50/50/50 196/196/196 197/197/197
f 219/219/219 220/220/220 52/52/52
f 228/228/228 226/226/226 221/221/221
f 88/88/88 83/83/83 223/223/223
f 229/229/229 231/231/231 171/171/171
f 244/244/244 241/241/241 236/236/236
f 236/236/236 234/234/234 246/246/246
f 278/278/278 242/242/242 245/245/245
f 247/247/247 249/249/249 250/250/250
f 278/278/278 245/245/245 247/247/247
f 250/250/250 276/276/276 278/278/278
f 246/246/246 44/44/44 45/45/45
f 256/256/256 253/253/253 248/248/248
f 246/246/246 45/45/45 256/256/256
f 44/44/44 246/246/246 234/234/234
f 253/253/253 255/255/255 251/251/251
f 266/266/266 262/262/262 257/257/257
f 270/270/270 284/284/284 275/275/275
f 275/275/275 284/284/284 289/289/289
f 294/294/294 293/293/293 295/295/295
f 298/298/298 301/301/301 299/299/299
f 297/297/297 299/299/299 302/302/302
f 300/300/300 299/299/299 301/301/301
f 299/299/299 300/300/300 304/304/304
f 309/309/309 280/280/280 302/302/302
f 321/321/321 324/324/324 323/323/323
f 331/331/331 111/111/111 110/110/110
f 340/340/340 337/337/337 334/334/334
f 334/334/334 349/349/349 346/346/346
f 336/336/336 338/338/338 344/344/344
f 353/353/353 345/345/345 348/348/348
f 346/346/346 350/350/350 383/383/383
f 359/359/359 355/355/355 356/356/356
f 357/357/357 352/352/352 363/363/363
f 365/365/365 348/348/348 335/335/335
f 329/329/329 370/370/370 367/367/367
f 373/373/373 372/372/372 370/370/370
f 321/321/321 315/315/315 374/374/374
f 364/364/364 377/377/377 7/7/7
f 298/298/298 13/13/13 380/380/380
f 380/380/380 378/378/378 357/357/357
f 357/357/357 301/301/301 298/298/298
f 360/360/360 73/73/73 386/386/386
f 389/389/389 383/383/383 350/350/350
f 388/388/388 384/384/384 79/79/79
f 420/420/420 13/13/13 298/298/298
f 409/409/409 413/413/413 417/417/417
f 58/58/58 426/426/426 42/42/42
f 5/5/5 427/427/427 425/425/425
f 429/429/429 427/427/427 21/21/21
f 8/8/8 21/21/21 427/427/427

