# ('FARMS composite mesh',)
mtllib link_body_20_composite.mtl

o link_body_20
usemtl link_body_20_composite
v -1.17813100 -0.00014600 -6.50627300
v -1.39327800 1.75288700 -6.20977200
v -1.49614700 -1.60767500 -6.23261700
v 1.88433800 -0.00000800 -6.59388700
v 1.88433800 -0.00000800 -6.59388700
v -2.12965000 0.29876800 -6.16594900
v -2.70563500 1.69307800 -5.62489000
v -3.52100500 0.16890900 -5.22947600
v -3.52100500 0.16890900 -5.22947600
v -3.22287300 2.66296500 -4.78375400
v -3.22287300 2.66296500 -4.78375400
v -3.67591600 -1.69986100 -4.74584800
v -3.67591600 -1.69986100 -4.74584800
v -2.51964200 -2.09225000 -5.57893100
v -4.61005500 -0.61061900 -3.68557200
v -4.61005500 -0.61061900 -3.68557200
v -4.65624000 1.82748600 -3.24979500
v -3.81099600 3.76127400 -3.16312300
v -5.36634400 1.76885500 -0.71419400
v -5.11912500 0.59253100 -2.56926300
v -4.17827500 4.21232800 -1.39076100
v -4.95960000 3.04819000 -0.00000000
v -3.29042900 5.31927200 -0.31978900
v -3.29042900 5.31927200 -0.31978900
v -2.96484300 5.13413200 -2.28391100
v -2.96484300 5.13413200 -2.28391100
v -4.32806700 4.18649900 0.73510700
v -5.22827500 1.91006400 1.31256700
v -3.58961000 4.86615000 1.36303800
v -3.58961000 4.86615000 1.36303800
v -3.61984200 4.38714900 2.47008300
v -3.61984200 4.38714900 2.47008300
v -4.50566600 2.94753600 2.60942500
v -4.12255600 1.49046200 4.28289400
v -4.12255600 1.49046200 4.28289400
v -5.12270700 0.67543000 2.52329000
v -3.63609200 3.41517500 3.66773200
v -3.63609200 3.41517500 3.66773200
v -3.63609200 3.41517500 3.66773200
v -3.63609200 3.41517500 3.66773200
v -2.79743600 1.46491800 5.57904300
v -2.79743600 1.46491800 5.57904300
v -2.79743600 1.46491800 5.57904300
v -3.40011300 2.43214500 4.64692300
v -3.40011300 2.43214500 4.64692300
v -3.40011300 2.43214500 4.64692300
v 0.90300900 0.63596100 6.19478400
v 0.90300900 0.63596100 6.19478400
v 0.90300900 0.63596100 6.19478400
v -0.47740000 1.85578300 4.95702400
v -0.47740000 1.85578300 4.95702400
v -0.47740000 1.85578300 4.95702400
v -1.20547100 3.10155700 3.32629600
v -1.20547100 3.10155700 3.32629600
v -0.99226900 0.06577700 4.80093000
v -0.99226900 0.06577700 4.80093000
v -0.22794100 0.01140100 5.55156300
v 1.09894900 -0.54623300 6.28848900
v 1.09894900 -0.54623300 6.28848900
v 1.09894900 -0.54623300 6.28848900
v -0.48605000 -1.86354400 4.94831800
v -0.48605000 -1.86354400 4.94831800
v -0.48605000 -1.86354400 4.94831800
v -3.62006700 -4.38550400 2.47272100
v -3.62006700 -4.38550400 2.47272100
v -1.23929600 -3.29956200 3.02588200
v -1.23929600 -3.29956200 3.02588200
v -1.47030600 -1.72437300 3.74502300
v -3.63468300 -3.41486100 3.67021200
v -3.63468300 -3.41486100 3.67021200
v -3.63468300 -3.41486100 3.67021200
v -3.63468300 -3.41486100 3.67021200
v -3.38382300 -2.32404100 4.73792600
v -3.38382300 -2.32404100 4.73792600
v -2.76791700 -1.35227200 5.65179300
v -2.76791700 -1.35227200 5.65179300
v -4.70979800 -3.12449700 1.83280800
v -4.70979800 -3.12449700 1.83280800
v -4.72651200 -1.70050800 3.16545100
v -4.72651200 -1.70050800 3.16545100
v -4.22135300 -0.29113400 4.36951100
v -4.22135300 -0.29113400 4.36951100
v -5.53639900 -0.76614000 0.65896300
v -5.44564000 -0.52809100 -1.30977700
v -4.97450600 -2.93282500 -0.84282900
v -4.97450600 -2.93282500 -0.84282900
v -4.26802100 -4.29202800 0.05466300
v -4.26802100 -4.29202800 0.05466300
v -4.91637200 -1.73008900 -2.60859900
v -3.29766100 -5.28298800 -1.03158700
v -3.29766100 -5.28298800 -1.03158700
v -3.98205500 -3.92157800 -2.56544500
v -3.98205500 -3.92157800 -2.56544500
v -2.96847700 -3.74569400 -4.26027500
v -2.96847700 -3.74569400 -4.26027500
v -2.90257600 -5.04585300 -2.57499900
v -2.90257600 -5.04585300 -2.57499900
v -4.04668400 -2.65052600 -3.74772000
v -4.04668400 -2.65052600 -3.74772000
v -4.04668400 -2.65052600 -3.74772000
v -0.69980800 -4.49646000 -2.32715200
v -0.69980800 -4.49646000 -2.32715200
v -2.53268600 -4.62487000 -3.70417500
v -2.53268600 -4.62487000 -3.70417500
v -2.53268600 -4.62487000 -3.70417500
v 0.62962700 -2.63129600 -5.54681300
v 0.62962700 -2.63129600 -5.54681300
v 0.62962700 -2.63129600 -5.54681300
v -2.07787700 -3.85478800 -4.81835800
v -2.07787700 -3.85478800 -4.81835800
v -2.07787700 -3.85478800 -4.81835800
v 0.16086900 -3.23765100 -4.85103300
v 0.16086900 -3.23765100 -4.85103300
v 0.16086900 -3.23765100 -4.85103300
v -0.32445500 -3.96382900 -3.68913700
v -0.32445500 -3.96382900 -3.68913700
v -1.43616500 -2.85349100 -3.13365000
v -1.43616500 -2.85349100 -3.13365000
v -1.43616500 -2.85349100 -3.13365000
v -0.91996400 -0.86731100 -4.79408500
v -0.91996400 -0.86731100 -4.79408500
v -1.71927100 -3.68434900 -0.55731000
v -1.71927100 -3.68434900 -0.55731000
v -2.41754900 -1.95222700 -0.66185600
v -1.99437100 -0.71187400 -3.14402100
v -0.92467100 -4.64044300 -1.30032000
v -0.92467100 -4.64044300 -1.30032000
v -1.09378600 -4.54567000 0.43906300
v -1.09378600 -4.54567000 0.43906300
v -3.29043000 -5.31927300 -0.31979200
v -3.29043000 -5.31927300 -0.31979200
v -3.58402000 -4.86965800 1.38730500
v -3.58402000 -4.86965800 1.38730500
v -1.26028800 -4.13959200 1.49100900
v -1.26028800 -4.13959200 1.49100900
v -1.26028800 -4.13959200 1.49100900
v -2.11330000 -1.97835000 2.17669100
v -2.53077300 -0.52999100 1.31447000
v -2.00241800 0.47034000 3.17484500
v -2.16257600 2.14038000 1.82188100
v -2.64701600 0.43725200 -0.47495200
v -1.23339400 4.18141400 1.38468300
v -1.23339400 4.18141400 1.38468300
v -1.98253600 3.24099700 0.08741200
v -1.65345900 3.35501800 -1.96951700
v -2.29977600 1.97948600 -1.26362600
v -0.92403800 4.63912700 -1.30952000
v -0.92403800 4.63912700 -1.30952000
v -1.09634200 4.53139400 0.56478900
v -1.09634200 4.53139400 0.56478900
v -0.70818500 4.49654100 -2.31489500
v -0.70818500 4.49654100 -2.31489500
v -0.32526800 3.96451300 -3.68782200
v -0.32526800 3.96451300 -3.68782200
v -0.32526800 3.96451300 -3.68782200
v -2.53268800 4.62487200 -3.70417000
v -2.53268800 4.62487200 -3.70417000
v -2.07787700 3.85479100 -4.81835500
v -2.07787700 3.85479100 -4.81835500
v -2.07787700 3.85479100 -4.81835500
v -2.07787700 3.85479100 -4.81835500
v 0.34142100 3.01317700 -5.18000100
v 0.34142100 3.01317700 -5.18000100
v 0.34142100 3.01317700 -5.18000100
v -0.39198900 1.49531400 -5.23596000
v -0.39198900 1.49531400 -5.23596000
v -1.16500300 2.57434000 -3.76116300
v -1.16500300 2.57434000 -3.76116300
v 1.38805000 1.81502000 -6.18570700
v 1.38805000 1.81502000 -6.18570700
v 0.79558500 0.04390500 -6.18345200
v -1.67911500 2.98536500 -5.59700300
v 1.36202000 -1.82195400 -6.18058100
v 1.36202000 -1.82195400 -6.18058100
v -0.19840100 -0.02531000 -5.55983100
v -1.67911700 -2.98536600 -5.59700300
v -1.95386900 0.76955900 -3.21871200
v -2.00696200 -0.85306400 6.14862300
v -2.00696200 -0.85306400 6.14862300
v -2.00696200 -0.85306400 6.14862300
v -1.98956500 0.81379600 6.17228900
v -1.98956500 0.81379600 6.17228900
v -0.81157700 0.09345900 6.60600600
v -0.81157700 0.09345900 6.60600600
v 1.79095100 0.12212100 6.53254500
v 1.79095100 0.12212100 6.53254500
v 1.79095100 0.12212100 6.53254500
v -1.05000100 -0.28030500 6.53314000
vn -0.16733810 -0.00221504 -0.98589708
vn -0.19129983 0.28852139 -0.93816831
vn -0.24355937 -0.24919217 -0.93732710
vn -0.00896780 -0.00024547 -0.99995976
vn 0.35274581 0.00002635 0.93571918
vn -0.44948475 0.01378828 -0.89318158
vn -0.54890466 0.24444474 -0.79934376
vn -0.63936950 -0.03332076 -0.76817730
vn -0.80568562 0.13652462 -0.57639544
vn -0.55904548 0.36456407 -0.74468866
vn -0.71371399 0.37920579 -0.58891027
vn -0.67924664 -0.23548821 -0.69510381
vn -0.83147016 -0.21401132 -0.51269536
vn -0.52609340 -0.28242994 -0.80215900
vn -0.88338460 -0.06359315 -0.46431407
vn -0.79162946 -0.09074840 -0.60422473
vn -0.86801298 0.24916042 -0.42950269
vn -0.74771875 0.50770738 -0.42796014
vn -0.96969721 0.22093395 -0.10428569
vn -0.94283555 0.06866460 -0.32610779
vn -0.80779457 0.55773916 -0.19077465
vn -0.91719357 0.39831080 -0.01022105
vn 0.25569499 0.95810545 0.12905043
vn -0.72166311 0.68914658 -0.06541669
vn -0.67455045 0.67145478 -0.30680641
vn 0.26143659 0.95545145 -0.13697967
vn -0.82119595 0.56159678 0.10122391
vn -0.95732766 0.23472265 0.16860909
vn 0.23444966 0.90603446 0.35232785
vn -0.74098370 0.65028004 0.16756797
vn -0.78552548 0.53816072 0.30550411
vn 0.22994068 0.84387607 0.48476845
vn -0.85591514 0.38548357 0.34469071
vn -0.85100660 0.22940058 0.47240146
vn -0.69112186 0.13870713 0.70930312
vn -0.94219990 0.07706338 0.32606838
vn -0.77656738 0.41816966 0.47125071
vn 0.05920262 0.71158200 0.70010435
vn 0.12463368 0.76991274 0.62586006
vn 0.04143945 0.70837133 0.70462248
vn 0.04059300 0.70622624 0.70682155
vn 0.05920262 0.71158200 0.70010435
vn -0.65275628 0.08007265 0.75332437
vn -0.75239973 0.36534658 0.54810265
vn -0.67475088 0.24908909 0.69474159
vn 0.05920262 0.71158200 0.70010435
vn 0.13003661 0.77486263 0.61861005
vn 0.03174602 0.60941958 0.79221207
vn 0.47735162 -0.05988520 -0.87666937
vn 0.83203775 -0.19400512 -0.51968759
vn 0.62066668 -0.16326043 -0.76688911
vn 0.14417746 0.78080249 0.60791473
vn 0.26345399 0.82631002 0.49779889
vn 0.86093399 -0.30541099 -0.40683756
vn 0.83156862 -0.03261095 -0.55446385
vn 0.70041104 -0.00710374 -0.71370436
vn 0.61055626 0.00676754 -0.79194397
vn 0.45976104 0.05871224 -0.88609969
vn 0.05846359 -0.72911049 0.68189435
vn 0.03350104 -0.38434708 0.92258062
vn 0.15438550 -0.78872174 0.59504884
vn 0.76538659 0.23590040 -0.59877740
vn 0.61037434 0.16522335 -0.77468988
vn 0.23166582 -0.84249707 0.48634312
vn -0.79174347 -0.53072990 0.30243686
vn 0.85078324 0.37868548 -0.36436957
vn 0.26304178 -0.82850136 0.49436274
vn 0.83339560 0.22387290 -0.50530455
vn -0.81769137 -0.39843395 0.41548912
vn -0.77756321 -0.33934491 0.52937746
vn -0.78612500 -0.48480421 0.38336974
vn 0.10425295 -0.75501154 0.64737076
vn 0.06706813 -0.70575695 0.70527228
vn -0.76149132 -0.24578648 0.59976661
vn -0.65411376 -0.06039893 0.75398088
vn 0.03245509 -0.70589246 0.70757508
vn -0.92058362 -0.32932623 0.20992865
vn -0.79933727 -0.53914673 0.26529366
vn -0.92010526 -0.19545406 0.33941719
vn -0.78264400 -0.26564107 0.56294155
vn -0.89562115 0.01402077 0.44459665
vn -0.72005468 -0.07367173 0.68999546
vn -0.99086134 -0.09997320 0.09054922
vn -0.98472988 -0.07123680 -0.15884701
vn -0.94329808 -0.32059972 -0.08604971
vn -0.80851593 -0.56316532 -0.17072436
vn -0.90103297 -0.42980769 0.05835191
vn -0.78651886 -0.61683195 -0.03010694
vn -0.91479232 -0.23222102 -0.33049721
vn -0.76217576 -0.62815492 -0.15655515
vn 0.25354155 -0.96515858 -0.06469627
vn -0.86987481 -0.37712255 -0.31795658
vn -0.73530222 -0.59217768 -0.32963046
vn -0.68593091 -0.55975488 -0.46494437
vn -0.55019247 -0.49204570 -0.67466975
vn -0.67439638 -0.64106719 -0.36636372
vn 0.25582163 -0.95331195 -0.16047311
vn -0.68448763 -0.38380400 -0.61981543
vn -0.85371234 -0.29003251 -0.43250016
vn -0.72595633 -0.48783038 -0.48477719
vn 0.26410907 -0.94546212 -0.19065092
vn 0.80433241 0.51008137 0.30473984
vn 0.26034374 -0.90201466 -0.34436999
vn -0.66001776 -0.60707335 -0.44253644
vn -0.46759321 -0.62632126 -0.62376138
vn 0.60690811 0.23096196 0.76047296
vn 0.10537672 -0.67046028 -0.73442410
vn 0.19618277 -0.81506520 -0.54514314
vn -0.50542398 -0.48891241 -0.71099315
vn 0.12521404 -0.68975886 -0.71312984
vn 0.25129569 -0.84118178 -0.47881489
vn 0.70778598 0.42718446 0.56262994
vn 0.69446980 0.30096413 0.65355358
vn 0.18204242 -0.81196742 -0.55458946
vn 0.72437180 0.47556040 0.49912704
vn 0.26805821 -0.88689897 -0.37623797
vn 0.77364101 0.49543772 0.39499500
vn 0.89957480 0.27270728 0.34116845
vn 0.72874983 0.31772304 0.60661004
vn 0.67664146 0.19839296 0.70908149
vn 0.82597608 0.05042661 0.56144516
vn 0.82163171 0.55964423 0.10825744
vn 0.92712982 0.37452484 0.01270598
vn 0.96452194 0.25083821 0.08232628
vn 0.91490027 0.10455461 0.38990490
vn 0.82231279 0.53674173 0.18897088
vn 0.27137152 -0.96219106 -0.02336365
vn 0.82731646 0.56066408 -0.03468811
vn 0.27565967 -0.93150455 0.23729943
vn 0.25864311 -0.95871009 0.11823158
vn -0.72349218 -0.69031502 0.00492238
vn 0.24858123 -0.90079826 0.35604757
vn -0.77856522 -0.60729342 0.15821157
vn 0.26774250 -0.86947367 0.41512588
vn 0.84447728 0.53083096 -0.07125044
vn 0.90507385 0.39655404 -0.15357803
vn 0.92984484 0.26460628 -0.25567965
vn 0.98553126 0.05448065 -0.16049919
vn 0.90580602 -0.07210147 -0.41751268
vn 0.93702228 -0.26821096 -0.22372333
vn 0.99653460 -0.05642553 0.06111430
vn 0.85934314 -0.48084278 -0.17412521
vn 0.27132891 0.85923527 0.43369963
vn 0.90949367 -0.41529620 -0.01871707
vn 0.85937123 -0.43452631 0.26956998
vn 0.95817041 -0.23614776 0.16169014
vn 0.28017752 0.95980651 -0.01649296
vn 0.81545654 -0.56078959 0.14333758
vn 0.27200938 0.92822997 0.25377159
vn 0.82855894 -0.55928260 -0.02632589
vn 0.27182500 0.94274597 -0.19323872
vn 0.77243051 -0.53707799 0.33896657
vn 0.76395332 -0.49382417 0.41534685
vn 0.67996090 -0.44161191 0.58534784
vn 0.26802760 0.88662023 -0.37691614
vn 0.25703739 0.90490025 -0.33924523
vn -0.61086876 0.58882075 -0.52927260
vn -0.58024968 0.53974334 -0.60990772
vn -0.48819685 0.44725730 -0.74941627
vn 0.21934834 0.84218840 -0.49254949
vn 0.13263981 0.69746217 -0.70423945
vn 0.61894063 -0.34961106 0.70333819
vn 0.24654857 0.85591155 -0.45456487
vn 0.14199830 0.70622954 -0.69359666
vn 0.59471558 -0.22580658 0.77157292
vn 0.80555409 -0.12194405 0.57983813
vn 0.68673157 -0.40437465 0.60405372
vn 0.83509956 -0.31461108 0.45125224
vn 0.03151168 0.36502059 -0.93046600
vn 0.45699663 -0.18697320 0.86959479
vn 0.45142378 0.00004906 0.89230968
vn -0.17857175 0.54376095 -0.82002205
vn 0.02161462 -0.35439725 -0.93484512
vn 0.48833125 0.15565077 0.85866491
vn 0.62272427 0.02614313 0.78200449
vn -0.17576759 -0.54667933 -0.81868643
vn 0.90221587 -0.11198518 0.41649230
vn -0.48717903 -0.00731399 0.87327149
vn 0.02074731 -0.58092853 0.81369011
vn 0.04235347 -0.73647834 0.67513394
vn -0.50716154 0.00774138 0.86181625
vn 0.03428746 0.67127528 0.74041466
vn 0.01789081 0.53704803 0.84336192
vn -0.09723953 -0.14703120 0.98434054
vn 0.34696468 -0.01682083 -0.93772734
vn 0.02540388 0.56749808 0.82298273
vn 0.03028442 -0.37036723 0.92839160
vn -0.13578509 -0.27863791 0.95074882
vt 0.90563400 0.70520000
vt 0.91114600 0.69712100
vt 0.89804400 0.71034700
vt 0.92061300 0.71896700
vt 0.64977500 0.94692500
vt 0.90209200 0.69973700
vt 0.90448800 0.69152200
vt 0.89477500 0.69410400
vt 0.87842800 0.29443900
vt 0.90557100 0.68533100
vt 0.87722700 0.28077500
vt 0.88699700 0.70107100
vt 0.87485300 0.30404900
vt 0.89120400 0.70778500
vt 0.86912300 0.30035800
vt 0.88648300 0.69254200
vt 0.86780900 0.28787400
vt 0.86855600 0.27583400
vt 0.85352400 0.28860900
vt 0.86331100 0.29495800
vt 0.85884700 0.27351900
vt 0.85033800 0.28067600
vt 0.33991000 0.79190900
vt 0.85381500 0.26501900
vt 0.86468400 0.26619900
vt 0.34362300 0.80238900
vt 0.84706400 0.27286500
vt 0.84248100 0.28641800
vt 0.33771600 0.78268800
vt 0.84421700 0.26716200
vt 0.83789000 0.26905900
vt 0.33763900 0.77643100
vt 0.83610500 0.27857300
vt 0.82638400 0.28404800
vt 0.23521500 0.93022500
vt 0.83529600 0.29173800
vt 0.83084500 0.27336900
vt 0.23177400 0.98584300
vt 0.33848400 0.76946100
vt 0.22422200 0.92826200
vt 0.23140500 0.93813200
vt 0.23177400 0.97180600
vt 0.23140500 0.93813200
vt 0.82510300 0.27720300
vt 0.22840700 0.93213100
vt 0.23080400 0.97942700
vt 0.37004500 0.75125600
vt 0.22435100 0.96212100
vt 0.97677100 0.79211000
vt 0.15870900 0.82607000
vt 0.98825500 0.79289300
vt 0.36008700 0.75952500
vt 0.35441100 0.76950700
vt 0.15785500 0.83740900
vt 0.16823900 0.82206900
vt 0.98578400 0.78271500
vt 0.98128000 0.78517000
vt 0.97212600 0.78730500
vt 0.69464900 0.59512900
vt 0.22959600 0.96625500
vt 0.70272300 0.58522400
vt 0.17652300 0.81609000
vt 0.97716200 0.77554400
vt 0.71770900 0.56558100
vt 0.71770900 0.56558100
vt 0.18928800 0.82161700
vt 0.71380900 0.58099400
vt 0.18010800 0.82241400
vt 0.82773500 0.30799800
vt 0.25790700 0.94545500
vt 0.71092300 0.56498900
vt 0.71092300 0.56498900
vt 0.70476100 0.56615800
vt 0.25182200 0.94419500
vt 0.24521500 0.94539500
vt 0.69937000 0.56981000
vt 0.83754600 0.31032000
vt 0.72132900 0.55819500
vt 0.83084400 0.30240700
vt 0.25272300 0.93467900
vt 0.82505800 0.29329000
vt 0.24430500 0.93412200
vt 0.84474100 0.30114600
vt 0.85573100 0.30079000
vt 0.85226200 0.31150800
vt 0.73616500 0.55698500
vt 0.84699200 0.31607800
vt 0.73124300 0.56179600
vt 0.86255700 0.30623300
vt 0.73715500 0.56870800
vt 0.73715500 0.56870800
vt 0.86171000 0.31490500
vt 0.74558900 0.56418400
vt 0.75465300 0.57124100
vt 0.88277300 0.71263900
vt 0.74554000 0.57161400
vt 0.74554000 0.57161400
vt 0.88159200 0.70338100
vt 0.86877200 0.30927800
vt 0.75192500 0.56371500
vt 0.74347000 0.58604100
vt 0.95290900 0.57608600
vt 0.75161000 0.57421800
vt 0.75161000 0.57421800
vt 0.88159200 0.71824000
vt 0.64230900 0.93183200
vt 0.90458200 0.72415200
vt 0.76058700 0.59512900
vt 0.88673500 0.71703200
vt 0.88673500 0.71703200
vt 0.75751400 0.57729800
vt 0.96749600 0.57565800
vt 0.63938800 0.92826200
vt 0.75697300 0.59200900
vt 0.96069500 0.57612900
vt 0.75080700 0.58870600
vt 0.95616400 0.58447200
vt 0.20365100 0.85263400
vt 0.62863100 0.92966800
vt 0.63142700 0.94092800
vt 0.19798400 0.86594900
vt 0.94192300 0.58209700
vt 0.20112100 0.83797300
vt 0.19387600 0.84323800
vt 0.19404700 0.85852900
vt 0.94707000 0.57617600
vt 0.73787800 0.58435600
vt 0.93738300 0.57565800
vt 0.72829000 0.58282700
vt 0.73322300 0.56860800
vt 0.73322300 0.56860800
vt 0.72378500 0.56617600
vt 0.72378500 0.56617600
vt 0.72244800 0.58139400
vt 0.93139500 0.57638900
vt 0.19738400 0.82677900
vt 0.18616700 0.82939900
vt 0.18197500 0.83752700
vt 0.17170100 0.83115600
vt 0.16746700 0.84222100
vt 0.18220700 0.84880300
vt 0.15785500 0.84971300
vt 0.35360600 0.78063800
vt 0.16659500 0.85355100
vt 0.17112900 0.86376300
vt 0.17654200 0.85672800
vt 0.35655000 0.79540700
vt 0.16245200 0.86393600
vt 0.35438500 0.78519100
vt 0.15820000 0.85460300
vt 0.35884400 0.80071700
vt 0.16555700 0.86838500
vt 0.17131300 0.87354100
vt 0.63373600 0.96782200
vt 0.36313900 0.80776700
vt 0.34821500 0.80967300
vt 0.87245300 0.26844600
vt 0.87842800 0.27178900
vt 0.91563900 0.68562300
vt 0.35321300 0.81515300
vt 0.91563900 0.68562300
vt 0.63850600 0.96289800
vt 0.37004500 0.81509800
vt 0.92432500 0.69989800
vt 0.63414900 0.95421800
vt 0.18728200 0.87438300
vt 0.62863100 0.95980600
vt 0.17906600 0.87026000
vt 0.92497900 0.70938300
vt 0.64586900 0.95674000
vt 0.64253000 0.94671400
vt 0.91435200 0.69087800
vt 0.91121600 0.72408300
vt 0.64691000 0.93662700
vt 0.63594700 0.94590500
vt 0.89196600 0.71520300
vt 0.18711800 0.86287700
vt 0.24048000 0.94864300
vt 0.24048000 0.94864300
vt 0.69632800 0.57462900
vt 0.23220700 0.94455200
vt 0.23220700 0.94455200
vt 0.23222500 0.95333700
vt 0.23222500 0.95333700
vt 0.97023900 0.79289300
vt 0.22422200 0.96867000
vt 0.22422200 0.96867000
vt 0.23478400 0.95286600
f 2/2/2 4/4/4 1/1/1
f 1/1/1 6/6/6 2/2/2
f 1/1/1 3/3/3 6/6/6
f 1/1/1 4/4/4 3/3/3
f 3/3/3 8/8/8 6/6/6
f 6/6/6 8/8/8 7/7/7
f 6/6/6 7/7/7 2/2/2
f 7/7/7 8/8/8 10/10/10
f 9/9/9 17/17/17 11/11/11
f 12/12/12 8/8/8 14/14/14
f 12/12/12 16/16/16 8/8/8
f 3/3/3 14/14/14 8/8/8
f 9/9/9 15/15/15 17/17/17
f 17/17/17 15/15/15 20/20/20
f 11/11/11 17/17/17 18/18/18
f 21/21/21 18/18/18 17/17/17
f 17/17/17 20/20/20 19/19/19
f 21/21/21 17/17/17 19/19/19
f 25/25/25 18/18/18 21/21/21
f 22/22/22 21/21/21 19/19/19
f 27/27/27 21/21/21 22/22/22
f 24/24/24 25/25/25 21/21/21
f 24/24/24 21/21/21 27/27/27
f 27/27/27 28/28/28 33/33/33
f 22/22/22 28/28/28 27/27/27
f 30/30/30 24/24/24 27/27/27
f 31/31/31 30/30/30 27/27/27
f 31/31/31 27/27/27 33/33/33
f 28/28/28 36/36/36 33/33/33
f 33/33/33 36/36/36 34/34/34
f 37/37/37 33/33/33 34/34/34
f 37/37/37 31/31/31 33/33/33
f 46/46/46 42/42/42 38/38/38
f 41/41/41 48/48/48 40/40/40
f 39/39/39 52/52/52 32/32/32
f 44/44/44 37/37/37 34/34/34
f 39/39/39 47/47/47 52/52/52
f 55/55/55 54/54/54 50/50/50
f 32/32/32 52/52/52 53/53/53
f 51/51/51 49/49/49 57/57/57
f 57/57/57 56/56/56 51/51/51
f 58/58/58 63/63/63 57/57/57
f 58/58/58 57/57/57 49/49/49
f 56/56/56 57/57/57 63/63/63
f 61/61/61 72/72/72 64/64/64
f 61/61/61 64/64/64 67/67/67
f 62/62/62 68/68/68 55/55/55
f 62/62/62 66/66/66 68/68/68
f 61/61/61 59/59/59 72/72/72
f 74/74/74 80/80/80 70/70/70
f 76/76/76 73/73/73 72/72/72
f 71/71/71 78/78/78 65/65/65
f 59/59/59 76/76/76 72/72/72
f 79/79/79 77/77/77 69/69/69
f 81/81/81 36/36/36 79/79/79
f 83/83/83 79/79/79 36/36/36
f 83/83/83 77/77/77 79/79/79
f 80/80/80 74/74/74 82/82/82
f 83/83/83 85/85/85 77/77/77
f 28/28/28 83/83/83 36/36/36
f 19/19/19 83/83/83 28/28/28
f 84/84/84 83/83/83 19/19/19
f 83/83/83 84/84/84 85/85/85
f 85/85/85 87/87/87 77/77/77
f 90/90/90 88/88/88 86/86/86
f 89/89/89 85/85/85 84/84/84
f 92/92/92 85/85/85 89/89/89
f 93/93/93 90/90/90 86/86/86
f 100/100/100 94/94/94 93/93/93
f 94/94/94 96/96/96 93/93/93
f 93/93/93 96/96/96 90/90/90
f 99/99/99 92/92/92 89/89/89
f 15/15/15 99/99/99 89/89/89
f 13/13/13 99/99/99 15/15/15
f 95/95/95 98/98/98 12/12/12
f 97/97/97 103/103/103 101/101/101
f 91/91/91 97/97/97 101/101/101
f 94/94/94 104/104/104 96/96/96
f 101/101/101 103/103/103 116/116/116
f 103/103/103 108/108/108 114/114/114
f 103/103/103 111/111/111 108/108/108
f 105/105/105 95/95/95 109/109/109
f 103/103/103 114/114/114 116/116/116
f 117/117/117 115/115/115 112/112/112
f 102/102/102 115/115/115 117/117/117
f 113/113/113 120/120/120 119/119/119
f 121/121/121 125/125/125 118/118/118
f 126/126/126 102/102/102 117/117/117
f 118/118/118 124/124/124 123/123/123
f 122/122/122 126/126/126 117/117/117
f 118/118/118 125/125/125 124/124/124
f 91/91/91 101/101/101 127/127/127
f 122/122/122 128/128/128 126/126/126
f 127/127/127 129/129/129 130/130/130
f 127/127/127 130/130/130 91/91/91
f 129/129/129 132/132/132 130/130/130
f 88/88/88 131/131/131 133/133/133
f 90/90/90 131/131/131 88/88/88
f 132/132/132 129/129/129 134/134/134
f 132/132/132 134/134/134 64/64/64
f 78/78/78 133/133/133 65/65/65
f 88/88/88 133/133/133 78/78/78
f 67/67/67 64/64/64 134/134/134
f 124/124/124 137/137/137 136/136/136
f 66/66/66 136/136/136 137/137/137
f 135/135/135 128/128/128 122/122/122
f 124/124/124 136/136/136 123/123/123
f 124/124/124 138/138/138 137/137/137
f 138/138/138 139/139/139 137/137/137
f 137/137/137 139/139/139 68/68/68
f 68/68/68 66/66/66 137/137/137
f 139/139/139 140/140/140 54/54/54
f 138/138/138 140/140/140 139/139/139
f 55/55/55 68/68/68 139/139/139
f 55/55/55 139/139/139 54/54/54
f 141/141/141 140/140/140 138/138/138
f 144/144/144 140/140/140 141/141/141
f 144/144/144 142/142/142 140/140/140
f 140/140/140 142/142/142 54/54/54
f 146/146/146 144/144/144 141/141/141
f 144/144/144 145/145/145 148/148/148
f 146/146/146 145/145/145 144/144/144
f 148/148/148 150/150/150 144/144/144
f 150/150/150 142/142/142 144/144/144
f 23/23/23 149/149/149 147/147/147
f 23/23/23 29/29/29 149/149/149
f 149/149/149 29/29/29 32/32/32
f 149/149/149 32/32/32 143/143/143
f 147/147/147 151/151/151 26/26/26
f 23/23/23 147/147/147 26/26/26
f 145/145/145 152/152/152 148/148/148
f 156/156/156 26/26/26 151/151/151
f 145/145/145 153/153/153 152/152/152
f 151/151/151 155/155/155 156/156/156
f 25/25/25 157/157/157 18/18/18
f 157/157/157 158/158/158 11/11/11
f 163/163/163 160/160/160 156/156/156
f 156/156/156 155/155/155 163/163/163
f 157/157/157 11/11/11 18/18/18
f 154/154/154 167/167/167 162/162/162
f 165/165/165 170/170/170 162/162/162
f 165/165/165 162/162/162 167/167/167
f 161/161/161 164/164/164 169/169/169
f 5/5/5 170/170/170 171/171/171
f 165/165/165 171/171/171 170/170/170
f 2/2/2 169/169/169 4/4/4
f 172/172/172 169/169/169 2/2/2
f 161/161/161 169/169/169 172/172/172
f 10/10/10 159/159/159 172/172/172
f 2/2/2 7/7/7 172/172/172
f 10/10/10 172/172/172 7/7/7
f 171/171/171 174/174/174 5/5/5
f 175/175/175 174/174/174 171/171/171
f 165/165/165 175/175/175 171/171/171
f 175/175/175 106/106/106 174/174/174
f 120/120/120 106/106/106 175/175/175
f 120/120/120 175/175/175 165/165/165
f 4/4/4 173/173/173 3/3/3
f 3/3/3 173/173/173 176/176/176
f 110/110/110 173/173/173 107/107/107
f 176/176/176 173/173/173 110/110/110
f 176/176/176 95/95/95 14/14/14
f 3/3/3 176/176/176 14/14/14
f 176/176/176 109/109/109 95/95/95
f 145/145/145 168/168/168 153/153/153
f 168/168/168 145/145/145 177/177/177
f 166/166/166 168/168/168 177/177/177
f 177/177/177 145/145/145 146/146/146
f 177/177/177 146/146/146 141/141/141
f 121/121/121 177/177/177 125/125/125
f 177/177/177 141/141/141 125/125/125
f 166/166/166 177/177/177 121/121/121
f 53/53/53 143/143/143 32/32/32
f 125/125/125 141/141/141 124/124/124
f 141/141/141 138/138/138 124/124/124
f 113/113/113 106/106/106 120/120/120
f 14/14/14 95/95/95 12/12/12
f 20/20/20 89/89/89 84/84/84
f 15/15/15 89/89/89 20/20/20
f 20/20/20 84/84/84 19/19/19
f 75/75/75 82/82/82 74/74/74
f 36/36/36 81/81/81 34/34/34
f 82/82/82 75/75/75 43/43/43
f 82/82/82 43/43/43 35/35/35
f 75/75/75 178/178/178 181/181/181
f 59/59/59 180/180/180 76/76/76
f 43/43/43 75/75/75 181/181/181
f 188/188/188 181/181/181 178/178/178
f 182/182/182 183/183/183 186/186/186
f 184/184/184 181/181/181 188/188/188
f 41/41/41 182/182/182 48/48/48
f 48/48/48 182/182/182 186/186/186
f 60/60/60 184/184/184 188/188/188
f 188/188/188 179/179/179 60/60/60
f 49/49/49 185/185/185 58/58/58
f 60/60/60 187/187/187 184/184/184
f 43/43/43 45/45/45 35/35/35
f 22/22/22 19/19/19 28/28/28

