# ('FARMS composite mesh',)
mtllib link_leg_1_L_0_composite.mtl

o link_leg_1_L_0
usemtl link_leg_1_L_0_composite
v -0.24711900 -3.10027600 3.29200100
v 0.02819200 -3.02717400 3.18604300
v -0.43071200 -2.34858200 2.99017300
v -0.43071200 -2.34858200 2.99017300
v -0.71080700 -4.42713400 3.40640300
v 0.27638900 -3.92590600 3.40492400
v 0.96719400 -2.66723400 2.86163900
v -0.12397800 -5.08522500 3.71106100
v 0.92077100 -5.32881800 3.18560900
v 0.92077100 -5.32881800 3.18560900
v 0.71796700 -5.74689300 3.47366000
v 0.31675300 -6.62982800 3.64085900
v 0.99398500 -5.85215700 3.18557800
v 0.99398500 -5.85215700 3.18557800
v 0.64885400 -7.31629600 3.41725000
v 0.51339000 -8.60995500 2.70476100
v 1.71863700 -8.06716600 2.44813500
v 1.71863700 -8.06716600 2.44813500
v 1.71863700 -8.06716600 2.44813500
v -0.13054500 -7.18528700 3.49321300
v -0.57105400 -6.24836700 3.51257600
v -0.73371200 -8.40493300 2.69730500
v -0.91826400 -7.23806300 2.95426500
v -0.91826400 -7.23806300 2.95426500
v -0.37850700 -9.10850500 2.30704000
v -0.37850700 -9.10850500 2.30704000
v -1.48826800 -9.01155100 1.67128800
v -1.48826800 -9.01155100 1.67128800
v -1.48826800 -9.01155100 1.67128800
v -1.44219000 -7.93045800 2.06473200
v -1.44219000 -7.93045800 2.06473200
v -1.80601400 -8.48375600 1.23336000
v -1.82498800 -6.26390100 1.82349000
v -1.73894700 -7.72212100 1.41206600
v -1.92208800 -7.06851500 0.16493700
v -1.75825100 -5.40854700 -0.68541700
v -1.92830800 -9.06739900 0.26497600
v -1.92830800 -9.06739900 0.26497600
v -1.92830800 -9.06739900 0.26497600
v -1.95714500 -6.14514400 0.89728600
v -1.97051700 -5.10865600 0.50136500
v -1.86498000 -4.60072200 1.70975100
v -1.86601800 -3.10941800 0.61323200
v -1.69098500 -3.29731600 -1.38507700
v -1.65271600 -4.53597600 -0.99458400
v -1.86895200 -3.27244300 -0.01498900
v -2.12390000 -2.54684700 0.07004000
v -2.12390000 -2.54684700 0.07004000
v -2.40629800 -2.37815400 0.13447700
v -2.40629800 -2.37815400 0.13447700
v -1.70242400 -3.25889200 1.44888200
v -2.09257600 -2.32115200 1.16033200
v -2.09257600 -2.32115200 1.16033200
v -2.06762500 -2.35407100 -0.92813800
v -2.06762500 -2.35407100 -0.92813800
v -1.88406500 -2.41905800 1.17413400
v -1.88406500 -2.41905800 1.17413400
v -1.32911900 -3.22814300 2.40160800
v -1.32911900 -3.22814300 2.40160800
v -1.40867400 -2.00670500 2.10412000
v -1.40867400 -2.00670500 2.10412000
v -1.40867400 -2.00670500 2.10412000
v -0.95960600 -1.77282900 2.63927300
v -0.95960600 -1.77282900 2.63927300
v -0.95960600 -1.77282900 2.63927300
v -0.03830600 -1.33953500 3.10695900
v -0.20381100 -1.11996000 3.24544900
v -0.20381100 -1.11996000 3.24544900
v -1.19249800 -1.52381000 2.84924500
v -1.19249800 -1.52381000 2.84924500
v -1.19249800 -1.52381000 2.84924500
v 0.49131900 -0.80401000 3.36935400
v 0.49131900 -0.80401000 3.36935400
v 0.49131900 -0.80401000 3.36935400
v 0.05722200 -0.72416500 4.48275100
v 0.05722200 -0.72416500 4.48275100
v 0.47080600 -0.66865100 4.37974600
v 0.47080600 -0.66865100 4.37974600
v 0.25965200 0.10798500 4.50529700
v -0.86542500 -0.33625700 4.35088400
v -1.19059700 -1.20106700 4.11550800
v -1.19059700 -1.20106700 4.11550800
v -1.99815200 -1.51530300 3.50304600
v -1.99815200 -1.51530300 3.50304600
v -1.83754600 -1.59156300 3.27177000
v -1.77063200 -0.50121400 3.91054100
v -2.60366200 -1.07956100 3.12059500
v -2.60366200 -1.07956100 3.12059500
v -2.61034400 0.34322900 3.11816900
v -2.61034400 0.34322900 3.11816900
v -1.73817800 0.66713600 3.78408500
v -2.32533900 1.58274600 2.72972400
v -2.32533900 1.58274600 2.72972400
v -1.17172800 1.67532100 3.56894000
v -0.35218400 0.92288800 4.25988000
v 1.22015000 1.01079400 4.13782400
v -0.36349600 2.13435000 3.50695100
v 0.51327800 1.97502700 3.70516500
v 0.85065900 2.90565200 2.62704200
v 0.85065900 2.90565200 2.62704200
v 1.81254600 2.06661100 3.20260000
v 1.81254600 2.06661100 3.20260000
v 2.53815400 0.90907800 3.48858400
v 2.66331500 1.56728300 2.93939600
v 2.66331500 1.56728300 2.93939600
v 1.84684400 2.89597200 2.08035100
v 3.06413000 2.17845200 1.82388100
v 2.81045400 2.76195100 1.01369400
v 4.00645300 1.34077800 0.79216000
v 4.00645300 1.34077800 0.79216000
v 3.52774500 1.01405600 2.25178600
v 3.52774500 1.01405600 2.25178600
v 3.52774500 1.01405600 2.25178600
v 3.53514100 2.23219400 0.31351000
v 3.53514100 2.23219400 0.31351000
v 3.91370700 1.80091800 -0.85832500
v 3.91370700 1.80091800 -0.85832500
v 3.03534900 2.87278700 -0.40982900
v 2.17314700 3.42112700 -0.43604300
v 2.34278400 3.19668700 -1.75602500
v 3.37245300 2.31655400 -1.96521800
v 3.37245300 2.31655400 -1.96521800
v 3.04751000 2.01336100 -3.14532000
v 3.04751000 2.01336100 -3.14532000
v 3.04751000 2.01336100 -3.14532000
v 3.69175800 1.61353100 -2.40778400
v 3.69175800 1.61353100 -2.40778400
v 2.07983900 2.83190500 -3.12802800
v 2.07983900 2.83190500 -3.12802800
v 0.80477400 3.18595500 -3.24449000
v 0.80477400 3.18595500 -3.24449000
v 1.46908200 3.46648900 -2.16695800
v 0.60471700 3.65332900 -2.11967800
v 0.95960100 3.81231900 -1.04986100
v 1.07732500 3.76359000 0.17287000
v 0.12364300 3.82457400 0.11698500
v -0.38331200 3.80963200 -0.94132400
v -0.97560900 3.60088600 0.50250200
v -0.97560900 3.60088600 0.50250200
v -1.49839500 3.48309000 -0.37218900
v -1.49839500 3.48309000 -0.37218900
v -0.35375400 3.58976500 -2.27819600
v -0.69372500 3.07956400 -3.29075300
v -0.69372500 3.07956400 -3.29075300
v -0.69372500 3.07956400 -3.29075300
v -1.63245100 3.33404800 -1.55589900
v -1.63245100 3.33404800 -1.55589900
v -1.19163600 3.26737700 -2.48606400
v -1.19163600 3.26737700 -2.48606400
v -2.27024800 2.70278000 -2.34699900
v -3.17028800 1.91718100 -1.90135700
v -2.77472500 1.51831100 -3.34281300
v -2.77472500 1.51831100 -3.34281300
v -2.52539300 2.85452600 -0.28559700
v -1.69683600 2.57689300 -3.32669300
v -1.69683600 2.57689300 -3.32669300
v -2.64901800 2.36949500 1.14564800
v -3.35170400 1.86700300 -0.10354800
v -1.75464800 3.03670400 1.26142800
v -1.75464800 3.03670400 1.26142800
v -1.86141600 2.30576200 2.49439500
v -1.86141600 2.30576200 2.49439500
v -0.98567200 2.99772300 2.16734400
v -0.98567200 2.99772300 2.16734400
v -0.98567200 2.99772300 2.16734400
v 0.07727500 3.53632200 1.42175500
v -0.11172300 3.06012800 2.39935000
v -0.11172300 3.06012800 2.39935000
v 1.15522000 3.51876200 1.14290200
v 2.01169200 3.26093400 1.03164000
v -3.12093400 1.24791900 1.89248600
v -3.54346400 1.06466600 0.90021600
v -3.80065800 0.83887700 -0.06109900
v -3.95609200 -0.66948900 0.03120900
v -3.76054000 0.87325400 -1.20216800
v -3.93268000 0.00090700 -1.23768500
v -3.81843300 -1.05410400 -1.78232700
v -3.58843200 -0.04334500 -2.67985000
v -3.44993200 0.78435900 -2.63341100
v -3.45218200 -0.58606900 -2.96954400
v -3.45218200 -0.58606900 -2.96954400
v -3.26136400 -0.18352000 -3.34892500
v -3.26136400 -0.18352000 -3.34892500
v -3.13092200 0.22440900 -3.49704100
v -3.13092200 0.22440900 -3.49704100
v -2.85917700 -0.74590400 -3.19318700
v -1.53506200 -0.22956000 -3.30627500
v -1.53506200 -0.22956000 -3.30627500
v -3.43990000 -1.07194100 -2.87373700
v -3.43990000 -1.07194100 -2.87373700
v -3.43990000 -1.07194100 -2.87373700
v -3.20369100 -1.69355000 -2.30867200
v -3.20369100 -1.69355000 -2.30867200
v -3.20369100 -1.69355000 -2.30867200
v -2.25314200 -2.26485100 -0.80372000
v -2.25314200 -2.26485100 -0.80372000
v -2.94110200 -2.27392700 -0.70422100
v -2.94110200 -2.27392700 -0.70422100
v -2.94110200 -2.27392700 -0.70422100
v -3.40775400 -1.88330100 -2.26074000
v -3.40775400 -1.88330100 -2.26074000
v -3.40775400 -1.88330100 -2.26074000
v -2.18306700 -1.49969700 -2.14685300
v -2.18306700 -1.49969700 -2.14685300
v -2.18306700 -1.49969700 -2.14685300
v -2.18306700 -1.49969700 -2.14685300
v -3.42444300 -2.29287700 -1.48582100
v -3.42444300 -2.29287700 -1.48582100
v -3.30766800 -2.61554800 -0.73063500
v -3.30766800 -2.61554800 -0.73063500
v -3.77297300 -1.63831200 -0.98900000
v -3.77770600 -1.25923200 0.67165900
v -3.55861700 -2.08506700 0.18898000
v -3.06715400 -2.55632100 1.19783400
v -3.06715400 -2.55632100 1.19783400
v -3.19294400 -2.65998800 0.31676700
v -3.19294400 -2.65998800 0.31676700
v -3.19294400 -2.65998800 0.31676700
v -2.65311800 -2.41273400 0.70779400
v -2.88751900 -2.37524100 1.76479100
v -2.88751900 -2.37524100 1.76479100
v -2.08831000 -1.76980300 3.04323500
v -2.08831000 -1.76980300 3.04323500
v -2.57761400 -2.06816700 2.59484900
v -2.57761400 -2.06816700 2.59484900
v -2.57761400 -2.06816700 2.59484900
v -3.24820600 -1.59332800 1.89574600
v -3.24820600 -1.59332800 1.89574600
v -3.22938900 -0.51919500 2.35427400
v -3.22938900 -0.51919500 2.35427400
v -3.66352900 -0.02081500 1.35450000
v -1.94578000 -1.61367800 -2.24533400
v -1.94578000 -1.61367800 -2.24533400
v -1.94578000 -1.61367800 -2.24533400
v -1.98799700 -1.09340200 -2.53360100
v -1.98799700 -1.09340200 -2.53360100
v -1.98799700 -1.09340200 -2.53360100
v -1.94720200 -0.67835900 -2.97362800
v -1.94720200 -0.67835900 -2.97362800
v -1.66596200 -0.89018500 -3.05389000
v -1.66596200 -0.89018500 -3.05389000
v -1.10888500 -2.06198900 -3.20562300
v -1.10888500 -2.06198900 -3.20562300
v -1.30109200 -2.35575200 -2.97403200
v -1.30109200 -2.35575200 -2.97403200
v -1.12146300 -3.25740000 -2.93690800
v -1.12146300 -3.25740000 -2.93690800
v -0.96972800 -4.68098200 -2.84174700
v -0.96972800 -4.68098200 -2.84174700
v -0.30119500 -7.67903600 -2.62131500
v -0.30119500 -7.67903600 -2.62131500
v -1.17345700 -5.75457700 -1.84949800
v -1.17345700 -5.75457700 -1.84949800
v -0.69997700 -7.84261800 -1.82005500
v -0.69997700 -7.84261800 -1.82005500
v -1.35957700 -4.90432400 -1.82072700
v -1.53539900 -7.72302900 -0.87868300
v -1.53539900 -7.72302900 -0.87868300
v -1.63567500 -9.28958300 -0.58700300
v -1.63567500 -9.28958300 -0.58700300
v -1.63567500 -9.28958300 -0.58700300
v -0.42363400 -8.80235000 -2.13444400
v -0.42363400 -8.80235000 -2.13444400
v -0.42363400 -8.80235000 -2.13444400
v -1.05171000 -9.32829000 -1.36770900
v -1.05171000 -9.32829000 -1.36770900
v -1.05171000 -9.32829000 -1.36770900
v -0.02683000 -9.84389000 -1.25560700
v -0.02683000 -9.84389000 -1.25560700
v 0.40831400 -9.28000600 -1.84594500
v 0.40831400 -9.28000600 -1.84594500
v -0.18534300 -7.90854100 -2.79073900
v -0.18534300 -7.90854100 -2.79073900
v -0.18534300 -7.90854100 -2.79073900
v 1.06344000 -7.69237900 -2.72038600
v -0.05977300 -7.63422900 -2.77371300
v -0.05977300 -7.63422900 -2.77371300
v -0.62825800 -5.11304600 -2.97221000
v -0.62825800 -5.11304600 -2.97221000
v 2.27744400 -6.28998200 -2.70203100
v 2.27744400 -6.28998200 -2.70203100
v 2.27744400 -6.28998200 -2.70203100
v 1.26816100 -9.00922200 -1.68948500
v 1.26816100 -9.00922200 -1.68948500
v 1.26816100 -9.00922200 -1.68948500
v 0.67332200 -10.04769600 -0.69080800
v 1.39143300 -9.73024600 -0.41864900
v 1.39143300 -9.73024600 -0.41864900
v 2.17907800 -7.37514900 -2.12916500
v 2.17907800 -7.37514900 -2.12916500
v 2.17907800 -7.37514900 -2.12916500
v 2.12746300 -8.40175100 -1.25311100
v 2.12746300 -8.40175100 -1.25311100
v 1.97691400 -7.54721000 0.95925500
v 2.23751100 -8.83872200 -0.08814000
v 2.23751100 -8.83872200 -0.08814000
v 2.21293100 -7.32975000 -1.02923500
v 1.98860400 -6.50242000 0.76919500
v 3.09021400 -3.96923600 -1.63353300
v 3.57466300 -2.38087300 -1.17903200
v 2.83192500 -3.30045200 -0.15344100
v 2.93742500 -4.61206300 -2.25753900
v 3.64476700 -1.98639300 -2.65192100
v 3.64476700 -1.98639300 -2.65192100
v 3.27361100 -3.07798900 -2.72731900
v 3.27361100 -3.07798900 -2.72731900
v 2.69673800 -4.71147200 -2.68525000
v 2.69673800 -4.71147200 -2.68525000
v 2.69673800 -4.71147200 -2.68525000
v 3.46734700 -1.59127200 -2.91778500
v 3.46734700 -1.59127200 -2.91778500
v 2.97051600 -3.31699800 -2.88476900
v 4.06674200 -1.28903300 -2.52128800
v 4.06674200 -1.28903300 -2.52128800
v 4.06674200 -1.28903300 -2.52128800
v 4.06674200 -1.28903300 -2.52128800
v 3.98880100 -0.98959000 -2.90933800
v 3.98880100 -0.98959000 -2.90933800
v 3.98880100 -0.98959000 -2.90933800
v 1.33664900 -2.32326700 -3.06525800
v 4.26108800 -0.58362000 -2.27499700
v 3.84333100 0.52320600 -3.10735200
v 3.84333100 0.52320600 -3.10735200
v 4.27335500 0.69174400 -1.82317200
v 4.51637100 -0.51543900 -1.04384300
v 4.35822400 0.78335000 -0.42383600
v 4.36720800 0.15135200 0.73025800
v 4.40709600 -1.11527100 0.01669500
v 4.40709600 -1.11527100 0.01669500
v 4.40709600 -1.11527100 0.01669500
v 4.06900100 0.03426400 1.68455300
v 4.14160300 -0.90225400 1.30752100
v 4.14160300 -0.90225400 1.30752100
v 3.81642800 -0.88447800 1.32084000
v 3.81642800 -0.88447800 1.32084000
v 3.93985700 -0.80964400 1.90054400
v 3.93985700 -0.80964400 1.90054400
v 3.17371200 -0.77456000 3.10220500
v 3.17371200 -0.77456000 3.10220500
v 3.17371200 -0.77456000 3.10220500
v 2.85658200 -0.80986900 3.40056900
v 2.85658200 -0.80986900 3.40056900
v 3.17396600 -0.01115000 3.16123100
v 3.17396600 -0.01115000 3.16123100
v 2.56367500 -0.71743200 2.93123000
v 2.56367500 -0.71743200 2.93123000
v 2.56367500 -0.71743200 2.93123000
v 3.19799700 -0.74986000 1.83358200
v 3.19799700 -0.74986000 1.83358200
v 1.90943000 -0.54380300 3.10231100
v 1.90943000 -0.54380300 3.10231100
v 2.20820600 -1.07259800 2.33998700
v 2.20820600 -1.07259800 2.33998700
v 2.20820600 -1.07259800 2.33998700
v 2.20820600 -1.07259800 2.33998700
v 0.75169700 -1.08944300 3.08910500
v 2.23391400 -1.98584400 1.72316000
v 2.23391400 -1.98584400 1.72316000
v 1.81305000 -0.81733400 2.73773200
v 1.81305000 -0.81733400 2.73773200
v 3.16392400 -1.93462200 0.26337900
v 3.16392400 -1.93462200 0.26337900
v 3.16392400 -1.93462200 0.26337900
v 1.70097300 -1.86378900 2.42259900
v 2.88949900 -0.94769100 1.67485800
v 2.88949900 -0.94769100 1.67485800
v 3.38920700 -1.23662500 0.90880600
v 3.38920700 -1.23662500 0.90880600
v 3.80479800 -1.65732000 -0.48220100
v 3.80479800 -1.65732000 -0.48220100
v 3.99043400 -1.67392700 -1.49129300
v 3.99043400 -1.67392700 -1.49129300
v 4.34463800 -1.35713000 -1.25750400
v 4.34463800 -1.35713000 -1.25750400
v 4.34463800 -1.35713000 -1.25750400
v 1.45374200 -3.13615300 2.47841000
v 1.45374200 -3.13615300 2.47841000
v 1.88144400 -4.00573000 1.88501000
v 1.88144400 -4.00573000 1.88501000
v 1.71382500 -5.70958400 1.83303100
v 0.37929100 -2.31938900 3.06049100
v 2.38680300 -0.66152900 3.81095700
v 2.38680300 -0.66152900 3.81095700
v 0.96130400 -0.63530700 4.46007600
v 0.96130400 -0.63530700 4.46007600
v 1.18072400 -0.60728800 3.41706000
v 1.18072400 -0.60728800 3.41706000
v 1.72921700 -0.02135600 4.21934100
v 2.00192700 -0.69816500 4.02407200
v 2.00192700 -0.69816500 4.02407200
v 2.22773300 -8.53510400 1.22535900
v 2.22773300 -8.53510400 1.22535900
v 1.55975600 -9.62923300 0.55255700
v 1.55975600 -9.62923300 0.55255700
v 0.57110300 -10.27769100 0.14657800
v 0.74562100 -10.00561700 1.11131100
v 1.35224700 -9.28612500 1.68056300
v 1.35224700 -9.28612500 1.68056300
v 1.35224700 -9.28612500 1.68056300
v 2.02523800 -8.10626900 2.05690400
v 2.02523800 -8.10626900 2.05690400
v 2.02523800 -8.10626900 2.05690400
v 2.02523800 -8.10626900 2.05690400
v 0.31482600 -9.48095300 2.00277800
v 0.31482600 -9.48095300 2.00277800
v -0.03003200 -10.01973400 1.34295300
v -0.03003200 -10.01973400 1.34295300
v 0.19295100 -10.32535600 0.55076100
v -0.85223200 -9.78745700 1.33679100
v -0.85223200 -9.78745700 1.33679100
v -0.47556900 -10.25767400 0.59928400
v -0.88810200 -10.01785400 -0.45835400
v -1.19378200 -9.90202000 0.42297400
v -0.07777300 -10.30711400 -0.27836900
v -0.49505900 -9.98605400 -0.86112600
v -0.49505900 -9.98605400 -0.86112600
v -1.82387900 -9.01892400 0.93983600
v -1.82387900 -9.01892400 0.93983600
v 1.52023700 -7.23659800 2.27281300
v 1.52023700 -7.23659800 2.27281300
v 1.16827800 -7.15577500 2.92570200
v 1.16827800 -7.15577500 2.92570200
v -1.07938300 -3.78475900 2.95870600
v -1.07938300 -3.78475900 2.95870600
v -1.60364800 -4.67694900 2.48486800
v -1.60364800 -4.67694900 2.48486800
v -0.90519500 -5.45867000 3.36631500
v -1.41624200 -5.80445200 2.70279900
v -1.41624200 -5.80445200 2.70279900
vn -0.11334606 0.28572492 0.95158496
vn 0.19710928 0.27624082 0.94065878
vn -0.36150544 0.10046346 0.92694170
vn -0.71394878 0.30869563 0.62847764
vn -0.46742648 0.16103378 0.86924140
vn 0.24637410 0.16969255 0.95420346
vn 0.47336399 0.01355841 0.88076257
vn -0.04117381 0.09532705 0.99459412
vn 0.65484833 0.14794542 0.74113819
vn 0.85564501 0.02198017 0.51709621
vn 0.55079912 0.05598458 0.83275810
vn 0.15398786 -0.10647423 0.98231918
vn 0.72014859 0.00374893 0.69380974
vn 0.89310844 0.06234358 0.44550039
vn 0.36520578 -0.27972054 0.88790830
vn 0.17235886 -0.56092962 0.80972242
vn 0.49104479 -0.53707005 0.68587956
vn 0.85602613 0.29420284 0.42504583
vn 0.75444659 0.24914872 0.60723576
vn -0.23275710 -0.32050088 0.91820658
vn -0.47022284 -0.13388351 0.87233347
vn -0.43922205 -0.43147106 0.78798268
vn -0.61795996 -0.23620448 0.74988861
vn -0.82823803 -0.14152018 0.54221195
vn -0.21488299 -0.62188926 0.75304651
vn -0.21584568 -0.74736750 0.62837287
vn -0.53915266 -0.50162301 0.67652698
vn -0.88057293 -0.15999586 0.44608591
vn -0.66452574 -0.67913043 0.31174893
vn -0.72911546 -0.22873946 0.64503403
vn -0.88105946 -0.10661609 0.46083321
vn -0.95027179 -0.06643866 0.30425223
vn -0.94305541 -0.09229155 0.31957590
vn -0.96197294 -0.05343340 0.26786738
vn -0.99532837 -0.02637796 -0.09287435
vn -0.96004009 -0.02260504 -0.27894810
vn -0.75411061 -0.65523305 0.04457388
vn -0.94673398 -0.01315666 -0.32174784
vn -0.99133390 -0.00965447 0.13101100
vn -0.99887255 -0.03398823 0.03314262
vn -0.99841875 -0.00413867 -0.05606137
vn -0.97156191 0.07778163 0.22364587
vn -0.98365852 -0.14842434 0.10191235
vn -0.94623945 -0.19799528 -0.25579047
vn -0.95803342 -0.05838487 -0.28064777
vn -0.98902729 -0.13736210 -0.05437535
vn -0.51113186 -0.85944638 -0.00980573
vn -0.95560080 -0.29405508 0.01893993
vn -0.00606498 -0.99719216 -0.07463920
vn -0.50967411 -0.86017446 0.01822649
vn -0.95499977 0.03489263 0.29454703
vn -0.42158786 -0.83767715 0.34721848
vn 0.19389513 -0.96968130 0.14873756
vn -0.94091879 -0.29235490 -0.17088134
vn -0.57794892 -0.74139696 -0.34103606
vn -0.94682819 -0.07537447 0.31278598
vn -0.41667321 -0.81163107 0.40943674
vn -0.63657310 0.14311031 0.75782196
vn -0.85647458 0.17457361 0.48577293
vn -0.53083848 -0.63257839 0.56396374
vn -0.66827222 0.01595121 0.74374579
vn -0.89786293 0.04810950 0.43763870
vn -0.04622095 -0.65042863 0.75815976
vn -0.29270235 -0.76144117 0.57838800
vn -0.63317179 -0.11515894 0.76539657
vn -0.06293546 -0.32275083 0.94438924
vn 0.31428138 -0.92143268 0.22844919
vn -0.02217261 -0.55846959 0.82922861
vn 0.27362027 -0.92495191 0.26381038
vn -0.03055688 -0.66087153 0.74987672
vn -0.33532388 -0.74505252 0.57658879
vn 0.27776284 -0.95116019 0.13469265
vn 0.21318261 -0.85967100 0.46424019
vn 0.23637546 -0.53397931 0.81178368
vn 0.26053993 -0.94617360 0.19202724
vn -0.01566351 -0.07062841 0.99737971
vn 0.10676788 -0.98519247 0.13415070
vn 0.03292966 -0.15077037 0.98802021
vn 0.01164312 0.12398226 0.99221612
vn -0.30070599 0.01557217 0.95358975
vn 0.27766482 -0.93516979 0.21990841
vn -0.41681584 -0.15831027 0.89509911
vn -0.64351002 -0.33450696 0.68847654
vn 0.12710352 -0.91238059 0.38910969
vn 0.23483923 -0.91482987 0.32853744
vn -0.55480460 -0.03087738 0.83140751
vn -0.69716422 -0.21198011 0.68485508
vn -0.82671869 -0.20857406 0.52252567
vn -0.68974627 0.14144549 0.71010088
vn -0.81695307 0.24575746 0.52171923
vn -0.51897883 0.27616717 0.80894541
vn -0.56655988 0.47059781 0.67642265
vn -0.72029633 0.48995662 0.49103534
vn -0.38817230 0.53878535 0.74768483
vn -0.16707202 0.34947268 0.92193047
vn 0.25293190 0.37320332 0.89260559
vn -0.17334063 0.66713676 0.72448711
vn 0.07716464 0.61296408 0.78633368
vn 0.19832600 0.85890544 0.47217395
vn 0.06942621 0.74807209 0.65997587
vn 0.45964883 0.69877722 0.54811801
vn 0.34187193 0.56739282 0.74912547
vn 0.58149444 0.32235779 0.74696029
vn 0.61575318 0.43246961 0.65864866
vn 0.61100078 0.58090120 0.53780279
vn 0.39398397 0.79830073 0.45551353
vn 0.67337647 0.61468773 0.41075921
vn 0.59990963 0.75902923 0.25294873
vn 0.79812751 0.51717636 0.30906487
vn 0.91513735 0.35444735 0.19206951
vn 0.86772825 0.22185247 0.44477991
vn 0.72571836 0.32198751 0.60799416
vn 0.76650068 0.46715399 0.44073106
vn 0.74675164 0.64443398 0.16452003
vn 0.85898535 0.50364089 0.09214132
vn 0.76589836 0.64203840 -0.03444424
vn 0.89576136 0.44143294 -0.05242646
vn 0.64886172 0.76059210 0.02186627
vn 0.43874842 0.89833262 0.02232333
vn 0.49505190 0.84642953 -0.19616491
vn 0.67542586 0.69753158 -0.23926889
vn 0.84721652 0.49919800 -0.18172928
vn 0.78567532 0.40773747 -0.46525740
vn 0.65283652 0.67070533 -0.35207789
vn -0.07157550 -0.06358726 -0.99540625
vn 0.85019718 0.42271033 -0.31381641
vn 0.74971361 0.56123871 -0.35062888
vn 0.46150622 0.81502766 -0.35034543
vn 0.02818826 -0.02976534 -0.99915937
vn 0.11917576 0.90954858 -0.39814385
vn 0.04251164 -0.17071175 -0.98440350
vn 0.29528924 0.91646995 -0.26997610
vn 0.07165410 0.96147346 -0.26539494
vn 0.16637918 0.98260581 -0.08248505
vn 0.19276554 0.97275295 0.12881441
vn -0.04024086 0.99238829 0.11638796
vn -0.15803538 0.98516493 -0.06689454
vn -0.46916880 0.86783355 0.16354068
vn -0.22160479 0.95659574 0.18925090
vn -0.50843094 0.85820403 0.07059627
vn -0.29132539 0.95636955 -0.02206361
vn -0.14309460 0.94784238 -0.28481356
vn 0.05441614 -0.04793749 -0.99736697
vn -0.13541792 0.90234057 -0.40919859
vn -0.39164033 0.81242611 -0.43195100
vn -0.30177253 0.94239776 -0.14429068
vn -0.54976149 0.81935547 -0.16253893
vn -0.28343861 0.91719937 -0.28001406
vn -0.44489018 0.81834172 -0.36385375
vn -0.61016055 0.73416019 -0.29784714
vn -0.81528608 0.53810765 -0.21388959
vn 0.07825433 0.02302797 -0.99666743
vn -0.76747565 0.48925263 -0.41426199
vn -0.65032687 0.75872187 0.03763094
vn 0.05742671 -0.04328560 -0.99741091
vn -0.51392976 0.74641172 -0.42278333
vn -0.70252765 0.64970817 0.29040350
vn -0.84258416 0.53361147 0.07287483
vn -0.33151036 0.88767122 0.31959456
vn -0.54089080 0.79107465 0.28572372
vn -0.41936605 0.64396527 0.63987565
vn -0.60493417 0.67698555 0.41921977
vn -0.45907670 0.78107199 0.42329083
vn -0.28218341 0.74137896 0.60887582
vn -0.24103675 0.90353420 0.35429823
vn -0.04525092 0.94313612 0.32931234
vn -0.12380392 0.77503907 0.61966686
vn -0.06229835 0.90195792 0.42730649
vn 0.19788710 0.93297672 0.30065785
vn 0.42277719 0.86937201 0.25583540
vn -0.81844676 0.39239652 0.41972595
vn -0.90237507 0.35205255 0.24855228
vn -0.96142731 0.26250220 0.08215919
vn -0.99503034 -0.05261789 0.08453394
vn -0.94123441 0.30843830 -0.13763576
vn -0.99023916 0.08162295 -0.11297835
vn -0.96615737 -0.16095796 -0.20157499
vn -0.93894053 0.09431107 -0.33090195
vn -0.94710610 0.25341154 -0.19690764
vn -0.92997921 -0.04563771 -0.36476823
vn -0.41106755 -0.34371811 -0.84432300
vn -0.19116744 -0.38656323 -0.90223272
vn -0.88875884 0.08031534 -0.45128391
vn 0.06798081 -0.11315880 -0.99124855
vn -0.86311846 0.19831184 -0.46443400
vn -0.02926541 -0.53047625 -0.84719448
vn 0.08237711 -0.11540566 -0.98989674
vn -0.51597019 -0.21458580 -0.82929350
vn -0.93409437 -0.15540087 -0.32143160
vn -0.39047408 -0.18759362 -0.90129830
vn 0.01858151 -0.66865912 -0.74333687
vn 0.25820671 -0.63247456 -0.73027750
vn 0.16134688 -0.88453103 -0.43768943
vn 0.59194928 -0.71874477 -0.36469441
vn 0.03116413 -0.96037931 -0.27694832
vn -0.56134039 -0.78046005 -0.27528000
vn 0.51815881 -0.83443224 -0.18770798
vn -0.02719606 -0.97340990 -0.22745010
vn 0.65947725 -0.70439281 -0.26252717
vn 0.58488644 -0.72224838 -0.36914107
vn 0.34118188 -0.55800069 -0.75645896
vn -0.91732272 -0.31063390 -0.24904941
vn 0.22600369 -0.71438454 -0.66225151
vn -0.51743848 -0.44646472 -0.73001827
vn -0.53849253 -0.71309848 -0.44890573
vn 0.23614542 -0.84957075 -0.47166183
vn 0.61094666 -0.70365975 -0.36277697
vn -0.91284106 -0.38631687 -0.13221372
vn 0.67025665 -0.70017966 -0.24597655
vn -0.88998123 -0.45599575 0.00113739
vn -0.95208847 -0.30010215 -0.05887481
vn -0.95044274 -0.21915363 0.22052273
vn -0.90374270 -0.41105127 0.11952396
vn -0.86256444 -0.41769707 0.28550262
vn 0.43849141 -0.89208999 0.10909049
vn 0.48033249 -0.86975720 -0.11315081
vn 0.68203320 -0.72368471 -0.10540950
vn -0.84940474 -0.51061365 0.13336152
vn 0.25930278 -0.96579241 0.00266113
vn 0.28927177 -0.93642609 0.19856489
vn -0.79588794 -0.43726744 0.41875957
vn 0.49077688 -0.86201877 0.12673476
vn -0.57149393 -0.49964884 0.65095755
vn 0.37321321 -0.90678016 0.19611638
vn -0.77893505 -0.43496949 0.45173191
vn -0.67406610 -0.36060054 0.64467212
vn -0.78241095 -0.30835569 0.54106364
vn -0.87175126 -0.29297396 0.39270346
vn -0.77549825 -0.00256555 0.63134450
vn -0.88834325 -0.02851492 0.45829376
vn -0.94215462 0.08117323 0.32520084
vn -0.53164095 -0.71637247 -0.45184996
vn -0.87448825 -0.29009798 -0.38873315
vn -0.51743848 -0.44646472 -0.73001827
vn -0.55919412 -0.51156291 -0.65238434
vn -0.81277583 -0.26045513 -0.52111283
vn 0.18850076 -0.72307915 -0.66454797
vn 0.21310949 -0.71087973 -0.67024947
vn -0.52409223 -0.41378161 -0.74438708
vn -0.78593830 -0.22700678 -0.57512513
vn -0.56549823 -0.29225134 -0.77123337
vn -0.62552186 -0.18423236 -0.75814302
vn 0.05388959 -0.05457116 -0.99705461
vn -0.64171159 -0.17004628 -0.74785727
vn -0.82159195 -0.20732599 -0.53103918
vn -0.65216280 -0.16150942 -0.74067428
vn -0.90623524 -0.19821446 -0.37342833
vn 0.05717821 -0.06051964 -0.99652799
vn -0.92547736 -0.14703079 -0.34910400
vn -0.53754331 0.01521249 -0.84309891
vn -0.87512258 -0.15170546 -0.45950617
vn -0.74708394 -0.17843645 -0.64033275
vn -0.89158506 -0.16385630 -0.42216964
vn -0.75049546 -0.06895813 -0.65726809
vn -0.87136879 -0.15489575 -0.46553596
vn -0.91436582 -0.12666063 -0.38456759
vn -0.76373922 -0.09433198 -0.63859524
vn -0.86625895 -0.04183740 -0.49784040
vn -0.80075840 -0.05971416 -0.59600352
vn -0.67700236 -0.69884213 -0.23084081
vn -0.94352241 -0.02213529 -0.33056845
vn -0.88168494 -0.10303571 -0.46045121
vn -0.12344836 -0.62788155 -0.76845641
vn -0.75714215 -0.02022699 -0.65293693
vn -0.77925178 -0.04435801 -0.62513921
vn -0.27652919 -0.69416265 -0.66458244
vn -0.54794380 -0.71106559 -0.44061697
vn -0.24046006 -0.69752165 -0.67501298
vn 0.12052251 -0.85278670 -0.50816255
vn 0.04611945 -0.61147840 -0.78991592
vn 0.30533126 -0.75929608 -0.57466711
vn -0.88162145 -0.10402465 -0.46035039
vn 0.06470130 -0.36517142 -0.92868917
vn -0.54842077 0.29950501 -0.78072493
vn 0.26504792 -0.33077140 -0.90572616
vn -0.53598048 0.01706777 -0.84405783
vn 0.01679554 0.01953376 -0.99966812
vn -0.72469680 -0.18216731 -0.66455219
vn 0.03270543 -0.07111559 -0.99693176
vn 0.09686346 -0.07729258 -0.99229196
vn 0.51505700 -0.43620874 -0.73786057
vn 0.89865418 -0.25984963 -0.35341030
vn 0.37933029 -0.53307662 -0.75626573
vn 0.39416477 -0.74427365 -0.53915756
vn 0.65606457 -0.58975586 -0.47092177
vn 0.31966935 -0.86358459 -0.38991430
vn 0.51830979 -0.82128658 -0.23841835
vn 0.72633376 -0.64754371 -0.23049169
vn 0.64831629 -0.51282611 -0.56275694
vn 0.51461901 -0.45250611 -0.72828943
vn 0.97521833 -0.20839316 -0.07430675
vn 0.99961875 -0.00526842 0.02710343
vn 0.67838741 -0.56886212 -0.46495850
vn 0.97843713 0.15228918 0.13953058
vn 0.77805666 -0.62103446 -0.09457290
vn 0.97624932 0.21545022 -0.02276973
vn 0.98610966 -0.14752969 0.07630681
vn 0.95925457 -0.07482917 0.27245414
vn 0.95824619 -0.25784354 0.12361609
vn 0.89686150 -0.41300753 0.15831683
vn 0.90366935 -0.24514766 0.35111869
vn 0.94268538 -0.27242056 -0.19269488
vn 0.65410653 -0.19757740 -0.73014233
vn 0.90730146 -0.41055720 -0.09081218
vn 0.57541680 -0.18778447 -0.79601036
vn 0.90657270 -0.29199229 -0.30473995
vn 0.58351711 -0.22615968 -0.77997409
vn 0.86594831 -0.26098318 -0.42663954
vn 0.88691094 -0.23133633 -0.39984059
vn 0.30782186 -0.12225312 -0.94355704
vn 0.63622945 -0.54371069 -0.54734885
vn 0.33891764 -0.14313000 -0.92986485
vn 0.63622945 -0.54371069 -0.54734885
vn 0.61513325 -0.23100981 -0.75382064
vn 0.94940604 -0.16919111 -0.26457993
vn 0.83138559 -0.53792206 -0.13941971
vn 0.93053715 -0.05953534 -0.36132555
vn 0.63622945 -0.54371069 -0.54734885
vn 0.11282566 -0.10890172 -0.98762887
vn 0.05633769 -0.06834258 -0.99606996
vn 0.95725029 -0.03435931 -0.28721303
vn 0.89539491 0.23196657 -0.38007823
vn 0.02865148 -0.04662024 -0.99850170
vn 0.94483689 0.25254740 -0.20857388
vn 0.99728021 -0.02632650 -0.06884113
vn 0.96294916 0.26880598 0.02173154
vn 0.97266459 0.10816303 0.20548566
vn 0.48305053 -0.82607189 0.29028851
vn 0.99133405 -0.08018574 0.10405309
vn -0.04768861 -0.98706241 0.15308034
vn 0.91202084 0.10220745 0.39720475
vn 0.95889328 -0.06699061 0.27574614
vn -0.04798234 -0.98795671 0.14710282
vn 0.30914829 -0.85270592 0.42109376
vn -0.05041863 -0.99222561 0.11378181
vn 0.08592021 -0.99026204 0.10953905
vn 0.89683824 -0.03168365 0.44122253
vn 0.68745850 -0.05621107 0.72404498
vn 0.84190542 -0.04187749 0.53799771
vn -0.07400798 -0.99521795 -0.06374990
vn 0.66503839 -0.04081520 0.74569300
vn -0.18916156 -0.97909430 -0.07478133
vn 0.84832021 0.03949154 0.52800874
vn 0.66924585 0.13071506 0.73145305
vn -0.17036350 -0.98475515 -0.03512227
vn 0.41996446 -0.86697237 0.26830721
vn -0.07798301 -0.83322261 0.54741094
vn 0.33395816 -0.84888309 0.40971874
vn -0.20514673 -0.97846147 -0.02297766
vn -0.11895289 -0.99096352 -0.06197997
vn 0.14870551 -0.82282098 0.54850004
vn 0.54099749 -0.35303060 0.76334207
vn 0.80508242 -0.31627154 0.50181133
vn 0.24602386 -0.88212597 0.40165412
vn 0.62071623 -0.58073551 0.52674247
vn 0.32796524 -0.33129720 0.88469258
vn 0.84162665 -0.26787465 0.46894323
vn 0.76092555 -0.20507661 0.61557769
vn 0.14841242 -0.81618132 0.55841007
vn 0.38607473 -0.54184561 0.74655853
vn 0.78444194 -0.45034929 0.42642275
vn 0.47488161 -0.67519996 0.56443996
vn 0.62071623 -0.58073551 0.52674247
vn 0.62719529 -0.16935058 0.76022790
vn 0.62071623 -0.58073551 0.52674247
vn 0.36059880 -0.84181573 0.40164012
vn 0.70810989 -0.58885456 0.38965459
vn 0.39992634 -0.78850800 0.46724089
vn 0.55174910 -0.80624318 0.21341244
vn 0.76005084 -0.55879563 0.33176823
vn 0.82329131 -0.56225005 -0.07788646
vn 0.61395090 -0.77926019 0.12576907
vn 0.97587572 -0.17629587 -0.12878796
vn 0.61166096 -0.78144815 0.12332744
vn 0.72213752 -0.66382472 -0.19456141
vn 0.80716755 -0.00581106 0.59029380
vn 0.67407810 -0.03644229 0.73776058
vn 0.75289872 -0.09983294 0.65052049
vn 0.82130335 -0.07172150 0.56596540
vn 0.89060411 -0.16389362 0.42422071
vn 0.12861495 -0.00925634 0.99165141
vn -0.13768266 -0.98713224 -0.08132299
vn 0.58295470 0.03000295 0.81195051
vn 0.07035091 -0.99722930 0.02417571
vn 0.14820312 -0.01303771 0.98887100
vn 0.22929062 -0.84905590 0.47595156
vn 0.15846384 -0.98734128 0.00681276
vn 0.40295194 0.09835015 0.90992142
vn 0.44977075 -0.07553323 0.88994438
vn -0.07489962 -0.98469288 -0.15738480
vn 0.74108071 -0.58470782 0.33002448
vn 0.96787999 0.25072887 0.01852979
vn 0.75976012 -0.63874811 0.12151298
vn 0.54936082 -0.82032896 0.15894370
vn 0.33090590 -0.94332133 -0.02541970
vn 0.36351807 -0.84931415 0.38277943
vn 0.70819156 -0.60092943 0.37060564
vn 0.44857617 -0.75571928 0.47714546
vn 0.41863053 -0.59667144 0.68463981
vn 0.76461413 0.30274457 0.56895603
vn 0.63600812 -0.53894645 0.55229557
vn 0.91206599 0.38022620 0.15350463
vn 0.70432915 -0.54632786 0.45326187
vn 0.26259284 -0.77074718 0.58051165
vn 0.06987357 -0.69194956 0.71855654
vn -0.10790139 -0.74168187 0.66201608
vn -0.03507176 -0.86744202 0.49630063
vn 0.08585653 -0.98000451 0.17949880
vn -0.43930476 -0.78625598 0.43452603
vn -0.42684130 -0.62970770 0.64905679
vn -0.28077526 -0.94350200 0.17598076
vn -0.48013279 -0.83799203 -0.25931037
vn -0.61818905 -0.77991191 0.09787602
vn -0.06585441 -0.97376098 -0.21783653
vn -0.29877561 -0.72803819 -0.61700367
vn -0.26094449 -0.86681575 -0.42489814
vn -0.70404534 -0.66125967 0.25895137
vn -0.96410267 -0.10222616 0.24506297
vn 0.90835330 0.20820833 0.36268936
vn 0.76461413 0.30274457 0.56895603
vn 0.88065030 0.10728794 0.46145894
vn 0.68821340 -0.00537105 0.72548844
vn -0.61326083 0.17305328 0.77069042
vn -0.77775981 0.23466342 0.58311471
vn -0.91940020 0.09055125 0.38275808
vn -0.74852328 0.05596543 0.66074259
vn -0.62627078 -0.02311014 0.77926300
vn -0.75765595 -0.08983080 0.64644249
vn -0.87272264 -0.12619779 0.47162412
vt 0.80842500 0.64031000
vt 0.80898000 0.63849600
vt 0.81340900 0.64169400
vt 0.44680500 0.88092000
vt 0.79946900 0.64309000
vt 0.80303400 0.63664800
vt 0.81160700 0.63233500
vt 0.79520000 0.63905000
vt 0.79383600 0.63204500
vt 0.49104900 0.31905000
vt 0.79099000 0.63330300
vt 0.78500400 0.63577000
vt 0.79036300 0.63143900
vt 0.48765300 0.31897900
vt 0.78051200 0.63340300
vt 0.77188800 0.63399300
vt 0.77579200 0.62610700
vt 0.47383400 0.31490000
vt 0.77579200 0.62610700
vt 0.78120600 0.63861100
vt 0.78735200 0.64175000
vt 0.77297300 0.64232100
vt 0.78070000 0.64381800
vt 0.44680500 0.91218700
vt 0.76838000 0.63979400
vt 0.97754800 0.46312800
vt 0.76880300 0.64717200
vt 0.45376100 0.92465500
vt 0.97132800 0.45780900
vt 0.77600400 0.64712100
vt 0.45161500 0.91787200
vt 0.45613600 0.92228200
vt 0.45291500 0.90866900
vt 0.45517700 0.91742100
vt 0.46205900 0.91398800
vt 0.46683400 0.90344500
vt 0.97056300 0.44952100
vt 0.46146100 0.92625700
vt 0.46146100 0.92625700
vt 0.45801900 0.90835800
vt 0.46023100 0.90206700
vt 0.45357300 0.89858100
vt 0.45967500 0.88952200
vt 0.47076500 0.89037400
vt 0.46858400 0.89784100
vt 0.46314900 0.89057900
vt 0.36177000 0.91840300
vt 0.46264600 0.88678800
vt 0.36236300 0.92027200
vt 0.36236300 0.92027200
vt 0.45507700 0.88994600
vt 0.36780400 0.91761200
vt 0.36780400 0.91761200
vt 0.46818600 0.88553700
vt 0.35628600 0.91866700
vt 0.45658200 0.88529100
vt 0.36771100 0.91620200
vt 0.80736800 0.64744700
vt 0.44987500 0.88870800
vt 0.37260000 0.91262100
vt 0.81550700 0.64824700
vt 0.45153300 0.88144700
vt 0.81714400 0.64533000
vt 0.37529000 0.90940000
vt 0.81714400 0.64533000
vt 0.82022100 0.63932000
vt 0.37826100 0.90421900
vt 0.82164100 0.64047200
vt 0.37667000 0.91087700
vt 0.81874200 0.64693800
vt 0.37667000 0.91087700
vt 0.37853700 0.89963600
vt 0.37853700 0.89963600
vt 0.82390000 0.63593100
vt 0.38498700 0.90186700
vt 0.90420900 0.20605200
vt 0.38414600 0.89921100
vt 0.90697500 0.20581300
vt 0.90674100 0.21117200
vt 0.89880100 0.20992900
vt 0.38371700 0.91020200
vt 0.89543300 0.20478500
vt 0.88975700 0.20394200
vt 0.38083100 0.91581400
vt 0.37942700 0.91487100
vt 0.89270600 0.21019400
vt 0.88648300 0.20767700
vt 0.89094900 0.56627500
vt 0.88852600 0.21694700
vt 0.89959000 0.56518600
vt 0.89463300 0.21775600
vt 0.89220400 0.22461200
vt 0.90812600 0.56631600
vt 0.89979000 0.22349800
vt 0.90397700 0.21737800
vt 0.91430300 0.21565800
vt 0.90570500 0.22530800
vt 0.91114800 0.22298300
vt 0.32851000 0.95139500
vt 0.91473500 0.22858700
vt 0.32531000 0.94345500
vt 0.91972100 0.22170000
vt 0.92271800 0.21309600
vt 0.92451300 0.21721800
vt 0.32680000 0.93702900
vt 0.33169000 0.94517600
vt 0.33315700 0.93596700
vt 0.33771600 0.93891800
vt 0.33884800 0.92826200
vt 0.53840500 0.30950900
vt 0.53544900 0.31714400
vt 0.92932700 0.21238100
vt 0.33063100 0.93042600
vt 0.34159900 0.93324200
vt 0.54401700 0.30676000
vt 0.34805700 0.92998600
vt 0.54180300 0.30046600
vt 0.34565000 0.93785500
vt 0.34576900 0.94448200
vt 0.35305500 0.94300700
vt 0.35420000 0.93460400
vt 0.54503800 0.29412400
vt 0.54306700 0.28733700
vt 0.36061900 0.93603700
vt 0.45810800 0.27117000
vt 0.54078300 0.29174200
vt 0.35655900 0.93105900
vt 0.36053400 0.94392700
vt 0.46143100 0.26341900
vt 0.36104800 0.95270800
vt 0.46120000 0.25461800
vt 0.35524600 0.94910700
vt 0.35488600 0.95493200
vt 0.34905300 0.95299500
vt 0.34229600 0.95206600
vt 0.34246800 0.95817500
vt 0.34824100 0.96138500
vt 0.92536400 0.57679000
vt 0.34011800 0.96452600
vt 0.92384200 0.58177100
vt 0.34485300 0.96759300
vt 0.35560000 0.96079800
vt 0.45759200 0.24530800
vt 0.36104800 0.96185000
vt 0.92536400 0.59800800
vt 0.35135200 0.96817800
vt 0.92334400 0.58841600
vt 0.35655500 0.96533300
vt 0.92468900 0.59351400
vt 0.91834400 0.59335300
vt 0.91092400 0.59165000
vt 0.44356900 0.23515800
vt 0.91045700 0.59982400
vt 0.91727700 0.58194000
vt 0.45242600 0.23992400
vt 0.91970600 0.59874900
vt 0.91308400 0.57446500
vt 0.90899100 0.58183100
vt 0.33568400 0.96808500
vt 0.91940700 0.57317400
vt 0.89627900 0.22864900
vt 0.91388900 0.56697800
vt 0.92059900 0.56810600
vt 0.90298100 0.23188600
vt 0.33078400 0.96312400
vt 0.33518300 0.95773000
vt 0.90873000 0.23100700
vt 0.32965000 0.95777900
vt 0.33689200 0.95096400
vt 0.33759100 0.94503400
vt 0.90454600 0.57130100
vt 0.90296300 0.57696400
vt 0.90153400 0.58246400
vt 0.89189100 0.58315100
vt 0.90258100 0.58870500
vt 0.89684600 0.58960400
vt 0.89107500 0.59339900
vt 0.89840200 0.59751500
vt 0.90377100 0.59659600
vt 0.89564200 0.59950800
vt 0.42879900 0.23501900
vt 0.43176800 0.23541100
vt 0.89883400 0.60125300
vt 0.43463500 0.23542600
vt 0.90175200 0.60173100
vt 0.42895800 0.23908100
vt 0.43485100 0.24646600
vt 0.43485100 0.24646600
vt 0.89265600 0.59935600
vt 0.42571800 0.23605800
vt 0.42571800 0.23605800
vt 0.42217400 0.23882200
vt 0.34964400 0.92714700
vt 0.08095900 0.98769500
vt 0.35712200 0.91984100
vt 0.35712200 0.91984100
vt 0.35814600 0.92432300
vt 0.35814600 0.92432300
vt 0.08031900 0.97796600
vt 0.08219100 0.98694200
vt 0.42056100 0.23790300
vt 0.88741000 0.59661000
vt 0.42539600 0.24493500
vt 0.42539600 0.24493500
vt 0.34987100 0.92036200
vt 0.34987100 0.92036200
vt 0.08280300 0.98189300
vt 0.88437700 0.59267000
vt 0.08280300 0.97717000
vt 0.88223400 0.58875000
vt 0.88713000 0.58948400
vt 0.88835800 0.58005900
vt 0.88421600 0.58332000
vt 0.88198600 0.57806400
vt 0.36863100 0.92396500
vt 0.36384500 0.92528800
vt 0.08046300 0.97180600
vt 0.88159200 0.58300800
vt 0.36568200 0.92155600
vt 0.37167100 0.92249100
vt 0.88319300 0.57477800
vt 0.37830000 0.91661600
vt 0.88881500 0.20243500
vt 0.37609900 0.92003500
vt 0.88533900 0.56992900
vt 0.88522000 0.20122500
vt 0.88159200 0.20532100
vt 0.88692400 0.57350700
vt 0.88327400 0.21226700
vt 0.89321400 0.57015000
vt 0.89575300 0.57532700
vt 0.34913600 0.91882500
vt 0.47551600 0.88078000
vt 0.42514100 0.24665800
vt 0.42839700 0.24534600
vt 0.47711500 0.87772200
vt 0.42839700 0.24534600
vt 0.43115700 0.24475600
vt 0.43115700 0.24475600
vt 0.48006000 0.87567500
vt 0.43036400 0.24695200
vt 0.42399600 0.25277900
vt 0.42399600 0.25277900
vt 0.42172900 0.25215400
vt 0.47965400 0.88370500
vt 0.41633000 0.25506800
vt 0.47946300 0.88876300
vt 0.40754500 0.25883600
vt 0.47893400 0.89709100
vt 0.38972500 0.26898700
vt 0.47777400 0.91371700
vt 0.40022500 0.25972700
vt 0.47337900 0.90413100
vt 0.38783900 0.26683700
vt 0.47326000 0.91569900
vt 0.47320400 0.89940000
vt 0.38689300 0.26136900
vt 0.46789500 0.91707400
vt 0.37668800 0.26383200
vt 0.97374300 0.44544900
vt 0.46622700 0.92692200
vt 0.47503100 0.92088900
vt 0.38228700 0.27045300
vt 0.38228700 0.27045300
vt 0.37764500 0.26755700
vt 0.37764500 0.26755700
vt 0.97862600 0.44229300
vt 0.37635600 0.27508600
vt 0.98519700 0.44460800
vt 0.38084800 0.27669600
vt 0.98865500 0.44229300
vt 0.47872800 0.91483500
vt 0.38850200 0.27016100
vt 0.38850200 0.27016100
vt 0.39231900 0.27767100
vt 0.39049500 0.27042000
vt 0.39049500 0.27042000
vt 0.40546900 0.26184300
vt 0.40546900 0.26184300
vt 0.40363500 0.28262600
vt 0.40363500 0.28262600
vt 0.48742000 0.28733700
vt 0.38424600 0.28163600
vt 0.99384800 0.44466700
vt 0.46831700 0.29159800
vt 0.98893100 0.44881900
vt 0.99303300 0.45157000
vt 0.46332200 0.29851200
vt 0.48001400 0.29017300
vt 0.39648000 0.28417600
vt 0.48001400 0.29017300
vt 0.47295400 0.29472400
vt 0.47295400 0.29472400
vt 0.47788600 0.30699900
vt 0.46985300 0.30111100
vt 0.46985300 0.30111100
vt 0.48005200 0.29626200
vt 0.48485000 0.30620200
vt 0.50317100 0.29430700
vt 0.51396300 0.29750500
vt 0.50697700 0.30243400
vt 0.49895700 0.29062000
vt 0.43374200 0.28285700
vt 0.51702000 0.28953500
vt 0.42606300 0.28263900
vt 0.50950700 0.28861600
vt 0.41451700 0.28218800
vt 0.49820700 0.28807900
vt 0.41451700 0.28218800
vt 0.43593400 0.28093400
vt 0.51954800 0.28804200
vt 0.42395800 0.28117200
vt 0.52195600 0.29070200
vt 0.43900400 0.28417600
vt 0.52195600 0.29070200
vt 0.52195600 0.29070200
vt 0.52397000 0.28858200
vt 0.52397000 0.28858200
vt 0.44079000 0.28306400
vt 0.42710800 0.26883200
vt 0.52671900 0.29235200
vt 0.53389400 0.28774200
vt 0.45016400 0.27915300
vt 0.53503700 0.29514300
vt 0.52706300 0.29931900
vt 0.53534500 0.30292500
vt 0.53087200 0.30913900
vt 0.35728300 0.87567500
vt 0.52272500 0.30494500
vt 0.35728300 0.87567500
vt 0.52958900 0.31416300
vt 0.52356300 0.31192000
vt 0.36462400 0.87672300
vt 0.36492800 0.87886600
vt 0.36492800 0.87886600
vt 0.36805100 0.87772900
vt 0.52384500 0.31506900
vt 0.92438200 0.20122500
vt 0.52310000 0.32117200
vt 0.37520600 0.88209000
vt 0.92226500 0.20144700
vt 0.37706000 0.88399900
vt 0.52813000 0.32167400
vt 0.92550100 0.20619000
vt 0.37470400 0.88623300
vt 0.37470400 0.88623300
vt 0.37470400 0.88623300
vt 0.36821400 0.88268200
vt 0.36821400 0.88268200
vt 0.37614500 0.89049600
vt 0.37614500 0.89049600
vt 0.82254400 0.62444500
vt 0.52050300 0.31625200
vt 0.37161000 0.88883800
vt 0.57865100 0.98034900
vt 0.82206800 0.63413000
vt 0.51465400 0.31266300
vt 0.81648800 0.62405300
vt 0.37413800 0.89127700
vt 0.82413800 0.62713600
vt 0.51617700 0.30527000
vt 0.35930300 0.88353100
vt 0.57865100 0.97180600
vt 0.81715000 0.62763500
vt 0.58230600 0.97751800
vt 0.36750600 0.88476200
vt 0.52081300 0.30913700
vt 0.36287100 0.88184000
vt 0.35482300 0.87980800
vt 0.51875800 0.30166400
vt 0.51907400 0.29623100
vt 0.34913600 0.87917200
vt 0.52141000 0.29783200
vt 0.35025400 0.87677600
vt 0.52141000 0.29783200
vt 0.50618300 0.31602500
vt 0.80860800 0.62898900
vt 0.80293300 0.62593800
vt 0.50096100 0.31284800
vt 0.48957200 0.31205500
vt 0.81378400 0.63632300
vt 0.37968300 0.88689700
vt 0.91942400 0.20308300
vt 0.38425400 0.89593400
vt 0.91020100 0.20531100
vt 0.37836900 0.89510600
vt 0.37836900 0.89510600
vt 0.91608700 0.20819400
vt 0.91686900 0.20339800
vt 0.38111400 0.88930400
vt 0.47150300 0.30840600
vt 0.47150300 0.30840600
vt 0.46387700 0.30399600
vt 0.99267300 0.45706600
vt 0.98713900 0.45308100
vt 0.98677200 0.45857700
vt 0.46566800 0.31014400
vt 0.98959900 0.46277700
vt 0.76761500 0.62824600
vt 0.77561800 0.62405300
vt 0.77561800 0.62405300
vt 0.47394300 0.31294500
vt 0.47394300 0.31294500
vt 0.98255100 0.46266100
vt 0.76606700 0.63509800
vt 0.76242600 0.63725100
vt 0.98147200 0.45845900
vt 0.98414700 0.45457400
vt 0.97613900 0.45702400
vt 0.76378900 0.64276400
vt 0.97977200 0.45367600
vt 0.97858200 0.44734000
vt 0.97531100 0.45153000
vt 0.98360700 0.44967500
vt 0.37450300 0.27242200
vt 0.98167300 0.44587900
vt 0.97023900 0.45331500
vt 0.45774600 0.92563400
vt 0.47919900 0.31399200
vt 0.78129200 0.62760900
vt 0.47925800 0.31736600
vt 0.78172200 0.62997900
vt 0.80368800 0.64567400
vt 0.44682600 0.89142600
vt 0.44933000 0.89830500
vt 0.79764200 0.64894200
vt 0.79254800 0.64414500
vt 0.79015700 0.64744600
vt 0.44813500 0.90471400
f 2/2/2 1/1/1 6/6/6
f 2/2/2 3/3/3 1/1/1
f 423/423/423 1/1/1 3/3/3
f 1/1/1 5/5/5 6/6/6
f 5/5/5 8/8/8 6/6/6
f 2/2/2 6/6/6 7/7/7
f 7/7/7 6/6/6 9/9/9
f 11/11/11 8/8/8 12/12/12
f 9/9/9 6/6/6 11/11/11
f 11/11/11 12/12/12 15/15/15
f 13/13/13 9/9/9 11/11/11
f 15/15/15 422/422/422 13/13/13
f 16/16/16 17/17/17 15/15/15
f 15/15/15 20/20/20 16/16/16
f 12/12/12 20/20/20 15/15/15
f 20/20/20 12/12/12 21/21/21
f 20/20/20 23/23/23 22/22/22
f 16/16/16 22/22/22 25/25/25
f 22/22/22 23/23/23 30/30/30
f 25/25/25 27/27/27 410/410/410
f 22/22/22 30/30/30 27/27/27
f 31/31/31 32/32/32 28/28/28
f 31/31/31 34/34/34 32/32/32
f 24/24/24 33/33/33 31/31/31
f 33/33/33 34/34/34 31/31/31
f 32/32/32 35/35/35 39/39/39
f 34/34/34 40/40/40 35/35/35
f 261/261/261 35/35/35 36/36/36
f 35/35/35 40/40/40 36/36/36
f 40/40/40 41/41/41 36/36/36
f 42/42/42 40/40/40 33/33/33
f 41/41/41 42/42/42 43/43/43
f 41/41/41 43/43/43 46/46/46
f 36/36/36 41/41/41 45/45/45
f 41/41/41 46/46/46 44/44/44
f 41/41/41 44/44/44 45/45/45
f 48/48/48 46/46/46 43/43/43
f 46/46/46 54/54/54 44/44/44
f 196/196/196 47/47/47 50/50/50
f 52/52/52 50/50/50 47/47/47
f 48/48/48 43/43/43 51/51/51
f 48/48/48 51/51/51 56/56/56
f 57/57/57 52/52/52 47/47/47
f 56/56/56 59/59/59 62/62/62
f 56/56/56 51/51/51 59/59/59
f 60/60/60 71/71/71 57/57/57
f 58/58/58 3/3/3 61/61/61
f 61/61/61 3/3/3 65/65/65
f 3/3/3 66/66/66 65/65/65
f 63/63/63 66/66/66 68/68/68
f 68/68/68 70/70/70 63/63/63
f 69/69/69 85/85/85 220/220/220
f 74/74/74 66/66/66 356/356/356
f 67/67/67 72/72/72 75/75/75
f 77/77/77 75/75/75 72/72/72
f 78/78/78 79/79/79 76/76/76
f 76/76/76 79/79/79 80/80/80
f 76/76/76 80/80/80 82/82/82
f 84/84/84 85/85/85 81/81/81
f 86/86/86 83/83/83 82/82/82
f 80/80/80 86/86/86 82/82/82
f 91/91/91 86/86/86 80/80/80
f 83/83/83 86/86/86 87/87/87
f 87/87/87 86/86/86 89/89/89
f 89/89/89 86/86/86 91/91/91
f 89/89/89 91/91/91 92/92/92
f 92/92/92 94/94/94 161/161/161
f 94/94/94 91/91/91 95/95/95
f 95/95/95 91/91/91 80/80/80
f 79/79/79 95/95/95 80/80/80
f 97/97/97 94/94/94 95/95/95
f 79/79/79 96/96/96 95/95/95
f 96/96/96 98/98/98 95/95/95
f 95/95/95 98/98/98 97/97/97
f 96/96/96 102/102/102 98/98/98
f 100/100/100 98/98/98 102/102/102
f 97/97/97 100/100/100 167/167/167
f 102/102/102 96/96/96 103/103/103
f 102/102/102 103/103/103 104/104/104
f 107/107/107 101/101/101 105/105/105
f 106/106/106 99/99/99 101/101/101
f 107/107/107 106/106/106 101/101/101
f 106/106/106 108/108/108 170/170/170
f 108/108/108 107/107/107 114/114/114
f 113/113/113 109/109/109 107/107/107
f 109/109/109 114/114/114 107/107/107
f 107/107/107 105/105/105 113/113/113
f 118/118/118 114/114/114 116/116/116
f 115/115/115 110/110/110 117/117/117
f 108/108/108 114/114/114 118/118/118
f 121/121/121 118/118/118 116/116/116
f 118/118/118 120/120/120 119/119/119
f 119/119/119 108/108/108 118/118/118
f 121/121/121 120/120/120 118/118/118
f 121/121/121 127/127/127 124/124/124
f 124/124/124 128/128/128 121/121/121
f 117/117/117 126/126/126 122/122/122
f 120/120/120 121/121/121 128/128/128
f 243/243/243 187/187/187 320/320/320
f 132/132/132 128/128/128 130/130/130
f 120/120/120 128/128/128 132/132/132
f 120/120/120 134/134/134 119/119/119
f 133/133/133 134/134/134 132/132/132
f 130/130/130 133/133/133 132/132/132
f 133/133/133 137/137/137 134/134/134
f 135/135/135 134/134/134 136/136/136
f 135/135/135 119/119/119 134/134/134
f 136/136/136 134/134/134 137/137/137
f 139/139/139 136/136/136 137/137/137
f 139/139/139 137/137/137 141/141/141
f 137/137/137 146/146/146 141/141/141
f 142/142/142 130/130/130 144/144/144
f 142/142/142 144/144/144 148/148/148
f 142/142/142 148/148/148 146/146/146
f 150/150/150 147/147/147 149/149/149
f 149/149/149 156/156/156 150/150/150
f 151/151/151 154/154/154 150/150/150
f 153/153/153 151/151/151 150/150/150
f 147/147/147 150/150/150 154/154/154
f 153/153/153 150/150/150 156/156/156
f 158/158/158 157/157/157 154/154/154
f 157/157/157 160/160/160 154/154/154
f 154/154/154 151/151/151 158/158/158
f 140/140/140 147/147/147 154/154/154
f 160/160/160 140/140/140 154/154/154
f 162/162/162 160/160/160 157/157/157
f 162/162/162 163/163/163 160/160/160
f 159/159/159 165/165/165 139/139/139
f 139/139/139 165/165/165 166/166/166
f 97/97/97 161/161/161 94/94/94
f 167/167/167 164/164/164 97/97/97
f 166/166/166 165/165/165 168/168/168
f 168/168/168 99/99/99 166/166/166
f 99/99/99 169/169/169 166/166/166
f 169/169/169 136/136/136 166/166/166
f 139/139/139 166/166/166 136/136/136
f 169/169/169 170/170/170 135/135/135
f 106/106/106 170/170/170 169/169/169
f 119/119/119 135/135/135 170/170/170
f 93/93/93 157/157/157 171/171/171
f 158/158/158 171/171/171 157/157/157
f 172/172/172 171/171/171 158/158/158
f 158/158/158 173/173/173 172/172/172
f 158/158/158 175/175/175 173/173/173
f 231/231/231 173/173/173 174/174/174
f 174/174/174 173/173/173 176/176/176
f 175/175/175 176/176/176 173/173/173
f 177/177/177 176/176/176 178/178/178
f 177/177/177 174/174/174 176/176/176
f 178/178/178 175/175/175 151/151/151
f 178/178/178 185/185/185 183/183/183
f 177/177/177 180/180/180 189/189/189
f 183/183/183 180/180/180 178/178/178
f 181/181/181 182/182/182 186/186/186
f 186/186/186 182/182/182 184/184/184
f 186/186/186 184/184/184 187/187/187
f 181/181/181 186/186/186 190/190/190
f 186/186/186 238/238/238 203/203/203
f 186/186/186 192/192/192 191/191/191
f 201/201/201 191/191/191 192/192/192
f 195/195/195 198/198/198 193/193/193
f 206/206/206 195/195/195 193/193/193
f 207/207/207 199/199/199 209/209/209
f 200/200/200 194/194/194 207/207/207
f 208/208/208 177/177/177 202/202/202
f 208/208/208 210/210/210 211/211/211
f 211/211/211 212/212/212 174/174/174
f 211/211/211 213/213/213 212/212/212
f 177/177/177 211/211/211 174/174/174
f 211/211/211 210/210/210 213/213/213
f 214/214/214 213/213/213 218/218/218
f 213/213/213 214/214/214 212/212/212
f 218/218/218 213/213/213 210/210/210
f 197/197/197 219/219/219 216/216/216
f 209/209/209 199/199/199 217/217/217
f 219/219/219 215/215/215 216/216/216
f 49/49/49 198/198/198 195/195/195
f 53/53/53 219/219/219 49/49/49
f 222/222/222 224/224/224 220/220/220
f 228/228/228 221/221/221 225/225/225
f 223/223/223 87/87/87 226/226/226
f 226/226/226 87/87/87 227/227/227
f 228/228/228 88/88/88 230/230/230
f 228/228/228 212/212/212 214/214/214
f 228/228/228 230/230/230 212/212/212
f 212/212/212 230/230/230 231/231/231
f 89/89/89 229/229/229 87/87/87
f 230/230/230 171/171/171 231/231/231
f 212/212/212 231/231/231 174/174/174
f 231/231/231 171/171/171 172/172/172
f 84/84/84 222/222/222 85/85/85
f 55/55/55 196/196/196 205/205/205
f 232/232/232 55/55/55 205/205/205
f 204/204/204 235/235/235 234/234/234
f 235/235/235 239/239/239 241/241/241
f 245/245/245 233/233/233 236/236/236
f 241/241/241 239/239/239 188/188/188
f 242/242/242 241/241/241 188/188/188
f 242/242/242 244/244/244 241/241/241
f 278/278/278 250/250/250 246/246/246
f 247/247/247 253/253/253 256/256/256
f 44/44/44 233/233/233 247/247/247
f 253/253/253 251/251/251 255/255/255
f 257/257/257 252/252/252 254/254/254
f 256/256/256 253/253/253 36/36/36
f 253/253/253 258/258/258 36/36/36
f 254/254/254 264/264/264 257/257/257
f 265/265/265 257/257/257 264/264/264
f 268/268/268 266/266/266 263/263/263
f 255/255/255 272/272/272 262/262/262
f 268/268/268 263/263/263 270/270/270
f 270/270/270 263/263/263 273/273/273
f 275/275/275 270/270/270 273/273/273
f 250/250/250 276/276/276 274/274/274
f 272/272/272 255/255/255 251/251/251
f 275/275/275 290/290/290 283/283/283
f 271/271/271 284/284/284 286/286/286
f 284/284/284 287/287/287 286/286/286
f 293/293/293 288/288/288 285/285/285
f 293/293/293 285/285/285 289/289/289
f 294/294/294 296/296/296 292/292/292
f 294/294/294 292/292/292 297/297/297
f 288/288/288 293/293/293 295/295/295
f 291/291/291 297/297/297 292/292/292
f 298/298/298 299/299/299 301/301/301
f 298/298/298 294/294/294 297/297/297
f 297/297/297 302/302/302 299/299/299
f 300/300/300 301/301/301 299/299/299
f 299/299/299 304/304/304 300/300/300
f 302/302/302 306/306/306 304/304/304
f 308/308/308 302/302/302 282/282/282
f 282/282/282 302/302/302 291/291/291
f 312/312/312 305/305/305 307/307/307
f 303/303/303 305/305/305 310/310/310
f 310/310/310 305/305/305 312/312/312
f 313/313/313 311/311/311 318/318/318
f 310/310/310 314/314/314 303/303/303
f 317/317/317 321/321/321 315/315/315
f 319/319/319 320/320/320 323/323/323
f 321/321/321 322/322/322 324/324/324
f 324/324/324 322/322/322 126/126/126
f 322/322/322 123/123/123 126/126/126
f 326/326/326 324/324/324 117/117/117
f 321/321/321 324/324/324 325/325/325
f 325/325/325 324/324/324 326/326/326
f 110/110/110 327/327/327 326/326/326
f 117/117/117 110/110/110 326/326/326
f 325/325/325 326/326/326 327/327/327
f 325/325/325 327/327/327 329/329/329
f 332/332/332 329/329/329 327/327/327
f 110/110/110 331/331/331 327/327/327
f 332/332/332 327/327/327 331/331/331
f 335/335/335 330/330/330 333/333/333
f 335/335/335 333/333/333 336/336/336
f 337/337/337 332/332/332 331/331/331
f 340/340/340 349/349/349 335/335/335
f 337/337/337 343/343/343 339/339/339
f 344/344/344 341/341/341 338/338/338
f 342/342/342 345/345/345 340/340/340
f 348/348/348 354/354/354 366/366/366
f 382/382/382 345/345/345 342/342/342
f 347/347/347 351/351/351 354/354/354
f 354/354/354 351/351/351 359/359/359
f 360/360/360 356/356/356 352/352/352
f 352/352/352 356/356/356 364/364/364
f 357/357/357 361/361/361 353/353/353
f 364/364/364 358/358/358 352/352/352
f 355/355/355 363/363/363 365/365/365
f 334/334/334 366/366/366 368/368/368
f 368/368/368 366/366/366 362/362/362
f 367/367/367 361/361/361 370/370/370
f 368/368/368 328/328/328 334/334/334
f 374/374/374 369/369/369 372/372/372
f 371/371/371 370/370/370 300/300/300
f 361/361/361 300/300/300 370/370/370
f 300/300/300 304/304/304 371/371/371
f 371/371/371 304/304/304 316/316/316
f 371/371/371 316/316/316 375/375/375
f 373/373/373 321/321/321 325/325/325
f 325/325/325 329/329/329 373/373/373
f 364/364/364 7/7/7 377/377/377
f 364/364/364 377/377/377 378/378/378
f 358/358/358 364/364/364 378/378/378
f 379/379/379 376/376/376 10/10/10
f 298/298/298 357/357/357 380/380/380
f 379/379/379 10/10/10 380/380/380
f 10/10/10 14/14/14 380/380/380
f 9/9/9 377/377/377 7/7/7
f 359/359/359 386/386/386 73/73/73
f 356/356/356 66/66/66 381/381/381
f 7/7/7 356/356/356 381/381/381
f 381/381/381 2/2/2 7/7/7
f 66/66/66 3/3/3 381/381/381
f 350/350/350 390/390/390 384/384/384
f 350/350/350 384/384/384 387/387/387
f 387/387/387 384/384/384 72/72/72
f 384/384/384 77/77/77 72/72/72
f 388/388/388 79/79/79 385/385/385
f 389/389/389 388/388/388 385/385/385
f 388/388/388 389/389/389 383/383/383
f 388/388/388 344/344/344 103/103/103
f 344/344/344 388/388/388 383/383/383
f 96/96/96 388/388/388 103/103/103
f 383/383/383 341/341/341 344/344/344
f 112/112/112 103/103/103 344/344/344
f 111/111/111 343/343/343 331/331/331
f 419/419/419 298/298/298 14/14/14
f 288/288/288 295/295/295 393/393/393
f 393/393/393 295/295/295 391/391/391
f 395/395/395 394/394/394 396/396/396
f 287/287/287 394/394/394 395/395/395
f 396/396/396 394/394/394 398/398/398
f 391/391/391 397/397/397 393/393/393
f 399/399/399 401/401/401 17/17/17
f 396/396/396 398/398/398 404/404/404
f 391/391/391 403/403/403 397/397/397
f 405/405/405 399/399/399 16/16/16
f 407/407/407 396/396/396 404/404/404
f 25/25/25 405/405/405 16/16/16
f 406/406/406 405/405/405 25/25/25
f 407/407/407 408/408/408 396/396/396
f 407/407/407 411/411/411 408/408/408
f 407/407/407 26/26/26 409/409/409
f 411/411/411 407/407/407 409/409/409
f 408/408/408 411/411/411 414/414/414
f 411/411/411 412/412/412 414/414/414
f 413/413/413 412/412/412 411/411/411
f 409/409/409 413/413/413 411/411/411
f 286/286/286 395/395/395 414/414/414
f 408/408/408 414/414/414 395/395/395
f 416/416/416 414/414/414 412/412/412
f 414/414/414 416/416/416 269/269/269
f 414/414/414 269/269/269 286/286/286
f 412/412/412 267/267/267 416/416/416
f 415/415/415 266/266/266 268/268/268
f 412/412/412 413/413/413 260/260/260
f 260/260/260 413/413/413 37/37/37
f 417/417/417 37/37/37 413/413/413
f 417/417/417 409/409/409 29/29/29
f 32/32/32 418/418/418 28/28/28
f 32/32/32 39/39/39 418/418/418
f 412/412/412 260/260/260 267/267/267
f 395/395/395 396/396/396 408/408/408
f 400/400/400 420/420/420 19/19/19
f 402/402/402 392/392/392 294/294/294
f 402/402/402 294/294/294 419/419/419
f 421/421/421 18/18/18 419/419/419
f 14/14/14 421/421/421 419/419/419
f 395/395/395 286/286/286 287/287/287
f 269/269/269 271/271/271 286/286/286
f 45/45/45 256/256/256 36/36/36
f 189/189/189 202/202/202 177/177/177
f 153/153/153 185/185/185 179/179/179
f 153/153/153 179/179/179 151/151/151
f 90/90/90 93/93/93 171/171/171
f 104/104/104 103/103/103 112/112/112
f 424/424/424 4/4/4 59/59/59
f 59/59/59 425/425/425 424/424/424
f 59/59/59 42/42/42 425/425/425
f 425/425/425 33/33/33 429/429/429
f 33/33/33 425/425/425 42/42/42
f 5/5/5 426/426/426 427/427/427
f 427/427/427 426/426/426 428/428/428
f 428/428/428 21/21/21 427/427/427
f 8/8/8 427/427/427 21/21/21
f 42/42/42 51/51/51 43/43/43
f 21/21/21 12/12/12 8/8/8
f 2/2/2 381/381/381 3/3/3
f 423/423/423 5/5/5 1/1/1
f 11/11/11 6/6/6 8/8/8
f 13/13/13 11/11/11 15/15/15
f 15/15/15 19/19/19 422/422/422
f 16/16/16 399/399/399 17/17/17
f 20/20/20 21/21/21 23/23/23
f 16/16/16 20/20/20 22/22/22
f 25/25/25 22/22/22 27/27/27
f 24/24/24 429/429/429 33/33/33
f 32/32/32 34/34/34 35/35/35
f 34/34/34 33/33/33 40/40/40
f 36/36/36 258/258/258 261/261/261
f 261/261/261 38/38/38 35/35/35
f 42/42/42 41/41/41 40/40/40
f 46/46/46 48/48/48 54/54/54
f 196/196/196 55/55/55 47/47/47
f 60/60/60 64/64/64 71/71/71
f 71/71/71 52/52/52 57/57/57
f 69/69/69 67/67/67 75/75/75
f 75/75/75 81/81/81 85/85/85
f 85/85/85 222/222/222 220/220/220
f 220/220/220 53/53/53 69/69/69
f 69/69/69 75/75/75 85/85/85
f 74/74/74 68/68/68 66/66/66
f 78/78/78 385/385/385 79/79/79
f 92/92/92 91/91/91 94/94/94
f 97/97/97 98/98/98 100/100/100
f 106/106/106 107/107/107 108/108/108
f 119/119/119 170/170/170 108/108/108
f 117/117/117 324/324/324 126/126/126
f 312/312/312 309/309/309 280/280/280
f 280/280/280 275/275/275 273/273/273
f 277/277/277 279/279/279 243/243/243
f 280/280/280 273/273/273 277/277/277
f 312/312/312 280/280/280 277/277/277
f 312/312/312 277/277/277 243/243/243
f 320/320/320 319/319/319 310/310/310
f 187/187/187 184/184/184 152/152/152
f 152/152/152 155/155/155 143/143/143
f 143/143/143 131/131/131 129/129/129
f 129/129/129 125/125/125 323/323/323
f 320/320/320 310/310/310 312/312/312
f 129/129/129 323/323/323 320/320/320
f 152/152/152 143/143/143 129/129/129
f 187/187/187 152/152/152 129/129/129
f 320/320/320 312/312/312 243/243/243
f 187/187/187 129/129/129 320/320/320
f 120/120/120 132/132/132 134/134/134
f 133/133/133 142/142/142 137/137/137
f 137/137/137 142/142/142 146/146/146
f 142/142/142 133/133/133 130/130/130
f 149/149/149 145/145/145 156/156/156
f 160/160/160 138/138/138 140/140/140
f 97/97/97 164/164/164 161/161/161
f 99/99/99 106/106/106 169/169/169
f 169/169/169 135/135/135 136/136/136
f 93/93/93 162/162/162 157/157/157
f 158/158/158 151/151/151 175/175/175
f 231/231/231 172/172/172 173/173/173
f 151/151/151 179/179/179 178/178/178
f 178/178/178 176/176/176 175/175/175
f 178/178/178 179/179/179 185/185/185
f 177/177/177 178/178/178 180/180/180
f 203/203/203 192/192/192 186/186/186
f 186/186/186 187/187/187 238/238/238
f 238/238/238 237/237/237 203/203/203
f 207/207/207 194/194/194 199/199/199
f 208/208/208 211/211/211 177/177/177
f 219/219/219 220/220/220 215/215/215
f 49/49/49 219/219/219 198/198/198
f 53/53/53 220/220/220 219/219/219
f 228/228/228 214/214/214 221/221/221
f 223/223/223 83/83/83 87/87/87
f 230/230/230 90/90/90 171/171/171
f 236/236/236 240/240/240 245/245/245
f 245/245/245 247/247/247 233/233/233
f 244/244/244 242/242/242 278/278/278
f 278/278/278 276/276/276 250/250/250
f 250/250/250 248/248/248 246/246/246
f 246/246/246 244/244/244 278/278/278
f 45/45/45 44/44/44 247/247/247
f 247/247/247 249/249/249 253/253/253
f 256/256/256 45/45/45 247/247/247
f 44/44/44 54/54/54 233/233/233
f 253/253/253 249/249/249 251/251/251
f 265/265/265 259/259/259 257/257/257
f 275/275/275 283/283/283 270/270/270
f 275/275/275 281/281/281 290/290/290
f 294/294/294 392/392/392 296/296/296
f 298/298/298 297/297/297 299/299/299
f 297/297/297 291/291/291 302/302/302
f 300/300/300 361/361/361 301/301/301
f 299/299/299 302/302/302 304/304/304
f 308/308/308 306/306/306 302/302/302
f 321/321/321 317/317/317 322/322/322
f 110/110/110 111/111/111 331/331/331
f 335/335/335 336/336/336 340/340/340
f 340/340/340 345/345/345 349/349/349
f 337/337/337 331/331/331 343/343/343
f 348/348/348 346/346/346 354/354/354
f 382/382/382 350/350/350 345/345/345
f 360/360/360 74/74/74 356/356/356
f 357/357/357 301/301/301 361/361/361
f 334/334/334 348/348/348 366/366/366
f 368/368/368 369/369/369 328/328/328
f 374/374/374 328/328/328 369/369/369
f 373/373/373 315/315/315 321/321/321
f 364/364/364 356/356/356 7/7/7
f 298/298/298 301/301/301 357/357/357
f 357/357/357 379/379/379 380/380/380
f 380/380/380 14/14/14 298/298/298
f 359/359/359 351/351/351 386/386/386
f 350/350/350 382/382/382 390/390/390
f 388/388/388 96/96/96 79/79/79
f 419/419/419 294/294/294 298/298/298
f 417/417/417 413/413/413 409/409/409
f 59/59/59 51/51/51 42/42/42
f 5/5/5 423/423/423 426/426/426
f 428/428/428 23/23/23 21/21/21
f 8/8/8 5/5/5 427/427/427

