# ('FARMS composite mesh',)
mtllib link_body_30_composite.mtl

o link_body_30
usemtl link_body_30_composite
v -1.21281400 -0.04577900 5.34631100
v -1.21281400 -0.04577900 5.34631100
v 1.56869900 -0.10674600 4.93771200
v 1.56869900 -0.10674600 4.93771200
v 1.56869900 -0.10674600 4.93771200
v 1.54478000 -0.05478700 5.02494100
v 1.54478000 -0.05478700 5.02494100
v 1.54478000 -0.05478700 5.02494100
v 1.54478000 -0.05478700 5.02494100
v -1.20808000 0.04546400 5.34621100
v -1.20808000 0.04546400 5.34621100
v -2.16561400 -0.05670700 5.21522100
v -2.16561400 -0.05670700 5.21522100
v 1.19869200 -0.25314400 4.68755000
v 1.19869200 -0.25314400 4.68755000
v -2.69354900 -0.23194100 4.86672000
v -2.69354900 -0.23194100 4.86672000
v -2.16478700 0.05631400 5.21586100
v -2.16478700 0.05631400 5.21586100
v -2.70973100 -0.00094000 4.86969900
v -2.69358000 0.23193900 4.86675500
v -2.69358000 0.23193900 4.86675500
v -3.42157600 0.47769600 4.12761000
v -3.42157600 0.47769600 4.12761000
v -3.42157600 0.47769600 4.12761000
v 1.19985500 0.25354900 4.68848100
v 1.19985500 0.25354900 4.68848100
v 1.56719600 0.10626200 4.93682500
v 1.56719600 0.10626200 4.93682500
v 1.56719600 0.10626200 4.93682500
v 0.50967400 0.42123300 3.98988100
v 0.50967400 0.42123300 3.98988100
v 0.50967400 0.42123300 3.98988100
v 1.20907600 0.00000000 4.71270800
v 0.47510100 0.00000100 3.98988100
v 0.47510100 0.00000100 3.98988100
v 0.50967400 -0.42123300 3.98988100
v 0.50967400 -0.42123300 3.98988100
v 0.50967400 -0.42123300 3.98988100
v -0.12725400 -0.00000000 3.10911300
v -0.57484400 0.00000100 2.10425200
v -0.07717100 -0.61017300 3.10911300
v -0.07717100 -0.61017300 3.10911300
v -0.07717100 0.61017300 3.10911300
v -0.07717100 0.61017300 3.10911300
v -0.50801500 0.81424000 2.10425200
v -0.50801500 0.81424000 2.10425200
v -0.76699400 1.01702100 1.01391400
v -0.76699400 1.01702100 1.01391400
v -0.85046700 0.00000100 1.01391400
v -0.94353500 0.00000100 -0.12000000
v -0.76699400 -1.01702100 1.01391400
v -0.76699400 -1.01702100 1.01391400
v -0.83694100 -1.20758400 -0.08404900
v -0.83694100 -1.20758400 -0.08404900
v -0.50801500 -0.81424000 2.10425200
v -0.50801500 -0.81424000 2.10425200
v -0.83775300 1.20897200 -0.09420200
v -0.83775300 1.20897200 -0.09420200
v -0.75918900 1.11212600 -1.25391400
v -3.34257400 1.63582200 -1.66386000
v -0.85046700 0.00000100 -1.25391400
v -0.68930000 1.39229100 -1.24610500
v -0.68930000 1.39229100 -1.24610500
v -0.39273800 1.47054000 -2.30953500
v -0.39273800 1.47054000 -2.30953500
v 0.01579700 1.35103300 -3.27447100
v 0.01579700 1.35103300 -3.27447100
v -1.92025700 1.52831500 -2.92812300
v -0.48886100 1.04759900 -2.34425100
v -0.04987000 0.94281500 -3.34911300
v -0.57484400 0.00000100 -2.34425100
v -0.12725500 -0.00000000 -3.34911300
v -0.48886100 -1.04759800 -2.34425100
v -0.75918900 -1.11212300 -1.25391400
v -0.04987000 -0.94281400 -3.34911300
v -0.37678500 -1.46418800 -2.36049500
v -0.37678500 -1.46418800 -2.36049500
v -0.67439600 -1.41059000 -1.30351800
v -0.67439600 -1.41059000 -1.30351800
v -3.34257400 -1.63582300 -1.66386000
v -3.42157600 -0.47769500 4.12761000
v -3.42157600 -0.47769500 4.12761000
v -3.42157600 -0.47769500 4.12761000
v -3.84030400 -1.55261300 -3.23098200
v -3.84030400 -1.55261300 -3.23098200
v -3.84030400 -1.55261300 -3.23098200
v -4.59566400 -1.54535700 -1.06672200
v -4.59566400 -1.54535700 -1.06672200
v -1.92025700 -1.52831600 -2.92812300
v -4.27423300 -1.63160600 -2.24418200
v -4.27423300 -1.63160600 -2.24418200
v -4.42036700 -1.63929300 -1.68312100
v -4.42036700 -1.63929300 -1.68312100
v -4.69371300 -1.12036500 -1.14234500
v -4.42137000 -1.05535800 -2.24078800
v -4.50798700 0.00000100 -2.24078800
v -3.97910600 -0.94979200 -3.25311200
v -3.97910600 -0.94979200 -3.25311200
v -4.05705900 -0.00000100 -3.25311200
v -3.97910600 0.94979200 -3.25311200
v -3.45022100 0.00000100 -4.14041300
v -3.45022100 0.00000100 -4.14041300
v -3.38392500 0.80772600 -4.14041300
v -3.38392500 0.80772600 -4.14041300
v -3.38392500 -0.80772500 -4.14041300
v -3.38392500 -0.80772500 -4.14041300
v -2.60345000 -0.83545000 -4.87643000
v -2.60345000 -0.83545000 -4.87643000
v -2.60345000 -0.83545000 -4.87643000
v -3.27834600 -1.23041100 -4.13881900
v -3.27834600 -1.23041100 -4.13881900
v -2.71078000 -0.00000000 -4.86859200
v -1.83676500 -0.47427100 -5.40471500
v -1.83676500 -0.47427100 -5.40471500
v -1.85686100 0.26159900 -5.41336600
v -2.60700100 0.83196600 -4.87571000
v -2.60700100 0.83196600 -4.87571000
v 2.07606400 0.36438000 -5.49479400
v 2.07606400 0.36438000 -5.49479400
v -1.82022800 0.47624200 -5.41111700
v -1.82022800 0.47624200 -5.41111700
v 2.55821100 0.24457500 -5.66891500
v 2.55821100 0.24457500 -5.66891500
v 2.55821100 0.24457500 -5.66891500
v -3.27979200 1.23176500 -4.13664300
v -3.27979200 1.23176500 -4.13664300
v -3.27979200 1.23176500 -4.13664300
v 0.58232100 0.99358900 -4.22941100
v 0.58232100 0.99358900 -4.22941100
v 0.58232100 0.99358900 -4.22941100
v -3.84115500 1.55080400 -3.23049800
v -3.84115500 1.55080400 -3.23049800
v 1.26601700 0.64989200 -4.95417400
v 1.26601700 0.64989200 -4.95417400
v 1.20907500 0.00000000 -4.95270800
v 0.47510100 0.00000100 -4.22988100
v 0.47510100 0.00000100 -4.22988100
v 0.54090900 -0.80179700 -4.22988100
v 0.54090900 -0.80179700 -4.22988100
v 0.67058500 -1.31477600 -4.22988100
v 0.67058500 -1.31477600 -4.22988100
v 0.67058500 -1.31477600 -4.22988100
v 1.26078000 -0.62996700 -4.95270800
v 0.06420500 -1.39408100 -3.34911300
v 0.06420500 -1.39408100 -3.34911300
v 2.10765800 -0.53289200 -5.49409100
v 2.10765800 -0.53289200 -5.49409100
v 1.41390900 -1.23572600 -4.95270800
v 1.41390900 -1.23572600 -4.95270800
v 1.41390900 -1.23572600 -4.95270800
v -0.92382000 -0.42695400 -5.74210100
v -0.92382000 -0.42695400 -5.74210100
v -0.92382000 -0.42695400 -5.74210100
v 1.81573000 0.00254800 -5.94522500
v 1.81573000 0.00254800 -5.94522500
v 1.81573000 0.00254800 -5.94522500
v 1.81573000 0.00254800 -5.94522500
v 1.81573000 0.00254800 -5.94522500
v -0.13869500 0.00304800 -5.83898200
v -0.92457900 0.23460200 -5.74504800
v -0.92457900 0.23460200 -5.74504800
v 2.95027800 0.07319400 -5.81856300
v 2.95027800 0.07319400 -5.81856300
v 2.95027800 0.07319400 -5.81856300
v 2.92800800 -0.09504100 -5.80787600
v 2.92800800 -0.09504100 -5.80787600
v 2.92800800 -0.09504100 -5.80787600
v -4.27423300 1.63160500 -2.24418500
v -4.27423300 1.63160500 -2.24418500
v -4.42036700 1.63929200 -1.68312000
v -4.42036700 1.63929200 -1.68312000
v -4.42136600 1.05535800 -2.24078800
v -4.69371300 1.12036600 -1.14234500
v -4.59566400 1.54535600 -1.06672200
v -4.59566400 1.54535600 -1.06672200
v -4.76610400 1.25044100 0.06771400
v -4.76610400 1.25044100 0.06771400
v -4.78567000 0.00000100 -1.14234500
v -4.87943100 0.00000100 -0.00000000
v -4.78567000 0.00000100 1.14234500
v -4.76515100 -1.25054500 0.07120500
v -4.76515100 -1.25054500 0.07120500
v -4.44589900 -0.75650200 2.24078800
v -4.44589900 -0.75650200 2.24078800
v -4.00658300 -0.61504700 3.25311100
v -4.00658300 -0.61504700 3.25311100
v -4.70618700 -0.96837000 1.14234500
v -4.70618700 -0.96837000 1.14234500
v -4.05705900 -0.00000000 3.25311200
v -4.50798700 0.00000100 2.24078800
v -4.44589900 0.75650100 2.24078700
v -4.44589900 0.75650100 2.24078700
v -4.00657900 0.61504600 3.25311200
v -4.00657900 0.61504600 3.25311200
v -4.70618700 0.96836900 1.14234500
v -4.70618700 0.96836900 1.14234500
v -3.45022100 0.00000100 4.14041200
v -3.45022100 0.00000100 4.14041200
v 1.59816700 0.00004800 4.96205800
v 1.59816700 0.00004800 4.96205800
v 1.59816700 0.00004800 4.96205800
v 1.59816700 0.00004800 4.96205800
v 1.54507400 0.05495800 5.02459800
v 1.54507400 0.05495800 5.02459800
v 1.54507400 0.05495800 5.02459800
v 1.54507400 0.05495800 5.02459800
vn 0.00741371 -0.93444374 0.35603360
vn -0.01415120 0.00135207 0.99989895
vn 0.05366466 -0.86738203 0.49474086
vn 0.84187965 -0.32970148 0.42724184
vn 0.53991572 0.04757788 -0.84037334
vn 0.84187965 -0.32970148 0.42724184
vn 0.11601152 0.00263195 0.99324438
vn 0.05812570 -0.85059191 0.52260388
vn 0.76232774 -0.00001948 0.64719118
vn -0.00585422 0.00149732 0.99998174
vn 0.00736985 0.93412389 0.35687288
vn -0.06203017 -0.85082193 0.52177994
vn -0.36238533 -0.00775731 0.93199608
vn 0.03723999 -0.92045149 0.38907870
vn 0.64302860 0.05181472 -0.76408733
vn 0.00183054 -0.94259311 0.33393844
vn -0.63433590 -0.05438096 0.77114245
vn -0.06135482 0.85124428 0.52117057
vn -0.36033544 0.00299853 0.93281798
vn -0.62676528 -0.00031525 0.77920805
vn -0.63453903 0.05375461 0.77101924
vn 0.00172896 0.94251529 0.33415857
vn 0.00396105 0.97437836 0.22488023
vn -0.70053994 0.06054538 0.71104012
vn -0.82390439 0.06551624 0.56292911
vn 0.64279462 -0.05182605 -0.76428341
vn 0.03787072 0.91921206 0.39193749
vn 0.84296983 0.34405031 0.41355924
vn 0.05347655 0.86917470 0.49160513
vn 0.53991591 -0.04711908 -0.84039907
vn 0.82354013 -0.06759389 -0.56321641
vn 0.70323321 -0.05771851 -0.70861247
vn 0.02133306 0.97789105 0.20802402
vn 0.62090307 0.00006031 -0.78388735
vn 0.82542767 -0.00000021 -0.56450789
vn 0.70400234 -0.00004026 -0.71019766
vn 0.70332952 0.05772614 -0.70851625
vn 0.02135094 -0.97776988 0.20859099
vn 0.82354009 0.06759367 -0.56321649
vn 0.87412759 0.00000002 -0.48569637
vn 0.94543407 -0.00000010 -0.32581348
vn 0.02022404 -0.98079636 0.19398323
vn 0.87466595 0.07179163 -0.47938026
vn 0.87466593 -0.07179167 -0.47938030
vn 0.02022430 0.98079638 0.19398309
vn 0.01470730 0.98269813 0.18462960
vn 0.94484667 -0.07754884 -0.31819953
vn 0.98493355 -0.08083947 -0.15287537
vn 0.03245422 0.98208431 0.18562630
vn 0.98672999 0.00001310 -0.16236972
vn 0.99999973 -0.00069019 0.00025075
vn 0.98494493 0.08084025 -0.15280164
vn 0.03237525 -0.98207294 0.18570027
vn 0.99487519 0.10100041 0.00471967
vn 0.06194556 -0.98376668 0.16842169
vn 0.01470702 -0.98269811 0.18462968
vn 0.94484669 0.07754866 -0.31819951
vn 0.99523846 -0.09721333 0.00706898
vn 0.06373279 0.98407998 0.16590577
vn 0.97342175 -0.16063420 0.16323835
vn 0.03158032 0.99696996 0.07108855
vn 0.98672188 -0.00092824 0.16241637
vn 0.07048033 0.98913924 0.12898097
vn 0.95461933 -0.24293821 0.17228744
vn 0.07080581 0.99732075 -0.01838086
vn 0.91595805 -0.23547262 0.32492075
vn 0.05756246 0.96691804 -0.24850768
vn 0.85309674 -0.22570722 0.47040642
vn 0.04720934 0.99042734 -0.12971106
vn 0.93158632 -0.15588944 0.32839826
vn 0.85779584 -0.14713811 0.49248012
vn 0.94543436 -0.00000016 0.32581262
vn 0.87412743 -0.00000047 0.48569664
vn 0.93202045 0.15539912 0.32739730
vn 0.97359051 0.16327114 0.15957458
vn 0.86107099 0.14313341 0.48792373
vn 0.91205012 0.23241652 0.33785669
vn 0.06220145 -0.99805580 -0.00394904
vn 0.95261541 0.24238280 0.18377829
vn 0.06742753 -0.99050038 0.11984372
vn 0.03135708 -0.99696311 0.07128311
vn 0.00400080 -0.97437499 0.22489414
vn -0.70058004 -0.06064911 0.71099176
vn -0.82390404 -0.06551465 0.56292981
vn -0.88658039 -0.21909462 -0.40739753
vn 0.00535482 -0.98979244 -0.14241574
vn -0.79814602 -0.20457911 -0.56666597
vn -0.00291115 -0.98226513 0.18747464
vn -0.95543326 -0.24872079 -0.15901339
vn 0.03909253 -0.99731165 -0.06197782
vn -0.91464919 -0.23077692 -0.33190190
vn 0.02187089 -0.99886256 -0.04237030
vn -0.93933199 -0.24161501 -0.24346992
vn 0.00174293 -0.99662917 0.08201989
vn -0.97288636 -0.16303258 -0.16405034
vn -0.93203033 -0.15523334 -0.32744781
vn -0.94543124 0.00000104 -0.32582169
vn -0.87988546 -0.12125450 -0.45945503
vn -0.79816048 -0.20384710 -0.56690934
vn -0.87412137 -0.00000010 -0.48570756
vn -0.86092470 0.14279186 -0.48828182
vn -0.70166003 0.00000007 -0.71251189
vn -0.82542113 0.00000013 -0.56451746
vn -0.68884956 0.11548830 -0.71564568
vn -0.81315077 0.13279116 -0.56670304
vn -0.82353279 -0.06759206 -0.56322736
vn -0.72930141 -0.14546225 -0.66855082
vn -0.09352830 -0.83551317 -0.54145194
vn -0.62971045 -0.08554651 -0.77210527
vn -0.25392124 -0.58624362 -0.76931295
vn -0.07246455 -0.90836917 -0.41184261
vn -0.74911952 -0.19005740 -0.63458501
vn -0.62726033 -0.00134068 -0.77880850
vn -0.45516863 -0.03166686 -0.88984197
vn -0.25392124 -0.58624362 -0.76931295
vn -0.43227059 0.03756119 -0.90096131
vn 0.02583429 0.88186284 -0.47079776
vn -0.63058766 0.08679621 -0.77124939
vn 0.45875046 0.00124566 0.88856427
vn 0.01550750 0.84888464 -0.52835063
vn -0.43438015 0.07189578 -0.89785571
vn 0.01238161 0.83913213 -0.54378669
vn 0.01221277 0.78756750 -0.61610737
vn 0.03563918 0.70233154 -0.71095728
vn 0.31517253 -0.10279325 0.94345102
vn -0.67982960 0.17328409 -0.71260392
vn -0.79829110 0.20217939 -0.56732250
vn 0.04282366 0.93705852 -0.34653637
vn 0.04828763 0.92744113 -0.37083858
vn 0.80986953 -0.11672332 0.57488000
vn 0.70688708 -0.07661417 0.70316494
vn 0.03487944 0.98722855 -0.15544521
vn -0.84920947 0.21309925 -0.48314800
vn 0.04224336 0.90988132 -0.41271235
vn 0.63886692 -0.05874030 0.76707146
vn 0.62564863 0.00064606 0.78010472
vn 0.70397031 -0.00611694 0.71020306
vn 0.82250634 -0.00583396 0.56872603
vn 0.68975789 0.11643674 0.71461636
vn 0.81305254 0.13335732 0.56671103
vn 0.79815065 0.20176456 0.56766768
vn 0.67743383 0.17124822 0.71537225
vn 0.05667812 -0.99710132 -0.05075980
vn 0.61662458 0.10093218 0.78076041
vn 0.05703586 -0.99716423 -0.04909583
vn 0.84319258 0.21314940 0.49355204
vn 0.03803128 -0.63166011 -0.77431203
vn 0.46952988 0.04110360 0.88195929
vn 0.04068326 -0.63291079 -0.77315510
vn 0.61448517 0.15533488 0.77348501
vn -0.03894338 -0.93241994 -0.35927214
vn -0.23342597 -0.01867396 -0.97219525
vn -0.09237747 -0.81931226 -0.56585672
vn -0.03198253 -0.62673526 -0.77857564
vn 0.11541906 -0.07818247 -0.99023530
vn 0.01271545 0.73498698 -0.67796199
vn -0.05428068 -0.00407859 -0.99851739
vn 0.03563918 0.70233154 -0.71095728
vn 0.04012274 -0.63209005 -0.77385550
vn -0.06253507 0.04559056 -0.99700094
vn 0.01019313 0.81907839 -0.57359105
vn -0.24465113 0.00919542 -0.96956757
vn 0.03563918 0.70233154 -0.71095728
vn 0.34955918 0.00758688 0.93688357
vn 0.11541906 -0.07818247 -0.99023530
vn 0.11541906 -0.07818247 -0.99023530
vn 0.35117425 0.01298620 0.93622006
vn 0.04033155 -0.63085842 -0.77484903
vn 0.02240294 0.99881420 -0.04322389
vn -0.91468405 0.23073639 -0.33183400
vn 0.00174300 0.99662915 0.08202010
vn -0.93933236 0.24161210 -0.24347139
vn -0.93203069 0.15523213 -0.32744737
vn -0.97342995 0.16126937 -0.16256177
vn -0.00318396 0.98225573 0.18751945
vn -0.95533399 0.24878670 -0.15950595
vn -0.99451797 0.10419199 -0.00883393
vn -0.16032638 0.96000964 0.22951458
vn -0.98683833 0.00167294 -0.16170129
vn -0.99999836 0.00141832 -0.00112191
vn -0.98676029 -0.00007374 0.16218544
vn -0.15839118 -0.96036964 0.22935209
vn -0.99422048 -0.10719737 -0.00586275
vn -0.28583107 -0.92439985 0.25255794
vn -0.94436145 -0.07750755 0.31964674
vn -0.11860331 -0.96703552 0.22533433
vn -0.87356078 -0.07169320 0.48140591
vn -0.34949119 -0.90111094 0.25662227
vn -0.98538722 -0.08087968 0.14990164
vn -0.87436229 0.00000217 0.48527373
vn -0.94543094 0.00000074 0.32582256
vn -0.94436100 0.07750815 0.31964790
vn -0.28475473 0.92483660 0.25217454
vn -0.11861268 0.96703882 0.22531523
vn -0.87356058 0.07169729 0.48140567
vn -0.98533114 0.08087532 0.15027218
vn -0.34660029 0.90235333 0.25617710
vn -0.70169663 0.00003448 0.71247585
vn -0.82542083 0.00000011 0.56451789
vn 0.53956278 0.00046638 -0.84194524
vn 0.84296983 0.34405031 0.41355924
vn 0.76232774 -0.00001948 0.64719118
vn 0.84187965 -0.32970148 0.42724184
vn 0.84296983 0.34405031 0.41355924
vn 0.76232774 -0.00001948 0.64719118
vn 0.05715150 0.85558388 0.51449969
vn 0.11601728 0.00279351 0.99324327
vt 0.76242600 0.40818600
vt 0.94621800 0.78161700
vt 0.76441500 0.42669700
vt 0.99910200 0.97109400
vt 0.62485000 0.97206000
vt 0.99857000 0.97109400
vt 0.96450500 0.78290100
vt 0.76392600 0.42651900
vt 0.96450500 0.78290100
vt 0.94621300 0.78212300
vt 0.12810600 0.75125600
vt 0.76325100 0.40187400
vt 0.93991100 0.78110700
vt 0.76586300 0.42429400
vt 0.62539100 0.97459600
vt 0.76526500 0.39843700
vt 0.93648800 0.77990300
vt 0.12206300 0.75129600
vt 0.93987100 0.78173200
vt 0.93628900 0.78117100
vt 0.93630300 0.78246500
vt 0.11825200 0.75284300
vt 0.11285400 0.75639600
vt 0.93139500 0.78350700
vt 0.88206000 0.38334900
vt 0.62260000 0.97431300
vt 0.14232800 0.75658400
vt 0.99963600 0.97132000
vt 0.14502600 0.75547700
vt 0.62367500 0.97195400
vt 0.88162800 0.50103500
vt 0.62115700 0.97881400
vt 0.13733400 0.75994100
vt 0.62400500 0.97438900
vt 0.88163200 0.49869300
vt 0.62345500 0.97927200
vt 0.62579900 0.97927200
vt 0.76982500 0.41981300
vt 0.88159200 0.49641200
vt 0.88687300 0.49818300
vt 0.89269800 0.49781400
vt 0.77479200 0.41602900
vt 0.88681400 0.49487900
vt 0.88686700 0.50157600
vt 0.13284100 0.76437500
vt 0.12922100 0.76960200
vt 0.89269100 0.50234200
vt 0.89887500 0.50325600
vt 0.12662500 0.77542100
vt 0.89888400 0.49760100
vt 0.90519300 0.49755000
vt 0.89878600 0.49209400
vt 0.78653000 0.41170700
vt 0.90487400 0.49101700
vt 0.79264700 0.41137200
vt 0.78043300 0.41329400
vt 0.89262000 0.49340500
vt 0.90503600 0.50427800
vt 0.12521000 0.78147200
vt 0.91137300 0.50384900
vt 0.10796100 0.78833900
vt 0.91138300 0.49766500
vt 0.12515100 0.78792000
vt 0.91129700 0.50544900
vt 0.12625700 0.79398500
vt 0.91697100 0.50617100
vt 0.12848500 0.79958700
vt 0.92202200 0.50590500
vt 0.11630500 0.79630800
vt 0.91720600 0.50376600
vt 0.92245800 0.50360900
vt 0.91721600 0.49794100
vt 0.92246700 0.49836600
vt 0.91711500 0.49226800
vt 0.91127600 0.49164300
vt 0.92237600 0.49326100
vt 0.91711400 0.49008200
vt 0.80524400 0.41466200
vt 0.91148200 0.49008200
vt 0.79941500 0.41259200
vt 0.80172200 0.39496000
vt 0.76947300 0.39371800
vt 0.93177600 0.77823100
vt 0.88159200 0.38819100
vt 0.92138600 0.39907300
vt 0.81043000 0.39175800
vt 0.92702600 0.43790000
vt 0.79852800 0.38657400
vt 0.90915300 0.39970800
vt 0.80855400 0.40447500
vt 0.91573000 0.40001100
vt 0.80502700 0.38881900
vt 0.91257500 0.40009500
vt 0.80193900 0.38780800
vt 0.90973600 0.39785200
vt 0.91593100 0.39746900
vt 0.91641100 0.39234500
vt 0.92174400 0.39639000
vt 0.92776400 0.44128500
vt 0.92217700 0.39177900
vt 0.92267600 0.38676500
vt 0.92400400 0.44643000
vt 0.92732100 0.39073600
vt 0.92331700 0.45087100
vt 0.92774600 0.38647200
vt 0.92695300 0.39465800
vt 0.92381100 0.44194000
vt 0.81928100 0.39992900
vt 0.91867400 0.44157400
vt 0.91867400 0.44157400
vt 0.81533900 0.39548300
vt 0.92324000 0.43956500
vt 0.91913100 0.44623100
vt 0.91350100 0.44334300
vt 0.91350100 0.44334300
vt 0.91340900 0.44741900
vt 0.11225100 0.80654500
vt 0.91818800 0.45079300
vt 0.98076300 0.93457400
vt 0.14190800 0.81327300
vt 0.91310100 0.44859200
vt 0.11751200 0.81005000
vt 0.14503300 0.81457300
vt 0.88413400 0.44573500
vt 0.98402100 0.93489800
vt 0.92249700 0.45317600
vt 0.92797800 0.38405200
vt 0.10773100 0.80199800
vt 0.13214500 0.80524700
vt 0.92690700 0.50447400
vt 0.97023900 0.93489800
vt 0.10414700 0.79661100
vt 0.92290600 0.38334900
vt 0.13663700 0.80972200
vt 0.97514900 0.93446200
vt 0.97585400 0.93091300
vt 0.97118900 0.92943200
vt 0.92693500 0.49892600
vt 0.97292300 0.92532200
vt 0.92685800 0.49458400
vt 0.92675200 0.49188400
vt 0.97458700 0.92286400
vt 0.81545500 0.42172500
vt 0.97721600 0.92768300
vt 0.81065700 0.41765000
vt 0.92228300 0.49088600
vt 0.88735300 0.44158500
vt 0.98243600 0.92989100
vt 0.89214600 0.43790000
vt 0.97918200 0.92478100
vt 0.81936600 0.42669700
vt 0.90744400 0.44330400
vt 0.82382700 0.41105000
vt 0.90744400 0.44330400
vt 0.88914600 0.44469600
vt 0.14071400 0.81556800
vt 0.88914600 0.44469600
vt 0.88914600 0.44469600
vt 0.88914600 0.44469600
vt 0.90210800 0.44540300
vt 0.12334800 0.81252400
vt 0.90724700 0.44696100
vt 0.88159200 0.44465900
vt 0.98679200 0.93477100
vt 0.88159200 0.44465900
vt 0.88179000 0.44373600
vt 0.98692700 0.93383700
vt 0.88179000 0.44373600
vt 0.10185100 0.79087400
vt 0.91733100 0.38347500
vt 0.10124000 0.78768100
vt 0.91418300 0.38348200
vt 0.91696600 0.38677300
vt 0.91083500 0.38649800
vt 0.10066800 0.78416300
vt 0.91066900 0.38404600
vt 0.90420700 0.38531000
vt 0.10079000 0.77779600
vt 0.91024600 0.39241200
vt 0.90391800 0.39197900
vt 0.89767100 0.39106100
vt 0.79219600 0.38529300
vt 0.90296200 0.39797800
vt 0.78006900 0.38712900
vt 0.89140000 0.39336600
vt 0.77439600 0.38993400
vt 0.88608600 0.39091500
vt 0.78621200 0.38553600
vt 0.89723000 0.39576200
vt 0.88636600 0.38792900
vt 0.89174400 0.38969300
vt 0.89214200 0.38569900
vt 0.10491300 0.76605900
vt 0.10847300 0.76079700
vt 0.88669000 0.38468200
vt 0.89818000 0.38594800
vt 0.10228700 0.77192200
vt 0.93139600 0.78085500
vt 0.88174300 0.38583600
vt 0.62428300 0.97180600
vt 0.99910200 0.97109400
vt 0.96483800 0.78323200
vt 0.99867200 0.97155400
vt 0.99910200 0.97149300
vt 0.96446300 0.78350700
vt 0.14503300 0.75497800
vt 0.96446300 0.78350700
f 14/14/14 3/3/3 1/1/1
f 1/1/1 3/3/3 8/8/8
f 10/10/10 2/2/2 7/7/7
f 2/2/2 10/10/10 19/19/19
f 12/12/12 16/16/16 1/1/1
f 2/2/2 19/19/19 13/13/13
f 16/16/16 14/14/14 1/1/1
f 22/22/22 18/18/18 11/11/11
f 13/13/13 19/19/19 20/20/20
f 21/21/21 20/20/20 19/19/19
f 20/20/20 21/21/21 24/24/24
f 22/22/22 27/27/27 23/23/23
f 11/11/11 27/27/27 22/22/22
f 26/26/26 30/30/30 34/34/34
f 11/11/11 29/29/29 27/27/27
f 23/23/23 27/27/27 33/33/33
f 36/36/36 32/32/32 26/26/26
f 34/34/34 36/36/36 26/26/26
f 31/31/31 35/35/35 40/40/40
f 40/40/40 35/35/35 39/39/39
f 37/37/37 36/36/36 15/15/15
f 36/36/36 34/34/34 15/15/15
f 44/44/44 40/40/40 41/41/41
f 41/41/41 40/40/40 43/43/43
f 40/40/40 39/39/39 43/43/43
f 31/31/31 40/40/40 44/44/44
f 23/23/23 33/33/33 45/45/45
f 23/23/23 45/45/45 46/46/46
f 44/44/44 41/41/41 47/47/47
f 47/47/47 50/50/50 48/48/48
f 23/23/23 46/46/46 49/49/49
f 47/47/47 41/41/41 50/50/50
f 50/50/50 51/51/51 58/58/58
f 50/50/50 54/54/54 51/51/51
f 58/58/58 48/48/48 50/50/50
f 52/52/52 54/54/54 50/50/50
f 50/50/50 57/57/57 52/52/52
f 50/50/50 41/41/41 57/57/57
f 62/62/62 58/58/58 51/51/51
f 59/59/59 61/61/61 49/49/49
f 58/58/58 60/60/60 64/64/64
f 62/62/62 60/60/60 58/58/58
f 59/59/59 63/63/63 61/61/61
f 66/66/66 64/64/64 60/60/60
f 63/63/63 65/65/65 61/61/61
f 68/68/68 66/66/66 70/70/70
f 65/65/65 67/67/67 69/69/69
f 61/61/61 65/65/65 69/69/69
f 60/60/60 70/70/70 66/66/66
f 72/72/72 70/70/70 60/60/60
f 70/70/70 71/71/71 68/68/68
f 72/72/72 71/71/71 70/70/70
f 72/72/72 73/73/73 71/71/71
f 74/74/74 73/73/73 72/72/72
f 74/74/74 72/72/72 62/62/62
f 72/72/72 60/60/60 62/62/62
f 74/74/74 75/75/75 79/79/79
f 74/74/74 62/62/62 75/75/75
f 74/74/74 76/76/76 73/73/73
f 76/76/76 74/74/74 77/77/77
f 79/79/79 77/77/77 74/74/74
f 81/81/81 78/78/78 80/80/80
f 81/81/81 80/80/80 55/55/55
f 54/54/54 79/79/79 75/75/75
f 82/82/82 81/81/81 53/53/53
f 88/88/88 81/81/81 82/82/82
f 81/81/81 92/92/92 86/86/86
f 81/81/81 86/86/86 90/90/90
f 88/88/88 94/94/94 81/81/81
f 81/81/81 90/90/90 78/78/78
f 94/94/94 92/92/92 81/81/81
f 81/81/81 55/55/55 53/53/53
f 95/95/95 93/93/93 89/89/89
f 93/93/93 95/95/95 96/96/96
f 93/93/93 96/96/96 91/91/91
f 97/97/97 96/96/96 95/95/95
f 98/98/98 91/91/91 96/96/96
f 100/100/100 96/96/96 97/97/97
f 100/100/100 98/98/98 96/96/96
f 101/101/101 100/100/100 97/97/97
f 105/105/105 100/100/100 101/101/101
f 100/100/100 103/103/103 106/106/106
f 105/105/105 103/103/103 100/100/100
f 100/100/100 106/106/106 98/98/98
f 113/113/113 109/109/109 107/107/107
f 107/107/107 109/109/109 112/112/112
f 99/99/99 107/107/107 112/112/112
f 113/113/113 107/107/107 102/102/102
f 113/113/113 114/114/114 109/109/109
f 116/116/116 114/114/114 113/113/113
f 113/113/113 102/102/102 104/104/104
f 118/118/118 116/116/116 113/113/113
f 113/113/113 104/104/104 118/118/118
f 120/120/120 117/117/117 128/128/128
f 120/120/120 123/123/123 117/117/117
f 118/118/118 121/121/121 116/116/116
f 117/117/117 123/123/123 122/122/122
f 118/118/118 104/104/104 126/126/126
f 67/67/67 129/129/129 128/128/128
f 128/128/128 129/129/129 134/134/134
f 101/101/101 127/127/127 105/105/105
f 128/128/128 132/132/132 67/67/67
f 101/101/101 133/133/133 127/127/127
f 134/134/134 120/120/120 128/128/128
f 136/136/136 119/119/119 135/135/135
f 137/137/137 136/136/136 135/135/135
f 137/137/137 135/135/135 131/131/131
f 138/138/138 130/130/130 71/71/71
f 140/140/140 138/138/138 73/73/73
f 138/138/138 71/71/71 73/73/73
f 139/139/139 136/136/136 137/137/137
f 142/142/142 144/144/144 139/139/139
f 140/140/140 146/146/146 141/141/141
f 140/140/140 76/76/76 146/146/146
f 140/140/140 73/73/73 76/76/76
f 139/139/139 144/144/144 136/136/136
f 77/77/77 146/146/146 76/76/76
f 90/90/90 143/143/143 145/145/145
f 145/145/145 78/78/78 90/90/90
f 136/136/136 144/144/144 148/148/148
f 148/148/148 144/144/144 150/150/150
f 142/142/142 150/150/150 144/144/144
f 86/86/86 111/111/111 151/151/151
f 90/90/90 86/86/86 151/151/151
f 90/90/90 151/151/151 143/143/143
f 108/108/108 153/153/153 151/151/151
f 111/111/111 108/108/108 151/151/151
f 154/154/154 159/159/159 149/149/149
f 147/147/147 149/149/149 159/159/159
f 152/152/152 160/160/160 157/157/157
f 160/160/160 162/162/162 157/157/157
f 161/161/161 123/123/123 156/156/156
f 155/155/155 165/165/165 166/166/166
f 158/158/158 124/124/124 163/163/163
f 159/159/159 168/168/168 147/147/147
f 148/148/148 167/167/167 164/164/164
f 119/119/119 164/164/164 125/125/125
f 164/164/164 119/119/119 148/148/148
f 152/152/152 162/162/162 160/160/160
f 121/121/121 162/162/162 152/152/152
f 122/122/122 123/123/123 161/161/161
f 110/110/110 115/115/115 154/154/154
f 114/114/114 116/116/116 152/152/152
f 116/116/116 121/121/121 152/152/152
f 136/136/136 148/148/148 119/119/119
f 69/69/69 67/67/67 132/132/132
f 170/170/170 133/133/133 101/101/101
f 132/132/132 61/61/61 69/69/69
f 169/169/169 61/61/61 132/132/132
f 172/172/172 170/170/170 173/173/173
f 169/169/169 171/171/171 61/61/61
f 170/170/170 101/101/101 173/173/173
f 174/174/174 173/173/173 97/97/97
f 174/174/174 172/172/172 173/173/173
f 101/101/101 97/97/97 173/173/173
f 174/174/174 177/177/177 176/176/176
f 174/174/174 176/176/176 172/172/172
f 177/177/177 174/174/174 179/179/179
f 174/174/174 97/97/97 179/179/179
f 180/180/180 179/179/179 95/95/95
f 97/97/97 95/95/95 179/179/179
f 177/177/177 179/179/179 180/180/180
f 181/181/181 180/180/180 183/183/183
f 177/177/177 180/180/180 181/181/181
f 180/180/180 95/95/95 183/183/183
f 183/183/183 95/95/95 89/89/89
f 182/182/182 88/88/88 186/186/186
f 188/188/188 182/182/182 184/184/184
f 184/184/184 182/182/182 186/186/186
f 181/181/181 183/183/183 189/189/189
f 185/185/185 181/181/181 189/189/189
f 190/190/190 187/187/187 84/84/84
f 186/186/186 88/88/88 82/82/82
f 191/191/191 187/187/187 190/190/190
f 191/191/191 185/185/185 187/187/187
f 185/185/185 191/191/191 181/181/181
f 181/181/181 191/191/191 192/192/192
f 191/191/191 195/195/195 192/192/192
f 191/191/191 190/190/190 195/195/195
f 175/175/175 178/178/178 194/194/194
f 175/175/175 194/194/194 23/23/23
f 178/178/178 193/193/193 194/194/194
f 190/190/190 25/25/25 195/195/195
f 178/178/178 197/197/197 193/193/193
f 181/181/181 192/192/192 196/196/196
f 177/177/177 181/181/181 196/196/196
f 190/190/190 199/199/199 25/25/25
f 190/190/190 84/84/84 199/199/199
f 20/20/20 24/24/24 198/198/198
f 83/83/83 20/20/20 198/198/198
f 23/23/23 61/61/61 175/175/175
f 171/171/171 175/175/175 61/61/61
f 71/71/71 130/130/130 68/68/68
f 99/99/99 112/112/112 87/87/87
f 98/98/98 85/85/85 91/91/91
f 83/83/83 17/17/17 20/20/20
f 16/16/16 82/82/82 14/14/14
f 38/38/38 14/14/14 82/82/82
f 42/42/42 38/38/38 82/82/82
f 53/53/53 56/56/56 82/82/82
f 56/56/56 42/42/42 82/82/82
f 75/75/75 62/62/62 51/51/51
f 75/75/75 51/51/51 54/54/54
f 61/61/61 23/23/23 49/49/49
f 41/41/41 43/43/43 57/57/57
f 200/200/200 34/34/34 30/30/30
f 34/34/34 200/200/200 5/5/5
f 5/5/5 15/15/15 34/34/34
f 205/205/205 9/9/9 202/202/202
f 6/6/6 4/4/4 203/203/203
f 204/204/204 201/201/201 28/28/28
f 11/11/11 206/206/206 29/29/29
f 10/10/10 7/7/7 207/207/207
f 20/20/20 17/17/17 13/13/13

