# ('FARMS composite mesh',)
mtllib link_body_34_composite.mtl

o link_body_34
usemtl link_body_34_composite
v -1.83865300 -1.17442600 -0.66075000
v -0.04407500 -1.30446200 -1.90603300
v -0.04407500 -1.30446200 -1.90603300
v -3.12214600 -1.16875300 -1.09037200
v -3.22669200 -0.20322800 3.93003200
v -3.22669200 -0.20322800 3.93003200
v -3.22669200 -0.20322800 3.93003200
v -0.38633000 -1.06296100 -0.10467100
v -0.38633000 -1.06296100 -0.10467100
v -0.23999800 -0.74115300 1.40950300
v -0.23999800 -0.74115300 1.40950300
v -2.14872700 -1.28074600 -2.71181500
v -0.28102900 -1.19784100 -1.11548000
v -0.28102900 -1.19784100 -1.11548000
v -0.39354700 0.00000100 -1.14484800
v -0.06671900 -0.94683400 -2.13031100
v -0.47766100 -0.00000000 -0.12000000
v -0.14443200 0.00000100 -2.13031100
v 0.26010100 0.00000000 -3.03851900
v -0.06671900 0.94683500 -2.13031100
v -0.27579500 1.20045200 -1.11814700
v -0.27579500 1.20045200 -1.11814700
v 0.37735700 1.10892400 -3.02233200
v 0.37735700 1.10892400 -3.02233200
v 0.88835100 0.88366400 -3.82365100
v 0.88835100 0.88366400 -3.82365100
v 0.88835100 0.88366400 -3.82365100
v -0.04586800 1.30407500 -1.90793300
v -0.04586800 1.30407500 -1.90793300
v -2.14972700 1.28067300 -2.71233200
v -3.17212700 0.83169900 -3.91460200
v -3.17212700 0.83169900 -3.91460200
v -3.17212700 0.83169900 -3.91460200
v -2.47136700 0.62949800 -4.61779600
v -2.47136700 0.62949800 -4.61779600
v -3.12214600 1.16875200 -1.09037200
v -4.17774200 1.02492500 -2.07769000
v -4.17774200 1.02492500 -2.07769000
v -3.76833300 0.97634900 -3.01493100
v -3.76833300 0.97634900 -3.01493100
v -1.83865400 1.17442600 -0.66075000
v -3.23802200 0.20971700 3.90704300
v -3.23802200 0.20971700 3.90704300
v -3.23802200 0.20971700 3.90704300
v -0.38664200 1.06323100 -0.10746200
v -0.38664200 1.06323100 -0.10746200
v -0.24007400 0.74023400 1.40950300
v -0.24007400 0.74023400 1.40950300
v -0.14443200 0.00000100 1.89031100
v 0.31629200 0.41978300 2.87682400
v 0.31629200 0.41978300 2.87682400
v -0.39354700 0.00000100 0.90484800
v 0.29684500 -0.44765500 2.79851900
v 0.29684500 -0.44765500 2.79851900
v 0.87273400 -0.27557600 3.66146500
v 0.87273400 -0.27557600 3.66146500
v 0.87273400 -0.27557600 3.66146500
v 0.89789600 0.27250900 3.67792400
v 0.89789600 0.27250900 3.67792400
v 0.89789600 0.27250900 3.67792400
v 1.43502000 0.00000400 4.21570600
v 1.43502000 0.00000400 4.21570600
v 1.43502000 0.00000400 4.21570600
v 1.43502000 0.00000400 4.21570600
v -2.80323800 0.04660700 4.34826300
v -2.80323800 0.04660700 4.34826300
v -2.80323800 0.04660700 4.34826300
v -2.80323800 -0.04660800 4.34826200
v -2.80323800 -0.04660800 4.34826200
v -2.80323800 -0.04660800 4.34826200
v -3.82803300 -0.00000000 3.06947300
v -3.79824800 0.30663900 3.07654000
v -3.79824800 0.30663900 3.07654000
v -3.79824800 0.30663900 3.07654000
v -4.46572100 0.54630400 1.10060500
v -4.46572100 0.54630400 1.10060500
v -4.46572100 0.54630400 1.10060500
v -4.23109400 0.33207600 2.11663400
v -4.23109400 0.33207600 2.11663400
v -4.22445600 -0.35394600 2.11430000
v -4.22445600 -0.35394600 2.11430000
v -4.51551000 0.00000100 1.07786000
v -4.60398100 0.00000100 -0.00000000
v -4.46896300 -0.54979900 1.08479100
v -4.46896300 -0.54979900 1.08479100
v -4.41025500 -0.98876200 -1.22232900
v -4.41025500 -0.98876200 -1.22232900
v -3.79825600 -0.30660200 3.07654500
v -3.79825600 -0.30660200 3.07654500
v -4.54515000 -0.71668600 0.00083000
v -4.54515000 -0.71668600 0.00083000
v -4.51551000 0.00000100 -1.07786000
v -4.25350900 0.00000100 -2.11429600
v -4.39311200 0.99688500 -1.27376100
v -4.39311200 0.99688500 -1.27376100
v -4.54437200 0.72473700 -0.00155600
v -4.54437200 0.72473700 -0.00155600
v -3.82803300 -0.00000100 -3.06947400
v -4.17774200 -1.02492600 -2.07768800
v -4.17774200 -1.02492600 -2.07768800
v -3.76833300 -0.97634900 -3.01493100
v -3.76833300 -0.97634900 -3.01493100
v -3.17223300 -0.83174900 -3.91445900
v -3.17223300 -0.83174900 -3.91445900
v -3.17223300 -0.83174900 -3.91445900
v -3.25544700 0.00000100 -3.90668700
v -3.25544700 0.00000100 -3.90668700
v -2.55775400 -0.00000000 -4.59375900
v -2.47136700 -0.62949900 -4.61779600
v -2.47136700 -0.62949900 -4.61779600
v 0.89891000 -0.88030500 -3.83936000
v 0.89891000 -0.88030500 -3.83936000
v 0.89891000 -0.88030500 -3.83936000
v -1.68419600 -0.39161800 -5.13493200
v -1.68419600 -0.39161800 -5.13493200
v 1.86329600 -0.07059400 -5.34660600
v 1.86329600 -0.07059400 -5.34660600
v -0.87674000 0.13770900 -5.42158000
v -0.87674000 0.13770900 -5.42158000
v -1.65387000 0.38565400 -5.14324700
v -1.65387000 0.38565400 -5.14324700
v 2.24769600 -0.30471500 -4.97756800
v 2.24769600 -0.30471500 -4.97756800
v 1.52782400 -0.61783000 -4.48945500
v 1.52782400 -0.61783000 -4.48945500
v -0.86772900 -0.13628400 -5.42270800
v -0.86772900 -0.13628400 -5.42270800
v -0.39564500 -0.00000000 -5.47794800
v 1.86337300 0.06991000 -5.34662200
v 1.86337300 0.06991000 -5.34662200
v 2.24887100 0.30965000 -4.97327300
v 2.24887100 0.30965000 -4.97327300
v 2.60444600 0.14523600 -5.10767200
v 2.60444600 0.14523600 -5.10767200
v 2.60444600 0.14523600 -5.10767200
v 2.60444600 0.14523600 -5.10767200
v 2.51258800 0.00083600 -5.22661700
v 2.51258800 0.00083600 -5.22661700
v 2.51258800 0.00083600 -5.22661700
v 2.51258800 0.00083600 -5.22661700
v 2.64068600 -0.10270000 -5.12409300
v 2.64068600 -0.10270000 -5.12409300
v 2.64068600 -0.10270000 -5.12409300
v 2.64068600 -0.10270000 -5.12409300
v 1.52225500 0.62306800 -4.48505600
v 1.52225500 0.62306800 -4.48505600
v 1.46789500 0.00000000 -4.48787200
v 0.80452000 0.00000000 -3.83457000
v 0.80452000 0.00000000 -3.83457000
v 0.38924400 -1.10577700 -3.03960600
v 0.38924400 -1.10577700 -3.03960600
vn -0.02376607 -0.99012536 0.13815550
vn 0.01917642 -0.99939801 -0.02891156
vn 0.92329599 0.24431928 0.29636567
vn -0.10068093 -0.99030473 0.09570736
vn -0.02595807 -0.96998419 0.24177850
vn -0.70789327 0.01780969 0.70609484
vn -0.82018245 -0.00441087 0.57208503
vn 0.00666916 -0.98368781 0.17976042
vn 0.99561694 0.09332667 0.00608593
vn 0.96768817 0.09100197 -0.23515578
vn -0.00222552 -0.97833973 0.20699375
vn -0.04832562 -0.98878823 -0.14128859
vn 0.97987161 0.10544539 0.16950778
vn 0.02570129 -0.98995716 0.13901172
vn 0.98612256 -0.00016160 0.16601887
vn 0.92709407 0.16796899 0.33508655
vn 0.99999735 0.00139018 0.00183599
vn 0.94594386 -0.00400827 0.32430563
vn 0.87360487 -0.00299282 0.48662673
vn 0.92791592 -0.15966836 0.33686506
vn 0.02356815 0.99030755 0.13687770
vn 0.97904982 -0.10901524 0.17198002
vn 0.87098357 -0.11418829 0.47785841
vn 0.03938859 0.97491990 -0.21904274
vn 0.70484789 -0.07558246 0.70532031
vn 0.82489191 -0.09071654 0.55796402
vn 0.01255359 0.94185632 -0.33578131
vn 0.92681577 -0.23594555 0.29213391
vn 0.01863510 0.99939260 -0.02944781
vn -0.04820201 0.98877289 -0.14143810
vn -0.08295773 0.95464539 -0.28595489
vn -0.69778666 0.06311435 -0.71351969
vn -0.82530595 0.07735637 -0.55936221
vn -0.62063573 0.04842099 -0.78260251
vn -0.00513198 0.93983757 -0.34158308
vn -0.10095409 0.99025308 0.09595364
vn -0.94077136 0.08130189 -0.32914927
vn -0.13986670 0.98942349 -0.03845087
vn -0.15107213 0.97360767 -0.17107106
vn -0.87416066 0.08025413 -0.47895972
vn -0.02376149 0.99013892 0.13805908
vn -0.70846680 0.01983560 0.70546534
vn -0.02653889 0.97034534 0.24026153
vn -0.81965871 0.01945832 0.57252160
vn 0.99527212 -0.09700714 0.00479860
vn 0.00643341 0.98350387 0.18077263
vn 0.96823909 -0.08985268 -0.23332288
vn -0.00006379 0.97797620 0.20871644
vn 0.93852805 0.00240564 -0.34519460
vn -0.00100654 0.98051175 0.19645786
vn 0.87248226 -0.00870715 -0.48856821
vn 0.98876356 -0.00000023 -0.14948784
vn -0.00294803 -0.97930527 0.20236724
vn 0.87825596 0.04575768 -0.47599654
vn 0.01385167 -0.93585318 0.35211782
vn 0.81709014 0.00333281 -0.57650030
vn 0.70469177 -0.01104753 -0.70942756
vn 0.70469177 -0.01104753 -0.70942756
vn 0.80737637 -0.01935652 -0.58971919
vn 0.01406329 0.93480856 0.35487347
vn 0.02327224 -0.90439020 0.42607133
vn 0.03126089 -0.00001072 0.99951126
vn 0.02345446 0.90102144 0.43314000
vn 0.70469177 -0.01104753 -0.70942756
vn -0.70480551 0.00710175 0.70936503
vn 0.00606131 0.93701480 0.34923707
vn 0.03126089 -0.00001072 0.99951126
vn -0.70270309 -0.00000763 0.71148322
vn 0.00732741 -0.93621909 0.35134047
vn 0.03126089 -0.00001072 0.99951126
vn -0.87510109 -0.00042420 0.48393998
vn -0.11566364 0.97624528 0.18321321
vn -0.86886651 0.07311223 0.48961780
vn -0.61348172 0.73212243 0.29603535
vn -0.16798369 0.97016265 0.17483110
vn -0.61348172 0.73212243 0.29603535
vn -0.98444007 0.08222631 0.15529517
vn -0.61348172 0.73212243 0.29603535
vn -0.94674122 0.01089610 0.32181104
vn -0.94639803 -0.02677356 0.32189121
vn -0.54342657 -0.79151078 0.27963948
vn -0.98657879 0.00018912 0.16328581
vn -0.99999974 0.00034387 0.00062749
vn -0.98437936 -0.08104718 0.15629659
vn -0.18431531 -0.96630006 0.17969989
vn -0.97906738 -0.08158551 -0.18646948
vn -0.15345413 -0.98322474 0.09859484
vn -0.12889080 -0.97359058 0.18843710
vn -0.87117104 -0.07341010 0.48546058
vn -0.99635671 -0.08459084 -0.01084892
vn -0.34963468 -0.92196874 0.16652095
vn -0.98736444 0.00284563 -0.15844041
vn -0.94411110 0.00040208 -0.32962717
vn -0.14967502 0.98434675 0.09305299
vn -0.97787229 0.08632322 -0.19056255
vn -0.25981341 0.95015137 0.17236406
vn -0.99610600 0.08733650 -0.01204894
vn -0.87248455 -0.00000018 -0.48864170
vn -0.14164780 -0.98924625 -0.03643849
vn -0.94019424 -0.08131824 -0.33079017
vn -0.15098161 -0.97363037 -0.17102182
vn -0.87416179 -0.08025165 -0.47895807
vn -0.82531367 -0.07734339 -0.55935261
vn -0.69779872 -0.06314549 -0.71350515
vn -0.08288888 -0.95467457 -0.28587741
vn -0.70007987 -0.00001447 -0.71406454
vn -0.82668630 0.00000866 -0.56266310
vn -0.62409687 0.00371476 -0.78133814
vn -0.00565865 -0.93994470 -0.34127986
vn -0.62756057 -0.05518241 -0.77660970
vn 0.82489883 0.09106635 0.55789680
vn 0.01371398 -0.94071646 -0.33891660
vn 0.70129181 0.06939352 0.70948878
vn -0.45622591 0.00074477 -0.88986368
vn 0.02399060 -0.90338075 -0.42816781
vn 0.06359098 -0.81026265 -0.58260675
vn 0.12322260 -0.03952256 -0.99159173
vn 0.03624294 0.79432622 -0.60640936
vn -0.22683918 0.04005290 -0.97310829
vn -0.45499019 0.00822604 -0.89045845
vn 0.02456577 0.90276451 -0.42943307
vn 0.47016805 0.00563422 0.88255893
vn 0.09980504 -0.79995698 -0.59169906
vn 0.63992292 0.06010914 0.76608455
vn 0.02939809 -0.88861442 -0.45771189
vn -0.22082980 -0.04513176 -0.97426758
vn 0.03598328 -0.79602376 -0.60419482
vn 0.02532306 0.00198554 -0.99967735
vn 0.12516337 0.04874682 -0.99093788
vn 0.05630240 0.81159406 -0.58150246
vn 0.08414105 0.80709873 -0.58439022
vn 0.46750604 -0.01718049 0.88382291
vn 0.20820451 0.53954809 -0.81580558
vn 0.12214567 0.77302469 -0.62250563
vn 0.34907202 -0.01103758 0.93703090
vn 0.68799975 0.14762218 -0.71053785
vn 0.20997042 -0.54440081 -0.81212079
vn 0.20820451 0.53954809 -0.81580558
vn 0.18174530 -0.00021158 -0.98334562
vn 0.68799975 0.14762218 -0.71053785
vn 0.35139572 -0.00852140 0.93618825
vn 0.15109856 -0.75594065 -0.63696386
vn 0.68799975 0.14762218 -0.71053785
vn 0.20997042 -0.54440081 -0.81212079
vn 0.63828709 -0.06217718 0.76728325
vn 0.02803682 0.88947090 -0.45613095
vn 0.62881677 0.00046350 0.77755338
vn 0.82542666 0.00064110 0.56450900
vn 0.70330423 -0.00056958 0.71088877
vn 0.03876330 -0.97469666 -0.22014504
vn 0.86644595 0.12181697 0.48418183
vt 0.41598400 0.84470100
vt 0.40524000 0.85335200
vt 0.22422200 0.95811800
vt 0.42477200 0.84575300
vt 0.42138800 0.81798400
vt 0.93052400 0.92826200
vt 0.88159200 0.91020000
vt 0.40600400 0.84310300
vt 0.22174500 0.94869200
vt 0.21859700 0.94066000
vt 0.40382200 0.83490000
vt 0.41973900 0.85562800
vt 0.22321600 0.95402500
vt 0.40614500 0.84876600
vt 0.21686600 0.95532100
vt 0.22249500 0.95967400
vt 0.21609300 0.94977900
vt 0.21744600 0.96056600
vt 0.21780800 0.96531400
vt 0.21224400 0.96138200
vt 0.57806700 0.84832600
vt 0.21023100 0.95620000
vt 0.21167700 0.96616800
vt 0.58085800 0.85937700
vt 0.28506600 0.97499300
vt 0.21306600 0.97007800
vt 0.58384400 0.86425800
vt 0.21010400 0.96048200
vt 0.57870700 0.85286200
vt 0.56512400 0.85532800
vt 0.55873400 0.86100400
vt 0.96919500 0.07634600
vt 0.92525800 0.90814100
vt 0.96471300 0.07480500
vt 0.56292400 0.86552100
vt 0.56052500 0.84554300
vt 0.91483100 0.90898800
vt 0.55352000 0.84999000
vt 0.55544500 0.85551000
vt 0.92013100 0.90857100
vt 0.56878200 0.84437400
vt 0.92823600 0.92826200
vt 0.56533300 0.81809700
vt 0.88185400 0.90814100
vt 0.21023800 0.95062500
vt 0.57839200 0.84269000
vt 0.21057700 0.94199700
vt 0.58103700 0.83452900
vt 0.21409000 0.93866200
vt 0.58617600 0.82701900
vt 0.21054400 0.93343900
vt 0.21515600 0.94415400
vt 0.39917800 0.82778300
vt 0.21532400 0.93309200
vt 0.39470100 0.82360800
vt 0.21311000 0.92826200
vt 0.81559800 0.97548300
vt 0.81256000 0.97548300
vt 0.21010400 0.92865400
vt 0.59065100 0.82317400
vt 0.39059600 0.82108500
vt 0.93042500 0.95925100
vt 0.59488700 0.82074000
vt 0.81391900 0.97180600
vt 0.92925200 0.93110900
vt 0.56865900 0.81609000
vt 0.92925200 0.93110900
vt 0.92976800 0.93109200
vt 0.41828500 0.81609000
vt 0.92976800 0.93109200
vt 0.88619900 0.91109500
vt 0.56106300 0.82212600
vt 0.88627400 0.90945700
vt 0.88627400 0.90945700
vt 0.55500600 0.83232700
vt 0.89702600 0.91081300
vt 0.89702600 0.91081300
vt 0.89142800 0.91086000
vt 0.89142800 0.91086000
vt 0.89121100 0.91432800
vt 0.42944700 0.82693900
vt 0.89694900 0.91372700
vt 0.90286700 0.91441600
vt 0.89674100 0.91639600
vt 0.43188600 0.83236400
vt 0.90934800 0.91945600
vt 0.43337300 0.84513600
vt 0.42584200 0.82209700
vt 0.88606600 0.91257200
vt 0.90264100 0.91790300
vt 0.43327300 0.83825100
vt 0.90884700 0.91464500
vt 0.91466000 0.91440600
vt 0.55284000 0.84538400
vt 0.91030800 0.90934700
vt 0.55336200 0.83828600
vt 0.90314100 0.91058000
vt 0.92008100 0.91370900
vt 0.43256600 0.85005600
vt 0.91413800 0.91940000
vt 0.43068500 0.85558500
vt 0.91947200 0.91849000
vt 0.92469500 0.91659200
vt 0.97018300 0.06718900
vt 0.42756700 0.86107500
vt 0.97023900 0.07182600
vt 0.92490400 0.91257900
vt 0.96565700 0.07139900
vt 0.42360500 0.86558500
vt 0.96546100 0.06787500
vt 0.22261800 0.96856700
vt 0.40077900 0.86478600
vt 0.29429900 0.97180600
vt 0.96013900 0.06867600
vt 0.41892700 0.86915700
vt 0.39589200 0.87382800
vt 0.93652100 0.06794100
vt 0.57311400 0.87143600
vt 0.95450200 0.07104500
vt 0.95947800 0.07293400
vt 0.56804800 0.86917500
vt 0.29424100 0.98136000
vt 0.39301000 0.87224800
vt 0.29429900 0.97625400
vt 0.39725600 0.86891900
vt 0.95460500 0.06953000
vt 0.41386500 0.87150000
vt 0.95140800 0.06995000
vt 0.93643700 0.06871400
vt 0.59026100 0.87356300
vt 0.59247900 0.87185700
vt 0.29103600 0.98250000
vt 0.93148700 0.06857800
vt 0.59488700 0.87293400
vt 0.29267700 0.98443000
vt 0.93148700 0.06857800
vt 0.93218400 0.06786000
vt 0.93218400 0.06786000
vt 0.93218400 0.06786000
vt 0.93218400 0.06786000
vt 0.29405200 0.98420000
vt 0.39059600 0.87340300
vt 0.93139500 0.06718900
vt 0.93139500 0.06718900
vt 0.28780800 0.97850800
vt 0.58776000 0.86848800
vt 0.29094000 0.97701800
vt 0.21794100 0.96938200
vt 0.28949400 0.97283800
vt 0.40339900 0.85994600
vt 0.22366900 0.96425900
f 1/1/1 2/2/2 14/14/14
f 12/12/12 2/2/2 1/1/1
f 4/4/4 1/1/1 5/5/5
f 12/12/12 1/1/1 4/4/4
f 5/5/5 1/1/1 11/11/11
f 14/14/14 8/8/8 1/1/1
f 1/1/1 8/8/8 11/11/11
f 13/13/13 15/15/15 17/17/17
f 13/13/13 18/18/18 15/15/15
f 13/13/13 16/16/16 18/18/18
f 16/16/16 13/13/13 3/3/3
f 13/13/13 17/17/17 9/9/9
f 18/18/18 22/22/22 15/15/15
f 16/16/16 19/19/19 18/18/18
f 18/18/18 19/19/19 23/23/23
f 18/18/18 20/20/20 22/22/22
f 18/18/18 23/23/23 20/20/20
f 23/23/23 28/28/28 20/20/20
f 19/19/19 26/26/26 23/23/23
f 30/30/30 24/24/24 27/27/27
f 29/29/29 24/24/24 30/30/30
f 31/31/31 39/39/39 30/30/30
f 31/31/31 30/30/30 35/35/35
f 27/27/27 35/35/35 30/30/30
f 41/41/41 30/30/30 36/36/36
f 36/36/36 30/30/30 38/38/38
f 41/41/41 29/29/29 30/30/30
f 30/30/30 39/39/39 38/38/38
f 41/41/41 36/36/36 43/43/43
f 29/29/29 41/41/41 21/21/21
f 41/41/41 43/43/43 48/48/48
f 41/41/41 46/46/46 21/21/21
f 46/46/46 41/41/41 48/48/48
f 47/47/47 49/49/49 52/52/52
f 51/51/51 49/49/49 47/47/47
f 43/43/43 50/50/50 48/48/48
f 45/45/45 47/47/47 52/52/52
f 52/52/52 49/49/49 10/10/10
f 52/52/52 17/17/17 45/45/45
f 52/52/52 9/9/9 17/17/17
f 10/10/10 9/9/9 52/52/52
f 49/49/49 51/51/51 54/54/54
f 51/51/51 56/56/56 54/54/54
f 43/43/43 60/60/60 50/50/50
f 59/59/59 56/56/56 51/51/51
f 58/58/58 64/64/64 57/57/57
f 66/66/66 63/63/63 60/60/60
f 66/66/66 60/60/60 43/43/43
f 6/6/6 68/68/68 65/65/65
f 42/42/42 6/6/6 65/65/65
f 67/67/67 70/70/70 62/62/62
f 55/55/55 69/69/69 5/5/5
f 69/69/69 55/55/55 61/61/61
f 53/53/53 55/55/55 5/5/5
f 11/11/11 53/53/53 5/5/5
f 49/49/49 54/54/54 10/10/10
f 15/15/15 45/45/45 17/17/17
f 15/15/15 22/22/22 45/45/45
f 71/71/71 7/7/7 44/44/44
f 73/73/73 71/71/71 44/44/44
f 36/36/36 72/72/72 43/43/43
f 76/76/76 78/78/78 74/74/74
f 75/75/75 72/72/72 36/36/36
f 71/71/71 73/73/73 79/79/79
f 82/82/82 80/80/80 79/79/79
f 79/79/79 80/80/80 71/71/71
f 82/82/82 79/79/79 77/77/77
f 84/84/84 82/82/82 83/83/83
f 83/83/83 82/82/82 77/77/77
f 84/84/84 80/80/80 82/82/82
f 91/91/91 87/87/87 85/85/85
f 85/85/85 87/87/87 4/4/4
f 88/88/88 85/85/85 4/4/4
f 81/81/81 85/85/85 88/88/88
f 84/84/84 83/83/83 90/90/90
f 90/90/90 92/92/92 86/86/86
f 90/90/90 83/83/83 92/92/92
f 93/93/93 92/92/92 95/95/95
f 93/93/93 86/86/86 92/92/92
f 97/97/97 92/92/92 83/83/83
f 97/97/97 95/95/95 92/92/92
f 77/77/77 97/97/97 83/83/83
f 94/94/94 96/96/96 75/75/75
f 94/94/94 75/75/75 36/36/36
f 38/38/38 94/94/94 36/36/36
f 93/93/93 95/95/95 37/37/37
f 93/93/93 98/98/98 102/102/102
f 40/40/40 98/98/98 93/93/93
f 93/93/93 100/100/100 86/86/86
f 93/93/93 102/102/102 100/100/100
f 40/40/40 93/93/93 37/37/37
f 107/107/107 102/102/102 98/98/98
f 105/105/105 12/12/12 101/101/101
f 101/101/101 12/12/12 99/99/99
f 107/107/107 103/103/103 102/102/102
f 40/40/40 33/33/33 107/107/107
f 106/106/106 32/32/32 34/34/34
f 40/40/40 107/107/107 98/98/98
f 110/110/110 104/104/104 106/106/106
f 110/110/110 106/106/106 108/108/108
f 106/106/106 34/34/34 108/108/108
f 105/105/105 109/109/109 12/12/12
f 12/12/12 109/109/109 112/112/112
f 110/110/110 108/108/108 114/114/114
f 112/112/112 109/109/109 115/115/115
f 34/34/34 114/114/114 108/108/108
f 115/115/115 116/116/116 123/123/123
f 115/115/115 127/127/127 116/116/116
f 114/114/114 119/119/119 126/126/126
f 119/119/119 114/114/114 120/120/120
f 34/34/34 120/120/120 114/114/114
f 115/115/115 123/123/123 125/125/125
f 125/125/125 112/112/112 115/115/115
f 119/119/119 128/128/128 126/126/126
f 126/126/126 128/128/128 117/117/117
f 128/128/128 119/119/119 129/129/129
f 129/129/129 117/117/117 128/128/128
f 131/131/131 130/130/130 121/121/121
f 130/130/130 131/131/131 134/134/134
f 129/129/129 133/133/133 138/138/138
f 139/139/139 117/117/117 129/129/129
f 118/118/118 121/121/121 130/130/130
f 140/140/140 136/136/136 143/143/143
f 137/137/137 144/144/144 117/117/117
f 116/116/116 142/142/142 123/123/123
f 122/122/122 141/141/141 132/132/132
f 132/132/132 141/141/141 135/135/135
f 132/132/132 145/145/145 147/147/147
f 121/121/121 146/146/146 131/131/131
f 147/147/147 122/122/122 132/132/132
f 147/147/147 124/124/124 122/122/122
f 149/149/149 147/147/147 145/145/145
f 113/113/113 147/147/147 149/149/149
f 113/113/113 124/124/124 147/147/147
f 19/19/19 148/148/148 26/26/26
f 149/149/149 145/145/145 25/25/25
f 111/111/111 148/148/148 19/19/19
f 27/27/27 146/146/146 121/121/121
f 121/121/121 35/35/35 27/27/27
f 12/12/12 112/112/112 150/150/150
f 111/111/111 19/19/19 151/151/151
f 16/16/16 3/3/3 151/151/151
f 2/2/2 12/12/12 150/150/150
f 16/16/16 151/151/151 19/19/19
f 87/87/87 99/99/99 4/4/4
f 4/4/4 99/99/99 12/12/12
f 80/80/80 89/89/89 71/71/71
f 71/71/71 89/89/89 7/7/7
f 88/88/88 4/4/4 5/5/5
f 28/28/28 22/22/22 20/20/20

