# ('FARMS composite mesh',)
mtllib link_body_08_composite.mtl

o link_body_08
usemtl link_body_08_composite
v -1.68646300 7.96166400 5.52943800
v -1.68646300 7.96166400 5.52943800
v -1.68646300 7.96166400 5.52943800
v -4.37685900 6.36007100 5.53022400
v -4.37685900 6.36007100 5.53022400
v -2.11187800 6.64054400 6.87486100
v -2.11187800 6.64054400 6.87486100
v -1.75351400 8.85918900 3.81320900
v 2.10629200 6.23477700 6.74163300
v 2.10629200 6.23477700 6.74163300
v 2.10629200 6.23477700 6.74163300
v 1.82258300 7.18258900 5.57101500
v 1.82258300 7.18258900 5.57101500
v 1.82258300 7.18258900 5.57101500
v -3.54080300 8.10932000 3.87936100
v -3.54080300 8.10932000 3.87936100
v -5.86743600 5.91227400 3.75130200
v -5.14813000 7.54307300 1.95135700
v -3.87452300 8.80821100 0.73598200
v -3.87452300 8.80821100 0.73598200
v -1.41776500 9.74210800 0.65968400
v -0.19799800 9.68091500 -1.95145700
v 1.58617100 8.99064200 0.11682800
v 1.58617100 8.99064200 0.11682800
v -2.29597200 9.34282300 -2.02609700
v -2.29597200 9.34282300 -2.02609700
v 2.77862300 9.16488900 -1.90558500
v 2.77862300 9.16488900 -1.90558500
v 1.05984700 8.44527000 2.44668500
v 1.05984700 8.44527000 2.44668500
v -0.24625400 6.67305800 4.36234900
v -0.24625400 6.67305800 4.36234900
v -0.34490800 7.81383000 1.01512000
v -0.34490800 7.81383000 1.01512000
v -1.54049000 6.60510200 0.93662400
v -1.54049000 6.60510200 0.93662400
v 0.58259000 8.34543400 -1.75966200
v -1.78792600 6.06452300 -1.87010100
v -1.78792600 6.06452300 -1.87010100
v -2.92700700 4.35230400 -0.00000000
v -0.43375600 6.83716600 -3.72457200
v -0.43375600 6.83716600 -3.72457200
v -3.26958400 2.87402100 -1.87010400
v -2.25925700 4.28905200 -3.66188100
v -2.19663500 2.16670000 -5.30430700
v -2.19663500 2.16670000 -5.30430700
v -3.13883300 1.01725800 -3.66188000
v -0.95060600 4.99692800 -5.34034500
v -0.95060600 4.99692800 -5.34034500
v -0.95060600 4.99692800 -5.34034500
v 1.06900600 7.47222900 -4.76157400
v 1.06900600 7.47222900 -4.76157400
v -1.59938500 1.37353800 -6.46341200
v -1.59938500 1.37353800 -6.46341200
v -1.59938500 1.37353800 -6.46341200
v -1.59938500 1.37353800 -6.46341200
v 0.23936700 5.14654400 -6.48941400
v 0.23936700 5.14654400 -6.48941400
v 0.23936700 5.14654400 -6.48941400
v 0.23936700 5.14654400 -6.48941400
v -4.73919900 4.90604800 -6.41151300
v -4.73919900 4.90604800 -6.41151300
v -2.29761200 7.12881200 -6.20465800
v -2.29761200 7.12881200 -6.20465800
v 2.06524700 6.79391400 -6.09755800
v 2.06524700 6.79391400 -6.09755800
v 2.06524700 6.79391400 -6.09755800
v -1.12684500 8.04559400 -5.60625900
v -1.12684500 8.04559400 -5.60625900
v 3.16549800 7.90499400 -5.14300100
v 3.16549800 7.90499400 -5.14300100
v 3.16549800 7.90499400 -5.14300100
v 0.00000400 9.11635200 -3.86673900
v 3.42078900 8.70611800 -3.67432800
v 3.42078900 8.70611800 -3.67432800
v -2.06219600 8.82248400 -3.84728500
v -2.06219600 8.82248400 -3.84728500
v -4.74555200 7.19257000 -3.81285700
v -3.16825800 6.78937200 -6.13351600
v -3.16825800 6.78937200 -6.13351600
v -3.16825800 6.78937200 -6.13351600
v -5.83344500 5.18935900 -4.84566800
v -6.57601000 2.31850200 -5.57163300
v -7.12803500 4.69116500 -1.87188600
v -7.26809200 2.73422100 -3.87813200
v -5.14813000 7.54307300 -1.95136000
v -5.86885100 2.61285900 -6.38131500
v -5.86885100 2.61285900 -6.38131500
v -4.71371100 -4.95039400 -6.41130600
v -4.71371100 -4.95039400 -6.41130600
v -5.85798900 -2.63744800 -6.38021800
v -5.85798900 -2.63744800 -6.38021800
v -5.85798900 -2.63744800 -6.38021800
v -6.28302000 0.00000300 -6.34038800
v -6.28302000 0.00000300 -6.34038800
v -6.28302000 0.00000300 -6.34038800
v -6.83852800 -0.82793200 -5.52940000
v -6.83852800 -0.82793200 -5.52940000
v -6.03103900 -3.95059200 -5.53273300
v -6.03103900 -3.95059200 -5.53273300
v -6.03103900 -3.95059200 -5.53273300
v -7.62015800 -0.73896300 -3.81285800
v -7.00867300 -4.43493600 -3.01305200
v -7.00867300 -4.43493600 -3.01305200
v -5.93245400 -5.73278500 -3.87813100
v -5.93245400 -5.73278500 -3.87813100
v -6.31059500 -6.44029100 -0.00000100
v -6.31059500 -6.44029100 -0.00000100
v -5.22479600 -7.47408900 -1.87188700
v -7.23370400 -4.79531700 1.07378400
v -7.23370400 -4.79531700 1.07378400
v -7.81272400 -2.66534100 -1.94720800
v -8.06800000 1.12530600 -1.94720900
v -8.22876300 -1.14772900 0.00000100
v -7.96839800 2.71845100 0.00000000
v -8.08147100 1.06072900 1.87188900
v -7.81272400 -2.66534000 1.94720700
v -6.55946600 -3.83652400 4.77577700
v -6.55946600 -3.83652400 4.77577700
v -6.55946600 -3.83652400 4.77577700
v -7.62015800 -0.73896600 3.81285600
v -7.27576700 2.81661600 3.81285600
v -6.82889600 -0.95248100 5.52299200
v -6.82889600 -0.95248100 5.52299200
v -6.61282600 2.25598800 5.52299300
v -5.10607900 4.37305400 6.52739400
v -5.10607900 4.37305400 6.52739400
v -5.68921100 1.45733000 7.11188500
v -5.68921100 1.45733000 7.11188500
v -5.37437400 -2.75334500 7.09572200
v -5.37437400 -2.75334500 7.09572200
v -4.08724700 3.49553000 7.84292700
v -4.08724700 3.49553000 7.84292700
v -4.79567500 0.38423600 8.03450500
v -4.79567500 0.38423600 8.03450500
v -4.65074700 -1.85928000 7.94027900
v -4.65074700 -1.85928000 7.94027900
v 0.31413900 2.22585300 8.07092000
v 0.31413900 2.22585300 8.07092000
v -3.89245000 -3.83510200 7.79501000
v 0.10375400 -1.03978500 8.13484700
v 0.10375400 -1.03978500 8.13484700
v 0.67236700 -3.09617500 7.96518200
v 0.67236700 -3.09617500 7.96518200
v -1.06675600 -2.65217400 6.73594300
v -1.06675600 -2.65217400 6.73594300
v -1.32929100 1.23393000 6.82056300
v -1.32929100 1.23393000 6.82056300
v -2.82331200 0.93917300 4.56643900
v 0.22890700 4.83552800 6.79547700
v 0.22890700 4.83552800 6.79547700
v 0.22890700 4.83552800 6.79547700
v -2.11465900 2.28206000 5.39605100
v -1.01376600 4.96887700 5.26228500
v -2.25925500 4.28905300 3.66188100
v -2.72381100 4.42249300 1.87408700
v -3.71699500 1.03770200 1.20795600
v -3.74857300 -1.10229800 -0.00000100
v -3.38962100 -1.06709600 2.93943200
v -3.47557200 -0.74546300 -2.71687600
v -3.34118200 -2.62307700 -1.79776600
v -2.31466800 -4.16952100 -3.66840400
v -2.31466800 -4.16952100 -3.66840400
v -2.42796600 -0.87186200 -5.26228500
v -2.42796600 -0.87186200 -5.26228500
v -1.36748700 -2.13778400 -6.46534300
v -1.36748700 -2.13778400 -6.46534300
v -1.36748700 -2.13778400 -6.46534300
v -1.36748700 -2.13778400 -6.46534300
v -1.62355900 -3.78453900 -5.35102500
v -1.62355900 -3.78453900 -5.35102500
v -1.62355900 -3.78453900 -5.35102500
v -0.04859400 -4.74583900 -6.49594400
v -0.04859400 -4.74583900 -6.49594400
v -0.04859400 -4.74583900 -6.49594400
v -0.04859400 -4.74583900 -6.49594400
v 0.30672700 -5.83836900 -5.97025800
v 0.30672700 -5.83836900 -5.97025800
v 0.30672700 -5.83836900 -5.97025800
v -0.53857600 -6.73394200 -3.72457200
v -1.96150100 -5.81072500 -1.87010200
v -1.96150100 -5.81072500 -1.87010200
v 0.49610700 -8.30180100 -1.82756400
v 1.35362500 -8.11419000 -3.63793200
v 3.36058000 -8.72533500 -3.63277900
v 3.36058000 -8.72533500 -3.63277900
v 2.07553200 -6.90388600 -6.00770500
v 2.07553200 -6.90388600 -6.00770500
v 2.07553200 -6.90388600 -6.00770500
v 3.16794900 -7.90686000 -5.14091700
v 3.16794900 -7.90686000 -5.14091700
v 3.16794900 -7.90686000 -5.14091700
v -1.12603000 -8.04623100 -5.60561500
v -1.12603000 -8.04623100 -5.60561500
v 0.00000400 -9.11854300 -3.86455200
v -1.99176500 -8.87337100 -3.80656100
v -0.18963800 -9.66515000 -2.05077500
v -2.36200600 -9.34380000 -1.94793100
v -1.18163700 -9.78752500 0.27499400
v -3.77640300 -8.84800400 0.00000000
v -4.23376800 -7.60354000 -3.78792300
v -4.33795300 -6.34297300 -5.58022400
v -4.33795300 -6.34297300 -5.58022400
v -2.32058400 -7.15467000 -6.19181300
v -2.32058400 -7.15467000 -6.19181300
v -3.52249500 -6.20225300 -6.36166500
v -3.52249500 -6.20225300 -6.36166500
v -3.52249500 -6.20225300 -6.36166500
v 1.62286600 -6.77076100 -6.10009300
v 1.62286600 -6.77076100 -6.10009300
v 1.62286600 -6.77076100 -6.10009300
v -2.65789100 -9.13281600 2.09499300
v -5.16076100 -7.53063900 1.95135600
v -5.87432300 -5.78512100 3.94514400
v -5.87432300 -5.78512100 3.94514400
v -3.62616300 -8.14088700 3.68204100
v -1.67970300 -7.95143500 5.54653500
v -1.67970300 -7.95143500 5.54653500
v -4.39434200 -6.31188900 5.57163200
v -4.39434200 -6.31188900 5.57163200
v -1.75502300 -8.86234200 3.80620400
v 1.79047100 -7.20090600 5.53492500
v 1.79047100 -7.20090600 5.53492500
v 1.05713900 -8.44376800 2.44602100
v 1.05713900 -8.44376800 2.44602100
v -0.80318300 -7.24909000 1.87079700
v 1.59550900 -8.98195600 0.16065900
v 1.59550900 -8.98195600 0.16065900
v -0.47564700 -6.77017100 3.78893100
v -0.78429300 -7.48539000 -0.00000100
v -2.79546300 -4.64762300 -0.00000100
v -2.79546300 -4.64762300 -0.00000100
v -2.77070700 -4.32746800 1.79776300
v -2.77070700 -4.32746800 1.79776300
v -2.36813100 -4.12008700 3.60226100
v -2.36813100 -4.12008700 3.60226100
v -0.96146200 -5.00687200 5.31125200
v -0.96146200 -5.00687200 5.31125200
v -0.96146200 -5.00687200 5.31125200
v -2.11788200 -2.35524100 5.35009900
v 0.54157700 -5.82350800 6.26625800
v 0.54157700 -5.82350800 6.26625800
v 2.10337900 -6.23072200 6.74545700
v 2.10337900 -6.23072200 6.74545700
v 2.10337900 -6.23072200 6.74545700
v 2.10337900 -6.23072200 6.74545700
v 1.78036000 -4.87458500 7.60821800
v 1.78036000 -4.87458500 7.60821800
v -2.41400100 -6.27228200 7.12260200
v -2.41400100 -6.27228200 7.12260200
v -3.60828500 -5.53953500 7.01015900
v -3.60828500 -5.53953500 7.01015900
v 2.80455300 -9.16161800 -1.96404100
v 2.80455300 -9.16161800 -1.96404100
v 1.76435500 4.87226900 7.60661100
v 1.76435500 4.87226900 7.60661100
v -2.85545100 5.72330600 7.30147400
v -2.85545100 5.72330600 7.30147400
v -7.16176100 4.60476600 1.95135900
v -6.49492100 6.17076700 -0.00000200
vn 0.08947798 0.69636982 0.71208339
vn 0.03169247 0.87662971 0.48012076
vn -0.42533923 0.71476793 0.55515164
vn -0.51556683 0.56355557 0.64544246
vn -0.60512996 0.63645327 0.47827290
vn -0.42244960 0.70991796 0.56351825
vn -0.07352757 0.58676562 0.80641168
vn -0.06823988 0.93527119 0.34729112
vn 0.16737777 0.78567310 0.59556902
vn 0.08032986 0.56558487 0.82076846
vn 0.43783740 -0.61276632 -0.65788741
vn 0.20130125 0.83958927 0.50454698
vn 0.45523302 -0.63481442 -0.62431846
vn 0.47612366 -0.71334188 -0.51424666
vn -0.35023307 0.88499191 0.30679981
vn -0.56170022 0.71987592 0.40776405
vn -0.77176574 0.53349832 0.34605951
vn -0.69963451 0.69182700 0.17856921
vn -0.62670237 0.77908535 0.01643643
vn -0.34815122 0.92716961 0.13837353
vn -0.05889261 0.98771563 0.14473938
vn 0.02277298 0.99067986 -0.13429374
vn 0.27786106 0.92593386 0.25581188
vn 0.46275097 -0.88622104 0.02176739
vn -0.51725382 0.82460534 -0.22907319
vn -0.20105865 0.96627091 -0.16092221
vn 0.34044069 -0.90374787 0.25949937
vn 0.19181500 0.97897942 -0.06932744
vn 0.27830015 0.91588706 0.28930939
vn 0.53878579 -0.80407071 -0.25135666
vn 0.50224015 -0.73381290 -0.45746416
vn 0.72850775 -0.58252836 -0.36046799
vn 0.60952696 -0.79161285 -0.04273150
vn 0.69648670 -0.67269031 -0.24978795
vn 0.79527836 -0.58322676 -0.16546563
vn 0.70667069 -0.70374146 0.07324269
vn 0.51886712 -0.83576535 0.17964742
vn 0.84722088 -0.49539505 0.19183465
vn 0.68770563 -0.71403078 0.13122885
vn 0.92151993 -0.38815512 0.01168875
vn 0.76551893 -0.53981351 0.35011731
vn 0.61531194 -0.70603339 0.35058246
vn 0.95583898 -0.24633576 0.16028272
vn 0.85339931 -0.39821247 0.33635763
vn 0.73718735 -0.31695383 0.59673703
vn 0.88167168 -0.17763508 0.43715081
vn 0.93898983 -0.10585061 0.32725182
vn 0.59656050 -0.60896720 0.52275666
vn 0.68978715 -0.32416569 0.64738728
vn 0.78350387 -0.46129265 0.41633012
vn 0.43221173 -0.63204419 0.64320538
vn 0.43452478 -0.78331935 0.44452111
vn 0.87020107 -0.05948598 0.48909254
vn -0.01617974 0.00013814 -0.99986909
vn 0.77512439 0.05084516 0.62975944
vn 0.71879737 -0.32000185 0.61719459
vn 0.43221173 -0.63204419 0.64320538
vn 0.01000815 0.11790803 -0.99297409
vn 0.59051576 -0.60633406 0.53258815
vn 0.67763179 -0.32569588 0.65934615
vn -0.67279411 0.48572840 -0.55804659
vn -0.02786273 0.04278985 -0.99869550
vn -0.01197135 0.23810987 -0.97116444
vn -0.34706589 0.78156344 -0.51836652
vn 0.43221173 -0.63204419 0.64320538
vn 0.26470880 -0.76572348 0.58617131
vn 0.08376842 0.47568179 -0.87561960
vn 0.06731179 0.50858456 -0.85837688
vn -0.17622918 0.83128801 -0.52716555
vn 0.26063593 -0.83401220 0.48630502
vn 0.11731353 0.84913553 -0.51498192
vn 0.10591858 0.58556934 -0.80367270
vn 0.01268741 0.91485073 -0.40359282
vn 0.29130703 -0.88188124 0.37070971
vn 0.14335801 0.91832851 -0.36894611
vn -0.18585136 0.89624205 -0.40275235
vn -0.48887731 0.79737353 -0.35382825
vn -0.62521754 0.68829900 -0.36789606
vn -0.19287896 0.29884364 -0.93460697
vn -0.55227488 0.67028421 -0.49569299
vn -0.34431401 0.77928834 -0.52360056
vn -0.75990424 0.48007191 -0.43826534
vn -0.83983661 0.19330731 -0.50725412
vn -0.89320675 0.41652227 -0.16938391
vn -0.91486416 0.23593585 -0.32765507
vn -0.68232148 0.70952753 -0.17609111
vn -0.03050500 -0.00011675 -0.99953461
vn -0.76586257 0.26148046 -0.58743723
vn -0.67338177 -0.47252511 -0.56857454
vn -0.01831943 -0.01596024 -0.99970479
vn -0.83589331 -0.21561497 -0.50476981
vn -0.03149543 -0.00027400 -0.99950386
vn -0.71849850 -0.24836107 -0.64967429
vn -0.09580022 -0.00040617 -0.99540050
vn -0.83857316 0.07303648 -0.53987103
vn -0.76205995 -0.11317972 -0.63753822
vn -0.89502065 -0.07428581 -0.43979502
vn -0.76205995 -0.11317972 -0.63753822
vn -0.71519670 -0.49637663 -0.49204056
vn -0.86599074 -0.27266572 -0.41918188
vn -0.69361864 -0.37167128 -0.61705238
vn -0.94198768 -0.06966037 -0.32833923
vn -0.81656853 -0.54772641 -0.18224055
vn -0.90124945 -0.33275800 -0.27752756
vn -0.74808371 -0.57259310 -0.33542199
vn -0.81887899 -0.41419346 -0.39734239
vn -0.77811755 -0.62796498 0.01389497
vn -0.89213805 -0.44307062 -0.08819364
vn -0.69193539 -0.70158269 -0.17031486
vn -0.81091345 -0.55711267 0.17901074
vn -0.92932032 -0.36424516 0.06073881
vn -0.96101903 -0.22611830 -0.15910038
vn -0.98210963 0.09370270 -0.16334160
vn -0.99556260 -0.09409889 -0.00071114
vn -0.97171678 0.23614810 -0.00075706
vn -0.98345805 0.08793810 0.15835765
vn -0.95975676 -0.22463453 0.16854167
vn -0.72329324 -0.46998010 0.50593043
vn -0.88814608 -0.28613062 0.35961898
vn -0.70353893 -0.43458073 0.56229224
vn -0.94485205 -0.05699395 0.32250008
vn -0.90787493 0.25169013 0.33528376
vn -0.76601410 -0.05973261 0.64004251
vn -0.88724097 -0.07969925 0.45436934
vn -0.85268233 0.20677717 0.47976665
vn -0.58096359 0.42248473 0.69569244
vn -0.78395060 0.38896141 0.48387031
vn -0.68147899 0.10108272 0.72482320
vn -0.81783176 0.15611978 0.55387528
vn -0.82652955 -0.21228427 0.52132935
vn -0.68299704 -0.26713239 0.67982007
vn -0.02249162 0.14006553 0.98988675
vn -0.60163970 0.33541916 0.72493011
vn -0.70565793 0.01351722 0.70842373
vn -0.02422320 0.00223055 0.99970409
vn -0.67189980 -0.14270619 0.72676379
vn 0.09822299 -0.03542461 0.99453373
vn 0.63237224 -0.24004994 -0.73653335
vn -0.01085466 0.10548961 0.99436116
vn -0.32397240 -0.28560622 0.90192626
vn 0.67256187 0.08689487 -0.73492164
vn -0.02385571 -0.04004648 0.99891300
vn -0.01222369 -0.15208628 0.98829163
vn 0.57556083 0.35185254 -0.73819342
vn 0.64473153 0.27695167 -0.71247388
vn 0.80705172 0.19712759 -0.55660420
vn 0.80180614 -0.10693576 -0.58793848
vn 0.67591074 -0.10012265 -0.73015075
vn 0.90829368 -0.07807045 -0.41098369
vn 0.48549889 -0.45591730 -0.74594252
vn 0.68893720 -0.40902414 -0.59838515
vn 0.49839985 -0.64223199 -0.58235355
vn 0.82223159 -0.24871818 -0.51193211
vn 0.72648587 -0.46130216 -0.50933153
vn 0.85518684 -0.39732723 -0.33284611
vn 0.90111099 -0.39180038 -0.18571875
vn 0.98831040 -0.11550625 -0.09950308
vn 0.99488243 0.10102102 -0.00192368
vn 0.95864930 0.11258637 -0.26137298
vn 0.96899949 0.06306805 0.23887740
vn 0.95333850 0.25547734 0.16086343
vn 0.76086749 0.51842084 0.39028258
vn 0.90952734 0.28906902 0.29866220
vn 0.89621446 0.10395990 0.43126787
vn 0.77512439 0.05084516 0.62975944
vn -0.01668609 0.00064208 -0.99986057
vn 0.67931731 0.33587506 0.65246911
vn 0.77512439 0.05084516 0.62975944
vn 0.83362406 0.21472152 0.50888662
vn 0.86701425 0.22591608 0.44412636
vn 0.67931731 0.33587506 0.65246911
vn 0.72458657 0.50989653 0.46365918
vn 0.01157871 -0.09240740 -0.99565396
vn 0.42915528 0.50114465 0.75145178
vn 0.67931731 0.33587506 0.65246911
vn 0.68826483 0.48390582 0.54048745
vn 0.61020864 0.61157368 0.50361002
vn 0.42915528 0.50114465 0.75145178
vn 0.32045693 0.55885269 -0.76484706
vn 0.65788270 0.65533568 0.37111386
vn 0.77138021 0.61264671 0.17215276
vn 0.90590099 0.38825522 0.16911916
vn 0.52031428 0.83420872 0.18267144
vn 0.39443357 0.83780645 0.37749505
vn 0.29165388 0.88391074 0.36556782
vn 0.14508368 -0.91886933 -0.36691946
vn 0.32045693 0.55885269 -0.76484706
vn 0.09488294 -0.54795621 -0.83110843
vn 0.40393188 0.75897677 0.51067924
vn 0.10616552 -0.58146051 -0.80661798
vn 0.30143019 0.82519128 0.47770200
vn 0.11949203 -0.85103699 -0.51132934
vn 0.07089578 -0.50207578 -0.86191281
vn -0.16967926 -0.83300726 -0.52660028
vn 0.01380804 -0.91444744 -0.40446907
vn -0.29269401 -0.87485283 -0.38595691
vn 0.01657075 -0.98730523 -0.15796768
vn -0.34013013 -0.92158862 -0.18704522
vn -0.02554375 -0.99317589 0.11379445
vn -0.52385158 -0.85180953 0.00022163
vn -0.56226302 -0.74097740 -0.36716861
vn -0.57323025 -0.65595951 -0.49104399
vn -0.59632634 -0.52388936 -0.60822269
vn -0.41369872 -0.74961591 -0.51665207
vn 0.03757525 -0.23770783 -0.97060965
vn -0.53472029 -0.53476252 -0.65429600
vn -0.00175582 -0.08765529 -0.99614932
vn -0.44891534 -0.67162531 -0.58940178
vn 0.32045693 0.55885269 -0.76484706
vn 0.42915528 0.50114465 0.75145178
vn 0.05607859 -0.35289160 -0.93398218
vn -0.35039570 -0.91510398 0.19951831
vn -0.68825096 -0.70302582 0.17906790
vn -0.72921300 -0.57199187 0.37559779
vn -0.86804725 -0.41884602 0.26657454
vn -0.50466478 -0.78185406 0.36608426
vn -0.15548020 -0.83922559 0.52108186
vn 0.06809294 -0.66679033 0.74212803
vn -0.55705058 -0.66335414 0.49965581
vn -0.68328495 -0.43828853 0.58397332
vn -0.05017433 -0.92717266 0.37125920
vn 0.20516076 -0.84199041 0.49896013
vn 0.45697322 0.72326423 -0.51774929
vn 0.53897804 0.80992750 -0.23134414
vn 0.27800771 -0.91571604 0.29013073
vn 0.70296065 0.68911489 -0.17597443
vn 0.47899468 0.87776601 0.00953546
vn 0.27903295 -0.92570225 0.25537415
vn 0.64692901 0.66364604 -0.37557528
vn 0.68912454 0.72461771 0.00604487
vn 0.94800178 0.31519199 0.04412070
vn 0.82110588 0.56749294 -0.06113020
vn 0.95742063 0.25220947 -0.14048528
vn 0.81827687 0.54661017 -0.17787719
vn 0.88973693 0.28598355 -0.35578308
vn 0.79326709 0.53624827 -0.28838363
vn 0.70860535 0.56273775 -0.42568144
vn 0.79497216 0.35391875 -0.49270761
vn 0.63811238 0.41925930 -0.64578187
vn 0.84441926 0.18807343 -0.50158199
vn 0.51372725 0.67261052 -0.53261562
vn 0.52091257 0.46708248 -0.71448167
vn 0.17280658 -0.78989308 0.58839342
vn 0.07373963 -0.56639838 0.82082601
vn 0.37156034 0.67521837 -0.63719940
vn 0.37298498 0.55965273 -0.74004799
vn 0.44172963 0.48798158 -0.75282728
vn 0.03458024 -0.38518968 0.92218931
vn -0.43684897 -0.69139634 0.57544250
vn -0.03156808 -0.45744841 0.88867565
vn -0.45811115 -0.65433785 0.60164455
vn -0.51391481 -0.44446195 0.73372007
vn 0.19221386 -0.97842492 -0.07575298
vn 0.35021326 0.89795243 0.26651849
vn 0.41748005 -0.48521158 -0.76829691
vn 0.03458388 0.37297155 0.92719802
vn -0.49453894 0.57322140 0.65333641
vn -0.00583414 0.30929017 0.95094982
vn -0.89867559 0.40513207 0.16807791
vn -0.82921992 0.55892164 0.00095939
vt 0.32833100 0.43834200
vt 0.23418100 0.68602900
vt 0.00901400 0.35566300
vt 0.31045600 0.42946900
vt 0.00869000 0.37085100
vt 0.00157300 0.36350100
vt 0.32547500 0.43096600
vt 0.23149500 0.69554000
vt 0.26149800 0.68099400
vt 0.35350800 0.42873200
vt 0.49864400 0.67539700
vt 0.25755400 0.68739300
vt 0.50058900 0.68075600
vt 0.62940900 0.22777500
vt 0.22176100 0.69428200
vt 0.01786100 0.35976000
vt 0.01833600 0.37702800
vt 0.02832100 0.36684500
vt 0.03517300 0.35707500
vt 0.21729000 0.71153600
vt 0.23085500 0.71317800
vt 0.23768300 0.72816900
vt 0.25082200 0.71753500
vt 0.65828500 0.21992600
vt 0.05067300 0.35022600
vt 0.22519300 0.72757100
vt 0.67077300 0.22544300
vt 0.25724300 0.72927800
vt 0.24935800 0.70438100
vt 0.64508200 0.21915200
vt 0.63338400 0.21308200
vt 0.24223600 0.53263500
vt 0.65115900 0.20856100
vt 0.22355500 0.52673400
vt 0.22256000 0.53444800
vt 0.65029700 0.20092100
vt 0.66730200 0.21146200
vt 0.20702000 0.53786100
vt 0.66532300 0.19634200
vt 0.21687600 0.54812900
vt 0.19752800 0.53255300
vt 0.67697600 0.20298200
vt 0.20658000 0.55669700
vt 0.19712100 0.54816900
vt 0.97196900 0.49471400
vt 0.18843100 0.55988800
vt 0.19706900 0.56690900
vt 0.68548100 0.19819900
vt 0.98967900 0.49547900
vt 0.18858000 0.54324300
vt 0.19813200 0.98572900
vt 0.68441800 0.21151000
vt 0.18253600 0.56379400
vt 0.10661800 0.40246200
vt 0.98974300 0.73457200
vt 0.97023900 0.48907400
vt 0.19813200 0.97180600
vt 0.09439700 0.42335400
vt 0.69323200 0.20466100
vt 0.99444300 0.48907400
vt 0.07482000 0.37920100
vt 0.12747500 0.42201600
vt 0.11123800 0.43430200
vt 0.22787500 0.75049100
vt 0.20570100 0.98494300
vt 0.69311700 0.21666300
vt 0.08224400 0.43243700
vt 0.10342800 0.43932000
vt 0.23367800 0.74780200
vt 0.68912300 0.22465900
vt 0.26089400 0.74725100
vt 0.07488400 0.43849600
vt 0.23931300 0.73880000
vt 0.68130800 0.22777500
vt 0.26149800 0.73931600
vt 0.22699500 0.73770200
vt 0.06081800 0.35226300
vt 0.06031000 0.36757700
vt 0.11702000 0.43241600
vt 0.07341700 0.36550600
vt 0.22309800 0.74966500
vt 0.06597100 0.38061900
vt 0.07003200 0.39717600
vt 0.04934000 0.38654100
vt 0.06053000 0.39686900
vt 0.04992500 0.36684500
vt 0.13498200 0.40931700
vt 0.07460500 0.39382800
vt 0.12731500 0.36744400
vt 0.12731500 0.36744400
vt 0.07488400 0.42052800
vt 0.13491500 0.38024800
vt 0.13491500 0.38024800
vt 0.13773400 0.39484600
vt 0.07445700 0.40821300
vt 0.13773400 0.39484600
vt 0.06992800 0.41388000
vt 0.14138600 0.39018500
vt 0.06419500 0.67221700
vt 0.07023700 0.42766500
vt 0.13602400 0.37289600
vt 0.06030300 0.41547100
vt 0.06839000 0.65755900
vt 0.05616700 0.43268700
vt 0.06179600 0.66364900
vt 0.06118900 0.43648000
vt 0.06086700 0.64220900
vt 0.03970200 0.44107000
vt 0.05511200 0.65375900
vt 0.06634900 0.63505600
vt 0.03352900 0.43511000
vt 0.05005000 0.42578100
vt 0.04980700 0.40715100
vt 0.03912600 0.41914300
vt 0.03895700 0.39878100
vt 0.02866700 0.40751500
vt 0.02849200 0.42578100
vt 0.05899500 0.61527600
vt 0.01308600 0.42846600
vt 0.29598600 0.37303700
vt 0.01808900 0.41547100
vt 0.01794900 0.39647000
vt 0.29417400 0.38897400
vt 0.00875300 0.41448900
vt 0.00861300 0.39759000
vt 0.30559100 0.41842100
vt 0.00316700 0.38287300
vt 0.30170700 0.40224900
vt -0.00000000 0.39924100
vt 0.00036400 0.41985300
vt 0.30380600 0.37893500
vt 0.31233100 0.41350600
vt 0.31233100 0.41350600
vt 0.30762400 0.39626800
vt 0.30762400 0.39626800
vt 0.30859300 0.38385000
vt 0.30859300 0.38385000
vt 0.51048000 0.65306800
vt 0.34157500 0.40647300
vt 0.31363800 0.37291700
vt 0.51187000 0.63498100
vt 0.34018000 0.38838700
vt 0.34396600 0.37700800
vt 0.50809700 0.62361300
vt 0.51971500 0.62618400
vt 0.25622000 0.58433900
vt 0.25593300 0.56325000
vt 0.52146100 0.64769100
vt 0.24262300 0.56639300
vt 0.51111400 0.66763900
vt 0.25622000 0.54209200
vt 0.62121500 0.21918600
vt 0.24743400 0.55832200
vt 0.24697500 0.54260200
vt 0.23748200 0.54758100
vt 0.22732000 0.54741100
vt 0.22354300 0.56692600
vt 0.21719100 0.57879100
vt 0.23360800 0.57803900
vt 0.20233500 0.57680600
vt 0.20776800 0.58691200
vt 0.39793100 0.73057800
vt 0.19833500 0.59462200
vt 0.18898000 0.57676200
vt 0.97773300 0.74107500
vt 0.10508100 0.38302100
vt 0.98713100 0.93489800
vt 0.97023900 0.73457200
vt 0.18320300 0.58284900
vt 0.18943400 0.59202300
vt 0.98019000 0.94113100
vt 0.39943700 0.74057000
vt 0.09632100 0.36858400
vt 0.09046400 0.98759500
vt 0.97023900 0.93489800
vt 0.40946700 0.74920000
vt 0.41428400 0.74709700
vt 0.08786600 0.98162400
vt 0.09393500 0.36248500
vt 0.41345300 0.73395100
vt 0.40526100 0.72171000
vt 0.20871400 0.60316300
vt 0.42491800 0.72550100
vt 0.42765400 0.73646300
vt 0.44103100 0.73941300
vt 0.00000000 0.67226700
vt 0.08218500 0.35658900
vt 0.08218500 0.35658900
vt 0.42700200 0.75003700
vt 0.07488400 0.35095200
vt 0.43655100 0.74711600
vt 0.00270000 0.68014600
vt 0.10344000 0.35022600
vt 0.03124500 0.67841400
vt 0.02217200 0.67025000
vt 0.03524500 0.66788400
vt 0.02177800 0.66025700
vt 0.03601300 0.65744700
vt 0.02630400 0.64656700
vt 0.04375300 0.64526800
vt 0.05019700 0.66526100
vt 0.05264500 0.67468900
vt 0.12477900 0.35965400
vt 0.03975800 0.68023100
vt 0.11140500 0.35521900
vt 0.11939900 0.36050800
vt 0.11939900 0.36050800
vt 0.04798000 0.67975000
vt 0.08519700 0.35733500
vt 0.09046400 0.97180600
vt 0.08519700 0.35733500
vt 0.03458900 0.63499100
vt 0.05145700 0.63292300
vt 0.05480800 0.62092600
vt 0.01789300 0.43659400
vt 0.03980400 0.62512600
vt 0.02549500 0.61683800
vt 0.32840000 0.35022600
vt 0.04361800 0.61362700
vt 0.31035900 0.35929900
vt 0.02727500 0.62647800
vt 0.00288000 0.62021900
vt 0.43948900 0.68730200
vt 0.43366500 0.70322600
vt 0.01004900 0.63664700
vt 0.41942400 0.70344000
vt 0.43523900 0.71645900
vt 0.00833500 0.64980300
vt 0.42280500 0.69343300
vt 0.41776200 0.71363100
vt 0.21832300 0.59738300
vt 0.40023300 0.71016900
vt 0.22819800 0.59546000
vt 0.40191900 0.70041700
vt 0.23836200 0.59381500
vt 0.40612700 0.69118900
vt 0.41837400 0.68413700
vt 0.24879200 0.59727700
vt 0.51908300 0.61328500
vt 0.24788200 0.58376800
vt 0.43018500 0.68128100
vt 0.50904700 0.60867600
vt 0.00000000 0.61370200
vt 0.35350800 0.35970700
vt 0.44103100 0.68099400
vt 0.49864400 0.60638000
vt 0.50075000 0.61380400
vt 0.35133900 0.36717800
vt 0.02932200 0.60712000
vt 0.32348200 0.35945300
vt 0.03740100 0.60638000
vt 0.31554700 0.36351400
vt 0.00215500 0.66267500
vt 0.44042700 0.72969800
vt 0.50087100 0.66776900
vt 0.35121800 0.42114900
vt 0.32052600 0.42586700
vt 0.32052600 0.42586700
vt 0.02817500 0.38706900
vt 0.03899400 0.37735300
f 16/16/16 5/5/5 3/3/3
f 5/5/5 6/6/6 3/3/3
f 7/7/7 10/10/10 1/1/1
f 15/15/15 2/2/2 8/8/8
f 2/2/2 12/12/12 8/8/8
f 2/2/2 9/9/9 12/12/12
f 5/5/5 16/16/16 17/17/17
f 17/17/17 16/16/16 18/18/18
f 16/16/16 19/19/19 18/18/18
f 21/21/21 15/15/15 8/8/8
f 21/21/21 20/20/20 15/15/15
f 21/21/21 8/8/8 29/29/29
f 21/21/21 22/22/22 26/26/26
f 28/28/28 22/22/22 21/21/21
f 21/21/21 26/26/26 20/20/20
f 29/29/29 23/23/23 21/21/21
f 21/21/21 23/23/23 28/28/28
f 30/30/30 31/31/31 33/33/33
f 31/31/31 30/30/30 14/14/14
f 8/8/8 12/12/12 29/29/29
f 33/33/33 24/24/24 30/30/30
f 39/39/39 33/33/33 36/36/36
f 34/34/34 32/32/32 35/35/35
f 39/39/39 37/37/37 33/33/33
f 37/37/37 24/24/24 33/33/33
f 43/43/43 38/38/38 40/40/40
f 38/38/38 35/35/35 40/40/40
f 42/42/42 37/37/37 39/39/39
f 44/44/44 41/41/41 38/38/38
f 44/44/44 38/38/38 43/43/43
f 47/47/47 44/44/44 43/43/43
f 46/46/46 44/44/44 47/47/47
f 50/50/50 44/44/44 46/46/46
f 50/50/50 41/41/41 44/44/44
f 42/42/42 48/48/48 52/52/52
f 49/49/49 45/45/45 56/56/56
f 52/52/52 48/48/48 59/59/59
f 49/49/49 56/56/56 60/60/60
f 62/62/62 58/58/58 54/54/54
f 58/58/58 62/62/62 63/63/63
f 63/63/63 67/67/67 58/58/58
f 57/57/57 65/65/65 51/51/51
f 68/68/68 67/67/67 63/63/63
f 68/68/68 72/72/72 67/67/67
f 70/70/70 52/52/52 66/66/66
f 73/73/73 71/71/71 69/69/69
f 75/75/75 71/71/71 73/73/73
f 52/52/52 70/70/70 74/74/74
f 52/52/52 74/74/74 27/27/27
f 28/28/28 75/75/75 22/22/22
f 22/22/22 75/75/75 73/73/73
f 73/73/73 76/76/76 22/22/22
f 76/76/76 73/73/73 69/69/69
f 78/78/78 25/25/25 77/77/77
f 80/80/80 78/78/78 77/77/77
f 69/69/69 81/81/81 76/76/76
f 26/26/26 22/22/22 76/76/76
f 62/62/62 79/79/79 63/63/63
f 69/69/69 64/64/64 81/81/81
f 61/61/61 82/82/82 80/80/80
f 80/80/80 82/82/82 78/78/78
f 88/88/88 82/82/82 61/61/61
f 88/88/88 83/83/83 82/82/82
f 85/85/85 82/82/82 83/83/83
f 82/82/82 86/86/86 78/78/78
f 82/82/82 84/84/84 86/86/86
f 84/84/84 82/82/82 85/85/85
f 90/90/90 87/87/87 62/62/62
f 90/90/90 92/92/92 87/87/87
f 83/83/83 88/88/88 95/95/95
f 87/87/87 92/92/92 94/94/94
f 96/96/96 93/93/93 98/98/98
f 97/97/97 83/83/83 95/95/95
f 100/100/100 97/97/97 91/91/91
f 104/104/104 97/97/97 100/100/100
f 102/102/102 83/83/83 97/97/97
f 104/104/104 102/102/102 97/97/97
f 106/106/106 104/104/104 100/100/100
f 105/105/105 109/109/109 103/103/103
f 104/104/104 108/108/108 111/111/111
f 109/109/109 107/107/107 103/103/103
f 104/104/104 112/112/112 102/102/102
f 104/104/104 111/111/111 112/112/112
f 112/112/112 113/113/113 102/102/102
f 112/112/112 114/114/114 113/113/113
f 112/112/112 111/111/111 114/114/114
f 113/113/113 114/114/114 115/115/115
f 116/116/116 115/115/115 114/114/114
f 117/117/117 114/114/114 111/111/111
f 117/117/117 116/116/116 114/114/114
f 119/119/119 121/121/121 117/117/117
f 111/111/111 119/119/119 117/117/117
f 117/117/117 121/121/121 116/116/116
f 119/119/119 124/124/124 121/121/121
f 121/121/121 122/122/122 116/116/116
f 121/121/121 125/125/125 122/122/122
f 121/121/121 124/124/124 125/125/125
f 129/129/129 125/125/125 124/124/124
f 122/122/122 125/125/125 127/127/127
f 129/129/129 127/127/127 125/125/125
f 134/134/134 128/128/128 131/131/131
f 131/131/131 128/128/128 123/123/123
f 128/128/128 133/133/133 126/126/126
f 128/128/128 134/134/134 133/133/133
f 140/140/140 135/135/135 137/137/137
f 134/134/134 131/131/131 136/136/136
f 132/132/132 135/135/135 139/139/139
f 135/135/135 142/142/142 139/139/139
f 135/135/135 140/140/140 142/142/142
f 148/148/148 138/138/138 141/141/141
f 140/140/140 143/143/143 142/142/142
f 141/141/141 144/144/144 145/145/145
f 148/148/148 141/141/141 145/145/145
f 149/149/149 147/147/147 146/146/146
f 153/153/153 147/147/147 149/149/149
f 150/150/150 138/138/138 148/148/148
f 153/153/153 151/151/151 147/147/147
f 153/153/153 154/154/154 151/151/151
f 155/155/155 154/154/154 153/153/153
f 149/149/149 155/155/155 153/153/153
f 156/156/156 155/155/155 149/149/149
f 35/35/35 32/32/32 155/155/155
f 155/155/155 32/32/32 154/154/154
f 35/35/35 155/155/155 156/156/156
f 40/40/40 156/156/156 157/157/157
f 35/35/35 156/156/156 40/40/40
f 156/156/156 149/149/149 157/157/157
f 160/160/160 43/43/43 157/157/157
f 43/43/43 40/40/40 157/157/157
f 157/157/157 149/149/149 159/159/159
f 158/158/158 157/157/157 159/159/159
f 160/160/160 157/157/157 158/158/158
f 161/161/161 160/160/160 158/158/158
f 160/160/160 161/161/161 163/163/163
f 47/47/47 43/43/43 160/160/160
f 164/164/164 47/47/47 160/160/160
f 164/164/164 160/160/160 163/163/163
f 46/46/46 47/47/47 164/164/164
f 169/169/169 164/164/164 170/170/170
f 55/55/55 165/165/165 168/168/168
f 164/164/164 163/163/163 170/170/170
f 46/46/46 164/164/164 53/53/53
f 172/172/172 162/162/162 180/180/180
f 172/172/172 177/177/177 176/176/176
f 167/167/167 171/171/171 175/175/175
f 172/172/172 180/180/180 177/177/177
f 180/180/180 181/181/181 183/183/183
f 162/162/162 181/181/181 180/180/180
f 184/184/184 180/180/180 183/183/183
f 184/184/184 177/177/177 180/180/180
f 185/185/185 184/184/184 183/183/183
f 191/191/191 184/184/184 185/185/185
f 184/184/184 189/189/189 177/177/177
f 191/191/191 189/189/189 184/184/184
f 193/193/193 188/188/188 190/190/190
f 195/195/195 194/194/194 192/192/192
f 195/195/195 192/192/192 186/186/186
f 195/195/195 196/196/196 194/194/194
f 195/195/195 198/198/198 196/196/196
f 195/195/195 197/197/197 198/198/198
f 197/197/197 195/195/195 186/186/186
f 198/198/198 197/197/197 199/199/199
f 200/200/200 198/198/198 199/199/199
f 198/198/198 109/109/109 201/201/201
f 198/198/198 200/200/200 109/109/109
f 198/198/198 201/201/201 196/196/196
f 201/201/201 202/202/202 204/204/204
f 201/201/201 105/105/105 202/202/202
f 201/201/201 204/204/204 196/196/196
f 201/201/201 109/109/109 105/105/105
f 208/208/208 204/204/204 202/202/202
f 196/196/196 204/204/204 194/194/194
f 205/205/205 188/188/188 193/193/193
f 205/205/205 207/207/207 173/173/173
f 205/205/205 211/211/211 188/188/188
f 211/211/211 205/205/205 173/173/173
f 178/178/178 210/210/210 174/174/174
f 179/179/179 187/187/187 209/209/209
f 173/173/173 207/207/207 90/90/90
f 89/89/89 206/206/206 203/203/203
f 89/89/89 203/203/203 101/101/101
f 105/105/105 99/99/99 202/202/202
f 212/212/212 200/200/200 199/199/199
f 212/212/212 213/213/213 200/200/200
f 213/213/213 107/107/107 200/200/200
f 109/109/109 200/200/200 107/107/107
f 216/216/216 214/214/214 213/213/213
f 214/214/214 110/110/110 213/213/213
f 213/213/213 110/110/110 107/107/107
f 216/216/216 213/213/213 212/212/212
f 221/221/221 217/217/217 216/216/216
f 216/216/216 217/217/217 219/219/219
f 214/214/214 216/216/216 219/219/219
f 212/212/212 221/221/221 216/216/216
f 222/222/222 217/217/217 221/221/221
f 199/199/199 221/221/221 212/212/212
f 221/221/221 199/199/199 225/225/225
f 225/225/225 222/222/222 221/221/221
f 230/230/230 226/226/226 224/224/224
f 226/226/226 229/229/229 224/224/224
f 199/199/199 228/228/228 225/225/225
f 224/224/224 227/227/227 230/230/230
f 223/223/223 224/224/224 229/229/229
f 232/232/232 226/226/226 230/230/230
f 183/183/183 181/181/181 230/230/230
f 181/181/181 232/232/232 230/230/230
f 183/183/183 230/230/230 227/227/227
f 182/182/182 161/161/161 231/231/231
f 161/161/161 158/158/158 231/231/231
f 158/158/158 233/233/233 231/231/231
f 232/232/232 234/234/234 226/226/226
f 226/226/226 234/234/234 236/236/236
f 159/159/159 235/235/235 233/233/233
f 158/158/158 159/159/159 233/233/233
f 235/235/235 240/240/240 238/238/238
f 229/229/229 236/236/236 237/237/237
f 235/235/235 159/159/159 240/240/240
f 226/226/226 236/236/236 229/229/229
f 240/240/240 146/146/146 238/238/238
f 159/159/159 149/149/149 240/240/240
f 149/149/149 146/146/146 240/240/240
f 241/241/241 229/229/229 237/237/237
f 239/239/239 145/145/145 242/242/242
f 242/242/242 145/145/145 144/144/144
f 229/229/229 241/241/241 223/223/223
f 245/245/245 223/223/223 241/241/241
f 246/246/246 242/242/242 247/247/247
f 242/242/242 144/144/144 247/247/247
f 248/248/248 250/250/250 244/244/244
f 140/140/140 250/250/250 248/248/248
f 140/140/140 248/248/248 143/143/143
f 140/140/140 252/252/252 250/250/250
f 219/219/219 217/217/217 249/249/249
f 250/250/250 218/218/218 244/244/244
f 219/219/219 249/249/249 251/251/251
f 140/140/140 131/131/131 252/252/252
f 220/220/220 252/252/252 131/131/131
f 217/217/217 222/222/222 243/243/243
f 199/199/199 253/253/253 228/228/228
f 227/227/227 254/254/254 183/183/183
f 185/185/185 183/183/183 254/254/254
f 197/197/197 186/186/186 253/253/253
f 199/199/199 197/197/197 253/253/253
f 219/219/219 118/118/118 214/214/214
f 220/220/220 131/131/131 120/120/120
f 111/111/111 215/215/215 119/119/119
f 163/163/163 161/161/161 182/182/182
f 166/166/166 173/173/173 90/90/90
f 54/54/54 166/166/166 90/90/90
f 32/32/32 151/151/151 154/154/154
f 138/138/138 150/150/150 255/255/255
f 11/11/11 255/255/255 150/150/150
f 152/152/152 31/31/31 14/14/14
f 150/150/150 13/13/13 11/11/11
f 139/139/139 256/256/256 132/132/132
f 256/256/256 258/258/258 132/132/132
f 7/7/7 258/258/258 256/256/256
f 7/7/7 256/256/256 10/10/10
f 257/257/257 126/126/126 133/133/133
f 4/4/4 126/126/126 257/257/257
f 4/4/4 257/257/257 7/7/7
f 131/131/131 140/140/140 136/136/136
f 130/130/130 124/124/124 119/119/119
f 17/17/17 127/127/127 5/5/5
f 122/122/122 127/127/127 17/17/17
f 122/122/122 17/17/17 259/259/259
f 122/122/122 259/259/259 116/116/116
f 17/17/17 18/18/18 259/259/259
f 259/259/259 18/18/18 260/260/260
f 259/259/259 260/260/260 115/115/115
f 116/116/116 259/259/259 115/115/115
f 86/86/86 260/260/260 19/19/19
f 84/84/84 260/260/260 86/86/86
f 18/18/18 19/19/19 260/260/260
f 84/84/84 115/115/115 260/260/260
f 113/113/113 115/115/115 84/84/84
f 113/113/113 84/84/84 85/85/85
f 102/102/102 113/113/113 85/85/85
f 102/102/102 85/85/85 83/83/83
f 93/93/93 89/89/89 101/101/101
f 90/90/90 62/62/62 54/54/54
f 78/78/78 86/86/86 25/25/25
f 86/86/86 19/19/19 25/25/25
f 37/37/37 42/42/42 52/52/52
f 52/52/52 27/27/27 37/37/37
f 27/27/27 24/24/24 37/37/37

