# ('FARMS composite mesh',)
mtllib link_body_32_composite.mtl

o link_body_32
usemtl link_body_32_composite
v -2.62453800 -0.27057100 4.77654000
v -2.62453800 -0.27057100 4.77654000
v -3.37709000 -0.00000000 4.05265900
v -3.37709000 -0.00000000 4.05265900
v -2.18211000 -0.12119500 5.06412400
v -2.18211000 -0.12119500 5.06412400
v -2.18211000 -0.12119500 5.06412400
v -2.62273000 0.27487900 4.77198600
v -2.62273000 0.27487900 4.77198600
v -2.01846300 -0.23568400 4.87394400
v -3.34352100 -0.42791800 4.05077300
v -3.34352100 -0.42791800 4.05077300
v -3.34352100 -0.42791800 4.05077300
v -4.58117300 -1.26219900 -0.78358500
v -4.58117300 -1.26219900 -0.78358500
v -3.92651400 -0.54290800 3.18416400
v -3.92651400 -0.54290800 3.18416400
v -1.60414100 -1.21922400 -1.18422500
v -3.97106900 -0.00000000 3.18416400
v -4.41244500 -0.00000000 2.19329600
v -3.92651400 0.54290800 3.18416400
v -3.92651400 0.54290800 3.18416400
v -4.35909700 0.64998300 2.19329000
v -4.35909700 0.64998300 2.19329000
v -4.35909700 0.64998300 2.19329000
v -3.34352100 0.42791700 4.05077400
v -3.34352100 0.42791700 4.05077400
v -3.34352100 0.42791700 4.05077400
v -4.35909700 -0.64998400 2.19328800
v -4.35909700 -0.64998400 2.19328800
v -4.69116200 -1.03228900 -0.01500200
v -4.69116200 -1.03228900 -0.01500200
v -4.62107100 -0.76966400 1.11812800
v -4.62107100 -0.76966400 1.11812800
v -4.67694100 -0.01685500 1.14701500
v -4.62107100 0.76966300 1.11813100
v -4.62107100 0.76966300 1.11813100
v -4.77601600 -0.00000000 -0.00000000
v -4.69116200 1.03228800 -0.01500200
v -4.69116200 1.03228800 -0.01500200
v -4.69116200 1.03228800 -0.01500200
v -4.68424200 -0.00000000 -1.11813400
v -4.41244500 -0.00000000 -2.19329600
v -4.59423100 -1.09662200 -1.11813400
v -4.59423100 1.09662100 -1.11813400
v -4.32766000 1.03299100 -2.19329600
v -4.52800800 1.32257900 -1.16338400
v -4.52800800 1.32257900 -1.16338400
v -4.23981100 1.31198500 -2.23710900
v -4.23981100 1.31198500 -2.23710900
v -4.58117300 1.26219900 -0.78358500
v -4.58117300 1.26219900 -0.78358500
v -1.60414100 1.21922400 -1.18422500
v -2.01846300 0.23568400 4.87394400
v -1.59556600 1.20202800 -2.59630500
v -1.08253500 0.28792100 4.16355500
v -1.08253500 0.28792100 4.16355500
v -0.75098400 0.78962800 0.99483400
v -0.75098400 0.78962800 0.99483400
v -0.81330100 0.98822800 -0.25681600
v -0.81330100 0.98822800 -0.25681600
v -0.75103000 1.08316300 -0.92058500
v -0.75103000 1.08316300 -0.92058500
v -0.72669200 1.10437100 -1.19592900
v -0.72669200 1.10437100 -1.19592900
v -0.65764600 1.12014600 -1.47656700
v -0.65764600 1.12014600 -1.47656700
v -0.50281500 1.09742700 -2.08736900
v -0.50281500 1.09742700 -2.08736900
v -0.45452100 1.03940500 -2.32685400
v -0.45452100 1.03940500 -2.32685400
v -0.25098400 0.99082300 -2.79275400
v -0.25098400 0.99082300 -2.79275400
v -0.53983300 0.00000100 -2.32685400
v -0.09574100 -0.00000000 -3.32385500
v -0.49576600 -1.09639200 -2.11517300
v -0.49576600 -1.09639200 -2.11517300
v -0.81330100 0.00000100 -1.24504500
v -0.25097700 -0.99081800 -2.79277900
v -0.25097700 -0.99081800 -2.79277900
v -0.13263000 -0.94537500 -3.06684700
v -0.13263000 -0.94537500 -3.06684700
v -1.59556600 -1.20202800 -2.59630500
v -2.99269100 -0.78551600 -4.36139000
v -2.99269100 -0.78551600 -4.36139000
v -3.28777700 -0.87136900 -4.06367000
v -3.28777700 -0.87136900 -4.06367000
v -3.28777700 -0.87136900 -4.06367000
v -4.23981100 -1.31198600 -2.23710900
v -4.23981100 -1.31198600 -2.23710900
v -3.86193500 -1.10475400 -3.17316400
v -3.86193500 -1.10475400 -3.17316400
v -0.02255300 -0.89176100 -3.32385600
v -0.02255300 -0.89176100 -3.32385600
v -0.65764600 -1.12014600 -1.47656800
v -0.65764600 -1.12014600 -1.47656800
v 0.51499900 -0.69845700 -4.13307300
v 0.51499900 -0.69845700 -4.13307300
v 0.51499900 -0.69845700 -4.13307300
v 0.50190000 0.00000100 -4.19773400
v 0.50190000 0.00000100 -4.19773400
v 1.26765400 -0.45712400 -4.91490800
v 1.26765400 -0.45712400 -4.91490800
v 2.08383200 -0.27855900 -5.44781700
v 2.08383200 -0.27855900 -5.44781700
v 1.23013300 0.00000000 -4.91490800
v 2.06096600 0.00000000 -5.44781800
v 2.56266800 -0.20975300 -5.62417700
v 2.56266800 -0.20975300 -5.62417700
v 2.56266800 -0.20975300 -5.62417700
v 1.26765400 0.45712400 -4.91490800
v 1.26765400 0.45712400 -4.91490800
v 2.08383200 0.27856000 -5.44781700
v 2.08383200 0.27856000 -5.44781700
v 2.56266800 0.20975200 -5.62417700
v 2.56266800 0.20975200 -5.62417700
v 2.56266800 0.20975200 -5.62417700
v 1.56040200 0.00000700 -5.67780500
v -1.84234600 0.71900700 -4.47076100
v -2.63113400 0.61107100 -4.74184300
v -2.63113400 0.61107100 -4.74184300
v -1.71627800 0.27784500 -5.33443000
v -1.71627800 0.27784500 -5.33443000
v -1.39336400 0.04449100 -5.45265600
v -2.65688300 -0.00000100 -4.76164300
v -1.80366500 -0.29084200 -5.30084000
v -1.80366500 -0.29084200 -5.30084000
v -1.55061400 -0.22506400 -5.38918800
v -1.55061400 -0.22506400 -5.38918800
v -2.60548800 -0.58293300 -4.76540300
v -2.60548800 -0.58293300 -4.76540300
v -3.37709000 -0.00000000 -4.05265900
v -3.37709000 -0.00000000 -4.05265900
v -3.97106900 -0.00000000 -3.18416400
v -3.28777700 0.87136800 -4.06366900
v -3.28777700 0.87136800 -4.06366900
v -3.28777700 0.87136800 -4.06366900
v -3.86193500 1.10475300 -3.17316300
v -3.86193500 1.10475300 -3.17316300
v 0.51507600 0.69836800 -4.13319500
v 0.51507600 0.69836800 -4.13319500
v 0.51507600 0.69836800 -4.13319500
v 0.70152300 0.63432800 -4.34305700
v 0.70152300 0.63432800 -4.34305700
v 0.01231400 0.87925400 -3.37634300
v 0.01231400 0.87925400 -3.37634300
v -0.13262900 0.94537500 -3.06684700
v -0.13262900 0.94537500 -3.06684700
v -0.72156500 -1.10805200 -1.24504500
v -0.72156500 -1.10805200 -1.24504500
v -0.75103000 -1.08316300 -0.92058600
v -0.75103000 -1.08316300 -0.92058600
v -0.90564000 0.00000100 -0.12000000
v -0.82614100 -0.96866000 -0.12000000
v -0.82614100 -0.96866000 -0.12000000
v -0.74860400 -0.78787300 1.00523900
v -0.74860400 -0.78787300 1.00523900
v -1.08253500 -0.28792100 4.16355500
v -1.08253500 -0.28792100 4.16355500
v -1.08253500 -0.28792100 4.16355500
v -0.49154700 -0.58834400 2.08685400
v -0.49154700 -0.58834400 2.08685400
v -0.81330100 0.00000100 1.00504500
v -0.53983300 0.00000100 2.08685400
v -0.09574100 0.00000000 3.08385600
v -0.49154700 0.58834400 2.08685500
v -0.49154700 0.58834400 2.08685500
v -0.06291200 -0.38992700 3.08539800
v -0.06291200 -0.38992700 3.08539800
v -0.08464800 0.39892300 3.03526200
v -0.08464800 0.39892300 3.03526200
v 0.08361800 0.34084200 3.30521400
v 0.08361800 0.34084200 3.30521400
v 0.50190000 0.00000100 3.95773500
v 0.50190000 0.00000100 3.95773500
v 0.50190000 0.00000100 3.95773500
v 0.50190000 0.00000100 3.95773500
v 0.50190000 0.00000100 3.95773500
v 0.50190000 0.00000100 3.95773500
v 0.66978500 0.13461400 4.11219000
v 0.66978500 0.13461400 4.11219000
v 0.66978500 0.13461400 4.11219000
v 0.87332900 -0.07712300 4.31729400
v 0.87332900 -0.07712300 4.31729400
v 0.87332900 -0.07712300 4.31729400
v 0.87332900 -0.07712300 4.31729400
v 0.66978500 -0.13461300 4.11218900
v 0.66978500 -0.13461300 4.11218900
v 0.66978500 -0.13461300 4.11218900
v 0.37269600 -0.23203400 3.74097100
v 0.37269600 -0.23203400 3.74097100
v 0.37269600 -0.23203400 3.74097100
v -2.19709800 0.13496700 5.05091300
v -2.19709800 0.13496700 5.05091300
v -2.19709800 0.13496700 5.05091300
v -4.32766000 -1.03299100 -2.19329600
v -4.52800800 -1.32258000 -1.16338400
v -4.52800800 -1.32258000 -1.16338400
vn -0.63398693 -0.00045579 0.77334362
vn 0.01784428 -0.97137428 0.23688308
vn -0.82541993 -0.00000054 0.56451920
vn -0.70076603 0.00122577 0.71339012
vn 0.03117886 -0.84423697 0.53506244
vn -0.54630127 0.01000515 0.83752899
vn 0.23608379 0.06382003 0.96963470
vn -0.63324931 0.01560817 0.77379048
vn 0.02573816 0.97467353 0.22214648
vn 0.08195867 -0.91161289 0.40279612
vn -0.70286839 -0.05826264 0.70892982
vn -0.82358625 -0.06724006 0.56319132
vn 0.02383716 -0.98549790 0.16800498
vn -0.96980634 -0.23149464 -0.07671957
vn -0.00622886 -0.98564666 0.16870643
vn -0.10757417 -0.97498612 0.19449898
vn -0.87261654 -0.07161329 0.48312723
vn 0.07237800 -0.99452761 0.07534101
vn -0.87415724 -0.00000017 0.48564300
vn -0.94543032 0.00005091 0.32582435
vn -0.10757276 0.97498632 0.19449879
vn -0.87261648 0.07161329 0.48312733
vn -0.53857684 0.81288219 0.22171499
vn -0.94346861 0.07743743 0.32228934
vn -0.25809618 0.94233495 0.21305211
vn 0.02444240 0.98564916 0.16702784
vn -0.69993548 0.05804387 0.71184355
vn -0.82358637 0.06723926 0.56319124
vn -0.26873141 -0.93920468 0.21372410
vn -0.94346868 -0.07743815 0.32228899
vn -0.99570874 -0.09160390 -0.01314683
vn -0.39104994 -0.89519679 0.21378180
vn -0.53857983 -0.81288012 0.22171529
vn -0.98510079 -0.07870162 0.15291335
vn -0.98600933 -0.00310824 0.16666114
vn -0.98481864 0.07827247 0.15493764
vn -0.53857684 0.81288219 0.22171499
vn -0.99999807 -0.00051467 0.00189592
vn -0.38546072 0.89771395 0.21337692
vn -0.99561366 0.09251173 -0.01396505
vn -0.53857684 0.81288219 0.22171499
vn -0.98653155 0.00000004 -0.16357106
vn -0.94387609 0.00000006 -0.33029975
vn -0.97291832 -0.16479738 -0.16208569
vn -0.97291832 0.16479727 -0.16208581
vn -0.93202851 0.15499867 -0.32756415
vn -0.95161566 0.24062189 -0.19112491
vn 0.03583186 0.99511246 0.09201776
vn -0.91289151 0.23270302 -0.33537798
vn 0.02807777 0.99668068 -0.07641511
vn -0.00622932 0.98564682 0.16870547
vn -0.96980654 0.23149371 -0.07671980
vn 0.07237810 0.99452745 0.07534301
vn 0.10832465 0.90239759 0.41706638
vn 0.06608658 0.98957263 -0.12797879
vn 0.11710716 0.96480140 0.23546586
vn 0.04376670 0.72909878 -0.68300765
vn 0.07996239 0.98346823 0.16246924
vn 0.98488177 -0.08526565 -0.15079014
vn 0.99570419 -0.09006166 0.02149574
vn 0.11048236 0.98241943 0.15048494
vn 0.99333117 -0.08152765 0.08152564
vn 0.11888116 0.98516727 0.12374459
vn 0.13043686 0.98757901 0.08760097
vn 0.98320443 -0.08132454 0.16338719
vn 0.11054629 0.99364596 0.02114773
vn 0.97036712 -0.04949866 0.23651119
vn 0.93948204 -0.23743402 0.24697890
vn 0.13759524 0.98613589 -0.09275535
vn 0.94490687 -0.08428031 0.31630338
vn 0.16625527 0.97960815 -0.11281430
vn 0.91092268 -0.07476434 0.40574643
vn 0.14293512 0.98632122 -0.08209758
vn 0.94594546 0.00364385 0.32430526
vn 0.87413769 -0.00060553 0.48567781
vn 0.95195412 0.09357519 0.29159396
vn 0.11899265 -0.99140760 -0.05432976
vn 0.98623700 -0.00082205 0.16533573
vn 0.13964929 -0.98483037 -0.10299135
vn 0.91876122 0.08672422 0.38517103
vn 0.91092307 0.07476079 0.40574620
vn 0.12765365 -0.98206197 -0.13877619
vn 0.06394215 -0.98948111 -0.12976337
vn 0.02522273 -0.95508868 -0.29524470
vn -0.70126272 -0.06179568 -0.71021960
vn 0.02432816 -0.96886728 -0.24638250
vn -0.69974000 -0.06272891 -0.71163826
vn -0.82488932 -0.08235956 -0.55926248
vn 0.02807814 -0.99668068 -0.07641494
vn -0.91289176 -0.23270234 -0.33537779
vn -0.87272634 -0.09746950 -0.47838105
vn 0.01529054 -0.97438161 -0.22438066
vn 0.87502606 0.07181400 0.47871928
vn 0.12289891 -0.98063531 -0.15248030
vn 0.11036289 -0.99367907 0.02054133
vn 0.93951037 0.23731668 0.24698391
vn 0.04946575 -0.96749381 -0.24800981
vn 0.82354189 0.06758686 0.56321468
vn 0.70600408 0.07840113 0.70385475
vn 0.82542883 -0.00000507 0.56450620
vn 0.70859037 0.00539259 0.70559947
vn 0.63147581 0.05590427 0.77337766
vn 0.04047087 -0.96455629 -0.26075518
vn 0.44862640 0.03682948 0.89296021
vn 0.03787101 -0.96161977 -0.27175945
vn 0.62741338 0.00000002 0.77868636
vn 0.44709999 0.00000004 0.89448398
vn 0.00374768 -0.90987209 -0.41487195
vn 0.33473947 0.00839598 0.94227331
vn 0.03888110 -0.06907912 -0.99685322
vn 0.04494672 0.96594217 -0.25482450
vn 0.63016395 -0.05172298 0.77473746
vn 0.04494001 0.96593616 -0.25484846
vn 0.44862651 -0.03682936 0.89296016
vn 0.00815489 0.91846876 -0.39540944
vn 0.33473945 -0.00839597 0.94227332
vn 0.03759755 0.07511839 -0.99646558
vn -0.04938985 0.00735156 -0.99875252
vn 0.02122971 0.94782516 -0.31808297
vn -0.63494483 0.05452587 -0.77063090
vn -0.00448683 0.92079948 -0.39001048
vn -0.02121450 0.85709701 -0.51471804
vn -0.39337384 0.09110425 -0.91485356
vn -0.14597726 0.09149304 -0.98504805
vn -0.62497100 0.00203882 -0.78064531
vn -0.02285653 -0.85238144 -0.52242076
vn -0.46304909 0.00113780 -0.88633190
vn -0.03486036 -0.75120607 -0.65914657
vn -0.24878770 -0.08834042 -0.96452094
vn -0.01327999 -0.88538718 -0.46466459
vn -0.64115975 -0.05159003 -0.76567137
vn -0.82541993 0.00000035 -0.56451920
vn -0.70293416 -0.00179055 -0.71125267
vn -0.87514315 0.00000027 -0.48386410
vn -0.70472621 0.06330391 -0.70664955
vn 0.01927787 0.96328229 -0.26779765
vn -0.82488923 0.08236020 -0.55926251
vn 0.01529010 0.97438154 -0.22438099
vn -0.87272623 0.09746988 -0.47838117
vn 0.05325502 0.96826670 -0.24417926
vn 0.73374102 -0.07623577 0.67513867
vn 0.82354141 -0.06758663 0.56321540
vn 0.04494628 0.96594139 -0.25482754
vn 0.71585190 -0.06602761 0.69512331
vn 0.86364312 -0.07639104 0.49828202
vn 0.12280164 0.98062187 -0.15264506
vn 0.12760610 0.98204834 -0.13891634
vn 0.90544319 -0.07809522 0.41722147
vn 0.98139117 0.08458165 0.17238713
vn 0.13043522 -0.98757932 0.08759984
vn 0.11888947 -0.98516944 0.12371928
vn 0.99321982 0.08183227 0.08257043
vn 0.99999416 -0.00332207 -0.00080136
vn 0.99661836 0.08179349 0.00785336
vn 0.11075627 -0.98241177 0.15033348
vn 0.07963513 -0.98348085 0.16255355
vn 0.98454233 0.08080468 -0.15539307
vn 0.08090613 -0.98099122 0.17638148
vn 0.21678467 -0.72815022 0.65023200
vn 0.04376620 -0.72909436 -0.68301240
vn 0.07487983 -0.98367890 0.16361183
vn 0.94477960 0.07753891 -0.31840104
vn 0.98651925 0.00049555 -0.16364452
vn 0.94543005 0.00000422 -0.32582513
vn 0.87390553 -0.00252864 -0.48608922
vn 0.94482029 -0.07754197 -0.31827954
vn 0.07495376 0.98366997 0.16363165
vn 0.87478067 0.07170052 -0.47918453
vn 0.08033005 -0.98235242 0.16891066
vn 0.07599865 0.98353257 0.16397527
vn 0.88277183 -0.08092092 -0.46278040
vn 0.82839058 -0.07544629 -0.55504676
vn 0.14115973 0.95768446 0.25082742
vn 0.04376670 0.72909878 -0.68300765
vn 0.21678467 -0.72815022 0.65023200
vn 0.04376620 -0.72909436 -0.68301240
vn 0.82527569 0.01926150 -0.56440149
vn 0.69540955 -0.00114617 -0.71861272
vn 0.21088976 0.91537288 0.34295481
vn 0.69143253 -0.03434030 -0.72162442
vn 0.08395860 0.73377491 0.67418494
vn 0.04376670 0.72909878 -0.68300765
vn 0.23608379 0.06382003 0.96963470
vn 0.69594195 0.00386584 -0.71808764
vn 0.09560915 -0.97239800 0.21284034
vn 0.11009522 0.80383696 0.58457265
vn 0.09101896 -0.97870303 0.18399978
vn 0.70052094 0.05751420 -0.71131043
vn 0.04376620 -0.72909436 -0.68301240
vn 0.21678467 -0.72815022 0.65023200
vn 0.82353263 0.06748891 -0.56323997
vn 0.08902056 -0.98019027 0.17692479
vn -0.54547784 0.01130473 0.83804900
vn 0.23608379 0.06382003 0.96963470
vn 0.04385903 0.84859300 0.52722510
vn -0.93202862 -0.15499825 -0.32756404
vn -0.95161569 -0.24062194 -0.19112471
vn 0.03583220 -0.99511231 0.09201928
vt 0.97536500 0.13359000
vt 0.20415700 0.75226500
vt 0.88168300 0.50843400
vt 0.97025300 0.13461600
vt 0.20098800 0.75125600
vt 0.97820200 0.13469300
vt 0.97820200 0.13469300
vt 0.97507600 0.13659700
vt 0.27798000 0.75224400
vt 0.20011200 0.75252900
vt 0.97071200 0.13228000
vt 0.88159200 0.51052300
vt 0.20961000 0.75528600
vt 0.90769500 0.51964600
vt 0.22286200 0.78005300
vt 0.21434100 0.75924100
vt 0.88616700 0.51292100
vt 0.20394400 0.78614700
vt 0.88629500 0.51027700
vt 0.89163200 0.51176600
vt 0.26789800 0.75928600
vt 0.88645200 0.50740100
vt 0.89181900 0.50832200
vt 0.89181900 0.50832200
vt 0.26405900 0.76414600
vt 0.27255200 0.75528300
vt 0.97023900 0.13699600
vt 0.88181700 0.50617100
vt 0.21823400 0.76406700
vt 0.89147800 0.51493200
vt 0.90347400 0.51849900
vt 0.22276900 0.77568900
vt 0.22110700 0.76957800
vt 0.89730400 0.51659100
vt 0.89732500 0.51289900
vt 0.89770900 0.50876500
vt 0.89770900 0.50876500
vt 0.90363600 0.51346600
vt 0.25912000 0.77571400
vt 0.90401600 0.50800200
vt 0.90401600 0.50800200
vt 0.90984200 0.51361200
vt 0.91586800 0.51327600
vt 0.90958200 0.51895400
vt 0.91015900 0.50780300
vt 0.91616600 0.50780300
vt 0.91048900 0.50649700
vt 0.25844500 0.78211900
vt 0.91650900 0.50617100
vt 0.25917200 0.78831200
vt 0.25860600 0.77999700
vt 0.90835800 0.50681200
vt 0.27658100 0.78575400
vt 0.28186600 0.75241900
vt 0.27526700 0.79345500
vt 0.28681600 0.75740100
vt 0.28681600 0.75740100
vt 0.28478000 0.77497600
vt 0.89897900 0.61316800
vt 0.90599100 0.61364300
vt 0.28278800 0.78168700
vt 0.90965100 0.61392700
vt 0.28233700 0.78536100
vt 0.28217400 0.78688600
vt 0.91116100 0.61394400
vt 0.28229100 0.78849500
vt 0.91267200 0.61397200
vt 0.91592900 0.61372300
vt 0.28268000 0.79200900
vt 0.91718800 0.61334600
vt 0.28284700 0.79338000
vt 0.91960800 0.61306600
vt 0.28372700 0.79616800
vt 0.91670500 0.60758700
vt 0.92193200 0.60756300
vt 0.91495700 0.60173000
vt 0.19778700 0.79263100
vt 0.91091600 0.60780700
vt 0.19696500 0.79660400
vt 0.91859600 0.60223800
vt 0.92005800 0.60247700
vt 0.19650700 0.79823600
vt 0.20545600 0.79381100
vt 0.21658100 0.80144300
vt 0.90868900 0.96548700
vt 0.21815500 0.79945900
vt 0.90900100 0.96747300
vt 0.92632500 0.51542500
vt 0.22224200 0.78839600
vt 0.91581900 0.51951200
vt 0.92116400 0.51779800
vt 0.22086000 0.79392400
vt 0.92143500 0.60276000
vt 0.19608600 0.79976300
vt 0.19812800 0.78895900
vt 0.91152800 0.60173000
vt 0.19352200 0.80481800
vt 0.92567700 0.60396300
vt 0.21665800 0.97189200
vt 0.92639600 0.60773900
vt 0.21278700 0.97180600
vt 0.21528700 0.97691100
vt 0.18953700 0.80999700
vt 0.21427500 0.98234700
vt 0.18485100 0.81392400
vt 0.21275600 0.97666200
vt 0.21273300 0.98219500
vt 0.18194300 0.81549700
vt 0.21388700 0.98553300
vt 0.90900100 0.92848900
vt 0.29195000 0.80962200
vt 0.21022500 0.97691100
vt 0.29676900 0.81352800
vt 0.21119000 0.98234700
vt 0.29966500 0.81507300
vt 0.21156400 0.98553300
vt 0.90668900 0.92826200
vt 0.90718800 0.93500500
vt 0.27279400 0.80343600
vt 0.90119100 0.96235400
vt 0.26788000 0.80398200
vt 0.27353500 0.80835500
vt 0.90356200 0.95650900
vt 0.90504600 0.95450500
vt 0.90453900 0.96285600
vt 0.20998000 0.80799600
vt 0.90664200 0.95739400
vt 0.20844300 0.80879500
vt 0.90643500 0.95568800
vt 0.21454800 0.80410000
vt 0.90778400 0.96283300
vt 0.92646500 0.51122300
vt 0.90414300 0.96759100
vt 0.92148100 0.51246900
vt 0.89939800 0.96652800
vt 0.26403300 0.79946400
vt 0.92678300 0.50656500
vt 0.26095200 0.79389200
vt 0.92174400 0.50656500
vt 0.28765100 0.80442700
vt 0.20892300 0.97189200
vt 0.92639100 0.61159600
vt 0.28870800 0.80580300
vt 0.20926900 0.97313600
vt 0.92260900 0.61244600
vt 0.28497400 0.79967700
vt 0.28426700 0.79780800
vt 0.92102400 0.61280800
vt 0.91029800 0.60183900
vt 0.19828900 0.78761700
vt 0.19812600 0.78581300
vt 0.90854500 0.60209000
vt 0.90478700 0.60821700
vt 0.90424700 0.60299900
vt 0.19775000 0.78134700
vt 0.19603200 0.77530700
vt 0.89811400 0.60455600
vt 0.19480000 0.75762900
vt 0.19480000 0.75762900
vt 0.19480000 0.75762900
vt 0.19319900 0.76973700
vt 0.89212900 0.60636400
vt 0.89855400 0.60880000
vt 0.89245700 0.60953400
vt 0.88672900 0.61039100
vt 0.89273000 0.61279400
vt 0.28783100 0.76937200
vt 0.88650300 0.60829200
vt 0.18934100 0.76484400
vt 0.29162300 0.76472400
vt 0.88719400 0.61255900
vt 0.88558600 0.61251900
vt 0.29303200 0.76346400
vt 0.29688300 0.76046400
vt 0.18477300 0.76077200
vt 0.18477300 0.76077200
vt 0.88159200 0.61133700
vt 0.86897800 0.97398100
vt 0.29688300 0.76046400
vt 0.86768900 0.97361600
vt 0.29781600 0.75980400
vt 0.29781600 0.75980400
vt 0.99839400 0.13699600
vt 0.86768900 0.97180600
vt 0.18194300 0.75933000
vt 0.29966500 0.75896300
vt 0.18348400 0.76018600
vt 0.86881100 0.97263500
vt 0.18348400 0.76018600
vt 0.18581000 0.76182900
vt 0.88273700 0.60985300
vt 0.18581000 0.76182900
vt 0.97796200 0.13609500
vt 0.97796200 0.13609500
vt 0.28113100 0.75125600
vt 0.91562300 0.51830700
vt 0.90979400 0.51994600
vt 0.22292500 0.78219600
f 4/4/4 11/11/11 1/1/1
f 4/4/4 1/1/1 8/8/8
f 6/6/6 8/8/8 1/1/1
f 10/10/10 5/5/5 2/2/2
f 13/13/13 10/10/10 2/2/2
f 16/16/16 15/15/15 13/13/13
f 15/15/15 18/18/18 13/13/13
f 19/19/19 17/17/17 12/12/12
f 19/19/19 12/12/12 3/3/3
f 18/18/18 10/10/10 13/13/13
f 19/19/19 3/3/3 28/28/28
f 30/30/30 19/19/19 20/20/20
f 19/19/19 24/24/24 20/20/20
f 19/19/19 22/22/22 24/24/24
f 19/19/19 28/28/28 22/22/22
f 30/30/30 17/17/17 19/19/19
f 20/20/20 34/34/34 30/30/30
f 32/32/32 15/15/15 29/29/29
f 29/29/29 15/15/15 16/16/16
f 33/33/33 32/32/32 29/29/29
f 20/20/20 35/35/35 34/34/34
f 34/34/34 35/35/35 31/31/31
f 36/36/36 35/35/35 20/20/20
f 35/35/35 36/36/36 38/38/38
f 35/35/35 38/38/38 31/31/31
f 40/40/40 42/42/42 38/38/38
f 36/36/36 40/40/40 38/38/38
f 42/42/42 31/31/31 38/38/38
f 44/44/44 42/42/42 43/43/43
f 45/45/45 43/43/43 42/42/42
f 42/42/42 44/44/44 31/31/31
f 40/40/40 45/45/45 42/42/42
f 45/45/45 46/46/46 43/43/43
f 46/46/46 45/45/45 49/49/49
f 52/52/52 47/47/47 45/45/45
f 45/45/45 47/47/47 49/49/49
f 40/40/40 52/52/52 45/45/45
f 21/21/21 26/26/26 51/51/51
f 51/51/51 26/26/26 53/53/53
f 48/48/48 51/51/51 53/53/53
f 39/39/39 25/25/25 51/51/51
f 25/25/25 21/21/21 51/51/51
f 53/53/53 26/26/26 54/54/54
f 53/53/53 54/54/54 56/56/56
f 53/53/53 55/55/55 50/50/50
f 55/55/55 53/53/53 66/66/66
f 58/58/58 53/53/53 56/56/56
f 53/53/53 50/50/50 48/48/48
f 58/58/58 61/61/61 53/53/53
f 61/61/61 63/63/63 53/53/53
f 53/53/53 63/63/63 64/64/64
f 53/53/53 64/64/64 66/66/66
f 65/65/65 70/70/70 67/67/67
f 68/68/68 67/67/67 70/70/70
f 66/66/66 69/69/69 55/55/55
f 70/70/70 74/74/74 72/72/72
f 55/55/55 71/71/71 73/73/73
f 74/74/74 70/70/70 65/65/65
f 69/69/69 71/71/71 55/55/55
f 74/74/74 75/75/75 72/72/72
f 75/75/75 74/74/74 80/80/80
f 74/74/74 76/76/76 80/80/80
f 76/76/76 74/74/74 78/78/78
f 74/74/74 65/65/65 78/78/78
f 83/83/83 82/82/82 79/79/79
f 75/75/75 80/80/80 81/81/81
f 83/83/83 79/79/79 77/77/77
f 89/89/89 83/83/83 18/18/18
f 95/95/95 18/18/18 83/83/83
f 83/83/83 84/84/84 97/97/97
f 86/86/86 84/84/84 83/83/83
f 94/94/94 82/82/82 83/83/83
f 86/86/86 83/83/83 92/92/92
f 92/92/92 83/83/83 89/89/89
f 97/97/97 94/94/94 83/83/83
f 95/95/95 83/83/83 77/77/77
f 84/84/84 103/103/103 97/97/97
f 100/100/100 75/75/75 98/98/98
f 101/101/101 99/99/99 102/102/102
f 75/75/75 93/93/93 98/98/98
f 84/84/84 105/105/105 103/103/103
f 107/107/107 102/102/102 104/104/104
f 107/107/107 106/106/106 102/102/102
f 106/106/106 101/101/101 102/102/102
f 107/107/107 109/109/109 116/116/116
f 107/107/107 104/104/104 109/109/109
f 112/112/112 106/106/106 107/107/107
f 112/112/112 107/107/107 114/114/114
f 116/116/116 114/114/114 107/107/107
f 113/113/113 115/115/115 119/119/119
f 117/117/117 110/110/110 118/118/118
f 123/123/123 117/117/117 118/118/118
f 119/119/119 115/115/115 121/121/121
f 121/121/121 115/115/115 122/122/122
f 124/124/124 123/123/123 118/118/118
f 125/125/125 120/120/120 123/123/123
f 124/124/124 127/127/127 123/123/123
f 127/127/127 125/125/125 123/123/123
f 124/124/124 129/129/129 127/127/127
f 125/125/125 127/127/127 131/131/131
f 126/126/126 128/128/128 108/108/108
f 130/130/130 126/126/126 108/108/108
f 131/131/131 85/85/85 125/125/125
f 84/84/84 130/130/130 108/108/108
f 124/124/124 118/118/118 129/129/129
f 118/118/118 110/110/110 129/129/129
f 133/133/133 125/125/125 85/85/85
f 133/133/133 120/120/120 125/125/125
f 137/137/137 132/132/132 134/134/134
f 134/134/134 132/132/132 88/88/88
f 133/133/133 135/135/135 120/120/120
f 133/133/133 85/85/85 87/87/87
f 136/136/136 55/55/55 119/119/119
f 136/136/136 119/119/119 121/121/121
f 136/136/136 138/138/138 55/55/55
f 137/137/137 134/134/134 139/139/139
f 139/139/139 134/134/134 43/43/43
f 138/138/138 50/50/50 55/55/55
f 139/139/139 43/43/43 46/46/46
f 139/139/139 46/46/46 49/49/49
f 43/43/43 134/134/134 91/91/91
f 134/134/134 88/88/88 91/91/91
f 140/140/140 119/119/119 55/55/55
f 111/111/111 113/113/113 119/119/119
f 143/143/143 111/111/111 119/119/119
f 119/119/119 140/140/140 143/143/143
f 101/101/101 144/144/144 141/141/141
f 101/101/101 112/112/112 144/144/144
f 142/142/142 145/145/145 75/75/75
f 146/146/146 140/140/140 55/55/55
f 75/75/75 100/100/100 142/142/142
f 55/55/55 147/147/147 146/146/146
f 75/75/75 145/145/145 148/148/148
f 72/72/72 75/75/75 148/148/148
f 73/73/73 147/147/147 55/55/55
f 101/101/101 106/106/106 112/112/112
f 84/84/84 108/108/108 105/105/105
f 96/96/96 76/76/76 149/149/149
f 18/18/18 95/95/95 150/150/150
f 150/150/150 151/151/151 18/18/18
f 152/152/152 149/149/149 78/78/78
f 76/76/76 78/78/78 149/149/149
f 18/18/18 151/151/151 155/155/155
f 78/78/78 153/153/153 152/152/152
f 153/153/153 154/154/154 152/152/152
f 154/154/154 153/153/153 157/157/157
f 18/18/18 155/155/155 156/156/156
f 158/158/158 18/18/18 156/156/156
f 158/158/158 156/156/156 161/161/161
f 164/164/164 162/162/162 157/157/157
f 153/153/153 163/163/163 157/157/157
f 163/163/163 164/164/164 157/157/157
f 162/162/162 164/164/164 168/168/168
f 165/165/165 164/164/164 171/171/171
f 164/164/164 165/165/165 168/168/168
f 164/164/164 163/163/163 59/59/59
f 59/59/59 166/166/166 164/164/164
f 164/164/164 166/166/166 171/171/171
f 56/56/56 170/170/170 167/167/167
f 56/56/56 173/173/173 170/170/170
f 171/171/171 172/172/172 165/165/165
f 56/56/56 179/179/179 173/173/173
f 177/177/177 165/165/165 172/172/172
f 184/184/184 178/178/178 180/180/180
f 57/57/57 182/182/182 174/174/174
f 165/165/165 177/177/177 191/191/191
f 178/178/178 184/184/184 188/188/188
f 176/176/176 189/189/189 160/160/160
f 190/190/190 175/175/175 159/159/159
f 191/191/191 168/168/168 165/165/165
f 158/158/158 169/169/169 192/192/192
f 158/158/158 187/187/187 185/185/185
f 56/56/56 186/186/186 181/181/181
f 10/10/10 158/158/158 185/185/185
f 186/186/186 54/54/54 195/195/195
f 186/186/186 56/56/56 54/54/54
f 194/194/194 7/7/7 183/183/183
f 5/5/5 10/10/10 185/185/185
f 54/54/54 9/9/9 195/195/195
f 8/8/8 6/6/6 193/193/193
f 158/158/158 161/161/161 169/169/169
f 167/167/167 58/58/58 56/56/56
f 163/163/163 153/153/153 59/59/59
f 18/18/18 158/158/158 10/10/10
f 153/153/153 78/78/78 62/62/62
f 153/153/153 60/60/60 59/59/59
f 62/62/62 60/60/60 153/153/153
f 81/81/81 93/93/93 75/75/75
f 43/43/43 91/91/91 196/196/196
f 91/91/91 90/90/90 196/196/196
f 44/44/44 43/43/43 196/196/196
f 196/196/196 90/90/90 44/44/44
f 89/89/89 18/18/18 198/198/198
f 44/44/44 90/90/90 197/197/197
f 198/198/198 18/18/18 15/15/15
f 14/14/14 44/44/44 197/197/197
f 78/78/78 65/65/65 62/62/62
f 26/26/26 9/9/9 54/54/54
f 31/31/31 44/44/44 14/14/14
f 37/37/37 23/23/23 41/41/41
f 36/36/36 20/20/20 24/24/24
f 4/4/4 8/8/8 27/27/27

