# ('FARMS composite mesh',)
mtllib link_body_37_composite.mtl

o link_body_37
usemtl link_body_37_composite
v 1.13925100 0.62951500 -0.75274500
v 1.13925100 0.62951500 -0.75274500
v -3.25232600 0.70887800 0.80974300
v -3.25232600 0.70887800 0.80974300
v -3.32202800 0.69239500 -0.00000000
v -3.32202800 0.69239500 -0.00000000
v 1.19248200 0.63013300 -0.06138100
v 1.19248200 0.63013300 -0.06138100
v 1.18918600 0.58999400 -1.37862000
v 1.18918600 0.58999400 -1.37862000
v -3.25828500 0.67365900 -0.79257400
v -3.25828500 0.67365900 -0.79257400
v -2.47975900 0.53847000 -2.67003400
v -2.47975900 0.53847000 -2.67003400
v 1.14076200 0.00000100 -0.06138100
v 1.08670000 0.00000000 -0.72000100
v 1.14076200 0.00000100 -1.37862000
v 1.30085000 0.00000100 -2.01192900
v 1.18918600 -0.58999300 -1.37862000
v 1.18918600 -0.58999300 -1.37862000
v 1.13883200 -0.62874800 -0.73946500
v 1.13883200 -0.62874800 -0.73946500
v 1.34554300 -0.54448700 -2.01192900
v 1.34554300 -0.54448700 -2.01192900
v 1.34554300 0.54448700 -2.01192900
v 1.34554300 0.54448700 -2.01192900
v 1.59040000 0.49899600 -2.57209100
v 1.59040000 0.49899600 -2.57209100
v -2.14731500 0.46561900 -3.06876300
v -2.14731500 0.46561900 -3.06876300
v 1.93987300 0.35544800 -3.10717300
v 1.93987300 0.35544800 -3.10717300
v 1.93987300 0.35544800 -3.10717300
v -2.34765600 0.50579700 -2.86711500
v -2.34765600 0.50579700 -2.86711500
v -2.34765600 0.50579700 -2.86711500
v 1.56082900 0.00000000 -2.59559000
v 1.91069800 0.00000000 -3.10717300
v 1.91069800 0.00000000 -3.10717300
v 1.60059300 -0.49866300 -2.59324000
v 1.60059300 -0.49866300 -2.59324000
v -2.47978100 -0.53846800 -2.67000600
v -2.47978100 -0.53846800 -2.67000600
v 1.94568600 -0.42628300 -3.10717300
v 1.94568600 -0.42628300 -3.10717300
v 1.94568600 -0.42628300 -3.10717300
v 2.36705000 -0.36590900 -3.52701800
v 2.36705000 -0.36590900 -3.52701800
v 2.33702100 0.00000000 -3.52701800
v 2.83684500 0.14981500 -3.84342900
v 2.83684500 0.14981500 -3.84342900
v 2.35680400 0.24103900 -3.52701800
v 2.35680400 0.24103900 -3.52701800
v 2.84409300 -0.25204200 -3.83899200
v 2.84409300 -0.25204200 -3.83899200
v 2.84409300 -0.25204200 -3.83899200
v 3.16584700 -0.08457700 -3.96111900
v 3.16584700 -0.08457700 -3.96111900
v -2.15203000 -0.46755200 -3.06400900
v -2.15203000 -0.46755200 -3.06400900
v -0.65561600 -0.09121200 -3.97605800
v -0.65561600 -0.09121200 -3.97605800
v -1.27848800 -0.18973300 -3.74998200
v -1.27848800 -0.18973300 -3.74998200
v -1.84893000 -0.34350600 -3.37135600
v -1.84893000 -0.34350600 -3.37135600
v 0.47496000 -0.05139000 -4.03346300
v 0.47496000 -0.05139000 -4.03346300
v 0.61463900 0.03303200 -4.04058300
v 0.61463900 0.03303200 -4.04058300
v 1.56954900 0.04520700 -4.04568700
v 1.56954900 0.04520700 -4.04568700
v -0.65230500 0.09348000 -3.97629100
v -0.65230500 0.09348000 -3.97629100
v -0.65230500 0.09348000 -3.97629100
v -1.27713000 0.19278100 -3.74603100
v -1.27713000 0.19278100 -3.74603100
v 1.25669900 0.11602800 -3.97431800
v 1.25669900 0.11602800 -3.97431800
v 3.19767700 0.10963800 -3.97305000
v 3.19767700 0.10963800 -3.97305000
v 3.19767700 0.10963800 -3.97305000
v 3.19767700 0.10963800 -3.97305000
v -1.84893000 0.34350600 -3.37135500
v -1.84893000 0.34350600 -3.37135500
v -1.87712800 -0.00000000 -3.37135500
v -2.34765600 -0.50579700 -2.86711400
v -2.34765600 -0.50579700 -2.86711400
v -2.34765600 -0.50579700 -2.86711400
v -2.38916700 -0.00000000 -2.86711400
v -2.38916700 -0.00000000 -2.86711400
v -2.76270200 0.56881500 -2.25268600
v -2.76270200 0.56881500 -2.25268600
v -2.80938600 -0.00000000 -2.25268500
v -2.76270200 -0.56881600 -2.25268600
v -2.76270200 -0.56881600 -2.25268600
v -3.12164200 0.00000100 -1.55168100
v -3.25802500 -0.67372500 -0.79267000
v -3.25802500 -0.67372500 -0.79267000
v -3.07083100 -0.61915700 -1.55166500
v -3.07083100 -0.61915700 -1.55166500
v -3.31392600 0.00000100 -0.79104100
v -3.37885200 -0.00000000 -0.00000000
v -3.07082300 0.61915500 -1.55168100
v -3.07082300 0.61915500 -1.55168100
v -3.32202800 -0.69239600 -0.00000100
v -3.32202800 -0.69239600 -0.00000100
v -3.25232600 -0.70871000 0.80985200
v -3.25232600 -0.70871000 0.80985200
v -3.31392600 0.00000100 0.79104000
v -3.06436800 -0.69311000 1.55274100
v -3.06436800 -0.69311000 1.55274100
v -3.12164200 0.00000100 1.55168000
v -3.06437600 0.69307900 1.55273500
v -3.06437600 0.69307900 1.55273500
v -2.76071900 0.59293700 2.25268400
v -2.76071900 0.59293700 2.25268400
v 1.60678100 0.55873900 1.15311400
v 1.60678100 0.55873900 1.15311400
v 1.35176800 0.61318900 0.57192700
v 1.35176800 0.61318900 0.57192700
v 1.29087000 0.63230500 0.32415700
v 1.29087000 0.63230500 0.32415700
v 1.30085000 0.00000100 0.57192800
v 1.56082900 0.00000000 1.15558900
v 1.35193600 -0.61319700 0.57254600
v 1.35193600 -0.61319700 0.57254600
v 1.29007700 -0.63246700 0.32096500
v 1.29007700 -0.63246700 0.32096500
v 1.19248200 -0.63015100 -0.06138100
v 1.19248200 -0.63015100 -0.06138100
v 1.60755100 -0.55763500 1.15499100
v 1.60755100 -0.55763500 1.15499100
v 1.96117400 -0.49246800 1.67449500
v 1.96117400 -0.49246800 1.67449500
v 1.96117400 -0.49246800 1.67449500
v -2.76071900 -0.59293700 2.25268400
v -2.76071900 -0.59293700 2.25268400
v 1.91069700 0.00000000 1.66717200
v 1.91069700 0.00000000 1.66717200
v 1.95783900 0.49214200 1.67090200
v 1.95783900 0.49214200 1.67090200
v 1.95783900 0.49214200 1.67090200
v 2.33702000 0.00000000 2.08701700
v 2.36453900 -0.35313100 2.08600600
v 2.36453900 -0.35313100 2.08600600
v 2.36453900 0.35313200 2.08600600
v 2.36453900 0.35313200 2.08600600
v 2.85208800 0.22671300 2.40340400
v 2.85208800 0.22671300 2.40340400
v -1.83788300 0.40018200 3.37630300
v -1.83788300 0.40018200 3.37630300
v -2.34821300 0.49789800 2.86722600
v -2.34821300 0.49789800 2.86722600
v -2.34821300 0.49789800 2.86722600
v -1.30075800 0.12996000 3.73462500
v -1.30075800 0.12996000 3.73462500
v -1.33741800 0.19648400 3.70706200
v -1.33741800 0.19648400 3.70706200
v -1.33741800 0.19648400 3.70706200
v -1.87712800 -0.00000000 3.37135500
v 3.13399400 0.15328200 2.51008600
v 3.13399400 0.15328200 2.51008600
v 3.13399400 0.15328200 2.51008600
v 2.82340200 0.00000000 2.39899000
v 3.13800000 -0.15358800 2.50891900
v 3.13800000 -0.15358800 2.50891900
v 3.13800000 -0.15358800 2.50891900
v -1.30179600 -0.12710100 3.73522800
v -1.30179600 -0.12710100 3.73522800
v 2.85209600 -0.22671200 2.40340500
v 2.85209600 -0.22671200 2.40340500
v -1.83788300 -0.40018200 3.37630300
v -1.83788300 -0.40018200 3.37630300
v -2.34821300 -0.49789900 2.86722700
v -2.34821300 -0.49789900 2.86722700
v -2.34821300 -0.49789900 2.86722700
v -1.33741800 -0.19648400 3.70706200
v -1.33741800 -0.19648400 3.70706200
v -1.33741800 -0.19648400 3.70706200
v -2.38916800 -0.00000000 2.86711300
v -2.38916800 -0.00000000 2.86711300
v -2.80938700 -0.00000000 2.25268400
vn 0.01229214 0.99931083 -0.03502524
vn 0.99659041 -0.08245446 0.00297106
vn 0.01489175 0.99988743 -0.00183361
vn -0.98267513 0.08040743 0.16698576
vn -0.99664692 0.08179358 0.00217530
vn 0.01038765 0.99970521 -0.02194538
vn 0.01656126 0.99984557 -0.00587886
vn 0.98336221 -0.08071244 -0.16273989
vn 0.00900564 0.99781878 -0.06539561
vn 0.98345358 -0.08071749 0.16218426
vn 0.00993975 0.99902382 -0.04304200
vn -0.98348936 0.08078426 -0.16193390
vn 0.01087931 0.99532573 -0.09596001
vn -0.82351670 0.06774440 -0.56323258
vn 0.98669954 -0.00026687 -0.16255446
vn 0.99999766 -0.00032351 -0.00213805
vn 0.98648168 0.00015019 0.16387151
vn 0.94550437 0.00015189 0.32560937
vn 0.00853106 -0.99791002 -0.06405328
vn 0.98354360 0.08072475 0.16163386
vn 0.01197941 -0.99933184 -0.03453065
vn 0.99661446 0.08220919 0.00112837
vn 0.94293576 0.07739695 0.32385470
vn 0.01075664 -0.99737188 -0.07164937
vn 0.01096613 0.99728190 -0.07285982
vn 0.94314383 -0.07741428 0.32324410
vn 0.01915224 0.98309818 -0.18207460
vn 0.87631644 -0.07477908 0.47589661
vn 0.01270414 0.97365658 -0.22766527
vn -0.70105494 0.03246205 -0.71236802
vn 0.70051314 -0.05749778 0.71131944
vn 0.82437402 -0.07081091 0.56159886
vn 0.02387484 0.97002885 -0.24181404
vn -0.70245551 0.05764945 -0.70938903
vn -0.82353262 0.06759160 -0.56322766
vn 0.01387921 0.98660768 -0.16251968
vn 0.87368638 -0.00071557 0.48648905
vn 0.70167326 -0.00000041 0.71249887
vn 0.82552306 0.00016331 0.56436837
vn 0.01178291 -0.99374839 -0.11101934
vn 0.87252299 0.07176957 0.48327297
vn 0.00931571 -0.99542289 -0.09511306
vn -0.82353756 -0.06753959 -0.56322668
vn 0.01223251 -0.99136343 -0.13057146
vn 0.82386967 0.06762069 0.56273102
vn 0.70051344 0.05749350 0.71131949
vn 0.62783023 0.05152405 0.77664308
vn -0.01074686 -0.94768516 -0.31902562
vn 0.62737749 0.00081054 0.77871485
vn 0.45008476 0.00766349 0.89295296
vn 0.02572299 0.97261367 -0.23099994
vn 0.63084772 -0.05177681 0.77417719
vn 0.02360998 0.96969709 -0.24316686
vn 0.01389374 -0.60645848 -0.79499376
vn -0.01760224 -0.91349612 -0.40646647
vn 0.46313903 0.02339029 0.88597694
vn 0.03901961 -0.22372808 -0.97387022
vn 0.34256654 0.00913558 0.93944915
vn -0.00258530 -0.97195227 -0.23516397
vn -0.70092759 -0.03263769 -0.71248530
vn -0.20833883 0.00250105 -0.97805352
vn -0.02261901 -0.88634115 -0.46247999
vn -0.45314237 0.00198410 -0.89143595
vn -0.02265089 -0.91126888 -0.41118849
vn -0.02139422 -0.91869403 -0.39439012
vn -0.63378117 -0.05202410 -0.77176092
vn -0.04045934 -0.03949105 -0.99840047
vn -0.00787283 -0.74231813 -0.67000135
vn -0.01192913 0.60041901 -0.79959659
vn -0.01291147 -0.06280222 -0.99794247
vn 0.00169895 0.71248685 -0.70168341
vn 0.02123883 -0.33707458 -0.94123836
vn -0.20618287 0.00347983 -0.97850729
vn -0.00834837 0.92029834 -0.39112821
vn -0.00930219 0.65635177 -0.75439765
vn 0.01800394 0.93521581 -0.35362021
vn -0.45256599 0.01591207 -0.89158893
vn -0.00643162 0.69557359 -0.71842607
vn 0.00207507 0.93548996 -0.35334717
vn 0.33830847 0.00236386 0.94103230
vn 0.01475871 0.95705812 -0.28952018
vn 0.04718645 -0.06895053 -0.99650352
vn 0.00281313 0.71596228 -0.69813330
vn -0.63176443 0.05186079 -0.77342366
vn -0.00218888 0.92658190 -0.37608669
vn -0.64069304 0.00084099 -0.76779667
vn -0.82353270 -0.06758620 -0.56322819
vn 0.00611374 -0.98621105 -0.16537951
vn -0.70258640 -0.05766160 -0.70925841
vn -0.82542008 -0.00000025 -0.56451899
vn -0.66255519 -0.00022139 -0.74901307
vn 0.00258623 0.99749090 -0.07074748
vn -0.87141406 0.07152040 -0.48530646
vn -0.87412061 0.00000003 -0.48570892
vn 0.00246425 -0.99748479 -0.07083795
vn -0.87141422 -0.07151854 -0.48530646
vn -0.94543140 0.00000202 -0.32582123
vn -0.98347624 -0.08104667 -0.16188243
vn 0.01022315 -0.99902329 -0.04298773
vn -0.00043483 -0.99741775 -0.07181666
vn -0.94286117 -0.07744938 -0.32405926
vn -0.98659929 -0.00013802 -0.16316194
vn -0.99999987 -0.00004125 0.00050369
vn 0.00005713 0.99743330 -0.07160176
vn -0.94284544 0.07737391 -0.32412305
vn 0.01065122 -0.99970575 -0.02179375
vn -0.99664726 -0.08179349 0.00201765
vn -0.98267207 -0.08039843 0.16700806
vn 0.01494768 -0.99988638 -0.00194777
vn -0.98672870 0.00000009 0.16237757
vn -0.94286752 -0.07692703 0.32416520
vn 0.02833550 -0.99744502 0.06557840
vn -0.94545155 -0.00000181 0.32576274
vn -0.94287076 0.07692901 0.32415530
vn 0.02828725 0.99744136 0.06565482
vn -0.87323661 0.07164509 0.48200083
vn 0.03816447 0.99138112 0.12532734
vn 0.03482930 0.99480473 0.09565811
vn 0.87140634 -0.07354158 -0.48501818
vn 0.03437640 0.99669537 0.07359762
vn 0.94294904 -0.07830128 -0.32359853
vn 0.96630163 -0.08000847 -0.24466261
vn 0.02456886 0.99924060 0.03024233
vn 0.94543021 -0.00015487 -0.32582463
vn 0.87376116 -0.00073699 -0.48635471
vn 0.94297553 0.07851832 -0.32346874
vn 0.03449721 -0.99664846 0.07417400
vn 0.96629464 0.08001261 -0.24468887
vn 0.02444655 -0.99925764 0.02977486
vn 0.01636218 -0.99984382 -0.00668016
vn 0.98319115 0.08069584 -0.16377832
vn 0.03466270 -0.99491314 0.09458507
vn 0.87124102 0.07483041 -0.48511802
vn 0.06429055 -0.98019230 0.18732264
vn 0.70231206 0.06143961 -0.70921291
vn 0.81985804 0.07559430 -0.56755466
vn 0.03818271 -0.99139307 0.12522723
vn -0.87323763 -0.07164603 0.48199884
vn 0.70301952 -0.00035906 -0.71117046
vn 0.82456076 -0.00065587 -0.56577303
vn 0.82235014 -0.07246996 -0.56434772
vn 0.06398385 0.98033932 0.18665711
vn 0.70248623 -0.06191717 -0.70899884
vn 0.62634104 0.00000089 -0.77954916
vn 0.08683199 -0.96495850 0.24761926
vn 0.63128762 0.05253390 -0.77376749
vn 0.63127889 -0.05264163 -0.77376729
vn 0.08657687 0.96519628 0.24678043
vn 0.45223752 -0.03852890 -0.89106495
vn 0.10313188 0.93838522 0.32984389
vn 0.06565436 0.97255483 0.22321875
vn -0.63056644 0.05255583 0.77435382
vn 0.03889229 0.99005124 0.13522548
vn -0.82352860 0.06760479 0.56323195
vn -0.70007927 0.05821623 0.71168805
vn 0.25485658 0.27127643 0.92814720
vn -0.53557802 0.02434972 0.84413463
vn 0.23137918 0.47847553 0.84706838
vn -0.53502205 0.05447515 0.84307998
vn 0.11345795 0.91342889 0.39086437
vn -0.62796005 0.00019508 0.77824555
vn 0.26620755 0.00478389 0.96390386
vn 0.10870045 0.92668387 0.35977941
vn 0.34125615 -0.00066175 -0.93997011
vn 0.44785248 0.00275156 -0.89410323
vn 0.10844425 -0.92720737 0.35850571
vn 0.26620655 -0.00523582 0.96390179
vn 0.34440047 0.00806607 -0.93878818
vn -0.53473646 -0.02396168 0.84467908
vn 0.25545554 -0.26188726 0.93067585
vn 0.44630315 0.03403838 -0.89423425
vn 0.10290639 -0.93881830 0.32867990
vn -0.63090232 -0.05304020 0.77404715
vn 0.06553880 -0.97251876 0.22340979
vn -0.82352885 -0.06760409 0.56323168
vn -0.70007907 -0.05821517 0.71168834
vn 0.03871161 -0.99004014 0.13535850
vn 0.23296699 -0.46609128 0.85351350
vn 0.11341136 -0.91340960 0.39092297
vn -0.52963648 -0.07120002 0.84523119
vn -0.82541981 0.00000060 0.56451939
vn -0.70166045 0.00000080 0.71251148
vn -0.87411933 0.00000008 0.48571124
vt 0.90637100 0.81896700
vt 0.98412300 0.35996300
vt 0.89772300 0.84671000
vt 0.94263700 0.90918500
vt 0.94711000 0.90945100
vt 0.90220000 0.84706100
vt 0.90254600 0.81868100
vt 0.98027900 0.35991800
vt 0.90982700 0.81853900
vt 0.98754100 0.35987500
vt 0.90658200 0.84657400
vt 0.95150800 0.90937900
vt 0.91694600 0.84132400
vt 0.96202600 0.90803200
vt 0.98035400 0.35641400
vt 0.98401800 0.35645800
vt 0.98761100 0.35659500
vt 0.99099500 0.35682200
vt 0.90882100 0.89650700
vt 0.98761800 0.35340000
vt 0.90531400 0.89598800
vt 0.98413200 0.35305600
vt 0.99100100 0.35387400
vt 0.91225400 0.89772400
vt 0.91332200 0.81743300
vt 0.99093000 0.35984900
vt 0.91641300 0.81577900
vt 0.99385900 0.35989100
vt 0.91913800 0.83908100
vt 0.96691500 0.46761600
vt 0.58230600 0.97180600
vt 0.99658600 0.35948200
vt 0.91934500 0.81328900
vt 0.96824600 0.46774400
vt 0.96313900 0.90785300
vt 0.91803000 0.84042300
vt 0.99404000 0.35713000
vt 0.58428100 0.97192200
vt 0.99662800 0.35750600
vt 0.91536400 0.89958000
vt 0.99403300 0.35442800
vt 0.91731600 0.87256500
vt 0.96208400 0.91351400
vt 0.91806300 0.90200600
vt 0.99663300 0.35519700
vt 0.58657600 0.97251900
vt 0.58578900 0.97524000
vt 0.92021600 0.90491200
vt 0.58381900 0.97472600
vt 0.58246700 0.97788300
vt 0.92338000 0.80724300
vt 0.58248000 0.97464800
vt 0.92164600 0.81043800
vt 0.93362000 0.46559900
vt 0.92174300 0.90814100
vt 0.58465700 0.97827700
vt 0.93154500 0.46665700
vt 0.58340200 0.98024700
vt 0.91935900 0.87484000
vt 0.96665400 0.46245600
vt 0.95689500 0.46518400
vt 0.92377800 0.88494600
vt 0.96098400 0.46438400
vt 0.92277700 0.88077200
vt 0.92092400 0.87691300
vt 0.96469900 0.46328400
vt 0.94941000 0.46583500
vt 0.92366700 0.89244800
vt 0.94851100 0.46635500
vt 0.94851100 0.46635500
vt 0.94218000 0.46678200
vt 0.94218000 0.46678200
vt 0.95693100 0.46620600
vt 0.92408900 0.82897100
vt 0.95693100 0.46620600
vt 0.92283300 0.83308200
vt 0.96109400 0.46649900
vt 0.94427400 0.46704900
vt 0.92409100 0.81706300
vt 0.58230600 0.98028800
vt 0.92409100 0.80490100
vt 0.93139500 0.46774400
vt 0.93139500 0.46774400
vt 0.96491400 0.46708200
vt 0.92078900 0.83696600
vt 0.96499400 0.46517200
vt 0.96319300 0.91300300
vt 0.91835000 0.87349300
vt 0.96792900 0.46215200
vt 0.96316000 0.91053600
vt 0.96836300 0.46493300
vt 0.91464200 0.84318000
vt 0.95967100 0.90861700
vt 0.95969500 0.91163500
vt 0.91512000 0.87057100
vt 0.95973200 0.91440900
vt 0.95576700 0.91245200
vt 0.95158100 0.91623800
vt 0.90725500 0.86687000
vt 0.91137000 0.86832800
vt 0.95580800 0.91547100
vt 0.95152700 0.91295400
vt 0.94713800 0.91312400
vt 0.91077200 0.84524900
vt 0.95574100 0.90916700
vt 0.90290100 0.86621000
vt 0.94718400 0.91650000
vt 0.94271300 0.91640100
vt 0.89840300 0.86643000
vt 0.94276900 0.91295400
vt 0.93862800 0.91583000
vt 0.89422500 0.86744700
vt 0.93858800 0.91245200
vt 0.93855300 0.90877300
vt 0.89360900 0.84555400
vt 0.93473000 0.90848900
vt 0.88971700 0.84351400
vt 0.89581300 0.81603700
vt 0.97331900 0.35972100
vt 0.89903900 0.81769500
vt 0.97668500 0.35987700
vt 0.97809000 0.35996300
vt 0.90041400 0.81809500
vt 0.97675900 0.35646700
vt 0.97337200 0.35661500
vt 0.97676200 0.35314700
vt 0.89798100 0.89700000
vt 0.97819000 0.35302200
vt 0.89939800 0.89667000
vt 0.90154700 0.89613900
vt 0.98036100 0.35300200
vt 0.89465800 0.89850400
vt 0.97338100 0.35359600
vt 0.89164400 0.90067500
vt 0.59812200 0.98000900
vt 0.97028100 0.35419100
vt 0.89022700 0.86922400
vt 0.93479300 0.91452600
vt 0.59537400 0.98000900
vt 0.97032300 0.35685000
vt 0.97023900 0.35959200
vt 0.89293500 0.81375000
vt 0.59270800 0.97936500
vt 0.59576200 0.97718200
vt 0.88919600 0.90319000
vt 0.59772500 0.97723900
vt 0.59384400 0.97676100
vt 0.89061100 0.81097400
vt 0.59496600 0.97361900
vt 0.88883000 0.80770900
vt 0.88346300 0.83745500
vt 0.93515700 0.49612800
vt 0.88629800 0.84079600
vt 0.93139500 0.90789500
vt 0.93181200 0.49686900
vt 0.93863300 0.49443100
vt 0.93863300 0.49443100
vt 0.93841000 0.49481200
vt 0.93841000 0.49481200
vt 0.88159200 0.83396600
vt 0.93478000 0.49392900
vt 0.96809900 0.49306000
vt 0.88822500 0.80581500
vt 0.59560900 0.97180600
vt 0.59618800 0.97396200
vt 0.88653700 0.90814100
vt 0.96803600 0.49136200
vt 0.59729800 0.97198700
vt 0.93855100 0.49300900
vt 0.93855100 0.49300900
vt 0.59745800 0.97392600
vt 0.88723900 0.90629600
vt 0.93492400 0.49170200
vt 0.88364100 0.87495400
vt 0.93144900 0.91296400
vt 0.93152200 0.49136200
vt 0.88666100 0.87174900
vt 0.93829500 0.49263900
vt 0.88159200 0.87812200
vt 0.93829500 0.49263900
vt 0.93141600 0.91053600
vt 0.93139500 0.49413000
vt 0.93475400 0.91163500
f 7/7/7 1/1/1 3/3/3
f 3/3/3 1/1/1 6/6/6
f 1/1/1 11/11/11 6/6/6
f 15/15/15 2/2/2 8/8/8
f 17/17/17 10/10/10 2/2/2
f 13/13/13 1/1/1 9/9/9
f 11/11/11 1/1/1 13/13/13
f 15/15/15 16/16/16 2/2/2
f 16/16/16 17/17/17 2/2/2
f 17/17/17 26/26/26 10/10/10
f 17/17/17 16/16/16 22/22/22
f 17/17/17 18/18/18 26/26/26
f 23/23/23 18/18/18 17/17/17
f 22/22/22 20/20/20 17/17/17
f 23/23/23 17/17/17 20/20/20
f 28/28/28 26/26/26 18/18/18
f 9/9/9 25/25/25 13/13/13
f 25/25/25 27/27/27 13/13/13
f 29/29/29 27/27/27 33/33/33
f 27/27/27 29/29/29 36/36/36
f 37/37/37 32/32/32 28/28/28
f 27/27/27 36/36/36 13/13/13
f 18/18/18 37/37/37 28/28/28
f 37/37/37 18/18/18 41/41/41
f 37/37/37 39/39/39 32/32/32
f 39/39/39 37/37/37 41/41/41
f 42/42/42 40/40/40 24/24/24
f 42/42/42 44/44/44 40/40/40
f 39/39/39 41/41/41 45/45/45
f 18/18/18 23/23/23 41/41/41
f 46/46/46 47/47/47 49/49/49
f 42/42/42 48/48/48 44/44/44
f 46/46/46 49/49/49 38/38/38
f 49/49/49 47/47/47 56/56/56
f 38/38/38 49/49/49 52/52/52
f 52/52/52 49/49/49 50/50/50
f 49/49/49 56/56/56 50/50/50
f 48/48/48 59/59/59 55/55/55
f 50/50/50 56/56/56 58/58/58
f 67/67/67 57/57/57 54/54/54
f 59/59/59 65/65/65 55/55/55
f 62/62/62 68/68/68 55/55/55
f 64/64/64 62/62/62 55/55/55
f 65/65/65 64/64/64 55/55/55
f 67/67/67 61/61/61 73/73/73
f 67/67/67 73/73/73 70/70/70
f 67/67/67 70/70/70 72/72/72
f 72/72/72 57/57/57 67/67/67
f 76/76/76 29/29/29 74/74/74
f 74/74/74 29/29/29 79/79/79
f 63/63/63 77/77/77 73/73/73
f 75/75/75 78/78/78 71/71/71
f 69/69/69 75/75/75 71/71/71
f 61/61/61 63/63/63 73/73/73
f 83/83/83 71/71/71 78/78/78
f 81/81/81 79/79/79 29/29/29
f 82/82/82 57/57/57 72/72/72
f 80/80/80 50/50/50 58/58/58
f 51/51/51 81/81/81 29/29/29
f 76/76/76 85/85/85 29/29/29
f 86/86/86 77/77/77 63/63/63
f 86/86/86 84/84/84 77/77/77
f 63/63/63 66/66/66 86/86/86
f 84/84/84 86/86/86 30/30/30
f 60/60/60 30/30/30 86/86/86
f 66/66/66 60/60/60 86/86/86
f 60/60/60 89/89/89 91/91/91
f 88/88/88 59/59/59 48/48/48
f 60/60/60 91/91/91 30/30/30
f 35/35/35 90/90/90 93/93/93
f 94/94/94 93/93/93 90/90/90
f 96/96/96 94/94/94 90/90/90
f 87/87/87 96/96/96 90/90/90
f 91/91/91 34/34/34 30/30/30
f 97/97/97 94/94/94 96/96/96
f 96/96/96 101/101/101 97/97/97
f 42/42/42 99/99/99 95/95/95
f 87/87/87 43/43/43 96/96/96
f 99/99/99 100/100/100 95/95/95
f 102/102/102 97/97/97 101/101/101
f 102/102/102 101/101/101 98/98/98
f 103/103/103 12/12/12 102/102/102
f 12/12/12 105/105/105 102/102/102
f 105/105/105 97/97/97 102/102/102
f 103/103/103 102/102/102 98/98/98
f 105/105/105 93/93/93 97/97/97
f 92/92/92 104/104/104 11/11/11
f 103/103/103 98/98/98 107/107/107
f 103/103/103 107/107/107 108/108/108
f 103/103/103 108/108/108 110/110/110
f 110/110/110 4/4/4 103/103/103
f 103/103/103 4/4/4 5/5/5
f 12/12/12 103/103/103 5/5/5
f 108/108/108 111/111/111 110/110/110
f 111/111/111 113/113/113 110/110/110
f 113/113/113 114/114/114 110/110/110
f 110/110/110 114/114/114 4/4/4
f 118/118/118 115/115/115 117/117/117
f 113/113/113 116/116/116 114/114/114
f 115/115/115 118/118/118 120/120/120
f 115/115/115 123/123/123 3/3/3
f 120/120/120 123/123/123 115/115/115
f 3/3/3 123/123/123 7/7/7
f 15/15/15 8/8/8 122/122/122
f 124/124/124 15/15/15 122/122/122
f 121/121/121 124/124/124 122/122/122
f 126/126/126 124/124/124 125/125/125
f 124/124/124 119/119/119 125/125/125
f 15/15/15 124/124/124 128/128/128
f 124/124/124 121/121/121 119/119/119
f 124/124/124 126/126/126 128/128/128
f 128/128/128 131/131/131 15/15/15
f 130/130/130 129/129/129 109/109/109
f 129/129/129 112/112/112 109/109/109
f 127/127/127 112/112/112 129/129/129
f 22/22/22 15/15/15 131/131/131
f 109/109/109 21/21/21 130/130/130
f 127/127/127 132/132/132 112/112/112
f 126/126/126 125/125/125 133/133/133
f 132/132/132 134/134/134 137/137/137
f 133/133/133 140/140/140 136/136/136
f 133/133/133 125/125/125 140/140/140
f 137/137/137 112/112/112 132/132/132
f 139/139/139 143/143/143 147/147/147
f 125/125/125 141/141/141 140/140/140
f 144/144/144 139/139/139 147/147/147
f 139/139/139 144/144/144 146/146/146
f 146/146/146 135/135/135 139/139/139
f 148/148/148 142/142/142 151/151/151
f 144/144/144 147/147/147 149/149/149
f 151/151/151 150/150/150 148/148/148
f 161/161/161 152/152/152 155/155/155
f 151/151/151 142/142/142 153/153/153
f 157/157/157 159/159/159 152/152/152
f 161/161/161 157/157/157 152/152/152
f 160/160/160 163/163/163 151/151/151
f 151/151/151 163/163/163 150/150/150
f 164/164/164 165/165/165 149/149/149
f 165/165/165 164/164/164 171/171/171
f 164/164/164 168/168/168 171/171/171
f 170/170/170 167/167/167 162/162/162
f 156/156/156 170/170/170 162/162/162
f 162/162/162 158/158/158 156/156/156
f 145/145/145 172/172/172 174/174/174
f 144/144/144 171/171/171 146/146/146
f 172/172/172 166/166/166 174/174/174
f 144/144/144 165/165/165 171/171/171
f 161/161/161 176/176/176 173/173/173
f 134/134/134 174/174/174 177/177/177
f 161/161/161 173/173/173 169/169/169
f 173/173/173 180/180/180 169/169/169
f 166/166/166 179/179/179 174/174/174
f 174/174/174 134/134/134 145/145/145
f 170/170/170 178/178/178 167/167/167
f 134/134/134 177/177/177 137/137/137
f 175/175/175 183/183/183 138/138/138
f 161/161/161 182/182/182 176/176/176
f 175/175/175 181/181/181 183/183/183
f 138/138/138 183/183/183 113/113/113
f 154/154/154 116/116/116 183/183/183
f 113/113/113 183/183/183 116/116/116
f 154/154/154 183/183/183 181/181/181
f 161/161/161 155/155/155 182/182/182
f 161/161/161 169/169/169 157/157/157
f 144/144/144 149/149/149 165/165/165
f 153/153/153 142/142/142 117/117/117
f 125/125/125 119/119/119 141/141/141
f 117/117/117 142/142/142 118/118/118
f 138/138/138 113/113/113 111/111/111
f 109/109/109 106/106/106 21/21/21
f 106/106/106 99/99/99 21/21/21
f 99/99/99 42/42/42 21/21/21
f 97/97/97 93/93/93 94/94/94
f 35/35/35 93/93/93 14/14/14
f 92/92/92 11/11/11 13/13/13
f 42/42/42 88/88/88 48/48/48
f 38/38/38 52/52/52 31/31/31
f 29/29/29 33/33/33 53/53/53
f 53/53/53 51/51/51 29/29/29
f 19/19/19 21/21/21 42/42/42
f 24/24/24 19/19/19 42/42/42
f 22/22/22 16/16/16 15/15/15

