# ('FARMS composite mesh',)
mtllib link_body_05_composite.mtl

o link_body_05
usemtl link_body_05_composite
v -4.00104900 -8.07248800 3.74662500
v -3.80236400 -6.99014100 5.73708200
v -3.80236400 -6.99014100 5.73708200
v -2.63439200 -8.44789000 4.47341600
v -5.51126800 -6.61352000 3.87417300
v -5.85074200 -7.02088800 1.97503700
v -4.62561400 -8.46675000 0.07679500
v -3.72323900 -8.93411400 -0.93722900
v -4.73340600 -8.04598800 2.21218900
v -4.59689700 -8.25569000 -1.97503900
v -0.93968800 -9.39897000 0.25817900
v -0.93968800 -9.39897000 0.25817900
v -0.94486000 -9.15648400 2.17580400
v -0.94486000 -9.15648400 2.17580400
v -3.06422400 -9.14148500 -2.26521300
v -3.20854500 -8.42401800 -4.01747600
v -4.82814700 -7.31796600 -4.05852500
v 0.01153700 -9.73200900 -2.08294000
v 0.01153700 -9.73200900 -2.08294000
v 0.04787200 -9.17556600 -3.84602600
v 0.04787200 -9.17556600 -3.84602600
v -0.91726700 -7.62255100 -5.44551400
v -0.91726700 -7.62255100 -5.44551400
v -0.91726700 -7.62255100 -5.44551400
v -3.81930500 -6.98997400 -5.70656900
v -3.81930500 -6.98997400 -5.70656900
v -1.16040800 -8.28028500 -4.12499700
v -1.44439500 -8.79030200 -2.10290600
v -2.89866600 -7.62385200 -1.06234400
v -2.41798800 -7.04180200 -4.12499700
v -1.60185600 -6.46088900 -6.12830600
v -1.60185600 -6.46088900 -6.12830600
v -3.88506700 -4.72775700 -4.15954900
v -3.88506700 -4.72775700 -4.15954900
v -2.59626700 -4.87607400 -6.27991100
v -2.59626700 -4.87607400 -6.27991100
v -3.21777700 -3.33363100 -6.38234200
v -3.21777700 -3.33363100 -6.38234200
v -3.21777700 -3.33363100 -6.38234200
v -5.41705700 -4.33810700 -6.35809900
v -5.41705700 -4.33810700 -6.35809900
v -5.41705700 -4.33810700 -6.35809900
v -4.41068200 -5.92991600 -6.17147100
v -4.41068200 -5.92991600 -6.17147100
v -4.41068200 -5.92991600 -6.17147100
v -6.16664400 -2.29616100 -6.47255800
v -6.16664400 -2.29616100 -6.47255800
v -6.16664400 -2.29616100 -6.47255800
v -6.16664400 -2.29616100 -6.47255800
v -5.37463300 -5.35627800 -5.75041200
v -5.37463300 -5.35627800 -5.75041200
v -5.37463300 -5.35627800 -5.75041200
v -5.37463300 -5.35627800 -5.75041200
v -5.37463300 -5.35627800 -5.75041200
v -6.72121000 -2.47360800 -5.65615200
v -6.72121000 -2.47360800 -5.65615200
v -6.88912100 -4.44021600 -3.90662400
v -6.88912100 -4.44021600 -3.90662400
v -7.64435900 -3.79967600 -1.97503900
v -7.78071500 -0.93859900 -3.90662200
v -6.51304100 -6.18798000 -1.99154600
v -6.51304100 -6.18798000 -1.99154600
v -6.43476000 -6.62050100 0.04590700
v -6.43476000 -6.62050100 0.04590700
v -8.06358200 -3.12159900 -0.00000100
v -8.28027600 -0.80297100 -1.99154600
v -8.44526600 0.81897800 0.00000100
v -8.11520700 -1.93705700 1.97503700
v -7.33271700 -4.69193700 1.99578900
v -7.33271700 -4.69193700 1.99578900
v -6.91164700 -4.34571900 3.96769500
v -6.91164700 -4.34571900 3.96769500
v -6.91164700 -4.34571900 3.96769500
v -5.42693700 -5.34452800 5.64917200
v -5.42693700 -5.34452800 5.64917200
v -7.75955100 -0.83004200 3.96643400
v -6.66182200 -2.62667400 5.69030700
v -6.66182200 -2.62667400 5.69030700
v -7.01449100 0.00000000 5.62442100
v -5.87550700 -2.11722800 6.97846800
v -5.87550700 -2.11722800 6.97846800
v -5.87550700 -2.11722800 6.97846800
v -5.20818300 -4.17087000 6.72535400
v -4.59306700 -5.55085100 6.34957600
v -4.59306700 -5.55085100 6.34957600
v -1.51038500 -7.22318700 6.42345800
v -2.44900500 -3.68098900 7.23062000
v -2.44900500 -3.68098900 7.23062000
v -2.44900500 -3.68098900 7.23062000
v -1.11222400 -6.10045000 6.91359600
v -1.11222400 -6.10045000 6.91359600
v -1.11222400 -6.10045000 6.91359600
v -2.29545600 -5.76350900 6.03939100
v -2.29545600 -5.76350900 6.03939100
v -2.29545600 -5.76350900 6.03939100
v -0.44895700 -7.49081700 6.16574600
v -0.44895700 -7.49081700 6.16574600
v -1.16040800 -8.28028500 4.12499600
v 0.33021700 -8.53389900 5.28961500
v 0.33021700 -8.53389900 5.28961500
v 0.33021700 -8.53389900 5.28961500
v -0.05026600 -8.98590500 4.16421500
v -0.05026600 -8.98590500 4.16421500
v -1.63077900 -8.18748300 5.58159200
v -1.63077900 -8.18748300 5.58159200
v -3.02535200 -6.37719800 4.00968800
v -3.02535200 -6.37719800 4.00968800
v -4.40216400 -4.90685300 2.03845800
v -4.40216400 -4.90685300 2.03845800
v -4.21694900 -3.81099600 4.12499600
v -2.77943400 -7.47553900 2.10290400
v -4.43023600 -5.26987300 -0.00000100
v -4.43023600 -5.26987300 -0.00000100
v -5.51095200 -1.24988200 -0.00000100
v -4.42252700 -4.83860300 -2.12048100
v -4.42252700 -4.83860300 -2.12048100
v -5.36629400 -0.85497700 -2.12048100
v -4.83440000 -0.99938000 -4.15954900
v -4.98664000 2.20810700 -3.14526600
v -3.60072300 -1.71728800 -6.43505700
v -3.60072300 -1.71728800 -6.43505700
v -3.68516100 -0.00886200 -6.49433900
v -3.68516100 -0.00886200 -6.49433900
v -3.63000800 1.52624100 -6.44322800
v -3.63000800 1.52624100 -6.44322800
v -3.26610100 3.20353800 -6.38660700
v -3.26610100 3.20353800 -6.38660700
v -6.19208000 2.13988100 -6.47649900
v -6.19208000 2.13988100 -6.47649900
v -6.72574900 2.37129800 -5.69850400
v -5.42027200 4.32961700 -6.35876200
v -5.42027200 4.32961700 -6.35876200
v -6.44986600 -0.11579800 -6.49843500
v -6.44986600 -0.11579800 -6.49843500
v -5.41949400 5.35853000 -5.67397200
v -2.62488500 4.81884600 -6.28409400
v -2.62488500 4.81884600 -6.28409400
v -4.51857300 5.80713500 -6.19558300
v -4.51857300 5.80713500 -6.19558300
v -1.60824900 6.45174200 -6.13232700
v -1.60824900 6.45174200 -6.13232700
v -1.60824900 6.45174200 -6.13232700
v -0.91297500 7.63429800 -5.43707000
v -0.91297500 7.63429800 -5.43707000
v -3.77753400 7.05187200 -5.67964400
v -3.77753400 7.05187200 -5.67964400
v -3.77753400 7.05187200 -5.67964400
v -3.90088200 4.69224500 -4.15955000
v -1.72231500 7.90366100 -4.04104700
v -1.72231500 7.90366100 -4.04104700
v -1.98203100 8.39763600 -2.08871400
v -1.98203100 8.39763600 -2.08871400
v -4.27628300 5.16692000 -2.12048100
v 0.38934300 9.60054900 -3.11677000
v 0.38934300 9.60054900 -3.11677000
v -0.17731900 8.81317100 -4.30967200
v -0.17731900 8.81317100 -4.30967200
v -0.17731900 8.81317100 -4.30967200
v -3.34553500 8.40981400 -3.92928500
v -3.34553500 8.40981400 -3.92928500
v -4.59831600 8.25260800 -1.98067900
v -3.14664000 9.17411200 -2.00726200
v -3.14664000 9.17411200 -2.00726200
v -6.03612800 6.02172900 -3.83619000
v -7.48776500 2.70590400 -3.90662400
v -7.90604700 3.06061300 -1.99154400
v -6.37023100 6.41251900 -1.91451100
v -7.54123200 4.63487500 0.00000000
v -5.96536600 7.15843800 -0.00000000
v -4.57003700 8.50833300 0.11112400
v -4.57003700 8.50833300 0.11112400
v -4.01799300 8.07162600 3.73327300
v -4.01799300 8.07162600 3.73327300
v -2.63470400 8.44656700 4.47588300
v -2.63470400 8.44656700 4.47588300
v -4.70153000 8.05869400 2.27126300
v -4.70153000 8.05869400 2.27126300
v -5.85073800 7.02088600 1.97503800
v -5.94441200 6.02609300 4.00186500
v -7.29034700 4.79798500 1.91450900
v -8.25171600 1.15092600 1.99154000
v -7.49700500 2.79143900 3.83619000
v -5.51274800 5.23761300 5.64875600
v -6.69787900 2.48268400 5.70459300
v -5.85393500 2.22926800 6.96887400
v -5.85393500 2.22926800 6.96887400
v -5.97219800 0.03488100 7.14185200
v -5.97219800 0.03488100 7.14185200
v -1.75991600 5.18792300 7.07496200
v -1.75991600 5.18792300 7.07496200
v -1.75991600 5.18792300 7.07496200
v -5.20805300 4.17044900 6.72580500
v -5.20805300 4.17044900 6.72580500
v -2.93951000 1.86781200 7.31891500
v -2.93951000 1.86781200 7.31891500
v -3.02534100 -0.79833800 7.38560800
v -3.02534100 -0.79833800 7.38560800
v -4.02894500 0.80389900 5.96503700
v -3.16241000 4.16980000 6.05242600
v -1.83103000 6.33745600 5.98856500
v -1.83103000 6.33745600 5.98856500
v -1.83103000 6.33745600 5.98856500
v -2.91274600 6.38564200 4.22323600
v -2.91274600 6.38564200 4.22323600
v -4.47315500 3.06731000 4.15215200
v -5.35055500 1.15514100 2.03845800
v -4.84820100 -0.80473100 4.15215100
v -4.68920000 4.04573300 2.10290400
v -3.33922900 6.79274300 2.20639500
v -3.33922900 6.79274300 2.20639500
v -0.89178400 9.17409500 2.16188900
v -0.89178400 9.17409500 2.16188900
v -0.89178400 9.17409500 2.16188900
v -0.89178400 9.17409500 2.16188900
v -3.62279500 6.71997600 -0.00000000
v -1.16040600 8.28028500 4.12499600
v -1.16040600 8.28028500 4.12499600
v -1.00339900 9.37804300 0.31050500
v -1.00339900 9.37804300 0.31050500
v -1.00339900 9.37804300 0.31050500
v -1.00339900 9.37804300 0.31050500
v 0.01788500 9.72871600 -2.10609100
v 0.01788500 9.72871600 -2.10609100
v -0.05331400 8.97206500 4.23161300
v -0.05331400 8.97206500 4.23161300
v -0.34479900 7.60784500 6.13596100
v -0.34479900 7.60784500 6.13596100
v -0.34479900 7.60784500 6.13596100
v -0.34479900 7.60784500 6.13596100
v -0.34479900 7.60784500 6.13596100
v 0.33285100 8.66415800 5.07603400
v 0.33285100 8.66415800 5.07603400
v 0.33285100 8.66415800 5.07603400
v -1.62890200 8.18893900 5.58040600
v -1.62890200 8.18893900 5.58040600
v -3.80235600 6.99014800 5.73708000
v -3.80235600 6.99014800 5.73708000
v -3.80235600 6.99014800 5.73708000
v -1.53454200 7.23113300 6.41309400
v -4.59306300 5.55084800 6.34957600
v -4.59306300 5.55084800 6.34957600
v -5.22741700 2.96039700 -0.00000000
v -3.67499100 -2.54102400 6.10659100
v -5.19054000 -2.06249500 2.10290400
vn -0.49556271 -0.81451846 0.30162439
vn -0.55185948 -0.68133321 0.48087021
vn -0.29235886 -0.52907673 0.79662043
vn -0.31166432 -0.88870576 0.33625499
vn -0.71732378 -0.60397119 0.34736924
vn -0.75374538 -0.63022177 0.18624826
vn -0.54455175 -0.83719510 0.05067291
vn -0.37384321 -0.92744475 0.00935311
vn -0.56360944 -0.80107353 0.20155791
vn -0.61758770 -0.76518619 -0.18186677
vn -0.20392933 -0.97439650 0.09467994
vn 0.66029947 0.75082728 -0.01621748
vn -0.21022472 -0.96761457 0.13974122
vn 0.66007660 0.72847751 -0.18335594
vn -0.32778220 -0.92895062 -0.17207432
vn -0.33683821 -0.83087142 -0.44293646
vn -0.64300816 -0.67323848 -0.36508964
vn 0.53121937 0.82535127 0.19131455
vn -0.17882270 -0.97410593 -0.13834770
vn -0.15697093 -0.88244392 -0.44345559
vn 0.51087853 0.79756620 0.32076672
vn -0.10276097 -0.74393028 -0.66030896
vn 0.59678707 0.66678465 0.44636691
vn -0.03729823 -0.52261614 -0.85175185
vn -0.45772592 -0.70092883 -0.54697875
vn -0.06093506 -0.45341369 -0.88921479
vn 0.57454946 0.73075466 0.36863333
vn 0.61590871 0.76611892 0.18362534
vn 0.76546989 0.63803559 0.08346512
vn 0.73357913 0.58854768 0.33981361
vn -0.03146409 -0.40190601 -0.91514019
vn 0.69863308 0.55891065 0.44668859
vn 0.91742823 0.23323408 0.32237759
vn 0.80082379 0.48728285 0.34819058
vn 0.01239298 -0.07988244 -0.99672725
vn 0.77783333 0.43781471 0.45088089
vn 0.01677645 -0.04805139 -0.99870397
vn 0.88618625 0.22319835 0.40602515
vn 0.80909162 0.35701438 0.46680990
vn 0.00965063 -0.06914103 -0.99756022
vn -0.56620113 -0.43970483 -0.69719147
vn -0.81036556 -0.32481536 -0.48765012
vn -0.56620113 -0.43970483 -0.69719147
vn -0.02508197 -0.21210098 -0.97692583
vn -0.59003247 -0.57688762 -0.56485605
vn -0.74613277 -0.32962432 -0.57847531
vn 0.01236979 -0.03063244 -0.99945417
vn -0.81036556 -0.32481536 -0.48765012
vn -0.81049554 -0.11210395 -0.57491711
vn -0.69876475 -0.56285492 -0.44149990
vn -0.74613277 -0.32962432 -0.57847531
vn -0.81036556 -0.32481536 -0.48765012
vn -0.56620113 -0.43970483 -0.69719147
vn -0.80085947 -0.35841687 -0.47975146
vn -0.86765041 -0.18679460 -0.46074998
vn -0.74613277 -0.32962432 -0.57847531
vn -0.76993635 -0.53287938 -0.35105210
vn -0.88476972 -0.32199045 -0.33690459
vn -0.93210118 -0.32344703 -0.16300124
vn -0.93834820 -0.06989395 -0.33855205
vn -0.90039550 -0.42278911 -0.10265144
vn -0.74805983 -0.62370799 -0.22670430
vn -0.75762279 -0.65247112 0.01700406
vn -0.90583951 -0.42215226 -0.03524569
vn -0.96478011 -0.26302572 -0.00409990
vn -0.98520101 -0.06059576 -0.16033439
vn -0.99748753 0.07061678 -0.00564810
vn -0.97353112 -0.15789794 0.16524347
vn -0.82255266 -0.52263082 0.22419668
vn -0.93539744 -0.33089996 0.12464689
vn -0.80263992 -0.50849177 0.31177762
vn -0.92582863 -0.23851924 0.29317217
vn -0.79452922 -0.36830939 0.48277481
vn -0.72663749 -0.39963205 0.55883108
vn -0.68756734 -0.55954213 0.46277830
vn -0.94036705 -0.06914506 0.33305972
vn -0.88171791 -0.15244085 0.44646984
vn -0.76935638 -0.34316823 0.53881938
vn -0.87811821 0.01406057 0.47823709
vn -0.82769847 -0.09114247 0.55372222
vn -0.11837688 -0.10448858 0.98745585
vn -0.74945116 -0.31528446 0.58216721
vn -0.47925552 -0.31477558 0.81928657
vn -0.60676387 -0.56937563 0.55466116
vn -0.35414563 -0.41116819 0.83995333
vn -0.10499086 -0.51267898 0.85213683
vn 0.78043636 0.29663245 -0.55038921
vn -0.13315718 -0.16253981 0.97767580
vn 0.61296890 0.42587459 -0.66550730
vn 0.61296890 0.42587459 -0.66550730
vn 0.58372583 0.58263761 -0.56550647
vn -0.11432730 -0.33185598 0.93637646
vn 0.61296890 0.42587459 -0.66550730
vn 0.62652108 0.61415475 -0.47988049
vn 0.81069380 0.37357290 -0.45079801
vn 0.05061398 -0.58128898 0.81212151
vn 0.57480267 0.66045585 -0.48311486
vn 0.60445245 0.71263941 -0.35606504
vn -0.10133409 -0.91085403 0.40009542
vn 0.00813552 -0.64765523 0.76189009
vn 0.48527665 0.74415345 -0.45906668
vn 0.50261697 0.76878295 -0.39540986
vn -0.14727096 -0.94541640 0.29068729
vn -0.12317144 -0.64388759 0.75514076
vn -0.22372958 -0.87653358 0.42618536
vn 0.72702182 0.61360073 -0.30811269
vn 0.83628016 0.40493164 -0.36968347
vn 0.93575039 0.30858128 -0.17073019
vn 0.83910141 0.52667563 -0.13609413
vn 0.88797795 0.30824840 -0.34128887
vn 0.74376901 0.64623246 -0.17085452
vn 0.84601108 0.53312136 -0.00684578
vn 0.96570930 0.25961687 -0.00214995
vn 0.99452839 0.10443561 0.00254810
vn 0.95710991 0.24365238 0.15676140
vn 0.82837678 0.52620169 0.19210334
vn 0.98489817 0.07204582 0.15743252
vn 0.93578344 0.08880321 0.34120866
vn 0.95261921 -0.16640656 0.25460852
vn 0.88842332 0.15825826 0.43088086
vn 0.02154390 -0.03075872 -0.99929463
vn 0.01248180 -0.00037679 -0.99992203
vn 0.89815079 -0.00575427 0.43964991
vn 0.90328177 -0.12883650 0.40924712
vn 0.02041665 0.03106205 -0.99930892
vn 0.01675039 0.04649080 -0.99877827
vn 0.86507729 -0.26159151 0.42803173
vn 0.01162991 0.02927300 -0.99950380
vn -0.78257286 0.18924172 -0.59309973
vn -0.84347010 0.20851873 -0.49505366
vn 0.01075949 0.06598853 -0.99776237
vn -0.74211161 0.36255492 -0.56375907
vn 0.00152935 -0.00123627 -0.99999807
vn -0.87315167 -0.00187249 -0.48744503
vn -0.70920166 0.47711645 -0.51903073
vn 0.01323352 0.07654811 -0.99697806
vn 0.78047618 -0.44171472 0.44243082
vn -0.60643726 0.54802246 -0.57611217
vn -0.02218896 0.19637623 -0.98027753
vn -0.03072186 0.39886506 -0.91649486
vn 0.60758128 -0.63652358 0.47506075
vn 0.75059694 -0.51779215 0.41048206
vn -0.07219001 0.66474443 -0.74357478
vn 0.57300077 -0.67643618 0.46271396
vn -0.62708225 0.65388298 -0.42332598
vn -0.17096297 0.79846319 -0.57725922
vn -0.06732205 0.48300560 -0.87302539
vn 0.84876365 -0.39574273 0.35069639
vn 0.77669294 -0.54635051 0.31344728
vn 0.53936173 -0.75808775 0.36659500
vn 0.76961222 -0.62386979 0.13595412
vn 0.53908788 -0.81482884 0.21316242
vn 0.88660759 -0.43232364 0.16438749
vn 0.52754429 -0.80015958 0.28537986
vn -0.18397715 0.92380707 -0.33575721
vn 0.52067831 -0.78612557 0.33301756
vn -0.08702844 0.71636124 -0.69228074
vn -0.16850474 0.84514337 -0.50728575
vn -0.59853416 0.72616292 -0.33829613
vn -0.18858917 0.85310112 -0.48646953
vn -0.62707094 0.75434261 -0.19429167
vn -0.52793481 0.82597246 -0.19762169
vn -0.21833315 0.97258476 -0.08005945
vn -0.76921698 0.53859661 -0.34382980
vn -0.91389043 0.23195431 -0.33316886
vn -0.95179175 0.25822784 -0.16556223
vn -0.80896888 0.56358353 -0.16716147
vn -0.92150138 0.38835900 -0.00353432
vn -0.76493612 0.64406069 -0.00765278
vn -0.67072444 0.74146473 -0.01894147
vn -0.27687420 0.95134728 0.13519996
vn -0.59680164 0.69903897 0.39391918
vn -0.34338394 0.92479523 0.16383302
vn -0.45398062 0.76276767 0.46052912
vn -0.27321184 0.91314712 0.30251881
vn -0.37454349 0.91203810 0.16704390
vn -0.68432245 0.69325866 0.22604253
vn -0.75579337 0.63026114 0.17761553
vn -0.76168169 0.54082344 0.35686275
vn -0.89735068 0.40722953 0.17007605
vn -0.98049144 0.10447885 0.16649536
vn -0.91408704 0.24126532 0.32593855
vn -0.72426202 0.46681622 0.50747132
vn -0.84341469 0.22092982 0.48973634
vn -0.11673771 0.11020508 0.98702946
vn -0.79822035 0.20103255 0.56782937
vn -0.82432723 0.00554311 0.56608647
vn -0.09814120 0.00133132 0.99517161
vn 0.71171219 -0.40144246 -0.57646310
vn 0.54079997 -0.55984530 -0.62778072
vn -0.13159566 0.26501933 0.95522109
vn -0.74159189 0.35974464 0.56623781
vn -0.16449208 0.22046451 0.96142486
vn -0.09703102 0.08103838 0.99197669
vn 0.80191191 -0.16974414 -0.57282127
vn 0.81633306 0.06754247 -0.57361865
vn -0.09392246 -0.03561671 0.99494222
vn 0.87310972 -0.06708284 -0.48288643
vn 0.78913459 -0.33856770 -0.51248269
vn 0.73426250 -0.46554239 -0.49409398
vn 0.61865609 -0.67763801 -0.39758190
vn 0.54079997 -0.55984530 -0.62778072
vn 0.61865609 -0.67763801 -0.39758190
vn 0.78089375 -0.51766442 -0.34961192
vn 0.90896352 -0.24965263 -0.33385458
vn 0.98372472 -0.08572959 -0.15791175
vn 0.94207033 0.06067356 -0.32988213
vn 0.92376643 -0.34396811 -0.16834943
vn 0.69118603 -0.71261541 -0.12017130
vn 0.80851753 -0.55814316 -0.18648221
vn 0.69118603 -0.71261541 -0.12017130
vn 0.67718178 -0.70020302 -0.22614281
vn -0.21702994 0.96634347 0.13812424
vn 0.52694272 -0.79838329 -0.29140264
vn 0.82911864 -0.55904120 0.00593391
vn 0.50844351 -0.77252483 -0.38038216
vn 0.66880244 -0.65930058 -0.34354918
vn 0.69118603 -0.71261541 -0.12017130
vn 0.55119924 -0.82668876 0.11298270
vn 0.71363805 -0.69993902 -0.02839198
vn -0.20522775 0.97315689 0.10415010
vn 0.54119059 -0.81018614 0.22519139
vn -0.17468851 0.98026255 -0.09257032
vn 0.51114634 -0.75459808 -0.41147436
vn -0.15377684 0.94408649 0.29163913
vn 0.61865609 -0.67763801 -0.39758190
vn 0.54079997 -0.55984530 -0.62778072
vn 0.63811822 -0.61426027 -0.46420841
vn 0.47886968 -0.75562678 -0.44689148
vn 0.02630651 0.60618926 0.79488525
vn 0.48499529 -0.74268585 -0.46173293
vn 0.01178945 0.70448529 0.70962066
vn -0.12136338 0.91339630 0.38855903
vn -0.12123367 0.65901047 0.74229886
vn -0.23318373 0.87419587 0.42591892
vn -0.38171618 0.76068358 0.52502690
vn -0.59326007 0.65929304 0.46192551
vn -0.29350248 0.52971293 0.79577667
vn -0.08520233 0.47681154 0.87486646
vn -0.22679389 0.37890267 0.89721642
vn -0.62132247 0.52708155 0.57977878
vn 0.97301954 -0.23052389 0.00957631
vn 0.83802027 0.21057890 -0.50336722
vn 0.97169869 0.17620103 -0.15733676
vt 0.15271700 0.69569200
vt 0.15203000 0.68444600
vt 0.14313600 0.26294600
vt 0.14369700 0.69141600
vt 0.16310700 0.69508700
vt 0.16490500 0.70574200
vt 0.15607600 0.71620600
vt 0.14978700 0.72168400
vt 0.15729300 0.70434700
vt 0.15554900 0.72751100
vt 0.13143400 0.71449800
vt 0.49214600 0.64264600
vt 0.13188700 0.70385000
vt 0.49172300 0.63207700
vt 0.14511500 0.72891100
vt 0.14591200 0.73851200
vt 0.15691300 0.73892700
vt 0.49864400 0.65565300
vt 0.12460200 0.72728200
vt 0.12416100 0.73692800
vt 0.49778100 0.66551200
vt 0.13063000 0.74573200
vt 0.48880100 0.67452600
vt 0.28208400 0.34195700
vt 0.14998600 0.74774800
vt 0.28454900 0.32249700
vt 0.48854500 0.66707400
vt 0.48778000 0.65576100
vt 0.47654100 0.65004000
vt 0.47837000 0.66714700
vt 0.28832000 0.33702600
vt 0.48233400 0.67843000
vt 0.23074800 0.43079500
vt 0.46488300 0.66757700
vt 0.29673400 0.32994100
vt 0.47315800 0.67943400
vt 0.30504400 0.32534500
vt 0.21862500 0.42284300
vt 0.46639600 0.68020100
vt 0.29868800 0.31105900
vt 0.29868800 0.31105900
vt 0.22535100 0.97757200
vt 0.29023700 0.31822700
vt 0.29023700 0.31822700
vt 0.15407300 0.75027400
vt 0.98766800 0.83968800
vt 0.30971400 0.30546100
vt 0.22719100 0.98581400
vt 0.21614200 0.41766600
vt 0.16068400 0.74807100
vt 0.97023900 0.83599000
vt 0.22719100 0.97180600
vt 0.29301800 0.31168200
vt 0.21176500 0.43097300
vt 0.21143800 0.41978900
vt 0.98852500 0.83599000
vt 0.17129700 0.73806900
vt 0.20132700 0.42975000
vt 0.19056300 0.42792900
vt 0.20177200 0.41425900
vt 0.19049800 0.43713700
vt 0.16874900 0.72769300
vt 0.16851100 0.71648000
vt 0.17916900 0.43857400
vt 0.17966000 0.42502900
vt 0.19107000 0.41434400
vt 0.18033400 0.40597700
vt 0.16896000 0.41859600
vt 0.17529300 0.70557000
vt 0.16851900 0.43056700
vt 0.17295200 0.69450300
vt 0.15780300 0.42716800
vt 0.12251300 0.27766300
vt 0.13234000 0.27206000
vt 0.16318200 0.68502800
vt 0.15827000 0.41149200
vt 0.14869000 0.41730000
vt 0.12413000 0.28710600
vt 0.14947600 0.40487400
vt 0.14188900 0.41230800
vt 0.12932500 0.28987200
vt 0.12932500 0.28987200
vt 0.13376700 0.27851200
vt 0.15773200 0.68099400
vt 0.13786500 0.27088800
vt 0.15835000 0.26162900
vt 0.29417400 0.42222300
vt 0.15208900 0.28120600
vt 0.03886000 0.98784400
vt 0.03886000 0.97180600
vt 0.48514200 0.60638000
vt 0.16098300 0.26782500
vt 0.04437100 0.97780000
vt 0.47708200 0.61114000
vt 0.28813300 0.43366400
vt 0.16540900 0.26016000
vt 0.49185500 0.61034900
vt 0.48880600 0.62142000
vt 0.12416100 0.68621900
vt 0.17060900 0.25442400
vt 0.49864400 0.61510400
vt 0.49706800 0.62120700
vt 0.12636600 0.69261200
vt 0.15757100 0.25632600
vt 0.13730900 0.68500500
vt 0.47359100 0.62217900
vt 0.27662700 0.43796400
vt 0.26461700 0.43141300
vt 0.46217600 0.63318700
vt 0.27600200 0.42495500
vt 0.47711200 0.63256500
vt 0.46261100 0.64440000
vt 0.25344300 0.43370300
vt 0.25195200 0.41263600
vt 0.24167600 0.43161600
vt 0.46179000 0.65621100
vt 0.24027600 0.41062400
vt 0.22939800 0.41120800
vt 0.23423400 0.39362000
vt 0.21776700 0.41433300
vt 0.31384500 0.32231200
vt 0.32326500 0.32123200
vt 0.21703700 0.40504800
vt 0.21703700 0.39657300
vt 0.33176700 0.32113700
vt 0.34116700 0.32304700
vt 0.21722800 0.38703700
vt 0.33422900 0.30395100
vt 0.21703700 0.39516600
vt 0.21263200 0.39516500
vt 0.34660500 0.30841500
vt 0.21703700 0.38198500
vt 0.32166700 0.30292100
vt 0.21663800 0.40731900
vt 0.21345500 0.37656100
vt 0.35032000 0.32681800
vt 0.21785500 0.37758400
vt 0.21668100 0.37207500
vt 0.35508600 0.31396000
vt 0.35970400 0.33307700
vt 0.96686700 0.61304300
vt 0.21898100 0.36768800
vt 0.36643000 0.33737100
vt 0.96338600 0.61787100
vt 0.21428300 0.36367200
vt 0.68184300 0.81441800
vt 0.36218900 0.31852800
vt 0.22880200 0.37914900
vt 0.23013500 0.35954800
vt 0.95498700 0.61347300
vt 0.24063100 0.35681200
vt 0.94394900 0.61304300
vt 0.23970900 0.37661200
vt 0.95133000 0.62768600
vt 0.70277000 0.80040300
vt 0.95756800 0.62327200
vt 0.37310900 0.34195700
vt 0.70088300 0.80687200
vt 0.20499600 0.35515900
vt 0.68173700 0.80501900
vt 0.19384000 0.35868700
vt 0.19457700 0.35022600
vt 0.68124200 0.79455300
vt 0.20325300 0.37428800
vt 0.20257700 0.39495600
vt 0.19194200 0.39371500
vt 0.19261200 0.37264300
vt 0.18134500 0.38421100
vt 0.18228800 0.36726900
vt 0.18233300 0.35673800
vt 0.67320900 0.78283000
vt 0.16237400 0.35652900
vt 0.67686300 0.76262700
vt 0.15873100 0.35081600
vt 0.68470100 0.75845800
vt 0.67285500 0.77078700
vt 0.17026300 0.35877500
vt 0.17137300 0.36712900
vt 0.15994300 0.37187700
vt 0.17086300 0.38220200
vt 0.16944400 0.40323800
vt 0.15978200 0.39242100
vt 0.15080200 0.37431300
vt 0.14961400 0.39139800
vt 0.12946300 0.31394000
vt 0.14281100 0.39014300
vt 0.14138600 0.40156700
vt 0.12867500 0.30178100
vt 0.29191700 0.37298100
vt 0.97023900 0.96930600
vt 0.15666000 0.33032400
vt 0.14472100 0.37865300
vt 0.13375700 0.32470000
vt 0.14882100 0.31192700
vt 0.29321900 0.39222500
vt 0.29408100 0.40691500
vt 0.14825200 0.29716100
vt 0.28530800 0.39922900
vt 0.28563000 0.37997300
vt 0.28565100 0.36688800
vt 0.97885700 0.73026800
vt 0.97525400 0.96518600
vt 0.99020100 0.73457200
vt 0.27525000 0.36784100
vt 0.27458100 0.38746200
vt 0.26278800 0.39902700
vt 0.27514600 0.40903600
vt 0.26295600 0.38256700
vt 0.05977100 0.98750700
vt 0.26379100 0.36626500
vt 0.05977100 0.97180600
vt 0.26456200 0.35099400
vt 0.69465200 0.77124200
vt 0.99141800 0.68179400
vt 0.25147500 0.36721800
vt 0.98258200 0.67555800
vt 0.27539700 0.35587600
vt 0.04957200 0.97273100
vt 0.93139500 0.62098400
vt 0.25425000 0.35022600
vt 0.69388800 0.78154500
vt 0.94544400 0.62592800
vt 0.70003800 0.79488500
vt 0.97868800 0.68164700
vt 0.69992500 0.75965200
vt 0.97023900 0.73457200
vt 0.98665600 0.96930600
vt 0.28711600 0.35855400
vt 0.97023900 0.67555800
vt 0.16608200 0.34376700
vt 0.97337600 0.68191300
vt 0.17060900 0.34966300
vt 0.70277000 0.75486400
vt 0.15756200 0.34700700
vt 0.69128700 0.75217500
vt 0.67987800 0.75125600
vt 0.15114100 0.36091900
vt 0.14311700 0.34035900
vt 0.15817100 0.34166700
vt 0.13785100 0.33236100
vt 0.14724800 0.37013200
vt 0.25126100 0.38928900
vt 0.28699300 0.41723300
vt 0.26390300 0.41651900
f 1/1/1 2/2/2 5/5/5
f 2/2/2 1/1/1 4/4/4
f 1/1/1 8/8/8 4/4/4
f 6/6/6 1/1/1 5/5/5
f 9/9/9 1/1/1 6/6/6
f 8/8/8 1/1/1 7/7/7
f 7/7/7 1/1/1 9/9/9
f 7/7/7 9/9/9 6/6/6
f 10/10/10 8/8/8 7/7/7
f 15/15/15 8/8/8 10/10/10
f 13/13/13 4/4/4 8/8/8
f 11/11/11 8/8/8 15/15/15
f 11/11/11 13/13/13 8/8/8
f 15/15/15 17/17/17 16/16/16
f 15/15/15 16/16/16 20/20/20
f 15/15/15 10/10/10 17/17/17
f 15/15/15 20/20/20 19/19/19
f 15/15/15 19/19/19 11/11/11
f 23/23/23 27/27/27 21/21/21
f 25/25/25 22/22/22 20/20/20
f 20/20/20 16/16/16 25/25/25
f 27/27/27 28/28/28 21/21/21
f 18/18/18 21/21/21 28/28/28
f 28/28/28 29/29/29 12/12/12
f 12/12/12 18/18/18 28/28/28
f 28/28/28 27/27/27 30/30/30
f 28/28/28 30/30/30 29/29/29
f 29/29/29 30/30/30 34/34/34
f 30/30/30 32/32/32 36/36/36
f 23/23/23 32/32/32 30/30/30
f 30/30/30 36/36/36 34/34/34
f 30/30/30 27/27/27 23/23/23
f 39/39/39 34/34/34 36/36/36
f 40/40/40 37/37/37 35/35/35
f 40/40/40 35/35/35 31/31/31
f 31/31/31 44/44/44 40/40/40
f 53/53/53 41/41/41 43/43/43
f 47/47/47 37/37/37 40/40/40
f 48/48/48 42/42/42 52/52/52
f 46/46/46 51/51/51 56/56/56
f 58/58/58 55/55/55 54/54/54
f 17/17/17 57/57/57 50/50/50
f 50/50/50 25/25/25 17/17/17
f 25/25/25 50/50/50 45/45/45
f 57/57/57 17/17/17 62/62/62
f 61/61/61 59/59/59 58/58/58
f 59/59/59 60/60/60 58/58/58
f 58/58/58 60/60/60 55/55/55
f 17/17/17 10/10/10 62/62/62
f 61/61/61 64/64/64 65/65/65
f 10/10/10 63/63/63 62/62/62
f 61/61/61 65/65/65 59/59/59
f 66/66/66 65/65/65 67/67/67
f 59/59/59 65/65/65 66/66/66
f 68/68/68 67/67/67 65/65/65
f 70/70/70 68/68/68 65/65/65
f 70/70/70 65/65/65 64/64/64
f 72/72/72 68/68/68 70/70/70
f 6/6/6 69/69/69 63/63/63
f 5/5/5 69/69/69 6/6/6
f 5/5/5 71/71/71 69/69/69
f 73/73/73 74/74/74 78/78/78
f 75/75/75 71/71/71 5/5/5
f 72/72/72 76/76/76 68/68/68
f 72/72/72 77/77/77 76/76/76
f 76/76/76 77/77/77 79/79/79
f 80/80/80 79/79/79 77/77/77
f 83/83/83 82/82/82 78/78/78
f 83/83/83 78/78/78 74/74/74
f 85/85/85 83/83/83 74/74/74
f 83/83/83 85/85/85 86/86/86
f 81/81/81 83/83/83 88/88/88
f 83/83/83 86/86/86 92/92/92
f 88/88/88 83/83/83 92/92/92
f 86/86/86 96/96/96 92/92/92
f 93/93/93 89/89/89 90/90/90
f 97/97/97 94/94/94 91/91/91
f 86/86/86 100/100/100 96/96/96
f 94/94/94 97/97/97 98/98/98
f 98/98/98 97/97/97 101/101/101
f 99/99/99 105/105/105 103/103/103
f 101/101/101 102/102/102 98/98/98
f 86/86/86 104/104/104 100/100/100
f 86/86/86 3/3/3 104/104/104
f 105/105/105 2/2/2 4/4/4
f 103/103/103 105/105/105 4/4/4
f 102/102/102 14/14/14 98/98/98
f 13/13/13 103/103/103 4/4/4
f 106/106/106 98/98/98 14/14/14
f 94/94/94 98/98/98 106/106/106
f 110/110/110 95/95/95 107/107/107
f 108/108/108 110/110/110 107/107/107
f 111/111/111 109/109/109 106/106/106
f 106/106/106 14/14/14 111/111/111
f 112/112/112 111/111/111 29/29/29
f 14/14/14 29/29/29 111/111/111
f 112/112/112 109/109/109 111/111/111
f 115/115/115 114/114/114 113/113/113
f 114/114/114 108/108/108 113/113/113
f 29/29/29 116/116/116 112/112/112
f 29/29/29 34/34/34 116/116/116
f 118/118/118 117/117/117 115/115/115
f 115/115/115 117/117/117 114/114/114
f 118/118/118 115/115/115 33/33/33
f 119/119/119 117/117/117 118/118/118
f 124/124/124 119/119/119 118/118/118
f 120/120/120 118/118/118 33/33/33
f 123/123/123 118/118/118 120/120/120
f 124/124/124 118/118/118 123/123/123
f 127/127/127 119/119/119 124/124/124
f 128/128/128 126/126/126 125/125/125
f 128/128/128 125/125/125 122/122/122
f 129/129/129 134/134/134 130/130/130
f 132/132/132 129/129/129 130/130/130
f 131/131/131 126/126/126 128/128/128
f 128/128/128 122/122/122 133/133/133
f 60/60/60 130/130/130 134/134/134
f 134/134/134 49/49/49 55/55/55
f 60/60/60 134/134/134 55/55/55
f 133/133/133 122/122/122 47/47/47
f 135/135/135 132/132/132 130/130/130
f 138/138/138 132/132/132 135/135/135
f 131/131/131 136/136/136 126/126/126
f 131/131/131 140/140/140 136/136/136
f 139/139/139 140/140/140 131/131/131
f 148/148/148 137/137/137 142/142/142
f 147/147/147 140/140/140 139/139/139
f 144/144/144 150/150/150 141/141/141
f 147/147/147 143/143/143 140/140/140
f 148/148/148 142/142/142 149/149/149
f 152/152/152 150/150/150 154/154/154
f 153/153/153 149/149/149 151/151/151
f 153/153/153 148/148/148 149/149/149
f 144/144/144 156/156/156 150/150/150
f 150/150/150 156/156/156 154/154/154
f 155/155/155 158/158/158 160/160/160
f 147/147/147 157/157/157 143/143/143
f 158/158/158 146/146/146 160/160/160
f 161/161/161 159/159/159 164/164/164
f 159/159/159 161/161/161 162/162/162
f 163/163/163 155/155/155 160/160/160
f 145/145/145 164/164/164 159/159/159
f 165/165/165 164/164/164 135/135/135
f 166/166/166 164/164/164 165/165/165
f 145/145/145 135/135/135 164/164/164
f 166/166/166 167/167/167 164/164/164
f 161/161/161 164/164/164 167/167/167
f 167/167/167 168/168/168 169/169/169
f 166/166/166 168/168/168 167/167/167
f 170/170/170 161/161/161 167/167/167
f 170/170/170 167/167/167 169/169/169
f 170/170/170 169/169/169 178/178/178
f 161/161/161 170/170/170 162/162/162
f 171/171/171 175/175/175 163/163/163
f 173/173/173 171/171/171 176/176/176
f 173/173/173 175/175/175 171/171/171
f 170/170/170 178/178/178 177/177/177
f 169/169/169 180/180/180 178/178/178
f 178/178/178 180/180/180 179/179/179
f 172/172/172 178/178/178 179/179/179
f 172/172/172 177/177/177 178/178/178
f 181/181/181 180/180/180 168/168/168
f 181/181/181 182/182/182 180/180/180
f 182/182/182 179/179/179 180/180/180
f 169/169/169 168/168/168 180/180/180
f 181/181/181 76/76/76 182/182/182
f 76/76/76 184/184/184 182/182/182
f 183/183/183 179/179/179 182/182/182
f 183/183/183 182/182/182 184/184/184
f 184/184/184 186/186/186 183/183/183
f 79/79/79 186/186/186 184/184/184
f 76/76/76 79/79/79 184/184/184
f 185/185/185 188/188/188 194/194/194
f 79/79/79 187/187/187 186/186/186
f 194/194/194 191/191/191 185/185/185
f 193/193/193 185/185/185 191/191/191
f 192/192/192 183/183/183 186/186/186
f 195/195/195 199/199/199 189/189/189
f 195/195/195 196/196/196 198/198/198
f 194/194/194 188/188/188 197/197/197
f 198/198/198 199/199/199 195/195/195
f 199/199/199 200/200/200 189/189/189
f 204/204/204 200/200/200 199/199/199
f 205/205/205 204/204/204 199/199/199
f 205/205/205 199/199/199 198/198/198
f 206/206/206 205/205/205 207/207/207
f 208/208/208 205/205/205 206/206/206
f 207/207/207 205/205/205 198/198/198
f 210/210/210 204/204/204 205/205/205
f 210/210/210 205/205/205 208/208/208
f 215/215/215 210/210/210 208/208/208
f 210/210/210 212/212/212 217/217/217
f 209/209/209 218/218/218 211/211/211
f 210/210/210 217/217/217 204/204/204
f 210/210/210 215/215/215 220/220/220
f 163/163/163 213/213/213 221/221/221
f 219/219/219 152/152/152 222/222/222
f 163/163/163 221/221/221 223/223/223
f 151/151/151 220/220/220 215/215/215
f 155/155/155 163/163/163 223/223/223
f 222/222/222 152/152/152 154/154/154
f 214/214/214 224/224/224 216/216/216
f 216/216/216 224/224/224 231/231/231
f 204/204/204 217/217/217 228/228/228
f 216/216/216 231/231/231 229/229/229
f 225/225/225 235/235/235 233/233/233
f 230/230/230 232/232/232 234/234/234
f 225/225/225 175/175/175 235/235/235
f 236/236/236 235/235/235 175/175/175
f 234/234/234 239/239/239 230/230/230
f 238/238/238 239/239/239 234/234/234
f 238/238/238 240/240/240 239/239/239
f 240/240/240 193/193/193 239/239/239
f 191/191/191 239/239/239 193/193/193
f 230/230/230 239/239/239 191/191/191
f 237/237/237 183/183/183 241/241/241
f 241/241/241 183/183/183 192/192/192
f 179/179/179 183/183/183 237/237/237
f 237/237/237 172/172/172 179/179/179
f 237/237/237 174/174/174 172/172/172
f 227/227/227 190/190/190 202/202/202
f 203/203/203 226/226/226 201/201/201
f 175/175/175 225/225/225 213/213/213
f 153/153/153 215/215/215 242/242/242
f 215/215/215 208/208/208 242/242/242
f 153/153/153 151/151/151 215/215/215
f 242/242/242 208/208/208 206/206/206
f 119/119/119 153/153/153 242/242/242
f 117/117/117 119/119/119 242/242/242
f 117/117/117 242/242/242 114/114/114
f 242/242/242 206/206/206 114/114/114
f 163/163/163 175/175/175 213/213/213
f 110/110/110 207/207/207 243/243/243
f 207/207/207 198/198/198 243/243/243
f 244/244/244 206/206/206 207/207/207
f 244/244/244 207/207/207 110/110/110
f 114/114/114 244/244/244 108/108/108
f 244/244/244 110/110/110 108/108/108
f 114/114/114 206/206/206 244/244/244
f 243/243/243 198/198/198 196/196/196
f 110/110/110 243/243/243 95/95/95
f 95/95/95 243/243/243 87/87/87
f 243/243/243 196/196/196 87/87/87
f 81/81/81 88/88/88 197/197/197
f 81/81/81 197/197/197 188/188/188
f 80/80/80 187/187/187 79/79/79
f 68/68/68 181/181/181 67/67/67
f 181/181/181 168/168/168 67/67/67
f 68/68/68 76/76/76 181/181/181
f 166/166/166 67/67/67 168/168/168
f 66/66/66 166/166/166 165/165/165
f 66/66/66 67/67/67 166/166/166
f 60/60/60 165/165/165 130/130/130
f 165/165/165 135/135/135 130/130/130
f 66/66/66 165/165/165 60/60/60
f 148/148/148 153/153/153 119/119/119
f 127/127/127 148/148/148 119/119/119
f 137/137/137 148/148/148 127/127/127
f 145/145/145 138/138/138 135/135/135
f 47/47/47 122/122/122 121/121/121
f 47/47/47 121/121/121 37/37/37
f 120/120/120 33/33/33 38/38/38
f 85/85/85 3/3/3 86/86/86
f 2/2/2 84/84/84 75/75/75
f 2/2/2 75/75/75 5/5/5
f 59/59/59 66/66/66 60/60/60
f 10/10/10 7/7/7 63/63/63
f 7/7/7 6/6/6 63/63/63
f 44/44/44 31/31/31 26/26/26
f 31/31/31 24/24/24 26/26/26
f 14/14/14 12/12/12 29/29/29
f 25/25/25 16/16/16 17/17/17

