# ('FARMS composite mesh',)
mtllib link_body_16_composite.mtl
usemtl link_body_16_composite
v -3.04547300 -5.76089200 -3.67679600
v -3.97988900 -5.52973100 -2.21906700
v -3.70900900 -5.54322900 -2.91863800
v -5.90292300 2.96434600 -0.65054900
v -6.23952200 1.09652100 -1.71214200
v -6.24912800 2.07220800 0.79681500
v 2.40882200 -5.04595900 -4.52020000
v 2.40882200 -5.04595900 -4.52020000
v 2.40882200 -5.04595900 -4.52020000
v 1.49714500 -4.49281200 -6.23743900
v 1.49714500 -4.49281200 -6.23743900
v -1.14063400 -5.40534300 -5.37319400
v -1.14063400 -5.40534300 -5.37319400
v -1.14063400 -5.40534300 -5.37319400
v 1.32673900 -4.49010400 -4.48901700
v 1.32673900 -4.49010400 -4.48901700
v 1.53645200 -5.73616400 -2.82888300
v 1.53645200 -5.73616400 -2.82888300
v 3.08390900 -3.96460900 -5.69789200
v 3.08390900 -3.96460900 -5.69789200
v 3.08390900 -3.96460900 -5.69789200
v 1.13235700 -2.12178500 -5.91988800
v 3.26754100 -2.75010800 -6.40328200
v 3.26754100 -2.75010800 -6.40328200
v 2.35185400 -1.54241500 -6.61688900
v 2.35185400 -1.54241500 -6.61688900
v 2.07709600 -2.48710600 -6.65546600
v 1.99665600 0.41825700 -6.68485800
v 1.99665600 0.41825700 -6.68485800
v 2.66733300 1.88774100 -6.60856000
v 2.66733300 1.88774100 -6.60856000
v -3.16594200 1.02250400 -6.70680100
v -3.16594200 1.02250400 -6.70680100
v -2.07599500 3.12406700 -6.62090900
v -2.07599500 3.12406700 -6.62090900
v 1.35138300 4.49041200 -6.31795900
v 1.35138300 4.49041200 -6.31795900
v 1.35138300 4.49041200 -6.31795900
v -3.01992800 -1.29938100 -6.71053300
v -3.01992800 -1.29938100 -6.71053300
v 0.13728200 0.47118300 -5.46743400
v 0.13728200 0.47118300 -5.46743400
v 1.33004800 2.46232500 -5.88853300
v 0.66503500 3.11587000 -5.09319500
v 0.66503500 3.11587000 -5.09319500
v 0.66503500 3.11587000 -5.09319500
v 2.96137200 4.30649900 -5.44009400
v 2.96137200 4.30649900 -5.44009400
v 2.96137200 4.30649900 -5.44009400
v 1.91526800 5.52610700 -3.59769700
v 1.91526800 5.52610700 -3.59769700
v 1.91526800 5.52610700 -3.59769700
v 3.25530700 2.77455800 -6.39077100
v 3.25530700 2.77455800 -6.39077100
v 3.25530700 2.77455800 -6.39077100
v 1.14618700 5.95632200 -1.41073300
v 1.14618700 5.95632200 -1.41073300
v 0.03087300 6.02554800 -2.44570100
v -2.58677500 5.64982500 -4.26223400
v -2.58677500 5.64982500 -4.26223400
v -2.58677500 5.64982500 -4.26223400
v -1.66540300 5.11361100 -5.44164900
v -1.66540300 5.11361100 -5.44164900
v 0.86133800 5.04324100 -3.28912000
v 0.86133800 5.04324100 -3.28912000
v -0.15382100 3.87269300 -3.38586900
v -0.15382100 3.87269300 -3.38586900
v -0.70042200 4.33737000 -0.85504200
v -0.70042200 4.33737000 -0.85504200
v 0.98029700 6.00144700 -0.35975000
v 0.98029700 6.00144700 -0.35975000
v 0.98029700 6.00144700 -0.35975000
v 0.98029700 6.00144700 -0.35975000
v -1.65581300 2.16404700 -0.93845800
v -0.43653700 4.29994400 1.89404100
v -0.43653700 4.29994400 1.89404100
v -1.48694500 2.03696100 1.89404000
v -0.91849600 2.33471500 -3.38151500
v -1.30156100 0.48398700 -3.38695800
v -1.43860200 -1.98892100 -2.31490200
v -1.43860200 -1.98892100 -2.31490200
v -0.45790200 -1.61699900 -4.54569400
v -0.45790200 -1.61699900 -4.54569400
v -0.45790200 -1.61699900 -4.54569400
v -1.84524400 -0.54536800 -1.47260700
v -1.70047700 -2.11453000 0.56051200
v -1.95730000 0.55623900 -0.12000000
v -1.72865200 0.12154400 1.88629300
v -1.10260500 -1.75616400 3.14896800
v -0.98154400 0.46161600 3.71649500
v -0.20323200 2.14376600 4.45402400
v -0.20323200 2.14376600 4.45402400
v 0.24075700 -0.73123500 5.31065500
v 0.24075700 -0.73123500 5.31065500
v 1.42890300 -1.87619600 5.89995400
v 1.42890300 -1.87619600 5.89995400
v 1.33583400 1.91138700 5.86177100
v 1.33583400 1.91138700 5.86177100
v 0.24659900 -2.33467700 4.78437900
v 0.24659900 -2.33467700 4.78437900
v 2.06129600 0.78150500 6.42985300
v 2.06129600 0.78150500 6.42985300
v -2.96323800 2.67267700 6.31642900
v -2.96323800 2.67267700 6.31642900
v -2.42572800 0.01723200 7.18845500
v -2.42572800 0.01723200 7.18845500
v -2.42572800 0.01723200 7.18845500
v -2.75278700 4.44130200 5.38550100
v -2.75278700 4.44130200 5.38550100
v -2.75278700 4.44130200 5.38550100
v -2.75278700 4.44130200 5.38550100
v 2.69907800 -0.10515500 6.63677200
v 2.69907800 -0.10515500 6.63677200
v 2.69907800 -0.10515500 6.63677200
v -2.99785000 -3.07707700 6.13223000
v -2.99785000 -3.07707700 6.13223000
v -2.75275000 -4.44145700 5.38536900
v -2.75275000 -4.44145700 5.38536900
v -2.75275000 -4.44145700 5.38536900
v -2.75275000 -4.44145700 5.38536900
v 1.13400700 -4.35971200 4.24964500
v 1.13400700 -4.35971200 4.24964500
v 1.13400700 -4.35971200 4.24964500
v 1.13400700 -4.35971200 4.24964500
v -2.72641900 -5.60400500 4.15990300
v -2.72641900 -5.60400500 4.15990300
v -3.98652900 -4.92412100 3.65885700
v -3.98652900 -4.92412100 3.65885700
v -5.06273500 -3.22208500 3.67628900
v -5.06273500 -3.22208500 3.67628900
v -5.06273500 -3.22208500 3.67628900
v -3.03743200 -6.15471100 2.90353800
v -3.03743200 -6.15471100 2.90353800
v -3.45702800 -6.36672500 1.43472800
v -3.45702800 -6.36672500 1.43472800
v -4.92171500 -4.84697200 1.39757900
v -4.92171500 -4.84697200 1.39757900
v -4.44665100 -5.46659000 -1.12395000
v -4.44665100 -5.46659000 -1.12395000
v -5.11331900 -4.66921600 -0.29364600
v -5.11331900 -4.66921600 -0.29364600
v -5.11331900 -4.66921600 -0.29364600
v -5.11331900 -4.66921600 -0.29364600
v -6.21705300 -2.12834800 0.84995000
v -5.85155100 -3.18705700 -0.18023800
v -5.85155100 -3.18705700 -0.18023800
v -3.73396400 -6.27356500 -0.64843000
v -3.73396400 -6.27356500 -0.64843000
v 0.98899400 -6.02071900 -0.54883700
v 0.98899400 -6.02071900 -0.54883700
v -3.04547300 -5.76089200 -3.67679600
v -3.04547300 -5.76089200 -3.67679600
v -3.97988900 -5.52973100 -2.21906700
v -3.97988900 -5.52973100 -2.21906700
v 0.02796200 -6.03271200 -2.38820900
v 1.15228400 -5.96227900 -1.40081900
v 1.15228400 -5.96227900 -1.40081900
v -0.52356000 -4.15793900 -2.18450600
v -0.52356000 -4.15793900 -2.18450600
v -0.60907900 -4.46966900 0.56051300
v -0.60907900 -4.46966900 0.56051300
v -0.14705900 -3.87477100 3.18474000
v -0.14705900 -3.87477100 3.18474000
v -0.14705900 -3.87477100 3.18474000
v 0.95332600 -5.84833700 1.15922000
v 0.95332600 -5.84833700 1.15922000
v 1.07911600 -5.39072700 2.64433500
v 1.07911600 -5.39072700 2.64433500
v 0.33345900 -3.39281000 -4.50893700
v 0.33345900 -3.39281000 -4.50893700
v -3.70900900 -5.54322900 -2.91863800
v -3.70900900 -5.54322900 -2.91863800
v -3.80371000 -4.29287200 -2.59176900
v -5.10073400 -2.24859000 -1.57745100
v -5.10073400 -2.24859000 -1.57745100
v -5.10073400 -2.24859000 -1.57745100
v -3.58213400 -4.70575500 -4.36479600
v -3.58213400 -4.70575500 -4.36479600
v -3.58213400 -4.70575500 -4.36479600
v -3.94542800 -3.31024800 -5.09879500
v -3.94542800 -3.31024800 -5.09879500
v -4.48191200 -2.29727900 -2.89879700
v -4.48191200 -2.29727900 -2.89879700
v -5.81791200 -0.92517300 -3.05474500
v -5.81791200 -0.92517300 -3.05474500
v -4.47367200 -2.25436300 -5.05262900
v -4.47367200 -2.25436300 -5.05262900
v -4.47367200 -2.25436300 -5.05262900
v -5.22900200 -1.25813900 -4.31311700
v -5.22900200 -1.25813900 -4.31311700
v -5.22900200 -1.25813900 -4.31311700
v -5.38778400 0.82387800 -4.18524700
v -4.54415100 -0.56620300 -5.47910100
v -4.54415100 -0.56620300 -5.47910100
v -4.39774700 1.57024100 -5.45955100
v -4.39774700 1.57024100 -5.45955100
v -3.17882100 3.83764800 -5.58154500
v -3.17882100 3.83764800 -5.58154500
v -4.57197900 2.54629200 -4.71173800
v -5.42812000 1.61202600 -3.31235300
v -4.03453400 4.02126600 -4.43923600
v -4.03453400 4.02126600 -4.43923600
v -4.41822400 3.17945400 -2.93633000
v -3.90711900 5.10811100 -3.34545900
v -3.90711900 5.10811100 -3.34545900
v -4.34355600 4.54092000 -1.96708100
v -5.00106200 2.80919900 -1.82056300
v -5.90292300 2.96434600 -0.65054900
v -5.21573900 4.45390500 -0.59163300
v -5.21573900 4.45390500 -0.59163300
v -5.94899500 1.96637700 -1.58196100
v -6.23952200 1.09652100 -1.71214200
v -6.18317200 -1.57013100 -1.43601200
v -6.18317200 -1.57013100 -1.43601200
v -6.18317200 -1.57013100 -1.43601200
v -5.96436600 0.28363300 -2.90261000
v -6.45198900 0.00000300 0.76268400
v -6.24912800 2.07220800 0.79681500
v -5.04525900 3.26131800 3.67629000
v -5.64881900 0.81565300 3.77424500
v -4.82195900 5.18250300 0.72826400
v -3.94583700 4.90333800 3.74483100
v -3.60633700 6.41198800 0.66949600
v -3.60633700 6.41198800 0.66949600
v -4.41750000 5.38093700 -1.67189900
v -4.41750000 5.38093700 -1.67189900
v -3.34980800 5.84118300 -3.06239000
v -3.34980800 5.84118300 -3.06239000
v -2.99230700 6.22092000 2.81446300
v -2.99230700 6.22092000 2.81446300
v -2.73515200 5.61021100 4.15201600
v -2.73515200 5.61021100 4.15201600
v 1.02100200 5.55711900 2.26140600
v 1.02100200 5.55711900 2.26140600
v 1.02100200 5.55711900 2.26140600
v 1.11088000 4.69014500 3.82150400
v 1.11088000 4.69014500 3.82150400
v 0.69332500 4.41192200 4.36984200
v 0.69332500 4.41192200 4.36984200
v 1.15633200 3.75651200 4.69806900
v 1.15633200 3.75651200 4.69806900
v 1.15633200 3.75651200 4.69806900
v 1.15633200 3.75651200 4.69806900
v -3.76844600 3.02159700 5.55406600
v -3.76844600 3.02159700 5.55406600
v -3.99046700 0.75220700 6.10813100
v -3.99046700 0.75220700 6.10813100
v -4.72135300 -1.62212700 5.07885400
v -4.72135300 -1.62212700 5.07885400
v -2.94434100 -1.32637300 6.76018700
v -2.94434100 -1.32637300 6.76018700
v -5.92673400 -0.63398400 3.02957400
v -2.31170400 -2.84309600 -6.65018900
v -2.31170400 -2.84309600 -6.65018900
v -2.94990600 -4.22521000 -5.45766900
v -2.94990600 -4.22521000 -5.45766900
v -1.12050000 -4.01659100 -6.46984800
v -0.94004800 4.22114900 -6.40189200
v -0.94004800 4.22114900 -6.40189200
vn -0.47434564 -0.86435493 -0.16699332
vn -0.47434564 -0.86435493 -0.16699332
vn -0.47434564 -0.86435493 -0.16699332
vn -0.96953998 0.22700268 -0.09198921
vn -0.96953998 0.22700268 -0.09198921
vn -0.96953998 0.22700268 -0.09198921
vn 0.25079460 -0.88996260 -0.38087878
vn 0.32694167 0.59528084 0.73399582
vn 0.40305141 0.75565816 0.51626573
vn 0.27277346 -0.86403352 -0.42313204
vn 0.11456974 -0.35652828 -0.92723317
vn 0.09107688 -0.95832656 -0.27076781
vn -0.19500920 -0.60609756 -0.77111423
vn -0.41405232 -0.67824258 -0.60708128
vn 0.40373387 0.52558475 0.74883886
vn 0.56289871 0.68345341 0.46479725
vn 0.14917230 -0.96245793 -0.22676499
vn 0.59565957 0.70435575 0.38609928
vn 0.35242354 0.49287548 0.79553216
vn 0.42351504 -0.50200550 -0.75407260
vn 0.41876459 -0.77568234 -0.47217912
vn 0.51067764 0.29618222 0.80714586
vn 0.25586409 -0.26722073 -0.92904610
vn 0.36745766 0.42493473 0.82728794
vn 0.39040008 0.26321573 0.88221611
vn 0.16980580 -0.00914624 -0.98543510
vn 0.10459133 -0.10955017 -0.98846316
vn 0.01215723 0.03525214 -0.99930450
vn 0.50100203 -0.05563110 0.86365627
vn 0.34325793 -0.33843290 0.87614905
vn -0.00654212 0.10769532 -0.99416242
vn -0.64037347 0.14237635 -0.75475214
vn 0.00635037 0.01794861 -0.99981874
vn 0.02333609 0.07746053 -0.99672227
vn -0.45858641 0.42373838 -0.78111733
vn 0.04052733 0.11614723 -0.99240484
vn 0.27772381 0.61644004 -0.73679791
vn 0.17762057 0.90688958 -0.38210238
vn 0.00443737 -0.01365660 -0.99989690
vn -0.64162057 -0.19042944 -0.74300718
vn 0.80558626 -0.11637420 0.58093702
vn 0.59507783 -0.02229243 0.80335884
vn 0.46329972 -0.33933028 0.81866252
vn 0.55761011 -0.59682968 0.57694480
vn 0.76482137 -0.29134937 0.57459883
vn 0.49256739 -0.46618279 0.73488161
vn 0.31350212 0.86401568 -0.39394583
vn 0.45151828 0.53142284 -0.71674334
vn 0.37789140 -0.55173963 0.74349275
vn 0.47767793 -0.74004772 0.47344817
vn 0.14768110 0.93841999 -0.31234311
vn 0.42348802 -0.62598020 0.65483333
vn 0.36054082 -0.44090475 0.82195701
vn 0.45151828 0.53142284 -0.71674334
vn 0.11227630 0.16615546 -0.97968689
vn 0.64743740 -0.73173751 0.21303763
vn 0.12101200 0.99057606 -0.06414957
vn 0.07715702 0.98384965 -0.16151368
vn -0.46014741 0.61589299 -0.63948431
vn -0.60198455 0.60826459 -0.51732851
vn 0.02767586 0.96548041 -0.25900122
vn 0.08040792 0.92802335 -0.36374061
vn -0.34718525 0.60746385 -0.71445789
vn 0.71558469 -0.64312538 0.27263218
vn 0.54561510 -0.70257656 0.45682638
vn 0.60963732 -0.57390225 0.54678931
vn 0.79494521 -0.49128605 0.35594961
vn 0.67925686 -0.70611192 0.20004019
vn 0.84908921 -0.52507944 0.05778482
vn 0.67606793 -0.72384096 0.13779122
vn 0.11503865 0.99265128 0.03754387
vn 0.71294240 -0.69687959 -0.07792279
vn 0.66643580 -0.73330154 -0.13465573
vn 0.95412151 -0.28142892 0.10222481
vn 0.66643580 -0.73330154 -0.13465573
vn 0.80715306 -0.52026272 -0.27898142
vn 0.92793081 -0.27907395 -0.24710754
vn 0.86060815 -0.29436920 0.41557235
vn 0.90896802 -0.06001815 0.41252268
vn 0.94782412 0.23096809 0.21973433
vn 0.82467188 0.37344181 0.42480291
vn 0.86637760 0.07565266 0.49362589
vn 0.67664087 0.21232322 0.70503615
vn 0.82362032 0.37449876 0.42591108
vn 0.98503134 0.05748344 0.16250817
vn 0.95679094 0.27857623 -0.08334501
vn 0.99792260 -0.06429831 -0.00402556
vn 0.96985856 -0.00111056 -0.24366604
vn 0.88322749 0.23171244 -0.40769909
vn 0.86586056 -0.05442236 -0.49731649
vn 0.63199071 -0.25262266 -0.73264557
vn 0.80555528 -0.31048058 -0.50466078
vn 0.57547826 0.06069701 -0.81556155
vn 0.79995929 0.08554234 -0.59392562
vn 0.53420820 0.21252435 -0.81820229
vn 0.21137063 -0.51161645 0.83280914
vn 0.24865730 0.55503412 0.79379259
vn 0.61251018 -0.18346296 -0.76887751
vn 0.78814213 0.25670852 -0.55940390
vn 0.58821580 0.37936288 -0.71420303
vn 0.50083851 0.00902121 -0.86549373
vn 0.13088222 0.35402081 0.92603408
vn 0.13187211 0.40463559 0.90491977
vn -0.55430571 0.29548685 0.77809556
vn 0.09399794 -0.33713481 0.93675211
vn 0.10340747 0.32571909 0.93979464
vn -0.55383846 0.04310992 0.83150736
vn -0.50434940 0.44842871 0.73793182
vn -0.59601007 0.54733067 0.58753820
vn 0.19023914 0.49085517 0.85021778
vn 0.20492434 0.70898293 0.67479569
vn 0.41050245 0.08336935 -0.90804036
vn 0.13755606 -0.40785799 0.90262406
vn 0.10918356 0.29971463 0.94776056
vn -0.67107212 -0.35555649 0.65057036
vn 0.13540538 -0.41150383 0.90129351
vn 0.19206390 -0.49368526 0.84816644
vn 0.21209300 -0.70670082 0.67497445
vn -0.66377355 -0.44735282 0.59939981
vn -0.55426571 -0.60976423 0.56654841
vn 0.61435363 0.65417982 -0.44115572
vn 0.62196242 0.44304831 -0.64565543
vn 0.24320855 -0.79467004 0.55619163
vn 0.24376515 -0.55667086 0.79416377
vn 0.22010066 -0.83265018 0.50818242
vn -0.55658111 -0.65397229 0.51238434
vn -0.67339396 -0.43752965 0.59590971
vn -0.67810939 -0.62744126 0.38273374
vn -0.68469428 -0.41362061 0.60009310
vn -0.80103831 -0.50971542 0.31389143
vn -0.90873047 -0.27329627 0.31546487
vn 0.17727302 -0.95499012 0.23784057
vn -0.62999493 -0.69659937 0.34330119
vn -0.70471523 -0.68651327 0.17909767
vn 0.09368492 -0.99485780 0.03848492
vn -0.90045121 -0.41049754 0.14380328
vn -0.74542711 -0.64352374 0.17382640
vn -0.86519917 -0.36105686 -0.34794876
vn -0.71744196 -0.68978310 -0.09734628
vn -0.89215795 -0.44849196 0.05393658
vn -0.72998045 -0.31726787 -0.60536737
vn -0.84752040 -0.21709308 -0.48433436
vn -0.75809513 -0.65191268 0.01736769
vn -0.96412512 -0.24359563 0.10546998
vn -0.93045669 -0.36537723 0.02738314
vn -0.66825727 -0.39959790 -0.62749800
vn 0.03145203 -0.99580031 -0.08597970
vn -0.71009615 -0.70096601 -0.06640867
vn 0.72976665 0.67524581 0.10716218
vn 0.08800237 -0.99605342 0.01153946
vn -0.57827746 -0.66207798 -0.47670528
vn -0.00878351 -0.98245488 -0.18629346
vn -0.61301189 -0.74685819 -0.25771936
vn -0.90152345 -0.04280318 -0.43060811
vn 0.07435856 -0.98725885 -0.14067965
vn 0.69061878 0.69443352 0.20200937
vn 0.12399874 -0.98976817 -0.07059234
vn 0.91014497 0.40461152 0.08902611
vn 0.73319047 0.59635184 0.32679691
vn 0.90404925 0.41894659 -0.08472720
vn 0.70881837 0.70061921 -0.08190998
vn 0.66263085 0.66129636 -0.35157855
vn 0.66554497 0.44907214 -0.59614101
vn 0.85204502 0.38291381 -0.35692619
vn 0.14456736 -0.97325096 0.17855770
vn 0.68827021 0.70407075 -0.17483845
vn 0.20238730 -0.90204795 0.38124648
vn 0.67310790 0.66456868 -0.32445990
vn 0.57879206 0.41527880 0.70181427
vn 0.75315166 0.48996786 0.43896932
vn -0.67363281 -0.61240156 -0.41374286
vn -0.97107474 -0.01119618 -0.23851307
vn -0.93627953 -0.18243112 -0.30016582
vn -0.55405251 -0.52210157 -0.64841018
vn -0.83732537 -0.30669851 -0.45257292
vn -0.60158434 -0.71764018 -0.35084022
vn -0.65204127 -0.47890581 -0.58778517
vn -0.55392874 -0.63377705 -0.53989777
vn -0.97479132 -0.21094281 -0.07269808
vn -0.93018487 -0.36432004 -0.04502247
vn -0.62410045 -0.35889828 -0.69403937
vn -0.90564430 -0.36281377 -0.21948706
vn -0.71841618 -0.67187703 -0.18016504
vn -0.65239655 -0.71327077 -0.25617094
vn -0.94415697 -0.05367720 -0.32509442
vn -0.69271291 -0.23599040 -0.68151108
vn -0.89447263 -0.44695273 -0.01232774
vn -0.80208290 -0.59702519 -0.01496454
vn -0.88347614 -0.03870326 -0.46687468
vn -0.79845564 -0.17858364 -0.57495780
vn -0.75838986 -0.64746021 -0.07510063
vn -0.88312272 0.13656836 -0.44882441
vn -0.83461238 0.00615257 -0.55080334
vn -0.70363568 -0.10699907 -0.70245856
vn -0.65875703 0.18125074 -0.73019679
vn -0.79527113 0.21250760 -0.56778900
vn -0.48088246 0.45774153 -0.74781331
vn -0.66480398 0.47072408 -0.58004699
vn -0.83363698 0.37766243 -0.40301423
vn -0.85121563 0.43493582 -0.29370526
vn -0.65265152 0.50650875 -0.56346684
vn -0.95412428 0.28786413 -0.08234744
vn -0.89848026 0.39096060 -0.19970735
vn -0.96476055 0.17738379 -0.19435039
vn -0.63825134 0.63008849 -0.44229370
vn -0.90893716 0.16730606 -0.38189255
vn -0.76942634 0.47423286 -0.42788586
vn -0.84083274 0.44490403 -0.30831915
vn -0.79646709 0.26249575 -0.54473494
vn -0.86700591 0.49803043 -0.01632290
vn -0.80506279 0.45581135 -0.37961813
vn -0.96278888 0.14460909 -0.22831070
vn -0.46200032 -0.60115950 -0.65204521
vn -0.98761117 -0.09669130 -0.12359195
vn -0.52154577 -0.74562605 -0.41476716
vn -0.95308991 0.01142100 -0.30247179
vn -0.99696691 -0.00053566 0.07782482
vn -0.95889862 0.24694651 0.13975285
vn -0.83674699 0.36721730 0.40620922
vn -0.89631896 0.10532101 0.43072011
vn -0.80293591 0.58634293 0.10721893
vn -0.68200036 0.59179798 0.42970997
vn 0.06278839 0.99789639 -0.01613750
vn -0.68764249 0.72017332 0.09218570
vn -0.90206301 0.07023827 -0.42585080
vn -0.65592305 0.73874082 -0.15500629
vn -0.02439155 0.98661324 -0.16124319
vn -0.63138463 0.68579461 -0.36199337
vn 0.16338572 0.96084106 0.22380698
vn -0.65139878 0.69165939 0.31190850
vn -0.55558865 0.66113512 0.50420394
vn 0.21662003 0.82322058 0.52477009
vn 0.20488870 0.92700117 0.31414877
vn 0.65501427 -0.64383028 -0.39552354
vn 0.66643580 -0.73330154 -0.13465573
vn 0.69480356 -0.54027830 -0.47470767
vn 0.13860446 0.83658009 0.53002128
vn 0.23021682 0.54155681 0.80852733
vn 0.30984460 0.74730763 0.58781599
vn 0.58897146 -0.38934587 -0.70818247
vn 0.43108305 0.62867517 0.64725183
vn 0.17588386 0.53732407 0.82483193
vn 0.67630857 -0.48642955 -0.55316634
vn -0.73848575 0.35169327 0.57528310
vn -0.55450985 0.35982944 0.75036098
vn -0.80775624 0.12263885 0.57661909
vn -0.58595638 0.06981903 0.80732919
vn -0.68332985 -0.27080567 0.67802994
vn -0.86227889 -0.09722359 0.49701376
vn -0.63887295 -0.13502597 0.75737002
vn 0.10508154 -0.33860105 0.93504396
vn -0.94003161 -0.08872728 0.32934486
vn -0.52393428 -0.39128215 -0.75656537
vn 0.00451005 -0.07038843 -0.99750946
vn -0.52593498 -0.46748956 -0.71052510
vn -0.44457052 -0.66642435 -0.59852789
vn -0.13682636 -0.41951961 -0.89737497
vn -0.20373029 0.63561241 -0.74464141
vn 0.01474508 0.18104733 -0.98336384
vt 0.00057179 0.00213175
vt 0.00057282 0.00212948
vt 0.00057261 0.00213050
vt 0.00054944 0.00213671
vt 0.00054944 0.00213671
vt 0.00054944 0.00213671
vt 0.15561104 0.37144318
vt 0.26060075 0.40833416
vt 0.43534538 0.46279006
vt 0.15968954 0.37531979
vt 0.05725609 0.41255660
vt 0.16758669 0.37111534
vt 0.06532564 0.40833416
vt 0.16758669 0.37111534
vt 0.25701100 0.40988140
vt 0.43152775 0.46198245
vt 0.15730221 0.36631219
vt 0.43418995 0.45770654
vt 0.26286414 0.41134669
vt 0.05235548 0.41499591
vt 0.15426969 0.37499795
vt 0.25639980 0.41646819
vt 0.05243644 0.41844072
vt 0.26349134 0.41472104
vt 0.26046182 0.41807590
vt 0.05607766 0.42113341
vt 0.05646397 0.41839325
vt 0.05829458 0.42622742
vt 0.25929738 0.42350625
vt 0.26153479 0.42756526
vt 0.05690076 0.43064676
vt 0.07543520 0.42452225
vt 0.07543520 0.42452225
vt 0.07301639 0.43092812
vt 0.07301639 0.43092812
vt 0.06258098 0.43684473
vt 0.06258098 0.43684473
vt 0.25896855 0.37512188
vt 0.07370705 0.41831578
vt 0.07370705 0.41831578
vt 0.03110086 0.42412395
vt 0.25310941 0.42364268
vt 0.25708996 0.42915149
vt 0.49954302 0.18839510
vt 0.02909534 0.43142188
vt 0.25487704 0.43094861
vt 0.26451833 0.37371407
vt 0.05720861 0.43735198
vt 0.26251531 0.43423051
vt 0.49670940 0.19349161
vt 0.26108551 0.36798237
vt 0.25902902 0.43757438
vt 0.26349134 0.43000907
vt 0.05545696 0.43342490
vt 0.05545696 0.43342490
vt 0.49010663 0.19305233
vt 0.25940883 0.36153852
vt 0.25540679 0.36367897
vt 0.07596345 0.43735198
vt 0.03240772 0.40389383
vt 0.24681848 0.36707731
vt 0.24956114 0.37087946
vt 0.07271303 0.43654388
vt 0.02351657 0.43615207
vt 0.49481033 0.19051107
vt 0.49409718 0.18733462
vt 0.02450509 0.43258381
vt 0.48683623 0.18790434
vt 0.01764993 0.43278322
vt 0.48717656 0.19349161
vt 0.25937934 0.35857597
vt 0.01517814 0.43783175
vt 0.09436246 0.49311674
vt 0.01887833 0.42650029
vt 0.09730952 0.48615414
vt 0.01004715 0.43186716
vt 0.01110963 0.42527388
vt 0.02523373 0.42808101
vt 0.02594138 0.42288255
vt 0.02379743 0.41572605
vt 0.42185197 0.45414078
vt 0.02942268 0.41788250
vt 0.25110639 0.41784951
vt 0.42335574 0.46078404
vt 0.02121519 0.41921584
vt 0.01607021 0.41431524
vt 0.01723064 0.42172112
vt 0.01179030 0.41995648
vt 0.00866582 0.41466707
vt 0.00640893 0.42057218
vt 0.46055906 0.26033446
vt 0.00360380 0.42522541
vt 0.45254948 0.26175527
vt 0.00207561 0.41727929
vt 0.44931706 0.26568585
vt 0.19424666 0.42079607
vt 0.19142304 0.43089564
vt 0.45980143 0.26547345
vt 0.00386767 0.41308634
vt 0.44813863 0.26172078
vt 0.45662549 0.26786728
vt 0.19451103 0.42842734
vt 0.17705656 0.42949232
vt 0.17705656 0.42949232
vt 0.18055335 0.42276861
vt 0.18055335 0.42276861
vt 0.18055335 0.42276861
vt 0.17656180 0.43443341
vt 0.02786644 0.37740727
vt 0.17656180 0.43443341
vt 0.25222034 0.34081914
vt 0.45414320 0.26996725
vt 0.19715624 0.42655076
vt 0.19715624 0.42655076
vt 0.18077724 0.41402588
vt 0.18077724 0.41402588
vt 0.18248091 0.41057556
vt 0.16610841 0.34081914
vt 0.18248091 0.41057556
vt 0.16610841 0.34081914
vt 0.43534538 0.43811211
vt 0.44253437 0.26460188
vt 0.15426969 0.34678773
vt 0.19496081 0.41392993
vt 0.16668913 0.34427295
vt 0.16668913 0.34427295
vt 0.17883619 0.40833416
vt 0.17113895 0.34459730
vt 0.17423344 0.41204485
vt 0.17476168 0.34354631
vt 0.00560032 0.38322043
vt 0.16843527 0.34748589
vt 0.16843527 0.34748589
vt 0.17069667 0.35115109
vt 0.17069667 0.35115109
vt 0.00207561 0.38975723
vt 0.17559278 0.34997617
vt 0.48898768 0.04501115
vt 0.17558928 0.35719514
vt 0.00237440 0.39440197
vt 0.48683623 0.39812415
vt 0.48683623 0.04348689
vt 0.17729344 0.35436652
vt 0.00723502 0.39085420
vt 0.00515804 0.39386123
vt 0.49140300 0.39674132
vt 0.17291259 0.35654296
vt 0.17291259 0.35654296
vt 0.43395856 0.45119322
vt 0.15760906 0.35979287
vt 0.17264172 0.36515675
vt 0.17264172 0.36515675
vt 0.17476468 0.36050253
vt 0.49208666 0.04506263
vt 0.16187248 0.36402631
vt 0.43396306 0.45360504
vt 0.15762355 0.36220370
vt 0.02374795 0.41013778
vt 0.42674158 0.45453759
vt 0.01636756 0.40833416
vt 0.42819238 0.44705225
vt 0.43041529 0.44016361
vt 0.44396667 0.26033446
vt 0.00884524 0.40926421
vt 0.15666452 0.35514614
vt 0.43457426 0.44651651
vt 0.15536416 0.35118858
vt 0.43530390 0.44252346
vt 0.25372111 0.41292742
vt 0.42745224 0.46132527
vt 0.17432839 0.36259151
vt 0.49406869 0.04506263
vt 0.49362891 0.04189267
vt 0.49339202 0.39977184
vt 0.49127356 0.03795560
vt 0.48902716 0.26374929
vt 0.07362059 0.40860803
vt 0.17490611 0.36648560
vt 0.49837459 0.04343892
vt 0.50081040 0.04072075
vt 0.07558163 0.41219078
vt 0.49503922 0.03787664
vt 0.49322311 0.26374929
vt 0.49124307 0.25959582
vt 0.01132103 0.40147401
vt 0.07787002 0.41471154
vt 0.50093884 0.03871922
vt 0.49842157 0.26084771
vt 0.01140948 0.40500878
vt 0.08084256 0.41689448
vt 0.49527760 0.25961031
vt 0.01647351 0.40434811
vt 0.01421511 0.40813925
vt 0.07902495 0.41926532
vt 0.07970062 0.42515744
vt 0.01983087 0.40777443
vt 0.07695796 0.43210605
vt 0.02720127 0.40779642
vt 0.02198482 0.40556251
vt 0.01830911 0.40181984
vt 0.02639916 0.40460098
vt 0.02639916 0.40460098
vt 0.02356355 0.40056545
vt 0.02918430 0.40142104
vt 0.02918430 0.40142104
vt 0.02699337 0.39768886
vt 0.02171495 0.39752794
vt 0.02077691 0.39425954
vt 0.02545212 0.39388822
vt 0.02545212 0.39388822
vt 0.01830262 0.39697871
vt 0.01572987 0.39746197
vt 0.49607621 0.39674132
vt 0.00899416 0.39709015
vt 0.48683623 0.26077175
vt 0.01417963 0.40087480
vt 0.01234503 0.39078024
vt 0.01786933 0.39038543
vt 0.02209126 0.38227089
vt 0.01507619 0.38234985
vt 0.02764655 0.39013955
vt 0.02769203 0.38185659
vt 0.24542566 0.35299020
vt 0.03236824 0.39013905
vt 0.02899189 0.39674882
vt 0.02899189 0.39674882
vt 0.24489292 0.36334014
vt 0.03173905 0.40053897
vt 0.24855313 0.34753736
vt 0.03240772 0.38424793
vt 0.03101890 0.38064469
vt 0.25057465 0.34409854
vt 0.26121795 0.35150192
vt 0.00812958 0.43575926
vt 0.09248288 0.48615414
vt 0.00408906 0.43290965
vt 0.26307504 0.34737594
vt 0.18769486 0.43713409
vt 0.26232391 0.34565428
vt 0.46496791 0.26489673
vt 0.26451833 0.34508806
vt 0.18962192 0.43573577
vt 0.00207561 0.43008903
vt 0.02290936 0.37713490
vt 0.17423344 0.42980417
vt 0.01678236 0.37593299
vt 0.17502655 0.42351774
vt 0.17425943 0.41658113
vt 0.00992871 0.37911493
vt 0.17977973 0.41875557
vt 0.17977973 0.41875557
vt 0.01112712 0.38461625
vt 0.07056508 0.41458261
vt 0.07056508 0.41458261
vt 0.07185795 0.41036767
vt 0.17359525 0.36984846
vt 0.06604629 0.41216229
vt 0.06990141 0.43463231
vt 0.06990141 0.43463231
f 3/3/3 1/1/1 2/2/2
f 6/6/6 4/4/4 5/5/5
f 10/10/10 21/21/21 7/7/7
f 12/12/12 10/10/10 7/7/7
f 17/17/17 12/12/12 7/7/7
f 15/15/15 8/8/8 19/19/19
f 18/18/18 9/9/9 16/16/16
f 19/19/19 25/25/25 22/22/22
f 15/15/15 19/19/19 22/22/22
f 11/11/11 23/23/23 20/20/20
f 19/19/19 24/24/24 25/25/25
f 27/27/27 28/28/28 26/26/26
f 26/26/26 23/23/23 27/27/27
f 29/29/29 22/22/22 25/25/25
f 29/29/29 30/30/30 43/43/43
f 36/36/36 31/31/31 28/28/28
f 39/39/39 33/33/33 28/28/28
f 33/33/33 34/34/34 28/28/28
f 39/39/39 28/28/28 27/27/27
f 34/34/34 36/36/36 28/28/28
f 29/29/29 42/42/42 22/22/22
f 29/29/29 43/43/43 42/42/42
f 30/30/30 49/49/49 43/43/43
f 42/42/42 43/43/43 46/46/46
f 43/43/43 49/49/49 46/46/46
f 46/46/46 49/49/49 52/52/52
f 38/38/38 51/51/51 47/47/47
f 48/48/48 54/54/54 37/37/37
f 30/30/30 53/53/53 49/49/49
f 36/36/36 55/55/55 31/31/31
f 50/50/50 56/56/56 65/65/65
f 57/57/57 51/51/51 58/58/58
f 62/62/62 51/51/51 38/38/38
f 61/61/61 58/58/58 51/51/51
f 62/62/62 61/61/61 51/51/51
f 44/44/44 50/50/50 65/65/65
f 69/69/69 67/67/67 64/64/64
f 44/44/44 65/65/65 66/66/66
f 68/68/68 65/65/65 56/56/56
f 78/78/78 67/67/67 69/69/69
f 68/68/68 56/56/56 70/70/70
f 72/72/72 76/76/76 69/69/69
f 78/78/78 69/69/69 74/74/74
f 69/69/69 77/77/77 74/74/74
f 69/69/69 76/76/76 77/77/77
f 45/45/45 67/67/67 78/78/78
f 41/41/41 45/45/45 78/78/78
f 41/41/41 78/78/78 79/79/79
f 78/78/78 74/74/74 79/79/79
f 82/82/82 41/41/41 79/79/79
f 79/79/79 74/74/74 85/85/85
f 79/79/79 80/80/80 82/82/82
f 79/79/79 85/85/85 80/80/80
f 80/80/80 85/85/85 86/86/86
f 85/85/85 87/87/87 86/86/86
f 85/85/85 74/74/74 87/87/87
f 74/74/74 77/77/77 87/87/87
f 87/87/87 77/77/77 88/88/88
f 87/87/87 88/88/88 86/86/86
f 89/89/89 88/88/88 90/90/90
f 88/88/88 89/89/89 86/86/86
f 88/88/88 77/77/77 90/90/90
f 94/94/94 89/89/89 90/90/90
f 77/77/77 92/92/92 90/90/90
f 90/90/90 92/92/92 94/94/94
f 95/95/95 93/93/93 101/101/101
f 95/95/95 100/100/100 93/93/93
f 91/91/91 98/98/98 93/93/93
f 98/98/98 101/101/101 93/93/93
f 89/89/89 94/94/94 99/99/99
f 95/95/95 101/101/101 112/112/112
f 110/110/110 103/103/103 102/102/102
f 103/103/103 106/106/106 102/102/102
f 106/106/106 114/114/114 102/102/102
f 110/110/110 102/102/102 97/97/97
f 96/96/96 113/113/113 117/117/117
f 113/113/113 105/105/105 116/116/116
f 113/113/113 116/116/116 117/117/117
f 117/117/117 124/124/124 96/96/96
f 118/118/118 125/125/125 123/123/123
f 119/119/119 115/115/115 127/127/127
f 120/120/120 128/128/128 126/126/126
f 129/129/129 127/127/127 115/115/115
f 128/128/128 133/133/133 126/126/126
f 137/137/137 128/128/128 130/130/130
f 134/134/134 133/133/133 128/128/128
f 134/134/134 128/128/128 137/137/137
f 143/143/143 139/139/139 137/137/137
f 148/148/148 137/137/137 139/139/139
f 148/148/148 134/134/134 137/137/137
f 145/145/145 140/140/140 136/136/136
f 144/144/144 136/136/136 131/131/131
f 145/145/145 136/136/136 144/144/144
f 147/147/147 155/155/155 150/150/150
f 147/147/147 150/150/150 135/135/135
f 148/148/148 139/139/139 153/153/153
f 148/148/148 153/153/153 151/151/151
f 147/147/147 152/152/152 155/155/155
f 17/17/17 157/157/157 155/155/155
f 155/155/155 12/12/12 17/17/17
f 152/152/152 12/12/12 155/155/155
f 155/155/155 157/157/157 150/150/150
f 18/18/18 159/159/159 156/156/156
f 156/156/156 159/159/159 161/161/161
f 156/156/156 161/161/161 149/149/149
f 86/86/86 164/164/164 160/160/160
f 168/168/168 161/161/161 162/162/162
f 166/166/166 149/149/149 161/161/161
f 168/168/168 166/166/166 161/161/161
f 158/158/158 86/86/86 160/160/160
f 121/121/121 168/168/168 162/162/162
f 125/125/125 165/165/165 167/167/167
f 123/123/123 125/125/125 167/167/167
f 125/125/125 132/132/132 165/165/165
f 135/135/135 150/150/150 165/165/165
f 135/135/135 165/165/165 132/132/132
f 99/99/99 164/164/164 89/89/89
f 122/122/122 163/163/163 100/100/100
f 86/86/86 89/89/89 164/164/164
f 84/84/84 81/81/81 159/159/159
f 158/158/158 80/80/80 86/86/86
f 16/16/16 170/170/170 159/159/159
f 84/84/84 159/159/159 170/170/170
f 16/16/16 159/159/159 18/18/18
f 22/22/22 83/83/83 169/169/169
f 15/15/15 22/22/22 169/169/169
f 172/172/172 154/154/154 173/173/173
f 154/154/154 142/142/142 173/173/173
f 142/142/142 154/154/154 138/138/138
f 175/175/175 182/182/182 173/173/173
f 142/142/142 175/175/175 173/173/173
f 180/180/180 179/179/179 173/173/173
f 172/172/172 173/173/173 179/179/179
f 173/173/173 182/182/182 180/180/180
f 176/176/176 184/184/184 183/183/183
f 182/182/182 187/187/187 180/180/180
f 184/184/184 191/191/191 183/183/183
f 191/191/191 188/188/188 183/183/183
f 189/189/189 192/192/192 193/193/193
f 185/185/185 192/192/192 189/189/189
f 186/186/186 190/190/190 194/194/194
f 192/192/192 196/196/196 193/193/193
f 32/32/32 194/194/194 195/195/195
f 32/32/32 40/40/40 194/194/194
f 194/194/194 40/40/40 186/186/186
f 32/32/32 195/195/195 197/197/197
f 199/199/199 198/198/198 196/196/196
f 199/199/199 196/196/196 192/192/192
f 200/200/200 199/199/199 192/192/192
f 199/199/199 200/200/200 203/203/203
f 199/199/199 203/203/203 202/202/202
f 199/199/199 201/201/201 198/198/198
f 206/206/206 204/204/204 203/203/203
f 203/203/203 204/204/204 202/202/202
f 207/207/207 203/203/203 200/200/200
f 207/207/207 206/206/206 203/203/203
f 209/209/209 207/207/207 208/208/208
f 208/208/208 207/207/207 211/211/211
f 209/209/209 206/206/206 207/207/207
f 207/207/207 200/200/200 211/211/211
f 212/212/212 208/208/208 211/211/211
f 212/212/212 211/211/211 200/200/200
f 212/212/212 200/200/200 192/192/192
f 216/216/216 212/212/212 192/192/192
f 214/214/214 212/212/212 185/185/185
f 214/214/214 217/217/217 212/212/212
f 185/185/185 212/212/212 216/216/216
f 212/212/212 217/217/217 218/218/218
f 217/217/217 220/220/220 218/218/218
f 218/218/218 220/220/220 219/219/219
f 218/218/218 219/219/219 221/221/221
f 210/210/210 218/218/218 221/221/221
f 210/210/210 208/208/208 218/218/218
f 221/221/221 219/219/219 222/222/222
f 222/222/222 224/224/224 221/221/221
f 226/226/226 221/221/221 224/224/224
f 221/221/221 226/226/226 210/210/210
f 206/206/206 209/209/209 225/225/225
f 225/225/225 204/204/204 206/206/206
f 226/226/226 228/228/228 205/205/205
f 228/228/228 226/226/226 224/224/224
f 61/61/61 227/227/227 58/58/58
f 60/60/60 205/205/205 228/228/228
f 227/227/227 223/223/223 58/58/58
f 58/58/58 223/223/223 71/71/71
f 222/222/222 230/230/230 224/224/224
f 223/223/223 229/229/229 71/71/71
f 231/231/231 230/230/230 222/222/222
f 232/232/232 233/233/233 229/229/229
f 229/229/229 233/233/233 71/71/71
f 233/233/233 232/232/232 239/239/239
f 73/73/73 235/235/235 75/75/75
f 76/76/76 234/234/234 236/236/236
f 233/233/233 239/239/239 237/237/237
f 97/97/97 238/238/238 110/110/110
f 232/232/232 111/111/111 239/239/239
f 242/242/242 238/238/238 97/97/97
f 239/239/239 241/241/241 237/237/237
f 240/240/240 98/98/98 91/91/91
f 236/236/236 243/243/243 92/92/92
f 76/76/76 236/236/236 92/92/92
f 109/109/109 231/231/231 222/222/222
f 222/222/222 244/244/244 109/109/109
f 222/222/222 219/219/219 244/244/244
f 219/219/219 246/246/246 244/244/244
f 104/104/104 245/245/245 247/247/247
f 245/245/245 104/104/104 108/108/108
f 247/247/247 248/248/248 250/250/250
f 220/220/220 249/249/249 246/246/246
f 107/107/107 104/104/104 247/247/247
f 219/219/219 220/220/220 246/246/246
f 247/247/247 250/250/250 107/107/107
f 105/105/105 251/251/251 116/116/116
f 248/248/248 115/115/115 250/250/250
f 129/129/129 115/115/115 248/248/248
f 249/249/249 252/252/252 131/131/131
f 220/220/220 252/252/252 249/249/249
f 144/144/144 131/131/131 252/252/252
f 217/217/217 252/252/252 220/220/220
f 217/217/217 144/144/144 252/252/252
f 214/214/214 144/144/144 217/217/217
f 185/185/185 216/216/216 192/192/192
f 174/174/174 146/146/146 213/213/213
f 144/144/144 214/214/214 145/145/145
f 215/215/215 184/184/184 176/176/176
f 60/60/60 201/201/201 205/205/205
f 198/198/198 201/201/201 60/60/60
f 35/35/35 32/32/32 197/197/197
f 35/35/35 197/197/197 63/63/63
f 197/197/197 59/59/59 63/63/63
f 40/40/40 181/181/181 186/186/186
f 253/253/253 255/255/255 181/181/181
f 40/40/40 253/253/253 181/181/181
f 255/255/255 177/177/177 181/181/181
f 257/257/257 255/255/255 253/253/253
f 257/257/257 13/13/13 255/255/255
f 256/256/256 14/14/14 151/151/151
f 256/256/256 151/151/151 178/178/178
f 27/27/27 11/11/11 257/257/257
f 254/254/254 27/27/27 257/257/257
f 257/257/257 11/11/11 13/13/13
f 39/39/39 27/27/27 254/254/254
f 171/171/171 178/178/178 151/151/151
f 146/146/146 174/174/174 141/141/141
f 95/95/95 122/122/122 100/100/100
f 77/77/77 76/76/76 92/92/92
f 42/42/42 83/83/83 22/22/22
f 57/57/57 58/58/58 71/71/71
f 258/258/258 63/63/63 37/37/37
f 35/35/35 63/63/63 258/258/258
f 34/34/34 259/259/259 36/36/36
f 27/27/27 23/23/23 11/11/11

