# ('FARMS composite mesh',)
mtllib link_body_10_composite.mtl

o link_body_10
usemtl link_body_10_composite
v 1.98717500 -9.37389500 -3.74917100
v 1.98717500 -9.37389500 -3.74917100
v 0.76248400 -9.36207300 -1.98512100
v 0.76248400 -9.36207300 -1.98512100
v -2.63737900 -8.71155000 -2.71140300
v 1.45190800 -7.77174400 -6.06044100
v 1.45190800 -7.77174400 -6.06044100
v -1.05844400 -7.42099400 -3.98407600
v 2.73467400 -8.64606500 -5.43083200
v 2.73467400 -8.64606500 -5.43083200
v 2.73467400 -8.64606500 -5.43083200
v 0.44970500 -8.54641300 -5.24117600
v 0.44970500 -8.54641300 -5.24117600
v -2.16415100 -7.23117400 -5.82249900
v -2.16415100 -7.23117400 -5.82249900
v -3.88648500 -5.45271100 -6.37367300
v -4.25550600 -6.17248600 -5.37222600
v -4.25550600 -6.17248600 -5.37222600
v -4.23800200 -7.75023700 -2.73980300
v -3.17900000 -8.81025700 -0.15121900
v -4.45122400 -7.99407200 -0.00000100
v -6.13321800 -5.92064400 -1.96675400
v -6.13321800 -5.92064400 -1.96675400
v -5.65673400 -5.77299500 -3.70354000
v -5.65673400 -5.77299500 -3.70354000
v -5.66282000 -6.80005900 0.94756200
v -5.23407100 -6.28088700 3.67932000
v -6.66172900 -5.34146800 -0.00000100
v -6.66172900 -5.34146800 -0.00000100
v -6.92366700 -4.55667600 1.81822100
v -6.92366700 -4.55667600 1.81822100
v -3.79776900 -8.19939900 2.15358100
v -6.59669400 -4.16690100 3.64324600
v -6.59669400 -4.16690100 3.64324600
v -6.59669400 -4.16690100 3.64324600
v -7.40168600 -0.71777800 3.70354100
v -5.12167500 -5.04390100 5.45743200
v -5.12167500 -5.04390100 5.45743200
v -6.38592300 -2.42332500 5.32214900
v -6.38592300 -2.42332500 5.32214900
v -7.83668900 -1.09304900 1.89137900
v -8.01199200 -0.00000100 -0.00000100
v -7.56246900 2.67616800 1.96801100
v -7.68848600 -2.79873000 0.00000100
v -7.58493200 -2.69347700 -1.81741300
v -7.06716500 -2.73586600 -3.70354400
v -7.83950400 0.92655000 -1.89164900
v -7.40209800 -0.00000100 -3.67932200
v -6.60894900 0.85113400 -5.41095800
v -7.27068500 2.91094900 -2.99627200
v -6.38747900 -2.25202600 -5.41188400
v -6.38747900 -2.25202600 -5.41188400
v -5.53899300 -4.44124400 -5.34153900
v -5.53899300 -4.44124400 -5.34153900
v -5.53899300 -4.44124400 -5.34153900
v -5.41562800 -2.76391600 -6.54051400
v -5.41562800 -2.76391600 -6.54051400
v -5.85247000 1.21646500 -6.50146100
v -5.85247000 1.21646500 -6.50146100
v -5.85247000 1.21646500 -6.50146100
v -4.43404300 4.79293700 -6.47867900
v -4.43404300 4.79293700 -6.47867900
v -6.22155300 4.20384300 -4.51338300
v -4.65606800 6.96665900 -3.64375000
v -6.15774300 5.93221200 -1.81822400
v -5.12188100 5.04544600 -5.45551800
v -3.70103600 6.64679000 -5.34153900
v -3.70103600 6.64679000 -5.34153900
v -2.17106900 7.17135200 -5.86553200
v -2.17106900 7.17135200 -5.86553200
v -2.17106900 7.17135200 -5.86553200
v -2.67198200 8.33018500 -3.59749400
v -2.67198200 8.33018500 -3.59749400
v 2.00510300 9.37338700 -3.76856400
v 2.00510300 9.37338700 -3.76856400
v 0.39158500 8.54044200 -5.23586800
v 0.39158500 8.54044200 -5.23586800
v -2.79680100 8.82961100 -1.82282500
v -2.79680100 8.82961100 -1.82282500
v -4.36569300 7.84046000 -1.87570300
v -3.17478800 8.81363800 -0.16426100
v -3.17478800 8.81363800 -0.16426100
v 0.78334000 9.36397900 -2.04282500
v 0.78334000 9.36397900 -2.04282500
v -0.71864100 8.66173600 0.84908100
v -0.71864100 8.66173600 0.84908100
v -0.71864100 8.66173600 0.84908100
v -0.71864100 8.66173600 0.84908100
v -1.25897400 8.01369900 -1.99858100
v -1.25897400 8.01369900 -1.99858100
v -0.94050400 7.51346500 -3.98290600
v -0.94050400 7.51346500 -3.98290600
v -3.02971100 4.58887700 -3.91806000
v -0.89169000 5.58797700 -6.37177800
v -0.89169000 5.58797700 -6.37177800
v -0.89169000 5.58797700 -6.37177800
v -0.89169000 5.58797700 -6.37177800
v 0.23945400 6.91129800 -6.20174600
v 0.23945400 6.91129800 -6.20174600
v 1.45467700 7.77623400 -6.06024300
v 1.45467700 7.77623400 -6.06024300
v 2.71671400 8.65774000 -5.40928100
v 2.71671400 8.65774000 -5.40928100
v 2.71671400 8.65774000 -5.40928100
v -2.34286100 3.99328300 -5.77949100
v -2.34286100 3.99328300 -5.77949100
v -2.40247100 2.27861200 -6.50821300
v -2.40247100 2.27861200 -6.50821300
v -2.40247100 2.27861200 -6.50821300
v -2.40247100 2.27861200 -6.50821300
v -2.50677000 -1.91612400 -6.51598500
v -2.50677000 -1.91612400 -6.51598500
v -2.50677000 -1.91612400 -6.51598500
v -2.50677000 -1.91612400 -6.51598500
v -3.14641100 0.77049400 -5.74720200
v -3.14641100 0.77049400 -5.74720200
v -3.89405200 1.02389800 -4.05109100
v -2.83216500 -2.66116500 -5.72999800
v -2.83216500 -2.66116500 -5.72999800
v -2.83216500 -2.66116500 -5.72999800
v -3.79084500 -1.86363600 -3.95685600
v -4.44033900 -0.82012600 -2.03404900
v -3.03487600 -4.42268000 -4.05109300
v -3.03487600 -4.42268000 -4.05109300
v -3.79084500 -3.88082100 -2.01718800
v -3.79084500 -3.88082100 -2.01718800
v -3.88472600 -4.11799300 1.01874200
v -3.88472600 -4.11799300 1.01874200
v -2.54956000 -6.45336900 -2.03838400
v -2.54956000 -6.45336900 -2.03838400
v -4.57909900 -1.19893900 -0.00000100
v -4.43068200 -0.98811200 2.03838300
v -4.30712200 2.83972300 -0.00000000
v -4.10277100 2.96634000 2.03838100
v -4.27174900 1.97842800 -2.01718800
v -3.42926900 4.90045100 -1.95536700
v -2.72013400 6.53445700 0.08390200
v -2.57954700 6.36589200 2.11739900
v -1.27157500 6.50932600 5.04123400
v -1.27157500 6.50932600 5.04123400
v -2.95922100 4.66506000 3.98290300
v -3.90772500 1.01579600 4.05237600
v -2.37524200 3.92855800 5.76931700
v -1.29734600 3.56414700 7.35208800
v -1.29734600 3.56414700 7.35208800
v -3.10308100 0.76618500 5.81912200
v -2.03319800 0.78924400 7.35767400
v -2.03319800 0.78924400 7.35767400
v -1.57838300 -2.80962600 7.44539500
v -1.57838300 -2.80962600 7.44539500
v -0.89679600 -0.43887100 8.46935200
v -0.89679600 -0.43887100 8.46935200
v -0.45154600 2.83337600 8.38873400
v -0.45154600 2.83337600 8.38873400
v -3.63561500 2.32750200 8.26292200
v -2.90940100 4.33917200 7.84615700
v 0.24583500 5.44115600 7.52091500
v 0.24583500 5.44115600 7.52091500
v 0.24583500 5.44115600 7.52091500
v -4.02304400 0.30717500 8.33230700
v -4.02304400 0.30717500 8.33230700
v -3.79942400 -1.91746400 8.28370000
v -5.47909300 1.99447800 6.75858500
v -5.47909300 1.99447800 6.75858500
v -6.09588800 -0.42041100 6.30979300
v -6.09588800 -0.42041100 6.30979300
v -4.80749700 -3.65041900 6.85285700
v -6.43164000 2.24247500 5.32214900
v -5.18307600 5.01386100 5.41189200
v -7.05971100 2.65583500 3.76694300
v -5.73253800 5.71886000 3.64324100
v -3.66754700 7.69536600 3.70542500
v -3.66754700 7.69536600 3.70542500
v -5.55647400 6.66776400 1.87570300
v -6.64822900 5.33064000 0.94523100
v -3.21050900 7.05667100 5.28579600
v -3.21050900 7.05667100 5.28579600
v -3.80610600 8.20927000 2.10761400
v -3.80610600 8.20927000 2.10761400
v -5.06495000 7.51568200 -0.08046100
v -0.12794400 7.74982500 4.64121300
v -0.12794400 7.74982500 4.64121300
v 0.23068000 7.13078200 5.93066900
v 0.23068000 7.13078200 5.93066900
v 0.23068000 7.13078200 5.93066900
v 0.23068000 7.13078200 5.93066900
v -2.55191900 6.05179400 6.83122300
v -2.55191900 6.05179400 6.83122300
v -2.55191900 6.05179400 6.83122300
v -4.39703300 4.25754500 6.84103300
v -4.39703300 4.25754500 6.84103300
v -7.65801800 2.96459300 -0.00000300
v -2.58873600 -6.11921100 6.74178600
v -2.58873600 -6.11921100 6.74178600
v -3.24448000 -3.40548400 8.10663500
v -2.46445500 -4.97232900 7.62820500
v -0.37351000 -3.07190600 8.34021600
v -0.37351000 -3.07190600 8.34021600
v 0.22513600 -5.43473400 7.52781200
v 0.22513600 -5.43473400 7.52781200
v 0.22513600 -5.43473400 7.52781200
v 0.22513600 -5.43473400 7.52781200
v 0.09375100 -7.06334600 5.94795400
v 0.09375100 -7.06334600 5.94795400
v -2.25650500 -4.19512600 5.76931800
v -2.25650500 -4.19512600 5.76931800
v -2.25650500 -4.19512600 5.76931800
v -3.66777100 -2.68427200 3.91860200
v -3.00989900 -1.67722900 5.74446300
v -2.21317600 -6.05790000 3.91448700
v -2.21317600 -6.05790000 3.91448700
v -0.08041100 -7.72885400 4.71196900
v -0.08041100 -7.72885400 4.71196900
v -2.60604500 -6.37808800 1.95808600
v -2.60604500 -6.37808800 1.95808600
v -0.71376200 -8.65350700 0.89078100
v -0.71376200 -8.65350700 0.89078100
v -0.67830000 -8.43199800 -2.01718900
v -2.57613600 -6.72637500 -0.00211100
v -2.57613600 -6.72637500 -0.00211100
v -3.65893400 -7.69943800 3.70967100
v -3.19551500 -7.07519500 5.26964700
v -1.12842200 -5.28002800 -6.39541500
v -1.12842200 -5.28002800 -6.39541500
v -1.12842200 -5.28002800 -6.39541500
v 0.16238300 -6.87190700 -6.18902900
v 0.16238300 -6.87190700 -6.18902900
vn 0.44342324 0.79890478 0.40635820
vn -0.14350195 -0.94191263 -0.30365736
vn -0.14083141 -0.98942417 -0.03473232
vn 0.51557094 0.82215207 0.24135569
vn -0.34747742 -0.90327417 -0.25170462
vn 0.43110011 0.77986067 0.45383922
vn -0.10534526 -0.60168941 -0.79175263
vn 0.64127636 0.67122682 0.37177841
vn -0.09050365 -0.66599003 -0.74045011
vn 0.31309338 0.81294309 0.49101534
vn -0.07454490 -0.90267510 -0.42381684
vn -0.20522360 -0.90259372 -0.37842814
vn -0.12746125 -0.63812333 -0.75931037
vn -0.17809328 -0.47098694 -0.86397574
vn -0.40140907 -0.79926242 -0.44726988
vn -0.34105319 -0.36208140 -0.86751356
vn -0.55643666 -0.56384339 -0.61029409
vn -0.60037349 -0.66546057 -0.44352440
vn -0.59636279 -0.75596582 -0.26993906
vn -0.30762059 -0.94983884 0.05635376
vn -0.63746895 -0.77017380 -0.02157895
vn -0.73966942 -0.65833641 -0.13957910
vn -0.89237643 -0.40190893 -0.20526449
vn -0.69686424 -0.61612286 -0.36711422
vn -0.86082115 -0.39976244 -0.31492370
vn -0.75901079 -0.64437513 0.09318428
vn -0.71781446 -0.60675712 0.34145015
vn -0.83177711 -0.55462872 0.02310472
vn -0.92005619 -0.38736126 -0.05871844
vn -0.81399311 -0.54028218 0.21333161
vn -0.94435104 -0.29884639 0.13744797
vn -0.39303029 -0.88822321 0.23787963
vn -0.93311046 -0.23654989 0.27083023
vn -0.80123175 -0.36194222 0.47647195
vn -0.79901344 -0.52140870 0.29951708
vn -0.94140557 -0.05514897 0.33273736
vn -0.69905576 -0.43163129 0.57010129
vn -0.67019316 -0.56968993 0.47570423
vn -0.77860722 -0.27914339 0.56200513
vn -0.90411714 -0.16402314 0.39454862
vn -0.98087757 -0.09654783 0.16899029
vn -0.99999574 0.00268288 0.00114732
vn -0.95550588 0.23192772 0.18225818
vn -0.96827551 -0.24967166 0.01032450
vn -0.95680205 -0.24059120 -0.16323515
vn -0.90826626 -0.25799386 -0.32938060
vn -0.98458295 0.06720091 -0.16149440
vn -0.94508963 -0.00991652 -0.32666075
vn -0.87105811 0.07222841 -0.48584034
vn -0.92759372 0.26634161 -0.26197717
vn -0.78405741 -0.17667398 -0.59501284
vn -0.87771983 -0.18782303 -0.44082922
vn -0.83958059 -0.37307780 -0.39486376
vn -0.68720968 -0.40327876 -0.60424258
vn -0.71164303 -0.51920008 -0.47328160
vn -0.75797120 -0.26051212 -0.59800761
vn 0.00530088 -0.01834446 -0.99981767
vn -0.81585971 0.15698589 -0.55653245
vn -0.00679609 0.00906488 -0.99993582
vn -0.77278754 -0.07863354 -0.62977470
vn -0.69495090 0.42747772 -0.57819205
vn -0.07400608 0.15658957 -0.98488721
vn -0.82136595 0.38248559 -0.42315807
vn -0.64760828 0.67684294 -0.34998165
vn -0.82656920 0.53675470 -0.16934505
vn -0.70971116 0.48143292 -0.51432715
vn -0.54608373 0.68731679 -0.47894487
vn -0.43518321 0.58949673 -0.68052125
vn -0.17880840 0.43262805 -0.88366313
vn -0.42758272 0.76323471 -0.48440251
vn -0.31588020 0.81482251 -0.48609050
vn -0.51191284 0.78322206 -0.35285756
vn -0.25161996 0.90267023 -0.34910435
vn -0.14967023 0.93943766 -0.30831104
vn 0.43947969 -0.80000241 0.40847734
vn -0.12831415 0.63933666 -0.75814518
vn -0.20875752 0.90546153 -0.36953987
vn -0.17512840 0.97700046 -0.12165584
vn -0.52772365 0.82522611 -0.20127002
vn -0.60396367 0.77175930 -0.19903637
vn -0.55485359 0.83135491 -0.03140884
vn -0.06979773 0.98400224 0.16391422
vn 0.52103561 -0.81782232 0.24431240
vn -0.12961445 0.99110474 -0.03019081
vn -0.03780049 0.97176342 0.23290981
vn 0.55081379 -0.83034521 0.08444526
vn 0.66254622 -0.69823416 -0.27111173
vn 0.71911197 -0.68727152 -0.10264419
vn 0.54386061 -0.81620610 0.19499549
vn 0.77989901 -0.60439753 0.16266884
vn 0.51827936 -0.75811270 0.39579241
vn 0.77088241 -0.54331493 0.33248939
vn 0.85213039 -0.40007757 0.33735994
vn 0.73889036 -0.51551590 0.43391750
vn 0.62732426 -0.60000925 0.49644050
vn 0.63762921 -0.31997806 0.70074462
vn 0.00748784 0.10041395 -0.99491757
vn -0.03464049 0.20431531 -0.97829203
vn 0.55217890 -0.68248747 0.47886253
vn 0.43095212 -0.77871094 0.45594905
vn -0.10655232 0.60567475 -0.78854594
vn -0.08875581 0.67080512 -0.73630354
vn -0.07727586 0.90114419 -0.42657660
vn 0.31441062 -0.81256943 0.49079209
vn 0.82960978 -0.35774642 0.42867832
vn 0.63762921 -0.31997806 0.70074462
vn 0.00637189 0.01449963 -0.99987457
vn 0.63762921 -0.31997806 0.70074462
vn 0.73399714 -0.01950811 0.67887232
vn 0.87604027 -0.21409713 0.43210632
vn 0.89014597 0.08375852 0.44791145
vn 0.73399714 -0.01950811 0.67887232
vn 0.72872449 0.32028733 0.60529054
vn 0.01214996 -0.01275940 -0.99984478
vn 0.90161995 -0.07509244 0.42596079
vn 0.73399714 -0.01950811 0.67887232
vn 0.93669567 -0.09770806 0.33623557
vn 0.89582693 0.14710583 0.41934947
vn 0.78044461 0.38196139 0.49498657
vn 0.72872449 0.32028733 0.60529054
vn 0.93095893 0.15134552 0.33228001
vn 0.98488803 0.06343036 0.16115877
vn 0.80877236 0.45426979 0.37353210
vn 0.91331707 0.25820629 0.31493086
vn 0.88036226 0.42301777 0.21451867
vn 0.94502485 0.29771699 0.13525027
vn 0.88040281 0.46904580 -0.06990654
vn 0.94111777 0.32684225 -0.08643772
vn 0.77506064 0.59315443 0.21782750
vn 0.90068733 0.42954291 0.06523215
vn 0.99613763 0.08773223 0.00358793
vn 0.98328240 0.06700809 -0.16930929
vn 0.97348700 -0.22872167 -0.00307694
vn 0.95442114 -0.24739645 -0.16695894
vn 0.97342988 -0.16117707 0.16265370
vn 0.89262580 -0.42175428 0.15919330
vn 0.83454570 -0.55093629 -0.00163371
vn 0.80792116 -0.55658693 -0.19358304
vn 0.70124657 -0.53966544 -0.46584811
vn 0.61890287 -0.69100337 -0.37346162
vn 0.85965575 -0.38955961 -0.33050765
vn 0.93970479 -0.08792063 -0.33049186
vn 0.79818930 -0.33065005 -0.50355177
vn 0.72764140 -0.34928427 -0.59037149
vn 0.62296835 -0.30238130 -0.72144022
vn 0.86323793 -0.06496287 -0.50059974
vn 0.81670292 -0.05902981 -0.57403120
vn 0.68006758 -0.06928303 -0.72986844
vn 0.81068530 0.16018309 -0.56314361
vn 0.64924199 0.28845425 -0.70376060
vn 0.69065745 0.03700646 -0.72223460
vn -0.03896025 -0.01378079 0.99914573
vn 0.64025679 -0.24067035 -0.72948545
vn -0.03797738 0.18811077 0.98141330
vn -0.36184182 0.18827202 0.91303020
vn -0.28378792 0.40472643 0.86928760
vn 0.55746793 -0.39252328 -0.73154288
vn -0.03972326 0.53366899 0.84476001
vn 0.62588632 -0.50013077 -0.59844425
vn -0.04514891 0.00876919 0.99894178
vn -0.67926064 0.02420125 0.73349798
vn -0.39590991 -0.13626186 0.90812337
vn -0.78986421 0.22774365 0.56942722
vn -0.66878425 0.15583652 0.72694057
vn -0.71665109 -0.08826515 0.69182403
vn -0.87978101 0.01311899 0.47519813
vn -0.65752841 -0.35531543 0.66438493
vn -0.84985424 0.20921739 0.48371051
vn -0.70547960 0.48455767 0.51720634
vn -0.90815555 0.24676068 0.33817549
vn -0.77084205 0.53704799 0.34261056
vn -0.65142769 0.66935221 0.35722484
vn -0.10559263 0.93259641 0.34512916
vn -0.74104184 0.64366497 0.19118680
vn -0.87530470 0.47625730 0.08378948
vn -0.59667909 0.61119183 0.52001790
vn -0.12036295 0.87268589 0.47321465
vn -0.63975426 0.74456850 0.19061017
vn -0.06014250 0.96235673 0.26505172
vn -0.69311659 0.72080823 -0.00498918
vn -0.09119514 0.92142892 0.37769325
vn 0.62702029 -0.69287280 -0.35605173
vn 0.56257267 -0.67333639 -0.47971877
vn 0.58170155 -0.55470624 -0.59491536
vn -0.11160504 0.86075797 0.49662866
vn -0.02997517 0.68491637 0.72800484
vn -0.18575105 0.57647600 0.79572104
vn -0.12566127 0.80638625 0.57788447
vn -0.55267360 0.57131898 0.60675078
vn -0.56336666 0.38047097 0.73338929
vn -0.65854457 0.45220865 0.60152006
vn -0.96281308 0.26971261 -0.01568707
vn -0.35127019 -0.55819784 0.75168107
vn -0.24873057 -0.72974004 0.63687721
vn -0.31140169 -0.31915466 0.89508061
vn -0.25715513 -0.47257536 0.84293758
vn -0.03628797 -0.21029656 0.97696394
vn 0.61022906 0.29544317 -0.73507403
vn 0.63426127 0.41528077 -0.65211542
vn 0.65294283 0.49957360 -0.56929069
vn -0.03791052 -0.41760832 0.90783593
vn -0.03179381 -0.69460702 0.71868647
vn -0.07534589 -0.79757530 0.59849532
vn 0.66171255 0.55471972 -0.50440315
vn 0.66979105 0.51555212 -0.53440244
vn 0.65504780 0.43054093 -0.62092421
vn 0.84942165 0.30193833 -0.43280031
vn 0.91771486 0.23354011 -0.32133852
vn 0.85623016 0.12328736 -0.50166736
vn 0.87801895 0.38428900 -0.28531509
vn 0.67623570 0.63124162 -0.37978850
vn 0.65497202 0.66268068 -0.36313354
vn -0.08671140 -0.91676291 0.38990626
vn 0.76892803 0.61920736 -0.15916006
vn 0.88409080 0.39924217 -0.24287680
vn 0.68299007 0.72646109 -0.07601876
vn -0.03850395 -0.97132969 0.23459769
vn 0.61264987 0.77037864 0.17656977
vn 0.76959952 0.63837366 -0.01398719
vn 0.90224262 0.42569712 0.06884925
vn -0.39375550 -0.84189593 0.36900928
vn -0.36303793 -0.77461423 0.51785737
vn 0.72759196 0.49905856 0.47069151
vn 0.72872449 0.32028733 0.60529054
vn 0.00267393 -0.09846909 -0.99513652
vn -0.00742800 -0.14982407 -0.98868477
vn 0.55769637 0.67873305 0.47780351
vt 0.60951100 0.43157800
vt 0.60934900 0.59391900
vt 0.59796200 0.58829500
vt 0.59784400 0.43606600
vt 0.59646700 0.56528300
vt 0.62015400 0.44142700
vt 0.00854900 0.25933400
vt 0.60427100 0.45370400
vt 0.00000000 0.25442400
vt 0.61957000 0.43115900
vt 0.61938400 0.59643500
vt 0.61481000 0.58190900
vt 0.01517300 0.25497300
vt 0.03256100 0.26233000
vt 0.61359500 0.56404000
vt 0.04402000 0.27224200
vt 0.04642800 0.26816300
vt 0.60769600 0.55092800
vt 0.59392400 0.55473700
vt 0.58187700 0.56512000
vt 0.57890900 0.55695300
vt 0.58641300 0.54316900
vt 0.09819700 0.52488800
vt 0.59646000 0.54396900
vt 0.10788400 0.52293700
vt 0.57166200 0.55014100
vt 0.55750600 0.55635400
vt 0.57488000 0.54219900
vt 0.08720600 0.52326900
vt 0.56451100 0.54272100
vt 0.07707400 0.51991000
vt 0.56837800 0.56400000
vt 0.06701400 0.51702300
vt 0.36694800 0.61726700
vt 0.55510600 0.54712500
vt 0.06644600 0.50156700
vt 0.37671800 0.61235300
vt 0.54782600 0.55915900
vt 0.36828800 0.62685100
vt 0.05770300 0.50755200
vt 0.07641700 0.50466200
vt 0.08682600 0.49960600
vt 0.07592600 0.48475400
vt 0.08696200 0.51300800
vt 0.09703700 0.51225000
vt 0.10756400 0.51116200
vt 0.09729900 0.49448800
vt 0.10729400 0.49810900
vt 0.11698400 0.49174800
vt 0.10344800 0.48292800
vt 0.06056900 0.28988800
vt 0.11711700 0.50696700
vt 0.11693200 0.51589200
vt 0.05494200 0.27775500
vt 0.60514800 0.54236600
vt 0.05417100 0.28715600
vt 0.05417100 0.28715600
vt 0.12313400 0.48793900
vt 0.05704500 0.30919300
vt 0.05704500 0.30919300
vt 0.12313400 0.46602400
vt 0.04759400 0.32898200
vt 0.11197900 0.47364300
vt 0.10734000 0.45546300
vt 0.09701900 0.46460600
vt 0.11735000 0.46650900
vt 0.11690400 0.45464000
vt 0.04265400 0.33913200
vt 0.03251100 0.34207500
vt 0.12003900 0.44798400
vt 0.69039200 0.15925700
vt 0.10736800 0.44333400
vt 0.67721800 0.16200200
vt 0.68409700 0.13550200
vt 0.46454300 0.95593400
vt 0.01544200 0.34957600
vt 0.69009100 0.14543000
vt 0.66733500 0.16175800
vt 0.09750900 0.44107000
vt 0.09757400 0.45020900
vt 0.08826600 0.44209600
vt 0.65784400 0.16223100
vt 0.47122800 0.94534900
vt 0.67313200 0.14107900
vt 0.65559900 0.14581000
vt 0.47870600 0.92826200
vt 0.99887600 0.06187000
vt 0.37450300 0.19463200
vt 0.48434700 0.94350200
vt 0.37887500 0.21053600
vt 0.48369900 0.95477600
vt 0.38156100 0.22117900
vt 0.39948200 0.22156600
vt 0.39235400 0.23395200
vt 0.48485000 0.96832100
vt 0.99112600 0.69281800
vt 0.02404500 0.33334800
vt 0.01651200 0.34065000
vt 0.47754900 0.96815500
vt 0.46962500 0.96832100
vt 0.00842400 0.34541700
vt -0.00000000 0.35022600
vt 0.69406300 0.13160700
vt 0.46099900 0.96573500
vt 0.40234400 0.23128700
vt 0.97872000 0.69703100
vt 0.03411400 0.31505000
vt 0.97023900 0.69281800
vt 0.99347600 0.54493500
vt 0.41188700 0.23501900
vt 0.43498900 0.23434100
vt 0.97023900 0.54493500
vt 0.99100000 0.69703100
vt 0.03483600 0.29182600
vt 0.42074200 0.23100300
vt 0.98494800 0.54964400
vt 0.41983200 0.22216600
vt 0.43927800 0.23007200
vt 0.60843100 0.47582000
vt 0.98822800 0.70082300
vt 0.43556500 0.22104300
vt 0.43020600 0.21104400
vt 0.59979300 0.47109800
vt 0.44892900 0.22061700
vt 0.58739500 0.47332700
vt 0.44640400 0.20997800
vt 0.57122800 0.46856600
vt 0.44743800 0.19326300
vt 0.59079100 0.46124100
vt 0.45939500 0.20884600
vt 0.43217400 0.19985100
vt 0.43064700 0.18856700
vt 0.40977700 0.20043900
vt 0.40866200 0.18910400
vt 0.41470300 0.21137100
vt 0.39790700 0.21105600
vt 0.38806800 0.19968700
vt 0.38863000 0.18836300
vt 0.38632200 0.17147100
vt 0.97743500 0.05348200
vt 0.39808600 0.17800000
vt 0.41895000 0.17752100
vt 0.40139100 0.16765800
vt 0.40223200 0.15820200
vt 0.75326400 0.80107100
vt 0.41938800 0.16724200
vt 0.41811600 0.15810700
vt 0.75811800 0.78569500
vt 0.43743300 0.15666900
vt 0.75504600 0.76576900
vt 0.75049600 0.77880700
vt 0.40466400 0.63778300
vt 0.74758200 0.79693900
vt 0.40758300 0.65591200
vt 0.38643500 0.65306900
vt 0.39124500 0.66423700
vt 0.74302500 0.81147200
vt 0.41220400 0.67040100
vt 0.39052200 0.15666900
vt 0.38388400 0.64187300
vt 0.38388400 0.64187300
vt 0.38540000 0.62956000
vt 0.04976800 0.48265200
vt 0.37422400 0.65126300
vt 0.37016700 0.63790200
vt 0.05222300 0.49657100
vt 0.37875600 0.62001200
vt 0.05755700 0.48391800
vt 0.05718200 0.46654300
vt 0.06605100 0.48349600
vt 0.06686200 0.46443700
vt 0.06679700 0.44897500
vt 0.63640700 0.15894500
vt 0.07664700 0.45919200
vt 0.08165900 0.46887800
vt 0.05814200 0.45099000
vt 0.62855100 0.15323500
vt 0.07560400 0.44676300
vt 0.64480000 0.16249200
vt 0.08753100 0.45364200
vt 0.63596900 0.13636000
vt 0.97766000 0.06104800
vt 0.97023900 0.06187000
vt 0.38145300 0.16575800
vt 0.62955700 0.13160700
vt 0.41211900 0.67982600
vt 0.39362200 0.67377000
vt 0.62121500 0.14564900
vt 0.04972500 0.45434400
vt 0.38138400 0.66380700
vt 0.04942200 0.46830100
vt 0.08679600 0.48358800
vt 0.39353300 0.60638000
vt 0.54507800 0.57737200
vt 0.38911000 0.62133700
vt 0.39432400 0.61269300
vt 0.40817800 0.62321600
vt 0.74699200 0.76425000
vt 0.74302500 0.75125600
vt 0.54503800 0.43115900
vt 0.41220400 0.61017800
vt 0.54503800 0.59643500
vt 0.55371200 0.59383600
vt 0.55374200 0.43150100
vt 0.54919200 0.45106600
vt 0.75961800 0.75824800
vt 0.44584000 0.16606500
vt 0.43904300 0.17741800
vt 0.43271400 0.16713800
vt 0.45623200 0.17591000
vt 0.55976800 0.45037800
vt 0.56019600 0.43330900
vt 0.56024700 0.59123100
vt 0.56949700 0.45528400
vt 0.45857000 0.18687400
vt 0.57956000 0.44154300
vt 0.58004300 0.58235900
vt 0.59494400 0.44641700
vt 0.58005800 0.45762200
vt 0.46068000 0.19759100
vt 0.56010400 0.56682100
vt 0.55228200 0.57172100
vt 0.61613200 0.46192700
vt 0.97023900 0.69703100
vt 0.02569400 0.27318000
vt 0.01711800 0.26433800
vt 0.61806400 0.45097600
f 4/4/4 1/1/1 8/8/8
f 3/3/3 5/5/5 2/2/2
f 2/2/2 5/5/5 12/12/12
f 6/6/6 1/1/1 10/10/10
f 6/6/6 8/8/8 1/1/1
f 12/12/12 11/11/11 2/2/2
f 13/13/13 7/7/7 9/9/9
f 14/14/14 7/7/7 13/13/13
f 5/5/5 15/15/15 12/12/12
f 16/16/16 7/7/7 14/14/14
f 17/17/17 16/16/16 14/14/14
f 15/15/15 19/19/19 18/18/18
f 15/15/15 5/5/5 19/19/19
f 5/5/5 20/20/20 19/19/19
f 18/18/18 19/19/19 24/24/24
f 21/21/21 19/19/19 20/20/20
f 19/19/19 21/21/21 26/26/26
f 19/19/19 26/26/26 22/22/22
f 24/24/24 19/19/19 22/22/22
f 26/26/26 27/27/27 35/35/35
f 32/32/32 27/27/27 26/26/26
f 22/22/22 26/26/26 28/28/28
f 26/26/26 30/30/30 28/28/28
f 26/26/26 35/35/35 30/30/30
f 26/26/26 21/21/21 32/32/32
f 33/33/33 36/36/36 41/41/41
f 33/33/33 40/40/40 36/36/36
f 33/33/33 41/41/41 31/31/31
f 34/34/34 37/37/37 39/39/39
f 27/27/27 38/38/38 35/35/35
f 44/44/44 31/31/31 41/41/41
f 42/42/42 44/44/44 41/41/41
f 42/42/42 41/41/41 43/43/43
f 43/43/43 41/41/41 36/36/36
f 45/45/45 44/44/44 42/42/42
f 29/29/29 31/31/31 44/44/44
f 45/45/45 29/29/29 44/44/44
f 23/23/23 45/45/45 46/46/46
f 45/45/45 48/48/48 46/46/46
f 45/45/45 47/47/47 48/48/48
f 45/45/45 42/42/42 47/47/47
f 45/45/45 23/23/23 29/29/29
f 52/52/52 46/46/46 48/48/48
f 48/48/48 50/50/50 49/49/49
f 52/52/52 48/48/48 49/49/49
f 48/48/48 47/47/47 50/50/50
f 53/53/53 46/46/46 52/52/52
f 58/58/58 52/52/52 49/49/49
f 56/56/56 54/54/54 51/51/51
f 60/60/60 56/56/56 51/51/51
f 62/62/62 57/57/57 59/59/59
f 61/61/61 58/58/58 63/63/63
f 58/58/58 49/49/49 63/63/63
f 63/63/63 49/49/49 50/50/50
f 63/63/63 50/50/50 65/65/65
f 66/66/66 63/63/63 64/64/64
f 63/63/63 65/65/65 64/64/64
f 61/61/61 63/63/63 66/66/66
f 66/66/66 67/67/67 61/61/61
f 67/67/67 66/66/66 64/64/64
f 68/68/68 69/69/69 62/62/62
f 67/67/67 64/64/64 72/72/72
f 67/67/67 72/72/72 70/70/70
f 71/71/71 73/73/73 77/77/77
f 78/78/78 74/74/74 73/73/73
f 74/74/74 77/77/77 73/73/73
f 79/79/79 72/72/72 64/64/64
f 80/80/80 81/81/81 79/79/79
f 79/79/79 64/64/64 80/80/80
f 82/82/82 84/84/84 78/78/78
f 84/84/84 74/74/74 78/78/78
f 91/91/91 75/75/75 83/83/83
f 84/84/84 82/82/82 85/85/85
f 86/86/86 89/89/89 83/83/83
f 89/89/89 91/91/91 83/83/83
f 91/91/91 100/100/100 75/75/75
f 93/93/93 92/92/92 90/90/90
f 93/93/93 94/94/94 92/92/92
f 91/91/91 95/95/95 99/99/99
f 91/91/91 99/99/99 100/100/100
f 101/101/101 76/76/76 102/102/102
f 76/76/76 101/101/101 69/69/69
f 62/62/62 101/101/101 98/98/98
f 69/69/69 101/101/101 62/62/62
f 75/75/75 100/100/100 104/104/104
f 77/77/77 74/74/74 103/103/103
f 62/62/62 98/98/98 97/97/97
f 97/97/97 107/107/107 62/62/62
f 93/93/93 105/105/105 94/94/94
f 108/108/108 96/96/96 106/106/106
f 116/116/116 112/112/112 109/109/109
f 57/57/57 107/107/107 114/114/114
f 105/105/105 115/115/115 110/110/110
f 107/107/107 57/57/57 62/62/62
f 115/115/115 117/117/117 121/121/121
f 105/105/105 117/117/117 115/115/115
f 115/115/115 118/118/118 111/111/111
f 115/115/115 121/121/121 118/118/118
f 121/121/121 117/117/117 122/122/122
f 121/121/121 122/122/122 126/126/126
f 118/118/118 121/121/121 124/124/124
f 121/121/121 126/126/126 124/124/124
f 130/130/130 126/126/126 128/128/128
f 126/126/126 131/131/131 128/128/128
f 126/126/126 122/122/122 131/131/131
f 123/123/123 125/125/125 129/129/129
f 122/122/122 133/133/133 131/131/131
f 131/131/131 132/132/132 128/128/128
f 133/133/133 132/132/132 131/131/131
f 133/133/133 134/134/134 132/132/132
f 137/137/137 134/134/134 133/133/133
f 135/135/135 136/136/136 133/133/133
f 122/122/122 135/135/135 133/133/133
f 136/136/136 137/137/137 133/133/133
f 138/138/138 137/137/137 88/88/88
f 137/137/137 138/138/138 134/134/134
f 136/136/136 90/90/90 137/137/137
f 90/90/90 88/88/88 137/137/137
f 139/139/139 138/138/138 88/88/88
f 138/138/138 141/141/141 134/134/134
f 138/138/138 139/139/139 141/141/141
f 134/134/134 141/141/141 142/142/142
f 142/142/142 141/141/141 143/143/143
f 141/141/141 139/139/139 143/143/143
f 143/143/143 144/144/144 147/147/147
f 139/139/139 144/144/144 143/143/143
f 142/142/142 143/143/143 146/146/146
f 143/143/143 147/147/147 146/146/146
f 146/146/146 147/147/147 149/149/149
f 150/150/150 148/148/148 151/151/151
f 148/148/148 145/145/145 153/153/153
f 148/148/148 153/153/153 151/151/151
f 155/155/155 160/160/160 154/154/154
f 156/156/156 155/155/155 154/154/154
f 158/158/158 156/156/156 154/154/154
f 157/157/157 153/153/153 145/145/145
f 160/160/160 152/152/152 154/154/154
f 165/165/165 162/162/162 161/161/161
f 160/160/160 162/162/162 152/152/152
f 164/164/164 161/161/161 155/155/155
f 165/165/165 161/161/161 164/164/164
f 39/39/39 167/167/167 165/165/165
f 167/167/167 162/162/162 165/165/165
f 36/36/36 40/40/40 166/166/166
f 36/36/36 166/166/166 168/168/168
f 166/166/166 163/163/163 168/168/168
f 169/169/169 168/168/168 163/163/163
f 170/170/170 168/168/168 169/169/169
f 36/36/36 168/168/168 170/170/170
f 43/43/43 36/36/36 170/170/170
f 43/43/43 170/170/170 171/171/171
f 170/170/170 169/169/169 171/171/171
f 178/178/178 171/171/171 172/172/172
f 171/171/171 176/176/176 172/172/172
f 171/171/171 169/169/169 176/176/176
f 174/174/174 175/175/175 171/171/171
f 178/178/178 174/174/174 171/171/171
f 43/43/43 171/171/171 175/175/175
f 180/180/180 178/178/178 81/81/81
f 180/180/180 174/174/174 178/178/178
f 173/173/173 181/181/181 179/179/179
f 85/85/85 82/82/82 179/179/179
f 181/181/181 85/85/85 179/179/179
f 183/183/183 140/140/140 182/182/182
f 181/181/181 177/177/177 185/185/185
f 140/140/140 87/87/87 182/182/182
f 177/177/177 181/181/181 173/173/173
f 186/186/186 187/187/187 158/158/158
f 177/177/177 188/188/188 185/185/185
f 184/184/184 159/159/159 139/139/139
f 187/187/187 156/156/156 158/158/158
f 190/190/190 156/156/156 187/187/187
f 169/169/169 189/189/189 176/176/176
f 169/169/169 191/191/191 189/189/189
f 190/190/190 155/155/155 156/156/156
f 155/155/155 190/190/190 164/164/164
f 169/169/169 163/163/163 191/191/191
f 80/80/80 65/65/65 180/180/180
f 180/180/180 81/81/81 80/80/80
f 65/65/65 175/175/175 180/180/180
f 175/175/175 174/174/174 180/180/180
f 192/192/192 43/43/43 175/175/175
f 192/192/192 175/175/175 65/65/65
f 50/50/50 47/47/47 192/192/192
f 47/47/47 42/42/42 192/192/192
f 42/42/42 43/43/43 192/192/192
f 192/192/192 65/65/65 50/50/50
f 193/193/193 167/167/167 37/37/37
f 167/167/167 193/193/193 195/195/195
f 167/167/167 195/195/195 162/162/162
f 167/167/167 39/39/39 37/37/37
f 197/197/197 195/195/195 196/196/196
f 193/193/193 196/196/196 195/195/195
f 197/197/197 162/162/162 195/195/195
f 198/198/198 199/199/199 150/150/150
f 201/201/201 197/197/197 196/196/196
f 150/150/150 151/151/151 198/198/198
f 162/162/162 197/197/197 152/152/152
f 199/199/199 206/206/206 150/150/150
f 200/200/200 204/204/204 205/205/205
f 203/203/203 202/202/202 194/194/194
f 196/196/196 193/193/193 201/201/201
f 209/209/209 149/149/149 207/207/207
f 210/210/210 208/208/208 207/207/207
f 208/208/208 209/209/209 207/207/207
f 211/211/211 205/205/205 204/204/204
f 211/211/211 204/204/204 212/212/212
f 128/128/128 208/208/208 210/210/210
f 216/216/216 211/211/211 212/212/212
f 216/216/216 214/214/214 211/211/211
f 128/128/128 210/210/210 215/215/215
f 219/219/219 214/214/214 216/216/216
f 218/218/218 216/216/216 4/4/4
f 218/218/218 219/219/219 216/216/216
f 213/213/213 32/32/32 217/217/217
f 32/32/32 20/20/20 217/217/217
f 20/20/20 3/3/3 217/217/217
f 127/127/127 214/214/214 219/219/219
f 130/130/130 128/128/128 220/220/220
f 218/218/218 129/129/129 219/219/219
f 8/8/8 218/218/218 4/4/4
f 8/8/8 129/129/129 218/218/218
f 222/222/222 213/213/213 203/203/203
f 222/222/222 221/221/221 213/213/213
f 213/213/213 221/221/221 32/32/32
f 194/194/194 38/38/38 222/222/222
f 27/27/27 222/222/222 38/38/38
f 27/27/27 221/221/221 222/222/222
f 194/194/194 222/222/222 203/203/203
f 32/32/32 221/221/221 27/27/27
f 142/142/142 146/146/146 209/209/209
f 146/146/146 149/149/149 209/209/209
f 142/142/142 209/209/209 208/208/208
f 132/132/132 142/142/142 208/208/208
f 132/132/132 208/208/208 128/128/128
f 139/139/139 159/159/159 144/144/144
f 134/134/134 142/142/142 132/132/132
f 93/93/93 90/90/90 136/136/136
f 93/93/93 136/136/136 135/135/135
f 117/117/117 135/135/135 122/122/122
f 93/93/93 135/135/135 117/117/117
f 8/8/8 123/123/123 129/129/129
f 119/119/119 123/123/123 223/223/223
f 8/8/8 223/223/223 123/123/123
f 16/16/16 225/225/225 226/226/226
f 57/57/57 225/225/225 16/16/16
f 227/227/227 223/223/223 8/8/8
f 120/120/120 224/224/224 113/113/113
f 57/57/57 114/114/114 225/225/225
f 6/6/6 227/227/227 8/8/8
f 16/16/16 226/226/226 7/7/7
f 105/105/105 93/93/93 117/117/117
f 64/64/64 65/65/65 80/80/80
f 54/54/54 56/56/56 16/16/16
f 53/53/53 25/25/25 46/46/46
f 18/18/18 24/24/24 55/55/55
f 54/54/54 16/16/16 17/17/17
f 23/23/23 46/46/46 25/25/25
f 21/21/21 20/20/20 32/32/32
f 20/20/20 5/5/5 3/3/3

