# ('FARMS composite mesh',)
mtllib link_body_18_composite.mtl

o link_body_18
usemtl link_body_18_composite
v -2.37104000 -0.59886100 -6.19075300
v -2.43596600 0.62755300 -6.15092000
v -2.80108300 -1.86069800 -5.69191000
v -3.13083800 0.49449400 -5.76951300
v -2.24474500 -2.52136800 -5.78907800
v 1.66603800 -0.91494300 -6.22928100
v 1.66603800 -0.91494300 -6.22928100
v 1.72288800 1.26699400 -6.22827400
v 1.72288800 1.26699400 -6.22827400
v 2.30125400 3.51843600 -5.61992100
v 2.30125400 3.51843600 -5.61992100
v 0.87041600 -0.80524800 -5.76478200
v -2.27506400 2.43922600 -5.80495700
v 1.07059100 1.47110600 -5.79106800
v -0.43897400 0.52731200 -4.41491000
v -0.43897400 0.52731200 -4.41491000
v 0.06398400 2.26227200 -4.56230000
v 0.06398400 2.26227200 -4.56230000
v 1.46523500 3.87595900 -4.87088200
v 1.46523500 3.87595900 -4.87088200
v 0.26238100 3.61515500 -3.82862500
v 0.26238100 3.61515500 -3.82862500
v 0.26238100 3.61515500 -3.82862500
v -1.09309700 1.84868700 -2.66898300
v -0.95821200 3.27799700 -1.30798000
v -0.11413900 4.05718500 -2.66898300
v -0.11413900 4.05718500 -2.66898300
v -1.30239300 0.00000100 -2.64681200
v -1.61502200 0.78632000 -1.36061100
v -1.61944000 -1.40684200 -0.73212700
v -1.74725300 0.55952800 -0.00000100
v -1.07801600 3.31267300 0.51426500
v -1.40872700 1.98424000 1.36351100
v 0.41838200 5.18321600 1.45297800
v 0.41838200 5.18321600 1.45297800
v -0.63419500 3.08808600 2.74896900
v -0.04260700 4.93284000 -0.59646300
v -0.04260700 4.93284000 -0.59646300
v 0.71391500 5.63565000 0.10214600
v 0.71391500 5.63565000 0.10214600
v 0.71391500 5.63565000 0.10214600
v 0.99130200 5.73959900 -1.26857700
v 0.99130200 5.73959900 -1.26857700
v 1.36494000 5.63373800 -2.41297800
v 1.36494000 5.63373800 -2.41297800
v -2.42049900 4.90383600 -3.77774500
v -2.42049900 4.90383600 -3.77774500
v -2.92967000 5.30810300 -2.53093700
v -2.92967000 5.30810300 -2.53093700
v -3.37189600 5.50778600 -0.17972100
v -3.37189600 5.50778600 -0.17972100
v 1.85932500 5.20659400 -3.77791700
v 1.85932500 5.20659400 -3.77791700
v 1.61171100 4.50761800 -4.92354300
v 1.61171100 4.50761800 -4.92354300
v 2.33154400 4.72108300 -4.58933500
v 2.33154400 4.72108300 -4.58933500
v 2.33154400 4.72108300 -4.58933500
v 2.33154400 4.72108300 -4.58933500
v -2.06943800 4.04331300 -4.94603300
v -2.06943800 4.04331300 -4.94603300
v -2.06943800 4.04331300 -4.94603300
v -3.07171500 3.11395000 -4.88201700
v -3.07171500 3.11395000 -4.88201700
v -3.68504200 3.62908200 -3.82391000
v -4.62270500 3.09134500 -2.63937100
v -3.83126900 4.67111300 -2.08275600
v -4.29545600 1.48585100 -4.33878400
v -4.29545600 1.48585100 -4.33878400
v -3.99249400 -0.47187000 -4.89616500
v -3.99249400 -0.47187000 -4.89616500
v -5.45525600 0.68188400 -2.08572100
v -5.25175900 -0.56178300 -2.68455300
v -4.71737300 -0.60764900 -3.85684400
v -4.71737300 -0.60764900 -3.85684400
v -4.15702600 -2.77992900 -3.82317300
v -4.15702600 -2.77992900 -3.82317300
v -4.15702600 -2.77992900 -3.82317300
v -4.71020200 -2.89491200 -2.63937200
v -4.71020200 -2.89491200 -2.63937200
v -3.34635800 -2.79733000 -4.86532000
v -3.59865100 -4.32358400 -3.16679400
v -3.59865100 -4.32358400 -3.16679400
v -2.08057700 -4.06005800 -4.92710500
v -2.08057700 -4.06005800 -4.92710500
v 2.38797100 -4.60565600 -4.78064500
v 2.38797100 -4.60565600 -4.78064500
v 2.38797100 -4.60565600 -4.78064500
v 2.38797100 -4.60565600 -4.78064500
v -2.46667000 -4.89671100 -3.75817400
v -2.46667000 -4.89671100 -3.75817400
v 2.54201500 -3.73630000 -5.50582000
v 2.54201500 -3.73630000 -5.50582000
v 2.10321800 -2.81372500 -5.89901000
v 2.10321800 -2.81372500 -5.89901000
v 1.45319300 -3.83869300 -4.89385700
v 1.45319300 -3.83869300 -4.89385700
v 1.86092900 -5.23788500 -3.70335500
v 1.86092900 -5.23788500 -3.70335500
v 0.20386100 -1.76589800 -4.93007100
v 0.20386100 -1.76589800 -4.93007100
v 0.20386100 -1.76589800 -4.93007100
v 0.33809800 -3.62852400 -3.92594900
v 0.33809800 -3.62852400 -3.92594900
v -0.61116100 -1.68675200 -3.79346200
v -0.61116100 -1.68675200 -3.79346200
v -0.12607000 -4.01744000 -2.71070700
v -0.12607000 -4.01744000 -2.71070700
v -0.01042500 -4.96351200 -0.62229500
v -1.01589800 -3.14849000 -1.30798000
v -1.01589800 -3.14849000 -1.30798000
v -1.08157800 -1.85799200 -2.66453600
v 1.41879600 -5.58483300 -2.60152500
v 1.41879600 -5.58483300 -2.60152500
v 0.98717900 -5.73507300 -1.27959600
v 0.98717900 -5.73507300 -1.27959600
v -2.92916200 -5.26515300 -2.62107400
v -2.92916200 -5.26515300 -2.62107400
v -3.16049700 -5.75756700 -0.34182800
v -3.16049700 -5.75756700 -0.34182800
v -3.56094600 -5.14233400 1.43932400
v -3.56094600 -5.14233400 1.43932400
v -4.03743800 -4.84492700 0.00000100
v -4.29551500 -4.39237900 -1.30156900
v -4.29551500 -4.39237900 -1.30156900
v 0.71094500 -5.62606300 0.15641100
v 0.71094500 -5.62606300 0.15641100
v 0.42794000 -5.17915300 1.48079700
v 0.42794000 -5.17915300 1.48079700
v -1.01589800 -3.14849000 1.30797900
v -1.01589800 -3.14849000 1.30797900
v -3.57474200 -4.53600500 2.79683600
v -3.57474200 -4.53600500 2.79683600
v 0.34361800 -4.59595100 2.67266400
v 0.34361800 -4.59595100 2.67266400
v -0.40497500 -3.55007300 2.64681100
v -0.40497500 -3.55007300 2.64681100
v -1.03391000 -3.38142100 -0.00000100
v -1.03391000 -3.38142100 -0.00000100
v 0.38693000 -3.84007000 3.74565900
v 0.38693000 -3.84007000 3.74565900
v 0.38693000 -3.84007000 3.74565900
v -1.11583800 -1.75298700 2.66423600
v -0.54931700 -1.76988200 3.85919800
v -0.76642700 0.56601300 3.85994300
v 0.10770800 -1.42507400 4.90228700
v 0.10770800 -1.42507400 4.90228700
v 0.62823700 -2.57505900 4.98546400
v 0.62823700 -2.57505900 4.98546400
v 0.62823700 -2.57505900 4.98546400
v 0.62823700 -2.57505900 4.98546400
v -3.46714100 -2.45453700 4.87358000
v -3.46714100 -2.45453700 4.87358000
v -2.93064800 -1.45669600 5.69710200
v 1.17910200 -0.00087800 6.94401700
v -3.55272300 -3.70481800 3.84170200
v -3.55272300 -3.70481800 3.84170200
v -3.55272300 -3.70481800 3.84170200
v -3.55272300 -3.70481800 3.84170200
v 1.42716600 -1.13784800 6.09423600
v 1.42716600 -1.13784800 6.09423600
v 0.83582700 -0.37070600 5.76491700
v 3.04372900 -0.17769400 6.81463500
v 3.04372900 -0.17769400 6.81463500
v 1.92122000 0.68245200 6.41979700
v 1.92122000 0.68245200 6.41979700
v -0.69427500 2.54486900 5.02700100
v -0.69427500 2.54486900 5.02700100
v 3.19388500 0.04182900 6.87593200
v 3.19388500 0.04182900 6.87593200
v 3.19388500 0.04182900 6.87593200
v 1.10308800 1.46589400 5.79404200
v 1.10308800 1.46589400 5.79404200
v -0.03549700 0.47962400 4.90198000
v -0.03549700 0.47962400 4.90198000
v 0.59032200 2.53095300 4.98581600
v 0.59032200 2.53095300 4.98581600
v 0.59032200 2.53095300 4.98581600
v -0.14961600 2.82560000 3.88759000
v 0.38799100 4.42153500 3.07118200
v 0.38799100 4.42153500 3.07118200
v 0.38799100 4.42153500 3.07118200
v -3.52649400 5.15814900 1.45415300
v -3.52649400 5.15814900 1.45415300
v -3.50699600 3.16032100 4.43824500
v -3.50699600 3.16032100 4.43824500
v -3.50699600 3.16032100 4.43824500
v -3.50699600 3.16032100 4.43824500
v -3.58398700 4.54872300 2.76684000
v -3.58398700 4.54872300 2.76684000
v -4.66941500 3.04086300 2.59640100
v -4.19625800 2.71542500 3.80704000
v -4.93419900 3.24733800 1.29577500
v -5.40663800 0.95875700 2.14766200
v -4.74347900 0.46000100 3.82317100
v -4.74347900 0.46000100 3.82317100
v -5.51592300 1.88177700 -0.00000000
v -5.59779700 -0.65478500 1.35078600
v -5.09033900 -1.73658500 2.63937100
v -4.31092400 -3.10213300 3.35430700
v -4.31092400 -3.10213300 3.35430700
v -4.31092400 -3.10213300 3.35430700
v -4.99134500 -3.11904500 1.29577500
v -4.99134500 -3.11904500 1.29577500
v -4.32004500 -0.81054600 4.47933600
v -4.32004500 -0.81054600 4.47933600
v -3.15908400 -0.39183900 5.71142100
v -3.88032600 1.50498900 4.83323000
v -3.88032600 1.50498900 4.83323000
v -2.91817400 1.37362900 5.73217600
v -2.91817400 1.37362900 5.73217600
v -2.14295900 0.51151300 6.33025800
v -2.07910000 -0.28067400 6.38711900
v -5.00919300 -3.34980200 -0.00000100
v -5.00919300 -3.34980200 -0.00000100
v -5.69615200 -0.79448900 -0.00000100
v -5.38378600 -1.95269200 -1.35078700
v -5.35091500 2.07146200 -1.34791300
v -4.77290300 3.75835000 -0.60390900
v -4.03743800 4.84492600 -0.00000200
v -1.29907400 0.70166300 2.62122300
v -1.62807400 -0.66096500 1.36351000
vn -0.29421797 -0.09570528 -0.95093443
vn -0.27897916 0.11110047 -0.95384868
vn -0.56188712 -0.22276460 -0.79665475
vn -0.61797369 0.07855360 -0.78226457
vn -0.27867408 -0.35866344 -0.89089915
vn -0.02311898 -0.10291416 -0.99442153
vn 0.51348448 0.13810882 0.84691183
vn -0.02237259 0.14971303 -0.98847634
vn 0.50521682 -0.16810398 0.84646147
vn 0.48750783 -0.44464577 0.75141616
vn -0.00895187 0.45686005 -0.88949354
vn 0.61231019 0.10059414 0.78419197
vn -0.32151013 0.32987021 -0.88759049
vn 0.58911155 -0.21253908 0.77959908
vn 0.87815978 -0.05670973 0.47499412
vn 0.71497454 -0.05913271 0.69664534
vn 0.84377317 -0.28831501 0.45268232
vn 0.64424750 -0.31036402 0.69901311
vn 0.54277860 -0.62321340 0.56302438
vn 0.51140712 -0.45377386 0.72976163
vn 0.83191024 -0.36260102 0.42005457
vn 0.64140815 -0.43629152 0.63106679
vn 0.61242372 -0.62976755 0.47783891
vn 0.90881254 -0.24205233 0.33980941
vn 0.90327011 -0.39604989 0.16506847
vn 0.84412737 -0.42856459 0.32215118
vn 0.64951353 -0.66307824 0.37210137
vn 0.94204771 0.01164409 0.33527678
vn 0.98108514 -0.10944996 0.15966418
vn 0.98163790 0.17148216 0.08355175
vn 0.99639777 -0.08452025 -0.00691457
vn 0.90451833 -0.42132139 -0.06583978
vn 0.95918124 -0.23006319 -0.16444537
vn 0.79077298 -0.59003055 -0.16291731
vn -0.00579866 0.92980384 0.36800978
vn 0.85395722 -0.39835283 -0.33477171
vn 0.81165154 -0.58406601 0.00941649
vn 0.67143710 -0.71736047 0.18591984
vn 0.71545476 -0.69450393 -0.07608400
vn 0.64229267 -0.76305971 0.07211110
vn -0.02721383 0.98527838 0.16877770
vn 0.68671747 -0.69032270 0.22775797
vn -0.06639193 0.99633533 -0.05392602
vn 0.65787465 -0.66616040 0.35132786
vn -0.07162740 0.96895630 -0.23662883
vn -0.07414348 0.89440334 -0.44107302
vn -0.59572289 0.60987870 -0.52264923
vn -0.06873308 0.97793797 -0.19726399
vn -0.64111417 0.68018128 -0.35542374
vn -0.69631065 0.71573260 -0.05364996
vn -0.05545478 0.99548559 0.07702737
vn 0.56998946 -0.64289680 0.51165977
vn -0.05385660 0.89597512 -0.44082656
vn 0.03356398 0.59086604 -0.80607120
vn -0.04967174 0.84859693 -0.52670293
vn 0.15915531 0.64009040 -0.75163413
vn 0.36753204 -0.61047701 0.70159676
vn 0.42460952 -0.64643307 0.63390145
vn -0.01261355 0.85479778 -0.51880792
vn -0.09561290 0.78753701 -0.60880508
vn -0.20861954 0.48987860 -0.84646136
vn -0.56158696 0.57277185 -0.59712017
vn -0.64338487 0.47199633 -0.60272329
vn -0.57018164 0.35547596 -0.74062794
vn -0.70166421 0.49463178 -0.51284182
vn -0.85726128 0.38507725 -0.34178736
vn -0.72865670 0.63007931 -0.26843896
vn -0.69155017 0.19239431 -0.69623473
vn -0.85532564 0.20117904 -0.47743591
vn -0.73030167 -0.11735490 -0.67296901
vn -0.82183975 0.03472094 -0.56865973
vn -0.96150045 0.08530995 -0.26122614
vn -0.93889144 -0.07810350 -0.33523530
vn -0.78142474 -0.22040615 -0.58377779
vn -0.88862703 -0.03781674 -0.45706880
vn -0.74367321 -0.34485930 -0.57273223
vn -0.78655883 -0.45979205 -0.41220926
vn -0.87248121 -0.23172784 -0.43020780
vn -0.79497119 -0.48301065 -0.36704429
vn -0.90495775 -0.29632553 -0.30535659
vn -0.65422795 -0.38237176 -0.65251637
vn -0.71973155 -0.59348302 -0.36022826
vn -0.62071959 -0.53409885 -0.57397353
vn -0.07790409 -0.79834480 -0.59714029
vn -0.37378904 -0.54138246 -0.75311805
vn 0.36657234 0.55680618 0.74538017
vn -0.05215336 -0.63421798 -0.77139327
vn -0.06441650 -0.83661217 -0.54399504
vn 0.45946117 0.64943287 0.60591450
vn -0.58824510 -0.55296947 -0.59007836
vn -0.19605024 -0.86747929 -0.45721328
vn 0.37699676 0.53016790 0.75947050
vn -0.05514539 -0.53987657 -0.83993588
vn 0.51271192 0.37966553 0.77005232
vn -0.04568746 -0.32416931 -0.94489519
vn 0.53639982 0.63211109 0.55920550
vn 0.51136411 0.45122926 0.73136783
vn -0.06450138 -0.89052327 -0.45034196
vn 0.57526819 0.64232578 0.50644260
vn 0.81195457 0.09835206 0.57537523
vn 0.77466271 0.34242967 0.53163860
vn 0.64278002 0.25253311 0.72322948
vn 0.64282578 0.39887476 0.65396784
vn 0.71217530 0.51420115 0.47791581
vn 0.86833371 0.15934979 0.46968523
vn 0.79023220 0.35209320 0.50156102
vn 0.85974111 0.37295609 0.34892545
vn 0.73243434 0.58398185 0.35000734
vn 0.76067791 0.64409900 0.08065723
vn 0.92710289 0.32031540 0.19462343
vn 0.83953177 0.52199985 0.15067369
vn 0.91505744 0.23670449 0.32655914
vn -0.05813595 -0.96401505 -0.25941317
vn 0.65333474 0.65998374 0.37091129
vn 0.68684681 0.68768798 0.23521628
vn -0.00567841 -0.99877907 -0.04907265
vn -0.65093813 -0.68433333 -0.32858401
vn -0.06947026 -0.96119026 -0.26699656
vn -0.70497052 -0.70495019 -0.07785755
vn -0.02773591 -0.99475563 0.09844772
vn -0.79359395 -0.58326587 0.17323270
vn -0.01241582 -0.92928520 0.36915427
vn -0.78250310 -0.62120637 0.04232662
vn -0.89847884 -0.40423917 -0.17124972
vn -0.76083835 -0.62246428 -0.18347543
vn 0.69158645 0.72180644 -0.02652623
vn 0.00811630 -0.98061894 0.19575652
vn -0.00651900 -0.92810460 0.37226248
vn 0.79389533 0.59053952 -0.14489058
vn 0.81184371 0.56456069 -0.14893295
vn 0.94478107 0.28307698 -0.16509436
vn -0.80812080 -0.52142289 0.27396887
vn -0.00911794 -0.85453605 0.51931205
vn 0.78225813 0.55280662 -0.28718818
vn 0.00288488 -0.86187208 0.50711753
vn 0.84358476 0.36558835 -0.39333181
vn 0.78906450 0.55048425 -0.27266153
vn 0.83518210 0.54942170 -0.02463029
vn 0.95984856 0.28027269 -0.01174600
vn 0.78044016 0.38017873 -0.49636407
vn 0.74952131 0.52655699 -0.40119264
vn -0.00236278 -0.75617387 0.65436648
vn 0.92032776 0.21278915 -0.32820359
vn 0.84005020 0.22836194 -0.49210414
vn 0.86834454 -0.07540541 -0.49019566
vn 0.66269028 0.16404549 -0.73070560
vn 0.80132492 0.18124683 -0.57011223
vn 0.62467803 0.22875163 -0.74662577
vn -0.03201098 -0.60992330 0.79181365
vn -0.00658189 -0.69929988 0.71479813
vn 0.76125596 0.34765721 -0.54737905
vn -0.03972648 -0.62970684 0.77581641
vn -0.74220030 -0.27471948 0.61128384
vn -0.38389922 -0.39463470 0.83479629
vn -0.02590636 0.00119893 0.99966365
vn -0.71484391 -0.53983232 0.44449887
vn -0.03975987 -0.63440475 0.77197783
vn -0.01062956 -0.76602254 0.64272582
vn -0.70344878 -0.42315010 0.57105499
vn -0.01768817 -0.60105017 0.79901553
vn 0.54497848 0.11482321 -0.83055047
vn 0.62588204 0.03532620 -0.77911727
vn 0.02810540 -0.38010945 0.92451441
vn 0.35898398 0.04044588 -0.93246696
vn 0.01470798 0.60557008 0.79565605
vn 0.47418279 0.00039937 -0.88042633
vn 0.01156314 0.71830443 0.69563283
vn -0.00777725 0.62468704 0.78083648
vn 0.34787333 0.02375499 -0.93724055
vn 0.03849499 -0.29308106 0.95531232
vn 0.01437025 0.59874146 0.80081344
vn 0.65055318 -0.12424407 -0.74922892
vn 0.09061851 0.67288005 0.73418030
vn 0.81293405 -0.07988763 -0.57685024
vn 0.69548714 -0.06579441 -0.71551990
vn 0.70058279 -0.18557408 -0.68901815
vn 0.03123539 0.65882123 0.75165080
vn 0.75198565 -0.30497219 -0.58438818
vn 0.77312725 -0.36294405 -0.52014025
vn 0.77143597 -0.53261163 -0.34815426
vn -0.00430078 0.83886966 0.54431535
vn 0.03018652 0.71283081 0.70068610
vn -0.78122599 0.59880734 0.17639650
vn -0.01946054 0.94308804 0.33197324
vn -0.62560675 0.31173818 0.71514719
vn -0.01041501 0.74956267 0.66185144
vn -0.74991023 0.41764804 0.51303486
vn -0.04630462 0.57746260 0.81510296
vn -0.78848603 0.53287133 0.30714480
vn -0.01336894 0.84847534 0.52906604
vn -0.85362085 0.39832127 0.33566593
vn -0.80291824 0.35832382 0.47636787
vn -0.88900334 0.42822716 0.16215600
vn -0.95598891 0.12146438 0.26707978
vn -0.90551933 0.06994241 0.41850065
vn -0.78664549 0.05540342 0.61491408
vn -0.97664599 0.21432698 0.01505212
vn -0.98254670 -0.08066052 0.16761819
vn -0.92005499 -0.20454405 0.33415648
vn -0.74250122 -0.35911152 0.56544748
vn -0.77435260 -0.53954039 0.33056652
vn -0.87323652 -0.29558973 0.38740766
vn -0.80843322 -0.55831595 0.18633046
vn -0.94873999 -0.27693482 0.15231394
vn -0.88794291 -0.13502180 0.43968910
vn -0.74988781 -0.09547786 0.65463902
vn -0.63269528 -0.04068296 0.77333148
vn -0.69143757 0.16518253 0.70329853
vn -0.81405839 0.23703146 0.53021225
vn -0.63451123 0.13783027 0.76052502
vn -0.05379993 0.56532701 0.82311053
vn -0.29733299 0.24896654 0.92174224
vn -0.29650167 -0.16636318 0.94043078
vn -0.82759023 -0.55548811 0.08079211
vn -0.94511620 -0.32302586 -0.04908832
vn -0.99581478 -0.09108509 -0.00751207
vn -0.95600486 -0.24273672 -0.16472277
vn -0.94830546 0.26301852 -0.17758946
vn -0.87291236 0.48173390 -0.07717806
vn -0.77141153 0.63620109 0.01313111
vn 0.94272463 -0.08817480 -0.32170714
vn 0.98260106 0.08821154 -0.16344383
vt 0.11233200 0.89964300
vt 0.11240000 0.90644300
vt 0.11553500 0.89276900
vt 0.11703300 0.90591400
vt 0.11204200 0.88893000
vt 0.08563900 0.89647700
vt 0.56528700 0.89631000
vt 0.08462000 0.90852100
vt 0.56603100 0.90837500
vt 0.57023600 0.92069300
vt 0.08009200 0.92070500
vt 0.56001000 0.89705800
vt 0.11078400 0.91636800
vt 0.56172200 0.90961800
vt 0.87754300 0.09450300
vt 0.55150300 0.90463900
vt 0.87802100 0.10448000
vt 0.55513900 0.91414700
vt 0.99799600 0.11720500
vt 0.56472500 0.92280800
vt 0.87384300 0.11202300
vt 0.55666600 0.92156300
vt 0.98966600 0.11210300
vt 0.86834000 0.10104500
vt 0.86074500 0.10890300
vt 0.86769400 0.11402800
vt 0.98267000 0.11221500
vt 0.86836100 0.09071300
vt 0.86147300 0.09465400
vt 0.85802200 0.08256600
vt 0.85406100 0.09318900
vt 0.85078100 0.10884900
vt 0.84632100 0.10120200
vt 0.84462800 0.12036200
vt 0.45954800 0.83816900
vt 0.83817800 0.10783600
vt 0.85622200 0.11873800
vt 0.97205000 0.11696500
vt 0.85187800 0.12320900
vt 0.97023900 0.12299400
vt 0.45852700 0.84575200
vt 0.97791800 0.12174600
vt 0.45801100 0.85351600
vt 0.98474200 0.12160100
vt 0.45879000 0.86030300
vt 0.43536800 0.86129200
vt 0.87251700 0.16149300
vt 0.43337300 0.85363400
vt 0.86550900 0.16084700
vt 0.85241800 0.16113800
vt 0.43376400 0.84025700
vt 0.99308400 0.12176900
vt 0.46056600 0.86857400
vt 0.08434500 0.92634800
vt 0.45869800 0.87447900
vt 0.07949100 0.92724200
vt 0.57061300 0.92729900
vt 0.99855800 0.12299400
vt 0.46312300 0.87386900
vt 0.43736700 0.86840000
vt 0.10890900 0.92508000
vt 0.87912400 0.16488000
vt 0.87875300 0.17223600
vt 0.11583000 0.92028800
vt 0.87276300 0.17128700
vt 0.86615400 0.17655300
vt 0.86299000 0.16647700
vt 0.12440500 0.91166400
vt 0.87578100 0.18375900
vt 0.12299600 0.90078900
vt 0.87912400 0.19289500
vt 0.86326000 0.19103000
vt 0.86673900 0.19678900
vt 0.12779900 0.90019100
vt 0.87329800 0.19554900
vt 0.12471900 0.88798000
vt 0.86580100 0.00213600
vt 0.87342400 0.20514200
vt 0.85863800 0.00000000
vt 0.86681800 0.20725000
vt 0.11939100 0.88770100
vt 0.86341100 0.00683300
vt 0.12143900 0.87918400
vt 0.87504200 0.01450000
vt 0.11136700 0.88028000
vt 0.56942600 0.87567500
vt 0.08187100 0.87567500
vt 0.88080300 0.04374100
vt 0.93081000 0.01648500
vt 0.11412300 0.87567500
vt 0.86836400 0.01356300
vt 0.57061300 0.88048700
vt 0.08062500 0.88049900
vt 0.56786400 0.88569900
vt 0.08328300 0.88579300
vt 0.92941400 0.02366000
vt 0.56334900 0.88011300
vt 0.87437100 0.04174100
vt 0.92433700 0.01678600
vt 0.87997500 0.08252500
vt 0.92657500 0.03499300
vt 0.55540100 0.89183900
vt 0.55595500 0.88146000
vt 0.92214100 0.02919600
vt 0.87423900 0.08215300
vt 0.91900700 0.03823000
vt 0.86796800 0.06970800
vt 0.91496800 0.02935200
vt 0.90442700 0.02364900
vt 0.86081100 0.07358400
vt 0.90557500 0.03406900
vt 0.86832400 0.08071200
vt 0.86786200 0.04026900
vt 0.91779100 0.01706500
vt 0.91002900 0.01729800
vt 0.86013600 0.03909400
vt 0.86164100 0.01200500
vt 0.86164100 0.01200500
vt 0.84911000 0.01334700
vt 0.84911000 0.01334700
vt 0.83877300 0.01278600
vt 0.83877300 0.01278600
vt 0.84579400 0.00790600
vt 0.85963100 0.21387200
vt 0.85235000 0.00457900
vt 0.90185900 0.01689800
vt 0.85195700 0.03901600
vt 0.84429500 0.03869700
vt 0.89415200 0.01733300
vt 0.89169200 0.02996600
vt 0.84639500 0.07338400
vt 0.83128200 0.01422200
vt 0.83128200 0.01422200
vt 0.88746800 0.01703900
vt 0.83760300 0.03948000
vt 0.83862200 0.07161600
vt 0.88585700 0.02347600
vt 0.89868100 0.03169800
vt 0.85361600 0.07219000
vt 0.83205300 0.07063900
vt 0.88159200 0.01648500
vt 0.83169700 0.04091500
vt 0.83897900 0.08085100
vt 0.83202600 0.08116600
vt 0.83215300 0.09379400
vt 0.98134200 0.55244800
vt 0.82585000 0.08355800
vt 0.97465100 0.54964400
vt 0.85743900 0.77232700
vt 0.82505900 0.04374100
vt 0.82505900 0.07769900
vt 0.83135800 0.78011300
vt 0.83135800 0.78011300
vt 0.83621900 0.78448000
vt 0.86464400 0.78505100
vt 0.82548100 0.01547100
vt 0.82902800 0.77361900
vt 0.82548100 0.01547100
vt 0.82902800 0.77361900
vt 0.86461200 0.77857400
vt 0.97538200 0.55912500
vt 0.98113700 0.55999200
vt 0.87634800 0.78086100
vt 0.97026200 0.56996400
vt 0.87041200 0.78742800
vt 0.97909800 0.56902600
vt 0.46291300 0.81798200
vt 0.85639300 0.80198900
vt 0.97023900 0.57153400
vt 0.87762700 0.78177000
vt 0.87762700 0.78177000
vt 0.98611400 0.56903200
vt 0.86632500 0.79306300
vt 0.82593600 0.09388400
vt 0.98868400 0.56007600
vt 0.99254200 0.57153400
vt 0.86461200 0.79967700
vt 0.82505900 0.10568700
vt 0.83159000 0.10673600
vt 0.83573300 0.11603100
vt 0.46312300 0.82971100
vt 0.86612500 0.81020100
vt 0.84339400 0.16342600
vt 0.43585500 0.83137400
vt 0.83927100 0.81020100
vt 0.44399500 0.81609000
vt 0.82710400 0.17373500
vt 0.83927100 0.81020100
vt 0.83619000 0.16676300
vt 0.43854200 0.82445400
vt 0.83717200 0.17726600
vt 0.83056400 0.17776200
vt 0.84431600 0.17682500
vt 0.83980100 0.18976400
vt 0.83066300 0.19067400
vt 0.82744200 0.79795000
vt 0.85157200 0.18521400
vt 0.84437100 0.19842600
vt 0.83742100 0.20268600
vt 0.82505800 0.77817900
vt 0.82688500 0.00985700
vt 0.83371200 0.20764300
vt 0.83702900 0.00296700
vt 0.84502600 0.20937800
vt 0.82722500 0.19607500
vt 0.82829000 0.79039900
vt 0.83630000 0.79056800
vt 0.83446000 0.80199200
vt 0.82505900 0.18316200
vt 0.84040800 0.79958100
vt 0.84040800 0.79958100
vt 0.84410700 0.79360100
vt 0.84336400 0.78925500
vt 0.84405500 0.00133100
vt 0.85222300 0.21051600
vt 0.85185200 0.19930800
vt 0.85949700 0.20429900
vt 0.85903200 0.18373100
vt 0.85479300 0.17368100
vt 0.85141700 0.16626500
vt 0.83932400 0.09416300
vt 0.84647500 0.08649100
f 2/2/2 1/1/1 4/4/4
f 2/2/2 8/8/8 1/1/1
f 1/1/1 3/3/3 4/4/4
f 5/5/5 3/3/3 1/1/1
f 5/5/5 1/1/1 6/6/6
f 8/8/8 6/6/6 1/1/1
f 9/9/9 10/10/10 14/14/14
f 13/13/13 11/11/11 8/8/8
f 8/8/8 2/2/2 13/13/13
f 7/7/7 9/9/9 12/12/12
f 12/12/12 9/9/9 14/14/14
f 18/18/18 14/14/14 10/10/10
f 14/14/14 16/16/16 12/12/12
f 14/14/14 18/18/18 16/16/16
f 22/22/22 18/18/18 20/20/20
f 18/18/18 10/10/10 20/20/20
f 17/17/17 24/24/24 15/15/15
f 21/21/21 24/24/24 17/17/17
f 15/15/15 24/24/24 28/28/28
f 24/24/24 25/25/25 29/29/29
f 26/26/26 25/25/25 24/24/24
f 21/21/21 26/26/26 24/24/24
f 24/24/24 29/29/29 28/28/28
f 28/28/28 29/29/29 30/30/30
f 30/30/30 29/29/29 31/31/31
f 29/29/29 32/32/32 31/31/31
f 29/29/29 25/25/25 32/32/32
f 25/25/25 37/37/37 32/32/32
f 32/32/32 33/33/33 31/31/31
f 32/32/32 36/36/36 33/33/33
f 37/37/37 34/34/34 32/32/32
f 36/36/36 32/32/32 34/34/34
f 26/26/26 37/37/37 25/25/25
f 38/38/38 27/27/27 44/44/44
f 42/42/42 40/40/40 38/38/38
f 39/39/39 34/34/34 37/37/37
f 38/38/38 44/44/44 42/42/42
f 48/48/48 45/45/45 46/46/46
f 45/45/45 53/53/53 46/46/46
f 27/27/27 52/52/52 44/44/44
f 45/45/45 48/48/48 51/51/51
f 51/51/51 43/43/43 45/45/45
f 46/46/46 53/53/53 55/55/55
f 59/59/59 55/55/55 53/53/53
f 52/52/52 19/19/19 58/58/58
f 27/27/27 23/23/23 52/52/52
f 19/19/19 52/52/52 23/23/23
f 10/10/10 57/57/57 20/20/20
f 54/54/54 56/56/56 11/11/11
f 61/61/61 54/54/54 11/11/11
f 46/46/46 55/55/55 60/60/60
f 13/13/13 61/61/61 11/11/11
f 64/64/64 61/61/61 13/13/13
f 62/62/62 63/63/63 65/65/65
f 62/62/62 65/65/65 47/47/47
f 69/69/69 65/65/65 63/63/63
f 65/65/65 66/66/66 67/67/67
f 66/66/66 65/65/65 69/69/69
f 49/49/49 47/47/47 65/65/65
f 49/49/49 65/65/65 67/67/67
f 64/64/64 4/4/4 68/68/68
f 4/4/4 70/70/70 68/68/68
f 75/75/75 69/69/69 71/71/71
f 69/69/69 72/72/72 66/66/66
f 69/69/69 73/73/73 72/72/72
f 69/69/69 75/75/75 73/73/73
f 81/81/81 76/76/76 74/74/74
f 75/75/75 78/78/78 80/80/80
f 81/81/81 74/74/74 70/70/70
f 75/75/75 80/80/80 73/73/73
f 5/5/5 85/85/85 81/81/81
f 81/81/81 3/3/3 5/5/5
f 81/81/81 83/83/83 76/76/76
f 85/85/85 83/83/83 81/81/81
f 3/3/3 81/81/81 70/70/70
f 85/85/85 93/93/93 87/87/87
f 91/91/91 84/84/84 88/88/88
f 85/85/85 90/90/90 83/83/83
f 5/5/5 93/93/93 85/85/85
f 92/92/92 94/94/94 97/97/97
f 5/5/5 95/95/95 93/93/93
f 97/97/97 86/86/86 92/92/92
f 104/104/104 99/99/99 96/96/96
f 96/96/96 99/99/99 89/89/89
f 97/97/97 94/94/94 102/102/102
f 103/103/103 97/97/97 102/102/102
f 101/101/101 106/106/106 104/104/104
f 106/106/106 108/108/108 104/104/104
f 99/99/99 104/104/104 108/108/108
f 108/108/108 111/111/111 109/109/109
f 114/114/114 108/108/108 109/109/109
f 107/107/107 112/112/112 110/110/110
f 105/105/105 112/112/112 107/107/107
f 99/99/99 108/108/108 114/114/114
f 120/120/120 113/113/113 116/116/116
f 114/114/114 109/109/109 115/115/115
f 120/120/120 118/118/118 113/113/113
f 118/118/118 91/91/91 113/113/113
f 113/113/113 91/91/91 98/98/98
f 122/122/122 120/120/120 128/128/128
f 121/121/121 123/123/123 119/119/119
f 125/125/125 119/119/119 123/123/123
f 125/125/125 117/117/117 119/119/119
f 120/120/120 127/127/127 128/128/128
f 120/120/120 116/116/116 127/127/127
f 109/109/109 129/129/129 126/126/126
f 138/138/138 129/129/129 109/109/109
f 138/138/138 130/130/130 129/129/129
f 129/129/129 130/130/130 137/137/137
f 128/128/128 133/133/133 122/122/122
f 133/133/133 128/128/128 135/135/135
f 129/129/129 137/137/137 134/134/134
f 30/30/30 131/131/131 139/139/139
f 109/109/109 111/111/111 138/138/138
f 110/110/110 30/30/30 139/139/139
f 141/141/141 134/134/134 137/137/137
f 136/136/136 144/144/144 140/140/140
f 131/131/131 143/143/143 136/136/136
f 136/136/136 143/143/143 144/144/144
f 147/147/147 144/144/144 145/145/145
f 143/143/143 145/145/145 144/144/144
f 151/151/151 140/140/140 144/144/144
f 147/147/147 151/151/151 144/144/144
f 142/142/142 150/150/150 158/158/158
f 152/152/152 157/157/157 149/149/149
f 152/152/152 149/149/149 154/154/154
f 154/154/154 149/149/149 155/155/155
f 155/155/155 149/149/149 160/160/160
f 146/146/146 161/161/161 148/148/148
f 161/161/161 146/146/146 162/162/162
f 161/161/161 162/162/162 166/166/166
f 164/164/164 161/161/161 166/166/166
f 155/155/155 160/160/160 163/163/163
f 168/168/168 155/155/155 165/165/165
f 165/165/165 155/155/155 171/171/171
f 164/164/164 166/166/166 169/169/169
f 168/168/168 165/165/165 173/173/173
f 172/172/172 166/166/166 162/162/162
f 175/175/175 172/172/172 162/162/162
f 176/176/176 172/172/172 175/175/175
f 173/173/173 177/177/177 168/168/168
f 145/145/145 178/178/178 174/174/174
f 179/179/179 180/180/180 178/178/178
f 145/145/145 179/179/179 178/178/178
f 182/182/182 168/168/168 177/177/177
f 181/181/181 35/35/35 184/184/184
f 36/36/36 34/34/34 180/180/180
f 36/36/36 180/180/180 179/179/179
f 186/186/186 167/167/167 181/181/181
f 181/181/181 184/184/184 190/190/190
f 181/181/181 190/190/190 186/186/186
f 191/191/191 187/187/187 189/189/189
f 191/191/191 189/189/189 183/183/183
f 191/191/191 192/192/192 187/187/187
f 194/194/194 192/192/192 191/191/191
f 191/191/191 193/193/193 194/194/194
f 191/191/191 183/183/183 193/193/193
f 194/194/194 195/195/195 192/192/192
f 199/199/199 195/195/195 194/194/194
f 197/197/197 194/194/194 193/193/193
f 197/197/197 198/198/198 194/194/194
f 198/198/198 199/199/199 194/194/194
f 205/205/205 199/199/199 202/202/202
f 204/204/204 202/202/202 199/199/199
f 198/198/198 204/204/204 199/199/199
f 199/199/199 205/205/205 195/195/195
f 208/208/208 206/206/206 207/207/207
f 206/206/206 154/154/154 207/207/207
f 153/153/153 206/206/206 200/200/200
f 208/208/208 196/196/196 206/206/206
f 206/206/206 153/153/153 154/154/154
f 208/208/208 210/210/210 185/185/185
f 192/192/192 209/209/209 187/187/187
f 209/209/209 192/192/192 195/195/195
f 208/208/208 207/207/207 210/210/210
f 188/188/188 211/211/211 155/155/155
f 211/211/211 212/212/212 155/155/155
f 207/207/207 212/212/212 210/210/210
f 212/212/212 213/213/213 155/155/155
f 207/207/207 213/213/213 212/212/212
f 213/213/213 207/207/207 154/154/154
f 213/213/213 154/154/154 155/155/155
f 216/216/216 215/215/215 204/204/204
f 214/214/214 121/121/121 203/203/203
f 201/201/201 203/203/203 121/121/121
f 216/216/216 204/204/204 198/198/198
f 217/217/217 215/215/215 216/216/216
f 197/197/197 216/216/216 198/198/198
f 72/72/72 216/216/216 197/197/197
f 216/216/216 72/72/72 217/217/217
f 73/73/73 217/217/217 72/72/72
f 217/217/217 73/73/73 80/80/80
f 80/80/80 124/124/124 217/217/217
f 124/124/124 215/215/215 217/217/217
f 214/214/214 123/123/123 121/121/121
f 214/214/214 125/125/125 123/123/123
f 156/156/156 201/201/201 132/132/132
f 201/201/201 121/121/121 132/132/132
f 159/159/159 153/153/153 200/200/200
f 219/219/219 218/218/218 197/197/197
f 72/72/72 197/197/197 218/218/218
f 193/193/193 219/219/219 197/197/197
f 66/66/66 218/218/218 219/219/219
f 193/193/193 220/220/220 219/219/219
f 67/67/67 66/66/66 219/219/219
f 219/219/219 220/220/220 67/67/67
f 193/193/193 183/183/183 220/220/220
f 220/220/220 183/183/183 50/50/50
f 67/67/67 220/220/220 50/50/50
f 72/72/72 218/218/218 66/66/66
f 168/168/168 188/188/188 155/155/155
f 184/184/184 35/35/35 41/41/41
f 184/184/184 41/41/41 51/51/51
f 36/36/36 179/179/179 145/145/145
f 162/162/162 146/146/146 175/175/175
f 147/147/147 145/145/145 174/174/174
f 155/155/155 163/163/163 170/170/170
f 158/158/158 133/133/133 142/142/142
f 143/143/143 221/221/221 145/145/145
f 36/36/36 145/145/145 221/221/221
f 33/33/33 36/36/36 221/221/221
f 222/222/222 221/221/221 143/143/143
f 33/33/33 221/221/221 222/222/222
f 30/30/30 222/222/222 131/131/131
f 222/222/222 143/143/143 131/131/131
f 31/31/31 33/33/33 222/222/222
f 31/31/31 222/222/222 30/30/30
f 133/133/133 135/135/135 142/142/142
f 109/109/109 126/126/126 115/115/115
f 125/125/125 79/79/79 82/82/82
f 117/117/117 125/125/125 82/82/82
f 91/91/91 117/117/117 82/82/82
f 105/105/105 28/28/28 112/112/112
f 28/28/28 30/30/30 112/112/112
f 112/112/112 30/30/30 110/110/110
f 100/100/100 15/15/15 105/105/105
f 105/105/105 15/15/15 28/28/28
f 102/102/102 94/94/94 12/12/12
f 12/12/12 16/16/16 102/102/102
f 91/91/91 88/88/88 98/98/98
f 6/6/6 95/95/95 5/5/5
f 12/12/12 94/94/94 7/7/7
f 77/77/77 82/82/82 79/79/79
f 3/3/3 70/70/70 4/4/4
f 49/49/49 67/67/67 50/50/50
f 64/64/64 13/13/13 4/4/4
f 51/51/51 41/41/41 43/43/43
f 2/2/2 4/4/4 13/13/13

