# ('FARMS composite mesh',)
mtllib link_body_17_composite.mtl

o link_body_17
usemtl link_body_17_composite
v -0.88200400 5.71384600 0.00058400
v 0.30456500 5.46575400 -1.68386700
v 0.30456500 5.46575400 -1.68386700
v 0.30456500 5.46575400 -1.68386700
v -2.85446500 5.93194900 -0.03829500
v -2.85446500 5.93194900 -0.03829500
v -2.80760600 5.78074700 1.39084200
v -2.80760600 5.78074700 1.39084200
v -2.53385200 5.93690200 -1.50302100
v -2.53385200 5.93690200 -1.50302100
v -2.53385200 5.93690200 -1.50302100
v 0.00240800 5.48154800 0.11160100
v 0.00240800 5.48154800 0.11160100
v -1.63493600 3.25658800 0.11999800
v -1.53264800 3.19869900 -1.23549000
v -0.09782700 5.16702700 1.60508800
v -0.09782700 5.16702700 1.60508800
v -0.56072700 4.53388200 -1.85186900
v -0.56072700 4.53388200 -1.85186900
v -1.23671900 3.01573200 -2.53328300
v 0.39573600 3.83054800 -4.32888200
v 0.39573600 3.83054800 -4.32888200
v 0.39573600 3.83054800 -4.32888200
v -0.48341000 2.55043200 -4.27340100
v -0.48341000 2.55043200 -4.27340100
v 1.19346500 2.60206700 -5.66430500
v 1.19346500 2.60206700 -5.66430500
v -0.62166600 0.03123000 -4.78862700
v -0.62166600 0.03123000 -4.78862700
v 0.29171700 0.44036800 -5.66949200
v -1.30811100 0.57906900 -3.72152100
v -1.84437700 -0.61192200 -2.53328300
v -2.08313000 0.81362500 -1.73449300
v -1.13117700 -1.64648000 -3.72152100
v -1.13117700 -1.64648000 -3.72152100
v -1.13117700 -1.64648000 -3.72152100
v -0.38897600 -3.98845200 -3.17488700
v -1.27943200 -2.94701200 -2.48580400
v -1.27943200 -2.94701200 -2.48580400
v 0.14792900 -2.73887600 -4.87261200
v 0.14792900 -2.73887600 -4.87261200
v 1.31294500 -4.02006700 -4.83637200
v 1.31294500 -4.02006700 -4.83637200
v 1.31294500 -4.02006700 -4.83637200
v 1.31294500 -4.02006700 -4.83637200
v 0.63293700 -1.79528300 -5.61100500
v 1.29200300 -2.76551500 -5.61966000
v 1.29200300 -2.76551500 -5.61966000
v 1.39854400 -2.32962000 -5.82681100
v 1.39854400 -2.32962000 -5.82681100
v -0.52349400 -3.55966000 -5.81535800
v -1.48140700 -3.38805200 -5.70203000
v -0.66246000 -2.40914300 -6.36899300
v 1.61910400 -1.46183900 -6.23237900
v 1.61910400 -1.46183900 -6.23237900
v -0.94767700 -4.61561800 -4.93869400
v -0.94767700 -4.61561800 -4.93869400
v -0.94767700 -4.61561800 -4.93869400
v -1.68173300 -5.44270100 -3.62127200
v -1.68173300 -5.44270100 -3.62127200
v -1.68173300 -5.44270100 -3.62127200
v -2.57877100 -3.73827800 -4.86005600
v -2.57877100 -3.73827800 -4.86005600
v -2.82659200 -5.08298900 -3.16678700
v -2.82659200 -5.08298900 -3.16678700
v 1.02055900 -4.84677300 -3.78147900
v 1.02055900 -4.84677300 -3.78147900
v 0.49039200 -5.27383400 -2.50246500
v 0.49039200 -5.27383400 -2.50246500
v 0.28850400 -5.48838100 -1.47674200
v 0.28850400 -5.48838100 -1.47674200
v -2.56276500 -5.94394100 -1.43711000
v -2.56276500 -5.94394100 -1.43711000
v -0.90604700 -4.34208600 -1.17970900
v -0.90604700 -4.34208600 -1.17970900
v 0.04271100 -5.51050300 0.07759200
v 0.04271100 -5.51050300 0.07759200
v -2.83376200 -5.93339000 -0.02294500
v -2.83376200 -5.93339000 -0.02294500
v -2.81642300 -5.78848500 1.35755900
v -2.81642300 -5.78848500 1.35755900
v -0.09242600 -5.16822100 1.60416200
v -0.09242600 -5.16822100 1.60416200
v -0.93744600 -4.50559700 0.23532900
v -0.93744600 -4.50559700 0.23532900
v -2.06682000 -2.00539400 0.11999900
v -1.50975700 -3.23580200 1.52740900
v -1.50975700 -3.23580200 1.52740900
v -1.84227800 -0.63748400 2.77328100
v -2.17402900 -0.67062800 1.47548900
v -1.24695300 -2.94100900 2.81390600
v -1.24695300 -2.94100900 2.81390600
v -0.13905800 -4.55626000 2.95225100
v -0.13905800 -4.55626000 2.95225100
v -2.61582000 -4.77372800 3.77956600
v -2.61582000 -4.77372800 3.77956600
v -2.71335400 -5.40189600 2.64418600
v -2.71335400 -5.40189600 2.64418600
v -2.55205200 -3.80200800 4.79549800
v -2.55205200 -3.80200800 4.79549800
v -2.55205200 -3.80200800 4.79549800
v -2.55205200 -3.80200800 4.79549800
v -2.55205200 -3.80200800 4.79549800
v -0.13897100 -3.63085600 4.04867800
v -0.13897100 -3.63085600 4.04867800
v -0.13897100 -3.63085600 4.04867800
v -0.13897100 -3.63085600 4.04867800
v -1.12269400 -1.68004000 3.96151800
v 0.02378100 -2.39317100 5.10735100
v 0.02378100 -2.39317100 5.10735100
v 0.02378100 -2.39317100 5.10735100
v -0.58058400 -0.52112400 5.01372900
v -0.58058400 -0.52112400 5.01372900
v 0.48068500 -1.40964900 5.83149900
v 0.48068500 -1.40964900 5.83149900
v 0.25179100 -0.03117000 5.87186300
v 1.23063700 -0.39861500 6.44721300
v 1.23063700 -0.39861500 6.44721300
v 1.23063700 -0.39861500 6.44721300
v 1.41182500 -0.23253900 6.52449500
v 1.41182500 -0.23253900 6.52449500
v 1.41182500 -0.23253900 6.52449500
v 1.46710700 0.08617500 6.57309100
v 1.46710700 0.08617500 6.57309100
v 1.46710700 0.08617500 6.57309100
v -1.93542500 1.17798400 6.33572100
v -1.02033700 0.12208700 6.75099800
v -1.74324300 -0.98551200 6.45121100
v 0.50127800 1.46183900 5.83698800
v 0.50127800 1.46183900 5.83698800
v -2.61052600 3.55140900 4.94379900
v -2.61052600 3.55140900 4.94379900
v -2.61052600 3.55140900 4.94379900
v -2.61052600 3.55140900 4.94379900
v 1.41497900 -0.22869900 6.52575800
v 1.41497900 -0.22869900 6.52575800
v -3.70576300 1.97295200 4.88403200
v -3.70576300 1.97295200 4.88403200
v -2.64981200 1.79188100 5.85118300
v 0.07350000 2.70112800 4.98189900
v 0.07350000 2.70112800 4.98189900
v 0.07350000 2.70112800 4.98189900
v 0.07350000 2.70112800 4.98189900
v -2.61059400 4.72682900 3.84957000
v -2.61059400 4.72682900 3.84957000
v -2.61059400 4.72682900 3.84957000
v -3.85162500 3.98788300 3.21258900
v -0.13096900 3.71187100 3.97335100
v -0.13096900 3.71187100 3.97335100
v -0.13096900 3.71187100 3.97335100
v -0.13096900 3.71187100 3.97335100
v -0.12616600 4.52024400 3.00077800
v -0.12616600 4.52024400 3.00077800
v -0.94659700 2.98606600 3.50789400
v -1.56656500 3.12997100 1.42028600
v -1.32970900 0.49609600 3.92610200
v -1.64331200 1.83781000 2.77328200
v -0.46958200 1.36116300 4.97476600
v -0.46958200 1.36116300 4.97476600
v -2.06945300 1.31562100 1.46139500
v -2.28699100 0.67714200 0.11999800
v -1.96037900 -1.95953300 -1.23549100
v -2.71335400 5.40189600 2.64418500
v -2.71335400 5.40189600 2.64418500
v -4.31569200 4.31780800 1.40252200
v -5.36732700 2.02980100 1.29577600
v -4.49594400 4.27155800 -0.00000100
v -5.07406500 1.88928000 2.59640000
v -5.25175800 -0.56178400 2.68455300
v -4.45344700 2.05942000 3.86510000
v -5.59594700 -0.60883600 1.40252300
v -5.46653700 -2.06374600 -0.05625700
v -5.17380000 -2.57167100 1.33674000
v -5.70979800 0.00000000 -0.00000000
v -4.67794200 -2.30968900 3.24757500
v -4.67794200 -2.30968900 3.24757500
v -4.67794200 -2.30968900 3.24757500
v -5.51592200 1.88177500 -0.00000000
v -4.93419900 3.24733900 -1.29577500
v -5.58740400 0.71292300 -1.40252400
v -5.38378500 -1.95269000 -1.35078700
v -5.24217800 0.67849400 -2.68455400
v -4.78799700 1.94744900 -3.30059700
v -5.09033700 -1.73658500 -2.63937200
v -4.52909800 -1.75331600 -3.82317300
v -4.52909800 -1.75331600 -3.82317300
v -4.10983000 -3.97985600 -2.68540500
v -4.10983000 -3.97985600 -2.68540500
v -4.33694500 -0.43034100 -4.50045300
v -4.33694500 -0.43034100 -4.50045300
v -3.03232500 1.06218800 -5.76084700
v -3.89689400 1.39141600 -4.83779200
v -3.89689400 1.39141600 -4.83779200
v -3.57462100 -2.26949500 -4.86005600
v -2.86423700 -1.74710800 -5.72053000
v -1.43443700 -1.37588000 -6.50051900
v -2.14900800 -0.55531000 -6.33766100
v -1.96150600 1.27876600 -6.33532500
v -1.44689300 1.23123900 -6.51689300
v 1.22745900 0.74541500 -6.20146200
v 1.22745900 0.74541500 -6.20146200
v -0.62594400 2.40583900 -6.37526500
v 1.28991700 -0.43802900 -6.24844700
v 1.28991700 -0.43802900 -6.24844700
v -2.61868800 3.00553900 -5.36322600
v -2.61868800 3.00553900 -5.36322600
v -0.53639500 3.52550000 -5.85013200
v -0.89257600 4.56177000 -4.98087700
v -0.89257600 4.56177000 -4.98087700
v -1.91043300 4.28899700 -4.85651400
v -1.91043300 4.28899700 -4.85651400
v 1.33241100 4.03861800 -4.83444000
v 1.33241100 4.03861800 -4.83444000
v 1.33241100 4.03861800 -4.83444000
v 1.33241100 4.03861800 -4.83444000
v 1.04504000 4.83596900 -3.80565700
v 1.04504000 4.83596900 -3.80565700
v -1.67754400 5.43933000 -3.63256900
v -1.67754400 5.43933000 -3.63256900
v -1.67754400 5.43933000 -3.63256900
v -2.87696200 5.08158800 -3.08905300
v -2.87696200 5.08158800 -3.08905300
v -3.69374500 3.57315200 -3.85684300
v -4.05157300 4.40169700 -2.14766200
v -3.63531500 -3.64435600 -3.85617600
v -3.63531500 -3.64435600 -3.85617600
v -3.63531500 -3.64435600 -3.85617600
v -4.35124900 -4.27639800 -1.35078700
v -4.35124900 -4.27639800 -1.35078700
v -4.41071000 -4.40861100 0.05703800
v -4.41071000 -4.40861100 0.05703800
v -4.30130800 -4.32111200 1.40162800
v -4.30130800 -4.32111200 1.40162800
v -4.10983000 -3.97985600 2.68540300
v -4.10983000 -3.97985600 2.68540300
v -3.37211400 -3.47262600 4.38645900
v -3.37211400 -3.47262600 4.38645900
v -2.53818100 -2.21882000 5.72082600
v -3.96012500 -0.87649300 4.92304100
v -3.96012500 -0.87649300 4.92304100
v -4.72711800 -0.65933400 3.82317200
v -3.09767700 -0.77750200 5.73020800
v -2.20800500 0.00000100 6.33561100
vn 0.18725608 0.97626081 0.10885770
vn 0.18458949 0.97540863 -0.12043560
vn 0.71544859 -0.68712782 0.12644631
vn 0.63035474 -0.65040551 0.42382258
vn 0.10838127 0.99192103 0.06592551
vn -0.69819189 0.71539884 -0.02706628
vn -0.68493093 0.70745960 0.17427147
vn 0.16849220 0.96382298 0.20653243
vn -0.41309470 0.83590058 -0.36141802
vn -0.66014821 0.72886445 -0.18155152
vn 0.13964675 0.98829569 -0.06140363
vn 0.22822721 0.96444273 0.13327623
vn 0.79223572 -0.61002495 0.01523557
vn 0.90395912 -0.42761583 0.00161438
vn 0.90066230 -0.40790976 0.14972322
vn 0.80908436 -0.56707295 -0.15430737
vn 0.21618774 0.92892948 0.30058756
vn 0.79194117 -0.57725647 0.19900792
vn 0.62308408 -0.65549715 0.42671972
vn 0.84673844 -0.38446527 0.36772337
vn 0.75214319 -0.49783590 0.43178702
vn 0.56176270 -0.64077062 0.52329311
vn 0.55568486 -0.41946534 0.71781834
vn 0.63453789 -0.29466416 0.71451711
vn 0.80925799 -0.35307642 0.46950883
vn 0.58179624 -0.32554481 0.74534134
vn 0.32292042 0.36211455 -0.87441149
vn 0.71474714 0.03491642 0.69851083
vn 0.83302825 -0.03201346 0.55230342
vn 0.62258699 -0.07069039 0.77935121
vn 0.87220576 -0.09286657 0.48024255
vn 0.94181992 0.08728629 0.32458640
vn 0.96926469 -0.11066450 0.21972559
vn 0.89471239 0.14785424 0.42146039
vn 0.74028826 0.18608162 0.64602393
vn 0.78463046 0.36553557 0.50073824
vn 0.71812728 0.53298809 0.44745604
vn 0.91377910 0.31415207 0.25751938
vn 0.80980571 0.42429790 0.40519872
vn 0.61774326 0.30309780 0.72562042
vn 0.68779000 0.46350467 0.55866657
vn 0.49098269 0.46725933 0.73525826
vn 0.27224134 -0.56707373 -0.77737509
vn 0.58854913 0.55015171 0.59240443
vn 0.23487724 -0.79561724 -0.55841373
vn 0.57528225 0.22057349 0.78765326
vn 0.29903310 -0.48045006 -0.82446767
vn 0.48872923 0.38102163 0.78483518
vn 0.29307413 -0.46572692 -0.83498862
vn 0.44200434 0.29056188 0.84864949
vn 0.05540086 -0.54330929 -0.83770267
vn -0.32450337 -0.47677350 -0.81693610
vn -0.02504546 -0.30059504 -0.95342296
vn 0.16297933 -0.18007899 -0.97005634
vn 0.46897508 0.21114179 0.85760219
vn -0.07995596 -0.64734234 -0.75799403
vn 0.00232916 -0.83715782 -0.54695645
vn -0.44986246 -0.62183494 -0.64104998
vn 0.16797837 -0.94691380 -0.27411225
vn -0.40600145 -0.84132345 -0.35684406
vn -0.44986246 -0.62183494 -0.64104998
vn -0.51365829 -0.46470592 -0.72125139
vn -0.47552943 -0.65367379 -0.58871244
vn -0.44986246 -0.62183494 -0.64104998
vn -0.55677416 -0.72438125 -0.40653946
vn 0.20862627 -0.87953177 -0.42766687
vn 0.59452787 0.59109561 0.54510787
vn 0.67936717 0.64643337 0.34725228
vn 0.17832259 -0.96326188 -0.20081732
vn 0.70818345 0.67165890 0.21760176
vn 0.15904775 -0.98321273 -0.08942343
vn 0.15102007 -0.98740393 -0.04718500
vn -0.63704742 -0.74130718 -0.21126820
vn 0.73367713 0.64437173 0.21564540
vn 0.90687029 0.40864908 0.10291844
vn 0.16727056 -0.98059661 0.10222940
vn 0.71206591 0.70164865 0.02552098
vn -0.69559329 -0.71776833 -0.03096120
vn 0.14272881 -0.98732878 0.06935686
vn 0.17311524 -0.96473909 0.19826651
vn -0.68708891 -0.70649840 0.16961382
vn 0.21311046 -0.92805998 0.30543183
vn 0.76881521 0.61159566 -0.18674560
vn 0.75072333 0.65741495 -0.06496203
vn 0.90971954 0.41293857 0.04349828
vn 0.96824918 0.24998693 0.00022992
vn 0.79579415 0.55319092 -0.24635641
vn 0.94043440 0.31481727 -0.12834806
vn 0.94231732 0.07964059 -0.32510837
vn 0.98222917 0.08812125 -0.16571209
vn 0.79190848 0.51507499 -0.32799195
vn 0.88864168 0.28623956 -0.35830557
vn 0.24797077 -0.81951526 0.51662871
vn 0.78669440 0.53386173 -0.31000577
vn -0.62783229 -0.61802999 0.47314432
vn 0.25870273 -0.78031085 0.56937498
vn 0.21537988 -0.90367290 0.37011728
vn -0.66497112 -0.67022592 0.32956125
vn 0.26560488 -0.64569203 0.71591609
vn -0.53735025 -0.59235684 0.60030666
vn -0.34253809 -0.47790137 0.80887449
vn -0.64201114 0.39451307 0.65740485
vn 0.26927365 -0.71506927 0.64511057
vn 0.76680637 0.49048750 -0.41404107
vn 0.26704167 -0.64644546 0.71470065
vn 0.24601480 -0.74071362 0.62515602
vn 0.77308057 0.36671144 -0.51756077
vn 0.83896374 0.22464171 -0.49565708
vn 0.76132847 0.30264950 -0.57339536
vn 0.69384123 0.18924915 -0.69481588
vn 0.26823825 -0.64818470 0.71267442
vn 0.70668797 0.07067000 -0.70398711
vn 0.81285748 0.07836621 -0.57716675
vn 0.24980379 -0.63371350 0.73212380
vn 0.64768210 0.15398593 -0.74618780
vn 0.61911741 -0.00404208 -0.78528803
vn 0.24619667 -0.63076749 0.73588013
vn -0.64201114 0.39451307 0.65740485
vn 0.49461295 0.03865650 -0.86825325
vn -0.64201114 0.39451307 0.65740485
vn 0.07211482 -0.39145555 0.91736689
vn 0.31125691 0.09025762 -0.94602997
vn 0.02536697 -0.18765891 0.98190664
vn 0.48048844 -0.04129028 -0.87602852
vn 0.09911537 0.49400353 0.86379202
vn -0.19461129 0.32399922 0.92582447
vn -0.05156871 0.05937715 0.99690271
vn -0.18275922 -0.30781974 0.93372698
vn 0.62501083 -0.16578740 -0.76280797
vn 0.12772839 0.54454829 0.82894669
vn 0.21581397 0.71122357 0.66901821
vn 0.23554665 0.66221143 0.71133241
vn -0.18214723 0.50893744 0.84131152
vn -0.65194024 0.47870065 0.58806429
vn 0.02604165 -0.20504736 0.97840555
vn 0.26139996 0.10102476 -0.95992919
vn -0.75571834 0.27313263 0.59522127
vn -0.63989943 0.21261880 0.73845919
vn -0.47039240 0.29067501 0.83321008
vn 0.17895869 0.59985080 0.77984152
vn 0.21581397 0.71122357 0.66901821
vn 0.65587865 -0.26205632 -0.70791926
vn 0.74004336 -0.34308063 -0.57847343
vn 0.24067943 0.83049861 0.50233999
vn -0.61799107 0.60143758 0.50631994
vn 0.23554665 0.66221143 0.71133241
vn -0.73547156 0.52766351 0.42503271
vn 0.71682746 -0.48314522 -0.50272169
vn 0.27190632 0.73940402 0.61591285
vn 0.21581397 0.71122357 0.66901821
vn 0.23554665 0.66221143 0.71133241
vn 0.25455457 0.82165126 0.50999135
vn 0.80669346 -0.52260046 -0.27592466
vn 0.81132941 -0.39614647 -0.42989831
vn 0.89093936 -0.42238609 -0.16678441
vn 0.87318380 -0.06812122 -0.48260703
vn 0.91924846 -0.21129205 -0.33217156
vn 0.80534303 -0.19462330 -0.55995033
vn 0.68120967 -0.16744432 -0.71268210
vn 0.97301456 -0.16343174 -0.16288873
vn 0.99613913 -0.08680926 0.01307616
vn 0.95651263 0.24108735 0.16419647
vn -0.65837550 0.67901811 0.32477084
vn 0.21685209 0.90196696 0.37340431
vn -0.80161455 0.56743732 0.18822594
vn -0.95293302 0.25711337 0.16065917
vn -0.82380709 0.56686599 -0.00219437
vn -0.91782941 0.23138191 0.32257029
vn -0.94163635 -0.05632089 0.33188693
vn -0.82867846 0.25250306 0.49953399
vn -0.98251062 -0.06644934 0.17394643
vn -0.96334365 -0.26818657 -0.00670698
vn -0.92758570 -0.32972455 0.17568863
vn -0.99999468 -0.00065308 0.00319457
vn -0.77949371 -0.42120998 0.46365042
vn -0.90186949 -0.26471675 0.34140368
vn -0.76300488 -0.29200712 0.57667616
vn -0.97088577 0.23954198 -0.00067166
vn -0.90340160 0.39402720 -0.16913932
vn -0.98077310 0.08375697 -0.17626368
vn -0.95345990 -0.24826140 -0.17111547
vn -0.93678642 0.06158714 -0.34443901
vn -0.87095315 0.25839681 -0.41793743
vn -0.91853042 -0.21588685 -0.33120196
vn -0.77147683 -0.26043851 -0.58051294
vn -0.87956479 -0.21951274 -0.42211366
vn -0.68302935 -0.64498464 -0.34273274
vn -0.86095579 -0.38297274 -0.33479397
vn -0.71308119 -0.09036168 -0.69523377
vn -0.88739985 0.00392752 -0.46098382
vn -0.60373867 0.12523664 -0.78728356
vn -0.69513846 0.14728510 -0.70362605
vn -0.79080774 0.23034721 -0.56706550
vn -0.69577928 -0.31059233 -0.64762922
vn -0.56209097 -0.23482444 -0.79303923
vn -0.18179418 -0.15390013 -0.97121863
vn -0.42650002 -0.05393681 -0.90287793
vn -0.39494277 0.19275970 -0.89825604
vn -0.13592422 0.12058226 -0.98335371
vn 0.18147209 0.10578131 -0.97769023
vn 0.52160376 -0.12937144 0.84332233
vn 0.00657232 0.30135624 -0.95348897
vn 0.53030619 0.09376907 0.84260471
vn 0.11397669 0.02715895 -0.99311213
vn -0.63401644 0.45624321 -0.62439193
vn -0.41257450 0.38405254 -0.82600601
vn 0.01727886 0.52077729 -0.85351770
vn -0.12656112 0.66244468 -0.73834228
vn 0.18031241 0.84966997 -0.49552839
vn -0.53784016 0.60488868 -0.58722878
vn -0.28495294 0.60473269 -0.74370707
vn 0.47316632 -0.62741119 0.61844064
vn 0.22465801 0.79958076 -0.55695547
vn 0.49786711 -0.46941569 0.72923058
vn 0.28426470 0.53693999 -0.79428523
vn 0.20412212 0.88482194 -0.41883683
vn 0.60197567 -0.63838409 0.47967807
vn -0.27180687 0.72651805 -0.63110423
vn 0.03621238 0.95047955 -0.30867020
vn -0.45945599 0.68917499 -0.56030172
vn -0.60195632 0.66350445 -0.44430894
vn -0.41309470 0.83590058 -0.36141802
vn -0.70661228 0.47632341 -0.52327344
vn -0.75972734 0.59113922 -0.27086675
vn -0.81538267 -0.37772662 -0.43871824
vn -0.62451055 -0.59404332 -0.50704941
vn -0.69476509 -0.40387730 -0.59513410
vn -0.68067433 -0.71041321 -0.17887295
vn -0.90079381 -0.40368711 -0.16002257
vn -0.90650096 -0.42218391 0.00409430
vn -0.69373341 -0.72021557 -0.00484589
vn -0.69030601 -0.69757837 0.19199486
vn -0.88439184 -0.43477220 0.16977692
vn -0.87390043 -0.40964878 0.26169813
vn -0.70498513 -0.58922805 0.39472303
vn -0.66080016 -0.54818099 0.51267996
vn -0.65249577 -0.34506500 0.67466986
vn -0.36259278 -0.39590241 0.84367515
vn -0.82098226 -0.03058543 0.57013389
vn -0.69955484 -0.15059770 0.69852942
vn -0.86710053 -0.05277432 0.49532974
vn -0.61238090 -0.09009717 0.78541208
vn -0.46333046 0.00944866 0.88613521
vt 0.32327100 0.89852300
vt 0.32942700 0.90911100
vt 0.69790100 0.87226100
vt 0.97139200 0.72175100
vt 0.31069200 0.89642300
vt 0.31513900 0.81690700
vt 0.30724000 0.81750900
vt 0.31262500 0.88870700
vt 0.31126000 0.90477800
vt 0.32330100 0.81609000
vt 0.31126000 0.90477800
vt 0.32925000 0.89897200
vt 0.68821200 0.87172400
vt 0.68954800 0.85809600
vt 0.69695300 0.85814000
vt 0.68009400 0.86961000
vt 0.33064300 0.89075800
vt 0.69952600 0.86643200
vt 0.97023900 0.71623100
vt 0.70392700 0.85765400
vt 0.71261900 0.86390200
vt 0.98551400 0.71678800
vt 0.92371100 0.73644200
vt 0.91585400 0.74120500
vt 0.71306700 0.85610600
vt 0.91780400 0.73019600
vt 0.01094800 0.91807100
vt 0.90194200 0.74010000
vt 0.71632300 0.84226800
vt 0.90509700 0.73440500
vt 0.71083400 0.84446400
vt 0.70480200 0.83722500
vt 0.70037800 0.84467800
vt 0.71100300 0.83240700
vt 0.89221200 0.74213300
vt 0.73729500 0.91602500
vt 0.74680000 0.91453400
vt 0.70446400 0.82489400
vt 0.74020400 0.90938600
vt 0.88750100 0.73283300
vt 0.74583700 0.92421400
vt 0.88159200 0.72415200
vt -0.00000000 0.88298600
vt 0.75537700 0.92585400
vt 0.62858600 0.87337500
vt 0.89317000 0.73038200
vt 0.00211000 0.88968500
vt 0.88848300 0.72527600
vt 0.00211100 0.89221700
vt 0.89098300 0.72491900
vt 0.01250400 0.88214200
vt 0.01887600 0.88128800
vt 0.01519200 0.88805300
vt 0.00206000 0.89727100
vt 0.89596800 0.72415200
vt 0.01353400 0.87567500
vt 0.64331000 0.87117400
vt 0.29429900 0.97180600
vt 0.64652100 0.86326800
vt 0.64652100 0.86326800
vt 0.29784700 0.97752600
vt 0.02528500 0.87734300
vt 0.65401900 0.86846600
vt 0.29429900 0.98450600
vt 0.65356000 0.85925600
vt 0.62920100 0.86745800
vt 0.75632100 0.91990500
vt 0.75532300 0.91234000
vt 0.63120100 0.85993200
vt 0.75564900 0.90655200
vt 0.63137500 0.85415300
vt 0.64982100 0.85039500
vt 0.64982100 0.85039500
vt 0.74655700 0.90309300
vt 0.69720000 0.81730000
vt 0.63130400 0.84540400
vt 0.75594900 0.89780300
vt 0.65007200 0.84236800
vt 0.65007200 0.84236800
vt 0.64850500 0.83486200
vt 0.64850500 0.83486200
vt 0.63061200 0.83686700
vt 0.75621600 0.88928300
vt 0.74827100 0.89541800
vt 0.68944900 0.81609000
vt 0.69051700 0.82885200
vt 0.74387800 0.88739100
vt 0.68255100 0.82230000
vt 0.67557600 0.83601600
vt 0.68295000 0.83580800
vt 0.74639300 0.88072200
vt 0.67525200 0.82388600
vt 0.62958600 0.82935100
vt 0.75632100 0.88179600
vt 0.64479300 0.82174200
vt 0.64479300 0.82174200
vt 0.64652700 0.82792200
vt 0.64652700 0.82792200
vt 0.53946100 0.92826200
vt 0.64347300 0.81609000
vt 0.53946100 0.92826200
vt 0.53946100 0.92826200
vt 0.64347300 0.81609000
vt 0.75584400 0.87567500
vt 0.55469500 0.93341500
vt 0.62858600 0.82319100
vt 0.66779900 0.82081200
vt 0.66868500 0.83068000
vt 0.66169900 0.82753000
vt 0.97023900 0.33908100
vt 0.55393000 0.94026100
vt 0.98136400 0.33908100
vt 0.66237700 0.83729600
vt 0.55542500 0.94627700
vt 0.97414200 0.34388800
vt 0.98180300 0.34522900
vt 0.55875900 0.95295600
vt 0.55875900 0.95295600
vt 0.97749500 0.35056500
vt 0.55967900 0.95415500
vt 0.55967900 0.95415500
vt 0.97790900 0.35202100
vt 0.55957100 0.95595200
vt 0.97941600 0.35300200
vt 0.55957100 0.95595200
vt 0.53617000 0.95587200
vt 0.54356600 0.95180300
vt 0.54054100 0.94464000
vt 0.98891500 0.34976100
vt 0.55138900 0.96165700
vt 0.98862000 0.82103000
vt 0.97023900 0.95864100
vt 0.52841100 0.96744700
vt 0.28766000 0.82823000
vt 0.55969400 0.95418100
vt 0.97792100 0.35204800
vt 0.28784700 0.83913100
vt 0.52367900 0.95710700
vt 0.53070300 0.95793200
vt 0.54685600 0.96757600
vt 0.97023900 0.82103000
vt 0.99643200 0.34958000
vt 0.66169900 0.85554800
vt 0.31814400 0.87567500
vt 0.29368800 0.82228100
vt 0.97063300 0.96518600
vt 0.29702600 0.82930700
vt 0.66726000 0.86112000
vt 0.33540700 0.87800700
vt 0.97344600 0.81530200
vt 0.98676400 0.95864100
vt 0.33300400 0.88320400
vt 0.67250900 0.86575500
vt 0.67046300 0.85652500
vt 0.68235700 0.85719800
vt 0.66873700 0.84244700
vt 0.67512300 0.84976900
vt 0.66227400 0.84772700
vt 0.99081900 0.34353400
vt 0.68270200 0.84679900
vt 0.69031800 0.84337800
vt 0.69790500 0.82946900
vt 0.30032700 0.81915100
vt 0.31510500 0.88203500
vt 0.30696100 0.82889800
vt 0.30743300 0.84329800
vt 0.31469600 0.82964900
vt 0.30028600 0.84320600
vt 0.29982900 0.85614600
vt 0.29336200 0.84067700
vt 0.30687000 0.85732600
vt 0.31500200 0.86444100
vt 0.30735200 0.86621700
vt 0.31459900 0.85456800
vt 0.65926900 0.82144400
vt 0.29685100 0.86352700
vt 0.52367900 0.93260900
vt 0.31458500 0.84448200
vt 0.32182100 0.83605000
vt 0.32236600 0.85066400
vt 0.32217900 0.86370000
vt 0.32952100 0.84997700
vt 0.33297600 0.84235000
vt 0.32935600 0.86187400
vt 0.04069700 0.88424400
vt 0.33600300 0.86053000
vt 0.66161500 0.85475600
vt 0.32982900 0.87073300
vt 0.04154300 0.89169000
vt 0.33975100 0.85331400
vt 0.03558800 0.90212700
vt 0.04154300 0.90221900
vt 0.34164700 0.84290000
vt 0.03389000 0.88333100
vt 0.03021600 0.88748300
vt 0.02171100 0.89214400
vt 0.02751700 0.89518600
vt 0.02912300 0.90529000
vt 0.02577800 0.90599600
vt 0.00793300 0.90829500
vt 0.90768800 0.72848500
vt 0.02232000 0.91374200
vt 0.90126400 0.72713200
vt 0.00572800 0.90211600
vt 0.34472800 0.83135800
vt 0.03588700 0.91319600
vt 0.02342100 0.91982400
vt 0.02721500 0.92461600
vt 0.32060500 0.92582100
vt 0.34200900 0.82295700
vt 0.03328900 0.92128600
vt 0.99046800 0.72138200
vt 0.33540700 0.92766800
vt 0.92577000 0.73044000
vt 0.01219500 0.92590500
vt 0.33313400 0.92162000
vt 0.98427900 0.72175100
vt 0.03346900 0.92773900
vt 0.31542500 0.91744500
vt 0.33524400 0.81645300
vt 0.33204500 0.82139200
vt 0.30923100 0.91314300
vt 0.33619600 0.83123100
vt 0.32665500 0.82789400
vt 0.33638100 0.86782200
vt 0.65984300 0.86164400
vt 0.03210100 0.87582500
vt 0.66169900 0.84726700
vt 0.32240800 0.87283100
vt 0.31460900 0.87361500
vt 0.66055100 0.83957700
vt 0.65841200 0.83239700
vt 0.30718100 0.87284100
vt 0.30009800 0.87056200
vt 0.65585200 0.82559500
vt 0.64931700 0.81718900
vt 0.53372800 0.92861300
vt 0.53724200 0.93670100
vt 0.28766000 0.85430100
vt 0.52618400 0.94143600
vt 0.29361500 0.85523500
vt 0.53156200 0.94342800
vt 0.53613200 0.94910300
f 1/1/1 12/12/12 2/2/2
f 11/11/11 1/1/1 2/2/2
f 5/5/5 8/8/8 1/1/1
f 11/11/11 5/5/5 1/1/1
f 8/8/8 12/12/12 1/1/1
f 16/16/16 14/14/14 13/13/13
f 14/14/14 15/15/15 13/13/13
f 15/15/15 18/18/18 13/13/13
f 13/13/13 18/18/18 3/3/3
f 8/8/8 17/17/17 12/12/12
f 15/15/15 20/20/20 18/18/18
f 20/20/20 25/25/25 18/18/18
f 19/19/19 22/22/22 4/4/4
f 25/25/25 21/21/21 18/18/18
f 23/23/23 24/24/24 26/26/26
f 24/24/24 30/30/30 26/26/26
f 24/24/24 28/28/28 30/30/30
f 31/31/31 29/29/29 25/25/25
f 31/31/31 25/25/25 20/20/20
f 32/32/32 31/31/31 33/33/33
f 34/34/34 31/31/31 32/32/32
f 33/33/33 31/31/31 20/20/20
f 34/34/34 29/29/29 31/31/31
f 36/36/36 37/37/37 41/41/41
f 39/39/39 37/37/37 36/36/36
f 38/38/38 34/34/34 32/32/32
f 35/35/35 40/40/40 28/28/28
f 48/48/48 40/40/40 42/42/42
f 41/41/41 37/37/37 44/44/44
f 28/28/28 40/40/40 46/46/46
f 46/46/46 40/40/40 48/48/48
f 48/48/48 50/50/50 46/46/46
f 49/49/49 47/47/47 51/51/51
f 51/51/51 47/47/47 43/43/43
f 53/53/53 51/51/51 52/52/52
f 52/52/52 51/51/51 56/56/56
f 53/53/53 54/54/54 51/51/51
f 54/54/54 49/49/49 51/51/51
f 51/51/51 43/43/43 56/56/56
f 52/52/52 56/56/56 62/62/62
f 66/66/66 59/59/59 57/57/57
f 58/58/58 61/61/61 64/64/64
f 57/57/57 65/65/65 63/63/63
f 57/57/57 45/45/45 66/66/66
f 37/37/37 68/68/68 67/67/67
f 37/37/37 67/67/67 44/44/44
f 69/69/69 59/59/59 66/66/66
f 70/70/70 68/68/68 37/37/37
f 59/59/59 69/69/69 71/71/71
f 74/74/74 70/70/70 37/37/37
f 72/72/72 71/71/71 76/76/76
f 72/72/72 59/59/59 71/71/71
f 74/74/74 77/77/77 70/70/70
f 80/80/80 79/79/79 76/76/76
f 76/76/76 79/79/79 72/72/72
f 82/82/82 80/80/80 76/76/76
f 77/77/77 84/84/84 83/83/83
f 84/84/84 77/77/77 74/74/74
f 85/85/85 75/75/75 86/86/86
f 85/85/85 86/86/86 88/88/88
f 83/83/83 84/84/84 87/87/87
f 94/94/94 83/83/83 87/87/87
f 88/88/88 86/86/86 90/90/90
f 88/88/88 90/90/90 89/89/89
f 92/92/92 88/88/88 89/89/89
f 94/94/94 87/87/87 91/91/91
f 94/94/94 91/91/91 104/104/104
f 96/96/96 93/93/93 103/103/103
f 93/93/93 96/96/96 97/97/97
f 82/82/82 93/93/93 97/97/97
f 103/103/103 93/93/93 106/106/106
f 111/111/111 99/99/99 105/105/105
f 107/107/107 92/92/92 108/108/108
f 107/107/107 108/108/108 109/109/109
f 113/113/113 109/109/109 108/108/108
f 112/112/112 115/115/115 110/110/110
f 114/114/114 99/99/99 111/111/111
f 115/115/115 116/116/116 119/119/119
f 112/112/112 116/116/116 115/115/115
f 99/99/99 114/114/114 117/117/117
f 119/119/119 116/116/116 124/124/124
f 102/102/102 118/118/118 120/120/120
f 124/124/124 122/122/122 119/119/119
f 125/125/125 126/126/126 127/127/127
f 133/133/133 126/126/126 125/125/125
f 129/129/129 124/124/124 116/116/116
f 127/127/127 128/128/128 123/123/123
f 123/123/123 128/128/128 135/135/135
f 130/130/130 133/133/133 125/125/125
f 136/136/136 122/122/122 124/124/124
f 135/135/135 128/128/128 121/121/121
f 147/147/147 137/137/137 134/134/134
f 138/138/138 139/139/139 133/133/133
f 139/139/139 126/126/126 133/133/133
f 140/140/140 133/133/133 130/130/130
f 150/150/150 131/131/131 141/141/141
f 151/151/151 146/146/146 132/132/132
f 134/134/134 145/145/145 147/147/147
f 149/149/149 152/152/152 144/144/144
f 148/148/148 143/143/143 154/154/154
f 148/148/148 154/154/154 153/153/153
f 154/154/154 155/155/155 16/16/16
f 157/157/157 155/155/155 154/154/154
f 156/156/156 157/157/157 154/154/154
f 158/158/158 156/156/156 154/154/154
f 158/158/158 154/154/154 143/143/143
f 154/154/154 16/16/16 153/153/153
f 116/116/116 159/159/159 129/129/129
f 129/129/129 159/159/159 142/142/142
f 159/159/159 116/116/116 112/112/112
f 113/113/113 156/156/156 158/158/158
f 89/89/89 90/90/90 157/157/157
f 156/156/156 89/89/89 157/157/157
f 157/157/157 90/90/90 160/160/160
f 157/157/157 160/160/160 155/155/155
f 90/90/90 161/161/161 160/160/160
f 160/160/160 161/161/161 155/155/155
f 155/155/155 161/161/161 14/14/14
f 161/161/161 33/33/33 14/14/14
f 161/161/161 162/162/162 33/33/33
f 86/86/86 162/162/162 161/161/161
f 86/86/86 161/161/161 90/90/90
f 162/162/162 32/32/32 33/33/33
f 162/162/162 38/38/38 32/32/32
f 75/75/75 38/38/38 162/162/162
f 86/86/86 75/75/75 162/162/162
f 113/113/113 108/108/108 156/156/156
f 108/108/108 89/89/89 156/156/156
f 155/155/155 14/14/14 16/16/16
f 144/144/144 152/152/152 164/164/164
f 152/152/152 17/17/17 164/164/164
f 165/165/165 163/163/163 7/7/7
f 17/17/17 8/8/8 164/164/164
f 165/165/165 147/147/147 163/163/163
f 145/145/145 163/163/163 147/147/147
f 168/168/168 165/165/165 166/166/166
f 166/166/166 165/165/165 167/167/167
f 6/6/6 165/165/165 7/7/7
f 168/168/168 147/147/147 165/165/165
f 6/6/6 167/167/167 165/165/165
f 168/168/168 166/166/166 171/171/171
f 168/168/168 171/171/171 169/169/169
f 170/170/170 168/168/168 169/169/169
f 170/170/170 147/147/147 168/168/168
f 173/173/173 171/171/171 172/172/172
f 174/174/174 172/172/172 171/171/171
f 176/176/176 171/171/171 173/173/173
f 176/176/176 169/169/169 171/171/171
f 171/171/171 166/166/166 178/178/178
f 171/171/171 178/178/178 174/174/174
f 167/167/167 179/179/179 178/178/178
f 166/166/166 167/167/167 178/178/178
f 178/178/178 179/179/179 180/180/180
f 178/178/178 180/180/180 174/174/174
f 180/180/180 184/184/184 181/181/181
f 174/174/174 180/180/180 181/181/181
f 180/180/180 182/182/182 184/184/184
f 183/183/183 182/182/182 180/180/180
f 183/183/183 180/180/180 179/179/179
f 181/181/181 184/184/184 188/188/188
f 184/184/184 190/190/190 186/186/186
f 188/188/188 184/184/184 186/186/186
f 184/184/184 182/182/182 190/190/190
f 192/192/192 191/191/191 189/189/189
f 189/189/189 191/191/191 195/195/195
f 190/190/190 183/183/183 193/193/193
f 183/183/183 190/190/190 182/182/182
f 189/189/189 195/195/195 194/194/194
f 185/185/185 189/189/189 194/194/194
f 197/197/197 195/195/195 191/191/191
f 52/52/52 62/62/62 195/195/195
f 195/195/195 62/62/62 194/194/194
f 196/196/196 52/52/52 195/195/195
f 197/197/197 196/196/196 195/195/195
f 198/198/198 197/197/197 191/191/191
f 199/199/199 197/197/197 198/198/198
f 196/196/196 197/197/197 199/199/199
f 202/202/202 200/200/200 199/199/199
f 204/204/204 199/199/199 200/200/200
f 198/198/198 202/202/202 199/199/199
f 199/199/199 54/54/54 196/196/196
f 199/199/199 204/204/204 54/54/54
f 30/30/30 203/203/203 201/201/201
f 30/30/30 46/46/46 203/203/203
f 203/203/203 46/46/46 55/55/55
f 200/200/200 202/202/202 27/27/27
f 198/198/198 206/206/206 202/202/202
f 207/207/207 202/202/202 206/206/206
f 207/207/207 27/27/27 202/202/202
f 208/208/208 215/215/215 207/207/207
f 211/211/211 208/208/208 207/207/207
f 206/206/206 211/211/211 207/207/207
f 215/215/215 27/27/27 207/207/207
f 217/217/217 22/22/22 212/212/212
f 26/26/26 214/214/214 23/23/23
f 209/209/209 216/216/216 213/213/213
f 216/216/216 209/209/209 219/219/219
f 4/4/4 22/22/22 217/217/217
f 2/2/2 216/216/216 219/219/219
f 222/222/222 9/9/9 219/219/219
f 210/210/210 221/221/221 220/220/220
f 211/211/211 218/218/218 208/208/208
f 11/11/11 2/2/2 219/219/219
f 224/224/224 221/221/221 223/223/223
f 223/223/223 221/221/221 210/210/210
f 221/221/221 224/224/224 10/10/10
f 167/167/167 224/224/224 179/179/179
f 179/179/179 224/224/224 183/183/183
f 224/224/224 167/167/167 6/6/6
f 224/224/224 6/6/6 10/10/10
f 223/223/223 183/183/183 224/224/224
f 223/223/223 210/210/210 205/205/205
f 223/223/223 205/205/205 193/193/193
f 223/223/223 193/193/193 183/183/183
f 206/206/206 191/191/191 192/192/192
f 198/198/198 191/191/191 206/206/206
f 26/26/26 30/30/30 201/201/201
f 196/196/196 54/54/54 53/53/53
f 196/196/196 53/53/53 52/52/52
f 227/227/227 194/194/194 62/62/62
f 185/185/185 194/194/194 227/227/227
f 226/226/226 63/63/63 65/65/65
f 65/65/65 187/187/187 226/226/226
f 188/188/188 186/186/186 225/225/225
f 228/228/228 187/187/187 65/65/65
f 181/181/181 188/188/188 229/229/229
f 172/172/172 181/181/181 229/229/229
f 172/172/172 229/229/229 230/230/230
f 231/231/231 228/228/228 73/73/73
f 228/228/228 65/65/65 73/73/73
f 173/173/173 230/230/230 233/233/233
f 81/81/81 232/232/232 231/231/231
f 81/81/81 231/231/231 78/78/78
f 231/231/231 73/73/73 78/78/78
f 173/173/173 172/172/172 230/230/230
f 234/234/234 173/173/173 233/233/233
f 98/98/98 235/235/235 232/232/232
f 98/98/98 232/232/232 81/81/81
f 175/175/175 235/235/235 236/236/236
f 234/234/234 176/176/176 173/173/173
f 95/95/95 235/235/235 98/98/98
f 95/95/95 236/236/236 235/235/235
f 238/238/238 240/240/240 237/237/237
f 101/101/101 238/238/238 237/237/237
f 237/237/237 240/240/240 177/177/177
f 100/100/100 236/236/236 95/95/95
f 239/239/239 241/241/241 176/176/176
f 239/239/239 170/170/170 241/241/241
f 139/139/139 138/138/138 240/240/240
f 239/239/239 137/137/137 170/170/170
f 139/139/139 240/240/240 242/242/242
f 238/238/238 242/242/242 240/240/240
f 139/139/139 242/242/242 243/243/243
f 242/242/242 238/238/238 128/128/128
f 243/243/243 242/242/242 128/128/128
f 243/243/243 128/128/128 127/127/127
f 126/126/126 243/243/243 127/127/127
f 243/243/243 126/126/126 139/139/139
f 170/170/170 169/169/169 241/241/241
f 241/241/241 169/169/169 176/176/176
f 101/101/101 128/128/128 238/238/238
f 174/174/174 181/181/181 172/172/172
f 147/147/147 170/170/170 137/137/137
f 128/128/128 101/101/101 121/121/121
f 92/92/92 89/89/89 108/108/108
f 82/82/82 97/97/97 80/80/80
f 74/74/74 37/37/37 39/39/39
f 60/60/60 73/73/73 65/65/65
f 55/55/55 46/46/46 50/50/50
f 30/30/30 28/28/28 46/46/46
f 33/33/33 20/20/20 15/15/15
f 33/33/33 15/15/15 14/14/14

