# https://github.com/mikedh/trimesh
mtllib material.mtl

o joint_9
usemtl material_0
v -0.00090300 0.00000000 -0.00090300
v -0.00090300 0.00000000 -0.00090300
v -0.00090300 0.00000000 -0.00090300
v -0.00090300 0.00000000 -0.00090300
v -0.00090300 0.00000000 -0.00090300
v -0.00076100 0.00000000 -0.00132800
v -0.00076100 0.00000000 -0.00132800
v -0.00076100 0.00000000 -0.00132800
v -0.00076100 0.00000000 -0.00132800
v -0.00076100 0.00000000 -0.00132800
v -0.00076100 0.00000000 -0.00132800
v -0.00053100 0.00000000 -0.00171800
v -0.00053100 0.00000000 -0.00171800
v -0.00053100 0.00000000 -0.00171800
v -0.00053100 0.00000000 -0.00171800
v -0.00053100 0.00000000 -0.00171800
v -0.00053100 0.00000000 -0.00171800
v -0.00042800 -0.00053400 0.00055400
v -0.00042800 -0.00053400 0.00055400
v -0.00042800 -0.00053400 0.00055400
v -0.00042800 -0.00053400 0.00055400
v -0.00040800 -0.00051700 0.00028800
v -0.00040800 -0.00051700 0.00028800
v -0.00040800 -0.00051700 0.00028800
v -0.00040800 -0.00051700 0.00028800
v -0.00086900 -0.00044700 0.00050700
v -0.00086900 -0.00044700 0.00050700
v -0.00086900 -0.00044700 0.00050700
v -0.00086900 -0.00044700 0.00050700
v -0.00086900 -0.00044700 0.00050700
v -0.00086900 -0.00044700 0.00050700
v -0.00038600 -0.00052100 0.00001900
v -0.00038600 -0.00052100 0.00001900
v -0.00038600 -0.00052100 0.00001900
v -0.00038600 -0.00052100 0.00001900
v -0.00096100 -0.00031200 -0.00000000
v -0.00096100 -0.00031200 -0.00000000
v -0.00096100 -0.00031200 -0.00000000
v -0.00096100 -0.00031200 -0.00000000
v -0.00096100 -0.00031200 -0.00000000
v -0.00096100 -0.00031200 -0.00000000
v -0.00096600 -0.00014900 -0.00050700
v -0.00096600 -0.00014900 -0.00050700
v -0.00096600 -0.00014900 -0.00050700
v -0.00096600 -0.00014900 -0.00050700
v -0.00096600 -0.00014900 -0.00050700
v -0.00096600 -0.00014900 -0.00050700
v -0.00096600 0.00014900 -0.00050700
v -0.00096600 0.00014900 -0.00050700
v -0.00096600 0.00014900 -0.00050700
v -0.00096600 0.00014900 -0.00050700
v -0.00096600 0.00014900 -0.00050700
v -0.00096600 0.00014900 -0.00050700
v -0.00096100 0.00031200 0.00000000
v -0.00096100 0.00031200 0.00000000
v -0.00096100 0.00031200 0.00000000
v -0.00096100 0.00031200 0.00000000
v -0.00096100 0.00031200 0.00000000
v -0.00096100 0.00031200 0.00000000
v -0.00086900 0.00044700 0.00050700
v -0.00086900 0.00044700 0.00050700
v -0.00086900 0.00044700 0.00050700
v -0.00086900 0.00044700 0.00050700
v -0.00086900 0.00044700 0.00050700
v -0.00086900 0.00044700 0.00050700
v -0.00082100 -0.00029800 0.00101500
v -0.00082100 -0.00029800 0.00101500
v -0.00082100 -0.00029800 0.00101500
v -0.00082100 -0.00029800 0.00101500
v -0.00082100 -0.00029800 0.00101500
v -0.00082100 -0.00029800 0.00101500
v -0.00085900 0.00000000 0.00106200
v -0.00085900 0.00000000 0.00106200
v -0.00085900 0.00000000 0.00106200
v -0.00085900 0.00000000 0.00106200
v -0.00085900 0.00000000 0.00106200
v -0.00085900 0.00000000 0.00106200
v -0.00082100 0.00029800 0.00101500
v -0.00082100 0.00029800 0.00101500
v -0.00082100 0.00029800 0.00101500
v -0.00082100 0.00029800 0.00101500
v -0.00082100 0.00029800 0.00101500
v -0.00082100 0.00029800 0.00101500
v -0.00045200 0.00000000 0.00180700
v -0.00045200 0.00000000 0.00180700
v -0.00045200 0.00000000 0.00180700
v -0.00045200 0.00000000 0.00180700
v -0.00045200 0.00000000 0.00180700
v -0.00045200 0.00000000 0.00180700
v -0.00045700 -0.00047100 0.00079100
v -0.00045700 -0.00047100 0.00079100
v -0.00045700 -0.00047100 0.00079100
v -0.00045700 -0.00047100 0.00079100
v -0.00052600 -0.00028900 0.00115100
v -0.00052600 -0.00028900 0.00115100
v -0.00052600 -0.00028900 0.00115100
v -0.00052600 -0.00028900 0.00115100
v -0.00058600 -0.00009800 0.00129900
v -0.00058600 -0.00009800 0.00129900
v -0.00058600 -0.00009800 0.00129900
v -0.00058600 -0.00009800 0.00129900
v -0.00058600 -0.00009800 0.00129900
v -0.00058600 -0.00009800 0.00129900
v -0.00095700 0.00016400 0.00055800
v -0.00095700 0.00016400 0.00055800
v -0.00095700 0.00016400 0.00055800
v -0.00095700 0.00016400 0.00055800
v -0.00095700 0.00016400 0.00055800
v -0.00095700 0.00016400 0.00055800
v -0.00101000 -0.00000000 0.00000000
v -0.00101000 -0.00000000 0.00000000
v -0.00101000 -0.00000000 0.00000000
v -0.00101000 -0.00000000 0.00000000
v -0.00101000 -0.00000000 0.00000000
v -0.00101000 -0.00000000 0.00000000
v -0.00095700 -0.00016400 0.00055800
v -0.00095700 -0.00016400 0.00055800
v -0.00095700 -0.00016400 0.00055800
v -0.00095700 -0.00016400 0.00055800
v -0.00095700 -0.00016400 0.00055800
v -0.00095700 -0.00016400 0.00055800
v -0.00004000 0.00000000 0.00119500
v -0.00004000 0.00000000 0.00119500
v -0.00004000 0.00000000 0.00119500
v -0.00004000 0.00000000 0.00119500
v -0.00004000 0.00000000 0.00119500
v -0.00051800 0.00000000 0.00128900
v -0.00051800 0.00000000 0.00128900
v -0.00051800 0.00000000 0.00128900
v -0.00028300 0.00000000 0.00139600
v -0.00028300 0.00000000 0.00139600
v -0.00028300 0.00000000 0.00139600
v -0.00028300 0.00000000 0.00139600
v -0.00035200 -0.00008500 0.00146100
v -0.00035200 -0.00008500 0.00146100
v -0.00035200 -0.00008500 0.00146100
v -0.00035200 -0.00008500 0.00146100
v -0.00035200 -0.00008500 0.00146100
v -0.00052800 -0.00009700 0.00146400
v -0.00052800 -0.00009700 0.00146400
v -0.00052800 -0.00009700 0.00146400
v -0.00033000 -0.00006300 0.00185900
v -0.00033000 -0.00006300 0.00185900
v -0.00033000 -0.00006300 0.00185900
v -0.00033000 -0.00006300 0.00185900
v -0.00016600 -0.00007100 0.00187700
v -0.00016600 -0.00007100 0.00187700
v -0.00016600 -0.00007100 0.00187700
v -0.00016600 -0.00007100 0.00187700
v -0.00010500 0.00000000 0.00195700
v -0.00010500 0.00000000 0.00195700
v -0.00010500 0.00000000 0.00195700
v -0.00010500 0.00000000 0.00195700
v -0.00019500 -0.00007000 0.00157100
v -0.00019500 -0.00007000 0.00157100
v -0.00019500 -0.00007000 0.00157100
v -0.00009100 0.00000000 0.00152600
v -0.00009100 0.00000000 0.00152600
v -0.00009100 0.00000000 0.00152600
v -0.00009100 0.00000000 0.00152600
v 0.00012800 -0.00041900 0.00077900
v 0.00012800 -0.00041900 0.00077900
v 0.00012800 -0.00041900 0.00077900
v 0.00012800 -0.00041900 0.00077900
v 0.00005700 -0.00025100 0.00109500
v 0.00005700 -0.00025100 0.00109500
v 0.00005700 -0.00025100 0.00109500
v 0.00005700 -0.00025100 0.00109500
v -0.00090100 -0.00023100 -0.00061900
v -0.00090100 -0.00023100 -0.00061900
v -0.00090100 -0.00023100 -0.00061900
v -0.00090100 -0.00023100 -0.00061900
v -0.00036500 -0.00049400 -0.00023900
v -0.00036500 -0.00049400 -0.00023900
v -0.00036500 -0.00049400 -0.00023900
v -0.00036500 -0.00049400 -0.00023900
v -0.00036700 -0.00035400 -0.00040600
v -0.00036700 -0.00035400 -0.00040600
v -0.00036700 -0.00035400 -0.00040600
v -0.00036700 -0.00035400 -0.00040600
v -0.00038000 -0.00020500 -0.00049700
v -0.00038000 -0.00020500 -0.00049700
v -0.00038000 -0.00020500 -0.00049700
v -0.00038000 -0.00020500 -0.00049700
v -0.00038700 -0.00011300 -0.00059600
v -0.00038700 -0.00011300 -0.00059600
v -0.00038700 -0.00011300 -0.00059600
v -0.00038700 -0.00011300 -0.00059600
v -0.00040700 -0.00015000 -0.00084900
v -0.00040700 -0.00015000 -0.00084900
v -0.00040700 -0.00015000 -0.00084900
v -0.00040700 -0.00015000 -0.00084900
v 0.00002800 -0.00010500 -0.00103400
v 0.00002800 -0.00010500 -0.00103400
v 0.00002800 -0.00010500 -0.00103400
v 0.00002800 -0.00010500 -0.00103400
v -0.00044100 -0.00010100 -0.00109600
v -0.00044100 -0.00010100 -0.00109600
v -0.00044100 -0.00010100 -0.00109600
v -0.00044100 -0.00010100 -0.00109600
v 0.00010900 0.00000000 -0.00151400
v 0.00010900 0.00000000 -0.00151400
v 0.00010900 0.00000000 -0.00151400
v 0.00010900 0.00000000 -0.00151400
v 0.00010300 -0.00006500 -0.00148100
v 0.00010300 -0.00006500 -0.00148100
v 0.00010300 -0.00006500 -0.00148100
v 0.00010300 -0.00006500 -0.00148100
v 0.00023500 -0.00006200 -0.00129200
v 0.00023500 -0.00006200 -0.00129200
v 0.00023500 -0.00006200 -0.00129200
v 0.00023500 -0.00006200 -0.00129200
v -0.00048700 -0.00010200 -0.00157500
v -0.00048700 -0.00010200 -0.00157500
v -0.00048700 -0.00010200 -0.00157500
v -0.00048700 -0.00010200 -0.00157500
v -0.00045500 -0.00010500 -0.00134900
v -0.00045500 -0.00010500 -0.00134900
v -0.00045500 -0.00010500 -0.00134900
v -0.00045500 -0.00010500 -0.00134900
v -0.00002700 -0.00008700 -0.00143900
v -0.00002700 -0.00008700 -0.00143900
v -0.00002700 -0.00008700 -0.00143900
v -0.00000300 -0.00009200 -0.00127800
v -0.00000300 -0.00009200 -0.00127800
v -0.00000300 -0.00009200 -0.00127800
v -0.00000300 -0.00009200 -0.00127800
v -0.00049000 -0.00039300 0.00100000
v -0.00049000 -0.00039300 0.00100000
v -0.00049000 -0.00039300 0.00100000
v -0.00049000 -0.00039300 0.00100000
v 0.00009700 -0.00035300 0.00097500
v 0.00009700 -0.00035300 0.00097500
v 0.00009700 -0.00035300 0.00097500
v 0.00009700 -0.00035300 0.00097500
v -0.00054200 -0.00008100 0.00160800
v -0.00054200 -0.00008100 0.00160800
v -0.00054200 -0.00008100 0.00160800
v -0.00030700 -0.00007500 0.00162000
v -0.00030700 -0.00007500 0.00162000
v -0.00030700 -0.00007500 0.00162000
v -0.00030700 -0.00007500 0.00162000
v -0.00016400 -0.00006900 0.00168500
v -0.00016400 -0.00006900 0.00168500
v -0.00016400 -0.00006900 0.00168500
v -0.00016400 -0.00006900 0.00168500
v 0.00001000 0.00000000 0.00168300
v 0.00001000 0.00000000 0.00168300
v 0.00001000 0.00000000 0.00168300
v 0.00001000 0.00000000 0.00168300
v -0.00032900 -0.00006700 0.00175100
v -0.00032900 -0.00006700 0.00175100
v -0.00032900 -0.00006700 0.00175100
v -0.00032900 -0.00006700 0.00175100
v -0.00015600 -0.00007000 0.00178600
v -0.00015600 -0.00007000 0.00178600
v -0.00015600 -0.00007000 0.00178600
v -0.00015600 -0.00007000 0.00178600
v -0.00000800 0.00000000 0.00184300
v -0.00000800 0.00000000 0.00184300
v -0.00000800 0.00000000 0.00184300
v -0.00000800 0.00000000 0.00184300
v -0.00038600 0.00052100 0.00001900
v -0.00038600 0.00052100 0.00001900
v -0.00038600 0.00052100 0.00001900
v -0.00038600 0.00052100 0.00001900
v -0.00040800 0.00051700 0.00028800
v -0.00040800 0.00051700 0.00028800
v -0.00040800 0.00051700 0.00028800
v -0.00040800 0.00051700 0.00028800
v -0.00042800 0.00053400 0.00055400
v -0.00042800 0.00053400 0.00055400
v -0.00042800 0.00053400 0.00055400
v -0.00042800 0.00053400 0.00055400
v -0.00045700 0.00047100 0.00079100
v -0.00045700 0.00047100 0.00079100
v -0.00045700 0.00047100 0.00079100
v -0.00045700 0.00047100 0.00079100
v 0.00012800 0.00041900 0.00077900
v 0.00012800 0.00041900 0.00077900
v 0.00012800 0.00041900 0.00077900
v 0.00012800 0.00041900 0.00077900
v -0.00049000 0.00039300 0.00100000
v -0.00049000 0.00039300 0.00100000
v -0.00049000 0.00039300 0.00100000
v -0.00049000 0.00039300 0.00100000
v -0.00052600 0.00028900 0.00115100
v -0.00052600 0.00028900 0.00115100
v -0.00052600 0.00028900 0.00115100
v -0.00052600 0.00028900 0.00115100
v -0.00058600 0.00009800 0.00129900
v -0.00058600 0.00009800 0.00129900
v -0.00058600 0.00009800 0.00129900
v -0.00058600 0.00009800 0.00129900
v -0.00058600 0.00009800 0.00129900
v -0.00058600 0.00009800 0.00129900
v 0.00009700 0.00035300 0.00097500
v 0.00009700 0.00035300 0.00097500
v 0.00009700 0.00035300 0.00097500
v 0.00009700 0.00035300 0.00097500
v 0.00005700 0.00025100 0.00109500
v 0.00005700 0.00025100 0.00109500
v 0.00005700 0.00025100 0.00109500
v 0.00005700 0.00025100 0.00109500
v -0.00035200 0.00008500 0.00146100
v -0.00035200 0.00008500 0.00146100
v -0.00035200 0.00008500 0.00146100
v -0.00035200 0.00008500 0.00146100
v -0.00035200 0.00008500 0.00146100
v -0.00052800 0.00009700 0.00146400
v -0.00052800 0.00009700 0.00146400
v -0.00052800 0.00009700 0.00146400
v -0.00033000 0.00006300 0.00185900
v -0.00033000 0.00006300 0.00185900
v -0.00033000 0.00006300 0.00185900
v -0.00033000 0.00006300 0.00185900
v -0.00032900 0.00006700 0.00175100
v -0.00032900 0.00006700 0.00175100
v -0.00032900 0.00006700 0.00175100
v -0.00032900 0.00006700 0.00175100
v -0.00016600 0.00007100 0.00187700
v -0.00016600 0.00007100 0.00187700
v -0.00016600 0.00007100 0.00187700
v -0.00016600 0.00007100 0.00187700
v -0.00015600 0.00007000 0.00178600
v -0.00015600 0.00007000 0.00178600
v -0.00015600 0.00007000 0.00178600
v -0.00015600 0.00007000 0.00178600
v -0.00019500 0.00007000 0.00157100
v -0.00019500 0.00007000 0.00157100
v -0.00019500 0.00007000 0.00157100
v -0.00090100 0.00023100 -0.00061900
v -0.00090100 0.00023100 -0.00061900
v -0.00090100 0.00023100 -0.00061900
v -0.00090100 0.00023100 -0.00061900
v -0.00038700 0.00011300 -0.00059600
v -0.00038700 0.00011300 -0.00059600
v -0.00038700 0.00011300 -0.00059600
v -0.00038700 0.00011300 -0.00059600
v -0.00038000 0.00020500 -0.00049700
v -0.00038000 0.00020500 -0.00049700
v -0.00038000 0.00020500 -0.00049700
v -0.00038000 0.00020500 -0.00049700
v -0.00036700 0.00035400 -0.00040600
v -0.00036700 0.00035400 -0.00040600
v -0.00036700 0.00035400 -0.00040600
v -0.00036700 0.00035400 -0.00040600
v -0.00036500 0.00049400 -0.00023900
v -0.00036500 0.00049400 -0.00023900
v -0.00036500 0.00049400 -0.00023900
v -0.00036500 0.00049400 -0.00023900
v -0.00040700 0.00015000 -0.00084900
v -0.00040700 0.00015000 -0.00084900
v -0.00040700 0.00015000 -0.00084900
v -0.00040700 0.00015000 -0.00084900
v 0.00002800 0.00010500 -0.00103400
v 0.00002800 0.00010500 -0.00103400
v 0.00002800 0.00010500 -0.00103400
v 0.00002800 0.00010500 -0.00103400
v -0.00044100 0.00010100 -0.00109600
v -0.00044100 0.00010100 -0.00109600
v -0.00044100 0.00010100 -0.00109600
v -0.00044100 0.00010100 -0.00109600
v 0.00010300 0.00006500 -0.00148100
v 0.00010300 0.00006500 -0.00148100
v 0.00010300 0.00006500 -0.00148100
v 0.00010300 0.00006500 -0.00148100
v 0.00023500 0.00006200 -0.00129200
v 0.00023500 0.00006200 -0.00129200
v 0.00023500 0.00006200 -0.00129200
v 0.00023500 0.00006200 -0.00129200
v -0.00048700 0.00010200 -0.00157500
v -0.00048700 0.00010200 -0.00157500
v -0.00048700 0.00010200 -0.00157500
v -0.00048700 0.00010200 -0.00157500
v -0.00045500 0.00010500 -0.00134900
v -0.00045500 0.00010500 -0.00134900
v -0.00045500 0.00010500 -0.00134900
v -0.00045500 0.00010500 -0.00134900
v -0.00002700 0.00008700 -0.00143900
v -0.00002700 0.00008700 -0.00143900
v -0.00002700 0.00008700 -0.00143900
v -0.00000300 0.00009200 -0.00127800
v -0.00000300 0.00009200 -0.00127800
v -0.00000300 0.00009200 -0.00127800
v -0.00000300 0.00009200 -0.00127800
v -0.00000300 0.00009200 -0.00127800
v -0.00054200 0.00008100 0.00160800
v -0.00054200 0.00008100 0.00160800
v -0.00054200 0.00008100 0.00160800
v -0.00030700 0.00007500 0.00162000
v -0.00030700 0.00007500 0.00162000
v -0.00030700 0.00007500 0.00162000
v -0.00030700 0.00007500 0.00162000
v -0.00016400 0.00006900 0.00168500
v -0.00016400 0.00006900 0.00168500
v -0.00016400 0.00006900 0.00168500
v -0.00016400 0.00006900 0.00168500
v 0.00017200 -0.00008000 -0.00114200
v 0.00018100 0.00007800 -0.00114000
v 0.00018100 0.00007800 -0.00114000
v 0.00018100 0.00007800 -0.00114000
v 0.00015400 -0.00046700 0.00055600
v 0.00015400 -0.00046700 0.00055600
v 0.00015400 -0.00046700 0.00055700
v 0.00015400 -0.00046700 0.00055700
v 0.00012900 -0.00046000 0.00032000
v 0.00012800 -0.00045900 0.00030200
v 0.00012800 -0.00045900 0.00030200
v 0.00013700 -0.00046500 0.00044700
v 0.00014400 -0.00046600 0.00050700
v 0.00011700 -0.00045800 0.00008100
v 0.00011700 -0.00045900 0.00005100
v 0.00011700 -0.00045900 0.00005100
v 0.00017700 -0.00041700 0.00076000
v 0.00015500 -0.00046200 0.00057700
v 0.00017900 -0.00041200 0.00077800
v 0.00017900 -0.00041200 0.00077800
v 0.00018200 -0.00030000 0.00101800
v 0.00018200 -0.00029600 0.00102300
v 0.00019000 -0.00025900 0.00106300
v 0.00018300 -0.00030700 0.00101000
v 0.00019000 -0.00034200 0.00097000
v 0.00019000 -0.00034200 0.00097000
v 0.00019500 -0.00024100 0.00108400
v 0.00019500 -0.00024100 0.00108400
v 0.00018800 -0.00004200 0.00116500
v 0.00019400 -0.00018400 0.00111200
v 0.00019500 0.00000000 0.00118100
v 0.00019500 0.00000000 0.00118100
v 0.00011200 -0.00045500 -0.00000000
v 0.00011300 -0.00043700 -0.00018200
v 0.00011300 -0.00043700 -0.00018200
v 0.00003200 -0.00014500 -0.00049200
v 0.00003300 -0.00013900 -0.00049800
v 0.00004100 -0.00019200 -0.00043400
v 0.00004100 -0.00019200 -0.00043400
v 0.00003400 -0.00016000 -0.00047300
v 0.00003400 -0.00013000 -0.00050700
v 0.00003600 -0.00011600 -0.00052200
v 0.00003600 -0.00011600 -0.00052200
v 0.00007900 -0.00034500 -0.00031100
v 0.00007400 -0.00031800 -0.00034500
v 0.00007400 -0.00031800 -0.00034500
v 0.00008400 -0.00037000 -0.00027700
v 0.00005000 -0.00022600 -0.00041200
v 0.00004700 -0.00011700 -0.00059400
v 0.00008400 -0.00011800 -0.00075800
v 0.00008500 -0.00011900 -0.00076400
v 0.00008500 -0.00011900 -0.00076400
v 0.00009000 -0.00011700 -0.00078500
v 0.00009000 -0.00011700 -0.00078500
v 0.00025000 0.00000000 -0.00134600
v 0.00025000 0.00000000 -0.00134600
v 0.00023900 -0.00004700 -0.00130400
v 0.00023900 -0.00004700 -0.00130400
v 0.00024500 -0.00001400 -0.00133500
v 0.00017600 -0.00008200 -0.00111300
v 0.00018500 -0.00007900 -0.00114200
v 0.00015400 0.00046700 0.00055700
v 0.00015400 0.00046700 0.00055700
v 0.00015400 0.00046700 0.00055600
v 0.00015400 0.00046700 0.00055600
v 0.00012900 0.00046000 0.00032000
v 0.00013700 0.00046500 0.00044700
v 0.00014400 0.00046600 0.00050700
v 0.00012800 0.00045900 0.00030200
v 0.00012800 0.00045900 0.00030200
v 0.00011700 0.00045800 0.00008100
v 0.00011700 0.00045900 0.00005100
v 0.00011700 0.00045900 0.00005100
v 0.00017700 0.00041700 0.00076000
v 0.00017900 0.00041200 0.00077800
v 0.00017900 0.00041200 0.00077800
v 0.00015500 0.00046200 0.00057700
v 0.00019000 0.00025900 0.00106300
v 0.00019500 0.00024100 0.00108400
v 0.00019500 0.00024100 0.00108400
v 0.00018200 0.00030000 0.00101800
v 0.00018200 0.00029600 0.00102300
v 0.00018300 0.00030700 0.00101000
v 0.00019000 0.00034200 0.00097000
v 0.00019000 0.00034200 0.00097000
v 0.00019400 0.00018400 0.00111200
v 0.00018800 0.00004200 0.00116500
v 0.00011200 0.00045500 0.00000000
v 0.00011300 0.00043700 -0.00018200
v 0.00011300 0.00043700 -0.00018200
v 0.00003400 0.00013000 -0.00050700
v 0.00003600 0.00011600 -0.00052200
v 0.00003600 0.00011600 -0.00052200
v 0.00003300 0.00013900 -0.00049800
v 0.00003200 0.00014500 -0.00049200
v 0.00004100 0.00019200 -0.00043400
v 0.00004100 0.00019200 -0.00043400
v 0.00003400 0.00016000 -0.00047300
v 0.00007900 0.00034500 -0.00031100
v 0.00008400 0.00037000 -0.00027700
v 0.00007400 0.00031800 -0.00034500
v 0.00007400 0.00031800 -0.00034500
v 0.00005000 0.00022600 -0.00041200
v 0.00008400 0.00011800 -0.00075800
v 0.00008500 0.00011900 -0.00076400
v 0.00008500 0.00011900 -0.00076400
v 0.00004700 0.00011700 -0.00059400
v 0.00012300 0.00010000 -0.00095000
v 0.00014600 0.00009200 -0.00102000
v 0.00014600 0.00009200 -0.00102000
v 0.00009000 0.00011700 -0.00078500
v 0.00009000 0.00011700 -0.00078500
v 0.00023900 0.00004700 -0.00130400
v 0.00023900 0.00004700 -0.00130400
v 0.00024500 0.00001400 -0.00133500
v 0.00018200 0.00007900 -0.00113100
v 0.00018200 0.00007900 -0.00113100
v 0.00012300 -0.00010000 -0.00095000
v 0.00014600 -0.00009200 -0.00102000
v 0.00014600 -0.00009200 -0.00102000
v 0.00021700 -0.00006700 -0.00124100
v 0.00023600 -0.00006200 -0.00128900
v 0.00023600 -0.00006200 -0.00128900
v 0.00018500 0.00007700 -0.00114000
v 0.00018500 0.00007700 -0.00114000
v 0.00020000 0.00007300 -0.00118800
v 0.00021700 0.00006700 -0.00124100
v 0.00023600 0.00006200 -0.00128800
v 0.00023600 0.00006200 -0.00128800
v 0.00023600 -0.00006100 -0.00129000
v -0.00092500 -0.00017900 -0.00067400
v -0.00092500 -0.00017900 -0.00067400
v -0.00092500 -0.00017900 -0.00067400
v -0.00087600 -0.00013500 -0.00092800
v -0.00087600 -0.00013500 -0.00092800
v -0.00087600 -0.00013500 -0.00092800
v -0.00092200 -0.00011800 -0.00073000
v -0.00092200 -0.00011800 -0.00073000
v -0.00092200 -0.00011800 -0.00073000
v -0.00092200 -0.00011800 -0.00073100
v -0.00092200 -0.00011800 -0.00073100
v -0.00092300 -0.00012700 -0.00072200
v -0.00092300 -0.00012700 -0.00072200
v -0.00092300 -0.00012700 -0.00072200
v -0.00086900 -0.00012900 -0.00096300
v -0.00086900 -0.00012900 -0.00096300
v -0.00086900 -0.00012900 -0.00096300
v -0.00087000 -0.00012900 -0.00095800
v -0.00087000 -0.00012900 -0.00095800
v -0.00075300 0.00034800 0.00111900
v -0.00075300 0.00034800 0.00111900
v -0.00075300 0.00034800 0.00111900
v -0.00075200 0.00035700 0.00110800
v -0.00075200 0.00035700 0.00110800
v -0.00076100 0.00045300 0.00094100
v -0.00076100 0.00045300 0.00094100
v -0.00076100 0.00045300 0.00094100
v -0.00074900 0.00042000 0.00102000
v -0.00074900 0.00042000 0.00102000
v -0.00074900 0.00042000 0.00102000
v -0.00019300 0.00002800 0.00195900
v -0.00019300 0.00002800 0.00195900
v -0.00019300 -0.00002800 0.00195900
v -0.00019300 -0.00002800 0.00195900
v -0.00014000 0.00000000 0.00197600
v -0.00014000 0.00000000 0.00197600
v -0.00014000 0.00000000 0.00197600
v -0.00020500 -0.00003900 0.00195500
v -0.00020500 -0.00003900 0.00195500
v -0.00020500 -0.00003900 0.00195500
v -0.00020500 0.00003900 0.00195500
v -0.00020500 0.00003900 0.00195500
v -0.00020500 0.00003900 0.00195500
v -0.00034600 0.00006400 0.00187100
v -0.00034600 0.00006400 0.00187100
v -0.00034600 0.00006400 0.00187100
v -0.00035600 0.00006500 0.00186200
v -0.00035600 0.00006500 0.00186200
v -0.00035600 0.00006500 0.00186200
v -0.00044700 0.00006900 0.00178700
v -0.00044700 0.00006900 0.00178700
v -0.00044700 0.00006900 0.00178700
v -0.00034600 -0.00006400 0.00187100
v -0.00034600 -0.00006400 0.00187100
v -0.00034600 -0.00006400 0.00187100
v -0.00033300 -0.00006400 0.00187800
v -0.00033300 -0.00006400 0.00187800
v -0.00033300 -0.00006400 0.00187800
v -0.00033300 0.00006400 0.00187800
v -0.00033300 0.00006400 0.00187800
v -0.00033300 0.00006400 0.00187800
v -0.00023300 -0.00006900 0.00193900
v -0.00023300 -0.00006900 0.00193900
v -0.00023300 -0.00006900 0.00193900
v -0.00023300 0.00006900 0.00193900
v -0.00023300 0.00006900 0.00193900
v -0.00023300 0.00006900 0.00193900
v -0.00035600 -0.00006500 0.00186200
v -0.00035600 -0.00006500 0.00186200
v -0.00035600 -0.00006500 0.00186200
v -0.00044700 -0.00006900 0.00178700
v -0.00044700 -0.00006900 0.00178700
v -0.00044700 -0.00006900 0.00178700
v -0.00047500 0.00007100 0.00175100
v -0.00047500 0.00007100 0.00175100
v -0.00047500 0.00007100 0.00175100
v -0.00055100 0.00007900 0.00165300
v -0.00055100 0.00007900 0.00165300
v -0.00056200 0.00008000 0.00163800
v -0.00056200 0.00008000 0.00163800
v -0.00056200 0.00008000 0.00163800
v -0.00067800 -0.00009400 0.00146200
v -0.00067800 -0.00009400 0.00146200
v -0.00067800 -0.00009400 0.00146200
v -0.00067400 -0.00009400 0.00146700
v -0.00067400 -0.00009400 0.00146700
v -0.00067400 -0.00009400 0.00146700
v -0.00067800 0.00009400 0.00146200
v -0.00067800 0.00009400 0.00146200
v -0.00067800 0.00009400 0.00146200
v -0.00067400 0.00009400 0.00146700
v -0.00067400 0.00009400 0.00146700
v -0.00067400 0.00009400 0.00146700
v -0.00060500 0.00008400 0.00157200
v -0.00060500 0.00008400 0.00157200
v -0.00060500 -0.00008400 0.00157200
v -0.00060500 -0.00008400 0.00157200
v -0.00058100 -0.00008300 0.00161000
v -0.00058100 -0.00008300 0.00161000
v -0.00058100 -0.00008300 0.00161000
v -0.00056200 -0.00008000 0.00163800
v -0.00056200 -0.00008000 0.00163800
v -0.00056200 -0.00008000 0.00163800
v -0.00058100 0.00008300 0.00161000
v -0.00058100 0.00008300 0.00161000
v -0.00058100 0.00008300 0.00161000
v -0.00047500 -0.00007100 0.00175100
v -0.00047500 -0.00007100 0.00175100
v -0.00047500 -0.00007100 0.00175100
v -0.00055100 -0.00007900 0.00165300
v -0.00055100 -0.00007900 0.00165300
v -0.00074900 0.00029900 0.00117400
v -0.00074900 0.00029900 0.00117400
v -0.00074900 0.00029900 0.00117400
v -0.00075800 0.00023900 0.00121200
v -0.00075800 0.00023900 0.00121200
v -0.00075800 0.00023900 0.00121200
v -0.00074300 0.00010500 0.00131900
v -0.00074300 0.00010500 0.00131900
v -0.00074300 0.00010500 0.00131900
v -0.00074600 0.00010700 0.00130900
v -0.00074600 0.00010700 0.00130900
v -0.00074600 0.00010700 0.00130900
v -0.00075700 0.00023000 0.00121700
v -0.00075700 0.00023000 0.00121700
v -0.00074300 -0.00010500 0.00131900
v -0.00074300 -0.00010500 0.00131900
v -0.00074300 -0.00010500 0.00131900
v -0.00070500 -0.00009500 0.00140000
v -0.00070500 -0.00009500 0.00140000
v -0.00070500 -0.00009500 0.00140000
v -0.00070500 0.00009500 0.00140000
v -0.00070500 0.00009500 0.00140000
v -0.00070500 0.00009500 0.00140000
v -0.00075800 -0.00023900 0.00121200
v -0.00075800 -0.00023900 0.00121200
v -0.00075800 -0.00023900 0.00121200
v -0.00075700 -0.00023000 0.00121700
v -0.00075700 -0.00023000 0.00121700
v -0.00074600 -0.00010700 0.00130900
v -0.00074600 -0.00010700 0.00130900
v -0.00074600 -0.00010700 0.00130900
v -0.00075300 -0.00034800 0.00111900
v -0.00075300 -0.00034800 0.00111900
v -0.00075300 -0.00034800 0.00111900
v -0.00074900 -0.00029900 0.00117400
v -0.00074900 -0.00029900 0.00117400
v -0.00074900 -0.00029900 0.00117400
v -0.00075200 -0.00035700 0.00110800
v -0.00075200 -0.00035700 0.00110800
v -0.00074900 -0.00042000 0.00102000
v -0.00074900 -0.00042000 0.00102000
v -0.00074900 -0.00042000 0.00102000
v -0.00076100 -0.00045300 0.00094100
v -0.00076100 -0.00045300 0.00094100
v -0.00076100 -0.00045300 0.00094100
v -0.00077300 0.00050600 0.00078300
v -0.00077300 0.00050600 0.00078300
v -0.00077300 0.00050600 0.00078300
v -0.00077100 0.00050100 0.00080100
v -0.00077100 0.00050100 0.00080100
v -0.00077100 0.00050100 0.00080100
v -0.00076200 0.00046300 0.00091700
v -0.00076200 0.00046300 0.00091700
v -0.00077300 -0.00050600 0.00078300
v -0.00077300 -0.00050600 0.00078300
v -0.00077300 -0.00050600 0.00078300
v -0.00077100 -0.00050100 0.00080100
v -0.00077100 -0.00050100 0.00080100
v -0.00077100 -0.00050100 0.00080100
v -0.00076200 -0.00046300 0.00091700
v -0.00076200 -0.00046300 0.00091700
v -0.00077300 0.00056700 0.00055400
v -0.00077300 0.00056700 0.00055400
v -0.00077300 0.00056700 0.00055400
v -0.00078400 0.00056500 0.00050700
v -0.00078400 0.00056500 0.00050700
v -0.00078400 0.00056500 0.00050700
v -0.00077400 0.00053900 0.00065600
v -0.00077400 0.00053900 0.00065600
v -0.00079100 0.00056300 0.00045700
v -0.00079100 0.00056300 0.00045700
v -0.00080400 0.00057200 0.00027500
v -0.00080400 0.00057200 0.00027500
v -0.00080400 0.00057200 0.00027500
v -0.00081000 0.00057500 0.00019600
v -0.00081000 0.00057500 0.00019600
v -0.00081900 0.00058700 0.00002300
v -0.00081900 0.00058700 0.00002300
v -0.00081900 0.00058700 0.00002300
v -0.00082000 0.00058900 0.00000000
v -0.00082000 0.00058900 0.00000000
v -0.00082000 0.00058900 0.00000000
v -0.00081800 0.00058900 -0.00001600
v -0.00081800 0.00058900 -0.00001600
v -0.00081800 0.00058900 -0.00001600
v -0.00080900 0.00056500 -0.00024300
v -0.00080900 0.00056500 -0.00024300
v -0.00081900 0.00058900 -0.00001500
v -0.00081900 0.00058900 -0.00001500
v -0.00081900 0.00058900 -0.00001500
v -0.00085800 0.00046600 -0.00043300
v -0.00085800 0.00046600 -0.00043300
v -0.00085800 0.00046600 -0.00043300
v -0.00082100 0.00053400 -0.00033500
v -0.00082100 0.00053400 -0.00033500
v -0.00080700 0.00055900 -0.00030000
v -0.00080700 0.00055900 -0.00030000
v -0.00080700 0.00055900 -0.00030000
v -0.00088000 0.00041800 -0.00050200
v -0.00088000 0.00041800 -0.00050200
v -0.00088000 0.00041800 -0.00050200
v -0.00089300 0.00036400 -0.00054600
v -0.00089300 0.00036400 -0.00054600
v -0.00089300 0.00036400 -0.00054600
v -0.00088300 0.00040200 -0.00052300
v -0.00088300 0.00040200 -0.00052300
v -0.00088300 0.00040200 -0.00052300
v -0.00088500 0.00039300 -0.00052900
v -0.00088500 0.00039300 -0.00052900
v -0.00092500 0.00017900 -0.00067400
v -0.00092500 0.00017900 -0.00067400
v -0.00092500 0.00017900 -0.00067400
v -0.00091800 0.00023200 -0.00062300
v -0.00091800 0.00023200 -0.00062300
v -0.00091800 0.00023200 -0.00062300
v -0.00091700 0.00023800 -0.00061900
v -0.00091700 0.00023800 -0.00061900
v -0.00090600 0.00029400 -0.00058700
v -0.00090600 0.00029400 -0.00058700
v -0.00090600 0.00029400 -0.00058700
v -0.00092200 0.00011800 -0.00073000
v -0.00092200 0.00011800 -0.00073000
v -0.00092200 0.00011800 -0.00073000
v -0.00092200 0.00011800 -0.00073100
v -0.00092200 0.00011800 -0.00073100
v -0.00092300 0.00012700 -0.00072200
v -0.00092300 0.00012700 -0.00072200
v -0.00092300 0.00012700 -0.00072200
v -0.00087600 0.00013500 -0.00092800
v -0.00087600 0.00013500 -0.00092800
v -0.00087600 0.00013500 -0.00092800
v -0.00086900 0.00012900 -0.00096300
v -0.00086900 0.00012900 -0.00096300
v -0.00086900 0.00012900 -0.00096300
v -0.00087000 0.00012900 -0.00095800
v -0.00087000 0.00012900 -0.00095800
v -0.00077300 -0.00056700 0.00055400
v -0.00077300 -0.00056700 0.00055400
v -0.00077300 -0.00056700 0.00055400
v -0.00078400 -0.00056500 0.00050700
v -0.00078400 -0.00056500 0.00050700
v -0.00078400 -0.00056500 0.00050700
v -0.00077400 -0.00053900 0.00065600
v -0.00077400 -0.00053900 0.00065600
v -0.00081900 -0.00058700 0.00002300
v -0.00081900 -0.00058700 0.00002300
v -0.00081900 -0.00058700 0.00002300
v -0.00082000 -0.00058900 -0.00000000
v -0.00082000 -0.00058900 -0.00000000
v -0.00082000 -0.00058900 -0.00000000
v -0.00088000 -0.00041800 -0.00050200
v -0.00088000 -0.00041800 -0.00050200
v -0.00088000 -0.00041800 -0.00050200
v -0.00088300 -0.00040200 -0.00052300
v -0.00088300 -0.00040200 -0.00052300
v -0.00088300 -0.00040200 -0.00052300
v -0.00089300 -0.00036400 -0.00054600
v -0.00089300 -0.00036400 -0.00054600
v -0.00089300 -0.00036400 -0.00054600
v -0.00088500 -0.00039300 -0.00052900
v -0.00088500 -0.00039300 -0.00052900
v -0.00081000 -0.00057500 0.00019600
v -0.00081000 -0.00057500 0.00019600
v -0.00079100 -0.00056300 0.00045700
v -0.00079100 -0.00056300 0.00045700
v -0.00080400 -0.00057200 0.00027500
v -0.00080400 -0.00057200 0.00027500
v -0.00080400 -0.00057200 0.00027500
v -0.00081900 -0.00058900 -0.00001500
v -0.00081900 -0.00058900 -0.00001500
v -0.00081900 -0.00058900 -0.00001500
v -0.00085800 -0.00046600 -0.00043300
v -0.00085800 -0.00046600 -0.00043300
v -0.00085800 -0.00046600 -0.00043300
v -0.00081800 -0.00058900 -0.00001600
v -0.00081800 -0.00058900 -0.00001600
v -0.00081800 -0.00058900 -0.00001600
v -0.00080900 -0.00056500 -0.00024300
v -0.00080900 -0.00056500 -0.00024300
v -0.00080700 -0.00055900 -0.00030000
v -0.00080700 -0.00055900 -0.00030000
v -0.00080700 -0.00055900 -0.00030000
v -0.00082100 -0.00053400 -0.00033500
v -0.00082100 -0.00053400 -0.00033500
v -0.00090600 -0.00029400 -0.00058700
v -0.00090600 -0.00029400 -0.00058700
v -0.00090600 -0.00029400 -0.00058700
v -0.00091800 -0.00023200 -0.00062300
v -0.00091800 -0.00023200 -0.00062300
v -0.00091800 -0.00023200 -0.00062300
v -0.00091700 -0.00023800 -0.00061900
v -0.00091700 -0.00023800 -0.00061900
v -0.00047900 0.00008300 -0.00174600
v -0.00047900 0.00008300 -0.00174600
v -0.00047900 0.00008300 -0.00174600
v -0.00041600 0.00006400 -0.00180400
v -0.00041600 0.00006400 -0.00180400
v -0.00041800 0.00007200 -0.00180100
v -0.00041800 0.00007200 -0.00180100
v -0.00041800 0.00007200 -0.00180100
v -0.00038200 0.00000000 -0.00184600
v -0.00038200 0.00000000 -0.00184600
v -0.00038200 0.00000000 -0.00184600
v -0.00038200 0.00000000 -0.00184600
v -0.00048700 0.00008400 -0.00173500
v -0.00048700 0.00008400 -0.00173500
v -0.00048700 0.00008400 -0.00173500
v -0.00057100 0.00009400 -0.00162800
v -0.00057100 0.00009400 -0.00162800
v -0.00057100 0.00009400 -0.00162800
v -0.00070600 0.00012600 -0.00139200
v -0.00070600 0.00012600 -0.00139200
v -0.00070600 0.00012600 -0.00139200
v -0.00063600 0.00011700 -0.00151200
v -0.00063600 0.00011700 -0.00151200
v -0.00058300 0.00009600 -0.00160700
v -0.00058300 0.00009600 -0.00160700
v -0.00059700 0.00010300 -0.00158100
v -0.00059700 0.00010300 -0.00158100
v -0.00059700 0.00010300 -0.00158100
v -0.00076400 0.00013200 -0.00125200
v -0.00076400 0.00013200 -0.00125200
v -0.00072000 0.00012900 -0.00135500
v -0.00072000 0.00012900 -0.00135500
v -0.00072000 0.00012900 -0.00135500
v -0.00080000 0.00012000 -0.00117200
v -0.00080000 0.00012000 -0.00117200
v -0.00080000 0.00012000 -0.00117200
v -0.00081300 0.00011500 -0.00113500
v -0.00081300 0.00011500 -0.00113500
v -0.00081300 0.00011500 -0.00113500
v -0.00081300 -0.00011500 -0.00113500
v -0.00081300 -0.00011500 -0.00113500
v -0.00081300 -0.00011500 -0.00113500
v -0.00080000 -0.00012000 -0.00117200
v -0.00080000 -0.00012000 -0.00117200
v -0.00080000 -0.00012000 -0.00117200
v -0.00063600 -0.00011700 -0.00151200
v -0.00063600 -0.00011700 -0.00151200
v -0.00070600 -0.00012600 -0.00139200
v -0.00070600 -0.00012600 -0.00139200
v -0.00070600 -0.00012600 -0.00139200
v -0.00058300 -0.00009600 -0.00160700
v -0.00058300 -0.00009600 -0.00160700
v -0.00059700 -0.00010300 -0.00158100
v -0.00059700 -0.00010300 -0.00158100
v -0.00059700 -0.00010300 -0.00158100
v -0.00057100 -0.00009400 -0.00162800
v -0.00057100 -0.00009400 -0.00162800
v -0.00057100 -0.00009400 -0.00162800
v -0.00041600 -0.00006400 -0.00180400
v -0.00041600 -0.00006400 -0.00180400
v -0.00041800 -0.00007200 -0.00180100
v -0.00041800 -0.00007200 -0.00180100
v -0.00041800 -0.00007200 -0.00180100
v -0.00047900 -0.00008300 -0.00174600
v -0.00047900 -0.00008300 -0.00174600
v -0.00047900 -0.00008300 -0.00174600
v -0.00076400 -0.00013200 -0.00125200
v -0.00076400 -0.00013200 -0.00125200
v -0.00072000 -0.00012900 -0.00135500
v -0.00072000 -0.00012900 -0.00135500
v -0.00072000 -0.00012900 -0.00135500
v -0.00048700 -0.00008400 -0.00173500
v -0.00048700 -0.00008400 -0.00173500
v -0.00048700 -0.00008400 -0.00173500
vt 0.00000000 0.00000000
vt 0.00000000 0.00000000
vt 0.00000000 0.00000000
vt 0.00000000 0.00000000
vt 0.00000000 0.00000000
vt 0.00000000 0.00000000
vt 0.00000000 0.00000000
vt 0.00000000 0.00000000
vt 0.00000000 0.00000000
vt 0.00000000 0.00000000
vt 0.00000000 0.00000000
vt 0.00000000 0.00000000
vt 0.00000000 0.00000000
vt 0.00000000 0.00000000
vt 0.00000000 0.00000000
vt 0.00000000 0.00000000
vt 0.00000000 0.00000000
vt 0.38584100 0.48784900
vt 0.38584100 0.48784900
vt 0.38584100 0.48784900
vt 0.38584100 0.48784900
vt 0.37138400 0.49759400
vt 0.37138400 0.49759400
vt 0.37138400 0.49759400
vt 0.37138400 0.49759400
vt 0.00000000 0.00000000
vt 0.00000000 0.00000000
vt 0.00000000 0.00000000
vt 0.00000000 0.00000000
vt 0.00000000 0.00000000
vt 0.00000000 0.00000000
vt 0.35697400 0.50748400
vt 0.35697400 0.50748400
vt 0.35697400 0.50748400
vt 0.35697400 0.50748400
vt 0.00000000 0.00000000
vt 0.00000000 0.00000000
vt 0.00000000 0.00000000
vt 0.00000000 0.00000000
vt 0.00000000 0.00000000
vt 0.00000000 0.00000000
vt 0.00000000 0.00000000
vt 0.00000000 0.00000000
vt 0.00000000 0.00000000
vt 0.00000000 0.00000000
vt 0.00000000 0.00000000
vt 0.00000000 0.00000000
vt 0.00000000 0.00000000
vt 0.00000000 0.00000000
vt 0.00000000 0.00000000
vt 0.00000000 0.00000000
vt 0.00000000 0.00000000
vt 0.00000000 0.00000000
vt 0.00000000 0.00000000
vt 0.00000000 0.00000000
vt 0.00000000 0.00000000
vt 0.00000000 0.00000000
vt 0.00000000 0.00000000
vt 0.00000000 0.00000000
vt 0.00000000 0.00000000
vt 0.00000000 0.00000000
vt 0.00000000 0.00000000
vt 0.00000000 0.00000000
vt 0.00000000 0.00000000
vt 0.00000000 0.00000000
vt 0.00000000 0.00000000
vt 0.00000000 0.00000000
vt 0.00000000 0.00000000
vt 0.00000000 0.00000000
vt 0.00000000 0.00000000
vt 0.00000000 0.00000000
vt 0.00000000 0.00000000
vt 0.00000000 0.00000000
vt 0.00000000 0.00000000
vt 0.00000000 0.00000000
vt 0.00000000 0.00000000
vt 0.00000000 0.00000000
vt 0.00000000 0.00000000
vt 0.00000000 0.00000000
vt 0.00000000 0.00000000
vt 0.00000000 0.00000000
vt 0.00000000 0.00000000
vt 0.00000000 0.00000000
vt 0.00000000 0.00000000
vt 0.00000000 0.00000000
vt 0.00000000 0.00000000
vt 0.00000000 0.00000000
vt 0.00000000 0.00000000
vt 0.00000000 0.00000000
vt 0.39946100 0.47915400
vt 0.39946100 0.47915400
vt 0.39946100 0.47915400
vt 0.39946100 0.47915400
vt 0.42286900 0.46555000
vt 0.42286900 0.46555000
vt 0.42286900 0.46555000
vt 0.42286900 0.46555000
vt 0.43742500 0.45806300
vt 0.43742500 0.45806300
vt 0.04367400 0.49788900
vt 0.04367400 0.49788900
vt 0.43742500 0.45806300
vt 0.04367400 0.49788900
vt 0.00000000 0.00000000
vt 0.00000000 0.00000000
vt 0.00000000 0.00000000
vt 0.00000000 0.00000000
vt 0.00000000 0.00000000
vt 0.00000000 0.00000000
vt 0.00000000 0.00000000
vt 0.00000000 0.00000000
vt 0.00000000 0.00000000
vt 0.00000000 0.00000000
vt 0.00000000 0.00000000
vt 0.00000000 0.00000000
vt 0.00000000 0.00000000
vt 0.00000000 0.00000000
vt 0.00000000 0.00000000
vt 0.00000000 0.00000000
vt 0.00000000 0.00000000
vt 0.00000000 0.00000000
vt 0.41428400 0.42759800
vt 0.41428400 0.42759800
vt 0.41428400 0.42759800
vt 0.41428400 0.42759800
vt 0.41428400 0.42759800
vt 0.03951800 0.48667100
vt 0.20584600 0.48821100
vt 0.43813000 0.45039700
vt 0.05584400 0.46657900
vt 0.18993700 0.46778000
vt 0.05584400 0.46657900
vt 0.18993700 0.46778000
vt 0.06283200 0.47732200
vt 0.06283200 0.47732200
vt 0.06283200 0.47732200
vt 0.06283200 0.47732200
vt 0.06283200 0.47732200
vt 0.06015300 0.49430900
vt 0.06015300 0.49430900
vt 0.06015300 0.49430900
vt 0.10077700 0.48376700
vt 0.10077700 0.48376700
vt 0.10077700 0.48376700
vt 0.10077700 0.48376700
vt 0.10734400 0.46890700
vt 0.10734400 0.46890700
vt 0.10734400 0.46890700
vt 0.10734400 0.46890700
vt 0.11927700 0.46363900
vt 0.11927700 0.46363900
vt 0.12644900 0.46369800
vt 0.12644900 0.46369800
vt 0.07670900 0.46422200
vt 0.07670900 0.46422200
vt 0.07670900 0.46422200
vt 0.17207900 0.45155700
vt 0.07397300 0.45078800
vt 0.17207900 0.45155700
vt 0.07397300 0.45078800
vt 0.37465200 0.44885800
vt 0.37465200 0.44885800
vt 0.37465200 0.44885800
vt 0.37465200 0.44885800
vt 0.39651600 0.43619800
vt 0.39651600 0.43619800
vt 0.39651600 0.43619800
vt 0.39651600 0.43619800
vt 0.33578400 0.56150100
vt 0.33578400 0.56150100
vt 0.33578400 0.56150100
vt 0.33578400 0.56150100
vt 0.34303300 0.51680200
vt 0.34303300 0.51680200
vt 0.34303300 0.51680200
vt 0.34303300 0.51680200
vt 0.33146100 0.52456400
vt 0.33146100 0.52456400
vt 0.33146100 0.52456400
vt 0.33146100 0.52456400
vt 0.32229800 0.53069100
vt 0.32229800 0.53069100
vt 0.32229800 0.53069100
vt 0.32229800 0.53069100
vt 0.31542100 0.53555300
vt 0.31542100 0.53555300
vt 0.31542100 0.53555300
vt 0.31542100 0.53555300
vt 0.30335600 0.54570200
vt 0.30335600 0.54570200
vt 0.30335600 0.54570200
vt 0.30335600 0.54570200
vt 0.27850200 0.53061100
vt 0.27850200 0.53061100
vt 0.27850200 0.53061100
vt 0.27850200 0.53061100
vt 0.29189900 0.55621400
vt 0.29189900 0.55621400
vt 0.29189900 0.55621400
vt 0.29189900 0.55621400
vt 0.52275300 0.25759800
vt 0.24949900 0.54348600
vt 0.52275300 0.25759800
vt 0.24949900 0.54348600
vt 0.25383400 0.54274200
vt 0.25383400 0.54274200
vt 0.25383400 0.54274200
vt 0.25383400 0.54274200
vt 0.25816900 0.52966800
vt 0.25816900 0.52966800
vt 0.25816900 0.52966800
vt 0.25816900 0.52966800
vt 0.26954600 0.57505000
vt 0.26954600 0.57505000
vt 0.26954600 0.57505000
vt 0.26954600 0.57505000
vt 0.27975200 0.56575200
vt 0.27975200 0.56575200
vt 0.27975200 0.56575200
vt 0.27975200 0.56575200
vt 0.26043900 0.54765900
vt 0.26043900 0.54765900
vt 0.26043900 0.54765900
vt 0.26749400 0.54083000
vt 0.26749400 0.54083000
vt 0.26749400 0.54083000
vt 0.26749400 0.54083000
vt 0.41212100 0.47151400
vt 0.41212100 0.47151400
vt 0.41212100 0.47151400
vt 0.41212100 0.47151400
vt 0.38665800 0.44139000
vt 0.38665800 0.44139000
vt 0.38665800 0.44139000
vt 0.38665800 0.44139000
vt 0.07339400 0.49767300
vt 0.07339400 0.49767300
vt 0.07339400 0.49767300
vt 0.07902900 0.47603400
vt 0.07902900 0.47603400
vt 0.07902900 0.47603400
vt 0.07902900 0.47603400
vt 0.08860200 0.46363400
vt 0.08860200 0.46363400
vt 0.08860200 0.46363400
vt 0.08860200 0.46363400
vt 0.09292900 0.44454500
vt 0.15313000 0.44495900
vt 0.09292900 0.44454500
vt 0.15313000 0.44495900
vt 0.09095100 0.48091900
vt 0.09095100 0.48091900
vt 0.09095100 0.48091900
vt 0.09095100 0.48091900
vt 0.09870800 0.46541900
vt 0.09870800 0.46541900
vt 0.09870800 0.46541900
vt 0.09870800 0.46541900
vt 0.10917800 0.45044000
vt 0.10917800 0.45044000
vt 0.13674100 0.45063200
vt 0.13674100 0.45063200
vt 0.49157700 0.36683100
vt 0.49157700 0.36683100
vt 0.49157700 0.36683100
vt 0.49157700 0.36683100
vt 0.48230400 0.38167400
vt 0.48230400 0.38167400
vt 0.48230400 0.38167400
vt 0.48230400 0.38167400
vt 0.47318400 0.39654700
vt 0.47318400 0.39654700
vt 0.47318400 0.39654700
vt 0.47318400 0.39654700
vt 0.46508400 0.41053000
vt 0.46508400 0.41053000
vt 0.46508400 0.41053000
vt 0.46508400 0.41053000
vt 0.43375500 0.38706300
vt 0.43375500 0.38706300
vt 0.43375500 0.38706300
vt 0.43375500 0.38706300
vt 0.45800500 0.42350100
vt 0.45800500 0.42350100
vt 0.45800500 0.42350100
vt 0.45800500 0.42350100
vt 0.45252600 0.43448300
vt 0.45252600 0.43448300
vt 0.45252600 0.43448300
vt 0.45252600 0.43448300
vt 0.20148000 0.49934200
vt 0.20148000 0.49934200
vt 0.44571200 0.44932500
vt 0.20148000 0.49934200
vt 0.44571200 0.44932500
vt 0.44571200 0.44932500
vt 0.42682500 0.39939000
vt 0.42682500 0.39939000
vt 0.42682500 0.39939000
vt 0.42682500 0.39939000
vt 0.42207700 0.40947100
vt 0.42207700 0.40947100
vt 0.42207700 0.40947100
vt 0.42207700 0.40947100
vt 0.18271700 0.47839600
vt 0.18271700 0.47839600
vt 0.18271700 0.47839600
vt 0.18271700 0.47839600
vt 0.18271700 0.47839600
vt 0.18506700 0.49545000
vt 0.18506700 0.49545000
vt 0.18506700 0.49545000
vt 0.14461800 0.48414500
vt 0.14461800 0.48414500
vt 0.14461800 0.48414500
vt 0.14461800 0.48414500
vt 0.15450100 0.48146700
vt 0.15450100 0.48146700
vt 0.15450100 0.48146700
vt 0.15450100 0.48146700
vt 0.13830200 0.46915800
vt 0.13830200 0.46915800
vt 0.13830200 0.46915800
vt 0.13830200 0.46915800
vt 0.14700400 0.46580600
vt 0.14700400 0.46580600
vt 0.14700400 0.46580600
vt 0.14700400 0.46580600
vt 0.16907200 0.46499200
vt 0.16907200 0.46499200
vt 0.16907200 0.46499200
vt 0.54475700 0.34326000
vt 0.54475700 0.34326000
vt 0.54475700 0.34326000
vt 0.54475700 0.34326000
vt 0.51786300 0.32399300
vt 0.51786300 0.32399300
vt 0.51786300 0.32399300
vt 0.51786300 0.32399300
vt 0.51329900 0.33109700
vt 0.51329900 0.33109700
vt 0.51329900 0.33109700
vt 0.51329900 0.33109700
vt 0.50756700 0.34054500
vt 0.50756700 0.34054500
vt 0.50756700 0.34054500
vt 0.50756700 0.34054500
vt 0.50030000 0.35247200
vt 0.50030000 0.35247200
vt 0.50030000 0.35247200
vt 0.50030000 0.35247200
vt 0.52749000 0.31145000
vt 0.52749000 0.31145000
vt 0.52749000 0.31145000
vt 0.52749000 0.31145000
vt 0.51123600 0.28725600
vt 0.51123600 0.28725600
vt 0.51123600 0.28725600
vt 0.51123600 0.28725600
vt 0.53750600 0.29948900
vt 0.53750600 0.29948900
vt 0.53750600 0.29948900
vt 0.53750600 0.29948900
vt 0.52221700 0.26198100
vt 0.52221700 0.26198100
vt 0.52221700 0.26198100
vt 0.52221700 0.26198100
vt 0.50934400 0.26695400
vt 0.50934400 0.26695400
vt 0.50934400 0.26695400
vt 0.50934400 0.26695400
vt 0.55536400 0.27619200
vt 0.55536400 0.27619200
vt 0.55536400 0.27619200
vt 0.55536400 0.27619200
vt 0.54651100 0.28686800
vt 0.54651100 0.28686800
vt 0.54651100 0.28686800
vt 0.54651100 0.28686800
vt 0.52746200 0.26836600
vt 0.52746200 0.26836600
vt 0.52746200 0.26836600
vt 0.52095600 0.27575700
vt 0.52095600 0.27575700
vt 0.52095600 0.27575700
vt 0.52095600 0.27575700
vt 0.52095600 0.27575700
vt 0.17175800 0.49856800
vt 0.17175800 0.49856800
vt 0.17175800 0.49856800
vt 0.16652500 0.47679200
vt 0.16652500 0.47679200
vt 0.16652500 0.47679200
vt 0.16652500 0.47679200
vt 0.15715900 0.46418800
vt 0.15715900 0.46418800
vt 0.15715900 0.46418800
vt 0.15715900 0.46418800
vt 0.26785600 0.52738600
vt 0.50753600 0.27567600
vt 0.50753600 0.27567600
vt 0.50753600 0.27567600
vt 0.36177100 0.45747200
vt 0.36176800 0.45747400
vt 0.36181400 0.45743300
vt 0.36181400 0.45743300
vt 0.35066500 0.46873600
vt 0.34978400 0.46955700
vt 0.34978400 0.46955700
vt 0.35692100 0.46295100
vt 0.35969300 0.46003700
vt 0.33908800 0.47936600
vt 0.33760100 0.48068600
vt 0.33760100 0.48068600
vt 0.37147900 0.44708200
vt 0.36284600 0.45650000
vt 0.37232400 0.44619700
vt 0.37232400 0.44619700
vt 0.38597300 0.43392600
vt 0.38629100 0.43360500
vt 0.38864200 0.43067100
vt 0.38538000 0.43438000
vt 0.38229900 0.43647700
vt 0.38229900 0.43647700
vt 0.38983000 0.42914600
vt 0.38983000 0.42914600
vt 0.40056200 0.41883500
vt 0.39293000 0.42602800
vt 0.40240600 0.41623400
vt 0.40240600 0.41623400
vt 0.33520200 0.48303200
vt 0.32594100 0.49056300
vt 0.32594100 0.49056300
vt 0.30608200 0.51026100
vt 0.30565500 0.51051200
vt 0.30962000 0.50721200
vt 0.30962000 0.50721200
vt 0.30728500 0.50930900
vt 0.30494600 0.51092700
vt 0.30378400 0.51152700
vt 0.30378400 0.51152700
vt 0.31885900 0.49825400
vt 0.31679800 0.50011800
vt 0.31679800 0.50011800
vt 0.32090100 0.49642300
vt 0.31151600 0.50533600
vt 0.29980700 0.51356800
vt 0.29026900 0.51778000
vt 0.28992500 0.51792600
vt 0.28992500 0.51792600
vt 0.28868700 0.51848300
vt 0.28868700 0.51848300
vt 0.25307600 0.53015400
vt 0.50958700 0.26183800
vt 0.25697400 0.52969400
vt 0.25697400 0.52969400
vt 0.25420000 0.53013600
vt 0.26912800 0.52610900
vt 0.26739700 0.52668100
vt 0.44175800 0.37385400
vt 0.44175800 0.37385400
vt 0.44179500 0.37380900
vt 0.44179700 0.37380600
vt 0.45256400 0.36221300
vt 0.44705700 0.36872000
vt 0.44426700 0.37161900
vt 0.45334500 0.36129600
vt 0.45334500 0.36129600
vt 0.46268200 0.35017100
vt 0.46393700 0.34862600
vt 0.46393700 0.34862600
vt 0.43184200 0.38397000
vt 0.43099500 0.38485300
vt 0.43099400 0.38485300
vt 0.44087200 0.37492600
vt 0.41620800 0.40184600
vt 0.41473800 0.40310100
vt 0.41473800 0.40310100
vt 0.41934000 0.39903500
vt 0.41903400 0.39936700
vt 0.41976700 0.39842200
vt 0.42172600 0.39525100
vt 0.42172600 0.39525100
vt 0.41176300 0.40633600
vt 0.40492200 0.41427700
vt 0.46617800 0.34612300
vt 0.47330100 0.33652900
vt 0.47330100 0.33652900
vt 0.49274300 0.31461800
vt 0.49329200 0.31342900
vt 0.49329200 0.31342900
vt 0.49236000 0.31534600
vt 0.49212800 0.31578500
vt 0.48923500 0.31946100
vt 0.48923500 0.31946100
vt 0.49122900 0.31703100
vt 0.48068200 0.32910400
vt 0.47894000 0.33122800
vt 0.48245600 0.32695900
vt 0.48245600 0.32696000
vt 0.48744200 0.32144200
vt 0.49893800 0.29962100
vt 0.49906700 0.29927000
vt 0.49906700 0.29927000
vt 0.49515500 0.30935600
vt 0.50344600 0.28831300
vt 0.50467400 0.28389700
vt 0.50467400 0.28389700
vt 0.49956800 0.29800500
vt 0.49956800 0.29800500
vt 0.50931300 0.26575800
vt 0.50931300 0.26575800
vt 0.50962300 0.26296300
vt 0.50714200 0.27614400
vt 0.50714200 0.27614400
vt 0.27919600 0.52279300
vt 0.27484800 0.52422000
vt 0.27484800 0.52422000
vt 0.26132500 0.52867000
vt 0.25826500 0.52948000
vt 0.25826500 0.52948000
vt 0.50733600 0.27553100
vt 0.50733600 0.27553100
vt 0.50797800 0.27281300
vt 0.50869400 0.26984700
vt 0.50917100 0.26705200
vt 0.50917100 0.26705200
vt 0.25818000 0.52949900
vt 0.33247000 0.56521400
vt 0.00000000 0.00000000
vt 0.00000000 0.00000000
vt 0.00000000 0.00000000
vt 0.31582200 0.57239400
vt 0.31582200 0.57239400
vt 0.00000000 0.00000000
vt 0.32783200 0.56776800
vt 0.32783200 0.56776800
vt 0.00000000 0.00000000
vt 0.32776000 0.56779500
vt 0.32853700 0.56737900
vt 0.32853700 0.56737900
vt 0.00000000 0.00000000
vt 0.00000000 0.00000000
vt 0.31377500 0.57328800
vt 0.00000000 0.00000000
vt 0.31407900 0.57316300
vt 0.00000000 0.00000000
vt 0.46668500 0.44034500
vt 0.00000000 0.00000000
vt 0.00000000 0.00000000
vt 0.46722000 0.43954300
vt 0.00000000 0.00000000
vt 0.00000000 0.00000000
vt 0.47530000 0.42998200
vt 0.00000000 0.00000000
vt 0.00000000 0.00000000
vt 0.47132200 0.43401900
vt 0.47132200 0.43401900
vt 0.12905400 0.47361900
vt 0.00000000 0.00000000
vt 0.00000000 0.00000000
vt 0.11651300 0.47351600
vt 0.12043800 0.46811200
vt 0.12521600 0.46815100
vt 0.00000000 0.00000000
vt 0.00000000 0.00000000
vt 0.11517300 0.47475600
vt 0.00000000 0.00000000
vt 0.00000000 0.00000000
vt 0.00000000 0.00000000
vt 0.13037300 0.47488100
vt 0.14397100 0.48577700
vt 0.00000000 0.00000000
vt 0.00000000 0.00000000
vt 0.14495900 0.48645500
vt 0.00000000 0.00000000
vt 0.14495900 0.48645500
vt 0.15370600 0.49281100
vt 0.00000000 0.00000000
vt 0.00000000 0.00000000
vt 0.00000000 0.00000000
vt 0.10139400 0.48540800
vt 0.00000000 0.00000000
vt 0.10236100 0.48457300
vt 0.00000000 0.00000000
vt 0.10236100 0.48457300
vt 0.00000000 0.00000000
vt 0.14302000 0.48492400
vt 0.14302000 0.48492400
vt 0.00000000 0.00000000
vt 0.11114300 0.47717900
vt 0.11114300 0.47717900
vt 0.00000000 0.00000000
vt 0.13436300 0.47737200
vt 0.13436300 0.47737200
vt 0.10039400 0.48606900
vt 0.00000000 0.00000000
vt 0.10039400 0.48606900
vt 0.00000000 0.00000000
vt 0.00000000 0.00000000
vt 0.09153700 0.49225900
vt 0.15746100 0.49462600
vt 0.15746100 0.49462600
vt 0.00000000 0.00000000
vt 0.16790400 0.50002800
vt 0.00000000 0.00000000
vt 0.16933100 0.50080300
vt 0.00000000 0.00000000
vt 0.00000000 0.00000000
vt 0.00000000 0.00000000
vt 0.05822400 0.50799700
vt 0.00000000 0.00000000
vt 0.05877500 0.50773500
vt 0.00000000 0.00000000
vt 0.05877500 0.50773500
vt 0.00000000 0.00000000
vt 0.18674300 0.50918600
vt 0.00000000 0.00000000
vt 0.18619700 0.50891300
vt 0.18619700 0.50891300
vt 0.00000000 0.00000000
vt 0.17572800 0.50377500
vt 0.00000000 0.00000000
vt 0.00000000 0.00000000
vt 0.06933100 0.50279900
vt 0.07305600 0.50113000
vt 0.07305600 0.50113000
vt 0.00000000 0.00000000
vt 0.00000000 0.00000000
vt 0.07577800 0.49995000
vt 0.00000000 0.00000000
vt 0.17203200 0.50203400
vt 0.00000000 0.00000000
vt 0.17203200 0.50203400
vt 0.08775200 0.49400300
vt 0.00000000 0.00000000
vt 0.08775200 0.49400300
vt 0.07721900 0.49920300
vt 0.00000000 0.00000000
vt 0.00000000 0.00000000
vt 0.46347500 0.44400700
vt 0.46347500 0.44400700
vt 0.00000000 0.00000000
vt 0.00000000 0.00000000
vt 0.46096300 0.44798200
vt 0.00000000 0.00000000
vt 0.00000000 0.00000000
vt 0.20061800 0.51407700
vt 0.20155300 0.51433800
vt 0.00000000 0.00000000
vt 0.45378000 0.45572600
vt 0.46053300 0.44847300
vt 0.00000000 0.00000000
vt 0.00000000 0.00000000
vt 0.04427000 0.51262300
vt 0.00000000 0.00000000
vt 0.05197600 0.50991900
vt 0.05197600 0.50991900
vt 0.00000000 0.00000000
vt 0.19295600 0.51122700
vt 0.00000000 0.00000000
vt 0.19295600 0.51122700
vt 0.43674400 0.47344300
vt 0.00000000 0.00000000
vt 0.00000000 0.00000000
vt 0.00000000 0.00000000
vt 0.43721800 0.47299200
vt 0.44419300 0.46590500
vt 0.04333000 0.51286600
vt 0.00000000 0.00000000
vt 0.00000000 0.00000000
vt 0.00000000 0.00000000
vt 0.42933900 0.47950200
vt 0.43286900 0.47613300
vt 0.00000000 0.00000000
vt 0.43286900 0.47613300
vt 0.42855900 0.48007100
vt 0.00000000 0.00000000
vt 0.42320200 0.48441100
vt 0.42320200 0.48441100
vt 0.00000000 0.00000000
vt 0.41933200 0.48856000
vt 0.00000000 0.00000000
vt 0.00000000 0.00000000
vt 0.48230400 0.42184000
vt 0.00000000 0.00000000
vt 0.00000000 0.00000000
vt 0.48148700 0.42272400
vt 0.48148700 0.42272400
vt 0.00000000 0.00000000
vt 0.47637000 0.42866400
vt 0.00000000 0.00000000
vt 0.00000000 0.00000000
vt 0.00000000 0.00000000
vt 0.41148400 0.49590600
vt 0.00000000 0.00000000
vt 0.41233300 0.49505200
vt 0.41233300 0.49505200
vt 0.00000000 0.00000000
vt 0.41805900 0.48968600
vt 0.49150300 0.40959600
vt 0.00000000 0.00000000
vt 0.49150300 0.40959600
vt 0.49381500 0.40750900
vt 0.00000000 0.00000000
vt 0.00000000 0.00000000
vt 0.00000000 0.00000000
vt 0.48742700 0.41508700
vt 0.00000000 0.00000000
vt 0.49606900 0.40511200
vt 0.50361500 0.39612700
vt 0.00000000 0.00000000
vt 0.50361500 0.39612700
vt 0.00000000 0.00000000
vt 0.50697000 0.39225500
vt 0.51408300 0.38372100
vt 0.00000000 0.00000000
vt 0.00000000 0.00000000
vt 0.00000000 0.00000000
vt 0.51497400 0.38255000
vt 0.00000000 0.00000000
vt 0.51550400 0.38169600
vt 0.00000000 0.00000000
vt 0.51550400 0.38169600
vt 0.52347400 0.36951100
vt 0.00000000 0.00000000
vt 0.51548500 0.38173200
vt 0.00000000 0.00000000
vt 0.00000000 0.00000000
vt 0.00000000 0.00000000
vt 0.53356900 0.35922300
vt 0.00000000 0.00000000
vt 0.00000000 0.00000000
vt 0.52765600 0.36451100
vt 0.52548400 0.36640700
vt 0.52548400 0.36640700
vt 0.00000000 0.00000000
vt 0.53742400 0.35531900
vt 0.00000000 0.00000000
vt 0.00000000 0.00000000
vt 0.54023800 0.35171400
vt 0.00000000 0.00000000
vt 0.00000000 0.00000000
vt 0.53844800 0.35397400
vt 0.53844800 0.35397400
vt 0.00000000 0.00000000
vt 0.00000000 0.00000000
vt 0.53885600 0.35346000
vt 0.54833800 0.33977400
vt 0.00000000 0.00000000
vt 0.00000000 0.00000000
vt 0.54580000 0.34368900
vt 0.54580000 0.34368900
vt 0.00000000 0.00000000
vt 0.54555600 0.34404700
vt 0.00000000 0.00000000
vt 0.54321100 0.34742000
vt 0.00000000 0.00000000
vt 0.54321100 0.34742000
vt 0.55069700 0.33500800
vt 0.55069700 0.33500800
vt 0.00000000 0.00000000
vt 0.55072100 0.33493500
vt 0.00000000 0.00000000
vt 0.00000000 0.00000000
vt 0.55033800 0.33573200
vt 0.55033800 0.33573200
vt 0.55481300 0.32275400
vt 0.55481300 0.32275400
vt 0.00000000 0.00000000
vt 0.00000000 0.00000000
vt 0.00000000 0.00000000
vt 0.55561900 0.32066000
vt 0.55550600 0.32097100
vt 0.00000000 0.00000000
vt 0.39963800 0.50560800
vt 0.39963800 0.50560800
vt 0.00000000 0.00000000
vt 0.00000000 0.00000000
vt 0.39765100 0.50800500
vt 0.00000000 0.00000000
vt 0.00000000 0.00000000
vt 0.40495300 0.50130700
vt 0.00000000 0.00000000
vt 0.37476900 0.52922500
vt 0.00000000 0.00000000
vt 0.37363900 0.53016200
vt 0.00000000 0.00000000
vt 0.00000000 0.00000000
vt 0.00000000 0.00000000
vt 0.00000000 0.00000000
vt 0.34746800 0.55368300
vt 0.34617300 0.55476000
vt 0.00000000 0.00000000
vt 0.34617300 0.55476000
vt 0.00000000 0.00000000
vt 0.34400200 0.55664000
vt 0.00000000 0.00000000
vt 0.00000000 0.00000000
vt 0.34567800 0.55518800
vt 0.38298000 0.52177400
vt 0.00000000 0.00000000
vt 0.00000000 0.00000000
vt 0.39535300 0.51035600
vt 0.00000000 0.00000000
vt 0.38670000 0.51826500
vt 0.38670000 0.51826500
vt 0.37284400 0.53070600
vt 0.00000000 0.00000000
vt 0.00000000 0.00000000
vt 0.00000000 0.00000000
vt 0.00000000 0.00000000
vt 0.35119000 0.54967800
vt 0.37280900 0.53072700
vt 0.00000000 0.00000000
vt 0.37280900 0.53072700
vt 0.36100400 0.53918300
vt 0.00000000 0.00000000
vt 0.35799600 0.54131800
vt 0.35799600 0.54131800
vt 0.00000000 0.00000000
vt 0.35620100 0.54356200
vt 0.00000000 0.00000000
vt 0.00000000 0.00000000
vt 0.33985800 0.55978400
vt 0.33985800 0.55978400
vt 0.33625500 0.56252000
vt 0.33625500 0.56252000
vt 0.00000000 0.00000000
vt 0.00000000 0.00000000
vt 0.33660000 0.56226300
vt 0.56033700 0.26709400
vt 0.00000000 0.00000000
vt 0.00000000 0.00000000
vt 0.55897300 0.26173900
vt 0.00000000 0.00000000
vt 0.55890600 0.26227000
vt 0.55890600 0.26227000
vt 0.00000000 0.00000000
vt 0.00000000 0.00000000
vt 0.55884700 0.25685800
vt 0.25048700 0.57941500
vt 0.00000000 0.00000000
vt 0.56041000 0.26788900
vt 0.56041000 0.26788900
vt 0.00000000 0.00000000
vt 0.56148900 0.27601200
vt 0.00000000 0.00000000
vt 0.00000000 0.00000000
vt 0.00000000 0.00000000
vt 0.00000000 0.00000000
vt 0.56100400 0.29267800
vt 0.56116200 0.28421500
vt 0.00000000 0.00000000
vt 0.00000000 0.00000000
vt 0.56147500 0.27744300
vt 0.56136600 0.27928000
vt 0.00000000 0.00000000
vt 0.56136600 0.27928000
vt 0.55958800 0.30184400
vt 0.00000000 0.00000000
vt 0.56063800 0.29503000
vt 0.56063800 0.29503000
vt 0.00000000 0.00000000
vt 0.55884900 0.30726800
vt 0.00000000 0.00000000
vt 0.00000000 0.00000000
vt 0.55830800 0.30965600
vt 0.55830800 0.30965600
vt 0.00000000 0.00000000
vt 0.30294800 0.57644900
vt 0.30294800 0.57644900
vt 0.00000000 0.00000000
vt 0.00000000 0.00000000
vt 0.30059800 0.57709400
vt 0.00000000 0.00000000
vt 0.27778500 0.58044100
vt 0.00000000 0.00000000
vt 0.28618800 0.57989600
vt 0.00000000 0.00000000
vt 0.00000000 0.00000000
vt 0.27107000 0.58106600
vt 0.00000000 0.00000000
vt 0.00000000 0.00000000
vt 0.27288900 0.58087100
vt 0.27288900 0.58087100
vt 0.00000000 0.00000000
vt 0.26964900 0.58114600
vt 0.00000000 0.00000000
vt 0.00000000 0.00000000
vt 0.25534500 0.57931100
vt 0.25587000 0.57922000
vt 0.00000000 0.00000000
vt 0.25587000 0.57922000
vt 0.00000000 0.00000000
vt 0.26073600 0.58041900
vt 0.00000000 0.00000000
vt 0.00000000 0.00000000
vt 0.29523800 0.57807400
vt 0.00000000 0.00000000
vt 0.28850900 0.57942500
vt 0.28850900 0.57942500
vt 0.00000000 0.00000000
vt 0.26153000 0.58045500
vt 0.26153000 0.58045500
f 46/46 1/1 545/545
f 46/46 545/545 547/547
f 46/46 547/547 532/532
f 46/46 532/532 538/538
f 46/46 538/538 535/535
f 46/46 535/535 542/542
f 46/46 542/542 530/530
f 47/47 52/52 5/5
f 555/555 78/78 550/550
f 555/555 550/550 552/552
f 555/555 552/552 556/556
f 560/560 570/570 568/568
f 560/560 568/568 561/561
f 560/560 561/561 565/565
f 580/580 87/87 574/574
f 574/574 576/576 580/580
f 590/590 566/566 569/569
f 590/590 569/569 593/593
f 590/590 593/593 587/587
f 590/590 587/587 573/573
f 590/590 573/573 84/84
f 590/590 84/84 581/581
f 590/590 581/581 585/585
f 597/597 583/583 85/85
f 85/85 600/600 597/597
f 606/606 609/609 86/86
f 606/606 86/86 579/579
f 606/606 579/579 604/604
f 631/631 89/89 608/608
f 631/631 608/608 633/633
f 631/631 633/633 623/623
f 631/631 623/623 621/621
f 631/631 621/621 616/616
f 631/631 616/616 612/612
f 631/631 612/612 614/614
f 631/631 614/614 624/624
f 631/631 624/624 628/628
f 88/88 629/629 639/639
f 88/88 639/639 636/636
f 88/88 636/636 599/599
f 549/549 81/81 644/644
f 644/644 640/640 549/549
f 80/80 72/72 647/647
f 80/80 647/647 650/650
f 80/80 650/650 653/653
f 80/80 653/653 643/643
f 646/646 77/77 654/654
f 646/646 654/654 659/659
f 646/646 659/659 610/610
f 646/646 610/610 618/618
f 646/646 618/618 661/661
f 74/74 67/67 665/665
f 74/74 665/665 666/666
f 74/74 666/666 670/670
f 74/74 670/670 656/656
f 71/71 671/671 675/675
f 675/675 664/664 71/71
f 69/69 684/684 681/681
f 69/69 681/681 678/678
f 69/69 678/678 672/672
f 686/686 61/61 83/83
f 686/686 83/83 553/553
f 686/686 553/553 692/692
f 686/686 692/692 690/690
f 58/58 104/104 60/60
f 49/49 114/114 54/54
f 79/79 62/62 106/106
f 73/73 82/82 108/108
f 55/55 115/115 109/109
f 111/111 116/116 107/107
f 105/105 117/117 76/76
f 66/66 75/75 120/120
f 51/51 44/44 110/110
f 43/43 38/38 113/113
f 112/112 36/36 121/121
f 37/37 28/28 119/119
f 68/68 118/118 29/29
f 683/683 70/70 31/31
f 683/683 31/31 693/693
f 683/683 693/693 696/696
f 683/683 696/696 699/699
f 706/706 64/64 687/687
f 706/706 687/687 707/707
f 706/706 707/707 702/702
f 717/717 65/65 705/705
f 717/717 705/705 709/709
f 717/717 709/709 712/712
f 717/717 712/712 714/714
f 721/721 56/56 63/63
f 63/63 718/718 721/721
f 728/728 723/723 726/726
f 728/728 726/726 737/737
f 728/728 737/737 733/733
f 728/728 733/733 730/730
f 57/57 719/719 729/729
f 57/57 729/729 732/732
f 57/57 732/732 739/739
f 59/59 740/740 746/746
f 59/59 746/746 747/747
f 59/59 747/747 743/743
f 59/59 743/743 53/53
f 48/48 742/742 758/758
f 48/48 758/758 756/756
f 48/48 756/756 754/754
f 48/48 754/754 751/751
f 2/2 50/50 750/750
f 2/2 750/750 765/765
f 2/2 765/765 762/762
f 2/2 762/762 764/764
f 2/2 764/764 770/770
f 2/2 770/770 775/775
f 2/2 775/775 771/771
f 30/30 781/781 778/778
f 30/30 778/778 782/782
f 30/30 782/782 694/694
f 26/26 41/41 789/789
f 789/789 784/784 26/26
f 790/790 39/39 42/42
f 790/790 42/42 798/798
f 790/790 798/798 799/799
f 790/790 799/799 794/794
f 803/803 779/779 27/27
f 803/803 27/27 786/786
f 803/803 786/786 802/802
f 803/803 802/802 805/805
f 788/788 40/40 791/791
f 788/788 791/791 811/811
f 788/788 811/811 810/810
f 818/818 815/815 809/809
f 818/818 809/809 812/812
f 818/818 812/812 823/823
f 818/818 823/823 821/821
f 796/796 45/45 531/531
f 796/796 531/531 829/829
f 796/796 829/829 830/830
f 796/796 830/830 824/824
f 836/836 840/840 840/840
f 836/836 840/840 12/12
f 836/836 12/12 833/833
f 836/836 833/833 839/839
f 834/834 13/13 849/849
f 849/849 846/846 834/834
f 17/17 6/6 850/850
f 17/17 850/850 854/854
f 17/17 854/854 858/858
f 17/17 858/858 855/855
f 17/17 855/855 848/848
f 7/7 866/866 861/861
f 7/7 861/861 864/864
f 7/7 864/864 851/851
f 870/870 867/867 11/11
f 870/870 11/11 3/3
f 870/870 3/3 772/772
f 873/873 543/543 4/4
f 873/873 4/4 8/8
f 873/873 8/8 874/874
f 9/9 16/16 887/887
f 9/9 887/887 883/883
f 9/9 883/883 884/884
f 9/9 884/884 878/878
f 9/9 878/878 881/881
f 15/15 843/843 890/890
f 15/15 890/890 893/893
f 15/15 893/893 897/897
f 10/10 880/880 900/900
f 10/10 900/900 898/898
f 10/10 898/898 876/876
f 14/14 895/895 903/903
f 903/903 889/889 14/14
f 816/816 33/33 25/25
f 816/816 25/25 806/806
f 816/816 806/806 801/801
f 816/816 801/801 785/785
f 816/816 785/785 787/787
f 816/816 787/787 808/808
f 804/804 807/807 23/23
f 804/804 23/23 18/18
f 804/804 18/18 777/777
f 804/804 777/777 780/780
f 93/93 697/697 695/695
f 93/93 695/695 783/783
f 93/93 783/783 776/776
f 93/93 776/776 19/19
f 406/406 162/162 90/90
f 406/406 90/90 20/20
f 406/406 20/20 403/403
f 406/406 403/403 403/403
f 411/411 404/404 21/21
f 411/411 21/21 24/24
f 411/411 24/24 409/409
f 411/411 409/409 407/407
f 411/411 407/407 410/410
f 408/408 22/22 34/34
f 408/408 34/34 414/414
f 408/408 414/414 412/412
f 161/161 405/405 416/416
f 161/161 416/416 415/415
f 161/161 415/415 417/417
f 679/679 229/229 94/94
f 679/679 94/94 676/676
f 679/679 676/676 673/673
f 679/679 673/673 677/677
f 674/674 95/95 98/98
f 674/674 98/98 668/668
f 674/674 668/668 667/667
f 674/674 667/667 663/663
f 97/97 228/228 235/235
f 235/235 167/167 97/97
f 99/99 96/96 168/168
f 168/168 125/125 99/99
f 100/100 658/658 655/655
f 655/655 669/669 100/100
f 129/129 102/102 122/122
f 122/122 293/293 129/129
f 127/127 132/132 138/138
f 138/138 103/103 127/127
f 611/611 657/657 101/101
f 611/611 101/101 134/134
f 611/611 134/134 139/139
f 611/611 139/139 613/613
f 142/142 584/584 582/582
f 582/582 598/598 142/142
f 601/601 637/637 252/252
f 601/601 252/252 143/143
f 601/601 143/143 596/596
f 148/148 144/144 254/254
f 254/254 256/256 148/148
f 145/145 149/149 592/592
f 592/592 586/586 145/145
f 257/257 260/260 150/150
f 150/150 147/147 257/257
f 130/130 158/158 156/156
f 156/156 135/135 130/130
f 425/425 166/166 232/232
f 425/425 232/232 423/423
f 425/425 423/423 422/422
f 425/425 422/422 419/419
f 425/425 419/419 420/420
f 425/425 420/420 421/421
f 430/430 126/126 165/165
f 430/430 165/165 426/426
f 430/430 426/426 428/428
f 430/430 428/428 427/427
f 172/172 828/828 529/529
f 529/529 541/541 172/172
f 827/827 171/171 826/826
f 826/826 831/831 827/827
f 186/186 182/182 170/170
f 186/186 170/170 540/540
f 186/186 540/540 537/537
f 169/169 184/184 178/178
f 169/169 178/178 795/795
f 169/169 795/795 800/800
f 169/169 800/800 797/797
f 169/169 797/797 825/825
f 792/792 793/793 180/180
f 792/792 180/180 176/176
f 792/792 176/176 820/820
f 792/792 820/820 822/822
f 792/792 822/822 813/813
f 819/819 173/173 32/32
f 819/819 32/32 814/814
f 819/819 814/814 817/817
f 431/431 413/413 35/35
f 431/431 35/35 175/175
f 431/431 175/175 432/432
f 439/439 435/435 434/434
f 439/439 434/434 438/438
f 439/439 438/438 437/437
f 439/439 437/437 181/181
f 439/439 181/181 185/185
f 439/439 185/185 441/441
f 433/433 174/174 177/177
f 433/433 177/177 444/444
f 433/433 444/444 442/442
f 433/433 442/442 445/445
f 443/443 179/179 183/183
f 443/443 183/183 436/436
f 443/443 436/436 446/446
f 447/447 440/440 187/187
f 447/447 187/187 191/191
f 447/447 191/191 450/450
f 447/447 450/450 448/448
f 539/539 533/533 189/189
f 539/539 189/189 188/188
f 539/539 188/188 536/536
f 449/449 192/192 197/197
f 449/449 197/197 196/196
f 449/449 196/196 452/452
f 544/544 871/871 199/199
f 544/544 199/199 190/190
f 544/544 190/190 534/534
f 544/544 534/534 546/546
f 842/842 204/204 205/205
f 842/842 205/205 894/894
f 842/842 894/894 891/891
f 842/842 891/891 842/842
f 202/202 453/453 453/453
f 202/202 453/453 457/457
f 202/202 457/457 455/455
f 202/202 455/455 212/212
f 202/202 212/212 207/207
f 877/877 885/885 216/216
f 877/877 216/216 219/219
f 877/877 219/219 901/901
f 877/877 901/901 879/879
f 902/902 218/218 200/200
f 902/902 200/200 872/872
f 902/902 872/872 875/875
f 902/902 875/875 899/899
f 217/217 213/213 223/223
f 223/223 224/224 217/217
f 193/193 198/198 220/220
f 220/220 225/225 193/193
f 904/904 215/215 886/886
f 904/904 886/886 882/882
f 904/904 882/882 888/888
f 892/892 208/208 222/222
f 892/892 222/222 214/214
f 892/892 214/214 905/905
f 892/892 905/905 896/896
f 226/226 221/221 206/206
f 206/206 209/209 226/226
f 458/458 399/399 459/459
f 700/700 698/698 91/91
f 700/700 91/91 231/231
f 700/700 231/231 680/680
f 700/700 680/680 682/682
f 234/234 230/230 92/92
f 92/92 163/163 234/234
f 424/424 233/233 164/164
f 164/164 418/418 424/424
f 140/140 238/238 627/627
f 140/140 627/627 625/625
f 140/140 625/625 615/615
f 239/239 236/236 141/141
f 141/141 137/137 239/239
f 246/246 240/240 136/136
f 136/136 154/154 246/246
f 160/160 247/247 245/245
f 245/245 155/155 160/160
f 237/237 638/638 630/630
f 630/630 626/626 237/237
f 237/237 242/242 253/253
f 237/237 253/253 635/635
f 237/237 635/635 638/638
f 255/255 251/251 241/241
f 241/241 244/244 255/255
f 243/243 249/249 259/259
f 259/259 258/258 243/243
f 146/146 151/151 563/563
f 146/146 563/563 562/562
f 146/146 562/562 567/567
f 146/146 567/567 591/591
f 727/727 720/720 716/716
f 727/727 716/716 715/715
f 727/727 715/715 713/713
f 727/727 713/713 267/267
f 727/727 267/267 264/264
f 727/727 264/264 722/722
f 704/704 703/703 272/272
f 704/704 272/272 268/268
f 704/704 268/268 711/711
f 704/704 711/711 710/710
f 689/689 276/276 274/274
f 689/689 274/274 701/701
f 689/689 701/701 708/708
f 689/689 708/708 685/685
f 279/279 461/461 462/462
f 279/279 462/462 462/462
f 279/279 462/462 273/273
f 279/279 273/273 275/275
f 464/464 468/468 270/270
f 464/464 270/270 271/271
f 464/464 271/271 463/463
f 464/464 463/463 466/466
f 464/464 466/466 465/465
f 469/469 471/471 265/265
f 469/469 265/265 269/269
f 469/469 269/269 467/467
f 475/475 460/460 281/281
f 475/475 281/281 474/474
f 475/475 474/474 472/472
f 641/641 288/288 286/286
f 641/641 286/286 558/558
f 641/641 558/558 551/551
f 641/641 551/551 548/548
f 651/651 295/295 287/287
f 651/651 287/287 642/642
f 651/651 642/642 645/645
f 651/651 645/645 652/652
f 289/289 304/304 297/297
f 297/297 285/285 289/289
f 296/296 123/123 303/303
f 303/303 290/290 296/296
f 660/660 294/294 649/649
f 649/649 648/648 660/660
f 128/128 291/291 306/306
f 306/306 133/133 128/128
f 311/311 308/308 292/292
f 311/311 292/292 662/662
f 311/311 662/662 617/617
f 311/311 617/617 619/619
f 588/588 313/313 575/575
f 575/575 572/572 588/588
f 577/577 314/314 319/319
f 577/577 319/319 603/603
f 577/577 603/603 578/578
f 322/322 328/328 317/317
f 317/317 315/315 322/322
f 324/324 316/316 589/589
f 589/589 595/595 324/324
f 325/325 323/323 153/153
f 153/153 261/261 325/325
f 131/131 307/307 330/330
f 330/330 157/157 131/131
f 481/481 483/483 299/299
f 481/481 299/299 302/302
f 481/481 302/302 477/477
f 481/481 477/477 476/476
f 481/481 476/476 480/480
f 481/481 480/480 479/479
f 485/485 484/484 478/478
f 485/485 478/478 301/301
f 485/485 301/301 124/124
f 485/485 124/124 429/429
f 332/332 766/766 749/749
f 749/749 752/752 332/332
f 333/333 753/753 755/755
f 755/755 757/757 333/333
f 760/760 767/767 334/334
f 760/760 334/334 340/340
f 760/760 340/340 336/336
f 344/344 341/341 335/335
f 344/344 335/335 759/759
f 344/344 759/759 741/741
f 344/344 741/741 748/748
f 344/344 748/748 745/745
f 731/731 734/734 735/735
f 731/731 735/735 350/350
f 731/731 350/350 347/347
f 731/731 347/347 744/744
f 731/731 744/744 738/738
f 724/724 263/263 351/351
f 724/724 351/351 736/736
f 724/724 736/736 725/725
f 486/486 487/487 349/349
f 486/486 349/349 266/266
f 486/486 266/266 470/470
f 493/493 492/492 489/489
f 493/493 489/489 490/490
f 493/493 490/490 339/339
f 493/493 339/339 343/343
f 493/493 343/343 495/495
f 493/493 495/495 496/496
f 498/498 497/497 500/500
f 498/498 500/500 345/345
f 498/498 345/345 348/348
f 498/498 348/348 488/488
f 499/499 501/501 494/494
f 499/499 494/494 342/342
f 499/499 342/342 346/346
f 502/502 503/503 355/355
f 502/502 355/355 338/338
f 502/502 338/338 491/491
f 502/502 491/491 505/505
f 763/763 761/761 337/337
f 763/763 337/337 354/354
f 763/763 354/354 768/768
f 507/507 356/356 510/510
f 510/510 506/506 507/507
f 509/509 357/357 361/361
f 509/509 361/361 353/353
f 509/509 353/353 504/504
f 774/774 769/769 352/352
f 774/774 352/352 360/360
f 774/774 360/360 869/869
f 774/774 869/869 773/773
f 835/835 837/837 364/364
f 835/835 364/364 203/203
f 835/835 203/203 841/841
f 513/513 454/454 201/201
f 513/513 201/201 367/367
f 513/513 367/367 368/368
f 513/513 368/368 511/511
f 863/863 379/379 375/375
f 863/863 375/375 859/859
f 863/863 859/859 853/853
f 863/863 853/853 852/852
f 865/865 868/868 363/363
f 865/865 363/363 377/377
f 865/865 377/377 862/862
f 865/865 862/862 860/860
f 376/376 384/384 380/380
f 380/380 374/374 376/376
f 359/359 383/383 378/378
f 378/378 362/362 359/359
f 857/857 373/373 844/844
f 857/857 844/844 847/847
f 857/857 847/847 856/856
f 372/372 381/381 366/366
f 372/372 366/366 838/838
f 372/372 838/838 832/832
f 372/372 832/832 845/845
f 385/385 370/370 365/365
f 365/365 382/382 385/385
f 508/508 514/514 402/402
f 508/508 402/402 386/386
f 508/508 386/386 358/358
f 554/554 557/557 284/284
f 554/554 284/284 278/278
f 554/554 278/278 688/688
f 554/554 688/688 691/691
f 298/298 282/282 277/277
f 277/277 283/283 298/298
f 280/280 300/300 482/482
f 482/482 473/473 280/280
f 634/634 388/388 310/310
f 634/634 310/310 620/620
f 634/634 620/620 622/622
f 394/394 309/309 312/312
f 312/312 390/390 394/394
f 398/398 329/329 305/305
f 305/305 391/391 398/398
f 159/159 331/331 395/395
f 395/395 250/250 159/159
f 605/605 389/389 632/632
f 632/632 607/607 605/605
f 602/602 318/318 393/393
f 602/602 393/393 389/389
f 602/602 389/389 605/605
f 326/326 396/396 392/392
f 392/392 320/320 326/326
f 397/397 327/327 262/262
f 262/262 248/248 397/397
f 321/321 594/594 571/571
f 321/321 571/571 559/559
f 321/321 559/559 564/564
f 321/321 564/564 152/152
f 451/451 195/195 517/517
f 517/517 516/516 451/451
f 519/519 459/459 399/399
f 519/519 399/399 227/227
f 519/519 227/227 210/210
f 519/519 210/210 521/521
f 458/458 518/518 194/194
f 458/458 194/194 227/227
f 458/458 227/227 399/399
f 527/527 371/371 387/387
f 527/527 387/387 400/400
f 527/527 400/400 523/523
f 527/527 523/523 524/524
f 527/527 524/524 525/525
f 515/515 522/522 401/401
f 520/520 211/211 456/456
f 456/456 528/528 520/520
f 369/369 526/526 512/512

