# https://github.com/mikedh/trimesh
mtllib material.mtl

o joint_12
usemtl material_0
v 0.00009700 0.00000000 -0.00090300
v 0.00009700 0.00000000 -0.00090300
v 0.00009700 0.00000000 -0.00090300
v 0.00009700 0.00000000 -0.00090300
v 0.00009700 0.00000000 -0.00090300
v 0.00003400 -0.00014900 -0.00050700
v 0.00003400 -0.00014900 -0.00050700
v 0.00003400 -0.00014900 -0.00050700
v 0.00003400 -0.00014900 -0.00050700
v 0.00003400 -0.00014900 -0.00050700
v 0.00003400 -0.00014900 -0.00050700
v 0.00003400 0.00014900 -0.00050700
v 0.00003400 0.00014900 -0.00050700
v 0.00003400 0.00014900 -0.00050700
v 0.00003400 0.00014900 -0.00050700
v 0.00003400 0.00014900 -0.00050700
v 0.00003400 0.00014900 -0.00050700
v 0.00014100 0.00000000 0.00106200
v 0.00014100 0.00000000 0.00106200
v 0.00014100 0.00000000 0.00106200
v 0.00014100 0.00000000 0.00106200
v 0.00014100 0.00000000 0.00106200
v 0.00014100 0.00000000 0.00106200
v -0.00085900 0.00000000 0.00106200
v -0.00085900 0.00000000 0.00106200
v -0.00085900 0.00000000 0.00106200
v -0.00085900 0.00000000 0.00106200
v -0.00085900 0.00000000 0.00106200
v -0.00085900 0.00000000 0.00106200
v 0.00004300 0.00016400 0.00055800
v 0.00004300 0.00016400 0.00055800
v 0.00004300 0.00016400 0.00055800
v 0.00004300 0.00016400 0.00055800
v 0.00004300 0.00016400 0.00055800
v 0.00004300 0.00016400 0.00055800
v -0.00001000 -0.00000000 0.00000000
v -0.00001000 -0.00000000 0.00000000
v -0.00001000 -0.00000000 0.00000000
v -0.00001000 -0.00000000 0.00000000
v -0.00001000 -0.00000000 0.00000000
v -0.00001000 -0.00000000 0.00000000
v 0.00004300 -0.00016400 0.00055800
v 0.00004300 -0.00016400 0.00055800
v 0.00004300 -0.00016400 0.00055800
v 0.00004300 -0.00016400 0.00055800
v 0.00004300 -0.00016400 0.00055800
v 0.00004300 -0.00016400 0.00055800
v -0.00095700 0.00016400 0.00055800
v -0.00095700 0.00016400 0.00055800
v -0.00095700 0.00016400 0.00055800
v -0.00095700 0.00016400 0.00055800
v -0.00095700 0.00016400 0.00055800
v -0.00095700 0.00016400 0.00055800
v -0.00101000 -0.00000000 0.00000000
v -0.00101000 -0.00000000 0.00000000
v -0.00101000 -0.00000000 0.00000000
v -0.00101000 -0.00000000 0.00000000
v -0.00101000 -0.00000000 0.00000000
v -0.00101000 -0.00000000 0.00000000
v -0.00095700 -0.00016400 0.00055800
v -0.00095700 -0.00016400 0.00055800
v -0.00095700 -0.00016400 0.00055800
v -0.00095700 -0.00016400 0.00055800
v -0.00095700 -0.00016400 0.00055800
v -0.00095700 -0.00016400 0.00055800
v -0.00049200 -0.00025700 0.00053600
v -0.00049200 -0.00025700 0.00053600
v -0.00049200 -0.00025700 0.00053600
v -0.00049200 -0.00025700 0.00053600
v -0.00049200 -0.00027900 0.00027600
v -0.00049200 -0.00027900 0.00027600
v -0.00049200 -0.00027900 0.00027600
v -0.00049200 -0.00027900 0.00027600
v -0.00050400 -0.00027500 0.00001700
v -0.00050400 -0.00027500 0.00001700
v -0.00050400 -0.00027500 0.00001700
v -0.00050400 -0.00027500 0.00001700
v -0.00055700 -0.00020100 0.00113800
v -0.00055700 -0.00020100 0.00113800
v -0.00055700 -0.00020100 0.00113800
v -0.00055700 -0.00020100 0.00113800
v -0.00059400 0.00000000 0.00121800
v -0.00059400 0.00000000 0.00121800
v -0.00059400 0.00000000 0.00121800
v -0.00059400 0.00000000 0.00121800
v -0.00050200 -0.00025700 0.00078300
v -0.00050200 -0.00025700 0.00078300
v -0.00050200 -0.00025700 0.00078300
v -0.00050200 -0.00025700 0.00078300
v 0.00005200 -0.00020100 0.00124200
v 0.00005200 -0.00020100 0.00124200
v 0.00005200 -0.00020100 0.00124200
v 0.00005200 -0.00020100 0.00124200
v 0.00002400 0.00000000 0.00139000
v 0.00002400 0.00000000 0.00139000
v 0.00002400 0.00000000 0.00139000
v 0.00002400 0.00000000 0.00139000
v 0.00009700 -0.00025500 0.00083300
v 0.00009700 -0.00025500 0.00083300
v 0.00009700 -0.00025500 0.00083300
v 0.00009700 -0.00025500 0.00083300
v -0.00056900 0.00000000 -0.00064500
v -0.00056900 0.00000000 -0.00064500
v -0.00056900 0.00000000 -0.00064500
v -0.00056900 0.00000000 -0.00064500
v -0.00056300 -0.00015000 -0.00060400
v -0.00056300 -0.00015000 -0.00060400
v -0.00056300 -0.00015000 -0.00060400
v -0.00056300 -0.00015000 -0.00060400
v 0.00006600 0.00000000 -0.00090300
v 0.00006600 0.00000000 -0.00090300
v 0.00006600 0.00000000 -0.00090300
v 0.00006600 0.00000000 -0.00090300
v 0.00003100 -0.00017100 -0.00081200
v 0.00003100 -0.00017100 -0.00081200
v 0.00003100 -0.00017100 -0.00081200
v 0.00003100 -0.00017100 -0.00081200
v -0.00052300 -0.00025600 -0.00023500
v -0.00052300 -0.00025600 -0.00023500
v -0.00052300 -0.00025600 -0.00023500
v -0.00052300 -0.00025600 -0.00023500
v -0.00054500 -0.00023400 -0.00045700
v -0.00054500 -0.00023400 -0.00045700
v -0.00054500 -0.00023400 -0.00045700
v -0.00054500 -0.00023400 -0.00045700
v 0.00004700 -0.00022500 -0.00059700
v 0.00004700 -0.00022500 -0.00059700
v 0.00004700 -0.00022500 -0.00059700
v 0.00004700 -0.00022500 -0.00059700
v -0.00052500 -0.00024800 0.00099600
v -0.00052500 -0.00024800 0.00099600
v -0.00052500 -0.00024800 0.00099600
v -0.00052500 -0.00024800 0.00099600
v 0.00008500 -0.00024500 0.00108300
v 0.00008500 -0.00024500 0.00108300
v 0.00008500 -0.00024500 0.00108300
v 0.00008500 -0.00024500 0.00108300
v -0.00049200 0.00027900 0.00027600
v -0.00049200 0.00027900 0.00027600
v -0.00049200 0.00027900 0.00027600
v -0.00049200 0.00027900 0.00027600
v -0.00049200 0.00025700 0.00053600
v -0.00049200 0.00025700 0.00053600
v -0.00049200 0.00025700 0.00053600
v -0.00049200 0.00025700 0.00053600
v -0.00050400 0.00027500 0.00001700
v -0.00050400 0.00027500 0.00001700
v -0.00050400 0.00027500 0.00001700
v -0.00050400 0.00027500 0.00001700
v -0.00055700 0.00020100 0.00113800
v -0.00055700 0.00020100 0.00113800
v -0.00055700 0.00020100 0.00113800
v -0.00055700 0.00020100 0.00113800
v -0.00052500 0.00024800 0.00099600
v -0.00052500 0.00024800 0.00099600
v -0.00052500 0.00024800 0.00099600
v -0.00052500 0.00024800 0.00099600
v -0.00050200 0.00025700 0.00078300
v -0.00050200 0.00025700 0.00078300
v -0.00050200 0.00025700 0.00078300
v -0.00050200 0.00025700 0.00078300
v 0.00005200 0.00020100 0.00124200
v 0.00005200 0.00020100 0.00124200
v 0.00005200 0.00020100 0.00124200
v 0.00005200 0.00020100 0.00124200
v 0.00008500 0.00024500 0.00108300
v 0.00008500 0.00024500 0.00108300
v 0.00008500 0.00024500 0.00108300
v 0.00008500 0.00024500 0.00108300
v 0.00009700 0.00025500 0.00083300
v 0.00009700 0.00025500 0.00083300
v 0.00009700 0.00025500 0.00083300
v 0.00009700 0.00025500 0.00083300
v -0.00056300 0.00015000 -0.00060400
v -0.00056300 0.00015000 -0.00060400
v -0.00056300 0.00015000 -0.00060400
v -0.00056300 0.00015000 -0.00060400
v 0.00003100 0.00017100 -0.00081200
v 0.00003100 0.00017100 -0.00081200
v 0.00003100 0.00017100 -0.00081200
v 0.00003100 0.00017100 -0.00081200
v -0.00052300 0.00025600 -0.00023500
v -0.00052300 0.00025600 -0.00023500
v -0.00052300 0.00025600 -0.00023500
v -0.00052300 0.00025600 -0.00023500
v -0.00054500 0.00023400 -0.00045700
v -0.00054500 0.00023400 -0.00045700
v -0.00054500 0.00023400 -0.00045700
v -0.00054500 0.00023400 -0.00045700
v 0.00004700 0.00022500 -0.00059700
v 0.00004700 0.00022500 -0.00059700
v 0.00004700 0.00022500 -0.00059700
v 0.00004700 0.00022500 -0.00059700
v 0.00003700 -0.00020800 0.00029400
v 0.00003700 -0.00020800 0.00029400
v 0.00003700 -0.00021000 0.00026900
v 0.00003700 -0.00021000 0.00026900
v 0.00003700 -0.00021000 0.00026900
v 0.00004200 -0.00020200 0.00041500
v 0.00004200 -0.00020200 0.00041500
v 0.00004200 -0.00020200 0.00041500
v 0.00005400 -0.00019400 0.00056000
v 0.00005400 -0.00019400 0.00056000
v 0.00005400 -0.00019400 0.00056000
v 0.00005300 -0.00019400 0.00055300
v 0.00005300 -0.00019400 0.00055300
v 0.00005300 -0.00019400 0.00055300
v 0.00002600 -0.00022700 -0.00000100
v 0.00002600 -0.00022700 -0.00000100
v 0.00002700 -0.00022600 -0.00002700
v 0.00002700 -0.00022600 -0.00002700
v 0.00002700 -0.00022600 -0.00002700
v 0.00002600 -0.00022700 0.00000000
v 0.00002600 -0.00022700 0.00000000
v 0.00002600 -0.00022700 0.00000000
v 0.00005700 -0.00019300 0.00057800
v 0.00005700 -0.00019300 0.00057800
v 0.00009800 -0.00022800 0.00072200
v 0.00009800 -0.00022800 0.00072200
v 0.00009800 -0.00022800 0.00072200
v 0.00029000 -0.00010900 0.00139000
v 0.00029000 -0.00010900 0.00139000
v 0.00034200 0.00000000 0.00149100
v 0.00034200 0.00000000 0.00149100
v 0.00034200 0.00000000 0.00149100
v 0.00032200 -0.00003000 0.00146200
v 0.00032200 -0.00003000 0.00146200
v 0.00032200 -0.00003000 0.00146200
v 0.00026200 -0.00018600 0.00129000
v 0.00026200 -0.00018600 0.00129000
v 0.00026200 -0.00018600 0.00129000
v 0.00028000 -0.00012500 0.00136800
v 0.00028000 -0.00012500 0.00136800
v 0.00028000 -0.00012500 0.00136800
v 0.00023900 -0.00020700 0.00121900
v 0.00023900 -0.00020700 0.00121900
v 0.00020000 -0.00024000 0.00109900
v 0.00020000 -0.00024000 0.00109900
v 0.00020000 -0.00024000 0.00109900
v 0.00012500 -0.00025000 0.00082200
v 0.00012500 -0.00025000 0.00082200
v 0.00012800 -0.00025200 0.00083700
v 0.00012800 -0.00025200 0.00083700
v 0.00012800 -0.00025200 0.00083700
v 0.00010300 -0.00002300 -0.00091400
v 0.00010300 -0.00002300 -0.00091400
v 0.00010300 -0.00002300 -0.00091400
v 0.00011300 -0.00014800 -0.00086700
v 0.00011300 -0.00014800 -0.00086700
v 0.00010400 0.00000000 -0.00092400
v 0.00010400 0.00000000 -0.00092400
v 0.00010400 0.00000000 -0.00092400
v 0.00010400 0.00000000 -0.00092400
v 0.00011100 -0.00017100 -0.00084300
v 0.00011100 -0.00017100 -0.00084300
v 0.00011100 -0.00017100 -0.00084300
v 0.00002800 -0.00022400 -0.00005100
v 0.00002800 -0.00022400 -0.00005100
v 0.00003600 -0.00021700 -0.00029500
v 0.00003600 -0.00021700 -0.00029500
v 0.00003600 -0.00021700 -0.00029500
v 0.00003900 -0.00021600 -0.00032800
v 0.00003900 -0.00021600 -0.00032800
v 0.00003900 -0.00021600 -0.00032800
v 0.00005600 -0.00022100 -0.00049400
v 0.00005600 -0.00022100 -0.00049400
v 0.00005600 -0.00022100 -0.00049400
v 0.00005900 -0.00022100 -0.00052000
v 0.00005900 -0.00022100 -0.00052000
v 0.00005900 -0.00022100 -0.00052000
v 0.00007500 -0.00022300 -0.00060500
v 0.00007500 -0.00022300 -0.00060500
v 0.00007500 -0.00022300 -0.00060500
v 0.00009400 -0.00019300 -0.00074800
v 0.00009400 -0.00019300 -0.00074800
v 0.00009400 -0.00019300 -0.00074800
v 0.00007800 -0.00022200 -0.00062200
v 0.00007800 -0.00022200 -0.00062200
v 0.00017200 -0.00024500 0.00102300
v 0.00017200 -0.00024500 0.00102300
v 0.00017200 -0.00024500 0.00102300
v 0.00013300 -0.00025300 0.00086000
v 0.00013300 -0.00025300 0.00086000
v 0.00013300 -0.00025300 0.00086000
v 0.00013200 -0.00025300 0.00085400
v 0.00013200 -0.00025300 0.00085400
v 0.00003700 0.00020800 0.00029400
v 0.00003700 0.00020800 0.00029400
v 0.00004200 0.00020200 0.00041500
v 0.00004200 0.00020200 0.00041500
v 0.00004200 0.00020200 0.00041500
v 0.00005400 0.00019400 0.00056000
v 0.00005400 0.00019400 0.00056000
v 0.00005400 0.00019400 0.00056000
v 0.00005300 0.00019400 0.00055300
v 0.00005300 0.00019400 0.00055300
v 0.00005300 0.00019400 0.00055300
v 0.00003700 0.00021000 0.00026900
v 0.00003700 0.00021000 0.00026900
v 0.00003700 0.00021000 0.00026900
v 0.00002600 0.00022700 0.00000000
v 0.00002600 0.00022700 0.00000000
v 0.00002600 0.00022700 0.00000000
v 0.00002600 0.00022700 -0.00000100
v 0.00002600 0.00022700 -0.00000100
v 0.00002700 0.00022600 -0.00002700
v 0.00002700 0.00022600 -0.00002700
v 0.00002700 0.00022600 -0.00002700
v 0.00009800 0.00022800 0.00072200
v 0.00009800 0.00022800 0.00072200
v 0.00009800 0.00022800 0.00072200
v 0.00005700 0.00019300 0.00057800
v 0.00005700 0.00019300 0.00057800
v 0.00026200 0.00018600 0.00129000
v 0.00026200 0.00018600 0.00129000
v 0.00026200 0.00018600 0.00129000
v 0.00028000 0.00012500 0.00136800
v 0.00028000 0.00012500 0.00136800
v 0.00028000 0.00012500 0.00136800
v 0.00029000 0.00010900 0.00139000
v 0.00029000 0.00010900 0.00139000
v 0.00032200 0.00003000 0.00146200
v 0.00032200 0.00003000 0.00146200
v 0.00032200 0.00003000 0.00146200
v 0.00023900 0.00020700 0.00121900
v 0.00023900 0.00020700 0.00121900
v 0.00020000 0.00024000 0.00109900
v 0.00020000 0.00024000 0.00109900
v 0.00020000 0.00024000 0.00109900
v 0.00012500 0.00025000 0.00082200
v 0.00012500 0.00025000 0.00082200
v 0.00012800 0.00025200 0.00083700
v 0.00012800 0.00025200 0.00083700
v 0.00012800 0.00025200 0.00083700
v 0.00011300 0.00014800 -0.00086700
v 0.00011300 0.00014800 -0.00086700
v 0.00011100 0.00017100 -0.00084300
v 0.00011100 0.00017100 -0.00084300
v 0.00011100 0.00017100 -0.00084300
v 0.00010300 0.00002300 -0.00091400
v 0.00010300 0.00002300 -0.00091400
v 0.00010300 0.00002300 -0.00091400
v 0.00002800 0.00022400 -0.00005100
v 0.00002800 0.00022400 -0.00005100
v 0.00003600 0.00021700 -0.00029500
v 0.00003600 0.00021700 -0.00029500
v 0.00003600 0.00021700 -0.00029500
v 0.00003900 0.00021600 -0.00032800
v 0.00003900 0.00021600 -0.00032800
v 0.00003900 0.00021600 -0.00032800
v 0.00005600 0.00022100 -0.00049400
v 0.00005600 0.00022100 -0.00049400
v 0.00005600 0.00022100 -0.00049400
v 0.00005900 0.00022100 -0.00052000
v 0.00005900 0.00022100 -0.00052000
v 0.00005900 0.00022100 -0.00052000
v 0.00007500 0.00022300 -0.00060500
v 0.00007500 0.00022300 -0.00060500
v 0.00007500 0.00022300 -0.00060500
v 0.00007800 0.00022200 -0.00062200
v 0.00007800 0.00022200 -0.00062200
v 0.00009400 0.00019300 -0.00074800
v 0.00009400 0.00019300 -0.00074800
v 0.00009400 0.00019300 -0.00074800
v 0.00013200 0.00025300 0.00085400
v 0.00013200 0.00025300 0.00085400
v 0.00017200 0.00024500 0.00102300
v 0.00017200 0.00024500 0.00102300
v 0.00017200 0.00024500 0.00102300
v 0.00013300 0.00025300 0.00086000
v 0.00013300 0.00025300 0.00086000
v 0.00013300 0.00025300 0.00086000
v -0.00096200 -0.00008800 -0.00053100
v -0.00096200 -0.00008800 -0.00053100
v -0.00096500 -0.00013500 -0.00051700
v -0.00096500 -0.00013500 -0.00051700
v -0.00096500 -0.00013500 -0.00051700
v -0.00096600 -0.00014000 -0.00050700
v -0.00096600 -0.00014000 -0.00050700
v -0.00096600 -0.00014000 -0.00050700
v -0.00096600 0.00014000 -0.00050700
v -0.00096600 0.00014000 -0.00050700
v -0.00096600 0.00014000 -0.00050700
v -0.00096500 0.00013500 -0.00051700
v -0.00096500 0.00013500 -0.00051700
v -0.00096500 0.00013500 -0.00051700
v -0.00096200 0.00008800 -0.00053100
v -0.00096200 0.00008800 -0.00053100
v -0.00095700 0.00000000 -0.00056300
v -0.00095700 0.00000000 -0.00056300
v -0.00095700 0.00000000 -0.00056300
v -0.00081100 0.00004300 0.00116800
v -0.00081100 0.00004300 0.00116800
v -0.00081100 0.00004300 0.00116800
v -0.00081200 0.00006400 0.00115500
v -0.00081200 0.00006400 0.00115500
v -0.00083300 0.00020500 0.00102900
v -0.00083300 0.00020500 0.00102900
v -0.00083300 0.00020500 0.00102900
v -0.00080900 0.00018500 0.00110300
v -0.00080900 0.00018500 0.00110300
v -0.00080900 0.00018500 0.00110300
v -0.00079800 0.00000000 0.00119700
v -0.00079800 0.00000000 0.00119700
v -0.00079800 0.00000000 0.00119700
v -0.00081100 -0.00004300 0.00116800
v -0.00081100 -0.00004300 0.00116800
v -0.00081100 -0.00004300 0.00116800
v -0.00083300 -0.00020500 0.00102900
v -0.00083300 -0.00020500 0.00102900
v -0.00083300 -0.00020500 0.00102900
v -0.00080900 -0.00018500 0.00110300
v -0.00080900 -0.00018500 0.00110300
v -0.00080900 -0.00018500 0.00110300
v -0.00081200 -0.00006400 0.00115500
v -0.00081200 -0.00006400 0.00115500
v -0.00093300 0.00026500 0.00045900
v -0.00093300 0.00026500 0.00045900
v -0.00092900 0.00025900 0.00052700
v -0.00092900 0.00025900 0.00052700
v -0.00092900 0.00025900 0.00052700
v -0.00092800 0.00025700 0.00054200
v -0.00092800 0.00025700 0.00054200
v -0.00092800 0.00025700 0.00054200
v -0.00095300 0.00027000 0.00022400
v -0.00095300 0.00027000 0.00022400
v -0.00095900 0.00026700 0.00017000
v -0.00095900 0.00026700 0.00017000
v -0.00095900 0.00026700 0.00017000
v -0.00094800 0.00027100 0.00028300
v -0.00094800 0.00027100 0.00028300
v -0.00094800 0.00027100 0.00028300
v -0.00096600 0.00016100 -0.00047100
v -0.00096600 0.00016100 -0.00047100
v -0.00096600 0.00016100 -0.00047100
v -0.00096700 0.00014600 -0.00049700
v -0.00096700 0.00014600 -0.00049700
v -0.00096700 0.00014600 -0.00049700
v -0.00096400 0.00022600 -0.00026700
v -0.00096400 0.00022600 -0.00026700
v -0.00096400 0.00022600 -0.00026700
v -0.00097000 0.00025500 0.00000000
v -0.00097000 0.00025500 0.00000000
v -0.00097000 0.00025500 0.00000000
v -0.00096700 0.00023900 -0.00012500
v -0.00096700 0.00023900 -0.00012500
v -0.00096500 0.00023500 -0.00018500
v -0.00096500 0.00023500 -0.00018500
v -0.00096500 0.00023500 -0.00018500
v -0.00096400 0.00022900 -0.00024400
v -0.00096400 0.00022900 -0.00024400
v -0.00089200 0.00023600 0.00076000
v -0.00089200 0.00023600 0.00076000
v -0.00089200 0.00023600 0.00076000
v -0.00090800 0.00023600 0.00068000
v -0.00090800 0.00023600 0.00068000
v -0.00088400 0.00023500 0.00080100
v -0.00088400 0.00023500 0.00080100
v -0.00088400 0.00023500 0.00080100
v -0.00083300 0.00020600 0.00102600
v -0.00083300 0.00020600 0.00102600
v -0.00087300 0.00023500 0.00084600
v -0.00087300 0.00023500 0.00084600
v -0.00084600 0.00022400 0.00096300
v -0.00084600 0.00022400 0.00096300
v -0.00084600 0.00022400 0.00096300
v -0.00096700 0.00026000 0.00004000
v -0.00096700 0.00026000 0.00004000
v -0.00096700 0.00026000 0.00004000
v -0.00088400 -0.00023500 0.00080100
v -0.00088400 -0.00023500 0.00080100
v -0.00088400 -0.00023500 0.00080100
v -0.00087300 -0.00023500 0.00084600
v -0.00087300 -0.00023500 0.00084600
v -0.00084600 -0.00022400 0.00096300
v -0.00084600 -0.00022400 0.00096300
v -0.00084600 -0.00022400 0.00096300
v -0.00083300 -0.00020600 0.00102600
v -0.00083300 -0.00020600 0.00102600
v -0.00096700 -0.00014600 -0.00049700
v -0.00096700 -0.00014600 -0.00049700
v -0.00096700 -0.00014600 -0.00049700
v -0.00096400 -0.00022900 -0.00024400
v -0.00096400 -0.00022900 -0.00024400
v -0.00096500 -0.00023500 -0.00018500
v -0.00096500 -0.00023500 -0.00018500
v -0.00096500 -0.00023500 -0.00018500
v -0.00096700 -0.00023900 -0.00012500
v -0.00096700 -0.00023900 -0.00012500
v -0.00097000 -0.00025500 0.00000000
v -0.00097000 -0.00025500 0.00000000
v -0.00097000 -0.00025500 0.00000000
v -0.00096600 -0.00016100 -0.00047100
v -0.00096600 -0.00016100 -0.00047100
v -0.00096600 -0.00016100 -0.00047100
v -0.00096400 -0.00022600 -0.00026700
v -0.00096400 -0.00022600 -0.00026700
v -0.00096400 -0.00022600 -0.00026700
v -0.00095900 -0.00026700 0.00017000
v -0.00095900 -0.00026700 0.00017000
v -0.00095900 -0.00026700 0.00017000
v -0.00096700 -0.00026000 0.00004000
v -0.00096700 -0.00026000 0.00004000
v -0.00096700 -0.00026000 0.00004000
v -0.00095300 -0.00027000 0.00022400
v -0.00095300 -0.00027000 0.00022400
v -0.00094800 -0.00027100 0.00028300
v -0.00094800 -0.00027100 0.00028300
v -0.00094800 -0.00027100 0.00028300
v -0.00092800 -0.00025700 0.00054200
v -0.00092800 -0.00025700 0.00054200
v -0.00092800 -0.00025700 0.00054200
v -0.00092900 -0.00025900 0.00052700
v -0.00092900 -0.00025900 0.00052700
v -0.00092900 -0.00025900 0.00052700
v -0.00093300 -0.00026500 0.00045900
v -0.00093300 -0.00026500 0.00045900
v -0.00089200 -0.00023600 0.00076000
v -0.00089200 -0.00023600 0.00076000
v -0.00089200 -0.00023600 0.00076000
v -0.00090800 -0.00023600 0.00068000
v -0.00090800 -0.00023600 0.00068000
v -0.00095800 0.00021200 -0.00038200
v -0.00095800 0.00021200 -0.00038200
v -0.00095800 0.00021200 -0.00038200
v -0.00095800 -0.00021200 -0.00038200
v -0.00095800 -0.00021200 -0.00038200
v -0.00095800 -0.00021200 -0.00038200
vt 0.00000000 0.00000000
vt 0.00000000 0.00000000
vt 0.00000000 0.00000000
vt 0.00000000 0.00000000
vt 0.00000000 0.00000000
vt 0.00000000 0.00000000
vt 0.00000000 0.00000000
vt 0.00000000 0.00000000
vt 0.00000000 0.00000000
vt 0.00000000 0.00000000
vt 0.00000000 0.00000000
vt 0.00000000 0.00000000
vt 0.00000000 0.00000000
vt 0.00000000 0.00000000
vt 0.00000000 0.00000000
vt 0.00000000 0.00000000
vt 0.00000000 0.00000000
vt 0.00000000 0.00000000
vt 0.00000000 0.00000000
vt 0.00000000 0.00000000
vt 0.00000000 0.00000000
vt 0.00000000 0.00000000
vt 0.00000000 0.00000000
vt 0.00000000 0.00000000
vt 0.00000000 0.00000000
vt 0.00000000 0.00000000
vt 0.00000000 0.00000000
vt 0.00000000 0.00000000
vt 0.00000000 0.00000000
vt 0.00000000 0.00000000
vt 0.00000000 0.00000000
vt 0.00000000 0.00000000
vt 0.00000000 0.00000000
vt 0.00000000 0.00000000
vt 0.00000000 0.00000000
vt 0.00000000 0.00000000
vt 0.00000000 0.00000000
vt 0.00000000 0.00000000
vt 0.00000000 0.00000000
vt 0.00000000 0.00000000
vt 0.00000000 0.00000000
vt 0.00000000 0.00000000
vt 0.00000000 0.00000000
vt 0.00000000 0.00000000
vt 0.00000000 0.00000000
vt 0.00000000 0.00000000
vt 0.00000000 0.00000000
vt 0.00000000 0.00000000
vt 0.00000000 0.00000000
vt 0.00000000 0.00000000
vt 0.00000000 0.00000000
vt 0.00000000 0.00000000
vt 0.00000000 0.00000000
vt 0.00000000 0.00000000
vt 0.00000000 0.00000000
vt 0.00000000 0.00000000
vt 0.00000000 0.00000000
vt 0.00000000 0.00000000
vt 0.00000000 0.00000000
vt 0.00000000 0.00000000
vt 0.00000000 0.00000000
vt 0.00000000 0.00000000
vt 0.00000000 0.00000000
vt 0.00000000 0.00000000
vt 0.00000000 0.00000000
vt 0.24641000 0.34555200
vt 0.24641000 0.34555200
vt 0.24641000 0.34555200
vt 0.24641000 0.34555200
vt 0.23614400 0.35905800
vt 0.23614400 0.35905800
vt 0.23614400 0.35905800
vt 0.23614400 0.35905800
vt 0.22646400 0.37247800
vt 0.22646400 0.37247800
vt 0.22646400 0.37247800
vt 0.22646400 0.37247800
vt 0.27400100 0.31459900
vt 0.27400100 0.31459900
vt 0.27400100 0.31459900
vt 0.27400100 0.31459900
vt 0.28581500 0.30470700
vt 0.28581500 0.30470700
vt 0.28581500 0.30470700
vt 0.28581500 0.30470700
vt 0.25667100 0.33269600
vt 0.25667100 0.33269600
vt 0.25667100 0.33269600
vt 0.25667100 0.33269600
vt 0.24326200 0.28676900
vt 0.24326200 0.28676900
vt 0.24326200 0.28676900
vt 0.24326200 0.28676900
vt 0.25403400 0.27431000
vt 0.25403400 0.27431000
vt 0.25403400 0.27431000
vt 0.25403400 0.27431000
vt 0.22645600 0.30760500
vt 0.22645600 0.30760500
vt 0.22645600 0.30760500
vt 0.22645600 0.30760500
vt 0.20055400 0.41387800
vt 0.39107500 0.21463100
vt 0.39107500 0.21463100
vt 0.20055400 0.41387800
vt 0.20444000 0.40559500
vt 0.20444000 0.40559500
vt 0.20444000 0.40559500
vt 0.20444000 0.40559500
vt 0.16238200 0.40193900
vt 0.37738700 0.17701200
vt 0.16238200 0.40193900
vt 0.37738700 0.17701200
vt 0.16920600 0.39260600
vt 0.16920600 0.39260600
vt 0.16920600 0.39260600
vt 0.16920600 0.39260600
vt 0.21745700 0.38548000
vt 0.21745700 0.38548000
vt 0.21745700 0.38548000
vt 0.21745700 0.38548000
vt 0.20984400 0.39685900
vt 0.20984400 0.39685900
vt 0.20984400 0.39685900
vt 0.20984400 0.39685900
vt 0.17653100 0.38155000
vt 0.17653100 0.38155000
vt 0.17653100 0.38155000
vt 0.17653100 0.38155000
vt 0.26628500 0.32179200
vt 0.26628500 0.32179200
vt 0.26628500 0.32179200
vt 0.26628500 0.32179200
vt 0.23577800 0.29467800
vt 0.23577800 0.29467800
vt 0.23577800 0.29467800
vt 0.23577800 0.29467800
vt 0.33789300 0.25265100
vt 0.33789300 0.25265100
vt 0.33789300 0.25265100
vt 0.33789300 0.25265100
vt 0.32485800 0.26351300
vt 0.32485800 0.26351300
vt 0.32485800 0.26351300
vt 0.32485800 0.26351300
vt 0.35086700 0.24238000
vt 0.35086700 0.24238000
vt 0.35086700 0.24238000
vt 0.35086700 0.24238000
vt 0.29516800 0.29246300
vt 0.29516800 0.29246300
vt 0.29516800 0.29246300
vt 0.29516800 0.29246300
vt 0.30200900 0.28443300
vt 0.30200900 0.28443300
vt 0.30200900 0.28443300
vt 0.30200900 0.28443300
vt 0.31247300 0.27433900
vt 0.31247300 0.27433900
vt 0.31247300 0.27433900
vt 0.31247300 0.27433900
vt 0.26600000 0.26299500
vt 0.26600000 0.26299500
vt 0.26600000 0.26299500
vt 0.26600000 0.26299500
vt 0.27356700 0.25516700
vt 0.27356700 0.25516700
vt 0.27356700 0.25516700
vt 0.27356700 0.25516700
vt 0.28606400 0.24527900
vt 0.28606400 0.24527900
vt 0.28606400 0.24527900
vt 0.28606400 0.24527900
vt 0.38297000 0.21888900
vt 0.38297000 0.21888900
vt 0.38297000 0.21888900
vt 0.38297000 0.21888900
vt 0.36838000 0.18426200
vt 0.36838000 0.18426200
vt 0.36838000 0.18426200
vt 0.36838000 0.18426200
vt 0.36345500 0.23279800
vt 0.36345500 0.23279800
vt 0.36345500 0.23279800
vt 0.36345500 0.23279800
vt 0.37448300 0.22468100
vt 0.37448300 0.22468100
vt 0.37448300 0.22468100
vt 0.37448300 0.22468100
vt 0.35767400 0.19208600
vt 0.35767400 0.19208600
vt 0.35767400 0.19208600
vt 0.35767400 0.19208600
vt 0.20963700 0.33800400
vt 0.00000000 0.00000000
vt 0.20874400 0.33936600
vt 0.20874400 0.33936600
vt 0.00000000 0.00000000
vt 0.00000000 0.00000000
vt 0.00000000 0.00000000
vt 0.21377200 0.33160900
vt 0.21843900 0.32371100
vt 0.21843900 0.32371100
vt 0.00000000 0.00000000
vt 0.21823200 0.32414600
vt 0.00000000 0.00000000
vt 0.00000000 0.00000000
vt 0.19938700 0.35335600
vt 0.00000000 0.00000000
vt 0.19837300 0.35461800
vt 0.19837300 0.35461800
vt 0.00000000 0.00000000
vt 0.19944300 0.35328600
vt 0.00000000 0.00000000
vt 0.00000000 0.00000000
vt 0.00000000 0.00000000
vt 0.21889400 0.32268600
vt 0.00000000 0.00000000
vt 0.22223200 0.31346700
vt 0.22223200 0.31346700
vt 0.00000000 0.00000000
vt 0.23613700 0.26925300
vt 0.23840400 0.25935900
vt 0.00000000 0.00000000
vt 0.23840400 0.25935900
vt 0.00000000 0.00000000
vt 0.23803600 0.26233200
vt 0.00000000 0.00000000
vt 0.23346200 0.27714100
vt 0.23346200 0.27714100
vt 0.00000000 0.00000000
vt 0.00000000 0.00000000
vt 0.00000000 0.00000000
vt 0.23576500 0.27113500
vt 0.23225300 0.28194100
vt 0.00000000 0.00000000
vt 0.00000000 0.00000000
vt 0.23019000 0.28994200
vt 0.23019000 0.28994200
vt 0.22456800 0.30722600
vt 0.00000000 0.00000000
vt 0.22492400 0.30632000
vt 0.22492400 0.30632000
vt 0.00000000 0.00000000
vt 0.16055700 0.40014200
vt 0.00000000 0.00000000
vt 0.00000000 0.00000000
vt 0.16318200 0.39279100
vt 0.00000000 0.00000000
vt 0.37677300 0.17456600
vt 0.00000000 0.00000000
vt 0.15990700 0.40144000
vt 0.00000000 0.00000000
vt 0.00000000 0.00000000
vt 0.16431500 0.39119400
vt 0.16431500 0.39119400
vt 0.19746700 0.35573600
vt 0.00000000 0.00000000
vt 0.00000000 0.00000000
vt 0.18805000 0.36735200
vt 0.00000000 0.00000000
vt 0.00000000 0.00000000
vt 0.18670200 0.36885700
vt 0.18670200 0.36885700
vt 0.00000000 0.00000000
vt 0.17982200 0.37624700
vt 0.17982200 0.37624700
vt 0.00000000 0.00000000
vt 0.00000000 0.00000000
vt 0.17873900 0.37742200
vt 0.17487300 0.38090100
vt 0.00000000 0.00000000
vt 0.17487300 0.38090100
vt 0.16866500 0.38717800
vt 0.00000000 0.00000000
vt 0.00000000 0.00000000
vt 0.00000000 0.00000000
vt 0.17409700 0.38161100
vt 0.00000000 0.00000000
vt 0.00000000 0.00000000
vt 0.22906400 0.29492900
vt 0.22547200 0.30493400
vt 0.00000000 0.00000000
vt 0.00000000 0.00000000
vt 0.00000000 0.00000000
vt 0.22532100 0.30529100
vt 0.31567600 0.22712100
vt 0.00000000 0.00000000
vt 0.00000000 0.00000000
vt 0.30947400 0.23153800
vt 0.00000000 0.00000000
vt 0.30179300 0.23655300
vt 0.00000000 0.00000000
vt 0.30179300 0.23655300
vt 0.00000000 0.00000000
vt 0.30221900 0.23632600
vt 0.00000000 0.00000000
vt 0.31699700 0.22616800
vt 0.31699700 0.22616800
vt 0.00000000 0.00000000
vt 0.00000000 0.00000000
vt 0.33048200 0.21625300
vt 0.00000000 0.00000000
vt 0.33054900 0.21619400
vt 0.00000000 0.00000000
vt 0.00000000 0.00000000
vt 0.33176400 0.21512500
vt 0.33176400 0.21512500
vt 0.29173000 0.24079800
vt 0.00000000 0.00000000
vt 0.29173000 0.24079800
vt 0.30079000 0.23705300
vt 0.00000000 0.00000000
vt 0.25594700 0.25363200
vt 0.25594700 0.25363200
vt 0.00000000 0.00000000
vt 0.00000000 0.00000000
vt 0.00000000 0.00000000
vt 0.25005100 0.25620000
vt 0.00000000 0.00000000
vt 0.24818700 0.25665500
vt 0.00000000 0.00000000
vt 0.24135800 0.25885900
vt 0.00000000 0.00000000
vt 0.00000000 0.00000000
vt 0.26068800 0.25221200
vt 0.26858900 0.24979600
vt 0.26858900 0.24979600
vt 0.00000000 0.00000000
vt 0.28560100 0.24341000
vt 0.00000000 0.00000000
vt 0.28471200 0.24380700
vt 0.28471200 0.24380700
vt 0.00000000 0.00000000
vt 0.36828700 0.17824100
vt 0.00000000 0.00000000
vt 0.36674500 0.17944600
vt 0.00000000 0.00000000
vt 0.36674500 0.17944600
vt 0.00000000 0.00000000
vt 0.37550700 0.17527600
vt 0.00000000 0.00000000
vt 0.00000000 0.00000000
vt 0.33284000 0.21416900
vt 0.00000000 0.00000000
vt 0.00000000 0.00000000
vt 0.34401600 0.20423900
vt 0.34545900 0.20282400
vt 0.00000000 0.00000000
vt 0.34545900 0.20282400
vt 0.35252700 0.19561500
vt 0.00000000 0.00000000
vt 0.35252700 0.19561500
vt 0.35365100 0.19448000
vt 0.00000000 0.00000000
vt 0.00000000 0.00000000
vt 0.35695100 0.19046100
vt 0.35695100 0.19046100
vt 0.00000000 0.00000000
vt 0.00000000 0.00000000
vt 0.35762300 0.18965300
vt 0.36293400 0.18397400
vt 0.00000000 0.00000000
vt 0.00000000 0.00000000
vt 0.00000000 0.00000000
vt 0.28370200 0.24424800
vt 0.27351900 0.24844900
vt 0.00000000 0.00000000
vt 0.00000000 0.00000000
vt 0.28335200 0.24441600
vt 0.00000000 0.00000000
vt 0.00000000 0.00000000
vt 0.00000000 0.00000000
vt 0.22425500 0.42012500
vt 0.22601000 0.41772300
vt 0.00000000 0.00000000
vt 0.22601000 0.41772200
vt 0.22649700 0.41729200
vt 0.00000000 0.00000000
vt 0.00000000 0.00000000
vt 0.39564100 0.24040300
vt 0.00000000 0.00000000
vt 0.00000000 0.00000000
vt 0.39605000 0.23989800
vt 0.00000000 0.00000000
vt 0.39605000 0.23989800
vt 0.00000000 0.00000000
vt 0.39837300 0.23803600
vt 0.22092000 0.42452600
vt 0.40262200 0.23450600
vt 0.00000000 0.00000000
vt 0.30007700 0.31332300
vt 0.00000000 0.00000000
vt 0.00000000 0.00000000
vt 0.00000000 0.00000000
vt 0.30142300 0.31218300
vt 0.00000000 0.00000000
vt 0.00000000 0.00000000
vt 0.31352900 0.30328700
vt 0.30821600 0.30541500
vt 0.00000000 0.00000000
vt 0.30821600 0.30541500
vt 0.00000000 0.00000000
vt 0.29671400 0.31513000
vt 0.29671400 0.31513000
vt 0.00000000 0.00000000
vt 0.29505900 0.31857100
vt 0.00000000 0.00000000
vt 0.28563600 0.33245900
vt 0.00000000 0.00000000
vt 0.00000000 0.00000000
vt 0.28752300 0.32705600
vt 0.28752300 0.32705600
vt 0.00000000 0.00000000
vt 0.00000000 0.00000000
vt 0.29398100 0.31996600
vt 0.34811800 0.28250700
vt 0.00000000 0.00000000
vt 0.34451300 0.28539000
vt 0.00000000 0.00000000
vt 0.34451300 0.28539000
vt 0.34375000 0.28601400
vt 0.00000000 0.00000000
vt 0.00000000 0.00000000
vt 0.36057200 0.27283400
vt 0.00000000 0.00000000
vt 0.00000000 0.00000000
vt 0.36340700 0.27069000
vt 0.00000000 0.00000000
vt 0.35746600 0.27524000
vt 0.00000000 0.00000000
vt 0.35746600 0.27524000
vt 0.39375200 0.24214900
vt 0.00000000 0.00000000
vt 0.00000000 0.00000000
vt 0.00000000 0.00000000
vt 0.00000000 0.00000000
vt 0.39514400 0.24094700
vt 0.38388600 0.25140100
vt 0.00000000 0.00000000
vt 0.00000000 0.00000000
vt 0.00000000 0.00000000
vt 0.37190500 0.26352900
vt 0.00000000 0.00000000
vt 0.37759900 0.25782200
vt 0.00000000 0.00000000
vt 0.00000000 0.00000000
vt 0.38030800 0.25505500
vt 0.38030800 0.25505500
vt 0.38287200 0.25242300
vt 0.00000000 0.00000000
vt 0.00000000 0.00000000
vt 0.33083000 0.29415900
vt 0.33083000 0.29415900
vt 0.33564300 0.29141100
vt 0.00000000 0.00000000
vt 0.00000000 0.00000000
vt 0.00000000 0.00000000
vt 0.32828800 0.29561000
vt 0.00000000 0.00000000
vt 0.31374900 0.30316800
vt 0.00000000 0.00000000
vt 0.32538600 0.29705600
vt 0.31795000 0.30088200
vt 0.00000000 0.00000000
vt 0.31795000 0.30088200
vt 0.00000000 0.00000000
vt 0.36990700 0.26520200
vt 0.36990700 0.26520200
vt 0.00000000 0.00000000
vt 0.27862800 0.34754600
vt 0.00000000 0.00000000
vt 0.27994300 0.34458300
vt 0.00000000 0.00000000
vt 0.28343100 0.33698200
vt 0.00000000 0.00000000
vt 0.28343100 0.33698200
vt 0.00000000 0.00000000
vt 0.28552600 0.33268300
vt 0.00000000 0.00000000
vt 0.00000000 0.00000000
vt 0.22701700 0.41677100
vt 0.00000000 0.00000000
vt 0.23793200 0.40400100
vt 0.24044600 0.40132200
vt 0.24044600 0.40132200
vt 0.00000000 0.00000000
vt 0.00000000 0.00000000
vt 0.24308800 0.39849300
vt 0.24853500 0.39255000
vt 0.00000000 0.00000000
vt 0.00000000 0.00000000
vt 0.00000000 0.00000000
vt 0.22815600 0.41532700
vt 0.00000000 0.00000000
vt 0.00000000 0.00000000
vt 0.23695600 0.40505900
vt 0.00000000 0.00000000
vt 0.00000000 0.00000000
vt 0.25530900 0.38374200
vt 0.00000000 0.00000000
vt 0.25011700 0.39048100
vt 0.25011700 0.39048100
vt 0.00000000 0.00000000
vt 0.00000000 0.00000000
vt 0.25732400 0.38081400
vt 0.25958800 0.37760500
vt 0.00000000 0.00000000
vt 0.25958800 0.37760500
vt 0.00000000 0.00000000
vt 0.26973500 0.36342200
vt 0.00000000 0.00000000
vt 0.26914600 0.36421200
vt 0.00000000 0.00000000
vt 0.26914600 0.36421200
vt 0.00000000 0.00000000
vt 0.26642700 0.36794200
vt 0.27729300 0.35015100
vt 0.27729300 0.35015100
vt 0.00000000 0.00000000
vt 0.00000000 0.00000000
vt 0.27476300 0.35508200
vt 0.38885200 0.24607600
vt 0.38885200 0.24607600
vt 0.00000000 0.00000000
vt 0.00000000 0.00000000
vt 0.23185900 0.41025700
vt 0.23185900 0.41025700
f 391/391 373/373 376/376
f 391/391 376/376 379/379
f 391/391 379/379 382/382
f 391/391 382/382 385/385
f 391/391 385/385 387/387
f 395/395 401/401 398/398
f 395/395 398/398 26/26
f 395/395 26/26 393/393
f 394/394 28/28 406/406
f 406/406 403/403 394/394
f 27/27 411/411 414/414
f 27/27 414/414 415/415
f 27/27 415/415 408/408
f 427/427 48/48 423/423
f 427/427 423/423 420/420
f 427/427 420/420 418/418
f 427/427 418/418 431/431
f 427/427 431/431 426/426
f 59/59 442/442 446/446
f 59/59 446/446 447/447
f 59/59 447/447 451/451
f 59/59 451/451 440/440
f 59/59 440/440 434/434
f 59/59 434/434 437/437
f 456/456 424/424 50/50
f 456/456 50/50 457/457
f 456/456 457/457 452/452
f 458/458 52/52 29/29
f 458/458 29/29 397/397
f 458/458 397/397 460/460
f 458/458 460/460 465/465
f 458/458 465/465 462/462
f 56/56 49/49 429/429
f 56/56 429/429 467/467
f 56/56 467/467 444/444
f 58/58 65/65 51/51
f 25/25 53/53 62/62
f 410/410 24/24 60/60
f 410/410 60/60 472/472
f 410/410 472/472 474/474
f 410/410 474/474 476/476
f 410/410 476/476 478/478
f 480/480 57/57 436/436
f 480/480 436/436 383/383
f 480/480 383/383 380/380
f 491/491 54/54 481/481
f 491/491 481/481 495/495
f 491/491 495/495 498/498
f 491/491 498/498 483/483
f 491/491 483/483 487/487
f 491/491 487/487 488/488
f 55/55 492/492 504/504
f 55/55 504/504 501/501
f 55/55 501/501 63/63
f 512/512 61/61 499/499
f 512/512 499/499 505/505
f 512/512 505/505 508/508
f 512/512 508/508 516/516
f 512/512 516/516 514/514
f 64/64 510/510 521/521
f 64/64 521/521 520/520
f 64/64 520/520 470/470
f 435/435 441/441 525/525
f 526/526 496/496 493/493
f 517/517 507/507 70/70
f 517/517 70/70 66/66
f 517/517 66/66 515/515
f 74/74 71/71 509/509
f 74/74 509/509 506/506
f 74/74 506/506 500/500
f 74/74 500/500 502/502
f 412/412 80/80 84/84
f 412/412 84/84 404/404
f 412/412 404/404 407/407
f 412/412 407/407 416/416
f 479/479 477/477 132/132
f 479/479 132/132 79/79
f 479/479 79/79 413/413
f 479/479 413/413 409/409
f 522/522 511/511 513/513
f 522/522 513/513 69/69
f 522/522 69/69 88/88
f 522/522 88/88 519/519
f 205/205 203/203 68/68
f 205/205 68/68 72/72
f 205/205 72/72 196/196
f 205/205 196/196 194/194
f 205/205 194/194 201/201
f 197/197 73/73 75/75
f 197/197 75/75 210/210
f 197/197 210/210 208/208
f 197/197 208/208 213/213
f 97/97 85/85 78/78
f 78/78 92/92 97/97
f 81/81 133/133 137/137
f 137/137 91/91 81/81
f 217/217 220/220 101/101
f 217/217 101/101 87/87
f 217/217 87/87 67/67
f 217/217 67/67 202/202
f 234/234 222/222 227/227
f 234/234 227/227 223/223
f 234/234 223/223 96/96
f 234/234 96/96 90/90
f 234/234 90/90 230/230
f 229/229 93/93 135/135
f 229/229 135/135 238/238
f 229/229 238/238 235/235
f 98/98 219/219 240/240
f 240/240 243/243 98/98
f 389/389 102/102 109/109
f 389/389 109/109 377/377
f 389/389 377/377 374/374
f 107/107 105/105 112/112
f 112/112 116/116 107/107
f 255/255 115/115 110/110
f 255/255 110/110 252/252
f 255/255 252/252 252/252
f 255/255 252/252 245/245
f 255/255 245/245 248/248
f 489/489 485/485 119/119
f 489/489 119/119 76/76
f 489/489 76/76 503/503
f 489/489 503/503 490/490
f 497/497 527/527 122/122
f 497/497 122/122 118/118
f 497/497 118/118 486/486
f 497/497 486/486 484/484
f 378/378 375/375 108/108
f 378/378 108/108 124/124
f 378/378 124/124 528/528
f 378/378 528/528 494/494
f 378/378 494/494 482/482
f 257/257 211/211 77/77
f 257/257 77/77 121/121
f 257/257 121/121 263/263
f 257/257 263/263 260/260
f 266/266 264/264 120/120
f 266/266 120/120 125/125
f 266/266 125/125 129/129
f 123/123 106/106 117/117
f 117/117 128/128 123/123
f 267/267 127/127 273/273
f 273/273 270/270 267/267
f 278/278 271/271 126/126
f 278/278 126/126 114/114
f 278/278 114/114 256/256
f 278/278 256/256 274/274
f 471/471 518/518 86/86
f 471/471 86/86 131/131
f 471/471 131/131 475/475
f 471/471 475/475 473/473
f 136/136 130/130 89/89
f 89/89 100/100 136/136
f 281/281 239/239 134/134
f 281/281 134/134 99/99
f 281/281 99/99 242/242
f 281/281 242/242 286/286
f 281/281 286/286 282/282
f 144/144 138/138 430/430
f 144/144 430/430 417/417
f 144/144 417/417 421/421
f 432/432 141/141 146/146
f 432/432 146/146 468/468
f 432/432 468/468 428/428
f 432/432 428/428 425/425
f 392/392 405/405 82/82
f 392/392 82/82 150/150
f 392/392 150/150 400/400
f 392/392 400/400 396/396
f 399/399 402/402 151/151
f 399/399 151/151 154/154
f 399/399 154/154 464/464
f 399/399 464/464 461/461
f 159/159 142/142 419/419
f 159/159 419/419 422/422
f 159/159 422/422 455/455
f 159/159 455/455 453/453
f 287/287 299/299 140/140
f 287/287 140/140 143/143
f 287/287 143/143 294/294
f 287/287 294/294 296/296
f 287/287 296/296 290/290
f 304/304 307/307 147/147
f 304/304 147/147 139/139
f 304/304 139/139 298/298
f 304/304 298/298 302/302
f 95/95 165/165 153/153
f 153/153 83/83 95/95
f 152/152 164/164 166/166
f 166/166 155/155 152/152
f 312/312 292/292 145/145
f 312/312 145/145 160/160
f 312/312 160/160 173/173
f 312/312 173/173 311/311
f 323/323 321/321 319/319
f 323/323 319/319 315/315
f 323/323 315/315 162/162
f 323/323 162/162 94/94
f 323/323 94/94 225/225
f 314/314 326/326 327/327
f 314/314 327/327 169/169
f 314/314 169/169 163/163
f 171/171 333/333 330/330
f 330/330 309/309 171/171
f 388/388 384/384 174/174
f 388/388 174/174 104/104
f 388/388 104/104 390/390
f 175/175 178/178 113/113
f 113/113 103/103 175/175
f 341/341 250/250 111/111
f 341/341 111/111 181/181
f 341/341 181/181 337/337
f 341/341 337/337 335/335
f 469/469 148/148 185/185
f 469/469 185/185 449/449
f 469/469 449/449 445/445
f 469/469 445/445 443/443
f 450/450 448/448 184/184
f 450/450 184/184 186/186
f 450/450 186/186 523/523
f 450/450 523/523 439/439
f 524/524 189/189 177/177
f 524/524 177/177 386/386
f 524/524 386/386 381/381
f 524/524 381/381 438/438
f 524/524 438/438 433/433
f 347/347 350/350 182/182
f 347/347 182/182 149/149
f 347/347 149/149 308/308
f 347/347 308/308 344/344
f 348/348 351/351 192/192
f 348/348 192/192 187/187
f 348/348 187/187 183/183
f 188/188 193/193 180/180
f 180/180 176/176 188/188
f 354/354 357/357 190/190
f 190/190 353/353 354/354
f 362/362 339/339 179/179
f 362/362 179/179 191/191
f 362/362 191/191 358/358
f 362/362 358/358 361/361
f 466/466 157/157 158/158
f 466/466 158/158 454/454
f 466/466 454/454 459/459
f 466/466 459/459 463/463
f 167/167 170/170 161/161
f 161/161 156/156 167/167
f 370/370 366/366 332/332
f 370/370 332/332 172/172
f 370/370 172/172 168/168
f 370/370 168/168 328/328
f 370/370 328/328 367/367
f 254/254 249/249 246/246
f 254/254 246/246 1/1
f 254/254 1/1 7/7
f 254/254 7/7 276/276
f 8/8 5/5 14/14
f 324/324 224/224 226/226
f 329/329 325/325 316/316
f 329/329 316/316 317/317
f 329/329 317/317 18/18
f 329/329 18/18 369/369
f 322/322 228/228 221/221
f 322/322 221/221 233/233
f 322/322 233/233 21/21
f 322/322 21/21 318/318
f 322/322 318/318 320/320
f 280/280 23/23 232/232
f 280/280 232/232 231/231
f 280/280 231/231 236/236
f 280/280 236/236 237/237
f 295/295 32/32 291/291
f 306/306 305/305 301/301
f 306/306 301/301 40/40
f 306/306 40/40 12/12
f 306/306 12/12 346/346
f 306/306 346/346 343/343
f 365/365 372/372 30/30
f 365/365 30/30 297/297
f 365/365 297/297 293/293
f 365/365 293/293 313/313
f 365/365 313/313 310/310
f 365/365 310/310 331/331
f 365/365 331/331 334/334
f 371/371 368/368 19/19
f 19/19 34/34 371/371
f 289/289 33/33 38/38
f 289/289 38/38 303/303
f 289/289 303/303 300/300
f 289/289 300/300 288/288
f 36/36 31/31 47/47
f 20/20 46/46 35/35
f 45/45 22/22 279/279
f 279/279 283/283 45/45
f 37/37 6/6 16/16
f 261/261 11/11 41/41
f 261/261 41/41 215/215
f 261/261 215/215 209/209
f 261/261 209/209 212/212
f 261/261 212/212 258/258
f 214/214 39/39 44/44
f 214/214 44/44 200/200
f 214/214 200/200 195/195
f 214/214 195/195 198/198
f 207/207 199/199 43/43
f 285/285 244/244 241/241
f 285/285 241/241 218/218
f 285/285 218/218 216/216
f 285/285 216/216 204/204
f 285/285 204/204 206/206
f 285/285 206/206 42/42
f 285/285 42/42 284/284
f 349/349 345/345 17/17
f 349/349 17/17 355/355
f 349/349 355/355 352/352
f 359/359 356/356 13/13
f 359/359 13/13 364/364
f 359/359 364/364 360/360
f 342/342 336/336 338/338
f 342/342 338/338 363/363
f 342/342 363/363 15/15
f 342/342 15/15 3/3
f 9/9 259/259 262/262
f 9/9 262/262 265/265
f 9/9 265/265 269/269
f 277/277 275/275 10/10
f 277/277 10/10 268/268
f 277/277 268/268 272/272
f 251/251 340/340 4/4
f 4/4 251/251 251/251
f 253/253 2/2 247/247

