# https://github.com/mikedh/trimesh
mtllib material.mtl

o joint_0
usemtl material_0
v 0.00072100 -0.00085900 -0.00090300
v 0.00072100 -0.00085900 -0.00090300
v 0.00072100 -0.00085900 -0.00090300
v 0.00072100 -0.00085900 -0.00090300
v 0.00072100 -0.00085900 -0.00090300
v 0.00009700 0.00000000 -0.00090300
v 0.00009700 0.00000000 -0.00090300
v 0.00009700 0.00000000 -0.00090300
v 0.00009700 0.00000000 -0.00090300
v 0.00009700 0.00000000 -0.00090300
v 0.00072100 0.00085900 -0.00090300
v 0.00072100 0.00085900 -0.00090300
v 0.00072100 0.00085900 -0.00090300
v 0.00072100 0.00085900 -0.00090300
v 0.00072100 0.00085900 -0.00090300
v 0.00026900 -0.00053100 0.00090300
v 0.00026900 -0.00053100 0.00090300
v 0.00026900 -0.00053100 0.00090300
v 0.00026900 -0.00053100 0.00090300
v 0.00026900 -0.00053100 0.00090300
v 0.00026900 0.00053100 0.00090300
v 0.00026900 0.00053100 0.00090300
v 0.00026900 0.00053100 0.00090300
v 0.00026900 0.00053100 0.00090300
v 0.00026900 0.00053100 0.00090300
v -0.00090300 0.00000000 -0.00090300
v -0.00090300 0.00000000 -0.00090300
v -0.00090300 0.00000000 -0.00090300
v -0.00090300 0.00000000 -0.00090300
v -0.00090300 0.00000000 -0.00090300
v 0.00023900 0.00000000 -0.00132800
v 0.00023900 0.00000000 -0.00132800
v 0.00023900 0.00000000 -0.00132800
v 0.00023900 0.00000000 -0.00132800
v 0.00023900 0.00000000 -0.00132800
v 0.00023900 0.00000000 -0.00132800
v 0.00051100 -0.00072400 -0.00101500
v 0.00051100 -0.00072400 -0.00101500
v 0.00051100 -0.00072400 -0.00101500
v 0.00051100 -0.00072400 -0.00101500
v 0.00051100 -0.00072400 -0.00101500
v 0.00051100 -0.00072400 -0.00101500
v 0.00030500 -0.00050500 -0.00106200
v 0.00030500 -0.00050500 -0.00106200
v 0.00030500 -0.00050500 -0.00106200
v 0.00030500 -0.00050500 -0.00106200
v 0.00030500 -0.00050500 -0.00106200
v 0.00030500 -0.00050500 -0.00106200
v 0.00016100 -0.00024100 -0.00101500
v 0.00016100 -0.00024100 -0.00101500
v 0.00016100 -0.00024100 -0.00101500
v 0.00016100 -0.00024100 -0.00101500
v 0.00016100 -0.00024100 -0.00101500
v 0.00016100 -0.00024100 -0.00101500
v 0.00016100 0.00024100 -0.00101500
v 0.00016100 0.00024100 -0.00101500
v 0.00016100 0.00024100 -0.00101500
v 0.00016100 0.00024100 -0.00101500
v 0.00016100 0.00024100 -0.00101500
v 0.00016100 0.00024100 -0.00101500
v 0.00030500 0.00050500 -0.00106200
v 0.00030500 0.00050500 -0.00106200
v 0.00030500 0.00050500 -0.00106200
v 0.00030500 0.00050500 -0.00106200
v 0.00030500 0.00050500 -0.00106200
v 0.00030500 0.00050500 -0.00106200
v -0.00073100 -0.00053100 0.00090300
v -0.00073100 -0.00053100 0.00090300
v -0.00073100 -0.00053100 0.00090300
v -0.00073100 -0.00053100 0.00090300
v -0.00073100 -0.00053100 0.00090300
v 0.00051100 0.00072400 -0.00101500
v 0.00051100 0.00072400 -0.00101500
v 0.00051100 0.00072400 -0.00101500
v 0.00051100 0.00072400 -0.00101500
v 0.00051100 0.00072400 -0.00101500
v 0.00051100 0.00072400 -0.00101500
v -0.00073100 0.00053100 0.00090300
v -0.00073100 0.00053100 0.00090300
v -0.00073100 0.00053100 0.00090300
v -0.00073100 0.00053100 0.00090300
v -0.00073100 0.00053100 0.00090300
v 0.00084300 -0.00096500 -0.00050700
v 0.00084300 -0.00096500 -0.00050700
v 0.00084300 -0.00096500 -0.00050700
v 0.00084300 -0.00096500 -0.00050700
v 0.00084300 -0.00096500 -0.00050700
v 0.00084300 -0.00096500 -0.00050700
v 0.00013100 -0.00044700 0.00050700
v 0.00013100 -0.00044700 0.00050700
v 0.00013100 -0.00044700 0.00050700
v 0.00013100 -0.00044700 0.00050700
v 0.00013100 -0.00044700 0.00050700
v 0.00013100 -0.00044700 0.00050700
v 0.00003900 -0.00031200 -0.00000000
v 0.00003900 -0.00031200 -0.00000000
v 0.00003900 -0.00031200 -0.00000000
v 0.00003900 -0.00031200 -0.00000000
v 0.00003900 -0.00031200 -0.00000000
v 0.00003900 -0.00031200 -0.00000000
v 0.00003400 -0.00014900 -0.00050700
v 0.00003400 -0.00014900 -0.00050700
v 0.00003400 -0.00014900 -0.00050700
v 0.00003400 -0.00014900 -0.00050700
v 0.00003400 -0.00014900 -0.00050700
v 0.00003400 -0.00014900 -0.00050700
v 0.00056000 -0.00087300 -0.00050700
v 0.00056000 -0.00087300 -0.00050700
v 0.00056000 -0.00087300 -0.00050700
v 0.00056000 -0.00087300 -0.00050700
v 0.00056000 -0.00087300 -0.00050700
v 0.00056000 -0.00087300 -0.00050700
v 0.00040600 -0.00081700 0.00000000
v 0.00040600 -0.00081700 0.00000000
v 0.00040600 -0.00081700 0.00000000
v 0.00040600 -0.00081700 0.00000000
v 0.00040600 -0.00081700 0.00000000
v 0.00040600 -0.00081700 0.00000000
v 0.00030600 -0.00068900 0.00050700
v 0.00030600 -0.00068900 0.00050700
v 0.00030600 -0.00068900 0.00050700
v 0.00030600 -0.00068900 0.00050700
v 0.00030600 -0.00068900 0.00050700
v 0.00030600 -0.00068900 0.00050700
v 0.00030600 0.00068900 0.00050700
v 0.00030600 0.00068900 0.00050700
v 0.00030600 0.00068900 0.00050700
v 0.00030600 0.00068900 0.00050700
v 0.00030600 0.00068900 0.00050700
v 0.00030600 0.00068900 0.00050700
v 0.00040600 0.00081700 -0.00000000
v 0.00040600 0.00081700 -0.00000000
v 0.00040600 0.00081700 -0.00000000
v 0.00040600 0.00081700 -0.00000000
v 0.00040600 0.00081700 -0.00000000
v 0.00040600 0.00081700 -0.00000000
v 0.00056000 0.00087300 -0.00050700
v 0.00056000 0.00087300 -0.00050700
v 0.00056000 0.00087300 -0.00050700
v 0.00056000 0.00087300 -0.00050700
v 0.00056000 0.00087300 -0.00050700
v 0.00056000 0.00087300 -0.00050700
v -0.00069500 -0.00050500 -0.00106200
v -0.00069500 -0.00050500 -0.00106200
v -0.00069500 -0.00050500 -0.00106200
v -0.00069500 -0.00050500 -0.00106200
v -0.00069500 -0.00050500 -0.00106200
v -0.00069500 -0.00050500 -0.00106200
v 0.00003400 0.00014900 -0.00050700
v 0.00003400 0.00014900 -0.00050700
v 0.00003400 0.00014900 -0.00050700
v 0.00003400 0.00014900 -0.00050700
v 0.00003400 0.00014900 -0.00050700
v 0.00003400 0.00014900 -0.00050700
v -0.00083900 -0.00024100 -0.00101500
v -0.00083900 -0.00024100 -0.00101500
v -0.00083900 -0.00024100 -0.00101500
v -0.00083900 -0.00024100 -0.00101500
v -0.00083900 -0.00024100 -0.00101500
v -0.00083900 -0.00024100 -0.00101500
v 0.00003900 0.00031200 0.00000000
v 0.00003900 0.00031200 0.00000000
v 0.00003900 0.00031200 0.00000000
v 0.00003900 0.00031200 0.00000000
v 0.00003900 0.00031200 0.00000000
v 0.00003900 0.00031200 0.00000000
v 0.00013100 0.00044700 0.00050700
v 0.00013100 0.00044700 0.00050700
v 0.00013100 0.00044700 0.00050700
v 0.00013100 0.00044700 0.00050700
v 0.00013100 0.00044700 0.00050700
v 0.00013100 0.00044700 0.00050700
v 0.00084300 0.00096500 -0.00050700
v 0.00084300 0.00096500 -0.00050700
v 0.00084300 0.00096500 -0.00050700
v 0.00084300 0.00096500 -0.00050700
v 0.00084300 0.00096500 -0.00050700
v 0.00084300 0.00096500 -0.00050700
v -0.00083900 0.00024100 -0.00101500
v -0.00083900 0.00024100 -0.00101500
v -0.00083900 0.00024100 -0.00101500
v -0.00083900 0.00024100 -0.00101500
v -0.00083900 0.00024100 -0.00101500
v -0.00083900 0.00024100 -0.00101500
v 0.00017900 -0.00029800 0.00101500
v 0.00017900 -0.00029800 0.00101500
v 0.00017900 -0.00029800 0.00101500
v 0.00017900 -0.00029800 0.00101500
v 0.00017900 -0.00029800 0.00101500
v 0.00017900 -0.00029800 0.00101500
v -0.00069500 0.00050500 -0.00106200
v -0.00069500 0.00050500 -0.00106200
v -0.00069500 0.00050500 -0.00106200
v -0.00069500 0.00050500 -0.00106200
v -0.00069500 0.00050500 -0.00106200
v -0.00069500 0.00050500 -0.00106200
v 0.00014100 0.00000000 0.00106200
v 0.00014100 0.00000000 0.00106200
v 0.00014100 0.00000000 0.00106200
v 0.00014100 0.00000000 0.00106200
v 0.00014100 0.00000000 0.00106200
v 0.00014100 0.00000000 0.00106200
v 0.00017900 0.00029800 0.00101500
v 0.00017900 0.00029800 0.00101500
v 0.00017900 0.00029800 0.00101500
v 0.00017900 0.00029800 0.00101500
v 0.00017900 0.00029800 0.00101500
v 0.00017900 0.00029800 0.00101500
v 0.00037000 -0.00091200 0.00016700
v 0.00037000 -0.00091200 0.00016700
v 0.00037000 -0.00091200 0.00016700
v 0.00037000 -0.00091200 0.00016700
v 0.00033500 -0.00086400 0.00052400
v 0.00033500 -0.00086400 0.00052400
v 0.00033500 -0.00086400 0.00052400
v 0.00033500 -0.00086400 0.00052400
v 0.00042500 -0.00096500 -0.00018200
v 0.00042500 -0.00096500 -0.00018200
v 0.00042500 -0.00096500 -0.00018200
v 0.00042500 -0.00096500 -0.00018200
v 0.00042500 -0.00096500 -0.00018200
v -0.00086900 -0.00044700 0.00050700
v -0.00086900 -0.00044700 0.00050700
v -0.00086900 -0.00044700 0.00050700
v -0.00086900 -0.00044700 0.00050700
v -0.00086900 -0.00044700 0.00050700
v -0.00086900 -0.00044700 0.00050700
v 0.00032500 -0.00072100 0.00087000
v 0.00032500 -0.00072100 0.00087000
v 0.00032500 -0.00072100 0.00087000
v 0.00032500 -0.00072100 0.00087000
v -0.00096100 -0.00031200 -0.00000000
v -0.00096100 -0.00031200 -0.00000000
v -0.00096100 -0.00031200 -0.00000000
v -0.00096100 -0.00031200 -0.00000000
v -0.00096100 -0.00031200 -0.00000000
v -0.00096100 -0.00031200 -0.00000000
v -0.00096600 -0.00014900 -0.00050700
v -0.00096600 -0.00014900 -0.00050700
v -0.00096600 -0.00014900 -0.00050700
v -0.00096600 -0.00014900 -0.00050700
v -0.00096600 -0.00014900 -0.00050700
v -0.00096600 -0.00014900 -0.00050700
v -0.00015000 -0.00092200 0.00015000
v -0.00015000 -0.00092200 0.00015000
v -0.00015000 -0.00092200 0.00015000
v -0.00015000 -0.00092200 0.00015000
v -0.00016800 -0.00083500 0.00050100
v -0.00016800 -0.00083500 0.00050100
v -0.00016800 -0.00083500 0.00050100
v -0.00016800 -0.00083500 0.00050100
v -0.00013200 -0.00091500 -0.00018900
v -0.00013200 -0.00091500 -0.00018900
v -0.00013200 -0.00091500 -0.00018900
v -0.00013200 -0.00091500 -0.00018900
v -0.00059400 -0.00081700 0.00000000
v -0.00059400 -0.00081700 0.00000000
v -0.00059400 -0.00081700 0.00000000
v -0.00059400 -0.00081700 0.00000000
v -0.00059400 -0.00081700 0.00000000
v -0.00059400 -0.00081700 0.00000000
v -0.00018300 -0.00068900 0.00082800
v -0.00018300 -0.00068900 0.00082800
v -0.00018300 -0.00068900 0.00082800
v -0.00018300 -0.00068900 0.00082800
v -0.00069400 -0.00068900 0.00050700
v -0.00069400 -0.00068900 0.00050700
v -0.00069400 -0.00068900 0.00050700
v -0.00069400 -0.00068900 0.00050700
v -0.00069400 -0.00068900 0.00050700
v -0.00069400 -0.00068900 0.00050700
v 0.00054800 0.00085900 0.00055800
v 0.00054800 0.00085900 0.00055800
v 0.00054800 0.00085900 0.00055800
v 0.00054800 0.00085900 0.00055800
v 0.00054800 0.00085900 0.00055800
v 0.00054800 0.00085900 0.00055800
v -0.00069400 0.00068900 0.00050700
v -0.00069400 0.00068900 0.00050700
v -0.00069400 0.00068900 0.00050700
v -0.00069400 0.00068900 0.00050700
v -0.00069400 0.00068900 0.00050700
v -0.00069400 0.00068900 0.00050700
v 0.00004300 0.00016400 0.00055800
v 0.00004300 0.00016400 0.00055800
v 0.00004300 0.00016400 0.00055800
v 0.00004300 0.00016400 0.00055800
v 0.00004300 0.00016400 0.00055800
v 0.00004300 0.00016400 0.00055800
v -0.00059400 0.00081700 -0.00000000
v -0.00059400 0.00081700 -0.00000000
v -0.00059400 0.00081700 -0.00000000
v -0.00059400 0.00081700 -0.00000000
v -0.00059400 0.00081700 -0.00000000
v -0.00059400 0.00081700 -0.00000000
v -0.00022500 -0.00021100 0.00130300
v -0.00022500 -0.00021100 0.00130300
v -0.00022500 -0.00021100 0.00130300
v -0.00022500 -0.00021100 0.00130300
v -0.00001000 -0.00000000 0.00000000
v -0.00001000 -0.00000000 0.00000000
v -0.00001000 -0.00000000 0.00000000
v -0.00001000 -0.00000000 0.00000000
v -0.00001000 -0.00000000 0.00000000
v -0.00001000 -0.00000000 0.00000000
v -0.00096600 0.00014900 -0.00050700
v -0.00096600 0.00014900 -0.00050700
v -0.00096600 0.00014900 -0.00050700
v -0.00096600 0.00014900 -0.00050700
v -0.00096600 0.00014900 -0.00050700
v -0.00096600 0.00014900 -0.00050700
v 0.00004300 -0.00016400 0.00055800
v 0.00004300 -0.00016400 0.00055800
v 0.00004300 -0.00016400 0.00055800
v 0.00004300 -0.00016400 0.00055800
v 0.00004300 -0.00016400 0.00055800
v 0.00004300 -0.00016400 0.00055800
v -0.00096100 0.00031200 0.00000000
v -0.00096100 0.00031200 0.00000000
v -0.00096100 0.00031200 0.00000000
v -0.00096100 0.00031200 0.00000000
v -0.00096100 0.00031200 0.00000000
v -0.00096100 0.00031200 0.00000000
v -0.00027100 -0.00000000 0.00134200
v -0.00027100 -0.00000000 0.00134200
v -0.00027100 -0.00000000 0.00134200
v -0.00086900 0.00044700 0.00050700
v -0.00086900 0.00044700 0.00050700
v -0.00086900 0.00044700 0.00050700
v -0.00086900 0.00044700 0.00050700
v -0.00086900 0.00044700 0.00050700
v -0.00086900 0.00044700 0.00050700
v 0.00054800 -0.00085900 0.00055800
v 0.00054800 -0.00085900 0.00055800
v 0.00054800 -0.00085900 0.00055800
v 0.00054800 -0.00085900 0.00055800
v 0.00054800 -0.00085900 0.00055800
v 0.00054800 -0.00085900 0.00055800
v -0.00082100 -0.00029800 0.00101500
v -0.00082100 -0.00029800 0.00101500
v -0.00082100 -0.00029800 0.00101500
v -0.00082100 -0.00029800 0.00101500
v -0.00082100 -0.00029800 0.00101500
v -0.00082100 -0.00029800 0.00101500
v -0.00085900 0.00000000 0.00106200
v -0.00085900 0.00000000 0.00106200
v -0.00085900 0.00000000 0.00106200
v -0.00085900 0.00000000 0.00106200
v -0.00085900 0.00000000 0.00106200
v -0.00085900 0.00000000 0.00106200
v 0.00018300 0.00059400 -0.00000000
v 0.00018300 0.00059400 -0.00000000
v 0.00018300 0.00059400 -0.00000000
v 0.00018300 0.00059400 -0.00000000
v 0.00018300 0.00059400 -0.00000000
v 0.00018300 0.00059400 -0.00000000
v -0.00082100 0.00029800 0.00101500
v -0.00082100 0.00029800 0.00101500
v -0.00082100 0.00029800 0.00101500
v -0.00082100 0.00029800 0.00101500
v -0.00082100 0.00029800 0.00101500
v -0.00082100 0.00029800 0.00101500
v 0.00032200 0.00069500 -0.00055800
v 0.00032200 0.00069500 -0.00055800
v 0.00032200 0.00069500 -0.00055800
v 0.00032200 0.00069500 -0.00055800
v 0.00032200 0.00069500 -0.00055800
v 0.00032200 0.00069500 -0.00055800
v -0.00074900 -0.00000000 0.00126300
v -0.00074900 -0.00000000 0.00126300
v -0.00074900 -0.00000000 0.00126300
v -0.00074900 -0.00000000 0.00126300
v -0.00074900 -0.00000000 0.00126300
v 0.00013000 0.00043000 -0.00055800
v 0.00013000 0.00043000 -0.00055800
v 0.00013000 0.00043000 -0.00055800
v 0.00013000 0.00043000 -0.00055800
v 0.00013000 0.00043000 -0.00055800
v 0.00013000 0.00043000 -0.00055800
v 0.00018300 -0.00059400 0.00000000
v 0.00018300 -0.00059400 0.00000000
v 0.00018300 -0.00059400 0.00000000
v 0.00018300 -0.00059400 0.00000000
v 0.00018300 -0.00059400 0.00000000
v 0.00018300 -0.00059400 0.00000000
v 0.00013000 -0.00043000 -0.00055800
v 0.00013000 -0.00043000 -0.00055800
v 0.00013000 -0.00043000 -0.00055800
v 0.00013000 -0.00043000 -0.00055800
v 0.00013000 -0.00043000 -0.00055800
v 0.00013000 -0.00043000 -0.00055800
v 0.00032200 -0.00069500 -0.00055800
v 0.00032200 -0.00069500 -0.00055800
v 0.00032200 -0.00069500 -0.00055800
v 0.00032200 -0.00069500 -0.00055800
v 0.00032200 -0.00069500 -0.00055800
v 0.00032200 -0.00069500 -0.00055800
v -0.00014300 -0.00087000 -0.00047400
v -0.00014300 -0.00087000 -0.00047400
v -0.00014300 -0.00087000 -0.00047400
v -0.00014300 -0.00087000 -0.00047400
v 0.00032300 -0.00091800 -0.00044200
v 0.00032300 -0.00091800 -0.00044200
v 0.00032300 -0.00091800 -0.00044200
v 0.00032300 -0.00091800 -0.00044200
v 0.00086000 -0.00097200 -0.00037100
v 0.00086000 -0.00097200 -0.00037100
v 0.00086000 -0.00097200 -0.00037100
v 0.00086000 -0.00097200 -0.00037100
v -0.00095700 0.00016400 0.00055800
v -0.00095700 0.00016400 0.00055800
v -0.00095700 0.00016400 0.00055800
v -0.00095700 0.00016400 0.00055800
v -0.00095700 0.00016400 0.00055800
v -0.00095700 0.00016400 0.00055800
v -0.00101000 -0.00000000 0.00000000
v -0.00101000 -0.00000000 0.00000000
v -0.00101000 -0.00000000 0.00000000
v -0.00101000 -0.00000000 0.00000000
v -0.00101000 -0.00000000 0.00000000
v -0.00101000 -0.00000000 0.00000000
v 0.00089200 -0.00096500 -0.00061700
v 0.00089200 -0.00096500 -0.00061700
v 0.00089200 -0.00096500 -0.00061700
v 0.00089200 -0.00096500 -0.00061700
v 0.00088600 -0.00091000 -0.00084500
v 0.00088600 -0.00091000 -0.00084500
v 0.00088600 -0.00091000 -0.00084500
v 0.00088600 -0.00091000 -0.00084500
v -0.00095700 -0.00016400 0.00055800
v -0.00095700 -0.00016400 0.00055800
v -0.00095700 -0.00016400 0.00055800
v -0.00095700 -0.00016400 0.00055800
v -0.00095700 -0.00016400 0.00055800
v -0.00095700 -0.00016400 0.00055800
v 0.00029500 -0.00089600 -0.00069700
v 0.00029500 -0.00089600 -0.00069700
v 0.00029500 -0.00089600 -0.00069700
v 0.00029500 -0.00089600 -0.00069700
v 0.00036100 -0.00084200 -0.00092100
v 0.00036100 -0.00084200 -0.00092100
v 0.00036100 -0.00084200 -0.00092100
v 0.00036100 -0.00084200 -0.00092100
v 0.00049000 -0.00077900 -0.00109200
v 0.00049000 -0.00077900 -0.00109200
v 0.00049000 -0.00077900 -0.00109200
v 0.00049000 -0.00077900 -0.00109200
v -0.00081700 0.00059400 -0.00000000
v -0.00081700 0.00059400 -0.00000000
v -0.00081700 0.00059400 -0.00000000
v -0.00081700 0.00059400 -0.00000000
v -0.00081700 0.00059400 -0.00000000
v -0.00081700 0.00059400 -0.00000000
v 0.00100000 0.00096300 -0.00053400
v 0.00100000 0.00096300 -0.00053400
v 0.00100000 0.00096300 -0.00053400
v -0.00067800 0.00069500 -0.00055800
v -0.00067800 0.00069500 -0.00055800
v -0.00067800 0.00069500 -0.00055800
v -0.00067800 0.00069500 -0.00055800
v -0.00067800 0.00069500 -0.00055800
v -0.00067800 0.00069500 -0.00055800
v 0.00100000 0.00088800 -0.00093400
v 0.00100000 0.00088800 -0.00093400
v 0.00100000 0.00088800 -0.00093400
v -0.00087000 0.00043000 -0.00055800
v -0.00087000 0.00043000 -0.00055800
v -0.00087000 0.00043000 -0.00055800
v -0.00087000 0.00043000 -0.00055800
v -0.00087000 0.00043000 -0.00055800
v -0.00087000 0.00043000 -0.00055800
v -0.00013600 -0.00086000 -0.00075700
v -0.00013600 -0.00086000 -0.00075700
v -0.00013600 -0.00086000 -0.00075700
v -0.00013600 -0.00086000 -0.00075700
v -0.00081700 -0.00059400 0.00000000
v -0.00081700 -0.00059400 0.00000000
v -0.00081700 -0.00059400 0.00000000
v -0.00081700 -0.00059400 0.00000000
v -0.00081700 -0.00059400 0.00000000
v -0.00081700 -0.00059400 0.00000000
v -0.00087000 -0.00043000 -0.00055800
v -0.00087000 -0.00043000 -0.00055800
v -0.00087000 -0.00043000 -0.00055800
v -0.00087000 -0.00043000 -0.00055800
v -0.00087000 -0.00043000 -0.00055800
v -0.00087000 -0.00043000 -0.00055800
v -0.00067800 -0.00069500 -0.00055800
v -0.00067800 -0.00069500 -0.00055800
v -0.00067800 -0.00069500 -0.00055800
v -0.00067800 -0.00069500 -0.00055800
v -0.00067800 -0.00069500 -0.00055800
v -0.00067800 -0.00069500 -0.00055800
v 0.00100000 -0.00096300 -0.00053400
v 0.00100000 -0.00096300 -0.00053400
v 0.00100000 -0.00096300 -0.00053400
v 0.00100000 -0.00088800 -0.00093400
v 0.00100000 -0.00088800 -0.00093400
v 0.00100000 -0.00088800 -0.00093400
v -0.00007800 -0.00072900 -0.00099800
v -0.00007800 -0.00072900 -0.00099800
v -0.00007800 -0.00072900 -0.00099800
v -0.00007800 -0.00072900 -0.00099800
v -0.00058500 -0.00063200 -0.00099500
v -0.00058500 -0.00063200 -0.00099500
v -0.00058500 -0.00063200 -0.00099500
v -0.00058500 -0.00063200 -0.00099500
v 0.00004500 -0.00052800 -0.00128300
v 0.00004500 -0.00052800 -0.00128300
v 0.00004500 -0.00052800 -0.00128300
v 0.00004500 -0.00052800 -0.00128300
v 0.00004500 -0.00052800 -0.00128300
v -0.00058000 -0.00038400 -0.00124000
v -0.00058000 -0.00038400 -0.00124000
v -0.00058000 -0.00038400 -0.00124000
v -0.00058000 -0.00038400 -0.00124000
v -0.00065900 -0.00000000 -0.00126600
v -0.00065900 -0.00000000 -0.00126600
v -0.00065900 -0.00000000 -0.00126600
v -0.00065900 -0.00000000 -0.00126600
v -0.00023600 -0.00000000 -0.00133200
v -0.00023600 -0.00000000 -0.00133200
v -0.00023600 -0.00000000 -0.00133200
v -0.00023600 -0.00000000 -0.00133200
v 0.00091100 -0.00088500 -0.00095600
v 0.00091100 -0.00088500 -0.00095600
v 0.00091100 -0.00088500 -0.00095600
v 0.00091100 -0.00088500 -0.00095600
v 0.00069000 -0.00086200 -0.00098700
v 0.00069000 -0.00086200 -0.00098700
v 0.00069000 -0.00086200 -0.00098700
v 0.00083600 -0.00098200 -0.00030300
v 0.00083600 -0.00098200 -0.00030300
v 0.00083600 -0.00098200 -0.00030300
v 0.00083600 -0.00098200 -0.00030300
v 0.00063700 -0.00096500 -0.00031500
v 0.00063700 -0.00096500 -0.00031500
v 0.00063700 -0.00096500 -0.00031500
v 0.00062500 -0.00095200 -0.00043300
v 0.00062500 -0.00095200 -0.00043300
v 0.00062500 -0.00095200 -0.00043300
v 0.00062500 -0.00095200 -0.00043300
v 0.00061900 -0.00093200 -0.00066100
v 0.00061900 -0.00093200 -0.00066100
v 0.00061900 -0.00093200 -0.00066100
v 0.00061900 -0.00093200 -0.00066100
v 0.00066400 -0.00089500 -0.00087000
v 0.00066400 -0.00089500 -0.00087000
v 0.00066400 -0.00089500 -0.00087000
v 0.00066400 -0.00089500 -0.00087000
v -0.00071400 -0.00042300 0.00108700
v -0.00071400 -0.00042300 0.00108700
v -0.00071400 -0.00042300 0.00108700
v -0.00071400 -0.00042300 0.00108700
v -0.00020400 -0.00050000 0.00111900
v -0.00020400 -0.00050000 0.00111900
v -0.00020400 -0.00050000 0.00111900
v -0.00020400 -0.00050000 0.00111900
v 0.00032500 -0.00055100 0.00114300
v 0.00032500 -0.00055100 0.00114300
v 0.00032500 -0.00055100 0.00114300
v 0.00032500 -0.00055100 0.00114300
v 0.00037000 0.00091200 0.00016700
v 0.00037000 0.00091200 0.00016700
v 0.00037000 0.00091200 0.00016700
v 0.00037000 0.00091200 0.00016700
v 0.00033500 0.00086400 0.00052400
v 0.00033500 0.00086400 0.00052400
v 0.00033500 0.00086400 0.00052400
v 0.00033500 0.00086400 0.00052400
v 0.00032500 0.00072100 0.00087000
v 0.00032500 0.00072100 0.00087000
v 0.00032500 0.00072100 0.00087000
v 0.00032500 0.00072100 0.00087000
v 0.00042500 0.00096500 -0.00018200
v 0.00042500 0.00096500 -0.00018200
v 0.00042500 0.00096500 -0.00018200
v 0.00042500 0.00096500 -0.00018200
v 0.00042500 0.00096500 -0.00018200
v 0.00032500 0.00055100 0.00114300
v 0.00032500 0.00055100 0.00114300
v 0.00032500 0.00055100 0.00114300
v 0.00032500 0.00055100 0.00114300
v -0.00016800 0.00083500 0.00050100
v -0.00016800 0.00083500 0.00050100
v -0.00016800 0.00083500 0.00050100
v -0.00016800 0.00083500 0.00050100
v -0.00015000 0.00092200 0.00015000
v -0.00015000 0.00092200 0.00015000
v -0.00015000 0.00092200 0.00015000
v -0.00015000 0.00092200 0.00015000
v -0.00018300 0.00068900 0.00082800
v -0.00018300 0.00068900 0.00082800
v -0.00018300 0.00068900 0.00082800
v -0.00018300 0.00068900 0.00082800
v -0.00013200 0.00091500 -0.00018900
v -0.00013200 0.00091500 -0.00018900
v -0.00013200 0.00091500 -0.00018900
v -0.00013200 0.00091500 -0.00018900
v -0.00020400 0.00050000 0.00111900
v -0.00020400 0.00050000 0.00111900
v -0.00020400 0.00050000 0.00111900
v -0.00020400 0.00050000 0.00111900
v -0.00022500 0.00021100 0.00130300
v -0.00022500 0.00021100 0.00130300
v -0.00022500 0.00021100 0.00130300
v -0.00022500 0.00021100 0.00130300
v -0.00071400 0.00042300 0.00108700
v -0.00071400 0.00042300 0.00108700
v -0.00071400 0.00042300 0.00108700
v -0.00071400 0.00042300 0.00108700
v -0.00014300 0.00087000 -0.00047400
v -0.00014300 0.00087000 -0.00047400
v -0.00014300 0.00087000 -0.00047400
v -0.00014300 0.00087000 -0.00047400
v 0.00032300 0.00091800 -0.00044200
v 0.00032300 0.00091800 -0.00044200
v 0.00032300 0.00091800 -0.00044200
v 0.00032300 0.00091800 -0.00044200
v 0.00086000 0.00097200 -0.00037100
v 0.00086000 0.00097200 -0.00037100
v 0.00086000 0.00097200 -0.00037100
v 0.00086000 0.00097200 -0.00037100
v 0.00086000 0.00097200 -0.00037100
v 0.00089200 0.00096500 -0.00061700
v 0.00089200 0.00096500 -0.00061700
v 0.00089200 0.00096500 -0.00061700
v 0.00089200 0.00096500 -0.00061700
v 0.00063700 0.00096500 -0.00031500
v 0.00063700 0.00096500 -0.00031500
v 0.00063700 0.00096500 -0.00031500
v 0.00062500 0.00095200 -0.00043300
v 0.00062500 0.00095200 -0.00043300
v 0.00062500 0.00095200 -0.00043300
v 0.00062500 0.00095200 -0.00043300
v 0.00083600 0.00098200 -0.00030300
v 0.00083600 0.00098200 -0.00030300
v 0.00083600 0.00098200 -0.00030300
v 0.00083600 0.00098200 -0.00030300
v 0.00061900 0.00093200 -0.00066100
v 0.00061900 0.00093200 -0.00066100
v 0.00061900 0.00093200 -0.00066100
v 0.00061900 0.00093200 -0.00066100
v 0.00029500 0.00089600 -0.00069700
v 0.00029500 0.00089600 -0.00069700
v 0.00029500 0.00089600 -0.00069700
v 0.00029500 0.00089600 -0.00069700
v -0.00013600 0.00086000 -0.00075700
v -0.00013600 0.00086000 -0.00075700
v -0.00013600 0.00086000 -0.00075700
v -0.00013600 0.00086000 -0.00075700
v 0.00088600 0.00091000 -0.00084500
v 0.00088600 0.00091000 -0.00084500
v 0.00088600 0.00091000 -0.00084500
v 0.00088600 0.00091000 -0.00084500
v 0.00066400 0.00089500 -0.00087000
v 0.00066400 0.00089500 -0.00087000
v 0.00066400 0.00089500 -0.00087000
v 0.00066400 0.00089500 -0.00087000
v 0.00036100 0.00084200 -0.00092100
v 0.00036100 0.00084200 -0.00092100
v 0.00036100 0.00084200 -0.00092100
v 0.00036100 0.00084200 -0.00092100
v -0.00007800 0.00072900 -0.00099800
v -0.00007800 0.00072900 -0.00099800
v -0.00007800 0.00072900 -0.00099800
v -0.00007800 0.00072900 -0.00099800
v 0.00049000 0.00077900 -0.00109200
v 0.00049000 0.00077900 -0.00109200
v 0.00049000 0.00077900 -0.00109200
v 0.00049000 0.00077900 -0.00109200
v 0.00091100 0.00088500 -0.00095600
v 0.00091100 0.00088500 -0.00095600
v 0.00091100 0.00088500 -0.00095600
v 0.00091100 0.00088500 -0.00095600
v 0.00069000 0.00086200 -0.00098700
v 0.00069000 0.00086200 -0.00098700
v 0.00069000 0.00086200 -0.00098700
v 0.00004500 0.00052800 -0.00128300
v 0.00004500 0.00052800 -0.00128300
v 0.00004500 0.00052800 -0.00128300
v 0.00004500 0.00052800 -0.00128300
v 0.00004500 0.00052800 -0.00128300
v -0.00058500 0.00063200 -0.00099500
v -0.00058500 0.00063200 -0.00099500
v -0.00058500 0.00063200 -0.00099500
v -0.00058500 0.00063200 -0.00099500
v -0.00058000 0.00038400 -0.00124000
v -0.00058000 0.00038400 -0.00124000
v -0.00058000 0.00038400 -0.00124000
v -0.00058000 0.00038400 -0.00124000
v 0.00063000 -0.00090500 0.00036800
v 0.00063000 -0.00090500 0.00036800
v 0.00063200 -0.00092000 0.00022200
v 0.00063200 -0.00092000 0.00022200
v 0.00063200 -0.00092000 0.00022200
v 0.00063700 -0.00092500 0.00017600
v 0.00063700 -0.00092500 0.00017600
v 0.00063700 -0.00092500 0.00017600
v 0.00061200 -0.00088300 0.00053100
v 0.00061200 -0.00088300 0.00053100
v 0.00061200 -0.00088300 0.00053100
v 0.00053900 -0.00082300 0.00067100
v 0.00053900 -0.00082300 0.00067100
v 0.00055900 -0.00085700 0.00058800
v 0.00055900 -0.00085700 0.00058800
v 0.00055900 -0.00085700 0.00058800
v 0.00058100 -0.00087000 0.00055800
v 0.00058100 -0.00087000 0.00055800
v 0.00058100 -0.00087000 0.00055800
v 0.00051000 -0.00078200 0.00076400
v 0.00051000 -0.00078200 0.00076400
v 0.00051000 -0.00078200 0.00076400
v 0.00047900 -0.00073300 0.00087700
v 0.00047900 -0.00073300 0.00087700
v 0.00047900 -0.00073300 0.00087700
v 0.00065400 -0.00094300 0.00000100
v 0.00065400 -0.00094300 0.00000100
v 0.00065400 -0.00094300 -0.00000000
v 0.00065400 -0.00094300 -0.00000000
v 0.00065400 -0.00094300 -0.00000000
v 0.00076400 -0.00096700 -0.00014300
v 0.00076400 -0.00096700 -0.00014300
v 0.00076400 -0.00096700 -0.00014300
v 0.00072200 -0.00096200 -0.00011300
v 0.00072200 -0.00096200 -0.00011300
v 0.00072200 -0.00096200 -0.00011300
v 0.00067500 -0.00095100 -0.00005200
v 0.00067500 -0.00095100 -0.00005200
v 0.00067500 -0.00095100 -0.00005200
v 0.00040200 -0.00055600 0.00114700
v 0.00040200 -0.00055600 0.00114700
v 0.00040200 -0.00055600 0.00114700
v 0.00038400 -0.00052500 0.00117100
v 0.00038400 -0.00052500 0.00117100
v 0.00033700 -0.00040900 0.00126000
v 0.00033700 -0.00040900 0.00126000
v 0.00033700 -0.00040900 0.00126000
v 0.00033700 -0.00041300 0.00125600
v 0.00033700 -0.00041300 0.00125600
v 0.00033700 -0.00041300 0.00125600
v 0.00035300 -0.00047000 0.00121200
v 0.00035300 -0.00047000 0.00121200
v 0.00035300 -0.00047000 0.00121200
v 0.00032900 -0.00029700 0.00135000
v 0.00032900 -0.00029700 0.00135000
v 0.00032800 -0.00028800 0.00135600
v 0.00032800 -0.00028800 0.00135600
v 0.00032800 -0.00028800 0.00135600
v 0.00029100 -0.00013600 0.00139300
v 0.00029100 -0.00013600 0.00139300
v 0.00029100 -0.00013600 0.00139300
v 0.00029600 -0.00018900 0.00137900
v 0.00029600 -0.00018900 0.00137900
v 0.00029600 -0.00018900 0.00137900
v 0.00032500 -0.00028000 0.00135700
v 0.00032500 -0.00028000 0.00135700
v 0.00031000 -0.00000000 0.00143500
v 0.00031000 -0.00000000 0.00143500
v 0.00031000 -0.00000000 0.00143500
v 0.00087200 -0.00096900 -0.00046100
v 0.00087200 -0.00096900 -0.00046100
v 0.00087200 -0.00096900 -0.00046100
v 0.00087200 -0.00096900 -0.00046100
v 0.00087200 -0.00096900 -0.00046100
v 0.00089100 -0.00097800 -0.00036100
v 0.00089100 -0.00097800 -0.00036100
v 0.00089100 -0.00097800 -0.00036100
v 0.00089100 -0.00097800 -0.00036100
v 0.00089100 -0.00097800 -0.00036100
v 0.00100000 -0.00100000 -0.00032600
v 0.00100000 -0.00100000 -0.00032600
v 0.00100000 -0.00100000 -0.00032600
v 0.00100000 -0.00099200 -0.00049000
v 0.00100000 -0.00099200 -0.00049000
v 0.00100000 -0.00099900 -0.00060100
v 0.00100000 -0.00099900 -0.00060100
v 0.00100000 -0.00099900 -0.00060100
v 0.00084900 -0.00097100 -0.00036800
v 0.00084900 -0.00097100 -0.00036800
v 0.00084900 -0.00097100 -0.00036800
v 0.00084400 -0.00097000 -0.00037600
v 0.00084400 -0.00097000 -0.00037600
v 0.00084400 -0.00097000 -0.00037600
v 0.00084400 -0.00097000 -0.00037600
v 0.00084400 -0.00097000 -0.00037600
v 0.00085700 -0.00097300 -0.00036300
v 0.00085700 -0.00097300 -0.00036300
v 0.00085700 -0.00097300 -0.00036300
v 0.00085700 -0.00097300 -0.00036300
v 0.00085700 -0.00097300 -0.00036300
v 0.00084500 -0.00096600 -0.00050100
v 0.00084500 -0.00096600 -0.00050100
v 0.00084500 -0.00096600 -0.00050100
v 0.00084500 -0.00096600 -0.00050100
v 0.00100000 -0.00096600 -0.00074200
v 0.00100000 -0.00096600 -0.00074200
v 0.00100000 -0.00093400 -0.00082600
v 0.00100000 -0.00093400 -0.00082600
v 0.00100000 -0.00093400 -0.00082600
v 0.00089600 -0.00085700 -0.00101600
v 0.00089600 -0.00085700 -0.00101600
v 0.00089600 -0.00085700 -0.00101600
v 0.00077300 -0.00079200 -0.00113200
v 0.00077300 -0.00079200 -0.00113200
v 0.00077300 -0.00079200 -0.00113200
v 0.00091200 -0.00087000 -0.00098900
v 0.00091200 -0.00087000 -0.00098900
v 0.00091200 -0.00087000 -0.00098900
v 0.00095500 -0.00088400 -0.00095500
v 0.00095500 -0.00088400 -0.00095500
v 0.00095500 -0.00088400 -0.00095500
v 0.00100000 -0.00089700 -0.00092300
v 0.00100000 -0.00089700 -0.00092300
v 0.00100000 -0.00089700 -0.00092300
v 0.00100000 -0.00088500 -0.00094800
v 0.00100000 -0.00088500 -0.00094800
v 0.00100000 -0.00088500 -0.00094800
v 0.00099600 -0.00088600 -0.00094600
v 0.00099600 -0.00088600 -0.00094600
v 0.00099600 -0.00088600 -0.00094600
v 0.00058000 -0.00066100 -0.00123100
v 0.00058000 -0.00066100 -0.00123100
v 0.00064300 -0.00072400 -0.00117800
v 0.00064300 -0.00072400 -0.00117800
v 0.00064300 -0.00072400 -0.00117800
v 0.00074500 -0.00078600 -0.00113300
v 0.00074500 -0.00078600 -0.00113300
v 0.00074500 -0.00078600 -0.00113300
v 0.00048400 -0.00051500 -0.00136900
v 0.00048400 -0.00051500 -0.00136900
v 0.00048400 -0.00051500 -0.00136900
v 0.00048600 -0.00052400 -0.00135900
v 0.00048600 -0.00052400 -0.00135900
v 0.00048600 -0.00052400 -0.00135900
v 0.00053300 -0.00061200 -0.00127500
v 0.00053300 -0.00061200 -0.00127500
v 0.00053300 -0.00061200 -0.00127500
v 0.00034800 -0.00031800 -0.00138100
v 0.00034800 -0.00031800 -0.00138100
v 0.00032100 -0.00026100 -0.00138300
v 0.00032100 -0.00026100 -0.00138300
v 0.00032100 -0.00026100 -0.00138300
v 0.00029400 -0.00012500 -0.00139100
v 0.00029400 -0.00012500 -0.00139100
v 0.00029400 -0.00012500 -0.00139100
v 0.00028200 -0.00000000 -0.00140100
v 0.00028200 -0.00000000 -0.00140100
v 0.00028200 -0.00000000 -0.00140100
v 0.00034500 -0.00031400 -0.00138100
v 0.00034500 -0.00031400 -0.00138100
v 0.00034500 -0.00031400 -0.00138100
v 0.00089500 -0.00098000 -0.00034100
v 0.00089500 -0.00098000 -0.00034100
v 0.00089500 -0.00098000 -0.00034100
v 0.00089500 -0.00098000 -0.00034100
v 0.00100000 -0.00099900 -0.00027800
v 0.00100000 -0.00099900 -0.00027800
v 0.00100000 -0.00099900 -0.00027800
v 0.00100000 -0.00099100 -0.00032000
v 0.00100000 -0.00099100 -0.00032000
v 0.00100000 -0.00099100 -0.00032000
v 0.00091000 -0.00097900 -0.00035300
v 0.00091000 -0.00097900 -0.00035300
v 0.00091000 -0.00097900 -0.00035300
v 0.00091000 -0.00097900 -0.00035300
v 0.00100000 -0.00091200 -0.00091000
v 0.00100000 -0.00091200 -0.00091000
v 0.00089900 -0.00098200 -0.00029200
v 0.00089900 -0.00098200 -0.00029200
v 0.00085100 -0.00097700 -0.00024000
v 0.00085100 -0.00097700 -0.00024000
v 0.00085100 -0.00097700 -0.00024000
v 0.00091000 -0.00098400 -0.00029100
v 0.00091000 -0.00098400 -0.00029100
v 0.00091000 -0.00098400 -0.00029100
v 0.00100000 -0.00098600 -0.00027600
v 0.00100000 -0.00098600 -0.00027600
v 0.00100000 -0.00098600 -0.00027600
v 0.00044200 -0.00069100 0.00093700
v 0.00044200 -0.00069100 0.00093700
v 0.00042200 -0.00065500 0.00099100
v 0.00042200 -0.00065500 0.00099100
v 0.00042200 -0.00065500 0.00099100
v 0.00044000 -0.00068900 0.00094000
v 0.00044000 -0.00068900 0.00094000
v 0.00044000 -0.00068900 0.00094000
v 0.00061200 0.00088300 0.00053100
v 0.00061200 0.00088300 0.00053100
v 0.00061200 0.00088300 0.00053100
v 0.00063000 0.00090500 0.00036800
v 0.00063000 0.00090500 0.00036800
v 0.00063200 0.00092000 0.00022200
v 0.00063200 0.00092000 0.00022200
v 0.00063200 0.00092000 0.00022200
v 0.00063700 0.00092500 0.00017600
v 0.00063700 0.00092500 0.00017600
v 0.00063700 0.00092500 0.00017600
v 0.00051000 0.00078200 0.00076400
v 0.00051000 0.00078200 0.00076400
v 0.00051000 0.00078200 0.00076400
v 0.00053900 0.00082300 0.00067100
v 0.00053900 0.00082300 0.00067100
v 0.00047900 0.00073300 0.00087700
v 0.00047900 0.00073300 0.00087700
v 0.00047900 0.00073300 0.00087700
v 0.00055900 0.00085700 0.00058800
v 0.00055900 0.00085700 0.00058800
v 0.00055900 0.00085700 0.00058800
v 0.00058100 0.00087000 0.00055800
v 0.00058100 0.00087000 0.00055800
v 0.00058100 0.00087000 0.00055800
v 0.00065400 0.00094300 -0.00000000
v 0.00065400 0.00094300 -0.00000000
v 0.00065400 0.00094300 -0.00000000
v 0.00065400 0.00094300 0.00000100
v 0.00065400 0.00094300 0.00000100
v 0.00076400 0.00096700 -0.00014300
v 0.00076400 0.00096700 -0.00014300
v 0.00076400 0.00096700 -0.00014300
v 0.00072200 0.00096200 -0.00011300
v 0.00072200 0.00096200 -0.00011300
v 0.00072200 0.00096200 -0.00011300
v 0.00067500 0.00095100 -0.00005200
v 0.00067500 0.00095100 -0.00005200
v 0.00067500 0.00095100 -0.00005200
v 0.00033700 0.00040900 0.00126000
v 0.00033700 0.00040900 0.00126000
v 0.00033700 0.00040900 0.00126000
v 0.00033700 0.00041300 0.00125600
v 0.00033700 0.00041300 0.00125600
v 0.00033700 0.00041300 0.00125600
v 0.00038400 0.00052500 0.00117100
v 0.00038400 0.00052500 0.00117100
v 0.00035300 0.00047000 0.00121200
v 0.00035300 0.00047000 0.00121200
v 0.00035300 0.00047000 0.00121200
v 0.00040200 0.00055600 0.00114700
v 0.00040200 0.00055600 0.00114700
v 0.00040200 0.00055600 0.00114700
v 0.00032900 0.00029700 0.00135000
v 0.00032900 0.00029700 0.00135000
v 0.00032800 0.00028800 0.00135600
v 0.00032800 0.00028800 0.00135600
v 0.00032800 0.00028800 0.00135600
v 0.00032500 0.00028000 0.00135700
v 0.00032500 0.00028000 0.00135700
v 0.00029100 0.00013600 0.00139300
v 0.00029100 0.00013600 0.00139300
v 0.00029100 0.00013600 0.00139300
v 0.00029600 0.00018900 0.00137900
v 0.00029600 0.00018900 0.00137900
v 0.00029600 0.00018900 0.00137900
v 0.00100000 0.00099200 -0.00049000
v 0.00100000 0.00099200 -0.00049000
v 0.00100000 0.00099900 -0.00060100
v 0.00100000 0.00099900 -0.00060100
v 0.00100000 0.00099900 -0.00060100
v 0.00087200 0.00096900 -0.00046100
v 0.00087200 0.00096900 -0.00046100
v 0.00087200 0.00096900 -0.00046100
v 0.00087200 0.00096900 -0.00046100
v 0.00087200 0.00096900 -0.00046100
v 0.00089100 0.00097800 -0.00036100
v 0.00089100 0.00097800 -0.00036100
v 0.00089100 0.00097800 -0.00036100
v 0.00089100 0.00097800 -0.00036100
v 0.00100000 0.00100000 -0.00032600
v 0.00100000 0.00100000 -0.00032600
v 0.00100000 0.00100000 -0.00032600
v 0.00085700 0.00097300 -0.00036300
v 0.00085700 0.00097300 -0.00036300
v 0.00085700 0.00097300 -0.00036300
v 0.00085700 0.00097300 -0.00036300
v 0.00084900 0.00097100 -0.00036800
v 0.00084900 0.00097100 -0.00036800
v 0.00084900 0.00097100 -0.00036800
v 0.00084400 0.00097000 -0.00037600
v 0.00084400 0.00097000 -0.00037600
v 0.00084400 0.00097000 -0.00037600
v 0.00084400 0.00097000 -0.00037600
v 0.00084400 0.00097000 -0.00037600
v 0.00084500 0.00096600 -0.00050100
v 0.00084500 0.00096600 -0.00050100
v 0.00084500 0.00096600 -0.00050100
v 0.00084500 0.00096600 -0.00050100
v 0.00100000 0.00096600 -0.00074200
v 0.00100000 0.00096600 -0.00074200
v 0.00100000 0.00093400 -0.00082600
v 0.00100000 0.00093400 -0.00082600
v 0.00100000 0.00093400 -0.00082600
v 0.00089600 0.00085700 -0.00101600
v 0.00089600 0.00085700 -0.00101600
v 0.00089600 0.00085700 -0.00101600
v 0.00077300 0.00079200 -0.00113200
v 0.00077300 0.00079200 -0.00113200
v 0.00077300 0.00079200 -0.00113200
v 0.00091200 0.00087000 -0.00098900
v 0.00091200 0.00087000 -0.00098900
v 0.00091200 0.00087000 -0.00098900
v 0.00095500 0.00088400 -0.00095500
v 0.00095500 0.00088400 -0.00095500
v 0.00095500 0.00088400 -0.00095500
v 0.00100000 0.00089700 -0.00092300
v 0.00100000 0.00089700 -0.00092300
v 0.00100000 0.00089700 -0.00092300
v 0.00100000 0.00088500 -0.00094800
v 0.00100000 0.00088500 -0.00094800
v 0.00100000 0.00088500 -0.00094800
v 0.00099600 0.00088600 -0.00094600
v 0.00099600 0.00088600 -0.00094600
v 0.00099600 0.00088600 -0.00094600
v 0.00048400 0.00051500 -0.00136900
v 0.00048400 0.00051500 -0.00136900
v 0.00048400 0.00051500 -0.00136900
v 0.00048600 0.00052400 -0.00135900
v 0.00048600 0.00052400 -0.00135900
v 0.00048600 0.00052400 -0.00135900
v 0.00058000 0.00066100 -0.00123100
v 0.00058000 0.00066100 -0.00123100
v 0.00053300 0.00061200 -0.00127500
v 0.00053300 0.00061200 -0.00127500
v 0.00053300 0.00061200 -0.00127500
v 0.00064300 0.00072400 -0.00117800
v 0.00064300 0.00072400 -0.00117800
v 0.00064300 0.00072400 -0.00117800
v 0.00074500 0.00078600 -0.00113300
v 0.00074500 0.00078600 -0.00113300
v 0.00074500 0.00078600 -0.00113300
v 0.00028200 0.00000000 -0.00140100
v 0.00029400 0.00012500 -0.00139100
v 0.00029400 0.00012500 -0.00139100
v 0.00029400 0.00012500 -0.00139100
v 0.00034800 0.00031800 -0.00138100
v 0.00034800 0.00031800 -0.00138100
v 0.00032100 0.00026100 -0.00138300
v 0.00032100 0.00026100 -0.00138300
v 0.00032100 0.00026100 -0.00138300
v 0.00034500 0.00031400 -0.00138100
v 0.00034500 0.00031400 -0.00138100
v 0.00034500 0.00031400 -0.00138100
v 0.00091000 0.00097900 -0.00035300
v 0.00091000 0.00097900 -0.00035300
v 0.00091000 0.00097900 -0.00035300
v 0.00100000 0.00099100 -0.00032000
v 0.00100000 0.00099100 -0.00032000
v 0.00100000 0.00099100 -0.00032000
v 0.00089500 0.00098000 -0.00034100
v 0.00089500 0.00098000 -0.00034100
v 0.00089500 0.00098000 -0.00034100
v 0.00100000 0.00099900 -0.00027800
v 0.00100000 0.00099900 -0.00027800
v 0.00100000 0.00099900 -0.00027800
v 0.00100000 0.00091200 -0.00091000
v 0.00100000 0.00091200 -0.00091000
v 0.00091000 0.00098400 -0.00029100
v 0.00091000 0.00098400 -0.00029100
v 0.00091000 0.00098400 -0.00029100
v 0.00089900 0.00098200 -0.00029200
v 0.00089900 0.00098200 -0.00029200
v 0.00100000 0.00098600 -0.00027600
v 0.00100000 0.00098600 -0.00027600
v 0.00100000 0.00098600 -0.00027600
v 0.00085100 0.00097700 -0.00024000
v 0.00085100 0.00097700 -0.00024000
v 0.00085100 0.00097700 -0.00024000
v 0.00042200 0.00065500 0.00099100
v 0.00042200 0.00065500 0.00099100
v 0.00042200 0.00065500 0.00099100
v 0.00044000 0.00068900 0.00094000
v 0.00044000 0.00068900 0.00094000
v 0.00044000 0.00068900 0.00094000
v 0.00044200 0.00069100 0.00093700
v 0.00044200 0.00069100 0.00093700
v -0.00043800 0.00080600 -0.00078500
v -0.00043800 0.00080600 -0.00078500
v -0.00043800 0.00080600 -0.00078500
v -0.00046900 0.00078400 -0.00080900
v -0.00046900 0.00078400 -0.00080900
v -0.00046900 0.00078400 -0.00080900
v -0.00046300 0.00080400 -0.00074300
v -0.00046300 0.00080400 -0.00074300
v -0.00046300 0.00080400 -0.00074300
v -0.00070200 -0.00051900 0.00099200
v -0.00070200 -0.00051900 0.00099200
v -0.00070200 -0.00051900 0.00099200
v -0.00070500 -0.00051200 0.00099800
v -0.00070500 -0.00051200 0.00099800
v -0.00070500 -0.00051200 0.00099800
v -0.00067200 -0.00057900 0.00093700
v -0.00067200 -0.00057900 0.00093700
v -0.00067200 -0.00057900 0.00093700
v -0.00075900 0.00034300 0.00110900
v -0.00075900 0.00034300 0.00110900
v -0.00075900 0.00034300 0.00110900
v -0.00072300 0.00042200 0.00108500
v -0.00072300 0.00042200 0.00108500
v -0.00072300 0.00042200 0.00108500
v -0.00070500 0.00051200 0.00099800
v -0.00070500 0.00051200 0.00099800
v -0.00070500 0.00051200 0.00099800
v -0.00072200 0.00042700 0.00108000
v -0.00072200 0.00042700 0.00108000
v -0.00070200 0.00051900 0.00099200
v -0.00070200 0.00051900 0.00099200
v -0.00070200 0.00051900 0.00099200
v -0.00067200 0.00057900 0.00093700
v -0.00067200 0.00057900 0.00093700
v -0.00067200 0.00057900 0.00093700
v -0.00078100 0.00026100 0.00114000
v -0.00078100 0.00026100 0.00114000
v -0.00078100 0.00026100 0.00114000
v -0.00078600 0.00006600 0.00122400
v -0.00078600 0.00006600 0.00122400
v -0.00078600 0.00006600 0.00122400
v -0.00078600 -0.00006600 0.00122400
v -0.00078600 -0.00006600 0.00122400
v -0.00078600 -0.00006600 0.00122400
v -0.00077600 -0.00002300 0.00124500
v -0.00077600 -0.00002300 0.00124500
v -0.00077100 -0.00000000 0.00125600
v -0.00077100 -0.00000000 0.00125600
v -0.00077100 -0.00000000 0.00125600
v -0.00077600 0.00002300 0.00124500
v -0.00077600 0.00002300 0.00124500
v -0.00078100 -0.00026100 0.00114000
v -0.00078100 -0.00026100 0.00114000
v -0.00078100 -0.00026100 0.00114000
v -0.00075900 -0.00034300 0.00110900
v -0.00075900 -0.00034300 0.00110900
v -0.00075900 -0.00034300 0.00110900
v -0.00072300 -0.00042200 0.00108500
v -0.00072300 -0.00042200 0.00108500
v -0.00072300 -0.00042200 0.00108500
v -0.00072200 -0.00042700 0.00108000
v -0.00072200 -0.00042700 0.00108000
v -0.00045300 0.00087100 -0.00039700
v -0.00045300 0.00087100 -0.00039700
v -0.00046200 0.00086500 -0.00043600
v -0.00046200 0.00086500 -0.00043600
v -0.00046200 0.00086500 -0.00043600
v -0.00041900 0.00089700 -0.00021300
v -0.00041900 0.00089700 -0.00021300
v -0.00041900 0.00089700 -0.00021300
v -0.00042500 0.00090000 -0.00005700
v -0.00042500 0.00090000 -0.00005700
v -0.00043700 0.00089700 -0.00000000
v -0.00043700 0.00089700 -0.00000000
v -0.00043700 0.00089700 -0.00000000
v -0.00050600 0.00084300 0.00034400
v -0.00050600 0.00084300 0.00034400
v -0.00050600 0.00084300 0.00034400
v -0.00049000 0.00085700 0.00023400
v -0.00049000 0.00085700 0.00023400
v -0.00043300 0.00089200 0.00012000
v -0.00043300 0.00089200 0.00012000
v -0.00043300 0.00089200 0.00012000
v -0.00050900 0.00082600 0.00047700
v -0.00050900 0.00082600 0.00047700
v -0.00050900 0.00082600 0.00047700
v -0.00054000 0.00079700 0.00054000
v -0.00054000 0.00079700 0.00054000
v -0.00054000 0.00079700 0.00054000
v -0.00059400 0.00068900 0.00083100
v -0.00059400 0.00068900 0.00083100
v -0.00059400 0.00068900 0.00083100
v -0.00058400 0.00070000 0.00081400
v -0.00058400 0.00070000 0.00081400
v -0.00058400 0.00070000 0.00081400
v -0.00054400 0.00079200 0.00055000
v -0.00054400 0.00079200 0.00055000
v -0.00060400 0.00067000 0.00085900
v -0.00060400 0.00067000 0.00085900
v -0.00060400 -0.00067000 0.00085900
v -0.00060400 -0.00067000 0.00085900
v -0.00059400 -0.00068900 0.00083100
v -0.00059400 -0.00068900 0.00083100
v -0.00059400 -0.00068900 0.00083100
v -0.00050900 -0.00082600 0.00047700
v -0.00050900 -0.00082600 0.00047700
v -0.00050900 -0.00082600 0.00047700
v -0.00050600 -0.00084300 0.00034400
v -0.00050600 -0.00084300 0.00034400
v -0.00050600 -0.00084300 0.00034400
v -0.00054000 -0.00079700 0.00054000
v -0.00054000 -0.00079700 0.00054000
v -0.00054000 -0.00079700 0.00054000
v -0.00045300 -0.00087100 -0.00039700
v -0.00045300 -0.00087100 -0.00039700
v -0.00046200 -0.00086500 -0.00043600
v -0.00046200 -0.00086500 -0.00043600
v -0.00046200 -0.00086500 -0.00043600
v -0.00041900 -0.00089700 -0.00021300
v -0.00041900 -0.00089700 -0.00021300
v -0.00041900 -0.00089700 -0.00021300
v -0.00042500 -0.00090000 -0.00005700
v -0.00042500 -0.00090000 -0.00005700
v -0.00043700 -0.00089700 -0.00000000
v -0.00043700 -0.00089700 -0.00000000
v -0.00043700 -0.00089700 -0.00000000
v -0.00058400 -0.00070000 0.00081400
v -0.00058400 -0.00070000 0.00081400
v -0.00058400 -0.00070000 0.00081400
v -0.00054400 -0.00079200 0.00055000
v -0.00054400 -0.00079200 0.00055000
v -0.00049000 -0.00085700 0.00023400
v -0.00049000 -0.00085700 0.00023400
v -0.00043300 -0.00089200 0.00012000
v -0.00043300 -0.00089200 0.00012000
v -0.00043300 -0.00089200 0.00012000
v -0.00046600 0.00085500 -0.00049900
v -0.00046600 0.00085500 -0.00049900
v -0.00046600 0.00085500 -0.00049900
v -0.00046900 0.00085100 -0.00051400
v -0.00046900 0.00085100 -0.00051400
v -0.00046900 0.00085100 -0.00051400
v -0.00054000 0.00071600 -0.00089000
v -0.00054000 0.00071600 -0.00089000
v -0.00054000 0.00071600 -0.00089000
v -0.00047700 0.00080300 -0.00070300
v -0.00047700 0.00080300 -0.00070300
v -0.00067500 0.00052600 -0.00105700
v -0.00067500 0.00052600 -0.00105700
v -0.00067500 0.00052600 -0.00105700
v -0.00058600 0.00063800 -0.00098700
v -0.00058600 0.00063800 -0.00098700
v -0.00058600 0.00063800 -0.00098700
v -0.00059200 0.00062900 -0.00099400
v -0.00059200 0.00062900 -0.00099400
v -0.00059200 0.00062900 -0.00099400
v -0.00046600 -0.00085500 -0.00049900
v -0.00046600 -0.00085500 -0.00049900
v -0.00046600 -0.00085500 -0.00049900
v -0.00046900 -0.00085100 -0.00051400
v -0.00046900 -0.00085100 -0.00051400
v -0.00046900 -0.00085100 -0.00051400
v -0.00067500 -0.00052600 -0.00105700
v -0.00067500 -0.00052600 -0.00105700
v -0.00067500 -0.00052600 -0.00105700
v -0.00058600 -0.00063800 -0.00098700
v -0.00058600 -0.00063800 -0.00098700
v -0.00058600 -0.00063800 -0.00098700
v -0.00059200 -0.00062900 -0.00099400
v -0.00059200 -0.00062900 -0.00099400
v -0.00059200 -0.00062900 -0.00099400
v -0.00054000 -0.00071600 -0.00089000
v -0.00054000 -0.00071600 -0.00089000
v -0.00054000 -0.00071600 -0.00089000
v -0.00047700 -0.00080300 -0.00070300
v -0.00047700 -0.00080300 -0.00070300
v -0.00046900 -0.00078400 -0.00080900
v -0.00046900 -0.00078400 -0.00080900
v -0.00046900 -0.00078400 -0.00080900
v -0.00046300 -0.00080400 -0.00074300
v -0.00046300 -0.00080400 -0.00074300
v -0.00046300 -0.00080400 -0.00074300
v -0.00043800 -0.00080600 -0.00078500
v -0.00043800 -0.00080600 -0.00078500
v -0.00043800 -0.00080600 -0.00078500
v -0.00069000 0.00050600 -0.00107100
v -0.00069000 0.00050600 -0.00107100
v -0.00069000 0.00050600 -0.00107100
v -0.00069300 0.00049300 -0.00108200
v -0.00069300 0.00049300 -0.00108200
v -0.00069300 0.00049300 -0.00108200
v -0.00069900 0.00041500 -0.00115500
v -0.00069900 0.00041500 -0.00115500
v -0.00071300 0.00035100 -0.00119700
v -0.00071300 0.00035100 -0.00119700
v -0.00071300 0.00035100 -0.00119700
v -0.00076100 0.00025100 -0.00119500
v -0.00076100 0.00025100 -0.00119500
v -0.00076100 0.00025100 -0.00119500
v -0.00079100 0.00009300 -0.00120700
v -0.00079100 0.00009300 -0.00120700
v -0.00079100 0.00009300 -0.00120700
v -0.00079800 0.00000000 -0.00121700
v -0.00079800 0.00000000 -0.00121700
v -0.00079800 0.00000000 -0.00121700
v -0.00079800 -0.00000000 -0.00121700
v -0.00079100 -0.00009300 -0.00120700
v -0.00079100 -0.00009300 -0.00120700
v -0.00079100 -0.00009300 -0.00120700
v -0.00076100 -0.00025100 -0.00119500
v -0.00076100 -0.00025100 -0.00119500
v -0.00076100 -0.00025100 -0.00119500
v -0.00071300 -0.00035100 -0.00119700
v -0.00071300 -0.00035100 -0.00119700
v -0.00071300 -0.00035100 -0.00119700
v -0.00069900 -0.00041500 -0.00115500
v -0.00069900 -0.00041500 -0.00115500
v -0.00069300 -0.00049300 -0.00108200
v -0.00069300 -0.00049300 -0.00108200
v -0.00069300 -0.00049300 -0.00108200
v -0.00069000 -0.00050600 -0.00107100
v -0.00069000 -0.00050600 -0.00107100
v -0.00069000 -0.00050600 -0.00107100
vt 0.00000000 0.00000000
vt 0.00000000 0.00000000
vt 0.00000000 0.00000000
vt 0.00000000 0.00000000
vt 0.00000000 0.00000000
vt 0.00000000 0.00000000
vt 0.00000000 0.00000000
vt 0.00000000 0.00000000
vt 0.00000000 0.00000000
vt 0.00000000 0.00000000
vt 0.00000000 0.00000000
vt 0.00000000 0.00000000
vt 0.00000000 0.00000000
vt 0.00000000 0.00000000
vt 0.00000000 0.00000000
vt 0.00000000 0.00000000
vt 0.00000000 0.00000000
vt 0.00000000 0.00000000
vt 0.00000000 0.00000000
vt 0.00000000 0.00000000
vt 0.00000000 0.00000000
vt 0.00000000 0.00000000
vt 0.00000000 0.00000000
vt 0.00000000 0.00000000
vt 0.00000000 0.00000000
vt 0.00000000 0.00000000
vt 0.00000000 0.00000000
vt 0.00000000 0.00000000
vt 0.00000000 0.00000000
vt 0.00000000 0.00000000
vt 0.00000000 0.00000000
vt 0.00000000 0.00000000
vt 0.00000000 0.00000000
vt 0.00000000 0.00000000
vt 0.00000000 0.00000000
vt 0.00000000 0.00000000
vt 0.00000000 0.00000000
vt 0.00000000 0.00000000
vt 0.00000000 0.00000000
vt 0.00000000 0.00000000
vt 0.00000000 0.00000000
vt 0.00000000 0.00000000
vt 0.00000000 0.00000000
vt 0.00000000 0.00000000
vt 0.00000000 0.00000000
vt 0.00000000 0.00000000
vt 0.00000000 0.00000000
vt 0.00000000 0.00000000
vt 0.00000000 0.00000000
vt 0.00000000 0.00000000
vt 0.00000000 0.00000000
vt 0.00000000 0.00000000
vt 0.00000000 0.00000000
vt 0.00000000 0.00000000
vt 0.00000000 0.00000000
vt 0.00000000 0.00000000
vt 0.00000000 0.00000000
vt 0.00000000 0.00000000
vt 0.00000000 0.00000000
vt 0.00000000 0.00000000
vt 0.00000000 0.00000000
vt 0.00000000 0.00000000
vt 0.00000000 0.00000000
vt 0.00000000 0.00000000
vt 0.00000000 0.00000000
vt 0.00000000 0.00000000
vt 0.00000000 0.00000000
vt 0.00000000 0.00000000
vt 0.00000000 0.00000000
vt 0.00000000 0.00000000
vt 0.00000000 0.00000000
vt 0.00000000 0.00000000
vt 0.00000000 0.00000000
vt 0.00000000 0.00000000
vt 0.00000000 0.00000000
vt 0.00000000 0.00000000
vt 0.00000000 0.00000000
vt 0.00000000 0.00000000
vt 0.00000000 0.00000000
vt 0.00000000 0.00000000
vt 0.00000000 0.00000000
vt 0.00000000 0.00000000
vt 0.00000000 0.00000000
vt 0.00000000 0.00000000
vt 0.00000000 0.00000000
vt 0.00000000 0.00000000
vt 0.00000000 0.00000000
vt 0.00000000 0.00000000
vt 0.00000000 0.00000000
vt 0.00000000 0.00000000
vt 0.00000000 0.00000000
vt 0.00000000 0.00000000
vt 0.00000000 0.00000000
vt 0.00000000 0.00000000
vt 0.00000000 0.00000000
vt 0.00000000 0.00000000
vt 0.00000000 0.00000000
vt 0.00000000 0.00000000
vt 0.00000000 0.00000000
vt 0.00000000 0.00000000
vt 0.00000000 0.00000000
vt 0.00000000 0.00000000
vt 0.00000000 0.00000000
vt 0.00000000 0.00000000
vt 0.00000000 0.00000000
vt 0.00000000 0.00000000
vt 0.00000000 0.00000000
vt 0.00000000 0.00000000
vt 0.00000000 0.00000000
vt 0.00000000 0.00000000
vt 0.00000000 0.00000000
vt 0.00000000 0.00000000
vt 0.00000000 0.00000000
vt 0.00000000 0.00000000
vt 0.00000000 0.00000000
vt 0.00000000 0.00000000
vt 0.00000000 0.00000000
vt 0.00000000 0.00000000
vt 0.00000000 0.00000000
vt 0.00000000 0.00000000
vt 0.00000000 0.00000000
vt 0.00000000 0.00000000
vt 0.00000000 0.00000000
vt 0.00000000 0.00000000
vt 0.00000000 0.00000000
vt 0.00000000 0.00000000
vt 0.00000000 0.00000000
vt 0.00000000 0.00000000
vt 0.00000000 0.00000000
vt 0.00000000 0.00000000
vt 0.00000000 0.00000000
vt 0.00000000 0.00000000
vt 0.00000000 0.00000000
vt 0.00000000 0.00000000
vt 0.00000000 0.00000000
vt 0.00000000 0.00000000
vt 0.00000000 0.00000000
vt 0.00000000 0.00000000
vt 0.00000000 0.00000000
vt 0.00000000 0.00000000
vt 0.00000000 0.00000000
vt 0.00000000 0.00000000
vt 0.00000000 0.00000000
vt 0.00000000 0.00000000
vt 0.00000000 0.00000000
vt 0.00000000 0.00000000
vt 0.00000000 0.00000000
vt 0.00000000 0.00000000
vt 0.00000000 0.00000000
vt 0.00000000 0.00000000
vt 0.00000000 0.00000000
vt 0.00000000 0.00000000
vt 0.00000000 0.00000000
vt 0.00000000 0.00000000
vt 0.00000000 0.00000000
vt 0.00000000 0.00000000
vt 0.00000000 0.00000000
vt 0.00000000 0.00000000
vt 0.00000000 0.00000000
vt 0.00000000 0.00000000
vt 0.00000000 0.00000000
vt 0.00000000 0.00000000
vt 0.00000000 0.00000000
vt 0.00000000 0.00000000
vt 0.00000000 0.00000000
vt 0.00000000 0.00000000
vt 0.00000000 0.00000000
vt 0.00000000 0.00000000
vt 0.00000000 0.00000000
vt 0.00000000 0.00000000
vt 0.00000000 0.00000000
vt 0.00000000 0.00000000
vt 0.00000000 0.00000000
vt 0.00000000 0.00000000
vt 0.00000000 0.00000000
vt 0.00000000 0.00000000
vt 0.00000000 0.00000000
vt 0.00000000 0.00000000
vt 0.00000000 0.00000000
vt 0.00000000 0.00000000
vt 0.00000000 0.00000000
vt 0.00000000 0.00000000
vt 0.00000000 0.00000000
vt 0.00000000 0.00000000
vt 0.00000000 0.00000000
vt 0.00000000 0.00000000
vt 0.00000000 0.00000000
vt 0.00000000 0.00000000
vt 0.00000000 0.00000000
vt 0.00000000 0.00000000
vt 0.00000000 0.00000000
vt 0.00000000 0.00000000
vt 0.00000000 0.00000000
vt 0.00000000 0.00000000
vt 0.00000000 0.00000000
vt 0.00000000 0.00000000
vt 0.00000000 0.00000000
vt 0.00000000 0.00000000
vt 0.00000000 0.00000000
vt 0.00000000 0.00000000
vt 0.00000000 0.00000000
vt 0.00000000 0.00000000
vt 0.00000000 0.00000000
vt 0.00000000 0.00000000
vt 0.00000000 0.00000000
vt 0.00000000 0.00000000
vt 0.00000000 0.00000000
vt 0.00000000 0.00000000
vt 0.71436200 0.84563100
vt 0.71436200 0.84563100
vt 0.71436200 0.84563100
vt 0.71436200 0.84563100
vt 0.72734800 0.82955800
vt 0.72734800 0.82955800
vt 0.72734800 0.82955800
vt 0.72734800 0.82955800
vt 0.70048800 0.86094300
vt 0.70048800 0.86094300
vt 0.70048800 0.86094300
vt 0.70048800 0.86094300
vt 0.70048800 0.86094300
vt 0.00000000 0.00000000
vt 0.00000000 0.00000000
vt 0.00000000 0.00000000
vt 0.00000000 0.00000000
vt 0.00000000 0.00000000
vt 0.00000000 0.00000000
vt 0.73964600 0.81248400
vt 0.73964600 0.81248400
vt 0.73964600 0.81248400
vt 0.73964600 0.81248400
vt 0.00000000 0.00000000
vt 0.00000000 0.00000000
vt 0.00000000 0.00000000
vt 0.00000000 0.00000000
vt 0.00000000 0.00000000
vt 0.00000000 0.00000000
vt 0.00000000 0.00000000
vt 0.00000000 0.00000000
vt 0.00000000 0.00000000
vt 0.00000000 0.00000000
vt 0.00000000 0.00000000
vt 0.00000000 0.00000000
vt 0.73902400 0.86248100
vt 0.73902400 0.86248100
vt 0.73902400 0.86248100
vt 0.73902400 0.86248100
vt 0.75075300 0.84568400
vt 0.75075300 0.84568400
vt 0.75075300 0.84568400
vt 0.75075300 0.84568400
vt 0.72792500 0.87860800
vt 0.72792500 0.87860800
vt 0.72792500 0.87860800
vt 0.72792500 0.87860800
vt 0.00000000 0.00000000
vt 0.00000000 0.00000000
vt 0.00000000 0.00000000
vt 0.00000000 0.00000000
vt 0.00000000 0.00000000
vt 0.00000000 0.00000000
vt 0.76235200 0.82945500
vt 0.76235200 0.82945500
vt 0.76235200 0.82945500
vt 0.76235200 0.82945500
vt 0.00000000 0.00000000
vt 0.00000000 0.00000000
vt 0.00000000 0.00000000
vt 0.00000000 0.00000000
vt 0.00000000 0.00000000
vt 0.00000000 0.00000000
vt 0.00000000 0.00000000
vt 0.00000000 0.00000000
vt 0.00000000 0.00000000
vt 0.00000000 0.00000000
vt 0.00000000 0.00000000
vt 0.00000000 0.00000000
vt 0.00000000 0.00000000
vt 0.00000000 0.00000000
vt 0.00000000 0.00000000
vt 0.00000000 0.00000000
vt 0.00000000 0.00000000
vt 0.00000000 0.00000000
vt 0.00000000 0.00000000
vt 0.00000000 0.00000000
vt 0.00000000 0.00000000
vt 0.00000000 0.00000000
vt 0.00000000 0.00000000
vt 0.00000000 0.00000000
vt 0.00000000 0.00000000
vt 0.00000000 0.00000000
vt 0.00000000 0.00000000
vt 0.00000000 0.00000000
vt 0.00000000 0.00000000
vt 0.00000000 0.00000000
vt 0.78610800 0.80041900
vt 0.78610800 0.80041900
vt 0.78610800 0.80041900
vt 0.78610800 0.80041900
vt 0.00000000 0.00000000
vt 0.00000000 0.00000000
vt 0.00000000 0.00000000
vt 0.00000000 0.00000000
vt 0.00000000 0.00000000
vt 0.00000000 0.00000000
vt 0.00000000 0.00000000
vt 0.00000000 0.00000000
vt 0.00000000 0.00000000
vt 0.00000000 0.00000000
vt 0.00000000 0.00000000
vt 0.00000000 0.00000000
vt 0.00000000 0.00000000
vt 0.00000000 0.00000000
vt 0.00000000 0.00000000
vt 0.00000000 0.00000000
vt 0.00000000 0.00000000
vt 0.00000000 0.00000000
vt 0.00000000 0.00000000
vt 0.00000000 0.00000000
vt 0.00000000 0.00000000
vt 0.00000000 0.00000000
vt 0.00000000 0.00000000
vt 0.00000000 0.00000000
vt 0.79556300 0.79343300
vt 0.79556300 0.79343300
vt 0.79556300 0.79343300
vt 0.00000000 0.00000000
vt 0.00000000 0.00000000
vt 0.00000000 0.00000000
vt 0.00000000 0.00000000
vt 0.00000000 0.00000000
vt 0.00000000 0.00000000
vt 0.00000000 0.00000000
vt 0.00000000 0.00000000
vt 0.00000000 0.00000000
vt 0.00000000 0.00000000
vt 0.00000000 0.00000000
vt 0.00000000 0.00000000
vt 0.00000000 0.00000000
vt 0.00000000 0.00000000
vt 0.00000000 0.00000000
vt 0.00000000 0.00000000
vt 0.00000000 0.00000000
vt 0.00000000 0.00000000
vt 0.00000000 0.00000000
vt 0.00000000 0.00000000
vt 0.00000000 0.00000000
vt 0.00000000 0.00000000
vt 0.00000000 0.00000000
vt 0.00000000 0.00000000
vt 0.00000000 0.00000000
vt 0.00000000 0.00000000
vt 0.00000000 0.00000000
vt 0.00000000 0.00000000
vt 0.00000000 0.00000000
vt 0.00000000 0.00000000
vt 0.00000000 0.00000000
vt 0.00000000 0.00000000
vt 0.00000000 0.00000000
vt 0.00000000 0.00000000
vt 0.00000000 0.00000000
vt 0.00000000 0.00000000
vt 0.00000000 0.00000000
vt 0.00000000 0.00000000
vt 0.00000000 0.00000000
vt 0.00000000 0.00000000
vt 0.00000000 0.00000000
vt 0.00000000 0.00000000
vt 0.81410700 0.81102800
vt 0.81410700 0.81102800
vt 0.81410700 0.81102800
vt 0.81410700 0.81102800
vt 0.81410700 0.81102800
vt 0.00000000 0.00000000
vt 0.00000000 0.00000000
vt 0.00000000 0.00000000
vt 0.00000000 0.00000000
vt 0.00000000 0.00000000
vt 0.00000000 0.00000000
vt 0.00000000 0.00000000
vt 0.00000000 0.00000000
vt 0.00000000 0.00000000
vt 0.00000000 0.00000000
vt 0.00000000 0.00000000
vt 0.00000000 0.00000000
vt 0.00000000 0.00000000
vt 0.00000000 0.00000000
vt 0.00000000 0.00000000
vt 0.00000000 0.00000000
vt 0.00000000 0.00000000
vt 0.00000000 0.00000000
vt 0.00000000 0.00000000
vt 0.00000000 0.00000000
vt 0.00000000 0.00000000
vt 0.00000000 0.00000000
vt 0.00000000 0.00000000
vt 0.00000000 0.00000000
vt 0.71981000 0.89359800
vt 0.71981000 0.89359800
vt 0.71981000 0.89359800
vt 0.71981000 0.89359800
vt 0.69731300 0.87719700
vt 0.69731300 0.87719700
vt 0.69731300 0.87719700
vt 0.69731300 0.87719700
vt 0.06139000 0.83454400
vt 0.06139000 0.83454400
vt 0.06139000 0.83454400
vt 0.06139000 0.83454400
vt 0.00000000 0.00000000
vt 0.00000000 0.00000000
vt 0.00000000 0.00000000
vt 0.00000000 0.00000000
vt 0.00000000 0.00000000
vt 0.00000000 0.00000000
vt 0.00000000 0.00000000
vt 0.00000000 0.00000000
vt 0.00000000 0.00000000
vt 0.00000000 0.00000000
vt 0.00000000 0.00000000
vt 0.00000000 0.00000000
vt 0.08232100 0.83430000
vt 0.08232100 0.83430000
vt 0.08232100 0.83430000
vt 0.08232100 0.83430000
vt 0.10176300 0.83038300
vt 0.10176300 0.83038300
vt 0.10176300 0.83038300
vt 0.10176300 0.83038300
vt 0.00000000 0.00000000
vt 0.00000000 0.00000000
vt 0.00000000 0.00000000
vt 0.00000000 0.00000000
vt 0.00000000 0.00000000
vt 0.00000000 0.00000000
vt 0.69043600 0.89099200
vt 0.69043600 0.89099200
vt 0.69043600 0.89099200
vt 0.69043600 0.89099200
vt 0.67956000 0.90057300
vt 0.67956000 0.90057300
vt 0.67956000 0.90057300
vt 0.67956000 0.90057300
vt 0.66688900 0.90580400
vt 0.66688900 0.90580400
vt 0.66688900 0.90580400
vt 0.66688900 0.90580400
vt 0.00000000 0.00000000
vt 0.00000000 0.00000000
vt 0.00000000 0.00000000
vt 0.00000000 0.00000000
vt 0.00000000 0.00000000
vt 0.00000000 0.00000000
vt 0.00000000 0.00000000
vt 0.00000000 0.00000000
vt 0.00000000 0.00000000
vt 0.00000000 0.00000000
vt 0.00000000 0.00000000
vt 0.00000000 0.00000000
vt 0.00000000 0.00000000
vt 0.00000000 0.00000000
vt 0.00000000 0.00000000
vt 0.00000000 0.00000000
vt 0.00000000 0.00000000
vt 0.00000000 0.00000000
vt 0.00000000 0.00000000
vt 0.00000000 0.00000000
vt 0.00000000 0.00000000
vt 0.00000000 0.00000000
vt 0.00000000 0.00000000
vt 0.00000000 0.00000000
vt 0.71067400 0.90784900
vt 0.71067400 0.90784900
vt 0.71067400 0.90784900
vt 0.71067400 0.90784900
vt 0.00000000 0.00000000
vt 0.00000000 0.00000000
vt 0.00000000 0.00000000
vt 0.00000000 0.00000000
vt 0.00000000 0.00000000
vt 0.00000000 0.00000000
vt 0.00000000 0.00000000
vt 0.00000000 0.00000000
vt 0.00000000 0.00000000
vt 0.00000000 0.00000000
vt 0.00000000 0.00000000
vt 0.00000000 0.00000000
vt 0.00000000 0.00000000
vt 0.00000000 0.00000000
vt 0.00000000 0.00000000
vt 0.00000000 0.00000000
vt 0.00000000 0.00000000
vt 0.00000000 0.00000000
vt 0.00000000 0.00000000
vt 0.00000000 0.00000000
vt 0.00000000 0.00000000
vt 0.00000000 0.00000000
vt 0.00000000 0.00000000
vt 0.00000000 0.00000000
vt 0.69942700 0.92070900
vt 0.69942700 0.92070900
vt 0.69942700 0.92070900
vt 0.69942700 0.92070900
vt 0.72627500 0.93818500
vt 0.72627500 0.93818500
vt 0.72627500 0.93818500
vt 0.72627500 0.93818500
vt 0.68215800 0.93634500
vt 0.68215800 0.93634500
vt 0.68215800 0.93634500
vt 0.68215800 0.93634500
vt 0.68215800 0.93634500
vt 0.71687600 0.95814400
vt 0.71687600 0.95814400
vt 0.71687600 0.95814400
vt 0.71687600 0.95814400
vt 0.71541500 0.98449600
vt 0.98093600 0.70328000
vt 0.98093600 0.70328000
vt 0.71541500 0.98449600
vt 0.68660400 0.97561800
vt 0.68660400 0.97561800
vt 0.97044100 0.67548600
vt 0.97044100 0.67548600
vt 0.65031400 0.88343100
vt 0.65031400 0.88343100
vt 0.11158200 0.83049000
vt 0.11158200 0.83049000
vt 0.66060900 0.89254100
vt 0.66060900 0.89254100
vt 0.11116300 0.81182300
vt 0.05535600 0.83326900
vt 0.67656900 0.85368700
vt 0.67656900 0.85368700
vt 0.05535600 0.83326900
vt 0.68588900 0.86061100
vt 0.68588900 0.86061100
vt 0.05417000 0.81657900
vt 0.06386000 0.81418100
vt 0.68265600 0.86681400
vt 0.06386000 0.81418100
vt 0.68265600 0.86681400
vt 0.67546100 0.87826000
vt 0.08267900 0.81080600
vt 0.08267900 0.81080600
vt 0.67546100 0.87826000
vt 0.66606900 0.88730900
vt 0.10080800 0.81153900
vt 0.66606900 0.88730900
vt 0.10080800 0.81153900
vt 0.79769800 0.82882800
vt 0.79769800 0.82882800
vt 0.79769800 0.82882800
vt 0.79769800 0.82882800
vt 0.77396200 0.81441100
vt 0.77396200 0.81441100
vt 0.77396200 0.81441100
vt 0.77396200 0.81441100
vt 0.74999500 0.79799000
vt 0.74999500 0.79799000
vt 0.74999500 0.79799000
vt 0.74999500 0.79799000
vt 0.84338600 0.70988900
vt 0.84338600 0.70988900
vt 0.84338600 0.70988900
vt 0.84338600 0.70988900
vt 0.82806800 0.72360500
vt 0.82806800 0.72360500
vt 0.82806800 0.72360500
vt 0.82806800 0.72360500
vt 0.81169900 0.73670100
vt 0.81169900 0.73670100
vt 0.81169900 0.73670100
vt 0.81169900 0.73670100
vt 0.85789100 0.69534400
vt 0.85789100 0.69534400
vt 0.85789100 0.69534400
vt 0.85789100 0.69534400
vt 0.85789100 0.69534400
vt 0.79778100 0.74773700
vt 0.79778100 0.74773700
vt 0.79778100 0.74773700
vt 0.79778100 0.74773700
vt 0.84533200 0.74606100
vt 0.84533200 0.74606100
vt 0.84533200 0.74606100
vt 0.84533200 0.74606100
vt 0.86142700 0.73352500
vt 0.86142700 0.73352500
vt 0.86142700 0.73352500
vt 0.86142700 0.73352500
vt 0.82977400 0.75844800
vt 0.82977400 0.75844800
vt 0.82977400 0.75844800
vt 0.82977400 0.75844800
vt 0.87686800 0.72166000
vt 0.87686800 0.72166000
vt 0.87686800 0.72166000
vt 0.87686800 0.72166000
vt 0.81538200 0.77079500
vt 0.81538200 0.77079500
vt 0.81538200 0.77079500
vt 0.81538200 0.77079500
vt 0.80205000 0.78363300
vt 0.80205000 0.78363300
vt 0.80205000 0.78363300
vt 0.80205000 0.78363300
vt 0.83100800 0.79371100
vt 0.83100800 0.79371100
vt 0.83100800 0.79371100
vt 0.83100800 0.79371100
vt 0.89131600 0.71282100
vt 0.89131600 0.71282100
vt 0.89131600 0.71282100
vt 0.89131600 0.71282100
vt 0.87387200 0.69137700
vt 0.87387200 0.69137700
vt 0.87387200 0.69137700
vt 0.87387200 0.69137700
vt 0.26260200 0.83615000
vt 0.26260200 0.83615000
vt 0.26260200 0.83615000
vt 0.26260200 0.83615000
vt 0.26260200 0.83615000
vt 0.24191400 0.83569200
vt 0.24191400 0.83569200
vt 0.24191400 0.83569200
vt 0.24191400 0.83569200
vt 0.85681900 0.68086900
vt 0.85681900 0.68086900
vt 0.26993100 0.81853300
vt 0.26040800 0.81603900
vt 0.86283500 0.67735500
vt 0.86283500 0.67735500
vt 0.26040800 0.81603900
vt 0.26855800 0.83494400
vt 0.84944000 0.67197800
vt 0.84944000 0.67197800
vt 0.26855800 0.83494400
vt 0.87385300 0.66968100
vt 0.87385300 0.66968100
vt 0.24187000 0.81247500
vt 0.24187000 0.81247500
vt 0.88719700 0.68387400
vt 0.88719700 0.68387400
vt 0.88719700 0.68387400
vt 0.88719700 0.68387400
vt 0.90494900 0.70301200
vt 0.90494900 0.70301200
vt 0.90494900 0.70301200
vt 0.90494900 0.70301200
vt 0.22273900 0.83155100
vt 0.22273900 0.83155100
vt 0.22273900 0.83155100
vt 0.22273900 0.83155100
vt 0.22396500 0.81296800
vt 0.22396500 0.81296800
vt 0.88235000 0.65998100
vt 0.88235000 0.65998100
vt 0.89611900 0.67264300
vt 0.89611900 0.67264300
vt 0.89611900 0.67264300
vt 0.89611900 0.67264300
vt 0.91706100 0.69120000
vt 0.91706100 0.69120000
vt 0.91706100 0.69120000
vt 0.91706100 0.69120000
vt 0.90063600 0.65988200
vt 0.90063600 0.65988200
vt 0.90063600 0.65988200
vt 0.90063600 0.65988200
vt 0.87775400 0.64466900
vt 0.87775400 0.64466900
vt 0.21303200 0.83150200
vt 0.21303200 0.83150200
vt 0.21373700 0.81310200
vt 0.88724500 0.65435200
vt 0.88724500 0.65435200
vt 0.93155100 0.67331400
vt 0.93155100 0.67331400
vt 0.93155100 0.67331400
vt 0.93155100 0.67331400
vt 0.93155100 0.67331400
vt 0.93584400 0.71676000
vt 0.93584400 0.71676000
vt 0.93584400 0.71676000
vt 0.93584400 0.71676000
vt 0.95502200 0.70631500
vt 0.95502200 0.70631500
vt 0.95502200 0.70631500
vt 0.95502200 0.70631500
vt 0.00000000 0.00000000
vt 0.70830200 0.82776600
vt 0.70351000 0.83468500
vt 0.00000000 0.00000000
vt 0.00000000 0.00000000
vt 0.70179400 0.83672300
vt 0.70179400 0.83672300
vt 0.00000000 0.00000000
vt 0.71438900 0.82052400
vt 0.71438900 0.82052400
vt 0.00000000 0.00000000
vt 0.00000000 0.00000000
vt 0.72269700 0.81587200
vt 0.71887200 0.81936100
vt 0.00000000 0.00000000
vt 0.00000000 0.00000000
vt 0.71680100 0.82015800
vt 0.00000000 0.00000000
vt 0.00000000 0.00000000
vt 0.00000000 0.00000000
vt 0.00000000 0.00000000
vt 0.72728900 0.81215800
vt 0.00000000 0.00000000
vt 0.73267300 0.80743500
vt 0.73267300 0.80743500
vt 0.00000000 0.00000000
vt 0.69532500 0.84470300
vt 0.00000000 0.00000000
vt 0.00000000 0.00000000
vt 0.69529000 0.84473800
vt 0.00000000 0.00000000
vt 0.68525700 0.84815300
vt 0.68525700 0.84815300
vt 0.68827300 0.84802600
vt 0.00000000 0.00000000
vt 0.00000000 0.00000000
vt 0.69256200 0.84662500
vt 0.00000000 0.00000000
vt 0.00000000 0.00000000
vt 0.00000000 0.00000000
vt 0.74657400 0.79546000
vt 0.74657400 0.79546000
vt 0.00000000 0.00000000
vt 0.74866100 0.79433400
vt 0.75559000 0.78960100
vt 0.00000000 0.00000000
vt 0.75559000 0.78960100
vt 0.75539600 0.78982700
vt 0.00000000 0.00000000
vt 0.00000000 0.00000000
vt 0.75230800 0.79244500
vt 0.00000000 0.00000000
vt 0.00000000 0.00000000
vt 0.00000000 0.00000000
vt 0.76070500 0.78362200
vt 0.00000000 0.00000000
vt 0.76114600 0.78318900
vt 0.76114600 0.78318900
vt 0.00000000 0.00000000
vt 0.76819900 0.77803300
vt 0.00000000 0.00000000
vt 0.00000000 0.00000000
vt 0.76606300 0.78015400
vt 0.00000000 0.00000000
vt 0.76153500 0.78296700
vt 0.00000000 0.00000000
vt 0.00000000 0.00000000
vt 0.77243800 0.77145500
vt 0.77243800 0.77145500
vt 0.06907100 0.83445400
vt 0.06907100 0.83445400
vt 0.06907100 0.83445400
vt 0.00000000 0.00000000
vt 0.06907100 0.83445400
vt 0.00000000 0.00000000
vt 0.06089700 0.83723400
vt 0.06089700 0.83723400
vt 0.06089700 0.83723400
vt 0.06089700 0.83723400
vt 0.00000000 0.00000000
vt 0.05912800 0.84688300
vt 0.05912800 0.84688300
vt 0.00000000 0.00000000
vt 0.07276800 0.84497300
vt 0.00000000 0.00000000
vt 0.08203400 0.84396900
vt 0.08203400 0.84396900
vt 0.06100900 0.83359200
vt 0.00000000 0.00000000
vt 0.06100900 0.83359200
vt 0.06156600 0.83309400
vt 0.00000000 0.00000000
vt 0.06156600 0.83309400
vt 0.06156600 0.83309400
vt 0.06156600 0.83309400
vt 0.06064700 0.83438700
vt 0.06064700 0.83438700
vt 0.00000000 0.00000000
vt 0.06064700 0.83438700
vt 0.06064700 0.83438700
vt 0.00000000 0.00000000
vt 0.07204400 0.83177200
vt 0.00000000 0.00000000
vt 0.07204400 0.83177200
vt 0.09406100 0.84182500
vt 0.00000000 0.00000000
vt 0.10147200 0.84029500
vt 0.00000000 0.00000000
vt 0.10147200 0.84029500
vt 0.64894900 0.88733100
vt 0.00000000 0.00000000
vt 0.64894900 0.88733100
vt 0.65113400 0.89817800
vt 0.00000000 0.00000000
vt 0.65113400 0.89817800
vt 0.00000000 0.00000000
vt 0.64913300 0.88526300
vt 0.00000000 0.00000000
vt 0.64808100 0.88199600
vt 0.00000000 0.00000000
vt 0.00000000 0.00000000
vt 0.64690300 0.87879400
vt 0.00000000 0.00000000
vt 0.11037000 0.83833800
vt 0.00000000 0.00000000
vt 0.64602200 0.88017600
vt 0.00000000 0.00000000
vt 0.00000000 0.00000000
vt 0.64632100 0.88021200
vt 0.00000000 0.00000000
vt 0.65655000 0.91278300
vt 0.00000000 0.00000000
vt 0.00000000 0.00000000
vt 0.65562400 0.90647100
vt 0.00000000 0.00000000
vt 0.00000000 0.00000000
vt 0.65248500 0.89930800
vt 0.00000000 0.00000000
vt 0.00000000 0.00000000
vt 0.65562000 0.92651400
vt 0.65562000 0.92651400
vt 0.00000000 0.00000000
vt 0.65596900 0.92572500
vt 0.00000000 0.00000000
vt 0.00000000 0.00000000
vt 0.65711100 0.91779100
vt 0.00000000 0.00000000
vt 0.00000000 0.00000000
vt 0.65830600 0.94165800
vt 0.00000000 0.00000000
vt 0.65847100 0.94575300
vt 0.00000000 0.00000000
vt 0.00000000 0.00000000
vt 0.00000000 0.00000000
vt 0.65655100 0.95456700
vt 0.00000000 0.00000000
vt 0.65400500 0.96237600
vt 0.95564400 0.64424300
vt 0.65838400 0.94200100
vt 0.00000000 0.00000000
vt 0.00000000 0.00000000
vt 0.05914100 0.83775100
vt 0.00000000 0.00000000
vt 0.00000000 0.00000000
vt 0.05914100 0.83775100
vt 0.05467100 0.84720500
vt 0.00000000 0.00000000
vt 0.66921800 0.84727900
vt 0.05849700 0.84680500
vt 0.00000000 0.00000000
vt 0.05849700 0.84680500
vt 0.06037900 0.83887400
vt 0.00000000 0.00000000
vt 0.06037900 0.83887400
vt 0.06037900 0.83887400
vt 0.00000000 0.00000000
vt 0.10875300 0.83871200
vt 0.00000000 0.00000000
vt 0.67386500 0.85111300
vt 0.67788900 0.85015600
vt 0.00000000 0.00000000
vt 0.67788900 0.85015600
vt 0.00000000 0.00000000
vt 0.00000000 0.00000000
vt 0.67334500 0.85068400
vt 0.00000000 0.00000000
vt 0.00000000 0.00000000
vt 0.66944200 0.84700700
vt 0.73671600 0.80539900
vt 0.00000000 0.00000000
vt 0.00000000 0.00000000
vt 0.73972800 0.80312600
vt 0.00000000 0.00000000
vt 0.00000000 0.00000000
vt 0.00000000 0.00000000
vt 0.73694200 0.80528000
vt 0.00000000 0.00000000
vt 0.81842500 0.71116600
vt 0.81842500 0.71116600
vt 0.82531600 0.70476000
vt 0.00000000 0.00000000
vt 0.83195200 0.69965700
vt 0.00000000 0.00000000
vt 0.00000000 0.00000000
vt 0.83389100 0.69785100
vt 0.00000000 0.00000000
vt 0.83389100 0.69785100
vt 0.00000000 0.00000000
vt 0.81075200 0.72441500
vt 0.00000000 0.00000000
vt 0.00000000 0.00000000
vt 0.81421500 0.71966200
vt 0.00000000 0.00000000
vt 0.80632300 0.73000800
vt 0.80632300 0.73000800
vt 0.00000000 0.00000000
vt 0.00000000 0.00000000
vt 0.81749400 0.71568300
vt 0.00000000 0.00000000
vt 0.00000000 0.00000000
vt 0.81818200 0.71358400
vt 0.00000000 0.00000000
vt 0.84152200 0.69099900
vt 0.00000000 0.00000000
vt 0.00000000 0.00000000
vt 0.84148900 0.69103500
vt 0.84440100 0.68087700
vt 0.84440100 0.68087700
vt 0.00000000 0.00000000
vt 0.00000000 0.00000000
vt 0.84442900 0.68387400
vt 0.00000000 0.00000000
vt 0.00000000 0.00000000
vt 0.00000000 0.00000000
vt 0.84325800 0.68819900
vt 0.78969600 0.75373600
vt 0.00000000 0.00000000
vt 0.78969600 0.75373600
vt 0.00000000 0.00000000
vt 0.00000000 0.00000000
vt 0.78991200 0.75353100
vt 0.79407100 0.74658900
vt 0.00000000 0.00000000
vt 0.00000000 0.00000000
vt 0.00000000 0.00000000
vt 0.79236800 0.75032100
vt 0.00000000 0.00000000
vt 0.79509000 0.74445200
vt 0.79509000 0.74445200
vt 0.00000000 0.00000000
vt 0.78399100 0.75913600
vt 0.78358200 0.75959700
vt 0.00000000 0.00000000
vt 0.78358200 0.75959700
vt 0.78338000 0.75999700
vt 0.00000000 0.00000000
vt 0.00000000 0.00000000
vt 0.00000000 0.00000000
vt 0.77879100 0.76689400
vt 0.00000000 0.00000000
vt 0.78080000 0.76465600
vt 0.00000000 0.00000000
vt 0.25126500 0.84636400
vt 0.00000000 0.00000000
vt 0.24208800 0.84528900
vt 0.00000000 0.00000000
vt 0.24208800 0.84528900
vt 0.25500900 0.83598200
vt 0.00000000 0.00000000
vt 0.25500900 0.83598200
vt 0.25500900 0.83598200
vt 0.25500900 0.83598200
vt 0.00000000 0.00000000
vt 0.26307800 0.83881400
vt 0.26307800 0.83881400
vt 0.26307800 0.83881400
vt 0.26478400 0.84836900
vt 0.26478400 0.84836900
vt 0.00000000 0.00000000
vt 0.26333600 0.83600100
vt 0.26333600 0.83600100
vt 0.26333600 0.83600100
vt 0.00000000 0.00000000
vt 0.00000000 0.00000000
vt 0.26298900 0.83521400
vt 0.26298900 0.83521400
vt 0.26244600 0.83471700
vt 0.26244600 0.83471700
vt 0.26244600 0.83471700
vt 0.26244600 0.83471700
vt 0.00000000 0.00000000
vt 0.25210300 0.83330200
vt 0.25210300 0.83330200
vt 0.00000000 0.00000000
vt 0.00000000 0.00000000
vt 0.23018500 0.84298900
vt 0.00000000 0.00000000
vt 0.22286000 0.84136700
vt 0.22286000 0.84136700
vt 0.00000000 0.00000000
vt 0.88153100 0.64313300
vt 0.88153100 0.64313300
vt 0.00000000 0.00000000
vt 0.89233500 0.64474700
vt 0.89233500 0.64474700
vt 0.00000000 0.00000000
vt 0.00000000 0.00000000
vt 0.00000000 0.00000000
vt 0.87950200 0.64341500
vt 0.00000000 0.00000000
vt 0.87622800 0.64253800
vt 0.00000000 0.00000000
vt 0.87301000 0.64153400
vt 0.21409200 0.83927900
vt 0.00000000 0.00000000
vt 0.00000000 0.00000000
vt 0.87433200 0.64059600
vt 0.00000000 0.00000000
vt 0.00000000 0.00000000
vt 0.00000000 0.00000000
vt 0.87438100 0.64089000
vt 0.92047800 0.64773200
vt 0.92047800 0.64773200
vt 0.00000000 0.00000000
vt 0.91971900 0.64811600
vt 0.00000000 0.00000000
vt 0.00000000 0.00000000
vt 0.00000000 0.00000000
vt 0.90699500 0.64934500
vt 0.91195800 0.64964200
vt 0.00000000 0.00000000
vt 0.00000000 0.00000000
vt 0.00000000 0.00000000
vt 0.90072900 0.64875300
vt 0.00000000 0.00000000
vt 0.89351500 0.64602100
vt 0.00000000 0.00000000
vt 0.00000000 0.00000000
vt 0.00000000 0.00000000
vt 0.94810300 0.64716100
vt 0.00000000 0.00000000
vt 0.00000000 0.00000000
vt 0.00000000 0.00000000
vt 0.93550500 0.64957400
vt 0.00000000 0.00000000
vt 0.93954000 0.64951800
vt 0.00000000 0.00000000
vt 0.00000000 0.00000000
vt 0.93584800 0.64963200
vt 0.00000000 0.00000000
vt 0.00000000 0.00000000
vt 0.26358200 0.84044000
vt 0.26358200 0.84044000
vt 0.26540700 0.84829700
vt 0.00000000 0.00000000
vt 0.26540700 0.84829700
vt 0.00000000 0.00000000
vt 0.26480800 0.83934000
vt 0.00000000 0.00000000
vt 0.84272900 0.66503500
vt 0.00000000 0.00000000
vt 0.26918200 0.84871900
vt 0.21568400 0.83967600
vt 0.00000000 0.00000000
vt 0.84630600 0.66894200
vt 0.00000000 0.00000000
vt 0.00000000 0.00000000
vt 0.84675700 0.66943500
vt 0.00000000 0.00000000
vt 0.00000000 0.00000000
vt 0.00000000 0.00000000
vt 0.84247100 0.66527100
vt 0.00000000 0.00000000
vt 0.84600500 0.67346600
vt 0.84600500 0.67346600
vt 0.00000000 0.00000000
vt 0.00000000 0.00000000
vt 0.80238300 0.73725000
vt 0.00000000 0.00000000
vt 0.80438900 0.73436800
vt 0.00000000 0.00000000
vt 0.00000000 0.00000000
vt 0.80449700 0.73413600
vt 0.00000000 0.00000000
vt 0.91684000 0.71714400
vt 0.91684000 0.71714400
vt 0.00000000 0.00000000
vt 0.91953300 0.71775300
vt 0.00000000 0.00000000
vt 0.00000000 0.00000000
vt 0.91567900 0.71971400
vt 0.00000000 0.00000000
vt 0.79313000 0.83442500
vt 0.79313000 0.83442500
vt 0.00000000 0.00000000
vt 0.79355200 0.83414700
vt 0.00000000 0.00000000
vt 0.00000000 0.00000000
vt 0.00000000 0.00000000
vt 0.00000000 0.00000000
vt 0.78933000 0.83710600
vt 0.82940900 0.79844800
vt 0.00000000 0.00000000
vt 0.00000000 0.00000000
vt 0.83136400 0.79412500
vt 0.83136400 0.79412500
vt 0.00000000 0.00000000
vt 0.00000000 0.00000000
vt 0.00000000 0.00000000
vt 0.83609300 0.78929600
vt 0.00000000 0.00000000
vt 0.83164500 0.79383000
vt 0.83634700 0.78886000
vt 0.00000000 0.00000000
vt 0.83634700 0.78886000
vt 0.00000000 0.00000000
vt 0.00000000 0.00000000
vt 0.83882000 0.78492900
vt 0.82672900 0.80240900
vt 0.00000000 0.00000000
vt 0.00000000 0.00000000
vt 0.81848400 0.80994700
vt 0.00000000 0.00000000
vt 0.00000000 0.00000000
vt 0.81325900 0.81545600
vt 0.00000000 0.00000000
vt 0.00000000 0.00000000
vt 0.81438200 0.81313000
vt 0.00000000 0.00000000
vt 0.81501500 0.81188800
vt 0.00000000 0.00000000
vt 0.81501400 0.81188800
vt 0.00000000 0.00000000
vt 0.81622100 0.81119100
vt 0.00000000 0.00000000
vt 0.80616400 0.82409200
vt 0.00000000 0.00000000
vt 0.80234700 0.82697900
vt 0.00000000 0.00000000
vt 0.00000000 0.00000000
vt 0.79813100 0.82916100
vt 0.79813100 0.82916100
vt 0.00000000 0.00000000
vt 0.00000000 0.00000000
vt 0.79785100 0.82945800
vt 0.00000000 0.00000000
vt 0.89760200 0.73065000
vt 0.00000000 0.00000000
vt 0.00000000 0.00000000
vt 0.89984900 0.72983200
vt 0.88731200 0.73494200
vt 0.88731200 0.73494200
vt 0.00000000 0.00000000
vt 0.88000100 0.74016200
vt 0.00000000 0.00000000
vt 0.00000000 0.00000000
vt 0.00000000 0.00000000
vt 0.87764300 0.74255500
vt 0.00000000 0.00000000
vt 0.00000000 0.00000000
vt 0.86327800 0.75678400
vt 0.00000000 0.00000000
vt 0.86794800 0.75261000
vt 0.87174300 0.74616500
vt 0.87174300 0.74616500
vt 0.00000000 0.00000000
vt 0.00000000 0.00000000
vt 0.85713400 0.76101700
vt 0.85713400 0.76101700
vt 0.00000000 0.00000000
vt 0.00000000 0.00000000
vt 0.85497100 0.76464600
vt 0.00000000 0.00000000
vt 0.00000000 0.00000000
vt 0.84281100 0.77660200
vt 0.00000000 0.00000000
vt 0.84335200 0.77554700
vt 0.84335200 0.77554700
vt 0.00000000 0.00000000
vt 0.85453000 0.76517400
vt 0.84177100 0.77803200
vt 0.00000000 0.00000000
vt 0.78258700 0.84042200
vt 0.00000000 0.00000000
vt 0.00000000 0.00000000
vt 0.78121200 0.84153900
vt 0.00000000 0.00000000
vt 0.76636700 0.85670400
vt 0.00000000 0.00000000
vt 0.76636700 0.85670400
vt 0.00000000 0.00000000
vt 0.76245300 0.86308700
vt 0.00000000 0.00000000
vt 0.76988700 0.85434600
vt 0.00000000 0.00000000
vt 0.00000000 0.00000000
vt 0.00000000 0.00000000
vt 0.73808400 0.89893100
vt 0.00000000 0.00000000
vt 0.73738600 0.90123200
vt 0.00000000 0.00000000
vt 0.74183400 0.88836200
vt 0.00000000 0.00000000
vt 0.74183400 0.88836200
vt 0.74667900 0.88074700
vt 0.00000000 0.00000000
vt 0.74895400 0.87825200
vt 0.00000000 0.00000000
vt 0.00000000 0.00000000
vt 0.78018400 0.84213500
vt 0.78018400 0.84213500
vt 0.00000000 0.00000000
vt 0.77039300 0.85387600
vt 0.00000000 0.00000000
vt 0.00000000 0.00000000
vt 0.75851900 0.86799000
vt 0.75225900 0.87213800
vt 0.00000000 0.00000000
vt 0.75225900 0.87213800
vt 0.90313300 0.72799700
vt 0.90313300 0.72799700
vt 0.00000000 0.00000000
vt 0.90402200 0.72764800
vt 0.00000000 0.00000000
vt 0.00000000 0.00000000
vt 0.00000000 0.00000000
vt 0.00000000 0.00000000
vt 0.92728600 0.71835900
vt 0.00000000 0.00000000
vt 0.91423800 0.72169000
vt 0.00000000 0.00000000
vt 0.94511800 0.71883200
vt 0.00000000 0.00000000
vt 0.00000000 0.00000000
vt 0.93533700 0.71713600
vt 0.93533700 0.71713600
vt 0.93611400 0.71719300
vt 0.93611400 0.71719300
vt 0.00000000 0.00000000
vt 0.73572200 0.90463100
vt 0.73572200 0.90463100
vt 0.00000000 0.00000000
vt 0.73542100 0.90554400
vt 0.00000000 0.00000000
vt 0.00000000 0.00000000
vt 0.00000000 0.00000000
vt 0.72890500 0.94740100
vt 0.00000000 0.00000000
vt 0.72662400 0.93765300
vt 0.00000000 0.00000000
vt 0.72662400 0.93765300
vt 0.72672700 0.93843100
vt 0.72672700 0.93843100
vt 0.00000000 0.00000000
vt 0.72738900 0.92947300
vt 0.00000000 0.00000000
vt 0.00000000 0.00000000
vt 0.00000000 0.00000000
vt 0.73000000 0.91615000
vt 0.72633600 0.92169900
vt 0.00000000 0.00000000
vt 0.00000000 0.00000000
vt 0.00000000 0.00000000
vt 0.72809400 0.91771000
vt 0.00000000 0.00000000
vt 0.72557100 0.91902100
vt 0.00000000 0.00000000
vt 0.72557100 0.91902100
vt 0.94690300 0.71902000
vt 0.00000000 0.00000000
vt 0.00000000 0.00000000
vt 0.94792400 0.71872200
vt 0.00000000 0.00000000
vt 0.00000000 0.00000000
vt 0.95413100 0.71607600
vt 0.00000000 0.00000000
vt 0.95912100 0.71478900
vt 0.00000000 0.00000000
vt 0.95912100 0.71478900
vt 0.96634700 0.71602700
vt 0.00000000 0.00000000
vt 0.00000000 0.00000000
vt 0.97717700 0.71490700
vt 0.00000000 0.00000000
vt 0.00000000 0.00000000
vt 0.98345900 0.71348600
vt 0.00000000 0.00000000
vt 0.00000000 0.00000000
vt 0.72587200 0.98637600
vt 0.00000000 0.00000000
vt 0.72691100 0.97995400
vt 0.00000000 0.00000000
vt 0.00000000 0.00000000
vt 0.00000000 0.00000000
vt 0.72736200 0.96896000
vt 0.00000000 0.00000000
vt 0.72566600 0.96174800
vt 0.72566600 0.96174800
vt 0.72666300 0.95664600
vt 0.00000000 0.00000000
vt 0.00000000 0.00000000
vt 0.72896100 0.95023400
vt 0.00000000 0.00000000
vt 0.00000000 0.00000000
vt 0.72920000 0.94918700
vt 0.00000000 0.00000000
f 29/29 158/158 238/238
f 1081/1081 1075/1075 1080/1080
f 30/30 242/242 307/307
f 1088/1088 70/70 1090/1090
f 1090/1090 1086/1086 1088/1088
f 82/82 360/360 1095/1095
f 82/82 1095/1095 1098/1098
f 82/82 1098/1098 1102/1102
f 82/82 1102/1102 1099/1099
f 80/80 1100/1100 1105/1105
f 1105/1105 1108/1108 80/80
f 361/361 1111/1111 1094/1094
f 358/358 345/345 1115/1115
f 1115/1115 1112/1112 358/358
f 1124/1124 1114/1114 348/348
f 1124/1124 348/348 1117/1117
f 1124/1124 1117/1117 1120/1120
f 1124/1124 1120/1120 1122/1122
f 347/347 339/339 1126/1126
f 1126/1126 1118/1118 347/347
f 340/340 1131/1131 1128/1128
f 342/342 71/71 1089/1089
f 342/342 1089/1089 1135/1135
f 342/342 1135/1135 1134/1134
f 342/342 1134/1134 1130/1130
f 294/294 1148/1148 1146/1146
f 294/294 1146/1146 1144/1144
f 294/294 1144/1144 1137/1137
f 294/294 1137/1137 1140/1140
f 1147/1147 290/290 1151/1151
f 1147/1147 1151/1151 1153/1153
f 1147/1147 1153/1153 1157/1157
f 1150/1150 291/291 279/279
f 1150/1150 279/279 1161/1161
f 1150/1150 1161/1161 1158/1158
f 1162/1162 278/278 1165/1165
f 1162/1162 1165/1165 1167/1167
f 1162/1162 1167/1167 1170/1170
f 79/79 1107/1107 1173/1173
f 79/79 1173/1173 1164/1164
f 79/79 1164/1164 283/283
f 357/357 81/81 327/327
f 319/319 411/411 328/328
f 310/310 418/418 321/321
f 362/362 332/332 412/412
f 346/346 359/359 410/410
f 323/323 420/420 413/413
f 421/421 430/430 414/414
f 349/349 415/415 431/431
f 343/343 350/350 432/432
f 308/308 240/240 419/419
f 239/239 237/237 416/416
f 417/417 233/233 434/434
f 234/234 226/226 435/435
f 341/341 433/433 222/222
f 69/69 344/344 227/227
f 1091/1091 67/67 266/266
f 1091/1091 266/266 1178/1178
f 1091/1091 1178/1178 1175/1175
f 1187/1187 268/268 257/257
f 1187/1187 257/257 1182/1182
f 1187/1187 1182/1182 1180/1180
f 1197/1197 1199/1199 256/256
f 1197/1197 256/256 1190/1190
f 1197/1197 1190/1190 1188/1188
f 1197/1197 1188/1188 1194/1194
f 1176/1176 267/267 1186/1186
f 1176/1176 1186/1186 1205/1205
f 1176/1176 1205/1205 1203/1203
f 1184/1184 259/259 1200/1200
f 1184/1184 1200/1200 1209/1209
f 1184/1184 1209/1209 1206/1206
f 78/78 282/282 331/331
f 281/281 292/292 452/452
f 458/458 295/295 1139/1139
f 458/458 1139/1139 1213/1213
f 458/458 1213/1213 1215/1215
f 330/330 280/280 453/453
f 448/448 318/318 329/329
f 449/449 293/293 459/459
f 450/450 461/461 469/469
f 451/451 471/471 322/322
f 466/466 309/309 320/320
f 1078/1078 1217/1217 457/457
f 1078/1078 457/457 1216/1216
f 1078/1078 1216/1216 1220/1220
f 1078/1078 1220/1220 1083/1083
f 460/460 1218/1218 1225/1225
f 460/460 1225/1225 1230/1230
f 460/460 1230/1230 1222/1222
f 460/460 1222/1222 195/195
f 467/467 462/462 194/194
f 468/468 192/192 181/181
f 306/306 470/470 180/180
f 179/179 27/27 311/311
f 68/68 223/223 269/269
f 236/236 480/480 224/224
f 241/241 485/485 235/235
f 271/271 225/225 479/479
f 270/270 478/478 258/258
f 232/232 482/482 477/477
f 481/481 487/487 491/491
f 260/260 476/476 492/492
f 1233/1233 1192/1192 261/261
f 1233/1233 261/261 493/493
f 1233/1233 493/493 1236/1236
f 486/486 243/243 155/155
f 483/483 157/157 146/146
f 490/490 484/484 147/147
f 1241/1241 1247/1247 489/489
f 1241/1241 489/489 148/148
f 1241/1241 148/148 1239/1239
f 1241/1241 1239/1239 1245/1245
f 1252/1252 1254/1254 1249/1249
f 1252/1252 1249/1249 1235/1235
f 1252/1252 1235/1235 488/488
f 1252/1252 488/488 1248/1248
f 1256/1256 1253/1253 1258/1258
f 191/191 1224/1224 1262/1262
f 196/196 1261/1261 1265/1265
f 183/183 193/193 1264/1264
f 183/183 1264/1264 1267/1267
f 183/183 1267/1267 1269/1269
f 183/183 1269/1269 1272/1272
f 1275/1275 184/184 1273/1273
f 1276/1276 1278/1278 26/26
f 26/26 182/182 1276/1276
f 156/156 28/28 1279/1279
f 156/156 1279/1279 1279/1279
f 156/156 1279/1279 1283/1283
f 159/159 1281/1281 1284/1284
f 143/143 160/160 1285/1285
f 143/143 1285/1285 1287/1287
f 143/143 1287/1287 1291/1291
f 143/143 1291/1291 1292/1292
f 1294/1294 1295/1295 144/144
f 1297/1297 1237/1237 145/145
f 701/701 216/216 212/212
f 701/701 212/212 698/698
f 701/701 698/698 694/694
f 701/701 694/694 693/693
f 713/713 715/715 231/231
f 713/713 231/231 215/215
f 713/713 215/215 700/700
f 713/713 700/700 708/708
f 713/713 708/708 705/705
f 713/713 705/705 704/704
f 718/718 697/697 210/210
f 718/718 210/210 217/217
f 718/718 217/217 724/724
f 718/718 724/724 725/725
f 718/718 725/725 728/728
f 718/718 728/728 721/721
f 739/739 736/736 560/560
f 739/739 560/560 733/733
f 739/739 733/733 735/735
f 739/739 735/735 742/742
f 209/209 214/214 249/249
f 249/249 246/246 209/209
f 213/213 228/228 263/263
f 263/263 251/251 213/213
f 221/221 211/211 245/245
f 245/245 254/254 221/221
f 749/749 297/297 558/558
f 749/749 558/558 559/559
f 749/749 559/559 738/738
f 749/749 738/738 746/746
f 759/759 324/324 296/296
f 759/759 296/296 748/748
f 759/759 748/748 756/756
f 759/759 756/756 754/754
f 759/759 754/754 751/751
f 1196/1196 1193/1193 253/253
f 1196/1196 253/253 244/244
f 1196/1196 244/244 1210/1210
f 1196/1196 1210/1210 1198/1198
f 250/250 1179/1179 1183/1183
f 250/250 1183/1183 1207/1207
f 250/250 1207/1207 1208/1208
f 250/250 1208/1208 247/247
f 1204/1204 1185/1185 1181/1181
f 1204/1204 1181/1181 248/248
f 1204/1204 248/248 264/264
f 1204/1204 264/264 1202/1202
f 551/551 557/557 299/299
f 299/299 372/372 551/551
f 373/373 298/298 326/326
f 326/326 606/606 373/373
f 1132/1132 554/554 371/371
f 1132/1132 371/371 1121/1121
f 1132/1132 1121/1121 1119/1119
f 1132/1132 1119/1119 1116/1116
f 1132/1132 1116/1116 1127/1127
f 1132/1132 1127/1127 1129/1129
f 400/400 252/252 1195/1195
f 400/400 1195/1195 1189/1189
f 400/400 1189/1189 1191/1191
f 400/400 1191/1191 1231/1231
f 405/405 219/219 255/255
f 255/255 398/398 405/405
f 775/775 772/772 768/768
f 775/775 768/768 763/763
f 775/775 763/763 425/425
f 775/775 425/425 777/777
f 409/409 761/761 767/767
f 779/779 790/790 532/532
f 779/779 532/532 538/538
f 779/779 538/538 541/541
f 779/779 541/541 785/785
f 781/781 782/782 408/408
f 408/408 791/791 781/781
f 793/793 784/784 539/539
f 793/793 539/539 544/544
f 793/793 544/544 424/424
f 793/793 424/424 765/765
f 786/786 795/795 762/762
f 762/762 407/407 786/786
f 437/437 403/403 399/399
f 399/399 474/474 437/437
f 401/401 1232/1232 1234/1234
f 401/401 1234/1234 1250/1250
f 401/401 1250/1250 1255/1255
f 401/401 1255/1255 1259/1259
f 401/401 1259/1259 473/473
f 796/796 778/778 423/423
f 796/796 423/423 427/427
f 796/796 427/427 800/800
f 545/545 548/548 429/429
f 429/429 422/422 545/545
f 442/442 438/438 472/472
f 472/472 501/501 442/442
f 806/806 803/803 525/525
f 806/806 525/525 529/529
f 806/806 529/529 445/445
f 820/820 817/817 813/813
f 820/820 813/813 526/526
f 820/820 526/526 801/801
f 820/820 801/801 808/808
f 820/820 808/808 810/810
f 828/828 804/804 447/447
f 828/828 447/447 510/510
f 828/828 510/510 832/832
f 828/828 832/832 834/834
f 828/828 834/834 837/837
f 828/828 837/837 822/822
f 828/828 822/822 825/825
f 507/507 500/500 475/475
f 507/507 475/475 1257/1257
f 507/507 1257/1257 1251/1251
f 507/507 1251/1251 1246/1246
f 507/507 1246/1246 1242/1242
f 1243/1243 506/506 1240/1240
f 446/446 440/440 503/503
f 503/503 512/512 446/446
f 502/502 504/504 515/515
f 515/515 511/511 502/502
f 1289/1289 514/514 505/505
f 1289/1289 505/505 1244/1244
f 1289/1289 1244/1244 1238/1238
f 1289/1289 1238/1238 1296/1296
f 1289/1289 1296/1296 1293/1293
f 1289/1289 1293/1293 1290/1290
f 513/513 517/517 522/522
f 522/522 509/509 513/513
f 840/840 831/831 508/508
f 840/840 508/508 521/521
f 840/840 521/521 848/848
f 840/840 848/848 846/846
f 840/840 846/846 842/842
f 840/840 842/842 850/850
f 860/860 857/857 535/535
f 860/860 535/535 787/787
f 860/860 787/787 853/853
f 860/860 853/853 866/866
f 865/865 770/770 773/773
f 773/773 862/862 865/865
f 788/788 406/406 769/769
f 788/788 769/769 863/863
f 788/788 863/863 856/856
f 815/815 868/868 798/798
f 815/815 798/798 428/428
f 815/815 428/428 527/527
f 550/550 531/531 528/528
f 528/528 426/426 550/550
f 870/870 871/871 534/534
f 870/870 534/534 859/859
f 870/870 859/859 879/879
f 870/870 879/879 876/876
f 873/873 723/723 218/218
f 873/873 218/218 536/536
f 873/873 536/536 533/533
f 402/402 540/540 537/537
f 537/537 220/220 402/402
f 542/542 404/404 436/436
f 436/436 546/546 542/542
f 443/443 547/547 543/543
f 543/543 439/439 443/443
f 444/444 530/530 549/549
f 549/549 441/441 444/444
f 1087/1087 1084/1084 552/552
f 1087/1087 552/552 1133/1133
f 1087/1087 1133/1133 1136/1136
f 556/556 553/553 1085/1085
f 556/556 1085/1085 1092/1092
f 556/556 1092/1092 1174/1174
f 556/556 1174/1174 1177/1177
f 556/556 1177/1177 1201/1201
f 556/556 1201/1201 265/265
f 229/229 561/561 555/555
f 555/555 262/262 229/229
f 883/883 732/732 562/562
f 883/883 562/562 230/230
f 883/883 230/230 716/716
f 883/883 716/716 880/880
f 883/883 880/880 887/887
f 1280/1280 520/520 516/516
f 1280/1280 516/516 1288/1288
f 1280/1280 1288/1288 1286/1286
f 1280/1280 1286/1286 1282/1282
f 893/893 898/898 565/565
f 893/893 565/565 568/568
f 893/893 568/568 889/889
f 893/893 889/889 891/891
f 912/912 890/890 567/567
f 912/912 567/567 571/571
f 912/912 571/571 905/905
f 912/912 905/905 900/900
f 912/912 900/900 903/903
f 912/912 903/903 909/909
f 922/922 918/918 578/578
f 922/922 578/578 563/563
f 922/922 563/563 896/896
f 922/922 896/896 917/917
f 922/922 917/917 914/914
f 922/922 914/914 926/926
f 582/582 927/927 932/932
f 582/582 932/932 937/937
f 582/582 937/937 933/933
f 582/582 933/933 940/940
f 564/564 590/590 585/585
f 585/585 570/570 564/564
f 569/569 586/586 594/594
f 594/594 572/572 569/569
f 579/579 596/596 588/588
f 588/588 566/566 579/579
f 945/945 942/942 929/929
f 945/945 929/929 581/581
f 945/945 581/581 601/601
f 945/945 601/601 605/605
f 946/946 943/943 607/607
f 946/946 607/607 325/325
f 946/946 325/325 760/760
f 946/946 760/760 950/950
f 946/946 950/950 952/952
f 1156/1156 591/591 599/599
f 1156/1156 599/599 1143/1143
f 1156/1156 1143/1143 1145/1145
f 1156/1156 1145/1145 1149/1149
f 1152/1152 1159/1159 584/584
f 1152/1152 584/584 589/589
f 1152/1152 589/589 1155/1155
f 1152/1152 1155/1155 1154/1154
f 1168/1168 593/593 587/587
f 1168/1168 587/587 1160/1160
f 1168/1168 1160/1160 1163/1163
f 1168/1168 1163/1163 1171/1171
f 608/608 370/370 604/604
f 604/604 602/602 608/608
f 1125/1125 1123/1123 369/369
f 1125/1125 369/369 609/609
f 1125/1125 609/609 1096/1096
f 1125/1125 1096/1096 1093/1093
f 1125/1125 1093/1093 1110/1110
f 1125/1125 1110/1110 1113/1113
f 1141/1141 1138/1138 1142/1142
f 1141/1141 1142/1142 597/597
f 1141/1141 597/597 612/612
f 1141/1141 612/612 1211/1211
f 619/619 613/613 598/598
f 598/598 576/576 619/619
f 967/967 968/968 954/954
f 967/967 954/954 956/956
f 967/967 956/956 626/626
f 967/967 626/626 961/961
f 621/621 965/965 963/963
f 977/977 979/979 632/632
f 977/977 632/632 631/631
f 977/977 631/631 636/636
f 977/977 636/636 972/972
f 971/971 624/624 981/981
f 981/981 976/976 971/971
f 984/984 962/962 628/628
f 984/984 628/628 642/642
f 984/984 642/642 635/635
f 984/984 635/635 980/980
f 959/959 983/983 978/978
f 978/978 623/623 959/959
f 644/644 648/648 615/615
f 615/615 617/617 644/644
f 1212/1212 614/614 650/650
f 1212/1212 650/650 1076/1076
f 1212/1212 1076/1076 1082/1082
f 1212/1212 1082/1082 1221/1221
f 1212/1212 1221/1221 1214/1214
f 990/990 652/652 627/627
f 990/990 627/627 958/958
f 990/990 958/958 987/987
f 643/643 625/625 653/653
f 653/653 657/657 643/643
f 663/663 667/667 651/651
f 651/651 647/647 663/663
f 996/996 669/669 678/678
f 996/996 678/678 673/673
f 996/996 673/673 993/993
f 1000/1000 992/992 672/672
f 1000/1000 672/672 1004/1004
f 1000/1000 1004/1004 1008/1008
f 1000/1000 1008/1008 1012/1012
f 1000/1000 1012/1012 1002/1002
f 1014/1014 679/679 668/668
f 1014/1014 668/668 995/995
f 1014/1014 995/995 1027/1027
f 1014/1014 1027/1027 1025/1025
f 1014/1014 1025/1025 1020/1020
f 1014/1014 1020/1020 1021/1021
f 1014/1014 1021/1021 1016/1016
f 649/649 665/665 685/685
f 649/649 685/685 1227/1227
f 649/649 1227/1227 1219/1219
f 649/649 1219/1219 1079/1079
f 649/649 1079/1079 1077/1077
f 1226/1226 686/686 1229/1229
f 671/671 682/682 664/664
f 664/664 662/662 671/671
f 666/666 683/683 690/690
f 690/690 684/684 666/666
f 1260/1260 1223/1223 1228/1228
f 1260/1260 1228/1228 687/687
f 1260/1260 687/687 689/689
f 1260/1260 689/689 1268/1268
f 1260/1260 1268/1268 1266/1266
f 1260/1260 1266/1266 1263/1263
f 691/691 681/681 524/524
f 524/524 518/518 691/691
f 849/849 523/523 680/680
f 849/849 680/680 1013/1013
f 849/849 1013/1013 1035/1035
f 849/849 1035/1035 1040/1040
f 849/849 1040/1040 1037/1037
f 849/849 1037/1037 1031/1031
f 849/849 1031/1031 849/849
f 639/639 1053/1053 1045/1045
f 639/639 1045/1045 1044/1044
f 639/639 1044/1044 1049/1049
f 639/639 1049/1049 973/973
f 1043/1043 1047/1047 969/969
f 969/969 966/966 1043/1043
f 620/620 973/973 1049/1049
f 1049/1049 1044/1044 620/620
f 1043/1043 966/966 622/622
f 1005/1005 675/675 655/655
f 1005/1005 655/655 989/989
f 1005/1005 989/989 1054/1054
f 656/656 654/654 674/674
f 674/674 676/676 656/656
f 1056/1056 1063/1063 1051/1051
f 1056/1056 1051/1051 638/638
f 1056/1056 638/638 1065/1065
f 1056/1056 1065/1065 1059/1059
f 1066/1066 637/637 629/629
f 1066/1066 629/629 577/577
f 1066/1066 577/577 919/919
f 616/616 575/575 630/630
f 630/630 633/633 616/616
f 634/634 640/640 645/645
f 645/645 618/618 634/634
f 661/661 646/646 641/641
f 641/641 659/659 661/661
f 670/670 660/660 658/658
f 658/658 677/677 670/670
f 1103/1103 1097/1097 611/611
f 1103/1103 611/611 1106/1106
f 1103/1103 1106/1106 1101/1101
f 1104/1104 610/610 600/600
f 1104/1104 600/600 592/592
f 1104/1104 592/592 1169/1169
f 1104/1104 1169/1169 1166/1166
f 1104/1104 1166/1166 1172/1172
f 1104/1104 1172/1172 1109/1109
f 574/574 595/595 603/603
f 603/603 583/583 574/574
f 1074/1074 906/906 573/573
f 1074/1074 573/573 580/580
f 1074/1074 580/580 939/939
f 1074/1074 939/939 1069/1069
f 1074/1074 1069/1069 1071/1071
f 1270/1270 688/688 519/519
f 1270/1270 519/519 1277/1277
f 1270/1270 1277/1277 1277/1277
f 1270/1270 1277/1277 1274/1274
f 1270/1270 1274/1274 1271/1271
f 809/809 3/3 83/83
f 83/83 811/811 809/809
f 10/10 103/103 52/52
f 137/137 74/74 12/12
f 107/107 84/84 2/2
f 8/8 151/151 105/105
f 138/138 11/11 177/177
f 884/884 19/19 743/743
f 884/884 743/743 734/734
f 884/884 734/734 731/731
f 930/930 204/204 23/23
f 23/23 935/935 930/930
f 938/938 934/934 936/936
f 938/938 936/936 22/22
f 938/938 22/22 1068/1068
f 947/947 953/953 203/203
f 947/947 203/203 931/931
f 947/947 931/931 928/928
f 947/947 928/928 941/941
f 947/947 941/941 944/944
f 949/949 197/197 208/208
f 208/208 951/951 949/949
f 758/758 750/750 201/201
f 201/201 948/948 758/758
f 753/753 186/186 198/198
f 198/198 752/752 753/753
f 757/757 747/747 745/745
f 757/757 745/745 737/737
f 757/757 737/737 740/740
f 757/757 740/740 190/190
f 757/757 190/190 755/755
f 744/744 18/18 189/189
f 189/189 741/741 744/744
f 1064/1064 920/920 921/921
f 1064/1064 921/921 176/176
f 1064/1064 176/176 985/985
f 1064/1064 985/985 982/982
f 1064/1064 982/982 975/975
f 1064/1064 975/975 974/974
f 1064/1064 974/974 1050/1050
f 1064/1064 1050/1050 1058/1058
f 1064/1064 1058/1058 1060/1060
f 888/888 910/910 272/272
f 888/888 272/272 894/894
f 888/888 894/894 892/892
f 907/907 276/276 911/911
f 902/902 899/899 275/275
f 275/275 908/908 902/902
f 925/925 140/140 175/175
f 175/175 923/923 925/925
f 924/924 913/913 132/132
f 132/132 142/142 924/924
f 916/916 897/897 895/895
f 916/916 895/895 277/277
f 916/916 277/277 133/133
f 916/916 133/133 915/915
f 127/127 134/134 274/274
f 1073/1073 1070/1070 130/130
f 1073/1073 130/130 273/273
f 1073/1073 273/273 901/901
f 1073/1073 901/901 904/904
f 1072/1072 1067/1067 21/21
f 21/21 125/125 1072/1072
f 205/205 169/169 25/25
f 164/164 167/167 286/286
f 154/154 166/166 304/304
f 168/168 207/207 287/287
f 284/284 206/206 199/199
f 161/161 285/285 302/302
f 300/300 289/289 316/316
f 288/288 200/200 314/314
f 313/313 202/202 187/187
f 149/149 301/301 102/102
f 104/104 305/305 99/99
f 303/303 315/315 98/98
f 95/95 312/312 93/93
f 317/317 185/185 91/91
f 20/20 90/90 188/188
f 16/16 882/882 886/886
f 886/886 124/124 16/16
f 119/119 333/333 114/114
f 113/113 719/719 729/729
f 729/729 108/108 113/113
f 881/881 714/714 711/711
f 881/881 711/711 334/334
f 881/881 334/334 120/120
f 881/881 120/120 885/885
f 338/338 712/712 703/703
f 703/703 706/706 338/338
f 717/717 720/720 116/116
f 717/717 116/116 335/335
f 717/717 335/335 696/696
f 717/717 696/696 699/699
f 692/692 695/695 337/337
f 692/692 337/337 710/710
f 692/692 710/710 702/702
f 707/707 709/709 336/336
f 86/86 111/111 730/730
f 730/730 727/727 86/86
f 869/869 874/874 855/855
f 869/869 855/855 789/789
f 869/869 789/789 780/780
f 869/869 780/780 783/783
f 869/869 783/783 794/794
f 869/869 794/794 87/87
f 869/869 87/87 726/726
f 869/869 726/726 722/722
f 869/869 722/722 872/872
f 960/960 986/986 178/178
f 960/960 178/178 455/455
f 960/960 455/455 1061/1061
f 960/960 1061/1061 1057/1057
f 960/960 1057/1057 1048/1048
f 960/960 1048/1048 1042/1042
f 960/960 1042/1042 964/964
f 1007/1007 464/464 1010/1010
f 1003/1003 1011/1011 465/465
f 1003/1003 465/465 454/454
f 1003/1003 454/454 174/174
f 173/173 14/14 999/999
f 999/999 1001/1001 173/173
f 24/24 170/170 129/129
f 128/128 351/351 131/131
f 135/135 365/365 139/139
f 171/171 352/352 126/126
f 354/354 172/172 165/165
f 136/136 355/355 368/368
f 366/366 356/356 376/376
f 353/353 162/162 377/377
f 374/374 163/163 153/153
f 364/364 76/76 141/141
f 363/363 61/61 77/77
f 375/375 65/65 367/367
f 62/62 379/379 59/59
f 152/152 57/57 378/378
f 56/56 150/150 9/9
f 17/17 123/123 92/92
f 96/96 89/89 380/380
f 101/101 100/100 386/386
f 122/122 383/383 94/94
f 121/121 115/115 385/385
f 97/97 382/382 389/389
f 388/388 384/384 397/397
f 381/381 118/118 396/396
f 117/117 112/112 395/395
f 390/390 54/54 106/106
f 53/53 387/387 43/43
f 392/392 45/45 391/391
f 393/393 38/38 47/47
f 394/394 110/110 42/42
f 109/109 5/5 37/37
f 877/877 496/496 85/85
f 877/877 85/85 792/792
f 877/877 792/792 764/764
f 877/877 764/764 766/766
f 877/877 766/766 864/864
f 877/877 864/864 854/854
f 877/877 854/854 875/875
f 812/812 88/88 495/495
f 812/812 495/495 498/498
f 812/812 498/498 821/821
f 818/818 819/819 499/499
f 998/998 13/13 1028/1028
f 998/998 1028/1028 997/997
f 998/998 997/997 994/994
f 1029/1029 15/15 72/72
f 72/72 1024/1024 1029/1029
f 1019/1019 1026/1026 73/73
f 73/73 1022/1022 1019/1019
f 1023/1023 75/75 66/66
f 66/66 1017/1017 1023/1023
f 1034/1034 1015/1015 1018/1018
f 1034/1034 1018/1018 64/64
f 1034/1034 64/64 1041/1041
f 1039/1039 63/63 60/60
f 60/60 1036/1036 1039/1039
f 1033/1033 36/36 1030/1030
f 1038/1038 58/58 35/35
f 35/35 1032/1032 1038/1038
f 7/7 34/34 55/55
f 49/49 33/33 6/6
f 847/847 32/32 844/844
f 844/844 847/847 847/847
f 50/50 841/841 845/845
f 845/845 31/31 50/50
f 843/843 51/51 46/46
f 46/46 851/851 843/843
f 852/852 48/48 833/833
f 852/852 833/833 830/830
f 852/852 830/830 839/839
f 44/44 40/40 836/836
f 836/836 835/835 44/44
f 39/39 824/824 823/823
f 823/823 838/838 39/39
f 41/41 1/1 827/827
f 827/827 826/826 41/41
f 807/807 802/802 805/805
f 807/807 805/805 829/829
f 807/807 829/829 4/4
f 1006/1006 1055/1055 991/991
f 1006/1006 991/991 988/988
f 1006/1006 988/988 957/957
f 1006/1006 957/957 955/955
f 1006/1006 955/955 970/970
f 1006/1006 970/970 1046/1046
f 1006/1006 1046/1046 1052/1052
f 1006/1006 1052/1052 1062/1062
f 1006/1006 1062/1062 456/456
f 1006/1006 456/456 463/463
f 1006/1006 463/463 1009/1009
f 814/814 816/816 497/497
f 814/814 497/497 494/494
f 814/814 494/494 878/878
f 814/814 878/878 858/858
f 814/814 858/858 861/861
f 814/814 861/861 771/771
f 814/814 771/771 774/774
f 814/814 774/774 776/776
f 814/814 776/776 797/797
f 814/814 797/797 799/799
f 814/814 799/799 867/867

