# Blender 4.2.0
# www.blender.org
mtllib link_1.mtl
o joint_0
v 0.000721 -0.000859 -0.000903
v 0.000097 -0.000000 -0.000903
v 0.000721 0.000859 -0.000903
v 0.000269 -0.000531 0.000903
v 0.000269 0.000531 0.000903
v -0.000903 -0.000000 -0.000903
v 0.000239 -0.000000 -0.001328
v 0.000511 -0.000724 -0.001015
v 0.000305 -0.000505 -0.001062
v 0.000161 -0.000241 -0.001015
v 0.000161 0.000241 -0.001015
v 0.000305 0.000505 -0.001062
v -0.000731 -0.000531 0.000903
v 0.000511 0.000724 -0.001015
v -0.000731 0.000531 0.000903
v 0.000843 -0.000965 -0.000507
v 0.000131 -0.000447 0.000507
v 0.000039 -0.000312 0.000000
v 0.000034 -0.000149 -0.000507
v 0.000560 -0.000873 -0.000507
v 0.000406 -0.000817 0.000000
v 0.000306 -0.000689 0.000507
v 0.000306 0.000689 0.000507
v 0.000406 0.000817 -0.000000
v 0.000560 0.000873 -0.000507
v -0.000695 -0.000505 -0.001062
v 0.000034 0.000149 -0.000507
v -0.000839 -0.000241 -0.001015
v 0.000039 0.000312 -0.000000
v 0.000131 0.000447 0.000507
v 0.000843 0.000965 -0.000507
v -0.000839 0.000241 -0.001015
v 0.000179 -0.000298 0.001015
v -0.000695 0.000505 -0.001062
v 0.000141 0.000000 0.001062
v 0.000179 0.000298 0.001015
v 0.000370 -0.000912 0.000167
v 0.000335 -0.000864 0.000524
v 0.000425 -0.000965 -0.000182
v -0.000869 -0.000447 0.000507
v 0.000325 -0.000721 0.000870
v -0.000961 -0.000312 0.000000
v -0.000966 -0.000149 -0.000507
v -0.000150 -0.000922 0.000150
v -0.000168 -0.000835 0.000501
v -0.000132 -0.000915 -0.000189
v -0.000594 -0.000817 0.000000
v -0.000183 -0.000689 0.000828
v -0.000694 -0.000689 0.000507
v 0.000548 0.000859 0.000558
v -0.000694 0.000689 0.000507
v 0.000043 0.000164 0.000558
v -0.000594 0.000817 -0.000000
v -0.000225 -0.000211 0.001303
v -0.000010 0.000000 0.000000
v -0.000966 0.000149 -0.000507
v 0.000043 -0.000164 0.000558
v -0.000961 0.000312 -0.000000
v -0.000271 0.000000 0.001342
v -0.000869 0.000447 0.000507
v 0.000548 -0.000859 0.000558
v -0.000821 -0.000298 0.001015
v -0.000859 0.000000 0.001062
v 0.000183 0.000594 -0.000000
v -0.000821 0.000298 0.001015
v 0.000322 0.000695 -0.000558
v -0.000749 0.000000 0.001263
v 0.000130 0.000430 -0.000558
v 0.000183 -0.000594 0.000000
v 0.000130 -0.000430 -0.000558
v 0.000322 -0.000695 -0.000558
v -0.000143 -0.000870 -0.000474
v 0.000323 -0.000918 -0.000442
v 0.000860 -0.000972 -0.000371
v -0.000957 0.000164 0.000558
v -0.001010 0.000000 0.000000
v 0.000892 -0.000965 -0.000617
v 0.000886 -0.000910 -0.000845
v -0.000957 -0.000164 0.000558
v 0.000295 -0.000896 -0.000697
v 0.000361 -0.000842 -0.000921
v 0.000490 -0.000779 -0.001092
v -0.000817 0.000594 -0.000000
v 0.001000 0.000963 -0.000534
v -0.000678 0.000695 -0.000558
v 0.001000 0.000888 -0.000934
v -0.000870 0.000430 -0.000558
v -0.000136 -0.000860 -0.000757
v -0.000817 -0.000594 0.000000
v -0.000870 -0.000430 -0.000558
v -0.000678 -0.000695 -0.000558
v 0.001000 -0.000963 -0.000534
v 0.001000 -0.000888 -0.000934
v -0.000078 -0.000729 -0.000998
v -0.000585 -0.000632 -0.000995
v 0.000045 -0.000528 -0.001283
v -0.000580 -0.000384 -0.001240
v -0.000659 -0.000000 -0.001266
v -0.000236 -0.000000 -0.001332
v 0.000911 -0.000885 -0.000956
v 0.000690 -0.000862 -0.000987
v 0.000836 -0.000982 -0.000303
v 0.000637 -0.000965 -0.000315
v 0.000625 -0.000952 -0.000433
v 0.000619 -0.000932 -0.000661
v 0.000664 -0.000895 -0.000870
v -0.000714 -0.000423 0.001087
v -0.000204 -0.000500 0.001119
v 0.000325 -0.000551 0.001143
v 0.000370 0.000912 0.000167
v 0.000335 0.000864 0.000524
v 0.000325 0.000721 0.000870
v 0.000425 0.000965 -0.000182
v 0.000325 0.000551 0.001143
v -0.000168 0.000835 0.000501
v -0.000150 0.000922 0.000150
v -0.000183 0.000689 0.000828
v -0.000132 0.000915 -0.000189
v -0.000204 0.000500 0.001119
v -0.000225 0.000211 0.001303
v -0.000714 0.000423 0.001087
v -0.000143 0.000870 -0.000474
v 0.000323 0.000918 -0.000442
v 0.000860 0.000972 -0.000371
v 0.000892 0.000965 -0.000617
v 0.000637 0.000965 -0.000315
v 0.000625 0.000952 -0.000433
v 0.000836 0.000982 -0.000303
v 0.000619 0.000932 -0.000661
v 0.000295 0.000896 -0.000697
v -0.000136 0.000860 -0.000757
v 0.000886 0.000910 -0.000845
v 0.000664 0.000895 -0.000870
v 0.000361 0.000842 -0.000921
v -0.000078 0.000729 -0.000998
v 0.000490 0.000779 -0.001092
v 0.000911 0.000885 -0.000956
v 0.000690 0.000862 -0.000987
v 0.000045 0.000528 -0.001283
v -0.000585 0.000632 -0.000995
v -0.000580 0.000384 -0.001240
v 0.000630 -0.000905 0.000368
v 0.000632 -0.000920 0.000222
v 0.000637 -0.000925 0.000176
v 0.000612 -0.000883 0.000531
v 0.000539 -0.000823 0.000671
v 0.000559 -0.000857 0.000588
v 0.000581 -0.000870 0.000558
v 0.000510 -0.000782 0.000764
v 0.000479 -0.000733 0.000877
v 0.000654 -0.000943 0.000001
v 0.000654 -0.000943 0.000000
v 0.000764 -0.000967 -0.000143
v 0.000722 -0.000962 -0.000113
v 0.000675 -0.000951 -0.000052
v 0.000402 -0.000556 0.001147
v 0.000384 -0.000525 0.001171
v 0.000337 -0.000409 0.001260
v 0.000337 -0.000413 0.001256
v 0.000353 -0.000470 0.001212
v 0.000329 -0.000297 0.001350
v 0.000328 -0.000288 0.001356
v 0.000291 -0.000136 0.001393
v 0.000296 -0.000189 0.001379
v 0.000325 -0.000280 0.001357
v 0.000310 0.000000 0.001435
v 0.000872 -0.000969 -0.000461
v 0.000891 -0.000978 -0.000361
v 0.001000 -0.001000 -0.000326
v 0.001000 -0.000992 -0.000490
v 0.001000 -0.000999 -0.000601
v 0.000849 -0.000971 -0.000368
v 0.000844 -0.000970 -0.000376
v 0.000857 -0.000973 -0.000363
v 0.000845 -0.000966 -0.000501
v 0.001000 -0.000966 -0.000742
v 0.001000 -0.000934 -0.000826
v 0.000896 -0.000857 -0.001016
v 0.000773 -0.000792 -0.001132
v 0.000912 -0.000870 -0.000989
v 0.000955 -0.000884 -0.000955
v 0.001000 -0.000897 -0.000923
v 0.001000 -0.000885 -0.000948
v 0.000996 -0.000886 -0.000946
v 0.000580 -0.000661 -0.001231
v 0.000643 -0.000724 -0.001178
v 0.000745 -0.000786 -0.001133
v 0.000484 -0.000515 -0.001369
v 0.000486 -0.000524 -0.001359
v 0.000533 -0.000612 -0.001275
v 0.000348 -0.000318 -0.001381
v 0.000321 -0.000261 -0.001383
v 0.000294 -0.000125 -0.001391
v 0.000282 -0.000000 -0.001401
v 0.000345 -0.000314 -0.001381
v 0.000895 -0.000980 -0.000341
v 0.001000 -0.000999 -0.000278
v 0.001000 -0.000991 -0.000320
v 0.000910 -0.000979 -0.000353
v 0.001000 -0.000912 -0.000910
v 0.000899 -0.000982 -0.000292
v 0.000851 -0.000977 -0.000240
v 0.000910 -0.000984 -0.000291
v 0.001000 -0.000986 -0.000276
v 0.000442 -0.000691 0.000937
v 0.000422 -0.000655 0.000991
v 0.000440 -0.000689 0.000940
v 0.000612 0.000883 0.000531
v 0.000630 0.000905 0.000368
v 0.000632 0.000920 0.000222
v 0.000637 0.000925 0.000176
v 0.000510 0.000782 0.000764
v 0.000539 0.000823 0.000671
v 0.000479 0.000733 0.000877
v 0.000559 0.000857 0.000588
v 0.000581 0.000870 0.000558
v 0.000654 0.000943 -0.000000
v 0.000654 0.000943 0.000001
v 0.000764 0.000967 -0.000143
v 0.000722 0.000962 -0.000113
v 0.000675 0.000951 -0.000052
v 0.000337 0.000409 0.001260
v 0.000337 0.000413 0.001256
v 0.000384 0.000525 0.001171
v 0.000353 0.000470 0.001212
v 0.000402 0.000556 0.001147
v 0.000329 0.000297 0.001350
v 0.000328 0.000288 0.001356
v 0.000325 0.000280 0.001357
v 0.000291 0.000136 0.001393
v 0.000296 0.000189 0.001379
v 0.001000 0.000992 -0.000490
v 0.001000 0.000999 -0.000601
v 0.000872 0.000969 -0.000461
v 0.000891 0.000978 -0.000361
v 0.001000 0.001000 -0.000326
v 0.000857 0.000973 -0.000363
v 0.000849 0.000971 -0.000368
v 0.000844 0.000970 -0.000376
v 0.000845 0.000966 -0.000501
v 0.001000 0.000966 -0.000742
v 0.001000 0.000934 -0.000826
v 0.000896 0.000857 -0.001016
v 0.000773 0.000792 -0.001132
v 0.000912 0.000870 -0.000989
v 0.000955 0.000884 -0.000955
v 0.001000 0.000897 -0.000923
v 0.001000 0.000885 -0.000948
v 0.000996 0.000886 -0.000946
v 0.000484 0.000515 -0.001369
v 0.000486 0.000524 -0.001359
v 0.000580 0.000661 -0.001231
v 0.000533 0.000612 -0.001275
v 0.000643 0.000724 -0.001178
v 0.000745 0.000786 -0.001133
v 0.000282 -0.000000 -0.001401
v 0.000294 0.000125 -0.001391
v 0.000348 0.000318 -0.001381
v 0.000321 0.000261 -0.001383
v 0.000345 0.000314 -0.001381
v 0.000910 0.000979 -0.000353
v 0.001000 0.000991 -0.000320
v 0.000895 0.000980 -0.000341
v 0.001000 0.000999 -0.000278
v 0.001000 0.000912 -0.000910
v 0.000910 0.000984 -0.000291
v 0.000899 0.000982 -0.000292
v 0.001000 0.000986 -0.000276
v 0.000851 0.000977 -0.000240
v 0.000422 0.000655 0.000991
v 0.000440 0.000689 0.000940
v 0.000442 0.000691 0.000937
v -0.000438 0.000806 -0.000785
v -0.000469 0.000784 -0.000809
v -0.000463 0.000804 -0.000743
v -0.000702 -0.000519 0.000992
v -0.000705 -0.000512 0.000998
v -0.000672 -0.000579 0.000937
v -0.000759 0.000343 0.001109
v -0.000723 0.000422 0.001085
v -0.000705 0.000512 0.000998
v -0.000722 0.000427 0.001080
v -0.000702 0.000519 0.000992
v -0.000672 0.000579 0.000937
v -0.000781 0.000261 0.001140
v -0.000786 0.000066 0.001224
v -0.000786 -0.000066 0.001224
v -0.000776 -0.000023 0.001245
v -0.000771 0.000000 0.001256
v -0.000776 0.000023 0.001245
v -0.000781 -0.000261 0.001140
v -0.000759 -0.000343 0.001109
v -0.000723 -0.000422 0.001085
v -0.000722 -0.000427 0.001080
v -0.000453 0.000871 -0.000397
v -0.000462 0.000865 -0.000436
v -0.000419 0.000897 -0.000213
v -0.000425 0.000900 -0.000057
v -0.000437 0.000897 -0.000000
v -0.000506 0.000843 0.000344
v -0.000490 0.000857 0.000234
v -0.000433 0.000892 0.000120
v -0.000509 0.000826 0.000477
v -0.000540 0.000797 0.000540
v -0.000594 0.000689 0.000831
v -0.000584 0.000700 0.000814
v -0.000544 0.000792 0.000550
v -0.000604 0.000670 0.000859
v -0.000604 -0.000670 0.000859
v -0.000594 -0.000689 0.000831
v -0.000509 -0.000826 0.000477
v -0.000506 -0.000843 0.000344
v -0.000540 -0.000797 0.000540
v -0.000453 -0.000871 -0.000397
v -0.000462 -0.000865 -0.000436
v -0.000419 -0.000897 -0.000213
v -0.000425 -0.000900 -0.000057
v -0.000437 -0.000897 0.000000
v -0.000584 -0.000700 0.000814
v -0.000544 -0.000792 0.000550
v -0.000490 -0.000857 0.000234
v -0.000433 -0.000892 0.000120
v -0.000466 0.000855 -0.000499
v -0.000469 0.000851 -0.000514
v -0.000540 0.000716 -0.000890
v -0.000477 0.000803 -0.000703
v -0.000675 0.000526 -0.001057
v -0.000586 0.000638 -0.000987
v -0.000592 0.000629 -0.000994
v -0.000466 -0.000855 -0.000499
v -0.000469 -0.000851 -0.000514
v -0.000675 -0.000526 -0.001057
v -0.000586 -0.000638 -0.000987
v -0.000592 -0.000629 -0.000994
v -0.000540 -0.000716 -0.000890
v -0.000477 -0.000803 -0.000703
v -0.000469 -0.000784 -0.000809
v -0.000463 -0.000804 -0.000743
v -0.000438 -0.000806 -0.000785
v -0.000690 0.000506 -0.001071
v -0.000693 0.000493 -0.001082
v -0.000699 0.000415 -0.001155
v -0.000713 0.000351 -0.001197
v -0.000761 0.000251 -0.001195
v -0.000791 0.000093 -0.001207
v -0.000798 -0.000000 -0.001217
v -0.000798 -0.000000 -0.001217
v -0.000791 -0.000093 -0.001207
v -0.000761 -0.000251 -0.001195
v -0.000713 -0.000351 -0.001197
v -0.000699 -0.000415 -0.001155
v -0.000693 -0.000493 -0.001082
v -0.000690 -0.000506 -0.001071
vn -0.9644 -0.1576 -0.2125
vn -0.9644 -0.1573 -0.2126
vn -0.4482 0.8683 -0.2124
vn -0.9876 -0.0000 -0.1568
vn -0.9876 -0.0000 -0.1571
vn -0.7358 -0.5961 0.3215
vn -0.7358 -0.5960 0.3215
vn -0.7357 -0.5962 0.3215
vn -0.8248 0.4738 0.3085
vn -0.8249 0.4737 0.3085
vn -0.6976 0.6433 0.3154
vn -0.6976 0.6434 0.3154
vn -0.8489 0.3655 0.3818
vn -0.9214 0.1734 0.3479
vn -0.9214 0.1734 0.3478
vn -0.9029 -0.0000 0.4299
vn -0.9216 -0.1736 0.3471
vn -0.8489 -0.3655 0.3818
vn -0.8302 -0.4685 0.3022
vn -0.4575 0.8883 -0.0412
vn -0.4575 0.8882 -0.0412
vn -0.4528 0.8904 0.0471
vn -0.4529 0.8903 0.0470
vn -0.5860 0.8060 0.0841
vn -0.5859 0.8060 0.0841
vn -0.5930 0.7838 0.1842
vn -0.5930 0.7839 0.1842
vn -0.6813 0.6957 0.2276
vn -0.8730 0.4391 0.2122
vn -0.8730 0.4391 0.2123
vn -0.9472 0.3083 0.0883
vn -0.9869 0.1563 -0.0393
vn -0.9297 0.3198 0.1828
vn -0.9579 0.1606 0.2379
vn -0.9866 0.1561 0.0483
vn -0.9955 -0.0000 0.0949
vn -0.9817 -0.0000 0.1905
vn -0.9817 -0.0000 0.1904
vn -0.9579 -0.1606 0.2379
vn -0.9579 -0.1606 0.2380
vn -0.9963 -0.0000 -0.0861
vn -0.9963 -0.0000 -0.0865
vn -0.9869 -0.1563 -0.0393
vn -0.9866 -0.1561 0.0483
vn -0.9866 -0.1560 0.0483
vn -0.9472 -0.3083 0.0883
vn -0.9297 -0.3199 0.1828
vn -0.9297 -0.3198 0.1828
vn -0.8730 -0.4391 0.2123
vn -0.8730 -0.4391 0.2122
vn -0.6813 -0.6958 0.2275
vn -0.6812 -0.6958 0.2275
vn -0.5850 -0.8060 0.0899
vn -0.5851 -0.8060 0.0899
vn -0.4573 -0.8884 -0.0412
vn -0.5930 -0.7838 0.1842
vn -0.5930 -0.7839 0.1842
vn -0.4528 -0.8904 0.0471
vn -0.4529 -0.8903 0.0470
vn -0.7990 0.5805 0.1567
vn -0.7066 0.7066 0.0390
vn -0.5843 0.8065 -0.0905
vn -0.8061 0.5856 0.0860
vn -0.8060 0.5856 0.0860
vn -0.8903 0.4537 0.0394
vn -0.8903 0.4536 0.0393
vn -0.7063 0.7063 -0.0481
vn -0.8054 0.5850 -0.0951
vn -0.8900 0.4535 -0.0483
vn -0.9474 0.3075 -0.0883
vn -0.9475 0.3075 -0.0882
vn -0.5636 0.8060 -0.1809
vn -0.6679 0.6971 -0.2608
vn -0.6678 0.6971 -0.2608
vn -0.7943 0.5770 -0.1901
vn -0.8695 0.4330 -0.2379
vn -0.9400 0.2880 -0.1829
vn -0.9644 0.1576 -0.2125
vn -0.9644 0.1578 -0.2125
vn -0.7990 -0.5805 0.1567
vn -0.8903 -0.4537 0.0394
vn -0.9474 -0.3075 -0.0883
vn -0.9475 -0.3075 -0.0882
vn -0.8061 -0.5856 0.0860
vn -0.8060 -0.5856 0.0860
vn -0.7066 -0.7066 0.0390
vn -0.8900 -0.4535 -0.0483
vn -0.8054 -0.5850 -0.0951
vn -0.7063 -0.7063 -0.0481
vn -0.5853 -0.8060 -0.0878
vn -0.5854 -0.8060 -0.0877
vn -0.5854 -0.8060 -0.0878
vn -0.9400 -0.2880 -0.1829
vn -0.8695 -0.4330 -0.2379
vn -0.8696 -0.4327 -0.2378
vn -0.7943 -0.5770 -0.1901
vn -0.6678 -0.6971 -0.2609
vn -0.6678 -0.6971 -0.2608
vn -0.5649 -0.8045 -0.1836
vn -0.5649 -0.8045 -0.1835
vn -0.4482 -0.8683 -0.2124
vn -0.6435 0.6820 -0.3475
vn -0.7365 0.5351 -0.4137
vn -0.8467 0.4080 -0.3414
vn -0.8467 0.4081 -0.3414
vn -0.9016 0.2033 -0.3818
vn -0.9427 0.1050 -0.3166
vn -0.9426 0.1052 -0.3170
vn -0.9430 -0.1051 -0.3158
vn -0.9431 -0.1049 -0.3154
vn -0.9016 -0.2033 -0.3818
vn -0.8464 -0.3963 -0.3559
vn -0.8464 -0.3963 -0.3558
vn -0.7365 -0.5351 -0.4137
vn -0.6435 -0.6820 -0.3475
vn -0.0518 -0.9934 0.1022
vn -0.0887 -0.9216 0.3777
vn -0.0886 -0.9216 0.3778
vn -0.0195 -0.9893 0.1446
vn -0.0193 -0.9893 0.1448
vn -0.0972 -0.6282 0.7720
vn 0.0154 -0.9908 0.1348
vn 0.0154 -0.9907 0.1348
vn 0.0155 -0.9907 0.1348
vn -0.0703 -0.9119 0.4044
vn -0.0702 -0.9119 0.4044
vn -0.0903 -0.9866 0.1356
vn -0.1623 -0.6244 0.7641
vn -0.1623 -0.6244 0.7640
vn -0.1284 -0.2675 0.9550
vn -0.1022 -0.9943 0.0288
vn -0.1023 -0.9943 0.0288
vn -0.1269 -0.9643 0.2326
vn -0.0516 -0.9124 0.4061
vn -0.0517 -0.9123 0.4062
vn -0.2240 -0.3898 0.8932
vn -0.0764 -0.0000 0.9971
vn -0.0766 -0.0000 0.9971
vn -0.3086 -0.4060 0.8602
vn -0.0330 -0.9892 -0.1428
vn -0.0330 -0.9892 -0.1429
vn -0.0330 -0.9892 -0.1427
vn -0.0915 -0.9843 -0.1512
vn -0.3078 -0.9496 0.0596
vn -0.3077 -0.9496 0.0594
vn -0.3078 -0.9496 0.0599
vn -0.1840 -0.9815 -0.0522
vn 0.0538 -0.9859 -0.1582
vn 0.0538 -0.9859 -0.1583
vn -0.0782 -0.9757 -0.2046
vn -0.0781 -0.9757 -0.2047
vn -0.0809 -0.9758 -0.2032
vn -0.0614 -0.9975 -0.0355
vn -0.0614 -0.9975 -0.0354
vn -0.1061 -0.9931 -0.0492
vn -0.1062 -0.9931 -0.0491
vn -0.0780 -0.9962 -0.0378
vn -0.0780 -0.9962 -0.0376
vn -0.1721 -0.9840 -0.0465
vn -0.1722 -0.9840 -0.0467
vn -0.2681 -0.9380 -0.2196
vn -0.2682 -0.9380 -0.2196
vn -0.0798 -0.9695 -0.2318
vn -0.0799 -0.9696 -0.2313
vn -0.1922 -0.9396 -0.2831
vn -0.0364 -0.9090 -0.4151
vn 0.0503 -0.9020 -0.4289
vn 0.0502 -0.9020 -0.4287
vn 0.0502 -0.9020 -0.4288
vn -0.1104 -0.7201 -0.6850
vn -0.1105 -0.7202 -0.6849
vn -0.1530 -0.8187 -0.5534
vn -0.1529 -0.8187 -0.5535
vn -0.3208 -0.7362 -0.5959
vn -0.2538 -0.8299 -0.4969
vn -0.2162 -0.7520 -0.6227
vn -0.2162 -0.7521 -0.6226
vn -0.3137 -0.6615 -0.6812
vn -0.3138 -0.6615 -0.6811
vn -0.1012 -0.1452 -0.9842
vn -0.2461 -0.1055 -0.9635
vn -0.2462 -0.1056 -0.9635
vn -0.0807 -0.9812 -0.1753
vn -0.0808 -0.9812 -0.1754
vn -0.3578 -0.5216 0.7746
vn -0.3578 -0.5216 0.7745
vn -0.0104 -0.9954 -0.0951
vn -0.0103 -0.9954 -0.0949
vn -0.1619 -0.9550 -0.2484
vn -0.1620 -0.9550 -0.2483
vn -0.0354 -0.9608 -0.2749
vn -0.1647 -0.1189 0.9792
vn -0.1643 -0.1192 0.9792
vn -0.1646 -0.1188 0.9792
vn -0.0864 -0.9947 0.0556
vn -0.0865 -0.9947 0.0556
vn -0.1069 -0.9846 -0.1386
vn -0.1078 -0.9906 -0.0846
vn -0.0772 -0.9636 -0.2558
vn -0.0773 -0.9636 -0.2558
vn -0.0911 -0.9106 -0.4031
vn -0.2041 -0.7120 0.6719
vn -0.2046 -0.7119 0.6718
vn -0.2043 -0.7120 0.6719
vn -0.1492 -0.7060 0.6923
vn -0.1495 -0.7059 0.6924
vn -0.1493 -0.7060 0.6923
vn -0.0967 -0.8449 0.5261
vn -0.0787 -0.8526 0.5166
vn -0.3254 -0.1329 -0.9362
vn -0.0518 0.9934 0.1021
vn -0.0518 0.9934 0.1022
vn -0.0730 0.9334 0.3514
vn -0.0730 0.9334 0.3515
vn -0.0195 0.9893 0.1446
vn -0.0193 0.9893 0.1448
vn -0.0194 0.9893 0.1447
vn -0.0972 0.6282 0.7720
vn 0.0154 0.9907 0.1348
vn 0.0153 0.9908 0.1348
vn -0.0885 0.9213 0.3787
vn -0.0903 0.9866 0.1356
vn -0.1268 0.5385 0.8330
vn -0.1266 0.5387 0.8329
vn -0.1267 0.5385 0.8330
vn -0.1284 0.2675 0.9550
vn -0.1022 0.9943 0.0288
vn -0.1022 0.9943 0.0287
vn -0.1269 0.9643 0.2326
vn 0.3359 0.7811 0.5264
vn 0.3360 0.7811 0.5263
vn 0.3359 0.7811 0.5265
vn -0.1324 0.5388 0.8319
vn -0.1323 0.5388 0.8320
vn -0.2840 0.3679 0.8854
vn -0.2839 0.3679 0.8854
vn -0.0493 0.9872 -0.1520
vn -0.0872 0.9858 -0.1435
vn -0.1873 0.9810 -0.0502
vn -0.1873 0.9810 -0.0501
vn -0.1873 0.9810 -0.0500
vn -0.1840 0.9815 -0.0522
vn -0.1239 0.9736 -0.1917
vn -0.1238 0.9736 -0.1919
vn -0.0781 0.9757 -0.2047
vn -0.0782 0.9757 -0.2046
vn -0.0809 0.9758 -0.2032
vn -0.0736 0.9967 -0.0345
vn -0.1061 0.9931 -0.0492
vn -0.1062 0.9931 -0.0491
vn -0.0971 0.9924 -0.0756
vn -0.0971 0.9924 -0.0754
vn -0.0971 0.9924 -0.0755
vn -0.0268 0.9689 -0.2459
vn -0.0268 0.9690 -0.2458
vn -0.2684 0.9379 -0.2198
vn -0.2682 0.9380 -0.2198
vn -0.0457 0.9819 -0.1837
vn -0.1918 0.9396 -0.2835
vn -0.1922 0.9396 -0.2831
vn -0.0367 0.9090 -0.4152
vn -0.0370 0.9090 -0.4152
vn -0.0364 0.9090 -0.4151
vn 0.0502 0.9020 -0.4287
vn 0.0503 0.9020 -0.4289
vn 0.0502 0.9020 -0.4288
vn -0.1105 0.7202 -0.6849
vn -0.1527 0.8187 -0.5535
vn -0.1529 0.8187 -0.5534
vn -0.3208 0.7362 -0.5959
vn -0.2538 0.8299 -0.4969
vn -0.2537 0.8299 -0.4968
vn -0.1373 0.6954 -0.7053
vn -0.1373 0.6954 -0.7054
vn -0.1373 0.6953 -0.7055
vn -0.2955 0.6741 -0.6770
vn -0.2953 0.6741 -0.6770
vn -0.2954 0.6741 -0.6770
vn -0.1534 0.0981 -0.9833
vn -0.1315 0.0916 -0.9871
vn -0.1312 0.0915 -0.9871
vn -0.0706 0.9831 -0.1689
vn -0.3578 0.5233 0.7734
vn -0.0697 0.9811 -0.1807
vn -0.0697 0.9811 -0.1808
vn -0.3578 0.5221 0.7742
vn -0.1615 0.9554 -0.2474
vn -0.1614 0.9553 -0.2475
vn -0.0354 0.9608 -0.2749
vn -0.0354 0.9608 -0.2748
vn -0.1592 0.4084 0.8988
vn -0.1595 0.4082 0.8988
vn -0.1595 0.4080 0.8989
vn -0.0032 1.0000 -0.0059
vn -0.0033 1.0000 -0.0060
vn -0.1069 0.9846 -0.1386
vn -0.1078 0.9906 -0.0846
vn -0.1345 0.9702 -0.2014
vn -0.1344 0.9702 -0.2014
vn -0.2210 0.9251 -0.3089
vn -0.2210 0.9251 -0.3088
vn -0.2666 0.6934 0.6694
vn -0.2667 0.6934 0.6694
vn -0.2665 0.6934 0.6694
vn -0.1494 0.7059 0.6923
vn -0.1493 0.7060 0.6923
vn -0.1495 0.7059 0.6924
vn -0.0967 0.8449 0.5261
vn -0.0898 0.8429 0.5305
vn -0.0897 0.8429 0.5305
vn -0.3298 0.1254 -0.9357
vn 0.1472 0.9667 0.2093
vn 0.9644 0.1576 0.2125
vn 0.9644 0.1578 0.2125
vn 0.4481 -0.8684 0.2124
vn 0.4482 -0.8683 0.2124
vn 0.3052 0.9393 0.1569
vn 0.3053 0.9392 0.1570
vn 0.9876 -0.0000 0.1571
vn 0.3053 -0.9392 0.1570
vn 0.3052 -0.9393 0.1569
vn 0.6960 0.6461 -0.3131
vn 0.6961 0.6460 -0.3132
vn 0.8238 -0.4721 -0.3138
vn 0.7055 -0.6339 -0.3169
vn 0.8515 -0.3584 -0.3828
vn 0.8514 -0.3586 -0.3829
vn 0.8514 -0.3586 -0.3828
vn 0.9216 -0.1782 -0.3448
vn 0.9216 -0.1783 -0.3448
vn 0.9107 -0.0000 -0.4132
vn 0.9107 -0.0000 -0.4130
vn 0.9216 0.1783 -0.3448
vn 0.9216 0.1782 -0.3448
vn 0.8355 0.3658 -0.4101
vn 0.8354 0.3659 -0.4102
vn 0.8238 0.4720 -0.3138
vn 0.8238 0.4721 -0.3138
vn 0.2648 -0.9638 -0.0314
vn 0.2650 -0.9637 -0.0313
vn 0.2649 -0.9638 -0.0313
vn 0.3076 -0.9468 -0.0951
vn 0.3034 -0.9337 -0.1901
vn 0.4647 -0.8539 -0.2343
vn 0.4646 -0.8539 -0.2343
vn 0.3207 -0.9438 0.0799
vn 0.3208 -0.9438 0.0799
vn 0.4534 -0.8905 0.0387
vn 0.4535 -0.8904 0.0387
vn 0.4524 -0.8905 -0.0474
vn 0.5856 -0.8057 -0.0883
vn 0.5857 -0.8057 -0.0883
vn 0.5890 -0.7877 -0.1805
vn 0.6874 -0.6947 -0.2117
vn 0.8730 -0.4391 -0.2122
vn 0.8730 -0.4391 -0.2123
vn 0.9472 -0.3083 -0.0883
vn 0.9472 -0.3082 -0.0883
vn 0.9869 -0.1562 0.0393
vn 0.9297 -0.3199 -0.1828
vn 0.9579 -0.1606 -0.2379
vn 0.9866 -0.1561 -0.0483
vn 0.9955 -0.0000 -0.0949
vn 0.9817 -0.0000 -0.1905
vn 0.9817 -0.0000 -0.1904
vn 0.9579 0.1606 -0.2379
vn 0.9963 -0.0000 0.0865
vn 0.9963 -0.0000 0.0861
vn 0.9869 0.1562 0.0393
vn 0.9869 0.1563 0.0393
vn 0.9866 0.1561 -0.0483
vn 0.9472 0.3082 -0.0883
vn 0.9472 0.3083 -0.0883
vn 0.9297 0.3199 -0.1828
vn 0.8730 0.4391 -0.2123
vn 0.8730 0.4391 -0.2122
vn 0.6874 0.6947 -0.2118
vn 0.5857 0.8057 -0.0883
vn 0.5856 0.8057 -0.0883
vn 0.4535 0.8904 0.0387
vn 0.5926 0.7846 -0.1825
vn 0.4647 0.8539 -0.2343
vn 0.4646 0.8539 -0.2343
vn 0.4533 0.8901 -0.0480
vn 0.4532 0.8901 -0.0479
vn 0.3074 0.9468 -0.0957
vn 0.3034 0.9337 -0.1901
vn 0.3047 0.9484 0.0876
vn 0.3046 0.9484 0.0876
vn 0.1307 0.9904 0.0455
vn 0.1306 0.9904 0.0455
vn 0.0131 -0.9961 0.0869
vn -0.1431 -0.9607 0.2379
vn 0.0208 -0.9826 0.1843
vn 0.1480 -0.9658 0.2127
vn 0.1479 -0.9659 0.2127
vn 0.7990 -0.5805 -0.1567
vn 0.7066 -0.7066 -0.0395
vn 0.5851 -0.8061 0.0883
vn 0.5852 -0.8061 0.0883
vn 0.8060 -0.5856 -0.0860
vn 0.8061 -0.5856 -0.0860
vn 0.8903 -0.4536 -0.0393
vn 0.7063 -0.7063 0.0481
vn 0.8054 -0.5850 0.0951
vn 0.8899 -0.4536 0.0484
vn 0.8900 -0.4535 0.0483
vn 0.9474 -0.3075 0.0883
vn 0.9475 -0.3075 0.0882
vn 0.5641 -0.8053 0.1827
vn 0.5641 -0.8052 0.1827
vn 0.6805 -0.6931 0.2379
vn 0.7943 -0.5770 0.1901
vn 0.8695 -0.4330 0.2379
vn 0.8695 -0.4329 0.2379
vn 0.8695 -0.4328 0.2379
vn 0.9400 -0.2880 0.1829
vn 0.9644 -0.1578 0.2125
vn 0.9644 -0.1573 0.2126
vn 0.7990 0.5805 -0.1567
vn 0.8903 0.4536 -0.0393
vn 0.9475 0.3075 0.0882
vn 0.9474 0.3075 0.0883
vn 0.8060 0.5856 -0.0860
vn 0.8061 0.5856 -0.0860
vn 0.7066 0.7066 -0.0395
vn 0.8900 0.4535 0.0483
vn 0.8054 0.5850 0.0951
vn 0.7063 0.7063 0.0481
vn 0.5851 0.8061 0.0883
vn 0.9400 0.2880 0.1829
vn 0.8695 0.4330 0.2379
vn 0.7943 0.5770 0.1901
vn 0.6804 0.6931 0.2379
vn 0.6805 0.6931 0.2379
vn 0.5642 0.8052 0.1828
vn 0.4482 0.8683 0.2124
vn 0.4481 0.8684 0.2124
vn 0.0020 0.9959 0.0908
vn 0.0021 0.9959 0.0908
vn 0.0208 0.9826 0.1843
vn 0.0207 0.9826 0.1843
vn -0.1431 0.9607 0.2379
vn 0.1918 -0.9296 0.3147
vn 0.3903 -0.8650 0.3153
vn 0.3903 -0.8650 0.3152
vn -0.4944 0.7930 -0.3561
vn -0.4938 0.7936 -0.3555
vn -0.4945 0.7931 -0.3556
vn 0.6442 -0.6807 0.3489
vn 0.7053 -0.5896 0.3935
vn 0.8493 -0.3989 0.3457
vn 0.8551 -0.1215 0.5040
vn 0.8551 -0.1214 0.5041
vn 0.9002 -0.2014 0.3862
vn 0.9430 -0.1044 0.3160
vn 0.9430 0.1044 0.3160
vn 0.9431 0.1043 0.3159
vn -0.0006 -0.0017 1.0000
vn -0.0000 -0.0000 1.0000
vn -0.0002 -0.0006 1.0000
vn 0.9018 0.2034 0.3813
vn 0.9017 0.2035 0.3814
vn 0.8493 0.3989 0.3457
vn 0.8494 0.3988 0.3457
vn 0.7646 0.5461 0.3424
vn 0.7646 0.5460 0.3424
vn 0.6442 0.6806 0.3489
vn 0.4721 0.7947 0.3816
vn 0.3903 0.8650 0.3153
vn 0.3904 0.8650 0.3153
vn 0.1866 0.9309 0.3139
vn 0.1867 0.9309 0.3139
vn 1.0000 -0.0000 -0.0000
vn -0.6976 -0.6433 0.3154
vn -0.6976 -0.6434 0.3154
vn -0.8239 0.4696 0.3172
vn -0.8246 0.4699 0.3151
vn -0.8246 0.4699 0.3150
vn -0.8244 0.4697 0.3158
vn -0.8244 0.4698 0.3158
vn -0.7358 0.5961 0.3215
vn -0.7357 0.5961 0.3215
vn -0.7358 0.5960 0.3215
vn -0.9216 0.1736 0.3472
vn -0.9216 0.1736 0.3471
vn -0.9104 -0.0000 0.4138
vn -0.9117 -0.0000 0.4108
vn -0.9214 -0.1734 0.3478
vn -0.8245 -0.4703 0.3147
vn -0.8239 -0.4696 0.3172
vn -0.8244 -0.4697 0.3158
vn -0.4441 0.8953 -0.0355
vn -0.4442 0.8952 -0.0355
vn -0.4545 0.8894 -0.0486
vn -0.4544 0.8895 -0.0486
vn -0.4509 0.8919 -0.0345
vn -0.4552 0.8889 0.0511
vn -0.4552 0.8889 0.0512
vn -0.4524 0.8906 0.0468
vn -0.4524 0.8906 0.0469
vn -0.5850 0.8060 0.0899
vn -0.5859 0.8055 0.0884
vn -0.5860 0.8055 0.0884
vn -0.5908 0.7907 0.1604
vn -0.5909 0.7906 0.1604
vn -0.5771 0.7970 0.1781
vn -0.6879 0.6942 0.2118
vn -0.6869 0.6955 0.2109
vn -0.6869 0.6954 0.2110
vn -0.6869 0.6955 0.2110
vn -0.6868 -0.6956 0.2108
vn -0.6878 -0.6943 0.2117
vn -0.5860 -0.8060 0.0841
vn -0.5859 -0.8060 0.0841
vn -0.5860 -0.8055 0.0884
vn -0.4507 -0.8920 -0.0345
vn -0.4542 -0.8896 -0.0486
vn -0.4543 -0.8895 -0.0486
vn -0.4439 -0.8954 -0.0355
vn -0.4440 -0.8953 -0.0355
vn -0.5771 -0.7970 0.1781
vn -0.5909 -0.7906 0.1604
vn -0.5909 -0.7907 0.1604
vn -0.5908 -0.7907 0.1604
vn -0.4524 -0.8906 0.0468
vn -0.4524 -0.8906 0.0469
vn -0.4552 -0.8889 0.0512
vn -0.4552 -0.8889 0.0511
vn -0.5823 0.8070 -0.0985
vn -0.5824 0.8069 -0.0984
vn -0.5854 0.8060 -0.0877
vn -0.5854 0.8060 -0.0878
vn -0.5865 0.7884 -0.1856
vn -0.5598 0.8072 -0.1869
vn -0.5649 0.8044 -0.1839
vn -0.6793 0.6941 -0.2381
vn -0.6814 0.6921 -0.2382
vn -0.6813 0.6921 -0.2382
vn -0.7769 0.6166 -0.1273
vn -0.7769 0.6166 -0.1272
vn -0.5824 -0.8070 -0.0984
vn -0.5823 -0.8070 -0.0985
vn -0.5842 -0.8066 -0.0906
vn -0.5842 -0.8065 -0.0905
vn -0.7769 -0.6166 -0.1273
vn -0.6814 -0.6921 -0.2382
vn -0.6793 -0.6942 -0.2381
vn -0.5598 -0.8074 -0.1865
vn -0.5598 -0.8073 -0.1866
vn -0.5865 -0.7885 -0.1853
vn -0.5635 -0.8061 -0.1805
vn -0.5635 -0.8062 -0.1803
vn -0.8481 0.4002 -0.3472
vn -0.8481 0.4002 -0.3471
vn -0.8465 0.3994 -0.3520
vn -0.8896 0.3459 -0.2984
vn -0.9432 0.1039 -0.3154
vn -0.9431 0.1042 -0.3158
vn -0.9432 -0.1037 -0.3157
vn -0.9430 -0.1040 -0.3161
vn -0.8519 -0.4061 -0.3308
vn -0.8518 -0.4061 -0.3308
vn -0.8481 -0.4002 -0.3473
vn -0.8467 -0.4080 -0.3416
vn -0.8467 -0.4080 -0.3415
vn -0.0713 -0.9894 0.1265
vn -0.0710 -0.9894 0.1269
vn -0.0520 -0.9933 0.1032
vn -0.0906 -0.9226 0.3750
vn -0.0905 -0.9226 0.3750
vn -0.0745 -0.9288 0.3629
vn -0.0746 -0.9288 0.3629
vn -0.0761 -0.9291 0.3620
vn -0.0762 -0.9291 0.3620
vn -0.0894 -0.9214 0.3782
vn -0.0895 -0.9214 0.3782
vn -0.0731 -0.9334 0.3514
vn -0.0730 -0.9334 0.3514
vn -0.0730 -0.9334 0.3515
vn -0.7266 -0.6871 0.0005
vn -0.7267 -0.6870 0.0003
vn -0.0515 -0.9940 0.0970
vn -0.0514 -0.9939 0.0972
vn -0.0215 -0.9889 0.1471
vn -0.0213 -0.9889 0.1473
vn -0.0212 -0.9906 0.1354
vn -0.0212 -0.9905 0.1356
vn -0.0265 -0.9871 0.1578
vn 0.8234 -0.4021 0.4003
vn 0.8236 -0.4018 0.4002
vn 0.8235 -0.4019 0.4004
vn -0.0879 -0.6399 0.7634
vn -0.0880 -0.6399 0.7634
vn -0.1055 -0.6260 0.7727
vn -0.0660 -0.9693 0.2370
vn -0.0659 -0.9693 0.2370
vn -0.0885 -0.9213 0.3787
vn -0.0886 -0.9213 0.3786
vn 0.0199 -0.9996 -0.0196
vn -0.1564 -0.5591 0.8142
vn -0.1565 -0.5590 0.8143
vn -0.1268 -0.5385 0.8330
vn -0.1268 -0.5385 0.8331
vn -0.1267 -0.5385 0.8330
vn -0.0961 -0.6274 0.7727
vn -0.0961 -0.6274 0.7728
vn -0.0961 -0.6275 0.7727
vn -0.1522 -0.2751 0.9493
vn -0.1386 -0.2121 0.9674
vn -0.1172 -0.1692 0.9786
vn -0.1172 -0.1693 0.9786
vn -0.1278 -0.2742 0.9531
vn -0.1278 -0.2743 0.9531
vn -0.0604 -0.9979 -0.0234
vn -0.0603 -0.9979 -0.0234
vn -0.0614 -0.9978 -0.0258
vn -0.1096 -0.9930 0.0432
vn -0.1096 -0.9930 0.0431
vn -0.1269 -0.9643 0.2325
vn -0.0350 -0.9914 0.1259
vn -0.0329 -0.9920 0.1215
vn 0.0134 -0.9432 0.3320
vn -0.0698 -0.9025 0.4249
vn -0.0697 -0.9026 0.4249
vn -0.0530 -0.9162 0.3972
vn -0.1323 -0.5388 0.8320
vn -0.6467 0.0004 -0.7627
vn -0.6465 -0.0000 -0.7629
vn -0.6468 -0.0005 -0.7627
vn -0.2475 -0.3801 0.8912
vn -0.2474 -0.3802 0.8912
vn -0.2458 -0.3891 0.8878
vn -0.2891 -0.3624 0.8861
vn -0.2893 -0.3623 0.8860
vn -0.2891 -0.3623 0.8861
vn -0.2840 -0.3679 0.8854
vn -0.2495 -0.3883 0.8871
vn -0.0341 -0.9877 -0.1527
vn -0.0341 -0.9877 -0.1528
vn -0.0493 -0.9871 -0.1520
vn -0.0493 -0.9871 -0.1521
vn -0.0304 -0.9907 -0.1325
vn -0.0304 -0.9907 -0.1326
vn -0.0872 -0.9858 -0.1435
vn -0.1828 -0.9820 -0.0479
vn -0.1828 -0.9820 -0.0482
vn -0.1881 -0.9807 -0.0529
vn -0.1881 -0.9807 -0.0525
vn -0.1874 -0.9810 -0.0495
vn -0.1874 -0.9810 -0.0492
vn -0.1239 -0.9736 -0.1917
vn -0.0728 -0.9825 -0.1715
vn -0.0728 -0.9825 -0.1716
vn -0.0537 -0.9929 -0.1058
vn -0.0487 -0.9947 -0.0900
vn -0.0509 -0.9948 -0.0888
vn -0.0490 -0.9948 -0.0898
vn -0.0736 -0.9967 -0.0345
vn -0.0736 -0.9967 -0.0346
vn -0.0894 -0.9922 -0.0868
vn -0.1114 -0.9922 -0.0558
vn -0.1114 -0.9922 -0.0557
vn -0.0597 -0.9976 -0.0339
vn -0.0971 -0.9924 -0.0756
vn -0.0971 -0.9924 -0.0755
vn -0.0971 -0.9924 -0.0754
vn -0.0541 -0.9978 -0.0375
vn -0.0541 -0.9978 -0.0376
vn -0.0258 -0.9669 -0.2538
vn -0.0257 -0.9670 -0.2537
vn -0.1966 -0.9520 -0.2344
vn -0.1966 -0.9520 -0.2345
vn -0.1966 -0.9521 -0.2344
vn -0.0923 -0.9957 -0.0082
vn -0.0923 -0.9957 -0.0081
vn -0.0922 -0.9957 -0.0080
vn -0.1417 -0.9249 -0.3528
vn -0.1413 -0.9250 -0.3528
vn -0.2682 -0.9380 -0.2198
vn -0.2684 -0.9379 -0.2198
vn -0.0457 -0.9819 -0.1837
vn -0.0457 -0.9820 -0.1832
vn -0.0067 -0.8779 -0.4788
vn -0.1080 -0.8697 -0.4817
vn -0.0423 -0.8901 -0.4539
vn 0.0293 -0.8928 -0.4494
vn 0.0292 -0.8929 -0.4493
vn 0.0290 -0.8930 -0.4491
vn -0.0191 -0.9019 -0.4316
vn -0.0189 -0.9017 -0.4318
vn -0.0193 -0.9019 -0.4315
vn 0.0724 -0.8879 -0.4543
vn 0.0728 -0.8877 -0.4546
vn 0.0725 -0.8879 -0.4544
vn 0.0503 -0.9017 -0.4294
vn 0.0502 -0.9017 -0.4294
vn 0.0503 -0.9017 -0.4295
vn -0.1287 -0.7178 -0.6842
vn -0.1288 -0.7179 -0.6841
vn -0.1120 -0.7198 -0.6851
vn -0.1121 -0.7199 -0.6850
vn -0.1051 -0.7489 -0.6543
vn -0.1050 -0.7489 -0.6544
vn -0.1113 -0.7161 -0.6891
vn -0.1294 -0.7130 -0.6891
vn -0.1310 -0.7113 -0.6906
vn -0.1309 -0.7112 -0.6907
vn -0.0723 -0.7937 -0.6040
vn -0.0725 -0.7937 -0.6039
vn -0.0721 -0.7937 -0.6040
vn -0.1578 -0.8030 -0.5747
vn -0.1576 -0.8030 -0.5748
vn -0.1575 -0.8029 -0.5749
vn -0.1088 -0.8623 -0.4946
vn -0.1089 -0.8623 -0.4945
vn -0.1531 -0.8188 -0.5534
vn -0.1530 -0.8188 -0.5534
vn -0.0980 -0.7932 -0.6011
vn -0.0979 -0.7932 -0.6010
vn -0.0980 -0.7932 -0.6010
vn -0.1373 -0.6953 -0.7055
vn -0.1373 -0.6952 -0.7056
vn -0.3771 -0.5644 -0.7343
vn -0.3771 -0.5644 -0.7344
vn -0.3770 -0.5644 -0.7344
vn -0.3723 -0.6484 -0.6641
vn -0.3109 -0.6657 -0.6784
vn -0.2033 -0.6593 -0.7238
vn -0.2955 -0.6741 -0.6769
vn -0.1534 -0.0981 -0.9833
vn -0.2050 -0.1541 -0.9665
vn -0.2049 -0.1541 -0.9666
vn -0.2050 -0.1541 -0.9666
vn -0.1829 -0.1854 -0.9655
vn -0.1477 -0.1693 -0.9744
vn -0.1478 -0.1693 -0.9744
vn -0.2183 -0.1355 -0.9664
vn -0.2182 -0.1355 -0.9664
vn -0.1308 -0.0915 -0.9872
vn -0.1307 -0.0914 -0.9872
vn -0.1307 -0.0915 -0.9872
vn -0.0707 -0.9831 -0.1689
vn -0.0706 -0.9831 -0.1689
vn -0.0667 -0.9801 -0.1871
vn -0.0666 -0.9801 -0.1871
vn -0.0773 -0.9824 -0.1700
vn -0.0772 -0.9824 -0.1700
vn -0.3578 -0.5233 0.7734
vn -0.0893 -0.9839 -0.1547
vn -0.0893 -0.9839 -0.1546
vn -0.1684 -0.9837 -0.0622
vn -0.1685 -0.9837 -0.0623
vn 0.1865 -0.6454 -0.7407
vn 0.1857 -0.6460 -0.7404
vn 0.1866 -0.6451 -0.7409
vn -0.1614 -0.9553 -0.2475
vn -0.1615 -0.9554 -0.2474
vn -0.0700 -0.9706 -0.2304
vn -0.0700 -0.9706 -0.2305
vn -0.0179 -0.9960 0.0881
vn -0.0171 -0.9961 0.0863
vn -0.0185 -0.9960 0.0878
vn -0.1677 -0.1460 0.9750
vn -0.1693 -0.1428 0.9752
vn -0.1684 -0.1445 0.9751
vn -0.1592 -0.4084 0.8988
vn -0.1595 -0.4080 0.8989
vn -0.1595 -0.4082 0.8988
vn -0.0191 -0.9961 0.0860
vn -0.0190 -0.9961 0.0861
vn -0.0032 -1.0000 -0.0059
vn -0.0033 -1.0000 -0.0060
vn -0.0646 -0.9923 -0.1052
vn -0.0646 -0.9923 -0.1053
vn -0.1007 -0.9921 -0.0750
vn -0.1344 -0.9702 -0.2014
vn -0.1345 -0.9702 -0.2014
vn -0.2210 -0.9251 -0.3088
vn -0.2210 -0.9251 -0.3089
vn -0.2853 -0.6941 0.6609
vn -0.2854 -0.6941 0.6609
vn -0.2189 -0.6988 0.6810
vn -0.2188 -0.6988 0.6810
vn 0.0031 -0.8387 0.5446
vn 0.0029 -0.8387 0.5446
vn -0.1491 -0.7051 0.6932
vn -0.1492 -0.7051 0.6933
vn 0.0043 -0.8315 0.5555
vn 0.0040 -0.8314 0.5556
vn 0.0041 -0.8315 0.5556
vn -0.1482 -0.7079 0.6905
vn -0.1483 -0.7079 0.6906
vn 0.1102 -0.8039 0.5844
vn 0.1104 -0.8039 0.5844
vn -0.1051 -0.8374 0.5363
vn -0.0837 -0.8462 0.5263
vn -0.0837 -0.8462 0.5262
vn -0.0912 -0.8411 0.5332
vn -0.0899 -0.8429 0.5305
vn -0.0829 -0.8460 0.5266
vn -0.0830 -0.8460 0.5266
vn -0.3303 -0.1255 -0.9355
vn -0.3292 -0.1310 -0.9351
vn -0.3368 -0.1429 -0.9307
vn -0.0520 0.9933 0.1031
vn -0.0520 0.9933 0.1032
vn -0.0710 0.9894 0.1269
vn -0.0710 0.9894 0.1268
vn -0.0713 0.9894 0.1265
vn -0.0712 0.9894 0.1264
vn -0.0745 0.9288 0.3629
vn -0.0886 0.9216 0.3778
vn -0.0887 0.9216 0.3778
vn -0.0887 0.9216 0.3777
vn -0.0906 0.9226 0.3750
vn -0.0894 0.9214 0.3782
vn -0.0761 0.9291 0.3620
vn -0.0762 0.9291 0.3620
vn -0.0212 0.9905 0.1356
vn -0.0212 0.9906 0.1354
vn -0.0215 0.9889 0.1471
vn -0.0214 0.9889 0.1472
vn -0.0213 0.9889 0.1473
vn -0.0514 0.9939 0.0971
vn -0.0515 0.9940 0.0970
vn -0.0514 0.9939 0.0972
vn -0.7266 0.6871 0.0003
vn -0.7265 0.6872 0.0005
vn -0.0264 0.9871 0.1579
vn -0.0265 0.9871 0.1578
vn 0.8236 0.4019 0.4003
vn 0.8237 0.4018 0.4002
vn 0.8234 0.4021 0.4003
vn -0.1055 0.6260 0.7727
vn -0.0879 0.6399 0.7634
vn -0.0880 0.6400 0.7634
vn -0.0659 0.9693 0.2370
vn -0.0661 0.9693 0.2370
vn -0.0702 0.9119 0.4044
vn 0.0199 0.9996 -0.0196
vn -0.1564 0.5591 0.8142
vn -0.1564 0.5592 0.8142
vn -0.1623 0.6245 0.7640
vn -0.1622 0.6246 0.7639
vn -0.1623 0.6244 0.7641
vn -0.0960 0.6276 0.7726
vn -0.0961 0.6275 0.7727
vn -0.1172 0.1693 0.9786
vn -0.1172 0.1692 0.9786
vn -0.1386 0.2121 0.9674
vn -0.1522 0.2751 0.9493
vn -0.1278 0.2742 0.9531
vn -0.1278 0.2743 0.9531
vn -0.1096 0.9930 0.0431
vn -0.1096 0.9930 0.0432
vn -0.0614 0.9978 -0.0258
vn -0.0604 0.9979 -0.0234
vn -0.0603 0.9979 -0.0234
vn -0.0329 0.9920 0.1215
vn -0.0350 0.9914 0.1259
vn -0.1269 0.9643 0.2325
vn 0.0134 0.9432 0.3320
vn 0.0134 0.9432 0.3319
vn -0.0525 0.9123 0.4061
vn -0.0533 0.9142 0.4018
vn -0.2241 0.3898 0.8932
vn -0.2240 0.3898 0.8932
vn -0.2891 0.3623 0.8861
vn -0.2893 0.3623 0.8860
vn -0.2890 0.3624 0.8861
vn -0.2458 0.3891 0.8878
vn -0.2474 0.3801 0.8912
vn -0.2474 0.3802 0.8912
vn -0.2475 0.3801 0.8912
vn -0.3086 0.4060 0.8602
vn -0.2495 0.3883 0.8871
vn -0.0342 0.9877 -0.1526
vn -0.0330 0.9892 -0.1426
vn -0.0305 0.9907 -0.1324
vn -0.0915 0.9843 -0.1512
vn -0.0915 0.9843 -0.1511
vn -0.1880 0.9807 -0.0534
vn -0.1880 0.9807 -0.0533
vn -0.1880 0.9807 -0.0535
vn -0.1827 0.9820 -0.0487
vn -0.1827 0.9820 -0.0488
vn -0.1827 0.9820 -0.0489
vn -0.3077 0.9497 0.0589
vn -0.3077 0.9496 0.0591
vn 0.0539 0.9859 -0.1584
vn 0.0538 0.9859 -0.1583
vn 0.0538 0.9859 -0.1582
vn -0.0536 0.9929 -0.1058
vn -0.0536 0.9929 -0.1059
vn -0.0727 0.9825 -0.1716
vn -0.0728 0.9825 -0.1716
vn -0.0490 0.9948 -0.0898
vn -0.0509 0.9948 -0.0887
vn -0.0487 0.9947 -0.0900
vn -0.0614 0.9975 -0.0354
vn -0.0614 0.9975 -0.0355
vn -0.1114 0.9922 -0.0557
vn -0.1114 0.9922 -0.0558
vn -0.0894 0.9922 -0.0868
vn -0.0597 0.9976 -0.0339
vn -0.0780 0.9962 -0.0378
vn -0.0780 0.9962 -0.0377
vn -0.0780 0.9962 -0.0376
vn -0.0257 0.9670 -0.2537
vn -0.0257 0.9670 -0.2536
vn -0.0258 0.9669 -0.2537
vn -0.1712 0.9844 -0.0399
vn -0.1722 0.9840 -0.0466
vn -0.1721 0.9840 -0.0465
vn -0.0922 0.9957 -0.0080
vn -0.0923 0.9957 -0.0081
vn -0.0923 0.9957 -0.0082
vn -0.1413 0.9250 -0.3528
vn -0.1418 0.9249 -0.3528
vn -0.2681 0.9380 -0.2196
vn -0.2682 0.9380 -0.2196
vn -0.0798 0.9695 -0.2318
vn -0.0799 0.9696 -0.2314
vn -0.0063 0.8777 -0.4791
vn -0.0067 0.8779 -0.4788
vn -0.0423 0.8901 -0.4539
vn -0.0428 0.8900 -0.4540
vn -0.0426 0.8900 -0.4539
vn -0.1085 0.8696 -0.4817
vn -0.1084 0.8696 -0.4817
vn -0.0193 0.9019 -0.4315
vn -0.0189 0.9017 -0.4318
vn -0.0191 0.9019 -0.4316
vn 0.0290 0.8930 -0.4491
vn 0.0292 0.8929 -0.4493
vn 0.0294 0.8928 -0.4494
vn 0.0503 0.9017 -0.4295
vn 0.0502 0.9017 -0.4294
vn 0.0503 0.9017 -0.4294
vn 0.0725 0.8879 -0.4544
vn 0.0728 0.8877 -0.4546
vn 0.0724 0.8879 -0.4543
vn -0.1050 0.7489 -0.6544
vn -0.1051 0.7489 -0.6543
vn -0.1288 0.7179 -0.6841
vn -0.1288 0.7179 -0.6842
vn -0.1295 0.7130 -0.6891
vn -0.1294 0.7130 -0.6891
vn -0.1113 0.7161 -0.6891
vn -0.1121 0.7199 -0.6850
vn -0.1120 0.7199 -0.6850
vn -0.1310 0.7113 -0.6906
vn -0.1088 0.8623 -0.4946
vn -0.1086 0.8623 -0.4946
vn -0.1534 0.7813 -0.6050
vn -0.1536 0.7813 -0.6049
vn -0.1531 0.7813 -0.6051
vn -0.1565 0.8046 -0.5728
vn -0.1569 0.8046 -0.5727
vn -0.1525 0.8187 -0.5536
vn -0.1528 0.8187 -0.5535
vn -0.0980 0.7932 -0.6011
vn -0.0980 0.7931 -0.6011
vn -0.0979 0.7932 -0.6010
vn -0.2163 0.7521 -0.6225
vn -0.2162 0.7521 -0.6225
vn -0.2162 0.7521 -0.6226
vn -0.2032 0.6593 -0.7239
vn -0.2031 0.6593 -0.7239
vn -0.3820 0.6865 -0.6187
vn -0.3819 0.6865 -0.6187
vn -0.3821 0.6865 -0.6186
vn -0.3141 0.6639 -0.6787
vn -0.3139 0.6639 -0.6787
vn -0.3768 0.5644 -0.7345
vn -0.3769 0.5644 -0.7345
vn -0.3136 0.6615 -0.6812
vn -0.3135 0.6615 -0.6813
vn -0.1012 0.1452 -0.9842
vn -0.1481 0.1693 -0.9744
vn -0.1484 0.1694 -0.9743
vn -0.1836 0.1856 -0.9653
vn -0.1833 0.1855 -0.9654
vn -0.2052 0.1542 -0.9665
vn -0.2057 0.1542 -0.9664
vn -0.2189 0.1356 -0.9663
vn -0.2185 0.1355 -0.9664
vn -0.2186 0.1355 -0.9664
vn -0.2468 0.1057 -0.9633
vn -0.2465 0.1056 -0.9634
vn -0.0004 -0.0000 1.0000
vn -0.0807 0.9812 -0.1753
vn -0.0772 0.9824 -0.1700
vn -0.0773 0.9824 -0.1700
vn -0.0666 0.9801 -0.1871
vn -0.3578 0.5216 0.7745
vn -0.0856 0.9830 -0.1627
vn -0.0855 0.9830 -0.1627
vn 0.1867 0.6451 -0.7409
vn 0.1857 0.6460 -0.7404
vn 0.1865 0.6454 -0.7407
vn -0.1619 0.9550 -0.2484
vn -0.1620 0.9550 -0.2483
vn -0.0700 0.9706 -0.2304
vn -0.1684 0.1445 0.9751
vn -0.1693 0.1428 0.9752
vn -0.1677 0.1460 0.9750
vn -0.0185 0.9960 0.0878
vn -0.0171 0.9961 0.0863
vn -0.0179 0.9960 0.0880
vn -0.1646 0.1188 0.9792
vn -0.1643 0.1192 0.9792
vn -0.1647 0.1189 0.9792
vn -0.0190 0.9961 0.0861
vn -0.0191 0.9961 0.0860
vn -0.0865 0.9947 0.0555
vn -0.0864 0.9947 0.0556
vn -0.0646 0.9923 -0.1052
vn -0.0646 0.9923 -0.1053
vn -0.1007 0.9921 -0.0750
vn -0.0773 0.9636 -0.2558
vn -0.0772 0.9636 -0.2558
vn -0.0911 0.9106 -0.4031
vn -0.0911 0.9106 -0.4030
vn -0.2181 0.6995 0.6805
vn -0.2182 0.6995 0.6805
vn -0.2043 0.7120 0.6719
vn -0.2046 0.7119 0.6718
vn -0.2041 0.7120 0.6719
vn -0.1484 0.7079 0.6906
vn -0.1483 0.7079 0.6906
vn -0.1485 0.7079 0.6906
vn -0.1491 0.7051 0.6933
vn -0.1491 0.7051 0.6932
vn -0.1493 0.7051 0.6933
vn 0.0029 0.8387 0.5447
vn 0.0031 0.8387 0.5446
vn 0.0043 0.8315 0.5555
vn 0.0042 0.8315 0.5556
vn 0.1105 0.8039 0.5844
vn 0.1102 0.8039 0.5845
vn 0.1104 0.8039 0.5844
vn -0.1051 0.8374 0.5363
vn -0.0786 0.8526 0.5166
vn -0.0785 0.8526 0.5167
vn -0.0910 0.8411 0.5332
vn -0.0911 0.8411 0.5332
vn -0.0828 0.8460 0.5266
vn -0.0828 0.8460 0.5267
vn -0.0835 0.8462 0.5263
vn -0.3364 0.1428 -0.9308
vn -0.3249 0.1328 -0.9364
vn -0.3288 0.1310 -0.9353
vn 0.0003 -0.0000 1.0000
vn 0.1479 0.9659 0.2127
vn 0.1478 0.9659 0.2127
vn 0.7007 0.6395 -0.3164
vn 0.7006 0.6396 -0.3163
vn 0.7057 0.6336 -0.3170
vn 0.7058 0.6335 -0.3171
vn 0.8243 -0.4692 -0.3167
vn 0.7006 -0.6396 -0.3163
vn 0.7004 -0.6398 -0.3162
vn 0.6960 -0.6461 -0.3131
vn 0.6958 -0.6464 -0.3131
vn 0.8494 -0.3638 -0.3823
vn 0.8495 -0.3637 -0.3822
vn 0.8466 -0.3764 -0.3762
vn 0.8465 -0.3766 -0.3763
vn 0.8482 -0.3675 -0.3815
vn 0.8483 -0.3674 -0.3814
vn 0.8366 -0.3655 -0.4081
vn 0.9215 -0.1726 -0.3480
vn 0.9214 -0.1727 -0.3481
vn 0.9104 -0.0000 -0.4138
vn 0.9214 0.1727 -0.3481
vn 0.9215 0.1726 -0.3480
vn 0.8367 0.3653 -0.4080
vn 0.8368 0.3652 -0.4079
vn 0.8891 0.3238 -0.3235
vn 0.8892 0.3236 -0.3235
vn 0.8483 0.3675 -0.3812
vn 0.8482 0.3676 -0.3812
vn 0.8501 0.3626 -0.3819
vn 0.8500 0.3627 -0.3820
vn 0.8244 0.4692 -0.3167
vn 0.1656 -0.9852 0.0447
vn 0.1476 -0.9883 0.0379
vn 0.1474 -0.9884 0.0377
vn 0.3701 -0.9284 0.0336
vn 0.3702 -0.9283 0.0337
vn 0.3702 -0.9284 0.0337
vn 0.1540 -0.9870 0.0450
vn 0.1541 -0.9870 0.0450
vn 0.1801 -0.9833 0.0268
vn 0.1697 -0.9851 0.0277
vn 0.1448 -0.9888 0.0364
vn 0.3077 -0.9467 -0.0951
vn 0.3074 -0.9468 -0.0957
vn 0.4389 -0.8658 -0.2401
vn 0.3046 -0.9484 0.0876
vn 0.3047 -0.9484 0.0876
vn 0.4544 -0.8896 0.0457
vn 0.4526 -0.8905 -0.0476
vn 0.4531 -0.8901 -0.0483
vn -0.4056 -0.6114 -0.6795
vn -0.4056 -0.6114 -0.6794
vn 0.5926 -0.7846 -0.1825
vn 0.5925 -0.7846 -0.1825
vn 0.5923 -0.7844 -0.1842
vn 0.5922 -0.7844 -0.1842
vn 0.6872 -0.6930 -0.2181
vn 0.6872 -0.6930 -0.2180
vn 0.6872 0.6930 -0.2181
vn 0.4544 0.8896 0.0457
vn -0.4055 0.6115 -0.6795
vn -0.4055 0.6114 -0.6795
vn 0.5890 0.7877 -0.1805
vn 0.5923 0.7844 -0.1842
vn 0.5922 0.7844 -0.1842
vn 0.4389 0.8658 -0.2401
vn 0.4390 0.8658 -0.2401
vn 0.4530 0.8902 -0.0477
vn 0.4531 0.8902 -0.0478
vn 0.4538 0.8898 -0.0487
vn 0.4537 0.8898 -0.0487
vn 0.3077 0.9467 -0.0951
vn 0.3076 0.9468 -0.0951
vn 0.3208 0.9438 0.0799
vn 0.3207 0.9438 0.0799
vn 0.1801 0.9833 0.0268
vn 0.1802 0.9833 0.0268
vn 0.1698 0.9851 0.0277
vn 0.1697 0.9851 0.0277
vn 0.1476 0.9883 0.0377
vn 0.1475 0.9883 0.0377
vn 0.1643 0.9855 0.0435
vn 0.1643 0.9854 0.0435
vn 0.1491 0.9880 0.0403
vn 0.2209 0.9743 0.0433
vn 0.2210 0.9743 0.0434
vn 0.3704 0.9283 0.0337
vn 0.3702 0.9284 0.0336
vn 0.3702 0.9283 0.0337
vn -0.2543 -0.9368 0.2403
vn -0.0009 -0.9963 0.0857
vn -0.0014 -0.9960 0.0891
vn -0.0013 -0.9960 0.0891
vn 0.0021 -0.9959 0.0908
vn 0.0059 -0.9967 0.0807
vn -0.0050 -0.9967 0.0807
vn 0.0057 -0.9838 0.1790
vn 0.0056 -0.9838 0.1790
vn 0.0146 -0.9870 0.1602
vn 0.1473 -0.9667 0.2093
vn 0.1473 -0.9667 0.2092
vn 0.0059 0.9967 0.0807
vn 0.0058 0.9967 0.0807
vn -0.0014 0.9960 0.0891
vn 0.0120 0.9871 0.1598
vn 0.0121 0.9871 0.1598
vn 0.0131 0.9961 0.0869
vn 0.0130 0.9961 0.0869
vn -0.0059 0.9970 0.0771
vn -0.0058 0.9970 0.0771
vn -0.0050 0.9967 0.0807
vn -0.0051 0.9967 0.0807
vn 0.0146 0.9870 0.1602
vn 0.0056 0.9838 0.1790
vn 0.1987 -0.9245 0.3253
vn 0.1867 -0.9309 0.3139
vn 0.1867 -0.9309 0.3140
vn 0.3907 -0.8644 0.3164
vn 0.4721 -0.7947 0.3816
vn 0.4719 -0.7945 0.3822
vn 0.4721 -0.7946 0.3817
vn 0.6431 -0.6827 0.3468
vn 0.7275 -0.5430 0.4195
vn 0.7275 -0.5430 0.4194
vn 0.7382 -0.5322 0.4145
vn 0.7382 -0.5322 0.4146
vn 0.8472 -0.4017 0.3478
vn 0.9020 -0.2031 0.3811
vn 0.8551 0.1214 0.5041
vn 0.8551 0.1215 0.5040
vn 0.8552 0.1224 0.5037
vn 0.9000 0.2018 0.3864
vn 0.8999 0.2020 0.3865
vn 0.8472 0.4017 0.3478
vn 0.8472 0.4016 0.3477
vn 0.7274 0.5431 0.4194
vn 0.7358 0.5347 0.4156
vn 0.6432 0.6827 0.3468
vn -0.4945 -0.7929 -0.3561
vn -0.4946 -0.7931 -0.3555
vn -0.4937 -0.7937 -0.3554
vn 0.3907 0.8644 0.3164
vn 0.3908 0.8644 0.3164
vn 0.1987 0.9245 0.3253
vn 0.1918 0.9296 0.3147
vt 0.000000 0.000000
vt 0.703510 0.834685
vt 0.708302 0.827766
vt 0.714362 0.845631
vt 0.727289 0.812158
vt 0.739646 0.812484
vt 0.727348 0.829558
vt 0.700488 0.860943
vt 0.692562 0.846625
vt 0.695290 0.844738
vt 0.749995 0.797990
vt 0.748661 0.794334
vt 0.752308 0.792445
vt 0.739024 0.862481
vt 0.762352 0.829455
vt 0.750753 0.845684
vt 0.727925 0.878608
vt 0.755590 0.789601
vt 0.760705 0.783622
vt 0.786108 0.800419
vt 0.766063 0.780154
vt 0.768199 0.778033
vt 0.746679 0.880747
vt 0.748954 0.878252
vt 0.758519 0.867990
vt 0.752259 0.872138
vt 0.769887 0.854346
vt 0.797698 0.828828
vt 0.814107 0.811028
vt 0.802050 0.783633
vt 0.806164 0.824092
vt 0.802347 0.826979
vt 0.738084 0.898931
vt 0.737386 0.901232
vt 0.719810 0.893598
vt 0.697313 0.877197
vt 0.082321 0.834300
vt 0.082034 0.843969
vt 0.072768 0.844973
vt 0.061390 0.834544
vt 0.069071 0.834454
vt 0.060897 0.837234
vt 0.055356 0.833269
vt 0.061566 0.833094
vt 0.061009 0.833592
vt 0.060647 0.834387
vt 0.072044 0.831772
vt 0.690436 0.890992
vt 0.710674 0.907849
vt 0.725571 0.919021
vt 0.730000 0.916150
vt 0.101763 0.830383
vt 0.094061 0.841825
vt 0.082679 0.810806
vt 0.699427 0.920709
vt 0.679560 0.900573
vt 0.648949 0.887331
vt 0.650314 0.883431
vt 0.660609 0.892541
vt 0.646903 0.878794
vt 0.648081 0.881996
vt 0.666889 0.905804
vt 0.657111 0.917791
vt 0.656550 0.912783
vt 0.726336 0.921699
vt 0.727389 0.929473
vt 0.726727 0.938431
vt 0.726275 0.938185
vt 0.726624 0.937653
vt 0.682158 0.936345
vt 0.716876 0.958144
vt 0.728961 0.950234
vt 0.726663 0.956646
vt 0.686604 0.975618
vt 0.656551 0.954567
vt 0.658471 0.945753
vt 0.059141 0.837751
vt 0.060379 0.838874
vt 0.059128 0.846883
vt 0.058497 0.846805
vt 0.108753 0.838712
vt 0.111582 0.830490
vt 0.111163 0.811823
vt 0.100808 0.811539
vt 0.676569 0.853687
vt 0.669218 0.847279
vt 0.673345 0.850684
vt 0.685257 0.848153
vt 0.685889 0.860611
vt 0.682656 0.866814
vt 0.675461 0.878260
vt 0.666069 0.887309
vt 0.798131 0.829161
vt 0.797851 0.829458
vt 0.789330 0.837106
vt 0.782587 0.840422
vt 0.773962 0.814411
vt 0.736716 0.805399
vt 0.736942 0.805280
vt 0.727362 0.968960
vt 0.726911 0.979954
vt 0.715415 0.984496
vt 0.825316 0.704760
vt 0.831952 0.699657
vt 0.843386 0.709889
vt 0.817494 0.715683
vt 0.818182 0.713584
vt 0.828068 0.723605
vt 0.857891 0.695344
vt 0.841522 0.690999
vt 0.843258 0.688199
vt 0.797781 0.747737
vt 0.792368 0.750321
vt 0.794071 0.746589
vt 0.861427 0.733525
vt 0.829774 0.758448
vt 0.811699 0.736701
vt 0.876868 0.721660
vt 0.789696 0.753736
vt 0.815382 0.770795
vt 0.778791 0.766894
vt 0.780800 0.764656
vt 0.880001 0.740162
vt 0.877643 0.742555
vt 0.871743 0.746165
vt 0.867948 0.752610
vt 0.857134 0.761017
vt 0.854971 0.764646
vt 0.854530 0.765174
vt 0.831008 0.793711
vt 0.818484 0.809947
vt 0.816221 0.811191
vt 0.887312 0.734942
vt 0.891316 0.712821
vt 0.873872 0.691377
vt 0.251265 0.846364
vt 0.241914 0.835692
vt 0.255009 0.835982
vt 0.262602 0.836150
vt 0.263078 0.838814
vt 0.268558 0.834944
vt 0.263336 0.836001
vt 0.262989 0.835214
vt 0.260408 0.816039
vt 0.262446 0.834717
vt 0.252103 0.833302
vt 0.887197 0.683874
vt 0.914238 0.721690
vt 0.904022 0.727648
vt 0.242088 0.845289
vt 0.230185 0.842989
vt 0.241870 0.812475
vt 0.222739 0.831551
vt 0.223965 0.812968
vt 0.917061 0.691200
vt 0.896119 0.672643
vt 0.887245 0.654352
vt 0.877754 0.644669
vt 0.881531 0.643133
vt 0.873010 0.641534
vt 0.876228 0.642538
vt 0.900636 0.659882
vt 0.906995 0.649345
vt 0.911958 0.649642
vt 0.919533 0.717753
vt 0.916840 0.717144
vt 0.935337 0.717136
vt 0.935844 0.716760
vt 0.936114 0.717193
vt 0.931551 0.673314
vt 0.955022 0.706315
vt 0.947924 0.718722
vt 0.945118 0.718832
vt 0.970441 0.675486
vt 0.980936 0.703280
vt 0.955644 0.644243
vt 0.948103 0.647161
vt 0.265407 0.848297
vt 0.263582 0.840440
vt 0.264808 0.839340
vt 0.264784 0.848369
vt 0.222860 0.841367
vt 0.215684 0.839676
vt 0.213737 0.813102
vt 0.846306 0.668942
vt 0.849440 0.671978
vt 0.846757 0.669435
vt 0.856819 0.680869
vt 0.844401 0.680877
vt 0.862835 0.677355
vt 0.873853 0.669681
vt 0.882350 0.659981
vt 0.836347 0.788860
vt 0.836093 0.789296
vt 0.841771 0.778032
vt 0.838820 0.784929
vt 0.802383 0.737250
vt 0.804389 0.734368
vt 0.983459 0.713486
vt 0.977177 0.714907
vt 0.714389 0.820524
vt 0.701794 0.836723
vt 0.732673 0.807435
vt 0.716801 0.820158
vt 0.718872 0.819361
vt 0.722697 0.815872
vt 0.695325 0.844703
vt 0.688273 0.848026
vt 0.755396 0.789827
vt 0.746574 0.795460
vt 0.761146 0.783189
vt 0.772438 0.771455
vt 0.795563 0.793433
vt 0.761535 0.782967
vt 0.741834 0.888362
vt 0.766367 0.856704
vt 0.762453 0.863087
vt 0.780184 0.842135
vt 0.770393 0.853876
vt 0.815015 0.811888
vt 0.814382 0.813130
vt 0.813259 0.815456
vt 0.735722 0.904631
vt 0.054170 0.816579
vt 0.063860 0.814181
vt 0.735421 0.905544
vt 0.728094 0.917710
vt 0.101472 0.840295
vt 0.651134 0.898178
vt 0.646321 0.880212
vt 0.646022 0.880176
vt 0.649133 0.885263
vt 0.652485 0.899308
vt 0.655620 0.926514
vt 0.655969 0.925725
vt 0.655624 0.906471
vt 0.725666 0.961748
vt 0.728905 0.947401
vt 0.729200 0.949187
vt 0.658384 0.942001
vt 0.658306 0.941658
vt 0.654005 0.962376
vt 0.054671 0.847205
vt 0.110370 0.838338
vt 0.673865 0.851113
vt 0.677889 0.850156
vt 0.669442 0.847007
vt 0.793552 0.834147
vt 0.793130 0.834425
vt 0.781212 0.841539
vt 0.739728 0.803126
vt 0.725872 0.986376
vt 0.833891 0.697851
vt 0.818425 0.711166
vt 0.810752 0.724415
vt 0.806323 0.730008
vt 0.814215 0.719662
vt 0.844429 0.683874
vt 0.841489 0.691035
vt 0.789912 0.753531
vt 0.795090 0.744452
vt 0.845332 0.746061
vt 0.783582 0.759597
vt 0.783991 0.759136
vt 0.783380 0.759997
vt 0.863278 0.756784
vt 0.843352 0.775547
vt 0.815014 0.811888
vt 0.826729 0.802409
vt 0.831364 0.794125
vt 0.829409 0.798448
vt 0.903133 0.727997
vt 0.899849 0.729832
vt 0.897602 0.730650
vt 0.269931 0.818533
vt 0.904949 0.703012
vt 0.915679 0.719714
vt 0.892335 0.644747
vt 0.879502 0.643415
vt 0.874332 0.640596
vt 0.874381 0.640890
vt 0.919719 0.648116
vt 0.920478 0.647732
vt 0.893515 0.646021
vt 0.900729 0.648753
vt 0.927286 0.718359
vt 0.946903 0.719020
vt 0.959121 0.714789
vt 0.954131 0.716076
vt 0.935505 0.649574
vt 0.935848 0.649632
vt 0.939540 0.649518
vt 0.269182 0.848719
vt 0.214092 0.839279
vt 0.213032 0.831502
vt 0.842471 0.665271
vt 0.842729 0.665035
vt 0.846005 0.673466
vt 0.831645 0.793830
vt 0.842811 0.776602
vt 0.804497 0.734136
vt 0.966347 0.716027
s 0
usemtl blinn1SG.002
f 6/1/1 28/1/1 43/1/2
f 275/1/3 273/1/3 274/1/3
f 6/1/4 43/1/5 56/1/4
f 13/1/6 276/1/7 277/1/8
f 65/1/9 280/1/9 282/1/10
f 15/1/11 283/1/11 284/1/12
f 65/1/13 285/1/13 279/1/13
f 63/1/14 285/1/15 65/1/15
f 287/1/16 288/1/16 290/1/16
f 63/1/17 291/1/17 287/1/17
f 62/1/18 292/1/18 291/1/18
f 294/1/19 293/1/19 292/1/19
f 297/1/20 295/1/21 53/1/21
f 53/1/22 301/1/22 302/1/23
f 51/1/24 304/1/25 303/1/24
f 51/1/26 306/1/26 307/1/27
f 305/1/28 15/1/28 308/1/28
f 65/1/29 15/1/30 60/1/30
f 58/1/31 75/1/31 60/1/31
f 56/1/32 76/1/32 58/1/32
f 65/1/33 60/1/33 75/1/33
f 63/1/34 65/1/34 75/1/34
f 58/1/35 76/1/35 75/1/35
f 76/1/36 79/1/36 75/1/36
f 63/1/37 75/1/38 79/1/37
f 62/1/39 63/1/40 79/1/40
f 56/1/41 43/1/42 76/1/42
f 43/1/43 42/1/43 76/1/43
f 76/1/44 42/1/45 79/1/45
f 42/1/46 40/1/46 79/1/46
f 62/1/47 79/1/48 40/1/48
f 13/1/49 62/1/50 40/1/49
f 13/1/51 310/1/52 309/1/51
f 49/1/53 312/1/54 311/1/53
f 316/1/55 47/1/55 314/1/55
f 49/1/56 320/1/57 319/1/56
f 47/1/58 322/1/59 321/1/58
f 15/1/60 51/1/60 60/1/60
f 51/1/61 53/1/61 83/1/61
f 323/1/62 85/1/62 296/1/62
f 60/1/63 51/1/64 83/1/64
f 83/1/65 58/1/65 60/1/66
f 83/1/67 53/1/67 85/1/67
f 83/1/68 85/1/68 87/1/68
f 83/1/69 87/1/69 58/1/69
f 87/1/70 56/1/70 58/1/71
f 85/1/72 324/1/72 326/1/72
f 329/1/73 327/1/74 34/1/73
f 87/1/75 85/1/75 34/1/75
f 87/1/76 34/1/76 32/1/76
f 56/1/77 87/1/77 32/1/77
f 32/1/78 6/1/79 56/1/78
f 13/1/80 40/1/80 49/1/80
f 42/1/81 89/1/81 40/1/81
f 43/1/82 90/1/82 42/1/83
f 49/1/84 40/1/84 89/1/85
f 49/1/86 89/1/86 47/1/86
f 42/1/87 90/1/87 89/1/87
f 89/1/88 90/1/88 91/1/88
f 47/1/89 89/1/89 91/1/89
f 315/1/90 47/1/91 91/1/92
f 90/1/93 43/1/93 28/1/93
f 90/1/94 28/1/95 26/1/95
f 91/1/96 90/1/96 26/1/96
f 26/1/97 332/1/98 334/1/98
f 336/1/99 91/1/99 335/1/100
f 338/1/101 337/1/101 339/1/101
f 34/1/102 327/1/102 340/1/102
f 34/1/103 340/1/103 341/1/103
f 342/1/104 343/1/104 32/1/105
f 345/1/106 32/1/106 344/1/106
f 346/1/107 32/1/108 345/1/107
f 6/1/109 346/1/110 348/1/110
f 28/1/111 348/1/111 349/1/111
f 351/1/112 352/1/113 28/1/112
f 352/1/114 353/1/114 26/1/114
f 353/1/115 332/1/115 26/1/115
f 143/2/116 142/3/116 37/4/116
f 149/5/117 41/6/118 38/7/117
f 39/8/119 155/9/119 152/10/120
f 109/11/121 157/12/121 160/13/121
f 38/7/122 44/14/123 37/4/124
f 38/7/125 48/15/125 45/16/126
f 37/4/127 46/17/127 39/8/127
f 158/18/128 161/19/129 54/20/128
f 164/21/130 163/22/130 54/20/130
f 317/23/131 44/14/131 318/24/132
f 321/25/133 322/26/133 44/14/133
f 45/16/134 48/15/135 313/27/134
f 107/28/136 54/20/136 67/29/136
f 54/20/137 120/30/138 67/29/138
f 291/31/139 292/32/139 107/28/139
f 314/33/140 315/34/141 72/35/142
f 73/36/143 46/17/143 72/35/143
f 77/37/144 171/38/145 170/39/146
f 74/40/147 167/41/147 168/42/147
f 102/43/148 173/44/148 172/45/149
f 172/45/150 74/40/151 174/46/152
f 77/37/153 167/41/153 175/47/154
f 173/44/155 167/41/155 74/40/156
f 80/48/157 72/35/158 88/49/157
f 339/50/159 88/49/159 336/51/160
f 78/52/161 176/53/161 77/37/162
f 105/54/163 78/52/164 77/37/164
f 80/48/165 94/55/165 81/56/165
f 178/57/166 100/58/166 101/59/166
f 182/60/167 100/58/168 181/61/169
f 82/62/170 190/63/171 185/64/171
f 337/65/172 335/66/173 94/55/172
f 334/67/174 95/68/174 333/69/174
f 81/56/175 96/70/175 82/62/175
f 94/55/176 97/71/177 96/70/176
f 352/72/178 351/73/179 97/71/178
f 97/71/180 99/74/180 96/70/180
f 193/75/181 192/76/182 96/70/181
f 102/43/183 174/46/183 196/77/184
f 199/78/185 169/79/186 198/80/186
f 168/42/187 199/78/188 196/77/187
f 200/81/189 78/52/190 100/82/189
f 101/83/191 78/52/191 106/84/191
f 102/85/192 197/86/193 203/87/194
f 153/88/195 103/89/195 102/85/196
f 104/90/197 39/8/197 73/36/197
f 73/36/198 105/91/198 104/90/198
f 81/56/199 105/91/200 80/48/200
f 82/62/201 106/92/201 81/56/201
f 107/28/202 293/93/203 294/94/204
f 278/95/205 309/96/206 108/97/207
f 109/11/208 48/15/208 41/6/208
f 41/6/209 205/98/209 207/99/209
f 349/100/210 348/101/210 98/102/210
f 209/103/211 210/104/211 110/105/212
f 215/106/213 216/107/213 111/108/214
f 113/109/215 217/110/216 221/111/217
f 114/112/218 225/113/218 224/114/218
f 116/115/219 111/108/220 110/105/219
f 111/108/221 117/116/221 112/117/221
f 118/118/222 110/105/222 113/109/222
f 120/30/223 222/119/224 119/120/225
f 120/30/226 230/121/226 231/122/226
f 298/123/227 299/124/228 116/115/227
f 116/115/229 302/125/229 301/126/229
f 303/127/230 304/128/231 307/129/232
f 121/130/233 120/30/234 119/120/234
f 286/131/235 290/132/235 67/29/236
f 297/133/237 118/118/237 122/134/237
f 123/135/238 118/118/238 113/109/238
f 232/136/239 125/137/240 234/138/241
f 124/139/242 235/140/242 234/138/242
f 128/141/243 237/142/243 238/143/244
f 124/139/245 238/143/246 237/142/247
f 127/144/248 239/145/248 240/146/248
f 234/138/249 239/145/249 124/139/250
f 130/147/251 122/134/252 123/135/253
f 326/148/254 324/149/255 122/134/254
f 125/137/256 233/150/256 241/151/257
f 129/152/258 132/153/258 133/154/258
f 135/155/259 130/147/260 134/156/260
f 138/157/261 137/158/262 243/159/263
f 137/158/264 247/160/265 246/161/266
f 136/162/267 252/163/267 253/164/267
f 274/165/268 273/166/269 135/155/268
f 328/167/270 140/168/270 329/169/270
f 139/170/271 134/156/272 136/162/271
f 135/155/273 141/171/274 140/168/275
f 341/172/276 327/173/277 141/171/278
f 141/171/279 99/174/279 98/175/279
f 194/176/280 99/174/281 257/177/281
f 262/178/282 261/179/282 263/180/282
f 261/179/283 236/181/283 235/140/283
f 124/139/284 263/180/284 261/179/285
f 261/179/286 235/140/286 124/139/286
f 132/153/287 242/182/287 265/183/288
f 132/153/289 138/184/290 133/154/289
f 266/185/291 128/186/292 267/187/293
f 126/188/294 113/109/295 219/189/294
f 113/109/296 127/190/296 123/135/296
f 129/191/297 123/135/297 127/190/297
f 134/156/298 129/191/299 133/192/298
f 136/162/300 133/192/301 138/157/300
f 121/130/302 283/193/303 281/194/304
f 308/195/305 284/196/306 119/120/307
f 117/116/308 114/112/308 112/117/308
f 112/117/309 270/197/310 271/198/309
f 98/175/311 347/199/311 345/200/311
f 1/1/312 181/1/312 180/1/312
f 2/1/313 19/1/313 10/1/314
f 25/1/315 14/1/316 3/1/315
f 20/1/317 16/1/317 1/1/318
f 2/1/319 27/1/319 19/1/319
f 25/1/320 3/1/321 31/1/321
f 4/1/322 157/1/323 156/1/323
f 36/1/324 225/1/324 223/1/324
f 224/1/325 225/1/325 5/1/325
f 36/1/326 227/1/327 229/1/328
f 35/1/329 231/1/330 230/1/330
f 163/1/331 230/1/331 166/1/332
f 164/1/333 35/1/334 163/1/333
f 164/1/335 165/1/336 161/1/335
f 160/1/337 33/1/337 159/1/338
f 238/1/339 237/1/340 267/1/341
f 50/1/342 210/1/342 209/1/342
f 215/1/343 50/1/343 216/1/343
f 213/1/344 50/1/344 215/1/345
f 25/1/346 220/1/346 221/1/347
f 221/1/348 24/1/349 25/1/349
f 24/1/350 217/1/350 211/1/350
f 23/1/351 24/1/352 50/1/351
f 214/1/353 23/1/353 212/1/353
f 271/1/354 5/1/354 23/1/354
f 36/1/355 30/1/355 5/1/356
f 29/1/357 30/1/357 52/1/358
f 27/1/359 29/1/359 55/1/359
f 30/1/360 36/1/360 52/1/360
f 52/1/361 36/1/361 35/1/361
f 29/1/362 52/1/362 55/1/362
f 55/1/363 52/1/363 57/1/363
f 52/1/364 35/1/364 57/1/365
f 57/1/366 35/1/366 33/1/366
f 27/1/367 55/1/367 19/1/368
f 19/1/369 55/1/370 18/1/369
f 55/1/371 57/1/371 18/1/371
f 18/1/372 57/1/372 17/1/373
f 57/1/374 33/1/374 17/1/374
f 4/1/375 17/1/376 33/1/376
f 4/1/377 207/1/377 22/1/377
f 22/1/378 61/1/379 21/1/379
f 21/1/380 155/1/380 20/1/380
f 22/1/381 207/1/381 150/1/381
f 61/1/382 146/1/382 147/1/383
f 144/1/384 21/1/384 143/1/385
f 145/1/386 61/1/386 148/1/386
f 147/1/387 148/1/387 61/1/387
f 20/1/388 154/1/388 16/1/389
f 202/1/390 172/1/391 173/1/390
f 261/1/392 235/1/392 234/1/392
f 248/1/393 86/1/393 249/1/393
f 86/1/394 84/1/394 31/1/394
f 3/1/395 246/1/395 31/1/396
f 5/1/397 30/1/397 23/1/397
f 23/1/398 64/1/398 24/1/398
f 24/1/399 66/1/400 25/1/399
f 30/1/401 64/1/402 23/1/402
f 64/1/403 30/1/403 29/1/403
f 24/1/404 64/1/404 66/1/404
f 66/1/405 64/1/405 68/1/405
f 64/1/406 29/1/407 68/1/407
f 68/1/408 29/1/409 27/1/409
f 66/1/410 14/1/411 25/1/411
f 66/1/412 12/1/412 14/1/412
f 68/1/413 12/1/413 66/1/413
f 12/1/414 68/1/415 11/1/416
f 27/1/417 11/1/417 68/1/417
f 11/1/418 27/1/419 2/1/418
f 4/1/420 22/1/420 17/1/420
f 18/1/421 17/1/421 69/1/421
f 19/1/422 18/1/423 70/1/422
f 22/1/424 69/1/425 17/1/424
f 22/1/426 21/1/426 69/1/426
f 18/1/427 69/1/427 70/1/427
f 70/1/428 69/1/428 71/1/428
f 69/1/429 21/1/429 71/1/429
f 21/1/430 20/1/430 71/1/430
f 70/1/431 10/1/431 19/1/431
f 10/1/432 70/1/432 9/1/432
f 71/1/433 9/1/433 70/1/433
f 71/1/434 8/1/435 9/1/435
f 71/1/436 20/1/436 8/1/436
f 20/1/437 1/1/437 8/1/438
f 92/1/439 167/1/440 199/1/440
f 16/1/441 92/1/442 93/1/441
f 183/1/443 184/1/443 93/1/443
f 3/1/444 244/1/444 243/1/444
f 255/1/445 14/1/445 254/1/446
f 254/1/447 253/1/448 252/1/449
f 253/1/450 12/1/450 251/1/450
f 250/1/451 251/1/451 12/1/451
f 12/1/452 259/1/452 260/1/452
f 257/1/453 7/1/454 256/1/453
f 259/1/455 7/1/455 257/1/455
f 2/1/456 7/1/456 11/1/456
f 10/1/457 7/1/457 2/1/458
f 7/1/459 194/1/460 256/1/461
f 192/1/462 7/1/462 10/1/463
f 192/1/464 9/1/465 195/1/465
f 189/1/466 188/1/467 191/1/466
f 9/1/468 190/1/468 189/1/468
f 186/1/469 190/1/469 8/1/469
f 8/1/470 187/1/470 186/1/471
f 179/1/472 187/1/473 1/1/472
f 262/1/474 268/1/474 84/1/474
f 92/1/474 204/1/474 198/1/474
f 13/1/475 278/1/476 276/1/476
f 281/1/477 15/1/477 65/1/477
f 65/1/478 279/1/479 280/1/478
f 282/1/480 281/1/480 65/1/481
f 15/1/482 281/1/483 283/1/484
f 63/1/485 286/1/486 285/1/486
f 289/1/487 290/1/487 288/1/487
f 290/1/16 286/1/16 287/1/16
f 286/1/488 63/1/488 287/1/488
f 63/1/489 62/1/489 291/1/489
f 292/1/490 62/1/490 294/1/490
f 62/1/491 13/1/491 277/1/491
f 294/1/492 62/1/492 277/1/492
f 296/1/493 53/1/494 295/1/494
f 53/1/495 299/1/496 298/1/495
f 297/1/497 53/1/497 298/1/497
f 302/1/498 299/1/499 53/1/498
f 53/1/500 300/1/501 301/1/500
f 303/1/502 300/1/502 51/1/502
f 300/1/503 53/1/503 51/1/504
f 307/1/505 304/1/506 51/1/506
f 51/1/507 305/1/507 306/1/507
f 51/1/508 15/1/508 305/1/508
f 15/1/509 284/1/510 308/1/511
f 309/1/512 278/1/512 13/1/512
f 13/1/513 49/1/513 310/1/513
f 311/1/514 313/1/515 49/1/514
f 49/1/516 47/1/516 312/1/516
f 316/1/517 317/1/517 47/1/517
f 317/1/518 318/1/519 47/1/518
f 47/1/520 315/1/520 314/1/521
f 319/1/522 310/1/522 49/1/522
f 49/1/523 313/1/524 320/1/525
f 321/1/526 312/1/527 47/1/527
f 47/1/528 318/1/529 322/1/529
f 324/1/530 85/1/531 323/1/531
f 85/1/532 53/1/533 296/1/532
f 275/1/534 274/1/534 326/1/534
f 274/1/535 325/1/535 326/1/535
f 325/1/536 85/1/536 326/1/536
f 34/1/537 85/1/537 329/1/537
f 85/1/538 325/1/539 329/1/538
f 325/1/540 328/1/540 329/1/541
f 331/1/542 330/1/543 91/1/542
f 330/1/544 315/1/544 91/1/545
f 334/1/546 333/1/546 335/1/546
f 335/1/547 91/1/547 334/1/547
f 91/1/548 26/1/548 334/1/548
f 335/1/549 337/1/550 336/1/550
f 337/1/551 338/1/551 336/1/551
f 336/1/552 331/1/553 91/1/552
f 344/1/554 32/1/555 343/1/554
f 32/1/556 34/1/556 342/1/556
f 34/1/557 341/1/557 342/1/557
f 346/1/558 6/1/559 32/1/559
f 348/1/560 28/1/560 6/1/561
f 346/1/460 347/1/460 348/1/460
f 352/1/562 26/1/562 28/1/563
f 28/1/564 349/1/564 350/1/564
f 350/1/565 351/1/565 28/1/566
f 142/3/567 145/201/567 38/7/567
f 38/7/568 37/4/568 142/3/568
f 37/4/569 144/202/569 143/2/569
f 149/5/570 150/203/570 41/6/571
f 38/7/572 145/201/573 148/204/572
f 147/205/574 146/206/574 38/7/575
f 146/206/576 149/5/577 38/7/576
f 38/7/578 148/204/579 147/205/580
f 152/10/581 151/207/582 144/202/582
f 144/202/583 37/4/583 152/10/584
f 37/4/585 39/8/585 152/10/586
f 39/8/587 153/88/588 154/208/587
f 39/8/589 154/208/589 155/9/589
f 159/209/590 158/18/591 109/11/592
f 109/11/593 156/210/594 157/12/593
f 160/13/595 159/209/595 109/11/595
f 38/7/596 45/16/597 44/14/597
f 38/7/598 41/6/599 48/15/598
f 37/4/600 44/14/600 46/17/600
f 161/19/601 162/211/602 54/20/601
f 54/20/603 108/97/604 158/18/605
f 108/97/606 109/11/607 158/18/608
f 163/22/609 166/212/609 59/213/609
f 59/213/610 54/20/610 163/22/610
f 54/20/611 162/211/611 165/214/612
f 54/20/613 165/214/614 164/21/613
f 317/23/615 316/215/616 46/17/615
f 46/17/617 44/14/617 317/23/617
f 44/14/618 322/26/619 318/24/618
f 44/14/620 45/16/620 321/25/620
f 45/16/621 311/216/621 312/217/621
f 321/25/622 45/16/622 312/217/622
f 319/218/623 320/219/623 48/15/623
f 320/219/624 313/27/625 48/15/624
f 313/27/626 311/216/626 45/16/626
f 107/28/627 108/97/627 54/20/627
f 54/20/628 59/213/629 120/30/630
f 292/32/631 293/93/632 107/28/632
f 107/28/633 67/29/633 291/31/633
f 67/29/634 289/220/635 288/221/636
f 288/221/637 287/222/637 67/29/637
f 287/222/638 291/31/638 67/29/638
f 330/223/639 72/35/639 315/34/640
f 72/35/641 46/17/642 316/215/642
f 314/33/643 72/35/643 316/215/644
f 73/36/645 39/8/645 46/17/645
f 170/39/646 169/79/646 168/42/647
f 168/42/648 167/41/648 170/39/649
f 167/41/650 77/37/650 170/39/651
f 172/45/652 174/46/652 102/43/652
f 102/43/653 103/224/654 173/44/654
f 103/224/655 104/225/655 173/44/655
f 172/45/656 173/44/657 74/40/658
f 175/47/659 173/44/660 104/225/659
f 104/225/661 105/54/661 175/47/661
f 105/54/662 77/37/663 175/47/663
f 173/44/664 175/47/664 167/41/664
f 80/48/665 73/36/666 72/35/667
f 88/49/668 72/35/669 331/226/668
f 72/35/670 330/223/671 331/226/670
f 331/226/672 336/51/673 88/49/674
f 336/51/675 338/227/676 339/50/677
f 177/228/678 176/53/679 78/52/679
f 176/53/680 171/38/681 77/37/681
f 105/54/682 106/84/683 78/52/683
f 80/48/684 88/49/684 94/55/684
f 82/62/685 179/229/685 101/59/685
f 179/229/686 178/57/686 101/59/686
f 184/230/687 183/231/688 182/60/689
f 100/58/690 178/57/691 180/232/692
f 181/61/693 184/230/694 182/60/695
f 100/58/696 180/232/697 181/61/698
f 187/233/699 179/229/700 82/62/699
f 82/62/701 96/70/702 190/63/702
f 96/70/703 188/234/703 189/235/704
f 96/70/705 189/235/705 190/63/705
f 186/236/706 187/233/706 82/62/706
f 185/64/707 186/236/707 82/62/708
f 333/69/709 95/68/710 335/66/711
f 95/68/712 94/55/713 335/66/714
f 94/55/715 88/49/715 339/50/716
f 339/50/717 337/65/718 94/55/718
f 81/56/719 94/55/720 96/70/721
f 94/55/722 95/68/723 97/71/722
f 351/73/724 350/237/725 97/71/726
f 97/71/727 95/68/727 334/67/727
f 334/67/728 332/238/728 97/71/728
f 332/238/729 353/239/729 352/72/729
f 97/71/730 332/238/730 352/72/730
f 97/71/731 98/102/731 99/74/731
f 195/240/732 191/241/733 96/70/734
f 191/241/735 188/234/735 96/70/735
f 96/70/736 99/74/737 193/75/736
f 195/240/738 96/70/739 192/76/738
f 99/74/740 194/242/741 193/75/742
f 199/78/743 198/80/743 196/77/744
f 198/80/745 197/243/746 196/77/745
f 197/243/747 102/43/748 196/77/747
f 199/78/749 168/42/749 169/79/749
f 196/77/750 174/46/750 74/40/751
f 74/40/752 168/42/753 196/77/753
f 100/82/754 182/244/755 200/81/756
f 200/81/757 177/228/758 78/52/758
f 101/83/759 100/82/760 78/52/759
f 201/245/761 202/246/762 102/85/763
f 197/86/764 204/247/765 203/87/766
f 203/87/767 201/245/768 102/85/769
f 102/85/770 202/246/770 153/88/771
f 153/88/772 39/8/773 103/89/772
f 104/90/774 103/89/775 39/8/774
f 73/36/776 80/48/776 105/91/776
f 81/56/777 106/92/778 105/91/778
f 82/62/779 101/59/780 106/92/780
f 294/94/781 277/248/781 276/249/782
f 276/249/783 107/28/784 294/94/783
f 48/15/785 108/97/785 309/96/786
f 108/97/787 107/28/788 276/249/787
f 48/15/789 309/96/790 319/218/791
f 276/249/792 278/95/793 108/97/793
f 309/96/794 310/250/795 319/218/795
f 109/11/796 108/97/796 48/15/796
f 206/251/797 156/210/797 109/11/798
f 41/6/799 150/203/799 205/98/799
f 207/99/800 206/251/800 41/6/800
f 206/251/801 109/11/802 41/6/801
f 348/101/803 347/252/803 98/102/803
f 98/102/804 97/71/804 349/100/804
f 97/71/805 350/237/805 349/100/805
f 210/104/806 211/253/807 110/105/807
f 110/105/808 111/108/808 209/103/809
f 111/108/810 208/254/811 209/103/811
f 216/107/812 208/254/812 111/108/812
f 111/108/813 112/117/814 212/255/815
f 112/117/816 214/256/816 212/255/816
f 212/255/817 213/257/817 111/108/817
f 213/257/818 215/106/819 111/108/818
f 220/258/820 219/189/821 113/109/821
f 113/109/822 110/105/823 217/110/824
f 110/105/825 211/253/826 217/110/827
f 211/253/828 218/259/828 217/110/829
f 221/111/830 220/258/830 113/109/831
f 114/112/832 222/119/833 223/260/834
f 114/112/835 223/260/835 225/113/835
f 224/114/836 226/261/837 114/112/836
f 116/115/838 115/262/838 111/108/839
f 111/108/840 115/262/840 117/116/840
f 118/118/841 116/115/841 110/105/841
f 120/30/842 228/263/843 227/264/842
f 227/264/844 222/119/845 120/30/846
f 222/119/847 114/112/847 119/120/848
f 229/265/849 228/263/850 120/30/850
f 120/30/851 59/213/851 230/121/851
f 59/213/852 166/212/852 230/121/852
f 231/122/853 229/265/854 120/30/853
f 299/124/855 302/125/855 116/115/856
f 116/115/857 118/118/857 298/123/857
f 118/118/858 297/133/859 298/123/858
f 301/126/860 300/266/860 115/262/860
f 300/266/861 303/127/861 115/262/861
f 115/262/862 116/115/862 301/126/862
f 307/129/863 306/267/864 117/116/863
f 117/116/865 115/262/865 307/129/865
f 115/262/866 303/127/866 307/129/866
f 121/130/867 67/29/868 120/30/868
f 290/132/869 289/268/870 67/29/871
f 67/29/872 121/130/872 285/269/872
f 121/130/873 280/270/874 279/271/875
f 285/269/876 121/130/876 279/271/876
f 285/269/877 286/131/877 67/29/877
f 323/272/878 296/273/878 122/134/878
f 296/273/879 295/274/879 122/134/879
f 295/274/880 297/133/880 122/134/880
f 123/135/881 122/134/882 118/118/881
f 234/138/883 235/140/884 232/136/885
f 235/140/886 236/181/887 232/136/888
f 232/136/889 233/150/890 125/137/889
f 238/143/891 239/145/892 128/141/893
f 239/145/894 127/144/895 126/275/895
f 126/275/896 128/141/897 239/145/896
f 124/139/898 239/145/899 238/143/900
f 240/146/901 234/138/902 125/137/902
f 125/137/903 129/152/904 240/146/903
f 129/152/905 127/144/905 240/146/905
f 234/138/906 240/146/906 239/145/906
f 130/147/907 131/276/908 122/134/909
f 324/149/910 323/272/911 122/134/912
f 122/134/913 131/276/913 326/148/913
f 131/276/914 273/166/915 326/148/914
f 273/166/916 275/277/917 326/148/918
f 241/151/919 242/182/920 132/153/919
f 132/153/921 125/137/922 241/151/921
f 129/152/923 125/137/924 132/153/923
f 135/155/925 131/276/926 130/147/926
f 243/159/927 244/278/928 138/157/929
f 244/278/930 136/162/931 138/157/931
f 245/279/932 243/159/933 137/158/934
f 247/160/935 248/280/936 249/281/937
f 246/161/938 245/279/939 137/158/940
f 247/160/941 249/281/942 246/161/943
f 251/282/944 250/283/945 139/170/945
f 136/162/946 244/278/946 255/284/947
f 136/162/948 255/284/948 254/285/949
f 251/282/950 139/170/950 253/164/950
f 139/170/951 136/162/952 253/164/951
f 136/162/953 254/285/953 252/163/953
f 273/166/954 131/276/954 135/155/955
f 135/155/956 140/168/957 328/167/958
f 328/167/959 325/286/959 135/155/960
f 325/286/961 274/165/962 135/155/962
f 139/170/963 135/155/964 134/156/965
f 135/155/966 139/170/967 141/171/968
f 341/172/969 340/287/970 327/173/970
f 327/173/971 329/169/972 140/168/973
f 140/168/974 141/171/975 327/173/975
f 141/171/976 343/288/976 342/289/977
f 342/289/978 341/172/979 141/171/979
f 141/171/980 139/170/980 99/174/980
f 99/174/981 139/170/982 257/177/981
f 139/170/983 250/283/984 258/290/983
f 260/291/985 139/170/986 258/290/986
f 139/170/987 260/291/988 259/292/989
f 139/170/990 259/292/991 257/177/991
f 257/177/992 256/176/460 194/176/460
f 237/142/993 128/141/993 263/180/993
f 128/141/994 264/293/995 263/180/995
f 264/293/996 262/178/996 263/180/996
f 261/179/997 262/178/997 236/181/997
f 124/139/998 237/142/999 263/180/998
f 265/183/1000 247/294/1001 137/295/1002
f 137/295/1003 132/153/1004 265/183/1003
f 132/153/1005 137/295/1005 138/184/1005
f 266/185/1006 268/296/1007 264/297/1008
f 128/186/1009 269/298/1010 267/187/1011
f 266/185/1012 264/297/1013 128/186/1014
f 219/189/1015 269/298/1016 128/186/1016
f 128/186/1017 126/188/1018 219/189/1018
f 113/109/1019 126/188/1020 127/190/1019
f 129/191/1021 130/147/1021 123/135/1021
f 134/156/1022 130/147/1022 129/191/1023
f 136/162/1024 134/156/1024 133/192/1025
f 281/194/1026 282/299/1027 121/130/1026
f 282/299/1028 280/270/1029 121/130/1030
f 284/196/1031 283/193/1032 119/120/1033
f 283/193/1034 121/130/1035 119/120/1036
f 119/120/1037 117/116/1038 308/195/1038
f 117/116/1039 306/267/1040 308/195/1040
f 306/267/1041 305/300/1042 308/195/1043
f 117/116/1044 119/120/1044 114/112/1044
f 271/198/1045 272/301/1046 112/117/1045
f 272/301/1047 214/256/1048 112/117/1048
f 112/117/1049 114/112/1050 270/197/1050
f 114/112/1051 226/261/1051 270/197/1051
f 344/302/1052 343/288/1052 141/171/1052
f 345/200/1053 344/302/1053 98/175/1053
f 344/302/1054 141/171/1054 98/175/1054
f 347/199/460 346/199/1055 345/200/460
f 1/1/1056 16/1/1057 181/1/1056
f 156/1/1058 206/1/1058 4/1/1059
f 4/1/1060 160/1/1061 157/1/1061
f 36/1/1062 5/1/1062 225/1/1062
f 270/1/1063 226/1/1063 5/1/1064
f 226/1/1065 224/1/1066 5/1/1066
f 229/1/1067 231/1/1067 36/1/1068
f 36/1/1069 223/1/1070 222/1/1070
f 222/1/1071 227/1/1071 36/1/1072
f 227/1/1073 228/1/1073 229/1/1073
f 35/1/1074 36/1/1075 231/1/1075
f 163/1/1076 35/1/1076 230/1/1076
f 164/1/1077 33/1/1077 35/1/1078
f 165/1/1079 162/1/1080 161/1/1080
f 161/1/1081 158/1/1081 159/1/1082
f 159/1/1083 33/1/1083 161/1/1084
f 33/1/1085 164/1/1086 161/1/1086
f 160/1/1087 4/1/1087 33/1/1087
f 269/1/1088 219/1/1088 238/1/1088
f 219/1/1089 220/1/1089 238/1/1089
f 220/1/1090 31/1/1090 239/1/1090
f 31/1/1091 240/1/1092 239/1/1093
f 267/1/1094 269/1/1095 238/1/1095
f 263/1/1096 266/1/1096 267/1/1096
f 237/1/1097 263/1/1097 267/1/1097
f 220/1/1098 239/1/1098 238/1/1098
f 209/1/1099 208/1/1099 50/1/1099
f 208/1/1100 216/1/1100 50/1/1100
f 213/1/1101 212/1/1101 50/1/1101
f 25/1/1102 31/1/1102 220/1/1103
f 221/1/1104 217/1/1104 24/1/1104
f 211/1/1105 210/1/1105 24/1/1105
f 210/1/1106 50/1/1106 24/1/1106
f 214/1/1107 272/1/1107 271/1/1108
f 271/1/1109 23/1/1109 214/1/1110
f 23/1/1111 50/1/1111 212/1/1112
f 271/1/1113 270/1/1114 5/1/1113
f 4/1/1115 206/1/1115 207/1/1115
f 21/1/1116 152/1/1116 155/1/1116
f 207/1/1117 205/1/1118 150/1/1118
f 150/1/1119 149/1/1119 22/1/1119
f 149/1/1120 61/1/1121 22/1/1120
f 61/1/1122 149/1/1122 146/1/1123
f 152/1/1124 21/1/1125 144/1/1125
f 21/1/1126 61/1/1127 143/1/1127
f 145/1/1128 142/1/1128 61/1/1128
f 142/1/1129 143/1/1129 61/1/1129
f 20/1/1130 155/1/1130 154/1/1131
f 201/1/1132 203/1/1133 196/1/1133
f 201/1/1134 196/1/1134 174/1/1135
f 154/1/1136 153/1/1137 173/1/1136
f 153/1/1138 202/1/1139 173/1/1139
f 202/1/1140 201/1/1140 174/1/1140
f 202/1/1141 174/1/1142 172/1/1141
f 175/1/1143 16/1/1144 173/1/1145
f 16/1/1137 154/1/1137 173/1/1137
f 234/1/1146 240/1/1146 31/1/1146
f 31/1/1147 84/1/1147 234/1/1147
f 84/1/1148 268/1/1148 261/1/1149
f 234/1/1150 84/1/1150 261/1/1150
f 268/1/1151 266/1/1151 261/1/1151
f 266/1/1152 263/1/1152 261/1/1152
f 31/1/1153 246/1/1154 86/1/1154
f 246/1/1155 249/1/1155 86/1/1155
f 3/1/1156 245/1/1156 246/1/1157
f 203/1/1158 204/1/1159 199/1/1158
f 204/1/1160 92/1/1160 199/1/1160
f 92/1/1161 16/1/1162 175/1/1161
f 167/1/1163 168/1/1163 199/1/1164
f 92/1/1165 175/1/1166 167/1/1166
f 199/1/1167 196/1/1168 203/1/1167
f 184/1/1169 181/1/1169 93/1/1169
f 181/1/1170 16/1/1170 93/1/1170
f 243/1/1171 245/1/1171 3/1/1171
f 3/1/1172 255/1/1173 244/1/1173
f 255/1/1174 3/1/1174 14/1/1174
f 254/1/1175 14/1/1176 253/1/1177
f 253/1/1178 14/1/1178 12/1/1178
f 260/1/1179 258/1/1180 12/1/1179
f 258/1/1181 250/1/1181 12/1/1182
f 12/1/1183 11/1/1183 259/1/1183
f 259/1/1184 11/1/1184 7/1/1184
f 7/1/1185 193/1/1186 194/1/1187
f 192/1/1188 193/1/1189 7/1/1188
f 192/1/1190 10/1/1190 9/1/1191
f 191/1/1192 195/1/1192 9/1/1192
f 9/1/1193 189/1/1193 191/1/1193
f 9/1/1194 8/1/1194 190/1/1194
f 186/1/1195 185/1/1196 190/1/1197
f 8/1/1198 1/1/1199 187/1/1198
f 1/1/1200 180/1/1200 178/1/1200
f 178/1/1201 179/1/1201 1/1/1201
f 247/1/474 265/1/474 242/1/474
f 242/1/474 241/1/474 84/1/474
f 241/1/474 233/1/474 84/1/474
f 232/1/474 236/1/474 262/1/474
f 233/1/474 232/1/474 84/1/474
f 248/1/474 247/1/474 86/1/474
f 247/1/474 242/1/474 86/1/474
f 232/1/474 262/1/474 84/1/474
f 262/1/474 264/1/474 268/1/474
f 84/1/474 86/1/474 242/1/474
f 182/1/474 183/1/474 93/1/474
f 182/1/474 93/1/474 177/1/474
f 93/1/474 92/1/474 177/1/474
f 177/1/474 200/1/474 182/1/474
f 171/1/474 176/1/474 92/1/474
f 176/1/474 177/1/474 92/1/474
f 198/1/474 169/1/474 170/1/474
f 170/1/474 171/1/474 92/1/474
f 204/1/474 197/1/474 198/1/474
f 198/1/474 170/1/474 92/1/474
