# ('FARMS composite mesh',)
mtllib rudder_composite.mtl

o StandardRudder.001
usemtl rudder_composite
v -92.01483200 -124.36760700 5.19495900
v -92.01483200 -124.36760700 5.19495900
v -92.01483200 -124.36760700 5.19495900
v -92.01483200 -124.36760700 5.19495900
v -92.49780300 -124.36731000 -5.16479600
v -92.49780300 -124.36731000 -5.16479600
v -92.49780300 -124.36731000 -5.16479600
v -92.49780300 -124.36731000 -5.16479600
v -46.59298700 -124.32796500 0.00000000
v -46.59298700 -124.32796500 0.00000000
v -46.59298700 -124.32796500 0.00000000
v -46.59298700 -124.32796500 0.00000000
v -51.28797100 -124.37169600 -3.46628100
v -51.28797100 -124.37169600 -3.46628100
v -51.28797100 -124.37169600 -3.46628100
v -51.28797100 -124.37169600 -3.46628100
v -51.28797100 -124.37169600 -3.46628100
v -49.62596900 -124.33364900 2.77153500
v -49.62596900 -124.33364900 2.77153500
v -49.62596900 -124.33364900 2.77153500
v -49.62596900 -124.33364900 2.77153500
v -49.62596900 -124.33364900 2.77153500
v -60.01908100 -124.36721000 -5.02952200
v -60.01908100 -124.36721000 -5.02952200
v -60.01908100 -124.36721000 -5.02952200
v -60.01908100 -124.36721000 -5.02952200
v -104.66787700 -124.36764500 4.29455100
v -104.66787700 -124.36764500 4.29455100
v -104.66787700 -124.36764500 4.29455100
v -104.66787700 -124.36764500 4.29455100
v -70.24883300 -124.36759200 5.67652000
v -70.24883300 -124.36759200 5.67652000
v -70.24883300 -124.36759200 5.67652000
v -70.24883300 -124.36759200 5.67652000
v -70.24883300 -124.36759200 5.67652000
v -79.61673000 -124.36766100 -5.69479700
v -79.61673000 -124.36766100 -5.69479700
v -79.61673000 -124.36766100 -5.69479700
v -79.61673000 -124.36766100 -5.69479700
v -79.61673000 -124.36766100 -5.69479700
v -142.73046900 -124.36731700 -0.00682000
v -142.73046900 -124.36731700 -0.00682000
v -142.73046900 -124.36731700 -0.00682000
v -124.62284900 -124.36769100 -2.30818300
v -124.62284900 -124.36769100 -2.30818300
v -124.62284900 -124.36769100 -2.30818300
v -124.62284900 -124.36769100 -2.30818300
v -98.45533000 141.63211100 4.67863300
v -98.45533000 141.63211100 4.67863300
v -98.45533000 141.63211100 4.67863300
v -98.45533000 141.63211100 4.67863300
v -16.88244600 141.57952900 -3.15984100
v -16.88244600 141.57952900 -3.15984100
v -16.88244600 141.57952900 -3.15984100
v -16.88244600 141.57952900 -3.15984100
v -16.84566500 141.57998700 3.14941000
v -16.84566500 141.57998700 3.14941000
v -16.84566500 141.57998700 3.14941000
v -16.84566500 141.57998700 3.14941000
v -21.29047400 141.62826500 4.72312300
v -21.29047400 141.62826500 4.72312300
v -21.29047400 141.62826500 4.72312300
v -21.29047400 141.62826500 4.72312300
v -21.29047400 141.62826500 4.72312300
v -27.69673900 141.63110400 6.03005000
v -27.69673900 141.63110400 6.03005000
v -27.69673900 141.63110400 6.03005000
v -27.69673900 141.63110400 6.03005000
v -36.21932200 141.63177500 6.93597400
v -36.21932200 141.63177500 6.93597400
v -36.21932200 141.63177500 6.93597400
v -85.05280300 141.63205000 -5.87035800
v -85.05280300 141.63205000 -5.87035800
v -85.05280300 141.63205000 -5.87035800
v -85.05280300 141.63205000 -5.87035800
v -80.23506200 141.63220200 6.21740300
v -80.23506200 141.63220200 6.21740300
v -80.23506200 141.63220200 6.21740300
v -80.23506200 141.63220200 6.21740300
v -80.23506200 141.63220200 6.21740300
v -13.97467000 141.59033200 -0.00027600
v -13.97467000 141.59033200 -0.00027600
v -13.97467000 141.59033200 -0.00027600
v -13.97467000 141.59033200 -0.00027600
v -13.97467000 141.59033200 -0.00027600
v -13.97467000 141.59033200 -0.00027600
v -43.85367600 -100.95544400 0.00002700
v -43.85367600 -100.95544400 0.00002700
v -43.85367600 -100.95544400 0.00002700
v -43.85367600 -100.95544400 0.00002700
v -43.85367600 -100.95544400 0.00002700
v -43.85367600 -100.95544400 0.00002700
v -47.38887800 -100.60158500 -3.08612800
v -47.38887800 -100.60158500 -3.08612800
v -47.38887800 -100.60158500 -3.08612800
v -47.38887800 -100.60158500 -3.08612800
v -47.38887800 -100.60158500 -3.08612800
v -126.51684600 1.18818700 -1.85580300
v -126.51684600 1.18818700 -1.85580300
v -126.51684600 1.18818700 -1.85580300
v -49.07081600 -119.78758200 -2.77631600
v -49.07081600 -119.78758200 -2.77631600
v -49.07081600 -119.78758200 -2.77631600
v -49.07081600 -119.78758200 -2.77631600
v -49.07081600 -119.78758200 -2.77631600
v -43.31516300 -68.96078500 -3.04478400
v -43.31516300 -68.96078500 -3.04478400
v -43.31516300 -68.96078500 -3.04478400
v -43.31516300 -68.96078500 -3.04478400
v -51.36409800 -96.86733200 -4.28121200
v -51.36409800 -96.86733200 -4.28121200
v -51.36409800 -96.86733200 -4.28121200
v -51.36409800 -96.86733200 -4.28121200
v -51.36409800 -96.86733200 -4.28121200
v -51.36409800 -96.86733200 -4.28121200
v -51.36409800 -96.86733200 -4.28121200
v -51.36409800 -96.86733200 -4.28121200
v -40.04030600 -70.00274700 0.00000400
v -40.04030600 -70.00274700 0.00000400
v -40.04030600 -70.00274700 0.00000400
v -40.04030600 -70.00274700 0.00000400
v -40.04030600 -70.00274700 0.00000400
v -40.04030600 -70.00274700 0.00000400
v -40.04030600 -70.00274700 0.00000400
v -40.04030600 -70.00274700 0.00000400
v -38.53100600 -32.24207300 -2.99054800
v -38.53100600 -32.24207300 -2.99054800
v -38.53100600 -32.24207300 -2.99054800
v -38.53100600 -32.24207300 -2.99054800
v -38.53100600 -32.24207300 -2.99054800
v -38.53100600 -32.24207300 -2.99054800
v -138.28083800 141.63211100 -0.01280500
v -138.28083800 141.63211100 -0.01280500
v -138.28083800 141.63211100 -0.01280500
v -138.28083800 141.63211100 -0.01280500
v -37.23194100 11.96376000 -4.39964800
v -37.23194100 11.96376000 -4.39964800
v -37.23194100 11.96376000 -4.39964800
v -37.23194100 11.96376000 -4.39964800
v -37.23194100 11.96376000 -4.39964800
v -37.23194100 11.96376000 -4.39964800
v -101.03456100 141.63211100 -4.43098500
v -101.03456100 141.63211100 -4.43098500
v -101.03456100 141.63211100 -4.43098500
v -101.03456100 141.63211100 -4.43098500
v -101.03456100 141.63211100 -4.43098500
v -35.17620100 -30.52885400 0.00052500
v -35.17620100 -30.52885400 0.00052500
v -67.74298900 -124.36541000 -5.59243900
v -67.74298900 -124.36541000 -5.59243900
v -67.74298900 -124.36541000 -5.59243900
v -67.74298900 -124.36541000 -5.59243900
v -67.74298900 -124.36541000 -5.59243900
v -26.28180700 41.87466400 -0.00028000
v -26.28180700 41.87466400 -0.00028000
v -26.28180700 41.87466400 -0.00028000
v -26.28180700 41.87466400 -0.00028000
v -29.39688900 41.30508400 -3.06450600
v -29.39688900 41.30508400 -3.06450600
v -29.39688900 41.30508400 -3.06450600
v -65.04995700 141.63211100 -7.09069000
v -65.04995700 141.63211100 -7.09069000
v -65.04995700 141.63211100 -7.09069000
v -65.04995700 141.63211100 -7.09069000
v -21.27807600 141.63192700 -4.71994700
v -21.27807600 141.63192700 -4.71994700
v -21.27807600 141.63192700 -4.71994700
v -21.27807600 141.63192700 -4.71994700
v -21.27807600 141.63192700 -4.71994700
v -21.27807600 141.63192700 -4.71994700
v -21.27807600 141.63192700 -4.71994700
v -26.31111900 141.62976100 -5.79102400
v -26.31111900 141.62976100 -5.79102400
v -26.31111900 141.62976100 -5.79102400
v -26.31111900 141.62976100 -5.79102400
v -35.85792500 141.63122600 -6.90650800
v -35.85792500 141.63122600 -6.90650800
v -35.85792500 141.63122600 -6.90650800
v -35.85792500 141.63122600 -6.90650800
v -35.85792500 141.63122600 -6.90650800
v -104.35744500 -124.36768300 -4.32152700
v -104.35744500 -124.36768300 -4.32152700
v -104.35744500 -124.36768300 -4.32152700
v -104.35744500 -124.36768300 -4.32152700
v -44.62380200 3.00340300 -5.52532400
v -44.62380200 3.00340300 -5.52532400
v -44.62380200 3.00340300 -5.52532400
v -44.62380200 3.00340300 -5.52532400
v -44.62380200 3.00340300 -5.52532400
v -44.62380200 3.00340300 -5.52532400
v -54.77543600 141.63208000 -7.38091300
v -54.77543600 141.63208000 -7.38091300
v -54.77543600 141.63208000 -7.38091300
v -46.46958200 141.63208000 -7.37700800
v -46.46958200 141.63208000 -7.37700800
v -46.46958200 141.63208000 -7.37700800
v -46.46958200 141.63208000 -7.37700800
v -47.38790100 -100.59510800 3.08613100
v -47.38790100 -100.59510800 3.08613100
v -47.38790100 -100.59510800 3.08613100
v -47.38790100 -100.59510800 3.08613100
v -47.38790100 -100.59510800 3.08613100
v -47.38790100 -100.59510800 3.08613100
v -133.01568600 -3.27876300 1.03107100
v -133.01568600 -3.27876300 1.03107100
v -47.20191200 -65.10279800 4.31288300
v -47.20191200 -65.10279800 4.31288300
v -47.20191200 -65.10279800 4.31288300
v -47.20191200 -65.10279800 4.31288300
v -47.20191200 -65.10279800 4.31288300
v -47.20191200 -65.10279800 4.31288300
v -54.88302600 -124.36622600 4.29138400
v -54.88302600 -124.36622600 4.29138400
v -54.88302600 -124.36622600 4.29138400
v -54.88302600 -124.36622600 4.29138400
v -54.88302600 -124.36622600 4.29138400
v -52.26202400 -103.75238000 4.27770100
v -52.26202400 -103.75238000 4.27770100
v -52.26202400 -103.75238000 4.27770100
v -52.26202400 -103.75238000 4.27770100
v -43.31436900 -68.95546000 3.04470000
v -43.31436900 -68.95546000 3.04470000
v -43.31436900 -68.95546000 3.04470000
v -38.55664100 -32.48403200 2.98872600
v -38.55664100 -32.48403200 2.98872600
v -38.55664100 -32.48403200 2.98872600
v -38.55664100 -32.48403200 2.98872600
v -38.55664100 -32.48403200 2.98872600
v -38.55664100 -32.48403200 2.98872600
v -34.55207800 32.78793300 4.41899200
v -34.55207800 32.78793300 4.41899200
v -34.55207800 32.78793300 4.41899200
v -78.65352600 -124.36773700 5.72183200
v -78.65352600 -124.36773700 5.72183200
v -78.65352600 -124.36773700 5.72183200
v -78.65352600 -124.36773700 5.72183200
v -125.95019500 -124.36760700 2.16845600
v -125.95019500 -124.36760700 2.16845600
v -125.95019500 -124.36760700 2.16845600
v -125.95019500 -124.36760700 2.16845600
v -125.95019500 -124.36760700 2.16845600
v -59.21955100 -114.36104600 5.11098200
v -59.21955100 -114.36104600 5.11098200
v -59.21955100 -114.36104600 5.11098200
v -59.21955100 -114.36104600 5.11098200
v -59.21955100 -114.36104600 5.11098200
v -29.36202200 41.44628900 3.05625600
v -29.36202200 41.44628900 3.05625600
v -29.36202200 41.44628900 3.05625600
v -29.36202200 41.44628900 3.05625600
v -53.07615700 141.63162200 7.39811900
v -53.07615700 141.63162200 7.39811900
v -53.07615700 141.63162200 7.39811900
v -53.07615700 141.63162200 7.39811900
v -40.20024900 23.09281900 5.29059300
v -40.20024900 23.09281900 5.29059300
v -40.20024900 23.09281900 5.29059300
v -50.40427400 -4.74258400 6.00414800
v -50.40427400 -4.74258400 6.00414800
v -50.40427400 -4.74258400 6.00414800
v -50.40427400 -4.74258400 6.00414800
v -45.24462900 141.63214100 7.34570600
v -45.24462900 141.63214100 7.34570600
v -45.24462900 141.63214100 7.34570600
v -117.47729500 141.63214100 2.65185500
v -117.47729500 141.63214100 2.65185500
v -117.47729500 141.63214100 2.65185500
v -117.47729500 141.63214100 2.65185500
v -62.57004500 141.63003500 7.18588600
v -62.57004500 141.63003500 7.18588600
v -62.57004500 141.63003500 7.18588600
v -62.57004500 141.63003500 7.18588600
vn 0.00000409 -1.00000000 -0.00002259
vn -0.07098185 -0.00069066 0.99747737
vn -0.03940196 -0.00311728 0.99921858
vn -0.05474282 -0.00141373 0.99849949
vn -0.06089467 -0.00094320 -0.99814375
vn -0.04111083 -0.00299194 -0.99915011
vn 0.00000596 -1.00000000 -0.00002371
vn -0.07092498 -0.00066071 -0.99748143
vn 0.58685478 -0.16451192 -0.79280344
vn 0.67587080 -0.07921270 -0.73275098
vn 0.00598927 -0.99997192 0.00450346
vn 0.67255485 -0.07882576 0.73583726
vn 0.58685478 -0.16451192 -0.79280344
vn 0.17615343 -0.02866590 -0.98394524
vn 0.34716014 -0.02681416 -0.93742245
vn -0.00059100 -0.99999973 0.00043123
vn 0.00670015 -0.99996825 0.00431403
vn 0.00682079 -0.99996757 0.00428188
vn 0.27776379 -0.03467977 0.96002322
vn 0.67255485 -0.07882576 0.73583726
vn 0.65191262 -0.07146687 0.75491882
vn 0.26004595 -0.03730417 0.96487538
vn 0.07267827 -0.01266660 -0.99727500
vn -0.00019658 -0.99999998 0.00007879
vn 0.15837914 -0.02298570 -0.98711079
vn 0.17615343 -0.02866590 -0.98394524
vn -0.07098185 -0.00069066 0.99747737
vn -0.08415416 0.00052666 0.99645261
vn 0.00000031 -1.00000000 0.00000442
vn -0.09940476 0.00088488 0.99504669
vn 0.04911324 -0.01101190 0.99873251
vn 0.00004538 -1.00000000 -0.00007756
vn 0.00541406 -0.00682148 0.99996208
vn 0.06315396 -0.01320968 0.99791637
vn 0.08970214 -0.04263293 0.99505576
vn -0.04111083 -0.00299194 -0.99915011
vn 0.00862138 -0.00739804 -0.99993547
vn -0.02823542 -0.00369936 -0.99959446
vn 0.00004295 -1.00000000 -0.00004654
vn 0.00047014 -0.00638256 -0.99997952
vn -0.12878547 0.00183235 0.99167078
vn -0.12634200 0.00170680 -0.99198528
vn -0.00001898 -1.00000000 0.00001313
vn -0.11094494 0.00190718 -0.99382472
vn -0.09886209 0.00082551 -0.99510080
vn -0.00000558 -1.00000000 0.00001711
vn -0.12607922 0.00167237 -0.99201877
vn -0.08415416 0.00052666 0.99645261
vn 0.00000109 1.00000000 -0.00000323
vn -0.10594950 0.00156775 0.99437028
vn -0.09940476 0.00088488 0.99504669
vn 0.73284710 -0.09210165 -0.67413085
vn 0.31023229 -0.03962063 -0.94983479
vn 0.33370534 -0.04338388 -0.94167860
vn 0.01949696 0.99958170 -0.02136093
vn 0.33304285 -0.04250547 0.94195316
vn 0.00224834 0.99998325 0.00533380
vn 0.01100341 0.99993938 0.00040222
vn 0.73602107 -0.09262387 0.67059212
vn 0.33304285 -0.04250547 0.94195316
vn 0.31772338 -0.04135984 0.94728096
vn 0.00052241 0.99999979 0.00038848
vn 0.01100341 0.99993938 0.00040222
vn 0.19980557 -0.02708212 0.97946123
vn 0.19974534 -0.02707851 0.97947361
vn 0.10568559 -0.01657137 0.99426151
vn 0.00021000 0.99999996 0.00020195
vn 0.12114877 -0.01896992 0.99245308
vn 0.10568559 -0.01657137 0.99426151
vn 0.04549742 -0.01055016 0.99890874
vn 0.00003179 1.00000000 0.00003053
vn -0.00000231 1.00000000 -0.00000872
vn -0.08970041 0.00071070 -0.99596854
vn -0.06089467 -0.00094320 -0.99814375
vn -0.07092498 -0.00066071 -0.99748143
vn -0.00000277 1.00000000 -0.00000345
vn -0.00036669 0.99996010 0.00892573
vn -0.07098185 -0.00069066 0.99747737
vn -0.05474282 -0.00141373 0.99849949
vn -0.08415416 0.00052666 0.99645261
vn 0.70665059 -0.08721641 -0.70216682
vn 0.01949696 0.99958170 -0.02136093
vn 0.73284710 -0.09210165 -0.67413085
vn 0.70777543 -0.08735530 0.70101568
vn 0.73602107 -0.09262387 0.67059212
vn 0.00224834 0.99998325 0.00533380
vn 0.67255485 -0.07882576 0.73583726
vn 0.65095559 -0.08019824 -0.75486758
vn 0.67587080 -0.07921270 -0.73275098
vn 0.65191262 -0.07146687 0.75491882
vn 0.65096814 -0.08019867 0.75485671
vn 0.65210904 -0.06935779 -0.75494589
vn 0.66392332 -0.08450846 -0.74301020
vn 0.65210904 -0.06935779 -0.75494589
vn 0.25989338 -0.03219990 -0.96510030
vn 0.25484039 -0.03794319 -0.96623842
vn 0.65095559 -0.08019824 -0.75486758
vn -0.11779428 0.00316444 -0.99303298
vn -0.12953357 0.00212502 -0.99157276
vn -0.11094494 0.00190718 -0.99382472
vn 0.25484039 -0.03794319 -0.96623842
vn 0.34716014 -0.02681416 -0.93742245
vn 0.67587080 -0.07921270 -0.73275098
vn 0.65210904 -0.06935779 -0.75494589
vn 0.58685478 -0.16451192 -0.79280344
vn 0.26128426 -0.03261833 -0.96471062
vn 0.25989338 -0.03219990 -0.96510030
vn 0.66392332 -0.08450846 -0.74301020
vn 0.66372123 -0.08538002 -0.74309110
vn 0.34716014 -0.02681416 -0.93742245
vn 0.29277201 -0.03905733 -0.95538425
vn 0.15837914 -0.02298570 -0.98711079
vn 0.17615343 -0.02866590 -0.98394524
vn 0.26128426 -0.03261833 -0.96471062
vn 0.17929168 -0.02435204 -0.98349452
vn 0.25484039 -0.03794319 -0.96623842
vn 0.25989338 -0.03219990 -0.96510030
vn 0.65096814 -0.08019867 0.75485671
vn 0.68682654 -0.08462353 -0.72187822
vn 0.66372123 -0.08538002 -0.74309110
vn 0.65095559 -0.08019824 -0.75486758
vn 0.66392332 -0.08450846 -0.74301020
vn 0.68696360 -0.08465948 0.72174358
vn 0.66370773 -0.08544077 0.74309617
vn 0.66392537 -0.08450592 0.74300865
vn 0.70668831 -0.08847235 -0.70197171
vn 0.29277201 -0.03905733 -0.95538425
vn 0.30937139 -0.03937751 -0.95012565
vn 0.66372123 -0.08538002 -0.74309110
vn 0.26128426 -0.03261833 -0.96471062
vn 0.68680700 -0.08453466 -0.72190722
vn -0.00000069 1.00000000 -0.00000585
vn -0.12970420 0.00214738 -0.99155041
vn -0.12728675 0.00252015 0.99186276
vn -0.11779428 0.00316444 -0.99303298
vn 0.30940306 -0.03938645 -0.95011497
vn 0.20807778 -0.02801616 -0.97771097
vn 0.33370534 -0.04338388 -0.94167860
vn 0.17929168 -0.02435204 -0.98349452
vn 0.29277201 -0.03905733 -0.95538425
vn 0.18098518 -0.02579269 -0.98314755
vn -0.11094494 0.00190718 -0.99382472
vn 0.00000234 1.00000000 -0.00000122
vn -0.08970041 0.00071070 -0.99596854
vn -0.11779428 0.00316444 -0.99303298
vn -0.09886209 0.00082551 -0.99510080
vn 0.68691489 -0.08447058 0.72181207
vn 0.68679123 -0.08446292 -0.72193062
vn 0.04429137 -0.01024428 -0.99896613
vn 0.07267827 -0.01266660 -0.99727500
vn 0.08833165 -0.01550859 -0.99597038
vn -0.00003580 -0.99999998 -0.00020159
vn 0.00862138 -0.00739804 -0.99993547
vn 0.70777967 -0.08792015 0.70094079
vn 0.70666659 -0.08774459 -0.70208490
vn 0.68677176 -0.08437435 -0.72195950
vn 0.68688966 -0.08437278 0.72184751
vn 0.31019270 -0.03960945 -0.94984819
vn 0.70667248 -0.08794073 -0.70205444
vn 0.73284710 -0.09210165 -0.67413085
vn -0.06089467 -0.00094320 -0.99814375
vn -0.02823542 -0.00369936 -0.99959446
vn -0.04111083 -0.00299194 -0.99915011
vn 0.00000148 1.00000000 -0.00000510
vn 0.00018850 0.99999997 0.00012700
vn 0.01100341 0.99993938 0.00040222
vn 0.01949696 0.99958170 -0.02136093
vn 0.00224834 0.99998325 0.00533380
vn 0.00086426 0.99998112 -0.00608344
vn 0.20807778 -0.02801616 -0.97771097
vn 0.33370534 -0.04338388 -0.94167860
vn 0.00086426 0.99998112 -0.00608344
vn 0.11603432 -0.01723168 -0.99309572
vn 0.18098518 -0.02579269 -0.98314755
vn 0.20807778 -0.02801616 -0.97771097
vn 0.08833165 -0.01550859 -0.99597038
vn 0.00013444 0.99999925 -0.00121702
vn 0.00086426 0.99998112 -0.00608344
vn 0.04429137 -0.01024428 -0.99896613
vn 0.11603432 -0.01723168 -0.99309572
vn -0.07092498 -0.00066071 -0.99748143
vn 0.00000693 -1.00000000 -0.00000271
vn -0.09886209 0.00082551 -0.99510080
vn -0.08970041 0.00071070 -0.99596854
vn 0.07267827 -0.01266660 -0.99727500
vn 0.08833165 -0.01550859 -0.99597038
vn 0.11603432 -0.01723168 -0.99309572
vn 0.15837914 -0.02298570 -0.98711079
vn 0.17929168 -0.02435204 -0.98349452
vn 0.18098518 -0.02579269 -0.98314755
vn 0.00000044 1.00000000 -0.00000815
vn 0.00047014 -0.00638256 -0.99997952
vn -0.02823542 -0.00369936 -0.99959446
vn 0.04429137 -0.01024428 -0.99896613
vn 0.00047014 -0.00638256 -0.99997952
vn 0.00001153 1.00000000 -0.00002305
vn 0.00862138 -0.00739804 -0.99993547
vn 0.65096814 -0.08019867 0.75485671
vn 0.65191262 -0.07146687 0.75491882
vn 0.27876009 -0.03463298 0.95973609
vn 0.66392537 -0.08450592 0.74300865
vn 0.25849859 -0.03472214 0.96538741
vn 0.26004595 -0.03730417 0.96487538
vn -0.13356934 0.00225814 0.99103690
vn -0.12332963 0.00212501 0.99236349
vn 0.27860812 -0.03479887 0.95977422
vn 0.16352011 -0.02391479 0.98625010
vn 0.14963666 -0.02049069 0.98852871
vn 0.19670003 -0.02648076 0.98010605
vn 0.29315253 -0.03891782 0.95527326
vn 0.25849859 -0.03472214 0.96538741
vn -0.00021275 -0.99999995 0.00022280
vn 0.08970214 -0.04263293 0.99505576
vn 0.00739061 -0.99996416 0.00413004
vn 0.14571869 -0.01787120 0.98916464
vn 0.27776379 -0.03467977 0.96002322
vn 0.14906595 -0.02010902 0.98862276
vn 0.25849859 -0.03472214 0.96538741
vn 0.27776379 -0.03467977 0.96002322
vn 0.26004595 -0.03730417 0.96487538
vn 0.27869687 -0.03470200 0.95975196
vn 0.66392537 -0.08450592 0.74300865
vn 0.66370773 -0.08544077 0.74309617
vn 0.68693834 -0.08456153 0.72177909
vn 0.29315253 -0.03891782 0.95527326
vn 0.66370773 -0.08544077 0.74309617
vn 0.27854858 -0.03486387 0.95978914
vn 0.31588335 -0.04015189 0.94794806
vn 0.70778491 -0.08866647 0.70084148
vn 0.19741098 -0.02688473 0.97995210
vn 0.31614607 -0.04032430 0.94785316
vn 0.29315253 -0.03891782 0.95527326
vn 0.00000016 -1.00000000 -0.00001119
vn -0.03940196 -0.00311728 0.99921858
vn 0.00539119 -0.00682000 0.99996221
vn -0.02234823 -0.00415131 0.99974163
vn -0.00001009 -1.00000000 0.00001404
vn -0.09940476 0.00088488 0.99504669
vn -0.12332963 0.00212501 0.99236349
vn -0.12855700 0.00181377 0.99170046
vn -0.10594950 0.00156775 0.99437028
vn 0.11722064 -0.01751715 0.99295139
vn 0.06315396 -0.01320968 0.99791637
vn 0.16352011 -0.02391479 0.98625010
vn 0.08970214 -0.04263293 0.99505576
vn 0.14626146 -0.01823398 0.98907791
vn 0.70778095 -0.08809815 0.70091714
vn 0.73602107 -0.09262387 0.67059212
vn 0.33304285 -0.04250547 0.94195316
vn 0.31746405 -0.04118955 0.94737532
vn -0.00036669 0.99996010 0.00892573
vn 0.00666820 -0.00690239 0.99995395
vn -0.00005458 0.99999847 0.00174669
vn -0.02234823 -0.00415131 0.99974163
vn 0.12087673 -0.01886929 0.99248817
vn 0.19680579 -0.02654444 0.98008310
vn 0.16352011 -0.02391479 0.98625010
vn 0.11747544 -0.01761137 0.99291961
vn 0.06315396 -0.01320968 0.99791637
vn 0.10568559 -0.01657137 0.99426151
vn 0.05250741 -0.01144527 0.99855494
vn 0.04534847 -0.01053113 0.99891572
vn 0.00002104 1.00000000 0.00001601
vn 0.00669271 -0.00690397 0.99995377
vn -0.12704848 0.00252903 0.99189328
vn -0.12332963 0.00212501 0.99236349
vn -0.10594950 0.00156775 0.99437028
vn -0.00000031 1.00000000 -0.00000496
vn -0.05474282 -0.00141373 0.99849949
vn -0.03940196 -0.00311728 0.99921858
vn -0.02234823 -0.00415131 0.99974163
vn -0.00036669 0.99996010 0.00892573
f 182//182 7//7 1//1
f 11//11 18//18 17//17
f 17//17 18//18 214//214
f 24//24 212//212 32//32
f 1//1 29//29 182//182
f 7//7 233//233 1//1
f 152//152 24//24 32//32
f 32//32 233//233 39//39
f 7//7 39//39 233//233
f 24//24 16//16 212//212
f 152//152 32//32 39//39
f 46//46 182//182 237//237
f 29//29 237//237 182//182
f 43//43 46//46 237//237
f 58//58 166//166 63//63
f 164//164 76//76 191//191
f 251//251 77//77 272//272
f 143//143 49//49 72//72
f 165//165 71//71 67//67
f 263//263 76//76 253//253
f 76//76 196//196 191//191
f 196//196 263//263 71//71
f 132//132 268//268 143//143
f 196//196 165//165 177//177
f 164//164 49//49 76//76
f 178//178 169//169 172//172
f 49//49 143//143 268//268
f 49//49 164//164 72//72
f 196//196 76//76 263//263
f 62//62 165//165 67//67
f 86//86 168//168 57//57
f 55//55 167//167 82//82
f 165//165 196//196 71//71
f 116//116 96//96 101//101
f 110//110 102//102 15//15
f 107//107 95//95 117//117
f 122//122 93//93 108//108
f 127//127 111//111 140//140
f 106//106 114//114 130//130
f 136//136 158//158 128//128
f 120//120 109//109 129//129
f 176//176 186//186 151//151
f 94//94 92//92 104//104
f 89//89 10//10 103//103
f 81//81 155//155 159//159
f 52//52 83//83 160//160
f 173//173 187//187 180//180
f 8//8 181//181 75//75
f 121//121 88//88 97//97
f 192//192 195//195 40//40
f 148//148 119//119 131//131
f 156//156 148//148 131//131
f 100//100 142//142 44//44
f 174//174 141//141 190//190
f 42//42 133//133 99//99
f 161//161 5//5 74//74
f 115//115 189//189 139//139
f 194//194 179//179 149//149
f 23//23 150//150 185//185
f 38//38 162//162 193//193
f 99//99 47//47 42//42
f 136//136 53//53 158//158
f 6//6 163//163 36//36
f 145//145 98//98 135//135
f 159//159 155//155 126//126
f 73//73 184//184 144//144
f 171//171 54//54 138//138
f 175//175 170//170 137//137
f 37//37 197//197 153//153
f 9//9 13//13 105//105
f 25//25 188//188 112//112
f 183//183 45//45 146//146
f 26//26 113//113 14//14
f 203//203 220//220 22//22
f 218//218 202//202 211//211
f 19//19 219//219 216//216
f 200//200 221//221 206//206
f 201//201 125//125 222//222
f 206//206 221//221 227//227
f 232//232 210//210 225//225
f 250//250 231//231 228//228
f 223//223 124//124 226//226
f 30//30 51//51 238//238
f 66//66 69//69 260//260
f 90//90 199//199 21//21
f 249//249 56//56 60//60
f 234//234 270//270 3//3
f 248//248 85//85 59//59
f 204//204 41//41 240//240
f 12//12 87//87 20//20
f 91//91 118//118 198//198
f 154//154 84//84 247//247
f 33//33 252//252 235//235
f 33//33 264//264 252//252
f 123//123 147//147 224//224
f 254//254 271//271 236//236
f 147//147 157//157 224//224
f 241//241 50//50 267//267
f 134//134 41//41 204//204
f 244//244 207//207 257//257
f 4//4 269//269 79//79
f 266//266 205//205 239//239
f 256//256 209//209 230//230
f 70//70 262//262 31//31
f 70//70 31//31 261//261
f 259//259 34//34 243//243
f 35//35 213//213 245//245
f 65//65 256//256 230//230
f 255//255 258//258 242//242
f 28//28 80//80 48//48
f 27//27 2//2 78//78
f 154//154 247//247 229//229
f 258//258 255//255 68//68
f 250//250 61//61 231//231
f 64//64 65//65 230//230
f 246//246 217//217 208//208
f 204//204 265//265 134//134
f 217//217 246//246 215//215

