# Blender 4.1.1
# www.blender.org
mtllib link_body_15.mtl
o link_body_15
v 1.078739 -4.482666 -4.570488
v 1.088152 -3.494066 -5.386163
v -1.593391 -4.969964 -3.645458
v -0.275599 -4.021212 -4.555007
v -1.941100 -4.708919 -5.208389
v -0.633576 -4.827988 -3.456538
v -2.030505 -4.269271 -5.409983
v -1.832056 -2.627249 -5.541319
v -1.711134 -4.051959 -4.682052
v 0.046072 -2.764952 -5.511433
v -2.247036 -3.211920 -5.463937
v -2.898727 -2.075298 -5.480119
v -1.967255 -2.792700 -4.306123
v -0.768730 -1.781107 -5.597520
v -1.584366 -4.010382 -3.603590
v -2.634419 -1.723250 -4.226675
v -3.208280 -1.337059 -4.765863
v -1.554027 -0.728862 -5.391986
v -2.578996 0.528784 -4.580880
v -3.351022 -0.988789 -3.567731
v -4.209331 0.054618 -1.940397
v -3.031885 1.646048 -3.752568
v -3.867675 -0.819553 -2.593013
v -4.220318 -0.498056 -3.822544
v -3.944972 1.123286 -2.333280
v -4.154027 1.524557 -1.338321
v -3.714527 1.048671 -3.397187
v -4.800796 0.902417 -1.755838
v -5.872421 1.256090 -0.850026
v -4.851319 1.986777 -0.371558
v -4.519810 0.618038 -3.853761
v -5.802867 0.543834 -2.134765
v -6.906032 0.482843 -2.602619
v -7.341823 1.541836 -0.773121
v -6.159481 0.331953 -3.981158
v -5.374345 0.632746 -4.883523
v -5.478876 0.003053 -5.391665
v -1.876406 1.971157 -5.579741
v -5.492630 -0.455373 -4.928307
v -4.646285 1.079499 -5.403707
v -4.901894 -0.820614 -5.379860
v -7.414838 -0.162566 -1.992277
v -6.521310 -0.252788 -3.436747
v -4.249930 -1.010062 -5.433820
v -3.157863 2.211487 -5.447287
v -3.270403 1.600246 -4.670276
v -2.239750 3.115059 -4.587198
v -2.519843 3.403185 -5.440381
v -2.030181 4.636690 -5.324500
v -2.179551 4.667883 -5.097260
v -1.881075 4.282308 -3.941726
v -1.944488 4.950854 -4.205697
v -1.746840 5.225317 -0.874398
v -0.702262 4.754834 -3.485618
v 0.319187 4.275698 -4.556865
v -1.902974 5.001005 -3.261699
v -1.325169 4.986216 -2.461483
v -2.023167 4.389555 -2.513008
v -2.476234 4.485836 -1.356294
v -2.679065 4.510351 0.592712
v -3.339488 3.635330 -0.420229
v -3.349397 4.737125 -0.286684
v -2.284968 4.680759 -1.692062
v -2.522570 4.734691 -1.985992
v -3.347884 4.698389 -1.521913
v -3.771083 4.692327 -0.593393
v -4.107919 5.118467 -1.094257
v -2.976616 5.114681 -2.232011
v -5.172400 5.450034 1.527588
v -5.440585 4.622860 2.882193
v -5.585907 5.099026 0.832414
v -6.314789 4.218857 0.709025
v -6.586136 3.643661 1.599716
v -4.296927 5.492414 3.114475
v -1.524166 5.316432 1.130000
v -1.094805 5.186353 2.287795
v -2.608196 3.829112 2.532439
v -0.799547 4.698946 3.433781
v -0.806177 3.666633 4.520627
v -1.711046 3.201938 4.291852
v -4.049787 4.808784 4.371242
v -4.169223 3.488212 5.432024
v -5.303246 3.543516 4.261833
v -6.149852 1.748370 4.280271
v -6.766379 2.182850 2.954931
v -5.170444 1.727245 5.416008
v -5.401932 -0.460671 5.453361
v -4.420650 1.393921 6.087839
v -4.398651 0.000000 6.265005
v -0.547304 0.023703 5.966602
v -1.085375 -1.442849 5.547150
v -4.444400 -1.636098 6.027812
v -1.014559 2.258263 5.256660
v -4.164256 -3.483319 5.437000
v -1.554943 0.679368 5.407939
v -2.587511 -0.429424 4.584688
v -2.384910 1.365810 4.600408
v -3.399386 0.433945 3.606544
v -3.176098 2.431827 3.159845
v -3.615250 3.063393 1.222350
v -3.963905 0.640061 2.532439
v -4.376671 1.294931 0.610604
v -4.490848 -0.110022 0.636838
v -3.957969 2.489012 -0.511763
v -4.504054 3.558795 0.340476
v -5.474517 2.849709 0.355864
v -5.720844 4.840099 0.699448
v -4.215044 4.728732 0.257264
v -4.476430 4.589054 -0.468082
v -5.100451 4.776062 -0.428610
v -7.070790 2.922787 0.289849
v -6.476798 2.207675 0.020419
v -7.466502 1.706218 -0.367199
v -7.503150 0.872105 1.509068
v -7.243246 -2.197120 1.469463
v -7.670993 -0.000000 -0.000001
v -7.107440 -0.654548 2.906825
v -6.350795 -0.738163 4.280270
v -6.232754 -3.331475 3.057452
v -4.349386 -5.509011 3.046397
v -5.586123 -3.048890 4.317219
v -6.255640 -4.179882 1.496559
v -4.050087 -4.818419 4.358037
v -0.795519 -4.653540 3.518661
v -0.846510 -3.532273 4.627587
v -2.057961 -2.155369 4.596693
v -2.114138 -3.459708 3.670310
v -3.181449 -1.629183 3.577972
v -2.702699 -3.785781 2.449276
v -1.095320 -5.181660 2.312831
v -1.528694 -5.313668 1.144000
v -5.182995 -5.442882 1.507436
v -2.589081 -5.117833 -2.432515
v -5.587688 -5.097200 0.830278
v -1.726777 -5.228941 -0.842480
v -3.893352 -5.170899 -1.124625
v -3.004999 -4.573247 -1.543147
v -3.755466 -4.841510 -1.016863
v -5.213459 -4.762177 -0.274377
v -5.482988 -4.714515 0.718613
v -5.773612 -4.803117 0.698047
v -4.165504 -4.474423 -0.462813
v -3.909306 -4.614303 0.257066
v -3.465364 -4.578551 -0.594427
v -3.133849 -4.630340 -0.231357
v -2.535666 -4.556493 -0.846136
v -3.209496 -3.840293 -0.211737
v -4.389149 -3.956687 0.472719
v -3.819989 -2.834563 -0.119502
v -2.966596 -4.051684 1.168240
v -4.124193 -1.842086 1.274243
v -3.792019 -1.638224 2.489813
v -4.369047 -1.260994 -0.000001
v -4.248238 -1.194199 -1.309716
v -4.147098 -1.904585 -0.532245
v -5.174209 -2.764831 0.373726
v -6.157794 -2.109418 0.030450
v -6.008823 -1.029919 -0.931848
v -4.936028 -0.455624 -2.262186
v -6.402062 -0.565536 -1.906603
v -7.315883 -1.664345 -0.677813
v -7.111548 -0.703637 -2.047445
v -7.065807 -2.892562 0.261797
v -7.455220 -1.735766 -0.329532
v -6.699072 -3.642505 0.591262
v -6.181627 -4.355409 0.702760
v -5.397046 -0.224975 -3.774025
v -2.091906 -4.596608 -1.872851
v -1.702181 -4.649540 -2.516900
v -1.292470 -5.015196 -2.449915
v -7.463439 0.428541 -1.705064
v -1.940876 3.834427 -3.422488
v -0.980106 3.566389 -4.542764
v -2.403227 2.478875 -4.095592
v -1.220019 0.779007 -5.582991
v -0.798945 1.709672 -5.584866
v -0.066739 2.671564 -5.519529
v 1.071534 3.637553 -5.279588
vn 0.2063 -0.4373 -0.8753
vn 0.1621 -0.6289 -0.7604
vn 0.1684 -0.6056 -0.7777
vn 0.2344 0.6640 0.7100
vn 0.2518 0.5755 0.7781
vn 0.3578 0.6081 0.7087
vn 0.1256 -0.9851 -0.1175
vn 0.1269 -0.9805 -0.1500
vn 0.1590 -0.9850 -0.0675
vn 0.1128 -0.9757 -0.1881
vn 0.4465 0.6917 0.5677
vn 0.2185 -0.3697 -0.9031
vn 0.0369 -0.1178 -0.9924
vn -0.0040 -0.0878 -0.9961
vn 0.0250 -0.1010 -0.9946
vn -0.9602 -0.0846 0.2661
vn -0.9033 -0.0824 0.4209
vn -0.9423 0.0671 0.3279
vn -0.0400 -0.0550 -0.9977
vn -0.0894 -0.0681 -0.9937
vn -0.8678 -0.3350 0.3671
vn -0.8790 -0.3790 0.2892
vn -0.7235 -0.5774 0.3783
vn -0.0991 -0.0816 -0.9917
vn 0.6493 0.1867 0.7372
vn 0.5147 0.4165 0.7494
vn 0.4939 0.3267 0.8058
vn 0.3906 0.4867 0.7813
vn -0.9965 -0.0634 0.0546
vn 0.4999 0.6266 0.5979
vn -0.7293 -0.6331 0.2595
vn -0.5887 -0.7452 0.3131
vn -0.5326 -0.8433 0.0724
vn 0.5204 0.1070 0.8472
vn 0.7116 -0.0810 0.6979
vn 0.8081 0.0098 0.5890
vn -0.3669 -0.9262 0.0865
vn 0.9566 -0.0159 0.2911
vn 0.9058 0.0391 0.4219
vn 0.9077 -0.0903 0.4097
vn 0.7765 -0.1468 0.6128
vn -0.4014 -0.8932 -0.2026
vn -0.4281 0.8766 -0.2197
vn -0.7156 0.6922 0.0939
vn -0.5671 0.8214 -0.0611
vn -0.3091 0.8648 -0.3958
vn -0.4037 0.7298 -0.5517
vn 0.9805 -0.1450 0.1323
vn -0.0383 0.7876 -0.6150
vn -0.2928 0.6166 -0.7308
vn -0.0615 0.9491 -0.3088
vn -0.3553 0.9323 0.0679
vn 0.0709 0.9539 -0.2915
vn -0.1344 0.9909 -0.0107
vn 0.1640 0.7584 -0.6308
vn -0.2645 0.9358 0.2329
vn -0.7288 0.4798 -0.4884
vn -0.7866 0.3977 -0.4723
vn -0.7075 0.5112 -0.4879
vn -0.8382 0.2611 -0.4787
vn -0.0345 0.0447 -0.9984
vn -0.0636 -0.0087 -0.9979
vn -0.0895 0.0630 -0.9940
vn -0.0205 -0.0386 -0.9990
vn -0.0903 -0.0683 -0.9936
vn -0.7324 -0.4708 -0.4918
vn -0.7379 -0.4687 -0.4856
vn -0.8008 -0.3662 -0.4740
vn -0.6996 -0.4974 -0.5129
vn -0.0504 0.0278 -0.9983
vn -0.6841 0.5234 -0.5079
vn -0.1081 -0.0899 -0.9901
vn -0.9178 -0.1117 -0.3811
vn -0.6521 0.7003 0.2903
vn -0.7214 0.5751 0.3858
vn -0.4367 0.8360 0.3322
vn -0.9159 0.3183 0.2447
vn -0.8764 0.2890 0.3853
vn -0.0288 0.0840 -0.9961
vn -0.9490 0.1032 0.2979
vn 0.0171 0.1157 -0.9931
vn -0.7590 0.3527 -0.5473
vn -0.9907 0.0801 0.1103
vn -0.9858 -0.0280 0.1658
vn 0.2095 0.9567 -0.2022
vn 0.1193 0.9449 -0.3048
vn -0.1857 0.9496 -0.2524
vn -0.9958 -0.0154 -0.0907
vn 0.2047 0.9745 -0.0924
vn 0.2055 0.9743 -0.0927
vn -0.8854 0.4646 0.0143
vn 0.2695 0.8857 -0.3780
vn 0.2340 0.9618 -0.1418
vn 0.4808 -0.6691 0.5666
vn 0.5745 -0.7159 0.3968
vn 0.5766 -0.7153 0.3947
vn 0.6307 -0.7657 0.1260
vn 0.6613 -0.7293 0.1758
vn 0.7089 -0.6982 -0.0998
vn 0.8201 -0.5722 0.0085
vn -0.7827 -0.1644 -0.6003
vn -0.6107 0.1639 -0.7747
vn -0.6506 0.0708 -0.7561
vn -0.9186 0.1742 -0.3547
vn -0.9741 -0.0431 -0.2219
vn -0.8968 0.2404 -0.3713
vn -0.7792 -0.2357 -0.5807
vn -0.0125 -0.9934 -0.1143
vn 0.0761 -0.9958 0.0503
vn 0.0005 -1.0000 0.0058
vn -0.0082 -0.9847 -0.1740
vn 0.0192 -0.9805 -0.1954
vn -0.3914 -0.7819 -0.4852
vn -0.5602 -0.6202 -0.5490
vn -0.4302 -0.7355 -0.5234
vn 0.1139 -0.9934 -0.0115
vn -0.5772 -0.7713 -0.2681
vn -0.6014 -0.7047 -0.3766
vn -0.0073 0.9949 -0.1004
vn -0.0796 0.9901 -0.1157
vn 0.0159 0.9970 -0.0753
vn -0.2549 0.9385 -0.2329
vn 0.0148 0.9954 -0.0945
vn -0.4579 -0.7992 -0.3893
vn -0.7112 0.5931 0.3774
vn -0.7254 0.6491 0.2292
vn -0.8586 0.4667 0.2120
vn -0.6028 0.6824 0.4133
vn -0.5104 0.7842 -0.3528
vn -0.7719 0.6186 0.1468
vn -0.8130 0.5700 0.1186
vn 0.1212 0.9710 0.2059
vn 0.1212 0.9787 0.1658
vn 0.0396 0.9988 0.0281
vn 0.6252 -0.7486 -0.2208
vn 0.5941 -0.7161 -0.3664
vn 0.6878 -0.6128 -0.3891
vn 0.5469 -0.6680 -0.5047
vn 0.1972 0.8300 0.5217
vn 0.5714 -0.4977 -0.6525
vn 0.4649 -0.5732 -0.6748
vn 0.2132 0.5825 0.7844
vn 0.1782 0.7606 0.6243
vn 0.1719 0.4520 0.8753
vn -0.7001 0.4574 0.5483
vn -0.6194 0.4270 0.6589
vn -0.6076 0.5870 0.5350
vn -0.8825 0.2824 0.3762
vn -0.8051 0.2114 0.5541
vn -0.6714 0.2231 0.7067
vn -0.6172 0.1668 0.7689
vn -0.7099 -0.0738 0.7005
vn -0.6332 0.0157 0.7738
vn 0.1080 0.2195 0.9696
vn 0.0773 -0.0102 0.9970
vn 0.1433 0.0202 0.9895
vn 0.4715 -0.0264 -0.8815
vn 0.5536 0.1927 -0.8102
vn 0.5265 -0.1098 -0.8431
vn 0.1962 -0.3457 0.9176
vn 0.1766 -0.4506 0.8751
vn 0.1132 -0.2302 0.9665
vn 0.5098 -0.3274 -0.7955
vn 0.1949 0.3705 0.9082
vn 0.6755 -0.2213 -0.7034
vn 0.6990 0.0711 -0.7116
vn 0.8292 -0.0574 -0.5560
vn 0.8008 -0.3642 -0.4755
vn 0.8694 -0.4543 -0.1944
vn 0.9740 -0.2065 -0.0936
vn 0.9238 -0.0996 -0.3696
vn 0.9308 -0.3654 0.0064
vn 0.9956 0.0164 -0.0920
vn -0.4495 0.4825 -0.7518
vn -0.3714 0.2185 -0.9024
vn -0.1356 0.3913 -0.9102
vn -0.0747 0.1945 -0.9781
vn -0.1942 0.0892 -0.9769
vn -0.4334 0.0496 -0.8999
vn -0.0198 -0.9954 0.0933
vn 0.0413 -0.9838 0.1746
vn -0.1314 -0.9887 0.0726
vn -0.2439 -0.6650 -0.7058
vn -0.0936 -0.7325 -0.6743
vn -0.1649 -0.7032 -0.6916
vn -0.0032 -0.7627 -0.6467
vn -0.2916 -0.9506 -0.1064
vn -0.5419 0.7401 -0.3982
vn -0.6559 0.5861 -0.4757
vn -0.6243 0.5889 -0.5133
vn 0.0879 0.5660 -0.8197
vn 0.1305 0.4009 -0.9068
vn -0.7646 0.4806 -0.4295
vn -0.7848 0.4497 -0.4265
vn -0.9289 0.3218 -0.1835
vn -0.9344 0.3327 0.1274
vn -0.9733 0.1128 0.1997
vn -0.9419 -0.2736 0.1947
vn -0.9243 -0.0824 0.3726
vn -0.9998 -0.0167 0.0073
vn -0.8218 -0.1042 0.5601
vn -0.8025 -0.4437 0.3989
vn -0.6909 -0.5960 0.4091
vn -0.6550 -0.5620 0.5051
vn -0.8063 -0.5571 0.1991
vn -0.7229 -0.3924 0.5687
vn -0.6366 -0.4252 0.6434
vn 0.1775 -0.7680 0.6154
vn 0.2123 -0.5446 0.8114
vn 0.1944 -0.8183 0.5410
vn 0.1208 -0.9820 0.1453
vn 0.6175 0.3350 -0.7117
vn 0.5113 0.5186 -0.6853
vn 0.6313 0.5380 -0.5586
vn 0.5468 0.6680 -0.5048
vn 0.7959 0.2563 -0.5484
vn 0.7217 0.5792 -0.3790
vn 0.5901 0.7126 -0.3793
vn 0.1199 -0.9694 0.2144
vn 0.6383 0.7478 -0.1826
vn -0.0808 -0.9892 -0.1221
vn 0.0383 -0.9988 0.0305
vn -0.1807 -0.9637 -0.1964
vn 0.0188 -0.9958 -0.0898
vn 0.0314 -0.9971 -0.0691
vn -0.7689 -0.6317 0.0988
vn -0.7315 -0.6188 0.2864
vn -0.4985 -0.7955 -0.3446
vn -0.5195 -0.7527 -0.4043
vn -0.5096 0.4609 -0.7266
vn -0.5773 0.5432 -0.6096
vn -0.4791 0.6985 -0.5315
vn -0.3971 0.5891 -0.7037
vn -0.3390 0.5943 -0.7293
vn -0.6753 -0.6120 -0.4116
vn -0.2830 0.9513 -0.1225
vn -0.2815 0.9518 -0.1221
vn -0.2404 0.9680 -0.0724
vn 0.0030 0.9949 0.1005
vn -0.2195 0.7306 -0.6465
vn 0.0686 0.9915 0.1101
vn 0.0510 0.9836 0.1730
vn -0.0414 0.9990 -0.0188
vn 0.0236 0.8414 -0.5400
vn -0.4454 -0.0120 -0.8952
vn -0.5543 -0.1026 -0.8260
vn -0.6305 -0.0411 -0.7751
vn -0.0043 0.9999 0.0103
vn -0.7127 -0.0509 -0.6996
vn -0.3121 -0.1099 -0.9437
vn -0.3792 -0.3427 -0.8595
vn 0.7620 0.6241 -0.1726
vn 0.7857 0.6171 -0.0438
vn 0.8991 0.4302 -0.0811
vn 0.6577 0.7512 0.0557
vn 0.9332 0.2976 -0.2012
vn 0.8894 0.2504 -0.3826
vn 0.9816 0.1903 0.0125
vn 0.9543 0.2963 0.0396
vn 0.9830 0.0980 0.1551
vn 0.0282 -0.7917 -0.6102
vn -0.2503 -0.8032 -0.5406
vn -0.2217 -0.6238 -0.7495
vn -0.1426 -0.3933 -0.9083
vn 0.0619 -0.5613 -0.8253
vn 0.1330 -0.9244 -0.3576
vn -0.1959 -0.9355 -0.2940
vn 0.2579 -0.8871 -0.3829
vn 0.2500 -0.6918 -0.6774
vn -0.8034 -0.4060 -0.4355
vn -0.8056 -0.4275 -0.4101
vn 0.0572 -0.9937 -0.0959
vn -0.9352 -0.3060 -0.1783
vn -0.9235 -0.3784 0.0631
vn 0.1511 -0.4371 -0.8867
vn 0.0215 -0.2749 -0.9612
vn -0.8932 -0.4038 0.1978
vn -0.0514 -0.1479 -0.9877
vn -0.2028 0.0059 0.9792
vn 0.0527 0.0585 -0.9969
vn -0.0842 -0.0935 -0.9921
vn -0.6762 -0.6119 -0.4102
vn -0.0850 -0.9949 0.0545
vn -0.1751 -0.9496 0.2601
vn 0.6013 0.7548 0.2620
vn 0.6294 0.7692 0.1099
vn -0.0005 0.9974 -0.0721
vn -0.0864 0.9942 -0.0635
vn -0.0052 0.9964 -0.0850
vn 0.5726 0.7190 0.3940
vn 0.5694 0.7240 0.3895
vn 0.1744 -0.9813 -0.0810
vn -0.4688 0.8368 -0.2828
vn -0.4584 0.7976 -0.3920
vn -0.9983 0.0386 0.0426
vn -0.9949 0.0137 -0.0998
vn -0.4609 0.8600 -0.2188
vn -0.6689 -0.2241 0.7088
vn -0.9216 0.2160 -0.3227
vn -0.9884 0.1518 -0.0062
vn 0.5489 -0.6189 0.5619
vn 0.4580 -0.5351 0.7099
vn 0.5993 -0.3446 0.7226
vn -0.9537 0.2939 0.0632
vn 0.5390 -0.3292 0.7753
vn 0.5709 -0.1497 0.8073
vn -0.4635 0.6133 0.6395
vn 0.0039 0.0356 -0.9994
vn 0.0047 0.0053 -1.0000
vn 0.0334 0.1238 -0.9917
vn 0.3842 -0.4713 0.7939
vn 0.2949 -0.5428 0.7863
vn 0.3276 -0.5910 0.7372
vn 0.0674 0.1650 -0.9840
vn 0.2789 0.8452 -0.4560
vn -0.2205 -0.8791 0.4226
vn -0.3915 -0.8527 0.3458
vt 0.765372 0.097966
vt 0.770477 0.118701
vt 0.763815 0.118672
vt 0.552739 0.816090
vt 0.552840 0.822702
vt 0.543746 0.819177
vt 0.752378 0.242114
vt 0.761924 0.258082
vt 0.752430 0.248578
vt 0.761982 0.237636
vt 0.822994 0.050391
vt 0.815560 0.049277
vt 0.825058 0.041111
vt 0.762426 0.098565
vt 0.775350 0.111780
vt 0.959870 0.607636
vt 0.963881 0.611048
vt 0.961953 0.613043
vt 0.776294 0.099300
vt 0.772406 0.096539
vt 0.965766 0.605459
vt 0.959308 0.600162
vt 0.967160 0.600408
vt 0.779968 0.092225
vt 0.528099 0.834467
vt 0.532518 0.827355
vt 0.540534 0.834125
vt 0.545930 0.827570
vt 0.953167 0.605087
vt 0.818769 0.063123
vt 0.815019 0.057108
vt 0.058541 0.967295
vt 0.062242 0.964262
vt 0.067907 0.970686
vt 0.067389 0.965313
vt 0.064245 0.957849
vt 0.535327 0.841119
vt 0.528513 0.849449
vt 0.523331 0.839325
vt 0.070150 0.956249
vt 0.823014 0.225450
vt 0.811943 0.221296
vt 0.818715 0.221069
vt 0.807804 0.227785
vt 0.818570 0.237048
vt 0.809956 0.237367
vt 0.063971 0.950477
vt 0.946087 0.544921
vt 0.955384 0.538956
vt 0.953182 0.544484
vt 0.129226 0.985314
vt 0.132234 0.979977
vt 0.134415 0.986559
vt 0.801899 0.224279
vt 0.945478 0.586849
vt 0.951278 0.584472
vt 0.958252 0.586445
vt 0.936601 0.590545
vt 0.936309 0.584961
vt 0.944924 0.592781
vt 0.129367 0.973995
vt 0.958817 0.591402
vt 0.944319 0.600162
vt 0.954778 0.600162
vt 0.931395 0.598908
vt 0.962185 0.599370
vt 0.685880 0.513905
vt 0.677923 0.508722
vt 0.685152 0.508613
vt 0.669485 0.504723
vt 0.806850 0.099071
vt 0.793801 0.075116
vt 0.808449 0.090567
vt 0.781908 0.106375
vt 0.787059 0.083265
vt 0.681795 0.514716
vt 0.672458 0.510657
vt 0.788320 0.078938
vt 0.790702 0.075045
vt 0.800943 0.080663
vt 0.690595 0.506529
vt 0.663235 0.507061
vt 0.961479 0.539611
vt 0.966449 0.535376
vt 0.966449 0.546192
vt 0.960497 0.527692
vt 0.966057 0.526437
vt 0.816357 0.094824
vt 0.963398 0.517922
vt 0.824532 0.098103
vt 0.964923 0.517660
vt 0.955863 0.519806
vt 0.957402 0.515822
vt 0.948855 0.510341
vt 0.954897 0.514533
vt 0.953082 0.514455
vt 0.951123 0.515663
vt 0.931395 0.496868
vt 0.941768 0.500490
vt 0.935214 0.514533
vt 0.959985 0.499054
vt 0.949863 0.500919
vt 0.988890 0.129824
vt 0.980863 0.129549
vt 0.979075 0.125425
vt 0.970239 0.132280
vt 0.970881 0.126584
vt 0.785001 0.236757
vt 0.777102 0.226738
vt 0.786453 0.228324
vt 0.778447 0.237367
vt 0.938612 0.520824
vt 0.932628 0.528527
vt 0.931395 0.521867
vt 0.940788 0.519043
vt 0.946340 0.519911
vt 0.959038 0.555225
vt 0.947547 0.557521
vt 0.953006 0.551386
vt 0.959134 0.552715
vt 0.967732 0.549097
vt 0.957828 0.549483
vt 0.946819 0.554138
vt 0.947201 0.550155
vt 0.630814 0.971806
vt 0.633627 0.974271
vt 0.630814 0.979256
vt 0.872397 0.818338
vt 0.850470 0.837248
vt 0.862273 0.812675
vt 0.866207 0.826728
vt 0.877875 0.810201
vt 0.653744 0.460777
vt 0.664413 0.460602
vt 0.656183 0.472834
vt 0.656892 0.452963
vt 0.855232 0.838182
vt 0.666614 0.465751
vt 0.663440 0.472350
vt 0.840908 0.812484
vt 0.839191 0.833905
vt 0.849011 0.813978
vt 0.769514 0.227359
vt 0.764960 0.220836
vt 0.772548 0.213851
vt 0.762426 0.212883
vt 0.832799 0.811035
vt 0.869315 0.382206
vt 0.879849 0.387307
vt 0.872894 0.387941
vt 0.825058 0.810201
vt 0.830288 0.832467
vt 0.767555 0.202167
vt 0.311858 0.815007
vt 0.311767 0.806139
vt 0.333961 0.809214
vt 0.642748 0.461315
vt 0.637663 0.455087
vt 0.648003 0.451624
vt 0.643645 0.476133
vt 0.635709 0.472458
vt 0.630694 0.466504
vt 0.311235 0.792096
vt 0.306102 0.793930
vt 0.305768 0.779312
vt 0.623234 0.478317
vt 0.312141 0.782868
vt 0.337639 0.785153
vt 0.848776 0.391879
vt 0.838802 0.389144
vt 0.852588 0.384789
vt 0.334890 0.775169
vt 0.315623 0.759975
vt 0.312741 0.772022
vt 0.863370 0.387434
vt 0.333336 0.799733
vt 0.856735 0.378838
vt 0.844737 0.378543
vt 0.786361 0.194139
vt 0.776411 0.192906
vt 0.785874 0.185523
vt 0.777738 0.204764
vt 0.782939 0.217414
vt 0.795321 0.213204
vt 0.790332 0.200537
vt 0.793364 0.224006
vt 0.802519 0.207228
vt 0.134415 0.971806
vt 0.986867 0.302824
vt 0.988914 0.310263
vt 0.980665 0.307667
vt 0.976246 0.302485
vt 0.981014 0.297389
vt 0.988847 0.290208
vt 0.993651 0.293298
vt 0.994872 0.303226
vt 0.942802 0.551654
vt 0.940857 0.556411
vt 0.996075 0.308818
vt 0.931395 0.551971
vt 0.664029 0.978770
vt 0.664029 0.971806
vt 0.666593 0.975288
vt 0.939464 0.549097
vt 0.673452 0.470800
vt 0.666346 0.467859
vt 0.679785 0.469203
vt 0.975594 0.291634
vt 0.979481 0.286878
vt 0.970239 0.296707
vt 0.970239 0.286767
vt 0.660585 0.482216
vt 0.661830 0.493732
vt 0.659867 0.491723
vt 0.646576 0.489618
vt 0.637509 0.505256
vt 0.634454 0.491878
vt 0.652102 0.499807
vt 0.627564 0.485899
vt 0.626473 0.503481
vt 0.702020 0.220879
vt 0.705270 0.233587
vt 0.696974 0.237190
vt 0.712359 0.218763
vt 0.632585 0.513416
vt 0.621215 0.496219
vt 0.694649 0.226758
vt 0.305995 0.762134
vt 0.317136 0.751256
vt 0.337639 0.761514
vt 0.706851 0.257132
vt 0.699273 0.258082
vt 0.833622 0.383056
vt 0.825214 0.391879
vt 0.825058 0.383380
vt 0.762426 0.042404
vt 0.769971 0.041111
vt 0.766895 0.051619
vt 0.804596 0.177708
vt 0.796786 0.185732
vt 0.794067 0.178322
vt 0.811916 0.182657
vt 0.777523 0.043415
vt 0.774103 0.056158
vt 0.714416 0.253636
vt 0.784557 0.047367
vt 0.714104 0.226030
vt 0.721449 0.249235
vt 0.732899 0.230706
vt 0.743172 0.237357
vt 0.734058 0.245182
vt 0.717853 0.222387
vt 0.725452 0.223215
vt 0.933436 0.613043
vt 0.937859 0.608104
vt 0.943006 0.611924
vt 0.933408 0.610564
vt 0.533871 0.972064
vt 0.533871 0.981169
vt 0.531521 0.971806
vt 0.718377 0.220930
vt 0.788600 0.073046
vt 0.781525 0.075046
vt 0.781767 0.073440
vt 0.791189 0.067543
vt 0.530020 0.975066
vt 0.791134 0.060577
vt 0.786896 0.064682
vt 0.793028 0.063215
vt 0.795439 0.064978
vt 0.935664 0.770222
vt 0.937704 0.776871
vt 0.932960 0.774574
vt 0.795930 0.057929
vt 0.931395 0.778231
vt 0.941025 0.769765
vt 0.945508 0.776875
vt 0.818820 0.188185
vt 0.823666 0.196208
vt 0.818815 0.199873
vt 0.782130 0.058930
vt 0.790714 0.062774
vt 0.808357 0.196748
vt 0.801964 0.191307
vt 0.810882 0.205758
vt 0.816112 0.205859
vt 0.815782 0.212836
vt 0.070676 0.933872
vt 0.061814 0.941968
vt 0.058541 0.938079
vt 0.951970 0.778231
vt 0.950514 0.769421
vt 0.957673 0.766102
vt 0.963412 0.770682
vt 0.076254 0.938000
vt 0.069043 0.944895
vt 0.080780 0.936486
vt 0.077247 0.928262
vt 0.964288 0.761068
vt 0.662296 0.509434
vt 0.651217 0.510118
vt 0.082098 0.946277
vt 0.648814 0.509576
vt 0.642408 0.512729
vt 0.956331 0.758241
vt 0.950765 0.757732
vt 0.638731 0.514716
vt 0.944918 0.758208
vt 0.986656 0.970767
vt 0.998826 0.970767
vt 0.992972 0.970910
vt 0.717484 0.214510
vt 0.940969 0.758980
vt 0.940466 0.760936
vt 0.717664 0.218186
vt 0.076777 0.951955
vt 0.081158 0.958334
vt 0.803218 0.056534
vt 0.797174 0.051484
vt 0.799821 0.061712
vt 0.807949 0.054916
vt 0.808162 0.051507
vt 0.745038 0.245732
vt 0.951856 0.610835
vt 0.945084 0.607133
vt 0.931395 0.607520
vt 0.299665 0.777019
vt 0.663403 0.503070
vt 0.396732 0.971806
vt 0.395696 0.983057
vt 0.388394 0.971806
vt 0.952554 0.522836
vt 0.984779 0.122994
vt 0.539185 0.869606
vt 0.532774 0.871343
vt 0.529699 0.862379
vt 0.994478 0.124912
vt 0.957427 0.532135
vt 0.540389 0.857320
vt 0.537576 0.851143
vt 0.525499 0.856837
vt 0.805099 0.106226
vt 0.798921 0.103414
vt 0.811472 0.111109
vt 0.545267 0.863696
vt 0.552840 0.870084
vt 0.547830 0.874299
vt 0.817847 0.118701
vt 0.967406 0.496868
vt 0.998573 0.132280
vt 0.956312 0.549097
vt 0.079231 0.963015
vt 0.075645 0.965562
vt 0.967062 0.597975
s 1
usemtl pleuraldeles_skin
f 7/1/1 2/2/2 1/3/3
f 1/4/4 2/5/5 4/6/6
f 3/7/7 1/8/8 6/9/9
f 1/8/8 3/7/7 5/10/10
f 4/11/6 6/12/11 1/13/4
f 7/1/1 1/3/3 5/14/12
f 2/2/13 7/1/14 10/15/15
f 9/16/16 7/17/17 5/18/18
f 8/19/19 7/1/14 11/20/20
f 7/1/14 8/19/19 10/15/15
f 11/21/21 7/17/17 9/16/16
f 13/22/22 12/23/23 11/21/21
f 11/20/20 12/24/24 8/19/19
f 11/21/21 9/16/16 13/22/22
f 16/25/25 13/26/26 14/27/27
f 13/26/26 10/28/28 14/27/27
f 13/22/22 9/16/16 15/29/29
f 4/11/6 13/30/26 15/31/30
f 13/32/22 16/33/31 12/34/23
f 13/26/26 4/6/6 10/28/28
f 16/33/31 17/35/32 12/34/23
f 20/36/33 17/35/32 16/33/31
f 16/25/25 18/37/34 19/38/35
f 16/25/25 14/27/27 18/37/34
f 16/25/25 19/38/35 20/39/36
f 20/36/33 24/40/37 17/35/32
f 20/41/36 21/42/38 23/43/39
f 20/41/36 25/44/40 21/42/38
f 19/45/35 22/46/41 20/41/36
f 22/46/41 25/44/40 20/41/36
f 24/40/37 20/36/33 23/47/42
f 25/48/43 22/49/44 27/50/45
f 28/51/46 26/52/47 25/53/43
f 25/44/40 26/54/48 21/42/38
f 28/55/46 25/56/43 27/57/45
f 29/58/49 30/59/50 28/55/46
f 29/58/49 28/55/46 32/60/51
f 28/51/46 30/61/50 26/52/47
f 28/55/46 27/57/45 31/62/52
f 28/55/46 31/62/52 32/60/51
f 33/63/53 32/60/51 35/64/54
f 34/65/55 32/60/51 33/63/53
f 34/65/55 29/58/49 32/60/51
f 32/60/51 31/62/52 35/64/54
f 35/64/54 31/62/52 36/66/56
f 37/67/57 35/68/58 36/69/59
f 37/67/57 33/70/60 35/68/58
f 38/71/61 37/72/62 45/73/63
f 37/72/62 38/71/61 14/74/64
f 14/74/64 8/19/19 37/72/62
f 44/75/65 37/72/62 8/19/19
f 37/67/66 39/76/67 43/77/68
f 37/72/66 41/78/69 39/79/67
f 37/72/62 40/80/70 45/73/63
f 36/69/59 40/81/71 37/67/57
f 44/75/65 41/78/72 37/72/62
f 33/70/60 37/67/57 42/82/73
f 37/67/66 43/77/68 42/82/73
f 46/83/74 45/84/75 40/85/76
f 46/83/74 47/86/77 45/84/75
f 48/87/78 45/84/75 47/86/77
f 45/73/63 48/88/79 38/71/61
f 47/86/77 50/89/80 48/87/78
f 48/88/79 49/90/81 38/71/61
f 51/92/83 50/89/80 47/86/77
f 51/92/83 52/93/84 50/89/80
f 52/94/85 49/95/86 50/96/87
f 52/93/84 51/92/83 56/97/88
f 52/94/85 53/98/89 57/99/90
f 53/100/91 52/93/91 56/97/91
f 55/101/92 49/95/86 52/94/85
f 57/99/90 54/102/93 52/94/85
f 52/94/85 54/102/93 55/101/92
f 54/103/94 57/104/95 58/105/96
f 57/104/95 53/106/97 59/107/98
f 58/105/96 57/104/95 59/107/98
f 59/108/98 60/109/99 61/110/100
f 59/108/98 53/111/97 60/109/99
f 59/112/101 61/113/102 62/114/103
f 63/115/104 58/116/105 59/112/106
f 63/115/107 59/112/101 62/114/103
f 63/117/108 62/118/109 65/119/110
f 65/119/110 64/120/111 63/117/108
f 63/117/108 64/120/111 56/121/112
f 63/115/104 56/97/88 58/116/105
f 64/120/113 65/119/114 68/122/115
f 66/123/116 65/119/110 62/118/109
f 66/123/117 67/124/118 65/119/114
f 68/125/115 65/126/114 67/127/118
f 68/128/119 69/129/120 53/130/121
f 67/131/122 69/129/120 68/128/119
f 56/132/123 68/128/119 53/130/121
f 56/121/124 64/120/113 68/122/115
f 70/133/125 69/134/126 73/135/127
f 70/133/125 74/136/128 69/134/126
f 71/137/129 69/129/120 67/131/122
f 69/134/126 71/138/130 72/139/131
f 73/135/127 69/134/126 72/139/131
f 76/140/132 69/129/120 74/141/133
f 76/140/132 75/142/134 69/129/120
f 75/142/134 53/130/121 69/129/120
f 60/109/99 75/143/135 76/144/136
f 77/145/137 76/144/136 78/146/138
f 60/109/99 76/144/136 77/145/137
f 74/141/133 78/147/139 76/140/132
f 80/148/140 78/149/138 79/150/141
f 79/151/142 78/147/139 81/152/143
f 77/145/137 78/146/138 80/153/140
f 81/152/143 78/147/139 74/141/133
f 81/154/143 82/155/144 79/156/142
f 83/157/145 82/158/146 81/159/147
f 70/133/125 83/157/145 81/159/147
f 74/136/128 70/133/125 81/159/147
f 85/160/148 83/157/145 70/133/125
f 83/157/145 84/161/149 86/162/150
f 85/160/148 84/161/149 83/157/145
f 83/157/145 86/162/150 82/158/146
f 88/163/151 86/164/150 87/165/152
f 84/161/149 87/166/152 86/162/150
f 88/163/151 82/155/146 86/164/150
f 88/163/151 87/165/152 89/167/153
f 88/163/154 89/167/155 90/168/156
f 82/155/144 88/163/154 90/168/156
f 90/169/157 91/170/158 95/171/159
f 91/172/160 90/168/156 94/173/161
f 89/167/155 92/174/162 90/168/156
f 90/168/156 92/174/162 94/173/161
f 90/169/157 95/171/159 93/175/163
f 82/155/144 90/168/156 93/176/164
f 93/175/163 95/171/159 97/177/165
f 91/170/158 96/178/166 95/171/159
f 97/177/165 95/171/159 96/178/166
f 98/179/167 97/180/165 96/181/166
f 99/182/168 97/180/165 98/179/167
f 97/177/165 80/148/140 93/175/163
f 99/182/168 80/153/140 97/180/165
f 100/183/169 77/145/137 99/182/168
f 102/184/170 100/183/169 99/182/168
f 77/145/137 80/153/140 99/182/168
f 101/185/171 99/182/168 98/179/167
f 102/184/170 99/182/168 101/185/171
f 102/184/170 104/186/172 100/183/169
f 104/186/172 102/184/170 26/54/48
f 21/42/38 26/54/48 102/184/170
f 21/42/38 102/184/170 103/187/173
f 102/184/170 101/185/171 103/187/173
f 100/183/169 104/186/172 61/110/100
f 30/61/50 104/188/174 26/52/47
f 105/189/175 61/190/102 104/191/174
f 30/192/50 105/189/175 104/191/174
f 106/193/176 105/189/175 30/192/50
f 105/189/175 106/193/176 72/194/177
f 105/189/175 72/194/177 107/195/178
f 108/196/179 105/189/175 107/195/178
f 108/196/179 61/190/102 105/189/175
f 109/197/180 62/118/109 108/198/181
f 62/199/103 61/190/102 108/196/179
f 108/198/181 107/200/182 109/197/180
f 110/201/183 67/202/184 109/203/185
f 109/197/185 67/124/184 66/123/186
f 109/197/180 66/123/116 62/118/109
f 110/204/187 109/197/180 107/200/182
f 71/138/129 67/207/122 110/205/188
f 71/138/129 107/206/189 72/139/190
f 112/208/191 106/193/176 30/192/50
f 72/194/177 106/193/176 111/209/192
f 111/209/192 106/193/176 112/208/191
f 112/208/191 29/210/49 34/211/55
f 30/192/50 29/210/49 112/208/191
f 112/208/191 34/211/55 111/209/192
f 111/212/193 34/213/194 113/214/195
f 73/135/127 72/139/131 111/212/196
f 111/212/196 114/215/197 73/135/127
f 111/212/196 113/214/195 114/215/197
f 115/216/198 117/217/199 114/215/197
f 116/218/200 115/216/198 114/215/197
f 113/214/195 116/218/200 114/215/197
f 114/215/197 85/160/148 73/135/127
f 114/215/197 117/217/199 85/160/148
f 117/217/199 84/161/149 85/160/148
f 117/217/199 118/219/201 84/161/149
f 119/220/202 118/219/201 117/217/199
f 117/217/199 115/216/198 119/220/202
f 119/221/202 120/222/203 123/223/204
f 122/224/205 120/222/203 119/221/202
f 122/225/205 119/220/202 115/216/198
f 119/220/202 121/226/206 118/219/201
f 119/221/202 123/223/204 121/227/206
f 121/228/206 123/229/204 94/173/207
f 123/229/208 125/230/209 94/173/161
f 123/223/208 124/231/210 125/232/209
f 123/223/208 120/222/211 124/231/210
f 126/233/212 91/170/158 125/234/213
f 94/173/161 125/230/209 91/172/160
f 125/234/213 127/235/214 126/233/212
f 125/236/213 124/237/215 127/238/214
f 127/239/214 128/240/216 126/241/212
f 129/242/217 128/240/216 127/239/214
f 127/238/214 130/243/218 129/244/217
f 127/238/214 124/237/215 130/243/218
f 130/245/219 124/231/210 120/222/211
f 129/244/217 130/243/218 131/246/220
f 130/245/219 132/247/221 131/248/222
f 130/245/219 120/222/211 132/247/221
f 136/249/223 133/250/224 132/247/221
f 135/251/225 132/247/221 133/250/224
f 134/252/226 132/247/227 122/224/205
f 132/247/221 134/252/228 136/249/223
f 122/224/205 132/247/227 120/222/203
f 131/248/222 132/247/221 135/251/225
f 136/249/223 134/252/228 139/253/229
f 136/254/230 137/255/231 133/256/232
f 138/257/233 137/255/231 136/254/230
f 136/258/230 139/259/234 138/260/233
f 134/252/228 141/261/235 139/253/229
f 139/262/236 141/263/237 140/264/238
f 142/265/239 139/262/236 140/264/238
f 139/259/234 142/266/240 138/260/233
f 145/267/241 142/265/239 143/268/242
f 143/268/242 142/265/239 140/264/238
f 145/267/241 144/269/243 142/265/239
f 142/265/240 144/269/244 138/270/233
f 143/271/245 147/272/246 145/273/247
f 144/269/243 145/267/241 146/274/248
f 146/275/249 145/273/247 147/272/246
f 148/276/250 147/272/246 143/271/245
f 149/277/251 147/272/246 148/276/250
f 150/278/252 147/279/253 149/280/254
f 150/281/252 146/274/255 147/282/253
f 150/278/252 149/280/254 151/283/256
f 151/283/256 129/242/217 150/278/252
f 150/281/252 131/246/220 146/274/255
f 129/244/217 131/246/220 150/281/252
f 151/283/256 152/284/257 129/242/217
f 103/187/173 152/284/257 151/283/256
f 151/283/256 149/280/254 153/285/258
f 151/283/256 153/285/258 103/187/173
f 153/285/258 149/280/254 155/286/259
f 154/287/260 153/285/258 155/286/259
f 154/287/260 103/187/173 153/285/258
f 158/288/261 154/289/262 155/290/263
f 155/291/263 156/292/264 157/293/265
f 155/291/263 149/277/251 156/292/264
f 157/293/265 158/294/261 155/291/263
f 158/288/261 160/295/266 159/296/267
f 158/288/261 159/296/267 154/289/262
f 162/297/268 160/295/266 158/288/261
f 161/298/269 162/297/268 158/288/261
f 161/299/269 158/294/261 157/293/265
f 162/300/270 161/301/271 42/82/73
f 43/302/272 160/295/266 162/297/268
f 43/77/68 162/300/270 42/82/73
f 164/303/273 161/301/271 163/304/274
f 157/293/265 163/305/275 161/299/269
f 161/301/271 164/303/273 42/82/73
f 164/303/273 116/218/200 42/82/73
f 116/218/200 164/303/273 115/216/198
f 115/216/198 164/303/273 163/304/274
f 157/293/265 165/306/276 163/305/275
f 165/307/277 122/225/205 163/304/274
f 163/304/274 122/225/205 115/216/198
f 165/306/276 156/292/264 166/308/278
f 157/293/265 156/292/264 165/306/276
f 134/309/279 165/310/279 166/311/279
f 165/312/277 134/252/226 122/224/205
f 148/276/250 166/308/278 156/292/264
f 141/313/280 166/308/278 140/314/281
f 148/276/250 140/314/281 166/308/278
f 134/252/228 166/315/282 141/261/235
f 160/295/266 43/302/272 159/296/267
f 167/316/283 159/296/267 43/302/272
f 159/296/267 167/316/283 24/40/37
f 24/40/37 23/47/42 159/296/267
f 159/296/267 23/47/42 154/289/262
f 167/316/283 43/302/272 39/317/284
f 167/316/283 39/317/284 24/40/37
f 156/292/264 149/277/251 148/276/250
f 154/287/260 21/42/38 103/187/173
f 154/287/260 23/43/39 21/42/38
f 129/242/217 152/284/257 128/240/216
f 152/284/257 98/179/167 128/240/216
f 103/187/173 101/185/171 152/284/257
f 152/284/257 101/185/171 98/179/167
f 148/276/250 143/271/245 140/314/281
f 168/318/285 146/274/255 135/319/286
f 146/274/248 168/318/287 137/320/288
f 131/246/220 135/319/286 146/274/255
f 144/269/243 146/274/248 137/320/288
f 137/320/288 168/318/287 169/321/289
f 169/321/290 168/318/285 170/322/291
f 135/319/286 170/322/291 168/318/285
f 170/323/292 135/251/225 3/7/7
f 170/322/291 6/12/11 169/321/290
f 6/9/9 170/323/292 3/7/7
f 3/324/293 133/256/232 169/325/294
f 137/255/231 169/325/294 133/256/232
f 6/12/11 15/31/30 169/321/290
f 3/324/295 169/325/296 15/29/29
f 144/326/243 137/255/288 138/257/297
f 3/7/7 135/251/225 133/250/224
f 128/240/216 96/181/166 126/241/212
f 98/179/167 96/181/166 128/240/216
f 91/170/158 126/233/212 96/178/166
f 118/327/201 121/228/206 92/174/298
f 121/228/206 94/173/207 92/174/298
f 84/161/149 118/219/201 87/166/152
f 118/327/201 92/174/298 87/165/152
f 116/218/200 113/214/195 171/328/299
f 171/328/299 42/82/73 116/218/200
f 42/82/73 171/328/299 33/70/60
f 171/328/299 113/214/195 34/213/194
f 171/328/299 34/213/194 33/70/60
f 100/183/169 61/110/100 60/109/99
f 60/109/99 77/145/137 100/183/169
f 79/156/142 82/155/144 93/176/164
f 93/175/163 80/148/140 79/150/141
f 87/165/152 92/174/298 89/167/153
f 73/135/127 85/160/148 70/133/125
f 60/329/99 53/330/97 75/331/135
f 58/116/105 56/97/88 172/332/300
f 54/103/94 58/105/96 172/333/301
f 173/334/302 172/335/301 174/336/303
f 173/337/302 54/103/94 172/333/301
f 172/332/300 47/86/77 174/338/304
f 51/92/83 47/86/77 172/332/300
f 56/97/88 51/92/83 172/332/300
f 176/339/305 173/334/302 174/336/303
f 174/336/303 175/340/306 176/339/305
f 19/38/35 175/340/306 174/336/303
f 19/38/35 174/336/303 22/341/41
f 47/86/307 22/49/307 174/338/307
f 38/71/61 176/342/308 175/343/309
f 38/71/61 177/344/310 176/342/308
f 176/339/305 177/345/311 173/334/302
f 177/345/311 178/346/312 55/347/313
f 49/90/81 178/348/314 177/344/310
f 177/345/311 55/347/313 173/334/302
f 49/90/81 177/344/310 38/71/61
f 55/101/92 178/349/315 49/95/86
f 14/74/64 38/71/61 175/343/309
f 175/340/306 18/37/34 14/27/27
f 19/38/35 18/37/34 175/340/306
f 54/103/94 173/337/302 55/350/313
f 46/83/74 22/49/44 47/86/77
f 31/351/52 46/83/74 40/85/76
f 27/50/45 46/83/74 31/351/52
f 46/83/74 27/50/45 22/49/44
f 39/317/284 41/352/316 44/353/317
f 39/317/284 44/353/317 24/40/37
f 17/35/32 44/353/317 12/34/23
f 24/40/37 44/353/317 17/35/32
f 12/24/24 44/75/65 8/19/19
f 36/66/56 31/62/52 40/354/76
f 9/16/16 3/324/295 15/29/29
f 6/12/11 4/11/6 15/31/30
f 10/15/15 8/19/19 14/74/64
f 4/6/6 2/5/5 10/28/28
f 9/16/16 5/18/18 3/324/295
usemtl 
f 49/91/82 48/87/82 50/89/82
f 110/205/188 107/206/189 71/138/129
