# Blender 4.1.1
# www.blender.org
mtllib link_body_01.mtl
o link_body_01
v -1.711812 -6.182575 1.463861
v -3.597264 -5.488848 0.551085
v 0.567428 -5.107458 2.916519
v 0.141215 -6.371238 0.939279
v -1.517323 -4.157723 4.345324
v -2.945675 -4.878635 3.298849
v -2.190778 -6.088497 0.587052
v -2.750756 -5.911465 0.134873
v -3.188725 -4.494310 0.074864
v -3.823410 -5.161335 -1.293480
v -5.070992 -4.161669 -0.000004
v -5.254467 -3.510933 -1.797064
v -4.020603 -4.431814 -2.588657
v -3.786381 -4.561769 -0.980395
v -3.077660 -2.683389 -0.659140
v -2.105702 -3.983489 0.928103
v -2.091160 -2.323631 -0.032561
v -3.385937 -2.499837 -2.286077
v -2.139534 -1.576531 -1.341404
v -1.723854 -1.235632 -2.847581
v -2.211178 -0.000000 -1.988131
v -1.150818 1.368709 -3.869185
v -2.460491 -0.000000 0.779589
v -2.091159 2.323632 -0.032560
v -2.139534 1.576530 -1.341404
v -1.723854 1.235632 -2.847580
v -1.027645 -1.411424 -3.967054
v -1.541138 -2.354566 -5.028383
v -3.018600 -2.390435 -3.655881
v -0.115925 -0.804830 -5.158010
v 0.082290 -2.060824 -4.961556
v -0.047581 1.200699 -5.123860
v -3.227516 -2.786130 -5.000249
v -3.937274 0.327193 -5.219567
v -4.556430 0.875758 -4.670190
v -3.227515 2.786128 -5.000250
v -3.977737 -1.255501 -5.068432
v -5.396083 -0.579109 -3.681779
v -4.815887 -2.610532 -3.621168
v -3.571461 -3.854726 -3.858716
v -6.008750 -1.876176 -1.968317
v -6.312549 -1.862239 0.595668
v -6.298377 -0.000001 -1.910998
v -5.061786 2.096672 -3.699118
v -6.008749 1.876175 -1.968317
v -6.546798 0.465681 0.463647
v -6.168147 1.805449 1.338237
v -5.830699 3.024825 0.582013
v -6.053538 0.634995 2.478981
v -4.913635 -0.568919 4.395145
v -5.188903 1.673957 3.650317
v -5.296214 2.951461 2.520003
v -5.518047 -1.685054 3.180922
v -3.183800 -3.324933 4.698694
v -4.166328 -3.478061 3.681439
v -5.393906 -3.207098 2.018405
v -4.364220 -4.527797 1.908917
v -2.151730 -2.939254 4.973415
v -4.706138 0.666432 4.526347
v -3.183799 3.324930 4.698694
v -2.151729 2.939252 4.973415
v -0.138454 -0.515025 5.323860
v -1.014164 -1.738317 4.077229
v -0.009391 1.550267 5.246331
v 0.109482 -1.989155 5.174401
v -1.243553 0.525311 4.072306
v -0.595390 2.849218 4.008040
v -1.936069 -0.645151 2.814174
v -2.050991 1.489976 2.115708
v -1.458721 3.123545 2.234730
v -1.247360 3.804091 1.191633
v 0.464226 3.751365 4.485565
v 0.567429 5.107456 2.916521
v 0.071091 5.316457 1.327270
v -1.711810 6.182574 1.463860
v -1.517322 4.157723 4.345324
v 0.895444 5.855348 1.575786
v 0.141217 6.371239 0.939279
v -2.190772 6.088496 0.587052
v -0.949889 5.558118 1.237611
v 1.499741 6.297502 0.448642
v -2.105701 3.983489 0.928103
v -3.188723 4.494309 0.074864
v -2.671569 2.455843 -0.414374
v -3.462573 3.155129 -1.020398
v -3.385936 2.499836 -2.286077
v -3.018600 2.390433 -3.655879
v -4.020602 4.431813 -2.588658
v -3.786380 4.561770 -0.980394
v -5.254466 3.510931 -1.797064
v -3.823409 5.161335 -1.293479
v -3.571460 3.854725 -3.858716
v -2.616214 3.407158 -4.900978
v -1.541145 2.354568 -5.028383
v 0.082291 2.060824 -4.961556
v -5.070991 4.161667 -0.000004
v -2.750754 5.911463 0.134874
v -3.597262 5.488847 0.551086
v -2.945674 4.878633 3.298849
v -4.364219 4.527796 1.908917
v -4.166327 3.478062 3.681439
v -1.126496 -3.142737 2.864588
v -2.023144 -2.153881 1.514852
v -1.247361 -3.804092 1.191633
v 0.071086 -5.316452 1.327271
v -0.949891 -5.558118 1.237611
v 0.895442 -5.855348 1.575785
v 1.499740 -6.297502 0.448641
v 0.403285 -4.070561 4.135365
v 0.468414 -3.285321 4.767003
v -2.616215 -3.407159 -4.900978
vn -0.2861 -0.9526 0.1035
vn -0.5457 -0.8325 0.0954
vn -0.4291 -0.9024 0.0394
vn -0.3343 -0.7777 0.5324
vn 0.0662 -0.8144 0.5765
vn 0.0309 -0.8306 0.5560
vn 0.1307 -0.8563 0.4997
vn -0.0170 -0.6586 0.7523
vn -0.3142 -0.9468 0.0701
vn -0.1136 -0.9925 -0.0444
vn 0.7691 -0.0300 -0.6385
vn 0.7165 0.1931 -0.6703
vn 0.9370 0.1205 -0.3278
vn 0.4820 0.2178 -0.8487
vn -0.6583 -0.7377 -0.1500
vn -0.7852 -0.6193 -0.0065
vn -0.8017 -0.5378 -0.2609
vn -0.6869 -0.6156 -0.3862
vn 0.9367 -0.0684 -0.3434
vn 0.9579 -0.2853 -0.0320
vn 0.7574 -0.4938 -0.4272
vn 0.8384 -0.5447 -0.0176
vn 0.4886 -0.1796 -0.8538
vn 0.5509 -0.5505 -0.6272
vn 0.6208 -0.7619 -0.1849
vn 0.5488 -0.8077 0.2155
vn 0.9617 0.0015 0.2740
vn 0.9736 0.2271 -0.0210
vn 0.9942 0.0763 0.0758
vn 0.8867 0.0288 0.4614
vn 0.8094 -0.0356 0.5862
vn 0.9012 -0.0565 0.4297
vn 0.8072 0.0581 0.5874
vn 0.9978 -0.0004 -0.0659
vn 0.9738 -0.2233 -0.0436
vn 0.9942 -0.0763 0.0758
vn 0.1133 -0.7693 0.6288
vn 0.3401 -0.7893 0.5113
vn 0.3904 -0.7191 0.5749
vn 0.7143 -0.6001 0.3602
vn 0.7187 0.2168 0.6606
vn 0.7599 0.0793 0.6452
vn 0.0255 -0.0578 -0.9980
vn 0.0667 -0.1439 -0.9873
vn 0.0186 -0.1058 -0.9942
vn 0.7362 -0.1280 0.6645
vn -0.0049 0.0011 -1.0000
vn 0.0334 0.0875 -0.9956
vn -0.0025 -0.1004 -0.9949
vn -0.6905 0.1324 -0.7111
vn -0.5671 0.4476 -0.6914
vn -0.6387 0.0481 -0.7679
vn -0.6977 -0.2035 -0.6869
vn 0.0107 0.1084 -0.9941
vn -0.0979 -0.0921 -0.9909
vn -0.7326 -0.3986 -0.5517
vn -0.5731 -0.4668 -0.6736
vn -0.8254 -0.0806 -0.5588
vn -0.6104 -0.5379 -0.5815
vn -0.9164 -0.2847 -0.2814
vn -0.9596 0.0041 -0.2814
vn -0.9582 -0.2738 0.0829
vn -0.9202 0.2739 -0.2796
vn -0.7670 0.3246 -0.5534
vn -0.9968 0.0604 0.0520
vn -0.9231 0.0702 0.3780
vn -0.9411 0.2722 0.2003
vn -0.8903 0.4500 0.0695
vn -0.8079 0.4489 0.3819
vn -0.7792 0.2626 0.5691
vn -0.8084 -0.1131 0.5777
vn -0.8391 -0.2547 0.4806
vn -0.8227 -0.4834 0.2991
vn -0.3634 -0.4028 0.8401
vn -0.6520 -0.4972 0.5724
vn -0.6528 -0.6992 0.2915
vn -0.1015 -0.2450 0.9642
vn -0.2032 -0.0078 0.9791
vn -0.2619 -0.0583 0.9633
vn -0.7722 0.1638 0.6139
vn -0.3569 0.4124 0.8382
vn -0.0864 0.2468 0.9652
vn -0.1265 -0.0199 0.9918
vn 0.7429 0.0620 -0.6665
vn 0.7903 0.2505 -0.5592
vn 0.8232 -0.0868 -0.5610
vn 0.7001 0.2982 -0.6488
vn -0.0077 -0.1893 0.9819
vn -0.0338 0.1423 0.9893
vn 0.7243 -0.2098 -0.6568
vn 0.7405 -0.4020 -0.5386
vn 0.9363 -0.2014 -0.2878
vn 0.9209 0.0917 -0.3789
vn 0.8376 -0.4512 -0.3080
vn 0.8098 -0.5498 -0.2048
vn 0.6911 -0.6302 -0.3539
vn 0.6803 -0.5085 -0.5278
vn 0.6570 -0.7120 -0.2480
vn 0.5705 -0.8100 -0.1359
vn 0.0861 0.5606 0.8236
vn 0.0673 0.8131 0.5783
vn -0.0157 0.6552 0.7553
vn 0.0309 0.8306 0.5560
vn 0.1307 0.8563 0.4997
vn 0.1720 0.8550 0.4892
vn -0.2861 0.9526 0.1035
vn -0.1136 0.9925 -0.0444
vn -0.3142 0.9468 0.0701
vn 0.2007 -0.2622 -0.9439
vn 0.4820 -0.2178 -0.8487
vn -0.1476 -0.3762 -0.9147
vn 0.2105 0.8664 0.4528
vn -0.0569 -0.2246 -0.9728
vn -0.3381 -0.3050 -0.8903
vn 0.5532 -0.8325 -0.0300
vn 0.4909 0.1802 -0.8524
vn 0.2375 -0.0148 -0.9713
vn 0.7661 0.0344 -0.6418
vn 0.6503 0.5686 -0.5038
vn 0.5139 0.5596 -0.6502
vn 0.3474 0.4720 -0.8103
vn 0.6297 0.7553 -0.1817
vn 0.8585 0.3847 -0.3392
vn 0.8259 0.5638 -0.0053
vn 0.7176 0.5968 0.3589
vn 0.9645 0.2640 -0.0060
vn 0.5588 0.8057 0.1965
vn 0.9354 0.0336 -0.3521
vn -0.7938 0.5414 -0.2772
vn -0.6945 0.6022 -0.3939
vn -0.6313 0.5223 -0.5733
vn 0.9370 -0.1205 -0.3278
vn -0.6583 0.7377 -0.1500
vn 0.8761 0.3731 0.3054
vn -0.4692 0.5697 -0.6747
vn 0.6663 0.4575 0.5889
vn 0.3866 0.7144 0.5832
vn 0.0192 0.1394 -0.9901
vn 0.0169 0.1088 -0.9939
vn 0.3649 0.7874 0.4968
vn 0.1148 0.7755 0.6209
vn 0.0720 0.1744 -0.9820
vn 0.7148 -0.2324 0.6596
vn -0.7648 0.6442 -0.0082
vn -0.5457 0.8325 0.0954
vn 0.7165 -0.1931 -0.6703
vn -0.4291 0.9024 0.0394
vn -0.3343 0.7777 0.5324
vn -0.6605 0.6921 0.2911
vn -0.6445 0.5157 0.5645
vn 0.7983 0.4567 -0.3926
vn 0.9334 0.2970 -0.2014
vn 0.8125 0.5322 -0.2381
vn 0.2007 0.2622 -0.9439
vn 0.2376 0.0148 -0.9713
vn -0.0569 0.2246 -0.9728
vn 0.6921 0.6396 -0.3346
vn 0.6570 0.7120 -0.2480
vn 0.3474 -0.4720 -0.8103
vn -0.1476 0.3762 -0.9147
vn 0.5705 0.8100 -0.1359
vn 0.5532 0.8325 -0.0300
vn -0.3381 0.3050 -0.8903
vn 0.2105 -0.8664 0.4528
vn 0.1720 -0.8550 0.4892
vn 0.7077 0.5017 -0.4974
vn 0.1093 -0.6942 0.7115
vn 0.0606 -0.4595 0.8861
vn 0.6968 0.4033 -0.5931
vn 0.8761 -0.3731 0.3054
vn 0.6663 -0.4575 0.5889
vn -0.4692 -0.5697 -0.6747
vn 0.0192 -0.1394 -0.9901
vt 0.077064 0.838048
vt 0.080529 0.851637
vt 0.074691 0.849003
vt 0.092124 0.836772
vt 0.075330 0.820296
vt 0.066523 0.830711
vt 0.091752 0.825078
vt 0.074602 0.844207
vt 0.936239 0.265178
vt 0.931395 0.257620
vt 0.942276 0.256436
vt 0.926277 0.945707
vt 0.928236 0.949130
vt 0.924083 0.958076
vt 0.072113 0.860585
vt 0.084343 0.861635
vt 0.076103 0.870188
vt 0.066537 0.867104
vt 0.942307 0.260910
vt 0.952179 0.256489
vt 0.946181 0.273553
vt 0.956341 0.269304
vt 0.932666 0.271925
vt 0.916495 0.955665
vt 0.915448 0.966603
vt 0.909001 0.963906
vt 0.571382 0.976445
vt 0.565206 0.980352
vt 0.565206 0.971806
vt 0.953495 0.278900
vt 0.970239 0.074813
vt 0.971549 0.064582
vt 0.980085 0.071871
vt 0.670956 0.538601
vt 0.657537 0.523591
vt 0.666355 0.528346
vt 0.676116 0.530826
vt 0.682976 0.548393
vt 0.676554 0.547095
vt 0.683054 0.530192
vt 0.652808 0.538630
vt 0.658360 0.554184
vt 0.666914 0.549103
vt 0.998589 0.074813
vt 0.988892 0.071926
vt 0.993418 0.065435
vt 0.980533 0.061870
vt 0.558620 0.980349
vt 0.558620 0.971806
vt 0.565206 0.977112
vt 0.690468 0.534897
vt 0.911402 0.307622
vt 0.905278 0.313476
vt 0.897537 0.305709
vt 0.690555 0.548164
vt 0.903138 0.282457
vt 0.922615 0.300417
vt 0.888800 0.298131
vt 0.903760 0.277064
vt 0.919243 0.277064
vt 0.894329 0.288237
vt 0.883668 0.288947
vt 0.892576 0.278090
vt 0.065198 0.875675
vt 0.058323 0.870181
vt 0.881591 0.300423
vt 0.710351 0.053780
vt 0.712350 0.064893
vt 0.702422 0.055267
vt 0.722812 0.061856
vt 0.720418 0.050102
vt 0.704637 0.037670
vt 0.732183 0.046788
vt 0.739264 0.056770
vt 0.717844 0.034317
vt 0.716135 0.020900
vt 0.724888 0.026032
vt 0.734322 0.028348
vt 0.731458 0.015849
vt 0.722084 0.010987
vt 0.708276 0.010266
vt 0.702624 0.020432
vt 0.696361 0.030569
vt 0.076402 0.761507
vt 0.060938 0.772491
vt 0.069901 0.760546
vt 0.064923 0.779841
vt 0.694649 0.019749
vt 0.099698 0.841546
vt 0.096399 0.854876
vt 0.091058 0.849941
vt 0.695583 0.044957
vt 0.100852 0.832224
vt 0.083253 0.764052
vt 0.066302 0.788042
vt 0.087483 0.755987
vt 0.078019 0.751256
vt 0.076420 0.805693
vt 0.063121 0.794784
vt 0.715734 0.007002
vt 0.083270 0.803113
vt 0.096628 0.780136
vt 0.621215 0.537744
vt 0.629789 0.528789
vt 0.630366 0.543484
vt 0.621787 0.528249
vt 0.098276 0.770347
vt 0.097494 0.793863
vt 0.622013 0.551449
vt 0.630799 0.559360
vt 0.643981 0.548929
vt 0.638911 0.535041
vt 0.643113 0.560227
vt 0.650000 0.564802
vt 0.637691 0.575172
vt 0.627139 0.566296
vt 0.648548 0.575956
vt 0.970239 0.913189
vt 0.978974 0.906446
vt 0.979124 0.912056
vt 0.931395 0.899890
vt 0.934458 0.889332
vt 0.944733 0.899883
vt 0.951712 0.880717
vt 0.940793 0.876332
vt 0.934658 0.880229
vt 0.954864 0.875145
vt 0.954275 0.247774
vt 0.951377 0.239220
vt 0.963162 0.249480
vt 0.932358 0.872432
vt 0.957639 0.253889
vt 0.968885 0.256436
vt 0.987392 0.913189
vt 0.941380 0.249074
vt 0.944316 0.254131
vt 0.939098 0.241360
vt 0.931565 0.410385
vt 0.944418 0.404969
vt 0.936211 0.415368
vt 0.933318 0.256436
vt 0.931395 0.252942
vt 0.932149 0.562126
vt 0.931395 0.557521
vt 0.939757 0.559648
vt 0.946780 0.410494
vt 0.941704 0.571231
vt 0.933348 0.569736
vt 0.956072 0.410363
vt 0.964145 0.413928
vt 0.952974 0.422396
vt 0.950232 0.560511
vt 0.951067 0.572506
vt 0.942849 0.418562
vt 0.743277 0.042183
vt 0.753323 0.044718
vt 0.753595 0.053574
vt 0.943031 0.423023
vt 0.755532 0.035014
vt 0.961709 0.422934
vt 0.755462 0.060425
vt 0.750489 0.062595
vt 0.968237 0.423831
vt 0.958996 0.575658
vt 0.963235 0.567601
vt 0.924942 0.278067
vt 0.923265 0.287906
vt 0.957835 0.560211
vt 0.967176 0.557521
vt 0.927796 0.297893
vt 0.689553 0.553958
vt 0.744009 0.029448
vt 0.754399 0.022554
vt 0.931395 0.423831
vt 0.759826 0.023878
vt 0.958155 0.872432
vt 0.962314 0.875633
vt 0.747123 0.005841
vt 0.761442 0.014286
vt 0.744197 0.016206
vt 0.735120 0.006787
vt 0.734735 0.000000
vt 0.078046 0.816090
vt 0.087506 0.811240
vt 0.955709 0.893577
vt 0.948026 0.237199
vt 0.100668 0.808527
vt 0.637630 0.519331
vt 0.647291 0.524911
vt 0.648651 0.514716
vt 0.917816 0.942715
vt 0.911471 0.952695
vt 0.911708 0.939350
vt 0.978779 0.214830
vt 0.987008 0.221817
vt 0.982898 0.232752
vt 0.972753 0.228566
vt 0.916046 0.933885
vt 0.988283 0.215355
vt 0.997059 0.214355
vt 0.909001 0.928262
vt 0.058323 0.825794
vt 0.066805 0.824193
vt 0.970239 0.214355
vt 0.628106 0.514716
vt 0.082639 0.816090
vt 0.100251 0.756571
vt 0.100668 0.761755
vt 0.624028 0.520002
vt 0.735348 0.064893
vt 0.961359 0.256436
vt 0.968722 0.256877
vt 0.964658 0.266146
vt 0.887713 0.303830
vt 0.486120 0.974303
vt 0.479348 0.981667
vt 0.479348 0.971806
s 1
usemtl pleuraldeles_skin
f 1/1/1 2/2/2 8/3/3
f 6/4/4 2/2/2 1/1/1
f 3/5/5 1/1/6 4/6/7
f 5/7/8 1/1/6 3/5/5
f 1/1/1 7/8/9 4/6/10
f 6/4/4 1/1/6 5/7/8
f 8/3/3 7/8/9 1/1/1
f 9/9/11 8/10/12 10/11/13
f 7/12/14 8/13/12 9/14/11
f 2/2/2 10/15/15 8/3/3
f 11/16/16 10/15/15 2/2/2
f 12/17/17 10/15/15 11/16/16
f 12/17/17 13/18/18 10/15/15
f 14/19/19 9/9/11 10/11/13
f 10/11/13 13/20/20 14/19/19
f 9/9/11 14/19/19 15/21/21
f 15/21/21 14/19/19 13/20/20
f 15/21/21 13/20/20 18/22/22
f 16/23/23 9/9/11 15/21/21
f 16/24/23 15/25/21 17/26/24
f 15/27/21 19/28/25 17/29/24
f 15/21/21 18/22/22 19/30/25
f 19/31/25 18/32/22 20/33/26
f 21/34/27 17/35/28 19/36/29
f 21/34/27 19/36/29 20/37/30
f 21/34/27 22/38/31 26/39/32
f 21/34/27 27/40/33 22/38/31
f 23/41/34 21/34/27 24/42/35
f 23/41/34 17/35/28 21/34/27
f 21/34/27 25/43/36 24/42/35
f 21/34/27 26/39/32 25/43/36
f 21/34/27 20/37/30 27/40/33
f 31/44/37 27/45/38 28/46/39
f 29/47/40 28/46/39 27/45/38
f 20/33/26 29/47/40 27/45/38
f 27/48/33 31/49/41 30/50/42
f 22/38/31 27/40/33 30/51/42
f 30/52/43 31/53/44 28/54/45
f 22/38/31 30/51/42 32/55/46
f 34/56/47 32/57/48 30/52/43
f 33/58/49 30/52/43 28/54/45
f 33/58/49 34/56/47 30/52/43
f 35/59/50 36/60/51 34/56/52
f 37/61/53 35/59/50 34/56/52
f 36/60/54 32/57/48 34/56/47
f 33/58/49 37/61/55 34/56/47
f 39/62/56 37/61/53 33/58/57
f 38/63/58 37/61/53 39/62/56
f 35/59/50 37/61/53 38/63/58
f 12/17/17 39/64/56 13/18/18
f 39/64/56 40/65/59 13/18/18
f 40/66/59 39/62/56 33/58/57
f 41/67/60 39/68/56 12/69/17
f 41/67/60 38/70/58 39/68/56
f 43/71/61 38/70/58 41/67/60
f 42/72/62 41/67/60 12/69/17
f 43/71/61 41/67/60 42/72/62
f 43/71/61 45/73/63 44/74/64
f 43/71/61 44/74/64 38/70/58
f 43/71/61 46/75/65 45/73/63
f 46/75/65 43/71/61 42/72/62
f 49/76/66 47/77/67 46/75/65
f 47/77/67 48/78/68 46/75/65
f 46/75/65 48/78/68 45/73/63
f 49/76/66 46/75/65 42/72/62
f 52/79/69 47/77/67 49/76/66
f 51/80/70 49/76/66 50/81/71
f 50/81/71 49/76/66 53/82/72
f 51/80/70 52/79/69 49/76/66
f 53/82/72 49/76/66 42/72/62
f 56/83/73 53/82/72 42/72/62
f 54/84/74 53/85/72 55/86/75
f 50/87/71 53/85/72 54/84/74
f 55/88/75 53/82/72 56/83/73
f 55/89/75 56/90/73 57/91/76
f 57/91/76 56/90/73 11/16/16
f 56/83/73 42/72/62 11/92/16
f 55/89/75 57/91/76 6/4/4
f 57/91/76 11/16/16 2/2/2
f 57/91/76 2/2/2 6/4/4
f 6/4/4 54/93/74 55/89/75
f 54/84/74 58/94/77 59/95/78
f 54/84/74 5/96/8 58/94/77
f 6/97/4 5/96/8 54/84/74
f 50/87/79 54/84/74 59/95/78
f 59/95/80 60/98/81 51/99/70
f 59/100/80 51/80/70 50/81/71
f 60/98/81 59/95/78 61/101/82
f 61/101/82 59/95/78 62/102/83
f 58/94/77 62/102/83 59/95/78
f 62/103/84 63/104/85 66/105/86
f 65/106/87 63/104/85 62/103/84
f 58/94/77 65/107/88 62/102/83
f 61/101/82 62/102/83 64/108/89
f 62/103/84 66/105/86 64/109/90
f 64/109/90 66/105/86 67/110/91
f 66/105/86 69/111/92 67/110/91
f 66/105/86 63/104/85 68/112/93
f 66/105/86 68/112/93 69/111/92
f 68/112/93 23/41/34 69/111/92
f 67/110/91 69/111/92 70/113/94
f 70/113/94 69/111/92 24/42/35
f 69/111/92 23/41/34 24/42/35
f 70/113/94 71/114/95 73/115/96
f 71/114/95 70/113/94 24/42/35
f 72/116/97 70/113/94 73/115/96
f 67/110/91 70/113/94 72/116/97
f 73/115/96 71/114/95 74/117/98
f 73/118/96 74/119/98 77/120/99
f 72/121/100 73/122/101 76/123/102
f 75/124/103 73/122/101 78/125/104
f 76/123/102 73/122/101 75/124/103
f 77/126/105 78/125/104 73/122/101
f 75/124/106 78/125/107 79/127/108
f 80/128/109 79/129/110 78/130/111
f 78/125/104 77/126/105 81/131/112
f 74/132/113 78/130/111 81/133/114
f 78/130/111 74/132/113 80/128/109
f 81/134/115 77/120/99 74/119/98
f 79/129/110 80/128/109 82/135/116
f 82/135/116 80/128/109 71/136/117
f 80/128/109 74/132/113 71/136/117
f 79/129/110 82/135/116 83/137/118
f 82/138/116 84/139/119 83/140/118
f 82/135/116 24/141/120 84/142/119
f 82/135/116 71/136/121 24/141/120
f 84/143/119 24/144/120 25/145/122
f 84/139/119 85/146/123 83/140/118
f 84/143/119 86/147/124 85/148/123
f 84/143/119 25/145/122 86/147/124
f 86/149/124 87/150/125 88/151/126
f 86/147/124 26/152/127 87/153/125
f 25/145/122 26/152/127 86/147/124
f 85/146/123 86/149/124 88/151/126
f 85/146/123 88/151/126 89/154/128
f 90/155/129 88/156/130 44/74/64
f 44/74/64 88/156/130 92/157/131
f 91/158/132 89/154/128 88/151/126
f 90/155/129 91/159/133 88/156/130
f 92/160/134 88/151/126 87/150/125
f 93/161/135 36/162/51 92/157/131
f 92/160/134 87/150/125 93/163/136
f 92/157/131 36/162/51 44/74/64
f 93/164/136 87/153/125 94/165/137
f 93/166/138 94/167/139 36/60/54
f 22/168/140 95/169/141 94/165/137
f 87/153/125 22/168/140 94/165/137
f 94/167/139 95/170/142 32/57/48
f 32/57/48 36/60/54 94/167/139
f 22/38/31 32/55/46 95/171/143
f 96/172/144 98/173/145 91/159/133
f 90/155/129 96/172/144 91/159/133
f 83/140/118 91/158/132 97/174/146
f 98/173/145 97/175/147 91/159/133
f 91/158/132 83/140/118 89/154/128
f 97/176/147 98/177/145 75/124/106
f 99/178/148 75/179/106 98/173/145
f 100/180/149 99/178/148 98/173/145
f 100/180/149 98/173/145 96/172/144
f 100/180/149 96/172/144 48/78/68
f 52/79/69 100/180/149 48/78/68
f 101/181/150 100/180/149 52/79/69
f 101/181/150 99/178/148 100/180/149
f 60/182/81 101/181/150 51/80/70
f 101/181/150 52/79/69 51/80/70
f 99/178/148 101/181/150 60/182/81
f 99/183/148 60/98/81 76/184/102
f 99/185/148 76/123/102 75/124/103
f 83/137/118 97/186/146 79/129/110
f 97/176/147 75/124/106 79/127/108
f 48/78/68 96/172/144 90/155/129
f 48/78/68 90/155/129 45/73/63
f 45/73/63 90/155/129 44/74/64
f 83/140/118 85/146/123 89/154/128
f 26/152/127 22/168/140 87/153/125
f 76/184/102 61/101/82 72/187/100
f 60/98/81 61/101/82 76/184/102
f 61/101/82 64/108/89 72/187/100
f 64/109/90 67/110/91 72/116/97
f 63/104/85 102/188/151 68/112/93
f 102/188/151 103/189/152 68/112/93
f 68/112/93 103/189/152 23/41/34
f 102/188/151 104/190/153 103/189/152
f 104/190/153 17/35/28 103/189/152
f 103/189/152 17/35/28 23/41/34
f 106/191/154 104/192/155 105/193/156
f 3/194/157 105/195/158 104/196/153
f 102/197/151 3/194/157 104/196/153
f 104/192/155 106/191/154 16/24/23
f 17/26/24 104/192/159 16/24/23
f 7/12/14 16/24/23 106/191/154
f 106/191/154 4/198/160 7/12/14
f 4/198/160 106/191/154 105/193/156
f 3/194/157 107/199/161 105/195/158
f 105/195/158 107/199/161 108/200/162
f 4/198/160 105/193/156 108/201/163
f 4/6/7 108/202/164 107/203/165
f 4/6/7 107/203/165 3/5/5
f 109/204/166 3/194/157 102/197/151
f 63/104/85 109/205/166 102/188/151
f 109/206/167 5/7/8 3/5/5
f 109/207/167 110/208/168 5/96/8
f 110/209/169 109/205/166 63/104/85
f 65/106/87 110/209/169 63/104/85
f 58/94/77 110/208/168 65/107/88
f 5/96/8 110/208/168 58/94/77
f 52/79/69 48/78/68 47/77/67
f 38/70/58 44/74/64 35/210/50
f 44/74/64 36/162/51 35/210/50
f 42/72/62 12/69/17 11/92/16
f 40/211/170 111/212/171 29/213/40
f 33/58/57 111/214/172 40/66/59
f 40/211/170 29/213/40 13/20/20
f 111/215/171 28/216/39 29/217/40
f 111/214/173 33/58/49 28/54/45
f 18/32/22 29/47/40 20/33/26
f 18/22/22 13/20/20 29/213/40
f 7/12/14 9/14/11 16/24/23
