# ('FARMS composite mesh',)
mtllib link_body_05_composite.mtl

o link_body_05
usemtl link_body_05_composite
v -4.00104900 -6.72707300 3.12218700
v -3.80236400 -5.82511800 4.78090000
v -3.80236400 -5.82511800 4.78090000
v -2.63439200 -7.03990800 3.72784600
v -5.51126900 -5.51126600 3.22847700
v -5.85074200 -5.85073900 1.64586400
v -4.62561400 -7.05562500 0.06399500
v -3.72324000 -7.44509500 -0.78102400
v -4.73340600 -6.70499000 1.84349100
v -4.59689700 -6.87974100 -1.64586500
v -0.93968800 -7.83247500 0.21514900
v -0.93968800 -7.83247500 0.21514900
v -0.94486100 -7.63040300 1.81317000
v -0.94486100 -7.63040300 1.81317000
v -3.06422400 -7.61790400 -1.88767700
v -3.20854600 -7.02001500 -3.34789600
v -4.82814800 -6.09830400 -3.38210300
v 0.01153700 -8.11000700 -1.73578300
v 0.01153700 -8.11000700 -1.73578300
v 0.04787200 -7.64630400 -3.20502100
v 0.04787200 -7.64630400 -3.20502100
v -0.91726700 -6.35212600 -4.53792800
v -0.91726700 -6.35212600 -4.53792800
v -0.91726700 -6.35212600 -4.53792800
v -3.81930500 -5.82497900 -4.75547400
v -3.81930500 -5.82497900 -4.75547400
v -1.16040800 -6.90023700 -3.43749700
v -1.44439500 -7.32525200 -1.75242100
v -2.89866700 -6.35320900 -0.88528700
v -2.41798800 -5.86816800 -3.43749700
v -1.60185600 -5.38407400 -5.10692100
v -1.60185600 -5.38407400 -5.10692100
v -3.88506700 -3.93979700 -3.46629000
v -3.88506700 -3.93979700 -3.46629000
v -2.59626800 -4.06339500 -5.23325800
v -2.59626800 -4.06339500 -5.23325800
v -3.21777700 -2.77802500 -5.31861700
v -3.21777700 -2.77802500 -5.31861700
v -3.21777700 -2.77802500 -5.31861700
v -5.41705700 -3.61508800 -5.29841500
v -5.41705700 -3.61508800 -5.29841500
v -5.41705700 -3.61508800 -5.29841500
v -4.41068300 -4.94159600 -5.14289100
v -4.41068300 -4.94159600 -5.14289100
v -4.41068300 -4.94159600 -5.14289100
v -6.16664400 -1.91346700 -5.39379800
v -6.16664400 -1.91346700 -5.39379800
v -6.16664400 -1.91346700 -5.39379800
v -6.16664400 -1.91346700 -5.39379800
v -5.37463400 -4.46356500 -4.79200900
v -5.37463400 -4.46356500 -4.79200900
v -5.37463400 -4.46356500 -4.79200900
v -5.37463400 -4.46356500 -4.79200900
v -5.37463400 -4.46356500 -4.79200900
v -6.72121000 -2.06133900 -4.71345900
v -6.72121000 -2.06133900 -4.71345900
v -6.88912200 -3.70017900 -3.25551900
v -6.88912200 -3.70017900 -3.25551900
v -7.64435900 -3.16639600 -1.64586500
v -7.78071500 -0.78216500 -3.25551800
v -6.51304200 -5.15665000 -1.65962100
v -6.51304200 -5.15665000 -1.65962100
v -6.43476100 -5.51708300 0.03825600
v -6.43476100 -5.51708300 0.03825600
v -8.06358200 -2.60133200 -0.00000100
v -8.28027600 -0.66914200 -1.65962100
v -8.44526600 0.68248200 0.00000100
v -8.11520700 -1.61421400 1.64586400
v -7.33271700 -3.90994700 1.66315700
v -7.33271700 -3.90994700 1.66315700
v -6.91164700 -3.62143200 3.30641200
v -6.91164700 -3.62143200 3.30641200
v -6.91164700 -3.62143200 3.30641200
v -5.42693700 -4.45377300 4.70764300
v -5.42693700 -4.45377300 4.70764300
v -7.75955100 -0.69170100 3.30536100
v -6.66182200 -2.18889500 4.74192200
v -6.66182200 -2.18889500 4.74192200
v -7.01449100 0.00000100 4.68701700
v -5.87550700 -1.76435600 5.81538900
v -5.87550700 -1.76435600 5.81538900
v -5.87550700 -1.76435600 5.81538900
v -5.20818300 -3.47572400 5.60446100
v -4.59306700 -4.62570900 5.29131300
v -4.59306700 -4.62570900 5.29131300
v -1.51038600 -6.01932200 5.35288100
v -2.44900500 -3.06749000 6.02551600
v -2.44900500 -3.06749000 6.02551600
v -2.44900500 -3.06749000 6.02551600
v -1.11222500 -5.08370800 5.76132900
v -1.11222500 -5.08370800 5.76132900
v -1.11222500 -5.08370800 5.76132900
v -2.29545600 -4.80292400 5.03282500
v -2.29545600 -4.80292400 5.03282500
v -2.29545600 -4.80292400 5.03282500
v -0.44895800 -6.24234700 5.13812100
v -0.44895800 -6.24234700 5.13812100
v -1.16040800 -6.90023700 3.43749600
v 0.33021700 -7.11158300 4.40801200
v 0.33021700 -7.11158300 4.40801200
v 0.33021700 -7.11158300 4.40801200
v -0.05026700 -7.48825400 3.47017800
v -0.05026700 -7.48825400 3.47017800
v -1.63077900 -6.82290200 4.65132600
v -1.63077900 -6.82290200 4.65132600
v -3.02535200 -5.31433200 3.34140600
v -3.02535200 -5.31433200 3.34140600
v -4.40216400 -4.08904400 1.69871400
v -4.40216400 -4.08904400 1.69871400
v -4.21694900 -3.17583000 3.43749600
v -2.77943400 -6.22961500 1.75242000
v -4.43023700 -4.39156100 -0.00000100
v -4.43023700 -4.39156100 -0.00000100
v -5.51095200 -1.04156800 -0.00000100
v -4.42252700 -4.03216800 -1.76706700
v -4.42252700 -4.03216800 -1.76706700
v -5.36629400 -0.71248100 -1.76706700
v -4.83440000 -0.83281700 -3.46629000
v -4.98664000 1.84008900 -2.62105500
v -3.60072300 -1.43107300 -5.36254600
v -3.60072300 -1.43107300 -5.36254600
v -3.68516100 -0.00738500 -5.41194900
v -3.68516100 -0.00738500 -5.41194900
v -3.63000800 1.27186800 -5.36935600
v -3.63000800 1.27186800 -5.36935600
v -3.26610100 2.66961500 -5.32217200
v -3.26610100 2.66961500 -5.32217200
v -6.19208000 1.78323400 -5.39708100
v -6.19208000 1.78323400 -5.39708100
v -6.72574900 1.97608200 -4.74875300
v -5.42027200 3.60801400 -5.29896800
v -5.42027200 3.60801400 -5.29896800
v -6.44986600 -0.09649800 -5.41536200
v -6.44986600 -0.09649800 -5.41536200
v -5.41949400 4.46544200 -4.72830900
v -2.62488500 4.01570500 -5.23674400
v -2.62488500 4.01570500 -5.23674400
v -4.51857300 4.83927900 -5.16298500
v -4.51857300 4.83927900 -5.16298500
v -1.60824900 5.37645100 -5.11027200
v -1.60824900 5.37645100 -5.11027200
v -1.60824900 5.37645100 -5.11027200
v -0.91297500 6.36191500 -4.53089100
v -0.91297500 6.36191500 -4.53089100
v -3.77753400 5.87655900 -4.73303600
v -3.77753400 5.87655900 -4.73303600
v -3.77753400 5.87655900 -4.73303600
v -3.90088200 3.91020400 -3.46629100
v -1.72231400 6.58638400 -3.36753900
v -1.72231400 6.58638400 -3.36753900
v -1.98203000 6.99803000 -1.74059500
v -1.98203000 6.99803000 -1.74059500
v -4.27628200 4.30576700 -1.76706800
v 0.38934400 8.00045700 -2.59730800
v 0.38934400 8.00045700 -2.59730800
v -0.17731800 7.34430900 -3.59139300
v -0.17731800 7.34430900 -3.59139300
v -0.17731800 7.34430900 -3.59139300
v -3.34553400 7.00817800 -3.27440400
v -3.34553400 7.00817800 -3.27440400
v -4.59831500 6.87717200 -1.65056500
v -3.14664000 7.64509300 -1.67271800
v -3.14664000 7.64509300 -1.67271800
v -6.03612800 5.01810700 -3.19682400
v -7.48776500 2.25492100 -3.25551900
v -7.90604700 2.55051100 -1.65962000
v -6.37023000 5.34376600 -1.59542600
v -7.54123200 3.86239600 -0.00000000
v -5.96536500 5.96536500 -0.00000100
v -4.57003700 7.09027700 0.09260300
v -4.57003700 7.09027700 0.09260300
v -4.01799300 6.72635400 3.11106000
v -4.01799300 6.72635400 3.11106000
v -2.63470400 7.03880500 3.72990200
v -2.63470400 7.03880500 3.72990200
v -4.70153000 6.71557700 1.89271900
v -4.70153000 6.71557700 1.89271900
v -5.85073800 5.85073900 1.64586400
v -5.94441100 5.02174400 3.33488700
v -7.29034700 3.99832100 1.59542400
v -8.25171600 0.95910500 1.65961700
v -7.49700500 2.32619900 3.19682400
v -5.51274800 4.36467700 4.70729600
v -6.69787900 2.06890400 4.75382700
v -5.85393500 1.85772300 5.80739500
v -5.85393500 1.85772300 5.80739500
v -5.97219800 0.02906800 5.95154200
v -5.97219800 0.02906800 5.95154200
v -1.75991600 4.32326900 5.89580100
v -1.75991600 4.32326900 5.89580100
v -1.75991600 4.32326900 5.89580100
v -5.20805300 3.47537400 5.60483700
v -5.20805300 3.47537400 5.60483700
v -2.93951000 1.55651000 6.09909500
v -2.93951000 1.55651000 6.09909500
v -3.02534100 -0.66528100 6.15467200
v -3.02534100 -0.66528100 6.15467200
v -4.02894500 0.66991600 4.97086400
v -3.16241000 3.47483300 5.04368700
v -1.83102900 5.28121300 4.99047000
v -1.83102900 5.28121300 4.99047000
v -1.83102900 5.28121300 4.99047000
v -2.91274600 5.32136800 3.51936300
v -2.91274600 5.32136800 3.51936300
v -4.47315500 2.55609100 3.46012600
v -5.35055500 0.96261800 1.69871400
v -4.84820100 -0.67060900 3.46012500
v -4.68920100 3.37144500 1.75242000
v -3.33922900 5.66061900 1.83866200
v -3.33922900 5.66061900 1.83866200
v -0.89178400 7.64507900 1.80157400
v -0.89178400 7.64507900 1.80157400
v -0.89178400 7.64507900 1.80157400
v -0.89178400 7.64507900 1.80157400
v -3.62279400 5.59998000 -0.00000000
v -1.16040600 6.90023700 3.43749600
v -1.16040600 6.90023700 3.43749600
v -1.00339800 7.81503500 0.25875400
v -1.00339800 7.81503500 0.25875400
v -1.00339800 7.81503500 0.25875400
v -1.00339800 7.81503500 0.25875400
v 0.01788600 8.10726300 -1.75507600
v 0.01788600 8.10726300 -1.75507600
v -0.05331400 7.47672100 3.52634400
v -0.05331400 7.47672100 3.52634400
v -0.34479900 6.33987000 5.11330000
v -0.34479900 6.33987000 5.11330000
v -0.34479900 6.33987000 5.11330000
v -0.34479900 6.33987000 5.11330000
v -0.34479900 6.33987000 5.11330000
v 0.33285200 7.22013100 4.23002800
v 0.33285200 7.22013100 4.23002800
v 0.33285200 7.22013100 4.23002800
v -1.62890200 6.82411600 4.65033800
v -1.62890200 6.82411600 4.65033800
v -3.80235600 5.82512200 4.78090000
v -3.80235600 5.82512200 4.78090000
v -3.80235600 5.82512200 4.78090000
v -1.53454100 6.02594400 5.34424400
v -4.59306200 4.62570700 5.29131300
v -4.59306200 4.62570700 5.29131300
v -5.22741700 2.46699700 -0.00000100
v -3.67499100 -2.11752000 5.08882500
v -5.19054000 -1.71874600 1.75242000
vn -0.43080101 -0.84481942 0.31731787
vn -0.48190953 -0.71737104 0.50313219
vn -0.24712682 -0.53278502 0.80936299
vn -0.26657429 -0.90111286 0.34195579
vn -0.65335157 -0.65632557 0.37731746
vn -0.69284555 -0.69162157 0.20402122
vn -0.48418639 -0.87364571 0.04802824
vn -0.32256483 -0.94650198 0.00926992
vn -0.50203364 -0.83774674 0.21480836
vn -0.54964634 -0.81283346 -0.19284880
vn -0.17056019 -0.98087900 0.09373161
vn 0.58851085 0.80836395 -0.01423731
vn -0.17485080 -0.97434577 0.14169513
vn 0.58964978 0.78286351 -0.19858966
vn -0.27774484 -0.94486204 -0.17347484
vn -0.28772035 -0.84547832 -0.44987044
vn -0.57747494 -0.71758427 -0.38935268
vn 0.46276698 0.86286653 0.20324389
vn -0.14926827 -0.97798089 -0.14585052
vn -0.13038287 -0.88752532 -0.44192659
vn 0.44342580 0.83164377 0.33427862
vn -0.08577256 -0.74513375 -0.66137642
vn 0.52271686 0.70921341 0.47305753
vn -0.03108822 -0.52272677 -0.85193324
vn -0.39670013 -0.72660929 -0.56095271
vn -0.05182751 -0.44998563 -0.89153062
vn 0.50738365 0.76982820 0.38720327
vn 0.54815787 0.81360098 0.19384633
vn 0.70745226 0.70063919 0.09282252
vn 0.67126123 0.64190411 0.37063118
vn -0.02607549 -0.41129215 -0.91113053
vn 0.62804228 0.60952482 0.48377927
vn 0.88651108 0.27044176 0.37544555
vn 0.74568296 0.54435718 0.38422933
vn 0.01027027 -0.08024227 -0.99672248
vn 0.71673043 0.48756099 0.49857976
vn 0.01410153 -0.04834455 -0.99873117
vn 0.84708249 0.25601948 0.46573091
vn 0.75383910 0.39915989 0.52191761
vn 0.00800638 -0.06818636 -0.99764048
vn -0.49679252 -0.46296360 -0.73407213
vn -0.75532194 -0.36330343 -0.54543504
vn -0.49679252 -0.46296360 -0.73407213
vn -0.02011444 -0.20719667 -0.97809251
vn -0.52013564 -0.61025734 -0.59753234
vn -0.68253382 -0.36183292 -0.63499962
vn 0.00958990 -0.02983992 -0.99950869
vn -0.75532194 -0.36330343 -0.54543504
vn -0.75547521 -0.12539249 -0.64306604
vn -0.63556916 -0.60938471 -0.47402756
vn -0.68253382 -0.36183292 -0.63499962
vn -0.75532194 -0.36330343 -0.54543504
vn -0.49679252 -0.46296360 -0.73407213
vn -0.74428735 -0.39971781 -0.53503458
vn -0.82412704 -0.21323342 -0.52473433
vn -0.68253382 -0.36183292 -0.63499962
vn -0.70923076 -0.58907853 -0.38727021
vn -0.84627593 -0.36922549 -0.38404373
vn -0.90698066 -0.37579691 -0.19016507
vn -0.91578280 -0.08153405 -0.39331167
vn -0.86511981 -0.48741610 -0.11829306
vn -0.68598131 -0.68285112 -0.25128468
vn -0.69849031 -0.71530832 0.02110217
vn -0.87204883 -0.48769037 -0.04109668
vn -0.95152530 -0.30753644 -0.00457622
vn -0.97919192 -0.07163826 -0.18987138
vn -0.99647026 0.08367642 -0.00672912
vn -0.96315917 -0.18584139 0.19438977
vn -0.76971339 -0.58681032 0.25138605
vn -0.91055985 -0.38682475 0.14576477
vn -0.74747506 -0.56808319 0.34432909
vn -0.89782111 -0.27734939 0.34204470
vn -0.73699122 -0.40996473 0.53737590
vn -0.66213396 -0.43516606 0.61008943
vn -0.62281770 -0.60459259 0.49655405
vn -0.91818265 -0.08036170 0.38792089
vn -0.84122085 -0.17415214 0.51187745
vn -0.70977079 -0.38078380 0.59264587
vn -0.83857638 0.01615157 0.54454456
vn -0.77544784 -0.10209422 0.62310305
vn -0.09903939 -0.10555648 0.98946906
vn -0.68619583 -0.34640852 0.63963773
vn -0.42698873 -0.33146352 0.84131597
vn -0.53672625 -0.60438461 0.58876496
vn -0.30072951 -0.41888332 0.85679550
vn -0.09035709 -0.51333667 0.85341728
vn 0.72092545 0.32895520 -0.60996309
vn -0.11098685 -0.16359746 0.98026414
vn 0.54292307 0.45265001 -0.70734893
vn 0.54292307 0.45265001 -0.70734893
vn 0.51392694 0.61556234 -0.59746306
vn -0.08489889 -0.33756751 0.93746485
vn 0.54292307 0.45265001 -0.70734893
vn 0.55938198 0.65637658 -0.50622286
vn 0.75522967 0.41731522 -0.50544649
vn 0.04177506 -0.58271089 0.81160512
vn 0.50134132 0.69992935 -0.50868044
vn 0.53771953 0.75416554 -0.37695097
vn -0.08457846 -0.91228654 0.40072404
vn 0.00765100 -0.64681074 0.76261217
vn 0.41984672 0.77235342 -0.47665388
vn 0.43516873 0.79844774 -0.41606416
vn -0.12028608 -0.94643344 0.29965816
vn -0.10909445 -0.64441598 0.75685299
vn -0.18165404 -0.88819685 0.42202864
vn 0.66567810 0.66848944 -0.33165425
vn 0.78494648 0.45621674 -0.41919602
vn 0.91186130 0.35936211 -0.19841332
vn 0.78945283 0.59465302 -0.15215786
vn 0.85117848 0.35185197 -0.38948091
vn 0.68202940 0.70733440 -0.18577930
vn 0.79809331 0.60249417 -0.00691629
vn 0.95169952 0.30702033 -0.00255674
vn 0.99234454 0.12346557 0.00292796
vn 0.93984845 0.28715766 0.18500101
vn 0.77745692 0.59156699 0.21356319
vn 0.97880051 0.08460984 0.18652277
vn 0.91228679 0.10308429 0.39636654
vn 0.93506824 -0.19448177 0.29635151
vn 0.84989953 0.18223722 0.49442935
vn 0.01793392 -0.03064866 -0.99936932
vn 0.01135649 -0.00042970 -0.99993542
vn 0.86214496 -0.00616988 0.50662413
vn 0.86853958 -0.14949832 0.47253492
vn 0.01700290 0.03100520 -0.99937459
vn 0.01409395 0.04674308 -0.99880751
vn 0.81988885 -0.29944546 0.48796998
vn 0.00899362 0.02840965 -0.99955590
vn -0.72234651 0.21292893 -0.65793373
vn -0.79723852 0.23398548 -0.55647240
vn 0.00890169 0.06508524 -0.99784000
vn -0.67642685 0.39841331 -0.61944617
vn 0.00127255 -0.00118086 -0.99999849
vn -0.82998808 -0.00254528 -0.55777532
vn -0.64460005 0.51814099 -0.56215717
vn 0.01097355 0.07692240 -0.99697669
vn 0.71967342 -0.49257195 0.48932917
vn -0.53630954 0.58449186 -0.60888533
vn -0.01762542 0.19178553 -0.98127858
vn -0.02512862 0.40834192 -0.91248311
vn 0.53754153 -0.67577631 0.50435651
vn 0.68742598 -0.56937990 0.45083485
vn -0.06080948 0.66785009 -0.74180757
vn 0.49993735 -0.71677318 0.48610580
vn -0.55656513 0.69908108 -0.44891079
vn -0.14310964 0.80205252 -0.57985462
vn -0.05699219 0.47453890 -0.87838757
vn 0.80365260 -0.44426426 0.39594414
vn 0.71610240 -0.60454696 0.34888441
vn 0.47291867 -0.79320340 0.38363563
vn 0.70761909 -0.69082053 0.14846623
vn 0.47048635 -0.85365412 0.22342167
vn 0.85081224 -0.49146851 0.18594956
vn 0.45957329 -0.83641459 0.29866876
vn -0.15318507 0.92879670 -0.33744781
vn 0.45319999 -0.82191265 0.34506429
vn -0.07260803 0.71719167 -0.69308310
vn -0.14092960 0.85058168 -0.50660602
vn -0.52590177 0.77231158 -0.35631749
vn -0.15840278 0.85777563 -0.48900872
vn -0.55977060 0.80199101 -0.20848813
vn -0.45965214 0.86286029 -0.21021901
vn -0.18599197 0.97945268 -0.07797071
vn -0.71364911 0.58929422 -0.37873114
vn -0.88439158 0.26544773 -0.38391279
vn -0.93428771 0.29988937 -0.19280261
vn -0.75771749 0.62558944 -0.18574730
vn -0.89438188 0.44728371 -0.00428221
vn -0.70522223 0.70894639 -0.00752556
vn -0.60060548 0.79927031 -0.02097692
vn -0.23673770 0.96167913 0.13830586
vn -0.52644001 0.73963668 0.41928332
vn -0.29196870 0.94174581 0.16694044
vn -0.39082340 0.78798247 0.47575277
vn -0.23670843 0.92084410 0.30986329
vn -0.31903279 0.93223639 0.17074366
vn -0.61602570 0.74861319 0.24513391
vn -0.69507642 0.69206557 0.19471521
vn -0.70430647 0.59224044 0.39141238
vn -0.86297308 0.46599828 0.19525130
vn -0.97263841 0.12345859 0.19680573
vn -0.88474859 0.27626770 0.37536127
vn -0.66117786 0.50731374 0.55269938
vn -0.79669606 0.24792460 0.55118852
vn -0.09800533 0.11068087 0.98901198
vn -0.74050027 0.22704985 0.63254068
vn -0.77171005 0.00621723 0.63594414
vn -0.08294471 0.00116448 0.99655347
vn 0.64521164 -0.43752283 -0.62631917
vn 0.47226233 -0.58667269 -0.65786279
vn -0.10560743 0.26627595 0.95809404
vn -0.67494329 0.39668223 0.62216940
vn -0.13745669 0.22023729 0.96571279
vn -0.08050169 0.08070208 0.99348208
vn 0.74419071 -0.18976021 -0.64044614
vn 0.76069038 0.07616906 -0.64463045
vn -0.07819308 -0.03452956 0.99634008
vn 0.83256194 -0.07633654 -0.54864684
vn 0.73374423 -0.37580394 -0.56603074
vn 0.66860205 -0.50876646 -0.54233568
vn 0.54862377 -0.72111444 -0.42309092
vn 0.47226233 -0.58667269 -0.65786279
vn 0.54862377 -0.72111444 -0.42309092
vn 0.72395753 -0.57155511 -0.38627743
vn 0.87754733 -0.28673240 -0.38431135
vn 0.97721765 -0.10137240 -0.18646527
vn 0.92067593 0.07038159 -0.38393002
vn 0.89654424 -0.39825632 -0.19390805
vn 0.62327342 -0.77111667 -0.13003587
vn 0.75679275 -0.61978455 -0.20768206
vn 0.62327342 -0.77111667 -0.13003587
vn 0.60856242 -0.75510105 -0.24387331
vn -0.18029302 0.97351456 0.14058387
vn 0.45902345 -0.83457146 -0.30461115
vn 0.78127675 -0.62413487 0.00789280
vn 0.44187175 -0.80648844 -0.39284317
vn 0.59896077 -0.70924285 -0.37178029
vn 0.62327342 -0.77111667 -0.13003587
vn 0.48226297 -0.86795800 0.11862264
vn 0.64715590 -0.76175823 -0.03022640
vn -0.17060827 0.97993083 0.10309411
vn 0.47214745 -0.84813134 0.24031234
vn -0.14631813 0.98434522 -0.09826238
vn 0.44326471 -0.78438395 -0.43388733
vn -0.12659615 0.94561179 0.29965272
vn 0.54862377 -0.72111444 -0.42309092
vn 0.47226233 -0.58667269 -0.65786279
vn 0.56829265 -0.65645459 -0.49609558
vn 0.41381906 -0.78357750 -0.46342215
vn 0.02281360 0.61129537 0.79107364
vn 0.41972037 -0.77044591 -0.47984155
vn 0.00982524 0.70449979 0.70963618
vn -0.10136383 0.91545838 0.38943720
vn -0.10857232 0.65728402 0.74578132
vn -0.18883138 0.88672958 0.42196369
vn -0.32542400 0.77820434 0.53711938
vn -0.51955772 0.70132265 0.48806385
vn -0.24810818 0.53344275 0.80862919
vn -0.07082147 0.47913798 0.87487777
vn -0.19027191 0.38141307 0.90461079
vn -0.55079113 0.56393713 0.61530809
vn 0.96266303 -0.27045640 0.01154251
vn 0.79015817 0.23700857 -0.56522297
vn 0.96039411 0.20790304 -0.18552489
vt 0.15271700 0.69569200
vt 0.15203000 0.68444600
vt 0.14313600 0.26294600
vt 0.14369700 0.69141600
vt 0.16310700 0.69508700
vt 0.16490500 0.70574200
vt 0.15607600 0.71620600
vt 0.14978700 0.72168400
vt 0.15729300 0.70434700
vt 0.15554900 0.72751100
vt 0.13143400 0.71449800
vt 0.49214600 0.64264600
vt 0.13188700 0.70385000
vt 0.49172300 0.63207700
vt 0.14511500 0.72891100
vt 0.14591200 0.73851200
vt 0.15691300 0.73892700
vt 0.49864400 0.65565300
vt 0.12460200 0.72728200
vt 0.12416100 0.73692800
vt 0.49778100 0.66551200
vt 0.13063000 0.74573200
vt 0.48880100 0.67452600
vt 0.28208400 0.34195700
vt 0.14998600 0.74774800
vt 0.28454900 0.32249700
vt 0.48854500 0.66707400
vt 0.48778000 0.65576100
vt 0.47654100 0.65004000
vt 0.47837000 0.66714700
vt 0.28832000 0.33702600
vt 0.48233400 0.67843000
vt 0.23074800 0.43079500
vt 0.46488300 0.66757700
vt 0.29673400 0.32994100
vt 0.47315800 0.67943400
vt 0.30504400 0.32534500
vt 0.21862500 0.42284300
vt 0.46639600 0.68020100
vt 0.29868800 0.31105900
vt 0.29868800 0.31105900
vt 0.22535100 0.97757200
vt 0.29023700 0.31822700
vt 0.29023700 0.31822700
vt 0.15407300 0.75027400
vt 0.98766800 0.83968800
vt 0.30971400 0.30546100
vt 0.22719100 0.98581400
vt 0.21614200 0.41766600
vt 0.16068400 0.74807100
vt 0.97023900 0.83599000
vt 0.22719100 0.97180600
vt 0.29301800 0.31168200
vt 0.21176500 0.43097300
vt 0.21143800 0.41978900
vt 0.98852500 0.83599000
vt 0.17129700 0.73806900
vt 0.20132700 0.42975000
vt 0.19056300 0.42792900
vt 0.20177200 0.41425900
vt 0.19049800 0.43713700
vt 0.16874900 0.72769300
vt 0.16851100 0.71648000
vt 0.17916900 0.43857400
vt 0.17966000 0.42502900
vt 0.19107000 0.41434400
vt 0.18033400 0.40597700
vt 0.16896000 0.41859600
vt 0.17529300 0.70557000
vt 0.16851900 0.43056700
vt 0.17295200 0.69450300
vt 0.15780300 0.42716800
vt 0.12251300 0.27766300
vt 0.13234000 0.27206000
vt 0.16318200 0.68502800
vt 0.15827000 0.41149200
vt 0.14869000 0.41730000
vt 0.12413000 0.28710600
vt 0.14947600 0.40487400
vt 0.14188900 0.41230800
vt 0.12932500 0.28987200
vt 0.12932500 0.28987200
vt 0.13376700 0.27851200
vt 0.15773200 0.68099400
vt 0.13786500 0.27088800
vt 0.15835000 0.26162900
vt 0.29417400 0.42222300
vt 0.15208900 0.28120600
vt 0.03886000 0.98784400
vt 0.03886000 0.97180600
vt 0.48514200 0.60638000
vt 0.16098300 0.26782500
vt 0.04437100 0.97780000
vt 0.47708200 0.61114000
vt 0.28813300 0.43366400
vt 0.16540900 0.26016000
vt 0.49185500 0.61034900
vt 0.48880600 0.62142000
vt 0.12416100 0.68621900
vt 0.17060900 0.25442400
vt 0.49864400 0.61510400
vt 0.49706800 0.62120700
vt 0.12636600 0.69261200
vt 0.15757100 0.25632600
vt 0.13730900 0.68500500
vt 0.47359100 0.62217900
vt 0.27662700 0.43796400
vt 0.26461700 0.43141300
vt 0.46217600 0.63318700
vt 0.27600200 0.42495500
vt 0.47711200 0.63256500
vt 0.46261100 0.64440000
vt 0.25344300 0.43370300
vt 0.25195200 0.41263600
vt 0.24167600 0.43161600
vt 0.46179000 0.65621100
vt 0.24027600 0.41062400
vt 0.22939800 0.41120800
vt 0.23423400 0.39362000
vt 0.21776700 0.41433300
vt 0.31384500 0.32231200
vt 0.32326500 0.32123200
vt 0.21703700 0.40504800
vt 0.21703700 0.39657300
vt 0.33176700 0.32113700
vt 0.34116700 0.32304700
vt 0.21722800 0.38703700
vt 0.33422900 0.30395100
vt 0.21703700 0.39516600
vt 0.21263200 0.39516500
vt 0.34660500 0.30841500
vt 0.21703700 0.38198500
vt 0.32166700 0.30292100
vt 0.21663800 0.40731900
vt 0.21345500 0.37656100
vt 0.35032000 0.32681800
vt 0.21785500 0.37758400
vt 0.21668100 0.37207500
vt 0.35508600 0.31396000
vt 0.35970400 0.33307700
vt 0.96686700 0.61304300
vt 0.21898100 0.36768800
vt 0.36643000 0.33737100
vt 0.96338600 0.61787100
vt 0.21428300 0.36367200
vt 0.68184300 0.81441800
vt 0.36218900 0.31852800
vt 0.22880200 0.37914900
vt 0.23013500 0.35954800
vt 0.95498700 0.61347300
vt 0.24063100 0.35681200
vt 0.94394900 0.61304300
vt 0.23970900 0.37661200
vt 0.95133000 0.62768600
vt 0.70277000 0.80040300
vt 0.95756800 0.62327200
vt 0.37310900 0.34195700
vt 0.70088300 0.80687200
vt 0.20499600 0.35515900
vt 0.68173700 0.80501900
vt 0.19384000 0.35868700
vt 0.19457700 0.35022600
vt 0.68124200 0.79455300
vt 0.20325300 0.37428800
vt 0.20257700 0.39495600
vt 0.19194200 0.39371500
vt 0.19261200 0.37264300
vt 0.18134500 0.38421100
vt 0.18228800 0.36726900
vt 0.18233300 0.35673800
vt 0.67320900 0.78283000
vt 0.16237400 0.35652900
vt 0.67686300 0.76262700
vt 0.15873100 0.35081600
vt 0.68470100 0.75845800
vt 0.67285500 0.77078700
vt 0.17026300 0.35877500
vt 0.17137300 0.36712900
vt 0.15994300 0.37187700
vt 0.17086300 0.38220200
vt 0.16944400 0.40323800
vt 0.15978200 0.39242100
vt 0.15080200 0.37431300
vt 0.14961400 0.39139800
vt 0.12946300 0.31394000
vt 0.14281100 0.39014300
vt 0.14138600 0.40156700
vt 0.12867500 0.30178100
vt 0.29191700 0.37298100
vt 0.97023900 0.96930600
vt 0.15666000 0.33032400
vt 0.14472100 0.37865300
vt 0.13375700 0.32470000
vt 0.14882100 0.31192700
vt 0.29321900 0.39222500
vt 0.29408100 0.40691500
vt 0.14825200 0.29716100
vt 0.28530800 0.39922900
vt 0.28563000 0.37997300
vt 0.28565100 0.36688800
vt 0.97885700 0.73026800
vt 0.97525400 0.96518600
vt 0.99020100 0.73457200
vt 0.27525000 0.36784100
vt 0.27458100 0.38746200
vt 0.26278800 0.39902700
vt 0.27514600 0.40903600
vt 0.26295600 0.38256700
vt 0.05977100 0.98750700
vt 0.26379100 0.36626500
vt 0.05977100 0.97180600
vt 0.26456200 0.35099400
vt 0.69465200 0.77124200
vt 0.99141800 0.68179400
vt 0.25147500 0.36721800
vt 0.98258200 0.67555800
vt 0.27539700 0.35587600
vt 0.04957200 0.97273100
vt 0.93139500 0.62098400
vt 0.25425000 0.35022600
vt 0.69388800 0.78154500
vt 0.94544400 0.62592800
vt 0.70003800 0.79488500
vt 0.97868800 0.68164700
vt 0.69992500 0.75965200
vt 0.97023900 0.73457200
vt 0.98665600 0.96930600
vt 0.28711600 0.35855400
vt 0.97023900 0.67555800
vt 0.16608200 0.34376700
vt 0.97337600 0.68191300
vt 0.17060900 0.34966300
vt 0.70277000 0.75486400
vt 0.15756200 0.34700700
vt 0.69128700 0.75217500
vt 0.67987800 0.75125600
vt 0.15114100 0.36091900
vt 0.14311700 0.34035900
vt 0.15817100 0.34166700
vt 0.13785100 0.33236100
vt 0.14724800 0.37013200
vt 0.25126100 0.38928900
vt 0.28699300 0.41723300
vt 0.26390300 0.41651900
f 1/1/1 2/2/2 5/5/5
f 2/2/2 1/1/1 4/4/4
f 1/1/1 8/8/8 4/4/4
f 6/6/6 1/1/1 5/5/5
f 9/9/9 1/1/1 6/6/6
f 8/8/8 1/1/1 7/7/7
f 7/7/7 1/1/1 9/9/9
f 7/7/7 9/9/9 6/6/6
f 10/10/10 8/8/8 7/7/7
f 15/15/15 8/8/8 10/10/10
f 13/13/13 4/4/4 8/8/8
f 11/11/11 8/8/8 15/15/15
f 11/11/11 13/13/13 8/8/8
f 15/15/15 17/17/17 16/16/16
f 15/15/15 16/16/16 20/20/20
f 15/15/15 10/10/10 17/17/17
f 15/15/15 20/20/20 19/19/19
f 15/15/15 19/19/19 11/11/11
f 23/23/23 27/27/27 21/21/21
f 25/25/25 22/22/22 20/20/20
f 20/20/20 16/16/16 25/25/25
f 27/27/27 28/28/28 21/21/21
f 18/18/18 21/21/21 28/28/28
f 28/28/28 29/29/29 12/12/12
f 12/12/12 18/18/18 28/28/28
f 28/28/28 27/27/27 30/30/30
f 28/28/28 30/30/30 29/29/29
f 29/29/29 30/30/30 34/34/34
f 30/30/30 32/32/32 36/36/36
f 23/23/23 32/32/32 30/30/30
f 30/30/30 36/36/36 34/34/34
f 30/30/30 27/27/27 23/23/23
f 39/39/39 34/34/34 36/36/36
f 40/40/40 37/37/37 35/35/35
f 40/40/40 35/35/35 31/31/31
f 31/31/31 44/44/44 40/40/40
f 53/53/53 41/41/41 43/43/43
f 47/47/47 37/37/37 40/40/40
f 48/48/48 42/42/42 52/52/52
f 46/46/46 51/51/51 56/56/56
f 58/58/58 55/55/55 54/54/54
f 17/17/17 57/57/57 50/50/50
f 50/50/50 25/25/25 17/17/17
f 25/25/25 50/50/50 45/45/45
f 57/57/57 17/17/17 62/62/62
f 61/61/61 59/59/59 58/58/58
f 59/59/59 60/60/60 58/58/58
f 58/58/58 60/60/60 55/55/55
f 17/17/17 10/10/10 62/62/62
f 61/61/61 64/64/64 65/65/65
f 10/10/10 63/63/63 62/62/62
f 61/61/61 65/65/65 59/59/59
f 66/66/66 65/65/65 67/67/67
f 59/59/59 65/65/65 66/66/66
f 68/68/68 67/67/67 65/65/65
f 70/70/70 68/68/68 65/65/65
f 70/70/70 65/65/65 64/64/64
f 72/72/72 68/68/68 70/70/70
f 6/6/6 69/69/69 63/63/63
f 5/5/5 69/69/69 6/6/6
f 5/5/5 71/71/71 69/69/69
f 73/73/73 74/74/74 78/78/78
f 75/75/75 71/71/71 5/5/5
f 72/72/72 76/76/76 68/68/68
f 72/72/72 77/77/77 76/76/76
f 76/76/76 77/77/77 79/79/79
f 80/80/80 79/79/79 77/77/77
f 83/83/83 82/82/82 78/78/78
f 83/83/83 78/78/78 74/74/74
f 85/85/85 83/83/83 74/74/74
f 83/83/83 85/85/85 86/86/86
f 81/81/81 83/83/83 88/88/88
f 83/83/83 86/86/86 92/92/92
f 88/88/88 83/83/83 92/92/92
f 86/86/86 96/96/96 92/92/92
f 93/93/93 89/89/89 90/90/90
f 97/97/97 94/94/94 91/91/91
f 86/86/86 100/100/100 96/96/96
f 94/94/94 97/97/97 98/98/98
f 98/98/98 97/97/97 101/101/101
f 99/99/99 105/105/105 103/103/103
f 101/101/101 102/102/102 98/98/98
f 86/86/86 104/104/104 100/100/100
f 86/86/86 3/3/3 104/104/104
f 105/105/105 2/2/2 4/4/4
f 103/103/103 105/105/105 4/4/4
f 102/102/102 14/14/14 98/98/98
f 13/13/13 103/103/103 4/4/4
f 106/106/106 98/98/98 14/14/14
f 94/94/94 98/98/98 106/106/106
f 110/110/110 95/95/95 107/107/107
f 108/108/108 110/110/110 107/107/107
f 111/111/111 109/109/109 106/106/106
f 106/106/106 14/14/14 111/111/111
f 112/112/112 111/111/111 29/29/29
f 14/14/14 29/29/29 111/111/111
f 112/112/112 109/109/109 111/111/111
f 115/115/115 114/114/114 113/113/113
f 114/114/114 108/108/108 113/113/113
f 29/29/29 116/116/116 112/112/112
f 29/29/29 34/34/34 116/116/116
f 118/118/118 117/117/117 115/115/115
f 115/115/115 117/117/117 114/114/114
f 118/118/118 115/115/115 33/33/33
f 119/119/119 117/117/117 118/118/118
f 124/124/124 119/119/119 118/118/118
f 120/120/120 118/118/118 33/33/33
f 123/123/123 118/118/118 120/120/120
f 124/124/124 118/118/118 123/123/123
f 127/127/127 119/119/119 124/124/124
f 128/128/128 126/126/126 125/125/125
f 128/128/128 125/125/125 122/122/122
f 129/129/129 134/134/134 130/130/130
f 132/132/132 129/129/129 130/130/130
f 131/131/131 126/126/126 128/128/128
f 128/128/128 122/122/122 133/133/133
f 60/60/60 130/130/130 134/134/134
f 134/134/134 49/49/49 55/55/55
f 60/60/60 134/134/134 55/55/55
f 133/133/133 122/122/122 47/47/47
f 135/135/135 132/132/132 130/130/130
f 138/138/138 132/132/132 135/135/135
f 131/131/131 136/136/136 126/126/126
f 131/131/131 140/140/140 136/136/136
f 139/139/139 140/140/140 131/131/131
f 148/148/148 137/137/137 142/142/142
f 147/147/147 140/140/140 139/139/139
f 144/144/144 150/150/150 141/141/141
f 147/147/147 143/143/143 140/140/140
f 148/148/148 142/142/142 149/149/149
f 152/152/152 150/150/150 154/154/154
f 153/153/153 149/149/149 151/151/151
f 153/153/153 148/148/148 149/149/149
f 144/144/144 156/156/156 150/150/150
f 150/150/150 156/156/156 154/154/154
f 155/155/155 158/158/158 160/160/160
f 147/147/147 157/157/157 143/143/143
f 158/158/158 146/146/146 160/160/160
f 161/161/161 159/159/159 164/164/164
f 159/159/159 161/161/161 162/162/162
f 163/163/163 155/155/155 160/160/160
f 145/145/145 164/164/164 159/159/159
f 165/165/165 164/164/164 135/135/135
f 166/166/166 164/164/164 165/165/165
f 145/145/145 135/135/135 164/164/164
f 166/166/166 167/167/167 164/164/164
f 161/161/161 164/164/164 167/167/167
f 167/167/167 168/168/168 169/169/169
f 166/166/166 168/168/168 167/167/167
f 170/170/170 161/161/161 167/167/167
f 170/170/170 167/167/167 169/169/169
f 170/170/170 169/169/169 178/178/178
f 161/161/161 170/170/170 162/162/162
f 171/171/171 175/175/175 163/163/163
f 173/173/173 171/171/171 176/176/176
f 173/173/173 175/175/175 171/171/171
f 170/170/170 178/178/178 177/177/177
f 169/169/169 180/180/180 178/178/178
f 178/178/178 180/180/180 179/179/179
f 172/172/172 178/178/178 179/179/179
f 172/172/172 177/177/177 178/178/178
f 181/181/181 180/180/180 168/168/168
f 181/181/181 182/182/182 180/180/180
f 182/182/182 179/179/179 180/180/180
f 169/169/169 168/168/168 180/180/180
f 181/181/181 76/76/76 182/182/182
f 76/76/76 184/184/184 182/182/182
f 183/183/183 179/179/179 182/182/182
f 183/183/183 182/182/182 184/184/184
f 184/184/184 186/186/186 183/183/183
f 79/79/79 186/186/186 184/184/184
f 76/76/76 79/79/79 184/184/184
f 185/185/185 188/188/188 194/194/194
f 79/79/79 187/187/187 186/186/186
f 194/194/194 191/191/191 185/185/185
f 193/193/193 185/185/185 191/191/191
f 192/192/192 183/183/183 186/186/186
f 195/195/195 199/199/199 189/189/189
f 195/195/195 196/196/196 198/198/198
f 194/194/194 188/188/188 197/197/197
f 198/198/198 199/199/199 195/195/195
f 199/199/199 200/200/200 189/189/189
f 204/204/204 200/200/200 199/199/199
f 205/205/205 204/204/204 199/199/199
f 205/205/205 199/199/199 198/198/198
f 206/206/206 205/205/205 207/207/207
f 208/208/208 205/205/205 206/206/206
f 207/207/207 205/205/205 198/198/198
f 210/210/210 204/204/204 205/205/205
f 210/210/210 205/205/205 208/208/208
f 215/215/215 210/210/210 208/208/208
f 210/210/210 212/212/212 217/217/217
f 209/209/209 218/218/218 211/211/211
f 210/210/210 217/217/217 204/204/204
f 210/210/210 215/215/215 220/220/220
f 163/163/163 213/213/213 221/221/221
f 219/219/219 152/152/152 222/222/222
f 163/163/163 221/221/221 223/223/223
f 151/151/151 220/220/220 215/215/215
f 155/155/155 163/163/163 223/223/223
f 222/222/222 152/152/152 154/154/154
f 214/214/214 224/224/224 216/216/216
f 216/216/216 224/224/224 231/231/231
f 204/204/204 217/217/217 228/228/228
f 216/216/216 231/231/231 229/229/229
f 225/225/225 235/235/235 233/233/233
f 230/230/230 232/232/232 234/234/234
f 225/225/225 175/175/175 235/235/235
f 236/236/236 235/235/235 175/175/175
f 234/234/234 239/239/239 230/230/230
f 238/238/238 239/239/239 234/234/234
f 238/238/238 240/240/240 239/239/239
f 240/240/240 193/193/193 239/239/239
f 191/191/191 239/239/239 193/193/193
f 230/230/230 239/239/239 191/191/191
f 237/237/237 183/183/183 241/241/241
f 241/241/241 183/183/183 192/192/192
f 179/179/179 183/183/183 237/237/237
f 237/237/237 172/172/172 179/179/179
f 237/237/237 174/174/174 172/172/172
f 227/227/227 190/190/190 202/202/202
f 203/203/203 226/226/226 201/201/201
f 175/175/175 225/225/225 213/213/213
f 153/153/153 215/215/215 242/242/242
f 215/215/215 208/208/208 242/242/242
f 153/153/153 151/151/151 215/215/215
f 242/242/242 208/208/208 206/206/206
f 119/119/119 153/153/153 242/242/242
f 117/117/117 119/119/119 242/242/242
f 117/117/117 242/242/242 114/114/114
f 242/242/242 206/206/206 114/114/114
f 163/163/163 175/175/175 213/213/213
f 110/110/110 207/207/207 243/243/243
f 207/207/207 198/198/198 243/243/243
f 244/244/244 206/206/206 207/207/207
f 244/244/244 207/207/207 110/110/110
f 114/114/114 244/244/244 108/108/108
f 244/244/244 110/110/110 108/108/108
f 114/114/114 206/206/206 244/244/244
f 243/243/243 198/198/198 196/196/196
f 110/110/110 243/243/243 95/95/95
f 95/95/95 243/243/243 87/87/87
f 243/243/243 196/196/196 87/87/87
f 81/81/81 88/88/88 197/197/197
f 81/81/81 197/197/197 188/188/188
f 80/80/80 187/187/187 79/79/79
f 68/68/68 181/181/181 67/67/67
f 181/181/181 168/168/168 67/67/67
f 68/68/68 76/76/76 181/181/181
f 166/166/166 67/67/67 168/168/168
f 66/66/66 166/166/166 165/165/165
f 66/66/66 67/67/67 166/166/166
f 60/60/60 165/165/165 130/130/130
f 165/165/165 135/135/135 130/130/130
f 66/66/66 165/165/165 60/60/60
f 148/148/148 153/153/153 119/119/119
f 127/127/127 148/148/148 119/119/119
f 137/137/137 148/148/148 127/127/127
f 145/145/145 138/138/138 135/135/135
f 47/47/47 122/122/122 121/121/121
f 47/47/47 121/121/121 37/37/37
f 120/120/120 33/33/33 38/38/38
f 85/85/85 3/3/3 86/86/86
f 2/2/2 84/84/84 75/75/75
f 2/2/2 75/75/75 5/5/5
f 59/59/59 66/66/66 60/60/60
f 10/10/10 7/7/7 63/63/63
f 7/7/7 6/6/6 63/63/63
f 44/44/44 31/31/31 26/26/26
f 31/31/31 24/24/24 26/26/26
f 14/14/14 12/12/12 29/29/29
f 25/25/25 16/16/16 17/17/17

