# Blender 4.1.1
# www.blender.org
mtllib link_body_37.mtl
o link_body_37
v 1.139252 0.524595 -0.627287
v -3.252327 0.590732 0.674785
v -3.322029 0.576996 -0.000000
v 1.192482 0.525110 -0.051151
v 1.189186 0.491661 -1.148850
v -3.258285 0.561382 -0.660478
v -2.479759 0.448725 -2.225028
v 1.140762 0.000001 -0.051151
v 1.086700 0.000000 -0.600000
v 1.140762 0.000001 -1.148850
v 1.300850 0.000001 -1.676607
v 1.189186 -0.491661 -1.148850
v 1.138832 -0.523956 -0.616220
v 1.345543 -0.453739 -1.676607
v 1.345543 0.453739 -1.676607
v 1.590401 0.415830 -2.143408
v -2.147316 0.388016 -2.557301
v 1.939873 0.296207 -2.589310
v -2.347656 0.421497 -2.389261
v 1.560829 0.000000 -2.162991
v 1.910698 0.000000 -2.589310
v 1.600593 -0.415552 -2.161033
v -2.479782 -0.448723 -2.225004
v 1.945686 -0.355236 -2.589310
v 2.367050 -0.304924 -2.939181
v 2.337021 0.000000 -2.939181
v 2.836845 0.124846 -3.202857
v 2.356804 0.200866 -2.939181
v 2.844093 -0.210035 -3.199158
v 3.165848 -0.070481 -3.300931
v -2.152031 -0.389627 -2.553340
v -0.655617 -0.076010 -3.313380
v -1.278488 -0.158111 -3.124984
v -1.848930 -0.286255 -2.809462
v 0.474960 -0.042825 -3.361218
v 0.614639 0.027527 -3.367151
v 1.569549 0.037672 -3.371404
v -0.652306 0.077900 -3.313575
v -1.277130 0.160651 -3.121691
v 1.256698 0.096690 -3.311930
v 3.197677 0.091365 -3.310874
v -1.848930 0.286255 -2.809461
v -1.877129 -0.000000 -2.809461
v -2.347656 -0.421498 -2.389261
v -2.389168 -0.000000 -2.389261
v -2.762703 0.474012 -1.877237
v -2.809387 -0.000000 -1.877237
v -2.762703 -0.474013 -1.877237
v -3.121643 0.000001 -1.293067
v -3.258026 -0.561437 -0.660558
v -3.070831 -0.515964 -1.293054
v -3.313926 0.000001 -0.659201
v -3.378853 -0.000000 -0.000000
v -3.070823 0.515963 -1.293067
v -3.322029 -0.576996 -0.000000
v -3.252327 -0.590592 0.674876
v -3.313926 0.000001 0.659200
v -3.064369 -0.577591 1.293950
v -3.121643 0.000001 1.293066
v -3.064377 0.577566 1.293946
v -2.760719 0.494114 1.877236
v 1.606781 0.465616 0.960928
v 1.351768 0.510990 0.476606
v 1.290871 0.526921 0.270131
v 1.300850 0.000001 0.476606
v 1.560829 0.000000 0.962990
v 1.351936 -0.510998 0.477122
v 1.290077 -0.527056 0.267471
v 1.192482 -0.525126 -0.051151
v 1.607551 -0.464696 0.962492
v 1.961174 -0.410390 1.395412
v -2.760719 -0.494114 1.877236
v 1.910698 0.000000 1.389309
v 1.957840 0.410118 1.392418
v 2.337021 0.000000 1.739180
v 2.364540 -0.294276 1.738337
v 2.364540 0.294277 1.738337
v 2.852089 0.188927 2.002836
v -1.837883 0.333485 2.813585
v -2.348213 0.414915 2.389354
v -1.300758 0.108300 3.112186
v -1.337417 0.163736 3.089217
v -1.877128 -0.000000 2.809461
v 3.133995 0.127734 2.091737
v 2.823402 0.000000 1.999158
v 3.138000 -0.127991 2.090765
v -1.301796 -0.105917 3.112689
v 2.852096 -0.188927 2.002836
v -1.837883 -0.333485 2.813585
v -2.348213 -0.414915 2.389355
v -1.337417 -0.163736 3.089217
v -2.389168 -0.000000 2.389260
v -2.809387 -0.000000 1.877236
vn 0.0138 0.9999 -0.0060
vn 0.0103 0.9993 -0.0346
vn 0.0122 0.9999 -0.0027
vn 0.0087 0.9997 -0.0220
vn 0.0082 0.9991 -0.0426
vn 0.9812 -0.0003 -0.1930
vn 0.9951 -0.0988 0.0036
vn 0.9763 -0.0962 -0.1936
vn 0.9809 0.0002 0.1946
vn 0.9765 -0.0962 0.1931
vn 0.0090 0.9956 -0.0934
vn 0.0076 0.9978 -0.0656
vn 1.0000 -0.0004 -0.0025
vn 0.9211 -0.0907 0.3785
vn 0.9951 0.0985 0.0014
vn 0.9249 0.0002 0.3803
vn 0.9209 0.0907 0.3792
vn 0.9766 0.0962 0.1924
vn 0.8348 -0.0855 0.5439
vn 0.0092 0.9973 -0.0730
vn 0.0163 0.9823 -0.1866
vn 0.0108 0.9748 -0.2228
vn 0.0199 0.9701 -0.2417
vn 0.0115 0.9868 -0.1616
vn 0.8328 -0.0008 0.5536
vn 0.7112 -0.0719 0.6993
vn 0.8302 0.0819 0.5515
vn 0.7102 0.0001 0.7040
vn 0.0078 -0.9957 -0.0928
vn 0.0098 -0.9936 -0.1124
vn 0.0090 -0.9974 -0.0718
vn 0.0102 -0.9914 -0.1305
vn 0.7070 0.0696 0.7038
vn 0.5574 0.0549 0.8284
vn 0.5599 0.0007 0.8286
vn -0.0095 -0.9461 -0.3239
vn 0.3972 0.0235 0.9174
vn 0.5605 -0.0552 0.8263
vn 0.3877 0.0091 0.9218
vn -0.0017 -0.9731 -0.2304
vn 0.0066 -0.6795 -0.7336
vn 0.2903 0.0085 0.9569
vn -0.0232 -0.4060 -0.9136
vn 0.0334 -0.2045 -0.9783
vn -0.0178 -0.9189 -0.3941
vn -0.0189 -0.8873 -0.4607
vn -0.0189 -0.9118 -0.4103
vn -0.1751 0.0025 -0.9845
vn -0.1726 0.0034 -0.9850
vn -0.0098 -0.0648 -0.9979
vn 0.0176 -0.3399 -0.9403
vn 0.0150 0.9353 -0.3536
vn -0.0072 0.9162 -0.4007
vn -0.0018 0.8360 -0.5487
vn -0.3898 0.0031 -0.9209
vn -0.3892 0.0159 -0.9210
vn 0.0016 0.7131 -0.7011
vn -0.0099 0.6004 -0.7996
vn 0.0111 0.9356 -0.3529
vn 0.0393 -0.0690 -0.9968
vn 0.2870 0.0024 0.9579
vn 0.0215 0.9728 -0.2308
vn -0.0018 0.9266 -0.3761
vn -0.5731 0.0008 -0.8195
vn -0.5610 0.0553 -0.8259
vn -0.5631 -0.0555 -0.8246
vn -0.6337 0.0333 -0.7729
vn -0.6335 -0.0335 -0.7730
vn -0.7088 -0.0698 -0.7019
vn -0.6934 -0.0001 -0.7205
vn 0.0052 -0.9863 -0.1647
vn -0.7089 0.0698 -0.7019
vn -0.8289 0.0816 -0.5535
vn -0.8333 -0.0000 -0.5528
vn -0.8289 -0.0816 -0.5535
vn -0.9248 -0.0000 -0.3805
vn -0.9208 -0.0908 -0.3794
vn 0.0084 -0.9991 -0.0425
vn 0.0020 -0.9975 -0.0708
vn -0.7708 -0.0758 -0.6326
vn -0.0004 -0.9974 -0.0718
vn -0.9810 -0.0002 -0.1938
vn -0.9765 -0.0966 -0.1927
vn -1.0000 -0.0000 0.0006
vn -0.9765 0.0963 -0.1928
vn -0.9207 0.0907 -0.3795
vn 0.0021 0.9975 -0.0708
vn 0.0001 0.9974 -0.0716
vn -0.9952 -0.0980 0.0024
vn -0.9754 -0.0958 0.1987
vn -0.9812 -0.0000 0.1928
vn -0.9754 0.0958 0.1987
vn -0.9952 0.0980 0.0026
vn -0.9207 -0.0901 0.3796
vn -0.9248 -0.0000 0.3805
vn -0.9207 0.0902 0.3796
vn 0.0290 0.9949 0.0962
vn 0.0230 0.9978 0.0624
vn 0.0319 0.9916 0.1254
vn -0.8310 0.0818 0.5502
vn 0.0287 0.9969 0.0739
vn 0.0209 0.9993 0.0323
vn 0.9525 -0.0946 -0.2894
vn 0.9248 -0.0002 -0.3805
vn 0.9209 -0.0918 -0.3789
vn 0.9209 0.0920 -0.3788
vn 0.8329 -0.0008 -0.5534
vn 0.8288 -0.0839 -0.5532
vn 0.9525 0.0947 -0.2894
vn 0.9761 0.0961 -0.1949
vn 0.0136 -0.9999 -0.0068
vn 0.0208 -0.9993 0.0318
vn 0.0123 -0.9999 -0.0028
vn 0.0230 -0.9978 0.0623
vn 0.0288 -0.9968 0.0745
vn 0.0100 -0.9994 -0.0341
vn 0.0288 -0.9951 0.0950
vn 0.8286 0.0853 -0.5533
vn 0.0555 -0.9795 0.1935
vn 0.0319 -0.9916 0.1253
vn 0.7111 -0.0006 -0.7031
vn 0.7065 0.0764 -0.7036
vn 0.7087 -0.0750 -0.7015
vn 0.5606 -0.0560 -0.8262
vn 0.5587 -0.0000 -0.8294
vn 0.5606 0.0559 -0.8262
vn 0.0723 0.9662 0.2474
vn 0.0552 0.9797 0.1926
vn 0.0520 0.9757 0.2128
vn 0.3873 -0.0396 -0.9211
vn 0.0866 0.9387 0.3338
vn -0.5605 0.0002 0.8282
vn -0.5595 0.0559 0.8270
vn -0.7074 0.0700 0.7033
vn 0.0322 0.9904 0.1344
vn -0.4671 0.0246 0.8838
vn -0.4667 0.0570 0.8826
vn 0.0947 0.9152 0.3916
vn 0.0907 0.9284 0.3604
vn 0.2895 0.0008 -0.9572
vn 0.3882 0.0023 -0.9216
vn 0.3815 0.0352 -0.9237
vn 0.2923 0.0082 -0.9563
vn 0.2147 -0.2701 0.9386
vn 0.2243 -0.0045 0.9745
vn 0.2243 0.0040 0.9745
vn 0.2141 0.2797 0.9359
vn 0.1944 0.4824 0.8541
vn 0.0725 -0.9660 0.2482
vn 0.0864 -0.9391 0.3325
vn 0.0519 -0.9757 0.2130
vn 0.0905 -0.9289 0.3591
vn -0.7074 -0.0700 0.7033
vn -0.5598 -0.0564 0.8267
vn 0.0321 -0.9904 0.1345
vn -0.4663 -0.0240 0.8843
vn -0.4616 -0.0745 0.8840
vn 0.0947 -0.9152 0.3917
vn 0.1958 -0.4700 0.8607
vn -0.8333 -0.0000 0.5528
vn -0.8310 -0.0818 0.5502
vn -0.7101 -0.0000 0.7041
vn 0.0089 -0.9997 -0.0218
vn -0.7708 0.0761 -0.6326
vn 0.0197 0.9698 -0.2433
vn 0.0072 -0.9979 -0.0643
vt 0.902546 0.818681
vt 0.906371 0.818967
vt 0.897723 0.846710
vt 0.902200 0.847061
vt 0.906582 0.846574
vt 0.980354 0.356414
vt 0.984123 0.359963
vt 0.980279 0.359918
vt 0.987611 0.356595
vt 0.987541 0.359875
vt 0.916946 0.841324
vt 0.909827 0.818539
vt 0.984018 0.356458
vt 0.990930 0.359849
vt 0.984132 0.353056
vt 0.990995 0.356822
vt 0.991001 0.353874
vt 0.987618 0.353400
vt 0.993859 0.359891
vt 0.913322 0.817433
vt 0.916413 0.815779
vt 0.919138 0.839081
vt 0.919345 0.813289
vt 0.918030 0.840423
vt 0.994040 0.357130
vt 0.996586 0.359482
vt 0.994033 0.354428
vt 0.996628 0.357506
vt 0.917316 0.872565
vt 0.915364 0.899580
vt 0.912254 0.897724
vt 0.918063 0.902006
vt 0.996633 0.355197
vt 0.586576 0.972519
vt 0.585789 0.975240
vt 0.583819 0.974726
vt 0.920216 0.904912
vt 0.584281 0.971922
vt 0.584657 0.978277
vt 0.582480 0.974648
vt 0.582467 0.977883
vt 0.919359 0.874840
vt 0.921743 0.908141
vt 0.583402 0.980247
vt 0.949410 0.465835
vt 0.931545 0.466657
vt 0.933620 0.465599
vt 0.920924 0.876913
vt 0.923778 0.884946
vt 0.923667 0.892448
vt 0.922777 0.880772
vt 0.956895 0.465184
vt 0.956931 0.466206
vt 0.948511 0.466355
vt 0.942180 0.466782
vt 0.922833 0.833082
vt 0.924089 0.828971
vt 0.924091 0.817063
vt 0.960984 0.464384
vt 0.961094 0.466499
vt 0.944274 0.467049
vt 0.931395 0.467744
vt 0.924091 0.804901
vt 0.582306 0.980288
vt 0.923380 0.807243
vt 0.920789 0.836966
vt 0.964994 0.465172
vt 0.964914 0.467082
vt 0.964699 0.463284
vt 0.966915 0.467616
vt 0.966654 0.462456
vt 0.967929 0.462152
vt 0.968363 0.464933
vt 0.918350 0.873493
vt 0.963139 0.907853
vt 0.963160 0.910536
vt 0.959671 0.908617
vt 0.959695 0.911635
vt 0.959732 0.914409
vt 0.963193 0.913003
vt 0.968246 0.467744
vt 0.955767 0.912452
vt 0.955808 0.915471
vt 0.907255 0.866870
vt 0.915120 0.870571
vt 0.962084 0.913514
vt 0.911370 0.868328
vt 0.951527 0.912954
vt 0.951581 0.916238
vt 0.947138 0.913124
vt 0.951508 0.909379
vt 0.955741 0.909167
vt 0.914642 0.843180
vt 0.910772 0.845249
vt 0.947184 0.916500
vt 0.942713 0.916401
vt 0.942769 0.912954
vt 0.942637 0.909185
vt 0.947110 0.909451
vt 0.938628 0.915830
vt 0.938588 0.912452
vt 0.938553 0.908773
vt 0.895813 0.816037
vt 0.893609 0.845554
vt 0.889717 0.843514
vt 0.934730 0.908489
vt 0.899039 0.817695
vt 0.900414 0.818095
vt 0.978090 0.359963
vt 0.976759 0.356467
vt 0.976685 0.359877
vt 0.976762 0.353147
vt 0.973372 0.356615
vt 0.973319 0.359721
vt 0.978190 0.353022
vt 0.980361 0.353002
vt 0.901547 0.896139
vt 0.899398 0.896670
vt 0.898403 0.866430
vt 0.894225 0.867447
vt 0.897981 0.897000
vt 0.905314 0.895988
vt 0.894658 0.898504
vt 0.973381 0.353596
vt 0.891644 0.900675
vt 0.890227 0.869224
vt 0.970323 0.356850
vt 0.970281 0.354191
vt 0.595374 0.980009
vt 0.592708 0.979365
vt 0.593844 0.976761
vt 0.970239 0.359592
vt 0.595762 0.977182
vt 0.597725 0.977239
vt 0.598122 0.980009
vt 0.890611 0.810974
vt 0.892935 0.813750
vt 0.883463 0.837455
vt 0.594966 0.973619
vt 0.888830 0.807709
vt 0.934780 0.493929
vt 0.935157 0.496128
vt 0.931812 0.496869
vt 0.886298 0.840796
vt 0.938633 0.494431
vt 0.938410 0.494812
vt 0.881592 0.833966
vt 0.888225 0.805815
vt 0.595609 0.971806
vt 0.596188 0.973962
vt 0.597458 0.973926
vt 0.597298 0.971987
vt 0.938551 0.493009
vt 0.968036 0.491362
vt 0.968099 0.493060
vt 0.889196 0.903190
vt 0.887239 0.906296
vt 0.883641 0.874954
vt 0.886537 0.908141
vt 0.931522 0.491362
vt 0.934924 0.491702
vt 0.886661 0.871749
vt 0.938295 0.492639
vt 0.881592 0.878122
vt 0.931449 0.912964
vt 0.934754 0.911635
vt 0.934793 0.914526
vt 0.931395 0.494130
vt 0.931416 0.910536
vt 0.931395 0.907895
vt 0.902901 0.866210
vt 0.962026 0.908032
vt 0.582306 0.971806
vt 0.921646 0.810438
vt 0.908821 0.896507
s 1
usemtl pleuraldeles_skin
f 4/1/1 1/2/2 2/3/3
f 2/3/3 1/2/2 3/4/4
f 1/2/2 6/5/5 3/4/4
f 8/6/6 1/7/7 4/8/8
f 10/9/9 5/10/10 1/7/7
f 7/11/11 1/2/2 5/12/12
f 6/5/5 1/2/2 7/11/11
f 8/6/6 9/13/13 1/7/7
f 9/13/13 10/9/9 1/7/7
f 10/9/9 15/14/14 5/10/10
f 10/9/9 9/13/13 13/15/15
f 10/9/9 11/16/16 15/14/14
f 14/17/17 11/16/16 10/9/9
f 13/15/15 12/18/18 10/9/9
f 14/17/17 10/9/9 12/18/18
f 16/19/19 15/14/14 11/16/16
f 5/12/12 15/20/20 7/11/11
f 15/20/20 16/21/21 7/11/11
f 17/22/22 16/21/21 18/23/23
f 16/21/21 17/22/22 19/24/24
f 20/25/25 18/26/26 16/19/19
f 16/21/21 19/24/24 7/11/11
f 11/16/16 20/25/25 16/19/19
f 20/25/25 11/16/16 22/27/27
f 20/25/25 21/28/28 18/26/26
f 21/28/28 20/25/25 22/27/27
f 23/29/29 22/30/30 14/31/31
f 23/29/29 24/32/32 22/30/30
f 21/28/28 22/27/27 24/33/33
f 11/16/16 14/17/17 22/27/27
f 24/34/33 25/35/34 26/36/35
f 23/29/29 25/37/36 24/32/32
f 24/34/33 26/36/35 21/38/28
f 26/36/35 25/35/34 29/39/37
f 21/38/28 26/36/35 28/40/38
f 28/40/38 26/36/35 27/41/39
f 26/36/35 29/39/37 27/41/39
f 25/37/36 31/42/40 29/43/41
f 27/41/39 29/39/37 30/44/42
f 35/45/43 30/46/44 29/47/41
f 31/42/40 34/48/45 29/43/41
f 32/49/46 35/50/43 29/43/41
f 33/51/47 32/49/46 29/43/41
f 34/48/45 33/51/47 29/43/41
f 35/45/43 32/52/48 38/53/49
f 35/45/43 38/53/49 36/54/50
f 35/45/43 36/54/50 37/55/51
f 37/55/51 30/46/44 35/45/43
f 39/56/52 17/22/22 38/57/53
f 38/57/53 17/22/22 40/58/54
f 33/59/55 39/60/56 38/53/49
f 38/53/53 40/61/54 37/55/57
f 36/54/58 38/53/53 37/55/57
f 32/52/48 33/59/55 38/53/49
f 41/62/59 37/55/57 40/61/54
f 41/63/59 40/58/54 17/22/22
f 41/62/60 30/46/44 37/55/51
f 41/64/61 27/41/39 30/44/42
f 27/65/62 41/63/59 17/22/22
f 39/56/52 42/66/63 17/22/22
f 43/67/64 39/60/56 33/59/55
f 43/67/64 42/68/65 39/60/56
f 33/59/55 34/69/66 43/67/64
f 42/68/65 43/67/64 17/70/67
f 31/71/68 17/70/67 43/67/64
f 34/69/66 31/71/68 43/67/64
f 31/71/68 44/72/69 45/73/70
f 44/74/71 31/42/40 25/37/36
f 31/71/68 45/73/70 17/70/67
f 19/75/72 45/76/70 46/77/73
f 47/78/74 46/77/73 45/76/70
f 48/79/75 47/78/74 45/76/70
f 44/80/69 48/79/75 45/76/70
f 45/73/70 19/81/72 17/70/67
f 49/82/76 47/78/74 48/79/75
f 48/79/75 51/83/77 49/82/76
f 23/29/29 50/84/78 48/85/79
f 44/80/69 23/86/80 48/79/75
f 50/84/78 51/87/81 48/85/79
f 52/88/82 49/82/76 51/83/77
f 52/88/82 51/83/77 50/89/83
f 53/90/84 6/91/85 52/88/82
f 6/91/85 54/92/86 52/88/82
f 54/92/86 49/82/76 52/88/82
f 53/90/84 52/88/82 50/89/83
f 54/92/86 46/77/73 49/82/76
f 46/93/87 54/94/88 6/5/5
f 53/90/84 50/89/83 55/95/89
f 53/90/84 55/95/89 56/96/90
f 53/90/84 56/96/90 57/97/91
f 57/97/91 2/98/92 53/90/84
f 53/90/84 2/98/92 3/99/93
f 6/91/85 53/90/84 3/99/93
f 56/96/90 58/100/94 57/97/91
f 58/100/94 59/101/95 57/97/91
f 59/101/95 60/102/96 57/97/91
f 57/97/91 60/102/96 2/98/92
f 62/103/97 60/104/98 61/105/99
f 59/101/95 61/106/100 60/102/96
f 60/104/98 62/103/97 63/107/101
f 60/104/98 64/108/102 2/3/3
f 63/107/101 64/108/102 60/104/98
f 2/3/3 64/108/102 4/1/1
f 8/6/6 4/8/8 64/109/103
f 65/110/104 8/6/6 64/109/103
f 63/111/105 65/110/104 64/109/103
f 67/112/106 65/110/104 66/113/107
f 65/110/104 62/114/108 66/113/107
f 8/6/6 65/110/104 68/115/109
f 65/110/104 63/111/105 62/114/108
f 65/110/104 67/112/106 68/115/109
f 68/115/109 69/116/110 8/6/6
f 69/117/111 68/118/112 56/119/113
f 68/118/112 58/120/114 56/119/113
f 67/121/115 58/120/114 68/118/112
f 13/15/15 8/6/6 69/116/110
f 56/119/113 13/122/116 69/117/111
f 67/121/115 70/123/117 58/120/114
f 67/112/106 66/113/107 70/124/118
f 70/123/117 71/125/119 72/126/120
f 70/124/118 73/127/121 71/128/122
f 70/124/118 66/113/107 73/127/121
f 72/126/120 58/120/114 70/123/117
f 73/129/121 74/130/123 77/131/124
f 66/113/107 74/132/123 73/127/121
f 75/133/125 73/129/121 77/131/124
f 73/129/121 75/133/125 76/134/126
f 76/134/126 71/135/122 73/129/121
f 77/136/127 74/137/128 79/138/129
f 75/133/125 77/131/124 78/139/130
f 79/138/129 78/140/131 77/136/127
f 83/141/132 79/142/133 80/143/134
f 79/138/129 74/137/128 80/144/135
f 81/145/136 82/146/137 79/142/133
f 83/141/132 81/145/136 79/142/133
f 82/147/138 84/148/139 79/138/129
f 79/138/129 84/148/139 78/140/131
f 84/149/140 85/150/141 78/139/130
f 85/150/141 84/149/140 88/151/142
f 84/149/140 86/152/143 88/151/142
f 87/153/144 86/154/145 84/155/146
f 81/145/147 87/153/144 84/155/146
f 84/155/146 82/146/148 81/145/147
f 76/156/149 88/157/150 89/158/151
f 75/133/125 88/151/142 76/134/126
f 88/157/150 86/159/152 89/158/151
f 75/133/125 85/150/141 88/151/142
f 83/141/132 90/160/153 89/161/154
f 71/125/119 89/158/151 90/162/155
f 83/141/132 89/161/154 87/153/156
f 89/161/154 91/163/157 87/153/156
f 86/159/152 91/164/158 89/158/151
f 89/158/151 71/125/119 76/156/149
f 87/153/144 91/163/159 86/154/145
f 71/125/119 90/162/155 72/126/120
f 90/165/153 93/166/160 72/167/161
f 83/141/132 92/168/162 90/160/153
f 90/165/153 92/169/162 93/166/160
f 72/167/161 93/166/160 59/101/95
f 80/170/134 61/106/100 93/166/160
f 59/101/95 93/166/160 61/106/100
f 80/170/134 93/166/160 92/169/162
f 83/141/132 80/143/134 92/168/162
f 83/141/132 87/153/156 81/145/136
f 75/133/125 78/139/130 85/150/141
f 80/144/135 74/137/128 61/105/99
f 66/113/107 62/114/108 74/132/123
f 61/105/99 74/137/128 62/103/97
f 72/167/161 59/101/95 58/100/94
f 56/119/113 55/171/163 13/122/116
f 55/171/163 50/84/78 13/122/116
f 50/84/78 23/29/29 13/122/116
f 49/82/76 46/77/73 47/78/74
f 19/75/72 46/77/73 7/172/164
f 46/93/87 6/5/5 7/11/11
f 23/29/29 44/74/71 25/37/36
f 21/38/28 28/40/38 18/173/26
f 17/22/22 18/23/23 28/174/165
f 28/174/165 27/65/62 17/22/22
f 12/175/166 13/122/116 23/29/29
f 14/31/31 12/175/166 23/29/29
f 13/15/15 9/13/13 8/6/6
