# Blender 4.1.1
# www.blender.org
mtllib link_body_00.mtl
o link_body_00
v 15.549094 -3.078153 -1.746205
v 9.884629 -5.138789 -1.566564
v 1.878081 -3.411466 -1.933219
v 15.337020 -3.321294 -1.479377
v 15.085826 -2.386934 -1.808079
v 15.782248 -3.929798 -1.604689
v 15.914367 -3.631559 -1.639451
v 15.946048 -3.574882 -1.640193
v 15.865088 -3.597253 -1.583143
v 15.877479 -3.687009 -1.633841
v 15.812770 -3.635606 -1.531074
v 15.431205 -3.794656 -1.104485
v 15.299720 -3.844205 -0.955449
v 15.786937 -3.915123 -1.606526
v 15.170154 -3.898513 -0.803398
v 15.347785 -4.598056 -1.234971
v 15.148017 -3.913011 -0.772481
v 15.122146 -4.735532 -0.917527
v 15.033172 -4.088630 -0.517040
v 14.775838 -4.670457 0.006614
v 15.013968 -4.119584 -0.472826
v 14.769677 -4.351985 0.156282
v 14.752950 -3.905368 -0.472826
v 14.318948 -4.339370 0.675521
v 14.066091 -3.068428 -0.472826
v 13.555757 -3.409421 0.675521
v 14.752889 -2.609525 -1.479377
v 13.555711 -2.113570 -0.472826
v 12.988656 -2.348449 0.675521
v 14.318837 -1.797472 -1.479377
v 13.241418 -1.077488 -0.472826
v 14.051549 -0.916343 -1.479377
v 13.961297 0.000001 -1.479377
v 14.608361 -1.135704 -1.889224
v 14.510442 0.343935 -1.928270
v -1.275640 -0.092030 -2.079351
v 3.759100 0.056365 -2.062428
v 1.897154 3.405045 -1.933529
v 14.831674 1.900184 -1.846735
v 14.318837 1.797473 -1.479377
v 15.557704 3.057590 -1.758926
v 14.051549 0.916344 -1.479377
v 14.752889 2.609525 -1.479377
v 13.555711 2.113571 -0.472826
v 14.066094 3.068429 -0.472826
v 15.337020 3.321296 -1.479377
v 14.752950 3.905368 -0.472826
v 15.431205 3.794656 -1.104486
v 15.844630 3.611850 -1.562625
v 15.864997 3.596584 -1.582764
v 15.989303 3.560949 -1.669780
v 15.881080 3.713104 -1.648579
v 15.798263 3.911352 -1.619555
v 15.796081 3.916454 -1.618747
v 10.048387 5.124589 -1.568159
v 4.327517 5.766083 -1.424297
v 3.607229 4.942586 -1.661611
v 15.584189 5.233197 -1.400813
v 15.585120 5.785175 -1.207073
v 5.051271 6.254931 -1.098253
v 8.886720 7.553662 0.164565
v 15.605151 5.764934 -1.213709
v 15.607181 5.783964 -1.203403
v 15.599822 5.816920 -1.171500
v 15.563537 5.940457 -1.040654
v 15.491820 6.275904 -0.683186
v 15.521354 5.486768 -1.294406
v 15.149611 6.002450 -0.313260
v 15.122146 4.735533 -0.917527
v 15.347785 4.598058 -1.234971
v 15.540065 5.504240 -1.306720
v 15.542022 5.465659 -1.320214
v 15.706412 4.175084 -1.577234
v 15.594489 4.713006 -1.488885
v 15.170154 3.898513 -0.803398
v 15.148017 3.913010 -0.772481
v 15.299720 3.844207 -0.955447
v 15.033175 4.088626 -0.517045
v 14.775838 4.670458 0.006615
v 15.013968 4.119583 -0.472826
v 14.769677 4.351984 0.156283
v 14.757039 4.426530 0.279690
v 14.716508 4.665637 0.675521
v 14.318948 4.339372 0.675521
v 14.051694 4.606627 1.921537
v 13.241502 3.619403 1.921537
v 13.555760 3.409423 0.675521
v 12.639474 2.493089 1.921537
v 12.988656 2.348451 0.675521
v 12.268746 1.270966 1.921537
v 12.639440 1.197231 0.675521
v 12.143563 0.000001 1.921537
v 12.521523 0.000001 0.675521
v 13.241418 1.077490 -0.472826
v 13.135293 0.000001 -0.472826
v 12.639436 -1.197228 0.675521
v 12.268743 -1.270964 1.921537
v 12.639470 -2.493087 1.921537
v 12.143575 -1.295862 3.217344
v 12.015943 0.000001 3.217344
v 12.143563 0.000001 4.513151
v 12.268743 -1.270964 4.513151
v 12.143575 1.295864 3.217344
v 12.521565 2.541927 3.217344
v 12.268746 1.270966 4.513151
v 12.639440 1.197231 5.759167
v 12.988656 2.348451 5.759167
v 12.639474 2.493089 4.513151
v 13.555760 3.409423 5.759167
v 13.241502 3.619403 4.513151
v 13.135385 3.690305 3.217344
v 13.961450 4.696868 3.217344
v 14.968015 5.522933 3.217344
v 14.949544 5.357100 2.029022
v 14.051694 4.606627 4.513151
v 14.318948 4.339372 5.759167
v 15.038917 5.416820 4.513151
v 15.248897 5.102559 5.759167
v 16.165228 6.018847 4.513151
v 15.996230 5.601033 5.523754
v 15.597369 4.595622 6.909497
v 17.235102 6.376868 4.271227
v 11.198941 7.596972 3.839610
v 9.168656 7.251012 4.178538
v 17.645170 6.484954 3.976724
v 12.183228 7.884866 2.755602
v 15.731608 4.234799 7.355918
v 9.750783 8.056159 3.101695
v 9.670354 7.702516 3.669456
v 8.371617 7.719501 3.481552
v 6.684809 7.774435 1.976467
v 8.033990 7.119260 4.051975
v 2.007220 5.365321 2.841587
v 2.377527 5.750655 2.373890
v -1.756055 2.418297 0.854470
v 2.230101 5.081397 3.271282
v 1.867518 4.567959 3.255325
v -0.969884 3.623928 -0.401469
v -2.022481 2.530582 0.376151
v -2.579251 1.137325 0.572055
v -2.203091 1.055039 1.058728
v -2.060368 2.531971 -0.301164
v -2.622090 1.375273 -0.058966
v -2.739278 0.780817 -0.274018
v -2.724080 -0.840467 -0.275762
v -2.837247 0.179116 0.561057
v -2.423733 -0.070740 -0.824510
v -2.076726 0.919772 -1.196797
v -1.843678 2.107815 -1.053048
v -2.826199 -0.157425 0.581697
v -2.579251 -1.137325 0.572055
v -2.203091 -1.055039 1.058728
v -1.591596 -0.002863 1.711869
v 2.212649 -4.618590 3.512561
v 3.462694 -0.016334 4.311612
v 2.236124 4.466498 3.541089
v 7.192228 0.848361 5.951532
v 8.745587 5.433732 5.251792
v 8.695527 3.214765 6.037860
v 8.551480 6.504076 4.688533
v 8.778958 1.552536 6.449619
v 10.257569 0.993482 6.928172
v 9.422372 -0.000000 6.770556
v 8.512368 -0.000000 6.476655
v 15.287288 3.471803 7.757380
v 15.500297 3.662617 7.716079
v 14.066094 3.068429 6.907514
v 14.752950 3.905368 6.907514
v 14.610238 2.704673 7.705094
v 13.555711 2.113571 6.907514
v 13.051061 0.002889 7.597576
v 14.137349 1.871847 7.674977
v 13.797860 0.396752 7.712428
v 13.241418 1.077489 6.907514
v 13.135293 0.000001 6.907514
v 12.521523 0.000001 5.759167
v 12.639436 -1.197228 5.759167
v 13.241418 -1.077488 6.907514
v 12.988656 -2.348449 5.759167
v 13.555757 -3.409421 5.759167
v 13.241498 -3.619401 4.513151
v 13.555711 -2.113570 6.907514
v 14.066091 -3.068428 6.907514
v 12.639470 -2.493087 4.513151
v 12.521562 -2.541925 3.217344
v 13.135385 -3.690305 3.217344
v 13.241498 -3.619401 1.921537
v 14.051690 -4.606626 1.921537
v 13.961450 -4.696868 3.217344
v 14.917699 -5.317340 1.921537
v 14.783338 -5.034343 1.479222
v 14.936875 -5.343282 2.002018
v 15.036841 -5.763535 2.079159
v 14.949544 -5.357102 2.029020
v 15.024314 -5.438670 2.188372
v 14.968011 -5.522933 3.217344
v 15.040828 -5.451653 2.225765
v 15.127303 -5.512597 2.358223
v 15.392142 -5.698617 2.758287
v 15.514266 -5.784396 2.942768
v 15.588847 -5.832181 3.014040
v 15.534835 -5.903979 2.926237
v 16.299314 -6.280904 3.501013
v 16.176950 -6.774869 2.957325
v 15.565047 -6.731772 2.132674
v 15.979388 -6.790483 2.661238
v 15.619597 -6.809331 2.052416
v 15.648650 -6.814273 2.148534
v 15.220763 -6.574042 1.192112
v 14.848897 -5.816533 0.885670
v 15.354781 -6.667287 0.471744
v 15.358588 -6.749578 1.077386
v 15.390296 -6.756911 1.196375
v 15.366050 -6.621806 0.164735
v 15.369544 -6.615781 0.128207
v 15.369910 -6.613477 0.119727
v 10.971192 -8.106064 1.836880
v 9.671914 -8.061798 3.067754
v 9.215375 -8.218283 1.960776
v 12.189317 -7.883668 2.758990
v 10.515191 -8.083656 1.337123
v 9.324105 -8.153614 1.401995
v 17.449492 -6.536803 3.895623
v 16.200766 -6.772161 2.987007
v 16.221437 -6.769685 3.012872
v 16.773226 -6.676362 3.495785
v 17.142557 -6.605533 3.755231
v 17.134748 -6.380567 3.907199
v 16.815161 -6.295259 3.784622
v 17.255487 -6.415971 3.919586
v 17.235094 -6.376870 4.271224
v 17.356207 -6.427876 3.942014
v 17.682699 -6.468568 3.994330
v 17.523481 -6.520280 3.929435
v 17.579046 -6.507131 3.949387
v 17.644346 -6.485339 3.976323
v 11.149896 -7.630063 3.799563
v 15.597369 -4.595620 6.909499
v 9.670373 -7.778340 3.669454
v 15.996230 -5.601033 5.523752
v 15.731608 -4.234799 7.355918
v 15.561576 -3.799129 7.636213
v 9.168656 -7.251012 4.178538
v 15.321898 -3.740074 7.705935
v 14.752950 -3.905368 6.907514
v 14.318948 -4.339370 5.759167
v 15.191657 -3.365819 7.749578
v 10.257565 -0.993486 6.928170
v 14.610238 -2.704671 7.705096
v 14.137349 -1.871842 7.674977
v 13.863259 -0.953799 7.680121
v 8.851190 -1.507403 6.477128
v 7.177942 -0.860817 5.944614
v 9.417413 -3.136749 6.292051
v 8.745587 -5.433732 5.251792
v 8.325868 -6.610791 4.575671
v 2.229994 -5.157054 3.271107
v 8.033998 -7.195083 4.051975
v 8.416684 -7.781766 3.397732
v 1.978213 -5.368728 2.798732
v -1.756055 -2.418296 0.854470
v -2.041981 -2.481899 0.395572
v -1.294942 -3.390375 -0.521448
v 6.448347 -7.716332 1.892510
v 2.377527 -5.750655 2.373890
v 5.249418 -7.399058 0.506859
v 1.385504 -5.379373 -0.688486
v 2.985720 -6.323400 -0.340922
v 4.216776 -6.865188 -0.255109
v 4.110437 -6.708404 -0.572778
v 1.651263 -5.465989 -1.098342
v -0.010022 -4.371634 -0.781243
v 0.026343 -4.131763 -1.442487
v 3.174090 -5.910804 -1.277732
v 1.371600 -5.086324 -1.458518
v 1.606032 -4.757995 -1.672706
v -0.170850 -3.494878 -1.721923
v 0.858451 -3.887634 -1.821107
v -0.747380 -3.164342 -1.525213
v -1.070577 -2.170240 -1.664833
v -1.679616 -0.030254 -1.813904
v -1.843678 -2.107815 -1.053048
v -1.484044 -3.054077 -0.795082
v -2.060368 -2.531971 -0.301164
v -2.622090 -1.375273 -0.058966
v -2.076726 -0.919772 -1.196797
v -1.070577 2.170240 -1.664833
v -0.190713 3.486349 -1.720205
v -0.747380 3.164343 -1.525213
v -1.484044 3.054076 -0.795082
v -0.061330 4.095119 -1.401858
v -0.076131 4.320615 -0.802184
v 1.447886 5.418319 -0.633017
v 1.651263 5.465989 -1.098342
v 4.067713 6.668979 -0.614491
v 2.985720 6.323400 -0.340921
v 3.174090 5.910804 -1.277731
v 1.371600 5.086323 -1.458518
v 1.563792 4.850293 -1.627812
v 0.875910 3.894601 -1.823590
v 5.522635 7.486743 0.506760
v 7.746507 7.883805 0.912460
v 5.589365 7.257519 -0.082586
v 7.924150 8.036996 1.493166
v 9.258733 8.224775 1.887154
v 11.011121 8.100225 1.836464
v 10.044499 7.963202 1.064389
v 15.475425 6.313347 -0.624364
v 15.475905 6.307016 -0.634749
v 15.463340 6.346122 -0.548118
v 15.368987 6.566573 -0.004537
v 15.369552 6.615882 0.128410
v 15.366099 6.621885 0.164666
v 15.354957 6.667410 0.470803
v 14.848897 5.816534 0.885671
v 15.220763 6.574044 1.192112
v 15.036841 5.763536 2.079159
v 14.864518 5.416377 -0.017794
v 14.675469 4.830779 1.095709
v 14.680013 4.784369 1.056255
v 14.677991 4.799827 1.100083
v 14.686021 4.829366 1.158852
v 14.709676 4.879191 1.236729
v 14.917695 5.317336 1.921537
v 14.936872 5.343277 2.002018
v 15.040828 5.451652 2.225766
v 15.565047 6.731773 2.132674
v 15.127303 5.512597 2.358226
v 15.534835 5.903980 2.926237
v 16.299314 6.280904 3.501014
v 16.177549 6.775687 2.957355
v 15.514266 5.784395 2.942769
v 15.588851 5.832182 3.014042
v 15.881392 6.011145 3.217344
v 16.123442 6.119725 3.404493
v 16.258158 6.149465 3.523367
v 16.353239 6.173040 3.582097
v 16.633978 6.247846 3.704936
v 16.815176 6.295259 3.784630
v 17.134748 6.380563 3.907202
v 17.255491 6.415970 3.919589
v 17.142572 6.605939 3.754958
v 16.773825 6.676865 3.495779
v 17.446791 6.537607 3.894252
v 17.523558 6.520321 3.929430
v 17.578688 6.507215 3.949260
v 17.356199 6.427875 3.942015
v 17.682699 6.468568 3.994331
v 16.221296 6.770570 3.011988
v 16.199896 6.773139 2.985210
v 15.392142 5.698616 2.758289
v 15.983382 6.791049 2.666334
v 15.649482 6.815090 2.148691
v 15.620124 6.810077 2.051646
v 15.390819 6.757476 1.196389
v 15.358989 6.750090 1.077053
v 15.024314 5.438670 2.188379
v 4.445211 -5.698470 -1.460088
v 5.051268 -6.254931 -1.098253
v 15.585120 -5.785174 -1.207073
v 9.145116 -6.895682 -0.452560
v 8.928472 -7.604493 0.234253
v 15.605102 -5.764884 -1.213679
v 15.607276 -5.785285 -1.202626
v 15.557494 -5.875512 -1.076978
v 15.545188 -5.904365 -1.036099
v 15.521354 -5.486768 -1.294406
v 15.539458 -5.503671 -1.306319
v 15.149611 -6.002450 -0.313260
v 15.541259 -5.466437 -1.319261
v 15.585944 -5.217326 -1.405086
v 15.591102 -4.711427 -1.485396
v 15.694350 -4.189311 -1.565721
v 14.864518 -5.416375 -0.017794
v 15.476279 -6.307359 -0.635112
v 15.369777 -6.568603 -0.003426
v 15.474608 -6.329160 -0.599349
v 15.490962 -6.278604 -0.679847
v 14.675469 -4.830779 1.095709
v 14.680013 -4.784373 1.056257
v 14.677991 -4.799829 1.100083
v 14.686021 -4.829366 1.158847
v 14.716508 -4.665639 0.675521
v 14.757039 -4.426530 0.279687
v 8.010186 -7.938878 1.002217
v 5.589365 -7.257520 -0.082586
v 5.975412 -7.569987 0.534396
v 7.261629 -7.916322 1.285570
v 14.051690 -4.606626 4.513151
v 15.248893 -5.102559 5.759167
v 15.038913 -5.416820 4.513151
v 16.165228 -6.018847 4.513151
v 16.123442 -6.119725 3.404491
v 16.258162 -6.149465 3.523366
v 15.881392 -6.011146 3.217344
v 16.353239 -6.173041 3.582095
v 16.633970 -6.247846 3.704931
vn -0.0102 -0.1138 -0.9934
vn 0.0292 -0.1273 -0.9914
vn 0.0176 -0.2463 -0.9690
vn 0.0258 -0.1570 -0.9873
vn 0.0150 -0.0714 -0.9973
vn 0.5276 0.3402 0.7784
vn 0.5016 0.5057 0.7019
vn 0.4621 0.4411 0.7693
vn 0.4075 0.4901 0.7705
vn 0.4317 0.5338 0.7271
vn 0.0683 -0.1453 -0.9870
vn 0.0683 -0.1454 -0.9870
vn 0.1453 -0.0941 -0.9849
vn 0.0959 -0.1272 -0.9872
vn 0.6937 -0.2792 0.6639
vn 0.6031 -0.3276 0.7273
vn 0.7724 -0.2070 0.6005
vn 0.7664 -0.2325 0.5988
vn 0.4843 0.6004 0.6364
vn 0.4914 0.5987 0.6325
vn 0.4913 0.5987 0.6326
vn 0.8116 -0.1433 0.5663
vn 0.7680 -0.1467 0.6234
vn 0.7808 -0.0285 0.6242
vn 0.8757 -0.1104 0.4700
vn 0.8791 0.0441 0.4745
vn 0.9310 -0.0946 0.3525
vn 0.9720 0.0076 0.2349
vn 0.9395 -0.1305 0.3167
vn 0.9757 -0.0774 0.2049
vn 0.5893 0.5893 0.5527
vn 0.5601 0.6825 0.4696
vn 0.6539 0.6539 0.3805
vn 0.6929 0.4630 0.5527
vn 0.7689 0.5138 0.3805
vn 0.7699 0.3189 0.5527
vn 0.5905 0.3945 0.7040
vn 0.8544 0.3539 0.3805
vn 0.8173 0.1626 0.5527
vn 0.6494 0.2741 0.7094
vn 0.6940 0.1298 0.7082
vn 0.6013 0.1613 0.7826
vn 0.7065 0.0082 0.7076
vn 0.0074 -0.0219 -0.9997
vn 0.0121 0.0144 -0.9998
vn 0.0133 -0.0443 -0.9989
vn 0.6199 -0.0491 0.7832
vn -0.3310 -0.0152 -0.9435
vn -0.0138 0.1175 -0.9930
vn 0.0131 0.0592 -0.9982
vn 0.6611 -0.2646 0.7021
vn 0.5689 -0.2740 0.7755
vn 0.5829 -0.3973 0.7088
vn 0.6897 -0.1441 0.7096
vn 0.4537 -0.4308 0.7801
vn 0.0201 0.1248 -0.9920
vn 0.6929 -0.4630 0.5527
vn 0.7699 -0.3189 0.5527
vn 0.4980 -0.5069 0.7036
vn 0.5893 -0.5893 0.5527
vn 0.4914 -0.5987 0.6325
vn 0.4044 -0.4841 0.7759
vn 0.4231 -0.5282 0.7362
vn 0.4798 -0.6014 0.6388
vn 0.7663 0.2327 0.5988
vn 0.7664 0.2325 0.5988
vn 0.7226 0.2617 0.6399
vn 0.6932 0.2796 0.6643
vn 0.6031 0.3276 0.7273
vn 0.0246 0.1585 -0.9871
vn 0.0238 0.1545 -0.9877
vn 0.0170 0.2507 -0.9679
vn 0.0265 0.1674 -0.9855
vn -0.0090 0.2331 -0.9724
vn -0.0145 0.4345 -0.9006
vn 0.0770 0.5509 -0.8310
vn 0.0647 0.3681 -0.9275
vn 0.0220 0.3311 -0.9433
vn 0.0166 0.8074 -0.5897
vn -0.0114 0.6359 -0.7717
vn 0.0550 0.7336 -0.6774
vn 0.0698 0.7298 -0.6801
vn 0.1640 0.5887 -0.7915
vn 0.7935 -0.3516 0.4967
vn 0.7135 -0.3275 0.6195
vn 0.7303 -0.3839 0.5650
vn 0.8050 -0.4102 0.4285
vn 0.7715 -0.2397 0.5894
vn 0.8791 -0.0441 0.4745
vn 0.8689 -0.3670 0.3322
vn 0.7808 0.0285 0.6242
vn 0.7220 -0.1251 0.6805
vn 0.7253 -0.0382 0.6874
vn 0.7683 0.1473 0.6230
vn 0.8116 0.1433 0.5663
vn 0.7781 0.1800 0.6018
vn 0.8757 0.1104 0.4700
vn 0.9310 0.0945 0.3525
vn 0.9720 -0.0076 0.2349
vn 0.9395 0.1305 0.3167
vn 0.6539 -0.6539 0.3805
vn 0.5285 -0.6440 0.5530
vn 0.5601 -0.6825 0.4696
vn 0.9965 0.0327 0.0763
vn 0.9958 0.0223 0.0885
vn 0.5895 -0.7183 0.3696
vn 0.6937 -0.6937 0.1939
vn 0.6073 -0.7400 0.2890
vn 0.8157 -0.5450 0.1939
vn 0.7689 -0.5138 0.3805
vn 0.9063 -0.3754 0.1939
vn 0.8544 -0.3539 0.3805
vn 0.9622 -0.1914 0.1939
vn 0.9070 -0.1804 0.3805
vn 0.9810 -0.0000 0.1939
vn 0.9248 -0.0000 0.3805
vn 0.8173 -0.1626 0.5527
vn 0.8334 -0.0000 0.5527
vn 0.9070 0.1804 0.3805
vn 0.9622 0.1914 0.1939
vn 0.9063 0.3754 0.1939
vn 0.9808 0.1951 -0.0000
vn 1.0000 -0.0000 -0.0000
vn 0.9810 -0.0000 -0.1939
vn 0.9622 0.1914 -0.1939
vn 0.9808 -0.1951 -0.0000
vn 0.9622 -0.1914 -0.1939
vn 0.9239 -0.3827 -0.0000
vn 0.9070 -0.1804 -0.3805
vn 0.8544 -0.3539 -0.3805
vn 0.9063 -0.3754 -0.1939
vn 0.7689 -0.5138 -0.3805
vn 0.8315 -0.5556 -0.0000
vn 0.8157 -0.5450 -0.1939
vn 0.7071 -0.7071 -0.0000
vn 0.6314 -0.7693 0.0975
vn 0.6058 -0.7896 0.0978
vn 0.6937 -0.6937 -0.1939
vn 0.5556 -0.8315 -0.0000
vn 0.6538 -0.6540 -0.3806
vn 0.5468 -0.8150 -0.1920
vn 0.4085 -0.8486 -0.3361
vn 0.5066 -0.7698 -0.3883
vn 0.3538 -0.9103 -0.2147
vn 0.1174 0.7889 0.6032
vn 0.1159 0.7883 0.6042
vn 0.0658 0.8415 0.5363
vn 0.5098 -0.6728 -0.5362
vn 0.1306 0.8351 0.5343
vn 0.2404 -0.9611 -0.1361
vn -0.0900 0.7043 0.7041
vn -0.0638 0.6351 0.7698
vn -0.0361 0.8108 0.5843
vn 0.1553 0.9200 0.3598
vn 0.1955 0.9720 0.1305
vn 0.1383 0.8617 0.4882
vn -0.0169 0.9480 0.3179
vn -0.2034 0.8590 0.4699
vn -0.5559 0.6913 0.4616
vn -0.2929 0.9338 0.2057
vn -0.2626 0.6695 0.6949
vn -0.4747 0.8488 0.2329
vn -0.4409 0.5075 0.7403
vn -0.6570 0.7539 -0.0045
vn -0.7055 0.4030 0.5829
vn -0.6063 0.3176 0.7290
vn -0.7903 0.5474 0.2755
vn -0.8703 0.2921 0.3965
vn -0.6793 0.2155 0.7015
vn -0.9428 0.3198 -0.0941
vn -0.8319 0.5240 -0.1829
vn -0.9473 0.1540 -0.2809
vn -0.8292 -0.0077 -0.5588
vn -0.9470 -0.1621 -0.2774
vn -0.9943 -0.0851 -0.0643
vn -0.9955 0.0487 -0.0817
vn -0.7479 0.1675 -0.6423
vn -0.7244 0.3255 -0.6077
vn -0.8727 -0.2880 0.3943
vn -0.6789 -0.2163 0.7016
vn -0.6924 -0.0462 0.7200
vn -0.5774 0.0005 0.8164
vn -0.6933 0.0707 0.7172
vn -0.4670 -0.2560 0.8464
vn -0.4293 -0.0012 0.9032
vn -0.4292 0.2281 0.8739
vn -0.3702 0.0630 0.9268
vn -0.2965 0.1487 0.9434
vn -0.2111 0.5308 0.8208
vn -0.2539 0.3787 0.8900
vn -0.2787 0.2681 0.9222
vn -0.3265 -0.0002 0.9452
vn -0.2395 0.1014 0.9656
vn -0.2228 0.3507 0.9096
vn -0.2739 0.0004 0.9618
vn 0.5306 -0.5711 -0.6263
vn 0.5894 -0.5906 -0.5512
vn 0.4737 -0.6211 -0.6243
vn -0.1654 0.5008 0.8496
vn -0.2208 0.1216 0.9677
vn 0.6934 -0.4627 -0.5523
vn 0.6427 -0.4294 -0.6344
vn 0.7699 -0.3189 -0.5528
vn 0.7119 -0.2855 -0.6417
vn -0.1902 -0.0019 0.9818
vn -0.3444 0.1619 0.9247
vn -0.1700 0.0352 0.9848
vn 0.8154 -0.1666 -0.5544
vn 0.7615 -0.0649 -0.6449
vn 0.9248 -0.0000 -0.3805
vn 0.8341 0.0044 -0.5516
vn 0.9070 0.1804 -0.3805
vn 0.8544 0.3539 -0.3805
vn 0.8173 0.1626 -0.5527
vn 0.6935 0.4627 -0.5522
vn 0.7689 0.5138 -0.3805
vn 0.8157 0.5450 -0.1939
vn 0.9063 0.3754 -0.1939
vn 0.7699 0.3189 -0.5528
vn 0.9239 0.3827 -0.0000
vn 0.8157 0.5450 0.1939
vn 0.8315 0.5556 -0.0000
vn 0.6937 0.6937 0.1939
vn 0.7071 0.7071 -0.0000
vn 0.6314 0.7693 0.0975
vn 0.6258 0.7625 0.1643
vn 0.6073 0.7400 0.2890
vn 0.9014 0.3029 -0.3095
vn 0.9732 0.1591 -0.1662
vn 0.9658 0.1993 -0.1659
vn 0.9225 0.1545 -0.3537
vn 0.9225 0.1545 -0.3538
vn 0.6058 0.7896 0.0978
vn 0.5556 0.8315 -0.0000
vn 0.4691 0.8777 0.0975
vn 0.4692 0.8777 0.0975
vn 0.8583 0.2108 -0.4678
vn 0.8923 0.1827 -0.4129
vn 0.7650 0.3470 -0.5426
vn 0.8574 0.2123 -0.4689
vn 0.4691 0.8777 0.0976
vn 0.6940 0.2860 -0.6608
vn 0.8191 0.2144 -0.5321
vn 0.5580 0.4423 -0.7022
vn 0.6653 0.3231 -0.6731
vn 0.6653 0.3228 -0.6732
vn 0.6831 0.4841 -0.5469
vn 0.6175 0.5044 -0.6036
vn 0.7627 0.5608 -0.3221
vn 0.7046 0.5074 -0.4960
vn 0.6892 0.6295 -0.3588
vn 0.8435 0.5313 -0.0791
vn 0.7202 0.6745 -0.1624
vn 0.7265 0.6699 -0.1530
vn 0.9487 0.3163 0.0035
vn 0.8698 0.4834 0.0992
vn 0.8850 0.4444 0.1384
vn 0.7809 0.6244 -0.0172
vn 0.1541 -0.9860 -0.0644
vn 0.2720 -0.9533 -0.1312
vn 0.8888 0.4309 0.1560
vn 0.8690 0.4502 0.2051
vn 0.2409 -0.9482 -0.2070
vn 0.1011 -0.9460 -0.3080
vn 0.2064 -0.9310 -0.3012
vn -0.0144 -0.9610 0.2763
vn 0.1965 -0.9726 0.1245
vn -0.0617 -0.9974 0.0364
vn -0.0070 -0.9656 -0.2599
vn 0.2721 -0.9535 -0.1294
vn 0.2721 -0.9535 -0.1293
vn 0.2710 -0.9544 -0.1252
vn 0.4423 0.5395 -0.7164
vn 0.4259 0.5075 -0.7490
vn 0.3420 0.5341 -0.7731
vn 0.2430 0.5488 -0.7999
vn 0.2430 0.5487 -0.7999
vn 0.2093 0.4938 -0.8440
vn 0.2404 0.9611 -0.1361
vn 0.2887 0.9533 -0.0893
vn 0.2887 0.9532 -0.0893
vn 0.1390 0.9851 -0.1015
vn 0.2184 0.9712 -0.0953
vn 0.1966 0.4728 -0.8590
vn 0.2366 0.5384 -0.8088
vn 0.1511 -0.9150 0.3740
vn 0.0757 -0.8506 0.5203
vn 0.1386 -0.8616 0.4882
vn 0.1305 -0.8350 0.5346
vn 0.1164 -0.7889 0.6033
vn -0.0169 -0.6599 0.7512
vn 0.1153 -0.7886 0.6040
vn -0.0343 -0.8253 0.5636
vn 0.4937 0.5946 -0.6346
vn 0.4913 0.5990 -0.6323
vn 0.5889 0.5902 -0.5521
vn 0.1254 -0.5017 0.8559
vn -0.1264 -0.4552 0.8814
vn -0.0906 -0.6912 0.7169
vn 0.5098 0.6728 -0.5362
vn 0.6538 0.6539 -0.3806
vn 0.5563 0.5359 -0.6351
vn 0.2756 -0.0162 0.9611
vn -0.2388 -0.1022 0.9657
vn -0.2488 -0.1886 0.9500
vn -0.2209 -0.1217 0.9677
vn 0.6430 0.4290 -0.6344
vn -0.3803 -0.1829 0.9066
vn 0.7139 0.2964 -0.6344
vn -0.1589 -0.0499 0.9860
vn 0.7557 0.1437 -0.6390
vn -0.2976 -0.1436 0.9438
vn -0.2702 -0.2621 0.9265
vn -0.3698 -0.0651 0.9268
vn -0.2545 -0.3793 0.8896
vn -0.2105 -0.5263 0.8238
vn -0.2463 -0.7010 0.6693
vn -0.4622 -0.5444 0.7000
vn -0.5669 -0.7111 0.4159
vn -0.2020 -0.8806 0.4287
vn -0.7943 -0.5329 0.2915
vn -0.7003 -0.4065 0.5869
vn -0.6797 -0.7276 -0.0927
vn -0.3038 -0.9292 0.2103
vn -0.4712 -0.8495 0.2373
vn -0.4385 -0.8904 -0.1225
vn -0.3231 -0.9413 -0.0973
vn -0.5547 -0.8306 -0.0500
vn -0.3067 -0.9159 -0.2588
vn -0.2058 -0.8269 -0.5234
vn -0.4318 -0.8240 -0.3667
vn -0.6014 -0.7924 -0.1026
vn -0.5139 -0.6270 -0.5855
vn -0.3647 -0.6351 -0.6809
vn -0.1684 -0.6408 -0.7490
vn -0.3452 -0.3281 -0.8793
vn -0.1114 -0.3314 -0.9369
vn -0.1300 -0.2279 -0.9650
vn -0.5770 -0.3961 -0.7142
vn -0.5199 -0.2680 -0.8111
vn -0.6542 0.0034 -0.7563
vn -0.7240 -0.3272 -0.6072
vn -0.7135 -0.5313 -0.4567
vn -0.8400 -0.5119 -0.1799
vn -0.9444 -0.3180 -0.0839
vn -0.7523 -0.1692 -0.6367
vn -0.5115 0.2595 -0.8191
vn -0.3488 0.3302 -0.8771
vn -0.5803 0.3929 -0.7133
vn -0.7173 0.5768 -0.3908
vn -0.6070 0.7853 -0.1218
vn -0.5349 0.6351 -0.5572
vn -0.4350 0.8245 -0.3618
vn -0.5508 0.8339 -0.0352
vn -0.2146 0.8437 -0.4920
vn -0.1692 0.6402 -0.7494
vn -0.4310 0.8941 -0.1217
vn -0.3697 0.6399 -0.6737
vn -0.1272 0.3537 -0.9267
vn -0.1242 0.2287 -0.9655
vn -0.2808 0.9509 -0.1299
vn -0.1358 0.9880 -0.0740
vn -0.0974 0.8399 -0.5339
vn -0.0722 0.9394 -0.3351
vn -0.0437 0.9981 -0.0429
vn 0.1416 0.9818 -0.1264
vn 0.0740 0.9203 -0.3841
vn 0.1681 0.9173 -0.3609
vn 0.1214 0.8765 -0.4658
vn 0.0987 0.8517 -0.5146
vn 0.8692 -0.4501 0.2049
vn 0.7981 -0.4971 0.3404
vn 0.1797 0.9221 -0.3428
vn 0.2135 0.9386 -0.2709
vn 0.8850 -0.4444 0.1384
vn 0.2729 0.9530 -0.1318
vn 0.9487 -0.3163 0.0035
vn 0.8697 -0.4834 0.0992
vn 0.8435 -0.5313 -0.0791
vn 0.9460 -0.2119 0.2455
vn 0.9014 -0.3029 -0.3095
vn 0.9967 -0.0647 -0.0485
vn 0.9658 -0.1993 -0.1659
vn 0.9956 0.0729 -0.0584
vn 0.9732 -0.1591 -0.1662
vn 0.6258 -0.7625 0.1642
vn 0.9225 -0.1545 -0.3538
vn 0.8583 -0.2108 -0.4678
vn 0.8923 -0.1827 -0.4129
vn 0.7627 -0.5608 -0.3221
vn 0.7650 -0.3469 -0.5426
vn 0.8191 -0.2144 -0.5321
vn 0.7046 -0.5074 -0.4960
vn 0.5580 -0.4423 -0.7022
vn 0.6653 -0.3228 -0.6732
vn 0.6654 -0.3231 -0.6730
vn 0.6666 -0.4709 -0.5779
vn 0.6175 -0.5044 -0.6036
vn 0.6940 -0.2860 -0.6608
vn 0.4691 -0.8777 0.0975
vn 0.4704 -0.8801 -0.0634
vn 0.4222 -0.9012 -0.0979
vn 0.2959 -0.9502 -0.0976
vn 0.4912 -0.3530 -0.7963
vn 0.6230 -0.3167 -0.7152
vn 0.4539 -0.3792 -0.8063
vn 0.2887 -0.9533 -0.0893
vn 0.3576 -0.5312 -0.7680
vn 0.4259 -0.5075 -0.7490
vn 0.2430 -0.5488 -0.7999
vn 0.2094 -0.4939 -0.8439
vn 0.2718 0.9541 -0.1257
vn 0.2707 0.9551 -0.1208
vn 0.1966 -0.4728 -0.8590
vn 0.2366 -0.5384 -0.8088
vn 0.1390 -0.9851 -0.1015
vn 0.2184 -0.9712 -0.0953
vn 0.4423 -0.5395 -0.7164
vn 0.4692 -0.8777 0.0975
vn 0.6892 -0.6295 -0.3588
vn 0.7201 -0.6746 -0.1624
vn 0.7809 -0.6244 -0.0173
vn 0.7265 -0.6699 -0.1530
vn -0.0102 -0.3965 -0.9180
vn -0.0123 -0.6340 -0.7732
vn 0.0840 -0.6058 -0.7912
vn 0.0200 -0.6753 -0.7373
vn 0.0122 -0.8166 -0.5771
vn 0.0222 -0.3292 -0.9440
vn 0.1438 -0.6648 -0.7331
vn 0.1066 -0.8272 -0.5517
vn 0.0656 -0.3667 -0.9280
vn 0.7303 0.3839 0.5650
vn 0.7715 0.2397 0.5894
vn 0.7899 0.3536 0.5010
vn 0.8051 0.4102 0.4285
vn 0.8023 0.3464 0.4861
vn 0.7135 0.3276 0.6194
vn 0.7219 0.1252 0.6806
vn 0.8689 0.3670 0.3322
vn 0.7357 0.0989 0.6700
vn 0.7254 0.0388 0.6872
vn 0.9460 0.2119 0.2455
vn 0.7986 0.4966 0.3400
vn 0.1948 -0.9215 -0.3360
vn 0.0619 -0.7559 -0.6518
vn 0.1004 -0.8516 -0.5145
vn 0.0832 -0.7838 -0.6154
vn 0.9967 0.0647 -0.0485
vn 0.9958 -0.0223 0.0885
vn 0.9956 -0.0728 -0.0584
vn 0.9965 -0.0327 0.0763
vn 0.5895 0.7183 0.3696
vn -0.1025 -0.8416 -0.5304
vn -0.0733 -0.9434 -0.3235
vn -0.1612 -0.9551 -0.2486
vn -0.1631 -0.9834 -0.0798
vn 0.6937 0.6937 -0.1939
vn 0.5066 0.7698 -0.3883
vn 0.4085 0.8486 -0.3361
vn 0.5468 0.8150 -0.1920
vn 0.3538 0.9103 -0.2147
vn 0.4704 0.8801 -0.0634
vn 0.2959 0.9502 -0.0976
vn 0.6230 0.3167 -0.7152
vn 0.4912 0.3530 -0.7963
vn 0.4539 0.3792 -0.8063
vn 0.4914 -0.5984 -0.6329
vn 0.0242 -0.2401 -0.9705
vn 0.0336 -0.1549 -0.9874
vn 0.7244 -0.2605 0.6383
vn 0.7781 -0.1800 0.6018
vn 0.4913 0.5987 0.6325
vn 0.5286 0.6440 0.5530
vn 0.4912 0.5987 0.6326
vn 0.7809 -0.1740 0.5999
vn 0.7721 0.2081 0.6004
vn 0.0245 0.2464 -0.9689
vn 0.0711 0.7800 -0.6217
vn 0.7305 -0.3841 0.5647
vn 0.7302 -0.3839 0.5652
vn 0.8022 -0.3466 0.4862
vn 0.7357 -0.0989 0.6701
vn 0.9757 0.0774 0.2049
vn 0.1365 0.8533 0.5032
vn 0.9569 0.1868 -0.2225
vn 0.3370 0.8986 0.2808
vn 0.6681 0.4648 -0.5810
vn 0.2720 -0.9533 -0.1313
vn 0.2712 -0.9542 -0.1266
vn 0.8914 0.4261 0.1542
vn 0.3576 0.5312 -0.7680
vn 0.2951 0.9506 -0.0967
vn 0.1965 0.4728 -0.8590
vn 0.1367 -0.8531 0.5035
vn 0.7990 -0.4962 0.3397
vn 0.8889 -0.4307 0.1559
vn 0.2721 0.9539 -0.1270
vn 0.9658 -0.1993 -0.1658
vn 0.9569 -0.1868 -0.2225
vn 0.5300 -0.0000 -0.8480
vn 0.6831 -0.4841 -0.5469
vn 0.2951 -0.9506 -0.0967
vn 0.3420 -0.5341 -0.7731
vn 0.2471 -0.5392 -0.8051
vn 0.2708 0.9549 -0.1217
vn 0.1966 -0.4726 -0.8591
vn 0.7302 0.3840 0.5651
vn 0.8024 0.3464 0.4860
vn 0.1308 -0.8780 -0.4605
vn 0.4222 0.9012 -0.0979
vt 0.072897 0.228017
vt 0.070142 0.137181
vt 0.084086 0.174726
vt 0.077540 0.136161
vt 0.081022 0.136821
vt 0.065562 0.140291
vt 0.580829 0.884291
vt 0.582526 0.878075
vt 0.583933 0.879714
vt 0.586049 0.876268
vt 0.585702 0.876009
vt 0.074187 0.134968
vt 0.075709 0.135559
vt 0.073439 0.134518
vt 0.073816 0.134726
vt 0.586380 0.876045
vt 0.586588 0.876423
vt 0.968870 0.181514
vt 0.969647 0.183540
vt 0.969234 0.183407
vt 0.495103 0.871719
vt 0.495455 0.868672
vt 0.498549 0.870394
vt 0.493114 0.867302
vt 0.493301 0.867445
vt 0.964247 0.183248
vt 0.967841 0.179914
vt 0.964737 0.178077
vt 0.964024 0.183227
vt 0.962484 0.177932
vt 0.962009 0.182799
vt 0.957231 0.180590
vt 0.961658 0.182722
vt 0.957273 0.182890
vt 0.489992 0.866571
vt 0.488831 0.861451
vt 0.489117 0.862242
vt 0.485035 0.860352
vt 0.484502 0.869380
vt 0.478934 0.863474
vt 0.479786 0.871859
vt 0.578616 0.882781
vt 0.570613 0.885975
vt 0.574043 0.879651
vt 0.490434 0.874109
vt 0.473695 0.866229
vt 0.531076 0.795820
vt 0.538670 0.804370
vt 0.531404 0.802361
vt 0.575699 0.888160
vt 0.524910 0.794074
vt 0.525189 0.799637
vt 0.573888 0.894004
vt 0.577608 0.892590
vt 0.524739 0.788121
vt 0.573251 0.900089
vt 0.049765 0.215665
vt 0.047428 0.144231
vt 0.057259 0.143519
vt 0.576898 0.902420
vt 0.050956 0.249114
vt 0.027608 0.228163
vt 0.037085 0.142154
vt 0.575554 0.912047
vt 0.578968 0.912769
vt 0.578405 0.917460
vt 0.573813 0.906181
vt 0.583743 0.920484
vt 0.029376 0.137371
vt 0.524912 0.770231
vt 0.531078 0.767784
vt 0.530875 0.774528
vt 0.524739 0.775966
vt 0.582258 0.922213
vt 0.573795 0.920428
vt 0.578326 0.926017
vt 0.581107 0.926006
vt 0.580959 0.926099
vt 0.585758 0.924069
vt 0.585622 0.924168
vt 0.582854 0.925342
vt 0.968976 0.186414
vt 0.966554 0.184076
vt 0.969401 0.184482
vt 0.585862 0.924847
vt 0.586588 0.923841
vt 0.023710 0.135798
vt 0.025020 0.135241
vt 0.015891 0.174049
vt 0.018407 0.137176
vt 0.021966 0.136416
vt 0.017354 0.216845
vt 0.011881 0.212078
vt 0.011317 0.137264
vt 0.011450 0.137131
vt 0.013174 0.137558
vt 0.000000 0.181760
vt 0.008641 0.207269
vt 0.240075 0.217521
vt 0.199521 0.195552
vt 0.199308 0.194593
vt 0.011324 0.137117
vt 0.199258 0.194361
vt 0.199399 0.194384
vt 0.960238 0.196852
vt 0.963036 0.194964
vt 0.961596 0.196391
vt 0.956897 0.197870
vt 0.963027 0.194815
vt 0.963182 0.189036
vt 0.956106 0.194967
vt 0.965242 0.189219
vt 0.963219 0.194771
vt 0.966217 0.190752
vt 0.999293 0.971528
vt 0.999298 0.971699
vt 0.999102 0.971699
vt 0.968096 0.187830
vt 0.964718 0.183717
vt 0.965653 0.183886
vt 0.818325 0.975453
vt 0.816554 0.975029
vt 0.818325 0.971806
vt 0.964514 0.183706
vt 0.962618 0.183984
vt 0.958150 0.185874
vt 0.962287 0.184036
vt 0.921837 0.467352
vt 0.926213 0.475194
vt 0.923363 0.471647
vt 0.951642 0.183571
vt 0.954211 0.183943
vt 0.920517 0.469534
vt 0.922686 0.471145
vt 0.915493 0.461644
vt 0.918429 0.468038
vt 0.918181 0.467878
vt 0.538673 0.759145
vt 0.546711 0.757575
vt 0.546323 0.764800
vt 0.538307 0.765951
vt 0.531407 0.761659
vt 0.546084 0.772755
vt 0.538082 0.773444
vt 0.546003 0.781133
vt 0.538006 0.781336
vt 0.546083 0.789614
vt 0.538081 0.789325
vt 0.530806 0.781631
vt 0.530874 0.788821
vt 0.524681 0.782007
vt 0.538306 0.797102
vt 0.546321 0.797870
vt 0.546709 0.805585
vt 0.554816 0.798095
vt 0.554573 0.789677
vt 0.563223 0.789512
vt 0.563461 0.797768
vt 0.554491 0.781030
vt 0.563143 0.781032
vt 0.554574 0.772488
vt 0.571627 0.781137
vt 0.571704 0.773244
vt 0.563224 0.772653
vt 0.571929 0.765751
vt 0.554817 0.764377
vt 0.563463 0.764699
vt 0.555213 0.757011
vt 0.912089 0.466237
vt 0.911891 0.466217
vt 0.910720 0.466100
vt 0.908291 0.456858
vt 0.900508 0.453176
vt 0.904950 0.462383
vt 0.563851 0.757474
vt 0.572294 0.758945
vt 0.564373 0.751256
vt 0.897231 0.458596
vt 0.888244 0.460759
vt 0.889356 0.455847
vt 0.572786 0.753088
vt 0.893511 0.464892
vt 0.179858 0.244975
vt 0.182576 0.235910
vt 0.218845 0.236016
vt 0.881592 0.454278
vt 0.179543 0.225865
vt 0.891387 0.471736
vt 0.143518 0.090397
vt 0.177345 0.056363
vt 0.156985 0.087894
vt 0.228479 0.238104
vt 0.229402 0.242117
vt 0.177345 0.247343
vt 0.178464 0.223199
vt 0.215900 0.227316
vt 0.177964 0.223226
vt 0.229956 0.234531
vt 0.236595 0.239570
vt 0.270448 0.247343
vt 0.249828 0.233536
vt 0.236094 0.243564
vt 0.136148 0.092193
vt 0.139659 0.095180
vt 0.270071 0.243826
vt 0.095314 0.092880
vt 0.094597 0.095180
vt 0.398286 0.152496
vt 0.396068 0.148500
vt 0.422256 0.137851
vt 0.428702 0.148690
vt 0.402455 0.156669
vt 0.429658 0.145710
vt 0.398536 0.155515
vt 0.438768 0.149958
vt 0.437351 0.152835
vt 0.438749 0.145577
vt 0.431103 0.141454
vt 0.442941 0.145386
vt 0.448250 0.143125
vt 0.452380 0.148255
vt 0.446917 0.152561
vt 0.445019 0.151839
vt 0.442361 0.138676
vt 0.434561 0.137248
vt 0.452057 0.154018
vt 0.053655 0.064921
vt 0.051858 0.071970
vt 0.051143 0.065293
vt 0.059859 0.070046
vt 0.052565 0.074094
vt 0.072870 0.032446
vt 0.091219 0.058225
vt 0.093924 0.089022
vt 0.058511 0.078074
vt 0.091873 0.090515
vt 0.116384 0.054965
vt 0.127873 0.055683
vt 0.137929 0.087142
vt 0.136651 0.080000
vt 0.131197 0.066253
vt 0.122637 0.046618
vt 0.135782 0.048776
vt 0.172802 0.052614
vt 0.128297 0.044511
vt 0.639804 0.972710
vt 0.644389 0.971806
vt 0.639895 0.974609
vt 0.174571 0.053315
vt 0.166818 0.049393
vt 0.579889 0.767495
vt 0.580218 0.761370
vt 0.586230 0.763713
vt 0.585553 0.769372
vt 0.579686 0.774238
vt 0.585159 0.775280
vt 0.150886 0.036144
vt 0.161955 0.045291
vt 0.156442 0.036876
vt 0.579617 0.781341
vt 0.585377 0.785294
vt 0.571703 0.789125
vt 0.579685 0.788531
vt 0.571927 0.796902
vt 0.572292 0.804170
vt 0.579887 0.795531
vt 0.580657 0.807902
vt 0.572783 0.810649
vt 0.564370 0.812361
vt 0.563849 0.805484
vt 0.580215 0.802071
vt 0.555210 0.805962
vt 0.547230 0.812463
vt 0.555742 0.812974
vt 0.473944 0.856617
vt 0.480421 0.853303
vt 0.539161 0.810848
vt 0.469725 0.849073
vt 0.476328 0.845694
vt 0.486611 0.849603
vt 0.486686 0.850166
vt 0.486665 0.853499
vt 0.941624 0.180362
vt 0.949913 0.182857
vt 0.943894 0.182414
vt 0.943130 0.182521
vt 0.941927 0.182577
vt 0.486748 0.848145
vt 0.486631 0.849392
vt 0.483610 0.842047
vt 0.486981 0.846770
vt 0.486759 0.847863
vt 0.940679 0.182739
vt 0.941663 0.182626
vt 0.936070 0.182497
vt 0.937699 0.183074
vt 0.488307 0.841248
vt 0.488000 0.841928
vt 0.935746 0.183231
vt 0.936325 0.183228
vt 0.931395 0.182746
vt 0.933955 0.183073
vt 0.932476 0.183230
vt 0.933212 0.178143
vt 0.932887 0.178380
vt 0.938369 0.175374
vt 0.972426 0.906446
vt 0.972463 0.901425
vt 0.976627 0.902930
vt 0.976296 0.902294
vt 0.983351 0.903368
vt 0.976961 0.902279
vt 0.982841 0.901989
vt 0.944503 0.173239
vt 0.948619 0.176428
vt 0.948499 0.170770
vt 0.950460 0.170171
vt 0.987562 0.900889
vt 0.983658 0.901948
vt 0.024218 0.046492
vt 0.011968 0.019953
vt 0.016942 0.016817
vt 0.950695 0.170105
vt 0.951618 0.170007
vt 0.005268 0.022196
vt 0.021937 0.050366
vt 0.005214 0.022211
vt 0.034567 0.052350
vt 0.027773 0.037004
vt 0.028379 0.057376
vt 0.024640 0.057788
vt 0.025248 0.001127
vt 0.025172 0.001659
vt 0.021884 0.011131
vt 0.023906 0.006705
vt 0.803777 0.971806
vt 0.806905 0.975065
vt 0.803777 0.975655
vt 0.503457 0.977430
vt 0.500955 0.977700
vt 0.501046 0.975493
vt 0.501590 0.973224
vt 0.501097 0.974657
vt 0.501376 0.972766
vt 0.495035 0.828719
vt 0.495528 0.831157
vt 0.493909 0.832839
vt 0.496773 0.830305
vt 0.496244 0.830720
vt 0.501211 0.972424
vt 0.501027 0.973985
vt 0.500812 0.971806
vt 0.025271 0.000738
vt 0.036470 0.041626
vt 0.025321 0.000275
vt 0.028019 0.002320
vt 0.048464 0.007931
vt 0.051143 0.006280
vt 0.038601 0.007899
vt 0.038472 0.051243
vt 0.470882 0.816090
vt 0.473489 0.816801
vt 0.468613 0.822469
vt 0.157783 0.006665
vt 0.156422 0.007582
vt 0.157853 0.003569
vt 0.110142 0.000000
vt 0.042831 0.053542
vt 0.474711 0.819402
vt 0.470308 0.829975
vt 0.463123 0.825279
vt 0.467630 0.816906
vt 0.156469 0.010213
vt 0.131209 0.036390
vt 0.154369 0.015674
vt 0.463202 0.819494
vt 0.153339 0.021955
vt 0.586230 0.804989
vt 0.585628 0.799929
vt 0.153743 0.028308
vt 0.585374 0.794130
vt 0.121280 0.036442
vt 0.121068 0.024989
vt 0.112361 0.044345
vt 0.111640 0.012259
vt 0.106345 0.005915
vt 0.103204 0.002965
vt 0.071750 0.029060
vt 0.048571 0.102263
vt 0.039179 0.059733
vt 0.044245 0.061004
vt 0.051143 0.099786
vt 0.041954 0.133052
vt 0.044331 0.130355
vt 0.053313 0.055402
vt 0.069714 0.028338
vt 0.034418 0.129915
vt 0.033461 0.075178
vt 0.044988 0.100480
vt 0.026406 0.101797
vt 0.027083 0.085556
vt 0.027579 0.112824
vt 0.024404 0.093705
vt 0.022640 0.095031
vt 0.024436 0.111918
vt 0.029991 0.122067
vt 0.025792 0.123174
vt 0.022802 0.114472
vt 0.020213 0.102510
vt 0.073560 0.241615
vt 0.084100 0.231286
vt 0.077815 0.240262
vt 0.081884 0.229755
vt 0.089524 0.219266
vt 0.076115 0.234766
vt 0.071410 0.245447
vt 0.064802 0.247643
vt 0.050593 0.251784
vt 0.064490 0.252745
vt 0.070791 0.250302
vt 0.033146 0.131717
vt 0.027049 0.128441
vt 0.037552 0.134517
vt 0.463322 0.147759
vt 0.460690 0.150493
vt 0.459191 0.144772
vt 0.454820 0.150487
vt 0.458953 0.154798
vt 0.453109 0.141959
vt 0.056590 0.254350
vt 0.448179 0.136093
vt 0.035965 0.247817
vt 0.036482 0.252914
vt 0.044368 0.254424
vt 0.027179 0.242026
vt 0.029363 0.245700
vt 0.427634 0.136856
vt 0.426654 0.131347
vt 0.433533 0.132540
vt 0.416804 0.133235
vt 0.419289 0.129826
vt 0.406480 0.127701
vt 0.406322 0.130922
vt 0.205701 0.984548
vt 0.205701 0.971806
vt 0.208923 0.976514
vt 0.392568 0.126359
vt 0.396685 0.129719
vt 0.207736 0.985923
vt 0.410106 0.126359
vt 0.018055 0.230417
vt 0.016515 0.231694
vt 0.010984 0.219739
vt 0.023165 0.241172
vt 0.024411 0.234962
vt 0.005986 0.213791
vt 0.268285 0.221984
vt 0.273366 0.225743
vt 0.259132 0.226491
vt 0.381978 0.130640
vt 0.374503 0.138346
vt 0.244070 0.228093
vt 0.259460 0.222527
vt 0.245993 0.224718
vt 0.235762 0.227953
vt 0.225221 0.224008
vt 0.232247 0.221039
vt 0.199979 0.199059
vt 0.199994 0.198538
vt 0.199999 0.198468
vt 0.952520 0.197608
vt 0.956818 0.197879
vt 0.199890 0.202786
vt 0.199719 0.203648
vt 0.951359 0.197466
vt 0.194664 0.215362
vt 0.197684 0.210409
vt 0.949710 0.190336
vt 0.949411 0.196877
vt 0.945469 0.194227
vt 0.956193 0.190469
vt 0.942521 0.186781
vt 0.951284 0.183737
vt 0.944787 0.184479
vt 0.951340 0.183540
vt 0.950900 0.183558
vt 0.917283 0.467587
vt 0.912619 0.466398
vt 0.942758 0.184519
vt 0.944005 0.184434
vt 0.941441 0.184543
vt 0.942483 0.184501
vt 0.939076 0.192729
vt 0.936589 0.185523
vt 0.936833 0.184748
vt 0.935318 0.191817
vt 0.931395 0.186590
vt 0.932578 0.185798
vt 0.934224 0.185539
vt 0.933249 0.190934
vt 0.933075 0.190856
vt 0.936206 0.184876
vt 0.904076 0.466526
vt 0.904735 0.466344
vt 0.901933 0.467489
vt 0.900053 0.468237
vt 0.898923 0.468617
vt 0.507544 0.980771
vt 0.507652 0.981415
vt 0.506796 0.981086
vt 0.507185 0.978871
vt 0.895580 0.470929
vt 0.893821 0.472345
vt 0.505038 0.975340
vt 0.506959 0.977645
vt 0.506366 0.974665
vt 0.505793 0.972842
vt 0.184542 0.222058
vt 0.189023 0.220177
vt 0.178860 0.223192
vt 0.506086 0.972049
vt 0.506334 0.973991
vt 0.892892 0.473494
vt 0.893352 0.472989
vt 0.503457 0.981415
vt 0.504377 0.977767
vt 0.909397 0.466114
vt 0.910449 0.466068
vt 0.938674 0.193230
vt 0.939297 0.193455
vt 0.945550 0.195680
vt 0.944784 0.195408
vt 0.002075 0.203672
vt 0.088040 0.210839
vt 0.091754 0.206768
vt 0.088188 0.136801
vt 0.095917 0.179502
vt 0.100714 0.180871
vt 0.086059 0.137112
vt 0.086308 0.137122
vt 0.881592 0.785134
vt 0.926362 0.785194
vt 0.925896 0.785928
vt 0.088052 0.136669
vt 0.088188 0.136653
vt 0.997423 0.971097
vt 0.998570 0.971684
vt 0.996691 0.971684
vt 0.962454 0.172853
vt 0.956129 0.169853
vt 0.959687 0.171155
vt 0.558379 0.971904
vt 0.558511 0.971806
vt 0.558497 0.972054
vt 0.955165 0.172221
vt 0.556608 0.977652
vt 0.558619 0.973736
vt 0.558619 0.980614
vt 0.558301 0.977087
vt 0.955174 0.176216
vt 0.827864 0.974261
vt 0.824679 0.975222
vt 0.824679 0.971806
vt 0.004445 0.022461
vt -0.000000 0.023068
vt 0.000304 0.023068
vt 0.878373 0.921034
vt 0.878373 0.875675
vt 0.880733 0.876641
vt 0.950288 0.182656
vt 0.956321 0.182791
vt 0.953269 0.182471
vt 0.950352 0.182854
vt 0.950658 0.182822
vt 0.486650 0.855913
vt 0.486719 0.856320
vt 0.487911 0.858912
vt 0.098510 0.203091
vt 0.024714 0.066953
vt 0.018153 0.062687
vt 0.022722 0.084575
vt 0.025799 0.080858
vt 0.094866 0.212970
vt 0.027972 0.071158
vt 0.051405 0.055682
vt 0.535969 0.971806
vt 0.535969 0.981254
vt 0.533870 0.978816
vt 0.472913 0.837817
vt 0.466437 0.841131
vt 0.477036 0.826606
vt 0.464208 0.833097
vt 0.482905 0.825440
vt 0.480055 0.834240
vt 0.487588 0.830539
vt 0.489718 0.839045
vt 0.491645 0.835421
vt 0.491231 0.836052
vt 0.501600 0.981086
vt 0.500812 0.981545
vt 0.500829 0.980890
vt 0.500909 0.978950
vt 0.641912 0.978215
vt 0.644389 0.979053
vt 0.580678 0.756069
vt 0.084392 0.136830
vt 0.075807 0.135590
vt 0.586137 0.875675
vt 0.966297 0.183279
vt 0.965288 0.183272
vt 0.969684 0.182879
vt 0.494372 0.868073
vt 0.491881 0.865625
vt 0.492058 0.865875
vt 0.968817 0.181428
vt 0.580181 0.927248
vt 0.580051 0.927451
vt 0.581975 0.925658
vt 0.969543 0.184458
vt 0.969607 0.185350
vt 0.968959 0.186442
vt 0.026024 0.134518
vt 0.023676 0.135813
vt 0.014962 0.137260
vt 0.013428 0.137545
vt 0.199937 0.198115
vt 0.961322 0.196495
vt 0.961711 0.196304
vt 0.957257 0.197827
vt 0.964291 0.193624
vt 0.958121 0.183540
vt 0.927079 0.473761
vt 0.957191 0.183636
vt 0.917814 0.467722
vt 0.177670 0.223253
vt 0.943334 0.182512
vt 0.947385 0.182671
vt 0.487678 0.843456
vt 0.931655 0.183540
vt 0.933038 0.178269
vt 0.970239 0.900889
vt 0.021616 0.011521
vt 0.021759 0.011313
vt 0.005505 0.022146
vt 0.007462 0.021609
vt 0.020115 0.013350
vt 0.017495 0.016445
vt 0.011276 0.020388
vt 0.950752 0.170095
vt 0.024857 0.003868
vt 0.502476 0.975121
vt 0.493023 0.833853
vt 0.498549 0.829076
vt 0.500975 0.972031
vt 0.025366 -0.000000
vt 0.956284 0.197856
vt 0.951589 0.197533
vt 0.199677 0.203886
vt 0.189211 0.220053
vt 0.189407 0.219924
vt 0.191195 0.218491
vt 0.199207 0.205862
vt 0.198104 0.209717
vt 0.194300 0.215917
vt 0.950276 0.183652
vt 0.944216 0.184420
vt 0.938288 0.184683
vt 0.933431 0.191016
vt 0.931656 0.185716
vt 0.906206 0.466272
vt 0.898270 0.468966
vt 0.896637 0.470160
vt 0.506547 0.975482
vt 0.505640 0.973345
vt 0.179425 0.223135
vt 0.181665 0.222909
vt 0.505906 0.972481
vt 0.506213 0.971806
vt 0.891518 0.475194
vt 0.925770 0.786173
vt 0.926224 0.785134
vt 0.997325 0.971094
vt 0.998545 0.971516
vt 0.960013 0.171222
vt 0.956477 0.169910
vt 0.828027 0.974445
vt 0.000528 0.023005
vt 0.486828 0.856594
vt 0.490755 0.837156
s 1
usemtl pleuraldeles_skin
f 3/1/1 1/2/2 2/3/3
f 1/2/2 373/4/4 372/5/4
f 5/6/5 1/2/2 3/1/1
f 5/7/6 4/8/7 1/9/8
f 9/10/9 1/9/8 11/11/10
f 1/2/2 10/12/11 14/13/12
f 1/2/2 8/14/13 7/15/14
f 9/10/15 7/16/16 8/17/16
f 14/18/17 9/19/15 11/20/18
f 4/21/7 12/22/19 11/23/10
f 4/21/7 17/24/20 15/25/21
f 15/26/22 373/27/23 14/18/17
f 16/28/24 17/29/25 18/30/26
f 18/30/26 19/31/27 20/32/28
f 20/32/28 21/33/29 22/34/30
f 23/35/31 384/36/32 22/37/32
f 24/38/33 23/35/31 25/39/34
f 25/39/34 23/35/31 4/21/7
f 25/39/34 26/40/35 24/38/33
f 28/41/36 26/40/35 25/39/34
f 27/42/37 28/43/36 25/44/34
f 27/45/37 25/39/34 4/21/7
f 28/41/36 29/46/38 26/40/35
f 31/47/39 29/48/38 28/49/36
f 27/42/37 30/50/40 28/43/36
f 32/51/41 28/49/36 30/52/40
f 32/51/41 31/47/39 28/49/36
f 32/53/41 30/50/40 34/54/42
f 33/55/43 31/47/39 32/51/41
f 33/56/43 32/53/41 34/54/42
f 5/7/6 34/54/42 30/50/40
f 37/57/44 35/58/45 34/59/46
f 33/56/43 34/54/42 35/60/47
f 34/59/46 5/6/5 3/1/1
f 3/1/1 36/61/48 34/59/46
f 37/57/44 34/59/46 36/61/48
f 37/57/44 36/61/48 38/62/49
f 39/63/50 37/57/44 38/62/49
f 37/57/44 39/63/50 35/58/45
f 40/64/51 39/65/52 43/66/53
f 42/67/54 39/65/52 40/64/51
f 39/65/52 41/68/55 43/66/53
f 38/62/49 41/69/56 39/63/50
f 35/60/47 39/65/52 42/67/54
f 43/70/53 45/71/57 44/72/58
f 43/70/53 44/72/58 40/73/51
f 46/74/59 43/66/53 41/68/55
f 45/75/57 43/66/53 46/74/59
f 47/76/60 75/77/61 76/78/61
f 47/76/60 45/75/57 46/74/59
f 41/68/55 50/79/62 49/80/63
f 48/81/64 46/74/59 49/80/63
f 53/82/65 48/83/66 49/84/66
f 52/85/67 50/79/68 51/86/69
f 41/69/56 53/87/70 52/88/71
f 55/89/72 74/90/73 73/91/73
f 57/92/74 56/93/75 55/89/72
f 56/93/75 59/94/76 55/89/72
f 38/62/49 57/92/74 55/89/72
f 55/89/72 41/69/56 38/62/49
f 55/89/72 62/95/77 71/96/78
f 61/97/79 59/94/76 60/98/80
f 60/98/80 59/94/76 56/93/75
f 61/99/79 65/100/81 64/101/82
f 59/94/76 63/102/83 62/95/77
f 64/101/82 63/103/83 59/104/76
f 65/105/84 71/106/85 63/107/86
f 309/108/87 67/109/88 65/105/84
f 69/110/89 67/109/88 68/111/90
f 69/110/89 70/112/91 67/109/88
f 72/113/92 70/112/91 74/114/93
f 71/115/85 67/116/88 72/117/92
f 73/118/94 75/119/95 77/120/96
f 74/121/93 70/122/91 73/123/94
f 70/112/91 76/124/97 75/119/95
f 69/110/89 78/125/98 76/124/97
f 79/126/99 80/127/100 78/125/98
f 84/128/101 80/129/102 81/130/103
f 79/126/99 320/131/104 83/132/105
f 83/133/106 84/128/101 82/134/103
f 85/135/107 320/136/108 321/137/108
f 84/138/101 85/139/107 86/140/109
f 87/141/110 47/142/60 84/138/101
f 84/138/101 86/140/109 87/141/110
f 87/141/110 86/140/109 88/143/111
f 87/141/110 88/143/111 89/144/112
f 45/71/57 87/141/110 89/144/112
f 87/141/110 45/71/57 47/142/60
f 89/144/112 88/143/111 90/145/113
f 44/72/58 89/144/112 91/146/114
f 45/71/57 89/144/112 44/72/58
f 89/144/112 90/145/113 91/146/114
f 91/146/114 90/145/113 92/147/115
f 91/146/114 92/147/115 93/148/116
f 94/149/117 91/146/114 93/148/116
f 44/72/58 91/146/114 94/149/117
f 94/149/117 93/148/116 95/150/118
f 42/151/54 94/149/117 95/150/118
f 42/151/54 44/72/58 94/149/117
f 95/150/118 93/148/116 96/152/119
f 95/150/118 96/152/119 31/47/39
f 33/55/43 95/150/118 31/47/39
f 42/151/54 95/150/118 33/55/43
f 29/48/38 96/152/119 97/153/120
f 31/47/39 96/152/119 29/48/38
f 93/148/116 97/153/120 96/152/119
f 98/154/121 97/153/120 99/155/122
f 29/48/38 97/153/120 98/154/121
f 97/153/120 100/156/123 99/155/122
f 97/153/120 92/147/115 100/156/123
f 93/148/116 92/147/115 97/153/120
f 100/156/123 101/157/124 102/158/125
f 103/159/126 101/157/124 100/156/123
f 100/156/123 102/158/125 99/155/122
f 92/147/115 103/159/126 100/156/123
f 103/159/126 105/160/127 101/157/124
f 92/147/115 90/145/113 103/159/126
f 90/145/113 104/161/128 103/159/126
f 104/161/128 105/160/127 103/159/126
f 101/157/124 105/160/127 106/162/129
f 105/160/127 107/163/130 106/162/129
f 105/160/127 108/164/131 107/163/130
f 104/161/128 108/164/131 105/160/127
f 108/164/131 109/165/132 107/163/130
f 111/166/133 108/164/131 104/161/128
f 108/164/131 110/167/134 109/165/132
f 111/166/133 110/167/134 108/164/131
f 88/143/111 86/140/109 111/166/133
f 88/143/111 111/166/133 104/161/128
f 110/167/134 111/166/133 112/168/135
f 86/140/109 112/168/135 111/166/133
f 86/140/109 85/139/107 112/168/135
f 85/135/107 325/169/136 114/170/136
f 357/171/137 112/172/135 114/170/136
f 115/173/138 112/172/135 113/174/139
f 110/167/134 112/168/135 115/175/138
f 109/165/132 110/167/134 115/175/138
f 109/165/132 115/175/138 116/176/140
f 116/176/140 115/175/138 117/177/141
f 115/173/138 113/174/139 117/178/141
f 120/179/142 118/180/143 117/178/141
f 116/176/140 117/177/141 118/181/143
f 117/178/141 113/174/139 119/182/144
f 117/178/141 119/182/144 120/179/142
f 121/183/145 120/184/146 123/185/147
f 121/186/148 118/180/143 120/179/142
f 120/184/146 122/187/149 123/185/147
f 120/179/142 119/182/144 122/188/150
f 124/189/151 127/190/152 123/191/147
f 129/192/153 124/193/151 123/185/147
f 123/185/147 127/194/152 121/183/145
f 123/185/147 346/195/154 126/196/155
f 122/187/149 125/197/156 123/185/147
f 126/196/155 128/198/157 123/185/147
f 128/198/157 129/192/153 123/185/147
f 130/199/158 124/193/151 129/192/153
f 128/198/157 130/199/158 129/192/153
f 133/200/159 130/199/158 131/201/160
f 128/198/157 131/201/160 130/199/158
f 133/200/159 132/202/161 130/199/158
f 132/203/161 124/189/151 130/204/158
f 133/200/159 131/201/160 134/205/162
f 136/206/163 132/203/161 133/207/159
f 133/208/159 134/209/162 138/210/164
f 135/211/165 137/212/166 133/208/159
f 139/213/167 135/211/165 133/208/159
f 137/212/166 136/214/163 133/208/159
f 133/208/159 138/210/164 139/213/167
f 139/213/167 140/215/168 141/216/169
f 143/217/170 140/215/168 139/213/167
f 142/218/171 139/213/167 138/210/164
f 139/213/167 141/216/169 135/211/165
f 143/217/170 139/213/167 142/218/171
f 144/219/172 140/215/168 143/217/170
f 142/218/171 144/219/172 143/217/170
f 147/220/173 145/221/174 144/219/172
f 150/222/175 144/219/172 145/221/174
f 150/222/175 146/223/176 144/219/172
f 144/219/172 146/223/176 140/215/168
f 148/224/177 147/220/173 144/219/172
f 144/219/172 149/225/178 148/224/177
f 144/219/172 142/218/171 149/225/178
f 151/226/179 150/222/175 145/221/174
f 152/227/180 150/228/181 151/229/179
f 150/228/181 152/227/180 153/230/182
f 150/228/181 153/230/182 146/231/183
f 152/227/180 154/232/184 153/230/182
f 154/232/184 155/233/185 153/230/182
f 155/233/185 156/234/186 153/230/182
f 146/231/183 153/230/182 141/235/169
f 153/230/182 156/234/186 137/236/166
f 153/230/182 137/236/166 141/235/169
f 155/233/185 157/237/187 156/234/186
f 157/237/187 161/238/188 156/234/186
f 136/206/163 137/236/166 156/234/186
f 160/239/189 136/206/163 156/234/186
f 160/239/189 156/234/186 158/240/190
f 159/241/191 158/240/190 156/234/186
f 161/238/188 159/241/191 156/234/186
f 161/238/188 157/237/187 164/242/192
f 161/238/188 162/243/193 165/244/194
f 161/238/188 163/245/195 162/243/193
f 161/238/188 164/242/192 163/245/195
f 159/241/191 161/238/188 165/244/194
f 165/246/196 168/247/197 166/248/198
f 160/239/189 165/244/194 166/249/199
f 158/240/190 159/241/191 165/244/194
f 160/239/189 158/240/190 165/244/194
f 169/250/200 165/244/194 162/243/193
f 167/251/201 168/252/197 165/253/196
f 169/254/202 167/251/201 165/253/196
f 170/255/203 167/251/201 169/254/202
f 172/256/204 170/255/203 169/254/202
f 162/243/193 171/257/205 169/250/200
f 169/250/200 171/257/205 172/258/206
f 171/257/205 173/259/207 172/258/206
f 174/260/208 170/255/203 172/256/204
f 173/261/209 174/260/208 172/256/204
f 176/262/210 106/162/129 174/260/208
f 106/162/129 170/255/203 174/260/208
f 175/263/211 174/260/208 173/261/209
f 176/262/210 174/260/208 175/263/211
f 101/157/124 176/262/210 177/264/212
f 101/157/124 106/162/129 176/262/210
f 177/264/212 176/262/210 175/263/211
f 179/265/213 177/264/212 178/266/214
f 177/264/212 175/263/211 178/266/214
f 102/158/125 177/264/212 179/265/213
f 101/157/124 177/264/212 102/158/125
f 183/267/215 180/268/216 179/265/213
f 181/269/217 179/265/213 180/268/216
f 181/269/217 184/270/218 179/265/213
f 179/265/213 178/266/214 182/271/219
f 183/267/215 179/265/213 182/271/219
f 102/158/125 179/265/213 184/270/218
f 185/272/220 184/270/218 181/269/217
f 99/155/122 184/270/218 185/272/220
f 99/155/122 102/158/125 184/270/218
f 187/273/221 98/154/121 185/272/220
f 98/154/121 99/155/122 185/272/220
f 185/272/220 181/269/217 186/274/222
f 187/273/221 185/272/220 186/274/222
f 26/40/35 187/275/221 188/276/223
f 29/48/38 187/273/221 26/277/35
f 188/276/223 187/275/221 186/278/222
f 29/48/38 98/154/121 187/273/221
f 188/276/223 186/278/222 189/279/224
f 189/279/224 192/280/225 190/281/226
f 188/276/223 191/282/227 24/38/33
f 26/40/35 188/276/223 24/38/33
f 193/283/228 382/284/229 190/285/230
f 193/283/228 194/286/231 195/287/232
f 189/279/224 195/288/233 194/289/225
f 196/290/234 198/291/235 197/292/236
f 198/293/237 193/283/228 197/294/238
f 202/295/239 198/293/237 199/296/240
f 196/290/234 201/297/241 200/298/235
f 201/299/242 202/295/239 200/300/243
f 203/301/244 395/302/245 393/303/246
f 204/304/247 203/301/244 225/305/248
f 202/295/239 205/306/249 193/283/228
f 202/307/239 206/308/250 205/309/249
f 206/308/250 208/310/251 205/309/249
f 209/311/252 207/312/253 213/313/254
f 208/310/251 207/312/253 205/309/249
f 205/306/249 209/314/252 193/283/228
f 209/314/252 210/315/255 193/283/228
f 210/315/255 211/316/256 214/317/257
f 211/318/256 209/311/252 212/319/258
f 213/313/254 212/319/258 209/311/252
f 217/320/259 213/321/260 207/322/260
f 215/323/261 376/324/262 210/315/255
f 215/325/263 221/326/264 216/327/265
f 218/328/266 217/320/259 220/329/267
f 219/330/268 217/320/259 218/328/266
f 222/331/269 217/320/259 219/330/268
f 234/332/270 220/329/267 223/333/271
f 222/331/269 221/326/264 217/320/259
f 217/320/259 225/334/272 226/335/272
f 226/336/273 225/337/248 203/338/244
f 226/339/273 229/340/274 228/341/275
f 223/342/276 230/343/277 234/344/278
f 231/345/279 228/346/280 229/347/281
f 231/345/279 232/348/282 230/349/283
f 235/350/284 232/351/285 233/352/284
f 235/353/286 237/354/287 220/329/267
f 236/355/288 231/356/289 237/354/287
f 238/357/290 241/358/291 237/354/287
f 238/357/290 237/354/287 240/359/292
f 237/354/287 239/360/293 218/328/266
f 237/354/287 218/328/266 220/329/267
f 240/359/292 237/354/287 231/356/289
f 239/360/293 237/354/287 241/358/291
f 242/361/294 241/362/295 245/363/296
f 242/364/297 244/365/298 241/366/291
f 243/367/299 241/366/291 244/365/298
f 243/368/299 239/360/293 241/358/291
f 241/362/295 238/369/300 245/363/296
f 238/369/300 246/370/301 245/363/296
f 246/370/301 183/371/215 245/363/296
f 245/363/296 183/371/215 247/372/302
f 247/372/302 242/361/294 245/363/296
f 244/365/303 242/364/303 247/373/303
f 248/374/304 247/373/305 249/375/306
f 247/373/305 248/374/304 244/365/298
f 183/371/215 249/376/307 247/372/302
f 249/375/306 171/257/205 248/374/304
f 171/257/205 249/375/306 250/377/308
f 183/267/215 182/271/219 249/378/307
f 182/271/219 250/379/309 249/378/307
f 171/257/205 250/377/308 251/380/310
f 182/271/219 178/266/214 250/379/309
f 178/266/214 251/381/311 250/379/309
f 171/257/205 251/380/310 173/259/207
f 178/266/214 175/263/211 251/381/311
f 175/263/211 173/261/209 251/381/311
f 163/245/195 248/374/304 171/257/205
f 252/382/312 248/374/304 163/245/195
f 248/374/304 252/382/312 244/365/298
f 164/242/192 252/382/312 163/245/195
f 252/382/312 254/383/313 244/365/298
f 252/382/312 253/384/314 154/232/184
f 252/382/312 154/232/184 254/383/313
f 252/382/312 164/242/192 253/384/314
f 254/383/313 154/232/184 255/385/315
f 254/383/313 255/385/315 244/365/298
f 255/385/315 256/386/316 244/365/298
f 154/232/184 256/386/316 255/385/315
f 243/367/299 244/365/298 256/386/316
f 243/367/299 256/386/316 258/387/317
f 154/232/184 257/388/318 256/386/316
f 257/388/318 258/387/317 256/386/316
f 260/389/319 259/390/320 258/391/317
f 259/390/320 243/368/299 258/391/317
f 257/392/318 260/389/319 258/391/317
f 262/393/321 260/389/319 261/394/322
f 261/395/322 260/396/319 257/388/318
f 262/393/321 263/397/323 260/389/319
f 264/398/324 259/390/320 260/389/319
f 263/397/323 265/399/325 260/389/319
f 264/398/324 260/389/319 265/399/325
f 268/400/326 266/401/327 265/399/325
f 265/399/325 266/401/327 264/398/324
f 263/397/323 267/402/328 265/399/325
f 267/402/328 268/400/326 265/399/325
f 266/401/327 268/400/326 269/403/329
f 270/404/330 269/403/329 268/400/326
f 271/405/331 270/404/330 268/400/326
f 268/400/326 267/402/328 271/405/331
f 272/406/332 273/407/333 271/405/331
f 267/402/328 272/406/332 271/405/331
f 271/405/331 273/407/333 275/408/334
f 270/404/330 271/405/331 274/409/335
f 271/405/331 275/408/334 274/409/335
f 277/410/336 275/411/334 273/412/333
f 277/410/336 276/413/337 275/411/334
f 275/411/334 276/413/337 274/414/335
f 277/410/336 278/415/338 276/413/337
f 278/415/338 277/410/336 36/61/48
f 273/412/333 279/416/339 277/410/336
f 277/410/336 280/417/340 36/61/48
f 280/417/340 277/410/336 279/416/339
f 280/417/340 281/418/341 36/61/48
f 280/417/340 282/419/342 281/418/341
f 283/420/343 280/417/340 279/416/339
f 283/420/343 282/419/342 280/417/340
f 263/397/323 283/421/343 273/407/333
f 273/407/333 283/421/343 279/422/339
f 263/397/323 284/423/344 283/421/343
f 283/424/343 284/425/344 282/426/342
f 282/426/342 284/425/344 145/221/174
f 284/425/344 285/427/345 145/221/174
f 262/428/321 285/427/345 284/425/344
f 263/397/323 262/393/321 284/423/344
f 151/226/179 145/221/174 285/427/345
f 262/428/321 151/226/179 285/427/345
f 282/426/342 145/221/174 286/429/346
f 281/418/341 282/419/342 286/430/346
f 145/221/174 147/220/173 286/429/346
f 147/220/173 281/431/341 286/429/346
f 36/61/48 281/418/341 287/432/347
f 287/432/347 281/418/341 149/433/178
f 281/418/341 148/434/177 149/433/178
f 147/220/173 148/224/177 281/431/341
f 287/432/347 288/435/348 36/61/48
f 287/432/347 289/436/349 288/435/348
f 290/437/350 289/438/349 287/439/347
f 290/437/350 287/439/347 149/225/178
f 290/437/350 149/225/178 142/218/171
f 142/218/171 138/210/164 290/437/350
f 290/437/350 292/440/351 291/441/352
f 291/441/352 289/438/349 290/437/350
f 290/437/350 138/210/164 292/440/351
f 291/441/352 292/440/351 294/442/353
f 293/443/354 292/440/351 138/210/164
f 293/443/354 294/442/353 292/440/351
f 294/444/353 295/445/355 297/446/356
f 295/447/355 294/442/353 296/448/357
f 296/448/357 294/442/353 293/443/354
f 298/449/358 294/444/353 297/446/356
f 294/442/353 298/450/358 291/441/352
f 299/451/359 298/452/358 297/453/356
f 288/435/348 291/454/352 298/452/358
f 288/435/348 298/452/358 299/451/359
f 56/93/75 57/92/74 299/451/359
f 56/93/75 299/451/359 297/453/356
f 38/62/49 300/455/360 299/451/359
f 300/455/360 288/435/348 299/451/359
f 38/62/49 299/451/359 57/92/74
f 300/455/360 36/61/48 288/435/348
f 36/61/48 300/455/360 38/62/49
f 60/98/80 297/453/356 295/456/355
f 56/93/75 297/453/356 60/98/80
f 295/457/355 296/458/357 301/459/361
f 293/443/354 134/209/162 296/448/357
f 296/448/357 134/209/162 301/460/361
f 134/209/162 131/461/160 301/460/361
f 301/459/361 131/201/160 304/462/362
f 303/463/363 301/459/361 302/464/364
f 301/459/361 304/462/362 302/464/364
f 303/463/363 295/457/355 301/459/361
f 131/201/160 305/465/365 304/462/362
f 304/462/362 305/465/365 302/464/364
f 131/201/160 128/198/157 305/465/365
f 305/465/365 306/466/366 307/467/367
f 305/465/365 128/198/157 306/466/366
f 302/464/364 305/465/365 307/467/367
f 307/467/367 310/468/368 308/469/369
f 308/469/369 309/470/370 61/99/79
f 307/467/367 61/99/79 302/464/364
f 311/471/371 309/108/87 308/472/372
f 311/473/373 306/466/366 312/474/374
f 313/475/375 68/111/90 311/471/371
f 306/466/366 354/476/376 355/477/376
f 315/478/377 314/479/378 316/480/379
f 315/478/377 318/481/380 68/111/90
f 317/482/381 315/478/377 316/480/379
f 317/482/381 319/483/382 315/478/377
f 319/483/382 318/481/380 315/478/377
f 319/483/382 317/482/381 324/484/383
f 319/483/382 79/126/99 318/481/380
f 321/485/384 320/131/104 319/483/382
f 319/483/382 322/486/385 321/485/384
f 85/135/107 323/487/108 324/488/386
f 317/482/381 357/489/387 114/490/387
f 318/481/380 69/110/89 68/111/90
f 79/126/99 69/110/89 318/481/380
f 328/491/388 326/492/389 317/482/381
f 317/482/381 316/480/379 327/493/390
f 329/494/391 317/482/381 327/493/390
f 328/491/388 329/494/391 332/495/392
f 352/496/393 329/494/391 327/493/390
f 330/497/394 335/498/395 334/499/396
f 329/494/391 350/500/397 349/501/398
f 333/502/399 332/495/392 329/494/391
f 333/503/400 113/174/139 332/504/400
f 119/182/144 334/505/401 335/506/402
f 122/188/150 119/182/144 336/507/403
f 337/508/404 336/509/405 330/510/394
f 330/510/394 338/511/406 337/508/404
f 122/188/150 339/512/407 340/513/407
f 342/514/408 339/515/409 330/510/394
f 341/516/410 342/514/408 345/517/411
f 306/466/366 343/518/412 349/519/412
f 346/195/154 345/520/413 306/466/366
f 125/521/414 347/522/415 345/517/411
f 347/523/416 122/188/150 341/524/417
f 330/510/394 349/525/398 343/526/418
f 328/527/419 113/174/139 326/528/400
f 352/496/393 327/493/390 353/529/420
f 327/493/390 354/530/421 353/529/420
f 316/480/379 354/530/421 327/493/390
f 316/480/379 356/531/422 355/532/423
f 316/480/379 314/479/378 356/531/422
f 126/196/155 306/466/366 128/198/157
f 303/533/363 61/97/79 60/98/80
f 61/99/79 303/463/363 302/464/364
f 303/533/363 60/98/80 295/456/355
f 293/443/354 138/210/164 134/209/162
f 288/435/348 289/436/349 291/454/352
f 3/1/1 276/413/337 278/415/338
f 3/1/1 278/415/338 36/61/48
f 276/413/337 3/1/1 2/3/3
f 358/534/424 276/413/337 2/3/3
f 274/414/335 276/413/337 358/534/424
f 274/414/335 358/534/424 359/535/425
f 358/534/424 360/536/426 359/535/425
f 2/3/3 360/536/426 358/534/424
f 361/537/427 360/536/426 362/538/428
f 359/535/425 360/536/426 361/537/427
f 2/3/3 370/539/429 368/540/429
f 362/541/428 364/542/430 365/543/431
f 363/544/432 364/545/430 360/536/426
f 363/546/433 367/547/434 365/548/435
f 367/549/434 375/550/436 366/551/437
f 367/552/434 368/553/438 370/554/439
f 369/555/440 367/549/434 18/30/26
f 18/30/26 367/549/434 16/28/24
f 16/556/24 370/554/439 371/557/441
f 373/558/23 16/556/24 372/559/442
f 210/315/255 369/555/440 374/560/443
f 374/560/443 369/555/440 18/30/26
f 377/561/444 369/562/440 376/563/262
f 221/326/264 376/564/445 216/327/265
f 221/326/264 378/565/446 375/566/447
f 362/567/428 366/568/448 378/569/446
f 374/560/443 18/30/26 20/32/28
f 379/570/449 374/560/443 20/32/28
f 210/315/255 374/560/443 379/570/449
f 193/283/228 210/315/255 379/570/449
f 20/32/28 384/571/450 383/572/450
f 381/573/451 379/570/449 380/574/452
f 382/284/229 379/570/449 381/573/451
f 24/38/33 382/575/227 381/576/227
f 383/577/453 384/36/32 24/38/33
f 361/537/427 362/538/428 386/578/454
f 385/579/455 362/580/428 222/331/269
f 385/579/455 386/581/454 362/580/428
f 221/326/264 222/331/269 362/580/428
f 386/581/454 387/582/456 266/401/327
f 266/401/327 270/404/330 386/581/454
f 361/537/427 386/578/454 359/535/425
f 386/578/454 270/583/330 359/535/425
f 387/582/456 386/581/454 385/579/455
f 388/584/457 266/401/327 387/582/456
f 387/582/456 385/579/455 388/584/457
f 219/330/268 264/398/324 388/584/457
f 388/584/457 222/331/269 219/330/268
f 264/398/324 266/401/327 388/584/457
f 388/584/457 385/579/455 222/331/269
f 359/535/425 270/583/330 274/414/335
f 272/406/332 263/397/323 273/407/333
f 267/402/328 263/397/323 272/406/332
f 266/401/327 269/403/329 270/404/330
f 264/398/324 219/330/268 259/390/320
f 152/227/180 151/229/179 262/585/321
f 152/586/180 262/587/321 261/588/322
f 261/395/322 154/232/184 152/227/180
f 154/232/184 261/395/322 257/388/318
f 259/390/320 239/360/293 243/368/299
f 219/330/268 218/328/266 259/390/320
f 218/328/266 239/360/293 259/390/320
f 253/384/314 155/233/185 154/232/184
f 253/384/314 157/237/187 155/233/185
f 157/237/187 253/384/314 164/242/192
f 246/370/301 389/589/458 181/590/217
f 390/591/459 389/589/458 246/370/301
f 246/370/301 180/592/216 183/371/215
f 238/369/300 390/591/459 246/370/301
f 246/370/301 181/590/217 180/592/216
f 390/591/459 238/369/300 240/593/460
f 390/591/459 391/594/461 389/589/458
f 391/594/461 390/591/459 240/593/460
f 391/594/461 196/290/234 189/279/224
f 391/594/461 392/595/462 196/290/234
f 391/594/461 189/279/224 389/589/458
f 240/593/460 392/595/462 391/594/461
f 392/595/462 395/596/463 196/290/234
f 392/595/462 396/597/464 394/598/464
f 240/593/460 231/345/279 392/595/462
f 203/599/244 394/600/465 396/601/466
f 397/602/467 203/599/244 396/601/466
f 389/589/458 189/279/224 186/278/222
f 389/589/458 186/278/222 181/590/217
f 162/243/193 163/245/195 171/257/205
f 106/162/129 107/163/130 170/255/203
f 107/163/130 167/251/201 170/255/203
f 127/603/468 166/248/198 168/247/197
f 121/604/148 127/603/468 168/247/197
f 109/165/132 168/252/197 167/251/201
f 109/165/132 116/176/140 168/252/197
f 116/176/140 121/605/148 168/252/197
f 107/163/130 109/165/132 167/251/201
f 160/239/189 166/249/199 127/190/152
f 132/203/161 160/239/189 124/189/151
f 136/206/163 160/239/189 132/203/161
f 124/189/151 160/239/189 127/190/152
f 140/215/168 146/223/183 141/216/169
f 135/211/165 141/216/169 137/212/166
f 116/176/140 118/181/143 121/605/148
f 90/145/113 88/143/111 104/161/128
f 42/151/54 40/73/51 44/72/58
f 33/56/43 35/60/47 42/67/54
f 30/50/40 27/42/37 5/7/6
f 5/7/6 27/42/37 4/8/7
f 371/606/469 2/3/3 1/2/2
f 1/2/2 6/607/470 373/4/4
f 372/5/4 371/606/469 1/2/2
f 9/10/9 8/17/9 1/9/8
f 1/9/8 4/8/7 11/11/10
f 1/2/2 7/15/14 10/12/11
f 14/13/12 6/607/470 1/2/2
f 9/10/15 10/608/471 7/16/16
f 12/609/18 13/610/472 14/18/17
f 14/18/17 10/611/471 9/19/15
f 11/20/18 12/609/18 14/18/17
f 13/612/473 12/22/19 4/21/7
f 4/21/7 23/35/31 21/613/474
f 4/21/7 21/613/474 19/614/475
f 15/25/21 13/612/473 4/21/7
f 4/21/7 19/614/475 17/24/20
f 14/18/17 13/610/472 15/26/22
f 15/26/22 16/28/24 373/27/23
f 373/27/23 6/615/476 14/18/17
f 16/28/24 15/26/22 17/29/25
f 18/30/26 17/29/25 19/31/27
f 20/32/28 19/31/27 21/33/29
f 22/37/32 21/613/474 23/35/31
f 23/35/31 24/38/33 384/36/32
f 78/616/61 80/617/102 47/76/60
f 47/76/60 46/74/59 48/81/64
f 47/76/60 48/81/64 77/618/61
f 76/78/61 78/616/61 47/76/60
f 47/76/60 77/618/61 75/77/61
f 49/80/63 46/74/59 41/68/55
f 41/68/55 51/86/62 50/79/62
f 50/619/68 52/620/67 53/82/65
f 53/82/65 54/621/477 77/120/96
f 53/82/65 77/120/96 48/83/66
f 49/84/66 50/619/68 53/82/65
f 52/88/71 51/622/71 41/69/56
f 41/69/56 55/89/72 53/87/70
f 54/623/73 53/87/70 55/89/72
f 55/89/72 58/624/478 74/90/73
f 73/91/73 54/623/73 55/89/72
f 72/625/78 58/624/478 55/89/72
f 55/89/72 59/94/76 62/95/77
f 71/96/78 72/625/78 55/89/72
f 64/101/82 59/104/76 61/99/79
f 61/99/79 66/626/479 65/100/81
f 63/107/86 64/627/480 65/105/84
f 65/105/84 67/109/88 71/106/85
f 71/106/85 62/628/481 63/107/86
f 65/105/84 66/629/482 309/108/87
f 309/108/87 68/111/90 67/109/88
f 74/114/93 58/630/483 72/113/92
f 72/113/92 67/109/88 70/112/91
f 77/120/96 54/621/477 73/118/94
f 73/118/94 70/112/91 75/119/95
f 70/112/91 69/110/89 76/124/97
f 69/110/89 79/126/99 78/125/98
f 79/126/99 81/631/484 80/127/100
f 81/130/103 82/134/103 84/128/101
f 84/128/101 47/632/60 80/129/102
f 82/633/105 81/631/484 79/126/99
f 79/126/99 319/483/382 320/131/104
f 83/132/105 82/633/105 79/126/99
f 322/634/108 323/487/108 85/135/107
f 85/135/107 84/128/101 83/133/106
f 85/135/107 83/133/106 320/136/108
f 321/137/108 322/634/108 85/135/107
f 114/170/136 112/172/135 85/135/107
f 85/135/107 324/488/386 325/169/136
f 357/171/137 113/174/139 112/172/135
f 123/185/147 125/197/156 346/195/154
f 122/187/149 348/635/485 125/197/156
f 190/281/226 188/276/223 189/279/224
f 189/279/224 194/289/225 192/280/225
f 188/276/223 190/281/226 191/282/227
f 190/285/230 192/636/486 193/283/228
f 193/283/228 379/570/449 382/284/229
f 382/284/229 191/637/487 190/285/230
f 195/287/232 197/294/238 193/283/228
f 193/283/228 192/636/486 194/286/231
f 189/279/224 196/290/234 195/288/233
f 196/290/234 199/638/235 198/291/235
f 197/292/236 195/288/233 196/290/234
f 199/296/240 200/300/243 202/295/239
f 202/295/239 193/283/228 198/293/237
f 196/290/234 395/596/463 201/297/241
f 200/298/235 199/638/235 196/290/234
f 203/301/244 202/295/239 201/299/242
f 203/301/244 201/299/242 395/302/245
f 393/303/246 394/639/465 203/301/244
f 225/305/248 224/640/488 204/304/247
f 204/304/247 202/295/239 203/301/244
f 202/307/239 204/641/247 206/308/250
f 209/311/252 205/309/249 207/312/253
f 210/315/255 209/314/252 211/316/256
f 204/642/489 224/643/490 217/320/259
f 217/320/259 215/325/263 214/644/260
f 217/320/259 214/644/260 211/645/260
f 206/646/260 204/642/489 217/320/259
f 208/647/260 206/646/260 217/320/259
f 217/320/259 211/645/260 212/648/260
f 217/320/259 212/648/260 213/321/260
f 207/322/260 208/647/260 217/320/259
f 210/315/255 214/317/257 215/323/261
f 215/323/261 216/649/491 376/324/262
f 376/324/262 369/555/440 210/315/255
f 215/325/263 217/320/259 221/326/264
f 234/332/270 235/353/270 220/329/267
f 220/329/267 217/320/259 223/333/271
f 227/650/272 223/333/271 217/320/259
f 217/320/259 224/643/490 225/334/272
f 226/335/272 227/650/272 217/320/259
f 228/341/275 227/651/492 226/339/273
f 226/339/273 203/599/244 229/340/274
f 223/342/276 227/651/492 228/341/275
f 230/343/277 232/351/285 234/344/278
f 223/342/276 228/341/275 230/343/277
f 229/347/281 397/652/493 231/345/279
f 231/345/279 230/349/283 228/346/280
f 231/345/279 233/653/282 232/348/282
f 233/352/284 236/654/494 235/350/284
f 235/350/284 234/344/278 232/351/285
f 235/353/286 236/355/288 237/354/287
f 236/355/288 233/655/495 231/356/289
f 307/467/367 306/466/366 310/468/368
f 61/99/79 307/467/367 308/469/369
f 309/470/370 66/626/479 61/99/79
f 308/472/372 310/656/496 311/471/371
f 311/471/371 68/111/90 309/108/87
f 311/473/373 310/468/368 306/466/366
f 311/471/371 312/657/497 313/475/375
f 313/475/375 315/478/377 68/111/90
f 313/658/376 312/474/374 306/466/366
f 306/466/366 350/659/498 331/660/376
f 306/466/366 331/660/376 352/661/376
f 314/662/376 313/658/376 306/466/366
f 356/663/376 314/662/376 306/466/366
f 306/466/366 352/661/376 353/664/376
f 306/466/366 353/664/376 354/476/376
f 355/477/376 356/663/376 306/466/366
f 315/478/377 313/475/375 314/479/378
f 323/665/499 322/486/385 319/483/382
f 317/482/381 325/666/500 324/484/383
f 324/484/383 323/665/499 319/483/382
f 317/482/381 326/492/389 357/489/387
f 114/490/387 325/666/500 317/482/381
f 332/495/392 351/667/501 328/491/388
f 328/491/388 317/482/381 329/494/391
f 352/496/393 331/668/502 329/494/391
f 333/502/399 329/494/391 330/497/394
f 330/497/394 336/669/405 335/498/395
f 334/499/396 333/502/399 330/497/394
f 349/501/398 330/497/394 329/494/391
f 329/494/391 331/668/502 350/500/397
f 333/503/400 334/505/401 113/174/139
f 113/174/139 351/670/400 332/504/400
f 119/182/144 113/174/139 334/505/401
f 337/671/403 338/672/503 122/188/150
f 119/182/144 335/506/402 336/507/403
f 336/507/403 337/671/403 122/188/150
f 330/510/394 339/515/409 338/511/406
f 122/188/150 338/672/503 339/512/407
f 340/513/407 341/524/417 122/188/150
f 330/510/394 343/526/418 342/514/408
f 342/514/408 340/673/504 339/515/409
f 345/517/411 347/522/415 341/516/410
f 341/516/410 340/673/504 342/514/408
f 342/514/408 344/674/505 345/517/411
f 306/466/366 344/675/506 342/676/412
f 306/466/366 342/676/412 343/518/412
f 349/519/412 350/659/498 306/466/366
f 306/466/366 126/196/155 346/195/154
f 345/520/413 344/675/506 306/466/366
f 345/517/411 346/677/507 125/521/414
f 125/521/414 348/678/414 347/522/415
f 347/523/416 348/679/416 122/188/150
f 328/527/419 351/670/400 113/174/139
f 113/174/139 357/171/137 326/528/400
f 316/480/379 355/532/423 354/530/421
f 363/544/432 360/536/426 2/3/3
f 2/3/3 371/606/469 370/539/429
f 368/540/429 363/544/432 2/3/3
f 365/543/431 366/680/448 362/541/428
f 362/541/428 360/681/426 364/542/430
f 365/548/435 364/682/508 363/546/433
f 363/546/433 368/683/438 367/547/434
f 366/551/437 365/684/435 367/549/434
f 367/549/434 369/555/440 375/550/436
f 375/550/436 378/685/509 366/551/437
f 371/557/441 372/559/442 16/556/24
f 16/556/24 367/552/434 370/554/439
f 377/561/444 375/686/436 369/562/440
f 221/326/264 377/687/510 376/564/445
f 375/566/447 377/687/510 221/326/264
f 221/326/264 362/580/428 378/565/446
f 383/572/450 380/574/452 379/570/449
f 20/32/28 22/34/30 384/571/450
f 383/572/450 379/570/449 20/32/28
f 380/688/227 383/577/453 24/38/33
f 24/38/33 191/282/227 382/575/227
f 381/576/227 380/688/227 24/38/33
f 392/595/462 393/689/511 395/596/463
f 392/595/462 231/345/279 397/652/493
f 392/595/462 397/652/493 396/597/464
f 394/598/464 393/689/511 392/595/462
f 397/602/467 229/340/274 203/599/244
