# ('FARMS composite mesh',)
mtllib link_body_07_composite.mtl

o link_body_07
usemtl link_body_07_composite
v 1.06277900 8.22538600 -3.34224900
v 1.06277900 8.22538600 -3.34224900
v -1.92691000 7.70978000 -4.10588000
v -1.92691000 7.70978000 -4.10588000
v -1.92691000 7.70978000 -4.10588000
v 1.81512700 6.77919900 -4.64194900
v 1.81512700 6.77919900 -4.64194900
v 1.81512700 6.77919900 -4.64194900
v 1.77661600 8.61415400 -1.46796400
v 3.21561600 7.81634900 -2.60317400
v 3.21561600 7.81634900 -2.60317400
v 3.21561600 7.81634900 -2.60317400
v 2.97199700 7.46690800 -3.53562500
v 2.97199700 7.46690800 -3.53562500
v 0.00000400 8.86551000 -0.85978100
v -1.63040500 8.76528400 -0.51187000
v -0.27231500 7.50026100 4.22307200
v -0.27231500 7.50026100 4.22307200
v -2.28602100 7.95821400 3.27088500
v -2.28602100 7.95821400 3.27088500
v -4.95056100 6.13512800 4.29279600
v -1.98290600 7.16031700 4.91580800
v -1.98290600 7.16031700 4.91580800
v -1.98290600 7.16031700 4.91580800
v -3.18837800 8.12129200 1.75948700
v -3.18837800 8.12129200 1.75948700
v -5.50893100 6.81983900 1.82356100
v -6.96963700 5.60098300 0.07314300
v -7.69859200 4.22222000 1.68476600
v -6.48878300 4.44875800 4.28105100
v -4.27939500 7.86786900 0.07416100
v -4.27939500 7.86786900 0.07416100
v -4.05540400 7.78775800 -1.68476500
v -4.05540400 7.78775800 -1.68476500
v -6.79335100 5.57516200 -1.75320900
v -6.31057600 5.27758900 -3.49045900
v -8.44943000 2.80389400 -1.06047100
v -3.82351200 7.35926500 -3.36258500
v -3.82351200 7.35926500 -3.36258500
v -7.91682500 2.45646500 -3.37583900
v -6.89957000 2.04325500 -5.29264300
v -6.89957000 2.04325500 -5.29264300
v -8.53807700 -0.52675500 -2.75521000
v -5.60870600 4.46646500 -5.28404800
v -5.60870600 4.46646500 -5.28404800
v -4.08739200 5.97840300 -5.16437800
v -4.08739200 5.97840300 -5.16437800
v -1.30834000 4.90296500 -5.28478600
v -1.30834000 4.90296500 -5.28478600
v -1.30834000 4.90296500 -5.28478600
v -1.90235500 6.35439500 -2.59167700
v -1.90235500 6.35439500 -2.59167700
v 0.62283700 6.15051400 -5.07808500
v 0.62283700 6.15051400 -5.07808500
v -2.63524600 3.26903000 -5.31256200
v -2.63524600 3.26903000 -5.31256200
v -3.94609800 3.66962500 -3.13318800
v -3.44239600 1.43347900 -5.30174900
v -3.44239600 1.43347900 -5.30174900
v -5.05514900 0.67140400 -2.63949000
v -4.95674100 2.44950100 -1.56366500
v -3.47494600 5.17327700 -1.63005100
v -3.47494600 5.17327700 -1.63005100
v -4.57541000 3.78556300 -0.00000100
v -2.55921700 6.33169000 0.81834800
v -2.55921700 6.33169000 0.81834800
v -0.65999700 6.78295800 3.28651500
v -0.65999700 6.78295800 3.28651500
v -0.42720200 7.59720300 0.92452300
v -3.34817600 4.96798800 2.61828600
v -3.34817600 4.96798800 2.61828600
v -4.27023800 2.09240000 3.87771500
v -4.95674100 2.44950100 1.56366300
v -2.60982800 3.12168700 5.48719100
v -2.60982800 3.12168700 5.48719100
v -1.57169300 5.31294100 4.61963700
v -1.57169300 5.31294100 4.61963700
v -1.57169300 5.31294100 4.61963700
v -0.97896700 3.56176800 6.41015700
v -0.97896700 3.56176800 6.41015700
v 1.22240100 6.67641600 4.63112600
v 1.22240100 6.67641600 4.63112600
v 1.22240100 6.67641600 4.63112600
v 0.49317600 5.39406200 5.86412600
v 0.49317600 5.39406200 5.86412600
v 0.49317600 5.39406200 5.86412600
v -3.52552500 5.77436700 5.72515900
v -3.52552500 5.77436700 5.72515900
v -4.58830500 4.63272700 6.02708800
v -4.58830500 4.63272700 6.02708800
v -5.67435600 2.90728600 6.25291200
v -5.67435600 2.90728600 6.25291200
v -6.19497800 0.72344600 6.36793900
v -6.19497800 0.72344600 6.36793900
v -6.19497800 0.72344600 6.36793900
v -7.53363300 2.37416400 4.29177900
v -2.04749500 0.90823700 6.65262100
v -2.04749500 0.90823700 6.65262100
v -2.04749500 0.90823700 6.65262100
v -2.04749500 0.90823700 6.65262100
v -6.07198400 -1.60653200 6.33553500
v -6.07198400 -1.60653200 6.33553500
v -6.07198400 -1.60653200 6.33553500
v -1.46791800 -2.77602300 6.55177500
v -1.46791800 -2.77602300 6.55177500
v -3.35940700 -0.02068600 5.61274100
v -3.35940700 -0.02068600 5.61274100
v -2.64593700 -3.20533800 5.42602600
v -2.64593700 -3.20533800 5.42602600
v -2.64593700 -3.20533800 5.42602600
v -4.02266500 -2.35915300 4.11026600
v -5.08895400 -0.39269400 2.59167400
v -4.98057300 -2.35645000 1.63005100
v -5.46146000 0.66890700 -0.00000100
v -5.11071700 -2.48146900 -0.74712900
v -3.54475800 -5.33028900 0.06788900
v -3.54475800 -5.33028900 0.06788900
v -4.56040100 -2.18657100 -3.13318800
v -3.41540700 -5.01254000 2.35623300
v -3.41540700 -5.01254000 2.35623300
v -3.41246200 -5.03502600 -2.36170300
v -3.41246200 -5.03502600 -2.36170300
v -1.40005500 -4.81014900 -5.29631900
v -1.40005500 -4.81014900 -5.29631900
v -1.40005500 -4.81014900 -5.29631900
v -0.92873000 -7.00552900 -2.54771800
v -1.04930000 -7.35948600 -0.06883500
v -3.21495000 -3.29172800 -4.65423100
v -3.21495000 -3.29172800 -4.65423100
v -3.21495000 -3.29172800 -4.65423100
v -3.53004400 -1.07148000 -5.29894200
v -3.53004400 -1.07148000 -5.29894200
v -3.53004400 -1.07148000 -5.29894200
v -6.26042300 -3.51096300 -5.30475000
v -6.26042300 -3.51096300 -5.30475000
v -6.26042300 -3.51096300 -5.30475000
v -4.49880400 -5.63053100 -5.22434100
v -4.49880400 -5.63053100 -5.22434100
v -7.17369400 -0.75608200 -5.26040900
v -7.17369400 -0.75608200 -5.26040900
v -7.27490200 -3.90738400 -3.43782200
v -7.27490200 -3.90738400 -3.43782200
v -5.16900300 -6.36267500 -3.58300600
v -2.17432000 -7.68122500 -4.06082700
v -2.17432000 -7.68122500 -4.06082700
v -6.83677600 -5.53331400 -1.68401900
v -6.83677600 -5.53331400 -1.68401900
v -4.12889700 -7.74334400 -1.75628900
v -3.04869300 -6.85486900 -4.76240600
v -3.04869300 -6.85486900 -4.76240600
v 1.82096600 -6.78922000 -4.62880900
v 1.82096600 -6.78922000 -4.62880900
v 1.82096600 -6.78922000 -4.62880900
v 0.60655900 -6.12826300 -5.08344800
v 0.60655900 -6.12826300 -5.08344800
v 0.95938000 -8.26234400 -3.31984000
v 0.95938000 -8.26234400 -3.31984000
v 3.37098200 -7.62743800 -3.13795500
v 3.37098200 -7.62743800 -3.13795500
v 3.37098200 -7.62743800 -3.13795500
v 1.36934400 -7.80487100 -2.50289100
v 2.04896900 -8.24195500 -0.72209800
v 2.04896900 -8.24195500 -0.72209800
v 0.49810700 -8.80971000 -0.64724900
v 1.85092500 -8.57113600 -1.58868700
v 0.91349200 -7.72121000 2.43369000
v 0.91349200 -7.72121000 2.43369000
v 1.25015400 -6.72911600 4.48153700
v 1.25015400 -6.72911600 4.48153700
v 1.25015400 -6.72911600 4.48153700
v -0.95284100 -7.23709900 1.60278800
v 0.13169400 -7.37107800 4.29264800
v 0.13169400 -7.37107800 4.29264800
v -0.76312500 -6.73864300 3.30543100
v 0.18485800 -6.35166100 4.59372300
v 0.18485800 -6.35166100 4.59372300
v -1.48946600 -5.34045700 4.65342500
v -1.48946600 -5.34045700 4.65342500
v -0.28921000 -4.59858000 6.15698700
v -0.28921000 -4.59858000 6.15698700
v -0.28921000 -4.59858000 6.15698700
v 0.55287300 -5.46319300 5.76552600
v 0.55287300 -5.46319300 5.76552600
v 0.55287300 -5.46319300 5.76552600
v 0.61314700 -5.70857600 5.65006900
v 0.61314700 -5.70857600 5.65006900
v 0.61314700 -5.70857600 5.65006900
v -4.98809600 -4.06645900 6.14495900
v -4.98809600 -4.06645900 6.14495900
v -4.98809600 -4.06645900 6.14495900
v -3.47031600 -5.82590800 5.70448900
v -3.47031600 -5.82590800 5.70448900
v -3.47031600 -5.82590800 5.70448900
v -4.67115800 -6.30312000 4.35521300
v -4.67115800 -6.30312000 4.35521300
v -2.23626000 -6.92220100 5.13672800
v -2.23626000 -6.92220100 5.13672800
v -1.64228300 -7.49864200 4.42085800
v 0.72463900 -6.51231900 5.00150800
v 0.72463900 -6.51231900 5.00150800
v 0.72463900 -6.51231900 5.00150800
v 0.72463900 -6.51231900 5.00150800
v 0.72463900 -6.51231900 5.00150800
v -2.21226700 -7.93352300 3.36531000
v -1.87634900 -8.69533900 -0.10667600
v -3.25079200 -8.10849000 1.73857400
v -5.64301100 -6.72695900 1.68476500
v -4.10286900 -7.96272100 0.01366600
v -6.85307100 -5.74302500 0.07314300
v -6.85307100 -5.74302500 0.07314300
v -7.76353800 -4.07259900 1.82356200
v -7.76353800 -4.07259900 1.82356200
v -8.51512800 -2.74700300 -0.00000300
v -8.74688600 -0.76645900 1.68477000
v -8.91818500 0.72070100 -0.00000300
v -8.43808800 -2.39890400 -1.75255600
v -8.55182900 0.98878800 2.54610500
v -7.89412400 -2.31498400 3.49045700
v -7.37551200 -0.85726900 4.97089300
v -7.37551200 -0.85726900 4.97089300
v -6.51379100 -3.55567900 4.97965900
v -6.51379100 -3.55567900 4.97965900
v -6.51379100 -3.55567900 4.97965900
v -6.47357900 -5.12541200 3.43170800
v -6.47357900 -5.12541200 3.43170800
v -0.89407200 -8.76472700 -1.64161500
v 1.18359300 -6.54427900 4.72301400
v 1.18359300 -6.54427900 4.72301400
v 0.92407500 7.73167000 2.38996400
v 0.92407500 7.73167000 2.38996400
v 1.73453700 8.18622400 0.04787900
v 1.73453700 8.18622400 0.04787900
v 0.61978800 7.85109500 -1.59097600
v 0.71196000 7.37171400 -3.22485600
vn 0.11429278 0.92027993 -0.37419514
vn 0.06677867 0.68593610 -0.72459111
vn -0.19062601 0.94503332 -0.26565720
vn -0.35196946 0.76710416 -0.53634756
vn 0.01391364 0.56399497 -0.82566100
vn 0.04300867 0.62291065 -0.78110984
vn 0.21533712 0.71234334 -0.66797971
vn 0.17139912 -0.85433619 0.49064448
vn 0.34175643 0.93962676 0.01743805
vn 0.29008115 0.88968543 -0.35258015
vn 0.60513190 0.76162953 0.23180994
vn 0.07907768 -0.95935112 0.27090985
vn 0.09020236 -0.92337952 0.37314046
vn 0.26908885 0.81013247 -0.52084217
vn 0.04638926 0.99892055 0.00240076
vn -0.15833587 0.98690584 -0.03076698
vn 0.16487064 0.64279554 0.74808527
vn 0.18877904 0.92162818 0.33906339
vn 0.01257103 0.95694622 0.28999293
vn -0.41525156 0.81879219 0.39641581
vn -0.54024702 0.69961796 0.46761937
vn 0.07800084 0.55427033 0.82867380
vn -0.00191885 0.89959655 0.43671772
vn -0.37474290 0.78511350 0.49311718
vn -0.20075782 0.96997037 0.13730906
vn -0.46088403 0.83638664 0.29672092
vn -0.61776345 0.75677452 0.21368353
vn -0.77512600 0.63166078 0.01357718
vn -0.86625572 0.46226929 0.18949440
vn -0.72554834 0.50716367 0.46515011
vn -0.58696571 0.80939885 0.01856772
vn -0.32402159 0.94591213 -0.01613261
vn -0.28171173 0.93848453 -0.19971300
vn -0.61354593 0.76525050 -0.19481549
vn -0.75255906 0.62789909 -0.19848825
vn -0.70402809 0.58700946 -0.39970532
vn -0.94160431 0.31916266 -0.10731509
vn -0.50881522 0.75173723 -0.41952140
vn -0.26020570 0.93026733 -0.25864199
vn -0.88088807 0.27729851 -0.38359060
vn -0.83329798 0.24495788 -0.49559068
vn -0.00759343 0.00251798 -0.99996800
vn -0.94703098 -0.05169515 -0.31695416
vn -0.68994182 0.51757629 -0.50605837
vn -0.00261480 0.02407060 -0.99970684
vn -0.51509318 0.70045770 -0.49400205
vn -0.00503380 0.19925192 -0.97993537
vn 0.00536772 0.10732784 -0.99420919
vn 0.66139561 -0.57556871 0.48091217
vn 0.43158091 -0.75090111 0.49988542
vn 0.67068266 -0.59883155 0.43770486
vn 0.50170733 -0.82558806 0.25825201
vn 0.36337705 -0.78177555 0.50673871
vn 0.01187085 0.48036419 -0.87698879
vn -0.01013545 0.01901365 -0.99976785
vn 0.72309011 -0.45609991 0.51876156
vn 0.80489330 -0.44376491 0.39397904
vn 0.84393333 -0.18827335 0.50232428
vn -0.00211009 -0.00175990 -0.99999623
vn 0.94163322 -0.06591165 0.33012503
vn 0.93517452 -0.30282002 0.18370807
vn 0.64164111 -0.75778769 0.11855165
vn 0.78961910 -0.57465700 0.21510696
vn 0.88594093 -0.46376553 -0.00549595
vn 0.56168370 -0.82207112 -0.09333006
vn 0.79190037 -0.60765116 -0.06044725
vn 0.57977026 -0.71457872 -0.39146353
vn 0.40522678 -0.82127446 -0.40162113
vn 0.40371710 -0.91114171 -0.08266366
vn 0.58368833 -0.74960699 -0.31208541
vn 0.77373312 -0.54639126 -0.32061449
vn 0.84955843 -0.25323823 -0.46273197
vn 0.93646610 -0.29541801 -0.18910168
vn 0.53086611 -0.39660372 -0.74892367
vn 0.73118554 -0.35965929 -0.57966620
vn 0.47786871 -0.54370390 -0.68994750
vn 0.36428168 -0.74175740 -0.56311173
vn 0.63388538 -0.62554454 -0.45484432
vn -0.02993951 0.22249842 0.97447323
vn 0.50492069 -0.46010559 -0.73031359
vn 0.37572681 0.85671370 0.35337092
vn 0.33169449 -0.78570969 -0.52214849
vn 0.14741913 0.64068577 0.75351798
vn 0.36571042 -0.74472623 -0.55824613
vn 0.07232998 0.49768041 0.86433939
vn 0.44257263 -0.56346690 -0.69759194
vn -0.42186885 0.68623140 0.59254800
vn -0.00127041 0.33134274 0.94350961
vn -0.56910813 0.54060522 0.61956592
vn -0.03850299 0.20749404 0.97747826
vn -0.69846562 0.34648209 0.62617565
vn -0.06140033 0.10837795 0.99221178
vn -0.77715112 0.14111809 0.61328771
vn -0.73536299 -0.04821887 0.67595577
vn -0.06943600 0.02196309 0.99734461
vn -0.84069621 0.25526085 0.47756862
vn 0.52925757 -0.28610884 -0.79876665
vn 0.56755788 0.11161181 -0.81573333
vn 0.68961453 -0.19239395 -0.69815211
vn -0.05716630 0.03986159 0.99756858
vn -0.06657181 -0.05312208 0.99636652
vn -0.70473252 -0.16620973 0.68972922
vn -0.76455092 -0.24221429 0.59732247
vn -0.04554615 -0.14569979 0.98827988
vn 0.57400350 0.32255186 -0.75264884
vn 0.58779824 0.13146325 -0.79825475
vn 0.79657806 -0.04104462 -0.60314073
vn 0.58129900 0.36226894 -0.72859638
vn 0.67894436 0.54554029 -0.49134545
vn 0.75065249 0.34849922 -0.56131019
vn 0.82659410 0.28678314 -0.48424955
vn 0.94973214 0.03749262 -0.31081049
vn 0.93478219 0.30646164 -0.17962046
vn 0.99798804 -0.06336944 -0.00204596
vn 0.95031472 0.30029753 0.08199594
vn 0.87859736 0.47712914 -0.02035833
vn 0.63795527 0.77006573 -0.00344197
vn 0.89318919 0.25649548 0.36935502
vn 0.85292941 0.46019000 -0.24644795
vn 0.64156202 0.70421650 -0.30410081
vn 0.85454268 0.46329547 0.23476393
vn 0.62736422 0.71114460 0.31731292
vn 0.53400691 0.30478692 0.78863271
vn 0.55381122 0.67295395 0.49033266
vn 0.00762549 -0.09525736 -0.99542347
vn 0.46229132 0.82921107 0.31415876
vn 0.46772869 0.88361407 0.02135525
vn 0.65430775 0.57373545 0.49265505
vn 0.53400691 0.30478692 0.78863271
vn 0.81312185 0.35483124 0.46144085
vn 0.85873992 0.09949553 0.50265932
vn 0.53400691 0.30478692 0.78863271
vn 0.00271256 -0.00065520 -0.99999611
vn -0.00667222 -0.01041282 -0.99992352
vn -0.82265084 -0.26461767 -0.50321277
vn -0.66825473 -0.55491215 -0.49548775
vn -0.00767585 -0.12579346 -0.99202676
vn -0.56534497 -0.64240397 -0.51739946
vn -0.06416117 -0.00520803 -0.99792596
vn -0.87144194 -0.09584170 -0.48104399
vn -0.69453193 -0.56971843 -0.43937035
vn -0.87227832 -0.33526326 -0.35599028
vn -0.58375055 -0.70722623 -0.39883122
vn -0.30013295 -0.88664220 -0.35183211
vn 0.03357473 -0.63946069 -0.76809034
vn -0.66708037 -0.70986456 -0.22604443
vn -0.87522532 -0.46813730 -0.12177070
vn -0.46566504 -0.86089007 -0.20499844
vn -0.43147626 -0.78232414 -0.44921840
vn 0.00357863 -0.44935650 -0.89334536
vn 0.23857754 -0.71929007 -0.65245885
vn 0.03923854 -0.62344711 -0.78088030
vn 0.21140871 0.86353856 0.45782913
vn 0.02411188 -0.45664718 -0.88932107
vn 0.35370195 0.79684414 0.48983093
vn 0.04738547 -0.67882720 -0.73276753
vn 0.12520631 -0.91533086 -0.38274378
vn 0.62599811 -0.76569154 0.14779317
vn 0.03269884 0.93113143 0.36321487
vn 0.25590521 -0.83008659 -0.49544806
vn 0.18377919 0.93494752 0.30347708
vn 0.20755692 0.97352673 0.09573830
vn 0.42199463 -0.87458459 0.23879347
vn 0.14792004 -0.98336783 0.10539152
vn 0.35803650 -0.93362610 -0.01233528
vn 0.29449681 0.92155476 -0.25299891
vn 0.30743338 -0.90498121 0.29409818
vn 0.28333885 0.89335452 -0.34876466
vn 0.35428654 -0.77237312 0.52718195
vn -0.33295597 0.70223115 -0.62929464
vn 0.47110964 0.86420653 -0.17664306
vn 0.12732068 -0.68221590 0.71997980
vn 0.25799591 -0.88201690 0.39431498
vn 0.44671465 0.80043384 -0.39968948
vn 0.71085646 0.43474908 -0.55288003
vn 0.38824212 0.77722207 -0.49517058
vn 0.51954786 0.52526835 -0.67391630
vn 0.54261204 0.66139568 -0.51781071
vn 0.51497195 0.50938056 -0.68944567
vn 0.38672205 0.66981563 -0.63387150
vn -0.00024194 -0.33560833 0.94200159
vn -0.02200704 -0.43006227 0.90253096
vn 0.71085646 0.43474908 -0.55288003
vn 0.39353199 0.66883552 -0.63070724
vn 0.60130301 0.55062469 -0.57900531
vn 0.05813371 -0.50153565 0.86318160
vn 0.71085646 0.43474908 -0.55288003
vn -0.05587674 -0.17257416 0.98341037
vn -0.58661522 -0.44063482 0.67950242
vn -0.61687998 -0.54317899 0.56957499
vn -0.37114577 -0.72089824 0.58528330
vn -0.01100008 -0.33073585 0.94365926
vn -0.49162541 -0.58547392 0.64461209
vn -0.49162541 -0.58547392 0.64461209
vn -0.51666909 -0.72861832 0.44963140
vn -0.26186381 -0.79887888 0.54149781
vn 0.05348634 -0.50314103 0.86254757
vn -0.01662027 -0.85759152 0.51406279
vn 0.12334657 -0.64115042 0.75743763
vn 0.31989068 -0.72467659 0.61033908
vn 0.60130301 0.55062469 -0.57900531
vn 0.32751542 0.94280381 -0.06208572
vn -0.33295597 0.70223115 -0.62929464
vn -0.15826619 -0.92469371 0.34625619
vn -0.16779962 -0.98465663 0.04790206
vn -0.34166505 -0.91425672 0.21771457
vn -0.62653613 -0.75614541 0.18893541
vn -0.47108132 -0.88208909 -0.00110994
vn -0.68887221 -0.72400607 0.03564116
vn -0.87331738 -0.48546554 -0.04049651
vn -0.76039246 -0.61792079 0.19994301
vn -0.89702968 -0.39536314 0.19754933
vn -0.95120870 -0.30854166 0.00201255
vn -0.97594954 -0.11197685 0.18703926
vn -0.99639846 0.08429317 -0.00920662
vn -0.94079959 -0.27573987 -0.19713869
vn -0.95086771 0.12414534 0.28361688
vn -0.88813001 -0.25516974 0.38224795
vn -0.73536299 -0.04821887 0.67595577
vn -0.85116788 -0.08938761 0.51722635
vn -0.80488559 -0.33407425 0.49046263
vn -0.64016919 -0.33560728 0.69105076
vn -0.62534462 -0.54609489 0.55742666
vn -0.81734794 -0.42134682 0.39294936
vn -0.68702872 -0.62369266 0.37282570
vn -0.10881114 -0.97725976 -0.18199861
vn -0.33295597 0.70223115 -0.62929464
vn 0.31167780 -0.71955132 0.62056655
vn 0.25650055 0.92402286 0.28352994
vn 0.29747699 -0.91461504 -0.27383713
vn 0.18459811 -0.98224916 0.03331840
vn 0.32338771 0.90828839 0.26539139
vn 0.27116528 -0.94664144 0.17418203
vn 0.26607407 -0.88064604 0.39200401
vt 0.75219500 0.27314600
vt 0.10563100 0.24406300
vt 0.75328700 0.29129900
vt 0.17846400 0.12400300
vt 0.12554400 0.24073100
vt 0.10071400 0.23460300
vt 0.76198400 0.26705300
vt 0.01229500 0.75023600
vt 0.74086700 0.26714800
vt 0.75035600 0.25808200
vt 0.75035600 0.25808200
vt 0.00000000 0.73928600
vt 0.00310500 0.74494300
vt 0.75617600 0.26003600
vt 0.73448100 0.27776300
vt 0.73006300 0.28704700
vt 0.27599300 0.07176300
vt 0.70136200 0.26960500
vt 0.70476300 0.28421200
vt 0.17734500 0.17306700
vt 0.19537000 0.18033900
vt 0.27326900 0.08305400
vt 0.69464900 0.27838500
vt 0.18130800 0.18394100
vt 0.71335300 0.29211000
vt 0.17881700 0.16319000
vt 0.19282700 0.16403600
vt 0.20421800 0.15267500
vt 0.21442800 0.16351500
vt 0.20969300 0.18054200
vt 0.18334000 0.15219200
vt 0.72291700 0.30046400
vt 0.73467700 0.30126100
vt 0.18337200 0.14046800
vt 0.20404900 0.14051200
vt 0.20473200 0.12888600
vt 0.22525500 0.14541800
vt 0.18550700 0.12928300
vt 0.74599900 0.30112500
vt 0.22615500 0.12994400
vt 0.22616200 0.11702900
vt 0.15867300 0.20323000
vt 0.24595800 0.13418600
vt 0.20798500 0.11684800
vt 0.15008800 0.21932600
vt 0.19476400 0.11736500
vt 0.13996800 0.22935400
vt 0.12151300 0.22221800
vt 0.53910300 0.07247800
vt 0.03304200 0.74950400
vt 0.52098800 0.07975500
vt 0.03248700 0.73080300
vt 0.02056400 0.75115500
vt 0.10866500 0.23047900
vt 0.13033600 0.21136800
vt 0.54116400 0.06068200
vt 0.52754000 0.06080900
vt 0.54271000 0.04796700
vt 0.13570400 0.19917300
vt 0.52678200 0.03990200
vt 0.51862800 0.05094700
vt 0.04065400 0.72226100
vt 0.51646000 0.07008300
vt 0.50730800 0.05900800
vt 0.03078200 0.70781400
vt 0.49903200 0.07684000
vt 0.48116200 0.07975500
vt 0.01442200 0.69513700
vt 0.01719500 0.71045100
vt 0.03243400 0.69530100
vt 0.48852300 0.06606800
vt 0.48252100 0.04562000
vt 0.49804500 0.04890700
vt 0.94245800 0.72845600
vt 0.47015000 0.05269100
vt 0.95859100 0.72722900
vt 0.01764800 0.68543500
vt 0.47387500 0.06848900
vt 0.24954600 0.07552200
vt 0.95025900 0.73656400
vt 0.70089100 0.25808200
vt 0.00000000 0.68979200
vt 0.27087600 0.06164100
vt 0.00226900 0.68099400
vt 0.26211200 0.06619300
vt 0.96570600 0.73905400
vt 0.19374600 0.18959800
vt 0.26363500 0.09297000
vt 0.20347600 0.19179800
vt 0.25577200 0.09974800
vt 0.21683800 0.19349800
vt 0.24403000 0.10653100
vt 0.23153100 0.19436100
vt 0.22939200 0.10944300
vt 0.22939200 0.10944300
vt 0.22509600 0.18080700
vt 0.93139500 0.73905400
vt 0.55969400 0.96868400
vt 0.46332200 0.03787000
vt 0.23164600 0.08195700
vt 0.21395400 0.10803900
vt 0.21395400 0.10803900
vt 0.24544700 0.19413000
vt 0.20733300 0.07718000
vt 0.56346700 0.94420700
vt 0.56989800 0.96558600
vt 0.47163600 0.03137300
vt 0.57181600 0.94401200
vt 0.55090800 0.25093200
vt 0.47414600 0.01118700
vt 0.48332200 0.01646400
vt 0.49297700 0.02947900
vt 0.50033500 0.01731100
vt 0.50970500 0.03782900
vt 0.51614500 0.01793400
vt 0.51125800 -0.00000000
vt 0.58594000 0.25005500
vt 0.53128600 0.02187900
vt 0.49592400 0.00069800
vt 0.57084000 0.25071500
vt 0.52698600 0.00363100
vt 0.60212200 0.24907000
vt 0.97023900 0.10658700
vt 0.62118800 0.23599900
vt 0.12215100 0.15768600
vt 0.60210900 0.22910300
vt 0.58557700 0.22990100
vt 0.61786800 0.25093200
vt 0.98495500 0.11210300
vt 0.54094900 0.01672800
vt 0.54416800 0.03145700
vt 0.99883100 0.10658700
vt 0.13629300 0.18253000
vt 0.15444300 0.16632800
vt 0.25842500 0.11684800
vt 0.47530700 0.60156400
vt 0.14273900 0.15223300
vt 0.46306800 0.60259900
vt 0.16050100 0.18462800
vt 0.24397800 0.11730000
vt 0.48078200 0.58870800
vt 0.26336100 0.12943300
vt 0.46631800 0.59152200
vt 0.44646900 0.59679000
vt 0.12723000 0.13847000
vt 0.47640700 0.57776600
vt 0.27202100 0.14100800
vt 0.45798100 0.58039700
vt 0.45288700 0.60070700
vt 0.13308000 0.14404300
vt 0.42062300 0.60271400
vt 0.10071400 0.14445400
vt 0.61533800 0.21168700
vt 0.10880900 0.14890000
vt 0.61886100 0.22059700
vt 0.10636500 0.13451700
vt 0.42515000 0.59390100
vt 0.40925600 0.59398300
vt 0.60480400 0.20063100
vt 0.40925600 0.59398300
vt 0.60100200 0.21297100
vt 0.58888500 0.20834600
vt 0.41637600 0.57736500
vt 0.42644100 0.57608300
vt 0.41812700 0.58305900
vt 0.56839700 0.21765800
vt 0.42210500 0.55569000
vt 0.55507000 0.21843500
vt 0.41889100 0.54210600
vt 0.81655400 0.97180600
vt 0.57450900 0.23012800
vt 0.17734500 0.06534400
vt 0.42623700 0.54284400
vt 0.56334000 0.23061500
vt 0.99669100 0.97170800
vt 0.55470400 0.22597300
vt 0.56882400 0.92826200
vt 0.55504200 0.23870800
vt 0.55969400 0.93034200
vt 0.54503800 0.23334600
vt 0.19554900 0.06888400
vt 0.19004000 0.06306500
vt 0.98665600 0.97170800
vt 0.54714500 0.22603100
vt 0.54781400 0.22507200
vt 0.18843200 0.06260100
vt 0.98817200 0.97091000
vt 0.19790300 0.10021900
vt 0.19790300 0.10021900
vt 0.45981300 0.52673400
vt 0.44959400 0.53098100
vt 0.18662500 0.08968700
vt 0.18662500 0.08968700
vt 0.18322700 0.09750600
vt 0.45823000 0.53930400
vt 0.44149800 0.53573900
vt 0.17968600 0.08120300
vt 0.43785700 0.54096800
vt 0.18315800 0.06164100
vt 0.42210600 0.53830100
vt 0.55181800 0.22237600
vt 0.55181800 0.22237600
vt 0.81655400 0.97553200
vt 0.44215500 0.54771500
vt 0.44184300 0.57106300
vt 0.44996300 0.55789600
vt 0.46616600 0.55648800
vt 0.45668000 0.56876000
vt 0.47539600 0.56618600
vt 0.27321600 0.15268300
vt 0.48078200 0.55366000
vt 0.26526200 0.16447000
vt 0.25926100 0.15248900
vt 0.24764400 0.16371600
vt 0.23912900 0.15255200
vt 0.25706100 0.14083200
vt 0.23634800 0.16939800
vt 0.25474400 0.17556100
vt 0.21867500 0.11684800
vt 0.24437500 0.18529800
vt 0.25860800 0.18520800
vt 0.20097400 0.11044800
vt 0.47073800 0.53340700
vt 0.26820600 0.17492200
vt 0.47100900 0.54405000
vt 0.43626000 0.58181700
vt 0.81559800 0.97264800
vt 0.41923200 0.54042400
vt 0.71483200 0.26524900
vt 0.00601900 0.70334700
vt 0.00497800 0.71963100
vt 0.73104700 0.26443000
vt 0.01489600 0.72831100
vt 0.01703600 0.73908100
f 15/15/15 1/1/1 3/3/3
f 6/6/6 5/5/5 2/2/2
f 1/1/1 14/14/14 7/7/7
f 9/9/9 10/10/10 1/1/1
f 1/1/1 15/15/15 9/9/9
f 1/1/1 10/10/10 14/14/14
f 19/19/19 15/15/15 16/16/16
f 3/3/3 16/16/16 15/15/15
f 18/18/18 9/9/9 15/15/15
f 15/15/15 19/19/19 18/18/18
f 16/16/16 25/25/25 19/19/19
f 27/27/27 21/21/21 20/20/20
f 21/21/21 24/24/24 20/20/20
f 18/18/18 19/19/19 23/23/23
f 27/27/27 20/20/20 26/26/26
f 29/29/29 27/27/27 28/28/28
f 27/27/27 31/31/31 28/28/28
f 30/30/30 27/27/27 29/29/29
f 30/30/30 21/21/21 27/27/27
f 31/31/31 27/27/27 26/26/26
f 16/16/16 33/33/33 32/32/32
f 25/25/25 16/16/16 32/32/32
f 35/35/35 31/31/31 34/34/34
f 35/35/35 28/28/28 31/31/31
f 37/37/37 28/28/28 35/35/35
f 40/40/40 35/35/35 36/36/36
f 35/35/35 38/38/38 36/36/36
f 40/40/40 37/37/37 35/35/35
f 35/35/35 34/34/34 38/38/38
f 43/43/43 40/40/40 41/41/41
f 40/40/40 44/44/44 41/41/41
f 43/43/43 37/37/37 40/40/40
f 40/40/40 36/36/36 44/44/44
f 46/46/46 44/44/44 36/36/36
f 47/47/47 48/48/48 45/45/45
f 45/45/45 48/48/48 42/42/42
f 52/52/52 50/50/50 53/53/53
f 49/49/49 51/51/51 57/57/57
f 47/47/47 54/54/54 48/48/48
f 42/42/42 48/48/48 55/55/55
f 49/49/49 57/57/57 56/56/56
f 57/57/57 51/51/51 63/63/63
f 58/58/58 57/57/57 60/60/60
f 56/56/56 57/57/57 58/58/58
f 57/57/57 61/61/61 60/60/60
f 57/57/57 63/63/63 61/61/61
f 61/61/61 63/63/63 64/64/64
f 63/63/63 66/66/66 64/64/64
f 62/62/62 52/52/52 65/65/65
f 65/65/65 68/68/68 70/70/70
f 69/69/69 68/68/68 65/65/65
f 52/52/52 69/69/69 65/65/65
f 66/66/66 71/71/71 64/64/64
f 71/71/71 67/67/67 78/78/78
f 72/72/72 71/71/71 75/75/75
f 71/71/71 72/72/72 73/73/73
f 64/64/64 71/71/71 73/73/73
f 71/71/71 78/78/78 75/75/75
f 74/74/74 76/76/76 80/80/80
f 76/76/76 86/86/86 80/80/80
f 68/68/68 82/82/82 77/77/77
f 77/77/77 82/82/82 84/84/84
f 17/17/17 22/22/22 85/85/85
f 22/22/22 88/88/88 85/85/85
f 17/17/17 85/85/85 83/83/83
f 88/88/88 90/90/90 85/85/85
f 79/79/79 85/85/85 90/90/90
f 87/87/87 21/21/21 89/89/89
f 90/90/90 92/92/92 79/79/79
f 89/89/89 30/30/30 91/91/91
f 89/89/89 21/21/21 30/30/30
f 92/92/92 95/95/95 100/100/100
f 91/91/91 96/96/96 93/93/93
f 91/91/91 30/30/30 96/96/96
f 79/79/79 92/92/92 100/100/100
f 101/101/101 100/100/100 95/95/95
f 101/101/101 104/104/104 100/100/100
f 98/98/98 105/105/105 106/106/106
f 74/74/74 80/80/80 97/97/97
f 107/107/107 75/75/75 99/99/99
f 106/106/106 105/105/105 108/108/108
f 111/111/111 107/107/107 110/110/110
f 112/112/112 107/107/107 111/111/111
f 72/72/72 75/75/75 107/107/107
f 112/112/112 72/72/72 107/107/107
f 113/113/113 112/112/112 111/111/111
f 114/114/114 112/112/112 113/113/113
f 114/114/114 73/73/73 112/112/112
f 112/112/112 73/73/73 72/72/72
f 60/60/60 61/61/61 114/114/114
f 115/115/115 60/60/60 114/114/114
f 61/61/61 64/64/64 114/114/114
f 64/64/64 73/73/73 114/114/114
f 114/114/114 113/113/113 115/115/115
f 115/115/115 113/113/113 119/119/119
f 118/118/118 60/60/60 115/115/115
f 121/121/121 115/115/115 116/116/116
f 115/115/115 119/119/119 116/116/116
f 118/118/118 115/115/115 121/121/121
f 124/124/124 122/122/122 126/126/126
f 128/128/128 122/122/122 124/124/124
f 122/122/122 117/117/117 127/127/127
f 122/122/122 127/127/127 126/126/126
f 130/130/130 118/118/118 121/121/121
f 131/131/131 118/118/118 130/130/130
f 132/132/132 129/129/129 123/123/123
f 125/125/125 134/134/134 133/133/133
f 131/131/131 60/60/60 118/118/118
f 58/58/58 60/60/60 131/131/131
f 133/133/133 134/134/134 59/59/59
f 125/125/125 137/137/137 134/134/134
f 143/143/143 136/136/136 138/138/138
f 42/42/42 134/134/134 139/139/139
f 142/142/142 140/140/140 135/135/135
f 134/134/134 42/42/42 59/59/59
f 143/143/143 141/141/141 136/136/136
f 149/149/149 144/144/144 143/143/143
f 148/148/148 143/143/143 144/144/144
f 146/146/146 141/141/141 143/143/143
f 149/149/149 143/143/143 138/138/138
f 148/148/148 146/146/146 143/143/143
f 154/154/154 150/150/150 137/137/137
f 152/152/152 145/145/145 150/150/150
f 154/154/154 152/152/152 150/150/150
f 153/153/153 155/155/155 126/126/126
f 125/125/125 154/154/154 137/137/137
f 155/155/155 124/124/124 126/126/126
f 156/156/156 145/145/145 152/152/152
f 160/160/160 157/157/157 151/151/151
f 159/159/159 153/153/153 161/161/161
f 153/153/153 126/126/126 161/161/161
f 162/162/162 159/159/159 161/161/161
f 161/161/161 127/127/127 162/162/162
f 161/161/161 126/126/126 127/127/127
f 166/166/166 162/162/162 127/127/127
f 164/164/164 163/163/163 167/167/167
f 163/163/163 164/164/164 165/165/165
f 165/165/165 158/158/158 163/163/163
f 168/168/168 166/166/166 174/174/174
f 173/173/173 167/167/167 169/169/169
f 127/127/127 171/171/171 166/166/166
f 171/171/171 174/174/174 166/166/166
f 167/167/167 173/173/173 164/164/164
f 174/174/174 176/176/176 168/168/168
f 176/176/176 174/174/174 178/178/178
f 178/178/178 174/174/174 120/120/120
f 120/120/120 174/174/174 171/171/171
f 176/176/176 178/178/178 180/180/180
f 108/108/108 179/179/179 177/177/177
f 120/120/120 109/109/109 178/178/178
f 180/180/180 184/184/184 176/176/176
f 182/182/182 181/181/181 186/186/186
f 108/108/108 105/105/105 179/179/179
f 181/181/181 192/192/192 186/186/186
f 181/181/181 188/188/188 192/192/192
f 104/104/104 188/188/188 181/181/181
f 193/193/193 189/189/189 194/194/194
f 196/196/196 191/191/191 195/195/195
f 192/192/192 197/197/197 186/186/186
f 186/186/186 197/197/197 199/199/199
f 198/198/198 196/196/196 204/204/204
f 196/196/196 198/198/198 173/173/173
f 197/197/197 172/172/172 199/199/199
f 195/195/195 204/204/204 196/196/196
f 204/204/204 205/205/205 164/164/164
f 204/204/204 164/164/164 173/173/173
f 205/205/205 204/204/204 206/206/206
f 206/206/206 204/204/204 195/195/195
f 198/198/198 204/204/204 173/173/173
f 206/206/206 207/207/207 208/208/208
f 206/206/206 195/195/195 207/207/207
f 206/206/206 208/208/208 205/205/205
f 207/207/207 209/209/209 208/208/208
f 205/205/205 208/208/208 148/148/148
f 208/208/208 209/209/209 146/146/146
f 208/208/208 146/146/146 148/148/148
f 207/207/207 211/211/211 209/209/209
f 212/212/212 213/213/213 210/210/210
f 147/147/147 210/210/210 213/213/213
f 212/212/212 214/214/214 213/213/213
f 214/214/214 215/215/215 213/213/213
f 216/216/216 213/213/213 215/215/215
f 147/147/147 213/213/213 216/216/216
f 147/147/147 216/216/216 142/142/142
f 216/216/216 43/43/43 142/142/142
f 216/216/216 215/215/215 43/43/43
f 43/43/43 215/215/215 37/37/37
f 217/217/217 37/37/37 215/215/215
f 214/214/214 217/217/217 215/215/215
f 217/217/217 29/29/29 37/37/37
f 217/217/217 96/96/96 29/29/29
f 214/214/214 218/218/218 217/217/217
f 218/218/218 220/220/220 217/217/217
f 217/217/217 220/220/220 96/96/96
f 218/218/218 221/221/221 220/220/220
f 103/103/103 220/220/220 221/221/221
f 96/96/96 220/220/220 93/93/93
f 102/102/102 94/94/94 219/219/219
f 224/224/224 221/221/221 218/218/218
f 189/189/189 102/102/102 222/222/222
f 225/225/225 195/195/195 223/223/223
f 190/190/190 223/223/223 195/195/195
f 207/207/207 195/195/195 225/225/225
f 225/225/225 211/211/211 207/207/207
f 224/224/224 218/218/218 212/212/212
f 212/212/212 218/218/218 214/214/214
f 205/205/205 226/226/226 164/164/164
f 205/205/205 148/148/148 226/226/226
f 165/165/165 164/164/164 226/226/226
f 157/157/157 165/165/165 226/226/226
f 157/157/157 226/226/226 144/144/144
f 144/144/144 226/226/226 148/148/148
f 185/185/185 201/201/201 176/176/176
f 200/200/200 173/173/173 228/228/228
f 227/227/227 170/170/170 203/203/203
f 202/202/202 168/168/168 176/176/176
f 169/169/169 228/228/228 173/173/173
f 104/104/104 101/101/101 188/188/188
f 175/175/175 183/183/183 187/187/187
f 117/117/117 120/120/120 171/171/171
f 117/117/117 171/171/171 127/127/127
f 165/165/165 157/157/157 160/160/160
f 142/142/142 43/43/43 140/140/140
f 43/43/43 41/41/41 140/140/140
f 113/113/113 111/111/111 119/119/119
f 111/111/111 110/110/110 119/119/119
f 96/96/96 30/30/30 29/29/29
f 87/87/87 24/24/24 21/21/21
f 81/81/81 229/229/229 18/18/18
f 230/230/230 82/82/82 68/68/68
f 9/9/9 18/18/18 229/229/229
f 230/230/230 68/68/68 69/69/69
f 229/229/229 232/232/232 9/9/9
f 69/69/69 231/231/231 230/230/230
f 233/233/233 231/231/231 69/69/69
f 233/233/233 12/12/12 231/231/231
f 9/9/9 232/232/232 11/11/11
f 52/52/52 233/233/233 69/69/69
f 233/233/233 234/234/234 12/12/12
f 234/234/234 233/233/233 52/52/52
f 8/8/8 13/13/13 234/234/234
f 234/234/234 13/13/13 12/12/12
f 234/234/234 53/53/53 8/8/8
f 52/52/52 53/53/53 234/234/234
f 42/42/42 55/55/55 59/59/59
f 5/5/5 54/54/54 47/47/47
f 5/5/5 6/6/6 54/54/54
f 4/4/4 46/46/46 38/38/38
f 46/46/46 36/36/36 38/38/38
f 16/16/16 3/3/3 39/39/39
f 16/16/16 39/39/39 33/33/33
f 29/29/29 28/28/28 37/37/37

