# Blender 4.1.1
# www.blender.org
mtllib link_body_38.mtl
o link_body_38
v 2.569168 0.422174 2.492082
v 1.767487 0.265978 2.632397
v -0.705742 0.143215 2.692935
v 3.372269 0.469113 2.403662
v -1.060066 0.179105 2.591795
v -1.931007 0.411021 1.987978
v -1.980156 -0.000000 1.980232
v -2.328438 -0.000000 1.555863
v -1.531799 0.275562 2.326665
v -2.279884 0.465465 1.556647
v 2.079300 0.568461 1.712407
v 2.987679 0.491320 2.301174
v 2.476547 0.516837 2.049075
v 2.393211 -0.155437 2.049879
v 2.022224 0.373512 1.714558
v 2.852890 0.000001 2.303595
v 2.988075 -0.491279 2.301387
v 3.245789 -0.008925 2.427713
v 2.500122 -0.517757 2.056414
v 2.092300 -0.563506 1.736856
v -1.928978 -0.410763 1.989524
v -2.278351 -0.465121 1.559121
v 2.569168 -0.422174 2.492082
v 3.372269 -0.469112 2.403662
v -1.537567 -0.276058 2.324021
v -1.053467 -0.184176 2.587274
v -0.705505 -0.143164 2.693010
v 1.767487 -0.265978 2.632397
v 1.552025 0.000000 2.716348
v -1.555771 -0.000000 2.328496
v -2.537666 -0.517612 1.065995
v 1.493973 -0.661681 0.821375
v 1.741081 -0.604039 1.319645
v 1.446571 -0.488016 0.836152
v 1.648712 0.000000 1.304259
v 1.985435 0.000000 1.714558
v 1.717659 0.606798 1.284973
v 1.398506 0.000001 0.836152
v 1.244431 0.000001 0.328225
v 1.446571 0.488017 0.836152
v 1.321083 0.627999 0.319705
v 1.494141 0.661705 0.821829
v -2.694893 0.523571 0.547380
v -2.748634 0.524580 -0.010678
v -2.538376 0.517787 1.063530
v -2.587234 0.000001 1.071700
v -2.746597 0.000001 0.546349
v -2.694901 -0.523571 0.547381
v -2.748634 -0.524580 -0.010678
v -2.800415 -0.000001 -0.000001
v -2.698311 -0.490277 -0.546349
v 1.263229 -0.597365 -0.204055
v 1.315552 -0.626023 0.302966
v 1.192398 0.000000 -0.200000
v 1.244431 0.000001 -0.728225
v 1.261505 0.596843 -0.205324
v 1.301865 -0.548232 -0.725358
v 1.444389 -0.484048 -1.232173
v -2.292122 -0.414220 -1.548492
v -2.329414 -0.000635 -1.554672
v -2.542671 -0.452474 -1.071700
v -1.951324 -0.292680 -1.980232
v -1.525879 -0.303516 -2.328496
v -1.051018 -0.209060 -2.587274
v 0.955231 -0.385309 -2.022842
v -1.081337 0.123507 -2.584020
v 2.424637 -0.293466 -2.451282
v -1.551598 0.192002 -2.331605
v -1.980156 -0.000000 -1.980232
v 0.955231 0.385309 -2.022842
v 2.424637 0.293467 -2.451282
v -1.951324 0.292680 -1.980232
v -2.295319 0.415440 -1.542706
v -2.542671 0.452474 -1.071700
v 1.303558 0.549463 -0.727994
v 1.445358 0.481931 -1.234959
v 1.398506 0.000001 -1.236152
v 1.689369 0.412805 -1.704259
v 1.648712 0.000000 -1.704259
v 1.985435 0.000000 -2.114558
v 1.689369 -0.412805 -1.704259
v 2.019852 -0.349648 -2.114532
v 2.019852 0.349648 -2.114532
v 2.395737 0.000000 -2.451282
v 2.874107 0.097652 -2.704026
v 2.893707 -0.079584 -2.711335
v -0.535759 -0.106569 -2.746621
v 0.438492 0.006927 -2.777169
v -0.584335 0.071728 -2.733953
v -2.698311 0.490277 -0.546349
v -2.585335 0.010020 -1.072262
v -2.746643 0.000162 -0.545879
vn -0.1146 0.4769 0.8715
vn 0.0371 0.4858 0.8733
vn 0.0217 0.7733 0.6336
vn 0.1579 0.0516 0.9861
vn -0.0490 0.9034 0.4259
vn -0.0335 0.9552 0.2940
vn -0.0334 0.9770 0.2106
vn -0.0359 0.9465 0.3206
vn -0.7089 0.0713 0.7016
vn -0.8334 0.0003 0.5527
vn -0.7117 0.0003 0.7025
vn -0.5669 0.0550 0.8219
vn -0.8293 0.0856 0.5521
vn -0.0544 0.9034 0.4254
vn -0.0266 0.9863 0.1630
vn -0.0282 0.9913 0.1284
vn -0.0259 0.9870 0.1584
vn 0.6956 -0.1313 -0.7063
vn 0.5394 -0.0977 -0.8364
vn 0.5585 0.0457 -0.8283
vn 0.3951 -0.0011 -0.9186
vn 0.3435 -0.1120 -0.9324
vn 0.6758 -0.2057 -0.7078
vn 0.2803 0.0026 -0.9599
vn 0.3471 0.1141 -0.9308
vn 0.5147 0.1396 -0.8459
vn -0.0263 -0.9864 0.1620
vn -0.0359 -0.9464 0.3211
vn -0.0337 -0.9770 0.2107
vn 0.6920 0.1203 -0.7118
vn -0.0267 -0.9868 0.1600
vn -0.8286 -0.0860 0.5532
vn -0.7089 -0.0725 0.7016
vn -0.5604 -0.0477 0.8268
vn -0.0281 -0.9913 0.1287
vn 0.0217 -0.7733 0.6336
vn -0.0335 -0.9552 0.2941
vn -0.0491 -0.9036 0.4256
vn -0.0717 -0.8933 0.4437
vn -0.3887 -0.0080 0.9213
vn -0.3912 -0.0186 0.9201
vn -0.1163 -0.4705 0.8747
vn 0.0371 -0.4858 0.8733
vn 0.0434 -0.0000 0.9991
vn 0.1577 -0.0522 0.9861
vn 0.1680 -0.0001 0.9858
vn -0.5564 -0.0022 0.8309
vn 0.2490 0.1187 -0.9612
vn -0.9202 -0.0928 0.3803
vn -0.0320 -0.9977 0.0604
vn -0.0253 -0.9980 0.0582
vn -0.0270 -0.9921 0.1223
vn 0.9072 0.1776 -0.3813
vn 0.8332 -0.0012 -0.5530
vn 0.8136 0.1301 -0.5667
vn 0.8853 0.2736 -0.3760
vn 0.7104 0.0096 -0.7038
vn 0.8253 -0.1360 -0.5480
vn 0.9234 -0.0036 -0.3839
vn 0.9818 -0.0006 -0.1900
vn 0.9071 -0.1715 -0.3844
vn 0.8870 -0.2736 -0.3720
vn 0.9714 -0.1380 -0.1930
vn -0.0337 0.9994 0.0118
vn -0.0320 0.9977 0.0601
vn -0.0251 0.9979 0.0598
vn -0.0264 0.9991 -0.0345
vn -0.0206 0.9981 -0.0587
vn -0.0270 0.9926 0.1186
vn -0.9244 0.0002 0.3815
vn -0.9204 0.0930 0.3798
vn -0.9762 0.0963 0.1944
vn -0.9811 -0.0000 0.1933
vn -0.9762 -0.0962 0.1943
vn -0.9952 -0.0977 -0.0006
vn -0.0337 -0.9994 0.0120
vn -0.0264 -0.9991 -0.0345
vn -1.0000 -0.0002 0.0010
vn -0.9768 -0.0956 -0.1918
vn -0.0204 -0.9981 -0.0586
vn -0.0208 -0.9972 -0.0714
vn -0.0185 -0.9972 -0.0729
vn 0.9729 0.1348 -0.1877
vn 0.9930 0.1178 -0.0095
vn 1.0000 -0.0004 -0.0018
vn 0.9933 -0.1152 -0.0083
vn 0.9777 0.1070 0.1809
vn 0.9816 -0.0018 0.1910
vn -0.0134 -0.9939 -0.1091
vn -0.0117 -0.9938 -0.1108
vn -0.0005 -0.9916 -0.1293
vn 0.9231 0.0928 0.3732
vn -0.8335 0.0001 -0.5526
vn -0.8331 -0.0833 -0.5469
vn -0.9213 -0.0877 -0.3789
vn -0.7029 -0.0643 -0.7084
vn -0.0191 -0.9964 -0.0828
vn -0.4822 -0.6667 -0.5683
vn -0.0075 -0.9827 -0.1849
vn 0.0118 -0.8473 -0.5310
vn -0.0075 -0.9240 -0.3824
vn -0.5588 -0.0350 -0.8286
vn -0.3960 -0.0259 -0.9179
vn -0.3893 -0.0259 -0.9207
vn -0.0041 -0.9861 -0.1663
vn -0.5681 -0.0209 -0.8227
vn -0.7085 -0.0059 -0.7056
vn -0.7185 0.0719 -0.6918
vn -0.0348 0.9535 -0.2993
vn -0.0136 0.9754 -0.2199
vn -0.0346 0.9490 -0.3135
vn -0.0019 0.8497 -0.5272
vn -0.0332 0.9430 -0.3311
vn -0.8341 0.0840 -0.5452
vn -0.0212 0.9889 -0.1472
vn -0.9211 0.0897 -0.3789
vn -0.0095 0.9941 -0.1079
vn -0.0191 0.9964 -0.0821
vn -0.0189 0.9972 -0.0728
vn 0.9780 -0.1053 0.1803
vn 0.0146 0.9913 -0.1307
vn 0.9230 -0.0932 0.3735
vn 0.9246 -0.0000 0.3809
vn 0.8334 0.0001 0.5527
vn 0.0215 0.9906 -0.1350
vn 0.8311 -0.0819 0.5501
vn 0.7101 -0.0000 0.7041
vn 0.7073 -0.0697 0.7035
vn 0.7073 0.0697 0.7035
vn 0.8313 0.0819 0.5498
vn 0.0212 0.9901 -0.1386
vn 0.5595 0.0009 0.8288
vn 0.5647 -0.0556 0.8234
vn 0.4674 -0.0014 0.8841
vn 0.4658 0.0237 0.8846
vn 0.5627 0.0554 0.8248
vn 0.0011 -0.8398 -0.5429
vn 0.0126 -0.7833 -0.6216
vn 0.0100 -0.3278 -0.9447
vn 0.0279 0.0318 -0.9991
vn -0.1522 0.0137 -0.9883
vn 0.0283 0.0443 -0.9986
vn -0.1951 0.0153 -0.9807
vn -0.0268 0.9017 -0.4315
vn -0.0004 0.7803 -0.6254
vn 0.0027 0.5835 -0.8121
vn 0.0212 -0.9901 -0.1386
vn 0.0220 -0.9904 -0.1363
vn -0.9809 -0.0003 -0.1947
vn -0.9766 0.0961 -0.1922
vn -0.0207 0.9972 -0.0714
vn -0.9247 0.0029 -0.3806
vn -0.9952 0.0981 -0.0002
vn 0.2496 -0.1144 -0.9616
vt 0.939843 0.679249
vt 0.956279 0.680068
vt 0.961610 0.681113
vt 0.966949 0.681429
vt 0.941545 0.097994
vt 0.943793 0.097189
vt 0.963737 0.097501
vt 0.968692 0.097829
vt 0.935860 0.102381
vt 0.966285 0.098648
vt 0.970239 0.331620
vt 0.973179 0.335085
vt 0.970387 0.334256
vt 0.931721 0.681066
vt 0.931395 0.678335
vt 0.934365 0.680148
vt 0.973064 0.332116
vt 0.938502 0.099949
vt 0.960701 0.102889
vt 0.933752 0.105379
vt 0.963147 0.100503
vt 0.523792 0.980818
vt 0.522878 0.977779
vt 0.527344 0.978333
vt 0.526340 0.975263
vt 0.523076 0.974368
vt 0.522496 0.980439
vt 0.526414 0.972645
vt 0.529604 0.974365
vt 0.529752 0.977622
vt 0.594988 0.961618
vt 0.593047 0.964677
vt 0.598287 0.932365
vt 0.530020 0.980351
vt 0.597374 0.959142
vt 0.973275 0.337793
vt 0.970430 0.336631
vt 0.931735 0.675606
vt 0.934326 0.676483
vt 0.601370 0.930348
vt 0.592045 0.961767
vt 0.592117 0.967144
vt 0.593724 0.937699
vt 0.595796 0.934697
vt 0.937492 0.679493
vt 0.937536 0.677079
vt 0.939845 0.677346
vt 0.592791 0.939919
vt 0.591609 0.956334
vt 0.956279 0.676533
vt 0.954845 0.678296
vt 0.966949 0.675195
vt 0.966108 0.678251
vt 0.961610 0.675502
vt 0.934205 0.678317
vt 0.529468 0.971806
vt 0.976543 0.338696
vt 0.604808 0.928966
vt 0.603833 0.955804
vt 0.600368 0.957101
vt 0.976612 0.389389
vt 0.973310 0.392666
vt 0.973237 0.388766
vt 0.976705 0.388290
vt 0.970373 0.392861
vt 0.970239 0.389238
vt 0.526273 0.981062
vt 0.970292 0.395352
vt 0.973300 0.396726
vt 0.976571 0.392561
vt 0.980031 0.392548
vt 0.976466 0.395815
vt 0.976502 0.397003
vt 0.979942 0.396751
vt 0.931483 0.112230
vt 0.932242 0.108754
vt 0.957238 0.109026
vt 0.931395 0.115946
vt 0.956456 0.112399
vt 0.958548 0.105860
vt 0.976375 0.335668
vt 0.976306 0.332377
vt 0.979720 0.332651
vt 0.979851 0.335982
vt 0.979976 0.339043
vt 0.983678 0.339081
vt 0.608339 0.928262
vt 0.612063 0.928264
vt 0.983475 0.336016
vt 0.987230 0.338635
vt 0.607369 0.954947
vt 0.615565 0.928930
vt 0.610749 0.954917
vt 0.980245 0.388494
vt 0.983627 0.388757
vt 0.983557 0.392628
vt 0.983457 0.396619
vt 0.987039 0.389238
vt 0.987014 0.392799
vt 0.621911 0.932233
vt 0.614161 0.955492
vt 0.617406 0.956740
vt 0.990284 0.389905
vt 0.993833 0.334483
vt 0.993896 0.336911
vt 0.990721 0.337894
vt 0.996758 0.335193
vt 0.618930 0.930284
vt 0.624520 0.934726
vt 0.626548 0.937763
vt 0.624792 0.963941
vt 0.627932 0.941038
vt 0.960660 0.868620
vt 0.957832 0.871596
vt 0.957547 0.869396
vt 0.622932 0.953985
vt 0.960955 0.871904
vt 0.963465 0.868546
vt 0.963730 0.870482
vt 0.963612 0.872432
vt 0.937775 0.128634
vt 0.955757 0.127954
vt 0.940654 0.130787
vt 0.965337 0.130254
vt 0.943858 0.132273
vt 0.996615 0.331620
vt 0.996685 0.333482
vt 0.993655 0.331856
vt 0.935157 0.125900
vt 0.990500 0.332370
vt 0.956990 0.119317
vt 0.933318 0.122878
vt 0.956388 0.115886
vt 0.986890 0.396467
vt 0.958253 0.122602
vt 0.990156 0.396266
vt 0.990268 0.393053
vt 0.993195 0.393381
vt 0.960142 0.125602
vt 0.993106 0.396134
vt 0.995682 0.393770
vt 0.995606 0.396102
vt 0.995711 0.391498
vt 0.993230 0.390698
vt 0.962531 0.128183
vt 0.726011 0.972261
vt 0.728552 0.974530
vt 0.726630 0.974912
vt 0.728301 0.971806
vt 0.730636 0.971806
vt 0.728205 0.977766
vt 0.729389 0.977780
vt 0.730511 0.974530
vt 0.628631 0.944515
vt 0.626165 0.967144
vt 0.947723 0.871226
vt 0.931395 0.871261
vt 0.954162 0.870224
vt 0.931569 0.872432
vt 0.954528 0.871394
vt 0.968692 0.131701
vt 0.947146 0.133076
vt 0.622839 0.961067
vt 0.620354 0.958640
vt 0.987104 0.335768
vt 0.986991 0.332649
vt 0.932026 0.119465
vt 0.990608 0.335182
vt 0.983422 0.332676
vt 0.970239 0.396685
vt 0.523235 0.971806
s 1
usemtl pleuraldeles_skin
f 3/1/1 2/2/2 1/3/3
f 1/3/3 2/2/2 4/4/4
f 5/5/5 3/6/1 1/7/3
f 1/7/3 4/8/6 6/9/7
f 5/5/5 1/7/3 6/9/7
f 4/8/6 12/10/8 6/9/7
f 6/11/9 8/12/10 7/13/11
f 6/14/9 7/15/11 9/16/12
f 8/12/10 6/11/9 10/17/13
f 9/18/14 5/5/5 6/9/7
f 6/9/7 11/19/15 10/20/16
f 13/21/17 11/19/15 6/9/7
f 6/9/7 12/10/8 13/21/17
f 15/22/18 13/23/19 14/24/20
f 13/23/19 16/25/21 14/24/20
f 13/23/19 12/26/22 16/25/21
f 13/23/19 15/22/18 11/27/23
f 18/28/24 17/29/25 16/25/21
f 16/25/21 17/29/25 19/30/26
f 16/25/21 12/26/22 18/28/24
f 14/24/20 16/25/21 19/30/26
f 19/31/27 17/32/28 21/33/29
f 14/24/20 19/30/26 20/34/30
f 21/33/29 20/35/31 19/31/27
f 22/36/32 21/37/33 7/13/11
f 7/15/11 21/38/33 25/39/34
f 21/33/29 22/40/35 20/35/31
f 23/41/36 21/33/29 24/42/37
f 26/43/38 21/33/29 23/41/36
f 17/32/28 24/42/37 21/33/29
f 25/44/39 21/33/29 26/43/38
f 5/45/40 25/39/34 26/46/41
f 5/45/40 26/46/41 27/47/42
f 27/48/42 26/43/38 23/41/36
f 27/48/42 23/41/36 28/49/43
f 27/47/42 28/50/43 29/51/44
f 29/51/44 3/1/1 27/47/42
f 3/1/1 5/45/40 27/47/42
f 2/2/2 3/1/1 29/51/44
f 2/2/2 29/51/44 4/4/4
f 29/51/44 28/50/43 24/52/45
f 29/51/44 24/52/45 18/53/46
f 18/53/46 4/4/4 29/51/44
f 28/50/43 23/54/36 24/52/45
f 30/55/47 25/39/34 5/45/40
f 30/55/47 7/15/11 25/39/34
f 30/55/47 9/16/12 7/15/11
f 30/55/47 5/45/40 9/16/12
f 18/28/24 24/56/48 17/29/25
f 8/12/10 22/36/32 7/13/11
f 8/12/10 31/57/49 22/36/32
f 22/40/35 31/58/50 32/59/51
f 33/60/52 20/35/31 22/40/35
f 32/59/51 33/60/52 22/40/35
f 34/61/53 35/62/54 33/63/55
f 33/63/55 32/64/56 34/61/53
f 33/63/55 35/62/54 36/65/57
f 33/63/55 36/65/57 20/66/30
f 15/22/18 14/24/20 36/67/57
f 14/24/20 20/34/30 36/67/57
f 35/62/54 15/68/18 36/65/57
f 35/62/54 37/69/58 15/68/18
f 38/70/59 37/69/58 35/62/54
f 34/61/53 38/70/59 35/62/54
f 34/61/53 39/71/60 38/70/59
f 39/71/60 40/72/61 38/70/59
f 38/70/59 40/72/61 37/69/58
f 37/69/58 40/72/61 42/73/62
f 40/72/61 41/74/63 42/73/62
f 39/71/60 41/74/63 40/72/61
f 43/75/64 45/76/65 42/77/66
f 44/78/67 43/75/64 42/77/66
f 44/78/67 42/77/66 41/79/68
f 10/20/16 42/77/66 45/76/65
f 37/80/69 42/77/66 10/20/16
f 46/81/70 45/82/71 43/83/72
f 45/82/71 46/81/70 8/12/10
f 10/17/13 45/82/71 8/12/10
f 46/81/70 31/57/49 8/12/10
f 46/81/70 43/83/72 47/84/73
f 48/85/74 46/81/70 47/84/73
f 48/85/74 31/57/49 46/81/70
f 47/84/73 49/86/75 48/85/74
f 48/87/76 49/88/77 32/59/51
f 48/87/76 32/59/51 31/58/50
f 47/84/73 50/89/78 49/86/75
f 49/86/75 50/89/78 51/90/79
f 49/88/77 53/91/80 32/59/51
f 49/88/77 51/92/81 52/93/82
f 49/88/77 52/93/82 53/91/80
f 34/61/53 53/94/83 39/71/60
f 53/94/83 34/61/53 32/64/56
f 53/94/83 52/95/84 54/96/85
f 53/94/83 54/96/85 39/71/60
f 39/71/60 54/96/85 56/97/86
f 57/98/87 54/96/85 52/95/84
f 57/98/87 55/99/88 54/96/85
f 55/99/88 56/97/86 54/96/85
f 59/100/89 57/101/90 52/93/82
f 59/100/89 58/102/91 57/101/90
f 55/99/88 57/98/87 58/103/92
f 60/104/93 59/105/94 61/106/95
f 60/104/93 62/107/96 59/105/94
f 52/93/82 61/108/97 59/100/89
f 59/100/98 62/109/98 63/110/98
f 63/110/99 58/102/91 59/100/89
f 67/111/100 63/110/99 64/112/101
f 63/113/102 66/114/103 64/115/104
f 63/110/99 65/116/105 58/102/91
f 67/111/100 65/116/105 63/110/99
f 68/117/106 66/114/103 63/113/102
f 62/118/96 68/117/106 63/113/102
f 69/119/107 68/117/106 62/118/96
f 72/120/108 68/117/106 69/119/107
f 72/121/109 70/122/110 68/123/111
f 70/122/110 71/124/112 68/123/111
f 71/124/112 66/125/113 68/123/111
f 60/104/93 72/126/108 69/127/107
f 72/126/108 60/104/93 73/128/114
f 72/121/109 73/129/115 70/122/110
f 60/104/93 74/130/116 73/128/114
f 75/131/117 70/122/110 73/129/115
f 73/129/115 74/132/118 56/133/119
f 75/131/117 73/129/115 56/133/119
f 55/99/88 75/134/120 56/97/86
f 70/122/110 75/131/117 76/135/121
f 75/134/120 55/99/88 76/136/122
f 77/137/123 79/138/124 76/136/122
f 55/99/88 77/137/123 76/136/122
f 70/122/110 76/135/121 78/139/125
f 79/138/124 78/140/126 76/136/122
f 79/138/124 77/137/123 58/103/92
f 79/138/124 80/141/127 83/142/128
f 80/141/127 79/138/124 82/143/129
f 58/103/92 81/144/130 79/138/124
f 79/138/124 81/144/130 82/143/129
f 83/142/128 78/140/126 79/138/124
f 70/122/110 78/139/125 83/145/131
f 83/146/128 84/147/132 71/148/133
f 70/122/110 83/145/131 71/124/112
f 83/146/128 80/149/127 84/147/132
f 84/147/132 80/149/127 82/150/129
f 84/147/132 85/151/134 71/148/133
f 86/152/135 85/151/134 84/147/132
f 84/147/132 67/153/136 86/152/135
f 84/147/132 82/150/129 67/153/136
f 67/111/100 87/154/137 86/155/138
f 88/156/139 86/157/140 87/158/141
f 88/156/139 85/159/142 86/157/140
f 89/160/143 88/156/139 87/158/141
f 89/160/144 85/159/145 88/156/146
f 71/124/112 85/161/145 89/162/144
f 71/124/112 89/162/144 66/125/113
f 64/115/104 66/114/103 89/160/143
f 64/115/104 89/160/143 87/158/141
f 64/112/101 87/154/137 67/111/100
f 65/116/105 82/163/147 81/164/148
f 65/116/105 67/111/100 82/163/147
f 65/116/105 81/164/148 58/102/91
f 77/137/123 55/99/88 58/103/92
f 92/165/149 90/166/150 74/130/116
f 90/167/151 56/133/119 74/132/118
f 60/104/93 91/168/152 74/130/116
f 92/165/149 74/130/116 91/168/152
f 92/165/149 61/106/95 51/90/79
f 50/89/78 92/165/149 51/90/79
f 92/165/149 91/168/152 61/106/95
f 50/89/78 44/169/153 92/165/149
f 92/165/149 44/169/153 90/166/150
f 60/104/93 61/106/95 91/168/152
f 90/167/151 44/78/67 56/133/119
f 60/104/93 69/127/107 62/107/96
f 51/92/81 61/108/97 52/93/82
f 39/71/60 56/97/86 41/74/63
f 44/78/67 41/79/68 56/133/119
f 47/84/73 44/169/153 50/89/78
f 47/84/73 43/83/72 44/169/153
f 15/68/18 37/69/58 11/170/23
f 10/20/16 11/19/15 37/80/69
f 12/26/22 4/171/154 18/28/24
