# ('FARMS composite mesh',)
mtllib link_leg_1_R_1_composite.mtl

o link_leg_1_R_1
usemtl link_leg_1_R_1_composite
v -1.88007100 1.80533800 0.35373700
v -1.88007100 1.80533800 0.35373700
v -2.01531600 2.63792700 0.00501400
v -1.16140700 0.87215100 -0.36495100
v -1.98530400 1.81383000 -0.44205800
v -1.98530400 1.81383000 -0.44205800
v -1.46143500 1.85260000 1.05929000
v -1.46143500 1.85260000 1.05929000
v -1.46143500 1.85260000 1.05929000
v -1.46143500 1.85260000 1.05929000
v -0.92037000 0.88180400 0.42764300
v -1.71689100 2.27899600 0.75816400
v -1.71689100 2.27899600 0.75816400
v -1.16241000 3.04292900 1.15522600
v -1.16241000 3.04292900 1.15522600
v -1.77508400 4.87689100 -0.13306900
v -1.54258000 6.39452700 -0.36710900
v -1.54258000 6.39452700 -0.36710900
v -1.99494600 4.07047900 -0.41775300
v -1.55201500 3.89664400 -1.76738800
v -1.55201500 3.89664400 -1.76738800
v -1.84433000 4.87171500 -1.42263300
v -1.84433000 4.87171500 -1.42263300
v -1.99463600 3.20967900 -0.63807800
v -1.77097500 5.39165400 -0.49227800
v -1.91527800 5.85519000 -1.06681500
v -1.91527800 5.85519000 -1.06681500
v -1.91527800 5.85519000 -1.06681500
v -1.64025400 5.69114600 -2.15570100
v -1.64025400 5.69114600 -2.15570100
v -1.64025400 5.69114600 -2.15570100
v -1.97392100 6.05708600 -2.02969600
v -1.97392100 6.05708600 -2.02969600
v -1.97392100 6.05708600 -2.02969600
v -1.97392100 6.05708600 -2.02969600
v -2.08890000 6.33985500 -1.22715700
v -2.08890000 6.33985500 -1.22715700
v -2.08890000 6.33985500 -1.22715700
v -1.82369500 6.89750600 -0.62063700
v -1.82369500 6.89750600 -0.62063700
v -1.82369500 6.89750600 -0.62063700
v -1.33134800 7.11924400 -1.66420200
v -1.23414000 7.36905700 -0.04461200
v -1.23414000 7.36905700 -0.04461200
v -1.23414000 7.36905700 -0.04461200
v -1.23414000 7.36905700 -0.04461200
v -1.14143100 7.60342000 0.01594400
v -1.14143100 7.60342000 0.01594400
v -0.91322000 7.80070900 -0.45062500
v -0.93188000 5.36364700 0.53030800
v -0.93188000 5.36364700 0.53030800
v 0.03556700 4.21040600 1.36827800
v 0.66584900 3.84316300 1.67378200
v 0.00084900 5.75370000 0.92904300
v 0.32614300 3.15020800 1.94570000
v 0.87928700 2.87898300 1.94244700
v 0.87928700 2.87898300 1.94244700
v 1.28160300 3.17430800 1.82271600
v 1.28160300 3.17430800 1.82271600
v 0.18783300 2.57328300 2.01210200
v 0.18783300 2.57328300 2.01210200
v -0.54856700 2.35578600 1.77807500
v -0.54856700 2.35578600 1.77807500
v -0.89653400 2.10258900 1.60512300
v -0.89653400 2.10258900 1.60512300
v 0.17046500 1.39333000 1.34498300
v 0.17046500 1.39333000 1.34498300
v 0.93120100 1.70068400 1.30377500
v 0.93120100 1.70068400 1.30377500
v -0.03622600 0.56356800 0.45223600
v 0.58305500 0.86642700 0.74623400
v 0.58305500 0.86642700 0.74623400
v -0.55623800 1.14185700 1.01204500
v -0.55623800 1.14185700 1.01204500
v 0.46002200 0.48277300 0.16420500
v 1.41567700 1.46333400 0.68558600
v 1.41567700 1.46333400 0.68558600
v 1.41567700 1.46333400 0.68558600
v 0.99226100 0.64586100 -0.11824400
v 0.99226100 0.64586100 -0.11824400
v 0.30621300 0.36035000 -0.56085300
v 1.54282200 1.21381800 -0.22223600
v 0.60982000 0.60171300 -1.00358000
v 1.26973500 1.12336200 -1.14933300
v 1.26973500 1.12336200 -1.14933300
v 1.26973500 1.12336200 -1.14933300
v 1.91077100 3.41732500 -2.07017000
v 1.91077100 3.41732500 -2.07017000
v 0.60979900 1.21199800 -1.72758800
v 0.60979900 1.21199800 -1.72758800
v 0.79781600 2.00640300 -2.24134100
v 0.79781600 2.00640300 -2.24134100
v 1.60784100 1.46756000 -0.95436400
v 2.01152800 2.13822400 -0.86119100
v 1.97203600 2.05939000 0.20936100
v 2.13823400 3.21717300 -1.58867800
v 2.13823400 3.21717300 -1.58867800
v 2.14105100 3.77869900 -1.48033700
v 2.17662100 3.25103500 -0.71722500
v 2.24973700 3.35051800 0.77173100
v 2.54548000 4.14522500 -0.17671700
v 2.57129800 4.81117900 0.38266400
v 2.63386200 5.82973400 -0.87092600
v 2.46412700 6.59816700 -1.02837200
v 2.60426100 6.42158500 -0.10216600
v 1.97119500 4.80176100 -2.05802000
v 1.61415200 3.92525800 -2.55164400
v 1.61415200 3.92525800 -2.55164400
v 2.08598100 6.29181200 -1.76142900
v 2.08598100 6.29181200 -1.76142900
v 2.09710200 8.29066100 -1.34663200
v 1.40323700 4.93795700 -2.58069100
v 1.40323700 4.93795700 -2.58069100
v 0.96119100 6.30379100 -2.56973600
v 1.60613000 7.35173400 -2.12640000
v 1.60613000 7.35173400 -2.12640000
v 1.45793300 8.36671100 -2.02760600
v 1.45793300 8.36671100 -2.02760600
v 1.45793300 8.36671100 -2.02760600
v 1.83091000 8.61479200 -1.50930400
v 1.83091000 8.61479200 -1.50930400
v 0.57400900 8.30370700 -1.69264800
v 0.57400900 8.30370700 -1.69264800
v 0.79023100 8.00753000 -2.41693500
v 0.79023100 8.00753000 -2.41693500
v 0.79023100 8.00753000 -2.41693500
v -0.00881200 7.58396500 -2.54246400
v -0.00881200 7.58396500 -2.54246400
v 1.05110200 7.19341300 -2.41832400
v -0.24716600 6.56142400 -2.54406000
v -0.59635800 7.17052100 -2.60205500
v -0.59635800 7.17052100 -2.60205500
v -0.53790100 7.76349300 -1.64279000
v 0.34154000 8.44070100 -0.83178700
v 0.34154000 8.44070100 -0.83178700
v 0.33735500 8.50675200 0.13414200
v 0.33735500 8.50675200 0.13414200
v 0.33735500 8.50675200 0.13414200
v 2.12566500 8.87610200 -0.54127200
v 2.12566500 8.87610200 -0.54127200
v 2.12566500 8.87610200 -0.54127200
v 1.91869700 8.85083000 -0.19880800
v 1.91869700 8.85083000 -0.19880800
v 1.91869700 8.85083000 -0.19880800
v 2.12457300 8.25374200 0.02761200
v 2.12457300 8.25374200 0.02761200
v 2.12457300 8.25374200 0.02761200
v 2.22175700 8.76448100 -0.93962900
v 2.22175700 8.76448100 -0.93962900
v 2.22175700 8.76448100 -0.93962900
v 2.23719700 8.37267700 -0.64025100
v 2.41668200 7.77468100 -0.17269000
v 2.52113500 7.60906200 -0.58887600
v 2.28254700 7.35473600 0.41268200
v 2.28254700 7.35473600 0.41268200
v 2.10566400 6.52910200 0.78953500
v 2.39868600 6.11753800 0.58850900
v 2.39868600 6.11753800 0.58850900
v 1.90902000 5.18739700 1.19485900
v 2.15011400 3.53455300 1.06733300
v 2.15011400 3.53455300 1.06733300
v 1.78760800 3.34052500 1.50396800
v 1.78760800 3.34052500 1.50396800
v 1.65075600 6.32535900 1.06952600
v 1.27338000 5.46429000 1.32982500
v 1.50452900 8.80966200 0.07559300
v 1.50452900 8.80966200 0.07559300
v 1.04986300 7.55741500 0.64054300
v -0.35330100 8.16706800 0.17597500
v -0.35330100 8.16706800 0.17597500
v -0.69590200 7.94145600 0.15653400
v -0.69590200 7.94145600 0.15653400
v -1.37417700 6.34863600 -2.64703700
v -1.37417700 6.34863600 -2.64703700
v -1.37417700 6.34863600 -2.64703700
v -0.81962900 5.54742400 -2.63288100
v -0.25124800 4.45893800 -2.62569500
v -0.64008200 4.01632200 -2.40452800
v -0.64008200 4.01632200 -2.40452800
v -0.44973600 2.97816200 -2.86228700
v -0.44973600 2.97816200 -2.86228700
v -0.44973600 2.97816200 -2.86228700
v -0.61243100 3.14523400 -2.42715700
v -0.61243100 3.14523400 -2.42715700
v -0.11490300 3.12801600 -2.91443200
v -0.11490300 3.12801600 -2.91443200
v -0.11490300 3.12801600 -2.91443200
v -1.61693600 2.79428000 -1.35298000
v -1.61693600 2.79428000 -1.35298000
v -1.76573900 1.76836200 -1.12912500
v -1.76573900 1.76836200 -1.12912500
v -1.76573900 1.76836200 -1.12912500
v -1.32064100 1.60925300 -1.56712400
v -1.32064100 1.60925300 -1.56712400
v -0.96048700 0.99525700 -1.19174000
v -0.37189700 0.75813100 -1.28446400
v -0.37189700 0.75813100 -1.28446400
v -0.38111300 0.46995900 -0.66513300
v -0.21536700 0.39344800 -0.10643900
v 0.21342200 0.73250200 -1.35347400
v 0.21342200 0.73250200 -1.35347400
v -0.91211400 1.70617500 -1.97890700
v -0.91211400 1.70617500 -1.97890700
v -0.91211400 1.70617500 -1.97890700
v -0.13982500 1.28116800 -1.90918400
v -0.13982500 1.28116800 -1.90918400
v -0.47656000 2.15762900 -2.44128300
v -0.47656000 2.15762900 -2.44128300
v -0.47656000 2.15762900 -2.44128300
v 0.37585500 3.08164300 -2.84341600
v 1.10113900 3.50041300 -2.74565100
v 2.18087500 2.75406700 0.35948200
v 2.18087500 2.75406700 0.35948200
v -1.27828700 5.05396200 -2.24593000
v -1.27828700 5.05396200 -2.24593000
vn -0.94394402 -0.07568588 0.32131190
vn -0.70343799 -0.66254828 0.25730287
vn -0.97839982 0.03229149 0.20418389
vn -0.62633881 -0.77912694 -0.02570802
vn -0.98975684 -0.03452749 -0.13852524
vn -0.74981866 -0.65993014 -0.04758340
vn -0.59604607 -0.64412629 0.47940630
vn -0.41875615 -0.57978403 0.69892329
vn -0.69721217 0.11816180 0.70705939
vn -0.84653913 -0.14555732 0.51203961
vn -0.50435800 -0.77435504 0.38209591
vn -0.67498552 0.11077212 0.72946836
vn -0.87148635 0.02246282 0.48990506
vn -0.54523685 0.24566413 0.80147733
vn -0.73011710 0.21220971 0.64953526
vn -0.86294983 0.19120831 0.46771463
vn -0.69005007 -0.02100865 0.72345665
vn -0.83104209 0.03998760 0.55477026
vn -0.99455476 0.07610189 0.07119927
vn -0.19495010 -0.33505202 -0.92181050
vn -0.91218774 -0.07705844 -0.40246184
vn -0.73919292 -0.33737337 -0.58290054
vn -0.96995110 -0.02944334 -0.24151180
vn -0.97184174 -0.01229031 -0.23531378
vn -0.97079895 0.12119026 0.20703219
vn -0.75130461 -0.65361095 -0.09129132
vn -0.97063281 -0.01940374 0.23978208
vn -0.93980345 -0.34141406 -0.01434989
vn -0.75130461 -0.65361095 -0.09129132
vn -0.96865505 0.01971153 -0.24762642
vn -0.60447973 -0.30496244 -0.73593625
vn -0.75130461 -0.65361095 -0.09129132
vn -0.73526093 0.57065382 -0.36571244
vn -0.60846965 -0.30213200 -0.73381260
vn -0.93980345 -0.34141406 -0.01434989
vn -0.83083819 -0.14592537 0.53704160
vn -0.76179358 0.58807557 -0.27173088
vn -0.93980345 -0.34141406 -0.01434989
vn -0.69005007 -0.02100865 0.72345665
vn -0.72488644 0.67563806 -0.13436096
vn -0.82313511 -0.19039446 0.53497528
vn -0.67179443 0.66910255 -0.31779556
vn -0.46378960 0.12272512 0.87740398
vn -0.79639637 0.05268578 0.60247575
vn -0.79010432 0.61239689 0.02655596
vn -0.69005007 -0.02100865 0.72345665
vn -0.16542784 -0.18486865 0.96874001
vn -0.79789241 0.58568731 -0.14261162
vn -0.61509019 0.78386063 -0.08500924
vn -0.50760712 0.18553306 0.84137536
vn -0.66510574 0.22566470 0.71183552
vn -0.35082599 0.29877682 0.88749847
vn -0.08941049 0.31412771 0.94516112
vn -0.21037735 0.27358691 0.93855824
vn -0.16179715 0.27489610 0.94776253
vn 0.09979361 0.19181192 0.97634493
vn 0.42523490 -0.41674635 0.80342875
vn 0.21064739 0.21912337 0.95268706
vn 0.55820647 -0.39052494 0.73204905
vn -0.22676890 0.16484547 0.95989678
vn 0.11876063 -0.47822810 0.87016883
vn -0.48546495 0.27061303 0.83131966
vn -0.11311569 -0.47676873 0.87172038
vn -0.23637278 -0.53733962 0.80956411
vn -0.64098285 0.17618945 0.74705975
vn 0.08286579 -0.55049490 0.83071573
vn -0.02066190 -0.72992690 0.68321286
vn 0.48709949 -0.61661173 0.61848530
vn 0.42839732 -0.47851133 0.76648721
vn -0.08429307 -0.86508478 0.49449268
vn 0.31586241 -0.75885934 0.56952914
vn 0.28724784 -0.61220175 0.73668019
vn -0.26179353 -0.57241541 0.77704874
vn -0.28103804 -0.73031583 0.62262059
vn 0.25106400 -0.91583056 0.31340269
vn 0.79007494 -0.50580159 0.34633269
vn 0.63415618 -0.41113156 0.65484104
vn 0.51410273 -0.66166325 0.54580227
vn 0.49395787 -0.85783021 0.14189062
vn 0.72231649 -0.68871655 0.06267697
vn 0.14283873 -0.97777202 -0.15348936
vn 0.79091523 -0.60949032 0.05454030
vn 0.36296633 -0.84209223 -0.39891869
vn 0.73828996 -0.56080342 -0.37473652
vn 0.50772227 -0.54935552 -0.66364645
vn 0.50161621 -0.75337887 -0.42520754
vn 0.57486855 -0.36240141 -0.73361527
vn 0.85578772 -0.16470618 -0.49040722
vn 0.37472578 -0.70888445 -0.59754784
vn 0.28915432 -0.59695310 -0.74835605
vn 0.25642066 -0.48197589 -0.83782319
vn 0.64560307 -0.43293992 -0.62909435
vn 0.79315411 -0.48676845 -0.36600960
vn 0.92147170 -0.33102514 -0.20325418
vn 0.89933706 -0.37851602 0.21890287
vn 0.98440896 -0.01373283 -0.17535794
vn 0.72712275 -0.44044681 -0.52659199
vn 0.95713364 -0.07205473 -0.28054111
vn 0.98350490 -0.16098319 -0.08247742
vn 0.89986959 -0.29745881 0.31898743
vn 0.97807572 -0.20252595 -0.04848843
vn 0.95588828 -0.02995636 0.29219892
vn 0.96642503 0.02893287 -0.25531460
vn 0.93328734 0.08964039 -0.34776334
vn 0.98637885 0.09343698 0.13537463
vn 0.81642124 0.02096091 -0.57707625
vn 0.45126168 -0.14263730 -0.88091855
vn 0.79610847 0.01638785 -0.60493201
vn 0.58213590 0.08311226 -0.80883258
vn 0.84554793 0.06933103 -0.52937880
vn 0.81729416 0.18159120 -0.54685911
vn 0.18611290 0.10351046 -0.97706068
vn 0.68708809 0.10778420 -0.71853499
vn 0.24916617 0.09088101 -0.96418715
vn 0.45566345 0.09404400 -0.88517035
vn 0.78302532 0.15495501 -0.60237887
vn 0.43358813 0.13861938 -0.89038531
vn -0.19834985 0.91500378 -0.35131955
vn 0.75873744 0.17193924 -0.62829484
vn -0.17800162 0.95548313 -0.23530279
vn 0.73335131 0.21628287 -0.64452895
vn -0.41057671 0.84210451 -0.34969524
vn -0.20936115 0.93214560 -0.29541916
vn 0.29781378 0.08146414 -0.95114171
vn -0.36435675 0.81881612 -0.44360378
vn -0.22370054 0.87693273 -0.42537873
vn -0.43473949 0.79210783 -0.42844691
vn 0.29739396 -0.29159011 -0.90913807
vn 0.33603012 0.09237213 -0.93731059
vn 0.09364537 0.02999654 -0.99515363
vn 0.12862757 -0.01294589 -0.99160847
vn -0.56418535 0.69940776 -0.43877520
vn -0.51584764 0.79811072 -0.31132055
vn -0.46014185 0.87272451 -0.16316069
vn -0.21551488 0.96664070 -0.13841637
vn -0.22941132 0.96955761 -0.08560659
vn -0.44353209 0.89403755 -0.06305666
vn -0.10619472 0.40477125 0.90823065
vn 0.96602370 0.17698866 0.18834340
vn -0.17252430 0.97273516 -0.15498930
vn 0.75196581 0.44403425 0.48721761
vn 0.75196581 0.44403425 0.48721761
vn -0.22993078 0.96897161 -0.09069646
vn 0.46197438 0.44926267 0.76468472
vn 0.89453912 0.34729494 0.28140004
vn 0.75196581 0.44403425 0.48721761
vn 0.39232525 0.38894969 0.83354606
vn 0.99946361 0.03072441 -0.01133607
vn 0.01812924 0.96388252 -0.26571004
vn 0.74279432 0.31298033 -0.59186140
vn 0.97376368 0.22623665 0.02452093
vn 0.91961344 0.29168034 0.26312297
vn 0.97665754 0.18876400 -0.10250950
vn 0.92405097 0.17708193 0.33877986
vn 0.15092601 0.38353390 0.91111091
vn 0.54044460 0.24337558 0.80541168
vn 0.93156028 0.09122170 0.35195746
vn 0.69128232 0.12132797 0.71232596
vn 0.53320250 0.13070248 0.83583010
vn 0.85547418 -0.24642314 0.45545534
vn 0.75138584 0.05889288 0.65722975
vn 0.78892236 -0.37014960 0.49050054
vn 0.61478066 -0.06208572 0.78625066
vn 0.16346997 0.28463884 0.94459425
vn 0.00874136 0.26259614 0.96486624
vn -0.25504918 0.93547599 -0.24461110
vn 0.24138118 0.42398633 0.87290934
vn -0.06423965 0.32938708 0.94200712
vn -0.18638633 0.29729023 0.93641799
vn -0.48357744 0.87324163 -0.06001600
vn -0.32185867 0.21188590 0.92277373
vn -0.56965185 0.82177694 0.01339511
vn 0.04413855 0.01290036 -0.99894212
vn -0.67361827 0.59558617 -0.43762490
vn -0.54816682 -0.34688388 -0.76104186
vn -0.22471821 -0.11164247 -0.96800707
vn -0.19765042 0.02444737 -0.97996767
vn -0.93906852 -0.02089606 -0.34309426
vn -0.57575377 -0.04723441 -0.81625763
vn 0.06650944 -0.45721317 -0.88686674
vn -0.29165006 0.34063873 -0.89381514
vn -0.94368486 -0.08920238 -0.31859350
vn -0.71989984 -0.03530147 -0.69317965
vn -0.94232789 -0.06014646 -0.32924240
vn 0.07843290 -0.46025061 -0.88431762
vn -0.37108151 0.28746163 -0.88298603
vn 0.05233303 0.12142274 -0.99122034
vn -0.91130681 -0.06071367 -0.40722690
vn -0.68249916 -0.08353300 -0.72609720
vn -0.94881605 0.07044196 -0.30787340
vn -0.70960716 -0.05042467 -0.70279089
vn -0.69578659 -0.66131797 -0.28024909
vn -0.70577853 -0.04875139 -0.70675311
vn -0.55897872 -0.64582798 -0.52004713
vn -0.51969697 -0.73416332 -0.43694310
vn -0.30781244 -0.67013356 -0.67540545
vn -0.23817545 -0.82298162 -0.51572639
vn -0.30464842 -0.92491107 -0.22743978
vn -0.22070837 -0.96391768 0.14883050
vn 0.11614868 -0.66888367 -0.73423710
vn 0.05842404 -0.83033676 -0.55419084
vn -0.42873849 -0.65720470 -0.61989135
vn -0.26530497 -0.60521963 -0.75054811
vn -0.70483715 -0.06315082 -0.70655259
vn -0.07160507 -0.61540066 -0.78495524
vn -0.11049678 -0.74146676 -0.66182891
vn -0.68330691 -0.08363226 -0.72532566
vn -0.00196289 -0.50430504 -0.86352335
vn -0.94410670 -0.12552697 -0.30480408
vn 0.17638327 -0.26043850 -0.94924219
vn 0.35454028 -0.16051995 -0.92115934
vn 0.98371946 -0.16860344 -0.06220048
vn 0.80670340 -0.37190305 0.45925782
vn -0.81879072 -0.04305435 -0.57247540
vn -0.53557735 -0.27123952 -0.79974122
vt 0.88159200 0.26276200
vt 0.99227200 0.46731400
vt 0.88664400 0.26413800
vt 0.98812100 0.47303800
vt 0.88229800 0.26799000
vt 0.99382600 0.47241300
vt 0.98877700 0.46312800
vt 0.83027500 0.60034700
vt 0.83027500 0.60034700
vt 0.88214100 0.25796500
vt 0.98568600 0.46810100
vt 0.83295100 0.60229900
vt 0.88438700 0.25952800
vt 0.83833200 0.59912200
vt 0.88995100 0.25589100
vt 0.90087000 0.26242100
vt 0.67513700 0.97180600
vt 0.91085700 0.26215400
vt 0.89579000 0.26526800
vt 0.65999500 0.89730700
vt 0.89747300 0.27415400
vt 0.66159100 0.90383300
vt 0.90216400 0.27088200
vt 0.89088100 0.26768700
vt 0.90439000 0.26418400
vt 0.62879800 0.97180600
vt 0.90746700 0.26745900
vt 0.90746700 0.26745900
vt 0.62879800 0.97930800
vt 0.90846800 0.27468100
vt 0.66000300 0.90929000
vt 0.63081400 0.97784500
vt 0.90965000 0.27354400
vt 0.66208900 0.91181400
vt 0.90965000 0.27354400
vt 0.91011200 0.26801000
vt 0.91011200 0.26801000
vt 0.91011200 0.26801000
vt 0.67235200 0.97444500
vt 0.91344100 0.26332800
vt 0.91344100 0.26332800
vt 0.91727000 0.26974700
vt 0.86696900 0.60229900
vt 0.91713300 0.25884200
vt 0.91713300 0.25884200
vt 0.67513700 0.97857900
vt 0.86857400 0.60183500
vt 0.91871000 0.25815000
vt 0.92103200 0.26090600
vt 0.85386300 0.59904700
vt 0.90521000 0.25726800
vt 0.84679800 0.59193900
vt 0.84475000 0.58754500
vt 0.85700900 0.59313300
vt 0.83993700 0.58936100
vt 0.83849200 0.58553100
vt 0.83849200 0.58553100
vt 0.84070600 0.58305400
vt 0.84070600 0.58305400
vt 0.83603000 0.58991400
vt 0.83603000 0.58991400
vt 0.83413900 0.59464300
vt 0.83413900 0.59464300
vt 0.83225500 0.59678100
vt 0.83225500 0.59678100
vt 0.82825100 0.58926900
vt 0.97766700 0.46312800
vt 0.97280000 0.46413400
vt 0.83076600 0.58443000
vt 0.97979100 0.46897200
vt 0.97548700 0.46763200
vt 0.82505900 0.58619400
vt 0.82614700 0.59391000
vt 0.98272900 0.46459500
vt 0.97683200 0.47141300
vt 0.83007800 0.23313100
vt 0.82953500 0.58106100
vt 0.97023900 0.46876700
vt 0.97369000 0.47379300
vt 0.82505900 0.22693400
vt 0.97859600 0.47603100
vt 0.82930400 0.22708400
vt 0.97714400 0.47919500
vt 0.82926500 0.22073100
vt 0.64216000 0.87789300
vt 0.97310200 0.48072200
vt 0.63719100 0.89301100
vt 0.84555800 0.21687400
vt 0.97807300 0.48378000
vt 0.64654200 0.87876900
vt 0.64505700 0.88403900
vt 0.83557500 0.21387200
vt 0.83162700 0.22251800
vt 0.83626200 0.22392900
vt 0.83482200 0.23086500
vt 0.84403000 0.22005300
vt 0.84403000 0.22005300
vt 0.84761600 0.22118400
vt 0.84355600 0.22582500
vt 0.84302400 0.23572200
vt 0.84925200 0.23031100
vt 0.85316400 0.23449600
vt 0.86092400 0.22707600
vt 0.86594700 0.22648900
vt 0.86413200 0.23253900
vt 0.85465500 0.21802900
vt 0.63901600 0.89653700
vt 0.84904500 0.21387200
vt 0.63505300 0.91199000
vt 0.86425000 0.22117000
vt 0.87699200 0.22538800
vt 0.64008000 0.90333000
vt 0.85552600 0.21427900
vt 0.64255700 0.91253900
vt 0.63790400 0.91922600
vt 0.87110400 0.21920700
vt 0.63854300 0.92599800
vt 0.98412600 0.94462800
vt 0.87754400 0.22050100
vt 0.98065800 0.94307700
vt 0.87903500 0.22436400
vt 0.92936800 0.26799500
vt 0.98218600 0.95016400
vt 0.64311500 0.92388300
vt 0.92899800 0.27300100
vt 0.98679900 0.94783400
vt 0.92452400 0.27455200
vt 0.64856600 0.92135300
vt 0.64165600 0.91839400
vt 0.65048900 0.91464700
vt 0.65260600 0.91881200
vt 0.92058400 0.27559400
vt 0.92317600 0.26862800
vt 0.92858100 0.26228200
vt 0.97661300 0.95230500
vt 0.97023900 0.95290900
vt 0.92784000 0.25589100
vt 0.87547600 0.59262600
vt 0.88017500 0.23112900
vt 0.97424100 0.94224600
vt 0.97424100 0.94224600
vt 0.97203300 0.94363700
vt 0.97203300 0.94363700
vt 0.87876800 0.58237500
vt 0.87562700 0.23439700
vt 0.97023900 0.94113100
vt 0.87493500 0.58064200
vt 0.87985400 0.22850400
vt 0.97680600 0.94122000
vt 0.87985400 0.22850400
vt 0.87705300 0.23018800
vt 0.87289400 0.23294400
vt 0.87224100 0.23016800
vt 0.86955100 0.23637200
vt 0.86906700 0.57903800
vt 0.86347300 0.57969600
vt 0.86140200 0.23669100
vt 0.86094700 0.57749300
vt 0.85445200 0.58015900
vt 0.84390200 0.23772500
vt 0.84367800 0.57751900
vt 0.84197700 0.24017500
vt 0.84214200 0.57980400
vt 0.86182300 0.58258300
vt 0.85587500 0.58454200
vt 0.97034100 0.94625700
vt 0.87821900 0.58509500
vt 0.86961800 0.58732500
vt 0.87279100 0.59698100
vt 0.92395600 0.25621800
vt 0.87108400 0.59910500
vt 0.92173300 0.25670800
vt 0.65804500 0.91362200
vt 0.91368000 0.27706400
vt 0.65804500 0.91362200
vt 0.65463100 0.90811900
vt 0.65122200 0.90070700
vt 0.43519500 0.97180600
vt 0.65393800 0.89787300
vt 0.65304500 0.89097500
vt 0.65304500 0.89097500
vt 0.43812200 0.97775800
vt 0.65404600 0.89208600
vt 0.43521900 0.97705900
vt 0.65077600 0.89186400
vt 0.65077600 0.89186400
vt 0.65077600 0.89186400
vt 0.89020400 0.27271800
vt 0.66077100 0.88996500
vt 0.88339800 0.27246600
vt 0.66208900 0.88318000
vt 0.99312100 0.47716300
vt 0.65921200 0.88202800
vt 0.99064100 0.48055200
vt 0.98772900 0.47863900
vt 0.65318400 0.87603200
vt 0.98391700 0.47994100
vt 0.98323800 0.47594800
vt 0.98152900 0.47248500
vt 0.64931200 0.87567500
vt 0.98015100 0.48102800
vt 0.98843300 0.48366300
vt 0.65649000 0.88258400
vt 0.65649000 0.88258400
vt 0.65150300 0.87949900
vt 0.98319700 0.48414700
vt 0.65347400 0.88549000
vt 0.65347400 0.88549000
vt 0.43519500 0.98274000
vt 0.64753100 0.89138500
vt 0.64257300 0.89391100
vt 0.83941000 0.23252200
vt 0.83941000 0.23252200
vt 0.90569000 0.27588300
vt 0.65781800 0.90495200
f 1/1/1 13/13/13 3/3/3
f 1/1/1 3/3/3 5/5/5
f 11/11/11 2/2/2 4/4/4
f 2/2/2 6/6/6 4/4/4
f 7/7/7 2/2/2 11/11/11
f 1/1/1 10/10/10 13/13/13
f 14/14/14 9/9/9 65/65/65
f 18/18/18 13/13/13 15/15/15
f 13/13/13 19/19/19 3/3/3
f 16/16/16 25/25/25 19/19/19
f 24/24/24 19/19/19 21/21/21
f 19/19/19 23/23/23 21/21/21
f 19/19/19 25/25/25 23/23/23
f 3/3/3 24/24/24 5/5/5
f 25/25/25 18/18/18 27/27/27
f 25/25/25 27/27/27 23/23/23
f 23/23/23 27/27/27 30/30/30
f 29/29/29 26/26/26 32/32/32
f 38/38/38 35/35/35 28/28/28
f 18/18/18 36/36/36 27/27/27
f 42/42/42 37/37/37 40/40/40
f 17/17/17 46/46/46 39/39/39
f 49/49/49 40/40/40 45/45/45
f 48/48/48 49/49/49 45/45/45
f 52/52/52 171/171/171 43/43/43
f 44/44/44 18/18/18 51/51/51
f 52/52/52 14/14/14 62/62/62
f 52/52/52 55/55/55 53/53/53
f 52/52/52 165/165/165 54/54/54
f 60/60/60 56/56/56 55/55/55
f 55/55/55 56/56/56 58/58/58
f 53/53/53 55/55/55 58/58/58
f 62/62/62 60/60/60 55/55/55
f 64/64/64 66/66/66 63/63/63
f 61/61/61 63/63/63 66/66/66
f 61/61/61 69/69/69 57/57/57
f 69/69/69 66/66/66 72/72/72
f 67/67/67 74/74/74 70/70/70
f 67/67/67 70/70/70 71/71/71
f 70/70/70 74/74/74 11/11/11
f 11/11/11 74/74/74 7/7/7
f 8/8/8 73/73/73 64/64/64
f 70/70/70 75/75/75 71/71/71
f 71/71/71 75/75/75 79/79/79
f 71/71/71 79/79/79 78/78/78
f 68/68/68 71/71/71 78/78/78
f 82/82/82 76/76/76 80/80/80
f 81/81/81 83/83/83 79/79/79
f 75/75/75 81/81/81 79/79/79
f 82/82/82 84/84/84 93/93/93
f 83/83/83 86/86/86 79/79/79
f 89/89/89 86/86/86 83/83/83
f 94/94/94 84/84/84 88/88/88
f 88/88/88 84/84/84 92/92/92
f 90/90/90 91/91/91 85/85/85
f 94/94/94 82/82/82 93/93/93
f 82/82/82 94/94/94 95/95/95
f 94/94/94 96/96/96 95/95/95
f 98/98/98 96/96/96 88/88/88
f 96/96/96 99/99/99 212/212/212
f 99/99/99 96/96/96 98/98/98
f 101/101/101 100/100/100 99/99/99
f 98/98/98 101/101/101 99/99/99
f 100/100/100 102/102/102 160/160/160
f 102/102/102 103/103/103 105/105/105
f 106/106/106 98/98/98 88/88/88
f 104/104/104 106/106/106 110/110/110
f 103/103/103 104/104/104 105/105/105
f 108/108/108 106/106/106 88/88/88
f 113/113/113 106/106/106 108/108/108
f 121/121/121 110/110/110 116/116/116
f 109/109/109 112/112/112 114/114/114
f 115/115/115 109/109/109 114/114/114
f 117/117/117 114/114/114 129/129/129
f 118/118/118 123/123/123 120/120/120
f 123/123/123 118/118/118 126/126/126
f 127/127/127 122/122/122 125/125/125
f 130/130/130 176/176/176 131/131/131
f 130/130/130 129/129/129 114/114/114
f 133/133/133 132/132/132 42/42/42
f 133/133/133 42/42/42 49/49/49
f 134/134/134 133/133/133 49/49/49
f 122/122/122 133/133/133 134/134/134
f 170/170/170 134/134/134 49/49/49
f 136/136/136 143/143/143 140/140/140
f 120/120/120 135/135/135 140/140/140
f 142/142/142 146/146/146 141/141/141
f 151/151/151 139/139/139 145/145/145
f 120/120/120 140/140/140 149/149/149
f 111/111/111 121/121/121 150/150/150
f 151/151/151 111/111/111 148/148/148
f 151/151/151 153/153/153 111/111/111
f 152/152/152 151/151/151 145/145/145
f 151/151/151 152/152/152 153/153/153
f 104/104/104 111/111/111 153/153/153
f 152/152/152 105/105/105 153/153/153
f 153/153/153 105/105/105 104/104/104
f 152/152/152 145/145/145 154/154/154
f 157/157/157 105/105/105 152/152/152
f 156/156/156 147/147/147 167/167/167
f 158/158/158 156/156/156 159/159/159
f 161/161/161 159/159/159 163/163/163
f 160/160/160 102/102/102 157/157/157
f 76/76/76 213/213/213 160/160/160
f 69/69/69 59/59/59 57/57/57
f 159/159/159 58/58/58 163/163/163
f 77/77/77 163/163/163 69/69/69
f 159/159/159 156/156/156 164/164/164
f 159/159/159 165/165/165 58/58/58
f 54/54/54 165/165/165 164/164/164
f 169/169/169 54/54/54 164/164/164
f 168/168/168 164/164/164 167/167/167
f 138/138/138 168/168/168 167/167/167
f 170/170/170 49/49/49 172/172/172
f 165/165/165 53/53/53 58/58/58
f 42/42/42 174/174/174 33/33/33
f 31/31/31 34/34/34 175/175/175
f 176/176/176 31/31/31 175/175/175
f 179/179/179 176/176/176 177/177/177
f 189/189/189 215/215/215 176/176/176
f 177/177/177 186/186/186 179/179/179
f 186/186/186 181/181/181 179/179/179
f 182/182/182 184/184/184 178/178/178
f 189/189/189 183/183/183 204/204/204
f 5/5/5 188/188/188 190/190/190
f 24/24/24 21/21/21 188/188/188
f 4/4/4 6/6/6 192/192/192
f 195/195/195 192/192/192 194/194/194
f 192/192/192 195/195/195 4/4/4
f 197/197/197 198/198/198 195/195/195
f 195/195/195 202/202/202 197/197/197
f 198/198/198 4/4/4 195/195/195
f 199/199/199 198/198/198 81/81/81
f 198/198/198 201/201/201 81/81/81
f 199/199/199 4/4/4 198/198/198
f 199/199/199 75/75/75 70/70/70
f 199/199/199 81/81/81 75/75/75
f 199/199/199 11/11/11 4/4/4
f 199/199/199 70/70/70 11/11/11
f 206/206/206 201/201/201 197/197/197
f 196/196/196 203/203/203 205/205/205
f 205/205/205 203/203/203 208/208/208
f 205/205/205 90/90/90 200/200/200
f 91/91/91 90/90/90 205/205/205
f 185/185/185 91/91/91 208/208/208
f 182/182/182 209/209/209 184/184/184
f 201/201/201 89/89/89 83/83/83
f 201/201/201 83/83/83 81/81/81
f 112/112/112 187/187/187 177/177/177
f 211/211/211 187/187/187 112/112/112
f 91/91/91 210/210/210 211/211/211
f 211/211/211 87/87/87 91/91/91
f 211/211/211 112/112/112 107/107/107
f 95/95/95 76/76/76 82/82/82
f 22/22/22 31/31/31 215/215/215
f 23/23/23 214/214/214 21/21/21
f 14/14/14 12/12/12 9/9/9
f 15/15/15 51/51/51 18/18/18
f 18/18/18 16/16/16 13/13/13
f 13/13/13 16/16/16 19/19/19
f 16/16/16 18/18/18 25/25/25
f 3/3/3 19/19/19 24/24/24
f 18/18/18 41/41/41 36/36/36
f 42/42/42 33/33/33 37/37/37
f 49/49/49 42/42/42 40/40/40
f 48/48/48 172/172/172 49/49/49
f 43/43/43 50/50/50 52/52/52
f 52/52/52 54/54/54 171/171/171
f 171/171/171 47/47/47 43/43/43
f 62/62/62 55/55/55 52/52/52
f 52/52/52 50/50/50 14/14/14
f 14/14/14 65/65/65 62/62/62
f 52/52/52 53/53/53 165/165/165
f 64/64/64 73/73/73 66/66/66
f 61/61/61 66/66/66 69/69/69
f 82/82/82 80/80/80 84/84/84
f 88/88/88 97/97/97 94/94/94
f 94/94/94 93/93/93 84/84/84
f 212/212/212 95/95/95 96/96/96
f 99/99/99 100/100/100 212/212/212
f 98/98/98 103/103/103 101/101/101
f 100/100/100 101/101/101 102/102/102
f 102/102/102 101/101/101 103/103/103
f 106/106/106 103/103/103 98/98/98
f 104/104/104 103/103/103 106/106/106
f 110/110/110 111/111/111 104/104/104
f 113/113/113 110/110/110 106/106/106
f 116/116/116 119/119/119 121/121/121
f 121/121/121 111/111/111 110/110/110
f 129/129/129 124/124/124 117/117/117
f 117/117/117 115/115/115 114/114/114
f 127/127/127 133/133/133 122/122/122
f 131/131/131 128/128/128 124/124/124
f 124/124/124 129/129/129 130/130/130
f 130/130/130 114/114/114 112/112/112
f 112/112/112 177/177/177 176/176/176
f 176/176/176 173/173/173 131/131/131
f 131/131/131 124/124/124 130/130/130
f 130/130/130 112/112/112 176/176/176
f 133/133/133 127/127/127 132/132/132
f 170/170/170 137/137/137 134/134/134
f 140/140/140 135/135/135 136/136/136
f 136/136/136 166/166/166 143/143/143
f 120/120/120 123/123/123 135/135/135
f 151/151/151 148/148/148 139/139/139
f 152/152/152 154/154/154 157/157/157
f 157/157/157 102/102/102 105/105/105
f 167/167/167 164/164/164 156/156/156
f 156/156/156 155/155/155 147/147/147
f 147/147/147 144/144/144 167/167/167
f 158/158/158 155/155/155 156/156/156
f 161/161/161 158/158/158 159/159/159
f 160/160/160 162/162/162 76/76/76
f 76/76/76 95/95/95 213/213/213
f 213/213/213 100/100/100 160/160/160
f 69/69/69 163/163/163 59/59/59
f 159/159/159 164/164/164 165/165/165
f 164/164/164 168/168/168 169/169/169
f 169/169/169 171/171/171 54/54/54
f 138/138/138 169/169/169 168/168/168
f 42/42/42 132/132/132 174/174/174
f 176/176/176 179/179/179 189/189/189
f 189/189/189 20/20/20 215/215/215
f 215/215/215 31/31/31 176/176/176
f 193/193/193 191/191/191 189/189/189
f 189/189/189 179/179/179 183/183/183
f 183/183/183 207/207/207 204/204/204
f 204/204/204 193/193/193 189/189/189
f 5/5/5 24/24/24 188/188/188
f 195/195/195 194/194/194 202/202/202
f 198/198/198 197/197/197 201/201/201
f 208/208/208 180/180/180 185/185/185
f 185/185/185 210/210/210 91/91/91
f 91/91/91 205/205/205 208/208/208
f 211/211/211 210/210/210 187/187/187
f 211/211/211 107/107/107 87/87/87

