# Blender 4.1.1
# www.blender.org
mtllib link_body_31.mtl
o link_body_31
v -0.918415 0.094950 -4.733827
v 0.406227 0.036031 -4.787668
v -1.845787 -0.000001 -4.456413
v -0.940121 -0.098908 -4.729838
v -1.854019 0.340808 -4.434420
v 2.252086 0.208037 -4.582116
v 0.385067 -0.035518 -4.788223
v 2.219573 -0.214269 -4.577114
v 1.948604 0.000000 -4.745966
v 2.450065 0.060971 -4.646151
v 2.455627 -0.052727 -4.648834
v 2.094261 0.229841 -4.539808
v 1.235473 0.000000 -4.087742
v 1.204002 0.519293 -4.023188
v -3.287265 0.832763 -3.421507
v 0.592411 0.727761 -3.491722
v -2.809143 1.051782 -2.883535
v 0.508697 0.000001 -3.491296
v -0.087746 -0.000000 -2.764524
v 0.583683 -0.722054 -3.486956
v 1.204002 -0.519293 -4.023190
v 0.021252 0.919125 -2.765465
v -0.445804 0.864434 -1.935357
v -2.378921 1.157308 -2.315893
v -0.530945 0.000001 -1.935357
v -0.346233 1.090813 -1.994167
v -0.646881 1.104227 -1.084999
v -2.347442 1.196423 -1.833064
v -2.320892 1.194881 -1.223616
v -4.262137 1.217737 -1.851810
v -3.851894 1.123167 -2.650240
v -3.933524 0.782427 -2.679871
v -4.370719 0.869391 -1.845932
v -4.639945 0.922943 -0.941049
v -4.456351 0.000000 -1.845932
v -4.572906 1.162628 -0.913777
v -4.010589 -0.000000 -2.679871
v -3.410697 0.000001 -3.410819
v -3.933524 -0.782426 -2.679871
v -4.370727 -0.869380 -1.845923
v -4.639945 -0.922942 -0.941049
v -4.277698 -1.225007 -1.809161
v -3.851894 -1.123167 -2.650241
v -4.572906 -1.162629 -0.913776
v -1.944336 -0.534004 2.866603
v -3.958434 -0.466577 2.689449
v -4.731063 -0.938243 -0.002936
v -2.320892 -1.194882 -1.223616
v -2.432952 -0.345541 3.725629
v -2.682743 -0.216297 3.993697
v 1.289368 -0.221567 3.907077
v 0.543960 -0.356102 3.291479
v 1.235474 0.000000 3.887741
v -2.312694 -0.101252 4.201486
v 1.683986 -0.101459 4.127085
v 1.304119 0.000000 4.176466
v 1.687790 0.106336 4.124635
v -2.682746 0.216298 3.993695
v -2.291809 0.079664 4.216749
v 1.290069 0.221249 3.908045
v 0.543968 0.356100 3.291489
v -2.432952 0.345541 3.725629
v -1.944336 0.534004 2.866603
v -0.724846 0.802314 0.835656
v -0.038772 0.497246 2.564524
v -0.467113 0.648092 1.735356
v -0.530945 0.000001 1.735356
v -0.803867 0.000001 0.835656
v -0.896019 0.000001 -0.100000
v -0.724846 -0.802314 0.835656
v -0.467113 -0.648092 1.735356
v -0.038773 -0.497246 2.564524
v -0.087746 0.000000 2.564524
v 0.508697 0.000001 3.291295
v -0.800068 -0.952451 -0.093248
v -0.713482 -0.917676 -1.035657
v -0.643307 -1.102828 -1.093933
v -2.100334 -1.175637 -2.136843
v -0.328102 -1.090374 -2.028926
v -0.445805 -0.864433 -1.935357
v -0.011124 -0.777969 -2.764524
v 0.049614 -0.925704 -2.784471
v -2.809143 -1.051783 -2.883535
v -3.286060 -0.832527 -3.422824
v -2.627189 -0.523563 -4.011202
v -1.854618 -0.340899 -4.434259
v -2.679725 -0.000000 -4.010683
v -2.626628 0.524705 -4.011449
v -0.803867 0.000001 -1.035657
v -0.713482 0.917678 -1.035657
v -0.800297 0.952735 -0.095552
v -3.392795 0.319709 3.398415
v -3.966117 0.466045 2.677727
v -4.731063 0.938243 -0.002940
v -4.401134 0.560615 1.845934
v -4.461192 0.011742 1.829974
v -4.010589 -0.000000 2.679871
v -4.730849 0.000000 0.941049
v -4.401134 -0.560616 1.845935
v -4.661345 -0.705674 0.941049
v -4.823539 -0.000000 0.000006
v -4.730849 0.000000 -0.941049
v -4.661345 0.705674 0.941047
v -3.410697 0.000001 3.410818
v -2.679725 -0.000000 4.010683
v -3.380477 -0.306807 3.410820
v -4.420585 1.206071 -1.364129
vn -0.1696 0.0036 -0.9855
vn -0.0010 0.0081 -1.0000
vn -0.0133 0.0100 -0.9999
vn 0.0026 0.7751 -0.6318
vn 0.0779 0.5912 -0.8027
vn 0.0071 0.7347 -0.6783
vn -0.1866 -0.0065 -0.9824
vn -0.3814 0.0006 -0.9244
vn -0.3989 0.0495 -0.9156
vn 0.0007 0.8865 -0.4628
vn 0.0270 -0.0002 -0.9996
vn 0.0022 -0.7752 -0.6317
vn 0.0071 -0.7321 -0.6812
vn 0.0704 -0.6281 -0.7749
vn 0.0496 -0.5787 -0.8140
vn 0.0587 0.5420 -0.8383
vn 0.1651 0.2172 -0.9621
vn 0.1913 0.0325 -0.9810
vn 0.1063 -0.5291 -0.8419
vn 0.3985 0.0058 0.9172
vn 0.2868 -0.0029 0.9580
vn 0.2795 -0.0155 0.9600
vn 0.3821 0.0346 0.9235
vn 0.5481 0.0048 0.8364
vn 0.5798 -0.0700 0.8117
vn 0.0140 0.8944 -0.4470
vn 0.0141 0.9055 -0.4242
vn 0.2465 -0.0884 0.9651
vn 0.0180 0.9556 -0.2942
vn -0.0067 0.9201 -0.3916
vn 0.7151 -0.0819 0.6942
vn 0.7125 -0.0019 0.7017
vn 0.0356 0.9503 -0.3091
vn 0.7129 0.0841 0.6962
vn 0.8330 -0.0073 0.5532
vn 0.8293 -0.1065 0.5485
vn 0.5707 0.0707 0.8181
vn 0.9240 -0.0020 0.3824
vn 0.9063 -0.1862 0.3793
vn 0.8736 -0.2810 0.3974
vn 0.0316 0.9888 -0.1457
vn 0.0584 0.9769 -0.2056
vn 0.0578 0.9919 -0.1129
vn 0.9338 -0.2818 0.2204
vn 0.0281 0.9987 -0.0415
vn 0.0475 0.9962 0.0730
vn 0.0049 0.9827 -0.1850
vn 0.0280 0.9966 0.0780
vn 0.0076 0.9996 -0.0280
vn -0.9076 0.1808 -0.3788
vn -0.8034 0.2414 -0.5443
vn -0.8150 0.1599 -0.5570
vn -0.7063 0.1106 -0.6992
vn -0.8839 0.2678 -0.3834
vn -0.9378 0.2828 -0.2014
vn -0.9615 0.1915 -0.1973
vn -0.9248 -0.0000 -0.3805
vn -0.8333 -0.0000 -0.5528
vn -0.9068 -0.1807 -0.3809
vn -0.8150 -0.1599 -0.5570
vn -0.7094 -0.0000 -0.7048
vn -0.9615 -0.1915 -0.1973
vn -0.9381 -0.2827 -0.2001
vn -0.8873 -0.2707 -0.3734
vn -0.8033 -0.2431 -0.5437
vn -0.0232 -0.9903 0.1367
vn 0.0283 -0.9970 0.0724
vn 0.0069 -0.9822 0.1878
vn -0.0376 -0.9472 0.3183
vn -0.1611 -0.9633 0.2145
vn -0.0844 -0.9728 0.2157
vn 0.0019 -1.0000 -0.0037
vn -0.9934 -0.1134 -0.0156
vn -0.0713 -0.9199 0.3855
vn 0.0137 -0.9098 0.4147
vn 0.0428 -0.9858 0.1623
vn 0.5658 -0.0002 -0.8246
vn 0.5516 0.0616 -0.8319
vn 0.7081 0.0714 -0.7025
vn 0.4700 -0.0045 -0.8827
vn 0.0091 -0.8817 0.4717
vn 0.0087 -0.8841 0.4672
vn 0.0296 -0.0013 0.9996
vn -0.2847 -0.0507 0.9573
vn 0.1129 -0.0602 0.9918
vn 0.1123 0.0777 0.9906
vn 0.4681 -0.0230 -0.8834
vn -0.0674 0.9156 0.3963
vn 0.0062 0.8575 0.5145
vn 0.0085 0.8866 0.4625
vn 0.0137 0.9138 0.4060
vn -0.2444 -0.0426 0.9687
vn 0.5477 -0.0586 -0.8346
vn -0.0358 0.9473 0.3182
vn 0.7081 -0.0714 -0.7025
vn 0.0069 0.9822 0.1878
vn 0.0427 0.9858 0.1625
vn 0.0423 0.9869 0.1559
vn -0.0218 0.9889 0.1472
vn 0.0439 0.9867 0.1566
vn 0.0438 0.9867 0.1567
vn 0.8321 -0.0820 -0.5485
vn 0.9248 -0.0000 -0.3805
vn 0.9230 -0.0909 -0.3739
vn 0.9810 -0.0000 -0.1939
vn 0.9779 -0.0967 -0.1851
vn 0.9230 0.0909 -0.3739
vn 1.0000 -0.0002 0.0004
vn 0.9779 0.0967 -0.1851
vn 0.0438 -0.9867 0.1567
vn 0.0439 -0.9867 0.1566
vn 0.8321 0.0820 -0.5485
vn 0.0423 -0.9869 0.1559
vn 0.8333 -0.0000 -0.5528
vn 0.7102 -0.0000 -0.7040
vn 0.9934 0.1144 0.0087
vn 0.0415 -0.9869 0.1558
vn 0.9624 0.1989 0.1850
vn 0.9303 0.2910 0.2232
vn 0.0467 -0.9964 0.0701
vn 0.0407 -0.9935 -0.1067
vn 0.0545 -0.9924 -0.1105
vn 0.8661 0.2832 0.4119
vn 0.9063 0.1967 0.3742
vn 0.8176 0.1657 0.5514
vn 0.7894 0.2488 0.5612
vn 0.0181 -0.9573 -0.2886
vn 0.0528 -0.9730 -0.2249
vn 0.0392 -0.9530 -0.3005
vn 0.0028 -0.9815 -0.1912
vn -0.0069 -0.9200 -0.3918
vn 0.0140 -0.8976 -0.4405
vn -0.5663 -0.0613 -0.8219
vn -0.7062 -0.1105 -0.6993
vn -0.1090 -0.8246 -0.5551
vn 0.0003 -0.8862 -0.4634
vn -0.4003 -0.0491 -0.9151
vn -0.5599 -0.0000 -0.8286
vn -0.5662 0.0614 -0.8219
vn -0.1026 0.8299 -0.5483
vn 0.9811 -0.0003 0.1936
vn 0.9936 -0.1128 0.0097
vn 0.9634 -0.1927 0.1862
vn 0.0411 0.9868 0.1565
vn -0.1265 0.9466 0.2964
vn -0.0834 0.9735 0.2129
vn -0.1595 0.9636 0.2147
vn -0.2514 0.9385 0.2366
vn -0.9218 0.0895 0.3772
vn -0.9257 0.0022 0.3783
vn -0.8328 0.0814 0.5475
vn -0.8275 -0.0070 0.5614
vn -0.7224 0.0518 0.6895
vn -0.8275 -0.0681 0.5573
vn -0.9216 -0.0866 0.3783
vn -0.9810 -0.0000 0.1939
vn -0.2556 -0.9373 0.2370
vn -0.3619 -0.8986 0.2481
vn -0.9783 -0.0965 0.1835
vn -1.0000 -0.0000 0.0001
vn -0.9783 0.0965 0.1835
vn -0.9810 -0.0000 -0.1940
vn -0.9934 0.1134 -0.0156
vn -0.3619 0.8986 0.2481
vn -0.7261 0.0095 0.6876
vn -0.5720 0.0579 0.8182
vn -0.7085 -0.0698 0.7022
vn -0.5510 -0.0039 0.8345
vn -0.5657 -0.0532 0.8229
vn -0.1557 -0.9308 0.3309
vn 0.0009 0.9978 0.0661
vn -0.9380 0.1723 -0.3006
vt 0.953606 0.080811
vt 0.944911 0.079413
vt 0.945105 0.078957
vt 0.822369 0.600147
vt 0.822759 0.580544
vt 0.823299 0.591763
vt 0.953898 0.079548
vt 0.959787 0.080861
vt 0.959579 0.083114
vt 0.819999 0.606426
vt 0.934756 0.077988
vt 0.822179 0.671901
vt 0.823084 0.680642
vt 0.822464 0.692933
vt 0.933124 0.076346
vt 0.932586 0.079108
vt 0.931395 0.077994
vt 0.931446 0.077239
vt 0.261041 0.983324
vt 0.263549 0.985056
vt 0.262817 0.985247
vt 0.264105 0.983234
vt 0.260803 0.977403
vt 0.257452 0.978237
vt 0.818626 0.587574
vt 0.822412 0.581562
vt 0.261493 0.984283
vt 0.809369 0.613396
vt 0.812705 0.616095
vt 0.254933 0.974754
vt 0.259378 0.972772
vt 0.814855 0.591659
vt 0.926271 0.542355
vt 0.926555 0.547036
vt 0.922113 0.546641
vt 0.922319 0.552788
vt 0.264035 0.976165
vt 0.926717 0.551900
vt 0.264105 0.971806
vt 0.916902 0.546407
vt 0.917100 0.552172
vt 0.917494 0.553740
vt 0.805804 0.610731
vt 0.809810 0.595380
vt 0.804552 0.597767
vt 0.911670 0.553740
vt 0.802620 0.610439
vt 0.798394 0.599330
vt 0.807374 0.619979
vt 0.798591 0.610039
vt 0.801910 0.622451
vt 0.916172 0.477593
vt 0.921822 0.475197
vt 0.921816 0.477501
vt 0.927000 0.475975
vt 0.916427 0.475194
vt 0.910073 0.475760
vt 0.910108 0.477410
vt 0.915705 0.483108
vt 0.921396 0.482465
vt 0.915304 0.488180
vt 0.921035 0.487029
vt 0.926465 0.481359
vt 0.909187 0.488649
vt 0.908913 0.489918
vt 0.914920 0.490082
vt 0.920701 0.488874
vt 0.795675 0.649675
vt 0.798641 0.664480
vt 0.771525 0.668484
vt 0.765590 0.665549
vt 0.789521 0.648942
vt 0.771874 0.655046
vt 0.801743 0.651280
vt 0.902938 0.488403
vt 0.763682 0.663970
vt 0.765854 0.690259
vt 0.769667 0.685102
vt 0.607734 0.974855
vt 0.609166 0.974352
vt 0.610477 0.979237
vt 0.608137 0.971806
vt 0.762426 0.666478
vt 0.764526 0.692933
vt 0.962676 0.756913
vt 0.938693 0.755203
vt 0.965228 0.756351
vt 0.965194 0.757732
vt 0.606760 0.971917
vt 0.763748 0.608132
vt 0.762426 0.605300
vt 0.764778 0.580544
vt 0.766051 0.583367
vt 0.938780 0.756410
vt 0.606238 0.974638
vt 0.765647 0.606963
vt 0.605769 0.979703
vt 0.771574 0.604659
vt 0.769826 0.588561
vt 0.785597 0.598414
vt 0.795550 0.623913
vt 0.774405 0.592792
vt 0.779730 0.596118
vt 0.886999 0.551044
vt 0.892636 0.547155
vt 0.892785 0.551477
vt 0.898750 0.546724
vt 0.898934 0.552074
vt 0.892410 0.542950
vt 0.904991 0.546449
vt 0.898470 0.541517
vt 0.779644 0.677838
vt 0.774284 0.680978
vt 0.886711 0.544501
vt 0.785540 0.675801
vt 0.886885 0.547728
vt 0.881592 0.546108
vt 0.881797 0.550794
vt 0.881717 0.548419
vt 0.608146 0.979703
vt 0.904613 0.540271
vt 0.791703 0.674960
vt 0.910800 0.540387
vt 0.911089 0.539221
vt 0.798434 0.675627
vt 0.804779 0.665561
vt 0.804756 0.677328
vt 0.917082 0.539399
vt 0.916600 0.540797
vt 0.921842 0.541593
vt 0.921894 0.540672
vt 0.809414 0.660524
vt 0.809877 0.679477
vt 0.814700 0.682674
vt 0.807466 0.653729
vt 0.812746 0.657085
vt 0.818456 0.686511
vt 0.970068 0.081934
vt 0.965326 0.077951
vt 0.969885 0.076346
vt 0.816838 0.661128
vt 0.819910 0.666026
vt 0.795998 0.975889
vt 0.793666 0.975889
vt 0.794900 0.971806
vt 0.926178 0.486113
vt 0.960106 0.078616
vt 0.965271 0.081446
vt 0.964518 0.084869
vt 0.816875 0.611503
vt 0.968614 0.087336
vt 0.911121 0.546342
vt 0.905179 0.552805
vt 0.911331 0.552462
vt 0.791753 0.599574
vt 0.767394 0.613023
vt 0.771936 0.617204
vt 0.789420 0.624053
vt 0.777270 0.620447
vt 0.891586 0.477290
vt 0.891394 0.480797
vt 0.886207 0.476230
vt 0.885943 0.479181
vt 0.881592 0.475194
vt 0.885667 0.481881
vt 0.706946 0.971806
vt 0.706946 0.978200
vt 0.704852 0.974119
vt 0.891027 0.484117
vt 0.897163 0.482112
vt 0.777309 0.651790
vt 0.783237 0.649732
vt 0.896838 0.486228
vt 0.903351 0.482928
vt 0.897542 0.477635
vt 0.909612 0.483265
vt 0.903875 0.476978
vt 0.783170 0.622739
vt 0.615352 0.979637
vt 0.614107 0.973372
vt 0.615352 0.971806
vt 0.931423 0.757732
vt 0.931395 0.755604
vt 0.936151 0.757217
vt 0.613054 0.974827
vt 0.936232 0.755781
vt 0.931684 0.753576
vt 0.936275 0.754345
vt 0.767287 0.659131
vt 0.798606 0.623229
vt 0.913134 0.475377
s 1
usemtl pleuraldeles_skin
f 1/1/1 2/2/2 7/3/3
f 1/4/4 6/5/5 2/6/6
f 4/7/7 3/8/8 1/1/1
f 1/1/1 3/8/8 5/9/9
f 4/7/7 1/1/1 7/3/3
f 5/10/10 6/5/5 1/4/4
f 9/11/11 7/3/3 2/2/2
f 4/12/12 7/13/13 8/14/14
f 9/11/15 8/15/14 7/3/13
f 2/2/6 6/16/5 9/11/16
f 9/11/16 6/16/5 10/17/17
f 9/11/16 10/17/17 11/18/18
f 9/11/15 11/18/19 8/15/14
f 12/19/20 11/20/21 10/21/22
f 8/22/23 11/20/21 12/19/20
f 8/22/23 12/19/20 13/23/24
f 13/23/24 12/19/20 14/24/25
f 5/10/10 14/25/26 12/26/27
f 12/26/27 6/5/5 5/10/10
f 10/21/22 6/27/28 12/19/20
f 17/28/29 14/25/26 15/29/30
f 15/29/30 14/25/26 5/10/10
f 14/24/25 16/30/31 18/31/32
f 17/28/29 16/32/33 14/25/26
f 18/31/32 13/23/24 14/24/25
f 20/33/34 18/34/32 19/35/35
f 18/34/32 22/36/36 19/35/35
f 13/23/24 18/31/32 21/37/37
f 18/34/32 16/38/31 22/36/36
f 18/31/32 20/39/34 21/37/37
f 25/40/38 19/35/35 22/36/36
f 23/41/39 22/36/36 26/42/40
f 25/40/38 22/36/36 23/41/39
f 24/43/41 22/44/42 16/32/33
f 24/43/41 26/45/43 22/44/42
f 23/41/39 26/42/40 27/46/44
f 28/47/45 27/48/46 26/45/43
f 24/43/41 28/47/45 26/45/43
f 28/47/45 24/43/41 31/49/47
f 28/47/45 29/50/48 27/48/46
f 30/51/49 29/50/48 28/47/45
f 28/47/45 31/49/47 30/51/49
f 33/52/50 31/53/51 32/54/52
f 32/54/52 31/53/51 15/55/53
f 33/52/50 30/56/54 31/53/51
f 31/49/47 17/28/29 15/29/30
f 17/28/29 31/49/47 24/43/41
f 36/57/55 33/52/50 34/58/56
f 35/59/57 34/58/56 33/52/50
f 33/52/50 32/54/52 37/60/58
f 36/57/55 30/56/54 33/52/50
f 33/52/50 37/60/58 35/59/57
f 37/60/58 40/61/59 35/59/57
f 39/62/60 37/60/58 38/63/61
f 32/54/52 38/63/61 37/60/58
f 37/60/58 39/62/60 40/61/59
f 35/59/57 40/61/59 41/64/62
f 40/61/59 44/65/63 41/64/62
f 40/61/59 42/66/64 44/65/63
f 40/61/59 43/67/65 42/66/64
f 40/61/59 39/62/60 43/67/65
f 44/68/66 48/69/67 45/70/68
f 44/68/66 45/70/68 49/71/69
f 47/72/70 44/68/66 46/73/71
f 46/73/71 44/68/66 49/71/69
f 44/68/66 42/74/72 48/69/67
f 41/64/62 44/65/63 47/75/73
f 50/76/74 46/73/71 49/71/69
f 49/71/69 45/70/68 51/77/75
f 50/76/74 49/71/69 51/77/75
f 45/70/68 52/78/76 51/77/75
f 53/79/77 51/80/78 52/81/79
f 55/82/80 51/80/78 53/79/77
f 54/83/81 50/76/74 51/77/75
f 54/83/81 51/77/75 55/84/82
f 56/85/83 54/86/84 55/87/85
f 57/88/86 56/85/83 55/87/85
f 55/82/80 53/79/77 57/89/87
f 58/90/88 59/91/89 57/92/90
f 57/92/90 60/93/91 58/90/88
f 59/94/92 56/85/83 57/88/86
f 60/95/93 57/89/87 53/79/77
f 58/90/88 60/93/91 62/96/94
f 60/95/93 53/79/77 61/97/95
f 63/98/96 60/93/91 61/99/97
f 62/96/94 60/93/91 63/98/96
f 29/50/48 63/98/96 64/100/98
f 29/50/48 36/101/99 63/98/96
f 63/98/96 36/101/99 62/96/94
f 63/98/96 61/99/97 65/102/100
f 63/98/96 66/103/101 64/100/98
f 63/98/96 65/102/100 66/103/101
f 65/104/102 67/105/103 66/106/104
f 66/106/104 67/105/103 68/107/105
f 66/106/104 68/107/105 64/108/106
f 68/107/105 67/105/103 71/109/107
f 64/108/106 68/107/105 69/110/108
f 70/111/109 69/110/108 68/107/105
f 68/107/105 71/109/107 70/111/109
f 71/112/110 72/113/111 45/70/68
f 67/105/103 72/114/112 71/109/107
f 70/115/113 71/112/110 45/70/68
f 72/113/111 52/78/76 45/70/68
f 73/116/114 52/117/79 72/114/112
f 67/105/103 73/116/114 72/114/112
f 61/118/95 74/119/115 73/116/114
f 73/116/114 74/119/115 52/117/79
f 65/104/102 73/116/114 67/105/103
f 61/118/95 73/116/114 65/104/102
f 53/79/77 74/120/115 61/97/95
f 74/120/115 53/79/77 52/81/79
f 70/111/109 75/121/116 69/110/108
f 48/69/67 75/122/117 70/115/113
f 45/70/68 48/69/67 70/115/113
f 76/123/118 69/110/108 75/121/116
f 75/121/116 77/124/119 76/123/118
f 48/69/67 77/125/120 75/122/117
f 78/126/121 79/127/122 77/125/120
f 78/126/121 77/125/120 48/69/67
f 77/124/119 79/128/123 80/129/124
f 80/129/124 76/123/118 77/124/119
f 76/123/118 80/129/124 25/40/38
f 81/130/125 80/129/124 79/128/123
f 81/130/125 25/40/38 80/129/124
f 20/33/34 81/130/125 82/131/126
f 79/128/123 82/131/126 81/130/125
f 20/33/34 19/35/35 81/130/125
f 81/130/125 19/35/35 25/40/38
f 78/126/121 83/132/127 82/133/128
f 83/132/127 20/134/129 82/133/128
f 78/126/121 82/133/128 79/127/122
f 43/135/130 84/136/131 83/132/127
f 83/132/127 84/136/131 21/137/132
f 43/135/130 83/132/127 78/126/121
f 83/132/127 21/137/132 20/134/129
f 38/138/61 85/139/133 84/140/134
f 84/136/131 85/141/135 86/142/136
f 43/143/65 39/144/60 84/145/134
f 84/136/131 86/142/136 21/137/132
f 39/62/60 38/63/61 84/146/134
f 3/8/8 4/7/7 86/147/137
f 86/142/136 4/12/12 8/14/14
f 85/139/133 3/8/8 86/147/137
f 86/142/136 8/14/14 21/137/132
f 87/148/138 3/8/8 85/139/133
f 38/138/61 87/148/138 85/139/133
f 38/138/61 88/149/139 87/148/138
f 88/149/139 3/8/8 87/148/138
f 88/149/139 5/9/9 3/8/8
f 15/29/30 5/10/10 88/150/140
f 38/138/61 15/151/53 88/149/139
f 42/74/72 78/126/121 48/69/67
f 43/135/130 78/126/121 42/74/72
f 76/123/118 89/152/141 69/110/108
f 76/123/118 25/40/38 89/152/141
f 89/152/141 91/153/142 69/110/108
f 89/152/141 25/40/38 23/41/39
f 89/152/141 90/154/143 91/153/142
f 89/152/141 23/41/39 90/154/143
f 91/153/142 64/108/106 69/110/108
f 91/155/144 29/50/48 64/100/98
f 91/153/142 90/154/143 27/46/44
f 91/155/144 27/48/46 29/50/48
f 90/154/143 23/41/39 27/46/44
f 92/156/145 58/90/88 62/96/94
f 93/157/146 92/156/145 62/96/94
f 36/101/99 93/157/146 62/96/94
f 94/158/147 95/159/148 93/157/146
f 94/158/147 93/157/146 36/101/99
f 95/160/149 96/161/150 93/162/151
f 97/163/152 93/162/151 96/161/150
f 97/163/152 92/164/153 93/162/151
f 96/161/150 46/165/154 97/163/152
f 46/166/154 92/167/153 97/168/152
f 99/169/155 96/161/150 98/170/156
f 95/160/149 98/170/156 96/161/150
f 96/161/150 99/169/155 46/165/154
f 99/171/157 47/72/70 46/73/71
f 47/72/70 99/171/157 100/172/158
f 99/169/155 98/170/156 100/173/159
f 101/174/160 47/75/73 100/173/159
f 100/173/159 98/170/156 101/174/160
f 103/175/161 101/174/160 98/170/156
f 102/176/162 101/174/160 94/177/163
f 103/175/161 94/177/163 101/174/160
f 102/176/162 47/75/73 101/174/160
f 95/160/149 103/175/161 98/170/156
f 95/159/148 94/158/147 103/178/164
f 35/59/57 102/176/162 34/58/56
f 102/176/162 94/177/163 34/58/56
f 35/59/57 41/64/62 102/176/162
f 102/176/162 41/64/62 47/75/73
f 34/58/56 94/177/163 36/57/55
f 46/179/154 104/180/165 92/181/153
f 92/182/153 104/183/165 58/184/166
f 46/179/154 106/185/167 104/180/165
f 58/184/166 104/183/165 105/186/168
f 106/187/167 50/188/169 104/183/165
f 104/183/165 50/188/169 105/186/168
f 106/189/170 46/73/71 50/76/74
f 59/94/92 58/184/166 105/186/168
f 50/188/169 59/94/92 105/186/168
f 59/94/92 54/86/84 56/85/83
f 50/188/169 54/86/84 59/94/92
f 32/54/52 15/55/53 38/63/61
f 107/190/171 36/101/99 29/50/48
f 36/57/55 107/191/172 30/56/54
f 30/51/49 107/190/171 29/50/48
f 16/32/33 17/28/29 24/43/41
f 8/22/23 13/23/24 21/37/37
