# Blender 4.1.1
# www.blender.org
mtllib link_body_19.mtl
o link_body_19
v -0.613333 -0.000000 -5.468274
v -2.177547 -1.816792 -5.006360
v -2.067186 2.012473 -4.971735
v 0.194187 1.819080 -5.208430
v 1.930343 0.000001 -5.395581
v -2.384475 0.079427 -5.229505
v 0.188328 -1.742410 -5.225375
v -1.583141 -2.883086 -4.712957
v 1.772785 -1.286890 -5.225397
v -0.274725 -2.892335 -4.689038
v 1.612625 -2.338881 -4.791759
v -0.385634 -1.457996 -3.942741
v 1.149435 -3.238795 -4.003185
v 0.257416 -0.607929 -4.646510
v 1.288574 0.628032 -5.169303
v 0.635664 1.549637 -4.679488
v -1.012924 0.329576 -3.556263
v -1.061006 2.176886 -2.736209
v -1.839073 0.540510 -2.109986
v -1.424240 -1.495843 -2.607756
v -0.171934 1.863100 -3.946703
v 1.080952 3.307770 -3.901210
v 0.703678 3.836630 -3.123053
v -0.764473 3.908355 -3.702492
v -2.108312 4.429913 -2.942071
v 0.291411 4.284311 -1.852662
v -0.795389 3.464041 -1.630058
v -1.663795 2.549314 -0.000000
v -1.920595 1.649572 -1.053022
v -0.136209 4.383698 -0.077397
v -1.393182 4.656396 -1.705726
v -0.300300 4.051599 1.165499
v -3.270927 4.712497 0.104799
v -1.235248 2.752978 1.787779
v -1.996481 0.475582 1.763234
v -1.130821 1.333383 3.111006
v -1.933443 1.597460 1.097727
v -0.244007 2.296652 3.669347
v -0.363453 3.562057 2.171039
v -1.344612 3.147396 2.957111
v -3.622112 3.897500 2.164818
v -4.410919 2.476778 2.819630
v -3.583360 3.295320 3.013554
v -4.107234 4.001368 0.671652
v -4.172410 3.719649 -1.544270
v -4.828264 3.108553 0.565918
v -5.535873 1.625812 -0.519004
v -5.278301 1.701586 1.682474
v -5.015858 0.303834 2.855247
v -5.741575 -0.097773 0.565918
v -5.489946 -1.771069 -0.000002
v -5.527684 -0.447858 -1.682474
v -5.334098 -1.517648 1.682473
v -4.341590 -0.608014 3.779301
v -4.325233 -3.670604 1.106961
v -4.380002 -2.493340 2.821359
v -3.632961 -3.901668 2.140682
v -3.434372 -2.236790 4.041911
v -3.583348 -3.295070 3.013826
v -1.344612 -3.147395 2.957111
v -0.362713 -3.561456 2.174970
v -0.087179 -0.719317 5.275696
v -0.269264 -2.416884 3.543515
v 0.851965 -0.983755 4.916014
v -0.817181 -1.323593 3.554180
v 0.251341 -0.301614 4.649420
v 1.355700 0.635175 5.188600
v 2.292072 -0.204997 5.470823
v 1.443041 0.098631 5.664875
v 2.450722 0.142244 5.500800
v -0.983850 -0.175265 5.661120
v -3.429186 2.300569 3.990025
v -1.106737 0.225240 5.632580
v 0.512325 1.225787 4.678171
v -0.936167 0.149854 3.647105
v -1.653688 -1.472502 2.109985
v -1.148245 -2.900109 1.739050
v -2.051115 -1.476893 0.662820
v -1.587711 -2.684958 0.045718
v -2.151592 -0.441660 -1.095392
v -1.552155 -2.558388 -1.052552
v -2.260490 0.450462 -0.000001
v -0.486138 -3.150903 -2.678219
v -0.594561 -3.957902 -0.616408
v -0.301356 -4.056695 1.151912
v -0.016880 -4.413262 -0.283988
v 0.278909 -4.285773 -1.862392
v 0.717239 -3.873906 -3.041959
v -1.393227 -4.656405 -1.705627
v -2.100983 -4.376697 -3.069676
v -3.411379 -2.851132 -3.697989
v -2.612944 -4.623763 -2.152156
v -1.562651 -3.947276 -3.874918
v -4.134237 -3.336240 -2.251125
v -4.760557 -1.563972 -2.890690
v -5.020986 -2.614636 -1.086226
v -4.321353 -3.820403 -0.473881
v -3.271893 -4.705178 0.141136
v -3.024624 -4.770244 -1.028369
v -5.042370 0.661509 -2.766827
v -3.941646 -0.784044 -4.151675
v -3.119573 -0.620526 -4.805145
v -3.514631 1.066151 -4.475026
v -3.119586 2.560179 -4.104365
v -4.497219 2.422547 -2.730801
v -2.984491 3.783005 -3.187678
v -2.588226 4.618478 -2.183867
v -1.657234 3.864951 -3.922832
v 0.745171 2.548749 -4.837758
v -1.570286 2.919596 -4.695958
v 1.585401 2.623909 -4.594251
v 1.894808 1.462651 -5.180513
v -3.030855 4.762119 -1.053527
v -2.116590 -0.542234 5.322221
v -2.620050 0.829620 5.089374
v -3.895157 1.217911 4.066072
v -2.904999 -0.983818 4.894135
vn -0.0579 0.0016 -0.9983
vn -0.3185 -0.2911 -0.9021
vn -0.3110 0.0239 -0.9501
vn 0.0195 -0.2908 -0.9566
vn -0.2862 0.3031 -0.9090
vn 0.0090 0.2865 -0.9580
vn 0.0356 0.0080 -0.9993
vn -0.1947 -0.4975 -0.8453
vn 0.0845 -0.5815 -0.8091
vn 0.0673 -0.2340 -0.9699
vn 0.1246 -0.5132 -0.8492
vn 0.5397 0.1010 0.8358
vn 0.6504 0.2841 0.7044
vn 0.4833 0.3474 0.8036
vn 0.5351 0.4711 0.7012
vn 0.1766 -0.7587 -0.6270
vn 0.4246 0.1892 0.8854
vn 0.3711 -0.0910 0.9241
vn 0.4912 -0.2706 0.8280
vn 0.7672 -0.0588 0.6387
vn 0.6313 -0.3493 0.6924
vn 0.7760 -0.3984 0.4890
vn 0.9198 -0.0954 0.3805
vn 0.8503 0.2608 0.4572
vn 0.5295 -0.4923 0.6909
vn 0.6107 -0.5698 0.5499
vn 0.2048 0.9008 -0.3829
vn 0.1952 0.7914 -0.5793
vn 0.1533 0.8429 -0.5158
vn -0.1316 0.8952 -0.4258
vn 0.1967 0.9651 -0.1728
vn 0.7364 -0.6138 0.2844
vn 0.6104 -0.7181 0.3343
vn 0.9347 -0.2993 0.1918
vn 0.8752 -0.4837 0.0005
vn 0.7414 -0.6705 0.0286
vn 0.8095 -0.4966 -0.3132
vn 0.1323 0.9858 -0.1036
vn 0.1425 0.9797 0.1409
vn 0.0901 0.9679 0.2346
vn 0.7799 -0.6156 -0.1130
vn 0.0973 0.9282 0.3592
vn 0.9358 -0.2905 -0.1996
vn 0.9421 -0.0691 -0.3281
vn 0.7993 -0.2460 -0.5482
vn 0.7141 -0.3344 -0.6150
vn 0.7136 -0.5902 -0.3773
vn 0.1336 0.7321 0.6680
vn 0.1153 0.8461 0.5204
vn 0.1015 0.7677 0.6327
vn 0.0743 0.8726 0.4827
vn -0.7664 0.4295 0.4776
vn -0.6620 0.5482 0.5112
vn -0.7174 0.6196 0.3185
vn -0.6975 0.7045 0.1310
vn -0.6390 0.7692 -0.0057
vn 0.0667 0.7660 0.6394
vn -0.7311 0.6332 -0.2541
vn -0.8421 0.5310 0.0946
vn -0.9169 0.2845 0.2799
vn -0.9531 0.2841 -0.1042
vn -0.8770 0.0523 0.4776
vn -0.9952 -0.0049 0.0978
vn -0.9593 -0.0780 -0.2715
vn -0.9177 -0.2643 0.2966
vn -0.9485 -0.3167 -0.0008
vn -0.7464 -0.1105 0.6563
vn -0.7684 -0.4223 0.4809
vn -0.7560 -0.6261 0.1909
vn -0.6694 -0.5436 0.5063
vn -0.6863 -0.6427 0.3405
vn -0.6757 -0.3258 0.6613
vn 0.0279 -0.6706 0.7413
vn 0.0668 -0.7678 0.6372
vn 0.0977 -0.7712 0.6291
vn 0.0737 -0.8739 0.4805
vn 0.1117 -0.8477 0.5185
vn 0.1537 -0.7462 0.6477
vn 0.0477 -0.6164 0.7860
vn 0.0830 -0.6930 0.7162
vn 0.7378 0.2389 -0.6313
vn 0.4821 0.1306 -0.8663
vn 0.7031 0.3858 -0.5973
vn 0.5633 0.0496 -0.8247
vn 0.3990 -0.0037 -0.9169
vn 0.2950 0.0078 -0.9555
vn 0.1256 -0.3160 0.9404
vn 0.0519 -0.4444 0.8943
vn 0.1654 -0.1596 0.9732
vn 0.2593 -0.0352 -0.9651
vn 0.0625 0.6674 0.7421
vn 0.0911 0.6693 0.7373
vn 0.0358 0.6667 0.7445
vn -0.1990 0.0300 0.9795
vn -0.1390 0.0279 0.9899
vn -0.0092 0.0683 0.9976
vn -0.0095 -0.5768 0.8168
vn 0.0478 0.6811 0.7306
vn 0.0104 0.6277 0.7784
vn -0.0943 0.6113 0.7858
vn 0.5933 -0.1276 -0.7948
vn 0.7622 -0.0301 -0.6466
vn 0.8849 0.2512 -0.3922
vn 0.9626 0.2493 -0.1064
vn 0.7985 0.5172 -0.3081
vn 0.8696 0.4930 -0.0270
vn 0.8729 0.4427 0.2051
vn 0.9970 -0.0773 -0.0006
vn 0.9760 0.0989 0.1940
vn 0.6794 0.5534 0.4818
vn 0.7010 0.7054 0.1052
vn 0.6212 0.7108 0.3300
vn 0.7351 0.6624 -0.1442
vn 0.6060 0.7947 0.0355
vn 0.5453 0.6286 0.5546
vn 0.1905 -0.9642 -0.1844
vn 0.1368 -0.9458 -0.2947
vn 0.1874 -0.9020 -0.3889
vn 0.1274 -0.9853 -0.1135
vn 0.1436 -0.9828 0.1160
vn -0.0978 -0.7750 -0.6244
vn -0.4998 -0.6628 -0.5576
vn -0.5800 -0.4969 -0.6455
vn -0.7007 -0.5963 -0.3917
vn 0.0372 -0.9841 -0.1737
vn -0.5856 -0.7037 -0.4022
vn -0.8242 -0.2731 -0.4962
vn -0.8779 -0.4399 -0.1893
vn -0.7472 -0.6587 -0.0880
vn -0.6284 -0.7774 0.0287
vn -0.6393 -0.7278 -0.2484
vn 0.0786 -0.9967 0.0217
vn 0.0910 -0.9658 0.2427
vn 0.0987 -0.9301 0.3537
vn -0.8667 0.1235 -0.4833
vn -0.6915 -0.1425 -0.7081
vn -0.6174 0.1871 -0.7641
vn -0.5297 -0.1303 -0.8381
vn -0.7846 0.4090 -0.4660
vn -0.5461 0.4476 -0.7081
vn -0.5254 0.6485 -0.5509
vn -0.5292 0.7542 -0.3888
vn -0.1378 0.7357 -0.6631
vn 0.1112 0.5620 -0.8196
vn -0.1685 0.5177 -0.8388
vn 0.0885 0.2644 -0.9603
vn 0.1822 0.6077 -0.7730
vn 0.3481 0.0181 0.9373
vn 0.3060 -0.2626 0.9151
vn 0.4022 -0.4201 0.8135
vn -0.6113 0.7649 -0.2030
vn 0.0336 0.9862 -0.1623
vn 0.0689 0.9976 0.0112
vn 0.7100 0.5915 -0.3821
vn -0.3925 0.0043 0.9198
vn -0.5211 0.0659 0.8509
vn -0.0632 0.5749 0.8158
vn -0.6789 0.1947 0.7080
vn -0.6373 0.3673 0.6774
vn -0.5873 -0.0753 0.8058
vn -0.1086 -0.5361 0.8371
vn 0.0245 -0.7181 0.6955
vt 0.855989 0.491892
vt 0.841219 0.485867
vt 0.852765 0.480578
vt 0.846655 0.500612
vt 0.865596 0.478563
vt 0.869127 0.493208
vt 0.861301 0.507942
vt 0.835710 0.491871
vt 0.838386 0.500145
vt 0.852841 0.509654
vt 0.845832 0.510882
vt 0.899249 0.324711
vt 0.893672 0.329144
vt 0.887534 0.315992
vt 0.881592 0.319241
vt 0.839116 0.509915
vt 0.894518 0.314741
vt 0.907315 0.317642
vt 0.913520 0.321840
vt 0.905631 0.333027
vt 0.219333 0.873453
vt 0.218333 0.865998
vt 0.230254 0.871675
vt 0.229933 0.862636
vt 0.242859 0.865968
vt 0.915698 0.327175
vt 0.241384 0.874090
vt 0.925084 0.318614
vt 0.928619 0.321055
vt 0.205782 0.867114
vt 0.440544 0.803307
vt 0.443785 0.808583
vt 0.430993 0.806505
vt 0.421726 0.800919
vt 0.437456 0.794745
vt 0.209899 0.858307
vt 0.979247 0.685999
vt 0.991369 0.692818
vt 0.982382 0.692376
vt 0.222960 0.855531
vt 0.217071 0.848258
vt 0.203651 0.847460
vt 0.970239 0.692818
vt 0.215795 0.836124
vt 0.426160 0.793061
vt 0.435247 0.782796
vt 0.415006 0.780232
vt 0.206283 0.839407
vt 0.435444 0.774452
vt 0.223839 0.841333
vt 0.231442 0.837152
vt 0.225373 0.827531
vt 0.218399 0.823096
vt 0.209806 0.832880
vt 0.440690 0.757711
vt 0.436533 0.767712
vt 0.431638 0.762026
vt 0.415432 0.766342
vt 0.798164 0.825170
vt 0.805430 0.825119
vt 0.808064 0.831213
vt 0.805859 0.840823
vt 0.811689 0.845667
vt 0.417349 0.760675
vt 0.801629 0.855057
vt 0.798511 0.840288
vt 0.790052 0.831422
vt 0.786589 0.845641
vt 0.783530 0.822601
vt 0.776809 0.836831
vt 0.772845 0.851375
vt 0.770465 0.828441
vt 0.766742 0.839152
vt 0.780731 0.816090
vt 0.768224 0.820622
vt 0.759426 0.830816
vt 0.732124 0.765881
vt 0.737678 0.766750
vt 0.732543 0.771800
vt 0.737495 0.778412
vt 0.887894 0.043982
vt 0.887538 0.056374
vt 0.881592 0.045403
vt 0.883829 0.038230
vt 0.731121 0.758857
vt 0.717329 0.766848
vt 0.710931 0.772408
vt 0.710222 0.763090
vt 0.708967 0.751256
vt 0.702770 0.753966
vt 0.972145 0.406895
vt 0.982036 0.412499
vt 0.970239 0.414791
vt 0.981920 0.406428
vt 0.991527 0.406477
vt 0.992670 0.414791
vt 0.912220 0.042651
vt 0.916969 0.038230
vt 0.927818 0.038399
vt 0.923729 0.042781
vt 0.929815 0.039961
vt 0.994963 0.413713
vt 0.924879 0.046229
vt 0.909078 0.051329
vt 0.908576 0.048590
vt 0.916745 0.069385
vt 0.901808 0.070732
vt 0.921736 0.052310
vt 0.989793 0.399799
vt 0.977856 0.398919
vt 0.448200 0.751256
vt 0.225040 0.816090
vt 0.233127 0.824043
vt 0.244055 0.834937
vt 0.242702 0.824808
vt 0.244075 0.844768
vt 0.252925 0.837274
vt 0.251477 0.848726
vt 0.250345 0.855941
vt 0.231406 0.848987
vt 0.236918 0.856293
vt 0.626433 0.916161
vt 0.620548 0.904128
vt 0.630085 0.902721
vt 0.252925 0.866065
vt 0.621952 0.896939
vt 0.634659 0.911989
vt 0.634261 0.891557
vt 0.635053 0.901346
vt 0.634991 0.920150
vt 0.707647 0.799542
vt 0.723758 0.806909
vt 0.705190 0.807396
vt 0.718595 0.798120
vt 0.709120 0.789016
vt 0.720534 0.812303
vt 0.825059 0.491879
vt 0.831997 0.480368
vt 0.828965 0.494302
vt 0.737287 0.800669
vt 0.733039 0.810359
vt 0.726823 0.800735
vt 0.837220 0.469244
vt 0.827295 0.476957
vt 0.758355 0.853249
vt 0.761688 0.845768
vt 0.766777 0.858710
vt 0.737886 0.788936
vt 0.743025 0.792526
vt 0.730511 0.785353
vt 0.729191 0.793197
vt 0.756847 0.841046
vt 0.710687 0.779327
vt 0.779631 0.859777
vt 0.772238 0.868159
vt 0.843966 0.472662
vt 0.784160 0.872217
vt 0.856556 0.471458
vt 0.846775 0.477444
vt 0.791700 0.861464
vt 0.866771 0.470862
vt 0.794589 0.871380
vt 0.803298 0.866567
vt 0.810427 0.860976
vt 0.809707 0.866047
vt 0.806402 0.872217
vt 0.874683 0.469244
vt 0.878041 0.477375
vt 0.443028 0.814571
vt 0.425431 0.807567
vt 0.872331 0.479827
vt 0.874847 0.495193
vt 0.870432 0.504682
vt 0.448200 0.813336
vt 0.877056 0.500358
vt 0.903049 0.313476
vt 0.912759 0.313476
vt 0.920494 0.315356
vt 0.811368 0.853444
vt 0.418599 0.795698
vt 0.415948 0.788022
vt 0.702770 0.813749
vt 0.635053 0.926835
vt 0.627195 0.886466
vt 0.634026 0.884710
vt 0.490358 0.978382
vt 0.499199 0.971806
vt 0.499199 0.981371
vt 0.882378 0.330130
vt 0.633712 0.875675
vt 0.249422 0.824684
vt 0.900789 0.049902
vt 0.902027 0.059542
vt 0.895743 0.065769
vt 0.894808 0.049724
vt 0.276242 0.979552
vt 0.275515 0.985407
vt 0.275515 0.971806
vt 0.793207 0.816137
vt 0.800856 0.817892
vt 0.903989 0.077105
s 1
usemtl pleuraldeles_skin
f 1/1/1 2/2/2 6/3/3
f 1/1/1 7/4/4 2/2/2
f 6/3/3 3/5/5 1/1/1
f 4/6/6 1/1/1 3/5/5
f 1/1/1 4/6/6 5/7/7
f 7/4/4 1/1/1 5/7/7
f 8/8/8 7/4/4 10/9/9
f 7/4/4 8/8/8 2/2/2
f 5/7/7 9/10/10 7/4/4
f 7/4/4 9/10/10 11/11/11
f 10/9/9 7/4/4 11/11/11
f 14/12/12 12/13/13 11/14/14
f 13/15/15 11/14/14 12/13/13
f 11/11/11 13/16/16 10/9/9
f 14/12/12 11/14/14 9/17/17
f 15/18/18 16/19/19 14/12/12
f 9/17/17 15/18/18 14/12/12
f 14/12/12 16/19/19 17/20/20
f 14/12/12 17/20/20 12/13/13
f 21/21/21 18/22/22 17/23/20
f 18/22/22 19/24/23 17/23/20
f 17/23/20 19/24/23 20/25/24
f 16/19/19 21/26/21 17/20/20
f 12/27/13 17/23/20 20/25/24
f 21/26/21 22/28/25 23/29/26
f 21/26/21 16/19/19 22/28/25
f 21/21/21 23/30/26 18/22/22
f 23/31/27 22/32/28 24/33/29
f 25/34/30 23/31/27 24/33/29
f 25/34/30 26/35/31 23/31/27
f 27/36/32 18/22/22 23/30/26
f 27/37/32 23/38/26 26/39/33
f 29/40/34 27/36/32 28/41/35
f 27/36/32 30/42/36 28/41/35
f 18/22/22 27/36/32 29/40/34
f 26/39/33 30/43/36 27/37/32
f 30/42/36 34/44/37 28/41/35
f 31/45/38 30/46/39 26/35/31
f 33/47/40 30/46/39 31/45/38
f 30/42/36 32/48/41 34/44/37
f 33/47/40 32/49/42 30/46/39
f 37/50/43 34/44/37 35/51/44
f 35/51/44 34/44/37 36/52/45
f 34/44/37 38/53/46 36/52/45
f 28/41/35 34/44/37 37/50/43
f 34/44/37 32/48/41 39/54/47
f 34/44/37 39/54/47 38/53/46
f 38/55/48 39/56/49 40/57/50
f 41/58/51 40/57/50 39/56/49
f 39/56/49 32/49/42 41/58/51
f 42/59/52 43/60/53 41/61/54
f 44/62/55 42/59/52 41/61/54
f 41/61/54 33/63/56 44/62/55
f 41/58/51 32/49/42 33/47/40
f 43/64/57 40/57/50 41/58/51
f 45/65/58 46/66/59 44/62/55
f 45/65/58 44/62/55 33/63/56
f 44/62/55 46/66/59 42/59/52
f 46/66/59 48/67/60 42/59/52
f 47/68/61 46/66/59 45/65/58
f 46/66/59 47/68/61 48/67/60
f 48/67/60 49/69/62 42/59/52
f 48/67/60 50/70/63 49/69/62
f 47/68/61 50/70/63 48/67/60
f 52/71/64 50/70/63 47/68/61
f 50/70/63 53/72/65 49/69/62
f 50/70/63 51/73/66 53/72/65
f 50/70/63 52/71/64 51/73/66
f 49/69/62 53/72/65 54/74/67
f 54/74/67 53/72/65 56/75/68
f 51/73/66 55/76/69 53/72/65
f 53/72/65 55/76/69 56/75/68
f 59/77/70 56/78/68 57/79/71
f 55/80/69 57/79/71 56/78/68
f 58/81/72 54/82/67 56/83/68
f 56/83/68 59/84/70 58/81/72
f 58/85/73 59/77/74 60/86/75
f 59/77/74 57/79/76 60/86/75
f 57/79/76 61/87/77 60/86/75
f 60/86/75 61/87/77 63/88/78
f 60/86/75 62/89/79 58/85/73
f 62/89/79 60/86/75 64/90/80
f 60/86/75 63/88/78 64/90/80
f 65/91/81 64/92/82 63/93/83
f 64/92/82 65/91/81 66/94/84
f 64/92/82 66/94/84 67/95/85
f 68/96/86 64/92/82 67/95/85
f 62/97/79 64/98/80 68/99/87
f 68/99/87 69/100/88 62/97/79
f 69/100/88 68/99/87 70/101/89
f 67/95/85 70/102/90 68/96/86
f 69/100/91 70/101/92 67/103/93
f 73/104/94 71/105/95 69/100/96
f 71/105/97 62/97/79 69/100/88
f 40/106/50 72/107/98 69/100/91
f 72/107/98 73/104/99 69/100/91
f 40/106/50 69/100/91 74/108/100
f 69/100/91 67/103/93 74/108/100
f 66/94/84 74/109/101 67/95/85
f 75/110/102 74/109/101 66/94/84
f 74/111/100 38/55/48 40/57/50
f 38/53/46 74/112/101 75/113/102
f 76/114/103 35/51/44 75/113/102
f 35/51/44 36/52/45 75/113/102
f 66/94/84 65/91/81 75/110/102
f 76/114/103 75/113/102 65/115/81
f 36/52/45 38/53/46 75/113/102
f 35/51/44 76/114/103 78/116/104
f 77/117/105 76/114/103 65/115/81
f 77/117/105 78/116/104 76/114/103
f 79/118/106 78/116/104 77/117/105
f 81/119/107 78/116/104 79/118/106
f 82/120/108 35/51/44 78/116/104
f 81/119/107 80/121/109 78/116/104
f 80/121/109 82/120/108 78/116/104
f 82/120/108 37/50/43 35/51/44
f 28/41/35 37/50/43 82/120/108
f 80/121/109 29/40/34 82/120/108
f 29/40/34 28/41/35 82/120/108
f 83/122/110 81/123/107 84/124/111
f 20/25/24 81/119/107 83/125/110
f 20/25/24 80/121/109 81/119/107
f 81/123/107 79/126/106 84/124/111
f 83/122/110 84/124/111 87/127/112
f 85/128/113 86/129/114 84/124/111
f 79/126/106 85/128/113 84/124/111
f 86/129/114 87/127/112 84/124/111
f 87/127/112 88/130/115 83/122/110
f 87/131/116 90/132/117 88/133/118
f 87/131/116 89/134/119 90/132/117
f 89/134/119 87/131/116 86/135/120
f 90/132/117 93/136/121 88/133/118
f 90/137/122 91/138/123 93/139/121
f 90/132/122 94/140/124 91/141/123
f 92/142/125 90/132/117 89/134/119
f 90/132/122 92/142/126 94/140/124
f 95/143/127 91/138/123 94/144/124
f 94/145/124 96/146/128 95/147/127
f 97/148/129 94/140/124 92/142/126
f 94/140/124 97/148/129 96/149/128
f 55/80/69 97/148/129 98/150/130
f 98/150/130 97/148/129 99/151/131
f 51/73/66 97/152/129 55/76/69
f 97/148/129 92/142/126 99/151/131
f 51/73/66 96/146/128 97/152/129
f 89/134/119 99/151/132 92/142/125
f 89/134/119 98/150/133 99/151/132
f 57/79/76 98/150/133 85/153/134
f 57/79/71 55/80/69 98/150/130
f 86/135/120 85/153/134 98/150/133
f 98/150/133 89/134/119 86/135/120
f 96/146/128 51/73/66 52/71/64
f 95/147/127 96/146/128 52/71/64
f 100/154/135 95/147/127 52/71/64
f 101/155/136 95/147/127 100/154/135
f 95/143/127 101/156/136 91/138/123
f 103/157/137 101/155/136 100/154/135
f 103/158/137 102/159/138 101/156/136
f 2/2/2 101/156/136 102/159/138
f 2/2/2 91/138/123 101/156/136
f 6/3/3 102/159/138 103/158/137
f 3/5/5 6/3/3 103/158/137
f 103/157/137 100/154/135 105/160/139
f 104/161/140 3/5/5 103/158/137
f 103/157/137 105/160/139 104/162/140
f 106/163/141 104/162/140 105/160/139
f 106/163/141 105/160/139 45/65/58
f 45/65/58 105/160/139 47/68/61
f 47/68/61 105/160/139 100/154/135
f 45/65/58 107/164/142 106/163/141
f 106/163/141 107/164/142 25/165/30
f 106/163/141 25/165/30 108/166/143
f 106/167/141 108/168/143 104/161/140
f 24/33/29 109/169/144 108/170/143
f 110/171/145 108/168/143 109/172/144
f 25/34/30 24/33/29 108/170/143
f 104/161/140 108/168/143 110/171/145
f 109/172/144 4/6/6 110/171/145
f 3/5/5 110/171/145 4/6/6
f 104/161/140 110/171/145 3/5/5
f 109/172/144 112/173/146 4/6/6
f 24/33/29 111/174/147 109/169/144
f 109/172/144 111/175/147 112/173/146
f 15/18/18 5/176/148 112/177/149
f 16/19/19 15/18/18 112/177/149
f 4/6/6 112/173/146 5/7/7
f 16/19/19 112/177/149 111/178/150
f 24/33/29 22/32/28 111/174/147
f 22/28/25 16/19/19 111/178/150
f 113/179/151 107/164/142 45/65/58
f 107/180/152 113/181/153 31/45/38
f 31/45/38 25/34/30 107/180/152
f 45/65/58 33/63/56 113/179/151
f 31/45/38 113/181/153 33/47/40
f 6/3/3 2/2/2 102/159/138
f 100/154/135 52/71/64 47/68/61
f 8/8/8 10/9/9 93/139/121
f 93/139/121 10/9/9 13/16/16
f 93/136/121 13/182/16 88/133/118
f 8/8/8 93/139/121 91/138/123
f 8/8/8 91/138/123 2/2/2
f 13/183/15 83/122/110 88/130/115
f 79/126/106 77/184/105 85/128/113
f 61/185/154 85/128/113 77/184/105
f 61/87/77 57/79/76 85/153/134
f 12/186/13 20/187/24 83/188/110
f 83/189/110 13/15/15 12/13/13
f 19/24/23 29/40/34 80/121/109
f 19/24/23 80/121/109 20/25/24
f 77/184/105 63/190/83 61/185/154
f 77/117/105 65/115/81 63/191/83
f 114/192/155 71/105/95 73/104/94
f 114/192/155 73/104/94 115/193/156
f 72/107/98 115/193/157 73/104/99
f 115/193/156 116/194/158 54/82/67
f 115/193/156 72/107/159 116/194/158
f 115/193/156 54/82/67 117/195/160
f 115/193/156 117/195/160 114/192/155
f 117/195/161 58/81/73 71/105/97
f 114/196/162 117/197/161 71/198/97
f 117/195/160 54/82/67 58/81/72
f 116/199/158 49/69/62 54/74/67
f 42/59/52 116/199/158 72/200/159
f 42/59/52 49/69/62 116/199/158
f 72/107/98 40/106/50 43/201/57
f 43/60/53 42/59/52 72/200/159
f 71/105/97 58/81/73 62/97/79
f 25/34/30 31/45/38 26/35/31
f 19/24/23 18/22/22 29/40/34
f 15/18/18 9/17/17 5/176/148
