# ('FARMS composite mesh',)
mtllib link_body_18_composite.mtl

o link_body_18
usemtl link_body_18_composite
v -2.37104000 -0.49905000 -5.15896000
v -2.43596600 0.52296100 -5.12576600
v -2.80108300 -1.55058100 -4.74325800
v -3.13083900 0.41207900 -4.80792700
v -2.24474500 -2.10114000 -4.82423100
v 1.66603800 -0.76245200 -5.19106700
v 1.66603800 -0.76245200 -5.19106700
v 1.72288900 1.05582800 -5.19022800
v 1.72288900 1.05582800 -5.19022800
v 2.30125400 2.93203000 -4.68326700
v 2.30125400 2.93203000 -4.68326700
v 0.87041600 -0.67104000 -4.80398500
v -2.27506400 2.03268800 -4.83746400
v 1.07059100 1.22592200 -4.82588900
v -0.43897400 0.43942600 -3.67909100
v -0.43897400 0.43942600 -3.67909100
v 0.06398400 1.88522700 -3.80191600
v 0.06398400 1.88522700 -3.80191600
v 1.46523500 3.22996600 -4.05906800
v 1.46523500 3.22996600 -4.05906800
v 0.26238200 3.01262900 -3.19052100
v 0.26238200 3.01262900 -3.19052100
v 0.26238200 3.01262900 -3.19052100
v -1.09309700 1.54057200 -2.22415200
v -0.95821200 2.73166400 -1.08998300
v -0.11413800 3.38098700 -2.22415200
v -0.11413800 3.38098700 -2.22415200
v -1.30239300 0.00000100 -2.20567600
v -1.61502200 0.65526700 -1.13384300
v -1.61944000 -1.17236800 -0.61010600
v -1.74725300 0.46627300 -0.00000100
v -1.07801600 2.76056100 0.42855400
v -1.40872700 1.65353300 1.13625900
v 0.41838300 4.31934600 1.21081400
v 0.41838300 4.31934600 1.21081400
v -0.63419500 2.57340500 2.29080700
v -0.04260700 4.11070000 -0.49705200
v -0.04260700 4.11070000 -0.49705200
v 0.71391500 4.69637500 0.08512200
v 0.71391500 4.69637500 0.08512200
v 0.71391500 4.69637500 0.08512200
v 0.99130300 4.78299900 -1.05714800
v 0.99130300 4.78299900 -1.05714800
v 1.36494100 4.69478100 -2.01081500
v 1.36494100 4.69478100 -2.01081500
v -2.42049900 4.08653000 -3.14812000
v -2.42049900 4.08653000 -3.14812000
v -2.92967000 4.42341900 -2.10911400
v -2.92967000 4.42341900 -2.10911400
v -3.37189600 4.58982200 -0.14976700
v -3.37189600 4.58982200 -0.14976700
v 1.85932500 4.33882800 -3.14826400
v 1.85932500 4.33882800 -3.14826400
v 1.61171100 3.75634900 -4.10295200
v 1.61171100 3.75634900 -4.10295200
v 2.33154500 3.93423600 -3.82444500
v 2.33154500 3.93423600 -3.82444500
v 2.33154500 3.93423600 -3.82444500
v 2.33154500 3.93423600 -3.82444500
v -2.06943800 3.36942700 -4.12169400
v -2.06943800 3.36942700 -4.12169400
v -2.06943800 3.36942700 -4.12169400
v -3.07171600 2.59495900 -4.06834700
v -3.07171600 2.59495900 -4.06834700
v -3.68504300 3.02423500 -3.18659100
v -4.62270500 2.57612100 -2.19947500
v -3.83127000 3.89259400 -1.73563000
v -4.29545600 1.23821000 -3.61565300
v -4.29545600 1.23821000 -3.61565300
v -3.99249400 -0.39322500 -4.08013700
v -3.99249400 -0.39322500 -4.08013700
v -5.45525600 0.56823700 -1.73810100
v -5.25175900 -0.46815200 -2.23712800
v -4.71737300 -0.50637400 -3.21403600
v -4.71737300 -0.50637400 -3.21403600
v -4.15702700 -2.31660700 -3.18597700
v -4.15702700 -2.31660700 -3.18597700
v -4.15702700 -2.31660700 -3.18597700
v -4.71020300 -2.41242700 -2.19947600
v -4.71020300 -2.41242700 -2.19947600
v -3.34635900 -2.33110800 -4.05443300
v -3.59865200 -3.60298700 -2.63899400
v -3.59865200 -3.60298700 -2.63899400
v -2.08057800 -3.38338200 -4.10592000
v -2.08057800 -3.38338200 -4.10592000
v 2.38797100 -3.83804600 -3.98387000
v 2.38797100 -3.83804600 -3.98387000
v 2.38797100 -3.83804600 -3.98387000
v 2.38797100 -3.83804600 -3.98387000
v -2.46667000 -4.08059200 -3.13181100
v -2.46667000 -4.08059200 -3.13181100
v 2.54201500 -3.11358300 -4.58818200
v 2.54201500 -3.11358300 -4.58818200
v 2.10321800 -2.34477100 -4.91584100
v 2.10321800 -2.34477100 -4.91584100
v 1.45319300 -3.19891000 -4.07821400
v 1.45319300 -3.19891000 -4.07821400
v 1.86092900 -4.36490300 -3.08612800
v 1.86092900 -4.36490300 -3.08612800
v 0.20386100 -1.47158200 -4.10839200
v 0.20386100 -1.47158200 -4.10839200
v 0.20386100 -1.47158200 -4.10839200
v 0.33809800 -3.02377000 -3.27162400
v 0.33809800 -3.02377000 -3.27162400
v -0.61116100 -1.40562700 -3.16121800
v -0.61116100 -1.40562700 -3.16121800
v -0.12607000 -3.34786700 -2.25892200
v -0.12607000 -3.34786700 -2.25892200
v -0.01042500 -4.13626000 -0.51857900
v -1.01589900 -2.62374200 -1.08998300
v -1.01589900 -2.62374200 -1.08998300
v -1.08157800 -1.54832700 -2.22044700
v 1.41879600 -4.65402700 -2.16793700
v 1.41879600 -4.65402700 -2.16793700
v 0.98717800 -4.77922700 -1.06633000
v 0.98717800 -4.77922700 -1.06633000
v -2.92916200 -4.38762800 -2.18422800
v -2.92916200 -4.38762800 -2.18422800
v -3.16049800 -4.79797300 -0.28485700
v -3.16049800 -4.79797300 -0.28485700
v -3.56094700 -4.28527700 1.19943600
v -3.56094700 -4.28527700 1.19943600
v -4.03743900 -4.03743800 0.00000100
v -4.29551600 -3.66031600 -1.08464100
v -4.29551600 -3.66031600 -1.08464100
v 0.71094500 -4.68838600 0.13034300
v 0.71094500 -4.68838600 0.13034300
v 0.42794000 -4.31596100 1.23399800
v 0.42794000 -4.31596100 1.23399800
v -1.01589900 -2.62374200 1.08998200
v -1.01589900 -2.62374200 1.08998200
v -3.57474300 -3.78000400 2.33069600
v -3.57474300 -3.78000400 2.33069600
v 0.34361800 -3.82995900 2.22722000
v 0.34361800 -3.82995900 2.22722000
v -0.40497500 -2.95839400 2.20567500
v -0.40497500 -2.95839400 2.20567500
v -1.03391100 -2.81785100 -0.00000100
v -1.03391100 -2.81785100 -0.00000100
v 0.38693000 -3.20005900 3.12138200
v 0.38693000 -3.20005900 3.12138200
v 0.38693000 -3.20005900 3.12138200
v -1.11583800 -1.46082300 2.22019600
v -0.54931700 -1.47490200 3.21599800
v -0.76642700 0.47167800 3.21661900
v 0.10770800 -1.18756100 4.08523800
v 0.10770800 -1.18756100 4.08523800
v 0.62823700 -2.14588200 4.15455200
v 0.62823700 -2.14588200 4.15455200
v 0.62823700 -2.14588200 4.15455200
v 0.62823700 -2.14588200 4.15455200
v -3.46714200 -2.04544700 4.06131600
v -3.46714200 -2.04544700 4.06131600
v -2.93064900 -1.21391300 4.74758400
v 1.17910200 -0.00073100 5.78668000
v -3.55272400 -3.08734800 3.20141800
v -3.55272400 -3.08734800 3.20141800
v -3.55272400 -3.08734800 3.20141800
v -3.55272400 -3.08734800 3.20141800
v 1.42716600 -0.94820700 5.07852900
v 1.42716600 -0.94820700 5.07852900
v 0.83582700 -0.30892200 4.80409700
v 3.04372900 -0.14807900 5.67886200
v 3.04372900 -0.14807900 5.67886200
v 1.92122100 0.56871000 5.34983100
v 1.92122100 0.56871000 5.34983100
v -0.69427500 2.12072400 4.18916700
v -0.69427500 2.12072400 4.18916700
v 3.19388500 0.03485700 5.72994200
v 3.19388500 0.03485700 5.72994200
v 3.19388500 0.03485700 5.72994200
v 1.10308800 1.22157800 4.82836700
v 1.10308800 1.22157800 4.82836700
v -0.03549700 0.39968700 4.08498300
v -0.03549700 0.39968700 4.08498300
v 0.59032300 2.10912800 4.15484600
v 0.59032300 2.10912800 4.15484600
v 0.59032300 2.10912800 4.15484600
v -0.14961600 2.35466600 3.23965800
v 0.38799100 3.68461200 2.55931800
v 0.38799100 3.68461200 2.55931800
v 0.38799100 3.68461200 2.55931800
v -3.52649400 4.29845700 1.21179400
v -3.52649400 4.29845700 1.21179400
v -3.50699600 2.63360100 3.69853700
v -3.50699600 2.63360100 3.69853700
v -3.50699600 2.63360100 3.69853700
v -3.50699600 2.63360100 3.69853700
v -3.58398700 3.79060200 2.30569900
v -3.58398700 3.79060200 2.30569900
v -4.66941600 2.53405200 2.16366700
v -4.19625800 2.26285400 3.17253300
v -4.93420000 2.70611500 1.07981200
v -5.40663900 0.79896400 1.78971800
v -4.74347900 0.38333400 3.18597500
v -4.74347900 0.38333400 3.18597500
v -5.51592300 1.56814800 -0.00000100
v -5.59779800 -0.54565400 1.12565400
v -5.09033900 -1.44715400 2.19947500
v -4.31092400 -2.58511100 2.79525600
v -4.31092400 -2.58511100 2.79525600
v -4.31092400 -2.58511100 2.79525600
v -4.99134600 -2.59920400 1.07981200
v -4.99134600 -2.59920400 1.07981200
v -4.32004500 -0.67545500 3.73278000
v -4.32004500 -0.67545500 3.73278000
v -3.15908500 -0.32653300 4.75951700
v -3.88032700 1.25415700 4.02769100
v -3.88032700 1.25415700 4.02769100
v -2.91817500 1.14469100 4.77681300
v -2.91817500 1.14469100 4.77681300
v -2.14295900 0.42626100 5.27521400
v -2.07910000 -0.23389400 5.32259800
v -5.00919400 -2.79150100 -0.00000100
v -5.00919400 -2.79150100 -0.00000100
v -5.69615200 -0.66207400 -0.00000100
v -5.38378700 -1.62724300 -1.12565600
v -5.35091500 1.72621800 -1.12326100
v -4.77290300 3.13195800 -0.50325800
v -4.03743900 4.03743800 -0.00000100
v -1.29907400 0.58471900 2.18435200
v -1.62807400 -0.55080400 1.13625800
vn -0.25273894 -0.09679885 -0.96268012
vn -0.24148595 0.11282198 -0.96382350
vn -0.49641401 -0.23531610 -0.83558331
vn -0.55183937 0.08322226 -0.82978754
vn -0.23839148 -0.36397189 -0.90038545
vn -0.01951566 -0.10248208 -0.99454339
vn 0.44627882 0.14480405 0.88310079
vn -0.01803936 0.15090923 -0.98838302
vn 0.43619579 -0.18044398 0.88157427
vn 0.41630194 -0.46868183 0.77912133
vn -0.00097125 0.46141571 -0.88718352
vn 0.54424407 0.10734930 0.83203036
vn -0.27746497 0.33697060 -0.89970218
vn 0.52199718 -0.22351827 0.82313944
vn 0.83637913 -0.06508593 0.54427362
vn 0.64972283 -0.06363778 0.75750279
vn 0.79454008 -0.32790815 0.51105998
vn 0.58029626 -0.32555306 0.74650617
vn 0.47500701 -0.65317682 0.58968499
vn 0.44950440 -0.46128038 0.76496157
vn 0.78067196 -0.40819849 0.47320745
vn 0.57164293 -0.46660389 0.67491123
vn 0.54368133 -0.67074865 0.50448674
vn 0.87794937 -0.27748268 0.39013877
vn 0.87086489 -0.45357418 0.18938004
vn 0.79480497 -0.48493790 0.36485654
vn 0.58138148 -0.71151297 0.39464525
vn 0.92055654 0.01369306 0.39036925
vn 0.97341069 -0.12929716 0.18908697
vn 0.97426203 0.20266622 0.09869095
vn 0.99493516 -0.10017306 -0.00832975
vn 0.87366529 -0.48091274 -0.07370137
vn 0.94374291 -0.26936215 -0.19181591
vn 0.73144028 -0.65763540 -0.18030752
vn -0.00483363 0.93006311 0.36736799
vn 0.80964241 -0.44862679 -0.37843516
vn 0.75675391 -0.65362270 0.01004407
vn 0.60357559 -0.77014834 0.20632022
vn 0.64913427 -0.75614979 -0.08283834
vn 0.57254442 -0.81623696 0.07713696
vn -0.02244459 0.98569079 0.16706261
vn 0.61868064 -0.74589104 0.24674039
vn -0.05543896 0.99698289 -0.05432897
vn 0.58701659 -0.71400650 0.38158385
vn -0.05970583 0.96861796 -0.24127674
vn -0.06174490 0.89674531 -0.43821846
vn -0.52390796 0.64384958 -0.55765417
vn -0.05749025 0.97960046 -0.19255600
vn -0.57067990 0.72655441 -0.38267891
vn -0.62732674 0.77649878 -0.05925212
vn -0.04637146 0.99584068 0.07842846
vn 0.49565300 -0.67685558 0.54423766
vn -0.04345335 0.89427291 -0.44540742
vn 0.02118690 0.58731200 -0.80908327
vn -0.04046640 0.85041796 -0.52454911
vn 0.13314629 0.64258192 -0.75455984
vn 0.31279957 -0.62347981 0.71653985
vn 0.36400913 -0.66501026 0.65211863
vn -0.01051092 0.85481881 -0.51882013
vn -0.07978913 0.78863921 -0.60965719
vn -0.18187451 0.49195647 -0.85141088
vn -0.49223876 0.60284555 -0.62791579
vn -0.56968179 0.50995362 -0.64452305
vn -0.50837413 0.36468177 -0.78010445
vn -0.63887131 0.53359184 -0.55418697
vn -0.81366929 0.43450821 -0.38619283
vn -0.66590454 0.68603519 -0.29313286
vn -0.62672980 0.20245876 -0.75247605
vn -0.80907553 0.22750847 -0.54188254
vn -0.66952842 -0.12783682 -0.73170311
vn -0.76877493 0.03897477 -0.63833069
vn -0.94747639 0.09896716 -0.30412824
vn -0.91614833 -0.09103237 -0.39036566
vn -0.72179938 -0.24404405 -0.64764817
vn -0.85115102 -0.04479520 -0.52300605
vn -0.68195717 -0.37087391 -0.63038636
vn -0.72786368 -0.51057734 -0.45773926
vn -0.82997088 -0.26452425 -0.49109599
vn -0.73770719 -0.53835907 -0.40737897
vn -0.87083551 -0.34281667 -0.35230986
vn -0.58943456 -0.40796051 -0.69723391
vn -0.65637354 -0.64670825 -0.38851283
vn -0.55375259 -0.56693371 -0.60987231
vn -0.06498021 -0.79908642 -0.59769429
vn -0.32097429 -0.55063850 -0.77056651
vn 0.31194777 0.56860166 0.76117064
vn -0.04347904 -0.63448158 -0.77171413
vn -0.05334902 -0.83830287 -0.54258841
vn 0.39586455 0.67144986 0.62645538
vn -0.51837354 -0.58474704 -0.62398700
vn -0.16518624 -0.87411796 -0.45676175
vn 0.32082257 0.54322535 0.77587312
vn -0.04564088 -0.54255638 -0.83877857
vn 0.43990401 0.40058047 0.80375354
vn -0.03823423 -0.32733458 -0.94413464
vn 0.46920260 0.66168009 0.58483192
vn 0.45024649 0.46339699 0.76324395
vn -0.05358104 -0.88873139 -0.45528627
vn 0.50146066 0.67701768 0.53868754
vn 0.75717746 0.11006023 0.64387036
vn 0.71436024 0.37892850 0.58830488
vn 0.58021997 0.26388409 0.77052578
vn 0.57308834 0.42672320 0.69962638
vn 0.64836462 0.55721237 0.51878482
vn 0.82522120 0.18340837 0.53420158
vn 0.73319781 0.39221716 0.55550577
vn 0.81384546 0.42362651 0.39773878
vn 0.67425423 0.63345543 0.37962540
vn 0.70244127 0.70638312 0.08717308
vn 0.90011478 0.37259476 0.22575766
vn 0.79050921 0.58896431 0.16797687
vn 0.88568141 0.27150102 0.37663727
vn -0.04839620 -0.96402134 -0.26138221
vn 0.58250643 0.70626660 0.40233537
vn 0.61881751 0.74305976 0.25480793
vn -0.00482579 -0.99875893 -0.04957121
vn -0.57856274 -0.73385474 -0.35598088
vn -0.05797642 -0.96246114 -0.26515521
vn -0.63658465 -0.76620565 -0.08768630
vn -0.02430428 -0.99461231 0.10077529
vn -0.73466353 -0.65066008 0.19212225
vn -0.01035100 -0.92903822 0.36983893
vn -0.72526473 -0.68684317 0.04730241
vn -0.86263703 -0.46573690 -0.19734867
vn -0.70428377 -0.68116197 -0.20000684
vn 0.62180740 0.78276386 -0.02522480
vn 0.00727740 -0.98152322 0.19120461
vn -0.00523692 -0.92831281 0.37176322
vn 0.73501824 0.65868624 -0.16087454
vn 0.75716484 0.63196164 -0.16530544
vn 0.92336940 0.33175613 -0.19320152
vn -0.75162640 -0.58301186 0.30847192
vn -0.00801075 -0.85459939 0.51922607
vn 0.72265112 0.61278451 -0.31979759
vn 0.00240839 -0.86179669 0.50724812
vn 0.79412101 0.41317166 -0.44571404
vn 0.73226208 0.61267796 -0.29735156
vn 0.78500801 0.61894404 -0.02589765
vn 0.94363357 0.33070899 -0.01368420
vn 0.71992587 0.42096937 -0.55180751
vn 0.68627393 0.57854859 -0.44080564
vn -0.00179752 -0.75596905 0.65460489
vn 0.89230281 0.24491185 -0.37922802
vn 0.79246768 0.25552366 -0.55380740
vn 0.82699285 -0.08479268 -0.55578146
vn 0.59707604 0.17071695 -0.78380860
vn 0.74377898 0.20493280 -0.63623532
vn 0.55468318 0.24374427 -0.79555974
vn -0.02619333 -0.60865243 0.79300450
vn -0.00548505 -0.69930381 0.71480354
vn 0.69932669 0.38381127 -0.60301832
vn -0.03311436 -0.63004156 0.77585506
vn -0.67592125 -0.30074604 0.67281668
vn -0.33702312 -0.39464718 0.85479180
vn -0.01982906 0.00098684 0.99980290
vn -0.64847717 -0.58765647 0.48387729
vn -0.03314110 -0.63455783 0.77216451
vn -0.00897493 -0.76823999 0.64009903
vn -0.63628089 -0.45929517 0.61983431
vn -0.01413020 -0.60098152 0.79913800
vn 0.47305037 0.11583745 -0.87338711
vn 0.55877698 0.03854854 -0.82842157
vn 0.02464345 -0.36822016 0.92941197
vn 0.30398296 0.03910078 -0.95187472
vn 0.01258403 0.60528311 0.79591080
vn 0.40489524 0.00470611 -0.91435097
vn 0.00963624 0.71831912 0.69564703
vn -0.00789222 0.62310813 0.78209588
vn 0.29540571 0.02420405 -0.95506525
vn 0.03208645 -0.29314320 0.95552997
vn 0.01197617 0.59875940 0.80083940
vn 0.57834217 -0.13030342 -0.80532065
vn 0.07537519 0.67345106 0.73537898
vn 0.75816613 -0.09083541 -0.64570353
vn 0.62991627 -0.06864306 -0.77362369
vn 0.63322967 -0.20128034 -0.74733287
vn 0.02604924 0.65779503 0.75274639
vn 0.68697793 -0.34024514 -0.64210168
vn 0.71631451 -0.39697208 -0.57385251
vn 0.70939008 -0.58872938 -0.38750926
vn -0.00313082 0.84120307 0.54071026
vn 0.02515863 0.71293021 0.70078353
vn -0.72053795 0.66554939 0.19459978
vn -0.01655861 0.94347458 0.33103101
vn -0.55561988 0.33223669 0.76217145
vn -0.01026002 0.75218822 0.65886843
vn -0.68690442 0.45972761 0.56286130
vn -0.03877772 0.57744491 0.81550822
vn -0.72974085 0.59162307 0.34272501
vn -0.01122019 0.84788492 0.53006156
vn -0.80969695 0.44789132 0.37918890
vn -0.74802079 0.39818191 0.53095768
vn -0.85390872 0.48668747 0.18432364
vn -0.93978595 0.14142461 0.31112930
vn -0.87195733 0.08001080 0.48299967
vn -0.72796319 0.06152454 0.68285015
vn -0.96759146 0.25189557 0.01775920
vn -0.97558207 -0.09520351 0.19792909
vn -0.89212327 -0.23600800 0.38524835
vn -0.68158991 -0.38871718 0.61994689
vn -0.71672864 -0.59730902 0.35989165
vn -0.83039324 -0.33609061 0.44439867
vn -0.75336395 -0.62451060 0.20598365
vn -0.92850527 -0.32531554 0.17901888
vn -0.84862917 -0.15676189 0.50522692
vn -0.68979516 -0.10278599 0.71667125
vn -0.56607876 -0.04298500 0.82322969
vn -0.62688546 0.17222143 0.75983840
vn -0.75782979 0.26724992 0.59520710
vn -0.56286179 0.14583100 0.81358462
vn -0.04469499 0.56593403 0.82323814
vn -0.25155419 0.25154759 0.93458242
vn -0.24946078 -0.16911804 0.95350323
vn -0.77520438 -0.62508394 0.09125921
vn -0.92375366 -0.37868652 -0.05723361
vn -0.99414055 -0.10770480 -0.00917794
vn -0.93950712 -0.28328454 -0.19255189
vn -0.92883411 0.30713096 -0.20721430
vn -0.83260331 0.54694210 -0.08732738
vn -0.71269799 0.70132148 0.01448330
vn 0.92144039 -0.10186772 -0.37492743
vn 0.97560150 0.10427153 -0.19320757
vt 0.11233200 0.89964300
vt 0.11240000 0.90644300
vt 0.11553500 0.89276900
vt 0.11703300 0.90591400
vt 0.11204200 0.88893000
vt 0.08563900 0.89647700
vt 0.56528700 0.89631000
vt 0.08462000 0.90852100
vt 0.56603100 0.90837500
vt 0.57023600 0.92069300
vt 0.08009200 0.92070500
vt 0.56001000 0.89705800
vt 0.11078400 0.91636800
vt 0.56172200 0.90961800
vt 0.87754300 0.09450300
vt 0.55150300 0.90463900
vt 0.87802100 0.10448000
vt 0.55513900 0.91414700
vt 0.99799600 0.11720500
vt 0.56472500 0.92280800
vt 0.87384300 0.11202300
vt 0.55666600 0.92156300
vt 0.98966600 0.11210300
vt 0.86834000 0.10104500
vt 0.86074500 0.10890300
vt 0.86769400 0.11402800
vt 0.98267000 0.11221500
vt 0.86836100 0.09071300
vt 0.86147300 0.09465400
vt 0.85802200 0.08256600
vt 0.85406100 0.09318900
vt 0.85078100 0.10884900
vt 0.84632100 0.10120200
vt 0.84462800 0.12036200
vt 0.45954800 0.83816900
vt 0.83817800 0.10783600
vt 0.85622200 0.11873800
vt 0.97205000 0.11696500
vt 0.85187800 0.12320900
vt 0.97023900 0.12299400
vt 0.45852700 0.84575200
vt 0.97791800 0.12174600
vt 0.45801100 0.85351600
vt 0.98474200 0.12160100
vt 0.45879000 0.86030300
vt 0.43536800 0.86129200
vt 0.87251700 0.16149300
vt 0.43337300 0.85363400
vt 0.86550900 0.16084700
vt 0.85241800 0.16113800
vt 0.43376400 0.84025700
vt 0.99308400 0.12176900
vt 0.46056600 0.86857400
vt 0.08434500 0.92634800
vt 0.45869800 0.87447900
vt 0.07949100 0.92724200
vt 0.57061300 0.92729900
vt 0.99855800 0.12299400
vt 0.46312300 0.87386900
vt 0.43736700 0.86840000
vt 0.10890900 0.92508000
vt 0.87912400 0.16488000
vt 0.87875300 0.17223600
vt 0.11583000 0.92028800
vt 0.87276300 0.17128700
vt 0.86615400 0.17655300
vt 0.86299000 0.16647700
vt 0.12440500 0.91166400
vt 0.87578100 0.18375900
vt 0.12299600 0.90078900
vt 0.87912400 0.19289500
vt 0.86326000 0.19103000
vt 0.86673900 0.19678900
vt 0.12779900 0.90019100
vt 0.87329800 0.19554900
vt 0.12471900 0.88798000
vt 0.86580100 0.00213600
vt 0.87342400 0.20514200
vt 0.85863800 0.00000000
vt 0.86681800 0.20725000
vt 0.11939100 0.88770100
vt 0.86341100 0.00683300
vt 0.12143900 0.87918400
vt 0.87504200 0.01450000
vt 0.11136700 0.88028000
vt 0.56942600 0.87567500
vt 0.08187100 0.87567500
vt 0.88080300 0.04374100
vt 0.93081000 0.01648500
vt 0.11412300 0.87567500
vt 0.86836400 0.01356300
vt 0.57061300 0.88048700
vt 0.08062500 0.88049900
vt 0.56786400 0.88569900
vt 0.08328300 0.88579300
vt 0.92941400 0.02366000
vt 0.56334900 0.88011300
vt 0.87437100 0.04174100
vt 0.92433700 0.01678600
vt 0.87997500 0.08252500
vt 0.92657500 0.03499300
vt 0.55540100 0.89183900
vt 0.55595500 0.88146000
vt 0.92214100 0.02919600
vt 0.87423900 0.08215300
vt 0.91900700 0.03823000
vt 0.86796800 0.06970800
vt 0.91496800 0.02935200
vt 0.90442700 0.02364900
vt 0.86081100 0.07358400
vt 0.90557500 0.03406900
vt 0.86832400 0.08071200
vt 0.86786200 0.04026900
vt 0.91779100 0.01706500
vt 0.91002900 0.01729800
vt 0.86013600 0.03909400
vt 0.86164100 0.01200500
vt 0.86164100 0.01200500
vt 0.84911000 0.01334700
vt 0.84911000 0.01334700
vt 0.83877300 0.01278600
vt 0.83877300 0.01278600
vt 0.84579400 0.00790600
vt 0.85963100 0.21387200
vt 0.85235000 0.00457900
vt 0.90185900 0.01689800
vt 0.85195700 0.03901600
vt 0.84429500 0.03869700
vt 0.89415200 0.01733300
vt 0.89169200 0.02996600
vt 0.84639500 0.07338400
vt 0.83128200 0.01422200
vt 0.83128200 0.01422200
vt 0.88746800 0.01703900
vt 0.83760300 0.03948000
vt 0.83862200 0.07161600
vt 0.88585700 0.02347600
vt 0.89868100 0.03169800
vt 0.85361600 0.07219000
vt 0.83205300 0.07063900
vt 0.88159200 0.01648500
vt 0.83169700 0.04091500
vt 0.83897900 0.08085100
vt 0.83202600 0.08116600
vt 0.83215300 0.09379400
vt 0.98134200 0.55244800
vt 0.82585000 0.08355800
vt 0.97465100 0.54964400
vt 0.85743900 0.77232700
vt 0.82505900 0.04374100
vt 0.82505900 0.07769900
vt 0.83135800 0.78011300
vt 0.83135800 0.78011300
vt 0.83621900 0.78448000
vt 0.86464400 0.78505100
vt 0.82548100 0.01547100
vt 0.82902800 0.77361900
vt 0.82548100 0.01547100
vt 0.82902800 0.77361900
vt 0.86461200 0.77857400
vt 0.97538200 0.55912500
vt 0.98113700 0.55999200
vt 0.87634800 0.78086100
vt 0.97026200 0.56996400
vt 0.87041200 0.78742800
vt 0.97909800 0.56902600
vt 0.46291300 0.81798200
vt 0.85639300 0.80198900
vt 0.97023900 0.57153400
vt 0.87762700 0.78177000
vt 0.87762700 0.78177000
vt 0.98611400 0.56903200
vt 0.86632500 0.79306300
vt 0.82593600 0.09388400
vt 0.98868400 0.56007600
vt 0.99254200 0.57153400
vt 0.86461200 0.79967700
vt 0.82505900 0.10568700
vt 0.83159000 0.10673600
vt 0.83573300 0.11603100
vt 0.46312300 0.82971100
vt 0.86612500 0.81020100
vt 0.84339400 0.16342600
vt 0.43585500 0.83137400
vt 0.83927100 0.81020100
vt 0.44399500 0.81609000
vt 0.82710400 0.17373500
vt 0.83927100 0.81020100
vt 0.83619000 0.16676300
vt 0.43854200 0.82445400
vt 0.83717200 0.17726600
vt 0.83056400 0.17776200
vt 0.84431600 0.17682500
vt 0.83980100 0.18976400
vt 0.83066300 0.19067400
vt 0.82744200 0.79795000
vt 0.85157200 0.18521400
vt 0.84437100 0.19842600
vt 0.83742100 0.20268600
vt 0.82505800 0.77817900
vt 0.82688500 0.00985700
vt 0.83371200 0.20764300
vt 0.83702900 0.00296700
vt 0.84502600 0.20937800
vt 0.82722500 0.19607500
vt 0.82829000 0.79039900
vt 0.83630000 0.79056800
vt 0.83446000 0.80199200
vt 0.82505900 0.18316200
vt 0.84040800 0.79958100
vt 0.84040800 0.79958100
vt 0.84410700 0.79360100
vt 0.84336400 0.78925500
vt 0.84405500 0.00133100
vt 0.85222300 0.21051600
vt 0.85185200 0.19930800
vt 0.85949700 0.20429900
vt 0.85903200 0.18373100
vt 0.85479300 0.17368100
vt 0.85141700 0.16626500
vt 0.83932400 0.09416300
vt 0.84647500 0.08649100
f 2/2/2 1/1/1 4/4/4
f 2/2/2 8/8/8 1/1/1
f 1/1/1 3/3/3 4/4/4
f 5/5/5 3/3/3 1/1/1
f 5/5/5 1/1/1 6/6/6
f 8/8/8 6/6/6 1/1/1
f 9/9/9 10/10/10 14/14/14
f 13/13/13 11/11/11 8/8/8
f 8/8/8 2/2/2 13/13/13
f 7/7/7 9/9/9 12/12/12
f 12/12/12 9/9/9 14/14/14
f 18/18/18 14/14/14 10/10/10
f 14/14/14 16/16/16 12/12/12
f 14/14/14 18/18/18 16/16/16
f 22/22/22 18/18/18 20/20/20
f 18/18/18 10/10/10 20/20/20
f 17/17/17 24/24/24 15/15/15
f 21/21/21 24/24/24 17/17/17
f 15/15/15 24/24/24 28/28/28
f 24/24/24 25/25/25 29/29/29
f 26/26/26 25/25/25 24/24/24
f 21/21/21 26/26/26 24/24/24
f 24/24/24 29/29/29 28/28/28
f 28/28/28 29/29/29 30/30/30
f 30/30/30 29/29/29 31/31/31
f 29/29/29 32/32/32 31/31/31
f 29/29/29 25/25/25 32/32/32
f 25/25/25 37/37/37 32/32/32
f 32/32/32 33/33/33 31/31/31
f 32/32/32 36/36/36 33/33/33
f 37/37/37 34/34/34 32/32/32
f 36/36/36 32/32/32 34/34/34
f 26/26/26 37/37/37 25/25/25
f 38/38/38 27/27/27 44/44/44
f 42/42/42 40/40/40 38/38/38
f 39/39/39 34/34/34 37/37/37
f 38/38/38 44/44/44 42/42/42
f 48/48/48 45/45/45 46/46/46
f 45/45/45 53/53/53 46/46/46
f 27/27/27 52/52/52 44/44/44
f 45/45/45 48/48/48 51/51/51
f 51/51/51 43/43/43 45/45/45
f 46/46/46 53/53/53 55/55/55
f 59/59/59 55/55/55 53/53/53
f 52/52/52 19/19/19 58/58/58
f 27/27/27 23/23/23 52/52/52
f 19/19/19 52/52/52 23/23/23
f 10/10/10 57/57/57 20/20/20
f 54/54/54 56/56/56 11/11/11
f 61/61/61 54/54/54 11/11/11
f 46/46/46 55/55/55 60/60/60
f 13/13/13 61/61/61 11/11/11
f 64/64/64 61/61/61 13/13/13
f 62/62/62 63/63/63 65/65/65
f 62/62/62 65/65/65 47/47/47
f 69/69/69 65/65/65 63/63/63
f 65/65/65 66/66/66 67/67/67
f 66/66/66 65/65/65 69/69/69
f 49/49/49 47/47/47 65/65/65
f 49/49/49 65/65/65 67/67/67
f 64/64/64 4/4/4 68/68/68
f 4/4/4 70/70/70 68/68/68
f 75/75/75 69/69/69 71/71/71
f 69/69/69 72/72/72 66/66/66
f 69/69/69 73/73/73 72/72/72
f 69/69/69 75/75/75 73/73/73
f 81/81/81 76/76/76 74/74/74
f 75/75/75 78/78/78 80/80/80
f 81/81/81 74/74/74 70/70/70
f 75/75/75 80/80/80 73/73/73
f 5/5/5 85/85/85 81/81/81
f 81/81/81 3/3/3 5/5/5
f 81/81/81 83/83/83 76/76/76
f 85/85/85 83/83/83 81/81/81
f 3/3/3 81/81/81 70/70/70
f 85/85/85 93/93/93 87/87/87
f 91/91/91 84/84/84 88/88/88
f 85/85/85 90/90/90 83/83/83
f 5/5/5 93/93/93 85/85/85
f 92/92/92 94/94/94 97/97/97
f 5/5/5 95/95/95 93/93/93
f 97/97/97 86/86/86 92/92/92
f 104/104/104 99/99/99 96/96/96
f 96/96/96 99/99/99 89/89/89
f 97/97/97 94/94/94 102/102/102
f 103/103/103 97/97/97 102/102/102
f 101/101/101 106/106/106 104/104/104
f 106/106/106 108/108/108 104/104/104
f 99/99/99 104/104/104 108/108/108
f 108/108/108 111/111/111 109/109/109
f 114/114/114 108/108/108 109/109/109
f 107/107/107 112/112/112 110/110/110
f 105/105/105 112/112/112 107/107/107
f 99/99/99 108/108/108 114/114/114
f 120/120/120 113/113/113 116/116/116
f 114/114/114 109/109/109 115/115/115
f 120/120/120 118/118/118 113/113/113
f 118/118/118 91/91/91 113/113/113
f 113/113/113 91/91/91 98/98/98
f 122/122/122 120/120/120 128/128/128
f 121/121/121 123/123/123 119/119/119
f 125/125/125 119/119/119 123/123/123
f 125/125/125 117/117/117 119/119/119
f 120/120/120 127/127/127 128/128/128
f 120/120/120 116/116/116 127/127/127
f 109/109/109 129/129/129 126/126/126
f 138/138/138 129/129/129 109/109/109
f 138/138/138 130/130/130 129/129/129
f 129/129/129 130/130/130 137/137/137
f 128/128/128 133/133/133 122/122/122
f 133/133/133 128/128/128 135/135/135
f 129/129/129 137/137/137 134/134/134
f 30/30/30 131/131/131 139/139/139
f 109/109/109 111/111/111 138/138/138
f 110/110/110 30/30/30 139/139/139
f 141/141/141 134/134/134 137/137/137
f 136/136/136 144/144/144 140/140/140
f 131/131/131 143/143/143 136/136/136
f 136/136/136 143/143/143 144/144/144
f 147/147/147 144/144/144 145/145/145
f 143/143/143 145/145/145 144/144/144
f 151/151/151 140/140/140 144/144/144
f 147/147/147 151/151/151 144/144/144
f 142/142/142 150/150/150 158/158/158
f 152/152/152 157/157/157 149/149/149
f 152/152/152 149/149/149 154/154/154
f 154/154/154 149/149/149 155/155/155
f 155/155/155 149/149/149 160/160/160
f 146/146/146 161/161/161 148/148/148
f 161/161/161 146/146/146 162/162/162
f 161/161/161 162/162/162 166/166/166
f 164/164/164 161/161/161 166/166/166
f 155/155/155 160/160/160 163/163/163
f 168/168/168 155/155/155 165/165/165
f 165/165/165 155/155/155 171/171/171
f 164/164/164 166/166/166 169/169/169
f 168/168/168 165/165/165 173/173/173
f 172/172/172 166/166/166 162/162/162
f 175/175/175 172/172/172 162/162/162
f 176/176/176 172/172/172 175/175/175
f 173/173/173 177/177/177 168/168/168
f 145/145/145 178/178/178 174/174/174
f 179/179/179 180/180/180 178/178/178
f 145/145/145 179/179/179 178/178/178
f 182/182/182 168/168/168 177/177/177
f 181/181/181 35/35/35 184/184/184
f 36/36/36 34/34/34 180/180/180
f 36/36/36 180/180/180 179/179/179
f 186/186/186 167/167/167 181/181/181
f 181/181/181 184/184/184 190/190/190
f 181/181/181 190/190/190 186/186/186
f 191/191/191 187/187/187 189/189/189
f 191/191/191 189/189/189 183/183/183
f 191/191/191 192/192/192 187/187/187
f 194/194/194 192/192/192 191/191/191
f 191/191/191 193/193/193 194/194/194
f 191/191/191 183/183/183 193/193/193
f 194/194/194 195/195/195 192/192/192
f 199/199/199 195/195/195 194/194/194
f 197/197/197 194/194/194 193/193/193
f 197/197/197 198/198/198 194/194/194
f 198/198/198 199/199/199 194/194/194
f 205/205/205 199/199/199 202/202/202
f 204/204/204 202/202/202 199/199/199
f 198/198/198 204/204/204 199/199/199
f 199/199/199 205/205/205 195/195/195
f 208/208/208 206/206/206 207/207/207
f 206/206/206 154/154/154 207/207/207
f 153/153/153 206/206/206 200/200/200
f 208/208/208 196/196/196 206/206/206
f 206/206/206 153/153/153 154/154/154
f 208/208/208 210/210/210 185/185/185
f 192/192/192 209/209/209 187/187/187
f 209/209/209 192/192/192 195/195/195
f 208/208/208 207/207/207 210/210/210
f 188/188/188 211/211/211 155/155/155
f 211/211/211 212/212/212 155/155/155
f 207/207/207 212/212/212 210/210/210
f 212/212/212 213/213/213 155/155/155
f 207/207/207 213/213/213 212/212/212
f 213/213/213 207/207/207 154/154/154
f 213/213/213 154/154/154 155/155/155
f 216/216/216 215/215/215 204/204/204
f 214/214/214 121/121/121 203/203/203
f 201/201/201 203/203/203 121/121/121
f 216/216/216 204/204/204 198/198/198
f 217/217/217 215/215/215 216/216/216
f 197/197/197 216/216/216 198/198/198
f 72/72/72 216/216/216 197/197/197
f 216/216/216 72/72/72 217/217/217
f 73/73/73 217/217/217 72/72/72
f 217/217/217 73/73/73 80/80/80
f 80/80/80 124/124/124 217/217/217
f 124/124/124 215/215/215 217/217/217
f 214/214/214 123/123/123 121/121/121
f 214/214/214 125/125/125 123/123/123
f 156/156/156 201/201/201 132/132/132
f 201/201/201 121/121/121 132/132/132
f 159/159/159 153/153/153 200/200/200
f 219/219/219 218/218/218 197/197/197
f 72/72/72 197/197/197 218/218/218
f 193/193/193 219/219/219 197/197/197
f 66/66/66 218/218/218 219/219/219
f 193/193/193 220/220/220 219/219/219
f 67/67/67 66/66/66 219/219/219
f 219/219/219 220/220/220 67/67/67
f 193/193/193 183/183/183 220/220/220
f 220/220/220 183/183/183 50/50/50
f 67/67/67 220/220/220 50/50/50
f 72/72/72 218/218/218 66/66/66
f 168/168/168 188/188/188 155/155/155
f 184/184/184 35/35/35 41/41/41
f 184/184/184 41/41/41 51/51/51
f 36/36/36 179/179/179 145/145/145
f 162/162/162 146/146/146 175/175/175
f 147/147/147 145/145/145 174/174/174
f 155/155/155 163/163/163 170/170/170
f 158/158/158 133/133/133 142/142/142
f 143/143/143 221/221/221 145/145/145
f 36/36/36 145/145/145 221/221/221
f 33/33/33 36/36/36 221/221/221
f 222/222/222 221/221/221 143/143/143
f 33/33/33 221/221/221 222/222/222
f 30/30/30 222/222/222 131/131/131
f 222/222/222 143/143/143 131/131/131
f 31/31/31 33/33/33 222/222/222
f 31/31/31 222/222/222 30/30/30
f 133/133/133 135/135/135 142/142/142
f 109/109/109 126/126/126 115/115/115
f 125/125/125 79/79/79 82/82/82
f 117/117/117 125/125/125 82/82/82
f 91/91/91 117/117/117 82/82/82
f 105/105/105 28/28/28 112/112/112
f 28/28/28 30/30/30 112/112/112
f 112/112/112 30/30/30 110/110/110
f 100/100/100 15/15/15 105/105/105
f 105/105/105 15/15/15 28/28/28
f 102/102/102 94/94/94 12/12/12
f 12/12/12 16/16/16 102/102/102
f 91/91/91 88/88/88 98/98/98
f 6/6/6 95/95/95 5/5/5
f 12/12/12 94/94/94 7/7/7
f 77/77/77 82/82/82 79/79/79
f 3/3/3 70/70/70 4/4/4
f 49/49/49 67/67/67 50/50/50
f 64/64/64 13/13/13 4/4/4
f 51/51/51 41/41/41 43/43/43
f 2/2/2 4/4/4 13/13/13

