# ('FARMS composite mesh',)
mtllib link_leg_0_R_1_composite.mtl
usemtl link_leg_0_R_1_composite
v -1.62070300 7.90973500 1.27271000
v -1.38322300 7.85072100 -0.62577700
v -1.20795700 7.70175000 -1.31983100
v 1.18901500 8.16808100 -1.26797300
v 1.77346900 8.27466000 -0.78154600
v -0.38239900 8.36457600 0.17111300
v 2.03102600 8.29251700 -0.07042200
v 1.57145400 8.39678000 0.43793400
v -0.47027100 8.26957500 1.42383500
v 0.31228000 8.43871500 1.20456000
v -1.96857300 7.68211100 0.06908600
v -2.08157600 7.68404200 0.70807700
v 0.12829600 2.82623500 -1.83664300
v 1.52673400 4.89562000 -1.68277900
v 1.52673400 4.89562000 -1.68277900
v -1.58690900 4.20805200 -1.50052000
v -1.58690900 4.20805200 -1.50052000
v -1.58690900 4.20805200 -1.50052000
v 0.17162700 1.08505400 -1.09229700
v 0.94395800 2.01799200 -1.22952600
v 0.94395800 2.01799200 -1.22952600
v -0.51453000 1.45459500 -1.19260800
v -0.27505900 0.33907900 -0.47123600
v -0.27505900 0.33907900 -0.47123600
v -1.00015200 1.35897600 -0.80205200
v -1.00015200 1.35897600 -0.80205200
v -1.00015200 1.35897600 -0.80205200
v -1.52408200 2.06233000 -0.26364000
v -1.91369900 3.95006300 -0.87159800
v -1.91369900 3.95006300 -0.87159800
v -0.67746300 0.45362800 0.00263700
v -0.67746300 0.45362800 0.00263700
v 0.03343600 0.09361300 -0.01770000
v 0.03343600 0.09361300 -0.01770000
v 0.03343600 0.09361300 -0.01770000
v -0.33035300 0.47527300 0.63985600
v -0.33035300 0.47527300 0.63985600
v -1.29821300 1.62218500 0.55767800
v -1.29821300 1.62218500 0.55767800
v -0.93109100 1.66720400 1.07370700
v -0.93109100 1.66720400 1.07370700
v -0.93109100 1.66720400 1.07370700
v -2.08176300 4.06930700 0.27642500
v -2.08176300 4.06930700 0.27642500
v -1.87801300 3.93322900 0.83900600
v -1.87801300 3.93322900 0.83900600
v -1.43483700 3.58227300 1.40341200
v -1.43483700 3.58227300 1.40341200
v -1.43483700 3.58227300 1.40341200
v -1.43483700 3.58227300 1.40341200
v -0.68099900 4.90145700 1.30991900
v -0.21740700 2.80581500 1.78905500
v -0.21740700 2.80581500 1.78905500
v 0.17088400 4.16929400 1.33753900
v -1.23594200 4.98282100 1.01795000
v -1.23594200 4.98282100 1.01795000
v -1.62193200 6.84572000 0.93046200
v -1.62193200 6.84572000 0.93046200
v -1.62070300 7.90973500 1.27271000
v -1.62070300 7.90973500 1.27271000
v -1.62070300 7.90973500 1.27271000
v -1.54828900 5.01126700 0.60652600
v -1.76816800 6.88998900 0.17103900
v -1.76816800 6.88998900 0.17103900
v -1.76816800 6.88998900 0.17103900
v -2.05234800 4.00626500 -0.36109300
v -2.05234800 4.00626500 -0.36109300
v -1.64203500 5.22517200 -0.25425500
v -1.30989000 6.15253300 -0.70542500
v -1.38322300 7.85072100 -0.62577700
v -1.38322300 7.85072100 -0.62577700
v -1.21654000 6.75513300 -1.26172000
v -1.21654000 6.75513300 -1.26172000
v -1.15221300 7.27284000 -1.27511400
v -1.15221300 7.27284000 -1.27511400
v -1.20795700 7.70175000 -1.31983100
v -1.20795700 7.70175000 -1.31983100
v 1.18901500 8.16808100 -1.26797300
v 1.97525800 6.74771000 -1.05961100
v 1.97525800 6.74771000 -1.05961100
v 1.77346900 8.27466000 -0.78154600
v 1.77346900 8.27466000 -0.78154600
v 1.76467900 5.80906200 -1.41811700
v 1.76467900 5.80906200 -1.41811700
v 2.07623700 4.95979200 -1.00809800
v 2.29234400 6.73727300 -0.34270200
v 2.29234400 6.73727300 -0.34270200
v 2.03102600 8.29251700 -0.07042200
v 2.03102600 8.29251700 -0.07042200
v 2.05112100 5.27213900 -0.24317200
v 2.05112100 5.27213900 -0.24317200
v 2.01409600 7.17498600 0.35229800
v 2.01409600 7.17498600 0.35229800
v 1.57145400 8.39678000 0.43793400
v 1.57145400 8.39678000 0.43793400
v 0.28970100 7.79343200 1.40935900
v 1.06789800 5.01531800 0.84640100
v 1.06789800 5.01531800 0.84640100
v 1.06789800 5.01531800 0.84640100
v 0.95368600 2.70518700 1.44334400
v 0.95368600 2.70518700 1.44334400
v 1.82627900 3.14730300 0.43464000
v 1.82627900 3.14730300 0.43464000
v 1.82627900 3.14730300 0.43464000
v 1.97433100 3.71345000 -0.14686400
v 1.97433100 3.71345000 -0.14686400
v 1.97433100 3.71345000 -0.14686400
v 1.49052100 2.16790600 -0.57303800
v 1.17609800 1.13596500 0.10225300
v 0.55879600 0.55002800 -0.52621600
v 0.55879600 0.55002800 -0.52621600
v 0.55879600 0.55002800 -0.52621600
v 0.85406100 0.72330100 0.46145800
v 0.85406100 0.72330100 0.46145800
v 0.85406100 0.72330100 0.46145800
v 0.85406100 0.72330100 0.46145800
v 0.85406100 0.72330100 0.46145800
v 0.13741700 0.20268100 0.36089100
v 0.13741700 0.20268100 0.36089100
v 0.13741700 0.20268100 0.36089100
v 0.13741700 0.20268100 0.36089100
v 1.45879800 2.94060000 0.97002200
v 1.45879800 2.94060000 0.97002200
v 1.45879800 2.94060000 0.97002200
v 1.45879800 2.94060000 0.97002200
v 0.23975000 1.03616700 1.13153300
v 0.23975000 1.03616700 1.13153300
v 0.23975000 1.03616700 1.13153300
v 0.23975000 1.03616700 1.13153300
v 0.23975000 1.03616700 1.13153300
v -0.47027100 8.26957500 1.42383500
v 0.31228000 8.43871500 1.20456000
v -1.96857300 7.68211100 0.06908600
v -1.96857300 7.68211100 0.06908600
v -2.08157600 7.68404200 0.70807700
v -2.08157600 7.68404200 0.70807700
vn -0.35909361 0.93298513 -0.02430086
vn -0.32134145 0.92686035 -0.19408650
vn -0.21265225 0.93114900 -0.29621032
vn -0.08086424 0.97191413 -0.22100657
vn 0.00852477 0.99236863 -0.12301151
vn -0.19964121 0.97297726 -0.11601139
vn 0.14032808 0.98721351 -0.07561431
vn 0.00353001 0.99507490 -0.09906307
vn -0.25610373 0.96507065 0.05522241
vn -0.08633740 0.99604808 -0.02083455
vn -0.38598635 0.91924663 -0.07746081
vn -0.37009204 0.92648472 -0.06824909
vn 0.02244000 -0.18494358 -0.98249291
vn 0.05072580 0.07373568 -0.99598692
vn 0.77304472 -0.15657720 -0.61472388
vn -0.18137028 0.01393982 -0.98331607
vn -0.79344438 -0.29405021 -0.53289821
vn -0.92574354 0.28416858 -0.24949370
vn 0.13017179 -0.52335395 -0.84211397
vn 0.75637148 -0.35244033 -0.55107894
vn 0.36066229 -0.34585333 -0.86620332
vn -0.33674599 -0.42053357 -0.84246878
vn -0.35658431 -0.84161726 -0.40562054
vn -0.11272820 -0.63069445 -0.76780001
vn -0.66948338 -0.61235773 -0.42048782
vn -0.85662580 -0.42996034 -0.28517775
vn -0.51254652 -0.43079003 -0.74277588
vn -0.92218734 -0.35357046 -0.15671135
vn -0.89149437 0.33668761 -0.30311590
vn -0.86865514 -0.28798308 -0.40311785
vn -0.87259143 -0.47678618 -0.10610907
vn -0.63679489 -0.77017899 0.03628491
vn -0.41399979 -0.89976964 0.13790856
vn 0.16928028 -0.81397401 -0.55568922
vn 0.60817508 -0.79380132 0.00159340
vn -0.57066134 -0.72974268 0.37659163
vn -0.09776741 -0.59798096 0.79552517
vn -0.89757423 -0.37253606 0.23574856
vn -0.68334809 -0.54158454 0.48961369
vn -0.31518002 -0.37354799 0.87242389
vn -0.76492201 -0.29939470 0.57031319
vn -0.66970977 -0.52771939 0.52249504
vn -0.95509224 -0.27038355 0.12120871
vn -0.88090719 0.46028598 0.11017869
vn -0.75575104 0.32181090 0.57033158
vn -0.89559979 -0.26792114 0.35513276
vn -0.11838897 0.23936254 0.96368544
vn -0.65976536 0.28505863 0.69530659
vn -0.82240170 -0.27274544 0.49926484
vn -0.44000936 -0.26353569 0.85845250
vn -0.19280282 0.03922649 0.98045314
vn -0.37952576 -0.30981168 0.87176655
vn 0.16304695 0.10718939 0.98077833
vn 0.17817099 0.15004492 0.97249248
vn -0.77517395 0.11654641 0.62090440
vn -0.45815763 0.05799211 0.88697717
vn -0.71313683 -0.21391166 0.66759094
vn -0.91541778 -0.19953294 0.34956673
vn -0.71313683 -0.21391166 0.66759094
vn -0.85998944 -0.15536026 0.48608780
vn -0.16317743 -0.03877852 0.98583434
vn -0.91406574 0.14852148 0.37739263
vn -0.70542823 -0.26317622 -0.65811039
vn -0.88331146 0.00815000 -0.46871574
vn -0.96725628 -0.23654373 0.09199101
vn -0.95695433 -0.26588710 -0.11637211
vn -0.91513116 0.37786778 -0.14053788
vn -0.97990088 0.16681638 -0.10939174
vn -0.95969113 0.09068854 -0.26602354
vn -0.94146159 -0.03298052 -0.33550314
vn -0.70542823 -0.26317622 -0.65811039
vn -0.98042262 0.03734177 -0.19333154
vn -0.12968558 0.03307736 -0.99100330
vn -0.04295751 -0.00142346 -0.99907589
vn -0.93379497 0.02756911 -0.35674486
vn 0.04065200 -0.09838152 -0.99431810
vn -0.96599476 -0.14767480 -0.21224109
vn 0.30973949 0.16495227 -0.93640387
vn 0.56080105 0.19229469 -0.80531046
vn 0.91353369 0.05312566 -0.40327890
vn 0.91219204 0.20690987 -0.35368628
vn 0.60017471 0.21938803 -0.76919387
vn 0.43014861 0.16149858 -0.88819501
vn 0.85201553 0.02967112 -0.52267501
vn 0.93306722 -0.10762891 -0.34322234
vn 0.90486279 0.11734313 -0.40921135
vn 0.92992996 -0.06687753 0.36160430
vn 0.81369441 0.19483532 0.54766833
vn 0.91690131 0.21313727 -0.33743812
vn 0.94852025 -0.13939733 0.28439009
vn 0.74182813 0.00488647 0.67057226
vn 0.53261769 0.04009728 0.84540559
vn 0.89163744 0.02653205 0.45197204
vn 0.74521865 0.22601304 0.62734939
vn 0.54553955 0.16425214 0.82183200
vn 0.29608786 0.09328346 0.95059464
vn 0.50873896 0.04652757 0.85966264
vn 0.80105842 -0.05712548 0.59585409
vn 0.74182813 0.00488647 0.67057226
vn 0.38440466 0.04271541 0.92217593
vn 0.71787957 -0.41192671 0.56121770
vn 0.77642434 0.18223359 0.60328779
vn 0.93865940 -0.31551453 0.13917294
vn 0.85459548 0.24616198 0.45724266
vn 0.96483997 -0.22419992 -0.13717954
vn 0.74182813 0.00488647 0.67057226
vn 0.85459548 0.24616198 0.45724266
vn 0.88270780 -0.33671612 -0.32779443
vn 0.88201772 -0.47098260 0.01483700
vn 0.24634592 -0.61460914 -0.74937928
vn 0.77973466 -0.54046456 -0.31608846
vn 0.48905025 -0.83688076 -0.24588704
vn 0.61313952 -0.33167200 0.71697533
vn 0.38196608 -0.65225575 0.65472464
vn 0.61420847 -0.78900031 -0.01504889
vn 0.73826998 -0.66647324 -0.10378269
vn 0.85287843 -0.33766650 0.39822070
vn -0.31296365 -0.88632404 0.34129671
vn 0.03928331 -0.68095602 0.73126994
vn 0.57921198 -0.81174053 0.07477165
vn 0.38196608 -0.65225575 0.65472464
vn 0.69741490 0.17284251 0.69551271
vn 0.61313952 -0.33167200 0.71697533
vn 0.83300781 -0.32918284 0.44467588
vn 0.71787957 -0.41192671 0.56121770
vn 0.71787957 -0.41192671 0.56121770
vn 0.38196608 -0.65225575 0.65472464
vn 0.61313952 -0.33167200 0.71697533
vn -0.21248155 -0.48709584 0.84710639
vn 0.24959827 -0.27995215 0.92699919
vn 0.00357476 0.05473836 0.99849433
vn 0.38453535 0.26699770 0.88365423
vn -0.70542823 -0.26317622 -0.65811039
vn -0.95045843 -0.26199581 -0.16729303
vn -0.93564522 -0.35201624 -0.02554595
vn -0.71313683 -0.21391166 0.66759094
vt 0.00067151 0.00205907
vt 0.00067151 0.00205599
vt 0.00067151 0.00205487
vt 0.00067151 0.00205487
vt 0.00067151 0.00205564
vt 0.00067151 0.00205723
vt 0.00067151 0.00205678
vt 0.00067151 0.00205761
vt 0.00067151 0.00205927
vt 0.00067151 0.00205889
vt 0.00067151 0.00205714
vt 0.00067151 0.00205818
vt 0.42271005 0.26195217
vt 0.43003648 0.26582928
vt 0.27757096 0.45317525
vt 0.42663464 0.25580517
vt 0.45290880 0.43338192
vt 0.45290880 0.43338192
vt 0.41693837 0.26274878
vt 0.27728060 0.44334506
vt 0.42030373 0.26495770
vt 0.41791640 0.26034695
vt 0.07855618 0.49029212
vt 0.41428167 0.26156486
vt 0.07797546 0.49296232
vt 0.44493270 0.43137091
vt 0.41740465 0.25879271
vt 0.44635500 0.42949032
vt 0.45164942 0.43130444
vt 0.45164942 0.43130444
vt 0.44253437 0.42880466
vt 0.08033081 0.49138009
vt 0.07985305 0.48901674
vt 0.07985305 0.48901674
vt 0.07985305 0.48901674
vt 0.08224488 0.48991481
vt 0.41524520 0.16718447
vt 0.44524854 0.42681813
vt 0.08262019 0.49326717
vt 0.41927373 0.16901507
vt 0.44582876 0.42511846
vt 0.08412946 0.49180188
vt 0.45171089 0.42747431
vt 0.45171089 0.42747431
vt 0.45152198 0.42563021
vt 0.45152198 0.42563021
vt 0.42569060 0.17041889
vt 0.45099024 0.42381210
vt 0.45099024 0.42381210
vt 0.42569060 0.17041889
vt 0.42996251 0.16772920
vt 0.42293145 0.16649580
vt 0.42293145 0.16649580
vt 0.42741176 0.16500753
vt 0.45555201 0.42496354
vt 0.43031884 0.16955431
vt 0.35267677 0.48615414
vt 0.46073798 0.42505249
vt 0.35420752 0.48932859
vt 0.46396190 0.42381210
vt 0.44007757 0.17041889
vt 0.45525965 0.42631138
vt 0.33222976 0.48615414
vt 0.46073648 0.42756177
vt 0.46073648 0.42756177
vt 0.45160294 0.42959777
vt 0.45160294 0.42959777
vt 0.45585136 0.42914299
vt 0.45914825 0.43056480
vt 0.46422877 0.43013051
vt 0.33222976 0.48962495
vt 0.46114878 0.43235642
vt 0.43516297 0.25611952
vt 0.43689562 0.25614501
vt 0.46281396 0.43235343
vt 0.43829344 0.25580517
vt 0.46405286 0.43245688
vt 0.44069427 0.26355139
vt 0.43627793 0.26666587
vt 0.27472735 0.45917882
vt 0.27336701 0.46398797
vt 0.44123051 0.26545996
vt 0.43312297 0.26629555
vt 0.27630208 0.45615980
vt 0.27513165 0.45334767
vt 0.27226055 0.45899641
vt 0.27226055 0.45899641
vt 0.27093170 0.46387653
vt 0.27093170 0.46387653
vt 0.27252342 0.45406432
vt 0.22554287 0.49024165
vt 0.43714700 0.15845023
vt 0.26993219 0.46004790
vt 0.26939645 0.46383505
vt 0.44126099 0.15974660
vt 0.43941639 0.16409947
vt 0.43010344 0.16190355
vt 0.26939645 0.45240463
vt 0.22235293 0.49140858
vt 0.42244019 0.16261970
vt 0.13826401 0.49192133
vt 0.42380902 0.15964665
vt 0.27110712 0.44675639
vt 0.27110712 0.44675639
vt 0.27276830 0.44889385
vt 0.22235293 0.48615414
vt 0.27276830 0.44889385
vt 0.27487328 0.44380333
vt 0.27312513 0.44003767
vt 0.41528118 0.26423955
vt 0.27561541 0.43811211
vt 0.07797546 0.48761243
vt 0.06401229 0.48615414
vt 0.08108444 0.48615414
vt 0.08108444 0.48615414
vt 0.27220508 0.43841746
vt 0.27220508 0.43841746
vt 0.08105496 0.48849300
vt 0.41428117 0.16566721
vt 0.08105496 0.48849300
vt 0.08105496 0.48849300
vt 0.42316133 0.16090353
vt 0.06252501 0.49362449
vt 0.26955537 0.44572389
vt 0.13964384 0.49296781
vt 0.13964384 0.48615414
vt 0.08363720 0.48785881
vt 0.06172240 0.48615414
vt 0.41701234 0.16522093
vt 0.41701234 0.16522093
vt 0.44110407 0.16655327
vt 0.44155935 0.16392956
vt 0.33380599 0.48837006
vt 0.46289842 0.42781314
vt 0.46271101 0.42568668
vt 0.35251734 0.48932859
f 6/6/6 5/5/5 4/4/4
f 3/3/3 6/6/6 4/4/4
f 6/6/6 9/9/9 10/10/10
f 10/10/10 8/8/8 5/5/5
f 5/5/5 6/6/6 10/10/10
f 1/1/1 9/9/9 6/6/6
f 5/5/5 8/8/8 7/7/7
f 1/1/1 6/6/6 11/11/11
f 3/3/3 2/2/2 6/6/6
f 6/6/6 2/2/2 11/11/11
f 12/12/12 1/1/1 11/11/11
f 13/13/13 16/16/16 14/14/14
f 21/21/21 13/13/13 14/14/14
f 22/22/22 16/16/16 13/13/13
f 21/21/21 19/19/19 13/13/13
f 22/22/22 13/13/13 19/19/19
f 27/27/27 16/16/16 22/22/22
f 19/19/19 24/24/24 22/22/22
f 24/24/24 27/27/27 22/22/22
f 17/17/17 26/26/26 30/30/30
f 30/30/30 26/26/26 28/28/28
f 31/31/31 28/28/28 26/26/26
f 23/23/23 32/32/32 25/25/25
f 33/33/33 32/32/32 23/23/23
f 33/33/33 36/36/36 32/32/32
f 31/31/31 38/38/38 28/28/28
f 36/36/36 39/39/39 32/32/32
f 39/39/39 36/36/36 42/42/42
f 49/49/49 38/38/38 41/41/41
f 43/43/43 38/38/38 46/46/46
f 43/43/43 28/28/28 38/38/38
f 46/46/46 38/38/38 49/49/49
f 51/51/51 47/47/47 54/54/54
f 56/56/56 47/47/47 51/51/51
f 55/55/55 45/45/45 48/48/48
f 50/50/50 40/40/40 52/52/52
f 53/53/53 54/54/54 47/47/47
f 55/55/55 60/60/60 58/58/58
f 62/62/62 55/55/55 58/58/58
f 61/61/61 56/56/56 51/51/51
f 45/45/45 55/55/55 62/62/62
f 65/65/65 62/62/62 58/58/58
f 62/62/62 65/65/65 68/68/68
f 62/62/62 67/67/67 44/44/44
f 45/45/45 62/62/62 44/44/44
f 62/62/62 68/68/68 67/67/67
f 29/29/29 67/67/67 68/68/68
f 68/68/68 18/18/18 29/29/29
f 68/68/68 69/69/69 18/18/18
f 64/64/64 69/69/69 68/68/68
f 69/69/69 72/72/72 18/18/18
f 69/69/69 64/64/64 70/70/70
f 70/70/70 72/72/72 69/69/69
f 14/14/14 73/73/73 74/74/74
f 70/70/70 75/75/75 72/72/72
f 76/76/76 78/78/78 74/74/74
f 14/14/14 74/74/74 78/78/78
f 78/78/78 82/82/82 79/79/79
f 83/83/83 78/78/78 79/79/79
f 78/78/78 83/83/83 14/14/14
f 85/85/85 84/84/84 86/86/86
f 84/84/84 85/85/85 15/15/15
f 80/80/80 86/86/86 84/84/84
f 87/87/87 88/88/88 93/93/93
f 89/89/89 86/86/86 81/81/81
f 87/87/87 90/90/90 85/85/85
f 81/81/81 86/86/86 80/80/80
f 87/87/87 93/93/93 90/90/90
f 88/88/88 94/94/94 93/93/93
f 95/95/95 96/96/96 92/92/92
f 96/96/96 97/97/97 92/92/92
f 93/93/93 98/98/98 90/90/90
f 54/54/54 100/100/100 97/97/97
f 97/97/97 122/122/122 102/102/102
f 98/98/98 104/104/104 107/107/107
f 106/106/106 91/91/91 99/99/99
f 54/54/54 97/97/97 96/96/96
f 85/85/85 105/105/105 108/108/108
f 85/85/85 90/90/90 105/105/105
f 105/105/105 103/103/103 108/108/108
f 103/103/103 109/109/109 108/108/108
f 109/109/109 111/111/111 108/108/108
f 20/20/20 108/108/108 111/111/111
f 85/85/85 108/108/108 20/20/20
f 35/35/35 112/112/112 115/115/115
f 23/23/23 112/112/112 34/34/34
f 110/110/110 24/24/24 19/19/19
f 110/110/110 19/19/19 21/21/21
f 116/116/116 111/111/111 109/109/109
f 115/115/115 120/120/120 35/35/35
f 121/121/121 114/114/114 127/127/127
f 128/128/128 113/113/113 123/123/123
f 117/117/117 103/103/103 124/124/124
f 103/103/103 117/117/117 109/109/109
f 37/37/37 119/119/119 129/129/129
f 129/129/129 40/40/40 37/37/37
f 129/129/129 52/52/52 40/40/40
f 53/53/53 130/130/130 100/100/100
f 101/101/101 126/126/126 125/125/125
f 36/36/36 33/33/33 118/118/118
f 100/100/100 54/54/54 53/53/53
f 131/131/131 96/96/96 132/132/132
f 51/51/51 96/96/96 131/131/131
f 132/132/132 96/96/96 95/95/95
f 96/96/96 51/51/51 54/54/54
f 61/61/61 51/51/51 131/131/131
f 85/85/85 20/20/20 15/15/15
f 65/65/65 135/135/135 134/134/134
f 71/71/71 63/63/63 133/133/133
f 58/58/58 135/135/135 65/65/65
f 136/136/136 57/57/57 59/59/59
f 28/28/28 43/43/43 66/66/66
f 66/66/66 30/30/30 28/28/28
f 14/14/14 16/16/16 73/73/73
f 70/70/70 77/77/77 75/75/75
f 97/97/97 100/100/100 122/122/122

