# ('FARMS composite mesh',)
mtllib link_body_35_composite.mtl

o link_body_35
usemtl link_body_35_composite
v -1.61067200 -0.89185600 0.28492700
v -0.05329900 -0.65766700 1.45833200
v -0.05329900 -0.65766700 1.45833200
v -1.74206500 -1.10431100 -1.13680700
v -4.26652500 -0.88138500 0.01628000
v -4.26652500 -0.88138500 0.01628000
v -3.05813600 -0.23489400 3.08139100
v -3.05813600 -0.23489400 3.08139100
v -3.05813600 -0.23489400 3.08139100
v -3.58675300 -0.36970300 2.42112100
v -3.58675300 -0.36970300 2.42112100
v -4.13436800 -1.01017000 -0.86717600
v -4.13436800 -1.01017000 -0.86717600
v -2.82395900 -0.20076600 3.27526600
v -2.82395900 -0.20076600 3.27526600
v -0.34273500 -0.93092600 -0.16971400
v -0.34273500 -0.93092600 -0.16971400
v -0.28734600 -0.79958800 0.63762200
v -0.28734600 -0.79958800 0.63762200
v -0.36367000 0.00000100 0.64810000
v -0.44720500 0.00000000 -0.20000000
v -0.36367000 0.00000100 -1.04810000
v -0.34424600 0.93146700 -0.17928600
v -0.34424600 0.93146700 -0.17928600
v -0.28174600 -0.83180300 -1.04810000
v -0.28715500 0.79907800 0.64026800
v -0.28715500 0.79907800 0.64026800
v -0.05342100 0.65771900 1.45808800
v -0.05342100 0.65771900 1.45808800
v -1.61067200 0.89185600 0.28492700
v -0.11629500 0.00000100 1.46360800
v 0.28543100 0.00000000 2.21518400
v 0.33412200 -0.49142800 2.21559500
v 0.33412200 -0.49142800 2.21559500
v 0.33412200 0.49142800 2.21559500
v 0.33412200 0.49142800 2.21559500
v 0.85554500 0.29935600 2.87394700
v 0.85554500 0.29935600 2.87394700
v 0.85554500 0.29935600 2.87394700
v -2.79515100 0.19471400 3.29935100
v -2.79515100 0.19471400 3.29935100
v -2.46018200 0.05291900 3.58689900
v -2.46018200 0.05291900 3.58689900
v -2.46018200 0.05291900 3.58689900
v -3.04641700 0.22406800 3.10291500
v -3.04641700 0.22406800 3.10291500
v -3.04641700 0.22406800 3.10291500
v 1.21199800 0.20910600 3.17374700
v 1.21199800 0.20910600 3.17374700
v 1.39606500 0.11050100 3.33562400
v 1.39606500 0.11050100 3.33562400
v 1.39606500 0.11050100 3.33562400
v 1.42917600 -0.00089300 3.36985500
v 1.42917600 -0.00089300 3.36985500
v 0.82606500 0.00000000 2.87394700
v 0.82606500 0.00000000 2.87394700
v -2.46258500 -0.05187900 3.58563600
v -2.46258500 -0.05187900 3.58563600
v -2.46258500 -0.05187900 3.58563600
v 1.39241000 -0.11149600 3.33559000
v 1.39241000 -0.11149600 3.33559000
v 1.39241000 -0.11149600 3.33559000
v 1.21376800 -0.20896800 3.17532100
v 1.21376800 -0.20896800 3.17532100
v 0.85554500 -0.29935600 2.87394700
v 0.85554500 -0.29935600 2.87394700
v 0.85554500 -0.29935600 2.87394700
v -3.62322200 0.00000000 2.42104300
v -3.59750300 0.37202200 2.40823900
v -3.59750300 0.37202200 2.40823900
v -4.02593200 0.00000100 1.66764700
v -3.97436500 0.52360300 1.66764200
v -3.97436500 0.52360300 1.66764200
v -4.26680700 0.88150900 0.01519700
v -4.26680700 0.88150900 0.01519700
v -4.35765800 0.00000000 -0.00000000
v -4.14051000 1.01180600 -0.85168400
v -4.14051000 1.01180600 -0.85168400
v -4.20565700 0.69309900 0.85015900
v -4.20565700 0.69309900 0.85015900
v -4.27392500 0.00000100 -0.85016100
v -4.19180300 -0.83379900 -0.85016000
v -4.02593200 0.00000100 -1.66764800
v -3.94857700 0.78542200 -1.66764800
v -3.87465600 1.05414400 -1.64932000
v -3.87465600 1.05414400 -1.64932000
v -3.55360400 0.70685600 -2.42104200
v -3.62322200 0.00000000 -2.42104300
v -3.48821200 0.92207300 -2.42118500
v -3.48821200 0.92207300 -2.42118500
v -2.98772400 0.74502600 -3.07645100
v -2.98772400 0.74502600 -3.07645100
v -2.98772400 0.74502600 -3.07645100
v -3.08126800 0.00000000 -3.08139200
v -3.08126800 0.00000000 -3.08139200
v -2.98886800 -0.74168100 -3.07816500
v -2.98886800 -0.74168100 -3.07816500
v -2.98886800 -0.74168100 -3.07816500
v -2.42089800 0.00000000 -3.62331900
v -2.33917200 0.51992000 -3.63993700
v -2.33917200 0.51992000 -3.63993700
v -2.35572800 -0.52662400 -3.62666800
v -2.35572800 -0.52662400 -3.62666800
v 1.92613200 -0.15943900 -4.04279800
v 1.92613200 -0.15943900 -4.04279800
v 1.92613200 -0.15943900 -4.04279800
v 0.41814400 -0.85100500 -2.65156900
v 0.41814400 -0.85100500 -2.65156900
v 1.53299700 -0.27368800 -3.83917000
v 1.53299700 -0.27368800 -3.83917000
v -1.64553100 -0.27123000 -4.02340700
v -1.64553100 -0.27123000 -4.02340700
v -1.64553100 -0.27123000 -4.02340700
v 0.87461800 -0.56667300 -3.26693100
v 0.87461800 -0.56667300 -3.26693100
v 0.87461800 -0.56667300 -3.26693100
v 0.82606500 -0.00000000 -3.27394600
v 0.82606500 -0.00000000 -3.27394600
v 0.28543100 -0.00000000 -2.61518400
v -0.11629500 0.00000100 -1.86360800
v 0.35488900 0.70516900 -2.61518400
v 0.87461800 0.56667400 -3.26693000
v 0.87461800 0.56667400 -3.26693000
v 0.87461800 0.56667400 -3.26693000
v 0.47428100 0.82595000 -2.71783100
v 0.47428100 0.82595000 -2.71783100
v 1.51663200 0.28801200 -3.81669400
v 1.51663200 0.28801200 -3.81669400
v 1.92880200 0.15692600 -4.04453900
v 1.92880200 0.15692600 -4.04453900
v 1.92880200 0.15692600 -4.04453900
v 1.23825000 0.06658100 -4.22025100
v 1.23825000 0.06658100 -4.22025100
v 1.23825000 0.06658100 -4.22025100
v -1.63707700 0.26237600 -4.03222500
v -1.63707700 0.26237600 -4.03222500
v -1.63707700 0.26237600 -4.03222500
v 2.05075000 0.01529200 -4.11662200
v 2.05075000 0.01529200 -4.11662200
v 2.05075000 0.01529200 -4.11662200
v 1.23825000 -0.06658100 -4.22025100
v 1.23825000 -0.06658100 -4.22025100
v -1.23092700 -0.10925400 -4.15514000
v -1.23092700 -0.10925400 -4.15514000
v -1.21473700 0.09655000 -4.16186900
v -1.21473700 0.09655000 -4.16186900
v 0.07270000 1.04415700 -1.92975600
v 0.07270000 1.04415700 -1.92975600
v -2.05923400 0.87194700 -2.67903700
v -2.22369400 1.07769600 -1.75912800
v -1.74206500 1.10431100 -1.13680700
v -0.21932200 1.04974800 -1.02104200
v -0.21932200 1.04974800 -1.02104200
v -0.28174600 0.83180400 -1.04810000
v -0.03912400 0.78354300 -1.86360800
v -0.03912400 -0.78354100 -1.86360800
v 0.09095000 -1.04145900 -1.96051000
v 0.09095000 -1.04145900 -1.96051000
v -0.21891800 -1.05063900 -1.02883500
v -0.21891800 -1.05063900 -1.02883500
v -2.22369400 -1.07769600 -1.75912800
v -2.05923400 -0.87194700 -2.67903700
v -3.49217200 -0.92066800 -2.42234600
v -3.49217200 -0.92066800 -2.42234600
v -3.89067800 -1.06839000 -1.59991900
v -3.89067800 -1.06839000 -1.59991900
v -3.94857700 -0.78541800 -1.66764800
v -4.27392500 0.00000100 0.85016100
v -4.20565700 -0.69310000 0.85015700
v -4.20565700 -0.69310000 0.85015700
v -3.97437200 -0.52355800 1.66763100
v -3.97437200 -0.52355800 1.66763100
vn -0.00484352 -0.98403193 0.17792612
vn -0.00840733 -0.97780980 0.20932587
vn 0.92375359 0.09176736 -0.37183068
vn -0.00094060 -0.99859842 0.05291791
vn -0.02417154 -0.98385337 0.17733662
vn -0.99317237 -0.11632608 -0.00876797
vn -0.64139909 -0.02546997 0.76678451
vn -0.02925756 -0.97634603 0.21422517
vn -0.76413398 -0.02637415 0.64451817
vn -0.02462290 -0.97594372 0.21662772
vn -0.83255273 -0.08201079 0.54784139
vn -0.01583484 -0.99384330 0.10965742
vn -0.93581147 -0.28266048 -0.21061800
vn -0.01397843 -0.96164207 0.27395096
vn -0.62731546 -0.08994880 0.77355319
vn 0.99203560 0.12582036 0.00588312
vn 0.02461703 -0.98847367 0.14937805
vn 0.97849609 0.09949090 -0.18068469
vn 0.02570057 -0.98651333 0.16165064
vn 0.98089933 0.00005253 -0.19451607
vn 0.99999610 -0.00133161 0.00245677
vn 0.98136290 -0.00188085 0.19215441
vn 0.99250715 -0.12175345 0.01027837
vn 0.02487476 0.98848261 0.14927615
vn 0.96200326 0.19173361 0.19439124
vn 0.02589102 0.98658873 0.16115936
vn 0.97841883 -0.09882796 -0.18146522
vn -0.00860526 0.97777883 0.20946245
vn 0.92381270 -0.09143121 -0.37176662
vn -0.00447008 0.98398302 0.17820615
vn 0.92468046 -0.00005078 -0.38074407
vn 0.83336934 0.00000004 -0.55271652
vn 0.83404528 0.08246769 -0.54549752
vn -0.00410758 -0.96742663 0.25311825
vn -0.00414580 0.96748114 0.25290919
vn 0.83404543 -0.08246867 -0.54549714
vn 0.77077630 -0.07588379 -0.63257058
vn 0.00518297 0.95981747 0.28057719
vn 0.63312454 -0.06234888 -0.77153479
vn -0.01944963 0.96145791 0.27426337
vn -0.58965620 0.19594698 0.78352431
vn 0.05561613 -0.00727120 0.99842575
vn -0.63403376 0.01465078 0.77316657
vn 0.01444130 0.90336000 0.42863989
vn -0.03627986 0.97640094 0.21289665
vn -0.76507648 0.01013096 0.64385972
vn -0.63865493 0.00117272 0.76949237
vn 0.63472961 -0.06216758 -0.77022952
vn 0.01110865 0.88973246 0.45634718
vn 0.05725359 0.30876935 0.94941220
vn 0.01303096 0.86476804 0.50200242
vn 0.64718119 -0.04154563 -0.76120330
vn 0.05988179 0.00162896 0.99820415
vn 0.64481349 -0.00738188 -0.76430430
vn 0.77300978 0.00000000 -0.63439411
vn 0.63461472 -0.00005240 -0.77282867
vn -0.63762438 -0.00594752 0.77032446
vn 0.05559945 -0.01906009 0.99827121
vn 0.01320477 -0.90745613 0.41993930
vn 0.66455525 0.01056528 -0.74716444
vn 0.01113053 -0.86486179 0.50188664
vn 0.05666855 -0.31259024 0.94819619
vn 0.00951840 -0.88915494 0.45750726
vn 0.63630105 0.05968863 -0.76912823
vn 0.63326260 0.06236248 -0.77142038
vn 0.00484671 -0.95991356 0.28025428
vn 0.77077630 0.07588379 -0.63257058
vn -0.83222957 -0.00333064 0.55442118
vn -0.83591479 0.07833005 0.54324107
vn -0.02171088 0.97542699 0.21925059
vn -0.92504905 -0.00060169 0.37984720
vn -0.92430715 0.09103621 0.37063284
vn -0.03670395 0.97531616 0.21774115
vn -0.02435656 0.98344473 0.17956395
vn -0.99364055 0.11080832 -0.01999929
vn -0.99999932 0.00068485 -0.00094296
vn -0.96881807 0.14363481 -0.20189251
vn -0.01924010 0.99446090 0.10333118
vn -0.97848562 0.09719877 0.18198431
vn -0.08476105 0.97061231 0.22522726
vn -0.98108729 0.00892052 -0.19336018
vn -0.96262901 -0.19253054 -0.19046621
vn -0.92476094 -0.00000026 -0.38054856
vn -0.90801637 0.17974677 -0.37841428
vn -0.01633739 0.99937705 -0.03128265
vn -0.88451085 0.26866239 -0.38139359
vn -0.81707176 0.16199260 -0.55331016
vn -0.83170444 -0.01168614 -0.55509562
vn -0.79935582 0.24251273 -0.54974344
vn -0.01861976 0.97686440 -0.21304755
vn -0.00356059 0.95311710 -0.30258074
vn -0.63651606 0.08500355 -0.76656487
vn -0.75496911 0.11870477 -0.64492699
vn -0.63717412 0.00109605 -0.77071911
vn -0.76930379 -0.00482018 -0.63886496
vn -0.77172632 -0.10421948 -0.62735698
vn -0.63636467 -0.08261645 -0.76695145
vn -0.00472101 -0.95271638 -0.30382432
vn -0.55612506 0.00254647 -0.83109472
vn -0.55877463 0.05516227 -0.82748295
vn 0.01932716 0.91995939 -0.39153694
vn -0.56517978 -0.06692142 -0.82224895
vn 0.01878897 -0.92224324 -0.38615332
vn 0.15835897 -0.47797419 -0.86398096
vn 0.02917261 -0.87505199 -0.48314902
vn 0.44533734 0.05983181 0.89336152
vn 0.02336871 -0.93792231 -0.34605729
vn 0.83128627 0.11517353 0.54378139
vn 0.03480443 -0.90004932 -0.43439600
vn 0.56510788 0.00282422 0.82501219
vn -0.40781132 -0.00990256 -0.91301252
vn 0.02412253 -0.85931702 -0.51087411
vn -0.01015703 -0.61515124 -0.78834370
vn 0.77451204 0.08423901 0.62692495
vn 0.63823073 0.06418107 0.76716512
vn 0.03492920 -0.90920726 -0.41487602
vn 0.63380799 -0.00201928 0.77348779
vn 0.77300930 -0.00000046 0.63439469
vn 0.83556421 0.01083417 0.54928596
vn 0.92339092 0.00340443 0.38384582
vn 0.81489040 -0.19457295 0.54598077
vn 0.03489895 0.90930632 -0.41466141
vn 0.76906424 -0.08796630 0.63308935
vn 0.63298514 -0.06378693 0.77153162
vn 0.02499466 0.93566223 -0.35201059
vn 0.76340588 -0.24762817 0.59656664
vn 0.03334796 0.89440408 -0.44601486
vn 0.56975574 -0.02654861 0.82138515
vn 0.48200370 -0.02535177 0.87580233
vn 0.13989992 0.54214092 -0.82855974
vn 0.02832831 0.87237341 -0.48801859
vn 0.10436076 0.55643930 -0.82430828
vn 0.02328131 0.84893280 -0.52798777
vn 0.04968591 0.00000000 -0.99876489
vn -0.41546504 -0.00807736 -0.90957328
vn 0.02347105 0.85432418 -0.51921028
vn -0.01179617 0.59705490 -0.80211365
vn 0.13989992 0.54214092 -0.82855974
vn 0.15613728 -0.41497394 -0.89633575
vn 0.47482792 -0.00577637 0.88005970
vn 0.02356152 -0.84535098 -0.53369145
vn 0.05662608 -0.05074525 -0.99710501
vn -0.01015703 -0.61515124 -0.78834370
vn -0.18443459 -0.01866282 -0.98266758
vn -0.01179617 0.59705490 -0.80211365
vn -0.17068923 -0.01829930 -0.98515497
vn 0.01702718 0.98594036 -0.16622781
vn 0.87276101 -0.28161708 0.39872301
vn 0.00304710 0.96161350 -0.27439057
vn -0.01419451 0.99329257 -0.11475360
vn -0.00048004 0.99860045 0.05288587
vn 0.03057257 0.99722537 0.06787403
vn 0.93525745 -0.29260746 0.19918430
vn 0.96139082 -0.19356284 0.19560451
vn 0.90802617 -0.19015389 0.37326931
vn 0.90431852 0.19284809 0.38081180
vn 0.01537968 -0.98565207 -0.16808765
vn 0.86794641 0.28487333 0.40683684
vn 0.03052819 -0.99740863 0.06514641
vn 0.93572739 0.29173030 0.19826166
vn -0.01396144 -0.99332690 -0.11448470
vn 0.00200808 -0.96080382 -0.27722192
vn -0.01773444 -0.97592096 -0.21740231
vn -0.82140973 -0.13324188 -0.55455628
vn -0.00670677 -0.99990816 -0.01177655
vn -0.89159101 -0.26952694 -0.36389655
vn -0.90347700 -0.18030602 -0.38886895
vn -0.98101452 -0.00000008 0.19393431
vn -0.97848982 -0.09726136 0.18192831
vn -0.08505402 -0.97055701 0.22535505
vn -0.03776881 -0.97521781 0.21799941
vn -0.92357714 -0.09097089 0.37246417
vt 0.84752400 0.40960000
vt 0.84043000 0.42041600
vt 0.37149800 0.93804300
vt 0.85693000 0.40810100
vt 0.84804900 0.39187900
vt 0.25906200 0.94774100
vt 0.97023900 0.04197500
vt 0.82816100 0.40118700
vt 0.26800400 0.92826200
vt 0.83231800 0.39740400
vt 0.26541000 0.93235500
vt 0.85399400 0.39236300
vt 0.25807900 0.95357200
vt 0.82697900 0.40282200
vt 0.97178400 0.04223000
vt 0.37397200 0.94888500
vt 0.85114200 0.41778800
vt 0.37285300 0.94356000
vt 0.84578900 0.41850900
vt 0.36766100 0.94380800
vt 0.36795300 0.94946300
vt 0.36809100 0.95501800
vt 0.36172700 0.94957900
vt 0.85112200 0.35426100
vt 0.37348700 0.95468700
vt 0.84570900 0.35325100
vt 0.36233800 0.94408400
vt 0.84039400 0.35111800
vt 0.36284700 0.93849000
vt 0.84742100 0.36187300
vt 0.36722900 0.93826900
vt 0.36667100 0.93306000
vt 0.36985800 0.93286200
vt 0.83555700 0.42330300
vt 0.83555200 0.34799700
vt 0.36339400 0.93319400
vt 0.36401400 0.92846400
vt 0.83143100 0.34402500
vt 0.78970800 0.97542700
vt 0.82681000 0.36638700
vt 0.97190800 0.04486100
vt 0.97414900 0.04396000
vt 0.97414900 0.04396000
vt 0.82505800 0.36385400
vt 0.82799100 0.36810700
vt 0.27084200 0.92835300
vt 0.97023900 0.04502400
vt 0.79057200 0.97311500
vt 0.82961200 0.34146800
vt 0.99976200 0.04500400
vt 0.82862300 0.34002700
vt 0.79136400 0.97195400
vt 1.00000000 0.04426800
vt 0.79212600 0.97180600
vt 0.36600900 0.92838100
vt 0.79166800 0.97581700
vt 0.97415100 0.04326400
vt 0.97415100 0.04326400
vt 0.82505800 0.40532600
vt 0.79282900 0.97212300
vt 0.82854600 0.43075100
vt 0.99977500 0.04352900
vt 0.82954700 0.42951600
vt 0.79333800 0.97337500
vt 0.79366600 0.97581700
vt 0.83139600 0.42702200
vt 0.36795100 0.92826200
vt 0.26756700 0.93252500
vt 0.26989100 0.93280600
vt 0.83233500 0.37218100
vt 0.26606300 0.93735100
vt 0.26938400 0.93763200
vt 0.83706900 0.37519500
vt 0.84790200 0.37854300
vt 0.26979500 0.94862700
vt 0.26418300 0.94825200
vt 0.27038400 0.95447500
vt 0.85371900 0.37842500
vt 0.26931700 0.94303400
vt 0.84238500 0.37737500
vt 0.26387900 0.95390800
vt 0.25901500 0.95352500
vt 0.26402100 0.95941300
vt 0.26900300 0.95983500
vt 0.85913800 0.37720900
vt 0.27084200 0.95987600
vt 0.26908700 0.96493400
vt 0.26460300 0.96455400
vt 0.27056600 0.96506800
vt 0.86443200 0.37483800
vt 0.86900600 0.37160400
vt 0.96399200 0.75357600
vt 0.27038300 0.96951000
vt 0.96521000 0.74873800
vt 0.26560200 0.96913400
vt 0.26132700 0.96877900
vt 0.96519800 0.74377200
vt 0.86911500 0.39881700
vt 0.96087900 0.74827200
vt 0.95992100 0.75163700
vt 0.87304100 0.36729900
vt 0.96087400 0.74474700
vt 0.87299600 0.40269000
vt 0.93235500 0.74377200
vt 0.87768300 0.43075100
vt 0.55154300 0.98006000
vt 0.86792200 0.42161300
vt 0.37338000 0.96485600
vt 0.87617600 0.42827500
vt 0.55319600 0.97788900
vt 0.95600200 0.74590800
vt 0.87589700 0.40713600
vt 0.95600200 0.74590800
vt 0.37124800 0.96874400
vt 0.55660800 0.97449100
vt 0.87214500 0.42426600
vt 0.55320500 0.97284700
vt 0.36756700 0.96901200
vt 0.36789500 0.96498300
vt 0.36807200 0.96025800
vt 0.36319400 0.96518000
vt 0.87215200 0.34718500
vt 0.36379400 0.96912800
vt 0.54957200 0.97180600
vt 0.86833700 0.35002400
vt 0.36231600 0.96582800
vt 0.87608900 0.34279400
vt 0.54974900 0.97645600
vt 0.54957300 0.97932700
vt 0.93208200 0.74585700
vt 0.87779100 0.34002700
vt 0.93671800 0.74583800
vt 0.87860900 0.34421100
vt 0.93671800 0.74583800
vt 0.95551600 0.74942100
vt 0.87596600 0.36251100
vt 0.95551600 0.74942100
vt 0.93139500 0.74483300
vt 0.93139500 0.74483300
vt 0.55015900 0.98042000
vt 0.87851200 0.42608600
vt 0.93682500 0.74496000
vt 0.95314200 0.74665900
vt 0.95314200 0.74665900
vt 0.95287000 0.74800400
vt 0.95287000 0.74800400
vt 0.86293500 0.35267500
vt 0.36104800 0.96093500
vt 0.86683900 0.36592100
vt 0.86067900 0.36700700
vt 0.85679400 0.36378900
vt 0.85677100 0.35411400
vt 0.36104800 0.95510700
vt 0.36254600 0.95525000
vt 0.36284800 0.96047700
vt 0.37315400 0.95994700
vt 0.86323500 0.41982800
vt 0.37475600 0.96042200
vt 0.85692000 0.41822600
vt 0.37486400 0.95444800
vt 0.86081900 0.40460600
vt 0.86694100 0.40519900
vt 0.86457600 0.39584500
vt 0.25933500 0.96415500
vt 0.85897600 0.39364000
vt 0.25790700 0.95848500
vt 0.25943900 0.95905200
vt 0.26492000 0.94266100
vt 0.26087700 0.94234300
vt 0.84250900 0.39263400
vt 0.83716300 0.39451500
vt 0.26300800 0.93711000
f 19/19/19 2/2/2 1/1/1
f 14/14/14 1/1/1 2/2/2
f 12/12/12 4/4/4 1/1/1
f 17/17/17 1/1/1 4/4/4
f 10/10/10 5/5/5 1/1/1
f 12/12/12 1/1/1 5/5/5
f 14/14/14 8/8/8 1/1/1
f 8/8/8 10/10/10 1/1/1
f 1/1/1 17/17/17 19/19/19
f 18/18/18 20/20/20 3/3/3
f 18/18/18 16/16/16 21/21/21
f 20/20/20 18/18/18 21/21/21
f 25/25/25 21/21/21 16/16/16
f 25/25/25 22/22/22 21/21/21
f 22/22/22 23/23/23 21/21/21
f 20/20/20 21/21/21 27/27/27
f 21/21/21 23/23/23 27/27/27
f 30/30/30 28/28/28 26/26/26
f 27/27/27 29/29/29 31/31/31
f 26/26/26 24/24/24 30/30/30
f 31/31/31 20/20/20 27/27/27
f 36/36/36 32/32/32 31/31/31
f 31/31/31 32/32/32 33/33/33
f 20/20/20 31/31/31 3/3/3
f 31/31/31 33/33/33 3/3/3
f 36/36/36 31/31/31 29/29/29
f 40/40/40 35/35/35 28/28/28
f 36/36/36 37/37/37 32/32/32
f 40/40/40 38/38/38 35/35/35
f 30/30/30 40/40/40 28/28/28
f 40/40/40 44/44/44 51/51/51
f 47/47/47 43/43/43 41/41/41
f 30/30/30 45/45/45 40/40/40
f 40/40/40 49/49/49 38/38/38
f 40/40/40 51/51/51 49/49/49
f 48/48/48 52/52/52 54/54/54
f 42/42/42 53/53/53 50/50/50
f 54/54/54 56/56/56 48/48/48
f 56/56/56 54/54/54 64/64/64
f 53/53/53 42/42/42 58/58/58
f 62/62/62 53/53/53 58/58/58
f 60/60/60 64/64/64 54/54/54
f 64/64/64 65/65/65 56/56/56
f 66/66/66 63/63/63 14/14/14
f 14/14/14 63/63/63 61/61/61
f 32/32/32 55/55/55 67/67/67
f 33/33/33 32/32/32 67/67/67
f 66/66/66 14/14/14 34/34/34
f 14/14/14 61/61/61 59/59/59
f 47/47/47 57/57/57 43/43/43
f 57/57/57 7/7/7 15/15/15
f 7/7/7 57/57/57 47/47/47
f 37/37/37 55/55/55 32/32/32
f 56/56/56 39/39/39 48/48/48
f 70/70/70 45/45/45 30/30/30
f 68/68/68 9/9/9 46/46/46
f 68/68/68 46/46/46 69/69/69
f 71/71/71 68/68/68 69/69/69
f 72/72/72 71/71/71 69/69/69
f 73/73/73 70/70/70 74/74/74
f 70/70/70 30/30/30 74/74/74
f 73/73/73 74/74/74 80/80/80
f 79/79/79 75/75/75 76/76/76
f 75/75/75 81/81/81 76/76/76
f 75/75/75 77/77/77 81/81/81
f 30/30/30 78/78/78 74/74/74
f 76/76/76 81/81/81 82/82/82
f 82/82/82 81/81/81 83/83/83
f 84/84/84 81/81/81 77/77/77
f 84/84/84 83/83/83 81/81/81
f 84/84/84 77/77/77 86/86/86
f 86/86/86 87/87/87 84/84/84
f 83/83/83 84/84/84 87/87/87
f 83/83/83 87/87/87 88/88/88
f 87/87/87 95/95/95 88/88/88
f 93/93/93 87/87/87 89/89/89
f 86/86/86 89/89/89 87/87/87
f 87/87/87 93/93/93 95/95/95
f 88/88/88 95/95/95 96/96/96
f 94/94/94 102/102/102 97/97/97
f 94/94/94 99/99/99 102/102/102
f 100/100/100 99/99/99 94/94/94
f 100/100/100 94/94/94 92/92/92
f 103/103/103 112/112/112 105/105/105
f 103/103/103 105/105/105 109/109/109
f 116/116/116 107/107/107 103/103/103
f 98/98/98 103/103/103 107/107/107
f 103/103/103 109/109/109 116/116/116
f 102/102/102 99/99/99 111/111/111
f 119/119/119 108/108/108 114/114/114
f 110/110/110 117/117/117 115/115/115
f 118/118/118 119/119/119 114/114/114
f 119/119/119 118/118/118 123/123/123
f 120/120/120 119/119/119 121/121/121
f 108/108/108 119/119/119 120/120/120
f 121/121/121 119/119/119 123/123/123
f 117/117/117 128/128/128 124/124/124
f 121/121/121 123/123/123 126/126/126
f 101/101/101 125/125/125 122/122/122
f 122/122/122 127/127/127 101/101/101
f 127/127/127 131/131/131 101/101/101
f 129/129/129 128/128/128 110/110/110
f 117/117/117 110/110/110 128/128/128
f 132/132/132 130/130/130 138/138/138
f 136/136/136 131/131/131 133/133/133
f 101/101/101 131/131/131 136/136/136
f 110/110/110 140/140/140 129/129/129
f 140/140/140 110/110/110 106/106/106
f 142/142/142 139/139/139 104/104/104
f 142/142/142 134/134/134 139/139/139
f 105/105/105 112/112/112 141/141/141
f 146/146/146 134/134/134 142/142/142
f 113/113/113 143/143/143 142/142/142
f 144/144/144 146/146/146 142/142/142
f 135/135/135 146/146/146 144/144/144
f 145/145/145 137/137/137 132/132/132
f 135/135/135 144/144/144 111/111/111
f 111/111/111 100/100/100 135/135/135
f 101/101/101 91/91/91 125/125/125
f 91/91/91 149/149/149 125/125/125
f 121/121/121 126/126/126 148/148/148
f 147/147/147 125/125/125 149/149/149
f 90/90/90 149/149/149 91/91/91
f 90/90/90 150/150/150 149/149/149
f 149/149/149 150/150/150 147/147/147
f 90/90/90 85/85/85 150/150/150
f 147/147/147 150/150/150 151/151/151
f 150/150/150 85/85/85 78/78/78
f 151/151/151 150/150/150 78/78/78
f 30/30/30 151/151/151 78/78/78
f 24/24/24 151/151/151 30/30/30
f 151/151/151 152/152/152 147/147/147
f 24/24/24 152/152/152 151/151/151
f 153/153/153 23/23/23 154/154/154
f 148/148/148 153/153/153 154/154/154
f 22/22/22 154/154/154 23/23/23
f 120/120/120 154/154/154 22/22/22
f 154/154/154 155/155/155 148/148/148
f 120/120/120 155/155/155 154/154/154
f 155/155/155 121/121/121 148/148/148
f 120/120/120 121/121/121 155/155/155
f 25/25/25 120/120/120 22/22/22
f 25/25/25 156/156/156 120/120/120
f 108/108/108 120/120/120 156/156/156
f 108/108/108 156/156/156 158/158/158
f 156/156/156 25/25/25 160/160/160
f 156/156/156 160/160/160 158/158/158
f 4/4/4 159/159/159 17/17/17
f 4/4/4 157/157/157 159/159/159
f 16/16/16 160/160/160 25/25/25
f 4/4/4 161/161/161 157/157/157
f 157/157/157 161/161/161 162/162/162
f 162/162/162 107/107/107 157/157/157
f 163/163/163 98/98/98 162/162/162
f 98/98/98 107/107/107 162/162/162
f 163/163/163 162/162/162 161/161/161
f 164/164/164 166/166/166 167/167/167
f 165/165/165 163/163/163 161/161/161
f 88/88/88 164/164/164 167/167/167
f 88/88/88 96/96/96 164/164/164
f 82/82/82 83/83/83 167/167/167
f 88/88/88 167/167/167 83/83/83
f 167/167/167 166/166/166 13/13/13
f 13/13/13 82/82/82 167/167/167
f 12/12/12 165/165/165 161/161/161
f 12/12/12 161/161/161 4/4/4
f 111/111/111 99/99/99 100/100/100
f 6/6/6 82/82/82 13/13/13
f 76/76/76 82/82/82 6/6/6
f 168/168/168 72/72/72 79/79/79
f 79/79/79 76/76/76 168/168/168
f 169/169/169 168/168/168 76/76/76
f 168/168/168 169/169/169 172/172/172
f 168/168/168 71/71/71 72/72/72
f 168/168/168 172/172/172 71/71/71
f 171/171/171 5/5/5 10/10/10
f 172/172/172 11/11/11 68/68/68
f 71/71/71 172/172/172 68/68/68
f 170/170/170 5/5/5 171/171/171
f 169/169/169 76/76/76 6/6/6
f 68/68/68 11/11/11 9/9/9
f 34/34/34 14/14/14 2/2/2

