# ('FARMS composite mesh',)
mtllib link_body_31_composite.mtl

o link_body_31
usemtl link_body_31_composite
v -0.91841500 0.09495000 -4.73382700
v -0.91841500 0.09495000 -4.73382700
v 0.40622700 0.03603100 -4.78766800
v 0.40622700 0.03603100 -4.78766800
v 0.40622700 0.03603100 -4.78766800
v -1.84578700 -0.00000100 -4.45641300
v -0.94012100 -0.09890800 -4.72983800
v -0.94012100 -0.09890800 -4.72983800
v -1.85401900 0.34080800 -4.43442000
v -1.85401900 0.34080800 -4.43442000
v 2.25208600 0.20803700 -4.58211600
v 2.25208600 0.20803700 -4.58211600
v 2.25208600 0.20803700 -4.58211600
v 0.38506700 -0.03551800 -4.78822300
v 0.38506700 -0.03551800 -4.78822300
v 0.38506700 -0.03551800 -4.78822300
v 2.21957300 -0.21426900 -4.57711400
v 2.21957300 -0.21426900 -4.57711400
v 2.21957300 -0.21426900 -4.57711400
v 1.94860400 0.00000000 -4.74596600
v 1.94860400 0.00000000 -4.74596600
v 1.94860400 0.00000000 -4.74596600
v 2.45006500 0.06097100 -4.64615100
v 2.45006500 0.06097100 -4.64615100
v 2.45562700 -0.05272700 -4.64883400
v 2.45562700 -0.05272700 -4.64883400
v 2.45562700 -0.05272700 -4.64883400
v 2.09426100 0.22984100 -4.53980800
v 2.09426100 0.22984100 -4.53980800
v 1.23547300 0.00000000 -4.08774200
v 1.20400200 0.51929300 -4.02318800
v 1.20400200 0.51929300 -4.02318800
v -3.28726500 0.83276300 -3.42150700
v -3.28726500 0.83276300 -3.42150700
v -3.28726500 0.83276300 -3.42150700
v 0.59241100 0.72776100 -3.49172200
v 0.59241100 0.72776100 -3.49172200
v 0.59241100 0.72776100 -3.49172200
v -2.80914300 1.05178200 -2.88353500
v 0.50869700 0.00000100 -3.49129600
v 0.50869700 0.00000100 -3.49129600
v -0.08774600 -0.00000000 -2.76452400
v 0.58368300 -0.72205400 -3.48695600
v 0.58368300 -0.72205400 -3.48695600
v 0.58368300 -0.72205400 -3.48695600
v 1.20400200 -0.51929300 -4.02319000
v 1.20400200 -0.51929300 -4.02319000
v 0.02125200 0.91912500 -2.76546500
v 0.02125200 0.91912500 -2.76546500
v -0.44580400 0.86443400 -1.93535700
v -2.37892100 1.15730800 -2.31589300
v -0.53094500 0.00000100 -1.93535700
v -0.34623300 1.09081300 -1.99416700
v -0.34623300 1.09081300 -1.99416700
v -0.64688100 1.10422700 -1.08499900
v -0.64688100 1.10422700 -1.08499900
v -2.34744200 1.19642300 -1.83306400
v -2.32089200 1.19488100 -1.22361600
v -4.26213700 1.21773700 -1.85181000
v -4.26213700 1.21773700 -1.85181000
v -3.85189400 1.12316700 -2.65024000
v -3.85189400 1.12316700 -2.65024000
v -3.93352400 0.78242700 -2.67987100
v -4.37071900 0.86939100 -1.84593200
v -4.63994500 0.92294300 -0.94104900
v -4.45635100 0.00000000 -1.84593200
v -4.57290600 1.16262800 -0.91377700
v -4.57290600 1.16262800 -0.91377700
v -4.01058900 -0.00000000 -2.67987100
v -3.41069700 0.00000100 -3.41081900
v -3.41069700 0.00000100 -3.41081900
v -3.93352400 -0.78242600 -2.67987100
v -3.93352400 -0.78242600 -2.67987100
v -4.37072700 -0.86938000 -1.84592300
v -4.63994500 -0.92294200 -0.94104900
v -4.27769800 -1.22500700 -1.80916100
v -4.27769800 -1.22500700 -1.80916100
v -3.85189400 -1.12316700 -2.65024100
v -3.85189400 -1.12316700 -2.65024100
v -3.85189400 -1.12316700 -2.65024100
v -4.57290600 -1.16262900 -0.91377600
v -4.57290600 -1.16262900 -0.91377600
v -1.94433600 -0.53400400 2.86660300
v -3.95843400 -0.46657700 2.68944900
v -3.95843400 -0.46657700 2.68944900
v -3.95843400 -0.46657700 2.68944900
v -3.95843400 -0.46657700 2.68944900
v -4.73106300 -0.93824300 -0.00293600
v -4.73106300 -0.93824300 -0.00293600
v -2.32089200 -1.19488200 -1.22361600
v -2.43295200 -0.34554100 3.72562900
v -2.68274300 -0.21629700 3.99369700
v -2.68274300 -0.21629700 3.99369700
v 1.28936800 -0.22156700 3.90707700
v 1.28936800 -0.22156700 3.90707700
v 0.54396000 -0.35610200 3.29147900
v 0.54396000 -0.35610200 3.29147900
v 0.54396000 -0.35610200 3.29147900
v 1.23547400 0.00000000 3.88774100
v -2.31269400 -0.10125200 4.20148600
v -2.31269400 -0.10125200 4.20148600
v 1.68398600 -0.10145900 4.12708500
v 1.68398600 -0.10145900 4.12708500
v 1.68398600 -0.10145900 4.12708500
v 1.30411900 0.00000000 4.17646600
v 1.68779000 0.10633600 4.12463500
v 1.68779000 0.10633600 4.12463500
v 1.68779000 0.10633600 4.12463500
v -2.68274600 0.21629800 3.99369500
v -2.68274600 0.21629800 3.99369500
v -2.29180900 0.07966400 4.21674900
v -2.29180900 0.07966400 4.21674900
v 1.29006900 0.22124900 3.90804500
v 1.29006900 0.22124900 3.90804500
v 0.54396800 0.35610000 3.29148900
v 0.54396800 0.35610000 3.29148900
v 0.54396800 0.35610000 3.29148900
v -2.43295200 0.34554100 3.72562900
v -1.94433600 0.53400400 2.86660300
v -0.72484600 0.80231400 0.83565600
v -0.72484600 0.80231400 0.83565600
v -0.03877200 0.49724600 2.56452400
v -0.03877200 0.49724600 2.56452400
v -0.46711300 0.64809200 1.73535600
v -0.46711300 0.64809200 1.73535600
v -0.53094500 0.00000100 1.73535600
v -0.80386700 0.00000100 0.83565600
v -0.89601900 0.00000100 -0.10000000
v -0.72484600 -0.80231400 0.83565600
v -0.72484600 -0.80231400 0.83565600
v -0.46711300 -0.64809200 1.73535600
v -0.46711300 -0.64809200 1.73535600
v -0.03877300 -0.49724600 2.56452400
v -0.03877300 -0.49724600 2.56452400
v -0.08774600 0.00000000 2.56452400
v 0.50869700 0.00000100 3.29129500
v 0.50869700 0.00000100 3.29129500
v -0.80006800 -0.95245100 -0.09324800
v -0.80006800 -0.95245100 -0.09324800
v -0.71348200 -0.91767600 -1.03565700
v -0.64330700 -1.10282800 -1.09393300
v -0.64330700 -1.10282800 -1.09393300
v -2.10033400 -1.17563700 -2.13684300
v -0.32810200 -1.09037400 -2.02892600
v -0.32810200 -1.09037400 -2.02892600
v -0.44580500 -0.86443300 -1.93535700
v -0.01112400 -0.77796900 -2.76452400
v 0.04961400 -0.92570400 -2.78447100
v 0.04961400 -0.92570400 -2.78447100
v -2.80914300 -1.05178300 -2.88353500
v -3.28606000 -0.83252700 -3.42282400
v -3.28606000 -0.83252700 -3.42282400
v -3.28606000 -0.83252700 -3.42282400
v -3.28606000 -0.83252700 -3.42282400
v -2.62718900 -0.52356300 -4.01120200
v -2.62718900 -0.52356300 -4.01120200
v -1.85461800 -0.34089900 -4.43425900
v -1.85461800 -0.34089900 -4.43425900
v -2.67972500 -0.00000000 -4.01068300
v -2.62662800 0.52470500 -4.01144900
v -2.62662800 0.52470500 -4.01144900
v -0.80386700 0.00000100 -1.03565700
v -0.71348200 0.91767800 -1.03565700
v -0.80029700 0.95273500 -0.09555200
v -0.80029700 0.95273500 -0.09555200
v -3.39279500 0.31970900 3.39841500
v -3.39279500 0.31970900 3.39841500
v -3.39279500 0.31970900 3.39841500
v -3.39279500 0.31970900 3.39841500
v -3.39279500 0.31970900 3.39841500
v -3.96611700 0.46604500 2.67772700
v -3.96611700 0.46604500 2.67772700
v -4.73106300 0.93824300 -0.00294000
v -4.73106300 0.93824300 -0.00294000
v -4.40113400 0.56061500 1.84593400
v -4.40113400 0.56061500 1.84593400
v -4.46119200 0.01174200 1.82997400
v -4.01058900 -0.00000000 2.67987100
v -4.01058900 -0.00000000 2.67987100
v -4.73084900 0.00000000 0.94104900
v -4.40113400 -0.56061600 1.84593500
v -4.40113400 -0.56061600 1.84593500
v -4.66134500 -0.70567400 0.94104900
v -4.66134500 -0.70567400 0.94104900
v -4.82353900 -0.00000000 0.00000600
v -4.73084900 0.00000000 -0.94104900
v -4.66134500 0.70567400 0.94104700
v -4.66134500 0.70567400 0.94104700
v -3.41069700 0.00000100 3.41081800
v -3.41069700 0.00000100 3.41081800
v -2.67972500 -0.00000000 4.01068300
v -3.38047700 -0.30680700 3.41082000
v -3.38047700 -0.30680700 3.41082000
v -3.38047700 -0.30680700 3.41082000
v -4.42058500 1.20607100 -1.36412900
v -4.42058500 1.20607100 -1.36412900
vn -0.16955283 0.00361291 -0.98551448
vn 0.00258584 0.77511305 -0.63181728
vn -0.00101019 0.00805542 -0.99996704
vn 0.00568349 0.74119277 -0.67126819
vn 0.03557626 0.58580100 -0.80967371
vn -0.38135273 0.00057474 -0.92442943
vn -0.18664413 -0.00648998 -0.98240615
vn 0.00222741 -0.77523895 -0.63166416
vn 0.00071497 0.88644988 -0.46282404
vn -0.39894329 0.04945173 -0.91564118
vn 0.08932016 0.53258482 -0.84165035
vn 0.00993306 0.85276161 -0.52220587
vn 0.24650439 -0.08838007 0.96510339
vn -0.01333159 0.01000916 -0.99986103
vn 0.00562358 -0.73852908 -0.67419817
vn 0.03520538 -0.59072129 -0.80610728
vn 0.38212423 0.03464606 0.92346127
vn 0.00910686 -0.85403758 -0.52013159
vn 0.08705277 -0.54635844 -0.83301517
vn 0.02702207 -0.00023745 -0.99963481
vn 0.04962457 -0.57871880 -0.81401594
vn 0.05866956 0.54200511 -0.83832473
vn 0.16509397 0.21716863 -0.96207160
vn 0.27954802 -0.01554801 0.96000581
vn 0.19131211 0.03250784 -0.98099078
vn 0.10626684 -0.52906328 -0.84190225
vn 0.28678731 -0.00286880 0.95798998
vn 0.39847845 0.00580722 0.91715931
vn 0.01412554 0.90546181 -0.42419262
vn 0.54813878 0.00483017 0.83637345
vn 0.01396207 0.89443426 -0.44698145
vn 0.57979233 -0.07003235 0.81174893
vn -0.00668739 0.92010469 -0.39161543
vn -0.64123377 0.08525624 -0.76259466
vn -0.75191266 0.12945470 -0.64642775
vn 0.63985010 -0.07315395 0.76501003
vn 0.77151687 -0.08837854 0.63004043
vn 0.03558270 0.95035031 -0.30914101
vn 0.01799541 0.95558389 -0.29416932
vn 0.63866228 -0.00039652 0.76948706
vn 0.77339730 -0.00318494 0.63391362
vn 0.83304895 -0.00725235 0.55315174
vn 0.76710909 0.09410370 0.63457714
vn 0.63894789 0.07095922 0.76597022
vn 0.03918027 -0.95299269 -0.30044940
vn 0.57073150 0.07071712 0.81808596
vn 0.01398129 -0.89762451 -0.44053918
vn 0.05842370 0.97688232 -0.20563951
vn 0.82933618 -0.10649821 0.54850672
vn 0.90634607 -0.18616660 0.37931359
vn 0.03162766 0.98882250 -0.14570433
vn 0.92398092 -0.00196528 0.38243351
vn 0.87355574 -0.28097994 0.39743004
vn 0.05776153 0.99192709 -0.11289049
vn 0.93380937 -0.28183810 0.22038000
vn 0.04748604 0.99619804 0.07303800
vn 0.02814280 0.99874066 -0.04153408
vn 0.02796724 0.99656139 0.07799505
vn -0.88389465 0.26778343 -0.38343484
vn 0.00758067 0.99957890 -0.02801006
vn 0.00487032 0.98273050 -0.18497851
vn -0.80337904 0.24141302 -0.54433617
vn -0.81497740 0.15991292 -0.55699165
vn -0.90763504 0.18077074 -0.37884108
vn -0.96145163 0.19153056 -0.19729875
vn -0.92476239 0.00000109 -0.38054504
vn -0.93781766 0.28274683 -0.20137592
vn -0.02182275 0.98886229 0.14722481
vn -0.83333246 0.00000021 -0.55277212
vn -0.64045989 0.00017386 -0.76799160
vn -0.76414721 -0.00009000 -0.64504189
vn -0.74097399 -0.23230196 -0.63007408
vn -0.83456640 -0.13775537 -0.53340639
vn -0.90676760 -0.18074672 -0.38092406
vn -0.96145201 -0.19152968 -0.19729776
vn -0.88728274 -0.27070752 -0.37342572
vn 0.00186560 -0.99999132 -0.00372516
vn 0.00283272 -0.98154159 -0.19122785
vn -0.84768927 -0.24983800 -0.46797850
vn -0.74097399 -0.23230196 -0.63007408
vn -0.93810731 -0.28268030 -0.20011626
vn -0.02324375 -0.99033904 0.13670520
vn 0.00691082 -0.98219102 0.18775794
vn -0.08439869 -0.97281557 0.21565416
vn -0.79239259 -0.01269938 0.60987926
vn -0.88001814 -0.08553035 0.46717516
vn -0.74104068 -0.06912450 0.66789259
vn -0.16108692 -0.96334921 0.21449779
vn -0.99342182 -0.11345016 -0.01556135
vn 0.02829336 -0.99697480 0.07239287
vn -0.03760557 -0.94723362 0.31833046
vn -0.56568349 -0.05322760 0.82290280
vn -0.07133168 -0.91993600 0.38552502
vn 0.55156800 0.06156812 -0.83185462
vn 0.01370361 -0.90983547 0.41474286
vn 0.77077134 0.07597219 -0.63256602
vn 0.04276234 -0.98580876 0.16233441
vn 0.63197609 0.06573957 -0.77219462
vn 0.56576308 -0.00015015 -0.82456784
vn -0.28466881 -0.05068951 0.95728483
vn 0.00910745 -0.88168811 0.47174477
vn 0.11285819 -0.06016591 0.99178783
vn 0.00865062 -0.88413325 0.46715476
vn 0.47000896 -0.00445908 -0.88265038
vn 0.02956874 -0.00133465 0.99956186
vn 0.00845071 0.88658977 0.46247936
vn 0.46807410 -0.02301920 -0.88338935
vn 0.11229127 0.07770251 0.99063262
vn -0.57204520 0.05786557 0.81817839
vn -0.06742088 0.91562472 0.39634052
vn -0.24442856 -0.04255525 0.96873305
vn 0.00616105 0.85748900 0.51446541
vn 0.01371930 0.91377564 0.40598751
vn 0.54771960 -0.05856222 -0.83460992
vn 0.77077148 -0.07597296 -0.63256576
vn 0.63203938 -0.06554983 -0.77215895
vn 0.04272690 0.98577821 0.16252919
vn -0.03582431 0.94734679 0.31819912
vn 0.00691592 0.98218975 0.18776440
vn 0.04230858 0.98686273 0.15592286
vn 0.97794433 -0.09673534 -0.18511393
vn 0.04385551 0.98669051 0.15658392
vn 0.83212324 -0.08195655 -0.54850163
vn 0.04379494 0.98667530 0.15669673
vn 0.92298374 -0.09090663 -0.37394785
vn 0.92476564 -0.00000028 -0.38053712
vn 0.98101545 -0.00000012 -0.19392960
vn 0.99999991 -0.00022848 0.00035608
vn 0.97794544 0.09674491 -0.18510304
vn 0.04228523 -0.98686087 0.15594096
vn 0.04379495 -0.98667529 0.15669674
vn 0.92298394 0.09090639 -0.37394743
vn 0.83212335 0.08195519 -0.54850166
vn 0.04385552 -0.98669052 0.15658385
vn 0.83333366 -0.00000071 -0.55277030
vn 0.77301178 -0.00000111 -0.63439167
vn 0.63439044 0.00000407 -0.77301278
vn 0.04154265 -0.98691895 0.15577289
vn 0.99339519 0.11441139 0.00871934
vn 0.96240174 0.19885820 0.18503598
vn 0.04667422 -0.99644714 0.07010435
vn 0.93030863 0.29101296 0.22324273
vn 0.04074852 -0.99345294 -0.10672780
vn 0.86609216 0.28320551 0.41192111
vn 0.05447080 -0.99238619 -0.11046526
vn 0.90625260 0.19669719 0.37418770
vn 0.81762360 0.16574609 0.55137999
vn 0.05284015 -0.97295201 -0.22488286
vn 0.78939616 0.24876759 0.56122045
vn 0.01812560 -0.95728139 -0.28858935
vn -0.64119910 -0.08499592 -0.76265287
vn -0.00687432 -0.92003574 -0.39177415
vn -0.75329444 -0.10340923 -0.64950290
vn -0.74097399 -0.23230196 -0.63007408
vn -0.10897101 -0.82464385 -0.55505661
vn -0.56630575 -0.06128686 -0.82191345
vn -0.40029438 -0.04909817 -0.91507037
vn 0.00032836 -0.88616760 -0.46336473
vn -0.55988887 0.00004624 -0.82856771
vn -0.56624291 0.06143918 -0.82194537
vn -0.10263956 0.82994430 -0.54832251
vn 0.98107433 -0.00031099 0.19363125
vn 0.96343479 -0.19265431 0.18621955
vn 0.04106962 0.98682872 0.15646840
vn 0.99356603 -0.11283509 0.00973575
vn -0.77263642 0.07662747 0.63020727
vn -0.81526993 0.06796099 0.57507934
vn -0.63546724 0.06542967 0.76935060
vn -0.74104068 -0.06912450 0.66789259
vn -0.12652707 0.94663960 0.29641925
vn -0.83281801 0.08138285 0.54753173
vn -0.08339786 0.97350740 0.21290407
vn -0.99342180 0.11345029 -0.01556172
vn -0.15949750 0.96355969 0.21473999
vn -0.92179013 0.08946507 0.37722533
vn -0.25144342 0.93851783 0.23655970
vn -0.92566730 0.00215263 0.37833241
vn -0.74104068 -0.06912450 0.66789259
vn -0.85754805 0.01855723 0.51406903
vn -0.98101430 -0.00003613 0.19393538
vn -0.25561619 -0.93726641 0.23704861
vn -0.92161937 -0.08656791 0.37831698
vn -0.97826956 -0.09645486 0.18353510
vn -0.36188345 -0.89859877 0.24811412
vn -0.99999999 -0.00000001 0.00011139
vn -0.98100294 -0.00000009 -0.19399287
vn -0.36187847 0.89860088 0.24811375
vn -0.97826955 0.09645541 0.18353485
vn -0.63624641 0.00243144 0.77148207
vn -0.80132491 0.01613485 0.59801175
vn -0.55102185 -0.00390008 0.83448170
vn -0.76990510 -0.07583005 0.63363707
vn -0.63506695 -0.06254786 0.76992060
vn -0.15565064 -0.93075790 0.33085134
vn 0.00089656 0.99781489 0.06606536
vn -0.93804029 0.17231094 -0.30064823
vt 0.95360600 0.08081100
vt 0.82236900 0.60014700
vt 0.94491100 0.07941300
vt 0.82329900 0.59176300
vt 0.94491100 0.07941300
vt 0.95978700 0.08086100
vt 0.95389800 0.07954800
vt 0.82217900 0.67190100
vt 0.81999900 0.60642600
vt 0.95957900 0.08311400
vt 0.93258600 0.07910800
vt 0.82275900 0.58054400
vt 0.26149300 0.98428300
vt 0.94510500 0.07895700
vt 0.82308400 0.68064200
vt 0.94510500 0.07895700
vt 0.26410500 0.98323400
vt 0.82246400 0.69293300
vt 0.93312400 0.07634600
vt 0.93475600 0.07798800
vt 0.93475600 0.07798800
vt 0.93475600 0.07798800
vt 0.93139500 0.07799400
vt 0.26281700 0.98524700
vt 0.93144600 0.07723900
vt 0.93144600 0.07723900
vt 0.26354900 0.98505600
vt 0.26104100 0.98332400
vt 0.82241200 0.58156200
vt 0.26080300 0.97740300
vt 0.81862600 0.58757400
vt 0.25745200 0.97823700
vt 0.81270500 0.61609500
vt 0.96861400 0.08733600
vt 0.92700000 0.47597500
vt 0.25493300 0.97475400
vt 0.92671700 0.55190000
vt 0.81485500 0.59165900
vt 0.80936900 0.61339600
vt 0.25937800 0.97277200
vt 0.92655500 0.54703600
vt 0.92211300 0.54664100
vt 0.92627100 0.54235500
vt 0.26410500 0.97180600
vt 0.81470000 0.68267400
vt 0.26403500 0.97616500
vt 0.81845600 0.68651100
vt 0.80981000 0.59538000
vt 0.92231900 0.55278800
vt 0.91710000 0.55217200
vt 0.80580400 0.61073100
vt 0.91690200 0.54640700
vt 0.91749400 0.55374000
vt 0.80455200 0.59776700
vt 0.91167000 0.55374000
vt 0.79839400 0.59933000
vt 0.80262000 0.61043900
vt 0.79859100 0.61003900
vt 0.91642700 0.47519400
vt 0.80191000 0.62245100
vt 0.80737400 0.61997900
vt 0.92182200 0.47519700
vt 0.92181600 0.47750100
vt 0.91617200 0.47759300
vt 0.91010800 0.47741000
vt 0.91570500 0.48310800
vt 0.91007300 0.47576000
vt 0.79555000 0.62391300
vt 0.92139600 0.48246500
vt 0.97006800 0.08193400
vt 0.92646500 0.48135900
vt 0.79366600 0.97588900
vt 0.92103500 0.48702900
vt 0.91530400 0.48818000
vt 0.90918700 0.48864900
vt 0.91492000 0.49008200
vt 0.80174300 0.65128000
vt 0.80746600 0.65372900
vt 0.92070100 0.48887400
vt 0.79599800 0.97588900
vt 0.90891300 0.48991800
vt 0.79567500 0.64967500
vt 0.77152500 0.66848400
vt 0.77187400 0.65504600
vt 0.61535200 0.97963700
vt 0.88566700 0.48188100
vt 0.70694600 0.97180600
vt 0.78952100 0.64894200
vt 0.90293800 0.48840300
vt 0.79864100 0.66448000
vt 0.76559000 0.66554900
vt 0.93627500 0.75434500
vt 0.76368200 0.66397000
vt 0.60916600 0.97435200
vt 0.76585400 0.69025900
vt 0.88159200 0.54610800
vt 0.76966700 0.68510200
vt 0.61047700 0.97923700
vt 0.60773400 0.97485500
vt 0.93869300 0.75520300
vt 0.76242600 0.66647800
vt 0.96522800 0.75635100
vt 0.76452600 0.69293300
vt 0.60813700 0.97180600
vt 0.96267600 0.75691300
vt 0.76477800 0.58054400
vt 0.60676000 0.97191700
vt 0.96519400 0.75773200
vt 0.93615100 0.75721700
vt 0.76374800 0.60813200
vt 0.93878000 0.75641000
vt 0.76242600 0.60530000
vt 0.76605100 0.58336700
vt 0.60623800 0.97463800
vt 0.88179700 0.55079400
vt 0.60576900 0.97970300
vt 0.76982600 0.58856100
vt 0.76564700 0.60696300
vt 0.77157400 0.60465900
vt 0.78559700 0.59841400
vt 0.89893400 0.55207400
vt 0.77440500 0.59279200
vt 0.88699900 0.55104400
vt 0.77973000 0.59611800
vt 0.89278500 0.55147700
vt 0.89263600 0.54715500
vt 0.89875000 0.54672400
vt 0.90499100 0.54644900
vt 0.89847000 0.54151700
vt 0.78554000 0.67580100
vt 0.77964400 0.67783800
vt 0.89241000 0.54295000
vt 0.88671100 0.54450100
vt 0.77428400 0.68097800
vt 0.88688500 0.54772800
vt 0.88171700 0.54841900
vt 0.60814600 0.97970300
vt 0.79170300 0.67496000
vt 0.90461300 0.54027100
vt 0.91080000 0.54038700
vt 0.79843400 0.67562700
vt 0.91108900 0.53922100
vt 0.80477900 0.66556100
vt 0.91708200 0.53939900
vt 0.80475600 0.67732800
vt 0.91660000 0.54079700
vt 0.92184200 0.54159300
vt 0.80987700 0.67947700
vt 0.92189400 0.54067200
vt 0.80941400 0.66052400
vt 0.96988500 0.07634600
vt 0.81274600 0.65708500
vt 0.92617800 0.48611300
vt 0.79490000 0.97180600
vt 0.81683800 0.66112800
vt 0.96532600 0.07795100
vt 0.96010600 0.07861600
vt 0.81991000 0.66602600
vt 0.96527100 0.08144600
vt 0.96451800 0.08486900
vt 0.81687500 0.61150300
vt 0.91112100 0.54634200
vt 0.91133100 0.55246200
vt 0.79175300 0.59957400
vt 0.90517900 0.55280500
vt 0.88159200 0.47519400
vt 0.61535200 0.97180600
vt 0.93142300 0.75773200
vt 0.70694600 0.97820000
vt 0.76739400 0.61302300
vt 0.88620700 0.47623000
vt 0.77193600 0.61720400
vt 0.90387500 0.47697800
vt 0.78942000 0.62405300
vt 0.89158600 0.47729000
vt 0.77727000 0.62044700
vt 0.89139400 0.48079700
vt 0.70485200 0.97411900
vt 0.88594300 0.47918100
vt 0.89716300 0.48211200
vt 0.77730900 0.65179000
vt 0.89102700 0.48411700
vt 0.89683800 0.48622800
vt 0.78323700 0.64973200
vt 0.90335100 0.48292800
vt 0.90961200 0.48326500
vt 0.78317000 0.62273900
vt 0.89754200 0.47763500
vt 0.93139500 0.75560400
vt 0.61410700 0.97337200
vt 0.93623200 0.75578100
vt 0.61305400 0.97482700
vt 0.93168400 0.75357600
vt 0.76728700 0.65913100
vt 0.79860600 0.62322900
vt 0.91313400 0.47537700
f 1/1/1 3/3/3 14/14/14
f 2/2/2 12/12/12 4/4/4
f 7/7/7 6/6/6 1/1/1
f 1/1/1 6/6/6 10/10/10
f 7/7/7 1/1/1 14/14/14
f 9/9/9 12/12/12 2/2/2
f 20/20/20 14/14/14 3/3/3
f 8/8/8 15/15/15 18/18/18
f 21/21/21 19/19/19 16/16/16
f 5/5/5 11/11/11 22/22/22
f 22/22/22 11/11/11 23/23/23
f 22/22/22 23/23/23 25/25/25
f 21/21/21 26/26/26 19/19/19
f 28/28/28 27/27/27 24/24/24
f 17/17/17 27/27/27 28/28/28
f 17/17/17 28/28/28 30/30/30
f 30/30/30 28/28/28 32/32/32
f 9/9/9 31/31/31 29/29/29
f 29/29/29 12/12/12 9/9/9
f 24/24/24 13/13/13 28/28/28
f 39/39/39 31/31/31 33/33/33
f 33/33/33 31/31/31 9/9/9
f 32/32/32 36/36/36 40/40/40
f 39/39/39 38/38/38 31/31/31
f 40/40/40 30/30/30 32/32/32
f 43/43/43 41/41/41 42/42/42
f 41/41/41 49/49/49 42/42/42
f 30/30/30 40/40/40 46/46/46
f 41/41/41 37/37/37 49/49/49
f 40/40/40 44/44/44 46/46/46
f 52/52/52 42/42/42 49/49/49
f 50/50/50 49/49/49 53/53/53
f 52/52/52 49/49/49 50/50/50
f 51/51/51 48/48/48 38/38/38
f 51/51/51 54/54/54 48/48/48
f 50/50/50 53/53/53 55/55/55
f 57/57/57 56/56/56 54/54/54
f 51/51/51 57/57/57 54/54/54
f 57/57/57 51/51/51 61/61/61
f 57/57/57 58/58/58 56/56/56
f 60/60/60 58/58/58 57/57/57
f 57/57/57 61/61/61 60/60/60
f 64/64/64 62/62/62 63/63/63
f 63/63/63 62/62/62 35/35/35
f 64/64/64 59/59/59 62/62/62
f 61/61/61 39/39/39 33/33/33
f 39/39/39 61/61/61 51/51/51
f 67/67/67 64/64/64 65/65/65
f 66/66/66 65/65/65 64/64/64
f 64/64/64 63/63/63 69/69/69
f 67/67/67 59/59/59 64/64/64
f 64/64/64 69/69/69 66/66/66
f 69/69/69 74/74/74 66/66/66
f 73/73/73 69/69/69 71/71/71
f 63/63/63 71/71/71 69/69/69
f 69/69/69 73/73/73 74/74/74
f 66/66/66 74/74/74 75/75/75
f 74/74/74 81/81/81 75/75/75
f 74/74/74 76/76/76 81/81/81
f 74/74/74 79/79/79 76/76/76
f 74/74/74 73/73/73 79/79/79
f 82/82/82 90/90/90 83/83/83
f 82/82/82 83/83/83 91/91/91
f 88/88/88 82/82/82 84/84/84
f 84/84/84 82/82/82 91/91/91
f 82/82/82 77/77/77 90/90/90
f 75/75/75 81/81/81 89/89/89
f 93/93/93 84/84/84 91/91/91
f 91/91/91 83/83/83 95/95/95
f 93/93/93 91/91/91 95/95/95
f 83/83/83 97/97/97 95/95/95
f 99/99/99 94/94/94 98/98/98
f 104/104/104 94/94/94 99/99/99
f 101/101/101 93/93/93 95/95/95
f 101/101/101 95/95/95 103/103/103
f 105/105/105 100/100/100 102/102/102
f 108/108/108 105/105/105 102/102/102
f 104/104/104 99/99/99 107/107/107
f 110/110/110 112/112/112 106/106/106
f 106/106/106 113/113/113 110/110/110
f 111/111/111 105/105/105 108/108/108
f 114/114/114 107/107/107 99/99/99
f 110/110/110 113/113/113 118/118/118
f 114/114/114 99/99/99 116/116/116
f 119/119/119 113/113/113 117/117/117
f 118/118/118 113/113/113 119/119/119
f 58/58/58 119/119/119 120/120/120
f 58/58/58 68/68/68 119/119/119
f 119/119/119 68/68/68 118/118/118
f 119/119/119 117/117/117 122/122/122
f 119/119/119 124/124/124 120/120/120
f 119/119/119 122/122/122 124/124/124
f 123/123/123 126/126/126 125/125/125
f 125/125/125 126/126/126 127/127/127
f 125/125/125 127/127/127 121/121/121
f 127/127/127 126/126/126 132/132/132
f 121/121/121 127/127/127 128/128/128
f 129/129/129 128/128/128 127/127/127
f 127/127/127 132/132/132 129/129/129
f 131/131/131 134/134/134 83/83/83
f 126/126/126 133/133/133 132/132/132
f 130/130/130 131/131/131 83/83/83
f 134/134/134 97/97/97 83/83/83
f 135/135/135 96/96/96 133/133/133
f 126/126/126 135/135/135 133/133/133
f 115/115/115 136/136/136 135/135/135
f 135/135/135 136/136/136 96/96/96
f 123/123/123 135/135/135 126/126/126
f 115/115/115 135/135/135 123/123/123
f 99/99/99 137/137/137 116/116/116
f 137/137/137 99/99/99 98/98/98
f 129/129/129 139/139/139 128/128/128
f 90/90/90 138/138/138 130/130/130
f 83/83/83 90/90/90 130/130/130
f 140/140/140 128/128/128 139/139/139
f 139/139/139 142/142/142 140/140/140
f 90/90/90 141/141/141 138/138/138
f 143/143/143 145/145/145 141/141/141
f 143/143/143 141/141/141 90/90/90
f 142/142/142 144/144/144 146/146/146
f 146/146/146 140/140/140 142/142/142
f 140/140/140 146/146/146 52/52/52
f 147/147/147 146/146/146 144/144/144
f 147/147/147 52/52/52 146/146/146
f 43/43/43 147/147/147 149/149/149
f 144/144/144 149/149/149 147/147/147
f 43/43/43 42/42/42 147/147/147
f 147/147/147 42/42/42 52/52/52
f 143/143/143 150/150/150 148/148/148
f 150/150/150 45/45/45 148/148/148
f 143/143/143 148/148/148 145/145/145
f 78/78/78 152/152/152 150/150/150
f 150/150/150 152/152/152 47/47/47
f 78/78/78 150/150/150 143/143/143
f 150/150/150 47/47/47 45/45/45
f 70/70/70 156/156/156 151/151/151
f 152/152/152 155/155/155 158/158/158
f 80/80/80 72/72/72 154/154/154
f 152/152/152 158/158/158 47/47/47
f 73/73/73 71/71/71 153/153/153
f 6/6/6 7/7/7 157/157/157
f 158/158/158 8/8/8 18/18/18
f 156/156/156 6/6/6 157/157/157
f 158/158/158 18/18/18 47/47/47
f 159/159/159 6/6/6 156/156/156
f 70/70/70 159/159/159 156/156/156
f 70/70/70 160/160/160 159/159/159
f 160/160/160 6/6/6 159/159/159
f 160/160/160 10/10/10 6/6/6
f 33/33/33 9/9/9 161/161/161
f 70/70/70 34/34/34 160/160/160
f 77/77/77 143/143/143 90/90/90
f 78/78/78 143/143/143 77/77/77
f 140/140/140 162/162/162 128/128/128
f 140/140/140 52/52/52 162/162/162
f 162/162/162 165/165/165 128/128/128
f 162/162/162 52/52/52 50/50/50
f 162/162/162 163/163/163 165/165/165
f 162/162/162 50/50/50 163/163/163
f 165/165/165 121/121/121 128/128/128
f 164/164/164 58/58/58 120/120/120
f 165/165/165 163/163/163 55/55/55
f 164/164/164 56/56/56 58/58/58
f 163/163/163 50/50/50 55/55/55
f 170/170/170 110/110/110 118/118/118
f 172/172/172 170/170/170 118/118/118
f 68/68/68 172/172/172 118/118/118
f 174/174/174 176/176/176 172/172/172
f 174/174/174 172/172/172 68/68/68
f 175/175/175 177/177/177 171/171/171
f 179/179/179 171/171/171 177/177/177
f 179/179/179 166/166/166 171/171/171
f 177/177/177 86/86/86 179/179/179
f 87/87/87 169/169/169 178/178/178
f 182/182/182 177/177/177 180/180/180
f 175/175/175 180/180/180 177/177/177
f 177/177/177 182/182/182 86/86/86
f 181/181/181 88/88/88 84/84/84
f 88/88/88 181/181/181 184/184/184
f 182/182/182 180/180/180 183/183/183
f 185/185/185 89/89/89 183/183/183
f 183/183/183 180/180/180 185/185/185
f 188/188/188 185/185/185 180/180/180
f 186/186/186 185/185/185 173/173/173
f 188/188/188 173/173/173 185/185/185
f 186/186/186 89/89/89 185/185/185
f 175/175/175 188/188/188 180/180/180
f 176/176/176 174/174/174 187/187/187
f 66/66/66 186/186/186 65/65/65
f 186/186/186 173/173/173 65/65/65
f 66/66/66 75/75/75 186/186/186
f 186/186/186 75/75/75 89/89/89
f 65/65/65 173/173/173 67/67/67
f 85/85/85 190/190/190 167/167/167
f 168/168/168 189/189/189 109/109/109
f 85/85/85 192/192/192 190/190/190
f 109/109/109 189/189/189 191/191/191
f 193/193/193 92/92/92 189/189/189
f 189/189/189 92/92/92 191/191/191
f 194/194/194 84/84/84 93/93/93
f 111/111/111 109/109/109 191/191/191
f 92/92/92 111/111/111 191/191/191
f 111/111/111 100/100/100 105/105/105
f 92/92/92 100/100/100 111/111/111
f 63/63/63 35/35/35 71/71/71
f 195/195/195 68/68/68 58/58/58
f 67/67/67 196/196/196 59/59/59
f 60/60/60 195/195/195 58/58/58
f 38/38/38 39/39/39 51/51/51
f 17/17/17 30/30/30 46/46/46

