# ('FARMS composite mesh',)
mtllib link_leg_0_L_1_composite.mtl
usemtl link_leg_0_L_1_composite
v -1.69786900 -7.82520900 1.27270800
v -1.46038500 -7.76619500 -0.62577900
v -1.28511900 -7.61722400 -1.31983300
v 1.11185000 -8.08355500 -1.26797600
v 1.69630700 -8.19013400 -0.78154800
v -0.45956100 -8.28005000 0.17111100
v 1.95386000 -8.20799100 -0.07042400
v 1.49429200 -8.31225400 0.43793100
v -0.54743700 -8.18504900 1.42383300
v 0.23511800 -8.35418900 1.20455800
v -2.04573900 -7.59758600 0.06908300
v -2.15874200 -7.59951600 0.70807500
v 0.05113600 -2.74170800 -1.83664500
v 1.44956900 -4.81109300 -1.68278200
v 1.44956900 -4.81109300 -1.68278200
v -1.66407000 -4.12352500 -1.50052300
v -1.66407000 -4.12352500 -1.50052300
v -1.66407000 -4.12352500 -1.50052300
v 0.09446700 -1.00052700 -1.09229900
v 0.86679400 -1.93346600 -1.22952800
v 0.86679400 -1.93346600 -1.22952800
v -0.59169400 -1.37006800 -1.19261000
v -0.35222200 -0.25455100 -0.47123800
v -0.35222200 -0.25455100 -0.47123800
v -0.35222200 -0.25455100 -0.47123800
v -1.07731600 -1.27444900 -0.80205400
v -1.07731600 -1.27444900 -0.80205400
v -1.60124200 -1.97780100 -0.26364200
v -1.99086400 -3.86553700 -0.87160000
v -1.99086400 -3.86553700 -0.87160000
v -0.75462300 -0.36910100 0.00263500
v -0.04372400 -0.00908500 -0.01770100
v -0.04372400 -0.00908500 -0.01770100
v -0.04372400 -0.00908500 -0.01770100
v -0.04372400 -0.00908500 -0.01770100
v -0.40751600 -0.39074500 0.63985400
v -0.40751600 -0.39074500 0.63985400
v -0.40751600 -0.39074500 0.63985400
v -1.37537800 -1.53765700 0.55767600
v -1.00825500 -1.58267500 1.07370500
v -1.00825500 -1.58267500 1.07370500
v -2.15892400 -3.98478100 0.27642300
v -2.15892400 -3.98478100 0.27642300
v -1.95517400 -3.84870300 0.83900500
v -1.95517400 -3.84870300 0.83900500
v -1.95517400 -3.84870300 0.83900500
v -1.51199700 -3.49774600 1.40341000
v -1.51199700 -3.49774600 1.40341000
v -1.51199700 -3.49774600 1.40341000
v -0.75816400 -4.81693000 1.30991700
v -0.29457100 -2.72128700 1.78905300
v -0.29457100 -2.72128700 1.78905300
v 0.09371900 -4.08476700 1.33753700
v -1.31310300 -4.89829300 1.01794900
v -1.31310300 -4.89829300 1.01794900
v -1.69909700 -6.76119400 0.93046000
v -1.69786900 -7.82520900 1.27270800
v -1.69786900 -7.82520900 1.27270800
v -1.62545000 -4.92674000 0.60652400
v -1.62545000 -4.92674000 0.60652400
v -1.84533400 -6.80546300 0.17103600
v -1.84533400 -6.80546300 0.17103600
v -2.12950900 -3.92173900 -0.36109500
v -2.12950900 -3.92173900 -0.36109500
v -1.71919700 -5.14064600 -0.25425800
v -1.38705100 -6.06800600 -0.70542700
v -1.46038500 -7.76619500 -0.62577900
v -1.29370600 -6.67060600 -1.26172200
v -1.29370600 -6.67060600 -1.26172200
v -1.22937800 -7.18831400 -1.27511700
v -1.22937800 -7.18831400 -1.27511700
v -1.28511900 -7.61722400 -1.31983300
v -1.28511900 -7.61722400 -1.31983300
v 1.11185000 -8.08355500 -1.26797600
v 1.89809700 -6.66318300 -1.05961400
v 1.89809700 -6.66318300 -1.05961400
v 1.69630700 -8.19013400 -0.78154800
v 1.69630700 -8.19013400 -0.78154800
v 1.68751400 -5.72453500 -1.41811900
v 1.68751400 -5.72453500 -1.41811900
v 1.99907600 -4.87526400 -1.00810100
v 2.21517800 -6.65274500 -0.34270400
v 2.21517800 -6.65274500 -0.34270400
v 1.95386000 -8.20799100 -0.07042400
v 1.95386000 -8.20799100 -0.07042400
v 1.97395600 -5.18761200 -0.24317400
v 1.97395600 -5.18761200 -0.24317400
v 1.93693100 -7.09046000 0.35229600
v 1.93693100 -7.09046000 0.35229600
v 1.49429200 -8.31225400 0.43793100
v 1.49429200 -8.31225400 0.43793100
v 0.21253900 -7.70890600 1.40935600
v 0.99073700 -4.93079100 0.84639900
v 0.99073700 -4.93079100 0.84639900
v 0.99073700 -4.93079100 0.84639900
v 0.87652200 -2.62066000 1.44334200
v 0.87652200 -2.62066000 1.44334200
v 1.74911400 -3.06277500 0.43463800
v 1.74911400 -3.06277500 0.43463800
v 1.74911400 -3.06277500 0.43463800
v 1.89716600 -3.62892200 -0.14686600
v 1.89716600 -3.62892200 -0.14686600
v 1.89716600 -3.62892200 -0.14686600
v 1.41335600 -2.08337800 -0.57304000
v 1.09893800 -1.05143700 0.10225100
v 1.09893800 -1.05143700 0.10225100
v 0.48163200 -0.46550000 -0.52621800
v 0.48163200 -0.46550000 -0.52621800
v 0.48163200 -0.46550000 -0.52621800
v 0.77690100 -0.63877300 0.46145600
v 0.77690100 -0.63877300 0.46145600
v 0.77690100 -0.63877300 0.46145600
v 0.77690100 -0.63877300 0.46145600
v 0.06025300 -0.11815300 0.36089000
v 0.06025300 -0.11815300 0.36089000
v 0.06025300 -0.11815300 0.36089000
v 0.06025300 -0.11815300 0.36089000
v 1.38163300 -2.85607200 0.97002100
v 1.38163300 -2.85607200 0.97002100
v 1.38163300 -2.85607200 0.97002100
v 1.38163300 -2.85607200 0.97002100
v 0.16258600 -0.95163900 1.13153100
v 0.16258600 -0.95163900 1.13153100
v 0.16258600 -0.95163900 1.13153100
v 0.16258600 -0.95163900 1.13153100
v 0.16258600 -0.95163900 1.13153100
v -0.54743700 -8.18504900 1.42383300
v 0.23511800 -8.35418900 1.20455800
v -2.04573900 -7.59758600 0.06908300
v -2.04573900 -7.59758600 0.06908300
v -2.15874200 -7.59951600 0.70807500
v -2.15874200 -7.59951600 0.70807500
vn -0.35909317 -0.93298529 -0.02430087
vn -0.32134075 -0.92686040 -0.19408741
vn -0.21265245 -0.93114899 -0.29621021
vn -0.08086428 -0.97191419 -0.22100630
vn 0.00852491 -0.99236864 -0.12301139
vn -0.19964074 -0.97297733 -0.11601161
vn 0.14032966 -0.98721330 -0.07561409
vn 0.00353003 -0.99507489 -0.09906315
vn -0.25610342 -0.96507078 0.05522163
vn -0.08633702 -0.99604811 -0.02083482
vn -0.38598545 -0.91924697 -0.07746119
vn -0.37009343 -0.92648427 -0.06824777
vn 0.02244126 0.18494384 -0.98249283
vn 0.77304246 0.15657630 -0.61472694
vn 0.05072603 -0.07373561 -0.99598691
vn -0.18137016 -0.01393976 -0.98331610
vn -0.79344268 0.29404987 -0.53290092
vn -0.92574264 -0.28417023 -0.24949517
vn 0.13017370 0.52335363 -0.84211388
vn 0.36066386 0.34585322 -0.86620271
vn 0.75637127 0.35244039 -0.55107919
vn -0.33674580 0.42053344 -0.84246893
vn 0.16928047 0.81397396 -0.55568922
vn -0.11272808 0.63069407 -0.76780035
vn -0.56619217 0.76978544 -0.29471477
vn -0.83233758 0.46087290 -0.30791284
vn -0.51254658 0.43078989 -0.74277592
vn -0.92218739 0.35357042 -0.15671112
vn -0.89149408 -0.33668904 -0.30311514
vn -0.86865585 0.28798326 -0.40311619
vn -0.69296965 0.72092325 0.00792077
vn -0.45007248 0.89157145 0.05034982
vn -0.31296653 0.88632400 0.34129418
vn 0.60817448 0.79380177 0.00159502
vn 0.16928047 0.81397396 -0.55568922
vn -0.31296653 0.88632400 0.34129418
vn -0.09776781 0.59798080 0.79552525
vn -0.61081532 0.69504486 0.37923251
vn -0.84872420 0.42669683 0.31240526
vn -0.72490681 0.41246383 0.55170981
vn -0.31518002 0.37354792 0.87242393
vn -0.95509253 0.27038277 0.12120815
vn -0.88090698 -0.46028646 0.11017838
vn -0.67718596 -0.29968656 0.67201722
vn -0.89559987 0.26791965 0.35513368
vn -0.85254324 -0.34535577 0.39230016
vn -0.82240102 0.27274398 0.49926675
vn -0.31097870 -0.26556758 0.91256019
vn -0.44001034 0.26353472 0.85845230
vn -0.19280351 -0.03922643 0.98045301
vn -0.37952640 0.30981100 0.87176652
vn 0.16304712 -0.10718910 0.98077833
vn 0.17817042 -0.15004474 0.97249261
vn -0.56263022 -0.15912583 0.81124978
vn -0.80078437 0.13855679 0.58270611
vn -0.89837640 0.20271172 0.38965087
vn -0.16317732 0.03877853 0.98583436
vn -0.74599300 0.20313890 0.63421528
vn -0.73427922 -0.35001853 0.58165373
vn -0.95005868 -0.07942945 0.30179375
vn -0.84762158 0.06516540 -0.52658440
vn -0.96725593 0.23654499 0.09199151
vn -0.91513204 -0.37786710 -0.14053400
vn -0.95695472 0.26588713 -0.11636884
vn -0.97990091 -0.16681585 -0.10939236
vn -0.95969149 -0.09068749 -0.26602260
vn -0.90186636 0.09079347 -0.42236668
vn -0.98042393 -0.03734079 -0.19332507
vn -0.12968646 -0.03307650 -0.99100321
vn -0.04295838 0.00142292 -0.99907585
vn -0.93379570 -0.02757189 -0.35674273
vn 0.04065127 0.09837960 -0.99431832
vn -0.96599546 0.14766781 -0.21224276
vn 0.30973844 -0.16495247 -0.93640418
vn 0.91353645 -0.05312166 -0.40327317
vn 0.56079762 -0.19229386 -0.80531305
vn 0.91219409 -0.20690933 -0.35368132
vn 0.60017346 -0.21938876 -0.76919464
vn 0.43014994 -0.16149842 -0.88819440
vn 0.85201484 -0.02967248 -0.52267605
vn 0.93306744 0.10762809 -0.34322202
vn 0.90486479 -0.11734194 -0.40920726
vn 0.92993015 0.06687726 0.36160386
vn 0.91690315 -0.21313652 -0.33743361
vn 0.81369601 -0.19483515 0.54766602
vn 0.94851964 0.13939655 0.28439250
vn 0.74182950 -0.00488631 0.67057074
vn 0.53261805 -0.04009747 0.84540535
vn 0.89163842 -0.02653235 0.45197010
vn 0.54553985 -0.16425141 0.82183195
vn 0.74522089 -0.22601272 0.62734685
vn 0.29608839 -0.09328317 0.95059451
vn 0.74182950 -0.00488631 0.67057074
vn 0.80105948 0.05712555 0.59585265
vn 0.50873822 -0.04652752 0.85966308
vn 0.38440462 -0.04271533 0.92217595
vn 0.71787937 0.41192646 0.56121814
vn 0.77642532 -0.18223243 0.60328689
vn 0.93865977 0.31551353 0.13917275
vn 0.85459643 -0.24616064 0.45724160
vn 0.74182950 -0.00488631 0.67057074
vn 0.96484022 0.22420045 -0.13717689
vn 0.85459643 -0.24616064 0.45724160
vn 0.88270766 0.33671560 -0.32779535
vn 0.73826868 0.66647432 -0.10378510
vn 0.91001568 0.41191250 0.04689945
vn 0.24634624 0.61460932 -0.74937902
vn 0.55632687 0.80318914 -0.21304370
vn 0.78210389 0.46249416 -0.41762741
vn 0.68355194 0.72721144 -0.06261203
vn 0.85287844 0.33766473 0.39822217
vn 0.38196466 0.65225565 0.65472557
vn 0.61313801 0.33167094 0.71697711
vn 0.03928244 0.68095551 0.73127046
vn -0.31296653 0.88632400 0.34129418
vn 0.57920891 0.81174203 0.07477905
vn 0.38196466 0.65225565 0.65472557
vn 0.69741551 -0.17284151 0.69551235
vn 0.61313801 0.33167094 0.71697711
vn 0.83300835 0.32918134 0.44467600
vn 0.71787937 0.41192646 0.56121814
vn -0.21248162 0.48709580 0.84710639
vn 0.71787937 0.41192646 0.56121814
vn 0.38196466 0.65225565 0.65472557
vn 0.24959851 0.27995207 0.92699915
vn 0.61313801 0.33167094 0.71697711
vn 0.00357479 -0.05473761 0.99849437
vn 0.38453537 -0.26699645 0.88365459
vn -0.70542600 0.26317566 -0.65811300
vn -0.95045849 0.26199552 -0.16729319
vn -0.93564516 0.35201641 -0.02554562
vn -0.71313657 0.21391235 0.66759100
vt 0.00067151 0.00201464
vt 0.00067151 0.00201464
vt 0.00067151 0.00201464
vt 0.00067151 0.00201464
vt 0.00067151 0.00201464
vt 0.00067151 0.00201464
vt 0.00067151 0.00201464
vt 0.00067151 0.00201464
vt 0.00067151 0.00201464
vt 0.00067151 0.00201464
vt 0.00067151 0.00201464
vt 0.00067151 0.00201464
vt 0.43292007 0.32761859
vt 0.45665797 0.00872688
vt 0.42557815 0.33149520
vt 0.42895400 0.32146760
vt 0.26939645 0.45298285
vt 0.26939645 0.45298285
vt 0.43860679 0.32840471
vt 0.43525842 0.33061613
vt 0.44737650 0.00842153
vt 0.43763926 0.32600438
vt 0.20938077 0.49157450
vt 0.44119203 0.32721279
vt 0.26651836 0.43932552
vt 0.26742541 0.44342802
vt 0.43810553 0.32444464
vt 0.26550485 0.44618267
vt 0.26729198 0.45253457
vt 0.26729198 0.45253457
vt 0.26488366 0.44013412
vt 0.26507756 0.43811211
vt 0.20868911 0.49010971
vt 0.20868911 0.49010971
vt 0.20868911 0.49010971
vt 0.20650667 0.48923664
vt 0.44084769 0.12726047
vt 0.26281317 0.43965986
vt 0.26285165 0.44443203
vt 0.26118296 0.44401973
vt 0.43697608 0.12944440
vt 0.26345136 0.45295886
vt 0.26345136 0.45295886
vt 0.42961218 0.13293320
vt 0.26162425 0.45220073
vt 0.26162425 0.45220073
vt 0.25984312 0.45047457
vt 0.43069315 0.13141744
vt 0.43069315 0.13141744
vt 0.42620285 0.12911956
vt 0.43306999 0.12726447
vt 0.43306999 0.12726447
vt 0.42849873 0.12618050
vt 0.42602643 0.13096866
vt 0.26101505 0.45454259
vt 0.26107851 0.46074256
vt 0.41637065 0.13270231
vt 0.25984312 0.46394049
vt 0.42599145 0.13200315
vt 0.26233640 0.45509332
vt 0.26357430 0.46117285
vt 0.26357430 0.46117285
vt 0.26557532 0.45281643
vt 0.26557532 0.45281643
vt 0.26515902 0.45598688
vt 0.26661081 0.45844618
vt 0.26617652 0.46371311
vt 0.26841143 0.46024080
vt 0.42039918 0.32178094
vt 0.41866803 0.32180693
vt 0.26841493 0.46173857
vt 0.41727471 0.32146760
vt 0.26851538 0.46312589
vt 0.41487238 0.32921431
vt 0.46230921 0.00589276
vt 0.41926624 0.33232529
vt 0.46731276 0.00448895
vt 0.41428167 0.33111688
vt 0.42246168 0.33195897
vt 0.45945061 0.00746499
vt 0.45639560 0.00633305
vt 0.46189891 0.00345095
vt 0.46189891 0.00345095
vt 0.46702541 0.00207213
vt 0.46702541 0.00207213
vt 0.45718821 0.00371183
vt 0.23058341 0.48615414
vt 0.41826772 0.12051726
vt 0.46324375 0.00108461
vt 0.41428167 0.12217645
vt 0.46742371 0.00061041
vt 0.41645661 0.12634941
vt 0.22734799 0.48713966
vt 0.45647006 0.00061041
vt 0.42556566 0.12332889
vt 0.43323091 0.12335888
vt 0.19605578 0.49016568
vt 0.43165518 0.12051726
vt 0.45012916 0.00230101
vt 0.45012916 0.00230101
vt 0.23058341 0.49133411
vt 0.45209470 0.00397220
vt 0.45209470 0.00397220
vt 0.44740099 0.00605818
vt 0.21133631 0.48615414
vt 0.44396117 0.00429054
vt 0.44019951 0.32988848
vt 0.21133631 0.48950101
vt 0.44253437 0.00673635
vt 0.20950921 0.48655095
vt 0.44265031 0.00334401
vt 0.20950921 0.48655095
vt 0.05206462 0.49379741
vt 0.44168678 0.12566225
vt 0.20799645 0.48896077
vt 0.20799645 0.48896077
vt 0.20799645 0.48896077
vt 0.43238433 0.12171268
vt 0.05206462 0.48615414
vt 0.44945799 0.00071429
vt 0.19460899 0.49210224
vt 0.43888615 0.12546335
vt 0.19460899 0.48615414
vt 0.20674656 0.48631407
vt 0.43888615 0.12546335
vt 0.04980972 0.49331415
vt 0.41499482 0.12894415
vt 0.41431815 0.12637140
vt 0.26381168 0.46386503
vt 0.26381168 0.46386503
vt 0.26167722 0.46393000
vt 0.26167722 0.46393000
f 6/6/6 4/4/4 5/5/5
f 3/3/3 4/4/4 6/6/6
f 6/6/6 10/10/10 9/9/9
f 10/10/10 5/5/5 8/8/8
f 5/5/5 10/10/10 6/6/6
f 1/1/1 6/6/6 9/9/9
f 5/5/5 7/7/7 8/8/8
f 1/1/1 11/11/11 6/6/6
f 6/6/6 11/11/11 2/2/2
f 3/3/3 6/6/6 2/2/2
f 12/12/12 11/11/11 1/1/1
f 20/20/20 15/15/15 13/13/13
f 13/13/13 15/15/15 16/16/16
f 22/22/22 13/13/13 16/16/16
f 22/22/22 19/19/19 13/13/13
f 20/20/20 13/13/13 19/19/19
f 27/27/27 22/22/22 16/16/16
f 24/24/24 22/22/22 27/27/27
f 19/19/19 22/22/22 24/24/24
f 17/17/17 30/30/30 26/26/26
f 31/31/31 26/26/26 28/28/28
f 30/30/30 28/28/28 26/26/26
f 25/25/25 26/26/26 31/31/31
f 32/32/32 31/31/31 38/38/38
f 32/32/32 25/25/25 31/31/31
f 31/31/31 28/28/28 39/39/39
f 38/38/38 31/31/31 39/39/39
f 47/47/47 40/40/40 39/39/39
f 39/39/39 40/40/40 38/38/38
f 42/42/42 39/39/39 28/28/28
f 42/42/42 45/45/45 39/39/39
f 45/45/45 47/47/47 39/39/39
f 54/54/54 50/50/50 48/48/48
f 50/50/50 53/53/53 48/48/48
f 54/54/54 48/48/48 44/44/44
f 52/52/52 48/48/48 53/53/53
f 49/49/49 51/51/51 41/41/41
f 60/60/60 56/56/56 55/55/55
f 55/55/55 56/56/56 58/58/58
f 57/57/57 50/50/50 54/54/54
f 44/44/44 59/59/59 54/54/54
f 60/60/60 65/65/65 62/62/62
f 62/62/62 56/56/56 60/60/60
f 46/46/46 43/43/43 60/60/60
f 60/60/60 43/43/43 63/63/63
f 60/60/60 63/63/63 65/65/65
f 65/65/65 29/29/29 18/18/18
f 29/29/29 65/65/65 63/63/63
f 61/61/61 65/65/65 66/66/66
f 65/65/65 18/18/18 66/66/66
f 66/66/66 18/18/18 68/68/68
f 67/67/67 66/66/66 68/68/68
f 66/66/66 67/67/67 61/61/61
f 69/69/69 15/15/15 70/70/70
f 71/71/71 67/67/67 68/68/68
f 72/72/72 70/70/70 74/74/74
f 15/15/15 74/74/74 70/70/70
f 79/79/79 76/76/76 74/74/74
f 74/74/74 76/76/76 78/78/78
f 74/74/74 15/15/15 79/79/79
f 80/80/80 14/14/14 81/81/81
f 81/81/81 82/82/82 80/80/80
f 75/75/75 80/80/80 82/82/82
f 84/84/84 77/77/77 82/82/82
f 83/83/83 89/89/89 85/85/85
f 83/83/83 81/81/81 86/86/86
f 77/77/77 75/75/75 82/82/82
f 83/83/83 86/86/86 89/89/89
f 90/90/90 88/88/88 92/92/92
f 85/85/85 89/89/89 91/91/91
f 92/92/92 88/88/88 95/95/95
f 89/89/89 86/86/86 94/94/94
f 95/95/95 118/118/118 96/96/96
f 53/53/53 95/95/95 96/96/96
f 94/94/94 103/103/103 100/100/100
f 101/101/101 93/93/93 87/87/87
f 53/53/53 92/92/92 95/95/95
f 81/81/81 102/102/102 86/86/86
f 81/81/81 104/104/104 102/102/102
f 102/102/102 104/104/104 99/99/99
f 106/106/106 104/104/104 109/109/109
f 99/99/99 104/104/104 106/106/106
f 21/21/21 109/109/109 104/104/104
f 81/81/81 21/21/21 104/104/104
f 23/23/23 35/35/35 108/108/108
f 34/34/34 110/110/110 108/108/108
f 107/107/107 20/20/20 19/19/19
f 107/107/107 19/19/19 24/24/24
f 110/110/110 105/105/105 108/108/108
f 110/110/110 34/34/34 116/116/116
f 117/117/117 124/124/124 112/112/112
f 111/111/111 120/120/120 99/99/99
f 126/126/126 119/119/119 113/113/113
f 99/99/99 106/106/106 111/111/111
f 122/122/122 37/37/37 41/41/41
f 37/37/37 122/122/122 114/114/114
f 52/52/52 96/96/96 125/125/125
f 122/122/122 41/41/41 51/51/51
f 97/97/97 121/121/121 123/123/123
f 36/36/36 115/115/115 33/33/33
f 96/96/96 52/52/52 53/53/53
f 50/50/50 127/127/127 92/92/92
f 127/127/127 128/128/128 92/92/92
f 128/128/128 90/90/90 92/92/92
f 92/92/92 53/53/53 50/50/50
f 57/57/57 127/127/127 50/50/50
f 81/81/81 14/14/14 21/21/21
f 62/62/62 130/130/130 131/131/131
f 67/67/67 129/129/129 61/61/61
f 132/132/132 58/58/58 56/56/56
f 56/56/56 62/62/62 131/131/131
f 28/28/28 64/64/64 42/42/42
f 64/64/64 28/28/28 30/30/30
f 69/69/69 16/16/16 15/15/15
f 71/71/71 73/73/73 67/67/67
f 95/95/95 98/98/98 118/118/118

