# Blender 4.1.1
# www.blender.org
mtllib link_body_13.mtl
o link_body_13
v 0.284025 4.563814 5.640707
v -1.793959 4.237654 5.668724
v -1.304084 1.857691 6.938783
v 2.590488 2.912850 6.006129
v -0.526550 5.873455 4.205133
v 3.182179 5.290531 4.038621
v -1.965489 6.629599 2.114066
v 1.349831 4.660900 4.423876
v 0.852768 6.181934 1.276335
v -1.316339 4.988644 0.715779
v -0.560088 4.493900 3.187374
v -0.117057 6.337852 -0.992939
v 0.567937 5.952980 -0.765284
v -1.692902 7.031552 -0.802030
v -0.098275 6.327287 -0.985632
v -0.708398 6.616238 -0.948409
v 0.087656 5.781289 0.089501
v -0.568982 6.452331 -0.701903
v -0.010264 6.024918 -0.316563
v -0.580609 5.324613 -0.190696
v -0.911113 5.978493 -0.716912
v -1.736358 4.914466 -1.345737
v -1.310833 6.774052 -1.850419
v -0.711693 6.618251 -0.951879
v -1.853637 5.888392 -2.144696
v -1.582152 6.538217 -2.352707
v -1.737252 6.401548 -2.614515
v -1.737252 6.401548 -2.614515
v -3.214281 6.318454 -1.890461
v -5.657323 4.544851 -0.799949
v -4.499279 5.493641 1.421183
v -2.186207 5.253282 -4.357428
v -4.964492 4.005956 -3.473707
v -1.793409 6.343622 -2.734144
v -1.865782 6.249803 -2.853331
v -2.098883 5.890638 -3.295049
v -2.322891 4.047797 -3.661661
v -1.863159 3.821063 -5.237548
v -1.891894 3.153568 -4.629535
v -1.855950 2.690064 -3.321724
v -1.944103 3.550237 -2.168499
v -1.918728 4.440158 -5.203405
v -1.850276 3.879542 -5.273178
v -1.829764 3.792073 -5.275901
v -2.573359 4.279378 -5.302464
v -1.936197 4.594872 -5.182485
v -4.485192 1.890239 -5.391562
v -0.423565 0.973236 -5.453580
v -1.948754 4.620524 -5.145618
v -0.730126 1.877587 -5.380125
v -1.433962 2.842199 -5.339028
v -1.442808 2.859101 -5.337980
v -1.823384 3.772996 -5.277234
v -1.769159 3.638005 -5.286290
v -1.823384 3.772996 -5.277234
v -1.769158 3.638005 -5.286290
v -1.442808 2.859101 -5.337980
v -1.515097 2.366243 -4.595902
v -0.773011 1.839509 -5.280529
v -1.107084 1.884217 -4.704165
v -0.468436 -0.837931 -5.515663
v -2.689322 0.512171 -3.097860
v -0.371708 1.567953 -5.301245
v -0.694691 1.840926 -5.370547
v -3.487778 -0.001153 -0.700545
v -3.013983 2.414890 -0.633993
v -2.403989 -1.762978 -3.184548
v -2.606803 -2.969268 -1.301261
v -1.685044 -2.843245 -3.390893
v -1.121010 -2.068110 -4.447348
v -0.424934 -1.733226 -5.349511
v -1.717776 -3.123179 -4.345777
v -1.535430 -3.508601 -5.235114
v -0.392517 -1.665460 -5.275151
v -0.414778 -1.725250 -5.339301
v -0.415221 -1.726090 -5.340171
v -0.415221 -1.726090 -5.340171
v -0.415221 -1.726090 -5.340171
v -0.415221 -1.726090 -5.340171
v -2.956172 -3.782504 -5.393164
v -1.661490 -4.732354 -5.072131
v -1.955142 -4.539454 -4.074437
v -1.955142 -4.539454 -4.074437
v -1.955142 -4.539454 -4.074437
v -1.955142 -4.539454 -4.074437
v -1.953474 -4.507709 -4.011043
v -1.955142 -4.539454 -4.074437
v -1.955142 -4.539454 -4.074437
v -1.955142 -4.539454 -4.074438
v -1.955142 -4.539454 -4.074437
v -1.955142 -4.539454 -4.074437
v -1.861674 -5.451976 -2.949472
v -1.792776 -5.476726 -4.289145
v -1.695318 -5.938148 -3.750575
v -1.219048 -6.640611 -2.496356
v -1.603100 -6.940292 -1.615153
v -4.060298 -4.947484 -3.424142
v -4.528470 -5.653027 -0.804860
v -5.785355 -3.241426 -3.097911
v -6.405176 -3.422551 0.537970
v -6.975284 -0.691578 -1.979558
v -5.955898 -0.639317 -4.057844
v -4.524621 -1.579383 -5.430413
v -6.133862 1.936574 -3.376152
v -6.965672 2.048455 -0.679672
v -6.229642 3.416587 1.363304
v -6.680348 1.449634 2.554868
v -7.178453 -0.725341 0.860290
v -5.863081 -1.731483 4.018124
v -3.501754 -0.017897 6.369689
v -3.404942 -2.186277 5.996750
v -4.200224 -3.949235 4.445079
v -5.238368 -4.147441 2.776920
v -5.623991 0.475245 4.564899
v -4.116276 2.153102 5.580826
v -5.331270 3.524115 3.512004
v -3.534885 5.053924 3.984991
v -4.085428 -5.659161 2.223954
v -1.216821 -6.161499 3.578578
v -2.041582 -4.539708 5.352149
v -2.130957 -6.860580 0.787425
v 3.185933 -5.284626 4.054475
v 0.818813 -6.183568 1.141109
v -0.263404 -4.787459 3.196203
v -1.395531 -4.910972 0.316168
v 0.656323 -5.922025 -0.726666
v 0.251492 -5.842288 -0.101383
v -0.373138 -6.467367 -0.896501
v -0.263077 -6.337972 -0.701898
v -0.373138 -6.467367 -0.896501
v -0.370516 -6.461822 -0.933818
v -0.296168 -6.424726 -0.957468
v -0.375858 -6.468208 -0.900081
v -0.263081 -6.337974 -0.701904
v -0.236461 -6.394207 -0.978905
v -0.297140 -5.494176 -0.303502
v -0.424133 -6.118875 -0.765324
v -0.475220 -6.500377 -1.018409
v -0.452039 -6.491764 -1.000352
v -0.475220 -6.500377 -1.018409
v -0.475220 -6.500377 -1.018409
v -0.781795 -5.261110 -0.656927
v -0.991536 -5.031581 -0.857224
v -0.753697 -6.576782 -1.384237
v -0.991536 -5.031581 -0.857224
v -0.991536 -5.031581 -0.857225
v -1.243561 -4.953227 -1.170067
v -1.231281 -4.739375 -1.147979
v -1.322946 -4.928546 -1.268610
v -1.322946 -4.928548 -1.268611
v -1.322946 -4.928546 -1.268611
v -1.575381 -4.028283 -1.819789
v -1.685185 -4.533008 -1.914284
v -1.891850 -4.873925 -2.737236
v -1.547783 -5.774063 -2.144851
v -1.891850 -4.873925 -2.737236
v -1.729894 -3.566842 -2.425519
v -1.891850 -4.873925 -2.737236
v -1.929744 -4.028800 -2.974278
v -1.322946 -4.928546 -1.268611
v -1.891850 -4.873925 -2.737236
v -1.891850 -4.873925 -2.737236
v -1.929744 -4.028802 -2.974278
v -1.891850 -4.873925 -2.737236
v -1.929744 -4.028802 -2.974278
v -1.929744 -4.028802 -2.974278
v -1.929744 -4.028802 -2.974278
v -1.929744 -4.028802 -2.974278
v -1.322946 -4.928546 -1.268611
v -1.322946 -4.928546 -1.268611
v -1.322946 -4.928546 -1.268611
v -1.322946 -4.928546 -1.268611
v -1.731874 -3.560164 -2.435046
v -1.786757 -3.690148 -2.584610
v -1.731874 -3.560164 -2.435046
v -1.731874 -3.560164 -2.435046
v -0.090019 -6.248497 -0.480039
v -0.263074 -6.337970 -0.701895
v -0.373138 -6.467367 -0.896501
v -3.161506 -1.882320 1.099328
v -2.343349 -2.931769 2.448250
v -0.726984 -2.581532 4.722289
v -1.913540 -0.147073 4.332397
v 0.299274 -1.765095 5.820191
v -2.170444 2.341418 3.271860
v 0.139386 2.831687 5.279385
v 0.225284 0.737928 5.937860
v -3.158609 1.272793 1.745286
v 1.843940 -0.278177 6.493594
v 2.744605 -3.102679 5.901464
v -1.587723 -1.436478 6.944407
v -0.364193 -3.279643 6.456090
v 0.666190 -5.321287 4.887502
v 1.441383 -4.428435 4.664805
v -1.955142 -4.539454 -4.074438
v -1.394766 4.660114 -0.935640
v -1.936197 4.594872 -5.182485
v -1.793408 6.343622 -2.734144
v -0.564686 6.539165 -1.040338
v -0.564686 6.539165 -1.040338
v -0.519057 6.517950 -1.033761
v -0.117057 6.337852 -0.992940
v -0.707851 6.615081 -0.956194
v -0.708398 6.616238 -0.948409
v -0.705077 6.609215 -0.995680
v -0.705077 6.609215 -0.995680
v -0.708398 6.616238 -0.948409
vn 0.0830 0.5993 0.7962
vn -0.0142 0.8693 0.4941
vn -0.2544 0.5663 0.7839
vn -0.1019 0.2199 0.9702
vn 0.2153 0.3648 0.9059
vn 0.2240 0.8097 0.5425
vn -0.1620 0.9551 0.2482
vn 0.2550 0.9628 0.0897
vn 0.2663 -0.7179 -0.6432
vn 0.1420 -0.7834 -0.6051
vn 0.2127 -0.4370 -0.8739
vn 0.4259 -0.8660 -0.2620
vn 0.6911 -0.7143 -0.1101
vn 0.4588 -0.8880 0.0309
vn 0.5683 -0.6723 -0.4744
vn 0.3179 0.9481 -0.0044
vn 0.4516 0.8824 -0.1317
vn 0.4006 0.9144 -0.0585
vn 0.5303 0.8307 -0.1696
vn 0.4071 -0.9122 0.0455
vn 0.5243 0.8350 -0.1668
vn 0.6925 -0.3124 -0.6503
vn 0.5399 -0.3658 -0.7581
vn 0.5465 -0.3477 -0.7619
vn -0.3904 -0.8280 -0.4026
vn -0.3528 -0.8375 -0.4174
vn -0.3745 -0.8408 -0.3909
vn -0.3843 -0.8506 -0.3588
vn 0.5358 -0.8350 0.1254
vn 0.6353 -0.2587 -0.7276
vn 0.8734 -0.0602 -0.4832
vn 0.8080 -0.3760 -0.4536
vn 0.7168 -0.4261 -0.5519
vn 0.3959 0.9159 0.0661
vn 0.3749 0.9227 -0.0900
vn 0.9146 -0.2295 -0.3328
vn 0.8597 -0.4414 -0.2571
vn -0.2284 0.9229 -0.3099
vn -0.2187 0.9202 -0.3247
vn -0.3634 0.9280 -0.0821
vn -0.0000 1.0000 -0.0000
vn 0.8697 -0.4258 -0.2496
vn 0.8729 -0.4220 -0.2447
vn 0.8532 -0.4440 -0.2737
vn -0.2195 0.9133 -0.3430
vn -0.4572 0.8512 -0.2577
vn -0.6057 0.7753 0.1787
vn -0.6738 0.5629 -0.4787
vn -0.7703 0.6265 -0.1190
vn -0.4192 0.7323 -0.5367
vn -0.2907 0.8263 -0.4825
vn -0.2589 0.8746 -0.4099
vn -0.3045 0.8198 -0.4849
vn 0.9941 0.1081 0.0049
vn 0.9767 -0.1415 -0.1615
vn 0.9149 -0.3530 -0.1957
vn 0.9919 -0.0410 0.1201
vn 0.9611 0.1165 -0.2505
vn 0.9206 0.0838 0.3815
vn 0.9351 0.0614 0.3489
vn 0.9350 0.3112 0.1699
vn 0.9628 0.0711 0.2607
vn 0.9259 0.3776 0.0082
vn 0.0806 0.0730 -0.9941
vn 0.0945 0.0902 -0.9914
vn 0.0580 0.0883 -0.9944
vn 0.8033 0.1706 0.5705
vn 0.1140 0.1415 -0.9833
vn -0.4505 0.6512 -0.6107
vn -0.2425 0.7351 -0.6331
vn 0.1130 0.1457 -0.9829
vn -0.2567 0.7502 -0.6094
vn -0.6937 0.2763 -0.6651
vn 0.0473 0.0611 -0.9970
vn -0.0096 0.0251 -0.9996
vn 0.1695 0.1372 -0.9759
vn 0.1063 0.1081 -0.9884
vn 0.2486 0.2211 -0.9431
vn 0.1314 0.1290 -0.9829
vn 0.1081 0.1107 -0.9880
vn 0.8425 0.3894 0.3722
vn 0.8520 0.3290 0.4073
vn 0.8465 0.3700 0.3828
vn -0.0000 -0.0000 1.0000
vn 0.8284 0.2898 0.4793
vn 0.8447 0.3133 0.4339
vn -0.0000 0.0624 -0.9981
vn 0.8364 0.4155 0.3575
vn 0.8364 0.4156 0.3575
vn 0.8055 0.5595 0.1952
vn 0.7356 0.6077 0.2995
vn 0.6580 0.6363 0.4028
vn 0.7520 0.4754 0.4565
vn 0.7427 0.5241 0.4168
vn 0.8737 -0.0808 0.4797
vn 0.7196 0.0929 0.6881
vn 0.7279 -0.1304 0.6732
vn 0.6764 -0.0935 0.7306
vn 0.5421 -0.2526 0.8015
vn 0.8491 -0.2952 0.4381
vn 0.5432 0.7789 0.3134
vn 0.4474 0.2227 -0.8661
vn 0.3650 0.2010 -0.9091
vn 0.5141 0.7248 0.4587
vn 0.9210 -0.3794 0.0882
vn 0.9933 0.0130 0.1147
vn 0.8407 0.2463 0.4823
vn 0.8780 0.4419 0.1839
vn 0.7655 0.4145 0.4921
vn 0.7023 0.2473 0.6675
vn 0.8164 -0.4698 0.3360
vn 0.7345 -0.5807 0.3511
vn 0.6960 -0.6553 0.2937
vn 0.9120 -0.2499 0.3252
vn 0.9304 -0.3102 0.1951
vn 0.9548 -0.2967 0.0205
vn 0.6560 0.2655 0.7065
vn -0.1699 -0.6874 0.7061
vn -0.1614 -0.6934 0.7023
vn -0.1670 -0.6895 0.7048
vn 0.9243 -0.0198 -0.3811
vn 0.9467 -0.0068 -0.3222
vn 0.9189 -0.0227 -0.3938
vn 0.7082 -0.6500 0.2756
vn 0.7980 -0.0705 -0.5985
vn -0.2397 -0.6348 0.7345
vn 0.7243 -0.0916 -0.6833
vn 0.0192 -0.0260 -0.9995
vn 0.1743 -0.1715 -0.9697
vn 0.1402 -0.1541 -0.9781
vn 0.1369 -0.1446 -0.9800
vn 0.0666 -0.0941 -0.9933
vn 0.9390 -0.1121 0.3251
vn 0.9544 -0.0594 0.2924
vn 0.9984 -0.0572 0.0045
vn -0.0000 -1.0000 -0.0000
vn 0.9908 0.1035 0.0876
vn 0.9617 0.2469 -0.1193
vn 0.9787 0.1657 0.1209
vn 0.9593 0.1062 0.2618
vn 0.9432 0.3322 -0.0057
vn -0.5042 -0.5752 -0.6441
vn -0.4930 -0.6867 -0.5343
vn -0.3983 -0.7900 -0.4660
vn -0.3158 -0.6607 -0.6810
vn -0.2382 -0.8831 -0.4042
vn -0.4023 -0.8795 -0.2541
vn 0.8587 0.4464 -0.2517
vn -0.5478 -0.6878 -0.4763
vn -0.6256 -0.7720 -0.1125
vn -0.7935 -0.4471 -0.4129
vn -0.8826 -0.4658 0.0641
vn -0.9610 -0.1044 -0.2559
vn -0.8141 -0.0731 -0.5761
vn -0.6933 -0.2528 -0.6748
vn -0.0163 -0.0030 -0.9999
vn -0.8490 0.2637 -0.4579
vn -0.9570 0.2729 -0.0981
vn -0.8579 0.4803 0.1825
vn -0.9217 0.1792 0.3440
vn -0.9858 -0.1101 0.1265
vn -0.8099 -0.2358 0.5371
vn -0.4829 -0.3050 0.8208
vn -0.4891 -0.0022 0.8722
vn -0.7697 0.0669 0.6349
vn -0.5704 -0.5430 0.6163
vn -0.7555 -0.5470 0.3606
vn -0.5611 0.3071 0.7687
vn -0.7335 0.4766 0.4846
vn -0.4761 0.6951 0.5387
vn -0.5451 -0.7839 0.2974
vn -0.1553 -0.9807 0.1188
vn -0.0946 -0.9050 0.4147
vn -0.2813 -0.6259 0.7274
vn 0.2277 -0.8143 0.5339
vn 0.2593 -0.9633 0.0696
vn 0.3540 -0.9335 -0.0565
vn 0.4298 0.8733 -0.2295
vn 0.6965 0.7149 -0.0620
vn 0.5015 0.7220 -0.4767
vn 0.1706 0.7866 -0.5934
vn 0.4259 0.9025 0.0642
vn 0.4432 -0.8913 -0.0953
vn 0.4822 -0.8624 -0.1541
vn 0.3405 0.9348 0.1013
vn -0.5510 0.8119 -0.1931
vn -0.5393 0.8136 -0.2170
vn -0.4961 0.8368 -0.2316
vn 0.7148 0.3173 -0.6232
vn 0.7252 0.2417 -0.6447
vn 0.7183 0.2898 -0.6325
vn 0.9701 -0.2425 -0.0000
vn 0.4046 -0.9097 -0.0941
vn 0.4827 -0.8758 -0.0000
vn 0.4171 -0.9028 -0.1048
vn -0.4278 0.8995 0.0890
vn 0.4693 -0.8829 -0.0138
vn 0.4620 -0.8866 0.0245
vn -0.3869 0.8621 -0.3271
vn -0.3611 0.8666 -0.3443
vn 0.7085 0.3371 -0.6200
vn 0.6748 0.3459 -0.6519
vn 0.6172 0.3446 -0.7073
vn 0.7100 0.3367 -0.6185
vn 0.5216 0.4266 -0.7388
vn 0.7497 0.3257 -0.5760
vn 0.4349 0.4566 -0.7761
vn 0.6965 0.3543 -0.6240
vn 0.7768 0.3631 -0.5145
vn 0.7903 0.3032 -0.5324
vn -0.7314 -0.6819 -0.0000
vn -0.8066 -0.5911 -0.0000
vn -0.8679 -0.4967 -0.0000
vn 0.4925 0.8685 0.0556
vn 0.5614 0.8256 0.0571
vn 0.6715 0.7242 0.1567
vn 0.7071 0.7071 -0.0000
vn -0.4472 -0.8944 -0.0000
vn -0.9652 -0.2614 -0.0000
vn 0.7443 0.6431 0.1798
vn 0.7071 -0.0000 -0.7071
vn 0.7810 0.0196 -0.6242
vn 0.8265 0.1498 -0.5427
vn 1.0000 -0.0000 -0.0000
vn 0.7523 0.6050 0.2608
vn 0.7847 0.0098 -0.6198
vn 0.8485 -0.0774 -0.5235
vn 0.9151 -0.0844 -0.3942
vn 0.8480 -0.0801 -0.5239
vn 0.9047 -0.1203 -0.4088
vn 0.9239 0.0069 -0.3827
vn 0.9200 0.1677 -0.3543
vn 0.8575 -0.0000 -0.5145
vn 0.8823 0.3202 -0.3451
vn 0.9811 0.1042 -0.1630
vn 0.9549 -0.1032 -0.2786
vn 0.9652 -0.0647 -0.2535
vn 0.9718 -0.0223 -0.2348
vn 0.9902 -0.1398 -0.0068
vn 0.9923 -0.0000 -0.1240
vn 0.9195 -0.0000 0.3931
vn 0.4601 -0.0000 0.8879
vn 0.9653 0.0328 0.2591
vn 0.8389 0.1502 -0.5231
vn 0.4613 -0.0000 0.8873
vn 0.9593 -0.2464 -0.1378
vn 0.9587 -0.0971 -0.2674
vn -0.6667 -0.3333 0.6667
vn 0.5113 -0.1313 0.8493
vn -0.8270 -0.5623 -0.0000
vn 0.7866 0.5170 0.3376
vn 0.7523 0.6026 0.2665
vn 0.4198 -0.8983 -0.1299
vn 0.5214 -0.8530 -0.0242
vn 0.4186 -0.8997 -0.1235
vn 0.4434 -0.8938 -0.0673
vn 0.6172 0.3360 -0.7115
vn 0.5017 0.3253 -0.8015
vn -0.8638 0.5039 -0.0000
vn -0.8078 0.1471 0.5708
vn -0.8192 0.0568 0.5706
vn -0.8199 0.0490 0.5704
vn 0.7731 -0.3974 -0.4943
vn 0.9493 0.2680 -0.1646
vn 0.8191 0.4303 -0.3793
vn 0.6067 0.4016 -0.6860
vn 0.7719 0.0231 -0.6354
vn 0.4214 0.2663 -0.8669
vn 0.4496 -0.1218 -0.8849
vn 0.7935 -0.3663 -0.4859
vn 0.4736 -0.4080 -0.7805
vn 0.9458 -0.1901 -0.2632
vn 0.2533 0.0305 -0.9669
vn 0.1772 -0.0319 0.9837
vn 0.1987 0.4747 -0.8574
vn -0.1269 -0.1721 0.9769
vn 0.2078 -0.4010 0.8922
vn 0.0123 -0.3965 0.9180
vn 0.1045 -0.7555 0.6468
vn 0.2686 0.6736 -0.6886
vn 0.8511 -0.4600 0.2531
vn 0.7592 -0.6412 0.1116
vn 0.7658 -0.0082 -0.6430
vn 0.8140 0.2351 0.5311
vn 0.9582 0.0707 0.2772
vn 0.9714 0.0915 0.2192
vn 0.8877 -0.4038 -0.2212
vn -0.0000 0.7850 -0.6195
vn -0.0000 0.8357 -0.5491
vn -0.0000 0.7071 -0.7071
vn -0.0000 0.8937 -0.4487
vn -0.4842 -0.8372 -0.2542
vn -0.4774 -0.8465 -0.2357
vn -0.5034 -0.8354 -0.2207
vn -0.3541 -0.8689 -0.3459
vn -0.3602 -0.8670 -0.3444
vn -0.3541 -0.8688 -0.3461
vn 0.6441 0.7649 -0.0000
vn 0.0387 0.9992 -0.0097
vn 0.4171 0.9028 -0.1048
vn -0.5527 -0.8055 -0.2137
vn -0.7874 -0.6154 0.0361
vn -0.4171 -0.9028 0.1048
vn 0.4171 0.9028 -0.1047
vt 0.610683 0.390343
vt 0.619463 0.395686
vt 0.608519 0.404153
vt 0.592637 0.400939
vt 0.599687 0.375031
vt 0.615589 0.371039
vt 0.694649 0.540457
vt 0.696200 0.520651
vt 0.707074 0.542659
vt 0.724462 0.545173
vt 0.720314 0.526133
vt 0.052808 0.747031
vt 0.040654 0.751256
vt 0.044474 0.735233
vt 0.881592 0.804900
vt 0.885280 0.793240
vt 0.905093 0.799924
vt 0.915397 0.789539
vt 0.914477 0.799428
vt 0.898622 0.786173
vt 0.741058 0.534946
vt 0.736560 0.524386
vt 0.738428 0.528294
vt 0.736448 0.524287
vt 0.917893 0.804900
vt 0.732698 0.520651
vt 0.697865 0.977466
vt 0.694042 0.978142
vt 0.694042 0.971806
vt 0.921152 0.797920
vt 0.917139 0.800077
vt 0.918282 0.796604
vt 0.699332 0.972753
vt 0.525266 0.124932
vt 0.535268 0.133283
vt 0.526069 0.133897
vt 0.520684 0.132836
vt 0.529840 0.136591
vt 0.738461 0.528305
vt 0.745658 0.528969
vt 0.533370 0.126865
vt 0.537036 0.129795
vt 0.749076 0.528398
vt 0.998815 0.970948
vt 0.996691 0.970910
vt 0.537904 0.127889
vt 0.537904 0.127889
vt 0.750880 0.528150
vt 0.750995 0.538471
vt 0.545038 0.278548
vt 0.554107 0.272478
vt 0.559978 0.295418
vt 0.573856 0.264232
vt 0.570383 0.281855
vt 0.760842 0.522853
vt 0.755247 0.526992
vt 0.559760 0.256397
vt 0.751667 0.527964
vt 0.752453 0.527803
vt 0.534287 0.110745
vt 0.539549 0.122158
vt 0.538589 0.126022
vt 0.542747 0.114580
vt 0.524328 0.114304
vt 0.541853 0.103952
vt 0.542273 0.104137
vt 0.535973 0.102741
vt 0.544098 0.107298
vt 0.527141 0.105388
vt 0.166598 0.811569
vt 0.166273 0.811069
vt 0.172022 0.812437
vt 0.541945 0.103686
vt 0.168284 0.814911
vt 0.669579 0.971806
vt 0.669579 0.978690
vt 0.666593 0.975473
vt 0.567381 0.250932
vt 0.168741 0.815837
vt 0.833990 0.975159
vt 0.833728 0.971891
vt 0.833990 0.971806
vt 0.586903 0.252669
vt 0.151142 0.796644
vt 0.178587 0.793199
vt 0.155091 0.801597
vt 0.166190 0.810964
vt 0.161662 0.806032
vt 0.161756 0.806118
vt 0.165548 0.810244
vt 0.538621 0.098934
vt 0.541397 0.102897
vt 0.999298 0.971531
vt 0.541877 0.103587
vt 0.699344 0.977410
vt 0.699332 0.978375
vt 0.699332 0.971806
vt 0.532707 0.099119
vt 0.538560 0.098850
vt 0.541397 0.102897
vt 0.978393 0.882221
vt 0.970239 0.878686
vt 0.981306 0.879964
vt 0.985626 0.880923
vt 0.986248 0.881239
vt 0.981761 0.886022
vt 0.987502 0.870194
vt 0.970239 0.870194
vt 0.983148 0.856883
vt 0.976148 0.859710
vt 0.977877 0.856149
vt 0.517394 0.093820
vt 0.531399 0.096596
vt 0.987800 0.878686
vt 0.154786 0.801447
vt 0.152145 0.800464
vt 0.986401 0.880968
vt 0.511639 0.113063
vt 0.502518 0.099505
vt 0.508938 0.081761
vt 0.525079 0.079755
vt 0.824300 0.445442
vt 0.812079 0.449487
vt 0.822495 0.438668
vt 0.494104 0.082443
vt 0.170056 0.986038
vt 0.168095 0.971806
vt 0.174478 0.977838
vt 0.176712 0.971806
vt 0.152399 0.964321
vt 0.153553 0.970443
vt 0.152867 0.970332
vt 0.163469 0.962538
vt 0.158087 0.959450
vt 0.152749 0.955596
vt 0.174916 0.983393
vt 0.999559 0.971528
vt 0.999102 0.971492
vt 0.999648 0.971492
vt 0.740362 0.977785
vt 0.739770 0.972169
vt 0.740278 0.971852
vt 0.740285 0.971847
vt 0.999383 0.971531
vt 0.999298 0.971531
vt 0.999377 0.971528
vt 0.740362 0.971806
vt 0.147341 0.785230
vt 0.145033 0.779719
vt 0.147956 0.766107
vt 0.145967 0.758161
vt 0.156232 0.761202
vt 0.164560 0.952227
vt 0.169265 0.956674
vt 0.164139 0.952025
vt 0.669579 0.971806
vt 0.669579 0.978766
vt 0.669579 0.971806
vt 0.669579 0.978790
vt 0.164623 0.942607
vt 0.170088 0.949524
vt 0.999569 0.971528
vt 0.999102 0.971528
vt 0.170187 0.944820
vt 0.209051 0.680922
vt 0.205154 0.670895
vt 0.206124 0.667467
vt 0.145033 0.753144
vt 0.207056 0.658675
vt 0.211974 0.654757
vt 0.168225 0.935398
vt 0.221304 0.672977
vt 0.232056 0.659193
vt 0.232997 0.676420
vt 0.160315 0.751256
vt 0.174914 0.757994
vt 0.248023 0.657143
vt 0.619744 0.295949
vt 0.606488 0.277892
vt 0.619744 0.271561
vt 0.605083 0.263689
vt 0.608121 0.254577
vt 0.171009 0.771432
vt 0.181943 0.773954
vt 0.589380 0.266674
vt 0.588844 0.284773
vt 0.577111 0.297087
vt 0.589344 0.306369
vt 0.605108 0.296749
vt 0.605482 0.317635
vt 0.565821 0.414882
vt 0.580210 0.415530
vt 0.568953 0.431159
vt 0.583587 0.429581
vt 0.554190 0.420127
vt 0.552964 0.426979
vt 0.619475 0.310660
vt 0.591047 0.319773
vt 0.594678 0.419587
vt 0.576202 0.324774
vt 0.572543 0.310807
vt 0.558256 0.312187
vt 0.614036 0.415672
vt 0.546018 0.298167
vt 0.716289 0.556985
vt 0.700279 0.551377
vt 0.239022 0.640092
vt 0.248023 0.640413
vt 0.247294 0.627369
vt 0.222663 0.642381
vt 0.226375 0.623136
vt 0.237348 0.615279
vt 0.202478 0.606380
vt 0.206793 0.630945
vt 0.784997 0.430435
vt 0.797040 0.443281
vt 0.776925 0.445019
vt 0.762426 0.426697
vt 0.794323 0.430899
vt 0.207225 0.646640
vt 0.201940 0.642359
vt 0.796979 0.426697
vt 0.633720 0.979295
vt 0.633757 0.977619
vt 0.634700 0.979231
vt 0.604426 0.978206
vt 0.603351 0.979455
vt 0.604426 0.978206
vt 0.207229 0.646669
vt 0.207094 0.646849
vt 0.206598 0.646750
vt 0.634339 0.979329
vt 0.206193 0.646685
vt 0.800232 0.430194
vt 0.634700 0.971806
vt 0.603586 0.977077
vt 0.605549 0.972229
vt 0.603329 0.979469
vt 0.602694 0.979857
vt 0.602694 0.971806
vt 0.996767 0.971094
vt 0.996691 0.970948
vt 0.999222 0.970948
vt 0.592708 0.971806
vt 0.592708 0.980242
vt 0.591765 0.974154
vt 0.162894 0.929854
vt 0.153050 0.933405
vt 0.153196 0.931425
vt 0.775214 0.971806
vt 0.775394 0.973738
vt 0.160717 0.928262
vt 0.797331 0.434152
vt 0.800958 0.436397
vt 0.802960 0.437486
vt 0.996691 0.970948
vt 0.999407 0.970948
vt 0.775214 0.976401
vt 0.805655 0.438618
vt 0.154542 0.935967
vt 0.152978 0.936113
vt 0.811390 0.440101
vt 0.154185 0.935353
vt 0.155505 0.940952
vt 0.152399 0.942526
vt 0.162692 0.937089
vt 0.160816 0.943859
vt 0.152633 0.947579
vt 0.157453 0.948555
vt 0.752245 0.977175
vt 0.752245 0.971806
vt 0.746341 0.977582
vt 0.746341 0.971806
vt 0.746341 0.977582
vt 0.157453 0.948555
vt 0.153974 0.947906
vt 0.152639 0.947656
vt 0.768595 0.971806
vt 0.768595 0.976732
vt 0.768595 0.973172
vt 0.999298 0.971531
vt 0.999370 0.971531
vt 0.816031 0.440197
vt 0.815961 0.440200
vt 0.207870 0.650700
vt 0.207425 0.647677
vt 0.207425 0.647677
vt 0.207350 0.647498
vt 0.605769 0.977104
vt 0.777377 0.971806
vt 0.780884 0.971806
vt 0.777998 0.976101
vt 0.633757 0.977619
vt 0.633627 0.975860
vt 0.485487 0.096874
vt 0.477818 0.079755
vt 0.474139 0.097437
vt 0.788823 0.458437
vt 0.771394 0.456164
vt 0.474956 0.119929
vt 0.463322 0.109857
vt 0.074509 0.715102
vt 0.059721 0.704177
vt 0.066608 0.698881
vt 0.060199 0.720794
vt 0.490403 0.128709
vt 0.481568 0.141599
vt 0.494396 0.116068
vt 0.060804 0.734781
vt 0.514500 0.133760
vt 0.049413 0.713977
vt 0.578460 0.380013
vt 0.043471 0.695278
vt 0.570748 0.402831
vt 0.559721 0.374018
vt 0.558524 0.394691
vt 0.550213 0.405810
vt 0.545038 0.387806
vt 0.219803 0.609481
vt 0.545319 0.371039
vt 0.040654 0.680994
vt 0.052208 0.686614
vt 0.764142 0.440025
vt 0.063624 0.684401
vt 0.065573 0.746067
vt 0.499305 0.141533
vt 0.522070 0.125547
vt 0.925270 0.794497
vt 0.544592 0.108178
vt 0.544495 0.108443
vt 0.538318 0.127059
vt 0.998570 0.971094
vt 0.999378 0.971094
vt 0.999750 0.970910
vt 0.923101 0.799000
vt 0.922917 0.799252
vt 0.921295 0.801608
vt 0.921398 0.801518
vt 0.738432 0.527064
vt 0.738470 0.528264
vt 0.923068 0.797872
vt 0.923024 0.797844
vt 0.738683 0.528110
s 1
usemtl pleuraldeles_skin
f 1/1/1 5/2/2 2/3/3
f 2/3/3 3/4/4 1/1/1
f 4/5/5 1/1/1 3/4/4
f 4/5/5 6/6/6 1/1/1
f 1/7/1 6/8/6 5/9/2
f 5/9/2 6/8/6 7/10/7
f 7/10/7 6/8/6 9/11/8
f 8/12/9 6/13/10 4/14/11
f 6/15/10 8/16/9 9/17/12
f 9/17/12 10/18/13 17/19/14
f 11/20/15 10/18/13 9/17/12
f 11/20/15 9/17/12 8/16/9
f 7/10/7 9/11/8 14/21/16
f 9/11/8 12/22/17 16/23/18
f 15/24/19 12/22/17 9/11/8
f 17/19/14 13/25/20 9/17/12
f 13/26/21 15/24/19 9/11/8
f 16/23/18 14/21/16 9/11/8
f 21/27/22 18/28/23 17/29/24
f 17/19/25 18/30/26 19/31/27
f 17/19/25 19/31/27 13/25/28
f 20/32/29 17/19/14 10/18/13
f 21/27/22 17/29/24 20/33/30
f 22/34/31 23/35/32 21/36/22
f 20/37/30 22/34/31 21/36/22
f 21/36/22 23/35/32 24/38/33
f 16/23/18 24/39/34 14/21/16
f 24/39/34 23/40/35 14/21/16
f 22/34/31 25/41/36 23/35/32
f 26/42/37 23/35/32 25/41/36
f 23/40/38 26/43/39 14/21/40
f 28/44/41 26/45/41 27/44/41
f 25/41/42 27/46/43 26/42/44
f 25/41/42 28/47/43 26/42/44
f 28/48/45 29/49/46 26/43/39
f 29/49/46 14/21/40 26/43/39
f 14/50/40 29/51/46 31/52/47
f 29/51/46 33/53/48 30/54/49
f 30/54/49 31/52/47 29/51/46
f 32/55/50 29/49/46 36/56/51
f 32/57/50 33/53/48 29/51/46
f 34/58/52 29/49/46 28/48/45
f 29/49/46 34/58/52 35/59/53
f 29/49/46 35/59/53 36/56/51
f 22/34/31 37/60/54 36/61/55
f 22/34/31 36/61/55 25/41/36
f 36/61/55 35/62/56 25/41/36
f 32/63/57 36/61/55 37/60/54
f 41/64/58 37/60/54 22/34/31
f 37/60/54 38/65/59 43/66/60
f 37/60/54 39/67/61 38/65/59
f 32/63/57 37/60/54 42/68/62
f 40/69/63 39/67/61 37/60/54
f 37/60/54 41/64/58 40/69/63
f 43/66/60 42/68/62 37/60/54
f 43/70/64 44/71/65 45/72/66
f 43/66/60 38/65/59 44/73/67
f 45/72/66 42/74/68 43/70/64
f 45/75/69 32/76/50 49/77/70
f 45/78/69 33/53/48 32/57/50
f 45/72/66 46/79/71 42/74/68
f 45/80/69 49/81/70 46/82/72
f 47/83/73 33/53/48 45/78/69
f 45/72/66 48/84/74 47/85/75
f 50/86/76 48/84/74 45/72/66
f 45/72/66 44/71/65 53/87/77
f 51/88/78 50/86/76 45/72/66
f 52/89/79 51/88/78 45/72/66
f 54/90/80 52/89/79 45/72/66
f 53/87/77 54/90/80 45/72/66
f 52/91/81 54/92/82 39/67/83
f 52/93/84 54/93/84 57/93/84
f 54/93/84 53/93/84 55/93/84
f 54/92/82 53/94/85 38/65/86
f 54/92/82 38/65/86 39/67/83
f 54/95/87 55/96/87 56/95/87
f 54/95/87 56/95/87 57/97/87
f 58/98/88 51/99/89 57/91/81
f 57/93/84 51/93/84 52/93/84
f 57/91/81 56/100/82 39/67/83
f 39/67/83 58/98/88 57/91/81
f 58/101/90 40/102/63 60/103/91
f 40/69/63 58/98/90 39/67/61
f 39/67/83 58/98/88 52/91/81
f 59/104/92 58/101/90 60/103/91
f 58/101/90 59/104/92 50/105/93
f 58/101/90 50/105/93 51/106/94
f 58/98/88 51/99/89 52/91/81
f 62/107/95 61/108/96 60/109/97
f 60/109/97 61/108/96 48/110/98
f 48/110/98 63/111/99 60/109/97
f 62/112/95 60/113/97 40/69/100
f 63/114/101 59/104/92 60/103/91
f 64/115/102 63/116/103 48/84/74
f 63/114/101 64/117/104 59/104/92
f 50/86/76 64/115/102 48/84/74
f 62/112/95 66/118/105 65/119/106
f 62/112/95 65/119/106 67/120/107
f 67/120/107 61/121/96 62/112/95
f 40/69/100 66/118/105 62/112/95
f 67/122/107 68/123/108 69/124/109
f 67/120/107 65/119/106 68/125/108
f 61/126/96 67/127/107 70/128/110
f 69/129/109 70/128/110 67/127/107
f 70/130/111 71/131/112 74/132/113
f 70/130/111 73/133/114 71/131/112
f 70/130/111 72/134/115 73/133/114
f 69/135/116 72/134/115 70/130/111
f 70/128/110 74/136/117 61/126/96
f 75/137/118 74/138/119 71/139/120
f 61/140/121 74/141/122 75/142/123
f 78/93/84 76/93/84 75/93/124
f 76/93/84 77/93/84 75/93/124
f 61/140/121 75/142/123 77/143/125
f 75/144/118 71/145/120 78/146/126
f 78/93/84 79/93/84 76/93/84
f 77/93/84 79/93/84 78/93/84
f 77/93/84 78/93/84 71/93/84
f 77/93/84 76/93/84 79/93/84
f 71/147/127 61/140/121 77/143/125
f 61/148/128 71/149/129 73/150/130
f 73/150/130 81/151/131 80/152/132
f 80/152/132 61/148/128 73/150/130
f 73/133/114 82/153/133 81/154/134
f 72/134/115 82/153/133 73/133/114
f 86/155/135 82/153/133 72/134/115
f 89/156/136 81/157/136 82/156/136
f 82/93/84 83/93/84 90/93/84
f 82/93/84 87/93/84 83/93/84
f 82/93/84 90/93/84 84/93/84
f 82/93/84 84/93/84 89/93/84
f 82/93/84 85/93/84 87/93/84
f 82/93/84 88/93/84 85/93/84
f 82/153/133 86/155/135 88/153/84
f 89/93/84 84/93/84 90/93/84
f 90/93/84 83/93/84 87/93/84
f 90/93/84 87/93/84 91/93/84
f 90/93/84 91/93/84 89/93/84
f 89/158/41 91/158/41 81/159/41
f 91/153/137 86/155/135 92/160/138
f 92/160/138 93/161/139 91/153/137
f 91/93/84 87/93/84 88/93/84
f 91/153/137 93/161/139 81/154/140
f 91/162/84 88/162/84 86/163/84
f 93/161/139 92/160/138 94/164/141
f 80/165/142 93/166/143 94/167/144
f 80/152/142 81/151/145 93/168/143
f 94/167/144 95/169/146 96/170/147
f 92/160/138 95/171/148 94/164/141
f 97/172/149 94/167/144 96/170/147
f 97/172/149 80/165/142 94/167/144
f 96/170/147 98/173/150 97/172/149
f 98/173/150 99/174/151 97/172/149
f 80/152/142 97/175/149 99/176/151
f 98/173/150 100/177/152 99/174/151
f 100/178/152 101/179/153 99/180/151
f 99/180/151 101/179/153 102/181/154
f 103/182/155 99/180/151 102/181/154
f 80/152/142 99/176/151 103/183/155
f 48/84/74 61/148/128 103/183/156
f 103/183/156 61/148/128 80/152/132
f 47/85/75 48/84/74 103/183/156
f 102/184/154 47/85/73 103/183/155
f 102/181/154 104/185/157 47/83/73
f 104/185/157 102/181/154 101/179/153
f 104/185/157 105/186/158 30/54/49
f 101/179/153 105/186/158 104/185/157
f 47/83/73 104/185/157 33/53/48
f 104/185/157 30/54/49 33/53/48
f 30/54/49 105/186/158 106/187/159
f 105/186/158 107/188/160 106/187/159
f 105/186/158 108/189/161 107/188/160
f 101/179/153 108/189/161 105/186/158
f 100/178/152 108/189/161 101/179/153
f 109/190/162 108/189/161 100/178/152
f 109/190/162 107/188/160 108/189/161
f 111/191/163 110/192/164 109/193/162
f 109/193/162 110/192/164 114/194/165
f 111/191/163 109/193/162 112/195/166
f 113/196/167 112/195/166 109/193/162
f 100/178/152 113/197/167 109/190/162
f 109/190/162 114/198/165 107/188/160
f 115/199/168 114/194/165 110/192/164
f 114/198/165 115/200/168 116/201/169
f 107/188/160 114/198/165 116/201/169
f 107/188/160 116/201/169 106/187/159
f 116/201/169 31/52/47 106/187/159
f 31/52/47 116/201/169 117/202/170
f 117/202/170 116/201/169 115/200/168
f 117/203/170 115/199/168 2/3/3
f 7/204/7 31/52/47 117/202/170
f 7/10/7 117/205/170 5/9/2
f 2/206/3 5/9/2 117/205/170
f 115/199/168 110/192/164 3/4/4
f 3/4/4 2/3/3 115/199/168
f 118/207/171 113/208/167 100/177/152
f 112/209/166 113/208/167 118/207/171
f 121/210/172 119/211/173 118/207/171
f 119/211/173 120/212/174 118/207/171
f 120/212/174 112/209/166 118/207/171
f 121/210/172 118/207/171 98/173/150
f 118/207/171 100/177/152 98/173/150
f 98/173/150 96/170/147 121/210/172
f 122/213/175 119/211/173 121/210/172
f 123/214/176 122/213/175 121/210/172
f 121/210/172 96/170/177 123/214/176
f 123/215/178 125/216/179 124/217/180
f 124/217/180 122/218/181 123/215/178
f 125/216/179 123/215/178 127/219/182
f 128/220/183 123/214/176 96/170/177
f 126/221/184 123/214/176 128/220/183
f 123/215/178 126/222/185 127/219/182
f 128/223/186 129/224/187 135/225/188
f 129/226/189 128/227/190 134/228/191
f 128/227/192 130/227/192 134/228/192
f 133/229/193 130/220/194 128/220/183
f 128/220/195 131/230/195 132/231/195
f 135/225/188 132/232/196 128/223/186
f 132/231/197 126/221/184 128/220/183
f 133/229/193 128/220/183 96/170/177
f 132/231/197 135/233/198 126/221/184
f 127/219/199 126/222/200 135/234/188
f 129/224/187 127/235/199 135/225/188
f 134/228/191 130/227/201 137/236/202
f 136/237/203 134/228/191 137/236/202
f 134/228/191 136/237/203 129/226/189
f 140/93/84 138/93/84 137/93/84
f 130/227/201 133/238/204 137/236/202
f 133/238/204 139/239/205 137/236/202
f 137/236/202 142/240/206 136/237/203
f 139/241/205 140/242/207 137/243/202
f 140/93/192 141/93/192 137/93/192
f 141/244/208 142/245/206 137/246/202
f 144/247/209 143/248/210 142/249/206
f 142/250/211 143/251/212 145/251/213
f 144/247/209 142/249/206 141/252/208
f 136/253/214 142/254/215 125/216/179
f 145/255/216 125/216/179 142/254/215
f 145/93/217 146/93/217 148/93/217
f 146/256/218 145/256/213 147/257/219
f 147/258/219 145/251/213 143/251/212
f 148/259/220 125/216/179 145/255/216
f 149/260/221 148/261/222 150/260/223
f 151/260/224 148/261/224 149/260/224
f 68/123/108 148/259/220 152/262/225
f 68/123/108 125/216/179 148/259/220
f 148/261/222 146/248/222 147/263/226
f 147/263/226 150/260/223 148/261/222
f 151/260/227 153/264/228 148/261/229
f 153/264/228 152/265/230 148/261/229
f 161/93/84 154/93/84 153/93/231
f 158/93/84 153/93/231 154/93/84
f 150/260/223 153/264/232 160/260/233
f 150/260/223 155/266/234 153/264/232
f 155/266/234 156/267/235 153/264/232
f 156/93/84 161/93/84 153/93/231
f 157/268/236 153/264/228 159/269/237
f 152/265/230 153/264/228 157/268/236
f 153/270/41 151/271/41 160/271/41
f 153/264/228 158/267/238 159/269/237
f 161/93/84 162/93/84 164/93/84
f 158/93/84 162/93/84 161/93/84
f 156/93/84 163/93/84 161/93/84
f 159/272/239 161/273/240 163/274/241
f 159/93/84 158/93/84 161/93/84
f 161/93/84 164/93/84 154/93/84
f 158/93/84 154/93/84 164/93/84
f 162/93/84 158/93/84 164/93/84
f 156/93/84 165/93/84 163/93/84
f 165/93/84 166/93/84 163/93/84
f 163/93/84 166/93/84 167/93/84
f 163/93/84 167/93/84 168/93/242
f 163/93/241 168/93/242 159/93/239
f 165/93/84 168/93/242 167/93/84
f 168/275/242 165/275/243 86/155/135
f 168/275/242 86/155/135 159/269/239
f 166/93/84 165/93/84 167/93/84
f 165/275/243 156/267/235 86/155/135
f 150/93/84 160/93/84 169/93/84
f 169/93/84 160/93/84 151/93/84
f 169/93/84 151/93/84 149/93/224
f 169/93/84 170/93/84 150/93/244
f 171/93/84 170/93/84 169/93/84
f 149/93/224 172/93/245 169/93/84
f 172/93/245 171/93/84 169/93/84
f 172/93/245 149/93/224 150/93/224
f 150/93/84 171/93/84 172/93/84
f 150/93/244 170/93/84 171/93/84
f 86/155/135 72/134/115 159/269/239
f 159/269/239 72/134/115 69/135/116
f 159/269/239 69/135/116 174/276/246
f 157/268/236 159/269/237 173/277/247
f 173/278/248 159/279/248 174/280/248
f 174/93/84 175/93/84 173/93/84
f 176/277/249 175/277/84 174/276/246
f 176/277/249 174/276/246 69/135/116
f 157/281/250 175/282/250 176/282/250
f 176/283/251 68/123/108 157/284/252
f 176/283/251 69/124/109 68/123/108
f 157/93/84 173/93/84 175/93/84
f 68/123/108 152/262/225 157/284/252
f 92/160/138 156/267/235 155/266/234
f 156/267/235 92/160/138 86/155/135
f 92/160/138 155/266/234 95/171/148
f 155/266/234 144/247/209 95/171/148
f 144/247/209 155/266/234 150/260/223
f 144/247/209 150/260/223 143/248/210
f 147/263/226 143/248/210 150/260/223
f 144/285/253 141/286/254 96/170/177
f 95/169/255 144/285/253 96/170/177
f 96/170/177 141/286/254 140/287/256
f 140/287/256 139/288/195 133/229/193
f 140/287/256 133/229/193 96/170/177
f 136/237/203 177/289/257 129/226/189
f 127/290/258 177/291/257 136/292/203
f 127/219/182 136/253/214 125/216/179
f 178/293/259 129/224/259 177/294/259
f 127/235/260 178/293/261 177/294/260
f 178/293/261 127/235/260 129/224/262
f 179/93/84 130/93/84 133/93/263
f 179/93/84 133/93/263 130/93/84
f 68/125/108 180/295/264 125/296/179
f 180/295/264 181/297/265 125/296/179
f 181/298/265 124/217/180 125/216/179
f 182/299/266 124/217/180 181/298/265
f 183/300/267 182/301/266 181/297/265
f 181/297/265 180/295/264 183/300/267
f 183/302/267 184/303/268 182/304/266
f 183/302/267 187/305/269 184/303/268
f 185/306/270 186/307/271 183/300/267
f 188/308/272 185/306/270 183/300/267
f 183/302/267 186/309/271 187/305/269
f 180/295/264 188/308/272 183/300/267
f 65/119/106 188/308/272 180/295/264
f 66/118/105 188/308/272 65/119/106
f 10/310/13 185/306/270 188/308/272
f 66/118/105 10/310/13 188/308/272
f 186/309/271 4/14/11 187/305/269
f 189/311/273 184/303/268 187/305/269
f 187/305/269 4/14/11 189/311/273
f 3/4/4 189/312/274 4/5/5
f 184/303/268 189/311/273 190/313/275
f 191/314/276 190/315/277 189/312/274
f 3/4/4 191/314/276 189/312/274
f 192/316/278 191/314/276 120/317/174
f 120/317/174 191/314/276 111/191/163
f 191/314/276 3/4/4 110/192/164
f 191/314/276 110/192/164 111/191/163
f 192/316/278 190/315/277 191/314/276
f 192/316/278 193/318/279 190/315/277
f 120/317/174 193/318/279 192/316/278
f 193/319/279 120/212/174 119/211/173
f 122/213/175 193/319/279 119/211/173
f 122/320/175 190/315/277 193/318/279
f 190/313/275 122/321/181 194/322/280
f 190/313/275 194/322/280 184/303/268
f 194/323/280 122/218/181 124/217/180
f 194/322/280 124/324/180 182/304/266
f 184/303/268 194/322/280 182/304/266
f 11/325/15 8/12/9 186/309/271
f 11/326/15 186/307/271 185/306/270
f 8/12/9 4/14/11 186/309/271
f 10/310/13 11/326/15 185/306/270
f 68/125/108 65/119/106 180/295/264
f 120/317/174 111/191/163 112/195/166
f 30/54/49 106/187/159 31/52/47
f 89/93/84 195/93/84 84/93/84
f 87/93/84 85/93/84 88/93/84
f 41/64/281 196/327/282 66/118/105
f 196/327/282 10/310/13 66/118/105
f 66/118/105 40/69/100 41/64/281
f 10/18/13 196/328/282 20/32/29
f 22/34/31 196/327/283 41/64/58
f 22/34/31 20/37/30 196/327/283
f 56/100/82 55/94/85 38/65/86
f 56/100/82 38/65/86 39/67/83
f 53/93/84 44/93/84 55/93/84
f 55/94/85 44/73/284 38/65/86
f 44/73/284 38/65/86 53/94/85
f 197/329/285 49/330/285 42/68/285
f 49/93/84 197/93/84 46/93/84
f 42/68/62 49/330/286 32/63/57
f 42/68/285 46/329/285 49/330/285
f 42/93/84 46/93/84 197/93/84
f 25/41/42 35/62/287 34/331/287
f 25/41/42 35/62/287 198/331/287
f 34/93/288 198/93/289 35/93/290
f 27/332/291 198/333/289 34/333/288
f 25/41/42 198/331/287 27/46/43
f 27/44/84 34/334/84 28/44/84
f 25/41/42 34/331/287 28/47/43
f 14/50/40 31/52/47 7/204/7
f 199/335/292 19/31/293 18/30/294
f 201/336/295 19/31/293 199/335/292
f 19/31/293 18/30/294 200/335/292
f 201/336/295 19/31/293 200/335/292
f 15/337/296 19/31/27 201/336/297
f 15/337/296 13/25/28 19/31/27
f 12/338/297 15/337/297 201/336/295
f 202/338/297 15/337/297 201/336/295
f 199/335/292 202/338/297 201/336/295
f 200/335/292 12/338/297 201/336/295
f 12/22/298 15/24/298 202/22/298
f 202/22/299 199/339/300 203/340/300
f 12/22/41 202/22/299 203/340/300
f 18/30/294 203/341/301 200/335/292
f 203/341/302 18/30/302 204/342/302
f 199/335/292 18/30/294 203/341/301
f 203/93/84 204/93/84 16/93/84
f 200/339/300 205/343/300 203/340/300
f 199/339/300 206/343/300 203/340/300
f 200/335/303 12/338/303 203/341/303
f 200/339/300 203/340/304 16/23/18
f 207/93/84 204/93/84 18/93/84
f 204/93/84 207/93/84 16/93/84
f 12/22/17 200/339/300 16/23/18
