# Blender 4.1.1
# www.blender.org
mtllib link_body_14.mtl
o link_body_14
v -1.245925 -4.027575 5.137041
v 0.180195 -4.639340 4.683969
v -2.912336 -2.255834 5.527021
v -2.818917 -5.134037 3.148298
v -0.597159 -5.549116 3.536107
v -0.017412 -3.536304 5.584220
v -3.224384 -3.928924 4.277693
v -0.879446 -2.170993 6.175445
v -1.283056 -0.002438 6.489196
v 0.445983 0.002377 6.265762
v 0.454441 -1.483172 6.070596
v -2.100954 -1.440609 6.095635
v -2.552377 0.264172 6.103565
v -3.684881 0.439740 5.505944
v -1.776279 1.807836 6.098733
v -2.238090 2.860240 5.567410
v -2.683516 3.869819 4.669641
v -0.143125 3.604618 5.537847
v -0.751508 2.323855 6.147008
v -0.191083 4.610852 4.745935
v -4.332174 2.547847 4.328056
v -3.556733 4.630860 3.176783
v -4.641614 0.539503 4.673860
v -5.287023 1.503073 3.679756
v -4.671453 3.906774 2.583848
v -5.817054 1.876596 2.540359
v -5.725909 3.067968 1.300114
v -6.461227 0.706722 1.247165
v -6.307730 -0.585523 2.007481
v -5.843685 -1.713684 2.583848
v -5.459772 -0.634599 3.679757
v -5.764948 -3.002048 1.247168
v -6.303393 -2.033490 -0.000001
v -6.601758 0.533505 0.000000
v -6.018625 1.837960 -2.157488
v -5.855754 3.117824 -0.085276
v -6.465392 -0.630223 -1.300116
v -5.713778 -3.086707 -1.329567
v -6.092400 -0.492343 -2.540361
v -5.442270 -1.835162 -3.328089
v -4.955189 -3.538869 -2.517391
v -4.239013 -2.043346 -4.604650
v -5.449256 0.488673 -3.711523
v -4.713808 0.000001 -4.676280
v -4.788711 -2.704455 -3.584760
v -4.489818 -2.492617 -2.145643
v -4.047569 -1.533822 -3.318831
v -3.673037 -1.679337 -5.172766
v -2.958321 -0.975502 -2.095784
v -3.206842 -0.861775 -3.939269
v -1.710628 -0.290953 -3.921333
v -2.204967 -0.446129 -2.956057
v -2.074056 -0.775339 -5.336596
v -0.788881 -0.533796 -5.107096
v -0.569523 -0.001451 -5.416625
v -3.545433 -1.162942 -5.431381
v -3.713276 0.000001 -5.442542
v -3.541707 1.124519 -5.438192
v -4.227476 1.819533 -4.715973
v -3.565352 1.498760 -5.294813
v -2.060629 0.823992 -5.306920
v -2.391215 0.522973 -4.135821
v -3.512741 0.976132 -3.939269
v -4.337512 1.635093 -3.328014
v -3.264225 1.089862 -2.095786
v -2.272743 0.532083 -2.674904
v -1.365589 0.434406 -4.469988
v -2.585856 1.273150 -1.214252
v -2.667380 0.000002 -1.500440
v -2.814104 0.794404 -0.024019
v -2.589530 -1.258575 -1.248581
v -2.376610 -2.472771 -0.046593
v -2.685146 -1.503971 0.566379
v -3.446050 -2.272208 -0.817581
v -4.137877 -3.901206 -0.699783
v -3.012657 -3.663533 0.123467
v -2.567603 -4.556966 0.454603
v -2.000839 -3.301227 0.433860
v -1.032350 -4.798589 0.711033
v -1.757687 -3.681026 1.498276
v -0.529064 -4.648738 3.005861
v -0.373826 -5.430740 1.442140
v -1.987819 -2.082064 2.860945
v -0.682697 -3.147912 4.331557
v -2.175737 0.694519 3.065382
v -1.396121 -1.247568 4.272888
v -2.650305 0.800245 1.574281
v -2.058517 3.326901 0.478236
v -1.413806 3.413334 2.914359
v -2.414275 2.435435 -0.021330
v -3.772641 2.391424 -0.831386
v -3.869166 4.023588 -0.149972
v -4.758631 3.328154 -1.438531
v -2.898814 4.736651 0.451259
v -3.724359 5.431129 -0.180999
v -4.615316 4.624994 -0.966816
v -4.078031 5.048438 1.349912
v -5.654256 3.155775 -1.393313
v -5.153059 3.268769 -2.481346
v -4.423622 2.154560 -2.088332
v -4.913896 2.443897 -3.636371
v -2.577094 5.987522 0.951093
v 0.370904 5.536333 2.805700
v -0.597150 5.549106 3.536135
v -2.106184 5.763446 2.409686
v 0.668713 5.433296 3.335300
v -0.371158 5.431695 1.445616
v -2.981860 5.825983 0.133526
v -1.603693 5.296141 -0.115343
v -1.030264 4.934232 0.076107
v -1.371104 4.935420 0.685144
v -1.785110 5.054536 0.675174
v -1.422254 4.338241 0.712505
v -0.984738 4.826751 0.705591
v 0.809634 4.791676 4.406314
v 0.719466 3.562045 5.414825
v -0.727333 3.019250 4.380990
v -1.493673 0.627341 4.291692
v -0.329611 1.579055 5.451591
v -0.505485 -0.917851 5.478815
v 0.454483 1.482701 6.070741
v 0.708202 -3.503646 5.442947
v 0.826294 -4.778148 4.421055
v 0.577231 -5.505149 3.143189
v -2.567751 -5.987579 0.963287
v -3.279420 -5.685340 -0.225036
v -4.127058 -5.028835 1.297831
v -2.106195 -5.763446 2.409686
v -1.545369 -5.276035 -0.086470
v -2.788827 -5.759037 0.044174
v -1.951095 -5.217819 0.513615
v -0.975578 -4.913232 0.124497
v -5.020441 -4.326633 -0.048871
v -4.792116 -3.794122 2.540359
v -4.801322 -2.675658 3.679756
v -4.369264 -1.683743 4.700823
v -4.546440 -4.581518 -1.344381
v -3.663961 -5.432831 -0.409416
v -2.098367 5.065908 3.663905
v -0.826949 0.674418 -5.071275
vn -0.2074 -0.6099 0.7648
vn 0.0492 -0.7048 0.7076
vn 0.0717 -0.4727 0.8783
vn -0.0316 -0.9048 0.4247
vn -0.0391 -0.2970 0.9541
vn -0.4401 -0.3399 0.8311
vn -0.4876 -0.5868 0.6465
vn -0.4234 -0.7720 0.4741
vn 0.1348 -0.0010 0.9909
vn -0.0810 -0.0006 0.9967
vn -0.3208 -0.2031 0.9251
vn 0.1689 -0.1833 0.9684
vn -0.3943 0.0423 0.9180
vn -0.3486 0.4284 0.8336
vn -0.5497 0.0722 0.8322
vn -0.2887 0.2387 0.9272
vn -0.6462 0.3893 0.6564
vn -0.3943 0.5907 0.7040
vn -0.0367 0.6939 0.7191
vn 0.0021 0.5249 0.8511
vn -0.0020 0.3055 0.9522
vn -0.5321 0.7010 0.4749
vn -0.7241 0.5685 0.3906
vn -0.8098 0.2183 0.5445
vn -0.7086 0.0781 0.7013
vn -0.8796 0.2797 0.3847
vn -0.9530 -0.0824 0.2916
vn -0.8610 0.4724 0.1885
vn -0.9730 0.1316 0.1897
vn -0.8274 -0.0799 0.5559
vn -0.8784 -0.2839 0.3845
vn -0.8705 -0.4556 0.1862
vn -0.9549 -0.2969 0.0060
vn -0.9958 0.0908 -0.0133
vn -0.9134 0.2569 -0.3159
vn -0.8812 0.4728 0.0052
vn -0.9762 -0.1014 -0.1918
vn -0.8697 -0.4509 -0.2009
vn -0.8261 -0.2728 -0.4931
vn -0.9208 -0.0764 -0.3826
vn -0.7434 -0.4008 -0.5355
vn -0.7987 -0.4909 -0.3480
vn -0.8234 0.0927 -0.5599
vn -0.6951 -0.2249 -0.6828
vn -0.7163 -0.0020 -0.6978
vn 0.8720 -0.4875 -0.0448
vn 0.8196 -0.4658 -0.3336
vn 0.9081 -0.2704 -0.3196
vn 0.7280 -0.6835 -0.0545
vn 0.7270 -0.6685 0.1567
vn 0.6011 -0.7555 0.2608
vn 0.5274 -0.8417 0.1156
vn 0.4679 -0.8199 -0.3299
vn 0.3102 -0.9055 0.2895
vn 0.2907 -0.9398 0.1796
vn 0.3948 -0.9138 -0.0955
vn 0.1260 -0.9480 0.2921
vn 0.1772 -0.4385 -0.8811
vn 0.1808 -0.4758 -0.8608
vn 0.1170 -0.3018 -0.9462
vn 0.1834 -0.0187 -0.9829
vn 0.2466 -0.5611 -0.7902
vn -0.6334 -0.1611 -0.7568
vn -0.6132 -0.2274 -0.7565
vn -0.6080 0.0005 -0.7939
vn 0.0082 -0.0029 -1.0000
vn -0.6109 0.1656 -0.7742
vn 0.0900 0.2190 -0.9716
vn -0.5583 0.2658 -0.7859
vn -0.7125 0.1868 -0.6764
vn 0.1477 0.3693 -0.9175
vn 0.2240 0.5146 -0.8277
vn 0.2680 0.9535 0.1377
vn 0.2453 0.9085 0.3383
vn 0.4900 0.8183 0.3005
vn 0.5173 0.8500 0.0999
vn 0.6740 0.7108 0.2015
vn 0.7272 0.6838 -0.0606
vn 0.4826 0.8127 -0.3265
vn 0.3294 0.9331 -0.1446
vn 0.9345 -0.0631 0.3502
vn 0.9274 -0.0191 0.3736
vn 0.8144 0.0105 0.5802
vn 0.0983 0.9589 0.2662
vn 0.4042 0.7383 -0.5399
vn 0.9754 -0.1508 0.1609
vn 0.9807 0.0061 0.1954
vn 0.9954 -0.0956 0.0050
vn 0.9853 0.1189 0.1230
vn 0.4581 -0.7179 -0.5242
vn 0.4350 -0.4343 -0.7888
vn 0.5947 -0.5139 -0.6182
vn 0.9472 0.3198 -0.0235
vn 0.9786 0.1861 -0.0880
vn 0.7529 -0.1300 -0.6451
vn 0.5068 -0.1979 -0.8391
vn 0.3040 -0.2132 -0.9285
vn 0.3786 0.0307 -0.9250
vn 0.8592 0.4760 -0.1876
vn 0.7648 0.6372 -0.0950
vn 0.9033 0.4256 -0.0545
vn 0.1619 -0.0186 -0.9866
vn 0.7235 0.6560 -0.2149
vn 0.7010 0.5957 -0.3922
vn 0.8951 0.2590 -0.3630
vn 0.7200 0.4052 -0.5635
vn 0.8251 0.1608 -0.5416
vn 0.9697 -0.1085 -0.2189
vn 0.9150 -0.0930 -0.3925
vn 0.8176 -0.4444 -0.3661
vn 0.9600 -0.2662 -0.0868
vn 0.9054 -0.3720 -0.2044
vn 0.4255 0.4412 -0.7901
vn 0.5775 0.5157 -0.6329
vn 0.6088 0.1495 -0.7791
vn 0.3408 0.2211 -0.9138
vn 0.3721 -0.0312 -0.9277
vn 0.8425 0.2533 -0.4754
vn 0.7897 0.0365 -0.6124
vn 0.5794 -0.1290 -0.8048
vn -0.7561 0.6535 -0.0355
vn -0.8486 0.4864 -0.2079
vn -0.6221 0.7590 0.1923
vn -0.6058 0.7937 0.0550
vn -0.8032 0.4715 -0.3642
vn 0.8797 0.3841 -0.2805
vn 0.7504 0.5761 -0.3241
vn 0.8245 0.5619 -0.0673
vn -0.7971 0.2749 -0.5377
vn -0.4870 0.8490 0.2053
vn 0.2482 0.9440 -0.2176
vn 0.1281 0.9329 0.3367
vn 0.0889 0.9910 0.0999
vn 0.3204 0.9057 -0.2777
vn -0.2306 0.9286 0.2909
vn -0.0175 0.9142 0.4048
vn -0.4920 0.8676 0.0721
vn 0.3837 0.8420 -0.3793
vn 0.2888 0.9019 -0.3212
vn 0.5745 0.6408 -0.5092
vn -0.3135 -0.9169 -0.2469
vn -0.3873 -0.8657 -0.3170
vn -0.3990 -0.8898 -0.2215
vn -0.3174 -0.8841 -0.3430
vn -0.3905 -0.8515 -0.3499
vn 0.3910 -0.2301 -0.8912
vn 0.1632 -0.0512 -0.9853
vn 0.1333 0.0317 -0.9906
vn 0.0231 -0.0477 -0.9986
vn 0.7483 -0.6083 -0.2648
vn 0.8065 -0.5542 -0.2062
vn 0.7635 -0.6358 -0.1133
vn 0.0390 -0.0491 -0.9980
vn 0.7838 -0.6003 -0.1592
vn -0.2609 -0.9546 -0.1441
vn 0.6811 -0.6066 -0.4100
vn 0.1213 0.7534 0.6463
vn 0.6503 -0.5692 -0.5031
vn 0.6057 -0.6449 -0.4661
vn 0.1703 0.4856 0.8575
vn 0.7284 -0.3970 -0.5584
vn 0.6162 -0.4375 -0.6549
vn 0.6750 -0.2026 -0.7094
vn 0.8226 -0.0929 -0.5609
vn 0.6926 0.1242 -0.7106
vn 0.6314 -0.0171 -0.7753
vn 0.5921 -0.1995 -0.7808
vn 0.1834 0.1753 0.9673
vn 0.6271 0.4195 -0.6563
vn 0.6057 0.2318 -0.7612
vn 0.1907 -0.4590 0.8677
vn 0.6060 0.5771 -0.5474
vn 0.1435 -0.7572 0.6372
vn 0.5887 0.6941 -0.4142
vn 0.1721 -0.9540 0.2456
vn 0.2304 -0.9507 -0.2078
vn 0.3209 -0.9102 -0.2617
vn -0.6197 -0.7598 0.1967
vn -0.5639 -0.8228 0.0707
vn -0.4825 -0.8536 0.1963
vn 0.1192 -0.9564 -0.2665
vn -0.0154 -0.9712 -0.2378
vn 0.3933 -0.8379 -0.3784
vn -0.2089 -0.9351 0.2862
vn -0.3777 0.8756 -0.3012
vn -0.3715 0.8658 -0.3352
vn -0.3566 0.8755 -0.3260
vn 0.2508 0.1485 -0.9566
vn 0.4515 0.2128 -0.8666
vn 0.5092 0.1851 -0.8405
vn -0.4027 0.8760 -0.2654
vn -0.4675 0.8580 -0.2129
vn 0.5880 -0.6247 -0.5139
vn 0.7268 0.6839 -0.0633
vn -0.7221 -0.5778 0.3803
vn -0.7611 -0.6486 0.0039
vn -0.7260 -0.4094 0.5526
vn -0.6530 -0.2456 0.7165
vn -0.7272 -0.6675 -0.1601
vn -0.6117 -0.7841 0.1043
vn 0.8541 -0.0205 -0.5197
vn 0.6139 0.1050 -0.7824
vn -0.2987 0.7670 0.5679
vn 0.0352 0.9169 0.3976
vn 0.7686 0.0147 0.6396
vn 0.7534 -0.0481 0.6557
vn 0.7819 0.0573 0.6207
vn 0.8695 -0.0412 0.4923
vn 0.2206 0.5091 -0.8319
vt 0.699622 0.692501
vt 0.695565 0.683019
vt 0.702849 0.684344
vt 0.611116 0.827135
vt 0.614811 0.818665
vt 0.622832 0.824857
vt 0.711900 0.690073
vt 0.711394 0.703564
vt 0.700346 0.705622
vt 0.625548 0.838943
vt 0.617434 0.840823
vt 0.726321 0.681243
vt 0.726297 0.692739
vt 0.716772 0.698179
vt 0.716460 0.681199
vt 0.728104 0.701159
vt 0.745379 0.699026
vt 0.729316 0.708666
vt 0.738353 0.695984
vt 0.743393 0.712910
vt 0.752140 0.701949
vt 0.757030 0.685381
vt 0.750302 0.685096
vt 0.741767 0.689170
vt 0.621896 0.027996
vt 0.627740 0.019857
vt 0.631564 0.036020
vt 0.635417 0.022937
vt 0.640558 0.039999
vt 0.638406 0.047383
vt 0.730034 0.714999
vt 0.645637 0.034456
vt 0.659023 0.044477
vt 0.646941 0.023427
vt 0.657891 0.035571
vt 0.649447 0.050175
vt 0.659927 0.051186
vt 0.671730 0.051152
vt 0.674967 0.042427
vt 0.665097 0.031261
vt 0.669786 0.014719
vt 0.653928 0.017472
vt 0.676121 0.030694
vt 0.684974 0.040281
vt 0.689570 0.025319
vt 0.681223 0.023916
vt 0.693328 0.026839
vt 0.691576 0.035637
vt 0.682150 0.013003
vt 0.936813 0.924591
vt 0.931395 0.922619
vt 0.935468 0.916691
vt 0.948689 0.917281
vt 0.687812 0.009540
vt 0.460815 0.956004
vt 0.453516 0.949416
vt 0.460904 0.946993
vt 0.452921 0.959506
vt 0.460999 0.964069
vt 0.460839 0.968558
vt 0.451097 0.965555
vt 0.443868 0.955516
vt 0.978761 0.092072
vt 0.984624 0.095308
vt 0.974234 0.101958
vt 0.991024 0.089192
vt 0.996166 0.098235
vt 0.988489 0.104291
vt 0.981346 0.104022
vt 0.998273 0.106587
vt 0.949440 0.935486
vt 0.940353 0.927336
vt 0.943899 0.927026
vt 0.957500 0.943324
vt 0.953655 0.943094
vt 0.950872 0.923512
vt 0.958318 0.922220
vt 0.960612 0.921295
vt 0.961182 0.916500
vt 0.959541 0.932198
vt 0.957917 0.474019
vt 0.965720 0.475757
vt 0.961472 0.485821
vt 0.953634 0.480935
vt 0.956072 0.488836
vt 0.947411 0.485527
vt 0.942877 0.475041
vt 0.949250 0.469626
vt 0.642899 0.733789
vt 0.649343 0.732309
vt 0.648074 0.743821
vt 0.962568 0.468789
vt 0.939038 0.469284
vt 0.634412 0.727671
vt 0.642735 0.725303
vt 0.633710 0.719238
vt 0.649123 0.719820
vt 0.997234 0.214355
vt 0.989126 0.212406
vt 0.993310 0.206434
vt 0.652146 0.708918
vt 0.644983 0.708467
vt 0.441449 0.949959
vt 0.445814 0.943479
vt 0.970239 0.106587
vt 0.454431 0.936088
vt 0.985244 0.197864
vt 0.983568 0.205349
vt 0.983020 0.212475
vt 0.976901 0.205665
vt 0.960625 0.458155
vt 0.963372 0.449953
vt 0.968140 0.458324
vt 0.971287 0.214355
vt 0.653625 0.695977
vt 0.655018 0.703428
vt 0.957021 0.446117
vt 0.948049 0.451715
vt 0.640406 0.693146
vt 0.653172 0.683932
vt 0.640551 0.680994
vt 0.630549 0.687480
vt 0.628515 0.709911
vt 0.623961 0.700810
vt 0.607925 0.710229
vt 0.623804 0.724384
vt 0.616719 0.724255
vt 0.931395 0.467744
vt 0.933018 0.477525
vt 0.979583 0.530131
vt 0.974501 0.543524
vt 0.970239 0.535510
vt 0.980816 0.543023
vt 0.986670 0.533820
vt 0.937459 0.815618
vt 0.947777 0.817594
vt 0.939705 0.822019
vt 0.947756 0.810502
vt 0.988370 0.526779
vt 0.931395 0.822801
vt 0.650326 0.004153
vt 0.660046 0.011216
vt 0.636092 0.011118
vt 0.641702 0.001998
vt 0.664277 0.004945
vt 0.953612 0.821781
vt 0.955688 0.814682
vt 0.963965 0.817558
vt 0.962622 0.822801
vt 0.673042 0.003235
vt 0.679907 0.000000
vt 0.947345 0.491362
vt 0.939261 0.483969
vt 0.631932 0.001954
vt 0.960991 0.643443
vt 0.939482 0.627686
vt 0.943468 0.628611
vt 0.953335 0.630092
vt 0.950703 0.643109
vt 0.940628 0.635909
vt 0.637346 0.000000
vt 0.624737 0.008316
vt 0.965341 0.634040
vt 0.966758 0.643883
vt 0.962759 0.630249
vt 0.269293 0.974403
vt 0.264104 0.976202
vt 0.265186 0.972261
vt 0.269331 0.977185
vt 0.266135 0.985442
vt 0.992909 0.530038
vt 0.991870 0.539502
vt 0.988702 0.543800
vt 0.992400 0.542316
vt 0.599733 0.725067
vt 0.609465 0.726014
vt 0.606195 0.727546
vt 0.992909 0.544935
vt 0.607587 0.731566
vt 0.269331 0.971806
vt 0.594083 0.717361
vt 0.931876 0.627686
vt 0.592911 0.705595
vt 0.592703 0.713902
vt 0.750016 0.679361
vt 0.758238 0.678720
vt 0.931395 0.633991
vt 0.604880 0.700324
vt 0.596956 0.695815
vt 0.609416 0.689443
vt 0.619784 0.693347
vt 0.898754 0.375260
vt 0.915348 0.376401
vt 0.904788 0.381620
vt 0.623921 0.681369
vt 0.928539 0.383349
vt 0.914645 0.381650
vt 0.736167 0.681164
vt 0.881592 0.383349
vt 0.884067 0.374037
vt 0.894940 0.381680
vt 0.703065 0.679518
vt 0.931395 0.451402
vt 0.936565 0.446066
vt 0.941210 0.458324
vt 0.694649 0.678720
vt 0.944483 0.443568
vt 0.604586 0.822168
vt 0.610908 0.816090
vt 0.604226 0.847541
vt 0.598839 0.833768
vt 0.612211 0.854945
vt 0.600471 0.855930
vt 0.600089 0.852222
vt 0.594887 0.845939
vt 0.610507 0.839613
vt 0.706946 0.978092
vt 0.706946 0.971806
vt 0.710829 0.976736
vt 0.971225 0.207643
vt 0.970239 0.201095
vt 0.972036 0.198307
vt 0.762956 0.976755
vt 0.762956 0.971806
vt 0.767469 0.975083
vt 0.678721 0.978566
vt 0.678721 0.971806
vt 0.680756 0.975192
vt 0.441014 0.982675
vt 0.438122 0.980942
vt 0.441014 0.971806
vt 0.966896 0.448232
vt 0.621927 0.854068
vt 0.618738 0.864334
vt 0.608402 0.864966
vt 0.666859 0.058361
vt 0.656625 0.058176
vt 0.628586 0.849967
vt 0.646796 0.057142
vt 0.708724 0.716069
vt 0.715256 0.713216
vt 0.722294 0.720421
vt 0.604389 0.873698
vt 0.599441 0.867192
vt 0.682415 0.050075
vt 0.600983 0.858757
vt 0.460999 0.936601
vt 0.460569 0.928262
vt 0.974625 0.196644
vt 0.594887 0.873939
vt 0.621215 0.016932
vt 0.942132 0.644161
vt 0.760134 0.698019
vt 0.967434 0.467744
vt 0.652675 0.747843
vt 0.647980 0.748015
vt 0.655018 0.744376
vt 0.650921 0.738363
vt 0.961182 0.940308
s 1
usemtl pleuraldeles_skin
f 1/1/1 2/2/2 6/3/3
f 5/4/4 2/5/2 1/6/1
f 8/7/5 3/8/6 1/1/1
f 7/9/7 1/1/1 3/8/6
f 7/10/7 4/11/8 1/6/1
f 1/6/1 4/11/8 5/4/4
f 6/3/3 8/7/5 1/1/1
f 10/12/9 9/13/10 8/7/5
f 8/7/5 9/13/10 12/14/11
f 8/7/5 11/15/12 10/12/9
f 8/7/5 6/3/3 11/15/12
f 12/14/11 3/8/6 8/7/5
f 9/13/10 13/16/13 12/14/11
f 13/16/13 3/8/6 12/14/11
f 16/17/14 14/18/15 13/16/13
f 13/16/13 14/18/15 3/8/6
f 9/13/10 15/19/16 13/16/13
f 16/17/14 13/16/13 15/19/16
f 21/20/17 14/18/15 16/17/14
f 16/17/14 17/21/18 21/20/17
f 16/17/14 20/22/19 17/21/18
f 16/17/14 18/23/20 20/22/19
f 19/24/21 18/23/20 16/17/14
f 19/24/21 16/17/14 15/19/16
f 17/25/18 22/26/22 21/27/17
f 22/26/22 25/28/23 21/27/17
f 24/29/24 23/30/25 21/27/17
f 23/31/25 14/18/15 21/20/17
f 21/27/17 26/32/26 24/29/24
f 21/27/17 25/28/23 26/32/26
f 29/33/27 24/29/24 26/32/26
f 27/34/28 28/35/29 26/32/26
f 27/34/28 26/32/26 25/28/23
f 28/35/29 29/33/27 26/32/26
f 31/36/30 29/33/27 30/37/31
f 29/33/27 32/38/32 30/37/31
f 29/33/27 31/36/30 24/29/24
f 33/39/33 32/38/32 29/33/27
f 34/40/34 33/39/33 29/33/27
f 34/40/34 29/33/27 28/35/29
f 35/41/35 34/40/34 36/42/36
f 34/40/34 35/41/35 37/43/37
f 36/42/36 34/40/34 28/35/29
f 37/43/37 33/39/33 34/40/34
f 33/39/33 37/43/37 38/44/38
f 40/45/39 38/44/38 37/43/37
f 39/46/40 37/43/37 35/41/35
f 40/45/39 37/43/37 39/46/40
f 40/45/39 45/47/41 41/48/42
f 41/48/42 38/44/38 40/45/39
f 40/45/39 39/46/40 43/49/43
f 42/50/44 45/51/41 40/52/39
f 44/53/45 42/50/44 40/52/39
f 43/49/43 44/54/45 40/45/39
f 45/55/46 46/56/47 41/57/48
f 46/56/47 45/55/46 47/58/49
f 47/58/49 45/55/46 42/59/50
f 42/59/50 48/60/51 47/58/49
f 47/58/49 48/60/51 50/61/52
f 46/56/47 47/58/49 49/62/53
f 47/63/49 50/64/52 49/65/53
f 50/64/52 48/66/51 53/67/54
f 50/64/52 53/67/54 51/68/55
f 52/69/56 50/64/52 51/68/55
f 49/65/53 50/64/52 52/69/56
f 53/67/54 54/70/57 51/68/55
f 53/71/58 48/72/59 56/73/60
f 55/74/61 54/75/62 53/71/58
f 53/71/58 56/73/60 55/74/61
f 42/50/44 56/73/63 48/72/64
f 44/53/45 56/73/63 42/50/44
f 57/76/65 56/73/63 44/53/45
f 57/76/66 55/74/61 56/73/60
f 57/76/65 44/53/45 58/77/67
f 58/77/68 55/74/61 57/76/66
f 60/78/69 58/77/67 59/79/70
f 59/79/70 58/77/67 44/53/45
f 55/74/61 58/77/68 60/78/71
f 55/74/61 60/78/71 61/80/72
f 62/81/73 61/82/74 60/83/75
f 63/84/76 62/81/73 60/83/75
f 60/83/75 59/85/77 63/84/76
f 64/86/78 65/87/79 63/84/76
f 64/86/78 63/84/76 59/85/77
f 65/87/79 66/88/80 63/84/76
f 66/88/80 62/81/73 63/84/76
f 66/89/81 52/90/82 67/91/83
f 67/92/84 62/81/73 66/88/80
f 65/87/79 68/93/85 66/88/80
f 66/89/81 68/94/86 69/95/87
f 69/95/87 52/90/82 66/89/81
f 70/96/88 69/95/87 68/94/86
f 69/95/87 70/96/88 71/97/89
f 69/95/87 71/97/89 52/90/82
f 71/98/90 72/99/91 74/100/92
f 72/101/93 71/97/89 73/102/94
f 70/96/88 73/102/94 71/97/89
f 49/62/53 71/103/90 74/104/92
f 49/65/53 52/69/56 71/105/90
f 74/104/92 46/56/47 49/62/53
f 75/106/95 46/56/47 74/104/92
f 75/107/95 74/100/92 76/108/96
f 74/100/92 72/99/91 76/108/96
f 72/99/91 78/109/97 76/108/96
f 75/107/95 76/108/96 77/110/98
f 76/108/96 78/109/97 77/110/98
f 80/111/99 79/112/100 78/113/101
f 78/109/97 79/114/102 77/110/98
f 80/115/99 78/116/101 72/101/93
f 82/117/103 80/111/99 81/118/104
f 80/115/99 83/119/105 81/120/104
f 73/102/94 80/115/99 72/101/93
f 80/115/99 73/102/94 83/119/105
f 80/111/99 82/117/103 79/112/100
f 81/120/104 83/119/105 84/121/106
f 83/119/105 86/122/107 84/121/106
f 83/119/105 73/102/94 87/123/108
f 83/119/105 87/123/108 85/124/109
f 85/124/109 86/122/107 83/119/105
f 87/123/108 89/125/110 85/124/109
f 87/123/108 70/96/88 90/126/111
f 73/102/94 70/96/88 87/123/108
f 88/127/112 87/123/108 90/126/111
f 87/123/108 88/127/112 89/125/110
f 90/128/113 68/93/85 91/129/114
f 92/130/115 90/131/113 91/132/114
f 92/130/115 88/133/116 90/131/113
f 70/96/88 68/94/86 90/126/111
f 94/134/117 88/133/116 92/130/115
f 92/135/115 93/136/118 96/137/119
f 91/138/114 93/136/118 92/135/115
f 94/134/117 92/130/115 95/139/120
f 92/135/115 96/137/119 95/140/120
f 96/141/121 98/142/122 36/42/36
f 27/34/28 96/141/121 36/42/36
f 27/34/28 97/143/123 96/141/121
f 97/143/123 95/144/124 96/141/121
f 98/142/122 96/141/121 99/145/125
f 96/137/119 93/136/118 99/146/126
f 99/146/126 100/147/127 64/148/78
f 100/147/127 99/146/126 93/136/118
f 101/149/128 99/146/126 64/148/78
f 35/41/35 99/145/125 101/150/129
f 35/41/35 98/142/122 99/145/125
f 101/150/129 43/49/43 35/41/35
f 101/150/129 44/54/45 43/49/43
f 101/150/129 59/151/70 44/54/45
f 101/152/128 64/86/78 59/85/77
f 100/153/127 65/87/79 64/86/78
f 91/129/114 65/87/79 100/153/127
f 91/138/114 100/147/127 93/136/118
f 35/41/35 36/42/36 98/142/122
f 102/154/130 97/143/123 22/26/22
f 22/26/22 97/143/123 25/28/23
f 25/28/23 97/143/123 27/34/28
f 97/143/123 102/154/130 95/144/124
f 102/155/131 106/156/132 103/157/133
f 102/155/131 103/157/133 107/158/134
f 105/159/135 104/160/136 102/155/131
f 104/160/136 106/156/132 102/155/131
f 95/144/124 102/154/130 108/161/137
f 102/154/130 22/26/22 105/162/135
f 102/155/131 107/158/134 109/163/138
f 109/163/138 108/164/139 102/155/131
f 107/158/134 110/165/140 109/163/138
f 111/166/141 109/167/142 110/168/143
f 111/166/141 112/169/144 109/167/142
f 112/169/144 108/170/145 109/167/142
f 94/134/117 108/171/146 112/172/147
f 113/173/148 112/172/147 111/174/149
f 113/173/148 94/134/117 112/172/147
f 107/175/150 113/176/151 114/177/152
f 89/125/110 113/176/151 107/175/150
f 88/127/112 113/176/151 89/125/110
f 88/133/116 94/134/117 113/173/148
f 114/178/153 113/173/148 111/174/149
f 114/177/152 110/179/154 107/175/150
f 110/168/143 114/180/155 111/166/141
f 95/139/120 108/171/146 94/134/117
f 89/125/110 107/175/150 103/181/156
f 104/160/136 115/182/157 106/156/132
f 115/183/158 103/181/156 106/184/159
f 116/185/160 115/186/157 20/22/19
f 20/187/19 115/182/157 104/160/136
f 117/188/161 115/183/158 116/189/162
f 89/125/110 103/181/156 115/183/158
f 89/125/110 115/183/158 117/188/161
f 119/190/163 118/191/164 117/188/161
f 85/124/109 117/188/161 118/191/164
f 85/124/109 89/125/110 117/188/161
f 117/188/161 116/189/162 119/190/163
f 120/192/165 119/193/163 10/194/166
f 120/195/165 118/191/164 119/190/163
f 116/196/162 121/197/167 119/193/163
f 119/193/163 121/197/167 10/194/166
f 121/198/168 116/185/160 19/24/21
f 121/198/168 19/24/21 10/12/9
f 122/199/169 84/200/106 120/192/165
f 120/192/165 11/201/170 122/199/169
f 120/195/165 84/121/106 86/122/107
f 86/122/107 118/191/164 120/195/165
f 10/194/166 11/201/170 120/192/165
f 6/3/3 122/202/171 11/15/12
f 122/203/169 123/204/172 84/205/106
f 122/202/171 6/3/3 2/2/2
f 2/2/2 123/206/173 122/202/171
f 81/118/104 123/204/172 124/207/174
f 5/4/4 124/208/175 123/209/173
f 2/5/2 5/4/4 123/209/173
f 81/118/104 84/205/106 123/204/172
f 124/207/174 82/117/103 81/118/104
f 125/210/176 82/211/177 124/208/175
f 5/4/4 125/210/176 124/208/175
f 127/212/178 126/213/179 125/210/180
f 130/214/181 125/210/176 126/213/182
f 4/11/8 127/212/178 125/210/180
f 129/215/183 82/211/177 125/210/176
f 5/4/4 128/216/184 125/210/176
f 4/11/8 125/210/180 128/216/184
f 130/214/181 129/215/183 125/210/176
f 129/217/185 130/218/186 131/219/187
f 131/220/188 130/221/189 77/110/98
f 77/110/98 130/221/189 126/222/190
f 131/223/187 79/224/191 129/225/185
f 77/110/98 79/114/102 131/220/188
f 129/226/185 79/227/191 132/228/192
f 129/229/183 132/230/193 82/231/177
f 82/117/103 132/232/194 79/112/100
f 4/11/8 128/216/184 5/4/4
f 134/233/195 32/234/32 127/212/178
f 133/235/196 127/212/178 32/234/32
f 133/235/196 126/213/179 127/212/178
f 127/212/178 4/11/8 134/233/195
f 7/10/7 134/233/195 4/11/8
f 134/236/195 135/237/197 30/37/31
f 135/238/197 134/233/195 7/10/7
f 32/38/32 134/236/195 30/37/31
f 31/36/30 135/237/197 136/239/198
f 135/240/197 7/9/7 136/241/198
f 31/36/30 30/37/31 135/237/197
f 3/8/6 136/241/198 7/9/7
f 136/241/198 3/8/6 14/18/15
f 136/241/198 14/18/15 23/31/25
f 31/242/30 136/241/198 23/31/25
f 133/235/196 38/243/38 137/244/199
f 38/44/38 133/245/196 33/39/33
f 126/213/179 133/235/196 138/246/200
f 33/39/33 133/245/196 32/38/32
f 138/246/200 133/235/196 137/244/199
f 137/247/201 75/106/95 138/248/202
f 138/249/202 77/110/98 126/222/190
f 75/107/95 77/110/98 138/249/202
f 75/106/95 137/247/201 41/57/48
f 38/243/38 41/250/42 137/244/199
f 85/124/109 118/191/164 86/122/107
f 18/23/20 19/24/21 116/185/160
f 18/23/20 116/185/160 20/22/19
f 139/251/203 105/162/135 22/26/22
f 105/159/135 139/252/203 104/160/136
f 20/187/19 104/160/136 139/252/203
f 20/22/19 139/253/203 17/21/18
f 17/25/18 139/251/203 22/26/22
f 68/93/85 65/87/79 91/129/114
f 75/106/95 41/57/48 46/56/47
f 67/92/84 140/254/204 61/82/74
f 62/81/73 67/92/84 61/82/74
f 67/91/83 55/255/205 140/256/206
f 55/255/205 67/91/83 54/257/207
f 67/91/83 52/90/82 51/258/208
f 67/91/83 51/258/208 54/257/207
f 61/80/72 140/259/209 55/74/61
f 43/49/43 39/46/40 35/41/35
f 36/42/36 28/35/29 27/34/28
f 24/29/24 31/36/30 23/30/25
f 9/13/10 19/24/21 15/19/16
f 19/24/21 9/13/10 10/12/9
