# Blender 4.1.1
# www.blender.org
mtllib link_body_09.mtl
o link_body_09
v 1.901980 -6.550033 -4.462337
v -1.247424 -6.460952 -4.395839
v -2.643448 -5.310404 -5.230987
v -0.893838 -7.263577 -2.993497
v 1.122318 -7.104095 -3.115605
v 0.892106 -5.837442 -4.980635
v -1.303193 -3.919156 -5.413266
v -0.505433 -5.552848 -4.462337
v -1.938557 -4.168373 -4.598198
v -1.617981 -5.670869 -3.093946
v -1.222041 -6.694265 -0.727265
v -3.368450 -3.435569 -3.146914
v -2.943820 -4.966789 -1.644079
v -2.940106 -5.226048 -0.000001
v -4.402813 -2.162822 -1.580062
v -4.187742 -3.136237 0.850212
v -2.916054 -5.013020 1.583428
v -4.681221 -0.691034 1.518942
v -3.912393 -2.087164 3.146914
v -2.576466 -4.665409 3.147911
v -4.807926 -0.931337 -0.000001
v -4.492965 -0.474922 -2.484034
v -4.554397 2.205917 0.000000
v -4.363908 2.304273 1.583428
v -4.345374 2.379440 -1.518943
v -3.119590 5.007342 -0.000000
v -1.366450 6.616931 -0.674308
v -2.866033 5.061564 1.644080
v -2.905961 5.025313 -1.583428
v -1.416144 5.836509 -3.093947
v -2.295539 4.282673 -4.122488
v -3.932859 2.214723 -3.043573
v -3.484457 0.579517 -4.446138
v -2.965131 2.555696 -4.462337
v -2.124643 2.546626 -5.450528
v -2.667965 -1.017121 -5.424458
v -0.254708 5.007282 -5.234682
v -4.377872 3.735107 -5.410465
v -2.638997 5.314427 -5.229687
v -5.508407 1.810523 -5.380499
v -5.839644 3.055649 -4.422490
v -4.377836 -3.735591 -5.410124
v -4.225783 5.057785 -4.422488
v -4.551959 5.749289 -3.047736
v -2.596530 6.486786 -3.802043
v -6.470349 3.511399 -2.998117
v -6.860554 3.667040 -1.556685
v -7.300036 0.704144 -3.053164
v -7.738862 0.899501 -1.556463
v -5.487109 5.487107 -1.543562
v -5.627114 5.537036 0.859986
v -3.567355 6.945752 -1.464561
v -7.042172 3.698454 -0.065866
v -4.461792 6.524552 0.884668
v -2.569232 7.466628 0.167563
v -3.091275 6.615702 3.041547
v -5.586127 4.750775 3.047735
v -3.086083 7.125280 1.473607
v -6.223273 3.030783 3.933072
v -6.869593 3.680757 1.559779
v -4.176831 5.140837 4.394035
v -3.523776 4.403256 5.567478
v -2.453116 6.102293 4.396308
v -5.135066 2.278259 5.639713
v -5.588037 -0.451581 5.607364
v -3.441743 2.632393 6.628170
v -6.572993 0.531180 4.414702
v -4.015258 1.013673 6.756998
v -0.844702 -0.404407 6.926742
v -4.056732 -0.933672 6.747448
v -0.698085 1.267097 6.910967
v -2.619785 1.966807 5.234836
v -0.045147 2.962928 6.726073
v -2.444746 -0.503093 5.716660
v -1.113553 3.681753 5.711141
v 0.706818 4.947608 5.819830
v -2.043710 4.155523 4.481641
v 0.024958 5.934298 4.387467
v -0.483602 6.472799 2.995767
v -2.484683 4.758214 3.146914
v -3.879956 2.285583 3.093945
v -3.860004 0.344503 3.926554
v -3.166279 -2.055346 4.481642
v -1.908981 -4.272140 4.520331
v -1.451021 -3.197474 5.794477
v -0.440496 -1.962867 6.884122
v 0.685465 -5.097845 5.669077
v 0.310287 -3.580901 6.568804
v -2.322220 -4.064321 6.357728
v -1.944416 -5.219765 5.610371
v -3.445612 -2.621232 6.630558
v -3.597048 -4.383008 5.542486
v -2.168400 -5.154053 5.594642
v -2.600371 -6.118095 4.337661
v -2.169610 -5.237888 5.503418
v -2.157492 -5.175232 5.581240
v -5.037424 -4.208290 4.452812
v -4.265381 -6.313139 2.251366
v -3.009146 -6.629675 3.047770
v 0.045746 -5.941223 4.381828
v -5.694939 -4.595689 3.100894
v -6.029460 -4.938110 1.559780
v -7.053615 -2.005304 3.047736
v -7.460227 -2.254848 1.559780
v -6.275928 -2.024630 4.414702
v -4.951897 -2.587543 5.631268
v -7.755242 0.771699 1.559781
v -7.562421 -2.439655 -0.000001
v -7.920381 0.640065 -0.000001
v -7.468067 -2.202308 -1.619524
v -6.239551 -4.855938 -0.941814
v -5.510193 -4.267272 -3.897410
v -7.010902 -2.055976 -3.099914
v -6.289920 -1.968590 -4.422491
v -6.589351 0.570856 -4.379729
v -5.785602 -0.570147 -5.361114
v -5.326347 -2.206357 -5.386699
v -3.091900 -5.784529 -4.460451
v -4.687115 -5.604528 -3.099912
v -2.797307 -6.753281 -3.027804
v -3.694092 -6.895781 -1.462123
v -2.540837 -7.470234 0.164079
v -1.361024 -7.645454 -1.546410
v -4.932526 -6.229952 0.000000
v -3.089783 -7.122677 1.482639
v 0.616272 -7.450453 -1.385095
v -0.002663 -7.352325 -0.166660
v -0.548731 -6.921546 1.570594
v -0.537114 -6.460733 2.960904
v -7.284085 0.846644 3.047734
v -0.532806 6.910133 1.611343
v 0.023905 7.359114 -0.202862
v 0.593979 7.452548 -1.397607
v -1.361033 7.645457 -1.546383
v -0.871844 7.244902 -3.041137
v 1.295605 7.053294 -3.324916
v -1.145480 6.496628 -4.375485
v 1.069771 5.975873 -4.910798
v -1.943830 5.220605 5.609795
v -2.314647 4.068038 6.358535
v -2.168399 5.154052 5.594642
v -2.157491 5.175231 5.581239
v -2.169610 5.237895 5.503407
v -3.164654 -1.993249 -4.521114
vn -0.2021 -0.4741 -0.8570
vn -0.0085 -0.8135 -0.5815
vn -0.1248 -0.7744 -0.6203
vn -0.0814 -0.9298 -0.3591
vn -0.0230 -0.5505 -0.8345
vn 0.0663 -0.9526 -0.2970
vn 0.3471 0.7569 0.5538
vn 0.3999 0.8250 0.3992
vn 0.3067 0.8045 0.5086
vn 0.4416 0.6998 0.5615
vn 0.5809 0.4899 0.6500
vn 0.0176 -0.1092 -0.9939
vn 0.6562 0.5131 0.5533
vn 0.5837 0.7217 0.3721
vn 0.5534 0.8270 0.0987
vn 0.7721 0.6014 0.2054
vn 0.8211 0.4244 0.3818
vn 0.9127 0.3955 -0.1028
vn 0.7575 0.6529 -0.0037
vn 0.9338 0.2992 0.1962
vn 0.7465 0.6335 -0.2034
vn 0.7162 0.5786 -0.3903
vn 0.9960 0.0884 0.0091
vn 0.9775 0.0626 -0.2014
vn 0.8851 0.2746 -0.3759
vn 0.9641 -0.2654 0.0035
vn 0.9508 0.0468 0.3061
vn 0.9376 -0.2877 -0.1952
vn 0.7968 -0.6042 -0.0074
vn 0.9364 -0.3002 0.1819
vn 0.7696 -0.6025 0.2112
vn 0.5676 -0.8194 0.0802
vn 0.7505 -0.6288 -0.2035
vn 0.6781 -0.5278 0.5115
vn 0.5449 -0.7453 0.3842
vn 0.8829 -0.2861 0.3724
vn 0.8167 -0.0696 0.5729
vn 0.7741 -0.3051 0.5548
vn 0.6776 -0.3141 0.6649
vn 0.7556 0.1158 0.6447
vn -0.0080 -0.0018 -1.0000
vn -0.0039 0.0346 -0.9994
vn -0.0008 0.0321 -0.9995
vn 0.4835 -0.6633 0.5712
vn 0.0284 0.2175 -0.9757
vn -0.1916 0.4770 -0.8578
vn -0.5865 0.4930 -0.6426
vn -0.5438 0.6236 -0.5616
vn -0.0283 -0.0001 -0.9996
vn -0.0089 -0.0307 -0.9995
vn -0.7377 0.3859 -0.5540
vn -0.7357 0.2341 -0.6356
vn -0.8144 0.4382 -0.3805
vn -0.5871 0.7164 -0.3770
vn -0.3297 0.8224 -0.4636
vn -0.9196 0.0886 -0.3826
vn -0.6994 0.6909 -0.1831
vn -0.9737 0.1177 -0.1949
vn -0.8705 0.4511 -0.1969
vn -0.8931 0.4498 -0.0116
vn -0.7147 0.6920 0.1019
vn -0.5614 0.8193 0.1165
vn -0.4492 0.8746 -0.1825
vn -0.1833 0.9778 0.1019
vn -0.4560 0.8726 0.1751
vn -0.6901 0.6165 0.3791
vn -0.5092 0.7753 0.3735
vn 0.1524 0.9398 0.3059
vn 0.0622 0.9485 0.3106
vn -0.8740 0.4394 0.2077
vn -0.7838 0.3785 0.4924
vn -0.5372 0.6456 0.5428
vn -0.6489 0.2918 0.7027
vn -0.4620 0.5426 0.7016
vn -0.1678 0.8440 0.5094
vn -0.8262 0.0612 0.5600
vn -0.7022 -0.0487 0.7103
vn -0.5960 0.1255 0.7931
vn -0.3031 0.2766 0.9120
vn -0.0532 0.0411 0.9977
vn -0.0495 -0.0149 0.9987
vn -0.0455 0.0744 0.9962
vn -0.0572 -0.0397 0.9976
vn -0.5933 -0.1244 0.7953
vn 0.5952 -0.1803 -0.7831
vn 0.7150 -0.2430 -0.6556
vn 0.5304 -0.4595 -0.7124
vn 0.6940 0.0601 -0.7174
vn 0.4908 -0.3785 -0.7848
vn -0.0020 0.2716 0.9624
vn 0.5999 0.0579 -0.7980
vn 0.4426 -0.5775 -0.6860
vn 0.5198 -0.6515 -0.5526
vn 0.6505 -0.5226 -0.5511
vn 0.7033 -0.5933 -0.3916
vn 0.5822 -0.7262 -0.3656
vn 0.0613 0.8800 0.4709
vn 0.0602 0.9456 0.3196
vn 0.0393 0.6372 0.7697
vn 0.8726 -0.2994 -0.3858
vn 0.8792 -0.0390 -0.4748
vn 0.7839 0.2641 -0.5620
vn 0.5750 0.3942 -0.7169
vn 0.6233 0.5470 -0.5588
vn 0.4389 0.4727 -0.7642
vn 0.5439 0.2506 -0.8009
vn 0.4637 0.5800 -0.6698
vn -0.0458 -0.1394 0.9892
vn -0.1679 -0.4320 0.8861
vn -0.0055 -0.3748 0.9271
vn 0.0284 -0.6767 0.7357
vn -0.2959 -0.6141 0.7317
vn -0.0826 -0.6922 0.7169
vn -0.4626 -0.5592 0.6879
vn -0.3025 -0.2717 0.9136
vn -0.2258 -0.8319 0.5069
vn -0.2794 -0.7152 0.6407
vn -0.2359 -0.6655 0.7081
vn -0.6275 -0.5489 0.5522
vn -0.7154 -0.5725 0.4005
vn -0.2193 -0.9003 0.3761
vn -0.5433 -0.7832 0.3024
vn 0.0558 -0.8865 0.4593
vn -0.7929 -0.2580 0.5520
vn -0.7771 -0.6023 0.1828
vn -0.9387 -0.2836 0.1960
vn -0.8900 -0.2495 0.3816
vn -0.6246 -0.3259 0.7097
vn -0.9759 0.0988 0.1947
vn -0.9514 -0.3080 0.0045
vn -0.9972 0.0750 -0.0000
vn -0.9384 -0.2751 -0.2093
vn -0.7924 -0.5957 -0.1314
vn -0.6987 -0.5293 -0.4813
vn -0.8864 -0.2613 -0.3820
vn -0.7953 -0.2423 -0.5557
vn -0.8301 0.0737 -0.5527
vn -0.7741 -0.0677 -0.6294
vn -0.6995 -0.3172 -0.6403
vn -0.0598 -0.0012 -0.9982
vn -0.0268 0.0003 -0.9996
vn -0.5817 -0.5262 -0.6203
vn -0.5922 -0.7142 -0.3730
vn -0.4093 -0.7159 -0.5656
vn -0.3460 -0.8569 -0.3821
vn -0.4688 -0.8653 -0.1775
vn -0.1881 -0.9766 0.1038
vn -0.0858 -0.9909 -0.1039
vn -0.6143 -0.7891 -0.0056
vn -0.2253 -0.9502 0.2154
vn 0.0783 -0.9807 0.1791
vn 0.1020 -0.9936 -0.0493
vn 0.0713 -0.9553 0.2869
vn 0.4592 0.8873 0.0428
vn 0.5929 0.7893 -0.1596
vn 0.4448 0.8580 0.2568
vn 0.5883 0.7210 -0.3661
vn 0.0757 -0.9464 0.3141
vn 0.5185 0.6501 -0.5554
vn -0.9199 0.1073 0.3771
vn 0.0631 0.9568 0.2838
vn 0.5830 -0.7946 -0.1693
vn 0.0774 0.9812 0.1771
vn 0.4594 -0.8872 0.0418
vn -0.0901 0.9898 -0.1101
vn 0.4330 -0.8649 0.2541
vn 0.1020 0.9934 -0.0522
vn -0.0778 0.9281 -0.3642
vn 0.0593 0.9110 -0.4081
vn -0.0902 0.7792 -0.6202
vn 0.4053 -0.7682 0.4956
vn 0.4029 -0.8212 0.4040
vn 0.0311 0.6953 -0.7181
vn -0.0856 0.6943 0.7146
vn -0.1670 0.4347 0.8850
vn -0.3000 0.6174 0.7272
vn -0.2359 0.6652 0.7084
vn -0.3114 0.7093 0.6324
vn 0.7926 0.2531 0.5548
vt 0.384818 0.096731
vt 0.374503 0.126359
vt 0.376475 0.105521
vt 0.680398 0.092482
vt 0.689148 0.088795
vt 0.692183 0.109512
vt 0.379734 0.119952
vt 0.682810 0.105625
vt 0.358576 0.679898
vt 0.364809 0.668091
vt 0.366948 0.677686
vt 0.349872 0.674954
vt 0.340288 0.680107
vt 0.393471 0.106223
vt 0.337793 0.674111
vt 0.344728 0.664798
vt 0.351971 0.649849
vt 0.336516 0.653768
vt 0.328876 0.662956
vt 0.465247 0.387578
vt 0.475875 0.403345
vt 0.463322 0.398440
vt 0.338863 0.643030
vt 0.475161 0.377436
vt 0.482424 0.387181
vt 0.340215 0.632647
vt 0.327396 0.635829
vt 0.466909 0.419520
vt 0.464533 0.408936
vt 0.489965 0.397423
vt 0.491454 0.407561
vt 0.482716 0.418762
vt 0.510847 0.397739
vt 0.493582 0.381225
vt 0.511449 0.408339
vt 0.530555 0.398813
vt 0.512378 0.387841
vt 0.531074 0.388484
vt 0.542784 0.395580
vt 0.530913 0.409853
vt 0.527061 0.372058
vt 0.537927 0.379510
vt 0.846933 0.675602
vt 0.850474 0.664462
vt 0.862548 0.671134
vt 0.511861 0.378021
vt 0.501675 0.368962
vt 0.515147 0.369290
vt 0.515957 0.363305
vt 0.970239 0.495479
vt 0.994194 0.495479
vt 0.979854 0.502461
vt 0.413313 0.098458
vt 0.445569 0.089224
vt 0.436701 0.103635
vt 0.978657 0.708695
vt 0.970239 0.700823
vt 0.990762 0.700823
vt 0.452162 0.117132
vt 0.455250 0.101461
vt 0.454153 0.090869
vt 0.433306 0.080879
vt 0.396045 0.085920
vt 0.424173 0.350834
vt 0.432205 0.357504
vt 0.417490 0.357387
vt 0.440624 0.350804
vt 0.425224 0.341237
vt 0.443915 0.341549
vt 0.453578 0.346723
vt 0.446389 0.356340
vt 0.405910 0.341828
vt 0.439780 0.331468
vt 0.405868 0.331807
vt 0.425070 0.331594
vt 0.424701 0.321664
vt 0.439579 0.315478
vt 0.448658 0.315347
vt 0.453707 0.331018
vt 0.459404 0.320242
vt 0.455891 0.311541
vt 0.434756 0.301044
vt 0.452674 0.301185
vt 0.590160 0.644218
vt 0.587686 0.635427
vt 0.588790 0.624900
vt 0.424950 0.310890
vt 0.422532 0.295285
vt 0.440747 0.292236
vt 0.420684 0.284176
vt 0.437882 0.284612
vt 0.620327 0.345748
vt 0.613915 0.357188
vt 0.608961 0.352871
vt 0.451129 0.292328
vt 0.406322 0.292336
vt 0.402826 0.284656
vt 0.586368 0.356124
vt 0.594815 0.363551
vt 0.576672 0.366523
vt 0.597139 0.352332
vt 0.576980 0.335041
vt 0.588089 0.334089
vt 0.573429 0.356373
vt 0.663338 0.122392
vt 0.668149 0.109512
vt 0.679512 0.119523
vt 0.651686 0.110741
vt 0.674637 0.126694
vt 0.599376 0.329769
vt 0.652228 0.121444
vt 0.687939 0.131607
vt 0.694649 0.126975
vt 0.510265 0.433609
vt 0.525286 0.429111
vt 0.522817 0.437828
vt 0.538828 0.429928
vt 0.529048 0.420026
vt 0.542115 0.420419
vt 0.609816 0.616059
vt 0.605431 0.625381
vt 0.593930 0.615839
vt 0.616284 0.606380
vt 0.511547 0.418643
vt 0.498670 0.424069
vt 0.483400 0.428078
vt 0.494089 0.436792
vt 0.477207 0.437828
vt 0.469900 0.429051
vt 0.631184 0.129145
vt 0.633792 0.117389
vt 0.641885 0.124151
vt 0.347883 0.614382
vt 0.349654 0.606380
vt 0.366948 0.609763
vt 0.621215 0.131607
vt 0.566632 0.332333
vt 0.552671 0.344793
vt 0.555907 0.327313
vt 0.545880 0.324774
vt 0.545472 0.343735
vt 0.545038 0.342246
vt 0.550579 0.353237
vt 0.562230 0.352285
vt 0.630405 0.087015
vt 0.622233 0.090661
vt 0.621215 0.081015
vt 0.622854 0.090599
vt 0.545332 0.343662
vt 0.622329 0.092166
vt 0.622335 0.090727
vt 0.627174 0.070581
vt 0.635643 0.065227
vt 0.638700 0.083382
vt 0.642842 0.074368
vt 0.624060 0.109512
vt 0.632232 0.104442
vt 0.377380 0.301781
vt 0.381388 0.292839
vt 0.391488 0.292676
vt 0.645611 0.061833
vt 0.387149 0.311515
vt 0.374503 0.312015
vt 0.389651 0.301654
vt 0.566273 0.371039
vt 0.562486 0.362267
vt 0.551778 0.362780
vt 0.404864 0.311120
vt 0.385844 0.321885
vt 0.403719 0.321475
vt 0.387634 0.332627
vt 0.374600 0.328596
vt 0.380275 0.348253
vt 0.389810 0.342502
vt 0.392307 0.351369
vt 0.407032 0.350747
vt 0.402222 0.357504
vt 0.406598 0.080309
vt 0.408485 0.074076
vt 0.417645 0.077989
vt 0.392840 0.078256
vt 0.681828 0.060578
vt 0.677582 0.066991
vt 0.661904 0.058361
vt 0.970239 0.649661
vt 0.981124 0.643808
vt 0.991578 0.649661
vt 0.990381 0.730268
vt 0.970239 0.730268
vt 0.971912 0.726231
vt 0.687896 0.076421
vt 0.678940 0.079786
vt 0.667926 0.075207
vt 0.658297 0.084291
vt 0.670577 0.090694
vt 0.657111 0.068091
vt 0.649072 0.081678
vt 0.662521 0.100712
vt 0.671080 0.103807
vt 0.650518 0.098444
vt 0.361557 0.647579
vt 0.359070 0.635543
vt 0.364301 0.656247
vt 0.359586 0.626380
vt 0.641250 0.099555
vt 0.343191 0.622711
vt 0.363525 0.617625
vt 0.693221 0.078622
vt 0.406468 0.301287
vt 0.604148 0.634669
vt 0.825059 0.687820
vt 0.829886 0.670462
vt 0.833704 0.684947
vt 0.606631 0.646862
vt 0.846170 0.685183
vt 0.597323 0.655737
vt 0.854797 0.686682
vt 0.609991 0.654862
vt 0.592174 0.670357
vt 0.601279 0.665612
vt 0.615273 0.667627
vt 0.585074 0.654860
vt 0.601235 0.674283
vt 0.878538 0.683773
vt 0.868485 0.687820
vt 0.616263 0.677898
vt 0.457960 0.126359
vt 0.878539 0.674923
vt 0.462326 0.111930
vt 0.594524 0.679570
vt 0.599084 0.607624
vt 0.612621 0.324774
vt 0.614411 0.342385
vt 0.606708 0.344854
vt 0.613966 0.343876
vt 0.614108 0.343804
vt 0.614528 0.343883
vt 0.868012 0.663998
vt 0.492009 0.362951
vt 0.485023 0.368552
vt 0.987052 0.655451
vt 0.970239 0.649661
vt 0.991549 0.649661
vt 0.970508 0.654225
vt 0.325447 0.671990
s 1
usemtl pleuraldeles_skin
f 3/1/1 1/2/2 2/3/3
f 4/4/4 2/5/3 1/6/2
f 1/2/2 3/1/1 6/7/5
f 5/8/6 4/4/4 1/6/2
f 6/9/7 5/10/8 1/11/9
f 5/10/8 6/9/7 8/12/10
f 8/12/10 6/9/7 7/13/11
f 6/7/5 3/1/1 7/14/12
f 8/12/10 7/13/11 9/15/13
f 10/16/14 8/12/10 9/15/13
f 5/10/8 8/12/10 10/16/14
f 11/17/15 5/10/8 10/16/14
f 13/18/16 11/17/15 10/16/14
f 10/16/14 9/15/13 12/19/17
f 13/18/16 10/16/14 12/19/17
f 13/20/16 16/21/18 14/22/19
f 11/17/15 13/18/16 14/23/19
f 13/20/16 12/24/17 15/25/20
f 13/20/16 15/25/20 16/21/18
f 17/26/21 14/23/19 16/27/18
f 20/28/22 17/29/21 16/21/18
f 16/21/18 21/30/23 18/31/24
f 16/21/18 18/31/24 19/32/25
f 15/25/20 21/30/23 16/21/18
f 20/28/22 16/21/18 19/32/25
f 18/31/24 21/30/23 23/33/26
f 22/34/27 23/33/26 21/30/23
f 15/25/20 22/34/27 21/30/23
f 18/31/24 23/33/26 24/35/28
f 24/35/28 23/33/26 26/36/29
f 25/37/30 26/36/29 23/33/26
f 22/34/27 25/37/30 23/33/26
f 29/38/31 27/39/32 26/36/29
f 28/40/33 26/36/29 27/39/32
f 24/35/28 26/36/29 28/40/33
f 25/37/30 29/38/31 26/36/29
f 29/38/31 31/41/34 30/42/35
f 27/43/32 29/44/31 30/45/35
f 32/46/36 29/38/31 25/37/30
f 32/46/36 31/41/34 29/38/31
f 22/34/27 32/46/36 25/37/30
f 22/34/27 33/47/37 32/46/36
f 32/46/36 33/47/37 34/48/38
f 32/46/36 34/48/38 31/41/34
f 35/49/39 34/48/38 33/47/37
f 34/48/38 35/49/39 31/41/34
f 36/50/40 35/51/39 33/52/37
f 36/53/41 38/54/42 35/55/43
f 31/56/34 35/57/39 37/58/44
f 38/54/42 37/59/45 35/55/43
f 39/60/46 37/59/45 38/54/42
f 39/60/46 38/54/47 43/61/48
f 40/62/49 38/54/42 42/63/50
f 41/64/51 38/65/47 40/66/52
f 38/65/47 41/64/51 43/67/48
f 38/54/42 36/53/41 42/63/50
f 43/67/48 46/68/53 44/69/54
f 44/69/54 45/70/55 43/67/48
f 39/71/46 43/67/48 45/70/55
f 43/67/48 41/64/51 46/68/53
f 41/64/51 48/72/56 46/68/53
f 46/68/53 50/73/57 44/69/54
f 46/68/53 49/74/58 47/75/59
f 46/68/53 47/75/59 50/73/57
f 46/68/53 48/72/56 49/74/58
f 50/73/57 53/76/60 51/77/61
f 50/73/57 51/77/61 54/78/62
f 50/73/57 47/75/59 53/76/60
f 44/69/54 50/73/57 52/79/63
f 50/73/57 54/78/62 52/79/63
f 52/79/63 54/78/62 55/80/64
f 58/81/65 55/80/64 54/78/62
f 54/78/62 57/82/66 56/83/67
f 56/83/67 58/81/65 54/78/62
f 54/78/62 51/77/61 57/82/66
f 55/84/64 58/85/68 56/86/69
f 60/87/70 59/88/71 57/82/66
f 57/82/66 59/88/71 61/89/72
f 51/77/61 60/87/70 57/82/66
f 57/82/66 61/89/72 56/83/67
f 61/89/72 64/90/73 62/91/74
f 63/92/75 61/93/72 62/94/74
f 61/89/72 63/95/75 56/83/67
f 61/89/72 59/88/71 64/90/73
f 67/96/76 65/97/77 64/90/73
f 68/98/78 64/99/73 65/100/77
f 59/88/71 67/96/76 64/90/73
f 64/99/73 66/101/79 62/94/74
f 64/99/73 68/98/78 66/101/79
f 68/98/80 69/102/81 71/103/82
f 69/102/81 68/98/80 70/104/83
f 68/98/78 65/100/77 70/104/84
f 66/101/79 68/98/80 71/103/82
f 71/105/85 72/106/86 75/107/87
f 74/108/88 72/106/86 71/105/85
f 71/105/85 75/107/87 73/109/89
f 66/101/79 71/103/82 73/110/90
f 74/108/88 71/105/85 69/111/91
f 73/109/89 75/107/87 76/112/92
f 75/107/87 78/113/93 76/112/92
f 72/114/86 77/115/94 75/116/87
f 75/116/87 77/115/94 78/117/93
f 80/118/95 79/119/96 78/117/93
f 78/120/97 79/121/98 63/122/75
f 80/118/95 78/117/93 77/115/94
f 78/120/97 63/122/75 76/123/99
f 81/124/100 80/118/95 77/115/94
f 79/119/96 80/118/95 28/40/33
f 81/124/100 28/40/33 80/118/95
f 81/124/100 72/114/86 82/125/101
f 82/125/101 24/35/28 81/124/100
f 81/124/100 24/35/28 28/40/33
f 81/124/100 77/115/94 72/114/86
f 19/32/25 82/125/101 83/126/102
f 74/127/88 83/126/102 82/125/101
f 74/127/88 82/125/101 72/114/86
f 18/31/24 82/125/101 19/32/25
f 82/125/101 18/31/24 24/35/28
f 85/128/103 83/126/102 74/127/88
f 20/28/22 83/126/102 84/129/104
f 85/128/103 84/129/104 83/126/102
f 20/28/22 19/32/25 83/126/102
f 88/130/105 85/131/103 86/132/106
f 86/132/106 85/131/103 74/108/88
f 84/133/104 85/134/103 87/135/107
f 85/131/103 88/130/105 87/136/107
f 86/137/108 89/138/109 88/139/110
f 88/139/110 89/138/109 87/140/111
f 89/138/109 93/141/112 90/142/113
f 89/138/109 90/142/113 87/140/111
f 92/143/114 89/138/109 91/144/115
f 91/144/115 89/138/109 86/137/108
f 89/138/109 92/143/114 93/141/112
f 94/145/116 93/146/112 92/147/114
f 94/145/116 95/148/117 93/146/112
f 96/149/118 90/142/113 93/141/112
f 95/148/117 90/150/113 96/151/118
f 95/148/117 94/145/116 90/150/113
f 92/147/114 97/152/119 94/145/116
f 94/145/116 97/152/119 101/153/120
f 99/154/121 94/145/116 98/155/122
f 94/145/116 101/153/120 98/155/122
f 87/156/111 90/150/113 94/145/116
f 87/156/111 94/145/116 100/157/123
f 100/157/123 94/145/116 99/154/121
f 101/158/120 97/159/119 105/160/124
f 102/161/125 98/155/122 101/153/120
f 104/162/126 102/163/125 101/158/120
f 101/158/120 105/160/124 103/164/127
f 104/162/126 101/158/120 103/164/127
f 103/164/127 105/160/124 67/96/76
f 105/165/124 106/166/128 65/100/77
f 67/96/76 105/160/124 65/97/77
f 105/165/124 97/167/119 106/166/128
f 97/167/119 92/143/114 106/166/128
f 106/166/128 92/143/114 91/144/115
f 70/104/84 65/100/77 106/166/128
f 70/104/84 106/166/128 91/144/115
f 107/168/129 104/162/126 103/164/127
f 108/169/130 102/163/125 104/162/126
f 109/170/131 104/162/126 107/168/129
f 109/170/131 108/169/130 104/162/126
f 110/171/132 108/169/130 109/170/131
f 53/76/60 109/170/131 107/168/129
f 49/74/58 109/170/131 53/76/60
f 110/171/132 109/170/131 49/74/58
f 48/72/56 110/171/132 49/74/58
f 111/172/133 108/169/130 110/171/132
f 112/173/134 111/172/133 110/171/132
f 112/173/134 110/171/132 113/174/135
f 48/72/56 113/174/135 110/171/132
f 114/175/136 112/173/134 113/174/135
f 115/176/137 114/175/136 113/174/135
f 115/176/137 113/174/135 48/72/56
f 41/64/51 40/66/52 115/176/137
f 41/64/51 115/176/137 48/72/56
f 116/177/138 114/175/136 115/176/137
f 115/176/137 40/66/52 116/177/138
f 117/178/139 114/179/136 116/180/138
f 116/180/140 40/62/49 117/178/141
f 117/178/139 112/181/134 114/179/136
f 40/62/49 42/63/50 117/178/141
f 117/178/139 42/63/142 112/181/134
f 112/182/134 119/183/143 111/184/133
f 112/185/134 42/186/142 3/187/1
f 112/188/134 3/189/1 118/190/144
f 112/182/134 118/191/144 119/183/143
f 120/192/145 119/183/143 118/191/144
f 119/183/143 121/193/146 111/184/133
f 120/192/145 121/193/146 119/183/143
f 122/194/147 121/193/146 123/195/148
f 121/193/146 122/194/147 124/196/149
f 123/195/148 121/193/146 120/192/145
f 121/193/146 124/196/149 111/184/133
f 125/197/150 124/196/149 122/194/147
f 111/184/133 124/196/149 102/161/125
f 124/196/149 98/155/122 102/161/125
f 125/197/150 98/155/122 124/196/149
f 125/197/150 122/194/147 99/154/121
f 125/197/150 99/154/121 98/155/122
f 4/4/4 5/8/6 123/195/148
f 123/195/148 120/192/145 4/4/4
f 122/194/147 123/195/148 127/198/151
f 126/199/152 123/195/148 5/8/6
f 123/195/148 126/199/152 127/198/151
f 122/194/147 127/198/151 128/200/153
f 127/201/154 11/17/15 128/202/155
f 11/17/15 127/201/154 126/203/156
f 17/26/21 129/204/157 128/202/155
f 129/205/158 99/154/121 128/200/153
f 14/23/19 128/202/155 11/17/15
f 14/23/19 17/26/21 128/202/155
f 99/154/121 122/194/147 128/200/153
f 20/206/22 100/207/159 129/204/157
f 17/26/21 20/206/22 129/204/157
f 99/154/121 129/205/158 100/157/123
f 11/17/15 126/203/156 5/10/8
f 120/192/145 118/191/144 2/5/3
f 120/192/145 2/5/3 4/4/4
f 3/208/1 2/5/3 118/191/144
f 108/169/130 111/172/133 102/163/125
f 53/76/60 107/168/129 60/87/70
f 60/87/70 107/168/129 130/209/160
f 107/168/129 103/164/127 130/209/160
f 103/164/127 67/96/76 130/209/160
f 130/209/160 67/96/76 59/88/71
f 60/87/70 130/209/160 59/88/71
f 84/133/104 87/135/107 100/207/159
f 20/206/22 84/133/104 100/207/159
f 70/104/83 91/144/115 86/137/108
f 86/132/106 74/108/88 69/111/91
f 69/102/81 70/104/83 86/137/108
f 63/122/75 79/121/98 56/86/69
f 79/121/98 131/210/161 56/86/69
f 79/211/96 28/212/33 131/213/162
f 56/86/69 131/210/161 55/84/64
f 131/210/161 132/214/163 55/84/64
f 131/213/162 27/43/32 132/215/164
f 28/212/33 27/43/32 131/213/162
f 55/84/64 132/214/163 134/216/165
f 132/215/164 27/43/32 133/217/166
f 134/216/165 132/214/163 133/218/167
f 45/219/55 134/216/165 135/220/168
f 136/221/169 135/220/168 134/216/165
f 55/84/64 134/216/165 52/222/63
f 45/219/55 52/222/63 134/216/165
f 133/218/167 136/221/169 134/216/165
f 137/223/170 135/220/168 136/221/169
f 30/45/35 138/224/171 136/225/172
f 133/217/166 30/45/35 136/225/172
f 138/226/173 137/223/170 136/221/169
f 37/59/45 39/60/46 138/227/173
f 30/45/35 37/228/44 138/224/171
f 138/227/173 39/60/46 137/229/170
f 137/223/170 45/219/55 135/220/168
f 137/223/170 39/230/46 45/219/55
f 133/217/166 27/43/32 30/45/35
f 139/231/174 76/123/99 63/122/75
f 76/232/99 139/233/174 140/234/175
f 73/110/90 76/232/99 140/234/175
f 141/235/176 140/234/175 139/233/174
f 62/94/74 140/234/175 141/235/176
f 140/234/175 62/94/74 66/101/79
f 140/234/175 66/101/79 73/110/90
f 63/92/75 62/94/74 141/235/176
f 139/233/174 142/236/177 141/235/176
f 143/237/178 63/92/75 141/235/176
f 143/237/178 139/233/174 63/92/75
f 143/237/178 142/236/177 139/233/174
f 51/77/61 53/76/60 60/87/70
f 49/74/58 53/76/60 47/75/59
f 44/69/54 52/79/63 45/70/55
f 42/63/50 36/53/41 7/14/12
f 7/14/12 3/1/1 42/63/50
f 30/45/35 31/238/34 37/228/44
f 36/239/40 33/47/37 144/240/179
f 144/241/179 7/242/11 36/243/40
f 22/34/27 144/240/179 33/47/37
f 9/244/13 7/242/11 144/241/179
f 12/19/17 9/15/13 144/245/179
f 12/24/17 144/240/179 22/34/27
f 15/25/20 12/24/17 22/34/27
