# Blender 4.1.1
# www.blender.org
mtllib link_leg_1_R_2.mtl
o link_leg_1_R_2
v -0.000011 3.762856 0.791590
v 0.204840 3.784103 0.779225
v -0.000010 4.326045 0.681155
v -0.000010 3.166376 0.846241
v -0.204860 3.784103 0.779225
v -0.141113 4.340677 0.672638
v -0.260735 3.193414 0.830504
v -0.401838 3.847012 0.742606
v -0.276794 4.384012 0.647415
v -0.511440 3.273484 0.783897
v -0.583373 3.949178 0.683141
v -0.401838 4.454387 0.606454
v -0.742492 3.403513 0.708212
v -0.742491 4.086670 0.603114
v -0.511440 4.549094 0.551331
v -0.945010 3.578508 0.606357
v -0.873075 4.254202 0.505602
v -0.601388 4.664491 0.484163
v -1.111213 3.791737 0.482247
v -0.970109 4.445340 0.394350
v -0.668225 4.796151 0.407532
v -1.234712 4.035010 0.340651
v -1.029861 4.652735 0.273635
v -0.709384 4.939006 0.324382
v -1.310763 4.298973 0.187009
v -1.050037 4.868414 0.148096
v -0.723282 5.087571 0.237909
v -1.336442 4.573486 0.027228
v -1.029862 5.084098 0.022557
v -0.709384 5.236135 0.151435
v -1.310763 4.848001 -0.132554
v -0.970109 5.291493 -0.098159
v -0.668226 5.378990 0.068285
v -1.234712 5.111963 -0.286195
v -0.873076 5.482631 -0.209410
v -0.601389 5.510651 -0.008347
v -1.111213 5.355235 -0.427791
v -0.742492 5.650163 -0.306923
v -0.511440 5.626047 -0.075515
v -0.945010 5.568464 -0.551902
v -0.583374 5.787657 -0.386950
v -0.401838 5.720756 -0.130638
v -0.742492 5.743453 -0.653756
v -0.401838 5.889822 -0.446415
v -0.276795 5.791122 -0.171599
v -0.511440 5.873483 -0.729441
v -0.204860 5.952731 -0.483034
v -0.141113 5.834457 -0.196821
v -0.260735 5.953558 -0.776048
v -0.000010 5.973977 -0.495399
v -0.000010 5.849090 -0.205338
v -0.000010 5.980596 -0.791785
v 0.204839 5.952731 -0.483034
v 0.141093 5.834457 -0.196821
v 0.260715 5.953558 -0.776048
v 0.401818 5.889822 -0.446415
v 0.276774 5.791122 -0.171599
v 0.511420 5.873489 -0.729441
v 0.583353 5.787657 -0.386951
v 0.401818 5.720756 -0.130638
v 0.742472 5.743453 -0.653756
v 0.742472 5.650163 -0.306923
v 0.511420 5.626047 -0.075515
v 0.944990 5.568464 -0.551902
v 0.873056 5.482631 -0.209411
v 0.601369 5.510651 -0.008347
v 1.111192 5.355235 -0.427792
v 0.970089 5.291493 -0.098159
v 0.668205 5.378990 0.068285
v 1.234691 5.111963 -0.286195
v 1.029842 5.084098 0.022556
v 0.709364 5.236135 0.151435
v 1.310742 4.848001 -0.132554
v 1.050018 4.868414 0.148096
v 0.723262 5.087571 0.237909
v 1.336422 4.573486 0.027228
v 1.029842 4.652735 0.273635
v 0.709364 4.939006 0.324382
v 1.310742 4.298973 0.187009
v 0.970089 4.445340 0.394350
v 0.668205 4.796151 0.407532
v 1.234691 4.035010 0.340651
v 0.873056 4.254202 0.505602
v 0.601369 4.664491 0.484163
v 1.111192 3.791737 0.482247
v 0.742471 4.086670 0.603114
v 0.511420 4.549094 0.551331
v 0.944989 3.578508 0.606358
v 0.583354 3.949178 0.683141
v 0.401818 4.454387 0.606454
v 0.742471 3.403513 0.708213
v 0.401818 3.847012 0.742607
v 0.276774 4.384012 0.647415
v 0.511420 3.273484 0.783897
v 0.601368 2.685472 0.769699
v 0.260715 3.193414 0.830504
v 0.306570 2.591320 0.824503
v 0.340643 2.000951 0.761453
v -0.000011 2.559527 0.843008
v -0.000011 1.965628 0.782014
v -0.306589 2.591320 0.824502
v -0.340663 2.000951 0.761452
v -0.601388 2.685472 0.769699
v -0.668226 2.105572 0.700558
v -0.873075 2.838376 0.680702
v -0.970109 2.275465 0.601671
v -1.111212 3.044141 0.560934
v -1.234712 2.504105 0.468591
v -1.306645 3.294871 0.414996
v -1.451866 2.782700 0.306434
v -1.451865 3.580930 0.248496
v -1.613226 3.100550 0.121429
v -1.541291 3.891316 0.067834
v -1.712591 3.445439 -0.079313
v -1.571487 4.214114 -0.120049
v -1.746142 3.804107 -0.288077
v -1.541292 4.536906 -0.307932
v -1.712591 4.162771 -0.496842
v -1.451865 4.847293 -0.488596
v -1.613226 4.507660 -0.697584
v -1.306646 5.133351 -0.655096
v -1.451865 4.825510 -0.882589
v -1.111213 5.384080 -0.801033
v -1.234712 5.104105 -1.044746
v -0.873076 5.589851 -0.920803
v -0.970109 5.332745 -1.177827
v -0.601389 5.742752 -1.009798
v -0.668225 5.502638 -1.276713
v -0.306590 5.836908 -1.064602
v -0.340663 5.607259 -1.337608
v -0.000010 5.868701 -1.083107
v -0.000011 5.642581 -1.358169
v 0.306570 5.836908 -1.064602
v 0.340643 5.607259 -1.337608
v 0.601368 5.742752 -1.009798
v 0.668205 5.502638 -1.276713
v 0.873055 5.589851 -0.920803
v 0.970089 5.332745 -1.177827
v 1.111192 5.384080 -0.801034
v 1.234691 5.104105 -1.044747
v 1.306625 5.133351 -0.655096
v 1.451846 4.825510 -0.882589
v 1.451845 4.847293 -0.488596
v 1.613205 4.507660 -0.697584
v 1.541272 4.536906 -0.307933
v 1.712571 4.162771 -0.496842
v 1.571467 4.214114 -0.120050
v 1.746122 3.804102 -0.288077
v 1.541272 3.891316 0.067833
v 1.712571 3.445439 -0.079313
v 1.451846 3.580930 0.248496
v 1.613205 3.100550 0.121429
v 1.306626 3.294871 0.414996
v 1.451846 2.782700 0.306434
v 1.111192 3.044141 0.560935
v 1.234691 2.504105 0.468592
v 0.873056 2.838376 0.680703
v 0.970088 2.275465 0.601672
v 1.029841 1.736427 0.474154
v 0.668205 2.105572 0.700558
v 0.709364 1.556071 0.579132
v 0.723262 1.058076 0.410086
v 0.361625 1.445007 0.643777
v 0.368710 0.944840 0.475998
v -0.000011 1.407499 0.665605
v -0.000011 0.906600 0.498253
v -0.361645 1.445007 0.643776
v -0.368730 0.944840 0.475996
v -0.709384 1.556071 0.579132
v -0.723280 1.058082 0.410085
v -1.029861 1.736427 0.474154
v -1.050036 1.241971 0.303051
v -1.310762 1.979150 0.332878
v -1.336441 1.489447 0.159007
v -1.541291 2.274905 0.160731
v -1.571486 1.790999 -0.016511
v -1.712590 2.612329 -0.035669
v -1.746140 2.135037 -0.216759
v -1.818075 2.978462 -0.248774
v -1.853693 2.508334 -0.434040
v -1.853694 3.359222 -0.470398
v -1.890009 2.896556 -0.660005
v -1.818076 3.739981 -0.692022
v -1.853693 3.284779 -0.885970
v -1.712591 4.106109 -0.905127
v -1.746141 3.658076 -1.103252
v -1.541292 4.443540 -1.101528
v -1.571487 4.002114 -1.303499
v -1.310763 4.739293 -1.273674
v -1.336441 4.303666 -1.479018
v -1.029862 4.982016 -1.414950
v -1.050038 4.551143 -1.623062
v -0.709384 5.162373 -1.519928
v -0.723282 4.735036 -1.730097
v -0.361646 5.273436 -1.584573
v -0.368732 4.848273 -1.796009
v -0.000011 5.310937 -1.606402
v -0.000011 4.886512 -1.818264
v 0.361626 5.273436 -1.584573
v 0.368710 4.848273 -1.796009
v 0.709364 5.162373 -1.519928
v 0.723261 4.735036 -1.730097
v 1.029842 4.982016 -1.414951
v 1.050017 4.551143 -1.623063
v 1.310742 4.739293 -1.273675
v 1.336421 4.303666 -1.479019
v 1.541272 4.443540 -1.101528
v 1.571467 4.002120 -1.303500
v 1.712571 4.106109 -0.905128
v 1.746122 3.658082 -1.103253
v 1.818056 3.739981 -0.692022
v 1.853674 3.284779 -0.885971
v 1.853674 3.359222 -0.470399
v 1.889989 2.896556 -0.660006
v 1.818056 2.978462 -0.248775
v 1.853674 2.508339 -0.434040
v 1.712571 2.612329 -0.035669
v 1.746122 2.135037 -0.216760
v 1.541272 2.274905 0.160731
v 1.571468 1.790999 -0.016511
v 1.310742 1.979150 0.332878
v 1.336422 1.489447 0.159008
v 1.310742 1.053820 -0.046337
v 1.050018 1.241971 0.303052
v 1.029841 0.811096 0.094939
v 0.970088 0.460369 -0.142185
v 0.709364 0.630740 0.199918
v 0.668205 0.290475 -0.043298
v 0.361625 0.519677 0.264562
v 0.340643 0.185860 0.017597
v -0.000011 0.482175 0.286391
v -0.000011 0.150531 0.038157
v -0.361645 0.519677 0.264562
v -0.340664 0.185860 0.017596
v -0.709384 0.630740 0.199917
v -0.668226 0.290475 -0.043298
v -1.029861 0.811102 0.094939
v -0.970109 0.460374 -0.142186
v -1.310762 1.053820 -0.046337
v -1.234712 0.689008 -0.275265
v -1.541291 1.349579 -0.218483
v -1.451866 0.967609 -0.437423
v -1.712590 1.687004 -0.414883
v -1.613226 1.285453 -0.622427
v -1.818075 2.053131 -0.627989
v -1.712591 1.630341 -0.823169
v -1.853694 2.433892 -0.849613
v -1.746142 1.989011 -1.031934
v -1.818076 2.814657 -1.071236
v -1.712591 2.347681 -1.240699
v -1.712591 3.180784 -1.284342
v -1.613226 2.692563 -1.441440
v -1.541292 3.518209 -1.480742
v -1.451866 3.010413 -1.626445
v -1.310763 3.813968 -1.652889
v -1.234712 3.289008 -1.788602
v -1.029862 4.056686 -1.794165
v -0.970109 3.517648 -1.921683
v -0.709384 4.237049 -1.899143
v -0.668226 3.687541 -2.020569
v -0.361646 4.348111 -1.963789
v -0.340663 3.792163 -2.081464
v -0.000011 4.385612 -1.985616
v -0.000011 3.827491 -2.102026
v 0.361626 4.348111 -1.963789
v 0.340643 3.792163 -2.081464
v 0.709364 4.237049 -1.899143
v 0.668205 3.687541 -2.020569
v 1.029842 4.056686 -1.794165
v 0.970088 3.517648 -1.921683
v 1.310742 3.813968 -1.652889
v 1.234691 3.289008 -1.788603
v 1.541272 3.518209 -1.480743
v 1.451846 3.010413 -1.626445
v 1.712571 3.180784 -1.284342
v 1.613205 2.692563 -1.441440
v 1.818056 2.814657 -1.071237
v 1.712571 2.347681 -1.240699
v 1.853674 2.433892 -0.849613
v 1.746122 1.989011 -1.031934
v 1.818056 2.053131 -0.627989
v 1.712571 1.630342 -0.823169
v 1.712571 1.687004 -0.414883
v 1.613205 1.285453 -0.622427
v 1.541272 1.349580 -0.218483
v 1.451846 0.967603 -0.437423
v 1.306625 0.659762 -0.664916
v 1.234691 0.689008 -0.275264
v 1.111192 0.409033 -0.518977
v 0.944989 0.224649 -0.768110
v 0.873056 0.203262 -0.399209
v 0.742471 0.049659 -0.666255
v 0.601368 0.050362 -0.310213
v 0.511420 -0.080370 -0.590570
v 0.306570 -0.043790 -0.255409
v 0.260715 -0.160446 -0.543964
v -0.000011 -0.075581 -0.236904
v -0.000010 -0.187483 -0.528226
v -0.306590 -0.043790 -0.255410
v -0.260735 -0.160446 -0.543964
v -0.601388 0.050362 -0.310213
v -0.511440 -0.080370 -0.590570
v -0.873076 0.203267 -0.399209
v -0.742492 0.049659 -0.666255
v -1.111212 0.409032 -0.518978
v -0.945010 0.224649 -0.768110
v -1.306645 0.659762 -0.664916
v -1.111213 0.437883 -0.892220
v -1.451866 0.945820 -0.831416
v -1.234712 0.681150 -1.033817
v -1.541291 1.256206 -1.012079
v -1.310763 0.945117 -1.187457
v -1.571487 1.579004 -1.199961
v -1.336442 1.219626 -1.347239
v -1.541292 1.901797 -1.387844
v -1.310763 1.494141 -1.507020
v -1.451866 2.212183 -1.568508
v -1.234712 1.758103 -1.660662
v -1.306646 2.498242 -1.735008
v -1.111213 2.001375 -1.802258
v -1.111213 2.748972 -1.880945
v -0.945011 2.214604 -1.926369
v -0.873076 2.954743 -2.000715
v -0.742492 2.389599 -2.028224
v -0.601389 3.107641 -2.089710
v -0.511440 2.519629 -2.103909
v -0.306590 3.201793 -2.144514
v -0.260735 2.599704 -2.150515
v -0.000011 3.233591 -2.163019
v -0.000011 2.626736 -2.166252
v 0.306570 3.201793 -2.144514
v 0.260715 2.599704 -2.150515
v 0.601368 3.107641 -2.089710
v 0.511420 2.519629 -2.103909
v 0.873055 2.954743 -2.000715
v 0.742471 2.389599 -2.028224
v 1.111192 2.748972 -1.880946
v 0.944989 2.214604 -1.926369
v 1.306625 2.498242 -1.735008
v 1.111192 2.001375 -1.802258
v 1.451845 2.212183 -1.568508
v 1.234691 1.758103 -1.660662
v 1.541272 1.901797 -1.387845
v 1.310742 1.494141 -1.507020
v 1.571467 1.579004 -1.199962
v 1.336422 1.219626 -1.347239
v 1.541272 1.256206 -1.012079
v 1.310742 0.945117 -1.187457
v 1.451846 0.945820 -0.831416
v 1.234691 0.681150 -1.033817
v 0.970088 0.501620 -1.221853
v 1.111192 0.437877 -0.892220
v 0.873056 0.310480 -1.110601
v 0.601368 0.282463 -1.311666
v 0.742471 0.142950 -1.013088
v 0.511420 0.167065 -1.244497
v 0.583354 0.005456 -0.933061
v 0.401818 0.072363 -1.189373
v 0.401818 -0.096709 -0.873596
v 0.276773 0.001990 -1.148414
v 0.204840 -0.159618 -0.836977
v 0.141093 -0.041346 -1.123190
v -0.000010 -0.180858 -0.824613
v -0.000010 -0.055978 -1.114673
v -0.204860 -0.159618 -0.836977
v -0.141114 -0.041346 -1.123190
v -0.401838 -0.096703 -0.873596
v -0.276794 0.001990 -1.148414
v -0.583374 0.005456 -0.933062
v -0.401838 0.072363 -1.189373
v -0.742491 0.142949 -1.013088
v -0.511440 0.167065 -1.244497
v -0.873076 0.310480 -1.110601
v -0.601388 0.282463 -1.311666
v -0.970109 0.501620 -1.221853
v -0.668226 0.414122 -1.388297
v -1.029861 0.709014 -1.342567
v -0.709384 0.556977 -1.471446
v -1.050037 0.924699 -1.468107
v -0.723282 0.705542 -1.557920
v -1.029862 1.140384 -1.593646
v -0.709384 0.854107 -1.644393
v -0.970109 1.347778 -1.714361
v -0.668227 0.996967 -1.727543
v -0.873076 1.538911 -1.825613
v -0.601389 1.128621 -1.804174
v -0.742492 1.706448 -1.923126
v -0.511440 1.244019 -1.871342
v -0.583375 1.843935 -2.003152
v -0.401838 1.338726 -1.926465
v -0.401838 1.946100 -2.062617
v -0.276795 1.409099 -1.967426
v -0.204861 2.009011 -2.099236
v -0.141114 1.452435 -1.992650
v -0.000011 2.030256 -2.111601
v -0.000011 1.467067 -2.001166
v 0.204839 2.009017 -2.099236
v 0.141093 1.452435 -1.992650
v 0.401818 1.946100 -2.062618
v 0.276773 1.409099 -1.967426
v 0.583353 1.843935 -2.003152
v 0.401818 1.338726 -1.926465
v 0.742471 1.706448 -1.923126
v 0.511420 1.244026 -1.871342
v 0.873056 1.538911 -1.825613
v 0.601368 1.128621 -1.804174
v 0.970088 1.347778 -1.714361
v 0.668205 0.996967 -1.727543
v 1.029841 1.140384 -1.593646
v 0.709364 0.854112 -1.644393
v 1.050017 0.924699 -1.468107
v 0.723262 0.705542 -1.557920
v 1.029841 0.709015 -1.342568
v 0.709364 0.556977 -1.471447
v 0.361625 0.494852 -1.569143
v 0.668205 0.414122 -1.388297
v 0.340643 0.422023 -1.526753
v 0.306570 0.354908 -1.487687
v -0.000011 0.525021 -1.631901
v -0.260735 0.845102 -1.773007
v -0.000011 0.182370 -1.387261
v 0.071923 0.189828 -1.391603
v 0.141093 0.211923 -1.404462
v 0.204840 0.247795 -1.425343
v 0.260715 0.296079 -1.453444
v 0.368710 0.570587 -1.613226
v 0.361625 0.646328 -1.657310
v 0.340643 0.719159 -1.699700
v 0.306570 0.786273 -1.738766
v 0.260715 0.845102 -1.773007
v 0.204840 0.893385 -1.801109
v 0.141093 0.929258 -1.821991
v 0.071924 0.951353 -1.834849
v -0.000011 0.958811 -1.839191
v -0.071944 0.951353 -1.834849
v -0.141114 0.929258 -1.821991
v -0.204861 0.893385 -1.801109
v -0.306590 0.786273 -1.738765
v -0.340664 0.719159 -1.699699
v -0.361646 0.646328 -1.657310
v -0.368731 0.570587 -1.613226
v -0.361646 0.494852 -1.569143
v -0.340664 0.422023 -1.526753
v -0.306590 0.354908 -1.487687
v -0.260735 0.296079 -1.453444
v -0.204861 0.247795 -1.425343
v -0.141114 0.211923 -1.404462
v -0.071944 0.189828 -1.391603
v 0.141093 4.863855 0.501979
v 0.141093 4.340677 0.672638
v 0.071924 4.841765 0.514838
v -0.000011 5.268093 0.311890
v -0.000011 4.834302 0.519179
v -0.071944 4.841765 0.514838
v -0.141113 4.863855 0.501979
v -0.204860 4.899733 0.481098
v -0.260735 4.948011 0.452996
v -0.306590 5.006841 0.418754
v -0.340663 5.073960 0.379687
v -0.361646 5.146784 0.337298
v -0.368731 5.222525 0.293215
v -0.361646 5.298261 0.249131
v -0.340663 5.371089 0.206742
v -0.306590 5.438210 0.167675
v -0.260735 5.497040 0.133433
v -0.204860 5.545318 0.105331
v -0.141113 5.581194 0.084451
v -0.071944 5.603285 0.071591
v -0.000010 5.610743 0.067250
v 0.071924 5.603285 0.071591
v 0.141093 5.581194 0.084451
v 0.204840 5.545318 0.105331
v 0.260715 5.497040 0.133433
v 0.306570 5.438210 0.167675
v 0.340643 5.371089 0.206742
v 0.361626 5.298261 0.249131
v 0.368711 5.222525 0.293215
v 0.361626 5.146784 0.337298
v 0.340643 5.073960 0.379687
v 0.306570 5.006841 0.418754
v 0.260715 4.948011 0.452996
v 0.204840 4.899733 0.481098
vn 0.0392 0.1923 0.9806
vn 0.0506 0.0911 0.9946
vn -0.0393 0.1923 0.9806
vn -0.0506 0.0911 0.9946
vn -0.1171 0.1997 0.9728
vn -0.1510 0.0997 0.9835
vn -0.1928 0.2146 0.9575
vn -0.2492 0.1168 0.9614
vn -0.2651 0.2371 0.9346
vn -0.3435 0.1428 0.9282
vn -0.3324 0.2674 0.9045
vn -0.4321 0.1778 0.8841
vn -0.3928 0.3054 0.8674
vn -0.5129 0.2222 0.8292
vn -0.4445 0.3515 0.8239
vn -0.5835 0.2764 0.7636
vn -0.4850 0.4056 0.7748
vn -0.6409 0.3405 0.6880
vn -0.5117 0.4675 0.7209
vn -0.6815 0.4147 0.6030
vn -0.5214 0.5365 0.6636
vn -0.7008 0.4988 0.5100
vn -0.5106 0.6112 0.6048
vn -0.6936 0.5915 0.4113
vn -0.4757 0.6890 0.5468
vn -0.6538 0.6902 0.3103
vn -0.4137 0.7655 0.4928
vn -0.5756 0.7897 0.2124
vn -0.3232 0.8343 0.4467
vn -0.4551 0.8816 0.1253
vn -0.2066 0.8872 0.4126
vn -0.2938 0.9541 0.0587
vn -0.0712 0.9162 0.3945
vn -0.1018 0.9946 0.0222
vn 0.0712 0.9162 0.3945
vn 0.1018 0.9946 0.0222
vn 0.2066 0.8872 0.4126
vn 0.2938 0.9541 0.0587
vn 0.3232 0.8343 0.4467
vn 0.4551 0.8816 0.1253
vn 0.4137 0.7655 0.4928
vn 0.5755 0.7897 0.2124
vn 0.4757 0.6890 0.5468
vn 0.6538 0.6902 0.3103
vn 0.5106 0.6112 0.6048
vn 0.6936 0.5915 0.4113
vn 0.5214 0.5365 0.6636
vn 0.7008 0.4988 0.5100
vn 0.5117 0.4675 0.7209
vn 0.6815 0.4147 0.6030
vn 0.4850 0.4056 0.7748
vn 0.6409 0.3405 0.6880
vn 0.4445 0.3515 0.8239
vn 0.5835 0.2764 0.7636
vn 0.3928 0.3054 0.8674
vn 0.5129 0.2222 0.8292
vn 0.3324 0.2674 0.9045
vn 0.4321 0.1778 0.8841
vn 0.2651 0.2371 0.9346
vn 0.3435 0.1428 0.9282
vn 0.1928 0.2146 0.9575
vn 0.2492 0.1168 0.9614
vn 0.1171 0.1997 0.9728
vn 0.1510 0.0997 0.9835
vn 0.2996 0.0228 0.9538
vn 0.1815 0.0040 0.9834
vn 0.0608 -0.0053 0.9981
vn 0.2103 -0.0918 0.9733
vn 0.0705 -0.1019 0.9923
vn -0.0608 -0.0053 0.9981
vn -0.0705 -0.1019 0.9923
vn -0.1815 0.0040 0.9834
vn -0.2103 -0.0918 0.9733
vn -0.2996 0.0228 0.9538
vn -0.3466 -0.0716 0.9353
vn -0.4131 0.0512 0.9093
vn -0.4770 -0.0410 0.8779
vn -0.5197 0.0894 0.8496
vn -0.5984 -0.0001 0.8012
vn -0.6170 0.1378 0.7748
vn -0.7074 0.0512 0.7049
vn -0.7016 0.1965 0.6849
vn -0.7998 0.1127 0.5896
vn -0.7699 0.2657 0.5803
vn -0.8707 0.1840 0.4561
vn -0.8171 0.3452 0.4617
vn -0.9145 0.2640 0.3065
vn -0.8378 0.4341 0.3312
vn -0.9253 0.3507 0.1445
vn -0.8256 0.5307 0.1918
vn -0.8971 0.4412 -0.0244
vn -0.7738 0.6315 0.0488
vn -0.8251 0.5313 -0.1922
vn -0.6766 0.7309 -0.0896
vn -0.7070 0.6153 -0.3486
vn -0.5311 0.8203 -0.2121
vn -0.5443 0.6869 -0.4816
vn -0.3408 0.8892 -0.3053
vn -0.3438 0.7393 -0.5790
vn -0.1176 0.9270 -0.3561
vn -0.1176 0.7671 -0.6306
vn 0.1176 0.9270 -0.3561
vn 0.1176 0.7671 -0.6306
vn 0.3408 0.8892 -0.3053
vn 0.3438 0.7393 -0.5790
vn 0.5311 0.8203 -0.2121
vn 0.5443 0.6869 -0.4816
vn 0.6766 0.7309 -0.0896
vn 0.7070 0.6153 -0.3486
vn 0.7738 0.6316 0.0488
vn 0.8251 0.5313 -0.1922
vn 0.8256 0.5307 0.1918
vn 0.8971 0.4412 -0.0244
vn 0.8378 0.4341 0.3312
vn 0.9253 0.3507 0.1445
vn 0.8171 0.3452 0.4617
vn 0.9145 0.2640 0.3065
vn 0.7699 0.2657 0.5803
vn 0.8707 0.1840 0.4561
vn 0.7016 0.1965 0.6849
vn 0.7998 0.1127 0.5896
vn 0.6170 0.1378 0.7748
vn 0.7074 0.0512 0.7049
vn 0.5197 0.0894 0.8496
vn 0.5984 -0.0001 0.8012
vn 0.4131 0.0512 0.9093
vn 0.4770 -0.0410 0.8779
vn 0.3466 -0.0716 0.9353
vn 0.5372 -0.1373 0.8322
vn 0.3920 -0.1704 0.9040
vn 0.2384 -0.1925 0.9519
vn 0.4368 -0.2782 0.8555
vn 0.2669 -0.3031 0.9148
vn 0.0800 -0.2035 0.9758
vn 0.0897 -0.3156 0.9446
vn -0.0898 -0.3156 0.9446
vn -0.0800 -0.2035 0.9758
vn -0.2384 -0.1925 0.9519
vn -0.2669 -0.3031 0.9148
vn -0.3920 -0.1704 0.9040
vn -0.4368 -0.2782 0.8555
vn -0.5372 -0.1373 0.8322
vn -0.5943 -0.2412 0.7672
vn -0.6699 -0.0934 0.7366
vn -0.7338 -0.1928 0.6514
vn -0.7853 -0.0390 0.6179
vn -0.8493 -0.1340 0.5106
vn -0.8782 0.0250 0.4777
vn -0.9349 -0.0665 0.3485
vn -0.9428 0.0973 0.3187
vn -0.9853 0.0073 0.1709
vn -0.9736 0.1758 0.1455
vn -0.9963 0.0844 -0.0151
vn -0.9656 0.2574 -0.0357
vn -0.9662 0.1613 -0.2011
vn -0.9156 0.3386 -0.2168
vn -0.8955 0.2344 -0.3784
vn -0.8227 0.4152 -0.3884
vn -0.7873 0.3002 -0.5385
vn -0.6890 0.4828 -0.5405
vn -0.6468 0.3560 -0.6744
vn -0.5199 0.5375 -0.6639
vn -0.4806 0.3996 -0.7806
vn -0.3235 0.5758 -0.7509
vn -0.2958 0.4293 -0.8534
vn -0.1098 0.5956 -0.7957
vn -0.0998 0.4444 -0.8903
vn 0.1098 0.5956 -0.7957
vn 0.0998 0.4444 -0.8903
vn 0.3235 0.5758 -0.7509
vn 0.2958 0.4293 -0.8534
vn 0.5199 0.5375 -0.6639
vn 0.4806 0.3996 -0.7806
vn 0.6890 0.4828 -0.5405
vn 0.6468 0.3560 -0.6744
vn 0.8227 0.4152 -0.3884
vn 0.7873 0.3002 -0.5385
vn 0.9156 0.3386 -0.2168
vn 0.8955 0.2344 -0.3784
vn 0.9656 0.2574 -0.0357
vn 0.9662 0.1613 -0.2011
vn 0.9736 0.1758 0.1455
vn 0.9963 0.0844 -0.0151
vn 0.9428 0.0973 0.3187
vn 0.9853 0.0073 0.1709
vn 0.8782 0.0250 0.4777
vn 0.9349 -0.0665 0.3485
vn 0.7853 -0.0390 0.6179
vn 0.8493 -0.1340 0.5106
vn 0.6699 -0.0934 0.7366
vn 0.7338 -0.1928 0.6514
vn 0.5943 -0.2412 0.7672
vn 0.7873 -0.3002 0.5385
vn 0.6468 -0.3560 0.6744
vn 0.4806 -0.3996 0.7806
vn 0.6890 -0.4828 0.5405
vn 0.5199 -0.5375 0.6639
vn 0.2958 -0.4293 0.8534
vn 0.3235 -0.5758 0.7508
vn 0.0998 -0.4444 0.8903
vn 0.1098 -0.5956 0.7957
vn -0.0998 -0.4444 0.8903
vn -0.1098 -0.5956 0.7957
vn -0.2958 -0.4293 0.8534
vn -0.3235 -0.5758 0.7509
vn -0.4806 -0.3996 0.7806
vn -0.5200 -0.5375 0.6639
vn -0.6468 -0.3560 0.6744
vn -0.6890 -0.4828 0.5405
vn -0.7873 -0.3002 0.5385
vn -0.8227 -0.4152 0.3883
vn -0.8955 -0.2344 0.3784
vn -0.9156 -0.3386 0.2168
vn -0.9662 -0.1613 0.2011
vn -0.9656 -0.2574 0.0357
vn -0.9963 -0.0844 0.0151
vn -0.9736 -0.1758 -0.1455
vn -0.9853 -0.0073 -0.1709
vn -0.9428 -0.0973 -0.3187
vn -0.9349 0.0665 -0.3485
vn -0.8782 -0.0250 -0.4777
vn -0.8493 0.1340 -0.5106
vn -0.7853 0.0390 -0.6179
vn -0.7338 0.1928 -0.6514
vn -0.6699 0.0934 -0.7366
vn -0.5943 0.2412 -0.7672
vn -0.5372 0.1373 -0.8322
vn -0.4368 0.2782 -0.8555
vn -0.3920 0.1704 -0.9040
vn -0.2669 0.3031 -0.9148
vn -0.2384 0.1925 -0.9519
vn -0.0897 0.3156 -0.9446
vn -0.0800 0.2035 -0.9758
vn 0.0897 0.3156 -0.9446
vn 0.0800 0.2035 -0.9758
vn 0.2669 0.3031 -0.9148
vn 0.2384 0.1925 -0.9519
vn 0.4368 0.2782 -0.8555
vn 0.3920 0.1704 -0.9040
vn 0.5943 0.2412 -0.7672
vn 0.5372 0.1373 -0.8322
vn 0.7338 0.1928 -0.6514
vn 0.6699 0.0934 -0.7366
vn 0.8493 0.1340 -0.5106
vn 0.7853 0.0390 -0.6179
vn 0.9349 0.0665 -0.3485
vn 0.8782 -0.0250 -0.4777
vn 0.9853 -0.0073 -0.1709
vn 0.9428 -0.0973 -0.3187
vn 0.9963 -0.0844 0.0151
vn 0.9736 -0.1758 -0.1455
vn 0.9662 -0.1613 0.2011
vn 0.9656 -0.2574 0.0357
vn 0.8955 -0.2344 0.3784
vn 0.9156 -0.3386 0.2168
vn 0.8227 -0.4152 0.3884
vn 0.8971 -0.4412 0.0244
vn 0.8251 -0.5313 0.1922
vn 0.7070 -0.6153 0.3486
vn 0.7738 -0.6316 -0.0488
vn 0.6766 -0.7309 0.0896
vn 0.5443 -0.6869 0.4816
vn 0.5311 -0.8203 0.2121
vn 0.3438 -0.7393 0.5790
vn 0.3408 -0.8892 0.3053
vn 0.1176 -0.7671 0.6306
vn 0.1176 -0.9270 0.3561
vn -0.1176 -0.7671 0.6306
vn -0.1176 -0.9270 0.3561
vn -0.3438 -0.7393 0.5790
vn -0.3407 -0.8892 0.3053
vn -0.5443 -0.6869 0.4816
vn -0.5311 -0.8203 0.2121
vn -0.7070 -0.6153 0.3486
vn -0.6766 -0.7309 0.0896
vn -0.8251 -0.5313 0.1922
vn -0.7738 -0.6316 -0.0488
vn -0.8971 -0.4412 0.0244
vn -0.8256 -0.5307 -0.1918
vn -0.9253 -0.3507 -0.1445
vn -0.8378 -0.4341 -0.3312
vn -0.9145 -0.2640 -0.3065
vn -0.8171 -0.3452 -0.4617
vn -0.8707 -0.1840 -0.4561
vn -0.7699 -0.2657 -0.5803
vn -0.7998 -0.1127 -0.5896
vn -0.7016 -0.1965 -0.6849
vn -0.7074 -0.0512 -0.7049
vn -0.6170 -0.1378 -0.7748
vn -0.5984 0.0001 -0.8012
vn -0.5197 -0.0894 -0.8496
vn -0.4770 0.0410 -0.8779
vn -0.4131 -0.0512 -0.9093
vn -0.3466 0.0716 -0.9353
vn -0.2996 -0.0228 -0.9538
vn -0.2103 0.0918 -0.9733
vn -0.1815 -0.0040 -0.9834
vn -0.0705 0.1019 -0.9923
vn -0.0608 0.0053 -0.9981
vn 0.0705 0.1019 -0.9923
vn 0.0608 0.0053 -0.9981
vn 0.2103 0.0918 -0.9733
vn 0.1815 -0.0040 -0.9834
vn 0.3466 0.0716 -0.9353
vn 0.2996 -0.0228 -0.9538
vn 0.4770 0.0410 -0.8779
vn 0.4131 -0.0512 -0.9093
vn 0.5984 0.0001 -0.8012
vn 0.5197 -0.0894 -0.8496
vn 0.7074 -0.0512 -0.7049
vn 0.6170 -0.1378 -0.7748
vn 0.7998 -0.1127 -0.5896
vn 0.7016 -0.1965 -0.6849
vn 0.8707 -0.1840 -0.4561
vn 0.7699 -0.2657 -0.5803
vn 0.9145 -0.2640 -0.3065
vn 0.8171 -0.3452 -0.4617
vn 0.9253 -0.3507 -0.1445
vn 0.8378 -0.4341 -0.3312
vn 0.8256 -0.5307 -0.1918
vn 0.7008 -0.4988 -0.5100
vn 0.6936 -0.5915 -0.4113
vn 0.6538 -0.6902 -0.3103
vn 0.5106 -0.6112 -0.6048
vn 0.4757 -0.6890 -0.5468
vn 0.5755 -0.7897 -0.2124
vn 0.4136 -0.7655 -0.4928
vn 0.4551 -0.8816 -0.1253
vn 0.3232 -0.8343 -0.4467
vn 0.2938 -0.9541 -0.0587
vn 0.2066 -0.8872 -0.4126
vn 0.1018 -0.9946 -0.0222
vn 0.0712 -0.9162 -0.3944
vn -0.1018 -0.9946 -0.0222
vn -0.0712 -0.9162 -0.3944
vn -0.2938 -0.9541 -0.0587
vn -0.2067 -0.8872 -0.4126
vn -0.4551 -0.8816 -0.1253
vn -0.3232 -0.8343 -0.4467
vn -0.5755 -0.7897 -0.2124
vn -0.4137 -0.7655 -0.4928
vn -0.6538 -0.6902 -0.3103
vn -0.4757 -0.6890 -0.5468
vn -0.6936 -0.5915 -0.4113
vn -0.5106 -0.6112 -0.6048
vn -0.7008 -0.4988 -0.5100
vn -0.5214 -0.5365 -0.6636
vn -0.6815 -0.4147 -0.6030
vn -0.5117 -0.4675 -0.7209
vn -0.6409 -0.3405 -0.6880
vn -0.4850 -0.4056 -0.7748
vn -0.5835 -0.2764 -0.7636
vn -0.4445 -0.3515 -0.8239
vn -0.5129 -0.2222 -0.8292
vn -0.3928 -0.3055 -0.8674
vn -0.4321 -0.1778 -0.8841
vn -0.3324 -0.2674 -0.9045
vn -0.3435 -0.1428 -0.9282
vn -0.2651 -0.2371 -0.9346
vn -0.2492 -0.1168 -0.9614
vn -0.1928 -0.2146 -0.9575
vn -0.1510 -0.0997 -0.9835
vn -0.1171 -0.1997 -0.9728
vn -0.0506 -0.0911 -0.9946
vn -0.0392 -0.1923 -0.9806
vn 0.0506 -0.0911 -0.9946
vn 0.0392 -0.1923 -0.9806
vn 0.1510 -0.0997 -0.9835
vn 0.1171 -0.1997 -0.9728
vn 0.2492 -0.1168 -0.9614
vn 0.1928 -0.2146 -0.9575
vn 0.3435 -0.1428 -0.9282
vn 0.2651 -0.2371 -0.9346
vn 0.4321 -0.1778 -0.8841
vn 0.3324 -0.2674 -0.9045
vn 0.5129 -0.2222 -0.8292
vn 0.3928 -0.3055 -0.8674
vn 0.5835 -0.2764 -0.7636
vn 0.4445 -0.3515 -0.8239
vn 0.6409 -0.3405 -0.6880
vn 0.4850 -0.4056 -0.7748
vn 0.6815 -0.4147 -0.6030
vn 0.5117 -0.4675 -0.7209
vn 0.5214 -0.5365 -0.6636
vn 0.3159 -0.4992 -0.8069
vn 0.3156 -0.5436 -0.7777
vn 0.3024 -0.5895 -0.7490
vn 0.0964 -0.5368 -0.8382
vn 0.1033 -0.5224 -0.8464
vn -0.0786 -0.4550 -0.8870
vn -0.0639 -0.4457 -0.8929
vn -0.0111 -0.5810 -0.8138
vn 0.0111 -0.5810 -0.8138
vn 0.0329 -0.5777 -0.8156
vn 0.0531 -0.5711 -0.8191
vn 0.0709 -0.5618 -0.8243
vn 0.0855 -0.5501 -0.8307
vn 0.1060 -0.5076 -0.8550
vn 0.1047 -0.4929 -0.8637
vn 0.0994 -0.4790 -0.8722
vn 0.0906 -0.4663 -0.8800
vn 0.0786 -0.4550 -0.8870
vn 0.0639 -0.4457 -0.8929
vn 0.0472 -0.4385 -0.8975
vn 0.0289 -0.4336 -0.9006
vn 0.0098 -0.4311 -0.9022
vn -0.0098 -0.4311 -0.9022
vn -0.0289 -0.4336 -0.9006
vn -0.0472 -0.4385 -0.8975
vn -0.0906 -0.4663 -0.8800
vn -0.0994 -0.4790 -0.8722
vn -0.1047 -0.4929 -0.8637
vn -0.1060 -0.5076 -0.8550
vn -0.1033 -0.5224 -0.8464
vn -0.0964 -0.5368 -0.8382
vn -0.0855 -0.5501 -0.8307
vn -0.0709 -0.5618 -0.8243
vn -0.0531 -0.5711 -0.8191
vn -0.0329 -0.5777 -0.8156
vn -0.0383 -0.7523 -0.6578
vn -0.1123 -0.7384 -0.6649
vn -0.1786 -0.7124 -0.6787
vn -0.2336 -0.6767 -0.6982
vn -0.2752 -0.6348 -0.7221
vn -0.3024 -0.5895 -0.7490
vn -0.3156 -0.5436 -0.7777
vn -0.3159 -0.4992 -0.8069
vn -0.3045 -0.4577 -0.8353
vn -0.2831 -0.4202 -0.8621
vn -0.2532 -0.3874 -0.8864
vn -0.2163 -0.3597 -0.9077
vn -0.1738 -0.3373 -0.9252
vn -0.1271 -0.3205 -0.9387
vn -0.0775 -0.3092 -0.9478
vn -0.0260 -0.3035 -0.9525
vn 0.0260 -0.3035 -0.9525
vn 0.0774 -0.3092 -0.9478
vn 0.1272 -0.3205 -0.9387
vn 0.1738 -0.3373 -0.9252
vn 0.2163 -0.3597 -0.9077
vn 0.2532 -0.3874 -0.8864
vn 0.2831 -0.4202 -0.8621
vn 0.3045 -0.4577 -0.8353
vn 0.2751 -0.6348 -0.7221
vn 0.2336 -0.6768 -0.6982
vn 0.1786 -0.7124 -0.6787
vn 0.1122 -0.7384 -0.6649
vn 0.0383 -0.7523 -0.6578
vn 0.1271 0.3205 0.9387
vn 0.0775 0.3092 0.9478
vn 0.0260 0.3035 0.9525
vn 0.0289 0.4336 0.9006
vn 0.0097 0.4311 0.9022
vn -0.0260 0.3035 0.9525
vn -0.0097 0.4311 0.9022
vn -0.0775 0.3092 0.9478
vn -0.0289 0.4336 0.9006
vn -0.1271 0.3205 0.9387
vn -0.0472 0.4385 0.8975
vn -0.1739 0.3373 0.9252
vn -0.0639 0.4457 0.8929
vn -0.2163 0.3597 0.9077
vn -0.0786 0.4550 0.8870
vn -0.2532 0.3874 0.8865
vn -0.0906 0.4662 0.8800
vn -0.2831 0.4202 0.8621
vn -0.0994 0.4790 0.8722
vn -0.3045 0.4577 0.8353
vn -0.1047 0.4929 0.8637
vn -0.3159 0.4992 0.8069
vn -0.1060 0.5076 0.8550
vn -0.3156 0.5436 0.7777
vn -0.1033 0.5224 0.8464
vn -0.3024 0.5895 0.7490
vn -0.0964 0.5368 0.8382
vn -0.2752 0.6348 0.7221
vn -0.0855 0.5501 0.8307
vn -0.2336 0.6767 0.6982
vn -0.0709 0.5618 0.8242
vn -0.1786 0.7124 0.6787
vn -0.0531 0.5711 0.8192
vn -0.1122 0.7384 0.6649
vn -0.0329 0.5777 0.8156
vn -0.0383 0.7523 0.6578
vn -0.0111 0.5810 0.8138
vn 0.0383 0.7523 0.6578
vn 0.0111 0.5810 0.8138
vn 0.1122 0.7384 0.6649
vn 0.0329 0.5777 0.8156
vn 0.1786 0.7124 0.6787
vn 0.0531 0.5711 0.8192
vn 0.2336 0.6768 0.6982
vn 0.0709 0.5618 0.8242
vn 0.2752 0.6348 0.7221
vn 0.0855 0.5501 0.8307
vn 0.3024 0.5895 0.7490
vn 0.0964 0.5368 0.8382
vn 0.3156 0.5436 0.7777
vn 0.1033 0.5224 0.8464
vn 0.3159 0.4992 0.8069
vn 0.1060 0.5076 0.8550
vn 0.3045 0.4577 0.8353
vn 0.1047 0.4929 0.8637
vn 0.2831 0.4202 0.8621
vn 0.0994 0.4790 0.8722
vn 0.0906 0.4662 0.8800
vn 0.2532 0.3874 0.8865
vn 0.2163 0.3597 0.9076
vn 0.0786 0.4550 0.8870
vn 0.1738 0.3373 0.9252
vn 0.0639 0.4457 0.8929
vn 0.0472 0.4385 0.8975
vn -0.0392 0.1923 0.9806
vn -0.5755 0.7897 0.2124
vn -0.0712 0.9162 0.3944
vn 0.4551 0.8816 0.1254
vn -0.7738 0.6316 0.0488
vn 0.3407 0.8892 -0.3053
vn -0.3235 -0.5758 0.7508
vn -0.4806 -0.3995 0.7806
vn 0.7738 -0.6315 -0.0488
vn 0.3407 -0.8892 0.3053
vn -0.3408 -0.8892 0.3053
vn -0.7738 -0.6315 -0.0488
vn -0.8256 -0.5307 -0.1917
vn 0.4137 -0.7655 -0.4928
vn -0.2066 -0.8872 -0.4126
vn -0.4136 -0.7655 -0.4928
vn -0.1929 -0.2146 -0.9575
vn 0.0393 -0.1923 -0.9806
vn -0.1122 -0.7384 -0.6649
vn -0.2336 -0.6768 -0.6982
vn -0.2163 -0.3597 -0.9076
vn -0.1272 -0.3205 -0.9387
vn -0.0774 -0.3092 -0.9478
vn 0.0775 -0.3092 -0.9478
vn 0.1271 -0.3205 -0.9387
vn 0.1739 -0.3373 -0.9252
vn 0.2752 -0.6348 -0.7221
vn 0.2336 -0.6767 -0.6982
vn 0.1123 -0.7384 -0.6649
vn -0.1738 0.3373 0.9252
vn -0.2163 0.3597 0.9076
vn -0.2336 0.6768 0.6982
vn 0.2336 0.6767 0.6982
vn 0.1739 0.3373 0.9252
vt 0.718750 0.812500
vt 0.750000 0.875000
vt 0.750000 0.812500
vt 0.718750 0.750000
vt 0.750000 0.750000
vt 0.781250 0.812500
vt 0.781250 0.875000
vt 0.781250 0.750000
vt 0.812500 0.812500
vt 0.812500 0.875000
vt 0.812500 0.750000
vt 0.843750 0.812500
vt 0.843750 0.875000
vt 0.843750 0.750000
vt 0.875000 0.812500
vt 0.875000 0.875000
vt 0.875000 0.750000
vt 0.906250 0.812500
vt 0.906250 0.875000
vt 0.906250 0.750000
vt 0.937500 0.812500
vt 0.937500 0.875000
vt 0.937500 0.750000
vt 0.968750 0.812500
vt 0.968750 0.875000
vt 0.968750 0.750000
vt 1.000000 0.812500
vt 1.000000 0.875000
vt 1.000000 0.750000
vt 0.031250 0.812500
vt 0.000000 0.875000
vt 0.031250 0.875000
vt 0.031250 0.750000
vt 0.000000 0.812500
vt 0.062500 0.812500
vt 0.062500 0.875000
vt 0.062500 0.750000
vt 0.093750 0.812500
vt 0.093750 0.875000
vt 0.093750 0.750000
vt 0.125000 0.812500
vt 0.125000 0.875000
vt 0.125000 0.750000
vt 0.156250 0.812500
vt 0.156250 0.875000
vt 0.156250 0.750000
vt 0.187500 0.812500
vt 0.187500 0.875000
vt 0.187500 0.750000
vt 0.218750 0.812500
vt 0.218750 0.875000
vt 0.218750 0.750000
vt 0.250000 0.812500
vt 0.250000 0.875000
vt 0.250000 0.750000
vt 0.281250 0.875000
vt 0.281250 0.812500
vt 0.281250 0.750000
vt 0.312500 0.875000
vt 0.312500 0.812500
vt 0.312500 0.750000
vt 0.343750 0.875000
vt 0.343750 0.812500
vt 0.343750 0.750000
vt 0.375000 0.875000
vt 0.375000 0.812500
vt 0.375000 0.750000
vt 0.406250 0.875000
vt 0.406250 0.812500
vt 0.406250 0.750000
vt 0.437500 0.875000
vt 0.437500 0.812500
vt 0.437500 0.750000
vt 0.468750 0.875000
vt 0.468750 0.812500
vt 0.468750 0.750000
vt 0.500000 0.875000
vt 0.500000 0.812500
vt 0.500000 0.750000
vt 0.531250 0.875000
vt 0.531250 0.812500
vt 0.531250 0.750000
vt 0.562500 0.875000
vt 0.562500 0.812500
vt 0.562500 0.750000
vt 0.593750 0.875000
vt 0.593750 0.812500
vt 0.593750 0.750000
vt 0.625000 0.875000
vt 0.625000 0.812500
vt 0.625000 0.750000
vt 0.656250 0.875000
vt 0.656250 0.812500
vt 0.656250 0.750000
vt 0.687500 0.875000
vt 0.687500 0.812500
vt 0.687500 0.750000
vt 0.718750 0.875000
vt 0.656250 0.687500
vt 0.687500 0.687500
vt 0.718750 0.687500
vt 0.750000 0.687500
vt 0.687500 0.625000
vt 0.718750 0.625000
vt 0.750000 0.625000
vt 0.781250 0.687500
vt 0.781250 0.625000
vt 0.812500 0.687500
vt 0.812500 0.625000
vt 0.843750 0.687500
vt 0.843750 0.625000
vt 0.875000 0.687500
vt 0.875000 0.625000
vt 0.906250 0.687500
vt 0.906250 0.625000
vt 0.937500 0.687500
vt 0.937500 0.625000
vt 0.968750 0.687500
vt 0.968750 0.625000
vt 1.000000 0.687500
vt 1.000000 0.625000
vt 0.031250 0.687500
vt 0.000000 0.750000
vt 0.031250 0.625000
vt 0.000000 0.687500
vt 0.062500 0.687500
vt 0.062500 0.625000
vt 0.093750 0.687500
vt 0.093750 0.625000
vt 0.125000 0.687500
vt 0.125000 0.625000
vt 0.156250 0.687500
vt 0.156250 0.625000
vt 0.187500 0.687500
vt 0.187500 0.625000
vt 0.218750 0.687500
vt 0.218750 0.625000
vt 0.250000 0.687500
vt 0.250000 0.625000
vt 0.281250 0.687500
vt 0.281250 0.625000
vt 0.312500 0.687500
vt 0.312500 0.625000
vt 0.343750 0.687500
vt 0.343750 0.625000
vt 0.375000 0.687500
vt 0.375000 0.625000
vt 0.406250 0.687500
vt 0.406250 0.625000
vt 0.437500 0.687500
vt 0.437500 0.625000
vt 0.468750 0.687500
vt 0.468750 0.625000
vt 0.500000 0.687500
vt 0.500000 0.625000
vt 0.531250 0.687500
vt 0.531250 0.625000
vt 0.562500 0.687500
vt 0.562500 0.625000
vt 0.593750 0.687500
vt 0.593750 0.625000
vt 0.625000 0.687500
vt 0.625000 0.625000
vt 0.656250 0.625000
vt 0.625000 0.562500
vt 0.656250 0.562500
vt 0.687500 0.562500
vt 0.718750 0.562500
vt 0.656250 0.500000
vt 0.687500 0.500000
vt 0.718750 0.500000
vt 0.750000 0.562500
vt 0.750000 0.500000
vt 0.781250 0.500000
vt 0.781250 0.562500
vt 0.812500 0.562500
vt 0.812500 0.500000
vt 0.843750 0.562500
vt 0.843750 0.500000
vt 0.875000 0.562500
vt 0.875000 0.500000
vt 0.906250 0.562500
vt 0.906250 0.500000
vt 0.937500 0.562500
vt 0.937500 0.500000
vt 0.968750 0.562500
vt 0.968750 0.500000
vt 1.000000 0.562500
vt 1.000000 0.500000
vt 0.031250 0.562500
vt 0.000000 0.625000
vt 0.031250 0.500000
vt 0.000000 0.562500
vt 0.062500 0.562500
vt 0.062500 0.500000
vt 0.093750 0.562500
vt 0.093750 0.500000
vt 0.125000 0.562500
vt 0.125000 0.500000
vt 0.156250 0.562500
vt 0.156250 0.500000
vt 0.187500 0.562500
vt 0.187500 0.500000
vt 0.218750 0.562500
vt 0.218750 0.500000
vt 0.250000 0.562500
vt 0.250000 0.500000
vt 0.281250 0.562500
vt 0.281250 0.500000
vt 0.312500 0.562500
vt 0.312500 0.500000
vt 0.343750 0.562500
vt 0.343750 0.500000
vt 0.375000 0.562500
vt 0.375000 0.500000
vt 0.406250 0.562500
vt 0.406250 0.500000
vt 0.437500 0.562500
vt 0.437500 0.500000
vt 0.468750 0.562500
vt 0.468750 0.500000
vt 0.500000 0.562500
vt 0.500000 0.500000
vt 0.531250 0.562500
vt 0.531250 0.500000
vt 0.562500 0.562500
vt 0.562500 0.500000
vt 0.593750 0.562500
vt 0.593750 0.500000
vt 0.625000 0.500000
vt 0.593750 0.437500
vt 0.625000 0.437500
vt 0.656250 0.437500
vt 0.687500 0.437500
vt 0.625000 0.375000
vt 0.656250 0.375000
vt 0.687500 0.375000
vt 0.718750 0.437500
vt 0.718750 0.375000
vt 0.750000 0.437500
vt 0.750000 0.375000
vt 0.781250 0.437500
vt 0.781250 0.375000
vt 0.812500 0.437500
vt 0.812500 0.375000
vt 0.843750 0.437500
vt 0.843750 0.375000
vt 0.875000 0.437500
vt 0.875000 0.375000
vt 0.906250 0.437500
vt 0.906250 0.375000
vt 0.937500 0.437500
vt 0.937500 0.375000
vt 0.968750 0.437500
vt 0.968750 0.375000
vt 1.000000 0.437500
vt 1.000000 0.375000
vt 0.031250 0.437500
vt 0.000000 0.500000
vt 0.031250 0.375000
vt 0.000000 0.437500
vt 0.062500 0.437500
vt 0.062500 0.375000
vt 0.093750 0.437500
vt 0.093750 0.375000
vt 0.125000 0.437500
vt 0.125000 0.375000
vt 0.156250 0.437500
vt 0.156250 0.375000
vt 0.187500 0.437500
vt 0.187500 0.375000
vt 0.218750 0.437500
vt 0.218750 0.375000
vt 0.250000 0.437500
vt 0.250000 0.375000
vt 0.281250 0.437500
vt 0.281250 0.375000
vt 0.312500 0.437500
vt 0.312500 0.375000
vt 0.343750 0.437500
vt 0.343750 0.375000
vt 0.375000 0.437500
vt 0.375000 0.375000
vt 0.406250 0.437500
vt 0.406250 0.375000
vt 0.437500 0.437500
vt 0.437500 0.375000
vt 0.468750 0.437500
vt 0.468750 0.375000
vt 0.500000 0.437500
vt 0.500000 0.375000
vt 0.531250 0.437500
vt 0.531250 0.375000
vt 0.562500 0.437500
vt 0.562500 0.375000
vt 0.593750 0.375000
vt 0.562500 0.312500
vt 0.593750 0.312500
vt 0.625000 0.312500
vt 0.656250 0.312500
vt 0.593750 0.250000
vt 0.625000 0.250000
vt 0.656250 0.250000
vt 0.687500 0.312500
vt 0.687500 0.250000
vt 0.718750 0.312500
vt 0.718750 0.250000
vt 0.750000 0.312500
vt 0.750000 0.250000
vt 0.781250 0.312500
vt 0.781250 0.250000
vt 0.812500 0.312500
vt 0.812500 0.250000
vt 0.843750 0.312500
vt 0.843750 0.250000
vt 0.875000 0.312500
vt 0.875000 0.250000
vt 0.906250 0.312500
vt 0.906250 0.250000
vt 0.937500 0.312500
vt 0.937500 0.250000
vt 0.968750 0.312500
vt 0.968750 0.250000
vt 1.000000 0.312500
vt 1.000000 0.250000
vt 0.031250 0.312500
vt 0.000000 0.375000
vt 0.031250 0.250000
vt 0.000000 0.312500
vt 0.062500 0.312500
vt 0.062500 0.250000
vt 0.093750 0.312500
vt 0.093750 0.250000
vt 0.125000 0.312500
vt 0.125000 0.250000
vt 0.156250 0.312500
vt 0.156250 0.250000
vt 0.187500 0.312500
vt 0.187500 0.250000
vt 0.218750 0.312500
vt 0.218750 0.250000
vt 0.250000 0.312500
vt 0.250000 0.250000
vt 0.281250 0.312500
vt 0.281250 0.250000
vt 0.312500 0.312500
vt 0.312500 0.250000
vt 0.343750 0.312500
vt 0.343750 0.250000
vt 0.375000 0.312500
vt 0.375000 0.250000
vt 0.406250 0.312500
vt 0.406250 0.250000
vt 0.437500 0.312500
vt 0.437500 0.250000
vt 0.468750 0.312500
vt 0.468750 0.250000
vt 0.500000 0.312500
vt 0.500000 0.250000
vt 0.531250 0.312500
vt 0.531250 0.250000
vt 0.562500 0.250000
vt 0.531250 0.187500
vt 0.562500 0.187500
vt 0.593750 0.187500
vt 0.625000 0.187500
vt 0.562500 0.125000
vt 0.593750 0.125000
vt 0.625000 0.125000
vt 0.656250 0.187500
vt 0.656250 0.125000
vt 0.687500 0.187500
vt 0.687500 0.125000
vt 0.718750 0.187500
vt 0.718750 0.125000
vt 0.750000 0.187500
vt 0.750000 0.125000
vt 0.781250 0.187500
vt 0.781250 0.125000
vt 0.812500 0.187500
vt 0.812500 0.125000
vt 0.843750 0.187500
vt 0.843750 0.125000
vt 0.875000 0.187500
vt 0.875000 0.125000
vt 0.906250 0.187500
vt 0.906250 0.125000
vt 0.937500 0.187500
vt 0.937500 0.125000
vt 0.968750 0.187500
vt 0.968750 0.125000
vt 1.000000 0.187500
vt 1.000000 0.125000
vt 0.031250 0.187500
vt 0.000000 0.250000
vt 0.031250 0.125000
vt 0.000000 0.187500
vt 0.062500 0.187500
vt 0.062500 0.125000
vt 0.093750 0.187500
vt 0.093750 0.125000
vt 0.125000 0.187500
vt 0.125000 0.125000
vt 0.156250 0.187500
vt 0.156250 0.125000
vt 0.187500 0.187500
vt 0.187500 0.125000
vt 0.218750 0.187500
vt 0.218750 0.125000
vt 0.250000 0.187500
vt 0.250000 0.125000
vt 0.281250 0.187500
vt 0.281250 0.125000
vt 0.312500 0.187500
vt 0.312500 0.125000
vt 0.343750 0.187500
vt 0.343750 0.125000
vt 0.375000 0.187500
vt 0.375000 0.125000
vt 0.406250 0.187500
vt 0.406250 0.125000
vt 0.437500 0.187500
vt 0.437500 0.125000
vt 0.468750 0.187500
vt 0.468750 0.125000
vt 0.500000 0.187500
vt 0.500000 0.125000
vt 0.531250 0.125000
vt 0.500000 0.062500
vt 0.531250 0.062500
vt 0.562500 0.062500
vt 0.593750 0.062500
vt 0.578125 0.000000
vt 0.546875 0.000000
vt 0.109375 0.000000
vt 0.093750 0.062500
vt 0.125000 0.062500
vt 0.140625 0.000000
vt 0.156250 0.062500
vt 0.765625 0.000000
vt 0.750000 0.062500
vt 0.781250 0.062500
vt 0.734375 0.000000
vt 0.718750 0.062500
vt 0.703125 0.000000
vt 0.687500 0.062500
vt 0.671875 0.000000
vt 0.656250 0.062500
vt 0.640625 0.000000
vt 0.625000 0.062500
vt 0.609375 0.000000
vt 0.515625 0.000000
vt 0.484375 0.000000
vt 0.468750 0.062500
vt 0.453125 0.000000
vt 0.437500 0.062500
vt 0.421875 0.000000
vt 0.406250 0.062500
vt 0.390625 0.000000
vt 0.375000 0.062500
vt 0.359375 0.000000
vt 0.343750 0.062500
vt 0.328125 0.000000
vt 0.312500 0.062500
vt 0.296875 0.000000
vt 0.281250 0.062500
vt 0.265625 0.000000
vt 0.250000 0.062500
vt 0.234375 0.000000
vt 0.218750 0.062500
vt 0.203125 0.000000
vt 0.187500 0.062500
vt 0.171875 0.000000
vt 0.078125 0.000000
vt 0.062500 0.062500
vt 0.046875 0.000000
vt 0.031250 0.062500
vt 0.015625 0.000000
vt 0.000000 0.062500
vt 0.984375 0.000000
vt 0.968750 0.062500
vt 1.000000 0.062500
vt 0.953125 0.000000
vt 0.937500 0.062500
vt 0.921875 0.000000
vt 0.906250 0.062500
vt 0.890625 0.000000
vt 0.875000 0.062500
vt 0.859375 0.000000
vt 0.843750 0.062500
vt 0.828125 0.000000
vt 0.812500 0.062500
vt 0.796875 0.000000
vt 0.000000 0.125000
vt 0.687500 0.937500
vt 0.718750 0.937500
vt 0.750000 0.937500
vt 0.703125 1.000000
vt 0.734375 1.000000
vt 0.781250 0.937500
vt 0.765625 1.000000
vt 0.812500 0.937500
vt 0.796875 1.000000
vt 0.843750 0.937500
vt 0.828125 1.000000
vt 0.875000 0.937500
vt 0.859375 1.000000
vt 0.906250 0.937500
vt 0.890625 1.000000
vt 0.937500 0.937500
vt 0.921875 1.000000
vt 0.968750 0.937500
vt 0.953125 1.000000
vt 1.000000 0.937500
vt 0.984375 1.000000
vt 0.000000 0.937500
vt 0.031250 0.937500
vt 0.015625 1.000000
vt 0.062500 0.937500
vt 0.046875 1.000000
vt 0.093750 0.937500
vt 0.078125 1.000000
vt 0.125000 0.937500
vt 0.109375 1.000000
vt 0.156250 0.937500
vt 0.140625 1.000000
vt 0.187500 0.937500
vt 0.171875 1.000000
vt 0.218750 0.937500
vt 0.203125 1.000000
vt 0.250000 0.937500
vt 0.234375 1.000000
vt 0.281250 0.937500
vt 0.265625 1.000000
vt 0.312500 0.937500
vt 0.296875 1.000000
vt 0.343750 0.937500
vt 0.328125 1.000000
vt 0.375000 0.937500
vt 0.359375 1.000000
vt 0.406250 0.937500
vt 0.390625 1.000000
vt 0.437500 0.937500
vt 0.421875 1.000000
vt 0.468750 0.937500
vt 0.453125 1.000000
vt 0.500000 0.937500
vt 0.484375 1.000000
vt 0.531250 0.937500
vt 0.515625 1.000000
vt 0.562500 0.937500
vt 0.546875 1.000000
vt 0.593750 0.937500
vt 0.578125 1.000000
vt 0.625000 0.937500
vt 0.609375 1.000000
vt 0.656250 0.937500
vt 0.640625 1.000000
vt 0.671875 1.000000
s 0
usemtl Feet
f 2/1/1 3/2/1 1/3/1
f 96/4/2 1/3/2 4/5/2
f 5/6/3 3/2/3 6/7/3
f 7/8/4 1/3/4 5/6/4
f 8/9/5 6/7/5 9/10/5
f 10/11/6 5/6/6 8/9/6
f 11/12/7 9/10/7 12/13/7
f 13/14/8 8/9/8 11/12/8
f 14/15/9 12/13/9 15/16/9
f 16/17/10 11/12/10 14/15/10
f 17/18/11 15/16/11 18/19/11
f 19/20/12 14/15/12 17/18/12
f 20/21/13 18/19/13 21/22/13
f 22/23/14 17/18/14 20/21/14
f 23/24/15 21/22/15 24/25/15
f 25/26/16 20/21/16 23/24/16
f 26/27/17 24/25/17 27/28/17
f 28/29/18 23/24/18 26/27/18
f 29/30/19 27/31/19 30/32/19
f 31/33/20 26/34/20 29/30/20
f 32/35/21 30/32/21 33/36/21
f 34/37/22 29/30/22 32/35/22
f 35/38/23 33/36/23 36/39/23
f 37/40/24 32/35/24 35/38/24
f 38/41/25 36/39/25 39/42/25
f 40/43/26 35/38/26 38/41/26
f 41/44/27 39/42/27 42/45/27
f 43/46/28 38/41/28 41/44/28
f 44/47/29 42/45/29 45/48/29
f 46/49/30 41/44/30 44/47/30
f 47/50/31 45/48/31 48/51/31
f 49/52/32 44/47/32 47/50/32
f 50/53/33 48/51/33 51/54/33
f 52/55/34 47/50/34 50/53/34
f 50/53/35 54/56/35 53/57/35
f 52/55/36 53/57/36 55/58/36
f 53/57/37 57/59/37 56/60/37
f 55/58/38 56/60/38 58/61/38
f 56/60/39 60/62/39 59/63/39
f 58/61/40 59/63/40 61/64/40
f 59/63/41 63/65/41 62/66/41
f 61/64/42 62/66/42 64/67/42
f 62/66/43 66/68/43 65/69/43
f 64/67/44 65/69/44 67/70/44
f 65/69/45 69/71/45 68/72/45
f 67/70/46 68/72/46 70/73/46
f 68/72/47 72/74/47 71/75/47
f 70/73/48 71/75/48 73/76/48
f 71/75/49 75/77/49 74/78/49
f 73/76/50 74/78/50 76/79/50
f 74/78/51 78/80/51 77/81/51
f 76/79/52 77/81/52 79/82/52
f 77/81/53 81/83/53 80/84/53
f 79/82/54 80/84/54 82/85/54
f 80/84/55 84/86/55 83/87/55
f 82/85/56 83/87/56 85/88/56
f 83/87/57 87/89/57 86/90/57
f 85/88/58 86/90/58 88/91/58
f 86/90/59 90/92/59 89/93/59
f 88/91/60 89/93/60 91/94/60
f 89/93/61 93/95/61 92/96/61
f 91/94/62 92/96/62 94/97/62
f 92/96/63 450/98/63 2/1/63
f 94/97/64 2/1/64 96/4/64
f 157/99/65 94/97/65 95/100/65
f 95/100/66 96/4/66 97/101/66
f 97/101/67 4/5/67 99/102/67
f 160/103/68 97/101/68 98/104/68
f 98/104/69 99/102/69 100/105/69
f 101/106/70 4/5/70 7/8/70
f 102/107/71 99/102/71 101/106/71
f 103/108/72 7/8/72 10/11/72
f 104/109/73 101/106/73 103/108/73
f 105/110/74 10/11/74 13/14/74
f 106/111/75 103/108/75 105/110/75
f 107/112/76 13/14/76 16/17/76
f 108/113/77 105/110/77 107/112/77
f 109/114/78 16/17/78 19/20/78
f 110/115/79 107/112/79 109/114/79
f 111/116/80 19/20/80 22/23/80
f 112/117/81 109/114/81 111/116/81
f 113/118/82 22/23/82 25/26/82
f 114/119/83 111/116/83 113/118/83
f 115/120/84 25/26/84 28/29/84
f 116/121/85 113/118/85 115/120/85
f 117/122/86 28/123/86 31/33/86
f 118/124/87 115/125/87 117/122/87
f 119/126/88 31/33/88 34/37/88
f 120/127/89 117/122/89 119/126/89
f 121/128/90 34/37/90 37/40/90
f 122/129/91 119/126/91 121/128/91
f 123/130/92 37/40/92 40/43/92
f 124/131/93 121/128/93 123/130/93
f 125/132/94 40/43/94 43/46/94
f 126/133/95 123/130/95 125/132/95
f 127/134/96 43/46/96 46/49/96
f 128/135/97 125/132/97 127/134/97
f 129/136/98 46/49/98 49/52/98
f 130/137/99 127/134/99 129/136/99
f 131/138/100 49/52/100 52/55/100
f 132/139/101 129/136/101 131/138/101
f 131/138/102 55/58/102 133/140/102
f 132/139/103 133/140/103 134/141/103
f 133/140/104 58/61/104 135/142/104
f 134/141/105 135/142/105 136/143/105
f 135/142/106 61/64/106 137/144/106
f 136/143/107 137/144/107 138/145/107
f 137/144/108 64/67/108 139/146/108
f 138/145/109 139/146/109 140/147/109
f 139/146/110 67/70/110 141/148/110
f 140/147/111 141/148/111 142/149/111
f 141/148/112 70/73/112 143/150/112
f 142/149/113 143/150/113 144/151/113
f 143/150/114 73/76/114 145/152/114
f 144/151/115 145/152/115 146/153/115
f 145/152/116 76/79/116 147/154/116
f 146/153/117 147/154/117 148/155/117
f 147/154/118 79/82/118 149/156/118
f 148/155/119 149/156/119 150/157/119
f 149/156/120 82/85/120 151/158/120
f 150/157/121 151/158/121 152/159/121
f 151/158/122 85/88/122 153/160/122
f 152/159/123 153/160/123 154/161/123
f 153/160/124 88/91/124 155/162/124
f 154/161/125 155/162/125 156/163/125
f 155/162/126 91/94/126 157/99/126
f 156/163/127 157/99/127 158/164/127
f 158/164/128 95/100/128 160/103/128
f 221/165/129 158/164/129 159/166/129
f 159/166/130 160/103/130 161/167/130
f 161/167/131 98/104/131 163/168/131
f 224/169/132 161/167/132 162/170/132
f 162/170/133 163/168/133 164/171/133
f 163/168/134 100/105/134 165/172/134
f 164/171/135 165/172/135 166/173/135
f 168/174/136 165/172/136 167/175/136
f 167/175/137 100/105/137 102/107/137
f 169/176/138 102/107/138 104/109/138
f 170/177/139 167/175/139 169/176/139
f 171/178/140 104/109/140 106/111/140
f 172/179/141 169/176/141 171/178/141
f 173/180/142 106/111/142 108/113/142
f 174/181/143 171/178/143 173/180/143
f 175/182/144 108/113/144 110/115/144
f 176/183/145 173/180/145 175/182/145
f 177/184/146 110/115/146 112/117/146
f 178/185/147 175/182/147 177/184/147
f 179/186/148 112/117/148 114/119/148
f 180/187/149 177/184/149 179/186/149
f 181/188/150 114/119/150 116/121/150
f 182/189/151 179/186/151 181/188/151
f 183/190/152 116/191/152 118/124/152
f 184/192/153 181/193/153 183/190/153
f 185/194/154 118/124/154 120/127/154
f 186/195/155 183/190/155 185/194/155
f 187/196/156 120/127/156 122/129/156
f 188/197/157 185/194/157 187/196/157
f 189/198/158 122/129/158 124/131/158
f 190/199/159 187/196/159 189/198/159
f 191/200/160 124/131/160 126/133/160
f 192/201/161 189/198/161 191/200/161
f 193/202/162 126/133/162 128/135/162
f 194/203/163 191/200/163 193/202/163
f 195/204/164 128/135/164 130/137/164
f 196/205/165 193/202/165 195/204/165
f 197/206/166 130/137/166 132/139/166
f 198/207/167 195/204/167 197/206/167
f 197/206/168 134/141/168 199/208/168
f 198/207/169 199/208/169 200/209/169
f 199/208/170 136/143/170 201/210/170
f 200/209/171 201/210/171 202/211/171
f 201/210/172 138/145/172 203/212/172
f 202/211/173 203/212/173 204/213/173
f 203/212/174 140/147/174 205/214/174
f 204/213/175 205/214/175 206/215/175
f 205/214/176 142/149/176 207/216/176
f 206/215/177 207/216/177 208/217/177
f 207/216/178 144/151/178 209/218/178
f 208/217/179 209/218/179 210/219/179
f 209/218/180 146/153/180 211/220/180
f 210/219/181 211/220/181 212/221/181
f 211/220/182 148/155/182 213/222/182
f 212/221/183 213/222/183 214/223/183
f 213/222/184 150/157/184 215/224/184
f 214/223/185 215/224/185 216/225/185
f 215/224/186 152/159/186 217/226/186
f 216/225/187 217/226/187 218/227/187
f 217/226/188 154/161/188 219/228/188
f 218/227/189 219/228/189 220/229/189
f 219/228/190 156/163/190 221/165/190
f 220/229/191 221/165/191 222/230/191
f 222/230/192 159/166/192 224/169/192
f 285/231/193 222/230/193 223/232/193
f 223/232/194 224/169/194 225/233/194
f 225/233/195 162/170/195 227/234/195
f 288/235/196 225/233/196 226/236/196
f 226/236/197 227/234/197 228/237/197
f 227/234/198 164/171/198 229/238/198
f 228/237/199 229/238/199 230/239/199
f 229/238/200 166/173/200 231/240/200
f 230/239/201 231/240/201 232/241/201
f 233/242/202 166/173/202 168/174/202
f 234/243/203 231/240/203 233/242/203
f 235/244/204 168/174/204 170/177/204
f 236/245/205 233/242/205 235/244/205
f 237/246/206 170/177/206 172/179/206
f 238/247/207 235/244/207 237/246/207
f 239/248/208 172/179/208 174/181/208
f 240/249/209 237/246/209 239/248/209
f 241/250/210 174/181/210 176/183/210
f 242/251/211 239/248/211 241/250/211
f 243/252/212 176/183/212 178/185/212
f 244/253/213 241/250/213 243/252/213
f 245/254/214 178/185/214 180/187/214
f 246/255/215 243/252/215 245/254/215
f 247/256/216 180/187/216 182/189/216
f 248/257/217 245/254/217 247/256/217
f 249/258/218 182/259/218 184/192/218
f 250/260/219 247/261/219 249/258/219
f 251/262/220 184/192/220 186/195/220
f 252/263/221 249/258/221 251/262/221
f 253/264/222 186/195/222 188/197/222
f 254/265/223 251/262/223 253/264/223
f 255/266/224 188/197/224 190/199/224
f 256/267/225 253/264/225 255/266/225
f 257/268/226 190/199/226 192/201/226
f 258/269/227 255/266/227 257/268/227
f 259/270/228 192/201/228 194/203/228
f 260/271/229 257/268/229 259/270/229
f 261/272/230 194/203/230 196/205/230
f 262/273/231 259/270/231 261/272/231
f 263/274/232 196/205/232 198/207/232
f 264/275/233 261/272/233 263/274/233
f 263/274/234 200/209/234 265/276/234
f 264/275/235 265/276/235 266/277/235
f 265/276/236 202/211/236 267/278/236
f 266/277/237 267/278/237 268/279/237
f 267/278/238 204/213/238 269/280/238
f 268/279/239 269/280/239 270/281/239
f 269/280/240 206/215/240 271/282/240
f 270/281/241 271/282/241 272/283/241
f 271/282/242 208/217/242 273/284/242
f 272/283/243 273/284/243 274/285/243
f 273/284/244 210/219/244 275/286/244
f 274/285/245 275/286/245 276/287/245
f 275/286/246 212/221/246 277/288/246
f 276/287/247 277/288/247 278/289/247
f 277/288/248 214/223/248 279/290/248
f 278/289/249 279/290/249 280/291/249
f 279/290/250 216/225/250 281/292/250
f 280/291/251 281/292/251 282/293/251
f 281/292/252 218/227/252 283/294/252
f 282/293/253 283/294/253 284/295/253
f 283/294/254 220/229/254 285/231/254
f 284/295/255 285/231/255 286/296/255
f 286/296/256 223/232/256 288/235/256
f 349/297/257 286/296/257 287/298/257
f 287/298/258 288/235/258 289/299/258
f 289/299/259 226/236/259 291/300/259
f 352/301/260 289/299/260 290/302/260
f 290/302/261 291/300/261 292/303/261
f 291/300/262 228/237/262 293/304/262
f 292/303/263 293/304/263 294/305/263
f 293/304/264 230/239/264 295/306/264
f 294/305/265 295/306/265 296/307/265
f 295/306/266 232/241/266 297/308/266
f 296/307/267 297/308/267 298/309/267
f 299/310/268 232/241/268 234/243/268
f 300/311/269 297/308/269 299/310/269
f 301/312/270 234/243/270 236/245/270
f 302/313/271 299/310/271 301/312/271
f 303/314/272 236/245/272 238/247/272
f 304/315/273 301/312/273 303/314/273
f 305/316/274 238/247/274 240/249/274
f 306/317/275 303/314/275 305/316/275
f 307/318/276 240/249/276 242/251/276
f 308/319/277 305/316/277 307/318/277
f 309/320/278 242/251/278 244/253/278
f 310/321/279 307/318/279 309/320/279
f 311/322/280 244/253/280 246/255/280
f 312/323/281 309/320/281 311/322/281
f 313/324/282 246/255/282 248/257/282
f 314/325/283 311/322/283 313/324/283
f 315/326/284 248/327/284 250/260/284
f 316/328/285 313/329/285 315/326/285
f 317/330/286 250/260/286 252/263/286
f 318/331/287 315/326/287 317/330/287
f 319/332/288 252/263/288 254/265/288
f 320/333/289 317/330/289 319/332/289
f 321/334/290 254/265/290 256/267/290
f 322/335/291 319/332/291 321/334/291
f 323/336/292 256/267/292 258/269/292
f 324/337/293 321/334/293 323/336/293
f 325/338/294 258/269/294 260/271/294
f 326/339/295 323/336/295 325/338/295
f 327/340/296 260/271/296 262/273/296
f 328/341/297 325/338/297 327/340/297
f 329/342/298 262/273/298 264/275/298
f 330/343/299 327/340/299 329/342/299
f 329/342/300 266/277/300 331/344/300
f 330/343/301 331/344/301 332/345/301
f 331/344/302 268/279/302 333/346/302
f 332/345/303 333/346/303 334/347/303
f 333/346/304 270/281/304 335/348/304
f 334/347/305 335/348/305 336/349/305
f 335/348/306 272/283/306 337/350/306
f 336/349/307 337/350/307 338/351/307
f 337/350/308 274/285/308 339/352/308
f 338/351/309 339/352/309 340/353/309
f 339/352/310 276/287/310 341/354/310
f 340/353/311 341/354/311 342/355/311
f 341/354/312 278/289/312 343/356/312
f 342/355/313 343/356/313 344/357/313
f 343/356/314 280/291/314 345/358/314
f 344/357/315 345/358/315 346/359/315
f 345/358/316 282/293/316 347/360/316
f 346/359/317 347/360/317 348/361/317
f 347/360/318 284/295/318 349/297/318
f 348/361/319 349/297/319 350/362/319
f 350/362/320 287/298/320 352/301/320
f 413/363/321 350/362/321 351/364/321
f 351/364/322 352/301/322 353/365/322
f 353/365/323 290/302/323 355/366/323
f 416/367/324 353/365/324 354/368/324
f 354/368/325 355/366/325 356/369/325
f 355/366/326 292/303/326 357/370/326
f 356/369/327 357/370/327 358/371/327
f 357/370/328 294/305/328 359/372/328
f 358/371/329 359/372/329 360/373/329
f 359/372/330 296/307/330 361/374/330
f 360/373/331 361/374/331 362/375/331
f 361/374/332 298/309/332 363/376/332
f 362/375/333 363/376/333 364/377/333
f 365/378/334 298/309/334 300/311/334
f 366/379/335 363/376/335 365/378/335
f 367/380/336 300/311/336 302/313/336
f 368/381/337 365/378/337 367/380/337
f 369/382/338 302/313/338 304/315/338
f 370/383/339 367/380/339 369/382/339
f 371/384/340 304/315/340 306/317/340
f 372/385/341 369/382/341 371/384/341
f 373/386/342 306/317/342 308/319/342
f 374/387/343 371/384/343 373/386/343
f 375/388/344 308/319/344 310/321/344
f 376/389/345 373/386/345 375/388/345
f 377/390/346 310/321/346 312/323/346
f 378/391/347 375/388/347 377/390/347
f 379/392/348 312/323/348 314/325/348
f 380/393/349 377/390/349 379/392/349
f 381/394/350 314/395/350 316/328/350
f 382/396/351 379/397/351 381/394/351
f 383/398/352 316/328/352 318/331/352
f 384/399/353 381/394/353 383/398/353
f 385/400/354 318/331/354 320/333/354
f 386/401/355 383/398/355 385/400/355
f 387/402/356 320/333/356 322/335/356
f 388/403/357 385/400/357 387/402/357
f 389/404/358 322/335/358 324/337/358
f 390/405/359 387/402/359 389/404/359
f 391/406/360 324/337/360 326/339/360
f 392/407/361 389/404/361 391/406/361
f 393/408/362 326/339/362 328/341/362
f 394/409/363 391/406/363 393/408/363
f 395/410/364 328/341/364 330/343/364
f 396/411/365 393/408/365 395/410/365
f 395/410/366 332/345/366 397/412/366
f 396/411/367 397/412/367 398/413/367
f 397/412/368 334/347/368 399/414/368
f 398/413/369 399/414/369 400/415/369
f 399/414/370 336/349/370 401/416/370
f 400/415/371 401/416/371 402/417/371
f 401/416/372 338/351/372 403/418/372
f 402/417/373 403/418/373 404/419/373
f 403/418/374 340/353/374 405/420/374
f 404/419/375 405/420/375 406/421/375
f 405/420/376 342/355/376 407/422/376
f 406/421/377 407/422/377 408/423/377
f 407/422/378 344/357/378 409/424/378
f 408/423/379 409/424/379 410/425/379
f 409/424/380 346/359/380 411/426/380
f 410/425/381 411/426/381 412/427/381
f 411/426/382 348/361/382 413/363/382
f 412/427/383 413/363/383 414/428/383
f 414/428/384 351/364/384 416/367/384
f 426/429/385 414/428/385 415/430/385
f 415/430/386 416/367/386 417/431/386
f 417/431/387 354/368/387 418/432/387
f 419/433/388 417/431/388 418/432/388
f 419/434/389 415/430/389 417/431/389
f 419/435/390 438/436/390 420/437/390
f 419/438/391 420/437/391 437/439/391
f 419/440/392 421/441/392 448/442/392
f 419/443/393 422/444/393 421/441/393
f 419/445/394 423/446/394 422/444/394
f 419/447/395 424/448/395 423/446/395
f 419/449/396 425/450/396 424/448/396
f 419/451/397 418/432/397 425/450/397
f 419/452/398 426/429/398 415/430/398
f 419/453/399 427/454/399 426/429/399
f 419/455/400 428/456/400 427/454/400
f 419/457/401 429/458/401 428/456/401
f 419/459/402 430/460/402 429/458/402
f 419/461/403 431/462/403 430/460/403
f 419/463/404 432/464/404 431/462/404
f 419/465/405 433/466/405 432/464/405
f 419/467/406 434/468/406 433/466/406
f 419/469/407 435/470/407 434/468/407
f 419/471/408 436/472/408 435/470/408
f 419/473/409 437/439/409 436/472/409
f 419/474/410 439/475/410 438/436/410
f 419/476/411 440/477/411 439/475/411
f 419/478/412 441/479/412 440/477/412
f 419/480/413 442/481/413 441/482/413
f 419/483/414 443/484/414 442/481/414
f 419/485/415 444/486/415 443/484/415
f 419/487/416 445/488/416 444/486/416
f 419/489/417 446/490/417 445/488/417
f 419/491/418 447/492/418 446/490/418
f 419/493/419 448/442/419 447/492/419
f 421/441/420 366/379/420 448/442/420
f 448/442/421 368/381/421 447/492/421
f 447/492/422 370/383/422 446/490/422
f 446/490/423 372/385/423 445/488/423
f 445/488/424 374/387/424 444/486/424
f 443/484/425 374/387/425 376/389/425
f 442/481/426 376/389/426 378/391/426
f 441/482/427 378/391/427 380/393/427
f 440/477/428 380/494/428 382/396/428
f 439/475/429 382/396/429 384/399/429
f 438/436/430 384/399/430 386/401/430
f 420/437/431 386/401/431 388/403/431
f 437/439/432 388/403/432 390/405/432
f 436/472/433 390/405/433 392/407/433
f 435/470/434 392/407/434 394/409/434
f 434/468/435 394/409/435 396/411/435
f 434/468/436 398/413/436 433/466/436
f 433/466/437 400/415/437 432/464/437
f 432/464/438 402/417/438 431/462/438
f 431/462/439 404/419/439 430/460/439
f 430/460/440 406/421/440 429/458/440
f 429/458/441 408/423/441 428/456/441
f 428/456/442 410/425/442 427/454/442
f 427/454/443 412/427/443 426/429/443
f 425/450/444 354/368/444 356/369/444
f 424/448/445 356/369/445 358/371/445
f 423/446/446 358/371/446 360/373/446
f 422/444/447 360/373/447 362/375/447
f 421/441/448 362/375/448 364/377/448
f 90/92/449 449/495/449 93/95/449
f 93/95/450 451/496/450 450/98/450
f 450/98/451 453/497/451 3/2/451
f 451/496/452 449/495/452 452/498/452
f 453/497/453 451/496/453 452/499/453
f 6/7/454 453/497/454 454/500/454
f 454/500/455 453/497/455 452/501/455
f 9/10/456 454/500/456 455/502/456
f 455/502/457 454/500/457 452/503/457
f 12/13/458 455/502/458 456/504/458
f 456/504/459 455/502/459 452/505/459
f 15/16/460 456/504/460 457/506/460
f 457/506/461 456/504/461 452/507/461
f 18/19/462 457/506/462 458/508/462
f 458/508/463 457/506/463 452/509/463
f 21/22/464 458/508/464 459/510/464
f 459/510/465 458/508/465 452/511/465
f 24/25/466 459/510/466 460/512/466
f 460/512/467 459/510/467 452/513/467
f 27/28/468 460/512/468 461/514/468
f 461/514/469 460/512/469 452/515/469
f 30/32/470 461/516/470 462/517/470
f 462/517/471 461/516/471 452/518/471
f 33/36/472 462/517/472 463/519/472
f 463/519/473 462/517/473 452/520/473
f 36/39/474 463/519/474 464/521/474
f 464/521/475 463/519/475 452/522/475
f 36/39/476 465/523/476 39/42/476
f 465/523/477 464/521/477 452/524/477
f 39/42/478 466/525/478 42/45/478
f 466/525/479 465/523/479 452/526/479
f 42/45/480 467/527/480 45/48/480
f 467/527/481 466/525/481 452/528/481
f 45/48/482 468/529/482 48/51/482
f 468/529/483 467/527/483 452/530/483
f 48/51/484 469/531/484 51/54/484
f 469/531/485 468/529/485 452/532/485
f 54/56/486 469/531/486 470/533/486
f 470/533/487 469/531/487 452/534/487
f 57/59/488 470/533/488 471/535/488
f 471/535/489 470/533/489 452/536/489
f 60/62/490 471/535/490 472/537/490
f 472/537/491 471/535/491 452/538/491
f 63/65/492 472/537/492 473/539/492
f 473/539/493 472/537/493 452/540/493
f 66/68/494 473/539/494 474/541/494
f 474/541/495 473/539/495 452/542/495
f 66/68/496 475/543/496 69/71/496
f 475/543/497 474/541/497 452/544/497
f 69/71/498 476/545/498 72/74/498
f 476/545/499 475/543/499 452/546/499
f 72/74/500 477/547/500 75/77/500
f 477/547/501 476/545/501 452/548/501
f 75/77/502 478/549/502 78/80/502
f 478/549/503 477/547/503 452/550/503
f 78/80/504 479/551/504 81/83/504
f 479/551/505 478/549/505 452/552/505
f 480/553/506 479/551/506 452/554/506
f 81/83/507 480/553/507 84/86/507
f 84/86/508 481/555/508 87/89/508
f 481/555/509 480/553/509 452/556/509
f 87/89/510 482/557/510 90/92/510
f 482/557/511 481/555/511 452/558/511
f 449/495/512 482/557/512 452/559/512
f 2/1/1 450/98/1 3/2/1
f 96/4/2 2/1/2 1/3/2
f 5/6/513 1/3/513 3/2/513
f 7/8/4 4/5/4 1/3/4
f 8/9/5 5/6/5 6/7/5
f 10/11/6 7/8/6 5/6/6
f 11/12/7 8/9/7 9/10/7
f 13/14/8 10/11/8 8/9/8
f 14/15/9 11/12/9 12/13/9
f 16/17/10 13/14/10 11/12/10
f 17/18/11 14/15/11 15/16/11
f 19/20/12 16/17/12 14/15/12
f 20/21/13 17/18/13 18/19/13
f 22/23/14 19/20/14 17/18/14
f 23/24/15 20/21/15 21/22/15
f 25/26/16 22/23/16 20/21/16
f 26/27/17 23/24/17 24/25/17
f 28/29/18 25/26/18 23/24/18
f 29/30/19 26/34/19 27/31/19
f 31/33/20 28/123/20 26/34/20
f 32/35/21 29/30/21 30/32/21
f 34/37/22 31/33/22 29/30/22
f 35/38/23 32/35/23 33/36/23
f 37/40/24 34/37/24 32/35/24
f 38/41/25 35/38/25 36/39/25
f 40/43/26 37/40/26 35/38/26
f 41/44/27 38/41/27 39/42/27
f 43/46/514 40/43/514 38/41/514
f 44/47/29 41/44/29 42/45/29
f 46/49/30 43/46/30 41/44/30
f 47/50/31 44/47/31 45/48/31
f 49/52/32 46/49/32 44/47/32
f 50/53/515 47/50/515 48/51/515
f 52/55/34 49/52/34 47/50/34
f 50/53/35 51/54/35 54/56/35
f 52/55/36 50/53/36 53/57/36
f 53/57/37 54/56/37 57/59/37
f 55/58/38 53/57/38 56/60/38
f 56/60/39 57/59/39 60/62/39
f 58/61/516 56/60/516 59/63/516
f 59/63/41 60/62/41 63/65/41
f 61/64/42 59/63/42 62/66/42
f 62/66/43 63/65/43 66/68/43
f 64/67/44 62/66/44 65/69/44
f 65/69/45 66/68/45 69/71/45
f 67/70/46 65/69/46 68/72/46
f 68/72/47 69/71/47 72/74/47
f 70/73/48 68/72/48 71/75/48
f 71/75/49 72/74/49 75/77/49
f 73/76/50 71/75/50 74/78/50
f 74/78/51 75/77/51 78/80/51
f 76/79/52 74/78/52 77/81/52
f 77/81/53 78/80/53 81/83/53
f 79/82/54 77/81/54 80/84/54
f 80/84/55 81/83/55 84/86/55
f 82/85/56 80/84/56 83/87/56
f 83/87/57 84/86/57 87/89/57
f 85/88/58 83/87/58 86/90/58
f 86/90/59 87/89/59 90/92/59
f 88/91/60 86/90/60 89/93/60
f 89/93/61 90/92/61 93/95/61
f 91/94/62 89/93/62 92/96/62
f 92/96/63 93/95/63 450/98/63
f 94/97/64 92/96/64 2/1/64
f 157/99/65 91/94/65 94/97/65
f 95/100/66 94/97/66 96/4/66
f 97/101/67 96/4/67 4/5/67
f 160/103/68 95/100/68 97/101/68
f 98/104/69 97/101/69 99/102/69
f 101/106/70 99/102/70 4/5/70
f 102/107/71 100/105/71 99/102/71
f 103/108/72 101/106/72 7/8/72
f 104/109/73 102/107/73 101/106/73
f 105/110/74 103/108/74 10/11/74
f 106/111/75 104/109/75 103/108/75
f 107/112/76 105/110/76 13/14/76
f 108/113/77 106/111/77 105/110/77
f 109/114/78 107/112/78 16/17/78
f 110/115/79 108/113/79 107/112/79
f 111/116/80 109/114/80 19/20/80
f 112/117/81 110/115/81 109/114/81
f 113/118/82 111/116/82 22/23/82
f 114/119/83 112/117/83 111/116/83
f 115/120/84 113/118/84 25/26/84
f 116/121/85 114/119/85 113/118/85
f 117/122/86 115/125/86 28/123/86
f 118/124/87 116/191/87 115/125/87
f 119/126/88 117/122/88 31/33/88
f 120/127/89 118/124/89 117/122/89
f 121/128/90 119/126/90 34/37/90
f 122/129/91 120/127/91 119/126/91
f 123/130/517 121/128/517 37/40/517
f 124/131/93 122/129/93 121/128/93
f 125/132/94 123/130/94 40/43/94
f 126/133/95 124/131/95 123/130/95
f 127/134/96 125/132/96 43/46/96
f 128/135/97 126/133/97 125/132/97
f 129/136/98 127/134/98 46/49/98
f 130/137/99 128/135/99 127/134/99
f 131/138/100 129/136/100 49/52/100
f 132/139/101 130/137/101 129/136/101
f 131/138/102 52/55/102 55/58/102
f 132/139/103 131/138/103 133/140/103
f 133/140/518 55/58/518 58/61/518
f 134/141/105 133/140/105 135/142/105
f 135/142/106 58/61/106 61/64/106
f 136/143/107 135/142/107 137/144/107
f 137/144/108 61/64/108 64/67/108
f 138/145/109 137/144/109 139/146/109
f 139/146/110 64/67/110 67/70/110
f 140/147/111 139/146/111 141/148/111
f 141/148/112 67/70/112 70/73/112
f 142/149/113 141/148/113 143/150/113
f 143/150/114 70/73/114 73/76/114
f 144/151/115 143/150/115 145/152/115
f 145/152/116 73/76/116 76/79/116
f 146/153/117 145/152/117 147/154/117
f 147/154/118 76/79/118 79/82/118
f 148/155/119 147/154/119 149/156/119
f 149/156/120 79/82/120 82/85/120
f 150/157/121 149/156/121 151/158/121
f 151/158/122 82/85/122 85/88/122
f 152/159/123 151/158/123 153/160/123
f 153/160/124 85/88/124 88/91/124
f 154/161/125 153/160/125 155/162/125
f 155/162/126 88/91/126 91/94/126
f 156/163/127 155/162/127 157/99/127
f 158/164/128 157/99/128 95/100/128
f 221/165/129 156/163/129 158/164/129
f 159/166/130 158/164/130 160/103/130
f 161/167/131 160/103/131 98/104/131
f 224/169/132 159/166/132 161/167/132
f 162/170/133 161/167/133 163/168/133
f 163/168/134 98/104/134 100/105/134
f 164/171/135 163/168/135 165/172/135
f 168/174/136 166/173/136 165/172/136
f 167/175/137 165/172/137 100/105/137
f 169/176/138 167/175/138 102/107/138
f 170/177/139 168/174/139 167/175/139
f 171/178/140 169/176/140 104/109/140
f 172/179/141 170/177/141 169/176/141
f 173/180/142 171/178/142 106/111/142
f 174/181/143 172/179/143 171/178/143
f 175/182/144 173/180/144 108/113/144
f 176/183/145 174/181/145 173/180/145
f 177/184/146 175/182/146 110/115/146
f 178/185/147 176/183/147 175/182/147
f 179/186/148 177/184/148 112/117/148
f 180/187/149 178/185/149 177/184/149
f 181/188/150 179/186/150 114/119/150
f 182/189/151 180/187/151 179/186/151
f 183/190/152 181/193/152 116/191/152
f 184/192/153 182/259/153 181/193/153
f 185/194/154 183/190/154 118/124/154
f 186/195/155 184/192/155 183/190/155
f 187/196/156 185/194/156 120/127/156
f 188/197/157 186/195/157 185/194/157
f 189/198/158 187/196/158 122/129/158
f 190/199/159 188/197/159 187/196/159
f 191/200/160 189/198/160 124/131/160
f 192/201/161 190/199/161 189/198/161
f 193/202/162 191/200/162 126/133/162
f 194/203/163 192/201/163 191/200/163
f 195/204/164 193/202/164 128/135/164
f 196/205/165 194/203/165 193/202/165
f 197/206/166 195/204/166 130/137/166
f 198/207/167 196/205/167 195/204/167
f 197/206/168 132/139/168 134/141/168
f 198/207/169 197/206/169 199/208/169
f 199/208/170 134/141/170 136/143/170
f 200/209/171 199/208/171 201/210/171
f 201/210/172 136/143/172 138/145/172
f 202/211/173 201/210/173 203/212/173
f 203/212/174 138/145/174 140/147/174
f 204/213/175 203/212/175 205/214/175
f 205/214/176 140/147/176 142/149/176
f 206/215/177 205/214/177 207/216/177
f 207/216/178 142/149/178 144/151/178
f 208/217/179 207/216/179 209/218/179
f 209/218/180 144/151/180 146/153/180
f 210/219/181 209/218/181 211/220/181
f 211/220/182 146/153/182 148/155/182
f 212/221/183 211/220/183 213/222/183
f 213/222/184 148/155/184 150/157/184
f 214/223/185 213/222/185 215/224/185
f 215/224/186 150/157/186 152/159/186
f 216/225/187 215/224/187 217/226/187
f 217/226/188 152/159/188 154/161/188
f 218/227/189 217/226/189 219/228/189
f 219/228/190 154/161/190 156/163/190
f 220/229/191 219/228/191 221/165/191
f 222/230/192 221/165/192 159/166/192
f 285/231/193 220/229/193 222/230/193
f 223/232/194 222/230/194 224/169/194
f 225/233/195 224/169/195 162/170/195
f 288/235/196 223/232/196 225/233/196
f 226/236/197 225/233/197 227/234/197
f 227/234/198 162/170/198 164/171/198
f 228/237/199 227/234/199 229/238/199
f 229/238/200 164/171/200 166/173/200
f 230/239/201 229/238/201 231/240/201
f 233/242/202 231/240/202 166/173/202
f 234/243/203 232/241/203 231/240/203
f 235/244/204 233/242/204 168/174/204
f 236/245/519 234/243/519 233/242/519
f 237/246/520 235/244/520 170/177/520
f 238/247/207 236/245/207 235/244/207
f 239/248/208 237/246/208 172/179/208
f 240/249/209 238/247/209 237/246/209
f 241/250/210 239/248/210 174/181/210
f 242/251/211 240/249/211 239/248/211
f 243/252/212 241/250/212 176/183/212
f 244/253/213 242/251/213 241/250/213
f 245/254/214 243/252/214 178/185/214
f 246/255/215 244/253/215 243/252/215
f 247/256/216 245/254/216 180/187/216
f 248/257/217 246/255/217 245/254/217
f 249/258/218 247/261/218 182/259/218
f 250/260/219 248/327/219 247/261/219
f 251/262/220 249/258/220 184/192/220
f 252/263/221 250/260/221 249/258/221
f 253/264/222 251/262/222 186/195/222
f 254/265/223 252/263/223 251/262/223
f 255/266/224 253/264/224 188/197/224
f 256/267/225 254/265/225 253/264/225
f 257/268/226 255/266/226 190/199/226
f 258/269/227 256/267/227 255/266/227
f 259/270/228 257/268/228 192/201/228
f 260/271/229 258/269/229 257/268/229
f 261/272/230 259/270/230 194/203/230
f 262/273/231 260/271/231 259/270/231
f 263/274/232 261/272/232 196/205/232
f 264/275/233 262/273/233 261/272/233
f 263/274/234 198/207/234 200/209/234
f 264/275/235 263/274/235 265/276/235
f 265/276/236 200/209/236 202/211/236
f 266/277/237 265/276/237 267/278/237
f 267/278/238 202/211/238 204/213/238
f 268/279/239 267/278/239 269/280/239
f 269/280/240 204/213/240 206/215/240
f 270/281/241 269/280/241 271/282/241
f 271/282/242 206/215/242 208/217/242
f 272/283/243 271/282/243 273/284/243
f 273/284/244 208/217/244 210/219/244
f 274/285/245 273/284/245 275/286/245
f 275/286/246 210/219/246 212/221/246
f 276/287/247 275/286/247 277/288/247
f 277/288/248 212/221/248 214/223/248
f 278/289/249 277/288/249 279/290/249
f 279/290/250 214/223/250 216/225/250
f 280/291/251 279/290/251 281/292/251
f 281/292/252 216/225/252 218/227/252
f 282/293/253 281/292/253 283/294/253
f 283/294/254 218/227/254 220/229/254
f 284/295/255 283/294/255 285/231/255
f 286/296/256 285/231/256 223/232/256
f 349/297/257 284/295/257 286/296/257
f 287/298/258 286/296/258 288/235/258
f 289/299/259 288/235/259 226/236/259
f 352/301/521 287/298/521 289/299/521
f 290/302/261 289/299/261 291/300/261
f 291/300/262 226/236/262 228/237/262
f 292/303/263 291/300/263 293/304/263
f 293/304/264 228/237/264 230/239/264
f 294/305/522 293/304/522 295/306/522
f 295/306/266 230/239/266 232/241/266
f 296/307/267 295/306/267 297/308/267
f 299/310/268 297/308/268 232/241/268
f 300/311/269 298/309/269 297/308/269
f 301/312/270 299/310/270 234/243/270
f 302/313/523 300/311/523 299/310/523
f 303/314/272 301/312/272 236/245/272
f 304/315/273 302/313/273 301/312/273
f 305/316/274 303/314/274 238/247/274
f 306/317/275 304/315/275 303/314/275
f 307/318/276 305/316/276 240/249/276
f 308/319/524 306/317/524 305/316/524
f 309/320/278 307/318/278 242/251/278
f 310/321/525 308/319/525 307/318/525
f 311/322/280 309/320/280 244/253/280
f 312/323/281 310/321/281 309/320/281
f 313/324/282 311/322/282 246/255/282
f 314/325/283 312/323/283 311/322/283
f 315/326/284 313/329/284 248/327/284
f 316/328/285 314/395/285 313/329/285
f 317/330/286 315/326/286 250/260/286
f 318/331/287 316/328/287 315/326/287
f 319/332/288 317/330/288 252/263/288
f 320/333/289 318/331/289 317/330/289
f 321/334/290 319/332/290 254/265/290
f 322/335/291 320/333/291 319/332/291
f 323/336/292 321/334/292 256/267/292
f 324/337/293 322/335/293 321/334/293
f 325/338/294 323/336/294 258/269/294
f 326/339/295 324/337/295 323/336/295
f 327/340/296 325/338/296 260/271/296
f 328/341/297 326/339/297 325/338/297
f 329/342/298 327/340/298 262/273/298
f 330/343/299 328/341/299 327/340/299
f 329/342/300 264/275/300 266/277/300
f 330/343/301 329/342/301 331/344/301
f 331/344/302 266/277/302 268/279/302
f 332/345/303 331/344/303 333/346/303
f 333/346/304 268/279/304 270/281/304
f 334/347/305 333/346/305 335/348/305
f 335/348/306 270/281/306 272/283/306
f 336/349/307 335/348/307 337/350/307
f 337/350/308 272/283/308 274/285/308
f 338/351/309 337/350/309 339/352/309
f 339/352/310 274/285/310 276/287/310
f 340/353/311 339/352/311 341/354/311
f 341/354/312 276/287/312 278/289/312
f 342/355/313 341/354/313 343/356/313
f 343/356/314 278/289/314 280/291/314
f 344/357/315 343/356/315 345/358/315
f 345/358/316 280/291/316 282/293/316
f 346/359/317 345/358/317 347/360/317
f 347/360/318 282/293/318 284/295/318
f 348/361/319 347/360/319 349/297/319
f 350/362/320 349/297/320 287/298/320
f 413/363/321 348/361/321 350/362/321
f 351/364/322 350/362/322 352/301/322
f 353/365/323 352/301/323 290/302/323
f 416/367/324 351/364/324 353/365/324
f 354/368/325 353/365/325 355/366/325
f 355/366/326 290/302/326 292/303/326
f 356/369/526 355/366/526 357/370/526
f 357/370/328 292/303/328 294/305/328
f 358/371/329 357/370/329 359/372/329
f 359/372/330 294/305/330 296/307/330
f 360/373/331 359/372/331 361/374/331
f 361/374/332 296/307/332 298/309/332
f 362/375/333 361/374/333 363/376/333
f 365/378/334 363/376/334 298/309/334
f 366/379/335 364/377/335 363/376/335
f 367/380/336 365/378/336 300/311/336
f 368/381/527 366/379/527 365/378/527
f 369/382/338 367/380/338 302/313/338
f 370/383/339 368/381/339 367/380/339
f 371/384/340 369/382/340 304/315/340
f 372/385/528 370/383/528 369/382/528
f 373/386/342 371/384/342 306/317/342
f 374/387/343 372/385/343 371/384/343
f 375/388/344 373/386/344 308/319/344
f 376/389/345 374/387/345 373/386/345
f 377/390/346 375/388/346 310/321/346
f 378/391/347 376/389/347 375/388/347
f 379/392/348 377/390/348 312/323/348
f 380/393/349 378/391/349 377/390/349
f 381/394/350 379/397/350 314/395/350
f 382/396/351 380/494/351 379/397/351
f 383/398/352 381/394/352 316/328/352
f 384/399/353 382/396/353 381/394/353
f 385/400/354 383/398/354 318/331/354
f 386/401/355 384/399/355 383/398/355
f 387/402/356 385/400/356 320/333/356
f 388/403/357 386/401/357 385/400/357
f 389/404/358 387/402/358 322/335/358
f 390/405/359 388/403/359 387/402/359
f 391/406/360 389/404/360 324/337/360
f 392/407/529 390/405/529 389/404/529
f 393/408/362 391/406/362 326/339/362
f 394/409/363 392/407/363 391/406/363
f 395/410/364 393/408/364 328/341/364
f 396/411/365 394/409/365 393/408/365
f 395/410/366 330/343/366 332/345/366
f 396/411/530 395/410/530 397/412/530
f 397/412/368 332/345/368 334/347/368
f 398/413/369 397/412/369 399/414/369
f 399/414/370 334/347/370 336/349/370
f 400/415/371 399/414/371 401/416/371
f 401/416/372 336/349/372 338/351/372
f 402/417/373 401/416/373 403/418/373
f 403/418/374 338/351/374 340/353/374
f 404/419/375 403/418/375 405/420/375
f 405/420/376 340/353/376 342/355/376
f 406/421/377 405/420/377 407/422/377
f 407/422/378 342/355/378 344/357/378
f 408/423/379 407/422/379 409/424/379
f 409/424/380 344/357/380 346/359/380
f 410/425/381 409/424/381 411/426/381
f 411/426/382 346/359/382 348/361/382
f 412/427/383 411/426/383 413/363/383
f 414/428/384 413/363/384 351/364/384
f 426/429/385 412/427/385 414/428/385
f 415/430/386 414/428/386 416/367/386
f 417/431/387 416/367/387 354/368/387
f 421/441/420 364/377/420 366/379/420
f 448/442/531 366/379/531 368/381/531
f 447/492/422 368/381/422 370/383/422
f 446/490/532 370/383/532 372/385/532
f 445/488/424 372/385/424 374/387/424
f 443/484/425 444/486/425 374/387/425
f 442/481/426 443/484/426 376/389/426
f 441/482/427 442/481/427 378/391/427
f 440/477/428 441/479/428 380/494/428
f 439/475/429 440/477/429 382/396/429
f 438/436/430 439/475/430 384/399/430
f 420/437/533 438/436/533 386/401/533
f 437/439/432 420/437/432 388/403/432
f 436/472/534 437/439/534 390/405/534
f 435/470/535 436/472/535 392/407/535
f 434/468/435 435/470/435 394/409/435
f 434/468/436 396/411/436 398/413/436
f 433/466/536 398/413/536 400/415/536
f 432/464/537 400/415/537 402/417/537
f 431/462/538 402/417/538 404/419/538
f 430/460/440 404/419/440 406/421/440
f 429/458/441 406/421/441 408/423/441
f 428/456/442 408/423/442 410/425/442
f 427/454/443 410/425/443 412/427/443
f 425/450/539 418/432/539 354/368/539
f 424/448/540 425/450/540 356/369/540
f 423/446/446 424/448/446 358/371/446
f 422/444/541 423/446/541 360/373/541
f 421/441/448 422/444/448 362/375/448
f 90/92/449 482/557/449 449/495/449
f 93/95/450 449/495/450 451/496/450
f 450/98/451 451/496/451 453/497/451
f 6/7/454 3/2/454 453/497/454
f 9/10/456 6/7/456 454/500/456
f 12/13/458 9/10/458 455/502/458
f 15/16/542 12/13/542 456/504/542
f 18/19/543 15/16/543 457/506/543
f 21/22/464 18/19/464 458/508/464
f 24/25/466 21/22/466 459/510/466
f 27/28/468 24/25/468 460/512/468
f 30/32/470 27/31/470 461/516/470
f 33/36/472 30/32/472 462/517/472
f 36/39/474 33/36/474 463/519/474
f 36/39/476 464/521/476 465/523/476
f 39/42/544 465/523/544 466/525/544
f 42/45/480 466/525/480 467/527/480
f 45/48/482 467/527/482 468/529/482
f 48/51/484 468/529/484 469/531/484
f 54/56/486 51/54/486 469/531/486
f 57/59/488 54/56/488 470/533/488
f 60/62/490 57/59/490 471/535/490
f 63/65/545 60/62/545 472/537/545
f 66/68/494 63/65/494 473/539/494
f 66/68/496 474/541/496 475/543/496
f 69/71/498 475/543/498 476/545/498
f 72/74/500 476/545/500 477/547/500
f 75/77/502 477/547/502 478/549/502
f 78/80/504 478/549/504 479/551/504
f 81/83/507 479/551/507 480/553/507
f 84/86/508 480/553/508 481/555/508
f 87/89/546 481/555/546 482/557/546
