# ('FARMS composite mesh',)
mtllib link_body_39_composite.mtl

o link_body_39
usemtl link_body_39_composite
v -2.49001300 0.00000100 1.03142900
v -2.23808300 -0.00000100 1.50155200
v -2.64339400 0.00000100 0.52581800
v -2.40029100 -0.66041500 1.02348800
v -2.40029100 -0.66041500 1.02348800
v -2.39939900 0.65975600 1.02633900
v -2.39939900 0.65975600 1.02633900
v -2.16555800 -0.60305000 1.49156000
v -2.16555800 -0.60305000 1.49156000
v -2.16555800 -0.60305000 1.49156000
v -2.16555800 0.60305100 1.49156100
v -2.16555800 0.60305100 1.49156100
v -0.62049100 0.72837200 1.24046700
v -1.86745400 0.31899600 1.91670200
v -1.86745400 0.31899600 1.91670200
v -1.81046300 0.56994800 1.90436400
v -1.81046300 0.56994800 1.90436400
v -1.81046300 0.56994800 1.90436400
v -1.39461500 0.51909100 2.24463500
v -1.39461500 0.51909100 2.24463500
v -1.47399900 0.26488500 2.24129100
v -0.96669800 0.26919700 2.50336800
v -1.47393800 -0.26820900 2.24086000
v -1.86471500 -0.31062700 1.92108300
v -1.86471500 -0.31062700 1.92108300
v -0.99426300 -0.28907300 2.48885300
v -1.39461500 -0.51909300 2.24463500
v -1.39461500 -0.51909300 2.24463500
v -0.52410100 -0.45141300 2.60042100
v -0.52410100 -0.45141300 2.60042100
v -0.87615200 -0.49236300 2.49808500
v -0.87615200 -0.49236300 2.49808500
v -0.63765700 -0.73082300 1.22539000
v 0.66841100 -0.63037100 1.64227500
v 1.05960100 -0.42363700 2.56296900
v 1.05960100 -0.42363700 2.56296900
v 5.23207100 -0.69033300 -0.88017700
v 5.16584800 -0.50508800 -0.28233700
v 5.62748700 -0.17648600 -0.02981900
v 5.62748700 -0.17648600 -0.02981900
v 5.62748700 -0.17648600 -0.02981900
v 2.09397900 -0.08745600 2.53153600
v 2.09397900 -0.08745600 2.53153600
v 2.09397900 -0.08745600 2.53153600
v 5.59516900 0.18470500 -0.00265600
v 5.59516900 0.18470500 -0.00265600
v 5.59516900 0.18470500 -0.00265600
v 2.09397900 0.08745600 2.53153600
v 2.09397900 0.08745600 2.53153600
v 2.09397900 0.08745600 2.53153600
v 1.66256700 0.00000000 2.68123400
v 1.66256700 0.00000000 2.68123400
v -0.48014800 0.46058500 2.60288700
v -0.48014800 0.46058500 2.60288700
v 1.05960100 0.42363700 2.56296900
v 1.05960100 0.42363700 2.56296900
v 0.66841100 0.63037100 1.64227500
v 5.16584800 0.50508900 -0.28233700
v 5.23207100 0.69033400 -0.88017700
v 6.21761300 0.49565900 -1.07787900
v 6.09523000 0.59387300 -1.70096000
v -2.44384800 0.48371400 -1.02746400
v -2.44384800 0.48371400 -1.02746400
v -2.58410600 0.54650600 -0.52915700
v -2.58410600 0.54650600 -0.52915700
v -2.62616700 0.59991100 -0.00455900
v -2.62616700 0.59991100 -0.00455900
v -2.69518300 -0.00000000 -0.00000000
v -2.56272900 0.63112100 0.51756300
v -2.56272900 0.63112100 0.51756300
v -2.64339400 0.00000100 -0.52581900
v -2.49001300 0.00000100 -1.03143000
v -2.58528900 -0.54657800 -0.52561500
v -2.58528900 -0.54657800 -0.52561500
v -2.44384800 -0.48371400 -1.02746500
v -2.44384800 -0.48371400 -1.02746500
v -2.20021100 -0.41351300 -1.49740000
v -2.20021100 -0.41351300 -1.49740000
v 6.09523000 -0.59387300 -1.70096000
v 6.21761300 -0.49565800 -1.07787900
v 6.21761300 -0.49565800 -1.07787900
v 6.84648100 -0.27747200 -2.00476100
v 6.84648100 -0.27747200 -2.00476100
v 6.84648100 -0.27747200 -2.00476100
v 5.30340600 -0.37138500 -2.39563900
v 6.51623500 -0.41091800 -2.13573500
v -1.46854400 -0.29211100 -2.24099900
v -1.46854400 -0.29211100 -2.24099900
v -1.87265800 -0.34551700 -1.90431100
v -1.87265800 -0.34551700 -1.90431100
v -1.87265800 -0.34551700 -1.90431100
v -1.90574700 -0.00000000 -1.90582100
v -1.90574700 -0.00000000 -1.90582100
v -1.49731500 -0.00000000 -2.24099900
v -2.24094400 -0.00000000 -1.49740000
v -2.20021100 0.41351300 -1.49740000
v -2.20021100 0.41351300 -1.49740000
v -1.87254300 0.34548700 -1.90445100
v -1.87254300 0.34548700 -1.90445100
v -1.87254300 0.34548700 -1.90445100
v -1.46854400 0.29211100 -2.24099900
v -1.46854400 0.29211100 -2.24099900
v -1.01813500 0.10344600 -2.49420300
v -1.01813500 0.10344600 -2.49420300
v 5.16876200 0.14563800 -2.73538800
v 5.16876200 0.14563800 -2.73538800
v 5.30340600 0.37138600 -2.39563900
v 6.51623500 0.41091900 -2.13573500
v 6.75415000 0.21084400 -2.31004000
v 6.75415000 0.21084400 -2.31004000
v 6.75415000 0.21084400 -2.31004000
v 6.84648100 0.27747300 -2.00476100
v 6.84648100 0.27747300 -2.00476100
v 6.84648100 0.27747300 -2.00476100
v 6.92393500 0.00000000 -2.10581300
v 6.92393500 0.00000000 -2.10581300
v 6.63313300 0.15438500 -1.33984200
v 6.63313300 0.15438500 -1.33984200
v 5.96962700 0.00000000 -0.29356600
v 5.96962700 0.00000000 -0.29356600
v 5.96962700 0.00000000 -0.29356600
v 6.63313300 -0.15438400 -1.33984200
v 6.71881100 0.00000000 -2.37239300
v 6.71881100 0.00000000 -2.37239300
v 6.75415000 -0.21084400 -2.31004000
v 6.75415000 -0.21084400 -2.31004000
v 6.75415000 -0.21084400 -2.31004000
v 5.52890000 0.00000000 -2.71771600
v 5.13132500 -0.14122200 -2.74091800
v 5.13132500 -0.14122200 -2.74091800
v 1.01377900 0.00000000 -2.65414500
v 1.01377900 0.00000000 -2.65414500
v 1.01377900 0.00000000 -2.65414500
v -0.96904000 -0.08438400 -2.51425900
v -0.96904000 -0.08438400 -2.51425900
v -0.96904000 -0.08438400 -2.51425900
v -2.62383300 -0.59868400 -0.01315500
v -2.62383300 -0.59868400 -0.01315500
v -2.57331100 -0.62591800 0.48849800
v -2.57331100 -0.62591800 0.48849800
v -0.87488500 0.49217300 2.49897300
v -0.87488500 0.49217300 2.49897300
v -1.81046300 -0.56994800 1.90436400
v -1.81046300 -0.56994800 1.90436400
vn -0.92575689 -0.00002701 0.37811928
vn -0.83242482 -0.00002362 0.55413799
vn -0.97986664 0.00105991 0.19965031
vn -0.91724503 -0.12683656 0.37758978
vn -0.04203959 -0.99899926 0.01526937
vn -0.91720370 0.12683529 0.37769060
vn -0.04080646 0.99898854 0.01888749
vn -0.73563543 -0.19571026 0.64848902
vn -0.05776842 -0.98807723 0.14271016
vn -0.84201958 -0.11397816 0.52726844
vn -0.82852739 0.12590684 0.54560960
vn -0.05708198 0.98822274 0.14197700
vn -0.01115147 0.99787788 0.06415129
vn -0.75585642 0.10510580 0.64624596
vn -0.62606725 0.09231445 0.77428538
vn -0.04690494 0.98733862 0.15153340
vn -0.73503946 0.19879676 0.64822592
vn -0.61111465 0.17784807 0.77130341
vn -0.03228694 0.98313528 0.18000717
vn -0.52207892 0.16146423 0.83747412
vn -0.55142066 0.07673758 0.83069044
vn -0.34721138 0.07089299 0.93510344
vn -0.55173068 -0.07746521 0.83041700
vn -0.65828101 -0.11937893 0.74324611
vn -0.76432198 -0.05046199 0.64285729
vn -0.36450294 -0.08057669 0.92770955
vn -0.52321514 -0.16391712 0.83628769
vn -0.03247757 -0.98311128 0.18010389
vn 0.03900503 -0.97237066 0.23016061
vn -0.13802755 -0.03554825 0.98979024
vn 0.00097835 -0.98051580 0.19643781
vn -0.32362078 -0.14556529 0.93492264
vn -0.01180783 -0.99797634 0.06248045
vn 0.05240932 -0.98547574 0.16152656
vn 0.11200354 -0.96285990 0.24567461
vn 0.04787990 -0.33121679 0.94233909
vn 0.12986144 -0.98450500 0.11783847
vn 0.30046884 -0.88335885 0.35971602
vn 0.59884331 -0.00664403 0.80083865
vn 0.32410197 -0.84735349 0.42065423
vn 0.67467918 -0.50871126 0.53480918
vn 0.29132487 -0.84744350 0.44381227
vn 0.18975088 -0.50511356 0.84193521
vn 0.47121150 -0.00023774 0.88202022
vn 0.66989823 0.51344729 0.53629119
vn 0.59678306 -0.00681946 0.80237365
vn 0.31832368 0.85188351 0.41589004
vn 0.18975088 0.50511356 0.84193521
vn 0.29078744 0.84789947 0.44329354
vn 0.47128365 0.00000000 0.88198170
vn 0.16932068 -0.00008561 0.98556101
vn 0.32782049 0.00000000 0.94474003
vn 0.02587215 0.97864813 0.20390797
vn -0.12230320 0.03828825 0.99175397
vn 0.05155191 0.33592348 0.94047744
vn 0.11448911 0.96284612 0.24458043
vn 0.05327679 0.98568828 0.15993813
vn 0.29805035 0.88592393 0.35539383
vn 0.12813494 0.98489489 0.11646245
vn 0.50467072 0.79270304 0.34194935
vn 0.18453007 0.97682525 -0.10844853
vn -0.02457581 0.98955458 -0.14204845
vn -0.92309469 0.09346028 -0.37304338
vn -0.02345011 0.99305783 -0.11526599
vn -0.97777381 0.10496596 -0.18149523
vn -0.02401154 0.99636805 -0.08169556
vn -0.99311292 0.11666679 0.01075105
vn -0.99999843 -0.00022543 0.00175802
vn -0.96955873 0.12666262 0.20955299
vn -0.03028781 0.99814022 -0.05290329
vn -0.98160143 0.00131076 -0.19093696
vn -0.92465431 0.00000049 -0.38080756
vn -0.97748836 -0.10710093 -0.18178530
vn -0.02347115 -0.99310651 -0.11484151
vn -0.02458583 -0.98961780 -0.14160562
vn -0.92306864 -0.09338571 -0.37312651
vn -0.83127998 -0.08217003 -0.54974693
vn -0.02554573 -0.98547749 -0.16787357
vn 0.18453069 -0.97682513 -0.10844852
vn 0.27956280 -0.94170580 0.18717594
vn 0.71207544 -0.50443010 0.48836343
vn 0.86559037 -0.36606179 -0.34169003
vn 0.90967210 -0.24295167 0.33685480
vn 0.43103704 -0.89216946 -0.13505822
vn 0.02738655 -0.89227998 -0.45065109
vn 0.26399674 -0.89563819 -0.35796363
vn -0.56067193 -0.05522247 -0.82619457
vn -0.02689893 -0.95926467 -0.28122541
vn -0.63336752 -0.06349287 -0.77124201
vn -0.02588529 -0.98231214 -0.18545297
vn -0.77062935 -0.07628871 -0.63270090
vn -0.77299695 0.00001583 -0.63440974
vn -0.63437804 -0.00005912 -0.77302296
vn -0.55909876 -0.00154869 -0.82909962
vn -0.83326103 0.00000050 -0.55287978
vn -0.83127908 0.08217027 -0.54974825
vn -0.02554582 0.98547672 -0.16787807
vn -0.02588586 0.98231066 -0.18546073
vn -0.63335446 0.06342661 -0.77125818
vn -0.77062796 0.07629253 -0.63270213
vn -0.56480553 0.05562961 -0.82334686
vn -0.02671171 0.95947600 -0.28052147
vn -0.02988013 0.77532520 -0.63085499
vn -0.32495309 0.03794016 -0.94496880
vn 0.04525310 0.08488248 -0.99536281
vn 0.02331541 0.82391653 -0.56623136
vn 0.02523105 0.89412796 -0.44710020
vn 0.26455614 0.89596801 -0.35672311
vn 0.26616260 0.25217235 -0.93035831
vn 0.32084080 0.80966064 -0.49143751
vn 0.84275289 0.19124822 -0.50318156
vn 0.86559038 0.36606084 -0.34169102
vn 0.49211207 0.86867196 -0.05687477
vn 0.93457064 0.14208900 0.32617240
vn 0.88261047 -0.00000038 -0.47010505
vn 0.94269960 -0.00000019 0.33364271
vn 0.89969458 0.01630859 0.43621518
vn 0.71886346 0.57175386 0.39538950
vn 0.61204393 -0.00470867 0.79080974
vn 0.67836966 0.50501617 0.53364153
vn 0.70474584 -0.46156062 0.53879041
vn 0.84986746 -0.29656352 0.43563216
vn 0.27870968 0.00000000 -0.96037540
vn 0.79253424 0.00000000 -0.60982742
vn 0.26564388 -0.25433494 -0.92991777
vn 0.31979654 -0.80939542 -0.49255377
vn 0.84275295 -0.19124844 -0.50318138
vn 0.21752684 -0.01093135 -0.97599312
vn 0.02044775 -0.82296166 -0.56772881
vn 0.03634955 -0.05060750 -0.99805691
vn -0.02031274 0.02192002 -0.99955335
vn -0.03626074 -0.54092928 -0.84028607
vn -0.03722611 0.55434211 -0.83145597
vn -0.26640294 0.03049669 -0.96337917
vn -0.03093567 -0.76766060 -0.64010951
vn -0.03626074 -0.54092928 -0.84028607
vn -0.02606619 -0.99638835 -0.08081343
vn -0.99293347 -0.11848310 0.00669960
vn -0.04566692 -0.99772629 -0.04956592
vn -0.97239774 -0.12172002 0.19906500
vn -0.00460793 0.98232108 0.18714717
vn -0.31839603 0.14955418 0.93608628
vn -0.04726658 -0.98720909 0.15226317
vn -0.67487813 -0.18778402 0.71363623
vt 0.97627900 0.37006100
vt 0.97316000 0.36959000
vt 0.97963300 0.37025900
vt 0.97661800 0.37384700
vt 0.45944500 0.75250800
vt 0.97602600 0.36580100
vt 0.76333900 0.70428400
vt 0.82391700 0.81609000
vt 0.45626800 0.75393700
vt 0.97348800 0.37307100
vt 0.97296400 0.36572100
vt 0.76475900 0.70111900
vt 0.77423600 0.70242400
vt 0.97026700 0.36684200
vt 0.81792500 0.81838000
vt 0.76690400 0.69827800
vt 0.97023900 0.36515800
vt 0.81628000 0.81884700
vt 0.76949500 0.69589500
vt 0.81678100 0.82157800
vt 0.81844000 0.82096200
vt 0.81860300 0.82432100
vt 0.82197700 0.82077400
vt 0.82210400 0.81817600
vt 0.97051100 0.37067300
vt 0.82229700 0.82394200
vt 0.82367000 0.82121200
vt 0.45106100 0.75884800
vt 0.44846900 0.76451900
vt 0.82354500 0.82700200
vt 0.44924400 0.76221900
vt 0.82368800 0.82465400
vt 0.45768200 0.76417400
vt 0.45456900 0.77271100
vt 0.44831800 0.77502700
vt 0.82391700 0.83752100
vt 0.47018900 0.80361000
vt 0.46619900 0.80297500
vt 0.82375300 0.86799800
vt 0.46434000 0.80588300
vt 0.12523300 0.97180600
vt 0.44820000 0.78180100
vt 0.82204900 0.84450400
vt 0.82204900 0.84450400
vt 0.81476500 0.70885700
vt 0.82134600 0.86791000
vt 0.81476500 0.70885700
vt 0.82088800 0.84456600
vt 0.79216600 0.69293300
vt 0.82088800 0.84456600
vt 0.82132400 0.84166800
vt 0.82132400 0.84166800
vt 0.77521400 0.69326100
vt 0.81751000 0.82761400
vt 0.81829500 0.83781900
vt 0.78494100 0.69311100
vt 0.78236900 0.69939000
vt 0.81147200 0.71093500
vt 0.81169200 0.71494600
vt 0.81835800 0.71593200
vt 0.81760100 0.72013000
vt 0.76419400 0.71785300
vt 0.98972100 0.36616500
vt 0.76299700 0.71460700
vt 0.98639100 0.36635000
vt 0.76242600 0.71115800
vt 0.98288900 0.36634500
vt 0.98312000 0.37018400
vt 0.97941300 0.36619900
vt 0.76256500 0.70769000
vt 0.98660600 0.36983700
vt 0.98995800 0.36923200
vt 0.98684200 0.37301500
vt 0.46974900 0.75162000
vt 0.47303100 0.75266000
vt 0.99014100 0.37206000
vt 0.99322500 0.37080500
vt 0.47607500 0.75436900
vt 0.47540200 0.80950600
vt 0.47121600 0.81014000
vt 0.12832800 0.97776600
vt 0.12776700 0.98382600
vt 0.12776700 0.98382600
vt 0.47716600 0.81447300
vt 0.48016300 0.80435500
vt 0.47814500 0.81235100
vt 0.81588600 0.87072300
vt 0.48080300 0.75936700
vt 0.81628000 0.87338800
vt 0.47868000 0.75662100
vt 0.99589100 0.36937000
vt 0.99575100 0.36735000
vt 0.81398400 0.87360800
vt 0.81394500 0.87091400
vt 0.99304600 0.36839200
vt 0.99286600 0.36576600
vt 0.76604300 0.72088100
vt 0.76839000 0.72347100
vt 0.81168900 0.87338800
vt 0.99559200 0.36515800
vt 0.81200400 0.87072300
vt 0.77115700 0.72557900
vt 0.77448400 0.72707500
vt 0.81322800 0.86774600
vt 0.81291300 0.82665000
vt 0.81317300 0.72707500
vt 0.81339200 0.72486600
vt 0.82079600 0.72284000
vt 0.81252700 0.81609000
vt 0.82279100 0.72386400
vt 0.12523400 0.98663500
vt 0.12423100 0.98474800
vt 0.82311000 0.72183900
vt 0.12423100 0.98474800
vt 0.12608100 0.98490400
vt 0.12608100 0.98490400
vt 0.12417800 0.98036100
vt 0.82180800 0.71744300
vt 0.82268800 0.87033900
vt 0.81762200 0.71062500
vt 0.12417800 0.97365400
vt 0.12614600 0.97984700
vt 0.81392100 0.81632900
vt 0.12671200 0.98669900
vt 0.81532900 0.81609000
vt 0.47920100 0.81391400
vt 0.12792100 0.98593400
vt 0.81388200 0.82425600
vt 0.48244900 0.80323100
vt 0.81481800 0.82689900
vt 0.81389400 0.85425400
vt 0.81389400 0.85425400
vt 0.81389400 0.85425400
vt 0.81447300 0.86742100
vt 0.48244900 0.76268700
vt 0.81447300 0.86742100
vt 0.46636800 0.75125600
vt 0.98346700 0.37364000
vt 0.46303200 0.75147900
vt 0.98015200 0.37387500
vt 0.77271300 0.69406400
vt 0.81715600 0.82500900
vt 0.45343300 0.75618500
vt 0.82384300 0.81844600
f 11/11/11 1/1/1 2/2/2
f 1/1/1 10/10/10 2/2/2
f 3/3/3 4/4/4 1/1/1
f 6/6/6 3/3/3 1/1/1
f 1/1/1 4/4/4 10/10/10
f 11/11/11 6/6/6 1/1/1
f 7/7/7 12/12/12 13/13/13
f 12/12/12 16/16/16 13/13/13
f 2/2/2 14/14/14 11/11/11
f 17/17/17 11/11/11 14/14/14
f 21/21/21 18/18/18 15/15/15
f 16/16/16 19/19/19 13/13/13
f 18/18/18 21/21/21 20/20/20
f 21/21/21 26/26/26 22/22/22
f 21/21/21 22/22/22 20/20/20
f 24/24/24 21/21/21 15/15/15
f 21/21/21 23/23/23 26/26/26
f 24/24/24 23/23/23 21/21/21
f 26/26/26 23/23/23 27/27/27
f 26/26/26 27/27/27 32/32/32
f 22/22/22 26/26/26 30/30/30
f 26/26/26 32/32/32 30/30/30
f 31/31/31 28/28/28 33/33/33
f 31/31/31 33/33/33 34/34/34
f 29/29/29 31/31/31 34/34/34
f 34/34/34 33/33/33 37/37/37
f 34/34/34 38/38/38 35/35/35
f 29/29/29 34/34/34 35/35/35
f 34/34/34 37/37/37 38/38/38
f 40/40/40 38/38/38 37/37/37
f 42/42/42 38/38/38 40/40/40
f 42/42/42 35/35/35 38/38/38
f 46/46/46 44/44/44 39/39/39
f 46/46/46 50/50/50 44/44/44
f 43/43/43 51/51/51 36/36/36
f 44/44/44 50/50/50 52/52/52
f 51/51/51 48/48/48 55/55/55
f 51/51/51 30/30/30 36/36/36
f 51/51/51 54/54/54 30/30/30
f 54/54/54 51/51/51 55/55/55
f 53/53/53 56/56/56 57/57/57
f 58/58/58 57/57/57 56/56/56
f 56/56/56 49/49/49 58/58/58
f 59/59/59 58/58/58 47/47/47
f 49/49/49 47/47/47 58/58/58
f 58/58/58 59/59/59 57/57/57
f 60/60/60 61/61/61 59/59/59
f 59/59/59 47/47/47 60/60/60
f 62/62/62 59/59/59 61/61/61
f 62/62/62 64/64/64 59/59/59
f 64/64/64 66/66/66 59/59/59
f 66/66/66 13/13/13 59/59/59
f 13/13/13 57/57/57 59/59/59
f 67/67/67 65/65/65 71/71/71
f 70/70/70 13/13/13 66/66/66
f 3/3/3 67/67/67 68/68/68
f 67/67/67 71/71/71 68/68/68
f 3/3/3 69/69/69 67/67/67
f 68/68/68 71/71/71 73/73/73
f 71/71/71 72/72/72 76/76/76
f 63/63/63 72/72/72 71/71/71
f 71/71/71 76/76/76 73/73/73
f 63/63/63 71/71/71 65/65/65
f 72/72/72 77/77/77 76/76/76
f 75/75/75 78/78/78 79/79/79
f 75/75/75 79/79/79 37/37/37
f 74/74/74 75/75/75 37/37/37
f 80/80/80 37/37/37 79/79/79
f 80/80/80 79/79/79 84/84/84
f 84/84/84 79/79/79 86/86/86
f 79/79/79 88/88/88 85/85/85
f 79/79/79 85/85/85 86/86/86
f 79/79/79 90/90/90 88/88/88
f 79/79/79 78/78/78 90/90/90
f 95/95/95 92/92/92 91/91/91
f 93/93/93 94/94/94 89/89/89
f 95/95/95 91/91/91 77/77/77
f 89/89/89 94/94/94 87/87/87
f 72/72/72 95/95/95 77/77/77
f 72/72/72 96/96/96 95/95/95
f 95/95/95 100/100/100 92/92/92
f 95/95/95 96/96/96 100/100/100
f 97/97/97 61/61/61 98/98/98
f 101/101/101 94/94/94 99/99/99
f 98/98/98 61/61/61 102/102/102
f 93/93/93 99/99/99 94/94/94
f 94/94/94 101/101/101 104/104/104
f 103/103/103 102/102/102 106/106/106
f 102/102/102 107/107/107 106/106/106
f 102/102/102 61/61/61 107/107/107
f 61/61/61 108/108/108 107/107/107
f 108/108/108 106/106/106 107/107/107
f 113/113/113 108/108/108 61/61/61
f 108/108/108 110/110/110 106/106/106
f 108/108/108 113/113/113 110/110/110
f 60/60/60 113/113/113 61/61/61
f 116/116/116 114/114/114 117/117/117
f 115/115/115 111/111/111 112/112/112
f 60/60/60 118/118/118 113/113/113
f 116/116/116 117/117/117 122/122/122
f 122/122/122 117/117/117 121/121/121
f 60/60/60 120/120/120 118/118/118
f 122/122/122 81/81/81 83/83/83
f 116/116/116 122/122/122 83/83/83
f 121/121/121 81/81/81 122/122/122
f 60/60/60 45/45/45 120/120/120
f 119/119/119 46/46/46 39/39/39
f 81/81/81 121/121/121 41/41/41
f 127/127/127 115/115/115 82/82/82
f 127/127/127 124/124/124 115/115/115
f 115/115/115 124/124/124 111/111/111
f 86/86/86 129/129/129 126/126/126
f 86/86/86 126/126/126 84/84/84
f 123/123/123 125/125/125 128/128/128
f 128/128/128 125/125/125 130/130/130
f 86/86/86 85/85/85 129/129/129
f 85/85/85 88/88/88 129/129/129
f 130/130/130 105/105/105 128/128/128
f 131/131/131 105/105/105 130/130/130
f 136/136/136 132/132/132 130/130/130
f 88/88/88 135/135/135 129/129/129
f 134/134/134 87/87/87 94/94/94
f 134/134/134 104/104/104 133/133/133
f 94/94/94 104/104/104 134/134/134
f 133/133/133 104/104/104 105/105/105
f 109/109/109 128/128/128 105/105/105
f 123/123/123 128/128/128 109/109/109
f 72/72/72 63/63/63 96/96/96
f 97/97/97 62/62/62 61/61/61
f 40/40/40 37/37/37 80/80/80
f 68/68/68 73/73/73 138/138/138
f 137/137/137 74/74/74 37/37/37
f 5/5/5 137/137/137 33/33/33
f 33/33/33 137/137/137 37/37/37
f 68/68/68 138/138/138 140/140/140
f 137/137/137 5/5/5 139/139/139
f 3/3/3 140/140/140 4/4/4
f 68/68/68 140/140/140 3/3/3
f 6/6/6 69/69/69 3/3/3
f 7/7/7 13/13/13 70/70/70
f 141/141/141 57/57/57 13/13/13
f 141/141/141 53/53/53 57/57/57
f 20/20/20 22/22/22 142/142/142
f 19/19/19 141/141/141 13/13/13
f 22/22/22 54/54/54 142/142/142
f 30/30/30 54/54/54 22/22/22
f 143/143/143 9/9/9 33/33/33
f 28/28/28 143/143/143 33/33/33
f 9/9/9 5/5/5 33/33/33
f 24/24/24 144/144/144 23/23/23
f 8/8/8 144/144/144 24/24/24
f 144/144/144 27/27/27 23/23/23
f 25/25/25 2/2/2 10/10/10
f 14/14/14 2/2/2 25/25/25

