# ('FARMS composite mesh',)
mtllib link_body_24_composite.mtl

o link_body_24
usemtl link_body_24_composite
v 2.35433200 -1.46136700 -5.04304200
v 2.35433200 -1.46136700 -5.04304200
v 2.35433200 -1.46136700 -5.04304200
v -1.47289300 -1.51788400 -4.99811400
v -2.15085600 -2.13543600 -4.51091300
v -2.15085600 -2.13543600 -4.51091300
v -2.15085600 -2.13543600 -4.51091300
v -0.78978700 -0.70661300 -5.33044600
v 1.54301400 -2.01703700 -4.47282800
v 1.54301400 -2.01703700 -4.47282800
v 1.79169800 -0.37939300 -5.04467100
v 2.85099400 0.00249800 -5.35445500
v 2.85099400 0.00249800 -5.35445500
v -0.96960800 0.38011800 -5.35137900
v 2.23524500 1.07514200 -5.08833300
v 2.23524500 1.07514200 -5.08833300
v -1.49503700 1.48755100 -4.99943400
v 1.01615100 0.89785800 -4.54236600
v 1.03248200 1.64338300 -4.85061700
v 1.48039600 2.04480400 -4.42015100
v 1.48039600 2.04480400 -4.42015100
v 1.48039600 2.04480400 -4.42015100
v -2.85898900 2.62986700 -3.80510900
v -2.85898900 2.62986700 -3.80510900
v -2.85898900 2.62986700 -3.80510900
v -2.16957400 2.11152100 -4.51269600
v -2.16957400 2.11152100 -4.51269600
v -2.16957400 2.11152100 -4.51269600
v 0.22845500 1.15138900 -3.87817900
v 0.22845500 1.15138900 -3.87817900
v 0.22845500 1.15138900 -3.87817900
v 0.22845500 1.15138900 -3.87817900
v 0.85095600 2.52462300 -3.72481700
v 0.85095600 2.52462300 -3.72481700
v 0.85095600 2.52462300 -3.72481700
v -3.34571000 3.01765400 -3.00220300
v -3.34571000 3.01765400 -3.00220300
v 0.30437500 2.74177500 -3.02868500
v 0.30437500 2.74177500 -3.02868500
v 0.30437500 2.74177500 -3.02868500
v 0.30437500 2.74177500 -3.02868500
v -0.28570900 1.73378200 -3.02724600
v -0.28570900 1.73378200 -3.02724600
v -0.19073500 2.91935700 -2.09064300
v -0.19073500 2.91935700 -2.09064300
v -1.71210800 3.09606900 -1.61685200
v -0.96273000 1.47509800 -2.02691600
v -0.62880300 2.93976600 -0.75622000
v -0.62880300 2.93976600 -0.75622000
v -4.53609000 2.98273200 0.13293500
v -4.53609000 2.98273200 0.13293500
v -4.27810600 3.17487200 -1.00887700
v -4.27810600 3.17487200 -1.00887700
v -0.90524600 2.20080100 1.39834900
v -0.90524600 2.20080100 1.39834900
v -1.15589500 2.02110100 -0.49630100
v -1.55467600 0.44080600 -0.00000100
v -1.42966800 0.61947600 -1.07191300
v -1.34149900 1.04260200 1.06302700
v -1.44200500 -0.52072000 1.07419600
v -1.11647000 0.58307400 2.09893100
v -1.03738400 -0.98210700 2.08520300
v -0.56846600 -0.47494100 3.11604900
v -0.40984700 1.51946400 2.99160000
v -0.40984700 1.51946400 2.99160000
v -1.38785500 1.34882000 3.65554700
v 0.21561400 1.03272800 3.87281300
v 0.21561400 1.03272800 3.87281300
v 0.21561400 1.03272800 3.87281300
v 0.04705400 0.00000100 3.85295300
v 0.04705400 0.00000100 3.85295300
v 0.93945700 0.55292200 4.54407700
v 0.93945700 0.55292200 4.54407700
v -1.47396800 0.25415700 5.19025300
v -1.47396800 0.25415700 5.19025300
v 1.72935500 0.05853900 4.98774700
v 1.72935500 0.05853900 4.98774700
v 1.72935500 0.05853900 4.98774700
v 1.72935500 0.05853900 4.98774700
v 0.97970200 -0.51006600 4.59026100
v 0.97970200 -0.51006600 4.59026100
v 0.97970200 -0.51006600 4.59026100
v 0.18275100 -1.03363800 3.84697900
v 0.18275100 -1.03363800 3.84697900
v 0.18275100 -1.03363800 3.84697900
v -1.30970000 -1.34888000 3.64832200
v -1.30970000 -1.34888000 3.64832200
v 1.50235700 -0.26172600 4.85349800
v 1.50235700 -0.26172600 4.85349800
v 1.50235700 -0.26172600 4.85349800
v 1.50235700 -0.26172600 4.85349800
v -1.30176900 -0.15410000 5.24880700
v -1.30176900 -0.15410000 5.24880700
v -1.30176900 -0.15410000 5.24880700
v -2.04896100 0.47219400 5.01039000
v -2.04896100 0.47219400 5.01039000
v -2.07668300 -0.49822700 4.98731300
v -2.07668300 -0.49822700 4.98731300
v -2.87476900 -0.78489300 4.55458200
v -2.87476900 -0.78489300 4.55458200
v -2.90796800 0.82383200 4.50732700
v -2.90796800 0.82383200 4.50732700
v -3.62067000 -1.17493200 3.85108100
v -3.62067000 -1.17493200 3.85108100
v -3.80952800 -0.35740600 3.87343800
v -3.80952800 -0.35740600 3.87343800
v -3.64007400 1.16874000 3.84947900
v -3.64007400 1.16874000 3.84947900
v -3.64007400 1.16874000 3.84947900
v -4.46853600 -0.50100000 3.06938200
v -4.46853600 -0.50100000 3.06938200
v -4.20797300 1.56765900 3.07788000
v -4.20797300 1.56765900 3.07788000
v -4.58177700 1.99913400 2.11845200
v -4.58177700 1.99913400 2.11845200
v -4.63705000 2.58949100 1.05623200
v -4.63705000 2.58949100 1.05623200
v -5.00898900 0.48315400 2.09499400
v -5.31010000 0.61720300 1.06800200
v -4.91924600 -0.97850000 2.07759200
v -5.12429200 -1.51113700 1.11127000
v -5.18903700 -1.67399800 -0.00000200
v -4.58177900 -1.99913500 2.11845100
v -4.58177900 -1.99913500 2.11845100
v -4.62272600 -2.61586300 1.00497900
v -4.62272600 -2.61586300 1.00497900
v -5.43465600 0.43918900 -0.00000100
v -5.10326300 1.60828800 -1.02669100
v -5.01563800 2.07754800 -0.00000100
v -5.32063800 -0.48240200 -1.11127200
v -4.91925800 -2.03762600 -1.05914900
v -4.99338100 -0.44511900 -2.12706800
v -4.46988400 -2.35289100 -2.05722500
v -4.46988400 -2.35289100 -2.05722500
v -4.82442800 1.49694500 -2.05722400
v -3.87744300 3.16020800 -2.08763800
v -3.87744300 3.16020800 -2.08763800
v -4.32810900 1.27163500 -3.05591700
v -3.75318300 2.50780200 -3.01619100
v -4.49454800 -0.52241100 -3.02923900
v -4.49454800 -0.52241100 -3.02923900
v -3.77351700 0.75060100 -3.86658500
v -3.77351700 0.75060100 -3.86658500
v -2.88633900 0.89386200 -4.51995900
v -2.99169500 -0.61605400 -4.51729700
v -3.70012600 -1.05192700 -3.84760100
v -3.70012600 -1.05192700 -3.84760100
v -2.85899000 -2.62986900 -3.80510900
v -2.85899000 -2.62986900 -3.80510900
v -3.97696300 -2.18623400 -3.00524100
v -3.97696300 -2.18623400 -3.00524100
v -3.97696300 -2.18623400 -3.00524100
v -3.24704600 -2.94579200 -3.16781300
v -3.24704600 -2.94579200 -3.16781300
v -3.24704600 -2.94579200 -3.16781300
v -3.73631300 -3.15929300 -2.32453100
v -3.73631300 -3.15929300 -2.32453100
v -1.71210500 -3.09606800 -1.61685300
v -0.30172800 -2.95602500 -1.84768300
v -0.30172800 -2.95602500 -1.84768300
v -0.30172800 -2.95602500 -1.84768300
v -4.27668700 -3.17418000 -1.00171500
v -4.27668700 -3.17418000 -1.00171500
v -4.27668700 -3.17418000 -1.00171500
v 0.53053600 -2.67926700 -3.31486000
v 0.53053600 -2.67926700 -3.31486000
v 0.53053600 -2.67926700 -3.31486000
v 0.48880000 -1.84606000 -3.85316200
v 0.48880000 -1.84606000 -3.85316200
v -0.42216900 -1.39434700 -3.04034300
v -0.42216900 -1.39434700 -3.04034300
v -0.42216900 -1.39434700 -3.04034300
v 0.04097400 -0.33221400 -3.84730100
v 0.04097400 -0.33221400 -3.84730100
v -0.62675500 0.36582000 -3.04034300
v -0.62675500 0.36582000 -3.04034300
v -0.75091600 -1.92647400 -2.08520400
v -0.75091600 -1.92647400 -2.08520400
v -1.11179300 -0.44675900 -2.13486400
v -1.24435800 -1.61324300 -1.02011200
v -1.30341000 -1.70168200 -0.02471000
v -0.67305800 -2.86900600 -0.45006100
v -0.67305800 -2.86900600 -0.45006100
v -4.53632300 -2.98239200 0.13485800
v -4.53632300 -2.98239200 0.13485800
v -0.90989700 -2.20136900 1.38894200
v -0.90989700 -2.20136900 1.38894200
v -0.32312000 -1.49511000 3.07209400
v -0.32312000 -1.49511000 3.07209400
v 0.90132500 -0.51929500 -4.54468400
v -2.02821300 -0.62646100 -5.01953200
v -1.92807000 0.80100300 -5.01960200
v -4.22002600 -1.62372300 2.99131300
v -4.22002600 -1.62372300 2.99131300
v -4.22002600 -1.62372300 2.99131300
vn 0.02823330 -0.27465543 -0.96112813
vn 0.03058973 -0.73725273 -0.67492420
vn 0.38038117 0.19916059 0.90313079
vn -0.16765370 -0.40881904 -0.89708374
vn 0.03230246 -0.82746664 -0.56058497
vn -0.00007099 -0.61932989 -0.78513087
vn -0.49514263 -0.28795005 -0.81970638
vn -0.09152199 -0.18223155 -0.97898692
vn 0.48729154 0.29686766 0.82122868
vn 0.03597506 -0.78035457 -0.62430164
vn 0.38604055 0.06800410 0.91997181
vn 0.02710893 0.00289164 -0.99962830
vn 0.27712356 0.01067539 0.96077498
vn -0.12342898 0.11422682 -0.98575733
vn 0.38945203 -0.14300445 0.90987738
vn 0.04633296 0.35352046 -0.93427862
vn -0.14976815 0.40524101 -0.90185876
vn 0.52900725 -0.16416566 0.83258691
vn 0.05522711 0.58542571 -0.80884282
vn 0.51444119 -0.30585246 0.80112704
vn 0.03426425 0.83363491 -0.55125203
vn 0.10112322 0.67293771 -0.73275435
vn -0.64171056 0.39092994 -0.65983433
vn 0.03367354 0.88502368 -0.46432659
vn -0.56608165 0.32148964 -0.75907574
vn -0.48645063 0.29850510 -0.82113366
vn 0.01271574 0.64096354 -0.76746599
vn 0.02948465 0.81983217 -0.57184427
vn 0.77282879 -0.19844477 0.60278963
vn 0.65248501 -0.38103277 0.65503996
vn 0.63205099 -0.16943492 0.75617680
vn 0.66877670 -0.37486580 0.64203843
vn 0.66877670 -0.37486580 0.64203843
vn 0.04423985 0.88057663 -0.47183432
vn 0.56772575 -0.34103236 0.74925590
vn 0.05507831 0.97463903 -0.21689893
vn -0.64373555 0.52962673 -0.55235865
vn 0.07207151 0.97412302 -0.21421959
vn 0.75608708 -0.44192790 0.48273394
vn 0.66877670 -0.37486580 0.64203843
vn 0.65248501 -0.38103277 0.65503996
vn 0.80150796 -0.30760386 0.51280099
vn 0.65248501 -0.38103277 0.65503996
vn 0.81464595 -0.43545558 0.38305406
vn 0.08761698 0.99141776 -0.09702620
vn 0.07021250 0.99742768 -0.01442995
vn 0.88760128 -0.27803219 0.36723572
vn 0.09201999 0.98129146 0.16911352
vn 0.87029878 -0.46522123 0.16170728
vn 0.05752490 0.95305397 0.29728609
vn -0.88440768 0.46570183 -0.03073859
vn -0.85714944 0.46398441 -0.22363654
vn 0.04489736 0.99272915 0.11168291
vn 0.07965343 0.93183194 0.35404035
vn 0.91729005 -0.33256812 -0.21903748
vn 0.92200966 -0.38018058 0.07321824
vn 0.99778399 -0.06648672 0.00257571
vn 0.97457731 -0.09388000 0.20343454
vn 0.96165059 -0.20430261 -0.18299888
vn 0.97748196 0.10043834 -0.18558330
vn 0.91197769 -0.11081439 -0.39498971
vn 0.90089174 0.19420516 -0.38817319
vn 0.82299687 0.06874922 -0.56387028
vn 0.83652597 -0.16778111 -0.52160694
vn 0.10359285 0.91582927 0.38797586
vn 0.05520322 0.87969305 0.47232694
vn 0.64425011 -0.09054901 -0.75943576
vn 0.10605643 0.86953960 0.48234108
vn 0.78814577 -0.10551755 -0.60637636
vn 0.77969233 -0.04102797 -0.62481723
vn 0.63909126 -0.00083530 -0.76913046
vn 0.58242058 -0.03743335 -0.81202526
vn 0.08184570 0.77129739 0.63119063
vn 0.08841737 0.80208925 0.59062273
vn -0.17802854 0.06572724 0.98182777
vn 0.46707526 0.00231887 -0.88421452
vn 0.10787605 -0.44839968 0.88729955
vn 0.08735874 0.73903533 0.66797847
vn 0.07258615 0.17153076 0.98250112
vn -0.07663438 -0.64481854 0.76048420
vn 0.11882818 -0.86724880 0.48348669
vn 0.57193553 0.01892928 -0.82008014
vn 0.12119500 -0.87229782 0.47371752
vn 0.64730029 0.08935315 -0.75697975
vn 0.74552569 0.15412313 -0.64841153
vn 0.05901321 -0.87716197 0.47655463
vn -0.07663438 -0.64481854 0.76048420
vn 0.05347001 -0.80032058 0.59718333
vn -0.07663438 -0.64481854 0.76048420
vn 0.41571653 0.08492472 -0.90552060
vn 0.10787605 -0.44839968 0.88729955
vn 0.09603142 -0.79786445 0.59513888
vn -0.10148460 0.09375814 0.99040915
vn 0.10787605 -0.44839968 0.88729955
vn 0.07661767 0.81964637 0.56772314
vn -0.42073896 0.00200355 0.90717954
vn -0.41628958 -0.00972853 0.90918004
vn 0.08495127 -0.81827939 0.56850868
vn -0.00868153 -0.85564274 0.51749409
vn -0.55906011 -0.03179534 0.82851726
vn -0.57681199 0.03964862 0.81591416
vn -0.00850406 0.85797124 0.51362732
vn -0.69878633 -0.18609261 0.69070052
vn -0.02335514 -0.87465686 0.48417964
vn -0.77793708 0.09563011 0.62102237
vn -0.66654213 -0.09064224 0.73993620
vn -0.02880653 0.87693133 0.47975162
vn -0.77729510 0.09606713 0.62175834
vn -0.64400820 0.08344515 0.76045404
vn -0.84414994 -0.02438186 0.53555243
vn -0.74553695 -0.20085623 0.63547732
vn -0.82494295 0.14865286 0.54531776
vn -0.03873619 0.88566651 0.46270330
vn -0.26308597 0.83740589 0.47910035
vn -0.90445626 0.27543925 0.32571782
vn -0.91715517 0.36011710 0.17071045
vn 0.00722723 0.91055530 0.41332410
vn -0.91592481 0.08650961 0.39191559
vn -0.97374775 0.11453829 0.19671373
vn -0.91562754 -0.15738265 0.36994177
vn -0.94655098 -0.25496732 0.19756749
vn -0.95583788 -0.29389275 -0.00100394
vn -0.87286278 -0.31686309 0.37109076
vn -0.27430658 -0.83691395 0.47363588
vn 0.01111071 -0.91223114 0.40952521
vn -0.89008955 -0.42766280 0.15762339
vn -0.99759856 0.06914257 -0.00405132
vn -0.93614791 0.29572337 -0.19019670
vn -0.92560609 0.37839893 0.00822264
vn -0.97580315 -0.08446327 -0.20167836
vn -0.90776422 -0.36583780 -0.20524820
vn -0.91731134 -0.07987668 -0.39007644
vn -0.74187680 -0.54572049 -0.38962542
vn -0.87491901 -0.32708605 -0.35711544
vn -0.88664483 0.27379348 -0.37269033
vn -0.79005424 0.47697563 -0.38510849
vn 0.04110239 0.99774209 -0.05311598
vn -0.79208071 0.23361443 -0.56394366
vn -0.70506681 0.43513756 -0.55994294
vn -0.84776761 -0.11013639 -0.51880637
vn -0.72885568 -0.03687616 -0.68367357
vn -0.74059356 0.20656368 -0.63941584
vn -0.64649473 0.09834944 -0.75655268
vn -0.53204677 0.17561606 -0.82830262
vn -0.55134392 -0.11967869 -0.82564937
vn -0.64462675 -0.19186718 -0.74002928
vn -0.77039208 -0.24812590 -0.58730706
vn 0.04482784 -0.88887630 -0.45594889
vn -0.59715982 -0.36668972 -0.71339947
vn -0.69936595 -0.51771122 -0.49281067
vn -0.81507813 -0.26101605 -0.51722168
vn -0.63310068 -0.39220324 -0.66735309
vn 0.05671463 -0.95832351 -0.27999909
vn -0.62910824 -0.47244042 -0.61727050
vn -0.66810827 -0.53033097 -0.52190076
vn -0.72009374 -0.54316754 -0.43178007
vn 0.04791473 -0.99538923 -0.08309309
vn 0.07433523 -0.99722339 0.00444738
vn 0.09045848 -0.99396664 -0.06202894
vn 0.74276635 0.44162327 0.50325644
vn 0.85744724 0.46087462 0.22886416
vn -0.85613212 -0.49201327 -0.15798968
vn -0.75183843 -0.57996508 -0.31365502
vn 0.04892394 -0.99195291 0.11677272
vn 0.49985381 0.48752941 0.71586398
vn 0.06039659 -0.92783418 -0.36807062
vn 0.72985714 0.42712296 0.53373639
vn 0.71225355 0.40572891 0.57278174
vn 0.58006502 0.32425915 0.74724867
vn 0.70642001 0.20635196 0.67704479
vn 0.84901861 0.15351232 0.50557034
vn 0.73403023 0.43107911 0.52475749
vn 0.80531960 0.09360312 0.58540481
vn 0.67486545 0.04643261 0.73647854
vn 0.73357493 -0.07865137 0.67504206
vn 0.85243129 -0.06176384 0.51917832
vn 0.74447207 0.44054789 0.50167608
vn 0.88400788 0.32082681 0.34000034
vn 0.92152881 0.07726908 0.38054452
vn 0.94090796 0.28160129 0.18813006
vn 0.95065255 0.31000467 -0.01252363
vn 0.87312211 0.47864707 0.09249198
vn 0.08481482 -0.97322807 0.21362016
vn 0.05904951 -0.95355108 0.29538702
vn -0.88745948 -0.46065350 -0.01462956
vn 0.07654680 -0.93046032 0.35830738
vn 0.91288060 0.33750214 -0.22965479
vn 0.81180072 0.24846579 -0.52843575
vn 0.09966800 -0.91034702 0.40166478
vn 0.55522871 0.10043502 0.82561122
vn -0.37733686 -0.11107098 -0.91939117
vn -0.37089870 0.13904563 -0.91820503
vn -0.74754355 -0.20929899 0.63037495
vn -0.03584585 -0.88768860 0.45904686
vn -0.84531983 -0.24039771 0.47711982
vt 0.88731900 0.09497200
vt 0.69176500 0.45162400
vt 0.97023900 0.14642100
vt 0.91195700 0.10126900
vt 0.68574700 0.42232400
vt 0.91736700 0.09842900
vt 0.91736700 0.09842900
vt 0.90617300 0.10532300
vt 0.97047900 0.15298000
vt 0.68764900 0.44674300
vt 0.97823900 0.14513000
vt 0.88159200 0.10353200
vt 0.97608300 0.13795100
vt 0.90543300 0.11260700
vt 0.98423700 0.13699600
vt 0.88366400 0.11144800
vt 0.90686300 0.12057700
vt 0.98811200 0.14422800
vt 0.89038000 0.11715500
vt 0.99238400 0.13721200
vt 0.75783400 0.59512900
vt 0.88679600 0.11889400
vt 0.87829900 0.43284600
vt 0.75625100 0.62387500
vt 0.91358600 0.13012500
vt 0.91008700 0.12569100
vt 0.91008700 0.12569100
vt 0.76034900 0.61798900
vt 0.39625500 0.92694100
vt 0.45100900 0.97180600
vt 0.99257000 0.14745900
vt 0.38549900 0.98370900
vt 0.38218500 0.97461000
vt 0.75377000 0.60054900
vt 0.99742000 0.13870300
vt 0.75136200 0.62827000
vt 0.87305800 0.43104600
vt 0.74954300 0.60487400
vt 0.38571500 0.92141100
vt 0.38549900 0.97180600
vt 0.45100900 0.98234000
vt 0.39287800 0.92169000
vt 0.44739700 0.97547000
vt 0.38498700 0.91553700
vt 0.74367300 0.60894400
vt 0.74139900 0.61912200
vt 0.39518500 0.91548300
vt 0.73508500 0.61256200
vt 0.38524300 0.90699200
vt 0.73123300 0.63759300
vt 0.85179900 0.43158300
vt 0.85958800 0.43075100
vt 0.73873200 0.63568700
vt 0.72066200 0.61401700
vt 0.39035500 0.89285500
vt 0.39176100 0.90553000
vt 0.40252300 0.90236500
vt 0.40123500 0.90939100
vt 0.39837000 0.89525100
vt 0.40875400 0.89510600
vt 0.40119600 0.88821700
vt 0.41143200 0.88812200
vt 0.40767400 0.88105000
vt 0.39440000 0.88194300
vt 0.70957900 0.61043100
vt 0.70561800 0.61657500
vt 0.30509100 0.98389200
vt 0.70322000 0.60601300
vt 0.39704800 0.87567500
vt 0.40399900 0.87582500
vt 0.31144900 0.98108600
vt 0.30517700 0.97804600
vt 0.69820200 0.60086500
vt 0.69504000 0.61567100
vt 0.30984000 0.94879800
vt 0.30509100 0.97180600
vt 0.31598000 0.96922600
vt 0.69464900 0.59512900
vt 0.31598000 0.96922600
vt 0.96983900 0.96497100
vt 0.62700600 0.44807300
vt 0.31095100 0.97396100
vt 0.63157800 0.44249100
vt 0.31671000 0.97658100
vt 0.41068400 0.87568900
vt 0.63208600 0.43258300
vt 0.96955300 0.94881400
vt 0.62551300 0.45162400
vt 0.96955300 0.96879300
vt 0.30768800 0.97192300
vt 0.31769900 0.96727500
vt 0.62121500 0.43329000
vt 0.31274500 0.94928700
vt 0.31274500 0.94928700
vt 0.69661900 0.61962500
vt 0.30754500 0.94541900
vt 0.31377800 0.94376100
vt 0.62257000 0.42809700
vt 0.62503000 0.42263300
vt 0.31439500 0.93818000
vt 0.30393800 0.94041900
vt 0.70053900 0.62544100
vt 0.31574900 0.93278800
vt 0.62933700 0.41737800
vt 0.82505900 0.44670500
vt 0.31017500 0.93281200
vt 0.70541400 0.63035300
vt 0.82642700 0.43703500
vt 0.30056200 0.93623600
vt 0.82992200 0.44997300
vt 0.31006300 0.92836300
vt 0.83152300 0.43675000
vt 0.71098000 0.63428700
vt 0.71770200 0.63696400
vt 0.83797500 0.43593200
vt 0.84537900 0.43342100
vt 0.72501000 0.63793900
vt 0.83679900 0.44624500
vt 0.84351300 0.44710300
vt 0.83587800 0.45489300
vt 0.84174700 0.45949400
vt 0.84891300 0.46161900
vt 0.83502200 0.46017900
vt 0.64042900 0.41019300
vt 0.64792000 0.40941200
vt 0.84187900 0.46499700
vt 0.85035300 0.44943500
vt 0.85814100 0.44238900
vt 0.85177000 0.43842200
vt 0.85704600 0.45570100
vt 0.85575200 0.46405400
vt 0.86392500 0.45552000
vt 0.66820000 0.40851700
vt 0.86231400 0.46568200
vt 0.86498200 0.44324700
vt 0.86687900 0.43075100
vt 0.74565100 0.63247600
vt 0.87163800 0.44420800
vt 0.87257300 0.43519800
vt 0.87005500 0.45549300
vt 0.92954500 0.11266400
vt 0.87686500 0.44664900
vt 0.92272600 0.11967700
vt 0.91680500 0.11913300
vt 0.92011200 0.10963500
vt 0.92539600 0.10799000
vt 0.87544500 0.45737500
vt 0.68078000 0.41819100
vt 0.92275000 0.09640300
vt 0.67472100 0.41116500
vt 0.86892300 0.46423100
vt 0.92912400 0.10109200
vt 0.67641200 0.41608800
vt 0.92577100 0.09497200
vt 0.67641200 0.41608800
vt 0.67059700 0.41341400
vt 0.67059700 0.41341400
vt 0.66709800 0.42720800
vt 0.66942400 0.43636000
vt 0.19813200 0.97235300
vt 0.42377500 0.91349500
vt 0.85485200 0.46924400
vt 0.66153200 0.41063800
vt 0.66153200 0.41063800
vt 0.97093200 0.16106700
vt 0.67955300 0.44091200
vt 0.19813200 0.98324100
vt 0.19462500 0.98575500
vt 0.97555500 0.15795700
vt 0.98155400 0.16106700
vt 0.41359800 0.92159400
vt 0.19080500 0.97805700
vt 0.40619200 0.92672800
vt 0.98540200 0.15434300
vt 0.99175100 0.15517900
vt 0.40219000 0.92187600
vt 0.19275300 0.97180600
vt 0.41739500 0.91544100
vt 0.40797300 0.91612600
vt 0.41577200 0.90873800
vt 0.41640700 0.90218400
vt 0.42353200 0.90449500
vt 0.65993900 0.43472100
vt 0.65381500 0.40955400
vt 0.84738100 0.46775700
vt 0.64747400 0.43408800
vt 0.41934700 0.89254100
vt 0.41417400 0.88109600
vt 0.63651600 0.43879800
vt 0.98101100 0.15046000
vt 0.91396600 0.10795500
vt 0.91083600 0.11693200
vt 0.31769900 0.92826200
vt 0.63477900 0.41301300
vt 0.82973000 0.45621000
f 8/8/8 1/1/1 4/4/4
f 4/4/4 1/1/1 6/6/6
f 10/10/10 5/5/5 2/2/2
f 8/8/8 12/12/12 1/1/1
f 9/9/9 3/3/3 11/11/11
f 13/13/13 11/11/11 3/3/3
f 14/14/14 12/12/12 8/8/8
f 16/16/16 12/12/12 14/14/14
f 13/13/13 15/15/15 11/11/11
f 19/19/19 16/16/16 17/17/17
f 17/17/17 16/16/16 14/14/14
f 15/15/15 20/20/20 18/18/18
f 18/18/18 11/11/11 15/15/15
f 22/22/22 16/16/16 19/19/19
f 31/31/31 18/18/18 20/20/20
f 34/34/34 21/21/21 24/24/24
f 24/24/24 21/21/21 28/28/28
f 22/22/22 19/19/19 27/27/27
f 31/31/31 20/20/20 35/35/35
f 38/38/38 34/34/34 36/36/36
f 36/36/36 34/34/34 24/24/24
f 32/32/32 33/33/33 40/40/40
f 42/42/42 39/39/39 44/44/44
f 30/30/30 41/41/41 43/43/43
f 36/36/36 45/45/45 38/38/38
f 46/46/46 48/48/48 45/45/45
f 46/46/46 45/45/45 36/36/36
f 42/42/42 44/44/44 47/47/47
f 47/47/47 44/44/44 49/49/49
f 50/50/50 54/54/54 48/48/48
f 53/53/53 50/50/50 48/48/48
f 53/53/53 48/48/48 46/46/46
f 56/56/56 49/49/49 55/55/55
f 56/56/56 47/47/47 49/49/49
f 47/47/47 56/56/56 58/58/58
f 59/59/59 57/57/57 56/56/56
f 58/58/58 56/56/56 57/57/57
f 59/59/59 56/56/56 55/55/55
f 57/57/57 59/59/59 60/60/60
f 61/61/61 59/59/59 55/55/55
f 59/59/59 61/61/61 60/60/60
f 60/60/60 61/61/61 62/62/62
f 62/62/62 61/61/61 63/63/63
f 61/61/61 64/64/64 63/63/63
f 64/64/64 61/61/61 55/55/55
f 63/63/63 64/64/64 69/69/69
f 66/66/66 65/65/65 54/54/54
f 68/68/68 65/65/65 66/66/66
f 71/71/71 67/67/67 72/72/72
f 63/63/63 69/69/69 70/70/70
f 66/66/66 73/73/73 68/68/68
f 74/74/74 73/73/73 66/66/66
f 74/74/74 78/78/78 73/73/73
f 82/82/82 72/72/72 76/76/76
f 82/82/82 71/71/71 72/72/72
f 82/82/82 84/84/84 71/71/71
f 86/86/86 83/83/83 81/81/81
f 89/89/89 87/87/87 80/80/80
f 82/82/82 76/76/76 90/90/90
f 94/94/94 91/91/91 77/77/77
f 92/92/92 86/86/86 88/88/88
f 96/96/96 93/93/93 75/75/75
f 93/93/93 79/79/79 75/75/75
f 96/96/96 97/97/97 93/93/93
f 92/92/92 98/98/98 86/86/86
f 99/99/99 86/86/86 98/98/98
f 100/100/100 97/97/97 96/96/96
f 96/96/96 101/101/101 100/100/100
f 106/106/106 100/100/100 101/101/101
f 86/86/86 99/99/99 104/104/104
f 100/100/100 106/106/106 103/103/103
f 103/103/103 106/106/106 111/111/111
f 105/105/105 108/108/108 112/112/112
f 106/106/106 101/101/101 109/109/109
f 105/105/105 112/112/112 110/110/110
f 113/113/113 107/107/107 66/66/66
f 117/117/117 113/113/113 66/66/66
f 114/114/114 113/113/113 117/117/117
f 118/118/118 112/112/112 115/115/115
f 112/112/112 118/118/118 110/110/110
f 118/118/118 119/119/119 121/121/121
f 119/119/119 118/118/118 115/115/115
f 120/120/120 110/110/110 118/118/118
f 118/118/118 121/121/121 120/120/120
f 127/127/127 121/121/121 119/119/119
f 121/121/121 123/123/123 120/120/120
f 127/127/127 122/122/122 121/121/121
f 122/122/122 126/126/126 121/121/121
f 126/126/126 123/123/123 121/121/121
f 130/130/130 122/122/122 127/127/127
f 127/127/127 128/128/128 130/130/130
f 129/129/129 128/128/128 127/127/127
f 129/129/129 127/127/127 119/119/119
f 122/122/122 130/130/130 131/131/131
f 130/130/130 128/128/128 135/135/135
f 130/130/130 134/134/134 131/131/131
f 130/130/130 132/132/132 134/134/134
f 130/130/130 135/135/135 132/132/132
f 52/52/52 135/135/135 128/128/128
f 138/138/138 132/132/132 135/135/135
f 52/52/52 136/136/136 135/135/135
f 139/139/139 135/135/135 136/136/136
f 139/139/139 138/138/138 135/135/135
f 23/23/23 138/138/138 139/139/139
f 37/37/37 23/23/23 139/139/139
f 136/136/136 37/37/37 139/139/139
f 138/138/138 140/140/140 132/132/132
f 138/138/138 142/142/142 140/140/140
f 23/23/23 142/142/142 138/138/138
f 143/143/143 144/144/144 145/145/145
f 25/25/25 144/144/144 143/143/143
f 141/141/141 143/143/143 146/146/146
f 146/146/146 143/143/143 145/145/145
f 152/152/152 146/146/146 149/149/149
f 145/145/145 149/149/149 146/146/146
f 140/140/140 147/147/147 151/151/151
f 150/150/150 155/155/155 156/156/156
f 149/149/149 154/154/154 152/152/152
f 140/140/140 151/151/151 134/134/134
f 150/150/150 156/156/156 133/133/133
f 158/158/158 157/157/157 159/159/159
f 157/157/157 158/158/158 164/164/164
f 157/157/157 153/153/153 166/166/166
f 163/163/163 133/133/133 156/156/156
f 157/157/157 166/166/166 159/159/159
f 160/160/160 167/167/167 172/172/172
f 169/169/169 165/165/165 9/9/9
f 168/168/168 172/172/172 167/167/167
f 148/148/148 10/10/10 166/166/166
f 153/153/153 148/148/148 166/166/166
f 169/169/169 174/174/174 170/170/170
f 173/173/173 176/176/176 171/171/171
f 176/176/176 179/179/179 171/171/171
f 178/178/178 171/171/171 179/179/179
f 160/160/160 172/172/172 177/177/177
f 179/179/179 58/58/58 180/180/180
f 178/178/178 179/179/179 180/180/180
f 47/47/47 58/58/58 179/179/179
f 176/176/176 47/47/47 179/179/179
f 180/180/180 58/58/58 57/57/57
f 180/180/180 181/181/181 182/182/182
f 180/180/180 57/57/57 181/181/181
f 178/178/178 180/180/180 161/161/161
f 161/161/161 180/180/180 182/182/182
f 184/184/184 183/183/183 186/186/186
f 184/184/184 164/164/164 183/183/183
f 159/159/159 183/183/183 158/158/158
f 164/164/164 158/158/158 183/183/183
f 182/182/182 181/181/181 187/187/187
f 187/187/187 181/181/181 60/60/60
f 62/62/62 187/187/187 60/60/60
f 186/186/186 189/189/189 86/86/86
f 62/62/62 188/188/188 187/187/187
f 86/86/86 184/184/184 186/186/186
f 86/86/86 189/189/189 83/83/83
f 62/62/62 63/63/63 188/188/188
f 63/63/63 85/85/85 188/188/188
f 122/122/122 185/185/185 126/126/126
f 125/125/125 184/184/184 86/86/86
f 185/185/185 131/131/131 162/162/162
f 122/122/122 131/131/131 185/185/185
f 57/57/57 60/60/60 181/181/181
f 42/42/42 47/47/47 176/176/176
f 174/174/174 31/31/31 175/175/175
f 29/29/29 42/42/42 176/176/176
f 31/31/31 174/174/174 190/190/190
f 169/169/169 190/190/190 174/174/174
f 190/190/190 11/11/11 18/18/18
f 31/31/31 190/190/190 18/18/18
f 9/9/9 11/11/11 190/190/190
f 169/169/169 9/9/9 190/190/190
f 131/131/131 134/134/134 162/162/162
f 145/145/145 7/7/7 149/149/149
f 148/148/148 5/5/5 10/10/10
f 191/191/191 7/7/7 145/145/145
f 144/144/144 191/191/191 145/145/145
f 191/191/191 14/14/14 8/8/8
f 191/191/191 8/8/8 4/4/4
f 192/192/192 14/14/14 191/191/191
f 191/191/191 4/4/4 7/7/7
f 144/144/144 192/192/192 191/191/191
f 26/26/26 192/192/192 144/144/144
f 17/17/17 14/14/14 192/192/192
f 26/26/26 17/17/17 192/192/192
f 25/25/25 26/26/26 144/144/144
f 140/140/140 134/134/134 132/132/132
f 53/53/53 46/46/46 137/137/137
f 46/46/46 36/36/36 137/137/137
f 116/116/116 51/51/51 129/129/129
f 51/51/51 128/128/128 129/129/129
f 129/129/129 119/119/119 116/116/116
f 51/51/51 52/52/52 128/128/128
f 194/194/194 124/124/124 125/125/125
f 194/194/194 125/125/125 86/86/86
f 194/194/194 86/86/86 104/104/104
f 103/103/103 111/111/111 193/193/193
f 120/120/120 195/195/195 110/110/110
f 120/120/120 123/123/123 195/195/195
f 119/119/119 115/115/115 116/116/116
f 117/117/117 66/66/66 50/50/50
f 102/102/102 66/66/66 107/107/107
f 66/66/66 102/102/102 95/95/95
f 74/74/74 66/66/66 95/95/95
f 85/85/85 63/63/63 70/70/70
f 50/50/50 66/66/66 54/54/54
f 17/17/17 27/27/27 19/19/19

