# ('FARMS composite mesh',)
mtllib link_body_06_composite.mtl

o link_body_06
usemtl link_body_06_composite
v -3.62303100 7.38590400 -3.51625800
v -3.62303100 7.38590400 -3.51625800
v -3.62303100 7.38590400 -3.51625800
v -4.84391700 5.61364600 -5.05379500
v -4.84391700 5.61364600 -5.05379500
v -6.38440900 5.34792800 -3.43264500
v -0.06625900 7.88228700 -3.88061900
v -0.06625900 7.88228700 -3.88061900
v -3.38553900 8.11239800 -1.73722400
v -3.38553900 8.11239800 -1.73722400
v -5.59384400 6.83010900 -1.76691300
v -0.62060100 8.61616700 -2.55462400
v -0.60497000 8.77882700 -1.32043300
v 3.70817800 8.83137800 -2.59641400
v 4.42762000 8.25747700 -3.41588800
v 4.42762000 8.25747700 -3.41588800
v 5.55686600 8.76587000 -2.14400600
v 2.16899100 7.74426000 -4.03912400
v 2.16899100 7.74426000 -4.03912400
v 2.16899100 7.74426000 -4.03912400
v 2.16899100 7.74426000 -4.03912400
v 4.12793500 8.87589300 -0.72571000
v 4.12793500 8.87589300 -0.72571000
v 4.17820000 8.75715800 -1.74190900
v 6.14211000 8.54279300 -1.73053400
v 6.14211000 8.54279300 -1.73053400
v 6.14211000 8.54279300 -1.73053400
v 2.32300400 8.71546700 -0.13217000
v 2.32300400 8.71546700 -0.13217000
v 1.74691800 8.43878800 -1.84480100
v -1.33094700 6.86232300 -1.68852500
v -1.33094700 6.86232300 -1.68852500
v -0.11081100 7.88553200 0.07433000
v -0.11081100 7.88553200 0.07433000
v -1.00021500 6.47332100 -3.44340100
v -1.00021500 6.47332100 -3.44340100
v -1.44331300 4.49552000 -5.28096400
v -1.44331300 4.49552000 -5.28096400
v -1.44331300 4.49552000 -5.28096400
v -3.05695700 3.95391600 -3.49825400
v -3.53852600 4.20194600 -1.82763400
v 0.10607000 6.09610000 -5.08665600
v 0.10607000 6.09610000 -5.08665600
v 0.10607000 6.09610000 -5.08665600
v -6.04923900 3.98408800 -5.25336600
v -6.04923900 3.98408800 -5.25336600
v 1.13002400 6.94782900 -4.70593500
v 1.13002400 6.94782900 -4.70593500
v -6.91386700 2.12138000 -5.34153600
v -6.91386700 2.12138000 -5.34153600
v -7.95489800 2.39559700 -3.45861400
v -7.74516500 4.24775600 -1.69495500
v -8.26612400 -0.83096200 -3.45861400
v -8.76650500 1.01894500 -1.76315900
v -8.94118800 -1.03925000 0.00000100
v -8.48913100 -2.41341300 -1.76315800
v -8.65828200 2.46150800 -0.00000200
v -7.00667800 5.66536600 0.07461000
v -8.42504000 2.65513200 1.69495500
v -8.79038900 0.00000100 1.74854100
v -8.45087300 -2.55426700 1.76691500
v -8.24364000 -0.73485300 3.51156800
v -7.96471300 2.47132200 3.39625800
v -6.32790200 5.38162700 3.45246700
v -7.13018300 2.14177200 5.04945100
v -5.76166800 4.76537700 4.99443500
v -6.81885000 5.60756400 1.76691300
v -4.85243900 7.33324200 1.73288200
v -4.85243900 7.33324200 1.73288200
v -4.51003900 7.73683800 0.17550700
v -4.51003900 7.73683800 0.17550700
v -3.43068400 7.43890300 3.67969900
v -3.43068400 7.43890300 3.67969900
v -3.70213400 6.43542500 5.00634200
v -3.70213400 6.43542500 5.00634200
v -3.70213400 6.43542500 5.00634200
v -0.58011200 7.88884100 3.47645800
v -0.64360000 7.30472300 4.59663600
v -0.64360000 7.30472300 4.59663600
v -4.43438800 5.26813700 5.72704800
v -4.43438800 5.26813700 5.72704800
v 1.97407900 7.05054700 5.00889500
v 1.97407900 7.05054700 5.00889500
v 1.97407900 7.05054700 5.00889500
v 2.56888600 8.09056000 3.41687700
v 2.56888600 8.09056000 3.41687700
v 0.34089300 7.35615200 3.41962100
v 0.34089300 7.35615200 3.41962100
v 1.32256000 8.26848200 1.84541600
v 1.32256000 8.26848200 1.84541600
v -1.45277000 6.72619400 1.82646900
v -1.45277000 6.72619400 1.82646900
v -2.85235300 5.56639100 -0.00000100
v -3.82905300 4.01138400 0.95776400
v -2.14656800 5.28944700 3.49825200
v -3.69761600 2.54075700 3.43937000
v -2.39171200 3.49165200 4.98777500
v -0.56100400 5.70582600 5.02718900
v -0.56100400 5.70582600 5.02718900
v -0.56100400 5.70582600 5.02718900
v -1.15236800 3.61125100 6.19025400
v -1.15236800 3.61125100 6.19025400
v -1.15236800 3.61125100 6.19025400
v 0.48156400 5.70423600 5.72662400
v 0.48156400 5.70423600 5.72662400
v 0.48156400 5.70423600 5.72662400
v -1.98345900 1.25334900 6.33858500
v -1.98345900 1.25334900 6.33858500
v -5.51534600 3.67995300 5.97967700
v -5.51534600 3.67995300 5.97967700
v -4.62161600 0.00000100 6.41558900
v -6.31574200 1.79648100 6.08258800
v -6.31574200 1.79648100 6.08258800
v -5.51502200 -3.68036600 5.97963900
v -5.51502200 -3.68036600 5.97963900
v -6.28960700 -1.85163800 6.08056100
v -6.28960700 -1.85163800 6.08056100
v -6.28960700 -1.85163800 6.08056100
v -1.14347100 -3.62897800 6.19434900
v -1.14347100 -3.62897800 6.19434900
v -1.14347100 -3.62897800 6.19434900
v -6.48842500 -0.00013100 6.15358900
v -6.48842500 -0.00013100 6.15358900
v -6.48842500 -0.00013100 6.15358900
v -2.06090100 -0.81805700 6.35214300
v -2.06090100 -0.81805700 6.35214300
v -3.19551800 0.69822900 5.05070700
v -2.92968800 -2.30765700 4.92276900
v -3.73367100 -2.32018700 3.49825300
v -2.04623000 -4.76671500 4.42951300
v -2.04623000 -4.76671500 4.42951300
v -1.18310000 -6.30399700 3.43937000
v -2.68413000 -5.50914500 1.68852400
v -2.68413000 -5.50914500 1.68852400
v 0.50448600 -5.85086600 5.64607500
v 0.50448600 -5.85086600 5.64607500
v -4.24957600 -2.48532400 1.82763200
v -4.55517100 1.01509300 1.75646500
v -4.35605400 -2.75316900 -0.00000100
v -4.76001500 0.72231900 -0.00000100
v -4.07086900 0.00000200 3.41687700
v -4.56975500 0.95684000 -1.68852500
v -4.24957600 -2.48532200 -1.82763400
v -4.03429200 -0.73207700 -3.49825300
v -2.68413000 -5.50914500 -1.68852600
v -2.68413000 -5.50914500 -1.68852600
v -3.18743100 -3.77245300 -3.43937200
v -3.18743100 -3.77245300 -3.43937200
v -1.77786800 -4.00018000 -5.29941700
v -1.77786800 -4.00018000 -5.29941700
v -1.77786800 -4.00018000 -5.29941700
v -1.01640700 -6.43291600 -3.51128400
v -2.68497100 -2.24959400 -5.29049800
v -2.68497100 -2.24959400 -5.29049800
v -2.98240800 -0.35868700 -5.32426200
v -2.98240800 -0.35868700 -5.32426200
v -7.11412700 -0.04292600 -5.41518700
v -7.11412700 -0.04292600 -5.41518700
v -6.87395800 -2.23300800 -5.33588700
v -6.87395800 -2.23300800 -5.33588700
v -2.74694000 2.01053500 -5.30830600
v -2.74694000 2.01053500 -5.30830600
v -3.91236400 1.60931400 -3.41687800
v -7.33491500 -3.83361800 -3.51157000
v -7.33491500 -3.83361800 -3.51157000
v -6.01296600 -4.03976200 -5.24840500
v -6.01296600 -4.03976200 -5.24840500
v -6.01296600 -4.03976200 -5.24840500
v -0.40316400 -5.66310300 -5.20012300
v -0.40316400 -5.66310300 -5.20012300
v -5.00357800 -5.39799100 -5.10434200
v -5.00357800 -5.39799100 -5.10434200
v -5.22998600 -6.51586900 -3.38293200
v -4.28568800 -6.41899700 -4.48154500
v -4.28568800 -6.41899700 -4.48154500
v -3.38555000 -8.11239600 -1.73722500
v -5.81671900 -6.81850100 -1.05268600
v -3.43440400 -7.50053000 -3.44634400
v -7.30894400 -4.88367600 -1.74854300
v -7.30894400 -4.88367600 -1.74854300
v -7.88923600 -4.32168700 0.07358800
v -7.88923600 -4.32168700 0.07358800
v -6.80167700 -5.65994300 1.69420400
v -6.80167700 -5.65994300 1.69420400
v -6.49437700 -5.20851500 3.39672500
v -6.49437700 -5.20851500 3.39672500
v -4.96592100 -7.15003300 2.32207800
v -3.44249300 -6.63874800 4.91606200
v -3.44249300 -6.63874800 4.91606200
v -3.19611500 -7.45410300 3.83840700
v -4.47173700 -7.75253000 0.17611700
v -4.69949300 -4.99361000 5.77018300
v -4.69949300 -4.99361000 5.77018300
v -4.69949300 -4.99361000 5.77018300
v -4.10513300 -5.71522900 5.48901900
v -4.10513300 -5.71522900 5.48901900
v -6.56525700 -3.50920100 5.02556800
v -6.56525700 -3.50920100 5.02556800
v -6.56525700 -3.50920100 5.02556800
v -7.65005000 -3.16875200 3.42988500
v -7.42353300 -0.78420300 5.01052000
v -7.42353300 -0.78420300 5.01052000
v 1.83980100 -6.96724300 5.06887500
v 1.83980100 -6.96724300 5.06887500
v 1.83980100 -6.96724300 5.06887500
v -0.75993800 -7.76277000 3.85275400
v 1.86522600 -7.91688300 3.40741500
v 1.86522600 -7.91688300 3.40741500
v 2.45293500 -7.53136100 4.36429500
v 2.45293500 -7.53136100 4.36429500
v 1.23980300 -8.26307300 1.71594700
v 1.23980300 -8.26307300 1.71594700
v -0.68702400 -7.28131300 1.74190800
v 0.03526300 -7.94622000 0.07330800
v -2.65283200 -5.80951100 -0.00000100
v -2.65283200 -5.80951100 -0.00000100
v 0.05492000 -7.79735200 -1.71651600
v 3.63564800 -8.73670400 -1.90712400
v 2.33066500 -8.72587200 -0.15030200
v 2.33066500 -8.72587200 -0.15030200
v 2.13192700 -7.73080300 -4.05312100
v 2.13192700 -7.73080300 -4.05312100
v 2.13192700 -7.73080300 -4.05312100
v 1.18549800 -6.93923900 -4.72121500
v 1.18549800 -6.93923900 -4.72121500
v 3.68426800 -8.84264400 -2.57306800
v -0.06626200 -7.88228400 -3.88062100
v -0.06626200 -7.88228400 -3.88062100
v 4.40673500 -8.24268000 -3.43615100
v 4.40673500 -8.24268000 -3.43615100
v 5.40581400 -8.84480300 -2.02893000
v 6.21538000 -8.12033100 -3.04317000
v 6.21538000 -8.12033100 -3.04317000
v 6.07842300 -8.56646300 -1.64766700
v 6.07842300 -8.56646300 -1.64766700
v 4.08238700 -8.86849200 -0.67865300
v 4.08238700 -8.86849200 -0.67865300
v -0.55977100 -8.78528400 -1.30943300
v -0.64062700 -8.60796000 -2.56471200
v 5.93105300 8.13039500 -3.18866600
v 5.93105300 8.13039500 -3.18866600
vn -0.16910832 0.70976598 -0.68383816
vn -0.52305891 0.77891416 -0.34597992
vn -0.23630770 0.88692811 -0.39688437
vn -0.05657284 0.30579678 -0.95041456
vn -0.59725226 0.65715372 -0.45982467
vn -0.70927867 0.59327189 -0.38072593
vn -0.08143050 0.62717353 -0.77461116
vn -0.08557908 0.84432719 -0.52894974
vn -0.48910546 0.84712678 -0.20773076
vn -0.25023892 0.96087688 -0.11872699
vn -0.61957483 0.75903424 -0.19998514
vn -0.13723814 0.93568008 -0.32506688
vn -0.12450660 0.99200674 0.02051194
vn 0.02170383 0.94782304 -0.31805729
vn 0.08307610 0.84950770 -0.52099428
vn 0.00382599 -0.95649021 0.29173933
vn 0.27142251 0.94581829 -0.17820656
vn 0.00068708 0.79829404 -0.60226751
vn 0.29024855 -0.88681058 0.35961476
vn -0.01347568 0.65217274 -0.75795061
vn 0.66726253 -0.72398341 -0.17495350
vn 0.02837594 0.99936239 0.02167056
vn 0.04266423 -0.99222921 0.11688011
vn 0.00677385 -0.97938168 0.20190503
vn 0.24317761 0.95480181 0.17093319
vn -0.10664334 -0.96411426 0.24312731
vn 0.51805101 0.80049346 -0.30138574
vn 0.24356522 -0.96863567 0.04920283
vn -0.04581431 0.98515846 0.16542023
vn 0.28363028 -0.93399792 0.21725966
vn 0.45205794 -0.85863780 0.24162936
vn 0.70814971 -0.69120343 0.14408955
vn 0.64593660 -0.76335811 -0.00709282
vn 0.42041623 -0.90730981 -0.00625354
vn 0.46717833 -0.78739205 0.40219171
vn 0.72046397 -0.60413719 0.34051420
vn -0.01369299 0.10792687 -0.99406453
vn 0.57596095 -0.62194282 0.53052438
vn 0.71352376 -0.49553415 0.49530773
vn 0.79833164 -0.44969064 0.40055577
vn 0.86477937 -0.46064833 0.19989938
vn 0.66726253 -0.72398341 -0.17495350
vn -0.04437498 0.39070403 -0.91944615
vn 0.48905752 -0.71871795 0.49423400
vn -0.74099971 0.45674444 -0.49224379
vn -0.01423354 0.07662533 -0.99695836
vn 0.66726253 -0.72398341 -0.17495350
vn -0.04382708 0.60318118 -0.79639918
vn -0.83693944 0.23763377 -0.49301375
vn -0.00592475 0.03914520 -0.99921597
vn -0.88208132 0.26513237 -0.38940643
vn -0.86374887 0.46852335 -0.18553640
vn -0.91685104 -0.08404744 -0.39028221
vn -0.97537243 0.10838025 -0.19209984
vn -0.99400411 -0.10897383 -0.00897415
vn -0.94425302 -0.26754583 -0.19184751
vn -0.96078654 0.27722268 -0.00606721
vn -0.78047299 0.62518581 0.00215124
vn -0.93157988 0.31144908 0.18750572
vn -0.98114004 0.02082767 0.19217292
vn -0.93537159 -0.29782015 0.19074369
vn -0.91818102 -0.06791436 0.39029638
vn -0.88169555 0.27973650 0.37994795
vn -0.70116851 0.59846343 0.38756192
vn -0.79652698 0.23624198 0.55653796
vn -0.65013451 0.52736922 0.54699801
vn -0.76512663 0.61203550 0.19998448
vn -0.61714897 0.75760738 0.21250459
vn -0.30845696 0.93509308 0.17451427
vn -0.59336299 0.80464821 -0.02148532
vn -0.23169005 0.96427077 0.12845856
vn -0.17216429 0.91938269 0.35368761
vn -0.55084426 0.73132162 0.40216823
vn -0.15100790 0.80301706 0.57650691
vn -0.04235305 0.54398252 0.83802699
vn -0.54606782 0.69890636 0.46188724
vn -0.08695062 0.94427461 0.31746663
vn -0.07861908 0.86721213 0.49169316
vn -0.06842236 0.57850601 0.81280328
vn -0.04277805 0.31034481 0.94966106
vn -0.54704929 0.61207475 0.57105304
vn 0.33997423 -0.79150510 -0.50787517
vn -0.00457702 0.83796494 0.54570488
vn -0.05735055 0.54359110 0.83738858
vn 0.28691916 -0.87191677 -0.39678525
vn -0.03675603 0.92797653 0.37082145
vn 0.58123251 -0.71438875 -0.38963762
vn 0.38410015 -0.84361408 -0.37520976
vn 0.38264052 -0.90214747 -0.19928918
vn -0.05097531 0.98296065 0.17660656
vn 0.47699032 -0.85588348 -0.19985919
vn 0.68047300 -0.70613938 -0.19576434
vn 0.76819119 -0.64021353 -0.00298919
vn 0.89438256 -0.43299088 -0.11224404
vn 0.71615307 -0.58793285 -0.37611135
vn 0.87757464 -0.29439042 -0.37841383
vn 0.73664589 -0.38754538 -0.55422144
vn 0.47326773 -0.52599885 -0.70664197
vn 0.38628558 -0.73579693 -0.55622507
vn 0.61568486 -0.61909331 -0.48749936
vn -0.02744673 0.17511395 0.98416553
vn 0.65670311 -0.40428859 -0.63662529
vn 0.47326773 -0.52599885 -0.70664197
vn 0.38163786 -0.72722943 -0.57051722
vn 0.47326773 -0.52599885 -0.70664197
vn -0.03906898 0.44127910 0.89651903
vn 0.73754867 -0.16775441 -0.65412569
vn 0.00783269 0.04488789 0.99896132
vn -0.05620070 0.13105878 0.98978032
vn -0.66169376 0.40340156 0.63200360
vn -0.06302827 0.00007170 0.99801174
vn -0.10799488 0.08181199 0.99077944
vn -0.74394526 0.19427025 0.63937823
vn -0.05700778 -0.13121697 0.98971320
vn -0.64551024 -0.42551641 0.63423365
vn -0.77648600 -0.24135068 0.58208190
vn -0.10732872 -0.08258536 0.99078767
vn -0.70741380 -0.20130573 0.67752617
vn 0.53835785 0.55564041 -0.63358864
vn -0.02500114 -0.18518082 0.98238638
vn 0.69670075 0.32772643 -0.63812495
vn -0.80273154 0.10038597 0.58783053
vn -0.13898426 -0.00054568 0.99029444
vn -0.73311485 -0.10522513 0.67191538
vn 0.75484209 0.11272111 -0.64614810
vn 0.01466537 -0.03160369 0.99939288
vn 0.82602401 -0.07224453 -0.55898575
vn 0.79016978 0.24692035 -0.56094747
vn 0.88132982 0.27086889 -0.38715345
vn 0.79182274 0.41513608 -0.44797185
vn 0.59783972 0.61406193 -0.51528207
vn 0.56815883 0.72455463 -0.39014886
vn 0.67494774 0.70941116 -0.20293191
vn 0.86345598 0.46802556 -0.18813782
vn 0.48119109 0.69997834 -0.52771722
vn -0.03832991 -0.43991337 0.89722185
vn 0.93789229 0.28189585 -0.20221964
vn 0.97536448 -0.10508650 -0.19396125
vn 0.95015142 0.31178882 0.00000013
vn 0.99729720 -0.07335859 0.00410103
vn 0.92444100 0.01749539 -0.38092354
vn 0.97655059 -0.11590876 0.18142248
vn 0.94116228 0.27229499 0.20017246
vn 0.91693276 0.08181363 0.39056479
vn 0.87283318 0.47290157 0.12052524
vn 0.67773980 0.69564235 0.23822359
vn 0.85945158 0.35934598 0.36361166
vn 0.70902577 0.56726466 0.41891917
vn -0.00371563 -0.05157504 -0.99866221
vn 0.68122403 0.55989881 0.47164302
vn 0.75644816 0.38929177 0.52558357
vn 0.58549937 0.71402173 0.38387948
vn 0.03570814 0.01520930 -0.99924652
vn 0.82832808 0.26814625 0.49190465
vn 0.02157197 -0.00561533 -0.99975153
vn 0.86513505 0.01449062 0.50132960
vn 0.00856729 -0.00064341 -0.99996309
vn -0.86418875 0.01455568 -0.50295719
vn -0.82667146 -0.25455441 -0.50181306
vn -0.00728021 -0.04161339 -0.99910726
vn 0.02465528 -0.00040210 -0.99969593
vn 0.83030914 -0.23495134 0.50535591
vn 0.90222239 -0.18417726 0.38996602
vn -0.85632424 -0.34425954 -0.38495995
vn -0.71131629 -0.57743359 -0.40074878
vn -0.01514398 -0.07133412 -0.99733751
vn -0.68936899 -0.56218218 -0.45686059
vn -0.75564298 -0.38572589 -0.52935737
vn -0.03578650 -0.32166974 -0.94617541
vn 0.56648744 0.65261383 0.50317707
vn -0.64753310 -0.59738628 -0.47310731
vn -0.04305894 -0.25584790 -0.96575762
vn -0.59375387 -0.71429206 -0.37046348
vn -0.42974071 -0.73845201 -0.51962635
vn -0.07557649 -0.55745109 -0.82676265
vn -0.34666989 -0.92579433 -0.15074764
vn -0.65004015 -0.75204407 -0.10898405
vn -0.30930807 -0.83172162 -0.46105061
vn -0.88491764 -0.42391749 -0.19291120
vn -0.75597648 -0.62209788 -0.20370022
vn -0.77551973 -0.63065769 -0.02898306
vn -0.91426623 -0.40393385 0.03089840
vn -0.85358904 -0.45904478 0.24629991
vn -0.70017969 -0.70206909 0.12979754
vn -0.61074768 -0.65652724 0.44267285
vn -0.82777729 -0.46069737 0.32022288
vn -0.52288900 -0.81109797 0.26212052
vn -0.05857482 -0.55629448 0.82891823
vn -0.40628289 -0.75021556 0.52164243
vn -0.27245202 -0.87891876 0.39149932
vn -0.41920486 -0.90596283 0.05914930
vn -0.62933015 -0.48736289 0.60532716
vn -0.59532903 -0.63739271 0.48919718
vn -0.04048338 -0.24993350 0.96741632
vn -0.67158378 -0.67348701 0.30885349
vn -0.04701759 -0.44203747 0.89576348
vn -0.65568657 -0.37709104 0.65412344
vn -0.64586411 -0.54216176 0.53751296
vn -0.80198162 -0.32616876 0.50043923
vn -0.85380616 -0.36374518 0.37243050
vn -0.84548786 -0.07586475 0.52857810
vn -0.73311485 -0.10522513 0.67191538
vn -0.04772897 -0.51403154 0.85644236
vn -0.04534090 -0.78882795 0.61293937
vn 0.41130539 0.79405090 -0.44756122
vn -0.07294553 -0.90568369 0.41763141
vn 0.39605988 0.81935169 -0.41448687
vn -0.00466117 -0.95317679 0.30237772
vn -0.01854180 -0.86207608 0.50643956
vn 0.22696243 0.84702595 -0.48066111
vn -0.04073249 -0.97887737 0.20034961
vn 0.40103616 0.89301946 -0.20417208
vn 0.54642619 0.81277162 -0.20204137
vn 0.47629518 0.87925557 -0.00724890
vn 0.64313155 0.76569564 0.00959158
vn 0.87351902 0.48679003 0.00000000
vn 0.45579751 0.86712946 0.20083609
vn 0.08006551 0.97327028 0.21525445
vn 0.26005446 0.96112021 0.09284192
vn -0.04651324 -0.98494875 0.16647068
vn -0.01418047 -0.65477281 -0.75569272
vn 0.00109528 -0.79898022 -0.60135631
vn 0.29591829 0.89420015 0.33591436
vn -0.04670358 -0.59606213 -0.80157888
vn 0.41929680 0.80061464 0.42802615
vn 0.01692143 -0.94842194 -0.31655882
vn -0.07451570 -0.60389189 -0.79357545
vn -0.08926818 -0.83669516 -0.54034471
vn -0.01011407 0.95022811 0.31139084
vn 0.08539680 -0.84772182 -0.52352182
vn 0.23971152 -0.96117019 -0.13671229
vn 0.27265028 -0.87245529 -0.40556577
vn -0.12730806 0.94831467 0.29067497
vn -0.10485283 0.96478787 0.24122657
vn 0.39735439 -0.91712611 -0.03145140
vn 0.02004443 -0.99898216 0.04040871
vn 0.01092214 0.99464909 0.10273215
vn -0.12208757 -0.99226162 0.02261656
vn -0.13719361 -0.93562678 -0.32523906
vn -0.11284433 -0.95430639 0.27670467
vn 0.25138273 0.86427445 -0.43570219
vt 0.27868300 0.02319300
vt 0.28782900 0.16435600
vt 0.70281500 0.21109200
vt 0.26706500 0.01501600
vt 0.30241900 0.15505300
vt 0.30741600 0.16635100
vt 0.28208400 0.04679600
vt 0.72401600 0.21355100
vt 0.28208400 0.17586700
vt 0.70248500 0.19946400
vt 0.29566500 0.17672000
vt 0.71876300 0.20495300
vt 0.71836000 0.19680100
vt 0.74538600 0.20517700
vt 0.75125900 0.21044900
vt 0.42366800 0.66686100
vt 0.75705400 0.20210900
vt 0.73833300 0.21451000
vt 0.43858000 0.67092100
vt 0.28122300 0.06164100
vt 0.12922600 0.97180600
vt 0.74770500 0.19275700
vt 0.42557100 0.64883300
vt 0.42530100 0.65561200
vt 0.76116700 0.19929000
vt 0.41220400 0.65575200
vt 0.76116700 0.19929000
vt 0.43745400 0.64477300
vt 0.73669700 0.18882000
vt 0.44136500 0.65615800
vt 0.46135100 0.65520800
vt 0.36687600 0.02525500
vt 0.37450300 0.03772600
vt 0.45336400 0.64337800
vt 0.45921600 0.66697700
vt 0.36479100 0.01385800
vt 0.25972000 0.03761600
vt 0.46179000 0.67958200
vt 0.35157000 0.00138000
vt 0.34639400 0.01210800
vt 0.34742700 0.02284700
vt 0.12922600 0.98686100
vt 0.27035800 0.04789700
vt 0.45192400 0.67806800
vt 0.31557600 0.15457600
vt 0.25624100 0.00702100
vt 0.12832800 0.97969900
vt 0.27599100 0.05471000
vt 0.32922700 0.15480300
vt 0.24386100 0.00130100
vt 0.32952700 0.16752600
vt 0.31699100 0.17861200
vt 0.35002500 0.16857000
vt 0.33937700 0.17942100
vt 0.35170200 0.19177200
vt 0.35960000 0.18034700
vt 0.32960400 0.19065600
vt 0.30572900 0.18970500
vt 0.32715500 0.20176800
vt 0.34428600 0.20301600
vt 0.35898200 0.20378600
vt 0.34666000 0.21475700
vt 0.32641500 0.21296400
vt 0.30437600 0.21198200
vt 0.32561000 0.22377000
vt 0.30606200 0.22221600
vt 0.30493200 0.20088700
vt 0.28930000 0.19955500
vt 0.69464900 0.17625600
vt 0.28655400 0.18900400
vt 0.69606800 0.18669400
vt 0.70309500 0.16332200
vt 0.28419700 0.21200100
vt 0.70348100 0.15425700
vt 0.08483600 0.34312800
vt 0.29050900 0.22117700
vt 0.71996000 0.16471700
vt 0.72073800 0.15712700
vt 0.10511400 0.34912000
vt 0.08002500 0.33528700
vt 0.29925500 0.22652200
vt 0.43882800 0.61097400
vt 0.73764400 0.15425700
vt 0.12251200 0.34757500
vt 0.43531400 0.62136500
vt 0.73923000 0.16508500
vt 0.37106100 0.06013200
vt 0.44990400 0.62132000
vt 0.44378600 0.63165400
vt 0.73120800 0.17559700
vt 0.46179000 0.63188600
vt 0.36550100 0.04841700
vt 0.35682400 0.03540600
vt 0.34562300 0.04107400
vt 0.35525200 0.05899400
vt 0.33579200 0.05754300
vt 0.34304000 0.06865000
vt 0.98370700 0.87019500
vt 0.45528800 0.61093500
vt 0.35922900 0.07014500
vt 0.10192600 0.32446200
vt 0.34479200 0.07741100
vt 0.97023900 0.87575700
vt 0.44830000 0.60638000
vt 0.98790700 0.87575700
vt 0.11266200 0.33849700
vt 0.32851700 0.07780700
vt 0.09655000 0.30873400
vt 0.07293700 0.32465200
vt 0.31166000 0.22899400
vt 0.07909800 0.30023500
vt 0.06773600 0.31208100
vt 0.32519500 0.23047500
vt 0.07340800 0.27574700
vt 0.07340800 0.27574700
vt 0.34738900 0.23152700
vt 0.06814200 0.28784300
vt 0.06814200 0.28784300
vt 0.54503800 0.19957000
vt 0.10244600 0.27635500
vt 0.29711900 0.07730700
vt 0.33658000 0.23152700
vt 0.06670100 0.30012900
vt 0.06670100 0.30012900
vt 0.31480600 0.07780700
vt 0.09616700 0.29496500
vt 0.32393000 0.06849000
vt 0.30438200 0.06776000
vt 0.30374200 0.05781700
vt 0.28901800 0.06502700
vt 0.55679900 0.20063100
vt 0.56144600 0.19082900
vt 0.57491300 0.19976800
vt 0.28385600 0.04647200
vt 0.54557400 0.18396200
vt 0.11355300 0.26172600
vt 0.30237600 0.04643000
vt 0.32516700 0.04582700
vt 0.30071200 0.03427000
vt 0.32324400 0.03407200
vt 0.31873300 0.05710300
vt 0.32513400 0.02303500
vt 0.30276200 0.02225800
vt 0.31467400 0.01138400
vt 0.28421200 0.02414000
vt 0.59699000 0.19582300
vt 0.29539100 0.01226700
vt 0.61001500 0.20063100
vt 0.20327200 0.03552800
vt 0.62059400 0.18926200
vt 0.29532900 0.00087900
vt 0.60663300 0.18140200
vt 0.21488600 0.02947300
vt 0.30605800 0.00038100
vt 0.22744800 0.02746400
vt 0.31825200 0.00000000
vt 0.22948600 -0.00000000
vt 0.34298300 0.15501200
vt 0.35569200 0.15611000
vt 0.21493000 0.00163600
vt 0.24319100 0.02899200
vt 0.33406000 0.00030400
vt 0.33019200 0.01204500
vt 0.36594600 0.16881900
vt 0.37316700 0.28997600
vt 0.20293100 0.00739100
vt 0.36597400 0.30262900
vt 0.36444300 0.15695900
vt 0.19223600 0.04469500
vt 0.61751900 0.17730200
vt 0.35887200 0.30292100
vt 0.19390800 0.01412800
vt 0.35854600 0.29167700
vt 0.35334100 0.29971900
vt 0.18706500 0.01895200
vt 0.34454600 0.28288700
vt 0.36024500 0.27589900
vt 0.34654800 0.29393600
vt 0.37159800 0.18081100
vt 0.37116000 0.27866400
vt 0.37348400 0.26601600
vt 0.36896700 0.19290600
vt 0.37367200 0.20371500
vt 0.36454900 0.25665500
vt 0.36111300 0.24560900
vt 0.36945300 0.21477900
vt 0.35154300 0.25452900
vt 0.08739700 0.25627900
vt 0.33932100 0.23868000
vt 0.33846600 0.24619700
vt 0.35006700 0.26924200
vt 0.07891700 0.26708400
vt 0.34722900 0.23152700
vt 0.07891700 0.26708400
vt 0.34339400 0.23408700
vt 0.08292000 0.26234200
vt 0.06644500 0.27686800
vt 0.36053600 0.23439600
vt 0.35863300 0.22510200
vt 0.36000000 0.21475100
vt 0.34424300 0.22446200
vt 0.06056900 0.29492100
vt 0.12251200 0.25442400
vt 0.30434800 0.24244000
vt 0.54729700 0.17263300
vt 0.32234800 0.24834000
vt 0.55754900 0.16848800
vt 0.30543600 0.25363700
vt 0.30080700 0.24776300
vt 0.55093000 0.16680700
vt 0.31098200 0.26430200
vt 0.56903300 0.16962800
vt 0.57143600 0.18367500
vt 0.58119700 0.17583200
vt 0.58573500 0.19695500
vt 0.28208400 0.03532000
vt 0.59296800 0.17394100
vt 0.58997800 0.14957800
vt 0.57983400 0.15971300
vt 0.30536300 0.27766700
vt 0.17840900 0.06164100
vt 0.31041000 0.30292100
vt 0.60616100 0.15852700
vt 0.18372900 0.05530000
vt 0.61198100 0.16529900
vt 0.29859800 0.29484000
vt 0.17734500 0.04704800
vt 0.32468200 0.29987600
vt 0.59948800 0.14409500
vt 0.29476400 0.30100800
vt 0.28678300 0.29278600
vt 0.28254200 0.29999400
vt 0.59514600 0.13364800
vt 0.58588900 0.13516200
vt 0.28208400 0.29080200
vt 0.29427500 0.28273300
vt 0.58141000 0.14797000
vt 0.32540500 0.28274800
vt 0.32710500 0.29089200
vt 0.41363100 0.66550900
vt 0.76092800 0.20886900
f 1/1/1 7/7/7 4/4/4
f 5/5/5 6/6/6 2/2/2
f 11/11/11 2/2/2 6/6/6
f 12/12/12 8/8/8 3/3/3
f 10/10/10 12/12/12 3/3/3
f 9/9/9 2/2/2 11/11/11
f 12/12/12 14/14/14 8/8/8
f 14/14/14 12/12/12 13/13/13
f 12/12/12 10/10/10 13/13/13
f 14/14/14 15/15/15 18/18/18
f 14/14/14 17/17/17 15/15/15
f 22/22/22 17/17/17 14/14/14
f 14/14/14 18/18/18 8/8/8
f 14/14/14 13/13/13 22/22/22
f 22/22/22 13/13/13 29/29/29
f 17/17/17 22/22/22 25/25/25
f 26/26/26 23/23/23 24/24/24
f 30/30/30 24/24/24 23/23/23
f 23/23/23 28/28/28 30/30/30
f 30/30/30 19/19/19 16/16/16
f 35/35/35 19/19/19 30/30/30
f 30/30/30 16/16/16 24/24/24
f 31/31/31 30/30/30 34/34/34
f 35/35/35 30/30/30 31/31/31
f 28/28/28 34/34/34 30/30/30
f 36/36/36 32/32/32 41/41/41
f 19/19/19 35/35/35 44/44/44
f 35/35/35 38/38/38 44/44/44
f 40/40/40 39/39/39 36/36/36
f 36/36/36 41/41/41 40/40/40
f 46/46/46 43/43/43 37/37/37
f 4/4/4 43/43/43 46/46/46
f 43/43/43 4/4/4 48/48/48
f 42/42/42 47/47/47 21/21/21
f 7/7/7 48/48/48 4/4/4
f 7/7/7 20/20/20 48/48/48
f 51/51/51 6/6/6 45/45/45
f 6/6/6 5/5/5 45/45/45
f 46/46/46 37/37/37 50/50/50
f 51/51/51 45/45/45 49/49/49
f 52/52/52 6/6/6 51/51/51
f 53/53/53 51/51/51 49/49/49
f 54/54/54 52/52/52 51/51/51
f 54/54/54 51/51/51 53/53/53
f 56/56/56 54/54/54 53/53/53
f 54/54/54 55/55/55 57/57/57
f 56/56/56 55/55/55 54/54/54
f 54/54/54 57/57/57 52/52/52
f 52/52/52 57/57/57 58/58/58
f 59/59/59 58/58/58 57/57/57
f 60/60/60 57/57/57 55/55/55
f 60/60/60 59/59/59 57/57/57
f 61/61/61 60/60/60 55/55/55
f 62/62/62 60/60/60 61/61/61
f 60/60/60 63/63/63 59/59/59
f 60/60/60 62/62/62 63/63/63
f 63/63/63 64/64/64 67/67/67
f 66/66/66 64/64/64 63/63/63
f 66/66/66 63/63/63 65/65/65
f 62/62/62 65/65/65 63/63/63
f 63/63/63 67/67/67 59/59/59
f 68/68/68 58/58/58 67/67/67
f 64/64/64 68/68/68 67/67/67
f 59/59/59 67/67/67 58/58/58
f 68/68/68 70/70/70 58/58/58
f 71/71/71 69/69/69 72/72/72
f 64/64/64 73/73/73 68/68/68
f 13/13/13 72/72/72 77/77/77
f 13/13/13 71/71/71 72/72/72
f 72/72/72 74/74/74 78/78/78
f 64/64/64 76/76/76 73/73/73
f 78/78/78 77/77/77 72/72/72
f 75/75/75 80/80/80 79/79/79
f 79/79/79 80/80/80 84/84/84
f 83/83/83 86/86/86 78/78/78
f 78/78/78 86/86/86 77/77/77
f 89/89/89 85/85/85 88/88/88
f 88/88/88 85/85/85 82/82/82
f 77/77/77 86/86/86 90/90/90
f 34/34/34 28/28/28 89/89/89
f 13/13/13 90/90/90 29/29/29
f 88/88/88 91/91/91 89/89/89
f 34/34/34 89/89/89 91/91/91
f 77/77/77 90/90/90 13/13/13
f 93/93/93 92/92/92 94/94/94
f 33/33/33 92/92/92 93/93/93
f 92/92/92 95/95/95 94/94/94
f 92/92/92 87/87/87 95/95/95
f 94/94/94 95/95/95 96/96/96
f 96/96/96 95/95/95 97/97/97
f 95/95/95 100/100/100 97/97/97
f 95/95/95 87/87/87 100/100/100
f 88/88/88 82/82/82 99/99/99
f 99/99/99 82/82/82 104/104/104
f 97/97/97 100/100/100 102/102/102
f 103/103/103 98/98/98 105/105/105
f 101/101/101 106/106/106 80/80/80
f 84/84/84 80/80/80 106/106/106
f 97/97/97 102/102/102 107/107/107
f 111/111/111 108/108/108 101/101/101
f 80/80/80 109/109/109 101/101/101
f 109/109/109 111/111/111 101/101/101
f 109/109/109 112/112/112 111/111/111
f 123/123/123 111/111/111 112/112/112
f 111/111/111 114/114/114 120/120/120
f 117/117/117 114/114/114 111/111/111
f 111/111/111 123/123/123 117/117/117
f 111/111/111 120/120/120 126/126/126
f 126/126/126 108/108/108 111/111/111
f 125/125/125 128/128/128 127/127/127
f 127/127/127 107/107/107 125/125/125
f 125/125/125 121/121/121 128/128/128
f 129/129/129 127/127/127 128/128/128
f 130/130/130 129/129/129 128/128/128
f 130/130/130 128/128/128 121/121/121
f 133/133/133 131/131/131 132/132/132
f 135/135/135 132/132/132 131/131/131
f 137/137/137 129/129/129 130/130/130
f 137/137/137 130/130/130 134/134/134
f 131/131/131 119/119/119 135/135/135
f 137/137/137 138/138/138 141/141/141
f 140/140/140 138/138/138 137/137/137
f 139/139/139 137/137/137 134/134/134
f 140/140/140 137/137/137 139/139/139
f 137/137/137 141/141/141 129/129/129
f 141/141/141 96/96/96 127/127/127
f 129/129/129 141/141/141 127/127/127
f 138/138/138 96/96/96 141/141/141
f 94/94/94 138/138/138 140/140/140
f 142/142/142 94/94/94 140/140/140
f 143/143/143 140/140/140 139/139/139
f 143/143/143 142/142/142 140/140/140
f 145/145/145 143/143/143 139/139/139
f 144/144/144 142/142/142 143/143/143
f 147/147/147 144/144/144 143/143/143
f 147/147/147 143/143/143 145/145/145
f 154/154/154 147/147/147 151/151/151
f 152/152/152 150/150/150 148/148/148
f 152/152/152 148/148/148 146/146/146
f 154/154/154 144/144/144 147/147/147
f 155/155/155 153/153/153 157/157/157
f 156/156/156 144/144/144 154/154/154
f 153/153/153 149/149/149 157/157/157
f 53/53/53 158/158/158 159/159/159
f 53/53/53 49/49/49 158/158/158
f 157/157/157 37/37/37 161/161/161
f 50/50/50 37/37/37 157/157/157
f 149/149/149 160/160/160 157/157/157
f 157/157/157 161/161/161 155/155/155
f 162/162/162 40/40/40 163/163/163
f 39/39/39 40/40/40 162/162/162
f 162/162/162 163/163/163 144/144/144
f 162/162/162 144/144/144 156/156/156
f 163/163/163 40/40/40 41/41/41
f 163/163/163 142/142/142 144/144/144
f 163/163/163 41/41/41 142/142/142
f 164/164/164 53/53/53 159/159/159
f 164/164/164 159/159/159 168/168/168
f 149/149/149 166/166/166 160/160/160
f 166/166/166 149/149/149 169/169/169
f 166/166/166 169/169/169 172/172/172
f 167/167/167 171/171/171 173/173/173
f 167/167/167 173/173/173 165/165/165
f 174/174/174 173/173/173 171/171/171
f 174/174/174 178/178/178 173/173/173
f 180/180/180 165/165/165 173/173/173
f 176/176/176 177/177/177 173/173/173
f 178/178/178 176/176/176 173/173/173
f 180/180/180 173/173/173 177/177/177
f 179/179/179 56/56/56 164/164/164
f 179/179/179 182/182/182 56/56/56
f 177/177/177 181/181/181 180/180/180
f 184/184/184 181/181/181 177/177/177
f 183/183/183 61/61/61 182/182/182
f 61/61/61 55/55/55 182/182/182
f 56/56/56 182/182/182 55/55/55
f 186/186/186 61/61/61 183/183/183
f 184/184/184 187/187/187 185/185/185
f 187/187/187 184/184/184 177/177/177
f 189/189/189 187/187/187 190/190/190
f 193/193/193 187/187/187 189/189/189
f 193/193/193 185/185/185 187/187/187
f 190/190/190 187/187/187 191/191/191
f 187/187/187 177/177/177 191/191/191
f 192/192/192 115/115/115 197/197/197
f 120/120/120 114/114/114 194/194/194
f 193/193/193 198/198/198 185/185/185
f 194/194/194 196/196/196 136/136/136
f 195/195/195 193/193/193 189/189/189
f 120/120/120 194/194/194 136/136/136
f 200/200/200 199/199/199 201/201/201
f 199/199/199 200/200/200 186/186/186
f 116/116/116 201/201/201 199/199/199
f 115/115/115 118/118/118 197/197/197
f 62/62/62 201/201/201 65/65/65
f 200/200/200 201/201/201 62/62/62
f 118/118/118 124/124/124 202/202/202
f 113/113/113 65/65/65 201/201/201
f 113/113/113 201/201/201 122/122/122
f 200/200/200 62/62/62 61/61/61
f 186/186/186 200/200/200 61/61/61
f 196/196/196 203/203/203 136/136/136
f 196/196/196 188/188/188 203/203/203
f 189/189/189 206/206/206 204/204/204
f 206/206/206 209/209/209 204/204/204
f 135/135/135 205/205/205 207/207/207
f 205/205/205 210/210/210 207/207/207
f 206/206/206 208/208/208 209/209/209
f 211/211/211 208/208/208 206/206/206
f 207/207/207 212/212/212 213/213/213
f 207/207/207 213/213/213 132/132/132
f 135/135/135 207/207/207 132/132/132
f 212/212/212 214/214/214 213/213/213
f 213/213/213 133/133/133 132/132/132
f 215/215/215 213/213/213 214/214/214
f 215/215/215 133/133/133 213/213/213
f 217/217/217 215/215/215 214/214/214
f 145/145/145 139/139/139 216/216/216
f 139/139/139 134/134/134 216/216/216
f 217/217/217 146/146/146 215/215/215
f 219/219/219 218/218/218 217/217/217
f 223/223/223 217/217/217 218/218/218
f 152/152/152 146/146/146 217/217/217
f 217/217/217 214/214/214 219/219/219
f 217/217/217 223/223/223 152/152/152
f 218/218/218 229/229/229 223/223/223
f 152/152/152 223/223/223 225/225/225
f 224/224/224 221/221/221 227/227/227
f 226/226/226 222/222/222 230/230/230
f 226/226/226 228/228/228 222/222/222
f 226/226/226 230/230/230 231/231/231
f 231/231/231 230/230/230 232/232/232
f 218/218/218 234/234/234 229/229/229
f 234/234/234 233/233/233 229/229/229
f 231/231/231 235/235/235 236/236/236
f 231/231/231 232/232/232 235/235/235
f 234/234/234 218/218/218 237/237/237
f 236/236/236 226/226/226 231/231/231
f 226/226/226 236/236/236 238/238/238
f 238/238/238 236/236/236 220/220/220
f 219/219/219 237/237/237 218/218/218
f 191/191/191 176/176/176 238/238/238
f 239/239/239 238/238/238 176/176/176
f 191/191/191 238/238/238 190/190/190
f 238/238/238 239/239/239 226/226/226
f 206/206/206 190/190/190 238/238/238
f 211/211/211 206/206/206 238/238/238
f 220/220/220 211/211/211 238/238/238
f 239/239/239 228/228/228 226/226/226
f 239/239/239 176/176/176 178/178/178
f 239/239/239 178/178/178 228/228/228
f 178/178/178 174/174/174 228/228/228
f 172/172/172 227/227/227 175/175/175
f 172/172/172 224/224/224 227/227/227
f 172/172/172 169/169/169 224/224/224
f 225/225/225 170/170/170 152/152/152
f 214/214/214 212/212/212 219/219/219
f 206/206/206 189/189/189 190/190/190
f 191/191/191 177/177/177 176/176/176
f 152/152/152 170/170/170 150/150/150
f 56/56/56 53/53/53 164/164/164
f 142/142/142 41/41/41 94/94/94
f 138/138/138 94/94/94 96/96/96
f 127/127/127 97/97/97 107/107/107
f 96/96/96 97/97/97 127/127/127
f 113/113/113 110/110/110 65/65/65
f 66/66/66 110/110/110 81/81/81
f 110/110/110 66/66/66 65/65/65
f 41/41/41 93/93/93 94/94/94
f 41/41/41 32/32/32 93/93/93
f 32/32/32 33/33/33 93/93/93
f 81/81/81 76/76/76 66/66/66
f 64/64/64 66/66/66 76/76/76
f 70/70/70 9/9/9 11/11/11
f 71/71/71 13/13/13 10/10/10
f 70/70/70 11/11/11 58/58/58
f 52/52/52 58/58/58 11/11/11
f 6/6/6 52/52/52 11/11/11
f 26/26/26 24/24/24 240/240/240
f 17/17/17 27/27/27 241/241/241
f 17/17/17 241/241/241 15/15/15
f 16/16/16 240/240/240 24/24/24

