# Blender 4.1.1
# www.blender.org
mtllib link_body_22.mtl
o link_body_22
v -5.087854 -2.209693 -0.546662
v -5.027401 -2.082423 1.082433
v -5.534973 -0.643341 -0.000001
v -5.437603 -0.493009 -1.135703
v -4.434752 -3.316602 0.070986
v -4.916349 -1.441741 -2.173833
v -4.523571 -3.044120 1.005790
v -4.461287 -2.931621 -1.619624
v -4.083468 -3.522603 -1.187342
v -3.335026 -3.160382 -3.121994
v -3.691834 -3.431340 -2.267855
v -4.400938 -1.419757 -3.095835
v -3.781467 -1.075055 -3.932188
v -4.609253 0.372490 -3.095834
v -2.839054 -2.731194 -3.921953
v 1.049671 -2.221882 -4.663671
v -2.134121 -2.239699 -4.605570
v -2.746367 -1.467973 -4.602108
v -1.869555 -1.074122 -5.139754
v -3.094839 0.026539 -4.631095
v -3.919815 0.434810 -3.917511
v -2.021811 0.623998 -5.148954
v -3.089601 1.700386 -4.332286
v -4.085264 2.183628 -3.096432
v -2.808670 2.799889 -3.878676
v -1.975151 2.173695 -4.700711
v -1.219315 1.746613 -5.128444
v 1.205873 1.109349 -5.319908
v -0.911497 0.596835 -5.441600
v 1.747250 1.308393 -5.264989
v 1.760239 1.065833 -5.314955
v 1.557632 1.183853 -5.244394
v 1.252474 0.462636 -5.257094
v 0.757196 1.718686 -4.729832
v 0.346571 0.847999 -4.733893
v 0.958855 2.273056 -4.568362
v -0.112434 1.927466 -4.055047
v 0.221321 2.803283 -3.763984
v -0.616842 3.309533 -2.196887
v -3.660661 3.419743 -2.332710
v -0.755827 2.201940 -3.222569
v -1.550299 0.217051 -2.850233
v -1.612800 1.488330 -2.248726
v -0.604630 0.436383 -4.031572
v 0.275511 -0.665625 -4.731946
v -0.465780 -1.078945 -4.046302
v -1.087462 -1.424886 -3.206940
v 0.380739 -2.633580 -4.023771
v 0.757196 -1.718685 -4.729832
v -0.176272 -3.033911 -3.179939
v -0.608828 -3.306338 -2.219561
v -1.604712 -1.446943 -2.281627
v -0.915354 -3.404116 -1.253404
v -1.926447 -1.549929 -1.239773
v -2.126120 0.596718 -1.153020
v -1.984928 -1.752902 -0.058737
v -2.244774 0.450463 -0.100000
v -1.901771 1.631270 1.039773
v -1.811880 2.178534 -0.610925
v -2.129635 -0.532126 0.997727
v -1.504639 -0.901628 2.575766
v -1.716152 -2.089931 0.986312
v -1.782846 0.551396 2.081626
v -1.244473 -2.320429 2.070457
v -0.894098 -1.845133 3.023293
v -1.242443 -3.151217 0.248968
v -2.007954 -1.445264 4.189289
v -1.958069 -0.588424 5.166996
v -3.344450 -1.464528 4.182688
v -4.408367 -2.234833 2.602743
v 1.608465 -0.102255 5.195673
v -0.267599 -1.357919 3.916093
v 0.440083 -0.725617 4.632467
v 1.273876 0.287703 5.072571
v 0.372481 0.820675 4.548913
v -0.581779 -0.451535 3.861282
v -1.289835 0.440688 3.011006
v -0.310837 1.376195 3.891351
v -1.993801 1.445117 4.188837
v -1.105101 2.052758 2.623065
v -1.243137 3.156977 0.231346
v -4.523571 3.044120 1.005788
v -0.895332 3.407861 -1.271868
v -2.698745 3.441911 -0.349317
v -4.132709 3.516294 -1.131959
v -4.440139 3.315214 0.067526
v -5.349373 1.580280 0.046187
v -5.215450 1.643643 -1.049263
v -4.537287 2.462353 -2.102450
v -5.119102 0.493776 -2.141053
v -5.205080 1.665880 1.131840
v -5.439400 -0.530216 1.093806
v -5.093843 0.549414 2.173832
v -4.823103 -0.947548 2.629742
v -3.879515 -0.382100 3.964695
v -4.609253 0.372490 3.095833
v -4.403757 2.217855 2.633602
v -3.604522 1.565592 3.940983
v -3.057388 0.000198 4.654076
v -2.942348 1.177820 4.544443
v -1.991928 0.616657 5.142221
v -1.131863 0.087234 5.425132
v 0.668280 0.000000 5.348839
v -2.661135 -3.439839 -0.349252
v 1.724033 -1.352502 -5.256741
v -1.175719 -1.767487 -5.125014
v 1.220116 -0.419561 -5.250049
v 1.771419 -0.098759 -5.423923
v -0.916273 -0.506616 -5.461315
v -3.354742 3.138936 -3.092548
vn -0.9949 -0.1012 0.0032
vn -0.9157 -0.3916 -0.0900
vn -0.9115 -0.3583 0.2019
vn -0.8684 -0.4728 0.1497
vn -0.9761 -0.0749 -0.2039
vn -0.8850 -0.2578 -0.3878
vn -0.8520 -0.5232 -0.0202
vn -0.7974 -0.5207 -0.3050
vn -0.7555 -0.6255 -0.1949
vn -0.7173 -0.5507 -0.4269
vn -0.7840 -0.2709 -0.5585
vn -0.7080 -0.4368 -0.5549
vn -0.6116 -0.3821 -0.6928
vn -0.6811 -0.2056 -0.7028
vn -0.8296 0.0668 -0.5543
vn 0.0357 -0.9385 -0.3436
vn 0.0212 -0.8726 -0.4880
vn -0.0057 -0.8132 -0.5820
vn -0.0067 -0.7936 -0.6084
vn -0.5129 -0.2629 -0.8172
vn -0.4208 -0.3518 -0.8362
vn -0.3419 -0.1793 -0.9225
vn -0.5506 0.0007 -0.8348
vn -0.7111 0.0863 -0.6977
vn -0.5548 0.2990 -0.7764
vn -0.3679 0.1174 -0.9224
vn -0.7385 0.3738 -0.5611
vn -0.5601 0.4461 -0.6980
vn -0.4071 0.2823 -0.8687
vn -0.2282 0.2488 -0.9413
vn 0.0164 0.2241 -0.9744
vn 0.0760 0.1017 -0.9919
vn -0.1079 0.1227 -0.9866
vn 0.0861 0.7769 -0.6237
vn 0.0247 0.2030 -0.9789
vn 0.0825 -0.2981 0.9510
vn 0.1297 -0.3352 0.9332
vn 0.1890 -0.1267 0.9738
vn 0.1388 -0.0478 0.9892
vn 0.2250 -0.0781 -0.9712
vn 0.1112 0.1673 -0.9796
vn 0.4977 -0.2996 0.8140
vn 0.4379 -0.0800 0.8955
vn 0.4327 -0.1986 0.8794
vn 0.1229 0.7774 -0.6169
vn -0.0526 -0.5774 0.8147
vn 0.5396 -0.1416 0.8299
vn 0.6157 -0.3354 0.7130
vn 0.5862 -0.4808 0.6521
vn 0.5228 -0.4082 0.7484
vn 0.0344 0.2679 -0.9628
vn 0.7422 -0.3954 0.5411
vn 0.7865 -0.4891 0.3771
vn 0.0442 0.9864 -0.1586
vn 0.0447 0.9768 -0.2095
vn 0.0248 0.8851 -0.4647
vn 0.0139 0.8298 -0.5579
vn 0.0168 0.9009 -0.4336
vn 0.7157 -0.0808 0.6937
vn 0.8724 -0.0315 0.4878
vn 0.8780 -0.2900 0.3809
vn 0.5513 0.1223 0.8253
vn 0.6785 0.2083 0.7044
vn 0.6197 0.3606 0.6970
vn 0.7821 0.2762 0.5586
vn 0.5379 0.2854 0.7932
vn 0.4987 0.3916 0.7733
vn 0.7234 0.4189 0.5489
vn 0.0307 -0.9322 -0.3605
vn -0.0058 -0.8529 -0.5221
vn 0.0380 -0.9801 -0.1948
vn 0.8062 0.4483 0.3861
vn 0.0490 -0.9893 -0.1375
vn 0.0562 -0.9984 0.0080
vn 0.8849 0.2705 0.3792
vn 0.9382 0.2773 0.2072
vn 0.8549 0.4677 0.2244
vn 0.9494 0.3140 0.0067
vn 0.9757 -0.0804 0.2039
vn 0.9979 -0.0650 -0.0080
vn 0.9119 -0.3970 0.1035
vn 0.9756 0.0978 -0.1968
vn 0.9266 -0.3109 -0.2113
vn 0.9224 -0.1050 -0.3716
vn 0.8693 0.1710 -0.4637
vn 0.8750 0.3402 -0.3444
vn 0.8979 0.3791 -0.2239
vn 0.0614 -0.8377 0.5427
vn 0.1081 -0.9045 0.4125
vn 0.1081 -0.9041 0.4133
vn 0.7911 0.2565 -0.5553
vn 0.8708 0.4915 -0.0134
vn 0.0856 -0.9474 0.3082
vn 0.0101 -0.8690 0.4947
vn -0.1875 -0.4146 0.8905
vn 0.0931 -0.6978 0.7102
vn 0.0310 -0.9279 0.3714
vn -0.0032 -0.8933 0.4494
vn 0.1192 -0.7821 0.6117
vn 0.1246 -0.8421 0.5247
vn 0.5597 0.0348 -0.8279
vn 0.5902 -0.0487 -0.8058
vn 0.4468 0.0208 -0.8944
vn 0.4067 0.0612 -0.9115
vn 0.7043 0.0652 -0.7069
vn 0.6920 0.1979 -0.6942
vn 0.8150 -0.0897 -0.5725
vn 0.7128 -0.1398 -0.6873
vn 0.1195 0.7954 0.5942
vn 0.1244 0.8534 0.5061
vn 0.0611 0.8412 0.5373
vn 0.1075 0.9048 0.4121
vn 0.8395 -0.3052 -0.4494
vn 0.0853 0.9475 0.3082
vn 0.8586 -0.5081 -0.0675
vn 0.0384 0.9849 0.1688
vn 0.0303 0.9282 0.3709
vn 0.8357 -0.4943 0.2395
vn 0.0535 0.9986 0.0043
vn 0.0293 0.9987 0.0412
vn -0.0147 0.9721 0.2340
vn -0.8778 0.4767 -0.0482
vn -0.9350 0.2995 -0.1902
vn -0.9620 0.2731 0.0008
vn -0.8777 0.4564 0.1462
vn -0.8234 0.5261 -0.2125
vn -0.8235 0.4379 -0.3607
vn -0.9195 0.0957 -0.3812
vn -0.7161 0.5588 -0.4182
vn -0.9749 -0.0900 0.2036
vn -0.9335 0.2926 0.2070
vn -0.8654 -0.1880 0.4644
vn -0.9213 0.1054 0.3743
vn -0.8435 -0.3052 0.4420
vn -0.7085 -0.0716 0.7021
vn -0.8158 0.0806 0.5726
vn -0.6504 -0.2028 0.7320
vn -0.8455 0.2979 0.4431
vn -0.7125 0.1600 0.6832
vn -0.5518 -0.0036 0.8340
vn -0.5707 0.1312 0.8106
vn -0.0057 0.8920 0.4521
vn -0.0070 0.8808 0.4734
vn -0.0023 0.8023 0.5969
vn 0.0698 0.7228 0.6875
vn -0.4010 0.0457 0.9149
vn 0.1497 0.5532 0.8195
vn -0.0916 -0.2557 0.9624
vn 0.0619 0.5467 0.8350
vn 0.0977 0.5695 0.8161
vn 0.0665 -0.5535 0.8302
vn 0.1908 0.4406 0.8772
vn 0.0403 -0.9846 0.1703
vn 0.0371 -0.9987 0.0357
vn -0.0119 -0.9720 0.2348
vn 0.3593 0.1875 0.9142
vn 0.3769 0.0846 0.9224
vn 0.1094 -0.8990 -0.4240
vn 0.2006 -0.0122 -0.9796
vn 0.2739 0.0498 0.9605
vn 0.0231 -0.1663 -0.9858
vn -0.1189 -0.0993 -0.9879
vn 0.0485 0.0199 -0.9986
vn -0.1755 -0.2762 -0.9449
vn -0.0083 -0.7322 -0.6810
vn -0.6585 0.5058 -0.5573
vn 0.1992 0.9426 -0.2681
vn 0.0004 0.7957 -0.6057
vt 0.729542 0.840739
vt 0.720604 0.842998
vt 0.723434 0.832512
vt 0.718834 0.832345
vt 0.729365 0.848377
vt 0.723760 0.854521
vt 0.716323 0.838235
vt 0.217289 0.721685
vt 0.212590 0.728749
vt 0.212835 0.717604
vt 0.716593 0.849664
vt 0.210051 0.725880
vt 0.207141 0.732903
vt 0.724125 0.860887
vt 0.716323 0.859943
vt 0.204584 0.738398
vt 0.514853 0.966653
vt 0.519880 0.954177
vt 0.523679 0.956364
vt 0.511332 0.963517
vt 0.734391 0.862577
vt 0.726799 0.867083
vt 0.201167 0.743457
vt 0.175293 0.747015
vt 0.196418 0.747663
vt 0.511641 0.956232
vt 0.515270 0.950786
vt 0.507311 0.951542
vt 0.502901 0.961488
vt 0.502069 0.967472
vt 0.492334 0.964844
vt 0.496885 0.955971
vt 0.746637 0.864737
vt 0.744813 0.872936
vt 0.735560 0.868433
vt 0.752684 0.871256
vt 0.484850 0.965270
vt 0.487032 0.958797
vt 0.488150 0.953186
vt 0.484850 0.933546
vt 0.487209 0.936568
vt 0.494762 0.948922
vt 0.995761 0.397003
vt 0.976281 0.398919
vt 0.970239 0.397003
vt 0.486353 0.932974
vt 0.994601 0.387199
vt 0.996090 0.386742
vt 0.995642 0.388290
vt 0.970239 0.388290
vt 0.486027 0.934489
vt 0.491209 0.934948
vt 0.833335 0.960360
vt 0.837385 0.952377
vt 0.838967 0.957334
vt 0.970239 0.442293
vt 0.988200 0.439895
vt 0.994835 0.442293
vt 0.992436 0.386195
vt 0.831145 0.954351
vt 0.827439 0.961178
vt 0.829110 0.967160
vt 0.834330 0.964142
vt 0.970239 0.744693
vt 0.971710 0.741075
vt 0.989753 0.744693
vt 0.872330 0.569980
vt 0.875225 0.574881
vt 0.865379 0.577235
vt 0.747634 0.334059
vt 0.745047 0.314922
vt 0.754726 0.307554
vt 0.759409 0.301261
vt 0.757116 0.326368
vt 0.822996 0.962560
vt 0.877704 0.558613
vt 0.870530 0.556156
vt 0.866505 0.564378
vt 0.877430 0.568867
vt 0.825083 0.951013
vt 0.831591 0.944292
vt 0.826920 0.941070
vt 0.877816 0.548759
vt 0.833462 0.931294
vt 0.822996 0.938359
vt 0.872699 0.545805
vt 0.835415 0.937615
vt 0.837654 0.934458
vt 0.829999 0.928262
vt 0.183656 0.737736
vt 0.179812 0.743071
vt 0.186748 0.731560
vt 0.357945 0.973434
vt 0.364553 0.971806
vt 0.364350 0.981108
vt 0.189056 0.725270
vt 0.865988 0.533679
vt 0.866923 0.545061
vt 0.860253 0.543938
vt 0.357945 0.983842
vt 0.859809 0.532615
vt 0.852497 0.542364
vt 0.859660 0.557885
vt 0.852786 0.556653
vt 0.855758 0.568492
vt 0.845521 0.550111
vt 0.844941 0.564550
vt 0.838050 0.557379
vt 0.834702 0.547977
vt 0.837972 0.538941
vt 0.845434 0.540216
vt 0.198573 0.689115
vt 0.192593 0.703104
vt 0.190706 0.696572
vt 0.831408 0.542228
vt 0.364553 0.978396
vt 0.369094 0.971806
vt 0.369094 0.983860
vt 0.191769 0.715357
vt 0.207428 0.689594
vt 0.198795 0.682436
vt 0.175293 0.680994
vt 0.213796 0.711375
vt 0.213766 0.700578
vt 0.182685 0.685236
vt 0.186971 0.690347
vt 0.068529 0.972658
vt 0.063284 0.981514
vt 0.060213 0.975207
vt 0.059771 0.971806
vt 0.073207 0.977996
vt 0.074755 0.971806
vt 0.831589 0.556936
vt 0.825564 0.551547
vt 0.825059 0.563815
vt 0.065057 0.987172
vt 0.825059 0.545845
vt 0.698831 0.307711
vt 0.703792 0.312761
vt 0.702763 0.323604
vt 0.712901 0.318369
vt 0.833919 0.567774
vt 0.729271 0.320087
vt 0.849746 0.575301
vt 0.734019 0.329410
vt 0.725871 0.340806
vt 0.859439 0.577493
vt 0.739128 0.317482
vt 0.739997 0.338003
vt 0.732147 0.340266
vt 0.756258 0.844980
vt 0.742904 0.850114
vt 0.743465 0.842806
vt 0.755512 0.838519
vt 0.756847 0.853215
vt 0.748329 0.858245
vt 0.734943 0.856146
vt 0.756060 0.861256
vt 0.731749 0.833760
vt 0.745621 0.835882
vt 0.732605 0.823670
vt 0.740399 0.828004
vt 0.725874 0.822794
vt 0.739979 0.816090
vt 0.741648 0.822092
vt 0.095113 0.928498
vt 0.101676 0.936559
vt 0.093702 0.935601
vt 0.104095 0.928262
vt 0.752747 0.827111
vt 0.752385 0.818388
vt 0.087328 0.932727
vt 0.082098 0.941618
vt 0.093146 0.941567
vt 0.086013 0.944888
vt 0.714683 0.339311
vt 0.705323 0.333752
vt 0.700806 0.329166
vt 0.696094 0.322398
vt 0.091650 0.949583
vt 0.694649 0.301261
vt 0.099280 0.947138
vt 0.096876 0.953795
vt 0.101388 0.964890
vt 0.100908 0.969333
vt 0.104095 0.970565
vt 0.850073 0.533758
vt 0.200907 0.719844
vt 0.841604 0.940652
vt 0.837704 0.946520
vt 0.970239 0.765098
vt 0.989391 0.765098
vt 0.982943 0.768256
vt 0.110658 0.971806
vt 0.110658 0.986935
vt 0.107772 0.974393
vt 0.841162 0.948986
vt 0.501722 0.928262
vt 0.501747 0.946702
vt 0.493683 0.930536
vt 0.510280 0.945738
vt 0.190035 0.750702
vt 0.754257 0.866126
vt 0.752366 0.331035
vt 0.761820 0.319255
s 1
usemtl pleuraldeles_skin
f 3/1/1 1/2/2 2/3/3
f 1/2/2 7/4/4 2/3/3
f 1/2/2 3/1/1 4/5/5
f 4/5/5 6/6/6 1/2/2
f 1/2/2 5/7/7 7/4/4
f 1/8/2 8/9/8 5/10/7
f 8/11/8 1/2/2 6/6/6
f 8/9/8 9/12/9 5/10/7
f 8/9/8 11/13/10 9/12/9
f 12/14/11 10/15/12 8/11/8
f 10/16/12 11/13/10 8/9/8
f 12/14/11 8/11/8 6/6/6
f 12/17/11 15/18/13 10/19/12
f 12/17/11 13/20/14 15/18/13
f 14/21/15 13/22/14 12/14/11
f 6/6/6 14/21/15 12/14/11
f 10/16/16 15/23/17 16/24/18
f 15/23/17 17/25/19 16/24/18
f 18/26/20 17/27/21 15/18/13
f 18/26/20 15/18/13 13/20/14
f 17/27/21 18/26/20 19/28/22
f 20/29/23 19/28/22 18/26/20
f 13/20/14 20/29/23 18/26/20
f 20/29/23 13/20/14 21/30/24
f 23/31/25 20/29/23 21/30/24
f 20/29/23 22/32/26 19/28/22
f 23/31/25 22/32/26 20/29/23
f 24/33/27 23/34/25 21/35/24
f 24/33/27 25/36/28 23/34/25
f 25/37/28 26/38/29 23/31/25
f 27/39/30 23/31/25 26/38/29
f 27/39/30 22/32/26 23/31/25
f 30/40/31 28/41/32 27/39/30
f 28/41/32 29/42/33 27/39/30
f 30/43/34 27/44/34 26/45/34
f 22/32/26 27/39/30 29/42/33
f 31/46/35 28/41/32 30/40/31
f 32/47/36 31/48/37 30/49/38
f 32/47/36 30/49/38 26/50/39
f 28/41/32 32/51/40 33/52/41
f 34/53/42 33/54/43 32/55/44
f 26/56/45 34/57/45 32/58/45
f 28/59/46 31/48/37 32/47/36
f 34/53/42 35/60/47 33/54/43
f 37/61/48 35/60/47 34/53/42
f 38/62/49 34/53/42 36/63/50
f 36/64/51 34/65/51 26/66/51
f 37/61/48 34/53/42 38/62/49
f 41/67/52 38/68/49 39/69/53
f 40/70/54 39/71/55 38/72/56
f 38/72/56 36/73/57 25/74/58
f 25/74/58 40/70/54 38/72/56
f 41/75/52 37/61/48 38/62/49
f 44/76/59 41/67/52 42/77/60
f 41/67/52 43/78/61 42/77/60
f 44/76/59 37/79/48 41/67/52
f 41/67/52 39/69/53 43/78/61
f 37/61/48 44/80/59 35/60/47
f 44/80/59 45/81/62 35/60/47
f 46/82/63 45/81/62 44/80/59
f 46/83/63 44/76/59 42/77/60
f 48/84/64 45/81/62 46/82/63
f 48/84/64 46/82/63 47/85/65
f 46/83/63 42/77/60 47/86/65
f 48/84/64 49/87/66 45/81/62
f 49/87/66 48/84/64 16/88/67
f 48/84/64 47/85/65 50/89/68
f 50/90/69 10/16/16 48/91/70
f 10/16/16 16/24/18 48/91/70
f 10/16/16 50/90/69 51/92/71
f 51/93/72 50/94/68 47/95/65
f 11/13/73 10/16/16 51/92/71
f 53/96/74 11/13/73 51/92/71
f 51/97/72 52/98/75 54/99/76
f 51/93/72 47/95/65 52/100/75
f 51/97/72 54/99/76 53/101/77
f 53/101/77 54/99/76 56/102/78
f 42/77/60 55/103/79 54/99/76
f 54/99/76 55/103/79 57/104/80
f 54/99/76 57/104/80 56/102/78
f 42/77/60 54/99/76 52/98/75
f 55/103/79 59/105/81 57/104/80
f 57/104/80 60/106/82 56/102/78
f 58/107/83 57/104/80 59/105/81
f 57/104/80 58/107/83 60/106/82
f 60/106/82 63/108/84 61/109/85
f 64/110/86 60/106/82 61/109/85
f 58/107/83 63/108/84 60/106/82
f 62/111/87 56/102/78 60/106/82
f 64/110/86 62/111/87 60/106/82
f 67/112/88 64/113/89 65/114/90
f 64/110/86 61/109/85 65/115/91
f 62/116/87 64/117/86 66/118/92
f 66/119/93 64/113/89 67/112/88
f 69/120/94 67/112/88 68/121/95
f 71/122/96 68/121/95 67/112/88
f 7/123/97 66/119/93 67/112/88
f 70/124/98 7/123/97 67/112/88
f 69/120/94 70/124/98 67/112/88
f 71/122/96 67/112/88 73/125/99
f 65/114/90 72/126/100 67/112/88
f 67/112/88 72/126/100 73/125/99
f 73/127/101 75/128/102 74/129/103
f 73/127/101 74/129/103 71/130/104
f 76/131/105 75/128/102 73/127/101
f 76/131/105 73/127/101 72/132/106
f 61/109/85 77/133/107 76/134/105
f 77/133/107 78/135/108 76/134/105
f 76/131/105 78/136/108 75/128/102
f 76/134/105 65/115/91 61/109/85
f 72/137/106 65/115/91 76/134/105
f 75/138/109 78/139/110 79/140/111
f 79/140/111 78/139/110 80/141/112
f 78/135/108 77/133/107 80/142/113
f 63/108/84 80/142/113 77/133/107
f 80/141/112 81/143/114 79/140/111
f 80/142/113 58/107/83 81/144/115
f 58/107/83 80/142/113 63/108/84
f 81/143/114 84/145/116 82/146/117
f 81/143/114 82/146/117 79/140/111
f 59/105/81 83/147/118 81/144/115
f 58/107/83 59/105/81 81/144/115
f 81/143/114 83/148/119 84/145/116
f 84/145/116 83/148/119 40/70/54
f 84/145/116 40/70/54 85/149/120
f 84/145/116 85/149/120 86/150/121
f 86/150/121 82/146/117 84/145/116
f 86/151/122 88/152/123 87/153/124
f 87/153/124 82/154/125 86/151/122
f 86/151/122 85/155/126 88/152/123
f 85/155/126 89/156/127 88/152/123
f 89/156/127 90/157/128 88/152/123
f 87/153/124 88/152/123 4/5/5
f 4/5/5 88/152/123 90/157/128
f 24/33/27 90/157/128 89/156/127
f 6/6/6 90/157/128 14/21/15
f 24/33/27 14/21/15 90/157/128
f 90/157/128 6/6/6 4/5/5
f 40/158/129 24/33/27 89/156/127
f 89/156/127 85/155/126 40/158/129
f 87/153/124 4/5/5 3/1/1
f 92/159/130 87/153/124 3/1/1
f 92/159/130 91/160/131 87/153/124
f 87/153/124 91/160/131 82/154/125
f 92/159/130 94/161/132 93/162/133
f 93/162/133 91/160/131 92/159/130
f 92/159/130 70/163/134 94/161/132
f 92/159/130 2/3/3 70/163/134
f 3/1/1 2/3/3 92/159/130
f 95/164/135 96/165/136 94/161/132
f 94/166/132 69/167/137 95/168/135
f 94/161/132 96/165/136 93/162/133
f 94/166/132 70/169/134 69/167/137
f 93/162/133 96/165/136 97/170/138
f 98/171/139 97/170/138 96/165/136
f 96/172/136 95/168/135 98/173/139
f 98/173/139 99/174/140 100/175/141
f 95/168/135 99/174/140 98/173/139
f 97/176/142 98/177/143 79/140/111
f 98/177/143 100/178/144 79/140/111
f 100/178/144 101/179/145 79/140/111
f 101/180/146 100/175/141 99/174/140
f 101/179/145 74/181/147 79/140/111
f 101/180/146 68/182/95 102/183/148
f 101/180/145 102/183/149 103/184/150
f 68/182/95 101/180/146 99/174/140
f 74/185/147 101/180/145 103/184/150
f 68/182/95 71/186/96 103/184/151
f 74/185/147 103/184/150 71/186/152
f 103/184/151 102/183/148 68/182/95
f 69/167/137 99/174/140 95/168/135
f 99/174/140 69/167/137 68/182/95
f 82/146/117 97/176/142 79/140/111
f 97/170/138 82/154/125 91/160/131
f 97/170/138 91/160/131 93/162/133
f 39/69/53 83/147/118 59/105/81
f 39/71/55 40/70/54 83/148/119
f 79/140/111 74/181/147 75/138/109
f 61/109/85 63/108/84 77/133/107
f 70/163/134 2/3/3 7/4/4
f 56/102/78 62/111/87 66/187/92
f 53/101/77 56/102/78 66/187/92
f 104/188/153 53/96/74 66/119/93
f 104/188/153 66/119/93 7/123/97
f 104/188/153 9/12/154 11/13/73
f 104/188/153 5/10/155 9/12/154
f 104/188/153 11/13/73 53/96/74
f 7/123/97 5/10/155 104/188/153
f 43/78/61 59/105/81 55/103/79
f 39/69/53 59/105/81 43/78/61
f 43/78/61 55/103/79 42/77/60
f 42/77/60 52/98/75 47/86/65
f 49/87/66 105/189/156 107/190/157
f 106/191/158 105/192/158 49/193/158
f 49/87/66 107/190/157 45/81/62
f 16/194/159 106/195/159 49/196/159
f 108/197/160 107/190/157 105/189/156
f 108/197/160 33/54/43 107/190/157
f 35/60/47 45/81/62 107/190/157
f 35/60/47 107/190/157 33/54/43
f 105/198/161 109/199/162 108/200/163
f 29/42/33 108/200/163 109/199/162
f 33/52/41 108/200/163 29/42/33
f 105/198/161 106/201/164 109/199/162
f 22/32/26 29/42/33 109/199/162
f 19/28/22 109/199/162 106/201/164
f 22/32/26 109/199/162 19/28/22
f 17/27/21 19/28/22 106/201/164
f 17/25/19 106/202/165 16/24/18
f 40/158/129 110/203/166 24/33/27
f 110/204/167 40/70/54 25/74/58
f 24/33/27 110/203/166 25/36/28
f 25/74/58 36/73/57 26/205/168
f 29/42/33 28/41/32 33/52/41
f 24/33/27 21/35/24 14/21/15
f 14/21/15 21/35/24 13/22/14
