# Blender 4.1.1
# www.blender.org
mtllib link_leg_1_L_2.mtl
o link_leg_1_L_2
v -0.000004 -3.762866 0.791582
v -0.000004 -2.559534 0.843000
v -0.000004 -1.407512 0.665598
v -0.000004 -0.906612 0.498246
v -0.000004 -0.482184 0.286383
v -0.000004 0.075575 -0.236912
v 0.071929 -4.841772 0.514830
v 0.141099 -4.340688 0.672630
v 0.204846 -3.784109 0.779218
v 0.260721 -3.193422 0.830497
v 0.306576 -2.591326 0.824495
v 0.340650 -2.000961 0.761445
v 0.361633 -1.445013 0.643770
v 0.368717 -0.944847 0.475990
v 0.361633 -0.519686 0.264555
v 0.340650 -0.185866 0.017589
v 0.306576 0.043783 -0.255417
v 0.260721 0.160436 -0.543971
v 0.204846 0.159611 -0.836985
v 0.141099 0.041337 -1.123198
v 0.071930 -0.189838 -1.391610
v 0.141099 -4.863863 0.501971
v 0.276780 -4.384024 0.647408
v 0.401825 -3.847022 0.742599
v 0.511427 -3.273495 0.783890
v 0.601374 -2.685482 0.769692
v 0.668212 -2.105581 0.700551
v 0.709371 -1.556077 0.579125
v 0.723268 -1.058087 0.410079
v 0.709371 -0.630750 0.199910
v 0.668212 -0.290487 -0.043305
v 0.601375 -0.050373 -0.310220
v 0.511427 0.080363 -0.590577
v 0.401825 0.096698 -0.873603
v 0.276781 -0.001998 -1.148421
v 0.141099 -0.211929 -1.404469
v 0.204846 -4.899739 0.481090
v 0.401824 -4.454396 0.606447
v 0.583360 -3.949186 0.683134
v 0.742478 -3.403526 0.708204
v 0.873062 -2.838383 0.680695
v 0.970095 -2.275474 0.601663
v 1.029848 -1.736435 0.474147
v 1.050024 -1.241979 0.303044
v 1.029848 -0.811108 0.094932
v 0.970096 -0.460380 -0.142192
v 0.873062 -0.203273 -0.399217
v 0.742478 -0.049668 -0.666262
v 0.583360 -0.005467 -0.933069
v 0.401825 -0.072371 -1.189381
v 0.204846 -0.247805 -1.425350
v 0.260721 -4.948020 0.452989
v 0.511426 -4.549101 0.551324
v 0.742478 -4.086677 0.603107
v 0.944996 -3.578517 0.606350
v 1.111198 -3.044151 0.560927
v 1.234698 -2.504112 0.468584
v 1.310749 -1.979156 0.332869
v 1.336428 -1.489456 0.158999
v 1.310749 -1.053830 -0.046345
v 1.234698 -0.689018 -0.275272
v 1.111199 -0.409042 -0.518985
v 0.944996 -0.224660 -0.768117
v 0.742478 -0.142958 -1.013095
v 0.511427 -0.167076 -1.244504
v 0.260721 -0.296086 -1.453452
v 0.306576 -5.006849 0.418746
v 0.601374 -4.664500 0.484155
v 0.873062 -4.254210 0.505594
v 1.111198 -3.791746 0.482240
v 1.306632 -3.294882 0.414989
v 1.451852 -2.782710 0.306426
v 1.541278 -2.274913 0.160724
v 1.571474 -1.791007 -0.016519
v 1.541278 -1.349586 -0.218490
v 1.451852 -0.967614 -0.437430
v 1.306632 -0.659772 -0.664924
v 1.111199 -0.437889 -0.892228
v 0.873062 -0.310490 -1.110608
v 0.601375 -0.282474 -1.311673
v 0.306576 -0.354915 -1.487694
v -0.000004 -5.268102 0.311881
v 0.340650 -5.073967 0.379680
v 0.668212 -4.796157 0.407523
v 0.970095 -4.445347 0.394342
v 1.234698 -4.035017 0.340643
v 1.451852 -3.580937 0.248489
v 1.613212 -3.100559 0.121421
v 1.712577 -2.612340 -0.035676
v 1.746129 -2.135043 -0.216767
v 1.712577 -1.687012 -0.414891
v 1.613212 -1.285463 -0.622435
v 1.451852 -0.945829 -0.831423
v 1.234698 -0.681160 -1.033824
v 0.970096 -0.501627 -1.221860
v 0.668212 -0.414132 -1.388304
v 0.340650 -0.422033 -1.526760
v 0.361631 -5.146795 0.337291
v 0.709370 -4.939013 0.324373
v 1.029848 -4.652742 0.273628
v 1.310749 -4.298981 0.187002
v 1.541278 -3.891327 0.067826
v 1.712577 -3.445444 -0.079321
v 1.818062 -2.978468 -0.248783
v 1.853680 -2.508346 -0.434049
v 1.818062 -2.053141 -0.627998
v 1.712577 -1.630349 -0.823177
v 1.541278 -1.256219 -1.012086
v 1.310749 -0.945123 -1.187466
v 1.029848 -0.709022 -1.342575
v 0.709370 -0.556988 -1.471454
v 0.361632 -0.494861 -1.569150
v 0.368717 -5.222533 0.293207
v 0.723267 -5.087578 0.237900
v 1.050023 -4.868425 0.148088
v 1.336428 -4.573495 0.027220
v 1.571473 -4.214121 -0.120058
v 1.746128 -3.804113 -0.288085
v 1.853680 -3.359230 -0.470406
v 1.889995 -2.896567 -0.660014
v 1.853680 -2.433903 -0.849621
v 1.746129 -1.989018 -1.031941
v 1.571474 -1.579012 -1.199969
v 1.336428 -1.219637 -1.347246
v 1.050024 -0.924706 -1.468114
v 0.723268 -0.705553 -1.557927
v 0.368717 -0.570600 -1.613233
v 0.361631 -5.298272 0.249123
v 0.709370 -5.236145 0.151427
v 1.029847 -5.084110 0.022548
v 1.310749 -4.848009 -0.132561
v 1.541278 -4.536914 -0.307941
v 1.712576 -4.162783 -0.496850
v 1.818062 -3.739991 -0.692029
v 1.853680 -3.284787 -0.885978
v 1.818062 -2.814663 -1.071244
v 1.712577 -2.347688 -1.240706
v 1.541278 -1.901806 -1.387852
v 1.310749 -1.494151 -1.507028
v 1.029847 -1.140391 -1.593654
v 0.709370 -0.854119 -1.644400
v 0.361632 -0.646337 -1.657317
v 0.340650 -5.371099 0.206734
v 0.668212 -5.379001 0.068277
v 0.970094 -5.291504 -0.098167
v 1.234698 -5.111973 -0.286202
v 1.451852 -4.847303 -0.488603
v 1.613212 -4.507668 -0.697591
v 1.712576 -4.106121 -0.905136
v 1.746127 -3.658088 -1.103260
v 1.712577 -3.180793 -1.284351
v 1.613212 -2.692573 -1.441447
v 1.451852 -2.212194 -1.568516
v 1.234698 -1.758116 -1.660670
v 0.970095 -1.347785 -1.714369
v 0.668212 -0.996975 -1.727550
v 0.340650 -0.719165 -1.699707
v 0.306576 -5.438216 0.167667
v 0.601374 -5.510659 -0.008354
v 0.873062 -5.482642 -0.209419
v 1.111198 -5.355243 -0.427799
v 1.306631 -5.133359 -0.655103
v 1.451852 -4.825518 -0.882596
v 1.541278 -4.443546 -1.101536
v 1.571473 -4.002125 -1.303507
v 1.541278 -3.518219 -1.480751
v 1.451852 -3.010422 -1.626453
v 1.306632 -2.498251 -1.735015
v 1.111199 -2.001386 -1.802266
v 0.873062 -1.538922 -1.825621
v 0.601375 -1.128632 -1.804182
v 0.306576 -0.786283 -1.738773
v 0.260721 -5.497047 0.133426
v 0.511426 -5.626057 -0.075522
v 0.742477 -5.650175 -0.306932
v 0.944996 -5.568473 -0.551909
v 1.111198 -5.384089 -0.801042
v 1.234698 -5.104114 -1.044755
v 1.310748 -4.739303 -1.273682
v 1.336427 -4.303676 -1.479026
v 1.310748 -3.813976 -1.652896
v 1.234698 -3.289020 -1.788611
v 1.111198 -2.748981 -1.880954
v 0.944996 -2.214615 -1.926377
v 0.742477 -1.706454 -1.923134
v 0.511427 -1.244031 -1.871350
v 0.260721 -0.845112 -1.773015
v 0.204846 -5.545326 0.105324
v 0.401824 -5.720762 -0.130645
v 0.583360 -5.787664 -0.386958
v 0.742478 -5.743464 -0.653764
v 0.873062 -5.589858 -0.920810
v 0.970095 -5.332751 -1.177834
v 1.029847 -4.982023 -1.414959
v 1.050022 -4.551153 -1.623071
v 1.029847 -4.056697 -1.794173
v 0.970095 -3.517658 -1.921690
v 0.873062 -2.954750 -2.000722
v 0.742478 -2.389607 -2.028232
v 0.583360 -1.843946 -2.003160
v 0.401825 -1.338736 -1.926474
v 0.204846 -0.893393 -1.801116
v 0.141099 -5.581203 0.084442
v 0.276780 -5.791135 -0.171606
v 0.401823 -5.889830 -0.446424
v 0.511426 -5.873496 -0.729450
v 0.601374 -5.742760 -1.009806
v 0.668212 -5.502645 -1.276722
v 0.709370 -5.162382 -1.519937
v 0.723267 -4.735044 -1.730105
v 0.709370 -4.237054 -1.899151
v 0.668212 -3.687551 -2.020577
v 0.601374 -3.107650 -2.089718
v 0.511427 -2.519638 -2.103916
v 0.401824 -1.946110 -2.062626
v 0.276780 -1.409108 -1.967434
v 0.141099 -0.929269 -1.821998
v 0.071929 -5.603294 0.071584
v 0.141099 -5.834469 -0.196829
v 0.204846 -5.952741 -0.483042
v 0.260721 -5.953568 -0.776056
v 0.306576 -5.836915 -1.064610
v 0.340650 -5.607266 -1.337616
v 0.361631 -5.273447 -1.584581
v 0.368716 -4.848283 -1.796016
v 0.361631 -4.348118 -1.963796
v 0.340650 -3.792171 -2.081472
v 0.306576 -3.201806 -2.144522
v 0.260721 -2.599711 -2.150522
v 0.204846 -2.009023 -2.099244
v 0.141099 -1.452443 -1.992657
v 0.071930 -0.951360 -1.834857
v -0.000004 -5.610753 0.067242
v -0.000004 -5.849102 -0.205346
v -0.000004 -5.973984 -0.495406
v -0.000004 -5.980605 -0.791793
v -0.000004 -5.868706 -1.083115
v -0.000004 -5.642591 -1.358177
v -0.000004 -5.310948 -1.606410
v -0.000005 -4.886519 -1.818273
v -0.000004 -4.385620 -1.985624
v -0.000004 -3.827497 -2.102033
v -0.000004 -3.233598 -2.163026
v -0.000004 -2.626747 -2.166260
v -0.000004 -2.030266 -2.111608
v -0.000004 -1.467076 -2.001174
v -0.000004 -0.958820 -1.839199
v -0.071937 -5.603294 0.071584
v -0.141108 -5.834469 -0.196830
v -0.204854 -5.952741 -0.483042
v -0.260729 -5.953568 -0.776056
v -0.306585 -5.836915 -1.064610
v -0.340658 -5.607266 -1.337616
v -0.361640 -5.273445 -1.584581
v -0.368725 -4.848283 -1.796016
v -0.361640 -4.348118 -1.963796
v -0.340658 -3.792171 -2.081472
v -0.306584 -3.201806 -2.144522
v -0.260728 -2.599711 -2.150523
v -0.204854 -2.009022 -2.099244
v -0.141108 -1.452443 -1.992657
v -0.071937 -0.951360 -1.834857
v -0.141107 -5.581203 0.084442
v -0.276788 -5.791135 -0.171606
v -0.401832 -5.889830 -0.446423
v -0.511435 -5.873495 -0.729449
v -0.601382 -5.742758 -1.009806
v -0.668220 -5.502645 -1.276721
v -0.709379 -5.162382 -1.519936
v -0.723275 -4.735043 -1.730105
v -0.709379 -4.237054 -1.899151
v -0.668220 -3.687551 -2.020577
v -0.601382 -3.107650 -2.089718
v -0.511434 -2.519638 -2.103916
v -0.401832 -1.946110 -2.062626
v -0.276788 -1.409108 -1.967434
v -0.141107 -0.929269 -1.821998
v -0.204854 -5.545326 0.105324
v -0.401832 -5.720762 -0.130645
v -0.583368 -5.787663 -0.386958
v -0.742486 -5.743464 -0.653764
v -0.873070 -5.589858 -0.920810
v -0.970102 -5.332751 -1.177834
v -1.029856 -4.982023 -1.414958
v -1.050031 -4.551151 -1.623070
v -1.029856 -4.056696 -1.794173
v -0.970102 -3.517658 -1.921690
v -0.873070 -2.954750 -2.000722
v -0.742486 -2.389606 -2.028231
v -0.583368 -1.843945 -2.003160
v -0.401832 -1.338736 -1.926473
v -0.204854 -0.893393 -1.801116
v -0.260729 -5.497047 0.133426
v -0.511435 -5.626057 -0.075522
v -0.742485 -5.650173 -0.306931
v -0.945004 -5.568472 -0.551909
v -1.111206 -5.384089 -0.801041
v -1.234705 -5.104114 -1.044755
v -1.310757 -4.739302 -1.273681
v -1.336436 -4.303675 -1.479025
v -1.310757 -3.813974 -1.652897
v -1.234705 -3.289020 -1.788610
v -1.111206 -2.748981 -1.880953
v -0.945004 -2.214615 -1.926377
v -0.742485 -1.706454 -1.923133
v -0.511434 -1.244031 -1.871350
v -0.260728 -0.845112 -1.773015
v -0.000004 -0.525031 -1.631908
v -0.306584 -5.438216 0.167668
v -0.601382 -5.510659 -0.008354
v -0.873070 -5.482640 -0.209418
v -1.111206 -5.355243 -0.427799
v -1.306639 -5.133359 -0.655103
v -1.451860 -4.825518 -0.882596
v -1.541286 -4.443546 -1.101536
v -1.571481 -4.002124 -1.303507
v -1.541285 -3.518219 -1.480750
v -1.451860 -3.010422 -1.626453
v -1.306639 -2.498250 -1.735015
v -1.111206 -2.001385 -1.802266
v -0.873069 -1.538923 -1.825621
v -0.601382 -1.128632 -1.804182
v -0.306583 -0.786283 -1.738773
v -0.340658 -5.371099 0.206734
v -0.668220 -5.379001 0.068277
v -0.970102 -5.291504 -0.098167
v -1.234706 -5.111973 -0.286202
v -1.451859 -4.847303 -0.488603
v -1.613219 -4.507668 -0.697591
v -1.712584 -4.106119 -0.905135
v -1.746135 -3.658087 -1.103259
v -1.712584 -3.180792 -1.284350
v -1.613219 -2.692573 -1.441447
v -1.451859 -2.212194 -1.568515
v -1.234706 -1.758116 -1.660670
v -0.970102 -1.347785 -1.714369
v -0.668219 -0.996975 -1.727550
v -0.340657 -0.719165 -1.699706
v -0.361639 -5.298271 0.249123
v -0.709378 -5.236145 0.151427
v -1.029855 -5.084110 0.022548
v -1.310757 -4.848009 -0.132561
v -1.541286 -4.536914 -0.307940
v -1.712584 -4.162783 -0.496850
v -1.818070 -3.739991 -0.692029
v -1.853686 -3.284786 -0.885978
v -1.818070 -2.814664 -1.071243
v -1.712584 -2.347689 -1.240706
v -1.541285 -1.901805 -1.387853
v -1.310757 -1.494151 -1.507028
v -1.029855 -1.140391 -1.593654
v -0.709377 -0.854119 -1.644400
v -0.361639 -0.646337 -1.657317
v -0.368724 -5.222533 0.293207
v -0.723276 -5.087578 0.237900
v -1.050030 -4.868425 0.148087
v -1.336436 -4.573495 0.027220
v -1.571481 -4.214120 -0.120058
v -1.746135 -3.804114 -0.288085
v -1.853687 -3.359229 -0.470406
v -1.890002 -2.896565 -0.660013
v -1.853687 -2.433903 -0.849620
v -1.746135 -1.989020 -1.031941
v -1.571480 -1.579012 -1.199970
v -1.336435 -1.219637 -1.347246
v -1.050030 -0.924707 -1.468115
v -0.723275 -0.705553 -1.557927
v -0.368724 -0.570600 -1.613233
v -0.361639 -5.146795 0.337291
v -0.709378 -4.939013 0.324374
v -1.029855 -4.652741 0.273628
v -1.310756 -4.298981 0.187002
v -1.541285 -3.891328 0.067825
v -1.712584 -3.445445 -0.079321
v -1.818069 -2.978469 -0.248783
v -1.853686 -2.508345 -0.434048
v -1.818069 -2.053141 -0.627997
v -1.712584 -1.630349 -0.823177
v -1.541284 -1.256217 -1.012086
v -1.310756 -0.945124 -1.187466
v -1.029855 -0.709022 -1.342574
v -0.709377 -0.556988 -1.471454
v -0.361639 -0.494861 -1.569150
v -0.340658 -5.073967 0.379680
v -0.668220 -4.796157 0.407523
v -0.970102 -4.445347 0.394343
v -1.234706 -4.035017 0.340643
v -1.451859 -3.580937 0.248489
v -1.613219 -3.100559 0.121421
v -1.712583 -2.612339 -0.035676
v -1.746134 -2.135044 -0.216767
v -1.712583 -1.687013 -0.414891
v -1.613219 -1.285465 -0.622435
v -1.451859 -0.945829 -0.831423
v -1.234706 -0.681160 -1.033824
v -0.970102 -0.501627 -1.221860
v -0.668219 -0.414132 -1.388304
v -0.340657 -0.422033 -1.526760
v -0.306584 -5.006849 0.418746
v -0.601382 -4.664500 0.484155
v -0.873069 -4.254210 0.505594
v -1.111206 -3.791747 0.482240
v -1.306638 -3.294882 0.414989
v -1.451859 -2.782710 0.306425
v -1.541285 -2.274914 0.160724
v -1.571479 -1.791007 -0.016519
v -1.541284 -1.349586 -0.218491
v -1.451859 -0.967616 -0.437431
v -1.306638 -0.659773 -0.664924
v -1.111206 -0.437889 -0.892228
v -0.873068 -0.310490 -1.110608
v -0.601382 -0.282474 -1.311673
v -0.306583 -0.354916 -1.487694
v -0.260729 -4.948020 0.452989
v -0.511434 -4.549101 0.551323
v -0.742485 -4.086677 0.603107
v -0.945004 -3.578518 0.606350
v -1.111205 -3.044151 0.560927
v -1.234705 -2.504114 0.468584
v -1.310756 -1.979158 0.332869
v -1.336434 -1.489456 0.158999
v -1.310756 -1.053830 -0.046345
v -1.234705 -0.689018 -0.275272
v -1.111205 -0.409043 -0.518985
v -0.945004 -0.224661 -0.768117
v -0.742485 -0.142958 -1.013095
v -0.511434 -0.167076 -1.244505
v -0.260728 -0.296086 -1.453452
v -0.204854 -4.899739 0.481090
v -0.401831 -4.454396 0.606447
v -0.583367 -3.949188 0.683133
v -0.742485 -3.403526 0.708204
v -0.873069 -2.838383 0.680695
v -0.970102 -2.275476 0.601663
v -1.029855 -1.736436 0.474146
v -1.050029 -1.241981 0.303043
v -1.029855 -0.811109 0.094932
v -0.970102 -0.460380 -0.142193
v -0.873068 -0.203273 -0.399217
v -0.742485 -0.049668 -0.666263
v -0.583367 -0.005468 -0.933069
v -0.401831 -0.072371 -1.189381
v -0.204854 -0.247805 -1.425350
v -0.141107 -4.863864 0.501971
v -0.276788 -4.384025 0.647407
v -0.401831 -3.847023 0.742599
v -0.511434 -3.273495 0.783889
v -0.601381 -2.685483 0.769691
v -0.668220 -2.105582 0.700551
v -0.709377 -1.556078 0.579124
v -0.723273 -1.058090 0.410078
v -0.709377 -0.630751 0.199910
v -0.668219 -0.290487 -0.043305
v -0.601381 -0.050374 -0.310221
v -0.511434 0.080363 -0.590577
v -0.401831 0.096696 -0.873604
v -0.276788 -0.001998 -1.148421
v -0.141107 -0.211931 -1.404469
v -0.071937 -4.841772 0.514830
v -0.141107 -4.340690 0.672630
v -0.204854 -3.784110 0.779217
v -0.260728 -3.193422 0.830496
v -0.306583 -2.591327 0.824494
v -0.340657 -2.000962 0.761445
v -0.361639 -1.445014 0.643769
v -0.368723 -0.944850 0.475989
v -0.361639 -0.519687 0.264555
v -0.340657 -0.185868 0.017589
v -0.306583 0.043781 -0.255417
v -0.260728 0.160436 -0.543971
v -0.204854 0.159609 -0.836985
v -0.141107 0.041337 -1.123198
v -0.071937 -0.189838 -1.391611
v -0.000004 -4.834312 0.519172
v -0.000004 -4.326057 0.681147
v -0.000004 -3.166385 0.846233
v -0.000004 -1.965636 0.782006
v -0.000004 -0.150541 0.038150
v -0.000004 0.187473 -0.528234
v -0.000004 0.180852 -0.824621
v -0.000004 0.055969 -1.114681
v -0.000004 -0.182379 -1.387268
vn 0.0506 -0.0911 0.9946
vn 0.1176 0.9270 0.3561
vn 0.0608 0.0053 0.9981
vn 0.1018 0.9946 -0.0222
vn 0.0705 0.1019 0.9923
vn 0.0712 0.9162 -0.3944
vn 0.0800 0.2035 0.9758
vn 0.0383 0.7523 -0.6578
vn 0.0897 0.3156 0.9446
vn 0.0097 -0.4311 0.9022
vn 0.0111 0.5810 -0.8138
vn 0.0998 0.4444 0.8903
vn 0.0260 -0.3035 0.9525
vn 0.1098 0.5956 0.7957
vn 0.0392 -0.1923 0.9806
vn 0.1176 0.7671 0.6306
vn 0.1171 -0.1997 0.9728
vn 0.3438 0.7393 0.5790
vn 0.1510 -0.0997 0.9835
vn 0.3408 0.8892 0.3053
vn 0.1815 -0.0040 0.9834
vn 0.2938 0.9541 -0.0587
vn 0.2103 0.0918 0.9733
vn 0.2066 0.8872 -0.4126
vn 0.2384 0.1925 0.9519
vn 0.1122 0.7384 -0.6649
vn 0.2669 0.3031 0.9148
vn 0.0289 -0.4336 0.9006
vn 0.0329 0.5777 -0.8156
vn 0.2958 0.4293 0.8534
vn 0.0774 -0.3092 0.9478
vn 0.3235 0.5758 0.7508
vn 0.3920 0.1704 0.9040
vn 0.1786 0.7124 -0.6787
vn 0.4368 0.2782 0.8555
vn 0.0472 -0.4385 0.8975
vn 0.0531 0.5711 -0.8192
vn 0.4806 0.3996 0.7806
vn 0.1271 -0.3205 0.9387
vn 0.5199 0.5375 0.6639
vn 0.1928 -0.2146 0.9575
vn 0.5443 0.6869 0.4816
vn 0.2492 -0.1168 0.9614
vn 0.5311 0.8203 0.2121
vn 0.2996 -0.0228 0.9538
vn 0.4551 0.8816 -0.1253
vn 0.3466 0.0716 0.9353
vn 0.3232 0.8343 -0.4467
vn 0.7070 0.6153 0.3486
vn 0.3435 -0.1428 0.9282
vn 0.6766 0.7309 0.0896
vn 0.4131 -0.0512 0.9093
vn 0.5755 0.7897 -0.2124
vn 0.4770 0.0410 0.8779
vn 0.4136 0.7655 -0.4928
vn 0.5372 0.1373 0.8322
vn 0.2336 0.6767 -0.6982
vn 0.5943 0.2412 0.7672
vn 0.0639 -0.4457 0.8929
vn 0.0709 0.5618 -0.8243
vn 0.6468 0.3560 0.6744
vn 0.1738 -0.3373 0.9252
vn 0.6890 0.4828 0.5405
vn 0.2651 -0.2371 0.9346
vn 0.2752 0.6348 -0.7221
vn 0.7338 0.1928 0.6514
vn 0.0786 -0.4550 0.8870
vn 0.0855 0.5501 -0.8307
vn 0.7873 0.3002 0.5385
vn 0.2163 -0.3597 0.9076
vn 0.8227 0.4152 0.3884
vn 0.3324 -0.2674 0.9045
vn 0.8251 0.5313 0.1922
vn 0.4321 -0.1778 0.8841
vn 0.7738 0.6316 -0.0488
vn 0.5197 -0.0894 0.8496
vn 0.6538 0.6902 -0.3103
vn 0.5984 0.0001 0.8012
vn 0.4757 0.6890 -0.5468
vn 0.6699 0.0934 0.7366
vn 0.5129 -0.2222 0.8292
vn 0.8256 0.5307 -0.1918
vn 0.6170 -0.1378 0.7748
vn 0.6936 0.5915 -0.4113
vn 0.7074 -0.0512 0.7049
vn 0.5106 0.6112 -0.6048
vn 0.7853 0.0390 0.6179
vn 0.3024 0.5895 -0.7490
vn 0.8493 0.1340 0.5106
vn 0.0906 -0.4662 0.8800
vn 0.0964 0.5368 -0.8382
vn 0.8955 0.2344 0.3784
vn 0.2532 -0.3874 0.8865
vn 0.9156 0.3386 0.2168
vn 0.3928 -0.3054 0.8674
vn 0.8971 0.4412 0.0244
vn 0.9349 0.0665 0.3485
vn 0.0994 -0.4790 0.8722
vn 0.1033 0.5224 -0.8464
vn 0.9662 0.1613 0.2011
vn 0.2831 -0.4202 0.8621
vn 0.9656 0.2574 0.0357
vn 0.4445 -0.3515 0.8239
vn 0.9253 0.3507 -0.1445
vn 0.5835 -0.2764 0.7636
vn 0.8378 0.4341 -0.3312
vn 0.7016 -0.1965 0.6849
vn 0.7008 0.4988 -0.5100
vn 0.7998 -0.1127 0.5896
vn 0.5214 0.5365 -0.6636
vn 0.8782 -0.0250 0.4777
vn 0.3156 0.5436 -0.7777
vn 0.8171 0.3452 -0.4617
vn 0.7699 -0.2657 0.5803
vn 0.6815 0.4147 -0.6030
vn 0.8707 -0.1840 0.4561
vn 0.5117 0.4675 -0.7209
vn 0.9428 -0.0973 0.3187
vn 0.3159 0.4992 -0.8069
vn 0.9853 -0.0073 0.1709
vn 0.1047 -0.4929 0.8637
vn 0.1060 0.5076 -0.8550
vn 0.9963 0.0844 0.0151
vn 0.3045 -0.4577 0.8353
vn 0.9736 0.1758 -0.1455
vn 0.4850 -0.4056 0.7748
vn 0.9145 0.2640 -0.3065
vn 0.6409 -0.3405 0.6880
vn 0.1047 0.4930 -0.8637
vn 0.9853 0.0073 -0.1709
vn 0.3159 -0.4992 0.8069
vn 0.9428 0.0973 -0.3187
vn 0.5117 -0.4675 0.7209
vn 0.8707 0.1840 -0.4561
vn 0.6815 -0.4147 0.6030
vn 0.7699 0.2657 -0.5803
vn 0.8171 -0.3452 0.4617
vn 0.6409 0.3405 -0.6880
vn 0.9145 -0.2640 0.3065
vn 0.4850 0.4056 -0.7748
vn 0.9736 -0.1758 0.1455
vn 0.3045 0.4577 -0.8353
vn 0.9963 -0.0844 -0.0151
vn 0.1060 -0.5076 0.8550
vn 0.5835 0.2764 -0.7636
vn 0.9253 -0.3507 0.1445
vn 0.4445 0.3515 -0.8239
vn 0.9656 -0.2574 -0.0357
vn 0.2831 0.4202 -0.8621
vn 0.9662 -0.1613 -0.2011
vn 0.1033 -0.5224 0.8464
vn 0.0994 0.4790 -0.8722
vn 0.9349 -0.0665 -0.3485
vn 0.3156 -0.5436 0.7777
vn 0.8782 0.0250 -0.4777
vn 0.5214 -0.5365 0.6636
vn 0.7998 0.1127 -0.5896
vn 0.7008 -0.4988 0.5100
vn 0.7016 0.1965 -0.6849
vn 0.8378 -0.4341 0.3312
vn 0.3024 -0.5895 0.7490
vn 0.7853 -0.0390 -0.6179
vn 0.5106 -0.6112 0.6048
vn 0.7074 0.0512 -0.7049
vn 0.6936 -0.5915 0.4113
vn 0.6170 0.1378 -0.7748
vn 0.8256 -0.5307 0.1917
vn 0.5129 0.2222 -0.8292
vn 0.8971 -0.4412 -0.0244
vn 0.3928 0.3054 -0.8674
vn 0.9156 -0.3386 -0.2168
vn 0.2532 0.3874 -0.8865
vn 0.8955 -0.2344 -0.3784
vn 0.0964 -0.5368 0.8382
vn 0.0906 0.4662 -0.8800
vn 0.8493 -0.1340 -0.5106
vn 0.8251 -0.5313 -0.1922
vn 0.3324 0.2674 -0.9045
vn 0.8227 -0.4152 -0.3884
vn 0.2163 0.3597 -0.9077
vn 0.7873 -0.3002 -0.5385
vn 0.0855 -0.5501 0.8307
vn 0.0786 0.4550 -0.8870
vn 0.7338 -0.1928 -0.6514
vn 0.2752 -0.6348 0.7221
vn 0.6699 -0.0934 -0.7366
vn 0.4757 -0.6890 0.5468
vn 0.5984 -0.0001 -0.8012
vn 0.6538 -0.6902 0.3103
vn 0.5197 0.0894 -0.8496
vn 0.7738 -0.6316 0.0488
vn 0.4321 0.1778 -0.8841
vn 0.5372 -0.1373 -0.8322
vn 0.4136 -0.7655 0.4928
vn 0.4770 -0.0410 -0.8779
vn 0.5755 -0.7897 0.2124
vn 0.4131 0.0512 -0.9093
vn 0.6766 -0.7309 -0.0896
vn 0.3435 0.1428 -0.9282
vn 0.7070 -0.6153 -0.3486
vn 0.2651 0.2371 -0.9346
vn 0.6890 -0.4828 -0.5405
vn 0.1738 0.3373 -0.9252
vn 0.6468 -0.3560 -0.6744
vn 0.0709 -0.5618 0.8242
vn 0.0639 0.4457 -0.8929
vn 0.5943 -0.2412 -0.7672
vn 0.2336 -0.6767 0.6982
vn 0.1928 0.2146 -0.9575
vn 0.5199 -0.5375 -0.6639
vn 0.1271 0.3205 -0.9387
vn 0.4806 -0.3996 -0.7806
vn 0.0531 -0.5711 0.8192
vn 0.0472 0.4385 -0.8975
vn 0.4368 -0.2782 -0.8555
vn 0.1786 -0.7124 0.6787
vn 0.3920 -0.1704 -0.9040
vn 0.3232 -0.8343 0.4467
vn 0.3466 -0.0716 -0.9353
vn 0.4551 -0.8816 0.1254
vn 0.2996 0.0228 -0.9538
vn 0.5311 -0.8203 -0.2121
vn 0.2492 0.1168 -0.9614
vn 0.5443 -0.6869 -0.4816
vn 0.2066 -0.8872 0.4126
vn 0.2103 -0.0918 -0.9733
vn 0.2938 -0.9541 0.0587
vn 0.1815 0.0040 -0.9834
vn 0.3408 -0.8892 -0.3053
vn 0.1510 0.0997 -0.9835
vn 0.3438 -0.7393 -0.5790
vn 0.1171 0.1997 -0.9728
vn 0.3235 -0.5758 -0.7508
vn 0.0775 0.3092 -0.9478
vn 0.2958 -0.4293 -0.8534
vn 0.0329 -0.5777 0.8156
vn 0.0289 0.4336 -0.9006
vn 0.2669 -0.3031 -0.9148
vn 0.1122 -0.7384 0.6649
vn 0.2384 -0.1925 -0.9519
vn 0.1098 -0.5956 -0.7957
vn 0.0260 0.3035 -0.9525
vn 0.0998 -0.4444 -0.8903
vn 0.0111 -0.5810 0.8138
vn 0.0098 0.4311 -0.9022
vn 0.0897 -0.3156 -0.9446
vn 0.0383 -0.7523 0.6578
vn 0.0800 -0.2035 -0.9758
vn 0.0712 -0.9162 0.3944
vn 0.0705 -0.1019 -0.9923
vn 0.1018 -0.9946 0.0222
vn 0.0608 -0.0053 -0.9981
vn 0.1176 -0.9270 -0.3561
vn 0.0506 0.0911 -0.9946
vn 0.1176 -0.7671 -0.6306
vn 0.0392 0.1923 -0.9806
vn -0.0705 -0.1019 -0.9923
vn -0.1018 -0.9946 0.0222
vn -0.0608 -0.0053 -0.9981
vn -0.1176 -0.9270 -0.3561
vn -0.0506 0.0911 -0.9946
vn -0.1176 -0.7671 -0.6306
vn -0.0392 0.1923 -0.9806
vn -0.1098 -0.5956 -0.7957
vn -0.0260 0.3035 -0.9525
vn -0.0998 -0.4444 -0.8903
vn -0.0111 -0.5810 0.8138
vn -0.0098 0.4311 -0.9022
vn -0.0897 -0.3156 -0.9446
vn -0.0383 -0.7523 0.6578
vn -0.0800 -0.2035 -0.9758
vn -0.0712 -0.9162 0.3944
vn -0.0775 0.3092 -0.9478
vn -0.2958 -0.4293 -0.8534
vn -0.0329 -0.5777 0.8156
vn -0.0289 0.4336 -0.9006
vn -0.2669 -0.3031 -0.9148
vn -0.1122 -0.7384 0.6649
vn -0.2384 -0.1925 -0.9519
vn -0.2066 -0.8872 0.4126
vn -0.2103 -0.0918 -0.9733
vn -0.2938 -0.9541 0.0587
vn -0.1815 0.0040 -0.9834
vn -0.3408 -0.8892 -0.3053
vn -0.1510 0.0997 -0.9835
vn -0.3438 -0.7393 -0.5790
vn -0.1171 0.1997 -0.9728
vn -0.3235 -0.5758 -0.7508
vn -0.2996 0.0228 -0.9538
vn -0.5311 -0.8203 -0.2121
vn -0.2492 0.1168 -0.9614
vn -0.5443 -0.6869 -0.4816
vn -0.1928 0.2146 -0.9575
vn -0.5199 -0.5375 -0.6639
vn -0.1271 0.3205 -0.9387
vn -0.4806 -0.3996 -0.7806
vn -0.0531 -0.5711 0.8192
vn -0.0472 0.4385 -0.8975
vn -0.4368 -0.2782 -0.8555
vn -0.1786 -0.7124 0.6787
vn -0.3920 -0.1704 -0.9040
vn -0.3232 -0.8343 0.4467
vn -0.3466 -0.0716 -0.9353
vn -0.4551 -0.8816 0.1254
vn -0.0709 -0.5618 0.8242
vn -0.0639 0.4457 -0.8929
vn -0.5943 -0.2412 -0.7672
vn -0.2336 -0.6767 0.6982
vn -0.5372 -0.1373 -0.8322
vn -0.4136 -0.7655 0.4928
vn -0.4770 -0.0410 -0.8779
vn -0.5755 -0.7897 0.2124
vn -0.4131 0.0512 -0.9093
vn -0.6766 -0.7309 -0.0896
vn -0.3435 0.1428 -0.9282
vn -0.7070 -0.6153 -0.3486
vn -0.2651 0.2371 -0.9346
vn -0.6890 -0.4828 -0.5405
vn -0.1738 0.3373 -0.9252
vn -0.6468 -0.3560 -0.6744
vn -0.7738 -0.6316 0.0488
vn -0.4321 0.1778 -0.8841
vn -0.8251 -0.5313 -0.1922
vn -0.3324 0.2674 -0.9045
vn -0.8227 -0.4152 -0.3884
vn -0.2163 0.3597 -0.9077
vn -0.7873 -0.3002 -0.5385
vn -0.0855 -0.5501 0.8307
vn -0.0786 0.4550 -0.8870
vn -0.7338 -0.1928 -0.6514
vn -0.2752 -0.6348 0.7221
vn -0.6699 -0.0934 -0.7366
vn -0.4757 -0.6890 0.5468
vn -0.5984 -0.0001 -0.8012
vn -0.6538 -0.6902 0.3103
vn -0.5197 0.0894 -0.8496
vn -0.8493 -0.1340 -0.5106
vn -0.3024 -0.5895 0.7490
vn -0.7853 -0.0390 -0.6179
vn -0.5106 -0.6112 0.6048
vn -0.7074 0.0512 -0.7049
vn -0.6936 -0.5915 0.4113
vn -0.6170 0.1378 -0.7748
vn -0.8256 -0.5307 0.1917
vn -0.5129 0.2222 -0.8292
vn -0.8971 -0.4412 -0.0244
vn -0.3928 0.3054 -0.8674
vn -0.9156 -0.3386 -0.2168
vn -0.2532 0.3874 -0.8864
vn -0.8955 -0.2344 -0.3784
vn -0.0964 -0.5368 0.8382
vn -0.0906 0.4662 -0.8800
vn -0.5835 0.2764 -0.7636
vn -0.9253 -0.3507 0.1445
vn -0.4445 0.3515 -0.8239
vn -0.9656 -0.2574 -0.0357
vn -0.2831 0.4202 -0.8621
vn -0.9662 -0.1613 -0.2011
vn -0.1033 -0.5224 0.8464
vn -0.0994 0.4790 -0.8722
vn -0.9349 -0.0665 -0.3485
vn -0.3156 -0.5436 0.7777
vn -0.8782 0.0250 -0.4777
vn -0.5214 -0.5365 0.6636
vn -0.7998 0.1127 -0.5896
vn -0.7008 -0.4988 0.5100
vn -0.7016 0.1965 -0.6849
vn -0.8378 -0.4341 0.3312
vn -0.3159 -0.4992 0.8069
vn -0.9428 0.0973 -0.3187
vn -0.5117 -0.4675 0.7209
vn -0.8707 0.1840 -0.4561
vn -0.6815 -0.4147 0.6030
vn -0.7699 0.2657 -0.5803
vn -0.8171 -0.3452 0.4617
vn -0.6409 0.3405 -0.6880
vn -0.9145 -0.2640 0.3065
vn -0.4850 0.4056 -0.7748
vn -0.9736 -0.1758 0.1455
vn -0.3045 0.4577 -0.8353
vn -0.9963 -0.0844 -0.0151
vn -0.1060 -0.5076 0.8550
vn -0.1047 0.4930 -0.8637
vn -0.9853 0.0073 -0.1709
vn -0.8707 -0.1840 0.4561
vn -0.5117 0.4675 -0.7209
vn -0.9428 -0.0973 0.3187
vn -0.3159 0.4992 -0.8069
vn -0.9853 -0.0073 0.1709
vn -0.1047 -0.4929 0.8637
vn -0.1060 0.5076 -0.8550
vn -0.9963 0.0844 0.0151
vn -0.3045 -0.4577 0.8353
vn -0.9736 0.1758 -0.1455
vn -0.4850 -0.4056 0.7748
vn -0.9145 0.2640 -0.3065
vn -0.6409 -0.3405 0.6880
vn -0.8171 0.3452 -0.4617
vn -0.7699 -0.2657 0.5803
vn -0.6815 0.4147 -0.6030
vn -0.9656 0.2574 0.0357
vn -0.4445 -0.3515 0.8239
vn -0.9253 0.3507 -0.1445
vn -0.5835 -0.2764 0.7636
vn -0.8378 0.4341 -0.3312
vn -0.7016 -0.1965 0.6849
vn -0.7008 0.4988 -0.5100
vn -0.7998 -0.1127 0.5896
vn -0.5214 0.5365 -0.6636
vn -0.8782 -0.0250 0.4777
vn -0.3156 0.5436 -0.7777
vn -0.9349 0.0665 0.3485
vn -0.0994 -0.4790 0.8722
vn -0.1033 0.5224 -0.8464
vn -0.9662 0.1613 0.2011
vn -0.2831 -0.4202 0.8621
vn -0.5106 0.6112 -0.6048
vn -0.7853 0.0390 0.6179
vn -0.3024 0.5895 -0.7490
vn -0.8493 0.1340 0.5106
vn -0.0906 -0.4662 0.8800
vn -0.0964 0.5368 -0.8382
vn -0.8955 0.2344 0.3784
vn -0.2532 -0.3874 0.8865
vn -0.9156 0.3386 0.2168
vn -0.3928 -0.3054 0.8674
vn -0.8971 0.4412 0.0244
vn -0.5129 -0.2222 0.8292
vn -0.8256 0.5307 -0.1917
vn -0.6170 -0.1378 0.7748
vn -0.6936 0.5915 -0.4113
vn -0.7074 -0.0512 0.7049
vn -0.8251 0.5313 0.1922
vn -0.4321 -0.1778 0.8841
vn -0.7738 0.6315 -0.0488
vn -0.5197 -0.0894 0.8496
vn -0.6538 0.6902 -0.3103
vn -0.5984 0.0001 0.8012
vn -0.4757 0.6890 -0.5468
vn -0.6699 0.0934 0.7366
vn -0.2752 0.6348 -0.7221
vn -0.7338 0.1928 0.6514
vn -0.0786 -0.4550 0.8870
vn -0.0855 0.5501 -0.8307
vn -0.7873 0.3002 0.5385
vn -0.2163 -0.3597 0.9077
vn -0.8227 0.4152 0.3883
vn -0.3324 -0.2674 0.9045
vn -0.2336 0.6767 -0.6982
vn -0.5943 0.2412 0.7672
vn -0.0639 -0.4457 0.8929
vn -0.0709 0.5618 -0.8243
vn -0.6468 0.3560 0.6744
vn -0.1738 -0.3373 0.9252
vn -0.6890 0.4828 0.5405
vn -0.2651 -0.2371 0.9346
vn -0.7070 0.6153 0.3486
vn -0.3435 -0.1428 0.9282
vn -0.6766 0.7309 0.0896
vn -0.4131 -0.0512 0.9093
vn -0.5755 0.7897 -0.2124
vn -0.4770 0.0410 0.8779
vn -0.4136 0.7655 -0.4928
vn -0.5372 0.1373 0.8322
vn -0.2492 -0.1168 0.9614
vn -0.5311 0.8203 0.2121
vn -0.2996 -0.0228 0.9538
vn -0.4551 0.8816 -0.1254
vn -0.3466 0.0716 0.9353
vn -0.3232 0.8343 -0.4467
vn -0.3920 0.1704 0.9040
vn -0.1786 0.7124 -0.6787
vn -0.4368 0.2782 0.8555
vn -0.0472 -0.4385 0.8975
vn -0.0531 0.5711 -0.8192
vn -0.4806 0.3996 0.7806
vn -0.1271 -0.3205 0.9387
vn -0.5199 0.5375 0.6639
vn -0.1928 -0.2146 0.9575
vn -0.5443 0.6869 0.4816
vn -0.2669 0.3031 0.9148
vn -0.0289 -0.4336 0.9006
vn -0.0329 0.5777 -0.8156
vn -0.2958 0.4293 0.8534
vn -0.0775 -0.3092 0.9478
vn -0.3235 0.5758 0.7508
vn -0.1171 -0.1997 0.9728
vn -0.3438 0.7393 0.5790
vn -0.1510 -0.0997 0.9835
vn -0.3408 0.8892 0.3053
vn -0.1815 -0.0040 0.9834
vn -0.2938 0.9541 -0.0587
vn -0.2103 0.0918 0.9733
vn -0.2066 0.8872 -0.4126
vn -0.2384 0.1925 0.9519
vn -0.1123 0.7384 -0.6649
vn -0.1176 0.9270 0.3561
vn -0.0608 0.0053 0.9981
vn -0.1018 0.9946 -0.0222
vn -0.0705 0.1019 0.9923
vn -0.0712 0.9162 -0.3944
vn -0.0800 0.2035 0.9758
vn -0.0383 0.7523 -0.6578
vn -0.0898 0.3156 0.9446
vn -0.0097 -0.4311 0.9022
vn -0.0111 0.5810 -0.8138
vn -0.0998 0.4444 0.8903
vn -0.0260 -0.3035 0.9525
vn -0.1098 0.5956 0.7957
vn -0.0392 -0.1923 0.9806
vn -0.1176 0.7671 0.6306
vn -0.0506 -0.0911 0.9946
vn 0.0775 -0.3092 0.9478
vn 0.2752 -0.6347 0.7221
vn 0.7738 -0.6315 0.0488
vn 0.1739 0.3373 -0.9252
vn 0.2336 -0.6768 0.6982
vn 0.0383 -0.7522 0.6578
vn -0.2336 -0.6768 0.6982
vn -0.7738 -0.6315 0.0488
vn -0.2532 0.3874 -0.8865
vn -0.2532 -0.3874 0.8864
vn -0.7738 0.6316 -0.0488
vn -0.2163 -0.3597 0.9076
vn -0.3235 0.5758 0.7509
vn -0.1122 0.7384 -0.6649
vn -0.0897 0.3156 0.9446
vt 0.750000 0.812500
vt 0.718750 0.750000
vt 0.750000 0.750000
vt 0.750000 0.312500
vt 0.718750 0.250000
vt 0.750000 0.250000
vt 0.718750 0.687500
vt 0.750000 0.687500
vt 0.718750 0.187500
vt 0.750000 0.187500
vt 0.718750 0.625000
vt 0.750000 0.625000
vt 0.718750 0.125000
vt 0.750000 0.125000
vt 0.718750 0.562500
vt 0.750000 0.562500
vt 0.750000 0.062500
vt 0.718750 0.062500
vt 0.718750 0.500000
vt 0.750000 0.500000
vt 0.750000 0.937500
vt 0.734375 1.000000
vt 0.718750 0.937500
vt 0.734375 0.000000
vt 0.718750 0.437500
vt 0.750000 0.437500
vt 0.718750 0.875000
vt 0.750000 0.875000
vt 0.718750 0.375000
vt 0.750000 0.375000
vt 0.718750 0.812500
vt 0.718750 0.312500
vt 0.687500 0.812500
vt 0.687500 0.312500
vt 0.687500 0.750000
vt 0.687500 0.250000
vt 0.687500 0.687500
vt 0.687500 0.187500
vt 0.687500 0.625000
vt 0.687500 0.125000
vt 0.687500 0.562500
vt 0.687500 0.062500
vt 0.687500 0.500000
vt 0.703125 1.000000
vt 0.687500 0.937500
vt 0.703125 0.000000
vt 0.687500 0.437500
vt 0.687500 0.875000
vt 0.687500 0.375000
vt 0.656250 0.562500
vt 0.656250 0.125000
vt 0.656250 0.062500
vt 0.656250 0.500000
vt 0.671875 1.000000
vt 0.656250 0.937500
vt 0.671875 0.000000
vt 0.656250 0.437500
vt 0.656250 0.875000
vt 0.656250 0.375000
vt 0.656250 0.812500
vt 0.656250 0.312500
vt 0.656250 0.750000
vt 0.656250 0.250000
vt 0.656250 0.687500
vt 0.656250 0.187500
vt 0.656250 0.625000
vt 0.625000 0.312500
vt 0.625000 0.750000
vt 0.625000 0.250000
vt 0.625000 0.687500
vt 0.625000 0.187500
vt 0.625000 0.625000
vt 0.625000 0.125000
vt 0.625000 0.562500
vt 0.625000 0.062500
vt 0.625000 0.500000
vt 0.640625 1.000000
vt 0.625000 0.937500
vt 0.640625 0.000000
vt 0.625000 0.437500
vt 0.625000 0.875000
vt 0.625000 0.375000
vt 0.625000 0.812500
vt 0.593750 0.125000
vt 0.593750 0.062500
vt 0.593750 0.500000
vt 0.609375 1.000000
vt 0.593750 0.937500
vt 0.609375 0.000000
vt 0.593750 0.437500
vt 0.593750 0.875000
vt 0.593750 0.375000
vt 0.593750 0.812500
vt 0.593750 0.312500
vt 0.593750 0.750000
vt 0.593750 0.250000
vt 0.593750 0.687500
vt 0.593750 0.187500
vt 0.593750 0.625000
vt 0.593750 0.562500
vt 0.562500 0.750000
vt 0.562500 0.250000
vt 0.562500 0.687500
vt 0.562500 0.187500
vt 0.562500 0.625000
vt 0.562500 0.125000
vt 0.562500 0.562500
vt 0.562500 0.062500
vt 0.562500 0.500000
vt 0.578125 1.000000
vt 0.562500 0.937500
vt 0.578125 0.000000
vt 0.562500 0.437500
vt 0.562500 0.875000
vt 0.562500 0.375000
vt 0.562500 0.812500
vt 0.562500 0.312500
vt 0.531250 0.500000
vt 0.546875 1.000000
vt 0.531250 0.937500
vt 0.546875 0.000000
vt 0.531250 0.062500
vt 0.531250 0.437500
vt 0.531250 0.875000
vt 0.531250 0.375000
vt 0.531250 0.812500
vt 0.531250 0.312500
vt 0.531250 0.750000
vt 0.531250 0.250000
vt 0.531250 0.687500
vt 0.531250 0.187500
vt 0.531250 0.625000
vt 0.531250 0.125000
vt 0.531250 0.562500
vt 0.500000 0.250000
vt 0.500000 0.687500
vt 0.500000 0.187500
vt 0.500000 0.625000
vt 0.500000 0.125000
vt 0.500000 0.562500
vt 0.500000 0.062500
vt 0.500000 0.500000
vt 0.515625 1.000000
vt 0.500000 0.937500
vt 0.515625 0.000000
vt 0.500000 0.437500
vt 0.500000 0.875000
vt 0.500000 0.375000
vt 0.500000 0.812500
vt 0.500000 0.312500
vt 0.500000 0.750000
vt 0.484375 0.000000
vt 0.468750 0.062500
vt 0.468750 0.437500
vt 0.468750 0.875000
vt 0.468750 0.375000
vt 0.468750 0.812500
vt 0.468750 0.312500
vt 0.468750 0.750000
vt 0.468750 0.250000
vt 0.468750 0.687500
vt 0.468750 0.187500
vt 0.468750 0.625000
vt 0.468750 0.125000
vt 0.468750 0.562500
vt 0.468750 0.500000
vt 0.484375 1.000000
vt 0.468750 0.937500
vt 0.437500 0.187500
vt 0.437500 0.625000
vt 0.437500 0.125000
vt 0.437500 0.562500
vt 0.437500 0.062500
vt 0.437500 0.500000
vt 0.453125 1.000000
vt 0.437500 0.937500
vt 0.453125 0.000000
vt 0.437500 0.437500
vt 0.437500 0.875000
vt 0.437500 0.375000
vt 0.437500 0.812500
vt 0.437500 0.312500
vt 0.437500 0.750000
vt 0.437500 0.250000
vt 0.437500 0.687500
vt 0.406250 0.875000
vt 0.406250 0.375000
vt 0.406250 0.812500
vt 0.406250 0.312500
vt 0.406250 0.750000
vt 0.406250 0.250000
vt 0.406250 0.687500
vt 0.406250 0.187500
vt 0.406250 0.625000
vt 0.406250 0.125000
vt 0.406250 0.562500
vt 0.406250 0.062500
vt 0.406250 0.500000
vt 0.421875 1.000000
vt 0.406250 0.937500
vt 0.421875 0.000000
vt 0.406250 0.437500
vt 0.375000 0.625000
vt 0.375000 0.125000
vt 0.375000 0.562500
vt 0.375000 0.062500
vt 0.375000 0.500000
vt 0.390625 1.000000
vt 0.375000 0.937500
vt 0.390625 0.000000
vt 0.375000 0.437500
vt 0.375000 0.875000
vt 0.375000 0.375000
vt 0.375000 0.812500
vt 0.375000 0.312500
vt 0.375000 0.750000
vt 0.375000 0.250000
vt 0.375000 0.687500
vt 0.375000 0.187500
vt 0.343750 0.375000
vt 0.343750 0.812500
vt 0.343750 0.312500
vt 0.343750 0.750000
vt 0.343750 0.250000
vt 0.343750 0.687500
vt 0.343750 0.187500
vt 0.343750 0.625000
vt 0.343750 0.125000
vt 0.343750 0.562500
vt 0.343750 0.062500
vt 0.343750 0.500000
vt 0.359375 1.000000
vt 0.343750 0.937500
vt 0.359375 0.000000
vt 0.343750 0.437500
vt 0.343750 0.875000
vt 0.312500 0.125000
vt 0.312500 0.562500
vt 0.312500 0.062500
vt 0.312500 0.500000
vt 0.328125 1.000000
vt 0.312500 0.937500
vt 0.328125 0.000000
vt 0.312500 0.437500
vt 0.312500 0.875000
vt 0.312500 0.375000
vt 0.312500 0.812500
vt 0.312500 0.312500
vt 0.312500 0.750000
vt 0.312500 0.250000
vt 0.312500 0.687500
vt 0.312500 0.187500
vt 0.312500 0.625000
vt 0.281250 0.812500
vt 0.281250 0.312500
vt 0.281250 0.750000
vt 0.281250 0.250000
vt 0.281250 0.687500
vt 0.281250 0.187500
vt 0.281250 0.625000
vt 0.281250 0.125000
vt 0.281250 0.562500
vt 0.281250 0.062500
vt 0.281250 0.500000
vt 0.296875 1.000000
vt 0.281250 0.937500
vt 0.296875 0.000000
vt 0.281250 0.437500
vt 0.281250 0.875000
vt 0.281250 0.375000
vt 0.250000 0.562500
vt 0.250000 0.062500
vt 0.250000 0.500000
vt 0.265625 1.000000
vt 0.250000 0.937500
vt 0.265625 0.000000
vt 0.250000 0.437500
vt 0.250000 0.875000
vt 0.250000 0.375000
vt 0.250000 0.812500
vt 0.250000 0.312500
vt 0.250000 0.750000
vt 0.250000 0.250000
vt 0.250000 0.687500
vt 0.250000 0.187500
vt 0.250000 0.625000
vt 0.250000 0.125000
vt 0.218750 0.375000
vt 0.218750 0.312500
vt 0.218750 0.812500
vt 0.218750 0.750000
vt 0.218750 0.250000
vt 0.218750 0.687500
vt 0.218750 0.187500
vt 0.218750 0.625000
vt 0.218750 0.125000
vt 0.218750 0.562500
vt 0.218750 0.062500
vt 0.218750 0.500000
vt 0.234375 1.000000
vt 0.218750 0.937500
vt 0.234375 0.000000
vt 0.218750 0.437500
vt 0.218750 0.875000
vt 0.187500 0.125000
vt 0.187500 0.062500
vt 0.187500 0.562500
vt 0.187500 0.500000
vt 0.203125 1.000000
vt 0.187500 0.937500
vt 0.203125 0.000000
vt 0.187500 0.437500
vt 0.187500 0.875000
vt 0.187500 0.375000
vt 0.187500 0.812500
vt 0.187500 0.312500
vt 0.187500 0.750000
vt 0.187500 0.250000
vt 0.187500 0.687500
vt 0.187500 0.187500
vt 0.187500 0.625000
vt 0.156250 0.312500
vt 0.156250 0.250000
vt 0.156250 0.750000
vt 0.156250 0.687500
vt 0.156250 0.187500
vt 0.156250 0.625000
vt 0.156250 0.125000
vt 0.156250 0.562500
vt 0.156250 0.062500
vt 0.156250 0.500000
vt 0.171875 1.000000
vt 0.156250 0.937500
vt 0.171875 0.000000
vt 0.156250 0.437500
vt 0.156250 0.875000
vt 0.156250 0.375000
vt 0.156250 0.812500
vt 0.140625 1.000000
vt 0.125000 0.937500
vt 0.140625 0.000000
vt 0.125000 0.062500
vt 0.125000 0.500000
vt 0.125000 0.437500
vt 0.125000 0.875000
vt 0.125000 0.375000
vt 0.125000 0.812500
vt 0.125000 0.312500
vt 0.125000 0.750000
vt 0.125000 0.250000
vt 0.125000 0.687500
vt 0.125000 0.187500
vt 0.125000 0.625000
vt 0.125000 0.125000
vt 0.125000 0.562500
vt 0.093750 0.750000
vt 0.093750 0.687500
vt 0.093750 0.250000
vt 0.093750 0.187500
vt 0.093750 0.625000
vt 0.093750 0.125000
vt 0.093750 0.562500
vt 0.093750 0.062500
vt 0.093750 0.500000
vt 0.109375 1.000000
vt 0.093750 0.937500
vt 0.109375 0.000000
vt 0.093750 0.437500
vt 0.093750 0.875000
vt 0.093750 0.375000
vt 0.093750 0.812500
vt 0.093750 0.312500
vt 0.062500 0.500000
vt 0.062500 0.437500
vt 0.062500 0.937500
vt 0.062500 0.875000
vt 0.062500 0.375000
vt 0.062500 0.812500
vt 0.062500 0.312500
vt 0.062500 0.750000
vt 0.062500 0.250000
vt 0.062500 0.687500
vt 0.062500 0.187500
vt 0.062500 0.625000
vt 0.062500 0.125000
vt 0.062500 0.562500
vt 0.062500 0.062500
vt 0.078125 1.000000
vt 0.078125 0.000000
vt 0.031250 0.250000
vt 0.031250 0.187500
vt 0.031250 0.687500
vt 0.031250 0.625000
vt 0.031250 0.125000
vt 0.031250 0.562500
vt 0.031250 0.062500
vt 0.031250 0.500000
vt 0.046875 1.000000
vt 0.031250 0.937500
vt 0.046875 0.000000
vt 0.031250 0.437500
vt 0.031250 0.875000
vt 0.031250 0.375000
vt 0.031250 0.812500
vt 0.031250 0.312500
vt 0.031250 0.750000
vt 0.000000 0.937500
vt 0.000000 0.875000
vt 0.000000 0.437500
vt 0.000000 0.375000
vt 0.000000 0.812500
vt 0.000000 0.312500
vt 0.000000 0.750000
vt 0.000000 0.250000
vt 0.000000 0.687500
vt 0.000000 0.187500
vt 0.000000 0.625000
vt 0.000000 0.125000
vt 0.000000 0.562500
vt 0.000000 0.062500
vt 0.000000 0.500000
vt 0.015625 1.000000
vt 0.015625 0.000000
vt 1.000000 0.625000
vt 0.968750 0.687500
vt 0.968750 0.625000
vt 1.000000 0.125000
vt 0.968750 0.187500
vt 0.968750 0.125000
vt 1.000000 0.562500
vt 0.968750 0.562500
vt 1.000000 0.062500
vt 0.968750 0.062500
vt 1.000000 0.500000
vt 0.968750 0.500000
vt 1.000000 0.937500
vt 0.984375 1.000000
vt 0.968750 0.937500
vt 0.984375 0.000000
vt 1.000000 0.437500
vt 0.968750 0.437500
vt 1.000000 0.875000
vt 0.968750 0.875000
vt 1.000000 0.375000
vt 0.968750 0.375000
vt 1.000000 0.812500
vt 0.968750 0.812500
vt 1.000000 0.312500
vt 0.968750 0.312500
vt 1.000000 0.750000
vt 0.968750 0.750000
vt 1.000000 0.250000
vt 0.968750 0.250000
vt 1.000000 0.687500
vt 1.000000 0.187500
vt 0.937500 0.437500
vt 0.937500 0.375000
vt 0.937500 0.875000
vt 0.937500 0.812500
vt 0.937500 0.312500
vt 0.937500 0.750000
vt 0.937500 0.250000
vt 0.937500 0.687500
vt 0.937500 0.187500
vt 0.937500 0.625000
vt 0.937500 0.125000
vt 0.937500 0.562500
vt 0.937500 0.062500
vt 0.937500 0.500000
vt 0.953125 1.000000
vt 0.937500 0.937500
vt 0.953125 0.000000
vt 0.906250 0.187500
vt 0.906250 0.125000
vt 0.906250 0.625000
vt 0.906250 0.562500
vt 0.906250 0.062500
vt 0.906250 0.500000
vt 0.921875 1.000000
vt 0.906250 0.937500
vt 0.921875 0.000000
vt 0.906250 0.437500
vt 0.906250 0.875000
vt 0.906250 0.375000
vt 0.906250 0.812500
vt 0.906250 0.312500
vt 0.906250 0.750000
vt 0.906250 0.250000
vt 0.906250 0.687500
vt 0.875000 0.375000
vt 0.875000 0.312500
vt 0.875000 0.812500
vt 0.875000 0.750000
vt 0.875000 0.250000
vt 0.875000 0.687500
vt 0.875000 0.187500
vt 0.875000 0.625000
vt 0.875000 0.125000
vt 0.875000 0.562500
vt 0.875000 0.062500
vt 0.875000 0.500000
vt 0.890625 1.000000
vt 0.875000 0.937500
vt 0.890625 0.000000
vt 0.875000 0.437500
vt 0.875000 0.875000
vt 0.843750 0.062500
vt 0.843750 0.562500
vt 0.843750 0.500000
vt 0.859375 1.000000
vt 0.843750 0.937500
vt 0.859375 0.000000
vt 0.843750 0.437500
vt 0.843750 0.875000
vt 0.843750 0.375000
vt 0.843750 0.812500
vt 0.843750 0.312500
vt 0.843750 0.750000
vt 0.843750 0.250000
vt 0.843750 0.687500
vt 0.843750 0.187500
vt 0.843750 0.625000
vt 0.843750 0.125000
vt 0.812500 0.812500
vt 0.812500 0.750000
vt 0.812500 0.312500
vt 0.812500 0.250000
vt 0.812500 0.687500
vt 0.812500 0.187500
vt 0.812500 0.625000
vt 0.812500 0.125000
vt 0.812500 0.562500
vt 0.812500 0.062500
vt 0.812500 0.500000
vt 0.828125 1.000000
vt 0.812500 0.937500
vt 0.828125 0.000000
vt 0.812500 0.437500
vt 0.812500 0.875000
vt 0.812500 0.375000
vt 0.781250 0.562500
vt 0.781250 0.500000
vt 0.796875 1.000000
vt 0.781250 0.937500
vt 0.796875 0.000000
vt 0.781250 0.062500
vt 0.781250 0.437500
vt 0.781250 0.875000
vt 0.781250 0.375000
vt 0.781250 0.812500
vt 0.781250 0.312500
vt 0.781250 0.750000
vt 0.781250 0.250000
vt 0.781250 0.687500
vt 0.781250 0.187500
vt 0.781250 0.625000
vt 0.781250 0.125000
vt 0.765625 1.000000
vt 0.765625 0.000000
s 0
usemtl Feet
f 1/1/1 10/2/1 476/3/1
f 6/4/2 18/5/2 479/6/2
f 476/3/3 11/7/3 2/8/3
f 479/6/4 19/9/4 480/10/4
f 2/8/5 12/11/5 477/12/5
f 480/10/6 20/13/6 481/14/6
f 477/12/7 13/15/7 3/16/7
f 482/17/8 20/13/8 21/18/8
f 3/16/9 14/19/9 4/20/9
f 474/21/10 82/22/10 7/23/10
f 308/24/11 482/17/11 21/18/11
f 4/20/12 15/25/12 5/26/12
f 474/21/13 8/27/13 475/28/13
f 5/26/14 16/29/14 478/30/14
f 475/28/15 9/31/15 1/1/15
f 478/30/16 17/32/16 6/4/16
f 8/27/17 24/33/17 9/31/17
f 16/29/18 32/34/18 17/32/18
f 9/31/19 25/35/19 10/2/19
f 17/32/20 33/36/20 18/5/20
f 10/2/21 26/37/21 11/7/21
f 18/5/22 34/38/22 19/9/22
f 11/7/23 27/39/23 12/11/23
f 19/9/24 35/40/24 20/13/24
f 12/11/25 28/41/25 13/15/25
f 21/18/26 35/40/26 36/42/26
f 13/15/27 29/43/27 14/19/27
f 7/23/28 82/44/28 22/45/28
f 308/46/29 21/18/29 36/42/29
f 14/19/30 30/47/30 15/25/30
f 7/23/31 23/48/31 8/27/31
f 15/25/32 31/49/32 16/29/32
f 27/39/33 43/50/33 28/41/33
f 36/42/34 50/51/34 51/52/34
f 28/41/35 44/53/35 29/43/35
f 22/45/36 82/54/36 37/55/36
f 308/56/37 36/42/37 51/52/37
f 29/43/38 45/57/38 30/47/38
f 22/45/39 38/58/39 23/48/39
f 30/47/40 46/59/40 31/49/40
f 23/48/41 39/60/41 24/33/41
f 31/49/42 47/61/42 32/34/42
f 24/33/43 40/62/43 25/35/43
f 32/34/44 48/63/44 33/36/44
f 25/35/45 41/64/45 26/37/45
f 33/36/46 49/65/46 34/38/46
f 26/37/47 42/66/47 27/39/47
f 34/38/48 50/51/48 35/40/48
f 46/59/49 62/67/49 47/61/49
f 39/60/50 55/68/50 40/62/50
f 47/61/51 63/69/51 48/63/51
f 40/62/52 56/70/52 41/64/52
f 48/63/53 64/71/53 49/65/53
f 41/64/54 57/72/54 42/66/54
f 49/65/55 65/73/55 50/51/55
f 42/66/56 58/74/56 43/50/56
f 51/52/57 65/73/57 66/75/57
f 43/50/58 59/76/58 44/53/58
f 37/55/59 82/77/59 52/78/59
f 308/79/60 51/52/60 66/75/60
f 44/53/61 60/80/61 45/57/61
f 37/55/62 53/81/62 38/58/62
f 45/57/63 61/82/63 46/59/63
f 38/58/64 54/83/64 39/60/64
f 66/75/65 80/84/65 81/85/65
f 58/74/66 74/86/66 59/76/66
f 52/78/67 82/87/67 67/88/67
f 308/89/68 66/75/68 81/85/68
f 59/76/69 75/90/69 60/80/69
f 52/78/70 68/91/70 53/81/70
f 60/80/71 76/92/71 61/82/71
f 53/81/72 69/93/72 54/83/72
f 61/82/73 77/94/73 62/67/73
f 54/83/74 70/95/74 55/68/74
f 62/67/75 78/96/75 63/69/75
f 55/68/76 71/97/76 56/70/76
f 63/69/77 79/98/77 64/71/77
f 56/70/78 72/99/78 57/72/78
f 64/71/79 80/84/79 65/73/79
f 57/72/80 73/100/80 58/74/80
f 69/93/81 86/101/81 70/95/81
f 77/94/82 94/102/82 78/96/82
f 70/95/83 87/103/83 71/97/83
f 78/96/84 95/104/84 79/98/84
f 71/97/85 88/105/85 72/99/85
f 79/98/86 96/106/86 80/84/86
f 72/99/87 89/107/87 73/100/87
f 80/84/88 97/108/88 81/85/88
f 73/100/89 90/109/89 74/86/89
f 67/88/90 82/110/90 83/111/90
f 308/112/91 81/85/91 97/108/91
f 74/86/92 91/113/92 75/90/92
f 67/88/93 84/114/93 68/91/93
f 75/90/94 92/115/94 76/92/94
f 68/91/95 85/116/95 69/93/95
f 76/92/96 93/117/96 77/94/96
f 89/107/97 105/118/97 90/109/97
f 83/111/98 82/119/98 98/120/98
f 308/121/99 97/108/99 112/122/99
f 90/109/100 106/123/100 91/113/100
f 83/111/101 99/124/101 84/114/101
f 91/113/102 107/125/102 92/115/102
f 84/114/103 100/126/103 85/116/103
f 92/115/104 108/127/104 93/117/104
f 85/116/105 101/128/105 86/101/105
f 93/117/106 109/129/106 94/102/106
f 86/101/107 102/130/107 87/103/107
f 94/102/108 110/131/108 95/104/108
f 87/103/109 103/132/109 88/105/109
f 95/104/110 111/133/110 96/106/110
f 88/105/111 104/134/111 89/107/111
f 96/106/112 112/122/112 97/108/112
f 108/127/113 124/135/113 109/129/113
f 101/128/114 117/136/114 102/130/114
f 109/129/115 125/137/115 110/131/115
f 102/130/116 118/138/116 103/132/116
f 110/131/117 126/139/117 111/133/117
f 103/132/118 119/140/118 104/134/118
f 111/133/119 127/141/119 112/122/119
f 104/134/120 120/142/120 105/118/120
f 98/120/121 82/143/121 113/144/121
f 308/145/122 112/122/122 127/141/122
f 105/118/123 121/146/123 106/123/123
f 98/120/124 114/147/124 99/124/124
f 106/123/125 122/148/125 107/125/125
f 99/124/126 115/149/126 100/126/126
f 107/125/127 123/150/127 108/127/127
f 100/126/128 116/151/128 101/128/128
f 308/152/129 127/141/129 142/153/129
f 120/142/130 136/154/130 121/146/130
f 113/144/131 129/155/131 114/147/131
f 121/146/132 137/156/132 122/148/132
f 114/147/133 130/157/133 115/149/133
f 122/148/134 138/158/134 123/150/134
f 115/149/135 131/159/135 116/151/135
f 123/150/136 139/160/136 124/135/136
f 116/151/137 132/161/137 117/136/137
f 124/135/138 140/162/138 125/137/138
f 117/136/139 133/163/139 118/138/139
f 125/137/140 141/164/140 126/139/140
f 118/138/141 134/165/141 119/140/141
f 126/139/142 142/153/142 127/141/142
f 119/140/143 135/166/143 120/142/143
f 113/144/144 82/167/144 128/168/144
f 139/160/145 155/169/145 140/162/145
f 132/161/146 148/170/146 133/163/146
f 140/162/147 156/171/147 141/164/147
f 133/163/148 149/172/148 134/165/148
f 141/164/149 157/173/149 142/153/149
f 134/165/150 150/174/150 135/166/150
f 128/168/151 82/175/151 143/176/151
f 308/177/152 142/153/152 157/173/152
f 135/166/153 151/178/153 136/154/153
f 128/168/154 144/179/154 129/155/154
f 136/154/155 152/180/155 137/156/155
f 129/155/156 145/181/156 130/157/156
f 137/156/157 153/182/157 138/158/157
f 130/157/158 146/183/158 131/159/158
f 138/158/159 154/184/159 139/160/159
f 131/159/160 147/185/160 132/161/160
f 143/176/161 159/186/161 144/179/161
f 151/178/162 167/187/162 152/180/162
f 144/179/163 160/188/163 145/181/163
f 152/180/164 168/189/164 153/182/164
f 145/181/165 161/190/165 146/183/165
f 153/182/166 169/191/166 154/184/166
f 146/183/167 162/192/167 147/185/167
f 154/184/168 170/193/168 155/169/168
f 147/185/169 163/194/169 148/170/169
f 155/169/170 171/195/170 156/171/170
f 148/170/171 164/196/171 149/172/171
f 156/171/172 172/197/172 157/173/172
f 149/172/173 165/198/173 150/174/173
f 143/176/174 82/199/174 158/200/174
f 308/201/175 157/173/175 172/197/175
f 150/174/176 166/202/176 151/178/176
f 162/192/177 178/203/177 163/194/177
f 170/193/178 186/204/178 171/195/178
f 163/194/179 179/205/179 164/196/179
f 171/195/180 187/206/180 172/197/180
f 164/196/181 180/207/181 165/198/181
f 158/200/182 82/208/182 173/209/182
f 308/210/183 172/197/183 187/206/183
f 165/198/184 181/211/184 166/202/184
f 159/186/185 173/209/185 174/212/185
f 166/202/186 182/213/186 167/187/186
f 159/186/187 175/214/187 160/188/187
f 167/187/188 183/215/188 168/189/188
f 160/188/189 176/216/189 161/190/189
f 168/189/190 184/217/190 169/191/190
f 161/190/191 177/218/191 162/192/191
f 169/191/192 185/219/192 170/193/192
f 181/211/193 197/220/193 182/213/193
f 174/212/194 190/221/194 175/214/194
f 182/213/195 198/222/195 183/215/195
f 175/214/196 191/223/196 176/216/196
f 183/215/197 199/224/197 184/217/197
f 176/216/198 192/225/198 177/218/198
f 184/217/199 200/226/199 185/219/199
f 177/218/200 193/227/200 178/203/200
f 185/219/201 201/228/201 186/204/201
f 178/203/202 194/229/202 179/205/202
f 186/204/203 202/230/203 187/206/203
f 179/205/204 195/231/204 180/207/204
f 173/209/205 82/232/205 188/233/205
f 308/234/206 187/206/206 202/230/206
f 180/207/207 196/235/207 181/211/207
f 174/212/208 188/233/208 189/236/208
f 200/226/209 216/237/209 201/228/209
f 193/227/210 209/238/210 194/229/210
f 201/228/211 217/239/211 202/230/211
f 194/229/212 210/240/212 195/231/212
f 188/233/213 82/241/213 203/242/213
f 308/243/214 202/230/214 217/239/214
f 195/231/215 211/244/215 196/235/215
f 189/236/216 203/242/216 204/245/216
f 196/235/217 212/246/217 197/220/217
f 189/236/218 205/247/218 190/221/218
f 197/220/219 213/248/219 198/222/219
f 190/221/220 206/249/220 191/223/220
f 198/222/221 214/250/221 199/224/221
f 191/223/222 207/251/222 192/225/222
f 199/224/223 215/252/223 200/226/223
f 192/225/224 208/253/224 193/227/224
f 204/245/225 220/254/225 205/247/225
f 212/246/226 228/255/226 213/248/226
f 205/247/227 221/256/227 206/249/227
f 213/248/228 229/257/228 214/250/228
f 206/249/229 222/258/229 207/251/229
f 214/250/230 230/259/230 215/252/230
f 207/251/231 223/260/231 208/253/231
f 215/252/232 231/261/232 216/237/232
f 208/253/233 224/262/233 209/238/233
f 216/237/234 232/263/234 217/239/234
f 209/238/235 225/264/235 210/240/235
f 203/242/236 82/265/236 218/266/236
f 308/267/237 217/239/237 232/263/237
f 210/240/238 226/268/238 211/244/238
f 204/245/239 218/266/239 219/269/239
f 211/244/240 227/270/240 212/246/240
f 223/260/241 239/271/241 224/262/241
f 231/261/242 247/272/242 232/263/242
f 224/262/243 240/273/243 225/264/243
f 218/266/244 82/274/244 233/275/244
f 308/276/245 232/263/245 247/272/245
f 225/264/246 241/277/246 226/268/246
f 219/269/247 233/275/247 234/278/247
f 226/268/248 242/279/248 227/270/248
f 219/269/249 235/280/249 220/254/249
f 227/270/250 243/281/250 228/255/250
f 220/254/251 236/282/251 221/256/251
f 228/255/252 244/283/252 229/257/252
f 221/256/253 237/284/253 222/258/253
f 229/257/254 245/285/254 230/259/254
f 222/258/255 238/286/255 223/260/255
f 230/259/256 246/287/256 231/261/256
f 243/281/257 257/288/257 258/289/257
f 236/282/258 250/290/258 251/291/258
f 244/283/259 258/289/259 259/292/259
f 237/284/260 251/291/260 252/293/260
f 245/285/261 259/292/261 260/294/261
f 238/286/262 252/293/262 253/295/262
f 246/287/263 260/294/263 261/296/263
f 239/271/264 253/295/264 254/297/264
f 247/272/265 261/296/265 262/298/265
f 240/273/266 254/297/266 255/299/266
f 233/275/267 82/300/267 248/301/267
f 308/302/268 247/272/268 262/298/268
f 241/277/269 255/299/269 256/303/269
f 233/275/270 249/304/270 234/278/270
f 242/279/271 256/303/271 257/288/271
f 235/280/272 249/304/272 250/290/272
f 262/298/273 276/305/273 277/306/273
f 255/299/274 269/307/274 270/308/274
f 248/301/275 82/309/275 263/310/275
f 308/311/276 262/298/276 277/306/276
f 256/303/277 270/308/277 271/312/277
f 248/301/278 264/313/278 249/304/278
f 257/288/279 271/312/279 272/314/279
f 250/290/280 264/313/280 265/315/280
f 258/289/281 272/314/281 273/316/281
f 251/291/282 265/315/282 266/317/282
f 259/292/283 273/316/283 274/318/283
f 252/293/284 266/317/284 267/319/284
f 260/294/285 274/318/285 275/320/285
f 253/295/286 267/319/286 268/321/286
f 261/296/287 275/320/287 276/305/287
f 254/297/288 268/321/288 269/307/288
f 274/318/289 288/322/289 289/323/289
f 267/319/290 281/324/290 282/325/290
f 275/320/291 289/323/291 290/326/291
f 268/321/292 282/325/292 283/327/292
f 276/305/293 290/326/293 291/328/293
f 269/307/294 283/327/294 284/329/294
f 277/306/295 291/328/295 292/330/295
f 270/308/296 284/329/296 285/331/296
f 263/310/297 82/332/297 278/333/297
f 308/334/298 277/306/298 292/330/298
f 271/312/299 285/331/299 286/335/299
f 263/310/300 279/336/300 264/313/300
f 272/314/301 286/335/301 287/337/301
f 265/315/302 279/336/302 280/338/302
f 273/316/303 287/337/303 288/322/303
f 266/317/304 280/338/304 281/324/304
f 278/333/305 82/339/305 293/340/305
f 308/341/306 292/330/306 307/342/306
f 286/335/307 300/343/307 301/344/307
f 278/333/308 294/345/308 279/336/308
f 287/337/309 301/344/309 302/346/309
f 280/338/310 294/345/310 295/347/310
f 288/322/311 302/346/311 303/348/311
f 281/324/312 295/347/312 296/349/312
f 289/323/313 303/348/313 304/350/313
f 282/325/314 296/349/314 297/351/314
f 290/326/315 304/350/315 305/352/315
f 283/327/316 297/351/316 298/353/316
f 291/328/317 305/352/317 306/354/317
f 284/329/318 298/353/318 299/355/318
f 292/330/319 306/354/319 307/342/319
f 285/331/320 299/355/320 300/343/320
f 297/351/321 312/356/321 313/357/321
f 305/352/322 320/358/322 321/359/322
f 298/353/323 313/357/323 314/360/323
f 306/354/324 321/359/324 322/361/324
f 299/355/325 314/360/325 315/362/325
f 307/342/326 322/361/326 323/363/326
f 300/343/327 315/362/327 316/364/327
f 293/340/328 82/365/328 309/366/328
f 308/367/329 307/342/329 323/363/329
f 301/344/330 316/364/330 317/368/330
f 293/340/331 310/369/331 294/345/331
f 302/346/332 317/368/332 318/370/332
f 295/347/333 310/369/333 311/371/333
f 303/348/334 318/370/334 319/372/334
f 296/349/335 311/371/335 312/356/335
f 304/350/336 319/372/336 320/358/336
f 317/368/337 331/373/337 332/374/337
f 310/369/338 324/375/338 325/376/338
f 318/370/339 332/374/339 333/377/339
f 311/371/340 325/376/340 326/378/340
f 319/372/341 333/377/341 334/379/341
f 312/356/342 326/378/342 327/380/342
f 320/358/343 334/379/343 335/381/343
f 313/357/344 327/380/344 328/382/344
f 321/359/345 335/381/345 336/383/345
f 314/360/346 328/382/346 329/384/346
f 322/361/347 336/383/347 337/385/347
f 315/362/348 329/384/348 330/386/348
f 323/363/349 337/385/349 338/387/349
f 316/364/350 330/386/350 331/373/350
f 309/366/351 82/388/351 324/375/351
f 308/389/352 323/363/352 338/387/352
f 336/383/353 350/390/353 351/391/353
f 329/384/354 343/392/354 344/393/354
f 337/385/355 351/391/355 352/394/355
f 330/386/356 344/393/356 345/395/356
f 338/387/357 352/394/357 353/396/357
f 331/373/358 345/395/358 346/397/358
f 324/375/359 82/398/359 339/399/359
f 308/400/360 338/387/360 353/396/360
f 332/374/361 346/397/361 347/401/361
f 325/376/362 339/399/362 340/402/362
f 333/377/363 347/401/363 348/403/363
f 326/378/364 340/402/364 341/404/364
f 334/379/365 348/403/365 349/405/365
f 327/380/366 341/404/366 342/406/366
f 335/381/367 349/405/367 350/390/367
f 328/382/368 342/406/368 343/392/368
f 340/402/369 354/407/369 355/408/369
f 348/403/370 362/409/370 363/410/370
f 341/404/371 355/408/371 356/411/371
f 349/405/372 363/410/372 364/412/372
f 342/406/373 356/411/373 357/413/373
f 350/390/374 364/412/374 365/414/374
f 343/392/375 357/413/375 358/415/375
f 351/391/376 365/414/376 366/416/376
f 344/393/377 358/415/377 359/417/377
f 352/394/378 366/416/378 367/418/378
f 345/395/379 359/417/379 360/419/379
f 353/396/380 367/418/380 368/420/380
f 346/397/381 360/419/381 361/421/381
f 339/399/382 82/422/382 354/407/382
f 308/423/383 353/396/383 368/420/383
f 347/401/384 361/421/384 362/409/384
f 359/424/385 373/425/385 374/426/385
f 367/427/386 381/428/386 382/429/386
f 360/430/387 374/426/387 375/431/387
f 368/432/388 382/429/388 383/433/388
f 361/434/389 375/431/389 376/435/389
f 354/436/390 82/437/390 369/438/390
f 308/439/391 368/432/391 383/433/391
f 362/440/392 376/435/392 377/441/392
f 355/442/393 369/438/393 370/443/393
f 363/444/394 377/441/394 378/445/394
f 356/446/395 370/443/395 371/447/395
f 364/448/396 378/445/396 379/449/396
f 357/450/397 371/447/397 372/451/397
f 365/452/398 379/449/398 380/453/398
f 358/454/399 372/451/399 373/425/399
f 366/455/400 380/453/400 381/428/400
f 378/445/401 392/456/401 393/457/401
f 371/447/402 385/458/402 386/459/402
f 379/449/403 393/457/403 394/460/403
f 372/451/404 386/459/404 387/461/404
f 380/453/405 394/460/405 395/462/405
f 373/425/406 387/461/406 388/463/406
f 381/428/407 395/462/407 396/464/407
f 374/426/408 388/463/408 389/465/408
f 382/429/409 396/464/409 397/466/409
f 375/431/410 389/465/410 390/467/410
f 383/433/411 397/466/411 398/468/411
f 376/435/412 390/467/412 391/469/412
f 369/438/413 82/470/413 384/471/413
f 308/472/414 383/433/414 398/468/414
f 377/441/415 391/469/415 392/456/415
f 370/443/416 384/471/416 385/458/416
f 397/466/417 411/473/417 412/474/417
f 390/467/418 404/475/418 405/476/418
f 398/468/419 412/474/419 413/477/419
f 391/469/420 405/476/420 406/478/420
f 384/471/421 82/479/421 399/480/421
f 308/481/422 398/468/422 413/477/422
f 392/456/423 406/478/423 407/482/423
f 385/458/424 399/480/424 400/483/424
f 393/457/425 407/482/425 408/484/425
f 386/459/426 400/483/426 401/485/426
f 394/460/427 408/484/427 409/486/427
f 387/461/428 401/485/428 402/487/428
f 395/462/429 409/486/429 410/488/429
f 388/463/430 402/487/430 403/489/430
f 396/464/431 410/488/431 411/473/431
f 389/465/432 403/489/432 404/475/432
f 409/486/433 423/490/433 424/491/433
f 402/487/434 416/492/434 417/493/434
f 410/488/435 424/491/435 425/494/435
f 403/489/436 417/493/436 418/495/436
f 411/473/437 425/494/437 426/496/437
f 404/475/438 418/495/438 419/497/438
f 412/474/439 426/496/439 427/498/439
f 405/476/440 419/497/440 420/499/440
f 412/474/441 428/500/441 413/477/441
f 406/478/442 420/499/442 421/501/442
f 399/480/443 82/502/443 414/503/443
f 308/504/444 413/477/444 428/500/444
f 407/482/445 421/501/445 422/505/445
f 400/483/446 414/503/446 415/506/446
f 408/484/447 422/505/447 423/490/447
f 401/485/448 415/506/448 416/492/448
f 427/498/449 443/507/449 428/500/449
f 421/501/450 435/508/450 436/509/450
f 414/503/451 82/510/451 429/511/451
f 308/512/452 428/500/452 443/507/452
f 422/505/453 436/509/453 437/513/453
f 415/506/454 429/511/454 430/514/454
f 423/490/455 437/513/455 438/515/455
f 416/492/456 430/514/456 431/516/456
f 424/491/457 438/515/457 439/517/457
f 417/493/458 431/516/458 432/518/458
f 425/494/459 439/517/459 440/519/459
f 418/495/460 432/518/460 433/520/460
f 426/496/461 440/519/461 441/521/461
f 419/497/462 433/520/462 434/522/462
f 427/498/463 441/521/463 442/523/463
f 420/499/464 434/522/464 435/508/464
f 432/518/465 446/524/465 447/525/465
f 440/519/466 454/526/466 455/527/466
f 433/520/467 447/525/467 448/528/467
f 441/521/468 455/527/468 456/529/468
f 434/522/469 448/528/469 449/530/469
f 442/523/470 456/529/470 457/531/470
f 435/508/471 449/530/471 450/532/471
f 442/523/472 458/533/472 443/507/472
f 436/509/473 450/532/473 451/534/473
f 429/511/474 82/535/474 444/536/474
f 308/537/475 443/507/475 458/533/475
f 437/513/476 451/534/476 452/538/476
f 430/514/477 444/536/477 445/539/477
f 438/515/478 452/538/478 453/540/478
f 431/516/479 445/539/479 446/524/479
f 439/517/480 453/540/480 454/526/480
f 451/534/481 465/541/481 466/542/481
f 444/536/482 82/543/482 459/544/482
f 308/545/483 458/533/483 473/546/483
f 452/538/484 466/542/484 467/547/484
f 445/539/485 459/544/485 460/548/485
f 453/540/486 467/547/486 468/549/486
f 446/524/487 460/548/487 461/550/487
f 454/526/488 468/549/488 469/551/488
f 447/525/489 461/550/489 462/552/489
f 455/527/490 469/551/490 470/553/490
f 448/528/491 462/552/491 463/554/491
f 456/529/492 470/553/492 471/555/492
f 449/530/493 463/554/493 464/556/493
f 457/531/494 471/555/494 472/557/494
f 450/532/495 464/556/495 465/541/495
f 457/531/496 473/546/496 458/533/496
f 470/553/497 6/4/497 479/6/497
f 463/554/498 476/3/498 2/8/498
f 471/555/499 479/6/499 480/10/499
f 464/556/500 2/8/500 477/12/500
f 472/557/501 480/10/501 481/14/501
f 465/541/502 477/12/502 3/16/502
f 472/557/503 482/17/503 473/546/503
f 466/542/504 3/16/504 4/20/504
f 459/544/505 82/558/505 474/21/505
f 308/559/506 473/546/506 482/17/506
f 467/547/507 4/20/507 5/26/507
f 460/548/508 474/21/508 475/28/508
f 468/549/509 5/26/509 478/30/509
f 461/550/510 475/28/510 1/1/510
f 469/551/511 478/30/511 6/4/511
f 462/552/512 1/1/512 476/3/512
f 1/1/1 9/31/1 10/2/1
f 6/4/2 17/32/2 18/5/2
f 476/3/3 10/2/3 11/7/3
f 479/6/4 18/5/4 19/9/4
f 2/8/5 11/7/5 12/11/5
f 480/10/6 19/9/6 20/13/6
f 477/12/7 12/11/7 13/15/7
f 482/17/8 481/14/8 20/13/8
f 3/16/9 13/15/9 14/19/9
f 4/20/12 14/19/12 15/25/12
f 474/21/13 7/23/13 8/27/13
f 5/26/14 15/25/14 16/29/14
f 475/28/15 8/27/15 9/31/15
f 478/30/16 16/29/16 17/32/16
f 8/27/17 23/48/17 24/33/17
f 16/29/18 31/49/18 32/34/18
f 9/31/19 24/33/19 25/35/19
f 17/32/20 32/34/20 33/36/20
f 10/2/21 25/35/21 26/37/21
f 18/5/22 33/36/22 34/38/22
f 11/7/23 26/37/23 27/39/23
f 19/9/24 34/38/24 35/40/24
f 12/11/25 27/39/25 28/41/25
f 21/18/26 20/13/26 35/40/26
f 13/15/27 28/41/27 29/43/27
f 14/19/30 29/43/30 30/47/30
f 7/23/513 22/45/513 23/48/513
f 15/25/32 30/47/32 31/49/32
f 27/39/33 42/66/33 43/50/33
f 36/42/34 35/40/34 50/51/34
f 28/41/35 43/50/35 44/53/35
f 29/43/38 44/53/38 45/57/38
f 22/45/39 37/55/39 38/58/39
f 30/47/40 45/57/40 46/59/40
f 23/48/41 38/58/41 39/60/41
f 31/49/42 46/59/42 47/61/42
f 24/33/43 39/60/43 40/62/43
f 32/34/44 47/61/44 48/63/44
f 25/35/45 40/62/45 41/64/45
f 33/36/46 48/63/46 49/65/46
f 26/37/47 41/64/47 42/66/47
f 34/38/48 49/65/48 50/51/48
f 46/59/49 61/82/49 62/67/49
f 39/60/50 54/83/50 55/68/50
f 47/61/51 62/67/51 63/69/51
f 40/62/52 55/68/52 56/70/52
f 48/63/53 63/69/53 64/71/53
f 41/64/54 56/70/54 57/72/54
f 49/65/55 64/71/55 65/73/55
f 42/66/56 57/72/56 58/74/56
f 51/52/57 50/51/57 65/73/57
f 43/50/58 58/74/58 59/76/58
f 44/53/61 59/76/61 60/80/61
f 37/55/62 52/78/62 53/81/62
f 45/57/63 60/80/63 61/82/63
f 38/58/64 53/81/64 54/83/64
f 66/75/65 65/73/65 80/84/65
f 58/74/66 73/100/66 74/86/66
f 59/76/69 74/86/69 75/90/69
f 52/78/70 67/88/70 68/91/70
f 60/80/71 75/90/71 76/92/71
f 53/81/72 68/91/72 69/93/72
f 61/82/73 76/92/73 77/94/73
f 54/83/74 69/93/74 70/95/74
f 62/67/75 77/94/75 78/96/75
f 55/68/76 70/95/76 71/97/76
f 63/69/77 78/96/77 79/98/77
f 56/70/78 71/97/78 72/99/78
f 64/71/79 79/98/79 80/84/79
f 57/72/80 72/99/80 73/100/80
f 69/93/81 85/116/81 86/101/81
f 77/94/82 93/117/82 94/102/82
f 70/95/83 86/101/83 87/103/83
f 78/96/84 94/102/84 95/104/84
f 71/97/85 87/103/85 88/105/85
f 79/98/86 95/104/86 96/106/86
f 72/99/87 88/105/87 89/107/87
f 80/84/88 96/106/88 97/108/88
f 73/100/89 89/107/89 90/109/89
f 74/86/92 90/109/92 91/113/92
f 67/88/93 83/111/93 84/114/93
f 75/90/94 91/113/94 92/115/94
f 68/91/95 84/114/95 85/116/95
f 76/92/96 92/115/96 93/117/96
f 89/107/97 104/134/97 105/118/97
f 90/109/100 105/118/100 106/123/100
f 83/111/101 98/120/101 99/124/101
f 91/113/102 106/123/102 107/125/102
f 84/114/103 99/124/103 100/126/103
f 92/115/104 107/125/104 108/127/104
f 85/116/105 100/126/105 101/128/105
f 93/117/106 108/127/106 109/129/106
f 86/101/107 101/128/107 102/130/107
f 94/102/108 109/129/108 110/131/108
f 87/103/109 102/130/109 103/132/109
f 95/104/110 110/131/110 111/133/110
f 88/105/111 103/132/111 104/134/111
f 96/106/112 111/133/112 112/122/112
f 108/127/113 123/150/113 124/135/113
f 101/128/114 116/151/114 117/136/114
f 109/129/115 124/135/115 125/137/115
f 102/130/116 117/136/116 118/138/116
f 110/131/117 125/137/117 126/139/117
f 103/132/118 118/138/118 119/140/118
f 111/133/119 126/139/119 127/141/119
f 104/134/120 119/140/120 120/142/120
f 105/118/123 120/142/123 121/146/123
f 98/120/124 113/144/124 114/147/124
f 106/123/125 121/146/125 122/148/125
f 99/124/126 114/147/126 115/149/126
f 107/125/127 122/148/127 123/150/127
f 100/126/128 115/149/128 116/151/128
f 120/142/130 135/166/130 136/154/130
f 113/144/131 128/168/131 129/155/131
f 121/146/132 136/154/132 137/156/132
f 114/147/133 129/155/133 130/157/133
f 122/148/134 137/156/134 138/158/134
f 115/149/135 130/157/135 131/159/135
f 123/150/136 138/158/136 139/160/136
f 116/151/137 131/159/137 132/161/137
f 124/135/138 139/160/138 140/162/138
f 117/136/139 132/161/139 133/163/139
f 125/137/140 140/162/140 141/164/140
f 118/138/141 133/163/141 134/165/141
f 126/139/142 141/164/142 142/153/142
f 119/140/143 134/165/143 135/166/143
f 139/160/145 154/184/145 155/169/145
f 132/161/146 147/185/146 148/170/146
f 140/162/147 155/169/147 156/171/147
f 133/163/148 148/170/148 149/172/148
f 141/164/149 156/171/149 157/173/149
f 134/165/150 149/172/150 150/174/150
f 135/166/153 150/174/153 151/178/153
f 128/168/154 143/176/154 144/179/154
f 136/154/155 151/178/155 152/180/155
f 129/155/156 144/179/156 145/181/156
f 137/156/157 152/180/157 153/182/157
f 130/157/158 145/181/158 146/183/158
f 138/158/159 153/182/159 154/184/159
f 131/159/160 146/183/160 147/185/160
f 143/176/161 158/200/161 159/186/161
f 151/178/162 166/202/162 167/187/162
f 144/179/163 159/186/163 160/188/163
f 152/180/164 167/187/164 168/189/164
f 145/181/165 160/188/165 161/190/165
f 153/182/166 168/189/166 169/191/166
f 146/183/167 161/190/167 162/192/167
f 154/184/168 169/191/168 170/193/168
f 147/185/169 162/192/169 163/194/169
f 155/169/170 170/193/170 171/195/170
f 148/170/171 163/194/171 164/196/171
f 156/171/172 171/195/172 172/197/172
f 149/172/173 164/196/173 165/198/173
f 150/174/176 165/198/176 166/202/176
f 162/192/177 177/218/177 178/203/177
f 170/193/178 185/219/178 186/204/178
f 163/194/179 178/203/179 179/205/179
f 171/195/180 186/204/180 187/206/180
f 164/196/181 179/205/181 180/207/181
f 165/198/184 180/207/184 181/211/184
f 159/186/514 158/200/514 173/209/514
f 166/202/186 181/211/186 182/213/186
f 159/186/187 174/212/187 175/214/187
f 167/187/188 182/213/188 183/215/188
f 160/188/189 175/214/189 176/216/189
f 168/189/190 183/215/190 184/217/190
f 161/190/515 176/216/515 177/218/515
f 169/191/192 184/217/192 185/219/192
f 181/211/193 196/235/193 197/220/193
f 174/212/194 189/236/194 190/221/194
f 182/213/195 197/220/195 198/222/195
f 175/214/196 190/221/196 191/223/196
f 183/215/197 198/222/197 199/224/197
f 176/216/198 191/223/198 192/225/198
f 184/217/199 199/224/199 200/226/199
f 177/218/200 192/225/200 193/227/200
f 185/219/201 200/226/201 201/228/201
f 178/203/202 193/227/202 194/229/202
f 186/204/516 201/228/516 202/230/516
f 179/205/204 194/229/204 195/231/204
f 180/207/207 195/231/207 196/235/207
f 174/212/517 173/209/517 188/233/517
f 200/226/209 215/252/209 216/237/209
f 193/227/210 208/253/210 209/238/210
f 201/228/211 216/237/211 217/239/211
f 194/229/212 209/238/212 210/240/212
f 195/231/215 210/240/215 211/244/215
f 189/236/216 188/233/216 203/242/216
f 196/235/217 211/244/217 212/246/217
f 189/236/218 204/245/218 205/247/218
f 197/220/219 212/246/219 213/248/219
f 190/221/220 205/247/220 206/249/220
f 198/222/221 213/248/221 214/250/221
f 191/223/222 206/249/222 207/251/222
f 199/224/223 214/250/223 215/252/223
f 192/225/224 207/251/224 208/253/224
f 204/245/225 219/269/225 220/254/225
f 212/246/226 227/270/226 228/255/226
f 205/247/227 220/254/227 221/256/227
f 213/248/228 228/255/228 229/257/228
f 206/249/229 221/256/229 222/258/229
f 214/250/230 229/257/230 230/259/230
f 207/251/231 222/258/231 223/260/231
f 215/252/232 230/259/232 231/261/232
f 208/253/233 223/260/233 224/262/233
f 216/237/234 231/261/234 232/263/234
f 209/238/235 224/262/235 225/264/235
f 210/240/238 225/264/238 226/268/238
f 204/245/239 203/242/239 218/266/239
f 211/244/240 226/268/240 227/270/240
f 223/260/241 238/286/241 239/271/241
f 231/261/242 246/287/242 247/272/242
f 224/262/243 239/271/243 240/273/243
f 225/264/246 240/273/246 241/277/246
f 219/269/518 218/266/518 233/275/518
f 226/268/248 241/277/248 242/279/248
f 219/269/249 234/278/249 235/280/249
f 227/270/250 242/279/250 243/281/250
f 220/254/251 235/280/251 236/282/251
f 228/255/252 243/281/252 244/283/252
f 221/256/253 236/282/253 237/284/253
f 229/257/254 244/283/254 245/285/254
f 222/258/255 237/284/255 238/286/255
f 230/259/256 245/285/256 246/287/256
f 243/281/257 242/279/257 257/288/257
f 236/282/258 235/280/258 250/290/258
f 244/283/259 243/281/259 258/289/259
f 237/284/260 236/282/260 251/291/260
f 245/285/261 244/283/261 259/292/261
f 238/286/262 237/284/262 252/293/262
f 246/287/263 245/285/263 260/294/263
f 239/271/264 238/286/264 253/295/264
f 247/272/265 246/287/265 261/296/265
f 240/273/266 239/271/266 254/297/266
f 241/277/269 240/273/269 255/299/269
f 233/275/270 248/301/270 249/304/270
f 242/279/271 241/277/271 256/303/271
f 235/280/272 234/278/272 249/304/272
f 262/298/273 261/296/273 276/305/273
f 255/299/274 254/297/274 269/307/274
f 256/303/277 255/299/277 270/308/277
f 248/301/278 263/310/278 264/313/278
f 257/288/279 256/303/279 271/312/279
f 250/290/280 249/304/280 264/313/280
f 258/289/281 257/288/281 272/314/281
f 251/291/282 250/290/282 265/315/282
f 259/292/283 258/289/283 273/316/283
f 252/293/284 251/291/284 266/317/284
f 260/294/285 259/292/285 274/318/285
f 253/295/286 252/293/286 267/319/286
f 261/296/287 260/294/287 275/320/287
f 254/297/288 253/295/288 268/321/288
f 274/318/289 273/316/289 288/322/289
f 267/319/290 266/317/290 281/324/290
f 275/320/291 274/318/291 289/323/291
f 268/321/292 267/319/292 282/325/292
f 276/305/293 275/320/293 290/326/293
f 269/307/294 268/321/294 283/327/294
f 277/306/295 276/305/295 291/328/295
f 270/308/296 269/307/296 284/329/296
f 271/312/299 270/308/299 285/331/299
f 263/310/300 278/333/300 279/336/300
f 272/314/301 271/312/301 286/335/301
f 265/315/302 264/313/302 279/336/302
f 273/316/303 272/314/303 287/337/303
f 266/317/304 265/315/304 280/338/304
f 286/335/307 285/331/307 300/343/307
f 278/333/519 293/340/519 294/345/519
f 287/337/309 286/335/309 301/344/309
f 280/338/310 279/336/310 294/345/310
f 288/322/311 287/337/311 302/346/311
f 281/324/312 280/338/312 295/347/312
f 289/323/313 288/322/313 303/348/313
f 282/325/314 281/324/314 296/349/314
f 290/326/315 289/323/315 304/350/315
f 283/327/316 282/325/316 297/351/316
f 291/328/317 290/326/317 305/352/317
f 284/329/318 283/327/318 298/353/318
f 292/330/319 291/328/319 306/354/319
f 285/331/320 284/329/320 299/355/320
f 297/351/520 296/349/520 312/356/520
f 305/352/322 304/350/322 320/358/322
f 298/353/323 297/351/323 313/357/323
f 306/354/324 305/352/324 321/359/324
f 299/355/325 298/353/325 314/360/325
f 307/342/326 306/354/326 322/361/326
f 300/343/327 299/355/327 315/362/327
f 301/344/330 300/343/330 316/364/330
f 293/340/331 309/366/331 310/369/331
f 302/346/332 301/344/332 317/368/332
f 295/347/333 294/345/333 310/369/333
f 303/348/334 302/346/334 318/370/334
f 296/349/335 295/347/335 311/371/335
f 304/350/336 303/348/336 319/372/336
f 317/368/337 316/364/337 331/373/337
f 310/369/338 309/366/338 324/375/338
f 318/370/339 317/368/339 332/374/339
f 311/371/340 310/369/340 325/376/340
f 319/372/341 318/370/341 333/377/341
f 312/356/342 311/371/342 326/378/342
f 320/358/343 319/372/343 334/379/343
f 313/357/344 312/356/344 327/380/344
f 321/359/345 320/358/345 335/381/345
f 314/360/346 313/357/346 328/382/346
f 322/361/347 321/359/347 336/383/347
f 315/362/348 314/360/348 329/384/348
f 323/363/521 322/361/521 337/385/521
f 316/364/350 315/362/350 330/386/350
f 336/383/353 335/381/353 350/390/353
f 329/384/354 328/382/354 343/392/354
f 337/385/355 336/383/355 351/391/355
f 330/386/356 329/384/356 344/393/356
f 338/387/357 337/385/357 352/394/357
f 331/373/358 330/386/358 345/395/358
f 332/374/361 331/373/361 346/397/361
f 325/376/362 324/375/362 339/399/362
f 333/377/363 332/374/363 347/401/363
f 326/378/364 325/376/364 340/402/364
f 334/379/365 333/377/365 348/403/365
f 327/380/366 326/378/366 341/404/366
f 335/381/367 334/379/367 349/405/367
f 328/382/368 327/380/368 342/406/368
f 340/402/369 339/399/369 354/407/369
f 348/403/370 347/401/370 362/409/370
f 341/404/371 340/402/371 355/408/371
f 349/405/372 348/403/372 363/410/372
f 342/406/373 341/404/373 356/411/373
f 350/390/374 349/405/374 364/412/374
f 343/392/375 342/406/375 357/413/375
f 351/391/376 350/390/376 365/414/376
f 344/393/377 343/392/377 358/415/377
f 352/394/378 351/391/378 366/416/378
f 345/395/379 344/393/379 359/417/379
f 353/396/380 352/394/380 367/418/380
f 346/397/381 345/395/381 360/419/381
f 347/401/384 346/397/384 361/421/384
f 359/424/385 358/454/385 373/425/385
f 367/427/386 366/455/386 381/428/386
f 360/430/387 359/424/387 374/426/387
f 368/432/388 367/427/388 382/429/388
f 361/434/389 360/430/389 375/431/389
f 362/440/392 361/434/392 376/435/392
f 355/442/393 354/436/393 369/438/393
f 363/444/394 362/440/394 377/441/394
f 356/446/395 355/442/395 370/443/395
f 364/448/396 363/444/396 378/445/396
f 357/450/397 356/446/397 371/447/397
f 365/452/398 364/448/398 379/449/398
f 358/454/399 357/450/399 372/451/399
f 366/455/400 365/452/400 380/453/400
f 378/445/401 377/441/401 392/456/401
f 371/447/402 370/443/402 385/458/402
f 379/449/403 378/445/403 393/457/403
f 372/451/404 371/447/404 386/459/404
f 380/453/405 379/449/405 394/460/405
f 373/425/406 372/451/406 387/461/406
f 381/428/407 380/453/407 395/462/407
f 374/426/408 373/425/408 388/463/408
f 382/429/409 381/428/409 396/464/409
f 375/431/410 374/426/410 389/465/410
f 383/433/411 382/429/411 397/466/411
f 376/435/412 375/431/412 390/467/412
f 377/441/415 376/435/415 391/469/415
f 370/443/416 369/438/416 384/471/416
f 397/466/417 396/464/417 411/473/417
f 390/467/418 389/465/418 404/475/418
f 398/468/419 397/466/419 412/474/419
f 391/469/420 390/467/420 405/476/420
f 392/456/423 391/469/423 406/478/423
f 385/458/522 384/471/522 399/480/522
f 393/457/425 392/456/425 407/482/425
f 386/459/426 385/458/426 400/483/426
f 394/460/427 393/457/427 408/484/427
f 387/461/428 386/459/428 401/485/428
f 395/462/429 394/460/429 409/486/429
f 388/463/430 387/461/430 402/487/430
f 396/464/431 395/462/431 410/488/431
f 389/465/432 388/463/432 403/489/432
f 409/486/433 408/484/433 423/490/433
f 402/487/434 401/485/434 416/492/434
f 410/488/523 409/486/523 424/491/523
f 403/489/436 402/487/436 417/493/436
f 411/473/437 410/488/437 425/494/437
f 404/475/438 403/489/438 418/495/438
f 412/474/439 411/473/439 426/496/439
f 405/476/440 404/475/440 419/497/440
f 412/474/441 427/498/441 428/500/441
f 406/478/442 405/476/442 420/499/442
f 407/482/445 406/478/445 421/501/445
f 400/483/524 399/480/524 414/503/524
f 408/484/447 407/482/447 422/505/447
f 401/485/448 400/483/448 415/506/448
f 427/498/449 442/523/449 443/507/449
f 421/501/450 420/499/450 435/508/450
f 422/505/453 421/501/453 436/509/453
f 415/506/454 414/503/454 429/511/454
f 423/490/455 422/505/455 437/513/455
f 416/492/456 415/506/456 430/514/456
f 424/491/457 423/490/457 438/515/457
f 417/493/458 416/492/458 431/516/458
f 425/494/459 424/491/459 439/517/459
f 418/495/460 417/493/460 432/518/460
f 426/496/461 425/494/461 440/519/461
f 419/497/462 418/495/462 433/520/462
f 427/498/463 426/496/463 441/521/463
f 420/499/464 419/497/464 434/522/464
f 432/518/465 431/516/465 446/524/465
f 440/519/466 439/517/466 454/526/466
f 433/520/467 432/518/467 447/525/467
f 441/521/468 440/519/468 455/527/468
f 434/522/469 433/520/469 448/528/469
f 442/523/470 441/521/470 456/529/470
f 435/508/471 434/522/471 449/530/471
f 442/523/472 457/531/472 458/533/472
f 436/509/473 435/508/473 450/532/473
f 437/513/476 436/509/476 451/534/476
f 430/514/477 429/511/477 444/536/477
f 438/515/478 437/513/478 452/538/478
f 431/516/479 430/514/479 445/539/479
f 439/517/480 438/515/480 453/540/480
f 451/534/481 450/532/481 465/541/481
f 452/538/484 451/534/484 466/542/484
f 445/539/485 444/536/485 459/544/485
f 453/540/525 452/538/525 467/547/525
f 446/524/487 445/539/487 460/548/487
f 454/526/488 453/540/488 468/549/488
f 447/525/489 446/524/489 461/550/489
f 455/527/490 454/526/490 469/551/490
f 448/528/491 447/525/491 462/552/491
f 456/529/492 455/527/492 470/553/492
f 449/530/493 448/528/493 463/554/493
f 457/531/494 456/529/494 471/555/494
f 450/532/495 449/530/495 464/556/495
f 457/531/526 472/557/526 473/546/526
f 470/553/497 469/551/497 6/4/497
f 463/554/498 462/552/498 476/3/498
f 471/555/499 470/553/499 479/6/499
f 464/556/500 463/554/500 2/8/500
f 472/557/501 471/555/501 480/10/501
f 465/541/502 464/556/502 477/12/502
f 472/557/503 481/14/503 482/17/503
f 466/542/527 465/541/527 3/16/527
f 467/547/507 466/542/507 4/20/507
f 460/548/508 459/544/508 474/21/508
f 468/549/509 467/547/509 5/26/509
f 461/550/510 460/548/510 475/28/510
f 469/551/511 468/549/511 478/30/511
f 462/552/512 461/550/512 1/1/512
