# Blender 4.1.1
# www.blender.org
mtllib link_leg_0_L_0.mtl
o link_leg_0_L_0
v -2.139149 -2.747010 -1.204684
v -1.814770 -6.275640 -0.214685
v -2.304600 -2.803830 -0.661058
v -1.038213 -5.643220 -1.734033
v -1.124157 -2.943862 -1.964386
v -1.504872 -2.718707 -1.976161
v -2.352818 -2.274720 -1.746274
v -2.929043 -2.088199 -0.830261
v -2.747814 -1.801415 -1.674760
v -2.835640 -0.856770 -2.203108
v 0.084484 -3.149247 -1.921136
v 1.290313 -2.888436 -1.894674
v 2.047859 -2.510560 -1.766855
v 2.782345 -2.173197 -1.083692
v 2.389763 -2.683396 -0.882513
v 1.645759 -2.853060 -1.668357
v 1.292903 -4.959624 -1.734906
v 1.578468 -5.093547 -1.491133
v 2.004898 -3.125287 -0.079976
v 2.882637 -2.259424 0.617782
v 1.914257 -3.075696 0.738811
v 3.176838 -1.850519 -0.419272
v 3.530021 -1.107345 -0.131630
v 3.370903 -0.932680 -1.195691
v 3.653145 -0.162302 -0.500297
v 3.404289 0.182198 -1.430687
v 3.085373 -0.556287 -1.939032
v 3.002784 -1.486925 -1.543419
v -1.100651 2.425619 -2.548208
v -0.946952 3.020837 -1.909345
v 0.283940 2.837434 -2.342795
v 1.245343 2.940634 -1.878272
v 0.143994 3.360894 -1.547966
v -1.293682 3.282802 -1.118985
v 0.020546 3.625490 -0.706217
v 0.932335 3.430646 -1.010482
v 1.679833 3.271745 -0.307877
v 1.970467 2.882235 -1.225654
v 0.581200 3.651978 0.046941
v 0.768513 3.456575 1.073748
v 1.554470 3.336802 0.374152
v -0.217041 3.677369 0.359158
v -1.123733 3.508698 -0.294766
v -0.304760 3.404989 1.381127
v -1.003299 3.443617 0.918062
v -1.547599 2.857296 1.740579
v -0.631736 3.115504 1.885896
v -1.821037 3.214974 -0.163775
v -2.052806 2.972087 0.803117
v -2.382526 2.424450 1.462525
v -2.626384 2.588740 -0.026264
v -2.764507 2.378266 0.573336
v -3.244018 1.534798 0.914927
v -3.266876 1.744474 0.130167
v -3.595123 0.681303 -0.562892
v -3.137981 1.897480 -0.514715
v -3.604816 0.740082 0.319972
v -3.412476 0.606512 1.277922
v -3.681530 -0.200781 0.187007
v -3.546345 -0.182665 0.995918
v -3.320153 -1.133538 1.170458
v -3.307259 -0.124535 1.644757
v -2.999390 -0.243767 2.159957
v -2.866341 0.762003 2.197555
v -2.365685 -0.667193 2.759607
v -2.822159 -1.273982 2.017535
v -2.378208 0.247846 2.804055
v -1.748226 -0.014382 3.251743
v -2.276584 1.068926 2.711637
v -1.785164 1.024372 3.071091
v -1.734833 2.197399 2.404813
v -2.296055 1.909084 2.181359
v -1.251262 1.841265 2.943719
v -1.126770 0.313335 3.505465
v -1.094223 1.084629 3.345337
v -0.519195 1.766541 3.215677
v -0.625908 0.462551 3.617115
v -0.956741 -0.558867 3.518489
v 0.351353 1.162178 3.498559
v -0.002590 -0.073092 3.691610
v 0.290081 0.604734 3.623549
v 0.713970 0.158630 3.626900
v 1.813965 -0.006405 3.211690
v 1.424072 0.669592 3.333080
v 0.574814 -0.743174 3.566682
v 1.349117 -0.560795 3.393652
v 0.923672 -1.464791 3.262507
v 1.991642 -0.841091 2.992087
v 1.570453 -1.855490 2.791571
v 2.293880 -1.383963 2.548231
v 1.279762 -2.547358 2.346265
v 0.518024 -2.185242 2.926989
v 2.131435 -2.518662 1.688088
v 1.666984 -2.978049 1.448239
v 2.765789 -2.036143 1.368240
v 2.729416 -1.660212 1.844101
v 2.693676 -0.594849 2.463113
v 3.247226 -1.320181 1.158093
v 3.237309 -0.587929 1.672204
v 3.380558 0.379815 1.435110
v 2.862694 0.320803 2.315935
v 3.588100 -0.710853 0.562223
v 3.599861 -0.024969 0.819689
v 3.643677 0.589282 0.211238
v 3.357140 1.163380 0.984478
v 3.245201 1.769090 0.257224
v 3.560001 0.809827 -0.577570
v 3.247990 1.084599 -1.405355
v 3.172104 1.786357 -0.596761
v 2.401562 2.672411 -0.894989
v 2.771008 1.921445 -1.530372
v 2.550709 2.673034 -0.109634
v 2.449021 2.717514 0.492286
v 2.376740 2.517297 1.278280
v 2.879925 2.015462 1.168492
v 2.670727 1.777776 1.826208
v 3.052082 0.906292 1.861548
v 2.506886 1.192763 2.424950
v 1.956169 0.994400 2.962696
v 2.093891 2.039631 2.277255
v 2.335052 0.340143 2.836419
v 1.721096 2.927060 1.461140
v 1.258610 2.524280 2.400421
v 1.326958 1.558939 3.080399
v 0.519494 2.278194 2.866281
v 0.328301 3.109636 1.955489
v -0.126472 2.624396 2.591168
v -0.984573 2.638542 2.395464
v 1.022351 3.205043 1.512372
v 2.113739 1.739245 -2.468659
v 1.785279 2.535671 -2.008189
v 2.616890 1.420815 -2.174341
v 2.879051 0.367268 -2.298688
v 1.751193 -5.595842 0.833542
v 1.351367 -6.454238 2.173435
v 0.680599 -2.855269 2.199790
v 0.202285 -2.977456 2.196161
v 0.641673 -6.387170 2.523546
v -0.144219 -5.073923 2.428693
v -0.455556 -6.919666 2.424066
v -0.916970 -5.565843 1.997877
v -1.047806 -3.093934 1.699860
v -1.801190 -3.040084 1.062755
v -0.799633 -2.758275 2.316499
v -1.677842 -2.827788 1.675569
v -2.365460 -2.522630 1.304880
v -1.200886 -2.365861 2.582861
v -2.144142 -2.193566 2.050362
v -2.791947 -2.101775 1.223972
v -2.057682 -1.650906 2.592312
v -1.691227 -0.917924 3.143309
v -1.224900 -1.674079 3.050167
v -0.754788 -1.266915 3.381842
v -0.347702 -2.158643 2.984200
v 0.142322 -1.513264 3.358077
v -0.175251 -0.801249 3.593018
v -2.169156 -2.987206 0.307730
v -3.136231 -1.944045 0.283410
v -3.508099 -1.186536 -0.023031
v -2.662007 -2.548036 -0.111343
v -3.492477 -0.786377 -0.926496
v -3.207386 -1.372452 -1.221962
v -3.234848 -0.105534 -1.826229
v -3.206131 0.807459 -1.665229
v -3.581158 -0.040459 -0.902087
v -3.009212 0.031942 -2.143673
v -2.539016 1.374127 -2.299021
v -1.780800 2.261716 -2.323495
v -2.627479 1.776623 -1.897888
v -2.013771 2.682581 -1.544433
v -2.613418 2.221333 -1.359442
v -3.150387 1.455979 -1.243630
v -2.375049 2.719318 -0.766585
v -1.468545 -5.922018 1.321379
v -1.812970 -6.347456 0.565210
v -1.990731 -7.241297 0.165737
v -1.609002 -7.471159 1.549276
v -1.414590 -9.262951 0.027065
v -0.143857 -9.747549 1.591595
v -1.128839 -9.518332 1.141913
v -0.682451 -10.317973 0.905729
v -0.810388 -10.416942 0.265513
v -0.049890 -10.733380 0.727107
v -0.201551 -10.730470 0.062171
v 0.259474 -10.677051 0.229026
v 0.884131 -9.910236 -0.075663
v 0.894507 -10.072810 0.652506
v 1.339297 -8.852869 -0.435109
v 0.720671 -9.567633 1.420256
v 1.812987 -7.648491 0.993846
v 1.126369 -7.590513 -0.489160
v -1.536694 -6.801065 -1.045789
v -2.941242 1.459223 1.687586
v -1.510497 -2.598612 -2.101890
v -1.974009 -2.219435 -2.124480
v -1.498050 -2.609073 -2.100981
v -2.313619 -1.838447 -2.150800
v -2.485330 -1.569981 -2.171288
v -2.820488 -0.841295 -2.222028
v -2.811305 -0.879493 -2.219123
v -2.567340 -1.392747 -2.185714
v 0.088994 -3.018350 -2.072936
v -0.090475 -3.015502 -2.074611
v -0.072638 -3.015492 -2.074785
v 0.527744 -2.964803 -2.073953
v 1.320598 -2.689355 -2.093387
v 1.131754 -2.822495 -2.082108
v 1.375966 -2.652621 -2.096467
v 1.896862 -2.317102 -2.113275
v 2.349228 -1.861629 -2.143409
v 2.405840 -1.790750 -2.148494
v 2.784462 -0.911955 -2.210766
v 2.702127 -1.174836 -2.191667
v 2.430153 -1.755445 -2.151139
v 2.504957 -1.592864 -2.164384
v 2.824203 -0.522623 -2.242887
v -0.190703 2.553960 -2.622067
v -0.072636 2.547973 -2.622622
v 0.480972 2.533052 -2.613187
v 0.344123 2.534812 -2.617285
v -1.114249 2.372554 -2.582064
v -0.986025 2.418296 -2.591988
v -0.989254 2.417085 -2.591780
v -0.567264 2.512130 -2.612900
v -0.492416 2.519622 -2.615760
v 0.797677 2.446215 -2.595868
v 2.485930 1.212495 -2.405641
v 2.851817 0.391349 -2.319867
v 2.114034 1.737784 -2.469163
v 2.113162 1.738744 -2.469292
v 2.858150 0.366537 -2.317572
v 2.861580 0.344370 -2.315661
v 2.108962 1.742260 -2.469824
v 1.534864 2.181770 -2.539021
v 1.471786 2.210200 -2.544444
v 1.593476 2.136486 -2.532335
v 0.837971 2.431600 -2.593327
v 2.856435 0.246334 -2.308485
v -2.866768 -0.034428 -2.290279
v -2.828108 0.245541 -2.316513
v -2.685382 0.719748 -2.364551
v -2.681999 0.731170 -2.365637
v -2.359615 1.398268 -2.436898
v -2.511801 1.176912 -2.410414
v -1.960478 1.804644 -2.493035
v -1.798532 1.970573 -2.515069
v -1.638879 2.085398 -2.532535
v -0.532315 -10.130997 -0.454148
v -0.527592 -10.141046 -0.451241
v -0.519218 -10.148643 -0.449187
v 0.339795 -10.062441 -0.476353
v 0.245385 -10.111473 -0.464301
v -0.072639 -10.107235 -0.475087
v 0.440119 -9.954044 -0.506233
v 0.533219 -9.759721 -0.562391
v 0.797375 -8.435378 -0.956178
v 0.582082 -7.928380 -1.116384
v 0.976325 -6.764819 -1.457520
v 0.986354 -6.576027 -1.514482
v -0.885281 -5.884001 -1.731736
v -0.041702 -6.133754 -1.679336
v -0.072639 -6.129829 -1.681451
v 0.985240 -6.493897 -1.539426
v 1.084239 -6.296368 -1.596380
v 1.060379 -6.088259 -1.660213
v -0.966962 -6.378449 -1.579327
v -1.023327 -8.140676 -1.043153
v -0.887955 -9.013800 -0.782375
v -1.033014 -2.875913 -2.079215
v -1.126764 -2.840530 -2.081790
v -1.397191 -2.676082 -2.095360
vn -0.9732 -0.0169 -0.2293
vn -0.8260 -0.1550 -0.5420
vn -0.8300 -0.1172 -0.5453
vn -0.9794 -0.1460 -0.1392
vn -0.6926 -0.6955 -0.1913
vn -0.6260 -0.6166 -0.4774
vn -0.6326 -0.6929 -0.3460
vn -0.6077 -0.0867 -0.7894
vn -0.4579 -0.7225 -0.5179
vn -0.3035 -0.7654 -0.5675
vn -0.5178 -0.6030 -0.6068
vn -0.4944 -0.6395 -0.5887
vn -0.6354 -0.4936 -0.5939
vn -0.7978 -0.5632 -0.2152
vn -0.7533 -0.4667 -0.4633
vn -0.7147 -0.1384 -0.6856
vn -0.7194 -0.3460 -0.6022
vn -0.7715 -0.2397 -0.5894
vn -0.7303 -0.3839 -0.5650
vn -0.7043 -0.4235 -0.5697
vn 0.0278 -0.7900 -0.6125
vn -0.0059 -0.7572 -0.6531
vn 0.0440 -0.7572 -0.6517
vn 0.1837 -0.8502 -0.4934
vn 0.3768 -0.7293 -0.5711
vn 0.4342 -0.6734 -0.5983
vn 0.5657 -0.6699 -0.4809
vn 0.2879 -0.8007 -0.5253
vn 0.4295 -0.6957 -0.5757
vn 0.4983 -0.6462 -0.5781
vn 0.6630 -0.5815 -0.4715
vn 0.7606 -0.5744 -0.3025
vn 0.6361 -0.7415 -0.2135
vn 0.4794 -0.7385 -0.4741
vn 0.5405 -0.0640 -0.8389
vn 0.5507 -0.0659 -0.8321
vn 0.6071 -0.1175 -0.7859
vn 0.6066 -0.1333 -0.7838
vn 0.9763 -0.2163 0.0067
vn 0.9415 -0.3161 0.1168
vn 0.9725 -0.0472 -0.2280
vn 0.6549 -0.7549 -0.0339
vn 0.9358 -0.3198 0.1484
vn 0.7772 -0.6138 0.1389
vn 0.8513 -0.5136 -0.1073
vn 0.6350 -0.7426 0.2131
vn 0.9512 -0.3072 -0.0308
vn 0.9150 -0.2531 -0.3142
vn 0.8173 -0.4117 -0.4032
vn 0.9904 -0.0474 -0.1302
vn 0.9225 0.0410 -0.3838
vn 0.8332 -0.1460 -0.5334
vn 0.7949 -0.2503 -0.5526
vn 0.7850 -0.3311 -0.5235
vn 0.7037 -0.5521 -0.4471
vn 0.7330 -0.4859 -0.4760
vn 0.7501 -0.3887 -0.5350
vn 0.7481 -0.1074 -0.6549
vn 0.0682 0.7747 -0.6287
vn 0.0308 0.6749 -0.7373
vn -0.2624 0.5659 -0.7816
vn -0.3006 0.6612 -0.6873
vn -0.2089 0.7155 -0.6667
vn -0.2434 0.8216 -0.5155
vn -0.1016 0.7793 -0.6183
vn -0.1395 0.7652 -0.6285
vn 0.2577 0.7130 -0.6520
vn 0.1657 0.7127 -0.6816
vn 0.0196 0.9055 -0.4239
vn 0.3176 0.7989 -0.5108
vn -0.3381 0.8903 -0.3051
vn -0.0189 0.9809 -0.1938
vn 0.2628 0.9278 -0.2649
vn 0.4522 0.8870 -0.0939
vn 0.1702 0.9854 0.0091
vn 0.5223 0.7838 -0.3358
vn -0.0636 0.9932 0.0975
vn 0.1986 0.9392 0.2800
vn 0.4266 0.8971 0.1148
vn -0.2828 0.9564 -0.0728
vn -0.2875 0.9270 0.2410
vn -0.0611 0.9302 0.3620
vn -0.1737 0.8433 0.5086
vn -0.4232 0.7792 0.4624
vn -0.5423 0.8127 0.2134
vn -0.4953 0.8679 -0.0369
vn -0.6483 0.6499 0.3966
vn -0.7069 0.7072 -0.0127
vn -0.7491 0.6404 0.1693
vn -0.8719 0.4165 0.2576
vn -0.8868 0.4611 0.0316
vn -0.9689 0.1939 -0.1536
vn -0.8463 0.5103 -0.1530
vn -0.9761 0.1982 0.0897
vn -0.9212 0.1692 0.3504
vn -0.9967 -0.0647 0.0485
vn -0.9665 -0.0620 0.2490
vn -0.9014 -0.3029 0.3095
vn -0.8904 -0.0262 0.4543
vn -0.8091 -0.0662 0.5839
vn -0.7828 0.2055 0.5874
vn -0.6471 0.0637 0.7597
vn -0.6412 -0.1830 0.7453
vn -0.7650 -0.3470 0.5425
vn -0.4781 -0.0067 0.8783
vn -0.4792 0.2846 0.8303
vn -0.6166 0.3093 0.7239
vn -0.4732 0.5892 0.6549
vn -0.6223 0.5046 0.5984
vn -0.3531 0.4991 0.7913
vn -0.2847 0.3001 0.9104
vn -0.3201 0.0775 0.9442
vn -0.1518 0.1360 0.9790
vn -0.1258 0.4769 0.8699
vn -0.2623 -0.1463 0.9538
vn -0.0140 -0.0284 0.9995
vn 0.0957 0.3299 0.9392
vn 0.0677 0.1671 0.9836
vn 0.2128 0.0455 0.9760
vn 0.1556 -0.2046 0.9664
vn 0.3747 0.1805 0.9094
vn 0.4958 0.0008 0.8684
vn 0.3644 -0.1615 0.9171
vn 0.2662 -0.3916 0.8808
vn 0.4306 -0.5005 0.7511
vn 0.5300 -0.2271 0.8170
vn 0.5828 -0.6648 0.4674
vn 0.6235 -0.3932 0.6758
vn 0.1456 -0.6022 0.7850
vn 0.3440 -0.6949 0.6315
vn 0.4917 -0.7599 0.4252
vn 0.7359 -0.4326 0.5209
vn 0.7464 -0.5543 0.3683
vn 0.7328 -0.1604 0.6612
vn 0.8748 -0.1608 0.4571
vn 0.8840 -0.3576 0.3012
vn 0.7800 0.0784 0.6209
vn 0.9173 0.0980 0.3860
vn 0.9767 -0.0013 0.2145
vn 0.9696 -0.1925 0.1511
vn 0.9852 0.1585 0.0647
vn 0.8766 0.4770 0.0637
vn 0.9114 0.3108 0.2699
vn 0.9620 0.2263 -0.1530
vn 0.8749 0.2944 -0.3846
vn 0.8571 0.4885 -0.1635
vn 0.6625 0.7102 -0.2382
vn 0.7408 0.5300 -0.4128
vn 0.6951 0.7182 -0.0317
vn 0.6522 0.7436 0.1474
vn 0.6266 0.6974 0.3479
vn 0.7863 0.5353 0.3085
vn 0.7333 0.4707 0.4906
vn 0.8279 0.2632 0.4954
vn 0.6753 0.3243 0.6625
vn 0.5337 0.2793 0.7982
vn 0.6303 0.0830 0.7719
vn 0.5568 0.5529 0.6199
vn 0.4736 0.7921 0.3851
vn 0.3361 0.6867 0.6446
vn 0.3539 0.4277 0.8318
vn 0.1391 0.6091 0.7808
vn -0.0336 0.7099 0.7035
vn 0.0954 0.8382 0.5369
vn -0.2651 0.7055 0.6572
vn 0.2852 0.8590 0.4252
vn 0.7174 0.3771 -0.5857
vn 0.5708 0.4756 -0.6693
vn 0.5068 0.6693 -0.5433
vn 0.7135 0.2228 -0.6643
vn 0.6874 0.3015 -0.6607
vn 0.7787 0.0949 -0.6202
vn 0.6087 0.3659 -0.7039
vn 0.4908 0.4073 -0.7702
vn 0.6671 0.0739 -0.7413
vn 0.7286 -0.0495 -0.6832
vn 0.5161 0.5712 -0.6382
vn 0.3381 0.6892 -0.6408
vn 0.5185 0.5781 -0.6300
vn 0.2927 0.6923 -0.6596
vn 0.7507 -0.0873 -0.6549
vn 0.7140 -0.0874 0.6946
vn 0.9574 -0.0073 0.2887
vn 0.9476 -0.0438 0.3165
vn 0.9411 -0.0483 0.3347
vn 0.6110 0.1081 0.7842
vn 0.3259 0.1124 0.9387
vn 0.2120 -0.7345 0.6447
vn 0.0231 -0.7369 0.6756
vn -0.2545 0.0886 0.9630
vn -0.1792 0.1377 0.9741
vn 0.2100 -0.0887 0.9737
vn -0.6449 0.0584 0.7620
vn -0.3099 -0.1308 0.9417
vn -0.5407 0.0979 0.8355
vn -0.8161 -0.0207 0.5775
vn -0.4460 -0.7623 0.4690
vn -0.5310 -0.7865 0.3155
vn -0.2953 -0.8103 0.5061
vn -0.1984 -0.7640 0.6139
vn -0.6412 -0.6886 0.3386
vn -0.5834 -0.5911 0.5569
vn -0.3379 -0.6371 0.6928
vn -0.5580 -0.4423 0.7022
vn -0.7627 -0.5608 0.3221
vn -0.3361 -0.4496 0.8276
vn -0.4537 -0.2506 0.8552
vn -0.0905 -0.5871 0.8044
vn -0.2039 -0.3486 0.9148
vn 0.0327 -0.4100 0.9115
vn -0.0499 -0.2180 0.9747
vn -0.8435 -0.5313 0.0791
vn -0.6775 -0.7242 0.1284
vn -0.9487 -0.3163 -0.0035
vn -0.7316 -0.6816 -0.0119
vn -0.8689 -0.3670 -0.3322
vn -0.9460 -0.2119 -0.2455
vn -0.8791 -0.0441 -0.4745
vn -0.7808 0.0285 -0.6242
vn -0.9720 -0.0076 -0.2349
vn -0.8647 0.2225 -0.4503
vn -0.7665 0.1434 -0.6260
vn -0.7261 -0.0424 -0.6863
vn -0.7793 0.1735 -0.6021
vn -0.6864 0.3650 -0.6289
vn -0.5852 0.4327 -0.6857
vn -0.7240 0.2608 -0.6386
vn -0.7725 0.2065 -0.6005
vn -0.4878 0.6126 -0.6219
vn -0.5759 0.4736 -0.6664
vn -0.7077 0.4856 -0.5133
vn -0.7124 0.6010 -0.3622
vn -0.5341 0.7323 -0.4224
vn -0.8587 0.3933 -0.3286
vn -0.6385 0.7415 -0.2061
vn -0.3391 0.5662 -0.7513
vn -0.4103 0.5406 -0.7345
vn -0.5349 0.4869 -0.6905
vn -0.9623 -0.0831 0.2591
vn -0.8582 0.0482 0.5110
vn -0.9749 0.0372 0.2193
vn -0.9941 -0.0917 -0.0583
vn -0.8096 -0.1359 0.5710
vn -0.9273 -0.3336 0.1695
vn -0.0843 -0.4778 0.8744
vn -0.9122 -0.3706 0.1747
vn -0.4552 -0.3487 0.8193
vn -0.3265 -0.5847 0.7427
vn -0.6904 -0.6813 0.2433
vn -0.6851 -0.7056 0.1811
vn -0.6413 -0.5965 -0.4826
vn -0.7297 -0.4626 -0.5035
vn -0.6525 -0.5844 -0.4824
vn -0.5230 -0.7057 -0.4780
vn -0.4595 -0.8740 0.1579
vn -0.4307 -0.8976 0.0943
vn 0.5583 -0.7974 -0.2289
vn 0.2189 -0.7191 -0.6596
vn 0.4806 -0.6875 -0.5443
vn 0.1863 -0.7111 -0.6779
vn 0.0169 -0.6548 -0.7556
vn 0.1269 -0.9914 -0.0333
vn 0.7557 -0.5526 -0.3515
vn 0.5929 -0.5866 -0.5517
vn 0.7720 -0.5971 0.2180
vn 0.2931 -0.7498 0.5933
vn 0.8382 -0.2483 -0.4855
vn 0.9734 -0.1644 0.1599
vn 0.5405 -0.4547 0.7079
vn 0.9503 -0.0570 -0.3060
vn 0.6130 -0.4541 -0.6466
vn 0.6800 -0.0316 -0.7325
vn 0.8559 -0.0453 -0.5151
vn 0.7265 0.0934 -0.6808
vn 0.9320 -0.1915 -0.3077
vn 0.7875 -0.4034 -0.4660
vn 0.9576 -0.1025 -0.2692
vn 0.0728 0.0367 -0.9967
vn -0.1140 -0.1075 -0.9876
vn 0.0261 -0.0583 -0.9980
vn 0.8965 -0.3872 0.2154
vn 0.9568 -0.0725 -0.2814
vn 0.0258 -0.0783 -0.9966
vn 0.5909 -0.1739 -0.7878
vn -0.1356 -0.0955 -0.9862
vn -0.5563 -0.2224 -0.8007
vn -0.8112 -0.0959 -0.5769
vn -0.7345 -0.2827 -0.6169
vn -0.7637 -0.3555 -0.5388
vn -0.7400 -0.3336 -0.5841
vn -0.7927 0.3978 0.4618
vn 0.0281 -0.0822 -0.9962
vn 0.0385 -0.0768 -0.9963
vn 0.0213 -0.0843 -0.9962
vn -0.0877 -0.7984 -0.5958
vn -0.1691 -0.7835 -0.5979
vn -0.3395 -0.7098 -0.6172
vn -0.4001 -0.6866 -0.6070
vn -0.4646 -0.6526 -0.5986
vn 0.0625 -0.0761 -0.9951
vn 0.0464 -0.0868 -0.9951
vn 0.0286 -0.0942 -0.9951
vn 0.0286 -0.2901 -0.9566
vn 0.0097 -0.0980 -0.9951
vn -0.0286 -0.2901 -0.9566
vn -0.0097 -0.0980 -0.9951
vn -0.0286 -0.0942 -0.9951
vn -0.0464 -0.0868 -0.9951
vn -0.0625 -0.0761 -0.9951
vn -0.0718 0.7584 -0.6478
vn 0.4377 0.6390 -0.6325
vn 0.0202 -0.0702 -0.9973
vn 0.0634 -0.0758 -0.9951
vn 0.0626 -0.0761 -0.9951
vn 0.0622 -0.0762 -0.9951
vn 0.0286 -0.0943 -0.9951
vn 0.0096 -0.0980 -0.9951
vn -0.0284 -0.2901 -0.9566
vn -0.0096 -0.0980 -0.9951
vn -0.0287 -0.0941 -0.9951
vn -0.0626 -0.0761 -0.9951
vt 0.023917 0.949480
vt 0.034572 0.930639
vt 0.035126 0.945940
vt 0.030857 0.930610
vt 0.678436 0.946583
vt 0.681361 0.953060
vt 0.678684 0.950331
vt 0.876847 0.844910
vt 0.858907 0.845957
vt 0.877893 0.838182
vt 0.676542 0.956592
vt 0.674106 0.957471
vt 0.679897 0.956275
vt 0.676892 0.957325
vt 0.819551 0.959766
vt 0.821665 0.957111
vt 0.822493 0.959499
vt 0.682845 0.945969
vt 0.683738 0.951555
vt 0.819847 0.962613
vt 0.813586 0.964215
vt 0.813826 0.964111
vt 0.813707 0.964295
vt 0.816915 0.961933
vt 0.817985 0.961195
vt 0.666449 0.960070
vt 0.667809 0.960620
vt 0.666799 0.960985
vt 0.664082 0.961993
vt 0.658935 0.962626
vt 0.659246 0.963872
vt 0.653994 0.963475
vt 0.660370 0.963403
vt 0.658916 0.964008
vt 0.655776 0.965221
vt 0.154207 0.501692
vt 0.152094 0.497033
vt 0.154435 0.498297
vt 0.146993 0.499645
vt 0.146064 0.495882
vt 0.649775 0.958822
vt 0.656203 0.962033
vt 0.877623 0.860943
vt 0.877893 0.863312
vt 0.863849 0.861324
vt 0.862981 0.863259
vt 0.141141 0.492366
vt 0.151264 0.479539
vt 0.151807 0.494401
vt 0.650217 0.953071
vt 0.135783 0.492330
vt 0.135709 0.498573
vt 0.142251 0.501875
vt 0.139918 0.506968
vt 0.147009 0.508351
vt 0.149700 0.504509
vt 0.142023 0.513420
vt 0.148249 0.515797
vt 0.152015 0.510841
vt 0.154108 0.508337
vt 0.154106 0.506530
vt 0.154183 0.502209
vt 0.154175 0.502463
vt 0.154169 0.503601
vt 0.154192 0.510944
vt 0.785984 0.948043
vt 0.787869 0.947329
vt 0.788253 0.950073
vt 0.790147 0.955926
vt 0.790221 0.956661
vt 0.790136 0.955906
vt 0.786217 0.956276
vt 0.964613 0.222121
vt 0.965324 0.226542
vt 0.965198 0.226976
vt 0.967117 0.218500
vt 0.966739 0.220646
vt 0.959116 0.222960
vt 0.962994 0.215814
vt 0.959942 0.229376
vt 0.954242 0.230898
vt 0.953411 0.223053
vt 0.956779 0.217523
vt 0.953377 0.211582
vt 0.949355 0.218586
vt 0.959854 0.210306
vt 0.946150 0.223037
vt 0.943038 0.215491
vt 0.948759 0.211479
vt 0.949094 0.229146
vt 0.941438 0.226473
vt 0.939481 0.221451
vt 0.935812 0.222049
vt 0.935475 0.227262
vt 0.401884 0.966599
vt 0.400319 0.961159
vt 0.406480 0.960745
vt 0.947300 0.232541
vt 0.394316 0.964294
vt 0.403950 0.956277
vt 0.394307 0.958280
vt 0.397967 0.955990
vt 0.399153 0.949292
vt 0.394233 0.951363
vt 0.388448 0.944884
vt 0.390212 0.953333
vt 0.394292 0.944234
vt 0.400477 0.942870
vt 0.392380 0.938525
vt 0.397736 0.938089
vt 0.397915 0.932767
vt 0.402118 0.938342
vt 0.405452 0.937856
vt 0.406825 0.944207
vt 0.410381 0.941715
vt 0.866858 0.933251
vt 0.860897 0.932062
vt 0.864823 0.928609
vt 0.871332 0.931015
vt 0.403454 0.932281
vt 0.861874 0.936487
vt 0.855121 0.934993
vt 0.855404 0.931735
vt 0.858093 0.928262
vt 0.847358 0.933916
vt 0.849908 0.930601
vt 0.849131 0.937496
vt 0.853908 0.939430
vt 0.858996 0.940147
vt 0.857422 0.943237
vt 0.848750 0.942365
vt 0.864490 0.942312
vt 0.860172 0.947956
vt 0.851663 0.948779
vt 0.855386 0.949050
vt 0.857789 0.952359
vt 0.863846 0.952541
vt 0.853575 0.956387
vt 0.857514 0.959754
vt 0.861708 0.957383
vt 0.868121 0.955699
vt 0.869866 0.960405
vt 0.862740 0.961928
vt 0.873458 0.964892
vt 0.865896 0.964567
vt 0.873300 0.953925
vt 0.874712 0.959350
vt 0.987020 0.952909
vt 0.983837 0.958641
vt 0.982684 0.955433
vt 0.976713 0.958304
vt 0.127559 0.501959
vt 0.129220 0.495852
vt 0.130774 0.499681
vt 0.123134 0.503159
vt 0.123218 0.508724
vt 0.128069 0.509509
vt 0.131648 0.504878
vt 0.123837 0.514945
vt 0.129286 0.516082
vt 0.133306 0.513820
vt 0.135192 0.509386
vt 0.137135 0.518111
vt 0.136797 0.525517
vt 0.132075 0.521375
vt 0.142345 0.519764
vt 0.147954 0.521593
vt 0.142483 0.525865
vt 0.958408 0.206727
vt 0.957859 0.199626
vt 0.963274 0.203749
vt 0.953543 0.204658
vt 0.148888 0.526735
vt 0.952443 0.197879
vt 0.949485 0.204484
vt 0.944346 0.203315
vt 0.945938 0.199300
vt 0.941438 0.199070
vt 0.126824 0.524538
vt 0.126557 0.519118
vt 0.130964 0.526510
vt 0.123134 0.520341
vt 0.850788 0.959477
vt 0.854598 0.962746
vt 0.848796 0.962845
vt 0.843754 0.959126
vt 0.937595 0.202494
vt 0.937483 0.197879
vt 0.854057 0.966226
vt 0.860252 0.966226
vt 0.942082 0.207945
vt 0.935432 0.208471
vt 0.847867 0.954681
vt 0.841604 0.953080
vt 0.844131 0.948540
vt 0.842635 0.943905
vt 0.936778 0.216092
vt 0.931395 0.211731
vt 0.932128 0.216838
vt 0.843568 0.938285
vt 0.932126 0.222380
vt 0.410694 0.960169
vt 0.410062 0.955554
vt 0.940643 0.212738
vt 0.967355 0.204527
vt 0.968430 0.208732
vt 0.964744 0.211820
vt 0.153376 0.523532
vt 0.154444 0.517009
vt 0.155047 0.522129
vt 0.154292 0.516867
vt 0.792644 0.931156
vt 0.791106 0.934829
vt 0.791097 0.934833
vt 0.791101 0.934836
vt 0.799260 0.928399
vt 0.799105 0.928469
vt 0.799234 0.928262
vt 0.799402 0.928352
vt 0.791082 0.934868
vt 0.967844 0.213798
vt 0.968430 0.208770
vt 0.967965 0.212875
vt 0.967164 0.218219
vt 0.154404 0.516055
vt 0.127569 0.469118
vt 0.135922 0.475574
vt 0.131241 0.492515
vt 0.443699 0.903609
vt 0.446805 0.926633
vt 0.440269 0.927691
vt 0.974425 0.954986
vt 0.970239 0.957958
vt 0.972066 0.952909
vt 0.434155 0.913185
vt 0.437059 0.927016
vt 0.438996 0.904238
vt 0.428898 0.910162
vt 0.431563 0.901021
vt 0.428742 0.926624
vt 0.423775 0.927229
vt 0.669087 0.933514
vt 0.671244 0.937103
vt 0.665063 0.934906
vt 0.656151 0.934686
vt 0.662143 0.931546
vt 0.674283 0.934131
vt 0.671229 0.929909
vt 0.664089 0.928839
vt 0.876538 0.942918
vt 0.872903 0.936455
vt 0.876522 0.936556
vt 0.677201 0.933517
vt 0.675691 0.928262
vt 0.872074 0.941917
vt 0.867702 0.937954
vt 0.874176 0.948235
vt 0.868864 0.944490
vt 0.869388 0.950650
vt 0.878602 0.946019
vt 0.657885 0.928262
vt 0.878816 0.952833
vt 0.865133 0.947710
vt 0.397368 0.928262
vt 0.391280 0.929356
vt 0.675302 0.940928
vt 0.681564 0.938519
vt 0.389986 0.933282
vt 0.383889 0.930263
vt 0.679424 0.942257
vt 0.382019 0.934276
vt 0.384507 0.936730
vt 0.379425 0.942491
vt 0.376258 0.939432
vt 0.378720 0.933395
vt 0.377559 0.944257
vt 0.385449 0.940957
vt 0.381476 0.947877
vt 0.808090 0.966429
vt 0.806469 0.965497
vt 0.808348 0.965433
vt 0.376951 0.949480
vt 0.376711 0.946205
vt 0.798755 0.964875
vt 0.798380 0.963738
vt 0.800004 0.964483
vt 0.376957 0.949559
vt 0.378131 0.953723
vt 0.377195 0.952732
vt 0.379149 0.961061
vt 0.377492 0.958033
vt 0.377305 0.954488
vt 0.381168 0.955468
vt 0.385181 0.957582
vt 0.384641 0.962121
vt 0.384956 0.951454
vt 0.389672 0.960540
vt 0.388284 0.967133
vt 0.382923 0.967337
vt 0.378050 0.964066
vt 0.792085 0.960913
vt 0.790581 0.956693
vt 0.793058 0.959801
vt 0.793992 0.960716
vt 0.019742 0.928262
vt 0.024440 0.929964
vt 0.014654 0.944274
vt 0.018771 0.948777
vt 0.020102 0.955145
vt 0.011114 0.953557
vt 0.018854 0.965976
vt 0.432852 0.882202
vt 0.423775 0.897733
vt 0.011114 0.939777
vt 0.011507 0.965171
vt 0.426392 0.884027
vt 0.429135 0.878604
vt 0.144880 0.977633
vt 0.148407 0.976777
vt 0.144569 0.981975
vt 0.016279 0.971006
vt 0.141643 0.986072
vt 0.141614 0.986047
vt 0.141562 0.986020
vt 0.140384 0.977746
vt 0.140215 0.982273
vt 0.137563 0.980399
vt 0.136646 0.984793
vt 0.136036 0.984700
vt 0.825059 0.852498
vt 0.829281 0.853214
vt 0.829307 0.855328
vt 0.143639 0.446757
vt 0.146697 0.445429
vt 0.146797 0.446238
vt 0.138865 0.445443
vt 0.142252 0.441071
vt 0.134415 0.976502
vt 0.145428 0.454229
vt 0.135354 0.462064
vt 0.133782 0.448352
vt 0.137012 0.971806
vt 0.433222 0.875675
vt 0.438648 0.883159
vt 0.147054 0.447616
vt 0.840590 0.858676
vt 0.837851 0.862380
vt 0.831704 0.857173
vt 0.145603 0.462373
vt 0.149131 0.456694
vt 0.150205 0.459901
vt 0.151886 0.468014
vt 0.152207 0.469284
vt 0.855835 0.852457
vt 0.855814 0.852664
vt 0.152351 0.469833
vt 0.152608 0.471237
vt 0.856304 0.859978
vt 0.857334 0.847014
vt 0.854018 0.846566
vt 0.851053 0.842887
vt 0.842243 0.846527
vt 0.027494 0.959830
vt 0.024795 0.964331
vt 0.836438 0.847592
vt 0.829042 0.850166
vt 0.834601 0.844187
vt 0.028840 0.953121
vt 0.410694 0.947018
vt 0.408125 0.952607
vt 0.404219 0.948770
vt 0.393976 0.968020
vt 0.875686 0.852976
vt 0.667920 0.960578
vt 0.673819 0.958376
vt 0.674414 0.958164
vt 0.676158 0.957571
vt 0.676811 0.957351
vt 0.356441 0.025912
vt 0.351406 0.031878
vt 0.357130 0.021971
vt 0.317944 0.040726
vt 0.332658 0.018133
vt 0.330066 0.035906
vt 0.285651 0.044896
vt 0.300472 0.014388
vt 0.305225 0.041539
vt 0.253434 0.090388
vt 0.250431 0.065204
vt 0.258226 0.076872
vt 0.262478 0.012589
vt 0.275944 0.045085
vt 0.263359 0.046279
vt 0.240525 0.083795
vt 0.250000 0.065160
vt 0.245189 0.090701
vt 0.237522 0.012589
vt 0.229489 0.045797
vt 0.223441 0.044619
vt 0.205728 0.043176
vt 0.199504 0.014483
vt 0.205306 0.013186
vt 0.167782 0.032996
vt 0.167735 0.019193
vt 0.181729 0.039416
vt 0.145330 0.025619
vt 0.145761 0.020546
vt 0.147734 0.028435
vt 0.788347 0.950853
vt 0.787727 0.946431
vt 0.789046 0.953271
vt 0.965800 0.224792
vt 0.794132 0.931797
vt 0.967909 0.213343
vt 0.154422 0.516707
vt 0.377574 0.959476
vt 0.148407 0.984386
vt 0.828926 0.850256
vt 0.854919 0.860176
vt 0.357146 0.022004
vt 0.357147 0.022012
vt 0.352769 0.031179
vt 0.352602 0.031320
vt 0.352426 0.031437
vt 0.354842 0.018133
vt 0.326695 0.037878
vt 0.323664 0.039051
vt 0.324528 0.014388
vt 0.331539 0.017389
vt 0.332190 0.017722
vt 0.336094 0.031878
vt 0.304708 0.041702
vt 0.303555 0.042014
vt 0.294840 0.043864
vt 0.293646 0.012916
vt 0.295658 0.013168
vt 0.299943 0.014232
vt 0.307056 0.040726
vt 0.255591 0.089519
vt 0.254467 0.090138
vt 0.250000 0.090164
vt 0.266786 0.065600
vt 0.266815 0.066923
vt 0.256690 0.088355
vt 0.260547 0.080193
vt 0.264982 0.068621
vt 0.264589 0.069801
vt 0.265078 0.068104
vt 0.256544 0.046341
vt 0.254068 0.046228
vt 0.268854 0.012916
vt 0.276849 0.044896
vt 0.272844 0.045778
vt 0.245097 0.090658
vt 0.245043 0.090598
vt 0.238208 0.078390
vt 0.237159 0.067276
vt 0.237769 0.064117
vt 0.223234 0.044563
vt 0.231122 0.013010
vt 0.235701 0.012623
vt 0.245932 0.046228
vt 0.245658 0.046238
vt 0.230981 0.045956
vt 0.225090 0.044964
vt 0.206378 0.013010
vt 0.214266 0.044563
vt 0.199011 0.041560
vt 0.195275 0.040302
vt 0.193271 0.039416
vt 0.199547 0.014470
vt 0.174680 0.037365
vt 0.174277 0.037186
vt 0.166272 0.031385
vt 0.164766 0.028435
vt 0.166739 0.020546
vt 0.169071 0.018120
vt 0.174119 0.015079
vt 0.175496 0.014483
vt 0.147662 0.028368
vt 0.144979 0.023993
s 1
usemtl pleuraldeles_skin
f 177/310/243 176/309/242 178/311/244
f 179/312/245 140/239/194 177/313/243
f 180/315/246 177/310/243 178/311/244
f 177/313/243 180/316/247 179/312/245
f 180/316/247 181/317/248 179/312/245
f 181/318/249 180/319/246 182/320/250
f 180/315/246 178/311/244 182/321/250
f 182/320/251 248/322/252 249/323/253
f 250/324/254 182/320/251 249/323/253
f 181/318/249 182/320/250 183/325/255
f 182/320/250 184/326/256 183/325/255
f 185/327/257 252/328/258 251/329/259
f 184/330/260 253/331/261 252/332/258
f 183/325/262 184/326/262 185/327/262
f 186/333/263 251/334/259 254/335/264
f 187/336/265 185/337/257 186/333/263
f 183/325/266 185/327/257 187/338/265
f 187/336/265 186/333/263 188/339/267
f 187/336/265 188/339/267 190/340/268
f 189/341/269 187/336/265 190/340/268
f 189/342/269 183/325/266 187/338/265
f 189/341/269 190/340/268 135/226/182
f 179/312/245 183/343/266 189/344/269
f 189/344/269 135/229/182 138/237/192
f 189/344/269 138/237/192 179/312/245
f 186/333/263 255/345/271 188/339/267
f 256/346/272 188/347/267 255/348/271
f 262/354/278 4/9/279 261/355/280
f 17/45/283 261/355/280 4/9/279
f 18/46/38 265/358/284 17/45/37
f 4/9/279 260/359/285 266/360/286
f 192/361/287 266/360/286 267/362/288
f 178/311/289 267/363/288 268/364/290
f 268/365/290 248/366/252 178/367/289
f 176/309/242 192/368/287 178/311/289
f 179/312/245 181/317/248 183/343/266
f 138/237/192 140/239/194 179/312/245
f 182/320/251 178/417/289 248/322/252
f 250/324/254 184/326/254 182/320/251
f 185/327/257 184/326/260 252/328/258
f 184/330/260 250/418/261 253/331/261
f 186/333/263 185/337/257 251/334/259
f 186/333/263 254/335/264 255/345/271
f 262/354/278 260/359/285 4/9/279
f 17/45/283 265/358/312 261/355/280
f 18/46/38 264/419/284 265/358/284
f 192/361/287 4/9/279 266/360/286
f 178/311/289 192/368/287 267/363/288
f 2/1/1 1/2/2 4/3/3
f 3/4/4 1/2/2 2/1/1
f 3/5/5 7/6/6 1/7/7
f 5/8/8 4/9/3 1/10/2
f 1/7/7 6/11/9 5/12/10
f 1/7/7 7/6/6 6/11/9
f 6/11/9 195/13/11 194/14/12
f 197/15/13 195/16/11 7/17/6
f 3/5/5 8/18/14 7/6/6
f 8/18/14 9/19/15 7/6/6
f 9/20/15 197/15/13 7/17/6
f 199/21/16 200/22/17 10/23/18
f 10/23/18 201/24/19 198/25/20
f 11/26/21 204/27/22 202/28/23
f 11/26/21 202/28/23 205/29/24
f 12/30/25 206/31/26 13/32/27
f 12/30/25 205/29/24 207/33/28
f 13/32/27 208/34/29 209/35/30
f 210/36/31 13/37/27 209/38/30
f 210/36/31 14/39/32 13/37/27
f 13/37/27 14/39/32 15/40/33
f 15/41/33 16/42/34 13/32/27
f 16/42/34 12/30/25 13/32/27
f 12/43/35 16/44/36 17/45/37
f 17/45/37 16/44/36 18/46/38
f 19/47/39 18/48/40 16/49/41
f 19/50/42 16/42/34 15/41/33
f 18/48/40 19/47/39 21/51/43
f 20/52/44 19/47/42 22/53/45
f 20/52/44 21/51/46 19/47/42
f 19/47/42 15/40/33 22/53/45
f 20/52/44 22/53/45 23/54/47
f 24/55/48 22/53/45 14/39/32
f 22/53/45 15/40/33 14/39/32
f 23/54/47 22/53/45 24/55/48
f 14/39/32 28/56/49 24/55/48
f 25/57/50 23/54/47 24/55/48
f 26/58/51 25/57/50 24/55/48
f 24/55/48 27/59/52 26/58/51
f 24/55/48 28/56/49 27/59/52
f 212/60/53 28/56/49 213/61/54
f 28/56/49 211/62/55 214/63/56
f 28/56/49 215/64/57 213/61/54
f 216/65/58 27/59/52 212/60/53
f 31/66/59 220/67/60 218/68/60
f 223/69/61 29/70/62 222/71/63
f 30/72/64 222/71/63 29/70/62
f 31/73/59 225/74/65 224/75/66
f 31/73/59 226/76/67 219/77/68
f 33/78/69 32/79/70 31/73/59
f 33/78/69 31/73/59 30/80/64
f 34/81/71 33/78/69 30/80/64
f 34/81/71 35/82/72 33/78/69
f 36/83/73 32/79/70 33/78/69
f 33/78/69 35/82/72 36/83/73
f 37/84/74 36/83/73 39/85/75
f 38/86/76 36/83/73 37/84/74
f 36/83/73 38/86/76 32/79/70
f 35/82/72 39/85/75 36/83/73
f 42/87/77 39/85/75 35/82/72
f 39/85/75 40/88/78 41/89/79
f 39/85/75 42/87/77 40/88/78
f 41/89/79 37/84/74 39/85/75
f 42/87/77 43/90/80 45/91/81
f 35/82/72 43/90/80 42/87/77
f 42/87/77 44/92/82 40/88/78
f 44/92/82 42/87/77 45/91/81
f 47/93/83 45/91/81 46/94/84
f 45/95/81 49/96/85 46/97/84
f 45/91/81 47/93/83 44/92/82
f 48/98/86 45/91/81 43/90/80
f 48/99/86 49/96/85 45/95/81
f 46/97/84 49/96/85 50/100/87
f 48/99/86 51/101/88 49/96/85
f 50/100/87 49/96/85 52/102/89
f 51/101/88 52/102/89 49/96/85
f 53/103/90 50/100/87 52/102/89
f 54/104/91 53/103/90 52/102/89
f 54/104/91 52/102/89 51/101/88
f 55/105/92 54/104/91 56/106/93
f 57/107/94 54/104/91 55/105/92
f 56/106/93 54/104/91 51/101/88
f 57/107/94 53/103/90 54/104/91
f 58/108/95 53/103/90 57/107/94
f 59/109/96 57/107/94 55/105/92
f 57/107/94 60/110/97 58/108/95
f 59/109/96 60/110/97 57/107/94
f 59/109/96 61/111/98 60/110/97
f 61/111/98 62/112/99 60/110/97
f 62/112/99 58/108/95 60/110/97
f 58/108/95 62/112/99 63/113/100
f 61/111/98 63/113/100 62/112/99
f 63/113/100 64/114/101 58/108/95
f 64/114/101 63/113/100 67/115/102
f 65/116/103 67/117/102 63/118/100
f 63/118/100 66/119/104 65/116/103
f 63/113/100 61/111/98 66/120/104
f 68/121/105 70/122/106 67/117/102
f 67/117/102 65/116/103 68/121/105
f 69/123/107 67/117/102 70/122/106
f 64/124/101 67/117/102 69/123/107
f 70/122/106 71/125/108 72/126/109
f 70/122/106 73/127/110 71/125/108
f 72/126/109 69/123/107 70/122/106
f 73/127/110 70/122/106 75/128/111
f 68/121/105 74/129/112 70/122/106
f 70/122/106 74/129/112 75/128/111
f 77/130/113 76/131/114 75/128/111
f 75/128/111 76/131/114 73/127/110
f 74/129/112 77/130/113 75/128/111
f 77/130/113 74/129/112 78/132/115
f 80/133/116 77/130/113 78/132/115
f 76/131/114 77/130/113 79/134/117
f 81/135/118 79/134/117 77/130/113
f 80/133/116 81/135/118 77/130/113
f 82/136/119 79/134/117 81/135/118
f 80/133/116 82/136/119 81/135/118
f 80/133/116 85/137/120 82/136/119
f 84/138/121 79/134/117 82/136/119
f 83/139/122 82/136/119 86/140/123
f 82/136/119 83/139/122 84/138/121
f 86/140/123 82/136/119 85/137/120
f 85/137/120 87/141/124 86/140/123
f 86/140/123 87/141/124 89/142/125
f 86/140/123 88/143/126 83/139/122
f 86/140/123 89/142/125 88/143/126
f 89/142/125 93/144/127 90/145/128
f 88/143/126 89/142/125 90/145/128
f 89/142/125 87/141/124 92/146/129
f 92/146/129 91/147/130 89/142/125
f 89/142/125 91/147/130 93/144/127
f 21/148/46 93/149/127 94/150/131
f 93/149/127 91/151/130 94/150/131
f 96/152/132 93/153/127 95/154/133
f 93/153/127 20/52/44 95/154/133
f 20/52/44 93/153/127 21/51/46
f 93/153/127 96/152/132 90/155/128
f 97/156/134 90/155/128 96/152/132
f 99/157/135 97/156/134 96/152/132
f 98/158/136 99/157/135 96/152/132
f 98/158/136 96/152/132 95/154/133
f 101/159/137 97/156/134 99/157/135
f 100/160/138 99/157/135 103/161/139
f 100/160/138 101/159/137 99/157/135
f 99/157/135 102/162/140 103/161/139
f 98/158/136 102/162/140 99/157/135
f 104/163/141 103/161/139 102/162/140
f 103/161/139 104/163/141 100/160/138
f 106/164/142 105/165/143 104/163/141
f 100/160/138 104/163/141 105/165/143
f 102/162/140 25/57/50 104/163/141
f 107/166/144 104/163/141 25/57/50
f 104/163/141 107/166/144 106/164/142
f 26/58/51 107/166/144 25/57/50
f 107/166/144 26/58/51 108/167/145
f 107/166/144 108/167/145 109/168/146
f 109/168/146 106/164/142 107/166/144
f 110/169/147 109/170/146 111/171/148
f 109/170/146 110/169/147 112/172/149
f 111/173/148 109/168/146 108/167/145
f 106/174/142 109/170/146 112/172/149
f 37/84/74 41/89/79 112/172/149
f 110/169/147 37/84/74 112/172/149
f 112/172/149 41/89/79 113/175/150
f 113/175/150 106/174/142 112/172/149
f 113/175/150 41/89/79 114/176/151
f 113/175/150 114/176/151 115/177/152
f 115/177/152 106/174/142 113/175/150
f 115/177/152 114/176/151 116/178/153
f 116/179/153 117/180/154 115/181/152
f 115/181/152 117/180/154 105/165/143
f 106/164/142 115/181/152 105/165/143
f 105/165/143 117/180/154 100/160/138
f 101/159/137 117/180/154 118/182/155
f 100/160/138 117/180/154 101/159/137
f 116/179/153 118/182/155 117/180/154
f 119/183/156 121/184/157 118/185/155
f 118/185/155 120/186/158 119/183/156
f 120/187/158 118/188/155 116/178/153
f 118/185/155 121/184/157 101/189/137
f 121/184/157 97/190/134 101/189/137
f 88/143/126 121/184/157 83/139/122
f 88/143/126 97/190/134 121/184/157
f 119/183/156 83/139/122 121/184/157
f 120/187/158 122/191/159 123/192/160
f 122/191/159 120/187/158 114/176/151
f 124/193/161 120/186/158 123/194/160
f 120/187/158 116/178/153 114/176/151
f 119/183/156 120/186/158 124/193/161
f 79/134/117 84/138/121 124/193/161
f 124/193/161 125/195/162 79/134/117
f 124/193/161 84/138/121 119/183/156
f 123/194/160 125/195/162 124/193/161
f 127/196/163 76/131/114 125/195/162
f 76/131/114 79/134/117 125/195/162
f 123/192/160 126/197/164 125/198/162
f 127/199/163 125/198/162 126/197/164
f 126/197/164 47/93/83 127/199/163
f 128/200/165 76/131/114 127/196/163
f 128/201/165 127/199/163 47/93/83
f 128/201/165 47/93/83 46/94/84
f 76/131/114 128/200/165 73/127/110
f 128/202/165 46/97/84 71/203/108
f 73/127/110 128/200/165 71/125/108
f 123/192/160 129/204/166 126/197/164
f 44/92/82 47/93/83 126/197/164
f 126/197/164 40/88/78 44/92/82
f 40/88/78 126/197/164 129/204/166
f 122/191/159 129/204/166 123/192/160
f 122/191/159 40/88/78 129/204/166
f 122/191/159 114/176/151 41/89/79
f 122/191/159 41/89/79 40/88/78
f 83/139/122 119/183/156 84/138/121
f 132/205/167 130/206/168 111/171/148
f 111/171/148 130/206/168 131/207/169
f 38/86/76 111/171/148 131/207/169
f 38/86/76 110/169/147 111/171/148
f 108/167/145 132/208/167 111/173/148
f 132/208/167 228/209/170 227/210/171
f 108/167/145 133/211/172 132/208/167
f 132/212/167 229/213/173 130/214/168
f 229/213/173 230/215/174 130/214/168
f 231/216/175 228/217/170 133/218/172
f 232/219/176 231/216/175 133/218/172
f 230/215/174 233/220/177 130/214/168
f 131/207/169 235/221/178 32/79/70
f 131/207/169 233/222/177 236/223/179
f 32/79/70 237/224/180 226/76/67
f 26/58/51 27/59/52 133/211/172
f 133/211/172 216/65/58 238/225/181
f 26/58/51 133/211/172 108/167/145
f 32/79/70 38/86/76 131/207/169
f 110/169/147 38/86/76 37/84/74
f 102/162/140 23/54/47 25/57/50
f 23/54/47 102/162/140 98/158/136
f 20/52/44 23/54/47 98/158/136
f 98/158/136 95/154/133 20/52/44
f 90/145/128 97/190/134 88/143/126
f 135/226/182 134/227/183 94/228/184
f 134/227/183 21/51/185 94/228/184
f 135/229/182 94/230/186 136/231/187
f 91/151/130 136/232/188 94/150/131
f 136/232/188 92/233/129 137/234/189
f 139/235/190 136/231/187 137/236/191
f 138/237/192 135/229/182 136/231/187
f 136/231/187 139/235/190 138/237/192
f 139/235/190 141/238/193 140/239/194
f 139/235/190 140/239/194 138/237/192
f 139/235/190 142/240/195 141/238/193
f 139/235/190 137/236/191 142/240/195
f 142/240/195 143/241/196 141/238/193
f 145/242/197 143/243/198 142/244/199
f 142/244/199 137/245/189 144/246/200
f 145/242/197 142/244/199 144/246/200
f 145/242/197 146/247/201 143/243/198
f 146/247/201 145/242/197 148/248/202
f 145/242/197 144/246/200 147/249/203
f 145/242/197 147/249/203 148/248/202
f 147/250/203 150/251/204 148/252/202
f 146/247/201 148/248/202 149/253/205
f 149/253/205 148/248/202 66/254/104
f 66/119/104 148/252/202 150/251/204
f 152/255/206 151/256/207 150/251/204
f 151/256/207 65/116/103 150/251/204
f 152/255/206 150/251/204 147/250/203
f 150/251/204 65/116/103 66/119/104
f 154/257/208 152/255/206 147/250/203
f 153/258/209 152/255/206 154/257/208
f 153/258/209 151/256/207 152/255/206
f 155/259/210 153/258/209 154/257/208
f 154/257/208 92/146/129 155/259/210
f 144/260/200 154/257/208 147/250/203
f 144/246/200 137/245/189 154/261/208
f 92/146/129 154/257/208 137/262/189
f 87/141/124 155/259/210 92/146/129
f 87/141/124 85/137/120 155/259/210
f 156/263/211 155/259/210 85/137/120
f 153/258/209 155/259/210 156/263/211
f 156/263/211 78/132/115 153/258/209
f 156/263/211 80/133/116 78/132/115
f 85/137/120 80/133/116 156/263/211
f 78/132/115 151/256/207 153/258/209
f 68/121/105 151/256/207 78/132/115
f 151/256/207 68/121/105 65/116/103
f 66/120/104 61/111/98 149/264/205
f 61/111/98 158/265/212 149/264/205
f 146/247/201 149/253/205 157/266/213
f 149/253/205 158/267/212 157/266/213
f 159/268/214 158/265/212 61/111/98
f 8/269/14 158/265/212 159/268/214
f 160/270/215 157/266/213 158/267/212
f 160/270/215 158/267/212 8/18/14
f 3/5/5 160/270/215 8/18/14
f 160/270/215 3/5/5 157/266/213
f 159/268/214 61/111/98 59/109/96
f 8/269/14 159/268/214 162/271/216
f 159/268/214 161/272/217 162/271/216
f 161/272/217 159/268/214 59/109/96
f 161/272/217 163/273/218 162/271/216
f 162/271/216 10/274/18 9/275/15
f 162/271/216 163/273/218 10/274/18
f 8/269/14 162/271/216 9/275/15
f 163/273/218 166/276/219 10/274/18
f 161/272/217 165/277/220 163/273/218
f 163/273/218 164/278/221 166/276/219
f 165/277/220 164/278/221 163/273/218
f 166/279/219 199/21/16 10/23/18
f 240/280/222 239/281/223 166/279/219
f 164/278/221 241/282/224 240/283/222
f 167/284/225 243/285/226 244/286/227
f 242/287/228 167/288/225 244/289/227
f 168/290/229 245/291/230 243/292/226
f 169/293/231 168/290/229 167/288/225
f 164/278/221 169/293/231 167/288/225
f 171/294/232 170/295/233 169/293/231
f 170/295/233 168/290/229 169/293/231
f 172/296/234 171/294/232 169/293/231
f 172/296/234 169/293/231 164/278/221
f 56/106/93 171/294/232 172/296/234
f 164/278/221 55/105/92 172/296/234
f 56/106/93 172/296/234 55/105/92
f 173/297/235 171/294/232 56/106/93
f 173/297/235 170/295/233 171/294/232
f 173/297/235 56/106/93 51/101/88
f 48/99/86 173/297/235 51/101/88
f 173/297/235 48/99/86 34/298/71
f 170/295/233 173/297/235 34/298/71
f 170/295/233 30/299/64 168/290/229
f 34/298/71 30/299/64 170/295/233
f 168/290/229 30/299/64 29/300/62
f 168/301/229 221/302/236 247/303/237
f 247/303/237 246/304/238 168/301/229
f 59/109/96 55/105/92 165/277/220
f 165/277/220 55/105/92 164/278/221
f 59/109/96 165/277/220 161/272/217
f 143/305/196 157/306/239 174/307/240
f 174/307/240 157/306/239 175/308/241
f 157/306/239 3/4/4 175/308/241
f 143/243/198 146/247/201 157/266/213
f 175/308/241 2/1/1 176/309/242
f 177/310/243 175/308/241 176/309/242
f 177/310/243 174/307/240 175/308/241
f 175/308/241 3/4/4 2/1/1
f 141/238/193 177/313/243 140/239/194
f 177/310/243 141/314/193 174/307/240
f 190/340/268 188/339/267 134/227/270
f 135/226/182 190/340/268 134/227/183
f 191/349/273 256/350/272 257/351/274
f 188/339/267 191/349/273 134/227/270
f 258/352/275 191/349/273 257/351/276
f 259/353/277 191/349/273 258/352/275
f 18/48/40 263/356/281 264/357/281
f 134/227/270 263/356/282 21/51/282
f 176/309/242 2/1/1 192/368/287
f 2/1/1 4/3/3 192/368/287
f 141/314/193 143/305/196 174/307/240
f 78/132/115 74/129/112 68/121/105
f 69/369/107 72/370/109 64/114/101
f 193/371/291 72/370/109 50/100/87
f 71/203/108 50/100/87 72/370/109
f 193/371/291 64/114/101 72/370/109
f 64/114/101 193/371/291 58/108/95
f 58/108/95 193/371/291 53/103/90
f 193/371/291 50/100/87 53/103/90
f 50/100/87 71/203/108 46/97/84
f 43/372/80 34/298/71 48/99/86
f 34/81/71 43/90/80 35/82/72
f 11/373/292 17/45/283 4/9/279
f 12/43/293 17/45/283 11/373/292
f 5/8/294 11/373/292 4/9/279
f 203/374/295 5/12/10 269/375/296
f 5/12/10 270/376/297 269/375/296
f 5/12/10 271/377/298 270/376/297
f 6/11/9 196/378/299 271/377/298
s 0
f 227/379/300 238/380/300 233/381/300
f 215/382/301 236/383/301 216/384/301
f 208/385/302 237/386/302 214/387/302
f 252/388/303 261/389/303 257/390/303
f 218/391/304 206/392/304 205/393/304
f 268/394/305 262/395/305 250/396/305
f 218/397/306 270/398/306 196/399/306
f 195/400/307 223/401/307 224/402/307
f 239/403/308 246/404/308 201/405/308
f 244/406/309 245/407/309 241/408/309
s 1
f 194/14/12 196/378/299 6/11/9
f 6/11/9 7/6/6 195/13/11
f 9/20/15 198/25/20 197/15/13
f 198/25/20 9/20/15 10/23/18
f 10/23/18 200/22/17 201/24/19
f 11/26/21 203/374/295 204/27/22
f 12/30/25 207/33/28 206/31/26
f 12/30/25 11/26/21 205/29/24
f 13/32/27 206/31/26 208/34/29
f 210/36/31 211/62/55 14/39/32
f 212/60/53 27/59/52 28/56/49
f 28/56/49 14/39/32 211/62/55
f 28/56/49 214/63/56 215/64/57
f 218/68/60 217/409/310 31/66/59
f 31/66/59 219/410/68 220/67/60
f 223/69/61 221/302/236 29/70/62
f 30/72/64 224/411/66 222/71/63
f 224/75/66 30/80/64 31/73/59
f 31/73/59 217/412/310 225/74/65
f 31/73/59 32/79/70 226/76/67
f 132/208/167 133/211/172 228/209/170
f 132/212/167 227/413/171 229/213/173
f 131/207/169 234/414/311 235/221/178
f 236/223/179 234/414/311 131/207/169
f 131/207/169 130/206/168 233/222/177
f 32/79/70 235/221/178 237/224/180
f 238/225/181 232/415/176 133/211/172
f 133/211/172 27/59/52 216/65/58
f 136/232/188 91/151/130 92/233/129
f 166/279/219 239/281/223 199/21/16
f 240/283/222 166/276/219 164/278/221
f 164/278/221 242/287/228 241/282/224
f 242/287/228 164/278/221 167/288/225
f 243/292/226 167/288/225 168/290/229
f 168/290/229 246/416/238 245/291/230
f 168/301/229 29/70/62 221/302/236
f 191/349/273 188/339/267 256/350/272
f 259/353/277 134/227/270 191/349/273
f 18/48/40 21/51/43 263/356/281
f 134/227/270 259/353/277 263/356/282
f 203/374/295 11/26/21 5/12/10
f 5/12/10 6/11/9 271/377/298
s 0
f 230/420/313 229/421/313 227/379/313
f 227/379/314 228/422/314 231/423/314
f 231/423/300 232/424/300 238/380/300
f 238/380/300 236/425/300 233/381/300
f 233/381/315 230/420/315 227/379/315
f 227/379/300 231/423/300 238/380/300
f 212/426/301 213/427/301 215/382/301
f 215/382/301 237/428/301 235/429/301
f 235/429/301 234/430/301 236/383/301
f 236/383/301 238/431/301 216/384/301
f 216/384/301 212/426/301 215/382/301
f 215/382/301 235/429/301 236/383/301
f 214/387/316 211/432/316 210/433/316
f 210/433/302 209/434/302 208/385/302
f 208/385/302 220/435/302 219/436/302
f 219/436/302 226/437/302 237/386/302
f 237/386/302 215/438/302 214/387/302
f 214/387/302 210/433/302 208/385/302
f 208/385/302 219/436/302 237/386/302
f 254/439/303 251/440/303 252/388/303
f 252/388/303 253/441/303 262/395/303
f 261/389/303 265/442/303 264/443/303
f 252/388/303 262/395/303 261/389/303
f 255/444/303 254/439/303 252/388/303
f 257/390/303 256/445/303 255/444/303
f 259/446/303 258/447/303 257/390/303
f 261/389/303 264/443/303 263/448/303
f 263/448/303 259/446/303 257/390/303
f 257/390/303 255/444/303 252/388/303
f 261/389/303 263/448/303 257/390/303
f 202/449/304 204/450/304 218/391/304
f 218/391/317 220/451/317 208/452/317
f 206/392/304 207/453/304 205/393/304
f 218/391/304 208/452/304 206/392/304
f 205/393/304 202/449/304 218/391/304
f 249/454/318 248/455/318 268/394/318
f 268/394/305 267/456/305 266/457/305
f 266/457/305 260/458/305 262/395/305
f 262/395/305 253/441/305 250/396/305
f 250/396/305 249/454/305 268/394/305
f 268/394/305 266/457/305 262/395/305
f 196/399/319 194/459/319 225/460/319
f 225/460/319 217/461/319 218/397/319
f 218/397/319 204/462/319 203/463/319
f 203/463/306 269/464/306 270/398/306
f 270/398/319 271/465/319 196/399/319
f 196/399/306 225/460/306 218/397/306
f 218/397/306 203/463/306 270/398/306
f 225/466/307 194/467/307 195/400/307
f 195/400/307 197/468/307 198/469/307
f 198/469/307 201/470/307 223/401/307
f 223/401/320 222/471/320 224/402/320
f 224/402/307 225/466/307 195/400/307
f 195/400/307 198/469/307 223/401/307
f 200/472/308 199/473/308 239/403/308
f 239/403/308 240/474/308 241/475/308
f 241/475/308 245/476/308 246/404/308
f 246/404/308 247/477/308 221/478/308
f 221/478/308 223/479/308 201/405/308
f 201/405/308 200/472/308 239/403/308
f 239/403/308 241/475/308 246/404/308
f 246/404/308 221/478/308 201/405/308
f 241/408/321 242/480/321 244/406/321
f 244/406/309 243/481/309 245/407/309
