# ('FARMS composite mesh',)
mtllib link_body_00_composite.mtl

o link_body_00
usemtl link_body_00_composite
v 15.54909400 -3.07815300 -1.74620500
v 15.54909400 -3.07815300 -1.74620500
v 9.88462900 -5.13878900 -1.56656400
v 1.87808100 -3.41146600 -1.93321900
v 15.33702000 -3.32129400 -1.47937700
v 15.33702000 -3.32129400 -1.47937700
v 15.08582600 -2.38693400 -1.80807900
v 15.08582600 -2.38693400 -1.80807900
v 15.78224800 -3.92979800 -1.60468900
v 15.78224800 -3.92979800 -1.60468900
v 15.91436700 -3.63155900 -1.63945100
v 15.91436700 -3.63155900 -1.63945100
v 15.94604800 -3.57488200 -1.64019300
v 15.94604800 -3.57488200 -1.64019300
v 15.94604800 -3.57488200 -1.64019300
v 15.86508800 -3.59725300 -1.58314300
v 15.86508800 -3.59725300 -1.58314300
v 15.86508800 -3.59725300 -1.58314300
v 15.87747900 -3.68700900 -1.63384100
v 15.87747900 -3.68700900 -1.63384100
v 15.87747900 -3.68700900 -1.63384100
v 15.81277000 -3.63560600 -1.53107400
v 15.81277000 -3.63560600 -1.53107400
v 15.81277000 -3.63560600 -1.53107400
v 15.43120500 -3.79465600 -1.10448500
v 15.43120500 -3.79465600 -1.10448500
v 15.29972000 -3.84420500 -0.95544900
v 15.29972000 -3.84420500 -0.95544900
v 15.78693700 -3.91512300 -1.60652600
v 15.78693700 -3.91512300 -1.60652600
v 15.17015400 -3.89851300 -0.80339800
v 15.17015400 -3.89851300 -0.80339800
v 15.34778500 -4.59805600 -1.23497100
v 15.34778500 -4.59805600 -1.23497100
v 15.14801700 -3.91301100 -0.77248100
v 15.14801700 -3.91301100 -0.77248100
v 15.12214600 -4.73553200 -0.91752700
v 15.03317200 -4.08863000 -0.51704000
v 15.03317200 -4.08863000 -0.51704000
v 14.77583800 -4.67045700 0.00661400
v 15.01396800 -4.11958400 -0.47282600
v 15.01396800 -4.11958400 -0.47282600
v 14.76967700 -4.35198500 0.15628200
v 14.76967700 -4.35198500 0.15628200
v 14.75295000 -3.90536800 -0.47282600
v 14.31894800 -4.33937000 0.67552100
v 14.06609100 -3.06842800 -0.47282600
v 14.06609100 -3.06842800 -0.47282600
v 13.55575700 -3.40942100 0.67552100
v 13.55575700 -3.40942100 0.67552100
v 14.75288900 -2.60952500 -1.47937700
v 14.75288900 -2.60952500 -1.47937700
v 13.55571100 -2.11357000 -0.47282600
v 13.55571100 -2.11357000 -0.47282600
v 13.55571100 -2.11357000 -0.47282600
v 12.98865600 -2.34844900 0.67552100
v 12.98865600 -2.34844900 0.67552100
v 14.31883700 -1.79747200 -1.47937700
v 14.31883700 -1.79747200 -1.47937700
v 13.24141800 -1.07748800 -0.47282600
v 14.05154900 -0.91634300 -1.47937700
v 14.05154900 -0.91634300 -1.47937700
v 13.96129700 0.00000100 -1.47937700
v 13.96129700 0.00000100 -1.47937700
v 14.60836100 -1.13570400 -1.88922400
v 14.60836100 -1.13570400 -1.88922400
v 14.51044200 0.34393500 -1.92827000
v 14.51044200 0.34393500 -1.92827000
v -1.27564000 -0.09203000 -2.07935100
v 3.75910000 0.05636500 -2.06242800
v 1.89715400 3.40504500 -1.93352900
v 14.83167400 1.90018400 -1.84673500
v 14.83167400 1.90018400 -1.84673500
v 14.31883700 1.79747300 -1.47937700
v 14.31883700 1.79747300 -1.47937700
v 15.55770400 3.05759000 -1.75892600
v 15.55770400 3.05759000 -1.75892600
v 14.05154900 0.91634400 -1.47937700
v 14.05154900 0.91634400 -1.47937700
v 14.75288900 2.60952500 -1.47937700
v 14.75288900 2.60952500 -1.47937700
v 13.55571100 2.11357100 -0.47282600
v 14.06609400 3.06842900 -0.47282600
v 14.06609400 3.06842900 -0.47282600
v 15.33702000 3.32129600 -1.47937700
v 14.75295000 3.90536800 -0.47282600
v 14.75295000 3.90536800 -0.47282600
v 14.75295000 3.90536800 -0.47282600
v 15.43120500 3.79465600 -1.10448600
v 15.43120500 3.79465600 -1.10448600
v 15.84463000 3.61185000 -1.56262500
v 15.84463000 3.61185000 -1.56262500
v 15.86499700 3.59658400 -1.58276400
v 15.86499700 3.59658400 -1.58276400
v 15.86499700 3.59658400 -1.58276400
v 15.98930300 3.56094900 -1.66978000
v 15.98930300 3.56094900 -1.66978000
v 15.98930300 3.56094900 -1.66978000
v 15.88108000 3.71310400 -1.64857900
v 15.88108000 3.71310400 -1.64857900
v 15.88108000 3.71310400 -1.64857900
v 15.79826300 3.91135200 -1.61955500
v 15.79826300 3.91135200 -1.61955500
v 15.79608100 3.91645400 -1.61874700
v 15.79608100 3.91645400 -1.61874700
v 10.04838700 5.12458900 -1.56815900
v 4.32751700 5.76608300 -1.42429700
v 3.60722900 4.94258600 -1.66161100
v 15.58418900 5.23319700 -1.40081300
v 15.58418900 5.23319700 -1.40081300
v 15.58512000 5.78517500 -1.20707300
v 15.58512000 5.78517500 -1.20707300
v 5.05127100 6.25493100 -1.09825300
v 8.88672000 7.55366200 0.16456500
v 8.88672000 7.55366200 0.16456500
v 15.60515100 5.76493400 -1.21370900
v 15.60515100 5.76493400 -1.21370900
v 15.60718100 5.78396400 -1.20340300
v 15.60718100 5.78396400 -1.20340300
v 15.60718100 5.78396400 -1.20340300
v 15.59982200 5.81692000 -1.17150000
v 15.59982200 5.81692000 -1.17150000
v 15.56353700 5.94045700 -1.04065400
v 15.56353700 5.94045700 -1.04065400
v 15.49182000 6.27590400 -0.68318600
v 15.49182000 6.27590400 -0.68318600
v 15.52135400 5.48676800 -1.29440600
v 15.52135400 5.48676800 -1.29440600
v 15.14961100 6.00245000 -0.31326000
v 15.12214600 4.73553300 -0.91752700
v 15.34778500 4.59805800 -1.23497100
v 15.34778500 4.59805800 -1.23497100
v 15.54006500 5.50424000 -1.30672000
v 15.54006500 5.50424000 -1.30672000
v 15.54006500 5.50424000 -1.30672000
v 15.54202200 5.46565900 -1.32021400
v 15.54202200 5.46565900 -1.32021400
v 15.54202200 5.46565900 -1.32021400
v 15.70641200 4.17508400 -1.57723400
v 15.70641200 4.17508400 -1.57723400
v 15.70641200 4.17508400 -1.57723400
v 15.59448900 4.71300600 -1.48888500
v 15.59448900 4.71300600 -1.48888500
v 15.59448900 4.71300600 -1.48888500
v 15.17015400 3.89851300 -0.80339800
v 15.17015400 3.89851300 -0.80339800
v 15.14801700 3.91301000 -0.77248100
v 15.14801700 3.91301000 -0.77248100
v 15.29972000 3.84420700 -0.95544700
v 15.29972000 3.84420700 -0.95544700
v 15.03317500 4.08862600 -0.51704500
v 15.03317500 4.08862600 -0.51704500
v 14.77583800 4.67045800 0.00661500
v 15.01396800 4.11958300 -0.47282600
v 15.01396800 4.11958300 -0.47282600
v 15.01396800 4.11958300 -0.47282600
v 14.76967700 4.35198400 0.15628300
v 14.76967700 4.35198400 0.15628300
v 14.75703900 4.42653000 0.27969000
v 14.75703900 4.42653000 0.27969000
v 14.71650800 4.66563700 0.67552100
v 14.71650800 4.66563700 0.67552100
v 14.31894800 4.33937200 0.67552100
v 14.31894800 4.33937200 0.67552100
v 14.05169400 4.60662700 1.92153700
v 14.05169400 4.60662700 1.92153700
v 13.24150200 3.61940300 1.92153700
v 13.55576000 3.40942300 0.67552100
v 12.63947400 2.49308900 1.92153700
v 12.98865600 2.34845100 0.67552100
v 12.26874600 1.27096600 1.92153700
v 12.63944000 1.19723100 0.67552100
v 12.14356300 0.00000100 1.92153700
v 12.52152300 0.00000100 0.67552100
v 13.24141800 1.07749000 -0.47282600
v 13.13529300 0.00000100 -0.47282600
v 12.63943600 -1.19722800 0.67552100
v 12.26874300 -1.27096400 1.92153700
v 12.63947000 -2.49308700 1.92153700
v 12.14357500 -1.29586200 3.21734400
v 12.01594300 0.00000100 3.21734400
v 12.14356300 0.00000100 4.51315100
v 12.26874300 -1.27096400 4.51315100
v 12.14357500 1.29586400 3.21734400
v 12.52156500 2.54192700 3.21734400
v 12.26874600 1.27096600 4.51315100
v 12.63944000 1.19723100 5.75916700
v 12.98865600 2.34845100 5.75916700
v 12.63947400 2.49308900 4.51315100
v 13.55576000 3.40942300 5.75916700
v 13.24150200 3.61940300 4.51315100
v 13.13538500 3.69030500 3.21734400
v 13.96145000 4.69686800 3.21734400
v 13.96145000 4.69686800 3.21734400
v 14.96801500 5.52293300 3.21734400
v 14.94954400 5.35710000 2.02902200
v 14.94954400 5.35710000 2.02902200
v 14.05169400 4.60662700 4.51315100
v 14.05169400 4.60662700 4.51315100
v 14.31894800 4.33937200 5.75916700
v 15.03891700 5.41682000 4.51315100
v 15.03891700 5.41682000 4.51315100
v 15.24889700 5.10255900 5.75916700
v 15.24889700 5.10255900 5.75916700
v 16.16522800 6.01884700 4.51315100
v 15.99623000 5.60103300 5.52375400
v 15.99623000 5.60103300 5.52375400
v 15.59736900 4.59562200 6.90949700
v 15.59736900 4.59562200 6.90949700
v 15.59736900 4.59562200 6.90949700
v 15.59736900 4.59562200 6.90949700
v 17.23510200 6.37686800 4.27122700
v 17.23510200 6.37686800 4.27122700
v 11.19894100 7.59697200 3.83961000
v 11.19894100 7.59697200 3.83961000
v 9.16865600 7.25101200 4.17853800
v 9.16865600 7.25101200 4.17853800
v 17.64517000 6.48495400 3.97672400
v 17.64517000 6.48495400 3.97672400
v 12.18322800 7.88486600 2.75560200
v 15.73160800 4.23479900 7.35591800
v 15.73160800 4.23479900 7.35591800
v 15.73160800 4.23479900 7.35591800
v 9.75078300 8.05615900 3.10169500
v 9.67035400 7.70251600 3.66945600
v 8.37161700 7.71950100 3.48155200
v 8.37161700 7.71950100 3.48155200
v 6.68480900 7.77443500 1.97646700
v 6.68480900 7.77443500 1.97646700
v 8.03399000 7.11926000 4.05197500
v 8.03399000 7.11926000 4.05197500
v 2.00722000 5.36532100 2.84158700
v 2.00722000 5.36532100 2.84158700
v 2.00722000 5.36532100 2.84158700
v 2.37752700 5.75065500 2.37389000
v 2.37752700 5.75065500 2.37389000
v -1.75605500 2.41829700 0.85447000
v 2.23010100 5.08139700 3.27128200
v 2.23010100 5.08139700 3.27128200
v 1.86751800 4.56795900 3.25532500
v 1.86751800 4.56795900 3.25532500
v -0.96988400 3.62392800 -0.40146900
v -2.02248100 2.53058200 0.37615100
v -2.57925100 1.13732500 0.57205500
v -2.20309100 1.05503900 1.05872800
v -2.20309100 1.05503900 1.05872800
v -2.06036800 2.53197100 -0.30116400
v -2.62209000 1.37527300 -0.05896600
v -2.73927800 0.78081700 -0.27401800
v -2.72408000 -0.84046700 -0.27576200
v -2.83724700 0.17911600 0.56105700
v -2.83724700 0.17911600 0.56105700
v -2.83724700 0.17911600 0.56105700
v -2.42373300 -0.07074000 -0.82451000
v -2.07672600 0.91977200 -1.19679700
v -2.07672600 0.91977200 -1.19679700
v -1.84367800 2.10781500 -1.05304800
v -1.84367800 2.10781500 -1.05304800
v -2.82619900 -0.15742500 0.58169700
v -2.82619900 -0.15742500 0.58169700
v -2.57925100 -1.13732500 0.57205500
v -2.57925100 -1.13732500 0.57205500
v -2.20309100 -1.05503900 1.05872800
v -2.20309100 -1.05503900 1.05872800
v -1.59159600 -0.00286300 1.71186900
v 2.21264900 -4.61859000 3.51256100
v 3.46269400 -0.01633400 4.31161200
v 2.23612400 4.46649800 3.54108900
v 7.19222800 0.84836100 5.95153200
v 8.74558700 5.43373200 5.25179200
v 8.69552700 3.21476500 6.03786000
v 8.55148000 6.50407600 4.68853300
v 8.77895800 1.55253600 6.44961900
v 10.25756900 0.99348200 6.92817200
v 9.42237200 -0.00000000 6.77055600
v 8.51236800 -0.00000000 6.47665500
v 15.28728800 3.47180300 7.75738000
v 15.28728800 3.47180300 7.75738000
v 15.28728800 3.47180300 7.75738000
v 15.50029700 3.66261700 7.71607900
v 15.50029700 3.66261700 7.71607900
v 14.06609400 3.06842900 6.90751400
v 14.75295000 3.90536800 6.90751400
v 14.75295000 3.90536800 6.90751400
v 14.61023800 2.70467300 7.70509400
v 14.61023800 2.70467300 7.70509400
v 13.55571100 2.11357100 6.90751400
v 13.05106100 0.00288900 7.59757600
v 14.13734900 1.87184700 7.67497700
v 14.13734900 1.87184700 7.67497700
v 13.79786000 0.39675200 7.71242800
v 13.79786000 0.39675200 7.71242800
v 13.24141800 1.07748900 6.90751400
v 13.13529300 0.00000100 6.90751400
v 12.52152300 0.00000100 5.75916700
v 12.63943600 -1.19722800 5.75916700
v 13.24141800 -1.07748800 6.90751400
v 12.98865600 -2.34844900 5.75916700
v 13.55575700 -3.40942100 5.75916700
v 13.55575700 -3.40942100 5.75916700
v 13.24149800 -3.61940100 4.51315100
v 13.24149800 -3.61940100 4.51315100
v 13.55571100 -2.11357000 6.90751400
v 14.06609100 -3.06842800 6.90751400
v 14.06609100 -3.06842800 6.90751400
v 12.63947000 -2.49308700 4.51315100
v 12.52156200 -2.54192500 3.21734400
v 13.13538500 -3.69030500 3.21734400
v 13.13538500 -3.69030500 3.21734400
v 13.24149800 -3.61940100 1.92153700
v 13.24149800 -3.61940100 1.92153700
v 14.05169000 -4.60662600 1.92153700
v 13.96145000 -4.69686800 3.21734400
v 14.91769900 -5.31734000 1.92153700
v 14.91769900 -5.31734000 1.92153700
v 14.78333800 -5.03434300 1.47922200
v 14.78333800 -5.03434300 1.47922200
v 14.93687500 -5.34328200 2.00201800
v 14.93687500 -5.34328200 2.00201800
v 15.03684100 -5.76353500 2.07915900
v 14.94954400 -5.35710200 2.02902000
v 14.94954400 -5.35710200 2.02902000
v 15.02431400 -5.43867000 2.18837200
v 15.02431400 -5.43867000 2.18837200
v 14.96801100 -5.52293300 3.21734400
v 15.04082800 -5.45165300 2.22576500
v 15.04082800 -5.45165300 2.22576500
v 15.12730300 -5.51259700 2.35822300
v 15.12730300 -5.51259700 2.35822300
v 15.39214200 -5.69861700 2.75828700
v 15.39214200 -5.69861700 2.75828700
v 15.51426600 -5.78439600 2.94276800
v 15.51426600 -5.78439600 2.94276800
v 15.58884700 -5.83218100 3.01404000
v 15.58884700 -5.83218100 3.01404000
v 15.53483500 -5.90397900 2.92623700
v 15.53483500 -5.90397900 2.92623700
v 16.29931400 -6.28090400 3.50101300
v 16.29931400 -6.28090400 3.50101300
v 16.29931400 -6.28090400 3.50101300
v 16.17695000 -6.77486900 2.95732500
v 16.17695000 -6.77486900 2.95732500
v 16.17695000 -6.77486900 2.95732500
v 15.56504700 -6.73177200 2.13267400
v 15.56504700 -6.73177200 2.13267400
v 15.97938800 -6.79048300 2.66123800
v 15.97938800 -6.79048300 2.66123800
v 15.61959700 -6.80933100 2.05241600
v 15.61959700 -6.80933100 2.05241600
v 15.64865000 -6.81427300 2.14853400
v 15.64865000 -6.81427300 2.14853400
v 15.22076300 -6.57404200 1.19211200
v 15.22076300 -6.57404200 1.19211200
v 14.84889700 -5.81653300 0.88567000
v 15.35478100 -6.66728700 0.47174400
v 15.35478100 -6.66728700 0.47174400
v 15.35478100 -6.66728700 0.47174400
v 15.35858800 -6.74957800 1.07738600
v 15.35858800 -6.74957800 1.07738600
v 15.39029600 -6.75691100 1.19637500
v 15.39029600 -6.75691100 1.19637500
v 15.36605000 -6.62180600 0.16473500
v 15.36605000 -6.62180600 0.16473500
v 15.36954400 -6.61578100 0.12820700
v 15.36954400 -6.61578100 0.12820700
v 15.36991000 -6.61347700 0.11972700
v 15.36991000 -6.61347700 0.11972700
v 10.97119200 -8.10606400 1.83688000
v 9.67191400 -8.06179800 3.06775400
v 9.21537500 -8.21828300 1.96077600
v 12.18931700 -7.88366800 2.75899000
v 10.51519100 -8.08365600 1.33712300
v 9.32410500 -8.15361400 1.40199500
v 17.44949200 -6.53680300 3.89562300
v 17.44949200 -6.53680300 3.89562300
v 16.20076600 -6.77216100 2.98700700
v 16.20076600 -6.77216100 2.98700700
v 16.22143700 -6.76968500 3.01287200
v 16.22143700 -6.76968500 3.01287200
v 16.22143700 -6.76968500 3.01287200
v 16.77322600 -6.67636200 3.49578500
v 16.77322600 -6.67636200 3.49578500
v 16.77322600 -6.67636200 3.49578500
v 17.14255700 -6.60553300 3.75523100
v 17.14255700 -6.60553300 3.75523100
v 17.13474800 -6.38056700 3.90719900
v 17.13474800 -6.38056700 3.90719900
v 16.81516100 -6.29525900 3.78462200
v 16.81516100 -6.29525900 3.78462200
v 17.25548700 -6.41597100 3.91958600
v 17.25548700 -6.41597100 3.91958600
v 17.23509400 -6.37687000 4.27122400
v 17.23509400 -6.37687000 4.27122400
v 17.35620700 -6.42787600 3.94201400
v 17.35620700 -6.42787600 3.94201400
v 17.68269900 -6.46856800 3.99433000
v 17.68269900 -6.46856800 3.99433000
v 17.68269900 -6.46856800 3.99433000
v 17.52348100 -6.52028000 3.92943500
v 17.52348100 -6.52028000 3.92943500
v 17.57904600 -6.50713100 3.94938700
v 17.57904600 -6.50713100 3.94938700
v 17.57904600 -6.50713100 3.94938700
v 17.64434600 -6.48533900 3.97632300
v 17.64434600 -6.48533900 3.97632300
v 11.14989600 -7.63006300 3.79956300
v 15.59736900 -4.59562000 6.90949900
v 15.59736900 -4.59562000 6.90949900
v 9.67037300 -7.77834000 3.66945400
v 15.99623000 -5.60103300 5.52375200
v 15.99623000 -5.60103300 5.52375200
v 15.73160800 -4.23479900 7.35591800
v 15.73160800 -4.23479900 7.35591800
v 15.73160800 -4.23479900 7.35591800
v 15.56157600 -3.79912900 7.63621300
v 15.56157600 -3.79912900 7.63621300
v 15.56157600 -3.79912900 7.63621300
v 9.16865600 -7.25101200 4.17853800
v 9.16865600 -7.25101200 4.17853800
v 15.32189800 -3.74007400 7.70593500
v 15.32189800 -3.74007400 7.70593500
v 14.75295000 -3.90536800 6.90751400
v 14.31894800 -4.33937000 5.75916700
v 15.19165700 -3.36581900 7.74957800
v 15.19165700 -3.36581900 7.74957800
v 15.19165700 -3.36581900 7.74957800
v 10.25756500 -0.99348600 6.92817000
v 14.61023800 -2.70467100 7.70509600
v 14.61023800 -2.70467100 7.70509600
v 14.61023800 -2.70467100 7.70509600
v 14.13734900 -1.87184200 7.67497700
v 14.13734900 -1.87184200 7.67497700
v 13.86325900 -0.95379900 7.68012100
v 13.86325900 -0.95379900 7.68012100
v 8.85119000 -1.50740300 6.47712800
v 7.17794200 -0.86081700 5.94461400
v 9.41741300 -3.13674900 6.29205100
v 8.74558700 -5.43373200 5.25179200
v 8.32586800 -6.61079100 4.57567100
v 2.22999400 -5.15705400 3.27110700
v 2.22999400 -5.15705400 3.27110700
v 8.03399800 -7.19508300 4.05197500
v 8.03399800 -7.19508300 4.05197500
v 8.41668400 -7.78176600 3.39773200
v 1.97821300 -5.36872800 2.79873200
v 1.97821300 -5.36872800 2.79873200
v -1.75605500 -2.41829600 0.85447000
v -1.75605500 -2.41829600 0.85447000
v -1.75605500 -2.41829600 0.85447000
v -2.04198100 -2.48189900 0.39557200
v -2.04198100 -2.48189900 0.39557200
v -2.04198100 -2.48189900 0.39557200
v -2.04198100 -2.48189900 0.39557200
v -1.29494200 -3.39037500 -0.52144800
v 6.44834700 -7.71633200 1.89251000
v 2.37752700 -5.75065500 2.37389000
v 5.24941800 -7.39905800 0.50685900
v 1.38550400 -5.37937300 -0.68848600
v 2.98572000 -6.32340000 -0.34092200
v 4.21677600 -6.86518800 -0.25510900
v 4.11043700 -6.70840400 -0.57277800
v 4.11043700 -6.70840400 -0.57277800
v 1.65126300 -5.46598900 -1.09834200
v -0.01002200 -4.37163400 -0.78124300
v 0.02634300 -4.13176300 -1.44248700
v 0.02634300 -4.13176300 -1.44248700
v 3.17409000 -5.91080400 -1.27773200
v 3.17409000 -5.91080400 -1.27773200
v 1.37160000 -5.08632400 -1.45851800
v 1.37160000 -5.08632400 -1.45851800
v 1.60603200 -4.75799500 -1.67270600
v -0.17085000 -3.49487800 -1.72192300
v 0.85845100 -3.88763400 -1.82110700
v -0.74738000 -3.16434200 -1.52521300
v -0.74738000 -3.16434200 -1.52521300
v -1.07057700 -2.17024000 -1.66483300
v -1.67961600 -0.03025400 -1.81390400
v -1.67961600 -0.03025400 -1.81390400
v -1.84367800 -2.10781500 -1.05304800
v -1.84367800 -2.10781500 -1.05304800
v -1.48404400 -3.05407700 -0.79508200
v -1.48404400 -3.05407700 -0.79508200
v -1.48404400 -3.05407700 -0.79508200
v -2.06036800 -2.53197100 -0.30116400
v -2.06036800 -2.53197100 -0.30116400
v -2.62209000 -1.37527300 -0.05896600
v -2.07672600 -0.91977200 -1.19679700
v -2.07672600 -0.91977200 -1.19679700
v -1.07057700 2.17024000 -1.66483300
v -1.07057700 2.17024000 -1.66483300
v -0.19071300 3.48634900 -1.72020500
v -0.74738000 3.16434300 -1.52521300
v -0.74738000 3.16434300 -1.52521300
v -1.48404400 3.05407600 -0.79508200
v -0.06133000 4.09511900 -1.40185800
v -0.06133000 4.09511900 -1.40185800
v -0.07613100 4.32061500 -0.80218400
v 1.44788600 5.41831900 -0.63301700
v 1.65126300 5.46598900 -1.09834200
v 1.65126300 5.46598900 -1.09834200
v 4.06771300 6.66897900 -0.61449100
v 4.06771300 6.66897900 -0.61449100
v 4.06771300 6.66897900 -0.61449100
v 4.06771300 6.66897900 -0.61449100
v 2.98572000 6.32340000 -0.34092100
v 2.98572000 6.32340000 -0.34092100
v 3.17409000 5.91080400 -1.27773100
v 3.17409000 5.91080400 -1.27773100
v 1.37160000 5.08632300 -1.45851800
v 1.37160000 5.08632300 -1.45851800
v 1.37160000 5.08632300 -1.45851800
v 1.56379200 4.85029300 -1.62781200
v 0.87591000 3.89460100 -1.82359000
v 5.52263500 7.48674300 0.50676000
v 5.52263500 7.48674300 0.50676000
v 7.74650700 7.88380500 0.91246000
v 5.58936500 7.25751900 -0.08258600
v 5.58936500 7.25751900 -0.08258600
v 7.92415000 8.03699600 1.49316600
v 9.25873300 8.22477500 1.88715400
v 11.01112100 8.10022500 1.83646400
v 10.04449900 7.96320200 1.06438900
v 15.47542500 6.31334700 -0.62436400
v 15.47542500 6.31334700 -0.62436400
v 15.47590500 6.30701600 -0.63474900
v 15.47590500 6.30701600 -0.63474900
v 15.46334000 6.34612200 -0.54811800
v 15.46334000 6.34612200 -0.54811800
v 15.36898700 6.56657300 -0.00453700
v 15.36898700 6.56657300 -0.00453700
v 15.36955200 6.61588200 0.12841000
v 15.36955200 6.61588200 0.12841000
v 15.36609900 6.62188500 0.16466600
v 15.36609900 6.62188500 0.16466600
v 15.35495700 6.66741000 0.47080300
v 15.35495700 6.66741000 0.47080300
v 14.84889700 5.81653400 0.88567100
v 15.22076300 6.57404400 1.19211200
v 15.03684100 5.76353600 2.07915900
v 14.86451800 5.41637700 -0.01779400
v 14.67546900 4.83077900 1.09570900
v 14.68001300 4.78436900 1.05625500
v 14.68001300 4.78436900 1.05625500
v 14.67799100 4.79982700 1.10008300
v 14.67799100 4.79982700 1.10008300
v 14.68602100 4.82936600 1.15885200
v 14.68602100 4.82936600 1.15885200
v 14.70967600 4.87919100 1.23672900
v 14.70967600 4.87919100 1.23672900
v 14.91769500 5.31733600 1.92153700
v 14.91769500 5.31733600 1.92153700
v 14.93687200 5.34327700 2.00201800
v 14.93687200 5.34327700 2.00201800
v 15.04082800 5.45165200 2.22576600
v 15.04082800 5.45165200 2.22576600
v 15.56504700 6.73177300 2.13267400
v 15.12730300 5.51259700 2.35822600
v 15.12730300 5.51259700 2.35822600
v 15.53483500 5.90398000 2.92623700
v 16.29931400 6.28090400 3.50101400
v 16.29931400 6.28090400 3.50101400
v 16.17754900 6.77568700 2.95735500
v 16.17754900 6.77568700 2.95735500
v 15.51426600 5.78439500 2.94276900
v 15.51426600 5.78439500 2.94276900
v 15.58885100 5.83218200 3.01404200
v 15.58885100 5.83218200 3.01404200
v 15.88139200 6.01114500 3.21734400
v 15.88139200 6.01114500 3.21734400
v 16.12344200 6.11972500 3.40449300
v 16.12344200 6.11972500 3.40449300
v 16.25815800 6.14946500 3.52336700
v 16.25815800 6.14946500 3.52336700
v 16.25815800 6.14946500 3.52336700
v 16.35323900 6.17304000 3.58209700
v 16.35323900 6.17304000 3.58209700
v 16.63397800 6.24784600 3.70493600
v 16.63397800 6.24784600 3.70493600
v 16.81517600 6.29525900 3.78463000
v 16.81517600 6.29525900 3.78463000
v 17.13474800 6.38056300 3.90720200
v 17.13474800 6.38056300 3.90720200
v 17.25549100 6.41597000 3.91958900
v 17.25549100 6.41597000 3.91958900
v 17.14257200 6.60593900 3.75495800
v 17.14257200 6.60593900 3.75495800
v 16.77382500 6.67686500 3.49577900
v 16.77382500 6.67686500 3.49577900
v 17.44679100 6.53760700 3.89425200
v 17.44679100 6.53760700 3.89425200
v 17.52355800 6.52032100 3.92943000
v 17.52355800 6.52032100 3.92943000
v 17.57868800 6.50721500 3.94926000
v 17.57868800 6.50721500 3.94926000
v 17.35619900 6.42787500 3.94201500
v 17.35619900 6.42787500 3.94201500
v 17.68269900 6.46856800 3.99433100
v 17.68269900 6.46856800 3.99433100
v 17.68269900 6.46856800 3.99433100
v 16.22129600 6.77057000 3.01198800
v 16.22129600 6.77057000 3.01198800
v 16.22129600 6.77057000 3.01198800
v 16.19989600 6.77313900 2.98521000
v 16.19989600 6.77313900 2.98521000
v 15.39214200 5.69861600 2.75828900
v 15.39214200 5.69861600 2.75828900
v 15.98338200 6.79104900 2.66633400
v 15.98338200 6.79104900 2.66633400
v 15.64948200 6.81509000 2.14869100
v 15.64948200 6.81509000 2.14869100
v 15.62012400 6.81007700 2.05164600
v 15.62012400 6.81007700 2.05164600
v 15.39081900 6.75747600 1.19638900
v 15.39081900 6.75747600 1.19638900
v 15.35898900 6.75009000 1.07705300
v 15.35898900 6.75009000 1.07705300
v 15.02431400 5.43867000 2.18837900
v 15.02431400 5.43867000 2.18837900
v 4.44521100 -5.69847000 -1.46008800
v 5.05126800 -6.25493100 -1.09825300
v 15.58512000 -5.78517400 -1.20707300
v 15.58512000 -5.78517400 -1.20707300
v 9.14511600 -6.89568200 -0.45256000
v 8.92847200 -7.60449300 0.23425300
v 8.92847200 -7.60449300 0.23425300
v 8.92847200 -7.60449300 0.23425300
v 8.92847200 -7.60449300 0.23425300
v 15.60510200 -5.76488400 -1.21367900
v 15.60510200 -5.76488400 -1.21367900
v 15.60727600 -5.78528500 -1.20262600
v 15.60727600 -5.78528500 -1.20262600
v 15.60727600 -5.78528500 -1.20262600
v 15.55749400 -5.87551200 -1.07697800
v 15.55749400 -5.87551200 -1.07697800
v 15.55749400 -5.87551200 -1.07697800
v 15.54518800 -5.90436500 -1.03609900
v 15.54518800 -5.90436500 -1.03609900
v 15.54518800 -5.90436500 -1.03609900
v 15.52135400 -5.48676800 -1.29440600
v 15.52135400 -5.48676800 -1.29440600
v 15.52135400 -5.48676800 -1.29440600
v 15.53945800 -5.50367100 -1.30631900
v 15.53945800 -5.50367100 -1.30631900
v 15.53945800 -5.50367100 -1.30631900
v 15.14961100 -6.00245000 -0.31326000
v 15.14961100 -6.00245000 -0.31326000
v 15.54125900 -5.46643700 -1.31926100
v 15.54125900 -5.46643700 -1.31926100
v 15.58594400 -5.21732600 -1.40508600
v 15.58594400 -5.21732600 -1.40508600
v 15.59110200 -4.71142700 -1.48539600
v 15.59110200 -4.71142700 -1.48539600
v 15.69435000 -4.18931100 -1.56572100
v 15.69435000 -4.18931100 -1.56572100
v 15.69435000 -4.18931100 -1.56572100
v 14.86451800 -5.41637500 -0.01779400
v 15.47627900 -6.30735900 -0.63511200
v 15.47627900 -6.30735900 -0.63511200
v 15.47627900 -6.30735900 -0.63511200
v 15.36977700 -6.56860300 -0.00342600
v 15.36977700 -6.56860300 -0.00342600
v 15.36977700 -6.56860300 -0.00342600
v 15.47460800 -6.32916000 -0.59934900
v 15.47460800 -6.32916000 -0.59934900
v 15.49096200 -6.27860400 -0.67984700
v 15.49096200 -6.27860400 -0.67984700
v 15.49096200 -6.27860400 -0.67984700
v 14.67546900 -4.83077900 1.09570900
v 14.68001300 -4.78437300 1.05625700
v 14.68001300 -4.78437300 1.05625700
v 14.67799100 -4.79982900 1.10008300
v 14.67799100 -4.79982900 1.10008300
v 14.68602100 -4.82936600 1.15884700
v 14.68602100 -4.82936600 1.15884700
v 14.71650800 -4.66563900 0.67552100
v 14.71650800 -4.66563900 0.67552100
v 14.75703900 -4.42653000 0.27968700
v 14.75703900 -4.42653000 0.27968700
v 8.01018600 -7.93887800 1.00221700
v 5.58936500 -7.25752000 -0.08258600
v 5.58936500 -7.25752000 -0.08258600
v 5.97541200 -7.56998700 0.53439600
v 7.26162900 -7.91632200 1.28557000
v 14.05169000 -4.60662600 4.51315100
v 15.24889300 -5.10255900 5.75916700
v 15.03891300 -5.41682000 4.51315100
v 16.16522800 -6.01884700 4.51315100
v 16.12344200 -6.11972500 3.40449100
v 16.12344200 -6.11972500 3.40449100
v 16.25816200 -6.14946500 3.52336600
v 16.25816200 -6.14946500 3.52336600
v 16.25816200 -6.14946500 3.52336600
v 15.88139200 -6.01114600 3.21734400
v 15.88139200 -6.01114600 3.21734400
v 16.35323900 -6.17304100 3.58209500
v 16.35323900 -6.17304100 3.58209500
v 16.63397000 -6.24784600 3.70493100
v 16.63397000 -6.24784600 3.70493100
vn 0.02916534 -0.12732260 -0.99143247
vn 0.46213918 0.44115020 0.76929440
vn 0.01758924 -0.24627981 -0.96903915
vn -0.01019081 -0.11384094 -0.99344672
vn 0.45378564 0.44734979 0.77068590
vn 0.53781122 0.55061400 0.63842252
vn 0.01498746 -0.07139256 -0.99733569
vn 0.52757097 0.34023422 0.77840192
vn 0.78098302 -0.17447390 0.59968691
vn 0.03356772 -0.15487818 -0.98736313
vn 0.09587120 -0.12716238 -0.98723778
vn 0.60304557 -0.32757614 0.72734442
vn 0.60305074 -0.32756782 0.72734388
vn 0.40753182 0.49011801 0.77052070
vn 0.14527877 -0.09410125 -0.98490560
vn 0.76638395 -0.23247363 0.59884193
vn 0.60304558 -0.32757612 0.72734442
vn 0.40753918 0.49012072 0.77051508
vn 0.60304047 -0.32758434 0.72734496
vn 0.06831949 -0.14530691 -0.98702500
vn 0.76636170 -0.23247035 0.59887168
vn 0.76639541 -0.23247582 0.59882641
vn 0.46895915 0.60380788 0.64458774
vn 0.40754159 0.49012227 0.77051282
vn 0.76638418 -0.23250620 0.59882898
vn 0.48429353 0.60037636 0.63640240
vn 0.77805732 -0.18001705 0.60184771
vn 0.49135362 0.59872029 0.63253904
vn 0.77235928 -0.20703791 0.60049684
vn 0.06821731 -0.14533620 -0.98702775
vn 0.81160973 -0.14331193 0.56634913
vn 0.49130992 0.59874527 0.63254934
vn 0.80588229 -0.06074789 0.58895112
vn 0.72469829 0.03526055 0.68816356
vn 0.49135374 0.59871945 0.63253974
vn 0.87572536 -0.11042650 0.47001179
vn 0.87912354 0.04414137 0.47454541
vn 0.93103202 -0.09455193 0.35247598
vn 0.49115714 0.59884292 0.63257554
vn 0.97198894 0.00760693 0.23490346
vn 0.93950613 -0.13049351 0.31670124
vn 0.52855144 0.64404426 0.55302837
vn 0.97572289 -0.07740582 0.20487356
vn 0.56004672 0.68249447 0.46962641
vn 0.58927286 0.58926833 0.55273893
vn 0.65391262 0.65391258 0.38052153
vn 0.68307358 0.36510884 0.63253934
vn 0.69371046 0.49277983 0.52529405
vn 0.84429157 0.45128297 0.28899037
vn 0.73956372 0.53329179 0.41066456
vn 0.58548243 0.35875502 0.72698360
vn 0.59871948 0.49135409 0.63253944
vn 0.68307355 0.36510966 0.63253890
vn 0.79864239 0.24226620 0.55088785
vn 0.77862571 0.41618304 0.46961013
vn 0.77862511 0.41618354 0.46961070
vn 0.87579617 0.33228832 0.35009362
vn 0.61406518 0.29048620 0.73385402
vn 0.74117810 0.22483429 0.63253819
vn 0.81734062 0.16258006 0.55274048
vn 0.61607635 0.10534107 0.78061078
vn 0.75817672 0.15081099 0.63436906
vn 0.62601854 0.01703972 0.77962198
vn 0.77302985 0.00000023 0.63436965
vn 0.01328382 -0.04430191 -0.99892987
vn 0.60127170 0.16127193 0.78260061
vn 0.61985220 -0.04914638 0.78317806
vn 0.01209132 0.01438403 -0.99982343
vn -0.33094919 -0.01520489 -0.94352607
vn 0.00743328 -0.02191162 -0.99973228
vn -0.01382560 0.11749656 -0.99297704
vn 0.01310465 0.05919593 -0.99816036
vn 0.56886096 -0.27396354 0.77546192
vn 0.59676305 -0.22808567 0.76931839
vn 0.71418678 -0.29582650 0.63436892
vn 0.02006290 0.12483746 -0.99197434
vn 0.45373195 -0.43079292 0.78009280
vn 0.75817647 -0.15081124 0.63436930
vn 0.60668991 -0.13512977 0.78336920
vn 0.54486301 -0.40719464 0.73301898
vn 0.68307334 -0.36511109 0.63253830
vn 0.76991831 -0.31891103 0.55274004
vn 0.59872035 -0.49135474 0.63253811
vn 0.72074077 -0.45232566 0.52529443
vn 0.49799608 -0.50692899 0.70357864
vn 0.68247157 -0.56008855 0.46960981
vn 0.56009408 -0.68246686 0.46961006
vn 0.54661479 -0.54661389 0.63437018
vn 0.76639058 0.23247996 0.59883098
vn 0.47980534 -0.60140437 0.63882675
vn 0.76638839 0.23247537 0.59883557
vn 0.42308175 -0.52821634 0.73619925
vn 0.60305349 0.32758750 0.72733275
vn 0.76638205 0.23247534 0.59884369
vn 0.40437227 -0.48414668 0.77594140
vn 0.40437653 -0.48414810 0.77593830
vn 0.02377730 0.15453648 -0.98770092
vn 0.60305349 0.32758750 0.72733275
vn 0.60305349 0.32758750 0.72733275
vn 0.02377863 0.15453583 -0.98770099
vn 0.76637422 0.23247487 0.59885389
vn 0.02462175 0.15850306 -0.98705144
vn 0.76634832 0.23264782 0.59881987
vn 0.02651371 0.16740575 -0.98553150
vn 0.77212370 0.20803476 0.60045527
vn 0.01703721 0.25067763 -0.96792069
vn -0.01451736 0.43446116 -0.90057357
vn -0.00902461 0.23311573 -0.97240712
vn 0.02445476 0.24638068 -0.96886456
vn 0.73567555 -0.09888215 0.67007746
vn 0.09800584 0.72205443 -0.68485930
vn 0.05755318 0.39523571 -0.91677498
vn -0.01142161 0.63591500 -0.77167458
vn 0.01526382 0.88995594 -0.45579101
vn 0.01780232 0.66949455 -0.74260362
vn 0.06473632 0.36814937 -0.92751024
vn 0.73025303 -0.38393221 0.56508988
vn 0.17037481 0.45513749 -0.87396927
vn 0.15389584 0.70477470 -0.69253786
vn 0.73032387 -0.38391348 0.56501105
vn 0.73072623 -0.38353418 0.56474836
vn 0.06979240 0.72978916 -0.68010059
vn 0.05497435 0.73358862 -0.67736663
vn 0.79351370 -0.35159201 0.49670824
vn 0.80214677 -0.34663663 0.48621353
vn 0.07110246 0.78002447 -0.62169628
vn 0.79469852 -0.24501336 0.55535819
vn 0.66897136 -0.21493153 0.71153479
vn 0.86887014 -0.36703153 0.33219351
vn 0.87912363 -0.04414133 0.47454524
vn 0.79373964 0.02771632 0.60762587
vn 0.70956390 0.03202418 0.70391301
vn 0.66897136 -0.21493153 0.71153479
vn 0.73032833 -0.38391556 0.56500387
vn 0.02202213 0.33106736 -0.94335011
vn 0.66897136 -0.21493153 0.71153479
vn 0.73570046 -0.09887488 0.67005119
vn 0.02202223 0.33106673 -0.94335033
vn 0.02650835 0.16738052 -0.98553593
vn 0.70956390 0.03202418 0.70391301
vn 0.77933127 0.17356080 0.60209585
vn 0.70956390 0.03202418 0.70391301
vn 0.73570044 -0.09887454 0.67005125
vn 0.02650852 0.16738197 -0.98553568
vn 0.49135742 -0.59871469 0.63254139
vn 0.81160854 0.14331498 0.56635006
vn 0.87572542 0.11042680 0.47001160
vn 0.49136502 -0.59869909 0.63255025
vn 0.49135535 -0.59871890 0.63253901
vn 0.77805461 0.18002782 0.60184800
vn 0.93103161 0.09454877 0.35247790
vn 0.49135219 -0.59871033 0.63254957
vn 0.97198898 -0.00760694 0.23490330
vn 0.49134770 -0.59870034 0.63256251
vn 0.93949794 0.13045340 0.31674206
vn 0.56009165 -0.68246952 0.46960909
vn 0.97572306 0.07740509 0.20487304
vn 0.56008127 -0.68247997 0.46960629
vn 0.56008854 -0.68247000 0.46961210
vn 0.99582688 0.02231881 0.08849119
vn 0.99582681 0.02233500 0.08848789
vn 0.58947312 -0.71828233 0.36958345
vn 0.71535705 -0.58707721 0.37895203
vn 0.58707407 -0.71535996 0.37895140
vn 0.62246214 -0.75847416 0.19302289
vn 0.75847411 -0.62246224 0.19302275
vn 0.81568582 -0.54502372 0.19392211
vn 0.76892002 -0.51377622 0.38052069
vn 0.90634131 -0.37541963 0.19392149
vn 0.85437818 -0.35389509 0.38052095
vn 0.96216666 -0.19138838 0.19392215
vn 0.90700288 -0.18041381 0.38052153
vn 0.98101684 -0.00000050 0.19392255
vn 0.92477209 -0.00000114 0.38052147
vn 0.81734143 -0.16258027 0.55273921
vn 0.83335407 -0.00000043 0.55273953
vn 0.90700307 0.18041339 0.38052127
vn 0.96216708 0.19138691 0.19392155
vn 0.90634147 0.37541899 0.19392196
vn 0.98078530 0.19509021 -0.00000000
vn 1.00000000 0.00000005 -0.00000000
vn 0.98101693 -0.00000091 -0.19392212
vn 0.96216708 0.19138734 -0.19392113
vn 0.98078505 -0.19509149 -0.00000000
vn 0.92387953 -0.38268345 -0.00000000
vn 0.96216666 -0.19138838 -0.19392215
vn 0.90700287 -0.18041380 -0.38052156
vn 0.85437818 -0.35389509 -0.38052095
vn 0.90634131 -0.37541963 -0.19392149
vn 0.76892003 -0.51377620 -0.38052071
vn 0.81568584 -0.54502371 -0.19392209
vn 0.83146969 -0.55557012 -0.00000000
vn 0.63439267 -0.77301096 -0.00000001
vn 0.77301078 -0.63439289 -0.00000000
vn 0.55557022 -0.83146962 -0.00000021
vn 0.92247908 -0.15449402 -0.35378516
vn 0.63136953 -0.76932280 0.09754460
vn 0.63136751 -0.76932425 -0.09754625
vn 0.71197144 -0.66484478 -0.22600460
vn 0.65382330 -0.65394985 -0.38061094
vn 0.60732440 -0.74002803 -0.28899065
vn 0.52454832 -0.83638260 -0.15910124
vn 0.42111661 -0.81719718 -0.39350931
vn 0.58694411 -0.71519574 -0.37946234
vn 0.35384040 -0.91032895 -0.21470484
vn 0.40855011 -0.84859358 -0.33611865
vn 0.11586343 0.78833157 0.60424250
vn 0.49131872 -0.59923659 -0.63207707
vn 0.55964286 -0.68264217 -0.46989310
vn 0.38398932 -0.79637116 -0.46727420
vn 0.11736167 0.78893281 0.60316768
vn 0.13060579 0.83514919 0.53429201
vn 0.24037073 -0.96109914 -0.13605274
vn -0.00637572 0.71863779 0.69535536
vn 0.10119898 0.88908632 0.44641269
vn -0.10515887 0.66530584 0.73912770
vn -0.05941325 0.77517340 0.62894854
vn 0.13825726 0.86170307 0.48821383
vn 0.19656271 -0.47278469 -0.85897482
vn 0.19550397 0.97198128 0.13050129
vn 0.11812845 0.78934774 0.60247474
vn -0.10982306 0.58667488 0.80234125
vn 0.49138093 -0.59836865 -0.63285049
vn -0.01687778 0.94796732 0.31791995
vn -0.03614302 0.81075590 0.58426754
vn -0.21212561 0.88309273 0.41850920
vn -0.15893177 0.72562414 0.66948510
vn -0.26973850 0.93827512 0.21652006
vn -0.40941720 0.90034394 0.14750714
vn -0.22723462 0.63015347 0.74247628
vn -0.33279183 0.74120698 0.58297669
vn -0.66556502 0.62976828 0.40051856
vn -0.35321434 0.82855521 0.43443745
vn -0.33078261 0.69932637 0.63366039
vn -0.53893260 0.83455481 0.11432379
vn -0.35677341 0.83972277 0.40936341
vn -0.70553072 0.40303421 0.58291494
vn -0.64692950 0.43744107 0.62460190
vn -0.35104452 0.52687566 0.77406058
vn -0.65783266 0.42574059 0.62128990
vn -0.55612810 0.22902853 0.79891644
vn -0.65701960 0.75385998 -0.00451274
vn -0.79026549 0.54734948 0.27547960
vn -0.87030246 0.29211646 0.39653702
vn -0.62299214 0.11736894 0.77337270
vn -0.72022309 0.30221311 0.62445651
vn -0.83186212 0.52398293 -0.18288603
vn -0.94278758 0.31984637 -0.09407381
vn -0.94730677 0.15404245 -0.28085729
vn -0.94699607 -0.16209650 -0.27735027
vn -0.75923458 0.19730419 0.62018861
vn -0.67481692 0.04068673 0.73686275
vn -0.99546709 0.04873010 -0.08167406
vn -0.82924616 -0.00766116 -0.55883102
vn -0.80979302 0.13497227 -0.57097964
vn -0.63712793 0.21455276 -0.74029394
vn -0.62032961 0.22028248 -0.75277274
vn -0.75626430 0.36237677 -0.54474525
vn -0.69243795 -0.04622427 0.71999514
vn -0.99428896 -0.08513935 -0.06434863
vn -0.95154690 -0.27526164 0.13707486
vn -0.73595214 -0.28039355 0.61624175
vn -0.67181814 -0.20878476 0.71068229
vn -0.77822696 -0.33479851 0.53129347
vn -0.57742212 0.00049191 0.81644562
vn -0.46696120 -0.25600869 0.84640817
vn -0.42929347 -0.00118043 0.90316428
vn -0.42920563 0.22813680 0.87391998
vn -0.37016705 0.06304311 0.92682356
vn -0.25390596 0.37868767 0.89001540
vn -0.27874574 0.26811258 0.92218027
vn -0.21114720 0.53082309 0.82075801
vn -0.29645648 0.14866535 0.94340456
vn -0.23947032 0.10140486 0.96559361
vn -0.27392497 0.00036129 0.96175100
vn -0.32653255 -0.00015193 0.94518594
vn 0.60110969 -0.49046970 -0.63095691
vn 0.45660736 -0.64284048 -0.61503319
vn -0.22277904 0.35065729 0.90962023
vn -0.16536766 0.50083224 0.84960026
vn 0.47370643 -0.62114529 -0.62432423
vn 0.69342408 -0.46273853 -0.55230074
vn 0.61879994 -0.58376445 -0.52564789
vn 0.48526215 -0.60645438 -0.62986802
vn 0.64273521 -0.42945121 -0.63439980
vn -0.22082586 0.12160083 0.96770304
vn 0.76991092 -0.31891218 -0.55274968
vn -0.19016344 -0.00186868 0.98175067
vn 0.71186430 -0.28546999 -0.64168224
vn -0.34442947 0.16189405 0.92474789
vn 0.76148210 -0.06493729 -0.64492492
vn -0.17000070 0.03515997 0.98481650
vn 0.81537926 -0.16658172 -0.55444313
vn 0.83410404 0.00437708 -0.55158979
vn 0.92477191 -0.00000162 -0.38052190
vn 0.90700281 0.18041382 -0.38052169
vn 0.81734082 0.16257961 -0.55274031
vn 0.85437793 0.35389495 -0.38052164
vn 0.71535584 0.58707858 -0.37895220
vn 0.81614428 0.43623794 -0.37895246
vn 0.86533590 0.46253207 -0.19302299
vn 0.75847395 0.62246223 -0.19302341
vn 0.76991078 0.31891144 -0.55275029
vn 0.64637022 0.52894394 -0.54993076
vn 0.73603560 0.39341789 -0.55088471
vn 0.90634147 0.37541899 -0.19392196
vn 0.92387973 0.38268296 -0.00000000
vn 0.77301093 0.63439270 -0.00000000
vn 0.88192091 0.47139739 -0.00000000
vn 0.75847441 0.62246185 0.19302284
vn 0.86533590 0.46253207 0.19302299
vn 0.69368381 0.69368371 0.19392184
vn 0.70710687 0.70710669 0.00000019
vn 0.62577691 0.76251171 0.16425329
vn 0.96580017 0.19929110 -0.16587068
vn 0.60732465 0.74002752 0.28899140
vn 0.52365203 0.78090197 0.34055934
vn 0.95687430 0.18676993 -0.22250519
vn 0.63136382 0.76932799 0.09754064
vn 0.90137242 0.30290941 -0.30947319
vn 0.63136243 0.76932932 0.09753910
vn 0.92249141 0.15450037 -0.35375024
vn 0.60582788 0.78956077 0.09780784
vn 0.92248821 0.15449845 -0.35375944
vn 0.55557058 0.83146938 0.00000059
vn 0.89227320 0.18267939 -0.41288834
vn 0.46915929 0.87770956 0.09754736
vn 0.85833720 0.21078940 -0.46778744
vn 0.46915394 0.87771249 0.09754680
vn 0.46914708 0.87771625 0.09754588
vn 0.85737788 0.21228486 -0.46886918
vn 0.81906864 0.21444293 -0.53210976
vn 0.46914716 0.87771625 0.09754552
vn 0.69399703 0.28596746 -0.66075013
vn 0.46914827 0.87771504 0.09755104
vn 0.70641910 0.50307609 -0.49788201
vn 0.77334921 0.31702086 -0.54902530
vn 0.47868856 0.40134319 -0.78088469
vn 0.66859182 0.40678982 -0.62250062
vn 0.47791279 0.58142942 -0.65843694
vn 0.27202790 -0.95329220 -0.13128141
vn 0.66661879 0.47087285 -0.57783920
vn 0.70641877 0.50307607 -0.49788250
vn 0.71487705 0.61913031 -0.32500532
vn 0.84131598 0.44174831 -0.31152182
vn 0.27201985 -0.95330098 -0.13123431
vn 0.70463729 0.50741153 -0.49600386
vn 0.27202070 -0.95330022 -0.13123805
vn 0.72016731 0.67453505 -0.16236227
vn 0.27202079 -0.95329985 -0.13124058
vn 0.68922867 0.62945623 -0.35881568
vn 0.75978436 0.64573423 -0.07586186
vn 0.89296526 0.44287353 -0.08047405
vn 0.94866728 0.31625680 0.00346889
vn 0.27202074 -0.95330008 -0.13123901
vn 0.87605170 0.47131122 0.10197628
vn 0.80740161 0.58528612 0.07444993
vn 0.78090706 0.62440930 -0.01723929
vn 0.27202100 -0.95330015 -0.13123797
vn 0.27202091 -0.95330009 -0.13123860
vn 0.72647899 0.66993190 -0.15303441
vn 0.27202572 -0.95330041 -0.13122628
vn 0.88504594 0.44444038 0.13844289
vn 0.88882422 0.43087125 0.15601755
vn 0.24090078 -0.94823031 -0.20694468
vn 0.89166797 0.42564286 0.15413109
vn 0.20641829 -0.93097363 -0.30113052
vn 0.15410230 -0.98595597 -0.06436851
vn -0.01443056 -0.96095417 0.27633103
vn -0.06173902 -0.99742911 0.03637942
vn 0.19651746 -0.97257049 0.12444892
vn 0.10108876 -0.94600725 -0.30797946
vn -0.00701319 -0.96559864 -0.25994246
vn 0.24298612 0.54876512 -0.79988411
vn 0.27209192 -0.95353319 -0.12938486
vn 0.66613948 0.47191016 -0.57754567
vn 0.27120773 -0.95416692 -0.12653800
vn 0.66662408 0.47086859 -0.57783657
vn 0.27097218 -0.95441263 -0.12518227
vn 0.47791279 0.58142942 -0.65843694
vn 0.27097277 -0.95441226 -0.12518385
vn 0.47791279 0.58142942 -0.65843694
vn 0.42335151 0.51717394 -0.74384449
vn 0.27096999 -0.95441444 -0.12517325
vn 0.35761040 0.53124143 -0.76804775
vn 0.28868537 0.95325418 -0.08925926
vn 0.34195978 0.53414056 -0.77314770
vn 0.42593465 0.50747151 -0.74903428
vn 0.28870219 0.95324787 -0.08927227
vn 0.21842104 0.97118755 -0.09532572
vn 0.24297324 0.54874486 -0.79990192
vn 0.24036996 0.96109969 -0.13605021
vn 0.13052724 -0.83499550 0.53455136
vn 0.23655999 0.53834009 -0.80884443
vn 0.13903234 0.98507518 -0.10147359
vn 0.19655793 0.47277109 -0.85898340
vn 0.13667619 -0.85313432 0.50346941
vn 0.13903355 0.98507506 -0.10147313
vn 0.20933638 0.49384343 -0.84397686
vn 0.27211438 -0.95352156 -0.12942334
vn 0.27211279 -0.95352327 -0.12941407
vn 0.19656303 0.47276295 -0.85898671
vn 0.15110973 -0.91504802 0.37396922
vn 0.19650684 0.47286305 -0.85894447
vn 0.13859097 -0.86165021 0.48821251
vn 0.07566114 -0.85063355 0.52028641
vn 0.11638748 -0.78894104 0.60334567
vn 0.50976115 0.67277403 -0.53620768
vn -0.03426639 -0.82533743 0.56359909
vn 0.11525249 -0.78857307 0.60404418
vn 0.40854872 0.84859404 -0.33611918
vn 0.49133752 0.59897536 -0.63231002
vn 0.08057753 -0.76994622 0.63300085
vn -0.05691867 -0.60761189 0.79219193
vn 0.12535577 -0.50172891 0.85589370
vn 0.27560868 -0.01616870 0.96113393
vn 0.49372727 0.59460387 -0.63457042
vn -0.08128378 -0.73806259 0.66981830
vn -0.10316997 -0.61942439 0.77824764
vn 0.27560868 -0.01616870 0.96113393
vn -0.12636392 -0.45517133 0.88139164
vn 0.58887362 0.59024792 -0.55211887
vn 0.65382343 0.65394924 -0.38061176
vn 0.27560868 -0.01616870 0.96113393
vn -0.24882308 -0.18857690 0.95001359
vn 0.55626252 0.53590156 -0.63512324
vn -0.23882569 -0.10222127 0.96566718
vn 0.60206765 0.48688748 -0.63281523
vn -0.22090330 -0.12173414 0.96766861
vn 0.68306846 0.36504404 -0.63258227
vn -0.38026958 -0.18291152 0.90660820
vn 0.71389690 0.29643444 -0.63441141
vn -0.15894046 -0.04985890 0.98602841
vn 0.75565718 0.14367931 -0.63901368
vn -0.29757975 -0.14358593 0.94383758
vn -0.36978392 -0.06510136 0.92683421
vn -0.27016880 -0.26209953 0.92645165
vn -0.25449766 -0.37931866 0.88957759
vn -0.21046924 -0.52633893 0.82381432
vn -0.50406377 -0.41310463 0.75846178
vn -0.34350759 -0.77503929 0.53039291
vn -0.25887076 -0.78907637 0.55708564
vn -0.22608592 -0.58510216 0.77880718
vn -0.20203130 -0.88056821 0.42869917
vn -0.67118767 -0.47383360 0.57007792
vn -0.49635089 -0.80475121 0.32559374
vn -0.68211552 -0.53444997 0.49908080
vn -0.77822696 -0.33479851 0.53129347
vn -0.64436424 -0.32277031 0.69326333
vn -0.70685940 -0.36219881 0.60758687
vn -0.69794224 -0.67117998 0.24978803
vn -0.89735615 -0.43045372 0.09727042
vn -0.77822696 -0.33479851 0.53129347
vn -0.67974033 -0.72756886 -0.09271811
vn -0.30382880 -0.92921907 0.21033304
vn -0.47124552 -0.84947301 0.23732521
vn -0.32314333 -0.94133340 -0.09731299
vn -0.55465688 -0.83057314 -0.05004006
vn -0.43845397 -0.89036356 -0.12251873
vn -0.30666154 -0.91594807 -0.25883938
vn -0.31835422 -0.87970723 -0.35322200
vn -0.05164577 -0.70846281 -0.70385593
vn -0.43184830 -0.82403654 -0.36670265
vn -0.60135109 -0.79237032 -0.10259701
vn -0.60000342 -0.71857861 -0.35162576
vn -0.37011342 -0.46695763 -0.80309815
vn -0.06371308 -0.48385580 -0.87282542
vn -0.29520054 -0.79989281 -0.52252094
vn -0.48625683 -0.76270742 -0.42641728
vn -0.20234971 -0.43928395 -0.87526236
vn -0.11141541 -0.33135588 -0.93690442
vn -0.34516080 -0.32814156 -0.87931061
vn -0.13002989 -0.22790788 -0.96496126
vn -0.53975622 -0.31101339 -0.78226203
vn -0.62819156 -0.54951642 -0.55082400
vn -0.51992751 -0.26797796 -0.81108766
vn -0.79919073 -0.00027220 -0.60107745
vn -0.58425956 0.00483829 -0.81155244
vn -0.81841760 -0.33408721 -0.46752365
vn -0.60888654 -0.31106472 -0.72972318
vn -0.70682672 -0.62492813 -0.33145258
vn -0.64222522 -0.36359806 -0.67479124
vn -0.77932669 -0.42237488 -0.46287079
vn -0.74444663 -0.66752516 0.01446980
vn -0.86762526 -0.40819478 -0.28390743
vn -0.94435612 -0.31803376 -0.08394075
vn -0.80881029 -0.13810340 -0.57162344
vn -0.64972187 -0.21564968 -0.72894218
vn -0.63979448 0.36582338 -0.67589664
vn -0.45268107 0.21301419 -0.86585495
vn -0.34884473 0.33024454 -0.87706665
vn -0.66075613 0.45339087 -0.59819567
vn -0.46926456 0.31069105 -0.82659654
vn -0.71732758 0.57681242 -0.39080503
vn -0.61086914 0.71436611 -0.34135019
vn -0.40164558 0.48995994 -0.77370543
vn -0.60701638 0.78529523 -0.12182981
vn -0.55079384 0.83389939 -0.03518449
vn -0.29152128 0.76810330 -0.57011636
vn -0.51595811 0.83137639 -0.20639897
vn -0.29543502 0.80215175 -0.51891303
vn -0.33187653 0.91343815 -0.23556043
vn -0.05072059 0.70546686 -0.70692569
vn -0.36320523 0.86689620 -0.34142778
vn -0.34627183 0.91282623 -0.21643497
vn -0.43886647 0.89150551 -0.11231272
vn -0.29506227 0.79858254 -0.52459906
vn -0.06514502 0.48369265 -0.87281014
vn -0.29080662 0.76249527 -0.57795543
vn -0.22040000 0.45685243 -0.86180606
vn -0.53667804 0.75422040 -0.37832297
vn -0.12715450 0.35368518 -0.92668146
vn -0.12425005 0.22873849 -0.96552609
vn -0.41894140 0.89867214 0.12990952
vn -0.16934086 0.93722290 -0.30485556
vn -0.07223839 0.93940240 -0.33511902
vn -0.15746861 0.90976579 -0.38409615
vn -0.01839001 0.71640772 -0.69743945
vn -0.13577016 0.98797614 -0.07395680
vn -0.04371462 0.99812112 -0.04293324
vn 0.14161750 0.98181945 -0.12639247
vn 0.07398800 0.92030272 -0.38414668
vn 0.79769273 -0.49783178 0.34036718
vn 0.12142070 0.87650073 -0.46583632
vn 0.09870887 0.85170343 -0.51464340
vn 0.80500495 -0.41027964 0.42852965
vn 0.16813051 0.91733344 -0.36087601
vn 0.79922997 -0.49575984 0.33978468
vn 0.86916265 -0.45010283 0.20485050
vn 0.17970433 0.92207588 -0.34275709
vn 0.88890268 -0.43072484 0.15597479
vn 0.21351168 0.93863512 -0.27088167
vn 0.27290364 0.95297163 -0.13179029
vn 0.88504866 -0.44444680 0.13840487
vn 0.27290708 0.95297187 -0.13178145
vn 0.86974447 -0.48342254 0.09923312
vn 0.94866731 -0.31625671 0.00346877
vn 0.84345325 -0.53134449 -0.07911794
vn 0.90137205 -0.30291095 -0.30947274
vn 0.94596028 -0.21192299 0.24545427
vn 0.99672354 -0.06470290 -0.04853575
vn 0.99654677 0.03268727 0.07632874
vn 0.60733046 -0.74002027 0.28899779
vn 0.99562891 0.07286879 -0.05842279
vn 0.60733904 -0.74001026 0.28900539
vn 0.97317237 -0.15911129 -0.16619006
vn 0.60731954 -0.74003412 0.28898526
vn 0.96579831 -0.19932112 -0.16584547
vn 0.60732416 -0.74002809 0.28899100
vn 0.62577833 -0.76251273 0.16424314
vn 0.96579925 -0.19929809 -0.16586766
vn 0.63136913 -0.76932507 0.09752921
vn 0.95686894 -0.18676834 -0.22252957
vn 0.46915248 -0.87771333 0.09754622
vn 0.89226346 -0.18268782 -0.41290567
vn 0.76272442 -0.56081727 -0.32207986
vn 0.85833812 -0.21079099 -0.46778504
vn 0.46915874 -0.87771003 0.09754582
vn 0.76502477 -0.34694832 -0.54255320
vn 0.48091020 -0.46052927 -0.74608188
vn 0.66859319 -0.40679721 -0.62249432
vn 0.27290643 0.95297337 -0.13177192
vn 0.68306128 -0.48410233 -0.54687496
vn 0.46914773 -0.87771618 0.09754344
vn 0.81906356 -0.21444346 -0.53211737
vn 0.69399168 -0.28596141 -0.66075837
vn 0.46914893 -0.87771479 0.09755008
vn 0.66534629 -0.32306675 -0.67300980
vn 0.47044871 -0.88014380 -0.06344203
vn 0.42217936 -0.90120886 -0.09791418
vn 0.66529801 -0.32281890 -0.67317644
vn 0.55407215 -0.30520504 -0.77450238
vn 0.29590456 -0.95021699 -0.09761234
vn 0.66529018 -0.32280044 -0.67319302
vn 0.49118794 -0.35303272 -0.79630541
vn 0.29586993 -0.95023298 -0.09756164
vn 0.45387234 -0.37922371 -0.80634315
vn 0.29511825 -0.95055478 -0.09669973
vn 0.42593431 -0.50747019 -0.74903536
vn 0.28869087 -0.95325222 -0.08926246
vn 0.34196092 -0.53414075 -0.77314707
vn 0.28869054 -0.95325238 -0.08926178
vn 0.24298351 -0.54876756 -0.79988323
vn 0.21843569 -0.97118386 -0.09532970
vn 0.27184023 0.95410338 -0.12565677
vn 0.35764468 -0.53123181 -0.76803844
vn 0.44232129 -0.53953986 -0.71641372
vn 0.27184364 0.95410071 -0.12566971
vn 0.27077943 0.95491465 -0.12172305
vn 0.25028314 -0.53314134 -0.80815757
vn 0.27068206 0.95498797 -0.12136391
vn 0.20935938 -0.49388644 -0.84394599
vn 0.19669580 -0.47248118 -0.85911134
vn 0.15530028 0.91998402 0.35987669
vn 0.13903948 -0.98507353 -0.10147984
vn 0.23656919 -0.53837877 -0.80881600
vn 0.13903442 -0.98507405 -0.10148178
vn 0.13648608 0.85331215 0.50321956
vn 0.19656126 -0.47279151 -0.85897139
vn 0.27184535 0.95409891 -0.12567965
vn 0.47791569 -0.58142888 -0.65843530
vn 0.66660363 -0.47086268 -0.57786498
vn 0.66659691 -0.47085559 -0.57787851
vn 0.27208503 0.95384905 -0.12705010
vn 0.46914761 -0.87771611 0.09754467
vn 0.56984991 0.53328647 -0.62520127
vn 0.27290736 0.95297235 -0.13177738
vn 0.70463835 -0.50741446 -0.49599936
vn 0.68920714 -0.62947410 -0.35882570
vn 0.27290739 0.95297192 -0.13178045
vn 0.27290754 0.95297133 -0.13178439
vn 0.72015165 -0.67455103 -0.16236533
vn 0.27290809 0.95297214 -0.13177736
vn 0.72647708 -0.66993354 -0.15303629
vn 0.27290799 0.95297217 -0.13177733
vn 0.78089520 -0.62442325 -0.01727109
vn 0.60582485 -0.78956288 0.09780956
vn 0.92248073 -0.15451015 -0.35377383
vn -0.01023633 -0.39648997 -0.91798198
vn -0.01225871 -0.63402837 -0.77321261
vn 0.10660131 -0.82716251 -0.55175932
vn 0.06105426 -0.39693261 -0.91581487
vn 0.02002882 -0.67528620 -0.73728380
vn 0.10660625 -0.82717054 -0.55174632
vn 0.01186702 -0.69769418 -0.71629743
vn 0.03938728 -0.69193965 -0.72088013
vn 0.01091014 -0.89096086 -0.45394903
vn 0.06557582 -0.36672365 -0.92801593
vn 0.73029533 0.38392835 0.56503783
vn 0.17306169 -0.45485649 -0.87358756
vn 0.10660426 -0.82716725 -0.55175163
vn 0.73026918 0.38395772 0.56505168
vn 0.10660675 -0.82717137 -0.55174498
vn 0.80232757 0.34644311 0.48605313
vn 0.73029769 0.38392630 0.56503618
vn 0.10660880 -0.82717491 -0.55173928
vn 0.80232451 0.34644499 0.48605683
vn 0.03938728 -0.69193965 -0.72088013
vn 0.70285134 0.15938622 0.69325034
vn 0.83739556 0.24377655 0.48922558
vn 0.73028634 0.38392280 0.56505322
vn 0.73028112 0.38392312 0.56505976
vn 0.66893592 0.21497042 0.71155636
vn 0.02220227 -0.32920404 -0.94399775
vn 0.88271002 0.33525032 0.32928749
vn 0.79857952 0.49663728 0.34003259
vn 0.72190676 0.12522757 0.68056498
vn 0.02220235 -0.32920393 -0.94399779
vn 0.02417873 -0.24007680 -0.97045274
vn 0.73570617 0.09887506 0.67004489
vn 0.72539297 0.03879423 0.68724089
vn 0.02577673 -0.15698806 -0.98726405
vn 0.77933102 -0.17356110 0.60209610
vn 0.70956039 -0.03202082 0.70391670
vn 0.02580002 -0.15698728 -0.98726357
vn 0.94596036 0.21192263 0.24545424
vn 0.10040245 -0.85161983 -0.51445409
vn 0.79858094 0.49662172 0.34005198
vn 0.80231293 0.34645385 0.48606964
vn 0.19480808 -0.92149978 -0.33598804
vn 0.88874464 0.43101913 0.15606239
vn 0.79857942 0.49663834 0.34003127
vn 0.79858032 0.49662854 0.34004348
vn 0.13078735 -0.87796743 -0.46050826
vn 0.80237454 0.34639168 0.48601225
vn 0.10040237 -0.85161976 -0.51445423
vn 0.03938728 -0.69193965 -0.72088013
vn 0.99672364 0.06469885 -0.04853919
vn 0.99654602 -0.03267752 0.07634270
vn 0.60731889 0.74002835 0.28900141
vn 0.60733960 0.74002114 0.28897632
vn 0.99562833 -0.07287278 -0.05842758
vn 0.97317028 0.15911150 -0.16620209
vn 0.60733042 0.74002479 0.28898629
vn 0.99582714 -0.02231977 0.08848809
vn 0.58947629 0.71827906 0.36958476
vn 0.99582686 -0.02231856 0.08849153
vn 0.56008959 0.68247128 0.46960899
vn -0.07330167 -0.94340046 -0.32345393
vn -0.17377606 -0.91355495 -0.36772168
vn -0.01107129 -0.71281661 -0.70126308
vn -0.16120864 -0.95508555 -0.24864307
vn -0.16307401 -0.98338475 -0.07975772
vn 0.69368448 0.69368297 -0.19392212
vn 0.50664213 0.76975192 -0.38832427
vn 0.54679969 0.81496043 -0.19196248
vn 0.35384105 0.91032865 -0.21470505
vn 0.42217417 0.90121130 -0.09791403
vn 0.66529317 0.32280162 -0.67318951
vn 0.29590433 0.95021699 -0.09761299
vn 0.55408485 0.30519151 -0.77449863
vn 0.66528441 0.32278094 -0.67320808
vn 0.66534519 0.32306846 -0.67301006
vn 0.47044715 0.88014461 -0.06344238
vn 0.29591386 0.95021412 -0.09761202
vn 0.49119436 0.35302500 -0.79630487
vn 0.29512211 0.95055357 -0.09669978
vn 0.45387527 0.37921663 -0.80634483
vt 0.07014200 0.13718100
vt 0.58393300 0.87971400
vt 0.08408600 0.17472600
vt 0.07289700 0.22801700
vt 0.58252600 0.87807500
vt 0.49510300 0.87171900
vt 0.06556200 0.14029100
vt 0.58082900 0.88429100
vt 0.96881700 0.18142800
vt 0.07580700 0.13559000
vt 0.07381600 0.13472600
vt 0.58638000 0.87604500
vt 0.58658800 0.87642300
vt 0.58658800 0.87642300
vt 0.07343900 0.13451800
vt 0.96964700 0.18354000
vt 0.58604900 0.87626800
vt 0.58604900 0.87626800
vt 0.58613700 0.87567500
vt 0.07418700 0.13496800
vt 0.96968400 0.18287900
vt 0.96923400 0.18340700
vt 0.49854900 0.87039400
vt 0.58570200 0.87600900
vt 0.96629700 0.18327900
vt 0.49545500 0.86867200
vt 0.96528800 0.18327200
vt 0.49437200 0.86807300
vt 0.96887000 0.18151400
vt 0.07570900 0.13555900
vt 0.96424700 0.18324800
vt 0.49330100 0.86744500
vt 0.96473700 0.17807700
vt 0.55660800 0.97765200
vt 0.49311400 0.86730200
vt 0.96402400 0.18322700
vt 0.96248400 0.17793200
vt 0.96200900 0.18279900
vt 0.49205800 0.86587500
vt 0.95723100 0.18059000
vt 0.96165800 0.18272200
vt 0.49188100 0.86562500
vt 0.95727300 0.18289000
vt 0.48911700 0.86224200
vt 0.48999200 0.86657100
vt 0.48503500 0.86035200
vt 0.57404300 0.87965100
vt 0.48450200 0.86938000
vt 0.53916100 0.81084800
vt 0.47893400 0.86347400
vt 0.57861600 0.88278100
vt 0.49043400 0.87410900
vt 0.57061300 0.88597500
vt 0.53140400 0.80236100
vt 0.47978600 0.87185900
vt 0.47369500 0.86622900
vt 0.53867000 0.80437000
vt 0.57569900 0.88816000
vt 0.52518900 0.79963700
vt 0.53107600 0.79582000
vt 0.57388800 0.89400400
vt 0.52491000 0.79407400
vt 0.57325100 0.90008900
vt 0.52473900 0.78812100
vt 0.05725900 0.14351900
vt 0.57760800 0.89259000
vt 0.57689800 0.90242000
vt 0.04742800 0.14423100
vt 0.05095600 0.24911400
vt 0.04976500 0.21566500
vt 0.02760800 0.22816300
vt 0.03708500 0.14215400
vt 0.57896800 0.91276900
vt 0.57555400 0.91204700
vt 0.52473900 0.77596600
vt 0.02937600 0.13737100
vt 0.58374300 0.92048400
vt 0.52468100 0.78200700
vt 0.57381300 0.90618100
vt 0.57840500 0.91746000
vt 0.52491200 0.77023100
vt 0.53087500 0.77452800
vt 0.57379500 0.92042800
vt 0.53107800 0.76778400
vt 0.58225800 0.92221300
vt 0.53140700 0.76165900
vt 0.92707900 0.47376100
vt 0.57832600 0.92601700
vt 0.96655400 0.18407600
vt 0.58285400 0.92534200
vt 0.96940100 0.18448200
vt 0.58562200 0.92416800
vt 0.58575800 0.92406900
vt 0.96954300 0.18445800
vt 0.58575800 0.92406900
vt 0.58658800 0.92384100
vt 0.02602400 0.13451800
vt 0.58658800 0.92384100
vt 0.58586200 0.92484700
vt 0.02502000 0.13524100
vt 0.96960700 0.18535000
vt 0.02371000 0.13579800
vt 0.96897600 0.18641400
vt 0.02367600 0.13581300
vt 0.96895900 0.18644200
vt 0.01589100 0.17404900
vt 0.01188100 0.21207800
vt 0.01735400 0.21684500
vt 0.01496200 0.13726000
vt 0.96429100 0.19362400
vt 0.19939900 0.19438400
vt 0.01131700 0.13726400
vt 0.00864100 0.20726900
vt 0.24007500 0.21752100
vt 0.00000000 0.18176000
vt 0.01145000 0.13713100
vt 0.96171100 0.19630400
vt 0.01132400 0.13711700
vt 0.19925800 0.19436100
vt 0.96159600 0.19639100
vt 0.96132200 0.19649500
vt 0.19930800 0.19459300
vt 0.19952100 0.19555200
vt 0.96023800 0.19685200
vt 0.95725700 0.19782700
vt 0.19993700 0.19811500
vt 0.96302700 0.19481500
vt 0.99929800 0.97169900
vt 0.95610600 0.19496700
vt 0.96318200 0.18903600
vt 0.96524200 0.18921900
vt 0.81655400 0.97502900
vt 0.99929300 0.97152800
vt 0.96303600 0.19496400
vt 0.01317400 0.13755800
vt 0.99910200 0.97169900
vt 0.96321900 0.19477100
vt 0.01342800 0.13754500
vt 0.02196600 0.13641600
vt 0.81832500 0.97180600
vt 0.96809600 0.18783000
vt 0.81832500 0.97545300
vt 0.96621700 0.19075200
vt 0.01840700 0.13717600
vt 0.58110700 0.92600600
vt 0.96471800 0.18371700
vt 0.96451400 0.18370600
vt 0.58095900 0.92609900
vt 0.58197500 0.92565800
vt 0.96565300 0.18388600
vt 0.96261800 0.18398400
vt 0.58018100 0.92724800
vt 0.95815000 0.18587400
vt 0.58005100 0.92745100
vt 0.96228700 0.18403600
vt 0.92621300 0.47519400
vt 0.95812100 0.18354000
vt 0.92336300 0.47164700
vt 0.92268600 0.47114500
vt 0.95719100 0.18363600
vt 0.95421100 0.18394300
vt 0.92051700 0.46953400
vt 0.53867300 0.75914500
vt 0.92183700 0.46735200
vt 0.91549300 0.46164400
vt 0.54671100 0.75757500
vt 0.54632300 0.76480000
vt 0.53830700 0.76595100
vt 0.54608400 0.77275500
vt 0.53808200 0.77344400
vt 0.54600300 0.78113300
vt 0.53800600 0.78133600
vt 0.54608300 0.78961400
vt 0.53808100 0.78932500
vt 0.53080600 0.78163100
vt 0.53087400 0.78882100
vt 0.53830600 0.79710200
vt 0.54632100 0.79787000
vt 0.54670900 0.80558500
vt 0.55481600 0.79809500
vt 0.55457300 0.78967700
vt 0.56322300 0.78951200
vt 0.56346100 0.79776800
vt 0.55449100 0.78103000
vt 0.55457400 0.77248800
vt 0.56314300 0.78103200
vt 0.57162700 0.78113700
vt 0.57170400 0.77324400
vt 0.56322400 0.77265300
vt 0.57192900 0.76575100
vt 0.56346300 0.76469900
vt 0.55481700 0.76437700
vt 0.90829100 0.45685800
vt 0.55521300 0.75701100
vt 0.90495000 0.46238300
vt 0.94400500 0.18443400
vt 0.91189100 0.46621700
vt 0.90050800 0.45317600
vt 0.56385100 0.75747400
vt 0.57229400 0.75894500
vt 0.56437300 0.75125600
vt 0.89723100 0.45859600
vt 0.88935600 0.45584700
vt 0.57278600 0.75308800
vt 0.89351100 0.46489200
vt 0.88824400 0.46075900
vt 0.18257600 0.23591000
vt 0.64438900 0.97905300
vt 0.58067800 0.75606900
vt 0.88159200 0.45427800
vt 0.17985800 0.24497500
vt 0.17954300 0.22586500
vt 0.89138700 0.47173600
vt 0.15698500 0.08789400
vt 0.21884500 0.23601600
vt 0.14351800 0.09039700
vt 0.22940200 0.24211700
vt 0.17796400 0.22322600
vt 0.50608600 0.97204900
vt 0.21590000 0.22731600
vt 0.17734500 0.24734300
vt 0.17734500 0.05636300
vt 0.64191200 0.97821500
vt 0.22995600 0.23453100
vt 0.22847900 0.23810400
vt 0.23659500 0.23957000
vt 0.13965900 0.09518000
vt 0.24982800 0.23353600
vt 0.37450300 0.13834600
vt 0.13614800 0.09219300
vt 0.23609400 0.24356400
vt 0.39828600 0.15249600
vt 0.27044800 0.24734300
vt 0.09459700 0.09518000
vt 0.39606800 0.14850000
vt 0.27007100 0.24382600
vt 0.42870200 0.14869000
vt 0.39853600 0.15551500
vt 0.09531400 0.09288000
vt 0.40245500 0.15666900
vt 0.09187300 0.09051500
vt 0.42225600 0.13785100
vt 0.42965800 0.14571000
vt 0.43876800 0.14995800
vt 0.05851100 0.07807400
vt 0.43735100 0.15283500
vt 0.43110300 0.14145400
vt 0.43874900 0.14557700
vt 0.44294100 0.14538600
vt 0.45238000 0.14825500
vt 0.44501900 0.15183900
vt 0.05256500 0.07409400
vt 0.44501900 0.15183900
vt 0.44825000 0.14312500
vt 0.44236100 0.13867600
vt 0.04436800 0.25442400
vt 0.03648200 0.25291400
vt 0.43456100 0.13724800
vt 0.05185800 0.07197000
vt 0.44691700 0.15256100
vt 0.45205700 0.15401800
vt 0.05114300 0.06529300
vt 0.05365500 0.06492100
vt 0.53596900 0.97180600
vt 0.05985900 0.07004600
vt 0.07287000 0.03244600
vt 0.09121900 0.05822500
vt 0.09392400 0.08902200
vt 0.11638400 0.05496500
vt 0.13665100 0.08000000
vt 0.13119700 0.06625300
vt 0.13792900 0.08714200
vt 0.12787300 0.05568300
vt 0.13578200 0.04877600
vt 0.12829700 0.04451100
vt 0.12263700 0.04661800
vt 0.58623000 0.76371300
vt 0.63980400 0.97271000
vt 0.17280200 0.05261400
vt 0.17457100 0.05331500
vt 0.63989500 0.97460900
vt 0.57988900 0.76749500
vt 0.58021800 0.76137000
vt 0.64438900 0.97180600
vt 0.58555300 0.76937200
vt 0.16681800 0.04939300
vt 0.57968600 0.77423800
vt 0.15088600 0.03614400
vt 0.58515900 0.77528000
vt 0.16195500 0.04529100
vt 0.58537700 0.78529400
vt 0.15644200 0.03687600
vt 0.57961700 0.78134100
vt 0.57968500 0.78853100
vt 0.57170300 0.78912500
vt 0.57192700 0.79690200
vt 0.57988700 0.79553100
vt 0.57229200 0.80417000
vt 0.46420800 0.83309700
vt 0.57278300 0.81064900
vt 0.56437000 0.81236100
vt 0.46643700 0.84113100
vt 0.58021500 0.80207100
vt 0.46312300 0.82527900
vt 0.58065700 0.80790200
vt 0.56384900 0.80548400
vt 0.55521000 0.80596200
vt 0.46972500 0.84907300
vt 0.55574200 0.81297400
vt 0.47394400 0.85661700
vt 0.54723000 0.81246300
vt 0.48042100 0.85330300
vt 0.47632800 0.84569400
vt 0.48668600 0.85016600
vt 0.94389400 0.18241400
vt 0.48666500 0.85349900
vt 0.94738500 0.18267100
vt 0.94333400 0.18251200
vt 0.48661100 0.84960300
vt 0.94162400 0.18036200
vt 0.48663100 0.84939200
vt 0.94313000 0.18252100
vt 0.48674800 0.84814500
vt 0.94192700 0.18257700
vt 0.48361000 0.84204700
vt 0.94166300 0.18262600
vt 0.48675900 0.84786300
vt 0.94067900 0.18273900
vt 0.48698100 0.84677000
vt 0.48767800 0.84345600
vt 0.93769900 0.18307400
vt 0.93632500 0.18322800
vt 0.48800000 0.84192800
vt 0.93574600 0.18323100
vt 0.48830700 0.84124800
vt 0.97242600 0.90644600
vt 0.93607000 0.18249700
vt 0.50160000 0.98108600
vt 0.93139500 0.18274600
vt 0.80377700 0.97565500
vt 0.02161600 0.01152100
vt 0.93321200 0.17814300
vt 0.97023900 0.90088900
vt 0.97662700 0.90293000
vt 0.93836900 0.17537400
vt 0.02011500 0.01335000
vt 0.97246300 0.90142500
vt 0.01694200 0.01681700
vt 0.97696100 0.90227900
vt 0.01749500 0.01644500
vt 0.97629600 0.90229400
vt 0.98335100 0.90336800
vt 0.94450300 0.17323900
vt 0.94861900 0.17642800
vt 0.00746200 0.02160900
vt 0.94849900 0.17077000
vt 0.98756200 0.90088900
vt 0.98365800 0.90194800
vt 0.01127600 0.02038800
vt 0.01196800 0.01995300
vt 0.98284100 0.90198900
vt 0.00550500 0.02214600
vt 0.95046000 0.17017100
vt 0.95069500 0.17010500
vt 0.00526800 0.02219600
vt 0.95075200 0.17009500
vt 0.00521400 0.02221100
vt 0.02421800 0.04649200
vt 0.03456700 0.05235000
vt 0.02837900 0.05737600
vt 0.02777300 0.03700400
vt 0.02193700 0.05036600
vt 0.02464000 0.05778800
vt 0.50159000 0.97322400
vt 0.02517200 0.00165900
vt 0.93303800 0.17826900
vt 0.02175900 0.01131300
vt 0.93288700 0.17838000
vt 0.02188400 0.01113100
vt 0.80690500 0.97506500
vt 0.02390600 0.00670500
vt 0.80377700 0.97180600
vt 0.50345700 0.97743000
vt 0.02485700 0.00386800
vt 0.50247600 0.97512100
vt 0.49552800 0.83115700
vt 0.50104600 0.97549300
vt 0.50095500 0.97770000
vt 0.49390900 0.83283900
vt 0.49624400 0.83072000
vt 0.50109700 0.97465700
vt 0.49503500 0.82871900
vt 0.02801900 0.00232000
vt 0.50102700 0.97398500
vt 0.49677300 0.83030500
vt 0.50081200 0.97180600
vt 0.02536600 -0.00000000
vt 0.49854900 0.82907600
vt 0.50137600 0.97276600
vt 0.02524800 0.00112700
vt 0.02527100 0.00073800
vt 0.50121100 0.97242400
vt 0.02527100 0.00073800
vt 0.50097500 0.97203100
vt 0.02532100 0.00027500
vt 0.03647000 0.04162600
vt 0.04846400 0.00793100
vt 0.47471100 0.81940200
vt 0.03847200 0.05124300
vt 0.03860100 0.00789900
vt 0.48290500 0.82544000
vt 0.47348900 0.81680100
vt 0.05114300 0.00628000
vt 0.15785300 0.00356900
vt 0.15778300 0.00666500
vt 0.15778300 0.00666500
vt 0.47088200 0.81609000
vt 0.04283100 0.05354200
vt 0.11014200 0.00000000
vt 0.15642200 0.00758200
vt 0.15642200 0.00758200
vt 0.46861300 0.82246900
vt 0.47030800 0.82997500
vt 0.15646900 0.01021300
vt 0.15646900 0.01021300
vt 0.46763000 0.81690600
vt 0.13120900 0.03639000
vt 0.46320200 0.81949400
vt 0.15436900 0.01567400
vt 0.58623000 0.80498900
vt 0.15333900 0.02195500
vt 0.58562800 0.79992900
vt 0.15374300 0.02830800
vt 0.58537400 0.79413000
vt 0.12128000 0.03644200
vt 0.11236100 0.04434500
vt 0.12106800 0.02498900
vt 0.11164000 0.01225900
vt 0.10634500 0.00591500
vt 0.07175000 0.02906000
vt 0.05114300 0.09978600
vt 0.04424500 0.06100400
vt 0.10320400 0.00296500
vt 0.03917900 0.05973300
vt 0.06971400 0.02833800
vt 0.04857100 0.10226300
vt 0.04433100 0.13035500
vt 0.53387000 0.97881600
vt 0.05331300 0.05540200
vt 0.05140500 0.05568200
vt 0.04195400 0.13305200
vt 0.45895300 0.15479800
vt 0.53596900 0.98125400
vt 0.03441800 0.12991500
vt 0.03346100 0.07517800
vt 0.04498800 0.10048000
vt 0.02708300 0.08555600
vt 0.02757900 0.11282400
vt 0.02640600 0.10179700
vt 0.02440400 0.09370500
vt 0.02264000 0.09503100
vt 0.09486600 0.21297000
vt 0.02443600 0.11191800
vt 0.02999100 0.12206700
vt 0.02579200 0.12317400
vt 0.07781500 0.24026200
vt 0.08952400 0.21926600
vt 0.02021300 0.10251000
vt 0.02280200 0.11447200
vt 0.08410000 0.23128600
vt 0.08188400 0.22975500
vt 0.07356000 0.24161500
vt 0.07611500 0.23476600
vt 0.07141000 0.24544700
vt 0.02704900 0.12844100
vt 0.06480200 0.24764300
vt 0.44817900 0.13609300
vt 0.05059300 0.25178400
vt 0.45919100 0.14477200
vt 0.06449000 0.25274500
vt 0.03314600 0.13171700
vt 0.07079100 0.25030200
vt 0.46332200 0.14775900
vt 0.03755200 0.13451700
vt 0.46069000 0.15049300
vt 0.45482000 0.15048700
vt 0.45310900 0.14195900
vt 0.05659000 0.25435000
vt 0.43353300 0.13254000
vt 0.03596500 0.24781700
vt 0.02717900 0.24202600
vt 0.42665400 0.13134700
vt 0.02936300 0.24570000
vt 0.42763400 0.13685600
vt 0.41928900 0.12982600
vt 0.02316500 0.24117200
vt 0.41680400 0.13323500
vt 0.40632200 0.13092200
vt 0.20570100 0.98454800
vt 0.40648000 0.12770100
vt 0.20570100 0.97180600
vt 0.26828500 0.22198400
vt 0.00598600 0.21379100
vt 0.39256800 0.12635900
vt 0.27336600 0.22574300
vt 0.39668500 0.12971900
vt 0.20892300 0.97651400
vt 0.01098400 0.21973900
vt 0.20773600 0.98592300
vt 0.01651500 0.23169400
vt 0.41010600 0.12635900
vt 0.01805500 0.23041700
vt 0.02441100 0.23496200
vt 0.38197800 0.13064000
vt 0.25913200 0.22649100
vt 0.24599300 0.22471800
vt 0.25946000 0.22252700
vt 0.00207500 0.20367200
vt 0.24407000 0.22809300
vt 0.23576200 0.22795300
vt 0.22522100 0.22400800
vt 0.23224700 0.22103900
vt 0.95681800 0.19787900
vt 0.19999400 0.19853800
vt 0.19999900 0.19846800
vt 0.95689700 0.19787000
vt 0.19997900 0.19905900
vt 0.95628400 0.19785600
vt 0.95252000 0.19760800
vt 0.19989000 0.20278600
vt 0.95158900 0.19753300
vt 0.19971900 0.20364800
vt 0.19967700 0.20388600
vt 0.95135900 0.19746600
vt 0.19920700 0.20586200
vt 0.94941100 0.19687700
vt 0.94971000 0.19033600
vt 0.94546900 0.19422700
vt 0.94252100 0.18678100
vt 0.95619300 0.19046900
vt 0.95128400 0.18373700
vt 0.95164200 0.18357100
vt 0.91842900 0.46803800
vt 0.95134000 0.18354000
vt 0.91818100 0.46787800
vt 0.95090000 0.18355800
vt 0.91781400 0.46772200
vt 0.95027600 0.18365200
vt 0.91728300 0.46758700
vt 0.91261900 0.46639800
vt 0.94478700 0.18447900
vt 0.91208900 0.46623700
vt 0.94421600 0.18442000
vt 0.91044900 0.46606800
vt 0.94248300 0.18450100
vt 0.93907600 0.19272900
vt 0.94144100 0.18454300
vt 0.90939700 0.46611400
vt 0.93658900 0.18552300
vt 0.50679600 0.98108600
vt 0.93139500 0.18659000
vt 0.18940700 0.21992400
vt 0.93343100 0.19101600
vt 0.90473500 0.46634400
vt 0.93683300 0.18474800
vt 0.93620600 0.18487600
vt 0.90407600 0.46652600
vt 0.93422400 0.18553900
vt 0.90193300 0.46748900
vt 0.90005300 0.46823700
vt 0.93257800 0.18579800
vt 0.50765200 0.98141500
vt 0.89892300 0.46861700
vt 0.93165600 0.18571600
vt 0.50754400 0.98077100
vt 0.89827000 0.46896600
vt 0.50718500 0.97887100
vt 0.89663700 0.47016000
vt 0.50695900 0.97764500
vt 0.89558000 0.47092900
vt 0.50654700 0.97548200
vt 0.89382100 0.47234500
vt 0.50636600 0.97466500
vt 0.89335200 0.47298900
vt 0.18166500 0.22290900
vt 0.50503800 0.97534000
vt 0.50437700 0.97776700
vt 0.18454200 0.22205800
vt 0.17942500 0.22313500
vt 0.50564000 0.97334500
vt 0.17886000 0.22319200
vt 0.50579300 0.97284200
vt 0.50590600 0.97248100
vt 0.17846400 0.22319900
vt 0.89289200 0.47349400
vt 0.50633400 0.97399100
vt 0.89151800 0.47519400
vt 0.17767000 0.22325300
vt 0.50621300 0.97180600
vt 0.18902300 0.22017700
vt 0.50345700 0.98141500
vt 0.93307500 0.19085600
vt 0.93324900 0.19093400
vt 0.18921100 0.22005300
vt 0.90620600 0.46627200
vt 0.93828800 0.18468300
vt 0.19119500 0.21849100
vt 0.93531800 0.19181700
vt 0.93867400 0.19323000
vt 0.19430000 0.21591700
vt 0.19466400 0.21536200
vt 0.93929700 0.19345500
vt 0.19768400 0.21040900
vt 0.94478400 0.19540800
vt 0.19810400 0.20971700
vt 0.94555000 0.19568000
vt 0.91072000 0.46610000
vt 0.94275800 0.18451900
vt 0.08804000 0.21083900
vt 0.09175400 0.20676800
vt 0.92622400 0.78513400
vt 0.08818800 0.13680100
vt 0.09591700 0.17950200
vt 0.88159200 0.78513400
vt 0.10071400 0.18087100
vt 0.87837300 0.92103400
vt 0.01815300 0.06268700
vt 0.08805200 0.13666900
vt 0.99742300 0.97109700
vt 0.08818800 0.13665300
vt 0.92636200 0.78519400
vt 0.99732500 0.97109400
vt 0.92589600 0.78592800
vt 0.96001300 0.17122200
vt 0.99669100 0.97168400
vt 0.92577000 0.78617300
vt 0.95968700 0.17115500
vt 0.87837300 0.87567500
vt 0.55837900 0.97190400
vt 0.96245400 0.17285300
vt 0.99857000 0.97168400
vt 0.99854500 0.97151600
vt 0.55851100 0.97180600
vt 0.08630800 0.13712200
vt 0.95516500 0.17222100
vt 0.82467900 0.97522200
vt 0.55849700 0.97205400
vt 0.08605900 0.13711200
vt 0.08439200 0.13683000
vt 0.55861900 0.97373600
vt 0.55830100 0.97708700
vt 0.08102200 0.13682100
vt 0.96784100 0.17991400
vt 0.55861900 0.98061400
vt 0.07754000 0.13616100
vt 0.95517400 0.17621600
vt 0.00030400 0.02306800
vt 0.82802700 0.97444500
vt 0.95612900 0.16985300
vt 0.00444500 0.02246100
vt 0.95161800 0.17000700
vt 0.82467900 0.97180600
vt 0.82786400 0.97426100
vt 0.00052800 0.02300500
vt 0.95647700 0.16991000
vt -0.00000000 0.02306800
vt 0.88073300 0.87664100
vt 0.95028800 0.18265600
vt 0.95065800 0.18282200
vt 0.48682800 0.85659400
vt 0.48671900 0.85632000
vt 0.95035200 0.18285400
vt 0.94991300 0.18285700
vt 0.48665000 0.85591300
vt 0.95326900 0.18247100
vt 0.48791100 0.85891200
vt 0.95632100 0.18279100
vt 0.48883100 0.86145100
vt 0.02471400 0.06695300
vt 0.02272200 0.08457500
vt 0.09851000 0.20309100
vt 0.02579900 0.08085800
vt 0.02797200 0.07115800
vt 0.47291300 0.83781700
vt 0.47703600 0.82660600
vt 0.48005500 0.83424000
vt 0.48758800 0.83053900
vt 0.49075500 0.83715600
vt 0.93247600 0.18323000
vt 0.49123100 0.83605200
vt 0.50081200 0.98154500
vt 0.93165500 0.18354000
vt 0.93395500 0.18307300
vt 0.48971800 0.83904500
vt 0.49164500 0.83542100
vt 0.50082900 0.98089000
vt 0.49302300 0.83385300
vt 0.50090900 0.97895000
f 4/4/4 1/1/1 3/3/3
f 1/1/1 655/655/655 652/652/652
f 7/7/7 1/1/1 4/4/4
f 8/8/8 5/5/5 2/2/2
f 18/18/18 2/2/2 24/24/24
f 1/1/1 20/20/20 30/30/30
f 1/1/1 15/15/15 11/11/11
f 17/17/17 12/12/12 13/13/13
f 29/29/29 16/16/16 22/22/22
f 6/6/6 26/26/26 23/23/23
f 6/6/6 35/35/35 32/32/32
f 31/31/31 653/653/653 29/29/29
f 33/33/33 36/36/36 37/37/37
f 37/37/37 38/38/38 40/40/40
f 40/40/40 41/41/41 43/43/43
f 45/45/45 678/678/678 44/44/44
f 46/46/46 45/45/45 48/48/48
f 48/48/48 45/45/45 6/6/6
f 48/48/48 50/50/50 46/46/46
f 55/55/55 50/50/50 48/48/48
f 51/51/51 53/53/53 47/47/47
f 52/52/52 48/48/48 6/6/6
f 55/55/55 56/56/56 50/50/50
f 60/60/60 57/57/57 54/54/54
f 51/51/51 58/58/58 53/53/53
f 62/62/62 54/54/54 59/59/59
f 62/62/62 60/60/60 54/54/54
f 61/61/61 58/58/58 66/66/66
f 64/64/64 60/60/60 62/62/62
f 63/63/63 61/61/61 66/66/66
f 8/8/8 66/66/66 58/58/58
f 70/70/70 68/68/68 65/65/65
f 63/63/63 66/66/66 67/67/67
f 65/65/65 7/7/7 4/4/4
f 4/4/4 69/69/69 65/65/65
f 70/70/70 65/65/65 69/69/69
f 70/70/70 69/69/69 71/71/71
f 72/72/72 70/70/70 71/71/71
f 70/70/70 72/72/72 68/68/68
f 74/74/74 73/73/73 80/80/80
f 79/79/79 73/73/73 74/74/74
f 73/73/73 77/77/77 80/80/80
f 71/71/71 76/76/76 72/72/72
f 67/67/67 73/73/73 79/79/79
f 81/81/81 84/84/84 82/82/82
f 81/81/81 82/82/82 75/75/75
f 85/85/85 80/80/80 77/77/77
f 83/83/83 80/80/80 85/85/85
f 88/88/88 145/145/145 148/148/148
f 88/88/88 83/83/83 85/85/85
f 77/77/77 95/95/95 92/92/92
f 90/90/90 85/85/85 92/92/92
f 103/103/103 89/89/89 91/91/91
f 99/99/99 93/93/93 98/98/98
f 76/76/76 102/102/102 100/100/100
f 106/106/106 144/144/144 139/139/139
f 108/108/108 107/107/107 106/106/106
f 107/107/107 112/112/112 106/106/106
f 71/71/71 108/108/108 106/106/106
f 106/106/106 76/76/76 71/71/71
f 106/106/106 116/116/116 135/135/135
f 115/115/115 112/112/112 113/113/113
f 113/113/113 112/112/112 107/107/107
f 114/114/114 123/123/123 122/122/122
f 112/112/112 118/118/118 116/116/116
f 122/122/122 119/119/119 111/111/111
f 124/124/124 134/134/134 120/120/120
f 526/526/526 127/127/127 124/124/124
f 130/130/130 127/127/127 129/129/129
f 130/130/130 131/131/131 127/127/127
f 137/137/137 131/131/131 143/143/143
f 133/133/133 128/128/128 136/136/136
f 141/141/141 146/146/146 150/150/150
f 142/142/142 132/132/132 140/140/140
f 131/131/131 147/147/147 146/146/146
f 130/130/130 151/151/151 147/147/147
f 153/153/153 155/155/155 151/151/151
f 164/164/164 156/156/156 158/158/158
f 153/153/153 542/542/542 161/161/161
f 162/162/162 164/164/164 159/159/159
f 165/165/165 543/543/543 545/545/545
f 163/163/163 166/166/166 167/167/167
f 168/168/168 86/86/86 163/163/163
f 163/163/163 167/167/167 168/168/168
f 168/168/168 167/167/167 169/169/169
f 168/168/168 169/169/169 170/170/170
f 84/84/84 168/168/168 170/170/170
f 168/168/168 84/84/84 86/86/86
f 170/170/170 169/169/169 171/171/171
f 82/82/82 170/170/170 172/172/172
f 84/84/84 170/170/170 82/82/82
f 170/170/170 171/171/171 172/172/172
f 172/172/172 171/171/171 173/173/173
f 172/172/172 173/173/173 174/174/174
f 175/175/175 172/172/172 174/174/174
f 82/82/82 172/172/172 175/175/175
f 175/175/175 174/174/174 176/176/176
f 78/78/78 175/175/175 176/176/176
f 78/78/78 82/82/82 175/175/175
f 176/176/176 174/174/174 177/177/177
f 176/176/176 177/177/177 60/60/60
f 64/64/64 176/176/176 60/60/60
f 78/78/78 176/176/176 64/64/64
f 57/57/57 177/177/177 178/178/178
f 60/60/60 177/177/177 57/57/57
f 174/174/174 178/178/178 177/177/177
f 179/179/179 178/178/178 180/180/180
f 57/57/57 178/178/178 179/179/179
f 178/178/178 181/181/181 180/180/180
f 178/178/178 173/173/173 181/181/181
f 174/174/174 173/173/173 178/178/178
f 181/181/181 182/182/182 183/183/183
f 184/184/184 182/182/182 181/181/181
f 181/181/181 183/183/183 180/180/180
f 173/173/173 184/184/184 181/181/181
f 184/184/184 186/186/186 182/182/182
f 173/173/173 171/171/171 184/184/184
f 171/171/171 185/185/185 184/184/184
f 185/185/185 186/186/186 184/184/184
f 182/182/182 186/186/186 187/187/187
f 186/186/186 188/188/188 187/187/187
f 186/186/186 189/189/189 188/188/188
f 185/185/185 189/189/189 186/186/186
f 189/189/189 190/190/190 188/188/188
f 192/192/192 189/189/189 185/185/185
f 189/189/189 191/191/191 190/190/190
f 192/192/192 191/191/191 189/189/189
f 169/169/169 167/167/167 192/192/192
f 169/169/169 192/192/192 185/185/185
f 191/191/191 192/192/192 194/194/194
f 167/167/167 194/194/194 192/192/192
f 167/167/167 166/166/166 194/194/194
f 165/165/165 552/552/552 197/197/197
f 617/617/617 193/193/193 197/197/197
f 198/198/198 193/193/193 195/195/195
f 191/191/191 194/194/194 199/199/199
f 190/190/190 191/191/191 199/199/199
f 190/190/190 199/199/199 200/200/200
f 200/200/200 199/199/199 201/201/201
f 198/198/198 195/195/195 202/202/202
f 206/206/206 203/203/203 202/202/202
f 200/200/200 201/201/201 204/204/204
f 202/202/202 195/195/195 205/205/205
f 202/202/202 205/205/205 206/206/206
f 211/211/211 207/207/207 215/215/215
f 210/210/210 203/203/203 206/206/206
f 207/207/207 212/212/212 215/215/215
f 206/206/206 205/205/205 213/213/213
f 216/216/216 222/222/222 214/214/214
f 225/225/225 217/217/217 215/215/215
f 215/215/215 221/221/221 211/211/211
f 215/215/215 594/594/594 220/220/220
f 212/212/212 218/218/218 215/215/215
f 220/220/220 224/224/224 215/215/215
f 224/224/224 225/225/225 215/215/215
f 226/226/226 217/217/217 225/225/225
f 224/224/224 226/226/226 225/225/225
f 233/233/233 226/226/226 228/228/228
f 224/224/224 228/228/228 226/226/226
f 233/233/233 231/231/231 226/226/226
f 230/230/230 216/216/216 227/227/227
f 233/233/233 228/228/228 236/236/236
f 239/239/239 230/230/230 234/234/234
f 232/232/232 235/235/235 242/242/242
f 237/237/237 240/240/240 232/232/232
f 243/243/243 237/237/237 232/232/232
f 240/240/240 238/238/238 232/232/232
f 232/232/232 242/242/242 243/243/243
f 243/243/243 244/244/244 246/246/246
f 248/248/248 244/244/244 243/243/243
f 247/247/247 243/243/243 242/242/242
f 243/243/243 246/246/246 237/237/237
f 248/248/248 243/243/243 247/247/247
f 249/249/249 244/244/244 248/248/248
f 247/247/247 249/249/249 248/248/248
f 254/254/254 250/250/250 249/249/249
f 260/260/260 249/249/249 250/250/250
f 260/260/260 253/253/253 249/249/249
f 249/249/249 253/253/253 244/244/244
f 255/255/255 254/254/254 249/249/249
f 249/249/249 258/258/258 255/255/255
f 249/249/249 247/247/247 258/258/258
f 261/261/261 260/260/260 250/250/250
f 263/263/263 259/259/259 262/262/262
f 259/259/259 263/263/263 265/265/265
f 259/259/259 265/265/265 252/252/252
f 263/263/263 266/266/266 265/265/265
f 266/266/266 267/267/267 265/265/265
f 267/267/267 268/268/268 265/265/265
f 252/252/252 265/265/265 245/245/245
f 265/265/265 268/268/268 241/241/241
f 265/265/265 241/241/241 245/245/245
f 267/267/267 269/269/269 268/268/268
f 269/269/269 273/273/273 268/268/268
f 239/239/239 241/241/241 268/268/268
f 272/272/272 239/239/239 268/268/268
f 272/272/272 268/268/268 270/270/270
f 271/271/271 270/270/270 268/268/268
f 273/273/273 271/271/271 268/268/268
f 273/273/273 269/269/269 276/276/276
f 273/273/273 274/274/274 279/279/279
f 273/273/273 275/275/275 274/274/274
f 273/273/273 276/276/276 275/275/275
f 271/271/271 273/273/273 279/279/279
f 278/278/278 284/284/284 281/281/281
f 272/272/272 279/279/279 280/280/280
f 270/270/270 271/271/271 279/279/279
f 272/272/272 270/270/270 279/279/279
f 286/286/286 279/279/279 274/274/274
f 282/282/282 283/283/283 277/277/277
f 285/285/285 282/282/282 277/277/277
f 287/287/287 282/282/282 285/285/285
f 289/289/289 287/287/287 285/285/285
f 274/274/274 288/288/288 286/286/286
f 286/286/286 288/288/288 290/290/290
f 288/288/288 292/292/292 290/290/290
f 293/293/293 287/287/287 289/289/289
f 291/291/291 293/293/293 289/289/289
f 295/295/295 187/187/187 293/293/293
f 187/187/187 287/287/287 293/293/293
f 294/294/294 293/293/293 291/291/291
f 295/295/295 293/293/293 294/294/294
f 182/182/182 295/295/295 296/296/296
f 182/182/182 187/187/187 295/295/295
f 296/296/296 295/295/295 294/294/294
f 298/298/298 296/296/296 297/297/297
f 296/296/296 294/294/294 297/297/297
f 183/183/183 296/296/296 298/298/298
f 182/182/182 296/296/296 183/183/183
f 305/305/305 300/300/300 298/298/298
f 301/301/301 298/298/298 300/300/300
f 301/301/301 306/306/306 298/298/298
f 298/298/298 297/297/297 303/303/303
f 305/305/305 298/298/298 303/303/303
f 183/183/183 298/298/298 306/306/306
f 307/307/307 306/306/306 301/301/301
f 180/180/180 306/306/306 307/307/307
f 180/180/180 183/183/183 306/306/306
f 311/311/311 179/179/179 307/307/307
f 179/179/179 180/180/180 307/307/307
f 307/307/307 301/301/301 309/309/309
f 311/311/311 307/307/307 309/309/309
f 50/50/50 310/310/310 312/312/312
f 57/57/57 311/311/311 49/49/49
f 312/312/312 310/310/310 308/308/308
f 57/57/57 179/179/179 311/311/311
f 312/312/312 308/308/308 313/313/313
f 313/313/313 319/319/319 314/314/314
f 312/312/312 316/316/316 46/46/46
f 50/50/50 312/312/312 46/46/46
f 320/320/320 673/673/673 315/315/315
f 320/320/320 322/322/322 324/324/324
f 313/313/313 323/323/323 321/321/321
f 325/325/325 329/329/329 327/327/327
f 328/328/328 320/320/320 326/326/326
f 337/337/337 328/328/328 331/331/331
f 325/325/325 335/335/335 333/333/333
f 334/334/334 337/337/337 332/332/332
f 339/339/339 693/693/693 689/689/689
f 342/342/342 339/339/339 378/378/378
f 337/337/337 345/345/345 320/320/320
f 336/336/336 347/347/347 344/344/344
f 347/347/347 351/351/351 344/344/344
f 352/352/352 349/349/349 361/361/361
f 351/351/351 349/349/349 344/344/344
f 345/345/345 353/353/353 320/320/320
f 353/353/353 354/354/354 320/320/320
f 354/354/354 356/356/356 363/363/363
f 357/357/357 352/352/352 358/358/358
f 361/361/361 358/358/358 352/352/352
f 368/368/368 360/360/360 348/348/348
f 364/364/364 661/661/661 354/354/354
f 365/365/365 372/372/372 367/367/367
f 369/369/369 368/368/368 371/371/371
f 370/370/370 368/368/368 369/369/369
f 373/373/373 368/368/368 370/370/370
f 400/400/400 371/371/371 375/375/375
f 373/373/373 372/372/372 368/368/368
f 368/368/368 379/379/379 381/381/381
f 382/382/382 380/380/380 340/340/340
f 383/383/383 388/388/388 387/387/387
f 374/374/374 391/391/391 399/399/399
f 392/392/392 386/386/386 389/389/389
f 392/392/392 395/395/395 390/390/390
f 402/402/402 394/394/394 396/396/396
f 403/403/403 406/406/406 371/371/371
f 405/405/405 393/393/393 406/406/406
f 407/407/407 413/413/413 406/406/406
f 407/407/407 406/406/406 410/410/410
f 406/406/406 409/409/409 369/369/369
f 406/406/406 369/369/369 371/371/371
f 410/410/410 406/406/406 393/393/393
f 409/409/409 406/406/406 413/413/413
f 417/417/417 412/412/412 422/422/422
f 415/415/415 421/421/421 414/414/414
f 419/419/419 414/414/414 421/421/421
f 418/418/418 409/409/409 413/413/413
f 412/412/412 408/408/408 422/422/422
f 408/408/408 423/423/423 422/422/422
f 423/423/423 304/304/304 422/422/422
f 422/422/422 304/304/304 426/426/426
f 426/426/426 417/417/417 422/422/422
f 420/420/420 416/416/416 424/424/424
f 427/427/427 425/425/425 429/429/429
f 425/425/425 427/427/427 421/421/421
f 304/304/304 428/428/428 426/426/426
f 429/429/429 288/288/288 427/427/427
f 288/288/288 429/429/429 431/431/431
f 305/305/305 303/303/303 430/430/430
f 303/303/303 432/432/432 430/430/430
f 288/288/288 431/431/431 433/433/433
f 303/303/303 297/297/297 432/432/432
f 297/297/297 434/434/434 432/432/432
f 288/288/288 433/433/433 292/292/292
f 297/297/297 294/294/294 434/434/434
f 294/294/294 291/291/291 434/434/434
f 275/275/275 427/427/427 288/288/288
f 435/435/435 427/427/427 275/275/275
f 427/427/427 435/435/435 421/421/421
f 276/276/276 435/435/435 275/275/275
f 435/435/435 437/437/437 421/421/421
f 435/435/435 436/436/436 266/266/266
f 435/435/435 266/266/266 437/437/437
f 435/435/435 276/276/276 436/436/436
f 437/437/437 266/266/266 438/438/438
f 437/437/437 438/438/438 421/421/421
f 438/438/438 439/439/439 421/421/421
f 266/266/266 439/439/439 438/438/438
f 419/419/419 421/421/421 439/439/439
f 419/419/419 439/439/439 443/443/443
f 266/266/266 440/440/440 439/439/439
f 440/440/440 443/443/443 439/439/439
f 446/446/446 444/444/444 442/442/442
f 444/444/444 418/418/418 442/442/442
f 441/441/441 446/446/446 442/442/442
f 451/451/451 446/446/446 447/447/447
f 449/449/449 445/445/445 440/440/440
f 451/451/451 454/454/454 446/446/446
f 455/455/455 444/444/444 446/446/446
f 454/454/454 456/456/456 446/446/446
f 455/455/455 446/446/446 456/456/456
f 459/459/459 457/457/457 456/456/456
f 456/456/456 457/457/457 455/455/455
f 454/454/454 458/458/458 456/456/456
f 458/458/458 459/459/459 456/456/456
f 457/457/457 459/459/459 460/460/460
f 461/461/461 460/460/460 459/459/459
f 463/463/463 461/461/461 459/459/459
f 459/459/459 458/458/458 463/463/463
f 464/464/464 465/465/465 463/463/463
f 458/458/458 464/464/464 463/463/463
f 463/463/463 465/465/465 469/469/469
f 461/461/461 463/463/463 468/468/468
f 463/463/463 469/469/469 468/468/468
f 472/472/472 470/470/470 466/466/466
f 472/472/472 471/471/471 470/470/470
f 470/470/470 471/471/471 467/467/467
f 472/472/472 473/473/473 471/471/471
f 473/473/473 472/472/472 69/69/69
f 466/466/466 474/474/474 472/472/472
f 472/472/472 476/476/476 69/69/69
f 476/476/476 472/472/472 474/474/474
f 476/476/476 478/478/478 69/69/69
f 476/476/476 480/480/480 478/478/478
f 482/482/482 476/476/476 474/474/474
f 482/482/482 480/480/480 476/476/476
f 454/454/454 481/481/481 465/465/465
f 465/465/465 481/481/481 475/475/475
f 454/454/454 484/484/484 481/481/481
f 483/483/483 485/485/485 479/479/479
f 479/479/479 485/485/485 250/250/250
f 485/485/485 486/486/486 250/250/250
f 452/452/452 486/486/486 485/485/485
f 454/454/454 451/451/451 484/484/484
f 261/261/261 250/250/250 486/486/486
f 452/452/452 261/261/261 486/486/486
f 479/479/479 250/250/250 487/487/487
f 478/478/478 480/480/480 488/488/488
f 250/250/250 254/254/254 487/487/487
f 254/254/254 477/477/477 487/487/487
f 69/69/69 478/478/478 490/490/490
f 490/490/490 478/478/478 257/257/257
f 478/478/478 256/256/256 257/257/257
f 254/254/254 255/255/255 477/477/477
f 490/490/490 491/491/491 69/69/69
f 490/490/490 493/493/493 491/491/491
f 494/494/494 492/492/492 489/489/489
f 494/494/494 489/489/489 258/258/258
f 494/494/494 258/258/258 247/247/247
f 247/247/247 242/242/242 494/494/494
f 494/494/494 497/497/497 495/495/495
f 495/495/495 492/492/492 494/494/494
f 494/494/494 242/242/242 497/497/497
f 495/495/495 497/497/497 500/500/500
f 498/498/498 497/497/497 242/242/242
f 498/498/498 500/500/500 497/497/497
f 499/499/499 501/501/501 507/507/507
f 504/504/504 500/500/500 506/506/506
f 506/506/506 500/500/500 498/498/498
f 509/509/509 499/499/499 507/507/507
f 500/500/500 511/511/511 495/495/495
f 512/512/512 510/510/510 508/508/508
f 491/491/491 496/496/496 510/510/510
f 491/491/491 510/510/510 512/512/512
f 107/107/107 108/108/108 512/512/512
f 107/107/107 512/512/512 508/508/508
f 71/71/71 513/513/513 512/512/512
f 513/513/513 491/491/491 512/512/512
f 71/71/71 512/512/512 108/108/108
f 513/513/513 69/69/69 491/491/491
f 69/69/69 513/513/513 71/71/71
f 113/113/113 508/508/508 503/503/503
f 107/107/107 508/508/508 113/113/113
f 502/502/502 505/505/505 515/515/515
f 498/498/498 235/235/235 506/506/506
f 506/506/506 235/235/235 514/514/514
f 235/235/235 229/229/229 514/514/514
f 515/515/515 228/228/228 519/519/519
f 517/517/517 515/515/515 516/516/516
f 515/515/515 519/519/519 516/516/516
f 517/517/517 502/502/502 515/515/515
f 228/228/228 520/520/520 519/519/519
f 519/519/519 520/520/520 516/516/516
f 228/228/228 224/224/224 520/520/520
f 520/520/520 521/521/521 522/522/522
f 520/520/520 224/224/224 521/521/521
f 516/516/516 520/520/520 522/522/522
f 522/522/522 527/527/527 524/524/524
f 524/524/524 525/525/525 114/114/114
f 522/522/522 114/114/114 516/516/516
f 529/529/529 526/526/526 523/523/523
f 530/530/530 521/521/521 532/532/532
f 534/534/534 129/129/129 529/529/529
f 521/521/521 611/611/611 613/613/613
f 537/537/537 536/536/536 538/538/538
f 537/537/537 540/540/540 129/129/129
f 539/539/539 537/537/537 538/538/538
f 539/539/539 541/541/541 537/537/537
f 541/541/541 540/540/540 537/537/537
f 541/541/541 539/539/539 551/551/551
f 541/541/541 153/153/153 540/540/540
f 544/544/544 542/542/542 541/541/541
f 541/541/541 546/546/546 544/544/544
f 165/165/165 549/549/549 550/550/550
f 539/539/539 618/618/618 196/196/196
f 540/540/540 130/130/130 129/129/129
f 153/153/153 130/130/130 540/540/540
f 557/557/557 555/555/555 539/539/539
f 539/539/539 538/538/538 556/556/556
f 559/559/559 539/539/539 556/556/556
f 557/557/557 559/559/559 565/565/565
f 608/608/608 559/559/559 556/556/556
f 561/561/561 571/571/571 568/568/568
f 559/559/559 603/603/603 602/602/602
f 566/566/566 565/565/565 559/559/559
f 567/567/567 195/195/195 564/564/564
f 205/205/205 569/569/569 570/570/570
f 213/213/213 205/205/205 573/573/573
f 575/575/575 572/572/572 560/560/560
f 560/560/560 577/577/577 575/575/575
f 213/213/213 580/580/580 582/582/582
f 586/586/586 579/579/579 560/560/560
f 583/583/583 586/586/586 592/592/592
f 521/521/521 588/588/588 600/600/600
f 594/594/594 591/591/591 521/521/521
f 219/219/219 596/596/596 592/592/592
f 595/595/595 213/213/213 584/584/584
f 560/560/560 601/601/601 587/587/587
f 558/558/558 195/195/195 554/554/554
f 608/608/608 556/556/556 609/609/609
f 556/556/556 612/612/612 609/609/609
f 538/538/538 612/612/612 556/556/556
f 538/538/538 616/616/616 614/614/614
f 538/538/538 536/536/536 616/616/616
f 220/220/220 521/521/521 224/224/224
f 518/518/518 115/115/115 113/113/113
f 114/114/114 517/517/517 516/516/516
f 518/518/518 113/113/113 503/503/503
f 498/498/498 242/242/242 235/235/235
f 491/491/491 493/493/493 496/496/496
f 4/4/4 471/471/471 473/473/473
f 4/4/4 473/473/473 69/69/69
f 471/471/471 4/4/4 3/3/3
f 619/619/619 471/471/471 3/3/3
f 467/467/467 471/471/471 619/619/619
f 467/467/467 619/619/619 620/620/620
f 619/619/619 622/622/622 620/620/620
f 3/3/3 622/622/622 619/619/619
f 623/623/623 622/622/622 625/625/625
f 620/620/620 622/622/622 623/623/623
f 3/3/3 648/648/648 644/644/644
f 624/624/624 631/631/631 633/633/633
f 628/628/628 630/630/630 622/622/622
f 629/629/629 641/641/641 635/635/635
f 640/640/640 659/659/659 637/637/637
f 639/639/639 643/643/643 647/647/647
f 645/645/645 640/640/640 37/37/37
f 37/37/37 640/640/640 33/33/33
f 34/34/34 647/647/647 650/650/650
f 654/654/654 34/34/34 651/651/651
f 354/354/354 645/645/645 656/656/656
f 656/656/656 645/645/645 37/37/37
f 663/663/663 646/646/646 662/662/662
f 372/372/372 660/660/660 367/367/367
f 372/372/372 666/666/666 657/657/657
f 626/626/626 638/638/638 667/667/667
f 656/656/656 37/37/37 40/40/40
f 668/668/668 656/656/656 40/40/40
f 354/354/354 656/656/656 668/668/668
f 320/320/320 354/354/354 668/668/668
f 40/40/40 677/677/677 675/675/675
f 672/672/672 668/668/668 669/669/669
f 673/673/673 668/668/668 672/672/672
f 46/46/46 674/674/674 671/671/671
f 676/676/676 678/678/678 46/46/46
f 623/623/623 625/625/625 681/681/681
f 679/679/679 627/627/627 373/373/373
f 679/679/679 680/680/680 627/627/627
f 372/372/372 373/373/373 627/627/627
f 680/680/680 682/682/682 457/457/457
f 457/457/457 461/461/461 680/680/680
f 623/623/623 681/681/681 620/620/620
f 681/681/681 462/462/462 620/620/620
f 682/682/682 680/680/680 679/679/679
f 683/683/683 457/457/457 682/682/682
f 682/682/682 679/679/679 683/683/683
f 370/370/370 455/455/455 683/683/683
f 683/683/683 373/373/373 370/370/370
f 455/455/455 457/457/457 683/683/683
f 683/683/683 679/679/679 373/373/373
f 620/620/620 462/462/462 467/467/467
f 464/464/464 454/454/454 465/465/465
f 458/458/458 454/454/454 464/464/464
f 457/457/457 460/460/460 461/461/461
f 455/455/455 370/370/370 444/444/444
f 263/263/263 262/262/262 450/450/450
f 264/264/264 453/453/453 448/448/448
f 449/449/449 266/266/266 263/263/263
f 266/266/266 449/449/449 440/440/440
f 444/444/444 409/409/409 418/418/418
f 370/370/370 369/369/369 444/444/444
f 369/369/369 409/409/409 444/444/444
f 436/436/436 267/267/267 266/266/266
f 436/436/436 269/269/269 267/267/267
f 269/269/269 436/436/436 276/276/276
f 423/423/423 684/684/684 302/302/302
f 685/685/685 684/684/684 423/423/423
f 423/423/423 299/299/299 304/304/304
f 408/408/408 685/685/685 423/423/423
f 423/423/423 302/302/302 299/299/299
f 685/685/685 408/408/408 411/411/411
f 685/685/685 686/686/686 684/684/684
f 686/686/686 685/685/685 411/411/411
f 686/686/686 325/325/325 313/313/313
f 686/686/686 687/687/687 325/325/325
f 686/686/686 313/313/313 684/684/684
f 411/411/411 687/687/687 686/686/686
f 687/687/687 694/694/694 325/325/325
f 687/687/687 695/695/695 690/690/690
f 411/411/411 392/392/392 687/687/687
f 338/338/338 691/691/691 696/696/696
f 698/698/698 338/338/338 696/696/696
f 684/684/684 313/313/313 308/308/308
f 684/684/684 308/308/308 302/302/302
f 274/274/274 275/275/275 288/288/288
f 187/187/187 188/188/188 287/287/287
f 188/188/188 282/282/282 287/287/287
f 223/223/223 281/281/281 284/284/284
f 208/208/208 223/223/223 284/284/284
f 190/190/190 283/283/283 282/282/282
f 190/190/190 200/200/200 283/283/283
f 200/200/200 209/209/209 283/283/283
f 188/188/188 190/190/190 282/282/282
f 272/272/272 280/280/280 222/222/222
f 230/230/230 272/272/272 216/216/216
f 239/239/239 272/272/272 230/230/230
f 216/216/216 272/272/272 222/222/222
f 244/244/244 251/251/251 246/246/246
f 237/237/237 246/246/246 240/240/240
f 200/200/200 204/204/204 209/209/209
f 171/171/171 169/169/169 185/185/185
f 78/78/78 75/75/75 82/82/82
f 63/63/63 67/67/67 79/79/79
f 58/58/58 51/51/51 8/8/8
f 8/8/8 51/51/51 5/5/5
f 649/649/649 3/3/3 1/1/1
f 1/1/1 10/10/10 655/655/655
f 652/652/652 649/649/649 1/1/1
f 18/18/18 14/14/14 2/2/2
f 2/2/2 5/5/5 24/24/24
f 1/1/1 11/11/11 20/20/20
f 30/30/30 10/10/10 1/1/1
f 17/17/17 19/19/19 12/12/12
f 25/25/25 27/27/27 29/29/29
f 29/29/29 21/21/21 16/16/16
f 22/22/22 25/25/25 29/29/29
f 28/28/28 26/26/26 6/6/6
f 6/6/6 45/45/45 42/42/42
f 6/6/6 42/42/42 39/39/39
f 32/32/32 28/28/28 6/6/6
f 6/6/6 39/39/39 35/35/35
f 29/29/29 27/27/27 31/31/31
f 31/31/31 33/33/33 653/653/653
f 653/653/653 9/9/9 29/29/29
f 33/33/33 31/31/31 36/36/36
f 37/37/37 36/36/36 38/38/38
f 40/40/40 38/38/38 41/41/41
f 44/44/44 42/42/42 45/45/45
f 45/45/45 46/46/46 678/678/678
f 152/152/152 154/154/154 88/88/88
f 88/88/88 85/85/85 90/90/90
f 88/88/88 90/90/90 149/149/149
f 148/148/148 152/152/152 88/88/88
f 88/88/88 149/149/149 145/145/145
f 92/92/92 85/85/85 77/77/77
f 77/77/77 96/96/96 95/95/95
f 94/94/94 101/101/101 103/103/103
f 103/103/103 105/105/105 150/150/150
f 103/103/103 150/150/150 89/89/89
f 91/91/91 94/94/94 103/103/103
f 100/100/100 97/97/97 76/76/76
f 76/76/76 106/106/106 102/102/102
f 104/104/104 102/102/102 106/106/106
f 106/106/106 109/109/109 144/144/144
f 139/139/139 104/104/104 106/106/106
f 138/138/138 109/109/109 106/106/106
f 106/106/106 112/112/112 116/116/116
f 135/135/135 138/138/138 106/106/106
f 122/122/122 111/111/111 114/114/114
f 114/114/114 126/126/126 123/123/123
f 120/120/120 121/121/121 124/124/124
f 124/124/124 127/127/127 134/134/134
f 134/134/134 117/117/117 120/120/120
f 124/124/124 125/125/125 526/526/526
f 526/526/526 129/129/129 127/127/127
f 143/143/143 110/110/110 137/137/137
f 137/137/137 127/127/127 131/131/131
f 150/150/150 105/105/105 141/141/141
f 141/141/141 131/131/131 146/146/146
f 131/131/131 130/130/130 147/147/147
f 130/130/130 153/153/153 151/151/151
f 153/153/153 157/157/157 155/155/155
f 158/158/158 159/159/159 164/164/164
f 164/164/164 87/87/87 156/156/156
f 160/160/160 157/157/157 153/153/153
f 153/153/153 541/541/541 542/542/542
f 161/161/161 160/160/160 153/153/153
f 547/547/547 549/549/549 165/165/165
f 165/165/165 164/164/164 162/162/162
f 165/165/165 162/162/162 543/543/543
f 545/545/545 547/547/547 165/165/165
f 197/197/197 193/193/193 165/165/165
f 165/165/165 550/550/550 552/552/552
f 617/617/617 195/195/195 193/193/193
f 215/215/215 218/218/218 594/594/594
f 212/212/212 598/598/598 218/218/218
f 314/314/314 312/312/312 313/313/313
f 313/313/313 321/321/321 319/319/319
f 312/312/312 314/314/314 316/316/316
f 315/315/315 318/318/318 320/320/320
f 320/320/320 668/668/668 673/673/673
f 673/673/673 317/317/317 315/315/315
f 324/324/324 326/326/326 320/320/320
f 320/320/320 318/318/318 322/322/322
f 313/313/313 325/325/325 323/323/323
f 325/325/325 330/330/330 329/329/329
f 327/327/327 323/323/323 325/325/325
f 331/331/331 332/332/332 337/337/337
f 337/337/337 320/320/320 328/328/328
f 325/325/325 694/694/694 335/335/335
f 333/333/333 330/330/330 325/325/325
f 339/339/339 337/337/337 334/334/334
f 339/339/339 334/334/334 693/693/693
f 689/689/689 692/692/692 339/339/339
f 378/378/378 376/376/376 342/342/342
f 342/342/342 337/337/337 339/339/339
f 336/336/336 343/343/343 347/347/347
f 352/352/352 344/344/344 349/349/349
f 354/354/354 353/353/353 356/356/356
f 341/341/341 377/377/377 368/368/368
f 368/368/368 365/365/365 362/362/362
f 368/368/368 362/362/362 355/355/355
f 346/346/346 341/341/341 368/368/368
f 350/350/350 346/346/346 368/368/368
f 368/368/368 355/355/355 359/359/359
f 368/368/368 359/359/359 360/360/360
f 348/348/348 350/350/350 368/368/368
f 354/354/354 363/363/363 364/364/364
f 364/364/364 366/366/366 661/661/661
f 661/661/661 645/645/645 354/354/354
f 365/365/365 368/368/368 372/372/372
f 400/400/400 401/401/401 371/371/371
f 371/371/371 368/368/368 375/375/375
f 384/384/384 375/375/375 368/368/368
f 368/368/368 377/377/377 379/379/379
f 381/381/381 384/384/384 368/368/368
f 387/387/387 385/385/385 383/383/383
f 383/383/383 338/338/338 388/388/388
f 374/374/374 385/385/385 387/387/387
f 391/391/391 394/394/394 399/399/399
f 374/374/374 387/387/387 391/391/391
f 389/389/389 697/697/697 392/392/392
f 392/392/392 390/390/390 386/386/386
f 392/392/392 398/398/398 395/395/395
f 396/396/396 404/404/404 402/402/402
f 402/402/402 399/399/399 394/394/394
f 403/403/403 405/405/405 406/406/406
f 405/405/405 397/397/397 393/393/393
f 522/522/522 521/521/521 527/527/527
f 114/114/114 522/522/522 524/524/524
f 525/525/525 126/126/126 114/114/114
f 523/523/523 528/528/528 529/529/529
f 529/529/529 129/129/129 526/526/526
f 530/530/530 527/527/527 521/521/521
f 529/529/529 531/531/531 534/534/534
f 534/534/534 537/537/537 129/129/129
f 533/533/533 532/532/532 521/521/521
f 521/521/521 604/604/604 562/562/562
f 521/521/521 562/562/562 607/607/607
f 535/535/535 533/533/533 521/521/521
f 615/615/615 535/535/535 521/521/521
f 521/521/521 607/607/607 610/610/610
f 521/521/521 610/610/610 611/611/611
f 613/613/613 615/615/615 521/521/521
f 537/537/537 534/534/534 536/536/536
f 548/548/548 546/546/546 541/541/541
f 539/539/539 553/553/553 551/551/551
f 551/551/551 548/548/548 541/541/541
f 539/539/539 555/555/555 618/618/618
f 196/196/196 553/553/553 539/539/539
f 565/565/565 606/606/606 557/557/557
f 557/557/557 539/539/539 559/559/559
f 608/608/608 563/563/563 559/559/559
f 566/566/566 559/559/559 561/561/561
f 561/561/561 574/574/574 571/571/571
f 568/568/568 566/566/566 561/561/561
f 602/602/602 561/561/561 559/559/559
f 559/559/559 563/563/563 603/603/603
f 567/567/567 569/569/569 195/195/195
f 195/195/195 605/605/605 564/564/564
f 205/205/205 195/195/195 569/569/569
f 576/576/576 578/578/578 213/213/213
f 205/205/205 570/570/570 573/573/573
f 573/573/573 576/576/576 213/213/213
f 560/560/560 579/579/579 577/577/577
f 213/213/213 578/578/578 580/580/580
f 582/582/582 584/584/584 213/213/213
f 560/560/560 587/587/587 586/586/586
f 586/586/586 581/581/581 579/579/579
f 592/592/592 596/596/596 583/583/583
f 583/583/583 581/581/581 586/586/586
f 586/586/586 590/590/590 592/592/592
f 521/521/521 589/589/589 585/585/585
f 521/521/521 585/585/585 588/588/588
f 600/600/600 604/604/604 521/521/521
f 521/521/521 220/220/220 594/594/594
f 591/591/591 589/589/589 521/521/521
f 592/592/592 593/593/593 219/219/219
f 219/219/219 599/599/599 596/596/596
f 595/595/595 597/597/597 213/213/213
f 558/558/558 605/605/605 195/195/195
f 195/195/195 617/617/617 554/554/554
f 538/538/538 614/614/614 612/612/612
f 628/628/628 622/622/622 3/3/3
f 3/3/3 649/649/649 648/648/648
f 644/644/644 628/628/628 3/3/3
f 633/633/633 636/636/636 624/624/624
f 624/624/624 621/621/621 631/631/631
f 635/635/635 632/632/632 629/629/629
f 629/629/629 642/642/642 641/641/641
f 637/637/637 634/634/634 640/640/640
f 640/640/640 645/645/645 659/659/659
f 659/659/659 665/665/665 637/637/637
f 650/650/650 651/651/651 34/34/34
f 34/34/34 639/639/639 647/647/647
f 663/663/663 658/658/658 646/646/646
f 372/372/372 664/664/664 660/660/660
f 657/657/657 664/664/664 372/372/372
f 372/372/372 627/627/627 666/666/666
f 675/675/675 669/669/669 668/668/668
f 40/40/40 43/43/43 677/677/677
f 675/675/675 668/668/668 40/40/40
f 670/670/670 676/676/676 46/46/46
f 46/46/46 316/316/316 674/674/674
f 671/671/671 670/670/670 46/46/46
f 687/687/687 688/688/688 694/694/694
f 687/687/687 392/392/392 697/697/697
f 687/687/687 697/697/697 695/695/695
f 690/690/690 688/688/688 687/687/687
f 698/698/698 388/388/388 338/338/338

