# ('FARMS composite mesh',)
mtllib link_body_16_composite.mtl
usemtl link_body_16_composite
v -3.04547400 -4.80074400 -3.06399600
v -3.97988900 -4.60810900 -1.84922300
v -3.70901000 -4.61935700 -2.43219800
v -5.90292400 2.47028800 -0.54212400
v -6.23952300 0.91376700 -1.42678500
v -6.24912900 1.72684000 0.66401300
v 2.40882200 -4.20496600 -3.76683300
v 2.40882200 -4.20496600 -3.76683300
v 2.40882200 -4.20496600 -3.76683300
v 1.49714500 -3.74400900 -5.19786500
v 1.49714500 -3.74400900 -5.19786500
v -1.14063400 -4.50445200 -4.47766100
v -1.14063400 -4.50445200 -4.47766100
v -1.14063400 -4.50445200 -4.47766100
v 1.32673900 -3.74175300 -3.74084700
v 1.32673900 -3.74175300 -3.74084700
v 1.53645200 -4.78013700 -2.35740300
v 1.53645200 -4.78013700 -2.35740300
v 3.08391000 -3.30384100 -4.74824300
v 3.08391000 -3.30384100 -4.74824300
v 3.08391000 -3.30384100 -4.74824300
v 1.13235600 -1.76815400 -4.93323900
v 3.26754200 -2.29175700 -5.33606800
v 3.26754200 -2.29175700 -5.33606800
v 2.35185400 -1.28534600 -5.51407300
v 2.35185400 -1.28534600 -5.51407300
v 2.07709600 -2.07258800 -5.54622100
v 1.99665600 0.34854700 -5.57071400
v 1.99665600 0.34854700 -5.57071400
v 2.66733300 1.57311800 -5.50713300
v 2.66733300 1.57311800 -5.50713300
v -3.16594300 0.85208700 -5.58900000
v -3.16594300 0.85208700 -5.58900000
v -2.07599500 2.60338900 -5.51742400
v -2.07599500 2.60338900 -5.51742400
v 1.35138300 3.74201000 -5.26496600
v 1.35138300 3.74201000 -5.26496600
v 1.35138300 3.74201000 -5.26496600
v -3.01992800 -1.08281700 -5.59211000
v -3.01992800 -1.08281700 -5.59211000
v 0.13728200 0.39265300 -4.55619500
v 0.13728200 0.39265300 -4.55619500
v 1.33004900 2.05193800 -4.90711000
v 0.66503500 2.59655800 -4.24432900
v 0.66503500 2.59655800 -4.24432900
v 0.66503500 2.59655800 -4.24432900
v 2.96137300 3.58875000 -4.53341100
v 2.96137300 3.58875000 -4.53341100
v 2.96137300 3.58875000 -4.53341100
v 1.91526800 4.60508900 -2.99808000
v 1.91526800 4.60508900 -2.99808000
v 1.91526800 4.60508900 -2.99808000
v 3.25530700 2.31213100 -5.32564200
v 3.25530700 2.31213100 -5.32564200
v 3.25530700 2.31213100 -5.32564200
v 1.14618700 4.96360200 -1.17561000
v 1.14618700 4.96360200 -1.17561000
v 0.03087300 5.02129000 -2.03808400
v -2.58677500 4.70818700 -3.55186100
v -2.58677500 4.70818700 -3.55186100
v -2.58677500 4.70818700 -3.55186100
v -1.66540300 4.26134300 -4.53470700
v -1.66540300 4.26134300 -4.53470700
v 0.86133800 4.20270000 -2.74093300
v 0.86133800 4.20270000 -2.74093300
v -0.15382100 3.22724400 -2.82155700
v -0.15382100 3.22724400 -2.82155700
v -0.70042100 3.61447500 -0.71253500
v -0.70042100 3.61447500 -0.71253500
v 0.98029800 5.00120600 -0.29979200
v 0.98029800 5.00120600 -0.29979200
v 0.98029800 5.00120600 -0.29979200
v 0.98029800 5.00120600 -0.29979200
v -1.65581300 1.80337300 -0.78204800
v -0.43653700 3.58328700 1.57836700
v -0.43653700 3.58328700 1.57836700
v -1.48694600 1.69746700 1.57836600
v -0.91849600 1.94559600 -2.81792900
v -1.30156100 0.40332200 -2.82246500
v -1.43860300 -1.65743400 -1.92908400
v -1.43860300 -1.65743400 -1.92908400
v -0.45790200 -1.34749900 -3.78807800
v -0.45790200 -1.34749900 -3.78807800
v -0.45790200 -1.34749900 -3.78807800
v -1.84524400 -0.45447400 -1.22717200
v -1.70047800 -1.76210800 0.46709400
v -1.95730000 0.46353200 -0.10000000
v -1.72865200 0.10128700 1.57191100
v -1.10260500 -1.46347000 2.62414000
v -0.98154400 0.38468000 3.09707900
v -0.20323200 1.78647200 3.71168600
v -0.20323200 1.78647200 3.71168600
v 0.24075700 -0.60936300 4.42554500
v 0.24075700 -0.60936300 4.42554500
v 1.42890400 -1.56349700 4.91662800
v 1.42890400 -1.56349700 4.91662800
v 1.33583400 1.59282200 4.88480900
v 1.33583400 1.59282200 4.88480900
v 0.24659900 -1.94556500 3.98698100
v 0.24659900 -1.94556500 3.98698100
v 2.06129600 0.65125400 5.35821100
v 2.06129600 0.65125400 5.35821100
v -2.96323800 2.22723100 5.26369000
v -2.96323800 2.22723100 5.26369000
v -2.42572800 0.01436000 5.99037800
v -2.42572800 0.01436000 5.99037800
v -2.42572800 0.01436000 5.99037800
v -2.75278700 3.70108400 4.48791700
v -2.75278700 3.70108400 4.48791700
v -2.75278700 3.70108400 4.48791700
v -2.75278700 3.70108400 4.48791700
v 2.69907900 -0.08762900 5.53064300
v 2.69907900 -0.08762900 5.53064300
v 2.69907900 -0.08762900 5.53064300
v -2.99785100 -2.56423000 5.11019100
v -2.99785100 -2.56423000 5.11019100
v -2.75275000 -3.70121500 4.48780700
v -2.75275000 -3.70121500 4.48780700
v -2.75275000 -3.70121500 4.48780700
v -2.75275000 -3.70121500 4.48780700
v 1.13400700 -3.63309300 3.54137000
v 1.13400700 -3.63309300 3.54137000
v 1.13400700 -3.63309300 3.54137000
v 1.13400700 -3.63309300 3.54137000
v -2.72641900 -4.67000500 3.46658500
v -2.72641900 -4.67000500 3.46658500
v -3.98653000 -4.10343500 3.04904700
v -3.98653000 -4.10343500 3.04904700
v -5.06273600 -2.68507100 3.06357400
v -5.06273600 -2.68507100 3.06357400
v -5.06273600 -2.68507100 3.06357400
v -3.03743300 -5.12892600 2.41961500
v -3.03743300 -5.12892600 2.41961500
v -3.45702900 -5.30560400 1.19560700
v -3.45702900 -5.30560400 1.19560700
v -4.92171500 -4.03914400 1.16464900
v -4.92171500 -4.03914400 1.16464900
v -4.44665200 -4.55549100 -0.93662500
v -4.44665200 -4.55549100 -0.93662500
v -5.11332000 -3.89101300 -0.24470500
v -5.11332000 -3.89101300 -0.24470500
v -5.11332000 -3.89101300 -0.24470500
v -5.11332000 -3.89101300 -0.24470500
v -6.21705400 -1.77362300 0.70829100
v -5.85155200 -2.65588100 -0.15019900
v -5.85155200 -2.65588100 -0.15019900
v -3.73396400 -5.22797100 -0.54035900
v -3.73396400 -5.22797100 -0.54035900
v 0.98899400 -5.01726600 -0.45736400
v 0.98899400 -5.01726600 -0.45736400
v -3.04547400 -4.80074400 -3.06399600
v -3.04547400 -4.80074400 -3.06399600
v -3.97988900 -4.60810900 -1.84922300
v -3.97988900 -4.60810900 -1.84922300
v 0.02796200 -5.02726000 -1.99017400
v 1.15228400 -4.96856500 -1.16734900
v 1.15228400 -4.96856500 -1.16734900
v -0.52356000 -3.46494900 -1.82042100
v -0.52356000 -3.46494900 -1.82042100
v -0.60907900 -3.72472400 0.46709400
v -0.60907900 -3.72472400 0.46709400
v -0.14705900 -3.22897600 2.65394900
v -0.14705900 -3.22897600 2.65394900
v -0.14705900 -3.22897600 2.65394900
v 0.95332600 -4.87361400 0.96601700
v 0.95332600 -4.87361400 0.96601700
v 1.07911500 -4.49227200 2.20361200
v 1.07911500 -4.49227200 2.20361200
v 0.33345900 -2.82734100 -3.75744700
v 0.33345900 -2.82734100 -3.75744700
v -3.70901000 -4.61935700 -2.43219800
v -3.70901000 -4.61935700 -2.43219800
v -3.80371100 -3.57739400 -2.15980700
v -5.10073500 -1.87382500 -1.31454300
v -5.10073500 -1.87382500 -1.31454300
v -5.10073500 -1.87382500 -1.31454300
v -3.58213500 -3.92146200 -3.63732900
v -3.58213500 -3.92146200 -3.63732900
v -3.58213500 -3.92146200 -3.63732900
v -3.94542800 -2.75854000 -4.24899500
v -3.94542800 -2.75854000 -4.24899500
v -4.48191300 -1.91439900 -2.41566400
v -4.48191300 -1.91439900 -2.41566400
v -5.81791200 -0.77097800 -2.54562100
v -5.81791200 -0.77097800 -2.54562100
v -4.47367300 -1.87863600 -4.21052400
v -4.47367300 -1.87863600 -4.21052400
v -4.47367300 -1.87863600 -4.21052400
v -5.22900200 -1.04844900 -3.59426400
v -5.22900200 -1.04844900 -3.59426400
v -5.22900200 -1.04844900 -3.59426400
v -5.38778400 0.68656500 -3.48770500
v -4.54415100 -0.47183600 -4.56591700
v -4.54415100 -0.47183600 -4.56591700
v -4.39774700 1.30853400 -4.54962500
v -4.39774700 1.30853400 -4.54962500
v -3.17882100 3.19804000 -4.65128700
v -3.17882100 3.19804000 -4.65128700
v -4.57198000 2.12191000 -3.92644800
v -5.42812100 1.34335500 -2.76029400
v -4.03453400 3.35105400 -3.69936300
v -4.03453400 3.35105400 -3.69936300
v -4.41822400 2.64954400 -2.44694100
v -3.90711900 4.25675900 -2.78788200
v -3.90711900 4.25675900 -2.78788200
v -4.34355700 3.78410000 -1.63923400
v -5.00106200 2.34099900 -1.51713600
v -5.90292400 2.47028800 -0.54212400
v -5.21574000 3.71158700 -0.49302700
v -5.21574000 3.71158700 -0.49302700
v -5.94899600 1.63864800 -1.31830100
v -6.23952300 0.91376700 -1.42678500
v -6.18317300 -1.30844300 -1.19667700
v -6.18317300 -1.30844300 -1.19667700
v -6.18317300 -1.30844300 -1.19667700
v -5.96436700 0.23636100 -2.41884100
v -6.45199000 0.00000200 0.63557000
v -6.24912900 1.72684000 0.66401300
v -5.04525900 2.71776500 3.06357500
v -5.64882000 0.67971100 3.14520300
v -4.82196000 4.31875200 0.60688700
v -3.94583700 4.08611500 3.12069200
v -3.60633700 5.34332300 0.55791300
v -3.60633700 5.34332300 0.55791300
v -4.41750100 4.48411400 -1.39324900
v -4.41750100 4.48411400 -1.39324900
v -3.34980800 4.86765200 -2.55199100
v -3.34980800 4.86765200 -2.55199100
v -2.99230700 5.18409900 2.34538500
v -2.99230700 5.18409900 2.34538500
v -2.73515200 4.67517600 3.46001300
v -2.73515200 4.67517600 3.46001300
v 1.02100200 4.63093200 1.88450500
v 1.02100200 4.63093200 1.88450500
v 1.02100200 4.63093200 1.88450500
v 1.11088000 3.90845300 3.18458600
v 1.11088000 3.90845300 3.18458600
v 0.69332500 3.67660200 3.64153400
v 0.69332500 3.67660200 3.64153400
v 1.15633200 3.13042700 3.91505700
v 1.15633200 3.13042700 3.91505700
v 1.15633200 3.13042700 3.91505700
v 1.15633200 3.13042700 3.91505700
v -3.76844700 2.51799800 4.62838700
v -3.76844700 2.51799800 4.62838700
v -3.99046700 0.62683900 5.09010900
v -3.99046700 0.62683900 5.09010900
v -4.72135400 -1.35177300 4.23237800
v -4.72135400 -1.35177300 4.23237800
v -2.94434200 -1.10531100 5.63348900
v -2.94434200 -1.10531100 5.63348900
v -5.92673500 -0.52832000 2.52464500
v -2.31170400 -2.36924700 -5.54182400
v -2.31170400 -2.36924700 -5.54182400
v -2.94990600 -3.52100800 -4.54805700
v -2.94990600 -3.52100800 -4.54805700
v -1.12050000 -3.34715900 -5.39154000
v -0.94004800 3.51762400 -5.33490900
v -0.94004800 3.51762400 -5.33490900
vn -0.40962187 -0.89569190 -0.17304896
vn -0.40962187 -0.89569190 -0.17304896
vn -0.40962187 -0.89569190 -0.17304896
vn -0.95699159 0.26887761 -0.10895839
vn -0.95699159 0.26887761 -0.10895839
vn -0.95699159 0.26887761 -0.10895839
vn 0.22164510 -0.89262052 -0.39255834
vn 0.27701297 0.60524658 0.74628439
vn 0.34453626 0.77514069 0.52957688
vn 0.22447227 -0.87671996 -0.42541076
vn 0.09457932 -0.34147678 -0.93511944
vn 0.06832532 -0.96236029 -0.26304814
vn -0.16470000 -0.60950919 -0.77548208
vn -0.35445206 -0.69673683 -0.62363574
vn 0.35009912 0.53435901 0.76934456
vn 0.49392071 0.71976513 0.48783244
vn 0.12659600 -0.96487749 -0.23018445
vn 0.52183075 0.74664762 0.41256514
vn 0.29782316 0.49957472 0.81346571
vn 0.36301638 -0.51635464 -0.77562684
vn 0.35871251 -0.79733864 -0.48536216
vn 0.44924213 0.30480427 0.83980704
vn 0.22604137 -0.28447796 -0.93165315
vn 0.31273445 0.43398148 0.84490072
vn 0.32931554 0.27896602 0.90206942
vn 0.14345375 -0.00965533 -0.98960992
vn 0.08815873 -0.11203996 -0.98978537
vn 0.00993339 0.03687979 -0.99927034
vn 0.43022457 -0.05963746 0.90074980
vn 0.28847151 -0.35378986 0.88972857
vn 0.00154784 0.11189255 -0.99371911
vn -0.56799875 0.15501267 -0.80829975
vn 0.00521784 0.01718746 -0.99983867
vn 0.01776148 0.07301196 -0.99717290
vn -0.38942913 0.44593596 -0.80590699
vn 0.03306652 0.11396591 -0.99293423
vn 0.24197864 0.62056826 -0.74588295
vn 0.14759057 0.91155657 -0.38377291
vn 0.00361541 -0.01308631 -0.99990783
vn -0.57044135 -0.20602395 -0.79507912
vn 0.74871535 -0.13336732 0.64933696
vn 0.53034744 -0.01934951 0.84755955
vn 0.40297036 -0.34929176 0.84593744
vn 0.48872845 -0.62728861 0.60634438
vn 0.70331400 -0.32061974 0.63447017
vn 0.43787217 -0.47115995 0.76568679
vn 0.26526473 0.87728935 -0.39999754
vn 0.38856221 0.54879005 -0.74016815
vn 0.31820857 -0.55732821 0.76689541
vn 0.41271225 -0.76789698 0.48990083
vn 0.13104007 0.93973103 -0.31580705
vn 0.36299267 -0.64387058 0.67354807
vn 0.30660038 -0.44993089 0.83878388
vn 0.38856221 0.54879005 -0.74016815
vn 0.09374477 0.16647648 -0.98157909
vn 0.57472539 -0.78526569 0.23032267
vn 0.10427547 0.99218802 -0.06848038
vn 0.06454380 0.98462160 -0.16234037
vn -0.39649705 0.63683835 -0.66123143
vn -0.53176013 0.64465031 -0.54923323
vn 0.01856219 0.96811446 -0.24981959
vn 0.06685597 0.92913796 -0.36363846
vn -0.29490989 0.61373667 -0.73236292
vn 0.64927348 -0.70023495 0.29684165
vn 0.48156240 -0.73535959 0.47680597
vn 0.53959265 -0.60955639 0.58075880
vn 0.73663246 -0.54611874 0.39890719
vn 0.61075370 -0.76162274 0.21658883
vn 0.80431551 -0.59031491 0.06785914
vn 0.60739902 -0.78038331 0.14855409
vn 0.09795336 0.99435929 0.04067843
vn 0.64643445 -0.75824414 -0.08478400
vn 0.59737459 -0.78877397 -0.14484204
vn 0.93720475 -0.32777055 0.11922135
vn 0.59737459 -0.78877397 -0.14484204
vn 0.75530847 -0.57861477 -0.30775651
vn 0.90326980 -0.32178758 -0.28382462
vn 0.81843418 -0.33415857 0.46744362
vn 0.87938498 -0.06833634 0.47118171
vn 0.92751059 0.27073209 0.25773677
vn 0.77211735 0.41957217 0.47727769
vn 0.82105256 0.08424711 0.56460173
vn 0.60797027 0.22805558 0.76050168
vn 0.77087467 0.42061953 0.47836330
vn 0.97898695 0.06821499 0.19217510
vn 0.94122720 0.32366693 -0.09659748
vn 0.99707165 -0.07632177 -0.00480847
vn 0.95823799 -0.00111889 -0.28596976
vn 0.84661435 0.26401846 -0.46210216
vn 0.82468386 -0.06227137 -0.56215550
vn 0.56417003 -0.26116054 -0.78326710
vn 0.74943022 -0.34555717 -0.56475180
vn 0.51259933 0.06295602 -0.85631680
vn 0.74252404 0.09587977 -0.66292165
vn 0.46219145 0.21869618 -0.85938993
vn 0.17773283 -0.51578512 0.83807920
vn 0.20875857 0.56013510 0.80166610
vn 0.54004476 -0.19376706 -0.81902746
vn 0.72969134 0.28478733 -0.62164840
vn 0.52315206 0.39954428 -0.75277904
vn 0.42956539 0.01488517 -0.90291307
vn 0.10929489 0.35291537 0.92924990
vn 0.10969355 0.40418807 0.90807452
vn -0.48156817 0.31209539 0.81895577
vn 0.07855609 -0.33761119 0.93800193
vn 0.08620139 0.32684893 0.94113713
vn -0.48353577 0.04926117 0.87393735
vn -0.43764245 0.46694211 0.76839713
vn -0.52361780 0.58311716 0.62112703
vn 0.15485655 0.48785243 0.85908059
vn 0.17187650 0.71357538 0.67916762
vn 0.35124711 0.08560287 -0.93236131
vn 0.11777570 -0.41412488 0.90256826
vn 0.09115229 0.30026150 0.94949160
vn -0.60137947 -0.38285591 0.70125893
vn 0.11185342 -0.40970372 0.90533512
vn 0.15699737 -0.49061362 0.85711732
vn 0.17797174 -0.71160832 0.67966143
vn -0.59461624 -0.48089271 0.64433977
vn -0.48522270 -0.64057035 0.59517103
vn 0.54430899 0.69551322 -0.46902994
vn 0.54735905 0.47058261 -0.69206219
vn 0.20556737 -0.80542175 0.55591173
vn 0.20500744 -0.56179467 0.80147283
vn 0.18472138 -0.84003973 0.51010907
vn -0.48744672 -0.68662307 0.53939267
vn -0.60474117 -0.47127802 0.64201647
vn -0.61421241 -0.67746284 0.40470633
vn -0.61693231 -0.44555837 0.64874669
vn -0.74449412 -0.56848218 0.35008074
vn -0.87545047 -0.31622003 0.36550154
vn 0.14580171 -0.96188492 0.23134232
vn -0.55703383 -0.74312175 0.37078752
vn -0.63677306 -0.74538308 0.19729201
vn 0.07628225 -0.99652964 0.03331219
vn -0.86509402 -0.47334621 0.16599914
vn -0.68469815 -0.70370433 0.18970677
vn -0.82097794 -0.41112315 -0.39619816
vn -0.65451595 -0.74973480 -0.09750181
vn -0.85461698 -0.51554412 0.06200062
vn -0.66484565 -0.34675084 -0.66162233
vn -0.79826454 -0.24759858 -0.54906162
vn -0.69578452 -0.71799583 0.01912816
vn -0.95081902 -0.28444984 0.12260297
vn -0.90451992 -0.42523829 0.03187658
vn -0.59262628 -0.43772647 -0.67615799
vn 0.02524360 -0.99574547 -0.08862124
vn -0.64119761 -0.76370800 -0.07493810
vn 0.66431646 0.73839921 0.11597520
vn 0.07561522 -0.99705070 0.01312367
vn -0.50434299 -0.70002440 -0.50557292
vn -0.00798866 -0.98280893 -0.18445266
vn -0.54453631 -0.79298401 -0.27323355
vn -0.86636221 -0.04761658 -0.49714102
vn 0.06242420 -0.98819811 -0.13988464
vn 0.62143712 0.75102789 0.22309866
vn 0.10549760 -0.99170609 -0.07341182
vn 0.87746880 0.46851142 0.10269151
vn 0.67478464 0.64549137 0.35778008
vn 0.86969146 0.48363021 -0.09868427
vn 0.64278398 0.76114477 -0.08652971
vn 0.59700334 0.71154515 -0.37052735
vn 0.59645118 0.48294197 -0.64110300
vn 0.80362903 0.43333897 -0.40791877
vn 0.12114013 -0.97579234 0.18208343
vn 0.62016071 0.76146103 -0.18862076
vn 0.17123738 -0.90537427 0.38855526
vn 0.60286408 0.71579495 -0.35240956
vn 0.51678926 0.43121307 0.73958376
vn 0.68808775 0.54173581 0.48276036
vn -0.60485883 -0.65985331 -0.44580198
vn -0.95974455 -0.01389182 -0.28053059
vn -0.91526417 -0.21092837 -0.34322109
vn -0.49739499 -0.53694220 -0.68138925
vn -0.78648223 -0.34442864 -0.51265447
vn -0.53703142 -0.75935034 -0.36740212
vn -0.58252098 -0.51341404 -0.63013914
vn -0.49061684 -0.66590553 -0.56201862
vn -0.96456932 -0.24920497 -0.08661932
vn -0.90460327 -0.42290968 -0.05329472
vn -0.55557373 -0.38066916 -0.73920824
vn -0.87146242 -0.41954987 -0.25402986
vn -0.65640174 -0.73037671 -0.18890903
vn -0.57837281 -0.76562459 -0.28160943
vn -0.92273845 -0.06313727 -0.38022026
vn -0.62874725 -0.25229726 -0.73554265
vn -0.85755011 -0.51420489 -0.01418257
vn -0.74570267 -0.66606966 -0.01669503
vn -0.84352757 -0.04432291 -0.53525388
vn -0.74151195 -0.19901629 -0.64074374
vn -0.69334453 -0.71543734 -0.08615551
vn -0.84514764 0.15704261 -0.51094332
vn -0.78284413 0.00896067 -0.62215333
vn -0.63998657 -0.11787343 -0.75929115
vn -0.59229554 0.18647640 -0.78384472
vn -0.73670526 0.23764733 -0.63307906
vn -0.42414018 0.46615740 -0.77640350
vn -0.59198745 0.51335983 -0.62129908
vn -0.78714918 0.42677163 -0.44526639
vn -0.80340968 0.49202127 -0.33533260
vn -0.58674415 0.53695714 -0.60614217
vn -0.93621482 0.33756266 -0.09774077
vn -0.86574055 0.44495302 -0.22915085
vn -0.95045077 0.21026476 -0.22898050
vn -0.57093862 0.67394656 -0.46885512
vn -0.87867255 0.19166893 -0.43726145
vn -0.71341271 0.52002471 -0.46969842
vn -0.79612661 0.50519378 -0.33310910
vn -0.73734151 0.29565166 -0.60738587
vn -0.82572924 0.56384790 -0.01570895
vn -0.75373707 0.50285914 -0.42309942
vn -0.94969057 0.16512224 -0.26612491
vn -0.39820428 -0.62177722 -0.67440821
vn -0.98232623 -0.11543423 -0.14734354
vn -0.45389280 -0.77868791 -0.43315870
vn -0.93534720 0.01307095 -0.35348942
vn -0.99575411 -0.00078834 0.09204964
vn -0.94405138 0.28632057 0.16366895
vn -0.79028442 0.41161628 0.45389709
vn -0.86333839 0.12012105 0.49012015
vn -0.75112225 0.64944996 0.11844883
vn -0.61763951 0.63685054 0.46145729
vn 0.04896668 0.99855613 -0.02208877
vn -0.61801417 0.77965454 0.10098154
vn -0.86781220 0.08062526 -0.49030761
vn -0.59326885 0.78808458 -0.16417908
vn -0.02042338 0.98679833 -0.16066098
vn -0.55847868 0.73275423 -0.38880946
vn 0.13384800 0.96691331 0.21717126
vn -0.57853730 0.74184252 0.33906381
vn -0.48642686 0.69392037 0.53090813
vn 0.18043128 0.83023124 0.52740936
vn 0.17116532 0.93174863 0.32022948
vn 0.58557647 -0.69069387 -0.42431376
vn 0.59737459 -0.78877397 -0.14484204
vn 0.62554954 -0.58658397 -0.51439968
vn 0.12660098 0.83312204 0.53840492
vn 0.19282807 0.54592534 0.81534217
vn 0.25708696 0.76527600 0.59013468
vn 0.51909000 -0.41177990 -0.74898791
vn 0.36989145 0.64732252 0.66644870
vn 0.14726640 0.53988163 0.82875837
vn 0.60765050 -0.52445743 -0.59641032
vn -0.67235042 0.38863001 0.63000923
vn -0.48984239 0.36914939 0.78979945
vn -0.75198938 0.13971841 0.64419774
vn -0.52267095 0.06661501 0.84992795
vn -0.61628594 -0.29645715 0.72959222
vn -0.81653362 -0.10875797 0.56696080
vn -0.56690110 -0.14284465 0.81130669
vn 0.08771920 -0.33917421 0.93662490
vn -0.91835119 -0.10281536 0.38217808
vn -0.45020171 -0.41403037 -0.79113670
vn 0.00350842 -0.06669248 -0.99776741
vn -0.46397300 -0.48140266 -0.74362661
vn -0.38359160 -0.68702313 -0.61713589
vn -0.11186927 -0.41870048 -0.90120762
vn -0.16290211 0.64471027 -0.74686784
vn 0.01228728 0.18105504 -0.98339620
vt 0.00057179 0.00213175
vt 0.00057282 0.00212948
vt 0.00057261 0.00213050
vt 0.00054944 0.00213671
vt 0.00054944 0.00213671
vt 0.00054944 0.00213671
vt 0.15561104 0.37144318
vt 0.26060075 0.40833416
vt 0.43534538 0.46279006
vt 0.15968954 0.37531979
vt 0.05725609 0.41255660
vt 0.16758669 0.37111534
vt 0.06532564 0.40833416
vt 0.16758669 0.37111534
vt 0.25701100 0.40988140
vt 0.43152775 0.46198245
vt 0.15730221 0.36631219
vt 0.43418995 0.45770654
vt 0.26286414 0.41134669
vt 0.05235548 0.41499591
vt 0.15426969 0.37499795
vt 0.25639980 0.41646819
vt 0.05243644 0.41844072
vt 0.26349134 0.41472104
vt 0.26046182 0.41807590
vt 0.05607766 0.42113341
vt 0.05646397 0.41839325
vt 0.05829458 0.42622742
vt 0.25929738 0.42350625
vt 0.26153479 0.42756526
vt 0.05690076 0.43064676
vt 0.07543520 0.42452225
vt 0.07543520 0.42452225
vt 0.07301639 0.43092812
vt 0.07301639 0.43092812
vt 0.06258098 0.43684473
vt 0.06258098 0.43684473
vt 0.25896855 0.37512188
vt 0.07370705 0.41831578
vt 0.07370705 0.41831578
vt 0.03110086 0.42412395
vt 0.25310941 0.42364268
vt 0.25708996 0.42915149
vt 0.49954302 0.18839510
vt 0.02909534 0.43142188
vt 0.25487704 0.43094861
vt 0.26451833 0.37371407
vt 0.05720861 0.43735198
vt 0.26251531 0.43423051
vt 0.49670940 0.19349161
vt 0.26108551 0.36798237
vt 0.25902902 0.43757438
vt 0.26349134 0.43000907
vt 0.05545696 0.43342490
vt 0.05545696 0.43342490
vt 0.49010663 0.19305233
vt 0.25940883 0.36153852
vt 0.25540679 0.36367897
vt 0.07596345 0.43735198
vt 0.03240772 0.40389383
vt 0.24681848 0.36707731
vt 0.24956114 0.37087946
vt 0.07271303 0.43654388
vt 0.02351657 0.43615207
vt 0.49481033 0.19051107
vt 0.49409718 0.18733462
vt 0.02450509 0.43258381
vt 0.48683623 0.18790434
vt 0.01764993 0.43278322
vt 0.48717656 0.19349161
vt 0.25937934 0.35857597
vt 0.01517814 0.43783175
vt 0.09436246 0.49311674
vt 0.01887833 0.42650029
vt 0.09730952 0.48615414
vt 0.01004715 0.43186716
vt 0.01110963 0.42527388
vt 0.02523373 0.42808101
vt 0.02594138 0.42288255
vt 0.02379743 0.41572605
vt 0.42185197 0.45414078
vt 0.02942268 0.41788250
vt 0.25110639 0.41784951
vt 0.42335574 0.46078404
vt 0.02121519 0.41921584
vt 0.01607021 0.41431524
vt 0.01723064 0.42172112
vt 0.01179030 0.41995648
vt 0.00866582 0.41466707
vt 0.00640893 0.42057218
vt 0.46055906 0.26033446
vt 0.00360380 0.42522541
vt 0.45254948 0.26175527
vt 0.00207561 0.41727929
vt 0.44931706 0.26568585
vt 0.19424666 0.42079607
vt 0.19142304 0.43089564
vt 0.45980143 0.26547345
vt 0.00386767 0.41308634
vt 0.44813863 0.26172078
vt 0.45662549 0.26786728
vt 0.19451103 0.42842734
vt 0.17705656 0.42949232
vt 0.17705656 0.42949232
vt 0.18055335 0.42276861
vt 0.18055335 0.42276861
vt 0.18055335 0.42276861
vt 0.17656180 0.43443341
vt 0.02786644 0.37740727
vt 0.17656180 0.43443341
vt 0.25222034 0.34081914
vt 0.45414320 0.26996725
vt 0.19715624 0.42655076
vt 0.19715624 0.42655076
vt 0.18077724 0.41402588
vt 0.18077724 0.41402588
vt 0.18248091 0.41057556
vt 0.16610841 0.34081914
vt 0.18248091 0.41057556
vt 0.16610841 0.34081914
vt 0.43534538 0.43811211
vt 0.44253437 0.26460188
vt 0.15426969 0.34678773
vt 0.19496081 0.41392993
vt 0.16668913 0.34427295
vt 0.16668913 0.34427295
vt 0.17883619 0.40833416
vt 0.17113895 0.34459730
vt 0.17423344 0.41204485
vt 0.17476168 0.34354631
vt 0.00560032 0.38322043
vt 0.16843527 0.34748589
vt 0.16843527 0.34748589
vt 0.17069667 0.35115109
vt 0.17069667 0.35115109
vt 0.00207561 0.38975723
vt 0.17559278 0.34997617
vt 0.48898768 0.04501115
vt 0.17558928 0.35719514
vt 0.00237440 0.39440197
vt 0.48683623 0.39812415
vt 0.48683623 0.04348689
vt 0.17729344 0.35436652
vt 0.00723502 0.39085420
vt 0.00515804 0.39386123
vt 0.49140300 0.39674132
vt 0.17291259 0.35654296
vt 0.17291259 0.35654296
vt 0.43395856 0.45119322
vt 0.15760906 0.35979287
vt 0.17264172 0.36515675
vt 0.17264172 0.36515675
vt 0.17476468 0.36050253
vt 0.49208666 0.04506263
vt 0.16187248 0.36402631
vt 0.43396306 0.45360504
vt 0.15762355 0.36220370
vt 0.02374795 0.41013778
vt 0.42674158 0.45453759
vt 0.01636756 0.40833416
vt 0.42819238 0.44705225
vt 0.43041529 0.44016361
vt 0.44396667 0.26033446
vt 0.00884524 0.40926421
vt 0.15666452 0.35514614
vt 0.43457426 0.44651651
vt 0.15536416 0.35118858
vt 0.43530390 0.44252346
vt 0.25372111 0.41292742
vt 0.42745224 0.46132527
vt 0.17432839 0.36259151
vt 0.49406869 0.04506263
vt 0.49362891 0.04189267
vt 0.49339202 0.39977184
vt 0.49127356 0.03795560
vt 0.48902716 0.26374929
vt 0.07362059 0.40860803
vt 0.17490611 0.36648560
vt 0.49837459 0.04343892
vt 0.50081040 0.04072075
vt 0.07558163 0.41219078
vt 0.49503922 0.03787664
vt 0.49322311 0.26374929
vt 0.49124307 0.25959582
vt 0.01132103 0.40147401
vt 0.07787002 0.41471154
vt 0.50093884 0.03871922
vt 0.49842157 0.26084771
vt 0.01140948 0.40500878
vt 0.08084256 0.41689448
vt 0.49527760 0.25961031
vt 0.01647351 0.40434811
vt 0.01421511 0.40813925
vt 0.07902495 0.41926532
vt 0.07970062 0.42515744
vt 0.01983087 0.40777443
vt 0.07695796 0.43210605
vt 0.02720127 0.40779642
vt 0.02198482 0.40556251
vt 0.01830911 0.40181984
vt 0.02639916 0.40460098
vt 0.02639916 0.40460098
vt 0.02356355 0.40056545
vt 0.02918430 0.40142104
vt 0.02918430 0.40142104
vt 0.02699337 0.39768886
vt 0.02171495 0.39752794
vt 0.02077691 0.39425954
vt 0.02545212 0.39388822
vt 0.02545212 0.39388822
vt 0.01830262 0.39697871
vt 0.01572987 0.39746197
vt 0.49607621 0.39674132
vt 0.00899416 0.39709015
vt 0.48683623 0.26077175
vt 0.01417963 0.40087480
vt 0.01234503 0.39078024
vt 0.01786933 0.39038543
vt 0.02209126 0.38227089
vt 0.01507619 0.38234985
vt 0.02764655 0.39013955
vt 0.02769203 0.38185659
vt 0.24542566 0.35299020
vt 0.03236824 0.39013905
vt 0.02899189 0.39674882
vt 0.02899189 0.39674882
vt 0.24489292 0.36334014
vt 0.03173905 0.40053897
vt 0.24855313 0.34753736
vt 0.03240772 0.38424793
vt 0.03101890 0.38064469
vt 0.25057465 0.34409854
vt 0.26121795 0.35150192
vt 0.00812958 0.43575926
vt 0.09248288 0.48615414
vt 0.00408906 0.43290965
vt 0.26307504 0.34737594
vt 0.18769486 0.43713409
vt 0.26232391 0.34565428
vt 0.46496791 0.26489673
vt 0.26451833 0.34508806
vt 0.18962192 0.43573577
vt 0.00207561 0.43008903
vt 0.02290936 0.37713490
vt 0.17423344 0.42980417
vt 0.01678236 0.37593299
vt 0.17502655 0.42351774
vt 0.17425943 0.41658113
vt 0.00992871 0.37911493
vt 0.17977973 0.41875557
vt 0.17977973 0.41875557
vt 0.01112712 0.38461625
vt 0.07056508 0.41458261
vt 0.07056508 0.41458261
vt 0.07185795 0.41036767
vt 0.17359525 0.36984846
vt 0.06604629 0.41216229
vt 0.06990141 0.43463231
vt 0.06990141 0.43463231
f 3/3/3 1/1/1 2/2/2
f 6/6/6 4/4/4 5/5/5
f 10/10/10 21/21/21 7/7/7
f 12/12/12 10/10/10 7/7/7
f 17/17/17 12/12/12 7/7/7
f 15/15/15 8/8/8 19/19/19
f 18/18/18 9/9/9 16/16/16
f 19/19/19 25/25/25 22/22/22
f 15/15/15 19/19/19 22/22/22
f 11/11/11 23/23/23 20/20/20
f 19/19/19 24/24/24 25/25/25
f 27/27/27 28/28/28 26/26/26
f 26/26/26 23/23/23 27/27/27
f 29/29/29 22/22/22 25/25/25
f 29/29/29 30/30/30 43/43/43
f 36/36/36 31/31/31 28/28/28
f 39/39/39 33/33/33 28/28/28
f 33/33/33 34/34/34 28/28/28
f 39/39/39 28/28/28 27/27/27
f 34/34/34 36/36/36 28/28/28
f 29/29/29 42/42/42 22/22/22
f 29/29/29 43/43/43 42/42/42
f 30/30/30 49/49/49 43/43/43
f 42/42/42 43/43/43 46/46/46
f 43/43/43 49/49/49 46/46/46
f 46/46/46 49/49/49 52/52/52
f 38/38/38 51/51/51 47/47/47
f 48/48/48 54/54/54 37/37/37
f 30/30/30 53/53/53 49/49/49
f 36/36/36 55/55/55 31/31/31
f 50/50/50 56/56/56 65/65/65
f 57/57/57 51/51/51 58/58/58
f 62/62/62 51/51/51 38/38/38
f 61/61/61 58/58/58 51/51/51
f 62/62/62 61/61/61 51/51/51
f 44/44/44 50/50/50 65/65/65
f 69/69/69 67/67/67 64/64/64
f 44/44/44 65/65/65 66/66/66
f 68/68/68 65/65/65 56/56/56
f 78/78/78 67/67/67 69/69/69
f 68/68/68 56/56/56 70/70/70
f 72/72/72 76/76/76 69/69/69
f 78/78/78 69/69/69 74/74/74
f 69/69/69 77/77/77 74/74/74
f 69/69/69 76/76/76 77/77/77
f 45/45/45 67/67/67 78/78/78
f 41/41/41 45/45/45 78/78/78
f 41/41/41 78/78/78 79/79/79
f 78/78/78 74/74/74 79/79/79
f 82/82/82 41/41/41 79/79/79
f 79/79/79 74/74/74 85/85/85
f 79/79/79 80/80/80 82/82/82
f 79/79/79 85/85/85 80/80/80
f 80/80/80 85/85/85 86/86/86
f 85/85/85 87/87/87 86/86/86
f 85/85/85 74/74/74 87/87/87
f 74/74/74 77/77/77 87/87/87
f 87/87/87 77/77/77 88/88/88
f 87/87/87 88/88/88 86/86/86
f 89/89/89 88/88/88 90/90/90
f 88/88/88 89/89/89 86/86/86
f 88/88/88 77/77/77 90/90/90
f 94/94/94 89/89/89 90/90/90
f 77/77/77 92/92/92 90/90/90
f 90/90/90 92/92/92 94/94/94
f 95/95/95 93/93/93 101/101/101
f 95/95/95 100/100/100 93/93/93
f 91/91/91 98/98/98 93/93/93
f 98/98/98 101/101/101 93/93/93
f 89/89/89 94/94/94 99/99/99
f 95/95/95 101/101/101 112/112/112
f 110/110/110 103/103/103 102/102/102
f 103/103/103 106/106/106 102/102/102
f 106/106/106 114/114/114 102/102/102
f 110/110/110 102/102/102 97/97/97
f 96/96/96 113/113/113 117/117/117
f 113/113/113 105/105/105 116/116/116
f 113/113/113 116/116/116 117/117/117
f 117/117/117 124/124/124 96/96/96
f 118/118/118 125/125/125 123/123/123
f 119/119/119 115/115/115 127/127/127
f 120/120/120 128/128/128 126/126/126
f 129/129/129 127/127/127 115/115/115
f 128/128/128 133/133/133 126/126/126
f 137/137/137 128/128/128 130/130/130
f 134/134/134 133/133/133 128/128/128
f 134/134/134 128/128/128 137/137/137
f 143/143/143 139/139/139 137/137/137
f 148/148/148 137/137/137 139/139/139
f 148/148/148 134/134/134 137/137/137
f 145/145/145 140/140/140 136/136/136
f 144/144/144 136/136/136 131/131/131
f 145/145/145 136/136/136 144/144/144
f 147/147/147 155/155/155 150/150/150
f 147/147/147 150/150/150 135/135/135
f 148/148/148 139/139/139 153/153/153
f 148/148/148 153/153/153 151/151/151
f 147/147/147 152/152/152 155/155/155
f 17/17/17 157/157/157 155/155/155
f 155/155/155 12/12/12 17/17/17
f 152/152/152 12/12/12 155/155/155
f 155/155/155 157/157/157 150/150/150
f 18/18/18 159/159/159 156/156/156
f 156/156/156 159/159/159 161/161/161
f 156/156/156 161/161/161 149/149/149
f 86/86/86 164/164/164 160/160/160
f 168/168/168 161/161/161 162/162/162
f 166/166/166 149/149/149 161/161/161
f 168/168/168 166/166/166 161/161/161
f 158/158/158 86/86/86 160/160/160
f 121/121/121 168/168/168 162/162/162
f 125/125/125 165/165/165 167/167/167
f 123/123/123 125/125/125 167/167/167
f 125/125/125 132/132/132 165/165/165
f 135/135/135 150/150/150 165/165/165
f 135/135/135 165/165/165 132/132/132
f 99/99/99 164/164/164 89/89/89
f 122/122/122 163/163/163 100/100/100
f 86/86/86 89/89/89 164/164/164
f 84/84/84 81/81/81 159/159/159
f 158/158/158 80/80/80 86/86/86
f 16/16/16 170/170/170 159/159/159
f 84/84/84 159/159/159 170/170/170
f 16/16/16 159/159/159 18/18/18
f 22/22/22 83/83/83 169/169/169
f 15/15/15 22/22/22 169/169/169
f 172/172/172 154/154/154 173/173/173
f 154/154/154 142/142/142 173/173/173
f 142/142/142 154/154/154 138/138/138
f 175/175/175 182/182/182 173/173/173
f 142/142/142 175/175/175 173/173/173
f 180/180/180 179/179/179 173/173/173
f 172/172/172 173/173/173 179/179/179
f 173/173/173 182/182/182 180/180/180
f 176/176/176 184/184/184 183/183/183
f 182/182/182 187/187/187 180/180/180
f 184/184/184 191/191/191 183/183/183
f 191/191/191 188/188/188 183/183/183
f 189/189/189 192/192/192 193/193/193
f 185/185/185 192/192/192 189/189/189
f 186/186/186 190/190/190 194/194/194
f 192/192/192 196/196/196 193/193/193
f 32/32/32 194/194/194 195/195/195
f 32/32/32 40/40/40 194/194/194
f 194/194/194 40/40/40 186/186/186
f 32/32/32 195/195/195 197/197/197
f 199/199/199 198/198/198 196/196/196
f 199/199/199 196/196/196 192/192/192
f 200/200/200 199/199/199 192/192/192
f 199/199/199 200/200/200 203/203/203
f 199/199/199 203/203/203 202/202/202
f 199/199/199 201/201/201 198/198/198
f 206/206/206 204/204/204 203/203/203
f 203/203/203 204/204/204 202/202/202
f 207/207/207 203/203/203 200/200/200
f 207/207/207 206/206/206 203/203/203
f 209/209/209 207/207/207 208/208/208
f 208/208/208 207/207/207 211/211/211
f 209/209/209 206/206/206 207/207/207
f 207/207/207 200/200/200 211/211/211
f 212/212/212 208/208/208 211/211/211
f 212/212/212 211/211/211 200/200/200
f 212/212/212 200/200/200 192/192/192
f 216/216/216 212/212/212 192/192/192
f 214/214/214 212/212/212 185/185/185
f 214/214/214 217/217/217 212/212/212
f 185/185/185 212/212/212 216/216/216
f 212/212/212 217/217/217 218/218/218
f 217/217/217 220/220/220 218/218/218
f 218/218/218 220/220/220 219/219/219
f 218/218/218 219/219/219 221/221/221
f 210/210/210 218/218/218 221/221/221
f 210/210/210 208/208/208 218/218/218
f 221/221/221 219/219/219 222/222/222
f 222/222/222 224/224/224 221/221/221
f 226/226/226 221/221/221 224/224/224
f 221/221/221 226/226/226 210/210/210
f 206/206/206 209/209/209 225/225/225
f 225/225/225 204/204/204 206/206/206
f 226/226/226 228/228/228 205/205/205
f 228/228/228 226/226/226 224/224/224
f 61/61/61 227/227/227 58/58/58
f 60/60/60 205/205/205 228/228/228
f 227/227/227 223/223/223 58/58/58
f 58/58/58 223/223/223 71/71/71
f 222/222/222 230/230/230 224/224/224
f 223/223/223 229/229/229 71/71/71
f 231/231/231 230/230/230 222/222/222
f 232/232/232 233/233/233 229/229/229
f 229/229/229 233/233/233 71/71/71
f 233/233/233 232/232/232 239/239/239
f 73/73/73 235/235/235 75/75/75
f 76/76/76 234/234/234 236/236/236
f 233/233/233 239/239/239 237/237/237
f 97/97/97 238/238/238 110/110/110
f 232/232/232 111/111/111 239/239/239
f 242/242/242 238/238/238 97/97/97
f 239/239/239 241/241/241 237/237/237
f 240/240/240 98/98/98 91/91/91
f 236/236/236 243/243/243 92/92/92
f 76/76/76 236/236/236 92/92/92
f 109/109/109 231/231/231 222/222/222
f 222/222/222 244/244/244 109/109/109
f 222/222/222 219/219/219 244/244/244
f 219/219/219 246/246/246 244/244/244
f 104/104/104 245/245/245 247/247/247
f 245/245/245 104/104/104 108/108/108
f 247/247/247 248/248/248 250/250/250
f 220/220/220 249/249/249 246/246/246
f 107/107/107 104/104/104 247/247/247
f 219/219/219 220/220/220 246/246/246
f 247/247/247 250/250/250 107/107/107
f 105/105/105 251/251/251 116/116/116
f 248/248/248 115/115/115 250/250/250
f 129/129/129 115/115/115 248/248/248
f 249/249/249 252/252/252 131/131/131
f 220/220/220 252/252/252 249/249/249
f 144/144/144 131/131/131 252/252/252
f 217/217/217 252/252/252 220/220/220
f 217/217/217 144/144/144 252/252/252
f 214/214/214 144/144/144 217/217/217
f 185/185/185 216/216/216 192/192/192
f 174/174/174 146/146/146 213/213/213
f 144/144/144 214/214/214 145/145/145
f 215/215/215 184/184/184 176/176/176
f 60/60/60 201/201/201 205/205/205
f 198/198/198 201/201/201 60/60/60
f 35/35/35 32/32/32 197/197/197
f 35/35/35 197/197/197 63/63/63
f 197/197/197 59/59/59 63/63/63
f 40/40/40 181/181/181 186/186/186
f 253/253/253 255/255/255 181/181/181
f 40/40/40 253/253/253 181/181/181
f 255/255/255 177/177/177 181/181/181
f 257/257/257 255/255/255 253/253/253
f 257/257/257 13/13/13 255/255/255
f 256/256/256 14/14/14 151/151/151
f 256/256/256 151/151/151 178/178/178
f 27/27/27 11/11/11 257/257/257
f 254/254/254 27/27/27 257/257/257
f 257/257/257 11/11/11 13/13/13
f 39/39/39 27/27/27 254/254/254
f 171/171/171 178/178/178 151/151/151
f 146/146/146 174/174/174 141/141/141
f 95/95/95 122/122/122 100/100/100
f 77/77/77 76/76/76 92/92/92
f 42/42/42 83/83/83 22/22/22
f 57/57/57 58/58/58 71/71/71
f 258/258/258 63/63/63 37/37/37
f 35/35/35 63/63/63 258/258/258
f 34/34/34 259/259/259 36/36/36
f 27/27/27 23/23/23 11/11/11

