# ('FARMS composite mesh',)
mtllib link_leg_0_L_0_composite.mtl

o link_leg_0_L_0
usemtl link_leg_0_L_0_composite
v -2.13914900 -2.74701000 -1.20468400
v -2.13914900 -2.74701000 -1.20468400
v -2.13914900 -2.74701000 -1.20468400
v -1.81477000 -6.27564000 -0.21468500
v -2.30460000 -2.80383000 -0.66105800
v -2.30460000 -2.80383000 -0.66105800
v -1.03821300 -5.64322000 -1.73403300
v -1.03821300 -5.64322000 -1.73403300
v -1.03821300 -5.64322000 -1.73403300
v -1.12415700 -2.94386200 -1.96438600
v -1.12415700 -2.94386200 -1.96438600
v -1.12415700 -2.94386200 -1.96438600
v -1.50487200 -2.71870700 -1.97616100
v -2.35281800 -2.27472000 -1.74627400
v -2.35281800 -2.27472000 -1.74627400
v -2.92904300 -2.08819900 -0.83026100
v -2.92904300 -2.08819900 -0.83026100
v -2.74781400 -1.80141500 -1.67476000
v -2.74781400 -1.80141500 -1.67476000
v -2.74781400 -1.80141500 -1.67476000
v -2.83564000 -0.85677000 -2.20310800
v -2.83564000 -0.85677000 -2.20310800
v 0.08448400 -3.14924700 -1.92113600
v 0.08448400 -3.14924700 -1.92113600
v 1.29031300 -2.88843600 -1.89467400
v 1.29031300 -2.88843600 -1.89467400
v 1.29031300 -2.88843600 -1.89467400
v 2.04785900 -2.51056000 -1.76685500
v 2.04785900 -2.51056000 -1.76685500
v 2.78234500 -2.17319700 -1.08369200
v 2.38976300 -2.68339600 -0.88251300
v 2.38976300 -2.68339600 -0.88251300
v 1.64575900 -2.85306000 -1.66835700
v 1.64575900 -2.85306000 -1.66835700
v 1.64575900 -2.85306000 -1.66835700
v 1.29290300 -4.95962400 -1.73490600
v 1.29290300 -4.95962400 -1.73490600
v 1.57846800 -5.09354700 -1.49113300
v 1.57846800 -5.09354700 -1.49113300
v 2.00489800 -3.12528700 -0.07997600
v 2.00489800 -3.12528700 -0.07997600
v 2.00489800 -3.12528700 -0.07997600
v 2.88263700 -2.25942400 0.61778200
v 1.91425700 -3.07569600 0.73881100
v 1.91425700 -3.07569600 0.73881100
v 1.91425700 -3.07569600 0.73881100
v 1.91425700 -3.07569600 0.73881100
v 1.91425700 -3.07569600 0.73881100
v 3.17683800 -1.85051900 -0.41927200
v 3.53002100 -1.10734500 -0.13163000
v 3.37090300 -0.93268000 -1.19569100
v 3.65314500 -0.16230200 -0.50029700
v 3.40428900 0.18219800 -1.43068700
v 3.08537300 -0.55628700 -1.93903200
v 3.00278400 -1.48692500 -1.54341900
v -1.10065100 2.42561900 -2.54820800
v -1.10065100 2.42561900 -2.54820800
v -0.94695200 3.02083700 -1.90934500
v -0.94695200 3.02083700 -1.90934500
v -0.94695200 3.02083700 -1.90934500
v 0.28394000 2.83743400 -2.34279500
v 0.28394000 2.83743400 -2.34279500
v 1.24534300 2.94063400 -1.87827200
v 0.14399400 3.36089400 -1.54796600
v -1.29368200 3.28280200 -1.11898500
v -1.29368200 3.28280200 -1.11898500
v 0.02054600 3.62549000 -0.70621700
v 0.93233500 3.43064600 -1.01048200
v 1.67983300 3.27174500 -0.30787700
v 1.97046700 2.88223500 -1.22565400
v 0.58120000 3.65197800 0.04694100
v 0.76851300 3.45657500 1.07374800
v 1.55447000 3.33680200 0.37415200
v -0.21704100 3.67736900 0.35915800
v -1.12373300 3.50869800 -0.29476600
v -1.12373300 3.50869800 -0.29476600
v -0.30476000 3.40498900 1.38112700
v -1.00329900 3.44361700 0.91806200
v -1.00329900 3.44361700 0.91806200
v -1.54759900 2.85729600 1.74057900
v -1.54759900 2.85729600 1.74057900
v -0.63173600 3.11550400 1.88589600
v -1.82103700 3.21497400 -0.16377500
v -1.82103700 3.21497400 -0.16377500
v -2.05280600 2.97208700 0.80311700
v -2.38252600 2.42445000 1.46252500
v -2.62638400 2.58874000 -0.02626400
v -2.76450700 2.37826600 0.57333600
v -3.24401800 1.53479800 0.91492700
v -3.26687600 1.74447400 0.13016700
v -3.59512300 0.68130300 -0.56289200
v -3.13798100 1.89748000 -0.51471500
v -3.60481600 0.74008200 0.31997200
v -3.41247600 0.60651200 1.27792200
v -3.68153000 -0.20078100 0.18700700
v -3.54634500 -0.18266500 0.99591800
v -3.32015300 -1.13353800 1.17045800
v -3.30725900 -0.12453500 1.64475700
v -2.99939000 -0.24376700 2.15995700
v -2.99939000 -0.24376700 2.15995700
v -2.86634100 0.76200300 2.19755500
v -2.86634100 0.76200300 2.19755500
v -2.36568500 -0.66719300 2.75960700
v -2.82215900 -1.27398200 2.01753500
v -2.82215900 -1.27398200 2.01753500
v -2.82215900 -1.27398200 2.01753500
v -2.37820800 0.24784600 2.80405500
v -2.37820800 0.24784600 2.80405500
v -1.74822600 -0.01438200 3.25174300
v -2.27658400 1.06892600 2.71163700
v -2.27658400 1.06892600 2.71163700
v -1.78516400 1.02437200 3.07109100
v -1.73483300 2.19739900 2.40481300
v -1.73483300 2.19739900 2.40481300
v -2.29605500 1.90908400 2.18135900
v -2.29605500 1.90908400 2.18135900
v -1.25126200 1.84126500 2.94371900
v -1.12677000 0.31333500 3.50546500
v -1.09422300 1.08462900 3.34533700
v -0.51919500 1.76654100 3.21567700
v -0.62590800 0.46255100 3.61711500
v -0.95674100 -0.55886700 3.51848900
v 0.35135300 1.16217800 3.49855900
v -0.00259000 -0.07309200 3.69161000
v 0.29008100 0.60473400 3.62354900
v 0.71397000 0.15863000 3.62690000
v 1.81396500 -0.00640500 3.21169000
v 1.42407200 0.66959200 3.33308000
v 0.57481400 -0.74317400 3.56668200
v 1.34911700 -0.56079500 3.39365200
v 0.92367200 -1.46479100 3.26250700
v 1.99164200 -0.84109100 2.99208700
v 1.57045300 -1.85549000 2.79157100
v 2.29388000 -1.38396300 2.54823100
v 2.29388000 -1.38396300 2.54823100
v 1.27976200 -2.54735800 2.34626500
v 1.27976200 -2.54735800 2.34626500
v 0.51802400 -2.18524200 2.92698900
v 0.51802400 -2.18524200 2.92698900
v 2.13143500 -2.51866200 1.68808800
v 2.13143500 -2.51866200 1.68808800
v 2.13143500 -2.51866200 1.68808800
v 1.66698400 -2.97804900 1.44823900
v 1.66698400 -2.97804900 1.44823900
v 1.66698400 -2.97804900 1.44823900
v 2.76578900 -2.03614300 1.36824000
v 2.72941600 -1.66021200 1.84410100
v 2.69367600 -0.59484900 2.46311300
v 2.69367600 -0.59484900 2.46311300
v 3.24722600 -1.32018100 1.15809300
v 3.23730900 -0.58792900 1.67220400
v 3.38055800 0.37981500 1.43511000
v 2.86269400 0.32080300 2.31593500
v 2.86269400 0.32080300 2.31593500
v 3.58810000 -0.71085300 0.56222300
v 3.59986100 -0.02496900 0.81968900
v 3.64367700 0.58928200 0.21123800
v 3.35714000 1.16338000 0.98447800
v 3.24520100 1.76909000 0.25722400
v 3.24520100 1.76909000 0.25722400
v 3.56000100 0.80982700 -0.57757000
v 3.24799000 1.08459900 -1.40535500
v 3.17210400 1.78635700 -0.59676100
v 3.17210400 1.78635700 -0.59676100
v 2.40156200 2.67241100 -0.89498900
v 2.77100800 1.92144500 -1.53037200
v 2.77100800 1.92144500 -1.53037200
v 2.55070900 2.67303400 -0.10963400
v 2.44902100 2.71751400 0.49228600
v 2.37674000 2.51729700 1.27828000
v 2.87992500 2.01546200 1.16849200
v 2.87992500 2.01546200 1.16849200
v 2.67072700 1.77777600 1.82620800
v 2.67072700 1.77777600 1.82620800
v 3.05208200 0.90629200 1.86154800
v 2.50688600 1.19276300 2.42495000
v 2.50688600 1.19276300 2.42495000
v 2.50688600 1.19276300 2.42495000
v 1.95616900 0.99440000 2.96269600
v 2.09389100 2.03963100 2.27725500
v 2.09389100 2.03963100 2.27725500
v 2.33505200 0.34014300 2.83641900
v 1.72109600 2.92706000 1.46114000
v 1.25861000 2.52428000 2.40042100
v 1.25861000 2.52428000 2.40042100
v 1.32695800 1.55893900 3.08039900
v 0.51949400 2.27819400 2.86628100
v 0.51949400 2.27819400 2.86628100
v 0.32830100 3.10963600 1.95548900
v -0.12647200 2.62439600 2.59116800
v -0.12647200 2.62439600 2.59116800
v -0.98457300 2.63854200 2.39546400
v -0.98457300 2.63854200 2.39546400
v -0.98457300 2.63854200 2.39546400
v 1.02235100 3.20504300 1.51237200
v 2.11373900 1.73924500 -2.46865900
v 2.11373900 1.73924500 -2.46865900
v 1.78527900 2.53567100 -2.00818900
v 2.61689000 1.42081500 -2.17434100
v 2.61689000 1.42081500 -2.17434100
v 2.61689000 1.42081500 -2.17434100
v 2.87905100 0.36726800 -2.29868800
v 2.87905100 0.36726800 -2.29868800
v 1.75119300 -5.59584200 0.83354200
v 1.75119300 -5.59584200 0.83354200
v 1.35136700 -6.45423800 2.17343500
v 1.35136700 -6.45423800 2.17343500
v 0.68059900 -2.85526900 2.19979000
v 0.68059900 -2.85526900 2.19979000
v 0.20228500 -2.97745600 2.19616100
v 0.20228500 -2.97745600 2.19616100
v 0.20228500 -2.97745600 2.19616100
v 0.20228500 -2.97745600 2.19616100
v 0.64167300 -6.38717000 2.52354600
v -0.14421900 -5.07392300 2.42869300
v -0.45555600 -6.91966600 2.42406600
v -0.91697000 -5.56584300 1.99787700
v -0.91697000 -5.56584300 1.99787700
v -1.04780600 -3.09393400 1.69986000
v -1.04780600 -3.09393400 1.69986000
v -1.80119000 -3.04008400 1.06275500
v -1.80119000 -3.04008400 1.06275500
v -1.80119000 -3.04008400 1.06275500
v -0.79963300 -2.75827500 2.31649900
v -0.79963300 -2.75827500 2.31649900
v -1.67784200 -2.82778800 1.67556900
v -2.36546000 -2.52263000 1.30488000
v -1.20088600 -2.36586100 2.58286100
v -1.20088600 -2.36586100 2.58286100
v -2.14414200 -2.19356600 2.05036200
v -2.14414200 -2.19356600 2.05036200
v -2.79194700 -2.10177500 1.22397200
v -2.79194700 -2.10177500 1.22397200
v -2.05768200 -1.65090600 2.59231200
v -1.69122700 -0.91792400 3.14330900
v -1.22490000 -1.67407900 3.05016700
v -0.75478800 -1.26691500 3.38184200
v -0.34770200 -2.15864300 2.98420000
v -0.34770200 -2.15864300 2.98420000
v 0.14232200 -1.51326400 3.35807700
v -0.17525100 -0.80124900 3.59301800
v -2.16915600 -2.98720600 0.30773000
v -2.16915600 -2.98720600 0.30773000
v -3.13623100 -1.94404500 0.28341000
v -3.13623100 -1.94404500 0.28341000
v -3.50809900 -1.18653600 -0.02303100
v -2.66200700 -2.54803600 -0.11134300
v -3.49247700 -0.78637700 -0.92649600
v -3.20738600 -1.37245200 -1.22196200
v -3.23484800 -0.10553400 -1.82622900
v -3.20613100 0.80745900 -1.66522900
v -3.58115800 -0.04045900 -0.90208700
v -3.00921200 0.03194200 -2.14367300
v -3.00921200 0.03194200 -2.14367300
v -2.53901600 1.37412700 -2.29902100
v -2.53901600 1.37412700 -2.29902100
v -1.78080000 2.26171600 -2.32349500
v -1.78080000 2.26171600 -2.32349500
v -2.62747900 1.77662300 -1.89788800
v -2.01377100 2.68258100 -1.54443300
v -2.61341800 2.22133300 -1.35944200
v -3.15038700 1.45597900 -1.24363000
v -2.37504900 2.71931800 -0.76658500
v -1.46854500 -5.92201800 1.32137900
v -1.81297000 -6.34745600 0.56521000
v -1.99073100 -7.24129700 0.16573700
v -1.60900200 -7.47115900 1.54927600
v -1.60900200 -7.47115900 1.54927600
v -1.41459000 -9.26295100 0.02706500
v -1.41459000 -9.26295100 0.02706500
v -1.41459000 -9.26295100 0.02706500
v -1.41459000 -9.26295100 0.02706500
v -0.14385700 -9.74754900 1.59159500
v -1.12883900 -9.51833200 1.14191300
v -1.12883900 -9.51833200 1.14191300
v -1.12883900 -9.51833200 1.14191300
v -0.68245100 -10.31797300 0.90572900
v -0.68245100 -10.31797300 0.90572900
v -0.81038800 -10.41694200 0.26551300
v -0.81038800 -10.41694200 0.26551300
v -0.81038800 -10.41694200 0.26551300
v -0.04989000 -10.73338000 0.72710700
v -0.04989000 -10.73338000 0.72710700
v -0.04989000 -10.73338000 0.72710700
v -0.04989000 -10.73338000 0.72710700
v -0.20155100 -10.73047000 0.06217100
v -0.20155100 -10.73047000 0.06217100
v -0.20155100 -10.73047000 0.06217100
v -0.20155100 -10.73047000 0.06217100
v -0.20155100 -10.73047000 0.06217100
v 0.25947400 -10.67705100 0.22902600
v 0.25947400 -10.67705100 0.22902600
v 0.25947400 -10.67705100 0.22902600
v 0.88413100 -9.91023600 -0.07566300
v 0.89450700 -10.07281000 0.65250600
v 0.89450700 -10.07281000 0.65250600
v 1.33929700 -8.85286900 -0.43510900
v 1.33929700 -8.85286900 -0.43510900
v 0.72067100 -9.56763300 1.42025600
v 0.72067100 -9.56763300 1.42025600
v 0.72067100 -9.56763300 1.42025600
v 1.81298700 -7.64849100 0.99384600
v 1.12636900 -7.59051300 -0.48916000
v -1.53669400 -6.80106500 -1.04578900
v -1.53669400 -6.80106500 -1.04578900
v -2.94124200 1.45922300 1.68758600
v -1.51049700 -2.59861200 -2.10189000
v -1.51049700 -2.59861200 -2.10189000
v -1.51049700 -2.59861200 -2.10189000
v -1.97400900 -2.21943500 -2.12448000
v -1.97400900 -2.21943500 -2.12448000
v -1.97400900 -2.21943500 -2.12448000
v -1.49805000 -2.60907300 -2.10098100
v -1.49805000 -2.60907300 -2.10098100
v -2.31361900 -1.83844700 -2.15080000
v -2.31361900 -1.83844700 -2.15080000
v -2.48533000 -1.56998100 -2.17128800
v -2.48533000 -1.56998100 -2.17128800
v -2.82048800 -0.84129500 -2.22202800
v -2.82048800 -0.84129500 -2.22202800
v -2.81130500 -0.87949300 -2.21912300
v -2.81130500 -0.87949300 -2.21912300
v -2.56734000 -1.39274700 -2.18571400
v -2.56734000 -1.39274700 -2.18571400
v -2.56734000 -1.39274700 -2.18571400
v 0.08899400 -3.01835000 -2.07293600
v 0.08899400 -3.01835000 -2.07293600
v -0.09047500 -3.01550200 -2.07461100
v -0.09047500 -3.01550200 -2.07461100
v -0.07263800 -3.01549200 -2.07478500
v -0.07263800 -3.01549200 -2.07478500
v -0.07263800 -3.01549200 -2.07478500
v 0.52774400 -2.96480300 -2.07395300
v 0.52774400 -2.96480300 -2.07395300
v 1.32059800 -2.68935500 -2.09338700
v 1.32059800 -2.68935500 -2.09338700
v 1.13175400 -2.82249500 -2.08210800
v 1.13175400 -2.82249500 -2.08210800
v 1.37596600 -2.65262100 -2.09646700
v 1.37596600 -2.65262100 -2.09646700
v 1.37596600 -2.65262100 -2.09646700
v 1.89686200 -2.31710200 -2.11327500
v 1.89686200 -2.31710200 -2.11327500
v 1.89686200 -2.31710200 -2.11327500
v 2.34922800 -1.86162900 -2.14340900
v 2.34922800 -1.86162900 -2.14340900
v 2.40584000 -1.79075000 -2.14849400
v 2.40584000 -1.79075000 -2.14849400
v 2.78446200 -0.91195500 -2.21076600
v 2.78446200 -0.91195500 -2.21076600
v 2.70212700 -1.17483600 -2.19166700
v 2.70212700 -1.17483600 -2.19166700
v 2.43015300 -1.75544500 -2.15113900
v 2.43015300 -1.75544500 -2.15113900
v 2.50495700 -1.59286400 -2.16438400
v 2.50495700 -1.59286400 -2.16438400
v 2.50495700 -1.59286400 -2.16438400
v 2.82420300 -0.52262300 -2.24288700
v 2.82420300 -0.52262300 -2.24288700
v -0.19070300 2.55396000 -2.62206700
v -0.19070300 2.55396000 -2.62206700
v -0.19070300 2.55396000 -2.62206700
v -0.07263600 2.54797300 -2.62262200
v -0.07263600 2.54797300 -2.62262200
v -0.07263600 2.54797300 -2.62262200
v 0.48097200 2.53305200 -2.61318700
v 0.48097200 2.53305200 -2.61318700
v 0.48097200 2.53305200 -2.61318700
v 0.34412300 2.53481200 -2.61728500
v 0.34412300 2.53481200 -2.61728500
v 0.34412300 2.53481200 -2.61728500
v -1.11424900 2.37255400 -2.58206400
v -1.11424900 2.37255400 -2.58206400
v -0.98602500 2.41829600 -2.59198800
v -0.98602500 2.41829600 -2.59198800
v -0.98925400 2.41708500 -2.59178000
v -0.98925400 2.41708500 -2.59178000
v -0.98925400 2.41708500 -2.59178000
v -0.56726400 2.51213000 -2.61290000
v -0.56726400 2.51213000 -2.61290000
v -0.56726400 2.51213000 -2.61290000
v -0.49241600 2.51962200 -2.61576000
v -0.49241600 2.51962200 -2.61576000
v -0.49241600 2.51962200 -2.61576000
v 0.79767700 2.44621500 -2.59586800
v 0.79767700 2.44621500 -2.59586800
v 2.48593000 1.21249500 -2.40564100
v 2.48593000 1.21249500 -2.40564100
v 2.48593000 1.21249500 -2.40564100
v 2.85181700 0.39134900 -2.31986700
v 2.85181700 0.39134900 -2.31986700
v 2.85181700 0.39134900 -2.31986700
v 2.11403400 1.73778400 -2.46916300
v 2.11403400 1.73778400 -2.46916300
v 2.11316200 1.73874400 -2.46929200
v 2.11316200 1.73874400 -2.46929200
v 2.85815000 0.36653700 -2.31757200
v 2.85815000 0.36653700 -2.31757200
v 2.86158000 0.34437000 -2.31566100
v 2.86158000 0.34437000 -2.31566100
v 2.86158000 0.34437000 -2.31566100
v 2.10896200 1.74226000 -2.46982400
v 2.10896200 1.74226000 -2.46982400
v 2.10896200 1.74226000 -2.46982400
v 1.53486400 2.18177000 -2.53902100
v 1.53486400 2.18177000 -2.53902100
v 1.47178600 2.21020000 -2.54444400
v 1.47178600 2.21020000 -2.54444400
v 1.59347600 2.13648600 -2.53233500
v 1.59347600 2.13648600 -2.53233500
v 1.59347600 2.13648600 -2.53233500
v 0.83797100 2.43160000 -2.59332700
v 0.83797100 2.43160000 -2.59332700
v 0.83797100 2.43160000 -2.59332700
v 2.85643500 0.24633400 -2.30848500
v 2.85643500 0.24633400 -2.30848500
v 2.85643500 0.24633400 -2.30848500
v -2.86676800 -0.03442800 -2.29027900
v -2.86676800 -0.03442800 -2.29027900
v -2.82810800 0.24554100 -2.31651300
v -2.82810800 0.24554100 -2.31651300
v -2.82810800 0.24554100 -2.31651300
v -2.68538200 0.71974800 -2.36455100
v -2.68538200 0.71974800 -2.36455100
v -2.68538200 0.71974800 -2.36455100
v -2.68199900 0.73117000 -2.36563700
v -2.68199900 0.73117000 -2.36563700
v -2.35961500 1.39826800 -2.43689800
v -2.35961500 1.39826800 -2.43689800
v -2.35961500 1.39826800 -2.43689800
v -2.51180100 1.17691200 -2.41041400
v -2.51180100 1.17691200 -2.41041400
v -2.51180100 1.17691200 -2.41041400
v -1.96047800 1.80464400 -2.49303500
v -1.96047800 1.80464400 -2.49303500
v -1.96047800 1.80464400 -2.49303500
v -1.79853200 1.97057300 -2.51506900
v -1.79853200 1.97057300 -2.51506900
v -1.79853200 1.97057300 -2.51506900
v -1.63887900 2.08539800 -2.53253500
v -1.63887900 2.08539800 -2.53253500
v -0.53231500 -10.13099700 -0.45414800
v -0.53231500 -10.13099700 -0.45414800
v -0.53231500 -10.13099700 -0.45414800
v -0.52759200 -10.14104600 -0.45124100
v -0.52759200 -10.14104600 -0.45124100
v -0.51921800 -10.14864300 -0.44918700
v -0.51921800 -10.14864300 -0.44918700
v -0.51921800 -10.14864300 -0.44918700
v 0.33979500 -10.06244100 -0.47635300
v 0.33979500 -10.06244100 -0.47635300
v 0.33979500 -10.06244100 -0.47635300
v 0.24538500 -10.11147300 -0.46430100
v 0.24538500 -10.11147300 -0.46430100
v 0.24538500 -10.11147300 -0.46430100
v -0.07263900 -10.10723500 -0.47508700
v -0.07263900 -10.10723500 -0.47508700
v -0.07263900 -10.10723500 -0.47508700
v 0.44011900 -9.95404400 -0.50623300
v 0.44011900 -9.95404400 -0.50623300
v 0.53321900 -9.75972100 -0.56239100
v 0.53321900 -9.75972100 -0.56239100
v 0.53321900 -9.75972100 -0.56239100
v 0.79737500 -8.43537800 -0.95617800
v 0.79737500 -8.43537800 -0.95617800
v 0.79737500 -8.43537800 -0.95617800
v 0.58208200 -7.92838000 -1.11638400
v 0.58208200 -7.92838000 -1.11638400
v 0.58208200 -7.92838000 -1.11638400
v 0.97632500 -6.76481900 -1.45752000
v 0.97632500 -6.76481900 -1.45752000
v 0.98635400 -6.57602700 -1.51448200
v 0.98635400 -6.57602700 -1.51448200
v -0.88528100 -5.88400100 -1.73173600
v -0.88528100 -5.88400100 -1.73173600
v -0.04170200 -6.13375400 -1.67933600
v -0.04170200 -6.13375400 -1.67933600
v -0.07263900 -6.12982900 -1.68145100
v -0.07263900 -6.12982900 -1.68145100
v -0.07263900 -6.12982900 -1.68145100
v 0.98524000 -6.49389700 -1.53942600
v 0.98524000 -6.49389700 -1.53942600
v 0.98524000 -6.49389700 -1.53942600
v 1.08423900 -6.29636800 -1.59638000
v 1.08423900 -6.29636800 -1.59638000
v 1.08423900 -6.29636800 -1.59638000
v 1.06037900 -6.08825900 -1.66021300
v 1.06037900 -6.08825900 -1.66021300
v 1.06037900 -6.08825900 -1.66021300
v -0.96696200 -6.37844900 -1.57932700
v -0.96696200 -6.37844900 -1.57932700
v -1.02332700 -8.14067600 -1.04315300
v -1.02332700 -8.14067600 -1.04315300
v -1.02332700 -8.14067600 -1.04315300
v -0.88795500 -9.01380000 -0.78237500
v -0.88795500 -9.01380000 -0.78237500
v -0.88795500 -9.01380000 -0.78237500
v -1.03301400 -2.87591300 -2.07921500
v -1.03301400 -2.87591300 -2.07921500
v -1.12676400 -2.84053000 -2.08179000
v -1.12676400 -2.84053000 -2.08179000
v -1.39719100 -2.67608200 -2.09536000
v -1.39719100 -2.67608200 -2.09536000
vn -0.91087932 -0.18695270 -0.36789612
vn -0.60768875 -0.08671472 -0.78942697
vn -0.63260494 -0.69288086 -0.34601605
vn -0.97320757 -0.01686514 -0.22930894
vn -0.69263380 -0.69545573 -0.19131059
vn -0.97944933 -0.14598442 -0.13916740
vn -0.60768875 -0.08671472 -0.78942697
vn -0.86240590 -0.12159119 -0.49139765
vn -0.11396254 -0.10752193 -0.98764952
vn -0.60768875 -0.08671472 -0.78942697
vn -0.30347974 -0.76540435 -0.56749999
vn 0.02131743 -0.08433403 -0.99620949
vn -0.45790927 -0.72253362 -0.51794234
vn -0.62289290 -0.66639897 -0.40977659
vn -0.61895756 -0.50340459 -0.60288918
vn -0.73939793 -0.63540744 -0.22259400
vn -0.86114618 -0.46590503 -0.20337099
vn -0.69160315 -0.44169233 -0.57148313
vn -0.80502053 -0.41563946 -0.42330343
vn -0.74400944 -0.56766066 -0.35243627
vn -0.83739397 -0.24377738 -0.48922789
vn -0.71720060 -0.23454939 -0.65620871
vn 0.02813955 -0.08222946 -0.99621608
vn 0.02783479 -0.78995867 -0.61252797
vn 0.37680589 -0.72932377 -0.57105530
vn 0.54050976 -0.06403524 -0.83889730
vn 0.03847626 -0.07680508 -0.99630345
vn 0.49327109 -0.72400220 -0.48218715
vn 0.64111709 -0.60292397 -0.47481741
vn 0.76063080 -0.57439756 -0.30250327
vn 0.71970235 -0.67255354 -0.17233763
vn 0.48025365 -0.83295540 -0.27484856
vn 0.55065899 -0.06594934 -0.83212100
vn 0.97251747 -0.04724258 -0.22798665
vn 0.47940021 -0.73851043 -0.47410736
vn 0.60705487 -0.11746668 -0.78593000
vn 0.02583722 -0.07828452 -0.99659619
vn 0.94149812 -0.31613957 0.11677783
vn 0.60656610 -0.13328880 -0.78378037
vn 0.69810500 -0.71552249 0.02601865
vn 0.45837189 -0.85292746 -0.24981985
vn 0.97629472 -0.21634083 0.00672756
vn 0.77717690 -0.61375516 0.13892686
vn 0.94109567 -0.04831271 0.33467123
vn 0.58437406 -0.75114099 0.30707357
vn 0.95684319 -0.07249013 -0.28141837
vn 0.64658741 -0.73904764 0.18903254
vn 0.93579852 -0.31976257 0.14843529
vn 0.85127988 -0.51362357 -0.10730045
vn 0.95116134 -0.30715454 -0.03079284
vn 0.91499496 -0.25306426 -0.31423352
vn 0.99036090 -0.04738645 -0.13015303
vn 0.92251932 0.04101325 -0.38376557
vn 0.83319742 -0.14597281 -0.53336104
vn 0.81727778 -0.41168974 -0.40319796
vn -0.27480614 0.63564866 -0.72140999
vn -0.36751604 0.72290399 -0.58509981
vn -0.39928184 0.76272242 -0.50875192
vn -0.12526787 0.86529014 -0.48536681
vn -0.19799540 0.74047663 -0.64225555
vn 0.07816013 0.79890221 -0.59636084
vn 0.03075499 0.67487101 -0.73729455
vn 0.31758486 0.79887659 -0.51081900
vn 0.01955782 0.90549869 -0.42389811
vn -0.45456358 0.83803139 -0.30178691
vn -0.16475833 0.93920211 -0.30125418
vn -0.01888928 0.98086649 -0.19376305
vn 0.26282605 0.92776484 -0.26490541
vn 0.45216015 0.88698256 -0.09387829
vn 0.52230020 0.78384435 -0.33584301
vn 0.17016031 0.98537466 0.00906915
vn 0.19856702 0.93924838 0.27997075
vn 0.42659743 0.89712570 0.11480469
vn -0.06359554 0.99320296 0.09748585
vn -0.24215067 0.96920209 -0.04483705
vn -0.40874722 0.89817548 -0.16188424
vn -0.06105044 0.93016248 0.36203674
vn -0.23203837 0.94232661 0.24120271
vn -0.41962663 0.87620333 0.23702576
vn -0.30780197 0.83083754 0.46364526
vn -0.47340768 0.75159157 0.45934222
vn -0.17366282 0.84328435 0.50863812
vn -0.51937254 0.85221433 -0.06311026
vn -0.37287556 0.92383130 0.08659988
vn -0.54225899 0.81266299 0.21338709
vn -0.64833466 0.64992344 0.39656234
vn -0.70691695 0.70718262 -0.01269532
vn -0.74912042 0.64044674 0.16925298
vn -0.87187996 0.41649471 0.25759948
vn -0.88675958 0.46115002 0.03159267
vn -0.96892777 0.19385404 -0.15362155
vn -0.84629132 0.51028265 -0.15297915
vn -0.97605238 0.19816022 0.08974560
vn -0.92117673 0.16923608 0.35041772
vn -0.99672489 -0.06467933 0.04853953
vn -0.96651744 -0.06201533 0.24899424
vn -0.90137131 -0.30291123 0.30947465
vn -0.89044849 -0.02618353 0.45433017
vn -0.72747825 -0.13648264 0.67241942
vn -0.84408226 -0.03059361 0.53534023
vn -0.69544476 0.16479941 0.69942672
vn -0.79723943 0.21268051 0.56495690
vn -0.64117934 -0.18300842 0.74524961
vn -0.70641960 -0.50307589 0.49788152
vn -0.84282171 -0.30210409 0.44540396
vn -0.69737469 -0.32646108 0.63803739
vn -0.62454574 0.06142006 0.77856932
vn -0.74539698 0.07383889 0.66251879
vn -0.47813853 -0.00668973 0.87825896
vn -0.58099035 0.28969194 0.76061081
vn -0.71242306 0.36267267 0.60076778
vn -0.47923078 0.28458624 0.83027016
vn -0.48880084 0.67847875 0.54839797
vn -0.45333207 0.50657989 0.73339406
vn -0.65933921 0.52413695 0.53902899
vn -0.51322609 0.44292868 0.73512800
vn -0.35305469 0.49912347 0.79134578
vn -0.32006138 0.07747891 0.94422335
vn -0.28474516 0.30007301 0.91042649
vn -0.12575893 0.47687131 0.86993014
vn -0.15185156 0.13597164 0.97900603
vn -0.26228604 -0.14629292 0.95383668
vn 0.09573349 0.32989230 0.93915184
vn -0.01399996 -0.02835122 0.99949998
vn 0.06771431 0.16710800 0.98361054
vn 0.21276284 0.04552368 0.97604281
vn 0.49580551 0.00083047 0.86843319
vn 0.37466659 0.18051823 0.90941636
vn 0.15558754 -0.20461329 0.96639843
vn 0.36444334 -0.16146960 0.91711974
vn 0.26623394 -0.39162558 0.88076608
vn 0.53004769 -0.22713422 0.81698194
vn 0.43056571 -0.50049527 0.75107766
vn 0.56872210 -0.39025502 0.72405538
vn 0.70478218 -0.39346974 0.59030809
vn 0.40790597 -0.60913172 0.68012592
vn 0.28658304 -0.75961254 0.58383127
vn 0.18492259 -0.70179331 0.68796060
vn 0.13613101 -0.57764100 0.80485975
vn 0.65357001 -0.64257724 0.39992591
vn 0.53147427 -0.57909357 0.61821173
vn 0.49660556 -0.73941888 0.45457963
vn 0.94758119 -0.04383575 0.31649377
vn 0.61098062 0.10813040 0.78422605
vn 0.49172242 -0.75988552 0.42518590
vn 0.74642076 -0.55429223 0.36826101
vn 0.73586297 -0.43261787 0.52091023
vn 0.79914178 -0.20306257 0.56580739
vn 0.64743808 -0.11080937 0.75401938
vn 0.88395615 -0.35764150 0.30118780
vn 0.87475997 -0.16082415 0.45708925
vn 0.91729321 0.09804391 0.38595409
vn 0.70134535 0.08382283 0.70787600
vn 0.82829121 0.07399180 0.55539075
vn 0.96958916 -0.19254050 0.15107952
vn 0.97671378 -0.00128184 0.21454264
vn 0.98524323 0.15845329 0.06471733
vn 0.91136681 0.31079212 0.26984957
vn 0.79076448 0.61063389 0.04263555
vn 0.92611055 0.36901401 0.07840856
vn 0.96196656 0.22630722 -0.15298819
vn 0.87490375 0.29436272 -0.38456991
vn 0.78708932 0.60013410 -0.14258142
vn 0.90465945 0.38668523 -0.17906930
vn 0.66249354 0.71018506 -0.23820053
vn 0.68261805 0.59963508 -0.41769650
vn 0.82142770 0.40878367 -0.39768385
vn 0.69510756 0.71820545 -0.03172395
vn 0.65217227 0.74360059 0.14740926
vn 0.62663592 0.69735970 0.34787480
vn 0.85034481 0.40373391 0.33750947
vn 0.72965752 0.62224262 0.28357368
vn 0.80845590 0.37226074 0.45587389
vn 0.66561860 0.54276912 0.51220460
vn 0.82785236 0.26320123 0.49536409
vn 0.75719839 0.30233084 0.57900489
vn 0.66903421 0.43177430 0.60494973
vn 0.61790259 0.30571416 0.72438611
vn 0.53367613 0.27930441 0.79823483
vn 0.59583808 0.60105062 0.53264917
vn 0.48858969 0.47138868 0.73421579
vn 0.63032231 0.08303881 0.77187975
vn 0.47360752 0.79210055 0.38506185
vn 0.36316735 0.55360061 0.74942367
vn 0.31592261 0.75442366 0.57535888
vn 0.35390722 0.42768747 0.83176505
vn 0.14308832 0.74571934 0.65071377
vn 0.13562153 0.53848382 0.83165015
vn 0.09544395 0.83823733 0.53688792
vn 0.01330031 0.77396050 0.63309419
vn -0.09439604 0.61380658 0.78379262
vn -0.21773327 0.78323460 0.58235366
vn -0.24254806 0.61669716 0.74890257
vn -0.40605791 0.70296487 0.58391555
vn 0.28520015 0.85901263 0.42515665
vn 0.53931198 0.39468266 -0.74388721
vn 0.59729771 0.55892525 -0.57518520
vn 0.50683229 0.66928077 -0.54330865
vn 0.77691595 0.30007020 -0.55349749
vn 0.63105435 0.36393171 -0.68507234
vn 0.65168545 0.51530345 -0.55656844
vn 0.66750754 0.06842256 -0.74145266
vn 0.80661093 0.10202954 -0.58221026
vn 0.95738796 -0.00732755 0.28871197
vn 0.95031478 -0.05697954 -0.30603130
vn 0.92281237 -0.05987727 0.38056806
vn 0.45112021 -0.10125253 0.88670090
vn 0.32594659 0.11240638 0.93868186
vn 0.21197628 -0.73445031 0.64470831
vn 0.17470670 -0.70434256 0.68802553
vn -0.09418591 -0.77418768 0.62590930
vn 0.02719180 -0.68363895 0.72931365
vn -0.17919179 0.13766409 0.97413495
vn 0.21003088 -0.08873815 0.97365937
vn -0.25448394 0.08861652 0.96300833
vn -0.30988202 -0.13082244 0.94173171
vn -0.55474942 0.07072555 0.82900602
vn -0.78350972 0.03501131 0.62039240
vn -0.54072385 0.09794701 0.83547837
vn -0.29534648 -0.81034476 0.50607492
vn -0.88167901 -0.05976448 0.46804950
vn -0.64220160 0.05815715 0.76432640
vn -0.53097384 -0.78647719 0.31546857
vn -0.17649908 -0.66995340 0.72111754
vn -0.20303032 -0.78409453 0.58649336
vn -0.44599143 -0.76234426 0.46895935
vn -0.64123957 -0.68858573 0.33861704
vn -0.30764616 -0.59107320 0.74564490
vn -0.39318148 -0.71919756 0.57285530
vn -0.58951717 -0.62271888 0.51448100
vn -0.56931357 -0.53376058 0.62528530
vn -0.71487163 -0.61913972 0.32499931
vn -0.84131585 -0.44174856 0.31152184
vn -0.55795577 -0.44231039 0.70217297
vn -0.45371455 -0.25064321 0.85517313
vn -0.33611794 -0.44957733 0.82758985
vn -0.20390057 -0.34856743 0.91483622
vn -0.09326378 -0.56252174 0.82150543
vn -0.07351076 -0.71675443 0.69344016
vn 0.03265598 -0.40999779 0.91150173
vn -0.04991943 -0.21801420 0.97466808
vn -0.96226224 -0.08311688 0.25911959
vn -0.67754105 -0.72418922 0.12840603
vn -0.89296461 -0.44287474 0.08047464
vn -0.75978864 -0.64572889 0.07586448
vn -0.94866674 -0.31625842 -0.00346842
vn -0.73163297 -0.68159448 -0.01192288
vn -0.94596030 -0.21192186 -0.24545515
vn -0.86886921 -0.36703271 -0.33219464
vn -0.87912443 -0.04414153 -0.47454374
vn -0.86472038 0.22247007 -0.45029516
vn -0.97198836 -0.00760651 -0.23490589
vn -0.72469952 -0.03526297 -0.68816214
vn -0.80588521 0.06074697 -0.58894723
vn -0.70593742 0.37363529 -0.60170510
vn -0.60306062 0.32759419 -0.72732382
vn -0.51519190 0.63331990 -0.57748005
vn -0.40396857 0.54547274 -0.73434929
vn -0.70767245 0.48556481 -0.51325093
vn -0.53411999 0.73230697 -0.42242436
vn -0.71243517 0.60103512 -0.36220563
vn -0.85866662 0.39332740 -0.32861099
vn -0.63846507 0.74154087 -0.20610554
vn -0.85822460 0.04818455 0.51100761
vn -0.97494849 0.03721548 0.21929533
vn -0.99408220 -0.09166586 -0.05829187
vn -0.95052553 -0.07364567 0.30179053
vn -0.52565025 -0.19480366 0.82809622
vn -0.92734602 -0.33360105 0.16952789
vn -0.73490874 -0.48312033 -0.47592425
vn -0.80541815 -0.26990497 -0.52768638
vn -0.70868033 -0.39695627 -0.58326487
vn -0.08426009 -0.47776924 0.87443513
vn -0.45518024 -0.34872717 0.81926816
vn -0.92731978 -0.33825092 0.16020094
vn -0.81426575 -0.52665973 0.24413277
vn -0.32645311 -0.58471572 0.74265463
vn -0.69037384 -0.68132014 0.24328341
vn -0.88927533 -0.43929888 0.12730231
vn -0.58710542 -0.78539148 0.19613119
vn -0.64129804 -0.59649367 -0.48263043
vn 0.55011408 -0.74355058 0.38014080
vn -0.45949629 -0.87403865 0.15785943
vn -0.02570536 -0.66048493 0.75039915
vn 0.12691523 -0.99135492 -0.03328581
vn -0.52303192 -0.70566431 -0.47799109
vn 0.12691523 -0.99135492 -0.03328581
vn 0.01689836 -0.65483985 -0.75557873
vn -0.43070687 -0.89755076 0.09430917
vn 0.30442774 -0.73506307 -0.60581022
vn 0.66149696 -0.67152708 -0.33387595
vn 0.12691523 -0.99135492 -0.03328581
vn 0.49555395 -0.85175505 -0.17011649
vn 0.75573386 -0.55255261 -0.35149957
vn 0.86792277 -0.49504564 0.04049529
vn 0.52640442 -0.69770966 0.48590083
vn 0.91367848 -0.20431304 -0.35135142
vn 0.50463682 -0.33699827 -0.79484203
vn 0.50711961 -0.66279366 0.55093944
vn 0.80821705 -0.35574148 0.46929010
vn 0.27314149 -0.42232320 0.86431293
vn 0.97335204 -0.16435778 0.15991349
vn 0.85592725 -0.04530550 -0.51510771
vn -0.57396253 -0.22150608 -0.78835403
vn -0.90684032 -0.01673685 -0.42114191
vn -0.79273731 0.39783481 0.46183874
vn -0.49444736 -0.63948645 -0.58870951
vn -0.00967774 -0.09798696 -0.99514064
vn -0.02858247 -0.09422655 -0.99514039
vn -0.02858264 -0.09422639 -0.99514040
vn -0.55477621 -0.53834704 -0.63435465
vn -0.49444352 -0.63948850 -0.58871051
vn -0.00966123 -0.09799191 -0.99514031
vn -0.46457129 -0.65258831 -0.59858334
vn -0.02858062 -0.09422441 -0.99514065
vn -0.63537188 -0.49357249 -0.59387606
vn -0.70430534 -0.42351721 -0.56972551
vn -0.02858310 -0.09422611 -0.99514042
vn -0.04640917 -0.08683857 -0.99514082
vn -0.71470257 -0.13843209 -0.68559230
vn -0.71943118 -0.34601454 -0.60223975
vn -0.04641528 -0.08683894 -0.99514050
vn -0.02858371 -0.09422597 -0.99514041
vn -0.73034861 -0.38393353 -0.56496545
vn -0.04641657 -0.08683930 -0.99514041
vn 0.00965196 -0.09799192 -0.99514040
vn 0.04401876 -0.75723612 -0.65165620
vn -0.08768518 -0.79835778 -0.59576520
vn -0.00965211 -0.09799196 -0.99514040
vn 0.00965127 -0.09799194 -0.99514041
vn -0.00593833 -0.75723379 -0.65311693
vn -0.00965266 -0.09799194 -0.99514040
vn 0.00965210 -0.09799204 -0.99514039
vn 0.18367055 -0.85019255 -0.49339411
vn 0.00965284 -0.09799186 -0.99514040
vn 0.43419957 -0.67339898 -0.59833481
vn 0.28791824 -0.80074458 -0.52527251
vn 0.00965211 -0.09799406 -0.99514019
vn 0.02858264 -0.09422632 -0.99514041
vn 0.42954150 -0.69570851 -0.57574627
vn 0.00965469 -0.09799118 -0.99514045
vn 0.56041543 -0.59472692 -0.57639781
vn 0.42954140 -0.69570885 -0.57574593
vn 0.02858101 -0.09422435 -0.99514064
vn 0.66295690 -0.58149921 -0.47153666
vn 0.02858663 -0.09423073 -0.99513988
vn 0.02872233 -0.09433324 -0.99512626
vn 0.70371442 -0.55213705 -0.44713611
vn 0.04641477 -0.08683945 -0.99514048
vn 0.79493416 -0.25032057 -0.55264753
vn 0.78503527 -0.33113279 -0.52351762
vn 0.04638772 -0.08682850 -0.99514270
vn 0.02858647 -0.09422794 -0.99514015
vn 0.73302965 -0.48586714 -0.47602590
vn 0.04641409 -0.08683906 -0.99514055
vn 0.75009463 -0.38871080 -0.53503454
vn 0.02858776 -0.09422450 -0.99514043
vn 0.04641591 -0.08683965 -0.99514041
vn 0.74807037 -0.10736176 -0.65487722
vn -0.10161995 0.77931825 -0.61833361
vn -0.00964781 -0.09801006 -0.99513866
vn 0.03075581 0.67486971 -0.73729570
vn 0.00964966 -0.09799257 -0.99514036
vn -0.00964931 -0.09799375 -0.99514025
vn 0.03075525 0.67487009 -0.73729538
vn 0.23442141 0.72602855 -0.64647440
vn 0.03075802 0.67487145 -0.73729402
vn 0.02858605 -0.09422570 -0.99514037
vn 0.03075611 0.67487128 -0.73729426
vn 0.02858807 -0.09422553 -0.99514033
vn 0.00964918 -0.09799270 -0.99514035
vn -0.04641587 -0.08683941 -0.99514043
vn -0.33909208 0.56621584 -0.75127637
vn -0.02830614 -0.09543060 -0.99503355
vn -0.20894749 0.71540423 -0.66673663
vn -0.02856639 -0.09429757 -0.99513413
vn -0.26245577 0.56562595 -0.78178274
vn -0.04641565 -0.08683974 -0.99514042
vn -0.02858976 -0.09422462 -0.99514037
vn -0.19799535 0.74047663 -0.64225555
vn -0.10162500 0.77932281 -0.61832703
vn -0.00964903 -0.09799299 -0.99514033
vn -0.10163253 0.77933215 -0.61831402
vn -0.02859278 -0.09422333 -0.99514040
vn 0.25769571 0.71304359 -0.65204429
vn 0.02859933 -0.09416919 -0.99514534
vn 0.06246627 -0.07611542 -0.99514040
vn 0.63105441 0.36393196 -0.68507216
vn 0.72418945 0.25579038 -0.64040684
vn 0.72419453 0.25579071 -0.64040097
vn 0.06253360 -0.07608486 -0.99513850
vn 0.66499647 0.10129160 -0.73994574
vn 0.60895345 0.36578672 -0.70382936
vn 0.06678946 -0.07304806 -0.99508952
vn 0.49102013 0.40739288 -0.77001966
vn 0.06232004 -0.07622026 -0.99514154
vn 0.06245873 -0.07611890 -0.99514060
vn 0.66713616 0.07395447 -0.74125575
vn 0.75067094 -0.08733132 -0.65487890
vn 0.06248756 -0.07612115 -0.99513862
vn 0.66911045 0.03955780 -0.74210942
vn 0.06243906 -0.07613488 -0.99514062
vn 0.51851938 0.57810739 -0.63002340
vn 0.46420788 0.43803285 -0.76983002
vn 0.43771389 0.63901199 -0.63251105
vn 0.04640204 -0.08686908 -0.99513849
vn 0.04641656 -0.08684067 -0.99514029
vn 0.33810731 0.68924269 -0.64080259
vn 0.51851756 0.57810740 -0.63002489
vn 0.06246639 -0.07611541 -0.99514039
vn 0.04641946 -0.08683985 -0.99514023
vn 0.02858334 -0.09422466 -0.99514055
vn 0.04641592 -0.08683984 -0.99514039
vn 0.29269782 0.69229716 -0.65958519
vn 0.06245935 -0.07611897 -0.99514056
vn 0.04641760 -0.08683886 -0.99514040
vn 0.75067217 -0.08733166 -0.65487745
vn -0.72608942 -0.04237387 -0.68629338
vn -0.04641756 -0.08683914 -0.99514038
vn -0.04642104 -0.08683774 -0.99514034
vn -0.77933001 0.17356728 -0.60209562
vn -0.70956206 0.03202199 -0.70391496
vn -0.06246455 -0.07611594 -0.99514046
vn -0.77932867 0.17357259 -0.60209582
vn -0.04641985 -0.08683798 -0.99514037
vn -0.06245546 -0.07611942 -0.99514077
vn -0.77246513 0.20649978 -0.60054597
vn -0.60306062 0.32759419 -0.72732382
vn -0.06246415 -0.07611778 -0.99514035
vn -0.57588306 0.47356846 -0.66640199
vn -0.76639304 0.23247708 -0.59882895
vn -0.60306062 0.32759419 -0.72732382
vn -0.06246742 -0.07611491 -0.99514036
vn -0.06246655 -0.07611568 -0.99514036
vn -0.57588482 0.47356930 -0.66639987
vn -0.04643064 -0.08683033 -0.99514054
vn -0.57588535 0.47356933 -0.66639939
vn -0.04641744 -0.08683812 -0.99514047
vn -0.44745365 0.51044280 -0.73432512
vn -0.41026226 0.54056938 -0.73448595
vn -0.04643437 -0.08680834 -0.99514228
vn -0.02846159 -0.29009698 -0.95657393
vn -0.73491924 -0.48310598 -0.47592260
vn -0.70868033 -0.39695627 -0.58326487
vn -0.02857776 -0.29013014 -0.95656041
vn -0.65250317 -0.58440703 -0.48239821
vn -0.02857711 -0.29012959 -0.95656059
vn 0.01689760 -0.65483977 -0.75557881
vn -0.52299951 -0.70569060 -0.47798776
vn 0.02855935 -0.29011305 -0.95656614
vn 0.30442168 -0.73506464 -0.60581138
vn 0.55765707 -0.65624118 -0.50829727
vn 0.30442301 -0.73506429 -0.60581112
vn 0.02857392 -0.29012760 -0.95656129
vn 0.01689954 -0.65483998 -0.75557859
vn -0.02857561 -0.29012893 -0.95656084
vn 0.01689869 -0.65483989 -0.75557869
vn 0.02857614 -0.29012893 -0.95656082
vn 0.02857259 -0.29012811 -0.95656118
vn 0.59288753 -0.58659691 -0.55171410
vn 0.50463682 -0.33699827 -0.79484203
vn 0.02857300 -0.29012857 -0.95656103
vn 0.63489821 -0.47929578 -0.60595364
vn 0.02857590 -0.29012858 -0.95656094
vn 0.50463682 -0.33699827 -0.79484203
vn 0.72652245 0.09339757 -0.68076576
vn 0.72652238 0.09339763 -0.68076583
vn 0.78744991 -0.40343312 -0.46600897
vn 0.02857542 -0.29012893 -0.95656084
vn 0.02857788 -0.29012991 -0.95656047
vn 0.93200907 -0.19150943 -0.30770639
vn 0.95762928 -0.10249448 -0.26914873
vn 0.02858649 -0.29013220 -0.95655952
vn -0.13557031 -0.09551514 -0.98615290
vn -0.02857533 -0.29013032 -0.95656043
vn 0.02858094 -0.29012853 -0.95656080
vn 0.02607919 -0.05829747 -0.99795856
vn -0.02857554 -0.29012923 -0.95656075
vn 0.07279954 0.03675743 -0.99666901
vn 0.02858572 -0.29012815 -0.95656077
vn 0.95684323 -0.07249143 -0.28141789
vn 0.02857561 -0.29012925 -0.95656074
vn 0.89648390 -0.38720380 0.21538300
vn 0.89648356 -0.38720371 0.21538459
vn 0.02857476 -0.29012865 -0.95656095
vn 0.59092892 -0.17387841 -0.78776222
vn 0.02020190 -0.07016534 -0.99733079
vn 0.59092897 -0.17387844 -0.78776217
vn 0.02857477 -0.29012855 -0.95656098
vn -0.55628396 -0.22238765 -0.80068214
vn -0.02857564 -0.29012927 -0.95656073
vn -0.75821937 -0.29171295 -0.58310114
vn -0.02857470 -0.29012863 -0.95656096
vn -0.57396269 -0.22150580 -0.78835399
vn -0.75821932 -0.29171300 -0.58310118
vn -0.70868033 -0.39695627 -0.58326487
vn -0.02857437 -0.29012902 -0.95656085
vn -0.16910658 -0.78354479 -0.59788003
vn -0.00965205 -0.09799523 -0.99514008
vn -0.33949652 -0.70980350 -0.61718807
vn -0.00965165 -0.09799285 -0.99514032
vn -0.00975691 -0.09816079 -0.99512274
vn -0.40011951 -0.68663257 -0.60699266
vt 0.03457200 0.93063900
vt 0.87789300 0.83818200
vt 0.67868400 0.95033100
vt 0.02391700 0.94948000
vt 0.67843600 0.94658300
vt 0.03085700 0.93061000
vt 0.85890700 0.84595700
vt 0.03512600 0.94594000
vt 0.85890700 0.84595700
vt 0.87684700 0.84491000
vt 0.67410600 0.95747100
vt 0.87684700 0.84491000
vt 0.67654200 0.95659200
vt 0.68136100 0.95306000
vt 0.82249300 0.95949900
vt 0.68284500 0.94596900
vt 0.38388900 0.93026300
vt 0.81984700 0.96261300
vt 0.37872000 0.93339500
vt 0.68373800 0.95155500
vt 0.37625800 0.93943200
vt 0.81370700 0.96429500
vt 0.87568600 0.85297600
vt 0.66644900 0.96007000
vt 0.65893500 0.96262600
vt 0.87762300 0.86094300
vt 0.87762300 0.86094300
vt 0.65399400 0.96347500
vt 0.15209400 0.49703300
vt 0.14699300 0.49964500
vt 0.14606400 0.49588200
vt 0.64977500 0.95882200
vt 0.87789300 0.86331200
vt 0.15180700 0.49440100
vt 0.65620300 0.96203300
vt 0.86384900 0.86132400
vt 0.86384900 0.86132400
vt 0.15126400 0.47953900
vt 0.86298100 0.86325900
vt 0.14114100 0.49236600
vt 0.65021700 0.95307100
vt 0.14114100 0.49236600
vt 0.13570900 0.49857300
vt 0.13578300 0.49233000
vt 0.98702000 0.95290900
vt 0.13578300 0.49233000
vt 0.13578300 0.49233000
vt 0.13578300 0.49233000
vt 0.14225100 0.50187500
vt 0.13991800 0.50696800
vt 0.14700900 0.50835100
vt 0.14202300 0.51342000
vt 0.14824900 0.51579700
vt 0.15201500 0.51084100
vt 0.14970000 0.50450900
vt 0.79022100 0.95666100
vt 0.37805000 0.96406600
vt 0.38292300 0.96733700
vt 0.95994200 0.22937600
vt 0.78621700 0.95627600
vt 0.96461300 0.22212100
vt 0.78598400 0.94804300
vt 0.96299400 0.21581400
vt 0.95911600 0.22296000
vt 0.38828400 0.96713300
vt 0.95424200 0.23089800
vt 0.95341100 0.22305300
vt 0.95677900 0.21752300
vt 0.95337700 0.21158200
vt 0.95985400 0.21030600
vt 0.94935500 0.21858600
vt 0.94303800 0.21549100
vt 0.94875900 0.21147900
vt 0.94615000 0.22303700
vt 0.94909400 0.22914600
vt 0.39397600 0.96802000
vt 0.93948100 0.22145100
vt 0.94143800 0.22647300
vt 0.40188400 0.96659900
vt 0.93547500 0.22726200
vt 0.40648000 0.96074500
vt 0.93581200 0.22204900
vt 0.39431600 0.96429400
vt 0.94730000 0.23254100
vt 0.40031900 0.96115900
vt 0.40395000 0.95627700
vt 0.39430700 0.95828000
vt 0.39796700 0.95599000
vt 0.39915300 0.94929200
vt 0.39423300 0.95136300
vt 0.38844800 0.94488400
vt 0.39021200 0.95333300
vt 0.39429200 0.94423400
vt 0.40047700 0.94287000
vt 0.39238000 0.93852500
vt 0.39773600 0.93808900
vt 0.39791500 0.93276700
vt 0.40211800 0.93834200
vt 0.86482300 0.92860900
vt 0.40545200 0.93785600
vt 0.85809300 0.92826200
vt 0.40682500 0.94420700
vt 0.86685800 0.93325100
vt 0.67569100 0.92826200
vt 0.40345400 0.93228100
vt 0.87133200 0.93101500
vt 0.86089700 0.93206200
vt 0.41038100 0.94171500
vt 0.86187400 0.93648700
vt 0.85540400 0.93173500
vt 0.41069400 0.94701800
vt 0.85512100 0.93499300
vt 0.41006200 0.95555400
vt 0.84735800 0.93391600
vt 0.40812500 0.95260700
vt 0.84990800 0.93060100
vt 0.84913100 0.93749600
vt 0.85899600 0.94014700
vt 0.85390800 0.93943000
vt 0.84875000 0.94236500
vt 0.85742200 0.94323700
vt 0.86449000 0.94231200
vt 0.85166300 0.94877900
vt 0.86017200 0.94795600
vt 0.85538600 0.94905000
vt 0.85778900 0.95235900
vt 0.85751400 0.95975400
vt 0.85357500 0.95638700
vt 0.86384600 0.95254100
vt 0.86170800 0.95738300
vt 0.86812100 0.95569900
vt 0.86274000 0.96192800
vt 0.86986600 0.96040500
vt 0.86589600 0.96456700
vt 0.12313400 0.50315900
vt 0.87471200 0.95935000
vt 0.97671300 0.95830400
vt 0.97023900 0.95795800
vt 0.87330000 0.95392500
vt 0.12922000 0.49585200
vt 0.87345800 0.96489200
vt 0.98383700 0.95864100
vt 0.13124100 0.49251500
vt 0.44680500 0.92663300
vt 0.98268400 0.95543300
vt 0.13077400 0.49968100
vt 0.12755900 0.50195900
vt 0.12321800 0.50872400
vt 0.86025200 0.96622600
vt 0.13164800 0.50487800
vt 0.12806900 0.50950900
vt 0.12928600 0.51608200
vt 0.85405700 0.96622600
vt 0.12383700 0.51494500
vt 0.13519200 0.50938600
vt 0.13330600 0.51382000
vt 0.13713500 0.51811100
vt 0.13207500 0.52137500
vt 0.95244300 0.19787900
vt 0.13679700 0.52551700
vt 0.14234500 0.51976400
vt 0.14795400 0.52159300
vt 0.95785900 0.19962600
vt 0.14248300 0.52586500
vt 0.95840800 0.20672700
vt 0.96327400 0.20374900
vt 0.14888800 0.52673500
vt 0.95354300 0.20465800
vt 0.94948500 0.20448400
vt 0.94434600 0.20331500
vt 0.13096400 0.52651000
vt 0.94593800 0.19930000
vt 0.12682400 0.52453800
vt 0.94143800 0.19907000
vt 0.12655700 0.51911800
vt 0.12313400 0.52034100
vt 0.93748300 0.19787900
vt 0.84879600 0.96284500
vt 0.85078800 0.95947700
vt 0.93759500 0.20249400
vt 0.84375400 0.95912600
vt 0.85459800 0.96274600
vt 0.94208200 0.20794500
vt 0.84160400 0.95308000
vt 0.93543200 0.20847100
vt 0.84786700 0.95468100
vt 0.93139500 0.21173100
vt 0.84413100 0.94854000
vt 0.93677800 0.21609200
vt 0.93212800 0.21683800
vt 0.84263500 0.94390500
vt 0.93212600 0.22238000
vt 0.84356800 0.93828500
vt 0.41069400 0.96016900
vt 0.94064300 0.21273800
vt 0.79109700 0.93483300
vt 0.96843000 0.20873200
vt 0.96474400 0.21182000
vt 0.15337600 0.52353200
vt 0.79264400 0.93115600
vt 0.96735500 0.20452700
vt 0.79923400 0.92826200
vt 0.15429200 0.51686700
vt 0.13592200 0.47557400
vt 0.13592200 0.47557400
vt 0.12756900 0.46911800
vt 0.44369900 0.90360900
vt 0.44026900 0.92769100
vt 0.97442500 0.95498600
vt 0.97206600 0.95290900
vt 0.65615100 0.93468600
vt 0.87881600 0.95283300
vt 0.43705900 0.92701600
vt 0.43899600 0.90423800
vt 0.43415500 0.91318500
vt 0.43156300 0.90102100
vt 0.42889800 0.91016200
vt 0.01111400 0.93977700
vt 0.42874200 0.92662400
vt 0.66506300 0.93490600
vt 0.01974200 0.92826200
vt 0.42377500 0.92722900
vt 0.67124400 0.93710300
vt 0.87860200 0.94601900
vt 0.66214300 0.93154600
vt 0.66908700 0.93351400
vt 0.67428300 0.93413100
vt 0.87653800 0.94291800
vt 0.66408900 0.92883900
vt 0.67122900 0.92990900
vt 0.87652200 0.93655600
vt 0.67720100 0.93351700
vt 0.39736800 0.92826200
vt 0.87290300 0.93645500
vt 0.86770200 0.93795400
vt 0.87207400 0.94191700
vt 0.86886400 0.94449000
vt 0.87417600 0.94823500
vt 0.65788500 0.92826200
vt 0.86938800 0.95065000
vt 0.86513300 0.94771000
vt 0.02444000 0.92996400
vt 0.67530200 0.94092800
vt 0.39128000 0.92935600
vt 0.68156400 0.93851900
vt 0.38998600 0.93328200
vt 0.67942400 0.94225700
vt 0.38450700 0.93673000
vt 0.38201900 0.93427600
vt 0.37942500 0.94249100
vt 0.38147600 0.94787700
vt 0.38544900 0.94095700
vt 0.80809000 0.96642900
vt 0.37755900 0.94425700
vt 0.37813100 0.95372300
vt 0.79875500 0.96487500
vt 0.37914900 0.96106100
vt 0.79208500 0.96091300
vt 0.38116800 0.95546800
vt 0.38464100 0.96212100
vt 0.38518100 0.95758200
vt 0.38495600 0.95145400
vt 0.38967200 0.96054000
vt 0.01465400 0.94427400
vt 0.01877100 0.94877700
vt 0.02010200 0.95514500
vt 0.01111400 0.95355700
vt 0.42377500 0.89773300
vt 0.01885400 0.96597600
vt 0.14840700 0.98438600
vt 0.01885400 0.96597600
vt 0.83460100 0.84418700
vt 0.43285200 0.88220200
vt 0.42639200 0.88402700
vt 0.01150700 0.96517100
vt 0.14840700 0.97677700
vt 0.42913500 0.87860400
vt 0.14488000 0.97763300
vt 0.01627900 0.97100600
vt 0.14456900 0.98197500
vt 0.14456900 0.98197500
vt 0.14038400 0.97774600
vt 0.14038400 0.97774600
vt 0.43322200 0.87567500
vt 0.14038400 0.97774600
vt 0.14021500 0.98227300
vt 0.14021500 0.98227300
vt 0.82505900 0.85249800
vt 0.14021500 0.98227300
vt 0.14021500 0.98227300
vt 0.14225200 0.44107100
vt 0.13756300 0.98039900
vt 0.13756300 0.98039900
vt 0.14363900 0.44675700
vt 0.13886500 0.44544300
vt 0.13441500 0.97650200
vt 0.14542800 0.45422900
vt 0.83785100 0.86238000
vt 0.13701200 0.97180600
vt 0.13378200 0.44835200
vt 0.43864800 0.88315900
vt 0.13535400 0.46206400
vt 0.14560300 0.46237300
vt 0.85105300 0.84288700
vt 0.02884000 0.95312100
vt 0.40421900 0.94877000
vt 0.67689200 0.95732500
vt 0.22323400 0.04456300
vt 0.21426600 0.04456300
vt 0.20572800 0.04317600
vt 0.82166500 0.95711100
vt 0.67989700 0.95627500
vt 0.22344100 0.04461900
vt 0.67681100 0.95735100
vt 0.19901100 0.04156000
vt 0.81955100 0.95976600
vt 0.81798500 0.96119500
vt 0.19527500 0.04030200
vt 0.17427700 0.03718600
vt 0.81358600 0.96421500
vt 0.81382600 0.96411100
vt 0.17468000 0.03736500
vt 0.19327100 0.03941600
vt 0.81691500 0.96193300
vt 0.18172900 0.03941600
vt 0.25654400 0.04634100
vt 0.66679900 0.96098500
vt 0.66792000 0.96057800
vt 0.24565800 0.04623800
vt 0.25406800 0.04622800
vt 0.66780900 0.96062000
vt 0.24593200 0.04622800
vt 0.26335900 0.04627900
vt 0.66408200 0.96199300
vt 0.27594400 0.04508500
vt 0.65924600 0.96387200
vt 0.66037000 0.96340300
vt 0.27284400 0.04577800
vt 0.28565100 0.04489600
vt 0.65891600 0.96400800
vt 0.27684900 0.04489600
vt 0.15443500 0.49829700
vt 0.65577600 0.96522100
vt 0.29484000 0.04386400
vt 0.15420700 0.50169200
vt 0.30355500 0.04201400
vt 0.30470800 0.04170200
vt 0.15418300 0.50220900
vt 0.32669500 0.03787800
vt 0.15410800 0.50833700
vt 0.15410600 0.50653000
vt 0.32366400 0.03905100
vt 0.30522500 0.04153900
vt 0.15417500 0.50246300
vt 0.31794400 0.04072600
vt 0.15416900 0.50360100
vt 0.30705600 0.04072600
vt 0.33006600 0.03590600
vt 0.15419200 0.51094400
vt 0.96580000 0.22479200
vt 0.23570100 0.01262300
vt 0.78834700 0.95085300
vt 0.26247800 0.01258900
vt 0.23752200 0.01258900
vt 0.78825300 0.95007300
vt 0.96673900 0.22064600
vt 0.78772700 0.94643100
vt 0.29565800 0.01316800
vt 0.78786900 0.94732900
vt 0.29364600 0.01291600
vt 0.26885400 0.01291600
vt 0.17411900 0.01507900
vt 0.79058100 0.95669300
vt 0.19954700 0.01447000
vt 0.79013600 0.95590600
vt 0.19950400 0.01448300
vt 0.79014700 0.95592600
vt 0.17549600 0.01448300
vt 0.20530600 0.01318600
vt 0.78904600 0.95327100
vt 0.96519800 0.22697600
vt 0.23112200 0.01301000
vt 0.96532400 0.22654200
vt 0.20637800 0.01301000
vt 0.96711700 0.21850000
vt 0.29994300 0.01423200
vt 0.35644100 0.02591200
vt 0.79413200 0.93179700
vt 0.15504700 0.52212900
vt 0.15444400 0.51700900
vt 0.35276900 0.03117900
vt 0.79910500 0.92846900
vt 0.79110600 0.93482900
vt 0.35714700 0.02201200
vt 0.79110100 0.93483600
vt 0.35714600 0.02200400
vt 0.35260200 0.03132000
vt 0.79926000 0.92839900
vt 0.15442200 0.51670700
vt 0.35242600 0.03143700
vt 0.79940200 0.92835200
vt 0.35713000 0.02197100
vt 0.96843000 0.20877000
vt 0.79108200 0.93486800
vt 0.96790900 0.21334300
vt 0.33219000 0.01772200
vt 0.33153900 0.01738900
vt 0.96784400 0.21379800
vt 0.96796500 0.21287500
vt 0.35484200 0.01813300
vt 0.33265800 0.01813300
vt 0.30047200 0.01438800
vt 0.32452800 0.01438800
vt 0.96716400 0.21821900
vt 0.35140600 0.03187800
vt 0.33609400 0.03187800
vt 0.15440400 0.51605500
vt 0.80834800 0.96543300
vt 0.16778200 0.03299600
vt 0.16627200 0.03138500
vt 0.37671100 0.94620500
vt 0.80646900 0.96549700
vt 0.14773400 0.02843500
vt 0.37695100 0.94948000
vt 0.16476600 0.02843500
vt 0.14766200 0.02836800
vt 0.37695700 0.94955900
vt 0.79838000 0.96373800
vt 0.14497900 0.02399300
vt 0.37730500 0.95448800
vt 0.37719500 0.95273200
vt 0.80000400 0.96448300
vt 0.14533000 0.02561900
vt 0.14576100 0.02054600
vt 0.37749200 0.95803300
vt 0.16673900 0.02054600
vt 0.37757400 0.95947600
vt 0.16773500 0.01919300
vt 0.79399200 0.96071600
vt 0.79305800 0.95980100
vt 0.16907100 0.01812000
vt 0.24504300 0.09059800
vt 0.14164300 0.98607200
vt 0.82904200 0.85016600
vt 0.24509700 0.09065800
vt 0.14161400 0.98604700
vt 0.24518900 0.09070100
vt 0.82892600 0.85025600
vt 0.14156200 0.98602000
vt 0.25446700 0.09013800
vt 0.13603600 0.98470000
vt 0.14669700 0.44542900
vt 0.13664600 0.98479300
vt 0.25343400 0.09038800
vt 0.82930700 0.85532800
vt 0.25000000 0.09016400
vt 0.82928100 0.85321400
vt 0.25000000 0.09016400
vt 0.25559100 0.08951900
vt 0.14679700 0.44623800
vt 0.83170400 0.85717300
vt 0.25669000 0.08835500
vt 0.14705400 0.44761600
vt 0.26054700 0.08019300
vt 0.84059000 0.85867600
vt 0.14913100 0.45669400
vt 0.15020500 0.45990100
vt 0.15020500 0.45990100
vt 0.25822600 0.07687200
vt 0.26458900 0.06980100
vt 0.15188600 0.46801400
vt 0.15220700 0.46928400
vt 0.26498200 0.06862100
vt 0.85733400 0.84701400
vt 0.23776900 0.06411700
vt 0.25043100 0.06520400
vt 0.85581400 0.85266400
vt 0.25000000 0.06516000
vt 0.85583500 0.85245700
vt 0.25000000 0.06516000
vt 0.15235100 0.46983300
vt 0.26507800 0.06810400
vt 0.15235100 0.46983300
vt 0.15260800 0.47123700
vt 0.26681500 0.06692300
vt 0.85491900 0.86017600
vt 0.85630400 0.85997800
vt 0.85630400 0.85997800
vt 0.26678600 0.06560000
vt 0.85401800 0.84656600
vt 0.23715900 0.06727600
vt 0.02749400 0.95983000
vt 0.23820800 0.07839000
vt 0.84224300 0.84652700
vt 0.02479500 0.96433100
vt 0.83643800 0.84759200
vt 0.24052500 0.08379500
vt 0.67381900 0.95837600
vt 0.23098100 0.04595600
vt 0.67441400 0.95816400
vt 0.22948900 0.04579700
vt 0.22509000 0.04496400
vt 0.67615800 0.95757100
f 267/267/267 266/266/266 269/269/269
f 273/273/273 216/216/216 268/268/268
f 275/275/275 267/267/267 269/269/269
f 268/268/268 274/274/274 273/273/273
f 274/274/274 277/277/277 273/273/273
f 278/278/278 276/276/276 280/280/280
f 275/275/275 269/269/269 279/279/279
f 281/281/281 443/443/443 446/446/446
f 449/449/449 281/281/281 446/446/446
f 278/278/278 280/280/280 283/283/283
f 280/280/280 289/289/289 283/283/283
f 293/293/293 453/453/453 451/451/451
f 288/288/288 457/457/457 455/455/455
f 285/285/285 287/287/287 292/292/292
f 294/294/294 452/452/452 460/460/460
f 295/295/295 291/291/291 294/294/294
f 282/282/282 293/293/293 296/296/296
f 295/295/295 294/294/294 297/297/297
f 295/295/295 297/297/297 302/302/302
f 300/300/300 295/295/295 302/302/302
f 299/299/299 282/282/282 296/296/296
f 300/300/300 302/302/302 206/206/206
f 273/273/273 284/284/284 301/301/301
f 301/301/301 207/207/207 214/214/214
f 301/301/301 214/214/214 273/273/273
f 294/294/294 463/463/463 297/297/297
f 465/465/465 298/298/298 461/461/461
f 479/479/479 9/9/9 477/477/477
f 37/37/37 477/477/477 9/9/9
f 39/39/39 488/488/488 36/36/36
f 9/9/9 474/474/474 490/490/490
f 304/304/304 490/490/490 494/494/494
f 271/271/271 492/492/492 495/495/495
f 496/496/496 444/444/444 272/272/272
f 266/266/266 305/305/305 271/271/271
f 273/273/273 277/277/277 284/284/284
f 214/214/214 216/216/216 273/273/273
f 281/281/281 270/270/270 443/443/443
f 449/449/449 286/286/286 281/281/281
f 293/293/293 290/290/290 453/453/453
f 288/288/288 448/448/448 457/457/457
f 294/294/294 291/291/291 452/452/452
f 294/294/294 460/460/460 463/463/463
f 479/479/479 474/474/474 9/9/9
f 37/37/37 487/487/487 477/477/477
f 39/39/39 486/486/486 488/488/488
f 304/304/304 9/9/9 490/490/490
f 271/271/271 305/305/305 492/492/492
f 4/4/4 1/1/1 8/8/8
f 6/6/6 1/1/1 4/4/4
f 5/5/5 14/14/14 3/3/3
f 10/10/10 7/7/7 2/2/2
f 3/3/3 13/13/13 11/11/11
f 3/3/3 14/14/14 13/13/13
f 13/13/13 312/312/312 307/307/307
f 316/316/316 311/311/311 15/15/15
f 5/5/5 16/16/16 14/14/14
f 16/16/16 20/20/20 14/14/14
f 18/18/18 316/316/316 15/15/15
f 320/320/320 321/321/321 22/22/22
f 22/22/22 324/324/324 317/317/317
f 24/24/24 331/331/331 327/327/327
f 24/24/24 327/327/327 334/334/334
f 25/25/25 336/336/336 28/28/28
f 25/25/25 334/334/334 337/337/337
f 28/28/28 340/340/340 343/343/343
f 345/345/345 29/29/29 342/342/342
f 345/345/345 30/30/30 29/29/29
f 29/29/29 30/30/30 31/31/31
f 32/32/32 35/35/35 28/28/28
f 35/35/35 25/25/25 28/28/28
f 26/26/26 33/33/33 36/36/36
f 36/36/36 33/33/33 39/39/39
f 42/42/42 38/38/38 34/34/34
f 41/41/41 35/35/35 32/32/32
f 38/38/38 42/42/42 48/48/48
f 43/43/43 40/40/40 49/49/49
f 43/43/43 47/47/47 40/40/40
f 40/40/40 31/31/31 49/49/49
f 43/43/43 49/49/49 50/50/50
f 51/51/51 49/49/49 30/30/30
f 49/49/49 31/31/31 30/30/30
f 50/50/50 49/49/49 51/51/51
f 30/30/30 55/55/55 51/51/51
f 52/52/52 50/50/50 51/51/51
f 53/53/53 52/52/52 51/51/51
f 51/51/51 54/54/54 53/53/53
f 51/51/51 55/55/55 54/54/54
f 350/350/350 55/55/55 351/351/351
f 55/55/55 348/348/348 354/354/354
f 55/55/55 356/356/356 351/351/351
f 359/359/359 54/54/54 350/350/350
f 62/62/62 369/369/369 365/365/365
f 377/377/377 56/56/56 375/375/375
f 60/60/60 375/375/375 56/56/56
f 61/61/61 383/383/383 381/381/381
f 61/61/61 385/385/385 366/366/366
f 64/64/64 63/63/63 61/61/61
f 64/64/64 61/61/61 59/59/59
f 66/66/66 64/64/64 59/59/59
f 66/66/66 67/67/67 64/64/64
f 68/68/68 63/63/63 64/64/64
f 64/64/64 67/67/67 68/68/68
f 69/69/69 68/68/68 71/71/71
f 70/70/70 68/68/68 69/69/69
f 68/68/68 70/70/70 63/63/63
f 67/67/67 71/71/71 68/68/68
f 74/74/74 71/71/71 67/67/67
f 71/71/71 72/72/72 73/73/73
f 71/71/71 74/74/74 72/72/72
f 73/73/73 69/69/69 71/71/71
f 74/74/74 75/75/75 78/78/78
f 67/67/67 75/75/75 74/74/74
f 74/74/74 77/77/77 72/72/72
f 77/77/77 74/74/74 78/78/78
f 82/82/82 78/78/78 80/80/80
f 79/79/79 85/85/85 81/81/81
f 78/78/78 82/82/82 77/77/77
f 84/84/84 78/78/78 75/75/75
f 83/83/83 85/85/85 79/79/79
f 81/81/81 85/85/85 86/86/86
f 83/83/83 87/87/87 85/85/85
f 86/86/86 85/85/85 88/88/88
f 87/87/87 88/88/88 85/85/85
f 89/89/89 86/86/86 88/88/88
f 90/90/90 89/89/89 88/88/88
f 90/90/90 88/88/88 87/87/87
f 91/91/91 90/90/90 92/92/92
f 93/93/93 90/90/90 91/91/91
f 92/92/92 90/90/90 87/87/87
f 93/93/93 89/89/89 90/90/90
f 94/94/94 89/89/89 93/93/93
f 95/95/95 93/93/93 91/91/91
f 93/93/93 96/96/96 94/94/94
f 95/95/95 96/96/96 93/93/93
f 95/95/95 97/97/97 96/96/96
f 97/97/97 98/98/98 96/96/96
f 98/98/98 94/94/94 96/96/96
f 94/94/94 98/98/98 100/100/100
f 97/97/97 100/100/100 98/98/98
f 100/100/100 102/102/102 94/94/94
f 102/102/102 100/100/100 108/108/108
f 103/103/103 107/107/107 99/99/99
f 99/99/99 106/106/106 103/103/103
f 100/100/100 97/97/97 105/105/105
f 109/109/109 112/112/112 107/107/107
f 107/107/107 103/103/103 109/109/109
f 110/110/110 107/107/107 112/112/112
f 101/101/101 107/107/107 110/110/110
f 112/112/112 114/114/114 116/116/116
f 112/112/112 117/117/117 114/114/114
f 116/116/116 110/110/110 112/112/112
f 117/117/117 112/112/112 119/119/119
f 109/109/109 118/118/118 112/112/112
f 112/112/112 118/118/118 119/119/119
f 121/121/121 120/120/120 119/119/119
f 119/119/119 120/120/120 117/117/117
f 118/118/118 121/121/121 119/119/119
f 121/121/121 118/118/118 122/122/122
f 124/124/124 121/121/121 122/122/122
f 120/120/120 121/121/121 123/123/123
f 125/125/125 123/123/123 121/121/121
f 124/124/124 125/125/125 121/121/121
f 126/126/126 123/123/123 125/125/125
f 124/124/124 126/126/126 125/125/125
f 124/124/124 129/129/129 126/126/126
f 128/128/128 123/123/123 126/126/126
f 127/127/127 126/126/126 130/130/130
f 126/126/126 127/127/127 128/128/128
f 130/130/130 126/126/126 129/129/129
f 129/129/129 131/131/131 130/130/130
f 130/130/130 131/131/131 133/133/133
f 130/130/130 132/132/132 127/127/127
f 130/130/130 133/133/133 132/132/132
f 133/133/133 141/141/141 134/134/134
f 132/132/132 133/133/133 134/134/134
f 133/133/133 131/131/131 139/139/139
f 139/139/139 136/136/136 133/133/133
f 133/133/133 136/136/136 141/141/141
f 45/45/45 142/142/142 145/145/145
f 142/142/142 137/137/137 145/145/145
f 147/147/147 140/140/140 146/146/146
f 140/140/140 43/43/43 146/146/146
f 43/43/43 140/140/140 47/47/47
f 140/140/140 147/147/147 135/135/135
f 148/148/148 135/135/135 147/147/147
f 151/151/151 148/148/148 147/147/147
f 150/150/150 151/151/151 147/147/147
f 150/150/150 147/147/147 146/146/146
f 154/154/154 148/148/148 151/151/151
f 152/152/152 151/151/151 156/156/156
f 152/152/152 154/154/154 151/151/151
f 151/151/151 155/155/155 156/156/156
f 150/150/150 155/155/155 151/151/151
f 157/157/157 156/156/156 155/155/155
f 156/156/156 157/157/157 152/152/152
f 160/160/160 158/158/158 157/157/157
f 152/152/152 157/157/157 158/158/158
f 155/155/155 52/52/52 157/157/157
f 161/161/161 157/157/157 52/52/52
f 157/157/157 161/161/161 160/160/160
f 53/53/53 161/161/161 52/52/52
f 161/161/161 53/53/53 162/162/162
f 161/161/161 162/162/162 164/164/164
f 164/164/164 160/160/160 161/161/161
f 165/165/165 163/163/163 166/166/166
f 163/163/163 165/165/165 168/168/168
f 167/167/167 164/164/164 162/162/162
f 159/159/159 163/163/163 168/168/168
f 69/69/69 73/73/73 168/168/168
f 165/165/165 69/69/69 168/168/168
f 168/168/168 73/73/73 169/169/169
f 169/169/169 159/159/159 168/168/168
f 169/169/169 73/73/73 170/170/170
f 169/169/169 170/170/170 172/172/172
f 172/172/172 159/159/159 169/169/169
f 172/172/172 170/170/170 174/174/174
f 173/173/173 175/175/175 171/171/171
f 171/171/171 175/175/175 158/158/158
f 160/160/160 171/171/171 158/158/158
f 158/158/158 175/175/175 152/152/152
f 154/154/154 175/175/175 176/176/176
f 152/152/152 175/175/175 154/154/154
f 173/173/173 176/176/176 175/175/175
f 179/179/179 182/182/182 178/178/178
f 178/178/178 181/181/181 179/179/179
f 180/180/180 177/177/177 174/174/174
f 178/178/178 182/182/182 153/153/153
f 182/182/182 149/149/149 153/153/153
f 132/132/132 182/182/182 127/127/127
f 132/132/132 149/149/149 182/182/182
f 179/179/179 127/127/127 182/182/182
f 180/180/180 183/183/183 185/185/185
f 183/183/183 180/180/180 170/170/170
f 186/186/186 181/181/181 184/184/184
f 180/180/180 174/174/174 170/170/170
f 179/179/179 181/181/181 186/186/186
f 123/123/123 128/128/128 186/186/186
f 186/186/186 188/188/188 123/123/123
f 186/186/186 128/128/128 179/179/179
f 184/184/184 188/188/188 186/186/186
f 191/191/191 120/120/120 188/188/188
f 120/120/120 123/123/123 188/188/188
f 185/185/185 189/189/189 187/187/187
f 190/190/190 187/187/187 189/189/189
f 189/189/189 82/82/82 190/190/190
f 193/193/193 120/120/120 191/191/191
f 192/192/192 190/190/190 82/82/82
f 192/192/192 82/82/82 80/80/80
f 120/120/120 193/193/193 117/117/117
f 194/194/194 81/81/81 113/113/113
f 117/117/117 193/193/193 114/114/114
f 185/185/185 195/195/195 189/189/189
f 77/77/77 82/82/82 189/189/189
f 189/189/189 72/72/72 77/77/77
f 72/72/72 189/189/189 195/195/195
f 183/183/183 195/195/195 185/185/185
f 183/183/183 72/72/72 195/195/195
f 183/183/183 170/170/170 73/73/73
f 183/183/183 73/73/73 72/72/72
f 127/127/127 179/179/179 128/128/128
f 201/201/201 197/197/197 166/166/166
f 166/166/166 197/197/197 198/198/198
f 70/70/70 166/166/166 198/198/198
f 70/70/70 165/165/165 166/166/166
f 162/162/162 199/199/199 167/167/167
f 199/199/199 390/390/390 389/389/389
f 162/162/162 203/203/203 199/199/199
f 200/200/200 393/393/393 196/196/196
f 393/393/393 395/395/395 196/196/196
f 398/398/398 392/392/392 202/202/202
f 401/401/401 398/398/398 202/202/202
f 395/395/395 404/404/404 196/196/196
f 198/198/198 408/408/408 63/63/63
f 198/198/198 403/403/403 409/409/409
f 63/63/63 414/414/414 385/385/385
f 53/53/53 54/54/54 203/203/203
f 203/203/203 359/359/359 417/417/417
f 53/53/53 203/203/203 162/162/162
f 63/63/63 70/70/70 198/198/198
f 165/165/165 70/70/70 69/69/69
f 155/155/155 50/50/50 52/52/52
f 50/50/50 155/155/155 150/150/150
f 43/43/43 50/50/50 150/150/150
f 150/150/150 146/146/146 43/43/43
f 134/134/134 149/149/149 132/132/132
f 206/206/206 204/204/204 143/143/143
f 204/204/204 44/44/44 143/143/143
f 207/207/207 144/144/144 208/208/208
f 137/137/137 209/209/209 145/145/145
f 209/209/209 138/138/138 210/210/210
f 215/215/215 208/208/208 213/213/213
f 214/214/214 207/207/207 208/208/208
f 208/208/208 215/215/215 214/214/214
f 215/215/215 217/217/217 216/216/216
f 215/215/215 216/216/216 214/214/214
f 215/215/215 219/219/219 217/217/217
f 215/215/215 213/213/213 219/219/219
f 219/219/219 222/222/222 217/217/217
f 226/226/226 223/223/223 220/220/220
f 220/220/220 211/211/211 225/225/225
f 226/226/226 220/220/220 225/225/225
f 226/226/226 227/227/227 223/223/223
f 227/227/227 226/226/226 230/230/230
f 226/226/226 225/225/225 229/229/229
f 226/226/226 229/229/229 230/230/230
f 228/228/228 234/234/234 231/231/231
f 227/227/227 230/230/230 232/232/232
f 232/232/232 230/230/230 104/104/104
f 106/106/106 231/231/231 234/234/234
f 236/236/236 235/235/235 234/234/234
f 235/235/235 103/103/103 234/234/234
f 236/236/236 234/234/234 228/228/228
f 234/234/234 103/103/103 106/106/106
f 238/238/238 236/236/236 228/228/228
f 237/237/237 236/236/236 238/238/238
f 237/237/237 235/235/235 236/236/236
f 240/240/240 237/237/237 238/238/238
f 238/238/238 139/139/139 240/240/240
f 224/224/224 238/238/238 228/228/228
f 225/225/225 211/211/211 239/239/239
f 139/139/139 238/238/238 212/212/212
f 131/131/131 240/240/240 139/139/139
f 131/131/131 129/129/129 240/240/240
f 241/241/241 240/240/240 129/129/129
f 237/237/237 240/240/240 241/241/241
f 241/241/241 122/122/122 237/237/237
f 241/241/241 124/124/124 122/122/122
f 129/129/129 124/124/124 241/241/241
f 122/122/122 235/235/235 237/237/237
f 109/109/109 235/235/235 122/122/122
f 235/235/235 109/109/109 103/103/103
f 105/105/105 97/97/97 233/233/233
f 97/97/97 244/244/244 233/233/233
f 227/227/227 232/232/232 243/243/243
f 232/232/232 245/245/245 243/243/243
f 246/246/246 244/244/244 97/97/97
f 17/17/17 244/244/244 246/246/246
f 247/247/247 243/243/243 245/245/245
f 247/247/247 245/245/245 16/16/16
f 5/5/5 247/247/247 16/16/16
f 247/247/247 5/5/5 243/243/243
f 246/246/246 97/97/97 95/95/95
f 17/17/17 246/246/246 249/249/249
f 246/246/246 248/248/248 249/249/249
f 248/248/248 246/246/246 95/95/95
f 248/248/248 250/250/250 249/249/249
f 249/249/249 21/21/21 19/19/19
f 249/249/249 250/250/250 21/21/21
f 17/17/17 249/249/249 19/19/19
f 250/250/250 254/254/254 21/21/21
f 248/248/248 252/252/252 250/250/250
f 250/250/250 251/251/251 254/254/254
f 252/252/252 251/251/251 250/250/250
f 253/253/253 320/320/320 22/22/22
f 422/422/422 418/418/418 253/253/253
f 251/251/251 424/424/424 421/421/421
f 256/256/256 428/428/428 432/432/432
f 427/427/427 255/255/255 431/431/431
f 257/257/257 435/435/435 430/430/430
f 259/259/259 257/257/257 255/255/255
f 251/251/251 259/259/259 255/255/255
f 261/261/261 260/260/260 259/259/259
f 260/260/260 257/257/257 259/259/259
f 262/262/262 261/261/261 259/259/259
f 262/262/262 259/259/259 251/251/251
f 92/92/92 261/261/261 262/262/262
f 251/251/251 91/91/91 262/262/262
f 92/92/92 262/262/262 91/91/91
f 263/263/263 261/261/261 92/92/92
f 263/263/263 260/260/260 261/261/261
f 263/263/263 92/92/92 87/87/87
f 83/83/83 263/263/263 87/87/87
f 263/263/263 83/83/83 65/65/65
f 260/260/260 263/263/263 65/65/65
f 260/260/260 58/58/58 257/257/257
f 65/65/65 58/58/58 260/260/260
f 257/257/257 58/58/58 57/57/57
f 258/258/258 373/373/373 440/440/440
f 440/440/440 439/439/439 258/258/258
f 95/95/95 91/91/91 252/252/252
f 252/252/252 91/91/91 251/251/251
f 95/95/95 252/252/252 248/248/248
f 221/221/221 242/242/242 264/264/264
f 264/264/264 242/242/242 265/265/265
f 242/242/242 6/6/6 265/265/265
f 223/223/223 227/227/227 243/243/243
f 265/265/265 4/4/4 266/266/266
f 267/267/267 265/265/265 266/266/266
f 267/267/267 264/264/264 265/265/265
f 265/265/265 6/6/6 4/4/4
f 217/217/217 268/268/268 216/216/216
f 267/267/267 218/218/218 264/264/264
f 302/302/302 297/297/297 205/205/205
f 206/206/206 302/302/302 204/204/204
f 303/303/303 466/466/466 467/467/467
f 297/297/297 303/303/303 205/205/205
f 471/471/471 303/303/303 468/468/468
f 472/472/472 303/303/303 471/471/471
f 38/38/38 483/483/483 484/484/484
f 205/205/205 481/481/481 46/46/46
f 266/266/266 4/4/4 305/305/305
f 4/4/4 8/8/8 305/305/305
f 218/218/218 221/221/221 264/264/264
f 122/122/122 118/118/118 109/109/109
f 111/111/111 115/115/115 102/102/102
f 306/306/306 115/115/115 86/86/86
f 113/113/113 86/86/86 115/115/115
f 306/306/306 102/102/102 115/115/115
f 102/102/102 306/306/306 94/94/94
f 94/94/94 306/306/306 89/89/89
f 306/306/306 86/86/86 89/89/89
f 86/86/86 113/113/113 81/81/81
f 76/76/76 65/65/65 83/83/83
f 66/66/66 75/75/75 67/67/67
f 23/23/23 37/37/37 9/9/9
f 27/27/27 37/37/37 23/23/23
f 12/12/12 23/23/23 9/9/9
f 328/328/328 11/11/11 498/498/498
f 11/11/11 500/500/500 498/498/498
f 11/11/11 503/503/503 500/500/500
f 13/13/13 314/314/314 503/503/503
f 387/387/387 415/415/415 402/402/402
f 355/355/355 411/411/411 358/358/358
f 339/339/339 412/412/412 353/353/353
f 454/454/454 476/476/476 469/469/469
f 363/363/363 335/335/335 333/333/333
f 497/497/497 478/478/478 447/447/447
f 364/364/364 501/501/501 313/313/313
f 310/310/310 376/376/376 379/379/379
f 419/419/419 438/438/438 325/325/325
f 433/433/433 434/434/434 423/423/423
f 307/307/307 314/314/314 13/13/13
f 13/13/13 14/14/14 312/312/312
f 18/18/18 317/317/317 316/316/316
f 317/317/317 18/18/18 22/22/22
f 22/22/22 321/321/321 324/324/324
f 24/24/24 328/328/328 331/331/331
f 25/25/25 337/337/337 336/336/336
f 25/25/25 24/24/24 334/334/334
f 28/28/28 336/336/336 340/340/340
f 345/345/345 348/348/348 30/30/30
f 350/350/350 54/54/54 55/55/55
f 55/55/55 30/30/30 348/348/348
f 55/55/55 354/354/354 356/356/356
f 365/365/365 362/362/362 62/62/62
f 62/62/62 367/367/367 369/369/369
f 377/377/377 373/373/373 56/56/56
f 60/60/60 380/380/380 375/375/375
f 381/381/381 59/59/59 61/61/61
f 61/61/61 360/360/360 383/383/383
f 61/61/61 63/63/63 385/385/385
f 199/199/199 203/203/203 390/390/390
f 200/200/200 388/388/388 393/393/393
f 198/198/198 405/405/405 408/408/408
f 409/409/409 405/405/405 198/198/198
f 198/198/198 197/197/197 403/403/403
f 63/63/63 408/408/408 414/414/414
f 417/417/417 399/399/399 203/203/203
f 203/203/203 54/54/54 359/359/359
f 209/209/209 137/137/137 138/138/138
f 253/253/253 418/418/418 320/320/320
f 421/421/421 254/254/254 251/251/251
f 251/251/251 427/427/427 424/424/424
f 427/427/427 251/251/251 255/255/255
f 430/430/430 255/255/255 257/257/257
f 257/257/257 437/437/437 435/435/435
f 258/258/258 56/56/56 373/373/373
f 303/303/303 297/297/297 466/466/466
f 472/472/472 205/205/205 303/303/303
f 38/38/38 48/48/48 483/483/483
f 205/205/205 472/472/472 481/481/481
f 328/328/328 24/24/24 11/11/11
f 11/11/11 13/13/13 503/503/503
f 396/396/396 394/394/394 387/387/387
f 387/387/387 391/391/391 397/397/397
f 397/397/397 400/400/400 415/415/415
f 415/415/415 410/410/410 402/402/402
f 402/402/402 396/396/396 387/387/387
f 387/387/387 397/397/397 415/415/415
f 349/349/349 352/352/352 355/355/355
f 355/355/355 413/413/413 407/407/407
f 407/407/407 406/406/406 411/411/411
f 411/411/411 416/416/416 358/358/358
f 358/358/358 349/349/349 355/355/355
f 355/355/355 407/407/407 411/411/411
f 353/353/353 347/347/347 346/346/346
f 346/346/346 344/344/344 339/339/339
f 339/339/339 370/370/370 368/368/368
f 368/368/368 386/386/386 412/412/412
f 412/412/412 357/357/357 353/353/353
f 353/353/353 346/346/346 339/339/339
f 339/339/339 368/368/368 412/412/412
f 459/459/459 450/450/450 454/454/454
f 454/454/454 458/458/458 480/480/480
f 476/476/476 489/489/489 485/485/485
f 454/454/454 480/480/480 476/476/476
f 462/462/462 459/459/459 454/454/454
f 469/469/469 464/464/464 462/462/462
f 473/473/473 470/470/470 469/469/469
f 476/476/476 485/485/485 482/482/482
f 482/482/482 473/473/473 469/469/469
f 469/469/469 462/462/462 454/454/454
f 476/476/476 482/482/482 469/469/469
f 326/326/326 330/330/330 363/363/363
f 363/363/363 371/371/371 341/341/341
f 335/335/335 338/338/338 333/333/333
f 363/363/363 341/341/341 335/335/335
f 333/333/333 326/326/326 363/363/363
f 445/445/445 442/442/442 497/497/497
f 497/497/497 493/493/493 491/491/491
f 491/491/491 475/475/475 478/478/478
f 478/478/478 456/456/456 447/447/447
f 447/447/447 445/445/445 497/497/497
f 497/497/497 491/491/491 478/478/478
f 313/313/313 308/308/308 382/382/382
f 382/382/382 361/361/361 364/364/364
f 364/364/364 332/332/332 329/329/329
f 329/329/329 499/499/499 501/501/501
f 501/501/501 502/502/502 313/313/313
f 313/313/313 382/382/382 364/364/364
f 364/364/364 329/329/329 501/501/501
f 384/384/384 309/309/309 310/310/310
f 310/310/310 315/315/315 318/318/318
f 318/318/318 323/323/323 376/376/376
f 376/376/376 374/374/374 379/379/379
f 379/379/379 384/384/384 310/310/310
f 310/310/310 318/318/318 376/376/376
f 322/322/322 319/319/319 419/419/419
f 419/419/419 420/420/420 425/425/425
f 425/425/425 436/436/436 438/438/438
f 438/438/438 441/441/441 372/372/372
f 372/372/372 378/378/378 325/325/325
f 325/325/325 322/322/322 419/419/419
f 419/419/419 425/425/425 438/438/438
f 438/438/438 372/372/372 325/325/325
f 423/423/423 426/426/426 433/433/433
f 433/433/433 429/429/429 434/434/434

