# Blender 4.1.1
# www.blender.org
mtllib link_body_17.mtl
o link_body_17
v -0.882004 4.761539 0.000486
v 0.304566 4.554795 -1.403222
v -2.854465 4.943292 -0.031913
v -2.807606 4.817290 1.159035
v -2.533852 4.947419 -1.252517
v 0.002409 4.567957 0.093000
v -1.634936 2.713824 0.099998
v -1.532648 2.665582 -1.029575
v -0.097826 4.305856 1.337573
v -0.560726 3.778235 -1.543224
v -1.236719 2.513110 -2.111069
v 0.395736 3.192123 -3.607401
v -0.483410 2.125360 -3.561167
v 1.193466 2.168389 -4.720253
v -0.621666 0.026025 -3.990522
v 0.291717 0.366973 -4.724576
v -1.308111 0.482557 -3.101267
v -1.844377 -0.509934 -2.111068
v -2.083131 0.678021 -1.445411
v -1.131178 -1.372067 -3.101267
v -0.388977 -3.323710 -2.645739
v -1.279433 -2.455843 -2.071503
v 0.147928 -2.282397 -4.060509
v 1.312944 -3.350056 -4.030309
v 0.632937 -1.496069 -4.675837
v 1.292003 -2.304596 -4.683050
v 1.398544 -1.941350 -4.855675
v -0.523495 -2.966384 -4.846131
v -1.481408 -2.823376 -4.751691
v -0.662460 -2.007619 -5.307494
v 1.619104 -1.218199 -5.193649
v -0.947678 -3.846349 -4.115578
v -1.681735 -4.535584 -3.017726
v -2.578772 -3.115231 -4.050046
v -2.826594 -4.235824 -2.638989
v 1.020558 -4.038978 -3.151232
v 0.490392 -4.394862 -2.085387
v 0.288504 -4.573651 -1.230618
v -2.562767 -4.953284 -1.197592
v -0.906048 -3.618405 -0.983091
v 0.042710 -4.592086 0.064660
v -2.833764 -4.944491 -0.019121
v -2.816425 -4.823737 1.131299
v -0.092427 -4.306851 1.336802
v -0.937447 -3.754664 0.196108
v -2.066821 -1.671162 0.099999
v -1.509758 -2.696501 1.272840
v -1.842279 -0.531237 2.311067
v -2.174030 -0.558856 1.229574
v -1.246954 -2.450840 2.344922
v -0.139059 -3.796884 2.460209
v -2.615822 -3.978106 3.149638
v -2.713356 -4.501580 2.203488
v -2.552053 -3.168339 3.996248
v -0.138972 -3.025714 3.373898
v -1.122695 -1.400033 3.301265
v 0.023781 -1.994309 4.256125
v -0.580584 -0.434270 4.178107
v 0.480685 -1.174708 4.859581
v 0.251791 -0.025975 4.893219
v 1.230638 -0.332179 5.372676
v 1.411825 -0.193783 5.437078
v 1.467108 0.071813 5.477575
v -1.935425 0.981654 5.279767
v -1.020338 0.101739 5.625831
v -1.743244 -0.821260 5.376009
v 0.501278 1.218199 4.864156
v -2.610526 2.959508 4.119833
v 1.414980 -0.190582 5.438131
v -3.705764 1.644127 4.070026
v -2.649812 1.493234 4.875986
v 0.073501 2.250940 4.151582
v -2.610594 3.939025 3.207974
v -3.851626 3.323236 2.677157
v -0.130968 3.093226 3.311126
v -0.126165 3.766870 2.500648
v -0.946597 2.488389 2.923244
v -1.566565 2.608310 1.183571
v -1.329709 0.413413 3.271751
v -1.643312 1.531509 2.311068
v -0.469582 1.134302 4.145638
v -2.069453 1.096351 1.217829
v -2.286992 0.564285 0.099998
v -1.960380 -1.632944 -1.029575
v -2.713354 4.501580 2.203487
v -4.315693 3.598174 1.168768
v -5.367328 1.691501 1.079813
v -4.495944 3.559633 -0.000001
v -5.074066 1.574400 2.163666
v -5.251759 -0.468153 2.237127
v -4.453448 1.716184 3.220916
v -5.595949 -0.507362 1.168769
v -5.466539 -1.719788 -0.046881
v -5.173802 -2.143058 1.113950
v -5.709800 0.000001 -0.000001
v -4.677944 -1.924740 2.706312
v -5.515923 1.568146 -0.000001
v -4.934200 2.706117 -1.079812
v -5.587406 0.594103 -1.168770
v -5.383787 -1.627241 -1.125656
v -5.242179 0.565413 -2.237128
v -4.787998 1.622875 -2.750497
v -5.090339 -1.447153 -2.199476
v -4.529099 -1.461096 -3.185977
v -4.109832 -3.316546 -2.237837
v -4.336946 -0.358617 -3.750376
v -3.032325 0.885157 -4.800705
v -3.896894 1.159514 -4.031493
v -3.574623 -1.891245 -4.050046
v -2.864239 -1.455923 -4.767107
v -1.434438 -1.146567 -5.417099
v -2.149009 -0.462758 -5.281384
v -1.961507 1.065639 -5.279437
v -1.446894 1.026033 -5.430743
v 1.227460 0.621179 -5.167884
v -0.625944 2.004866 -5.312720
v 1.289917 -0.365025 -5.207038
v -2.618688 2.504616 -4.469355
v -0.536394 2.937917 -4.875109
v -0.892575 3.801476 -4.150730
v -1.910433 3.574164 -4.047094
v 1.332412 3.365515 -4.028699
v 1.045041 4.029975 -3.171380
v -1.677544 4.532776 -3.027140
v -2.876962 4.234657 -2.574211
v -3.693746 2.977628 -3.214035
v -4.051574 3.668081 -1.789718
v -3.635316 -3.036963 -3.213480
v -4.351251 -3.563664 -1.125656
v -4.410712 -3.673842 0.047532
v -4.301310 -3.600926 1.168024
v -4.109832 -3.316546 2.237835
v -3.372116 -2.893855 3.655382
v -2.538182 -1.849017 4.767354
v -3.960126 -0.730411 4.102534
v -4.727119 -0.549444 3.185976
v -3.097678 -0.647918 4.775173
v -2.208006 0.000001 5.279675
vn 0.1578 0.9812 0.1107
vn 0.1920 0.9727 0.1306
vn 0.1574 0.9798 -0.1233
vn 0.1148 0.9918 -0.0569
vn 0.0905 0.9937 0.0666
vn 0.1387 0.9691 0.2041
vn 0.7541 -0.6338 -0.1722
vn 0.8736 -0.4867 0.0019
vn 0.7332 -0.6797 0.0181
vn 0.8679 -0.4655 0.1733
vn 0.6945 -0.6610 0.2841
vn 0.6131 -0.7309 0.2999
vn 0.1821 0.9350 0.3042
vn 0.8028 -0.4299 0.4132
vn 0.6853 -0.3649 0.6303
vn 0.5505 -0.5629 0.6166
vn 0.5088 -0.3461 0.7883
vn 0.5559 -0.0747 0.8279
vn 0.7048 0.0084 0.7093
vn 0.8317 -0.1048 0.5453
vn 0.9204 0.1017 0.3775
vn 0.9578 -0.1291 0.2569
vn 0.7885 0.2432 0.5649
vn 0.6566 0.5784 0.4840
vn 0.5872 0.3966 0.7057
vn 0.8277 0.4189 0.3734
vn 0.4210 0.3949 0.8166
vn 0.4888 0.5512 0.6762
vn 0.5078 0.2316 0.8297
vn 0.3797 0.2994 0.8753
vn 0.2475 -0.4720 -0.8461
vn 0.2528 -0.4875 -0.8358
vn 0.0493 -0.5445 -0.8373
vn 0.2215 -0.6724 -0.7063
vn -0.0175 -0.2953 -0.9552
vn -0.2772 -0.4847 -0.8296
vn -0.0546 -0.7529 -0.6559
vn 0.1412 -0.1899 -0.9716
vn -0.4377 -0.5609 -0.7028
vn 0.1773 -0.8815 -0.4377
vn 0.1394 -0.9532 -0.2683
vn -0.3808 -0.7178 -0.5830
vn -0.4830 -0.7502 -0.4515
vn 0.6079 0.6975 0.3794
vn 0.5244 0.6238 0.5795
vn 0.1503 -0.9673 -0.2041
vn 0.6417 0.7292 0.2377
vn 0.1334 -0.9868 -0.0917
vn 0.7600 0.6206 0.1931
vn 0.1259 -0.9911 -0.0434
vn 0.1410 -0.9847 0.1029
vn 0.6452 0.7635 0.0288
vn 0.1439 -0.9699 0.1966
vn 0.1193 -0.9904 0.0701
vn 0.1794 -0.9340 0.3090
vn 0.7671 0.6409 -0.0301
vn 0.7066 0.6774 -0.2046
vn 0.9563 0.2924 -0.0002
vn 0.8604 0.4686 -0.2003
vn 0.7277 0.5929 -0.3448
vn 0.9751 0.1037 -0.1959
vn 0.9211 0.0926 -0.3782
vn 0.8150 0.4242 -0.3947
vn 0.7120 0.4645 -0.5266
vn 0.2172 -0.7905 0.5726
vn 0.2085 -0.8270 0.5221
vn 0.2269 -0.6984 0.6788
vn 0.1799 -0.9113 0.3703
vn 0.2160 -0.7044 0.6761
vn 0.2260 -0.6554 0.7207
vn 0.7917 0.2514 -0.5568
vn 0.6791 0.2949 -0.6722
vn 0.7073 0.0817 -0.7021
vn 0.5748 0.1629 -0.8019
vn 0.2103 -0.6399 0.7391
vn 0.5521 -0.0030 -0.8338
vn 0.4275 0.0361 -0.9033
vn 0.2071 -0.6367 0.7428
vn 0.4119 -0.0391 -0.9104
vn -0.5723 0.4219 0.7032
vn 0.2624 0.0918 -0.9606
vn 0.0837 0.4976 0.8634
vn -0.1661 0.3218 0.9321
vn -0.0347 0.0602 0.9976
vn -0.2234 0.5950 0.7721
vn 0.5520 -0.1748 -0.8153
vn -0.1543 -0.3055 0.9396
vn 0.0197 -0.1826 0.9830
vn 0.0211 -0.2020 0.9792
vn 0.1071 0.5464 0.8306
vn 0.2201 0.1021 -0.9701
vn 0.0595 -0.3887 0.9194
vn -0.6742 0.5753 0.4631
vn -0.6440 0.2677 0.7167
vn -0.4159 0.2938 0.8607
vn 0.1618 0.6462 0.7459
vn 0.2033 0.7223 0.6610
vn 0.2016 0.7772 0.5960
vn -0.5480 0.6397 0.5390
vn 0.2149 0.8291 0.5162
vn 0.6505 -0.5254 -0.5485
vn 0.6496 -0.3491 -0.6754
vn 0.7596 -0.4412 -0.4778
vn 0.7501 -0.5840 -0.3103
vn 0.8563 -0.4801 -0.1902
vn 0.8909 -0.2442 -0.3829
vn 0.8325 -0.0772 -0.5486
vn 0.6911 -0.2001 -0.6945
vn 0.9621 -0.1933 -0.1926
vn 0.9946 -0.1026 0.0156
vn 0.9402 0.2811 0.1924
vn 0.1811 0.9097 0.3737
vn -0.7499 0.6274 0.2096
vn -0.5877 0.7290 0.3509
vn -0.6165 0.7642 0.1896
vn -0.8889 0.2658 0.3731
vn -0.9356 0.2989 0.1880
vn -0.7758 0.6310 -0.0019
vn -0.6299 0.7761 -0.0303
vn -0.9755 -0.0780 0.2056
vn -0.9198 -0.0662 0.3868
vn -0.7802 0.2808 0.5590
vn -0.9014 -0.3820 0.2037
vn -0.9496 -0.3135 -0.0075
vn -1.0000 -0.0008 0.0038
vn -0.8166 -0.3381 0.4678
vn -0.9597 0.2810 -0.0008
vn -0.8708 0.4519 -0.1937
vn -0.9731 0.0983 -0.2085
vn -0.8900 -0.2479 -0.3828
vn -0.9364 -0.2884 -0.2001
vn -0.9138 0.0720 -0.3997
vn -0.8312 0.2923 -0.4730
vn -0.7281 -0.5702 -0.3804
vn -0.7541 -0.0509 -0.6548
vn -0.7943 -0.2663 -0.5460
vn -0.6901 0.2120 -0.6919
vn -0.5375 0.1323 -0.8328
vn -0.4982 -0.2446 -0.8318
vn -0.6314 -0.3334 -0.7001
vn -0.3696 -0.0585 -0.9274
vn -0.1568 -0.1585 -0.9748
vn -0.3374 0.1972 -0.9205
vn -0.1194 0.1253 -0.9849
vn 0.0073 0.2952 -0.9554
vn 0.1566 0.1126 -0.9812
vn 0.0954 0.0276 -0.9951
vn 0.4593 0.0983 0.8828
vn 0.4536 -0.1330 0.8812
vn 0.4040 0.2207 0.8878
vn 0.2742 0.3683 -0.8883
vn -0.4508 0.4373 -0.7782
vn 0.0180 0.5238 -0.8516
vn -0.0171 0.7442 -0.6677
vn 0.2243 0.6630 -0.7142
vn -0.3394 0.6260 -0.7021
vn 0.5270 -0.6763 0.5147
vn 0.4240 -0.5590 0.7126
vn 0.1731 0.8871 -0.4279
vn -0.1132 0.8966 -0.4281
vn -0.4904 0.7479 -0.4475
vn -0.5415 0.8064 -0.2377
vn -0.7016 0.6473 -0.2978
vn -0.6444 0.5135 -0.5666
vn -0.6394 -0.5211 -0.5654
vn -0.7541 -0.6280 -0.1923
vn -0.7625 -0.6470 0.0001
vn -0.5631 -0.7938 -0.2297
vn -0.7411 -0.6397 0.2038
vn -0.6187 -0.7637 0.1844
vn -0.6279 -0.7775 -0.0342
vn -0.7108 -0.5859 0.3893
vn -0.5953 -0.7203 0.3561
vn -0.5973 -0.4860 0.6380
vn -0.5556 -0.6590 0.5070
vn -0.3197 -0.3971 0.8603
vn -0.6884 -0.1159 0.7160
vn -0.3602 -0.5452 0.7570
vn -0.8247 -0.0601 0.5623
vn -0.5472 -0.0941 0.8317
vn -0.4022 0.0079 0.9155
vt 0.323271 0.898523
vt 0.329250 0.898972
vt 0.329427 0.909111
vt 0.311260 0.904778
vt 0.310692 0.896423
vt 0.312625 0.888707
vt 0.680094 0.869610
vt 0.689548 0.858096
vt 0.688212 0.871724
vt 0.696953 0.858140
vt 0.699526 0.866432
vt 0.697901 0.872261
vt 0.330643 0.890758
vt 0.703927 0.857654
vt 0.713067 0.856106
vt 0.970239 0.716231
vt 0.985514 0.716788
vt 0.971392 0.721751
vt 0.712619 0.863902
vt 0.923711 0.736442
vt 0.915854 0.741205
vt 0.917804 0.730196
vt 0.905097 0.734405
vt 0.901942 0.740100
vt 0.710834 0.844464
vt 0.716323 0.842268
vt 0.704802 0.837225
vt 0.700378 0.844678
vt 0.711003 0.832407
vt 0.737295 0.916025
vt 0.746800 0.914534
vt 0.745837 0.924214
vt 0.740204 0.909386
vt 0.704464 0.824894
vt 0.892212 0.742133
vt 0.887501 0.732833
vt 0.888483 0.725276
vt 0.881592 0.724152
vt 0.755377 0.925854
vt 0.893170 0.730382
vt 0.890983 0.724919
vt 0.002111 0.892217
vt 0.002110 0.889685
vt 0.012504 0.882142
vt -0.000000 0.882986
vt 0.015192 0.888053
vt 0.018876 0.881288
vt 0.013534 0.875675
vt 0.002060 0.897271
vt 0.025285 0.877343
vt 0.629201 0.867458
vt 0.646521 0.863268
vt 0.643310 0.871174
vt 0.294299 0.971806
vt 0.297847 0.977526
vt 0.294299 0.984506
vt 0.653560 0.859256
vt 0.654019 0.868466
vt 0.628586 0.873375
vt 0.755323 0.912340
vt 0.756321 0.919905
vt 0.631201 0.859932
vt 0.755649 0.906552
vt 0.631375 0.854153
vt 0.746557 0.903093
vt 0.649821 0.850395
vt 0.631304 0.845404
vt 0.755949 0.897803
vt 0.648505 0.834862
vt 0.650072 0.842368
vt 0.630612 0.836867
vt 0.748271 0.895418
vt 0.756216 0.889283
vt 0.689449 0.816090
vt 0.697200 0.817300
vt 0.690517 0.828852
vt 0.682551 0.822300
vt 0.743878 0.887391
vt 0.756321 0.881796
vt 0.682950 0.835808
vt 0.675576 0.836016
vt 0.675252 0.823886
vt 0.746393 0.880722
vt 0.755844 0.875675
vt 0.644793 0.821742
vt 0.629586 0.829351
vt 0.643473 0.816090
vt 0.646527 0.827922
vt 0.628586 0.823191
vt 0.553930 0.940261
vt 0.539461 0.928262
vt 0.554695 0.933415
vt 0.667799 0.820812
vt 0.668685 0.830680
vt 0.661699 0.827530
vt 0.662377 0.837296
vt 0.981364 0.339081
vt 0.974142 0.343888
vt 0.970239 0.339081
vt 0.555425 0.946277
vt 0.981803 0.345229
vt 0.977495 0.350565
vt 0.558759 0.952956
vt 0.979416 0.353002
vt 0.559679 0.954155
vt 0.977909 0.352021
vt 0.559571 0.955952
vt 0.536170 0.955872
vt 0.543566 0.951803
vt 0.528411 0.967447
vt 0.988915 0.349761
vt 0.540541 0.944640
vt 0.559694 0.954181
vt 0.551389 0.961657
vt 0.977921 0.352048
vt 0.297026 0.829307
vt 0.287847 0.839131
vt 0.287660 0.828230
vt 0.523679 0.957107
vt 0.530703 0.957932
vt 0.546856 0.967576
vt 0.973446 0.815302
vt 0.988620 0.821030
vt 0.970239 0.821030
vt 0.986764 0.958641
vt 0.970633 0.965186
vt 0.970239 0.958641
vt 0.293688 0.822281
vt 0.335407 0.878007
vt 0.333004 0.883204
vt 0.318144 0.875675
vt 0.667260 0.861120
vt 0.661699 0.855548
vt 0.670463 0.856525
vt 0.672509 0.865755
vt 0.682357 0.857198
vt 0.675123 0.849769
vt 0.668737 0.842447
vt 0.662274 0.847727
vt 0.990819 0.343534
vt 0.996432 0.349580
vt 0.682702 0.846799
vt 0.690318 0.843378
vt 0.697905 0.829469
vt 0.315105 0.882035
vt 0.306961 0.828898
vt 0.300327 0.819151
vt 0.307240 0.817509
vt 0.300286 0.843206
vt 0.307433 0.843298
vt 0.314696 0.829649
vt 0.315139 0.816907
vt 0.306870 0.857326
vt 0.299829 0.856146
vt 0.293362 0.840677
vt 0.307352 0.866217
vt 0.315002 0.864441
vt 0.314599 0.854568
vt 0.296851 0.863527
vt 0.314585 0.844482
vt 0.321821 0.836050
vt 0.322366 0.850664
vt 0.329356 0.861874
vt 0.322179 0.863700
vt 0.329521 0.849977
vt 0.332976 0.842350
vt 0.329829 0.870733
vt 0.339751 0.853314
vt 0.336003 0.860530
vt 0.041543 0.902219
vt 0.035588 0.902127
vt 0.041543 0.891690
vt 0.030216 0.887483
vt 0.341647 0.842900
vt 0.033890 0.883331
vt 0.040697 0.884244
vt 0.027517 0.895186
vt 0.021711 0.892144
vt 0.029123 0.905290
vt 0.025778 0.905996
vt 0.022320 0.913742
vt 0.007933 0.908295
vt 0.005728 0.902116
vt 0.901264 0.727132
vt 0.907688 0.728485
vt 0.895968 0.724152
vt 0.010948 0.918071
vt 0.035887 0.913196
vt 0.023421 0.919824
vt 0.027215 0.924616
vt 0.012195 0.925905
vt 0.033289 0.921286
vt 0.984279 0.721751
vt 0.990468 0.721382
vt 0.925770 0.730440
vt 0.320605 0.925821
vt 0.333134 0.921620
vt 0.335407 0.927668
vt 0.315425 0.917445
vt 0.309231 0.913143
vt 0.342009 0.822957
vt 0.332045 0.821392
vt 0.335244 0.816453
vt 0.033469 0.927739
vt 0.326655 0.827894
vt 0.336196 0.831231
vt 0.323301 0.816090
vt 0.344728 0.831358
vt 0.032101 0.875825
vt 0.659843 0.861644
vt 0.661615 0.854756
vt 0.336381 0.867822
vt 0.661699 0.847267
vt 0.322408 0.872831
vt 0.314609 0.873615
vt 0.660551 0.839577
vt 0.307181 0.872841
vt 0.658412 0.832397
vt 0.300098 0.870562
vt 0.655852 0.825595
vt 0.659269 0.821444
vt 0.649317 0.817189
vt 0.537242 0.936701
vt 0.526184 0.941436
vt 0.533728 0.928613
vt 0.523679 0.932609
vt 0.287660 0.854301
vt 0.293615 0.855235
vt 0.531562 0.943428
vt 0.536132 0.949103
s 1
usemtl pleuraldeles_skin
f 1/1/1 6/2/2 2/3/3
f 5/4/4 1/1/1 2/3/3
f 3/5/5 4/6/6 1/1/1
f 5/4/4 3/5/5 1/1/1
f 4/6/6 6/2/2 1/1/1
f 9/7/7 7/8/8 6/9/9
f 7/8/8 8/10/10 6/9/9
f 8/10/10 10/11/11 6/9/9
f 6/9/9 10/11/11 2/12/12
f 4/6/6 9/13/13 6/2/2
f 8/10/10 11/14/14 10/11/11
f 11/14/14 13/15/15 10/11/11
f 10/16/11 12/17/16 2/18/12
f 13/15/15 12/19/16 10/11/11
f 12/20/16 13/21/15 14/22/17
f 13/21/15 16/23/18 14/22/17
f 13/21/15 15/24/19 16/23/18
f 17/25/20 15/26/19 13/15/15
f 17/25/20 13/15/15 11/14/14
f 18/27/21 17/25/20 19/28/22
f 20/29/23 17/25/20 18/27/21
f 19/28/22 17/25/20 11/14/14
f 20/29/23 15/26/19 17/25/20
f 20/30/23 21/31/24 23/32/25
f 22/33/26 21/31/24 20/30/23
f 22/34/26 20/29/23 18/27/21
f 20/35/23 23/36/25 15/24/19
f 26/37/27 23/36/25 24/38/28
f 23/32/25 21/31/24 24/39/28
f 15/24/19 23/36/25 25/40/29
f 25/40/29 23/36/25 26/37/27
f 26/37/27 27/41/30 25/40/29
f 27/42/31 26/43/32 28/44/33
f 28/44/33 26/43/32 24/45/34
f 30/46/35 28/44/33 29/47/36
f 29/47/36 28/44/33 32/48/37
f 30/46/35 31/49/38 28/44/33
f 31/49/38 27/42/31 28/44/33
f 28/44/33 24/45/34 32/48/37
f 29/47/36 32/48/37 34/50/39
f 36/51/40 33/52/41 32/53/37
f 32/54/37 33/55/42 35/56/43
f 32/53/37 35/57/43 34/58/39
f 32/53/37 24/59/34 36/51/40
f 21/31/24 37/60/44 36/61/45
f 21/31/24 36/61/45 24/39/28
f 37/62/46 33/52/41 36/51/40
f 38/63/47 37/60/44 21/31/24
f 33/52/41 37/62/46 38/64/48
f 40/65/49 38/63/47 21/31/24
f 39/66/50 38/64/48 41/67/51
f 39/66/50 33/52/41 38/64/48
f 40/65/49 41/68/52 38/63/47
f 43/69/53 42/70/54 41/67/51
f 41/67/51 42/70/54 39/66/50
f 44/71/55 43/69/53 41/67/51
f 41/68/52 45/72/56 44/73/57
f 45/72/56 41/68/52 40/65/49
f 45/74/56 40/75/49 46/76/58
f 45/74/56 46/76/58 47/77/59
f 44/73/57 45/72/56 47/78/59
f 51/79/60 44/73/57 47/78/59
f 47/77/59 46/76/58 49/80/61
f 47/77/59 49/80/61 48/81/62
f 50/82/63 47/77/59 48/81/62
f 51/79/60 47/78/59 50/83/63
f 51/79/60 50/83/63 55/84/64
f 52/85/65 51/86/66 54/87/67
f 51/86/66 52/85/65 53/88/68
f 44/71/55 51/86/66 53/88/68
f 54/87/67 51/86/66 55/89/69
f 57/90/70 54/91/67 55/92/69
f 55/93/64 50/82/63 56/94/71
f 55/93/64 56/94/71 57/95/72
f 58/96/73 57/95/72 56/94/71
f 58/97/73 59/98/74 57/99/72
f 59/100/75 54/91/67 57/90/70
f 59/98/74 60/101/76 61/102/77
f 58/97/73 60/101/76 59/98/74
f 54/91/67 59/100/75 61/103/78
f 61/102/77 60/101/76 63/104/79
f 54/91/80 61/103/80 62/105/80
f 63/104/79 62/106/81 61/102/77
f 63/107/82 64/108/83 65/109/84
f 68/110/85 64/108/83 63/107/82
f 67/111/86 63/104/79 60/101/76
f 65/109/84 66/112/87 63/107/88
f 63/107/88 66/112/87 69/113/89
f 67/114/90 68/110/85 63/107/82
f 69/115/91 62/106/81 63/104/79
f 69/113/89 66/112/87 62/105/92
f 74/116/93 70/117/94 68/118/85
f 70/119/94 71/120/95 68/110/85
f 71/120/95 64/108/83 68/110/85
f 72/121/96 68/110/85 67/114/90
f 75/122/97 68/123/85 72/124/96
f 75/125/97 73/126/98 68/127/85
f 68/118/85 73/128/99 74/116/93
f 75/129/97 76/130/100 73/131/98
f 75/132/101 72/133/102 77/134/103
f 75/132/101 77/134/103 76/135/104
f 77/134/103 78/136/105 9/7/7
f 80/137/106 78/136/105 77/134/103
f 79/138/107 80/137/106 77/134/103
f 81/139/108 79/138/107 77/134/103
f 81/139/108 77/134/103 72/133/102
f 77/134/103 9/7/7 76/135/104
f 60/101/76 81/140/108 67/111/86
f 67/111/86 81/140/108 72/141/102
f 81/140/108 60/101/76 58/97/73
f 58/96/73 79/138/107 81/139/108
f 48/81/62 49/80/61 80/137/106
f 79/138/107 48/81/62 80/137/106
f 80/137/106 49/80/61 82/142/109
f 80/137/106 82/142/109 78/136/105
f 49/80/61 83/143/110 82/142/109
f 82/142/109 83/143/110 78/136/105
f 78/136/105 83/143/110 7/8/8
f 83/143/110 19/28/22 7/8/8
f 83/143/110 84/144/111 19/28/22
f 46/76/58 84/144/111 83/143/110
f 46/76/58 83/143/110 49/80/61
f 84/144/111 18/27/21 19/28/22
f 84/144/111 22/34/26 18/27/21
f 40/75/49 22/34/26 84/144/111
f 46/76/58 40/75/49 84/144/111
f 58/96/73 56/94/71 79/138/107
f 56/94/71 48/81/62 79/138/107
f 78/136/105 7/8/8 9/7/7
f 73/131/98 76/130/100 85/145/112
f 76/130/100 9/13/13 85/145/112
f 86/146/113 85/147/114 4/148/115
f 9/13/13 4/6/6 85/145/112
f 86/146/113 74/116/93 85/147/114
f 73/128/99 85/147/114 74/116/93
f 89/149/116 86/146/113 87/150/117
f 87/150/117 86/146/113 88/151/118
f 3/152/119 86/146/113 4/148/115
f 89/149/116 74/116/93 86/146/113
f 3/152/119 88/151/118 86/146/113
f 89/149/116 87/150/117 92/153/120
f 89/149/116 92/153/120 90/154/121
f 91/155/122 89/149/116 90/154/121
f 91/155/122 74/116/93 89/149/116
f 94/156/123 92/153/120 93/157/124
f 95/158/125 93/157/124 92/153/120
f 96/159/126 92/153/120 94/156/123
f 96/159/126 90/154/121 92/153/120
f 92/153/120 87/150/117 97/160/127
f 92/153/120 97/160/127 95/158/125
f 88/151/118 98/161/128 97/160/127
f 87/150/117 88/151/118 97/160/127
f 97/160/127 98/161/128 99/162/129
f 97/160/127 99/162/129 95/158/125
f 99/162/129 103/163/130 100/164/131
f 95/158/125 99/162/129 100/164/131
f 99/162/129 101/165/132 103/163/130
f 102/166/133 101/165/132 99/162/129
f 102/166/133 99/162/129 98/161/128
f 100/164/131 103/163/130 105/167/134
f 103/163/130 106/168/135 104/169/136
f 105/167/134 103/163/130 104/169/136
f 103/163/130 101/165/132 106/168/135
f 108/170/137 107/171/138 106/172/135
f 106/172/135 107/171/138 110/173/139
f 106/168/135 102/166/133 108/174/137
f 102/166/133 106/168/135 101/165/132
f 106/172/135 110/173/139 109/175/140
f 104/176/136 106/172/135 109/175/140
f 112/177/141 110/173/139 107/171/138
f 29/47/36 34/50/39 110/173/139
f 110/173/139 34/50/39 109/175/140
f 111/178/142 29/47/36 110/173/139
f 112/177/141 111/178/142 110/173/139
f 113/179/143 112/177/141 107/171/138
f 114/180/144 112/177/141 113/179/143
f 111/178/142 112/177/141 114/180/144
f 116/181/145 115/182/146 114/180/144
f 117/183/147 114/180/144 115/182/146
f 113/179/143 116/181/145 114/180/144
f 114/180/144 31/49/38 111/178/142
f 114/180/144 117/183/147 31/49/38
f 16/23/18 117/184/148 115/185/149
f 16/23/18 25/40/29 117/184/148
f 117/184/148 25/40/29 31/186/150
f 115/182/146 116/181/145 14/187/151
f 113/179/143 118/188/152 116/181/145
f 119/189/153 116/181/145 118/188/152
f 119/189/153 14/187/151 116/181/145
f 120/190/154 122/191/155 119/189/153
f 121/192/156 120/190/154 119/189/153
f 118/188/152 121/192/156 119/189/153
f 122/191/155 14/187/151 119/189/153
f 123/193/157 12/17/16 122/194/158
f 14/22/17 122/195/158 12/20/16
f 120/196/154 123/197/159 122/198/155
f 123/197/159 120/196/154 124/199/160
f 2/18/12 12/17/16 123/193/157
f 2/3/3 123/197/159 124/199/160
f 125/200/161 5/4/162 124/199/160
f 121/201/156 125/202/161 124/203/160
f 121/192/156 124/204/160 120/190/154
f 5/4/4 2/3/3 124/199/160
f 127/205/163 125/202/161 126/206/164
f 126/206/164 125/202/161 121/201/156
f 125/202/161 127/205/163 5/207/162
f 88/151/118 127/205/163 98/161/128
f 98/161/128 127/205/163 102/166/133
f 127/205/163 88/151/118 3/152/119
f 127/205/163 3/152/119 5/207/162
f 126/206/164 102/166/133 127/205/163
f 126/206/164 121/201/156 118/208/152
f 126/206/164 118/208/152 108/174/137
f 126/206/164 108/174/137 102/166/133
f 118/188/152 107/171/138 108/170/137
f 113/179/143 107/171/138 118/188/152
f 14/22/17 16/23/18 115/185/149
f 111/178/142 31/49/38 30/46/35
f 111/178/142 30/46/35 29/47/36
f 128/209/165 109/175/140 34/50/39
f 104/176/136 109/175/140 128/209/165
f 128/210/165 34/58/39 35/57/43
f 35/57/43 105/211/134 128/210/165
f 105/167/134 104/169/136 128/212/165
f 129/213/166 105/211/134 35/57/43
f 100/164/131 105/167/134 129/214/166
f 93/157/124 100/164/131 129/214/166
f 93/157/124 129/214/166 130/215/167
f 130/216/167 129/213/166 39/66/168
f 129/213/166 35/57/43 39/66/168
f 94/156/123 130/215/167 131/217/169
f 43/69/170 131/218/169 130/216/167
f 43/69/170 130/216/167 42/70/171
f 130/216/167 39/66/168 42/70/171
f 94/156/123 93/157/124 130/215/167
f 132/219/172 94/156/123 131/217/169
f 53/88/173 132/220/172 131/218/169
f 53/88/173 131/218/169 43/69/170
f 96/221/126 132/220/172 133/222/174
f 132/219/172 96/159/126 94/156/123
f 52/85/175 132/220/172 53/88/173
f 52/85/175 133/222/174 132/220/172
f 134/223/176 135/224/177 133/225/174
f 54/91/178 134/223/176 133/225/174
f 133/225/174 135/224/177 96/226/126
f 54/87/178 133/222/174 52/85/175
f 135/227/177 136/228/179 96/159/126
f 135/227/177 91/155/122 136/228/179
f 71/120/95 70/119/94 135/224/177
f 135/227/177 70/117/94 91/155/122
f 71/120/95 135/224/177 137/229/180
f 134/223/176 137/229/180 135/224/177
f 71/120/95 137/229/180 138/230/181
f 137/229/180 134/223/176 66/112/87
f 138/230/181 137/229/180 66/112/87
f 138/230/181 66/112/87 65/109/84
f 64/108/83 138/230/181 65/109/84
f 138/230/181 64/108/83 71/120/95
f 91/155/122 90/154/121 136/228/179
f 136/228/179 90/154/121 96/159/126
f 54/91/178 66/112/87 134/223/176
f 95/158/125 100/164/131 93/157/124
f 74/116/93 91/155/122 70/117/94
f 66/112/87 54/91/178 62/105/92
f 50/82/63 48/81/62 56/94/71
f 44/71/55 53/88/68 43/69/53
f 40/65/49 21/31/24 22/33/26
f 33/52/42 39/66/168 35/57/43
f 31/186/150 25/40/29 27/41/30
f 16/23/18 15/24/19 25/40/29
f 19/28/22 11/14/14 8/10/10
f 19/28/22 8/10/10 7/8/8
