# ('FARMS composite mesh',)
mtllib link_body_28_composite.mtl

o link_body_28
usemtl link_body_28_composite
v 1.08143600 -0.56064700 -4.40092300
v 1.08143600 -0.56064700 -4.40092300
v 1.02621800 0.00000000 -4.40092300
v -2.59225100 -1.07374500 -4.19941000
v -2.59225100 -1.07374500 -4.19941000
v -2.59225100 -1.07374500 -4.19941000
v 1.48278400 -0.38169700 -4.62486900
v 1.48278400 -0.38169700 -4.62486900
v 1.48278400 -0.38169700 -4.62486900
v 0.35743300 -0.89376800 -3.76081000
v 0.35743300 -0.89376800 -3.76081000
v 0.35743300 -0.89376800 -3.76081000
v -0.31827900 -0.83906800 -2.97378500
v 0.24236700 0.00000100 -3.75763500
v 0.24236700 0.00000100 -3.75763500
v -0.25276600 -1.22289000 -2.89612800
v -0.25276600 -1.22289000 -2.89612800
v -0.40092100 -0.00000000 -2.97378500
v -0.31827900 0.83906900 -2.97378500
v -0.87892500 0.00000100 -2.07949800
v -0.78710200 -0.93232200 -2.07949800
v -1.07579800 -0.98974700 -1.10913900
v -0.64801800 -1.35414000 -2.10088800
v -0.64801800 -1.35414000 -2.10088800
v -0.94041500 -1.36014500 -1.18731200
v -0.94041500 -1.36014500 -1.18731200
v -1.17327900 0.00000100 -1.10913900
v -1.07579800 0.98974900 -1.10913900
v -1.27267100 0.00000100 -0.10000000
v -1.17327900 1.00913900 -0.10000000
v -1.11517300 1.20068900 -0.10000000
v -1.11517300 1.20068900 -0.10000000
v -1.06532700 1.02317400 0.92430700
v -1.06532700 1.02317400 0.92430700
v -1.17327900 0.00000100 0.90913900
v -0.87892500 0.00000100 1.87949700
v -1.06667700 -1.02393900 0.91974400
v -1.06667700 -1.02393900 0.91974400
v -0.79735900 -0.82815000 1.87949700
v -0.79735900 -0.82815000 1.87949700
v -1.12731200 -1.19288400 -0.07660500
v -1.12731200 -1.19288400 -0.07660500
v -4.57391000 -1.84444300 -1.07891500
v -4.57391000 -1.84444300 -1.07891500
v -4.36587900 -1.83106500 -1.70549000
v -4.36587900 -1.83106500 -1.70549000
v -4.85828800 -0.96637300 -0.98533300
v -0.34032800 -0.61488800 2.77382900
v -0.34032800 -0.61488800 2.77382900
v -4.75217100 -1.64308400 -0.03128400
v -4.75217100 -1.64308400 -0.03128400
v -4.95347200 -0.98530600 -0.00000100
v -4.74916100 -1.33687700 0.96731200
v -4.74916100 -1.33687700 0.96731200
v -4.85828800 -0.96637300 0.98533000
v 1.13691000 -0.15781800 4.27447200
v 1.13691000 -0.15781800 4.27447200
v 0.28093000 -0.39238800 3.55753600
v 0.28093000 -0.39238800 3.55753600
v 0.28093000 -0.39238800 3.55753600
v 0.24236700 0.00000100 3.55763400
v 0.24236700 0.00000100 3.55763400
v 1.05191100 0.17112500 4.21426400
v 1.05191100 0.17112500 4.21426400
v -0.40092100 -0.00000000 2.77378500
v 0.28093000 0.39238900 3.55753500
v 0.28093000 0.39238900 3.55753500
v 0.28093000 0.39238900 3.55753500
v -0.34032800 0.61488800 2.77383000
v -0.34032800 0.61488800 2.77383000
v -0.79735900 0.82815000 1.87949700
v -0.79735900 0.82815000 1.87949700
v -4.57881500 1.84095500 -1.05123500
v -4.57881500 1.84095500 -1.05123500
v -4.75217100 1.64308300 -0.03128300
v -4.75217100 1.64308300 -0.03128300
v -4.85828800 0.96637400 0.98533000
v -4.95347200 0.98530800 -0.00000100
v 0.71955500 0.13037100 4.43038100
v -4.74920700 1.33478300 0.97346900
v -4.74920700 1.33478300 0.97346900
v -4.85828800 0.96637400 -0.98533100
v -4.57639300 0.91030200 -1.93279400
v -4.95346800 0.00000100 -0.98533100
v -5.05051800 0.00000100 -0.00000100
v -4.66605400 0.00000100 -1.93279400
v -4.57639300 -0.91030100 -1.93279400
v -4.30690800 -1.79612900 -1.93219400
v -4.30690800 -1.79612900 -1.93219400
v -4.11862600 -0.81924600 -2.80597500
v -4.11862600 -0.81924600 -2.80597500
v -3.90804300 -1.60975500 -2.75835200
v -3.90804300 -1.60975500 -2.75835200
v -3.90804300 -1.60975500 -2.75835200
v -4.19931400 -0.00000000 -2.80597500
v -4.11862600 0.81924600 -2.80597500
v -3.57119800 0.00000100 -3.57131800
v -3.57119800 0.00000100 -3.57131800
v -3.50257900 0.69670600 -3.57131800
v -3.50257900 0.69670600 -3.57131800
v -3.50257900 -0.69670500 -3.57131800
v -3.50257900 -0.69670500 -3.57131800
v -2.78247100 0.31007400 -4.21373700
v -2.75191900 -0.54739000 -4.19941100
v -1.88735600 -0.38893100 -4.66846900
v 0.67010500 -0.04674100 -4.92949600
v -1.37213500 0.00011000 -4.83581500
v -1.93264800 -0.00000000 -4.66611600
v -1.88899200 0.39060900 -4.66761300
v -1.88899200 0.39060900 -4.66761300
v 0.73062100 0.06340400 -4.92682900
v 1.48278800 0.38169400 -4.62487200
v 1.48278800 0.38169400 -4.62487200
v 1.48278800 0.38169400 -4.62487200
v -2.72075300 0.87045400 -4.14859400
v -2.72075300 0.87045400 -4.14859400
v -3.35149000 1.24207300 -3.55649200
v -3.35149000 1.24207300 -3.55649200
v -3.35149000 1.24207300 -3.55649200
v 0.38436100 0.89141100 -3.77987200
v 0.38436100 0.89141100 -3.77987200
v 0.38436100 0.89141100 -3.77987200
v 1.07400500 0.53010100 -4.39837800
v 1.07400500 0.53010100 -4.39837800
v -3.91070500 1.60988100 -2.75483300
v -3.91070500 1.60988100 -2.75483300
v -0.25017900 1.21931900 -2.90467500
v -0.25017900 1.21931900 -2.90467500
v -4.30690800 1.79612700 -1.93219400
v -4.30690800 1.79612700 -1.93219400
v -0.64801400 1.35446000 -2.10118400
v -0.64801400 1.35446000 -2.10118400
v -4.36603200 1.83106500 -1.70503700
v -4.36603200 1.83106500 -1.70503700
v -0.78709800 0.93232400 -2.07949800
v -0.94726900 1.35719800 -1.16800000
v -0.94726900 1.35719800 -1.16800000
v 1.97253400 0.03750600 -4.90472800
v 1.97253400 0.03750600 -4.90472800
v 1.97253400 0.03750600 -4.90472800
v 1.97253400 0.03750600 -4.90472800
v -3.34666100 -1.25225000 -3.55614500
v -3.34666100 -1.25225000 -3.55614500
v -4.95346800 0.00000100 0.98533000
v -4.66605400 0.00000100 1.93279300
v -4.54626800 -0.97813700 1.96642100
v -4.54626800 -0.97813700 1.96642100
v -4.54650900 0.97718700 1.96652100
v -4.54650900 0.97718700 1.96652100
v -4.12941000 0.70975300 2.80597400
v -4.12941000 0.70975300 2.80597400
v -3.51784100 0.47839200 3.57710600
v -3.51784100 0.47839200 3.57710600
v -3.51784100 0.47839200 3.57710600
v -4.19931400 -0.00000000 2.80597400
v -3.59557300 -0.06599800 3.53619000
v -3.59557300 -0.06599800 3.53619000
v -4.12941000 -0.70975400 2.80597400
v -4.12941000 -0.70975400 2.80597400
v -3.52391400 -0.48006400 3.57131700
v -3.52391400 -0.48006400 3.57131700
v -3.52391400 -0.48006400 3.57131700
v -2.78042600 -0.27278200 4.19811200
v -2.78042600 -0.27278200 4.19811200
v -1.98905900 -0.11257900 4.63165200
v -1.98905900 -0.11257900 4.63165200
v -2.76984000 0.25108200 4.21812000
v -2.76984000 0.25108200 4.21812000
v -1.92483100 0.06788600 4.66847300
v -1.92483100 0.06788600 4.66847300
v -2.33098200 0.19270100 4.44317800
v -2.33098200 0.19270100 4.44317800
v -0.39614500 0.03263600 4.76708700
v -0.39614500 0.03263600 4.76708700
v -1.63005800 -0.00000000 4.75722600
v -1.63005800 -0.00000000 4.75722600
v -1.63005800 -0.00000000 4.75722600
v -1.63005800 -0.00000000 4.75722600
v -0.39449700 -0.03269300 4.76681900
v -0.39449700 -0.03269300 4.76681900
v 1.48855600 -0.06397200 4.44455500
v 1.48855600 -0.06397200 4.44455500
v 1.48855600 -0.06397200 4.44455500
v 1.49502600 0.06872100 4.44909000
v 1.49502600 0.06872100 4.44909000
v 1.49502600 0.06872100 4.44909000
vn 0.57593924 0.05672413 0.81552214
vn 0.09462115 -0.86853888 -0.48650494
vn 0.56097773 0.00264564 0.82782666
vn 0.07263959 -0.94898667 -0.30683512
vn -0.00040523 -0.57854815 -0.81564813
vn -0.54473319 -0.16663691 -0.82188679
vn 0.09042061 -0.85073700 -0.51775542
vn 0.46916174 0.04368911 0.88203091
vn 0.04653245 -0.60794672 -0.79261309
vn 0.76215717 0.12097584 0.63598844
vn 0.63639576 0.07371859 0.76783202
vn 0.10707597 -0.93570175 -0.33615023
vn 0.81290633 0.16014317 0.55994416
vn 0.63729735 0.00242969 0.77061416
vn 0.76846056 0.00144924 0.63989551
vn 0.80975667 0.24839225 0.53159705
vn 0.10327216 -0.96700056 -0.23290507
vn 0.83202158 0.00217446 0.55473900
vn 0.81295287 -0.16186135 0.55938228
vn 0.92476609 -0.00000172 0.38053605
vn 0.90758078 0.18087310 0.37892221
vn 0.96223954 0.19752860 0.18728995
vn 0.12175370 -0.99093619 -0.05675824
vn 0.88198362 0.27126993 0.38537971
vn 0.13426833 -0.98658956 0.09280660
vn 0.92948180 0.29524418 0.22112089
vn 0.98101550 -0.00000041 0.19392933
vn 0.96169243 -0.19715008 0.19047184
vn 0.99997982 0.00633839 -0.00043694
vn 0.98085431 -0.19474255 -0.00040637
vn 0.95598556 -0.29319422 0.01134761
vn 0.13573298 0.97716359 0.16348660
vn 0.13660559 0.97735162 0.16162525
vn 0.97600436 -0.11145566 -0.18706449
vn 0.98104288 0.00045846 -0.19379026
vn 0.92499695 -0.00000622 -0.37997452
vn 0.13755659 -0.97750080 0.15990737
vn 0.97823178 0.10465264 -0.17919377
vn 0.92442053 0.09104775 -0.37034712
vn 0.13464498 -0.97725613 0.16383281
vn 0.98952384 0.14415359 0.00789383
vn 0.13742249 -0.97707440 0.16260591
vn -0.93367291 -0.27837345 -0.22530673
vn 0.12140379 -0.98532404 0.11999019
vn -0.91526000 -0.27983740 -0.28981056
vn 0.12282053 -0.99192220 -0.03170909
vn -0.96217249 -0.19163720 -0.19364731
vn 0.10628515 -0.97557409 0.19224638
vn 0.83415369 0.08215818 -0.54537845
vn 0.07600054 -0.96990303 0.23132668
vn -0.95575999 -0.29334036 -0.02177797
vn -0.98053283 -0.19635019 0.00140475
vn -0.94307480 -0.28602314 0.16970765
vn 0.01489686 -0.95382302 0.29999954
vn -0.96166052 -0.19069633 0.19708868
vn 0.53549936 -0.01164505 -0.84445534
vn 0.04464362 -0.92947397 0.36617631
vn 0.63078266 0.06218490 -0.77346382
vn 0.77078082 0.07590838 -0.63256213
vn 0.09994622 -0.97477923 0.19953997
vn 0.77301060 -0.00000039 -0.63439310
vn 0.63419119 0.00223988 -0.77317302
vn 0.06248413 0.95879968 0.27712616
vn 0.57214837 -0.00902356 -0.82010049
vn 0.83334341 0.00000049 -0.55275561
vn 0.77077973 -0.07591007 -0.63256326
vn 0.05330800 0.96383026 0.26113115
vn 0.63666955 -0.06276435 -0.76857824
vn 0.83415361 -0.08215783 -0.54537862
vn 0.10630297 0.97556918 0.19226144
vn 0.13481121 0.97724327 0.16377281
vn 0.92443272 -0.09104917 -0.37031635
vn -0.93396765 0.28658498 -0.21347946
vn 0.12098055 0.98507589 0.12243042
vn -0.95582193 0.29314556 -0.02168203
vn 0.07508453 0.96978718 0.23211020
vn -0.96190049 0.18997993 0.19660893
vn -0.98053275 0.19635059 0.00140462
vn 0.05249026 0.93146532 0.36002379
vn -0.94325354 0.28478361 0.17079535
vn 0.01266517 0.95382608 0.30009232
vn -0.96249370 0.19090040 -0.19277688
vn -0.90702434 0.17939802 -0.38095040
vn -0.98101448 0.00000033 -0.19393448
vn -1.00000000 0.00000033 -0.00000002
vn -0.92476256 -0.00000042 -0.38054463
vn -0.90713944 -0.18052129 -0.38014485
vn -0.88665881 -0.27201229 -0.37395917
vn 0.10629678 -0.98464308 -0.13848828
vn -0.74170708 -0.23210388 -0.62928403
vn -0.83893724 -0.13947717 -0.52605174
vn -0.74202051 -0.23547853 -0.62765869
vn 0.07754569 -0.97231333 -0.22043924
vn -0.84583302 -0.25553862 -0.46825903
vn -0.83333296 -0.00000065 -0.55277136
vn -0.81664575 0.16305531 -0.55362684
vn -0.63631508 -0.00474864 -0.77141465
vn -0.77300288 0.00000008 -0.63440251
vn -0.61810642 0.13540212 -0.77434535
vn -0.75852605 0.14890632 -0.63440141
vn -0.66688610 -0.16186349 -0.72736726
vn -0.77077225 -0.07591383 -0.63257192
vn -0.55054816 0.06362756 -0.83237507
vn -0.54928233 -0.10115753 -0.82949146
vn -0.23482747 -0.29217766 -0.92708590
vn 0.00130836 -0.31137767 -0.95028534
vn -0.10419341 0.00028507 -0.99455701
vn -0.38947517 -0.00570574 -0.92101929
vn -0.33794273 0.13119514 -0.93197776
vn 0.01045285 0.74252830 -0.66973313
vn 0.00411864 0.36472572 -0.93110589
vn 0.02362750 0.65810377 -0.75255642
vn 0.03621560 0.83960972 -0.54198151
vn 0.47093901 -0.04645231 0.88094190
vn -0.56610153 0.15643411 -0.80935618
vn 0.04458985 0.85128328 -0.52280830
vn -0.60542752 0.17749756 -0.77585574
vn -0.74223426 0.22828243 -0.63005987
vn 0.06118737 0.91127945 -0.40721723
vn 0.05878634 0.90338212 -0.42478808
vn 0.75139896 -0.13279592 0.64634731
vn 0.64089406 -0.08305217 0.76312328
vn 0.04666411 0.87453772 -0.48270720
vn 0.57058902 -0.06105567 0.81896299
vn 0.08913858 0.96832992 -0.23321981
vn -0.80481319 0.24790689 -0.53927534
vn 0.09702149 0.96641504 -0.23796806
vn 0.80779473 -0.24501903 0.53612810
vn 0.10683007 0.98460420 -0.13835429
vn -0.88393632 0.27415075 -0.37881124
vn 0.88229993 -0.27092429 0.38489850
vn 0.12148753 0.99091428 -0.05770335
vn -0.86662679 0.40730034 -0.28820904
vn 0.12330892 0.99196138 -0.02841719
vn 0.90771141 -0.18065164 0.37871490
vn 0.13440516 0.98656911 0.09282586
vn 0.93149744 -0.29334964 0.21507790
vn 0.46997556 -0.00126766 0.88267852
vn 0.05384761 -0.59718437 -0.80029448
vn 0.02708955 0.65355950 -0.75639020
vn 0.01808876 0.01426876 -0.99973456
vn -0.68270983 -0.21297480 -0.69896282
vn -0.28505414 -0.78375072 -0.55179610
vn -0.98041265 -0.00001950 0.19695439
vn -0.92609031 -0.00006747 0.37730192
vn -0.92184748 -0.11796438 0.36916341
vn -0.12423040 -0.92558691 0.35756912
vn -0.92188833 0.11746145 0.36922176
vn -0.13102532 0.92392128 0.35944656
vn -0.83555716 0.08365387 0.54299748
vn -0.08643268 0.93362336 0.34767344
vn -0.00868352 0.94783283 0.31864954
vn -0.76795911 0.06723081 0.63696062
vn -0.64424939 0.03456636 0.76403396
vn -0.83308220 0.00047843 0.55314900
vn -0.77058437 -0.01175045 0.63722967
vn -0.63945072 -0.00806716 0.76878976
vn -0.83606441 -0.08420793 0.54213037
vn -0.08609278 -0.93372330 0.34748934
vn -0.00451875 -0.94925774 0.31446674
vn -0.63656932 -0.04485068 0.76991423
vn -0.77000478 -0.07955327 0.63305917
vn -0.56906427 -0.02351384 0.82195679
vn 0.02835228 -0.95443317 0.29707486
vn -0.42515928 -0.03588193 0.90440703
vn 0.01746148 -0.93611256 0.35126682
vn -0.10825683 0.89042026 0.44207716
vn -0.56463304 -0.00591114 0.82532090
vn 0.13172278 0.94852071 0.28802358
vn -0.38207349 -0.04660363 0.92295609
vn -0.42354138 0.21166147 0.88080198
vn 0.01041231 0.94155098 0.33670957
vn 0.07911920 -0.00209357 0.99686296
vn 0.01952700 0.93208399 0.36171554
vn -0.01906326 0.83265330 0.55346641
vn -0.30514518 -0.08492658 0.94851141
vn -0.00787757 -0.00430087 0.99995972
vn -0.02423115 -0.70894157 0.70485084
vn 0.02152721 -0.94417650 0.32873594
vn 0.08192473 -0.00295580 0.99663414
vn 0.46093660 -0.01310062 -0.88733636
vn 0.16786352 -0.04184619 0.98492169
vn 0.05267556 -0.91641773 0.39674152
vn 0.16782063 -0.04089965 0.98496876
vn 0.46955513 0.00727852 -0.88287315
vn 0.06636241 0.93799704 0.34023166
vt 0.33282100 0.98002900
vt 0.82341400 0.03849600
vt 0.32958400 0.97814800
vt 0.82222200 0.01424700
vt 0.42674400 0.95945600
vt 0.42674400 0.95945600
vt 0.82485900 0.04111100
vt 0.33061800 0.98196200
vt 0.42839600 0.93205700
vt 0.92972600 0.08065400
vt 0.33687000 0.97656900
vt 0.81924300 0.03378100
vt 0.92495000 0.08061100
vt 0.33178500 0.97340700
vt 0.93009500 0.08642700
vt 0.92425900 0.07816800
vt 0.81357800 0.02982100
vt 0.92530100 0.08605200
vt 0.92555300 0.09164600
vt 0.91967800 0.08586000
vt 0.91928800 0.07981300
vt 0.91302800 0.07943800
vt 0.80832900 0.02723300
vt 0.91919400 0.07716100
vt 0.80226500 0.02529300
vt 0.91333000 0.07710500
vt 0.91344200 0.08585700
vt 0.91373900 0.09245400
vt 0.90683300 0.08604300
vt 0.90713600 0.09276900
vt 0.90717000 0.09408200
vt 0.50620800 0.78387000
vt 0.50682800 0.77702400
vt 0.90030800 0.09324200
vt 0.90010500 0.08641100
vt 0.89351600 0.08694700
vt 0.78819900 0.02436200
vt 0.89960300 0.07977800
vt 0.89317000 0.08157600
vt 0.78178000 0.02609600
vt 0.90616300 0.07833800
vt 0.79485400 0.02400600
vt 0.91043900 0.16908000
vt 0.80168400 0.00130400
vt 0.91467900 0.16908000
vt 0.80584100 0.00268100
vt 0.91040800 0.16440400
vt 0.77578900 0.02907100
vt 0.88706300 0.08364300
vt 0.79468400 0.00006500
vt 0.90362900 0.16729100
vt 0.90386700 0.16379600
vt 0.89732700 0.16445100
vt 0.78798500 0.00000000
vt 0.89746000 0.16247200
vt 0.58973500 0.97408200
vt 0.76571000 0.03875200
vt 0.59176500 0.97964100
vt 0.88159200 0.08589000
vt 0.77053000 0.03313400
vt 0.88175500 0.08843500
vt 0.58919600 0.98015100
vt 0.52169900 0.75496200
vt 0.58760900 0.97486200
vt 0.88732000 0.08763000
vt 0.88187400 0.09105100
vt 0.51643600 0.75937900
vt 0.58657600 0.98015100
vt 0.88750500 0.09172900
vt 0.51211800 0.76463900
vt 0.50885800 0.77063200
vt 0.89376500 0.09246700
vt 0.91334200 0.14676300
vt 0.48318100 0.79035000
vt 0.90638200 0.14740500
vt 0.48244900 0.78352700
vt 0.89907900 0.15077500
vt 0.90551800 0.15187100
vt 0.51969100 0.75351600
vt 0.89952400 0.14827800
vt 0.48306900 0.77677700
vt 0.91202700 0.15270800
vt 0.91835600 0.15325300
vt 0.91116600 0.15880000
vt 0.90464000 0.15808200
vt 0.91754500 0.15899200
vt 0.91683100 0.16427000
vt 0.91622900 0.16894000
vt 0.80733800 0.00306300
vt 0.42295800 0.96890000
vt 0.92288900 0.16340200
vt 0.42839600 0.96873600
vt 0.81278100 0.00566000
vt 0.92202700 0.16759900
vt 0.92353200 0.15865100
vt 0.92426100 0.15348700
vt 0.41839300 0.96413900
vt 0.92889700 0.15779100
vt 0.41399100 0.96263800
vt 0.92951700 0.15339900
vt 0.42300300 0.96475300
vt 0.92835000 0.16183100
vt 0.41750300 0.95858700
vt 0.42309700 0.95969000
vt 0.42332500 0.95387200
vt 0.42495900 0.93681600
vt 0.42156900 0.94995300
vt 0.42074100 0.95357400
vt 0.41828000 0.95269900
vt 0.50355800 0.81399400
vt 0.42433800 0.93625700
vt 0.42345900 0.93089800
vt 0.52468100 0.81370800
vt 0.32600400 0.97985500
vt 0.41398000 0.95733500
vt 0.49723800 0.81067000
vt 0.41069400 0.96083200
vt 0.92995700 0.14969700
vt 0.49241100 0.80683300
vt 0.51659700 0.80822600
vt 0.93047700 0.09241200
vt 0.32600400 0.97180600
vt 0.52177200 0.81224100
vt 0.32624800 0.97697400
vt 0.48802300 0.80160300
vt 0.92469900 0.14811900
vt 0.51182000 0.80249800
vt 0.92519200 0.09422700
vt 0.48505800 0.79618800
vt 0.91923800 0.14720100
vt 0.92016900 0.09497200
vt 0.50896000 0.79719700
vt 0.91774300 0.14691800
vt 0.48459100 0.79468800
vt 0.91995800 0.09207500
vt 0.50700100 0.79100100
vt 0.91418300 0.09497200
vt 0.32671600 0.98376700
vt 0.42639300 0.92826200
vt 0.42639300 0.92826200
vt 0.42639300 0.92826200
vt 0.42683500 0.96458700
vt 0.81799600 0.00928800
vt 0.89821900 0.15686800
vt 0.89214800 0.15520200
vt 0.89117200 0.16078100
vt 0.78126900 0.00124800
vt 0.89280900 0.14894900
vt 0.48505000 0.77009300
vt 0.88729300 0.14867500
vt 0.48818500 0.76445100
vt 0.49246300 0.75927100
vt 0.88236000 0.14775100
vt 0.27887400 0.97180600
vt 0.88666100 0.15314900
vt 0.88213100 0.15128500
vt 0.28250800 0.97217400
vt 0.88610400 0.15726500
vt 0.77563100 0.00394100
vt 0.77049200 0.00789800
vt 0.28506600 0.97329600
vt 0.88159200 0.15357200
vt 0.28258000 0.97775200
vt 0.76627800 0.01277600
vt 0.28030900 0.98259500
vt 0.76335600 0.01798600
vt 0.49759700 0.75495700
vt 0.27918500 0.97698400
vt 0.50325600 0.75192000
vt 0.27904500 0.98272100
vt 0.27887400 0.97990500
vt 0.50045500 0.75344800
vt 0.96701000 0.95701600
vt 0.51289600 0.75125600
vt 0.50524500 0.75131400
vt 0.27901800 0.98472900
vt 0.96705900 0.94881400
vt 0.76249400 0.02033800
vt 0.76242600 0.02855100
vt 0.96744400 0.95701800
vt 0.58890400 0.97180600
vt 0.96789000 0.96953300
vt 0.76455600 0.04106100
vt 0.96701000 0.96959400
vt 0.58802300 0.97184900
vt 0.52468100 0.75337600
f 3/3/3 1/1/1 8/8/8
f 11/11/11 1/1/1 3/3/3
f 12/12/12 4/4/4 2/2/2
f 2/2/2 4/4/4 7/7/7
f 10/10/10 18/18/18 13/13/13
f 13/13/13 16/16/16 10/10/10
f 10/10/10 15/15/15 18/18/18
f 11/11/11 3/3/3 14/14/14
f 4/4/4 12/12/12 17/17/17
f 21/21/21 13/13/13 18/18/18
f 15/15/15 19/19/19 18/18/18
f 20/20/20 18/18/18 19/19/19
f 21/21/21 18/18/18 20/20/20
f 21/21/21 22/22/22 26/26/26
f 21/21/21 27/27/27 22/22/22
f 13/13/13 21/21/21 16/16/16
f 21/21/21 20/20/20 27/27/27
f 24/24/24 16/16/16 21/21/21
f 26/26/26 24/24/24 21/21/21
f 27/27/27 28/28/28 30/30/30
f 20/20/20 28/28/28 27/27/27
f 22/22/22 27/27/27 29/29/29
f 27/27/27 30/30/30 29/29/29
f 31/31/31 30/30/30 28/28/28
f 34/34/34 30/30/30 31/31/31
f 35/35/35 29/29/29 30/30/30
f 35/35/35 30/30/30 34/34/34
f 38/38/38 29/29/29 35/35/35
f 36/36/36 35/35/35 34/34/34
f 36/36/36 38/38/38 35/35/35
f 39/39/39 38/38/38 36/36/36
f 37/37/37 40/40/40 44/44/44
f 38/38/38 41/41/41 29/29/29
f 44/44/44 42/42/42 37/37/37
f 23/23/23 44/44/44 46/46/46
f 47/47/47 45/45/45 43/43/43
f 47/47/47 43/43/43 51/51/51
f 44/44/44 23/23/23 25/25/25
f 40/40/40 48/48/48 44/44/44
f 48/48/48 50/50/50 44/44/44
f 44/44/44 25/25/25 42/42/42
f 55/55/55 52/52/52 51/51/51
f 47/47/47 51/51/51 52/52/52
f 53/53/53 55/55/55 51/51/51
f 54/54/54 50/50/50 57/57/57
f 57/57/57 50/50/50 60/60/60
f 48/48/48 60/60/60 50/50/50
f 58/58/58 62/62/62 56/56/56
f 59/59/59 49/49/49 61/61/61
f 62/62/62 64/64/64 56/56/56
f 62/62/62 68/68/68 64/64/64
f 61/61/61 65/65/65 69/69/69
f 65/65/65 61/61/61 49/49/49
f 69/69/69 66/66/66 61/61/61
f 74/74/74 70/70/70 71/71/71
f 36/36/36 72/72/72 69/69/69
f 76/76/76 67/67/67 70/70/70
f 76/76/76 70/70/70 74/74/74
f 65/65/65 36/36/36 69/69/69
f 77/77/77 80/80/80 75/75/75
f 78/78/78 77/77/77 75/75/75
f 82/82/82 78/78/78 75/75/75
f 82/82/82 75/75/75 73/73/73
f 63/63/63 76/76/76 79/79/79
f 76/76/76 63/63/63 67/67/67
f 81/81/81 79/79/79 76/76/76
f 84/84/84 82/82/82 83/83/83
f 83/83/83 82/82/82 73/73/73
f 78/78/78 82/82/82 84/84/84
f 85/85/85 84/84/84 47/47/47
f 78/78/78 84/84/84 85/85/85
f 84/84/84 83/83/83 86/86/86
f 87/87/87 84/84/84 86/86/86
f 87/87/87 47/47/47 84/84/84
f 47/47/47 87/87/87 88/88/88
f 87/87/87 94/94/94 88/88/88
f 87/87/87 91/91/91 94/94/94
f 87/87/87 95/95/95 91/91/91
f 87/87/87 86/86/86 95/95/95
f 98/98/98 91/91/91 95/95/95
f 96/96/96 95/95/95 86/86/86
f 96/96/96 98/98/98 95/95/95
f 96/96/96 100/100/100 98/98/98
f 97/97/97 99/99/99 103/103/103
f 98/98/98 102/102/102 91/91/91
f 97/97/97 104/104/104 101/101/101
f 97/97/97 103/103/103 104/104/104
f 101/101/101 104/104/104 6/6/6
f 104/104/104 105/105/105 6/6/6
f 103/103/103 105/105/105 104/104/104
f 5/5/5 105/105/105 106/106/106
f 105/105/105 107/107/107 106/106/106
f 105/105/105 108/108/108 107/107/107
f 103/103/103 108/108/108 105/105/105
f 103/103/103 109/109/109 108/108/108
f 107/107/107 108/108/108 109/109/109
f 109/109/109 112/112/112 111/111/111
f 107/107/107 109/109/109 111/111/111
f 116/116/116 113/113/113 110/110/110
f 103/103/103 115/115/115 109/109/109
f 117/117/117 115/115/115 103/103/103
f 119/119/119 120/120/120 116/116/116
f 123/123/123 113/113/113 116/116/116
f 116/116/116 120/120/120 123/123/123
f 114/114/114 124/124/124 3/3/3
f 124/124/124 122/122/122 14/14/14
f 14/14/14 3/3/3 124/124/124
f 15/15/15 121/121/121 19/19/19
f 121/121/121 128/128/128 19/19/19
f 125/125/125 127/127/127 120/120/120
f 125/125/125 120/120/120 119/119/119
f 134/134/134 127/127/127 129/129/129
f 129/129/129 127/127/127 125/125/125
f 128/128/128 131/131/131 135/135/135
f 132/132/132 127/127/127 134/134/134
f 135/135/135 19/19/19 128/128/128
f 28/28/28 135/135/135 137/137/137
f 20/20/20 135/135/135 28/28/28
f 20/20/20 19/19/19 135/135/135
f 135/135/135 131/131/131 137/137/137
f 32/32/32 136/136/136 74/74/74
f 31/31/31 28/28/28 137/137/137
f 74/74/74 136/136/136 132/132/132
f 130/130/130 73/73/73 133/133/133
f 74/74/74 132/132/132 134/134/134
f 83/83/83 130/130/130 126/126/126
f 83/83/83 73/73/73 130/130/130
f 96/96/96 126/126/126 118/118/118
f 83/83/83 126/126/126 96/96/96
f 117/117/117 103/103/103 99/99/99
f 96/96/96 118/118/118 100/100/100
f 111/111/111 112/112/112 140/140/140
f 3/3/3 138/138/138 114/114/114
f 111/111/111 141/141/141 106/106/106
f 106/106/106 139/139/139 9/9/9
f 138/138/138 3/3/3 8/8/8
f 106/106/106 107/107/107 111/111/111
f 106/106/106 9/9/9 5/5/5
f 142/142/142 101/101/101 6/6/6
f 142/142/142 90/90/90 101/101/101
f 93/93/93 143/143/143 4/4/4
f 142/142/142 92/92/92 90/90/90
f 96/96/96 86/86/86 83/83/83
f 89/89/89 93/93/93 17/17/17
f 93/93/93 4/4/4 17/17/17
f 88/88/88 45/45/45 47/47/47
f 46/46/46 89/89/89 17/17/17
f 144/144/144 78/78/78 85/85/85
f 85/85/85 52/52/52 55/55/55
f 85/85/85 47/47/47 52/52/52
f 85/85/85 55/55/55 144/144/144
f 144/144/144 55/55/55 146/146/146
f 148/148/148 144/144/144 145/145/145
f 144/144/144 146/146/146 145/145/145
f 148/148/148 77/77/77 144/144/144
f 144/144/144 77/77/77 78/78/78
f 150/150/150 148/148/148 145/145/145
f 149/149/149 151/151/151 81/81/81
f 148/148/148 80/80/80 77/77/77
f 151/151/151 152/152/152 81/81/81
f 153/153/153 150/150/150 155/155/155
f 150/150/150 145/145/145 155/155/155
f 153/153/153 155/155/155 156/156/156
f 156/156/156 155/155/155 158/158/158
f 158/158/158 155/155/155 145/145/145
f 159/159/159 54/54/54 160/160/160
f 156/156/156 158/158/158 162/162/162
f 159/159/159 147/147/147 54/54/54
f 158/158/158 145/145/145 146/146/146
f 160/160/160 54/54/54 164/164/164
f 157/157/157 161/161/161 163/163/163
f 157/157/157 163/163/163 168/168/168
f 164/164/164 54/54/54 166/166/166
f 168/168/168 163/163/163 165/165/165
f 157/157/157 168/168/168 154/154/154
f 152/152/152 167/167/167 172/172/172
f 165/165/165 170/170/170 168/168/168
f 168/168/168 170/170/170 171/171/171
f 172/172/172 169/169/169 175/175/175
f 81/81/81 152/152/152 172/172/172
f 172/172/172 175/175/175 174/174/174
f 79/79/79 172/172/172 174/174/174
f 172/172/172 79/79/79 81/81/81
f 170/170/170 165/165/165 176/176/176
f 178/178/178 166/166/166 179/179/179
f 173/173/173 177/177/177 180/180/180
f 173/173/173 180/180/180 184/184/184
f 179/179/179 57/57/57 183/183/183
f 166/166/166 57/57/57 179/179/179
f 180/180/180 182/182/182 184/184/184
f 181/181/181 64/64/64 185/185/185
f 79/79/79 186/186/186 63/63/63
f 186/186/186 79/79/79 174/174/174
f 181/181/181 56/56/56 64/64/64
f 166/166/166 54/54/54 57/57/57
f 146/146/146 55/55/55 53/53/53
f 74/74/74 71/71/71 33/33/33
f 74/74/74 33/33/33 32/32/32
f 34/34/34 72/72/72 36/36/36
f 36/36/36 65/65/65 49/49/49
f 39/39/39 36/36/36 49/49/49
f 46/46/46 17/17/17 23/23/23
f 22/22/22 41/41/41 26/26/26
f 22/22/22 29/29/29 41/41/41

