# Blender 4.1.1
# www.blender.org
mtllib link_leg_0_R_0.mtl
o link_leg_0_R_0
v -2.139148 2.747011 -1.204684
v -1.814769 6.275641 -0.214685
v -2.304599 2.803831 -0.661058
v -1.038211 5.643220 -1.734033
v -1.124156 2.943863 -1.964386
v -1.504871 2.718708 -1.976161
v -2.352817 2.274721 -1.746274
v -2.929042 2.088199 -0.830261
v -2.747814 1.801417 -1.674760
v -2.835639 0.856771 -2.203108
v 0.084485 3.149249 -1.921136
v 1.290314 2.888438 -1.894674
v 2.047859 2.510561 -1.766855
v 2.782345 2.173199 -1.083692
v 2.389763 2.683398 -0.882512
v 1.645760 2.853062 -1.668357
v 1.292904 4.959625 -1.734906
v 1.578469 5.093548 -1.491133
v 2.004898 3.125288 -0.079976
v 2.882637 2.259427 0.617782
v 1.914257 3.075699 0.738811
v 3.176838 1.850522 -0.419271
v 3.530022 1.107349 -0.131630
v 3.370903 0.932684 -1.195691
v 3.653145 0.162304 -0.500297
v 3.404289 -0.182196 -1.430687
v 3.085373 0.556290 -1.939032
v 3.002785 1.486927 -1.543419
v -1.100651 -2.425617 -2.548208
v -0.946953 -3.020835 -1.909345
v 0.283939 -2.837431 -2.342795
v 1.245342 -2.940631 -1.878272
v 0.143993 -3.360892 -1.547966
v -1.293682 -3.282800 -1.118984
v 0.020545 -3.625488 -0.706217
v 0.932334 -3.430643 -1.010482
v 1.679832 -3.271742 -0.307876
v 1.970466 -2.882232 -1.225654
v 0.581199 -3.651975 0.046941
v 0.768512 -3.456573 1.073748
v 1.554469 -3.336799 0.374152
v -0.217042 -3.677367 0.359158
v -1.123734 -3.508696 -0.294766
v -0.304760 -3.404987 1.381127
v -1.003300 -3.443616 0.918062
v -1.547600 -2.857295 1.740580
v -0.631737 -3.115502 1.885896
v -1.821038 -3.214972 -0.163775
v -2.052807 -2.972085 0.803117
v -2.382526 -2.424448 1.462525
v -2.626385 -2.588738 -0.026264
v -2.764507 -2.378264 0.573336
v -3.244019 -1.534796 0.914927
v -3.266876 -1.744473 0.130168
v -3.595123 -0.681302 -0.562892
v -3.137981 -1.897478 -0.514714
v -3.604816 -0.740081 0.319972
v -3.412475 -0.606511 1.277922
v -3.681530 0.200781 0.187007
v -3.546345 0.182666 0.995918
v -3.320152 1.133538 1.170458
v -3.307258 0.124535 1.644757
v -2.999389 0.243769 2.159957
v -2.866340 -0.762002 2.197555
v -2.365684 0.667194 2.759607
v -2.822158 1.273982 2.017535
v -2.378208 -0.247845 2.804055
v -1.748226 0.014383 3.251743
v -2.276585 -1.068923 2.711637
v -1.785168 -1.024371 3.071091
v -1.734833 -2.197398 2.404813
v -2.296055 -1.909084 2.181359
v -1.251263 -1.841263 2.943720
v -1.126770 -0.313334 3.505465
v -1.094223 -1.084626 3.345337
v -0.519196 -1.766539 3.215677
v -0.625908 -0.462548 3.617115
v -0.956745 0.558868 3.518489
v 0.351353 -1.162176 3.498559
v -0.002590 0.073093 3.691610
v 0.290081 -0.604733 3.623549
v 0.713970 -0.158628 3.626900
v 1.813961 0.006407 3.211690
v 1.424072 -0.669590 3.333080
v 0.574814 0.743176 3.566682
v 1.349117 0.560796 3.393652
v 0.923672 1.464793 3.262507
v 1.991642 0.841093 2.992087
v 1.570454 1.855493 2.791571
v 2.293880 1.383965 2.548231
v 1.279763 2.547360 2.346265
v 0.518025 2.185244 2.926989
v 2.131435 2.518665 1.688088
v 1.666985 2.978051 1.448239
v 2.765789 2.036145 1.368240
v 2.729416 1.660214 1.844101
v 2.693676 0.594850 2.463113
v 3.247227 1.320184 1.158093
v 3.237308 0.587931 1.672204
v 3.380558 -0.379813 1.435110
v 2.862694 -0.320799 2.315935
v 3.588100 0.710856 0.562223
v 3.599861 0.024972 0.819689
v 3.643677 -0.589278 0.211239
v 3.357139 -1.163377 0.984478
v 3.245201 -1.769087 0.257224
v 3.560001 -0.809824 -0.577570
v 3.247989 -1.084597 -1.405355
v 3.172103 -1.786354 -0.596761
v 2.401561 -2.672408 -0.894989
v 2.771007 -1.921441 -1.530371
v 2.550708 -2.673031 -0.109634
v 2.449020 -2.717511 0.492286
v 2.376739 -2.517293 1.278280
v 2.879924 -2.015460 1.168492
v 2.670726 -1.777773 1.826208
v 3.052082 -0.906290 1.861548
v 2.506885 -1.192760 2.424950
v 1.956169 -0.994399 2.962696
v 2.093891 -2.039628 2.277255
v 2.335052 -0.340142 2.836419
v 1.721096 -2.927057 1.461140
v 1.258609 -2.524278 2.400421
v 1.326957 -1.558937 3.080399
v 0.519493 -2.278192 2.866281
v 0.328300 -3.109634 1.955489
v -0.126473 -2.624394 2.591168
v -0.984574 -2.638540 2.395464
v 1.022350 -3.205040 1.512372
v 2.113739 -1.739243 -2.468659
v 1.785278 -2.535667 -2.008189
v 2.616889 -1.420813 -2.174341
v 2.879051 -0.367266 -2.298688
v 1.751195 5.595843 0.833542
v 1.351369 6.454240 2.173435
v 0.680600 2.855271 2.199790
v 0.202286 2.977457 2.196160
v 0.641675 6.387171 2.523546
v -0.144218 5.073923 2.428693
v -0.455554 6.919666 2.424066
v -0.916968 5.565845 1.997877
v -1.047805 3.093935 1.699860
v -1.801193 3.040084 1.062755
v -0.799632 2.758276 2.316499
v -1.677841 2.827789 1.675569
v -2.365459 2.522631 1.304880
v -1.200885 2.365862 2.582861
v -2.144142 2.193566 2.050362
v -2.791946 2.101775 1.223972
v -2.057682 1.650907 2.592312
v -1.691227 0.917925 3.143309
v -1.224899 1.674080 3.050167
v -0.754787 1.266916 3.381842
v -0.347702 2.158644 2.984199
v 0.142323 1.513265 3.358077
v -0.175251 0.801251 3.593018
v -2.169154 2.987207 0.307730
v -3.136230 1.944046 0.283410
v -3.508098 1.186536 -0.023031
v -2.662006 2.548036 -0.111343
v -3.492477 0.786379 -0.926496
v -3.207386 1.372453 -1.221962
v -3.234848 0.105535 -1.826229
v -3.206131 -0.807458 -1.665229
v -3.581157 0.040460 -0.902087
v -3.009212 -0.031940 -2.143673
v -2.539017 -1.374125 -2.299020
v -1.780800 -2.261714 -2.323495
v -2.627480 -1.776621 -1.897888
v -2.013771 -2.682580 -1.544433
v -2.613419 -2.221330 -1.359442
v -3.150387 -1.455977 -1.243629
v -2.375050 -2.719316 -0.766585
v -1.468543 5.922019 1.321379
v -1.812968 6.347456 0.565210
v -1.990729 7.241298 0.165737
v -1.609000 7.471159 1.549276
v -1.414587 9.262952 0.027065
v -0.143855 9.747550 1.591595
v -1.128836 9.518332 1.141913
v -0.682448 10.317973 0.905729
v -0.810385 10.416942 0.265513
v -0.049887 10.733380 0.727107
v -0.201548 10.730470 0.062171
v 0.259477 10.677051 0.229026
v 0.884134 9.910237 -0.075663
v 0.894510 10.072810 0.652506
v 1.339299 8.852870 -0.435109
v 0.720674 9.567634 1.420256
v 1.812989 7.648493 0.993845
v 1.126370 7.590515 -0.489160
v -1.536693 6.801065 -1.045789
v -2.941242 -1.459221 1.687586
v -2.313618 1.838448 -2.150800
v -1.974008 2.219437 -2.124480
v -1.510507 2.598604 -2.101891
v -1.498049 2.609074 -2.100981
v -2.485329 1.569982 -2.171288
v -2.820487 0.841296 -2.222028
v -2.811304 0.879495 -2.219123
v -2.567346 1.392733 -2.185715
v -0.090474 3.015505 -2.074610
v -0.072648 3.015494 -2.074785
v 0.088995 3.018352 -2.072935
v 0.527745 2.964805 -2.073953
v 1.131754 2.822496 -2.082109
v 1.320598 2.689357 -2.093388
v 1.375954 2.652630 -2.096467
v 1.896863 2.317105 -2.113275
v 2.349225 1.861632 -2.143409
v 2.405837 1.790752 -2.148494
v 2.702127 1.174839 -2.191666
v 2.784462 0.911957 -2.210766
v 2.430149 1.755447 -2.151139
v 2.504949 1.592879 -2.164383
v 2.824202 0.522626 -2.242886
v -0.190703 -2.553958 -2.622067
v -0.072651 -2.547971 -2.622622
v 0.344107 -2.534810 -2.617285
v 0.480971 -2.533050 -2.613187
v -1.114250 -2.372552 -2.582064
v -0.986025 -2.418294 -2.591988
v -0.989273 -2.417077 -2.591779
v -0.567264 -2.512128 -2.612900
v -0.492431 -2.519618 -2.615759
v 0.797676 -2.446212 -2.595868
v 2.485930 -1.212494 -2.405640
v 2.851818 -0.391346 -2.319866
v 2.114033 -1.737785 -2.469163
v 2.113162 -1.738743 -2.469291
v 2.858150 -0.366535 -2.317571
v 2.861580 -0.344369 -2.315660
v 2.108968 -1.742255 -2.469823
v 1.534861 -2.181767 -2.539020
v 1.593451 -2.136499 -2.532337
v 1.471782 -2.210197 -2.544443
v 0.837954 -2.431603 -2.593328
v 2.856434 -0.246313 -2.308483
v -2.866767 0.034430 -2.290279
v -2.828107 -0.245539 -2.316514
v -2.681999 -0.731169 -2.365638
v -2.685370 -0.719786 -2.364556
v -2.359615 -1.398266 -2.436899
v -2.511801 -1.176909 -2.410415
v -1.960526 -1.804592 -2.493029
v -1.798532 -1.970571 -2.515069
v -1.638879 -2.085396 -2.532536
v -0.527589 10.141047 -0.451240
v -0.532314 10.130995 -0.454147
v -0.519214 10.148645 -0.449185
v 0.245385 10.111477 -0.464299
v -0.072647 10.107239 -0.475084
v 0.339797 10.062444 -0.476351
v 0.440123 9.954045 -0.506232
v 0.533225 9.759719 -0.562391
v 0.797378 8.435380 -0.956178
v 0.582084 7.928381 -1.116384
v 0.976327 6.764819 -1.457521
v 0.986356 6.576027 -1.514482
v -0.041710 6.133749 -1.679337
v -0.072647 6.129825 -1.681451
v -0.885281 5.883999 -1.731736
v 0.985242 6.493898 -1.539426
v 1.084240 6.296370 -1.596380
v 1.060380 6.088261 -1.660213
v -0.966961 6.378442 -1.579329
v -1.023326 8.140674 -1.043153
v -0.887953 9.013802 -0.782373
v -1.033013 2.875914 -2.079215
v -1.126763 2.840531 -2.081790
v -1.397191 2.676083 -2.095360
vn -0.9794 0.1460 -0.1392
vn -0.9732 0.0169 -0.2293
vn -0.8260 0.1550 -0.5420
vn -0.8300 0.1172 -0.5453
vn -0.6926 0.6955 -0.1913
vn -0.6326 0.6929 -0.3460
vn -0.6260 0.6166 -0.4774
vn -0.6077 0.0867 -0.7894
vn -0.3035 0.7654 -0.5675
vn -0.4579 0.7225 -0.5179
vn -0.5178 0.6030 -0.6068
vn -0.6354 0.4936 -0.5939
vn -0.4944 0.6395 -0.5887
vn -0.7978 0.5632 -0.2152
vn -0.7533 0.4667 -0.4633
vn -0.7043 0.4235 -0.5697
vn -0.7715 0.2397 -0.5894
vn -0.7194 0.3460 -0.6023
vn -0.7147 0.1384 -0.6856
vn -0.7303 0.3839 -0.5650
vn -0.0059 0.7572 -0.6531
vn 0.0278 0.7900 -0.6125
vn 0.0440 0.7572 -0.6517
vn 0.1837 0.8502 -0.4934
vn 0.3768 0.7293 -0.5711
vn 0.4342 0.6734 -0.5983
vn 0.5657 0.6699 -0.4809
vn 0.4295 0.6957 -0.5757
vn 0.7606 0.5744 -0.3025
vn 0.6630 0.5815 -0.4715
vn 0.4983 0.6462 -0.5781
vn 0.6361 0.7415 -0.2135
vn 0.4794 0.7385 -0.4741
vn 0.6071 0.1175 -0.7859
vn 0.6066 0.1333 -0.7838
vn 0.5507 0.0659 -0.8321
vn 0.5405 0.0640 -0.8389
vn 0.9763 0.2163 0.0067
vn 0.9725 0.0472 -0.2280
vn 0.9415 0.3161 0.1168
vn 0.6549 0.7549 -0.0339
vn 0.9358 0.3198 0.1484
vn 0.7772 0.6138 0.1389
vn 0.6350 0.7426 0.2131
vn 0.8513 0.5136 -0.1073
vn 0.9512 0.3072 -0.0308
vn 0.9150 0.2531 -0.3142
vn 0.8173 0.4117 -0.4032
vn 0.9904 0.0474 -0.1302
vn 0.9225 -0.0410 -0.3838
vn 0.8332 0.1460 -0.5334
vn 0.7949 0.2503 -0.5526
vn 0.7850 0.3311 -0.5235
vn 0.7037 0.5521 -0.4471
vn 0.7330 0.4859 -0.4760
vn 0.7501 0.3887 -0.5350
vn 0.7481 0.1074 -0.6549
vn 0.1657 -0.7127 -0.6816
vn -0.0718 -0.7584 -0.6478
vn 0.0308 -0.6750 -0.7372
vn -0.2624 -0.5660 -0.7816
vn -0.3006 -0.6612 -0.6873
vn -0.3391 -0.5662 -0.7513
vn -0.2434 -0.8216 -0.5155
vn -0.2089 -0.7155 -0.6667
vn -0.1395 -0.7652 -0.6285
vn 0.0682 -0.7747 -0.6287
vn -0.1016 -0.7793 -0.6183
vn 0.2577 -0.7130 -0.6520
vn 0.0196 -0.9055 -0.4239
vn 0.3176 -0.7989 -0.5108
vn -0.3381 -0.8903 -0.3051
vn -0.0189 -0.9809 -0.1938
vn 0.2628 -0.9278 -0.2649
vn 0.5223 -0.7838 -0.3358
vn 0.4522 -0.8870 -0.0939
vn 0.1702 -0.9854 0.0091
vn -0.0636 -0.9932 0.0975
vn 0.1986 -0.9392 0.2800
vn 0.4266 -0.8971 0.1148
vn -0.2828 -0.9564 -0.0728
vn -0.2875 -0.9270 0.2410
vn -0.0611 -0.9302 0.3620
vn -0.4232 -0.7792 0.4624
vn -0.5423 -0.8127 0.2134
vn -0.1737 -0.8433 0.5086
vn -0.4953 -0.8679 -0.0369
vn -0.6483 -0.6499 0.3966
vn -0.7069 -0.7072 -0.0127
vn -0.7491 -0.6404 0.1693
vn -0.8719 -0.4165 0.2576
vn -0.8868 -0.4611 0.0316
vn -0.9761 -0.1982 0.0897
vn -0.9689 -0.1939 -0.1536
vn -0.8463 -0.5103 -0.1530
vn -0.9212 -0.1692 0.3504
vn -0.9967 0.0647 0.0485
vn -0.9665 0.0620 0.2490
vn -0.9014 0.3029 0.3095
vn -0.8904 0.0262 0.4543
vn -0.8091 0.0662 0.5839
vn -0.7828 -0.2055 0.5874
vn -0.6471 -0.0637 0.7597
vn -0.6412 0.1830 0.7453
vn -0.7650 0.3470 0.5425
vn -0.4781 0.0067 0.8783
vn -0.4792 -0.2846 0.8303
vn -0.6166 -0.3093 0.7239
vn -0.4732 -0.5892 0.6549
vn -0.3531 -0.4991 0.7913
vn -0.6223 -0.5046 0.5984
vn -0.2847 -0.3001 0.9104
vn -0.3201 -0.0775 0.9442
vn -0.1258 -0.4769 0.8699
vn -0.1518 -0.1360 0.9790
vn -0.2623 0.1463 0.9538
vn -0.0140 0.0284 0.9995
vn 0.0957 -0.3299 0.9392
vn 0.0677 -0.1671 0.9836
vn 0.2128 -0.0455 0.9760
vn 0.1556 0.2046 0.9664
vn 0.3747 -0.1805 0.9094
vn 0.4958 -0.0008 0.8684
vn 0.3644 0.1615 0.9171
vn 0.2662 0.3916 0.8808
vn 0.4306 0.5005 0.7511
vn 0.5300 0.2271 0.8170
vn 0.6235 0.3932 0.6758
vn 0.5828 0.6648 0.4674
vn 0.1456 0.6022 0.7850
vn 0.3440 0.6949 0.6315
vn 0.4917 0.7599 0.4252
vn 0.7464 0.5543 0.3683
vn 0.7359 0.4326 0.5209
vn 0.7328 0.1604 0.6612
vn 0.8748 0.1608 0.4571
vn 0.8840 0.3576 0.3012
vn 0.7800 -0.0784 0.6209
vn 0.9173 -0.0980 0.3860
vn 0.9767 0.0013 0.2145
vn 0.9696 0.1925 0.1511
vn 0.9852 -0.1585 0.0647
vn 0.9114 -0.3108 0.2699
vn 0.8766 -0.4770 0.0637
vn 0.9620 -0.2263 -0.1530
vn 0.8749 -0.2944 -0.3846
vn 0.8571 -0.4885 -0.1635
vn 0.6951 -0.7182 -0.0317
vn 0.6625 -0.7102 -0.2382
vn 0.7408 -0.5300 -0.4128
vn 0.6522 -0.7436 0.1474
vn 0.7863 -0.5353 0.3085
vn 0.6266 -0.6974 0.3479
vn 0.7333 -0.4707 0.4906
vn 0.8279 -0.2632 0.4954
vn 0.6753 -0.3243 0.6625
vn 0.5337 -0.2793 0.7982
vn 0.5568 -0.5529 0.6199
vn 0.6303 -0.0830 0.7719
vn 0.4736 -0.7921 0.3851
vn 0.3361 -0.6867 0.6446
vn 0.3539 -0.4277 0.8318
vn 0.1391 -0.6091 0.7808
vn -0.0336 -0.7099 0.7035
vn 0.0954 -0.8382 0.5369
vn -0.2651 -0.7055 0.6572
vn 0.2852 -0.8590 0.4252
vn 0.5068 -0.6693 -0.5433
vn 0.5707 -0.4757 -0.6694
vn 0.7174 -0.3771 -0.5857
vn 0.7787 -0.0949 -0.6202
vn 0.7135 -0.2228 -0.6643
vn 0.6874 -0.3015 -0.6607
vn 0.6087 -0.3659 -0.7039
vn 0.4905 -0.4073 -0.7704
vn 0.6671 -0.0739 -0.7413
vn 0.7286 0.0495 -0.6832
vn 0.5161 -0.5714 -0.6381
vn 0.4377 -0.6390 -0.6325
vn 0.5188 -0.5782 -0.6297
vn 0.3381 -0.6892 -0.6408
vn 0.2927 -0.6923 -0.6596
vn 0.7507 0.0873 -0.6549
vn 0.9476 0.0438 0.3165
vn 0.9411 0.0483 0.3347
vn 0.9574 0.0073 0.2887
vn 0.7140 0.0874 0.6946
vn 0.3259 -0.1124 0.9387
vn 0.6110 -0.1081 0.7842
vn 0.2120 0.7345 0.6447
vn 0.0231 0.7369 0.6756
vn -0.2545 -0.0886 0.9630
vn -0.1792 -0.1377 0.9741
vn 0.2100 0.0887 0.9737
vn -0.3099 0.1308 0.9417
vn -0.6449 -0.0584 0.7620
vn -0.5407 -0.0979 0.8355
vn -0.8161 0.0207 0.5775
vn -0.4460 0.7623 0.4690
vn -0.2953 0.8103 0.5061
vn -0.5310 0.7865 0.3155
vn -0.1984 0.7640 0.6139
vn -0.6412 0.6886 0.3386
vn -0.5834 0.5911 0.5569
vn -0.3379 0.6371 0.6928
vn -0.5580 0.4423 0.7022
vn -0.7627 0.5608 0.3221
vn -0.4537 0.2506 0.8552
vn -0.3361 0.4496 0.8276
vn -0.0905 0.5871 0.8044
vn -0.2039 0.3486 0.9148
vn 0.0327 0.4100 0.9115
vn -0.0499 0.2180 0.9747
vn -0.8435 0.5313 0.0791
vn -0.6775 0.7242 0.1284
vn -0.9487 0.3163 -0.0035
vn -0.7316 0.6816 -0.0119
vn -0.8689 0.3670 -0.3322
vn -0.9460 0.2119 -0.2455
vn -0.8791 0.0441 -0.4745
vn -0.7808 -0.0285 -0.6242
vn -0.9720 0.0076 -0.2349
vn -0.8647 -0.2225 -0.4503
vn -0.7261 0.0424 -0.6863
vn -0.7665 -0.1434 -0.6260
vn -0.7793 -0.1736 -0.6021
vn -0.7725 -0.2065 -0.6005
vn -0.7240 -0.2608 -0.6386
vn -0.5852 -0.4327 -0.6857
vn -0.6864 -0.3650 -0.6289
vn -0.4878 -0.6126 -0.6219
vn -0.7077 -0.4856 -0.5133
vn -0.5759 -0.4736 -0.6664
vn -0.5349 -0.4869 -0.6905
vn -0.5341 -0.7323 -0.4224
vn -0.7124 -0.6010 -0.3622
vn -0.8587 -0.3933 -0.3286
vn -0.6385 -0.7415 -0.2061
vn -0.4103 -0.5406 -0.7345
vn -0.8582 -0.0482 0.5110
vn -0.9749 -0.0372 0.2193
vn -0.9623 0.0831 0.2591
vn -0.8096 0.1359 0.5710
vn -0.9941 0.0917 -0.0583
vn -0.9273 0.3336 0.1695
vn -0.0843 0.4778 0.8744
vn -0.9122 0.3706 0.1747
vn -0.4552 0.3487 0.8193
vn -0.3265 0.5847 0.7427
vn -0.6904 0.6813 0.2433
vn -0.6851 0.7056 0.1811
vn -0.6413 0.5965 -0.4826
vn -0.7297 0.4626 -0.5035
vn -0.7637 0.3555 -0.5388
vn -0.5230 0.7057 -0.4780
vn -0.6525 0.5844 -0.4824
vn -0.4595 0.8740 0.1579
vn -0.4307 0.8976 0.0943
vn 0.1863 0.7111 -0.6779
vn 0.0169 0.6548 -0.7556
vn 0.5583 0.7974 -0.2289
vn 0.2189 0.7191 -0.6596
vn 0.1269 0.9914 -0.0333
vn 0.7557 0.5526 -0.3515
vn 0.4806 0.6875 -0.5443
vn 0.7720 0.5971 0.2180
vn 0.2931 0.7498 0.5933
vn 0.9734 0.1644 0.1599
vn 0.8382 0.2483 -0.4855
vn 0.5405 0.4547 0.7079
vn 0.9503 0.0570 -0.3060
vn 0.6130 0.4541 -0.6466
vn 0.5929 0.5866 -0.5517
vn 0.6800 0.0316 -0.7325
vn 0.8559 0.0453 -0.5151
vn 0.7265 -0.0934 -0.6808
vn 0.7875 0.4034 -0.4660
vn 0.9320 0.1915 -0.3077
vn 0.9576 0.1025 -0.2691
vn -0.1140 0.1075 -0.9876
vn 0.0728 -0.0367 -0.9967
vn 0.0261 0.0583 -0.9980
vn 0.9568 0.0725 -0.2814
vn 0.8965 0.3872 0.2154
vn 0.5909 0.1739 -0.7878
vn 0.0258 0.0783 -0.9966
vn 0.0202 0.0702 -0.9973
vn -0.5563 0.2224 -0.8007
vn -0.1356 0.0955 -0.9862
vn -0.8112 0.0959 -0.5769
vn -0.7345 0.2827 -0.6169
vn -0.7400 0.3336 -0.5841
vn -0.7927 -0.3978 0.4618
vn 0.0281 0.0822 -0.9962
vn 0.0385 0.0768 -0.9963
vn 0.0213 0.0843 -0.9962
vn -0.0877 0.7984 -0.5958
vn -0.1691 0.7835 -0.5979
vn -0.3395 0.7098 -0.6172
vn -0.4001 0.6866 -0.6070
vn -0.4646 0.6526 -0.5986
vn 0.0286 0.2901 -0.9566
vn 0.0097 0.0980 -0.9951
vn 0.0286 0.0942 -0.9951
vn 0.0464 0.0868 -0.9951
vn 0.0625 0.0761 -0.9951
vn -0.0625 0.0761 -0.9951
vn -0.0464 0.0868 -0.9951
vn -0.0286 0.0942 -0.9951
vn -0.0286 0.2901 -0.9566
vn -0.0096 0.0980 -0.9951
vn 0.2879 0.8007 -0.5253
vn 0.0308 -0.6749 -0.7373
vn 0.0096 0.0980 -0.9951
vn 0.0286 0.0943 -0.9951
vn 0.0465 0.0868 -0.9951
vn 0.0645 0.0763 -0.9950
vn 0.0629 0.0761 -0.9951
vn -0.0287 0.0942 -0.9951
vn -0.0287 0.2902 -0.9565
vn -0.0097 0.0980 -0.9951
vn -0.0097 0.0979 -0.9951
vt 0.372261 0.471990
vt 0.377432 0.494097
vt 0.368644 0.472410
vt 0.367056 0.493215
vt 0.364746 0.469312
vt 0.201664 0.875675
vt 0.193817 0.894757
vt 0.194927 0.876874
vt 0.363833 0.476727
vt 0.363580 0.474370
vt 0.362244 0.470198
vt 0.361801 0.467010
vt 0.362673 0.473702
vt 0.370637 0.466110
vt 0.364887 0.465358
vt 0.361482 0.464942
vt 0.360793 0.459710
vt 0.360703 0.459922
vt 0.360659 0.459667
vt 0.361268 0.463659
vt 0.690130 0.963131
vt 0.690506 0.961998
vt 0.691093 0.962844
vt 0.693847 0.962052
vt 0.698255 0.959537
vt 0.699228 0.960579
vt 0.703356 0.957100
vt 0.699643 0.960472
vt 0.707177 0.951205
vt 0.707231 0.958424
vt 0.703507 0.959398
vt 0.703373 0.951035
vt 0.700038 0.957457
vt 0.178468 0.889766
vt 0.176531 0.890571
vt 0.176531 0.875699
vt 0.178898 0.876030
vt 0.883491 0.343777
vt 0.881591 0.333027
vt 0.896264 0.334254
vt 0.698614 0.946967
vt 0.882978 0.349129
vt 0.704365 0.940281
vt 0.696613 0.941871
vt 0.708956 0.946025
vt 0.943235 0.372795
vt 0.948303 0.366222
vt 0.950066 0.370982
vt 0.955515 0.365588
vt 0.954557 0.373177
vt 0.957782 0.369132
vt 0.951132 0.360343
vt 0.957616 0.358439
vt 0.960810 0.363331
vt 0.962631 0.365581
vt 0.962428 0.367227
vt 0.707729 0.958299
vt 0.710801 0.953165
vt 0.707953 0.958244
vt 0.962173 0.369792
vt 0.963015 0.363077
vt 0.936701 0.307075
vt 0.934533 0.303171
vt 0.934928 0.303850
vt 0.932908 0.298041
vt 0.932515 0.297414
vt 0.932789 0.297168
vt 0.718757 0.954016
vt 0.714530 0.955316
vt 0.713815 0.952598
vt 0.714359 0.946627
vt 0.713695 0.952114
vt 0.712139 0.943710
vt 0.712422 0.945774
vt 0.719575 0.946360
vt 0.716083 0.939730
vt 0.724288 0.955160
vt 0.725143 0.945982
vt 0.722010 0.940499
vt 0.719386 0.934156
vt 0.725636 0.934736
vt 0.729295 0.941326
vt 0.732375 0.946097
vt 0.735781 0.938784
vt 0.730222 0.934629
vt 0.729365 0.952906
vt 0.737114 0.950522
vt 0.739214 0.945369
vt 0.743344 0.953101
vt 0.737881 0.957610
vt 0.743009 0.946890
vt 0.731218 0.957335
vt 0.742755 0.959002
vt 0.733347 0.962534
vt 0.737488 0.962682
vt 0.740572 0.965538
vt 0.735439 0.966684
vt 0.376412 0.446450
vt 0.370610 0.447373
vt 0.374558 0.441347
vt 0.370208 0.441149
vt 0.731032 0.966670
vt 0.379883 0.442202
vt 0.382850 0.447180
vt 0.376115 0.452049
vt 0.381467 0.451798
vt 0.383238 0.458062
vt 0.385744 0.451674
vt 0.389254 0.452889
vt 0.937803 0.063695
vt 0.942198 0.062099
vt 0.943570 0.067189
vt 0.388885 0.447103
vt 0.393543 0.456755
vt 0.388974 0.459701
vt 0.947802 0.064466
vt 0.945449 0.058968
vt 0.939040 0.056419
vt 0.937479 0.059289
vt 0.932076 0.052978
vt 0.935502 0.050989
vt 0.932346 0.057162
vt 0.940501 0.052055
vt 0.945098 0.054312
vt 0.937895 0.046735
vt 0.945521 0.050867
vt 0.950859 0.055606
vt 0.950439 0.048504
vt 0.943879 0.043052
vt 0.947100 0.044913
vt 0.950946 0.043525
vt 0.956065 0.046778
vt 0.949750 0.037838
vt 0.954911 0.037270
vt 0.957033 0.041579
vt 0.961406 0.046581
vt 0.965537 0.043686
vt 0.960477 0.038416
vt 0.964614 0.038024
vt 0.693167 0.928358
vt 0.698962 0.928262
vt 0.697269 0.934982
vt 0.964727 0.050971
vt 0.690830 0.932281
vt 0.968998 0.047300
vt 0.693977 0.937698
vt 0.702696 0.935516
vt 0.702351 0.932230
vt 0.932078 0.360592
vt 0.935578 0.367991
vt 0.931395 0.365390
vt 0.936901 0.361476
vt 0.939901 0.366603
vt 0.938491 0.370778
vt 0.933400 0.354810
vt 0.938861 0.355385
vt 0.942548 0.358597
vt 0.943897 0.363247
vt 0.946841 0.354970
vt 0.942251 0.350495
vt 0.947434 0.346866
vt 0.952211 0.353930
vt 0.958028 0.352369
vt 0.953120 0.347209
vt 0.950815 0.340578
vt 0.956094 0.340934
vt 0.959626 0.346556
vt 0.721024 0.930959
vt 0.725936 0.928942
vt 0.729975 0.928792
vt 0.946947 0.339837
vt 0.941822 0.344394
vt 0.941718 0.340616
vt 0.735239 0.928262
vt 0.937517 0.345382
vt 0.936560 0.351398
vt 0.933388 0.348724
vt 0.949510 0.029849
vt 0.949215 0.033732
vt 0.943264 0.030101
vt 0.954215 0.033172
vt 0.935094 0.342912
vt 0.955773 0.030011
vt 0.960884 0.033484
vt 0.737185 0.932191
vt 0.742242 0.928880
vt 0.744017 0.934040
vt 0.944094 0.036054
vt 0.938078 0.033890
vt 0.937575 0.039047
vt 0.933760 0.042052
vt 0.748091 0.938285
vt 0.742194 0.940553
vt 0.747062 0.942775
vt 0.931395 0.047235
vt 0.746919 0.948616
vt 0.748091 0.953585
vt 0.738367 0.936606
vt 0.963796 0.341996
vt 0.966181 0.347776
vt 0.963718 0.350105
vt 0.958689 0.339400
vt 0.963804 0.357314
vt 0.963976 0.357146
vt 0.965227 0.351504
vt 0.966184 0.347786
vt 0.946349 0.314318
vt 0.946350 0.314313
vt 0.946359 0.314315
vt 0.956769 0.314680
vt 0.956546 0.314590
vt 0.956711 0.314553
vt 0.956853 0.314505
vt 0.946317 0.314299
vt 0.967288 0.344433
vt 0.967179 0.344775
vt 0.714633 0.936482
vt 0.711646 0.939309
vt 0.711605 0.938898
vt 0.936566 0.312908
vt 0.938385 0.308877
vt 0.941619 0.311951
vt 0.963917 0.357460
vt 0.963822 0.358095
vt 0.707478 0.935415
vt 0.882024 0.353654
vt 0.899418 0.349761
vt 0.904544 0.358398
vt 0.306126 0.899760
vt 0.302699 0.875675
vt 0.309231 0.876812
vt 0.686864 0.934505
vt 0.685890 0.929585
vt 0.683738 0.935453
vt 0.296584 0.890157
vt 0.299488 0.876350
vt 0.301425 0.899093
vt 0.293991 0.902321
vt 0.291325 0.893225
vt 0.291169 0.876794
vt 0.286199 0.876256
vt 0.149195 0.983335
vt 0.150836 0.980414
vt 0.152118 0.986477
vt 0.148407 0.976336
vt 0.152118 0.971806
vt 0.387788 0.472348
vt 0.383857 0.473690
vt 0.385083 0.468920
vt 0.389828 0.467044
vt 0.393543 0.470235
vt 0.392063 0.473832
vt 0.961258 0.061911
vt 0.957723 0.067189
vt 0.954620 0.065217
vt 0.384246 0.465296
vt 0.393081 0.463641
vt 0.951105 0.061032
vt 0.956957 0.060213
vt 0.962251 0.056168
vt 0.955714 0.056267
vt 0.959609 0.051465
vt 0.964733 0.060516
vt 0.968748 0.055004
vt 0.954415 0.051498
vt 0.377894 0.464011
vt 0.378796 0.472867
vt 0.375359 0.458621
vt 0.375704 0.469164
vt 0.367572 0.461271
vt 0.369134 0.456783
vt 0.362779 0.453869
vt 0.360613 0.453819
vt 0.368820 0.452003
vt 0.363275 0.448298
vt 0.359698 0.454684
vt 0.941647 0.279523
vt 0.940113 0.280601
vt 0.940810 0.278900
vt 0.358751 0.450621
vt 0.358737 0.450562
vt 0.935583 0.285294
vt 0.934741 0.286863
vt 0.934327 0.285745
vt 0.358787 0.446988
vt 0.358176 0.448326
vt 0.931395 0.292922
vt 0.931650 0.286490
vt 0.933560 0.290451
vt 0.933075 0.291911
vt 0.361181 0.444065
vt 0.722634 0.960548
vt 0.721390 0.965218
vt 0.717370 0.960165
vt 0.724755 0.964308
vt 0.364465 0.441070
vt 0.365662 0.444245
vt 0.728162 0.961855
vt 0.714965 0.956002
vt 0.932884 0.293201
vt 0.387403 0.491916
vt 0.382636 0.494062
vt 0.389868 0.500823
vt 0.380538 0.499273
vt 0.380939 0.513151
vt 0.286199 0.905701
vt 0.295276 0.921228
vt 0.391704 0.490782
vt 0.388499 0.514769
vt 0.288813 0.919450
vt 0.291555 0.924898
vt 0.387478 0.520942
vt 0.383294 0.521600
vt 0.378379 0.521030
vt 0.378424 0.521168
vt 0.378405 0.521101
vt 0.386614 0.525231
vt 0.382200 0.525223
vt 0.187167 0.928170
vt 0.186462 0.924069
vt 0.189419 0.924427
vt 0.246720 0.977029
vt 0.245962 0.981594
vt 0.243535 0.976790
vt 0.246194 0.973157
vt 0.251073 0.981061
vt 0.246570 0.981950
vt 0.252762 0.976560
vt 0.912969 0.350953
vt 0.920672 0.341248
vt 0.928172 0.348203
vt 0.927188 0.343374
vt 0.254933 0.971806
vt 0.924592 0.353143
vt 0.295640 0.927846
vt 0.301071 0.920289
vt 0.248079 0.983194
vt 0.247289 0.982471
vt 0.917515 0.337429
vt 0.912179 0.340695
vt 0.914008 0.336206
vt 0.182511 0.921653
vt 0.177327 0.915460
vt 0.181037 0.912853
vt 0.906736 0.334157
vt 0.905510 0.333778
vt 0.187306 0.897796
vt 0.187100 0.897815
vt 0.904971 0.333609
vt 0.179788 0.897297
vt 0.179585 0.898667
vt 0.193192 0.899608
vt 0.192754 0.896326
vt 0.196863 0.902463
vt 0.373192 0.508009
vt 0.372289 0.498526
vt 0.375476 0.513510
vt 0.747457 0.957599
vt 0.745219 0.962557
vt 0.933390 0.062287
vt 0.385068 0.442981
vt 0.186857 0.877999
vt 0.683738 0.964172
vt 0.690022 0.963160
vt 0.684646 0.964688
vt 0.964111 0.280995
vt 0.963996 0.281728
vt 0.963502 0.281282
vt 0.362775 0.474465
vt 0.362687 0.473798
vt 0.741773 0.076872
vt 0.734922 0.068104
vt 0.749569 0.065204
vt 0.743455 0.046341
vt 0.724056 0.045085
vt 0.731146 0.012916
vt 0.696445 0.042014
vt 0.699528 0.014388
vt 0.704342 0.013168
vt 0.676336 0.039051
vt 0.667342 0.018133
vt 0.668461 0.017389
vt 0.643559 0.025912
vt 0.645158 0.018133
vt 0.647574 0.031437
vt 0.852337 0.028368
vt 0.854238 0.020546
vt 0.855021 0.023993
vt 0.835234 0.028435
vt 0.825320 0.037365
vt 0.830928 0.018120
vt 0.806729 0.039416
vt 0.785734 0.044563
vt 0.794693 0.013186
vt 0.754903 0.090658
vt 0.762231 0.064117
vt 0.761792 0.078390
vt 0.754068 0.046228
vt 0.776766 0.044563
vt 0.774909 0.044964
vt 0.697794 0.960945
vt 0.962055 0.370789
vt 0.936274 0.306272
vt 0.934283 0.306866
vt 0.932910 0.298064
vt 0.713246 0.950151
vt 0.966194 0.347753
vt 0.938177 0.308683
vt 0.359353 0.453100
vt 0.184349 0.924034
vt 0.254933 0.985184
vt 0.903765 0.333288
vt 0.193192 0.911259
vt 0.362992 0.476164
vt 0.750000 0.065160
vt 0.750000 0.090164
vt 0.746565 0.090388
vt 0.745533 0.090138
vt 0.744409 0.089519
vt 0.743310 0.088355
vt 0.739453 0.080193
vt 0.735411 0.069801
vt 0.735018 0.068621
vt 0.733185 0.066923
vt 0.733214 0.065600
vt 0.737522 0.012589
vt 0.745932 0.046228
vt 0.736641 0.046279
vt 0.727156 0.045778
vt 0.723151 0.044896
vt 0.706354 0.012916
vt 0.714349 0.044896
vt 0.705160 0.043864
vt 0.695292 0.041702
vt 0.694775 0.041539
vt 0.692943 0.040726
vt 0.700057 0.014232
vt 0.675472 0.014388
vt 0.682056 0.040726
vt 0.673305 0.037878
vt 0.669934 0.035906
vt 0.663906 0.031878
vt 0.667810 0.017722
vt 0.647398 0.031320
vt 0.647231 0.031179
vt 0.642853 0.022012
vt 0.642854 0.022004
vt 0.642870 0.021971
vt 0.648594 0.031878
vt 0.854669 0.025619
vt 0.852266 0.028435
vt 0.832265 0.019193
vt 0.833261 0.020546
vt 0.833727 0.031385
vt 0.832218 0.032996
vt 0.825723 0.037186
vt 0.818271 0.039416
vt 0.824504 0.014483
vt 0.825880 0.015079
vt 0.800453 0.014470
vt 0.800496 0.014483
vt 0.804725 0.040302
vt 0.800989 0.041560
vt 0.794272 0.043176
vt 0.793622 0.013010
vt 0.759475 0.083795
vt 0.754957 0.090598
vt 0.754810 0.090701
vt 0.762840 0.067276
vt 0.770510 0.045797
vt 0.769018 0.045956
vt 0.754342 0.046238
vt 0.762478 0.012589
vt 0.764299 0.012623
vt 0.768878 0.013010
vt 0.776559 0.044619
s 1
usemtl pleuraldeles_skin
f 177/303/243 178/305/245 176/304/244
f 179/307/246 177/306/243 140/238/195
f 177/303/243 180/309/247 178/305/245
f 180/310/248 177/306/243 179/307/246
f 181/311/249 180/310/248 179/307/246
f 181/312/250 182/313/251 180/309/247
f 180/309/247 182/313/251 178/305/245
f 182/313/252 249/314/253 178/305/254
f 182/313/252 250/315/255 248/316/256
f 181/312/250 183/317/257 182/313/251
f 182/313/251 183/317/257 184/318/258
f 184/319/259 252/320/260 250/321/260
f 185/322/261 251/323/262 184/324/259
f 183/325/263 185/322/263 184/324/263
f 186/326/264 253/327/265 185/322/261
f 187/328/266 186/326/264 185/322/261
f 183/325/267 187/328/266 185/322/261
f 190/329/268 188/330/269 187/331/266
f 188/330/269 186/332/264 187/331/266
f 189/333/270 187/328/266 183/325/267
f 189/334/270 190/329/268 187/331/266
f 135/228/187 190/329/268 189/334/270
f 183/335/267 179/307/246 189/336/270
f 189/336/270 138/237/194 135/229/187
f 189/336/270 179/307/246 138/237/194
f 186/326/264 255/337/272 254/338/273
f 255/342/272 188/343/269 256/344/274
f 4/7/280 261/347/281 260/348/282
f 18/35/35 265/350/285 264/351/285
f 17/34/286 260/348/282 265/350/287
f 266/352/288 262/353/289 4/7/280
f 192/354/290 266/352/288 4/7/280
f 178/305/254 267/355/291 192/356/290
f 249/314/253 268/357/292 178/305/254
f 176/304/244 178/305/254 192/356/290
f 181/311/249 179/307/246 183/335/267
f 138/237/194 179/307/246 140/238/195
f 182/313/252 248/316/256 249/314/253
f 182/313/252 184/318/255 250/315/255
f 184/319/259 251/410/262 252/320/260
f 185/322/261 253/327/265 251/323/262
f 186/326/264 254/338/273 253/327/265
f 186/326/264 188/411/269 255/337/272
f 4/7/280 262/353/289 261/347/281
f 18/35/35 17/34/34 265/350/285
f 17/34/286 4/7/280 260/348/282
f 192/354/290 267/413/291 266/352/288
f 178/305/254 268/357/292 267/355/291
f 3/1/1 2/2/2 1/3/3
f 1/3/3 2/2/2 4/4/4
f 3/1/5 1/3/6 7/5/7
f 1/6/3 4/7/4 5/8/8
f 1/3/6 5/9/9 6/10/10
f 1/3/6 6/10/10 7/5/7
f 7/5/7 195/11/11 194/12/12
f 6/10/10 196/13/13 195/11/11
f 8/14/14 7/5/7 9/15/15
f 3/1/5 7/5/7 8/14/14
f 9/15/15 194/12/12 198/16/16
f 10/17/17 200/18/18 199/19/19
f 9/15/15 201/20/20 200/18/18
f 203/21/21 11/22/22 204/23/23
f 11/22/22 205/24/24 204/23/23
f 12/25/25 205/24/24 11/22/22
f 207/26/26 12/25/25 13/27/27
f 13/27/27 208/28/28 207/26/26
f 14/29/29 210/30/30 13/27/27
f 210/30/30 209/31/31 13/27/27
f 13/27/27 15/32/32 14/29/29
f 15/32/32 13/27/27 16/33/33
f 16/33/33 13/27/27 12/25/25
f 17/34/34 18/35/35 16/36/36
f 17/34/34 16/36/36 12/37/37
f 19/38/38 16/39/39 18/40/40
f 19/41/41 15/32/32 16/33/33
f 21/42/42 19/38/38 18/40/40
f 20/43/43 19/41/41 21/44/44
f 20/43/43 22/45/45 19/41/41
f 19/41/41 22/45/45 15/32/32
f 20/46/43 23/47/46 22/48/45
f 22/45/45 14/29/29 15/32/32
f 24/49/47 14/50/29 22/48/45
f 23/47/46 24/49/47 22/48/45
f 14/50/29 24/49/47 28/51/48
f 25/52/49 24/49/47 23/47/46
f 26/53/50 24/49/47 25/52/49
f 26/53/50 27/54/51 24/49/47
f 24/49/47 27/54/51 28/51/48
f 28/51/48 213/55/52 212/56/53
f 211/57/54 28/58/48 214/59/55
f 215/60/56 28/51/48 212/56/53
f 213/55/52 27/54/51 216/61/57
f 220/62/58 217/63/59 218/64/60
f 223/65/61 29/66/62 221/67/63
f 30/68/64 222/69/65 224/70/66
f 31/71/67 224/70/66 225/72/68
f 226/73/69 31/71/67 220/74/58
f 33/75/70 31/71/67 32/76/71
f 33/75/70 30/68/64 31/71/67
f 34/77/72 33/75/70 35/78/73
f 34/77/72 30/68/64 33/75/70
f 36/79/74 33/75/70 32/76/71
f 33/75/70 36/79/74 35/78/73
f 38/80/75 37/81/76 36/79/74
f 37/81/76 39/82/77 36/79/74
f 36/79/74 32/76/71 38/80/75
f 35/78/73 36/79/74 39/82/77
f 42/83/78 35/78/73 39/82/77
f 39/82/77 40/84/79 42/83/78
f 39/82/77 41/85/80 40/84/79
f 41/85/80 39/82/77 37/81/76
f 35/78/73 42/83/78 43/86/81
f 42/83/78 45/87/82 43/86/81
f 42/83/78 40/84/79 44/88/83
f 44/88/83 45/87/82 42/83/78
f 45/87/82 46/89/84 49/90/85
f 47/91/86 46/89/84 45/87/82
f 45/87/82 44/88/83 47/91/86
f 48/92/87 45/87/82 49/90/85
f 48/92/87 43/86/81 45/87/82
f 46/89/84 50/93/88 49/90/85
f 48/92/87 49/90/85 51/94/89
f 50/93/88 52/95/90 49/90/85
f 51/94/89 49/90/85 52/95/90
f 53/96/91 52/95/90 50/93/88
f 54/97/92 52/95/90 53/96/91
f 54/97/92 51/94/89 52/95/90
f 57/98/93 55/99/94 54/100/92
f 55/99/94 56/101/95 54/100/92
f 56/102/95 51/94/89 54/97/92
f 57/98/93 54/100/92 53/103/91
f 58/104/96 57/98/93 53/103/91
f 59/105/97 55/99/94 57/98/93
f 57/98/93 58/104/96 60/106/98
f 59/105/97 57/98/93 60/106/98
f 59/105/97 60/106/98 61/107/99
f 61/107/99 60/106/98 62/108/100
f 62/108/100 60/106/98 58/104/96
f 58/104/96 63/109/101 62/108/100
f 61/107/99 62/108/100 63/109/101
f 64/110/102 67/111/103 63/112/101
f 63/109/101 58/104/96 64/113/102
f 63/109/101 65/114/104 66/115/105
f 65/116/104 63/112/101 67/111/103
f 63/109/101 66/115/105 61/107/99
f 67/111/103 68/117/106 65/116/104
f 68/117/106 67/111/103 70/118/107
f 64/110/102 69/119/108 67/111/103
f 69/119/108 70/118/107 67/111/103
f 70/118/107 71/120/109 73/121/110
f 70/118/107 72/122/111 71/120/109
f 72/122/111 70/118/107 69/119/108
f 73/121/110 75/123/112 70/118/107
f 68/117/106 70/118/107 74/124/113
f 70/118/107 75/123/112 74/124/113
f 75/123/112 73/121/110 76/125/114
f 77/126/115 75/123/112 76/125/114
f 74/124/113 75/123/112 77/126/115
f 77/126/115 78/127/116 74/124/113
f 80/128/117 78/127/116 77/126/115
f 76/125/114 79/129/118 77/126/115
f 81/130/119 77/126/115 79/129/118
f 80/128/117 77/126/115 81/130/119
f 82/131/120 81/130/119 79/129/118
f 80/128/117 81/130/119 82/131/120
f 80/128/117 82/131/120 85/132/121
f 84/133/122 82/131/120 79/129/118
f 82/131/120 84/133/122 83/134/123
f 83/134/123 86/135/124 82/131/120
f 86/135/124 85/132/121 82/131/120
f 85/132/121 86/135/124 87/136/125
f 86/135/124 89/137/126 87/136/125
f 86/135/124 83/134/123 88/138/127
f 86/135/124 88/138/127 89/137/126
f 88/138/127 90/139/128 89/137/126
f 89/140/126 90/141/128 93/142/129
f 89/137/126 92/143/130 87/136/125
f 89/140/126 93/142/129 91/144/131
f 92/143/130 89/137/126 91/145/131
f 93/142/129 94/146/132 91/144/131
f 21/44/44 94/146/132 93/142/129
f 93/142/129 95/147/133 20/43/43
f 96/148/134 95/147/133 93/142/129
f 20/43/43 21/44/44 93/142/129
f 93/142/129 90/141/128 96/148/134
f 97/149/135 96/150/134 90/151/128
f 99/152/136 96/150/134 97/149/135
f 98/153/137 95/154/133 96/150/134
f 98/153/137 96/150/134 99/152/136
f 101/155/138 99/152/136 97/149/135
f 100/156/139 99/152/136 101/155/138
f 100/156/139 103/157/140 99/152/136
f 98/153/137 99/152/136 102/158/141
f 99/152/136 103/157/140 102/158/141
f 104/159/142 102/158/141 103/157/140
f 103/157/140 100/156/139 104/159/142
f 100/156/139 105/160/143 104/159/142
f 106/161/144 104/159/142 105/160/143
f 107/162/145 25/52/49 104/159/142
f 102/158/141 104/159/142 25/52/49
f 104/159/142 106/161/144 107/162/145
f 107/162/145 108/163/146 26/53/50
f 26/53/50 25/52/49 107/162/145
f 107/162/145 109/164/147 108/163/146
f 109/164/147 107/162/145 106/161/144
f 109/164/147 112/165/148 110/166/149
f 110/166/149 111/167/150 109/164/147
f 111/167/150 108/163/146 109/164/147
f 106/161/144 112/165/148 109/164/147
f 110/168/149 112/169/148 37/81/76
f 37/81/76 112/169/148 41/85/80
f 112/169/148 113/170/151 41/85/80
f 113/171/151 112/165/148 106/161/144
f 113/171/151 115/172/152 114/173/153
f 113/170/151 114/174/153 41/85/80
f 115/172/152 113/171/151 106/161/144
f 116/175/154 115/172/152 117/176/155
f 115/172/152 116/175/154 114/173/153
f 115/172/152 105/160/143 117/176/155
f 106/161/144 105/160/143 115/172/152
f 105/160/143 100/156/139 117/176/155
f 100/156/139 101/155/138 117/176/155
f 101/155/138 118/177/156 117/176/155
f 116/175/154 117/176/155 118/177/156
f 118/178/156 119/179/157 120/180/158
f 119/179/157 118/178/156 121/181/159
f 120/182/158 116/175/154 118/177/156
f 118/178/156 101/183/138 121/181/159
f 121/181/159 101/183/138 97/184/135
f 88/138/127 121/181/159 97/184/135
f 88/138/127 83/134/123 121/181/159
f 119/179/157 121/181/159 83/134/123
f 122/185/160 114/174/153 120/186/158
f 120/186/158 123/187/161 122/185/160
f 124/188/162 123/189/161 120/180/158
f 120/182/158 114/173/153 116/175/154
f 119/179/157 124/188/162 120/180/158
f 124/188/162 79/129/118 125/190/163
f 79/129/118 124/188/162 84/133/122
f 124/188/162 119/179/157 84/133/122
f 123/189/161 124/188/162 125/190/163
f 76/125/114 125/190/163 79/129/118
f 127/191/164 125/190/163 76/125/114
f 123/187/161 125/192/163 126/193/165
f 127/194/164 126/193/165 125/192/163
f 126/193/165 127/194/164 47/91/86
f 128/195/166 127/191/164 76/125/114
f 128/196/166 47/91/86 127/194/164
f 128/196/166 46/89/84 47/91/86
f 76/125/114 73/121/110 128/195/166
f 128/196/166 71/197/109 46/89/84
f 73/121/110 71/120/109 128/195/166
f 123/187/161 126/193/165 129/198/167
f 44/88/83 126/193/165 47/91/86
f 126/193/165 44/88/83 40/84/79
f 40/84/79 129/198/167 126/193/165
f 122/185/160 123/187/161 129/198/167
f 122/185/160 129/198/167 40/84/79
f 122/185/160 41/85/80 114/174/153
f 122/185/160 40/84/79 41/85/80
f 83/134/123 84/133/122 119/179/157
f 111/167/150 131/199/168 130/200/169
f 111/167/150 130/200/169 132/201/170
f 38/202/75 131/199/168 111/167/150
f 38/202/75 111/167/150 110/166/149
f 111/167/150 132/201/170 108/163/146
f 108/163/146 132/201/170 133/203/171
f 228/204/172 132/201/170 227/205/173
f 132/201/170 229/206/174 227/205/173
f 130/207/169 230/208/175 229/209/174
f 133/210/171 228/211/172 231/212/176
f 133/210/171 231/212/176 232/213/177
f 130/207/169 233/214/178 230/208/175
f 130/200/169 234/215/179 235/216/180
f 131/217/168 236/218/181 234/219/179
f 32/220/71 237/221/182 236/222/181
f 27/54/51 232/223/177 238/224/183
f 26/53/50 133/203/171 27/54/51
f 108/163/146 133/203/171 26/53/50
f 32/76/71 131/217/168 38/80/75
f 110/168/149 37/81/76 38/80/75
f 23/47/46 98/153/137 102/158/141
f 102/158/141 25/52/49 23/47/46
f 20/46/43 98/153/137 23/47/46
f 98/225/137 20/43/43 95/147/133
f 90/139/128 88/138/127 97/184/135
f 94/226/184 21/42/185 134/227/186
f 94/226/184 134/227/186 135/228/187
f 135/229/187 136/230/188 94/231/189
f 91/144/131 94/146/132 136/232/190
f 92/233/130 136/232/190 137/234/191
f 139/235/192 137/236/193 136/230/188
f 136/230/188 138/237/194 139/235/192
f 138/237/194 136/230/188 135/229/187
f 139/235/192 138/237/194 140/238/195
f 139/235/192 140/238/195 141/239/196
f 139/235/192 141/239/196 142/240/197
f 139/235/192 142/240/197 137/236/193
f 143/241/198 142/240/197 141/239/196
f 145/242/199 142/243/200 143/244/201
f 142/243/200 144/245/202 137/246/191
f 145/242/199 144/245/202 142/243/200
f 145/247/199 143/248/201 146/249/203
f 146/249/203 148/250/204 145/247/199
f 145/247/199 147/251/205 144/252/202
f 145/247/199 148/250/204 147/251/205
f 147/253/205 148/254/204 150/255/206
f 146/249/203 149/256/207 148/250/204
f 149/256/207 66/115/105 148/250/204
f 66/115/105 150/257/206 148/250/204
f 151/258/208 150/255/206 65/116/104
f 152/259/209 150/255/206 151/258/208
f 152/259/209 147/253/205 150/255/206
f 150/257/206 66/115/105 65/114/104
f 154/260/210 147/253/205 152/259/209
f 153/261/211 152/259/209 151/258/208
f 153/261/211 154/260/210 152/259/209
f 155/262/212 154/260/210 153/261/211
f 154/260/210 155/262/212 92/143/130
f 144/263/202 154/260/210 137/264/191
f 144/263/202 147/253/205 154/260/210
f 92/143/130 137/264/191 154/260/210
f 87/136/125 155/262/212 85/132/121
f 87/136/125 92/143/130 155/262/212
f 156/265/213 85/132/121 155/262/212
f 153/261/211 156/265/213 155/262/212
f 156/265/213 78/127/116 80/128/117
f 156/265/213 153/261/211 78/127/116
f 85/132/121 156/265/213 80/128/117
f 78/127/116 153/261/211 151/258/208
f 151/258/208 65/116/104 68/117/106
f 68/117/106 78/127/116 151/258/208
f 66/115/105 149/256/207 61/107/99
f 61/107/99 149/256/207 158/266/214
f 146/249/203 157/267/215 149/256/207
f 149/256/207 157/267/215 158/266/214
f 159/268/216 61/107/99 158/266/214
f 8/14/14 159/268/216 158/266/214
f 160/269/217 8/14/14 158/266/214
f 160/269/217 158/266/214 157/267/215
f 3/1/5 8/14/14 160/269/217
f 160/269/217 157/267/215 3/1/5
f 159/268/216 59/105/97 61/107/99
f 8/14/14 162/270/218 159/268/216
f 161/271/219 59/105/97 159/268/216
f 159/268/216 162/270/218 161/271/219
f 161/271/219 162/270/218 163/272/220
f 163/272/220 162/270/218 10/17/17
f 162/270/218 9/15/15 10/17/17
f 8/14/14 9/15/15 162/270/218
f 163/272/220 10/17/17 166/273/221
f 165/274/222 161/271/219 163/272/220
f 165/274/222 163/272/220 164/275/223
f 164/275/223 163/272/220 166/273/221
f 166/273/221 199/19/19 239/276/224
f 239/277/224 240/278/225 166/279/221
f 166/273/221 242/280/226 241/281/227
f 244/282/228 243/283/229 167/284/230
f 167/285/230 241/281/227 244/286/228
f 167/284/230 168/287/231 169/288/232
f 167/284/230 245/289/233 246/290/234
f 169/291/232 164/275/223 167/285/230
f 170/292/235 169/293/232 168/294/231
f 171/295/236 169/293/232 170/292/235
f 171/296/236 172/297/237 169/291/232
f 172/297/237 164/275/223 169/291/232
f 56/101/95 172/297/237 171/296/236
f 164/275/223 172/297/237 55/99/94
f 56/101/95 55/99/94 172/297/237
f 173/298/238 56/102/95 171/295/236
f 173/298/238 171/295/236 170/292/235
f 48/92/87 51/94/89 173/298/238
f 173/298/238 51/94/89 56/102/95
f 173/298/238 34/77/72 48/92/87
f 170/292/235 34/77/72 173/298/238
f 170/292/235 168/294/231 30/68/64
f 34/77/72 170/292/235 30/68/64
f 168/294/231 29/299/62 30/68/64
f 168/287/231 221/67/63 29/66/62
f 168/287/231 246/290/234 247/300/239
f 165/274/222 164/275/223 55/99/94
f 59/105/97 165/274/222 55/99/94
f 59/105/97 161/271/219 165/274/222
f 174/301/240 175/302/241 157/267/242
f 143/248/198 174/301/240 157/267/242
f 157/267/242 175/302/241 3/1/1
f 143/248/201 157/267/215 146/249/203
f 175/302/241 177/303/243 176/304/244
f 175/302/241 176/304/244 2/2/2
f 174/301/240 177/303/243 175/302/241
f 3/1/1 175/302/241 2/2/2
f 141/239/196 140/238/195 177/306/243
f 177/303/243 174/301/240 141/308/196
f 190/329/268 134/227/271 188/330/269
f 135/228/187 134/227/186 190/329/268
f 256/339/274 191/340/275 257/341/276
f 134/227/271 191/340/275 188/330/269
f 257/341/277 191/340/275 258/345/278
f 191/340/275 259/346/279 258/345/278
f 263/349/283 134/227/271 21/42/283
f 18/40/40 263/349/284 21/42/42
f 2/2/2 192/356/290 4/4/4
f 2/2/2 176/304/244 192/356/290
f 141/308/196 174/301/240 143/248/198
f 78/127/116 68/117/106 74/124/113
f 69/119/108 64/110/102 72/122/111
f 71/197/109 72/358/111 50/93/88
f 193/359/293 50/93/88 72/358/111
f 193/360/293 72/122/111 64/110/102
f 58/104/96 53/103/91 193/361/293
f 64/113/102 58/104/96 193/361/293
f 193/359/293 53/96/91 50/93/88
f 50/93/88 46/89/84 71/197/109
f 43/86/81 48/92/87 34/77/72
f 34/77/72 35/78/73 43/86/81
f 4/7/280 17/34/286 11/362/294
f 11/362/294 17/34/286 12/37/295
f 4/7/280 11/362/294 5/8/296
f 5/363/9 202/364/297 269/365/298
f 5/366/9 269/367/298 270/368/299
f 5/9/9 271/369/300 6/10/10
f 6/10/10 271/369/300 197/370/301
s 0
f 257/371/302 263/372/302 260/373/302
f 204/374/303 207/375/303 219/376/303
f 210/377/304 237/378/304 220/379/304
f 212/380/305 235/381/305 236/382/305
f 227/383/306 235/384/306 232/385/306
f 241/386/307 245/387/307 243/388/307
f 242/389/308 200/390/308 247/391/308
f 201/392/309 196/393/309 224/394/309
f 248/395/310 262/396/310 267/397/310
f 203/398/311 196/399/311 271/400/311
s 1
f 195/11/11 7/5/7 6/10/10
f 6/10/10 197/370/301 196/13/13
f 9/15/15 7/5/7 194/12/12
f 200/18/18 10/17/17 9/15/15
f 9/15/15 198/16/16 201/20/20
f 203/21/21 202/364/297 11/22/22
f 12/25/25 206/401/312 205/24/24
f 207/26/26 206/401/312 12/25/25
f 13/27/27 209/31/31 208/28/28
f 14/29/29 211/57/54 210/30/30
f 28/51/48 27/54/51 213/55/52
f 211/57/54 14/29/29 28/58/48
f 215/60/56 214/402/55 28/51/48
f 218/64/60 219/403/313 220/62/58
f 220/62/58 31/404/67 217/63/59
f 223/65/61 222/405/65 29/66/62
f 30/68/64 29/299/62 222/69/65
f 225/72/68 217/406/59 31/71/67
f 31/71/67 30/68/64 224/70/66
f 226/73/69 32/76/71 31/71/67
f 228/204/172 133/203/171 132/201/170
f 132/201/170 130/200/169 229/206/174
f 235/216/180 233/407/178 130/200/169
f 130/200/169 131/199/168 234/215/179
f 131/217/168 32/76/71 236/218/181
f 32/220/71 226/408/69 237/221/182
f 238/224/183 216/61/57 27/54/51
f 27/54/51 133/203/171 232/223/177
f 92/233/130 91/144/131 136/232/190
f 166/273/221 10/17/17 199/19/19
f 241/281/227 164/275/223 166/273/221
f 166/273/221 240/409/225 242/280/226
f 167/285/230 164/275/223 241/281/227
f 246/290/234 168/287/231 167/284/230
f 167/284/230 243/283/229 245/289/233
f 168/287/231 247/300/239 221/67/63
f 256/339/274 188/330/269 191/340/275
f 191/340/275 134/227/271 259/346/279
f 263/349/283 259/346/279 134/227/271
f 18/40/40 264/412/284 263/349/284
f 5/363/9 11/22/22 202/364/297
f 5/9/9 270/414/299 271/369/300
s 0
f 261/415/302 252/416/302 251/417/302
f 251/417/302 253/418/302 254/419/302
f 254/419/302 255/420/302 256/421/302
f 257/371/302 258/422/302 259/423/302
f 254/419/302 256/421/302 257/371/302
f 261/415/302 251/417/302 254/419/302
f 264/424/302 265/425/302 260/373/302
f 260/373/302 261/415/302 254/419/302
f 257/371/302 259/423/302 263/372/302
f 260/373/302 254/419/302 257/371/302
f 263/372/302 264/424/302 260/373/302
f 218/426/303 203/427/303 204/374/303
f 204/374/303 205/428/303 206/429/303
f 207/375/303 208/430/303 219/376/303
f 204/374/314 206/429/314 207/375/314
f 219/376/314 218/426/314 204/374/314
f 220/379/304 219/431/304 208/432/304
f 208/432/304 209/433/304 210/377/304
f 210/377/315 211/434/315 214/435/315
f 214/435/304 215/436/304 237/378/304
f 237/378/304 226/437/304 220/379/304
f 220/379/304 208/432/304 210/377/304
f 210/377/304 214/435/304 237/378/304
f 237/438/305 215/439/305 212/380/305
f 212/380/305 213/440/305 216/441/305
f 216/441/305 238/442/305 235/381/305
f 235/381/316 234/443/316 236/382/316
f 236/382/305 237/438/305 212/380/305
f 212/380/305 216/441/305 235/381/305
f 231/444/306 228/445/306 227/383/306
f 227/383/317 229/446/317 230/447/317
f 230/447/318 233/448/318 235/384/318
f 235/384/306 238/449/306 232/385/306
f 232/385/306 231/444/306 227/383/306
f 227/383/306 230/447/306 235/384/306
f 243/388/307 244/450/307 241/386/307
f 241/386/307 242/451/307 245/387/307
f 246/452/308 245/453/308 242/389/308
f 242/389/308 240/454/308 239/455/308
f 239/455/308 199/456/308 200/390/308
f 200/390/308 201/457/308 223/458/308
f 223/458/308 221/459/308 247/391/308
f 247/391/308 246/452/308 242/389/308
f 242/389/308 239/455/308 200/390/308
f 200/390/308 223/458/308 247/391/308
f 222/460/319 223/461/319 201/392/319
f 201/392/309 198/462/309 194/463/309
f 194/463/309 195/464/309 196/393/309
f 196/393/309 225/465/309 224/394/309
f 224/394/309 222/460/309 201/392/309
f 201/392/309 194/463/309 196/393/309
f 268/466/320 249/467/320 248/395/320
f 248/395/310 250/468/310 252/416/310
f 252/416/310 261/415/310 262/396/310
f 262/396/310 266/469/310 267/397/310
f 267/397/310 268/466/310 248/395/310
f 248/395/310 252/416/310 262/396/310
f 271/400/321 270/470/321 269/471/321
f 269/471/321 202/472/321 203/398/321
f 203/398/321 218/473/321 217/474/321
f 217/474/321 225/475/321 196/399/321
f 196/399/322 197/476/322 271/400/322
f 271/400/321 269/471/321 203/398/321
f 203/398/321 217/474/321 196/399/321
