# Blender 4.1.1
# www.blender.org
mtllib link_body_21.mtl
o link_body_21
v 0.962888 -1.927737 -5.102787
v 1.702335 -0.735189 -5.559995
v -2.334236 -2.157805 -4.587994
v -0.842346 -0.701551 -5.440638
v -1.531397 -1.399420 -5.159694
v -0.269259 -2.735985 -4.050015
v -2.772485 -2.776064 -3.923073
v -0.363657 -1.179421 -4.733191
v 0.478206 -0.675780 -5.248609
v -0.411091 0.986423 -4.766673
v 0.548740 0.784722 -5.252876
v 1.508697 0.577554 -5.560900
v 0.858818 1.938220 -5.044381
v -0.992784 0.501201 -5.453081
v -2.109399 0.269467 -5.147445
v -1.487036 1.460657 -5.149211
v -2.296623 2.165137 -4.589332
v -3.094854 0.026538 -4.631094
v -2.772594 2.776308 -3.922763
v -3.696469 2.127033 -3.610603
v -3.233701 3.286255 -3.087444
v -4.453855 1.294075 -3.071310
v -4.255897 0.218172 -3.604391
v -4.537301 2.462353 -2.102450
v -3.595349 3.663846 -2.109080
v -3.841577 3.855228 -1.076545
v -0.976656 3.293465 -2.831651
v -4.637916 3.051449 -0.546881
v -1.557086 3.525447 -1.419206
v -1.923070 3.322309 -0.022412
v -1.630037 2.671017 -2.704985
v -2.594384 2.175299 -0.608441
v -4.010528 3.810246 0.119416
v -4.167195 3.441063 1.251543
v -2.029090 2.922778 1.269518
v -1.356594 1.836566 3.479658
v -2.368066 2.139050 1.524768
v -2.733779 0.779156 1.645314
v -2.928264 -0.479064 0.953020
v -2.592757 -1.592787 1.542934
v -2.077610 -0.468951 3.011005
v -3.035331 0.450462 -0.100000
v -1.669082 0.505283 3.574077
v -1.085657 -1.600416 3.843866
v -0.300428 -1.022294 4.608684
v -0.345691 1.092155 4.549848
v -4.189824 2.903513 2.180662
v -2.084165 0.613634 5.112330
v 0.519659 0.582091 5.065593
v 1.322014 0.121973 5.321154
v -1.061401 0.173265 5.439233
v 0.757009 -0.480206 5.158822
v -0.948997 -0.091033 5.475556
v -2.134304 -0.661383 5.074241
v -2.821080 -0.907299 4.711176
v -4.191972 -2.907147 2.174892
v -4.049445 -2.088914 3.149964
v -4.163512 -3.465483 1.194014
v -5.110476 -1.650945 1.591176
v -5.304175 -0.263499 1.739081
v -4.802674 -2.826020 -0.430769
v -5.534987 -0.643339 -0.000000
v -4.583901 -0.492047 3.123097
v -4.213664 0.627275 3.617894
v -3.613723 -1.420120 3.980927
v -3.936187 1.730116 3.593228
v -5.084397 1.668141 1.655385
v -2.897949 0.977533 4.634601
v -5.347489 1.570484 -0.501341
v -5.281493 0.450520 -1.771164
v -4.753322 -1.383494 -2.598441
v -5.231457 -1.581203 -1.093807
v -4.115075 -2.696290 -2.630062
v -3.595370 -3.663626 -2.109413
v -3.233810 -3.286402 -3.087183
v -3.635673 -1.446829 -3.986461
v -0.888681 -3.192643 -3.110891
v -1.578098 -3.528531 -1.372810
v -2.006320 -2.489649 -2.230468
v -0.931415 -1.916878 -4.040934
v -1.878019 -1.424886 -3.206939
v -1.697777 -0.243488 -3.754327
v -2.582746 -0.456549 -2.281626
v -2.403358 1.488330 -2.248726
v -2.907584 0.633046 -1.195391
v -2.735255 -1.499395 -1.195392
v -1.650177 1.207527 -3.625960
v -0.290739 2.728164 -4.055662
v -2.783406 -1.716968 -0.100000
v -1.967670 -3.277142 0.252584
v -1.789613 -2.278174 2.627069
v -4.009681 -3.814637 0.092675
v -3.840692 -3.850052 -1.100459
vn 0.3658 0.2899 0.8844
vn 0.2500 0.1098 0.9620
vn 0.3725 0.1053 0.9220
vn -0.1321 -0.1567 -0.9788
vn -0.0466 -0.1482 -0.9879
vn -0.0512 -0.4637 -0.8845
vn -0.0250 -0.8137 -0.5808
vn -0.3145 -0.4787 -0.8197
vn -0.2414 -0.3144 -0.9181
vn 0.5327 0.4327 0.7273
vn 0.5285 0.1999 0.8251
vn -0.0082 -0.8176 -0.5757
vn 0.5389 -0.1742 0.8241
vn 0.3551 -0.1344 0.9251
vn 0.2717 -0.0673 0.9600
vn -0.0468 0.1339 -0.9899
vn -0.1418 0.1181 -0.9828
vn 0.3834 -0.3043 0.8720
vn -0.0439 0.4677 -0.8828
vn -0.2027 0.3518 -0.9139
vn -0.3943 0.0427 -0.9180
vn -0.3144 0.4854 -0.8158
vn -0.0210 0.8154 -0.5786
vn -0.5553 0.0141 -0.8315
vn -0.6592 0.3671 -0.6563
vn -0.5530 0.4497 -0.7014
vn -0.7369 0.5568 -0.3833
vn -0.6860 0.5086 -0.5202
vn -0.8122 0.2280 -0.5370
vn -0.8147 0.4426 -0.3745
vn -0.7623 0.0371 -0.6462
vn 0.0913 0.9738 -0.2081
vn 0.1393 0.9900 -0.0238
vn 0.1464 0.9889 -0.0261
vn -0.8397 0.5370 -0.0810
vn -0.7616 0.6094 -0.2203
vn 0.0601 0.9464 -0.3174
vn 0.0253 0.9151 -0.4024
vn 0.9165 -0.3913 0.0837
vn 0.8055 -0.5347 0.2557
vn 0.8581 -0.5130 0.0211
vn 0.2075 0.9513 0.2279
vn 0.2364 0.9397 0.2473
vn 0.6449 -0.5743 0.5043
vn 0.7454 -0.4824 0.4601
vn 0.1853 0.9026 0.3886
vn 0.2224 0.9105 0.3487
vn -0.8469 0.5079 0.1573
vn -0.7800 0.6254 0.0221
vn 0.1075 0.8641 0.4917
vn 0.7646 -0.2575 -0.5908
vn 0.8792 -0.3682 -0.3023
vn 0.8617 -0.4598 -0.2147
vn 0.9362 -0.1468 -0.3194
vn 0.9965 -0.0834 -0.0086
vn 0.9779 0.0829 -0.1919
vn 0.9069 0.2980 -0.2977
vn 0.8339 0.0931 -0.5441
vn 0.7482 -0.0863 -0.6578
vn 0.5810 0.0332 -0.8132
vn 0.7174 0.1535 -0.6795
vn 0.5801 -0.0618 -0.8122
vn 0.0589 0.8416 0.5369
vn 0.0149 0.7568 0.6534
vn 0.4380 -0.0057 -0.8990
vn -0.0039 0.7527 0.6583
vn 0.0432 0.6017 0.7976
vn 0.3960 0.0079 -0.9182
vn 0.2940 -0.0182 -0.9556
vn 0.0833 0.0620 0.9946
vn -0.1026 0.3133 0.9441
vn 0.0740 -0.4563 0.8867
vn -0.0578 -0.2145 0.9750
vn -0.0049 -0.7547 0.6561
vn 0.0188 -0.7578 0.6522
vn 0.0587 -0.8430 0.5348
vn -0.4237 0.0001 0.9058
vn -0.4115 -0.0110 0.9114
vn -0.5777 -0.0185 0.8161
vn -0.0692 -0.7646 0.6408
vn -0.8041 -0.2982 0.5144
vn -0.9087 -0.3156 0.2731
vn -0.8270 -0.4451 0.3435
vn -0.0993 -0.7543 0.6490
vn -0.8392 -0.5189 0.1627
vn 0.1921 -0.9028 0.3847
vn 0.0491 -0.8252 0.5627
vn -0.8651 -0.4963 -0.0733
vn -0.8240 -0.0953 0.5584
vn -0.9537 -0.0101 0.3005
vn -0.9951 -0.0989 0.0048
vn -0.7593 0.0901 0.6444
vn -0.7108 -0.1351 0.6902
vn -0.1346 -0.7363 0.6632
vn -0.5801 0.0458 0.8133
vn -0.7687 0.2458 0.5905
vn -0.9147 0.2904 0.2811
vn -0.0238 0.7803 0.6250
vn -0.0999 0.7565 0.6463
vn -0.8223 0.4441 0.3560
vn -0.9606 0.2701 -0.0658
vn -0.9458 0.0732 -0.3165
vn -0.8562 -0.2355 -0.4598
vn -0.9390 -0.2830 -0.1955
vn -0.7478 -0.4809 -0.4579
vn -0.7392 -0.5770 -0.3474
vn -0.6400 -0.5119 -0.5730
vn -0.6022 -0.4267 -0.6748
vn -0.6482 -0.2574 -0.7167
vn 0.0218 -0.9148 -0.4034
vn 0.0541 -0.9366 -0.3461
vn 0.0964 -0.9738 -0.2062
vn 0.8133 0.4497 0.3693
vn 0.8185 0.5291 0.2241
vn 0.6858 0.4927 0.5356
vn 0.1529 -0.9876 -0.0342
vn 0.7924 0.2680 0.5480
vn 0.6289 0.3470 0.6958
vn 0.7528 0.0362 0.6572
vn 0.9173 0.0731 0.3915
vn 0.9418 0.2743 0.1942
vn 0.7473 -0.2206 0.6267
vn 0.8852 -0.2638 0.3831
vn 0.9741 -0.0986 0.2034
vn 0.5815 -0.3972 0.7100
vn -0.0052 0.8147 -0.5799
vn 0.9470 0.3212 0.0090
vn 0.8750 0.4835 -0.0235
vn 0.2320 -0.9314 0.2806
vn 0.2283 -0.9012 0.3684
vn 0.8256 0.3325 -0.4560
vn 0.2017 -0.9543 0.2205
vn -0.7793 -0.5848 -0.2252
vn -0.7814 -0.6240 0.0053
vn 0.1371 -0.9901 -0.0300
vt 0.979625 -0.000000
vt 0.988903 0.001169
vt 0.984076 0.007738
vt 0.899098 0.625538
vt 0.883131 0.619992
vt 0.890291 0.613972
vt 0.915596 0.616326
vt 0.911547 0.619386
vt 0.904904 0.622552
vt 0.970239 0.002975
vt 0.977925 0.009976
vt 0.533165 0.742475
vt 0.549746 0.741235
vt 0.525386 0.749482
vt 0.988917 0.019273
vt 0.991915 0.013478
vt 0.994875 0.007656
vt 0.881592 0.628673
vt 0.897518 0.633436
vt 0.999158 0.016694
vt 0.882816 0.638548
vt 0.898610 0.640482
vt 0.905037 0.634283
vt 0.902220 0.646552
vt 0.903922 0.651319
vt 0.911750 0.634757
vt 0.911104 0.649129
vt 0.874177 0.701775
vt 0.866100 0.690413
vt 0.872308 0.692980
vt 0.877503 0.695912
vt 0.869277 0.708039
vt 0.864161 0.700022
vt 0.871722 0.714667
vt 0.918644 0.638274
vt 0.658400 0.729726
vt 0.656340 0.722920
vt 0.671406 0.725103
vt 0.854581 0.694804
vt 0.859412 0.688605
vt 0.675681 0.734421
vt 0.661591 0.736125
vt 0.672531 0.903257
vt 0.662195 0.906823
vt 0.664963 0.898076
vt 0.655277 0.714968
vt 0.669443 0.715778
vt 0.662089 0.915831
vt 0.666792 0.915939
vt 0.655018 0.707357
vt 0.669555 0.707098
vt 0.843565 0.689032
vt 0.851451 0.687820
vt 0.675988 0.692143
vt 0.677101 0.875757
vt 0.674334 0.889116
vt 0.668722 0.889967
vt 0.683627 0.889589
vt 0.684591 0.901508
vt 0.691451 0.895196
vt 0.698954 0.891889
vt 0.692387 0.881051
vt 0.686143 0.876341
vt 0.975233 0.616379
vt 0.977610 0.610367
vt 0.988500 0.620018
vt 0.699676 0.875675
vt 0.991577 0.628577
vt 0.983130 0.628010
vt 0.655991 0.701051
vt 0.683879 0.684844
vt 0.976404 0.628260
vt 0.674012 0.680994
vt 0.690386 0.681287
vt 0.971233 0.623188
vt 0.970239 0.628577
vt 0.968311 0.337771
vt 0.962385 0.339400
vt 0.952898 0.334100
vt 0.945588 0.335237
vt 0.965690 0.332962
vt 0.954064 0.332587
vt 0.947403 0.326957
vt 0.544542 0.681127
vt 0.532352 0.684597
vt 0.525386 0.680994
vt 0.558087 0.700550
vt 0.943404 0.324246
vt 0.549095 0.683482
vt 0.825288 0.719629
vt 0.835256 0.721627
vt 0.830678 0.726122
vt 0.557196 0.693914
vt 0.836495 0.730625
vt 0.557915 0.707192
vt 0.537538 0.689678
vt 0.847380 0.730421
vt 0.826845 0.711418
vt 0.835664 0.713592
vt 0.846456 0.718622
vt 0.825059 0.703132
vt 0.931395 0.324054
vt 0.939177 0.319662
vt 0.931893 0.331843
vt 0.937508 0.314680
vt 0.554343 0.688317
vt 0.939752 0.336240
vt 0.931829 0.339400
vt 0.838433 0.701522
vt 0.826586 0.695826
vt 0.668150 0.684261
vt 0.660067 0.691371
vt 0.836907 0.691168
vt 0.852234 0.705456
vt 0.859355 0.713599
vt 0.863113 0.724313
vt 0.852776 0.724849
vt 0.862310 0.730625
vt 0.554657 0.729261
vt 0.562609 0.717731
vt 0.558457 0.732415
vt 0.552527 0.735726
vt 0.919560 0.613972
vt 0.923865 0.619485
vt 0.918244 0.626526
vt 0.925127 0.629096
vt 0.872815 0.723578
vt 0.536991 0.736243
vt 0.974118 0.751377
vt 0.970239 0.744693
vt 0.982432 0.745245
vt 0.541178 0.724668
vt 0.979936 0.755115
vt 0.987474 0.750343
vt 0.989409 0.744693
vt 0.971702 0.009819
vt 0.977127 0.020769
vt 0.970239 0.016756
vt 0.685062 0.925004
vt 0.688376 0.916152
vt 0.693388 0.922408
vt 0.701260 0.916873
vt 0.696214 0.909898
vt 0.675632 0.923067
vt 0.675529 0.914382
vt 0.682396 0.908468
vt 0.664234 0.923768
vt 0.998376 0.025923
vt 0.984814 0.026586
vt 0.681343 0.742402
vt 0.690386 0.748762
vt 0.665688 0.741540
vt 0.708417 0.911685
vt 0.698574 0.902903
vt 0.708417 0.901123
vt 0.543553 0.713756
vt 0.542235 0.697795
vt 0.703681 0.884678
vt 0.556988 0.714608
vt 0.556062 0.722565
s 1
usemtl pleuraldeles_skin
f 1/1/1 2/2/2 9/3/3
f 4/4/4 2/5/5 1/6/6
f 7/7/7 3/8/8 1/6/6
f 5/9/9 1/6/6 3/8/8
f 4/4/4 1/6/6 5/9/9
f 6/10/10 1/1/1 8/11/11
f 6/12/12 7/13/7 1/14/6
f 1/1/1 9/3/3 8/11/11
f 10/15/13 9/3/3 11/16/14
f 8/11/11 9/3/3 10/15/13
f 11/16/14 9/3/3 12/17/15
f 12/17/15 9/3/3 2/2/2
f 12/18/16 2/5/5 14/19/17
f 13/20/18 11/16/14 12/17/15
f 13/21/19 12/18/16 14/19/17
f 14/19/17 2/5/5 4/4/4
f 16/22/20 13/21/19 14/19/17
f 14/19/17 15/23/21 16/22/20
f 4/4/4 15/23/21 14/19/17
f 15/23/21 17/24/22 16/22/20
f 13/21/19 16/22/20 17/24/22
f 19/25/23 13/21/19 17/24/22
f 15/23/21 18/26/24 17/24/22
f 18/26/24 20/27/25 17/24/22
f 17/24/22 20/27/25 19/25/26
f 20/28/25 25/29/27 21/30/28
f 19/31/26 20/28/25 21/30/28
f 20/28/25 22/32/29 24/33/30
f 23/34/31 22/32/29 20/28/25
f 18/26/24 23/35/31 20/27/25
f 20/28/25 24/33/30 25/29/27
f 25/36/32 26/37/33 29/38/34
f 25/29/27 28/39/35 26/40/36
f 25/29/27 24/33/30 28/39/35
f 29/38/34 27/41/37 25/36/32
f 27/41/37 21/42/38 25/36/32
f 32/43/39 29/44/40 30/45/41
f 33/46/42 30/47/43 29/38/34
f 27/48/44 29/44/40 31/49/45
f 31/49/45 29/44/40 32/43/39
f 26/37/33 33/46/42 29/38/34
f 33/46/42 34/50/46 35/51/47
f 34/52/48 33/53/49 28/39/35
f 33/53/49 26/40/36 28/39/35
f 33/46/42 35/51/47 30/47/43
f 34/50/46 36/54/50 35/51/47
f 36/55/51 37/56/52 35/57/53
f 37/56/52 32/43/39 35/57/53
f 32/43/39 30/45/41 35/57/53
f 38/58/54 37/56/52 36/55/51
f 38/58/54 32/43/39 37/56/52
f 42/59/55 38/58/54 39/60/56
f 39/60/56 38/58/54 40/61/57
f 40/61/57 38/58/54 41/62/58
f 38/58/54 43/63/59 41/62/58
f 38/58/54 42/59/55 32/43/39
f 38/58/54 36/55/51 43/63/59
f 45/64/60 44/65/61 43/66/59
f 44/67/61 41/62/58 43/63/59
f 43/66/59 36/68/51 46/69/62
f 43/66/59 46/69/62 45/64/60
f 47/70/63 46/71/64 36/54/50
f 46/69/62 49/72/65 45/64/60
f 48/73/66 46/71/64 47/70/63
f 48/73/66 49/74/67 46/71/64
f 52/75/68 45/64/60 49/72/65
f 49/72/65 50/76/69 52/75/68
f 50/77/70 49/78/67 51/79/71
f 48/80/66 51/79/71 49/78/67
f 52/81/72 50/77/70 53/82/73
f 52/81/72 53/82/73 54/83/74
f 54/84/74 45/85/75 52/86/72
f 54/84/74 56/87/76 45/85/75
f 53/82/73 48/80/77 54/83/78
f 55/88/79 54/83/78 48/80/77
f 55/89/80 56/87/76 54/84/74
f 57/90/81 59/91/82 56/92/83
f 55/89/80 57/93/84 56/87/76
f 59/91/82 58/94/85 56/92/83
f 56/87/76 58/95/86 44/96/87
f 56/87/76 44/96/87 45/85/75
f 61/97/88 58/94/85 59/91/82
f 63/98/89 59/91/82 57/90/81
f 63/98/89 60/99/90 59/91/82
f 62/100/91 59/91/82 60/99/90
f 62/100/91 61/97/88 59/91/82
f 64/101/92 60/99/90 63/98/89
f 63/102/89 65/103/93 64/104/92
f 65/103/93 63/102/89 57/105/81
f 55/89/80 65/106/94 57/93/84
f 65/103/93 55/88/79 64/104/92
f 64/104/92 55/88/79 68/107/95
f 66/108/96 64/104/92 68/107/95
f 67/109/97 64/101/92 66/110/96
f 64/101/92 67/109/97 60/99/90
f 68/111/98 47/70/63 66/112/99
f 68/111/98 48/73/66 47/70/63
f 68/107/95 55/88/79 48/80/77
f 66/110/96 47/113/100 67/109/97
f 34/52/48 67/109/97 47/113/100
f 28/39/35 69/114/101 67/109/97
f 69/114/101 60/99/90 67/109/97
f 28/39/35 67/109/97 34/52/48
f 24/33/30 69/114/101 28/39/35
f 70/115/102 62/100/91 69/114/101
f 69/114/101 62/100/91 60/99/90
f 24/33/30 70/115/102 69/114/101
f 22/32/29 70/115/102 24/33/30
f 71/116/103 72/117/104 70/115/102
f 23/34/31 71/116/103 70/115/102
f 22/32/29 23/34/31 70/115/102
f 62/100/91 70/115/102 72/117/104
f 73/118/105 61/97/88 72/117/104
f 62/100/91 72/117/104 61/97/88
f 73/118/105 72/117/104 71/116/103
f 74/119/106 61/120/88 73/121/105
f 74/119/106 73/121/105 75/122/107
f 7/7/108 75/123/107 73/124/105
f 7/7/108 73/124/105 76/125/109
f 73/124/105 71/126/103 76/125/109
f 76/127/109 71/116/103 23/34/31
f 7/7/108 76/125/109 3/8/8
f 3/8/8 76/125/109 18/26/24
f 18/26/24 76/125/109 23/35/31
f 75/122/110 6/12/12 77/128/111
f 74/119/112 75/122/110 77/128/111
f 75/122/110 7/13/7 6/12/12
f 79/129/113 78/130/114 77/131/115
f 74/119/112 77/128/111 78/132/116
f 79/129/113 77/131/115 81/133/117
f 80/134/118 77/131/115 6/135/10
f 80/134/118 81/133/117 77/131/115
f 80/136/118 82/137/119 81/138/117
f 82/139/119 83/140/120 81/141/117
f 81/141/117 83/140/120 79/142/113
f 79/142/113 83/140/120 86/143/121
f 87/144/122 84/145/123 83/140/120
f 84/145/123 85/146/124 83/140/120
f 83/140/120 85/146/124 86/143/121
f 87/144/122 83/140/120 82/139/119
f 87/144/122 88/147/125 31/49/45
f 84/145/123 87/144/122 31/49/45
f 88/148/125 87/149/122 10/15/13
f 82/137/119 10/15/13 87/149/122
f 10/15/13 13/20/18 88/148/125
f 88/150/126 13/151/19 19/152/23
f 21/42/38 88/150/126 19/152/23
f 88/147/125 27/48/44 31/49/45
f 27/41/37 88/150/126 21/42/38
f 79/142/113 86/143/121 78/153/114
f 78/153/114 86/143/121 89/154/127
f 86/143/121 85/146/124 42/59/55
f 86/143/121 42/59/55 89/154/127
f 40/61/57 89/154/127 39/60/56
f 40/61/57 90/155/128 89/154/127
f 42/59/55 39/60/56 89/154/127
f 78/153/114 89/154/127 90/155/128
f 58/95/86 90/156/129 91/157/130
f 40/61/57 91/158/131 90/155/128
f 92/159/132 78/132/116 90/156/129
f 90/156/129 58/95/86 92/159/132
f 61/120/88 93/160/133 92/159/134
f 92/159/132 93/160/135 78/132/116
f 61/120/88 92/159/134 58/95/85
f 74/119/106 93/160/133 61/120/88
f 78/132/116 93/160/135 74/119/112
f 91/158/131 41/62/58 44/67/61
f 91/157/130 44/96/87 58/95/86
f 91/158/131 40/61/57 41/62/58
f 85/146/124 32/43/39 42/59/55
f 84/145/123 32/43/39 85/146/124
f 31/49/45 32/43/39 84/145/123
f 82/137/119 8/11/11 10/15/13
f 80/136/118 8/11/11 82/137/119
f 8/11/11 80/136/118 6/10/10
f 53/82/73 51/79/71 48/80/77
f 51/79/71 53/82/73 50/77/70
f 47/70/63 36/54/50 34/50/46
f 5/9/9 18/26/24 15/23/21
f 5/9/9 3/8/8 18/26/24
f 4/4/4 5/9/9 15/23/21
f 10/15/13 11/16/14 13/20/18
