# Blender 4.1.1
# www.blender.org
mtllib link_body_27.mtl
o link_body_27
v -4.655296 1.340507 2.026700
v -4.830742 1.768844 1.026621
v -3.643005 0.747112 3.723070
v -5.061882 1.006872 1.026621
v -4.861591 0.000001 2.013788
v -4.254242 1.003553 2.919584
v -4.375294 0.000001 2.923561
v -3.720856 0.000001 3.720977
v -4.247242 -1.000825 2.928316
v -3.643047 -0.747154 3.723026
v -4.768177 -0.948448 2.013788
v -4.644062 -1.357603 2.013788
v -4.830742 -1.768844 1.026621
v -5.061882 -1.006871 1.026621
v -5.161057 -1.026598 -0.000001
v -5.161049 0.000001 1.026621
v -5.262169 0.000001 -0.000001
v -5.161049 0.000001 -1.026622
v -5.161057 1.026598 -0.000001
v -5.061882 1.006872 -1.026622
v -5.061882 -1.006871 -1.026622
v -4.768188 -1.975048 -1.026622
v -4.768177 -0.948449 -2.013789
v -4.491524 -1.860450 -2.013789
v -4.042244 -1.674352 -2.923562
v -4.252384 -2.266893 -2.062133
v -4.547497 -2.349755 -1.101288
v -3.901169 -2.049456 -2.830296
v -4.291225 -0.853577 -2.923562
v -4.375294 0.000001 -2.923562
v -3.649361 -0.725903 -3.720978
v -3.350616 -1.542928 -3.746878
v 1.297405 -1.078030 -4.315984
v -1.015236 -0.198280 -5.161879
v -2.739216 -0.860090 -4.416708
v -1.974949 -0.392842 -4.861655
v -2.923420 -0.000000 -4.375391
v -1.987244 0.219799 -4.868680
v -2.750221 0.883436 -4.401506
v 1.829361 0.076702 -5.174149
v 2.485828 -0.001826 -4.944231
v 1.826637 -0.069632 -5.177582
v -3.346230 1.538303 -3.751487
v 2.030331 0.361725 -4.804612
v 1.101452 -0.304462 -4.327082
v 2.005825 -0.394977 -4.786756
v 1.217144 0.813582 -4.322520
v 0.489002 1.272675 -3.610297
v 0.383495 0.699477 -3.685400
v 0.318798 -0.289405 -3.693552
v -0.234970 -0.822497 -2.917031
v 0.574226 -1.328231 -3.685400
v -0.315979 -0.000000 -2.917031
v -0.234970 0.822498 -2.917031
v -0.694534 0.913910 -2.040405
v -0.784546 0.000001 -2.040405
v -0.064812 1.644671 -2.778301
v -3.903183 2.048998 -2.827793
v -0.448757 1.821038 -1.947154
v -4.554192 2.347554 -1.079540
v -4.256557 2.263708 -2.056755
v -0.718925 1.824221 -1.086977
v -0.977528 0.970203 -1.089210
v -1.073086 0.989209 -0.100000
v -1.073086 0.000001 -1.089210
v -0.872021 1.649552 -0.110274
v -0.862080 1.377221 0.956153
v -4.671902 2.278834 -0.397916
v -4.812454 2.113505 0.020415
v -0.221035 0.860529 2.724234
v -4.806450 2.033511 0.420995
v -0.641411 1.134650 1.845277
v -0.784546 0.000001 1.840404
v -1.073086 0.000001 0.889209
v -1.170517 0.000001 -0.100000
v -0.977531 -0.970200 0.889209
v -0.621712 -1.120293 1.896889
v -1.073086 -0.989209 -0.100000
v -0.846195 -1.403152 0.889209
v -0.873234 -1.646888 -0.105643
v -4.671902 -2.278834 -0.397916
v -4.795425 -2.137606 0.103678
v -0.219177 -0.859763 2.726502
v -0.718651 -1.826146 -1.084857
v -0.442383 -1.816032 -1.974285
v -0.977531 -0.970200 -1.089210
v -0.694534 -0.913909 -2.040405
v -0.011608 -1.611751 -2.890765
v 0.370861 -0.571201 3.485399
v 0.314602 0.000001 3.485399
v -0.315979 -0.000000 2.717030
v 0.370861 0.571202 3.485399
v 1.139652 -0.286912 4.148973
v 1.113392 0.303043 4.116347
v -2.869816 0.456175 4.380604
v 2.138664 0.034483 4.653682
v -2.076542 0.152097 4.820280
v -2.010807 -0.094884 4.861592
v 2.123241 -0.034968 4.657428
v -2.869930 -0.456439 4.380518
v -2.923420 -0.000000 4.375391
v -4.768188 1.975049 -1.026622
v -4.491524 1.860451 -2.013789
v -4.768177 0.948450 -2.013789
v -4.042244 1.674353 -2.923562
v -4.291225 0.853577 -2.923562
v -3.703682 0.430487 -3.729438
v -4.861591 0.000001 -2.013789
vn -0.9432 0.2889 0.1644
vn -0.9614 0.1889 0.2000
vn -0.9141 0.1687 0.3687
vn -0.1148 0.9111 0.3958
vn -0.1669 0.8954 0.4128
vn 0.0364 0.9352 0.3522
vn -0.1673 0.8952 0.4130
vn -0.9236 0.0142 0.3830
vn -0.8408 0.1114 0.5298
vn -0.8341 0.0024 0.5516
vn -0.7156 0.0775 0.6942
vn -0.7104 -0.0000 0.7038
vn -0.7156 -0.0776 0.6942
vn -0.9064 -0.1794 0.3823
vn -0.8294 -0.1224 0.5451
vn -0.9622 -0.1914 0.1939
vn -0.8909 -0.2702 0.3651
vn -0.9416 -0.2910 0.1694
vn -1.0000 -0.0000 -0.0000
vn -0.9796 -0.2012 -0.0003
vn -0.9810 -0.0000 0.1939
vn -0.9622 -0.1914 -0.1939
vn -0.9810 -0.0000 -0.1939
vn -0.9621 0.1938 -0.1917
vn -0.9795 0.2014 -0.0021
vn -0.8553 -0.3529 -0.3794
vn -0.9064 -0.3808 -0.1829
vn -0.9070 -0.1804 -0.3805
vn -0.8154 -0.1647 -0.5550
vn -0.8601 -0.4637 -0.2126
vn -0.7612 -0.3228 -0.5624
vn -0.7411 -0.4098 -0.5319
vn -0.8119 -0.4309 -0.3938
vn -0.8336 -0.0036 -0.5523
vn -0.6974 -0.1375 -0.7034
vn -0.6807 -0.2433 -0.6910
vn 0.0135 -0.8397 -0.5429
vn -0.0186 -0.6908 -0.7228
vn 0.0515 -0.7465 -0.6634
vn 0.0959 -0.9543 -0.2830
vn -0.0683 -0.6622 -0.7462
vn -0.5600 -0.0999 -0.8224
vn -0.4161 -0.0041 -0.9093
vn -0.4158 -0.0188 -0.9093
vn -0.1480 -0.5443 -0.8257
vn -0.5558 -0.0035 -0.8313
vn -0.5683 0.1155 -0.8147
vn -0.0051 0.6764 -0.7365
vn 0.1579 0.4074 -0.8995
vn -0.0478 0.5314 -0.8458
vn -0.0505 0.4829 -0.8742
vn -0.2954 -0.0169 -0.9552
vn 0.1549 0.0203 -0.9877
vn 0.3322 0.0159 -0.9431
vn 0.1631 0.7339 -0.6594
vn 0.3175 0.6595 -0.6814
vn 0.0618 0.8534 -0.5175
vn 0.4176 -0.0125 0.9086
vn 0.5695 -0.0834 0.8178
vn 0.5573 0.0478 0.8289
vn 0.4151 0.0382 0.9090
vn 0.3023 0.0127 0.9531
vn 0.0480 0.7869 -0.6153
vn 0.7027 0.0535 0.7095
vn 0.6967 -0.2278 0.6803
vn 0.6911 -0.1278 0.7114
vn 0.0842 0.8898 -0.4485
vn 0.6855 0.1859 0.7039
vn 0.8166 0.1665 0.5526
vn 0.8329 -0.0062 0.5535
vn 0.8147 -0.1642 0.5561
vn 0.9064 -0.1826 0.3809
vn 0.8106 -0.2632 0.5232
vn 0.9248 -0.0000 0.3805
vn 0.1173 0.9888 -0.0918
vn 0.1041 0.9532 -0.2840
vn 0.1061 0.9524 -0.2858
vn 0.8879 -0.2783 0.3663
vn 0.1286 0.9901 0.0559
vn 0.1396 0.9848 0.1037
vn 0.1180 0.9865 -0.1138
vn 0.9369 -0.2842 0.2034
vn 0.9622 -0.1913 0.1940
vn 0.9813 -0.1923 -0.0061
vn 0.9565 -0.2910 0.0211
vn 0.9810 -0.0000 0.1939
vn 0.9673 -0.1685 -0.1894
vn 0.1450 0.9618 0.2323
vn 0.1431 0.9648 0.2206
vn 0.1227 0.9700 0.2100
vn -0.8591 0.4659 -0.2118
vn -0.9439 0.3297 -0.0195
vn -0.8700 0.4826 -0.1016
vn -0.4788 0.8595 0.1788
vn 0.1075 0.9550 0.2765
vn 0.0617 0.9451 0.3209
vn 0.1453 0.9623 0.2298
vn 0.9249 -0.0022 -0.3802
vn 0.9264 -0.1201 -0.3569
vn 0.8379 -0.0923 -0.5380
vn 0.9804 -0.0136 -0.1967
vn 0.9620 0.1896 -0.1964
vn 1.0000 -0.0000 -0.0000
vn 0.9159 0.1333 -0.3786
vn 0.9415 0.2859 -0.1786
vn 0.9808 0.1952 -0.0001
vn 0.9567 0.2906 0.0145
vn 0.1236 -0.9699 0.2098
vn 0.1440 -0.9656 0.2166
vn 0.1406 -0.9615 0.2362
vn 0.1425 -0.9617 0.2340
vn 0.0748 -0.9473 0.3116
vn 0.1109 -0.9553 0.2740
vn -0.9420 -0.3353 -0.0095
vn -0.9259 -0.3555 -0.1279
vn 0.1397 -0.9850 0.1010
vn 0.1290 -0.9901 0.0558
vn 0.9371 0.2844 0.2026
vn 0.9622 0.1913 0.1939
vn 0.8869 0.2754 0.3710
vn 0.1187 -0.9879 -0.0994
vn 0.9065 0.1819 0.3810
vn 0.8019 0.2490 0.5431
vn 0.1052 -0.9667 -0.2334
vn 0.1046 -0.9595 -0.2616
vn 0.1193 -0.9862 -0.1147
vn 0.7181 0.0707 -0.6923
vn 0.8396 0.0880 -0.5360
vn 0.7109 -0.0010 -0.7033
vn 0.0909 -0.9493 0.3008
vn 0.8346 0.0018 -0.5508
vn 0.7158 -0.0705 -0.6947
vn 0.5616 -0.0292 -0.8269
vn 0.5564 -0.0104 -0.8308
vn 0.0565 0.9209 0.3857
vn 0.0609 0.9351 0.3490
vn 0.0566 0.9254 0.3748
vn 0.0974 0.9521 0.2898
vn 0.4772 -0.1153 -0.8712
vn 0.0438 0.1761 0.9834
vn 0.0438 0.1749 0.9836
vn 0.0485 0.0488 0.9976
vn 0.0442 0.8572 0.5131
vn 0.4846 -0.1541 -0.8611
vn 0.0487 0.0430 0.9979
vn 0.0600 -0.9361 0.3467
vn 0.0550 -0.9167 0.3958
vn 0.0382 -0.9360 0.3499
vn 0.0567 -0.9225 0.3817
vn 0.0394 -0.8313 0.5544
vn -0.5610 0.0004 0.8278
vn -0.5663 -0.0571 0.8222
vn -0.4698 0.0043 0.8827
vn -0.4688 0.0280 0.8829
vn -0.5644 0.0569 0.8235
vn -0.0472 -0.9270 0.3721
vn -0.9724 0.2258 0.0597
vn -0.9078 0.3759 -0.1859
vn -0.8553 0.3532 -0.3792
vn -0.8125 0.4316 -0.3919
vn -0.7408 0.4101 -0.5319
vn -0.9070 0.1804 -0.3805
vn -0.7606 0.3231 -0.5630
vn -0.6834 0.2308 -0.6926
vn -0.7024 0.0853 -0.7067
vn -0.8156 0.1686 -0.5535
vn -0.9248 -0.0000 -0.3805
vn 0.5549 0.1523 0.8178
vn 0.2548 -0.6825 -0.6850
vn 0.1779 -0.6725 -0.7183
vn 0.3110 -0.6554 -0.6882
vn -0.1381 -0.9044 0.4038
vn -0.1919 -0.8832 0.4279
vt 0.732990 0.893375
vt 0.727731 0.893333
vt 0.730902 0.886763
vt 0.719231 0.113201
vt 0.712585 0.110911
vt 0.701545 0.102856
vt 0.706731 0.107440
vt 0.722173 0.886811
vt 0.729955 0.880903
vt 0.723508 0.880855
vt 0.730042 0.875675
vt 0.725274 0.875675
vt 0.720913 0.875675
vt 0.716622 0.886827
vt 0.717728 0.880846
vt 0.715428 0.893332
vt 0.714447 0.886849
vt 0.711377 0.893373
vt 0.720983 0.900116
vt 0.714976 0.900133
vt 0.721320 0.893315
vt 0.715283 0.906971
vt 0.721175 0.906953
vt 0.727585 0.906971
vt 0.727519 0.900134
vt 0.711488 0.913630
vt 0.710135 0.907023
vt 0.716337 0.913580
vt 0.718099 0.919709
vt 0.708418 0.907558
vt 0.713735 0.919753
vt 0.711819 0.919159
vt 0.709627 0.913993
vt 0.723094 0.919694
vt 0.720499 0.925121
vt 0.123912 0.963098
vt 0.121138 0.970229
vt 0.119163 0.966386
vt 0.125997 0.967252
vt 0.111212 0.950461
vt 0.113069 0.934043
vt 0.815873 0.762886
vt 0.821518 0.766905
vt 0.822482 0.797835
vt 0.128180 0.965708
vt 0.118431 0.960370
vt 0.110184 0.957385
vt 0.114102 0.956279
vt 0.113215 0.962993
vt 0.107242 0.963363
vt 0.104670 0.932634
vt 0.105615 0.932406
vt 0.104095 0.928262
vt 0.762142 0.069227
vt 0.759792 0.068521
vt 0.760803 0.064892
vt 0.104095 0.968236
vt 0.751355 0.104524
vt 0.030100 0.975637
vt 0.029944 0.981816
vt 0.023139 0.978739
vt 0.025673 0.973245
vt 0.029546 0.971806
vt 0.756413 0.074503
vt 0.020568 0.983281
vt 0.030100 0.987531
vt 0.026461 0.986219
vt 0.751534 0.079916
vt 0.015459 0.978338
vt 0.015609 0.984674
vt 0.929164 0.242255
vt 0.924514 0.243782
vt 0.924179 0.238447
vt 0.929415 0.248820
vt 0.924752 0.249265
vt 0.919266 0.249676
vt 0.924019 0.254864
vt 0.919002 0.243584
vt 0.929055 0.252706
vt 0.740295 0.086616
vt 0.745900 0.084016
vt 0.745132 0.108932
vt 0.918818 0.255891
vt 0.733377 0.113260
vt 0.734505 0.088111
vt 0.739939 0.111441
vt 0.913297 0.255891
vt 0.913170 0.250038
vt 0.906697 0.250335
vt 0.906874 0.254859
vt 0.912890 0.243570
vt 0.899725 0.253358
vt 0.720838 0.087526
vt 0.727952 0.088448
vt 0.728808 0.113683
vt 0.737098 0.907414
vt 0.735072 0.900062
vt 0.736419 0.902866
vt 0.734627 0.897402
vt 0.709221 0.081947
vt 0.723297 0.113783
vt 0.714968 0.085395
vt 0.893356 0.244605
vt 0.893633 0.252199
vt 0.887476 0.251012
vt 0.899815 0.244090
vt 0.899420 0.237798
vt 0.906411 0.243741
vt 0.892495 0.237401
vt 0.899190 0.235071
vt 0.906008 0.237325
vt 0.905696 0.233181
vt 0.800274 0.756460
vt 0.796002 0.781228
vt 0.789356 0.780764
vt 0.782503 0.781586
vt 0.797000 0.755313
vt 0.776729 0.783695
vt 0.709151 0.899510
vt 0.708576 0.902864
vt 0.802425 0.782866
vt 0.804869 0.757707
vt 0.912012 0.231886
vt 0.912494 0.237277
vt 0.917728 0.231971
vt 0.808147 0.785201
vt 0.918630 0.237656
vt 0.923596 0.233468
vt 0.813920 0.788516
vt 0.928595 0.235660
vt 0.818781 0.792763
vt 0.811038 0.760187
vt 0.881592 0.242339
vt 0.886861 0.239701
vt 0.881824 0.246044
vt 0.771307 0.787076
vt 0.887281 0.245264
vt 0.881989 0.249852
vt 0.301581 0.983451
vt 0.297847 0.984228
vt 0.298131 0.978930
vt 0.301822 0.977589
vt 0.305091 0.981961
vt 0.697007 0.064892
vt 0.700303 0.072030
vt 0.697372 0.097216
vt 0.704306 0.077421
vt 0.297847 0.971846
vt 0.942190 0.094492
vt 0.942826 0.092915
vt 0.970085 0.097189
vt 0.694649 0.091473
vt 0.298318 0.971806
vt 0.970040 0.096718
vt 0.766413 0.791696
vt 0.762426 0.797835
vt 0.772110 0.760446
vt 0.767253 0.765095
vt 0.763499 0.770394
vt 0.936740 0.092818
vt 0.932623 0.087336
vt 0.937468 0.089852
vt 0.931496 0.092199
vt 0.931395 0.097189
vt 0.936719 0.095869
vt 0.790842 0.754441
vt 0.734267 0.907024
vt 0.734220 0.913631
vt 0.737295 0.913959
vt 0.736852 0.919144
vt 0.727926 0.913581
vt 0.734193 0.919755
vt 0.735122 0.925379
vt 0.727421 0.925168
vt 0.728528 0.919710
vt 0.111819 0.968675
vt 0.721887 0.913564
vt 0.019353 0.975025
vt 0.107443 0.930675
vt 0.784122 0.754987
vt 0.777770 0.756981
s 1
usemtl pleuraldeles_skin
f 2/1/1 4/2/2 1/3/3
f 2/4/4 1/5/5 3/6/6
f 1/5/5 6/7/7 3/6/6
f 5/8/8 1/3/3 4/2/2
f 5/8/8 6/9/9 1/3/3
f 7/10/10 3/11/11 6/9/9
f 5/8/8 7/10/10 6/9/9
f 7/10/10 8/12/12 3/11/11
f 7/10/10 10/13/13 8/12/12
f 11/14/14 7/10/10 5/8/8
f 11/14/14 9/15/15 7/10/10
f 7/10/10 9/15/15 10/13/13
f 14/16/16 11/14/14 5/8/8
f 11/14/14 12/17/17 9/15/15
f 11/14/14 13/18/18 12/17/17
f 14/16/16 13/18/18 11/14/14
f 17/19/19 15/20/20 14/16/16
f 15/20/20 13/18/18 14/16/16
f 17/19/19 14/16/16 16/21/21
f 14/16/16 5/8/8 16/21/21
f 21/22/22 15/20/20 17/19/19
f 21/22/22 17/19/19 18/23/23
f 17/19/19 20/24/24 18/23/23
f 17/19/19 19/25/25 20/24/24
f 16/21/21 19/25/25 17/19/19
f 21/22/22 24/26/26 22/27/27
f 22/27/27 15/20/20 21/22/22
f 18/23/23 23/28/28 21/22/22
f 21/22/22 23/28/28 24/26/26
f 29/29/29 24/26/26 23/28/28
f 27/30/30 22/27/27 24/26/26
f 29/29/29 25/31/31 24/26/26
f 24/26/26 25/31/31 28/32/32
f 24/26/26 28/32/32 26/33/33
f 27/30/30 24/26/26 26/33/33
f 23/28/28 30/34/34 29/29/29
f 31/35/35 29/29/29 30/34/34
f 32/36/36 29/37/29 31/38/35
f 32/36/36 25/39/31 29/37/29
f 32/36/37 34/40/38 33/41/39
f 28/42/40 32/43/37 33/44/39
f 25/39/31 32/36/36 28/45/32
f 32/36/37 35/46/41 34/40/38
f 35/46/42 32/36/36 31/38/35
f 35/46/42 38/47/43 36/48/44
f 35/46/41 36/48/45 34/40/38
f 31/38/35 37/49/46 35/46/42
f 35/46/42 37/49/46 38/47/43
f 38/47/43 37/49/46 39/50/47
f 39/50/48 40/51/49 38/47/50
f 34/40/51 38/47/50 40/51/49
f 38/47/43 34/40/52 36/48/44
f 42/52/53 40/51/49 41/53/54
f 40/54/49 44/55/55 41/56/56
f 42/52/53 34/40/51 40/51/49
f 43/57/57 40/51/49 39/50/48
f 44/55/55 40/54/49 43/58/57
f 44/59/58 47/60/59 45/61/60
f 45/61/60 46/62/61 44/59/58
f 46/62/61 41/63/62 44/59/58
f 43/58/57 47/64/63 44/55/55
f 50/65/64 45/61/60 47/60/59
f 47/60/59 48/66/65 49/67/66
f 43/58/57 48/68/67 47/64/63
f 50/65/64 47/60/59 49/67/66
f 52/69/68 50/65/64 51/70/69
f 50/71/64 53/72/70 51/73/69
f 50/71/64 49/74/66 54/75/71
f 52/69/68 45/61/60 50/65/64
f 50/71/64 54/75/71 53/72/70
f 55/76/72 54/75/71 57/77/73
f 56/78/74 54/75/71 55/76/72
f 54/75/71 49/74/66 48/79/65
f 56/78/74 53/72/70 54/75/71
f 48/79/65 57/77/73 54/75/71
f 59/80/75 57/81/76 58/82/77
f 57/81/76 48/68/67 58/82/77
f 59/83/78 55/76/72 57/77/73
f 60/84/79 62/85/80 59/80/75
f 60/84/79 59/80/75 61/86/81
f 59/80/75 58/82/77 61/86/81
f 59/83/78 62/87/82 63/88/83
f 63/88/83 55/76/72 59/83/78
f 64/89/84 63/88/83 66/90/85
f 65/91/86 63/88/83 64/89/84
f 55/76/72 63/88/83 65/91/86
f 66/90/85 63/88/83 62/87/82
f 67/92/87 64/89/84 66/90/85
f 67/93/88 66/94/89 68/95/90
f 68/95/90 66/94/89 62/85/80
f 60/84/79 68/95/90 62/85/80
f 60/96/91 69/97/92 68/98/93
f 68/98/94 69/97/94 71/99/94
f 70/100/95 68/95/90 71/101/96
f 68/95/90 70/100/95 72/102/97
f 68/95/90 72/102/97 67/93/88
f 73/103/98 72/104/99 70/105/100
f 74/106/101 72/104/99 73/103/98
f 74/106/101 67/92/87 72/104/99
f 76/107/102 74/106/101 73/103/98
f 74/106/101 75/108/103 64/89/84
f 76/107/102 75/108/103 74/106/101
f 74/106/101 64/89/84 67/92/87
f 76/107/102 73/103/98 77/109/104
f 76/107/102 77/109/104 79/110/105
f 76/107/102 78/111/106 75/108/103
f 78/111/106 76/107/102 79/110/105
f 78/111/106 79/110/105 80/112/107
f 81/113/108 80/114/109 79/115/110
f 79/115/110 77/116/111 81/113/108
f 82/117/112 81/113/108 83/118/113
f 82/119/114 27/30/30 81/120/115
f 77/116/111 83/118/113 81/113/108
f 84/121/116 81/113/108 27/122/117
f 81/113/108 84/121/116 80/114/109
f 80/112/107 84/123/118 86/124/119
f 85/125/120 86/124/119 84/123/118
f 27/122/117 85/126/121 84/121/116
f 86/124/119 78/111/106 80/112/107
f 86/124/119 75/108/103 78/111/106
f 87/127/122 86/124/119 85/125/120
f 87/127/122 65/91/86 86/124/119
f 86/124/119 65/91/86 75/108/103
f 87/127/122 56/78/74 65/91/86
f 87/127/122 53/72/70 56/78/74
f 87/127/122 51/73/69 53/72/70
f 51/73/69 87/127/122 88/128/123
f 87/127/122 85/125/120 88/128/123
f 28/42/40 88/129/124 85/126/121
f 52/130/68 51/73/69 88/128/123
f 28/42/40 52/131/125 88/129/124
f 85/126/121 26/132/126 28/42/40
f 27/122/117 26/132/126 85/126/121
f 89/133/127 83/134/128 90/135/129
f 83/118/113 89/136/130 82/117/112
f 77/109/104 91/137/131 83/134/128
f 90/135/129 83/134/128 91/137/131
f 90/135/129 91/137/131 70/105/100
f 77/109/104 73/103/98 91/137/131
f 73/103/98 70/105/100 91/137/131
f 70/105/100 92/138/132 90/135/129
f 90/139/129 92/140/132 94/141/133
f 93/142/134 90/139/129 94/141/133
f 89/143/127 90/139/129 93/142/134
f 96/144/135 94/145/136 95/146/137
f 95/146/137 94/145/136 3/6/6
f 71/101/96 94/145/136 92/147/138
f 94/145/136 71/101/96 3/6/6
f 96/148/139 93/142/134 94/141/133
f 97/149/140 98/150/141 96/151/142
f 97/152/143 96/144/135 95/146/137
f 93/142/134 96/148/139 99/153/144
f 96/151/142 98/150/141 99/154/145
f 93/155/146 99/156/147 10/157/148
f 100/158/149 10/157/148 99/156/147
f 98/159/150 100/158/149 99/156/147
f 101/160/151 10/161/13 100/162/152
f 101/160/151 100/162/152 98/150/153
f 101/160/151 98/150/153 97/149/154
f 101/160/151 8/163/12 10/161/13
f 101/160/151 3/164/11 8/163/12
f 101/160/151 95/165/155 3/164/11
f 101/160/151 97/149/154 95/165/155
f 89/136/130 93/155/146 82/117/112
f 10/157/148 82/117/112 93/155/146
f 71/101/96 92/147/138 70/100/95
f 10/157/148 13/166/156 82/117/112
f 22/27/27 27/30/30 82/119/114
f 22/27/27 82/119/114 15/20/20
f 15/20/20 82/119/114 13/18/18
f 65/91/86 64/89/84 75/108/103
f 2/4/4 3/6/6 71/101/96
f 2/1/1 71/99/157 69/97/92
f 69/97/92 20/24/24 19/25/25
f 19/25/25 2/1/1 69/97/92
f 102/167/158 69/97/92 60/96/91
f 69/97/92 102/167/158 20/24/24
f 60/96/91 103/168/159 102/167/158
f 103/168/159 20/24/24 102/167/158
f 60/96/91 61/169/160 103/168/159
f 58/170/161 103/168/159 61/169/160
f 103/168/159 104/171/162 20/24/24
f 104/171/162 103/168/159 105/172/163
f 58/170/161 105/172/163 103/168/159
f 58/170/161 43/173/164 105/172/163
f 105/172/163 107/174/165 106/175/166
f 104/171/162 105/172/163 106/175/166
f 105/172/163 43/173/164 107/174/165
f 106/175/166 107/174/165 30/34/34
f 31/38/35 107/176/165 37/49/46
f 31/35/35 30/34/34 107/174/165
f 107/176/165 39/50/47 37/49/46
f 39/50/47 107/176/165 43/57/164
f 106/175/166 30/34/34 108/177/167
f 106/175/166 108/177/167 104/171/162
f 18/23/23 108/177/167 23/28/28
f 20/24/24 108/177/167 18/23/23
f 23/28/28 108/177/167 30/34/34
f 20/24/24 104/171/162 108/177/167
f 55/76/72 65/91/86 56/78/74
f 48/68/67 43/58/57 58/82/77
f 52/69/68 33/178/168 45/61/60
f 28/42/40 33/44/39 52/131/125
f 46/179/169 33/41/39 42/52/170
f 46/62/61 45/61/60 33/178/168
f 42/52/170 41/53/171 46/179/169
f 34/40/38 42/52/170 33/41/39
f 16/21/21 4/2/2 19/25/25
f 19/25/25 4/2/2 2/1/1
f 5/8/8 4/2/2 16/21/21
f 12/180/172 13/166/156 10/157/148
f 12/180/172 10/157/148 9/181/173
