# ('FARMS composite mesh',)
mtllib link_body_12_composite.mtl

o link_body_12
usemtl link_body_12_composite
v -0.12721700 5.45964400 5.37989500
v -0.12721700 5.45964400 5.37989500
v -1.54244600 5.22874400 5.43766000
v -1.54244600 5.22874400 5.43766000
v -0.77388100 6.43743300 4.09524800
v 2.75286700 5.52982900 4.82229500
v -0.86102000 4.23787500 6.34668200
v 2.48429000 5.05233000 5.41615900
v 2.48429000 5.05233000 5.41615900
v 3.52710000 5.33669200 4.88937700
v 3.52710000 5.33669200 4.88937700
v 2.85067600 4.73723100 5.62417600
v 2.85067600 4.73723100 5.62417600
v 2.99850700 3.96432100 6.06843000
v 2.99850700 3.96432100 6.06843000
v 3.77175300 5.03174800 5.11158500
v 3.77175300 5.03174800 5.11158500
v 3.77175300 5.03174800 5.11158500
v 2.95862500 5.12874800 5.13219000
v 2.95862500 5.12874800 5.13219000
v 2.95862500 5.12874800 5.13219000
v 2.95862500 5.12874800 5.13219000
v 2.95862500 5.12874800 5.13219000
v 2.96114400 5.68542000 4.41236600
v 2.96114400 5.68542000 4.41236600
v 2.52072000 5.77308700 4.39263000
v 2.52072000 5.77308700 4.39263000
v 1.14695700 3.58155200 6.02462100
v 0.49628500 4.98005200 4.70421500
v 0.49628500 4.98005200 4.70421500
v 2.67900700 5.83706700 4.27729000
v 2.67900700 5.83706700 4.27729000
v 1.23899800 6.48328800 2.69816600
v 1.23899800 6.48328800 2.69816600
v 0.83441300 6.73788000 1.55678900
v 0.83441300 6.73788000 1.55678900
v -1.19781200 5.25291600 2.78458000
v -1.19781200 5.25291600 2.78458000
v -1.49637000 6.90864800 2.95939000
v -1.21274300 7.55069000 -0.75112700
v -2.54861200 7.24677800 0.76966500
v -2.54861200 7.24677800 0.76966500
v -3.49275400 6.70727200 -1.45102400
v -3.49275400 6.70727200 -1.45102400
v -0.52588200 7.08553300 -2.96676300
v -3.32536800 6.31735100 -2.90747600
v -3.32536800 6.31735100 -2.90747600
v -0.06137000 7.43640100 -1.83608700
v 0.90038700 6.94182300 -0.06449800
v 0.90038700 6.94182300 -0.06449800
v 0.38177800 6.47546600 -2.02627000
v 1.39654800 6.92638600 -1.28155900
v 1.39654800 6.92638600 -1.28155900
v -1.55062000 5.50888600 -1.42510300
v -1.55062000 5.50888600 -1.42510300
v -1.05499900 6.01058500 -0.00000000
v -1.05499900 6.01058500 -0.00000000
v -1.55062000 5.50888600 1.42510300
v -1.55062000 5.50888600 1.42510300
v -2.74497800 3.96639700 2.10932800
v -2.73092700 4.50665700 -0.00000100
v -4.02226700 1.98534800 -0.00000100
v -3.83414600 2.14152200 -1.36706300
v -3.01660300 3.50466400 -2.24949900
v -3.85082600 2.07387100 1.42510100
v -3.32758400 0.47430900 3.63808000
v -3.41526500 2.05704900 2.78458100
v -4.12593100 -0.69082200 1.42510200
v -3.48348200 -1.83217100 2.78458100
v -3.94835200 -2.22901800 -0.00000100
v -3.32209400 -3.35034500 1.42510100
v -3.32209400 -3.35034500 1.42510100
v -4.24541300 -0.46165000 -0.91509100
v -3.44445800 -1.87846900 -2.83225400
v -3.25441600 -3.18814000 -2.06597700
v -3.25441600 -3.18814000 -2.06597700
v -3.70862900 0.64334600 -2.78954300
v -3.02365400 -0.69562200 -4.03352200
v -3.02365400 -0.69562200 -4.03352200
v -2.67716900 2.17278600 -4.07776000
v -2.67716900 2.17278600 -4.07776000
v -0.80002100 2.99091900 -5.41923200
v -0.80002100 2.99091900 -5.41923200
v -0.80002100 2.99091900 -5.41923200
v -0.80002100 2.99091900 -5.41923200
v -1.80184300 -0.54049800 -5.44658200
v -1.80184300 -0.54049800 -5.44658200
v -1.80184300 -0.54049800 -5.44658200
v -0.94221900 4.58970900 -4.03352200
v -0.94221900 4.58970900 -4.03352200
v -0.94221900 4.58970900 -4.03352200
v -1.67220600 1.17751500 -5.44042800
v -1.67220600 1.17751500 -5.44042800
v -1.67220600 1.17751500 -5.44042800
v -5.27324100 -1.03049900 -5.47171800
v -5.27324100 -1.03049900 -5.47171800
v -5.27324100 -1.03049900 -5.47171800
v -5.36905600 0.65084100 -5.46940100
v -5.36905600 0.65084100 -5.46940100
v -4.78387500 2.49887800 -5.46015000
v -4.78387500 2.49887800 -5.46015000
v -5.64882800 2.95605400 -4.31893700
v -3.82311200 3.83637700 -5.43476500
v -3.82311200 3.83637700 -5.43476500
v -3.82311200 3.83637700 -5.43476500
v -4.01578800 5.03216800 -4.20971900
v -4.01578800 5.03216800 -4.20971900
v -1.78149600 5.20956200 -5.37160200
v -1.78149600 5.20956200 -5.37160200
v -1.78149600 5.20956200 -5.37160200
v -1.78149600 5.20956200 -5.37160200
v -1.85743200 6.12945500 -4.26741700
v -1.85743200 6.12945500 -4.26741700
v 0.72568400 5.53821200 -5.25229200
v 0.72568400 5.53821200 -5.25229200
v 0.72568400 5.53821200 -5.25229200
v 0.00000200 6.37959100 -4.26279100
v 0.00000200 6.37959100 -4.26279100
v 1.35740900 6.81344200 -3.31186400
v 1.35740900 6.81344200 -3.31186400
v 1.18967200 6.53782700 -3.73918800
v 1.18967200 6.53782700 -3.73918800
v 1.37019800 6.83435900 -3.27085400
v 1.37019800 6.83435900 -3.27085400
v 1.37534900 6.84268300 -3.24536100
v 1.37534900 6.84268300 -3.24536100
v 1.38131200 6.85026300 -3.03562400
v 1.38131200 6.85026300 -3.03562400
v 1.39685900 6.84916600 -2.93653000
v 1.39685900 6.84916600 -2.93653000
v 1.29103400 6.69759000 -2.88555600
v 1.03096700 6.27390400 -3.86720600
v 1.11429900 6.30069700 -2.87024800
v 1.11429900 6.30069700 -2.87024800
v 1.23232500 6.43873500 -2.64856100
v 1.23232500 6.43873500 -2.64856100
v 1.41652300 6.84600400 -2.82605500
v 1.41652300 6.84600400 -2.82605500
v 1.59534000 6.79708800 -2.09823900
v 1.59534000 6.79708800 -2.09823900
v 1.60911300 6.79302000 -2.04869600
v 1.60911300 6.79302000 -2.04869600
v 1.61364500 6.79149500 -2.03644800
v 1.61364500 6.79149500 -2.03644800
v 1.58181100 6.74378200 -2.05392100
v 1.58181100 6.74378200 -2.05392100
v 1.61064100 6.76318500 -2.01016300
v 1.61064100 6.76318500 -2.01016300
v 1.38890500 6.59455600 -2.41322300
v 1.38890500 6.59455600 -2.41322300
v 1.64410000 6.78012100 -1.97851400
v 1.64410000 6.78012100 -1.97851400
v 1.64410000 6.78012100 -1.97851400
v 1.40531900 6.84820000 -2.89051000
v 1.40531900 6.84820000 -2.89051000
v 0.97841200 6.06466600 -3.29142000
v 0.97841200 6.06466600 -3.29142000
v 0.97143300 6.05175700 -3.30812000
v 0.97143300 6.05175700 -3.30812000
v 0.89823100 5.86308900 -3.57800200
v 0.89823100 5.86308900 -3.57800200
v 0.87371900 5.73170400 -3.78965700
v 0.87371900 5.73170400 -3.78965700
v -1.19781200 5.25291600 -2.78458100
v -1.19781200 5.25291600 -2.78458100
v 0.84208400 5.57328100 -4.00966100
v 0.84208400 5.57328100 -4.00966100
v 0.82003300 5.47390300 -4.11023300
v 0.82003300 5.47390300 -4.11023300
v 0.82581300 5.47643300 -4.19616300
v 0.81498200 5.40555700 -4.18567600
v 0.81498200 5.40555700 -4.18567600
v 0.85569600 5.23043700 -4.41226400
v 0.85569600 5.23043700 -4.41226400
v 0.92695100 4.97608900 -4.74888600
v 0.92695100 4.97608900 -4.74888600
v 0.98631600 5.71450700 -4.69586000
v 1.05889000 5.83436800 -4.74892500
v 1.05889000 5.83436800 -4.74892500
v 1.06516600 5.78382500 -4.81688100
v 1.06516600 5.78382500 -4.81688100
v 1.06230600 5.88598100 -4.67673600
v 1.06230600 5.88598100 -4.67673600
v 1.03908400 4.80098200 -5.19961500
v 1.03908400 4.80098200 -5.19961500
v 1.17322700 5.48063000 -5.15810700
v 1.17322700 5.48063000 -5.15810700
v 1.17322700 5.48063000 -5.15810700
v 1.02652300 4.66152900 -5.20494600
v 1.02652300 4.66152900 -5.20494600
v 0.99827000 4.66086100 -5.10709600
v 0.99827000 4.66086100 -5.10709600
v 1.03260800 4.58009200 -5.20520200
v 1.03260800 4.58009200 -5.20520200
v 1.03260800 4.58009200 -5.20520200
v 0.64481800 4.35133600 -5.29212100
v 0.64481800 4.35133600 -5.29212100
v 0.64481800 4.35133600 -5.29212100
v 1.12472400 5.64395100 -4.99295400
v 1.12472400 5.64395100 -4.99295400
v 1.09773100 6.24286700 -4.17422100
v 1.09773100 6.24286700 -4.17422100
v 1.10900200 6.36017400 -4.00764400
v 1.10900200 6.36017400 -4.00764400
v 1.11662700 6.38849500 -3.96618000
v 1.11662700 6.38849500 -3.96618000
v -5.43503900 4.54536800 -3.00619300
v -6.76789800 2.18334000 -2.95559500
v -5.32117400 5.32117600 -1.49689700
v -6.66185200 3.56945100 -1.51262600
v -7.41218600 2.10724300 0.00000000
v -6.66619800 3.78817700 0.91333600
v -7.51736500 0.82224200 -1.45102300
v -4.99228300 5.87010000 -0.00000000
v -4.74461500 5.87364400 1.57056200
v -5.43503900 4.54536800 3.00619200
v -3.32536700 6.31735100 2.90747500
v -3.32536700 6.31735100 2.90747500
v -3.06189300 5.64857100 4.24709500
v -3.06189300 5.64857100 4.24709500
v -3.06189300 5.64857100 4.24709500
v -5.01377200 3.96962200 4.28123200
v -3.20396500 3.75687900 5.93416100
v -3.20396500 3.75687900 5.93416100
v -4.79149600 2.51124200 5.46054300
v -4.79149600 2.51124200 5.46054300
v -3.94796000 1.70267800 6.39813000
v -1.76348500 2.95193000 6.84177200
v 2.67372500 3.21470000 6.44338600
v 2.67372500 3.21470000 6.44338600
v -2.44349400 1.48203100 7.12278400
v 1.40503700 0.60611500 7.03674900
v 1.40503700 0.60611500 7.03674900
v 1.42071900 2.21799200 6.73565200
v 1.42071900 2.21799200 6.73565200
v 0.25276900 0.59296000 6.69174500
v -0.34162300 2.27974800 6.04889800
v -2.04283100 0.93831000 5.18652000
v -2.04283100 0.93831000 5.18652000
v -1.07128100 0.03457600 6.03382800
v -1.07128100 0.03457600 6.03382800
v -1.03523300 3.24432700 5.10397600
v -1.03523300 3.24432700 5.10397600
v -0.94221900 4.58970900 4.03352100
v -0.94221900 4.58970900 4.03352100
v -0.94221900 4.58970900 4.03352100
v -2.40143300 2.78579800 4.00156700
v -2.39195400 -1.75421100 4.61684400
v -2.39195400 -1.75421100 4.61684400
v 0.58383600 -1.54143900 6.69092700
v -0.16816000 -2.60840100 6.04238800
v 1.93970500 -3.92812000 5.99147300
v 1.51573300 -4.95530200 5.09906100
v 1.51573300 -4.95530200 5.09906100
v 2.11860700 -2.67513500 6.65904900
v 2.11860700 -2.67513500 6.65904900
v 2.11860700 -2.67513500 6.65904900
v -0.56832600 -4.42442400 4.57750100
v -0.56832600 -4.42442400 4.57750100
v -1.61682500 -3.24725400 4.60949000
v -1.61682500 -3.24725400 4.60949000
v -1.61682500 -3.24725400 4.60949000
v -2.29177300 -4.15895800 2.78458100
v -2.29177300 -4.15895800 2.78458100
v -0.20276400 -5.91925000 2.78539900
v -1.56169200 -5.49980500 1.42510100
v 0.85548200 -6.81662700 1.12914100
v 0.85548200 -6.81662700 1.12914100
v -2.56939000 -4.70349500 -0.00000100
v -2.56939000 -4.70349500 -0.00000100
v -0.30819600 -6.48762100 0.05356800
v -0.34268700 -6.33414600 -1.39986900
v 1.40730700 -6.91584300 -1.35700600
v 1.40730700 -6.91584300 -1.35700600
v 1.26881800 -6.94816200 -2.98400600
v 1.80395000 -6.68513100 -2.43443400
v 1.80395000 -6.68513100 -2.43443400
v 1.80395000 -6.68513100 -2.43443400
v -0.05781600 -7.43722000 -1.85005400
v 0.40535100 -6.17022500 -2.76637100
v -0.31087200 -5.02490200 -4.13358000
v -0.31087200 -5.02490200 -4.13358000
v -1.27931100 -5.18828900 -2.78954100
v 1.33683600 -6.08682200 -3.41220800
v 1.33683600 -6.08682200 -3.41220800
v 1.68853200 -6.59307800 -2.61594700
v 1.68853200 -6.59307800 -2.61594700
v 1.57217700 -6.47407100 -2.78560700
v 1.57217700 -6.47407100 -2.78560700
v 1.72692300 -6.62573200 -2.54923900
v 1.72692300 -6.62573200 -2.54923900
v 1.72692300 -6.62573200 -2.54923900
v 1.59693500 -6.58323200 -2.88555000
v 1.59693500 -6.58323200 -2.88555000
v 1.33686700 -6.15954500 -3.86719900
v 1.33686700 -6.15954500 -3.86719900
v 1.66358200 -6.69594100 -2.99633600
v 1.66358200 -6.69594100 -2.99633600
v 1.66358200 -6.69594100 -2.99633600
v 1.67891300 -6.70064900 -2.92503700
v 1.67891300 -6.70064900 -2.92503700
v 1.70002300 -6.70515200 -2.83667100
v 1.70002300 -6.70515200 -2.83667100
v 1.52067000 -6.41196400 -2.87894400
v 1.52067000 -6.41196400 -2.87894400
v 1.75072800 -6.70695800 -2.66900600
v 1.75072800 -6.70695800 -2.66900600
v 1.63030800 -6.64439700 -3.35555900
v 1.63030800 -6.64439700 -3.35555900
v 1.63030800 -6.64439700 -3.35555900
v 1.49247300 -6.41831500 -3.74168100
v 1.49247300 -6.41831500 -3.74168100
v 1.49247300 -6.41831500 -3.74168100
v 1.44124100 -6.32070100 -3.90616800
v 1.44124100 -6.32070100 -3.90616800
v 1.42737300 -6.28062000 -3.97177400
v 1.42737300 -6.28062000 -3.97177400
v 1.42737300 -6.28062000 -3.97177400
v 1.42052300 -6.25202900 -4.01775400
v 1.42052300 -6.25202900 -4.01775400
v 1.39582800 -5.83395500 -4.66977800
v 1.39582800 -5.83395500 -4.66977800
v 1.29221400 -5.60014900 -4.69585400
v 1.39439900 -5.76891300 -4.77056900
v 1.39439900 -5.76891300 -4.77056900
v 1.40696500 -5.70102600 -4.87197700
v 1.40696500 -5.70102600 -4.87197700
v 1.45030000 -5.58294800 -5.04258200
v 1.45030000 -5.58294800 -5.04258200
v 1.45030000 -5.58294800 -5.04258200
v 1.33818100 -5.53518600 -5.14651000
v 1.33818100 -5.53518600 -5.14651000
v 1.33818100 -5.53518600 -5.14651000
v 1.45085500 -5.57519500 -5.04892800
v 1.45085500 -5.57519500 -5.04892800
v 1.46464600 -5.48837200 -5.11574700
v 1.46464600 -5.48837200 -5.11574700
v 1.46464600 -5.48837200 -5.11574700
v 1.33843600 -4.79993200 -5.13712600
v 1.33843600 -4.79993200 -5.13712600
v 1.33263600 -4.74074300 -5.13775900
v 1.33263600 -4.74074300 -5.13775900
v 1.33263600 -4.74074300 -5.13775900
v 0.71676400 -4.42460500 -5.28067300
v 0.71676400 -4.42460500 -5.28067300
v 0.71676400 -4.42460500 -5.28067300
v 1.28598700 -4.95179100 -4.90175200
v 1.28598700 -4.95179100 -4.90175200
v 1.20124800 -5.26303100 -4.49835100
v 1.20124800 -5.26303100 -4.49835100
v 1.16679600 -5.41411500 -4.30538300
v 1.16679600 -5.41411500 -4.30538300
v 1.18677200 -5.55702000 -4.14530800
v 1.18677200 -5.55702000 -4.14530800
v 1.18886900 -5.58425100 -4.10450800
v 1.18886900 -5.58425100 -4.10450800
v 1.24816800 -5.88502300 -3.67394300
v 1.24816800 -5.88502300 -3.67394300
v 1.29799100 -6.01448200 -3.50211400
v 1.29799100 -6.01448200 -3.50211400
v -0.66990200 -3.12254600 -5.41466700
v -0.66990200 -3.12254600 -5.41466700
v -0.66990200 -3.12254600 -5.41466700
v -0.66990200 -3.12254600 -5.41466700
v -0.48967700 -5.53989400 -5.31285000
v -0.48967700 -5.53989400 -5.31285000
v -1.24459800 -6.25701100 -4.26279100
v -2.09385900 -5.05512200 -5.36915900
v -2.09385900 -5.05512200 -5.36915900
v -2.09385900 -5.05512200 -5.36915900
v -0.00000100 -6.88613800 -3.48991400
v -3.62395700 -4.04200300 -5.42823100
v -3.62395700 -4.04200300 -5.42823100
v -5.58614200 -3.11301600 -4.28123300
v -5.58614200 -3.11301600 -4.28123300
v -5.58614200 -3.11301600 -4.28123300
v -2.99829600 -5.60960400 -4.32565100
v -2.99829600 -5.60960400 -4.32565100
v -4.22182300 -5.29320100 -3.71488300
v -4.22182300 -5.29320100 -3.71488300
v -4.80113900 -2.48450600 -5.46077000
v -4.80113900 -2.48450600 -5.46077000
v -6.61046300 -1.86721200 -3.52104200
v -6.61046300 -1.86721200 -3.52104200
v -6.70727300 -3.49275900 -1.45102200
v -6.70727300 -3.49275900 -1.45102200
v -5.57542500 -4.41430200 -2.95559600
v -5.57542500 -4.41430200 -2.95559600
v -7.33801300 -0.68255200 -2.33839200
v -6.33998500 0.56855600 -4.31819100
v -7.65437500 -0.88968100 -0.00000100
v -7.53080800 -0.60858200 1.50940700
v -6.72466600 -3.44417400 1.50940500
v -6.72466600 -3.44417400 1.50940500
v -6.73125400 -3.75116300 -0.00000100
v -6.73125400 -3.75116300 -0.00000100
v -4.80165700 -5.85083600 -1.50996900
v -4.83515700 -5.79934300 1.57056000
v -4.82389700 -6.00266300 0.06299600
v -2.54861700 -7.24677900 0.76967500
v -3.35816000 -6.28267300 2.95646000
v -2.07894300 -7.28119700 -1.42028300
v -1.35723700 -7.52516700 -0.37457900
v -1.49637600 -6.90864900 2.95939200
v -2.51748400 -5.33870700 4.98447300
v -2.51748400 -5.33870700 4.98447300
v 1.26260500 -6.52209400 2.52516100
v 1.26260500 -6.52209400 2.52516100
v -0.75287100 -6.44203900 4.08246900
v 1.75441200 -6.05845200 3.80494500
v 1.75441200 -6.05845200 3.80494500
v -0.35324300 -5.49028700 5.35215700
v -0.35324300 -5.49028700 5.35215700
v 3.34437600 -5.27177900 5.07013900
v 3.34437600 -5.27177900 5.07013900
v 2.95850300 -5.69084100 4.40566300
v 2.95850300 -5.69084100 4.40566300
v 3.65750700 -5.08185500 5.10416200
v 3.65750700 -5.08185500 5.10416200
v 3.65750700 -5.08185500 5.10416200
v 3.65750700 -5.08185500 5.10416200
v 3.58606200 -5.52914700 4.52778300
v 3.58606200 -5.52914700 4.52778300
v 2.86888900 -3.77543300 6.21151100
v 2.86888900 -3.77543300 6.21151100
v -1.79215000 -2.92650900 6.84827100
v -0.72921200 -4.30934400 6.30380600
v 2.90226400 -3.42469600 6.32653400
v 2.90226400 -3.42469600 6.32653400
v 2.90226400 -3.42469600 6.32653400
v 2.58484800 -3.10769100 6.47635700
v 2.58484800 -3.10769100 6.47635700
v -2.61137300 -3.38404200 6.44820700
v -4.22031200 -3.39791800 5.46100900
v -2.46229200 -1.44760000 7.12612900
v -4.19053000 -0.87096800 6.40435500
v -2.62677600 0.24285600 7.21688800
v -5.74168400 -1.45036600 4.95363500
v -5.74168400 -1.45036600 4.95363500
v -5.40592500 0.55557500 5.44234800
v -5.40592500 0.55557500 5.44234800
v -6.33998600 0.56855400 4.31819000
v -6.33277400 2.55508400 3.58824900
v -7.38068300 1.46810900 1.49689600
v -7.03479300 0.69287000 3.05813600
v -6.84284700 -1.99188500 2.90787900
v -5.58614000 -3.11301800 4.28123300
v -5.58614000 -3.11301800 4.28123300
v -5.58614000 -3.11301800 4.28123300
v -5.57542500 -4.41430200 2.95559500
v -5.57542500 -4.41430200 2.95559500
v -4.05065200 -4.93573000 4.28154900
v -4.05065200 -4.93573000 4.28154900
v 1.44738400 -0.94988600 6.99280100
v 1.44738400 -0.94988600 6.99280100
v -2.04131200 -6.87406200 -2.82608200
v -2.30188500 -2.93295400 -4.03352200
v -2.30188500 -2.93295400 -4.03352200
v -1.56271400 -2.39878300 -5.12633800
v -1.56271400 -2.39878300 -5.12633800
v -1.56271400 -2.39878300 -5.12633800
v -2.59472900 -4.46031100 -1.36706100
v -2.59472900 -4.46031100 -1.36706100
vn 0.01809813 0.79471318 0.60671527
vn 0.02756844 0.61005630 0.79187833
vn -0.23244528 0.61597947 0.75268751
vn -0.17474671 0.77937713 0.60169334
vn -0.02184907 0.88181216 0.47109441
vn 0.14626800 0.83133982 0.53617140
vn -0.05562549 0.49634690 0.86634033
vn 0.14641618 0.72703533 0.67080693
vn 0.07402075 0.60324678 0.79411224
vn 0.19651823 0.74508199 0.63736442
vn -0.00382286 -0.75509204 -0.65560766
vn 0.17933325 0.67868804 0.71219529
vn 0.17234713 0.53877057 0.82463491
vn 0.13593950 0.47745232 0.86807819
vn 0.09975898 -0.58029598 -0.80827268
vn 0.15890801 0.76851405 0.61978577
vn 0.28345575 0.51806722 0.80700632
vn -0.09427133 -0.62577906 -0.77428256
vn -0.00382286 -0.75509204 -0.65560766
vn 0.48279474 0.18445608 0.85608714
vn 0.11062515 -0.74723019 -0.65529316
vn 0.12890474 0.78423059 0.60693159
vn 0.03967392 -0.63058697 -0.77510390
vn -0.13090602 -0.78401979 -0.60677557
vn 0.12878450 0.78376700 0.60755563
vn 0.13138236 0.83688597 0.53137609
vn -0.00382286 -0.75509204 -0.65560766
vn 0.26401850 -0.51234314 -0.81718954
vn 0.31136223 -0.79444427 -0.52145169
vn 0.33678503 -0.57610938 -0.74476428
vn 0.13059222 0.83606184 0.53286610
vn 0.11973219 -0.78343178 -0.60983510
vn 0.16688733 0.95961323 0.22647530
vn 0.35086422 -0.83037259 -0.43286910
vn 0.23389553 0.96328886 0.13178564
vn 0.44505505 -0.86963887 -0.21366854
vn 0.68342376 -0.61753319 -0.38933883
vn 0.42610112 -0.82007714 -0.38198340
vn -0.07780933 0.94145720 0.32803057
vn -0.05701358 0.99788694 -0.03116256
vn -0.17628488 0.97736470 0.11696962
vn -0.48728099 0.86828135 0.09297700
vn -0.27831433 0.93494967 -0.22002329
vn -0.55308154 0.81956627 -0.14970617
vn -0.09764190 0.92273819 -0.37285424
vn -0.52306616 0.75193003 -0.40125183
vn -0.25647143 0.91363593 -0.31542321
vn 0.11821494 0.98753379 -0.10393381
vn 0.24897686 0.96011284 0.12725508
vn 0.42686606 -0.90405906 0.02150754
vn 0.37696024 -0.88488298 0.27364776
vn 0.27534149 -0.94139836 0.19482347
vn 0.32853640 0.94400355 0.03035011
vn 0.71317653 -0.67938652 0.17266497
vn 0.47299223 -0.85871629 0.19719199
vn 0.66788270 -0.74426655 -0.00000001
vn 0.42983967 -0.90289280 -0.00473828
vn 0.70203333 -0.69278375 -0.16492386
vn 0.44694299 -0.86914152 -0.21174272
vn 0.78954301 -0.54091549 -0.28988319
vn 0.79738469 -0.60346192 0.00337133
vn 0.96211820 -0.27257661 -0.00552799
vn 0.93456644 -0.29695405 0.19596901
vn 0.81603136 -0.48630828 0.31240530
vn 0.94215820 -0.27688038 -0.18887876
vn 0.86878367 -0.05642638 -0.49196646
vn 0.88096343 -0.27520485 -0.38492301
vn 0.97769692 0.07457589 -0.19633431
vn 0.88414757 0.25969706 -0.38838192
vn 0.94770053 0.31906489 0.00782982
vn 0.75839606 0.62112435 -0.19758532
vn 0.89555814 0.40260624 -0.18943027
vn 0.99024925 0.05714144 0.12704831
vn 0.89315485 0.23899452 0.38099349
vn 0.72027360 0.56634591 0.40057240
vn 0.89987817 0.38075103 0.21271562
vn 0.91876237 -0.09054913 0.38428707
vn 0.72885117 0.20629864 0.65285285
vn 0.83295338 0.06259684 0.54979114
vn 0.63890287 -0.31549120 0.70161843
vn 0.79378049 -0.29670075 0.53092484
vn 0.02308525 0.02353147 -0.99945652
vn 0.46333174 -0.55652128 0.68964322
vn 0.63955378 -0.47022501 0.60816067
vn 0.63890287 -0.31549120 0.70161843
vn 0.00787050 -0.00297464 -0.99996460
vn 0.76635487 -0.07466431 0.63806383
vn 0.68391916 0.20849210 0.69913205
vn 0.67595517 -0.52378724 0.51839322
vn 0.46333174 -0.55652128 0.68964322
vn 0.40184592 -0.74200891 0.53660286
vn 0.00818402 0.00474612 -0.99995525
vn 0.63890287 -0.31549120 0.70161843
vn 0.78142610 -0.06118889 0.62099047
vn 0.00764408 -0.00128592 -0.99996996
vn -0.74655982 -0.24705211 -0.61774889
vn -0.78507751 -0.08072169 -0.61411506
vn -0.75969093 0.10161839 -0.64229541
vn 0.00753114 0.00214673 -0.99996934
vn -0.67654499 0.34457775 -0.65080953
vn 0.00817879 0.00642944 -0.99994588
vn -0.73421948 0.38699690 -0.55781282
vn -0.39893959 0.62403789 -0.67188088
vn 0.00994328 0.01718537 -0.99980288
vn -0.61427013 0.49424734 -0.61513558
vn -0.54758039 0.65477776 -0.52098158
vn -0.39893959 0.62403789 -0.67188088
vn -0.24760967 0.68689540 -0.68327459
vn -0.37231754 0.70032124 -0.60904007
vn 0.02688253 0.03334057 -0.99908245
vn -0.10088152 0.76096827 -0.64089797
vn -0.16441018 0.83686976 -0.52212862
vn -0.38197282 0.72093308 -0.57823201
vn 0.17410892 0.78352189 -0.59647257
vn -0.06448244 0.73640545 -0.67346049
vn 0.13281836 0.02716475 -0.99076807
vn -0.06448244 0.73640545 -0.67346049
vn 0.01867288 0.83933036 -0.54330090
vn 0.85822101 -0.51324706 -0.00584376
vn 0.06315205 0.87086110 -0.48745539
vn 0.85460415 -0.51916648 0.01085890
vn 0.14663708 0.80407054 -0.57616676
vn 0.85813790 -0.51338697 -0.00575982
vn 0.05847163 0.91755048 -0.39329656
vn 0.15117026 0.95665371 -0.24892015
vn 0.85822368 -0.51324254 -0.00584799
vn 0.34466963 0.93770686 -0.04368849
vn 0.84077855 -0.53965103 -0.04322265
vn 0.34463601 0.93771921 -0.04368868
vn 0.78849374 -0.59835398 -0.14230298
vn 0.85548119 -0.49676872 -0.14619432
vn 0.90616213 -0.41400050 0.08645101
vn 0.90592256 -0.40780148 -0.11402748
vn 0.25989361 -0.87571532 0.40691276
vn 0.25989351 -0.87571578 0.40691182
vn 0.87020767 -0.42521249 -0.24886330
vn 0.78635289 -0.58327323 -0.20357178
vn 0.41836268 0.90731726 -0.04180987
vn 0.84911068 -0.45346866 -0.27088231
vn 0.41837143 0.90731324 -0.04180939
vn 0.41836637 0.90731549 -0.04181129
vn 0.84218567 -0.43286952 -0.32147671
vn 0.41834813 0.90732361 -0.04181762
vn 0.80310328 -0.44895766 -0.39174244
vn 0.21589000 -0.93736067 0.27339802
vn 0.84764781 -0.43828110 -0.29900313
vn 0.76765807 -0.47789807 -0.42698305
vn 0.21588493 -0.93736223 0.27339667
vn 0.85319322 -0.44404531 -0.27365140
vn 0.23567922 -0.91323840 0.33234159
vn 0.71162116 -0.51709936 -0.47560863
vn 0.21586614 -0.93736781 0.27339240
vn 0.41837929 0.90730977 -0.04180619
vn 0.34937143 0.93597037 -0.04357836
vn 0.78427592 -0.60027655 -0.15677802
vn 0.91064470 -0.40802110 -0.06515370
vn 0.36944050 -0.81848713 0.43999152
vn 0.92317687 -0.38070857 -0.05296655
vn 0.40218658 -0.79801941 0.44878834
vn 0.95436678 -0.29829453 0.01429774
vn 0.40219395 -0.79801525 0.44878913
vn 0.40956235 -0.78048779 0.47233198
vn 0.96101979 -0.27060751 0.05667931
vn 0.69636303 -0.60750620 0.38211876
vn 0.44675891 -0.79997935 0.40054902
vn 0.96101194 -0.27063228 0.05669414
vn 0.40278677 -0.74364309 0.53362700
vn 0.37708332 -0.69881502 0.60783693
vn 0.96937216 -0.23860607 0.05817872
vn 0.96891117 -0.19539874 0.15175794
vn 0.37708393 -0.69881604 0.60783538
vn 0.97353549 -0.11999324 0.19450005
vn 0.37708325 -0.69881452 0.60783755
vn 0.95835375 -0.10241694 0.26658742
vn 0.35917216 -0.69945044 0.61787089
vn 0.95642789 -0.09667545 0.27549873
vn 0.91813129 -0.25853178 0.30032692
vn 0.16453901 0.79868163 -0.57882170
vn 0.86918780 -0.39399623 0.29879683
vn 0.16454909 0.79867696 -0.57882529
vn 0.87033730 -0.26169466 0.41716770
vn 0.87744198 -0.41556529 0.23958517
vn 0.16454055 0.79868108 -0.57882202
vn 0.20819693 0.01863137 -0.97790946
vn 0.94566201 -0.11341605 0.30472965
vn 0.22992181 0.72490769 -0.64934183
vn 0.20819716 0.01863137 -0.97790941
vn 0.86933182 -0.19920466 0.45230487
vn 0.20819796 0.01863045 -0.97790926
vn 0.96070079 -0.01242632 0.27730774
vn 0.26233181 -0.69791757 0.66640310
vn 0.95910041 -0.06054506 0.27651528
vn 0.26233231 -0.69791785 0.66640260
vn 0.95821806 0.07072712 0.27715667
vn 0.20819777 0.01863070 -0.97790929
vn 0.33760257 -0.69982273 0.62950191
vn 0.46333174 -0.55652128 0.68964322
vn 0.10319573 0.02633584 -0.99431236
vn 0.86933050 -0.19920510 0.45230721
vn 0.19032074 0.77131591 -0.60733005
vn 0.14793240 0.80369118 -0.57636489
vn 0.87913434 -0.41561906 0.23320292
vn 0.98452943 -0.00030888 -0.17521903
vn 0.14663641 0.80407092 -0.57616640
vn 0.86699383 -0.47480656 0.15126277
vn 0.14663611 0.80407167 -0.57616543
vn -0.70376552 0.59179720 -0.39305238
vn -0.88231730 0.27747464 -0.38016314
vn -0.69837585 0.69011562 -0.18976725
vn -0.86242516 0.46940058 -0.18943581
vn -0.96564018 0.25984247 -0.00457620
vn -0.85613314 0.50141934 0.12495875
vn -0.97551281 0.12091776 -0.18372169
vn -0.65473887 0.75583882 -0.00496847
vn -0.61749419 0.75891365 0.20676316
vn -0.70686876 0.59842840 0.37712068
vn -0.53600539 0.76815828 0.35018719
vn -0.29292298 0.87154582 0.39319717
vn -0.25711067 0.81563827 0.51829366
vn -0.54202236 0.65494455 0.52655427
vn -0.35935246 0.63601637 0.68289750
vn -0.63510085 0.52576919 0.56587425
vn -0.53212236 0.53998068 0.65212473
vn -0.35634203 0.46417396 0.81090252
vn -0.67958169 0.35503837 0.64196299
vn -0.57886862 0.28290220 0.76477282
vn -0.50574832 0.21250802 0.83609747
vn -0.13460352 0.32458154 0.93623112
vn 0.12792458 -0.46660950 -0.87516334
vn 0.08693672 0.34977878 0.93278980
vn -0.19487264 0.18626514 0.96297973
vn 0.05617920 0.06977160 0.99597983
vn 0.28685195 -0.07099039 -0.95534095
vn 0.07575176 0.18703505 0.97942818
vn 0.27555003 -0.32680330 -0.90403085
vn 0.37911058 -0.07811115 -0.92204871
vn 0.45905210 -0.31900403 -0.82916078
vn 0.57042727 -0.21354867 -0.79310131
vn 0.74048928 -0.09456054 -0.66538254
vn 0.51880444 0.00425576 -0.85488236
vn 0.68883136 0.06347123 -0.72213764
vn 0.46529700 -0.45820824 -0.75732682
vn 0.65028350 -0.42718750 -0.62820555
vn 0.46921467 -0.56946100 -0.67494575
vn 0.43371295 -0.75602709 -0.49022048
vn 0.67122282 -0.54743284 -0.49977716
vn 0.73610745 -0.39062847 -0.55277049
vn 0.58861464 0.24865080 -0.76922402
vn 0.79508080 0.22191479 -0.56444694
vn 0.32956193 0.20260697 -0.92213846
vn 0.43445952 0.36358088 -0.82404725
vn 0.18252761 0.53544862 -0.82460805
vn 0.21544153 0.75637347 -0.61764401
vn 0.21378142 0.59619985 -0.77384962
vn 0.19183140 0.39704100 -0.89752947
vn 0.06583532 -0.27644440 0.95877224
vn -0.39892118 -0.68666869 0.60774008
vn 0.40825471 0.51695130 -0.75238916
vn 0.50350443 0.68814309 -0.52243888
vn 0.55689142 0.38633636 -0.73526605
vn 0.77367583 0.40406567 -0.48801296
vn 0.63041822 0.57566140 -0.52075601
vn 0.79797750 0.41070978 -0.44107753
vn 0.66880124 0.65283688 -0.35568091
vn 0.44071077 0.81058593 -0.38564811
vn 0.62079036 0.75969160 -0.19361816
vn 0.22717979 -0.96443063 0.13514033
vn 0.36539656 0.91757121 -0.15667936
vn 0.68626864 0.72689036 -0.02580234
vn 0.87260703 0.48628132 0.04568854
vn 0.45308221 0.89114024 -0.02419888
vn 0.46881660 0.86312874 0.18766932
vn 0.33861020 -0.93979075 0.04622198
vn 0.28516613 0.94004788 0.18705681
vn 0.30551489 -0.91317162 -0.26977443
vn 0.26770052 0.91724251 0.29496207
vn 0.78666378 0.57223884 -0.23173866
vn 0.45862654 -0.88837159 -0.02139205
vn 0.10430603 -0.98825349 -0.11169283
vn 0.34179789 0.85247417 0.39555277
vn 0.45385134 0.55507743 0.69707102
vn 0.45350438 0.70351451 0.54717558
vn 0.60681003 0.69880088 0.37875972
vn 0.26570178 0.83000470 0.49040265
vn 0.91065274 0.40799984 -0.06517449
vn 0.85319033 0.44405013 -0.27365258
vn 0.25915289 0.90573976 0.33537332
vn 0.23235072 0.86399138 0.44669009
vn 0.87049940 0.42487425 -0.24842034
vn 0.85319033 0.44405015 -0.27365258
vn 0.78667278 0.57222376 -0.23174535
vn 0.26767677 0.91725083 0.29495773
vn 0.78792427 0.58650198 -0.18759203
vn 0.88262436 0.45279207 -0.12630745
vn 0.91792900 0.38743004 0.08546531
vn 0.84563677 0.52656571 0.08733272
vn 0.79169572 0.59674240 -0.13082966
vn 0.52698365 -0.83303812 -0.16833219
vn 0.85822630 0.51323813 -0.00585227
vn 0.78827429 0.59846428 -0.14305293
vn 0.52698507 -0.83303680 -0.16833427
vn 0.78640404 0.58237463 -0.20593317
vn 0.52698520 -0.83303493 -0.16834313
vn 0.23235114 0.86399200 0.44668868
vn 0.90611048 0.40782457 -0.11244073
vn 0.47724019 -0.87680880 -0.05872073
vn 0.78664314 0.57227022 -0.23173125
vn 0.14489089 -0.83042866 -0.53795435
vn 0.52698236 -0.83303665 -0.16834349
vn 0.85822632 0.51323809 -0.00585231
vn 0.85822640 0.51323795 -0.00585248
vn 0.14490741 -0.83042885 -0.53794960
vn 0.84401042 0.53362203 0.05379537
vn 0.14486498 -0.83043058 -0.53795835
vn 0.84556545 0.52701773 0.08527238
vn 0.14487482 -0.83043002 -0.53795657
vn 0.84622546 0.51520765 0.13588061
vn 0.89111722 0.40166267 0.21113314
vn 0.98883646 0.13912128 -0.05336416
vn 0.14488785 -0.83042931 -0.53795416
vn 0.14500462 -0.83041906 -0.53793852
vn 0.87733507 0.41556587 0.23997536
vn 0.91813152 0.25854640 0.30031361
vn 0.86899387 0.39313439 0.30049129
vn 0.14489194 -0.83042876 -0.53795391
vn 0.88249353 0.25370792 0.39602710
vn 0.14494370 -0.83041885 -0.53795525
vn 0.14489026 -0.83043179 -0.53794968
vn 0.86993712 0.27358140 0.41032015
vn 0.39170801 -0.59940936 -0.69804961
vn 0.17922857 -0.01854086 -0.98363273
vn 0.39169432 -0.59942787 -0.69804140
vn 0.11227827 -0.81587737 -0.56721927
vn 0.91090240 0.18377308 0.36943778
vn 0.39170323 -0.59941582 -0.69804674
vn 0.89309299 0.17657783 0.41376948
vn 0.23202994 0.01233315 -0.97263045
vn 0.39169339 -0.59942912 -0.69804084
vn 0.23201281 0.01233321 -0.97263454
vn 0.94779311 0.11185749 0.29862373
vn 0.95643060 0.09667132 0.27549077
vn 0.23203030 0.01233329 -0.97263037
vn 0.20717619 0.70854763 0.67456526
vn 0.25460501 0.73042820 0.63375936
vn 0.10222466 -0.04146293 -0.99389685
vn 0.45385134 0.55507743 0.69707102
vn 0.24944558 0.72817997 0.63838141
vn 0.95642805 0.09667530 0.27549821
vn 0.95834421 0.10238462 0.26663413
vn 0.26614906 0.73533913 0.62325038
vn 0.26614515 0.73533909 0.62325211
vn 0.95231208 0.23595249 0.19346351
vn 0.93920121 0.30592886 0.15591222
vn 0.28030977 0.77649333 0.56434434
vn 0.94406153 0.29965603 0.13767388
vn 0.28937800 0.80296955 0.52105688
vn 0.95460212 0.29747686 0.01556645
vn 0.28937634 0.80296685 0.52106196
vn 0.92353099 0.37989859 -0.05260773
vn 0.28938050 0.80296945 0.52105564
vn 0.58869446 0.51230504 0.62528584
vn 0.02242510 -0.02705489 -0.99938238
vn 0.44893139 0.20754923 0.86912825
vn 0.45385134 0.55507743 0.69707102
vn 0.05118980 -0.04556809 -0.99764881
vn -0.06416845 -0.78202638 -0.61993319
vn -0.17317082 -0.81025338 -0.55991189
vn -0.23078016 -0.74222630 -0.62915868
vn 0.03214027 -0.00973323 -0.99943597
vn -0.39038051 -0.62879556 -0.67247246
vn 0.01009501 -0.88860254 -0.45856691
vn 0.01322665 -0.01860356 -0.99973945
vn -0.52858118 -0.56380858 -0.63460367
vn -0.68383248 -0.36762151 -0.63025991
vn -0.65054135 -0.54460437 -0.52934113
vn -0.81182804 -0.41995422 -0.40567681
vn -0.33904008 -0.79674676 -0.50024636
vn -0.43663614 -0.62761777 -0.64455009
vn -0.53639198 -0.58141079 -0.61175578
vn -0.54378017 -0.74037257 -0.39516020
vn -0.68570671 -0.34912787 -0.63868304
vn 0.01024619 -0.00851057 -0.99991129
vn -0.74677761 -0.24092446 -0.61990209
vn -0.87354703 -0.24558885 -0.42024005
vn -0.77074142 -0.61908855 -0.15062214
vn -0.91709451 -0.33456490 -0.21680401
vn -0.69692509 -0.61756152 -0.36457262
vn -0.82335419 -0.41944786 -0.38229750
vn -0.94930618 -0.09581600 -0.29939449
vn -0.83217319 0.06965194 -0.55012398
vn -0.99147843 -0.13017314 -0.00504657
vn -0.97752105 -0.08342061 0.19363265
vn -0.77265191 -0.61588777 0.15391972
vn -0.91516619 -0.34167340 0.21384605
vn -0.95169945 -0.30702054 -0.00255631
vn -0.77539822 -0.63146624 0.00282754
vn -0.61281914 -0.76643301 -0.19243996
vn -0.63528849 -0.74434663 0.20580726
vn -0.62520663 -0.78045863 -0.00099613
vn -0.30988751 -0.94475163 0.10683671
vn -0.43252777 -0.81747318 0.38033845
vn -0.29702868 -0.93803836 -0.17848809
vn -0.02450308 -0.99898469 0.03780456
vn -0.08198496 -0.93894864 0.33414654
vn -0.33025297 -0.59477500 0.73292270
vn -0.29590999 -0.78613572 0.54261212
vn 0.17764739 -0.95672119 0.23049070
vn 0.30112919 0.88512705 -0.35478348
vn -0.01508350 -0.88333733 0.46849509
vn 0.17347120 -0.95233648 0.25092422
vn 0.24862359 0.78799083 -0.56325551
vn -0.01974737 -0.63114478 0.77541364
vn -0.01073451 -0.79848493 0.60191909
vn 0.24627934 -0.82100804 0.51506532
vn 0.17222143 -0.56521376 0.80676712
vn 0.03380446 0.75569416 -0.65405167
vn 0.13920200 -0.88343650 0.44739553
vn 0.23955517 -0.53955230 0.80715341
vn 0.04080022 0.66027301 -0.74991660
vn -0.00306176 0.75526448 -0.65541299
vn 0.39621287 -0.74850130 0.53175292
vn -0.08657235 0.79222083 -0.60406240
vn 0.20377523 -0.84620130 0.49236066
vn 0.10101810 -0.46049870 0.88189358
vn 0.11940399 0.47488903 -0.87190773
vn -0.09170956 -0.30859421 0.94676236
vn -0.03929544 -0.51357412 0.85714497
vn -0.39892118 -0.68666869 0.60774008
vn 0.09563672 -0.31839407 0.94312186
vn 0.10593896 0.40259210 -0.90922854
vn 0.07061541 0.46578863 -0.88207393
vn -0.39892118 -0.68666869 0.60774008
vn -0.34666977 -0.43738403 0.82976821
vn -0.55031212 -0.43125762 0.71496394
vn -0.20796188 -0.16378115 0.96432753
vn -0.54267937 -0.12191317 0.83104530
vn -0.22432079 0.01853405 0.97433910
vn -0.64220010 -0.22255410 0.73351804
vn -0.83448239 -0.14452813 0.53174314
vn -0.62767139 0.04530324 0.77715908
vn -0.76313163 0.12253026 0.63452064
vn -0.82642251 0.06275722 0.55954211
vn -0.82450866 0.33415916 0.45664333
vn -0.96203226 0.19483645 0.19113524
vn -0.91581267 0.07414521 0.39470197
vn -0.89030967 -0.25031425 0.38038331
vn -0.81576861 -0.35676930 0.45523317
vn -0.64823983 -0.54599781 0.53072734
vn -0.64426322 -0.40683444 0.64761922
vn -0.81962855 -0.42118468 0.38834586
vn -0.68080396 -0.63268055 0.36908168
vn -0.51797295 -0.55582977 0.65019789
vn -0.55039328 -0.68412202 0.47858572
vn 0.24767247 0.12202493 -0.96112864
vn 0.05175635 -0.10233956 0.99340218
vn -0.28713102 -0.88627266 -0.36342338
vn 0.78248184 0.28171216 0.55530210
vn 0.64868383 0.54259108 0.53367051
vn 0.74540532 0.24046965 0.62172764
vn 0.59783777 0.48243906 0.64018947
vn 0.53092256 0.20981218 0.82103599
vn 0.68208829 0.68631843 0.25243330
vn 0.87100692 0.48648362 0.06841507
vt 0.27345900 0.53321100
vt 0.17599400 0.67915000
vt 0.16660700 0.67750700
vt 0.26523600 0.53473000
vt 0.26955900 0.54317400
vt 0.29175200 0.53264600
vt 0.17118400 0.67092600
vt 0.29015400 0.52885000
vt 0.19337600 0.67663700
vt 0.29676200 0.53093500
vt 0.62579900 0.97180600
vt 0.29270800 0.52673400
vt 0.19582800 0.67456000
vt 0.19685600 0.66941200
vt 0.75458600 0.14925800
vt 0.29853100 0.52891400
vt 0.20194000 0.67661300
vt 0.76184600 0.15425700
vt 0.62879800 0.97450000
vt 0.29334400 0.53004400
vt 0.62121500 0.60074300
vt 0.29334400 0.53004400
vt 0.76242600 0.14884800
vt 0.62581400 0.60149900
vt 0.29336100 0.53510000
vt 0.29052800 0.53593800
vt 0.62579900 0.97932900
vt 0.75190700 0.13698200
vt 0.62717800 0.58529100
vt 0.76130000 0.13247300
vt 0.29154500 0.53649800
vt 0.62703100 0.59978500
vt 0.28399500 0.54926100
vt 0.63906200 0.59220700
vt 0.28285900 0.55739400
vt 0.64697800 0.59094200
vt 0.55967000 0.12491600
vt 0.64181400 0.57660800
vt 0.26602300 0.55190200
vt 0.27245300 0.57586400
vt 0.26247900 0.56779300
vt 0.03441200 0.52673400
vt 0.26149400 0.58305300
vt 0.04899700 0.53264700
vt 0.28123000 0.58876600
vt 0.05870200 0.53468900
vt 0.26571200 0.59188500
vt 0.28147300 0.58107800
vt 0.28547800 0.56789000
vt 0.65742900 0.59336700
vt 0.67095600 0.59262700
vt 0.66473100 0.59815000
vt 0.29051700 0.57498800
vt 0.58690000 0.13194300
vt 0.66966500 0.57957700
vt 0.57664500 0.13364800
vt 0.65966000 0.58083800
vt 0.56843900 0.12812800
vt 0.65108600 0.57595600
vt 0.56689300 0.11635100
vt 0.57986900 0.12267800
vt 0.58405500 0.10541500
vt 0.59256300 0.10839400
vt 0.59592000 0.11899800
vt 0.57457700 0.10420700
vt 0.56182000 0.09129100
vt 0.56544200 0.10260200
vt 0.57824900 0.08612600
vt 0.57035200 0.07740300
vt 0.58925700 0.07821900
vt 0.24802300 0.63896900
vt 0.58092300 0.06952600
vt 0.59321600 0.09065100
vt 0.60675800 0.08465200
vt 0.25235300 0.66178700
vt 0.60327800 0.07529900
vt 0.60354600 0.10070400
vt 0.99263800 0.59672800
vt 0.61272400 0.09422100
vt 0.21665800 0.97180600
vt 0.60915100 0.11308500
vt 0.14319100 0.58411800
vt 0.42480100 0.97180600
vt 0.61530900 0.12156700
vt 0.21665800 0.98547500
vt 0.15047100 0.56084300
vt 0.62070000 0.09802400
vt 0.98813700 0.58983500
vt 0.60445300 0.12994400
vt 0.42480100 0.98240200
vt 0.68603900 0.58714200
vt 0.14930600 0.57223000
vt 0.22535100 0.97531800
vt 0.61841200 0.10922100
vt 0.17361700 0.55820100
vt 0.17361700 0.55820100
vt 0.07541000 0.58484100
vt 0.07537300 0.57482000
vt 0.17395600 0.56938500
vt 0.07541000 0.56200000
vt 0.16974200 0.58155500
vt 0.06767500 0.56139100
vt 0.16312300 0.59026600
vt 0.16312300 0.59026600
vt 0.07540900 0.55131700
vt 0.06723300 0.54443300
vt 0.16412200 0.59809900
vt 0.14931500 0.59902000
vt 0.07534800 0.53758900
vt 0.14931500 0.59902000
vt 0.28146500 0.60464200
vt 0.27726300 0.59835100
vt 0.06799700 0.53209300
vt 0.29583900 0.60046300
vt 0.13259700 0.60074800
vt 0.13259700 0.60074800
vt 0.13721200 0.60634800
vt 0.28803400 0.59579900
vt 0.97764300 0.36508600
vt 0.29383100 0.58802700
vt 0.98115300 0.36514000
vt 0.29408800 0.59081200
vt 0.97733000 0.36504900
vt 0.29379700 0.58776100
vt 0.29377000 0.58759500
vt 0.97715600 0.36500000
vt 0.29344800 0.58624200
vt 0.97598400 0.36425000
vt 0.29338300 0.58558100
vt 0.97543500 0.36387400
vt 0.97582800 0.36281700
vt 0.98298700 0.36412800
vt 0.97739500 0.36053100
vt 0.67554900 0.59852600
vt 0.67393100 0.59897000
vt 0.97556000 0.36048800
vt 0.97482700 0.36344600
vt 0.29332900 0.58483900
vt 0.97087600 0.36049000
vt 0.29333200 0.57985500
vt 0.29334400 0.57951300
vt 0.97060800 0.36028600
vt 0.29335500 0.57942600
vt 0.97054200 0.36023300
vt 0.66955800 0.60039600
vt 0.97084700 0.36002700
vt 0.97050800 0.35997800
vt 0.66923300 0.60052200
vt 0.97354600 0.36050300
vt 0.67217100 0.59964200
vt 0.97023900 0.35996300
vt 0.66898100 0.60069400
vt 0.29347000 0.57900000
vt 0.29336100 0.58527200
vt 0.97518000 0.36369800
vt 0.98069200 0.36078900
vt 0.67850700 0.59825000
vt 0.98083800 0.36078000
vt 0.67862700 0.59822900
vt 0.98307500 0.36074600
vt 0.68051000 0.59815400
vt 0.68194300 0.59830500
vt 0.98473400 0.36082200
vt 0.59574100 0.13237000
vt 0.67811800 0.58368200
vt 0.98654600 0.36078000
vt 0.68344300 0.59842800
vt 0.68414300 0.59844300
vt 0.98748100 0.36061100
vt 0.98793200 0.36095200
vt 0.68465200 0.59852700
vt 0.98814800 0.36052200
vt 0.68610500 0.59913500
vt 0.98998300 0.36044100
vt 0.68825000 0.60010700
vt 0.99267600 0.36035500
vt 0.98959600 0.36420000
vt 0.29642200 0.59696300
vt 0.98936600 0.36508000
vt 0.29667800 0.59735300
vt 0.98991500 0.36506400
vt 0.98878000 0.36509000
vt 0.29621600 0.59653300
vt 0.13064300 0.59579100
vt 0.99565200 0.36114800
vt 0.29853100 0.59915900
vt 0.12962900 0.60027600
vt 0.99277500 0.36474300
vt 0.13075100 0.59486700
vt 0.99621000 0.36040300
vt 0.69054500 0.60112500
vt 0.99571000 0.36001900
vt 0.69115300 0.60149900
vt 0.99650600 0.35996300
vt 0.13072500 0.59432500
vt 0.69225300 0.59915500
vt 0.43519500 0.97990900
vt 0.13334600 0.59288400
vt 0.99132600 0.36499000
vt 0.29762200 0.59829200
vt 0.29486000 0.59352000
vt 0.98469800 0.36514500
vt 0.98334900 0.36515800
vt 0.29440900 0.59252200
vt 0.98301200 0.36515900
vt 0.29432800 0.59226500
vt 0.05898800 0.55103400
vt 0.05842200 0.56894400
vt 0.04898100 0.54589600
vt 0.04885200 0.56010200
vt 0.03867500 0.57089400
vt 0.03273600 0.55861400
vt 0.04829900 0.57911600
vt 0.03909400 0.54158200
vt 0.02870600 0.54080800
vt 0.01905100 0.55063000
vt 0.02007600 0.53429800
vt 0.25622000 0.55445500
vt 0.25704600 0.54493500
vt 0.01122600 0.53760600
vt 0.15651200 0.68024600
vt 0.01065800 0.55296100
vt -0.00000000 0.54942000
vt 0.15566400 0.66757600
vt 0.00286800 0.56121000
vt 0.14522200 0.65920600
vt 0.15086200 0.65384800
vt 0.16527100 0.66228800
vt 0.74953800 0.14717900
vt 0.19474400 0.66438700
vt 0.16085500 0.65245600
vt 0.18649400 0.64692800
vt 0.73204400 0.13898200
vt 0.18648600 0.65765500
vt 0.74278800 0.13894600
vt 0.73190800 0.13130600
vt 0.74314300 0.12719000
vt 0.73420000 0.11593500
vt 0.55017800 0.09317300
vt 0.72817300 0.12251000
vt 0.54503800 0.08691800
vt 0.74960600 0.12245200
vt 0.54702400 0.10894400
vt 0.75867400 0.12290300
vt 0.63345300 0.57689400
vt 0.55220300 0.11914500
vt 0.55583500 0.10643900
vt 0.71635100 0.11378300
vt 0.55751000 0.07626600
vt 0.71775300 0.13366600
vt 0.71068200 0.12871000
vt 0.70208100 0.14281100
vt 0.27682700 0.60878900
vt 0.69532700 0.14001600
vt 0.71034200 0.14394600
vt 0.19149200 0.62520000
vt 0.74291800 0.97180600
vt 0.69875500 0.12609800
vt 0.26346900 0.61476200
vt 0.70649200 0.11904500
vt 0.55879900 0.06719800
vt 0.25443100 0.61642000
vt 0.57229900 0.06324400
vt 0.25445700 0.62848000
vt 0.27112700 0.62512500
vt 0.26350400 0.63572500
vt 0.49315500 0.55683800
vt 0.28160600 0.63423500
vt 0.25731600 0.64661000
vt 0.59123800 0.06324400
vt 0.27503400 0.64271100
vt 0.27626600 0.65233200
vt 0.48595900 0.57216800
vt 0.28825800 0.64980900
vt 0.48449700 0.58292100
vt 0.29152300 0.65656300
vt 0.29152300 0.65656300
vt 0.48190700 0.57854100
vt 0.49457300 0.57757200
vt 0.28219500 0.66055400
vt 0.31803700 0.97180600
vt 0.27698300 0.67096800
vt 0.26972000 0.66313000
vt 0.28854800 0.66382300
vt 0.97699900 0.68523400
vt 0.97072700 0.68588200
vt 0.29083500 0.65792900
vt 0.29006800 0.65923700
vt 0.97210700 0.68575900
vt 0.97023900 0.68599900
vt 0.29106000 0.65743200
vt 0.29106000 0.65743200
vt 0.29057800 0.65979400
vt 0.97223600 0.68482400
vt 0.97920100 0.68313800
vt 0.86897800 0.97346400
vt 0.29136600 0.66037400
vt 0.48200200 0.58238900
vt 0.97240900 0.68387600
vt 0.29138400 0.65988900
vt 0.48200400 0.58190500
vt 0.29141600 0.65928700
vt 0.48199300 0.58130300
vt 0.28973100 0.65994000
vt 0.97285300 0.68568600
vt 0.48190600 0.58014200
vt 0.29152800 0.65813700
vt 0.48171500 0.58475800
vt 0.48171500 0.58475800
vt 0.97456400 0.68277000
vt 0.97753000 0.68238700
vt 0.48212200 0.58742700
vt 0.86963400 0.97180600
vt 0.48224700 0.58855200
vt 0.86991100 0.97300800
vt 0.48225500 0.58899200
vt 0.87005300 0.97346400
vt 0.97930900 0.68219400
vt 0.97966800 0.68216800
vt 0.48224200 0.58929500
vt 0.48159400 0.59349400
vt 0.98481100 0.68194400
vt 0.98584500 0.68299000
vt 0.98560800 0.68191500
vt 0.48147800 0.59413900
vt 0.98641900 0.68191300
vt 0.48127200 0.59476800
vt 0.48078200 0.59579300
vt 0.98779600 0.68195600
vt 0.12973700 0.52673400
vt 0.13047900 0.52708400
vt 0.13047900 0.52708400
vt 0.48137400 0.59662200
vt 0.98786000 0.68197500
vt 0.12973200 0.52678700
vt 0.98855400 0.68220600
vt 0.12962900 0.52736900
vt 0.12962900 0.52736900
vt 0.13034700 0.53196600
vt 0.99129200 0.68568900
vt 0.99152000 0.68599900
vt 0.13037500 0.53236000
vt 0.28773300 0.67594100
vt 0.28342900 0.67773300
vt 0.13441800 0.53458400
vt 0.32600400 0.97180600
vt 0.28761200 0.67431700
vt 0.98943300 0.68569800
vt 0.98605300 0.68544400
vt 0.28726600 0.67157800
vt 0.28714300 0.67026000
vt 0.98442700 0.68531700
vt 0.98301100 0.68517000
vt 0.28737800 0.66910400
vt 0.98268500 0.68517900
vt 0.28740000 0.66881800
vt 0.97919400 0.68524100
vt 0.28788700 0.66575400
vt 0.97776400 0.68524400
vt 0.28826300 0.66449800
vt 0.27224000 0.68091600
vt 0.14340700 0.54349100
vt 0.97023900 0.59537100
vt 0.32247300 0.98394500
vt 0.14263100 0.52739300
vt 0.49297300 0.60035600
vt 0.49915300 0.59475500
vt 0.50343900 0.60297600
vt 0.15320400 0.53090100
vt 0.15320400 0.53090100
vt 0.49200600 0.58803400
vt 0.16319200 0.53790500
vt 0.16319200 0.53790500
vt 0.17599600 0.54428600
vt 0.52825100 0.60069800
vt 0.06745300 0.59830200
vt 0.51062900 0.59761100
vt 0.15925000 0.52725500
vt 0.16728700 0.52950000
vt 0.51953700 0.59538000
vt 0.17073800 0.54846000
vt 0.17073800 0.54846000
vt 0.18253600 0.55265100
vt 0.06221800 0.59331600
vt 0.53948000 0.58403800
vt 0.04845500 0.60336100
vt 0.52968200 0.59228900
vt 0.05865300 0.60613400
vt 0.05422900 0.58790000
vt 0.06755400 0.57778200
vt 0.03864100 0.58983500
vt 0.02863600 0.58769400
vt 0.54388300 0.56486500
vt 0.02878700 0.60291000
vt 0.03881300 0.60490400
vt 0.54164800 0.57470600
vt 0.52630000 0.58201400
vt 0.53098200 0.56208600
vt 0.52866800 0.57187300
vt 0.51455300 0.56417800
vt 0.52326100 0.55103100
vt 0.50833700 0.57769800
vt 0.50509400 0.56990800
vt 0.51100500 0.54840400
vt 0.16093300 0.60724400
vt 0.52104300 0.53651800
vt 0.49262700 0.54715200
vt 0.28177900 0.62487200
vt 0.50795800 0.53997200
vt 0.49143600 0.53807000
vt 0.28225200 0.61628400
vt 0.17531500 0.60638000
vt 0.50750500 0.53101500
vt 0.48321300 0.52743900
vt 0.19987500 0.60812300
vt 0.28815400 0.61130400
vt 0.48462000 0.53237100
vt 0.20194000 0.60940700
vt 0.69464900 0.15425700
vt 0.29030300 0.60638000
vt 0.48129400 0.52673500
vt 0.29152800 0.60993600
vt 0.48078200 0.53064300
vt 0.19657200 0.61796900
vt 0.70314100 0.14898600
vt 0.16552100 0.62322700
vt 0.17270200 0.61414800
vt 0.74291800 0.97771100
vt 0.19676400 0.62029600
vt 0.70546000 0.14918900
vt 0.70752500 0.14706500
vt 0.74282500 0.97527400
vt 0.16012300 0.62014700
vt 0.14946000 0.61998700
vt 0.16095000 0.63298900
vt 0.14944300 0.63672900
vt 0.15972700 0.64420300
vt 0.13921900 0.63284000
vt 0.00607700 0.58792900
vt 0.14128700 0.64616700
vt 0.00288500 0.57476400
vt 0.01018600 0.57720200
vt 0.01503000 0.56509600
vt 0.02873900 0.57461500
vt 0.01843200 0.57834200
vt 0.01947200 0.59425300
vt 0.01057600 0.59772600
vt 0.54061400 0.54519200
vt 0.14039600 0.62184000
vt 0.01938700 0.60573700
vt 0.53821800 0.55397000
vt 0.15073500 0.60984500
vt 0.53008800 0.54324000
vt 0.72171400 0.13937700
vt 0.18689400 0.63659500
vt 0.50619300 0.58669400
vt 0.61493700 0.08029100
vt 0.26008100 0.67377000
vt 0.62075400 0.08575700
vt 0.26482400 0.68044800
vt 0.97775100 0.59672800
vt 0.25830500 0.65571500
vt 0.59980900 0.06662800
f 1/1/1 5/5/5 4/4/4
f 2/2/2 3/3/3 7/7/7
f 1/1/1 6/6/6 5/5/5
f 1/1/1 8/8/8 6/6/6
f 2/2/2 7/7/7 9/9/9
f 8/8/8 10/10/10 6/6/6
f 8/8/8 16/16/16 20/20/20
f 9/9/9 7/7/7 13/13/13
f 14/14/14 17/17/17 13/13/13
f 7/7/7 14/14/14 13/13/13
f 23/23/23 18/18/18 15/15/15
f 25/25/25 26/26/26 22/22/22
f 32/32/32 24/24/24 21/21/21
f 19/19/19 27/27/27 11/11/11
f 23/23/23 15/15/15 28/28/28
f 23/23/23 28/28/28 30/30/30
f 29/29/29 32/32/32 21/21/21
f 29/29/29 34/34/34 32/32/32
f 31/31/31 33/33/33 5/5/5
f 26/26/26 31/31/31 5/5/5
f 38/38/38 36/36/36 34/34/34
f 40/40/40 33/33/33 35/35/35
f 38/38/38 34/34/34 29/29/29
f 5/5/5 33/33/33 39/39/39
f 40/40/40 39/39/39 33/33/33
f 40/40/40 41/41/41 39/39/39
f 41/41/41 40/40/40 43/43/43
f 47/47/47 43/43/43 40/40/40
f 48/48/48 45/45/45 40/40/40
f 47/47/47 40/40/40 45/45/45
f 48/48/48 40/40/40 49/49/49
f 35/35/35 49/49/49 40/40/40
f 59/59/59 50/50/50 36/36/36
f 50/50/50 51/51/51 52/52/52
f 55/55/55 51/51/51 50/50/50
f 48/48/48 49/49/49 53/53/53
f 55/55/55 50/50/50 57/57/57
f 59/59/59 57/57/57 50/50/50
f 61/61/61 58/58/58 60/60/60
f 58/58/58 37/37/37 60/60/60
f 38/38/38 59/59/59 36/36/36
f 56/56/56 58/58/58 61/61/61
f 63/63/63 61/61/61 62/62/62
f 61/61/61 65/65/65 62/62/62
f 63/63/63 64/64/64 61/61/61
f 61/61/61 60/60/60 65/65/65
f 64/64/64 54/54/54 61/61/61
f 54/54/54 56/56/56 61/61/61
f 62/62/62 65/65/65 68/68/68
f 65/65/65 67/67/67 66/66/66
f 65/65/65 66/66/66 68/68/68
f 60/60/60 67/67/67 65/65/65
f 68/68/68 66/66/66 69/69/69
f 68/68/68 69/69/69 72/72/72
f 70/70/70 68/68/68 72/72/72
f 73/73/73 68/68/68 70/70/70
f 62/62/62 68/68/68 73/73/73
f 74/74/74 73/73/73 76/76/76
f 77/77/77 73/73/73 74/74/74
f 76/76/76 73/73/73 70/70/70
f 77/77/77 63/63/63 73/73/73
f 73/73/73 63/63/63 62/62/62
f 79/79/79 77/77/77 74/74/74
f 81/81/81 77/77/77 79/79/79
f 64/64/64 63/63/63 77/77/77
f 81/81/81 64/64/64 77/77/77
f 87/87/87 81/81/81 79/79/79
f 84/84/84 89/89/89 81/81/81
f 85/85/85 80/80/80 93/93/93
f 87/87/87 94/94/94 81/81/81
f 89/89/89 64/64/64 81/81/81
f 92/92/92 86/86/86 95/95/95
f 95/95/95 99/99/99 92/92/92
f 92/92/92 99/99/99 101/101/101
f 92/92/92 101/101/101 82/82/82
f 98/98/98 102/102/102 100/100/100
f 102/102/102 105/105/105 100/100/100
f 101/101/101 104/104/104 82/82/82
f 102/102/102 106/106/106 105/105/105
f 103/103/103 107/107/107 108/108/108
f 110/110/110 82/82/82 104/104/104
f 111/111/111 112/112/112 118/118/118
f 109/109/109 106/106/106 113/113/113
f 110/110/110 116/116/116 82/82/82
f 117/117/117 115/115/115 108/108/108
f 118/118/118 112/112/112 45/45/45
f 45/45/45 120/120/120 118/118/118
f 118/118/118 204/204/204 201/201/201
f 126/126/126 131/131/131 121/121/121
f 45/45/45 125/125/125 124/124/124
f 53/53/53 129/129/129 127/127/127
f 130/130/130 131/131/131 128/128/128
f 156/156/156 132/132/132 133/133/133
f 131/131/131 155/155/155 137/137/137
f 136/136/136 133/133/133 131/131/131
f 142/142/142 149/149/149 131/131/131
f 139/139/139 131/131/131 137/137/137
f 53/53/53 140/140/140 138/138/138
f 144/144/144 146/146/146 142/142/142
f 52/52/52 150/150/150 145/145/145
f 135/135/135 51/51/51 134/134/134
f 144/144/144 151/151/151 147/147/147
f 51/51/51 162/162/162 161/161/161
f 132/132/132 158/158/158 160/160/160
f 170/170/170 132/132/132 163/163/163
f 91/91/91 162/162/162 165/165/165
f 91/91/91 171/171/171 168/168/168
f 170/170/170 169/169/169 172/172/172
f 170/170/170 174/174/174 177/177/177
f 190/190/190 177/177/177 176/176/176
f 170/170/170 177/177/177 132/132/132
f 177/177/177 202/202/202 203/203/203
f 177/177/177 179/179/179 182/182/182
f 177/177/177 181/181/181 179/179/179
f 185/185/185 199/199/199 181/181/181
f 198/198/198 187/187/187 184/184/184
f 190/190/190 192/192/192 194/194/194
f 196/196/196 191/191/191 175/175/175
f 83/83/83 197/197/197 90/90/90
f 82/82/82 116/116/116 198/198/198
f 200/200/200 186/186/186 114/114/114
f 114/114/114 183/183/183 178/178/178
f 132/132/132 205/205/205 121/121/121
f 89/89/89 164/164/164 64/64/64
f 165/165/165 51/51/51 55/55/55
f 64/64/64 164/164/164 54/54/54
f 47/47/47 45/45/45 112/112/112
f 113/113/113 106/106/106 46/46/46
f 207/207/207 46/46/46 106/106/106
f 106/106/106 102/102/102 207/207/207
f 102/102/102 208/208/208 207/207/207
f 208/208/208 210/210/210 207/207/207
f 207/207/207 210/210/210 209/209/209
f 209/209/209 46/46/46 207/207/207
f 210/210/210 211/211/211 212/212/212
f 213/213/213 211/211/211 210/210/210
f 210/210/210 212/212/212 214/214/214
f 208/208/208 213/213/213 210/210/210
f 210/210/210 214/214/214 209/209/209
f 44/44/44 214/214/214 42/42/42
f 209/209/209 214/214/214 44/44/44
f 42/42/42 214/214/214 215/215/215
f 214/214/214 212/212/212 215/215/215
f 215/215/215 216/216/216 217/217/217
f 215/215/215 212/212/212 216/216/216
f 215/215/215 217/217/217 42/42/42
f 39/39/39 41/41/41 218/218/218
f 39/39/39 218/218/218 219/219/219
f 216/216/216 220/220/220 217/217/217
f 216/216/216 222/222/222 220/220/220
f 220/220/220 222/222/222 223/223/223
f 221/221/221 224/224/224 3/3/3
f 4/4/4 5/5/5 219/219/219
f 39/39/39 219/219/219 5/5/5
f 222/222/222 225/225/225 223/223/223
f 227/227/227 224/224/224 226/226/226
f 224/224/224 7/7/7 3/3/3
f 227/227/227 228/228/228 224/224/224
f 7/7/7 224/224/224 228/228/228
f 234/234/234 230/230/230 228/228/228
f 7/7/7 228/228/228 230/230/230
f 227/227/227 231/231/231 228/228/228
f 228/228/228 231/231/231 232/232/232
f 228/228/228 232/232/232 234/234/234
f 237/237/237 235/235/235 236/236/236
f 236/236/236 235/235/235 233/233/233
f 237/237/237 28/28/28 235/235/235
f 235/235/235 28/28/28 229/229/229
f 238/238/238 237/237/237 240/240/240
f 242/242/242 237/237/237 238/238/238
f 237/237/237 236/236/236 240/240/240
f 30/30/30 237/237/237 242/242/242
f 30/30/30 28/28/28 237/237/237
f 247/247/247 243/243/243 239/239/239
f 244/244/244 30/30/30 242/242/242
f 246/246/246 243/243/243 247/247/247
f 66/66/66 247/247/247 239/239/239
f 67/67/67 247/247/247 66/66/66
f 67/67/67 60/60/60 247/247/247
f 60/60/60 246/246/246 247/247/247
f 38/38/38 29/29/29 245/245/245
f 60/60/60 37/37/37 246/246/246
f 248/248/248 240/240/240 251/251/251
f 239/239/239 241/241/241 249/249/249
f 240/240/240 236/236/236 250/250/250
f 240/240/240 250/250/250 251/251/251
f 251/251/251 252/252/252 254/254/254
f 255/255/255 252/252/252 251/251/251
f 251/251/251 254/254/254 258/258/258
f 255/255/255 251/251/251 250/250/250
f 260/260/260 251/251/251 258/258/258
f 248/248/248 251/251/251 260/260/260
f 264/264/264 262/262/262 259/259/259
f 263/263/263 249/249/249 261/261/261
f 259/259/259 265/265/265 264/264/264
f 266/266/266 264/264/264 265/265/265
f 71/71/71 264/264/264 266/266/266
f 263/263/263 69/69/69 249/249/249
f 72/72/72 69/69/69 263/263/263
f 265/265/265 268/268/268 266/266/266
f 268/268/268 271/271/271 266/266/266
f 269/269/269 71/71/71 266/266/266
f 269/269/269 266/266/266 271/271/271
f 271/271/271 268/268/268 274/274/274
f 272/272/272 271/271/271 274/274/274
f 272/272/272 269/269/269 271/271/271
f 275/275/275 278/278/278 273/273/273
f 279/279/279 275/275/275 273/273/273
f 274/274/274 292/292/292 287/287/287
f 267/267/267 279/279/279 273/273/273
f 272/272/272 274/274/274 280/280/280
f 283/283/283 272/272/272 280/280/280
f 282/282/282 283/283/283 280/280/280
f 282/282/282 360/360/360 358/358/358
f 280/280/280 288/288/288 304/304/304
f 286/286/286 294/294/294 289/289/289
f 277/277/277 302/302/302 293/293/293
f 295/295/295 299/299/299 310/310/310
f 294/294/294 359/359/359 285/285/285
f 300/300/300 297/297/297 293/293/293
f 302/302/302 300/300/300 293/293/293
f 289/289/289 294/294/294 305/305/305
f 275/275/275 298/298/298 301/301/301
f 275/275/275 321/321/321 320/320/320
f 315/315/315 296/296/296 313/313/313
f 318/318/318 319/319/319 323/323/323
f 322/322/322 324/324/324 323/323/323
f 324/324/324 326/326/326 323/323/323
f 340/340/340 326/326/326 334/334/334
f 332/332/332 335/335/335 330/330/330
f 331/331/331 342/342/342 339/339/339
f 341/341/341 348/348/348 323/323/323
f 347/347/347 343/343/343 344/344/344
f 344/344/344 354/354/354 351/351/351
f 352/352/352 323/323/323 349/349/349
f 323/323/323 353/353/353 355/355/355
f 357/357/357 295/295/295 355/355/355
f 359/359/359 295/295/295 357/357/357
f 346/346/346 364/364/364 281/281/281
f 362/362/362 345/345/345 365/365/365
f 345/345/345 331/331/331 365/365/365
f 368/368/368 366/366/366 367/367/367
f 366/366/366 371/371/371 367/367/367
f 365/365/365 369/369/369 372/372/372
f 362/362/362 365/365/365 372/372/372
f 371/371/371 366/366/366 333/333/333
f 370/370/370 378/378/378 373/373/373
f 373/373/373 379/379/379 374/374/374
f 373/373/373 374/374/374 381/381/381
f 372/372/372 86/86/86 362/362/362
f 372/372/372 382/382/382 86/86/86
f 373/373/373 378/378/378 379/379/379
f 381/381/381 374/374/374 383/383/383
f 381/381/381 383/383/383 96/96/96
f 382/382/382 95/95/95 86/86/86
f 384/384/384 386/386/386 389/389/389
f 388/388/388 386/386/386 384/384/384
f 376/376/376 388/388/388 384/384/384
f 384/384/384 389/389/389 390/390/390
f 97/97/97 384/384/384 390/390/390
f 98/98/98 390/390/390 102/102/102
f 97/97/97 390/390/390 98/98/98
f 208/208/208 102/102/102 390/390/390
f 390/390/390 389/389/389 208/208/208
f 386/386/386 391/391/391 389/389/389
f 389/389/389 391/391/391 213/213/213
f 389/389/389 213/213/213 208/208/208
f 386/386/386 395/395/395 391/391/391
f 211/211/211 391/391/391 392/392/392
f 394/394/394 392/392/392 391/391/391
f 213/213/213 391/391/391 211/211/211
f 394/394/394 391/391/391 395/395/395
f 397/397/397 399/399/399 396/396/396
f 397/397/397 396/396/396 385/385/385
f 398/398/398 393/393/393 396/396/396
f 398/398/398 396/396/396 399/399/399
f 400/400/400 398/398/398 399/399/399
f 400/400/400 399/399/399 397/397/397
f 401/401/401 398/398/398 400/400/400
f 400/400/400 404/404/404 401/401/401
f 400/400/400 397/397/397 402/402/402
f 400/400/400 402/402/402 403/403/403
f 404/404/404 400/400/400 403/403/403
f 401/401/401 404/404/404 406/406/406
f 409/409/409 406/406/406 404/404/404
f 403/403/403 407/407/407 404/404/404
f 409/409/409 404/404/404 407/407/407
f 410/410/410 417/417/417 409/409/409
f 409/409/409 407/407/407 410/410/410
f 406/406/406 409/409/409 413/413/413
f 413/413/413 409/409/409 414/414/414
f 409/409/409 417/417/417 414/414/414
f 253/253/253 420/420/420 416/416/416
f 420/420/420 422/422/422 416/416/416
f 411/411/411 253/253/253 416/416/416
f 414/414/414 417/417/417 423/423/423
f 414/414/414 423/423/423 421/421/421
f 425/425/425 419/419/419 254/254/254
f 415/415/415 418/418/418 424/424/424
f 426/426/426 427/427/427 424/424/424
f 426/426/426 424/424/424 256/256/256
f 427/427/427 415/415/415 424/424/424
f 430/430/430 425/425/425 252/252/252
f 425/425/425 254/254/254 252/252/252
f 256/256/256 424/424/424 429/429/429
f 430/430/430 252/252/252 431/431/431
f 428/428/428 432/432/432 257/257/257
f 252/252/252 255/255/255 431/431/431
f 427/427/427 426/426/426 433/433/433
f 427/427/427 433/433/433 405/405/405
f 427/427/427 405/405/405 412/412/412
f 427/427/427 412/412/412 415/415/415
f 436/436/436 434/434/434 433/433/433
f 433/433/433 434/434/434 405/405/405
f 426/426/426 435/435/435 433/433/433
f 435/435/435 436/436/436 433/433/433
f 435/435/435 437/437/437 436/436/436
f 436/436/436 437/437/437 227/227/227
f 436/436/436 438/438/438 434/434/434
f 440/440/440 438/438/438 436/436/436
f 440/440/440 436/436/436 227/227/227
f 226/226/226 440/440/440 227/227/227
f 443/443/443 441/441/441 225/225/225
f 439/439/439 441/441/441 442/442/442
f 443/443/443 442/442/442 441/441/441
f 445/445/445 442/442/442 443/443/443
f 444/444/444 445/445/445 443/443/443
f 444/444/444 443/443/443 212/212/212
f 212/212/212 443/443/443 216/216/216
f 443/443/443 222/222/222 216/216/216
f 222/222/222 443/443/443 225/225/225
f 439/439/439 442/442/442 445/445/445
f 439/439/439 445/445/445 446/446/446
f 392/392/392 445/445/445 444/444/444
f 446/446/446 445/445/445 392/392/392
f 446/446/446 447/447/447 439/439/439
f 450/450/450 447/447/447 446/446/446
f 450/450/450 446/446/446 394/394/394
f 394/394/394 446/446/446 392/392/392
f 453/453/453 451/451/451 401/401/401
f 401/401/401 451/451/451 398/398/398
f 448/448/448 451/451/451 453/453/453
f 398/398/398 451/451/451 393/393/393
f 405/405/405 434/434/434 452/452/452
f 406/406/406 453/453/453 401/401/401
f 434/434/434 449/449/449 452/452/452
f 434/434/434 438/438/438 449/449/449
f 211/211/211 392/392/392 444/444/444
f 211/211/211 444/444/444 212/212/212
f 227/227/227 437/437/437 231/231/231
f 232/232/232 231/231/231 437/437/437
f 435/435/435 455/455/455 437/437/437
f 455/455/455 232/232/232 437/437/437
f 435/435/435 426/426/426 455/455/455
f 426/426/426 256/256/256 455/455/455
f 255/255/255 250/250/250 454/454/454
f 454/454/454 250/250/250 236/236/236
f 233/233/233 454/454/454 236/236/236
f 259/259/259 411/411/411 265/265/265
f 411/411/411 408/408/408 265/265/265
f 253/253/253 411/411/411 259/259/259
f 268/268/268 265/265/265 408/408/408
f 403/403/403 267/267/267 407/407/407
f 402/402/402 279/279/279 403/403/403
f 279/279/279 267/267/267 403/403/403
f 456/456/456 402/402/402 397/397/397
f 279/279/279 402/402/402 456/456/456
f 456/456/456 397/397/397 380/380/380
f 377/377/377 456/456/456 380/380/380
f 367/367/367 456/456/456 377/377/377
f 371/371/371 456/456/456 367/367/367
f 371/371/371 279/279/279 456/456/456
f 380/380/380 397/397/397 387/387/387
f 387/387/387 397/397/397 385/385/385
f 387/387/387 375/375/375 380/380/380
f 368/368/368 367/367/367 377/377/377
f 279/279/279 371/371/371 275/275/275
f 275/275/275 371/371/371 333/333/333
f 361/361/361 458/458/458 282/282/282
f 361/361/361 460/460/460 458/458/458
f 363/363/363 88/88/88 461/461/461
f 459/459/459 79/79/79 457/457/457
f 461/461/461 88/88/88 78/78/78
f 458/458/458 283/283/283 282/282/282
f 458/458/458 75/75/75 283/283/283
f 457/457/457 74/74/74 76/76/76
f 79/79/79 74/74/74 457/457/457
f 283/283/283 462/462/462 272/272/272
f 75/75/75 462/462/462 283/283/283
f 463/463/463 76/76/76 70/70/70
f 463/463/463 70/70/70 270/270/270
f 272/272/272 462/462/462 269/269/269
f 70/70/70 72/72/72 270/270/270
f 69/69/69 66/66/66 249/249/249
f 66/66/66 239/239/239 249/249/249
f 28/28/28 15/15/15 229/229/229
f 7/7/7 230/230/230 14/14/14
f 209/209/209 44/44/44 46/46/46
f 5/5/5 6/6/6 26/26/26
f 26/26/26 6/6/6 10/10/10
f 8/8/8 12/12/12 16/16/16
f 20/20/20 10/10/10 8/8/8
f 25/25/25 31/31/31 26/26/26
f 45/45/45 124/124/124 120/120/120
f 118/118/118 120/120/120 122/122/122
f 118/118/118 122/122/122 206/206/206
f 201/201/201 114/114/114 118/118/118
f 118/118/118 206/206/206 204/204/204
f 119/119/119 123/123/123 126/126/126
f 126/126/126 128/128/128 131/131/131
f 131/131/131 132/132/132 121/121/121
f 121/121/121 119/119/119 126/126/126
f 45/45/45 48/48/48 125/125/125
f 125/125/125 48/48/48 53/53/53
f 53/53/53 154/154/154 129/129/129
f 127/127/127 125/125/125 53/53/53
f 156/156/156 158/158/158 132/132/132
f 132/132/132 131/131/131 133/133/133
f 131/131/131 130/130/130 155/155/155
f 131/131/131 139/139/139 142/142/142
f 142/142/142 146/146/146 149/149/149
f 149/149/149 136/136/136 131/131/131
f 53/53/53 153/153/153 143/143/143
f 53/53/53 143/143/143 141/141/141
f 138/138/138 154/154/154 53/53/53
f 53/53/53 141/141/141 140/140/140
f 144/144/144 147/147/147 146/146/146
f 148/148/148 152/152/152 52/52/52
f 52/52/52 51/51/51 150/150/150
f 145/145/145 148/148/148 52/52/52
f 135/135/135 150/150/150 51/51/51
f 51/51/51 157/157/157 134/134/134
f 159/159/159 157/157/157 51/51/51
f 51/51/51 165/165/165 162/162/162
f 161/161/161 159/159/159 51/51/51
f 166/166/166 169/169/169 170/170/170
f 132/132/132 160/160/160 163/163/163
f 163/163/163 166/166/166 170/170/170
f 91/91/91 167/167/167 162/162/162
f 91/91/91 196/196/196 175/175/175
f 91/91/91 175/175/175 173/173/173
f 168/168/168 167/167/167 91/91/91
f 91/91/91 173/173/173 171/171/171
f 170/170/170 172/172/172 174/174/174
f 176/176/176 192/192/192 190/190/190
f 190/190/190 185/185/185 177/177/177
f 177/177/177 174/174/174 176/176/176
f 205/205/205 132/132/132 177/177/177
f 177/177/177 182/182/182 202/202/202
f 203/203/203 205/205/205 177/177/177
f 181/181/181 177/177/177 185/185/185
f 185/185/185 188/188/188 199/199/199
f 189/189/189 195/195/195 198/198/198
f 198/198/198 116/116/116 187/187/187
f 184/184/184 189/189/189 198/198/198
f 196/196/196 193/193/193 191/191/191
f 180/180/180 200/200/200 114/114/114
f 114/114/114 201/201/201 183/183/183
f 178/178/178 180/180/180 114/114/114
f 275/275/275 306/306/306 278/278/278
f 287/287/287 280/280/280 274/274/274
f 274/274/274 276/276/276 292/292/292
f 356/356/356 354/354/354 282/282/282
f 282/282/282 280/280/280 284/284/284
f 282/282/282 284/284/284 360/360/360
f 358/358/358 356/356/356 282/282/282
f 280/280/280 287/287/287 288/288/288
f 304/304/304 284/284/284 280/280/280
f 286/286/286 290/290/290 294/294/294
f 293/293/293 291/291/291 277/277/277
f 277/277/277 307/307/307 302/302/302
f 310/310/310 311/311/311 295/295/295
f 295/295/295 294/294/294 299/299/299
f 285/285/285 305/305/305 294/294/294
f 294/294/294 295/295/295 359/359/359
f 303/303/303 306/306/306 275/275/275
f 275/275/275 309/309/309 298/298/298
f 301/301/301 303/303/303 275/275/275
f 312/312/312 308/308/308 275/275/275
f 333/333/333 328/328/328 327/327/327
f 333/333/333 327/327/327 325/325/325
f 314/314/314 312/312/312 275/275/275
f 316/316/316 314/314/314 275/275/275
f 275/275/275 333/333/333 325/325/325
f 275/275/275 325/325/325 321/321/321
f 320/320/320 316/316/316 275/275/275
f 315/315/315 317/317/317 296/296/296
f 323/323/323 295/295/295 318/318/318
f 319/319/319 322/322/322 323/323/323
f 334/334/334 336/336/336 340/340/340
f 340/340/340 323/323/323 326/326/326
f 326/326/326 329/329/329 334/334/334
f 332/332/332 338/338/338 335/335/335
f 339/339/339 337/337/337 331/331/331
f 331/331/331 345/345/345 342/342/342
f 323/323/323 340/340/340 341/341/341
f 348/348/348 349/349/349 323/323/323
f 350/350/350 347/347/347 344/344/344
f 344/344/344 282/282/282 354/354/354
f 351/351/351 350/350/350 344/344/344
f 355/355/355 295/295/295 323/323/323
f 323/323/323 352/352/352 353/353/353

