# ('FARMS composite mesh',)
mtllib link_body_08_composite.mtl

o link_body_08
usemtl link_body_08_composite
v -1.68646200 6.63471900 4.60786400
v -1.68646200 6.63471900 4.60786400
v -1.68646200 6.63471900 4.60786400
v -4.37685700 5.30005900 4.60852000
v -4.37685700 5.30005900 4.60852000
v -2.11187700 5.53378600 5.72905000
v -2.11187700 5.53378600 5.72905000
v -1.75351300 7.38265800 3.17767300
v 2.10629100 5.19564800 5.61802700
v 2.10629100 5.19564800 5.61802700
v 2.10629100 5.19564800 5.61802700
v 1.82258200 5.98549100 4.64251200
v 1.82258200 5.98549100 4.64251200
v 1.82258200 5.98549100 4.64251200
v -3.54080100 6.75776600 3.23280000
v -3.54080100 6.75776600 3.23280000
v -5.86743300 4.92689600 3.12608400
v -5.14812800 6.28589400 1.62613000
v -3.87452000 7.34017500 0.61331800
v -3.87452000 7.34017500 0.61331800
v -1.41776400 8.11842300 0.54973700
v -0.19799800 8.06742900 -1.62621400
v 1.58617000 7.49220100 0.09735600
v 1.58617000 7.49220100 0.09735600
v -2.29597000 7.78568600 -1.68841400
v -2.29597000 7.78568600 -1.68841400
v 2.77862200 7.63740800 -1.58798700
v 2.77862200 7.63740800 -1.58798700
v 1.05984700 7.03772400 2.03890400
v 1.05984700 7.03772400 2.03890400
v -0.24625400 5.56088100 3.63529000
v -0.24625400 5.56088100 3.63529000
v -0.34490700 6.51152500 0.84593300
v -0.34490700 6.51152500 0.84593300
v -1.54048900 5.50425100 0.78052000
v -1.54048900 5.50425100 0.78052000
v 0.58259100 6.95452800 -1.46638500
v -1.78792500 5.05376900 -1.55841800
v -1.78792500 5.05376900 -1.55841800
v -2.92700500 3.62692000 -0.00000000
v -0.43375500 5.69763900 -3.10381000
v -0.43375500 5.69763900 -3.10381000
v -3.26958200 2.39501800 -1.55841900
v -2.25925600 3.57421000 -3.05156700
v -2.19663400 1.80558300 -4.42025600
v -2.19663400 1.80558300 -4.42025600
v -3.13883200 0.84771500 -3.05156700
v -0.95060500 4.16410600 -4.45028700
v -0.95060500 4.16410600 -4.45028700
v -0.95060500 4.16410600 -4.45028700
v 1.06900600 6.22685700 -3.96797800
v 1.06900600 6.22685700 -3.96797800
v -1.59938400 1.14461500 -5.38617600
v -1.59938400 1.14461500 -5.38617600
v -1.59938400 1.14461500 -5.38617600
v -1.59938400 1.14461500 -5.38617600
v 0.23936700 4.28878600 -5.40784400
v 0.23936700 4.28878600 -5.40784400
v 0.23936700 4.28878600 -5.40784400
v 0.23936700 4.28878600 -5.40784400
v -4.73919600 4.08837400 -5.34292700
v -4.73919600 4.08837400 -5.34292700
v -2.29761100 5.94067700 -5.17054700
v -2.29761100 5.94067700 -5.17054700
v 2.06524700 5.66159500 -5.08129800
v 2.06524700 5.66159500 -5.08129800
v 2.06524700 5.66159500 -5.08129800
v -1.12684400 6.70466200 -4.67188200
v -1.12684400 6.70466200 -4.67188200
v 3.16549700 6.58749500 -4.28583300
v 3.16549700 6.58749500 -4.28583300
v 3.16549700 6.58749500 -4.28583300
v 0.00000400 7.59696000 -3.22228200
v 3.42078800 7.25509800 -3.06193900
v 3.42078800 7.25509800 -3.06193900
v -2.06219400 7.35207000 -3.20607100
v -2.06219400 7.35207000 -3.20607100
v -4.74554900 5.99380800 -3.17738000
v -3.16825600 5.65781000 -5.11126300
v -3.16825600 5.65781000 -5.11126300
v -3.16825600 5.65781000 -5.11126300
v -5.83344200 4.32446600 -4.03805600
v -6.57600700 1.93208500 -4.64302700
v -7.12803100 3.90930400 -1.55990500
v -7.26808800 2.27851800 -3.23177600
v -5.14812800 6.28589400 -1.62613300
v -5.86884800 2.17738200 -5.31776200
v -5.86884800 2.17738200 -5.31776200
v -4.71370900 -4.12532800 -5.34275400
v -4.71370900 -4.12532800 -5.34275400
v -5.85798600 -2.19787300 -5.31684700
v -5.85798600 -2.19787300 -5.31684700
v -5.85798600 -2.19787300 -5.31684700
v -6.28301700 0.00000200 -5.28365600
v -6.28301700 0.00000200 -5.28365600
v -6.28301700 0.00000200 -5.28365600
v -6.83852500 -0.68994300 -4.60783200
v -6.83852500 -0.68994300 -4.60783200
v -6.03103500 -3.29215900 -4.61061000
v -6.03103500 -3.29215900 -4.61061000
v -6.03103500 -3.29215900 -4.61061000
v -7.62015400 -0.61580200 -3.17738100
v -7.00867000 -3.69577900 -2.51087700
v -7.00867000 -3.69577900 -2.51087700
v -5.93245100 -4.77732000 -3.23177600
v -5.93245100 -4.77732000 -3.23177600
v -6.31059200 -5.36690900 -0.00000100
v -6.31059200 -5.36690900 -0.00000100
v -5.22479400 -6.22840700 -1.55990600
v -7.23370100 -3.99609700 0.89482000
v -7.23370100 -3.99609700 0.89482000
v -7.81272000 -2.22111700 -1.62267300
v -8.06799600 0.93775500 -1.62267400
v -8.22875900 -0.95644100 0.00000000
v -7.96839400 2.26537600 -0.00000000
v -8.08146800 0.88394100 1.55990700
v -7.81272000 -2.22111600 1.62267200
v -6.55946300 -3.19710300 3.97981300
v -6.55946300 -3.19710300 3.97981300
v -6.55946300 -3.19710300 3.97981300
v -7.62015400 -0.61580400 3.17738000
v -7.27576400 2.34718000 3.17737900
v -6.82889300 -0.79373400 4.60249200
v -6.82889300 -0.79373400 4.60249200
v -6.61282300 1.87999100 4.60249300
v -5.10607600 3.64421200 5.43949400
v -5.10607600 3.64421200 5.43949400
v -5.68920900 1.21444200 5.92657000
v -5.68920900 1.21444200 5.92657000
v -5.37437200 -2.29445400 5.91310100
v -5.37437200 -2.29445400 5.91310100
v -4.08724500 2.91294100 6.53577200
v -4.08724500 2.91294100 6.53577200
v -4.79567300 0.32019700 6.69542000
v -4.79567300 0.32019700 6.69542000
v -4.65074500 -1.54940000 6.61689800
v -4.65074500 -1.54940000 6.61689800
v 0.31413900 1.85487700 6.72576600
v 0.31413900 1.85487700 6.72576600
v -3.89244800 -3.19591800 6.49584100
v 0.10375400 -0.86648800 6.77903800
v 0.10375400 -0.86648800 6.77903800
v 0.67236700 -2.58014600 6.63765100
v 0.67236700 -2.58014600 6.63765100
v -1.06675500 -2.21014500 5.61328500
v -1.06675500 -2.21014500 5.61328500
v -1.32929000 1.02827500 5.68380200
v -1.32929000 1.02827500 5.68380200
v -2.82331100 0.78264400 3.80536500
v 0.22890700 4.02960700 5.66289700
v 0.22890700 4.02960700 5.66289700
v 0.22890700 4.02960700 5.66289700
v -2.11465800 1.90171700 4.49670900
v -1.01376500 4.14073100 4.38523700
v -2.25925400 3.57421100 3.05156700
v -2.72381000 3.68541000 1.56173900
v -3.71699300 0.86475200 1.00663000
v -3.74857100 -0.91858100 -0.00000100
v -3.38961900 -0.88924600 2.44952600
v -3.47557000 -0.62121900 -2.26406300
v -3.34118100 -2.18589800 -1.49813800
v -2.31466700 -3.47460100 -3.05700300
v -2.31466700 -3.47460100 -3.05700300
v -2.42796500 -0.72655100 -4.38523700
v -2.42796500 -0.72655100 -4.38523700
v -1.36748700 -1.78148700 -5.38778500
v -1.36748700 -1.78148700 -5.38778500
v -1.36748700 -1.78148700 -5.38778500
v -1.36748700 -1.78148700 -5.38778500
v -1.62355800 -3.15378300 -4.45918700
v -1.62355800 -3.15378300 -4.45918700
v -1.62355800 -3.15378300 -4.45918700
v -0.04859400 -3.95486500 -5.41328600
v -0.04859400 -3.95486500 -5.41328600
v -0.04859400 -3.95486500 -5.41328600
v -0.04859400 -3.95486500 -5.41328600
v 0.30672600 -4.86530800 -4.97521400
v 0.30672600 -4.86530800 -4.97521400
v 0.30672600 -4.86530800 -4.97521400
v -0.53857600 -5.61161800 -3.10381000
v -1.96150000 -4.84227100 -1.55841800
v -1.96150000 -4.84227100 -1.55841800
v 0.49610700 -6.91816700 -1.52296900
v 1.35362400 -6.76182500 -3.03161000
v 3.36057800 -7.27111200 -3.02731500
v 3.36057800 -7.27111200 -3.02731500
v 2.07553000 -5.75323800 -5.00642000
v 2.07553000 -5.75323800 -5.00642000
v 2.07553000 -5.75323800 -5.00642000
v 3.16794700 -6.58905000 -4.28409700
v 3.16794700 -6.58905000 -4.28409700
v 3.16794700 -6.58905000 -4.28409700
v -1.12603000 -6.70519200 -4.67134500
v -1.12603000 -6.70519200 -4.67134500
v 0.00000300 -7.59878500 -3.22046000
v -1.99176400 -7.39447600 -3.17213400
v -0.18963900 -8.05429100 -1.70897900
v -2.36200500 -7.78649900 -1.62327500
v -1.18163700 -8.15627100 0.22916200
v -3.77640200 -7.37333700 0.00000000
v -4.23376700 -6.33628300 -3.15660200
v -4.33795200 -5.28581000 -4.65018600
v -4.33795200 -5.28581000 -4.65018600
v -2.32058400 -5.96222400 -5.15984300
v -2.32058400 -5.96222400 -5.15984300
v -3.52249300 -5.16854400 -5.30138700
v -3.52249300 -5.16854400 -5.30138700
v -3.52249300 -5.16854400 -5.30138700
v 1.62286500 -5.64230100 -5.08341000
v 1.62286500 -5.64230100 -5.08341000
v 1.62286500 -5.64230100 -5.08341000
v -2.65789100 -7.61068000 1.74582700
v -5.16075900 -6.27553200 1.62613000
v -5.87432100 -4.82093400 3.28761900
v -5.87432100 -4.82093400 3.28761900
v -3.62616200 -6.78407200 3.06836700
v -1.67970300 -6.62619500 4.62211200
v -1.67970300 -6.62619500 4.62211200
v -4.39434100 -5.25990700 4.64302600
v -4.39434100 -5.25990700 4.64302600
v -1.75502200 -7.38528400 3.17183600
v 1.79047000 -6.00075500 4.61243700
v 1.79047000 -6.00075500 4.61243700
v 1.05713800 -7.03647200 2.03835100
v 1.05713800 -7.03647200 2.03835100
v -0.80318300 -6.04090800 1.55899700
v 1.59550800 -7.48496200 0.13388300
v 1.59550800 -7.48496200 0.13388300
v -0.47564700 -5.64180900 3.15744200
v -0.78429300 -6.23782500 -0.00000100
v -2.79546200 -3.87301900 -0.00000100
v -2.79546200 -3.87301900 -0.00000100
v -2.77070600 -3.60622300 1.49813600
v -2.77070600 -3.60622300 1.49813600
v -2.36813000 -3.43340600 3.00188400
v -2.36813000 -3.43340600 3.00188400
v -0.96146200 -4.17239300 4.42604300
v -0.96146200 -4.17239300 4.42604300
v -0.96146200 -4.17239300 4.42604300
v -2.11788200 -1.96270000 4.45841500
v 0.54157600 -4.85292300 5.22188100
v 0.54157600 -4.85292300 5.22188100
v 2.10337800 -5.19226800 5.62121300
v 2.10337800 -5.19226800 5.62121300
v 2.10337800 -5.19226800 5.62121300
v 2.10337800 -5.19226800 5.62121300
v 1.78035900 -4.06215400 6.34018100
v 1.78035900 -4.06215400 6.34018100
v -2.41400000 -5.22690200 5.93550100
v -2.41400000 -5.22690200 5.93550100
v -3.60828400 -4.61627900 5.84179800
v -3.60828400 -4.61627900 5.84179800
v 2.80455100 -7.63468200 -1.63670000
v 2.80455100 -7.63468200 -1.63670000
v 1.76435500 4.06022400 6.33884200
v 1.76435500 4.06022400 6.33884200
v -2.85544900 4.76942200 6.08456100
v -2.85544900 4.76942200 6.08456100
v -7.16175700 3.83730600 1.62613200
v -6.49491700 5.14230600 -0.00000100
vn 0.07465616 0.69722339 0.71295582
vn 0.01537124 0.87814899 0.47814023
vn -0.36448978 0.73501608 0.57175043
vn -0.45132191 0.58365898 0.67501906
vn -0.54082143 0.67483269 0.50210858
vn -0.36205090 0.73010364 0.57954104
vn -0.05594013 0.57873409 0.81359545
vn -0.06160324 0.93483905 0.34968698
vn 0.06676954 0.56230497 0.82422991
vn 0.14008209 0.78905774 0.59813451
vn 0.37520931 -0.63026086 -0.67969788
vn 0.41017190 -0.74259826 -0.52944012
vn 0.16971887 0.84513220 0.50689946
vn 0.39197444 -0.65592128 -0.64507620
vn -0.29722103 0.90474740 0.30510950
vn -0.48805770 0.75886072 0.43119612
vn -0.71543672 0.58555604 0.38114882
vn -0.63562213 0.74796886 0.19112062
vn -0.55191059 0.83371568 0.01768776
vn -0.29544670 0.94443114 0.14408701
vn -0.05173684 0.98874349 0.14039095
vn 0.02131035 0.99078037 -0.13379134
vn 0.23429748 0.93716830 0.25849616
vn 0.39372369 -0.91884958 0.02640269
vn -0.17500912 0.97211639 -0.15608179
vn -0.44877741 0.85988142 -0.24331621
vn 0.16067379 0.98405738 -0.07625614
vn 0.28701744 -0.91903612 0.27017329
vn 0.46512129 -0.84525846 -0.26305952
vn 0.23493677 0.92684941 0.29283936
vn 0.66020226 -0.63754978 -0.39706831
vn 0.44059722 -0.76275533 -0.47336920
vn 0.62888146 -0.72887348 -0.27065027
vn 0.54523877 -0.83714416 -0.04363865
vn 0.63971874 -0.76447990 0.07956388
vn 0.74003409 -0.64712034 -0.18326161
vn 0.45572950 -0.87053222 0.18569946
vn 0.62035002 -0.77189690 0.13907205
vn 0.79860414 -0.56159806 0.21642332
vn 0.89422194 -0.44742257 0.01342242
vn 0.70387907 -0.59559829 0.38706193
vn 0.54890325 -0.74865441 0.37178192
vn 0.93950134 -0.28700301 0.18699333
vn 0.80929583 -0.44845969 0.37937339
vn 0.67270881 -0.34707775 0.65345228
vn 0.84118119 -0.20327286 0.50109316
vn 0.91650521 -0.12344603 0.38049873
vn 0.52715120 -0.64538236 0.55280487
vn 0.62220272 -0.35063526 0.69994192
vn 0.72336677 -0.51545455 0.45939864
vn 0.37091832 -0.65089344 0.66238760
vn 0.37757803 -0.80810991 0.45209866
vn 0.82714754 -0.06785134 0.55787377
vn -0.01344080 0.00015946 -0.99990966
vn 0.71488189 0.05627197 0.69697729
vn 0.65308097 -0.34868335 0.67223892
vn 0.37091832 -0.65089344 0.66238760
vn 0.01064699 0.12386787 -0.99224160
vn 0.52061331 -0.64147053 0.56345128
vn 0.60903295 -0.35126952 0.71111785
vn -0.60071544 0.52895523 -0.59945586
vn -0.02335361 0.03959848 -0.99894273
vn -0.01147140 0.22480090 -0.97433719
vn -0.29469561 0.79635571 -0.52817808
vn 0.37091832 -0.65089344 0.66238760
vn 0.22299081 -0.77405493 0.59254879
vn 0.07239723 0.49080164 -0.86825825
vn 0.05488115 0.50585446 -0.86087126
vn -0.14521894 0.83834317 -0.52544475
vn 0.21926057 -0.84549813 0.48688572
vn 0.09974838 0.85282945 -0.51257408
vn 0.08841735 0.58657593 -0.80505345
vn 0.01322788 0.91382179 -0.40589995
vn 0.24474663 -0.89286553 0.37800825
vn 0.12036090 0.92088488 -0.37078873
vn -0.16189279 0.89850063 -0.40802860
vn -0.42314451 0.82819326 -0.36748422
vn -0.55869808 0.73061382 -0.39250466
vn -0.16165278 0.30055570 -0.93996524
vn -0.47745848 0.71072217 -0.51663081
vn -0.29216212 0.79368296 -0.53358097
vn -0.70313516 0.52520804 -0.47933021
vn -0.79237658 0.21758465 -0.56990900
vn -0.85882737 0.47473861 -0.19245470
vn -0.88529533 0.27101030 -0.37789627
vn -0.62059366 0.76138458 -0.18750206
vn -0.02613490 -0.00012268 -0.99965842
vn -0.70409607 0.29057001 -0.64793348
vn -0.60475528 -0.51063463 -0.61116555
vn -0.01549561 -0.01422526 -0.99977874
vn -0.02693047 -0.00027591 -0.99963727
vn -0.65202034 -0.27162592 -0.70787628
vn -0.78545178 -0.24312482 -0.56917116
vn -0.70020642 -0.12479228 -0.70294940
vn -0.07994511 -0.00040693 -0.99679918
vn -0.78758730 0.08302082 -0.61058479
vn -0.70020642 -0.12479228 -0.70294940
vn -0.85847657 -0.08569430 -0.50564263
vn -0.82096438 -0.31164255 -0.47843120
vn -0.62555038 -0.40092657 -0.66928664
vn -0.64885684 -0.54039971 -0.53567990
vn -0.92043718 -0.08042845 -0.38252669
vn -0.86778043 -0.38233615 -0.31745265
vn -0.76269017 -0.61377580 -0.20391903
vn -0.76528991 -0.46450501 -0.44560795
vn -0.68781975 -0.62715771 -0.36548213
vn -0.85459196 -0.50930835 -0.10137841
vn -0.72299689 -0.69067066 0.01579678
vn -0.62899411 -0.75568762 -0.18249008
vn -0.90280064 -0.42413022 0.07116568
vn -0.75596246 -0.62322609 0.20027483
vn -0.94596982 -0.26530267 -0.18642851
vn -0.97499493 0.11042733 -0.19284887
vn -0.99376063 -0.11153063 -0.00085034
vn -0.96073312 0.27747276 -0.00085389
vn -0.97685133 0.10375147 0.18707516
vn -0.94455241 -0.26292503 0.19670072
vn -0.63637735 -0.47171300 0.61033656
vn -0.65759054 -0.51274487 0.55196682
vn -0.84914627 -0.32921325 0.41300031
vn -0.92418028 -0.06648250 0.37612617
vn -0.87722052 0.28716053 0.38473757
vn -0.84873914 -0.09061222 0.52099069
vn -0.70463101 -0.06593522 0.70650385
vn -0.80753172 0.23281759 0.54193033
vn -0.72325236 0.43361264 0.53748126
vn -0.51649049 0.43881696 0.73530759
vn -0.76229132 0.17934937 0.62188885
vn -0.61954048 0.10138909 0.77838927
vn -0.62088130 -0.28632521 0.72974262
vn -0.77431539 -0.23864823 0.58607397
vn -0.52738675 0.36072507 0.76924680
vn -0.01956229 0.13529812 0.99061180
vn -0.63593939 0.01852645 0.77151660
vn -0.01950915 0.00136391 0.99980875
vn 0.08197220 -0.03547721 0.99600298
vn -0.59993990 -0.15814489 0.78425908
vn -0.00831982 0.10788460 0.99412861
vn 0.55976611 -0.25691269 -0.78781836
vn -0.28245978 -0.29242042 0.91362288
vn -0.01925643 -0.03998363 0.99901476
vn 0.60006878 0.09519531 -0.79426401
vn 0.50390881 0.37443698 -0.77837836
vn -0.00977524 -0.15503522 0.98786058
vn 0.75163489 0.22178693 -0.62117272
vn 0.57932822 0.29173093 -0.76109913
vn 0.61018764 -0.10448202 -0.78533722
vn 0.74419035 -0.12158114 -0.65680952
vn 0.87742085 -0.09201767 -0.47081355
vn 0.43205374 -0.66808641 -0.60579709
vn 0.42784569 -0.46485968 -0.77514743
vn 0.61901666 -0.44697254 -0.64578164
vn 0.77259771 -0.27656654 -0.57149255
vn 0.66416289 -0.50108237 -0.55480097
vn 0.81116727 -0.44735253 -0.37667410
vn 0.86890983 -0.44686623 -0.21285272
vn 0.98375018 -0.13627911 -0.11689134
vn 0.99282178 0.11958817 -0.00189110
vn 0.94316416 0.13175035 -0.30509540
vn 0.95732996 0.07264087 0.27971889
vn 0.93561253 0.29897090 0.18773812
vn 0.69948289 0.57196081 0.42846763
vn 0.87672504 0.33470885 0.34543188
vn 0.71488189 0.05627197 0.69697729
vn 0.86005949 0.11873717 0.49618460
vn 0.78274380 0.24193909 0.57339133
vn 0.61079604 0.36239543 0.70398703
vn 0.71488189 0.05627197 0.69697729
vn -0.01398755 0.00075895 -0.99990188
vn 0.61079604 0.36239543 0.70398703
vn 0.66075373 0.55710091 0.50303388
vn 0.82241071 0.25709294 0.50748777
vn 0.62019219 0.52325349 0.58443770
vn 0.01176718 -0.09861738 -0.99505585
vn 0.36813756 0.51586953 0.77353304
vn 0.61079604 0.36239543 0.70398703
vn 0.27133846 0.56783291 -0.77713656
vn 0.53861485 0.65130224 0.53450859
vn 0.36813756 0.51586953 0.77353304
vn 0.59404623 0.70074286 0.39505508
vn 0.71446280 0.67382161 0.18843390
vn 0.87212297 0.44853137 0.19550224
vn 0.45795964 0.86880753 0.18827228
vn 0.33740220 0.85777427 0.38779254
vn 0.24668596 0.89387970 0.37433291
vn 0.12176818 -0.92141597 -0.36900559
vn 0.34109161 0.78079710 0.52346194
vn 0.08077570 -0.55446549 -0.82827731
vn 0.27133846 0.56783291 -0.77713656
vn 0.10172913 -0.85495160 -0.50863439
vn 0.08862392 -0.58246409 -0.80801076
vn 0.25181346 0.83998351 0.48064299
vn -0.13983285 -0.83944429 -0.52514765
vn 0.05810751 -0.49963970 -0.86428218
vn 0.01376620 -0.91329347 -0.40706945
vn -0.24951692 -0.88517559 -0.39269005
vn 0.01575322 -0.98743908 -0.15721293
vn -0.29231733 -0.93765441 -0.18802867
vn -0.01980967 -0.99362235 0.11100544
vn -0.46109546 -0.88735016 -0.00082110
vn -0.49478914 -0.77978126 -0.38356862
vn -0.52585886 -0.55495664 -0.64458947
vn -0.50739657 -0.69171960 -0.51388006
vn 0.02988739 -0.22639320 -0.97357735
vn -0.35215203 -0.77233601 -0.52866439
vn -0.38617477 -0.69331067 -0.60843189
vn -0.46644161 -0.55977371 -0.68489826
vn -0.00307826 -0.08306822 -0.99653911
vn 0.04723913 -0.35964165 -0.93189396
vn 0.36813756 0.51586953 0.77353304
vn 0.27133846 0.56783291 -0.77713656
vn -0.30121804 -0.93188885 0.20211595
vn -0.62440669 -0.75693537 0.19278259
vn -0.66822785 -0.62144495 0.40899599
vn -0.82448737 -0.47739265 0.30383686
vn -0.44114996 -0.81332732 0.37932227
vn 0.05678455 -0.66726338 0.74265409
vn -0.13224446 -0.84360334 0.52042752
vn -0.49349857 -0.69750326 0.51956555
vn -0.61425197 -0.47339653 0.63134003
vn -0.04395845 -0.92731905 0.37168135
vn 0.17297918 -0.84768454 0.50150686
vn 0.38936745 0.74623657 -0.53992960
vn 0.46808488 0.84942787 -0.24365721
vn 0.23463334 -0.92662693 0.29378519
vn 0.64120084 0.74310135 -0.19147290
vn 0.23536841 -0.93712613 0.25767485
vn 0.40854231 0.91261229 0.01523100
vn 0.58267216 0.70707066 -0.40067972
vn 0.62645586 0.77939700 0.00966225
vn 0.92754846 0.37010419 0.05173723
vn 0.76812251 0.63646365 -0.07001314
vn 0.76481582 0.61311907 -0.19784276
vn 0.94024165 0.29735214 -0.16591369
vn 0.73661330 0.59710686 -0.31759130
vn 0.85274302 0.32702421 -0.40728922
vn 0.56828698 0.44805783 -0.69014063
vn 0.64540737 0.61013178 -0.45955254
vn 0.73692519 0.39371212 -0.54948342
vn 0.79680077 0.21179761 -0.56590663
vn 0.44991919 0.70364821 -0.54995629
vn 0.45753005 0.48320382 -0.74644513
vn 0.14466680 -0.79352132 0.59109680
vn 0.06166140 -0.56284804 0.82425721
vn 0.31764518 0.57194111 -0.75629684
vn 0.31637842 0.68992686 -0.65108035
vn 0.03198250 -0.39680695 0.91734474
vn 0.37548984 0.50803354 -0.77518340
vn -0.37369919 -0.71501911 0.59084396
vn -0.02785831 -0.44748968 0.89385508
vn -0.44856583 -0.46323628 0.76433033
vn -0.39462197 -0.67638357 0.62191540
vn 0.16101371 -0.98353476 -0.08206076
vn 0.29724939 0.91366125 0.27724703
vn 0.35635761 -0.50417320 -0.78665026
vn 0.03196686 0.38445287 0.92259098
vn -0.00598133 0.30275071 0.95305101
vn -0.42504266 0.60136514 0.67653433
vn -0.86525794 0.46307313 0.19207283
vn -0.78086462 0.62469933 0.00109037
vt 0.32833100 0.43834200
vt 0.23418100 0.68602900
vt 0.00901400 0.35566300
vt 0.31045600 0.42946900
vt 0.00869000 0.37085100
vt 0.00157300 0.36350100
vt 0.32547500 0.43096600
vt 0.23149500 0.69554000
vt 0.35350800 0.42873200
vt 0.26149800 0.68099400
vt 0.49864400 0.67539700
vt 0.62940900 0.22777500
vt 0.25755400 0.68739300
vt 0.50058900 0.68075600
vt 0.22176100 0.69428200
vt 0.01786100 0.35976000
vt 0.01833600 0.37702800
vt 0.02832100 0.36684500
vt 0.03517300 0.35707500
vt 0.21729000 0.71153600
vt 0.23085500 0.71317800
vt 0.23768300 0.72816900
vt 0.25082200 0.71753500
vt 0.65828500 0.21992600
vt 0.22519300 0.72757100
vt 0.05067300 0.35022600
vt 0.25724300 0.72927800
vt 0.67077300 0.22544300
vt 0.64508200 0.21915200
vt 0.24935800 0.70438100
vt 0.24223600 0.53263500
vt 0.63338400 0.21308200
vt 0.22355500 0.52673400
vt 0.65115900 0.20856100
vt 0.65029700 0.20092100
vt 0.22256000 0.53444800
vt 0.66730200 0.21146200
vt 0.66532300 0.19634200
vt 0.20702000 0.53786100
vt 0.21687600 0.54812900
vt 0.19752800 0.53255300
vt 0.67697600 0.20298200
vt 0.20658000 0.55669700
vt 0.19712100 0.54816900
vt 0.97196900 0.49471400
vt 0.18843100 0.55988800
vt 0.19706900 0.56690900
vt 0.68548100 0.19819900
vt 0.98967900 0.49547900
vt 0.18858000 0.54324300
vt 0.19813200 0.98572900
vt 0.68441800 0.21151000
vt 0.18253600 0.56379400
vt 0.10661800 0.40246200
vt 0.98974300 0.73457200
vt 0.97023900 0.48907400
vt 0.19813200 0.97180600
vt 0.09439700 0.42335400
vt 0.69323200 0.20466100
vt 0.99444300 0.48907400
vt 0.07482000 0.37920100
vt 0.12747500 0.42201600
vt 0.11123800 0.43430200
vt 0.22787500 0.75049100
vt 0.20570100 0.98494300
vt 0.69311700 0.21666300
vt 0.08224400 0.43243700
vt 0.10342800 0.43932000
vt 0.23367800 0.74780200
vt 0.68912300 0.22465900
vt 0.26089400 0.74725100
vt 0.07488400 0.43849600
vt 0.23931300 0.73880000
vt 0.68130800 0.22777500
vt 0.26149800 0.73931600
vt 0.22699500 0.73770200
vt 0.06081800 0.35226300
vt 0.06031000 0.36757700
vt 0.11702000 0.43241600
vt 0.07341700 0.36550600
vt 0.22309800 0.74966500
vt 0.06597100 0.38061900
vt 0.07003200 0.39717600
vt 0.04934000 0.38654100
vt 0.06053000 0.39686900
vt 0.04992500 0.36684500
vt 0.13498200 0.40931700
vt 0.07460500 0.39382800
vt 0.12731500 0.36744400
vt 0.12731500 0.36744400
vt 0.13491500 0.38024800
vt 0.13491500 0.38024800
vt 0.07488400 0.42052800
vt 0.13773400 0.39484600
vt 0.13773400 0.39484600
vt 0.07445700 0.40821300
vt 0.14138600 0.39018500
vt 0.06992800 0.41388000
vt 0.07023700 0.42766500
vt 0.13602400 0.37289600
vt 0.06419500 0.67221700
vt 0.06030300 0.41547100
vt 0.05616700 0.43268700
vt 0.06839000 0.65755900
vt 0.06118900 0.43648000
vt 0.06179600 0.66364900
vt 0.03970200 0.44107000
vt 0.06086700 0.64220900
vt 0.05511200 0.65375900
vt 0.03352900 0.43511000
vt 0.06634900 0.63505600
vt 0.05005000 0.42578100
vt 0.04980700 0.40715100
vt 0.03912600 0.41914300
vt 0.03895700 0.39878100
vt 0.02866700 0.40751500
vt 0.02849200 0.42578100
vt 0.29598600 0.37303700
vt 0.05899500 0.61527600
vt 0.01308600 0.42846600
vt 0.01808900 0.41547100
vt 0.01794900 0.39647000
vt 0.00875300 0.41448900
vt 0.29417400 0.38897400
vt 0.00861300 0.39759000
vt 0.00316700 0.38287300
vt 0.30559100 0.41842100
vt -0.00000000 0.39924100
vt 0.30170700 0.40224900
vt 0.30380600 0.37893500
vt 0.00036400 0.41985300
vt 0.31233100 0.41350600
vt 0.31233100 0.41350600
vt 0.30762400 0.39626800
vt 0.30762400 0.39626800
vt 0.30859300 0.38385000
vt 0.30859300 0.38385000
vt 0.34157500 0.40647300
vt 0.51048000 0.65306800
vt 0.31363800 0.37291700
vt 0.34018000 0.38838700
vt 0.51187000 0.63498100
vt 0.50809700 0.62361300
vt 0.34396600 0.37700800
vt 0.25622000 0.58433900
vt 0.51971500 0.62618400
vt 0.52146100 0.64769100
vt 0.25593300 0.56325000
vt 0.24262300 0.56639300
vt 0.62121500 0.21918600
vt 0.51111400 0.66763900
vt 0.25622000 0.54209200
vt 0.24743400 0.55832200
vt 0.24697500 0.54260200
vt 0.23748200 0.54758100
vt 0.22732000 0.54741100
vt 0.22354300 0.56692600
vt 0.21719100 0.57879100
vt 0.23360800 0.57803900
vt 0.20233500 0.57680600
vt 0.20776800 0.58691200
vt 0.39793100 0.73057800
vt 0.19833500 0.59462200
vt 0.97773300 0.74107500
vt 0.18898000 0.57676200
vt 0.18320300 0.58284900
vt 0.98713100 0.93489800
vt 0.97023900 0.73457200
vt 0.10508100 0.38302100
vt 0.98019000 0.94113100
vt 0.39943700 0.74057000
vt 0.18943400 0.59202300
vt 0.40946700 0.74920000
vt 0.09632100 0.36858400
vt 0.09046400 0.98759500
vt 0.97023900 0.93489800
vt 0.09393500 0.36248500
vt 0.41428400 0.74709700
vt 0.08786600 0.98162400
vt 0.41345300 0.73395100
vt 0.40526100 0.72171000
vt 0.20871400 0.60316300
vt 0.42491800 0.72550100
vt 0.42765400 0.73646300
vt 0.44103100 0.73941300
vt 0.00000000 0.67226700
vt 0.42700200 0.75003700
vt 0.08218500 0.35658900
vt 0.08218500 0.35658900
vt 0.00270000 0.68014600
vt 0.07488400 0.35095200
vt 0.43655100 0.74711600
vt 0.03124500 0.67841400
vt 0.10344000 0.35022600
vt 0.02217200 0.67025000
vt 0.03524500 0.66788400
vt 0.02177800 0.66025700
vt 0.03601300 0.65744700
vt 0.02630400 0.64656700
vt 0.04375300 0.64526800
vt 0.05019700 0.66526100
vt 0.12477900 0.35965400
vt 0.05264500 0.67468900
vt 0.11140500 0.35521900
vt 0.03975800 0.68023100
vt 0.04798000 0.67975000
vt 0.11939900 0.36050800
vt 0.11939900 0.36050800
vt 0.08519700 0.35733500
vt 0.09046400 0.97180600
vt 0.08519700 0.35733500
vt 0.03458900 0.63499100
vt 0.05145700 0.63292300
vt 0.05480800 0.62092600
vt 0.01789300 0.43659400
vt 0.03980400 0.62512600
vt 0.32840000 0.35022600
vt 0.02549500 0.61683800
vt 0.04361800 0.61362700
vt 0.31035900 0.35929900
vt 0.02727500 0.62647800
vt 0.00288000 0.62021900
vt 0.43948900 0.68730200
vt 0.43366500 0.70322600
vt 0.01004900 0.63664700
vt 0.41942400 0.70344000
vt 0.00833500 0.64980300
vt 0.43523900 0.71645900
vt 0.42280500 0.69343300
vt 0.41776200 0.71363100
vt 0.21832300 0.59738300
vt 0.40023300 0.71016900
vt 0.40191900 0.70041700
vt 0.22819800 0.59546000
vt 0.40612700 0.69118900
vt 0.23836200 0.59381500
vt 0.51908300 0.61328500
vt 0.41837400 0.68413700
vt 0.24879200 0.59727700
vt 0.24788200 0.58376800
vt 0.43018500 0.68128100
vt 0.50904700 0.60867600
vt 0.00000000 0.61370200
vt 0.35350800 0.35970700
vt 0.49864400 0.60638000
vt 0.44103100 0.68099400
vt 0.35133900 0.36717800
vt 0.50075000 0.61380400
vt 0.02932200 0.60712000
vt 0.32348200 0.35945300
vt 0.31554700 0.36351400
vt 0.03740100 0.60638000
vt 0.00215500 0.66267500
vt 0.44042700 0.72969800
vt 0.50087100 0.66776900
vt 0.35121800 0.42114900
vt 0.32052600 0.42586700
vt 0.32052600 0.42586700
vt 0.02817500 0.38706900
vt 0.03899400 0.37735300
f 16/16/16 5/5/5 3/3/3
f 5/5/5 6/6/6 3/3/3
f 7/7/7 9/9/9 1/1/1
f 15/15/15 2/2/2 8/8/8
f 2/2/2 13/13/13 8/8/8
f 2/2/2 10/10/10 13/13/13
f 5/5/5 16/16/16 17/17/17
f 17/17/17 16/16/16 18/18/18
f 16/16/16 19/19/19 18/18/18
f 21/21/21 15/15/15 8/8/8
f 21/21/21 20/20/20 15/15/15
f 21/21/21 8/8/8 30/30/30
f 21/21/21 22/22/22 25/25/25
f 27/27/27 22/22/22 21/21/21
f 21/21/21 25/25/25 20/20/20
f 30/30/30 23/23/23 21/21/21
f 21/21/21 23/23/23 27/27/27
f 29/29/29 32/32/32 34/34/34
f 32/32/32 29/29/29 12/12/12
f 8/8/8 13/13/13 30/30/30
f 34/34/34 24/24/24 29/29/29
f 38/38/38 34/34/34 35/35/35
f 33/33/33 31/31/31 36/36/36
f 38/38/38 37/37/37 34/34/34
f 37/37/37 24/24/24 34/34/34
f 43/43/43 39/39/39 40/40/40
f 39/39/39 36/36/36 40/40/40
f 42/42/42 37/37/37 38/38/38
f 44/44/44 41/41/41 39/39/39
f 44/44/44 39/39/39 43/43/43
f 47/47/47 44/44/44 43/43/43
f 46/46/46 44/44/44 47/47/47
f 50/50/50 44/44/44 46/46/46
f 50/50/50 41/41/41 44/44/44
f 42/42/42 48/48/48 52/52/52
f 49/49/49 45/45/45 56/56/56
f 52/52/52 48/48/48 59/59/59
f 49/49/49 56/56/56 60/60/60
f 62/62/62 58/58/58 54/54/54
f 58/58/58 62/62/62 63/63/63
f 63/63/63 67/67/67 58/58/58
f 57/57/57 65/65/65 51/51/51
f 68/68/68 67/67/67 63/63/63
f 68/68/68 72/72/72 67/67/67
f 70/70/70 52/52/52 66/66/66
f 73/73/73 71/71/71 69/69/69
f 75/75/75 71/71/71 73/73/73
f 52/52/52 70/70/70 74/74/74
f 52/52/52 74/74/74 28/28/28
f 27/27/27 75/75/75 22/22/22
f 22/22/22 75/75/75 73/73/73
f 73/73/73 76/76/76 22/22/22
f 76/76/76 73/73/73 69/69/69
f 78/78/78 26/26/26 77/77/77
f 80/80/80 78/78/78 77/77/77
f 69/69/69 81/81/81 76/76/76
f 25/25/25 22/22/22 76/76/76
f 62/62/62 79/79/79 63/63/63
f 69/69/69 64/64/64 81/81/81
f 61/61/61 82/82/82 80/80/80
f 80/80/80 82/82/82 78/78/78
f 88/88/88 82/82/82 61/61/61
f 88/88/88 83/83/83 82/82/82
f 85/85/85 82/82/82 83/83/83
f 82/82/82 86/86/86 78/78/78
f 82/82/82 84/84/84 86/86/86
f 84/84/84 82/82/82 85/85/85
f 90/90/90 87/87/87 62/62/62
f 90/90/90 91/91/91 87/87/87
f 83/83/83 88/88/88 96/96/96
f 87/87/87 91/91/91 95/95/95
f 94/94/94 92/92/92 97/97/97
f 98/98/98 83/83/83 96/96/96
f 99/99/99 98/98/98 93/93/93
f 103/103/103 98/98/98 99/99/99
f 102/102/102 83/83/83 98/98/98
f 103/103/103 102/102/102 98/98/98
f 105/105/105 103/103/103 99/99/99
f 106/106/106 109/109/109 104/104/104
f 103/103/103 107/107/107 110/110/110
f 109/109/109 108/108/108 104/104/104
f 103/103/103 112/112/112 102/102/102
f 103/103/103 110/110/110 112/112/112
f 112/112/112 113/113/113 102/102/102
f 112/112/112 114/114/114 113/113/113
f 112/112/112 110/110/110 114/114/114
f 113/113/113 114/114/114 115/115/115
f 116/116/116 115/115/115 114/114/114
f 117/117/117 114/114/114 110/110/110
f 117/117/117 116/116/116 114/114/114
f 120/120/120 121/121/121 117/117/117
f 110/110/110 120/120/120 117/117/117
f 117/117/117 121/121/121 116/116/116
f 120/120/120 123/123/123 121/121/121
f 121/121/121 122/122/122 116/116/116
f 121/121/121 125/125/125 122/122/122
f 121/121/121 123/123/123 125/125/125
f 128/128/128 125/125/125 123/123/123
f 122/122/122 125/125/125 126/126/126
f 128/128/128 126/126/126 125/125/125
f 134/134/134 129/129/129 130/130/130
f 130/130/130 129/129/129 124/124/124
f 129/129/129 132/132/132 127/127/127
f 129/129/129 134/134/134 132/132/132
f 140/140/140 135/135/135 136/136/136
f 134/134/134 130/130/130 137/137/137
f 133/133/133 135/135/135 138/138/138
f 135/135/135 141/141/141 138/138/138
f 135/135/135 140/140/140 141/141/141
f 147/147/147 139/139/139 142/142/142
f 140/140/140 144/144/144 141/141/141
f 142/142/142 143/143/143 146/146/146
f 147/147/147 142/142/142 146/146/146
f 149/149/149 148/148/148 145/145/145
f 153/153/153 148/148/148 149/149/149
f 151/151/151 139/139/139 147/147/147
f 153/153/153 152/152/152 148/148/148
f 153/153/153 154/154/154 152/152/152
f 155/155/155 154/154/154 153/153/153
f 149/149/149 155/155/155 153/153/153
f 156/156/156 155/155/155 149/149/149
f 36/36/36 31/31/31 155/155/155
f 155/155/155 31/31/31 154/154/154
f 36/36/36 155/155/155 156/156/156
f 40/40/40 156/156/156 157/157/157
f 36/36/36 156/156/156 40/40/40
f 156/156/156 149/149/149 157/157/157
f 160/160/160 43/43/43 157/157/157
f 43/43/43 40/40/40 157/157/157
f 157/157/157 149/149/149 159/159/159
f 158/158/158 157/157/157 159/159/159
f 160/160/160 157/157/157 158/158/158
f 161/161/161 160/160/160 158/158/158
f 160/160/160 161/161/161 163/163/163
f 47/47/47 43/43/43 160/160/160
f 165/165/165 47/47/47 160/160/160
f 165/165/165 160/160/160 163/163/163
f 46/46/46 47/47/47 165/165/165
f 166/166/166 165/165/165 172/172/172
f 55/55/55 164/164/164 168/168/168
f 165/165/165 163/163/163 172/172/172
f 46/46/46 165/165/165 53/53/53
f 171/171/171 162/162/162 180/180/180
f 171/171/171 178/178/178 173/173/173
f 167/167/167 170/170/170 176/176/176
f 171/171/171 180/180/180 178/178/178
f 180/180/180 181/181/181 183/183/183
f 162/162/162 181/181/181 180/180/180
f 184/184/184 180/180/180 183/183/183
f 184/184/184 178/178/178 180/180/180
f 185/185/185 184/184/184 183/183/183
f 192/192/192 184/184/184 185/185/185
f 184/184/184 187/187/187 178/178/178
f 192/192/192 187/187/187 184/184/184
f 194/194/194 188/188/188 191/191/191
f 195/195/195 193/193/193 190/190/190
f 195/195/195 190/190/190 186/186/186
f 195/195/195 196/196/196 193/193/193
f 195/195/195 198/198/198 196/196/196
f 195/195/195 197/197/197 198/198/198
f 197/197/197 195/195/195 186/186/186
f 198/198/198 197/197/197 199/199/199
f 200/200/200 198/198/198 199/199/199
f 198/198/198 109/109/109 201/201/201
f 198/198/198 200/200/200 109/109/109
f 198/198/198 201/201/201 196/196/196
f 201/201/201 203/203/203 205/205/205
f 201/201/201 106/106/106 203/203/203
f 201/201/201 205/205/205 196/196/196
f 201/201/201 109/109/109 106/106/106
f 206/206/206 205/205/205 203/203/203
f 196/196/196 205/205/205 193/193/193
f 204/204/204 188/188/188 194/194/194
f 204/204/204 208/208/208 174/174/174
f 204/204/204 209/209/209 188/188/188
f 209/209/209 204/204/204 174/174/174
f 179/179/179 210/210/210 175/175/175
f 177/177/177 189/189/189 211/211/211
f 174/174/174 208/208/208 90/90/90
f 89/89/89 207/207/207 202/202/202
f 89/89/89 202/202/202 100/100/100
f 106/106/106 101/101/101 203/203/203
f 212/212/212 200/200/200 199/199/199
f 212/212/212 213/213/213 200/200/200
f 213/213/213 108/108/108 200/200/200
f 109/109/109 200/200/200 108/108/108
f 216/216/216 214/214/214 213/213/213
f 214/214/214 111/111/111 213/213/213
f 213/213/213 111/111/111 108/108/108
f 216/216/216 213/213/213 212/212/212
f 221/221/221 218/218/218 216/216/216
f 216/216/216 218/218/218 219/219/219
f 214/214/214 216/216/216 219/219/219
f 212/212/212 221/221/221 216/216/216
f 222/222/222 218/218/218 221/221/221
f 199/199/199 221/221/221 212/212/212
f 221/221/221 199/199/199 225/225/225
f 225/225/225 222/222/222 221/221/221
f 230/230/230 226/226/226 224/224/224
f 226/226/226 229/229/229 224/224/224
f 199/199/199 227/227/227 225/225/225
f 224/224/224 228/228/228 230/230/230
f 223/223/223 224/224/224 229/229/229
f 232/232/232 226/226/226 230/230/230
f 183/183/183 181/181/181 230/230/230
f 181/181/181 232/232/232 230/230/230
f 183/183/183 230/230/230 228/228/228
f 182/182/182 161/161/161 231/231/231
f 161/161/161 158/158/158 231/231/231
f 158/158/158 234/234/234 231/231/231
f 232/232/232 233/233/233 226/226/226
f 226/226/226 233/233/233 235/235/235
f 159/159/159 236/236/236 234/234/234
f 158/158/158 159/159/159 234/234/234
f 236/236/236 240/240/240 239/239/239
f 229/229/229 235/235/235 238/238/238
f 236/236/236 159/159/159 240/240/240
f 226/226/226 235/235/235 229/229/229
f 240/240/240 145/145/145 239/239/239
f 159/159/159 149/149/149 240/240/240
f 149/149/149 145/145/145 240/240/240
f 241/241/241 229/229/229 238/238/238
f 237/237/237 146/146/146 242/242/242
f 242/242/242 146/146/146 143/143/143
f 229/229/229 241/241/241 223/223/223
f 246/246/246 223/223/223 241/241/241
f 245/245/245 242/242/242 248/248/248
f 242/242/242 143/143/143 248/248/248
f 247/247/247 250/250/250 244/244/244
f 140/140/140 250/250/250 247/247/247
f 140/140/140 247/247/247 144/144/144
f 140/140/140 251/251/251 250/250/250
f 219/219/219 218/218/218 249/249/249
f 250/250/250 217/217/217 244/244/244
f 219/219/219 249/249/249 252/252/252
f 140/140/140 130/130/130 251/251/251
f 220/220/220 251/251/251 130/130/130
f 218/218/218 222/222/222 243/243/243
f 199/199/199 253/253/253 227/227/227
f 228/228/228 254/254/254 183/183/183
f 185/185/185 183/183/183 254/254/254
f 197/197/197 186/186/186 253/253/253
f 199/199/199 197/197/197 253/253/253
f 219/219/219 119/119/119 214/214/214
f 220/220/220 130/130/130 118/118/118
f 110/110/110 215/215/215 120/120/120
f 163/163/163 161/161/161 182/182/182
f 169/169/169 174/174/174 90/90/90
f 54/54/54 169/169/169 90/90/90
f 31/31/31 152/152/152 154/154/154
f 139/139/139 151/151/151 255/255/255
f 11/11/11 255/255/255 151/151/151
f 150/150/150 32/32/32 12/12/12
f 151/151/151 14/14/14 11/11/11
f 138/138/138 256/256/256 133/133/133
f 256/256/256 257/257/257 133/133/133
f 7/7/7 257/257/257 256/256/256
f 7/7/7 256/256/256 9/9/9
f 258/258/258 127/127/127 132/132/132
f 4/4/4 127/127/127 258/258/258
f 4/4/4 258/258/258 7/7/7
f 130/130/130 140/140/140 137/137/137
f 131/131/131 123/123/123 120/120/120
f 17/17/17 126/126/126 5/5/5
f 122/122/122 126/126/126 17/17/17
f 122/122/122 17/17/17 259/259/259
f 122/122/122 259/259/259 116/116/116
f 17/17/17 18/18/18 259/259/259
f 259/259/259 18/18/18 260/260/260
f 259/259/259 260/260/260 115/115/115
f 116/116/116 259/259/259 115/115/115
f 86/86/86 260/260/260 19/19/19
f 84/84/84 260/260/260 86/86/86
f 18/18/18 19/19/19 260/260/260
f 84/84/84 115/115/115 260/260/260
f 113/113/113 115/115/115 84/84/84
f 113/113/113 84/84/84 85/85/85
f 102/102/102 113/113/113 85/85/85
f 102/102/102 85/85/85 83/83/83
f 92/92/92 89/89/89 100/100/100
f 90/90/90 62/62/62 54/54/54
f 78/78/78 86/86/86 26/26/26
f 86/86/86 19/19/19 26/26/26
f 37/37/37 42/42/42 52/52/52
f 52/52/52 28/28/28 37/37/37
f 28/28/28 24/24/24 37/37/37

