# ('FARMS composite mesh',)
mtllib link_body_14_composite.mtl

o link_body_14
usemtl link_body_14_composite
v -1.24592500 -4.02757500 5.13704100
v -1.24592500 -4.02757500 5.13704100
v 0.18019500 -4.63934000 4.68396900
v 0.18019500 -4.63934000 4.68396900
v -2.91233600 -2.25583400 5.52702100
v -2.81891700 -5.13403700 3.14829800
v -0.59715900 -5.54911600 3.53610700
v -0.01741200 -3.53630400 5.58422000
v -3.22438400 -3.92892400 4.27769300
v -3.22438400 -3.92892400 4.27769300
v -0.87944600 -2.17099300 6.17544500
v -1.28305600 -0.00243800 6.48919600
v 0.44598300 0.00237700 6.26576200
v 0.44598300 0.00237700 6.26576200
v 0.45444100 -1.48317200 6.07059600
v 0.45444100 -1.48317200 6.07059600
v -2.10095400 -1.44060900 6.09563500
v -2.55237700 0.26417200 6.10356500
v -3.68488100 0.43974000 5.50594400
v -1.77627900 1.80783600 6.09873300
v -2.23809000 2.86024000 5.56741000
v -2.68351600 3.86981900 4.66964100
v -2.68351600 3.86981900 4.66964100
v -0.14312500 3.60461800 5.53784700
v -0.75150800 2.32385500 6.14700800
v -0.19108300 4.61085200 4.74593500
v -0.19108300 4.61085200 4.74593500
v -4.33217400 2.54784700 4.32805600
v -4.33217400 2.54784700 4.32805600
v -3.55673300 4.63086000 3.17678300
v -4.64161400 0.53950300 4.67386000
v -4.64161400 0.53950300 4.67386000
v -5.28702300 1.50307300 3.67975600
v -4.67145300 3.90677400 2.58384800
v -5.81705400 1.87659600 2.54035900
v -5.72590900 3.06796800 1.30011400
v -6.46122700 0.70672200 1.24716500
v -6.30773000 -0.58552300 2.00748100
v -5.84368500 -1.71368400 2.58384800
v -5.45977200 -0.63459900 3.67975700
v -5.45977200 -0.63459900 3.67975700
v -5.76494800 -3.00204800 1.24716800
v -5.76494800 -3.00204800 1.24716800
v -6.30339300 -2.03349000 -0.00000100
v -6.60175800 0.53350500 0.00000000
v -6.01862500 1.83796000 -2.15748800
v -5.85575400 3.11782400 -0.08527600
v -6.46539200 -0.63022300 -1.30011600
v -5.71377800 -3.08670700 -1.32956700
v -5.71377800 -3.08670700 -1.32956700
v -6.09240000 -0.49234300 -2.54036100
v -5.44227000 -1.83516200 -3.32808900
v -5.44227000 -1.83516200 -3.32808900
v -4.95518900 -3.53886900 -2.51739100
v -4.95518900 -3.53886900 -2.51739100
v -4.95518900 -3.53886900 -2.51739100
v -4.23901300 -2.04334600 -4.60465000
v -4.23901300 -2.04334600 -4.60465000
v -5.44925600 0.48867300 -3.71152300
v -4.71380800 0.00000100 -4.67628000
v -4.71380800 0.00000100 -4.67628000
v -4.78871100 -2.70445500 -3.58476000
v -4.78871100 -2.70445500 -3.58476000
v -4.78871100 -2.70445500 -3.58476000
v -4.48981800 -2.49261700 -2.14564300
v -4.04756900 -1.53382200 -3.31883100
v -4.04756900 -1.53382200 -3.31883100
v -3.67303700 -1.67933700 -5.17276600
v -3.67303700 -1.67933700 -5.17276600
v -3.67303700 -1.67933700 -5.17276600
v -3.67303700 -1.67933700 -5.17276600
v -2.95832100 -0.97550200 -2.09578400
v -2.95832100 -0.97550200 -2.09578400
v -3.20684200 -0.86177500 -3.93926900
v -3.20684200 -0.86177500 -3.93926900
v -1.71062800 -0.29095300 -3.92133300
v -1.71062800 -0.29095300 -3.92133300
v -2.20496700 -0.44612900 -2.95605700
v -2.20496700 -0.44612900 -2.95605700
v -2.07405600 -0.77533900 -5.33659600
v -2.07405600 -0.77533900 -5.33659600
v -0.78888100 -0.53379600 -5.10709600
v -0.78888100 -0.53379600 -5.10709600
v -0.78888100 -0.53379600 -5.10709600
v -0.56952300 -0.00145100 -5.41662500
v -0.56952300 -0.00145100 -5.41662500
v -3.54543300 -1.16294200 -5.43138100
v -3.54543300 -1.16294200 -5.43138100
v -3.71327600 0.00000100 -5.44254200
v -3.71327600 0.00000100 -5.44254200
v -3.54170700 1.12451900 -5.43819200
v -3.54170700 1.12451900 -5.43819200
v -4.22747600 1.81953300 -4.71597300
v -4.22747600 1.81953300 -4.71597300
v -4.22747600 1.81953300 -4.71597300
v -3.56535200 1.49876000 -5.29481300
v -3.56535200 1.49876000 -5.29481300
v -3.56535200 1.49876000 -5.29481300
v -2.06062900 0.82399200 -5.30692000
v -2.06062900 0.82399200 -5.30692000
v -2.39121500 0.52297300 -4.13582100
v -3.51274100 0.97613200 -3.93926900
v -4.33751200 1.63509300 -3.32801400
v -4.33751200 1.63509300 -3.32801400
v -3.26422500 1.08986200 -2.09578600
v -2.27274300 0.53208300 -2.67490400
v -2.27274300 0.53208300 -2.67490400
v -1.36558900 0.43440600 -4.46998800
v -1.36558900 0.43440600 -4.46998800
v -2.58585600 1.27315000 -1.21425200
v -2.58585600 1.27315000 -1.21425200
v -2.66738000 0.00000200 -1.50044000
v -2.81410400 0.79440400 -0.02401900
v -2.58953000 -1.25857500 -1.24858100
v -2.58953000 -1.25857500 -1.24858100
v -2.58953000 -1.25857500 -1.24858100
v -2.58953000 -1.25857500 -1.24858100
v -2.37661000 -2.47277100 -0.04659300
v -2.37661000 -2.47277100 -0.04659300
v -2.68514600 -1.50397100 0.56637900
v -3.44605000 -2.27220800 -0.81758100
v -3.44605000 -2.27220800 -0.81758100
v -4.13787700 -3.90120600 -0.69978300
v -4.13787700 -3.90120600 -0.69978300
v -3.01265700 -3.66353300 0.12346700
v -2.56760300 -4.55696600 0.45460300
v -2.00083900 -3.30122700 0.43386000
v -2.00083900 -3.30122700 0.43386000
v -2.00083900 -3.30122700 0.43386000
v -1.03235000 -4.79858900 0.71103300
v -1.03235000 -4.79858900 0.71103300
v -1.03235000 -4.79858900 0.71103300
v -1.03235000 -4.79858900 0.71103300
v -1.75768700 -3.68102600 1.49827600
v -1.75768700 -3.68102600 1.49827600
v -0.52906400 -4.64873800 3.00586100
v -0.52906400 -4.64873800 3.00586100
v -0.37382600 -5.43074000 1.44214000
v -0.37382600 -5.43074000 1.44214000
v -0.37382600 -5.43074000 1.44214000
v -1.98781900 -2.08206400 2.86094500
v -0.68269700 -3.14791200 4.33155700
v -0.68269700 -3.14791200 4.33155700
v -0.68269700 -3.14791200 4.33155700
v -2.17573700 0.69451900 3.06538200
v -1.39612100 -1.24756800 4.27288800
v -2.65030500 0.80024500 1.57428100
v -2.05851700 3.32690100 0.47823600
v -2.05851700 3.32690100 0.47823600
v -1.41380600 3.41333400 2.91435900
v -2.41427500 2.43543500 -0.02133000
v -2.41427500 2.43543500 -0.02133000
v -2.41427500 2.43543500 -0.02133000
v -3.77264100 2.39142400 -0.83138600
v -3.77264100 2.39142400 -0.83138600
v -3.77264100 2.39142400 -0.83138600
v -3.86916600 4.02358800 -0.14997200
v -3.86916600 4.02358800 -0.14997200
v -4.75863100 3.32815400 -1.43853100
v -2.89881400 4.73665100 0.45125900
v -3.72435900 5.43112900 -0.18099900
v -3.72435900 5.43112900 -0.18099900
v -3.72435900 5.43112900 -0.18099900
v -4.61531600 4.62499400 -0.96681600
v -4.61531600 4.62499400 -0.96681600
v -4.07803100 5.04843800 1.34991200
v -5.65425600 3.15577500 -1.39331300
v -5.15305900 3.26876900 -2.48134600
v -5.15305900 3.26876900 -2.48134600
v -4.42362200 2.15456000 -2.08833200
v -4.42362200 2.15456000 -2.08833200
v -4.91389600 2.44389700 -3.63637100
v -4.91389600 2.44389700 -3.63637100
v -4.91389600 2.44389700 -3.63637100
v -2.57709400 5.98752200 0.95109300
v -2.57709400 5.98752200 0.95109300
v 0.37090400 5.53633300 2.80570000
v 0.37090400 5.53633300 2.80570000
v -0.59715000 5.54910600 3.53613500
v -2.10618400 5.76344600 2.40968600
v -2.10618400 5.76344600 2.40968600
v 0.66871300 5.43329600 3.33530000
v 0.66871300 5.43329600 3.33530000
v -0.37115800 5.43169500 1.44561600
v -0.37115800 5.43169500 1.44561600
v -2.98186000 5.82598300 0.13352600
v -2.98186000 5.82598300 0.13352600
v -2.98186000 5.82598300 0.13352600
v -2.98186000 5.82598300 0.13352600
v -1.60369300 5.29614100 -0.11534300
v -1.60369300 5.29614100 -0.11534300
v -1.03026400 4.93423200 0.07610700
v -1.03026400 4.93423200 0.07610700
v -1.03026400 4.93423200 0.07610700
v -1.37110400 4.93542000 0.68514400
v -1.37110400 4.93542000 0.68514400
v -1.78511000 5.05453600 0.67517400
v -1.78511000 5.05453600 0.67517400
v -1.42225400 4.33824100 0.71250500
v -1.42225400 4.33824100 0.71250500
v -0.98473800 4.82675100 0.70559100
v -0.98473800 4.82675100 0.70559100
v -0.98473800 4.82675100 0.70559100
v 0.80963400 4.79167600 4.40631400
v 0.80963400 4.79167600 4.40631400
v 0.80963400 4.79167600 4.40631400
v 0.71946600 3.56204500 5.41482500
v 0.71946600 3.56204500 5.41482500
v 0.71946600 3.56204500 5.41482500
v -0.72733300 3.01925000 4.38099000
v -1.49367300 0.62734100 4.29169200
v -0.32961100 1.57905500 5.45159100
v -0.32961100 1.57905500 5.45159100
v -0.50548500 -0.91785100 5.47881500
v -0.50548500 -0.91785100 5.47881500
v 0.45448300 1.48270100 6.07074100
v 0.45448300 1.48270100 6.07074100
v 0.70820200 -3.50364600 5.44294700
v 0.70820200 -3.50364600 5.44294700
v 0.70820200 -3.50364600 5.44294700
v 0.82629400 -4.77814800 4.42105500
v 0.82629400 -4.77814800 4.42105500
v 0.82629400 -4.77814800 4.42105500
v 0.57723100 -5.50514900 3.14318900
v 0.57723100 -5.50514900 3.14318900
v -2.56775100 -5.98757900 0.96328700
v -2.56775100 -5.98757900 0.96328700
v -3.27942000 -5.68534000 -0.22503600
v -3.27942000 -5.68534000 -0.22503600
v -3.27942000 -5.68534000 -0.22503600
v -4.12705800 -5.02883500 1.29783100
v -2.10619500 -5.76344600 2.40968600
v -1.54536900 -5.27603500 -0.08647000
v -1.54536900 -5.27603500 -0.08647000
v -1.54536900 -5.27603500 -0.08647000
v -1.54536900 -5.27603500 -0.08647000
v -1.54536900 -5.27603500 -0.08647000
v -2.78882700 -5.75903700 0.04417400
v -2.78882700 -5.75903700 0.04417400
v -2.78882700 -5.75903700 0.04417400
v -1.95109500 -5.21781900 0.51361500
v -1.95109500 -5.21781900 0.51361500
v -1.95109500 -5.21781900 0.51361500
v -0.97557800 -4.91323200 0.12449700
v -0.97557800 -4.91323200 0.12449700
v -0.97557800 -4.91323200 0.12449700
v -5.02044100 -4.32663300 -0.04887100
v -5.02044100 -4.32663300 -0.04887100
v -4.79211600 -3.79412200 2.54035900
v -4.79211600 -3.79412200 2.54035900
v -4.80132200 -2.67565800 3.67975600
v -4.80132200 -2.67565800 3.67975600
v -4.80132200 -2.67565800 3.67975600
v -4.36926400 -1.68374300 4.70082300
v -4.36926400 -1.68374300 4.70082300
v -4.54644000 -4.58151800 -1.34438100
v -4.54644000 -4.58151800 -1.34438100
v -3.66396100 -5.43283100 -0.40941600
v -3.66396100 -5.43283100 -0.40941600
v -3.66396100 -5.43283100 -0.40941600
v -2.09836700 5.06590800 3.66390500
v -2.09836700 5.06590800 3.66390500
v -2.09836700 5.06590800 3.66390500
v -0.82694900 0.67441800 -5.07127500
v -0.82694900 0.67441800 -5.07127500
v -0.82694900 0.67441800 -5.07127500
vn -0.19636098 -0.51886718 0.83199712
vn -0.21930409 -0.73742801 0.63883147
vn 0.11906792 -0.61647566 0.77831908
vn -0.01820261 -0.77752905 0.62858352
vn -0.44007350 -0.33992855 0.83113410
vn -0.42336847 -0.77199117 0.47411894
vn -0.03163059 -0.90476055 0.42474446
vn 0.07172561 -0.47267885 0.87831096
vn -0.48462916 -0.66323581 0.57030943
vn -0.48242289 -0.47126919 0.73835866
vn -0.03909374 -0.29704858 0.95406175
vn -0.08102489 -0.00061475 0.99671189
vn 0.13475694 -0.00097187 0.99087821
vn 0.63139244 -0.01710323 -0.77527483
vn 0.60573942 0.23177355 -0.76115753
vn 0.16885690 -0.18328823 0.96844864
vn -0.32084578 -0.20308853 0.92510164
vn -0.39432962 0.04227060 0.91799638
vn -0.54968481 0.07222095 0.83224440
vn -0.28871515 0.23872545 0.92717513
vn -0.34861304 0.42838396 0.83364029
vn -0.32666043 0.57167185 0.75265148
vn -0.50441980 0.61336540 0.60773641
vn 0.00213689 0.52492784 0.85114405
vn -0.00200340 0.30545126 0.95220561
vn -0.02623258 0.78565156 0.61811283
vn -0.04237249 0.63528506 0.77111443
vn -0.70068614 0.42910694 0.57000540
vn -0.54211500 0.31535750 0.77888444
vn -0.53209170 0.70097062 0.47488800
vn -0.66769435 0.05024789 0.74273778
vn -0.77224275 0.12532499 0.62284411
vn -0.80982784 0.21829390 0.54454260
vn -0.72405802 0.56851421 0.39055292
vn -0.87963702 0.27970301 0.38471411
vn -0.86097986 0.47243430 0.18846623
vn -0.97297816 0.13156958 0.18974443
vn -0.95298009 -0.08241527 0.29161049
vn -0.87837184 -0.28392503 0.38451201
vn -0.85312019 -0.07942292 0.51563353
vn -0.72122311 -0.08000588 0.68806706
vn -0.89883531 -0.39871888 0.18198445
vn -0.76535713 -0.61365049 0.19406582
vn -0.95488090 -0.29692810 0.00601379
vn -0.99578159 0.09079166 -0.01326259
vn -0.91336216 0.25688651 -0.31587796
vn -0.88116018 0.47278926 0.00520092
vn -0.97618132 -0.10140081 -0.19180174
vn -0.90116274 -0.38872789 -0.19182375
vn -0.76996021 -0.59910607 -0.21962057
vn -0.92076054 -0.07642071 -0.38257013
vn -0.86330947 -0.27282655 -0.42457324
vn -0.72268199 -0.26655860 -0.63771252
vn 0.90814780 -0.27037347 -0.31963379
vn -0.76205660 -0.59252260 -0.26112585
vn -0.81389268 -0.42248179 -0.39885817
vn -0.69508834 -0.22494103 -0.68282775
vn 0.72702373 -0.66850195 0.15665771
vn -0.82338297 0.09274698 -0.55985577
vn -0.78633828 0.06398594 -0.61447368
vn -0.65703507 -0.05070122 -0.75215311
vn -0.76834173 -0.44058106 -0.46426212
vn 0.87195309 -0.48753900 -0.04476085
vn -0.70895733 -0.35268752 -0.61072990
vn 0.81959476 -0.46580683 -0.33359919
vn 0.76807576 -0.63946157 -0.03388983
vn 0.56096519 -0.81817921 -0.12609850
vn 0.67718088 -0.71017756 0.19254580
vn -0.61316304 -0.22736090 -0.75653031
vn 0.18078184 -0.47576493 -0.86079362
vn 0.48833181 -0.80099014 0.34633343
vn 0.34026407 -0.89856549 -0.27712888
vn 0.63366473 -0.66689310 -0.39207475
vn 0.46614593 -0.88026872 0.08851531
vn 0.69613457 -0.69095859 0.19486633
vn 0.29073088 -0.93979771 0.17959904
vn 0.86945141 -0.04121233 0.49229645
vn 0.39477266 -0.91380489 -0.09547338
vn 0.92737356 -0.01915077 0.37364626
vn 0.17716514 -0.43850483 -0.88109365
vn 0.31017992 -0.90553983 0.28945818
vn 0.78191843 0.05727925 0.62074363
vn 0.24655897 -0.56105715 -0.79020475
vn 0.12601609 -0.94804426 0.29211644
vn 0.18339793 -0.01872559 -0.98286039
vn 0.76858832 0.01468738 0.63957507
vn -0.63342924 -0.16114232 -0.75683588
vn 0.11702085 -0.30175770 -0.94617568
vn 0.00824231 -0.00291234 -0.99996179
vn -0.60802532 0.00051012 -0.79391747
vn 0.09002217 0.21901902 -0.97155889
vn -0.61090477 0.16557608 -0.77419631
vn 0.67396018 0.71076357 0.20147660
vn -0.77339052 0.19354616 -0.60366132
vn -0.62400943 0.17554081 -0.76144445
vn 0.48998066 0.81831785 0.30045772
vn 0.14765266 0.36934995 -0.91748532
vn -0.55827761 0.26582664 -0.78591495
vn 0.22397021 0.51458769 -0.82766953
vn 0.24528184 0.90852157 0.33826821
vn 0.26796012 0.95354082 0.13768545
vn 0.51727395 0.84997339 0.09986436
vn 0.84181975 0.51073652 -0.17460731
vn 0.68046548 0.73244325 -0.02221738
vn 0.48261185 0.81270751 -0.32648477
vn 0.32938994 0.93306010 -0.14457216
vn 0.93452602 -0.06314701 0.35024787
vn 0.81438700 0.01051667 0.58022686
vn 0.09829389 0.95889613 0.26618888
vn 0.97538204 -0.15082396 0.16087887
vn 0.40418725 0.73833798 -0.53989786
vn 0.98070071 0.00614829 0.19541833
vn 0.99540473 -0.09562390 0.00504856
vn 0.19351452 -0.90211906 -0.38565959
vn 0.38160797 -0.61562677 -0.68947737
vn 0.56421398 -0.67743746 -0.47195453
vn 0.98526103 0.11889355 0.12298386
vn 0.43505034 -0.43426472 -0.78876191
vn 0.94717957 0.31983911 -0.02353323
vn 0.97859174 0.18605165 -0.08799422
vn 0.69158836 -0.54157472 -0.47791459
vn 0.48069938 -0.47114946 -0.73955817
vn 0.60883322 -0.12893273 -0.78275057
vn 0.83703121 -0.12759297 -0.53207028
vn 0.50678375 -0.19788541 -0.83905399
vn 0.37860874 0.03068488 -0.92504803
vn 0.30403228 -0.21322090 -0.92849406
vn 0.83949029 0.54337058 0.00211182
vn 0.92411292 0.37415781 -0.07759668
vn 0.16186659 -0.01861242 -0.98663711
vn -0.46745979 0.85798334 -0.21294586
vn -0.33739958 0.88737543 -0.31420754
vn 0.76478341 0.63724935 -0.09497156
vn 0.80882147 0.57992063 -0.09746736
vn 0.88662009 0.38399000 -0.25779160
vn 0.80975277 0.43818480 -0.39024932
vn 0.65444267 0.64817850 -0.38931920
vn 0.28621335 -0.93026029 -0.22955982
vn 0.58799924 -0.62465706 -0.51386813
vn 0.72352528 0.65600657 -0.21486402
vn 0.89509549 0.25897847 -0.36295209
vn 0.61868393 0.54141710 -0.56929581
vn 0.79943549 0.35955699 -0.48127088
vn 0.64059296 0.31041553 -0.70234099
vn 0.91504689 -0.09301719 -0.39247548
vn 0.82509519 0.16084281 -0.54161566
vn 0.96969315 -0.10852666 -0.21889986
vn 0.90544716 -0.37199338 -0.20441714
vn 0.34075686 0.22111587 -0.91377926
vn 0.81760967 -0.44441035 -0.36607905
vn 0.38067768 0.63435320 -0.67281537
vn 0.95999783 -0.26619975 -0.08684393
vn 0.43960331 0.33521858 -0.83329313
vn 0.49242657 0.66692676 -0.55921800
vn 0.46835766 0.36384003 -0.80514690
vn 0.72267807 0.39146746 -0.56963992
vn 0.73573451 0.10451011 -0.66915795
vn 0.47544497 0.18703438 -0.85963377
vn 0.84254676 0.25327454 -0.47535983
vn 0.37212568 -0.03119760 -0.92765791
vn -0.60583008 0.79369153 0.05498785
vn 0.70243264 -0.08783533 -0.70630966
vn 0.52138239 -0.14568467 -0.84079509
vn 0.78968984 0.03648365 -0.61242053
vn -0.75613253 0.65345674 -0.03546671
vn -0.62210332 0.75895681 0.19228110
vn -0.84862295 0.48642029 -0.20792882
vn 0.87967065 0.38406301 -0.28049090
vn -0.80317693 0.47146599 -0.36417941
vn 0.82347105 0.48245230 -0.29855521
vn 0.63201897 0.69069385 -0.35141716
vn 0.77946755 0.60993846 0.14284755
vn -0.79708426 0.27490650 -0.53766448
vn 0.83235051 0.51786993 -0.19749266
vn -0.48695372 0.84895853 0.20529367
vn 0.24816873 0.94395832 -0.21761197
vn 0.68112565 -0.60663196 -0.40995794
vn 0.08885907 0.99102668 0.09985080
vn -0.01749229 0.91422216 0.40483561
vn -0.03869984 0.97084220 0.23657502
vn -0.45919731 0.81981868 0.34210402
vn 0.12807206 0.93286517 0.33668994
vn 0.60566923 -0.64494231 -0.46606244
vn 0.32038843 0.90568221 -0.27765263
vn 0.74826535 -0.60828317 -0.26474619
vn 0.28875393 0.90192788 -0.32116548
vn 0.39099359 -0.23012331 -0.89116063
vn -0.39054515 -0.85150689 -0.34987211
vn -0.49195090 0.86763009 0.07212730
vn 0.38365610 0.84198852 -0.37929320
vn -0.38728654 -0.86573912 -0.31702510
vn 0.78379987 -0.60026650 -0.15917881
vn 0.57446598 0.64082373 -0.50924826
vn -0.39897675 -0.88979469 -0.22154674
vn -0.31345496 -0.91693792 -0.24692274
vn 0.02308073 -0.04772957 -0.99859359
vn 0.16324890 -0.05115636 -0.98525774
vn -0.31741041 -0.88406699 -0.34303962
vn 0.80645776 -0.55416748 -0.20621417
vn 0.13329319 0.03166408 -0.99057070
vn 0.03901618 -0.04906881 -0.99803306
vn -0.26085187 -0.95456041 -0.14412053
vn 0.76350161 -0.63578751 -0.11331168
vn 0.65029453 -0.56920608 -0.50311178
vn 0.14916103 0.62050344 0.76988731
vn 0.10114311 0.82560162 0.55511444
vn 0.17026754 0.48555867 0.85746238
vn 0.56463185 -0.31287199 -0.76374209
vn 0.62399690 -0.45974851 -0.63186959
vn 0.72845048 -0.39699383 -0.55835096
vn 0.82263414 -0.09293748 -0.56092397
vn 0.60667082 -0.19093908 -0.77168179
vn 0.72732803 -0.21090824 -0.65307859
vn 0.62797803 0.15178953 -0.76328470
vn 0.76515724 0.08868032 -0.63770698
vn 0.18344250 0.17530559 0.96727287
vn 0.59205305 -0.19947676 -0.78082149
vn 0.63557898 0.30813892 -0.70787694
vn 0.60788355 0.53022578 -0.59104840
vn 0.19068072 -0.45900303 0.86773100
vn 0.60604494 0.57713359 -0.54738135
vn 0.11517786 -0.83329286 0.54070053
vn 0.18555022 -0.60416459 0.77495565
vn 0.58874828 0.69411067 -0.41422920
vn 0.17212138 -0.95395743 0.24564091
vn 0.23037694 -0.95066190 -0.20777009
vn -0.48250592 -0.85360361 0.19633876
vn -0.01540951 -0.97119532 -0.23778605
vn -0.56388391 -0.82282166 0.07070678
vn 0.50915724 0.18507705 -0.84053875
vn -0.61968038 -0.75980479 0.19670514
vn -0.20893344 -0.93512240 0.28616938
vn -0.46745979 0.85798334 -0.21294586
vn 0.58799924 -0.62465706 -0.51386813
vn 0.30424539 -0.89955571 -0.31342345
vn -0.33739958 0.88737543 -0.31420754
vn -0.37152507 0.86580503 -0.33518766
vn 0.45145353 0.21278731 -0.86655137
vn -0.37152507 0.86580503 -0.33518766
vn 0.11919500 -0.95643812 -0.26649328
vn -0.37152507 0.86580503 -0.33518766
vn -0.33739958 0.88737543 -0.31420754
vn 0.25077530 0.14852788 -0.95658310
vn 0.58799924 -0.62465706 -0.51386813
vn -0.46745979 0.85798334 -0.21294586
vn 0.72681850 0.68390417 -0.06332414
vn -0.87271268 -0.48823252 -0.00125841
vn -0.72103701 -0.69287504 0.00546043
vn -0.82101787 -0.42300265 0.38340373
vn -0.67510281 -0.63508646 0.37536833
vn -0.64055160 -0.55058962 0.53529872
vn -0.80551027 -0.33197514 0.49086222
vn -0.59919758 -0.43251669 0.67371475
vn -0.61110096 -0.24212359 0.75361249
vn -0.77931241 -0.25140813 0.57399139
vn 0.85410924 -0.02053091 -0.51968825
vn -0.72720176 -0.66749443 -0.16008992
vn 0.56567366 0.09945952 -0.81860926
vn 0.77491439 0.12220764 -0.62013949
vn -0.61174394 -0.78414934 0.10430326
vn -0.39871886 0.75706493 0.51756735
vn -0.22601421 0.68932499 0.68829400
vn -0.21658775 0.81501520 0.53743834
vn 0.03523046 0.91690219 0.39755402
vn 0.22063474 0.50912869 -0.83193046
vn 0.75344620 -0.04809511 0.65574818
vt 0.69962200 0.69250100
vt 0.62283200 0.82485700
vt 0.69556500 0.68301900
vt 0.61481100 0.81866500
vt 0.71139400 0.70356400
vt 0.61743400 0.84082300
vt 0.61111600 0.82713500
vt 0.70284900 0.68434400
vt 0.62554800 0.83894300
vt 0.70034600 0.70562200
vt 0.71190000 0.69007300
vt 0.72629700 0.69273900
vt 0.72632100 0.68124300
vt 0.90478800 0.38162000
vt 0.89494000 0.38168000
vt 0.71646000 0.68119900
vt 0.71677200 0.69817900
vt 0.72810400 0.70115900
vt 0.72931600 0.70866600
vt 0.73835300 0.69598400
vt 0.74537900 0.69902600
vt 0.75214000 0.70194900
vt 0.62189600 0.02799600
vt 0.75030200 0.68509600
vt 0.74176700 0.68917000
vt 0.93139500 0.63399100
vt 0.75703000 0.68538100
vt 0.63156400 0.03602000
vt 0.74339300 0.71291000
vt 0.62774000 0.01985700
vt 0.73003400 0.71499900
vt 0.63840600 0.04738300
vt 0.64055800 0.03999900
vt 0.63541700 0.02293700
vt 0.64563700 0.03445600
vt 0.64694100 0.02342700
vt 0.65789100 0.03557100
vt 0.65902300 0.04447700
vt 0.65992700 0.05118600
vt 0.64944700 0.05017500
vt 0.72229400 0.72042100
vt 0.67173000 0.05115200
vt 0.61873800 0.86433400
vt 0.67496700 0.04242700
vt 0.66509700 0.03126100
vt 0.66978600 0.01471900
vt 0.65392800 0.01747200
vt 0.67612100 0.03069400
vt 0.68497400 0.04028100
vt 0.60438900 0.87369800
vt 0.68122300 0.02391600
vt 0.68957000 0.02531900
vt 0.93546800 0.91669100
vt 0.46090400 0.94699300
vt 0.59488700 0.87393900
vt 0.69157600 0.03563700
vt 0.93681300 0.92459100
vt 0.46099900 0.96406900
vt 0.68215000 0.01300300
vt 0.68781200 0.00954000
vt 0.94868900 0.91728100
vt 0.69332800 0.02683900
vt 0.46081500 0.95600400
vt 0.93139500 0.92261900
vt 0.45351600 0.94941600
vt 0.45292100 0.95950600
vt 0.97876100 0.09207200
vt 0.46083900 0.96855800
vt 0.94035300 0.92733600
vt 0.94035300 0.92733600
vt 0.99102400 0.08919200
vt 0.97423400 0.10195800
vt 0.44386800 0.95551600
vt 0.98462400 0.09530800
vt 0.45109700 0.96555500
vt 0.98848900 0.10429100
vt 0.65092100 0.73836300
vt 0.98134600 0.10402200
vt 0.64934300 0.73230900
vt 0.94944000 0.93548600
vt 0.99616600 0.09823500
vt 0.65501800 0.74437600
vt 0.95365500 0.94309400
vt 0.99827300 0.10658700
vt 0.95750000 0.94332400
vt 0.65267500 0.74784300
vt 0.94389900 0.92702600
vt 0.94389900 0.92702600
vt 0.95087200 0.92351200
vt 0.95087200 0.92351200
vt 0.95831800 0.92222000
vt 0.95831800 0.92222000
vt 0.95607200 0.48883600
vt 0.67990700 0.00000000
vt 0.96118200 0.91650000
vt 0.96147200 0.48582100
vt 0.96061200 0.92129500
vt 0.96061200 0.92129500
vt 0.95954100 0.93219800
vt 0.96572000 0.47575700
vt 0.95791700 0.47401900
vt 0.95363400 0.48093500
vt 0.96396500 0.81755800
vt 0.94741100 0.48552700
vt 0.94287700 0.47504100
vt 0.94925000 0.46962600
vt 0.64289900 0.73378900
vt 0.64807400 0.74382100
vt 0.96256800 0.46878900
vt 0.63441200 0.72767100
vt 0.93903800 0.46928400
vt 0.64273500 0.72530300
vt 0.63371000 0.71923800
vt 0.97023900 0.10658700
vt 0.99723400 0.21435500
vt 0.44144900 0.94995900
vt 0.64912300 0.71982000
vt 0.98912600 0.21240600
vt 0.65214600 0.70891800
vt 0.64498300 0.70846700
vt 0.44581400 0.94347900
vt 0.99331000 0.20643400
vt 0.98524400 0.19786400
vt 0.45443100 0.93608800
vt 0.98356800 0.20534900
vt 0.97690100 0.20566500
vt 0.98302000 0.21247500
vt 0.96814000 0.45832400
vt 0.65501800 0.70342800
vt 0.97128700 0.21435500
vt 0.67872100 0.97180600
vt 0.76295600 0.97180600
vt 0.96337200 0.44995300
vt 0.96062500 0.45815500
vt 0.65362500 0.69597700
vt 0.65317200 0.68393200
vt 0.94804900 0.45171500
vt 0.59883900 0.83376800
vt 0.44101400 0.97180600
vt 0.95702100 0.44611700
vt 0.64040600 0.69314600
vt 0.94121000 0.45832400
vt 0.64055100 0.68099400
vt 0.88406700 0.37403700
vt 0.62396100 0.70081000
vt 0.63054900 0.68748000
vt 0.62851500 0.70991100
vt 0.61671900 0.72425500
vt 0.98081600 0.54302300
vt 0.60792500 0.71022900
vt 0.93139500 0.46774400
vt 0.62380400 0.72438400
vt 0.97450100 0.54352400
vt 0.93301800 0.47752500
vt 0.97023900 0.53551000
vt 0.94775600 0.81050200
vt 0.93745900 0.81561800
vt 0.97958300 0.53013100
vt 0.94777700 0.81759400
vt 0.98667000 0.53382000
vt 0.64170200 0.00199800
vt 0.93139500 0.82280100
vt 0.98837000 0.52677900
vt 0.93970500 0.82201900
vt 0.65032600 0.00415300
vt 0.63609200 0.01111800
vt 0.66004600 0.01121600
vt 0.95361200 0.82178100
vt 0.66427700 0.00494500
vt 0.95568800 0.81468200
vt 0.93926100 0.48396900
vt 0.94734500 0.49136200
vt 0.67304200 0.00323500
vt 0.96262200 0.82280100
vt 0.63193200 0.00195400
vt 0.96099100 0.64344300
vt 0.59408300 0.71736100
vt 0.94346800 0.62861100
vt 0.94062800 0.63590900
vt 0.95070300 0.64310900
vt 0.62473700 0.00831600
vt 0.93948200 0.62768600
vt 0.59270300 0.71390200
vt 0.95333500 0.63009200
vt 0.59973300 0.72506700
vt 0.96675800 0.64388300
vt 0.99290900 0.53003800
vt 0.26613500 0.98544200
vt 0.63734600 0.00000000
vt 0.96534100 0.63404000
vt 0.26410400 0.97620200
vt 0.60758700 0.73156600
vt 0.96275900 0.63024900
vt 0.26518600 0.97226100
vt 0.26929300 0.97440300
vt 0.99240000 0.54231600
vt 0.99187000 0.53950200
vt 0.26933100 0.97718500
vt 0.60946500 0.72601400
vt 0.98870200 0.54380000
vt 0.99290900 0.54493500
vt 0.26933100 0.97180600
vt 0.60619500 0.72754600
vt 0.59291100 0.70559500
vt 0.75823800 0.67872000
vt 0.93187600 0.62768600
vt 0.75001600 0.67936100
vt 0.92853900 0.38334900
vt 0.59695600 0.69581500
vt 0.60488000 0.70032400
vt 0.61978400 0.69334700
vt 0.91534800 0.37640100
vt 0.60941600 0.68944300
vt 0.89875400 0.37526000
vt 0.62392100 0.68136900
vt 0.73616700 0.68116400
vt 0.91464500 0.38165000
vt 0.88159200 0.38334900
vt 0.93139500 0.45140200
vt 0.70306500 0.67951800
vt 0.93656500 0.44606600
vt 0.61090800 0.81609000
vt 0.69464900 0.67872000
vt 0.94448300 0.44356800
vt 0.60458600 0.82216800
vt 0.60422600 0.84754100
vt 0.60422600 0.84754100
vt 0.60047100 0.85593000
vt 0.60047100 0.85593000
vt 0.97203600 0.19830700
vt 0.61221100 0.85494500
vt 0.61050700 0.83961300
vt 0.67872100 0.97856600
vt 0.44101400 0.98267500
vt 0.59488700 0.84593900
vt 0.76746900 0.97508300
vt 0.70694600 0.97809200
vt 0.97023900 0.20109500
vt 0.70694600 0.97180600
vt 0.60008900 0.85222200
vt 0.71082900 0.97673600
vt 0.76295600 0.97675500
vt 0.97122500 0.20764300
vt 0.43812200 0.98094200
vt 0.68075600 0.97519200
vt 0.96689600 0.44823200
vt 0.68241500 0.05007500
vt 0.60840200 0.86496600
vt 0.66685900 0.05836100
vt 0.62192700 0.85406800
vt 0.62858600 0.84996700
vt 0.65662500 0.05817600
vt 0.70872400 0.71606900
vt 0.71525600 0.71321600
vt 0.64679600 0.05714200
vt 0.46099900 0.93660100
vt 0.59944100 0.86719200
vt 0.97462500 0.19664400
vt 0.46056900 0.92826200
vt 0.60098300 0.85875700
vt 0.62121500 0.01693200
vt 0.76013400 0.69801900
vt 0.94213200 0.64416100
vt 0.96743400 0.46774400
vt 0.96118200 0.94030800
vt 0.64798000 0.74801500
f 1/1/1 3/3/3 8/8/8
f 7/7/7 4/4/4 2/2/2
f 11/11/11 5/5/5 1/1/1
f 10/10/10 1/1/1 5/5/5
f 9/9/9 6/6/6 2/2/2
f 2/2/2 6/6/6 7/7/7
f 8/8/8 11/11/11 1/1/1
f 13/13/13 12/12/12 11/11/11
f 11/11/11 12/12/12 17/17/17
f 11/11/11 16/16/16 13/13/13
f 11/11/11 8/8/8 16/16/16
f 17/17/17 5/5/5 11/11/11
f 12/12/12 18/18/18 17/17/17
f 18/18/18 5/5/5 17/17/17
f 21/21/21 19/19/19 18/18/18
f 18/18/18 19/19/19 5/5/5
f 12/12/12 20/20/20 18/18/18
f 21/21/21 18/18/18 20/20/20
f 29/29/29 19/19/19 21/21/21
f 21/21/21 22/22/22 29/29/29
f 21/21/21 27/27/27 22/22/22
f 21/21/21 24/24/24 27/27/27
f 25/25/25 24/24/24 21/21/21
f 25/25/25 21/21/21 20/20/20
f 23/23/23 30/30/30 28/28/28
f 30/30/30 34/34/34 28/28/28
f 33/33/33 32/32/32 28/28/28
f 31/31/31 19/19/19 29/29/29
f 28/28/28 35/35/35 33/33/33
f 28/28/28 34/34/34 35/35/35
f 38/38/38 33/33/33 35/35/35
f 36/36/36 37/37/37 35/35/35
f 36/36/36 35/35/35 34/34/34
f 37/37/37 38/38/38 35/35/35
f 40/40/40 38/38/38 39/39/39
f 38/38/38 42/42/42 39/39/39
f 38/38/38 40/40/40 33/33/33
f 44/44/44 42/42/42 38/38/38
f 45/45/45 44/44/44 38/38/38
f 45/45/45 38/38/38 37/37/37
f 46/46/46 45/45/45 47/47/47
f 45/45/45 46/46/46 48/48/48
f 47/47/47 45/45/45 37/37/37
f 48/48/48 44/44/44 45/45/45
f 44/44/44 48/48/48 49/49/49
f 52/52/52 49/49/49 48/48/48
f 51/51/51 48/48/48 46/46/46
f 52/52/52 48/48/48 51/51/51
f 52/52/52 62/62/62 56/56/56
f 56/56/56 49/49/49 52/52/52
f 52/52/52 51/51/51 59/59/59
f 57/57/57 64/64/64 53/53/53
f 61/61/61 57/57/57 53/53/53
f 59/59/59 60/60/60 52/52/52
f 63/63/63 65/65/65 54/54/54
f 65/65/65 63/63/63 66/66/66
f 66/66/66 63/63/63 58/58/58
f 58/58/58 68/68/68 66/66/66
f 66/66/66 68/68/68 75/75/75
f 65/65/65 66/66/66 73/73/73
f 67/67/67 74/74/74 72/72/72
f 74/74/74 71/71/71 81/81/81
f 74/74/74 81/81/81 76/76/76
f 78/78/78 74/74/74 76/76/76
f 72/72/72 74/74/74 78/78/78
f 81/81/81 84/84/84 76/76/76
f 80/80/80 70/70/70 88/88/88
f 85/85/85 83/83/83 80/80/80
f 80/80/80 88/88/88 85/85/85
f 57/57/57 87/87/87 69/69/69
f 61/61/61 87/87/87 57/57/57
f 90/90/90 87/87/87 61/61/61
f 89/89/89 85/85/85 88/88/88
f 90/90/90 61/61/61 92/92/92
f 91/91/91 85/85/85 89/89/89
f 98/98/98 92/92/92 95/95/95
f 95/95/95 92/92/92 61/61/61
f 85/85/85 91/91/91 97/97/97
f 85/85/85 97/97/97 99/99/99
f 101/101/101 100/100/100 96/96/96
f 102/102/102 101/101/101 96/96/96
f 96/96/96 93/93/93 102/102/102
f 104/104/104 105/105/105 102/102/102
f 104/104/104 102/102/102 93/93/93
f 105/105/105 106/106/106 102/102/102
f 106/106/106 101/101/101 102/102/102
f 107/107/107 79/79/79 108/108/108
f 109/109/109 101/101/101 106/106/106
f 105/105/105 111/111/111 106/106/106
f 107/107/107 110/110/110 112/112/112
f 112/112/112 79/79/79 107/107/107
f 113/113/113 112/112/112 110/110/110
f 112/112/112 113/113/113 117/117/117
f 112/112/112 117/117/117 79/79/79
f 115/115/115 118/118/118 122/122/122
f 119/119/119 117/117/117 120/120/120
f 113/113/113 120/120/120 117/117/117
f 73/73/73 116/116/116 121/121/121
f 72/72/72 78/78/78 114/114/114
f 121/121/121 65/65/65 73/73/73
f 124/124/124 65/65/65 121/121/121
f 123/123/123 122/122/122 125/125/125
f 122/122/122 118/118/118 125/125/125
f 118/118/118 127/127/127 125/125/125
f 123/123/123 125/125/125 126/126/126
f 125/125/125 127/127/127 126/126/126
f 134/134/134 133/133/133 128/128/128
f 127/127/127 130/130/130 126/126/126
f 135/135/135 129/129/129 119/119/119
f 140/140/140 134/134/134 137/137/137
f 135/135/135 141/141/141 136/136/136
f 120/120/120 135/135/135 119/119/119
f 135/135/135 120/120/120 141/141/141
f 134/134/134 140/140/140 133/133/133
f 136/136/136 141/141/141 143/143/143
f 141/141/141 146/146/146 143/143/143
f 141/141/141 120/120/120 147/147/147
f 141/141/141 147/147/147 145/145/145
f 145/145/145 146/146/146 141/141/141
f 147/147/147 150/150/150 145/145/145
f 147/147/147 113/113/113 152/152/152
f 120/120/120 113/113/113 147/147/147
f 148/148/148 147/147/147 152/152/152
f 147/147/147 148/148/148 150/150/150
f 151/151/151 111/111/111 154/154/154
f 158/158/158 153/153/153 155/155/155
f 158/158/158 149/149/149 153/153/153
f 113/113/113 110/110/110 152/152/152
f 160/160/160 149/149/149 158/158/158
f 157/157/157 159/159/159 164/164/164
f 156/156/156 159/159/159 157/157/157
f 160/160/160 158/158/158 163/163/163
f 157/157/157 164/164/164 162/162/162
f 165/165/165 167/167/167 47/47/47
f 36/36/36 165/165/165 47/47/47
f 36/36/36 166/166/166 165/165/165
f 166/166/166 161/161/161 165/165/165
f 167/167/167 165/165/165 169/169/169
f 164/164/164 159/159/159 168/168/168
f 168/168/168 170/170/170 103/103/103
f 170/170/170 168/168/168 159/159/159
f 174/174/174 168/168/168 103/103/103
f 46/46/46 169/169/169 173/173/173
f 46/46/46 167/167/167 169/169/169
f 173/173/173 59/59/59 46/46/46
f 173/173/173 60/60/60 59/59/59
f 173/173/173 94/94/94 60/60/60
f 172/172/172 104/104/104 93/93/93
f 171/171/171 105/105/105 104/104/104
f 154/154/154 105/105/105 171/171/171
f 156/156/156 170/170/170 159/159/159
f 46/46/46 47/47/47 167/167/167
f 175/175/175 166/166/166 30/30/30
f 30/30/30 166/166/166 34/34/34
f 34/34/34 166/166/166 36/36/36
f 166/166/166 175/175/175 161/161/161
f 176/176/176 182/182/182 178/178/178
f 176/176/176 178/178/178 184/184/184
f 180/180/180 179/179/179 176/176/176
f 179/179/179 182/182/182 176/176/176
f 161/161/161 175/175/175 189/189/189
f 175/175/175 30/30/30 181/181/181
f 176/176/176 184/184/184 190/190/190
f 190/190/190 186/186/186 176/176/176
f 184/184/184 193/193/193 190/190/190
f 195/195/195 191/191/191 194/194/194
f 195/195/195 198/198/198 191/191/191
f 198/198/198 188/188/188 191/191/191
f 160/160/160 187/187/187 197/197/197
f 200/200/200 197/197/197 196/196/196
f 200/200/200 160/160/160 197/197/197
f 185/185/185 199/199/199 203/203/203
f 150/150/150 199/199/199 185/185/185
f 148/148/148 199/199/199 150/150/150
f 149/149/149 160/160/160 200/200/200
f 201/201/201 200/200/200 196/196/196
f 203/203/203 192/192/192 185/185/185
f 194/194/194 202/202/202 195/195/195
f 163/163/163 187/187/187 160/160/160
f 150/150/150 185/185/185 177/177/177
f 179/179/179 206/206/206 182/182/182
f 204/204/204 177/177/177 183/183/183
f 207/207/207 205/205/205 27/27/27
f 26/26/26 206/206/206 179/179/179
f 210/210/210 204/204/204 209/209/209
f 150/150/150 177/177/177 204/204/204
f 150/150/150 204/204/204 210/210/210
f 213/213/213 211/211/211 210/210/210
f 145/145/145 210/210/210 211/211/211
f 145/145/145 150/150/150 210/210/210
f 210/210/210 209/209/209 213/213/213
f 214/214/214 212/212/212 14/14/14
f 215/215/215 211/211/211 213/213/213
f 208/208/208 217/217/217 212/212/212
f 212/212/212 217/217/217 14/14/14
f 216/216/216 207/207/207 25/25/25
f 216/216/216 25/25/25 13/13/13
f 218/218/218 144/144/144 214/214/214
f 214/214/214 15/15/15 218/218/218
f 215/215/215 143/143/143 146/146/146
f 146/146/146 211/211/211 215/215/215
f 14/14/14 15/15/15 214/214/214
f 8/8/8 220/220/220 16/16/16
f 219/219/219 221/221/221 142/142/142
f 220/220/220 8/8/8 3/3/3
f 3/3/3 223/223/223 220/220/220
f 137/137/137 221/221/221 224/224/224
f 7/7/7 225/225/225 222/222/222
f 4/4/4 7/7/7 222/222/222
f 137/137/137 142/142/142 221/221/221
f 224/224/224 140/140/140 137/137/137
f 226/226/226 138/138/138 225/225/225
f 7/7/7 226/226/226 225/225/225
f 231/231/231 229/229/229 227/227/227
f 240/240/240 226/226/226 228/228/228
f 6/6/6 231/231/231 227/227/227
f 235/235/235 138/138/138 226/226/226
f 7/7/7 232/232/232 226/226/226
f 6/6/6 227/227/227 232/232/232
f 240/240/240 235/235/235 226/226/226
f 237/237/237 239/239/239 241/241/241
f 243/243/243 238/238/238 126/126/126
f 126/126/126 238/238/238 230/230/230
f 242/242/242 132/132/132 236/236/236
f 126/126/126 130/130/130 243/243/243
f 233/233/233 131/131/131 245/245/245
f 234/234/234 244/244/244 139/139/139
f 140/140/140 246/246/246 133/133/133
f 6/6/6 232/232/232 7/7/7
f 250/250/250 43/43/43 231/231/231
f 248/248/248 231/231/231 43/43/43
f 248/248/248 229/229/229 231/231/231
f 231/231/231 6/6/6 250/250/250
f 9/9/9 250/250/250 6/6/6
f 249/249/249 252/252/252 39/39/39
f 251/251/251 250/250/250 9/9/9
f 42/42/42 249/249/249 39/39/39
f 40/40/40 252/252/252 255/255/255
f 253/253/253 10/10/10 254/254/254
f 40/40/40 39/39/39 252/252/252
f 5/5/5 254/254/254 10/10/10
f 254/254/254 5/5/5 19/19/19
f 254/254/254 19/19/19 31/31/31
f 41/41/41 254/254/254 31/31/31
f 248/248/248 50/50/50 257/257/257
f 49/49/49 247/247/247 44/44/44
f 229/229/229 248/248/248 260/260/260
f 44/44/44 247/247/247 42/42/42
f 260/260/260 248/248/248 257/257/257
f 256/256/256 124/124/124 259/259/259
f 258/258/258 126/126/126 230/230/230
f 123/123/123 126/126/126 258/258/258
f 124/124/124 256/256/256 54/54/54
f 50/50/50 55/55/55 257/257/257
f 145/145/145 211/211/211 146/146/146
f 24/24/24 25/25/25 207/207/207
f 24/24/24 207/207/207 27/27/27
f 261/261/261 181/181/181 30/30/30
f 180/180/180 263/263/263 179/179/179
f 26/26/26 179/179/179 263/263/263
f 27/27/27 262/262/262 22/22/22
f 23/23/23 261/261/261 30/30/30
f 111/111/111 105/105/105 154/154/154
f 124/124/124 54/54/54 65/65/65
f 109/109/109 264/264/264 100/100/100
f 101/101/101 109/109/109 100/100/100
f 108/108/108 86/86/86 266/266/266
f 86/86/86 108/108/108 82/82/82
f 108/108/108 79/79/79 77/77/77
f 108/108/108 77/77/77 82/82/82
f 99/99/99 265/265/265 85/85/85
f 59/59/59 51/51/51 46/46/46
f 47/47/47 37/37/37 36/36/36
f 33/33/33 40/40/40 32/32/32
f 12/12/12 25/25/25 20/20/20
f 25/25/25 12/12/12 13/13/13

