# ('FARMS composite mesh',)
mtllib link_leg_1_L_0_composite.mtl

o link_leg_1_L_0
usemtl link_leg_1_L_0_composite
v -0.24712600 -3.12751800 3.21383600
v 0.02818500 -3.05412100 3.12553700
v -0.43072000 -2.37280500 2.96231200
v -0.43072000 -2.37280500 2.96231200
v -0.71081500 -4.45970400 3.30917100
v 0.27638100 -3.95646300 3.30793800
v 0.96718600 -2.69273600 2.85520100
v -0.12398500 -5.12043800 3.56305300
v 0.92076300 -5.36501000 3.12517600
v 0.92076300 -5.36501000 3.12517600
v 0.71796000 -5.78476400 3.36521800
v 0.31674500 -6.67124500 3.50455100
v 0.99397800 -5.89045000 3.12515000
v 0.99397800 -5.89045000 3.12515000
v 0.64884700 -7.36046900 3.31821000
v 0.51338200 -8.65932400 2.72446900
v 1.71862900 -8.11435600 2.51061400
v 1.71862900 -8.11435600 2.51061400
v 1.71862900 -8.11435600 2.51061400
v -0.13055200 -7.22893400 3.38151200
v -0.57106200 -6.28825100 3.39764900
v -0.73371900 -8.45347900 2.71825600
v -0.91827100 -7.28192200 2.93238900
v -0.91827100 -7.28192200 2.93238900
v -0.37851400 -9.15987700 2.39303500
v -0.37851400 -9.15987700 2.39303500
v -1.48827600 -9.06253300 1.86324200
v -1.48827600 -9.06253300 1.86324200
v -1.48827600 -9.06253300 1.86324200
v -1.44219700 -7.97709800 2.19111100
v -1.44219700 -7.97709800 2.19111100
v -1.80602200 -8.53261900 1.49830200
v -1.82499600 -6.30384700 1.99007700
v -1.73895400 -7.76792400 1.64722300
v -1.92209500 -7.11169300 0.60794900
v -1.75825800 -5.44505900 -0.10067900
v -1.92831500 -9.11860600 0.69131500
v -1.92831500 -9.11860600 0.69131500
v -1.92831500 -9.11860600 0.69131500
v -1.95715200 -6.18461300 1.21824000
v -1.97052400 -5.14396300 0.88830600
v -1.86498700 -4.63399000 1.89529400
v -1.86602600 -3.13669700 0.98152800
v -1.69099300 -3.32534900 -0.68373000
v -1.65272300 -4.56898400 -0.35831800
v -1.86895900 -3.30037600 0.45801100
v -2.12390800 -2.57186600 0.52886800
v -2.12390800 -2.57186600 0.52886800
v -2.40630600 -2.40249500 0.58256600
v -2.40630600 -2.40249500 0.58256600
v -1.70243200 -3.28677100 1.67790300
v -2.09258300 -2.34526500 1.43744500
v -2.09258300 -2.34526500 1.43744500
v -2.06763200 -2.37831500 -0.30294700
v -2.06763200 -2.37831500 -0.30294700
v -1.88407300 -2.44356400 1.44894700
v -1.88407300 -2.44356400 1.44894700
v -1.32912600 -3.25589800 2.47184200
v -1.32912600 -3.25589800 2.47184200
v -1.40868200 -2.02955500 2.22393500
v -1.40868200 -2.02955500 2.22393500
v -1.40868200 -2.02955500 2.22393500
v -0.95961400 -1.79473900 2.66989600
v -0.95961400 -1.79473900 2.66989600
v -0.95961400 -1.79473900 2.66989600
v -0.03831400 -1.35970500 3.05963400
v -0.20381800 -1.13924800 3.17504200
v -0.20381800 -1.13924800 3.17504200
v -1.19250500 -1.54472000 2.84487200
v -1.19250500 -1.54472000 2.84487200
v -1.19250500 -1.54472000 2.84487200
v 0.49131100 -0.82202900 3.27829600
v 0.49131100 -0.82202900 3.27829600
v 0.49131100 -0.82202900 3.27829600
v 0.05721400 -0.74186300 4.20612800
v 0.05721400 -0.74186300 4.20612800
v 0.47079900 -0.68612700 4.12029000
v 0.47079900 -0.68612700 4.12029000
v 0.25964400 0.09362800 4.22491600
v -0.86543200 -0.35239800 4.09623900
v -1.19060500 -1.22068000 3.90009200
v -1.19060500 -1.22068000 3.90009200
v -1.99815900 -1.53617900 3.38970700
v -1.99815900 -1.53617900 3.38970700
v -1.83755300 -1.61274600 3.19697600
v -1.77063900 -0.51801700 3.72928500
v -2.60366900 -1.09868700 3.07099700
v -2.60366900 -1.09868700 3.07099700
v -2.61035200 0.32981700 3.06897500
v -2.61035200 0.32981700 3.06897500
v -1.73818500 0.65502500 3.62390500
v -2.32534700 1.57431200 2.74527200
v -2.32534700 1.57431200 2.74527200
v -1.17173600 1.66725900 3.44461800
v -0.35219200 0.91180400 4.02040100
v 1.22014200 1.00006300 3.91868800
v -0.36350300 2.12813100 3.39296100
v 0.51327000 1.96816800 3.55813900
v 0.85065200 2.90253100 2.65970300
v 0.85065200 2.90253100 2.65970300
v 1.81253800 2.06012000 3.13933500
v 1.81253800 2.06012000 3.13933500
v 2.53814600 0.89793800 3.37765500
v 2.66330800 1.55878700 2.91999900
v 2.66330800 1.55878700 2.91999900
v 1.84683600 2.89281200 2.20412700
v 3.06412200 2.17241000 1.99040300
v 2.81044600 2.75825400 1.31524700
v 4.00644500 1.33137300 1.13063500
v 4.00644500 1.33137300 1.13063500
v 3.52773700 1.00333800 2.34699000
v 3.52773700 1.00333800 2.34699000
v 3.52773700 1.00333800 2.34699000
v 3.53513300 2.22636800 0.73176000
v 3.53513300 2.22636800 0.73176000
v 3.91369900 1.79336000 -0.24476900
v 3.91369900 1.79336000 -0.24476900
v 3.03534100 2.86953400 0.12897700
v 2.17314000 3.42007600 0.10713200
v 2.34277600 3.19473500 -0.99285300
v 3.37244500 2.31106700 -1.16718000
v 3.37244500 2.31106700 -1.16718000
v 3.04750200 2.00665700 -2.15059900
v 3.04750200 2.00665700 -2.15059900
v 3.04750200 2.00665700 -2.15059900
v 3.69175100 1.60522000 -1.53598500
v 3.69175100 1.60522000 -1.53598500
v 2.07983200 2.82848800 -2.13618900
v 2.07983200 2.82848800 -2.13618900
v 0.80476600 3.18395900 -2.23324000
v 0.80476600 3.18395900 -2.23324000
v 1.46907400 3.46562100 -1.33529700
v 0.60471000 3.65321100 -1.29589700
v 0.95959300 3.81283900 -0.40438300
v 1.07731700 3.76391500 0.61456000
v 0.12363600 3.82514400 0.56798900
v -0.38332000 3.81014200 -0.31393500
v -0.97561700 3.60055800 0.88925300
v -0.97561700 3.60055800 0.88925300
v -1.49840300 3.48228900 0.16034400
v -1.49840300 3.48228900 0.16034400
v -0.35376100 3.58939100 -1.42799500
v -0.69373300 3.07714100 -2.27179300
v -0.69373300 3.07714100 -2.27179300
v -0.69373300 3.07714100 -2.27179300
v -1.63245900 3.33264800 -0.82608100
v -1.63245900 3.33264800 -0.82608100
v -1.19164400 3.26570900 -1.60121900
v -1.19164400 3.26570900 -1.60121900
v -2.27025600 2.69884400 -1.48533100
v -3.17029600 1.91009000 -1.11396300
v -2.77473200 1.50961900 -2.31517600
v -2.77473200 1.50961900 -2.31517600
v -2.52540100 2.85120000 0.23250400
v -1.69684400 2.57245200 -2.30174300
v -1.69684400 2.57245200 -2.30174300
v -2.64902600 2.36422100 1.42520900
v -3.35171100 1.85971100 0.38421200
v -1.75465600 3.03410900 1.52169200
v -1.75465600 3.03410900 1.52169200
v -1.86142400 2.30023200 2.54916400
v -1.86142400 2.30023200 2.54916400
v -0.98568000 2.99497200 2.27662100
v -0.98568000 2.99497200 2.27662100
v -0.98568000 2.99497200 2.27662100
v 0.07726700 3.53573400 1.65529700
v -0.11173000 3.05762800 2.46996000
v -0.11173000 3.05762800 2.46996000
v 1.15521300 3.51810300 1.42292000
v 2.01168500 3.25924000 1.33020200
v -3.12094200 1.23814000 2.04757300
v -3.54347200 1.05415100 1.22068100
v -3.80066600 0.82745500 0.41958500
v -3.95610000 -0.68696800 0.49650900
v -3.76054800 0.86197100 -0.53130500
v -3.93268800 -0.01388000 -0.56090300
v -3.81844000 -1.07312800 -1.01477100
v -3.58843900 -0.05831000 -1.76270700
v -3.44994000 0.77271800 -1.72400800
v -3.45219000 -0.60321300 -2.00411800
v -3.45219000 -0.60321300 -2.00411800
v -3.26137200 -0.19904700 -2.32026900
v -3.26137200 -0.19904700 -2.32026900
v -3.13093000 0.21052000 -2.44369900
v -3.13093000 0.21052000 -2.44369900
v -2.85918400 -0.76368900 -2.19048800
v -1.53506900 -0.24527200 -2.28472800
v -1.53506900 -0.24527200 -2.28472800
v -3.43990800 -1.09103600 -1.92428000
v -3.43990800 -1.09103600 -1.92428000
v -3.43990800 -1.09103600 -1.92428000
v -3.20369800 -1.71514200 -1.45339200
v -3.20369800 -1.71514200 -1.45339200
v -3.20369800 -1.71514200 -1.45339200
v -2.25314900 -2.28873700 -0.19926500
v -2.25314900 -2.28873700 -0.19926500
v -2.94111000 -2.29785000 -0.11634900
v -2.94111000 -2.29785000 -0.11634900
v -2.94111000 -2.29785000 -0.11634900
v -3.40776100 -1.90565500 -1.41344800
v -3.40776100 -1.90565500 -1.41344800
v -3.40776100 -1.90565500 -1.41344800
v -2.18307500 -1.52051000 -1.31854200
v -2.18307500 -1.52051000 -1.31854200
v -2.18307500 -1.52051000 -1.31854200
v -2.18307500 -1.52051000 -1.31854200
v -3.42445000 -2.31687600 -0.76768200
v -3.42445000 -2.31687600 -0.76768200
v -3.30767500 -2.64084300 -0.13836100
v -3.30767500 -2.64084300 -0.13836100
v -3.77298100 -1.65968200 -0.35366500
v -3.77771300 -1.27908000 1.03021700
v -3.55862500 -2.10823100 0.62798500
v -3.06716200 -2.58137800 1.46869600
v -3.06716200 -2.58137800 1.46869600
v -3.19295100 -2.68546200 0.73447400
v -3.19295100 -2.68546200 0.73447400
v -3.19295100 -2.68546200 0.73447400
v -2.65312500 -2.43721400 1.06032900
v -2.88752700 -2.39957100 1.94116100
v -2.88752700 -2.39957100 1.94116100
v -2.08831700 -1.79170100 3.00653100
v -2.08831700 -1.79170100 3.00653100
v -2.57762200 -2.09126300 2.63287600
v -2.57762200 -2.09126300 2.63287600
v -2.57762200 -2.09126300 2.63287600
v -3.24821300 -1.61451800 2.05029000
v -3.24821300 -1.61451800 2.05029000
v -3.22939700 -0.53607000 2.43239700
v -3.22939700 -0.53607000 2.43239700
v -3.66353700 -0.03568900 1.59925100
v -1.94578800 -1.63494900 -1.40061100
v -1.94578800 -1.63494900 -1.40061100
v -1.94578800 -1.63494900 -1.40061100
v -1.98800500 -1.11258300 -1.64083300
v -1.98800500 -1.11258300 -1.64083300
v -1.98800500 -1.11258300 -1.64083300
v -1.94720900 -0.69587300 -2.00752200
v -1.94720900 -0.69587300 -2.00752200
v -1.66597000 -0.90855100 -2.07440700
v -1.66597000 -0.90855100 -2.07440700
v -1.10889200 -2.08506000 -2.20085100
v -1.10889200 -2.08506000 -2.20085100
v -1.30109900 -2.38000300 -2.00785900
v -1.30109900 -2.38000300 -2.00785900
v -1.12147000 -3.28527300 -1.97692200
v -1.12147000 -3.28527300 -1.97692200
v -0.96973500 -4.71457100 -1.89762100
v -0.96973500 -4.71457100 -1.89762100
v -0.30120200 -7.72466600 -1.71392800
v -0.30120200 -7.72466600 -1.71392800
v -1.17346400 -5.79247900 -1.07074700
v -1.17346400 -5.79247900 -1.07074700
v -0.69998400 -7.88890600 -1.04621100
v -0.69998400 -7.88890600 -1.04621100
v -1.35958500 -4.93881100 -1.04677100
v -1.53540600 -7.76883600 -0.26173400
v -1.53540600 -7.76883600 -0.26173400
v -1.63568300 -9.34168100 -0.01866700
v -1.63568300 -9.34168100 -0.01866700
v -1.63568300 -9.34168100 -0.01866700
v -0.42364200 -8.85249200 -1.30820200
v -0.42364200 -8.85249200 -1.30820200
v -0.42364200 -8.85249200 -1.30820200
v -1.05171700 -9.38054400 -0.66925600
v -1.05171700 -9.38054400 -0.66925600
v -1.05171700 -9.38054400 -0.66925600
v -0.02683800 -9.89821500 -0.57583800
v -0.02683800 -9.89821500 -0.57583800
v 0.40830600 -9.33206700 -1.06778600
v 0.40830600 -9.33206700 -1.06778600
v -0.18535000 -7.95509200 -1.85511500
v -0.18535000 -7.95509200 -1.85511500
v -0.18535000 -7.95509200 -1.85511500
v 1.06343300 -7.73806300 -1.79648700
v -0.05978000 -7.67967900 -1.84092600
v -0.05978000 -7.67967900 -1.84092600
v -0.62826600 -5.14837100 -2.00634100
v -0.62826600 -5.14837100 -2.00634100
v 2.27743700 -6.33003300 -1.78119100
v 2.27743700 -6.33003300 -1.78119100
v 2.27743700 -6.33003300 -1.78119100
v 1.26815400 -9.06019500 -0.93740300
v 1.26815400 -9.06019500 -0.93740300
v 1.26815400 -9.06019500 -0.93740300
v 0.67331500 -10.10283900 -0.10517200
v 1.39142600 -9.78411400 0.12162800
v 1.39142600 -9.78411400 0.12162800
v 2.17907000 -7.41955900 -1.30380300
v 2.17907000 -7.41955900 -1.30380300
v 2.17907000 -7.41955900 -1.30380300
v 2.12745600 -8.45028400 -0.57375800
v 2.12745600 -8.45028400 -0.57375800
v 1.97690600 -7.59231100 1.26988100
v 2.23750400 -8.88901000 0.39705100
v 2.23750400 -8.88901000 0.39705100
v 2.21292400 -7.37397700 -0.38719500
v 1.98859700 -6.54332400 1.11149800
v 3.09020600 -3.99996800 -0.89077600
v 3.57465500 -2.40522600 -0.51202500
v 2.83191700 -3.32849700 0.34263400
v 2.93741800 -4.64537700 -1.41078100
v 3.64475900 -2.00916100 -1.73943300
v 3.64475900 -2.00916100 -1.73943300
v 3.27360300 -3.10514100 -1.80226400
v 3.27360300 -3.10514100 -1.80226400
v 2.69673100 -4.74518400 -1.76720700
v 2.69673100 -4.74518400 -1.76720700
v 2.69673100 -4.74518400 -1.76720700
v 3.46734000 -1.61245300 -1.96098600
v 3.46734000 -1.61245300 -1.96098600
v 2.97050900 -3.34511000 -1.93347300
v 4.06673500 -1.30900000 -1.63057200
v 4.06673500 -1.30900000 -1.63057200
v 4.06673500 -1.30900000 -1.63057200
v 4.06673500 -1.30900000 -1.63057200
v 3.98879400 -1.00835400 -1.95394700
v 3.98879400 -1.00835400 -1.95394700
v 3.98879400 -1.00835400 -1.95394700
v 1.33664100 -2.34738800 -2.08388000
v 4.26108000 -0.60075300 -1.42532900
v 3.84332300 0.51051700 -2.11895900
v 3.84332300 0.51051700 -2.11895900
v 4.27334800 0.67973200 -1.04880900
v 4.51636400 -0.53229900 -0.39936800
v 4.35821600 0.77170600 0.11730500
v 4.36720000 0.13716900 1.07905000
v 4.40708900 -1.13454000 0.48441400
v 4.40708900 -1.13454000 0.48441400
v 4.40708900 -1.13454000 0.48441400
v 4.06899400 0.01961200 1.87429600
v 4.14159600 -0.92066700 1.56010200
v 4.14159600 -0.92066700 1.56010200
v 3.81642000 -0.90282000 1.57120200
v 3.81642000 -0.90282000 1.57120200
v 3.93984900 -0.82768600 2.05428800
v 3.93984900 -0.82768600 2.05428800
v 3.17370400 -0.79246100 3.05567200
v 3.17370400 -0.79246100 3.05567200
v 3.17370400 -0.79246100 3.05567200
v 2.85657400 -0.82791100 3.30430900
v 2.85657400 -0.82791100 3.30430900
v 3.17395800 -0.02598500 3.10486100
v 3.17395800 -0.02598500 3.10486100
v 2.56366700 -0.73510300 2.91319300
v 2.56366700 -0.73510300 2.91319300
v 2.56366700 -0.73510300 2.91319300
v 3.19798900 -0.76766200 1.99848700
v 3.19798900 -0.76766200 1.99848700
v 1.90942300 -0.56077800 3.05576100
v 1.90942300 -0.56077800 3.05576100
v 2.20819800 -1.09169600 2.42049100
v 2.20819800 -1.09169600 2.42049100
v 2.20819800 -1.09169600 2.42049100
v 2.20819800 -1.09169600 2.42049100
v 0.75169000 -1.10860800 3.04475600
v 2.23390700 -2.00861000 1.90646900
v 2.23390700 -2.00861000 1.90646900
v 1.81304200 -0.83540700 2.75194500
v 1.81304200 -0.83540700 2.75194500
v 3.16391600 -1.95718200 0.68998400
v 3.16391600 -1.95718200 0.68998400
v 3.16391600 -1.95718200 0.68998400
v 1.70096600 -1.88606500 2.48933400
v 2.88949100 -0.96628700 1.86621700
v 2.88949100 -0.96628700 1.86621700
v 3.38920000 -1.25638200 1.22784000
v 3.38920000 -1.25638200 1.22784000
v 3.80479000 -1.67876600 0.06866700
v 3.80479000 -1.67876600 0.06866700
v 3.99042700 -1.69544000 -0.77224300
v 3.99042700 -1.69544000 -0.77224300
v 4.34463100 -1.37737100 -0.57741900
v 4.34463100 -1.37737100 -0.57741900
v 4.34463100 -1.37737100 -0.57741900
v 1.45373500 -3.16353800 2.53584300
v 1.45373500 -3.16353800 2.53584300
v 1.88143700 -4.03660800 2.04134300
v 1.88143700 -4.03660800 2.04134300
v 1.71381800 -5.74730500 1.99802700
v 0.37928400 -2.34349500 3.02091100
v 2.38679600 -0.67897600 3.64630000
v 2.38679600 -0.67897600 3.64630000
v 0.96129600 -0.65264900 4.18723200
v 0.96129600 -0.65264900 4.18723200
v 1.18071700 -0.62451700 3.31805200
v 1.18071700 -0.62451700 3.31805200
v 1.72921000 -0.03623200 3.98661900
v 2.00191900 -0.71575900 3.82389500
v 2.00191900 -0.71575900 3.82389500
v 2.22772600 -8.58417200 1.49163400
v 2.22772600 -8.58417200 1.49163400
v 1.55974900 -9.68269600 0.93096600
v 1.55974900 -9.68269600 0.93096600
v 0.57109500 -10.33375800 0.59265000
v 0.74561300 -10.06059200 1.39659400
v 1.35224000 -9.33821000 1.87097100
v 1.35224000 -9.33821000 1.87097100
v 1.35224000 -9.33821000 1.87097100
v 2.02523100 -8.15361500 2.18458800
v 2.02523100 -8.15361500 2.18458800
v 2.02523100 -8.15361500 2.18458800
v 2.02523100 -8.15361500 2.18458800
v 0.31481900 -9.53382000 2.13948300
v 0.31481900 -9.53382000 2.13948300
v -0.03003900 -10.07476500 1.58962900
v -0.03003900 -10.07476500 1.58962900
v 0.19294400 -10.38161400 0.92946900
v -0.85224000 -9.84155600 1.58449400
v -0.85224000 -9.84155600 1.58449400
v -0.47557700 -10.31366100 0.96990500
v -0.88810900 -10.07287700 0.08854000
v -1.19378900 -9.95657800 0.82298000
v -0.07778000 -10.36329900 0.23852700
v -0.49506600 -10.04095000 -0.24710300
v -0.49506600 -10.04095000 -0.24710300
v -1.82388600 -9.06993600 1.25369800
v -1.82388600 -9.06993600 1.25369800
v 1.52023000 -7.28045200 2.36451300
v 1.52023000 -7.28045200 2.36451300
v 1.16827000 -7.19930400 2.90858600
v 1.16827000 -7.19930400 2.90858600
v -1.07939100 -3.81474900 2.93609000
v -1.07939100 -3.81474900 2.93609000
v -1.60365500 -4.71052200 2.54122500
v -1.60365500 -4.71052200 2.54122500
v -0.90520200 -5.49538300 3.27576400
v -1.41625000 -5.84255500 2.72283400
v -1.41625000 -5.84255500 2.72283400
vn -0.09928902 0.24160608 0.96528140
vn 0.16783813 0.23345618 0.95777272
vn -0.31521586 0.08444127 0.94525586
vn -0.65919248 0.28388054 0.69633118
vn -0.41529290 0.13731312 0.89926465
vn 0.21222764 0.14211689 0.96683102
vn 0.40968263 0.01098232 0.91216201
vn -0.03545300 0.07975546 0.99618379
vn 0.80943147 0.01617922 0.58699142
vn 0.58840294 0.13400453 0.79738621
vn 0.48983146 0.04912784 0.87043185
vn 0.13320350 -0.08871820 0.98710988
vn 0.65427099 0.00279326 0.75625503
vn 0.85775806 0.05460935 0.51114472
vn 0.32235961 -0.23806220 0.91619358
vn 0.15570522 -0.49518504 0.85472081
vn 0.82416834 0.28211973 0.49107535
vn 0.45597807 -0.48820650 0.74413602
vn 0.70086708 0.23302250 0.67415566
vn -0.20319376 -0.27448520 0.93987774
vn -0.41773523 -0.11652507 0.90106558
vn -0.39667956 -0.38060390 0.83533586
vn -0.77828012 -0.12956623 0.61440430
vn -0.55301822 -0.21168135 0.80582992
vn -0.19469180 -0.55564991 0.80829962
vn -0.19961032 -0.68839111 0.69733306
vn -0.49512905 -0.45214848 0.74189553
vn -0.65191013 -0.66357169 0.36699562
vn -0.84576835 -0.15568388 0.51033168
vn -0.84557111 -0.09858095 0.52468208
vn -0.67089552 -0.21115997 0.71085207
vn -0.93356827 -0.06271340 0.35287011
vn -0.92460345 -0.09152329 0.36977284
vn -0.94752910 -0.05138738 0.31551220
vn -0.99368472 -0.03093674 -0.10785913
vn -0.94465280 -0.02591105 -0.32704693
vn -0.92588300 -0.01281541 -0.37759295
vn -0.98723242 -0.01263718 0.15878427
vn -0.75527839 -0.65270569 0.05941231
vn -0.99887647 -0.03104773 0.03580260
vn -0.99778269 -0.00309735 -0.06648394
vn -0.96268948 0.07590133 0.25974595
vn -0.98052812 -0.15222242 0.12406826
vn -0.93436556 -0.19349414 -0.29920063
vn -0.94214514 -0.05824935 -0.33010536
vn -0.98889297 -0.13398098 -0.06434113
vn -0.51107245 -0.85952462 -0.00473134
vn -0.95731817 -0.28802424 0.02416504
vn 0.00184523 -0.99615544 -0.08758384
vn -0.51223633 -0.85871928 0.01466773
vn -0.93784068 0.03448893 0.34534818
vn 0.20066242 -0.96138250 0.18835677
vn -0.41401370 -0.81839198 0.39853133
vn -0.93488858 -0.28749394 -0.20815998
vn -0.56227918 -0.72901487 -0.39035810
vn -0.92542056 -0.06907827 0.37259226
vn -0.40436400 -0.78340674 0.47197842
vn -0.81640429 0.16303237 0.55398961
vn -0.56879367 0.12736097 0.81255950
vn -0.86227243 0.04601722 0.50434976
vn -0.60083531 0.00762580 0.79933646
vn -0.49495804 -0.59286752 0.63523589
vn -0.56415657 -0.10168105 0.81938289
vn -0.04077487 -0.57998245 0.81360787
vn -0.27383366 -0.70950332 0.64932285
vn -0.05309927 -0.27540306 0.95986125
vn -0.02244420 -0.48958135 0.87166872
vn 0.31136009 -0.91050681 0.27208865
vn 0.26966594 -0.91108669 0.31177128
vn -0.02739808 -0.59017034 0.80681368
vn -0.31560342 -0.69373868 0.64739565
vn 0.20997865 -0.46914564 0.85779446
vn 0.20429152 -0.82052615 0.53385560
vn 0.26791678 -0.94983492 0.16135126
vn -0.01317794 -0.05907723 0.99816643
vn 0.26438349 -0.93637009 0.23089485
vn 0.10660656 -0.98118562 0.16096528
vn 0.02796345 -0.12549202 0.99170046
vn 0.00989568 0.10436752 0.99448957
vn -0.25623944 0.01374910 0.96651555
vn -0.36059148 -0.13691019 0.92262093
vn 0.27645786 -0.92481631 0.26131560
vn 0.12921440 -0.87990620 0.45724033
vn -0.59176112 -0.31936374 0.74015240
vn 0.22778913 -0.89440789 0.38489821
vn -0.48915724 -0.02681260 0.87178339
vn -0.78124936 -0.19631515 0.59254519
vn -0.63611314 -0.19158384 0.74743275
vn -0.77516632 0.22715556 0.58950618
vn -0.62273549 0.12628095 0.77217462
vn -0.46133050 0.24553908 0.85257535
vn -0.68421723 0.47266563 0.55536833
vn -0.51782485 0.42583687 0.74197060
vn -0.34920214 0.48485000 0.80185930
vn -0.14405155 0.30017832 0.94294333
vn 0.22072570 0.32351287 0.92011934
vn -0.15777538 0.60314249 0.78187343
vn 0.06850066 0.54737802 0.83407731
vn 0.18546132 0.82400302 0.53537194
vn 0.06730734 0.68270905 0.72758372
vn 0.43342832 0.65559007 0.61833773
vn 0.30585402 0.50502522 0.80709531
vn 0.52653145 0.28951627 0.79934033
vn 0.58067981 0.54158001 0.60786680
vn 0.56053540 0.39710401 0.72671072
vn 0.37864128 0.76399634 0.52243695
vn 0.65288859 0.59265110 0.47170028
vn 0.59047979 0.74938489 0.29959288
vn 0.90745353 0.35628245 0.22269018
vn 0.78333361 0.49964109 0.36979351
vn 0.67342950 0.29700387 0.67696485
vn 0.83578384 0.21763924 0.50408186
vn 0.74077350 0.44677587 0.50164324
vn 0.74786023 0.63510985 0.19323703
vn 0.85825149 0.50119824 0.11047494
vn 0.76736681 0.63999681 -0.03939881
vn 0.89313389 0.44547238 -0.06217892
vn 0.64875740 0.76056274 0.02565452
vn 0.43971241 0.89778971 0.02503261
vn 0.49001983 0.84009238 -0.23264858
vn 0.67428069 0.68377259 -0.27892757
vn 0.84195309 0.49411282 -0.21671989
vn 0.64017685 0.64827934 -0.41219836
vn 0.75119201 0.38828238 -0.53380461
vn -0.05973068 -0.05285210 -0.99681438
vn 0.73109612 0.54511265 -0.41030558
vn 0.83218075 0.41655000 -0.36600723
vn 0.45393523 0.79300045 -0.40631649
vn 0.02352857 -0.02476214 -0.99941645
vn 0.03559814 -0.14237503 -0.98917244
vn 0.11768612 0.88000701 -0.46014958
vn 0.29419539 0.90290097 -0.31339896
vn 0.06849001 0.94710399 -0.31353334
vn 0.16798657 0.98084799 -0.09857853
vn 0.19129982 0.96958938 0.15264601
vn -0.03822316 0.98963233 0.13844433
vn -0.15885219 0.98417295 -0.07854668
vn -0.22674110 0.94794725 0.22357212
vn -0.46782503 0.86188532 0.19568707
vn -0.29470443 0.95502866 -0.03270416
vn -0.50778464 0.85683945 0.08933601
vn -0.14033604 0.93167260 -0.33509992
vn 0.04538116 -0.03984889 -0.99817464
vn -0.13978393 0.87040224 -0.47208091
vn -0.37741043 0.77977694 -0.49950905
vn -0.30292691 0.93758968 -0.17076557
vn -0.54202017 0.81712356 -0.19627331
vn -0.43072271 0.79428532 -0.42847261
vn -0.28159960 0.90284086 -0.32493083
vn -0.60229697 0.71937791 -0.34602570
vn -0.80722127 0.53375213 -0.25199698
vn 0.06519560 0.01906333 -0.99769039
vn -0.74308049 0.47349749 -0.47289694
vn -0.65156488 0.75732663 0.04381301
vn 0.04789392 -0.03595616 -0.99820505
vn -0.49497114 0.71984163 -0.48665347
vn -0.69071335 0.63717862 0.34193344
vn -0.84242408 0.53157763 0.08801640
vn -0.32528421 0.86751406 0.37631042
vn -0.52852022 0.78037485 0.33418779
vn -0.38882256 0.58900337 0.70844340
vn -0.58145736 0.65438930 0.48340663
vn -0.44298579 0.75068054 0.49014520
vn -0.26269360 0.68568404 0.67884422
vn -0.24177983 0.87916379 0.41062580
vn -0.04280125 0.92234549 0.38398809
vn -0.06460921 0.86711507 0.49389990
vn -0.11184800 0.71529213 0.68981678
vn 0.19496325 0.91421561 0.35524519
vn 0.41882733 0.85665621 0.30120393
vn -0.79068281 0.37939769 0.48049775
vn -0.89165958 0.34475772 0.29340298
vn -0.96016469 0.26162438 0.09816538
vn -0.99351633 -0.05187875 0.10116273
vn -0.93756854 0.30536401 -0.16648743
vn -0.98753855 0.08302902 -0.13369294
vn -0.95882307 -0.15780395 -0.23612760
vn -0.91676025 0.09364402 -0.38830586
vn -0.94327982 0.24561305 -0.22337727
vn -0.90611367 -0.04690885 -0.42042547
vn -0.35985751 -0.30626557 -0.88130810
vn -0.85203298 0.07336243 -0.51832205
vn -0.16847316 -0.33322407 -0.92767371
vn 0.05628902 -0.09521011 -0.99386447
vn -0.82650213 0.18657744 -0.53111495
vn -0.01909076 -0.46832110 -0.88335207
vn 0.06934180 -0.09799840 -0.99276786
vn -0.45046903 -0.18785789 -0.87280414
vn 0.01949622 -0.59746953 -0.80165458
vn -0.91295576 -0.15642338 -0.37688659
vn -0.33518043 -0.16038295 -0.92840260
vn 0.22993877 -0.56779459 -0.79040336
vn 0.14646454 -0.85290473 -0.50110045
vn 0.57729733 -0.69682295 -0.42563550
vn -0.55502867 -0.76320064 -0.33085942
vn 0.03686252 -0.94337914 -0.32966188
vn 0.64890672 -0.69275666 -0.31465581
vn 0.51560270 -0.82699203 -0.22413843
vn -0.02831927 -0.96148881 -0.27338122
vn 0.56922185 -0.70009527 -0.43110683
vn -0.90665626 -0.30919802 -0.28700349
vn 0.30524627 -0.49723556 -0.81214624
vn -0.46601431 -0.40048062 -0.78895243
vn 0.22596744 -0.80969809 -0.54159738
vn -0.51822836 -0.68150345 -0.51671309
vn 0.20669965 -0.65288176 -0.72871164
vn 0.59606037 -0.68121445 -0.42503989
vn -0.90938164 -0.38828751 -0.14919067
vn -0.88861867 -0.45861602 0.00531030
vn 0.66355030 -0.69070494 -0.28745033
vn -0.95103818 -0.30047657 -0.07238931
vn -0.94182095 -0.21674869 0.25689162
vn -0.90137713 -0.40812752 0.14474529
vn 0.43511158 -0.89145334 0.12644708
vn -0.84614005 -0.41433479 0.33522186
vn 0.47643124 -0.87007498 -0.12642310
vn -0.84704112 -0.50737503 0.15840432
vn 0.68179309 -0.72053403 -0.12644720
vn 0.25514330 -0.96690312 0.00049370
vn -0.76745803 -0.41994001 0.48441568
vn 0.29231506 -0.92918080 0.22621882
vn 0.49035274 -0.85810482 0.15234928
vn -0.52945670 -0.46002875 0.71277567
vn -0.74667526 -0.41528636 0.51962803
vn 0.37129238 -0.89851203 0.23413267
vn -0.61447928 -0.33201883 0.71566662
vn -0.84595700 -0.28369412 0.45152454
vn -0.73666620 -0.28916485 0.61131546
vn -0.85390857 -0.03007025 0.51955360
vn -0.71530417 -0.00235728 0.69880927
vn -0.92266791 0.08183161 0.37681230
vn -0.51022140 -0.68475508 -0.52036968
vn -0.84582541 -0.28055862 -0.45372484
vn -0.46601431 -0.40048062 -0.78895243
vn -0.76565123 -0.24241838 -0.59582843
vn -0.51580733 -0.47114518 -0.71551730
vn 0.17278455 -0.66015545 -0.73098582
vn 0.19503641 -0.64772943 -0.73648312
vn -0.46996925 -0.36934954 -0.80169185
vn -0.73444897 -0.21128677 -0.64493613
vn -0.50638379 -0.26341775 -0.82108863
vn -0.55877277 -0.16429655 -0.81288353
vn 0.04494919 -0.04535288 -0.99795926
vn -0.77531804 -0.19340130 -0.60123030
vn -0.57523156 -0.15140378 -0.80385667
vn -0.88194529 -0.19305800 -0.43000130
vn -0.58613686 -0.14444963 -0.79723139
vn -0.90325556 -0.14034612 -0.40550260
vn 0.04769713 -0.05028551 -0.99759528
vn -0.83664123 -0.14519139 -0.52815803
vn -0.46996408 0.01993180 -0.88246047
vn -0.85875877 -0.15614207 -0.48800925
vn -0.68770091 -0.16359619 -0.70732153
vn -0.83294419 -0.14619450 -0.53369574
vn -0.68796368 -0.06289143 -0.72301497
vn -0.88576779 -0.12073163 -0.44815098
vn -0.70196996 -0.08831382 -0.70670987
vn -0.82167070 -0.03939067 -0.56859971
vn -0.74468405 -0.05531020 -0.66512137
vn -0.92212431 -0.02064144 -0.38634270
vn -0.67761654 -0.68832922 -0.25891835
vn -0.84326347 -0.09815061 -0.52846303
vn -0.69514998 -0.01923406 -0.71860737
vn -0.11439697 -0.56021123 -0.82041253
vn -0.25326713 -0.63337164 -0.73122919
vn -0.72077316 -0.04135412 -0.69193634
vn -0.53096678 -0.67956609 -0.50622545
vn 0.10440640 -0.81331164 -0.57238403
vn -0.21692479 -0.63412896 -0.74217525
vn 0.03952991 -0.53971492 -0.84091926
vn 0.28462338 -0.70855819 -0.64570490
vn 0.05453661 -0.31721962 -0.94678269
vn -0.48712792 0.26497017 -0.83216416
vn -0.84321968 -0.09908329 -0.52835885
vn 0.23579004 -0.29032215 -0.92742445
vn -0.46758136 0.01420493 -0.88383589
vn 0.01397120 0.01626959 -0.99977003
vn 0.02728932 -0.05908042 -0.99788015
vn -0.66426249 -0.16615664 -0.72879854
vn 0.08079924 -0.06428581 -0.99465512
vn 0.87577727 -0.25265815 -0.41131257
vn 0.46290224 -0.39046968 -0.79577317
vn 0.62796929 -0.56676185 -0.53332502
vn 0.37790306 -0.69962094 -0.60639906
vn 0.33830796 -0.47533476 -0.81216045
vn 0.31377327 -0.83784234 -0.44672872
vn 0.71863807 -0.64127557 -0.26893301
vn 0.51734403 -0.80941618 -0.27784996
vn 0.60793857 -0.47896285 -0.63324978
vn 0.97631061 -0.20109862 -0.07985576
vn 0.46364343 -0.40512409 -0.78797794
vn 0.65014517 -0.53978204 -0.53473975
vn 0.99943823 0.01022752 0.03191595
vn 0.97373525 0.15307290 0.16854780
vn 0.97611734 0.21536442 -0.02851484
vn 0.78048861 -0.61542421 -0.10995715
vn 0.98564069 -0.14437670 0.08756599
vn 0.94348176 -0.07512266 0.32279830
vn 0.95530345 -0.25391317 0.15140479
vn 0.89359922 -0.40862774 0.18575201
vn 0.88020804 -0.23745896 0.41091003
vn 0.93584233 -0.26957736 -0.22699600
vn 0.58980162 -0.17633890 -0.78806005
vn 0.90348845 -0.41487710 -0.10763644
vn 0.50812056 -0.16498540 -0.84533622
vn 0.88975397 -0.28485413 -0.35664548
vn 0.51834829 -0.20009723 -0.83143019
vn 0.83355511 -0.24891503 -0.49318068
vn 0.85744255 -0.22275548 -0.46386666
vn 0.27121415 -0.10662961 -0.95659448
vn 0.59865744 -0.50955555 -0.61803107
vn 0.29603484 -0.12391693 -0.94710505
vn 0.59865744 -0.50955555 -0.61803107
vn 0.55027955 -0.20582827 -0.80921390
vn 0.93623789 -0.16737908 -0.30893828
vn 0.82325024 -0.54144351 -0.17058127
vn 0.90718707 -0.06743203 -0.41528850
vn 0.09439736 -0.09076859 -0.99138802
vn 0.59865744 -0.50955555 -0.61803107
vn 0.04703100 -0.05681377 -0.99727643
vn 0.94028320 -0.03288118 -0.33880130
vn 0.02383882 -0.03865569 -0.99896819
vn 0.87196976 0.22204881 -0.43630616
vn 0.93686390 0.24881705 -0.24571549
vn 0.99631971 -0.02606723 -0.08165498
vn 0.96289717 0.26866268 0.02548337
vn 0.96471763 0.10756129 0.24031325
vn 0.48138198 -0.81076824 0.33305594
vn -0.04762652 -0.98187179 0.18346524
vn 0.98872026 -0.08735675 0.12165955
vn 0.88237445 0.09683137 0.46047694
vn 0.94403679 -0.06727839 0.32290580
vn -0.04792778 -0.98310970 0.17663022
vn -0.04714029 -0.98986203 0.13398116
vn 0.29649476 -0.82518500 0.48079161
vn 0.08022636 -0.98784475 0.13314082
vn 0.86328209 -0.03222663 0.50369185
vn 0.79293165 -0.03928424 0.60804288
vn -0.07754569 -0.99469611 -0.06757447
vn 0.61969948 -0.05046858 0.78321483
vn -0.17541915 -0.97929863 -0.10100648
vn 0.59653359 -0.03669039 0.80174902
vn 0.60029586 0.11696641 0.79117870
vn 0.80098097 0.04148606 0.59725069
vn -0.17932957 -0.98298668 -0.03972530
vn 0.41474082 -0.85279673 0.31737640
vn -0.07347846 -0.78197348 0.61896559
vn -0.20177560 -0.97904279 -0.02760104
vn 0.31868650 -0.82653808 0.46397598
vn 0.13523184 -0.77183439 0.62127613
vn -0.11272832 -0.98995723 -0.08530542
vn 0.48049154 -0.31693299 0.81772939
vn 0.58668192 -0.54669769 0.59743281
vn 0.22203570 -0.84934272 0.47887064
vn 0.76415134 -0.29898943 0.57155756
vn 0.28481086 -0.28727242 0.91452574
vn 0.80221705 -0.25751200 0.53864216
vn 0.70346761 -0.19346589 0.68388908
vn 0.34632100 -0.48431317 0.80343172
vn 0.14584812 -0.76429974 0.62815145
vn 0.75646513 -0.43078964 0.49211867
vn 0.58668192 -0.54669769 0.59743281
vn 0.44544235 -0.63081167 0.63534066
vn 0.56405523 -0.15149127 0.81172168
vn 0.36690035 -0.81138857 0.45500848
vn 0.58668192 -0.54669769 0.59743281
vn 0.68647115 -0.56857725 0.45329600
vn 0.37819385 -0.75159874 0.54043385
vn 0.54338212 -0.79764415 0.26172445
vn 0.75016773 -0.54003178 0.38159411
vn 0.82695157 -0.55534172 -0.08801517
vn 0.61330303 -0.77532536 0.15076466
vn 0.71743991 -0.65686885 -0.23195534
vn 0.97229536 -0.17654748 -0.15320808
vn 0.61073922 -0.77799598 0.14737662
vn 0.75160457 -0.00538953 0.65959194
vn 0.60726344 -0.03206951 0.79385305
vn 0.69051017 -0.09152137 0.71750927
vn 0.76826618 -0.06548282 0.63677239
vn 0.85946264 -0.15338517 0.48764431
vn 0.10799876 -0.00791531 0.99411952
vn 0.51407308 0.02425634 0.85740335
vn -0.15350290 -0.98440869 -0.08588594
vn 0.08190229 -0.99622779 0.02867426
vn 0.12534741 -0.01144978 0.99204684
vn 0.21848570 -0.80915019 0.54547224
vn 0.15786633 -0.98742894 0.00789346
vn 0.34908118 0.08495249 0.93323384
vn 0.38694768 -0.06497314 0.91980975
vn -0.07118462 -0.97938733 -0.18903230
vn 0.72694894 -0.56747046 0.38668141
vn 0.96851814 0.24844295 0.01577049
vn 0.55067566 -0.81196639 0.19356369
vn 0.75572573 -0.64000426 0.13882782
vn 0.33271368 -0.94256245 -0.02962500
vn 0.35745054 -0.82453971 0.43859250
vn 0.37975110 -0.54136856 0.75013944
vn 0.44186994 -0.72130862 0.53335243
vn 0.68932715 -0.58622423 0.42563979
vn 0.59780548 -0.50454708 0.62294531
vn 0.67524096 -0.52166932 0.52145063
vn 0.91369006 0.36613172 0.17640307
vn 0.71559194 0.28220018 0.63897671
vn 0.24274624 -0.71935341 0.65084940
vn 0.06074981 -0.62259933 0.78017917
vn -0.03359729 -0.82823020 0.55937998
vn -0.09897671 -0.67762215 0.72871931
vn 0.08206111 -0.97417709 0.21034490
vn -0.42794797 -0.75599212 0.49531449
vn -0.39257418 -0.57683767 0.71634057
vn -0.28035695 -0.93798614 0.20391661
vn -0.47453429 -0.82641973 -0.30306375
vn -0.62019092 -0.77580014 0.11617816
vn -0.06596010 -0.96451286 -0.25566425
vn -0.25128306 -0.83779911 -0.48471587
vn -0.27701662 -0.67231516 -0.68647951
vn -0.69867776 -0.64951513 0.29996579
vn -0.95003001 -0.10262089 0.29480829
vn 0.88318302 0.20012479 0.42419078
vn 0.71559194 0.28220018 0.63897671
vn 0.84207623 0.10422054 0.52919344
vn 0.62033486 -0.00584379 0.78431532
vn -0.72868530 0.21462726 0.65034827
vn -0.54407663 0.15562941 0.82447566
vn -0.89471559 0.08740100 0.43800123
vn -0.68440989 0.05308244 0.72716253
vn -0.56281532 -0.02123511 0.82630986
vn -0.83436349 -0.11649827 0.53876314
vn -0.69549995 -0.08504394 0.71347554
vt 0.80842500 0.64031000
vt 0.80898000 0.63849600
vt 0.81340900 0.64169400
vt 0.44680500 0.88092000
vt 0.79946900 0.64309000
vt 0.80303400 0.63664800
vt 0.81160700 0.63233500
vt 0.79520000 0.63905000
vt 0.49104900 0.31905000
vt 0.79383600 0.63204500
vt 0.79099000 0.63330300
vt 0.78500400 0.63577000
vt 0.79036300 0.63143900
vt 0.48765300 0.31897900
vt 0.78051200 0.63340300
vt 0.77188800 0.63399300
vt 0.47383400 0.31490000
vt 0.77579200 0.62610700
vt 0.77579200 0.62610700
vt 0.78120600 0.63861100
vt 0.78735200 0.64175000
vt 0.77297300 0.64232100
vt 0.44680500 0.91218700
vt 0.78070000 0.64381800
vt 0.76838000 0.63979400
vt 0.97754800 0.46312800
vt 0.76880300 0.64717200
vt 0.97132800 0.45780900
vt 0.45376100 0.92465500
vt 0.45161500 0.91787200
vt 0.77600400 0.64712100
vt 0.45613600 0.92228200
vt 0.45291500 0.90866900
vt 0.45517700 0.91742100
vt 0.46205900 0.91398800
vt 0.46683400 0.90344500
vt 0.46146100 0.92625700
vt 0.46146100 0.92625700
vt 0.97056300 0.44952100
vt 0.45801900 0.90835800
vt 0.46023100 0.90206700
vt 0.45357300 0.89858100
vt 0.45967500 0.88952200
vt 0.47076500 0.89037400
vt 0.46858400 0.89784100
vt 0.46314900 0.89057900
vt 0.36177000 0.91840300
vt 0.46264600 0.88678800
vt 0.36236300 0.92027200
vt 0.36236300 0.92027200
vt 0.45507700 0.88994600
vt 0.36780400 0.91761200
vt 0.36780400 0.91761200
vt 0.46818600 0.88553700
vt 0.35628600 0.91866700
vt 0.45658200 0.88529100
vt 0.36771100 0.91620200
vt 0.44987500 0.88870800
vt 0.80736800 0.64744700
vt 0.45153300 0.88144700
vt 0.81550700 0.64824700
vt 0.37260000 0.91262100
vt 0.81714400 0.64533000
vt 0.81714400 0.64533000
vt 0.37529000 0.90940000
vt 0.82022100 0.63932000
vt 0.82164100 0.64047200
vt 0.37826100 0.90421900
vt 0.37667000 0.91087700
vt 0.81874200 0.64693800
vt 0.37667000 0.91087700
vt 0.82390000 0.63593100
vt 0.37853700 0.89963600
vt 0.37853700 0.89963600
vt 0.90420900 0.20605200
vt 0.38498700 0.90186700
vt 0.38414600 0.89921100
vt 0.90697500 0.20581300
vt 0.90674100 0.21117200
vt 0.89880100 0.20992900
vt 0.89543300 0.20478500
vt 0.38371700 0.91020200
vt 0.38083100 0.91581400
vt 0.88975700 0.20394200
vt 0.37942700 0.91487100
vt 0.89270600 0.21019400
vt 0.89094900 0.56627500
vt 0.88648300 0.20767700
vt 0.89959000 0.56518600
vt 0.88852600 0.21694700
vt 0.89463300 0.21775600
vt 0.90812600 0.56631600
vt 0.89220400 0.22461200
vt 0.89979000 0.22349800
vt 0.90397700 0.21737800
vt 0.91430300 0.21565800
vt 0.90570500 0.22530800
vt 0.91114800 0.22298300
vt 0.32851000 0.95139500
vt 0.91473500 0.22858700
vt 0.32531000 0.94345500
vt 0.91972100 0.22170000
vt 0.92271800 0.21309600
vt 0.32680000 0.93702900
vt 0.92451300 0.21721800
vt 0.33169000 0.94517600
vt 0.33315700 0.93596700
vt 0.33771600 0.93891800
vt 0.53840500 0.30950900
vt 0.33884800 0.92826200
vt 0.92932700 0.21238100
vt 0.53544900 0.31714400
vt 0.33063100 0.93042600
vt 0.34159900 0.93324200
vt 0.54401700 0.30676000
vt 0.34805700 0.92998600
vt 0.54180300 0.30046600
vt 0.34565000 0.93785500
vt 0.34576900 0.94448200
vt 0.35305500 0.94300700
vt 0.35420000 0.93460400
vt 0.54503800 0.29412400
vt 0.36061900 0.93603700
vt 0.54306700 0.28733700
vt 0.45810800 0.27117000
vt 0.35655900 0.93105900
vt 0.54078300 0.29174200
vt 0.36053400 0.94392700
vt 0.46143100 0.26341900
vt 0.46120000 0.25461800
vt 0.36104800 0.95270800
vt 0.35524600 0.94910700
vt 0.35488600 0.95493200
vt 0.34905300 0.95299500
vt 0.34229600 0.95206600
vt 0.34246800 0.95817500
vt 0.34824100 0.96138500
vt 0.34011800 0.96452600
vt 0.92536400 0.57679000
vt 0.34485300 0.96759300
vt 0.92384200 0.58177100
vt 0.35560000 0.96079800
vt 0.45759200 0.24530800
vt 0.36104800 0.96185000
vt 0.92536400 0.59800800
vt 0.35135200 0.96817800
vt 0.92334400 0.58841600
vt 0.92468900 0.59351400
vt 0.35655500 0.96533300
vt 0.91834400 0.59335300
vt 0.91092400 0.59165000
vt 0.44356900 0.23515800
vt 0.91045700 0.59982400
vt 0.91727700 0.58194000
vt 0.45242600 0.23992400
vt 0.91970600 0.59874900
vt 0.91308400 0.57446500
vt 0.90899100 0.58183100
vt 0.33568400 0.96808500
vt 0.91940700 0.57317400
vt 0.89627900 0.22864900
vt 0.91388900 0.56697800
vt 0.92059900 0.56810600
vt 0.90298100 0.23188600
vt 0.33078400 0.96312400
vt 0.33518300 0.95773000
vt 0.32965000 0.95777900
vt 0.90873000 0.23100700
vt 0.33689200 0.95096400
vt 0.33759100 0.94503400
vt 0.90454600 0.57130100
vt 0.90296300 0.57696400
vt 0.90153400 0.58246400
vt 0.89189100 0.58315100
vt 0.90258100 0.58870500
vt 0.89684600 0.58960400
vt 0.89107500 0.59339900
vt 0.89840200 0.59751500
vt 0.90377100 0.59659600
vt 0.89564200 0.59950800
vt 0.42879900 0.23501900
vt 0.89883400 0.60125300
vt 0.43176800 0.23541100
vt 0.43463500 0.23542600
vt 0.90175200 0.60173100
vt 0.42895800 0.23908100
vt 0.43485100 0.24646600
vt 0.43485100 0.24646600
vt 0.42571800 0.23605800
vt 0.89265600 0.59935600
vt 0.42571800 0.23605800
vt 0.42217400 0.23882200
vt 0.34964400 0.92714700
vt 0.08095900 0.98769500
vt 0.35712200 0.91984100
vt 0.35712200 0.91984100
vt 0.08031900 0.97796600
vt 0.35814600 0.92432300
vt 0.35814600 0.92432300
vt 0.08219100 0.98694200
vt 0.88741000 0.59661000
vt 0.42056100 0.23790300
vt 0.42539600 0.24493500
vt 0.34987100 0.92036200
vt 0.34987100 0.92036200
vt 0.42539600 0.24493500
vt 0.08280300 0.98189300
vt 0.88437700 0.59267000
vt 0.88223400 0.58875000
vt 0.08280300 0.97717000
vt 0.88713000 0.58948400
vt 0.88835800 0.58005900
vt 0.88421600 0.58332000
vt 0.36863100 0.92396500
vt 0.88198600 0.57806400
vt 0.36384500 0.92528800
vt 0.88159200 0.58300800
vt 0.08046300 0.97180600
vt 0.36568200 0.92155600
vt 0.88319300 0.57477800
vt 0.37167100 0.92249100
vt 0.37830000 0.91661600
vt 0.88881500 0.20243500
vt 0.88533900 0.56992900
vt 0.37609900 0.92003500
vt 0.88522000 0.20122500
vt 0.88692400 0.57350700
vt 0.88159200 0.20532100
vt 0.89321400 0.57015000
vt 0.88327400 0.21226700
vt 0.89575300 0.57532700
vt 0.34913600 0.91882500
vt 0.47551600 0.88078000
vt 0.42514100 0.24665800
vt 0.47711500 0.87772200
vt 0.42839700 0.24534600
vt 0.42839700 0.24534600
vt 0.43115700 0.24475600
vt 0.43115700 0.24475600
vt 0.48006000 0.87567500
vt 0.43036400 0.24695200
vt 0.42399600 0.25277900
vt 0.42399600 0.25277900
vt 0.47965400 0.88370500
vt 0.42172900 0.25215400
vt 0.47946300 0.88876300
vt 0.41633000 0.25506800
vt 0.47893400 0.89709100
vt 0.40754500 0.25883600
vt 0.47777400 0.91371700
vt 0.38972500 0.26898700
vt 0.47337900 0.90413100
vt 0.40022500 0.25972700
vt 0.47326000 0.91569900
vt 0.38783900 0.26683700
vt 0.47320400 0.89940000
vt 0.38689300 0.26136900
vt 0.46789500 0.91707400
vt 0.37668800 0.26383200
vt 0.46622700 0.92692200
vt 0.97374300 0.44544900
vt 0.47503100 0.92088900
vt 0.38228700 0.27045300
vt 0.38228700 0.27045300
vt 0.37764500 0.26755700
vt 0.37764500 0.26755700
vt 0.97862600 0.44229300
vt 0.98519700 0.44460800
vt 0.37635600 0.27508600
vt 0.38084800 0.27669600
vt 0.98865500 0.44229300
vt 0.38850200 0.27016100
vt 0.38850200 0.27016100
vt 0.47872800 0.91483500
vt 0.39231900 0.27767100
vt 0.39049500 0.27042000
vt 0.39049500 0.27042000
vt 0.40546900 0.26184300
vt 0.40546900 0.26184300
vt 0.40363500 0.28262600
vt 0.48742000 0.28733700
vt 0.40363500 0.28262600
vt 0.46831700 0.29159800
vt 0.99384800 0.44466700
vt 0.38424600 0.28163600
vt 0.98893100 0.44881900
vt 0.46332200 0.29851200
vt 0.99303300 0.45157000
vt 0.48001400 0.29017300
vt 0.48001400 0.29017300
vt 0.39648000 0.28417600
vt 0.47295400 0.29472400
vt 0.47295400 0.29472400
vt 0.47788600 0.30699900
vt 0.46985300 0.30111100
vt 0.46985300 0.30111100
vt 0.48005200 0.29626200
vt 0.48485000 0.30620200
vt 0.50317100 0.29430700
vt 0.51396300 0.29750500
vt 0.50697700 0.30243400
vt 0.49895700 0.29062000
vt 0.43374200 0.28285700
vt 0.51702000 0.28953500
vt 0.42606300 0.28263900
vt 0.50950700 0.28861600
vt 0.41451700 0.28218800
vt 0.49820700 0.28807900
vt 0.41451700 0.28218800
vt 0.43593400 0.28093400
vt 0.51954800 0.28804200
vt 0.42395800 0.28117200
vt 0.52195600 0.29070200
vt 0.43900400 0.28417600
vt 0.52195600 0.29070200
vt 0.52195600 0.29070200
vt 0.52397000 0.28858200
vt 0.44079000 0.28306400
vt 0.52397000 0.28858200
vt 0.42710800 0.26883200
vt 0.52671900 0.29235200
vt 0.45016400 0.27915300
vt 0.53389400 0.28774200
vt 0.53503700 0.29514300
vt 0.52706300 0.29931900
vt 0.53534500 0.30292500
vt 0.53087200 0.30913900
vt 0.35728300 0.87567500
vt 0.35728300 0.87567500
vt 0.52272500 0.30494500
vt 0.52958900 0.31416300
vt 0.52356300 0.31192000
vt 0.36462400 0.87672300
vt 0.36492800 0.87886600
vt 0.36492800 0.87886600
vt 0.36805100 0.87772900
vt 0.52384500 0.31506900
vt 0.52310000 0.32117200
vt 0.37520600 0.88209000
vt 0.92438200 0.20122500
vt 0.37706000 0.88399900
vt 0.92226500 0.20144700
vt 0.92550100 0.20619000
vt 0.52813000 0.32167400
vt 0.37470400 0.88623300
vt 0.37470400 0.88623300
vt 0.37470400 0.88623300
vt 0.36821400 0.88268200
vt 0.36821400 0.88268200
vt 0.37614500 0.89049600
vt 0.37614500 0.89049600
vt 0.82254400 0.62444500
vt 0.57865100 0.98034900
vt 0.37161000 0.88883800
vt 0.52050300 0.31625200
vt 0.82206800 0.63413000
vt 0.51465400 0.31266300
vt 0.81648800 0.62405300
vt 0.82413800 0.62713600
vt 0.37413800 0.89127700
vt 0.51617700 0.30527000
vt 0.57865100 0.97180600
vt 0.35930300 0.88353100
vt 0.81715000 0.62763500
vt 0.36750600 0.88476200
vt 0.58230600 0.97751800
vt 0.52081300 0.30913700
vt 0.36287100 0.88184000
vt 0.35482300 0.87980800
vt 0.51875800 0.30166400
vt 0.51907400 0.29623100
vt 0.34913600 0.87917200
vt 0.52141000 0.29783200
vt 0.52141000 0.29783200
vt 0.35025400 0.87677600
vt 0.50618300 0.31602500
vt 0.80860800 0.62898900
vt 0.80293300 0.62593800
vt 0.50096100 0.31284800
vt 0.48957200 0.31205500
vt 0.81378400 0.63632300
vt 0.91942400 0.20308300
vt 0.37968300 0.88689700
vt 0.38425400 0.89593400
vt 0.91020100 0.20531100
vt 0.37836900 0.89510600
vt 0.37836900 0.89510600
vt 0.91608700 0.20819400
vt 0.91686900 0.20339800
vt 0.38111400 0.88930400
vt 0.47150300 0.30840600
vt 0.47150300 0.30840600
vt 0.99267300 0.45706600
vt 0.46387700 0.30399600
vt 0.98713900 0.45308100
vt 0.98677200 0.45857700
vt 0.76761500 0.62824600
vt 0.98959900 0.46277700
vt 0.46566800 0.31014400
vt 0.77561800 0.62405300
vt 0.47394300 0.31294500
vt 0.47394300 0.31294500
vt 0.77561800 0.62405300
vt 0.98255100 0.46266100
vt 0.76606700 0.63509800
vt 0.98147200 0.45845900
vt 0.76242600 0.63725100
vt 0.98414700 0.45457400
vt 0.97613900 0.45702400
vt 0.76378900 0.64276400
vt 0.97977200 0.45367600
vt 0.97858200 0.44734000
vt 0.97531100 0.45153000
vt 0.98360700 0.44967500
vt 0.98167300 0.44587900
vt 0.37450300 0.27242200
vt 0.97023900 0.45331500
vt 0.45774600 0.92563400
vt 0.47919900 0.31399200
vt 0.78129200 0.62760900
vt 0.47925800 0.31736600
vt 0.78172200 0.62997900
vt 0.44682600 0.89142600
vt 0.80368800 0.64567400
vt 0.44933000 0.89830500
vt 0.79764200 0.64894200
vt 0.79254800 0.64414500
vt 0.44813500 0.90471400
vt 0.79015700 0.64744600
f 2/2/2 1/1/1 6/6/6
f 2/2/2 3/3/3 1/1/1
f 424/424/424 1/1/1 3/3/3
f 1/1/1 5/5/5 6/6/6
f 5/5/5 8/8/8 6/6/6
f 2/2/2 6/6/6 7/7/7
f 7/7/7 6/6/6 10/10/10
f 11/11/11 8/8/8 12/12/12
f 10/10/10 6/6/6 11/11/11
f 11/11/11 12/12/12 15/15/15
f 13/13/13 10/10/10 11/11/11
f 15/15/15 422/422/422 13/13/13
f 16/16/16 18/18/18 15/15/15
f 15/15/15 20/20/20 16/16/16
f 12/12/12 20/20/20 15/15/15
f 20/20/20 12/12/12 21/21/21
f 20/20/20 24/24/24 22/22/22
f 16/16/16 22/22/22 25/25/25
f 22/22/22 24/24/24 31/31/31
f 25/25/25 27/27/27 410/410/410
f 22/22/22 31/31/31 27/27/27
f 30/30/30 32/32/32 29/29/29
f 30/30/30 34/34/34 32/32/32
f 23/23/23 33/33/33 30/30/30
f 33/33/33 34/34/34 30/30/30
f 32/32/32 35/35/35 38/38/38
f 34/34/34 40/40/40 35/35/35
f 260/260/260 35/35/35 36/36/36
f 35/35/35 40/40/40 36/36/36
f 40/40/40 41/41/41 36/36/36
f 42/42/42 40/40/40 33/33/33
f 41/41/41 42/42/42 43/43/43
f 41/41/41 43/43/43 46/46/46
f 36/36/36 41/41/41 45/45/45
f 41/41/41 46/46/46 44/44/44
f 41/41/41 44/44/44 45/45/45
f 48/48/48 46/46/46 43/43/43
f 46/46/46 54/54/54 44/44/44
f 195/195/195 47/47/47 50/50/50
f 53/53/53 50/50/50 47/47/47
f 48/48/48 43/43/43 51/51/51
f 48/48/48 51/51/51 56/56/56
f 57/57/57 53/53/53 47/47/47
f 56/56/56 58/58/58 60/60/60
f 56/56/56 51/51/51 58/58/58
f 62/62/62 71/71/71 57/57/57
f 59/59/59 3/3/3 61/61/61
f 61/61/61 3/3/3 63/63/63
f 3/3/3 66/66/66 63/63/63
f 64/64/64 66/66/66 67/67/67
f 67/67/67 70/70/70 64/64/64
f 69/69/69 85/85/85 221/221/221
f 72/72/72 66/66/66 356/356/356
f 68/68/68 74/74/74 76/76/76
f 77/77/77 76/76/76 74/74/74
f 78/78/78 79/79/79 75/75/75
f 75/75/75 79/79/79 80/80/80
f 75/75/75 80/80/80 81/81/81
f 83/83/83 85/85/85 82/82/82
f 86/86/86 84/84/84 81/81/81
f 80/80/80 86/86/86 81/81/81
f 91/91/91 86/86/86 80/80/80
f 84/84/84 86/86/86 88/88/88
f 88/88/88 86/86/86 90/90/90
f 90/90/90 86/86/86 91/91/91
f 90/90/90 91/91/91 93/93/93
f 93/93/93 94/94/94 161/161/161
f 94/94/94 91/91/91 95/95/95
f 95/95/95 91/91/91 80/80/80
f 79/79/79 95/95/95 80/80/80
f 97/97/97 94/94/94 95/95/95
f 79/79/79 96/96/96 95/95/95
f 96/96/96 98/98/98 95/95/95
f 95/95/95 98/98/98 97/97/97
f 96/96/96 102/102/102 98/98/98
f 100/100/100 98/98/98 102/102/102
f 97/97/97 100/100/100 168/168/168
f 102/102/102 96/96/96 103/103/103
f 102/102/102 103/103/103 105/105/105
f 107/107/107 101/101/101 104/104/104
f 106/106/106 99/99/99 101/101/101
f 107/107/107 106/106/106 101/101/101
f 106/106/106 108/108/108 170/170/170
f 108/108/108 107/107/107 114/114/114
f 113/113/113 110/110/110 107/107/107
f 110/110/110 114/114/114 107/107/107
f 107/107/107 104/104/104 113/113/113
f 118/118/118 114/114/114 116/116/116
f 115/115/115 109/109/109 117/117/117
f 108/108/108 114/114/114 118/118/118
f 121/121/121 118/118/118 116/116/116
f 118/118/118 120/120/120 119/119/119
f 119/119/119 108/108/108 118/118/118
f 121/121/121 120/120/120 118/118/118
f 121/121/121 126/126/126 123/123/123
f 123/123/123 128/128/128 121/121/121
f 117/117/117 127/127/127 122/122/122
f 120/120/120 121/121/121 128/128/128
f 243/243/243 187/187/187 320/320/320
f 132/132/132 128/128/128 131/131/131
f 120/120/120 128/128/128 132/132/132
f 132/132/132 119/119/119 120/120/120
f 133/133/133 134/134/134 132/132/132
f 131/131/131 133/133/133 132/132/132
f 133/133/133 137/137/137 134/134/134
f 135/135/135 134/134/134 136/136/136
f 135/135/135 119/119/119 134/134/134
f 136/136/136 134/134/134 137/137/137
f 138/138/138 136/136/136 137/137/137
f 138/138/138 137/137/137 140/140/140
f 137/137/137 146/146/146 140/140/140
f 142/142/142 131/131/131 144/144/144
f 142/142/142 144/144/144 149/149/149
f 142/142/142 149/149/149 146/146/146
f 150/150/150 147/147/147 148/148/148
f 148/148/148 156/156/156 150/150/150
f 151/151/151 154/154/154 150/150/150
f 153/153/153 151/151/151 150/150/150
f 147/147/147 150/150/150 154/154/154
f 153/153/153 150/150/150 156/156/156
f 158/158/158 157/157/157 154/154/154
f 157/157/157 160/160/160 154/154/154
f 154/154/154 151/151/151 158/158/158
f 141/141/141 147/147/147 154/154/154
f 160/160/160 141/141/141 154/154/154
f 162/162/162 160/160/160 157/157/157
f 162/162/162 163/163/163 160/160/160
f 159/159/159 165/165/165 138/138/138
f 138/138/138 165/165/165 166/166/166
f 97/97/97 161/161/161 94/94/94
f 168/168/168 164/164/164 97/97/97
f 166/166/166 165/165/165 167/167/167
f 167/167/167 99/99/99 166/166/166
f 99/99/99 169/169/169 166/166/166
f 169/169/169 136/136/136 166/166/166
f 138/138/138 166/166/166 136/136/136
f 169/169/169 170/170/170 135/135/135
f 106/106/106 170/170/170 169/169/169
f 119/119/119 135/135/135 170/170/170
f 92/92/92 157/157/157 171/171/171
f 158/158/158 171/171/171 157/157/157
f 172/172/172 171/171/171 158/158/158
f 158/158/158 173/173/173 172/172/172
f 158/158/158 175/175/175 173/173/173
f 231/231/231 173/173/173 174/174/174
f 174/174/174 173/173/173 176/176/176
f 175/175/175 176/176/176 173/173/173
f 177/177/177 176/176/176 178/178/178
f 177/177/177 174/174/174 176/176/176
f 178/178/178 175/175/175 151/151/151
f 178/178/178 185/185/185 182/182/182
f 177/177/177 180/180/180 190/190/190
f 182/182/182 180/180/180 178/178/178
f 181/181/181 183/183/183 186/186/186
f 186/186/186 183/183/183 184/184/184
f 186/186/186 184/184/184 187/187/187
f 181/181/181 186/186/186 191/191/191
f 186/186/186 238/238/238 206/206/206
f 186/186/186 192/192/192 189/189/189
f 202/202/202 189/189/189 192/192/192
f 196/196/196 199/199/199 193/193/193
f 204/204/204 196/196/196 193/193/193
f 207/207/207 197/197/197 210/210/210
f 200/200/200 194/194/194 207/207/207
f 201/201/201 211/211/211 177/177/177
f 208/208/208 209/209/209 211/211/211
f 211/211/211 212/212/212 174/174/174
f 211/211/211 213/213/213 212/212/212
f 177/177/177 211/211/211 174/174/174
f 211/211/211 209/209/209 213/213/213
f 215/215/215 213/213/213 217/217/217
f 213/213/213 215/215/215 212/212/212
f 217/217/217 213/213/213 209/209/209
f 198/198/198 219/219/219 216/216/216
f 210/210/210 197/197/197 218/218/218
f 219/219/219 214/214/214 216/216/216
f 49/49/49 199/199/199 196/196/196
f 52/52/52 219/219/219 49/49/49
f 222/222/222 225/225/225 221/221/221
f 227/227/227 220/220/220 224/224/224
f 223/223/223 88/88/88 226/226/226
f 226/226/226 88/88/88 228/228/228
f 227/227/227 87/87/87 229/229/229
f 227/227/227 212/212/212 215/215/215
f 227/227/227 229/229/229 212/212/212
f 212/212/212 229/229/229 231/231/231
f 90/90/90 230/230/230 88/88/88
f 229/229/229 171/171/171 231/231/231
f 212/212/212 231/231/231 174/174/174
f 231/231/231 171/171/171 172/172/172
f 83/83/83 222/222/222 85/85/85
f 55/55/55 195/195/195 205/205/205
f 232/232/232 55/55/55 205/205/205
f 203/203/203 236/236/236 234/234/234
f 236/236/236 239/239/239 241/241/241
f 244/244/244 233/233/233 235/235/235
f 241/241/241 239/239/239 188/188/188
f 242/242/242 241/241/241 188/188/188
f 242/242/242 245/245/245 241/241/241
f 279/279/279 251/251/251 247/247/247
f 246/246/246 252/252/252 256/256/256
f 44/44/44 233/233/233 246/246/246
f 252/252/252 250/250/250 254/254/254
f 257/257/257 253/253/253 255/255/255
f 256/256/256 252/252/252 36/36/36
f 252/252/252 258/258/258 36/36/36
f 255/255/255 263/263/263 257/257/257
f 266/266/266 257/257/257 263/263/263
f 269/269/269 265/265/265 264/264/264
f 254/254/254 274/274/274 262/262/262
f 269/269/269 264/264/264 270/270/270
f 270/270/270 264/264/264 272/272/272
f 275/275/275 270/270/270 272/272/272
f 251/251/251 276/276/276 273/273/273
f 274/274/274 254/254/254 250/250/250
f 275/275/275 291/291/291 285/285/285
f 271/271/271 284/284/284 286/286/286
f 284/284/284 288/288/288 286/286/286
f 292/292/292 287/287/287 283/283/283
f 292/292/292 283/283/283 289/289/289
f 294/294/294 295/295/295 293/293/293
f 294/294/294 293/293/293 297/297/297
f 287/287/287 292/292/292 296/296/296
f 290/290/290 297/297/297 293/293/293
f 298/298/298 299/299/299 301/301/301
f 298/298/298 294/294/294 297/297/297
f 297/297/297 302/302/302 299/299/299
f 300/300/300 301/301/301 299/299/299
f 299/299/299 304/304/304 300/300/300
f 302/302/302 306/306/306 304/304/304
f 308/308/308 302/302/302 281/281/281
f 281/281/281 302/302/302 290/290/290
f 312/312/312 305/305/305 307/307/307
f 303/303/303 305/305/305 310/310/310
f 310/310/310 305/305/305 312/312/312
f 313/313/313 311/311/311 319/319/319
f 310/310/310 314/314/314 303/303/303
f 317/317/317 321/321/321 315/315/315
f 318/318/318 320/320/320 322/322/322
f 321/321/321 323/323/323 324/324/324
f 324/324/324 323/323/323 127/127/127
f 323/323/323 124/124/124 127/127/127
f 326/326/326 324/324/324 117/117/117
f 321/321/321 324/324/324 325/325/325
f 325/325/325 324/324/324 326/326/326
f 109/109/109 327/327/327 326/326/326
f 117/117/117 109/109/109 326/326/326
f 325/325/325 326/326/326 327/327/327
f 325/325/325 327/327/327 330/330/330
f 332/332/332 330/330/330 327/327/327
f 109/109/109 331/331/331 327/327/327
f 332/332/332 327/327/327 331/331/331
f 334/334/334 329/329/329 333/333/333
f 334/334/334 333/333/333 336/336/336
f 337/337/337 332/332/332 331/331/331
f 339/339/339 348/348/348 334/334/334
f 337/337/337 344/344/344 338/338/338
f 343/343/343 342/342/342 340/340/340
f 341/341/341 345/345/345 339/339/339
f 365/365/365 346/346/346 354/354/354
f 383/383/383 345/345/345 341/341/341
f 347/347/347 350/350/350 354/354/354
f 354/354/354 350/350/350 360/360/360
f 359/359/359 356/356/356 352/352/352
f 352/352/352 356/356/356 364/364/364
f 357/357/357 361/361/361 355/355/355
f 364/364/364 358/358/358 352/352/352
f 353/353/353 362/362/362 366/366/366
f 368/368/368 349/349/349 365/365/365
f 368/368/368 365/365/365 363/363/363
f 367/367/367 361/361/361 370/370/370
f 368/368/368 328/328/328 335/335/335
f 375/375/375 369/369/369 372/372/372
f 371/371/371 370/370/370 300/300/300
f 361/361/361 300/300/300 370/370/370
f 300/300/300 304/304/304 371/371/371
f 371/371/371 304/304/304 316/316/316
f 371/371/371 316/316/316 373/373/373
f 374/374/374 321/321/321 325/325/325
f 325/325/325 330/330/330 374/374/374
f 364/364/364 7/7/7 377/377/377
f 364/364/364 377/377/377 378/378/378
f 358/358/358 364/364/364 378/378/378
f 379/379/379 376/376/376 9/9/9
f 298/298/298 357/357/357 380/380/380
f 379/379/379 9/9/9 380/380/380
f 9/9/9 14/14/14 380/380/380
f 10/10/10 377/377/377 7/7/7
f 360/360/360 386/386/386 73/73/73
f 356/356/356 66/66/66 381/381/381
f 7/7/7 356/356/356 381/381/381
f 381/381/381 2/2/2 7/7/7
f 66/66/66 3/3/3 381/381/381
f 351/351/351 390/390/390 384/384/384
f 351/351/351 384/384/384 387/387/387
f 387/387/387 384/384/384 74/74/74
f 384/384/384 77/77/77 74/74/74
f 388/388/388 79/79/79 385/385/385
f 389/389/389 388/388/388 385/385/385
f 388/388/388 389/389/389 382/382/382
f 388/388/388 343/343/343 103/103/103
f 343/343/343 388/388/388 382/382/382
f 96/96/96 388/388/388 103/103/103
f 382/382/382 342/342/342 343/343/343
f 111/111/111 103/103/103 343/343/343
f 112/112/112 344/344/344 331/331/331
f 419/419/419 298/298/298 14/14/14
f 287/287/287 296/296/296 394/394/394
f 394/394/394 296/296/296 391/391/391
f 395/395/395 393/393/393 396/396/396
f 288/288/288 393/393/393 395/395/395
f 396/396/396 393/393/393 398/398/398
f 391/391/391 399/399/399 394/394/394
f 397/397/397 400/400/400 18/18/18
f 396/396/396 398/398/398 404/404/404
f 391/391/391 401/401/401 399/399/399
f 405/405/405 397/397/397 16/16/16
f 406/406/406 396/396/396 404/404/404
f 25/25/25 405/405/405 16/16/16
f 407/407/407 405/405/405 25/25/25
f 406/406/406 408/408/408 396/396/396
f 406/406/406 411/411/411 408/408/408
f 406/406/406 26/26/26 409/409/409
f 411/411/411 406/406/406 409/409/409
f 408/408/408 411/411/411 414/414/414
f 411/411/411 412/412/412 414/414/414
f 413/413/413 412/412/412 411/411/411
f 409/409/409 413/413/413 411/411/411
f 286/286/286 395/395/395 414/414/414
f 408/408/408 414/414/414 395/395/395
f 415/415/415 414/414/414 412/412/412
f 414/414/414 415/415/415 268/268/268
f 414/414/414 268/268/268 286/286/286
f 412/412/412 267/267/267 415/415/415
f 416/416/416 265/265/265 269/269/269
f 412/412/412 413/413/413 261/261/261
f 261/261/261 413/413/413 39/39/39
f 417/417/417 39/39/39 413/413/413
f 417/417/417 409/409/409 28/28/28
f 32/32/32 418/418/418 29/29/29
f 32/32/32 38/38/38 418/418/418
f 412/412/412 261/261/261 267/267/267
f 395/395/395 396/396/396 408/408/408
f 403/403/403 420/420/420 19/19/19
f 402/402/402 392/392/392 294/294/294
f 402/402/402 294/294/294 419/419/419
f 421/421/421 17/17/17 419/419/419
f 14/14/14 421/421/421 419/419/419
f 395/395/395 286/286/286 288/288/288
f 268/268/268 271/271/271 286/286/286
f 45/45/45 256/256/256 36/36/36
f 190/190/190 201/201/201 177/177/177
f 153/153/153 185/185/185 179/179/179
f 153/153/153 179/179/179 151/151/151
f 89/89/89 92/92/92 171/171/171
f 105/105/105 103/103/103 111/111/111
f 423/423/423 4/4/4 58/58/58
f 58/58/58 425/425/425 423/423/423
f 58/58/58 42/42/42 425/425/425
f 425/425/425 33/33/33 428/428/428
f 33/33/33 425/425/425 42/42/42
f 5/5/5 426/426/426 427/427/427
f 427/427/427 426/426/426 429/429/429
f 429/429/429 21/21/21 427/427/427
f 8/8/8 427/427/427 21/21/21
f 42/42/42 51/51/51 43/43/43
f 21/21/21 12/12/12 8/8/8
f 2/2/2 381/381/381 3/3/3
f 424/424/424 5/5/5 1/1/1
f 11/11/11 6/6/6 8/8/8
f 13/13/13 11/11/11 15/15/15
f 15/15/15 19/19/19 422/422/422
f 16/16/16 397/397/397 18/18/18
f 20/20/20 21/21/21 24/24/24
f 16/16/16 20/20/20 22/22/22
f 25/25/25 22/22/22 27/27/27
f 23/23/23 428/428/428 33/33/33
f 32/32/32 34/34/34 35/35/35
f 34/34/34 33/33/33 40/40/40
f 36/36/36 258/258/258 260/260/260
f 260/260/260 37/37/37 35/35/35
f 42/42/42 41/41/41 40/40/40
f 46/46/46 48/48/48 54/54/54
f 195/195/195 55/55/55 47/47/47
f 62/62/62 65/65/65 71/71/71
f 71/71/71 53/53/53 57/57/57
f 69/69/69 68/68/68 76/76/76
f 76/76/76 82/82/82 85/85/85
f 85/85/85 222/222/222 221/221/221
f 221/221/221 52/52/52 69/69/69
f 69/69/69 76/76/76 85/85/85
f 72/72/72 67/67/67 66/66/66
f 78/78/78 385/385/385 79/79/79
f 93/93/93 91/91/91 94/94/94
f 97/97/97 98/98/98 100/100/100
f 106/106/106 107/107/107 108/108/108
f 119/119/119 170/170/170 108/108/108
f 117/117/117 324/324/324 127/127/127
f 312/312/312 309/309/309 280/280/280
f 280/280/280 275/275/275 272/272/272
f 277/277/277 278/278/278 243/243/243
f 280/280/280 272/272/272 277/277/277
f 312/312/312 280/280/280 277/277/277
f 312/312/312 277/277/277 243/243/243
f 320/320/320 318/318/318 310/310/310
f 187/187/187 184/184/184 152/152/152
f 152/152/152 155/155/155 143/143/143
f 143/143/143 130/130/130 129/129/129
f 129/129/129 125/125/125 322/322/322
f 320/320/320 310/310/310 312/312/312
f 129/129/129 322/322/322 320/320/320
f 152/152/152 143/143/143 129/129/129
f 187/187/187 152/152/152 129/129/129
f 320/320/320 312/312/312 243/243/243
f 187/187/187 129/129/129 320/320/320
f 132/132/132 134/134/134 119/119/119
f 133/133/133 142/142/142 137/137/137
f 137/137/137 142/142/142 146/146/146
f 142/142/142 133/133/133 131/131/131
f 148/148/148 145/145/145 156/156/156
f 160/160/160 139/139/139 141/141/141
f 97/97/97 164/164/164 161/161/161
f 99/99/99 106/106/106 169/169/169
f 169/169/169 135/135/135 136/136/136
f 92/92/92 162/162/162 157/157/157
f 158/158/158 151/151/151 175/175/175
f 231/231/231 172/172/172 173/173/173
f 151/151/151 179/179/179 178/178/178
f 178/178/178 176/176/176 175/175/175
f 178/178/178 179/179/179 185/185/185
f 177/177/177 178/178/178 180/180/180
f 206/206/206 192/192/192 186/186/186
f 186/186/186 187/187/187 238/238/238
f 238/238/238 237/237/237 206/206/206
f 207/207/207 194/194/194 197/197/197
f 201/201/201 208/208/208 211/211/211
f 219/219/219 221/221/221 214/214/214
f 49/49/49 219/219/219 199/199/199
f 52/52/52 221/221/221 219/219/219
f 227/227/227 215/215/215 220/220/220
f 223/223/223 84/84/84 88/88/88
f 229/229/229 89/89/89 171/171/171
f 235/235/235 240/240/240 244/244/244
f 244/244/244 246/246/246 233/233/233
f 245/245/245 242/242/242 279/279/279
f 279/279/279 276/276/276 251/251/251
f 251/251/251 249/249/249 247/247/247
f 247/247/247 245/245/245 279/279/279
f 45/45/45 44/44/44 246/246/246
f 246/246/246 248/248/248 252/252/252
f 256/256/256 45/45/45 246/246/246
f 44/44/44 54/54/54 233/233/233
f 252/252/252 248/248/248 250/250/250
f 266/266/266 259/259/259 257/257/257
f 275/275/275 285/285/285 270/270/270
f 275/275/275 282/282/282 291/291/291
f 294/294/294 392/392/392 295/295/295
f 298/298/298 297/297/297 299/299/299
f 297/297/297 290/290/290 302/302/302
f 300/300/300 361/361/361 301/301/301
f 299/299/299 302/302/302 304/304/304
f 308/308/308 306/306/306 302/302/302
f 321/321/321 317/317/317 323/323/323
f 109/109/109 112/112/112 331/331/331
f 334/334/334 336/336/336 339/339/339
f 339/339/339 345/345/345 348/348/348
f 337/337/337 331/331/331 344/344/344
f 365/365/365 349/349/349 346/346/346
f 383/383/383 351/351/351 345/345/345
f 359/359/359 72/72/72 356/356/356
f 357/357/357 301/301/301 361/361/361
f 368/368/368 335/335/335 349/349/349
f 368/368/368 369/369/369 328/328/328
f 375/375/375 328/328/328 369/369/369
f 374/374/374 315/315/315 321/321/321
f 364/364/364 356/356/356 7/7/7
f 298/298/298 301/301/301 357/357/357
f 357/357/357 379/379/379 380/380/380
f 380/380/380 14/14/14 298/298/298
f 360/360/360 350/350/350 386/386/386
f 351/351/351 383/383/383 390/390/390
f 388/388/388 96/96/96 79/79/79
f 419/419/419 294/294/294 298/298/298
f 417/417/417 413/413/413 409/409/409
f 58/58/58 51/51/51 42/42/42
f 5/5/5 424/424/424 426/426/426
f 429/429/429 24/24/24 21/21/21
f 8/8/8 5/5/5 427/427/427

