# Blender 4.1.1
# www.blender.org
mtllib link_body_07.mtl
o link_body_07
v 1.062779 8.225386 -3.342249
v -1.926910 7.709780 -4.105880
v 1.815127 6.779199 -4.641949
v 1.776616 8.614154 -1.467964
v 3.215616 7.816349 -2.603174
v 2.971997 7.466908 -3.535625
v 0.000004 8.865510 -0.859781
v -1.630405 8.765284 -0.511870
v -0.272315 7.500261 4.223072
v -2.286021 7.958214 3.270885
v -4.950561 6.135128 4.292796
v -1.982906 7.160317 4.915808
v -3.188378 8.121292 1.759487
v -5.508931 6.819839 1.823561
v -6.969637 5.600983 0.073143
v -7.698592 4.222220 1.684766
v -6.488783 4.448758 4.281051
v -4.279395 7.867869 0.074161
v -4.055404 7.787758 -1.684765
v -6.793351 5.575162 -1.753209
v -6.310576 5.277589 -3.490459
v -8.449430 2.803894 -1.060471
v -3.823512 7.359265 -3.362585
v -7.916825 2.456465 -3.375839
v -6.899570 2.043255 -5.292643
v -8.538077 -0.526755 -2.755210
v -5.608706 4.466465 -5.284048
v -4.087392 5.978403 -5.164378
v -1.308340 4.902965 -5.284786
v -1.902355 6.354395 -2.591677
v 0.622837 6.150514 -5.078085
v -2.635246 3.269030 -5.312562
v -3.946098 3.669625 -3.133188
v -3.442396 1.433479 -5.301749
v -5.055149 0.671404 -2.639490
v -4.956741 2.449501 -1.563665
v -3.474946 5.173277 -1.630051
v -4.575410 3.785563 -0.000001
v -2.559217 6.331690 0.818348
v -0.659997 6.782958 3.286515
v -0.427202 7.597203 0.924523
v -3.348176 4.967988 2.618286
v -4.270238 2.092400 3.877715
v -4.956741 2.449501 1.563663
v -2.609828 3.121687 5.487191
v -1.571693 5.312941 4.619637
v -0.978967 3.561768 6.410157
v 1.222401 6.676416 4.631126
v 0.493176 5.394062 5.864126
v -3.525525 5.774367 5.725159
v -4.588305 4.632727 6.027088
v -5.674356 2.907286 6.252912
v -6.194978 0.723446 6.367939
v -7.533633 2.374164 4.291779
v -2.047495 0.908237 6.652621
v -6.071984 -1.606532 6.335535
v -1.467918 -2.776023 6.551775
v -3.359407 -0.020686 5.612741
v -2.645937 -3.205338 5.426026
v -4.022665 -2.359153 4.110266
v -5.088954 -0.392694 2.591674
v -4.980573 -2.356450 1.630051
v -5.461460 0.668907 -0.000001
v -5.110717 -2.481469 -0.747129
v -3.544758 -5.330289 0.067889
v -4.560401 -2.186571 -3.133188
v -3.415407 -5.012540 2.356233
v -3.412462 -5.035026 -2.361703
v -1.400055 -4.810149 -5.296319
v -0.928730 -7.005529 -2.547718
v -1.049300 -7.359486 -0.068835
v -3.214950 -3.291728 -4.654231
v -3.530044 -1.071480 -5.298942
v -6.260423 -3.510963 -5.304750
v -4.498804 -5.630531 -5.224341
v -7.173694 -0.756082 -5.260409
v -7.274902 -3.907384 -3.437822
v -5.169003 -6.362675 -3.583006
v -2.174320 -7.681225 -4.060827
v -6.836776 -5.533314 -1.684019
v -4.128897 -7.743344 -1.756289
v -3.048693 -6.854869 -4.762406
v 1.820966 -6.789220 -4.628809
v 0.606559 -6.128263 -5.083448
v 0.959380 -8.262344 -3.319840
v 3.370982 -7.627438 -3.137955
v 1.369344 -7.804871 -2.502891
v 2.048969 -8.241955 -0.722098
v 0.498107 -8.809710 -0.647249
v 1.850925 -8.571136 -1.588687
v 0.913492 -7.721210 2.433690
v 1.250154 -6.729116 4.481537
v -0.952841 -7.237099 1.602788
v 0.131694 -7.371078 4.292648
v -0.763125 -6.738643 3.305431
v 0.184858 -6.351661 4.593723
v -1.489466 -5.340457 4.653425
v -0.289210 -4.598580 6.156987
v 0.552873 -5.463193 5.765526
v 0.613147 -5.708576 5.650069
v -4.988096 -4.066459 6.144959
v -3.470316 -5.825908 5.704489
v -4.671158 -6.303120 4.355213
v -2.236260 -6.922201 5.136728
v -1.642283 -7.498642 4.420858
v 0.724639 -6.512319 5.001508
v -2.212267 -7.933523 3.365310
v -1.876349 -8.695339 -0.106676
v -3.250792 -8.108490 1.738574
v -5.643011 -6.726959 1.684765
v -4.102869 -7.962721 0.013666
v -6.853071 -5.743025 0.073143
v -7.763538 -4.072599 1.823562
v -8.515128 -2.747003 -0.000003
v -8.746886 -0.766459 1.684770
v -8.918185 0.720701 -0.000003
v -8.438088 -2.398904 -1.752556
v -8.551829 0.988788 2.546105
v -7.894124 -2.314984 3.490457
v -7.375512 -0.857269 4.970893
v -6.513791 -3.555679 4.979659
v -6.473579 -5.125412 3.431708
v -0.894072 -8.764727 -1.641615
v 1.183593 -6.544279 4.723014
v 0.924075 7.731670 2.389964
v 1.734537 8.186224 0.047879
v 0.619788 7.851095 -1.590976
v 0.711960 7.371714 -3.224856
vn 0.0464 0.9989 0.0024
vn 0.1031 0.8716 -0.4792
vn -0.2350 0.9108 -0.3393
vn 0.1107 0.6617 -0.7416
vn 0.0139 0.5640 -0.8257
vn 0.2691 0.8101 -0.5208
vn 0.3418 0.9396 0.0174
vn 0.2901 0.8897 -0.3526
vn -0.1776 0.9215 0.3453
vn -0.1583 0.9869 -0.0308
vn 0.1854 0.8445 0.5024
vn -0.3306 0.9185 0.2171
vn -0.6178 0.7568 0.2137
vn -0.5402 0.6996 0.4676
vn -0.0985 0.7436 0.6613
vn -0.8663 0.4623 0.1895
vn -0.7751 0.6317 0.0136
vn -0.4877 0.8730 0.0048
vn -0.7255 0.5072 0.4652
vn -0.4511 0.8696 -0.2009
vn -0.7526 0.6279 -0.1985
vn -0.9416 0.3192 -0.1073
vn -0.8809 0.2773 -0.3836
vn -0.7040 0.5870 -0.3997
vn -0.4333 0.8209 -0.3719
vn -0.9470 -0.0517 -0.3170
vn -0.8333 0.2450 -0.4956
vn -0.6899 0.5176 -0.5061
vn -0.5151 0.7005 -0.4940
vn -0.0050 0.1993 -0.9799
vn 0.0054 0.1073 -0.9942
vn -0.0026 0.0241 -0.9997
vn -0.0076 0.0025 -1.0000
vn 0.5596 -0.7660 0.3164
vn 0.5675 -0.6585 0.4943
vn 0.3634 -0.7818 0.5067
vn 0.8049 -0.4438 0.3940
vn 0.0119 0.4804 -0.8770
vn -0.0101 0.0190 -0.9998
vn 0.7231 -0.4561 0.5188
vn 0.7580 -0.6232 0.1926
vn 0.8439 -0.1883 0.5023
vn 0.9416 -0.0659 0.3301
vn 0.9352 -0.3028 0.1837
vn 0.8859 -0.4638 -0.0055
vn 0.6400 -0.7637 -0.0840
vn 0.4334 -0.8070 -0.4012
vn 0.7427 -0.5877 -0.3209
vn 0.4037 -0.9111 -0.0827
vn 0.5308 -0.6393 -0.5564
vn 0.8496 -0.2532 -0.4627
vn 0.6539 -0.3782 -0.6553
vn 0.9365 -0.2954 -0.1891
vn 0.5049 -0.4601 -0.7303
vn 0.4004 -0.6743 -0.6205
vn 0.3317 -0.7857 -0.5221
vn 0.0723 0.4977 0.8643
vn -0.0013 0.3313 0.9435
vn 0.2410 0.7452 0.6217
vn -0.0385 0.2075 0.9775
vn -0.0299 0.2225 0.9745
vn -0.4219 0.6862 0.5925
vn -0.5691 0.5406 0.6196
vn -0.0614 0.1084 0.9922
vn -0.6985 0.3465 0.6262
vn -0.0694 0.0220 0.9973
vn -0.0572 0.0399 0.9976
vn -0.8407 0.2553 0.4776
vn -0.7690 0.0903 0.6328
vn -0.0666 -0.0531 0.9964
vn -0.0455 -0.1457 0.9883
vn 0.6262 -0.1111 -0.7717
vn 0.5740 0.3226 -0.7526
vn 0.7392 0.0139 -0.6733
vn 0.6614 0.3902 -0.6406
vn 0.8266 0.2868 -0.4843
vn 0.9497 0.0375 -0.3108
vn 0.9348 0.3065 -0.1796
vn 0.9980 -0.0634 -0.0020
vn 0.9503 0.3003 0.0820
vn 0.7511 0.5976 -0.2808
vn 0.8932 0.2565 0.3694
vn 0.7385 0.6110 0.2852
vn 0.7674 0.6410 -0.0118
vn 0.5585 0.6321 0.5371
vn 0.4623 0.8292 0.3142
vn 0.6920 0.3982 0.6021
vn 0.4677 0.8836 0.0214
vn 0.8258 0.1291 0.5489
vn 0.0076 -0.0953 -0.9954
vn -0.0067 -0.0104 -0.9999
vn 0.0027 -0.0007 -1.0000
vn -0.0021 -0.0018 -1.0000
vn -0.0077 -0.1258 -0.9920
vn -0.5838 -0.7072 -0.3988
vn -0.7528 -0.4208 -0.5061
vn -0.5653 -0.6424 -0.5174
vn -0.0642 -0.0052 -0.9979
vn -0.8148 -0.4277 -0.3915
vn -0.8714 -0.0958 -0.4810
vn -0.4315 -0.7823 -0.4492
vn -0.1688 -0.8191 -0.5483
vn -0.4657 -0.8609 -0.2050
vn -0.7620 -0.6203 -0.1863
vn 0.0241 -0.4566 -0.8893
vn 0.0036 -0.4494 -0.8933
vn 0.1211 -0.6676 -0.7346
vn 0.2114 0.8635 0.4578
vn 0.3537 0.7968 0.4898
vn 0.1052 -0.8650 -0.4907
vn 0.2559 -0.8301 -0.4954
vn 0.0327 0.9311 0.3632
vn 0.1838 0.9349 0.3035
vn 0.2076 0.9735 0.0957
vn 0.2945 0.9216 -0.2530
vn 0.1479 -0.9834 0.1054
vn 0.4220 -0.8746 0.2388
vn 0.3074 -0.9050 0.2941
vn 0.3580 -0.9336 -0.0123
vn 0.6260 -0.7657 0.1478
vn 0.2833 0.8934 -0.3488
vn 0.4467 0.8004 -0.3997
vn 0.2250 -0.8398 0.4940
vn 0.3543 -0.7724 0.5272
vn 0.4711 0.8642 -0.1766
vn 0.3960 0.7718 -0.4975
vn 0.5397 0.6347 -0.5531
vn 0.4575 0.5878 -0.6672
vn 0.4780 0.6211 -0.6211
vn -0.0220 -0.4301 0.9025
vn -0.0002 -0.3356 0.9420
vn 0.0581 -0.5015 0.8632
vn -0.0110 -0.3307 0.9437
vn -0.0559 -0.1726 0.9834
vn -0.4305 -0.6594 0.6163
vn -0.6024 -0.4896 0.6304
vn -0.5147 -0.7089 0.4822
vn -0.1270 -0.6933 0.7094
vn 0.2019 -0.6793 0.7055
vn -0.0166 -0.8576 0.5141
vn -0.1583 -0.9247 0.3463
vn -0.1678 -0.9847 0.0479
vn -0.3417 -0.9143 0.2177
vn -0.6265 -0.7561 0.1889
vn -0.4711 -0.8821 -0.0011
vn -0.7638 -0.6454 0.0084
vn -0.8681 -0.4547 0.1994
vn -0.9512 -0.3085 0.0020
vn -0.9759 -0.1120 0.1870
vn -0.9964 0.0843 -0.0092
vn -0.9408 -0.2757 -0.1971
vn -0.9509 0.1241 0.2836
vn -0.8881 -0.2552 0.3822
vn -0.8330 -0.0823 0.5471
vn -0.7266 -0.4002 0.5585
vn -0.7311 -0.1982 0.6528
vn -0.7278 -0.5703 0.3807
vn -0.1088 -0.9773 -0.1820
vn 0.6912 0.4579 -0.5590
vn 0.6013 0.5506 -0.5790
vn 0.3117 -0.7196 0.6206
vn -0.3330 0.7022 -0.6293
vn 0.3275 0.9428 -0.0621
vn 0.2565 0.9240 0.2835
vn 0.2975 -0.9146 -0.2738
vn 0.3234 0.9083 0.2654
vn 0.1846 -0.9822 0.0333
vn 0.2712 -0.9466 0.1742
vn 0.0791 -0.9594 0.2709
vn 0.6051 0.7616 0.2318
vn 0.2661 -0.8806 0.3920
vn 0.1714 -0.8543 0.4906
vn 0.0902 -0.9234 0.3731
vt 0.734481 0.277763
vt 0.752195 0.273146
vt 0.753287 0.291299
vt 0.100714 0.234603
vt 0.125544 0.240731
vt 0.105631 0.244063
vt 0.756176 0.260036
vt 0.761984 0.267053
vt 0.740867 0.267148
vt 0.750356 0.258082
vt 0.704763 0.284212
vt 0.730063 0.287047
vt 0.701362 0.269605
vt 0.713353 0.292110
vt 0.192827 0.164036
vt 0.195370 0.180339
vt 0.177345 0.173067
vt 0.181308 0.183941
vt 0.694649 0.278385
vt 0.178817 0.163190
vt 0.214428 0.163515
vt 0.204218 0.152675
vt 0.183340 0.152192
vt 0.209693 0.180542
vt 0.734677 0.301261
vt 0.722917 0.300464
vt 0.204049 0.140512
vt 0.183372 0.140468
vt 0.225255 0.145418
vt 0.226155 0.129944
vt 0.204732 0.128886
vt 0.185507 0.129283
vt 0.245958 0.134186
vt 0.226162 0.117029
vt 0.207985 0.116848
vt 0.194764 0.117365
vt 0.139968 0.229354
vt 0.121513 0.222218
vt 0.150088 0.219326
vt 0.158673 0.203230
vt 0.032487 0.730803
vt 0.033042 0.749504
vt 0.020564 0.751155
vt 0.539103 0.072478
vt 0.520988 0.079755
vt 0.527540 0.060809
vt 0.108665 0.230479
vt 0.130336 0.211368
vt 0.541164 0.060682
vt 0.516460 0.070083
vt 0.542710 0.047967
vt 0.526782 0.039902
vt 0.518628 0.050947
vt 0.507308 0.059008
vt 0.499032 0.076840
vt 0.040654 0.722261
vt 0.030782 0.707814
vt 0.014422 0.695137
vt 0.032434 0.695301
vt 0.017195 0.710451
vt 0.488523 0.066068
vt 0.481162 0.079755
vt 0.473875 0.068489
vt 0.482521 0.045620
vt 0.470150 0.052691
vt 0.498045 0.048907
vt 0.942458 0.728456
vt 0.958591 0.727229
vt 0.950259 0.736564
vt 0.965706 0.739054
vt 0.000000 0.689792
vt 0.017648 0.685435
vt 0.002269 0.680994
vt 0.275993 0.071763
vt 0.273269 0.083054
vt 0.262112 0.066193
vt 0.263635 0.092970
vt 0.270876 0.061641
vt 0.255772 0.099748
vt 0.249546 0.075522
vt 0.193746 0.189598
vt 0.203476 0.191798
vt 0.244030 0.106531
vt 0.216838 0.193498
vt 0.229392 0.109443
vt 0.231646 0.081957
vt 0.225096 0.180807
vt 0.231531 0.194361
vt 0.213954 0.108039
vt 0.207333 0.077180
vt 0.559694 0.968684
vt 0.563467 0.944207
vt 0.569898 0.965586
vt 0.931395 0.739054
vt 0.471636 0.031373
vt 0.463322 0.037870
vt 0.571816 0.944012
vt 0.483322 0.016464
vt 0.474146 0.011187
vt 0.492977 0.029479
vt 0.500335 0.017311
vt 0.509705 0.037829
vt 0.516145 0.017934
vt 0.495924 0.000698
vt 0.531286 0.021879
vt 0.526986 0.003631
vt 0.511258 -0.000000
vt 0.621188 0.235999
vt 0.602122 0.249070
vt 0.602109 0.229103
vt 0.617868 0.250932
vt 0.585940 0.250055
vt 0.585577 0.229901
vt 0.540949 0.016728
vt 0.544168 0.031457
vt 0.998831 0.106587
vt 0.984955 0.112103
vt 0.970239 0.106587
vt 0.122151 0.157686
vt 0.154443 0.166328
vt 0.136293 0.182530
vt 0.135704 0.199173
vt 0.142739 0.152233
vt 0.466318 0.591522
vt 0.475307 0.601564
vt 0.463068 0.602599
vt 0.160501 0.184628
vt 0.263361 0.129433
vt 0.243978 0.117300
vt 0.258425 0.116848
vt 0.480782 0.588708
vt 0.452887 0.600707
vt 0.446469 0.596790
vt 0.457981 0.580397
vt 0.476407 0.577766
vt 0.108809 0.148900
vt 0.133080 0.144043
vt 0.100714 0.144454
vt 0.127230 0.138470
vt 0.615338 0.211687
vt 0.618861 0.220597
vt 0.106365 0.134517
vt 0.409256 0.593983
vt 0.425150 0.593901
vt 0.420623 0.602714
vt 0.604804 0.200631
vt 0.601002 0.212971
vt 0.588885 0.208346
vt 0.568397 0.217658
vt 0.426441 0.576083
vt 0.416376 0.577365
vt 0.422105 0.555690
vt 0.418127 0.583059
vt 0.555070 0.218435
vt 0.563340 0.230615
vt 0.426237 0.542844
vt 0.418891 0.542106
vt 0.574509 0.230128
vt 0.554704 0.225973
vt 0.555042 0.238708
vt 0.570840 0.250715
vt 0.545038 0.233346
vt 0.559694 0.930342
vt 0.568824 0.928262
vt 0.550908 0.250932
vt 0.547145 0.226031
vt 0.190040 0.063065
vt 0.195549 0.068884
vt 0.188432 0.062601
vt 0.186625 0.089687
vt 0.197903 0.100219
vt 0.183227 0.097506
vt 0.441498 0.535739
vt 0.449594 0.530981
vt 0.458230 0.539304
vt 0.179686 0.081203
vt 0.183158 0.061641
vt 0.437857 0.540968
vt 0.442155 0.547715
vt 0.177345 0.065344
vt 0.441843 0.571063
vt 0.449963 0.557896
vt 0.466166 0.556488
vt 0.456680 0.568760
vt 0.475396 0.566186
vt 0.480782 0.553660
vt 0.265262 0.164470
vt 0.259261 0.152489
vt 0.273216 0.152683
vt 0.272021 0.141008
vt 0.247644 0.163716
vt 0.239129 0.152552
vt 0.257061 0.140832
vt 0.236348 0.169398
vt 0.254744 0.175561
vt 0.244375 0.185298
vt 0.258608 0.185208
vt 0.245447 0.194130
vt 0.218675 0.116848
vt 0.268206 0.174922
vt 0.200974 0.110448
vt 0.471009 0.544050
vt 0.470738 0.533407
vt 0.459813 0.526734
vt 0.436260 0.581817
vt 0.547814 0.225072
vt 0.551818 0.222376
vt 0.422106 0.538301
vt 0.419232 0.540424
vt 0.815598 0.972648
vt 0.816554 0.971806
vt 0.816554 0.975532
vt 0.996691 0.971708
vt 0.986656 0.971708
vt 0.988172 0.970910
vt 0.700891 0.258082
vt 0.714832 0.265249
vt 0.006019 0.703347
vt 0.731047 0.264430
vt 0.004978 0.719631
vt 0.014896 0.728311
vt 0.000000 0.739286
vt 0.017036 0.739081
vt 0.012295 0.750236
vt 0.003105 0.744943
vt 0.178464 0.124003
vt 0.745999 0.301125
s 1
usemtl pleuraldeles_skin
f 7/1/1 1/2/2 2/3/3
f 3/4/4 2/5/5 1/6/2
f 1/2/2 6/7/6 3/8/4
f 4/9/7 5/10/8 1/2/2
f 1/2/2 7/1/1 4/9/7
f 1/2/2 5/10/8 6/7/6
f 10/11/9 7/1/1 8/12/10
f 2/3/3 8/12/10 7/1/1
f 9/13/11 4/9/7 7/1/1
f 7/1/1 10/11/9 9/13/11
f 8/12/10 13/14/12 10/11/9
f 14/15/13 11/16/14 10/17/9
f 11/16/14 12/18/15 10/17/9
f 9/13/11 10/11/9 12/19/15
f 14/15/13 10/17/9 13/20/12
f 16/21/16 14/15/13 15/22/17
f 14/15/13 18/23/18 15/22/17
f 17/24/19 14/15/13 16/21/16
f 17/24/19 11/16/14 14/15/13
f 18/23/18 14/15/13 13/20/12
f 8/12/10 19/25/20 18/26/18
f 13/14/12 8/12/10 18/26/18
f 20/27/21 18/23/18 19/28/20
f 20/27/21 15/22/17 18/23/18
f 22/29/22 15/22/17 20/27/21
f 24/30/23 20/27/21 21/31/24
f 20/27/21 23/32/25 21/31/24
f 24/30/23 22/29/22 20/27/21
f 20/27/21 19/28/20 23/32/25
f 26/33/26 24/30/23 25/34/27
f 24/30/23 27/35/28 25/34/27
f 26/33/26 22/29/22 24/30/23
f 24/30/23 21/31/24 27/35/28
f 28/36/29 27/35/28 21/31/24
f 28/37/30 29/38/31 27/39/32
f 27/39/32 29/38/31 25/40/33
f 30/41/34 29/42/35 31/43/36
f 29/44/35 30/45/34 33/46/37
f 28/37/30 31/47/38 29/38/31
f 25/40/33 29/38/31 32/48/39
f 29/44/35 33/46/37 32/49/40
f 33/46/37 30/45/34 37/50/41
f 34/51/42 33/46/37 35/52/43
f 32/49/40 33/46/37 34/51/42
f 33/46/37 36/53/44 35/52/43
f 33/46/37 37/50/41 36/53/44
f 36/53/44 37/50/41 38/54/45
f 37/50/41 39/55/46 38/54/45
f 37/56/41 30/41/34 39/57/46
f 39/57/46 40/58/47 42/59/48
f 41/60/49 40/58/47 39/57/46
f 30/41/34 41/60/49 39/57/46
f 39/55/46 42/61/48 38/54/45
f 42/61/48 40/62/47 46/63/50
f 43/64/51 42/61/48 45/65/52
f 42/61/48 43/64/51 44/66/53
f 38/54/45 42/61/48 44/66/53
f 42/61/48 46/63/50 45/65/52
f 45/67/52 46/68/50 47/69/54
f 46/68/50 49/70/55 47/69/54
f 40/58/47 48/71/56 46/72/50
f 46/72/50 48/71/56 49/73/55
f 9/74/11 12/75/15 49/76/57
f 12/75/15 50/77/58 49/76/57
f 9/74/11 49/76/57 48/78/59
f 50/77/58 51/79/60 49/76/57
f 47/80/61 49/76/57 51/79/60
f 50/81/62 11/16/14 51/82/63
f 51/79/60 52/83/64 47/80/61
f 51/82/63 17/24/19 52/84/65
f 51/82/63 11/16/14 17/24/19
f 52/83/64 53/85/66 55/86/67
f 52/84/65 54/87/68 53/88/69
f 52/84/65 17/24/19 54/87/68
f 47/80/61 52/83/64 55/86/67
f 56/89/70 55/86/67 53/85/66
f 56/89/70 57/90/71 55/86/67
f 55/91/72 57/92/73 58/93/74
f 45/67/52 47/69/54 55/94/72
f 58/95/74 45/65/52 55/96/72
f 58/93/74 57/92/73 59/97/75
f 60/98/76 58/95/74 59/99/75
f 61/100/77 58/95/74 60/98/76
f 43/64/51 45/65/52 58/95/74
f 61/100/77 43/64/51 58/95/74
f 62/101/78 61/100/77 60/98/76
f 63/102/79 61/100/77 62/101/78
f 63/102/79 44/66/53 61/100/77
f 61/100/77 44/66/53 43/64/51
f 35/52/43 36/53/44 63/102/79
f 64/103/80 35/52/43 63/102/79
f 36/53/44 38/54/45 63/102/79
f 38/54/45 44/66/53 63/102/79
f 63/102/79 62/101/78 64/103/80
f 64/103/80 62/101/78 67/104/81
f 66/105/82 35/52/43 64/103/80
f 68/106/83 64/103/80 65/107/84
f 64/103/80 67/104/81 65/107/84
f 66/105/82 64/103/80 68/106/83
f 69/108/85 68/109/83 70/110/86
f 72/111/87 68/109/83 69/108/85
f 68/109/83 65/112/84 71/113/88
f 68/109/83 71/113/88 70/110/86
f 72/114/87 66/105/82 68/106/83
f 73/115/89 66/105/82 72/114/87
f 73/116/89 72/117/87 69/118/85
f 69/119/90 74/120/91 73/121/92
f 73/115/89 35/52/43 66/105/82
f 34/51/42 35/52/43 73/115/89
f 73/121/92 74/120/91 34/122/93
f 69/119/90 75/123/94 74/120/91
f 78/124/95 74/125/96 75/126/97
f 25/40/33 74/120/91 76/127/98
f 77/128/99 76/129/100 74/130/96
f 74/120/91 25/40/33 34/122/93
f 78/124/95 77/131/99 74/125/96
f 82/132/101 79/133/102 78/124/95
f 81/134/103 78/124/95 79/133/102
f 80/135/104 77/131/99 78/124/95
f 82/132/101 78/124/95 75/126/97
f 81/134/103 80/135/104 78/124/95
f 84/136/105 82/137/106 75/123/94
f 83/138/107 79/139/102 82/137/106
f 84/136/105 83/138/107 82/137/106
f 83/140/108 84/141/109 70/110/86
f 69/119/90 84/136/105 75/123/94
f 84/141/109 69/108/85 70/110/86
f 85/142/110 79/139/102 83/138/107
f 86/143/111 85/144/110 83/145/107
f 86/146/112 83/140/108 87/147/113
f 83/140/108 70/110/86 87/147/113
f 88/148/114 86/146/112 87/147/113
f 87/147/113 71/113/88 88/148/114
f 87/147/113 70/110/86 71/113/88
f 91/149/115 88/148/114 71/113/88
f 89/150/116 88/151/117 91/152/118
f 88/151/117 89/150/116 90/153/119
f 90/153/119 86/143/120 88/151/117
f 92/154/121 91/149/115 95/155/122
f 94/156/123 91/152/118 92/157/124
f 71/113/88 93/158/125 91/149/115
f 93/158/125 95/155/122 91/149/115
f 91/152/118 94/156/123 89/150/116
f 95/155/122 96/159/126 92/154/121
f 96/159/126 95/155/122 97/160/127
f 97/160/127 95/155/122 67/161/81
f 67/161/81 95/155/122 93/158/125
f 96/159/126 97/160/127 98/162/128
f 59/97/75 98/163/128 97/164/127
f 67/161/81 59/165/75 97/160/127
f 98/162/128 99/166/129 96/159/126
f 99/167/130 98/168/131 100/169/132
f 59/97/75 57/92/73 98/163/128
f 98/168/131 102/170/133 100/169/132
f 98/168/131 101/171/134 102/170/133
f 57/90/71 101/171/134 98/168/131
f 102/170/135 101/171/136 103/172/137
f 104/173/138 102/174/135 103/175/137
f 102/170/133 104/176/138 100/169/132
f 100/169/132 104/176/138 106/177/139
f 105/178/140 104/173/138 107/179/141
f 104/173/138 105/178/140 94/156/123
f 104/176/138 94/180/123 106/177/139
f 103/175/137 107/179/141 104/173/138
f 107/179/141 108/181/142 89/150/116
f 107/179/141 89/150/116 94/156/123
f 108/181/142 107/179/141 109/182/143
f 109/182/143 107/179/141 103/175/137
f 105/178/140 107/179/141 94/156/123
f 109/182/143 110/183/144 111/184/145
f 109/182/143 103/175/137 110/183/144
f 109/182/143 111/184/145 108/181/142
f 110/183/144 112/185/146 111/184/145
f 108/181/142 111/184/145 81/134/103
f 111/184/145 112/185/146 80/135/104
f 111/184/145 80/135/104 81/134/103
f 110/183/144 113/186/147 112/185/146
f 113/187/147 114/188/148 112/189/146
f 80/190/104 112/189/146 114/188/148
f 113/187/147 115/191/149 114/188/148
f 115/191/149 116/192/150 114/188/148
f 117/193/151 114/188/148 116/192/150
f 80/190/104 114/188/148 117/193/151
f 80/190/104 117/193/151 77/128/99
f 117/193/151 26/33/26 77/128/99
f 117/193/151 116/192/150 26/33/26
f 26/33/26 116/192/150 22/29/22
f 118/194/152 22/29/22 116/192/150
f 115/191/149 118/194/152 116/192/150
f 118/194/152 16/21/16 22/29/22
f 118/194/152 54/87/68 16/21/16
f 115/191/149 119/195/153 118/194/152
f 119/195/153 120/196/154 118/194/152
f 118/194/152 120/196/154 54/87/68
f 119/195/153 121/197/155 120/196/154
f 56/198/156 120/196/154 121/197/155
f 54/87/68 120/196/154 53/88/69
f 56/89/156 53/85/69 120/199/154
f 122/200/157 121/197/155 119/195/153
f 101/171/136 56/89/156 121/201/155
f 122/202/157 103/175/137 121/203/155
f 101/204/136 121/203/155 103/175/137
f 110/183/144 103/175/137 122/202/157
f 122/202/157 113/186/147 110/183/144
f 122/200/157 119/195/153 113/187/147
f 113/187/147 119/195/153 115/191/149
f 108/181/142 123/205/158 89/150/116
f 108/181/142 81/134/103 123/205/158
f 90/153/119 89/150/116 123/205/158
f 85/144/110 90/153/119 123/205/158
f 85/144/110 123/205/158 79/133/102
f 79/133/102 123/205/158 81/134/103
f 100/206/159 106/207/160 96/159/126
f 106/208/139 94/156/123 124/209/161
f 124/210/162 92/211/162 106/212/162
f 106/207/163 92/154/121 96/159/126
f 92/157/124 124/209/161 94/156/123
f 57/90/71 56/89/70 101/171/134
f 96/213/126 99/214/129 100/215/159
f 65/112/84 67/161/81 93/158/125
f 65/112/84 93/158/125 71/113/88
f 90/153/119 85/144/110 86/143/111
f 77/128/99 26/33/26 76/129/100
f 26/33/26 25/34/27 76/129/100
f 62/101/78 60/98/76 67/104/81
f 60/98/76 59/99/75 67/104/81
f 54/87/68 17/24/19 16/21/16
f 50/81/62 12/18/15 11/16/14
f 48/216/59 125/217/164 9/13/11
f 125/218/165 48/71/56 40/58/47
f 4/9/7 9/13/11 125/217/164
f 125/218/165 40/58/47 41/60/49
f 125/217/164 126/219/166 4/9/7
f 41/60/49 126/220/167 125/218/165
f 127/221/168 126/220/167 41/60/49
f 127/221/168 5/222/169 126/220/167
f 4/9/7 126/219/166 5/10/170
f 30/41/34 127/221/168 41/60/49
f 127/221/168 128/223/171 5/222/169
f 128/223/171 127/221/168 30/41/34
f 3/224/172 6/225/173 128/223/171
f 128/223/171 6/225/173 5/222/169
f 128/223/171 31/43/36 3/224/172
f 30/41/34 31/43/36 128/223/171
f 25/40/33 32/48/39 34/122/93
f 2/5/5 31/47/38 28/37/30
f 2/5/5 3/4/4 31/47/38
f 2/226/3 28/36/29 23/32/25
f 28/36/29 21/31/24 23/32/25
f 8/12/10 2/3/3 23/227/25
f 8/12/10 23/227/25 19/25/20
f 16/21/16 15/22/17 22/29/22
