# Blender 4.2.0
# www.blender.org
mtllib link_4.mtl
o joint_3
v -0.000279 -0.000859 -0.000903
v 0.000721 -0.000859 -0.000903
v -0.000903 -0.000000 -0.000903
v 0.000097 -0.000000 -0.000903
v -0.000279 0.000859 -0.000903
v 0.000305 -0.000973 0.000613
v 0.000721 0.000859 -0.000903
v 0.000306 -0.001000 0.000189
v -0.000731 -0.000531 0.000903
v 0.000294 -0.001041 -0.000230
v 0.000269 -0.000531 0.000903
v -0.000731 0.000531 0.000903
v 0.000269 0.000531 0.000903
v 0.000925 -0.000989 0.000633
v 0.000951 -0.001031 0.000197
v 0.000961 -0.001093 -0.000226
v -0.000030 -0.000873 -0.001015
v 0.000970 -0.000873 -0.001015
v -0.000761 -0.000000 -0.001328
v 0.000239 -0.000000 -0.001328
v 0.000511 -0.000724 -0.001015
v -0.000489 -0.000724 -0.001015
v 0.000305 -0.000505 -0.001062
v 0.000161 -0.000241 -0.001015
v -0.000695 -0.000505 -0.001062
v -0.000839 -0.000241 -0.001015
v 0.000161 0.000241 -0.001015
v 0.000305 0.000505 -0.001062
v 0.000511 0.000724 -0.001015
v -0.000839 0.000241 -0.001015
v 0.000970 0.000873 -0.001015
v -0.000695 0.000505 -0.001062
v 0.001000 -0.001010 0.000000
v -0.000489 0.000724 -0.001015
v -0.000030 0.000873 -0.001015
v 0.000843 -0.000965 -0.000507
v -0.000157 -0.000965 -0.000507
v 0.000131 -0.000447 0.000507
v -0.000869 -0.000447 0.000507
v 0.000039 -0.000312 0.000000
v -0.000355 -0.000405 0.001587
v -0.000961 -0.000312 0.000000
v 0.000034 -0.000149 -0.000507
v -0.000966 -0.000149 -0.000507
v -0.000440 -0.000873 -0.000507
v 0.000560 -0.000873 -0.000507
v 0.000406 -0.000817 0.000000
v -0.000594 -0.000817 0.000000
v -0.000694 -0.000689 0.000507
v 0.000306 -0.000689 0.000507
v -0.000694 0.000689 0.000507
v 0.000306 0.000689 0.000507
v -0.000594 0.000817 -0.000000
v 0.000406 0.000817 -0.000000
v -0.000440 0.000873 -0.000507
v 0.000560 0.000873 -0.000507
v -0.000966 0.000149 -0.000507
v 0.000034 0.000149 -0.000507
v -0.000961 0.000312 -0.000000
v 0.000039 0.000312 -0.000000
v -0.000869 0.000447 0.000507
v 0.000131 0.000447 0.000507
v -0.000157 0.000965 -0.000507
v 0.000843 0.000965 -0.000507
v 0.001000 0.001010 -0.000000
v -0.000537 -0.000689 0.001015
v -0.000821 -0.000298 0.001015
v 0.000282 -0.000421 0.001617
v -0.000859 0.000000 0.001062
v 0.000463 -0.000689 0.001015
v -0.000821 0.000298 0.001015
v 0.000179 -0.000298 0.001015
v -0.000537 0.000689 0.001015
v 0.000298 -0.000837 0.001002
v 0.000141 0.000000 0.001062
v 0.000179 0.000298 0.001015
v 0.000463 0.000689 0.001015
v 0.000318 0.000000 0.001772
v -0.000616 -0.000447 0.001328
v 0.000384 -0.000447 0.001328
v -0.000283 0.000000 0.001729
v -0.000616 0.000447 0.001328
v 0.000384 0.000447 0.001328
v 0.000322 0.000164 0.001462
v 0.000322 -0.000164 0.001462
v 0.000860 0.000961 0.000558
v 0.000688 0.000961 -0.000000
v -0.000678 0.000164 0.001462
v -0.000678 -0.000164 0.001462
v 0.000548 0.000859 0.000558
v 0.000043 0.000164 0.000558
v -0.000010 0.000000 0.000000
v 0.000043 -0.000164 0.000558
v 0.000548 -0.000859 0.000558
v -0.000312 0.000961 -0.000000
v -0.000452 0.000859 0.000558
v 0.000688 -0.000961 0.000000
v -0.000957 0.000164 0.000558
v 0.000860 -0.000961 0.000558
v -0.001010 0.000000 0.000000
v -0.000957 -0.000164 0.000558
v 0.000183 0.000594 -0.000000
v -0.000452 -0.000859 0.000558
v -0.000312 -0.000961 0.000000
v 0.000322 0.000695 -0.000558
v 0.000130 0.000430 -0.000558
v -0.000817 0.000594 -0.000000
v -0.000678 0.000695 -0.000558
v 0.000183 -0.000594 0.000000
v -0.000870 0.000430 -0.000558
v -0.000817 -0.000594 0.000000
v 0.000130 -0.000430 -0.000558
v -0.000870 -0.000430 -0.000558
v 0.000322 -0.000695 -0.000558
v -0.000678 -0.000695 -0.000558
v -0.000645 0.000265 -0.001462
v -0.000645 -0.000265 -0.001462
v 0.000355 0.000265 -0.001462
v 0.000355 -0.000265 -0.001462
v 0.000000 0.000963 0.000534
v 0.001000 0.000963 0.000534
v 0.001000 0.001010 -0.000000
v 0.000000 -0.000963 0.000534
v 0.000000 0.000963 -0.000534
v 0.001000 -0.000963 0.000534
v 0.001000 -0.001010 0.000000
v 0.000000 0.000888 -0.000934
v 0.000000 0.000867 -0.001019
v 0.001000 0.001010 -0.000000
v 0.000000 -0.000963 -0.000534
v 0.001000 0.001010 -0.000000
v 0.000000 -0.000888 -0.000934
v 0.000000 -0.000867 -0.001019
v 0.001000 0.000963 -0.000534
v 0.001000 0.000888 -0.000934
v 0.001000 0.000867 -0.001019
v 0.001000 -0.001010 0.000000
v 0.001000 -0.001010 0.000000
v 0.001000 -0.000963 -0.000534
v 0.001000 -0.000888 -0.000934
v 0.001000 -0.000867 -0.001019
v -0.000445 -0.000000 -0.001509
v 0.000334 -0.000507 -0.001426
v -0.000396 -0.000516 -0.001432
v 0.000293 -0.001027 -0.000677
v 0.000298 -0.000852 -0.001108
v 0.000961 -0.001052 -0.000668
v 0.000953 -0.000865 -0.001096
v 0.000284 -0.000720 0.001342
v 0.000306 0.001000 0.000189
v 0.000305 0.000973 0.000613
v 0.000294 0.001041 -0.000230
v 0.000298 0.000837 0.001002
v 0.000961 0.001093 -0.000226
v 0.000951 0.001031 0.000197
v 0.000925 0.000989 0.000633
v -0.000355 0.000405 0.001587
v 0.000284 0.000720 0.001342
v 0.000282 0.000421 0.001617
v 0.000293 0.001027 -0.000677
v -0.000396 0.000516 -0.001432
v 0.000334 0.000507 -0.001426
v 0.000298 0.000852 -0.001108
v 0.000961 0.001052 -0.000668
v 0.000953 0.000865 -0.001096
v 0.001000 -0.000992 0.000581
v 0.001000 -0.001029 0.000197
v 0.001000 -0.000985 0.000635
v 0.001000 -0.001035 0.000164
v 0.001000 -0.001092 -0.000225
v 0.001000 -0.000914 0.000796
v 0.000951 -0.000914 0.000802
v 0.000911 -0.000898 0.000843
v 0.000609 -0.000579 0.001448
v 0.000606 -0.000566 0.001460
v 0.000751 -0.000693 0.001333
v 0.000650 -0.000628 0.001399
v 0.000621 -0.000601 0.001427
v 0.000585 -0.000415 0.001614
v 0.000776 -0.000858 0.000921
v 0.000765 -0.000852 0.000939
v 0.000738 -0.000830 0.001002
v 0.000521 -0.000282 0.001667
v 0.000521 -0.000254 0.001678
v 0.000535 -0.000338 0.001645
v 0.000520 -0.000020 0.001764
v 0.000525 0.000000 0.001771
v 0.000386 -0.000299 -0.001469
v 0.000403 -0.000331 -0.001462
v 0.000506 -0.000504 -0.001421
v 0.000363 -0.000248 -0.001479
v 0.000367 -0.000265 -0.001475
v 0.000357 -0.000000 -0.001528
v 0.000627 -0.000677 -0.001255
v 0.000539 -0.000579 -0.001350
v 0.000510 -0.000527 -0.001399
v 0.000749 -0.000773 -0.001174
v 0.000674 -0.000724 -0.001215
v 0.000888 -0.000814 -0.001139
v 0.000954 -0.000823 -0.001131
v 0.001000 -0.001053 -0.000639
v 0.001000 -0.001050 -0.000667
v 0.001000 -0.000864 -0.001094
v 0.001000 -0.001039 -0.000693
v 0.001000 -0.000827 -0.001128
v 0.001000 -0.000845 -0.001113
v 0.000991 -0.000828 -0.001127
v 0.000720 -0.000726 0.001242
v 0.000710 -0.000762 0.001161
v 0.000712 -0.000807 0.001058
v 0.000721 -0.000820 0.001027
v 0.001000 0.000992 0.000581
v 0.001000 0.000985 0.000635
v 0.001000 0.001029 0.000197
v 0.001000 0.001035 0.000164
v 0.001000 0.001092 -0.000225
v 0.001000 0.000914 0.000796
v 0.000951 0.000914 0.000802
v 0.000911 0.000898 0.000843
v 0.000606 0.000566 0.001460
v 0.000585 0.000415 0.001614
v 0.000609 0.000579 0.001448
v 0.000751 0.000693 0.001333
v 0.000650 0.000628 0.001399
v 0.000621 0.000601 0.001427
v 0.000765 0.000852 0.000939
v 0.000776 0.000858 0.000921
v 0.000738 0.000830 0.001002
v 0.000520 0.000020 0.001764
v 0.000521 0.000254 0.001678
v 0.000521 0.000282 0.001667
v 0.000535 0.000338 0.001645
v 0.000506 0.000504 -0.001421
v 0.000386 0.000299 -0.001469
v 0.000403 0.000331 -0.001462
v 0.000357 -0.000000 -0.001528
v 0.000363 0.000248 -0.001479
v 0.000367 0.000265 -0.001475
v 0.000627 0.000677 -0.001255
v 0.000674 0.000724 -0.001215
v 0.000749 0.000773 -0.001174
v 0.000954 0.000823 -0.001131
v 0.000888 0.000814 -0.001139
v 0.000539 0.000579 -0.001350
v 0.000510 0.000527 -0.001399
v 0.001000 0.001053 -0.000639
v 0.001000 0.001050 -0.000667
v 0.001000 0.001039 -0.000693
v 0.001000 0.000864 -0.001094
v 0.001000 0.000845 -0.001113
v 0.001000 0.000827 -0.001128
v 0.000991 0.000828 -0.001127
v 0.000710 0.000762 0.001161
v 0.000712 0.000807 0.001058
v 0.000720 0.000726 0.001242
v 0.000721 0.000820 0.001027
v -0.000493 0.000358 0.001586
v -0.000460 0.000400 0.001576
v -0.000441 0.000550 0.001421
v -0.000335 0.000678 0.001302
v -0.000353 0.000740 0.001132
v -0.000357 0.000658 0.001320
v -0.000361 0.000772 0.001045
v -0.000406 0.000616 0.001357
v -0.000528 0.000253 0.001616
v -0.000533 0.000123 0.001659
v -0.000529 0.000056 0.001689
v -0.000512 0.000000 0.001715
v -0.000529 -0.000056 0.001689
v -0.000533 -0.000123 0.001659
v -0.000528 -0.000253 0.001616
v -0.000493 -0.000358 0.001586
v -0.000460 -0.000400 0.001576
v -0.000441 -0.000550 0.001421
v -0.000406 -0.000616 0.001357
v -0.000335 -0.000678 0.001302
v -0.000353 -0.000740 0.001132
v -0.000357 -0.000658 0.001320
v -0.000361 -0.000772 0.001045
v 0.000000 0.000969 0.000460
v -0.000045 0.000962 0.000542
v -0.000138 0.000988 -0.000000
v -0.000021 0.001004 -0.000069
v 0.000000 0.000940 0.000654
v -0.000130 0.000955 0.000585
v -0.000121 0.000951 0.000608
v -0.000144 0.000955 0.000577
v -0.000159 0.000939 0.000635
v -0.000268 0.000961 0.000143
v -0.000240 0.000967 0.000099
v -0.000173 0.000961 0.000450
v -0.000162 0.000961 0.000476
v -0.000163 0.000961 0.000482
v -0.000268 0.000957 0.000178
v -0.000153 0.000956 0.000558
v -0.000328 0.000831 0.000893
v -0.000349 0.000794 0.000989
v -0.000344 0.000803 0.000964
v -0.000344 0.000802 0.000969
v -0.000344 0.000802 0.000967
v -0.000349 -0.000794 0.000989
v -0.000344 -0.000803 0.000964
v -0.000328 -0.000831 0.000893
v -0.000344 -0.000802 0.000969
v -0.000344 -0.000802 0.000967
v -0.000268 -0.000961 0.000143
v -0.000268 -0.000957 0.000178
v -0.000153 -0.000956 0.000558
v -0.000163 -0.000961 0.000482
v -0.000173 -0.000961 0.000450
v -0.000144 -0.000955 0.000577
v -0.000159 -0.000939 0.000635
v -0.000130 -0.000955 0.000585
v -0.000121 -0.000951 0.000608
v -0.000021 -0.001004 -0.000069
v -0.000138 -0.000988 0.000000
v -0.000240 -0.000967 0.000099
v -0.000162 -0.000961 0.000476
v 0.000000 -0.000969 0.000460
v -0.000045 -0.000962 0.000542
v 0.000000 -0.000940 0.000654
v 0.000000 0.001004 -0.000068
v 0.000000 -0.001004 -0.000068
v 0.000000 0.000833 -0.001112
v -0.000012 0.000836 -0.001108
v -0.000095 0.000826 -0.001114
v -0.000254 0.000781 -0.001147
v -0.000331 0.000724 -0.001210
v -0.000259 0.000778 -0.001150
v -0.000389 0.000651 -0.001288
v -0.000459 0.000567 -0.001378
v -0.000477 0.000528 -0.001419
v -0.000613 0.000308 -0.001462
v -0.000640 0.000265 -0.001468
v -0.000479 0.000517 -0.001432
v -0.000641 0.000258 -0.001469
v -0.000654 -0.000000 -0.001510
v -0.000654 -0.000000 -0.001510
v -0.000641 -0.000258 -0.001469
v -0.000640 -0.000265 -0.001468
v -0.000613 -0.000308 -0.001462
v -0.000479 -0.000517 -0.001432
v -0.000477 -0.000528 -0.001419
v -0.000459 -0.000567 -0.001378
v -0.000331 -0.000724 -0.001210
v -0.000389 -0.000651 -0.001288
v -0.000254 -0.000781 -0.001147
v -0.000259 -0.000778 -0.001150
v -0.000095 -0.000826 -0.001114
v -0.000012 -0.000836 -0.001108
v 0.000000 -0.000833 -0.001112
v 0.000000 -0.000917 -0.000912
v 0.000000 -0.001015 -0.000672
v 0.000000 -0.001023 -0.000421
v 0.000000 -0.001034 -0.000227
v 0.000000 -0.000960 0.000602
v 0.000000 -0.000844 -0.001101
v 0.000000 0.000917 -0.000912
v 0.000000 0.001023 -0.000421
v 0.000000 0.001015 -0.000672
v 0.000000 0.001034 -0.000227
v 0.000000 0.000960 0.000602
v 0.000000 0.000844 -0.001101
vn -0.1479 -0.9659 -0.2124
vn -0.9644 -0.1576 -0.2125
vn -0.9644 -0.1573 -0.2126
vn -0.4482 0.8683 -0.2124
vn -0.3053 -0.9392 -0.1570
vn -0.3053 -0.9392 -0.1573
vn -0.9876 -0.0000 -0.1568
vn -0.9876 -0.0000 -0.1571
vn -0.3053 0.9392 -0.1570
vn -0.3052 0.9393 -0.1569
vn -0.7015 -0.6387 0.3161
vn -0.8241 0.4702 0.3159
vn -0.6211 0.6008 0.5033
vn -0.4503 0.8223 0.3478
vn -0.4503 0.8224 0.3478
vn -0.6100 0.6946 0.3812
vn -0.6101 0.6946 0.3812
vn -0.7017 0.6385 0.3161
vn -0.7619 0.3999 0.5095
vn -0.7619 0.2260 0.6069
vn -0.8367 -0.0000 0.5477
vn -0.7620 -0.2260 0.6069
vn -0.7619 -0.2260 0.6069
vn -0.7619 -0.3999 0.5095
vn -0.8489 0.3656 0.3817
vn -0.8489 0.3657 0.3817
vn -0.9215 0.1735 0.3475
vn -0.9105 -0.0000 0.4136
vn -0.9215 -0.1735 0.3475
vn -0.8489 -0.3656 0.3817
vn -0.8242 -0.4699 0.3160
vn -0.8241 -0.4702 0.3159
vn -0.6139 -0.6035 0.5088
vn -0.6100 -0.6946 0.3812
vn -0.4488 -0.8245 0.3447
vn 0.0004 0.9961 0.0883
vn -0.1543 0.9875 -0.0311
vn -0.1544 0.9875 -0.0312
vn 0.0205 0.9827 0.1840
vn 0.0204 0.9827 0.1840
vn -0.1278 0.9654 0.2271
vn -0.1279 0.9654 0.2272
vn -0.1486 0.9880 0.0426
vn -0.1486 0.9880 0.0427
vn -0.1561 0.9866 0.0483
vn -0.3044 0.9477 0.0954
vn -0.3044 0.9477 0.0955
vn -0.3039 0.9332 0.1918
vn -0.1272 0.9408 0.3142
vn -0.1273 0.9408 0.3142
vn -0.3079 0.9475 -0.0860
vn -0.3079 0.9475 -0.0859
vn -0.4539 0.8902 -0.0394
vn -0.4538 0.8902 -0.0394
vn -0.4535 0.8900 0.0483
vn -0.4536 0.8899 0.0484
vn -0.5856 0.8058 0.0883
vn -0.5857 0.8057 0.0883
vn -0.5913 0.7855 0.1828
vn -0.6873 0.6946 0.2124
vn -0.6874 0.6946 0.2124
vn -0.8730 0.4391 0.2122
vn -0.8730 0.4391 0.2123
vn -0.9472 0.3083 0.0883
vn -0.9869 0.1563 -0.0393
vn -0.9297 0.3199 0.1828
vn -0.9579 0.1606 0.2380
vn -0.9579 0.1606 0.2379
vn -0.9866 0.1561 0.0483
vn -0.9866 0.1560 0.0483
vn -0.9955 -0.0000 0.0949
vn -0.9817 -0.0000 0.1904
vn -0.9817 -0.0000 0.1905
vn -0.9579 -0.1606 0.2379
vn -0.9579 -0.1607 0.2379
vn -0.9963 -0.0000 -0.0861
vn -0.9963 -0.0000 -0.0865
vn -0.9869 -0.1563 -0.0393
vn -0.9866 -0.1561 0.0483
vn -0.9866 -0.1560 0.0483
vn -0.9472 -0.3083 0.0883
vn -0.9297 -0.3199 0.1828
vn -0.8730 -0.4391 0.2123
vn -0.6874 -0.6946 0.2124
vn -0.6874 -0.6945 0.2124
vn -0.6873 -0.6946 0.2124
vn -0.5856 -0.8057 0.0883
vn -0.5856 -0.8058 0.0883
vn -0.4539 -0.8902 -0.0394
vn -0.5913 -0.7855 0.1828
vn -0.5912 -0.7855 0.1827
vn -0.4537 -0.8633 0.2210
vn -0.4535 -0.8900 0.0483
vn -0.3457 -0.9324 0.1053
vn -0.2856 -0.9401 0.1860
vn -0.1278 -0.9654 0.2271
vn -0.1279 -0.9654 0.2272
vn -0.3079 -0.9475 -0.0860
vn -0.3079 -0.9475 -0.0859
vn -0.1543 -0.9875 -0.0311
vn -0.1544 -0.9875 -0.0312
vn -0.1487 -0.9880 0.0426
vn -0.1486 -0.9880 0.0426
vn -0.1561 -0.9866 0.0483
vn 0.0004 -0.9961 0.0883
vn 0.0204 -0.9827 0.1840
vn 0.0205 -0.9827 0.1840
vn 0.0055 0.9961 -0.0880
vn 0.0053 0.9961 -0.0880
vn 0.1431 0.9607 -0.2379
vn -0.0076 0.9837 -0.1796
vn -0.0077 0.9837 -0.1796
vn -0.1479 0.9659 -0.2124
vn -0.1478 0.9659 -0.2124
vn -0.7990 0.5805 0.1567
vn -0.7066 0.7066 0.0390
vn -0.5851 0.8061 -0.0883
vn -0.8060 0.5856 0.0860
vn -0.8061 0.5856 0.0860
vn -0.8903 0.4537 0.0394
vn -0.8903 0.4536 0.0393
vn -0.7063 0.7063 -0.0481
vn -0.8054 0.5850 -0.0951
vn -0.8900 0.4535 -0.0483
vn -0.9474 0.3075 -0.0883
vn -0.9475 0.3075 -0.0882
vn -0.5641 0.8052 -0.1827
vn -0.5642 0.8052 -0.1828
vn -0.6805 0.6931 -0.2379
vn -0.6804 0.6931 -0.2379
vn -0.7943 0.5770 -0.1901
vn -0.8694 0.4330 -0.2379
vn -0.8694 0.4331 -0.2379
vn -0.9400 0.2880 -0.1829
vn -0.9644 0.1576 -0.2125
vn -0.9644 0.1578 -0.2125
vn -0.7990 -0.5805 0.1567
vn -0.8903 -0.4537 0.0394
vn -0.9474 -0.3075 -0.0883
vn -0.9475 -0.3075 -0.0882
vn -0.8060 -0.5856 0.0860
vn -0.8061 -0.5856 0.0860
vn -0.7066 -0.7066 0.0390
vn -0.8900 -0.4535 -0.0483
vn -0.8054 -0.5850 -0.0951
vn -0.7063 -0.7063 -0.0481
vn -0.5851 -0.8061 -0.0883
vn -0.5853 -0.8060 -0.0883
vn -0.9400 -0.2880 -0.1829
vn -0.8694 -0.4330 -0.2379
vn -0.8695 -0.4330 -0.2379
vn -0.8695 -0.4329 -0.2379
vn -0.7943 -0.5770 -0.1901
vn -0.6804 -0.6931 -0.2379
vn -0.6805 -0.6931 -0.2379
vn -0.5642 -0.8052 -0.1828
vn -0.4482 -0.8683 -0.2124
vn 0.0053 -0.9961 -0.0880
vn 0.0054 -0.9961 -0.0880
vn -0.0077 -0.9837 -0.1796
vn 0.1431 -0.9607 -0.2379
vn 0.1257 0.9290 -0.3480
vn 0.1258 0.9290 -0.3480
vn -0.0853 0.9203 -0.3818
vn -0.1914 0.9289 -0.3172
vn -0.1914 0.9288 -0.3172
vn -0.3435 0.8834 -0.3188
vn -0.4742 0.7943 -0.3797
vn -0.6484 0.6747 -0.3526
vn -0.6769 0.4918 -0.5476
vn -0.7700 0.5396 -0.3405
vn -0.7700 0.5397 -0.3404
vn -0.8475 0.4013 -0.3474
vn -0.8474 0.4013 -0.3475
vn -0.7496 0.2654 -0.6064
vn -0.8569 0.1209 -0.5012
vn -0.8569 0.1209 -0.5011
vn -0.9016 0.2033 -0.3818
vn -0.9430 0.1044 -0.3161
vn -0.9430 0.1044 -0.3160
vn -0.9430 -0.1044 -0.3160
vn -0.8566 -0.1238 -0.5010
vn -0.8555 -0.1230 -0.5030
vn -0.9016 -0.2033 -0.3818
vn -0.8475 -0.4013 -0.3475
vn -0.8475 -0.4012 -0.3474
vn -0.8476 -0.4012 -0.3473
vn -0.7495 -0.2655 -0.6064
vn -0.6769 -0.4918 -0.5476
vn -0.7306 -0.5406 -0.4172
vn -0.6425 -0.6835 -0.3465
vn 0.0508 -0.7108 -0.7016
vn -0.3910 -0.8647 -0.3153
vn -0.3911 -0.8647 -0.3153
vn -0.1953 -0.9300 -0.3114
vn -0.0852 -0.9203 -0.3818
vn 0.1050 -0.9322 -0.3463
vn 0.1049 -0.9322 -0.3463
vn 0.1051 -0.9322 -0.3463
vn -1.0000 -0.0000 -0.0000
vn -0.0456 -0.9968 0.0658
vn -0.0684 -0.9930 0.0961
vn -0.0681 -0.9930 0.0961
vn -0.0683 -0.9930 0.0961
vn -0.0477 -0.9361 0.3486
vn -0.0477 -0.9360 0.3487
vn -0.0493 -0.9884 0.1437
vn -0.0283 -0.9976 0.0635
vn -0.0281 -0.9976 0.0635
vn 0.0414 -0.9946 0.0956
vn 0.0413 -0.9946 0.0956
vn 0.0412 -0.9946 0.0956
vn 0.0230 -0.9893 0.1442
vn 0.0231 -0.9893 0.1442
vn 0.0486 -0.9125 0.4062
vn -0.1060 -0.7208 0.6850
vn -0.1061 -0.7208 0.6850
vn -0.1059 -0.7208 0.6850
vn -0.1090 -0.3167 0.9422
vn -0.1090 -0.3168 0.9422
vn -0.0965 -0.7218 0.6853
vn -0.0965 -0.7218 0.6854
vn 0.0529 -0.6741 0.7367
vn 0.0530 -0.6741 0.7368
vn 0.0530 -0.6741 0.7367
vn 0.0132 -0.9461 0.3235
vn 0.0022 -0.3459 0.9383
vn 0.0020 -0.3457 0.9384
vn -0.0524 -0.3224 0.9452
vn -0.0526 -0.3221 0.9453
vn -0.0260 -0.9980 -0.0571
vn -0.0086 -0.7244 -0.6893
vn -0.0115 -0.1447 -0.9894
vn -0.0116 -0.1447 -0.9894
vn 0.0373 -0.2114 -0.9767
vn 0.0858 -0.2082 -0.9743
vn 0.0857 -0.2081 -0.9743
vn -0.0388 -0.7326 -0.6795
vn -0.0389 -0.7326 -0.6796
vn -0.0443 -0.9249 -0.3777
vn -0.0761 -0.9928 -0.0929
vn -0.0762 -0.9928 -0.0928
vn -0.0284 -0.9162 -0.3998
vn -0.0283 -0.9162 -0.3998
vn -0.0289 -0.9162 -0.3997
vn 0.0023 -0.6471 -0.7624
vn 0.0412 -0.9934 -0.1069
vn 0.0410 -0.9934 -0.1069
vn 0.0411 -0.9934 -0.1069
vn 0.0252 -0.9163 -0.3997
vn 0.0253 -0.9163 -0.3997
vn -0.0011 -0.6407 -0.7678
vn -0.0012 -0.6406 -0.7679
vn -0.0012 -0.6406 -0.7678
vn -0.0521 -0.9348 0.3512
vn -0.0697 -0.9320 0.3557
vn 0.0131 -0.9160 0.4009
vn 0.0132 -0.9160 0.4009
vn 0.2153 0.9759 0.0359
vn -0.0220 0.9824 0.1854
vn -0.0221 0.9824 0.1854
vn -0.0676 0.9396 0.3354
vn -0.0675 0.9395 0.3359
vn -0.0779 0.9920 0.0993
vn -0.0283 0.9976 0.0635
vn 0.0503 0.9905 0.1281
vn 0.0414 0.9832 0.1780
vn 0.0427 0.9142 0.4029
vn 0.0427 0.9143 0.4029
vn -0.1008 0.7217 0.6848
vn -0.1120 0.3081 0.9447
vn -0.1120 0.3080 0.9448
vn -0.0936 0.6739 0.7328
vn -0.0935 0.6740 0.7328
vn 0.0528 0.6742 0.7367
vn 0.0177 0.9452 0.3259
vn 0.0159 0.3625 0.9319
vn 0.0157 0.3622 0.9320
vn 0.0160 0.3626 0.9318
vn -0.0526 0.3221 0.9453
vn -0.0431 0.9985 -0.0323
vn -0.0431 0.9986 -0.0323
vn 0.0036 0.7619 -0.6477
vn 0.0037 0.7619 -0.6476
vn 0.0035 0.7619 -0.6477
vn 0.0039 0.1563 -0.9877
vn 0.0047 0.1567 -0.9876
vn 0.0202 0.2051 -0.9785
vn 0.0203 0.2051 -0.9785
vn -0.0235 0.1936 -0.9808
vn -0.0234 0.1937 -0.9808
vn -0.0410 0.7359 -0.6759
vn -0.0335 0.9323 -0.3601
vn -0.0761 0.9928 -0.0929
vn -0.0762 0.9928 -0.0928
vn -0.0109 0.9264 -0.3763
vn -0.0112 0.9264 -0.3763
vn 0.0023 0.6471 -0.7624
vn 0.0153 0.9954 -0.0942
vn 0.0154 0.9954 -0.0942
vn 0.0460 0.9200 -0.3891
vn 0.0458 0.9200 -0.3891
vn -0.0012 0.6406 -0.7679
vn -0.0011 0.6407 -0.7678
vn -0.0012 0.6406 -0.7678
vn -0.0521 0.9348 0.3512
vn -0.0700 0.9320 0.3557
vn 0.0133 0.9160 0.4009
vn 0.0132 0.9160 0.4009
vn 0.1479 0.9659 0.2124
vn 0.1478 0.9659 0.2124
vn 0.9644 0.1576 0.2125
vn 0.9644 0.1578 0.2125
vn 0.4481 -0.8684 0.2124
vn 0.4482 -0.8683 0.2124
vn 0.3052 0.9393 0.1569
vn 0.3053 0.9392 0.1570
vn 0.9876 -0.0000 0.1571
vn 0.3053 -0.9392 0.1570
vn 0.3052 -0.9393 0.1569
vn 0.7015 0.6387 -0.3161
vn 0.8241 -0.4702 -0.3159
vn 0.6213 -0.5994 -0.5047
vn 0.6213 -0.5993 -0.5048
vn -0.3206 0.8507 0.4165
vn -0.3201 0.8499 0.4185
vn -0.3193 0.8505 0.4179
vn 0.4516 -0.8213 -0.3487
vn 0.4516 -0.8213 -0.3486
vn 0.4515 -0.8213 -0.3487
vn 0.6099 -0.6944 -0.3820
vn 0.6100 -0.6943 -0.3820
vn 0.7015 -0.6387 -0.3161
vn 0.7624 -0.3936 -0.5136
vn 0.9842 -0.0633 -0.1653
vn 0.9842 -0.0634 -0.1653
vn 0.8365 -0.0000 -0.5479
vn 0.9842 0.0634 -0.1653
vn 0.9842 0.0635 -0.1653
vn 0.7624 0.3936 -0.5136
vn 0.8489 -0.3656 -0.3817
vn 0.9215 -0.1735 -0.3475
vn 0.9105 -0.0000 -0.4136
vn 0.9215 0.1735 -0.3475
vn 0.8489 0.3656 -0.3817
vn 0.8489 0.3656 -0.3818
vn 0.8241 0.4702 -0.3159
vn 0.6213 0.5993 -0.5048
vn 0.6213 0.5994 -0.5047
vn 0.6100 0.6943 -0.3820
vn 0.6099 0.6943 -0.3820
vn 0.4405 0.8293 -0.3439
vn 0.4406 0.8293 -0.3439
vn 0.2844 0.8647 -0.4140
vn 0.2845 0.8647 -0.4140
vn -0.0008 -0.9961 -0.0877
vn -0.0005 -0.9961 -0.0882
vn 0.1563 -0.9869 0.0393
vn -0.0207 -0.9828 -0.1835
vn 0.1454 -0.9603 -0.2379
vn 0.1562 -0.9866 -0.0482
vn 0.3077 -0.9467 -0.0951
vn 0.3045 -0.9333 -0.1905
vn 0.3046 -0.9332 -0.1905
vn 0.3047 -0.9332 -0.1906
vn 0.4489 -0.8613 -0.2382
vn 0.4489 -0.8612 -0.2383
vn 0.3080 -0.9475 0.0864
vn 0.3079 -0.9475 0.0862
vn 0.4537 -0.8903 0.0393
vn 0.4535 -0.8900 -0.0483
vn 0.4535 -0.8899 -0.0483
vn 0.5857 -0.8057 -0.0883
vn 0.5914 -0.7854 -0.1828
vn 0.5915 -0.7853 -0.1828
vn 0.6874 -0.6946 -0.2124
vn 0.6873 -0.6946 -0.2124
vn 0.8730 -0.4391 -0.2122
vn 0.8730 -0.4391 -0.2123
vn 0.9472 -0.3083 -0.0883
vn 0.9472 -0.3082 -0.0883
vn 0.9869 -0.1562 0.0393
vn 0.9297 -0.3199 -0.1828
vn 0.9579 -0.1606 -0.2379
vn 0.9866 -0.1561 -0.0483
vn 0.9955 -0.0000 -0.0949
vn 0.9817 -0.0000 -0.1905
vn 0.9817 -0.0000 -0.1904
vn 0.9579 0.1606 -0.2379
vn 0.9963 -0.0000 0.0865
vn 0.9963 -0.0000 0.0861
vn 0.9869 0.1562 0.0393
vn 0.9869 0.1563 0.0393
vn 0.9866 0.1561 -0.0483
vn 0.9472 0.3082 -0.0883
vn 0.9472 0.3083 -0.0883
vn 0.9297 0.3199 -0.1828
vn 0.8730 0.4391 -0.2123
vn 0.6874 0.6946 -0.2124
vn 0.5857 0.8057 -0.0883
vn 0.4537 0.8903 0.0393
vn 0.5914 0.7854 -0.1828
vn 0.5915 0.7853 -0.1828
vn 0.4489 0.8612 -0.2383
vn 0.4489 0.8613 -0.2382
vn 0.4535 0.8899 -0.0483
vn 0.4535 0.8900 -0.0483
vn 0.3077 0.9467 -0.0951
vn 0.3014 0.9346 -0.1888
vn 0.3013 0.9347 -0.1887
vn 0.1243 0.9620 -0.2432
vn 0.3079 0.9475 0.0862
vn 0.3080 0.9475 0.0864
vn 0.1563 0.9869 0.0393
vn 0.1562 0.9866 -0.0482
vn -0.0004 0.9961 -0.0882
vn -0.0005 0.9961 -0.0882
vn -0.0207 0.9828 -0.1835
vn -0.0208 0.9828 -0.1835
vn -0.0000 -0.0000 1.0000
vn -0.0001 0.0004 1.0000
vn -0.0008 0.0028 1.0000
vn -0.1431 -0.9607 0.2379
vn 0.0203 -0.9827 0.1841
vn 0.0204 -0.9827 0.1841
vn 0.1479 -0.9659 0.2124
vn 0.1478 -0.9659 0.2124
vn 0.7990 -0.5805 -0.1567
vn 0.7066 -0.7066 -0.0395
vn 0.5852 -0.8061 0.0883
vn 0.8060 -0.5856 -0.0860
vn 0.8903 -0.4536 -0.0393
vn 0.7063 -0.7063 0.0481
vn 0.8054 -0.5850 0.0951
vn 0.8899 -0.4536 0.0484
vn 0.8900 -0.4535 0.0483
vn 0.9474 -0.3075 0.0883
vn 0.9475 -0.3075 0.0882
vn 0.5641 -0.8053 0.1827
vn 0.5641 -0.8052 0.1827
vn 0.6804 -0.6931 0.2379
vn 0.7943 -0.5770 0.1901
vn 0.8695 -0.4330 0.2379
vn 0.8695 -0.4329 0.2379
vn 0.8695 -0.4328 0.2379
vn 0.9400 -0.2880 0.1829
vn 0.9644 -0.1578 0.2125
vn 0.9644 -0.1573 0.2126
vn 0.7990 0.5805 -0.1567
vn 0.7990 0.5806 -0.1567
vn 0.8903 0.4536 -0.0393
vn 0.9475 0.3075 0.0882
vn 0.9474 0.3075 0.0883
vn 0.8060 0.5856 -0.0860
vn 0.7066 0.7066 -0.0395
vn 0.8900 0.4535 0.0483
vn 0.8054 0.5850 0.0951
vn 0.7063 0.7063 0.0481
vn 0.5852 0.8061 0.0883
vn 0.5853 0.8060 0.0883
vn 0.9400 0.2880 0.1829
vn 0.8695 0.4330 0.2379
vn 0.7943 0.5770 0.1901
vn 0.6805 0.6931 0.2379
vn 0.6804 0.6931 0.2379
vn 0.5642 0.8052 0.1828
vn 0.4482 0.8683 0.2124
vn 0.4481 0.8684 0.2124
vn -0.0008 -0.0028 1.0000
vn -0.0001 -0.0004 1.0000
vn 0.0078 0.9837 0.1796
vn 0.0079 0.9837 0.1796
vn -0.1431 0.9607 0.2379
vn -0.0630 -0.9365 0.3451
vn -0.0631 -0.9365 0.3450
vn -0.0630 -0.9364 0.3451
vn 0.0854 -0.9206 0.3811
vn 0.1933 -0.9293 0.3146
vn 0.3918 -0.8632 0.3185
vn 0.3919 -0.8631 0.3185
vn -0.4598 0.7945 -0.3967
vn -0.4578 0.7966 -0.3947
vn -0.4600 0.7956 -0.3943
vn 0.6418 -0.6846 0.3455
vn 0.6418 -0.6847 0.3454
vn 0.6743 -0.4881 0.5542
vn 0.6743 -0.4881 0.5541
vn 0.6742 -0.4880 0.5543
vn 0.7364 -0.5356 0.4134
vn 0.8475 -0.4013 0.3474
vn 0.8476 -0.4012 0.3473
vn 0.7495 -0.2655 0.6064
vn 0.8557 -0.1211 0.5031
vn 0.8557 -0.1212 0.5031
vn 0.9016 -0.2033 0.3818
vn 0.9016 -0.2032 0.3817
vn 0.9017 -0.2032 0.3817
vn 0.9430 -0.1043 0.3159
vn 0.9430 0.1044 0.3160
vn 0.9431 0.1043 0.3159
vn 0.8550 0.1204 0.5045
vn 0.8556 0.1223 0.5030
vn 0.9016 0.2032 0.3817
vn 0.8475 0.4013 0.3475
vn 0.7495 0.2655 0.6064
vn 0.6743 0.4881 0.5541
vn 0.6742 0.4880 0.5543
vn 0.7364 0.5356 0.4134
vn 0.6418 0.6847 0.3453
vn 0.6418 0.6847 0.3454
vn 0.4716 0.7947 0.3821
vn 0.4717 0.7947 0.3820
vn 0.4717 0.7947 0.3821
vn 0.3919 0.8631 0.3185
vn 0.3918 0.8632 0.3185
vn 0.1919 0.9290 0.3164
vn -0.1195 -0.9889 -0.0878
vn -0.1194 -0.9890 -0.0878
vn -0.1195 -0.9889 -0.0879
vn -0.1365 0.9275 0.3480
vn 1.0000 -0.0000 -0.0000
vn -0.6139 0.6035 0.5088
vn -0.4438 0.8247 0.3506
vn -0.4439 0.8246 0.3506
vn -0.4607 0.8170 0.3469
vn -0.4606 0.8170 0.3469
vn -0.4489 0.8244 0.3447
vn -0.6099 0.6944 0.3819
vn -0.6099 0.6943 0.3819
vn -0.6100 0.6943 0.3819
vn -0.7635 0.4058 0.5025
vn -0.7634 0.4058 0.5025
vn 0.7444 -0.2318 -0.6262
vn 0.7465 -0.2366 -0.6219
vn 0.7444 -0.2388 -0.6235
vn -0.8376 -0.0000 0.5462
vn -0.8377 -0.0000 0.5462
vn 0.7444 0.2389 -0.6235
vn 0.7466 0.2367 -0.6218
vn 0.7444 0.2318 -0.6262
vn -0.7635 -0.4058 0.5025
vn -0.6211 -0.6008 0.5033
vn -0.6099 -0.6944 0.3819
vn -0.4605 -0.8171 0.3469
vn -0.4605 -0.8170 0.3469
vn -0.4437 -0.8247 0.3506
vn -0.4437 -0.8248 0.3506
vn -0.4502 -0.8224 0.3478
vn -0.1563 0.9869 -0.0400
vn -0.1564 0.9869 -0.0400
vn 0.0133 0.9823 0.1868
vn 0.0063 0.9857 0.1681
vn 0.0062 0.9857 0.1682
vn -0.1452 0.9600 0.2393
vn -0.1452 0.9600 0.2394
vn -0.1589 0.9860 0.0503
vn -0.3081 0.9466 0.0952
vn -0.3089 0.9465 0.0929
vn -0.3090 0.9465 0.0930
vn -0.3457 0.9324 0.1053
vn -0.3064 0.9465 0.1014
vn -0.2855 0.9401 0.1861
vn -0.3024 0.9353 0.1837
vn -0.3023 0.9353 0.1837
vn -0.4488 0.8614 0.2379
vn -0.4487 0.8614 0.2379
vn -0.4488 0.8614 0.2380
vn -0.4489 0.8600 0.2427
vn -0.8489 0.5285 0.0002
vn -0.8489 0.5285 0.0003
vn -0.8491 0.5283 0.0003
vn -0.4537 0.8633 0.2210
vn -0.4538 0.8633 0.2210
vn -0.4477 0.8614 0.2399
vn -0.4476 0.8614 0.2399
vn -0.8490 -0.5283 0.0003
vn -0.8489 -0.5286 0.0003
vn -0.8489 -0.5285 0.0002
vn -0.4489 -0.8600 0.2427
vn -0.4488 -0.8600 0.2427
vn -0.4487 -0.8614 0.2379
vn -0.1272 -0.9408 0.3142
vn -0.1273 -0.9408 0.3142
vn -0.4476 -0.8614 0.2399
vn -0.4476 -0.8615 0.2399
vn -0.3090 -0.9465 0.0930
vn -0.3089 -0.9465 0.0929
vn -0.3081 -0.9466 0.0952
vn -0.3064 -0.9465 0.1014
vn -0.3044 -0.9477 0.0954
vn -0.3044 -0.9477 0.0955
vn -0.3040 -0.9332 0.1917
vn -0.3039 -0.9332 0.1917
vn -0.3024 -0.9353 0.1837
vn -0.3024 -0.9353 0.1836
vn -0.1452 -0.9600 0.2393
vn -0.1452 -0.9600 0.2394
vn -0.1563 -0.9869 -0.0400
vn -0.1564 -0.9869 -0.0400
vn -0.1590 -0.9860 0.0502
vn -0.1589 -0.9860 0.0503
vn 0.0063 -0.9857 0.1681
vn 0.0062 -0.9857 0.1682
vn 0.0133 -0.9823 0.1868
vn -0.0012 0.9961 -0.0883
vn -0.0203 0.9827 -0.1841
vn -0.0013 -0.9961 -0.0883
vn -0.0012 -0.9961 -0.0883
vn -0.0204 -0.9827 -0.1841
vn 0.1050 0.9322 -0.3463
vn 0.1051 0.9322 -0.3463
vn 0.1049 0.9322 -0.3463
vn -0.1953 0.9300 -0.3114
vn -0.3911 0.8647 -0.3153
vn -0.3916 0.8641 -0.3163
vn -0.3915 0.8641 -0.3163
vn 0.0507 0.7108 -0.7015
vn -0.6425 0.6835 -0.3465
vn -0.7305 0.5407 -0.4172
vn -0.7368 0.5337 -0.4150
vn -0.7981 0.1345 -0.5873
vn -0.7982 0.1346 -0.5872
vn -0.7981 0.1346 -0.5872
vn -0.8291 -0.0826 -0.5530
vn -0.8291 -0.0825 -0.5530
vn 0.0021 -0.0008 1.0000
vn 0.0024 -0.0010 1.0000
vn -0.7700 -0.5396 -0.3405
vn -0.7700 -0.5395 -0.3405
vn -0.7701 -0.5395 -0.3405
vn -0.7369 -0.5337 -0.4150
vn -0.7369 -0.5336 -0.4150
vn -0.6484 -0.6747 -0.3526
vn -0.6484 -0.6748 -0.3526
vn -0.4742 -0.7943 -0.3797
vn -0.3435 -0.8834 -0.3188
vn -0.3916 -0.8641 -0.3163
vn -0.3915 -0.8641 -0.3163
vn -0.1914 -0.9288 -0.3172
vn 0.1257 -0.9290 -0.3480
vn 0.1258 -0.9290 -0.3480
vn -0.0411 -0.9966 0.0719
vn 0.2153 -0.9759 0.0359
vn -0.0473 -0.9987 0.0200
vn -0.0463 -0.9989 0.0015
vn -0.0752 -0.9967 0.0291
vn -0.0449 -0.9970 0.0634
vn -0.0448 -0.9970 0.0632
vn -0.0432 -0.9972 0.0614
vn -0.0443 -0.9962 0.0746
vn -0.0348 -0.9929 0.1135
vn -0.1255 -0.9888 0.0808
vn -0.1257 -0.9888 0.0808
vn -0.0106 -0.9777 0.2098
vn -0.0103 -0.9777 0.2098
vn -0.0221 -0.9824 0.1854
vn -0.0220 -0.9824 0.1854
vn -0.0215 -0.9824 0.1854
vn -0.0703 -0.9926 0.0991
vn -0.0706 -0.9926 0.0991
vn -0.0709 -0.9925 0.0991
vn -0.0768 -0.9902 0.1166
vn -0.0770 -0.9902 0.1166
vn -0.0528 -0.9322 0.3582
vn -0.0528 -0.9322 0.3581
vn -0.0579 -0.9428 0.3282
vn -0.0701 -0.9339 0.3505
vn -0.0700 -0.9338 0.3508
vn -0.0702 -0.9340 0.3503
vn -0.0676 -0.9396 0.3356
vn -0.0677 -0.9397 0.3353
vn -0.2489 -0.9188 0.3063
vn -0.2490 -0.9189 0.3058
vn -0.2491 -0.9190 0.3057
vn -0.0489 -0.9325 0.3578
vn -0.0488 -0.9325 0.3579
vn -0.0488 -0.9324 0.3581
vn -0.0779 -0.9920 0.0993
vn -0.0494 -0.9945 0.0929
vn -0.0493 -0.9945 0.0929
vn 0.0500 -0.9905 0.1282
vn 0.0502 -0.9905 0.1282
vn 0.0286 -0.9948 0.0973
vn 0.0284 -0.9948 0.0973
vn 0.0415 -0.9832 0.1780
vn 0.0416 -0.9832 0.1780
vn 0.0185 -0.9893 0.1447
vn 0.0186 -0.9893 0.1446
vn 0.0427 -0.9143 0.4029
vn 0.0427 -0.9142 0.4029
vn 0.0374 -0.9141 0.4037
vn 0.0374 -0.9142 0.4036
vn -0.1008 -0.7217 0.6848
vn -0.1009 -0.7217 0.6848
vn -0.1053 -0.7210 0.6849
vn -0.1054 -0.7210 0.6849
vn -0.1120 -0.3081 0.9447
vn -0.1120 -0.3080 0.9448
vn -0.1143 -0.3147 0.9423
vn -0.1151 -0.3113 0.9433
vn -0.1152 -0.3114 0.9433
vn -0.0563 -0.4073 0.9116
vn -0.0563 -0.4073 0.9115
vn -0.0567 -0.4060 0.9121
vn -0.0566 -0.4060 0.9121
vn -0.0935 -0.6740 0.7328
vn -0.0936 -0.6739 0.7328
vn -0.0511 -0.7226 0.6894
vn -0.0511 -0.7226 0.6893
vn 0.0216 -0.7121 0.7017
vn 0.0217 -0.7121 0.7017
vn 0.0544 -0.6754 0.7354
vn 0.0543 -0.6755 0.7354
vn 0.0535 -0.6694 0.7409
vn 0.0537 -0.6694 0.7410
vn 0.0604 -0.6866 0.7246
vn 0.0606 -0.6865 0.7246
vn 0.0605 -0.6865 0.7246
vn 0.0505 -0.6709 0.7398
vn 0.0506 -0.6709 0.7399
vn 0.0150 -0.9420 0.3354
vn 0.0145 -0.9438 0.3302
vn -0.0365 -0.9166 0.3981
vn -0.0438 -0.9177 0.3948
vn 0.0048 -0.3316 0.9434
vn 0.0046 -0.3314 0.9435
vn 0.0166 -0.3645 0.9311
vn 0.0164 -0.3642 0.9312
vn 0.0179 -0.3656 0.9306
vn 0.0182 -0.3658 0.9305
vn 0.0030 -0.3449 0.9386
vn 0.0032 -0.3452 0.9385
vn 0.0159 -0.3625 0.9319
vn 0.0157 -0.3622 0.9320
vn -0.0670 -0.3399 0.9381
vn -0.0431 -0.9986 -0.0323
vn -0.0431 -0.9985 -0.0323
vn -0.0425 -0.9986 -0.0316
vn -0.0426 -0.9986 -0.0317
vn 0.0035 -0.7619 -0.6477
vn 0.0037 -0.7619 -0.6476
vn 0.0036 -0.7619 -0.6477
vn -0.0014 -0.7286 -0.6849
vn -0.0140 -0.1430 -0.9896
vn 0.0041 -0.1564 -0.9877
vn -0.0058 -0.1478 -0.9890
vn -0.0057 -0.1478 -0.9890
vn 0.0012 -0.1408 -0.9900
vn 0.0010 -0.1407 -0.9901
vn 0.0011 -0.1407 -0.9900
vn 0.0202 -0.2051 -0.9785
vn 0.0203 -0.2051 -0.9785
vn -0.0369 -0.1927 -0.9806
vn 0.0103 -0.2007 -0.9796
vn 0.0103 -0.2008 -0.9796
vn -0.0091 -0.1476 -0.9890
vn -0.0235 -0.1935 -0.9808
vn -0.0235 -0.1936 -0.9808
vn -0.0394 -0.7384 -0.6732
vn -0.0394 -0.7385 -0.6731
vn -0.0886 -0.7755 -0.6251
vn -0.0887 -0.7755 -0.6252
vn -0.1022 -0.7983 -0.5935
vn -0.1023 -0.7983 -0.5936
vn -0.0493 -0.7482 -0.6617
vn -0.0492 -0.7482 -0.6616
vn -0.0318 -0.7306 -0.6820
vn -0.0319 -0.7306 -0.6821
vn -0.0318 -0.7307 -0.6820
vn 0.0152 -0.7020 -0.7120
vn 0.0153 -0.7020 -0.7120
vn -0.0324 -0.6762 -0.7360
vn -0.0324 -0.6763 -0.7359
vn -0.0348 -0.7074 -0.7060
vn -0.0348 -0.7073 -0.7060
vn -0.0335 -0.9323 -0.3601
vn -0.0456 -0.9254 -0.3763
vn -0.0362 -0.9988 -0.0320
vn -0.0363 -0.9988 -0.0319
vn -0.0110 -0.9264 -0.3763
vn -0.0115 -0.9264 -0.3763
vn -0.0109 -0.9264 -0.3763
vn 0.0052 -0.6410 -0.7676
vn 0.0052 -0.6410 -0.7675
vn 0.0052 -0.6409 -0.7676
vn 0.0326 -0.6799 -0.7325
vn 0.0326 -0.6800 -0.7325
vn 0.0324 -0.6885 -0.7245
vn 0.0325 -0.6885 -0.7245
vn 0.0358 -0.6752 -0.7367
vn 0.0359 -0.6752 -0.7368
vn 0.0032 -0.6425 -0.7663
vn 0.0032 -0.6424 -0.7663
vn 0.0006 -0.6458 -0.7635
vn 0.0335 -0.6803 -0.7321
vn -0.0005 -0.6423 -0.7664
vn -0.0004 -0.6423 -0.7665
vn 0.0154 -0.9954 -0.0942
vn 0.0154 -0.9954 -0.0941
vn 0.0153 -0.9954 -0.0942
vn 0.0306 -0.9952 -0.0928
vn 0.0305 -0.9952 -0.0928
vn 0.0460 -0.9200 -0.3891
vn 0.0458 -0.9200 -0.3891
vn 0.0369 -0.9155 -0.4007
vn 0.0369 -0.9154 -0.4007
vn -0.0082 -0.6429 -0.7659
vn -0.0083 -0.6429 -0.7659
vn -0.0084 -0.6428 -0.7660
vn 0.0509 -0.7086 -0.7037
vn 0.0512 -0.7088 -0.7036
vn 0.0509 -0.7087 -0.7037
vn 0.0024 -0.6428 -0.7660
vn 0.0026 -0.6429 -0.7660
vn 0.0025 -0.6428 -0.7660
vn -0.0771 -0.9437 0.3217
vn -0.0770 -0.9437 0.3217
vn -0.0864 -0.9329 0.3495
vn -0.0866 -0.9329 0.3495
vn -0.0865 -0.9329 0.3495
vn -0.0698 -0.9338 0.3509
vn -0.0550 -0.9985 0.0001
vn -0.0552 -0.9985 0.0002
vn -0.0551 -0.9985 0.0001
vn 0.0618 -0.9446 0.3223
vn 0.0618 -0.9446 0.3222
vn 0.0467 -0.9438 0.3271
vn 0.0468 -0.9438 0.3271
vn 0.0156 -0.9247 0.3803
vn 0.0157 -0.9247 0.3803
vn 0.0149 -0.9205 0.3905
vn 0.0150 -0.9205 0.3905
vn 0.0794 -0.9143 0.3971
vn 0.0793 -0.9143 0.3971
vn -0.0411 0.9966 0.0719
vn -0.0443 0.9962 0.0746
vn -0.0432 0.9972 0.0614
vn -0.0456 0.9968 0.0658
vn -0.0448 0.9970 0.0632
vn -0.0449 0.9970 0.0634
vn -0.0752 0.9967 0.0291
vn -0.0463 0.9989 0.0015
vn -0.0473 0.9987 0.0200
vn -0.0105 0.9777 0.2098
vn -0.1256 0.9888 0.0808
vn -0.1258 0.9888 0.0808
vn -0.0682 0.9930 0.0961
vn -0.0683 0.9930 0.0961
vn -0.0351 0.9929 0.1135
vn -0.0349 0.9929 0.1135
vn -0.0769 0.9902 0.1166
vn -0.0770 0.9902 0.1166
vn -0.0709 0.9925 0.0991
vn -0.0708 0.9926 0.0991
vn -0.2489 0.9188 0.3063
vn -0.2490 0.9189 0.3060
vn -0.0701 0.9339 0.3505
vn -0.0702 0.9340 0.3504
vn -0.0700 0.9338 0.3508
vn -0.0580 0.9429 0.3281
vn -0.0579 0.9428 0.3282
vn -0.0528 0.9322 0.3582
vn -0.0527 0.9321 0.3585
vn -0.0528 0.9322 0.3581
vn -0.0477 0.9361 0.3486
vn -0.0476 0.9359 0.3490
vn -0.0477 0.9360 0.3487
vn -0.0488 0.9324 0.3581
vn -0.0487 0.9323 0.3584
vn -0.0488 0.9325 0.3579
vn -0.0493 0.9884 0.1437
vn -0.0494 0.9945 0.0929
vn -0.0493 0.9945 0.0929
vn 0.0415 0.9946 0.0956
vn 0.0287 0.9948 0.0972
vn 0.0230 0.9893 0.1443
vn 0.0185 0.9893 0.1447
vn 0.0486 0.9125 0.4062
vn 0.0374 0.9141 0.4037
vn -0.1059 0.7208 0.6850
vn -0.1052 0.7210 0.6849
vn -0.1054 0.7210 0.6849
vn -0.0567 0.4061 0.9121
vn -0.0567 0.4060 0.9121
vn -0.0563 0.4073 0.9115
vn -0.1152 0.3114 0.9433
vn -0.1151 0.3113 0.9433
vn -0.1090 0.3168 0.9422
vn -0.1143 0.3147 0.9423
vn -0.0966 0.7217 0.6854
vn -0.0965 0.7218 0.6853
vn -0.0965 0.7218 0.6854
vn -0.0511 0.7226 0.6893
vn -0.0511 0.7226 0.6894
vn 0.0535 0.6694 0.7409
vn 0.0534 0.6695 0.7409
vn 0.0542 0.6756 0.7353
vn 0.0543 0.6755 0.7354
vn 0.0216 0.7121 0.7017
vn 0.0215 0.7122 0.7017
vn 0.0216 0.7122 0.7017
vn 0.0602 0.6866 0.7245
vn 0.0604 0.6865 0.7246
vn 0.0504 0.6710 0.7398
vn 0.0505 0.6709 0.7398
vn -0.0438 0.9177 0.3948
vn -0.0365 0.9166 0.3981
vn 0.0142 0.9438 0.3302
vn 0.0150 0.9420 0.3354
vn 0.0164 0.3642 0.9312
vn 0.0166 0.3645 0.9311
vn 0.0167 0.3646 0.9310
vn 0.0023 0.3460 0.9382
vn 0.0022 0.3459 0.9383
vn 0.0020 0.3457 0.9384
vn 0.0048 0.3316 0.9434
vn 0.0049 0.3317 0.9434
vn 0.0046 0.3314 0.9435
vn 0.0030 0.3449 0.9386
vn 0.0032 0.3452 0.9385
vn 0.0179 0.3656 0.9306
vn 0.0182 0.3658 0.9305
vn 0.0182 0.3659 0.9305
vn -0.0671 0.3397 0.9382
vn -0.0260 0.9980 -0.0571
vn -0.0426 0.9986 -0.0317
vn -0.0425 0.9986 -0.0317
vn -0.0086 0.7244 -0.6893
vn -0.0014 0.7286 -0.6849
vn -0.0077 0.1420 -0.9898
vn -0.0078 0.1419 -0.9898
vn 0.0008 0.1406 -0.9901
vn -0.0121 0.1444 -0.9894
vn -0.0061 0.1477 -0.9890
vn 0.0008 -0.0005 1.0000
vn 0.0009 -0.0006 1.0000
vn 0.0373 0.2114 -0.9767
vn -0.0091 0.1477 -0.9890
vn -0.0090 0.1478 -0.9890
vn 0.0103 0.2009 -0.9796
vn 0.0103 0.2010 -0.9795
vn -0.0369 0.1928 -0.9805
vn -0.0369 0.1929 -0.9805
vn 0.0858 0.2083 -0.9743
vn 0.0002 -0.0008 1.0000
vn 0.0002 -0.0007 1.0000
vn -0.0348 0.7074 -0.7060
vn -0.0348 0.7073 -0.7060
vn -0.0325 0.6762 -0.7360
vn -0.0324 0.6762 -0.7360
vn 0.0152 0.7020 -0.7120
vn 0.0153 0.7020 -0.7120
vn 0.0024 0.7301 -0.6833
vn 0.0025 0.7302 -0.6832
vn -0.1766 0.8285 -0.5315
vn -0.1766 0.8285 -0.5314
vn -0.1008 0.7970 -0.5956
vn -0.1008 0.7970 -0.5955
vn -0.0394 0.7384 -0.6732
vn -0.0388 0.7326 -0.6796
vn -0.0443 0.9249 -0.3777
vn -0.0456 0.9254 -0.3763
vn -0.0362 0.9988 -0.0320
vn -0.0363 0.9988 -0.0319
vn -0.0283 0.9162 -0.3998
vn -0.0284 0.9162 -0.3998
vn 0.0325 0.6885 -0.7245
vn 0.0324 0.6885 -0.7245
vn 0.0006 0.6458 -0.7635
vn 0.0006 0.6459 -0.7634
vn 0.0052 0.6410 -0.7676
vn 0.0032 0.6425 -0.7663
vn 0.0359 0.6752 -0.7368
vn 0.0327 0.6799 -0.7326
vn 0.0326 0.6799 -0.7325
vn -0.0005 0.6423 -0.7664
vn -0.0004 0.6423 -0.7665
vn 0.0335 0.6803 -0.7321
vn 0.0412 0.9934 -0.1069
vn 0.0410 0.9934 -0.1069
vn 0.0413 0.9934 -0.1069
vn 0.0306 0.9952 -0.0928
vn 0.0253 0.9163 -0.3997
vn 0.0252 0.9163 -0.3997
vn 0.0369 0.9154 -0.4007
vn -0.0084 0.6428 -0.7660
vn -0.0083 0.6429 -0.7659
vn -0.0082 0.6429 -0.7659
vn 0.0024 0.6428 -0.7660
vn 0.0026 0.6429 -0.7660
vn 0.0509 0.7087 -0.7037
vn 0.0512 0.7088 -0.7036
vn 0.0509 0.7086 -0.7037
vn -0.0700 0.9338 0.3509
vn -0.0868 0.9329 0.3495
vn -0.0869 0.9329 0.3496
vn -0.0773 0.9436 0.3218
vn -0.0773 0.9437 0.3218
vn -0.0554 0.9985 0.0002
vn -0.0555 0.9985 0.0002
vn -0.0552 0.9985 0.0002
vn 0.0158 0.9247 0.3804
vn 0.0156 0.9247 0.3803
vn 0.0468 0.9438 0.3271
vn 0.0469 0.9438 0.3271
vn 0.0619 0.9446 0.3223
vn 0.0618 0.9446 0.3223
vn 0.0795 0.9143 0.3972
vn 0.0794 0.9143 0.3971
vn 0.0150 0.9205 0.3905
vn 0.6187 -0.6032 -0.5033
vn 0.6187 -0.6032 -0.5034
vn 0.6209 -0.6035 -0.5003
vn 0.6209 -0.6034 -0.5004
vn 0.2845 -0.8647 -0.4140
vn 0.4512 -0.8218 -0.3480
vn 0.4513 -0.8218 -0.3479
vn 0.4406 -0.8293 -0.3439
vn 0.4405 -0.8293 -0.3439
vn 0.6098 -0.6959 -0.3793
vn 0.6099 -0.6958 -0.3794
vn 0.7632 -0.4063 -0.5024
vn 0.7618 -0.2260 -0.6071
vn 0.7618 -0.2261 -0.6071
vn 0.8140 -0.0000 -0.5808
vn 0.7617 0.2262 -0.6071
vn 0.7617 0.2261 -0.6071
vn 0.7617 0.2262 -0.6072
vn 0.7632 0.4063 -0.5024
vn 0.7632 0.4064 -0.5023
vn 0.6209 0.6034 -0.5004
vn 0.6209 0.6035 -0.5003
vn 0.6187 0.6032 -0.5033
vn 0.6187 0.6032 -0.5034
vn 0.6099 0.6958 -0.3794
vn 0.4512 0.8218 -0.3480
vn 0.4513 0.8218 -0.3479
vn 0.4515 0.8213 -0.3487
vn 0.4516 0.8213 -0.3487
vn -0.3206 -0.8508 0.4165
vn -0.3192 -0.8505 0.4180
vn -0.3201 -0.8499 0.4185
vn -0.0002 0.0003 1.0000
vn -0.0006 0.0009 1.0000
vn -0.0155 -0.9831 -0.1826
vn 0.1244 -0.9620 -0.2432
vn 0.1243 -0.9620 -0.2432
vn 0.1396 -0.9614 -0.2371
vn 0.1914 -0.9494 -0.2490
vn 0.3013 -0.9347 -0.1887
vn 0.3012 -0.9347 -0.1886
vn 0.4493 -0.8626 -0.2326
vn 0.4493 -0.8625 -0.2327
vn 0.4493 0.8625 -0.2327
vn 0.4493 0.8626 -0.2327
vn 0.4493 0.8626 -0.2326
vn 0.1915 0.9494 -0.2491
vn 0.1913 0.9494 -0.2489
vn 0.3048 0.9331 -0.1907
vn 0.3047 0.9332 -0.1906
vn 0.1454 0.9604 -0.2379
vn 0.1453 0.9604 -0.2378
vn 0.1395 0.9614 -0.2370
vn 0.1395 0.9614 -0.2371
vn -0.0007 -0.0011 1.0000
vn -0.0002 -0.0003 1.0000
vn -0.0155 0.9831 -0.1826
vn -0.0156 0.9831 -0.1826
vn 0.0024 -0.9961 0.0877
vn 0.0076 -0.9837 0.1796
vn 0.0077 -0.9837 0.1796
vn 0.0205 0.9827 0.1841
vn 0.0206 0.9827 0.1841
vn -0.1365 -0.9275 0.3480
vn -0.1364 -0.9275 0.3480
vn -0.1195 0.9889 -0.0878
vn -0.1195 0.9889 -0.0879
vn 0.1919 -0.9290 0.3164
vn 0.1918 -0.9290 0.3164
vn 0.3900 -0.8652 0.3152
vn 0.3901 -0.8651 0.3152
vn 0.4716 -0.7947 0.3821
vn 0.6440 -0.6813 0.3480
vn 0.6440 -0.6813 0.3481
vn 0.6794 -0.4954 0.5412
vn 0.6794 -0.4954 0.5413
vn 0.7289 -0.5352 0.4270
vn 0.7368 -0.5351 0.4133
vn 0.8453 -0.1253 0.5194
vn 0.8514 0.1148 0.5118
vn 0.8514 0.1149 0.5118
vn 0.0010 0.0013 1.0000
vn 0.0025 0.0033 1.0000
vn 0.6794 0.4954 0.5413
vn 0.6794 0.4954 0.5414
vn 0.6794 0.4954 0.5412
vn 0.7368 0.5351 0.4133
vn 0.7289 0.5352 0.4270
vn 0.6439 0.6814 0.3479
vn 0.6439 0.6814 0.3480
vn -0.4598 -0.7945 -0.3967
vn -0.4599 -0.7956 -0.3943
vn -0.4578 -0.7967 -0.3946
vn 0.3901 0.8651 0.3152
vn 0.3901 0.8652 0.3152
vn 0.1933 0.9293 0.3146
vn 0.0854 0.9206 0.3811
vn -0.0630 0.9365 0.3451
vn -0.0630 0.9364 0.3451
vn -0.0631 0.9365 0.3451
vt 0.000000 0.000000
vt 0.610575 0.747023
vt 0.607941 0.739783
vt 0.613273 0.743047
vt 0.582920 0.764947
vt 0.579162 0.742024
vt 0.591722 0.767191
vt 0.616453 0.739802
vt 0.613761 0.739637
vt 0.610284 0.733132
vt 0.534361 0.733995
vt 0.551932 0.716447
vt 0.570224 0.699365
vt 0.595356 0.723819
vt 0.549907 0.714424
vt 0.565103 0.698527
vt 0.532740 0.732378
vt 0.548525 0.715863
vt 0.567263 0.696281
vt 0.574067 0.689152
vt 0.576286 0.690833
vt 0.664447 0.700183
vt 0.660231 0.712183
vt 0.655454 0.714741
vt 0.682209 0.695247
vt 0.676976 0.700522
vt 0.677301 0.680610
vt 0.651422 0.715322
vt 0.649582 0.715583
vt 0.624598 0.692923
vt 0.616368 0.674864
vt 0.617988 0.674081
vt 0.588466 0.692201
vt 0.589635 0.691855
vt 0.610975 0.706958
vt 0.654109 0.658353
vt 0.639321 0.677037
vt 0.636381 0.661384
vt 0.563241 0.760908
vt 0.576643 0.772168
vt 0.568999 0.781077
vt 0.541423 0.853354
vt 0.547547 0.852075
vt 0.546273 0.855647
vt 0.544132 0.872796
vt 0.543755 0.876107
vt 0.522471 0.882248
vt 0.504984 0.823314
vt 0.493748 0.829068
vt 0.496831 0.815701
vt 0.491981 0.835019
vt 0.492598 0.833975
vt 0.540094 0.815037
vt 0.544423 0.819155
vt 0.550292 0.835572
vt 0.545459 0.780999
vt 0.559173 0.792506
vt 0.548798 0.804758
vt 0.516231 0.753078
vt 0.496900 0.774051
vt 0.526318 0.802311
vt 0.501321 0.799217
vt 0.501775 0.794352
vt 0.514602 0.751428
vt 0.515752 0.750231
vt 0.494899 0.771880
vt 0.513383 0.752681
vt 0.493122 0.774485
vt 0.493678 0.773111
vt 0.638398 0.730316
vt 0.643929 0.723954
vt 0.641047 0.728161
vt 0.637439 0.731073
vt 0.596611 0.688700
vt 0.600938 0.684286
vt 0.740789 0.611335
vt 0.740534 0.611639
vt 0.736941 0.614179
vt 0.752752 0.563694
vt 0.764454 0.576575
vt 0.757521 0.583102
vt 0.726949 0.611599
vt 0.728754 0.635000
vt 0.700889 0.613339
vt 0.734577 0.580262
vt 0.724917 0.535941
vt 0.691733 0.572987
vt 0.717078 0.597102
vt 0.688544 0.570147
vt 0.690703 0.567908
vt 0.708076 0.554099
vt 0.705984 0.552152
vt 0.707368 0.550722
vt 0.683350 0.582695
vt 0.683454 0.579364
vt 0.696311 0.666953
vt 0.710873 0.653329
vt 0.710463 0.657372
vt 0.699969 0.673890
vt 0.697182 0.679439
vt 0.672172 0.642826
vt 0.687434 0.627490
vt 0.711058 0.651482
vt 0.668366 0.621643
vt 0.669083 0.619994
vt 0.684987 0.592643
vt 0.685287 0.591463
vt 0.657557 0.639391
vt 0.659208 0.636567
vt 0.772046 0.545270
vt 0.783972 0.558438
vt 0.773003 0.568639
vt 0.843486 0.538596
vt 0.846805 0.542669
vt 0.845930 0.543287
vt 0.871271 0.518879
vt 0.880023 0.529611
vt 0.866445 0.539810
vt 0.812545 0.503661
vt 0.817859 0.492369
vt 0.820226 0.491663
vt 0.823679 0.490427
vt 0.835856 0.479483
vt 0.826261 0.548025
vt 0.805587 0.538681
vt 0.792492 0.525510
vt 0.804855 0.539342
vt 0.795727 0.547693
vt 0.743272 0.517212
vt 0.763469 0.497283
vt 0.783768 0.501444
vt 0.788575 0.500833
vt 0.723248 0.534382
vt 0.740423 0.516832
vt 0.741574 0.515645
vt 0.742780 0.514390
vt 0.762431 0.494109
vt 0.763777 0.493516
vt 0.725283 0.639727
vt 0.723243 0.642455
vt 0.719169 0.645503
vt 0.725998 0.638739
vt 0.677877 0.604219
vt 0.682113 0.599727
vt 0.613236 0.741027
vt 0.613557 0.741914
vt 0.610870 0.746754
vt 0.610119 0.748530
vt 0.602907 0.741687
vt 0.604276 0.764066
vt 0.608227 0.735502
vt 0.602960 0.765636
vt 0.600034 0.766570
vt 0.583807 0.765853
vt 0.637346 0.731159
vt 0.633804 0.733990
vt 0.637219 0.731271
vt 0.579614 0.690601
vt 0.651423 0.715322
vt 0.668654 0.704046
vt 0.671544 0.703545
vt 0.686213 0.689145
vt 0.684675 0.692203
vt 0.618750 0.673479
vt 0.627496 0.665763
vt 0.606330 0.675321
vt 0.613783 0.675330
vt 0.593282 0.690154
vt 0.645533 0.651730
vt 0.646143 0.650700
vt 0.632543 0.664327
vt 0.635299 0.662564
vt 0.545683 0.856557
vt 0.548928 0.843254
vt 0.543542 0.876576
vt 0.533720 0.890743
vt 0.493111 0.831485
vt 0.481334 0.847708
vt 0.540870 0.815331
vt 0.549888 0.828292
vt 0.549951 0.828680
vt 0.540734 0.814273
vt 0.496920 0.779817
vt 0.494427 0.776489
vt 0.499665 0.809378
vt 0.497943 0.814034
vt 0.501069 0.788166
vt 0.492630 0.774176
vt 0.637346 0.731158
vt 0.603871 0.680364
vt 0.594950 0.689720
vt 0.735824 0.614507
vt 0.734929 0.614223
vt 0.733478 0.609000
vt 0.735171 0.603913
vt 0.729227 0.609454
vt 0.757490 0.604382
vt 0.742269 0.610821
vt 0.758456 0.583949
vt 0.760096 0.591768
vt 0.759809 0.600063
vt 0.758998 0.603011
vt 0.726186 0.638512
vt 0.726079 0.638643
vt 0.733567 0.614801
vt 0.733838 0.617477
vt 0.681691 0.577213
vt 0.708112 0.662242
vt 0.700347 0.670984
vt 0.692137 0.684888
vt 0.689202 0.687479
vt 0.710874 0.653329
vt 0.669446 0.617395
vt 0.669142 0.609954
vt 0.667795 0.622428
vt 0.660440 0.631468
vt 0.683433 0.596347
vt 0.656422 0.640520
vt 0.647147 0.650050
vt 0.842453 0.544685
vt 0.833794 0.546393
vt 0.865992 0.540038
vt 0.862746 0.540534
vt 0.804747 0.495834
vt 0.822668 0.491072
vt 0.819440 0.547939
vt 0.819055 0.547891
vt 0.809820 0.542816
vt 0.805906 0.539438
vt 0.803134 0.496991
vt 0.777612 0.500949
vt 0.765809 0.494751
vt 0.769192 0.497113
vt 0.798581 0.498853
vt 0.761247 0.495361
vt 0.763455 0.493035
vt 0.683065 0.598029
vt 0.674078 0.607301
s 0
usemtl blinn1SG.005
f 37/1/1 1/1/1 17/1/1
f 3/1/2 26/1/2 44/1/3
f 55/1/4 5/1/4 34/1/4
f 45/1/5 1/1/6 37/1/5
f 3/1/7 44/1/8 57/1/7
f 55/1/9 63/1/10 5/1/9
f 66/1/11 79/1/11 9/1/11
f 82/1/12 12/1/12 71/1/12
f 257/1/13 259/1/13 82/1/13
f 261/1/14 73/1/14 264/1/15
f 264/1/16 82/1/17 259/1/17
f 82/1/18 73/1/18 12/1/18
f 257/1/19 88/1/19 265/1/19
f 267/1/20 265/1/20 88/1/20
f 267/1/21 88/1/21 89/1/21
f 271/1/22 269/1/23 89/1/22
f 89/1/24 272/1/24 271/1/24
f 88/1/25 82/1/26 71/1/26
f 71/1/27 69/1/27 88/1/27
f 88/1/28 69/1/28 89/1/28
f 69/1/29 67/1/29 89/1/29
f 79/1/30 89/1/30 67/1/30
f 79/1/31 67/1/32 9/1/31
f 272/1/33 274/1/33 273/1/33
f 79/1/34 275/1/34 274/1/34
f 66/1/35 279/1/35 277/1/35
f 280/1/36 281/1/36 120/1/36
f 283/1/37 95/1/38 282/1/38
f 284/1/39 281/1/39 286/1/40
f 287/1/41 286/1/41 285/1/42
f 290/1/43 95/1/43 289/1/44
f 292/1/45 291/1/45 293/1/45
f 294/1/46 95/1/47 96/1/47
f 96/1/48 296/1/48 288/1/48
f 297/1/49 300/1/50 298/1/50
f 95/1/51 63/1/52 55/1/51
f 53/1/53 95/1/53 55/1/54
f 96/1/55 95/1/55 53/1/56
f 53/1/57 51/1/58 96/1/58
f 73/1/59 96/1/59 51/1/59
f 12/1/60 73/1/61 51/1/61
f 61/1/62 71/1/63 12/1/63
f 59/1/64 98/1/64 61/1/64
f 57/1/65 100/1/65 59/1/65
f 61/1/66 98/1/66 71/1/66
f 98/1/67 69/1/68 71/1/68
f 59/1/69 100/1/69 98/1/70
f 100/1/71 101/1/71 98/1/71
f 98/1/72 101/1/73 69/1/73
f 101/1/74 67/1/74 69/1/75
f 57/1/76 44/1/77 100/1/77
f 44/1/78 42/1/78 100/1/78
f 100/1/79 42/1/80 101/1/80
f 42/1/81 39/1/81 101/1/81
f 101/1/82 39/1/82 67/1/82
f 39/1/83 9/1/83 67/1/83
f 9/1/84 49/1/85 66/1/86
f 48/1/87 103/1/87 49/1/88
f 48/1/89 45/1/89 104/1/89
f 66/1/90 49/1/90 103/1/91
f 301/1/92 66/1/92 302/1/92
f 103/1/93 48/1/93 104/1/93
f 104/1/94 306/1/94 307/1/94
f 308/1/95 311/1/95 312/1/95
f 314/1/96 311/1/96 313/1/97
f 104/1/98 45/1/99 37/1/98
f 104/1/100 315/1/100 316/1/101
f 104/1/102 317/1/102 306/1/103
f 318/1/104 309/1/104 310/1/104
f 319/1/105 123/1/105 320/1/105
f 314/1/106 320/1/107 321/1/107
f 124/1/108 283/1/108 322/1/109
f 35/1/110 127/1/110 128/1/110
f 63/1/111 127/1/111 35/1/112
f 63/1/113 35/1/114 5/1/113
f 51/1/115 61/1/115 12/1/115
f 53/1/116 107/1/116 51/1/116
f 55/1/117 108/1/117 53/1/117
f 51/1/118 107/1/118 61/1/119
f 107/1/120 59/1/120 61/1/121
f 53/1/122 108/1/122 107/1/122
f 108/1/123 110/1/123 107/1/123
f 107/1/124 110/1/124 59/1/124
f 110/1/125 57/1/125 59/1/126
f 108/1/127 55/1/128 34/1/127
f 34/1/129 32/1/129 108/1/130
f 108/1/131 32/1/131 110/1/131
f 32/1/132 30/1/132 110/1/133
f 110/1/134 30/1/134 57/1/134
f 30/1/135 3/1/136 57/1/135
f 39/1/137 49/1/137 9/1/137
f 42/1/138 111/1/138 39/1/138
f 44/1/139 113/1/139 42/1/140
f 39/1/141 111/1/141 49/1/142
f 111/1/143 48/1/143 49/1/143
f 42/1/144 113/1/144 111/1/144
f 113/1/145 115/1/145 111/1/145
f 111/1/146 115/1/146 48/1/146
f 115/1/147 45/1/148 48/1/148
f 44/1/149 26/1/149 113/1/149
f 26/1/150 25/1/151 113/1/152
f 113/1/153 25/1/153 115/1/153
f 25/1/154 22/1/155 115/1/155
f 115/1/156 22/1/156 45/1/156
f 45/1/157 22/1/157 1/1/157
f 315/1/158 130/1/159 323/1/159
f 132/1/160 37/1/160 17/1/160
f 17/1/161 133/1/161 132/1/161
f 128/1/162 325/1/162 35/1/163
f 326/1/164 35/1/164 325/1/164
f 35/1/165 327/1/166 5/1/166
f 5/1/167 327/1/167 329/1/167
f 328/1/168 331/1/168 34/1/168
f 32/1/169 331/1/169 332/1/169
f 116/1/170 333/1/170 334/1/170
f 332/1/171 335/1/172 333/1/171
f 30/1/173 32/1/174 116/1/173
f 116/1/175 334/1/175 336/1/175
f 116/1/176 337/1/177 19/1/176
f 30/1/178 116/1/178 19/1/178
f 19/1/179 3/1/180 30/1/179
f 19/1/181 26/1/181 3/1/181
f 339/1/182 19/1/182 337/1/183
f 26/1/184 19/1/184 117/1/184
f 25/1/185 26/1/186 117/1/187
f 339/1/188 340/1/188 117/1/188
f 340/1/189 341/1/189 117/1/189
f 25/1/190 117/1/190 341/1/190
f 25/1/191 344/1/191 22/1/191
f 345/1/192 344/1/192 346/1/192
f 22/1/193 345/1/194 348/1/193
f 17/1/195 347/1/195 349/1/195
f 17/1/196 349/1/196 350/1/196
f 133/1/197 350/1/198 351/1/199
f 130/1/200 132/1/200 352/1/200
f 127/1/200 124/1/200 358/1/200
f 120/1/200 362/1/200 280/1/200
f 123/1/200 356/1/200 321/1/200
f 318/2/201 320/3/201 308/4/201
f 323/5/202 8/6/203 316/7/204
f 312/8/205 314/9/205 321/10/206
f 8/6/207 16/11/207 15/12/207
f 8/6/208 14/13/209 6/14/209
f 15/12/210 167/15/211 166/16/212
f 16/11/213 170/17/213 169/18/214
f 168/19/215 171/20/215 172/21/215
f 41/22/216 274/23/217 275/24/218
f 270/25/219 271/26/220 81/27/220
f 41/22/221 278/28/222 276/29/222
f 149/30/223 178/31/224 174/32/225
f 180/33/226 181/34/226 74/35/226
f 78/36/227 68/37/227 184/38/228
f 68/37/229 81/27/229 41/22/230
f 10/39/231 355/40/231 354/41/231
f 144/42/232 344/43/232 343/44/232
f 341/45/233 340/46/234 142/47/234
f 143/48/235 189/49/235 190/50/235
f 191/51/236 192/52/236 143/48/237
f 351/53/238 349/54/238 345/55/239
f 145/56/240 353/57/240 352/58/240
f 10/39/241 147/59/242 16/11/242
f 145/56/243 148/60/244 147/59/245
f 146/61/246 194/62/246 198/63/246
f 147/59/247 202/64/248 201/65/249
f 148/60/250 203/66/251 204/67/251
f 207/68/252 206/69/253 148/60/254
f 301/70/255 277/71/255 279/72/255
f 301/70/256 304/73/256 74/35/256
f 74/35/257 210/74/258 209/75/258
f 292/76/259 293/77/259 295/78/259
f 152/79/260 361/80/261 322/81/260
f 284/82/262 296/83/263 153/84/262
f 150/85/264 154/86/264 152/79/264
f 156/87/265 150/85/265 151/88/265
f 156/87/266 213/89/266 212/90/266
f 155/91/267 214/92/267 215/93/267
f 156/87/268 219/94/269 218/95/268
f 157/96/270 262/97/270 264/98/270
f 257/99/271 265/100/271 157/96/272
f 159/101/273 158/102/274 260/103/274
f 158/102/275 222/104/275 225/105/275
f 226/106/276 227/107/276 151/88/276
f 231/108/277 232/109/278 159/101/279
f 81/27/280 159/101/280 157/96/280
f 160/110/281 360/111/282 359/112/281
f 161/113/283 335/114/284 332/115/285
f 142/116/286 338/117/287 336/118/286
f 162/119/288 235/120/288 234/121/289
f 142/116/290 237/122/291 193/123/290
f 161/113/292 328/124/292 324/125/292
f 163/126/293 363/127/293 358/128/293
f 164/129/294 152/79/295 154/86/295
f 160/110/296 165/130/296 163/126/297
f 163/126/298 240/131/298 239/132/298
f 154/86/299 216/133/300 246/134/300
f 164/129/301 247/135/302 248/136/301
f 250/137/303 252/138/304 165/130/305
f 297/139/306 263/140/306 261/141/306
f 299/142/307 297/139/307 153/84/307
f 153/84/308 253/143/309 254/144/309
f 36/1/310 18/1/311 2/1/310
f 4/1/312 43/1/312 24/1/313
f 56/1/314 29/1/315 7/1/314
f 46/1/316 36/1/316 2/1/317
f 4/1/318 58/1/318 43/1/318
f 56/1/319 7/1/320 64/1/320
f 70/1/321 11/1/321 80/1/321
f 83/1/322 76/1/322 13/1/322
f 83/1/323 220/1/324 221/1/323
f 223/1/325 253/1/326 255/1/327
f 77/1/328 254/1/329 253/1/330
f 225/1/331 83/1/332 77/1/331
f 83/1/333 13/1/333 77/1/333
f 84/1/334 232/1/334 231/1/334
f 229/1/335 231/1/336 230/1/335
f 186/1/337 85/1/337 84/1/337
f 183/1/338 186/1/339 184/1/338
f 185/1/340 85/1/340 183/1/340
f 84/1/341 76/1/341 83/1/341
f 76/1/342 84/1/342 75/1/342
f 84/1/343 85/1/343 75/1/343
f 75/1/344 85/1/344 72/1/344
f 80/1/345 72/1/346 85/1/345
f 80/1/347 11/1/347 72/1/347
f 175/1/348 80/1/349 179/1/349
f 80/1/350 178/1/350 70/1/351
f 70/1/352 178/1/353 177/1/352
f 176/1/354 209/1/355 177/1/354
f 65/1/356 121/1/357 86/1/357
f 87/1/358 64/1/358 65/1/358
f 218/1/359 121/1/359 217/1/359
f 227/1/360 86/1/360 219/1/360
f 86/1/361 87/1/361 65/1/361
f 87/1/362 86/1/362 90/1/362
f 90/1/363 86/1/364 226/1/365
f 256/1/366 77/1/367 90/1/366
f 64/1/368 87/1/369 56/1/369
f 56/1/370 87/1/370 54/1/370
f 87/1/371 90/1/372 54/1/372
f 54/1/373 90/1/373 52/1/373
f 77/1/374 52/1/375 90/1/374
f 13/1/376 52/1/377 77/1/377
f 62/1/378 13/1/379 76/1/378
f 60/1/380 62/1/380 91/1/381
f 58/1/382 60/1/382 92/1/382
f 62/1/383 76/1/383 91/1/383
f 91/1/384 76/1/384 75/1/384
f 60/1/385 91/1/385 92/1/385
f 92/1/386 91/1/386 93/1/386
f 91/1/387 75/1/387 93/1/388
f 93/1/389 75/1/389 72/1/389
f 58/1/390 92/1/390 43/1/391
f 43/1/392 92/1/393 40/1/392
f 92/1/394 93/1/394 40/1/394
f 40/1/395 93/1/395 38/1/396
f 93/1/397 72/1/397 38/1/397
f 38/1/398 72/1/398 11/1/398
f 11/1/399 70/1/399 50/1/399
f 47/1/400 50/1/400 94/1/400
f 46/1/401 47/1/401 97/1/401
f 70/1/402 94/1/403 50/1/403
f 70/1/404 211/1/405 94/1/405
f 47/1/406 94/1/407 97/1/406
f 97/1/408 94/1/408 99/1/408
f 181/1/409 94/1/410 211/1/409
f 99/1/411 181/1/411 180/1/411
f 46/1/412 97/1/413 36/1/412
f 97/1/414 33/1/414 36/1/414
f 99/1/415 33/1/415 97/1/415
f 125/1/416 33/1/417 99/1/417
f 125/1/418 172/1/419 171/1/418
f 65/1/420 129/1/420 122/1/420
f 65/1/420 131/1/420 129/1/420
f 64/1/421 131/1/420 65/1/422
f 31/1/423 136/1/423 135/1/423
f 64/1/424 135/1/425 134/1/424
f 64/1/426 7/1/427 31/1/427
f 52/1/428 13/1/428 62/1/428
f 54/1/429 52/1/429 102/1/429
f 56/1/430 54/1/430 105/1/430
f 52/1/431 62/1/431 102/1/431
f 102/1/432 62/1/432 60/1/432
f 54/1/433 102/1/433 105/1/433
f 105/1/434 102/1/434 106/1/434
f 102/1/435 60/1/436 106/1/436
f 106/1/437 60/1/438 58/1/438
f 105/1/439 29/1/440 56/1/440
f 29/1/441 105/1/441 28/1/441
f 105/1/442 106/1/442 28/1/442
f 28/1/443 106/1/444 27/1/445
f 106/1/446 58/1/446 27/1/446
f 27/1/447 58/1/448 4/1/447
f 38/1/449 11/1/449 50/1/450
f 40/1/451 38/1/451 109/1/451
f 43/1/452 40/1/453 112/1/452
f 38/1/454 50/1/454 109/1/454
f 109/1/455 50/1/455 47/1/455
f 40/1/456 109/1/456 112/1/456
f 112/1/457 109/1/457 114/1/457
f 109/1/458 47/1/458 114/1/458
f 114/1/459 47/1/459 46/1/460
f 43/1/461 112/1/461 24/1/461
f 24/1/462 112/1/462 23/1/462
f 112/1/463 114/1/463 23/1/463
f 23/1/464 114/1/465 21/1/465
f 114/1/466 46/1/466 21/1/466
f 46/1/467 2/1/467 21/1/468
f 33/1/420 126/1/420 137/1/420
f 138/1/469 36/1/470 33/1/420
f 33/1/420 137/1/420 138/1/420
f 36/1/471 140/1/472 18/1/471
f 18/1/473 140/1/473 141/1/473
f 136/1/474 252/1/475 251/1/476
f 243/1/477 252/1/477 31/1/477
f 31/1/478 241/1/478 243/1/478
f 241/1/479 29/1/480 240/1/480
f 240/1/481 244/1/482 239/1/483
f 244/1/484 28/1/484 245/1/485
f 234/1/486 118/1/487 238/1/488
f 28/1/489 118/1/489 235/1/489
f 27/1/490 118/1/491 28/1/491
f 238/1/492 118/1/492 237/1/492
f 236/1/493 118/1/493 20/1/494
f 27/1/495 20/1/496 118/1/497
f 20/1/498 27/1/498 4/1/498
f 20/1/499 4/1/500 24/1/499
f 193/1/501 20/1/502 191/1/502
f 24/1/503 119/1/503 20/1/503
f 23/1/504 119/1/504 24/1/504
f 191/1/505 119/1/505 192/1/505
f 119/1/506 188/1/506 192/1/507
f 189/1/508 119/1/508 23/1/508
f 23/1/509 195/1/510 196/1/510
f 198/1/511 195/1/512 21/1/513
f 21/1/514 197/1/515 198/1/514
f 18/1/516 197/1/516 2/1/516
f 199/1/517 207/1/518 200/1/519
f 141/1/520 207/1/520 18/1/520
f 138/1/521 125/1/521 167/1/521
f 131/1/521 134/1/521 216/1/521
f 257/1/522 258/1/522 259/1/522
f 264/1/523 262/1/524 261/1/523
f 262/1/525 260/1/526 261/1/526
f 261/1/527 263/1/527 73/1/527
f 264/1/528 73/1/529 82/1/530
f 257/1/531 82/1/532 88/1/531
f 267/1/533 266/1/534 265/1/535
f 89/1/21 269/1/21 267/1/21
f 269/1/536 268/1/537 267/1/536
f 271/1/538 270/1/539 269/1/540
f 89/1/541 79/1/541 272/1/541
f 272/1/542 79/1/542 274/1/542
f 79/1/543 66/1/543 275/1/543
f 277/1/544 276/1/545 278/1/544
f 278/1/546 275/1/547 277/1/546
f 275/1/548 66/1/548 277/1/548
f 283/1/549 63/1/550 95/1/550
f 120/1/551 281/1/551 284/1/551
f 281/1/552 285/1/552 286/1/553
f 287/1/554 288/1/555 286/1/554
f 290/1/556 282/1/556 95/1/556
f 293/1/557 291/1/557 96/1/557
f 291/1/558 294/1/558 96/1/559
f 294/1/560 289/1/560 95/1/560
f 96/1/561 295/1/561 293/1/561
f 287/1/562 295/1/562 288/1/562
f 295/1/563 96/1/564 288/1/564
f 96/1/565 73/1/566 296/1/567
f 73/1/568 263/1/568 297/1/568
f 297/1/569 299/1/570 300/1/571
f 73/1/572 297/1/572 298/1/573
f 298/1/574 296/1/574 73/1/575
f 305/1/576 304/1/577 301/1/578
f 301/1/579 279/1/580 66/1/579
f 66/1/581 103/1/581 303/1/581
f 302/1/582 305/1/583 301/1/582
f 66/1/584 303/1/584 302/1/585
f 307/1/586 310/1/587 103/1/587
f 310/1/588 309/1/588 103/1/588
f 309/1/589 308/1/589 103/1/589
f 103/1/590 104/1/590 307/1/591
f 312/1/592 303/1/593 103/1/593
f 103/1/594 308/1/595 312/1/595
f 314/1/596 312/1/597 311/1/596
f 104/1/598 37/1/599 315/1/598
f 104/1/600 316/1/601 317/1/600
f 313/1/602 320/1/602 314/1/603
f 320/1/604 123/1/604 321/1/604
f 124/1/605 63/1/605 283/1/605
f 63/1/606 124/1/606 127/1/606
f 315/1/607 37/1/607 130/1/608
f 132/1/609 130/1/609 37/1/609
f 128/1/610 324/1/611 325/1/612
f 35/1/613 326/1/613 327/1/613
f 328/1/614 34/1/614 329/1/614
f 34/1/615 5/1/616 329/1/615
f 328/1/617 330/1/617 331/1/617
f 32/1/618 34/1/618 331/1/618
f 116/1/619 32/1/619 333/1/619
f 32/1/620 332/1/620 333/1/620
f 116/1/621 336/1/622 337/1/623
f 339/1/624 117/1/625 19/1/624
f 337/1/420 338/1/626 339/1/627
f 342/1/628 343/1/629 341/1/630
f 343/1/631 25/1/631 341/1/632
f 25/1/633 343/1/634 344/1/633
f 345/1/635 22/1/635 344/1/635
f 348/1/636 347/1/636 1/1/636
f 1/1/637 22/1/638 348/1/638
f 17/1/639 1/1/639 347/1/639
f 133/1/640 17/1/641 350/1/640
f 133/1/200 351/1/200 357/1/200
f 352/1/200 353/1/200 130/1/200
f 353/1/200 354/1/200 130/1/200
f 133/1/200 357/1/200 352/1/200
f 132/1/200 133/1/200 352/1/200
f 354/1/200 355/1/200 130/1/200
f 355/1/200 323/1/200 130/1/200
f 363/1/200 324/1/200 128/1/200
f 358/1/200 363/1/200 128/1/200
f 359/1/200 360/1/200 124/1/200
f 360/1/200 358/1/200 124/1/200
f 322/1/200 361/1/200 124/1/200
f 361/1/200 359/1/200 124/1/200
f 358/1/200 128/1/200 127/1/200
f 120/1/200 284/1/200 362/1/200
f 123/1/200 319/1/200 356/1/200
f 313/145/642 311/146/642 308/4/642
f 308/4/643 309/147/643 318/2/643
f 318/2/644 310/148/644 319/149/644
f 310/148/645 307/150/645 319/149/645
f 307/150/646 8/6/646 319/149/646
f 8/6/647 6/14/647 319/149/647
f 6/14/648 356/151/648 319/149/648
f 319/149/649 320/3/649 318/2/649
f 320/3/650 313/145/650 308/4/650
f 306/152/651 317/153/651 307/150/651
f 317/153/652 316/7/653 307/150/652
f 316/7/654 315/154/655 323/5/654
f 323/5/656 355/40/657 10/39/658
f 10/39/659 8/6/660 323/5/661
f 8/6/662 307/150/662 316/7/663
f 321/10/664 356/151/665 6/14/664
f 6/14/666 74/35/666 321/10/666
f 74/35/667 305/155/668 303/156/669
f 321/10/670 74/35/670 303/156/671
f 305/155/672 302/157/673 303/156/674
f 303/156/675 312/8/676 321/10/677
f 8/6/678 10/39/678 16/11/678
f 8/6/679 15/12/680 14/13/680
f 166/16/681 168/19/682 14/13/682
f 14/13/683 15/12/683 166/16/684
f 169/18/685 167/15/686 15/12/685
f 15/12/687 16/11/687 169/18/688
f 172/21/689 173/158/690 14/13/690
f 14/13/691 168/19/691 172/21/692
f 275/24/693 278/159/694 41/22/694
f 41/22/695 273/160/696 274/23/696
f 271/26/697 272/161/697 41/22/698
f 272/161/699 273/160/699 41/22/699
f 41/22/700 81/27/700 271/26/701
f 81/27/702 268/162/702 269/163/703
f 269/163/704 270/25/705 81/27/704
f 149/30/706 68/37/707 276/29/706
f 68/37/708 41/22/709 276/29/708
f 175/164/710 179/165/711 68/37/711
f 68/37/712 149/30/713 175/164/713
f 149/30/714 176/166/714 177/167/715
f 149/30/716 177/167/717 178/31/718
f 174/32/719 175/164/720 149/30/719
f 181/34/721 182/168/721 74/35/721
f 74/35/722 6/14/722 180/33/722
f 6/14/723 14/13/723 180/33/723
f 14/13/724 173/158/724 180/33/724
f 186/169/725 187/170/726 78/36/725
f 68/37/727 179/165/728 185/171/727
f 183/172/729 184/38/729 68/37/730
f 184/38/731 186/169/732 78/36/732
f 68/37/733 185/171/733 183/172/734
f 68/37/735 78/36/735 81/27/735
f 353/57/736 145/56/736 354/41/737
f 145/56/738 10/39/739 354/41/739
f 343/44/740 342/173/741 144/42/742
f 144/42/743 346/174/743 344/43/743
f 340/46/744 339/175/744 142/47/744
f 339/175/745 338/176/745 142/47/745
f 142/47/746 144/42/747 341/45/747
f 144/42/748 342/173/749 341/45/750
f 143/48/751 188/177/752 189/49/751
f 192/52/753 188/177/753 143/48/753
f 143/48/754 144/42/755 191/51/755
f 144/42/756 142/47/756 191/51/756
f 142/47/757 193/178/758 191/51/757
f 351/53/759 350/179/759 349/54/760
f 349/54/761 347/180/762 348/181/761
f 348/181/763 345/55/764 349/54/763
f 345/55/765 346/174/765 351/53/766
f 346/174/767 144/42/768 351/53/769
f 144/42/770 143/48/771 351/53/771
f 143/48/772 146/61/772 351/53/773
f 146/61/774 357/182/775 351/53/774
f 357/182/776 146/61/776 352/58/776
f 146/61/777 145/56/777 352/58/777
f 10/39/778 145/56/779 147/59/779
f 145/56/780 146/61/781 148/60/782
f 199/183/783 200/184/784 148/60/785
f 146/61/786 143/48/787 195/185/786
f 143/48/788 190/50/789 196/186/789
f 143/48/790 196/186/791 195/185/791
f 199/183/792 148/60/793 197/187/792
f 148/60/794 146/61/794 197/187/794
f 146/61/795 195/185/795 194/62/795
f 198/63/796 197/187/797 146/61/796
f 201/65/798 170/17/799 16/11/800
f 16/11/801 147/59/801 201/65/802
f 204/67/803 202/64/804 147/59/803
f 147/59/805 148/60/805 204/67/806
f 207/68/807 205/188/808 206/69/809
f 206/69/810 203/66/811 148/60/812
f 148/60/813 200/184/814 207/68/815
f 74/35/816 149/30/817 277/71/816
f 149/30/818 276/29/819 277/71/820
f 277/71/821 301/70/821 74/35/821
f 304/73/822 305/189/823 74/35/824
f 208/190/825 176/166/825 149/30/826
f 149/30/827 74/35/827 209/75/828
f 74/35/829 182/168/829 211/191/830
f 74/35/831 211/191/831 210/74/832
f 209/75/833 208/190/833 149/30/834
f 295/78/835 287/192/835 285/193/835
f 285/193/836 281/194/836 295/78/836
f 281/194/837 280/195/837 292/76/837
f 295/78/838 281/194/838 292/76/838
f 280/195/839 362/196/839 151/88/839
f 151/88/840 150/85/840 280/195/840
f 150/85/841 294/197/841 280/195/841
f 294/197/842 291/198/842 280/195/842
f 291/198/843 292/76/843 280/195/843
f 283/199/844 282/200/844 322/81/844
f 282/200/845 290/201/846 294/197/845
f 322/81/847 282/200/847 150/85/848
f 290/201/849 289/202/850 294/197/850
f 294/197/851 150/85/852 282/200/851
f 150/85/853 152/79/854 322/81/854
f 296/83/855 298/203/855 300/204/856
f 300/204/857 153/84/858 296/83/859
f 153/84/860 151/88/861 284/82/860
f 151/88/862 362/196/863 284/82/864
f 284/82/865 286/205/866 288/206/867
f 288/206/868 296/83/869 284/82/870
f 150/85/871 155/91/871 154/86/871
f 156/87/872 155/91/873 150/85/872
f 212/90/874 214/92/874 155/91/874
f 155/91/875 156/87/875 212/90/875
f 215/93/876 216/133/876 154/86/876
f 154/86/877 155/91/877 215/93/877
f 218/95/878 217/207/878 213/89/878
f 213/89/879 156/87/879 218/95/879
f 264/98/880 259/208/880 157/96/880
f 259/208/881 258/209/882 157/96/881
f 266/210/883 267/211/884 81/27/883
f 267/211/885 268/162/885 81/27/885
f 81/27/886 157/96/887 265/100/886
f 266/210/888 81/27/888 265/100/888
f 157/96/889 258/209/889 257/99/889
f 262/212/890 157/96/891 260/103/892
f 157/96/893 159/101/894 260/103/894
f 224/213/895 223/214/896 158/102/896
f 158/102/897 159/101/898 220/215/898
f 159/101/899 221/216/900 220/215/901
f 225/105/902 224/213/903 158/102/902
f 158/102/904 220/215/905 222/104/904
f 227/107/906 219/94/906 156/87/906
f 156/87/907 151/88/907 227/107/907
f 151/88/908 153/84/908 226/106/908
f 153/84/909 228/217/909 226/106/909
f 232/109/910 221/216/911 159/101/912
f 159/101/913 78/36/914 230/218/915
f 78/36/916 187/170/917 229/219/918
f 229/219/919 230/218/919 78/36/920
f 230/218/921 231/108/922 159/101/923
f 81/27/924 78/36/924 159/101/924
f 359/112/925 361/80/925 152/79/925
f 152/79/926 160/110/927 359/112/926
f 332/115/928 331/220/928 161/113/928
f 331/220/929 330/221/929 161/113/929
f 336/118/930 334/222/931 333/223/930
f 333/223/932 335/114/932 161/113/932
f 336/118/933 333/223/933 142/116/933
f 333/223/934 161/113/934 142/116/934
f 338/117/420 337/117/935 336/118/936
f 162/119/937 233/224/937 235/120/937
f 142/116/938 161/113/938 237/122/939
f 161/113/940 162/119/940 237/122/941
f 162/119/942 234/121/943 238/225/943
f 162/119/944 238/225/944 237/122/944
f 237/122/945 236/123/420 193/123/946
f 324/125/947 363/127/948 163/126/948
f 163/126/949 162/119/950 324/125/950
f 162/119/951 161/113/952 324/125/952
f 161/113/953 330/221/953 328/124/954
f 328/124/955 329/226/956 327/227/955
f 327/227/957 326/228/957 328/124/958
f 326/228/959 325/229/959 324/125/959
f 326/228/960 324/125/960 328/124/960
f 360/111/961 160/110/961 358/128/961
f 160/110/962 163/126/962 358/128/962
f 164/129/963 160/110/964 152/79/964
f 160/110/965 164/129/966 165/130/965
f 245/230/967 233/224/968 162/119/967
f 163/126/969 165/130/970 241/231/969
f 165/130/971 242/232/971 243/233/971
f 165/130/972 243/233/972 241/231/972
f 245/230/973 162/119/973 244/234/973
f 162/119/974 163/126/975 244/234/975
f 163/126/976 241/231/977 240/131/976
f 239/132/978 244/234/978 163/126/978
f 246/134/979 247/135/980 164/129/981
f 164/129/982 154/86/982 246/134/982
f 248/136/983 249/235/983 165/130/984
f 165/130/985 164/129/985 248/136/985
f 250/137/986 251/236/987 252/138/988
f 252/138/989 242/232/990 165/130/989
f 165/130/991 249/235/992 250/137/993
f 297/139/994 261/141/994 153/84/994
f 261/141/995 260/103/996 158/102/995
f 153/84/997 261/141/997 158/102/998
f 153/84/999 300/204/1000 299/142/1001
f 256/237/1002 228/217/1003 153/84/1002
f 153/84/1004 158/102/1005 253/143/1004
f 158/102/1006 223/214/1007 255/238/1007
f 158/102/1008 255/238/1009 253/143/1009
f 254/144/1010 256/237/1010 153/84/1010
f 221/1/1011 232/1/1012 83/1/1011
f 83/1/1013 222/1/1013 220/1/1014
f 223/1/1015 224/1/1015 253/1/1015
f 253/1/1016 224/1/1017 77/1/1017
f 224/1/1018 225/1/1019 77/1/1019
f 225/1/1020 222/1/1020 83/1/1021
f 84/1/1022 83/1/1022 232/1/1022
f 229/1/1023 84/1/1023 231/1/1024
f 84/1/337 229/1/337 186/1/337
f 229/1/1025 187/1/1025 186/1/1025
f 183/1/1026 85/1/1027 186/1/1028
f 185/1/1029 80/1/1030 85/1/1029
f 175/1/1031 174/1/1031 80/1/1032
f 80/1/1033 185/1/1034 179/1/1033
f 80/1/1035 174/1/1035 178/1/1035
f 177/1/1036 209/1/1036 70/1/1037
f 209/1/1038 210/1/1038 70/1/1039
f 176/1/1040 208/1/1041 209/1/1042
f 65/1/420 122/1/1043 121/1/1044
f 218/1/1045 86/1/1045 121/1/1045
f 227/1/1046 226/1/1047 86/1/1047
f 86/1/1048 218/1/1048 219/1/1048
f 226/1/1049 228/1/1049 256/1/1049
f 256/1/1050 90/1/1051 226/1/1050
f 256/1/1052 254/1/1052 77/1/1053
f 70/1/1054 210/1/1055 211/1/1056
f 211/1/1057 182/1/1058 181/1/1057
f 181/1/1059 99/1/1059 94/1/1060
f 180/1/1061 173/1/1062 99/1/1061
f 173/1/1063 172/1/1064 99/1/1064
f 125/1/1065 126/1/420 33/1/1066
f 125/1/1067 99/1/1067 172/1/1068
f 64/1/105 134/1/105 131/1/1069
f 64/1/1070 31/1/1070 135/1/1071
f 138/1/36 139/1/36 36/1/36
f 36/1/1072 139/1/1072 140/1/1073
f 136/1/1074 31/1/1075 252/1/1074
f 243/1/1076 242/1/1077 252/1/1076
f 31/1/1078 7/1/1079 241/1/1079
f 241/1/1080 7/1/1081 29/1/1081
f 240/1/1082 29/1/1082 244/1/1082
f 244/1/1083 29/1/1084 28/1/1083
f 234/1/1085 235/1/1086 118/1/1086
f 235/1/1087 233/1/1087 245/1/1087
f 245/1/1088 28/1/1088 235/1/1088
f 236/1/1089 237/1/1089 118/1/1089
f 20/1/1090 119/1/1090 191/1/1091
f 193/1/420 236/1/1092 20/1/1093
f 119/1/1094 189/1/1095 188/1/1096
f 23/1/1097 196/1/1097 189/1/1097
f 196/1/1098 190/1/1098 189/1/1098
f 23/1/1099 21/1/1100 195/1/1100
f 198/1/1101 194/1/1102 195/1/1103
f 21/1/1104 2/1/1104 197/1/1105
f 18/1/1106 199/1/1106 197/1/1106
f 199/1/1107 18/1/1107 207/1/1107
f 141/1/1108 205/1/1109 207/1/1110
f 203/1/521 206/1/521 141/1/521
f 206/1/521 205/1/521 141/1/521
f 202/1/521 204/1/521 139/1/521
f 204/1/521 203/1/521 140/1/521
f 170/1/521 201/1/521 139/1/521
f 201/1/521 202/1/521 139/1/521
f 167/1/521 169/1/521 138/1/521
f 169/1/521 170/1/521 138/1/521
f 168/1/521 166/1/521 125/1/521
f 166/1/521 167/1/521 125/1/521
f 125/1/521 171/1/521 168/1/521
f 204/1/521 140/1/521 139/1/521
f 203/1/521 141/1/521 140/1/521
f 170/1/521 139/1/521 138/1/521
f 138/1/420 137/1/420 126/1/420
f 138/1/420 126/1/420 125/1/420
f 212/1/521 213/1/521 121/1/521
f 213/1/521 217/1/521 121/1/521
f 216/1/521 215/1/521 131/1/521
f 215/1/521 214/1/521 131/1/521
f 214/1/521 212/1/521 121/1/521
f 214/1/521 121/1/521 131/1/521
f 247/1/521 246/1/521 134/1/521
f 246/1/521 216/1/521 134/1/521
f 249/1/521 248/1/521 135/1/521
f 248/1/521 247/1/521 134/1/521
f 135/1/521 248/1/521 134/1/521
f 251/1/521 250/1/521 136/1/521
f 250/1/521 249/1/521 136/1/521
f 135/1/521 136/1/521 249/1/521
f 122/1/420 129/1/420 131/1/420
f 121/1/420 122/1/420 131/1/420
