# https://github.com/mikedh/trimesh
mtllib material.mtl

o joint_12
usemtl material_0
v 0.00009700 -0.00000000 -0.00090300
v 0.00009700 -0.00000000 -0.00090300
v 0.00009700 -0.00000000 -0.00090300
v 0.00009700 -0.00000000 -0.00090300
v 0.00009700 -0.00000000 -0.00090300
v 0.00009700 -0.00000000 -0.00090300
v 0.00009700 -0.00000000 -0.00090300
v 0.00009700 -0.00000000 -0.00090300
v 0.00003400 -0.00014900 -0.00050700
v 0.00003400 -0.00014900 -0.00050700
v 0.00003400 -0.00014900 -0.00050700
v 0.00003400 -0.00014900 -0.00050700
v 0.00003400 -0.00014900 -0.00050700
v 0.00003400 -0.00014900 -0.00050700
v 0.00003400 -0.00014900 -0.00050700
v 0.00003400 -0.00014900 -0.00050700
v 0.00003400 -0.00014900 -0.00050700
v 0.00003400 -0.00014900 -0.00050700
v 0.00003400 -0.00014900 -0.00050700
v 0.00003400 -0.00014900 -0.00050700
v 0.00003400 -0.00014900 -0.00050700
v 0.00003400 0.00014900 -0.00050700
v 0.00003400 0.00014900 -0.00050700
v 0.00003400 0.00014900 -0.00050700
v 0.00003400 0.00014900 -0.00050700
v 0.00003400 0.00014900 -0.00050700
v 0.00003400 0.00014900 -0.00050700
v 0.00003400 0.00014900 -0.00050700
v 0.00003400 0.00014900 -0.00050700
v 0.00003400 0.00014900 -0.00050700
v 0.00014100 0.00000000 0.00106200
v 0.00014100 0.00000000 0.00106200
v 0.00014100 0.00000000 0.00106200
v 0.00014100 0.00000000 0.00106200
v 0.00014100 0.00000000 0.00106200
v 0.00014100 0.00000000 0.00106200
v -0.00085900 0.00000000 0.00106200
v -0.00085900 0.00000000 0.00106200
v -0.00085900 0.00000000 0.00106200
v -0.00085900 0.00000000 0.00106200
v -0.00085900 0.00000000 0.00106200
v -0.00085900 0.00000000 0.00106200
v -0.00085900 0.00000000 0.00106200
v -0.00085900 0.00000000 0.00106200
v -0.00085900 0.00000000 0.00106200
v 0.00004300 0.00016400 0.00055800
v 0.00004300 0.00016400 0.00055800
v 0.00004300 0.00016400 0.00055800
v 0.00004300 0.00016400 0.00055800
v 0.00004300 0.00016400 0.00055800
v 0.00004300 0.00016400 0.00055800
v 0.00004300 0.00016400 0.00055800
v 0.00004300 0.00016400 0.00055800
v 0.00004300 0.00016400 0.00055800
v 0.00004300 0.00016400 0.00055800
v 0.00004300 0.00016400 0.00055800
v -0.00001000 0.00000000 0.00000000
v -0.00001000 0.00000000 0.00000000
v -0.00001000 0.00000000 0.00000000
v -0.00001000 0.00000000 0.00000000
v -0.00001000 0.00000000 0.00000000
v -0.00001000 0.00000000 0.00000000
v -0.00001000 0.00000000 0.00000000
v -0.00001000 0.00000000 0.00000000
v -0.00001000 0.00000000 0.00000000
v -0.00001000 0.00000000 0.00000000
v -0.00001000 0.00000000 0.00000000
v -0.00001000 0.00000000 0.00000000
v -0.00001000 0.00000000 0.00000000
v 0.00004300 -0.00016400 0.00055800
v 0.00004300 -0.00016400 0.00055800
v 0.00004300 -0.00016400 0.00055800
v 0.00004300 -0.00016400 0.00055800
v 0.00004300 -0.00016400 0.00055800
v 0.00004300 -0.00016400 0.00055800
v 0.00004300 -0.00016400 0.00055800
v 0.00004300 -0.00016400 0.00055800
v 0.00004300 -0.00016400 0.00055800
v 0.00004300 -0.00016400 0.00055800
v -0.00095700 0.00016400 0.00055800
v -0.00095700 0.00016400 0.00055800
v -0.00095700 0.00016400 0.00055800
v -0.00095700 0.00016400 0.00055800
v -0.00095700 0.00016400 0.00055800
v -0.00095700 0.00016400 0.00055800
v -0.00095700 0.00016400 0.00055800
v -0.00095700 0.00016400 0.00055800
v -0.00095700 0.00016400 0.00055800
v -0.00095700 0.00016400 0.00055800
v -0.00095700 0.00016400 0.00055800
v -0.00101000 0.00000000 0.00000000
v -0.00101000 0.00000000 0.00000000
v -0.00101000 0.00000000 0.00000000
v -0.00101000 0.00000000 0.00000000
v -0.00101000 0.00000000 0.00000000
v -0.00101000 0.00000000 0.00000000
v -0.00101000 0.00000000 0.00000000
v -0.00101000 0.00000000 0.00000000
v -0.00101000 0.00000000 0.00000000
v -0.00101000 0.00000000 0.00000000
v -0.00101000 0.00000000 0.00000000
v -0.00101000 0.00000000 0.00000000
v -0.00101000 0.00000000 0.00000000
v -0.00101000 0.00000000 0.00000000
v -0.00095700 -0.00016400 0.00055800
v -0.00095700 -0.00016400 0.00055800
v -0.00095700 -0.00016400 0.00055800
v -0.00095700 -0.00016400 0.00055800
v -0.00095700 -0.00016400 0.00055800
v -0.00095700 -0.00016400 0.00055800
v -0.00095700 -0.00016400 0.00055800
v -0.00095700 -0.00016400 0.00055800
v -0.00095700 -0.00016400 0.00055800
v -0.00095700 -0.00016400 0.00055800
v -0.00095700 -0.00016400 0.00055800
v -0.00049200 -0.00025700 0.00053600
v -0.00049200 -0.00025700 0.00053600
v -0.00049200 -0.00025700 0.00053600
v -0.00049200 -0.00025700 0.00053600
v -0.00049200 -0.00025700 0.00053600
v -0.00049200 -0.00025700 0.00053600
v -0.00049200 -0.00025700 0.00053600
v -0.00049200 -0.00025700 0.00053600
v -0.00049200 -0.00025700 0.00053600
v -0.00049200 -0.00025700 0.00053600
v -0.00049200 -0.00027900 0.00027600
v -0.00049200 -0.00027900 0.00027600
v -0.00049200 -0.00027900 0.00027600
v -0.00049200 -0.00027900 0.00027600
v -0.00049200 -0.00027900 0.00027600
v -0.00049200 -0.00027900 0.00027600
v -0.00049200 -0.00027900 0.00027600
v -0.00049200 -0.00027900 0.00027600
v -0.00049200 -0.00027900 0.00027600
v -0.00050400 -0.00027500 0.00001700
v -0.00050400 -0.00027500 0.00001700
v -0.00050400 -0.00027500 0.00001700
v -0.00050400 -0.00027500 0.00001700
v -0.00050400 -0.00027500 0.00001700
v -0.00050400 -0.00027500 0.00001700
v -0.00050400 -0.00027500 0.00001700
v -0.00050400 -0.00027500 0.00001700
v -0.00055700 -0.00020100 0.00113800
v -0.00055700 -0.00020100 0.00113800
v -0.00055700 -0.00020100 0.00113800
v -0.00055700 -0.00020100 0.00113800
v -0.00055700 -0.00020100 0.00113800
v -0.00059400 0.00000000 0.00121800
v -0.00059400 0.00000000 0.00121800
v -0.00059400 0.00000000 0.00121800
v -0.00059400 0.00000000 0.00121800
v -0.00059400 0.00000000 0.00121800
v -0.00059400 0.00000000 0.00121800
v -0.00050200 -0.00025700 0.00078300
v -0.00050200 -0.00025700 0.00078300
v -0.00050200 -0.00025700 0.00078300
v -0.00050200 -0.00025700 0.00078300
v -0.00050200 -0.00025700 0.00078300
v -0.00050200 -0.00025700 0.00078300
v -0.00050200 -0.00025700 0.00078300
v -0.00050200 -0.00025700 0.00078300
v 0.00005200 -0.00020100 0.00124200
v 0.00005200 -0.00020100 0.00124200
v 0.00005200 -0.00020100 0.00124200
v 0.00005200 -0.00020100 0.00124200
v 0.00005200 -0.00020100 0.00124200
v 0.00005200 -0.00020100 0.00124200
v 0.00005200 -0.00020100 0.00124200
v 0.00002400 0.00000000 0.00139000
v 0.00002400 0.00000000 0.00139000
v 0.00002400 0.00000000 0.00139000
v 0.00002400 0.00000000 0.00139000
v 0.00002400 0.00000000 0.00139000
v 0.00002400 0.00000000 0.00139000
v 0.00002400 0.00000000 0.00139000
v 0.00002400 0.00000000 0.00139000
v 0.00002400 0.00000000 0.00139000
v 0.00002400 0.00000000 0.00139000
v 0.00002400 0.00000000 0.00139000
v 0.00002400 0.00000000 0.00139000
v 0.00009700 -0.00025500 0.00083300
v 0.00009700 -0.00025500 0.00083300
v 0.00009700 -0.00025500 0.00083300
v 0.00009700 -0.00025500 0.00083300
v 0.00009700 -0.00025500 0.00083300
v 0.00009700 -0.00025500 0.00083300
v -0.00056900 -0.00000000 -0.00064500
v -0.00056900 -0.00000000 -0.00064500
v -0.00056900 -0.00000000 -0.00064500
v -0.00056900 -0.00000000 -0.00064500
v -0.00056900 -0.00000000 -0.00064500
v -0.00056900 -0.00000000 -0.00064500
v -0.00056900 -0.00000000 -0.00064500
v -0.00056900 -0.00000000 -0.00064500
v -0.00056300 -0.00015000 -0.00060400
v -0.00056300 -0.00015000 -0.00060400
v -0.00056300 -0.00015000 -0.00060400
v -0.00056300 -0.00015000 -0.00060400
v -0.00056300 -0.00015000 -0.00060400
v -0.00056300 -0.00015000 -0.00060400
v 0.00006600 -0.00000000 -0.00090300
v 0.00006600 -0.00000000 -0.00090300
v 0.00006600 -0.00000000 -0.00090300
v 0.00006600 -0.00000000 -0.00090300
v 0.00006600 -0.00000000 -0.00090300
v 0.00006600 -0.00000000 -0.00090300
v 0.00006600 -0.00000000 -0.00090300
v 0.00006600 -0.00000000 -0.00090300
v 0.00003100 -0.00017100 -0.00081200
v 0.00003100 -0.00017100 -0.00081200
v 0.00003100 -0.00017100 -0.00081200
v 0.00003100 -0.00017100 -0.00081200
v 0.00003100 -0.00017100 -0.00081200
v 0.00003100 -0.00017100 -0.00081200
v 0.00003100 -0.00017100 -0.00081200
v -0.00052300 -0.00025600 -0.00023500
v -0.00052300 -0.00025600 -0.00023500
v -0.00052300 -0.00025600 -0.00023500
v -0.00052300 -0.00025600 -0.00023500
v -0.00052300 -0.00025600 -0.00023500
v -0.00052300 -0.00025600 -0.00023500
v -0.00052300 -0.00025600 -0.00023500
v -0.00052300 -0.00025600 -0.00023500
v -0.00052300 -0.00025600 -0.00023500
v -0.00054500 -0.00023400 -0.00045700
v -0.00054500 -0.00023400 -0.00045700
v -0.00054500 -0.00023400 -0.00045700
v -0.00054500 -0.00023400 -0.00045700
v -0.00054500 -0.00023400 -0.00045700
v -0.00054500 -0.00023400 -0.00045700
v 0.00004700 -0.00022500 -0.00059700
v 0.00004700 -0.00022500 -0.00059700
v 0.00004700 -0.00022500 -0.00059700
v 0.00004700 -0.00022500 -0.00059700
v 0.00004700 -0.00022500 -0.00059700
v 0.00004700 -0.00022500 -0.00059700
v 0.00004700 -0.00022500 -0.00059700
v 0.00004700 -0.00022500 -0.00059700
v -0.00052500 -0.00024800 0.00099600
v -0.00052500 -0.00024800 0.00099600
v -0.00052500 -0.00024800 0.00099600
v -0.00052500 -0.00024800 0.00099600
v -0.00052500 -0.00024800 0.00099600
v -0.00052500 -0.00024800 0.00099600
v 0.00008500 -0.00024500 0.00108300
v 0.00008500 -0.00024500 0.00108300
v 0.00008500 -0.00024500 0.00108300
v 0.00008500 -0.00024500 0.00108300
v 0.00008500 -0.00024500 0.00108300
v 0.00008500 -0.00024500 0.00108300
v -0.00049200 0.00027900 0.00027600
v -0.00049200 0.00027900 0.00027600
v -0.00049200 0.00027900 0.00027600
v -0.00049200 0.00027900 0.00027600
v -0.00049200 0.00027900 0.00027600
v -0.00049200 0.00027900 0.00027600
v -0.00049200 0.00027900 0.00027600
v -0.00049200 0.00027900 0.00027600
v -0.00049200 0.00025700 0.00053600
v -0.00049200 0.00025700 0.00053600
v -0.00049200 0.00025700 0.00053600
v -0.00049200 0.00025700 0.00053600
v -0.00049200 0.00025700 0.00053600
v -0.00049200 0.00025700 0.00053600
v -0.00049200 0.00025700 0.00053600
v -0.00049200 0.00025700 0.00053600
v -0.00049200 0.00025700 0.00053600
v -0.00049200 0.00025700 0.00053600
v -0.00050400 0.00027500 0.00001700
v -0.00050400 0.00027500 0.00001700
v -0.00050400 0.00027500 0.00001700
v -0.00050400 0.00027500 0.00001700
v -0.00050400 0.00027500 0.00001700
v -0.00050400 0.00027500 0.00001700
v -0.00050400 0.00027500 0.00001700
v -0.00050400 0.00027500 0.00001700
v -0.00050400 0.00027500 0.00001700
v -0.00055700 0.00020100 0.00113800
v -0.00055700 0.00020100 0.00113800
v -0.00055700 0.00020100 0.00113800
v -0.00055700 0.00020100 0.00113800
v -0.00055700 0.00020100 0.00113800
v -0.00052500 0.00024800 0.00099600
v -0.00052500 0.00024800 0.00099600
v -0.00052500 0.00024800 0.00099600
v -0.00052500 0.00024800 0.00099600
v -0.00052500 0.00024800 0.00099600
v -0.00052500 0.00024800 0.00099600
v -0.00050200 0.00025700 0.00078300
v -0.00050200 0.00025700 0.00078300
v -0.00050200 0.00025700 0.00078300
v -0.00050200 0.00025700 0.00078300
v -0.00050200 0.00025700 0.00078300
v -0.00050200 0.00025700 0.00078300
v -0.00050200 0.00025700 0.00078300
v -0.00050200 0.00025700 0.00078300
v 0.00005200 0.00020100 0.00124200
v 0.00005200 0.00020100 0.00124200
v 0.00005200 0.00020100 0.00124200
v 0.00005200 0.00020100 0.00124200
v 0.00005200 0.00020100 0.00124200
v 0.00005200 0.00020100 0.00124200
v 0.00005200 0.00020100 0.00124200
v 0.00008500 0.00024500 0.00108300
v 0.00008500 0.00024500 0.00108300
v 0.00008500 0.00024500 0.00108300
v 0.00008500 0.00024500 0.00108300
v 0.00008500 0.00024500 0.00108300
v 0.00008500 0.00024500 0.00108300
v 0.00009700 0.00025500 0.00083300
v 0.00009700 0.00025500 0.00083300
v 0.00009700 0.00025500 0.00083300
v 0.00009700 0.00025500 0.00083300
v 0.00009700 0.00025500 0.00083300
v 0.00009700 0.00025500 0.00083300
v -0.00056300 0.00015000 -0.00060400
v -0.00056300 0.00015000 -0.00060400
v -0.00056300 0.00015000 -0.00060400
v -0.00056300 0.00015000 -0.00060400
v -0.00056300 0.00015000 -0.00060400
v -0.00056300 0.00015000 -0.00060400
v 0.00003100 0.00017100 -0.00081200
v 0.00003100 0.00017100 -0.00081200
v 0.00003100 0.00017100 -0.00081200
v 0.00003100 0.00017100 -0.00081200
v 0.00003100 0.00017100 -0.00081200
v 0.00003100 0.00017100 -0.00081200
v 0.00003100 0.00017100 -0.00081200
v -0.00052300 0.00025600 -0.00023500
v -0.00052300 0.00025600 -0.00023500
v -0.00052300 0.00025600 -0.00023500
v -0.00052300 0.00025600 -0.00023500
v -0.00052300 0.00025600 -0.00023500
v -0.00052300 0.00025600 -0.00023500
v -0.00052300 0.00025600 -0.00023500
v -0.00052300 0.00025600 -0.00023500
v -0.00052300 0.00025600 -0.00023500
v -0.00054500 0.00023400 -0.00045700
v -0.00054500 0.00023400 -0.00045700
v -0.00054500 0.00023400 -0.00045700
v -0.00054500 0.00023400 -0.00045700
v -0.00054500 0.00023400 -0.00045700
v -0.00054500 0.00023400 -0.00045700
v -0.00054500 0.00023400 -0.00045700
v 0.00004700 0.00022500 -0.00059700
v 0.00004700 0.00022500 -0.00059700
v 0.00004700 0.00022500 -0.00059700
v 0.00004700 0.00022500 -0.00059700
v 0.00004700 0.00022500 -0.00059700
v 0.00004700 0.00022500 -0.00059700
v 0.00004700 0.00022500 -0.00059700
v 0.00004700 0.00022500 -0.00059700
v 0.00003700 -0.00020800 0.00029400
v 0.00003700 -0.00020800 0.00029400
v 0.00003700 -0.00020800 0.00029400
v 0.00003700 -0.00020800 0.00029400
v 0.00003700 -0.00021000 0.00026900
v 0.00003700 -0.00021000 0.00026900
v 0.00003700 -0.00021000 0.00026900
v 0.00003700 -0.00021000 0.00026900
v 0.00004200 -0.00020200 0.00041500
v 0.00004200 -0.00020200 0.00041500
v 0.00004200 -0.00020200 0.00041500
v 0.00004200 -0.00020200 0.00041500
v 0.00004200 -0.00020200 0.00041500
v 0.00005400 -0.00019400 0.00056000
v 0.00005400 -0.00019400 0.00056000
v 0.00005400 -0.00019400 0.00056000
v 0.00005400 -0.00019400 0.00056000
v 0.00005300 -0.00019400 0.00055300
v 0.00005300 -0.00019400 0.00055300
v 0.00005300 -0.00019400 0.00055300
v 0.00005300 -0.00019400 0.00055300
v 0.00002600 -0.00022700 -0.00000100
v 0.00002600 -0.00022700 -0.00000100
v 0.00002600 -0.00022700 -0.00000100
v 0.00002600 -0.00022700 -0.00000100
v 0.00002600 -0.00022700 -0.00000100
v 0.00002700 -0.00022600 -0.00002700
v 0.00002700 -0.00022600 -0.00002700
v 0.00002700 -0.00022600 -0.00002700
v 0.00002700 -0.00022600 -0.00002700
v 0.00002600 -0.00022700 0.00000000
v 0.00002600 -0.00022700 0.00000000
v 0.00002600 -0.00022700 0.00000000
v 0.00002600 -0.00022700 0.00000000
v 0.00002600 -0.00022700 0.00000000
v 0.00005700 -0.00019300 0.00057800
v 0.00005700 -0.00019300 0.00057800
v 0.00005700 -0.00019300 0.00057800
v 0.00005700 -0.00019300 0.00057800
v 0.00005700 -0.00019300 0.00057800
v 0.00009800 -0.00022800 0.00072200
v 0.00009800 -0.00022800 0.00072200
v 0.00009800 -0.00022800 0.00072200
v 0.00009800 -0.00022800 0.00072200
v 0.00009800 -0.00022800 0.00072200
v 0.00029000 -0.00010900 0.00139000
v 0.00029000 -0.00010900 0.00139000
v 0.00029000 -0.00010900 0.00139000
v 0.00029000 -0.00010900 0.00139000
v 0.00034200 0.00000000 0.00149100
v 0.00034200 0.00000000 0.00149100
v 0.00034200 0.00000000 0.00149100
v 0.00032200 -0.00003000 0.00146200
v 0.00032200 -0.00003000 0.00146200
v 0.00032200 -0.00003000 0.00146200
v 0.00032200 -0.00003000 0.00146200
v 0.00026200 -0.00018600 0.00129000
v 0.00026200 -0.00018600 0.00129000
v 0.00026200 -0.00018600 0.00129000
v 0.00028000 -0.00012500 0.00136800
v 0.00028000 -0.00012500 0.00136800
v 0.00028000 -0.00012500 0.00136800
v 0.00028000 -0.00012500 0.00136800
v 0.00028000 -0.00012500 0.00136800
v 0.00023900 -0.00020700 0.00121900
v 0.00023900 -0.00020700 0.00121900
v 0.00023900 -0.00020700 0.00121900
v 0.00020000 -0.00024000 0.00109900
v 0.00020000 -0.00024000 0.00109900
v 0.00020000 -0.00024000 0.00109900
v 0.00012500 -0.00025000 0.00082200
v 0.00012500 -0.00025000 0.00082200
v 0.00012500 -0.00025000 0.00082200
v 0.00012800 -0.00025200 0.00083700
v 0.00012800 -0.00025200 0.00083700
v 0.00012800 -0.00025200 0.00083700
v 0.00012800 -0.00025200 0.00083700
v 0.00012800 -0.00025200 0.00083700
v 0.00012800 -0.00025200 0.00083700
v 0.00010300 -0.00002300 -0.00091400
v 0.00010300 -0.00002300 -0.00091400
v 0.00010300 -0.00002300 -0.00091400
v 0.00010300 -0.00002300 -0.00091400
v 0.00010300 -0.00002300 -0.00091400
v 0.00011300 -0.00014800 -0.00086700
v 0.00011300 -0.00014800 -0.00086700
v 0.00011300 -0.00014800 -0.00086700
v 0.00011300 -0.00014800 -0.00086700
v 0.00011300 -0.00014800 -0.00086700
v 0.00011300 -0.00014800 -0.00086700
v 0.00010400 -0.00000000 -0.00092400
v 0.00010400 -0.00000000 -0.00092400
v 0.00010400 -0.00000000 -0.00092400
v 0.00010400 -0.00000000 -0.00092400
v 0.00010400 -0.00000000 -0.00092400
v 0.00010400 -0.00000000 -0.00092400
v 0.00010400 -0.00000000 -0.00092400
v 0.00011100 -0.00017100 -0.00084300
v 0.00011100 -0.00017100 -0.00084300
v 0.00011100 -0.00017100 -0.00084300
v 0.00002800 -0.00022400 -0.00005100
v 0.00002800 -0.00022400 -0.00005100
v 0.00002800 -0.00022400 -0.00005100
v 0.00002800 -0.00022400 -0.00005100
v 0.00003600 -0.00021700 -0.00029500
v 0.00003600 -0.00021700 -0.00029500
v 0.00003600 -0.00021700 -0.00029500
v 0.00003600 -0.00021700 -0.00029500
v 0.00003900 -0.00021600 -0.00032800
v 0.00003900 -0.00021600 -0.00032800
v 0.00003900 -0.00021600 -0.00032800
v 0.00003900 -0.00021600 -0.00032800
v 0.00003900 -0.00021600 -0.00032800
v 0.00005600 -0.00022100 -0.00049400
v 0.00005600 -0.00022100 -0.00049400
v 0.00005600 -0.00022100 -0.00049400
v 0.00005600 -0.00022100 -0.00049400
v 0.00005600 -0.00022100 -0.00049400
v 0.00005900 -0.00022100 -0.00052000
v 0.00005900 -0.00022100 -0.00052000
v 0.00005900 -0.00022100 -0.00052000
v 0.00005900 -0.00022100 -0.00052000
v 0.00007500 -0.00022300 -0.00060500
v 0.00007500 -0.00022300 -0.00060500
v 0.00007500 -0.00022300 -0.00060500
v 0.00007500 -0.00022300 -0.00060500
v 0.00009400 -0.00019300 -0.00074800
v 0.00009400 -0.00019300 -0.00074800
v 0.00009400 -0.00019300 -0.00074800
v 0.00009400 -0.00019300 -0.00074800
v 0.00009400 -0.00019300 -0.00074800
v 0.00009400 -0.00019300 -0.00074800
v 0.00007800 -0.00022200 -0.00062200
v 0.00007800 -0.00022200 -0.00062200
v 0.00007800 -0.00022200 -0.00062200
v 0.00017200 -0.00024500 0.00102300
v 0.00017200 -0.00024500 0.00102300
v 0.00017200 -0.00024500 0.00102300
v 0.00017200 -0.00024500 0.00102300
v 0.00013300 -0.00025300 0.00086000
v 0.00013300 -0.00025300 0.00086000
v 0.00013300 -0.00025300 0.00086000
v 0.00013300 -0.00025300 0.00086000
v 0.00013300 -0.00025300 0.00086000
v 0.00013300 -0.00025300 0.00086000
v 0.00013200 -0.00025300 0.00085400
v 0.00003700 0.00020800 0.00029400
v 0.00003700 0.00020800 0.00029400
v 0.00003700 0.00020800 0.00029400
v 0.00003700 0.00020800 0.00029400
v 0.00004200 0.00020200 0.00041500
v 0.00004200 0.00020200 0.00041500
v 0.00004200 0.00020200 0.00041500
v 0.00004200 0.00020200 0.00041500
v 0.00004200 0.00020200 0.00041500
v 0.00005400 0.00019400 0.00056000
v 0.00005400 0.00019400 0.00056000
v 0.00005400 0.00019400 0.00056000
v 0.00005400 0.00019400 0.00056000
v 0.00005300 0.00019400 0.00055300
v 0.00005300 0.00019400 0.00055300
v 0.00005300 0.00019400 0.00055300
v 0.00005300 0.00019400 0.00055300
v 0.00003700 0.00021000 0.00026900
v 0.00003700 0.00021000 0.00026900
v 0.00003700 0.00021000 0.00026900
v 0.00003700 0.00021000 0.00026900
v 0.00002600 0.00022700 -0.00000000
v 0.00002600 0.00022700 -0.00000000
v 0.00002600 0.00022700 -0.00000000
v 0.00002600 0.00022700 -0.00000000
v 0.00002600 0.00022700 -0.00000000
v 0.00002600 0.00022700 -0.00000100
v 0.00002600 0.00022700 -0.00000100
v 0.00002600 0.00022700 -0.00000100
v 0.00002600 0.00022700 -0.00000100
v 0.00002700 0.00022600 -0.00002700
v 0.00002700 0.00022600 -0.00002700
v 0.00002700 0.00022600 -0.00002700
v 0.00002700 0.00022600 -0.00002700
v 0.00009800 0.00022800 0.00072200
v 0.00009800 0.00022800 0.00072200
v 0.00009800 0.00022800 0.00072200
v 0.00009800 0.00022800 0.00072200
v 0.00005700 0.00019300 0.00057800
v 0.00005700 0.00019300 0.00057800
v 0.00005700 0.00019300 0.00057800
v 0.00005700 0.00019300 0.00057800
v 0.00005700 0.00019300 0.00057800
v 0.00026200 0.00018600 0.00129000
v 0.00026200 0.00018600 0.00129000
v 0.00026200 0.00018600 0.00129000
v 0.00028000 0.00012500 0.00136800
v 0.00028000 0.00012500 0.00136800
v 0.00028000 0.00012500 0.00136800
v 0.00028000 0.00012500 0.00136800
v 0.00028000 0.00012500 0.00136800
v 0.00029000 0.00010900 0.00139000
v 0.00029000 0.00010900 0.00139000
v 0.00029000 0.00010900 0.00139000
v 0.00029000 0.00010900 0.00139000
v 0.00032200 0.00003000 0.00146200
v 0.00032200 0.00003000 0.00146200
v 0.00032200 0.00003000 0.00146200
v 0.00032200 0.00003000 0.00146200
v 0.00023900 0.00020700 0.00121900
v 0.00023900 0.00020700 0.00121900
v 0.00023900 0.00020700 0.00121900
v 0.00020000 0.00024000 0.00109900
v 0.00020000 0.00024000 0.00109900
v 0.00020000 0.00024000 0.00109900
v 0.00012500 0.00025000 0.00082200
v 0.00012500 0.00025000 0.00082200
v 0.00012500 0.00025000 0.00082200
v 0.00012500 0.00025000 0.00082200
v 0.00012800 0.00025200 0.00083700
v 0.00012800 0.00025200 0.00083700
v 0.00012800 0.00025200 0.00083700
v 0.00012800 0.00025200 0.00083700
v 0.00012800 0.00025200 0.00083700
v 0.00011300 0.00014800 -0.00086700
v 0.00011300 0.00014800 -0.00086700
v 0.00011300 0.00014800 -0.00086700
v 0.00011300 0.00014800 -0.00086700
v 0.00011300 0.00014800 -0.00086700
v 0.00011300 0.00014800 -0.00086700
v 0.00011100 0.00017100 -0.00084300
v 0.00011100 0.00017100 -0.00084300
v 0.00011100 0.00017100 -0.00084300
v 0.00010300 0.00002300 -0.00091400
v 0.00010300 0.00002300 -0.00091400
v 0.00010300 0.00002300 -0.00091400
v 0.00010300 0.00002300 -0.00091400
v 0.00002800 0.00022400 -0.00005100
v 0.00002800 0.00022400 -0.00005100
v 0.00002800 0.00022400 -0.00005100
v 0.00002800 0.00022400 -0.00005100
v 0.00003600 0.00021700 -0.00029500
v 0.00003600 0.00021700 -0.00029500
v 0.00003600 0.00021700 -0.00029500
v 0.00003600 0.00021700 -0.00029500
v 0.00003600 0.00021700 -0.00029500
v 0.00003900 0.00021600 -0.00032800
v 0.00003900 0.00021600 -0.00032800
v 0.00003900 0.00021600 -0.00032800
v 0.00003900 0.00021600 -0.00032800
v 0.00003900 0.00021600 -0.00032800
v 0.00005600 0.00022100 -0.00049400
v 0.00005600 0.00022100 -0.00049400
v 0.00005600 0.00022100 -0.00049400
v 0.00005600 0.00022100 -0.00049400
v 0.00005600 0.00022100 -0.00049400
v 0.00005900 0.00022100 -0.00052000
v 0.00005900 0.00022100 -0.00052000
v 0.00005900 0.00022100 -0.00052000
v 0.00005900 0.00022100 -0.00052000
v 0.00007500 0.00022300 -0.00060500
v 0.00007500 0.00022300 -0.00060500
v 0.00007500 0.00022300 -0.00060500
v 0.00007500 0.00022300 -0.00060500
v 0.00007800 0.00022200 -0.00062200
v 0.00007800 0.00022200 -0.00062200
v 0.00007800 0.00022200 -0.00062200
v 0.00009400 0.00019300 -0.00074800
v 0.00009400 0.00019300 -0.00074800
v 0.00009400 0.00019300 -0.00074800
v 0.00009400 0.00019300 -0.00074800
v 0.00009400 0.00019300 -0.00074800
v 0.00009400 0.00019300 -0.00074800
v 0.00013200 0.00025300 0.00085400
v 0.00017200 0.00024500 0.00102300
v 0.00017200 0.00024500 0.00102300
v 0.00017200 0.00024500 0.00102300
v 0.00017200 0.00024500 0.00102300
v 0.00013300 0.00025300 0.00086000
v 0.00013300 0.00025300 0.00086000
v 0.00013300 0.00025300 0.00086000
v 0.00013300 0.00025300 0.00086000
v 0.00013300 0.00025300 0.00086000
v 0.00013300 0.00025300 0.00086000
v -0.00096200 -0.00008800 -0.00053100
v -0.00096200 -0.00008800 -0.00053100
v -0.00096200 -0.00008800 -0.00053100
v -0.00096200 -0.00008800 -0.00053100
v -0.00096200 -0.00008800 -0.00053100
v -0.00096500 -0.00013500 -0.00051700
v -0.00096500 -0.00013500 -0.00051700
v -0.00096500 -0.00013500 -0.00051700
v -0.00096500 -0.00013500 -0.00051700
v -0.00096600 -0.00014000 -0.00050700
v -0.00096600 -0.00014000 -0.00050700
v -0.00096600 -0.00014000 -0.00050700
v -0.00096600 -0.00014000 -0.00050700
v -0.00096600 -0.00014000 -0.00050700
v -0.00096600 0.00014000 -0.00050700
v -0.00096600 0.00014000 -0.00050700
v -0.00096600 0.00014000 -0.00050700
v -0.00096600 0.00014000 -0.00050700
v -0.00096500 0.00013500 -0.00051700
v -0.00096500 0.00013500 -0.00051700
v -0.00096500 0.00013500 -0.00051700
v -0.00096500 0.00013500 -0.00051700
v -0.00096200 0.00008800 -0.00053100
v -0.00096200 0.00008800 -0.00053100
v -0.00096200 0.00008800 -0.00053100
v -0.00096200 0.00008800 -0.00053100
v -0.00096200 0.00008800 -0.00053100
v -0.00095700 -0.00000000 -0.00056300
v -0.00095700 -0.00000000 -0.00056300
v -0.00095700 -0.00000000 -0.00056300
v -0.00081100 0.00004300 0.00116800
v -0.00081100 0.00004300 0.00116800
v -0.00081100 0.00004300 0.00116800
v -0.00081200 0.00006400 0.00115500
v -0.00081200 0.00006400 0.00115500
v -0.00081200 0.00006400 0.00115500
v -0.00081200 0.00006400 0.00115500
v -0.00083300 0.00020500 0.00102900
v -0.00083300 0.00020500 0.00102900
v -0.00083300 0.00020500 0.00102900
v -0.00083300 0.00020500 0.00102900
v -0.00080900 0.00018500 0.00110300
v -0.00080900 0.00018500 0.00110300
v -0.00080900 0.00018500 0.00110300
v -0.00080900 0.00018500 0.00110300
v -0.00079800 0.00000000 0.00119700
v -0.00079800 0.00000000 0.00119700
v -0.00079800 0.00000000 0.00119700
v -0.00079800 0.00000000 0.00119700
v -0.00079800 0.00000000 0.00119700
v -0.00081100 -0.00004300 0.00116800
v -0.00081100 -0.00004300 0.00116800
v -0.00081100 -0.00004300 0.00116800
v -0.00083300 -0.00020500 0.00102900
v -0.00083300 -0.00020500 0.00102900
v -0.00083300 -0.00020500 0.00102900
v -0.00080900 -0.00018500 0.00110300
v -0.00080900 -0.00018500 0.00110300
v -0.00080900 -0.00018500 0.00110300
v -0.00080900 -0.00018500 0.00110300
v -0.00081200 -0.00006400 0.00115500
v -0.00081200 -0.00006400 0.00115500
v -0.00081200 -0.00006400 0.00115500
v -0.00081200 -0.00006400 0.00115500
v -0.00093300 0.00026500 0.00045900
v -0.00093300 0.00026500 0.00045900
v -0.00093300 0.00026500 0.00045900
v -0.00093300 0.00026500 0.00045900
v -0.00093300 0.00026500 0.00045900
v -0.00092900 0.00025900 0.00052700
v -0.00092900 0.00025900 0.00052700
v -0.00092900 0.00025900 0.00052700
v -0.00092900 0.00025900 0.00052700
v -0.00092800 0.00025700 0.00054200
v -0.00092800 0.00025700 0.00054200
v -0.00092800 0.00025700 0.00054200
v -0.00092800 0.00025700 0.00054200
v -0.00095300 0.00027000 0.00022400
v -0.00095300 0.00027000 0.00022400
v -0.00095300 0.00027000 0.00022400
v -0.00095300 0.00027000 0.00022400
v -0.00095900 0.00026700 0.00017000
v -0.00095900 0.00026700 0.00017000
v -0.00095900 0.00026700 0.00017000
v -0.00095900 0.00026700 0.00017000
v -0.00094800 0.00027100 0.00028300
v -0.00094800 0.00027100 0.00028300
v -0.00094800 0.00027100 0.00028300
v -0.00094800 0.00027100 0.00028300
v -0.00096600 0.00016100 -0.00047100
v -0.00096600 0.00016100 -0.00047100
v -0.00096600 0.00016100 -0.00047100
v -0.00096600 0.00016100 -0.00047100
v -0.00096600 0.00016100 -0.00047100
v -0.00096700 0.00014600 -0.00049700
v -0.00096700 0.00014600 -0.00049700
v -0.00096700 0.00014600 -0.00049700
v -0.00096700 0.00014600 -0.00049700
v -0.00096700 0.00014600 -0.00049700
v -0.00096700 0.00014600 -0.00049700
v -0.00096700 0.00014600 -0.00049700
v -0.00096400 0.00022600 -0.00026700
v -0.00096400 0.00022600 -0.00026700
v -0.00096400 0.00022600 -0.00026700
v -0.00096400 0.00022600 -0.00026700
v -0.00096400 0.00022600 -0.00026700
v -0.00097000 0.00025500 -0.00000000
v -0.00097000 0.00025500 -0.00000000
v -0.00097000 0.00025500 -0.00000000
v -0.00097000 0.00025500 -0.00000000
v -0.00096700 0.00023900 -0.00012500
v -0.00096700 0.00023900 -0.00012500
v -0.00096700 0.00023900 -0.00012500
v -0.00096500 0.00023500 -0.00018500
v -0.00096500 0.00023500 -0.00018500
v -0.00096500 0.00023500 -0.00018500
v -0.00096500 0.00023500 -0.00018500
v -0.00096400 0.00022900 -0.00024400
v -0.00096400 0.00022900 -0.00024400
v -0.00096400 0.00022900 -0.00024400
v -0.00096400 0.00022900 -0.00024400
v -0.00089200 0.00023600 0.00076000
v -0.00089200 0.00023600 0.00076000
v -0.00089200 0.00023600 0.00076000
v -0.00089200 0.00023600 0.00076000
v -0.00090800 0.00023600 0.00068000
v -0.00090800 0.00023600 0.00068000
v -0.00090800 0.00023600 0.00068000
v -0.00090800 0.00023600 0.00068000
v -0.00088400 0.00023500 0.00080100
v -0.00088400 0.00023500 0.00080100
v -0.00088400 0.00023500 0.00080100
v -0.00088400 0.00023500 0.00080100
v -0.00088400 0.00023500 0.00080100
v -0.00083300 0.00020600 0.00102600
v -0.00083300 0.00020600 0.00102600
v -0.00083300 0.00020600 0.00102600
v -0.00087300 0.00023500 0.00084600
v -0.00087300 0.00023500 0.00084600
v -0.00087300 0.00023500 0.00084600
v -0.00087300 0.00023500 0.00084600
v -0.00087300 0.00023500 0.00084600
v -0.00084600 0.00022400 0.00096300
v -0.00084600 0.00022400 0.00096300
v -0.00084600 0.00022400 0.00096300
v -0.00084600 0.00022400 0.00096300
v -0.00084600 0.00022400 0.00096300
v -0.00096700 0.00026000 0.00004000
v -0.00096700 0.00026000 0.00004000
v -0.00096700 0.00026000 0.00004000
v -0.00088400 -0.00023500 0.00080100
v -0.00088400 -0.00023500 0.00080100
v -0.00088400 -0.00023500 0.00080100
v -0.00088400 -0.00023500 0.00080100
v -0.00088400 -0.00023500 0.00080100
v -0.00087300 -0.00023500 0.00084600
v -0.00087300 -0.00023500 0.00084600
v -0.00087300 -0.00023500 0.00084600
v -0.00087300 -0.00023500 0.00084600
v -0.00087300 -0.00023500 0.00084600
v -0.00084600 -0.00022400 0.00096300
v -0.00084600 -0.00022400 0.00096300
v -0.00084600 -0.00022400 0.00096300
v -0.00083300 -0.00020600 0.00102600
v -0.00083300 -0.00020600 0.00102600
v -0.00083300 -0.00020600 0.00102600
v -0.00083300 -0.00020600 0.00102600
v -0.00096700 -0.00014600 -0.00049700
v -0.00096700 -0.00014600 -0.00049700
v -0.00096700 -0.00014600 -0.00049700
v -0.00096700 -0.00014600 -0.00049700
v -0.00096400 -0.00022900 -0.00024400
v -0.00096400 -0.00022900 -0.00024400
v -0.00096400 -0.00022900 -0.00024400
v -0.00096400 -0.00022900 -0.00024400
v -0.00096500 -0.00023500 -0.00018500
v -0.00096500 -0.00023500 -0.00018500
v -0.00096500 -0.00023500 -0.00018500
v -0.00096500 -0.00023500 -0.00018500
v -0.00096700 -0.00023900 -0.00012500
v -0.00096700 -0.00023900 -0.00012500
v -0.00096700 -0.00023900 -0.00012500
v -0.00097000 -0.00025500 0.00000000
v -0.00097000 -0.00025500 0.00000000
v -0.00097000 -0.00025500 0.00000000
v -0.00097000 -0.00025500 0.00000000
v -0.00096600 -0.00016100 -0.00047100
v -0.00096600 -0.00016100 -0.00047100
v -0.00096600 -0.00016100 -0.00047100
v -0.00096600 -0.00016100 -0.00047100
v -0.00096600 -0.00016100 -0.00047100
v -0.00096600 -0.00016100 -0.00047100
v -0.00096600 -0.00016100 -0.00047100
v -0.00096400 -0.00022600 -0.00026700
v -0.00096400 -0.00022600 -0.00026700
v -0.00096400 -0.00022600 -0.00026700
v -0.00096400 -0.00022600 -0.00026700
v -0.00096400 -0.00022600 -0.00026700
v -0.00095900 -0.00026700 0.00017000
v -0.00095900 -0.00026700 0.00017000
v -0.00095900 -0.00026700 0.00017000
v -0.00095900 -0.00026700 0.00017000
v -0.00096700 -0.00026000 0.00004000
v -0.00096700 -0.00026000 0.00004000
v -0.00096700 -0.00026000 0.00004000
v -0.00095300 -0.00027000 0.00022400
v -0.00095300 -0.00027000 0.00022400
v -0.00095300 -0.00027000 0.00022400
v -0.00095300 -0.00027000 0.00022400
v -0.00094800 -0.00027100 0.00028300
v -0.00094800 -0.00027100 0.00028300
v -0.00094800 -0.00027100 0.00028300
v -0.00094800 -0.00027100 0.00028300
v -0.00092800 -0.00025700 0.00054200
v -0.00092800 -0.00025700 0.00054200
v -0.00092800 -0.00025700 0.00054200
v -0.00092800 -0.00025700 0.00054200
v -0.00092900 -0.00025900 0.00052700
v -0.00092900 -0.00025900 0.00052700
v -0.00092900 -0.00025900 0.00052700
v -0.00092900 -0.00025900 0.00052700
v -0.00093300 -0.00026500 0.00045900
v -0.00093300 -0.00026500 0.00045900
v -0.00093300 -0.00026500 0.00045900
v -0.00093300 -0.00026500 0.00045900
v -0.00093300 -0.00026500 0.00045900
v -0.00089200 -0.00023600 0.00076000
v -0.00089200 -0.00023600 0.00076000
v -0.00089200 -0.00023600 0.00076000
v -0.00089200 -0.00023600 0.00076000
v -0.00090800 -0.00023600 0.00068000
v -0.00090800 -0.00023600 0.00068000
v -0.00090800 -0.00023600 0.00068000
v -0.00090800 -0.00023600 0.00068000
v -0.00095800 0.00021200 -0.00038200
v -0.00095800 0.00021200 -0.00038200
v -0.00095800 0.00021200 -0.00038200
v -0.00095800 0.00021200 -0.00038200
v -0.00095800 -0.00021200 -0.00038200
v -0.00095800 -0.00021200 -0.00038200
v -0.00095800 -0.00021200 -0.00038200
v -0.00095800 -0.00021200 -0.00038200
vt 0.00000000 0.00000000
vt 0.00000000 0.00000000
vt 0.00000000 0.00000000
vt 0.00000000 0.00000000
vt 0.00000000 0.00000000
vt 0.00000000 0.00000000
vt 0.00000000 0.00000000
vt 0.00000000 0.00000000
vt 0.00000000 0.00000000
vt 0.00000000 0.00000000
vt 0.00000000 0.00000000
vt 0.00000000 0.00000000
vt 0.00000000 0.00000000
vt 0.00000000 0.00000000
vt 0.00000000 0.00000000
vt 0.00000000 0.00000000
vt 0.00000000 0.00000000
vt 0.00000000 0.00000000
vt 0.00000000 0.00000000
vt 0.00000000 0.00000000
vt 0.00000000 0.00000000
vt 0.00000000 0.00000000
vt 0.00000000 0.00000000
vt 0.00000000 0.00000000
vt 0.00000000 0.00000000
vt 0.00000000 0.00000000
vt 0.00000000 0.00000000
vt 0.00000000 0.00000000
vt 0.00000000 0.00000000
vt 0.00000000 0.00000000
vt 0.00000000 0.00000000
vt 0.00000000 0.00000000
vt 0.00000000 0.00000000
vt 0.00000000 0.00000000
vt 0.00000000 0.00000000
vt 0.00000000 0.00000000
vt 0.00000000 0.00000000
vt 0.00000000 0.00000000
vt 0.00000000 0.00000000
vt 0.00000000 0.00000000
vt 0.00000000 0.00000000
vt 0.00000000 0.00000000
vt 0.00000000 0.00000000
vt 0.00000000 0.00000000
vt 0.00000000 0.00000000
vt 0.00000000 0.00000000
vt 0.00000000 0.00000000
vt 0.00000000 0.00000000
vt 0.00000000 0.00000000
vt 0.00000000 0.00000000
vt 0.00000000 0.00000000
vt 0.00000000 0.00000000
vt 0.00000000 0.00000000
vt 0.00000000 0.00000000
vt 0.00000000 0.00000000
vt 0.00000000 0.00000000
vt 0.00000000 0.00000000
vt 0.00000000 0.00000000
vt 0.00000000 0.00000000
vt 0.00000000 0.00000000
vt 0.00000000 0.00000000
vt 0.00000000 0.00000000
vt 0.00000000 0.00000000
vt 0.00000000 0.00000000
vt 0.00000000 0.00000000
vt 0.00000000 0.00000000
vt 0.00000000 0.00000000
vt 0.00000000 0.00000000
vt 0.00000000 0.00000000
vt 0.00000000 0.00000000
vt 0.00000000 0.00000000
vt 0.00000000 0.00000000
vt 0.00000000 0.00000000
vt 0.00000000 0.00000000
vt 0.00000000 0.00000000
vt 0.00000000 0.00000000
vt 0.00000000 0.00000000
vt 0.00000000 0.00000000
vt 0.00000000 0.00000000
vt 0.00000000 0.00000000
vt 0.00000000 0.00000000
vt 0.00000000 0.00000000
vt 0.00000000 0.00000000
vt 0.00000000 0.00000000
vt 0.00000000 0.00000000
vt 0.00000000 0.00000000
vt 0.00000000 0.00000000
vt 0.00000000 0.00000000
vt 0.00000000 0.00000000
vt 0.00000000 0.00000000
vt 0.00000000 0.00000000
vt 0.00000000 0.00000000
vt 0.00000000 0.00000000
vt 0.00000000 0.00000000
vt 0.00000000 0.00000000
vt 0.00000000 0.00000000
vt 0.00000000 0.00000000
vt 0.00000000 0.00000000
vt 0.00000000 0.00000000
vt 0.00000000 0.00000000
vt 0.00000000 0.00000000
vt 0.00000000 0.00000000
vt 0.00000000 0.00000000
vt 0.00000000 0.00000000
vt 0.00000000 0.00000000
vt 0.00000000 0.00000000
vt 0.00000000 0.00000000
vt 0.00000000 0.00000000
vt 0.00000000 0.00000000
vt 0.00000000 0.00000000
vt 0.00000000 0.00000000
vt 0.00000000 0.00000000
vt 0.00000000 0.00000000
vt 0.00000000 0.00000000
vt 0.00000000 0.00000000
vt 0.24641000 0.34555200
vt 0.24641000 0.34555200
vt 0.24641000 0.34555200
vt 0.24641000 0.34555200
vt 0.24641000 0.34555200
vt 0.24641000 0.34555200
vt 0.24641000 0.34555200
vt 0.24641000 0.34555200
vt 0.24641000 0.34555200
vt 0.24641000 0.34555200
vt 0.23614400 0.35905800
vt 0.23614400 0.35905800
vt 0.23614400 0.35905800
vt 0.23614400 0.35905800
vt 0.23614400 0.35905800
vt 0.23614400 0.35905800
vt 0.23614400 0.35905800
vt 0.23614400 0.35905800
vt 0.23614400 0.35905800
vt 0.22646400 0.37247800
vt 0.22646400 0.37247800
vt 0.22646400 0.37247800
vt 0.22646400 0.37247800
vt 0.22646400 0.37247800
vt 0.22646400 0.37247800
vt 0.22646400 0.37247800
vt 0.22646400 0.37247800
vt 0.27400100 0.31459900
vt 0.27400100 0.31459900
vt 0.27400100 0.31459900
vt 0.27400100 0.31459900
vt 0.27400100 0.31459900
vt 0.28581500 0.30470700
vt 0.28581500 0.30470700
vt 0.28581500 0.30470700
vt 0.28581500 0.30470700
vt 0.28581500 0.30470700
vt 0.28581500 0.30470700
vt 0.25667100 0.33269600
vt 0.25667100 0.33269600
vt 0.25667100 0.33269600
vt 0.25667100 0.33269600
vt 0.25667100 0.33269600
vt 0.25667100 0.33269600
vt 0.25667100 0.33269600
vt 0.25667100 0.33269600
vt 0.24326200 0.28676900
vt 0.24326200 0.28676900
vt 0.24326200 0.28676900
vt 0.24326200 0.28676900
vt 0.24326200 0.28676900
vt 0.24326200 0.28676900
vt 0.24326200 0.28676900
vt 0.25403400 0.27431000
vt 0.25403400 0.27431000
vt 0.25403400 0.27431000
vt 0.25403400 0.27431000
vt 0.25403400 0.27431000
vt 0.25403400 0.27431000
vt 0.25403400 0.27431000
vt 0.25403400 0.27431000
vt 0.25403400 0.27431000
vt 0.25403400 0.27431000
vt 0.25403400 0.27431000
vt 0.25403400 0.27431000
vt 0.22645600 0.30760500
vt 0.22645600 0.30760500
vt 0.22645600 0.30760500
vt 0.22645600 0.30760500
vt 0.22645600 0.30760500
vt 0.22645600 0.30760500
vt 0.20055400 0.41387800
vt 0.39107500 0.21463100
vt 0.20055400 0.41387800
vt 0.39107500 0.21463100
vt 0.39107500 0.21463100
vt 0.39107500 0.21463100
vt 0.20055400 0.41387800
vt 0.20055400 0.41387800
vt 0.20444000 0.40559500
vt 0.20444000 0.40559500
vt 0.20444000 0.40559500
vt 0.20444000 0.40559500
vt 0.20444000 0.40559500
vt 0.20444000 0.40559500
vt 0.16238200 0.40193900
vt 0.37738700 0.17701200
vt 0.16238200 0.40193900
vt 0.16238200 0.40193900
vt 0.16238200 0.40193900
vt 0.37738700 0.17701200
vt 0.37738700 0.17701200
vt 0.37738700 0.17701200
vt 0.16920600 0.39260600
vt 0.16920600 0.39260600
vt 0.16920600 0.39260600
vt 0.16920600 0.39260600
vt 0.16920600 0.39260600
vt 0.16920600 0.39260600
vt 0.16920600 0.39260600
vt 0.21745700 0.38548000
vt 0.21745700 0.38548000
vt 0.21745700 0.38548000
vt 0.21745700 0.38548000
vt 0.21745700 0.38548000
vt 0.21745700 0.38548000
vt 0.21745700 0.38548000
vt 0.21745700 0.38548000
vt 0.21745700 0.38548000
vt 0.20984400 0.39685900
vt 0.20984400 0.39685900
vt 0.20984400 0.39685900
vt 0.20984400 0.39685900
vt 0.20984400 0.39685900
vt 0.20984400 0.39685900
vt 0.17653100 0.38155000
vt 0.17653100 0.38155000
vt 0.17653100 0.38155000
vt 0.17653100 0.38155000
vt 0.17653100 0.38155000
vt 0.17653100 0.38155000
vt 0.17653100 0.38155000
vt 0.17653100 0.38155000
vt 0.26628500 0.32179200
vt 0.26628500 0.32179200
vt 0.26628500 0.32179200
vt 0.26628500 0.32179200
vt 0.26628500 0.32179200
vt 0.26628500 0.32179200
vt 0.23577800 0.29467800
vt 0.23577800 0.29467800
vt 0.23577800 0.29467800
vt 0.23577800 0.29467800
vt 0.23577800 0.29467800
vt 0.23577800 0.29467800
vt 0.33789300 0.25265100
vt 0.33789300 0.25265100
vt 0.33789300 0.25265100
vt 0.33789300 0.25265100
vt 0.33789300 0.25265100
vt 0.33789300 0.25265100
vt 0.33789300 0.25265100
vt 0.33789300 0.25265100
vt 0.32485800 0.26351300
vt 0.32485800 0.26351300
vt 0.32485800 0.26351300
vt 0.32485800 0.26351300
vt 0.32485800 0.26351300
vt 0.32485800 0.26351300
vt 0.32485800 0.26351300
vt 0.32485800 0.26351300
vt 0.32485800 0.26351300
vt 0.32485800 0.26351300
vt 0.35086700 0.24238000
vt 0.35086700 0.24238000
vt 0.35086700 0.24238000
vt 0.35086700 0.24238000
vt 0.35086700 0.24238000
vt 0.35086700 0.24238000
vt 0.35086700 0.24238000
vt 0.35086700 0.24238000
vt 0.35086700 0.24238000
vt 0.29516800 0.29246300
vt 0.29516800 0.29246300
vt 0.29516800 0.29246300
vt 0.29516800 0.29246300
vt 0.29516800 0.29246300
vt 0.30200900 0.28443300
vt 0.30200900 0.28443300
vt 0.30200900 0.28443300
vt 0.30200900 0.28443300
vt 0.30200900 0.28443300
vt 0.30200900 0.28443300
vt 0.31247300 0.27433900
vt 0.31247300 0.27433900
vt 0.31247300 0.27433900
vt 0.31247300 0.27433900
vt 0.31247300 0.27433900
vt 0.31247300 0.27433900
vt 0.31247300 0.27433900
vt 0.31247300 0.27433900
vt 0.26600000 0.26299500
vt 0.26600000 0.26299500
vt 0.26600000 0.26299500
vt 0.26600000 0.26299500
vt 0.26600000 0.26299500
vt 0.26600000 0.26299500
vt 0.26600000 0.26299500
vt 0.27356700 0.25516700
vt 0.27356700 0.25516700
vt 0.27356700 0.25516700
vt 0.27356700 0.25516700
vt 0.27356700 0.25516700
vt 0.27356700 0.25516700
vt 0.28606400 0.24527900
vt 0.28606400 0.24527900
vt 0.28606400 0.24527900
vt 0.28606400 0.24527900
vt 0.28606400 0.24527900
vt 0.28606400 0.24527900
vt 0.38297000 0.21888900
vt 0.38297000 0.21888900
vt 0.38297000 0.21888900
vt 0.38297000 0.21888900
vt 0.38297000 0.21888900
vt 0.38297000 0.21888900
vt 0.36838000 0.18426200
vt 0.36838000 0.18426200
vt 0.36838000 0.18426200
vt 0.36838000 0.18426200
vt 0.36838000 0.18426200
vt 0.36838000 0.18426200
vt 0.36838000 0.18426200
vt 0.36345500 0.23279800
vt 0.36345500 0.23279800
vt 0.36345500 0.23279800
vt 0.36345500 0.23279800
vt 0.36345500 0.23279800
vt 0.36345500 0.23279800
vt 0.36345500 0.23279800
vt 0.36345500 0.23279800
vt 0.36345500 0.23279800
vt 0.37448300 0.22468100
vt 0.37448300 0.22468100
vt 0.37448300 0.22468100
vt 0.37448300 0.22468100
vt 0.37448300 0.22468100
vt 0.37448300 0.22468100
vt 0.37448300 0.22468100
vt 0.35767400 0.19208600
vt 0.35767400 0.19208600
vt 0.35767400 0.19208600
vt 0.35767400 0.19208600
vt 0.35767400 0.19208600
vt 0.35767400 0.19208600
vt 0.35767400 0.19208600
vt 0.35767400 0.19208600
vt 0.00000000 0.00000000
vt 0.20963700 0.33800400
vt 0.20963700 0.33800400
vt 0.00000000 0.00000000
vt 0.00000000 0.00000000
vt 0.20874400 0.33936600
vt 0.00000000 0.00000000
vt 0.20874400 0.33936600
vt 0.00000000 0.00000000
vt 0.21377200 0.33160900
vt 0.21377200 0.33160900
vt 0.21377200 0.33160900
vt 0.00000000 0.00000000
vt 0.21843900 0.32371100
vt 0.00000000 0.00000000
vt 0.00000000 0.00000000
vt 0.21843900 0.32371100
vt 0.21823200 0.32414600
vt 0.00000000 0.00000000
vt 0.00000000 0.00000000
vt 0.21823200 0.32414600
vt 0.00000000 0.00000000
vt 0.19938700 0.35335600
vt 0.19938700 0.35335600
vt 0.19938700 0.35335600
vt 0.00000000 0.00000000
vt 0.00000000 0.00000000
vt 0.19837300 0.35461800
vt 0.19837300 0.35461800
vt 0.00000000 0.00000000
vt 0.19944300 0.35328600
vt 0.00000000 0.00000000
vt 0.00000000 0.00000000
vt 0.00000000 0.00000000
vt 0.19944300 0.35328600
vt 0.00000000 0.00000000
vt 0.21889400 0.32268600
vt 0.21889400 0.32268600
vt 0.21889400 0.32268600
vt 0.00000000 0.00000000
vt 0.22223200 0.31346700
vt 0.22223200 0.31346700
vt 0.00000000 0.00000000
vt 0.00000000 0.00000000
vt 0.00000000 0.00000000
vt 0.00000000 0.00000000
vt 0.23613700 0.26925300
vt 0.23613700 0.26925300
vt 0.00000000 0.00000000
vt 0.23840400 0.25935900
vt 0.23840400 0.25935900
vt 0.00000000 0.00000000
vt 0.00000000 0.00000000
vt 0.23803600 0.26233200
vt 0.00000000 0.00000000
vt 0.23803600 0.26233200
vt 0.23346200 0.27714100
vt 0.00000000 0.00000000
vt 0.23346200 0.27714100
vt 0.23576500 0.27113500
vt 0.23576500 0.27113500
vt 0.00000000 0.00000000
vt 0.23576500 0.27113500
vt 0.00000000 0.00000000
vt 0.00000000 0.00000000
vt 0.23225300 0.28194100
vt 0.23225300 0.28194100
vt 0.00000000 0.00000000
vt 0.23019000 0.28994200
vt 0.23019000 0.28994200
vt 0.22456800 0.30722600
vt 0.22456800 0.30722600
vt 0.00000000 0.00000000
vt 0.00000000 0.00000000
vt 0.00000000 0.00000000
vt 0.00000000 0.00000000
vt 0.22492400 0.30632000
vt 0.22492400 0.30632000
vt 0.22492400 0.30632000
vt 0.16055700 0.40014200
vt 0.00000000 0.00000000
vt 0.16055700 0.40014200
vt 0.00000000 0.00000000
vt 0.16055700 0.40014200
vt 0.00000000 0.00000000
vt 0.16318200 0.39279100
vt 0.16318200 0.39279100
vt 0.00000000 0.00000000
vt 0.16318200 0.39279100
vt 0.00000000 0.00000000
vt 0.15990700 0.40144000
vt 0.37677300 0.17456600
vt 0.00000000 0.00000000
vt 0.00000000 0.00000000
vt 0.15990700 0.40144000
vt 0.00000000 0.00000000
vt 0.00000000 0.00000000
vt 0.00000000 0.00000000
vt 0.16431500 0.39119400
vt 0.16431500 0.39119400
vt 0.00000000 0.00000000
vt 0.19746700 0.35573600
vt 0.00000000 0.00000000
vt 0.19746700 0.35573600
vt 0.00000000 0.00000000
vt 0.00000000 0.00000000
vt 0.18805000 0.36735200
vt 0.18805000 0.36735200
vt 0.18670200 0.36885700
vt 0.00000000 0.00000000
vt 0.18670200 0.36885700
vt 0.00000000 0.00000000
vt 0.18670200 0.36885700
vt 0.17982200 0.37624700
vt 0.17982200 0.37624700
vt 0.00000000 0.00000000
vt 0.17982200 0.37624700
vt 0.00000000 0.00000000
vt 0.17873900 0.37742200
vt 0.00000000 0.00000000
vt 0.17873900 0.37742200
vt 0.00000000 0.00000000
vt 0.17487300 0.38090100
vt 0.00000000 0.00000000
vt 0.00000000 0.00000000
vt 0.17487300 0.38090100
vt 0.00000000 0.00000000
vt 0.00000000 0.00000000
vt 0.16866500 0.38717800
vt 0.16866500 0.38717800
vt 0.00000000 0.00000000
vt 0.16866500 0.38717800
vt 0.00000000 0.00000000
vt 0.17409700 0.38161100
vt 0.17409700 0.38161100
vt 0.22906400 0.29492900
vt 0.22906400 0.29492900
vt 0.00000000 0.00000000
vt 0.00000000 0.00000000
vt 0.00000000 0.00000000
vt 0.22547200 0.30493400
vt 0.22547200 0.30493400
vt 0.22547200 0.30493400
vt 0.00000000 0.00000000
vt 0.22547200 0.30493400
vt 0.22532100 0.30529100
vt 0.00000000 0.00000000
vt 0.31567600 0.22712100
vt 0.00000000 0.00000000
vt 0.31567600 0.22712100
vt 0.00000000 0.00000000
vt 0.30947400 0.23153800
vt 0.30947400 0.23153800
vt 0.30947400 0.23153800
vt 0.00000000 0.00000000
vt 0.30179300 0.23655300
vt 0.30179300 0.23655300
vt 0.00000000 0.00000000
vt 0.00000000 0.00000000
vt 0.00000000 0.00000000
vt 0.30221900 0.23632600
vt 0.00000000 0.00000000
vt 0.30221900 0.23632600
vt 0.00000000 0.00000000
vt 0.31699700 0.22616800
vt 0.31699700 0.22616800
vt 0.00000000 0.00000000
vt 0.33048200 0.21625300
vt 0.33048200 0.21625300
vt 0.00000000 0.00000000
vt 0.00000000 0.00000000
vt 0.33048200 0.21625300
vt 0.33054900 0.21619400
vt 0.00000000 0.00000000
vt 0.33054900 0.21619400
vt 0.00000000 0.00000000
vt 0.00000000 0.00000000
vt 0.33176400 0.21512500
vt 0.33176400 0.21512500
vt 0.00000000 0.00000000
vt 0.00000000 0.00000000
vt 0.29173000 0.24079800
vt 0.29173000 0.24079800
vt 0.00000000 0.00000000
vt 0.30079000 0.23705300
vt 0.00000000 0.00000000
vt 0.30079000 0.23705300
vt 0.00000000 0.00000000
vt 0.30079000 0.23705300
vt 0.25594700 0.25363200
vt 0.00000000 0.00000000
vt 0.25594700 0.25363200
vt 0.25005100 0.25620000
vt 0.25005100 0.25620000
vt 0.25005100 0.25620000
vt 0.00000000 0.00000000
vt 0.00000000 0.00000000
vt 0.24818700 0.25665500
vt 0.00000000 0.00000000
vt 0.00000000 0.00000000
vt 0.24818700 0.25665500
vt 0.00000000 0.00000000
vt 0.24135800 0.25885900
vt 0.24135800 0.25885900
vt 0.00000000 0.00000000
vt 0.26068800 0.25221200
vt 0.26068800 0.25221200
vt 0.00000000 0.00000000
vt 0.26858900 0.24979600
vt 0.00000000 0.00000000
vt 0.26858900 0.24979600
vt 0.00000000 0.00000000
vt 0.00000000 0.00000000
vt 0.28560100 0.24341000
vt 0.28560100 0.24341000
vt 0.28471200 0.24380700
vt 0.28471200 0.24380700
vt 0.00000000 0.00000000
vt 0.00000000 0.00000000
vt 0.28471200 0.24380700
vt 0.36828700 0.17824100
vt 0.36828700 0.17824100
vt 0.00000000 0.00000000
vt 0.00000000 0.00000000
vt 0.36828700 0.17824100
vt 0.00000000 0.00000000
vt 0.36674500 0.17944600
vt 0.36674500 0.17944600
vt 0.00000000 0.00000000
vt 0.37550700 0.17527600
vt 0.00000000 0.00000000
vt 0.00000000 0.00000000
vt 0.37550700 0.17527600
vt 0.33284000 0.21416900
vt 0.33284000 0.21416900
vt 0.00000000 0.00000000
vt 0.00000000 0.00000000
vt 0.34401600 0.20423900
vt 0.00000000 0.00000000
vt 0.00000000 0.00000000
vt 0.34401600 0.20423900
vt 0.00000000 0.00000000
vt 0.34545900 0.20282400
vt 0.00000000 0.00000000
vt 0.34545900 0.20282400
vt 0.34545900 0.20282400
vt 0.00000000 0.00000000
vt 0.00000000 0.00000000
vt 0.35252700 0.19561500
vt 0.00000000 0.00000000
vt 0.35252700 0.19561500
vt 0.35252700 0.19561500
vt 0.00000000 0.00000000
vt 0.35365100 0.19448000
vt 0.00000000 0.00000000
vt 0.35365100 0.19448000
vt 0.00000000 0.00000000
vt 0.00000000 0.00000000
vt 0.35695100 0.19046100
vt 0.35695100 0.19046100
vt 0.00000000 0.00000000
vt 0.35762300 0.18965300
vt 0.35762300 0.18965300
vt 0.36293400 0.18397400
vt 0.36293400 0.18397400
vt 0.36293400 0.18397400
vt 0.00000000 0.00000000
vt 0.00000000 0.00000000
vt 0.00000000 0.00000000
vt 0.28370200 0.24424800
vt 0.00000000 0.00000000
vt 0.27351900 0.24844900
vt 0.00000000 0.00000000
vt 0.27351900 0.24844900
vt 0.28335200 0.24441600
vt 0.28335200 0.24441600
vt 0.00000000 0.00000000
vt 0.00000000 0.00000000
vt 0.28335200 0.24441600
vt 0.28335200 0.24441600
vt 0.00000000 0.00000000
vt 0.22425500 0.42012500
vt 0.22425500 0.42012500
vt 0.00000000 0.00000000
vt 0.00000000 0.00000000
vt 0.22601000 0.41772300
vt 0.22601000 0.41772200
vt 0.22601000 0.41772300
vt 0.00000000 0.00000000
vt 0.00000000 0.00000000
vt 0.22649700 0.41729200
vt 0.22649700 0.41729200
vt 0.00000000 0.00000000
vt 0.00000000 0.00000000
vt 0.00000000 0.00000000
vt 0.00000000 0.00000000
vt 0.39564100 0.24040300
vt 0.00000000 0.00000000
vt 0.39605000 0.23989800
vt 0.39605000 0.23989800
vt 0.39605000 0.23989800
vt 0.00000000 0.00000000
vt 0.39837300 0.23803600
vt 0.39837300 0.23803600
vt 0.00000000 0.00000000
vt 0.00000000 0.00000000
vt 0.00000000 0.00000000
vt 0.40262200 0.23450600
vt 0.00000000 0.00000000
vt 0.22092000 0.42452600
vt 0.00000000 0.00000000
vt 0.00000000 0.00000000
vt 0.30007700 0.31332300
vt 0.00000000 0.00000000
vt 0.30142300 0.31218300
vt 0.30142300 0.31218300
vt 0.30142300 0.31218300
vt 0.31352900 0.30328700
vt 0.00000000 0.00000000
vt 0.00000000 0.00000000
vt 0.00000000 0.00000000
vt 0.30821600 0.30541500
vt 0.30821600 0.30541500
vt 0.00000000 0.00000000
vt 0.30821600 0.30541500
vt 0.00000000 0.00000000
vt 0.29671400 0.31513000
vt 0.29671400 0.31513000
vt 0.29671400 0.31513000
vt 0.29671400 0.31513000
vt 0.29505900 0.31857100
vt 0.00000000 0.00000000
vt 0.00000000 0.00000000
vt 0.00000000 0.00000000
vt 0.28563600 0.33245900
vt 0.00000000 0.00000000
vt 0.28752300 0.32705600
vt 0.28752300 0.32705600
vt 0.28752300 0.32705600
vt 0.00000000 0.00000000
vt 0.29398100 0.31996600
vt 0.29398100 0.31996600
vt 0.29398100 0.31996600
vt 0.00000000 0.00000000
vt 0.34811800 0.28250700
vt 0.34811800 0.28250700
vt 0.00000000 0.00000000
vt 0.00000000 0.00000000
vt 0.34811800 0.28250700
vt 0.00000000 0.00000000
vt 0.34451300 0.28539000
vt 0.00000000 0.00000000
vt 0.34451300 0.28539000
vt 0.00000000 0.00000000
vt 0.34375000 0.28601400
vt 0.34375000 0.28601400
vt 0.00000000 0.00000000
vt 0.36057200 0.27283400
vt 0.00000000 0.00000000
vt 0.36057200 0.27283400
vt 0.00000000 0.00000000
vt 0.00000000 0.00000000
vt 0.36340700 0.27069000
vt 0.00000000 0.00000000
vt 0.00000000 0.00000000
vt 0.35746600 0.27524000
vt 0.00000000 0.00000000
vt 0.35746600 0.27524000
vt 0.00000000 0.00000000
vt 0.00000000 0.00000000
vt 0.00000000 0.00000000
vt 0.39375200 0.24214900
vt 0.00000000 0.00000000
vt 0.39375200 0.24214900
vt 0.00000000 0.00000000
vt 0.39514400 0.24094700
vt 0.39514400 0.24094700
vt 0.00000000 0.00000000
vt 0.39514400 0.24094700
vt 0.00000000 0.00000000
vt 0.39514400 0.24094700
vt 0.38388600 0.25140100
vt 0.00000000 0.00000000
vt 0.00000000 0.00000000
vt 0.00000000 0.00000000
vt 0.38388600 0.25140100
vt 0.37190500 0.26352900
vt 0.00000000 0.00000000
vt 0.37190500 0.26352900
vt 0.00000000 0.00000000
vt 0.37759900 0.25782200
vt 0.00000000 0.00000000
vt 0.37759900 0.25782200
vt 0.00000000 0.00000000
vt 0.38030800 0.25505500
vt 0.38030800 0.25505500
vt 0.00000000 0.00000000
vt 0.38287200 0.25242300
vt 0.00000000 0.00000000
vt 0.38287200 0.25242300
vt 0.00000000 0.00000000
vt 0.33083000 0.29415900
vt 0.00000000 0.00000000
vt 0.33083000 0.29415900
vt 0.00000000 0.00000000
vt 0.00000000 0.00000000
vt 0.33564300 0.29141100
vt 0.33564300 0.29141100
vt 0.33564300 0.29141100
vt 0.32828800 0.29561000
vt 0.00000000 0.00000000
vt 0.32828800 0.29561000
vt 0.00000000 0.00000000
vt 0.00000000 0.00000000
vt 0.31374900 0.30316800
vt 0.00000000 0.00000000
vt 0.31374900 0.30316800
vt 0.32538600 0.29705600
vt 0.00000000 0.00000000
vt 0.00000000 0.00000000
vt 0.32538600 0.29705600
vt 0.32538600 0.29705600
vt 0.31795000 0.30088200
vt 0.00000000 0.00000000
vt 0.00000000 0.00000000
vt 0.31795000 0.30088200
vt 0.00000000 0.00000000
vt 0.00000000 0.00000000
vt 0.36990700 0.26520200
vt 0.36990700 0.26520200
vt 0.27862800 0.34754600
vt 0.27862800 0.34754600
vt 0.00000000 0.00000000
vt 0.00000000 0.00000000
vt 0.00000000 0.00000000
vt 0.27994300 0.34458300
vt 0.27994300 0.34458300
vt 0.00000000 0.00000000
vt 0.00000000 0.00000000
vt 0.27994300 0.34458300
vt 0.28343100 0.33698200
vt 0.00000000 0.00000000
vt 0.28343100 0.33698200
vt 0.28552600 0.33268300
vt 0.28552600 0.33268300
vt 0.00000000 0.00000000
vt 0.00000000 0.00000000
vt 0.22701700 0.41677100
vt 0.00000000 0.00000000
vt 0.00000000 0.00000000
vt 0.00000000 0.00000000
vt 0.00000000 0.00000000
vt 0.00000000 0.00000000
vt 0.23793200 0.40400100
vt 0.23793200 0.40400100
vt 0.00000000 0.00000000
vt 0.00000000 0.00000000
vt 0.24044600 0.40132200
vt 0.24044600 0.40132200
vt 0.24308800 0.39849300
vt 0.00000000 0.00000000
vt 0.24308800 0.39849300
vt 0.24853500 0.39255000
vt 0.00000000 0.00000000
vt 0.00000000 0.00000000
vt 0.24853500 0.39255000
vt 0.00000000 0.00000000
vt 0.22815600 0.41532700
vt 0.00000000 0.00000000
vt 0.00000000 0.00000000
vt 0.22815600 0.41532700
vt 0.22815600 0.41532700
vt 0.22815600 0.41532700
vt 0.00000000 0.00000000
vt 0.23695600 0.40505900
vt 0.00000000 0.00000000
vt 0.00000000 0.00000000
vt 0.23695600 0.40505900
vt 0.00000000 0.00000000
vt 0.25530900 0.38374200
vt 0.00000000 0.00000000
vt 0.00000000 0.00000000
vt 0.00000000 0.00000000
vt 0.25011700 0.39048100
vt 0.25011700 0.39048100
vt 0.25732400 0.38081400
vt 0.00000000 0.00000000
vt 0.00000000 0.00000000
vt 0.25732400 0.38081400
vt 0.00000000 0.00000000
vt 0.00000000 0.00000000
vt 0.25958800 0.37760500
vt 0.25958800 0.37760500
vt 0.26973500 0.36342200
vt 0.00000000 0.00000000
vt 0.00000000 0.00000000
vt 0.26973500 0.36342200
vt 0.26914600 0.36421200
vt 0.26914600 0.36421200
vt 0.00000000 0.00000000
vt 0.00000000 0.00000000
vt 0.26642700 0.36794200
vt 0.26642700 0.36794200
vt 0.00000000 0.00000000
vt 0.26642700 0.36794200
vt 0.00000000 0.00000000
vt 0.27729300 0.35015100
vt 0.00000000 0.00000000
vt 0.27729300 0.35015100
vt 0.00000000 0.00000000
vt 0.00000000 0.00000000
vt 0.27476300 0.35508200
vt 0.27476300 0.35508200
vt 0.27476300 0.35508200
vt 0.00000000 0.00000000
vt 0.38885200 0.24607600
vt 0.38885200 0.24607600
vt 0.38885200 0.24607600
vt 0.23185900 0.41025700
vt 0.23185900 0.41025700
vt 0.23185900 0.41025700
vt 0.00000000 0.00000000
f 633/633 647/647 659/659
f 40/40 664/664 666/666
f 663/663 684/684 678/678
f 696/696 42/42 692/692
f 721/721 713/713 80/80
f 735/735 723/723 96/96
f 758/758 83/83 757/757
f 776/776 771/771 44/44
f 780/780 92/92 714/714
f 101/101 111/111 82/82
f 45/45 85/85 105/105
f 794/794 798/798 37/37
f 730/730 650/650 642/642
f 809/809 813/813 95/95
f 831/831 91/91 835/835
f 856/856 853/853 109/109
f 860/860 785/785 112/112
f 725/725 737/737 867/867
f 874/874 829/829 819/819
f 116/116 851/851 857/857
f 841/841 832/832 142/142
f 680/680 683/683 695/695
f 796/796 240/240 690/690
f 125/125 154/154 865/865
f 364/364 370/370 121/121
f 376/376 387/387 134/134
f 178/178 147/147 164/164
f 239/239 163/163 146/146
f 124/124 369/369 389/389
f 162/162 411/411 415/415
f 165/165 422/422 418/418
f 186/186 423/423 430/430
f 197/197 639/639 634/634
f 187/187 213/213 200/200
f 203/203 443/443 434/434
f 140/140 836/836 815/815
f 219/219 810/810 806/806
f 228/228 872/872 824/824
f 218/218 463/463 460/460
f 465/465 217/217 225/225
f 198/198 231/231 227/227
f 235/235 471/471 469/469
f 211/211 452/452 481/481
f 243/243 793/793 788/788
f 242/242 182/182 246/246
f 495/495 489/489 247/247
f 257/257 720/720 701/701
f 712/712 269/269 715/715
f 278/278 677/677 669/669
f 675/675 284/284 767/767
f 708/708 759/759 259/259
f 505/505 500/500 252/252
f 521/521 525/525 271/271
f 179/179 281/281 148/148
f 303/303 287/287 279/279
f 539/539 290/290 535/535
f 171/171 402/402 555/555
f 561/561 304/304 302/302
f 315/315 566/566 534/534
f 192/192 655/655 316/316
f 325/325 191/191 320/320
f 577/577 585/585 206/206
f 745/745 739/739 274/274
f 734/734 752/752 335/335
f 729/729 724/724 339/339
f 587/587 593/593 336/336
f 604/604 351/351 344/344
f 352/352 319/319 338/338
f 608/608 350/350 601/601
f 618/618 349/349 614/614
f 773/773 295/295 762/762
f 314/314 288/288 305/305
f 631/631 306/306 626/626
f 440/440 4/4 480/480
f 21/21 7/7 28/28
f 554/554 404/404 405/405
f 543/543 549/549 31/31
f 548/548 551/551 398/398
f 417/417 420/420 34/34
f 514/514 50/50 507/507
f 58/58 592/592 588/588
f 564/564 570/570 52/52
f 630/630 33/33 53/53
f 501/501 62/62 516/516
f 67/67 55/55 79/79
f 36/36 78/78 56/56
f 35/35 492/492 75/75
f 60/60 12/12 27/27
f 382/382 455/455 11/11
f 59/59 361/361 353/353
f 371/371 365/365 72/72
f 70/70 496/496 428/428
f 599/599 25/25 602/602
f 22/22 619/619 613/613
f 578/578 620/620 2/2
f 468/468 472/472 19/19
f 10/10 474/474 476/476
f 445/445 1/1 449/449
f 448/448 3/3 435/435
f 657/657 661/661 636/636
f 637/637 641/641 645/645
f 646/646 647/647 633/633
f 648/648 654/654 658/658
f 666/666 676/676 40/40
f 676/676 672/672 40/40
f 663/663 43/43 684/684
f 685/685 42/42 696/696
f 42/42 686/686 692/692
f 711/711 716/716 87/87
f 88/88 709/709 702/702
f 704/704 700/700 89/89
f 699/699 719/719 90/90
f 732/732 100/100 722/722
f 96/96 740/740 744/744
f 744/744 746/746 96/96
f 749/749 753/753 104/104
f 736/736 102/102 751/751
f 758/758 706/706 83/83
f 86/86 763/763 755/755
f 772/772 765/765 39/39
f 766/766 84/84 44/44
f 39/39 671/671 777/777
f 673/673 768/768 779/779
f 742/742 92/92 780/780
f 98/98 81/81 717/717
f 799/799 688/688 38/38
f 37/37 106/106 786/786
f 787/787 790/790 41/41
f 791/791 794/794 37/37
f 642/642 802/802 730/730
f 801/801 94/94 727/727
f 813/813 816/816 95/95
f 97/97 803/803 821/821
f 822/822 826/826 95/95
f 828/828 804/804 99/99
f 805/805 808/808 103/103
f 107/107 93/93 833/833
f 91/91 817/817 835/835
f 852/852 847/847 110/110
f 114/114 834/834 839/839
f 840/840 842/842 113/113
f 843/843 858/858 115/115
f 108/108 848/848 863/863
f 863/863 862/862 108/108
f 855/855 844/844 128/128
f 132/132 120/120 854/854
f 837/837 142/142 832/832
f 141/141 131/131 838/838
f 131/131 845/845 838/838
f 693/693 691/691 145/145
f 145/145 149/149 693/693
f 150/150 679/679 694/694
f 796/796 795/795 240/240
f 240/240 144/144 690/690
f 689/689 687/687 797/797
f 861/861 864/864 161/161
f 866/866 849/849 119/119
f 846/846 850/850 123/123
f 373/373 366/366 122/122
f 118/118 130/130 363/363
f 126/126 358/358 355/355
f 127/127 354/354 362/362
f 383/383 360/360 129/129
f 133/133 139/139 375/375
f 138/138 381/381 377/377
f 169/169 153/153 143/143
f 241/241 249/249 168/168
f 390/390 393/393 158/158
f 393/393 184/184 158/158
f 159/159 117/117 391/391
f 413/413 399/399 172/172
f 400/400 408/408 176/176
f 406/406 403/403 174/174
f 173/173 167/167 412/412
f 419/419 409/409 166/166
f 165/165 248/248 422/422
f 183/183 394/394 424/424
f 635/635 662/662 193/193
f 194/194 197/197 634/634
f 189/189 205/205 209/209
f 441/441 451/451 215/215
f 436/436 438/438 201/201
f 439/439 210/210 204/204
f 447/447 447/447 432/432
f 818/818 814/814 136/136
f 812/812 811/811 216/216
f 137/137 812/812 216/216
f 807/807 830/830 224/224
f 827/827 871/871 222/222
f 873/873 226/226 221/221
f 800/800 643/643 825/825
f 644/644 640/640 823/823
f 638/638 196/196 820/820
f 195/195 228/228 824/824
f 459/459 456/456 220/220
f 454/454 380/380 135/135
f 223/223 454/454 135/135
f 232/232 467/467 229/229
f 466/466 461/461 230/230
f 199/199 214/214 233/233
f 238/238 478/478 473/473
f 484/484 486/486 237/237
f 487/487 475/475 234/234
f 236/236 212/212 482/482
f 792/792 783/783 160/160
f 784/784 859/859 157/157
f 156/156 244/244 789/789
f 242/242 155/155 182/182
f 488/488 421/421 250/250
f 245/245 185/185 497/497
f 181/181 429/429 493/493
f 431/431 498/498 494/494
f 705/705 262/262 698/698
f 260/260 256/256 697/697
f 710/710 718/718 251/251
f 251/251 275/275 710/710
f 269/269 782/782 715/715
f 667/667 665/665 682/682
f 681/681 152/152 668/668
f 151/151 278/278 669/669
f 769/769 670/670 674/674
f 675/675 280/280 284/284
f 284/284 775/775 767/767
f 754/754 296/296 761/761
f 294/294 264/264 760/760
f 263/263 703/703 707/707
f 502/502 517/517 254/254
f 253/253 266/266 506/506
f 261/261 509/509 515/515
f 268/268 513/513 504/504
f 527/527 531/531 277/277
f 270/270 255/255 520/520
f 258/258 518/518 524/524
f 170/170 298/298 282/282
f 297/297 309/309 286/286
f 541/541 508/508 267/267
f 265/265 291/291 537/537
f 290/290 312/312 535/535
f 556/556 553/553 175/175
f 550/550 547/547 177/177
f 546/546 542/542 299/299
f 300/300 180/180 545/545
f 301/301 544/544 559/559
f 558/558 561/561 302/302
f 313/313 572/572 567/567
f 660/660 656/656 188/188
f 655/655 653/653 316/316
f 327/327 202/202 190/190
f 582/582 444/444 207/207
f 208/208 324/324 574/574
f 328/328 580/580 573/573
f 741/741 781/781 276/276
f 272/272 331/331 743/743
f 331/331 748/748 743/743
f 750/750 747/747 330/330
f 334/334 341/341 868/868
f 869/869 738/738 329/329
f 726/726 870/870 343/343
f 343/343 321/321 731/731
f 318/318 651/651 733/733
f 652/652 649/649 728/728
f 590/590 595/595 332/332
f 333/333 273/273 586/586
f 273/273 530/530 586/586
f 337/337 598/598 340/340
f 597/597 603/603 342/342
f 348/348 326/326 317/317
f 606/606 612/612 347/347
f 617/617 579/579 322/322
f 323/323 346/346 616/616
f 345/345 611/611 615/615
f 770/770 778/778 283/283
f 285/285 293/293 774/774
f 289/289 756/756 764/764
f 314/314 292/292 288/288
f 627/627 622/622 568/568
f 569/569 311/311 628/628
f 310/310 307/307 632/632
f 308/308 563/563 624/624
f 479/479 450/450 442/442
f 437/437 433/433 5/5
f 4/4 17/17 480/480
f 625/625 562/562 31/31
f 562/562 560/560 31/31
f 560/560 543/543 31/31
f 552/552 557/557 407/407
f 407/407 401/401 552/552
f 398/398 414/414 548/548
f 414/414 32/32 548/548
f 420/420 490/490 34/34
f 34/34 416/416 410/410
f 410/410 417/417 34/34
f 589/589 529/529 57/57
f 532/532 528/528 58/58
f 526/526 523/523 61/61
f 66/66 29/29 591/591
f 46/46 512/512 510/510
f 538/538 533/533 54/54
f 536/536 565/565 47/47
f 49/49 511/511 540/540
f 571/571 629/629 51/51
f 630/630 623/623 33/33
f 499/499 503/503 65/65
f 503/503 48/48 65/65
f 64/64 522/522 519/519
f 35/35 491/491 492/492
f 453/453 458/458 15/15
f 13/13 63/63 385/385
f 384/384 378/378 16/16
f 374/374 379/379 14/14
f 359/359 386/386 69/69
f 59/59 73/73 361/361
f 356/356 357/357 68/68
f 426/426 425/425 395/395
f 392/392 368/368 71/71
f 367/367 372/372 74/74
f 427/427 396/396 77/77
f 397/397 388/388 76/76
f 596/596 594/594 30/30
f 26/26 605/605 600/600
f 613/613 609/609 22/22
f 610/610 607/607 23/23
f 6/6 583/583 575/575
f 576/576 581/581 621/621
f 620/620 24/24 2/2
f 9/9 457/457 464/464
f 462/462 470/470 18/18
f 477/477 485/485 20/20
f 485/485 483/483 20/20
f 446/446 584/584 8/8

