# https://github.com/mikedh/trimesh
mtllib material.mtl

o joint_11
usemtl material_0
v -0.00096100 -0.00031200 0.00000000
v -0.00096100 -0.00031200 0.00000000
v -0.00096100 -0.00031200 0.00000000
v -0.00096100 -0.00031200 0.00000000
v -0.00096100 -0.00031200 0.00000000
v -0.00096100 -0.00031200 0.00000000
v -0.00096100 -0.00031200 0.00000000
v -0.00096100 -0.00031200 0.00000000
v -0.00067900 -0.00032500 0.00006400
v -0.00067900 -0.00032500 0.00006400
v -0.00067900 -0.00032500 0.00006400
v -0.00067900 -0.00032500 0.00006400
v -0.00067900 -0.00032500 0.00006400
v -0.00067300 -0.00033700 0.00029700
v -0.00067300 -0.00033700 0.00029700
v -0.00067300 -0.00033700 0.00029700
v -0.00067300 -0.00033700 0.00029700
v -0.00067300 -0.00033700 0.00029700
v -0.00067300 -0.00033700 0.00029700
v -0.00067300 -0.00033700 0.00029700
v -0.00067300 -0.00033700 0.00029700
v -0.00067800 -0.00033500 0.00053300
v -0.00067800 -0.00033500 0.00053300
v -0.00067800 -0.00033500 0.00053300
v -0.00067800 -0.00033500 0.00053300
v -0.00067800 -0.00033500 0.00053300
v -0.00067800 -0.00033500 0.00053300
v -0.00067800 -0.00033500 0.00053300
v -0.00067800 -0.00033500 0.00053300
v -0.00096100 0.00031200 -0.00000000
v -0.00096100 0.00031200 -0.00000000
v -0.00096100 0.00031200 -0.00000000
v -0.00096100 0.00031200 -0.00000000
v -0.00096100 0.00031200 -0.00000000
v -0.00096100 0.00031200 -0.00000000
v -0.00096100 0.00031200 -0.00000000
v -0.00096100 0.00031200 -0.00000000
v -0.00096100 0.00031200 -0.00000000
v -0.00096100 0.00031200 -0.00000000
v -0.00009000 -0.00026000 0.00052400
v -0.00009000 -0.00026000 0.00052400
v -0.00009000 -0.00026000 0.00052400
v -0.00009000 -0.00026000 0.00052400
v -0.00009000 -0.00026000 0.00052400
v -0.00009000 -0.00026000 0.00052400
v -0.00009000 -0.00026000 0.00052400
v -0.00008800 -0.00026900 0.00028600
v -0.00008800 -0.00026900 0.00028600
v -0.00008800 -0.00026900 0.00028600
v -0.00008800 -0.00026900 0.00028600
v -0.00008800 -0.00026900 0.00028600
v -0.00008800 -0.00026900 0.00028600
v -0.00008800 -0.00026900 0.00028600
v -0.00010000 -0.00025600 0.00004700
v -0.00010000 -0.00025600 0.00004700
v -0.00010000 -0.00025600 0.00004700
v -0.00010000 -0.00025600 0.00004700
v -0.00010000 -0.00025600 0.00004700
v -0.00010000 -0.00025600 0.00004700
v -0.00010000 -0.00025600 0.00004700
v 0.00014100 0.00000000 0.00106200
v 0.00014100 0.00000000 0.00106200
v 0.00014100 0.00000000 0.00106200
v 0.00014100 0.00000000 0.00106200
v 0.00014100 0.00000000 0.00106200
v 0.00014100 0.00000000 0.00106200
v 0.00014100 0.00000000 0.00106200
v 0.00014100 0.00000000 0.00106200
v -0.00085900 0.00000000 0.00106200
v -0.00085900 0.00000000 0.00106200
v -0.00085900 0.00000000 0.00106200
v -0.00085900 0.00000000 0.00106200
v -0.00085900 0.00000000 0.00106200
v -0.00085900 0.00000000 0.00106200
v -0.00085900 0.00000000 0.00106200
v -0.00085900 0.00000000 0.00106200
v -0.00085900 0.00000000 0.00106200
v -0.00085900 0.00000000 0.00106200
v -0.00085900 0.00000000 0.00106200
v -0.00085900 0.00000000 0.00106200
v 0.00004300 0.00016400 0.00055800
v 0.00004300 0.00016400 0.00055800
v 0.00004300 0.00016400 0.00055800
v 0.00004300 0.00016400 0.00055800
v 0.00004300 0.00016400 0.00055800
v 0.00004300 0.00016400 0.00055800
v 0.00004300 0.00016400 0.00055800
v 0.00004300 0.00016400 0.00055800
v 0.00004300 0.00016400 0.00055800
v -0.00001000 0.00000000 0.00000000
v -0.00001000 0.00000000 0.00000000
v -0.00001000 0.00000000 0.00000000
v -0.00001000 0.00000000 0.00000000
v -0.00001000 0.00000000 0.00000000
v -0.00001000 0.00000000 0.00000000
v -0.00001000 0.00000000 0.00000000
v -0.00001000 0.00000000 0.00000000
v -0.00001000 0.00000000 0.00000000
v -0.00001000 0.00000000 0.00000000
v -0.00001000 0.00000000 0.00000000
v -0.00001000 0.00000000 0.00000000
v -0.00001000 0.00000000 0.00000000
v -0.00001000 0.00000000 0.00000000
v 0.00004300 -0.00016400 0.00055800
v 0.00004300 -0.00016400 0.00055800
v 0.00004300 -0.00016400 0.00055800
v 0.00004300 -0.00016400 0.00055800
v 0.00004300 -0.00016400 0.00055800
v 0.00004300 -0.00016400 0.00055800
v 0.00004300 -0.00016400 0.00055800
v 0.00004300 -0.00016400 0.00055800
v 0.00004300 -0.00016400 0.00055800
v 0.00004300 -0.00016400 0.00055800
v -0.00095700 0.00016400 0.00055800
v -0.00095700 0.00016400 0.00055800
v -0.00095700 0.00016400 0.00055800
v -0.00095700 0.00016400 0.00055800
v -0.00095700 0.00016400 0.00055800
v -0.00095700 0.00016400 0.00055800
v -0.00095700 0.00016400 0.00055800
v -0.00095700 0.00016400 0.00055800
v -0.00095700 0.00016400 0.00055800
v -0.00095700 0.00016400 0.00055800
v -0.00101000 0.00000000 0.00000000
v -0.00101000 0.00000000 0.00000000
v -0.00101000 0.00000000 0.00000000
v -0.00101000 0.00000000 0.00000000
v -0.00101000 0.00000000 0.00000000
v -0.00101000 0.00000000 0.00000000
v -0.00101000 0.00000000 0.00000000
v -0.00101000 0.00000000 0.00000000
v -0.00095700 -0.00016400 0.00055800
v -0.00095700 -0.00016400 0.00055800
v -0.00095700 -0.00016400 0.00055800
v -0.00095700 -0.00016400 0.00055800
v -0.00095700 -0.00016400 0.00055800
v -0.00095700 -0.00016400 0.00055800
v -0.00095700 -0.00016400 0.00055800
v -0.00095700 -0.00016400 0.00055800
v -0.00095700 -0.00016400 0.00055800
v -0.00095700 -0.00016400 0.00055800
v -0.00069700 -0.00028500 0.00074100
v -0.00069700 -0.00028500 0.00074100
v -0.00069700 -0.00028500 0.00074100
v -0.00069700 -0.00028500 0.00074100
v -0.00069700 -0.00028500 0.00074100
v -0.00069700 -0.00028500 0.00074100
v -0.00073500 -0.00018400 0.00103900
v -0.00073500 -0.00018400 0.00103900
v -0.00073500 -0.00018400 0.00103900
v -0.00073500 -0.00018400 0.00103900
v -0.00073500 -0.00018400 0.00103900
v -0.00073500 -0.00018400 0.00103900
v -0.00073500 -0.00018400 0.00103900
v -0.00074600 0.00000000 0.00113700
v -0.00074600 0.00000000 0.00113700
v -0.00074600 0.00000000 0.00113700
v -0.00074600 0.00000000 0.00113700
v -0.00074600 0.00000000 0.00113700
v -0.00074600 0.00000000 0.00113700
v -0.00014700 -0.00016300 0.00105700
v -0.00014700 -0.00016300 0.00105700
v -0.00014700 -0.00016300 0.00105700
v -0.00014700 -0.00016300 0.00105700
v -0.00014700 -0.00016300 0.00105700
v -0.00014700 -0.00016300 0.00105700
v -0.00018100 0.00000000 0.00115600
v -0.00018100 0.00000000 0.00115600
v -0.00018100 0.00000000 0.00115600
v -0.00018100 0.00000000 0.00115600
v -0.00018100 0.00000000 0.00115600
v -0.00018100 0.00000000 0.00115600
v -0.00018100 0.00000000 0.00115600
v -0.00018100 0.00000000 0.00115600
v -0.00018100 0.00000000 0.00115600
v -0.00010400 -0.00022500 0.00074800
v -0.00010400 -0.00022500 0.00074800
v -0.00010400 -0.00022500 0.00074800
v -0.00010400 -0.00022500 0.00074800
v -0.00010400 -0.00022500 0.00074800
v -0.00010400 -0.00022500 0.00074800
v -0.00010400 -0.00022500 0.00074800
v -0.00068500 -0.00030100 -0.00014400
v -0.00068500 -0.00030100 -0.00014400
v -0.00068500 -0.00030100 -0.00014400
v -0.00068500 -0.00030100 -0.00014400
v -0.00068500 -0.00030100 -0.00014400
v -0.00068500 -0.00030100 -0.00014400
v -0.00068500 -0.00030100 -0.00014400
v -0.00070200 -0.00023900 -0.00031100
v -0.00070200 -0.00023900 -0.00031100
v -0.00070200 -0.00023900 -0.00031100
v -0.00070200 -0.00023900 -0.00031100
v -0.00070200 -0.00023900 -0.00031100
v -0.00070200 -0.00023900 -0.00031100
v -0.00073200 -0.00014700 -0.00041300
v -0.00073200 -0.00014700 -0.00041300
v -0.00073200 -0.00014700 -0.00041300
v -0.00073200 -0.00014700 -0.00041300
v -0.00073200 -0.00014700 -0.00041300
v -0.00073200 -0.00014700 -0.00041300
v -0.00073200 -0.00014700 -0.00041300
v -0.00073200 -0.00014700 -0.00041300
v -0.00078700 -0.00000000 -0.00047000
v -0.00078700 -0.00000000 -0.00047000
v -0.00078700 -0.00000000 -0.00047000
v -0.00078700 -0.00000000 -0.00047000
v -0.00078700 -0.00000000 -0.00047000
v -0.00078700 -0.00000000 -0.00047000
v -0.00078700 -0.00000000 -0.00047000
v -0.00078700 -0.00000000 -0.00047000
v -0.00078700 -0.00000000 -0.00047000
v -0.00078700 -0.00000000 -0.00047000
v -0.00016300 -0.00000000 -0.00052000
v -0.00016300 -0.00000000 -0.00052000
v -0.00016300 -0.00000000 -0.00052000
v -0.00016300 -0.00000000 -0.00052000
v -0.00016300 -0.00000000 -0.00052000
v -0.00016300 -0.00000000 -0.00052000
v -0.00016300 -0.00000000 -0.00052000
v -0.00016300 -0.00000000 -0.00052000
v -0.00014800 -0.00012900 -0.00047700
v -0.00014800 -0.00012900 -0.00047700
v -0.00014800 -0.00012900 -0.00047700
v -0.00014800 -0.00012900 -0.00047700
v -0.00014800 -0.00012900 -0.00047700
v -0.00014800 -0.00012900 -0.00047700
v -0.00014800 -0.00012900 -0.00047700
v -0.00014800 -0.00012900 -0.00047700
v -0.00014800 -0.00012900 -0.00047700
v -0.00012700 -0.00020300 -0.00035100
v -0.00012700 -0.00020300 -0.00035100
v -0.00012700 -0.00020300 -0.00035100
v -0.00012700 -0.00020300 -0.00035100
v -0.00012700 -0.00020300 -0.00035100
v -0.00012700 -0.00020300 -0.00035100
v -0.00011200 -0.00022800 -0.00016900
v -0.00011200 -0.00022800 -0.00016900
v -0.00011200 -0.00022800 -0.00016900
v -0.00011200 -0.00022800 -0.00016900
v -0.00011200 -0.00022800 -0.00016900
v -0.00011200 -0.00022800 -0.00016900
v -0.00011200 -0.00022800 -0.00016900
v -0.00071800 -0.00023900 0.00092100
v -0.00071800 -0.00023900 0.00092100
v -0.00071800 -0.00023900 0.00092100
v -0.00071800 -0.00023900 0.00092100
v -0.00071800 -0.00023900 0.00092100
v -0.00071800 -0.00023900 0.00092100
v -0.00071800 -0.00023900 0.00092100
v -0.00071800 -0.00023900 0.00092100
v -0.00012500 -0.00020300 0.00093400
v -0.00012500 -0.00020300 0.00093400
v -0.00012500 -0.00020300 0.00093400
v -0.00012500 -0.00020300 0.00093400
v -0.00012500 -0.00020300 0.00093400
v -0.00012500 -0.00020300 0.00093400
v -0.00012500 -0.00020300 0.00093400
v -0.00067900 0.00032500 0.00006400
v -0.00067900 0.00032500 0.00006400
v -0.00067900 0.00032500 0.00006400
v -0.00067900 0.00032500 0.00006400
v -0.00067900 0.00032500 0.00006400
v -0.00067300 0.00033700 0.00029700
v -0.00067300 0.00033700 0.00029700
v -0.00067300 0.00033700 0.00029700
v -0.00067300 0.00033700 0.00029700
v -0.00067300 0.00033700 0.00029700
v -0.00067300 0.00033700 0.00029700
v -0.00067300 0.00033700 0.00029700
v -0.00067300 0.00033700 0.00029700
v -0.00067800 0.00033500 0.00053300
v -0.00067800 0.00033500 0.00053300
v -0.00067800 0.00033500 0.00053300
v -0.00067800 0.00033500 0.00053300
v -0.00067800 0.00033500 0.00053300
v -0.00067800 0.00033500 0.00053300
v -0.00067800 0.00033500 0.00053300
v -0.00067800 0.00033500 0.00053300
v -0.00069700 0.00028500 0.00074100
v -0.00069700 0.00028500 0.00074100
v -0.00069700 0.00028500 0.00074100
v -0.00069700 0.00028500 0.00074100
v -0.00069700 0.00028500 0.00074100
v -0.00069700 0.00028500 0.00074100
v -0.00010000 0.00025600 0.00004700
v -0.00010000 0.00025600 0.00004700
v -0.00010000 0.00025600 0.00004700
v -0.00010000 0.00025600 0.00004700
v -0.00010000 0.00025600 0.00004700
v -0.00010000 0.00025600 0.00004700
v -0.00010000 0.00025600 0.00004700
v -0.00008800 0.00026900 0.00028600
v -0.00008800 0.00026900 0.00028600
v -0.00008800 0.00026900 0.00028600
v -0.00008800 0.00026900 0.00028600
v -0.00008800 0.00026900 0.00028600
v -0.00008800 0.00026900 0.00028600
v -0.00008800 0.00026900 0.00028600
v -0.00009000 0.00026000 0.00052400
v -0.00009000 0.00026000 0.00052400
v -0.00009000 0.00026000 0.00052400
v -0.00009000 0.00026000 0.00052400
v -0.00009000 0.00026000 0.00052400
v -0.00009000 0.00026000 0.00052400
v -0.00009000 0.00026000 0.00052400
v -0.00010400 0.00022500 0.00074800
v -0.00010400 0.00022500 0.00074800
v -0.00010400 0.00022500 0.00074800
v -0.00010400 0.00022500 0.00074800
v -0.00010400 0.00022500 0.00074800
v -0.00010400 0.00022500 0.00074800
v -0.00010400 0.00022500 0.00074800
v -0.00071800 0.00023900 0.00092100
v -0.00071800 0.00023900 0.00092100
v -0.00071800 0.00023900 0.00092100
v -0.00071800 0.00023900 0.00092100
v -0.00071800 0.00023900 0.00092100
v -0.00071800 0.00023900 0.00092100
v -0.00071800 0.00023900 0.00092100
v -0.00073500 0.00018400 0.00103900
v -0.00073500 0.00018400 0.00103900
v -0.00073500 0.00018400 0.00103900
v -0.00073500 0.00018400 0.00103900
v -0.00073500 0.00018400 0.00103900
v -0.00073500 0.00018400 0.00103900
v -0.00073500 0.00018400 0.00103900
v -0.00012500 0.00020300 0.00093400
v -0.00012500 0.00020300 0.00093400
v -0.00012500 0.00020300 0.00093400
v -0.00012500 0.00020300 0.00093400
v -0.00012500 0.00020300 0.00093400
v -0.00012500 0.00020300 0.00093400
v -0.00012500 0.00020300 0.00093400
v -0.00014700 0.00016300 0.00105700
v -0.00014700 0.00016300 0.00105700
v -0.00014700 0.00016300 0.00105700
v -0.00014700 0.00016300 0.00105700
v -0.00014700 0.00016300 0.00105700
v -0.00014700 0.00016300 0.00105700
v -0.00014700 0.00016300 0.00105700
v -0.00068500 0.00030100 -0.00014400
v -0.00068500 0.00030100 -0.00014400
v -0.00068500 0.00030100 -0.00014400
v -0.00068500 0.00030100 -0.00014400
v -0.00068500 0.00030100 -0.00014400
v -0.00068500 0.00030100 -0.00014400
v -0.00068500 0.00030100 -0.00014400
v -0.00070200 0.00023900 -0.00031100
v -0.00070200 0.00023900 -0.00031100
v -0.00070200 0.00023900 -0.00031100
v -0.00070200 0.00023900 -0.00031100
v -0.00070200 0.00023900 -0.00031100
v -0.00070200 0.00023900 -0.00031100
v -0.00073200 0.00014700 -0.00041300
v -0.00073200 0.00014700 -0.00041300
v -0.00073200 0.00014700 -0.00041300
v -0.00073200 0.00014700 -0.00041300
v -0.00073200 0.00014700 -0.00041300
v -0.00073200 0.00014700 -0.00041300
v -0.00073200 0.00014700 -0.00041300
v -0.00073200 0.00014700 -0.00041300
v -0.00014800 0.00012900 -0.00047700
v -0.00014800 0.00012900 -0.00047700
v -0.00014800 0.00012900 -0.00047700
v -0.00014800 0.00012900 -0.00047700
v -0.00014800 0.00012900 -0.00047700
v -0.00014800 0.00012900 -0.00047700
v -0.00014800 0.00012900 -0.00047700
v -0.00014800 0.00012900 -0.00047700
v -0.00014800 0.00012900 -0.00047700
v -0.00012700 0.00020300 -0.00035100
v -0.00012700 0.00020300 -0.00035100
v -0.00012700 0.00020300 -0.00035100
v -0.00012700 0.00020300 -0.00035100
v -0.00012700 0.00020300 -0.00035100
v -0.00012700 0.00020300 -0.00035100
v -0.00011200 0.00022800 -0.00016900
v -0.00011200 0.00022800 -0.00016900
v -0.00011200 0.00022800 -0.00016900
v -0.00011200 0.00022800 -0.00016900
v -0.00011200 0.00022800 -0.00016900
v -0.00011200 0.00022800 -0.00016900
v -0.00011200 0.00022800 -0.00016900
v 0.00006700 -0.00026500 0.00045900
v 0.00006700 -0.00026500 0.00045900
v 0.00006700 -0.00026500 0.00045900
v 0.00006700 -0.00026500 0.00045900
v 0.00006700 -0.00026500 0.00045900
v 0.00005300 -0.00027100 0.00028300
v 0.00005300 -0.00027100 0.00028300
v 0.00005300 -0.00027100 0.00028300
v 0.00005300 -0.00027100 0.00028300
v 0.00007100 -0.00025900 0.00052700
v 0.00007100 -0.00025900 0.00052700
v 0.00007100 -0.00025900 0.00052700
v 0.00007100 -0.00025900 0.00052700
v 0.00004700 -0.00027000 0.00022400
v 0.00004700 -0.00027000 0.00022400
v 0.00004700 -0.00027000 0.00022400
v 0.00004700 -0.00027000 0.00022400
v 0.00004100 -0.00026700 0.00017000
v 0.00004100 -0.00026700 0.00017000
v 0.00004100 -0.00026700 0.00017000
v 0.00004100 -0.00026700 0.00017000
v 0.00004100 -0.00026700 0.00017000
v 0.00003300 -0.00026000 0.00004000
v 0.00003300 -0.00026000 0.00004000
v 0.00003300 -0.00026000 0.00004000
v 0.00018800 -0.00006400 0.00115500
v 0.00018800 -0.00006400 0.00115500
v 0.00018800 -0.00006400 0.00115500
v 0.00018800 -0.00006400 0.00115500
v 0.00020200 0.00000000 0.00119700
v 0.00020200 0.00000000 0.00119700
v 0.00020200 0.00000000 0.00119700
v 0.00018900 -0.00004300 0.00116800
v 0.00018900 -0.00004300 0.00116800
v 0.00018900 -0.00004300 0.00116800
v 0.00018900 -0.00004300 0.00116800
v 0.00019100 -0.00018500 0.00110300
v 0.00019100 -0.00018500 0.00110300
v 0.00019100 -0.00018500 0.00110300
v 0.00015400 -0.00022400 0.00096300
v 0.00015400 -0.00022400 0.00096300
v 0.00015400 -0.00022400 0.00096300
v 0.00015400 -0.00022400 0.00096300
v 0.00016700 -0.00020500 0.00102900
v 0.00016700 -0.00020500 0.00102900
v 0.00016700 -0.00020500 0.00102900
v 0.00009200 -0.00023600 0.00068000
v 0.00009200 -0.00023600 0.00068000
v 0.00009200 -0.00023600 0.00068000
v 0.00007200 -0.00025700 0.00054200
v 0.00007200 -0.00025700 0.00054200
v 0.00007200 -0.00025700 0.00054200
v 0.00007200 -0.00025700 0.00054200
v 0.00010800 -0.00023600 0.00076000
v 0.00010800 -0.00023600 0.00076000
v 0.00010800 -0.00023600 0.00076000
v 0.00010800 -0.00023600 0.00076000
v 0.00004300 -0.00000000 -0.00056300
v 0.00004300 -0.00000000 -0.00056300
v 0.00004300 -0.00000000 -0.00056300
v 0.00003800 -0.00008800 -0.00053100
v 0.00003800 -0.00008800 -0.00053100
v 0.00003800 -0.00008800 -0.00053100
v 0.00003800 -0.00008800 -0.00053100
v 0.00003800 -0.00008800 -0.00053100
v 0.00003800 -0.00008800 -0.00053100
v 0.00003500 -0.00013500 -0.00051700
v 0.00003500 -0.00013500 -0.00051700
v 0.00003500 -0.00013500 -0.00051700
v 0.00003000 -0.00025500 0.00000000
v 0.00003000 -0.00025500 0.00000000
v 0.00003000 -0.00025500 0.00000000
v 0.00003000 -0.00025500 0.00000000
v 0.00003300 -0.00023900 -0.00012500
v 0.00003300 -0.00023900 -0.00012500
v 0.00003300 -0.00023900 -0.00012500
v 0.00003500 -0.00023500 -0.00018500
v 0.00003500 -0.00023500 -0.00018500
v 0.00003500 -0.00023500 -0.00018500
v 0.00003500 -0.00023500 -0.00018500
v 0.00003600 -0.00022600 -0.00026700
v 0.00003600 -0.00022600 -0.00026700
v 0.00003600 -0.00022600 -0.00026700
v 0.00003600 -0.00022600 -0.00026700
v 0.00003600 -0.00022600 -0.00026700
v 0.00004200 -0.00021200 -0.00038200
v 0.00004200 -0.00021200 -0.00038200
v 0.00004200 -0.00021200 -0.00038200
v 0.00003600 -0.00022900 -0.00024400
v 0.00003600 -0.00022900 -0.00024400
v 0.00003600 -0.00022900 -0.00024400
v 0.00003600 -0.00022900 -0.00024400
v 0.00003400 -0.00014000 -0.00050700
v 0.00003400 -0.00014000 -0.00050700
v 0.00003400 -0.00014000 -0.00050700
v 0.00003400 -0.00014000 -0.00050700
v 0.00003400 -0.00014000 -0.00050700
v 0.00003300 -0.00014600 -0.00049700
v 0.00003300 -0.00014600 -0.00049700
v 0.00003300 -0.00014600 -0.00049700
v 0.00003300 -0.00014600 -0.00049700
v 0.00003300 -0.00014600 -0.00049700
v 0.00003400 -0.00016100 -0.00047100
v 0.00003400 -0.00016100 -0.00047100
v 0.00003400 -0.00016100 -0.00047100
v 0.00003400 -0.00016100 -0.00047100
v 0.00003400 -0.00016100 -0.00047100
v 0.00003400 -0.00016100 -0.00047100
v 0.00012700 -0.00023500 0.00084600
v 0.00012700 -0.00023500 0.00084600
v 0.00012700 -0.00023500 0.00084600
v 0.00012700 -0.00023500 0.00084600
v 0.00011600 -0.00023500 0.00080100
v 0.00011600 -0.00023500 0.00080100
v 0.00011600 -0.00023500 0.00080100
v 0.00011600 -0.00023500 0.00080100
v 0.00011600 -0.00023500 0.00080100
v 0.00011600 -0.00023500 0.00080100
v 0.00006700 0.00026500 0.00045900
v 0.00006700 0.00026500 0.00045900
v 0.00006700 0.00026500 0.00045900
v 0.00006700 0.00026500 0.00045900
v 0.00006700 0.00026500 0.00045900
v 0.00007100 0.00025900 0.00052700
v 0.00007100 0.00025900 0.00052700
v 0.00007100 0.00025900 0.00052700
v 0.00007100 0.00025900 0.00052700
v 0.00005300 0.00027100 0.00028300
v 0.00005300 0.00027100 0.00028300
v 0.00005300 0.00027100 0.00028300
v 0.00005300 0.00027100 0.00028300
v 0.00004700 0.00027000 0.00022400
v 0.00004700 0.00027000 0.00022400
v 0.00004700 0.00027000 0.00022400
v 0.00004100 0.00026700 0.00017000
v 0.00004100 0.00026700 0.00017000
v 0.00004100 0.00026700 0.00017000
v 0.00004100 0.00026700 0.00017000
v 0.00004100 0.00026700 0.00017000
v 0.00004100 0.00026700 0.00017000
v 0.00003300 0.00026000 0.00004000
v 0.00003300 0.00026000 0.00004000
v 0.00003300 0.00026000 0.00004000
v 0.00018800 0.00006400 0.00115500
v 0.00018800 0.00006400 0.00115500
v 0.00018800 0.00006400 0.00115500
v 0.00019100 0.00018500 0.00110300
v 0.00019100 0.00018500 0.00110300
v 0.00019100 0.00018500 0.00110300
v 0.00018900 0.00004300 0.00116800
v 0.00018900 0.00004300 0.00116800
v 0.00018900 0.00004300 0.00116800
v 0.00018900 0.00004300 0.00116800
v 0.00018900 0.00004300 0.00116800
v 0.00016700 0.00020500 0.00102900
v 0.00016700 0.00020500 0.00102900
v 0.00016700 0.00020500 0.00102900
v 0.00015400 0.00022400 0.00096300
v 0.00015400 0.00022400 0.00096300
v 0.00015400 0.00022400 0.00096300
v 0.00015400 0.00022400 0.00096300
v 0.00009200 0.00023600 0.00068000
v 0.00009200 0.00023600 0.00068000
v 0.00009200 0.00023600 0.00068000
v 0.00010800 0.00023600 0.00076000
v 0.00010800 0.00023600 0.00076000
v 0.00010800 0.00023600 0.00076000
v 0.00010800 0.00023600 0.00076000
v 0.00007200 0.00025700 0.00054200
v 0.00007200 0.00025700 0.00054200
v 0.00007200 0.00025700 0.00054200
v 0.00007200 0.00025700 0.00054200
v 0.00003800 0.00008800 -0.00053100
v 0.00003800 0.00008800 -0.00053100
v 0.00003800 0.00008800 -0.00053100
v 0.00003800 0.00008800 -0.00053100
v 0.00003800 0.00008800 -0.00053100
v 0.00003800 0.00008800 -0.00053100
v 0.00003500 0.00013500 -0.00051700
v 0.00003500 0.00013500 -0.00051700
v 0.00003500 0.00013500 -0.00051700
v 0.00003300 0.00023900 -0.00012500
v 0.00003300 0.00023900 -0.00012500
v 0.00003300 0.00023900 -0.00012500
v 0.00003500 0.00023500 -0.00018500
v 0.00003500 0.00023500 -0.00018500
v 0.00003500 0.00023500 -0.00018500
v 0.00003500 0.00023500 -0.00018500
v 0.00003000 0.00025500 -0.00000000
v 0.00003000 0.00025500 -0.00000000
v 0.00003000 0.00025500 -0.00000000
v 0.00003000 0.00025500 -0.00000000
v 0.00003600 0.00022900 -0.00024400
v 0.00003600 0.00022900 -0.00024400
v 0.00003600 0.00022900 -0.00024400
v 0.00003600 0.00022900 -0.00024400
v 0.00003600 0.00022600 -0.00026700
v 0.00003600 0.00022600 -0.00026700
v 0.00003600 0.00022600 -0.00026700
v 0.00003600 0.00022600 -0.00026700
v 0.00003600 0.00022600 -0.00026700
v 0.00004200 0.00021200 -0.00038200
v 0.00004200 0.00021200 -0.00038200
v 0.00004200 0.00021200 -0.00038200
v 0.00003400 0.00014000 -0.00050700
v 0.00003400 0.00014000 -0.00050700
v 0.00003400 0.00014000 -0.00050700
v 0.00003400 0.00014000 -0.00050700
v 0.00003400 0.00014000 -0.00050700
v 0.00003300 0.00014600 -0.00049700
v 0.00003300 0.00014600 -0.00049700
v 0.00003300 0.00014600 -0.00049700
v 0.00003300 0.00014600 -0.00049700
v 0.00003300 0.00014600 -0.00049700
v 0.00003400 0.00016100 -0.00047100
v 0.00003400 0.00016100 -0.00047100
v 0.00003400 0.00016100 -0.00047100
v 0.00003400 0.00016100 -0.00047100
v 0.00003400 0.00016100 -0.00047100
v 0.00003400 0.00016100 -0.00047100
v 0.00011600 0.00023500 0.00080100
v 0.00011600 0.00023500 0.00080100
v 0.00011600 0.00023500 0.00080100
v 0.00011600 0.00023500 0.00080100
v 0.00011600 0.00023500 0.00080100
v 0.00011600 0.00023500 0.00080100
v 0.00012700 0.00023500 0.00084600
v 0.00012700 0.00023500 0.00084600
v 0.00012700 0.00023500 0.00084600
v 0.00012700 0.00023500 0.00084600
v -0.00095800 -0.00003400 -0.00056100
v -0.00095800 -0.00003400 -0.00056100
v -0.00095800 -0.00003400 -0.00056100
v -0.00095800 -0.00003400 -0.00056100
v -0.00096600 -0.00003500 -0.00050700
v -0.00096600 -0.00003500 -0.00050700
v -0.00096600 -0.00003500 -0.00050700
v -0.00096600 0.00003500 -0.00050700
v -0.00096600 0.00003500 -0.00050700
v -0.00096600 0.00003500 -0.00050700
v -0.00095800 0.00003400 -0.00056100
v -0.00095800 0.00003400 -0.00056100
v -0.00095800 0.00003400 -0.00056100
v -0.00095800 0.00003400 -0.00056100
v -0.00095100 -0.00000000 -0.00060000
v -0.00095100 -0.00000000 -0.00060000
v -0.00095100 -0.00000000 -0.00060000
v -0.00083000 0.00002600 0.00112600
v -0.00083000 0.00002600 0.00112600
v -0.00083000 0.00002600 0.00112600
v -0.00083000 0.00002600 0.00112600
v -0.00083000 0.00002600 0.00112600
v -0.00083500 0.00019200 0.00103200
v -0.00083500 0.00019200 0.00103200
v -0.00083500 0.00019200 0.00103200
v -0.00083500 0.00019200 0.00103200
v -0.00083200 0.00018700 0.00104100
v -0.00083200 0.00018700 0.00104100
v -0.00083200 0.00018700 0.00104100
v -0.00083200 0.00018700 0.00104100
v -0.00082400 0.00000000 0.00113900
v -0.00082400 0.00000000 0.00113900
v -0.00082400 0.00000000 0.00113900
v -0.00083000 -0.00002600 0.00112600
v -0.00083000 -0.00002600 0.00112600
v -0.00083000 -0.00002600 0.00112600
v -0.00083000 -0.00002600 0.00112600
v -0.00083000 -0.00002600 0.00112600
v -0.00083500 -0.00019200 0.00103200
v -0.00083500 -0.00019200 0.00103200
v -0.00083500 -0.00019200 0.00103200
v -0.00083500 -0.00019200 0.00103200
v -0.00083200 -0.00018700 0.00104100
v -0.00083200 -0.00018700 0.00104100
v -0.00083200 -0.00018700 0.00104100
v -0.00083200 -0.00018700 0.00104100
v -0.00093100 0.00035600 0.00016600
v -0.00093100 0.00035600 0.00016600
v -0.00093100 0.00035600 0.00016600
v -0.00093000 0.00035600 0.00017100
v -0.00093000 0.00035600 0.00017100
v -0.00093000 0.00035600 0.00017100
v -0.00093000 0.00035600 0.00017100
v -0.00093000 0.00035600 0.00017100
v -0.00093000 0.00035600 0.00017100
v -0.00090700 0.00036400 0.00039600
v -0.00090700 0.00036400 0.00039600
v -0.00090700 0.00036400 0.00039600
v -0.00090700 0.00036400 0.00039600
v -0.00090700 0.00036400 0.00039600
v -0.00091600 0.00036200 0.00030200
v -0.00091600 0.00036200 0.00030200
v -0.00091600 0.00036200 0.00030200
v -0.00091600 0.00036200 0.00030200
v -0.00089600 0.00036200 0.00052300
v -0.00089600 0.00036200 0.00052300
v -0.00089600 0.00036200 0.00052300
v -0.00089600 0.00036200 0.00052300
v -0.00096500 0.00018800 -0.00038500
v -0.00096500 0.00018800 -0.00038500
v -0.00096500 0.00018800 -0.00038500
v -0.00096500 0.00018800 -0.00038500
v -0.00096500 0.00018800 -0.00038500
v -0.00096500 0.00018800 -0.00038500
v -0.00096800 0.00016000 -0.00041000
v -0.00096800 0.00016000 -0.00041000
v -0.00096800 0.00016000 -0.00041000
v -0.00097300 0.00012500 -0.00042400
v -0.00097300 0.00012500 -0.00042400
v -0.00097300 0.00012500 -0.00042400
v -0.00097300 0.00012500 -0.00042400
v -0.00097300 0.00012500 -0.00042400
v -0.00085700 0.00026200 0.00089200
v -0.00085700 0.00026200 0.00089200
v -0.00085700 0.00026200 0.00089200
v -0.00085700 0.00026200 0.00089200
v -0.00085700 0.00026200 0.00089200
v -0.00085800 0.00026600 0.00088100
v -0.00085800 0.00026600 0.00088100
v -0.00085800 0.00026600 0.00088100
v -0.00085800 0.00026600 0.00088100
v -0.00085800 0.00026600 0.00088100
v -0.00085800 0.00026600 0.00088100
v -0.00089300 0.00036100 0.00053800
v -0.00089300 0.00036100 0.00053800
v -0.00089300 0.00036100 0.00053800
v -0.00089300 0.00036100 0.00053800
v -0.00088600 0.00033900 0.00061000
v -0.00088600 0.00033900 0.00061000
v -0.00088600 0.00033900 0.00061000
v -0.00088600 0.00033900 0.00061000
v -0.00087200 0.00030300 0.00074700
v -0.00087200 0.00030300 0.00074700
v -0.00087200 0.00030300 0.00074700
v -0.00085100 0.00025000 0.00092600
v -0.00085100 0.00025000 0.00092600
v -0.00085100 0.00025000 0.00092600
v -0.00085100 0.00025000 0.00092600
v -0.00084900 0.00023200 0.00094700
v -0.00084900 0.00023200 0.00094700
v -0.00084900 0.00023200 0.00094700
v -0.00084900 0.00023200 0.00094700
v -0.00084900 0.00023200 0.00094700
v -0.00084900 0.00023200 0.00094700
v -0.00085700 -0.00026200 0.00089200
v -0.00085700 -0.00026200 0.00089200
v -0.00085700 -0.00026200 0.00089200
v -0.00085700 -0.00026200 0.00089200
v -0.00085700 -0.00026200 0.00089200
v -0.00085700 -0.00026200 0.00089200
v -0.00085100 -0.00025000 0.00092600
v -0.00085100 -0.00025000 0.00092600
v -0.00085100 -0.00025000 0.00092600
v -0.00084900 -0.00023200 0.00094700
v -0.00084900 -0.00023200 0.00094700
v -0.00084900 -0.00023200 0.00094700
v -0.00084900 -0.00023200 0.00094700
v -0.00084900 -0.00023200 0.00094700
v -0.00084900 -0.00023200 0.00094700
v -0.00096800 -0.00003500 -0.00048100
v -0.00096800 -0.00003500 -0.00048100
v -0.00096800 -0.00003500 -0.00048100
v -0.00097100 -0.00006700 -0.00044600
v -0.00097100 -0.00006700 -0.00044600
v -0.00097100 -0.00006700 -0.00044600
v -0.00097300 -0.00012500 -0.00042400
v -0.00097300 -0.00012500 -0.00042400
v -0.00097300 -0.00012500 -0.00042400
v -0.00097300 -0.00012500 -0.00042400
v -0.00097300 -0.00012500 -0.00042400
v -0.00097100 0.00006700 -0.00044600
v -0.00097100 0.00006700 -0.00044600
v -0.00097100 0.00006700 -0.00044600
v -0.00096800 0.00003500 -0.00048100
v -0.00096800 0.00003500 -0.00048100
v -0.00096800 0.00003500 -0.00048100
v -0.00096800 0.00003500 -0.00048100
v -0.00096800 -0.00016000 -0.00041000
v -0.00096800 -0.00016000 -0.00041000
v -0.00096800 -0.00016000 -0.00041000
v -0.00096500 -0.00018800 -0.00038500
v -0.00096500 -0.00018800 -0.00038500
v -0.00096500 -0.00018800 -0.00038500
v -0.00096500 -0.00018800 -0.00038500
v -0.00096500 -0.00018800 -0.00038500
v -0.00096500 -0.00018800 -0.00038500
v -0.00096500 -0.00018800 -0.00038500
v -0.00096500 -0.00018800 -0.00038500
v -0.00090700 -0.00036400 0.00039600
v -0.00090700 -0.00036400 0.00039600
v -0.00090700 -0.00036400 0.00039600
v -0.00090700 -0.00036400 0.00039600
v -0.00090700 -0.00036400 0.00039600
v -0.00091600 -0.00036200 0.00030200
v -0.00091600 -0.00036200 0.00030200
v -0.00091600 -0.00036200 0.00030200
v -0.00091600 -0.00036200 0.00030200
v -0.00089600 -0.00036200 0.00052300
v -0.00089600 -0.00036200 0.00052300
v -0.00089600 -0.00036200 0.00052300
v -0.00089600 -0.00036200 0.00052300
v -0.00093000 -0.00035600 0.00017100
v -0.00093000 -0.00035600 0.00017100
v -0.00093000 -0.00035600 0.00017100
v -0.00093000 -0.00035600 0.00017100
v -0.00093000 -0.00035600 0.00017100
v -0.00093000 -0.00035600 0.00017100
v -0.00093100 -0.00035600 0.00016600
v -0.00093100 -0.00035600 0.00016600
v -0.00093100 -0.00035600 0.00016600
v -0.00088600 -0.00033900 0.00061000
v -0.00088600 -0.00033900 0.00061000
v -0.00088600 -0.00033900 0.00061000
v -0.00088600 -0.00033900 0.00061000
v -0.00089300 -0.00036100 0.00053800
v -0.00089300 -0.00036100 0.00053800
v -0.00089300 -0.00036100 0.00053800
v -0.00089300 -0.00036100 0.00053800
v -0.00085800 -0.00026600 0.00088100
v -0.00085800 -0.00026600 0.00088100
v -0.00085800 -0.00026600 0.00088100
v -0.00085800 -0.00026600 0.00088100
v -0.00085800 -0.00026600 0.00088100
v -0.00087200 -0.00030300 0.00074700
v -0.00087200 -0.00030300 0.00074700
v -0.00087200 -0.00030300 0.00074700
v -0.00094200 0.00034800 -0.00000000
v -0.00094200 0.00034800 -0.00000000
v -0.00094200 0.00034800 -0.00000000
v -0.00094200 0.00034800 -0.00000000
v -0.00093600 0.00035500 0.00006900
v -0.00093600 0.00035500 0.00006900
v -0.00093600 0.00035500 0.00006900
v -0.00093600 0.00035500 0.00006900
v -0.00093600 0.00035500 0.00006900
v -0.00094300 0.00033500 -0.00010800
v -0.00094300 0.00033500 -0.00010800
v -0.00094300 0.00033500 -0.00010800
v -0.00094300 0.00033500 -0.00010800
v -0.00096000 0.00020800 -0.00036800
v -0.00096000 0.00020800 -0.00036800
v -0.00096000 0.00020800 -0.00036800
v -0.00096000 0.00020800 -0.00036800
v -0.00094100 0.00033000 -0.00014300
v -0.00094100 0.00033000 -0.00014300
v -0.00094100 0.00033000 -0.00014300
v -0.00094100 0.00033000 -0.00014300
v -0.00094400 0.00029500 -0.00023600
v -0.00094400 0.00029500 -0.00023600
v -0.00094400 0.00029500 -0.00023600
v -0.00094400 0.00029500 -0.00023600
v -0.00094400 0.00029500 -0.00023600
v -0.00094400 0.00029500 -0.00023600
v -0.00094900 0.00026000 -0.00031100
v -0.00094900 0.00026000 -0.00031100
v -0.00094900 0.00026000 -0.00031100
v -0.00093600 -0.00035500 0.00006900
v -0.00093600 -0.00035500 0.00006900
v -0.00093600 -0.00035500 0.00006900
v -0.00093600 -0.00035500 0.00006900
v -0.00093600 -0.00035500 0.00006900
v -0.00094200 -0.00034800 0.00000000
v -0.00094200 -0.00034800 0.00000000
v -0.00094200 -0.00034800 0.00000000
v -0.00094200 -0.00034800 0.00000000
v -0.00094300 -0.00033500 -0.00010800
v -0.00094300 -0.00033500 -0.00010800
v -0.00094300 -0.00033500 -0.00010800
v -0.00094300 -0.00033500 -0.00010800
v -0.00094300 -0.00033500 -0.00010800
v -0.00094100 -0.00033000 -0.00014300
v -0.00094100 -0.00033000 -0.00014300
v -0.00094100 -0.00033000 -0.00014300
v -0.00096000 -0.00020800 -0.00036800
v -0.00096000 -0.00020800 -0.00036800
v -0.00096000 -0.00020800 -0.00036800
v -0.00094900 -0.00026000 -0.00031100
v -0.00094900 -0.00026000 -0.00031100
v -0.00094900 -0.00026000 -0.00031100
v -0.00094900 -0.00026000 -0.00031100
v -0.00094400 -0.00029500 -0.00023600
v -0.00094400 -0.00029500 -0.00023600
v -0.00094400 -0.00029500 -0.00023600
v -0.00094400 -0.00029500 -0.00023600
v -0.00094400 -0.00029500 -0.00023600
v -0.00094400 -0.00029500 -0.00023600
vt 0.00000000 0.00000000
vt 0.00000000 0.00000000
vt 0.00000000 0.00000000
vt 0.00000000 0.00000000
vt 0.00000000 0.00000000
vt 0.00000000 0.00000000
vt 0.00000000 0.00000000
vt 0.00000000 0.00000000
vt 0.28532500 0.42093900
vt 0.28532500 0.42093900
vt 0.28532500 0.42093900
vt 0.28532500 0.42093900
vt 0.28532500 0.42093900
vt 0.29609700 0.40981800
vt 0.29609700 0.40981800
vt 0.29609700 0.40981800
vt 0.29609700 0.40981800
vt 0.29609700 0.40981800
vt 0.29609700 0.40981800
vt 0.29609700 0.40981800
vt 0.29609700 0.40981800
vt 0.30766900 0.39875600
vt 0.30766900 0.39875600
vt 0.30766900 0.39875600
vt 0.30766900 0.39875600
vt 0.30766900 0.39875600
vt 0.30766900 0.39875600
vt 0.30766900 0.39875600
vt 0.30766900 0.39875600
vt 0.00000000 0.00000000
vt 0.00000000 0.00000000
vt 0.00000000 0.00000000
vt 0.00000000 0.00000000
vt 0.00000000 0.00000000
vt 0.00000000 0.00000000
vt 0.00000000 0.00000000
vt 0.00000000 0.00000000
vt 0.00000000 0.00000000
vt 0.00000000 0.00000000
vt 0.27757600 0.37113100
vt 0.27757600 0.37113100
vt 0.27757600 0.37113100
vt 0.27757600 0.37113100
vt 0.27757600 0.37113100
vt 0.27757600 0.37113100
vt 0.27757600 0.37113100
vt 0.26683100 0.38333500
vt 0.26683100 0.38333500
vt 0.26683100 0.38333500
vt 0.26683100 0.38333500
vt 0.26683100 0.38333500
vt 0.26683100 0.38333500
vt 0.26683100 0.38333500
vt 0.25691800 0.39565700
vt 0.25691800 0.39565700
vt 0.25691800 0.39565700
vt 0.25691800 0.39565700
vt 0.25691800 0.39565700
vt 0.25691800 0.39565700
vt 0.25691800 0.39565700
vt 0.00000000 0.00000000
vt 0.00000000 0.00000000
vt 0.00000000 0.00000000
vt 0.00000000 0.00000000
vt 0.00000000 0.00000000
vt 0.00000000 0.00000000
vt 0.00000000 0.00000000
vt 0.00000000 0.00000000
vt 0.00000000 0.00000000
vt 0.00000000 0.00000000
vt 0.00000000 0.00000000
vt 0.00000000 0.00000000
vt 0.00000000 0.00000000
vt 0.00000000 0.00000000
vt 0.00000000 0.00000000
vt 0.00000000 0.00000000
vt 0.00000000 0.00000000
vt 0.00000000 0.00000000
vt 0.00000000 0.00000000
vt 0.00000000 0.00000000
vt 0.00000000 0.00000000
vt 0.00000000 0.00000000
vt 0.00000000 0.00000000
vt 0.00000000 0.00000000
vt 0.00000000 0.00000000
vt 0.00000000 0.00000000
vt 0.00000000 0.00000000
vt 0.00000000 0.00000000
vt 0.00000000 0.00000000
vt 0.00000000 0.00000000
vt 0.00000000 0.00000000
vt 0.00000000 0.00000000
vt 0.00000000 0.00000000
vt 0.00000000 0.00000000
vt 0.00000000 0.00000000
vt 0.00000000 0.00000000
vt 0.00000000 0.00000000
vt 0.00000000 0.00000000
vt 0.00000000 0.00000000
vt 0.00000000 0.00000000
vt 0.00000000 0.00000000
vt 0.00000000 0.00000000
vt 0.00000000 0.00000000
vt 0.00000000 0.00000000
vt 0.00000000 0.00000000
vt 0.00000000 0.00000000
vt 0.00000000 0.00000000
vt 0.00000000 0.00000000
vt 0.00000000 0.00000000
vt 0.00000000 0.00000000
vt 0.00000000 0.00000000
vt 0.00000000 0.00000000
vt 0.00000000 0.00000000
vt 0.00000000 0.00000000
vt 0.00000000 0.00000000
vt 0.00000000 0.00000000
vt 0.00000000 0.00000000
vt 0.00000000 0.00000000
vt 0.00000000 0.00000000
vt 0.00000000 0.00000000
vt 0.00000000 0.00000000
vt 0.00000000 0.00000000
vt 0.00000000 0.00000000
vt 0.00000000 0.00000000
vt 0.00000000 0.00000000
vt 0.00000000 0.00000000
vt 0.00000000 0.00000000
vt 0.00000000 0.00000000
vt 0.00000000 0.00000000
vt 0.00000000 0.00000000
vt 0.00000000 0.00000000
vt 0.00000000 0.00000000
vt 0.00000000 0.00000000
vt 0.00000000 0.00000000
vt 0.00000000 0.00000000
vt 0.00000000 0.00000000
vt 0.00000000 0.00000000
vt 0.00000000 0.00000000
vt 0.00000000 0.00000000
vt 0.00000000 0.00000000
vt 0.00000000 0.00000000
vt 0.31892800 0.38884100
vt 0.31892800 0.38884100
vt 0.31892800 0.38884100
vt 0.31892800 0.38884100
vt 0.31892800 0.38884100
vt 0.31892800 0.38884100
vt 0.33662900 0.37441800
vt 0.33662900 0.37441800
vt 0.33662900 0.37441800
vt 0.33662900 0.37441800
vt 0.33662900 0.37441800
vt 0.33662900 0.37441800
vt 0.33662900 0.37441800
vt 0.34765500 0.36385300
vt 0.34765500 0.36385300
vt 0.34765500 0.36385300
vt 0.34765500 0.36385300
vt 0.34765500 0.36385300
vt 0.34765500 0.36385300
vt 0.30565600 0.34375900
vt 0.30565600 0.34375900
vt 0.30565600 0.34375900
vt 0.30565600 0.34375900
vt 0.30565600 0.34375900
vt 0.30565600 0.34375900
vt 0.31715400 0.33467700
vt 0.31715400 0.33467700
vt 0.31715400 0.33467700
vt 0.31715400 0.33467700
vt 0.31715400 0.33467700
vt 0.31715400 0.33467700
vt 0.31715400 0.33467700
vt 0.31715400 0.33467700
vt 0.31715400 0.33467700
vt 0.28848300 0.35962200
vt 0.28848300 0.35962200
vt 0.28848300 0.35962200
vt 0.28848300 0.35962200
vt 0.28848300 0.35962200
vt 0.28848300 0.35962200
vt 0.28848300 0.35962200
vt 0.27594100 0.43062900
vt 0.27594100 0.43062900
vt 0.27594100 0.43062900
vt 0.27594100 0.43062900
vt 0.27594100 0.43062900
vt 0.27594100 0.43062900
vt 0.27594100 0.43062900
vt 0.26835400 0.43903100
vt 0.26835400 0.43903100
vt 0.26835400 0.43903100
vt 0.26835400 0.43903100
vt 0.26835400 0.43903100
vt 0.26835400 0.43903100
vt 0.26326100 0.44597000
vt 0.26326100 0.44597000
vt 0.26326100 0.44597000
vt 0.26326100 0.44597000
vt 0.26326100 0.44597000
vt 0.26326100 0.44597000
vt 0.26326100 0.44597000
vt 0.26326100 0.44597000
vt 0.25845000 0.45464000
vt 0.43439400 0.27066000
vt 0.43439400 0.27066000
vt 0.25845000 0.45464000
vt 0.25845000 0.45464000
vt 0.43439400 0.27066000
vt 0.43439400 0.27066000
vt 0.25845000 0.45464000
vt 0.43439400 0.27066000
vt 0.25845000 0.45464000
vt 0.23172400 0.43017500
vt 0.23172400 0.43017500
vt 0.40874700 0.24504900
vt 0.40874700 0.24504900
vt 0.40874700 0.24504900
vt 0.23172400 0.43017500
vt 0.23172400 0.43017500
vt 0.40874700 0.24504900
vt 0.23587900 0.42327100
vt 0.23587900 0.42327100
vt 0.23587900 0.42327100
vt 0.23587900 0.42327100
vt 0.23587900 0.42327100
vt 0.23587900 0.42327100
vt 0.23587900 0.42327100
vt 0.23587900 0.42327100
vt 0.23587900 0.42327100
vt 0.24090700 0.41576400
vt 0.24090700 0.41576400
vt 0.24090700 0.41576400
vt 0.24090700 0.41576400
vt 0.24090700 0.41576400
vt 0.24090700 0.41576400
vt 0.24804600 0.40656000
vt 0.24804600 0.40656000
vt 0.24804600 0.40656000
vt 0.24804600 0.40656000
vt 0.24804600 0.40656000
vt 0.24804600 0.40656000
vt 0.24804600 0.40656000
vt 0.32920100 0.38039200
vt 0.32920100 0.38039200
vt 0.32920100 0.38039200
vt 0.32920100 0.38039200
vt 0.32920100 0.38039200
vt 0.32920100 0.38039200
vt 0.32920100 0.38039200
vt 0.32920100 0.38039200
vt 0.29829600 0.35015100
vt 0.29829600 0.35015100
vt 0.29829600 0.35015100
vt 0.29829600 0.35015100
vt 0.29829600 0.35015100
vt 0.29829600 0.35015100
vt 0.29829600 0.35015100
vt 0.40190900 0.29902100
vt 0.40190900 0.29902100
vt 0.40190900 0.29902100
vt 0.40190900 0.29902100
vt 0.40190900 0.29902100
vt 0.39127500 0.31028000
vt 0.39127500 0.31028000
vt 0.39127500 0.31028000
vt 0.39127500 0.31028000
vt 0.39127500 0.31028000
vt 0.39127500 0.31028000
vt 0.39127500 0.31028000
vt 0.39127500 0.31028000
vt 0.38073700 0.32233700
vt 0.38073700 0.32233700
vt 0.38073700 0.32233700
vt 0.38073700 0.32233700
vt 0.38073700 0.32233700
vt 0.38073700 0.32233700
vt 0.38073700 0.32233700
vt 0.38073700 0.32233700
vt 0.37133200 0.33403000
vt 0.37133200 0.33403000
vt 0.37133200 0.33403000
vt 0.37133200 0.33403000
vt 0.37133200 0.33403000
vt 0.37133200 0.33403000
vt 0.37538200 0.27176400
vt 0.37538200 0.27176400
vt 0.37538200 0.27176400
vt 0.37538200 0.27176400
vt 0.37538200 0.27176400
vt 0.37538200 0.27176400
vt 0.37538200 0.27176400
vt 0.36351400 0.28221900
vt 0.36351400 0.28221900
vt 0.36351400 0.28221900
vt 0.36351400 0.28221900
vt 0.36351400 0.28221900
vt 0.36351400 0.28221900
vt 0.36351400 0.28221900
vt 0.35180100 0.29350200
vt 0.35180100 0.29350200
vt 0.35180100 0.29350200
vt 0.35180100 0.29350200
vt 0.35180100 0.29350200
vt 0.35180100 0.29350200
vt 0.35180100 0.29350200
vt 0.34079100 0.30491400
vt 0.34079100 0.30491400
vt 0.34079100 0.30491400
vt 0.34079100 0.30491400
vt 0.34079100 0.30491400
vt 0.34079100 0.30491400
vt 0.34079100 0.30491400
vt 0.36335100 0.34467400
vt 0.36335100 0.34467400
vt 0.36335100 0.34467400
vt 0.36335100 0.34467400
vt 0.36335100 0.34467400
vt 0.36335100 0.34467400
vt 0.36335100 0.34467400
vt 0.35771400 0.35236300
vt 0.35771400 0.35236300
vt 0.35771400 0.35236300
vt 0.35771400 0.35236300
vt 0.35771400 0.35236300
vt 0.35771400 0.35236300
vt 0.35771400 0.35236300
vt 0.33176900 0.31514200
vt 0.33176900 0.31514200
vt 0.33176900 0.31514200
vt 0.33176900 0.31514200
vt 0.33176900 0.31514200
vt 0.33176900 0.31514200
vt 0.33176900 0.31514200
vt 0.32571300 0.32278200
vt 0.32571300 0.32278200
vt 0.32571300 0.32278200
vt 0.32571300 0.32278200
vt 0.32571300 0.32278200
vt 0.32571300 0.32278200
vt 0.32571300 0.32278200
vt 0.41117600 0.28921100
vt 0.41117600 0.28921100
vt 0.41117600 0.28921100
vt 0.41117600 0.28921100
vt 0.41117600 0.28921100
vt 0.41117600 0.28921100
vt 0.41117600 0.28921100
vt 0.41923600 0.28125400
vt 0.41923600 0.28125400
vt 0.41923600 0.28125400
vt 0.41923600 0.28125400
vt 0.41923600 0.28125400
vt 0.41923600 0.28125400
vt 0.42594400 0.27585500
vt 0.42594400 0.27585500
vt 0.42594400 0.27585500
vt 0.42594400 0.27585500
vt 0.42594400 0.27585500
vt 0.42594400 0.27585500
vt 0.42594400 0.27585500
vt 0.42594400 0.27585500
vt 0.40203400 0.24951000
vt 0.40203400 0.24951000
vt 0.40203400 0.24951000
vt 0.40203400 0.24951000
vt 0.40203400 0.24951000
vt 0.40203400 0.24951000
vt 0.40203400 0.24951000
vt 0.40203400 0.24951000
vt 0.40203400 0.24951000
vt 0.39475800 0.25486900
vt 0.39475800 0.25486900
vt 0.39475800 0.25486900
vt 0.39475800 0.25486900
vt 0.39475800 0.25486900
vt 0.39475800 0.25486900
vt 0.38588000 0.26241300
vt 0.38588000 0.26241300
vt 0.38588000 0.26241300
vt 0.38588000 0.26241300
vt 0.38588000 0.26241300
vt 0.38588000 0.26241300
vt 0.38588000 0.26241300
vt 0.00000000 0.00000000
vt 0.00000000 0.00000000
vt 0.26643900 0.36793500
vt 0.26643900 0.36793500
vt 0.26643900 0.36793500
vt 0.00000000 0.00000000
vt 0.25958800 0.37760500
vt 0.25958800 0.37760500
vt 0.00000000 0.00000000
vt 0.00000000 0.00000000
vt 0.26914600 0.36421200
vt 0.00000000 0.00000000
vt 0.26914600 0.36421200
vt 0.25732400 0.38081700
vt 0.25732400 0.38081700
vt 0.00000000 0.00000000
vt 0.00000000 0.00000000
vt 0.00000000 0.00000000
vt 0.25530500 0.38374400
vt 0.00000000 0.00000000
vt 0.00000000 0.00000000
vt 0.25530500 0.38374400
vt 0.00000000 0.00000000
vt 0.25011700 0.39048100
vt 0.25011700 0.39048100
vt 0.00000000 0.00000000
vt 0.29392800 0.32007700
vt 0.29392800 0.32007700
vt 0.29392800 0.32007700
vt 0.00000000 0.00000000
vt 0.29671400 0.31513000
vt 0.29671400 0.31513000
vt 0.29502400 0.31864500
vt 0.29502400 0.31864500
vt 0.00000000 0.00000000
vt 0.00000000 0.00000000
vt 0.28752300 0.32705600
vt 0.28752400 0.32705600
vt 0.00000000 0.00000000
vt 0.28343100 0.33698200
vt 0.00000000 0.00000000
vt 0.28343100 0.33698200
vt 0.00000000 0.00000000
vt 0.28564600 0.33245400
vt 0.00000000 0.00000000
vt 0.00000000 0.00000000
vt 0.27474500 0.35511300
vt 0.00000000 0.00000000
vt 0.27474500 0.35511300
vt 0.00000000 0.00000000
vt 0.00000000 0.00000000
vt 0.26973100 0.36342500
vt 0.26973100 0.36342500
vt 0.00000000 0.00000000
vt 0.27729300 0.35015100
vt 0.27729300 0.35015100
vt 0.00000000 0.00000000
vt 0.22092000 0.42452600
vt 0.00000000 0.00000000
vt 0.40262200 0.23450600
vt 0.22427300 0.42011300
vt 0.22427300 0.42011300
vt 0.00000000 0.00000000
vt 0.00000000 0.00000000
vt 0.22427300 0.42011300
vt 0.00000000 0.00000000
vt 0.22601000 0.41772300
vt 0.00000000 0.00000000
vt 0.22601000 0.41772300
vt 0.24853800 0.39254800
vt 0.00000000 0.00000000
vt 0.24853800 0.39254800
vt 0.00000000 0.00000000
vt 0.00000000 0.00000000
vt 0.24309000 0.39848200
vt 0.24309000 0.39848200
vt 0.00000000 0.00000000
vt 0.24044600 0.40132200
vt 0.24044600 0.40132200
vt 0.00000000 0.00000000
vt 0.00000000 0.00000000
vt 0.23694500 0.40506500
vt 0.23694500 0.40506500
vt 0.00000000 0.00000000
vt 0.00000000 0.00000000
vt 0.00000000 0.00000000
vt 0.23185900 0.41025700
vt 0.23185900 0.41025700
vt 0.23792200 0.40400900
vt 0.23792200 0.40400900
vt 0.00000000 0.00000000
vt 0.00000000 0.00000000
vt 0.00000000 0.00000000
vt 0.00000000 0.00000000
vt 0.22649400 0.41729200
vt 0.22649400 0.41729200
vt 0.00000000 0.00000000
vt 0.22701300 0.41677000
vt 0.00000000 0.00000000
vt 0.22701300 0.41677000
vt 0.00000000 0.00000000
vt 0.00000000 0.00000000
vt 0.22814800 0.41532600
vt 0.22814800 0.41532600
vt 0.00000000 0.00000000
vt 0.00000000 0.00000000
vt 0.22814800 0.41532600
vt 0.00000000 0.00000000
vt 0.27996000 0.34456800
vt 0.27996000 0.34456800
vt 0.00000000 0.00000000
vt 0.00000000 0.00000000
vt 0.27863600 0.34753900
vt 0.27863600 0.34753900
vt 0.00000000 0.00000000
vt 0.00000000 0.00000000
vt 0.27863600 0.34753900
vt 0.00000000 0.00000000
vt 0.34811200 0.28251800
vt 0.00000000 0.00000000
vt 0.00000000 0.00000000
vt 0.34811200 0.28251800
vt 0.34811200 0.28251800
vt 0.00000000 0.00000000
vt 0.00000000 0.00000000
vt 0.34451300 0.28539000
vt 0.34451300 0.28539000
vt 0.00000000 0.00000000
vt 0.35746600 0.27524000
vt 0.35746600 0.27524000
vt 0.00000000 0.00000000
vt 0.36057500 0.27283500
vt 0.00000000 0.00000000
vt 0.36057500 0.27283500
vt 0.36340900 0.27068600
vt 0.00000000 0.00000000
vt 0.00000000 0.00000000
vt 0.36340900 0.27068600
vt 0.00000000 0.00000000
vt 0.00000000 0.00000000
vt 0.36990700 0.26520200
vt 0.00000000 0.00000000
vt 0.36990800 0.26520200
vt 0.30153100 0.31212600
vt 0.30153100 0.31212600
vt 0.00000000 0.00000000
vt 0.30821600 0.30541500
vt 0.30821600 0.30541500
vt 0.00000000 0.00000000
vt 0.30015000 0.31328500
vt 0.00000000 0.00000000
vt 0.30015000 0.31328500
vt 0.00000000 0.00000000
vt 0.30015000 0.31328500
vt 0.31352500 0.30329700
vt 0.00000000 0.00000000
vt 0.00000000 0.00000000
vt 0.00000000 0.00000000
vt 0.31795000 0.30088200
vt 0.00000000 0.00000000
vt 0.31795000 0.30088200
vt 0.33567400 0.29139100
vt 0.00000000 0.00000000
vt 0.33567400 0.29139100
vt 0.33083000 0.29415900
vt 0.00000000 0.00000000
vt 0.33083000 0.29415900
vt 0.00000000 0.00000000
vt 0.00000000 0.00000000
vt 0.34375300 0.28601000
vt 0.00000000 0.00000000
vt 0.34375300 0.28601000
vt 0.39836100 0.23805400
vt 0.39836100 0.23805400
vt 0.00000000 0.00000000
vt 0.00000000 0.00000000
vt 0.39836100 0.23805400
vt 0.00000000 0.00000000
vt 0.00000000 0.00000000
vt 0.39605000 0.23989800
vt 0.39605000 0.23989800
vt 0.00000000 0.00000000
vt 0.37758800 0.25782400
vt 0.37758800 0.25782400
vt 0.38030800 0.25505500
vt 0.38030800 0.25505500
vt 0.00000000 0.00000000
vt 0.00000000 0.00000000
vt 0.00000000 0.00000000
vt 0.37190200 0.26353200
vt 0.00000000 0.00000000
vt 0.37190200 0.26353200
vt 0.38287900 0.25241300
vt 0.38287900 0.25241300
vt 0.00000000 0.00000000
vt 0.00000000 0.00000000
vt 0.00000000 0.00000000
vt 0.38389100 0.25139000
vt 0.00000000 0.00000000
vt 0.00000000 0.00000000
vt 0.38389100 0.25139000
vt 0.38885200 0.24607600
vt 0.38885200 0.24607600
vt 0.00000000 0.00000000
vt 0.39564100 0.24040100
vt 0.00000000 0.00000000
vt 0.00000000 0.00000000
vt 0.00000000 0.00000000
vt 0.39564100 0.24040100
vt 0.00000000 0.00000000
vt 0.00000000 0.00000000
vt 0.00000000 0.00000000
vt 0.39514300 0.24094200
vt 0.39514300 0.24094200
vt 0.00000000 0.00000000
vt 0.39375100 0.24214100
vt 0.00000000 0.00000000
vt 0.39375100 0.24214100
vt 0.39375100 0.24214100
vt 0.00000000 0.00000000
vt 0.00000000 0.00000000
vt 0.00000000 0.00000000
vt 0.32828100 0.29561800
vt 0.00000000 0.00000000
vt 0.32828100 0.29561800
vt 0.32828100 0.29561800
vt 0.32537200 0.29707400
vt 0.32537200 0.29707400
vt 0.00000000 0.00000000
vt 0.00000000 0.00000000
vt 0.00000000 0.00000000
vt 0.00000000 0.00000000
vt 0.26231000 0.46552100
vt 0.26231000 0.46552100
vt 0.26488400 0.46368500
vt 0.00000000 0.00000000
vt 0.00000000 0.00000000
vt 0.44372000 0.27668800
vt 0.00000000 0.00000000
vt 0.00000000 0.00000000
vt 0.44543800 0.27403400
vt 0.00000000 0.00000000
vt 0.44543800 0.27403400
vt 0.00000000 0.00000000
vt 0.25969500 0.46685600
vt 0.44665500 0.27136200
vt 0.00000000 0.00000000
vt 0.00000000 0.00000000
vt 0.35356100 0.36651700
vt 0.00000000 0.00000000
vt 0.35356100 0.36651700
vt 0.00000000 0.00000000
vt 0.36350400 0.35661300
vt 0.00000000 0.00000000
vt 0.36350400 0.35661300
vt 0.00000000 0.00000000
vt 0.36285700 0.35702100
vt 0.36285700 0.35702100
vt 0.00000000 0.00000000
vt 0.00000000 0.00000000
vt 0.35174600 0.36776600
vt 0.35174600 0.36776600
vt 0.00000000 0.00000000
vt 0.35057900 0.36963600
vt 0.00000000 0.00000000
vt 0.00000000 0.00000000
vt 0.00000000 0.00000000
vt 0.35057900 0.36963600
vt 0.34113100 0.38001500
vt 0.00000000 0.00000000
vt 0.34113100 0.38001500
vt 0.00000000 0.00000000
vt 0.00000000 0.00000000
vt 0.00000000 0.00000000
vt 0.34151000 0.37934900
vt 0.34151000 0.37934900
vt 0.00000000 0.00000000
vt 0.41010200 0.31495500
vt 0.00000000 0.00000000
vt 0.40985400 0.31519100
vt 0.00000000 0.00000000
vt 0.40985400 0.31519100
vt 0.00000000 0.00000000
vt 0.40985400 0.31519100
vt 0.40985400 0.31519100
vt 0.39883900 0.32555100
vt 0.39883900 0.32555100
vt 0.00000000 0.00000000
vt 0.39883900 0.32555100
vt 0.00000000 0.00000000
vt 0.00000000 0.00000000
vt 0.00000000 0.00000000
vt 0.40348900 0.32114800
vt 0.40348900 0.32114800
vt 0.00000000 0.00000000
vt 0.00000000 0.00000000
vt 0.39260200 0.33154500
vt 0.39260200 0.33154500
vt 0.00000000 0.00000000
vt 0.00000000 0.00000000
vt 0.00000000 0.00000000
vt 0.00000000 0.00000000
vt 0.43591400 0.28665100
vt 0.43591400 0.28665100
vt 0.00000000 0.00000000
vt 0.43752000 0.28485100
vt 0.43752000 0.28485100
vt 0.00000000 0.00000000
vt 0.43919200 0.28312500
vt 0.43919200 0.28312500
vt 0.00000000 0.00000000
vt 0.00000000 0.00000000
vt 0.37250500 0.34943900
vt 0.00000000 0.00000000
vt 0.00000000 0.00000000
vt 0.00000000 0.00000000
vt 0.00000000 0.00000000
vt 0.37308200 0.34890000
vt 0.37308200 0.34890000
vt 0.37308200 0.34890000
vt 0.00000000 0.00000000
vt 0.37308200 0.34890000
vt 0.00000000 0.00000000
vt 0.39179900 0.33217700
vt 0.00000000 0.00000000
vt 0.39179900 0.33217700
vt 0.00000000 0.00000000
vt 0.38784900 0.33575700
vt 0.00000000 0.00000000
vt 0.38784900 0.33575700
vt 0.00000000 0.00000000
vt 0.38047700 0.34225900
vt 0.00000000 0.00000000
vt 0.38047700 0.34225900
vt 0.37035500 0.35107000
vt 0.37035500 0.35107000
vt 0.37035500 0.35107000
vt 0.00000000 0.00000000
vt 0.00000000 0.00000000
vt 0.36878000 0.35247400
vt 0.00000000 0.00000000
vt 0.36878000 0.35247400
vt 0.36878000 0.35247400
vt 0.00000000 0.00000000
vt 0.33436700 0.38932600
vt 0.00000000 0.00000000
vt 0.33436700 0.38932600
vt 0.00000000 0.00000000
vt 0.00000000 0.00000000
vt 0.00000000 0.00000000
vt 0.00000000 0.00000000
vt 0.33590000 0.38710500
vt 0.33590000 0.38710500
vt 0.33723200 0.38546900
vt 0.33723200 0.38546900
vt 0.33723200 0.38546900
vt 0.00000000 0.00000000
vt 0.00000000 0.00000000
vt 0.00000000 0.00000000
vt 0.00000000 0.00000000
vt 0.26605000 0.46271600
vt 0.26605000 0.46271600
vt 0.26808800 0.46120000
vt 0.00000000 0.00000000
vt 0.26808800 0.46120000
vt 0.00000000 0.00000000
vt 0.27111000 0.45887600
vt 0.27111000 0.45887600
vt 0.00000000 0.00000000
vt 0.00000000 0.00000000
vt 0.00000000 0.00000000
vt 0.44138000 0.28000100
vt 0.44138000 0.28000100
vt 0.44280400 0.27789700
vt 0.44280400 0.27789700
vt 0.00000000 0.00000000
vt 0.00000000 0.00000000
vt 0.27275900 0.45712900
vt 0.27275900 0.45712900
vt 0.00000000 0.00000000
vt 0.00000000 0.00000000
vt 0.00000000 0.00000000
vt 0.00000000 0.00000000
vt 0.00000000 0.00000000
vt 0.00000000 0.00000000
vt 0.00000000 0.00000000
vt 0.27448500 0.45544600
vt 0.27448500 0.45544600
vt 0.00000000 0.00000000
vt 0.31168300 0.41669400
vt 0.31168300 0.41669400
vt 0.00000000 0.00000000
vt 0.31168300 0.41669400
vt 0.00000000 0.00000000
vt 0.30749200 0.42153400
vt 0.30749200 0.42153400
vt 0.00000000 0.00000000
vt 0.31739100 0.41019900
vt 0.00000000 0.00000000
vt 0.31739100 0.41019900
vt 0.00000000 0.00000000
vt 0.00000000 0.00000000
vt 0.30182600 0.42815500
vt 0.30182600 0.42815500
vt 0.30182600 0.42815500
vt 0.30182600 0.42815500
vt 0.00000000 0.00000000
vt 0.00000000 0.00000000
vt 0.30160100 0.42841400
vt 0.00000000 0.00000000
vt 0.00000000 0.00000000
vt 0.32138700 0.40526400
vt 0.32138700 0.40526400
vt 0.00000000 0.00000000
vt 0.00000000 0.00000000
vt 0.00000000 0.00000000
vt 0.31798700 0.40936900
vt 0.31798700 0.40936900
vt 0.33385500 0.38992700
vt 0.00000000 0.00000000
vt 0.33385500 0.38992700
vt 0.33385500 0.38992700
vt 0.00000000 0.00000000
vt 0.32755200 0.39761100
vt 0.00000000 0.00000000
vt 0.32755200 0.39761100
vt 0.00000000 0.00000000
vt 0.00000000 0.00000000
vt 0.41779300 0.30716500
vt 0.41779300 0.30716500
vt 0.41454700 0.31032600
vt 0.00000000 0.00000000
vt 0.41454700 0.31032600
vt 0.00000000 0.00000000
vt 0.41454700 0.31032600
vt 0.42236500 0.30180400
vt 0.00000000 0.00000000
vt 0.00000000 0.00000000
vt 0.42236500 0.30180400
vt 0.43470200 0.28779500
vt 0.00000000 0.00000000
vt 0.00000000 0.00000000
vt 0.43470200 0.28779500
vt 0.42374900 0.29997700
vt 0.42374900 0.29997700
vt 0.00000000 0.00000000
vt 0.00000000 0.00000000
vt 0.42777500 0.29518000
vt 0.42777500 0.29518000
vt 0.42777500 0.29518000
vt 0.00000000 0.00000000
vt 0.00000000 0.00000000
vt 0.00000000 0.00000000
vt 0.00000000 0.00000000
vt 0.43127600 0.29116700
vt 0.43127600 0.29116700
vt 0.00000000 0.00000000
vt 0.29717500 0.43305900
vt 0.29717500 0.43305900
vt 0.00000000 0.00000000
vt 0.29717500 0.43305900
vt 0.29416300 0.43644000
vt 0.00000000 0.00000000
vt 0.29416300 0.43644000
vt 0.00000000 0.00000000
vt 0.00000000 0.00000000
vt 0.28901300 0.44124400
vt 0.00000000 0.00000000
vt 0.00000000 0.00000000
vt 0.28901300 0.44124400
vt 0.00000000 0.00000000
vt 0.28725000 0.44270700
vt 0.28725000 0.44270700
vt 0.27557300 0.45418500
vt 0.27557300 0.45418500
vt 0.00000000 0.00000000
vt 0.00000000 0.00000000
vt 0.00000000 0.00000000
vt 0.27878800 0.45061400
vt 0.27878800 0.45061400
vt 0.00000000 0.00000000
vt 0.28263900 0.44694000
vt 0.00000000 0.00000000
vt 0.28263900 0.44694000
vt 0.28263900 0.44694000
vt 0.00000000 0.00000000
f 626/626 631/631 615/615
f 76/76 644/644 638/638
f 636/636 649/649 647/647
f 78/78 657/657 651/651
f 675/675 665/665 115/115
f 696/696 686/686 689/689
f 713/713 711/711 116/116
f 700/700 71/71 728/728
f 117/117 37/37 131/131
f 129/129 140/140 118/118
f 79/79 119/119 141/141
f 730/730 742/742 77/77
f 748/748 128/128 755/755
f 750/750 764/764 767/767
f 139/139 126/126 2/2
f 781/781 773/773 138/138
f 137/137 799/799 795/795
f 34/34 818/818 811/811
f 30/30 812/812 822/822
f 32/32 835/835 825/825
f 844/844 3/3 849/849
f 862/862 870/870 765/765
f 847/847 4/4 852/852
f 788/788 793/793 842/842
f 774/774 25/25 782/782
f 144/144 796/796 23/23
f 15/15 55/55 49/49
f 18/18 43/43 26/26
f 27/27 182/182 142/142
f 149/149 659/659 653/653
f 160/160 645/645 652/652
f 247/247 166/166 148/148
f 174/174 154/154 165/165
f 47/47 391/391 387/387
f 56/56 408/408 406/406
f 413/413 417/417 173/173
f 255/255 424/424 428/428
f 436/436 431/431 45/45
f 848/848 854/854 187/187
f 189/189 856/856 866/866
f 191/191 863/863 859/859
f 751/751 749/749 208/208
f 200/200 219/219 226/226
f 195/195 227/227 232/232
f 185/185 233/233 238/238
f 59/59 184/184 242/242
f 214/214 442/442 445/445
f 459/459 454/454 60/60
f 231/231 472/472 466/466
f 484/484 488/488 225/225
f 204/204 619/619 617/617
f 251/251 731/731 803/803
f 253/253 145/145 178/178
f 177/177 439/439 501/501
f 819/819 662/662 668/668
f 670/670 681/681 275/275
f 278/278 710/710 712/712
f 271/271 292/292 261/261
f 306/306 266/266 273/273
f 313/313 277/277 280/280
f 726/726 637/637 326/326
f 325/325 635/635 159/159
f 337/337 315/315 321/321
f 172/172 327/327 157/157
f 305/305 506/506 294/294
f 519/519 298/298 518/518
f 534/534 529/529 340/340
f 338/338 532/532 539/539
f 546/546 556/556 300/300
f 814/814 342/342 823/823
f 351/351 840/840 833/833
f 824/824 361/361 687/687
f 756/756 693/693 205/205
f 362/362 221/221 212/212
f 354/354 365/365 360/360
f 343/343 375/375 350/350
f 291/291 342/342 260/260
f 363/363 564/564 558/558
f 576/576 567/567 380/380
f 582/582 379/379 577/577
f 366/366 602/602 597/597
f 206/206 630/630 625/625
f 706/706 697/697 720/720
f 330/330 285/285 317/317
f 607/607 328/328 611/611
f 450/450 560/560 590/590
f 530/530 61/61 533/533
f 537/537 419/419 64/64
f 66/66 410/410 423/423
f 515/515 504/504 85/85
f 601/601 584/584 90/90
f 88/88 555/555 547/547
f 542/542 541/541 62/62
f 91/91 575/575 526/526
f 92/92 81/81 107/107
f 63/63 104/104 82/82
f 496/496 67/67 425/425
f 594/594 485/485 481/481
f 476/476 469/469 93/93
f 94/94 111/111 402/402
f 401/401 404/404 108/108
f 432/432 112/112 441/441
f 588/588 581/581 599/599
f 492/492 468/468 470/470
f 616/616 621/621 624/624
f 624/624 628/628 616/616
f 75/75 632/632 643/643
f 634/634 74/74 650/650
f 80/80 656/656 658/658
f 667/667 661/661 39/39
f 36/36 115/115 665/665
f 115/115 680/680 672/672
f 676/676 114/114 674/674
f 695/695 124/124 683/683
f 130/130 38/38 685/685
f 709/709 679/679 120/120
f 122/122 701/701 707/707
f 705/705 717/717 121/121
f 717/717 715/715 121/121
f 725/725 722/722 699/699
f 698/698 123/123 69/69
f 70/70 640/640 723/723
f 72/72 136/136 732/732
f 734/734 735/735 741/741
f 743/743 654/654 73/73
f 761/761 623/623 620/620
f 761/761 620/620 744/744
f 128/128 692/692 755/755
f 755/755 760/760 744/744
f 748/748 754/754 128/128
f 755/755 744/744 748/748
f 769/769 5/5 125/125
f 127/127 753/753 770/770
f 776/776 785/785 132/132
f 132/132 6/6 786/786
f 1/1 794/794 791/791
f 786/786 778/778 132/132
f 804/804 733/733 134/134
f 133/133 783/783 800/800
f 798/798 809/809 135/135
f 809/809 807/807 135/135
f 33/33 663/663 816/816
f 825/825 684/684 32/32
f 31/31 821/821 830/830
f 831/831 836/836 35/35
f 837/837 838/838 826/826
f 841/841 792/792 7/7
f 867/867 855/855 850/850
f 853/853 8/8 865/865
f 8/8 766/766 865/865
f 768/768 860/860 861/861
f 843/843 12/12 789/789
f 13/13 16/16 787/787
f 20/20 779/779 790/790
f 777/777 780/780 17/17
f 21/21 22/22 775/775
f 28/28 801/801 784/784
f 810/810 796/796 144/144
f 797/797 802/802 29/29
f 19/19 10/10 54/54
f 14/14 50/50 44/44
f 24/24 46/46 176/176
f 655/655 738/738 150/150
f 739/739 736/736 249/249
f 151/151 740/740 245/245
f 660/660 152/152 648/648
f 152/152 155/155 648/648
f 246/246 257/257 164/164
f 171/171 156/156 153/153
f 388/388 395/395 40/40
f 42/42 53/53 389/389
f 403/403 398/398 51/51
f 399/399 392/392 52/52
f 48/48 56/56 406/406
f 418/418 415/415 170/170
f 169/169 163/163 412/412
f 161/161 421/421 411/411
f 428/428 422/422 162/162
f 162/162 255/255 428/428
f 433/433 440/440 180/180
f 181/181 45/45 431/431
f 41/41 397/397 437/437
f 851/851 857/857 188/188
f 187/187 11/11 848/848
f 9/9 845/845 846/846
f 869/869 864/864 190/190
f 194/194 186/186 868/868
f 858/858 771/771 199/199
f 772/772 763/763 197/197
f 203/203 191/191 859/859
f 747/747 745/745 207/207
f 208/208 201/201 751/751
f 202/202 762/762 752/752
f 196/196 211/211 215/215
f 192/192 198/198 230/230
f 183/183 193/193 235/235
f 58/58 11/11 187/187
f 449/449 451/451 223/223
f 224/224 220/220 446/446
f 456/456 409/409 57/57
f 60/60 239/239 459/459
f 240/240 462/462 460/460
f 467/467 474/474 241/241
f 473/473 463/463 237/237
f 243/243 231/231 466/466
f 487/487 471/471 236/236
f 234/234 229/229 491/491
f 228/228 453/453 480/480
f 222/222 479/479 482/482
f 618/618 629/629 213/213
f 204/204 746/746 619/619
f 808/808 143/143 806/806
f 146/146 248/248 805/805
f 244/244 737/737 729/729
f 256/256 250/250 147/147
f 497/497 494/494 258/258
f 493/493 426/426 252/252
f 254/254 179/179 498/498
f 664/664 678/678 264/264
f 270/270 259/259 669/669
f 263/263 815/815 666/666
f 708/708 279/279 682/682
f 276/276 267/267 673/673
f 269/269 677/677 671/671
f 718/718 283/283 714/714
f 283/283 272/272 714/714
f 268/268 295/295 287/287
f 302/302 296/296 265/265
f 311/311 301/301 274/274
f 641/641 324/324 639/639
f 322/322 320/320 727/727
f 319/319 721/721 724/724
f 642/642 635/635 325/325
f 633/633 646/646 158/158
f 339/339 329/329 318/318
f 175/175 341/341 323/323
f 510/510 503/503 304/304
f 507/507 514/514 297/297
f 522/522 527/527 286/286
f 286/286 299/299 522/522
f 293/293 513/513 516/516
f 528/528 531/531 335/335
f 336/336 168/168 538/538
f 167/167 416/416 536/536
f 539/539 543/543 331/331
f 331/331 338/338 539/539
f 554/554 511/511 303/303
f 300/300 312/312 546/546
f 308/308 551/551 548/548
f 813/813 817/817 262/262
f 260/260 342/342 814/814
f 344/344 829/829 820/820
f 834/834 828/828 347/347
f 345/345 349/349 832/832
f 827/827 839/839 353/353
f 353/353 355/355 827/827
f 358/358 691/691 688/688
f 690/690 359/359 694/694
f 357/357 205/205 693/693
f 209/209 759/759 757/757
f 356/356 370/370 218/218
f 352/352 374/374 369/369
f 346/346 383/383 372/372
f 290/290 384/384 348/348
f 561/561 444/444 216/216
f 217/217 364/364 557/557
f 568/568 569/569 378/378
f 380/380 289/289 576/576
f 288/288 525/525 574/574
f 585/585 586/586 377/377
f 377/377 382/382 585/585
f 381/381 570/570 578/578
f 593/593 565/565 371/371
f 367/367 376/376 600/600
f 373/373 587/587 603/603
f 598/598 589/589 368/368
f 627/627 622/622 210/210
f 622/622 758/758 210/210
f 719/719 316/316 704/704
f 314/314 284/284 702/702
f 281/281 716/716 703/703
f 334/334 307/307 282/282
f 610/610 549/549 309/309
f 310/310 332/332 609/609
f 333/333 545/545 612/612
f 590/590 478/478 450/450
f 477/477 452/452 448/448
f 447/447 443/443 562/562
f 559/559 563/563 591/591
f 530/530 535/535 61/61
f 61/61 540/540 533/533
f 537/537 414/414 419/419
f 423/423 429/429 66/66
f 66/66 420/420 410/410
f 505/505 508/508 87/87
f 509/509 553/553 86/86
f 85/85 520/520 515/515
f 523/523 517/517 512/512
f 583/583 579/579 98/98
f 580/580 571/571 97/97
f 566/566 573/573 90/90
f 572/572 566/566 90/90
f 595/595 604/604 102/102
f 547/547 550/550 88/88
f 552/552 608/608 84/84
f 83/83 605/605 65/65
f 606/606 613/613 62/62
f 614/614 544/544 65/65
f 526/526 524/524 91/91
f 521/521 89/89 103/103
f 495/495 500/500 68/68
f 502/502 113/113 67/67
f 68/68 430/430 427/427
f 481/481 592/592 594/594
f 596/596 101/101 483/483
f 465/465 490/490 96/96
f 489/489 486/486 99/99
f 96/96 457/457 458/458
f 458/458 464/464 96/96
f 461/461 475/475 100/100
f 405/405 407/407 95/95
f 407/407 455/455 95/95
f 434/434 396/396 106/106
f 394/394 386/386 109/109
f 385/385 390/390 108/108
f 393/393 400/400 110/110
f 432/432 435/435 112/112
f 105/105 499/499 438/438

