# https://github.com/mikedh/trimesh
mtllib material.mtl
usemtl material_0
v 0.09848800 -0.02663900 -0.01557300
v -0.04199200 0.00000000 -0.01949000
v 0.07913300 0.00000000 -0.01557300
v 0.09848800 0.02663900 -0.01557300
v -0.03397200 -0.02468200 0.01949000
v 0.08448300 -0.01646400 0.01557300
v -0.03397200 0.02468200 0.01949000
v 0.08448300 0.01646400 0.01557300
v 0.09985200 -0.02244000 -0.02289600
v -0.03537300 0.00000000 -0.02865500
v 0.08354900 0.00000000 -0.02289600
v -0.02468200 0.00000000 -0.03707200
v 0.09068000 0.00000000 -0.02962100
v -0.02272200 -0.03364200 -0.02189100
v -0.03231000 -0.02347400 -0.02291200
v 0.09198700 -0.02244000 -0.01749100
v -0.03901700 -0.01121400 -0.02189000
v 0.08559200 -0.01565800 -0.01830700
v 0.08111800 -0.00748000 -0.01749100
v 0.09985200 0.02244000 -0.02289600
v -0.03901700 0.01121400 -0.02189000
v -0.03231000 0.02347400 -0.02291200
v -0.02272200 0.03364200 -0.02189100
v 0.08111800 0.00748000 -0.01749100
v 0.08559200 0.01565800 -0.01830700
v -0.04040900 -0.02079200 0.01094500
v -0.04465100 -0.01450800 -0.00000000
v 0.09198700 0.02244000 -0.01749100
v 0.10228300 -0.02992000 -0.00874600
v -0.04491200 -0.00693000 -0.01094500
v -0.02047000 -0.04057200 -0.01094500
v 0.08019000 -0.01386900 0.00874500
v -0.02759600 -0.03798200 0.00000000
v -0.03226100 -0.03200600 0.01094500
v 0.07736000 -0.00967700 -0.00000000
v -0.03226100 0.03200600 0.01094500
v 0.07718600 -0.00462300 -0.00874500
v -0.02759600 0.03798200 -0.00000000
v 0.09348900 -0.02706300 -0.00874600
v -0.02047000 0.04057200 -0.01094500
v -0.04491200 0.00693000 -0.01094500
v -0.04465100 0.01450800 0.00000000
v 0.08873600 -0.02533500 0.00000000
v -0.04040900 0.02079200 0.01094500
v 0.08562400 -0.02134900 0.00874600
v 0.08562400 0.02134900 0.00874600
v 0.08873600 0.02533500 -0.00000000
v -0.01234100 -0.03798200 0.02291200
v -0.02497400 -0.03200500 0.02189100
v 0.09348900 0.02706300 -0.00874600
v -0.03815700 -0.01386100 0.02189100
v 0.07718600 0.00462300 -0.00874500
v -0.03993700 0.00000000 0.02291200
v 0.07736000 0.00967700 0.00000000
v -0.03815700 0.01386100 0.02189100
v -0.02497400 0.03200500 0.02189100
v 0.08019000 0.01386900 0.00874500
v 0.10228300 0.02992000 -0.00874600
v -0.01234100 0.03798200 0.02291200
v -0.01996800 -0.01450800 0.03707200
v 0.09891100 -0.02533500 0.01830700
v 0.09048500 -0.02134900 0.01749100
v -0.02861700 -0.02079100 0.02865500
v 0.08169200 -0.00924600 0.01749100
v 0.08050400 0.00000000 0.01830700
v -0.01996800 0.01450800 0.03707200
v -0.02861700 0.02079100 0.02865500
v 0.08169200 0.00924600 0.01749100
v 0.09048500 0.02134900 0.01749100
v 0.09891100 0.02533500 0.01830700
v -0.01698600 0.02759500 0.03153500
v -0.02099600 0.00000000 0.03898000
v 0.09382400 -0.00967700 0.02962100
v -0.03149400 0.00762700 0.03153500
v -0.03149400 -0.00762700 0.03153500
v 0.08805500 -0.01386900 0.02289600
v -0.01698600 -0.02759500 0.03153500
v 0.09382400 0.00967700 0.02962100
v 0.08805500 0.01386900 0.02289600
v -0.01450800 0.04465100 -0.00000000
v -0.02099600 0.03993700 0.01204600
v 0.09581300 0.01840700 0.02519700
v 0.09313800 0.00000000 0.03114500
v -0.04447000 0.00762700 0.01204600
v -0.04694900 -0.00000000 0.00000000
v 0.08613600 0.00508800 0.02519700
v -0.04447000 -0.00762700 0.01204600
v -0.02099600 -0.03993700 0.01204600
v -0.01450800 -0.04465100 -0.00000000
v 0.08613600 -0.00508800 0.02519700
v -0.03798200 0.02759600 -0.00000000
v 0.09581300 -0.01840700 0.02519700
v -0.03149400 0.03231000 -0.01204600
v -0.04046000 0.01996800 -0.01204600
v 0.09746600 0.02978300 -0.00000000
v -0.03798200 -0.02759600 0.00000000
v -0.04046100 -0.01996800 -0.01204600
v -0.03149400 -0.03231000 -0.01204600
v 0.09313800 0.02663900 0.00962500
v 0.07748000 0.00508800 0.00962500
v -0.02099600 0.02468200 -0.03153500
v 0.07582700 -0.00000000 0.00000000
v -0.02996200 0.01234100 -0.03153500
v -0.02996200 -0.01234100 -0.03153500
v 0.07748000 -0.00508800 0.00962500
v 0.09313800 -0.02663900 0.00962500
v -0.02099600 -0.02468200 -0.03153500
v 0.09746600 -0.02978300 -0.00000000
v 0.10281500 -0.02978300 0.00962500
v 0.08180800 0.01840700 -0.00000000
v 0.08613600 0.02155100 -0.00962500
v 0.08015500 0.01331900 -0.00962500
v 0.08180800 -0.01840700 0.00000000
v 0.08015500 -0.01331900 -0.00962500
v 0.08613600 -0.02155100 -0.00962500
v 0.09313800 0.01646400 -0.02519700
v 0.09581300 0.00823200 -0.03114500
v 0.08715800 0.00823200 -0.02519700
v 0.08715800 -0.00823200 -0.02519700
v 0.09581300 -0.00823200 -0.03114500
v 0.09313800 -0.01646400 -0.02519700
v -0.00539200 -0.00816300 -0.03702200
v 0.01743000 -0.04188600 -0.01221400
v 0.00997800 -0.02468700 -0.03139800
v -0.01174400 0.00053300 -0.03756300
v -0.01845000 -0.01797400 -0.03463000
v 0.02017500 -0.03907100 -0.01714600
v 0.02518900 -0.04336700 -0.00364900
v 0.02274200 -0.03259900 -0.02486700
v 0.04212600 0.00269700 -0.03678000
v 0.03576700 -0.00666700 -0.03658700
v 0.05261900 -0.03177900 -0.02187100
v 0.05460800 -0.03833800 -0.00856100
v 0.06341400 -0.03412400 -0.01601200
v 0.06451600 -0.01648300 -0.03215600
v 0.04138000 -0.01340300 -0.03492500
v 0.04869500 -0.02568700 -0.02818600
v 0.08475000 -0.00363700 -0.03436700
v 0.09977300 -0.02202000 -0.02456600
v 0.01550800 -0.04360600 0.00856600
v 0.00794200 -0.04021000 0.01848500
v 0.00851900 -0.00222900 0.03879100
v 0.03563400 -0.03341400 0.02270600
v 0.02693300 -0.01775800 0.03438900
v 0.03324900 -0.02598100 0.02951300
v 0.02617400 -0.00998500 0.03675400
v 0.04923600 -0.04027300 0.00108700
v 0.04651000 -0.03826100 0.01211900
v 0.06245400 -0.03185600 0.01898500
v 0.07229100 -0.01681600 0.03012900
v 0.09114200 -0.01968800 0.02601300
v 0.07186200 -0.00221200 0.03408200
v 0.08388200 -0.03237000 0.01114500
v 0.09036500 -0.02446700 0.02184900
v 0.09169000 -0.03281400 0.00450800
v 0.00336100 0.01088200 -0.03650600
v 0.01032100 0.03502900 -0.02344600
v 0.01851400 0.03943300 -0.01677100
v 0.01559400 0.01965100 -0.03360800
v 0.00736300 0.02868300 -0.02901800
v 0.04132300 0.03151100 -0.02386800
v 0.03014800 0.04281200 -0.00212000
v 0.00729800 0.04405300 -0.00877900
v 0.05470900 0.01185300 -0.03457800
v 0.05668300 0.02133700 -0.03044600
v 0.05425500 0.03503300 -0.01677200
v 0.04222200 0.03966900 -0.01012000
v 0.06764200 0.03712300 -0.00415000
v 0.08004500 0.02746600 -0.02197400
v 0.08237400 0.03198500 -0.01440000
v 0.09919400 0.02102000 -0.02562000
v 0.10530500 0.03104400 0.00030900
v -0.00282300 0.03313000 0.02789200
v 0.01899700 0.01779700 0.03496200
v 0.02751000 0.02360900 0.03160500
v -0.00369500 0.03844500 0.02245500
v 0.04585300 0.02882000 0.02557000
v 0.02457000 0.00835300 0.03721300
v 0.02056500 0.03961600 0.01681400
v 0.03397800 0.04177800 0.00688800
v 0.04245500 0.03463200 0.01985900
v 0.06819200 0.01267800 0.03228200
v 0.09048400 0.00644400 0.03188400
v 0.05630900 0.03704600 0.01134600
v 0.09596400 0.02379300 0.02150100
v 0.10059300 0.02727400 0.01590400
v 0.08767600 0.03236200 0.00931500
v 0.10709400 -0.02863300 -0.01284100
v 0.10708000 -0.02861600 -0.01289100
v 0.10099900 -0.00798900 -0.03255500
v 0.10127500 -0.00947400 -0.03200600
v 0.10171300 -0.01659800 -0.02867300
v 0.10172100 -0.01668800 -0.02860000
v 0.10211400 -0.01754000 -0.02786500
v 0.10518700 -0.02521100 -0.01984500
v 0.10383600 -0.02280600 -0.02289900
v 0.10497400 -0.02576600 -0.01907500
v 0.10470400 -0.02596500 -0.01877500
v 0.10424600 -0.02695500 -0.01700200
v 0.10505000 -0.02790900 -0.01490000
v 0.10379400 -0.02204800 -0.02391000
v 0.10390700 -0.02195600 -0.02401500
v 0.10441300 -0.02142300 -0.02459800
v 0.10071900 -0.01406800 -0.02994800
v 0.10109300 -0.01574500 -0.02914300
v 0.10162600 -0.01643100 -0.02877900
v 0.09656600 -0.00917600 0.03068100
v 0.09670700 -0.00995900 0.03043700
v 0.09668200 -0.01096600 0.03002700
v 0.09708400 -0.01498100 0.02778000
v 0.09601800 -0.00729400 0.03105900
v 0.09610900 -0.00179700 0.03214100
v 0.09622500 -0.00155300 0.03217900
v 0.10463600 -0.02985700 0.00915500
v 0.10656300 -0.03043200 0.00554600
v 0.09912800 -0.01957000 0.02509700
v 0.10111900 -0.02328100 0.02153100
v 0.09766700 -0.01706000 0.02677200
v 0.09918300 -0.01853500 0.02597800
v 0.10133900 0.00690100 -0.03290500
v 0.10129300 0.00640200 -0.03299100
v 0.10076400 0.00781400 -0.03257000
v 0.10080600 0.01417100 -0.02992600
v 0.10086900 0.00764500 -0.03263100
v 0.10127500 0.01567500 -0.02926500
v 0.10524800 0.03077200 -0.00341000
v 0.10529300 0.03102300 -0.00000000
v 0.10712900 0.03015900 -0.00725700
v 0.10712900 0.03012000 -0.00777300
v 0.10539400 0.03102100 0.00020400
v 0.10583900 0.02733600 -0.01665500
v 0.10579900 0.02727100 -0.01680300
v 0.10712900 0.02806100 -0.01472600
v 0.10712900 0.02786700 -0.01513300
v 0.10712900 0.02856700 -0.01304000
v 0.10641900 0.02973100 -0.00952300
v 0.10547100 0.03102200 0.00032800
v 0.10544100 0.03100900 0.00042800
v 0.10546000 0.03102400 0.00028600
v 0.09845900 0.01784800 0.02634300
v 0.09840400 0.01765300 0.02648600
v 0.09712600 0.01125700 0.03003500
v 0.09617200 0.00760100 0.03107000
v 0.09690000 0.01092300 0.03014300
v 0.09611900 0.00800900 0.03096900
v 0.10463800 0.03042900 0.00557200
v 0.10504300 0.03004600 0.00796900
v 0.09821700 0.01918800 0.02519700
v 0.09854500 0.01983600 0.02456800
v 0.09660700 0.00624300 0.03152200
v 0.09616100 0.00470400 0.03161400
v 0.09555500 0.00146200 0.03195500
v 0.10261700 0.02971900 0.00962500
v 0.10251200 0.02943700 0.01030000
v 0.10253900 0.02752900 0.01459400
v 0.10302600 0.02985800 0.00915700
v 0.10271400 0.02978300 0.00944300
v 0.10056100 0.02298200 0.02166800
v 0.10280300 0.02700900 0.01584900
v 0.09885600 0.00000000 -0.03350500
v 0.09904900 -0.00054500 -0.03353600
v 0.09892000 0.00085100 -0.03344100
v 0.09985100 -0.00148000 -0.03356900
v 0.10039600 0.00455600 -0.03311100
v 0.10491300 -0.02988100 -0.00899700
v 0.10692400 -0.03063400 -0.00428000
v 0.10663700 -0.03078900 -0.00330500
v 0.10570000 -0.03090100 -0.00259700
v 0.10487600 -0.03091100 -0.00063800
v 0.10089400 -0.00514500 -0.03313000
v 0.10086900 -0.00780500 -0.03260000
v 0.10466200 -0.03092300 -0.00000000
v 0.10534100 -0.03067800 0.00400700
v 0.09662500 -0.01081200 0.03009600
v 0.09603800 -0.00806800 0.03092100
v 0.10225100 -0.02653200 0.01673600
v 0.10232800 -0.02671000 0.01636300
v 0.10141600 -0.02608400 0.01746400
v 0.10320500 -0.02958200 0.01020800
v 0.10391800 -0.02980000 0.00951900
v 0.09906400 -0.01946300 0.02519700
v 0.10060800 -0.02435900 0.02008400
v 0.10080600 -0.02569200 0.01813800
v 0.10126000 0.01573000 -0.02922600
v 0.10197300 0.01762500 -0.02776200
v 0.10158600 0.01710400 -0.02818700
v 0.10712900 0.03002200 -0.00812000
v 0.10630100 0.02986000 -0.00913000
v 0.10531800 0.02641100 -0.01825300
v 0.10657500 0.02453900 -0.02091700
v 0.10539200 0.02701800 -0.01728700
v 0.10392600 0.02107200 -0.02484800
v 0.10367900 0.02206000 -0.02388100
v 0.10457000 0.02023400 -0.02573900
v 0.09801200 0.01720300 0.02674700
v 0.09782300 0.01694700 0.02690500
v 0.10011400 0.02464300 0.01956700
v 0.10045100 0.02562500 0.01817000
v 0.10043600 0.02370800 0.02077700
v -0.01329200 0.03996400 -0.01913000
v -0.01343500 0.03968900 -0.01951000
v -0.01352500 0.03958200 -0.01962500
v -0.01109100 -0.04180500 -0.01599500
v -0.01179200 -0.04100800 -0.01757900
v -0.00946400 -0.04414800 -0.01094500
v -0.01341300 -0.03997400 -0.01899200
v -0.01031200 0.04253600 -0.01466600
v -0.01184300 0.04096600 -0.01765000
v -0.00922300 0.04422700 -0.01094500
v -0.01664400 0.01585400 0.03754300
v -0.01702900 0.01237200 0.03851300
v -0.01367800 0.02519200 0.03388200
v -0.01325600 0.02579600 0.03356600
v -0.01306100 0.02887100 0.03153500
v -0.01373500 0.02442900 0.03424400
v -0.01661700 0.01590200 0.03752800
v -0.00858300 0.03849700 0.02287300
v -0.00862000 0.03868400 0.02263500
v -0.01004000 0.03665800 0.02492400
v -0.01217500 0.02998900 0.03072900
v -0.00960700 0.03401000 0.02763400
v -0.00991600 0.03324000 0.02828400
v -0.01801900 0.00180100 0.03981200
v -0.01724900 0.00416200 0.03972800
v -0.01658700 0.00731900 0.03947700
v -0.01692200 0.01196600 0.03861700
v -0.01776100 -0.00195700 0.03988400
v -0.01741500 -0.00275900 0.03988800
v -0.01672700 -0.00986600 0.03902200
v -0.01707700 -0.01240700 0.03848900
v -0.01684800 -0.00640100 0.03952500
v -0.01620500 -0.01545500 0.03778300
v -0.01618700 -0.01603900 0.03760700
v -0.01577300 -0.01686800 0.03733400
v -0.01374100 -0.02449400 0.03421000
v -0.01396500 -0.02540000 0.03367800
v -0.01370300 -0.02390100 0.03452000
v -0.01319100 -0.02882900 0.03153500
v -0.01150200 -0.03066300 0.03028600
v -0.00910100 -0.03486100 0.02696600
v -0.00905100 -0.03509500 0.02675500
v -0.00922500 -0.03549000 0.02631700
v -0.00999700 -0.03663400 0.02496200
v -0.01010700 -0.03840300 0.02274600
v -0.00415400 0.04629100 -0.00000000
v -0.00465500 0.04598500 -0.00264300
v -0.00647500 0.04529200 -0.00736100
v -0.00844300 0.04482300 -0.00919400
v -0.00528700 0.04410700 0.01335100
v -0.00535700 0.04427700 0.01293100
v -0.00611900 0.04446000 0.01250700
v -0.00540200 0.04408800 0.01340300
v -0.00780000 0.03921700 0.02186500
v -0.00608300 0.04185700 0.01739500
v -0.00653800 0.04459400 0.01213800
v -0.00391700 0.04617600 0.00144800
v -0.00410500 0.04629300 0.00005200
v -0.00413000 0.04550500 0.00748500
v -0.00657000 0.04465100 0.01192200
v -0.00658000 0.04462100 0.01204600
v -0.00881600 0.04447200 -0.01036800
v -0.00709100 -0.04449200 0.01187500
v -0.00703200 -0.04465100 0.01122900
v -0.00717200 -0.04442900 0.01204600
v -0.00711800 -0.04393300 0.01321500
v -0.00523700 -0.04202400 0.01731800
v -0.00633100 -0.04079100 0.01932400
v -0.00854300 -0.04482000 -0.00904100
v -0.00866800 -0.04461600 -0.00987800
v -0.00447700 -0.04624000 -0.00000000
v -0.00345900 -0.04624700 -0.00179500
v -0.00462500 -0.04591400 -0.00352500
v -0.00433700 -0.04617000 0.00087300
v -0.00446100 -0.04549000 0.00713400
v -0.01380500 -0.03940100 -0.01969400
v -0.01359800 -0.03968000 -0.01936900
v -0.01619600 0.03364200 -0.02563400
v -0.01516000 0.03519000 -0.02426300
v -0.02074600 0.02490500 -0.03146400
v -0.02086800 0.02467100 -0.03158900
v -0.01655600 0.03155900 -0.02744000
v -0.01969400 0.02630800 -0.03071200
v -0.02080900 0.02410600 -0.03188300
v -0.02219100 0.01234100 -0.03599400
v -0.02210400 0.01254300 -0.03595900
v -0.02121000 0.01821200 -0.03411000
v -0.02054000 0.02261700 -0.03265800
v -0.02357700 0.00148200 -0.03737300
v -0.02392700 0.00000000 -0.03737100
v -0.02359100 0.00175000 -0.03734200
v -0.02233500 0.00959900 -0.03646800
v -0.02372000 -0.00082700 -0.03737700
v -0.02366900 -0.00162500 -0.03732300
v -0.02225600 -0.01039900 -0.03635100
v -0.02235400 -0.01234100 -0.03590000
v -0.02228400 -0.00742400 -0.03694000
v -0.02048800 -0.01841900 -0.03443700
v -0.02092100 -0.02445200 -0.03167400
v -0.02049000 -0.01802900 -0.03459900
v -0.02090700 -0.02467400 -0.03157200
v -0.02073100 -0.02491800 -0.03146000
v -0.01578100 -0.03332800 -0.02617600
v -0.02009900 -0.02563900 -0.03112600
v -0.01567100 -0.03364200 -0.02593500
v -0.01496700 -0.03448100 -0.02527400
f 2 17 30
f 300 301 302
f 303 305 31
f 2 30 41
f 308 40 307
f 49 63 5
f 7 55 67
f 66 311 310
f 71 313 314
f 66 310 316
f 67 66 71
f 59 317 318
f 71 314 320
f 71 59 56
f 56 67 71
f 67 56 7
f 72 323 324
f 67 74 66
f 323 72 327
f 60 330 329
f 74 72 66
f 74 75 72
f 72 75 60
f 75 63 60
f 67 55 74
f 55 53 74
f 74 53 75
f 53 51 75
f 75 51 63
f 51 5 63
f 60 332 330
f 60 63 77
f 335 337 77
f 336 77 338
f 63 49 77
f 77 49 48
f 48 343 339
f 48 344 343
f 347 80 346
f 350 352 349
f 353 354 59
f 356 80 358
f 81 359 80
f 81 355 360
f 56 59 81
f 40 80 348
f 38 80 40
f 81 80 38
f 38 36 81
f 56 81 36
f 36 7 56
f 44 55 7
f 42 84 44
f 41 85 42
f 44 84 55
f 84 53 55
f 42 85 84
f 85 87 84
f 84 87 53
f 87 51 53
f 41 30 85
f 30 27 85
f 85 27 87
f 27 26 87
f 87 26 51
f 26 5 51
f 34 49 5
f 33 88 34
f 33 31 89
f 49 34 88
f 49 88 48
f 88 33 89
f 88 89 363
f 88 365 48
f 365 366 367
f 305 369 368
f 89 368 372
f 89 373 374
f 36 44 7
f 38 91 36
f 38 40 93
f 36 91 44
f 91 42 44
f 38 93 91
f 93 94 91
f 91 94 42
f 94 41 42
f 93 40 23
f 23 22 93
f 93 22 94
f 22 21 94
f 94 21 41
f 21 2 41
f 26 34 5
f 27 96 26
f 30 97 27
f 26 96 34
f 96 33 34
f 27 97 96
f 97 98 96
f 96 98 33
f 33 98 31
f 30 17 97
f 17 15 97
f 97 15 98
f 98 15 14
f 98 14 31
f 31 14 375
f 23 378 377
f 101 379 380
f 381 382 23
f 23 101 22
f 380 383 101
f 387 386 103
f 22 101 103
f 21 22 103
f 12 388 389
f 390 103 391
f 103 12 10
f 103 10 21
f 10 2 21
f 10 17 2
f 10 12 104
f 392 12 389
f 10 104 17
f 15 17 104
f 396 394 104
f 397 398 104
f 104 107 15
f 15 107 14
f 398 400 107
f 400 401 107
f 107 401 403
f 14 405 375
f 394 126 395
f 398 126 403
f 304 306 376
f 123 371 372
f 122 130 131
f 122 136 126
f 124 129 405
f 133 147 128
f 136 135 124
f 137 129 124
f 134 188 133
f 135 190 191
f 193 139 192
f 139 195 132
f 134 198 199
f 195 134 132
f 139 201 196
f 202 139 203
f 203 139 194
f 205 135 204
f 367 366 141
f 328 331 142
f 329 332 146
f 141 366 362
f 141 341 342
f 334 337 144
f 332 333 334
f 142 329 146
f 140 148 141
f 147 148 140
f 148 143 141
f 153 149 148
f 155 148 147
f 150 144 145
f 144 207 146
f 151 209 150
f 152 212 213
f 155 214 153
f 154 216 151
f 151 218 210
f 155 153 148
f 143 149 154
f 386 156 385
f 381 160 382
f 157 302 301
f 347 361 348
f 346 345 357
f 156 164 130
f 159 165 164
f 160 165 159
f 161 165 160
f 166 169 161
f 180 168 162
f 180 172 168
f 168 167 162
f 157 158 161
f 160 159 387
f 164 221 130
f 222 165 223
f 226 168 227
f 231 232 170
f 170 235 233
f 238 237 172
f 172 237 239
f 170 166 167
f 326 178 174
f 315 316 174
f 317 353 318
f 321 322 173
f 313 173 320
f 173 177 181
f 142 325 324
f 358 180 356
f 358 359 350
f 179 350 349
f 173 181 176
f 354 176 179
f 241 177 175
f 184 172 180
f 181 184 179
f 173 175 177
f 181 187 184
f 245 244 183
f 181 186 187
f 172 187 246
f 185 240 248
f 185 186 181
f 183 251 250
f 183 213 252
f 187 253 257
f 185 249 258
f 186 259 255
f 177 185 181
f 313 312 315
f 172 239 230
f 392 388 125
f 130 138 131
f 138 262 260
f 152 178 142
f 399 126 397
f 396 122 394
f 369 303 123
f 127 303 304
f 125 396 393
f 402 403 124
f 376 405 129
f 372 369 123
f 131 136 122
f 126 136 124
f 125 130 122
f 123 133 128
f 123 134 133
f 127 134 123
f 136 131 138
f 129 137 132
f 137 124 135
f 132 134 127
f 137 139 132
f 135 192 137
f 129 132 127
f 133 265 266
f 133 267 147
f 268 155 267
f 138 270 271
f 263 270 138
f 273 155 272
f 343 367 342
f 374 362 363
f 374 373 140
f 340 145 339
f 144 335 145
f 338 335 336
f 145 341 143
f 148 149 143
f 152 142 146
f 150 145 151
f 145 143 151
f 150 209 274
f 275 152 207
f 153 276 149
f 276 154 149
f 279 153 280
f 151 281 219
f 282 154 283
f 143 154 151
f 125 388 390
f 387 156 386
f 378 160 381
f 307 158 308
f 346 163 347
f 385 391 384
f 156 130 125
f 160 157 161
f 157 301 308
f 361 307 309
f 163 162 167
f 159 164 156
f 161 171 165
f 167 166 158
f 167 158 163
f 158 166 161
f 164 224 220
f 166 170 169
f 286 284 171
f 288 170 229
f 291 289 170
f 293 171 290
f 292 294 171
f 171 294 285
f 169 171 161
f 167 168 170
f 322 320 173
f 323 327 328
f 319 173 176
f 176 181 179
f 178 182 174
f 152 183 178
f 183 182 178
f 182 241 175
f 175 174 182
f 179 184 180
f 182 296 295
f 187 172 184
f 243 183 250
f 298 186 185
f 185 258 299
f 326 325 178
f 349 354 179
f 138 221 264
f 371 140 373
f 128 147 140
f 356 162 357
f 1 200 199
f 3 37 19
f 50 28 4
f 39 29 1
f 3 52 37
f 50 4 58
f 62 6 76
f 8 79 68
f 78 244 245
f 240 295 82
f 78 296 242
f 79 82 78
f 297 70 298
f 70 299 249
f 82 69 70
f 79 69 82
f 79 8 69
f 78 243 251
f 79 78 86
f 83 213 212
f 83 212 211
f 86 78 83
f 86 83 90
f 83 73 90
f 90 73 76
f 79 86 68
f 68 86 65
f 86 90 65
f 65 90 64
f 90 76 64
f 64 76 6
f 73 275 207
f 73 92 76
f 210 73 209
f 92 219 281
f 76 92 62
f 92 61 62
f 92 281 216
f 282 283 61
f 256 246 247
f 95 226 227
f 70 254 255
f 238 246 95
f 257 99 95
f 99 254 70
f 69 99 70
f 95 50 58
f 47 50 95
f 99 47 95
f 47 99 46
f 69 46 99
f 46 69 8
f 57 8 68
f 54 57 100
f 52 54 102
f 57 68 100
f 100 68 65
f 54 100 102
f 102 100 105
f 100 65 105
f 105 65 64
f 52 102 37
f 37 102 35
f 102 105 35
f 35 105 32
f 105 64 32
f 32 64 6
f 6 62 45
f 45 106 43
f 43 108 39
f 62 106 45
f 62 61 106
f 106 108 43
f 106 109 108
f 61 109 106
f 277 61 278
f 108 29 39
f 108 272 269
f 108 273 272
f 214 273 109
f 279 280 109
f 228 226 58
f 231 234 235
f 231 58 4
f 46 8 57
f 47 46 110
f 47 111 50
f 46 57 110
f 110 57 54
f 110 111 47
f 111 110 112
f 110 54 112
f 112 54 52
f 111 28 50
f 111 25 28
f 112 25 111
f 25 112 24
f 112 52 24
f 24 52 3
f 32 6 45
f 35 32 113
f 37 35 114
f 32 45 113
f 113 45 43
f 35 113 114
f 114 113 115
f 113 43 115
f 43 39 115
f 37 114 19
f 19 114 18
f 114 115 18
f 18 115 16
f 115 39 16
f 39 1 16
f 266 29 268
f 200 29 265
f 292 20 285
f 20 290 289
f 289 4 20
f 4 28 20
f 116 286 20
f 117 222 223
f 28 116 20
f 28 25 116
f 116 117 223
f 116 118 117
f 116 25 118
f 118 25 24
f 117 262 264
f 13 262 117
f 118 13 117
f 118 11 13
f 118 24 11
f 11 24 3
f 11 3 19
f 11 119 13
f 261 13 120
f 11 19 119
f 119 19 18
f 13 119 120
f 119 121 120
f 119 18 121
f 16 121 18
f 120 271 270
f 120 204 191
f 121 204 120
f 193 192 206
f 16 9 121
f 1 9 16
f 1 198 9
f 203 194 9
f 195 196 9
f 287 229 228
f 234 233 235
f 302 23 40
f 40 300 302
f 306 304 31
f 304 303 31
f 300 40 308
f 40 309 307
f 71 312 313
f 316 315 66
f 315 312 71
f 66 315 71
f 59 319 317
f 320 322 59
f 322 321 59
f 321 319 59
f 59 71 320
f 325 326 66
f 326 311 66
f 66 72 325
f 325 72 324
f 331 328 72
f 328 327 72
f 72 60 331
f 331 60 329
f 60 333 332
f 337 334 60
f 334 333 60
f 60 77 337
f 77 336 335
f 342 341 340
f 340 339 343
f 339 338 77
f 340 343 342
f 77 48 339
f 348 80 347
f 80 345 346
f 350 351 352
f 354 352 351
f 351 355 354
f 355 59 354
f 59 318 353
f 356 357 345
f 345 80 356
f 80 359 358
f 81 360 359
f 81 59 355
f 348 361 309
f 309 40 348
f 362 364 363
f 364 88 363
f 88 364 365
f 367 344 48
f 48 365 367
f 368 89 31
f 31 305 368
f 371 370 372
f 370 89 372
f 374 363 89
f 89 370 373
f 375 376 306
f 306 31 375
f 23 302 378
f 379 101 382
f 101 23 382
f 23 377 381
f 384 103 385
f 103 101 383
f 385 103 386
f 383 387 103
f 12 390 388
f 12 103 390
f 103 384 391
f 392 393 12
f 394 395 104
f 104 12 393
f 393 396 104
f 107 104 398
f 104 395 399
f 397 104 399
f 403 402 14
f 402 404 14
f 14 107 403
f 14 404 405
f 122 126 394
f 126 399 395
f 401 400 398
f 398 397 126
f 126 124 403
f 403 401 398
f 376 129 304
f 129 127 304
f 123 128 371
f 404 402 405
f 402 124 405
f 134 189 188
f 135 136 190
f 193 194 139
f 139 137 192
f 139 196 195
f 200 189 134
f 134 197 198
f 199 200 134
f 195 197 134
f 139 202 201
f 205 206 135
f 135 191 204
f 329 330 332
f 366 365 362
f 365 364 362
f 362 140 141
f 141 143 341
f 144 146 334
f 146 332 334
f 142 331 329
f 144 208 207
f 151 210 209
f 152 211 212
f 155 215 214
f 154 217 216
f 151 219 218
f 157 378 302
f 347 163 361
f 162 163 357
f 163 346 357
f 387 383 382
f 383 380 379
f 382 383 379
f 382 160 387
f 164 220 221
f 222 224 165
f 165 225 223
f 226 228 229
f 168 172 227
f 172 230 227
f 226 229 168
f 170 233 231
f 233 234 231
f 170 236 235
f 174 316 326
f 316 310 311
f 326 316 311
f 317 176 353
f 320 314 313
f 313 175 173
f 142 178 325
f 359 360 355
f 355 351 359
f 351 350 359
f 350 180 358
f 179 180 350
f 354 353 176
f 241 240 177
f 244 242 183
f 242 182 183
f 183 243 245
f 246 238 172
f 187 247 246
f 248 249 185
f 185 177 240
f 252 251 183
f 183 152 213
f 256 247 187
f 187 186 254
f 186 255 254
f 257 256 187
f 187 254 253
f 315 174 313
f 174 175 313
f 392 389 388
f 261 263 138
f 138 264 262
f 260 261 138
f 369 305 303
f 127 123 303
f 393 392 125
f 125 122 396
f 376 375 405
f 372 368 369
f 135 206 192
f 133 188 265
f 133 266 267
f 268 269 155
f 155 147 267
f 271 190 138
f 190 136 138
f 273 215 155
f 155 269 272
f 344 367 343
f 367 141 342
f 374 140 362
f 144 337 335
f 338 339 335
f 339 145 335
f 145 340 341
f 274 208 150
f 208 144 150
f 275 211 152
f 152 146 207
f 153 277 276
f 276 278 154
f 279 277 153
f 153 214 280
f 151 216 281
f 282 217 154
f 154 278 283
f 390 391 125
f 391 156 125
f 387 159 156
f 381 377 378
f 378 157 160
f 385 156 391
f 300 308 301
f 308 158 157
f 361 163 307
f 163 158 307
f 164 165 224
f 284 225 165
f 165 171 284
f 171 285 286
f 288 236 170
f 170 168 229
f 229 287 288
f 289 290 169
f 169 170 289
f 170 232 291
f 293 292 171
f 171 169 290
f 328 142 324
f 324 323 328
f 176 317 319
f 319 321 173
f 182 295 241
f 182 242 296
f 298 259 186
f 185 299 297
f 297 298 185
f 349 352 354
f 138 130 221
f 373 370 371
f 371 128 140
f 356 180 162
f 1 29 200
f 82 248 240
f 240 241 295
f 295 296 82
f 242 244 78
f 78 82 296
f 70 297 299
f 299 258 249
f 249 248 82
f 82 70 249
f 251 252 83
f 83 78 251
f 78 245 243
f 243 250 251
f 83 252 213
f 211 275 73
f 73 83 211
f 207 208 73
f 208 274 73
f 210 218 92
f 92 73 210
f 73 274 209
f 92 218 219
f 216 217 92
f 217 282 92
f 282 61 92
f 95 58 226
f 255 259 298
f 298 70 255
f 246 256 95
f 256 257 95
f 95 227 238
f 238 227 230
f 230 239 238
f 239 237 238
f 257 253 99
f 99 253 254
f 278 276 277
f 277 279 109
f 109 61 277
f 61 283 278
f 269 268 108
f 268 29 108
f 108 109 273
f 109 280 214
f 214 215 273
f 58 288 228
f 288 287 228
f 235 236 58
f 236 288 58
f 58 231 235
f 4 291 231
f 291 232 231
f 268 267 266
f 266 265 29
f 265 188 200
f 188 189 200
f 292 293 20
f 20 286 285
f 285 294 292
f 20 293 290
f 289 291 4
f 116 284 286
f 225 284 223
f 284 116 223
f 264 221 224
f 221 220 224
f 224 222 264
f 222 117 264
f 13 260 262
f 261 260 13
f 270 263 120
f 263 261 120
f 191 190 271
f 271 120 191
f 121 205 204
f 206 205 193
f 205 121 193
f 121 9 193
f 1 199 198
f 201 202 9
f 202 203 9
f 194 193 9
f 196 201 9
f 9 198 195
f 198 197 195

