# https://github.com/mikedh/trimesh
mtllib material.mtl

o joint_14
usemtl material_0
v -0.00090300 0.00000000 -0.00090300
v -0.00090300 0.00000000 -0.00090300
v -0.00090300 0.00000000 -0.00090300
v -0.00090300 0.00000000 -0.00090300
v -0.00090300 0.00000000 -0.00090300
v -0.00076100 0.00000000 -0.00132800
v -0.00076100 0.00000000 -0.00132800
v -0.00076100 0.00000000 -0.00132800
v -0.00076100 0.00000000 -0.00132800
v -0.00076100 0.00000000 -0.00132800
v -0.00076100 0.00000000 -0.00132800
v -0.00085900 0.00000000 0.00106200
v -0.00085900 0.00000000 0.00106200
v -0.00085900 0.00000000 0.00106200
v -0.00085900 0.00000000 0.00106200
v -0.00085900 0.00000000 0.00106200
v -0.00085900 0.00000000 0.00106200
v -0.00045200 0.00000000 0.00180700
v -0.00045200 0.00000000 0.00180700
v -0.00045200 0.00000000 0.00180700
v -0.00045200 0.00000000 0.00180700
v -0.00045200 0.00000000 0.00180700
v -0.00045200 0.00000000 0.00180700
v -0.00101000 -0.00000000 0.00000000
v -0.00101000 -0.00000000 0.00000000
v -0.00101000 -0.00000000 0.00000000
v -0.00101000 -0.00000000 0.00000000
v -0.00101000 -0.00000000 0.00000000
v -0.00101000 -0.00000000 0.00000000
v -0.00075300 -0.00011100 0.00065900
v -0.00075300 -0.00011100 0.00065900
v -0.00075300 -0.00011100 0.00065900
v -0.00075300 -0.00011100 0.00065900
v -0.00078500 -0.00014400 0.00027400
v -0.00078500 -0.00014400 0.00027400
v -0.00078500 -0.00014400 0.00027400
v -0.00078500 -0.00014400 0.00027400
v -0.00079000 -0.00011000 -0.00012800
v -0.00079000 -0.00011000 -0.00012800
v -0.00079000 -0.00011000 -0.00012800
v -0.00079000 -0.00011000 -0.00012800
v -0.00076800 -0.00012900 0.00099000
v -0.00076800 -0.00012900 0.00099000
v -0.00076800 -0.00012900 0.00099000
v -0.00076800 -0.00012900 0.00099000
v 0.00002100 0.00000000 0.00070200
v 0.00002100 0.00000000 0.00070200
v 0.00002100 0.00000000 0.00070200
v 0.00002100 0.00000000 0.00070200
v -0.00006800 0.00000000 0.00032200
v -0.00006800 0.00000000 0.00032200
v -0.00006800 0.00000000 0.00032200
v -0.00006800 0.00000000 0.00032200
v 0.00013400 0.00000000 -0.00003300
v 0.00013400 0.00000000 -0.00003300
v 0.00013400 0.00000000 -0.00003300
v 0.00013400 0.00000000 -0.00003300
v 0.00068400 0.00000000 0.00120800
v 0.00068400 0.00000000 0.00120800
v 0.00068400 0.00000000 0.00120800
v 0.00068400 0.00000000 0.00120800
v 0.00091200 0.00000000 0.00206400
v 0.00091200 0.00000000 0.00206400
v 0.00091200 0.00000000 0.00206400
v 0.00091200 0.00000000 0.00206400
v -0.00082400 -0.00011700 -0.00053000
v -0.00082400 -0.00011700 -0.00053000
v -0.00082400 -0.00011700 -0.00053000
v -0.00082400 -0.00011700 -0.00053000
v -0.00087900 -0.00011900 -0.00088900
v -0.00087900 -0.00011900 -0.00088900
v -0.00087900 -0.00011900 -0.00088900
v -0.00087900 -0.00011900 -0.00088900
v 0.00053400 0.00000000 -0.00055800
v 0.00053400 0.00000000 -0.00055800
v 0.00053400 0.00000000 -0.00055800
v 0.00053400 0.00000000 -0.00055800
v 0.00080600 0.00000000 -0.00171100
v 0.00080600 0.00000000 -0.00171100
v 0.00080600 0.00000000 -0.00171100
v 0.00080600 0.00000000 -0.00171100
v 0.00111700 0.00000000 0.00188700
v 0.00111700 0.00000000 0.00188700
v 0.00111700 0.00000000 0.00188700
v 0.00111700 0.00000000 0.00188700
v 0.00052000 0.00000000 -0.00188700
v 0.00052000 0.00000000 -0.00188700
v 0.00052000 0.00000000 -0.00188700
v 0.00052000 0.00000000 -0.00188700
v -0.00032300 -0.00011500 0.00167500
v -0.00032300 -0.00011500 0.00167500
v -0.00032300 -0.00011500 0.00167500
v -0.00032300 -0.00011500 0.00167500
v -0.00028500 -0.00009900 0.00140200
v -0.00028500 -0.00009900 0.00140200
v -0.00028500 -0.00009900 0.00140200
v -0.00028500 -0.00009900 0.00140200
v -0.00023800 -0.00010600 0.00110600
v -0.00023800 -0.00010600 0.00110600
v -0.00023800 -0.00010600 0.00110600
v -0.00023800 -0.00010600 0.00110600
v -0.00021400 -0.00010200 0.00074600
v -0.00021400 -0.00010200 0.00074600
v -0.00021400 -0.00010200 0.00074600
v -0.00021400 -0.00010200 0.00074600
v -0.00021400 -0.00010200 0.00074600
v -0.00031500 -0.00011400 0.00029200
v -0.00031500 -0.00011400 0.00029200
v -0.00031500 -0.00011400 0.00029200
v -0.00031500 -0.00011400 0.00029200
v -0.00024500 -0.00008800 -0.00018200
v -0.00024500 -0.00008800 -0.00018200
v -0.00024500 -0.00008800 -0.00018200
v -0.00024500 -0.00008800 -0.00018200
v -0.00024500 -0.00008800 -0.00018200
v -0.00033700 -0.00010100 -0.00062800
v -0.00033700 -0.00010100 -0.00062800
v -0.00033700 -0.00010100 -0.00062800
v -0.00033700 -0.00010100 -0.00062800
v -0.00042300 -0.00007400 -0.00103200
v -0.00042300 -0.00007400 -0.00103200
v -0.00042300 -0.00007400 -0.00103200
v -0.00042300 -0.00007400 -0.00103200
v -0.00048700 -0.00012900 -0.00137500
v -0.00048700 -0.00012900 -0.00137500
v -0.00048700 -0.00012900 -0.00137500
v -0.00048700 -0.00012900 -0.00137500
v -0.00054200 0.00000000 -0.00169800
v -0.00054200 0.00000000 -0.00169800
v -0.00054200 0.00000000 -0.00169800
v -0.00054200 0.00000000 -0.00169800
v 0.00003100 0.00000000 0.00201000
v 0.00003100 0.00000000 0.00201000
v 0.00003100 0.00000000 0.00201000
v 0.00003100 0.00000000 0.00201000
v 0.00009900 -0.00012300 0.00179500
v 0.00009900 -0.00012300 0.00179500
v 0.00009900 -0.00012300 0.00179500
v 0.00009900 -0.00012300 0.00179500
v 0.00009900 -0.00012300 0.00179500
v 0.00018500 -0.00008500 0.00155000
v 0.00018500 -0.00008500 0.00155000
v 0.00018500 -0.00008500 0.00155000
v 0.00018500 -0.00008500 0.00155000
v 0.00029200 -0.00007000 0.00127900
v 0.00029200 -0.00007000 0.00127900
v 0.00029200 -0.00007000 0.00127900
v 0.00029200 -0.00007000 0.00127900
v 0.00029200 -0.00007000 0.00127900
v 0.00017700 -0.00011200 0.00098700
v 0.00017700 -0.00011200 0.00098700
v 0.00017700 -0.00011200 0.00098700
v 0.00040100 0.00000000 0.00099100
v 0.00040100 0.00000000 0.00099100
v 0.00040100 0.00000000 0.00099100
v 0.00040100 0.00000000 0.00099100
v 0.00031600 0.00000000 0.00205100
v 0.00031600 0.00000000 0.00205100
v 0.00031600 0.00000000 0.00205100
v 0.00031600 0.00000000 0.00205100
v 0.00048700 -0.00011200 0.00193200
v 0.00048700 -0.00011200 0.00193200
v 0.00048700 -0.00011200 0.00193200
v 0.00048700 -0.00011200 0.00193200
v 0.00061800 -0.00012300 0.00171900
v 0.00061800 -0.00012300 0.00171900
v 0.00061800 -0.00012300 0.00171900
v 0.00061800 -0.00012300 0.00171900
v 0.00061800 -0.00012300 0.00171900
v 0.00064600 -0.00008600 0.00152800
v 0.00064600 -0.00008600 0.00152800
v 0.00064600 -0.00008600 0.00152800
v 0.00099400 0.00000000 0.00161600
v 0.00099400 0.00000000 0.00161600
v 0.00099400 0.00000000 0.00161600
v 0.00099400 0.00000000 0.00161600
v -0.00014500 0.00000000 -0.00178400
v -0.00014500 0.00000000 -0.00178400
v -0.00014500 0.00000000 -0.00178400
v -0.00014500 0.00000000 -0.00178400
v -0.00010500 -0.00010600 -0.00150200
v -0.00010500 -0.00010600 -0.00150200
v -0.00010500 -0.00010600 -0.00150200
v -0.00010500 -0.00010600 -0.00150200
v -0.00000700 -0.00005700 -0.00118700
v -0.00000700 -0.00005700 -0.00118700
v -0.00000700 -0.00005700 -0.00118700
v -0.00000700 -0.00005700 -0.00118700
v 0.00014000 -0.00007200 -0.00078200
v 0.00014000 -0.00007200 -0.00078200
v 0.00014000 -0.00007200 -0.00078200
v 0.00014000 -0.00007200 -0.00078200
v 0.00014000 -0.00007200 -0.00078200
v 0.00008500 -0.00010500 -0.00042000
v 0.00008500 -0.00010500 -0.00042000
v 0.00008500 -0.00010500 -0.00042000
v 0.00039400 0.00000000 -0.00034300
v 0.00039400 0.00000000 -0.00034300
v 0.00039400 0.00000000 -0.00034300
v 0.00039400 0.00000000 -0.00034300
v 0.00018100 0.00000000 -0.00186500
v 0.00018100 0.00000000 -0.00186500
v 0.00018100 0.00000000 -0.00186500
v 0.00018100 0.00000000 -0.00186500
v 0.00024200 -0.00008200 -0.00168000
v 0.00024200 -0.00008200 -0.00168000
v 0.00024200 -0.00008200 -0.00168000
v 0.00024200 -0.00008200 -0.00168000
v 0.00036800 -0.00009900 -0.00142200
v 0.00036800 -0.00009900 -0.00142200
v 0.00036800 -0.00009900 -0.00142200
v 0.00036800 -0.00009900 -0.00142200
v 0.00036800 -0.00009900 -0.00142200
v 0.00043400 -0.00005800 -0.00112900
v 0.00043400 -0.00005800 -0.00112900
v 0.00043400 -0.00005800 -0.00112900
v 0.00079400 0.00000000 -0.00117400
v 0.00079400 0.00000000 -0.00117400
v 0.00079400 0.00000000 -0.00117400
v 0.00079400 0.00000000 -0.00117400
v -0.00078500 0.00014400 0.00027400
v -0.00078500 0.00014400 0.00027400
v -0.00078500 0.00014400 0.00027400
v -0.00078500 0.00014400 0.00027400
v -0.00075300 0.00011100 0.00065900
v -0.00075300 0.00011100 0.00065900
v -0.00075300 0.00011100 0.00065900
v -0.00075300 0.00011100 0.00065900
v -0.00079000 0.00011000 -0.00012800
v -0.00079000 0.00011000 -0.00012800
v -0.00079000 0.00011000 -0.00012800
v -0.00079000 0.00011000 -0.00012800
v -0.00076800 0.00012900 0.00099000
v -0.00076800 0.00012900 0.00099000
v -0.00076800 0.00012900 0.00099000
v -0.00076800 0.00012900 0.00099000
v -0.00021400 0.00010200 0.00074600
v -0.00021400 0.00010200 0.00074600
v -0.00021400 0.00010200 0.00074600
v -0.00021400 0.00010200 0.00074600
v -0.00021400 0.00010200 0.00074600
v -0.00031500 0.00011400 0.00029200
v -0.00031500 0.00011400 0.00029200
v -0.00031500 0.00011400 0.00029200
v -0.00031500 0.00011400 0.00029200
v -0.00024500 0.00008800 -0.00018200
v -0.00024500 0.00008800 -0.00018200
v -0.00024500 0.00008800 -0.00018200
v -0.00024500 0.00008800 -0.00018200
v -0.00024500 0.00008800 -0.00018200
v 0.00048700 0.00011200 0.00193200
v 0.00048700 0.00011200 0.00193200
v 0.00048700 0.00011200 0.00193200
v 0.00048700 0.00011200 0.00193200
v 0.00061800 0.00012300 0.00171900
v 0.00061800 0.00012300 0.00171900
v 0.00061800 0.00012300 0.00171900
v 0.00061800 0.00012300 0.00171900
v 0.00061800 0.00012300 0.00171900
v 0.00029200 0.00007000 0.00127900
v 0.00029200 0.00007000 0.00127900
v 0.00029200 0.00007000 0.00127900
v 0.00029200 0.00007000 0.00127900
v 0.00029200 0.00007000 0.00127900
v 0.00017700 0.00011200 0.00098700
v 0.00017700 0.00011200 0.00098700
v 0.00017700 0.00011200 0.00098700
v -0.00082400 0.00011700 -0.00053000
v -0.00082400 0.00011700 -0.00053000
v -0.00082400 0.00011700 -0.00053000
v -0.00082400 0.00011700 -0.00053000
v -0.00087900 0.00011900 -0.00088900
v -0.00087900 0.00011900 -0.00088900
v -0.00087900 0.00011900 -0.00088900
v -0.00087900 0.00011900 -0.00088900
v -0.00048700 0.00012900 -0.00137500
v -0.00048700 0.00012900 -0.00137500
v -0.00048700 0.00012900 -0.00137500
v -0.00048700 0.00012900 -0.00137500
v -0.00010500 0.00010600 -0.00150200
v -0.00010500 0.00010600 -0.00150200
v -0.00010500 0.00010600 -0.00150200
v -0.00010500 0.00010600 -0.00150200
v -0.00010500 0.00010600 -0.00150200
v -0.00042300 0.00007400 -0.00103200
v -0.00042300 0.00007400 -0.00103200
v -0.00042300 0.00007400 -0.00103200
v -0.00042300 0.00007400 -0.00103200
v -0.00000700 0.00005700 -0.00118700
v -0.00000700 0.00005700 -0.00118700
v -0.00000700 0.00005700 -0.00118700
v -0.00000700 0.00005700 -0.00118700
v 0.00014000 0.00007200 -0.00078200
v 0.00014000 0.00007200 -0.00078200
v 0.00014000 0.00007200 -0.00078200
v 0.00014000 0.00007200 -0.00078200
v 0.00014000 0.00007200 -0.00078200
v 0.00008500 0.00010500 -0.00042000
v 0.00008500 0.00010500 -0.00042000
v 0.00008500 0.00010500 -0.00042000
v -0.00033700 0.00010100 -0.00062800
v -0.00033700 0.00010100 -0.00062800
v -0.00033700 0.00010100 -0.00062800
v -0.00033700 0.00010100 -0.00062800
v 0.00064600 0.00008600 0.00152800
v 0.00064600 0.00008600 0.00152800
v 0.00064600 0.00008600 0.00152800
v -0.00032300 0.00011500 0.00167500
v -0.00032300 0.00011500 0.00167500
v -0.00032300 0.00011500 0.00167500
v -0.00032300 0.00011500 0.00167500
v -0.00028500 0.00009900 0.00140200
v -0.00028500 0.00009900 0.00140200
v -0.00028500 0.00009900 0.00140200
v -0.00028500 0.00009900 0.00140200
v -0.00023800 0.00010600 0.00110600
v -0.00023800 0.00010600 0.00110600
v -0.00023800 0.00010600 0.00110600
v -0.00023800 0.00010600 0.00110600
v 0.00009900 0.00012300 0.00179500
v 0.00009900 0.00012300 0.00179500
v 0.00009900 0.00012300 0.00179500
v 0.00009900 0.00012300 0.00179500
v 0.00009900 0.00012300 0.00179500
v 0.00018500 0.00008500 0.00155000
v 0.00018500 0.00008500 0.00155000
v 0.00018500 0.00008500 0.00155000
v 0.00018500 0.00008500 0.00155000
v 0.00024200 0.00008200 -0.00168000
v 0.00024200 0.00008200 -0.00168000
v 0.00024200 0.00008200 -0.00168000
v 0.00024200 0.00008200 -0.00168000
v 0.00036800 0.00009900 -0.00142200
v 0.00036800 0.00009900 -0.00142200
v 0.00036800 0.00009900 -0.00142200
v 0.00036800 0.00009900 -0.00142200
v 0.00036800 0.00009900 -0.00142200
v 0.00043400 0.00005800 -0.00112900
v 0.00043400 0.00005800 -0.00112900
v 0.00043400 0.00005800 -0.00112900
v 0.00066100 0.00000000 0.00213200
v 0.00066100 0.00000000 0.00213200
v 0.00066100 0.00000000 0.00213200
v 0.00066100 0.00000000 0.00213200
v 0.00034900 0.00000000 -0.00190800
v 0.00034900 0.00000000 -0.00190800
v 0.00034900 0.00000000 -0.00190800
v 0.00034900 0.00000000 -0.00190800
v 0.00040800 -0.00006000 0.00198700
v 0.00040800 -0.00006000 0.00198700
v 0.00040800 -0.00006000 0.00198700
v 0.00040800 -0.00006000 0.00198700
v 0.00061400 -0.00004100 0.00205300
v 0.00061400 -0.00004100 0.00205300
v 0.00061400 -0.00004100 0.00205300
v 0.00066900 -0.00006400 0.00198800
v 0.00066900 -0.00006400 0.00198800
v 0.00066900 -0.00006400 0.00198800
v 0.00066900 -0.00006400 0.00198800
v 0.00018600 0.00000000 0.00203200
v 0.00018600 0.00000000 0.00203200
v 0.00018600 0.00000000 0.00203200
v 0.00018600 0.00000000 0.00203200
v 0.00022600 -0.00005800 0.00193500
v 0.00022600 -0.00005800 0.00193500
v 0.00022600 -0.00005800 0.00193500
v 0.00072800 -0.00007400 0.00187400
v 0.00072800 -0.00007400 0.00187400
v 0.00072800 -0.00007400 0.00187400
v 0.00101300 0.00000000 0.00197700
v 0.00101300 0.00000000 0.00197700
v 0.00101300 0.00000000 0.00197700
v 0.00101300 0.00000000 0.00197700
v 0.00040800 0.00006000 0.00198700
v 0.00040800 0.00006000 0.00198700
v 0.00040800 0.00006000 0.00198700
v 0.00040800 0.00006000 0.00198700
v 0.00060600 0.00004800 0.00204100
v 0.00060600 0.00004800 0.00204100
v 0.00060600 0.00004800 0.00204100
v 0.00067000 0.00006400 0.00198800
v 0.00067000 0.00006400 0.00198800
v 0.00067000 0.00006400 0.00198800
v 0.00067000 0.00006400 0.00198800
v 0.00073200 0.00006700 0.00189700
v 0.00073200 0.00006700 0.00189700
v 0.00073200 0.00006700 0.00189700
v 0.00024400 0.00005500 0.00194300
v 0.00024400 0.00005500 0.00194300
v 0.00024400 0.00005500 0.00194300
v 0.00020600 -0.00003400 -0.00178900
v 0.00020600 -0.00003400 -0.00178900
v 0.00020600 -0.00003400 -0.00178900
v 0.00020600 -0.00003400 -0.00178900
v 0.00030600 -0.00002900 -0.00182500
v 0.00030600 -0.00002900 -0.00182500
v 0.00030600 -0.00002900 -0.00182500
v 0.00004000 -0.00003800 -0.00173700
v 0.00004000 -0.00003800 -0.00173700
v 0.00002700 0.00000000 -0.00182700
v 0.00002700 0.00000000 -0.00182700
v 0.00002700 0.00000000 -0.00182700
v 0.00002700 0.00000000 -0.00182700
v 0.00038000 -0.00004100 -0.00178300
v 0.00038000 -0.00004100 -0.00178300
v 0.00038000 -0.00004100 -0.00178300
v 0.00038000 -0.00004100 -0.00178300
v 0.00047600 -0.00004100 -0.00168200
v 0.00047600 -0.00004100 -0.00168200
v 0.00047600 -0.00004100 -0.00168200
v 0.00064800 0.00000000 -0.00180800
v 0.00064800 0.00000000 -0.00180800
v 0.00064800 0.00000000 -0.00180800
v 0.00064800 0.00000000 -0.00180800
v 0.00039200 0.00003800 -0.00179200
v 0.00039200 0.00003800 -0.00179200
v 0.00039200 0.00003800 -0.00179200
v 0.00039200 0.00003800 -0.00179200
v 0.00032900 0.00002900 -0.00182400
v 0.00032900 0.00002900 -0.00182400
v 0.00032900 0.00002900 -0.00182400
v 0.00047600 0.00004200 -0.00168100
v 0.00047600 0.00004200 -0.00168100
v 0.00047600 0.00004200 -0.00168100
v 0.00020800 0.00003700 -0.00178200
v 0.00020800 0.00003700 -0.00178200
v 0.00020800 0.00003700 -0.00178200
v 0.00020800 0.00003700 -0.00178200
v 0.00003700 0.00004000 -0.00172300
v 0.00003700 0.00004000 -0.00172300
v 0.00003700 0.00004000 -0.00172300
v -0.00095700 -0.00012800 -0.00056500
v -0.00095700 -0.00012800 -0.00056500
v -0.00095700 -0.00012800 -0.00056500
v -0.00088100 -0.00012000 -0.00091500
v -0.00088100 -0.00012000 -0.00091500
v -0.00088100 -0.00012000 -0.00091500
v -0.00088700 -0.00012000 -0.00088700
v -0.00088700 -0.00012000 -0.00088700
v -0.00088700 -0.00012000 -0.00088700
v -0.00088900 -0.00012000 -0.00088000
v -0.00088900 -0.00012000 -0.00088000
v -0.00087100 -0.00012100 -0.00095900
v -0.00087100 -0.00012100 -0.00095900
v -0.00087100 -0.00012100 -0.00095900
v -0.00096600 -0.00012900 -0.00050800
v -0.00096600 -0.00012900 -0.00050800
v -0.00096600 -0.00012900 -0.00050800
v -0.00096600 -0.00012900 -0.00050700
v -0.00096600 -0.00012900 -0.00050700
v -0.00096600 -0.00012900 -0.00050700
v -0.00096600 0.00012900 -0.00050700
v -0.00096600 0.00012900 -0.00050700
v -0.00096600 0.00012900 -0.00050700
v -0.00096600 0.00012900 -0.00050800
v -0.00096600 0.00012900 -0.00050800
v -0.00096600 0.00012900 -0.00050800
v -0.00095700 0.00012800 -0.00056500
v -0.00095700 0.00012800 -0.00056500
v -0.00095700 0.00012800 -0.00056500
v -0.00008700 0.00000000 0.00199300
v -0.00008700 0.00000000 0.00199300
v -0.00008700 0.00000000 0.00199300
v -0.00020500 -0.00001100 0.00195500
v -0.00020500 -0.00001100 0.00195500
v -0.00020500 -0.00001100 0.00195500
v -0.00020500 0.00001100 0.00195500
v -0.00020500 0.00001100 0.00195500
v -0.00020500 0.00001100 0.00195500
v -0.00039100 0.00003700 0.00184300
v -0.00039100 0.00003700 0.00184300
v -0.00039100 0.00003700 0.00184300
v -0.00044800 0.00005000 0.00179300
v -0.00044800 0.00005000 0.00179300
v -0.00044800 0.00005000 0.00179300
v -0.00031200 -0.00002800 0.00189100
v -0.00031200 -0.00002800 0.00189100
v -0.00031200 -0.00002800 0.00189100
v -0.00031200 0.00002800 0.00189100
v -0.00031200 0.00002800 0.00189100
v -0.00031200 0.00002800 0.00189100
v -0.00039100 -0.00003700 0.00184300
v -0.00039100 -0.00003700 0.00184300
v -0.00039100 -0.00003700 0.00184300
v -0.00024200 -0.00002000 0.00193300
v -0.00024200 -0.00002000 0.00193300
v -0.00024200 0.00002000 0.00193300
v -0.00024200 0.00002000 0.00193300
v -0.00044800 -0.00005000 0.00179300
v -0.00044800 -0.00005000 0.00179300
v -0.00044800 -0.00005000 0.00179300
v -0.00062000 0.00012300 0.00154900
v -0.00062000 0.00012300 0.00154900
v -0.00062000 0.00012300 0.00154900
v -0.00058000 0.00012300 0.00159900
v -0.00058000 0.00012300 0.00159900
v -0.00058000 0.00012300 0.00159900
v -0.00050500 0.00007600 0.00171100
v -0.00050500 0.00007600 0.00171100
v -0.00062000 -0.00012300 0.00154900
v -0.00062000 -0.00012300 0.00154900
v -0.00062000 -0.00012300 0.00154900
v -0.00065900 -0.00012100 0.00149000
v -0.00065900 -0.00012100 0.00149000
v -0.00065900 0.00012100 0.00149000
v -0.00065900 0.00012100 0.00149000
v -0.00067800 -0.00012500 0.00146200
v -0.00067800 -0.00012500 0.00146200
v -0.00067800 -0.00012500 0.00146200
v -0.00067800 0.00012500 0.00146200
v -0.00067800 0.00012500 0.00146200
v -0.00067800 0.00012500 0.00146200
v -0.00058000 -0.00012300 0.00159900
v -0.00058000 -0.00012300 0.00159900
v -0.00058000 -0.00012300 0.00159900
v -0.00050500 -0.00007600 0.00171100
v -0.00050500 -0.00007600 0.00171100
v -0.00084100 0.00014000 0.00104000
v -0.00084100 0.00014000 0.00104000
v -0.00084100 0.00014000 0.00104000
v -0.00078400 0.00014200 0.00119200
v -0.00078400 0.00014200 0.00119200
v -0.00078400 0.00014200 0.00119200
v -0.00075600 0.00014400 0.00126400
v -0.00075600 0.00014400 0.00126400
v -0.00074800 0.00014300 0.00128500
v -0.00074800 0.00014300 0.00128500
v -0.00074800 0.00014300 0.00128500
v -0.00071200 0.00013300 0.00138600
v -0.00071200 0.00013300 0.00138600
v -0.00071200 0.00013300 0.00138600
v -0.00071200 -0.00013300 0.00138600
v -0.00071200 -0.00013300 0.00138600
v -0.00071200 -0.00013300 0.00138600
v -0.00075600 -0.00014400 0.00126400
v -0.00075600 -0.00014400 0.00126400
v -0.00074800 -0.00014300 0.00128500
v -0.00074800 -0.00014300 0.00128500
v -0.00074800 -0.00014300 0.00128500
v -0.00078400 -0.00014200 0.00119200
v -0.00078400 -0.00014200 0.00119200
v -0.00078400 -0.00014200 0.00119200
v -0.00084100 -0.00014000 0.00104000
v -0.00084100 -0.00014000 0.00104000
v -0.00084100 -0.00014000 0.00104000
v -0.00098600 0.00012500 -0.00011300
v -0.00098600 0.00012500 -0.00011300
v -0.00098600 0.00012500 -0.00011300
v -0.00099000 0.00012600 0.00000000
v -0.00099000 0.00012600 0.00000000
v -0.00099000 0.00012600 0.00000000
v -0.00097200 0.00012800 -0.00043700
v -0.00097200 0.00012800 -0.00043700
v -0.00097200 0.00012800 -0.00043700
v -0.00093400 0.00012600 0.00067400
v -0.00093400 0.00012600 0.00067400
v -0.00093400 0.00012600 0.00067400
v -0.00091900 0.00013300 0.00073200
v -0.00091900 0.00013300 0.00073200
v -0.00085700 0.00013800 0.00097600
v -0.00085700 0.00013800 0.00097600
v -0.00085700 0.00013800 0.00097600
v -0.00098900 0.00012600 0.00001700
v -0.00098900 0.00012600 0.00001700
v -0.00096800 0.00014400 0.00038700
v -0.00096800 0.00014400 0.00038700
v -0.00097300 0.00014700 0.00027100
v -0.00097300 0.00014700 0.00027100
v -0.00097300 0.00014700 0.00027100
v -0.00096500 0.00013800 0.00046800
v -0.00096500 0.00013800 0.00046800
v -0.00096500 0.00013800 0.00046800
v -0.00096500 -0.00013800 0.00046800
v -0.00096500 -0.00013800 0.00046800
v -0.00096500 -0.00013800 0.00046800
v -0.00095700 -0.00013000 0.00055800
v -0.00095700 -0.00013000 0.00055800
v -0.00095700 -0.00013000 0.00055800
v -0.00095700 0.00013000 0.00055800
v -0.00095700 0.00013000 0.00055800
v -0.00095700 0.00013000 0.00055800
v -0.00094100 -0.00012200 0.00064000
v -0.00094100 -0.00012200 0.00064000
v -0.00094100 -0.00012200 0.00064000
v -0.00093400 -0.00012600 0.00067400
v -0.00093400 -0.00012600 0.00067400
v -0.00093400 -0.00012600 0.00067400
v -0.00094100 0.00012200 0.00064000
v -0.00094100 0.00012200 0.00064000
v -0.00094100 0.00012200 0.00064000
v -0.00091900 -0.00013300 0.00073200
v -0.00091900 -0.00013300 0.00073200
v -0.00085700 -0.00013800 0.00097600
v -0.00085700 -0.00013800 0.00097600
v -0.00085700 -0.00013800 0.00097600
v -0.00097200 -0.00012800 -0.00043700
v -0.00097200 -0.00012800 -0.00043700
v -0.00097200 -0.00012800 -0.00043700
v -0.00098600 -0.00012500 -0.00011300
v -0.00098600 -0.00012500 -0.00011300
v -0.00098600 -0.00012500 -0.00011300
v -0.00099000 -0.00012600 0.00000000
v -0.00099000 -0.00012600 0.00000000
v -0.00099000 -0.00012600 0.00000000
v -0.00097300 -0.00014700 0.00027100
v -0.00097300 -0.00014700 0.00027100
v -0.00097300 -0.00014700 0.00027100
v -0.00096800 -0.00014400 0.00038700
v -0.00096800 -0.00014400 0.00038700
v -0.00098900 -0.00012600 0.00001700
v -0.00098900 -0.00012600 0.00001700
v -0.00088100 0.00012000 -0.00091500
v -0.00088100 0.00012000 -0.00091500
v -0.00088100 0.00012000 -0.00091500
v -0.00088700 0.00012000 -0.00088700
v -0.00088700 0.00012000 -0.00088700
v -0.00088700 0.00012000 -0.00088700
v -0.00088900 0.00012000 -0.00088000
v -0.00088900 0.00012000 -0.00088000
v -0.00087100 0.00012100 -0.00095900
v -0.00087100 0.00012100 -0.00095900
v -0.00087100 0.00012100 -0.00095900
v -0.00054300 0.00000000 -0.00169700
v -0.00054300 0.00000000 -0.00169700
v -0.00054300 0.00000000 -0.00169700
v -0.00054300 0.00000000 -0.00169700
v -0.00054500 0.00000100 -0.00169500
v -0.00054500 0.00000100 -0.00169500
v -0.00071900 0.00009600 -0.00137700
v -0.00071900 0.00009600 -0.00137700
v -0.00071900 0.00009600 -0.00137700
v -0.00075400 0.00013000 -0.00127500
v -0.00075400 0.00013000 -0.00127500
v -0.00075400 0.00013000 -0.00127500
v -0.00080200 0.00012700 -0.00116400
v -0.00080200 0.00012700 -0.00116400
v -0.00080200 0.00012700 -0.00116400
v -0.00080200 -0.00012700 -0.00116400
v -0.00080200 -0.00012700 -0.00116400
v -0.00080200 -0.00012700 -0.00116400
v -0.00054500 -0.00000100 -0.00169500
v -0.00054500 -0.00000100 -0.00169500
v -0.00071900 -0.00009600 -0.00137700
v -0.00071900 -0.00009600 -0.00137700
v -0.00071900 -0.00009600 -0.00137700
v -0.00075400 -0.00013000 -0.00127500
v -0.00075400 -0.00013000 -0.00127500
v -0.00075400 -0.00013000 -0.00127500
vt 0.00000000 0.00000000
vt 0.00000000 0.00000000
vt 0.00000000 0.00000000
vt 0.00000000 0.00000000
vt 0.00000000 0.00000000
vt 0.00000000 0.00000000
vt 0.00000000 0.00000000
vt 0.00000000 0.00000000
vt 0.00000000 0.00000000
vt 0.00000000 0.00000000
vt 0.00000000 0.00000000
vt 0.00000000 0.00000000
vt 0.00000000 0.00000000
vt 0.00000000 0.00000000
vt 0.00000000 0.00000000
vt 0.00000000 0.00000000
vt 0.00000000 0.00000000
vt 0.00000000 0.00000000
vt 0.00000000 0.00000000
vt 0.00000000 0.00000000
vt 0.00000000 0.00000000
vt 0.00000000 0.00000000
vt 0.00000000 0.00000000
vt 0.00000000 0.00000000
vt 0.00000000 0.00000000
vt 0.00000000 0.00000000
vt 0.00000000 0.00000000
vt 0.00000000 0.00000000
vt 0.00000000 0.00000000
vt 0.16110100 0.27750200
vt 0.16110100 0.27750200
vt 0.16110100 0.27750200
vt 0.16110100 0.27750200
vt 0.14972800 0.29769400
vt 0.14972800 0.29769400
vt 0.14972800 0.29769400
vt 0.14972800 0.29769400
vt 0.13595900 0.31759400
vt 0.13595900 0.31759400
vt 0.13595900 0.31759400
vt 0.13595900 0.31759400
vt 0.17269600 0.26173500
vt 0.17269600 0.26173500
vt 0.17269600 0.26173500
vt 0.17269600 0.26173500
vt 0.12384500 0.24913400
vt 0.12384500 0.24913400
vt 0.22316500 0.14543300
vt 0.22316500 0.14543300
vt 0.24366400 0.13586300
vt 0.11517000 0.27008400
vt 0.24366400 0.13586300
vt 0.11517000 0.27008400
vt 0.25326600 0.11374100
vt 0.09348700 0.28068600
vt 0.25326600 0.11374100
vt 0.09348700 0.28068600
vt 0.11415800 0.20325200
vt 0.11415800 0.20325200
vt 0.17695200 0.13773200
vt 0.17695200 0.13773200
vt 0.13829700 0.16351300
vt 0.13829700 0.16351300
vt 0.13829700 0.16351300
vt 0.13829700 0.16351300
vt 0.12375400 0.33849800
vt 0.12375400 0.33849800
vt 0.12375400 0.33849800
vt 0.12375400 0.33849800
vt 0.11398500 0.35798200
vt 0.11398500 0.35798200
vt 0.11398500 0.35798200
vt 0.11398500 0.35798200
vt 0.05622500 0.29296000
vt 0.05622500 0.29296000
vt 0.26389300 0.07598300
vt 0.26389300 0.07598300
vt 0.00355400 0.33990000
vt 0.30850900 0.02146200
vt 0.00355400 0.33990000
vt 0.30850900 0.02146200
vt 0.13628700 0.14972300
vt 0.12442000 0.16207600
vt 0.12442000 0.16207600
vt 0.13628700 0.14972300
vt 0.32723600 0.02825900
vt 0.01114200 0.35838100
vt 0.32723600 0.02825900
vt 0.01114200 0.35838100
vt 0.17189500 0.21624200
vt 0.17189500 0.21624200
vt 0.17189500 0.21624200
vt 0.17189500 0.21624200
vt 0.16234500 0.22729400
vt 0.16234500 0.22729400
vt 0.16234500 0.22729400
vt 0.16234500 0.22729400
vt 0.15104400 0.23923900
vt 0.15104400 0.23923900
vt 0.15104400 0.23923900
vt 0.15104400 0.23923900
vt 0.13779700 0.25516500
vt 0.13779700 0.25516500
vt 0.13779700 0.25516500
vt 0.13779700 0.25516500
vt 0.13779700 0.25516500
vt 0.12733900 0.28073700
vt 0.12733900 0.28073700
vt 0.12733900 0.28073700
vt 0.12733900 0.28073700
vt 0.10735500 0.30133700
vt 0.10735500 0.30133700
vt 0.10735500 0.30133700
vt 0.10735500 0.30133700
vt 0.10735500 0.30133700
vt 0.09656200 0.32648300
vt 0.09656200 0.32648300
vt 0.09656200 0.32648300
vt 0.09656200 0.32648300
vt 0.08672000 0.34909400
vt 0.08672000 0.34909400
vt 0.08672000 0.34909400
vt 0.08672000 0.34909400
vt 0.07808000 0.36814300
vt 0.07808000 0.36814300
vt 0.07808000 0.36814300
vt 0.07808000 0.36814300
vt 0.06899300 0.38691600
vt 0.06899300 0.38691600
vt 0.35813200 0.08460900
vt 0.35813200 0.08460900
vt 0.16734600 0.19135500
vt 0.16734600 0.19135500
vt 0.16734600 0.19135500
vt 0.16734600 0.19135500
vt 0.15743200 0.19915900
vt 0.15743200 0.19915900
vt 0.15743200 0.19915900
vt 0.15743200 0.19915900
vt 0.15743200 0.19915900
vt 0.14651100 0.20659500
vt 0.14651100 0.20659500
vt 0.14651100 0.20659500
vt 0.14651100 0.20659500
vt 0.13324000 0.21439000
vt 0.13324000 0.21439000
vt 0.13324000 0.21439000
vt 0.13324000 0.21439000
vt 0.13324000 0.21439000
vt 0.12903200 0.23082500
vt 0.12903200 0.23082500
vt 0.12903200 0.23082500
vt 0.19666800 0.14060700
vt 0.19666800 0.14060700
vt 0.11788200 0.22283600
vt 0.11788200 0.22283600
vt 0.15737200 0.18180100
vt 0.15737200 0.18180100
vt 0.15737200 0.18180100
vt 0.15737200 0.18180100
vt 0.14645900 0.18316300
vt 0.14645900 0.18316300
vt 0.14645900 0.18316300
vt 0.14645900 0.18316300
vt 0.13550300 0.18631600
vt 0.13550300 0.18631600
vt 0.13550300 0.18631600
vt 0.13550300 0.18631600
vt 0.13550300 0.18631600
vt 0.12798300 0.19227400
vt 0.12798300 0.19227400
vt 0.12798300 0.19227400
vt 0.11797800 0.17594500
vt 0.11797800 0.17594500
vt 0.14986000 0.14271200
vt 0.14986000 0.14271200
vt 0.04681800 0.37722400
vt 0.34750000 0.06296700
vt 0.04681800 0.37722400
vt 0.34750000 0.06296700
vt 0.05518900 0.36120000
vt 0.05518900 0.36120000
vt 0.05518900 0.36120000
vt 0.05518900 0.36120000
vt 0.06127700 0.34230400
vt 0.06127700 0.34230400
vt 0.06127700 0.34230400
vt 0.06127700 0.34230400
vt 0.06797800 0.31765400
vt 0.06797800 0.31765400
vt 0.06797800 0.31765400
vt 0.06797800 0.31765400
vt 0.06797800 0.31765400
vt 0.08315000 0.30211800
vt 0.08315000 0.30211800
vt 0.08315000 0.30211800
vt 0.25859700 0.09029800
vt 0.07030100 0.28705100
vt 0.07030100 0.28705100
vt 0.25859700 0.09029800
vt 0.02823000 0.36968300
vt 0.02823000 0.36968300
vt 0.33919500 0.04479700
vt 0.33919500 0.04479700
vt 0.03228400 0.35783200
vt 0.03228400 0.35783200
vt 0.03228400 0.35783200
vt 0.03228400 0.35783200
vt 0.03509700 0.34113200
vt 0.03509700 0.34113200
vt 0.03509700 0.34113200
vt 0.03509700 0.34113200
vt 0.03509700 0.34113200
vt 0.04176900 0.32452400
vt 0.04176900 0.32452400
vt 0.04176900 0.32452400
vt 0.02253700 0.31420700
vt 0.28367800 0.04145800
vt 0.28367800 0.04145800
vt 0.02253700 0.31420700
vt 0.27275000 0.16911500
vt 0.27275000 0.16911500
vt 0.27275000 0.16911500
vt 0.27275000 0.16911500
vt 0.25310000 0.18136200
vt 0.25310000 0.18136200
vt 0.25310000 0.18136200
vt 0.25310000 0.18136200
vt 0.29199600 0.15448400
vt 0.29199600 0.15448400
vt 0.29199600 0.15448400
vt 0.29199600 0.15448400
vt 0.23787300 0.19363100
vt 0.23787300 0.19363100
vt 0.23787300 0.19363100
vt 0.23787300 0.19363100
vt 0.22978600 0.15908800
vt 0.22978600 0.15908800
vt 0.22978600 0.15908800
vt 0.22978600 0.15908800
vt 0.22978600 0.15908800
vt 0.25483400 0.14752700
vt 0.25483400 0.14752700
vt 0.25483400 0.14752700
vt 0.25483400 0.14752700
vt 0.27449900 0.12666400
vt 0.27449900 0.12666400
vt 0.27449900 0.12666400
vt 0.27449900 0.12666400
vt 0.27449900 0.12666400
vt 0.15827100 0.17084300
vt 0.15827100 0.17084300
vt 0.15827100 0.17084300
vt 0.15827100 0.17084300
vt 0.16095500 0.15976700
vt 0.16095500 0.15976700
vt 0.16095500 0.15976700
vt 0.16095500 0.15976700
vt 0.16095500 0.15976700
vt 0.18889200 0.15630200
vt 0.18889200 0.15630200
vt 0.18889200 0.15630200
vt 0.18889200 0.15630200
vt 0.18889200 0.15630200
vt 0.20511900 0.15139400
vt 0.20511900 0.15139400
vt 0.20511900 0.15139400
vt 0.31231100 0.14136900
vt 0.31231100 0.14136900
vt 0.31231100 0.14136900
vt 0.31231100 0.14136900
vt 0.33131000 0.13074900
vt 0.33131000 0.13074900
vt 0.33131000 0.13074900
vt 0.33131000 0.13074900
vt 0.33983700 0.09449900
vt 0.33983700 0.09449900
vt 0.33983700 0.09449900
vt 0.33983700 0.09449900
vt 0.33191200 0.07200300
vt 0.33191200 0.07200300
vt 0.33191200 0.07200300
vt 0.33191200 0.07200300
vt 0.33191200 0.07200300
vt 0.32123200 0.10395800
vt 0.32123200 0.10395800
vt 0.32123200 0.10395800
vt 0.32123200 0.10395800
vt 0.31334700 0.07889200
vt 0.31334700 0.07889200
vt 0.31334700 0.07889200
vt 0.31334700 0.07889200
vt 0.28905000 0.08665000
vt 0.28905000 0.08665000
vt 0.28905000 0.08665000
vt 0.28905000 0.08665000
vt 0.28905000 0.08665000
vt 0.27420600 0.10247000
vt 0.27420600 0.10247000
vt 0.27420600 0.10247000
vt 0.29911300 0.11477600
vt 0.29911300 0.11477600
vt 0.29911300 0.11477600
vt 0.29911300 0.11477600
vt 0.16658500 0.15200400
vt 0.16658500 0.15200400
vt 0.16658500 0.15200400
vt 0.19240700 0.19482200
vt 0.19240700 0.19482200
vt 0.19240700 0.19482200
vt 0.19240700 0.19482200
vt 0.20303200 0.18480300
vt 0.20303200 0.18480300
vt 0.20303200 0.18480300
vt 0.20303200 0.18480300
vt 0.21446800 0.17300200
vt 0.21446800 0.17300200
vt 0.21446800 0.17300200
vt 0.21446800 0.17300200
vt 0.17471800 0.18111700
vt 0.17471800 0.18111700
vt 0.17471800 0.18111700
vt 0.17471800 0.18111700
vt 0.17471800 0.18111700
vt 0.18167800 0.16989000
vt 0.18167800 0.16989000
vt 0.18167800 0.16989000
vt 0.18167800 0.16989000
vt 0.32757200 0.04933800
vt 0.32757200 0.04933800
vt 0.32757200 0.04933800
vt 0.32757200 0.04933800
vt 0.31105400 0.05285100
vt 0.31105400 0.05285100
vt 0.31105400 0.05285100
vt 0.31105400 0.05285100
vt 0.31105400 0.05285100
vt 0.29478000 0.06020900
vt 0.29478000 0.06020900
vt 0.29478000 0.06020900
vt 0.14654200 0.17141900
vt 0.14654200 0.17141900
vt 0.14654200 0.17141900
vt 0.14654200 0.17141900
vt 0.01860500 0.36556500
vt 0.01860500 0.36556500
vt 0.33469700 0.03539300
vt 0.33469700 0.03539300
vt 0.15153000 0.18253000
vt 0.15153000 0.18253000
vt 0.15153000 0.18253000
vt 0.15153000 0.18253000
vt 0.14596300 0.17521500
vt 0.14596300 0.17521500
vt 0.14596300 0.17521500
vt 0.14297500 0.17477400
vt 0.14297500 0.17477400
vt 0.14297500 0.17477400
vt 0.14297500 0.17477400
vt 0.16191400 0.18615100
vt 0.16191400 0.18615100
vt 0.16191400 0.18615100
vt 0.16191400 0.18615100
vt 0.15702700 0.18948500
vt 0.15702700 0.18948500
vt 0.15702700 0.18948500
vt 0.13710600 0.17672700
vt 0.13710600 0.17672700
vt 0.13710600 0.17672700
vt 0.13149600 0.16280800
vt 0.13731200 0.15675400
vt 0.13149600 0.16280800
vt 0.13731200 0.15675400
vt 0.15785300 0.17592900
vt 0.15785300 0.17592900
vt 0.15785300 0.17592900
vt 0.15785300 0.17592900
vt 0.15094400 0.17058700
vt 0.15094400 0.17058700
vt 0.15094400 0.17058700
vt 0.14968900 0.16769300
vt 0.14968900 0.16769300
vt 0.14968900 0.16769300
vt 0.14968900 0.16769300
vt 0.15061600 0.16277300
vt 0.15061600 0.16277300
vt 0.15061600 0.16277300
vt 0.16416300 0.18075500
vt 0.16416300 0.18075500
vt 0.16416300 0.18075500
vt 0.02990400 0.36478900
vt 0.02990400 0.36478900
vt 0.02990400 0.36478900
vt 0.02990400 0.36478900
vt 0.02377100 0.36291000
vt 0.02377100 0.36291000
vt 0.02377100 0.36291000
vt 0.03975200 0.36813000
vt 0.03975200 0.36813000
vt 0.34312200 0.05338800
vt 0.03701800 0.37324900
vt 0.34312200 0.05338800
vt 0.03701800 0.37324900
vt 0.02179600 0.35810400
vt 0.02179600 0.35810400
vt 0.02179600 0.35810400
vt 0.02179600 0.35810400
vt 0.02060100 0.34995500
vt 0.02060100 0.34995500
vt 0.02060100 0.34995500
vt 0.31883900 0.02521100
vt 0.00773900 0.35009400
vt 0.31883900 0.02521100
vt 0.00773900 0.35009400
vt 0.32739100 0.03797100
vt 0.32739100 0.03797100
vt 0.32739100 0.03797100
vt 0.32739100 0.03797100
vt 0.33134000 0.03963300
vt 0.33134000 0.03963300
vt 0.33134000 0.03963300
vt 0.31915900 0.03811200
vt 0.31915900 0.03811200
vt 0.31915900 0.03811200
vt 0.33399700 0.04682800
vt 0.33399700 0.04682800
vt 0.33399700 0.04682800
vt 0.33399700 0.04682800
vt 0.33760900 0.05698800
vt 0.33760900 0.05698800
vt 0.33760900 0.05698800
vt 0.00000000 0.00000000
vt 0.12909800 0.34482300
vt 0.00000000 0.00000000
vt 0.00000000 0.00000000
vt 0.11319200 0.35933200
vt 0.11319200 0.35933200
vt 0.11447100 0.35815700
vt 0.11447100 0.35815700
vt 0.00000000 0.00000000
vt 0.00000000 0.00000000
vt 0.11478100 0.35787500
vt 0.00000000 0.00000000
vt 0.11117600 0.36117200
vt 0.00000000 0.00000000
vt 0.00000000 0.00000000
vt 0.13150900 0.34237400
vt 0.13150900 0.34237400
vt 0.00000000 0.00000000
vt 0.13154000 0.34234300
vt 0.00000000 0.00000000
vt 0.31649800 0.14896500
vt 0.00000000 0.00000000
vt 0.00000000 0.00000000
vt 0.31652800 0.14893200
vt 0.00000000 0.00000000
vt 0.31652800 0.14893200
vt 0.00000000 0.00000000
vt 0.31886200 0.14641700
vt 0.00000000 0.00000000
vt 0.17144400 0.19527900
vt 0.00000000 0.00000000
vt 0.17144400 0.19527900
vt 0.17495800 0.20023000
vt 0.00000000 0.00000000
vt 0.00000000 0.00000000
vt 0.00000000 0.00000000
vt 0.00000000 0.00000000
vt 0.17654200 0.19857500
vt 0.00000000 0.00000000
vt 0.00000000 0.00000000
vt 0.18655400 0.20310900
vt 0.00000000 0.00000000
vt 0.00000000 0.00000000
vt 0.19035100 0.20431600
vt 0.00000000 0.00000000
vt 0.17743300 0.20602200
vt 0.17743300 0.20602200
vt 0.18243600 0.20079700
vt 0.00000000 0.00000000
vt 0.18243600 0.20079700
vt 0.00000000 0.00000000
vt 0.00000000 0.00000000
vt 0.17992300 0.21003500
vt 0.00000000 0.00000000
vt 0.17571900 0.20228000
vt 0.00000000 0.00000000
vt 0.17862300 0.19924700
vt 0.00000000 0.00000000
vt 0.00000000 0.00000000
vt 0.18129500 0.21377500
vt 0.20681500 0.20484600
vt 0.00000000 0.00000000
vt 0.00000000 0.00000000
vt 0.20334400 0.20451600
vt 0.20334400 0.20451600
vt 0.00000000 0.00000000
vt 0.19563200 0.20459300
vt 0.00000000 0.00000000
vt 0.00000000 0.00000000
vt 0.18254300 0.23020100
vt 0.00000000 0.00000000
vt 0.00000000 0.00000000
vt 0.18269200 0.23405400
vt 0.00000000 0.00000000
vt 0.21066900 0.20482600
vt 0.00000000 0.00000000
vt 0.00000000 0.00000000
vt 0.18277200 0.23596900
vt 0.21258500 0.20482200
vt 0.00000000 0.00000000
vt 0.00000000 0.00000000
vt 0.00000000 0.00000000
vt 0.18206100 0.22674800
vt 0.18206100 0.22674800
vt 0.18180100 0.21903900
vt 0.00000000 0.00000000
vt 0.00000000 0.00000000
vt 0.23802400 0.19895000
vt 0.00000000 0.00000000
vt 0.22876300 0.20118200
vt 0.22876300 0.20118200
vt 0.00000000 0.00000000
vt 0.22444800 0.20231500
vt 0.00000000 0.00000000
vt 0.22321200 0.20265400
vt 0.00000000 0.00000000
vt 0.22321200 0.20265400
vt 0.00000000 0.00000000
vt 0.00000000 0.00000000
vt 0.21724200 0.20409300
vt 0.00000000 0.00000000
vt 0.18224700 0.24065500
vt 0.00000000 0.00000000
vt 0.00000000 0.00000000
vt 0.18078700 0.24793400
vt 0.00000000 0.00000000
vt 0.18107200 0.24668400
vt 0.18107200 0.24668400
vt 0.17984400 0.25229700
vt 0.00000000 0.00000000
vt 0.17984400 0.25229700
vt 0.17802100 0.26165100
vt 0.00000000 0.00000000
vt 0.00000000 0.00000000
vt 0.29850000 0.16443400
vt 0.00000000 0.00000000
vt 0.29850000 0.16443400
vt 0.00000000 0.00000000
vt 0.29330000 0.16878500
vt 0.00000000 0.00000000
vt 0.00000000 0.00000000
vt 0.31336600 0.15186300
vt 0.00000000 0.00000000
vt 0.25887600 0.19071700
vt 0.00000000 0.00000000
vt 0.00000000 0.00000000
vt 0.25551800 0.19205300
vt 0.00000000 0.00000000
vt 0.24164600 0.19760300
vt 0.00000000 0.00000000
vt 0.24164600 0.19760300
vt 0.00000000 0.00000000
vt 0.29244900 0.16937800
vt 0.00000000 0.00000000
vt 0.27401900 0.18196700
vt 0.00000000 0.00000000
vt 0.27974400 0.17806100
vt 0.27974400 0.17806100
vt 0.00000000 0.00000000
vt 0.26997400 0.18477100
vt 0.00000000 0.00000000
vt 0.00000000 0.00000000
vt 0.00000000 0.00000000
vt 0.16525900 0.29422000
vt 0.00000000 0.00000000
vt 0.00000000 0.00000000
vt 0.16789700 0.28941600
vt 0.00000000 0.00000000
vt 0.26529600 0.18761700
vt 0.00000000 0.00000000
vt 0.16989000 0.28477600
vt 0.00000000 0.00000000
vt 0.16989000 0.28477600
vt 0.00000000 0.00000000
vt 0.00000000 0.00000000
vt 0.17071100 0.28286000
vt 0.00000000 0.00000000
vt 0.26075300 0.18981400
vt 0.26075300 0.18981400
vt 0.00000000 0.00000000
vt 0.17189800 0.27944500
vt 0.17683300 0.26533000
vt 0.17683300 0.26533000
vt 0.00000000 0.00000000
vt 0.13429800 0.33908100
vt 0.00000000 0.00000000
vt 0.00000000 0.00000000
vt 0.14620000 0.32365000
vt 0.14620000 0.32365000
vt 0.00000000 0.00000000
vt 0.15031800 0.31825600
vt 0.00000000 0.00000000
vt 0.00000000 0.00000000
vt 0.15898500 0.30428600
vt 0.00000000 0.00000000
vt 0.15898500 0.30428600
vt 0.16263600 0.29838900
vt 0.00000000 0.00000000
vt 0.15087300 0.31737800
vt 0.00000000 0.00000000
vt 0.33262000 0.12989700
vt 0.33262000 0.12989800
vt 0.00000000 0.00000000
vt 0.33150700 0.13122500
vt 0.33150700 0.13122500
vt 0.00000000 0.00000000
vt 0.00000000 0.00000000
vt 0.33123900 0.13154800
vt 0.00000000 0.00000000
vt 0.00000000 0.00000000
vt 0.33436500 0.12780400
vt 0.35814500 0.08466700
vt 0.00000000 0.00000000
vt 0.06905100 0.38692700
vt 0.00000000 0.00000000
vt 0.00000000 0.00000000
vt 0.35806600 0.08483600
vt 0.00000000 0.00000000
vt 0.34874100 0.10515200
vt 0.00000000 0.00000000
vt 0.00000000 0.00000000
vt 0.34503600 0.11071600
vt 0.34503600 0.11071600
vt 0.34154100 0.11705500
vt 0.00000000 0.00000000
vt 0.00000000 0.00000000
vt 0.10074200 0.36883900
vt 0.00000000 0.00000000
vt 0.00000000 0.00000000
vt 0.06921700 0.38683900
vt 0.00000000 0.00000000
vt 0.00000000 0.00000000
vt 0.08914900 0.37658300
vt 0.00000000 0.00000000
vt 0.09455300 0.37262100
vt 0.00000000 0.00000000
vt 0.09455300 0.37262100
f 441/441 432/432 1/1
f 441/441 1/1 443/443
f 441/441 443/443 435/435
f 441/441 435/435 440/440
f 4/4 434/434 446/446
f 4/4 446/446 451/451
f 4/4 451/451 454/454
f 4/4 454/454 456/456
f 4/4 456/456 460/460
f 468/468 466/466 462/462
f 473/473 20/20 471/471
f 470/470 21/21 483/483
f 470/470 483/483 476/476
f 470/470 476/476 485/485
f 470/470 485/485 465/465
f 470/470 465/465 467/467
f 470/470 467/467 487/487
f 470/470 487/487 480/480
f 22/22 490/490 482/482
f 497/497 493/493 18/18
f 497/497 18/18 474/474
f 497/497 474/474 499/499
f 511/511 508/508 503/503
f 511/511 503/503 500/500
f 511/511 500/500 19/19
f 511/511 19/19 494/494
f 511/511 494/494 505/505
f 23/23 502/502 513/513
f 23/23 513/513 517/517
f 23/23 517/517 489/489
f 520/520 17/17 530/530
f 520/520 530/530 527/527
f 520/520 527/527 525/525
f 520/520 525/525 523/523
f 507/507 512/512 529/529
f 507/507 529/529 15/15
f 507/507 15/15 534/534
f 14/14 545/545 541/541
f 14/14 541/541 535/535
f 14/14 535/535 537/537
f 14/14 537/537 532/532
f 552/552 29/29 551/551
f 551/551 547/547 552/552
f 12/12 518/518 561/561
f 12/12 561/561 559/559
f 12/12 559/559 556/556
f 563/563 549/549 24/24
f 563/563 24/24 570/570
f 563/563 570/570 565/565
f 563/563 565/565 567/567
f 572/572 28/28 574/574
f 572/572 574/574 577/577
f 572/572 577/577 581/581
f 579/579 576/576 583/583
f 579/579 583/583 585/585
f 579/579 585/585 16/16
f 579/579 16/16 557/557
f 579/579 557/557 588/588
f 595/595 544/544 13/13
f 595/595 13/13 586/586
f 595/595 586/586 591/591
f 554/554 453/453 449/449
f 554/554 449/449 598/598
f 554/554 598/598 27/27
f 601/601 604/604 25/25
f 25/25 597/597 601/601
f 26/26 603/603 611/611
f 26/26 611/611 606/606
f 26/26 606/606 609/609
f 26/26 609/609 573/573
f 614/614 621/621 5/5
f 614/614 5/5 458/458
f 614/614 458/458 618/618
f 614/614 618/618 617/617
f 627/627 624/624 624/624
f 627/627 624/624 10/10
f 627/627 10/10 631/631
f 8/8 636/636 632/632
f 632/632 629/629 8/8
f 3/3 620/620 637/637
f 637/637 7/7 3/3
f 2/2 6/6 640/640
f 640/640 445/445 2/2
f 11/11 626/626 642/642
f 642/642 645/645 11/11
f 9/9 643/643 647/647
f 647/647 639/639 9/9
f 608/608 605/605 37/37
f 608/608 37/37 30/30
f 608/608 30/30 582/582
f 608/608 582/582 578/578
f 608/608 578/578 575/575
f 599/599 39/39 36/36
f 599/599 36/36 607/607
f 599/599 607/607 610/610
f 599/599 610/610 602/602
f 33/33 43/43 593/593
f 33/33 593/593 592/592
f 33/33 592/592 587/587
f 33/33 587/587 584/584
f 102/102 110/110 51/51
f 51/51 47/47 102/102
f 109/109 111/111 55/55
f 55/55 53/53 109/109
f 64/64 356/356 367/367
f 367/367 372/372 64/64
f 149/149 151/151 155/155
f 155/155 58/58 149/149
f 450/450 448/448 69/69
f 450/450 69/69 41/41
f 450/450 41/41 600/600
f 450/450 600/600 596/596
f 442/442 438/438 72/72
f 442/442 72/72 66/66
f 442/442 66/66 447/447
f 442/442 447/447 433/433
f 439/439 436/436 71/71
f 126/126 129/129 177/177
f 177/177 183/183 126/126
f 122/122 125/125 181/181
f 181/181 187/187 122/122
f 189/189 196/196 114/114
f 114/114 118/118 189/189
f 117/117 120/120 186/186
f 186/186 191/191 117/117
f 543/543 594/594 44/44
f 44/44 540/540 543/543
f 165/165 171/171 173/173
f 173/173 84/84 165/165
f 65/65 342/342 355/355
f 355/355 359/359 65/65
f 516/516 514/514 90/90
f 516/516 90/90 477/477
f 516/516 477/477 484/484
f 516/516 484/484 491/491
f 97/97 93/93 515/515
f 97/97 515/515 501/501
f 97/97 501/501 504/504
f 97/97 504/504 509/509
f 97/97 509/509 533/533
f 97/97 533/533 538/538
f 42/42 101/101 95/95
f 42/42 95/95 539/539
f 42/42 539/539 536/536
f 42/42 536/536 542/542
f 45/45 32/32 103/103
f 103/103 100/100 45/45
f 31/31 35/35 108/108
f 108/108 105/105 31/31
f 34/34 38/38 113/113
f 113/113 107/107 34/34
f 119/119 115/115 40/40
f 40/40 68/68 119/119
f 67/67 70/70 123/123
f 123/123 116/116 67/67
f 648/648 124/124 121/121
f 648/648 121/121 73/73
f 648/648 73/73 437/437
f 648/648 437/437 444/444
f 648/648 444/444 638/638
f 625/625 625/625 128/128
f 625/625 128/128 127/127
f 625/625 127/127 646/646
f 625/625 646/646 644/644
f 625/625 644/644 641/641
f 478/478 92/92 136/136
f 478/478 136/136 134/134
f 478/478 134/134 461/461
f 478/478 461/461 464/464
f 478/478 464/464 486/486
f 141/141 138/138 91/91
f 91/91 94/94 141/141
f 96/96 99/99 147/147
f 147/147 144/144 96/96
f 98/98 106/106 150/150
f 150/150 145/145 98/98
f 156/156 152/152 104/104
f 104/104 46/46 156/156
f 161/161 351/351 366/366
f 366/366 139/139 161/161
f 168/168 164/164 137/137
f 137/137 142/142 168/168
f 143/143 148/148 170/170
f 170/170 169/169 143/143
f 174/174 172/172 146/146
f 146/146 59/59 174/174
f 399/399 403/403 202/202
f 202/202 391/391 399/399
f 185/185 182/182 208/208
f 208/208 209/209 185/185
f 190/190 188/188 210/210
f 210/210 216/216 190/190
f 195/195 199/199 57/57
f 57/57 112/112 195/195
f 74/74 198/198 194/194
f 194/194 192/192 74/74
f 346/346 395/395 392/392
f 392/392 201/201 346/346
f 213/213 205/205 405/405
f 405/405 409/409 213/213
f 193/193 215/215 220/220
f 220/220 75/75 193/193
f 217/217 214/214 212/212
f 212/212 80/80 217/217
f 589/589 225/225 224/224
f 589/589 224/224 568/568
f 589/589 568/568 566/566
f 589/589 566/566 571/571
f 589/589 571/571 580/580
f 223/223 232/232 546/546
f 223/223 546/546 550/550
f 223/223 550/550 564/564
f 223/223 564/564 569/569
f 236/236 226/226 590/590
f 236/236 590/590 555/555
f 236/236 555/555 558/558
f 236/236 558/558 562/562
f 238/238 48/48 50/50
f 50/50 244/244 238/238
f 243/243 52/52 54/54
f 54/54 246/246 243/243
f 384/384 385/385 256/256
f 256/256 253/253 384/384
f 263/263 61/61 153/153
f 153/153 267/267 263/263
f 548/548 230/230 269/269
f 548/548 269/269 457/457
f 548/548 457/457 452/452
f 548/548 452/452 553/553
f 455/455 268/268 275/275
f 455/455 275/275 615/615
f 455/455 615/615 619/619
f 455/455 619/619 459/459
f 616/616 274/274 613/613
f 279/279 284/284 180/180
f 180/180 131/131 279/279
f 286/286 289/289 282/282
f 282/282 278/278 286/286
f 297/297 304/304 250/250
f 250/250 299/299 297/297
f 301/301 294/294 292/292
f 292/292 287/287 301/301
f 233/233 560/560 519/519
f 519/519 521/521 233/233
f 258/258 85/85 176/176
f 176/176 307/307 258/258
f 341/341 379/379 377/377
f 377/377 160/160 341/341
f 472/472 481/481 310/310
f 472/472 310/310 496/496
f 472/472 496/496 498/498
f 472/472 498/498 475/475
f 510/510 506/506 492/492
f 510/510 492/492 495/495
f 510/510 495/495 311/311
f 510/510 311/311 312/312
f 510/510 312/312 528/528
f 510/510 528/528 531/531
f 313/313 317/317 234/234
f 313/313 234/234 522/522
f 313/313 522/522 524/524
f 313/313 524/524 526/526
f 235/235 319/319 237/237
f 237/237 228/228 235/235
f 227/227 239/239 242/242
f 242/242 221/221 227/227
f 222/222 245/245 247/247
f 247/247 231/231 222/222
f 302/302 270/270 229/229
f 229/229 248/248 302/302
f 271/271 303/303 285/285
f 285/285 272/272 271/271
f 273/273 288/288 277/277
f 273/273 277/277 633/633
f 273/273 633/633 635/635
f 273/273 635/635 622/622
f 273/273 622/622 612/612
f 634/634 276/276 130/130
f 634/634 130/130 623/623
f 634/634 623/623 628/628
f 634/634 628/628 630/630
f 463/463 133/133 321/321
f 463/463 321/321 308/308
f 463/463 308/308 479/479
f 463/463 479/479 488/488
f 463/463 488/488 469/469
f 325/325 314/314 309/309
f 309/309 324/324 325/325
f 315/315 328/328 260/260
f 260/260 318/318 315/315
f 316/316 262/262 265/265
f 265/265 241/241 316/316
f 154/154 49/49 240/240
f 240/240 266/266 154/154
f 375/375 388/388 360/360
f 360/360 159/159 375/375
f 255/255 326/326 322/322
f 322/322 252/252 255/255
f 327/327 259/259 305/305
f 305/305 261/261 327/327
f 175/175 60/60 264/264
f 264/264 306/306 175/175
f 281/281 330/330 428/428
f 428/428 429/429 281/281
f 290/290 336/336 331/331
f 331/331 283/283 290/290
f 296/296 340/340 337/337
f 337/337 291/291 296/296
f 300/300 249/249 56/56
f 56/56 200/200 300/300
f 77/77 293/293 298/298
f 298/298 197/197 77/77
f 347/347 421/421 418/418
f 418/418 88/88 347/347
f 416/416 424/424 411/411
f 411/411 86/86 416/416
f 295/295 76/76 219/219
f 219/219 338/338 295/295
f 218/218 81/81 334/334
f 334/334 339/339 218/218
f 350/350 354/354 343/343
f 343/343 158/158 350/350
f 357/357 353/353 349/349
f 349/349 163/163 357/357
f 362/362 364/364 352/352
f 352/352 157/157 362/362
f 140/140 365/365 361/361
f 361/361 135/135 140/140
f 167/167 369/369 358/358
f 358/358 162/162 167/167
f 166/166 83/83 370/370
f 370/370 368/368 166/166
f 378/378 381/381 254/254
f 254/254 376/376 378/378
f 62/62 382/382 380/380
f 380/380 344/344 62/62
f 387/387 371/371 82/82
f 82/82 257/257 387/387
f 63/63 373/373 386/386
f 386/386 383/383 63/63
f 251/251 323/323 390/390
f 390/390 374/374 251/251
f 363/363 389/389 320/320
f 320/320 132/132 363/363
f 206/206 393/393 396/396
f 396/396 404/404 206/206
f 184/184 398/398 394/394
f 394/394 207/207 184/184
f 184/184 179/179 401/401
f 401/401 398/398 184/184
f 407/407 397/397 345/345
f 345/345 89/89 407/407
f 211/211 410/410 414/414
f 414/414 78/78 211/211
f 412/412 408/408 406/406
f 406/406 87/87 412/412
f 329/329 417/417 419/419
f 419/419 426/426 329/329
f 333/333 79/79 413/413
f 413/413 423/423 333/333
f 335/335 422/422 415/415
f 415/415 332/332 335/335
f 425/425 420/420 348/348
f 348/348 203/203 425/425
f 280/280 431/431 400/400
f 400/400 178/178 280/280
f 402/402 430/430 427/427
f 427/427 204/204 402/402

