# ('FARMS composite mesh',)
mtllib link_body_14_composite.mtl
usemtl link_body_14_composite
v -1.24592500 -4.83309100 6.16445000
v -1.24592500 -4.83309100 6.16445000
v 0.18019500 -5.56720900 5.62076300
v 0.18019500 -5.56720900 5.62076300
v -2.91233600 -2.70700100 6.63242700
v -2.81891600 -6.16084400 3.77795800
v -0.59715800 -6.65893900 4.24333000
v -0.01741200 -4.24356500 6.70106500
v -3.22438400 -4.71470800 5.13323200
v -3.22438400 -4.71470800 5.13323200
v -0.87944600 -2.60519200 7.41053500
v -1.28305600 -0.00292500 7.78703600
v 0.44598300 0.00285200 7.51891500
v 0.44598300 0.00285200 7.51891500
v 0.45444100 -1.77980600 7.28471700
v 0.45444100 -1.77980600 7.28471700
v -2.10095400 -1.72873100 7.31476300
v -2.55237700 0.31700600 7.32427900
v -3.68488000 0.52768800 6.60713400
v -1.77627900 2.16940300 7.31848100
v -2.23809000 3.43228800 6.68089200
v -2.68351600 4.64378400 5.60357000
v -2.68351600 4.64378400 5.60357000
v -0.14312500 4.32554200 6.64541700
v -0.75150800 2.78862600 7.37641100
v -0.19108300 5.53302300 5.69512300
v -0.19108300 5.53302300 5.69512300
v -4.33217300 3.05741700 5.19366800
v -4.33217300 3.05741700 5.19366800
v -3.55673300 5.55703300 3.81214000
v -4.64161400 0.64740300 5.60863200
v -4.64161400 0.64740300 5.60863200
v -5.28702300 1.80368700 4.41570800
v -4.67145300 4.68812800 3.10061800
v -5.81705400 2.25191500 3.04843200
v -5.72590800 3.68156100 1.56013700
v -6.46122700 0.84806600 1.49659900
v -6.30772900 -0.70262800 2.40897700
v -5.84368400 -2.05642100 3.10061800
v -5.45977100 -0.76151900 4.41570900
v -5.45977100 -0.76151900 4.41570900
v -5.76494800 -3.60245800 1.49660200
v -5.76494800 -3.60245800 1.49660200
v -6.30339300 -2.44018900 -0.00000100
v -6.60175800 0.64020600 0.00000000
v -6.01862500 2.20555200 -2.58898600
v -5.85575400 3.74138900 -0.10233100
v -6.46539200 -0.75626800 -1.56013900
v -5.71377800 -3.70404900 -1.59548000
v -5.71377800 -3.70404900 -1.59548000
v -6.09239900 -0.59081100 -3.04843400
v -5.44226900 -2.20219500 -3.99370700
v -5.44226900 -2.20219500 -3.99370700
v -4.95518900 -4.24664400 -3.02086900
v -4.95518900 -4.24664400 -3.02086900
v -4.95518900 -4.24664400 -3.02086900
v -4.23901300 -2.45201600 -5.52558100
v -4.23901300 -2.45201600 -5.52558100
v -5.44925600 0.58640700 -4.45382800
v -4.71380700 0.00000100 -5.61153700
v -4.71380700 0.00000100 -5.61153700
v -4.78871100 -3.24534700 -4.30171300
v -4.78871100 -3.24534700 -4.30171300
v -4.78871100 -3.24534700 -4.30171300
v -4.48981800 -2.99114100 -2.57477200
v -4.04756800 -1.84058600 -3.98259800
v -4.04756800 -1.84058600 -3.98259800
v -3.67303700 -2.01520500 -6.20732000
v -3.67303700 -2.01520500 -6.20732000
v -3.67303700 -2.01520500 -6.20732000
v -3.67303700 -2.01520500 -6.20732000
v -2.95832100 -1.17060300 -2.51494100
v -2.95832100 -1.17060300 -2.51494100
v -3.20684200 -1.03413000 -4.72712300
v -3.20684200 -1.03413000 -4.72712300
v -1.71062800 -0.34914400 -4.70560100
v -1.71062800 -0.34914400 -4.70560100
v -2.20496700 -0.53535500 -3.54726800
v -2.20496700 -0.53535500 -3.54726800
v -2.07405600 -0.93040800 -6.40391500
v -2.07405600 -0.93040800 -6.40391500
v -0.78888100 -0.64055500 -6.12851600
v -0.78888100 -0.64055500 -6.12851600
v -0.78888100 -0.64055500 -6.12851600
v -0.56952300 -0.00174100 -6.49995100
v -0.56952300 -0.00174100 -6.49995100
v -3.54543200 -1.39553100 -6.51765800
v -3.54543200 -1.39553100 -6.51765800
v -3.71327600 0.00000100 -6.53105200
v -3.71327600 0.00000100 -6.53105200
v -3.54170600 1.34942300 -6.52583200
v -3.54170600 1.34942300 -6.52583200
v -4.22747500 2.18343900 -5.65916800
v -4.22747500 2.18343900 -5.65916800
v -4.22747500 2.18343900 -5.65916800
v -3.56535200 1.79851200 -6.35377600
v -3.56535200 1.79851200 -6.35377600
v -3.56535200 1.79851200 -6.35377600
v -2.06062900 0.98879000 -6.36830500
v -2.06062900 0.98879000 -6.36830500
v -2.39121400 0.62756800 -4.96298600
v -3.51274000 1.17135900 -4.72712400
v -4.33751200 1.96211100 -3.99361700
v -4.33751200 1.96211100 -3.99361700
v -3.26422400 1.30783400 -2.51494300
v -2.27274300 0.63849900 -3.20988500
v -2.27274300 0.63849900 -3.20988500
v -1.36558800 0.52128800 -5.36398700
v -1.36558800 0.52128800 -5.36398700
v -2.58585600 1.52778000 -1.45710300
v -2.58585600 1.52778000 -1.45710300
v -2.66738000 0.00000200 -1.80052800
v -2.81410400 0.95328500 -0.02882300
v -2.58953000 -1.51029000 -1.49829700
v -2.58953000 -1.51029000 -1.49829700
v -2.58953000 -1.51029000 -1.49829700
v -2.58953000 -1.51029000 -1.49829700
v -2.37660900 -2.96732600 -0.05591200
v -2.37660900 -2.96732600 -0.05591200
v -2.68514600 -1.80476500 0.67965500
v -3.44605000 -2.72665000 -0.98109700
v -3.44605000 -2.72665000 -0.98109700
v -4.13787700 -4.68144800 -0.83974000
v -4.13787700 -4.68144800 -0.83974000
v -3.01265700 -4.39624000 0.14816000
v -2.56760300 -5.46835900 0.54552400
v -2.00083900 -3.96147200 0.52063200
v -2.00083900 -3.96147200 0.52063200
v -2.00083900 -3.96147200 0.52063200
v -1.03235000 -5.75830700 0.85323900
v -1.03235000 -5.75830700 0.85323900
v -1.03235000 -5.75830700 0.85323900
v -1.03235000 -5.75830700 0.85323900
v -1.75768700 -4.41723100 1.79793100
v -1.75768700 -4.41723100 1.79793100
v -0.52906400 -5.57848500 3.60703300
v -0.52906400 -5.57848500 3.60703300
v -0.37382600 -6.51688800 1.73056800
v -0.37382600 -6.51688800 1.73056800
v -0.37382600 -6.51688800 1.73056800
v -1.98781900 -2.49847700 3.43313400
v -0.68269700 -3.77749400 5.19786900
v -0.68269700 -3.77749400 5.19786900
v -0.68269700 -3.77749400 5.19786900
v -2.17573700 0.83342300 3.67845900
v -1.39612100 -1.49708200 5.12746700
v -2.65030400 0.96029400 1.88913700
v -2.05851700 3.99228100 0.57388300
v -2.05851700 3.99228100 0.57388300
v -1.41380600 4.09600100 3.49723100
v -2.41427500 2.92252100 -0.02559600
v -2.41427500 2.92252100 -0.02559600
v -2.41427500 2.92252100 -0.02559600
v -3.77264100 2.86970900 -0.99766300
v -3.77264100 2.86970900 -0.99766300
v -3.77264100 2.86970900 -0.99766300
v -3.86916600 4.82830600 -0.17996700
v -3.86916600 4.82830600 -0.17996700
v -4.75863000 3.99378500 -1.72623700
v -2.89881400 5.68398200 0.54151100
v -3.72435900 6.51735500 -0.21719800
v -3.72435900 6.51735500 -0.21719800
v -3.72435900 6.51735500 -0.21719800
v -4.61531600 5.54999300 -1.16017900
v -4.61531600 5.54999300 -1.16017900
v -4.07803100 6.05812500 1.61989400
v -5.65425600 3.78693100 -1.67197500
v -5.15305800 3.92252300 -2.97761600
v -5.15305800 3.92252300 -2.97761600
v -4.42362100 2.58547200 -2.50599800
v -4.42362100 2.58547200 -2.50599800
v -4.91389600 2.93267600 -4.36364600
v -4.91389600 2.93267600 -4.36364600
v -4.91389600 2.93267600 -4.36364600
v -2.57709500 7.18502600 1.14131200
v -2.57709500 7.18502600 1.14131200
v 0.37090400 6.64360000 3.36684000
v 0.37090400 6.64360000 3.36684000
v -0.59715000 6.65892700 4.24336300
v -2.10618400 6.91613600 2.89162400
v -2.10618400 6.91613600 2.89162400
v 0.66871300 6.51995500 4.00236000
v 0.66871300 6.51995500 4.00236000
v -0.37115800 6.51803500 1.73474000
v -0.37115800 6.51803500 1.73474000
v -2.98186000 6.99117900 0.16023100
v -2.98186000 6.99117900 0.16023100
v -2.98186000 6.99117900 0.16023100
v -2.98186000 6.99117900 0.16023100
v -1.60369300 6.35537000 -0.13841100
v -1.60369300 6.35537000 -0.13841100
v -1.03026500 5.92107800 0.09132900
v -1.03026500 5.92107800 0.09132900
v -1.03026500 5.92107800 0.09132900
v -1.37110400 5.92250400 0.82217400
v -1.37110400 5.92250400 0.82217400
v -1.78511000 6.06544400 0.81020800
v -1.78511000 6.06544400 0.81020800
v -1.42225400 5.20588900 0.85500700
v -1.42225400 5.20588900 0.85500700
v -0.98473800 5.79210100 0.84670900
v -0.98473800 5.79210100 0.84670900
v -0.98473800 5.79210100 0.84670900
v 0.80963400 5.75001100 5.28757800
v 0.80963400 5.75001100 5.28757800
v 0.80963400 5.75001100 5.28757800
v 0.71946600 4.27445400 6.49779100
v 0.71946600 4.27445400 6.49779100
v 0.71946600 4.27445400 6.49779100
v -0.72733300 3.62310000 5.25718900
v -1.49367300 0.75281000 5.15003100
v -0.32961100 1.89486600 6.54191000
v -0.32961100 1.89486600 6.54191000
v -0.50548500 -1.10142100 6.57457900
v -0.50548500 -1.10142100 6.57457900
v 0.45448300 1.77924100 7.28489100
v 0.45448300 1.77924100 7.28489100
v 0.70820200 -4.20437500 6.53153800
v 0.70820200 -4.20437500 6.53153800
v 0.70820200 -4.20437500 6.53153800
v 0.82629400 -5.73377800 5.30526600
v 0.82629400 -5.73377800 5.30526600
v 0.82629400 -5.73377800 5.30526600
v 0.57723100 -6.60618000 3.77182700
v 0.57723100 -6.60618000 3.77182700
v -2.56775000 -7.18509500 1.15594500
v -2.56775000 -7.18509500 1.15594500
v -3.27941900 -6.82240900 -0.27004300
v -3.27941900 -6.82240900 -0.27004300
v -3.27941900 -6.82240900 -0.27004300
v -4.12705700 -6.03460300 1.55739700
v -2.10619400 -6.91613600 2.89162400
v -1.54536900 -6.33124200 -0.10376400
v -1.54536900 -6.33124200 -0.10376400
v -1.54536900 -6.33124200 -0.10376400
v -1.54536900 -6.33124200 -0.10376400
v -1.54536900 -6.33124200 -0.10376400
v -2.78882600 -6.91084400 0.05300900
v -2.78882600 -6.91084400 0.05300900
v -2.78882600 -6.91084400 0.05300900
v -1.95109500 -6.26138300 0.61633800
v -1.95109500 -6.26138300 0.61633800
v -1.95109500 -6.26138300 0.61633800
v -0.97557800 -5.89587800 0.14939600
v -0.97557800 -5.89587800 0.14939600
v -0.97557800 -5.89587800 0.14939600
v -5.02044000 -5.19196000 -0.05864500
v -5.02044000 -5.19196000 -0.05864500
v -4.79211500 -4.55294700 3.04843200
v -4.79211500 -4.55294700 3.04843200
v -4.80132100 -3.21079000 4.41570800
v -4.80132100 -3.21079000 4.41570800
v -4.80132100 -3.21079000 4.41570800
v -4.36926400 -2.02049200 5.64098800
v -4.36926400 -2.02049200 5.64098800
v -4.54643900 -5.49782200 -1.61325800
v -4.54643900 -5.49782200 -1.61325800
v -3.66396100 -6.51939700 -0.49129900
v -3.66396100 -6.51939700 -0.49129900
v -3.66396100 -6.51939700 -0.49129900
v -2.09836700 6.07909000 4.39668700
v -2.09836700 6.07909000 4.39668700
v -2.09836700 6.07909000 4.39668700
v -0.82694900 0.80930100 -6.08553100
v -0.82694900 0.80930100 -6.08553100
v -0.82694900 0.80930100 -6.08553100
vn -0.24270000 -0.60480000 0.75850000
vn -0.24270000 -0.60480000 0.75850000
vn 0.05580000 -0.70330000 0.70870000
vn 0.05580000 -0.70330000 0.70870000
vn -0.50010000 -0.33040000 0.80050000
vn -0.48340000 -0.74430000 0.46070000
vn -0.03800000 -0.90250000 0.42900000
vn 0.07940000 -0.47190000 0.87800000
vn -0.55040000 -0.56200000 0.61740000
vn -0.55040000 -0.56200000 0.61740000
vn -0.04380000 -0.29820000 0.95350000
vn -0.09500000 -0.00120000 0.99550000
vn 0.70080000 -0.01720000 -0.71310000
vn 0.15990000 -0.00100000 0.98710000
vn 0.67480000 0.21620000 -0.70560000
vn 0.19950000 -0.17840000 0.96350000
vn -0.37450000 -0.19580000 0.90630000
vn -0.45250000 0.04060000 0.89080000
vn -0.61700000 0.06880000 0.78400000
vn -0.33970000 0.23260000 0.91130000
vn -0.40300000 0.42020000 0.81300000
vn -0.45090000 0.57380000 0.68370000
vn -0.45090000 0.57380000 0.68370000
vn -0.00170000 0.52680000 0.85000000
vn 0.00060000 0.30580000 0.95210000
vn -0.04450000 0.69160000 0.72090000
vn -0.04450000 0.69160000 0.72090000
vn -0.70880000 0.35890000 0.60730000
vn -0.70880000 0.35890000 0.60730000
vn -0.59810000 0.66370000 0.44930000
vn -0.76860000 0.07180000 0.63570000
vn -0.76860000 0.07180000 0.63570000
vn -0.85430000 0.19310000 0.48260000
vn -0.78100000 0.51450000 0.35400000
vn -0.90990000 0.24500000 0.33480000
vn -0.89530000 0.41420000 0.16380000
vn -0.98070000 0.11130000 0.16060000
vn -0.96600000 -0.06940000 0.24890000
vn -0.90960000 -0.24670000 0.33440000
vn -0.86850000 -0.07060000 0.49060000
vn -0.86850000 -0.07060000 0.49060000
vn -0.90300000 -0.39780000 0.16240000
vn -0.90300000 -0.39780000 0.16240000
vn -0.96730000 -0.25350000 0.00500000
vn -0.99700000 0.07670000 -0.01120000
vn -0.93580000 0.22210000 -0.27390000
vn -0.91000000 0.41460000 0.00590000
vn -0.98300000 -0.08640000 -0.16230000
vn -0.90220000 -0.39410000 -0.17540000
vn -0.90220000 -0.39410000 -0.17540000
vn -0.94210000 -0.06550000 -0.32890000
vn -0.86700000 -0.24080000 -0.43630000
vn -0.86700000 -0.24080000 -0.43630000
vn 0.93310000 -0.23100000 -0.27570000
vn -0.84770000 -0.43230000 -0.30760000
vn -0.84770000 -0.43230000 -0.30760000
vn 0.78190000 -0.60670000 0.14340000
vn -0.75830000 -0.20540000 -0.61870000
vn -0.86550000 0.08370000 -0.49390000
vn -0.77340000 -0.00230000 -0.63390000
vn -0.77340000 -0.00230000 -0.63390000
vn -0.80080000 -0.36050000 -0.47840000
vn 0.90480000 -0.42430000 -0.03630000
vn -0.80080000 -0.36050000 -0.47840000
vn 0.85970000 -0.41610000 -0.29630000
vn 0.78250000 -0.62060000 -0.05070000
vn 0.78250000 -0.62060000 -0.05070000
vn -0.68160000 -0.21060000 -0.70080000
vn 0.21540000 -0.47240000 -0.85470000
vn 0.66450000 -0.70540000 0.24660000
vn 0.66450000 -0.70540000 0.24660000
vn 0.52270000 -0.79020000 -0.32000000
vn 0.52270000 -0.79020000 -0.32000000
vn 0.59110000 -0.79890000 0.11120000
vn 0.59110000 -0.79890000 0.11120000
vn 0.90290000 -0.03370000 0.42860000
vn 0.35060000 -0.92100000 0.16970000
vn 0.94770000 -0.01660000 0.31870000
vn 0.46540000 -0.88000000 -0.09460000
vn 0.21260000 -0.43800000 -0.87350000
vn 0.36580000 -0.88530000 0.28730000
vn 0.29200000 -0.55370000 -0.77980000
vn 0.15070000 -0.94470000 0.29110000
vn 0.83320000 0.05130000 0.55050000
vn 0.82180000 0.01350000 0.56970000
vn 0.20540000 -0.01790000 -0.97850000
vn -0.70180000 -0.14920000 -0.69660000
vn 0.14340000 -0.30840000 -0.94040000
vn -0.67670000 0.00050000 -0.73630000
vn 0.00990000 -0.00290000 -0.99990000
vn -0.68100000 0.15230000 -0.71620000
vn 0.11130000 0.22630000 -0.96770000
vn -0.77400000 0.16980000 -0.61000000
vn -0.77400000 0.16980000 -0.61000000
vn 0.73400000 0.65260000 0.18830000
vn 0.55490000 0.78070000 0.28730000
vn 0.17710000 0.36890000 -0.91240000
vn -0.62820000 0.24930000 -0.73700000
vn 0.29140000 0.89540000 0.33680000
vn 0.26580000 0.50890000 -0.81880000
vn 0.31050000 0.94130000 0.13270000
vn 0.58330000 0.80660000 0.09560000
vn 0.78120000 0.62170000 -0.05670000
vn 0.78120000 0.62170000 -0.05670000
vn 0.54370000 0.77850000 -0.31360000
vn 0.39630000 0.90720000 -0.14150000
vn 0.95300000 -0.05380000 0.29820000
vn 0.85920000 0.00770000 0.51150000
vn 0.12520000 0.95790000 0.25850000
vn 0.47610000 0.70880000 -0.52050000
vn 0.98270000 -0.12660000 0.13510000
vn 0.98640000 0.00510000 0.16450000
vn 0.99670000 -0.08050000 0.00420000
vn 0.98970000 0.09950000 0.10300000
vn 0.53580000 -0.68210000 -0.49760000
vn 0.53580000 -0.68210000 -0.49760000
vn 0.53580000 -0.68210000 -0.49760000
vn 0.50580000 -0.41640000 -0.75550000
vn 0.96240000 0.27080000 -0.01980000
vn 0.98470000 0.15730000 -0.07450000
vn 0.65600000 -0.48210000 -0.58070000
vn 0.65600000 -0.48210000 -0.58070000
vn 0.80290000 -0.11700000 -0.58450000
vn 0.80290000 -0.11700000 -0.58450000
vn 0.57010000 -0.18870000 -0.79960000
vn 0.43350000 0.02690000 -0.90080000
vn 0.92940000 0.36620000 -0.04620000
vn 0.36650000 -0.21610000 -0.90500000
vn 0.92940000 0.36620000 -0.04620000
vn 0.19390000 -0.01460000 -0.98090000
vn 0.81810000 0.56900000 -0.08320000
vn -0.46130000 0.84810000 -0.26050000
vn -0.46130000 0.84810000 -0.26050000
vn 0.89440000 0.41610000 -0.16420000
vn 0.89440000 0.41610000 -0.16420000
vn 0.75960000 0.54310000 -0.35780000
vn 0.75960000 0.54310000 -0.35780000
vn 0.37400000 -0.89150000 -0.25560000
vn 0.37400000 -0.89150000 -0.25560000
vn 0.78430000 0.58990000 -0.19180000
vn 0.92210000 0.22530000 -0.31440000
vn 0.77710000 0.36770000 -0.51080000
vn 0.77710000 0.36770000 -0.51080000
vn 0.77710000 0.36770000 -0.51080000
vn 0.93790000 -0.08070000 -0.33750000
vn 0.86750000 0.14220000 -0.47670000
vn 0.97830000 -0.09250000 -0.18510000
vn 0.93080000 -0.32080000 -0.17520000
vn 0.40720000 0.22200000 -0.88590000
vn 0.85890000 -0.39590000 -0.32470000
vn 0.49340000 0.42480000 -0.75900000
vn 0.49340000 0.42480000 -0.75900000
vn 0.97170000 -0.22460000 -0.07340000
vn 0.64060000 0.48500000 -0.59530000
vn 0.64060000 0.48500000 -0.59530000
vn 0.64060000 0.48500000 -0.59530000
vn 0.66930000 0.14300000 -0.72910000
vn 0.66930000 0.14300000 -0.72910000
vn 0.87910000 0.22470000 -0.42030000
vn 0.42900000 -0.03120000 -0.90280000
vn 0.64270000 -0.12590000 -0.75570000
vn -0.67610000 0.73510000 0.05010000
vn 0.64270000 -0.12590000 -0.75570000
vn 0.83610000 0.02790000 -0.54790000
vn -0.81120000 0.58380000 -0.03320000
vn -0.68400000 0.70670000 0.18110000
vn -0.88580000 0.42690000 -0.18230000
vn 0.91110000 0.33360000 -0.24220000
vn -0.85130000 0.41490000 -0.32120000
vn 0.80230000 0.52030000 -0.29270000
vn 0.80230000 0.52030000 -0.29270000
vn 0.86750000 0.49460000 -0.05390000
vn 0.86750000 0.49460000 -0.05390000
vn -0.84620000 0.24350000 -0.47390000
vn -0.55670000 0.80870000 0.19010000
vn 0.29590000 0.93050000 -0.21580000
vn 0.10520000 0.98930000 0.10130000
vn 0.74600000 -0.55300000 -0.37100000
vn -0.02260000 0.91270000 0.40790000
vn -0.26850000 0.92140000 0.28090000
vn -0.26850000 0.92140000 0.28090000
vn 0.15220000 0.93370000 0.32420000
vn 0.67440000 -0.59850000 -0.43250000
vn 0.37370000 0.88710000 -0.27100000
vn 0.80530000 -0.54450000 -0.23480000
vn -0.45370000 -0.82430000 -0.33870000
vn 0.34030000 0.88580000 -0.31540000
vn -0.56120000 0.82480000 0.06860000
vn 0.45450000 -0.22270000 -0.86250000
vn 0.45260000 0.81060000 -0.37160000
vn -0.45300000 -0.83680000 -0.30740000
vn 0.64420000 0.59880000 -0.47590000
vn 0.83450000 -0.53260000 -0.14120000
vn -0.47090000 -0.85480000 -0.21790000
vn -0.36010000 -0.90170000 -0.23950000
vn 0.02700000 -0.04770000 -0.99850000
vn 0.19650000 -0.06070000 -0.97860000
vn -0.36740000 -0.86750000 -0.33540000
vn 0.16850000 0.03770000 -0.98500000
vn 0.85250000 -0.49050000 -0.18050000
vn -0.30840000 -0.94060000 -0.14200000
vn 0.04680000 -0.04910000 -0.99770000
vn 0.81750000 -0.56690000 -0.10140000
vn 0.71750000 -0.52280000 -0.46030000
vn 0.13960000 0.75300000 0.64300000
vn 0.13960000 0.75300000 0.64300000
vn 0.68520000 -0.40410000 -0.60600000
vn 0.68520000 -0.40410000 -0.60600000
vn 0.20000000 0.48400000 0.85190000
vn 0.78470000 -0.35910000 -0.50530000
vn 0.86490000 -0.08140000 -0.49540000
vn 0.73710000 -0.18700000 -0.64940000
vn 0.73710000 -0.18700000 -0.64940000
vn 0.75250000 0.11360000 -0.64870000
vn 0.75250000 0.11360000 -0.64870000
vn 0.66170000 -0.18370000 -0.72690000
vn 0.21520000 0.16990000 0.96170000
vn 0.69520000 0.38560000 -0.60660000
vn 0.69520000 0.38560000 -0.60660000
vn 0.22690000 -0.45460000 0.86130000
vn 0.16430000 -0.75680000 0.63260000
vn 0.16430000 -0.75680000 0.63260000
vn 0.67560000 0.53450000 -0.50780000
vn 0.19800000 -0.95200000 0.23320000
vn 0.65890000 0.64800000 -0.38200000
vn 0.27770000 -0.93790000 -0.20790000
vn -0.55300000 -0.81320000 0.18150000
vn -0.63730000 -0.76770000 0.06650000
vn 0.57810000 0.17600000 -0.79670000
vn -0.01850000 -0.97110000 -0.23780000
vn -0.68350000 -0.70650000 0.18370000
vn -0.24590000 -0.92910000 0.27640000
vn 0.46320000 -0.80580000 -0.36900000
vn -0.44160000 0.84820000 -0.29250000
vn -0.44160000 0.84820000 -0.29250000
vn -0.44160000 0.84820000 -0.29250000
vn 0.46320000 -0.80580000 -0.36900000
vn -0.43290000 0.84070000 -0.32550000
vn 0.51980000 0.20360000 -0.82970000
vn 0.14290000 -0.95340000 -0.26570000
vn 0.30540000 0.15350000 -0.93980000
vn -0.41460000 0.85320000 -0.31640000
vn -0.41460000 0.85320000 -0.31640000
vn 0.78560000 0.61600000 -0.05700000
vn -0.53580000 0.81950000 -0.20340000
vn 0.65740000 -0.58200000 -0.47870000
vn -0.81180000 -0.58390000 0.00290000
vn -0.81180000 -0.58390000 0.00290000
vn -0.77780000 -0.52460000 0.34610000
vn -0.77780000 -0.52460000 0.34610000
vn -0.78160000 -0.37130000 0.50120000
vn -0.78160000 -0.37130000 0.50120000
vn -0.78160000 -0.37130000 0.50120000
vn -0.71630000 -0.22570000 0.66030000
vn -0.71630000 -0.22570000 0.66030000
vn 0.88970000 -0.01280000 -0.45640000
vn -0.78750000 -0.59890000 -0.14530000
vn 0.67730000 0.10190000 -0.72860000
vn -0.68110000 -0.72630000 0.09280000
vn 0.67730000 0.10190000 -0.72860000
vn -0.35080000 0.75230000 0.55770000
vn -0.35080000 0.75230000 0.55770000
vn -0.35080000 0.75230000 0.55770000
vn 0.04230000 0.91670000 0.39740000
vn 0.80880000 -0.04300000 0.58660000
vn 0.26200000 0.50380000 -0.82320000
vt 0.69962200 0.69250100
vt 0.62283200 0.82485700
vt 0.69556500 0.68301900
vt 0.61481100 0.81866500
vt 0.71139400 0.70356400
vt 0.61743400 0.84082300
vt 0.61111600 0.82713500
vt 0.70284900 0.68434400
vt 0.70034600 0.70562200
vt 0.62554800 0.83894300
vt 0.71190000 0.69007300
vt 0.72629700 0.69273900
vt 0.90478800 0.38162000
vt 0.72632100 0.68124300
vt 0.89494000 0.38168000
vt 0.71646000 0.68119900
vt 0.71677200 0.69817900
vt 0.72810400 0.70115900
vt 0.72931600 0.70866600
vt 0.73835300 0.69598400
vt 0.74537900 0.69902600
vt 0.75214000 0.70194900
vt 0.62189600 0.02799600
vt 0.75030200 0.68509600
vt 0.74176700 0.68917000
vt 0.75703000 0.68538100
vt 0.93139500 0.63399100
vt 0.74339300 0.71291000
vt 0.63156400 0.03602000
vt 0.62774000 0.01985700
vt 0.63840600 0.04738300
vt 0.73003400 0.71499900
vt 0.64055800 0.03999900
vt 0.63541700 0.02293700
vt 0.64563700 0.03445600
vt 0.64694100 0.02342700
vt 0.65789100 0.03557100
vt 0.65902300 0.04447700
vt 0.65992700 0.05118600
vt 0.64944700 0.05017500
vt 0.72229400 0.72042100
vt 0.61873800 0.86433400
vt 0.67173000 0.05115200
vt 0.67496700 0.04242700
vt 0.66509700 0.03126100
vt 0.66978600 0.01471900
vt 0.65392800 0.01747200
vt 0.67612100 0.03069400
vt 0.68497400 0.04028100
vt 0.60438900 0.87369800
vt 0.68122300 0.02391600
vt 0.68957000 0.02531900
vt 0.93546800 0.91669100
vt 0.46090400 0.94699300
vt 0.59488700 0.87393900
vt 0.69157600 0.03563700
vt 0.46099900 0.96406900
vt 0.93681300 0.92459100
vt 0.68215000 0.01300300
vt 0.94868900 0.91728100
vt 0.68781200 0.00954000
vt 0.93139500 0.92261900
vt 0.46081500 0.95600400
vt 0.69332800 0.02683900
vt 0.45351600 0.94941600
vt 0.45292100 0.95950600
vt 0.97876100 0.09207200
vt 0.94035300 0.92733600
vt 0.94035300 0.92733600
vt 0.46083900 0.96855800
vt 0.99102400 0.08919200
vt 0.44386800 0.95551600
vt 0.97423400 0.10195800
vt 0.98462400 0.09530800
vt 0.45109700 0.96555500
vt 0.65092100 0.73836300
vt 0.98848900 0.10429100
vt 0.64934300 0.73230900
vt 0.98134600 0.10402200
vt 0.94944000 0.93548600
vt 0.99616600 0.09823500
vt 0.95365500 0.94309400
vt 0.99827300 0.10658700
vt 0.65501800 0.74437600
vt 0.65267500 0.74784300
vt 0.95750000 0.94332400
vt 0.94389900 0.92702600
vt 0.94389900 0.92702600
vt 0.95087200 0.92351200
vt 0.95087200 0.92351200
vt 0.95831800 0.92222000
vt 0.95831800 0.92222000
vt 0.96118200 0.91650000
vt 0.67990700 0.00000000
vt 0.95607200 0.48883600
vt 0.96147200 0.48582100
vt 0.96061200 0.92129500
vt 0.96061200 0.92129500
vt 0.96572000 0.47575700
vt 0.95954100 0.93219800
vt 0.95791700 0.47401900
vt 0.95363400 0.48093500
vt 0.94741100 0.48552700
vt 0.96396500 0.81755800
vt 0.94287700 0.47504100
vt 0.94925000 0.46962600
vt 0.64289900 0.73378900
vt 0.64807400 0.74382100
vt 0.96256800 0.46878900
vt 0.93903800 0.46928400
vt 0.63441200 0.72767100
vt 0.64273500 0.72530300
vt 0.63371000 0.71923800
vt 0.64912300 0.71982000
vt 0.99723400 0.21435500
vt 0.44144900 0.94995900
vt 0.97023900 0.10658700
vt 0.98912600 0.21240600
vt 0.65214600 0.70891800
vt 0.64498300 0.70846700
vt 0.99331000 0.20643400
vt 0.44581400 0.94347900
vt 0.45443100 0.93608800
vt 0.98524400 0.19786400
vt 0.98356800 0.20534900
vt 0.97690100 0.20566500
vt 0.96814000 0.45832400
vt 0.98302000 0.21247500
vt 0.65501800 0.70342800
vt 0.97128700 0.21435500
vt 0.96337200 0.44995300
vt 0.67872100 0.97180600
vt 0.76295600 0.97180600
vt 0.65362500 0.69597700
vt 0.96062500 0.45815500
vt 0.94804900 0.45171500
vt 0.65317200 0.68393200
vt 0.44101400 0.97180600
vt 0.59883900 0.83376800
vt 0.95702100 0.44611700
vt 0.64040600 0.69314600
vt 0.64055100 0.68099400
vt 0.94121000 0.45832400
vt 0.88406700 0.37403700
vt 0.62396100 0.70081000
vt 0.63054900 0.68748000
vt 0.62851500 0.70991100
vt 0.61671900 0.72425500
vt 0.98081600 0.54302300
vt 0.60792500 0.71022900
vt 0.97450100 0.54352400
vt 0.93139500 0.46774400
vt 0.62380400 0.72438400
vt 0.93301800 0.47752500
vt 0.94775600 0.81050200
vt 0.97023900 0.53551000
vt 0.97958300 0.53013100
vt 0.93745900 0.81561800
vt 0.94777700 0.81759400
vt 0.98667000 0.53382000
vt 0.93139500 0.82280100
vt 0.64170200 0.00199800
vt 0.98837000 0.52677900
vt 0.93970500 0.82201900
vt 0.65032600 0.00415300
vt 0.63609200 0.01111800
vt 0.66004600 0.01121600
vt 0.95361200 0.82178100
vt 0.66427700 0.00494500
vt 0.93926100 0.48396900
vt 0.95568800 0.81468200
vt 0.96262200 0.82280100
vt 0.94734500 0.49136200
vt 0.67304200 0.00323500
vt 0.63193200 0.00195400
vt 0.96099100 0.64344300
vt 0.94346800 0.62861100
vt 0.59408300 0.71736100
vt 0.94062800 0.63590900
vt 0.62473700 0.00831600
vt 0.95070300 0.64310900
vt 0.93948200 0.62768600
vt 0.59270300 0.71390200
vt 0.95333500 0.63009200
vt 0.59973300 0.72506700
vt 0.26613500 0.98544200
vt 0.96675800 0.64388300
vt 0.63734600 0.00000000
vt 0.99290900 0.53003800
vt 0.96534100 0.63404000
vt 0.26410400 0.97620200
vt 0.96275900 0.63024900
vt 0.60758700 0.73156600
vt 0.26518600 0.97226100
vt 0.26929300 0.97440300
vt 0.99240000 0.54231600
vt 0.99187000 0.53950200
vt 0.26933100 0.97718500
vt 0.98870200 0.54380000
vt 0.60946500 0.72601400
vt 0.26933100 0.97180600
vt 0.99290900 0.54493500
vt 0.60619500 0.72754600
vt 0.59291100 0.70559500
vt 0.75823800 0.67872000
vt 0.93187600 0.62768600
vt 0.59695600 0.69581500
vt 0.92853900 0.38334900
vt 0.75001600 0.67936100
vt 0.60488000 0.70032400
vt 0.61978400 0.69334700
vt 0.60941600 0.68944300
vt 0.91534800 0.37640100
vt 0.62392100 0.68136900
vt 0.89875400 0.37526000
vt 0.91464500 0.38165000
vt 0.73616700 0.68116400
vt 0.93139500 0.45140200
vt 0.88159200 0.38334900
vt 0.70306500 0.67951800
vt 0.69464900 0.67872000
vt 0.61090800 0.81609000
vt 0.93656500 0.44606600
vt 0.60458600 0.82216800
vt 0.94448300 0.44356800
vt 0.60422600 0.84754100
vt 0.60422600 0.84754100
vt 0.60047100 0.85593000
vt 0.97203600 0.19830700
vt 0.60047100 0.85593000
vt 0.61221100 0.85494500
vt 0.61050700 0.83961300
vt 0.59488700 0.84593900
vt 0.76746900 0.97508300
vt 0.67872100 0.97856600
vt 0.70694600 0.97809200
vt 0.44101400 0.98267500
vt 0.70694600 0.97180600
vt 0.97023900 0.20109500
vt 0.60008900 0.85222200
vt 0.97122500 0.20764300
vt 0.71082900 0.97673600
vt 0.76295600 0.97675500
vt 0.96689600 0.44823200
vt 0.68075600 0.97519200
vt 0.43812200 0.98094200
vt 0.60840200 0.86496600
vt 0.68241500 0.05007500
vt 0.66685900 0.05836100
vt 0.62192700 0.85406800
vt 0.65662500 0.05817600
vt 0.62858600 0.84996700
vt 0.70872400 0.71606900
vt 0.64679600 0.05714200
vt 0.71525600 0.71321600
vt 0.46099900 0.93660100
vt 0.59944100 0.86719200
vt 0.97462500 0.19664400
vt 0.60098300 0.85875700
vt 0.46056900 0.92826200
vt 0.62121500 0.01693200
vt 0.94213200 0.64416100
vt 0.76013400 0.69801900
vt 0.96743400 0.46774400
vt 0.64798000 0.74801500
vt 0.96118200 0.94030800
f 1/1/1 3/3/3 8/8/8
f 7/7/7 4/4/4 2/2/2
f 11/11/11 5/5/5 1/1/1
f 9/9/9 1/1/1 5/5/5
f 10/10/10 6/6/6 2/2/2
f 2/2/2 6/6/6 7/7/7
f 8/8/8 11/11/11 1/1/1
f 14/14/14 12/12/12 11/11/11
f 11/11/11 12/12/12 17/17/17
f 11/11/11 16/16/16 14/14/14
f 11/11/11 8/8/8 16/16/16
f 17/17/17 5/5/5 11/11/11
f 12/12/12 18/18/18 17/17/17
f 18/18/18 5/5/5 17/17/17
f 21/21/21 19/19/19 18/18/18
f 18/18/18 19/19/19 5/5/5
f 12/12/12 20/20/20 18/18/18
f 21/21/21 18/18/18 20/20/20
f 28/28/28 19/19/19 21/21/21
f 21/21/21 22/22/22 28/28/28
f 21/21/21 26/26/26 22/22/22
f 21/21/21 24/24/24 26/26/26
f 25/25/25 24/24/24 21/21/21
f 25/25/25 21/21/21 20/20/20
f 23/23/23 30/30/30 29/29/29
f 30/30/30 34/34/34 29/29/29
f 33/33/33 31/31/31 29/29/29
f 32/32/32 19/19/19 28/28/28
f 29/29/29 35/35/35 33/33/33
f 29/29/29 34/34/34 35/35/35
f 38/38/38 33/33/33 35/35/35
f 36/36/36 37/37/37 35/35/35
f 36/36/36 35/35/35 34/34/34
f 37/37/37 38/38/38 35/35/35
f 40/40/40 38/38/38 39/39/39
f 38/38/38 43/43/43 39/39/39
f 38/38/38 40/40/40 33/33/33
f 44/44/44 43/43/43 38/38/38
f 45/45/45 44/44/44 38/38/38
f 45/45/45 38/38/38 37/37/37
f 46/46/46 45/45/45 47/47/47
f 45/45/45 46/46/46 48/48/48
f 47/47/47 45/45/45 37/37/37
f 48/48/48 44/44/44 45/45/45
f 44/44/44 48/48/48 49/49/49
f 52/52/52 49/49/49 48/48/48
f 51/51/51 48/48/48 46/46/46
f 52/52/52 48/48/48 51/51/51
f 52/52/52 64/64/64 56/56/56
f 56/56/56 49/49/49 52/52/52
f 52/52/52 51/51/51 59/59/59
f 58/58/58 62/62/62 53/53/53
f 60/60/60 58/58/58 53/53/53
f 59/59/59 61/61/61 52/52/52
f 63/63/63 65/65/65 54/54/54
f 65/65/65 63/63/63 66/66/66
f 66/66/66 63/63/63 57/57/57
f 57/57/57 70/70/70 66/66/66
f 66/66/66 70/70/70 75/75/75
f 65/65/65 66/66/66 72/72/72
f 67/67/67 74/74/74 73/73/73
f 74/74/74 71/71/71 81/81/81
f 74/74/74 81/81/81 77/77/77
f 79/79/79 74/74/74 77/77/77
f 73/73/73 74/74/74 79/79/79
f 81/81/81 83/83/83 77/77/77
f 80/80/80 69/69/69 88/88/88
f 86/86/86 82/82/82 80/80/80
f 80/80/80 88/88/88 86/86/86
f 58/58/58 87/87/87 68/68/68
f 60/60/60 87/87/87 58/58/58
f 89/89/89 87/87/87 60/60/60
f 90/90/90 86/86/86 88/88/88
f 89/89/89 60/60/60 91/91/91
f 92/92/92 86/86/86 90/90/90
f 98/98/98 91/91/91 93/93/93
f 93/93/93 91/91/91 60/60/60
f 86/86/86 92/92/92 97/97/97
f 86/86/86 97/97/97 100/100/100
f 101/101/101 99/99/99 96/96/96
f 102/102/102 101/101/101 96/96/96
f 96/96/96 95/95/95 102/102/102
f 103/103/103 105/105/105 102/102/102
f 103/103/103 102/102/102 95/95/95
f 105/105/105 106/106/106 102/102/102
f 106/106/106 101/101/101 102/102/102
f 107/107/107 78/78/78 108/108/108
f 109/109/109 101/101/101 106/106/106
f 105/105/105 110/110/110 106/106/106
f 107/107/107 111/111/111 112/112/112
f 112/112/112 78/78/78 107/107/107
f 113/113/113 112/112/112 111/111/111
f 112/112/112 113/113/113 114/114/114
f 112/112/112 114/114/114 78/78/78
f 115/115/115 118/118/118 121/121/121
f 119/119/119 114/114/114 120/120/120
f 113/113/113 120/120/120 114/114/114
f 72/72/72 116/116/116 122/122/122
f 73/73/73 79/79/79 117/117/117
f 122/122/122 65/65/65 72/72/72
f 123/123/123 65/65/65 122/122/122
f 124/124/124 121/121/121 125/125/125
f 121/121/121 118/118/118 125/125/125
f 118/118/118 128/128/128 125/125/125
f 124/124/124 125/125/125 126/126/126
f 125/125/125 128/128/128 126/126/126
f 135/135/135 131/131/131 127/127/127
f 128/128/128 130/130/130 126/126/126
f 134/134/134 129/129/129 119/119/119
f 140/140/140 135/135/135 136/136/136
f 134/134/134 141/141/141 137/137/137
f 120/120/120 134/134/134 119/119/119
f 134/134/134 120/120/120 141/141/141
f 135/135/135 140/140/140 131/131/131
f 137/137/137 141/141/141 142/142/142
f 141/141/141 146/146/146 142/142/142
f 141/141/141 120/120/120 147/147/147
f 141/141/141 147/147/147 145/145/145
f 145/145/145 146/146/146 141/141/141
f 147/147/147 150/150/150 145/145/145
f 147/147/147 113/113/113 153/153/153
f 120/120/120 113/113/113 147/147/147
f 148/148/148 147/147/147 153/153/153
f 147/147/147 148/148/148 150/150/150
f 152/152/152 110/110/110 154/154/154
f 157/157/157 151/151/151 156/156/156
f 157/157/157 149/149/149 151/151/151
f 113/113/113 111/111/111 153/153/153
f 160/160/160 149/149/149 157/157/157
f 158/158/158 159/159/159 164/164/164
f 155/155/155 159/159/159 158/158/158
f 160/160/160 157/157/157 163/163/163
f 158/158/158 164/164/164 161/161/161
f 165/165/165 167/167/167 47/47/47
f 36/36/36 165/165/165 47/47/47
f 36/36/36 166/166/166 165/165/165
f 166/166/166 162/162/162 165/165/165
f 167/167/167 165/165/165 169/169/169
f 164/164/164 159/159/159 168/168/168
f 168/168/168 171/171/171 104/104/104
f 171/171/171 168/168/168 159/159/159
f 172/172/172 168/168/168 104/104/104
f 46/46/46 169/169/169 174/174/174
f 46/46/46 167/167/167 169/169/169
f 174/174/174 59/59/59 46/46/46
f 174/174/174 61/61/61 59/59/59
f 174/174/174 94/94/94 61/61/61
f 173/173/173 103/103/103 95/95/95
f 170/170/170 105/105/105 103/103/103
f 154/154/154 105/105/105 170/170/170
f 155/155/155 171/171/171 159/159/159
f 46/46/46 47/47/47 167/167/167
f 175/175/175 166/166/166 30/30/30
f 30/30/30 166/166/166 34/34/34
f 34/34/34 166/166/166 36/36/36
f 166/166/166 175/175/175 162/162/162
f 176/176/176 182/182/182 177/177/177
f 176/176/176 177/177/177 184/184/184
f 181/181/181 179/179/179 176/176/176
f 179/179/179 182/182/182 176/176/176
f 162/162/162 175/175/175 188/188/188
f 175/175/175 30/30/30 180/180/180
f 176/176/176 184/184/184 190/190/190
f 190/190/190 187/187/187 176/176/176
f 184/184/184 192/192/192 190/190/190
f 195/195/195 191/191/191 194/194/194
f 195/195/195 198/198/198 191/191/191
f 198/198/198 186/186/186 191/191/191
f 160/160/160 189/189/189 197/197/197
f 199/199/199 197/197/197 196/196/196
f 199/199/199 160/160/160 197/197/197
f 185/185/185 200/200/200 203/203/203
f 150/150/150 200/200/200 185/185/185
f 148/148/148 200/200/200 150/150/150
f 149/149/149 160/160/160 199/199/199
f 202/202/202 199/199/199 196/196/196
f 203/203/203 193/193/193 185/185/185
f 194/194/194 201/201/201 195/195/195
f 163/163/163 189/189/189 160/160/160
f 150/150/150 185/185/185 178/178/178
f 179/179/179 206/206/206 182/182/182
f 204/204/204 178/178/178 183/183/183
f 209/209/209 205/205/205 26/26/26
f 27/27/27 206/206/206 179/179/179
f 210/210/210 204/204/204 207/207/207
f 150/150/150 178/178/178 204/204/204
f 150/150/150 204/204/204 210/210/210
f 212/212/212 211/211/211 210/210/210
f 145/145/145 210/210/210 211/211/211
f 145/145/145 150/150/150 210/210/210
f 210/210/210 207/207/207 212/212/212
f 215/215/215 213/213/213 13/13/13
f 214/214/214 211/211/211 212/212/212
f 208/208/208 216/216/216 213/213/213
f 213/213/213 216/216/216 13/13/13
f 217/217/217 209/209/209 25/25/25
f 217/217/217 25/25/25 14/14/14
f 219/219/219 144/144/144 215/215/215
f 215/215/215 15/15/15 219/219/219
f 214/214/214 142/142/142 146/146/146
f 146/146/146 211/211/211 214/214/214
f 13/13/13 15/15/15 215/215/215
f 8/8/8 220/220/220 16/16/16
f 218/218/218 223/223/223 143/143/143
f 220/220/220 8/8/8 3/3/3
f 3/3/3 221/221/221 220/220/220
f 136/136/136 223/223/223 225/225/225
f 7/7/7 224/224/224 222/222/222
f 4/4/4 7/7/7 222/222/222
f 136/136/136 143/143/143 223/223/223
f 225/225/225 140/140/140 136/136/136
f 226/226/226 139/139/139 224/224/224
f 7/7/7 226/226/226 224/224/224
f 231/231/231 228/228/228 227/227/227
f 240/240/240 226/226/226 230/230/230
f 6/6/6 231/231/231 227/227/227
f 233/233/233 139/139/139 226/226/226
f 7/7/7 232/232/232 226/226/226
f 6/6/6 227/227/227 232/232/232
f 240/240/240 233/233/233 226/226/226
f 236/236/236 238/238/238 242/242/242
f 241/241/241 239/239/239 126/126/126
f 126/126/126 239/239/239 229/229/229
f 243/243/243 133/133/133 234/234/234
f 126/126/126 130/130/130 241/241/241
f 235/235/235 132/132/132 245/245/245
f 237/237/237 246/246/246 138/138/138
f 140/140/140 244/244/244 131/131/131
f 6/6/6 232/232/232 7/7/7
f 250/250/250 42/42/42 231/231/231
f 247/247/247 231/231/231 42/42/42
f 247/247/247 228/228/228 231/231/231
f 231/231/231 6/6/6 250/250/250
f 10/10/10 250/250/250 6/6/6
f 249/249/249 251/251/251 39/39/39
f 252/252/252 250/250/250 10/10/10
f 43/43/43 249/249/249 39/39/39
f 40/40/40 251/251/251 254/254/254
f 253/253/253 9/9/9 255/255/255
f 40/40/40 39/39/39 251/251/251
f 5/5/5 255/255/255 9/9/9
f 255/255/255 5/5/5 19/19/19
f 255/255/255 19/19/19 32/32/32
f 41/41/41 255/255/255 32/32/32
f 247/247/247 50/50/50 257/257/257
f 49/49/49 248/248/248 44/44/44
f 228/228/228 247/247/247 259/259/259
f 44/44/44 248/248/248 43/43/43
f 259/259/259 247/247/247 257/257/257
f 256/256/256 123/123/123 260/260/260
f 258/258/258 126/126/126 229/229/229
f 124/124/124 126/126/126 258/258/258
f 123/123/123 256/256/256 54/54/54
f 50/50/50 55/55/55 257/257/257
f 145/145/145 211/211/211 146/146/146
f 24/24/24 25/25/25 209/209/209
f 24/24/24 209/209/209 26/26/26
f 261/261/261 180/180/180 30/30/30
f 181/181/181 262/262/262 179/179/179
f 27/27/27 179/179/179 262/262/262
f 26/26/26 263/263/263 22/22/22
f 23/23/23 261/261/261 30/30/30
f 110/110/110 105/105/105 154/154/154
f 123/123/123 54/54/54 65/65/65
f 109/109/109 264/264/264 99/99/99
f 101/101/101 109/109/109 99/99/99
f 108/108/108 85/85/85 265/265/265
f 85/85/85 108/108/108 84/84/84
f 108/108/108 78/78/78 76/76/76
f 108/108/108 76/76/76 84/84/84
f 100/100/100 266/266/266 86/86/86
f 59/59/59 51/51/51 46/46/46
f 47/47/47 37/37/37 36/36/36
f 33/33/33 40/40/40 31/31/31
f 12/12/12 25/25/25 20/20/20
f 25/25/25 12/12/12 14/14/14

