# ('FARMS composite mesh',)
mtllib link_body_34_composite.mtl
usemtl link_body_34_composite
v -1.83865300 -1.17442700 -0.66075000
v -0.04407500 -1.30446200 -1.90603300
v -0.04407500 -1.30446200 -1.90603300
v -3.12214600 -1.16875300 -1.09037200
v -3.22669200 -0.20322800 3.93003200
v -3.22669200 -0.20322800 3.93003200
v -3.22669200 -0.20322800 3.93003200
v -0.38633000 -1.06296100 -0.10467100
v -0.38633000 -1.06296100 -0.10467100
v -0.23999800 -0.74115300 1.40950300
v -0.23999800 -0.74115300 1.40950300
v -2.14872700 -1.28074600 -2.71181500
v -0.28102900 -1.19784100 -1.11548000
v -0.28102900 -1.19784100 -1.11548000
v -0.39354700 0.00000100 -1.14484700
v -0.06671900 -0.94683400 -2.13031100
v -0.47766100 -0.00000000 -0.12000000
v -0.14443200 0.00000100 -2.13031100
v 0.26010100 0.00000000 -3.03851800
v -0.06671900 0.94683500 -2.13031100
v -0.27579500 1.20045200 -1.11814700
v -0.27579500 1.20045200 -1.11814700
v 0.37735700 1.10892400 -3.02233200
v 0.37735700 1.10892400 -3.02233200
v 0.88835100 0.88366400 -3.82365100
v 0.88835100 0.88366400 -3.82365100
v 0.88835100 0.88366400 -3.82365100
v -0.04586800 1.30407500 -1.90793300
v -0.04586800 1.30407500 -1.90793300
v -2.14972600 1.28067300 -2.71233200
v -3.17212600 0.83169900 -3.91460200
v -3.17212600 0.83169900 -3.91460200
v -3.17212600 0.83169900 -3.91460200
v -2.47136600 0.62949800 -4.61779500
v -2.47136600 0.62949800 -4.61779500
v -3.12214600 1.16875100 -1.09037200
v -4.17774100 1.02492400 -2.07769000
v -4.17774100 1.02492400 -2.07769000
v -3.76833300 0.97634900 -3.01493100
v -3.76833300 0.97634900 -3.01493100
v -1.83865300 1.17442600 -0.66074900
v -3.23802100 0.20971700 3.90704300
v -3.23802100 0.20971700 3.90704300
v -3.23802100 0.20971700 3.90704300
v -0.38664200 1.06323100 -0.10746200
v -0.38664200 1.06323100 -0.10746200
v -0.24007400 0.74023400 1.40950300
v -0.24007400 0.74023400 1.40950300
v -0.14443200 0.00000100 1.89031100
v 0.31629200 0.41978300 2.87682300
v 0.31629200 0.41978300 2.87682300
v -0.39354700 0.00000100 0.90484800
v 0.29684400 -0.44765500 2.79851900
v 0.29684400 -0.44765500 2.79851900
v 0.87273400 -0.27557600 3.66146400
v 0.87273400 -0.27557600 3.66146400
v 0.87273400 -0.27557600 3.66146400
v 0.89789600 0.27250900 3.67792300
v 0.89789600 0.27250900 3.67792300
v 0.89789600 0.27250900 3.67792300
v 1.43502000 0.00000400 4.21570500
v 1.43502000 0.00000400 4.21570500
v 1.43502000 0.00000400 4.21570500
v 1.43502000 0.00000400 4.21570500
v -2.80323700 0.04660700 4.34826200
v -2.80323700 0.04660700 4.34826200
v -2.80323700 0.04660700 4.34826200
v -2.80323700 -0.04660800 4.34826200
v -2.80323700 -0.04660800 4.34826200
v -2.80323700 -0.04660800 4.34826200
v -3.82803300 -0.00000100 3.06947300
v -3.79824800 0.30663900 3.07653900
v -3.79824800 0.30663900 3.07653900
v -3.79824800 0.30663900 3.07653900
v -4.46572000 0.54630300 1.10060500
v -4.46572000 0.54630300 1.10060500
v -4.46572000 0.54630300 1.10060500
v -4.23109300 0.33207600 2.11663400
v -4.23109300 0.33207600 2.11663400
v -4.22445600 -0.35394600 2.11430000
v -4.22445600 -0.35394600 2.11430000
v -4.51551000 0.00000000 1.07786000
v -4.60398000 0.00000000 -0.00000000
v -4.46896300 -0.54980000 1.08479100
v -4.46896300 -0.54980000 1.08479100
v -4.41025400 -0.98876300 -1.22232900
v -4.41025400 -0.98876300 -1.22232900
v -3.79825500 -0.30660200 3.07654500
v -3.79825500 -0.30660200 3.07654500
v -4.54515000 -0.71668600 0.00083000
v -4.54515000 -0.71668600 0.00083000
v -4.51551000 0.00000000 -1.07786000
v -4.25350900 0.00000000 -2.11429500
v -4.39311100 0.99688500 -1.27376100
v -4.39311100 0.99688500 -1.27376100
v -4.54437200 0.72473600 -0.00155600
v -4.54437200 0.72473600 -0.00155600
v -3.82803300 -0.00000100 -3.06947400
v -4.17774100 -1.02492600 -2.07768700
v -4.17774100 -1.02492600 -2.07768700
v -3.76833300 -0.97634900 -3.01493100
v -3.76833300 -0.97634900 -3.01493100
v -3.17223300 -0.83175000 -3.91445900
v -3.17223300 -0.83175000 -3.91445900
v -3.17223300 -0.83175000 -3.91445900
v -3.25544700 0.00000000 -3.90668600
v -3.25544700 0.00000000 -3.90668600
v -2.55775400 -0.00000100 -4.59375900
v -2.47136600 -0.62949900 -4.61779500
v -2.47136600 -0.62949900 -4.61779500
v 0.89891000 -0.88030500 -3.83936000
v 0.89891000 -0.88030500 -3.83936000
v 0.89891000 -0.88030500 -3.83936000
v -1.68419600 -0.39161900 -5.13493100
v -1.68419600 -0.39161900 -5.13493100
v 1.86329600 -0.07059400 -5.34660500
v 1.86329600 -0.07059400 -5.34660500
v -0.87674000 0.13770900 -5.42158000
v -0.87674000 0.13770900 -5.42158000
v -1.65387000 0.38565400 -5.14324600
v -1.65387000 0.38565400 -5.14324600
v 2.24769500 -0.30471500 -4.97756700
v 2.24769500 -0.30471500 -4.97756700
v 1.52782400 -0.61783000 -4.48945500
v 1.52782400 -0.61783000 -4.48945500
v -0.86772900 -0.13628500 -5.42270700
v -0.86772900 -0.13628500 -5.42270700
v -0.39564500 -0.00000000 -5.47794800
v 1.86337200 0.06991000 -5.34662100
v 1.86337200 0.06991000 -5.34662100
v 2.24887000 0.30965000 -4.97327200
v 2.24887000 0.30965000 -4.97327200
v 2.60444600 0.14523600 -5.10767200
v 2.60444600 0.14523600 -5.10767200
v 2.60444600 0.14523600 -5.10767200
v 2.60444600 0.14523600 -5.10767200
v 2.51258800 0.00083600 -5.22661600
v 2.51258800 0.00083600 -5.22661600
v 2.51258800 0.00083600 -5.22661600
v 2.51258800 0.00083600 -5.22661600
v 2.64068600 -0.10270000 -5.12409200
v 2.64068600 -0.10270000 -5.12409200
v 2.64068600 -0.10270000 -5.12409200
v 2.64068600 -0.10270000 -5.12409200
v 1.52225500 0.62306800 -4.48505500
v 1.52225500 0.62306800 -4.48505500
v 1.46789500 0.00000000 -4.48787100
v 0.80451900 0.00000000 -3.83456900
v 0.80451900 0.00000000 -3.83456900
v 0.38924400 -1.10577600 -3.03960500
v 0.38924400 -1.10577600 -3.03960500
vn -0.02380000 -0.99010000 0.13820000
vn 0.01920000 -0.99940000 -0.02890000
vn 0.92330000 0.24430000 0.29640000
vn -0.10070000 -0.99030000 0.09570000
vn -0.77150000 0.00580000 0.63620000
vn -0.77150000 0.00580000 0.63620000
vn -0.02600000 -0.97000000 0.24180000
vn 0.99560000 0.09330000 0.00610000
vn 0.00670000 -0.98370000 0.17980000
vn 0.96770000 0.09100000 -0.23520000
vn -0.00220000 -0.97830000 0.20700000
vn -0.04830000 -0.98880000 -0.14130000
vn 0.97990000 0.10540000 0.16950000
vn 0.02570000 -0.99000000 0.13900000
vn 0.98610000 -0.00020000 0.16600000
vn 0.92710000 0.16800000 0.33510000
vn 1.00000000 0.00140000 0.00180000
vn 0.94590000 -0.00400000 0.32430000
vn 0.87360000 -0.00300000 0.48660000
vn 0.92790000 -0.15970000 0.33690000
vn 0.97900000 -0.10900000 0.17200000
vn 0.02360000 0.99030000 0.13690000
vn 0.03940000 0.97490000 -0.21900000
vn 0.87100000 -0.11420000 0.47790000
vn 0.01260000 0.94190000 -0.33580000
vn 0.77630000 -0.08450000 0.62470000
vn 0.77630000 -0.08450000 0.62470000
vn 0.01860000 0.99940000 -0.02940000
vn 0.92680000 -0.23590000 0.29210000
vn -0.04820000 0.98880000 -0.14140000
vn -0.08300000 0.95460000 -0.28600000
vn -0.76940000 0.07100000 -0.63480000
vn -0.76940000 0.07100000 -0.63480000
vn -0.00510000 0.93980000 -0.34160000
vn -0.62060000 0.04840000 -0.78260000
vn -0.10100000 0.99030000 0.09600000
vn -0.94080000 0.08130000 -0.32910000
vn -0.13990000 0.98940000 -0.03850000
vn -0.15110000 0.97360000 -0.17110000
vn -0.87420000 0.08030000 -0.47900000
vn -0.02380000 0.99010000 0.13810000
vn -0.77570000 0.01970000 0.63070000
vn -0.77570000 0.01970000 0.63070000
vn -0.02650000 0.97030000 0.24030000
vn 0.99530000 -0.09700000 0.00480000
vn 0.00640000 0.98350000 0.18080000
vn 0.96820000 -0.08990000 -0.23330000
vn -0.00010000 0.97800000 0.20870000
vn 0.93850000 0.00240000 -0.34520000
vn 0.87250000 -0.00870000 -0.48860000
vn -0.00100000 0.98050000 0.19650000
vn 0.98880000 -0.00000000 -0.14950000
vn 0.87830000 0.04580000 -0.47600000
vn -0.00290000 -0.97930000 0.20240000
vn 0.01390000 -0.93590000 0.35210000
vn 0.77520000 -0.00240000 -0.63170000
vn 0.77520000 -0.00240000 -0.63170000
vn 0.76510000 -0.01580000 -0.64370000
vn 0.01410000 0.93480000 0.35490000
vn 0.76510000 -0.01580000 -0.64370000
vn 0.02330000 -0.90440000 0.42610000
vn 0.70470000 -0.01100000 -0.70940000
vn 0.02350000 0.90100000 0.43310000
vn 0.03130000 -0.00000000 0.99950000
vn 0.03130000 -0.00000000 0.99950000
vn 0.00610000 0.93700000 0.34920000
vn -0.70480000 0.00710000 0.70940000
vn 0.00730000 -0.93620000 0.35130000
vn 0.03130000 -0.00000000 0.99950000
vn -0.70270000 -0.00000000 0.71150000
vn -0.87510000 -0.00040000 0.48390000
vn -0.86890000 0.07310000 0.48960000
vn -0.13860000 0.97210000 0.18950000
vn -0.13860000 0.97210000 0.18950000
vn -0.98440000 0.08220000 0.15530000
vn -0.18850000 0.96520000 0.18110000
vn -0.18850000 0.96520000 0.18110000
vn -0.94670000 0.01090000 0.32180000
vn -0.61350000 0.73210000 0.29600000
vn -0.94640000 -0.02680000 0.32190000
vn -0.54340000 -0.79150000 0.27960000
vn -0.98660000 0.00020000 0.16330000
vn -1.00000000 0.00030000 0.00060000
vn -0.98440000 -0.08100000 0.15630000
vn -0.18430000 -0.96630000 0.17970000
vn -0.15350000 -0.98320000 0.09860000
vn -0.97910000 -0.08160000 -0.18650000
vn -0.87120000 -0.07340000 0.48550000
vn -0.12890000 -0.97360000 0.18840000
vn -0.34960000 -0.92200000 0.16650000
vn -0.99640000 -0.08460000 -0.01080000
vn -0.98740000 0.00280000 -0.15840000
vn -0.94410000 0.00040000 -0.32960000
vn -0.14970000 0.98430000 0.09310000
vn -0.97790000 0.08630000 -0.19060000
vn -0.99610000 0.08730000 -0.01200000
vn -0.25980000 0.95020000 0.17240000
vn -0.87250000 -0.00000000 -0.48860000
vn -0.94020000 -0.08130000 -0.33080000
vn -0.14160000 -0.98920000 -0.03640000
vn -0.87420000 -0.08030000 -0.47900000
vn -0.15100000 -0.97360000 -0.17100000
vn -0.76940000 -0.07100000 -0.63480000
vn -0.08290000 -0.95470000 -0.28590000
vn -0.76940000 -0.07100000 -0.63480000
vn -0.77000000 -0.00000000 -0.63810000
vn -0.77000000 -0.00000000 -0.63810000
vn -0.62410000 0.00370000 -0.78130000
vn -0.62760000 -0.05520000 -0.77660000
vn -0.00570000 -0.93990000 -0.34130000
vn 0.01370000 -0.94070000 -0.33890000
vn 0.77420000 0.08190000 0.62760000
vn 0.77420000 0.08190000 0.62760000
vn -0.45620000 0.00070000 -0.88990000
vn 0.02400000 -0.90340000 -0.42820000
vn 0.10550000 -0.45110000 -0.88620000
vn 0.10550000 -0.45110000 -0.88620000
vn -0.12260000 0.41580000 -0.90110000
vn -0.12260000 0.41580000 -0.90110000
vn 0.02460000 0.90280000 -0.42940000
vn -0.45500000 0.00820000 -0.89050000
vn 0.09980000 -0.80000000 -0.59170000
vn 0.47020000 0.00560000 0.88260000
vn 0.02940000 -0.88860000 -0.45770000
vn 0.63990000 0.06010000 0.76610000
vn -0.11880000 -0.42000000 -0.89970000
vn -0.11880000 -0.42000000 -0.89970000
vn 0.02530000 0.00200000 -0.99970000
vn 0.10330000 0.44810000 -0.88800000
vn 0.10330000 0.44810000 -0.88800000
vn 0.08410000 0.80710000 -0.58440000
vn 0.46750000 -0.01720000 0.88380000
vn 0.16790000 0.66290000 -0.72960000
vn 0.16790000 0.66290000 -0.72960000
vn 0.68800000 0.14760000 -0.71050000
vn 0.34910000 -0.01100000 0.93700000
vn 0.21000000 -0.54440000 -0.81210000
vn 0.68800000 0.14760000 -0.71050000
vn 0.18170000 -0.00020000 -0.98330000
vn 0.20820000 0.53950000 -0.81580000
vn 0.35140000 -0.00850000 0.93620000
vn 0.17930000 -0.66730000 -0.72290000
vn 0.68800000 0.14760000 -0.71050000
vn 0.17930000 -0.66730000 -0.72290000
vn 0.63830000 -0.06220000 0.76730000
vn 0.02800000 0.88950000 -0.45610000
vn 0.62880000 0.00050000 0.77760000
vn 0.77020000 0.00010000 0.63780000
vn 0.77020000 0.00010000 0.63780000
vn 0.03880000 -0.97470000 -0.22010000
vn 0.86640000 0.12180000 0.48420000
vt 0.41598400 0.84470100
vt 0.40524000 0.85335200
vt 0.22422200 0.95811800
vt 0.42477200 0.84575300
vt 0.88159200 0.91020000
vt 0.93052400 0.92826200
vt 0.42138800 0.81798400
vt 0.22174500 0.94869200
vt 0.40600400 0.84310300
vt 0.21859700 0.94066000
vt 0.40382200 0.83490000
vt 0.41973900 0.85562800
vt 0.22321600 0.95402500
vt 0.40614500 0.84876600
vt 0.21686600 0.95532100
vt 0.22249500 0.95967400
vt 0.21609300 0.94977900
vt 0.21744600 0.96056600
vt 0.21780800 0.96531400
vt 0.21224400 0.96138200
vt 0.21023100 0.95620000
vt 0.57806700 0.84832600
vt 0.58085800 0.85937700
vt 0.21167700 0.96616800
vt 0.58384400 0.86425800
vt 0.21306600 0.97007800
vt 0.28506600 0.97499300
vt 0.57870700 0.85286200
vt 0.21010400 0.96048200
vt 0.56512400 0.85532800
vt 0.55873400 0.86100400
vt 0.92525800 0.90814100
vt 0.96919500 0.07634600
vt 0.56292400 0.86552100
vt 0.96471300 0.07480500
vt 0.56052500 0.84554300
vt 0.91483100 0.90898800
vt 0.55352000 0.84999000
vt 0.55544500 0.85551000
vt 0.92013100 0.90857100
vt 0.56878200 0.84437400
vt 0.88185400 0.90814100
vt 0.92823600 0.92826200
vt 0.56533300 0.81809700
vt 0.21023800 0.95062500
vt 0.57839200 0.84269000
vt 0.21057700 0.94199700
vt 0.58103700 0.83452900
vt 0.21409000 0.93866200
vt 0.21054400 0.93343900
vt 0.58617600 0.82701900
vt 0.21515600 0.94415400
vt 0.21532400 0.93309200
vt 0.39917800 0.82778300
vt 0.39470100 0.82360800
vt 0.81559800 0.97548300
vt 0.21311000 0.92826200
vt 0.21010400 0.92865400
vt 0.59065100 0.82317400
vt 0.81256000 0.97548300
vt 0.39059600 0.82108500
vt 0.81391900 0.97180600
vt 0.59488700 0.82074000
vt 0.93042500 0.95925100
vt 0.92925200 0.93110900
vt 0.56865900 0.81609000
vt 0.92925200 0.93110900
vt 0.41828500 0.81609000
vt 0.92976800 0.93109200
vt 0.92976800 0.93109200
vt 0.88619900 0.91109500
vt 0.88627400 0.90945700
vt 0.88627400 0.90945700
vt 0.56106300 0.82212600
vt 0.89702600 0.91081300
vt 0.89702600 0.91081300
vt 0.55500600 0.83232700
vt 0.89142800 0.91086000
vt 0.89142800 0.91086000
vt 0.89121100 0.91432800
vt 0.42944700 0.82693900
vt 0.89694900 0.91372700
vt 0.90286700 0.91441600
vt 0.89674100 0.91639600
vt 0.43188600 0.83236400
vt 0.43337300 0.84513600
vt 0.90934800 0.91945600
vt 0.88606600 0.91257200
vt 0.42584200 0.82209700
vt 0.43327300 0.83825100
vt 0.90264100 0.91790300
vt 0.90884700 0.91464500
vt 0.91466000 0.91440600
vt 0.55284000 0.84538400
vt 0.91030800 0.90934700
vt 0.90314100 0.91058000
vt 0.55336200 0.83828600
vt 0.92008100 0.91370900
vt 0.91413800 0.91940000
vt 0.43256600 0.85005600
vt 0.91947200 0.91849000
vt 0.43068500 0.85558500
vt 0.92469500 0.91659200
vt 0.42756700 0.86107500
vt 0.97018300 0.06718900
vt 0.97023900 0.07182600
vt 0.92490400 0.91257900
vt 0.96565700 0.07139900
vt 0.96546100 0.06787500
vt 0.42360500 0.86558500
vt 0.40077900 0.86478600
vt 0.22261800 0.96856700
vt 0.29429900 0.97180600
vt 0.96013900 0.06867600
vt 0.41892700 0.86915700
vt 0.39589200 0.87382800
vt 0.93652100 0.06794100
vt 0.95450200 0.07104500
vt 0.57311400 0.87143600
vt 0.56804800 0.86917500
vt 0.95947800 0.07293400
vt 0.39301000 0.87224800
vt 0.29424100 0.98136000
vt 0.39725600 0.86891900
vt 0.29429900 0.97625400
vt 0.41386500 0.87150000
vt 0.95460500 0.06953000
vt 0.95140800 0.06995000
vt 0.59026100 0.87356300
vt 0.93643700 0.06871400
vt 0.59247900 0.87185700
vt 0.29103600 0.98250000
vt 0.59488700 0.87293400
vt 0.93148700 0.06857800
vt 0.93148700 0.06857800
vt 0.29267700 0.98443000
vt 0.93218400 0.06786000
vt 0.93218400 0.06786000
vt 0.93218400 0.06786000
vt 0.93218400 0.06786000
vt 0.29405200 0.98420000
vt 0.93139500 0.06718900
vt 0.93139500 0.06718900
vt 0.39059600 0.87340300
vt 0.28780800 0.97850800
vt 0.58776000 0.86848800
vt 0.29094000 0.97701800
vt 0.28949400 0.97283800
vt 0.21794100 0.96938200
vt 0.40339900 0.85994600
vt 0.22366900 0.96425900
f 1/1/1 2/2/2 14/14/14
f 12/12/12 2/2/2 1/1/1
f 4/4/4 1/1/1 7/7/7
f 12/12/12 1/1/1 4/4/4
f 7/7/7 1/1/1 11/11/11
f 14/14/14 9/9/9 1/1/1
f 1/1/1 9/9/9 11/11/11
f 13/13/13 15/15/15 17/17/17
f 13/13/13 18/18/18 15/15/15
f 13/13/13 16/16/16 18/18/18
f 16/16/16 13/13/13 3/3/3
f 13/13/13 17/17/17 8/8/8
f 18/18/18 21/21/21 15/15/15
f 16/16/16 19/19/19 18/18/18
f 18/18/18 19/19/19 24/24/24
f 18/18/18 20/20/20 21/21/21
f 18/18/18 24/24/24 20/20/20
f 24/24/24 29/29/29 20/20/20
f 19/19/19 26/26/26 24/24/24
f 30/30/30 23/23/23 25/25/25
f 28/28/28 23/23/23 30/30/30
f 31/31/31 39/39/39 30/30/30
f 31/31/31 30/30/30 34/34/34
f 25/25/25 34/34/34 30/30/30
f 41/41/41 30/30/30 36/36/36
f 36/36/36 30/30/30 38/38/38
f 41/41/41 28/28/28 30/30/30
f 30/30/30 39/39/39 38/38/38
f 41/41/41 36/36/36 44/44/44
f 28/28/28 41/41/41 22/22/22
f 41/41/41 44/44/44 48/48/48
f 41/41/41 46/46/46 22/22/22
f 46/46/46 41/41/41 48/48/48
f 47/47/47 49/49/49 52/52/52
f 50/50/50 49/49/49 47/47/47
f 44/44/44 51/51/51 48/48/48
f 45/45/45 47/47/47 52/52/52
f 52/52/52 49/49/49 10/10/10
f 52/52/52 17/17/17 45/45/45
f 52/52/52 8/8/8 17/17/17
f 10/10/10 8/8/8 52/52/52
f 49/49/49 50/50/50 53/53/53
f 50/50/50 57/57/57 53/53/53
f 44/44/44 59/59/59 51/51/51
f 58/58/58 57/57/57 50/50/50
f 60/60/60 62/62/62 56/56/56
f 66/66/66 63/63/63 59/59/59
f 66/66/66 59/59/59 44/44/44
f 6/6/6 70/70/70 67/67/67
f 43/43/43 6/6/6 67/67/67
f 65/65/65 69/69/69 64/64/64
f 55/55/55 68/68/68 7/7/7
f 68/68/68 55/55/55 61/61/61
f 54/54/54 55/55/55 7/7/7
f 11/11/11 54/54/54 7/7/7
f 49/49/49 53/53/53 10/10/10
f 15/15/15 45/45/45 17/17/17
f 15/15/15 21/21/21 45/45/45
f 71/71/71 5/5/5 42/42/42
f 72/72/72 71/71/71 42/42/42
f 36/36/36 74/74/74 44/44/44
f 76/76/76 79/79/79 73/73/73
f 77/77/77 74/74/74 36/36/36
f 71/71/71 72/72/72 78/78/78
f 82/82/82 80/80/80 78/78/78
f 78/78/78 80/80/80 71/71/71
f 82/82/82 78/78/78 75/75/75
f 84/84/84 82/82/82 83/83/83
f 83/83/83 82/82/82 75/75/75
f 84/84/84 80/80/80 82/82/82
f 90/90/90 86/86/86 85/85/85
f 85/85/85 86/86/86 4/4/4
f 89/89/89 85/85/85 4/4/4
f 81/81/81 85/85/85 89/89/89
f 84/84/84 83/83/83 91/91/91
f 91/91/91 92/92/92 87/87/87
f 91/91/91 83/83/83 92/92/92
f 93/93/93 92/92/92 95/95/95
f 93/93/93 87/87/87 92/92/92
f 96/96/96 92/92/92 83/83/83
f 96/96/96 95/95/95 92/92/92
f 75/75/75 96/96/96 83/83/83
f 94/94/94 97/97/97 77/77/77
f 94/94/94 77/77/77 36/36/36
f 38/38/38 94/94/94 36/36/36
f 93/93/93 95/95/95 37/37/37
f 93/93/93 98/98/98 101/101/101
f 40/40/40 98/98/98 93/93/93
f 93/93/93 99/99/99 87/87/87
f 93/93/93 101/101/101 99/99/99
f 40/40/40 93/93/93 37/37/37
f 107/107/107 101/101/101 98/98/98
f 104/104/104 12/12/12 102/102/102
f 102/102/102 12/12/12 100/100/100
f 107/107/107 103/103/103 101/101/101
f 40/40/40 32/32/32 107/107/107
f 106/106/106 33/33/33 35/35/35
f 40/40/40 107/107/107 98/98/98
f 109/109/109 105/105/105 106/106/106
f 109/109/109 106/106/106 108/108/108
f 106/106/106 35/35/35 108/108/108
f 104/104/104 110/110/110 12/12/12
f 12/12/12 110/110/110 111/111/111
f 109/109/109 108/108/108 114/114/114
f 111/111/111 110/110/110 115/115/115
f 35/35/35 114/114/114 108/108/108
f 115/115/115 116/116/116 122/122/122
f 115/115/115 126/126/126 116/116/116
f 114/114/114 118/118/118 127/127/127
f 118/118/118 114/114/114 121/121/121
f 35/35/35 121/121/121 114/114/114
f 115/115/115 122/122/122 124/124/124
f 124/124/124 111/111/111 115/115/115
f 118/118/118 128/128/128 127/127/127
f 127/127/127 128/128/128 117/117/117
f 128/128/128 118/118/118 130/130/130
f 130/130/130 117/117/117 128/128/128
f 131/131/131 129/129/129 120/120/120
f 129/129/129 131/131/131 133/133/133
f 130/130/130 134/134/134 140/140/140
f 139/139/139 117/117/117 130/130/130
f 119/119/119 120/120/120 129/129/129
f 138/138/138 135/135/135 143/143/143
f 137/137/137 142/142/142 117/117/117
f 116/116/116 144/144/144 122/122/122
f 123/123/123 141/141/141 132/132/132
f 132/132/132 141/141/141 136/136/136
f 132/132/132 145/145/145 147/147/147
f 120/120/120 146/146/146 131/131/131
f 147/147/147 123/123/123 132/132/132
f 147/147/147 125/125/125 123/123/123
f 148/148/148 147/147/147 145/145/145
f 113/113/113 147/147/147 148/148/148
f 113/113/113 125/125/125 147/147/147
f 19/19/19 149/149/149 26/26/26
f 148/148/148 145/145/145 27/27/27
f 112/112/112 149/149/149 19/19/19
f 25/25/25 146/146/146 120/120/120
f 120/120/120 34/34/34 25/25/25
f 12/12/12 111/111/111 150/150/150
f 112/112/112 19/19/19 151/151/151
f 16/16/16 3/3/3 151/151/151
f 2/2/2 12/12/12 150/150/150
f 16/16/16 151/151/151 19/19/19
f 86/86/86 100/100/100 4/4/4
f 4/4/4 100/100/100 12/12/12
f 80/80/80 88/88/88 71/71/71
f 71/71/71 88/88/88 5/5/5
f 89/89/89 4/4/4 7/7/7
f 29/29/29 21/21/21 20/20/20

