# Blender 4.1.1
# www.blender.org
mtllib link_body_30.mtl
o link_body_30
v -1.212814 -0.045779 5.346311
v 1.568699 -0.106746 4.937712
v 1.544780 -0.054787 5.024941
v -1.208080 0.045464 5.346211
v -2.165614 -0.056707 5.215221
v 1.198692 -0.253144 4.687550
v -2.693549 -0.231941 4.866720
v -2.164787 0.056314 5.215861
v -2.709731 -0.000940 4.869699
v -2.693580 0.231939 4.866755
v -3.421576 0.477696 4.127610
v 1.199856 0.253549 4.688481
v 1.567196 0.106262 4.936825
v 0.509674 0.421233 3.989881
v 1.209076 0.000000 4.712708
v 0.475101 0.000001 3.989881
v 0.509674 -0.421233 3.989881
v -0.127254 -0.000000 3.109113
v -0.574844 0.000001 2.104252
v -0.077171 -0.610173 3.109113
v -0.077171 0.610173 3.109113
v -0.508015 0.814240 2.104252
v -0.766994 1.017021 1.013914
v -0.850467 0.000001 1.013914
v -0.943535 0.000001 -0.120000
v -0.766994 -1.017021 1.013914
v -0.836941 -1.207584 -0.084049
v -0.508015 -0.814240 2.104252
v -0.837753 1.208972 -0.094202
v -0.759189 1.112126 -1.253914
v -3.342574 1.635822 -1.663860
v -0.850467 0.000001 -1.253914
v -0.689300 1.392291 -1.246105
v -0.392738 1.470540 -2.309535
v 0.015797 1.351033 -3.274471
v -1.920257 1.528315 -2.928123
v -0.488861 1.047599 -2.344251
v -0.049870 0.942815 -3.349113
v -0.574844 0.000001 -2.344251
v -0.127255 -0.000000 -3.349113
v -0.488861 -1.047598 -2.344251
v -0.759189 -1.112123 -1.253914
v -0.049870 -0.942814 -3.349113
v -0.376785 -1.464188 -2.360495
v -0.674396 -1.410590 -1.303518
v -3.342574 -1.635823 -1.663860
v -3.421576 -0.477695 4.127610
v -3.840304 -1.552613 -3.230982
v -4.595664 -1.545357 -1.066722
v -1.920257 -1.528316 -2.928123
v -4.274233 -1.631606 -2.244182
v -4.420367 -1.639293 -1.683121
v -4.693713 -1.120365 -1.142345
v -4.421370 -1.055358 -2.240788
v -4.507987 0.000001 -2.240788
v -3.979106 -0.949792 -3.253112
v -4.057059 -0.000001 -3.253112
v -3.979106 0.949792 -3.253112
v -3.450221 0.000001 -4.140413
v -3.383925 0.807726 -4.140413
v -3.383925 -0.807725 -4.140413
v -2.603450 -0.835450 -4.876430
v -3.278346 -1.230411 -4.138819
v -2.710780 -0.000000 -4.868592
v -1.836765 -0.474271 -5.404715
v -1.856861 0.261599 -5.413366
v -2.607001 0.831966 -4.875710
v 2.076064 0.364380 -5.494794
v -1.820228 0.476242 -5.411117
v 2.558211 0.244576 -5.668915
v -3.279792 1.231765 -4.136643
v 0.582321 0.993589 -4.229411
v -3.841155 1.550804 -3.230498
v 1.266017 0.649892 -4.954174
v 1.209075 0.000000 -4.952708
v 0.475101 0.000001 -4.229881
v 0.540909 -0.801797 -4.229881
v 0.670585 -1.314775 -4.229881
v 1.260780 -0.629967 -4.952708
v 0.064205 -1.394081 -3.349113
v 2.107658 -0.532892 -5.494091
v 1.413909 -1.235726 -4.952708
v -0.923820 -0.426954 -5.742101
v 1.815730 0.002548 -5.945225
v -0.138695 0.003048 -5.838982
v -0.924579 0.234602 -5.745048
v 2.950278 0.073195 -5.818563
v 2.928008 -0.095041 -5.807876
v -4.274233 1.631605 -2.244185
v -4.420367 1.639292 -1.683120
v -4.421366 1.055358 -2.240788
v -4.693713 1.120366 -1.142345
v -4.595664 1.545356 -1.066722
v -4.766104 1.250441 0.067714
v -4.785670 0.000000 -1.142345
v -4.879431 0.000000 -0.000000
v -4.785670 0.000001 1.142345
v -4.765151 -1.250545 0.071205
v -4.445899 -0.756502 2.240788
v -4.006583 -0.615047 3.253111
v -4.706187 -0.968370 1.142345
v -4.057059 -0.000001 3.253112
v -4.507987 0.000001 2.240788
v -4.445899 0.756501 2.240787
v -4.006579 0.615046 3.253112
v -4.706187 0.968369 1.142345
v -3.450221 0.000001 4.140412
v 1.598167 0.000048 4.962058
v 1.545074 0.054958 5.024598
vn 0.0372 -0.9205 0.3891
vn 0.0537 -0.8674 0.4947
vn 0.0074 -0.9344 0.3560
vn 0.0581 -0.8506 0.5226
vn -0.0059 0.0015 1.0000
vn -0.0142 0.0013 0.9999
vn 0.1160 0.0026 0.9932
vn -0.3603 0.0030 0.9328
vn -0.0620 -0.8508 0.5218
vn 0.0018 -0.9426 0.3339
vn -0.3624 -0.0078 0.9320
vn 0.0017 0.9425 0.3342
vn -0.0614 0.8512 0.5212
vn 0.0074 0.9341 0.3569
vn -0.6268 -0.0003 0.7792
vn -0.6345 0.0538 0.7710
vn -0.7724 0.0636 0.6319
vn 0.0379 0.9192 0.3919
vn 0.0040 0.9744 0.2249
vn 0.6428 -0.0518 -0.7643
vn 0.5399 -0.0471 -0.8404
vn 0.6209 0.0001 -0.7839
vn 0.0535 0.8692 0.4916
vn 0.0213 0.9779 0.2080
vn 0.7702 -0.0000 -0.6378
vn 0.7714 -0.0633 -0.6332
vn 0.8741 -0.0000 -0.4857
vn 0.7715 0.0633 -0.6331
vn 0.6430 0.0518 -0.7641
vn 0.8747 -0.0718 -0.4794
vn 0.9454 -0.0000 -0.3258
vn 0.8747 0.0718 -0.4794
vn 0.0202 0.9808 0.1940
vn 0.0147 0.9827 0.1846
vn 0.9448 -0.0775 -0.3182
vn 0.9867 -0.0000 -0.1624
vn 0.9849 -0.0808 -0.1529
vn 0.0325 0.9821 0.1856
vn 1.0000 -0.0007 0.0003
vn 0.9952 -0.0972 0.0071
vn 0.9949 0.1010 0.0047
vn 0.9849 0.0808 -0.1528
vn 0.9448 0.0775 -0.3182
vn 0.9867 -0.0009 0.1624
vn 0.0637 0.9841 0.1659
vn 0.0316 0.9970 0.0711
vn 0.9734 -0.1606 0.1632
vn 0.9546 -0.2429 0.1723
vn 0.0705 0.9891 0.1290
vn 0.9160 -0.2355 0.3249
vn 0.0708 0.9973 -0.0184
vn 0.8531 -0.2257 0.4704
vn 0.9316 -0.1559 0.3284
vn 0.0576 0.9669 -0.2485
vn 0.0472 0.9904 -0.1297
vn 0.9454 -0.0000 0.3258
vn 0.8578 -0.1471 0.4925
vn 0.8741 -0.0000 0.4857
vn 0.9320 0.1554 0.3274
vn 0.9736 0.1633 0.1596
vn 0.9526 0.2424 0.1838
vn 0.8611 0.1431 0.4879
vn 0.9121 0.2324 0.3379
vn 0.0314 -0.9970 0.0713
vn 0.0622 -0.9981 -0.0039
vn 0.0674 -0.9905 0.1198
vn 0.0619 -0.9838 0.1684
vn 0.0040 -0.9744 0.2249
vn 0.0324 -0.9821 0.1857
vn -0.0029 -0.9823 0.1875
vn 0.0219 -0.9989 -0.0424
vn 0.0054 -0.9898 -0.1424
vn 0.0391 -0.9973 -0.0620
vn 0.0017 -0.9966 0.0820
vn -0.9729 -0.1630 -0.1641
vn -0.9393 -0.2416 -0.2435
vn -0.9554 -0.2487 -0.1590
vn -0.9320 -0.1552 -0.3274
vn -0.9147 -0.2308 -0.3319
vn -0.9454 -0.0000 -0.3258
vn -0.8609 -0.1429 -0.4883
vn -0.8741 -0.0000 -0.4857
vn -0.8609 0.1428 -0.4883
vn -0.7565 0.1250 -0.6420
vn -0.7692 -0.0000 -0.6390
vn -0.7563 -0.1251 -0.6422
vn -0.6273 -0.0013 -0.7788
vn -0.6297 -0.0855 -0.7721
vn -0.7491 -0.1901 -0.6346
vn -0.4552 -0.0317 -0.8898
vn -0.4323 0.0376 -0.9010
vn -0.6306 0.0868 -0.7712
vn 0.0155 0.8489 -0.5284
vn 0.0258 0.8819 -0.4708
vn 0.0428 0.9371 -0.3465
vn 0.0290 0.7281 -0.6849
vn -0.4344 0.0719 -0.8979
vn 0.0124 0.8391 -0.5438
vn -0.7498 0.1904 -0.6337
vn 0.0483 0.9274 -0.3708
vn 0.0422 0.9099 -0.4127
vn 0.0349 0.9872 -0.1554
vn -0.8492 0.2131 -0.4831
vn 0.6256 0.0006 0.7801
vn 0.4588 0.0012 0.8886
vn 0.6389 -0.0587 0.7671
vn 0.7688 -0.0060 0.6395
vn 0.7695 -0.1003 0.6307
vn 0.7570 0.1258 0.6412
vn 0.7380 0.1866 0.6485
vn 0.6166 0.1009 0.7808
vn 0.8432 0.2131 0.4935
vn 0.0567 -0.9971 -0.0508
vn 0.0570 -0.9972 -0.0491
vn 0.4695 0.0411 0.8820
vn 0.6145 0.1553 0.7735
vn -0.0725 -0.9084 -0.4118
vn 0.0097 -0.7757 -0.6310
vn -0.1047 -0.8224 -0.5592
vn -0.0767 -0.7738 -0.6288
vn 0.0401 -0.6321 -0.7739
vn 0.0380 -0.6317 -0.7743
vn -0.2334 -0.0187 -0.9722
vn -0.0625 0.0456 -0.9970
vn -0.0543 -0.0041 -0.9985
vn -0.2447 0.0092 -0.9696
vn 0.0102 0.8191 -0.5736
vn 0.0154 0.7313 -0.6819
vn 0.1154 -0.0782 -0.9902
vn 0.0356 0.7023 -0.7110
vn 0.0403 -0.6309 -0.7748
vn 0.3512 0.0130 0.9362
vn 0.3496 0.0076 0.9369
vn 0.3152 -0.1028 0.9435
vn -0.2539 -0.5862 -0.7693
vn -0.9147 0.2307 -0.3318
vn 0.0224 0.9988 -0.0432
vn -0.9393 0.2416 -0.2435
vn -0.9320 0.1552 -0.3274
vn 0.0017 0.9966 0.0820
vn -0.9734 0.1613 -0.1626
vn -0.9945 0.1042 -0.0088
vn -0.9553 0.2488 -0.1595
vn -0.9868 0.0017 -0.1617
vn -1.0000 0.0014 -0.0011
vn -0.9868 -0.0001 0.1622
vn -0.9942 -0.1072 -0.0059
vn -0.1584 -0.9604 0.2294
vn -0.1186 -0.9670 0.2253
vn -0.3495 -0.9011 0.2566
vn -0.2858 -0.9244 0.2526
vn -0.9854 -0.0809 0.1499
vn -0.9444 -0.0775 0.3196
vn -0.8744 -0.0000 0.4853
vn -0.8736 -0.0717 0.4814
vn -0.7724 -0.0636 0.6319
vn -0.9454 -0.0000 0.3258
vn -0.9444 0.0775 0.3196
vn -0.8736 0.0717 0.4814
vn -0.0032 0.9823 0.1875
vn -0.1603 0.9600 0.2295
vn -0.1186 0.9670 0.2253
vn -0.2848 0.9248 0.2522
vn -0.3466 0.9024 0.2562
vn -0.9853 0.0809 0.1503
vn -0.7678 -0.0000 0.6407
vn -0.8491 -0.2132 -0.4833
vn -0.6343 -0.0544 0.7711
vn 0.0214 -0.9778 0.2086
vn 0.0202 -0.9808 0.1940
vn 0.0147 -0.9827 0.1846
vn 0.5396 0.0005 -0.8419
vn 0.5399 0.0476 -0.8404
vn 0.8249 0.1923 0.5315
vn 0.8227 -0.1841 0.5379
vn 0.8502 0.0045 0.5265
vn 0.8419 -0.3297 0.4272
vn 0.8430 0.3441 0.4136
vn 0.0572 0.8556 0.5145
vn 0.1160 0.0028 0.9932
vt 0.765863 0.424294
vt 0.764415 0.426697
vt 0.762426 0.408186
vt 0.763926 0.426519
vt 0.946213 0.782123
vt 0.946218 0.781617
vt 0.964505 0.782901
vt 0.939871 0.781732
vt 0.763251 0.401874
vt 0.765265 0.398437
vt 0.939911 0.781107
vt 0.118252 0.752843
vt 0.122063 0.751296
vt 0.128106 0.751256
vt 0.936289 0.781171
vt 0.936303 0.782465
vt 0.931395 0.783507
vt 0.142328 0.756584
vt 0.112854 0.756396
vt 0.622600 0.974313
vt 0.623675 0.971954
vt 0.624005 0.974389
vt 0.145026 0.755477
vt 0.137334 0.759941
vt 0.623455 0.979272
vt 0.621157 0.978814
vt 0.881628 0.501035
vt 0.881632 0.498693
vt 0.886873 0.498183
vt 0.881592 0.496412
vt 0.625799 0.979272
vt 0.625391 0.974596
vt 0.886867 0.501576
vt 0.892698 0.497814
vt 0.886814 0.494879
vt 0.132841 0.764375
vt 0.129221 0.769602
vt 0.892691 0.502342
vt 0.898884 0.497601
vt 0.898875 0.503256
vt 0.126625 0.775421
vt 0.905193 0.497550
vt 0.905036 0.504278
vt 0.904874 0.491017
vt 0.898786 0.492094
vt 0.892620 0.493405
vt 0.911383 0.497665
vt 0.125210 0.781472
vt 0.107961 0.788339
vt 0.911373 0.503849
vt 0.911297 0.505449
vt 0.125151 0.787920
vt 0.916971 0.506171
vt 0.126257 0.793985
vt 0.922022 0.505905
vt 0.917206 0.503766
vt 0.128485 0.799587
vt 0.116305 0.796308
vt 0.917216 0.497941
vt 0.922458 0.503609
vt 0.922467 0.498366
vt 0.917115 0.492268
vt 0.911276 0.491643
vt 0.911482 0.490082
vt 0.922376 0.493261
vt 0.917114 0.490082
vt 0.801722 0.394960
vt 0.805244 0.414662
vt 0.799415 0.412592
vt 0.792647 0.411372
vt 0.769473 0.393718
vt 0.786530 0.411707
vt 0.798528 0.386574
vt 0.805027 0.388819
vt 0.810430 0.391758
vt 0.808554 0.404475
vt 0.801939 0.387808
vt 0.909736 0.397852
vt 0.912575 0.400095
vt 0.909153 0.399708
vt 0.915931 0.397469
vt 0.915730 0.400011
vt 0.916411 0.392345
vt 0.921744 0.396390
vt 0.922177 0.391779
vt 0.922676 0.386765
vt 0.927746 0.386472
vt 0.927321 0.390736
vt 0.926953 0.394658
vt 0.919131 0.446231
vt 0.918674 0.441574
vt 0.923811 0.441940
vt 0.923240 0.439565
vt 0.927764 0.441285
vt 0.924004 0.446430
vt 0.913501 0.443343
vt 0.913409 0.447419
vt 0.923317 0.450871
vt 0.918188 0.450793
vt 0.141908 0.813273
vt 0.112251 0.806545
vt 0.107731 0.801998
vt 0.145033 0.814573
vt 0.913101 0.448592
vt 0.117512 0.810050
vt 0.922497 0.453176
vt 0.132145 0.805247
vt 0.136637 0.809722
vt 0.927978 0.384052
vt 0.104147 0.796611
vt 0.922906 0.383349
vt 0.975854 0.930913
vt 0.980763 0.934574
vt 0.975149 0.934462
vt 0.971189 0.929432
vt 0.970239 0.934898
vt 0.926935 0.498926
vt 0.926907 0.504474
vt 0.926858 0.494584
vt 0.972923 0.925322
vt 0.974587 0.922864
vt 0.977216 0.927683
vt 0.922283 0.490886
vt 0.926752 0.491884
vt 0.815455 0.421725
vt 0.810657 0.417650
vt 0.982436 0.929891
vt 0.979182 0.924781
vt 0.815339 0.395483
vt 0.819366 0.426697
vt 0.819281 0.399929
vt 0.823827 0.411050
vt 0.907444 0.443304
vt 0.889146 0.444696
vt 0.892146 0.437900
vt 0.887353 0.441585
vt 0.902108 0.445403
vt 0.907247 0.446961
vt 0.123348 0.812524
vt 0.140714 0.815568
vt 0.881592 0.444659
vt 0.881790 0.443736
vt 0.884134 0.445735
vt 0.986927 0.933837
vt 0.986792 0.934771
vt 0.984021 0.934898
vt 0.917331 0.383475
vt 0.101851 0.790874
vt 0.914183 0.383482
vt 0.916966 0.386773
vt 0.101240 0.787681
vt 0.910835 0.386498
vt 0.904207 0.385310
vt 0.910669 0.384046
vt 0.910246 0.392412
vt 0.903918 0.391979
vt 0.897671 0.391061
vt 0.902962 0.397978
vt 0.792196 0.385293
vt 0.774396 0.389934
vt 0.786212 0.385536
vt 0.780069 0.387129
vt 0.897230 0.395762
vt 0.891400 0.393366
vt 0.886366 0.387929
vt 0.886086 0.390915
vt 0.881592 0.388191
vt 0.891744 0.389693
vt 0.892142 0.385699
vt 0.886690 0.384682
vt 0.100668 0.784163
vt 0.100790 0.777796
vt 0.108473 0.760797
vt 0.104913 0.766059
vt 0.882060 0.383349
vt 0.102287 0.771922
vt 0.898180 0.385948
vt 0.881743 0.385836
vt 0.931396 0.780855
vt 0.931776 0.778231
vt 0.927026 0.437900
vt 0.921386 0.399073
vt 0.936488 0.779903
vt 0.769825 0.419813
vt 0.774792 0.416029
vt 0.780433 0.413294
vt 0.624283 0.971806
vt 0.624850 0.972060
vt 0.964463 0.783507
vt 0.964838 0.783232
vt 0.998570 0.971094
vt 0.999102 0.971094
vt 0.998672 0.971554
vt 0.999102 0.971493
vt 0.999102 0.971094
vt 0.999636 0.971320
vt 0.145033 0.754978
s 1
usemtl pleuraldeles_skin
f 6/1/1 2/2/2 1/3/3
f 1/3/3 2/2/2 3/4/4
f 4/5/5 1/6/6 3/7/7
f 1/6/6 4/5/5 8/8/8
f 5/9/9 7/10/10 1/3/3
f 1/6/6 8/8/8 5/11/11
f 7/10/10 6/1/1 1/3/3
f 10/12/12 8/13/13 4/14/14
f 5/11/11 8/8/8 9/15/15
f 10/16/16 9/15/15 8/8/8
f 9/15/15 10/16/16 11/17/17
f 10/12/12 12/18/18 11/19/19
f 4/14/14 12/18/18 10/12/12
f 12/20/20 13/21/21 15/22/22
f 4/14/14 13/23/23 12/18/18
f 11/19/19 12/18/18 14/24/24
f 16/25/25 14/26/26 12/20/20
f 15/22/22 16/25/25 12/20/20
f 14/27/26 16/28/25 18/29/27
f 18/29/27 16/28/25 17/30/28
f 17/31/28 16/25/25 6/32/29
f 16/25/25 15/22/22 6/32/29
f 21/33/30 18/29/27 19/34/31
f 19/34/31 18/29/27 20/35/32
f 18/29/27 17/30/28 20/35/32
f 14/27/26 18/29/27 21/33/30
f 11/19/19 14/24/24 21/36/33
f 11/19/19 21/36/33 22/37/34
f 21/33/30 19/34/31 22/38/35
f 22/38/35 24/39/36 23/40/37
f 11/19/19 22/37/34 23/41/38
f 22/38/35 19/34/31 24/39/36
f 24/39/36 25/42/39 29/43/40
f 24/39/36 27/44/41 25/42/39
f 29/43/40 23/40/37 24/39/36
f 26/45/42 27/44/41 24/39/36
f 24/39/36 28/46/43 26/45/42
f 24/39/36 19/34/31 28/46/43
f 32/47/44 29/43/40 25/42/39
f 29/48/45 31/49/46 23/41/38
f 29/43/40 30/50/47 33/51/48
f 32/47/44 30/50/47 29/43/40
f 29/48/45 33/52/49 31/49/46
f 34/53/50 33/51/48 30/50/47
f 33/52/49 34/54/51 31/49/46
f 35/55/52 34/53/50 37/56/53
f 34/54/51 35/57/54 36/58/55
f 31/49/46 34/54/51 36/58/55
f 30/50/47 37/56/53 34/53/50
f 39/59/56 37/56/53 30/50/47
f 37/56/53 38/60/57 35/55/52
f 39/59/56 38/60/57 37/56/53
f 39/59/56 40/61/58 38/60/57
f 41/62/59 40/61/58 39/59/56
f 41/62/59 39/59/56 32/47/44
f 39/59/56 30/50/47 32/47/44
f 41/62/59 42/63/60 45/64/61
f 41/62/59 32/47/44 42/63/60
f 41/62/59 43/65/62 40/61/58
f 43/65/62 41/62/59 44/66/63
f 45/64/61 44/66/63 41/62/59
f 46/67/64 44/68/65 45/69/66
f 46/67/64 45/69/66 27/70/67
f 27/44/41 45/64/61 42/63/60
f 47/71/68 46/67/64 26/72/69
f 49/73/70 46/67/64 47/71/68
f 46/67/64 51/74/71 48/75/72
f 46/67/64 48/75/72 50/76/73
f 49/73/70 52/77/74 46/67/64
f 46/67/64 50/76/73 44/68/65
f 52/77/74 51/74/71 46/67/64
f 46/67/64 27/70/67 26/72/69
f 53/78/75 52/79/76 49/80/77
f 52/79/76 53/78/75 54/81/78
f 52/79/76 54/81/78 51/82/79
f 55/83/80 54/81/78 53/78/75
f 56/84/81 51/82/79 54/81/78
f 57/85/82 54/81/78 55/83/80
f 57/85/82 56/84/81 54/81/78
f 58/86/83 57/85/82 55/83/80
f 60/87/84 57/85/82 58/86/83
f 57/85/82 59/88/85 61/89/86
f 60/87/84 59/88/85 57/85/82
f 57/85/82 61/89/86 56/84/81
f 64/90/87 62/91/88 61/92/86
f 61/92/86 62/91/88 63/93/89
f 56/94/81 61/92/86 63/93/89
f 64/90/87 61/92/86 59/95/85
f 64/90/87 65/96/90 62/91/88
f 66/97/91 65/96/90 64/90/87
f 64/90/87 59/95/85 60/98/84
f 67/99/92 66/97/91 64/90/87
f 64/90/87 60/98/84 67/99/92
f 68/100/93 67/101/94 71/102/95
f 68/100/93 70/103/96 67/101/94
f 67/99/92 69/104/97 66/97/91
f 67/101/94 70/103/96 69/105/98
f 67/99/92 60/98/84 71/106/99
f 35/57/54 72/107/100 71/102/95
f 71/102/95 72/107/100 74/108/101
f 58/86/83 71/109/99 60/87/84
f 71/102/95 73/110/102 35/57/54
f 58/86/83 73/111/103 71/109/99
f 74/108/101 68/100/93 71/102/95
f 75/112/104 68/113/105 74/114/106
f 76/115/107 75/112/104 74/114/106
f 76/115/107 74/114/106 72/116/108
f 76/117/107 72/118/108 38/60/57
f 77/119/109 76/117/107 40/61/58
f 76/117/107 38/60/57 40/61/58
f 77/120/109 75/112/104 76/115/107
f 78/121/110 79/122/111 77/120/109
f 77/119/109 80/123/112 78/124/110
f 77/119/109 43/65/62 80/123/112
f 77/119/109 40/61/58 43/65/62
f 77/120/109 79/122/111 75/112/104
f 44/66/63 80/123/112 43/65/62
f 50/76/73 78/125/113 80/126/114
f 80/126/114 44/68/65 50/76/73
f 75/112/104 79/122/111 81/127/115
f 81/127/115 79/122/111 82/128/116
f 78/121/110 82/128/116 79/122/111
f 48/75/72 63/129/117 82/130/118
f 50/76/73 48/75/72 82/130/118
f 50/76/73 82/130/118 78/125/113
f 62/131/119 83/132/120 82/130/118
f 63/129/117 62/131/119 82/130/118
f 83/133/120 84/134/121 82/135/118
f 81/136/122 82/135/118 84/134/121
f 83/133/123 85/137/124 84/134/125
f 85/137/124 86/138/126 84/134/125
f 86/139/127 70/103/96 84/140/128
f 84/134/129 87/141/129 88/142/129
f 84/134/128 70/143/96 87/141/130
f 84/134/121 88/142/131 81/136/122
f 81/127/115 88/144/132 87/145/133
f 68/113/105 87/145/133 70/146/134
f 87/145/133 68/113/105 81/127/115
f 83/133/123 86/138/126 85/137/124
f 69/104/97 86/138/126 83/133/123
f 69/105/98 70/103/96 86/139/127
f 62/91/119 65/96/135 83/133/120
f 65/96/90 66/97/91 83/133/123
f 66/97/91 69/104/97 83/133/123
f 75/112/104 81/127/115 68/113/105
f 36/58/55 35/57/54 73/110/102
f 89/147/136 73/111/103 58/86/83
f 73/110/102 31/49/46 36/58/55
f 89/148/137 31/49/46 73/110/102
f 90/149/138 89/147/136 91/150/139
f 89/148/137 90/151/140 31/49/46
f 89/147/136 58/86/83 91/150/139
f 92/152/141 91/150/139 55/83/80
f 92/152/141 90/149/138 91/150/139
f 58/86/83 55/83/80 91/150/139
f 92/152/141 94/153/142 93/154/143
f 92/152/141 93/154/143 90/149/138
f 94/153/142 92/152/141 95/155/144
f 92/152/141 55/83/80 95/155/144
f 96/156/145 95/155/144 53/78/75
f 55/83/80 53/78/75 95/155/144
f 94/153/142 95/155/144 96/156/145
f 97/157/146 96/156/145 98/158/147
f 94/153/142 96/156/145 97/157/146
f 96/156/145 53/78/75 98/158/147
f 98/158/147 53/78/75 49/80/77
f 98/159/148 49/73/70 100/160/149
f 101/161/150 98/159/148 99/162/151
f 99/162/151 98/159/148 100/160/149
f 97/157/146 98/158/147 101/163/152
f 99/164/153 97/157/146 101/163/152
f 102/165/154 100/166/155 47/167/156
f 100/160/149 49/73/70 47/71/68
f 103/168/157 100/166/155 102/165/154
f 103/168/157 99/164/153 100/166/155
f 99/164/153 103/168/157 97/157/146
f 97/157/146 103/168/157 104/169/158
f 103/168/157 105/170/159 104/169/158
f 103/168/157 102/165/154 105/170/159
f 93/171/160 94/172/161 105/173/162
f 93/171/160 105/173/162 11/19/19
f 94/172/161 104/174/163 105/173/162
f 102/165/154 11/175/17 105/170/159
f 94/172/161 106/176/164 104/174/163
f 97/157/146 104/169/158 106/177/165
f 94/153/142 97/157/146 106/177/165
f 102/165/154 107/178/166 11/175/17
f 102/165/154 47/167/156 107/178/166
f 9/15/15 11/17/17 107/179/166
f 47/180/156 9/15/15 107/179/166
f 11/19/19 31/49/46 93/171/160
f 90/151/140 93/171/160 31/49/46
f 38/60/57 72/118/108 35/55/52
f 56/94/81 63/93/89 48/181/167
f 56/84/81 48/182/167 51/82/79
f 47/180/156 7/183/168 9/15/15
f 7/10/10 47/71/68 6/1/1
f 17/184/169 6/1/1 47/71/68
f 20/185/170 17/184/169 47/71/68
f 26/72/69 28/186/171 47/71/68
f 28/186/171 20/185/170 47/71/68
f 42/63/60 32/47/44 25/42/39
f 42/63/60 25/42/39 27/44/41
f 31/49/46 11/19/19 23/41/38
f 19/34/31 20/35/32 28/46/43
f 108/187/172 15/22/22 13/21/21
f 15/22/22 108/187/172 2/188/173
f 2/188/173 6/32/29 15/22/22
f 109/189/174 3/7/175 108/190/176
f 3/191/175 2/192/177 108/193/176
f 109/194/174 108/195/176 13/196/178
f 4/14/14 109/197/179 13/23/23
f 4/5/5 3/7/7 109/189/180
f 9/15/15 7/183/168 5/11/11
