# Blender 4.1.1
# www.blender.org
mtllib link_body_33.mtl
o link_body_33
v -0.892250 -0.049693 4.716269
v 0.321617 -0.054768 4.618500
v -0.871673 0.047829 4.719024
v -0.906219 -0.148966 4.425247
v -2.744583 -0.042977 4.564573
v -2.888282 0.057880 4.514494
v -2.994140 -0.076335 4.441695
v -3.363921 -0.166588 4.073566
v -3.929450 -0.383603 3.217604
v -3.368995 0.174059 4.060098
v -3.978362 -0.000031 3.190004
v -3.912894 0.378491 3.242848
v -4.379195 0.503651 2.197318
v -4.612243 1.115629 -1.035310
v -0.872093 0.152084 4.415346
v 0.322952 0.054848 4.618056
v 0.656143 0.201336 3.945054
v -0.581032 0.659268 1.082514
v 0.096375 0.332732 3.138615
v -0.330810 0.501980 2.123428
v -0.372009 0.000001 2.123428
v -0.635139 0.000001 1.082514
v -0.723991 0.000001 -0.000000
v -0.581032 -0.659268 1.082514
v -0.330810 -0.501980 2.123428
v 0.084023 -0.350006 3.082739
v 0.656998 -0.205259 3.935117
v 1.073997 -0.046598 4.356734
v 1.072708 0.046205 4.357364
v -0.657028 -0.815825 -0.000000
v -4.648726 -1.052086 -0.609890
v -4.784774 0.000001 -0.000000
v -4.599830 -1.108176 -1.127249
v -4.379195 -0.503647 2.197325
v -4.709746 -0.914159 -0.000013
v -0.490303 -1.012089 -1.348713
v -4.692824 0.000009 -1.120188
v -4.420531 0.000001 -2.197321
v -4.338248 1.076968 -2.167173
v -4.338332 -1.077087 -2.166854
v -3.920470 -0.894791 -3.159513
v 0.701347 -0.828853 -3.918350
v 0.130470 -0.963348 -3.056254
v -0.287384 -1.013544 -2.123535
v -0.372009 0.000001 -2.123428
v 0.055290 -0.000000 -3.082740
v 0.630340 0.000001 -3.923583
v 0.133377 0.962020 -3.064671
v 0.704727 0.828234 -3.921215
v -0.287598 1.014619 -2.121822
v -0.488403 1.010937 -1.353287
v -0.657028 0.815824 0.000000
v -0.635139 0.000001 -1.082514
v 1.388778 0.617305 -4.617722
v -3.331481 0.631217 -4.060097
v -3.920447 0.894771 -3.159556
v -2.623367 0.427896 -4.786129
v -1.811462 0.268638 -5.306068
v -2.620872 -0.434788 -4.775517
v -1.808914 -0.270092 -5.304630
v -3.383285 0.000001 -4.060097
v -3.331481 -0.631218 -4.060097
v -3.978362 -0.000001 -3.190008
v 1.390647 -0.616899 -4.618916
v -1.238716 -0.205945 -5.516218
v 2.978439 -0.125860 -5.435071
v -0.685524 -0.066149 -5.663597
v -1.233208 0.205730 -5.517278
v 2.160697 -0.391421 -5.135226
v 1.331047 0.000000 -4.613646
v 2.227577 0.378880 -5.152626
v 3.078879 0.100696 -5.459737
v 3.322211 0.050552 -5.485113
v -0.687347 0.067472 -5.662680
v 3.342681 -0.050572 -5.484828
v -4.638549 -0.661410 1.120188
v -4.692824 0.000001 1.120186
v -4.638549 0.661411 1.120174
v -4.420531 0.000001 2.197321
v -4.709746 0.914158 -0.000015
vn 0.0097 -0.0228 0.9997
vn -0.0113 -0.0259 0.9996
vn 0.2066 0.0001 0.9784
vn -0.0032 -0.9464 0.3230
vn 0.0041 -0.9685 0.2491
vn 0.0541 -0.9672 0.2484
vn -0.0934 0.3260 0.9407
vn -0.0304 -0.9472 0.3193
vn -0.0935 0.3327 0.9384
vn -0.5192 -0.0532 0.8530
vn -0.6288 0.0443 0.7763
vn -0.4198 -0.1540 0.8944
vn -0.0309 -0.9610 0.2749
vn -0.7730 0.0050 0.6344
vn -0.7725 0.0288 0.6343
vn -0.0235 -0.9653 0.2602
vn -0.0173 -0.9810 0.1934
vn -0.8763 0.0021 0.4817
vn -0.8659 0.0809 0.4936
vn -0.0151 0.9815 0.1911
vn 0.0137 0.9721 0.2341
vn -0.0291 0.9624 0.2702
vn 0.0059 0.9686 0.2484
vn -0.9433 0.0800 0.3222
vn -0.1829 0.9633 0.1965
vn 0.0160 0.9966 0.0810
vn -0.0030 0.9458 0.3247
vn 0.0551 0.9673 0.2477
vn 0.0528 0.9760 0.2111
vn 0.0302 0.9884 0.1489
vn 0.0187 0.9879 0.1540
vn 0.0014 0.9885 0.1512
vn 0.9456 -0.0776 -0.3159
vn 0.9454 0.0014 -0.3258
vn 0.9866 -0.0000 -0.1633
vn 0.8723 0.0095 -0.4889
vn 0.9843 -0.0808 -0.1566
vn 1.0000 -0.0000 -0.0000
vn 0.9843 0.0808 -0.1566
vn 0.9442 0.0775 -0.3201
vn 0.0098 -0.9878 0.1551
vn -0.0022 -0.9885 0.1510
vn 0.8757 0.0322 -0.4818
vn 0.0297 -0.9884 0.1491
vn 0.7774 0.0203 -0.6286
vn 0.0517 -0.9754 0.2144
vn 0.7748 0.0169 -0.6319
vn 0.7066 0.0161 -0.7075
vn 0.1013 -0.9600 0.2611
vn 0.3286 -0.0018 0.9445
vn 0.3286 -0.0017 0.9445
vn 0.7061 0.0146 -0.7079
vn 0.1012 0.9605 0.2592
vn 0.2087 0.0014 0.9780
vn 0.9959 0.0900 0.0136
vn 0.0097 -0.9899 0.1415
vn 0.0365 -0.9889 0.1441
vn -0.9932 -0.0819 -0.0827
vn -1.0000 -0.0004 0.0005
vn -0.9864 0.0002 -0.1645
vn -0.9966 -0.0818 -0.0112
vn -0.9823 -0.0814 -0.1689
vn 0.0262 -0.9982 0.0532
vn 0.0246 -0.9977 0.0630
vn -0.2200 -0.9531 0.2078
vn -0.1596 -0.9658 0.2044
vn -0.9835 0.0840 -0.1599
vn -0.9447 -0.0808 -0.3180
vn -0.9455 -0.0000 -0.3255
vn -0.9452 0.0830 -0.3157
vn 0.0090 -0.9971 -0.0761
vn -0.8778 -0.0752 -0.4731
vn -0.0223 -0.9751 -0.2206
vn -0.0259 -0.9604 -0.2772
vn 0.0001 -0.9920 -0.1262
vn 0.0160 -0.9995 -0.0255
vn 0.9767 0.0915 0.1940
vn 0.9400 0.0800 0.3317
vn 0.9447 -0.0008 0.3280
vn 0.8735 -0.0006 0.4869
vn 0.8717 0.0813 0.4832
vn 0.7711 0.0710 0.6328
vn 0.7696 -0.0004 0.6385
vn 0.8718 -0.0781 0.4835
vn 0.0157 0.9995 -0.0256
vn -0.0000 0.9919 -0.1270
vn 0.0096 0.9969 -0.0784
vn -0.0264 0.9602 -0.2782
vn 0.7712 -0.0711 0.6326
vn 0.9399 -0.0787 0.3322
vn 0.9766 -0.0922 0.1943
vn 0.0249 0.9977 0.0637
vn 0.0375 0.9890 0.1433
vn 0.9958 -0.0903 0.0138
vn 0.9873 -0.0004 0.1590
vn -0.0345 0.9499 -0.3107
vn -0.0124 0.9247 -0.3804
vn 0.6247 -0.0510 0.7792
vn -0.0361 0.9525 -0.3023
vn -0.0223 0.9751 -0.2205
vn -0.4555 -0.0063 -0.8902
vn -0.6299 0.0024 -0.7767
vn -0.4537 -0.0034 -0.8911
vn -0.0295 0.9403 -0.3389
vn -0.7686 -0.0012 -0.6398
vn -0.7748 0.0647 -0.6289
vn -0.6296 -0.0201 -0.7767
vn -0.8735 -0.0000 -0.4868
vn -0.7722 -0.0645 -0.6321
vn -0.8778 0.0752 -0.4731
vn -0.0361 -0.9529 -0.3011
vn -0.0344 -0.9507 -0.3083
vn -0.0287 -0.9396 -0.3412
vn -0.0134 -0.9260 -0.3773
vn -0.3070 -0.0000 -0.9517
vn -0.0163 -0.9157 -0.4014
vn 0.0270 -0.7727 -0.6342
vn 0.0344 -0.6845 -0.7282
vn 0.0198 -0.8178 -0.5751
vn -0.3050 0.0018 -0.9524
vn -0.1173 0.0048 -0.9931
vn 0.4642 -0.0078 0.8857
vn 0.6236 -0.0041 0.7817
vn 0.6350 0.0548 0.7706
vn 0.2747 -0.0057 0.9615
vn 0.4510 -0.0220 0.8923
vn -0.0167 0.9163 -0.4001
vn 0.0209 0.8116 -0.5838
vn 0.0367 0.6222 -0.7820
vn 0.2146 0.0077 0.9767
vn 0.1088 0.0248 0.9938
vn 0.1160 0.0376 0.9925
vn 0.0381 0.5924 -0.8048
vn 0.0274 0.7727 -0.6342
vn 0.0443 0.0062 -0.9990
vn -0.1197 0.0052 -0.9928
vn 0.0357 -0.6654 -0.7457
vn 0.0443 0.0061 -0.9990
vn -0.3973 -0.8894 0.2259
vn -0.9846 -0.0808 0.1550
vn -0.9866 -0.0000 0.1633
vn -0.9432 -0.0774 0.3231
vn -0.9846 0.0808 0.1550
vn -0.9452 -0.0006 0.3266
vn -0.8718 -0.0746 0.4842
vn -0.3973 0.8894 0.2259
vn -0.0426 0.9809 0.1897
vn -0.9966 0.0818 -0.0087
vt 0.986802 0.045889
vt 0.986656 0.045352
vt 0.994723 0.045185
vt 0.641713 0.753222
vt 0.642151 0.754792
vt 0.633985 0.755573
vt 0.974354 0.045614
vt 0.653884 0.751256
vt 0.973410 0.046192
vt 0.972696 0.045464
vt 0.655647 0.751551
vt 0.970239 0.045024
vt 0.970239 0.046911
vt 0.658485 0.753000
vt 0.663181 0.756814
vt 0.881592 0.555454
vt 0.881750 0.553740
vt 0.886327 0.556499
vt 0.886150 0.554387
vt 0.597127 0.756533
vt 0.601823 0.752972
vt 0.605523 0.751256
vt 0.617493 0.754739
vt 0.891816 0.555311
vt 0.592768 0.761458
vt 0.586230 0.778412
vt 0.618063 0.753125
vt 0.625194 0.755428
vt 0.626120 0.759515
vt 0.614214 0.773030
vt 0.621476 0.763011
vt 0.617311 0.767819
vt 0.001873 0.939042
vt 0.004662 0.938916
vt 0.005142 0.944806
vt 0.002176 0.933145
vt 0.001480 0.944971
vt 0.005472 0.950820
vt 0.008705 0.944575
vt 0.007375 0.938741
vt 0.637401 0.763561
vt 0.641264 0.768143
vt 0.005941 0.933255
vt 0.644164 0.773413
vt 0.004427 0.928262
vt 0.632649 0.759794
vt 0.851257 0.974600
vt 0.849007 0.974600
vt 0.850425 0.971806
vt 0.629450 0.758112
vt 0.002198 0.928329
vt 0.999729 0.045153
vt 0.999729 0.045667
vt 0.849911 0.971813
vt 0.629450 0.757940
vt 0.994743 0.045792
vt 0.009881 0.950535
vt 0.672530 0.776515
vt 0.645990 0.779168
vt 0.906853 0.564856
vt 0.903706 0.559657
vt 0.909924 0.559790
vt 0.903499 0.564110
vt 0.909712 0.565186
vt 0.672855 0.779390
vt 0.646575 0.786733
vt 0.667352 0.761665
vt 0.672182 0.773105
vt 0.909761 0.553880
vt 0.915545 0.564693
vt 0.915960 0.559440
vt 0.916090 0.553740
vt 0.672479 0.785378
vt 0.921205 0.563009
vt 0.671060 0.791313
vt 0.642138 0.802329
vt 0.644719 0.796856
vt 0.646238 0.791213
vt 0.011114 0.957803
vt 0.011114 0.961948
vt 0.005638 0.962302
vt 0.005466 0.967329
vt 0.010670 0.966849
vt 0.009608 0.971294
vt 0.005132 0.971615
vt 0.000119 0.967472
vt 0.611389 0.790666
vt 0.612886 0.796385
vt 0.586573 0.784930
vt 0.615554 0.801878
vt 0.000525 0.971806
vt -0.000000 0.962548
vt 0.000028 0.958435
vt 0.611122 0.786225
vt 0.612127 0.778721
vt 0.000940 0.951025
vt 0.005640 0.956728
vt 0.594981 0.801735
vt 0.619248 0.806692
vt 0.970890 0.831659
vt 0.976629 0.833784
vt 0.972477 0.835990
vt 0.591191 0.796728
vt 0.588229 0.790942
vt 0.915816 0.779574
vt 0.920922 0.783755
vt 0.915624 0.782550
vt 0.599575 0.805773
vt 0.926093 0.781672
vt 0.925505 0.785134
vt 0.921239 0.778988
vt 0.921581 0.558620
vt 0.926572 0.557362
vt 0.926429 0.560436
vt 0.925995 0.778162
vt 0.926747 0.554017
vt 0.921656 0.553910
vt 0.668433 0.796991
vt 0.664774 0.801868
vt 0.660220 0.805901
vt 0.638601 0.807090
vt 0.912021 0.779684
vt 0.656810 0.807883
vt 0.653444 0.809476
vt 0.629450 0.813761
vt 0.634312 0.810978
vt 0.911825 0.781956
vt 0.908306 0.780214
vt 0.980274 0.827144
vt 0.975431 0.830560
vt 0.974990 0.827150
vt 0.985912 0.827269
vt 0.981737 0.831176
vt 0.602949 0.807778
vt 0.624134 0.810868
vt 0.629450 0.813843
vt 0.986864 0.828327
vt 0.988367 0.827667
vt 0.988364 0.827091
vt 0.883281 0.779369
vt 0.881688 0.778982
vt 0.908266 0.780953
vt 0.606347 0.809399
vt 0.881592 0.778414
vt 0.884033 0.778162
vt 0.970239 0.827091
vt 0.670357 0.767117
vt 0.897394 0.562267
vt 0.897544 0.559045
vt 0.891562 0.560433
vt 0.897728 0.555541
vt 0.891676 0.557979
vt 0.886093 0.558313
vt 0.589570 0.766850
vt 0.587287 0.772730
vt 0.903959 0.554814
s 1
usemtl pleuraldeles_skin
f 3/1/1 1/2/2 2/3/3
f 1/4/4 4/5/5 2/6/6
f 3/1/1 5/7/7 1/2/2
f 4/5/5 1/4/4 5/8/8
f 3/1/1 6/9/9 5/7/7
f 6/9/10 7/10/11 5/7/12
f 4/5/5 5/8/8 7/11/13
f 8/12/14 7/10/11 10/13/15
f 8/14/16 9/15/17 7/11/13
f 7/11/13 9/15/17 4/5/5
f 10/13/15 7/10/11 6/9/10
f 8/16/14 10/17/15 11/18/18
f 11/18/18 10/17/15 12/19/19
f 12/20/20 10/21/21 6/22/22
f 12/20/20 6/22/22 15/23/23
f 12/19/19 13/24/24 11/18/18
f 13/25/25 12/20/20 14/26/26
f 14/26/26 12/20/20 15/23/23
f 6/22/22 3/27/27 15/23/23
f 16/28/28 17/29/29 15/23/23
f 15/23/23 3/27/27 16/28/28
f 14/26/26 15/23/23 18/30/30
f 15/23/23 17/29/29 19/31/31
f 15/23/23 20/32/32 18/30/30
f 15/23/23 19/31/31 20/32/32
f 20/33/33 21/34/34 22/35/35
f 19/36/36 21/34/34 20/33/33
f 20/33/33 22/35/35 18/37/37
f 18/37/37 22/35/35 23/38/38
f 23/38/38 22/35/35 24/39/39
f 22/35/35 25/40/40 24/39/39
f 22/35/35 21/34/34 25/40/40
f 26/41/41 4/5/5 25/42/42
f 21/34/34 26/43/43 25/40/40
f 25/42/42 4/5/5 24/44/44
f 21/34/34 19/36/36 26/43/43
f 26/43/43 19/36/36 27/45/45
f 26/41/41 27/46/46 4/5/5
f 2/6/6 4/5/5 27/46/46
f 27/47/45 17/48/47 28/49/48
f 27/46/46 28/50/49 2/6/6
f 19/36/36 17/51/47 27/45/45
f 2/3/3 28/52/50 29/53/51
f 17/48/47 29/54/52 28/49/48
f 16/28/28 29/55/53 17/29/29
f 16/56/54 2/3/3 29/53/51
f 23/38/38 24/39/39 30/57/55
f 31/58/56 30/59/57 24/44/44
f 4/5/5 31/58/56 24/44/44
f 31/60/58 32/61/59 37/62/60
f 35/63/61 32/61/59 31/60/58
f 31/60/58 37/62/60 33/64/62
f 31/58/56 33/65/63 36/66/64
f 9/15/17 34/67/65 31/58/56
f 9/15/17 31/58/56 4/5/5
f 34/67/65 35/68/66 31/58/56
f 31/58/56 36/66/64 30/59/57
f 14/69/67 37/62/60 32/61/59
f 40/70/68 37/62/60 38/71/69
f 37/62/60 39/72/70 38/71/69
f 40/70/68 33/64/62 37/62/60
f 37/62/60 14/69/67 39/72/70
f 36/66/64 33/65/63 40/73/71
f 38/71/69 41/74/72 40/70/68
f 40/73/71 41/75/73 42/76/74
f 40/73/71 42/76/74 43/77/75
f 40/73/71 43/77/75 44/78/76
f 44/78/76 36/66/64 40/73/71
f 36/79/77 44/80/78 45/81/79
f 44/80/78 46/82/80 45/81/79
f 44/80/78 43/83/81 46/82/80
f 42/84/82 46/82/80 43/83/81
f 42/84/82 47/85/83 46/82/80
f 47/85/83 48/86/84 46/82/80
f 45/81/79 46/82/80 48/86/84
f 50/87/85 48/88/86 39/89/87
f 39/89/87 48/88/86 49/90/88
f 47/85/83 49/91/89 48/86/84
f 45/81/79 48/86/84 50/92/90
f 45/81/79 50/92/90 51/93/91
f 51/94/92 50/87/85 39/89/87
f 52/95/93 51/94/92 14/26/26
f 39/89/87 14/26/26 51/94/92
f 52/96/94 53/97/95 51/93/91
f 53/97/95 45/81/79 51/93/91
f 52/96/94 23/38/38 53/97/95
f 53/97/95 23/38/38 30/57/55
f 45/81/79 53/97/95 36/79/77
f 53/97/95 30/57/55 36/79/77
f 18/30/30 52/95/93 14/26/26
f 18/37/37 23/38/38 52/96/94
f 57/98/96 49/90/88 54/99/97
f 47/100/83 54/101/98 49/102/89
f 55/103/99 49/90/88 57/98/96
f 56/104/100 49/90/88 55/103/99
f 39/89/87 49/90/88 56/104/100
f 60/105/101 57/106/102 58/107/103
f 57/98/96 54/99/97 58/108/104
f 61/109/105 55/110/106 57/106/102
f 60/105/101 59/111/107 57/106/102
f 59/111/107 61/109/105 57/106/102
f 63/112/108 61/113/105 62/114/109
f 59/111/107 62/115/109 61/109/105
f 63/112/108 55/116/106 61/113/105
f 38/71/69 63/112/108 41/74/72
f 38/71/69 56/117/110 63/112/108
f 63/112/108 62/114/109 41/74/72
f 63/112/108 56/117/110 55/116/106
f 62/118/111 59/119/112 42/76/74
f 41/75/73 62/118/111 42/76/74
f 59/119/112 60/120/113 64/121/114
f 65/122/115 60/105/101 58/107/103
f 60/120/113 65/123/116 64/121/114
f 67/124/117 66/125/118 65/123/116
f 65/123/116 66/125/118 69/126/119
f 68/127/120 67/128/121 65/122/115
f 65/122/115 58/107/103 68/127/120
f 65/123/116 69/126/119 64/121/114
f 69/129/122 70/130/123 64/131/124
f 70/130/123 69/129/122 54/101/98
f 69/129/122 66/132/125 71/133/126
f 69/129/122 71/133/126 54/101/98
f 68/134/127 54/99/97 71/135/128
f 71/135/128 72/136/129 68/134/127
f 72/137/130 71/133/126 66/132/125
f 73/138/131 72/137/130 75/139/132
f 72/140/129 73/141/133 74/142/134
f 68/134/127 72/136/129 74/143/134
f 66/132/125 75/139/132 72/137/130
f 75/144/135 67/128/121 74/142/136
f 66/145/118 67/128/117 75/144/137
f 74/142/136 73/141/138 75/144/135
f 68/127/120 74/142/136 67/128/121
f 42/146/82 64/131/124 70/130/123
f 47/100/83 70/130/123 54/101/98
f 42/146/82 70/130/123 47/100/83
f 58/108/104 54/99/97 68/134/127
f 59/119/112 64/121/114 42/76/74
f 38/71/69 39/72/70 56/117/110
f 34/67/65 76/147/139 35/68/66
f 76/148/140 32/61/59 35/63/61
f 76/148/140 77/149/141 32/61/59
f 34/150/142 77/149/141 76/148/140
f 13/24/24 78/151/143 77/149/141
f 78/151/143 32/61/59 77/149/141
f 34/150/142 79/152/144 77/149/141
f 13/24/24 77/149/141 79/152/144
f 9/153/145 79/152/144 34/150/142
f 79/152/144 11/18/18 13/24/24
f 9/153/145 11/18/18 79/152/144
f 78/154/146 13/25/25 80/155/147
f 78/151/143 80/156/148 32/61/59
f 80/155/147 13/25/25 14/26/26
f 32/61/59 80/156/148 14/69/67
f 3/1/1 2/3/3 16/56/54
f 8/16/14 11/18/18 9/153/145
