# ('FARMS composite mesh',)
mtllib link_body_09_composite.mtl
usemtl link_body_09_composite
v 1.90198100 -7.86004100 -5.35480500
v 1.90198100 -7.86004100 -5.35480500
v 1.90198100 -7.86004100 -5.35480500
v -1.24742500 -7.75314400 -5.27500800
v -1.24742500 -7.75314400 -5.27500800
v -2.64345000 -6.37248500 -6.27718500
v -2.64345000 -6.37248500 -6.27718500
v -2.64345000 -6.37248500 -6.27718500
v -2.64345000 -6.37248500 -6.27718500
v -0.89383800 -8.71629300 -3.59219700
v 1.12231900 -8.52491600 -3.73872700
v 1.12231900 -8.52491600 -3.73872700
v 0.89210600 -7.00493100 -5.97676300
v 0.89210600 -7.00493100 -5.97676300
v -1.30319300 -4.70298800 -6.49592000
v -1.30319300 -4.70298800 -6.49592000
v -1.30319300 -4.70298800 -6.49592000
v -0.50543300 -6.66341900 -5.35480500
v -1.93855800 -5.00204700 -5.51783900
v -1.93855800 -5.00204700 -5.51783900
v -1.61798200 -6.80504400 -3.71273500
v -1.22204200 -8.03311900 -0.87271900
v -3.36845200 -4.12268400 -3.77629700
v -3.36845200 -4.12268400 -3.77629700
v -2.94382100 -5.96014700 -1.97289600
v -2.94382100 -5.96014700 -1.97289600
v -2.94010700 -6.27125800 -0.00000100
v -2.94010700 -6.27125800 -0.00000100
v -4.40281500 -2.59538700 -1.89607500
v -4.18774400 -3.76348500 1.02025400
v -4.18774400 -3.76348500 1.02025400
v -2.91605600 -6.01562400 1.90011400
v -2.91605600 -6.01562400 1.90011400
v -4.68122300 -0.82924100 1.82273100
v -3.91239500 -2.50459700 3.77629700
v -2.57646700 -5.59849100 3.77749300
v -2.57646700 -5.59849100 3.77749300
v -4.80792800 -1.11760500 -0.00000100
v -4.49296700 -0.56990600 -2.98084100
v -4.55439900 2.64710100 0.00000000
v -4.36391000 2.76512800 1.90011400
v -4.34537600 2.85532900 -1.82273200
v -3.11959100 6.00881200 -0.00000000
v -1.36645100 7.94031900 -0.80916900
v -1.36645100 7.94031900 -0.80916900
v -2.86603400 6.07387800 1.97289600
v -2.86603400 6.07387800 1.97289600
v -2.90596200 6.03037700 -1.90011400
v -2.90596200 6.03037700 -1.90011400
v -1.41614500 7.00381200 -3.71273700
v -1.41614500 7.00381200 -3.71273700
v -2.29554000 5.13920900 -4.94698600
v -2.29554000 5.13920900 -4.94698600
v -2.29554000 5.13920900 -4.94698600
v -3.93286100 2.65766800 -3.65228800
v -3.48445800 0.69542100 -5.33536600
v -3.48445800 0.69542100 -5.33536600
v -2.96513200 3.06683500 -5.35480500
v -2.12464400 3.05595100 -6.54063500
v -2.12464400 3.05595100 -6.54063500
v -2.12464400 3.05595100 -6.54063500
v -2.12464400 3.05595100 -6.54063500
v -2.66796600 -1.22054500 -6.50935000
v -2.66796600 -1.22054500 -6.50935000
v -2.66796600 -1.22054500 -6.50935000
v -2.66796600 -1.22054500 -6.50935000
v -0.25470800 6.00873900 -6.28162000
v -0.25470800 6.00873900 -6.28162000
v -0.25470800 6.00873900 -6.28162000
v -4.37787300 4.48212900 -6.49255800
v -4.37787300 4.48212900 -6.49255800
v -4.37787300 4.48212900 -6.49255800
v -2.63899800 6.37731400 -6.27562600
v -2.63899800 6.37731400 -6.27562600
v -2.63899800 6.37731400 -6.27562600
v -5.50841000 2.17262800 -6.45660000
v -5.50841000 2.17262800 -6.45660000
v -5.83964700 3.66677900 -5.30698800
v -4.37783800 -4.48271000 -6.49214900
v -4.37783800 -4.48271000 -6.49214900
v -4.37783800 -4.48271000 -6.49214900
v -4.22578500 6.06934300 -5.30698700
v -4.22578500 6.06934300 -5.30698700
v -4.55196100 6.89914800 -3.65728400
v -2.59653100 7.78414400 -4.56245200
v -2.59653100 7.78414400 -4.56245200
v -6.47035200 4.21367900 -3.59774100
v -6.86055800 4.40044900 -1.86802300
v -7.30004000 0.84497300 -3.66379800
v -7.73886600 1.07940200 -1.86775500
v -5.48711100 6.58453000 -1.85227400
v -5.62711700 6.64444400 1.03198400
v -3.56735600 8.33490500 -1.75747300
v -3.56735600 8.33490500 -1.75747300
v -7.04217500 4.43814600 -0.07903900
v -4.46179400 7.82946300 1.06160100
v -2.56923300 8.95995500 0.20107500
v -2.56923300 8.95995500 0.20107500
v -3.09127600 7.93884400 3.64985700
v -3.09127600 7.93884400 3.64985700
v -5.58613000 5.70093100 3.65728300
v -3.08608400 8.55033800 1.76832900
v -3.08608400 8.55033800 1.76832900
v -6.22327600 3.63694000 4.71968700
v -6.86959600 4.41690900 1.87173500
v -4.17683300 6.16900500 5.27284300
v -4.17683300 6.16900500 5.27284300
v -3.52377700 5.28390800 6.68097500
v -3.52377700 5.28390800 6.68097500
v -2.45311700 7.32275300 5.27557000
v -2.45311700 7.32275300 5.27557000
v -2.45311700 7.32275300 5.27557000
v -5.13506800 2.73391100 6.76765700
v -5.13506800 2.73391100 6.76765700
v -5.58804000 -0.54189700 6.72883700
v -5.58804000 -0.54189700 6.72883700
v -3.44174500 3.15887200 7.95380600
v -6.57299700 0.63741600 5.29764400
v -4.01526000 1.21640700 8.10839800
v -4.01526000 1.21640700 8.10839800
v -0.84470200 -0.48528800 8.31209200
v -0.84470200 -0.48528800 8.31209200
v -4.05673400 -1.12040600 8.09693900
v -4.05673400 -1.12040600 8.09693900
v -0.69808600 1.52051600 8.29316200
v -0.69808600 1.52051600 8.29316200
v -2.61978600 2.36016800 6.28180400
v -2.61978600 2.36016800 6.28180400
v -0.04514700 3.55551400 8.07128800
v -0.04514700 3.55551400 8.07128800
v -2.44474700 -0.60371200 6.85999300
v -2.44474700 -0.60371200 6.85999300
v -1.11355400 4.41810400 6.85337000
v -1.11355400 4.41810400 6.85337000
v 0.70681900 5.93713000 6.98379700
v 0.70681900 5.93713000 6.98379700
v 0.70681900 5.93713000 6.98379700
v -2.04371100 4.98662800 5.37797000
v 0.02495800 7.12115900 5.26496200
v 0.02495800 7.12115900 5.26496200
v 0.02495800 7.12115900 5.26496200
v -0.48360200 7.76736000 3.59492100
v -0.48360200 7.76736000 3.59492100
v -0.48360200 7.76736000 3.59492100
v -2.48468400 5.70985800 3.77629800
v -3.87995800 2.74270100 3.71273500
v -3.86000600 0.41340400 4.71186600
v -3.16628000 -2.46641600 5.37797100
v -1.90898300 -5.12656800 5.42439800
v -1.90898300 -5.12656800 5.42439800
v -1.45102200 -3.83697000 6.95337300
v -1.45102200 -3.83697000 6.95337300
v -1.45102200 -3.83697000 6.95337300
v -0.44049600 -2.35544100 8.26094800
v -0.44049600 -2.35544100 8.26094800
v 0.68546500 -6.11741400 6.80289300
v 0.68546500 -6.11741400 6.80289300
v 0.68546500 -6.11741400 6.80289300
v 0.68546500 -6.11741400 6.80289300
v 0.31028700 -4.29708200 7.88256600
v 0.31028700 -4.29708200 7.88256600
v -2.32222200 -4.87718600 7.62927400
v -1.94441700 -6.26371800 6.73244600
v -1.94441700 -6.26371800 6.73244600
v -3.44561400 -3.14547900 7.95667100
v -3.59705000 -5.25961100 6.65098400
v -3.59705000 -5.25961100 6.65098400
v -2.16840100 -6.18486400 6.71357100
v -2.16840100 -6.18486400 6.71357100
v -2.60037200 -7.34171500 5.20519400
v -2.16961100 -6.28546700 6.60410300
v -2.15749300 -6.21027900 6.69748900
v -2.15749300 -6.21027900 6.69748900
v -5.03742600 -5.04994800 5.34337500
v -5.03742600 -5.04994800 5.34337500
v -5.03742600 -5.04994800 5.34337500
v -4.26538300 -7.57576800 2.70163900
v -3.00914800 -7.95561100 3.65732500
v 0.04574600 -7.12946800 5.25819500
v 0.04574600 -7.12946800 5.25819500
v -5.69494200 -5.51482800 3.72107400
v -5.69494200 -5.51482800 3.72107400
v -6.02946400 -5.92573300 1.87173600
v -6.02946400 -5.92573300 1.87173600
v -7.05361800 -2.40636500 3.65728400
v -7.46023100 -2.70581800 1.87173600
v -6.27593100 -2.42955600 5.29764400
v -6.27593100 -2.42955600 5.29764400
v -4.95189900 -3.10505200 6.75752200
v -7.75524600 0.92603900 1.87173700
v -7.56242500 -2.92758600 -0.00000100
v -7.92038400 0.76807900 -0.00000100
v -7.46807000 -2.64277000 -1.94342900
v -6.23955400 -5.82712600 -1.13017700
v -6.23955400 -5.82712600 -1.13017700
v -5.51019600 -5.12072800 -4.67689200
v -5.51019600 -5.12072800 -4.67689200
v -5.51019600 -5.12072800 -4.67689200
v -5.51019600 -5.12072800 -4.67689200
v -5.51019600 -5.12072800 -4.67689200
v -7.01090500 -2.46717200 -3.71989700
v -6.28992300 -2.36230800 -5.30699000
v -6.28992300 -2.36230800 -5.30699000
v -6.58935400 0.68502800 -5.25567600
v -5.78560500 -0.68417600 -6.43333700
v -5.78560500 -0.68417600 -6.43333700
v -5.78560500 -0.68417600 -6.43333700
v -5.32635000 -2.64762900 -6.46404000
v -5.32635000 -2.64762900 -6.46404000
v -3.09190200 -6.94143500 -5.35254200
v -3.09190200 -6.94143500 -5.35254200
v -4.68711800 -6.72543500 -3.71989500
v -2.79730800 -8.10393700 -3.63336600
v -3.69409400 -8.27493800 -1.75454800
v -2.54083800 -8.96428200 0.19689500
v -1.36102400 -9.17454600 -1.85569200
v -4.93252800 -7.47594300 0.00000000
v -3.08978500 -8.54721400 1.77916700
v 0.61627200 -8.94054500 -1.66211400
v 0.61627200 -8.94054500 -1.66211400
v -0.00266300 -8.82279200 -0.19999200
v -0.00266300 -8.82279200 -0.19999200
v -0.54873100 -8.30585700 1.88471300
v -0.54873100 -8.30585700 1.88471300
v -0.53711400 -7.75288100 3.55308500
v -0.53711400 -7.75288100 3.55308500
v -7.28408900 1.01597300 3.65728200
v -0.53280700 8.29216100 1.93361300
v -0.53280700 8.29216100 1.93361300
v 0.02390500 8.83093800 -0.24343500
v 0.02390500 8.83093800 -0.24343500
v 0.59397900 8.94305800 -1.67712800
v 0.59397900 8.94305800 -1.67712800
v -1.36103400 9.17455000 -1.85566000
v -0.87184400 8.69388400 -3.64936400
v 1.29560600 8.46395400 -3.98989900
v 1.29560600 8.46395400 -3.98989900
v -1.14548100 7.79595400 -5.25058300
v -1.14548100 7.79595400 -5.25058300
v 1.06977200 7.17104800 -5.89295800
v 1.06977200 7.17104800 -5.89295800
v 1.06977200 7.17104800 -5.89295800
v -1.94383000 6.26472700 6.73175400
v -1.94383000 6.26472700 6.73175400
v -2.31464800 4.88164600 7.63024300
v -2.16840000 6.18486300 6.71357100
v -2.15749200 6.21027800 6.69748700
v -2.16961100 6.28547500 6.60409000
v -3.16465500 -2.39189900 -5.42533800
v -3.16465500 -2.39189900 -5.42533800
v -3.16465500 -2.39189900 -5.42533800
vn -0.01350000 -0.80760000 -0.58950000
vn -0.01350000 -0.80760000 -0.58950000
vn 0.36070000 0.78840000 0.49840000
vn -0.15150000 -0.77280000 -0.61630000
vn -0.15150000 -0.77280000 -0.61630000
vn -0.23890000 -0.46780000 -0.85090000
vn -0.23890000 -0.46780000 -0.85090000
vn -0.23890000 -0.46780000 -0.85090000
vn -0.23890000 -0.46780000 -0.85090000
vn -0.09920000 -0.92910000 -0.35620000
vn 0.07900000 -0.95190000 -0.29620000
vn 0.46810000 0.79790000 0.37990000
vn -0.02570000 -0.54260000 -0.83960000
vn 0.40820000 0.73190000 0.54560000
vn 0.01820000 -0.10470000 -0.99430000
vn 0.65340000 0.45180000 0.60740000
vn 0.65340000 0.45180000 0.60740000
vn 0.50870000 0.67140000 0.53890000
vn 0.71850000 0.47410000 0.50890000
vn 0.71850000 0.47410000 0.50890000
vn 0.64820000 0.67730000 0.34790000
vn 0.62020000 0.77860000 0.09520000
vn 0.86300000 0.37580000 0.33770000
vn 0.86300000 0.37580000 0.33770000
vn 0.82140000 0.54000000 0.18340000
vn 0.82140000 0.54000000 0.18340000
vn 0.80880000 0.58810000 -0.00480000
vn 0.80880000 0.58810000 -0.00480000
vn 0.95200000 0.25600000 0.16780000
vn 0.93600000 0.34060000 -0.08900000
vn 0.93600000 0.34060000 -0.08900000
vn 0.79870000 0.57330000 -0.18300000
vn 0.79870000 0.57330000 -0.18300000
vn 0.98400000 0.05310000 -0.17020000
vn 0.91470000 0.23910000 -0.32590000
vn 0.77190000 0.52780000 -0.35450000
vn 0.77190000 0.52780000 -0.35450000
vn 0.99720000 0.07460000 0.00750000
vn 0.96420000 0.04080000 0.26200000
vn 0.97390000 -0.22690000 0.00280000
vn 0.95440000 -0.24750000 -0.16660000
vn 0.95350000 -0.25820000 0.15560000
vn 0.84170000 -0.53990000 -0.00730000
vn 0.63390000 -0.76950000 0.07720000
vn 0.63390000 -0.76950000 0.07720000
vn 0.80170000 -0.56900000 -0.18300000
vn 0.80170000 -0.56900000 -0.18300000
vn 0.81940000 -0.54130000 0.18860000
vn 0.81940000 -0.54130000 0.18860000
vn 0.61080000 -0.70370000 0.36280000
vn 0.61080000 -0.70370000 0.36280000
vn 0.73740000 -0.48420000 0.47090000
vn 0.73740000 -0.48420000 0.47090000
vn 0.73740000 -0.48420000 0.47090000
vn 0.91310000 -0.24890000 0.32290000
vn 0.85850000 -0.06240000 0.50900000
vn 0.85850000 -0.06240000 0.50900000
vn 0.82520000 -0.27220000 0.49480000
vn 0.74350000 -0.28410000 0.60540000
vn 0.74350000 -0.28410000 0.60540000
vn 0.74350000 -0.28410000 0.60540000
vn -0.00280000 0.02920000 -0.99960000
vn 0.81270000 0.10280000 0.57350000
vn 0.81270000 0.10280000 0.57350000
vn 0.81270000 0.10280000 0.57350000
vn -0.00960000 -0.00160000 -1.00000000
vn 0.55620000 -0.62560000 0.54700000
vn 0.55620000 -0.62560000 0.54700000
vn 0.03320000 0.21150000 -0.97680000
vn -0.65720000 0.45720000 -0.59930000
vn -0.65720000 0.45720000 -0.59930000
vn -0.00200000 0.03910000 -0.99920000
vn -0.22570000 0.47140000 -0.85250000
vn -0.22570000 0.47140000 -0.85250000
vn -0.22570000 0.47140000 -0.85250000
vn -0.79490000 0.20940000 -0.56950000
vn -0.03350000 -0.00010000 -0.99940000
vn -0.79280000 0.34810000 -0.50040000
vn -0.65500000 -0.48530000 -0.57920000
vn -0.65500000 -0.48530000 -0.57920000
vn -0.00990000 -0.03400000 -0.99940000
vn -0.61120000 0.58830000 -0.52940000
vn -0.61120000 0.58830000 -0.52940000
vn -0.65220000 0.67090000 -0.35300000
vn -0.38430000 0.80410000 -0.45350000
vn -0.38430000 0.80410000 -0.45350000
vn -0.85690000 0.39000000 -0.33700000
vn -0.90280000 0.39450000 -0.17110000
vn -0.94130000 0.07680000 -0.32870000
vn -0.98120000 0.10020000 -0.16480000
vn -0.75850000 0.63030000 -0.16550000
vn -0.77320000 0.62730000 0.09320000
vn -0.51220000 0.84070000 -0.17590000
vn -0.51220000 0.84070000 -0.17590000
vn -0.92000000 0.39190000 -0.01050000
vn -0.62710000 0.77140000 0.10820000
vn -0.21430000 0.97110000 0.10510000
vn -0.21430000 0.97110000 0.10510000
vn -0.58330000 0.73250000 0.35090000
vn 0.07340000 0.94760000 0.31080000
vn -0.75010000 0.56440000 0.34480000
vn -0.52480000 0.83390000 0.17090000
vn 0.18200000 0.93500000 0.30440000
vn -0.83060000 0.33990000 0.44120000
vn -0.90560000 0.38380000 0.18050000
vn -0.60150000 0.61060000 0.51520000
vn -0.60150000 0.61060000 0.51520000
vn -0.52880000 0.51940000 0.67120000
vn -0.52880000 0.51940000 0.67120000
vn -0.19680000 0.84040000 0.50490000
vn -0.19680000 0.84040000 0.50490000
vn -0.19680000 0.84040000 0.50490000
vn -0.71190000 0.26970000 0.64840000
vn -0.71190000 0.26970000 0.64840000
vn -0.76170000 -0.04450000 0.64640000
vn -0.76170000 -0.04450000 0.64640000
vn -0.34760000 0.26680000 0.89890000
vn -0.86750000 0.05460000 0.49440000
vn -0.66790000 0.11450000 0.73540000
vn -0.06360000 0.04220000 0.99710000
vn -0.05970000 -0.01470000 0.99810000
vn 0.66900000 0.05270000 -0.74140000
vn -0.66410000 -0.11460000 0.73880000
vn -0.06830000 -0.04010000 0.99690000
vn 0.66600000 -0.16470000 -0.72750000
vn -0.05510000 0.07300000 0.99580000
vn 0.77130000 -0.22060000 -0.59700000
vn 0.77130000 -0.22060000 -0.59700000
vn -0.00720000 0.26270000 0.96480000
vn 0.56500000 -0.35310000 -0.74570000
vn 0.75430000 0.05510000 -0.65420000
vn 0.75430000 0.05510000 -0.65420000
vn 0.59730000 -0.43530000 -0.67360000
vn 0.59730000 -0.43530000 -0.67360000
vn 0.51070000 -0.55570000 -0.65610000
vn 0.04480000 0.63710000 0.76950000
vn 0.04480000 0.63710000 0.76950000
vn 0.71300000 -0.48350000 -0.50780000
vn 0.07370000 0.88100000 0.46740000
vn 0.59230000 -0.61730000 -0.51790000
vn 0.59230000 -0.61730000 -0.51790000
vn 0.65250000 -0.67800000 -0.33850000
vn 0.07180000 0.94510000 0.31880000
vn 0.65250000 -0.67800000 -0.33850000
vn 0.76080000 -0.54200000 -0.35690000
vn 0.90470000 -0.26130000 -0.33650000
vn 0.90950000 -0.03400000 -0.41430000
vn 0.83260000 0.23490000 -0.50160000
vn 0.68730000 0.50760000 -0.51960000
vn 0.68730000 0.50760000 -0.51960000
vn 0.64080000 0.37150000 -0.67190000
vn 0.64080000 0.37150000 -0.67190000
vn 0.64080000 0.37150000 -0.67190000
vn -0.05560000 -0.13600000 0.98910000
vn 0.61810000 0.23120000 -0.75130000
vn 0.53280000 0.55530000 -0.63860000
vn 0.03310000 -0.67790000 0.73450000
vn 0.03310000 -0.67790000 0.73450000
vn 0.53280000 0.55530000 -0.63860000
vn -0.00890000 -0.36580000 0.93060000
vn 0.50580000 0.45100000 -0.73540000
vn -0.20010000 -0.43150000 0.87960000
vn -0.10290000 -0.69140000 0.71520000
vn -0.10290000 -0.69140000 0.71520000
vn -0.34700000 -0.26250000 0.90040000
vn -0.52750000 -0.53500000 0.66000000
vn -0.52750000 -0.53500000 0.66000000
vn -0.34820000 -0.60280000 0.71800000
vn -0.34820000 -0.60280000 0.71800000
vn -0.26140000 -0.82620000 0.49900000
vn -0.32990000 -0.70300000 0.63000000
vn -0.27970000 -0.65770000 0.69940000
vn -0.27970000 -0.65770000 0.69940000
vn -0.69310000 -0.50920000 0.51020000
vn -0.69310000 -0.50920000 0.51020000
vn -0.69310000 -0.50920000 0.51020000
vn -0.61020000 -0.73950000 0.28410000
vn -0.24980000 -0.89400000 0.37200000
vn 0.59080000 0.61660000 -0.52040000
vn 0.06700000 -0.88730000 0.45640000
vn -0.77010000 -0.52330000 0.36500000
vn -0.77010000 -0.52330000 0.36500000
vn -0.82540000 -0.54030000 0.16380000
vn -0.82540000 -0.54030000 0.16380000
vn -0.91860000 -0.21730000 0.33020000
vn -0.95510000 -0.24410000 0.16770000
vn -0.84030000 -0.22930000 0.49120000
vn -0.84030000 -0.22930000 0.49120000
vn -0.68950000 -0.30280000 0.65790000
vn -0.98280000 0.08400000 0.16440000
vn -0.96460000 -0.26390000 0.00410000
vn -0.99800000 0.06350000 -0.00000000
vn -0.95470000 -0.23730000 -0.17930000
vn -0.83770000 -0.53330000 -0.11810000
vn -0.83770000 -0.53330000 -0.11810000
vn -0.75450000 -0.48500000 -0.44210000
vn -0.75450000 -0.48500000 -0.44210000
vn -0.75450000 -0.48500000 -0.44210000
vn -0.75450000 -0.48500000 -0.44210000
vn -0.75450000 -0.48500000 -0.44210000
vn -0.91600000 -0.22730000 -0.33050000
vn -0.84210000 -0.21590000 -0.49420000
vn -0.84210000 -0.21590000 -0.49420000
vn -0.87060000 0.06490000 -0.48760000
vn -0.82770000 -0.06040000 -0.55800000
vn -0.07170000 -0.00120000 -0.99740000
vn -0.82770000 -0.06040000 -0.55800000
vn -0.76210000 -0.28550000 -0.58110000
vn -0.03160000 0.00030000 -0.99950000
vn -0.46820000 -0.69370000 -0.54740000
vn -0.46820000 -0.69370000 -0.54740000
vn -0.65850000 -0.66690000 -0.34880000
vn -0.40360000 -0.83540000 -0.37320000
vn -0.53220000 -0.82910000 -0.17100000
vn -0.21970000 -0.96960000 0.10780000
vn -0.10340000 -0.98910000 -0.10470000
vn -0.67800000 -0.73510000 -0.00340000
vn -0.25400000 -0.94260000 0.21670000
vn 0.51170000 0.82340000 0.24510000
vn 0.12150000 -0.99170000 -0.04190000
vn 0.52940000 0.84760000 0.03540000
vn 0.09280000 -0.97910000 0.18090000
vn 0.08430000 -0.95420000 0.28700000
vn 0.66400000 0.73270000 -0.14910000
vn 0.65860000 0.67220000 -0.33830000
vn 0.09070000 -0.94520000 0.31370000
vn -0.94160000 0.09250000 0.32370000
vn 0.07460000 0.95580000 0.28440000
vn 0.65460000 -0.73920000 -0.15850000
vn 0.09140000 0.97960000 0.17900000
vn 0.52890000 -0.84800000 0.03510000
vn 0.50120000 -0.83110000 0.24090000
vn 0.12150000 0.99160000 -0.04500000
vn -0.10760000 0.98800000 -0.11120000
vn -0.09690000 0.92730000 -0.36140000
vn 0.06810000 0.91080000 -0.40720000
vn 0.46730000 -0.79410000 0.38860000
vn -0.10840000 0.77950000 -0.61700000
vn -0.10840000 0.77950000 -0.61700000
vn 0.47100000 -0.74000000 0.48020000
vn 0.03280000 0.67980000 -0.73270000
vn 0.03280000 0.67980000 -0.73270000
vn -0.10570000 0.69420000 0.71200000
vn -0.10570000 0.69420000 0.71200000
vn -0.19770000 0.43360000 0.87910000
vn -0.35230000 0.60590000 0.71330000
vn -0.27980000 0.65740000 0.69970000
vn -0.36580000 0.69470000 0.61940000
vn 0.83830000 0.22660000 0.49580000
vn 0.83830000 0.22660000 0.49580000
vn 0.83830000 0.22660000 0.49580000
vt 0.37450300 0.12635900
vt 0.69218300 0.10951200
vt 0.36694800 0.67768600
vt 0.37647500 0.10552100
vt 0.68914800 0.08879500
vt 0.38481800 0.09673100
vt 0.99157800 0.64966100
vt 0.97023900 0.73026800
vt 0.69322100 0.07862200
vt 0.68039800 0.09248200
vt 0.68281000 0.10562500
vt 0.36480900 0.66809100
vt 0.37973400 0.11995200
vt 0.35857600 0.67989800
vt 0.39347100 0.10622300
vt 0.34028800 0.68010700
vt 0.97023900 0.64966100
vt 0.34987200 0.67495400
vt 0.97050800 0.65422500
vt 0.33779300 0.67411100
vt 0.34472800 0.66479800
vt 0.35197100 0.64984900
vt 0.32887600 0.66295600
vt 0.47516100 0.37743600
vt 0.33651600 0.65376800
vt 0.46524700 0.38757800
vt 0.33886300 0.64303000
vt 0.46332200 0.39844000
vt 0.48242400 0.38718100
vt 0.47587500 0.40334500
vt 0.32739600 0.63582900
vt 0.34021500 0.63264700
vt 0.46453300 0.40893600
vt 0.49145400 0.40756100
vt 0.48271600 0.41876200
vt 0.46690900 0.41952000
vt 0.34319100 0.62271100
vt 0.48996500 0.39742300
vt 0.49358200 0.38122500
vt 0.51084700 0.39773900
vt 0.51144900 0.40833900
vt 0.51237800 0.38784100
vt 0.53055500 0.39881300
vt 0.54278400 0.39558000
vt 0.84693300 0.67560200
vt 0.53091300 0.40985300
vt 0.82988600 0.67046200
vt 0.53107400 0.38848400
vt 0.85047400 0.66446200
vt 0.53792700 0.37951000
vt 0.86254800 0.67113400
vt 0.52706100 0.37205800
vt 0.97865700 0.70869500
vt 0.86801200 0.66399800
vt 0.51186100 0.37802100
vt 0.50167500 0.36896200
vt 0.97985400 0.50246100
vt 0.51514700 0.36929000
vt 0.51595700 0.36330500
vt 0.99419400 0.49547900
vt 0.97023900 0.70082300
vt 0.43670100 0.10363500
vt 0.97023900 0.49547900
vt 0.49200900 0.36295100
vt 0.99154900 0.64966100
vt 0.41331300 0.09845800
vt 0.99076200 0.70082300
vt 0.87853900 0.67492300
vt 0.45216200 0.11713200
vt 0.43220500 0.35750400
vt 0.44556900 0.08922400
vt 0.44556900 0.08922400
vt 0.59452400 0.67957000
vt 0.45525000 0.10146100
vt 0.44638900 0.35634000
vt 0.41749000 0.35738700
vt 0.43330600 0.08087900
vt 0.42417300 0.35083400
vt 0.98112400 0.64380800
vt 0.39604500 0.08592000
vt 0.39604500 0.08592000
vt 0.44062400 0.35080400
vt 0.45415300 0.09086900
vt 0.44391500 0.34154900
vt 0.45357800 0.34672300
vt 0.59217400 0.67035700
vt 0.42522400 0.34123700
vt 0.42507000 0.33159400
vt 0.40591000 0.34182800
vt 0.40586800 0.33180700
vt 0.43978000 0.33146800
vt 0.43957900 0.31547800
vt 0.45370700 0.33101800
vt 0.58507400 0.65486000
vt 0.42470100 0.32166400
vt 0.44865800 0.31534700
vt 0.45940400 0.32024200
vt 0.59016000 0.64421800
vt 0.45267400 0.30118500
vt 0.58879000 0.62490000
vt 0.43475600 0.30104400
vt 0.45589100 0.31154100
vt 0.58768600 0.63542700
vt 0.42253200 0.29528500
vt 0.42495000 0.31089000
vt 0.61391500 0.35718800
vt 0.44074700 0.29223600
vt 0.43788200 0.28461200
vt 0.60896100 0.35287100
vt 0.62032700 0.34574800
vt 0.45112900 0.29232800
vt 0.59393000 0.61583900
vt 0.42068400 0.28417600
vt 0.59481500 0.36355100
vt 0.40282600 0.28465600
vt 0.57667200 0.36652300
vt 0.59713900 0.35233200
vt 0.40632200 0.29233600
vt 0.58636800 0.35612400
vt 0.58636800 0.35612400
vt 0.57698000 0.33504100
vt 0.65222800 0.12144400
vt 0.57342900 0.35637300
vt 0.57342900 0.35637300
vt 0.66333800 0.12239200
vt 0.58808900 0.33408900
vt 0.66814900 0.10951200
vt 0.51026500 0.43360900
vt 0.59937600 0.32976900
vt 0.67463700 0.12669400
vt 0.65168600 0.11074100
vt 0.49408900 0.43679200
vt 0.67951200 0.11952300
vt 0.52281700 0.43782800
vt 0.68793900 0.13160700
vt 0.61262100 0.32477400
vt 0.61628400 0.60638000
vt 0.52528600 0.42911100
vt 0.60981600 0.61605900
vt 0.69464900 0.12697500
vt 0.53882800 0.42992800
vt 0.82505900 0.68782000
vt 0.60543100 0.62538100
vt 0.54211500 0.42041900
vt 0.52904800 0.42002600
vt 0.51154700 0.41864300
vt 0.49867000 0.42406900
vt 0.48340000 0.42807800
vt 0.46990000 0.42905100
vt 0.34788300 0.61438200
vt 0.47720700 0.43782800
vt 0.63379200 0.11738900
vt 0.34965400 0.60638000
vt 0.56663200 0.33233300
vt 0.64188500 0.12415100
vt 0.36694800 0.60976300
vt 0.54588000 0.32477400
vt 0.62406000 0.10951200
vt 0.62121500 0.13160700
vt 0.55590700 0.32731300
vt 0.63118400 0.12914500
vt 0.55267100 0.34479300
vt 0.62232900 0.09216600
vt 0.54503800 0.34224600
vt 0.56223000 0.35228500
vt 0.55057900 0.35323700
vt 0.62121500 0.08101500
vt 0.54547200 0.34373500
vt 0.62223300 0.09066100
vt 0.63040500 0.08701500
vt 0.62285400 0.09059900
vt 0.54533200 0.34366200
vt 0.62233500 0.09072700
vt 0.62717400 0.07058100
vt 0.38138800 0.29283900
vt 0.55177800 0.36278000
vt 0.64284200 0.07436800
vt 0.63870000 0.08338200
vt 0.36352500 0.61762500
vt 0.63223200 0.10444200
vt 0.63564300 0.06522700
vt 0.37738000 0.30178100
vt 0.64561100 0.06183300
vt 0.37450300 0.31201500
vt 0.38965100 0.30165400
vt 0.38714900 0.31151500
vt 0.56627300 0.37103900
vt 0.39148800 0.29267600
vt 0.56248600 0.36226700
vt 0.40486400 0.31112000
vt 0.38584400 0.32188500
vt 0.40371900 0.32147500
vt 0.38763400 0.33262700
vt 0.66190400 0.05836100
vt 0.37460000 0.32859600
vt 0.68182800 0.06057800
vt 0.38027500 0.34825300
vt 0.39284000 0.07825600
vt 0.97023900 0.64966100
vt 0.99038100 0.73026800
vt 0.38981000 0.34250200
vt 0.39230700 0.35136900
vt 0.40848500 0.07407600
vt 0.40703200 0.35074700
vt 0.41764500 0.07798900
vt 0.41764500 0.07798900
vt 0.40222200 0.35750400
vt 0.40659800 0.08030900
vt 0.40659800 0.08030900
vt 0.97191200 0.72623100
vt 0.68789600 0.07642100
vt 0.67758200 0.06699100
vt 0.67894000 0.07978600
vt 0.66792600 0.07520700
vt 0.65829700 0.08429100
vt 0.67057700 0.09069400
vt 0.65711100 0.06809100
vt 0.64907200 0.08167800
vt 0.36430100 0.65624700
vt 0.67108000 0.10380700
vt 0.36155700 0.64757900
vt 0.66252100 0.10071200
vt 0.65051800 0.09844400
vt 0.35907000 0.63554300
vt 0.35958600 0.62638000
vt 0.64125000 0.09955500
vt 0.40646800 0.30128700
vt 0.60414800 0.63466900
vt 0.83370400 0.68494700
vt 0.60663100 0.64686200
vt 0.84617000 0.68518300
vt 0.85479700 0.68668200
vt 0.60999100 0.65486200
vt 0.59732300 0.65573700
vt 0.60127900 0.66561200
vt 0.61527300 0.66762700
vt 0.86848500 0.68782000
vt 0.60123500 0.67428300
vt 0.46232600 0.11193000
vt 0.87853800 0.68377300
vt 0.61626300 0.67789800
vt 0.45796000 0.12635900
vt 0.59908400 0.60762400
vt 0.61441100 0.34238500
vt 0.60670800 0.34485400
vt 0.61396600 0.34387600
vt 0.61410800 0.34380400
vt 0.61452800 0.34388300
vt 0.48502300 0.36855200
vt 0.98705200 0.65545100
vt 0.32544700 0.67199000
f 6/6/6 1/1/1 4/4/4
f 10/10/10 5/5/5 2/2/2
f 1/1/1 6/6/6 13/13/13
f 11/11/11 10/10/10 2/2/2
f 14/14/14 12/12/12 3/3/3
f 12/12/12 14/14/14 18/18/18
f 18/18/18 14/14/14 16/16/16
f 13/13/13 6/6/6 15/15/15
f 18/18/18 16/16/16 20/20/20
f 21/21/21 18/18/18 20/20/20
f 12/12/12 18/18/18 21/21/21
f 22/22/22 12/12/12 21/21/21
f 25/25/25 22/22/22 21/21/21
f 21/21/21 20/20/20 23/23/23
f 25/25/25 21/21/21 23/23/23
f 26/26/26 30/30/30 28/28/28
f 22/22/22 25/25/25 27/27/27
f 26/26/26 24/24/24 29/29/29
f 26/26/26 29/29/29 30/30/30
f 32/32/32 27/27/27 31/31/31
f 36/36/36 33/33/33 30/30/30
f 30/30/30 38/38/38 34/34/34
f 30/30/30 34/34/34 35/35/35
f 29/29/29 38/38/38 30/30/30
f 36/36/36 30/30/30 35/35/35
f 34/34/34 38/38/38 40/40/40
f 39/39/39 40/40/40 38/38/38
f 29/29/29 39/39/39 38/38/38
f 34/34/34 40/40/40 41/41/41
f 41/41/41 40/40/40 43/43/43
f 42/42/42 43/43/43 40/40/40
f 39/39/39 42/42/42 40/40/40
f 48/48/48 44/44/44 43/43/43
f 46/46/46 43/43/43 44/44/44
f 41/41/41 43/43/43 46/46/46
f 42/42/42 48/48/48 43/43/43
f 48/48/48 52/52/52 50/50/50
f 45/45/45 49/49/49 51/51/51
f 55/55/55 48/48/48 42/42/42
f 55/55/55 52/52/52 48/48/48
f 39/39/39 55/55/55 42/42/42
f 39/39/39 56/56/56 55/55/55
f 55/55/55 56/56/56 58/58/58
f 55/55/55 58/58/58 52/52/52
f 59/59/59 58/58/58 56/56/56
f 58/58/58 59/59/59 52/52/52
f 63/63/63 60/60/60 57/57/57
f 66/66/66 72/72/72 62/62/62
f 53/53/53 61/61/61 67/67/67
f 72/72/72 69/69/69 62/62/62
f 74/74/74 69/69/69 72/72/72
f 74/74/74 71/71/71 83/83/83
f 77/77/77 72/72/72 81/81/81
f 78/78/78 70/70/70 76/76/76
f 70/70/70 78/78/78 82/82/82
f 72/72/72 66/66/66 81/81/81
f 82/82/82 87/87/87 84/84/84
f 84/84/84 85/85/85 82/82/82
f 75/75/75 82/82/82 85/85/85
f 82/82/82 78/78/78 87/87/87
f 78/78/78 89/89/89 87/87/87
f 87/87/87 91/91/91 84/84/84
f 87/87/87 90/90/90 88/88/88
f 87/87/87 88/88/88 91/91/91
f 87/87/87 89/89/89 90/90/90
f 91/91/91 95/95/95 92/92/92
f 91/91/91 92/92/92 96/96/96
f 91/91/91 88/88/88 95/95/95
f 84/84/84 91/91/91 93/93/93
f 91/91/91 96/96/96 93/93/93
f 93/93/93 96/96/96 97/97/97
f 102/102/102 97/97/97 96/96/96
f 96/96/96 101/101/101 99/99/99
f 99/99/99 102/102/102 96/96/96
f 96/96/96 92/92/92 101/101/101
f 98/98/98 103/103/103 100/100/100
f 105/105/105 104/104/104 101/101/101
f 101/101/101 104/104/104 107/107/107
f 92/92/92 105/105/105 101/101/101
f 101/101/101 107/107/107 99/99/99
f 107/107/107 113/113/113 108/108/108
f 110/110/110 106/106/106 109/109/109
f 107/107/107 111/111/111 99/99/99
f 107/107/107 104/104/104 113/113/113
f 118/118/118 115/115/115 113/113/113
f 119/119/119 114/114/114 116/116/116
f 104/104/104 118/118/118 113/113/113
f 114/114/114 117/117/117 109/109/109
f 114/114/114 119/119/119 117/117/117
f 120/120/120 121/121/121 126/126/126
f 121/121/121 120/120/120 124/124/124
f 119/119/119 116/116/116 123/123/123
f 117/117/117 120/120/120 126/126/126
f 125/125/125 127/127/127 133/133/133
f 131/131/131 127/127/127 125/125/125
f 125/125/125 133/133/133 130/130/130
f 117/117/117 126/126/126 129/129/129
f 131/131/131 125/125/125 122/122/122
f 130/130/130 133/133/133 135/135/135
f 133/133/133 140/140/140 135/135/135
f 128/128/128 138/138/138 134/134/134
f 134/134/134 138/138/138 141/141/141
f 145/145/145 144/144/144 141/141/141
f 139/139/139 143/143/143 112/112/112
f 145/145/145 141/141/141 138/138/138
f 139/139/139 112/112/112 137/137/137
f 146/146/146 145/145/145 138/138/138
f 144/144/144 145/145/145 46/46/46
f 146/146/146 46/46/46 145/145/145
f 146/146/146 128/128/128 147/147/147
f 147/147/147 41/41/41 146/146/146
f 146/146/146 41/41/41 46/46/46
f 146/146/146 138/138/138 128/128/128
f 35/35/35 147/147/147 148/148/148
f 132/132/132 148/148/148 147/147/147
f 132/132/132 147/147/147 128/128/128
f 34/34/34 147/147/147 35/35/35
f 147/147/147 34/34/34 41/41/41
f 151/151/151 148/148/148 132/132/132
f 36/36/36 148/148/148 149/149/149
f 151/151/151 149/149/149 148/148/148
f 36/36/36 35/35/35 148/148/148
f 161/161/161 152/152/152 155/155/155
f 155/155/155 152/152/152 131/131/131
f 150/150/150 153/153/153 156/156/156
f 152/152/152 161/161/161 159/159/159
f 154/154/154 162/162/162 160/160/160
f 160/160/160 162/162/162 157/157/157
f 162/162/162 168/168/168 164/164/164
f 162/162/162 164/164/164 157/157/157
f 166/166/166 162/162/162 165/165/165
f 165/165/165 162/162/162 154/154/154
f 162/162/162 166/166/166 168/168/168
f 170/170/170 169/169/169 167/167/167
f 170/170/170 171/171/171 169/169/169
f 172/172/172 164/164/164 168/168/168
f 171/171/171 163/163/163 173/173/173
f 171/171/171 170/170/170 163/163/163
f 167/167/167 174/174/174 170/170/170
f 170/170/170 174/174/174 181/181/181
f 178/178/178 170/170/170 177/177/177
f 170/170/170 181/181/181 177/177/177
f 158/158/158 163/163/163 170/170/170
f 158/158/158 170/170/170 180/180/180
f 180/180/180 170/170/170 178/178/178
f 182/182/182 175/175/175 188/188/188
f 183/183/183 177/177/177 181/181/181
f 186/186/186 184/184/184 182/182/182
f 182/182/182 188/188/188 185/185/185
f 186/186/186 182/182/182 185/185/185
f 185/185/185 188/188/188 118/118/118
f 187/187/187 189/189/189 116/116/116
f 118/118/118 188/188/188 115/115/115
f 187/187/187 176/176/176 189/189/189
f 176/176/176 166/166/166 189/189/189
f 189/189/189 166/166/166 165/165/165
f 123/123/123 116/116/116 189/189/189
f 123/123/123 189/189/189 165/165/165
f 190/190/190 186/186/186 185/185/185
f 191/191/191 184/184/184 186/186/186
f 192/192/192 186/186/186 190/190/190
f 192/192/192 191/191/191 186/186/186
f 193/193/193 191/191/191 192/192/192
f 95/95/95 192/192/192 190/190/190
f 90/90/90 192/192/192 95/95/95
f 193/193/193 192/192/192 90/90/90
f 89/89/89 193/193/193 90/90/90
f 195/195/195 191/191/191 193/193/193
f 197/197/197 195/195/195 193/193/193
f 197/197/197 193/193/193 201/201/201
f 89/89/89 201/201/201 193/193/193
f 202/202/202 197/197/197 201/201/201
f 204/204/204 202/202/202 201/201/201
f 204/204/204 201/201/201 89/89/89
f 78/78/78 76/76/76 204/204/204
f 78/78/78 204/204/204 89/89/89
f 207/207/207 202/202/202 204/204/204
f 204/204/204 76/76/76 207/207/207
f 208/208/208 203/203/203 205/205/205
f 206/206/206 77/77/77 209/209/209
f 208/208/208 198/198/198 203/203/203
f 77/77/77 81/81/81 209/209/209
f 208/208/208 80/80/80 198/198/198
f 196/196/196 212/212/212 194/194/194
f 199/199/199 79/79/79 7/7/7
f 200/200/200 8/8/8 210/210/210
f 196/196/196 211/211/211 212/212/212
f 213/213/213 212/212/212 211/211/211
f 212/212/212 214/214/214 194/194/194
f 213/213/213 214/214/214 212/212/212
f 215/215/215 214/214/214 216/216/216
f 214/214/214 215/215/215 217/217/217
f 216/216/216 214/214/214 213/213/213
f 214/214/214 217/217/217 194/194/194
f 218/218/218 217/217/217 215/215/215
f 194/194/194 217/217/217 183/183/183
f 217/217/217 177/177/177 183/183/183
f 218/218/218 177/177/177 217/217/217
f 218/218/218 215/215/215 178/178/178
f 218/218/218 178/178/178 177/177/177
f 10/10/10 11/11/11 216/216/216
f 216/216/216 213/213/213 10/10/10
f 215/215/215 216/216/216 222/222/222
f 220/220/220 216/216/216 11/11/11
f 216/216/216 220/220/220 222/222/222
f 215/215/215 222/222/222 223/223/223
f 221/221/221 22/22/22 224/224/224
f 22/22/22 221/221/221 219/219/219
f 32/32/32 225/225/225 224/224/224
f 226/226/226 178/178/178 223/223/223
f 27/27/27 224/224/224 22/22/22
f 27/27/27 32/32/32 224/224/224
f 178/178/178 215/215/215 223/223/223
f 37/37/37 179/179/179 225/225/225
f 32/32/32 37/37/37 225/225/225
f 178/178/178 226/226/226 180/180/180
f 22/22/22 219/219/219 12/12/12
f 213/213/213 211/211/211 5/5/5
f 213/213/213 5/5/5 10/10/10
f 9/9/9 5/5/5 211/211/211
f 191/191/191 195/195/195 184/184/184
f 95/95/95 190/190/190 105/105/105
f 105/105/105 190/190/190 227/227/227
f 190/190/190 185/185/185 227/227/227
f 185/185/185 118/118/118 227/227/227
f 227/227/227 118/118/118 104/104/104
f 105/105/105 227/227/227 104/104/104
f 150/150/150 156/156/156 179/179/179
f 37/37/37 150/150/150 179/179/179
f 124/124/124 165/165/165 154/154/154
f 155/155/155 131/131/131 122/122/122
f 121/121/121 124/124/124 154/154/154
f 112/112/112 143/143/143 100/100/100
f 143/143/143 228/228/228 100/100/100
f 142/142/142 47/47/47 229/229/229
f 100/100/100 228/228/228 98/98/98
f 228/228/228 230/230/230 98/98/98
f 229/229/229 45/45/45 231/231/231
f 47/47/47 45/45/45 229/229/229
f 98/98/98 230/230/230 234/234/234
f 231/231/231 45/45/45 232/232/232
f 234/234/234 230/230/230 233/233/233
f 86/86/86 234/234/234 235/235/235
f 236/236/236 235/235/235 234/234/234
f 98/98/98 234/234/234 94/94/94
f 86/86/86 94/94/94 234/234/234
f 233/233/233 236/236/236 234/234/234
f 238/238/238 235/235/235 236/236/236
f 51/51/51 240/240/240 237/237/237
f 232/232/232 51/51/51 237/237/237
f 241/241/241 238/238/238 236/236/236
f 69/69/69 74/74/74 242/242/242
f 51/51/51 68/68/68 240/240/240
f 242/242/242 74/74/74 239/239/239
f 238/238/238 86/86/86 235/235/235
f 238/238/238 73/73/73 86/86/86
f 232/232/232 45/45/45 51/51/51
f 243/243/243 137/137/137 112/112/112
f 136/136/136 244/244/244 245/245/245
f 129/129/129 136/136/136 245/245/245
f 246/246/246 245/245/245 244/244/244
f 109/109/109 245/245/245 246/246/246
f 245/245/245 109/109/109 117/117/117
f 245/245/245 117/117/117 129/129/129
f 110/110/110 109/109/109 246/246/246
f 244/244/244 247/247/247 246/246/246
f 248/248/248 110/110/110 246/246/246
f 248/248/248 244/244/244 110/110/110
f 248/248/248 247/247/247 244/244/244
f 92/92/92 95/95/95 105/105/105
f 90/90/90 95/95/95 88/88/88
f 84/84/84 93/93/93 85/85/85
f 81/81/81 66/66/66 15/15/15
f 15/15/15 6/6/6 81/81/81
f 51/51/51 54/54/54 68/68/68
f 64/64/64 56/56/56 249/249/249
f 250/250/250 17/17/17 65/65/65
f 39/39/39 249/249/249 56/56/56
f 19/19/19 17/17/17 250/250/250
f 23/23/23 20/20/20 251/251/251
f 24/24/24 249/249/249 39/39/39
f 29/29/29 24/24/24 39/39/39

