# Blender 4.1.1
# www.blender.org
mtllib link_leg_0_L_0.mtl
o link_leg_0_L_0
v -2.276040 -2.706840 -1.596869
v -1.814770 -6.232015 -0.637777
v -0.970333 -5.867063 -2.461681
v -1.121038 -2.852288 -2.861171
v -2.493957 -2.095007 -2.492035
v -3.082112 -1.714408 -1.778885
v -2.820375 -0.840659 -3.043403
v 0.084484 -3.118128 -2.685518
v 1.290313 -2.858360 -2.653763
v 1.699165 -2.834593 -2.344808
v 2.617942 -2.411748 -1.594261
v 1.292903 -4.921265 -2.462041
v 1.578467 -5.054651 -2.169514
v 2.004897 -3.094264 -0.476127
v 2.882636 -2.231867 0.361182
v 1.914256 -3.044871 0.506417
v 3.356541 -1.573195 -0.775849
v 3.224789 -1.164828 -2.077135
v 3.653144 -0.143132 -0.980512
v 3.396464 0.652856 -2.074292
v 2.847636 -0.743596 -3.039717
v -0.742335 2.521304 -3.516482
v -1.123709 3.179790 -2.339953
v 0.374469 2.584783 -3.523152
v 1.565099 2.795418 -2.680862
v 0.140784 3.541392 -1.789278
v 0.932335 3.435441 -1.592733
v 1.640768 3.341965 -0.263147
v 2.217293 2.807971 -1.630031
v 0.220564 3.726813 -0.190563
v 0.837744 3.387161 1.158097
v -1.482224 3.410745 -0.724977
v -0.462072 3.297009 1.602636
v -1.003299 3.448361 0.721518
v -1.222052 2.783012 2.217042
v -2.288537 2.728251 0.992697
v -2.729979 2.495035 0.011791
v -3.157673 1.486709 1.177955
v -3.217259 1.872160 -0.652169
v -3.657364 0.731433 -0.559467
v -3.478536 0.157015 1.200411
v -3.681530 -0.181457 -0.155747
v -3.320152 -1.110482 1.024394
v -2.999389 -0.224271 2.211791
v -2.866340 0.777475 2.256909
v -2.053055 -0.797381 3.205840
v -2.822159 -1.250366 2.040885
v -2.083488 0.056772 3.305818
v -2.045445 1.019889 3.134688
v -2.125067 2.058747 2.319266
v -0.812401 1.794770 3.418350
v -0.915823 0.602901 3.889293
v -0.956741 -0.538111 3.842029
v 0.316303 1.051400 3.878503
v 0.404865 0.089041 4.061966
v 1.621081 -0.334826 3.610798
v 1.660451 0.947652 3.436330
v 0.200547 -0.732594 3.965482
v 0.566310 -1.451249 3.649146
v 2.222509 -1.134956 2.923713
v 1.455974 -2.108928 2.845589
v 0.065744 -2.161468 3.239682
v 2.131435 -2.490066 1.645549
v 1.666984 -2.947617 1.357730
v 2.785706 -1.800351 1.577397
v 2.693676 -0.573949 2.575579
v 3.334587 -0.916301 1.260672
v 3.258926 0.683071 1.598165
v 2.686204 0.306366 2.678766
v 3.615422 -0.397376 0.475628
v 3.661499 0.693722 -0.541459
v 3.357139 1.177246 0.801217
v 3.252825 1.821947 -0.526769
v 2.771008 1.932278 -2.216600
v 2.532379 2.710475 -0.158763
v 1.997637 2.789092 1.333318
v 2.811721 1.974090 1.343735
v 2.383493 1.741027 2.372597
v 1.258610 2.532703 2.500348
v 1.326958 1.571223 3.316321
v 0.225138 2.442869 2.981481
v 0.328301 3.115717 1.966430
v 2.327071 1.545588 -3.305247
v 2.862892 0.383560 -3.160499
v 1.751193 -5.554936 0.620094
v 1.351367 -6.409899 2.227965
v 0.521345 -2.874672 2.312390
v 0.641673 -6.343100 2.648098
v -0.144219 -5.035105 2.534274
v -0.455556 -6.873465 2.528721
v -0.916970 -5.525058 2.017296
v -1.278105 -3.079579 1.508147
v -1.801190 -3.009403 0.895150
v -1.051319 -2.498967 2.633687
v -2.626932 -2.261217 1.175847
v -2.118092 -1.853275 2.513727
v -0.979809 -1.457223 3.521957
v -2.169155 -2.956735 -0.010879
v -3.025690 -2.124830 -0.242756
v -3.508098 -1.163268 -0.407792
v -3.560768 -0.374804 -1.555382
v -3.234848 -0.086591 -2.571628
v -3.198332 1.082296 -2.268403
v -2.876598 0.096186 -3.137195
v -2.505860 1.248735 -3.278124
v -1.667750 2.122396 -3.416283
v -2.676853 1.993315 -2.335539
v -2.245346 2.702845 -1.863087
v -1.468545 -5.879807 1.205498
v -1.812970 -6.303544 0.298097
v -1.990731 -7.193809 -0.181271
v -1.609002 -7.422751 1.478975
v -1.414590 -9.207376 -0.347677
v -0.143857 -9.690035 1.529757
v -0.889421 -10.018165 0.831929
v -0.810388 -10.356750 -0.061540
v -0.049890 -10.671924 0.492372
v -0.201551 -10.669024 -0.305550
v 0.259474 -10.615819 -0.105325
v 0.884131 -9.852072 -0.470952
v 0.894507 -10.013996 0.402851
v 1.339297 -8.798934 -0.902286
v 0.720671 -9.510839 1.324151
v 1.812987 -7.599374 0.812458
v 1.126368 -7.541628 -0.967147
v -1.536694 -6.755338 -1.635101
v -2.312518 -1.864462 -2.958737
v -0.026523 -2.990428 -2.869268
v 1.083711 -2.817484 -2.878642
v 2.310019 -1.918329 -2.946097
v 1.527624 2.196452 -3.428053
v -0.525790 -10.084970 -0.920881
v 0.370726 -9.993200 -0.965666
v 0.626550 -7.985602 -1.689435
v 1.013752 -6.373256 -2.270641
v -0.977547 -8.530414 -1.475329
vn -0.9797 -0.0200 -0.1994
vn -0.8153 -0.5008 -0.2907
vn -0.8313 -0.1392 -0.5381
vn -0.6939 -0.3832 -0.6096
vn -0.6746 -0.6004 -0.4294
vn -0.8485 -0.4598 -0.2618
vn 0.0535 -0.8200 -0.5698
vn -0.0277 -0.8286 -0.5591
vn 0.2921 -0.8448 -0.4484
vn 0.4923 -0.5980 -0.6324
vn 0.5996 -0.5666 -0.5652
vn 0.6952 -0.5686 -0.4398
vn 0.7121 -0.6683 -0.2151
vn 0.6679 -0.1435 -0.7303
vn 0.9075 -0.2753 -0.3173
vn 0.9730 -0.2299 0.0211
vn 0.9831 -0.0669 -0.1701
vn 0.6755 -0.7367 -0.0328
vn 0.9369 -0.3256 0.1270
vn 0.7837 -0.6092 0.1215
vn 0.9000 -0.4319 -0.0596
vn 0.6394 -0.7480 0.1782
vn 0.8902 -0.3097 -0.3341
vn 0.9887 -0.0811 -0.1261
vn 0.9272 0.1714 -0.3330
vn 0.8734 -0.2032 -0.4426
vn 0.0206 0.9574 -0.2879
vn 0.4202 0.7842 -0.4566
vn 0.1017 0.8524 -0.5128
vn -0.2919 0.8739 -0.3887
vn 0.2833 0.9312 -0.2294
vn 0.4301 0.9025 0.0242
vn 0.0446 0.9984 0.0353
vn 0.6069 0.7615 -0.2277
vn 0.2337 0.9282 0.2893
vn -0.3943 0.9172 -0.0568
vn -0.2805 0.9399 0.1949
vn -0.1187 0.9167 0.3815
vn -0.3371 0.7817 0.5247
vn -0.6125 0.7462 0.2607
vn -0.7258 0.6853 0.0595
vn -0.8645 0.4066 0.2956
vn -0.8618 0.5038 -0.0588
vn -0.9792 0.2001 -0.0326
vn -0.9557 0.0413 0.2914
vn -0.9960 -0.0684 0.0575
vn -0.9133 -0.3135 0.2599
vn -0.8471 -0.0758 0.5261
vn -0.8128 0.2362 0.5325
vn -0.6240 0.0182 0.7812
vn -0.6085 -0.2575 0.7506
vn -0.8035 -0.3552 0.4777
vn -0.6037 0.3199 0.7302
vn -0.2493 0.5435 0.8015
vn -0.6136 0.5695 0.5469
vn -0.2873 0.1756 0.9416
vn 0.1339 0.0241 0.9907
vn -0.2960 -0.1666 0.9405
vn 0.1055 0.3504 0.9306
vn 0.5102 0.2575 0.8206
vn 0.4911 -0.1168 0.8632
vn 0.0492 -0.2508 0.9668
vn 0.1968 -0.4395 0.8764
vn 0.4321 -0.6132 0.6612
vn 0.6360 -0.3515 0.6870
vn 0.5996 -0.6871 0.4103
vn 0.0067 -0.6570 0.7539
vn 0.5055 -0.7758 0.3776
vn 0.7687 -0.5012 0.3975
vn 0.7931 -0.1611 0.5874
vn 0.9128 -0.2511 0.3222
vn 0.7766 0.0872 0.6239
vn 0.9086 0.1643 0.3840
vn 0.9834 -0.1008 0.1512
vn 0.9826 0.1850 -0.0161
vn 0.8685 0.4944 -0.0365
vn 0.9307 0.3026 0.2055
vn 0.7747 0.5236 -0.3547
vn 0.6891 0.7229 0.0500
vn 0.5400 0.7761 0.3257
vn 0.7801 0.5424 0.3120
vn 0.6718 0.4848 0.5600
vn 0.3686 0.7297 0.5759
vn 0.3759 0.4977 0.7817
vn 0.0587 0.7100 0.7018
vn 0.0983 0.8727 0.4782
vn 0.7213 0.4909 -0.4886
vn 0.8769 0.1294 -0.4629
vn 0.4634 0.6799 -0.5683
vn 0.7509 -0.0992 0.6529
vn 0.9694 -0.0060 0.2456
vn 0.9631 -0.0441 0.2657
vn 0.9576 -0.0494 0.2838
vn 0.6395 0.1321 0.7574
vn 0.1678 0.1855 0.9682
vn 0.1462 -0.8067 0.5726
vn 0.2434 -0.1011 0.9646
vn -0.3010 0.1058 0.9477
vn -0.7067 0.0640 0.7046
vn -0.3492 -0.1552 0.9241
vn -0.6064 -0.3973 0.6888
vn -0.7833 -0.4509 0.4278
vn -0.2944 -0.7449 0.5987
vn -0.7159 -0.6280 0.3050
vn -0.5961 -0.5545 0.5806
vn -0.2957 -0.4565 0.8392
vn -0.8110 -0.5845 0.0258
vn -0.6803 -0.7286 0.0793
vn -0.9478 -0.3189 -0.0000
vn -0.9680 -0.1074 -0.2270
vn -0.9078 -0.0384 -0.4176
vn -0.8522 -0.2769 -0.4439
vn -0.8429 0.0715 -0.5333
vn -0.8902 0.2884 -0.3528
vn -0.7545 0.3926 -0.5259
vn -0.7377 0.5561 -0.3827
vn -0.5247 0.6782 -0.5145
vn -0.6165 0.7391 -0.2714
vn -0.1995 0.8261 -0.5270
vn -0.9772 -0.0871 0.1934
vn -0.8943 0.0509 0.4445
vn -0.9815 0.0348 0.1883
vn -0.9948 -0.0894 -0.0485
vn -0.8405 -0.1474 0.5214
vn -0.9265 -0.3358 0.1695
vn -0.1030 -0.5352 0.8384
vn -0.8256 -0.5308 0.1914
vn -0.4301 -0.5481 0.7173
vn -0.6764 -0.7207 0.1518
vn -0.4843 -0.8567 0.1774
vn -0.4299 -0.8995 0.0784
vn 0.1264 -0.9916 -0.0276
vn 0.7761 -0.6007 0.1920
vn 0.5655 -0.8004 -0.1992
vn 0.7686 -0.5632 -0.3033
vn 0.3142 -0.7961 0.5172
vn 0.8384 -0.2588 -0.4798
vn 0.9752 -0.1685 0.1434
vn 0.5720 -0.4950 0.6541
vn 0.9657 -0.0568 -0.2535
vn 0.4602 -0.6434 -0.6118
vn 0.7793 -0.1982 -0.5945
vn 0.8988 -0.0402 -0.4365
vn 0.9490 -0.1765 -0.2613
vn 0.9711 -0.0734 -0.2270
vn 0.9159 -0.3831 -0.1199
vn -0.8521 -0.0764 -0.5177
vn -0.7781 -0.3269 -0.5363
vn -0.7043 -0.5444 -0.4556
vn -0.7980 -0.3772 -0.4700
vn 0.0726 -0.1065 -0.9917
vn 0.0477 -0.1108 -0.9927
vn 0.0636 -0.1184 -0.9909
vn 0.0461 -0.0924 -0.9947
vn 0.1161 -0.1248 -0.9854
vn 0.0294 -0.1146 -0.9930
vn -0.6595 -0.5398 -0.5231
vn -0.6658 -0.6192 -0.4163
vn -0.5411 -0.7336 -0.4112
vn 0.2050 -0.7672 -0.6077
vn 0.0383 -0.7146 -0.6985
vn 0.0590 -0.1416 -0.9882
vn -0.1107 -0.8462 -0.5212
vn 0.0830 -0.0854 -0.9929
vn 0.0574 -0.1054 -0.9928
vn 0.0007 -0.1165 -0.9932
vn 0.0043 -0.3396 -0.9406
vn 0.0038 -0.3399 -0.9404
vn -0.0123 -0.3391 -0.9407
vn -0.0224 -0.1195 -0.9926
vn -0.0180 -0.1198 -0.9926
vn -0.0603 -0.1025 -0.9929
vn 0.0457 -0.1076 -0.9931
vn 0.0535 -0.1071 -0.9928
vn 0.0099 -0.1172 -0.9931
vn -0.0222 -0.3472 -0.9375
vn -0.0577 -0.1029 -0.9930
vn -0.0679 -0.0919 -0.9934
vn -0.0517 -0.1078 -0.9928
vt 0.023917 0.949480
vt 0.033176 0.930628
vt 0.035126 0.945940
vt 0.876847 0.844910
vt 0.857966 0.847008
vt 0.877893 0.838182
vt 0.678591 0.948923
vt 0.682138 0.952568
vt 0.674631 0.957650
vt 0.682845 0.945969
vt 0.666449 0.960070
vt 0.667520 0.960723
vt 0.660672 0.963288
vt 0.658935 0.962626
vt 0.656104 0.962098
vt 0.655776 0.965221
vt 0.154247 0.501272
vt 0.146558 0.497882
vt 0.152094 0.497033
vt 0.877623 0.860943
vt 0.877893 0.863312
vt 0.863849 0.861324
vt 0.862981 0.863259
vt 0.141141 0.492366
vt 0.151264 0.479539
vt 0.151807 0.494401
vt 0.650217 0.953071
vt 0.649775 0.958822
vt 0.135783 0.492330
vt 0.135709 0.498573
vt 0.141407 0.503719
vt 0.148339 0.506452
vt 0.142023 0.513420
vt 0.148104 0.518642
vt 0.153599 0.508801
vt 0.956537 0.223002
vt 0.963876 0.213801
vt 0.966347 0.220634
vt 0.957765 0.229957
vt 0.956779 0.217523
vt 0.950650 0.211521
vt 0.947956 0.220528
vt 0.959065 0.208354
vt 0.942045 0.214350
vt 0.948248 0.230747
vt 0.941438 0.226473
vt 0.937629 0.221753
vt 0.933426 0.224276
vt 0.401884 0.966599
vt 0.402212 0.958614
vt 0.409057 0.960393
vt 0.394136 0.966263
vt 0.396452 0.956938
vt 0.401574 0.949042
vt 0.391995 0.952459
vt 0.391190 0.944579
vt 0.400054 0.939753
vt 0.392380 0.938525
vt 0.397915 0.932767
vt 0.405452 0.937856
vt 0.406825 0.944207
vt 0.410381 0.941715
vt 0.867292 0.935669
vt 0.861432 0.934485
vt 0.864823 0.928609
vt 0.871332 0.931015
vt 0.403454 0.932281
vt 0.858093 0.928262
vt 0.855253 0.933471
vt 0.848889 0.940595
vt 0.849051 0.931715
vt 0.857169 0.941493
vt 0.858823 0.950448
vt 0.864490 0.942312
vt 0.852558 0.948844
vt 0.852185 0.957929
vt 0.859809 0.958457
vt 0.864489 0.950126
vt 0.868714 0.953337
vt 0.871541 0.960041
vt 0.864599 0.963482
vt 0.873458 0.964892
vt 0.873763 0.950919
vt 0.987020 0.952909
vt 0.983837 0.958641
vt 0.982684 0.955433
vt 0.976713 0.958304
vt 0.129220 0.495852
vt 0.129001 0.500937
vt 0.123134 0.503159
vt 0.123218 0.508724
vt 0.129957 0.507066
vt 0.123837 0.514945
vt 0.127926 0.517594
vt 0.134334 0.511404
vt 0.139383 0.518825
vt 0.139311 0.525671
vt 0.132075 0.521375
vt 0.954838 0.198651
vt 0.963274 0.203749
vt 0.951582 0.204574
vt 0.148888 0.526735
vt 0.942957 0.206155
vt 0.944191 0.199210
vt 0.129358 0.525745
vt 0.123134 0.520341
vt 0.854273 0.964836
vt 0.845872 0.960688
vt 0.860252 0.966226
vt 0.937548 0.200555
vt 0.935432 0.208471
vt 0.847867 0.954681
vt 0.841604 0.953080
vt 0.843506 0.946604
vt 0.936778 0.216092
vt 0.931701 0.213864
vt 0.843568 0.938285
vt 0.968171 0.207745
vt 0.154644 0.522467
vt 0.154437 0.517002
vt 0.967901 0.213399
vt 0.127569 0.469118
vt 0.135922 0.475574
vt 0.131241 0.492515
vt 0.443699 0.903609
vt 0.446805 0.926633
vt 0.439189 0.927464
vt 0.973631 0.954288
vt 0.438996 0.904238
vt 0.434155 0.913185
vt 0.428898 0.910162
vt 0.431563 0.901021
vt 0.428742 0.926624
vt 0.423775 0.927229
vt 0.666310 0.934474
vt 0.656151 0.934686
vt 0.663386 0.929818
vt 0.675953 0.933779
vt 0.671244 0.937103
vt 0.671229 0.929909
vt 0.675691 0.928262
vt 0.870367 0.943285
vt 0.874252 0.936493
vt 0.877284 0.944039
vt 0.657885 0.928262
vt 0.397368 0.928262
vt 0.391280 0.929356
vt 0.680844 0.939777
vt 0.675302 0.940928
vt 0.389986 0.933282
vt 0.382778 0.932646
vt 0.385001 0.938946
vt 0.379425 0.942491
vt 0.376258 0.939432
vt 0.378720 0.933395
vt 0.376785 0.946034
vt 0.382628 0.949061
vt 0.377313 0.954010
vt 0.383118 0.956496
vt 0.377815 0.959715
vt 0.386796 0.961444
vt 0.384970 0.967259
vt 0.378050 0.964066
vt 0.019742 0.928262
vt 0.024440 0.929964
vt 0.014654 0.944274
vt 0.018771 0.948777
vt 0.020102 0.955145
vt 0.011114 0.953557
vt 0.018854 0.965976
vt 0.432852 0.882202
vt 0.423775 0.897733
vt 0.011114 0.939777
vt 0.011507 0.965171
vt 0.428177 0.880497
vt 0.016279 0.971006
vt 0.146111 0.977334
vt 0.144569 0.981975
vt 0.140384 0.977746
vt 0.140215 0.982273
vt 0.137563 0.980399
vt 0.138865 0.445443
vt 0.142252 0.441071
vt 0.143639 0.446757
vt 0.134415 0.976502
vt 0.145428 0.454229
vt 0.135354 0.462064
vt 0.133782 0.448352
vt 0.137012 0.971806
vt 0.433222 0.875675
vt 0.438648 0.883159
vt 0.146756 0.445832
vt 0.840590 0.858676
vt 0.837851 0.862380
vt 0.831704 0.857173
vt 0.145603 0.462373
vt 0.152421 0.470260
vt 0.149983 0.459240
vt 0.855233 0.860131
vt 0.851053 0.842887
vt 0.842243 0.846527
vt 0.836438 0.847592
vt 0.829042 0.850166
vt 0.834601 0.844187
vt 0.028840 0.953121
vt 0.410694 0.947018
vt 0.408776 0.953597
vt 0.875686 0.852976
vt 0.296461 0.013370
vt 0.302291 0.042210
vt 0.285651 0.044896
vt 0.679897 0.956275
vt 0.821629 0.960517
vt 0.813707 0.964172
vt 0.819611 0.959455
vt 0.965638 0.225379
vt 0.970239 0.957958
vt 0.148407 0.984386
vt 0.141596 0.986039
vt 0.136270 0.984735
vt 0.825059 0.852498
vt 0.828926 0.850256
vt 0.829305 0.855204
vt 0.026137 0.962092
vt 0.352562 0.031334
vt 0.354842 0.018133
vt 0.356999 0.022809
vt 0.332108 0.017681
vt 0.326268 0.037982
vt 0.317944 0.040726
vt 0.268854 0.012916
vt 0.254945 0.046268
vt 0.262478 0.012589
vt 0.254517 0.089880
vt 0.238888 0.064176
vt 0.258704 0.077556
vt 0.265715 0.067639
vt 0.239373 0.081107
vt 0.245128 0.090670
vt 0.234484 0.012728
vt 0.245669 0.046238
vt 0.227443 0.045359
vt 0.202059 0.013912
vt 0.214266 0.044563
vt 0.199743 0.041580
vt 0.164766 0.028435
vt 0.174904 0.014739
vt 0.174479 0.037276
vt 0.324528 0.014388
vt 0.336094 0.031878
vt 0.272069 0.045827
vt 0.167020 0.032183
vt 0.168196 0.018824
vt 0.181729 0.039416
s 1
usemtl pleuraldeles_skin
f 112/169/124 111/168/123 113/170/125
f 114/171/126 90/132/100 112/172/124
f 115/174/127 112/169/124 113/170/125
f 112/172/124 115/175/128 114/171/126
f 115/174/127 113/170/125 116/176/129
f 115/177/127 116/178/129 117/179/130
f 116/178/129 118/180/131 117/179/130
f 117/179/132 118/180/132 119/181/132
f 121/182/133 119/183/134 120/184/135
f 117/179/136 119/181/134 121/185/133
f 121/182/133 120/184/135 122/186/137
f 121/182/133 122/186/137 124/187/138
f 123/188/139 121/182/133 124/187/138
f 123/189/139 117/179/136 121/185/133
f 123/188/139 124/187/138 86/122/90
f 114/171/126 117/190/136 123/191/139
f 123/191/139 86/125/90 88/129/97
f 123/191/139 88/129/97 114/171/126
f 120/184/135 133/192/141 122/186/137
f 134/193/142 122/194/137 133/195/141
f 13/23/15 135/199/146 12/22/14
f 126/200/147 3/5/3 136/201/148
f 136/202/148 132/203/149 113/204/150
f 111/168/123 126/205/147 113/170/150
f 114/171/126 115/175/128 117/190/136
f 88/129/97 90/132/100 114/171/126
f 116/178/158 113/218/150 132/219/149
f 132/219/149 118/180/159 116/178/158
f 119/181/134 118/180/160 133/220/141
f 118/221/160 132/222/161 133/223/141
f 120/184/135 119/183/134 133/192/141
f 12/22/152 135/199/162 3/5/153
f 113/170/150 126/205/147 136/224/148
f 2/1/1 1/2/2 3/3/3
f 4/4/4 3/5/3 1/6/2
f 1/7/2 5/8/5 4/9/4
f 1/7/2 6/10/6 5/8/5
f 8/11/7 128/12/8 129/13/9
f 9/14/10 129/13/9 10/15/11
f 10/15/11 129/13/9 130/16/12
f 130/17/12 11/18/13 10/19/11
f 9/20/10 10/21/11 12/22/14
f 12/22/14 10/21/11 13/23/15
f 14/24/16 13/25/15 10/26/17
f 14/27/18 10/15/11 11/28/13
f 13/25/15 14/24/16 16/29/19
f 15/30/20 14/24/18 17/31/21
f 15/30/20 16/29/22 14/24/18
f 14/24/18 11/18/13 17/31/21
f 18/32/23 17/31/21 11/18/13
f 19/33/24 17/31/21 18/32/23
f 20/34/25 19/33/24 18/32/23
f 18/32/23 21/35/26 20/34/25
f 18/32/23 130/17/12 21/35/26
f 26/36/27 25/37/28 24/38/29
f 26/36/27 24/38/29 23/39/30
f 27/40/31 25/37/28 26/36/27
f 28/41/32 27/40/31 30/42/33
f 29/43/34 27/40/31 28/41/32
f 27/40/31 29/43/34 25/37/28
f 26/36/27 30/42/33 27/40/31
f 30/42/33 31/44/35 28/41/32
f 30/42/33 32/45/36 34/46/37
f 26/36/27 32/45/36 30/42/33
f 30/42/33 33/47/38 31/44/35
f 33/47/38 30/42/33 34/46/37
f 33/47/38 34/46/37 35/48/39
f 34/49/37 36/50/40 35/51/39
f 32/52/36 36/50/40 34/49/37
f 32/52/36 37/53/41 36/50/40
f 38/54/42 36/50/40 37/53/41
f 39/55/43 38/54/42 37/53/41
f 40/56/44 38/54/42 39/55/43
f 41/57/45 38/54/42 40/56/44
f 42/58/46 41/57/45 40/56/44
f 42/58/46 43/59/47 41/57/45
f 43/59/47 44/60/48 41/57/45
f 44/60/48 45/61/49 41/57/45
f 45/61/49 44/60/48 48/62/50
f 46/63/51 48/64/50 44/65/48
f 44/65/48 47/66/52 46/63/51
f 44/60/48 43/59/47 47/67/52
f 45/68/49 48/64/50 49/69/53
f 49/69/53 51/70/54 50/71/55
f 51/70/54 49/69/53 52/72/56
f 48/64/50 52/72/56 49/69/53
f 55/73/57 52/72/56 53/74/58
f 51/70/54 52/72/56 54/75/59
f 55/73/57 54/75/59 52/72/56
f 57/76/60 54/75/59 55/73/57
f 55/73/57 56/77/61 57/76/60
f 56/77/61 55/73/57 58/78/62
f 58/78/62 59/79/63 56/77/61
f 56/77/61 59/79/63 61/80/64
f 56/77/61 61/80/64 60/81/65
f 61/80/64 63/82/66 60/81/65
f 61/80/64 59/79/63 62/83/67
f 16/84/22 63/85/66 64/86/68
f 63/85/66 61/87/64 64/86/68
f 63/88/66 15/30/20 65/89/69
f 15/30/20 63/88/66 16/29/22
f 63/88/66 65/89/69 60/90/65
f 66/91/70 60/90/65 65/89/69
f 67/92/71 66/91/70 65/89/69
f 69/93/72 66/91/70 67/92/71
f 68/94/73 67/92/71 70/95/74
f 68/94/73 69/93/72 67/92/71
f 70/95/74 71/96/75 68/94/73
f 73/97/76 72/98/77 71/96/75
f 68/94/73 71/96/75 72/98/77
f 70/95/74 19/33/24 71/96/75
f 20/34/25 71/96/75 19/33/24
f 71/96/75 20/34/25 73/97/76
f 29/43/34 73/99/76 74/100/78
f 73/99/76 29/43/34 75/101/79
f 74/102/78 73/97/76 20/34/25
f 29/43/34 28/41/32 75/101/79
f 75/101/79 28/41/32 76/103/80
f 75/101/79 76/103/80 77/104/81
f 77/104/81 73/99/76 75/101/79
f 77/105/81 68/94/73 72/98/77
f 73/97/76 77/105/81 72/98/77
f 69/93/72 68/94/73 78/106/82
f 77/105/81 78/106/82 68/94/73
f 57/76/60 69/107/72 78/108/82
f 60/81/65 69/107/72 56/77/61
f 60/81/65 66/109/70 69/107/72
f 57/76/60 56/77/61 69/107/72
f 78/110/82 76/103/80 79/111/83
f 80/112/84 78/108/82 79/113/83
f 78/110/82 77/104/81 76/103/80
f 57/76/60 78/108/82 80/112/84
f 54/75/59 57/76/60 80/112/84
f 80/112/84 81/114/85 54/75/59
f 79/113/83 81/114/85 80/112/84
f 51/70/54 54/75/59 81/114/85
f 79/111/83 82/115/86 81/116/85
f 82/115/86 33/47/38 81/116/85
f 35/117/39 51/70/54 81/114/85
f 35/48/39 81/116/85 33/47/38
f 51/70/54 35/117/39 50/71/55
f 79/111/83 31/44/35 82/115/86
f 82/115/86 31/44/35 33/47/38
f 76/103/80 31/44/35 79/111/83
f 76/103/80 28/41/32 31/44/35
f 74/100/78 83/118/87 25/37/28
f 29/43/34 74/100/78 25/37/28
f 20/34/25 83/119/87 74/102/78
f 20/34/25 84/120/88 83/119/87
f 25/37/28 83/118/87 131/121/89
f 20/34/25 21/35/26 84/120/88
f 70/95/74 17/31/21 19/33/24
f 17/31/21 70/95/74 67/92/71
f 15/30/20 17/31/21 67/92/71
f 67/92/71 65/89/69 15/30/20
f 86/122/90 85/123/91 64/124/92
f 85/123/91 16/29/93 64/124/92
f 86/125/90 64/126/94 87/127/95
f 61/87/64 87/128/96 64/86/68
f 88/129/97 86/125/90 87/127/95
f 87/127/95 89/130/98 88/129/97
f 89/130/98 91/131/99 90/132/100
f 89/130/98 90/132/100 88/129/97
f 89/130/98 92/133/101 91/131/99
f 89/130/98 87/127/95 92/133/101
f 92/133/101 93/134/102 91/131/99
f 92/135/101 87/136/96 94/137/103
f 92/135/101 95/138/104 93/139/102
f 95/138/104 92/135/101 96/140/105
f 92/135/101 94/137/103 96/140/105
f 95/138/104 96/140/105 47/141/52
f 97/142/106 46/63/51 96/143/105
f 97/142/106 96/143/105 94/144/103
f 96/143/105 46/63/51 47/66/52
f 62/83/67 97/142/106 94/144/103
f 59/79/63 97/142/106 62/83/67
f 94/137/103 87/136/96 62/145/67
f 97/142/106 59/79/63 58/78/62
f 58/78/62 53/74/58 97/142/106
f 58/78/62 55/73/57 53/74/58
f 53/74/58 46/63/51 97/142/106
f 48/64/50 46/63/51 53/74/58
f 47/67/52 43/59/47 95/146/104
f 43/59/47 99/147/107 95/146/104
f 95/138/104 99/148/107 98/149/108
f 100/150/109 99/147/107 43/59/47
f 6/151/6 99/147/107 100/150/109
f 1/7/2 99/148/107 6/10/6
f 99/148/107 1/7/2 98/149/108
f 100/150/109 43/59/47 42/58/46
f 100/150/109 101/152/110 6/151/6
f 101/152/110 100/150/109 42/58/46
f 101/152/110 102/153/111 6/151/6
f 6/151/6 7/154/112 5/155/5
f 6/151/6 102/153/111 7/154/112
f 102/153/111 104/156/113 7/154/112
f 102/153/111 103/157/114 104/156/113
f 101/152/110 103/157/114 102/153/111
f 103/157/114 105/158/115 104/156/113
f 107/159/116 106/160/117 105/158/115
f 103/157/114 107/159/116 105/158/115
f 108/161/118 106/160/117 107/159/116
f 39/55/43 107/159/116 103/157/114
f 39/55/43 103/157/114 40/56/44
f 108/161/118 107/159/116 39/55/43
f 108/161/118 39/55/43 37/53/41
f 32/52/36 108/161/118 37/53/41
f 108/161/118 32/52/36 23/162/30
f 108/161/118 23/162/30 106/160/117
f 106/160/117 23/162/30 22/163/119
f 42/58/46 40/56/44 101/152/110
f 101/152/110 40/56/44 103/157/114
f 93/164/102 98/165/120 109/166/121
f 109/166/121 98/165/120 110/167/122
f 98/165/120 1/2/2 110/167/122
f 93/139/102 95/138/104 98/149/108
f 110/167/122 2/1/1 111/168/123
f 112/169/124 110/167/122 111/168/123
f 112/169/124 109/166/121 110/167/122
f 110/167/122 1/2/2 2/1/1
f 91/131/99 112/172/124 90/132/100
f 112/169/124 91/173/99 109/166/121
f 124/187/138 122/186/137 85/123/140
f 86/122/90 124/187/138 85/123/91
f 122/186/137 125/196/143 85/123/140
f 135/197/144 125/196/143 134/198/142
f 85/123/140 135/197/144 16/29/145
f 111/168/123 2/1/1 126/205/147
f 2/1/1 3/3/3 126/205/147
f 91/173/99 93/164/102 109/166/121
f 53/74/58 52/72/56 48/64/50
f 49/206/53 50/207/55 45/61/49
f 38/54/42 50/207/55 36/50/40
f 38/54/42 45/61/49 50/207/55
f 45/61/49 38/54/42 41/57/45
f 36/50/40 50/207/55 35/51/39
f 23/39/30 32/45/36 26/36/27
f 8/208/151 12/22/152 3/5/153
f 9/20/154 12/22/152 8/208/151
f 4/4/155 8/208/151 3/5/153
s 0
f 24/209/156 130/210/156 129/211/156
s 1
f 4/9/4 5/8/5 127/212/157
f 5/213/5 7/214/112 127/215/157
f 9/14/10 8/11/7 129/13/9
f 18/32/23 11/18/13 130/17/12
f 23/39/30 24/38/29 22/216/119
f 25/37/28 131/121/89 24/38/29
f 87/128/96 61/87/64 62/217/67
f 125/196/143 122/186/137 134/198/142
f 135/197/144 85/123/140 125/196/143
f 13/25/15 16/29/19 135/197/146
f 128/12/8 8/11/7 4/9/163
s 0
f 84/225/164 131/226/164 83/227/164
f 131/228/165 21/229/165 130/230/165
f 24/231/166 128/232/166 22/233/166
f 133/234/167 3/235/167 134/236/167
f 135/237/168 134/236/168 3/235/168
f 136/238/169 133/234/169 132/239/169
f 22/240/170 128/241/170 4/242/170
f 22/243/171 4/244/171 127/245/171
f 105/246/172 22/247/172 7/248/172
f 130/230/173 24/249/173 131/228/173
f 131/228/174 84/250/174 21/229/174
f 24/231/175 129/251/175 128/232/175
f 136/238/176 3/235/176 133/234/176
f 7/248/177 104/252/177 105/246/177
f 105/246/178 106/253/178 22/247/178
f 22/247/179 127/254/179 7/248/179
